<?xml version="1.0" encoding="UTF-8" standalone="no"?>
<!DOCTYPE svg PUBLIC "-//W3C//DTD SVG 1.1//EN"
 "http://www.w3.org/Graphics/SVG/1.1/DTD/svg11.dtd">
<!-- Generated by graphviz version 2.43.0 (0)
 -->
<!-- Title: itk::Function::OverUnderColormapFunction&lt; TScalar, TRGBPixel &gt; Pages: 1 -->
<svg width="179pt" height="229pt"
 viewBox="0.00 0.00 179.00 229.00" xmlns="http://www.w3.org/2000/svg" xmlns:xlink="http://www.w3.org/1999/xlink">
<g id="graph0" class="graph" transform="scale(1 1) rotate(0) translate(4 225)">
<title>itk::Function::OverUnderColormapFunction&lt; TScalar, TRGBPixel &gt;</title>
<polygon fill="white" stroke="transparent" points="-4,4 -4,-225 175,-225 175,4 -4,4"/>
<!-- Node1 -->
<g id="node1" class="node">
<title>Node1</title>
<g id="a_node1"><a xlink:title="Function object which maps a scalar value into an RGB colormap value.">
<polygon fill="#bfbfbf" stroke="black" points="8,-0.5 8,-41.5 163,-41.5 163,-0.5 8,-0.5"/>
<text text-anchor="start" x="16" y="-29.5" font-family="Helvetica,sans-Serif" font-size="10.00">itk::Function::OverUnder</text>
<text text-anchor="start" x="16" y="-18.5" font-family="Helvetica,sans-Serif" font-size="10.00">ColormapFunction&lt; TScalar,</text>
<text text-anchor="middle" x="85.5" y="-7.5" font-family="Helvetica,sans-Serif" font-size="10.00"> TRGBPixel &gt;</text>
</a>
</g>
</g>
<!-- Node2 -->
<g id="node2" class="node">
<title>Node2</title>
<g id="a_node2"><a xlink:href="classitk_1_1Function_1_1ColormapFunction.html" target="_top" xlink:title="Function object which maps a scalar value into an RGB colormap value.">
<polygon fill="white" stroke="black" points="0,-78.5 0,-108.5 171,-108.5 171,-78.5 0,-78.5"/>
<text text-anchor="start" x="8" y="-96.5" font-family="Helvetica,sans-Serif" font-size="10.00">itk::Function::ColormapFunction</text>
<text text-anchor="middle" x="85.5" y="-85.5" font-family="Helvetica,sans-Serif" font-size="10.00">&lt; TScalar, TRGBPixel &gt;</text>
</a>
</g>
</g>
<!-- Node2&#45;&gt;Node1 -->
<g id="edge1" class="edge">
<title>Node2&#45;&gt;Node1</title>
<path fill="none" stroke="midnightblue" d="M85.5,-67.98C85.5,-59.35 85.5,-49.76 85.5,-41.59"/>
<polygon fill="midnightblue" stroke="midnightblue" points="82,-68.23 85.5,-78.23 89,-68.23 82,-68.23"/>
</g>
<!-- Node3 -->
<g id="node3" class="node">
<title>Node3</title>
<g id="a_node3"><a xlink:href="classitk_1_1Object.html" target="_top" xlink:title="Base class for most ITK classes.">
<polygon fill="white" stroke="black" points="52,-145.5 52,-164.5 119,-164.5 119,-145.5 52,-145.5"/>
<text text-anchor="middle" x="85.5" y="-152.5" font-family="Helvetica,sans-Serif" font-size="10.00">itk::Object</text>
</a>
</g>
</g>
<!-- Node3&#45;&gt;Node2 -->
<g id="edge2" class="edge">
<title>Node3&#45;&gt;Node2</title>
<path fill="none" stroke="midnightblue" d="M85.5,-135.23C85.5,-126.59 85.5,-116.5 85.5,-108.52"/>
<polygon fill="midnightblue" stroke="midnightblue" points="82,-135.48 85.5,-145.48 89,-135.48 82,-135.48"/>
</g>
<!-- Node4 -->
<g id="node4" class="node">
<title>Node4</title>
<g id="a_node4"><a xlink:href="classitk_1_1LightObject.html" target="_top" xlink:title="Light weight base class for most itk classes.">
<polygon fill="white" stroke="black" points="40,-201.5 40,-220.5 131,-220.5 131,-201.5 40,-201.5"/>
<text text-anchor="middle" x="85.5" y="-208.5" font-family="Helvetica,sans-Serif" font-size="10.00">itk::LightObject</text>
</a>
</g>
</g>
<!-- Node4&#45;&gt;Node3 -->
<g id="edge3" class="edge">
<title>Node4&#45;&gt;Node3</title>
<path fill="none" stroke="midnightblue" d="M85.5,-190.8C85.5,-181.91 85.5,-171.78 85.5,-164.75"/>
<polygon fill="midnightblue" stroke="midnightblue" points="82,-191.08 85.5,-201.08 89,-191.08 82,-191.08"/>
</g>
</g>
</svg>
