<?xml version="1.0" encoding="UTF-8" standalone="no"?>
<!DOCTYPE svg PUBLIC "-//W3C//DTD SVG 1.1//EN"
 "http://www.w3.org/Graphics/SVG/1.1/DTD/svg11.dtd">
<!-- Generated by graphviz version 2.43.0 (0)
 -->
<!-- Title: itk::LevelSetEvolution&lt; TEquationContainer, ShiSparseLevelSetImage&lt; VDimension &gt; &gt; Pages: 1 -->
<svg width="596pt" height="61pt"
 viewBox="0.00 0.00 596.00 61.00" xmlns="http://www.w3.org/2000/svg" xmlns:xlink="http://www.w3.org/1999/xlink">
<g id="graph0" class="graph" transform="scale(1 1) rotate(0) translate(4 57)">
<title>itk::LevelSetEvolution&lt; TEquationContainer, ShiSparseLevelSetImage&lt; VDimension &gt; &gt;</title>
<polygon fill="white" stroke="transparent" points="-4,4 -4,-57 592,-57 592,4 -4,4"/>
<!-- Node1 -->
<g id="node1" class="node">
<title>Node1</title>
<g id="a_node1"><a xlink:title=" ">
<polygon fill="#bfbfbf" stroke="black" points="448,-0.5 448,-52.5 588,-52.5 588,-0.5 448,-0.5"/>
<text text-anchor="start" x="456" y="-40.5" font-family="Helvetica,sans-Serif" font-size="10.00">itk::LevelSetEvolution</text>
<text text-anchor="start" x="456" y="-29.5" font-family="Helvetica,sans-Serif" font-size="10.00">&lt; TEquationContainer,</text>
<text text-anchor="start" x="456" y="-18.5" font-family="Helvetica,sans-Serif" font-size="10.00"> ShiSparseLevelSetImage</text>
<text text-anchor="middle" x="518" y="-7.5" font-family="Helvetica,sans-Serif" font-size="10.00">&lt; VDimension &gt; &gt;</text>
</a>
</g>
</g>
<!-- Node2 -->
<g id="node2" class="node">
<title>Node2</title>
<g id="a_node2"><a xlink:href="classitk_1_1LevelSetEvolutionBase.html" target="_top" xlink:title=" ">
<polygon fill="white" stroke="black" points="230,-6 230,-47 412,-47 412,-6 230,-6"/>
<text text-anchor="start" x="238" y="-35" font-family="Helvetica,sans-Serif" font-size="10.00">itk::LevelSetEvolutionBase</text>
<text text-anchor="start" x="238" y="-24" font-family="Helvetica,sans-Serif" font-size="10.00">&lt; TEquationContainer, ShiSparse</text>
<text text-anchor="middle" x="321" y="-13" font-family="Helvetica,sans-Serif" font-size="10.00">LevelSetImage&lt; VDimension &gt; &gt;</text>
</a>
</g>
</g>
<!-- Node2&#45;&gt;Node1 -->
<g id="edge1" class="edge">
<title>Node2&#45;&gt;Node1</title>
<path fill="none" stroke="midnightblue" d="M422.2,-26.5C430.83,-26.5 439.43,-26.5 447.73,-26.5"/>
<polygon fill="midnightblue" stroke="midnightblue" points="422.08,-23 412.08,-26.5 422.08,-30 422.08,-23"/>
</g>
<!-- Node3 -->
<g id="node3" class="node">
<title>Node3</title>
<g id="a_node3"><a xlink:href="classitk_1_1Object.html" target="_top" xlink:title="Base class for most ITK classes.">
<polygon fill="white" stroke="black" points="127,-17 127,-36 194,-36 194,-17 127,-17"/>
<text text-anchor="middle" x="160.5" y="-24" font-family="Helvetica,sans-Serif" font-size="10.00">itk::Object</text>
</a>
</g>
</g>
<!-- Node3&#45;&gt;Node2 -->
<g id="edge2" class="edge">
<title>Node3&#45;&gt;Node2</title>
<path fill="none" stroke="midnightblue" d="M204.48,-26.5C212.49,-26.5 221.14,-26.5 229.97,-26.5"/>
<polygon fill="midnightblue" stroke="midnightblue" points="204.34,-23 194.34,-26.5 204.34,-30 204.34,-23"/>
</g>
<!-- Node4 -->
<g id="node4" class="node">
<title>Node4</title>
<g id="a_node4"><a xlink:href="classitk_1_1LightObject.html" target="_top" xlink:title="Light weight base class for most itk classes.">
<polygon fill="white" stroke="black" points="0,-17 0,-36 91,-36 91,-17 0,-17"/>
<text text-anchor="middle" x="45.5" y="-24" font-family="Helvetica,sans-Serif" font-size="10.00">itk::LightObject</text>
</a>
</g>
</g>
<!-- Node4&#45;&gt;Node3 -->
<g id="edge3" class="edge">
<title>Node4&#45;&gt;Node3</title>
<path fill="none" stroke="midnightblue" d="M101.28,-26.5C109.96,-26.5 118.69,-26.5 126.66,-26.5"/>
<polygon fill="midnightblue" stroke="midnightblue" points="101.16,-23 91.16,-26.5 101.16,-30 101.16,-23"/>
</g>
</g>
</svg>
