<?xml version="1.0" encoding="UTF-8" standalone="no"?>
<!DOCTYPE svg PUBLIC "-//W3C//DTD SVG 1.1//EN"
 "http://www.w3.org/Graphics/SVG/1.1/DTD/svg11.dtd">
<!-- Generated by graphviz version 2.43.0 (0)
 -->
<!-- Title: itk::MultiTransform&lt; TParametersValueType, VDimension, VSubDimensions &gt; Pages: 1 -->
<svg width="187pt" height="296pt"
 viewBox="0.00 0.00 187.00 296.00" xmlns="http://www.w3.org/2000/svg" xmlns:xlink="http://www.w3.org/1999/xlink">
<g id="graph0" class="graph" transform="scale(1 1) rotate(0) translate(4 292)">
<title>itk::MultiTransform&lt; TParametersValueType, VDimension, VSubDimensions &gt;</title>
<polygon fill="white" stroke="transparent" points="-4,4 -4,-292 183,-292 183,4 -4,4"/>
<!-- Node1 -->
<g id="node1" class="node">
<title>Node1</title>
<g id="a_node1"><a xlink:title="This abstract class contains a list of transforms and provides basic methods.">
<polygon fill="#bfbfbf" stroke="black" points="0,-0.5 0,-41.5 179,-41.5 179,-0.5 0,-0.5"/>
<text text-anchor="start" x="8" y="-29.5" font-family="Helvetica,sans-Serif" font-size="10.00">itk::MultiTransform</text>
<text text-anchor="start" x="8" y="-18.5" font-family="Helvetica,sans-Serif" font-size="10.00">&lt; TParametersValueType,</text>
<text text-anchor="middle" x="89.5" y="-7.5" font-family="Helvetica,sans-Serif" font-size="10.00"> VDimension, VSubDimensions &gt;</text>
</a>
</g>
</g>
<!-- Node2 -->
<g id="node2" class="node">
<title>Node2</title>
<g id="a_node2"><a xlink:href="classitk_1_1Transform.html" target="_top" xlink:title=" ">
<polygon fill="white" stroke="black" points="24,-78.5 24,-108.5 155,-108.5 155,-78.5 24,-78.5"/>
<text text-anchor="start" x="32" y="-96.5" font-family="Helvetica,sans-Serif" font-size="10.00">itk::Transform&lt; double,</text>
<text text-anchor="middle" x="89.5" y="-85.5" font-family="Helvetica,sans-Serif" font-size="10.00"> 3, 3 &gt;</text>
</a>
</g>
</g>
<!-- Node2&#45;&gt;Node1 -->
<g id="edge1" class="edge">
<title>Node2&#45;&gt;Node1</title>
<path fill="none" stroke="midnightblue" d="M89.5,-67.98C89.5,-59.35 89.5,-49.76 89.5,-41.59"/>
<polygon fill="midnightblue" stroke="midnightblue" points="86,-68.23 89.5,-78.23 93,-68.23 86,-68.23"/>
</g>
<!-- Node3 -->
<g id="node3" class="node">
<title>Node3</title>
<g id="a_node3"><a xlink:href="classitk_1_1TransformBaseTemplate.html" target="_top" xlink:title=" ">
<polygon fill="white" stroke="black" points="13,-145.5 13,-175.5 166,-175.5 166,-145.5 13,-145.5"/>
<text text-anchor="start" x="21" y="-163.5" font-family="Helvetica,sans-Serif" font-size="10.00">itk::TransformBaseTemplate</text>
<text text-anchor="middle" x="89.5" y="-152.5" font-family="Helvetica,sans-Serif" font-size="10.00">&lt; double &gt;</text>
</a>
</g>
</g>
<!-- Node3&#45;&gt;Node2 -->
<g id="edge2" class="edge">
<title>Node3&#45;&gt;Node2</title>
<path fill="none" stroke="midnightblue" d="M89.5,-135.11C89.5,-126.15 89.5,-116.32 89.5,-108.58"/>
<polygon fill="midnightblue" stroke="midnightblue" points="86,-135.4 89.5,-145.4 93,-135.4 86,-135.4"/>
</g>
<!-- Node4 -->
<g id="node4" class="node">
<title>Node4</title>
<g id="a_node4"><a xlink:href="classitk_1_1Object.html" target="_top" xlink:title="Base class for most ITK classes.">
<polygon fill="white" stroke="black" points="56,-212.5 56,-231.5 123,-231.5 123,-212.5 56,-212.5"/>
<text text-anchor="middle" x="89.5" y="-219.5" font-family="Helvetica,sans-Serif" font-size="10.00">itk::Object</text>
</a>
</g>
</g>
<!-- Node4&#45;&gt;Node3 -->
<g id="edge3" class="edge">
<title>Node4&#45;&gt;Node3</title>
<path fill="none" stroke="midnightblue" d="M89.5,-202.23C89.5,-193.59 89.5,-183.5 89.5,-175.52"/>
<polygon fill="midnightblue" stroke="midnightblue" points="86,-202.48 89.5,-212.48 93,-202.48 86,-202.48"/>
</g>
<!-- Node5 -->
<g id="node5" class="node">
<title>Node5</title>
<g id="a_node5"><a xlink:href="classitk_1_1LightObject.html" target="_top" xlink:title="Light weight base class for most itk classes.">
<polygon fill="white" stroke="black" points="44,-268.5 44,-287.5 135,-287.5 135,-268.5 44,-268.5"/>
<text text-anchor="middle" x="89.5" y="-275.5" font-family="Helvetica,sans-Serif" font-size="10.00">itk::LightObject</text>
</a>
</g>
</g>
<!-- Node5&#45;&gt;Node4 -->
<g id="edge4" class="edge">
<title>Node5&#45;&gt;Node4</title>
<path fill="none" stroke="midnightblue" d="M89.5,-257.8C89.5,-248.91 89.5,-238.78 89.5,-231.75"/>
<polygon fill="midnightblue" stroke="midnightblue" points="86,-258.08 89.5,-268.08 93,-258.08 86,-258.08"/>
</g>
</g>
</svg>
