<?xml version="1.0" encoding="UTF-8" standalone="no"?>
<!DOCTYPE svg PUBLIC "-//W3C//DTD SVG 1.1//EN"
 "http://www.w3.org/Graphics/SVG/1.1/DTD/svg11.dtd">
<!-- Generated by graphviz version 2.43.0 (0)
 -->
<!-- Title: itk::MultipleValuedCostFunction Pages: 1 -->
<svg width="947pt" height="94pt"
 viewBox="0.00 0.00 947.00 93.50" xmlns="http://www.w3.org/2000/svg" xmlns:xlink="http://www.w3.org/1999/xlink">
<g id="graph0" class="graph" transform="scale(1 1) rotate(0) translate(4 89.5)">
<title>itk::MultipleValuedCostFunction</title>
<polygon fill="white" stroke="transparent" points="-4,4 -4,-89.5 943,-89.5 943,4 -4,4"/>
<!-- Node1 -->
<g id="node1" class="node">
<title>Node1</title>
<g id="a_node1"><a xlink:title="This class is a base for the CostFunctions returning a multiple values.">
<polygon fill="#bfbfbf" stroke="black" points="346,-35.5 346,-54.5 517,-54.5 517,-35.5 346,-35.5"/>
<text text-anchor="middle" x="431.5" y="-42.5" font-family="Helvetica,sans-Serif" font-size="10.00">itk::MultipleValuedCostFunction</text>
</a>
</g>
</g>
<!-- Node5 -->
<g id="node5" class="node">
<title>Node5</title>
<g id="a_node5"><a xlink:href="classitk_1_1CumulativeGaussianCostFunction.html" target="_top" xlink:title="Cost function for the Cumulative Gaussian Optimizer.">
<polygon fill="white" stroke="black" points="574,-55 574,-85 732,-85 732,-55 574,-55"/>
<text text-anchor="start" x="582" y="-73" font-family="Helvetica,sans-Serif" font-size="10.00">itk::CumulativeGaussianCost</text>
<text text-anchor="middle" x="653" y="-62" font-family="Helvetica,sans-Serif" font-size="10.00">Function</text>
</a>
</g>
</g>
<!-- Node1&#45;&gt;Node5 -->
<g id="edge4" class="edge">
<title>Node1&#45;&gt;Node5</title>
<path fill="none" stroke="midnightblue" d="M526.39,-55.69C542.15,-57.49 558.36,-59.34 573.68,-61.08"/>
<polygon fill="midnightblue" stroke="midnightblue" points="526.44,-52.18 516.11,-54.52 525.65,-59.13 526.44,-52.18"/>
</g>
<!-- Node6 -->
<g id="node6" class="node">
<title>Node6</title>
<g id="a_node6"><a xlink:href="classitk_1_1PointSetToPointSetMetric.html" target="_top" xlink:title="Computes similarity between two point sets.">
<polygon fill="white" stroke="black" points="553,-6 553,-36 753,-36 753,-6 553,-6"/>
<text text-anchor="start" x="561" y="-24" font-family="Helvetica,sans-Serif" font-size="10.00">itk::PointSetToPointSetMetric</text>
<text text-anchor="middle" x="653" y="-13" font-family="Helvetica,sans-Serif" font-size="10.00">&lt; TFixedPointSet, TMovingPointSet &gt;</text>
</a>
</g>
</g>
<!-- Node1&#45;&gt;Node6 -->
<g id="edge5" class="edge">
<title>Node1&#45;&gt;Node6</title>
<path fill="none" stroke="midnightblue" d="M527.02,-34.67C535.57,-33.73 544.25,-32.78 552.84,-31.84"/>
<polygon fill="midnightblue" stroke="midnightblue" points="526.61,-31.19 517.05,-35.76 527.37,-38.15 526.61,-31.19"/>
</g>
<!-- Node2 -->
<g id="node2" class="node">
<title>Node2</title>
<g id="a_node2"><a xlink:href="classitk_1_1CostFunctionTemplate.html" target="_top" xlink:title=" ">
<polygon fill="white" stroke="black" points="230,-35.5 230,-54.5 310,-54.5 310,-35.5 230,-35.5"/>
<text text-anchor="middle" x="270" y="-42.5" font-family="Helvetica,sans-Serif" font-size="10.00">CostFunction</text>
</a>
</g>
</g>
<!-- Node2&#45;&gt;Node1 -->
<g id="edge1" class="edge">
<title>Node2&#45;&gt;Node1</title>
<path fill="none" stroke="midnightblue" d="M320.13,-45C328.36,-45 337.1,-45 345.92,-45"/>
<polygon fill="midnightblue" stroke="midnightblue" points="320.02,-41.5 310.02,-45 320.02,-48.5 320.02,-41.5"/>
</g>
<!-- Node3 -->
<g id="node3" class="node">
<title>Node3</title>
<g id="a_node3"><a xlink:href="classitk_1_1Object.html" target="_top" xlink:title="Base class for most ITK classes.">
<polygon fill="white" stroke="black" points="127,-35.5 127,-54.5 194,-54.5 194,-35.5 127,-35.5"/>
<text text-anchor="middle" x="160.5" y="-42.5" font-family="Helvetica,sans-Serif" font-size="10.00">itk::Object</text>
</a>
</g>
</g>
<!-- Node3&#45;&gt;Node2 -->
<g id="edge2" class="edge">
<title>Node3&#45;&gt;Node2</title>
<path fill="none" stroke="midnightblue" d="M204.11,-45C212.56,-45 221.4,-45 229.74,-45"/>
<polygon fill="midnightblue" stroke="midnightblue" points="204.05,-41.5 194.05,-45 204.05,-48.5 204.05,-41.5"/>
</g>
<!-- Node4 -->
<g id="node4" class="node">
<title>Node4</title>
<g id="a_node4"><a xlink:href="classitk_1_1LightObject.html" target="_top" xlink:title="Light weight base class for most itk classes.">
<polygon fill="white" stroke="black" points="0,-35.5 0,-54.5 91,-54.5 91,-35.5 0,-35.5"/>
<text text-anchor="middle" x="45.5" y="-42.5" font-family="Helvetica,sans-Serif" font-size="10.00">itk::LightObject</text>
</a>
</g>
</g>
<!-- Node4&#45;&gt;Node3 -->
<g id="edge3" class="edge">
<title>Node4&#45;&gt;Node3</title>
<path fill="none" stroke="midnightblue" d="M101.28,-45C109.96,-45 118.69,-45 126.66,-45"/>
<polygon fill="midnightblue" stroke="midnightblue" points="101.16,-41.5 91.16,-45 101.16,-48.5 101.16,-41.5"/>
</g>
<!-- Node7 -->
<g id="node7" class="node">
<title>Node7</title>
<g id="a_node7"><a xlink:href="classitk_1_1EuclideanDistancePointMetric.html" target="_top" xlink:title="Computes the minimum distance between a moving point&#45;set and a fixed point&#45;set. A vector of minimum c...">
<polygon fill="white" stroke="black" points="789,-0.5 789,-41.5 939,-41.5 939,-0.5 789,-0.5"/>
<text text-anchor="start" x="797" y="-29.5" font-family="Helvetica,sans-Serif" font-size="10.00">itk::EuclideanDistancePoint</text>
<text text-anchor="start" x="797" y="-18.5" font-family="Helvetica,sans-Serif" font-size="10.00">Metric&lt; TFixedPointSet,</text>
<text text-anchor="middle" x="864" y="-7.5" font-family="Helvetica,sans-Serif" font-size="10.00"> TMovingPointSet &gt;</text>
</a>
</g>
</g>
<!-- Node6&#45;&gt;Node7 -->
<g id="edge6" class="edge">
<title>Node6&#45;&gt;Node7</title>
<path fill="none" stroke="midnightblue" d="M763.44,-21C772.07,-21 780.65,-21 788.96,-21"/>
<polygon fill="midnightblue" stroke="midnightblue" points="763.3,-17.5 753.3,-21 763.3,-24.5 763.3,-17.5"/>
</g>
</g>
</svg>
