<?xml version="1.0" encoding="UTF-8" standalone="no"?>
<!DOCTYPE svg PUBLIC "-//W3C//DTD SVG 1.1//EN"
 "http://www.w3.org/Graphics/SVG/1.1/DTD/svg11.dtd">
<!-- Generated by graphviz version 2.43.0 (0)
 -->
<!-- Title: itk::AmoebaOptimizerv4 Pages: 1 -->
<svg width="165pt" height="274pt"
 viewBox="0.00 0.00 165.00 274.00" xmlns="http://www.w3.org/2000/svg" xmlns:xlink="http://www.w3.org/1999/xlink">
<g id="graph0" class="graph" transform="scale(1 1) rotate(0) translate(4 270)">
<title>itk::AmoebaOptimizerv4</title>
<polygon fill="white" stroke="transparent" points="-4,4 -4,-270 161,-270 161,4 -4,4"/>
<!-- Node1 -->
<g id="node1" class="node">
<title>Node1</title>
<g id="a_node1"><a xlink:title="Wrap of the vnl_amoeba algorithm.">
<polygon fill="#bfbfbf" stroke="black" points="10.5,-0.5 10.5,-19.5 146.5,-19.5 146.5,-0.5 10.5,-0.5"/>
<text text-anchor="middle" x="78.5" y="-7.5" font-family="Helvetica,sans-Serif" font-size="10.00">itk::AmoebaOptimizerv4</text>
</a>
</g>
</g>
<!-- Node2 -->
<g id="node2" class="node">
<title>Node2</title>
<g id="a_node2"><a xlink:href="classitk_1_1SingleValuedNonLinearVnlOptimizerv4.html" target="_top" xlink:title="This is a base for the ITKv4 Optimization methods using the vnl library.">
<polygon fill="white" stroke="black" points="4.5,-56.5 4.5,-86.5 152.5,-86.5 152.5,-56.5 4.5,-56.5"/>
<text text-anchor="start" x="12.5" y="-74.5" font-family="Helvetica,sans-Serif" font-size="10.00">itk::SingleValuedNonLinear</text>
<text text-anchor="middle" x="78.5" y="-63.5" font-family="Helvetica,sans-Serif" font-size="10.00">VnlOptimizerv4</text>
</a>
</g>
</g>
<!-- Node2&#45;&gt;Node1 -->
<g id="edge1" class="edge">
<title>Node2&#45;&gt;Node1</title>
<path fill="none" stroke="midnightblue" d="M78.5,-46.29C78.5,-36.86 78.5,-26.65 78.5,-19.66"/>
<polygon fill="midnightblue" stroke="midnightblue" points="75,-46.4 78.5,-56.4 82,-46.4 75,-46.4"/>
</g>
<!-- Node3 -->
<g id="node3" class="node">
<title>Node3</title>
<g id="a_node3"><a xlink:href="classitk_1_1ObjectToObjectOptimizerBaseTemplate.html" target="_top" xlink:title=" ">
<polygon fill="white" stroke="black" points="0,-123.5 0,-153.5 157,-153.5 157,-123.5 0,-123.5"/>
<text text-anchor="start" x="8" y="-141.5" font-family="Helvetica,sans-Serif" font-size="10.00">itk::ObjectToObjectOptimizer</text>
<text text-anchor="middle" x="78.5" y="-130.5" font-family="Helvetica,sans-Serif" font-size="10.00">BaseTemplate&lt; double &gt;</text>
</a>
</g>
</g>
<!-- Node3&#45;&gt;Node2 -->
<g id="edge2" class="edge">
<title>Node3&#45;&gt;Node2</title>
<path fill="none" stroke="midnightblue" d="M78.5,-113.11C78.5,-104.15 78.5,-94.32 78.5,-86.58"/>
<polygon fill="midnightblue" stroke="midnightblue" points="75,-113.4 78.5,-123.4 82,-113.4 75,-113.4"/>
</g>
<!-- Node4 -->
<g id="node4" class="node">
<title>Node4</title>
<g id="a_node4"><a xlink:href="classitk_1_1Object.html" target="_top" xlink:title="Base class for most ITK classes.">
<polygon fill="white" stroke="black" points="45,-190.5 45,-209.5 112,-209.5 112,-190.5 45,-190.5"/>
<text text-anchor="middle" x="78.5" y="-197.5" font-family="Helvetica,sans-Serif" font-size="10.00">itk::Object</text>
</a>
</g>
</g>
<!-- Node4&#45;&gt;Node3 -->
<g id="edge3" class="edge">
<title>Node4&#45;&gt;Node3</title>
<path fill="none" stroke="midnightblue" d="M78.5,-180.23C78.5,-171.59 78.5,-161.5 78.5,-153.52"/>
<polygon fill="midnightblue" stroke="midnightblue" points="75,-180.48 78.5,-190.48 82,-180.48 75,-180.48"/>
</g>
<!-- Node5 -->
<g id="node5" class="node">
<title>Node5</title>
<g id="a_node5"><a xlink:href="classitk_1_1LightObject.html" target="_top" xlink:title="Light weight base class for most itk classes.">
<polygon fill="white" stroke="black" points="33,-246.5 33,-265.5 124,-265.5 124,-246.5 33,-246.5"/>
<text text-anchor="middle" x="78.5" y="-253.5" font-family="Helvetica,sans-Serif" font-size="10.00">itk::LightObject</text>
</a>
</g>
</g>
<!-- Node5&#45;&gt;Node4 -->
<g id="edge4" class="edge">
<title>Node5&#45;&gt;Node4</title>
<path fill="none" stroke="midnightblue" d="M78.5,-235.8C78.5,-226.91 78.5,-216.78 78.5,-209.75"/>
<polygon fill="midnightblue" stroke="midnightblue" points="75,-236.08 78.5,-246.08 82,-236.08 75,-236.08"/>
</g>
</g>
</svg>
