<?xml version="1.0" encoding="UTF-8" standalone="no"?>
<!DOCTYPE svg PUBLIC "-//W3C//DTD SVG 1.1//EN"
 "http://www.w3.org/Graphics/SVG/1.1/DTD/svg11.dtd">
<!-- Generated by graphviz version 2.43.0 (0)
 -->
<!-- Title: itk::MinMaxCurvatureFlowImageFilter&lt; TInputImage, TOutputImage &gt; Pages: 1 -->
<svg width="1353pt" height="914pt"
 viewBox="0.00 0.00 1353.00 914.00" xmlns="http://www.w3.org/2000/svg" xmlns:xlink="http://www.w3.org/1999/xlink">
<g id="graph0" class="graph" transform="scale(1 1) rotate(0) translate(4 910)">
<title>itk::MinMaxCurvatureFlowImageFilter&lt; TInputImage, TOutputImage &gt;</title>
<polygon fill="white" stroke="transparent" points="-4,4 -4,-910 1349,-910 1349,4 -4,4"/>
<!-- Node1 -->
<g id="node1" class="node">
<title>Node1</title>
<g id="a_node1"><a xlink:title="Denoise an image using min/max curvature flow.">
<polygon fill="#bfbfbf" stroke="black" points="41.5,-0.5 41.5,-41.5 189.5,-41.5 189.5,-0.5 41.5,-0.5"/>
<text text-anchor="start" x="49.5" y="-29.5" font-family="Helvetica,sans-Serif" font-size="10.00">itk::MinMaxCurvatureFlow</text>
<text text-anchor="start" x="49.5" y="-18.5" font-family="Helvetica,sans-Serif" font-size="10.00">ImageFilter&lt; TInputImage,</text>
<text text-anchor="middle" x="115.5" y="-7.5" font-family="Helvetica,sans-Serif" font-size="10.00"> TOutputImage &gt;</text>
</a>
</g>
</g>
<!-- Node2 -->
<g id="node2" class="node">
<title>Node2</title>
<g id="a_node2"><a xlink:href="classitk_1_1CurvatureFlowImageFilter.html" target="_top" xlink:title="Denoise an image using curvature driven flow.">
<polygon fill="white" stroke="black" points="27.5,-79.5 27.5,-109.5 203.5,-109.5 203.5,-79.5 27.5,-79.5"/>
<text text-anchor="start" x="35.5" y="-97.5" font-family="Helvetica,sans-Serif" font-size="10.00">itk::CurvatureFlowImageFilter</text>
<text text-anchor="middle" x="115.5" y="-86.5" font-family="Helvetica,sans-Serif" font-size="10.00">&lt; TInputImage, TOutputImage &gt;</text>
</a>
</g>
</g>
<!-- Node2&#45;&gt;Node1 -->
<g id="edge1" class="edge">
<title>Node2&#45;&gt;Node1</title>
<path fill="none" stroke="midnightblue" d="M115.5,-69.1C115.5,-60.1 115.5,-50.02 115.5,-41.51"/>
<polygon fill="midnightblue" stroke="midnightblue" points="112,-69.37 115.5,-79.37 119,-69.37 112,-69.37"/>
</g>
<!-- Node3 -->
<g id="node3" class="node">
<title>Node3</title>
<g id="a_node3"><a xlink:href="classitk_1_1DenseFiniteDifferenceImageFilter.html" target="_top" xlink:title=" ">
<polygon fill="white" stroke="black" points="41.5,-147.5 41.5,-188.5 189.5,-188.5 189.5,-147.5 41.5,-147.5"/>
<text text-anchor="start" x="49.5" y="-176.5" font-family="Helvetica,sans-Serif" font-size="10.00">itk::DenseFiniteDifference</text>
<text text-anchor="start" x="49.5" y="-165.5" font-family="Helvetica,sans-Serif" font-size="10.00">ImageFilter&lt; TInputImage,</text>
<text text-anchor="middle" x="115.5" y="-154.5" font-family="Helvetica,sans-Serif" font-size="10.00"> TOutputImage &gt;</text>
</a>
</g>
</g>
<!-- Node3&#45;&gt;Node2 -->
<g id="edge2" class="edge">
<title>Node3&#45;&gt;Node2</title>
<path fill="none" stroke="midnightblue" d="M115.5,-137.16C115.5,-127.69 115.5,-117.65 115.5,-109.8"/>
<polygon fill="midnightblue" stroke="midnightblue" points="112,-137.46 115.5,-147.46 119,-137.46 112,-137.46"/>
</g>
<!-- Node4 -->
<g id="node4" class="node">
<title>Node4</title>
<g id="a_node4"><a xlink:href="classitk_1_1FiniteDifferenceImageFilter.html" target="_top" xlink:title=" ">
<polygon fill="white" stroke="black" points="15,-226.5 15,-256.5 216,-256.5 216,-226.5 15,-226.5"/>
<text text-anchor="start" x="23" y="-244.5" font-family="Helvetica,sans-Serif" font-size="10.00">itk::FiniteDifferenceImage</text>
<text text-anchor="middle" x="115.5" y="-233.5" font-family="Helvetica,sans-Serif" font-size="10.00">Filter&lt; TInputImage, TOutputImage &gt;</text>
</a>
</g>
</g>
<!-- Node4&#45;&gt;Node3 -->
<g id="edge3" class="edge">
<title>Node4&#45;&gt;Node3</title>
<path fill="none" stroke="midnightblue" d="M115.5,-216.1C115.5,-207.1 115.5,-197.02 115.5,-188.51"/>
<polygon fill="midnightblue" stroke="midnightblue" points="112,-216.37 115.5,-226.37 119,-216.37 112,-216.37"/>
</g>
<!-- Node5 -->
<g id="node5" class="node">
<title>Node5</title>
<g id="a_node5"><a xlink:href="classitk_1_1InPlaceImageFilter.html" target="_top" xlink:title="Base class for filters that take an image as input and overwrite that image as the output.">
<polygon fill="white" stroke="black" points="296.5,-294.5 296.5,-324.5 472.5,-324.5 472.5,-294.5 296.5,-294.5"/>
<text text-anchor="start" x="304.5" y="-312.5" font-family="Helvetica,sans-Serif" font-size="10.00">itk::InPlaceImageFilter</text>
<text text-anchor="middle" x="384.5" y="-301.5" font-family="Helvetica,sans-Serif" font-size="10.00">&lt; TInputImage, TOutputImage &gt;</text>
</a>
</g>
</g>
<!-- Node5&#45;&gt;Node4 -->
<g id="edge4" class="edge">
<title>Node5&#45;&gt;Node4</title>
<path fill="none" stroke="midnightblue" d="M317.27,-292C272.79,-281.09 215.09,-266.93 172.79,-256.56"/>
<polygon fill="midnightblue" stroke="midnightblue" points="316.58,-295.44 327.12,-294.42 318.24,-288.64 316.58,-295.44"/>
</g>
<!-- Node6 -->
<g id="node6" class="node">
<title>Node6</title>
<g id="a_node6"><a xlink:href="classitk_1_1ImageToImageFilter.html" target="_top" xlink:title=" ">
<polygon fill="white" stroke="black" points="552.5,-362.5 552.5,-392.5 720.5,-392.5 720.5,-362.5 552.5,-362.5"/>
<text text-anchor="start" x="560.5" y="-380.5" font-family="Helvetica,sans-Serif" font-size="10.00">itk::ImageToImageFilter</text>
<text text-anchor="middle" x="636.5" y="-369.5" font-family="Helvetica,sans-Serif" font-size="10.00">&lt; TInputImage, TInputImage &gt;</text>
</a>
</g>
</g>
<!-- Node6&#45;&gt;Node5 -->
<g id="edge5" class="edge">
<title>Node6&#45;&gt;Node5</title>
<path fill="none" stroke="midnightblue" d="M572.99,-359.87C531.39,-348.97 477.63,-334.89 438.17,-324.56"/>
<polygon fill="midnightblue" stroke="midnightblue" points="572.19,-363.27 582.75,-362.42 573.96,-356.5 572.19,-363.27"/>
</g>
<!-- Node7 -->
<g id="node7" class="node">
<title>Node7</title>
<g id="a_node7"><a xlink:href="classitk_1_1ImageSource.html" target="_top" xlink:title=" ">
<polygon fill="white" stroke="black" points="566,-430.5 566,-460.5 707,-460.5 707,-430.5 566,-430.5"/>
<text text-anchor="start" x="574" y="-448.5" font-family="Helvetica,sans-Serif" font-size="10.00">itk::ImageSource&lt; TInput</text>
<text text-anchor="middle" x="636.5" y="-437.5" font-family="Helvetica,sans-Serif" font-size="10.00">Image &gt;</text>
</a>
</g>
</g>
<!-- Node7&#45;&gt;Node6 -->
<g id="edge6" class="edge">
<title>Node7&#45;&gt;Node6</title>
<path fill="none" stroke="midnightblue" d="M636.5,-420.03C636.5,-410.86 636.5,-400.74 636.5,-392.79"/>
<polygon fill="midnightblue" stroke="midnightblue" points="633,-420.18 636.5,-430.18 640,-420.18 633,-420.18"/>
</g>
<!-- Node8 -->
<g id="node8" class="node">
<title>Node8</title>
<g id="a_node8"><a xlink:href="classitk_1_1ProcessObject.html" target="_top" xlink:title="The base class for all process objects (source, filters, mappers) in the Insight data processing pipe...">
<polygon fill="white" stroke="black" points="584.5,-498.5 584.5,-517.5 688.5,-517.5 688.5,-498.5 584.5,-498.5"/>
<text text-anchor="middle" x="636.5" y="-505.5" font-family="Helvetica,sans-Serif" font-size="10.00">itk::ProcessObject</text>
</a>
</g>
</g>
<!-- Node8&#45;&gt;Node7 -->
<g id="edge7" class="edge">
<title>Node8&#45;&gt;Node7</title>
<path fill="none" stroke="midnightblue" d="M636.5,-488.22C636.5,-479.36 636.5,-468.96 636.5,-460.76"/>
<polygon fill="midnightblue" stroke="midnightblue" points="633,-488.33 636.5,-498.33 640,-488.33 633,-488.33"/>
</g>
<!-- Node9 -->
<g id="node9" class="node">
<title>Node9</title>
<g id="a_node9"><a xlink:href="classitk_1_1Object.html" target="_top" xlink:title="Base class for most ITK classes.">
<polygon fill="white" stroke="black" points="600,-582 600,-601 667,-601 667,-582 600,-582"/>
<text text-anchor="middle" x="633.5" y="-589" font-family="Helvetica,sans-Serif" font-size="10.00">itk::Object</text>
</a>
</g>
</g>
<!-- Node9&#45;&gt;Node8 -->
<g id="edge8" class="edge">
<title>Node9&#45;&gt;Node8</title>
<path fill="none" stroke="midnightblue" d="M634.2,-571.38C634.83,-554.4 635.71,-530.37 636.18,-517.66"/>
<polygon fill="midnightblue" stroke="midnightblue" points="630.69,-571.66 633.82,-581.78 637.69,-571.91 630.69,-571.66"/>
</g>
<!-- Node10 -->
<g id="node10" class="node">
<title>Node10</title>
<g id="a_node10"><a xlink:href="classitk_1_1LightObject.html" target="_top" xlink:title="Light weight base class for most itk classes.">
<polygon fill="white" stroke="black" points="729,-660 729,-679 820,-679 820,-660 729,-660"/>
<text text-anchor="middle" x="774.5" y="-667" font-family="Helvetica,sans-Serif" font-size="10.00">itk::LightObject</text>
</a>
</g>
</g>
<!-- Node10&#45;&gt;Node9 -->
<g id="edge9" class="edge">
<title>Node10&#45;&gt;Node9</title>
<path fill="none" stroke="midnightblue" d="M749.55,-655.05C720.68,-639.49 673.98,-614.32 649.56,-601.16"/>
<polygon fill="midnightblue" stroke="midnightblue" points="748.14,-658.27 758.6,-659.93 751.46,-652.1 748.14,-658.27"/>
</g>
<!-- Node11 -->
<g id="node11" class="node">
<title>Node11</title>
<g id="a_node11"><a xlink:title=" ">
<polygon fill="white" stroke="#bfbfbf" points="736,-738 736,-757 843,-757 843,-738 736,-738"/>
<text text-anchor="middle" x="789.5" y="-745" font-family="Helvetica,sans-Serif" font-size="10.00">std::atomic&lt; int &gt;</text>
</a>
</g>
</g>
<!-- Node11&#45;&gt;Node10 -->
<g id="edge10" class="edge">
<title>Node11&#45;&gt;Node10</title>
<path fill="none" stroke="#9a32cd" stroke-dasharray="5,2" d="M785.79,-727.72C782.73,-712.2 778.52,-690.86 776.2,-679.12"/>
<polygon fill="#9a32cd" stroke="#9a32cd" points="782.41,-728.65 787.78,-737.78 789.28,-727.29 782.41,-728.65"/>
<text text-anchor="middle" x="832" y="-706" font-family="Helvetica,sans-Serif" font-size="10.00"> m_ReferenceCount</text>
</g>
<!-- Node12 -->
<g id="node12" class="node">
<title>Node12</title>
<g id="a_node12"><a xlink:title="STL class.">
<polygon fill="white" stroke="#bfbfbf" points="289,-660 289,-679 354,-679 354,-660 289,-660"/>
<text text-anchor="middle" x="321.5" y="-667" font-family="Helvetica,sans-Serif" font-size="10.00">std::string</text>
</a>
</g>
</g>
<!-- Node12&#45;&gt;Node9 -->
<g id="edge11" class="edge">
<title>Node12&#45;&gt;Node9</title>
<path fill="none" stroke="#9a32cd" stroke-dasharray="5,2" d="M346.71,-655.26C366.91,-645.26 396.29,-632.1 423.5,-625 495.73,-606.15 517.59,-623.02 590.5,-607 597.27,-605.51 604.47,-603.33 611,-601.12"/>
<polygon fill="#9a32cd" stroke="#9a32cd" points="344.93,-652.24 337.58,-659.87 348.08,-658.49 344.93,-652.24"/>
<text text-anchor="middle" x="463" y="-628" font-family="Helvetica,sans-Serif" font-size="10.00"> m_ObjectName</text>
</g>
<!-- Node21 -->
<g id="node21" class="node">
<title>Node21</title>
<g id="a_node21"><a xlink:title=" ">
<polygon fill="white" stroke="#bfbfbf" points="419.5,-576.5 419.5,-606.5 581.5,-606.5 581.5,-576.5 419.5,-576.5"/>
<text text-anchor="start" x="427.5" y="-594.5" font-family="Helvetica,sans-Serif" font-size="10.00">std::set&lt; DataObjectIdentifier</text>
<text text-anchor="middle" x="500.5" y="-583.5" font-family="Helvetica,sans-Serif" font-size="10.00">Type &gt;</text>
</a>
</g>
</g>
<!-- Node12&#45;&gt;Node21 -->
<g id="edge22" class="edge">
<title>Node12&#45;&gt;Node21</title>
<path fill="none" stroke="#9a32cd" stroke-dasharray="5,2" d="M327.94,-650.08C331.95,-641.21 337.99,-631.18 346.5,-625 353.02,-620.26 386.25,-612.98 420.18,-606.52"/>
<polygon fill="#9a32cd" stroke="#9a32cd" points="324.57,-649.08 324.14,-659.66 331.08,-651.66 324.57,-649.08"/>
<text text-anchor="middle" x="359.5" y="-628" font-family="Helvetica,sans-Serif" font-size="10.00"> keys</text>
</g>
<!-- Node22 -->
<g id="node22" class="node">
<title>Node22</title>
<g id="a_node22"><a xlink:title=" ">
<polygon fill="white" stroke="#bfbfbf" points="232,-576.5 232,-606.5 401,-606.5 401,-576.5 232,-576.5"/>
<text text-anchor="start" x="240" y="-594.5" font-family="Helvetica,sans-Serif" font-size="10.00">std::map&lt; DataObjectIdentifier</text>
<text text-anchor="middle" x="316.5" y="-583.5" font-family="Helvetica,sans-Serif" font-size="10.00">Type, bool &gt;</text>
</a>
</g>
</g>
<!-- Node12&#45;&gt;Node22 -->
<g id="edge24" class="edge">
<title>Node12&#45;&gt;Node22</title>
<path fill="none" stroke="#9a32cd" stroke-dasharray="5,2" d="M306.18,-651.95C302.64,-647.15 299.36,-641.66 297.5,-636 294.2,-625.98 298.95,-615.11 304.53,-606.74"/>
<polygon fill="#9a32cd" stroke="#9a32cd" points="303.53,-654.25 312.59,-659.74 308.94,-649.8 303.53,-654.25"/>
<text text-anchor="middle" x="310.5" y="-628" font-family="Helvetica,sans-Serif" font-size="10.00"> keys</text>
</g>
<!-- Node27 -->
<g id="node27" class="node">
<title>Node27</title>
<g id="a_node27"><a xlink:title=" ">
<polygon fill="white" stroke="#bfbfbf" points="45,-576.5 45,-606.5 214,-606.5 214,-576.5 45,-576.5"/>
<text text-anchor="start" x="53" y="-594.5" font-family="Helvetica,sans-Serif" font-size="10.00">std::map&lt; DataObjectIdentifier</text>
<text text-anchor="middle" x="129.5" y="-583.5" font-family="Helvetica,sans-Serif" font-size="10.00">Type, DataObjectPointer &gt;</text>
</a>
</g>
</g>
<!-- Node12&#45;&gt;Node27 -->
<g id="edge31" class="edge">
<title>Node12&#45;&gt;Node27</title>
<path fill="none" stroke="#9a32cd" stroke-dasharray="5,2" d="M290.34,-656.16C256.05,-642.59 201.03,-620.81 165.07,-606.58"/>
<polygon fill="#9a32cd" stroke="#9a32cd" points="289.26,-659.5 299.85,-659.93 291.84,-652.99 289.26,-659.5"/>
<text text-anchor="middle" x="250.5" y="-628" font-family="Helvetica,sans-Serif" font-size="10.00"> keys</text>
</g>
<!-- Node13 -->
<g id="node13" class="node">
<title>Node13</title>
<g id="a_node13"><a xlink:title="STL class.">
<polygon fill="white" stroke="#bfbfbf" points="269.5,-732.5 269.5,-762.5 373.5,-762.5 373.5,-732.5 269.5,-732.5"/>
<text text-anchor="start" x="277.5" y="-750.5" font-family="Helvetica,sans-Serif" font-size="10.00">std::basic_string&lt;</text>
<text text-anchor="middle" x="321.5" y="-739.5" font-family="Helvetica,sans-Serif" font-size="10.00"> char &gt;</text>
</a>
</g>
</g>
<!-- Node13&#45;&gt;Node12 -->
<g id="edge12" class="edge">
<title>Node13&#45;&gt;Node12</title>
<path fill="none" stroke="midnightblue" d="M321.5,-722.17C321.5,-707.4 321.5,-689.45 321.5,-679.06"/>
<polygon fill="midnightblue" stroke="midnightblue" points="318,-722.2 321.5,-732.2 325,-722.21 318,-722.2"/>
</g>
<!-- Node14 -->
<g id="node14" class="node">
<title>Node14</title>
<g id="a_node14"><a xlink:href="classitk_1_1MetaDataDictionary.html" target="_top" xlink:title="Provides a mechanism for storing a collection of arbitrary data types.">
<polygon fill="white" stroke="black" points="429.5,-660 429.5,-679 563.5,-679 563.5,-660 429.5,-660"/>
<text text-anchor="middle" x="496.5" y="-667" font-family="Helvetica,sans-Serif" font-size="10.00">itk::MetaDataDictionary</text>
</a>
</g>
</g>
<!-- Node14&#45;&gt;Node9 -->
<g id="edge13" class="edge">
<title>Node14&#45;&gt;Node9</title>
<path fill="none" stroke="#9a32cd" stroke-dasharray="5,2" d="M500.06,-649.97C502.65,-641.22 507.07,-631.33 514.5,-625 540.93,-602.49 557.13,-616.56 590.5,-607 596.71,-605.22 603.35,-603.09 609.52,-601.03"/>
<polygon fill="#9a32cd" stroke="#9a32cd" points="496.64,-649.23 497.71,-659.77 503.44,-650.86 496.64,-649.23"/>
<text text-anchor="middle" x="573" y="-628" font-family="Helvetica,sans-Serif" font-size="10.00"> m_MetaDataDictionary</text>
</g>
<!-- Node15 -->
<g id="node15" class="node">
<title>Node15</title>
<g id="a_node15"><a xlink:title=" ">
<polygon fill="white" stroke="#bfbfbf" points="422,-732.5 422,-762.5 571,-762.5 571,-732.5 422,-732.5"/>
<text text-anchor="start" x="430" y="-750.5" font-family="Helvetica,sans-Serif" font-size="10.00">std::shared_ptr&lt; MetaData</text>
<text text-anchor="middle" x="496.5" y="-739.5" font-family="Helvetica,sans-Serif" font-size="10.00">DictionaryMapType &gt;</text>
</a>
</g>
</g>
<!-- Node15&#45;&gt;Node14 -->
<g id="edge14" class="edge">
<title>Node15&#45;&gt;Node14</title>
<path fill="none" stroke="#9a32cd" stroke-dasharray="5,2" d="M496.5,-722.17C496.5,-707.4 496.5,-689.45 496.5,-679.06"/>
<polygon fill="#9a32cd" stroke="#9a32cd" points="493,-722.2 496.5,-732.2 500,-722.21 493,-722.2"/>
<text text-anchor="middle" x="531" y="-706" font-family="Helvetica,sans-Serif" font-size="10.00"> m_Dictionary</text>
</g>
<!-- Node16 -->
<g id="node16" class="node">
<title>Node16</title>
<g id="a_node16"><a xlink:title="STL class.">
<polygon fill="white" stroke="#bfbfbf" points="446,-819.5 446,-838.5 547,-838.5 547,-819.5 446,-819.5"/>
<text text-anchor="middle" x="496.5" y="-826.5" font-family="Helvetica,sans-Serif" font-size="10.00">std::map&lt; K, T &gt;</text>
</a>
</g>
</g>
<!-- Node16&#45;&gt;Node15 -->
<g id="edge15" class="edge">
<title>Node16&#45;&gt;Node15</title>
<path fill="none" stroke="#9a32cd" stroke-dasharray="5,2" d="M496.5,-809.33C496.5,-795.01 496.5,-775.56 496.5,-762.54"/>
<polygon fill="#9a32cd" stroke="#9a32cd" points="493,-809.49 496.5,-819.49 500,-809.49 493,-809.49"/>
<text text-anchor="middle" x="505" y="-788.5" font-family="Helvetica,sans-Serif" font-size="10.00"> ptr</text>
</g>
<!-- Node17 -->
<g id="node17" class="node">
<title>Node17</title>
<g id="a_node17"><a xlink:title=" ">
<polygon fill="white" stroke="#bfbfbf" points="476,-886.5 476,-905.5 505,-905.5 505,-886.5 476,-886.5"/>
<text text-anchor="middle" x="490.5" y="-893.5" font-family="Helvetica,sans-Serif" font-size="10.00">K</text>
</a>
</g>
</g>
<!-- Node17&#45;&gt;Node16 -->
<g id="edge16" class="edge">
<title>Node17&#45;&gt;Node16</title>
<path fill="none" stroke="#9a32cd" stroke-dasharray="5,2" d="M490.41,-876.21C490.54,-870.08 490.84,-863.24 491.5,-857 492.14,-850.93 493.39,-844.18 494.48,-838.95"/>
<polygon fill="#9a32cd" stroke="#9a32cd" points="486.91,-876.2 490.34,-886.22 493.91,-876.25 486.91,-876.2"/>
<text text-anchor="middle" x="504.5" y="-860" font-family="Helvetica,sans-Serif" font-size="10.00"> keys</text>
</g>
<!-- Node18 -->
<g id="node18" class="node">
<title>Node18</title>
<g id="a_node18"><a xlink:title=" ">
<polygon fill="white" stroke="#bfbfbf" points="561,-886.5 561,-905.5 590,-905.5 590,-886.5 561,-886.5"/>
<text text-anchor="middle" x="575.5" y="-893.5" font-family="Helvetica,sans-Serif" font-size="10.00">T</text>
</a>
</g>
</g>
<!-- Node18&#45;&gt;Node16 -->
<g id="edge17" class="edge">
<title>Node18&#45;&gt;Node16</title>
<path fill="none" stroke="#9a32cd" stroke-dasharray="5,2" d="M555.96,-880.23C550.88,-876.31 545.45,-872.04 540.5,-868 528.46,-858.17 514.98,-846.41 506.15,-838.61"/>
<polygon fill="#9a32cd" stroke="#9a32cd" points="553.96,-883.11 564.03,-886.4 558.21,-877.55 553.96,-883.11"/>
<text text-anchor="middle" x="565" y="-860" font-family="Helvetica,sans-Serif" font-size="10.00"> elements</text>
</g>
<!-- Node20 -->
<g id="node20" class="node">
<title>Node20</title>
<g id="a_node20"><a xlink:title="STL class.">
<polygon fill="white" stroke="#bfbfbf" points="561.5,-781.5 561.5,-800.5 661.5,-800.5 661.5,-781.5 561.5,-781.5"/>
<text text-anchor="middle" x="611.5" y="-788.5" font-family="Helvetica,sans-Serif" font-size="10.00">std::atomic&lt; T &gt;</text>
</a>
</g>
</g>
<!-- Node18&#45;&gt;Node20 -->
<g id="edge20" class="edge">
<title>Node18&#45;&gt;Node20</title>
<path fill="none" stroke="#9a32cd" stroke-dasharray="5,2" d="M585.34,-877.22C586.84,-874.19 588.29,-871.04 589.5,-868 598.98,-844.27 606.3,-814.9 609.59,-800.62"/>
<polygon fill="#9a32cd" stroke="#9a32cd" points="582.17,-875.73 580.62,-886.21 588.37,-878.98 582.17,-875.73"/>
<text text-anchor="middle" x="602" y="-860" font-family="Helvetica,sans-Serif" font-size="10.00"> ptr</text>
</g>
<!-- Node19 -->
<g id="node19" class="node">
<title>Node19</title>
<g id="a_node19"><a xlink:href="classitk_1_1TimeStamp.html" target="_top" xlink:title="Generate a unique, increasing time value.">
<polygon fill="white" stroke="black" points="590.5,-660 590.5,-679 682.5,-679 682.5,-660 590.5,-660"/>
<text text-anchor="middle" x="636.5" y="-667" font-family="Helvetica,sans-Serif" font-size="10.00">itk::TimeStamp</text>
</a>
</g>
</g>
<!-- Node19&#45;&gt;Node8 -->
<g id="edge33" class="edge">
<title>Node19&#45;&gt;Node8</title>
<path fill="none" stroke="#9a32cd" stroke-dasharray="5,2" d="M669.85,-655.09C677.67,-650.28 685.02,-644.01 689.5,-636 691.89,-631.73 690.18,-629.84 689.5,-625 686.36,-602.57 684.38,-596.84 675.5,-576 666.11,-553.96 650.92,-530.18 642.54,-517.73"/>
<polygon fill="#9a32cd" stroke="#9a32cd" points="668.08,-652.07 660.95,-659.91 671.41,-658.22 668.08,-652.07"/>
<text text-anchor="middle" x="757.5" y="-589" font-family="Helvetica,sans-Serif" font-size="10.00"> m_OutputInformationMTime</text>
</g>
<!-- Node19&#45;&gt;Node9 -->
<g id="edge18" class="edge">
<title>Node19&#45;&gt;Node9</title>
<path fill="none" stroke="#9a32cd" stroke-dasharray="5,2" d="M635.76,-649.72C635.15,-634.2 634.3,-612.86 633.84,-601.12"/>
<polygon fill="#9a32cd" stroke="#9a32cd" points="632.26,-649.93 636.16,-659.78 639.26,-649.65 632.26,-649.93"/>
<text text-anchor="middle" x="661.5" y="-628" font-family="Helvetica,sans-Serif" font-size="10.00"> m_MTime</text>
</g>
<!-- Node20&#45;&gt;Node19 -->
<g id="edge19" class="edge">
<title>Node20&#45;&gt;Node19</title>
<path fill="none" stroke="#9a32cd" stroke-dasharray="5,2" d="M613.92,-771.24C615.52,-759.84 617.8,-745.02 620.5,-732 624.44,-712.99 630.52,-691.05 633.94,-679.19"/>
<polygon fill="#9a32cd" stroke="#9a32cd" points="610.43,-770.93 612.57,-781.3 617.37,-771.86 610.43,-770.93"/>
<text text-anchor="middle" x="673.5" y="-745" font-family="Helvetica,sans-Serif" font-size="10.00"> m_GlobalTimeStamp</text>
</g>
<!-- Node21&#45;&gt;Node8 -->
<g id="edge21" class="edge">
<title>Node21&#45;&gt;Node8</title>
<path fill="none" stroke="#9a32cd" stroke-dasharray="5,2" d="M499.29,-565.73C500.1,-555.29 502.94,-543.79 510.5,-536 520.86,-525.33 554.47,-518.45 584.37,-514.32"/>
<polygon fill="#9a32cd" stroke="#9a32cd" points="495.79,-565.94 499.07,-576.02 502.78,-566.1 495.79,-565.94"/>
<text text-anchor="middle" x="571" y="-544.5" font-family="Helvetica,sans-Serif" font-size="10.00"> m_RequiredInputNames</text>
</g>
<!-- Node22&#45;&gt;Node8 -->
<g id="edge23" class="edge">
<title>Node22&#45;&gt;Node8</title>
<path fill="none" stroke="#9a32cd" stroke-dasharray="5,2" d="M326.87,-567.13C333.17,-555.78 342.36,-543.09 354.5,-536 392.3,-513.92 513.87,-509.49 584.44,-508.84"/>
<polygon fill="#9a32cd" stroke="#9a32cd" points="323.67,-565.7 322.25,-576.2 329.91,-568.88 323.67,-565.7"/>
<text text-anchor="start" x="354.5" y="-550" font-family="Helvetica,sans-Serif" font-size="10.00"> m_CachedInputReleaseData</text>
<text text-anchor="middle" x="425.5" y="-539" font-family="Helvetica,sans-Serif" font-size="10.00">Flags</text>
</g>
<!-- Node23 -->
<g id="node23" class="node">
<title>Node23</title>
<g id="a_node23"><a xlink:title=" ">
<polygon fill="white" stroke="#bfbfbf" points="1023.5,-582 1023.5,-601 1157.5,-601 1157.5,-582 1023.5,-582"/>
<text text-anchor="middle" x="1090.5" y="-589" font-family="Helvetica,sans-Serif" font-size="10.00">std::atomic&lt; uint32_t &gt;</text>
</a>
</g>
</g>
<!-- Node23&#45;&gt;Node8 -->
<g id="edge25" class="edge">
<title>Node23&#45;&gt;Node8</title>
<path fill="none" stroke="#9a32cd" stroke-dasharray="5,2" d="M1056.88,-578.53C1019.82,-565.84 958.18,-546.25 903.5,-536 813.17,-519.06 788.78,-528.71 697.5,-518 694.63,-517.66 691.69,-517.3 688.72,-516.91"/>
<polygon fill="#9a32cd" stroke="#9a32cd" points="1056.07,-581.95 1066.66,-581.91 1058.35,-575.33 1056.07,-581.95"/>
<text text-anchor="middle" x="1021" y="-544.5" font-family="Helvetica,sans-Serif" font-size="10.00"> m_Progress</text>
</g>
<!-- Node24 -->
<g id="node24" class="node">
<title>Node24</title>
<g id="a_node24"><a xlink:title=" ">
<polygon fill="white" stroke="#bfbfbf" points="1062.5,-660 1062.5,-679 1118.5,-679 1118.5,-660 1062.5,-660"/>
<text text-anchor="middle" x="1090.5" y="-667" font-family="Helvetica,sans-Serif" font-size="10.00">uint32_t</text>
</a>
</g>
</g>
<!-- Node24&#45;&gt;Node23 -->
<g id="edge26" class="edge">
<title>Node24&#45;&gt;Node23</title>
<path fill="none" stroke="#9a32cd" stroke-dasharray="5,2" d="M1090.5,-649.72C1090.5,-634.2 1090.5,-612.86 1090.5,-601.12"/>
<polygon fill="#9a32cd" stroke="#9a32cd" points="1087,-649.78 1090.5,-659.78 1094,-649.78 1087,-649.78"/>
<text text-anchor="middle" x="1099" y="-628" font-family="Helvetica,sans-Serif" font-size="10.00"> ptr</text>
</g>
<!-- Node25 -->
<g id="node25" class="node">
<title>Node25</title>
<g id="a_node25"><a xlink:title=" ">
<polygon fill="white" stroke="#bfbfbf" points="1176,-576.5 1176,-606.5 1345,-606.5 1345,-576.5 1176,-576.5"/>
<text text-anchor="start" x="1184" y="-594.5" font-family="Helvetica,sans-Serif" font-size="10.00">std::vector&lt; DataObjectPointer</text>
<text text-anchor="middle" x="1260.5" y="-583.5" font-family="Helvetica,sans-Serif" font-size="10.00">Map::iterator &gt;</text>
</a>
</g>
</g>
<!-- Node25&#45;&gt;Node8 -->
<g id="edge27" class="edge">
<title>Node25&#45;&gt;Node8</title>
<path fill="none" stroke="#9a32cd" stroke-dasharray="5,2" d="M1208.48,-573.43C1167.43,-560.75 1108.44,-544.27 1055.5,-536 898.1,-511.4 856.04,-533.64 697.5,-518 694.62,-517.72 691.68,-517.39 688.7,-517.04"/>
<polygon fill="#9a32cd" stroke="#9a32cd" points="1207.67,-576.84 1218.26,-576.48 1209.76,-570.16 1207.67,-576.84"/>
<text text-anchor="middle" x="1199" y="-550" font-family="Helvetica,sans-Serif" font-size="10.00"> m_IndexedOutputs</text>
<text text-anchor="middle" x="1199" y="-539" font-family="Helvetica,sans-Serif" font-size="10.00">m_IndexedInputs</text>
</g>
<!-- Node26 -->
<g id="node26" class="node">
<title>Node26</title>
<g id="a_node26"><a xlink:title="STL iterator class.">
<polygon fill="white" stroke="#bfbfbf" points="1189,-660 1189,-679 1332,-679 1332,-660 1189,-660"/>
<text text-anchor="middle" x="1260.5" y="-667" font-family="Helvetica,sans-Serif" font-size="10.00">std::map&lt; K, T &gt;::iterator</text>
</a>
</g>
</g>
<!-- Node26&#45;&gt;Node25 -->
<g id="edge28" class="edge">
<title>Node26&#45;&gt;Node25</title>
<path fill="none" stroke="#9a32cd" stroke-dasharray="5,2" d="M1260.5,-649.78C1260.5,-636.4 1260.5,-618.69 1260.5,-606.52"/>
<polygon fill="#9a32cd" stroke="#9a32cd" points="1257,-649.78 1260.5,-659.78 1264,-649.78 1257,-649.78"/>
<text text-anchor="middle" x="1285" y="-628" font-family="Helvetica,sans-Serif" font-size="10.00"> elements</text>
</g>
<!-- Node27&#45;&gt;Node8 -->
<g id="edge29" class="edge">
<title>Node27&#45;&gt;Node8</title>
<path fill="none" stroke="#9a32cd" stroke-dasharray="5,2" d="M168.34,-572.17C196.58,-559.72 236.08,-544.11 272.5,-536 381.52,-511.73 512.96,-508.08 584.27,-508.16"/>
<polygon fill="#9a32cd" stroke="#9a32cd" points="166.55,-569.14 158.85,-576.42 169.41,-575.53 166.55,-569.14"/>
<text text-anchor="middle" x="301" y="-550" font-family="Helvetica,sans-Serif" font-size="10.00"> m_Outputs</text>
<text text-anchor="middle" x="301" y="-539" font-family="Helvetica,sans-Serif" font-size="10.00">m_Inputs</text>
</g>
<!-- Node28 -->
<g id="node28" class="node">
<title>Node28</title>
<g id="a_node28"><a xlink:href="classitk_1_1SmartPointer.html" target="_top" xlink:title=" ">
<polygon fill="white" stroke="black" points="0,-654.5 0,-684.5 107,-684.5 107,-654.5 0,-654.5"/>
<text text-anchor="start" x="8" y="-672.5" font-family="Helvetica,sans-Serif" font-size="10.00">itk::SmartPointer&lt;</text>
<text text-anchor="middle" x="53.5" y="-661.5" font-family="Helvetica,sans-Serif" font-size="10.00"> Self &gt;</text>
</a>
</g>
</g>
<!-- Node28&#45;&gt;Node4 -->
<g id="edge36" class="edge">
<title>Node28&#45;&gt;Node4</title>
<path fill="none" stroke="#9a32cd" stroke-dasharray="5,2" d="M36.45,-646.01C27.14,-631.52 17.5,-611.84 17.5,-592.5 17.5,-592.5 17.5,-592.5 17.5,-308.5 17.5,-282.86 40.87,-266.52 64.78,-256.52"/>
<polygon fill="#9a32cd" stroke="#9a32cd" points="33.58,-648.02 42.11,-654.31 39.37,-644.07 33.58,-648.02"/>
<text text-anchor="middle" x="72.5" y="-443" font-family="Helvetica,sans-Serif" font-size="10.00"> m_DifferenceFunction</text>
</g>
<!-- Node28&#45;&gt;Node27 -->
<g id="edge30" class="edge">
<title>Node28&#45;&gt;Node27</title>
<path fill="none" stroke="#9a32cd" stroke-dasharray="5,2" d="M74.97,-647.03C87.87,-634.13 103.93,-618.07 115.27,-606.73"/>
<polygon fill="#9a32cd" stroke="#9a32cd" points="72.39,-644.66 67.8,-654.2 77.34,-649.61 72.39,-644.66"/>
<text text-anchor="middle" x="121" y="-628" font-family="Helvetica,sans-Serif" font-size="10.00"> elements</text>
</g>
<!-- Node29 -->
<g id="node29" class="node">
<title>Node29</title>
<g id="a_node29"><a xlink:href="classitk_1_1SmartPointer.html" target="_top" xlink:title=" ">
<polygon fill="white" stroke="black" points="863.5,-576.5 863.5,-606.5 1005.5,-606.5 1005.5,-576.5 863.5,-576.5"/>
<text text-anchor="start" x="871.5" y="-594.5" font-family="Helvetica,sans-Serif" font-size="10.00">itk::SmartPointer&lt;</text>
<text text-anchor="middle" x="934.5" y="-583.5" font-family="Helvetica,sans-Serif" font-size="10.00"> itk::MultiThreaderBase &gt;</text>
</a>
</g>
</g>
<!-- Node29&#45;&gt;Node8 -->
<g id="edge32" class="edge">
<title>Node29&#45;&gt;Node8</title>
<path fill="none" stroke="#9a32cd" stroke-dasharray="5,2" d="M873.54,-573.83C811.12,-556.76 716.54,-530.89 667.88,-517.58"/>
<polygon fill="#9a32cd" stroke="#9a32cd" points="872.7,-577.23 883.27,-576.49 874.55,-570.48 872.7,-577.23"/>
<text text-anchor="middle" x="856" y="-544.5" font-family="Helvetica,sans-Serif" font-size="10.00"> m_MultiThreader</text>
</g>
<!-- Node30 -->
<g id="node30" class="node">
<title>Node30</title>
<g id="a_node30"><a xlink:href="structitk_1_1ImageSourceCommon.html" target="_top" xlink:title="Secondary base class of ImageSource common between templates.">
<polygon fill="white" stroke="black" points="707,-498.5 707,-517.5 850,-517.5 850,-498.5 707,-498.5"/>
<text text-anchor="middle" x="778.5" y="-505.5" font-family="Helvetica,sans-Serif" font-size="10.00">itk::ImageSourceCommon</text>
</a>
</g>
</g>
<!-- Node30&#45;&gt;Node7 -->
<g id="edge34" class="edge">
<title>Node30&#45;&gt;Node7</title>
<path fill="none" stroke="#8b1a1a" d="M749.14,-494.49C725.97,-484.62 693.65,-470.85 669.57,-460.59"/>
<polygon fill="#8b1a1a" stroke="#8b1a1a" points="747.88,-497.76 758.46,-498.46 750.63,-491.32 747.88,-497.76"/>
</g>
<!-- Node31 -->
<g id="node31" class="node">
<title>Node31</title>
<g id="a_node31"><a xlink:href="classitk_1_1ImageToImageFilterCommon.html" target="_top" xlink:title="Secondary base class of ImageToImageFilter common between templates.">
<polygon fill="white" stroke="black" points="725.5,-436 725.5,-455 901.5,-455 901.5,-436 725.5,-436"/>
<text text-anchor="middle" x="813.5" y="-443" font-family="Helvetica,sans-Serif" font-size="10.00">itk::ImageToImageFilterCommon</text>
</a>
</g>
</g>
<!-- Node31&#45;&gt;Node6 -->
<g id="edge35" class="edge">
<title>Node31&#45;&gt;Node6</title>
<path fill="none" stroke="#8b1a1a" d="M780.73,-432.28C750.56,-421.03 705.83,-404.35 674.2,-392.56"/>
<polygon fill="#8b1a1a" stroke="#8b1a1a" points="779.77,-435.66 790.36,-435.87 782.21,-429.1 779.77,-435.66"/>
</g>
</g>
</svg>
