<?xml version="1.0" encoding="UTF-8" standalone="no"?>
<!DOCTYPE svg PUBLIC "-//W3C//DTD SVG 1.1//EN"
 "http://www.w3.org/Graphics/SVG/1.1/DTD/svg11.dtd">
<!-- Generated by graphviz version 2.43.0 (0)
 -->
<!-- Title: itk::ExpectationBasedPointSetToPointSetMetricv4&lt; TFixedPointSet, TMovingPointSet, TInternalComputationValueType &gt; Pages: 1 -->
<svg width="2661pt" height="255pt"
 viewBox="0.00 0.00 2661.00 254.50" xmlns="http://www.w3.org/2000/svg" xmlns:xlink="http://www.w3.org/1999/xlink">
<g id="graph0" class="graph" transform="scale(1 1) rotate(0) translate(4 250.5)">
<title>itk::ExpectationBasedPointSetToPointSetMetricv4&lt; TFixedPointSet, TMovingPointSet, TInternalComputationValueType &gt;</title>
<polygon fill="white" stroke="transparent" points="-4,4 -4,-250.5 2657,-250.5 2657,4 -4,4"/>
<!-- Node1 -->
<g id="node1" class="node">
<title>Node1</title>
<g id="a_node1"><a xlink:title="Computes an expectation&#45;based metric between two point sets.">
<polygon fill="#bfbfbf" stroke="black" points="2466,-0.5 2466,-52.5 2653,-52.5 2653,-0.5 2466,-0.5"/>
<text text-anchor="start" x="2474" y="-40.5" font-family="Helvetica,sans-Serif" font-size="10.00">itk::ExpectationBasedPoint</text>
<text text-anchor="start" x="2474" y="-29.5" font-family="Helvetica,sans-Serif" font-size="10.00">SetToPointSetMetricv4&lt;</text>
<text text-anchor="start" x="2474" y="-18.5" font-family="Helvetica,sans-Serif" font-size="10.00"> TFixedPointSet, TMovingPointSet,</text>
<text text-anchor="middle" x="2559.5" y="-7.5" font-family="Helvetica,sans-Serif" font-size="10.00"> TInternalComputationValueType &gt;</text>
</a>
</g>
</g>
<!-- Node2 -->
<g id="node2" class="node">
<title>Node2</title>
<g id="a_node2"><a xlink:href="classitk_1_1PointSetToPointSetMetricv4.html" target="_top" xlink:title=" ">
<polygon fill="white" stroke="black" points="2248,-6 2248,-47 2429,-47 2429,-6 2248,-6"/>
<text text-anchor="start" x="2256" y="-35" font-family="Helvetica,sans-Serif" font-size="10.00">itk::PointSetToPointSetMetricv4</text>
<text text-anchor="start" x="2256" y="-24" font-family="Helvetica,sans-Serif" font-size="10.00">&lt; TFixedPointSet, TFixedPointSet,</text>
<text text-anchor="middle" x="2338.5" y="-13" font-family="Helvetica,sans-Serif" font-size="10.00"> double &gt;</text>
</a>
</g>
</g>
<!-- Node2&#45;&gt;Node1 -->
<g id="edge1" class="edge">
<title>Node2&#45;&gt;Node1</title>
<path fill="none" stroke="midnightblue" d="M2439.44,-26.5C2448.2,-26.5 2457.04,-26.5 2465.74,-26.5"/>
<polygon fill="midnightblue" stroke="midnightblue" points="2439.21,-23 2429.21,-26.5 2439.21,-30 2439.21,-23"/>
</g>
<!-- Node3 -->
<g id="node3" class="node">
<title>Node3</title>
<g id="a_node3"><a xlink:href="classitk_1_1PointSetToPointSetMetricWithIndexv4.html" target="_top" xlink:title=" ">
<polygon fill="white" stroke="black" points="2047,-6 2047,-47 2211,-47 2211,-6 2047,-6"/>
<text text-anchor="start" x="2055" y="-35" font-family="Helvetica,sans-Serif" font-size="10.00">itk::PointSetToPointSetMetric</text>
<text text-anchor="start" x="2055" y="-24" font-family="Helvetica,sans-Serif" font-size="10.00">WithIndexv4&lt; TFixedPointSet,</text>
<text text-anchor="middle" x="2129" y="-13" font-family="Helvetica,sans-Serif" font-size="10.00"> TFixedPointSet, double &gt;</text>
</a>
</g>
</g>
<!-- Node3&#45;&gt;Node2 -->
<g id="edge2" class="edge">
<title>Node3&#45;&gt;Node2</title>
<path fill="none" stroke="midnightblue" d="M2221.37,-26.5C2230.16,-26.5 2239.08,-26.5 2247.85,-26.5"/>
<polygon fill="midnightblue" stroke="midnightblue" points="2221.12,-23 2211.12,-26.5 2221.12,-30 2221.12,-23"/>
</g>
<!-- Node4 -->
<g id="node4" class="node">
<title>Node4</title>
<g id="a_node4"><a xlink:href="classitk_1_1ObjectToObjectMetric.html" target="_top" xlink:title=" ">
<polygon fill="white" stroke="black" points="1824,-66 1824,-129 2010,-129 2010,-66 1824,-66"/>
<text text-anchor="start" x="1832" y="-117" font-family="Helvetica,sans-Serif" font-size="10.00">itk::ObjectToObjectMetric</text>
<text text-anchor="start" x="1832" y="-106" font-family="Helvetica,sans-Serif" font-size="10.00">&lt; TFixedPointSet::PointDimension,</text>
<text text-anchor="start" x="1832" y="-95" font-family="Helvetica,sans-Serif" font-size="10.00"> TFixedPointSet ::PointDimension,</text>
<text text-anchor="start" x="1832" y="-84" font-family="Helvetica,sans-Serif" font-size="10.00"> Image&lt; double, TFixedPointSet::</text>
<text text-anchor="middle" x="1917" y="-73" font-family="Helvetica,sans-Serif" font-size="10.00">PointDimension &gt;, double &gt;</text>
</a>
</g>
</g>
<!-- Node4&#45;&gt;Node3 -->
<g id="edge3" class="edge">
<title>Node4&#45;&gt;Node3</title>
<path fill="none" stroke="midnightblue" d="M2019.64,-63.14C2035.86,-57.65 2052.19,-52.13 2067.08,-47.1"/>
<polygon fill="midnightblue" stroke="midnightblue" points="2018.46,-59.84 2010.11,-66.36 2020.7,-66.47 2018.46,-59.84"/>
</g>
<!-- Node5 -->
<g id="node5" class="node">
<title>Node5</title>
<g id="a_node5"><a xlink:href="classitk_1_1ObjectToObjectMetricBaseTemplate.html" target="_top" xlink:title=" ">
<polygon fill="white" stroke="black" points="1505,-138.5 1505,-168.5 1646,-168.5 1646,-138.5 1505,-138.5"/>
<text text-anchor="start" x="1513" y="-156.5" font-family="Helvetica,sans-Serif" font-size="10.00">itk::ObjectToObjectMetric</text>
<text text-anchor="middle" x="1575.5" y="-145.5" font-family="Helvetica,sans-Serif" font-size="10.00">BaseTemplate&lt; double &gt;</text>
</a>
</g>
</g>
<!-- Node5&#45;&gt;Node4 -->
<g id="edge4" class="edge">
<title>Node5&#45;&gt;Node4</title>
<path fill="none" stroke="midnightblue" d="M1656.17,-140.36C1706.34,-132.08 1771.29,-121.37 1823.7,-112.72"/>
<polygon fill="midnightblue" stroke="midnightblue" points="1655.32,-136.95 1646.02,-142.03 1656.46,-143.86 1655.32,-136.95"/>
</g>
<!-- Node6 -->
<g id="node6" class="node">
<title>Node6</title>
<g id="a_node6"><a xlink:href="classitk_1_1SingleValuedCostFunctionv4Template.html" target="_top" xlink:title=" ">
<polygon fill="white" stroke="black" points="1210,-152.5 1210,-182.5 1383,-182.5 1383,-152.5 1210,-152.5"/>
<text text-anchor="start" x="1218" y="-170.5" font-family="Helvetica,sans-Serif" font-size="10.00">itk::SingleValuedCostFunctionv4</text>
<text text-anchor="middle" x="1296.5" y="-159.5" font-family="Helvetica,sans-Serif" font-size="10.00">Template&lt; double &gt;</text>
</a>
</g>
</g>
<!-- Node6&#45;&gt;Node5 -->
<g id="edge5" class="edge">
<title>Node6&#45;&gt;Node5</title>
<path fill="none" stroke="midnightblue" d="M1393.46,-162.65C1430.12,-160.8 1471.18,-158.72 1504.92,-157.02"/>
<polygon fill="midnightblue" stroke="midnightblue" points="1393.06,-159.17 1383.25,-163.17 1393.41,-166.16 1393.06,-159.17"/>
</g>
<!-- Node7 -->
<g id="node7" class="node">
<title>Node7</title>
<g id="a_node7"><a xlink:href="classitk_1_1CostFunctionTemplate.html" target="_top" xlink:title=" ">
<polygon fill="white" stroke="black" points="1030,-152.5 1030,-182.5 1173,-182.5 1173,-152.5 1030,-152.5"/>
<text text-anchor="start" x="1038" y="-170.5" font-family="Helvetica,sans-Serif" font-size="10.00">itk::CostFunctionTemplate</text>
<text text-anchor="middle" x="1101.5" y="-159.5" font-family="Helvetica,sans-Serif" font-size="10.00">&lt; double &gt;</text>
</a>
</g>
</g>
<!-- Node7&#45;&gt;Node6 -->
<g id="edge6" class="edge">
<title>Node7&#45;&gt;Node6</title>
<path fill="none" stroke="midnightblue" d="M1183.46,-167.5C1192.23,-167.5 1201.17,-167.5 1209.99,-167.5"/>
<polygon fill="midnightblue" stroke="midnightblue" points="1183.27,-164 1173.27,-167.5 1183.27,-171 1183.27,-164"/>
</g>
<!-- Node8 -->
<g id="node8" class="node">
<title>Node8</title>
<g id="a_node8"><a xlink:href="classitk_1_1Object.html" target="_top" xlink:title="Base class for most ITK classes.">
<polygon fill="white" stroke="black" points="926,-158 926,-177 993,-177 993,-158 926,-158"/>
<text text-anchor="middle" x="959.5" y="-165" font-family="Helvetica,sans-Serif" font-size="10.00">itk::Object</text>
</a>
</g>
</g>
<!-- Node8&#45;&gt;Node7 -->
<g id="edge7" class="edge">
<title>Node8&#45;&gt;Node7</title>
<path fill="none" stroke="midnightblue" d="M1003.52,-167.5C1011.87,-167.5 1020.81,-167.5 1029.78,-167.5"/>
<polygon fill="midnightblue" stroke="midnightblue" points="1003.32,-164 993.32,-167.5 1003.32,-171 1003.32,-164"/>
</g>
<!-- Node9 -->
<g id="node9" class="node">
<title>Node9</title>
<g id="a_node9"><a xlink:href="classitk_1_1LightObject.html" target="_top" xlink:title="Light weight base class for most itk classes.">
<polygon fill="white" stroke="black" points="660.5,-222 660.5,-241 751.5,-241 751.5,-222 660.5,-222"/>
<text text-anchor="middle" x="706" y="-229" font-family="Helvetica,sans-Serif" font-size="10.00">itk::LightObject</text>
</a>
</g>
</g>
<!-- Node9&#45;&gt;Node8 -->
<g id="edge8" class="edge">
<title>Node9&#45;&gt;Node8</title>
<path fill="none" stroke="midnightblue" d="M761.62,-226.07C802.72,-220.88 859.99,-211.3 908,-194.5 920.57,-190.1 933.82,-182.91 943.59,-177.05"/>
<polygon fill="midnightblue" stroke="midnightblue" points="761.04,-222.61 751.53,-227.29 761.88,-229.56 761.04,-222.61"/>
</g>
<!-- Node10 -->
<g id="node10" class="node">
<title>Node10</title>
<g id="a_node10"><a xlink:title=" ">
<polygon fill="white" stroke="#bfbfbf" points="378,-227 378,-246 485,-246 485,-227 378,-227"/>
<text text-anchor="middle" x="431.5" y="-234" font-family="Helvetica,sans-Serif" font-size="10.00">std::atomic&lt; int &gt;</text>
</a>
</g>
</g>
<!-- Node10&#45;&gt;Node9 -->
<g id="edge9" class="edge">
<title>Node10&#45;&gt;Node9</title>
<path fill="none" stroke="#9a32cd" stroke-dasharray="5,2" d="M495.18,-235.35C545.64,-234.42 615.33,-233.15 660.29,-232.32"/>
<polygon fill="#9a32cd" stroke="#9a32cd" points="494.97,-231.85 485.04,-235.54 495.1,-238.85 494.97,-231.85"/>
<text text-anchor="middle" x="572.5" y="-237.5" font-family="Helvetica,sans-Serif" font-size="10.00"> m_ReferenceCount</text>
</g>
<!-- Node11 -->
<g id="node11" class="node">
<title>Node11</title>
<g id="a_node11"><a xlink:title="STL class.">
<polygon fill="white" stroke="#bfbfbf" points="673.5,-178 673.5,-197 738.5,-197 738.5,-178 673.5,-178"/>
<text text-anchor="middle" x="706" y="-185" font-family="Helvetica,sans-Serif" font-size="10.00">std::string</text>
</a>
</g>
</g>
<!-- Node11&#45;&gt;Node8 -->
<g id="edge10" class="edge">
<title>Node11&#45;&gt;Node8</title>
<path fill="none" stroke="#9a32cd" stroke-dasharray="5,2" d="M748.68,-184.19C798.33,-180.24 880.24,-173.72 925.64,-170.11"/>
<polygon fill="#9a32cd" stroke="#9a32cd" points="748.29,-180.71 738.6,-184.99 748.84,-187.68 748.29,-180.71"/>
<text text-anchor="middle" x="849.5" y="-182.5" font-family="Helvetica,sans-Serif" font-size="10.00"> m_ObjectName</text>
</g>
<!-- Node12 -->
<g id="node12" class="node">
<title>Node12</title>
<g id="a_node12"><a xlink:title="STL class.">
<polygon fill="white" stroke="#bfbfbf" points="379.5,-177.5 379.5,-207.5 483.5,-207.5 483.5,-177.5 379.5,-177.5"/>
<text text-anchor="start" x="387.5" y="-195.5" font-family="Helvetica,sans-Serif" font-size="10.00">std::basic_string&lt;</text>
<text text-anchor="middle" x="431.5" y="-184.5" font-family="Helvetica,sans-Serif" font-size="10.00"> char &gt;</text>
</a>
</g>
</g>
<!-- Node12&#45;&gt;Node11 -->
<g id="edge11" class="edge">
<title>Node12&#45;&gt;Node11</title>
<path fill="none" stroke="midnightblue" d="M493.85,-191.37C549.49,-190.35 629.3,-188.89 673.14,-188.08"/>
<polygon fill="midnightblue" stroke="midnightblue" points="493.69,-187.88 483.76,-191.56 493.82,-194.88 493.69,-187.88"/>
</g>
<!-- Node13 -->
<g id="node13" class="node">
<title>Node13</title>
<g id="a_node13"><a xlink:href="classitk_1_1MetaDataDictionary.html" target="_top" xlink:title="Provides a mechanism for storing a collection of arbitrary data types.">
<polygon fill="white" stroke="black" points="639,-139 639,-158 773,-158 773,-139 639,-139"/>
<text text-anchor="middle" x="706" y="-146" font-family="Helvetica,sans-Serif" font-size="10.00">itk::MetaDataDictionary</text>
</a>
</g>
</g>
<!-- Node13&#45;&gt;Node8 -->
<g id="edge12" class="edge">
<title>Node13&#45;&gt;Node8</title>
<path fill="none" stroke="#9a32cd" stroke-dasharray="5,2" d="M783.42,-145.22C821.13,-144.82 867.18,-146.15 908,-152.5 915.68,-153.69 923.83,-155.75 931.29,-157.96"/>
<polygon fill="#9a32cd" stroke="#9a32cd" points="782.96,-141.73 773.02,-145.38 783.07,-148.72 782.96,-141.73"/>
<text text-anchor="middle" x="849.5" y="-155.5" font-family="Helvetica,sans-Serif" font-size="10.00"> m_MetaDataDictionary</text>
</g>
<!-- Node14 -->
<g id="node14" class="node">
<title>Node14</title>
<g id="a_node14"><a xlink:title=" ">
<polygon fill="white" stroke="#bfbfbf" points="357,-128.5 357,-158.5 506,-158.5 506,-128.5 357,-128.5"/>
<text text-anchor="start" x="365" y="-146.5" font-family="Helvetica,sans-Serif" font-size="10.00">std::shared_ptr&lt; MetaData</text>
<text text-anchor="middle" x="431.5" y="-135.5" font-family="Helvetica,sans-Serif" font-size="10.00">DictionaryMapType &gt;</text>
</a>
</g>
</g>
<!-- Node14&#45;&gt;Node13 -->
<g id="edge13" class="edge">
<title>Node14&#45;&gt;Node13</title>
<path fill="none" stroke="#9a32cd" stroke-dasharray="5,2" d="M516.34,-145.04C555.65,-145.76 601.82,-146.61 638.65,-147.28"/>
<polygon fill="#9a32cd" stroke="#9a32cd" points="516.3,-141.54 506.24,-144.85 516.18,-148.54 516.3,-141.54"/>
<text text-anchor="middle" x="572.5" y="-149.5" font-family="Helvetica,sans-Serif" font-size="10.00"> m_Dictionary</text>
</g>
<!-- Node15 -->
<g id="node15" class="node">
<title>Node15</title>
<g id="a_node15"><a xlink:title="STL class.">
<polygon fill="white" stroke="#bfbfbf" points="114,-134 114,-153 215,-153 215,-134 114,-134"/>
<text text-anchor="middle" x="164.5" y="-141" font-family="Helvetica,sans-Serif" font-size="10.00">std::map&lt; K, T &gt;</text>
</a>
</g>
</g>
<!-- Node15&#45;&gt;Node14 -->
<g id="edge14" class="edge">
<title>Node15&#45;&gt;Node14</title>
<path fill="none" stroke="#9a32cd" stroke-dasharray="5,2" d="M225.18,-143.5C264.19,-143.5 315.41,-143.5 356.93,-143.5"/>
<polygon fill="#9a32cd" stroke="#9a32cd" points="225.03,-140 215.03,-143.5 225.03,-147 225.03,-140"/>
<text text-anchor="middle" x="286" y="-146.5" font-family="Helvetica,sans-Serif" font-size="10.00"> ptr</text>
</g>
<!-- Node16 -->
<g id="node16" class="node">
<title>Node16</title>
<g id="a_node16"><a xlink:title=" ">
<polygon fill="white" stroke="#bfbfbf" points="0,-158 0,-177 29,-177 29,-158 0,-158"/>
<text text-anchor="middle" x="14.5" y="-165" font-family="Helvetica,sans-Serif" font-size="10.00">K</text>
</a>
</g>
</g>
<!-- Node16&#45;&gt;Node15 -->
<g id="edge15" class="edge">
<title>Node16&#45;&gt;Node15</title>
<path fill="none" stroke="#9a32cd" stroke-dasharray="5,2" d="M39.24,-163.65C59.28,-160.4 88.63,-155.64 113.78,-151.56"/>
<polygon fill="#9a32cd" stroke="#9a32cd" points="38.47,-160.23 29.16,-165.29 39.59,-167.14 38.47,-160.23"/>
<text text-anchor="middle" x="71.5" y="-164.5" font-family="Helvetica,sans-Serif" font-size="10.00"> keys</text>
</g>
<!-- Node17 -->
<g id="node17" class="node">
<title>Node17</title>
<g id="a_node17"><a xlink:title=" ">
<polygon fill="white" stroke="#bfbfbf" points="0,-105 0,-124 29,-124 29,-105 0,-105"/>
<text text-anchor="middle" x="14.5" y="-112" font-family="Helvetica,sans-Serif" font-size="10.00">T</text>
</a>
</g>
</g>
<!-- Node17&#45;&gt;Node15 -->
<g id="edge16" class="edge">
<title>Node17&#45;&gt;Node15</title>
<path fill="none" stroke="#9a32cd" stroke-dasharray="5,2" d="M39.09,-119.12C59.39,-123.1 89.35,-128.97 114.78,-133.95"/>
<polygon fill="#9a32cd" stroke="#9a32cd" points="39.64,-115.66 29.16,-117.18 38.3,-122.53 39.64,-115.66"/>
<text text-anchor="middle" x="71.5" y="-132.5" font-family="Helvetica,sans-Serif" font-size="10.00"> elements</text>
</g>
<!-- Node19 -->
<g id="node19" class="node">
<title>Node19</title>
<g id="a_node19"><a xlink:title="STL class.">
<polygon fill="white" stroke="#bfbfbf" points="114.5,-90 114.5,-109 214.5,-109 214.5,-90 114.5,-90"/>
<text text-anchor="middle" x="164.5" y="-97" font-family="Helvetica,sans-Serif" font-size="10.00">std::atomic&lt; T &gt;</text>
</a>
</g>
</g>
<!-- Node17&#45;&gt;Node19 -->
<g id="edge19" class="edge">
<title>Node17&#45;&gt;Node19</title>
<path fill="none" stroke="#9a32cd" stroke-dasharray="5,2" d="M38.4,-103.04C41.24,-102.01 44.15,-101.12 47,-100.5 68.74,-95.79 93.31,-94.94 114.26,-95.51"/>
<polygon fill="#9a32cd" stroke="#9a32cd" points="37.03,-99.82 29.19,-106.95 39.77,-106.27 37.03,-99.82"/>
<text text-anchor="middle" x="71.5" y="-103.5" font-family="Helvetica,sans-Serif" font-size="10.00"> ptr</text>
</g>
<!-- Node18 -->
<g id="node18" class="node">
<title>Node18</title>
<g id="a_node18"><a xlink:href="classitk_1_1TimeStamp.html" target="_top" xlink:title="Generate a unique, increasing time value.">
<polygon fill="white" stroke="black" points="526.5,-95 526.5,-114 618.5,-114 618.5,-95 526.5,-95"/>
<text text-anchor="middle" x="572.5" y="-102" font-family="Helvetica,sans-Serif" font-size="10.00">itk::TimeStamp</text>
</a>
</g>
</g>
<!-- Node18&#45;&gt;Node8 -->
<g id="edge17" class="edge">
<title>Node18&#45;&gt;Node8</title>
<path fill="none" stroke="#9a32cd" stroke-dasharray="5,2" d="M628.67,-103.18C696.29,-103.2 813.54,-108.54 908,-140.5 920.62,-144.77 933.86,-151.97 943.62,-157.86"/>
<polygon fill="#9a32cd" stroke="#9a32cd" points="628.64,-99.68 618.65,-103.22 628.67,-106.68 628.64,-99.68"/>
<text text-anchor="middle" x="706" y="-113.5" font-family="Helvetica,sans-Serif" font-size="10.00"> m_MTime</text>
</g>
<!-- Node19&#45;&gt;Node18 -->
<g id="edge18" class="edge">
<title>Node19&#45;&gt;Node18</title>
<path fill="none" stroke="#9a32cd" stroke-dasharray="5,2" d="M225.03,-100.23C306.93,-101.24 452.57,-103.04 526.2,-103.94"/>
<polygon fill="#9a32cd" stroke="#9a32cd" points="224.92,-96.73 214.88,-100.11 224.83,-103.73 224.92,-96.73"/>
<text text-anchor="middle" x="286" y="-104.5" font-family="Helvetica,sans-Serif" font-size="10.00"> m_GlobalTimeStamp</text>
</g>
<!-- Node20 -->
<g id="node20" class="node">
<title>Node20</title>
<g id="a_node20"><a xlink:href="classitk_1_1SmartPointer.html" target="_top" xlink:title="Implements transparent reference counting.">
<polygon fill="white" stroke="black" points="1243,-82.5 1243,-112.5 1350,-112.5 1350,-82.5 1243,-82.5"/>
<text text-anchor="start" x="1251" y="-100.5" font-family="Helvetica,sans-Serif" font-size="10.00">itk::SmartPointer&lt;</text>
<text text-anchor="middle" x="1296.5" y="-89.5" font-family="Helvetica,sans-Serif" font-size="10.00"> TObjectType &gt;</text>
</a>
</g>
</g>
<!-- Node20&#45;&gt;Node3 -->
<g id="edge22" class="edge">
<title>Node20&#45;&gt;Node3</title>
<path fill="none" stroke="#9a32cd" stroke-dasharray="5,2" d="M1351.86,-79.38C1422.72,-56.79 1550.98,-19.47 1664,-5.5 1726.63,2.24 1742.92,-3.45 1806,-5.5 1888.03,-8.17 1981.62,-14.66 2046.68,-19.73"/>
<polygon fill="#9a32cd" stroke="#9a32cd" points="1350.7,-76.07 1342.25,-82.46 1352.84,-82.74 1350.7,-76.07"/>
<text text-anchor="start" x="1664" y="-85.5" font-family="Helvetica,sans-Serif" font-size="10.00"> m_FixedTransformedPoints</text>
<text text-anchor="middle" x="1735" y="-74.5" font-family="Helvetica,sans-Serif" font-size="10.00">Locator</text>
<text text-anchor="start" x="1664" y="-63.5" font-family="Helvetica,sans-Serif" font-size="10.00">m_MovingTransformedPoint</text>
<text text-anchor="middle" x="1735" y="-52.5" font-family="Helvetica,sans-Serif" font-size="10.00">Set</text>
<text text-anchor="start" x="1664" y="-41.5" font-family="Helvetica,sans-Serif" font-size="10.00">m_FixedTransformedPoint</text>
<text text-anchor="middle" x="1735" y="-30.5" font-family="Helvetica,sans-Serif" font-size="10.00">Set</text>
<text text-anchor="start" x="1664" y="-19.5" font-family="Helvetica,sans-Serif" font-size="10.00">m_MovingTransformedPoints</text>
<text text-anchor="middle" x="1735" y="-8.5" font-family="Helvetica,sans-Serif" font-size="10.00">Locator</text>
</g>
<!-- Node20&#45;&gt;Node4 -->
<g id="edge21" class="edge">
<title>Node20&#45;&gt;Node4</title>
<path fill="none" stroke="#9a32cd" stroke-dasharray="5,2" d="M1360.47,-97.5C1470.11,-97.5 1696.49,-97.5 1823.82,-97.5"/>
<polygon fill="#9a32cd" stroke="#9a32cd" points="1360.23,-94 1350.23,-97.5 1360.23,-101 1360.23,-94"/>
<text text-anchor="middle" x="1575.5" y="-111.5" font-family="Helvetica,sans-Serif" font-size="10.00"> m_MovingTransform</text>
<text text-anchor="middle" x="1575.5" y="-100.5" font-family="Helvetica,sans-Serif" font-size="10.00">m_FixedTransform</text>
</g>
<!-- Node20&#45;&gt;Node5 -->
<g id="edge20" class="edge">
<title>Node20&#45;&gt;Node5</title>
<path fill="none" stroke="#9a32cd" stroke-dasharray="5,2" d="M1360.51,-107.69C1397.48,-113.94 1445.03,-122.47 1487,-131.5 1496.8,-133.61 1507.17,-136.04 1517.21,-138.5"/>
<polygon fill="#9a32cd" stroke="#9a32cd" points="1360.82,-104.19 1350.38,-105.99 1359.66,-111.09 1360.82,-104.19"/>
<text text-anchor="middle" x="1444" y="-145.5" font-family="Helvetica,sans-Serif" font-size="10.00"> m_MovingObject</text>
<text text-anchor="middle" x="1444" y="-134.5" font-family="Helvetica,sans-Serif" font-size="10.00">m_FixedObject</text>
</g>
</g>
</svg>
