<?xml version="1.0" encoding="UTF-8" standalone="no"?>
<!DOCTYPE svg PUBLIC "-//W3C//DTD SVG 1.1//EN"
 "http://www.w3.org/Graphics/SVG/1.1/DTD/svg11.dtd">
<!-- Generated by graphviz version 2.43.0 (0)
 -->
<!-- Title: itk::GradientRecursiveGaussianImageFilter&lt; TInputImage, TOutputImage &gt; Pages: 1 -->
<svg width="1251pt" height="110pt"
 viewBox="0.00 0.00 1251.00 110.00" xmlns="http://www.w3.org/2000/svg" xmlns:xlink="http://www.w3.org/1999/xlink">
<g id="graph0" class="graph" transform="scale(1 1) rotate(0) translate(4 106)">
<title>itk::GradientRecursiveGaussianImageFilter&lt; TInputImage, TOutputImage &gt;</title>
<polygon fill="white" stroke="transparent" points="-4,4 -4,-106 1247,-106 1247,4 -4,4"/>
<!-- Node1 -->
<g id="node1" class="node">
<title>Node1</title>
<g id="a_node1"><a xlink:title="Computes the gradient of an image by convolution with the first derivative of a Gaussian.">
<polygon fill="#bfbfbf" stroke="black" points="1073,-19.5 1073,-60.5 1243,-60.5 1243,-19.5 1073,-19.5"/>
<text text-anchor="start" x="1081" y="-48.5" font-family="Helvetica,sans-Serif" font-size="10.00">itk::GradientRecursiveGaussian</text>
<text text-anchor="start" x="1081" y="-37.5" font-family="Helvetica,sans-Serif" font-size="10.00">ImageFilter&lt; TInputImage,</text>
<text text-anchor="middle" x="1158" y="-26.5" font-family="Helvetica,sans-Serif" font-size="10.00"> TOutputImage &gt;</text>
</a>
</g>
</g>
<!-- Node2 -->
<g id="node2" class="node">
<title>Node2</title>
<g id="a_node2"><a xlink:href="classitk_1_1ImageToImageFilter.html" target="_top" xlink:title=" ">
<polygon fill="white" stroke="black" points="741,-3 741,-77 1037,-77 1037,-3 741,-3"/>
<text text-anchor="start" x="749" y="-65" font-family="Helvetica,sans-Serif" font-size="10.00">itk::ImageToImageFilter</text>
<text text-anchor="start" x="749" y="-54" font-family="Helvetica,sans-Serif" font-size="10.00">&lt; TInputImage, Image&lt;</text>
<text text-anchor="start" x="749" y="-43" font-family="Helvetica,sans-Serif" font-size="10.00"> CovariantVector&lt; typename</text>
<text text-anchor="start" x="749" y="-32" font-family="Helvetica,sans-Serif" font-size="10.00"> NumericTraits&lt; typename TInputImage</text>
<text text-anchor="start" x="749" y="-21" font-family="Helvetica,sans-Serif" font-size="10.00">::PixelType &gt;::RealType, TInputImage</text>
<text text-anchor="middle" x="889" y="-10" font-family="Helvetica,sans-Serif" font-size="10.00">::ImageDimension &gt;, TInputImage::ImageDimension &gt; &gt;</text>
</a>
</g>
</g>
<!-- Node2&#45;&gt;Node1 -->
<g id="edge1" class="edge">
<title>Node2&#45;&gt;Node1</title>
<path fill="none" stroke="midnightblue" d="M1047.42,-40C1056.11,-40 1064.66,-40 1072.92,-40"/>
<polygon fill="midnightblue" stroke="midnightblue" points="1047.17,-36.5 1037.17,-40 1047.17,-43.5 1047.17,-36.5"/>
</g>
<!-- Node3 -->
<g id="node3" class="node">
<title>Node3</title>
<g id="a_node3"><a xlink:href="classitk_1_1ImageSource.html" target="_top" xlink:title=" ">
<polygon fill="white" stroke="black" points="409,-38.5 409,-101.5 705,-101.5 705,-38.5 409,-38.5"/>
<text text-anchor="start" x="417" y="-89.5" font-family="Helvetica,sans-Serif" font-size="10.00">itk::ImageSource&lt; Image</text>
<text text-anchor="start" x="417" y="-78.5" font-family="Helvetica,sans-Serif" font-size="10.00">&lt; CovariantVector&lt; typename</text>
<text text-anchor="start" x="417" y="-67.5" font-family="Helvetica,sans-Serif" font-size="10.00"> NumericTraits&lt; typename TInputImage</text>
<text text-anchor="start" x="417" y="-56.5" font-family="Helvetica,sans-Serif" font-size="10.00">::PixelType &gt;::RealType, TInputImage</text>
<text text-anchor="middle" x="557" y="-45.5" font-family="Helvetica,sans-Serif" font-size="10.00">::ImageDimension &gt;, TInputImage::ImageDimension &gt; &gt;</text>
</a>
</g>
</g>
<!-- Node3&#45;&gt;Node2 -->
<g id="edge2" class="edge">
<title>Node3&#45;&gt;Node2</title>
<path fill="none" stroke="midnightblue" d="M715.18,-55.71C723.74,-54.93 732.32,-54.15 740.85,-53.38"/>
<polygon fill="midnightblue" stroke="midnightblue" points="714.79,-52.23 705.15,-56.62 715.42,-59.2 714.79,-52.23"/>
</g>
<!-- Node4 -->
<g id="node4" class="node">
<title>Node4</title>
<g id="a_node4"><a xlink:href="classitk_1_1ProcessObject.html" target="_top" xlink:title="The base class for all process objects (source, filters, mappers) in the Insight data processing pipe...">
<polygon fill="white" stroke="black" points="249.5,-79.5 249.5,-98.5 353.5,-98.5 353.5,-79.5 249.5,-79.5"/>
<text text-anchor="middle" x="301.5" y="-86.5" font-family="Helvetica,sans-Serif" font-size="10.00">itk::ProcessObject</text>
</a>
</g>
</g>
<!-- Node4&#45;&gt;Node3 -->
<g id="edge3" class="edge">
<title>Node4&#45;&gt;Node3</title>
<path fill="none" stroke="midnightblue" d="M364.07,-84.39C377.89,-83.35 393.12,-82.21 408.78,-81.03"/>
<polygon fill="midnightblue" stroke="midnightblue" points="363.51,-80.92 353.8,-85.16 364.03,-87.9 363.51,-80.92"/>
</g>
<!-- Node5 -->
<g id="node5" class="node">
<title>Node5</title>
<g id="a_node5"><a xlink:href="classitk_1_1Object.html" target="_top" xlink:title="Base class for most ITK classes.">
<polygon fill="white" stroke="black" points="127,-79.5 127,-98.5 194,-98.5 194,-79.5 127,-79.5"/>
<text text-anchor="middle" x="160.5" y="-86.5" font-family="Helvetica,sans-Serif" font-size="10.00">itk::Object</text>
</a>
</g>
</g>
<!-- Node5&#45;&gt;Node4 -->
<g id="edge4" class="edge">
<title>Node5&#45;&gt;Node4</title>
<path fill="none" stroke="midnightblue" d="M204.13,-89C218.41,-89 234.48,-89 249.35,-89"/>
<polygon fill="midnightblue" stroke="midnightblue" points="204.09,-85.5 194.09,-89 204.09,-92.5 204.09,-85.5"/>
</g>
<!-- Node6 -->
<g id="node6" class="node">
<title>Node6</title>
<g id="a_node6"><a xlink:href="classitk_1_1LightObject.html" target="_top" xlink:title="Light weight base class for most itk classes.">
<polygon fill="white" stroke="black" points="0,-79.5 0,-98.5 91,-98.5 91,-79.5 0,-79.5"/>
<text text-anchor="middle" x="45.5" y="-86.5" font-family="Helvetica,sans-Serif" font-size="10.00">itk::LightObject</text>
</a>
</g>
</g>
<!-- Node6&#45;&gt;Node5 -->
<g id="edge5" class="edge">
<title>Node6&#45;&gt;Node5</title>
<path fill="none" stroke="midnightblue" d="M101.28,-89C109.96,-89 118.69,-89 126.66,-89"/>
<polygon fill="midnightblue" stroke="midnightblue" points="101.16,-85.5 91.16,-89 101.16,-92.5 101.16,-85.5"/>
</g>
<!-- Node7 -->
<g id="node7" class="node">
<title>Node7</title>
<g id="a_node7"><a xlink:href="structitk_1_1ImageSourceCommon.html" target="_top" xlink:title="Secondary base class of ImageSource common between templates.">
<polygon fill="white" stroke="black" points="230,-41.5 230,-60.5 373,-60.5 373,-41.5 230,-41.5"/>
<text text-anchor="middle" x="301.5" y="-48.5" font-family="Helvetica,sans-Serif" font-size="10.00">itk::ImageSourceCommon</text>
</a>
</g>
</g>
<!-- Node7&#45;&gt;Node3 -->
<g id="edge6" class="edge">
<title>Node7&#45;&gt;Node3</title>
<path fill="none" stroke="#8b1a1a" d="M383.34,-57.06C391.56,-57.67 400.07,-58.31 408.71,-58.96"/>
<polygon fill="#8b1a1a" stroke="#8b1a1a" points="383.35,-53.55 373.11,-56.29 382.82,-60.53 383.35,-53.55"/>
</g>
<!-- Node8 -->
<g id="node8" class="node">
<title>Node8</title>
<g id="a_node8"><a xlink:href="classitk_1_1ImageToImageFilterCommon.html" target="_top" xlink:title="Secondary base class of ImageToImageFilter common between templates.">
<polygon fill="white" stroke="black" points="469,-0.5 469,-19.5 645,-19.5 645,-0.5 469,-0.5"/>
<text text-anchor="middle" x="557" y="-7.5" font-family="Helvetica,sans-Serif" font-size="10.00">itk::ImageToImageFilterCommon</text>
</a>
</g>
</g>
<!-- Node8&#45;&gt;Node2 -->
<g id="edge7" class="edge">
<title>Node8&#45;&gt;Node2</title>
<path fill="none" stroke="#8b1a1a" d="M655.29,-18.84C682.16,-21.29 711.94,-23.99 740.97,-26.63"/>
<polygon fill="#8b1a1a" stroke="#8b1a1a" points="655.41,-15.34 645.14,-17.92 654.78,-22.31 655.41,-15.34"/>
</g>
</g>
</svg>
