<?xml version="1.0" encoding="UTF-8" standalone="no"?>
<!DOCTYPE svg PUBLIC "-//W3C//DTD SVG 1.1//EN"
 "http://www.w3.org/Graphics/SVG/1.1/DTD/svg11.dtd">
<!-- Generated by graphviz version 2.43.0 (0)
 -->
<!-- Title: itk::NoiseBaseImageFilter&lt; TInputImage, TOutputImage &gt; Pages: 1 -->
<svg width="2263pt" height="412pt"
 viewBox="0.00 0.00 2263.00 412.30" xmlns="http://www.w3.org/2000/svg" xmlns:xlink="http://www.w3.org/1999/xlink">
<g id="graph0" class="graph" transform="scale(1 1) rotate(0) translate(4 408.3)">
<title>itk::NoiseBaseImageFilter&lt; TInputImage, TOutputImage &gt;</title>
<polygon fill="white" stroke="transparent" points="-4,4 -4,-408.3 2259,-408.3 2259,4 -4,4"/>
<!-- Node1 -->
<g id="node1" class="node">
<title>Node1</title>
<g id="a_node1"><a xlink:title="An Abstract Base class for Noise image filters.">
<polygon fill="#bfbfbf" stroke="black" points="2079,-356.3 2079,-386.3 2255,-386.3 2255,-356.3 2079,-356.3"/>
<text text-anchor="start" x="2087" y="-374.3" font-family="Helvetica,sans-Serif" font-size="10.00">itk::NoiseBaseImageFilter</text>
<text text-anchor="middle" x="2167" y="-363.3" font-family="Helvetica,sans-Serif" font-size="10.00">&lt; TInputImage, TOutputImage &gt;</text>
</a>
</g>
</g>
<!-- Node2 -->
<g id="node2" class="node">
<title>Node2</title>
<g id="a_node2"><a xlink:href="classitk_1_1InPlaceImageFilter.html" target="_top" xlink:title=" ">
<polygon fill="white" stroke="black" points="1874,-321.3 1874,-351.3 2042,-351.3 2042,-321.3 1874,-321.3"/>
<text text-anchor="start" x="1882" y="-339.3" font-family="Helvetica,sans-Serif" font-size="10.00">itk::InPlaceImageFilter</text>
<text text-anchor="middle" x="1958" y="-328.3" font-family="Helvetica,sans-Serif" font-size="10.00">&lt; TInputImage, TInputImage &gt;</text>
</a>
</g>
</g>
<!-- Node2&#45;&gt;Node1 -->
<g id="edge1" class="edge">
<title>Node2&#45;&gt;Node1</title>
<path fill="none" stroke="midnightblue" d="M2052.04,-352.04C2060.98,-353.55 2070.03,-355.08 2078.92,-356.58"/>
<polygon fill="midnightblue" stroke="midnightblue" points="2052.45,-348.55 2042,-350.34 2051.28,-355.46 2052.45,-348.55"/>
</g>
<!-- Node3 -->
<g id="node3" class="node">
<title>Node3</title>
<g id="a_node3"><a xlink:href="classitk_1_1ImageToImageFilter.html" target="_top" xlink:title=" ">
<polygon fill="white" stroke="black" points="1669,-281.3 1669,-311.3 1837,-311.3 1837,-281.3 1669,-281.3"/>
<text text-anchor="start" x="1677" y="-299.3" font-family="Helvetica,sans-Serif" font-size="10.00">itk::ImageToImageFilter</text>
<text text-anchor="middle" x="1753" y="-288.3" font-family="Helvetica,sans-Serif" font-size="10.00">&lt; TInputImage, TInputImage &gt;</text>
</a>
</g>
</g>
<!-- Node3&#45;&gt;Node2 -->
<g id="edge2" class="edge">
<title>Node3&#45;&gt;Node2</title>
<path fill="none" stroke="midnightblue" d="M1840.35,-313.32C1853.77,-315.96 1867.56,-318.68 1880.74,-321.28"/>
<polygon fill="midnightblue" stroke="midnightblue" points="1840.66,-309.81 1830.17,-311.31 1839.3,-316.68 1840.66,-309.81"/>
</g>
<!-- Node4 -->
<g id="node4" class="node">
<title>Node4</title>
<g id="a_node4"><a xlink:href="classitk_1_1ImageSource.html" target="_top" xlink:title=" ">
<polygon fill="white" stroke="black" points="1473.5,-281.3 1473.5,-311.3 1614.5,-311.3 1614.5,-281.3 1473.5,-281.3"/>
<text text-anchor="start" x="1481.5" y="-299.3" font-family="Helvetica,sans-Serif" font-size="10.00">itk::ImageSource&lt; TInput</text>
<text text-anchor="middle" x="1544" y="-288.3" font-family="Helvetica,sans-Serif" font-size="10.00">Image &gt;</text>
</a>
</g>
</g>
<!-- Node4&#45;&gt;Node3 -->
<g id="edge3" class="edge">
<title>Node4&#45;&gt;Node3</title>
<path fill="none" stroke="midnightblue" d="M1624.84,-296.3C1639.21,-296.3 1654.22,-296.3 1668.69,-296.3"/>
<polygon fill="midnightblue" stroke="midnightblue" points="1624.5,-292.8 1614.5,-296.3 1624.5,-299.8 1624.5,-292.8"/>
</g>
<!-- Node5 -->
<g id="node5" class="node">
<title>Node5</title>
<g id="a_node5"><a xlink:href="classitk_1_1ProcessObject.html" target="_top" xlink:title="The base class for all process objects (source, filters, mappers) in the Insight data processing pipe...">
<polygon fill="white" stroke="black" points="1295.5,-203.8 1295.5,-222.8 1399.5,-222.8 1399.5,-203.8 1295.5,-203.8"/>
<text text-anchor="middle" x="1347.5" y="-210.8" font-family="Helvetica,sans-Serif" font-size="10.00">itk::ProcessObject</text>
</a>
</g>
</g>
<!-- Node5&#45;&gt;Node4 -->
<g id="edge4" class="edge">
<title>Node5&#45;&gt;Node4</title>
<path fill="none" stroke="midnightblue" d="M1372.35,-228.11C1393.66,-240.86 1426.07,-259.09 1456,-271.3 1464.88,-274.93 1474.46,-278.24 1483.92,-281.19"/>
<polygon fill="midnightblue" stroke="midnightblue" points="1374.02,-225.03 1363.66,-222.84 1370.4,-231.01 1374.02,-225.03"/>
</g>
<!-- Node6 -->
<g id="node6" class="node">
<title>Node6</title>
<g id="a_node6"><a xlink:href="classitk_1_1Object.html" target="_top" xlink:title="Base class for most ITK classes.">
<polygon fill="white" stroke="black" points="980,-108.8 980,-127.8 1047,-127.8 1047,-108.8 980,-108.8"/>
<text text-anchor="middle" x="1013.5" y="-115.8" font-family="Helvetica,sans-Serif" font-size="10.00">itk::Object</text>
</a>
</g>
</g>
<!-- Node6&#45;&gt;Node5 -->
<g id="edge5" class="edge">
<title>Node6&#45;&gt;Node5</title>
<path fill="none" stroke="midnightblue" d="M1057.23,-122.88C1106.66,-129.04 1189.96,-142.13 1258,-166.3 1285.38,-176.03 1314.7,-193.07 1331.77,-203.74"/>
<polygon fill="midnightblue" stroke="midnightblue" points="1057.56,-119.39 1047.21,-121.66 1056.72,-126.34 1057.56,-119.39"/>
</g>
<!-- Node7 -->
<g id="node7" class="node">
<title>Node7</title>
<g id="a_node7"><a xlink:href="classitk_1_1LightObject.html" target="_top" xlink:title="Light weight base class for most itk classes.">
<polygon fill="white" stroke="black" points="659,-68.8 659,-87.8 750,-87.8 750,-68.8 659,-68.8"/>
<text text-anchor="middle" x="704.5" y="-75.8" font-family="Helvetica,sans-Serif" font-size="10.00">itk::LightObject</text>
</a>
</g>
</g>
<!-- Node7&#45;&gt;Node6 -->
<g id="edge6" class="edge">
<title>Node7&#45;&gt;Node6</title>
<path fill="none" stroke="midnightblue" d="M760.4,-85.46C824.13,-93.76 927.17,-107.19 979.59,-114.02"/>
<polygon fill="midnightblue" stroke="midnightblue" points="760.51,-81.94 750.14,-84.12 759.6,-88.88 760.51,-81.94"/>
</g>
<!-- Node8 -->
<g id="node8" class="node">
<title>Node8</title>
<g id="a_node8"><a xlink:title=" ">
<polygon fill="white" stroke="#bfbfbf" points="372,-65.8 372,-84.8 479,-84.8 479,-65.8 372,-65.8"/>
<text text-anchor="middle" x="425.5" y="-72.8" font-family="Helvetica,sans-Serif" font-size="10.00">std::atomic&lt; int &gt;</text>
</a>
</g>
</g>
<!-- Node8&#45;&gt;Node7 -->
<g id="edge7" class="edge">
<title>Node8&#45;&gt;Node7</title>
<path fill="none" stroke="#9a32cd" stroke-dasharray="5,2" d="M489.29,-75.98C540.91,-76.54 612.77,-77.32 658.72,-77.82"/>
<polygon fill="#9a32cd" stroke="#9a32cd" points="489.29,-72.48 479.25,-75.88 489.22,-79.48 489.29,-72.48"/>
<text text-anchor="middle" x="566.5" y="-81.3" font-family="Helvetica,sans-Serif" font-size="10.00"> m_ReferenceCount</text>
</g>
<!-- Node9 -->
<g id="node9" class="node">
<title>Node9</title>
<g id="a_node9"><a xlink:title="STL class.">
<polygon fill="white" stroke="#bfbfbf" points="672,-189.8 672,-208.8 737,-208.8 737,-189.8 672,-189.8"/>
<text text-anchor="middle" x="704.5" y="-196.8" font-family="Helvetica,sans-Serif" font-size="10.00">std::string</text>
</a>
</g>
</g>
<!-- Node9&#45;&gt;Node6 -->
<g id="edge8" class="edge">
<title>Node9&#45;&gt;Node6</title>
<path fill="none" stroke="#9a32cd" stroke-dasharray="5,2" d="M734.5,-185.47C751.53,-177.79 773.64,-168.54 794,-162.3 858.56,-142.52 936.63,-129.26 979.79,-122.83"/>
<polygon fill="#9a32cd" stroke="#9a32cd" points="732.75,-182.43 725.12,-189.78 735.67,-188.79 732.75,-182.43"/>
<text text-anchor="middle" x="852.5" y="-165.3" font-family="Helvetica,sans-Serif" font-size="10.00"> m_ObjectName</text>
</g>
<!-- Node18 -->
<g id="node18" class="node">
<title>Node18</title>
<g id="a_node18"><a xlink:title=" ">
<polygon fill="white" stroke="#bfbfbf" points="932.5,-198.3 932.5,-228.3 1094.5,-228.3 1094.5,-198.3 932.5,-198.3"/>
<text text-anchor="start" x="940.5" y="-216.3" font-family="Helvetica,sans-Serif" font-size="10.00">std::set&lt; DataObjectIdentifier</text>
<text text-anchor="middle" x="1013.5" y="-205.3" font-family="Helvetica,sans-Serif" font-size="10.00">Type &gt;</text>
</a>
</g>
</g>
<!-- Node9&#45;&gt;Node18 -->
<g id="edge19" class="edge">
<title>Node9&#45;&gt;Node18</title>
<path fill="none" stroke="#9a32cd" stroke-dasharray="5,2" d="M747.4,-201.22C794.8,-203.38 873.1,-206.95 932.35,-209.65"/>
<polygon fill="#9a32cd" stroke="#9a32cd" points="747.35,-197.71 737.2,-200.75 747.03,-204.7 747.35,-197.71"/>
<text text-anchor="middle" x="852.5" y="-212.3" font-family="Helvetica,sans-Serif" font-size="10.00"> keys</text>
</g>
<!-- Node19 -->
<g id="node19" class="node">
<title>Node19</title>
<g id="a_node19"><a xlink:title=" ">
<polygon fill="white" stroke="#bfbfbf" points="929,-149.3 929,-179.3 1098,-179.3 1098,-149.3 929,-149.3"/>
<text text-anchor="start" x="937" y="-167.3" font-family="Helvetica,sans-Serif" font-size="10.00">std::map&lt; DataObjectIdentifier</text>
<text text-anchor="middle" x="1013.5" y="-156.3" font-family="Helvetica,sans-Serif" font-size="10.00">Type, bool &gt;</text>
</a>
</g>
</g>
<!-- Node9&#45;&gt;Node19 -->
<g id="edge21" class="edge">
<title>Node9&#45;&gt;Node19</title>
<path fill="none" stroke="#9a32cd" stroke-dasharray="5,2" d="M747.2,-194.55C793.65,-189.26 869.92,-180.56 928.8,-173.85"/>
<polygon fill="#9a32cd" stroke="#9a32cd" points="746.74,-191.08 737.2,-195.69 747.53,-198.04 746.74,-191.08"/>
<text text-anchor="middle" x="852.5" y="-192.3" font-family="Helvetica,sans-Serif" font-size="10.00"> keys</text>
</g>
<!-- Node24 -->
<g id="node24" class="node">
<title>Node24</title>
<g id="a_node24"><a xlink:title=" ">
<polygon fill="white" stroke="#bfbfbf" points="929,-247.3 929,-277.3 1098,-277.3 1098,-247.3 929,-247.3"/>
<text text-anchor="start" x="937" y="-265.3" font-family="Helvetica,sans-Serif" font-size="10.00">std::map&lt; DataObjectIdentifier</text>
<text text-anchor="middle" x="1013.5" y="-254.3" font-family="Helvetica,sans-Serif" font-size="10.00">Type, DataObjectPointer &gt;</text>
</a>
</g>
</g>
<!-- Node9&#45;&gt;Node24 -->
<g id="edge28" class="edge">
<title>Node9&#45;&gt;Node24</title>
<path fill="none" stroke="#9a32cd" stroke-dasharray="5,2" d="M746.36,-211.8C761.27,-216.1 778.32,-220.74 794,-224.3 838.21,-234.36 887.97,-243.21 928.83,-249.83"/>
<polygon fill="#9a32cd" stroke="#9a32cd" points="747.01,-208.34 736.43,-208.89 745.04,-215.06 747.01,-208.34"/>
<text text-anchor="middle" x="852.5" y="-249.3" font-family="Helvetica,sans-Serif" font-size="10.00"> keys</text>
</g>
<!-- Node10 -->
<g id="node10" class="node">
<title>Node10</title>
<g id="a_node10"><a xlink:title="STL class.">
<polygon fill="white" stroke="#bfbfbf" points="373.5,-184.3 373.5,-214.3 477.5,-214.3 477.5,-184.3 373.5,-184.3"/>
<text text-anchor="start" x="381.5" y="-202.3" font-family="Helvetica,sans-Serif" font-size="10.00">std::basic_string&lt;</text>
<text text-anchor="middle" x="425.5" y="-191.3" font-family="Helvetica,sans-Serif" font-size="10.00"> char &gt;</text>
</a>
</g>
</g>
<!-- Node10&#45;&gt;Node9 -->
<g id="edge9" class="edge">
<title>Node10&#45;&gt;Node9</title>
<path fill="none" stroke="midnightblue" d="M487.93,-199.3C544.75,-199.3 626.97,-199.3 671.66,-199.3"/>
<polygon fill="midnightblue" stroke="midnightblue" points="487.63,-195.8 477.63,-199.3 487.63,-202.8 487.63,-195.8"/>
</g>
<!-- Node11 -->
<g id="node11" class="node">
<title>Node11</title>
<g id="a_node11"><a xlink:href="classitk_1_1MetaDataDictionary.html" target="_top" xlink:title="Provides a mechanism for storing a collection of arbitrary data types.">
<polygon fill="white" stroke="black" points="637.5,-107.8 637.5,-126.8 771.5,-126.8 771.5,-107.8 637.5,-107.8"/>
<text text-anchor="middle" x="704.5" y="-114.8" font-family="Helvetica,sans-Serif" font-size="10.00">itk::MetaDataDictionary</text>
</a>
</g>
</g>
<!-- Node11&#45;&gt;Node6 -->
<g id="edge10" class="edge">
<title>Node11&#45;&gt;Node6</title>
<path fill="none" stroke="#9a32cd" stroke-dasharray="5,2" d="M781.91,-115.47C786,-115.4 790.05,-115.35 794,-115.3 846,-114.72 859.01,-114.54 911,-115.3 933.92,-115.64 959.73,-116.41 979.59,-117.09"/>
<polygon fill="#9a32cd" stroke="#9a32cd" points="781.64,-111.97 771.7,-115.65 781.76,-118.97 781.64,-111.97"/>
<text text-anchor="middle" x="852.5" y="-118.3" font-family="Helvetica,sans-Serif" font-size="10.00"> m_MetaDataDictionary</text>
</g>
<!-- Node12 -->
<g id="node12" class="node">
<title>Node12</title>
<g id="a_node12"><a xlink:title=" ">
<polygon fill="white" stroke="#bfbfbf" points="351,-104.3 351,-134.3 500,-134.3 500,-104.3 351,-104.3"/>
<text text-anchor="start" x="359" y="-122.3" font-family="Helvetica,sans-Serif" font-size="10.00">std::shared_ptr&lt; MetaData</text>
<text text-anchor="middle" x="425.5" y="-111.3" font-family="Helvetica,sans-Serif" font-size="10.00">DictionaryMapType &gt;</text>
</a>
</g>
</g>
<!-- Node12&#45;&gt;Node11 -->
<g id="edge11" class="edge">
<title>Node12&#45;&gt;Node11</title>
<path fill="none" stroke="#9a32cd" stroke-dasharray="5,2" d="M510.18,-118.7C550.89,-118.41 599.13,-118.06 637.24,-117.78"/>
<polygon fill="#9a32cd" stroke="#9a32cd" points="509.98,-115.2 500,-118.77 510.03,-122.2 509.98,-115.2"/>
<text text-anchor="middle" x="566.5" y="-122.3" font-family="Helvetica,sans-Serif" font-size="10.00"> m_Dictionary</text>
</g>
<!-- Node13 -->
<g id="node13" class="node">
<title>Node13</title>
<g id="a_node13"><a xlink:title="STL class.">
<polygon fill="white" stroke="#bfbfbf" points="114,-108.8 114,-127.8 215,-127.8 215,-108.8 114,-108.8"/>
<text text-anchor="middle" x="164.5" y="-115.8" font-family="Helvetica,sans-Serif" font-size="10.00">std::map&lt; K, T &gt;</text>
</a>
</g>
</g>
<!-- Node13&#45;&gt;Node12 -->
<g id="edge12" class="edge">
<title>Node13&#45;&gt;Node12</title>
<path fill="none" stroke="#9a32cd" stroke-dasharray="5,2" d="M225.34,-118.54C262.61,-118.68 310.86,-118.87 350.52,-119.02"/>
<polygon fill="#9a32cd" stroke="#9a32cd" points="225.14,-115.03 215.13,-118.5 225.12,-122.03 225.14,-115.03"/>
<text text-anchor="middle" x="283" y="-122.3" font-family="Helvetica,sans-Serif" font-size="10.00"> ptr</text>
</g>
<!-- Node14 -->
<g id="node14" class="node">
<title>Node14</title>
<g id="a_node14"><a xlink:title=" ">
<polygon fill="white" stroke="#bfbfbf" points="0,-108.8 0,-127.8 29,-127.8 29,-108.8 0,-108.8"/>
<text text-anchor="middle" x="14.5" y="-115.8" font-family="Helvetica,sans-Serif" font-size="10.00">K</text>
</a>
</g>
</g>
<!-- Node14&#45;&gt;Node13 -->
<g id="edge13" class="edge">
<title>Node14&#45;&gt;Node13</title>
<path fill="none" stroke="#9a32cd" stroke-dasharray="5,2" d="M39.24,-118.3C59.28,-118.3 88.63,-118.3 113.78,-118.3"/>
<polygon fill="#9a32cd" stroke="#9a32cd" points="39.16,-114.8 29.16,-118.3 39.16,-121.8 39.16,-114.8"/>
<text text-anchor="middle" x="71.5" y="-121.3" font-family="Helvetica,sans-Serif" font-size="10.00"> keys</text>
</g>
<!-- Node15 -->
<g id="node15" class="node">
<title>Node15</title>
<g id="a_node15"><a xlink:title=" ">
<polygon fill="white" stroke="#bfbfbf" points="0,-55.8 0,-74.8 29,-74.8 29,-55.8 0,-55.8"/>
<text text-anchor="middle" x="14.5" y="-62.8" font-family="Helvetica,sans-Serif" font-size="10.00">T</text>
</a>
</g>
</g>
<!-- Node15&#45;&gt;Node13 -->
<g id="edge14" class="edge">
<title>Node15&#45;&gt;Node13</title>
<path fill="none" stroke="#9a32cd" stroke-dasharray="5,2" d="M38.78,-73.64C65.36,-83.16 108.76,-98.7 136.72,-108.71"/>
<polygon fill="#9a32cd" stroke="#9a32cd" points="39.75,-70.27 29.16,-70.2 37.39,-76.86 39.75,-70.27"/>
<text text-anchor="middle" x="71.5" y="-97.3" font-family="Helvetica,sans-Serif" font-size="10.00"> elements</text>
</g>
<!-- Node17 -->
<g id="node17" class="node">
<title>Node17</title>
<g id="a_node17"><a xlink:title="STL class.">
<polygon fill="white" stroke="#bfbfbf" points="233,-33.8 233,-52.8 333,-52.8 333,-33.8 233,-33.8"/>
<text text-anchor="middle" x="283" y="-40.8" font-family="Helvetica,sans-Serif" font-size="10.00">std::atomic&lt; T &gt;</text>
</a>
</g>
</g>
<!-- Node15&#45;&gt;Node17 -->
<g id="edge17" class="edge">
<title>Node15&#45;&gt;Node17</title>
<path fill="none" stroke="#9a32cd" stroke-dasharray="5,2" d="M39.45,-62.99C42,-62.75 44.55,-62.52 47,-62.3 111.22,-56.65 185.37,-50.76 232.92,-47.07"/>
<polygon fill="#9a32cd" stroke="#9a32cd" points="38.92,-59.52 29.3,-63.95 39.58,-66.49 38.92,-59.52"/>
<text text-anchor="middle" x="71.5" y="-65.3" font-family="Helvetica,sans-Serif" font-size="10.00"> ptr</text>
</g>
<!-- Node16 -->
<g id="node16" class="node">
<title>Node16</title>
<g id="a_node16"><a xlink:href="classitk_1_1TimeStamp.html" target="_top" xlink:title="Generate a unique, increasing time value.">
<polygon fill="white" stroke="black" points="658.5,-26.8 658.5,-45.8 750.5,-45.8 750.5,-26.8 658.5,-26.8"/>
<text text-anchor="middle" x="704.5" y="-33.8" font-family="Helvetica,sans-Serif" font-size="10.00">itk::TimeStamp</text>
</a>
</g>
</g>
<!-- Node16&#45;&gt;Node5 -->
<g id="edge30" class="edge">
<title>Node16&#45;&gt;Node5</title>
<path fill="none" stroke="#9a32cd" stroke-dasharray="5,2" d="M753.53,-24.56C856.6,-2.33 1102.25,34.46 1258,-75.3 1306.16,-109.24 1334.3,-178.52 1343.31,-203.8"/>
<polygon fill="#9a32cd" stroke="#9a32cd" points="752.72,-21.16 743.71,-26.73 754.23,-27.99 752.72,-21.16"/>
<text text-anchor="middle" x="1013.5" y="-13.3" font-family="Helvetica,sans-Serif" font-size="10.00"> m_OutputInformationMTime</text>
</g>
<!-- Node16&#45;&gt;Node6 -->
<g id="edge15" class="edge">
<title>Node16&#45;&gt;Node6</title>
<path fill="none" stroke="#9a32cd" stroke-dasharray="5,2" d="M760.98,-36.4C804.64,-38.83 865.49,-47.58 911,-75.3 922.09,-82.06 918.08,-91.29 929,-98.3 944.18,-108.05 963.66,-113.05 979.99,-115.62"/>
<polygon fill="#9a32cd" stroke="#9a32cd" points="760.98,-32.9 750.83,-35.94 760.66,-39.89 760.98,-32.9"/>
<text text-anchor="middle" x="852.5" y="-78.3" font-family="Helvetica,sans-Serif" font-size="10.00"> m_MTime</text>
</g>
<!-- Node17&#45;&gt;Node16 -->
<g id="edge16" class="edge">
<title>Node17&#45;&gt;Node16</title>
<path fill="none" stroke="#9a32cd" stroke-dasharray="5,2" d="M343.61,-42.31C428.52,-40.89 582.42,-38.32 658.48,-37.06"/>
<polygon fill="#9a32cd" stroke="#9a32cd" points="343.3,-38.81 333.36,-42.48 343.41,-45.81 343.3,-38.81"/>
<text text-anchor="middle" x="425.5" y="-45.3" font-family="Helvetica,sans-Serif" font-size="10.00"> m_GlobalTimeStamp</text>
</g>
<!-- Node18&#45;&gt;Node5 -->
<g id="edge18" class="edge">
<title>Node18&#45;&gt;Node5</title>
<path fill="none" stroke="#9a32cd" stroke-dasharray="5,2" d="M1104.91,-213.3C1166.07,-213.3 1244.64,-213.3 1295.28,-213.3"/>
<polygon fill="#9a32cd" stroke="#9a32cd" points="1104.87,-209.8 1094.87,-213.3 1104.87,-216.8 1104.87,-209.8"/>
<text text-anchor="middle" x="1187" y="-216.3" font-family="Helvetica,sans-Serif" font-size="10.00"> m_RequiredInputNames</text>
</g>
<!-- Node19&#45;&gt;Node5 -->
<g id="edge20" class="edge">
<title>Node19&#45;&gt;Node5</title>
<path fill="none" stroke="#9a32cd" stroke-dasharray="5,2" d="M1108.32,-168.95C1153.81,-172.28 1209.06,-177.89 1258,-187.3 1278.76,-191.3 1301.64,-198.08 1318.93,-203.72"/>
<polygon fill="#9a32cd" stroke="#9a32cd" points="1108.4,-165.45 1098.18,-168.24 1107.91,-172.43 1108.4,-165.45"/>
<text text-anchor="start" x="1116" y="-201.3" font-family="Helvetica,sans-Serif" font-size="10.00"> m_CachedInputReleaseData</text>
<text text-anchor="middle" x="1187" y="-190.3" font-family="Helvetica,sans-Serif" font-size="10.00">Flags</text>
</g>
<!-- Node20 -->
<g id="node20" class="node">
<title>Node20</title>
<g id="a_node20"><a xlink:title=" ">
<polygon fill="white" stroke="#bfbfbf" points="946.5,-345.8 946.5,-364.8 1080.5,-364.8 1080.5,-345.8 946.5,-345.8"/>
<text text-anchor="middle" x="1013.5" y="-352.8" font-family="Helvetica,sans-Serif" font-size="10.00">std::atomic&lt; uint32_t &gt;</text>
</a>
</g>
</g>
<!-- Node20&#45;&gt;Node5 -->
<g id="edge22" class="edge">
<title>Node20&#45;&gt;Node5</title>
<path fill="none" stroke="#9a32cd" stroke-dasharray="5,2" d="M1084.44,-365.65C1137.56,-369.53 1209.5,-365.71 1258,-327.3 1276.51,-312.64 1262.87,-296.93 1276,-277.3 1291.35,-254.36 1316.67,-234.12 1332.43,-222.81"/>
<polygon fill="#9a32cd" stroke="#9a32cd" points="1084.67,-362.16 1074.42,-364.82 1084.09,-369.14 1084.67,-362.16"/>
<text text-anchor="middle" x="1187" y="-369.3" font-family="Helvetica,sans-Serif" font-size="10.00"> m_Progress</text>
</g>
<!-- Node21 -->
<g id="node21" class="node">
<title>Node21</title>
<g id="a_node21"><a xlink:title=" ">
<polygon fill="white" stroke="#bfbfbf" points="676.5,-358.8 676.5,-377.8 732.5,-377.8 732.5,-358.8 676.5,-358.8"/>
<text text-anchor="middle" x="704.5" y="-365.8" font-family="Helvetica,sans-Serif" font-size="10.00">uint32_t</text>
</a>
</g>
</g>
<!-- Node21&#45;&gt;Node1 -->
<g id="edge33" class="edge">
<title>Node21&#45;&gt;Node1</title>
<path fill="none" stroke="#9a32cd" stroke-dasharray="5,2" d="M742.63,-373.29C800.27,-380.58 914.84,-393.3 1012.5,-393.3 1012.5,-393.3 1012.5,-393.3 1959,-393.3 1998.48,-393.3 2041.97,-389.3 2078.84,-384.7"/>
<polygon fill="#9a32cd" stroke="#9a32cd" points="742.91,-369.79 732.54,-371.99 742.02,-376.74 742.91,-369.79"/>
<text text-anchor="middle" x="1544" y="-396.3" font-family="Helvetica,sans-Serif" font-size="10.00"> m_Seed</text>
</g>
<!-- Node21&#45;&gt;Node20 -->
<g id="edge23" class="edge">
<title>Node21&#45;&gt;Node20</title>
<path fill="none" stroke="#9a32cd" stroke-dasharray="5,2" d="M742.88,-366.72C793.35,-364.58 884.11,-360.74 946.28,-358.11"/>
<polygon fill="#9a32cd" stroke="#9a32cd" points="742.59,-363.23 732.74,-367.15 742.88,-370.22 742.59,-363.23"/>
<text text-anchor="middle" x="852.5" y="-367.3" font-family="Helvetica,sans-Serif" font-size="10.00"> ptr</text>
</g>
<!-- Node22 -->
<g id="node22" class="node">
<title>Node22</title>
<g id="a_node22"><a xlink:title=" ">
<polygon fill="white" stroke="#bfbfbf" points="929,-296.3 929,-326.3 1098,-326.3 1098,-296.3 929,-296.3"/>
<text text-anchor="start" x="937" y="-314.3" font-family="Helvetica,sans-Serif" font-size="10.00">std::vector&lt; DataObjectPointer</text>
<text text-anchor="middle" x="1013.5" y="-303.3" font-family="Helvetica,sans-Serif" font-size="10.00">Map::iterator &gt;</text>
</a>
</g>
</g>
<!-- Node22&#45;&gt;Node5 -->
<g id="edge24" class="edge">
<title>Node22&#45;&gt;Node5</title>
<path fill="none" stroke="#9a32cd" stroke-dasharray="5,2" d="M1108.14,-301.95C1164.82,-295.42 1231.17,-285.99 1258,-275.3 1289.55,-262.74 1320.72,-236.95 1336.29,-222.92"/>
<polygon fill="#9a32cd" stroke="#9a32cd" points="1107.59,-298.49 1098.05,-303.1 1108.38,-305.45 1107.59,-298.49"/>
<text text-anchor="middle" x="1187" y="-315.3" font-family="Helvetica,sans-Serif" font-size="10.00"> m_IndexedOutputs</text>
<text text-anchor="middle" x="1187" y="-304.3" font-family="Helvetica,sans-Serif" font-size="10.00">m_IndexedInputs</text>
</g>
<!-- Node23 -->
<g id="node23" class="node">
<title>Node23</title>
<g id="a_node23"><a xlink:title="STL iterator class.">
<polygon fill="white" stroke="#bfbfbf" points="633,-318.8 633,-337.8 776,-337.8 776,-318.8 633,-318.8"/>
<text text-anchor="middle" x="704.5" y="-325.8" font-family="Helvetica,sans-Serif" font-size="10.00">std::map&lt; K, T &gt;::iterator</text>
</a>
</g>
</g>
<!-- Node23&#45;&gt;Node22 -->
<g id="edge25" class="edge">
<title>Node23&#45;&gt;Node22</title>
<path fill="none" stroke="#9a32cd" stroke-dasharray="5,2" d="M786.39,-323.83C830.34,-321.39 884.61,-318.39 928.97,-315.93"/>
<polygon fill="#9a32cd" stroke="#9a32cd" points="786.11,-320.34 776.32,-324.38 786.5,-327.32 786.11,-320.34"/>
<text text-anchor="middle" x="852.5" y="-325.3" font-family="Helvetica,sans-Serif" font-size="10.00"> elements</text>
</g>
<!-- Node24&#45;&gt;Node5 -->
<g id="edge26" class="edge">
<title>Node24&#45;&gt;Node5</title>
<path fill="none" stroke="#9a32cd" stroke-dasharray="5,2" d="M1108.36,-249.85C1153.63,-243.68 1208.68,-235.93 1258,-228.3 1270.01,-226.45 1282.92,-224.33 1295.06,-222.28"/>
<polygon fill="#9a32cd" stroke="#9a32cd" points="1107.7,-246.41 1098.26,-251.22 1108.64,-253.34 1107.7,-246.41"/>
<text text-anchor="middle" x="1187" y="-263.3" font-family="Helvetica,sans-Serif" font-size="10.00"> m_Outputs</text>
<text text-anchor="middle" x="1187" y="-252.3" font-family="Helvetica,sans-Serif" font-size="10.00">m_Inputs</text>
</g>
<!-- Node25 -->
<g id="node25" class="node">
<title>Node25</title>
<g id="a_node25"><a xlink:href="classitk_1_1SmartPointer.html" target="_top" xlink:title=" ">
<polygon fill="white" stroke="black" points="651,-269.3 651,-299.3 758,-299.3 758,-269.3 651,-269.3"/>
<text text-anchor="start" x="659" y="-287.3" font-family="Helvetica,sans-Serif" font-size="10.00">itk::SmartPointer&lt;</text>
<text text-anchor="middle" x="704.5" y="-276.3" font-family="Helvetica,sans-Serif" font-size="10.00"> Self &gt;</text>
</a>
</g>
</g>
<!-- Node25&#45;&gt;Node24 -->
<g id="edge27" class="edge">
<title>Node25&#45;&gt;Node24</title>
<path fill="none" stroke="#9a32cd" stroke-dasharray="5,2" d="M768.49,-279.79C814.84,-276.47 878.33,-271.92 928.92,-268.29"/>
<polygon fill="#9a32cd" stroke="#9a32cd" points="768,-276.32 758.28,-280.52 768.5,-283.3 768,-276.32"/>
<text text-anchor="middle" x="852.5" y="-281.3" font-family="Helvetica,sans-Serif" font-size="10.00"> elements</text>
</g>
<!-- Node26 -->
<g id="node26" class="node">
<title>Node26</title>
<g id="a_node26"><a xlink:href="classitk_1_1SmartPointer.html" target="_top" xlink:title=" ">
<polygon fill="white" stroke="black" points="942.5,-59.3 942.5,-89.3 1084.5,-89.3 1084.5,-59.3 942.5,-59.3"/>
<text text-anchor="start" x="950.5" y="-77.3" font-family="Helvetica,sans-Serif" font-size="10.00">itk::SmartPointer&lt;</text>
<text text-anchor="middle" x="1013.5" y="-66.3" font-family="Helvetica,sans-Serif" font-size="10.00"> itk::MultiThreaderBase &gt;</text>
</a>
</g>
</g>
<!-- Node26&#45;&gt;Node5 -->
<g id="edge29" class="edge">
<title>Node26&#45;&gt;Node5</title>
<path fill="none" stroke="#9a32cd" stroke-dasharray="5,2" d="M1094.56,-76.07C1144.23,-80.14 1207.91,-90.95 1258,-118.3 1296.78,-139.48 1328.05,-183.92 1340.58,-203.58"/>
<polygon fill="#9a32cd" stroke="#9a32cd" points="1094.74,-72.57 1084.5,-75.32 1094.22,-79.55 1094.74,-72.57"/>
<text text-anchor="middle" x="1187" y="-121.3" font-family="Helvetica,sans-Serif" font-size="10.00"> m_MultiThreader</text>
</g>
<!-- Node27 -->
<g id="node27" class="node">
<title>Node27</title>
<g id="a_node27"><a xlink:href="structitk_1_1ImageSourceCommon.html" target="_top" xlink:title="Secondary base class of ImageSource common between templates.">
<polygon fill="white" stroke="black" points="1276,-286.8 1276,-305.8 1419,-305.8 1419,-286.8 1276,-286.8"/>
<text text-anchor="middle" x="1347.5" y="-293.8" font-family="Helvetica,sans-Serif" font-size="10.00">itk::ImageSourceCommon</text>
</a>
</g>
</g>
<!-- Node27&#45;&gt;Node4 -->
<g id="edge31" class="edge">
<title>Node27&#45;&gt;Node4</title>
<path fill="none" stroke="#8b1a1a" d="M1429.28,-296.3C1443.89,-296.3 1459,-296.3 1473.26,-296.3"/>
<polygon fill="#8b1a1a" stroke="#8b1a1a" points="1429.27,-292.8 1419.27,-296.3 1429.27,-299.8 1429.27,-292.8"/>
</g>
<!-- Node28 -->
<g id="node28" class="node">
<title>Node28</title>
<g id="a_node28"><a xlink:href="classitk_1_1ImageToImageFilterCommon.html" target="_top" xlink:title="Secondary base class of ImageToImageFilter common between templates.">
<polygon fill="white" stroke="black" points="1456,-242.8 1456,-261.8 1632,-261.8 1632,-242.8 1456,-242.8"/>
<text text-anchor="middle" x="1544" y="-249.8" font-family="Helvetica,sans-Serif" font-size="10.00">itk::ImageToImageFilterCommon</text>
</a>
</g>
</g>
<!-- Node28&#45;&gt;Node3 -->
<g id="edge32" class="edge">
<title>Node28&#45;&gt;Node3</title>
<path fill="none" stroke="#8b1a1a" d="M1599.91,-263.98C1624.81,-269.27 1654.56,-275.59 1681.12,-281.24"/>
<polygon fill="#8b1a1a" stroke="#8b1a1a" points="1600.43,-260.51 1589.92,-261.85 1598.97,-267.35 1600.43,-260.51"/>
</g>
</g>
</svg>
