<?xml version="1.0" encoding="UTF-8" standalone="no"?>
<!DOCTYPE svg PUBLIC "-//W3C//DTD SVG 1.1//EN"
 "http://www.w3.org/Graphics/SVG/1.1/DTD/svg11.dtd">
<!-- Generated by graphviz version 2.43.0 (0)
 -->
<!-- Title: itk::NumericTraits&lt; SymmetricSecondRankTensor&lt; T, D &gt; &gt; Pages: 1 -->
<svg width="205pt" height="274pt"
 viewBox="0.00 0.00 205.00 274.00" xmlns="http://www.w3.org/2000/svg" xmlns:xlink="http://www.w3.org/1999/xlink">
<g id="graph0" class="graph" transform="scale(1 1) rotate(0) translate(4 270)">
<title>itk::NumericTraits&lt; SymmetricSecondRankTensor&lt; T, D &gt; &gt;</title>
<polygon fill="white" stroke="transparent" points="-4,4 -4,-270 201,-270 201,4 -4,4"/>
<!-- Node1 -->
<g id="node1" class="node">
<title>Node1</title>
<g id="a_node1"><a xlink:title="Define numeric traits for SymmetricSecondRankTensor.">
<polygon fill="#bfbfbf" stroke="black" points="12,-0.5 12,-41.5 185,-41.5 185,-0.5 12,-0.5"/>
<text text-anchor="start" x="20" y="-29.5" font-family="Helvetica,sans-Serif" font-size="10.00">itk::NumericTraits</text>
<text text-anchor="start" x="20" y="-18.5" font-family="Helvetica,sans-Serif" font-size="10.00">&lt; SymmetricSecondRankTensor</text>
<text text-anchor="middle" x="98.5" y="-7.5" font-family="Helvetica,sans-Serif" font-size="10.00">&lt; T, D &gt; &gt;</text>
</a>
</g>
</g>
<!-- Node2 -->
<g id="node2" class="node">
<title>Node2</title>
<g id="a_node2"><a xlink:href="classitk_1_1SymmetricSecondRankTensor.html" target="_top" xlink:title="Represent a symmetric tensor of second rank.">
<polygon fill="white" stroke="black" points="0,-100.5 0,-130.5 197,-130.5 197,-100.5 0,-100.5"/>
<text text-anchor="start" x="8" y="-118.5" font-family="Helvetica,sans-Serif" font-size="10.00">itk::SymmetricSecondRank</text>
<text text-anchor="middle" x="98.5" y="-107.5" font-family="Helvetica,sans-Serif" font-size="10.00">Tensor&lt; TComponent, VDimension &gt;</text>
</a>
</g>
</g>
<!-- Node2&#45;&gt;Node1 -->
<g id="edge1" class="edge">
<title>Node2&#45;&gt;Node1</title>
<path fill="none" stroke="#9a32cd" stroke-dasharray="5,2" d="M98.5,-90.28C98.5,-75.14 98.5,-55.88 98.5,-41.68"/>
<polygon fill="#9a32cd" stroke="#9a32cd" points="95,-90.45 98.5,-100.45 102,-90.45 95,-90.45"/>
<text text-anchor="middle" x="110" y="-74" font-family="Helvetica,sans-Serif" font-size="10.00"> One</text>
<text text-anchor="middle" x="110" y="-63" font-family="Helvetica,sans-Serif" font-size="10.00">Zero</text>
</g>
<!-- Node3 -->
<g id="node3" class="node">
<title>Node3</title>
<g id="a_node3"><a xlink:href="classitk_1_1FixedArray.html" target="_top" xlink:title=" ">
<polygon fill="white" stroke="black" points="17,-168.5 17,-198.5 180,-198.5 180,-168.5 17,-168.5"/>
<text text-anchor="start" x="25" y="-186.5" font-family="Helvetica,sans-Serif" font-size="10.00">itk::FixedArray&lt; TComponent,</text>
<text text-anchor="middle" x="98.5" y="-175.5" font-family="Helvetica,sans-Serif" font-size="10.00"> 3 *(3+1)/2 &gt;</text>
</a>
</g>
</g>
<!-- Node3&#45;&gt;Node2 -->
<g id="edge2" class="edge">
<title>Node3&#45;&gt;Node2</title>
<path fill="none" stroke="midnightblue" d="M98.5,-158.03C98.5,-148.86 98.5,-138.74 98.5,-130.79"/>
<polygon fill="midnightblue" stroke="midnightblue" points="95,-158.18 98.5,-168.18 102,-158.18 95,-158.18"/>
</g>
<!-- Node4 -->
<g id="node4" class="node">
<title>Node4</title>
<g id="a_node4"><a xlink:title=" ">
<polygon fill="white" stroke="#bfbfbf" points="70.5,-246.5 70.5,-265.5 126.5,-265.5 126.5,-246.5 70.5,-246.5"/>
<text text-anchor="middle" x="98.5" y="-253.5" font-family="Helvetica,sans-Serif" font-size="10.00">VLength</text>
</a>
</g>
</g>
<!-- Node4&#45;&gt;Node3 -->
<g id="edge3" class="edge">
<title>Node4&#45;&gt;Node3</title>
<path fill="none" stroke="#9a32cd" stroke-dasharray="5,2" d="M98.5,-236.24C98.5,-224.41 98.5,-209.38 98.5,-198.58"/>
<polygon fill="#9a32cd" stroke="#9a32cd" points="95,-236.36 98.5,-246.36 102,-236.36 95,-236.36"/>
<text text-anchor="middle" x="139.5" y="-220" font-family="Helvetica,sans-Serif" font-size="10.00"> m_InternalArray</text>
</g>
</g>
</svg>
