<?xml version="1.0" encoding="UTF-8" standalone="no"?>
<!DOCTYPE svg PUBLIC "-//W3C//DTD SVG 1.1//EN"
 "http://www.w3.org/Graphics/SVG/1.1/DTD/svg11.dtd">
<!-- Generated by graphviz version 2.43.0 (0)
 -->
<!-- Title: itk::DiscreteGaussianImageFilter&lt; TInputImage, TOutputImage &gt; Pages: 1 -->
<svg width="2382pt" height="543pt"
 viewBox="0.00 0.00 2382.00 543.00" xmlns="http://www.w3.org/2000/svg" xmlns:xlink="http://www.w3.org/1999/xlink">
<g id="graph0" class="graph" transform="scale(1 1) rotate(0) translate(4 539)">
<title>itk::DiscreteGaussianImageFilter&lt; TInputImage, TOutputImage &gt;</title>
<polygon fill="white" stroke="transparent" points="-4,4 -4,-539 2378,-539 2378,4 -4,4"/>
<!-- Node1 -->
<g id="node1" class="node">
<title>Node1</title>
<g id="a_node1"><a xlink:title="Blurs an image by separable convolution with discrete gaussian kernels. This filter performs Gaussian...">
<polygon fill="#bfbfbf" stroke="black" points="2173,-129.5 2173,-159.5 2374,-159.5 2374,-129.5 2173,-129.5"/>
<text text-anchor="start" x="2181" y="-147.5" font-family="Helvetica,sans-Serif" font-size="10.00">itk::DiscreteGaussianImage</text>
<text text-anchor="middle" x="2273.5" y="-136.5" font-family="Helvetica,sans-Serif" font-size="10.00">Filter&lt; TInputImage, TOutputImage &gt;</text>
</a>
</g>
</g>
<!-- Node2 -->
<g id="node2" class="node">
<title>Node2</title>
<g id="a_node2"><a xlink:href="classitk_1_1ImageToImageFilter.html" target="_top" xlink:title=" ">
<polygon fill="white" stroke="black" points="1784,-248.5 1784,-278.5 1952,-278.5 1952,-248.5 1784,-248.5"/>
<text text-anchor="start" x="1792" y="-266.5" font-family="Helvetica,sans-Serif" font-size="10.00">itk::ImageToImageFilter</text>
<text text-anchor="middle" x="1868" y="-255.5" font-family="Helvetica,sans-Serif" font-size="10.00">&lt; TInputImage, TInputImage &gt;</text>
</a>
</g>
</g>
<!-- Node2&#45;&gt;Node1 -->
<g id="edge1" class="edge">
<title>Node2&#45;&gt;Node1</title>
<path fill="none" stroke="midnightblue" d="M1962.12,-255.18C2019.1,-248.08 2092.78,-235.25 2155,-212.5 2191.08,-199.31 2228.85,-175.35 2251.53,-159.68"/>
<polygon fill="midnightblue" stroke="midnightblue" points="1961.55,-251.73 1952.04,-256.4 1962.39,-258.68 1961.55,-251.73"/>
</g>
<!-- Node3 -->
<g id="node3" class="node">
<title>Node3</title>
<g id="a_node3"><a xlink:href="classitk_1_1ImageSource.html" target="_top" xlink:title=" ">
<polygon fill="white" stroke="black" points="1484,-248.5 1484,-278.5 1625,-278.5 1625,-248.5 1484,-248.5"/>
<text text-anchor="start" x="1492" y="-266.5" font-family="Helvetica,sans-Serif" font-size="10.00">itk::ImageSource&lt; TInput</text>
<text text-anchor="middle" x="1554.5" y="-255.5" font-family="Helvetica,sans-Serif" font-size="10.00">Image &gt;</text>
</a>
</g>
</g>
<!-- Node3&#45;&gt;Node2 -->
<g id="edge2" class="edge">
<title>Node3&#45;&gt;Node2</title>
<path fill="none" stroke="midnightblue" d="M1635.15,-263.5C1680.69,-263.5 1737.75,-263.5 1783.86,-263.5"/>
<polygon fill="midnightblue" stroke="midnightblue" points="1635.02,-260 1625.02,-263.5 1635.02,-267 1635.02,-260"/>
</g>
<!-- Node4 -->
<g id="node4" class="node">
<title>Node4</title>
<g id="a_node4"><a xlink:href="classitk_1_1ProcessObject.html" target="_top" xlink:title="The base class for all process objects (source, filters, mappers) in the Insight data processing pipe...">
<polygon fill="white" stroke="black" points="1295.5,-276 1295.5,-295 1399.5,-295 1399.5,-276 1295.5,-276"/>
<text text-anchor="middle" x="1347.5" y="-283" font-family="Helvetica,sans-Serif" font-size="10.00">itk::ProcessObject</text>
</a>
</g>
</g>
<!-- Node4&#45;&gt;Node3 -->
<g id="edge3" class="edge">
<title>Node4&#45;&gt;Node3</title>
<path fill="none" stroke="midnightblue" d="M1409.78,-278.92C1433.02,-276.43 1459.66,-273.57 1483.64,-271"/>
<polygon fill="midnightblue" stroke="midnightblue" points="1409.27,-275.46 1399.7,-280.01 1410.02,-282.42 1409.27,-275.46"/>
</g>
<!-- Node5 -->
<g id="node5" class="node">
<title>Node5</title>
<g id="a_node5"><a xlink:href="classitk_1_1Object.html" target="_top" xlink:title="Base class for most ITK classes.">
<polygon fill="white" stroke="black" points="980,-306 980,-325 1047,-325 1047,-306 980,-306"/>
<text text-anchor="middle" x="1013.5" y="-313" font-family="Helvetica,sans-Serif" font-size="10.00">itk::Object</text>
</a>
</g>
</g>
<!-- Node5&#45;&gt;Node4 -->
<g id="edge4" class="edge">
<title>Node5&#45;&gt;Node4</title>
<path fill="none" stroke="midnightblue" d="M1057.3,-311.63C1118.33,-306.12 1230.16,-296.01 1295.43,-290.11"/>
<polygon fill="midnightblue" stroke="midnightblue" points="1056.89,-308.16 1047.24,-312.54 1057.52,-315.13 1056.89,-308.16"/>
</g>
<!-- Node6 -->
<g id="node6" class="node">
<title>Node6</title>
<g id="a_node6"><a xlink:href="classitk_1_1LightObject.html" target="_top" xlink:title="Light weight base class for most itk classes.">
<polygon fill="white" stroke="black" points="659,-260 659,-279 750,-279 750,-260 659,-260"/>
<text text-anchor="middle" x="704.5" y="-267" font-family="Helvetica,sans-Serif" font-size="10.00">itk::LightObject</text>
</a>
</g>
</g>
<!-- Node6&#45;&gt;Node5 -->
<g id="edge5" class="edge">
<title>Node6&#45;&gt;Node5</title>
<path fill="none" stroke="midnightblue" d="M760.4,-277.73C824.13,-287.28 927.17,-302.71 979.59,-310.57"/>
<polygon fill="midnightblue" stroke="midnightblue" points="760.55,-274.21 750.14,-276.19 759.51,-281.13 760.55,-274.21"/>
</g>
<!-- Node7 -->
<g id="node7" class="node">
<title>Node7</title>
<g id="a_node7"><a xlink:title=" ">
<polygon fill="white" stroke="#bfbfbf" points="372,-256 372,-275 479,-275 479,-256 372,-256"/>
<text text-anchor="middle" x="425.5" y="-263" font-family="Helvetica,sans-Serif" font-size="10.00">std::atomic&lt; int &gt;</text>
</a>
</g>
</g>
<!-- Node7&#45;&gt;Node6 -->
<g id="edge6" class="edge">
<title>Node7&#45;&gt;Node6</title>
<path fill="none" stroke="#9a32cd" stroke-dasharray="5,2" d="M489.29,-266.41C540.91,-267.15 612.77,-268.19 658.72,-268.85"/>
<polygon fill="#9a32cd" stroke="#9a32cd" points="489.3,-262.91 479.25,-266.26 489.2,-269.91 489.3,-262.91"/>
<text text-anchor="middle" x="566.5" y="-270.5" font-family="Helvetica,sans-Serif" font-size="10.00"> m_ReferenceCount</text>
</g>
<!-- Node8 -->
<g id="node8" class="node">
<title>Node8</title>
<g id="a_node8"><a xlink:title="STL class.">
<polygon fill="white" stroke="#bfbfbf" points="672,-425 672,-444 737,-444 737,-425 672,-425"/>
<text text-anchor="middle" x="704.5" y="-432" font-family="Helvetica,sans-Serif" font-size="10.00">std::string</text>
</a>
</g>
</g>
<!-- Node8&#45;&gt;Node5 -->
<g id="edge7" class="edge">
<title>Node8&#45;&gt;Node5</title>
<path fill="none" stroke="#9a32cd" stroke-dasharray="5,2" d="M727.23,-419.19C744.58,-407.6 769.89,-392.1 794,-382.5 843.58,-362.75 862.41,-377.56 911,-355.5 919.99,-351.42 920.2,-346.96 929,-342.5 945.04,-334.37 964.03,-328 979.85,-323.49"/>
<polygon fill="#9a32cd" stroke="#9a32cd" points="725.22,-416.32 718.93,-424.84 729.16,-422.1 725.22,-416.32"/>
<text text-anchor="middle" x="852.5" y="-385.5" font-family="Helvetica,sans-Serif" font-size="10.00"> m_ObjectName</text>
</g>
<!-- Node17 -->
<g id="node17" class="node">
<title>Node17</title>
<g id="a_node17"><a xlink:title=" ">
<polygon fill="white" stroke="#bfbfbf" points="932.5,-414.5 932.5,-444.5 1094.5,-444.5 1094.5,-414.5 932.5,-414.5"/>
<text text-anchor="start" x="940.5" y="-432.5" font-family="Helvetica,sans-Serif" font-size="10.00">std::set&lt; DataObjectIdentifier</text>
<text text-anchor="middle" x="1013.5" y="-421.5" font-family="Helvetica,sans-Serif" font-size="10.00">Type &gt;</text>
</a>
</g>
</g>
<!-- Node8&#45;&gt;Node17 -->
<g id="edge18" class="edge">
<title>Node8&#45;&gt;Node17</title>
<path fill="none" stroke="#9a32cd" stroke-dasharray="5,2" d="M747.4,-433.82C794.8,-433.05 873.1,-431.77 932.35,-430.81"/>
<polygon fill="#9a32cd" stroke="#9a32cd" points="747.14,-430.32 737.2,-433.98 747.25,-437.32 747.14,-430.32"/>
<text text-anchor="middle" x="852.5" y="-435.5" font-family="Helvetica,sans-Serif" font-size="10.00"> keys</text>
</g>
<!-- Node18 -->
<g id="node18" class="node">
<title>Node18</title>
<g id="a_node18"><a xlink:title=" ">
<polygon fill="white" stroke="#bfbfbf" points="929,-351.5 929,-381.5 1098,-381.5 1098,-351.5 929,-351.5"/>
<text text-anchor="start" x="937" y="-369.5" font-family="Helvetica,sans-Serif" font-size="10.00">std::map&lt; DataObjectIdentifier</text>
<text text-anchor="middle" x="1013.5" y="-358.5" font-family="Helvetica,sans-Serif" font-size="10.00">Type, bool &gt;</text>
</a>
</g>
</g>
<!-- Node8&#45;&gt;Node18 -->
<g id="edge20" class="edge">
<title>Node8&#45;&gt;Node18</title>
<path fill="none" stroke="#9a32cd" stroke-dasharray="5,2" d="M746.91,-425.87C761.75,-422.83 778.61,-419.45 794,-416.5 845.89,-406.57 859.54,-407.44 911,-395.5 928.32,-391.48 947.08,-386.35 963.71,-381.52"/>
<polygon fill="#9a32cd" stroke="#9a32cd" points="746.09,-422.47 737,-427.91 747.5,-429.32 746.09,-422.47"/>
<text text-anchor="middle" x="852.5" y="-419.5" font-family="Helvetica,sans-Serif" font-size="10.00"> keys</text>
</g>
<!-- Node23 -->
<g id="node23" class="node">
<title>Node23</title>
<g id="a_node23"><a xlink:title=" ">
<polygon fill="white" stroke="#bfbfbf" points="929,-470.5 929,-500.5 1098,-500.5 1098,-470.5 929,-470.5"/>
<text text-anchor="start" x="937" y="-488.5" font-family="Helvetica,sans-Serif" font-size="10.00">std::map&lt; DataObjectIdentifier</text>
<text text-anchor="middle" x="1013.5" y="-477.5" font-family="Helvetica,sans-Serif" font-size="10.00">Type, DataObjectPointer &gt;</text>
</a>
</g>
</g>
<!-- Node8&#45;&gt;Node23 -->
<g id="edge27" class="edge">
<title>Node8&#45;&gt;Node23</title>
<path fill="none" stroke="#9a32cd" stroke-dasharray="5,2" d="M747.2,-441.43C793.65,-449.14 869.92,-461.81 928.8,-471.59"/>
<polygon fill="#9a32cd" stroke="#9a32cd" points="747.64,-437.95 737.2,-439.77 746.49,-444.86 747.64,-437.95"/>
<text text-anchor="middle" x="852.5" y="-470.5" font-family="Helvetica,sans-Serif" font-size="10.00"> keys</text>
</g>
<!-- Node9 -->
<g id="node9" class="node">
<title>Node9</title>
<g id="a_node9"><a xlink:title="STL class.">
<polygon fill="white" stroke="#bfbfbf" points="373.5,-419.5 373.5,-449.5 477.5,-449.5 477.5,-419.5 373.5,-419.5"/>
<text text-anchor="start" x="381.5" y="-437.5" font-family="Helvetica,sans-Serif" font-size="10.00">std::basic_string&lt;</text>
<text text-anchor="middle" x="425.5" y="-426.5" font-family="Helvetica,sans-Serif" font-size="10.00"> char &gt;</text>
</a>
</g>
</g>
<!-- Node9&#45;&gt;Node8 -->
<g id="edge8" class="edge">
<title>Node9&#45;&gt;Node8</title>
<path fill="none" stroke="midnightblue" d="M487.93,-434.5C544.75,-434.5 626.97,-434.5 671.66,-434.5"/>
<polygon fill="midnightblue" stroke="midnightblue" points="487.63,-431 477.63,-434.5 487.63,-438 487.63,-431"/>
</g>
<!-- Node10 -->
<g id="node10" class="node">
<title>Node10</title>
<g id="a_node10"><a xlink:href="classitk_1_1MetaDataDictionary.html" target="_top" xlink:title="Provides a mechanism for storing a collection of arbitrary data types.">
<polygon fill="white" stroke="black" points="637.5,-342 637.5,-361 771.5,-361 771.5,-342 637.5,-342"/>
<text text-anchor="middle" x="704.5" y="-349" font-family="Helvetica,sans-Serif" font-size="10.00">itk::MetaDataDictionary</text>
</a>
</g>
</g>
<!-- Node10&#45;&gt;Node5 -->
<g id="edge9" class="edge">
<title>Node10&#45;&gt;Node5</title>
<path fill="none" stroke="#9a32cd" stroke-dasharray="5,2" d="M781.82,-342.61C820.53,-338.1 868.26,-332.52 911,-327.5 933.91,-324.81 959.73,-321.76 979.59,-319.4"/>
<polygon fill="#9a32cd" stroke="#9a32cd" points="781.2,-339.16 771.67,-343.8 782.01,-346.11 781.2,-339.16"/>
<text text-anchor="middle" x="852.5" y="-343.5" font-family="Helvetica,sans-Serif" font-size="10.00"> m_MetaDataDictionary</text>
</g>
<!-- Node11 -->
<g id="node11" class="node">
<title>Node11</title>
<g id="a_node11"><a xlink:title=" ">
<polygon fill="white" stroke="#bfbfbf" points="351,-341.5 351,-371.5 500,-371.5 500,-341.5 351,-341.5"/>
<text text-anchor="start" x="359" y="-359.5" font-family="Helvetica,sans-Serif" font-size="10.00">std::shared_ptr&lt; MetaData</text>
<text text-anchor="middle" x="425.5" y="-348.5" font-family="Helvetica,sans-Serif" font-size="10.00">DictionaryMapType &gt;</text>
</a>
</g>
</g>
<!-- Node11&#45;&gt;Node10 -->
<g id="edge10" class="edge">
<title>Node11&#45;&gt;Node10</title>
<path fill="none" stroke="#9a32cd" stroke-dasharray="5,2" d="M510.18,-354.99C550.89,-354.25 599.13,-353.38 637.24,-352.7"/>
<polygon fill="#9a32cd" stroke="#9a32cd" points="509.94,-351.49 500,-355.17 510.07,-358.49 509.94,-351.49"/>
<text text-anchor="middle" x="566.5" y="-357.5" font-family="Helvetica,sans-Serif" font-size="10.00"> m_Dictionary</text>
</g>
<!-- Node12 -->
<g id="node12" class="node">
<title>Node12</title>
<g id="a_node12"><a xlink:title="STL class.">
<polygon fill="white" stroke="#bfbfbf" points="114,-347 114,-366 215,-366 215,-347 114,-347"/>
<text text-anchor="middle" x="164.5" y="-354" font-family="Helvetica,sans-Serif" font-size="10.00">std::map&lt; K, T &gt;</text>
</a>
</g>
</g>
<!-- Node12&#45;&gt;Node11 -->
<g id="edge11" class="edge">
<title>Node12&#45;&gt;Node11</title>
<path fill="none" stroke="#9a32cd" stroke-dasharray="5,2" d="M225.34,-356.5C262.61,-356.5 310.86,-356.5 350.52,-356.5"/>
<polygon fill="#9a32cd" stroke="#9a32cd" points="225.13,-353 215.13,-356.5 225.13,-360 225.13,-353"/>
<text text-anchor="middle" x="283" y="-359.5" font-family="Helvetica,sans-Serif" font-size="10.00"> ptr</text>
</g>
<!-- Node13 -->
<g id="node13" class="node">
<title>Node13</title>
<g id="a_node13"><a xlink:title=" ">
<polygon fill="white" stroke="#bfbfbf" points="0,-370 0,-389 29,-389 29,-370 0,-370"/>
<text text-anchor="middle" x="14.5" y="-377" font-family="Helvetica,sans-Serif" font-size="10.00">K</text>
</a>
</g>
</g>
<!-- Node13&#45;&gt;Node12 -->
<g id="edge12" class="edge">
<title>Node13&#45;&gt;Node12</title>
<path fill="none" stroke="#9a32cd" stroke-dasharray="5,2" d="M39.24,-375.81C59.28,-372.7 88.63,-368.13 113.78,-364.23"/>
<polygon fill="#9a32cd" stroke="#9a32cd" points="38.5,-372.38 29.16,-377.38 39.58,-379.3 38.5,-372.38"/>
<text text-anchor="middle" x="71.5" y="-377.5" font-family="Helvetica,sans-Serif" font-size="10.00"> keys</text>
</g>
<!-- Node14 -->
<g id="node14" class="node">
<title>Node14</title>
<g id="a_node14"><a xlink:title=" ">
<polygon fill="white" stroke="#bfbfbf" points="0,-317 0,-336 29,-336 29,-317 0,-317"/>
<text text-anchor="middle" x="14.5" y="-324" font-family="Helvetica,sans-Serif" font-size="10.00">T</text>
</a>
</g>
</g>
<!-- Node14&#45;&gt;Node12 -->
<g id="edge13" class="edge">
<title>Node14&#45;&gt;Node12</title>
<path fill="none" stroke="#9a32cd" stroke-dasharray="5,2" d="M39.01,-331.26C59.76,-335.47 90.63,-341.73 116.44,-346.96"/>
<polygon fill="#9a32cd" stroke="#9a32cd" points="39.65,-327.83 29.16,-329.27 38.26,-334.69 39.65,-327.83"/>
<text text-anchor="middle" x="71.5" y="-344.5" font-family="Helvetica,sans-Serif" font-size="10.00"> elements</text>
</g>
<!-- Node16 -->
<g id="node16" class="node">
<title>Node16</title>
<g id="a_node16"><a xlink:title="STL class.">
<polygon fill="white" stroke="#bfbfbf" points="233,-302 233,-321 333,-321 333,-302 233,-302"/>
<text text-anchor="middle" x="283" y="-309" font-family="Helvetica,sans-Serif" font-size="10.00">std::atomic&lt; T &gt;</text>
</a>
</g>
</g>
<!-- Node14&#45;&gt;Node16 -->
<g id="edge16" class="edge">
<title>Node14&#45;&gt;Node16</title>
<path fill="none" stroke="#9a32cd" stroke-dasharray="5,2" d="M39.03,-319.08C41.7,-318.45 44.39,-317.9 47,-317.5 110.54,-307.77 184.85,-307.74 232.62,-309.16"/>
<polygon fill="#9a32cd" stroke="#9a32cd" points="37.85,-315.77 29.13,-321.79 39.7,-322.53 37.85,-315.77"/>
<text text-anchor="middle" x="71.5" y="-320.5" font-family="Helvetica,sans-Serif" font-size="10.00"> ptr</text>
</g>
<!-- Node15 -->
<g id="node15" class="node">
<title>Node15</title>
<g id="a_node15"><a xlink:href="classitk_1_1TimeStamp.html" target="_top" xlink:title="Generate a unique, increasing time value.">
<polygon fill="white" stroke="black" points="658.5,-302 658.5,-321 750.5,-321 750.5,-302 658.5,-302"/>
<text text-anchor="middle" x="704.5" y="-309" font-family="Helvetica,sans-Serif" font-size="10.00">itk::TimeStamp</text>
</a>
</g>
</g>
<!-- Node15&#45;&gt;Node4 -->
<g id="edge29" class="edge">
<title>Node15&#45;&gt;Node4</title>
<path fill="none" stroke="#9a32cd" stroke-dasharray="5,2" d="M760.9,-303.25C806.04,-296.96 871.47,-288.83 929,-285.5 1060.88,-277.86 1216.58,-281.1 1295.35,-283.6"/>
<polygon fill="#9a32cd" stroke="#9a32cd" points="760.15,-299.82 750.74,-304.68 761.13,-306.75 760.15,-299.82"/>
<text text-anchor="middle" x="1013.5" y="-288.5" font-family="Helvetica,sans-Serif" font-size="10.00"> m_OutputInformationMTime</text>
</g>
<!-- Node15&#45;&gt;Node5 -->
<g id="edge14" class="edge">
<title>Node15&#45;&gt;Node5</title>
<path fill="none" stroke="#9a32cd" stroke-dasharray="5,2" d="M761.09,-312.22C824.93,-313.06 927.56,-314.39 979.75,-315.07"/>
<polygon fill="#9a32cd" stroke="#9a32cd" points="760.84,-308.72 750.8,-312.09 760.75,-315.72 760.84,-308.72"/>
<text text-anchor="middle" x="852.5" y="-316.5" font-family="Helvetica,sans-Serif" font-size="10.00"> m_MTime</text>
</g>
<!-- Node16&#45;&gt;Node15 -->
<g id="edge15" class="edge">
<title>Node16&#45;&gt;Node15</title>
<path fill="none" stroke="#9a32cd" stroke-dasharray="5,2" d="M343.61,-311.5C428.52,-311.5 582.42,-311.5 658.48,-311.5"/>
<polygon fill="#9a32cd" stroke="#9a32cd" points="343.36,-308 333.36,-311.5 343.36,-315 343.36,-308"/>
<text text-anchor="middle" x="425.5" y="-314.5" font-family="Helvetica,sans-Serif" font-size="10.00"> m_GlobalTimeStamp</text>
</g>
<!-- Node17&#45;&gt;Node4 -->
<g id="edge17" class="edge">
<title>Node17&#45;&gt;Node4</title>
<path fill="none" stroke="#9a32cd" stroke-dasharray="5,2" d="M1104.63,-419.78C1152.45,-411.8 1210.89,-397.39 1258,-371.5 1294.05,-351.69 1325.81,-313.22 1339.43,-295.22"/>
<polygon fill="#9a32cd" stroke="#9a32cd" points="1103.92,-416.35 1094.6,-421.39 1105.03,-423.26 1103.92,-416.35"/>
<text text-anchor="middle" x="1187" y="-419.5" font-family="Helvetica,sans-Serif" font-size="10.00"> m_RequiredInputNames</text>
</g>
<!-- Node18&#45;&gt;Node4 -->
<g id="edge19" class="edge">
<title>Node18&#45;&gt;Node4</title>
<path fill="none" stroke="#9a32cd" stroke-dasharray="5,2" d="M1102.3,-349.43C1148.82,-339.87 1206.78,-327.14 1258,-313.5 1278.4,-308.07 1301.1,-300.86 1318.4,-295.12"/>
<polygon fill="#9a32cd" stroke="#9a32cd" points="1101.35,-346.05 1092.25,-351.48 1102.75,-352.91 1101.35,-346.05"/>
<text text-anchor="start" x="1116" y="-359.5" font-family="Helvetica,sans-Serif" font-size="10.00"> m_CachedInputReleaseData</text>
<text text-anchor="middle" x="1187" y="-348.5" font-family="Helvetica,sans-Serif" font-size="10.00">Flags</text>
</g>
<!-- Node19 -->
<g id="node19" class="node">
<title>Node19</title>
<g id="a_node19"><a xlink:title=" ">
<polygon fill="white" stroke="#bfbfbf" points="946.5,-212 946.5,-231 1080.5,-231 1080.5,-212 946.5,-212"/>
<text text-anchor="middle" x="1013.5" y="-219" font-family="Helvetica,sans-Serif" font-size="10.00">std::atomic&lt; uint32_t &gt;</text>
</a>
</g>
</g>
<!-- Node19&#45;&gt;Node4 -->
<g id="edge21" class="edge">
<title>Node19&#45;&gt;Node4</title>
<path fill="none" stroke="#9a32cd" stroke-dasharray="5,2" d="M1090.94,-212.59C1141.41,-210.28 1207.32,-214.38 1258,-242.5 1269.66,-248.97 1264.96,-259.02 1276,-266.5 1281.88,-270.48 1288.56,-273.63 1295.41,-276.12"/>
<polygon fill="#9a32cd" stroke="#9a32cd" points="1090.53,-209.1 1080.73,-213.15 1090.91,-216.09 1090.53,-209.1"/>
<text text-anchor="middle" x="1187" y="-245.5" font-family="Helvetica,sans-Serif" font-size="10.00"> m_Progress</text>
</g>
<!-- Node20 -->
<g id="node20" class="node">
<title>Node20</title>
<g id="a_node20"><a xlink:title=" ">
<polygon fill="white" stroke="#bfbfbf" points="676.5,-212 676.5,-231 732.5,-231 732.5,-212 676.5,-212"/>
<text text-anchor="middle" x="704.5" y="-219" font-family="Helvetica,sans-Serif" font-size="10.00">uint32_t</text>
</a>
</g>
</g>
<!-- Node20&#45;&gt;Node19 -->
<g id="edge22" class="edge">
<title>Node20&#45;&gt;Node19</title>
<path fill="none" stroke="#9a32cd" stroke-dasharray="5,2" d="M742.88,-221.5C793.35,-221.5 884.11,-221.5 946.28,-221.5"/>
<polygon fill="#9a32cd" stroke="#9a32cd" points="742.74,-218 732.74,-221.5 742.74,-225 742.74,-218"/>
<text text-anchor="middle" x="852.5" y="-224.5" font-family="Helvetica,sans-Serif" font-size="10.00"> ptr</text>
</g>
<!-- Node21 -->
<g id="node21" class="node">
<title>Node21</title>
<g id="a_node21"><a xlink:title=" ">
<polygon fill="white" stroke="#bfbfbf" points="929,-162.5 929,-192.5 1098,-192.5 1098,-162.5 929,-162.5"/>
<text text-anchor="start" x="937" y="-180.5" font-family="Helvetica,sans-Serif" font-size="10.00">std::vector&lt; DataObjectPointer</text>
<text text-anchor="middle" x="1013.5" y="-169.5" font-family="Helvetica,sans-Serif" font-size="10.00">Map::iterator &gt;</text>
</a>
</g>
</g>
<!-- Node21&#45;&gt;Node4 -->
<g id="edge23" class="edge">
<title>Node21&#45;&gt;Node4</title>
<path fill="none" stroke="#9a32cd" stroke-dasharray="5,2" d="M1076.37,-160.37C1130.49,-149.43 1208.05,-144.06 1258,-185.5 1286.38,-209.04 1250.51,-239.85 1276,-266.5 1281.34,-272.09 1288.14,-276.09 1295.4,-278.95"/>
<polygon fill="#9a32cd" stroke="#9a32cd" points="1075.6,-156.96 1066.55,-162.47 1077.06,-163.81 1075.6,-156.96"/>
<text text-anchor="middle" x="1187" y="-199.5" font-family="Helvetica,sans-Serif" font-size="10.00"> m_IndexedOutputs</text>
<text text-anchor="middle" x="1187" y="-188.5" font-family="Helvetica,sans-Serif" font-size="10.00">m_IndexedInputs</text>
</g>
<!-- Node22 -->
<g id="node22" class="node">
<title>Node22</title>
<g id="a_node22"><a xlink:title="STL iterator class.">
<polygon fill="white" stroke="#bfbfbf" points="633,-168 633,-187 776,-187 776,-168 633,-168"/>
<text text-anchor="middle" x="704.5" y="-175" font-family="Helvetica,sans-Serif" font-size="10.00">std::map&lt; K, T &gt;::iterator</text>
</a>
</g>
</g>
<!-- Node22&#45;&gt;Node21 -->
<g id="edge24" class="edge">
<title>Node22&#45;&gt;Node21</title>
<path fill="none" stroke="#9a32cd" stroke-dasharray="5,2" d="M786.39,-177.5C830.34,-177.5 884.61,-177.5 928.97,-177.5"/>
<polygon fill="#9a32cd" stroke="#9a32cd" points="786.32,-174 776.32,-177.5 786.32,-181 786.32,-174"/>
<text text-anchor="middle" x="852.5" y="-180.5" font-family="Helvetica,sans-Serif" font-size="10.00"> elements</text>
</g>
<!-- Node23&#45;&gt;Node4 -->
<g id="edge25" class="edge">
<title>Node23&#45;&gt;Node4</title>
<path fill="none" stroke="#9a32cd" stroke-dasharray="5,2" d="M1108.33,-482.05C1156.81,-476.21 1214.72,-462.54 1258,-431.5 1308.1,-395.58 1335.21,-321.65 1343.62,-295.18"/>
<polygon fill="#9a32cd" stroke="#9a32cd" points="1107.69,-478.6 1098.14,-483.18 1108.46,-485.56 1107.69,-478.6"/>
<text text-anchor="middle" x="1187" y="-493.5" font-family="Helvetica,sans-Serif" font-size="10.00"> m_Outputs</text>
<text text-anchor="middle" x="1187" y="-482.5" font-family="Helvetica,sans-Serif" font-size="10.00">m_Inputs</text>
</g>
<!-- Node24 -->
<g id="node24" class="node">
<title>Node24</title>
<g id="a_node24"><a xlink:href="classitk_1_1SmartPointer.html" target="_top" xlink:title=" ">
<polygon fill="white" stroke="black" points="651,-504.5 651,-534.5 758,-534.5 758,-504.5 651,-504.5"/>
<text text-anchor="start" x="659" y="-522.5" font-family="Helvetica,sans-Serif" font-size="10.00">itk::SmartPointer&lt;</text>
<text text-anchor="middle" x="704.5" y="-511.5" font-family="Helvetica,sans-Serif" font-size="10.00"> Self &gt;</text>
</a>
</g>
</g>
<!-- Node24&#45;&gt;Node23 -->
<g id="edge26" class="edge">
<title>Node24&#45;&gt;Node23</title>
<path fill="none" stroke="#9a32cd" stroke-dasharray="5,2" d="M768.36,-512.95C809.05,-508.67 863.17,-502.89 911,-497.5 916.82,-496.84 922.82,-496.16 928.87,-495.46"/>
<polygon fill="#9a32cd" stroke="#9a32cd" points="767.89,-509.48 758.31,-514.01 768.62,-516.44 767.89,-509.48"/>
<text text-anchor="middle" x="852.5" y="-512.5" font-family="Helvetica,sans-Serif" font-size="10.00"> elements</text>
</g>
<!-- Node25 -->
<g id="node25" class="node">
<title>Node25</title>
<g id="a_node25"><a xlink:href="classitk_1_1SmartPointer.html" target="_top" xlink:title=" ">
<polygon fill="white" stroke="black" points="942.5,-113.5 942.5,-143.5 1084.5,-143.5 1084.5,-113.5 942.5,-113.5"/>
<text text-anchor="start" x="950.5" y="-131.5" font-family="Helvetica,sans-Serif" font-size="10.00">itk::SmartPointer&lt;</text>
<text text-anchor="middle" x="1013.5" y="-120.5" font-family="Helvetica,sans-Serif" font-size="10.00"> itk::MultiThreaderBase &gt;</text>
</a>
</g>
</g>
<!-- Node25&#45;&gt;Node4 -->
<g id="edge28" class="edge">
<title>Node25&#45;&gt;Node4</title>
<path fill="none" stroke="#9a32cd" stroke-dasharray="5,2" d="M1074.73,-111.25C1129.52,-99.59 1209.09,-93.32 1258,-137.5 1300.96,-176.3 1237.69,-223.1 1276,-266.5 1281.2,-272.39 1288.02,-276.55 1295.36,-279.46"/>
<polygon fill="#9a32cd" stroke="#9a32cd" points="1073.79,-107.88 1064.8,-113.49 1075.32,-114.71 1073.79,-107.88"/>
<text text-anchor="middle" x="1187" y="-140.5" font-family="Helvetica,sans-Serif" font-size="10.00"> m_MultiThreader</text>
</g>
<!-- Node26 -->
<g id="node26" class="node">
<title>Node26</title>
<g id="a_node26"><a xlink:href="structitk_1_1ImageSourceCommon.html" target="_top" xlink:title="Secondary base class of ImageSource common between templates.">
<polygon fill="white" stroke="black" points="1276,-238 1276,-257 1419,-257 1419,-238 1276,-238"/>
<text text-anchor="middle" x="1347.5" y="-245" font-family="Helvetica,sans-Serif" font-size="10.00">itk::ImageSourceCommon</text>
</a>
</g>
</g>
<!-- Node26&#45;&gt;Node3 -->
<g id="edge30" class="edge">
<title>Node26&#45;&gt;Node3</title>
<path fill="none" stroke="#8b1a1a" d="M1429.26,-253.8C1447.31,-255.21 1466.3,-256.69 1483.86,-258.06"/>
<polygon fill="#8b1a1a" stroke="#8b1a1a" points="1429.29,-250.3 1419.05,-253.01 1428.75,-257.27 1429.29,-250.3"/>
</g>
<!-- Node27 -->
<g id="node27" class="node">
<title>Node27</title>
<g id="a_node27"><a xlink:href="classitk_1_1ImageToImageFilterCommon.html" target="_top" xlink:title="Secondary base class of ImageToImageFilter common between templates.">
<polygon fill="white" stroke="black" points="1466.5,-298 1466.5,-317 1642.5,-317 1642.5,-298 1466.5,-298"/>
<text text-anchor="middle" x="1554.5" y="-305" font-family="Helvetica,sans-Serif" font-size="10.00">itk::ImageToImageFilterCommon</text>
</a>
</g>
</g>
<!-- Node27&#45;&gt;Node2 -->
<g id="edge31" class="edge">
<title>Node27&#45;&gt;Node2</title>
<path fill="none" stroke="#8b1a1a" d="M1633.26,-296.52C1679.07,-290.05 1737,-281.86 1783.72,-275.26"/>
<polygon fill="#8b1a1a" stroke="#8b1a1a" points="1632.5,-293.09 1623.09,-297.95 1633.48,-300.02 1632.5,-293.09"/>
</g>
<!-- Node28 -->
<g id="node28" class="node">
<title>Node28</title>
<g id="a_node28"><a xlink:href="classitk_1_1ZeroFluxNeumannBoundaryCondition.html" target="_top" xlink:title=" ">
<polygon fill="white" stroke="black" points="1771,-196.5 1771,-226.5 1965,-226.5 1965,-196.5 1771,-196.5"/>
<text text-anchor="start" x="1779" y="-214.5" font-family="Helvetica,sans-Serif" font-size="10.00">itk::ZeroFluxNeumannBoundary</text>
<text text-anchor="middle" x="1868" y="-203.5" font-family="Helvetica,sans-Serif" font-size="10.00">Condition&lt; RealOutputImageType &gt;</text>
</a>
</g>
</g>
<!-- Node28&#45;&gt;Node1 -->
<g id="edge32" class="edge">
<title>Node28&#45;&gt;Node1</title>
<path fill="none" stroke="#9a32cd" stroke-dasharray="5,2" d="M1975.26,-198.87C2029.26,-191.89 2095.82,-182.42 2155,-171.5 2173.53,-168.08 2193.55,-163.73 2211.72,-159.52"/>
<polygon fill="#9a32cd" stroke="#9a32cd" points="1974.79,-195.4 1965.32,-200.15 1975.69,-202.35 1974.79,-195.4"/>
<text text-anchor="middle" x="2069" y="-200.5" font-family="Helvetica,sans-Serif" font-size="10.00"> m_RealDefaultBoundaryCondition</text>
</g>
<!-- Node29 -->
<g id="node29" class="node">
<title>Node29</title>
<g id="a_node29"><a xlink:href="classitk_1_1ImageBoundaryCondition.html" target="_top" xlink:title=" ">
<polygon fill="white" stroke="black" points="1456,-188 1456,-229 1653,-229 1653,-188 1456,-188"/>
<text text-anchor="start" x="1464" y="-217" font-family="Helvetica,sans-Serif" font-size="10.00">itk::ImageBoundaryCondition</text>
<text text-anchor="start" x="1464" y="-206" font-family="Helvetica,sans-Serif" font-size="10.00">&lt; RealOutputImageType, RealOutput</text>
<text text-anchor="middle" x="1554.5" y="-195" font-family="Helvetica,sans-Serif" font-size="10.00">ImageType &gt;</text>
</a>
</g>
</g>
<!-- Node29&#45;&gt;Node28 -->
<g id="edge33" class="edge">
<title>Node29&#45;&gt;Node28</title>
<path fill="none" stroke="midnightblue" d="M1663.45,-209.54C1698.41,-209.88 1736.94,-210.25 1770.98,-210.58"/>
<polygon fill="midnightblue" stroke="midnightblue" points="1663.24,-206.04 1653.21,-209.44 1663.17,-213.04 1663.24,-206.04"/>
</g>
<!-- Node30 -->
<g id="node30" class="node">
<title>Node30</title>
<g id="a_node30"><a xlink:href="classitk_1_1ImageBoundaryCondition.html" target="_top" xlink:title=" ">
<polygon fill="white" stroke="black" points="1788.5,-147.5 1788.5,-177.5 1947.5,-177.5 1947.5,-147.5 1788.5,-147.5"/>
<text text-anchor="start" x="1796.5" y="-165.5" font-family="Helvetica,sans-Serif" font-size="10.00">itk::ImageBoundaryCondition</text>
<text text-anchor="middle" x="1868" y="-154.5" font-family="Helvetica,sans-Serif" font-size="10.00">&lt; RealOutputImageType &gt;</text>
</a>
</g>
</g>
<!-- Node30&#45;&gt;Node1 -->
<g id="edge34" class="edge">
<title>Node30&#45;&gt;Node1</title>
<path fill="none" stroke="#9a32cd" stroke-dasharray="5,2" d="M1957.76,-158.54C2021.31,-155.71 2106.93,-151.89 2172.82,-148.95"/>
<polygon fill="#9a32cd" stroke="#9a32cd" points="1957.59,-155.04 1947.76,-158.99 1957.9,-162.04 1957.59,-155.04"/>
<text text-anchor="middle" x="2069" y="-159.5" font-family="Helvetica,sans-Serif" font-size="10.00"> m_RealBoundaryCondition</text>
</g>
<!-- Node31 -->
<g id="node31" class="node">
<title>Node31</title>
<g id="a_node31"><a xlink:href="classitk_1_1ZeroFluxNeumannBoundaryCondition.html" target="_top" xlink:title=" ">
<polygon fill="white" stroke="black" points="1781.5,-98.5 1781.5,-128.5 1954.5,-128.5 1954.5,-98.5 1781.5,-98.5"/>
<text text-anchor="start" x="1789.5" y="-116.5" font-family="Helvetica,sans-Serif" font-size="10.00">itk::ZeroFluxNeumannBoundary</text>
<text text-anchor="middle" x="1868" y="-105.5" font-family="Helvetica,sans-Serif" font-size="10.00">Condition&lt; TInputImage &gt;</text>
</a>
</g>
</g>
<!-- Node31&#45;&gt;Node1 -->
<g id="edge35" class="edge">
<title>Node31&#45;&gt;Node1</title>
<path fill="none" stroke="#9a32cd" stroke-dasharray="5,2" d="M1964.93,-120.26C2020.46,-124.25 2091.69,-129.48 2155,-134.5 2160.82,-134.96 2166.79,-135.44 2172.83,-135.94"/>
<polygon fill="#9a32cd" stroke="#9a32cd" points="1964.97,-116.76 1954.75,-119.54 1964.47,-123.74 1964.97,-116.76"/>
<text text-anchor="middle" x="2069" y="-137.5" font-family="Helvetica,sans-Serif" font-size="10.00"> m_InputDefaultBoundaryCondition</text>
</g>
<!-- Node32 -->
<g id="node32" class="node">
<title>Node32</title>
<g id="a_node32"><a xlink:href="classitk_1_1ImageBoundaryCondition.html" target="_top" xlink:title=" ">
<polygon fill="white" stroke="black" points="1470.5,-98.5 1470.5,-128.5 1638.5,-128.5 1638.5,-98.5 1470.5,-98.5"/>
<text text-anchor="start" x="1478.5" y="-116.5" font-family="Helvetica,sans-Serif" font-size="10.00">itk::ImageBoundaryCondition</text>
<text text-anchor="middle" x="1554.5" y="-105.5" font-family="Helvetica,sans-Serif" font-size="10.00">&lt; TInputImage, TInputImage &gt;</text>
</a>
</g>
</g>
<!-- Node32&#45;&gt;Node31 -->
<g id="edge36" class="edge">
<title>Node32&#45;&gt;Node31</title>
<path fill="none" stroke="midnightblue" d="M1648.82,-113.5C1690.92,-113.5 1740.32,-113.5 1781.45,-113.5"/>
<polygon fill="midnightblue" stroke="midnightblue" points="1648.57,-110 1638.57,-113.5 1648.57,-117 1648.57,-110"/>
</g>
<!-- Node33 -->
<g id="node33" class="node">
<title>Node33</title>
<g id="a_node33"><a xlink:href="classitk_1_1ImageBoundaryCondition.html" target="_top" xlink:title="A virtual base object that defines an interface to a class of boundary condition objects for use by n...">
<polygon fill="white" stroke="black" points="1780,-49.5 1780,-79.5 1956,-79.5 1956,-49.5 1780,-49.5"/>
<text text-anchor="start" x="1788" y="-67.5" font-family="Helvetica,sans-Serif" font-size="10.00">itk::ImageBoundaryCondition</text>
<text text-anchor="middle" x="1868" y="-56.5" font-family="Helvetica,sans-Serif" font-size="10.00">&lt; TInputImage, TOutputImage &gt;</text>
</a>
</g>
</g>
<!-- Node33&#45;&gt;Node1 -->
<g id="edge37" class="edge">
<title>Node33&#45;&gt;Node1</title>
<path fill="none" stroke="#9a32cd" stroke-dasharray="5,2" d="M1966.28,-74.7C2021.96,-81.55 2092.89,-92 2155,-106.5 2180.89,-112.54 2209.27,-121.65 2231.65,-129.43"/>
<polygon fill="#9a32cd" stroke="#9a32cd" points="1966.41,-71.19 1956.06,-73.46 1965.57,-78.14 1966.41,-71.19"/>
<text text-anchor="middle" x="2069" y="-109.5" font-family="Helvetica,sans-Serif" font-size="10.00"> m_InputBoundaryCondition</text>
</g>
<!-- Node34 -->
<g id="node34" class="node">
<title>Node34</title>
<g id="a_node34"><a xlink:href="classitk_1_1FixedArray.html" target="_top" xlink:title=" ">
<polygon fill="white" stroke="black" points="1799,-0.5 1799,-30.5 1937,-30.5 1937,-0.5 1799,-0.5"/>
<text text-anchor="start" x="1807" y="-18.5" font-family="Helvetica,sans-Serif" font-size="10.00">itk::FixedArray&lt; double,</text>
<text text-anchor="middle" x="1868" y="-7.5" font-family="Helvetica,sans-Serif" font-size="10.00"> Self::ImageDimension &gt;</text>
</a>
</g>
</g>
<!-- Node34&#45;&gt;Node1 -->
<g id="edge38" class="edge">
<title>Node34&#45;&gt;Node1</title>
<path fill="none" stroke="#9a32cd" stroke-dasharray="5,2" d="M1947.3,-13.7C2006.5,-14.99 2088.64,-22.58 2155,-50.5 2198.34,-68.74 2238.83,-107.8 2259.04,-129.39"/>
<polygon fill="#9a32cd" stroke="#9a32cd" points="1947.31,-10.2 1937.26,-13.53 1947.2,-17.2 1947.31,-10.2"/>
<text text-anchor="middle" x="2069" y="-64.5" font-family="Helvetica,sans-Serif" font-size="10.00"> m_MaximumError</text>
<text text-anchor="middle" x="2069" y="-53.5" font-family="Helvetica,sans-Serif" font-size="10.00">m_Variance</text>
</g>
<!-- Node35 -->
<g id="node35" class="node">
<title>Node35</title>
<g id="a_node35"><a xlink:title=" ">
<polygon fill="white" stroke="#bfbfbf" points="1526.5,-6 1526.5,-25 1582.5,-25 1582.5,-6 1526.5,-6"/>
<text text-anchor="middle" x="1554.5" y="-13" font-family="Helvetica,sans-Serif" font-size="10.00">VLength</text>
</a>
</g>
</g>
<!-- Node35&#45;&gt;Node34 -->
<g id="edge39" class="edge">
<title>Node35&#45;&gt;Node34</title>
<path fill="none" stroke="#9a32cd" stroke-dasharray="5,2" d="M1592.8,-15.5C1643.63,-15.5 1735.59,-15.5 1798.89,-15.5"/>
<polygon fill="#9a32cd" stroke="#9a32cd" points="1592.6,-12 1582.6,-15.5 1592.6,-19 1592.6,-12"/>
<text text-anchor="middle" x="1712" y="-18.5" font-family="Helvetica,sans-Serif" font-size="10.00"> m_InternalArray</text>
</g>
</g>
</svg>
