<?xml version="1.0" encoding="UTF-8" standalone="no"?>
<!DOCTYPE svg PUBLIC "-//W3C//DTD SVG 1.1//EN"
 "http://www.w3.org/Graphics/SVG/1.1/DTD/svg11.dtd">
<!-- Generated by graphviz version 2.43.0 (0)
 -->
<!-- Title: itk::VotingBinaryImageFilter&lt; TInputImage, TOutputImage &gt; Pages: 1 -->
<svg width="399pt" height="419pt"
 viewBox="0.00 0.00 399.00 419.00" xmlns="http://www.w3.org/2000/svg" xmlns:xlink="http://www.w3.org/1999/xlink">
<g id="graph0" class="graph" transform="scale(1 1) rotate(0) translate(4 415)">
<title>itk::VotingBinaryImageFilter&lt; TInputImage, TOutputImage &gt;</title>
<polygon fill="white" stroke="transparent" points="-4,4 -4,-415 395,-415 395,4 -4,4"/>
<!-- Node1 -->
<g id="node1" class="node">
<title>Node1</title>
<g id="a_node1"><a xlink:title="Applies a voting operation in a neighborhood of each pixel.">
<polygon fill="#bfbfbf" stroke="black" points="125,-78.5 125,-108.5 301,-108.5 301,-78.5 125,-78.5"/>
<text text-anchor="start" x="133" y="-96.5" font-family="Helvetica,sans-Serif" font-size="10.00">itk::VotingBinaryImageFilter</text>
<text text-anchor="middle" x="213" y="-85.5" font-family="Helvetica,sans-Serif" font-size="10.00">&lt; TInputImage, TOutputImage &gt;</text>
</a>
</g>
</g>
<!-- Node9 -->
<g id="node9" class="node">
<title>Node9</title>
<g id="a_node9"><a xlink:href="classitk_1_1VotingBinaryHoleFillingImageFilter.html" target="_top" xlink:title="Fills in holes and cavities by applying a voting operation on each pixel.">
<polygon fill="white" stroke="black" points="138.5,-0.5 138.5,-41.5 287.5,-41.5 287.5,-0.5 138.5,-0.5"/>
<text text-anchor="start" x="146.5" y="-29.5" font-family="Helvetica,sans-Serif" font-size="10.00">itk::VotingBinaryHoleFilling</text>
<text text-anchor="start" x="146.5" y="-18.5" font-family="Helvetica,sans-Serif" font-size="10.00">ImageFilter&lt; TInputImage,</text>
<text text-anchor="middle" x="213" y="-7.5" font-family="Helvetica,sans-Serif" font-size="10.00"> TOutputImage &gt;</text>
</a>
</g>
</g>
<!-- Node1&#45;&gt;Node9 -->
<g id="edge8" class="edge">
<title>Node1&#45;&gt;Node9</title>
<path fill="none" stroke="midnightblue" d="M213,-67.98C213,-59.35 213,-49.76 213,-41.59"/>
<polygon fill="midnightblue" stroke="midnightblue" points="209.5,-68.23 213,-78.23 216.5,-68.23 209.5,-68.23"/>
</g>
<!-- Node2 -->
<g id="node2" class="node">
<title>Node2</title>
<g id="a_node2"><a xlink:href="classitk_1_1ImageToImageFilter.html" target="_top" xlink:title="Base class for filters that take an image as input and produce an image as output.">
<polygon fill="white" stroke="black" points="125,-145.5 125,-175.5 301,-175.5 301,-145.5 125,-145.5"/>
<text text-anchor="start" x="133" y="-163.5" font-family="Helvetica,sans-Serif" font-size="10.00">itk::ImageToImageFilter</text>
<text text-anchor="middle" x="213" y="-152.5" font-family="Helvetica,sans-Serif" font-size="10.00">&lt; TInputImage, TOutputImage &gt;</text>
</a>
</g>
</g>
<!-- Node2&#45;&gt;Node1 -->
<g id="edge1" class="edge">
<title>Node2&#45;&gt;Node1</title>
<path fill="none" stroke="midnightblue" d="M213,-135.11C213,-126.15 213,-116.32 213,-108.58"/>
<polygon fill="midnightblue" stroke="midnightblue" points="209.5,-135.4 213,-145.4 216.5,-135.4 209.5,-135.4"/>
</g>
<!-- Node3 -->
<g id="node3" class="node">
<title>Node3</title>
<g id="a_node3"><a xlink:href="classitk_1_1ImageSource.html" target="_top" xlink:title="Base class for all process objects that output image data.">
<polygon fill="white" stroke="black" points="48.5,-212.5 48.5,-242.5 197.5,-242.5 197.5,-212.5 48.5,-212.5"/>
<text text-anchor="start" x="56.5" y="-230.5" font-family="Helvetica,sans-Serif" font-size="10.00">itk::ImageSource&lt; TOutput</text>
<text text-anchor="middle" x="123" y="-219.5" font-family="Helvetica,sans-Serif" font-size="10.00">Image &gt;</text>
</a>
</g>
</g>
<!-- Node3&#45;&gt;Node2 -->
<g id="edge2" class="edge">
<title>Node3&#45;&gt;Node2</title>
<path fill="none" stroke="midnightblue" d="M150.76,-206.45C164.61,-196.45 181.02,-184.6 193.51,-175.58"/>
<polygon fill="midnightblue" stroke="midnightblue" points="148.59,-203.7 142.53,-212.4 152.68,-209.38 148.59,-203.7"/>
</g>
<!-- Node4 -->
<g id="node4" class="node">
<title>Node4</title>
<g id="a_node4"><a xlink:href="classitk_1_1ProcessObject.html" target="_top" xlink:title="The base class for all process objects (source, filters, mappers) in the Insight data processing pipe...">
<polygon fill="white" stroke="black" points="0,-279.5 0,-298.5 104,-298.5 104,-279.5 0,-279.5"/>
<text text-anchor="middle" x="52" y="-286.5" font-family="Helvetica,sans-Serif" font-size="10.00">itk::ProcessObject</text>
</a>
</g>
</g>
<!-- Node4&#45;&gt;Node3 -->
<g id="edge3" class="edge">
<title>Node4&#45;&gt;Node3</title>
<path fill="none" stroke="midnightblue" d="M69.99,-272.92C81.14,-263.58 95.36,-251.66 106.27,-242.52"/>
<polygon fill="midnightblue" stroke="midnightblue" points="67.59,-270.37 62.17,-279.48 72.09,-275.73 67.59,-270.37"/>
</g>
<!-- Node5 -->
<g id="node5" class="node">
<title>Node5</title>
<g id="a_node5"><a xlink:href="classitk_1_1Object.html" target="_top" xlink:title="Base class for most ITK classes.">
<polygon fill="white" stroke="black" points="18.5,-335.5 18.5,-354.5 85.5,-354.5 85.5,-335.5 18.5,-335.5"/>
<text text-anchor="middle" x="52" y="-342.5" font-family="Helvetica,sans-Serif" font-size="10.00">itk::Object</text>
</a>
</g>
</g>
<!-- Node5&#45;&gt;Node4 -->
<g id="edge4" class="edge">
<title>Node5&#45;&gt;Node4</title>
<path fill="none" stroke="midnightblue" d="M52,-324.8C52,-315.91 52,-305.78 52,-298.75"/>
<polygon fill="midnightblue" stroke="midnightblue" points="48.5,-325.08 52,-335.08 55.5,-325.08 48.5,-325.08"/>
</g>
<!-- Node6 -->
<g id="node6" class="node">
<title>Node6</title>
<g id="a_node6"><a xlink:href="classitk_1_1LightObject.html" target="_top" xlink:title="Light weight base class for most itk classes.">
<polygon fill="white" stroke="black" points="6.5,-391.5 6.5,-410.5 97.5,-410.5 97.5,-391.5 6.5,-391.5"/>
<text text-anchor="middle" x="52" y="-398.5" font-family="Helvetica,sans-Serif" font-size="10.00">itk::LightObject</text>
</a>
</g>
</g>
<!-- Node6&#45;&gt;Node5 -->
<g id="edge5" class="edge">
<title>Node6&#45;&gt;Node5</title>
<path fill="none" stroke="midnightblue" d="M52,-380.8C52,-371.91 52,-361.78 52,-354.75"/>
<polygon fill="midnightblue" stroke="midnightblue" points="48.5,-381.08 52,-391.08 55.5,-381.08 48.5,-381.08"/>
</g>
<!-- Node7 -->
<g id="node7" class="node">
<title>Node7</title>
<g id="a_node7"><a xlink:href="structitk_1_1ImageSourceCommon.html" target="_top" xlink:title="Secondary base class of ImageSource common between templates.">
<polygon fill="white" stroke="black" points="122.5,-279.5 122.5,-298.5 265.5,-298.5 265.5,-279.5 122.5,-279.5"/>
<text text-anchor="middle" x="194" y="-286.5" font-family="Helvetica,sans-Serif" font-size="10.00">itk::ImageSourceCommon</text>
</a>
</g>
</g>
<!-- Node7&#45;&gt;Node3 -->
<g id="edge6" class="edge">
<title>Node7&#45;&gt;Node3</title>
<path fill="none" stroke="#8b1a1a" d="M176.01,-272.92C164.86,-263.58 150.64,-251.66 139.73,-242.52"/>
<polygon fill="#8b1a1a" stroke="#8b1a1a" points="173.91,-275.73 183.83,-279.48 178.41,-270.37 173.91,-275.73"/>
</g>
<!-- Node8 -->
<g id="node8" class="node">
<title>Node8</title>
<g id="a_node8"><a xlink:href="classitk_1_1ImageToImageFilterCommon.html" target="_top" xlink:title="Secondary base class of ImageToImageFilter common between templates.">
<polygon fill="white" stroke="black" points="215,-218 215,-237 391,-237 391,-218 215,-218"/>
<text text-anchor="middle" x="303" y="-225" font-family="Helvetica,sans-Serif" font-size="10.00">itk::ImageToImageFilterCommon</text>
</a>
</g>
</g>
<!-- Node8&#45;&gt;Node2 -->
<g id="edge7" class="edge">
<title>Node8&#45;&gt;Node2</title>
<path fill="none" stroke="#8b1a1a" d="M282.71,-211.85C267.69,-201 247.34,-186.3 232.51,-175.59"/>
<polygon fill="#8b1a1a" stroke="#8b1a1a" points="280.71,-214.72 290.86,-217.73 284.8,-209.04 280.71,-214.72"/>
</g>
</g>
</svg>
