<?xml version="1.0" encoding="UTF-8" standalone="no"?>
<!DOCTYPE svg PUBLIC "-//W3C//DTD SVG 1.1//EN"
 "http://www.w3.org/Graphics/SVG/1.1/DTD/svg11.dtd">
<!-- Generated by graphviz version 2.43.0 (0)
 -->
<!-- Title: itk::VectorGradientAnisotropicDiffusionImageFilter&lt; TInputImage, TOutputImage &gt; Pages: 1 -->
<svg width="1353pt" height="925pt"
 viewBox="0.00 0.00 1353.00 925.00" xmlns="http://www.w3.org/2000/svg" xmlns:xlink="http://www.w3.org/1999/xlink">
<g id="graph0" class="graph" transform="scale(1 1) rotate(0) translate(4 921)">
<title>itk::VectorGradientAnisotropicDiffusionImageFilter&lt; TInputImage, TOutputImage &gt;</title>
<polygon fill="white" stroke="transparent" points="-4,4 -4,-921 1349,-921 1349,4 -4,4"/>
<!-- Node1 -->
<g id="node1" class="node">
<title>Node1</title>
<g id="a_node1"><a xlink:title=" ">
<polygon fill="#bfbfbf" stroke="black" points="20,-0.5 20,-41.5 211,-41.5 211,-0.5 20,-0.5"/>
<text text-anchor="start" x="28" y="-29.5" font-family="Helvetica,sans-Serif" font-size="10.00">itk::VectorGradientAnisotropic</text>
<text text-anchor="start" x="28" y="-18.5" font-family="Helvetica,sans-Serif" font-size="10.00">DiffusionImageFilter&lt; TInputImage,</text>
<text text-anchor="middle" x="115.5" y="-7.5" font-family="Helvetica,sans-Serif" font-size="10.00"> TOutputImage &gt;</text>
</a>
</g>
</g>
<!-- Node2 -->
<g id="node2" class="node">
<title>Node2</title>
<g id="a_node2"><a xlink:href="classitk_1_1AnisotropicDiffusionImageFilter.html" target="_top" xlink:title=" ">
<polygon fill="white" stroke="black" points="41.5,-79.5 41.5,-120.5 189.5,-120.5 189.5,-79.5 41.5,-79.5"/>
<text text-anchor="start" x="49.5" y="-108.5" font-family="Helvetica,sans-Serif" font-size="10.00">itk::AnisotropicDiffusion</text>
<text text-anchor="start" x="49.5" y="-97.5" font-family="Helvetica,sans-Serif" font-size="10.00">ImageFilter&lt; TInputImage,</text>
<text text-anchor="middle" x="115.5" y="-86.5" font-family="Helvetica,sans-Serif" font-size="10.00"> TOutputImage &gt;</text>
</a>
</g>
</g>
<!-- Node2&#45;&gt;Node1 -->
<g id="edge1" class="edge">
<title>Node2&#45;&gt;Node1</title>
<path fill="none" stroke="midnightblue" d="M115.5,-68.91C115.5,-59.79 115.5,-50.02 115.5,-41.76"/>
<polygon fill="midnightblue" stroke="midnightblue" points="112,-69.17 115.5,-79.17 119,-69.17 112,-69.17"/>
</g>
<!-- Node3 -->
<g id="node3" class="node">
<title>Node3</title>
<g id="a_node3"><a xlink:href="classitk_1_1DenseFiniteDifferenceImageFilter.html" target="_top" xlink:title=" ">
<polygon fill="white" stroke="black" points="41.5,-158.5 41.5,-199.5 189.5,-199.5 189.5,-158.5 41.5,-158.5"/>
<text text-anchor="start" x="49.5" y="-187.5" font-family="Helvetica,sans-Serif" font-size="10.00">itk::DenseFiniteDifference</text>
<text text-anchor="start" x="49.5" y="-176.5" font-family="Helvetica,sans-Serif" font-size="10.00">ImageFilter&lt; TInputImage,</text>
<text text-anchor="middle" x="115.5" y="-165.5" font-family="Helvetica,sans-Serif" font-size="10.00"> TOutputImage &gt;</text>
</a>
</g>
</g>
<!-- Node3&#45;&gt;Node2 -->
<g id="edge2" class="edge">
<title>Node3&#45;&gt;Node2</title>
<path fill="none" stroke="midnightblue" d="M115.5,-147.91C115.5,-138.79 115.5,-129.02 115.5,-120.76"/>
<polygon fill="midnightblue" stroke="midnightblue" points="112,-148.17 115.5,-158.17 119,-148.17 112,-148.17"/>
</g>
<!-- Node4 -->
<g id="node4" class="node">
<title>Node4</title>
<g id="a_node4"><a xlink:href="classitk_1_1FiniteDifferenceImageFilter.html" target="_top" xlink:title=" ">
<polygon fill="white" stroke="black" points="15,-237.5 15,-267.5 216,-267.5 216,-237.5 15,-237.5"/>
<text text-anchor="start" x="23" y="-255.5" font-family="Helvetica,sans-Serif" font-size="10.00">itk::FiniteDifferenceImage</text>
<text text-anchor="middle" x="115.5" y="-244.5" font-family="Helvetica,sans-Serif" font-size="10.00">Filter&lt; TInputImage, TOutputImage &gt;</text>
</a>
</g>
</g>
<!-- Node4&#45;&gt;Node3 -->
<g id="edge3" class="edge">
<title>Node4&#45;&gt;Node3</title>
<path fill="none" stroke="midnightblue" d="M115.5,-227.1C115.5,-218.1 115.5,-208.02 115.5,-199.51"/>
<polygon fill="midnightblue" stroke="midnightblue" points="112,-227.37 115.5,-237.37 119,-227.37 112,-227.37"/>
</g>
<!-- Node5 -->
<g id="node5" class="node">
<title>Node5</title>
<g id="a_node5"><a xlink:href="classitk_1_1InPlaceImageFilter.html" target="_top" xlink:title="Base class for filters that take an image as input and overwrite that image as the output.">
<polygon fill="white" stroke="black" points="296.5,-305.5 296.5,-335.5 472.5,-335.5 472.5,-305.5 296.5,-305.5"/>
<text text-anchor="start" x="304.5" y="-323.5" font-family="Helvetica,sans-Serif" font-size="10.00">itk::InPlaceImageFilter</text>
<text text-anchor="middle" x="384.5" y="-312.5" font-family="Helvetica,sans-Serif" font-size="10.00">&lt; TInputImage, TOutputImage &gt;</text>
</a>
</g>
</g>
<!-- Node5&#45;&gt;Node4 -->
<g id="edge4" class="edge">
<title>Node5&#45;&gt;Node4</title>
<path fill="none" stroke="midnightblue" d="M317.27,-303C272.79,-292.09 215.09,-277.93 172.79,-267.56"/>
<polygon fill="midnightblue" stroke="midnightblue" points="316.58,-306.44 327.12,-305.42 318.24,-299.64 316.58,-306.44"/>
</g>
<!-- Node6 -->
<g id="node6" class="node">
<title>Node6</title>
<g id="a_node6"><a xlink:href="classitk_1_1ImageToImageFilter.html" target="_top" xlink:title=" ">
<polygon fill="white" stroke="black" points="552.5,-373.5 552.5,-403.5 720.5,-403.5 720.5,-373.5 552.5,-373.5"/>
<text text-anchor="start" x="560.5" y="-391.5" font-family="Helvetica,sans-Serif" font-size="10.00">itk::ImageToImageFilter</text>
<text text-anchor="middle" x="636.5" y="-380.5" font-family="Helvetica,sans-Serif" font-size="10.00">&lt; TInputImage, TInputImage &gt;</text>
</a>
</g>
</g>
<!-- Node6&#45;&gt;Node5 -->
<g id="edge5" class="edge">
<title>Node6&#45;&gt;Node5</title>
<path fill="none" stroke="midnightblue" d="M572.99,-370.87C531.39,-359.97 477.63,-345.89 438.17,-335.56"/>
<polygon fill="midnightblue" stroke="midnightblue" points="572.19,-374.27 582.75,-373.42 573.96,-367.5 572.19,-374.27"/>
</g>
<!-- Node7 -->
<g id="node7" class="node">
<title>Node7</title>
<g id="a_node7"><a xlink:href="classitk_1_1ImageSource.html" target="_top" xlink:title=" ">
<polygon fill="white" stroke="black" points="566,-441.5 566,-471.5 707,-471.5 707,-441.5 566,-441.5"/>
<text text-anchor="start" x="574" y="-459.5" font-family="Helvetica,sans-Serif" font-size="10.00">itk::ImageSource&lt; TInput</text>
<text text-anchor="middle" x="636.5" y="-448.5" font-family="Helvetica,sans-Serif" font-size="10.00">Image &gt;</text>
</a>
</g>
</g>
<!-- Node7&#45;&gt;Node6 -->
<g id="edge6" class="edge">
<title>Node7&#45;&gt;Node6</title>
<path fill="none" stroke="midnightblue" d="M636.5,-431.03C636.5,-421.86 636.5,-411.74 636.5,-403.79"/>
<polygon fill="midnightblue" stroke="midnightblue" points="633,-431.18 636.5,-441.18 640,-431.18 633,-431.18"/>
</g>
<!-- Node8 -->
<g id="node8" class="node">
<title>Node8</title>
<g id="a_node8"><a xlink:href="classitk_1_1ProcessObject.html" target="_top" xlink:title="The base class for all process objects (source, filters, mappers) in the Insight data processing pipe...">
<polygon fill="white" stroke="black" points="584.5,-509.5 584.5,-528.5 688.5,-528.5 688.5,-509.5 584.5,-509.5"/>
<text text-anchor="middle" x="636.5" y="-516.5" font-family="Helvetica,sans-Serif" font-size="10.00">itk::ProcessObject</text>
</a>
</g>
</g>
<!-- Node8&#45;&gt;Node7 -->
<g id="edge7" class="edge">
<title>Node8&#45;&gt;Node7</title>
<path fill="none" stroke="midnightblue" d="M636.5,-499.22C636.5,-490.36 636.5,-479.96 636.5,-471.76"/>
<polygon fill="midnightblue" stroke="midnightblue" points="633,-499.33 636.5,-509.33 640,-499.33 633,-499.33"/>
</g>
<!-- Node9 -->
<g id="node9" class="node">
<title>Node9</title>
<g id="a_node9"><a xlink:href="classitk_1_1Object.html" target="_top" xlink:title="Base class for most ITK classes.">
<polygon fill="white" stroke="black" points="600,-593 600,-612 667,-612 667,-593 600,-593"/>
<text text-anchor="middle" x="633.5" y="-600" font-family="Helvetica,sans-Serif" font-size="10.00">itk::Object</text>
</a>
</g>
</g>
<!-- Node9&#45;&gt;Node8 -->
<g id="edge8" class="edge">
<title>Node9&#45;&gt;Node8</title>
<path fill="none" stroke="midnightblue" d="M634.2,-582.38C634.83,-565.4 635.71,-541.37 636.18,-528.66"/>
<polygon fill="midnightblue" stroke="midnightblue" points="630.69,-582.66 633.82,-592.78 637.69,-582.91 630.69,-582.66"/>
</g>
<!-- Node10 -->
<g id="node10" class="node">
<title>Node10</title>
<g id="a_node10"><a xlink:href="classitk_1_1LightObject.html" target="_top" xlink:title="Light weight base class for most itk classes.">
<polygon fill="white" stroke="black" points="729,-671 729,-690 820,-690 820,-671 729,-671"/>
<text text-anchor="middle" x="774.5" y="-678" font-family="Helvetica,sans-Serif" font-size="10.00">itk::LightObject</text>
</a>
</g>
</g>
<!-- Node10&#45;&gt;Node9 -->
<g id="edge9" class="edge">
<title>Node10&#45;&gt;Node9</title>
<path fill="none" stroke="midnightblue" d="M749.55,-666.05C720.68,-650.49 673.98,-625.32 649.56,-612.16"/>
<polygon fill="midnightblue" stroke="midnightblue" points="748.14,-669.27 758.6,-670.93 751.46,-663.1 748.14,-669.27"/>
</g>
<!-- Node11 -->
<g id="node11" class="node">
<title>Node11</title>
<g id="a_node11"><a xlink:title=" ">
<polygon fill="white" stroke="#bfbfbf" points="736,-749 736,-768 843,-768 843,-749 736,-749"/>
<text text-anchor="middle" x="789.5" y="-756" font-family="Helvetica,sans-Serif" font-size="10.00">std::atomic&lt; int &gt;</text>
</a>
</g>
</g>
<!-- Node11&#45;&gt;Node10 -->
<g id="edge10" class="edge">
<title>Node11&#45;&gt;Node10</title>
<path fill="none" stroke="#9a32cd" stroke-dasharray="5,2" d="M785.79,-738.72C782.73,-723.2 778.52,-701.86 776.2,-690.12"/>
<polygon fill="#9a32cd" stroke="#9a32cd" points="782.41,-739.65 787.78,-748.78 789.28,-738.29 782.41,-739.65"/>
<text text-anchor="middle" x="832" y="-717" font-family="Helvetica,sans-Serif" font-size="10.00"> m_ReferenceCount</text>
</g>
<!-- Node12 -->
<g id="node12" class="node">
<title>Node12</title>
<g id="a_node12"><a xlink:title="STL class.">
<polygon fill="white" stroke="#bfbfbf" points="289,-671 289,-690 354,-690 354,-671 289,-671"/>
<text text-anchor="middle" x="321.5" y="-678" font-family="Helvetica,sans-Serif" font-size="10.00">std::string</text>
</a>
</g>
</g>
<!-- Node12&#45;&gt;Node9 -->
<g id="edge11" class="edge">
<title>Node12&#45;&gt;Node9</title>
<path fill="none" stroke="#9a32cd" stroke-dasharray="5,2" d="M346.71,-666.26C366.91,-656.26 396.29,-643.1 423.5,-636 495.73,-617.15 517.59,-634.02 590.5,-618 597.27,-616.51 604.47,-614.33 611,-612.12"/>
<polygon fill="#9a32cd" stroke="#9a32cd" points="344.93,-663.24 337.58,-670.87 348.08,-669.49 344.93,-663.24"/>
<text text-anchor="middle" x="463" y="-639" font-family="Helvetica,sans-Serif" font-size="10.00"> m_ObjectName</text>
</g>
<!-- Node21 -->
<g id="node21" class="node">
<title>Node21</title>
<g id="a_node21"><a xlink:title=" ">
<polygon fill="white" stroke="#bfbfbf" points="419.5,-587.5 419.5,-617.5 581.5,-617.5 581.5,-587.5 419.5,-587.5"/>
<text text-anchor="start" x="427.5" y="-605.5" font-family="Helvetica,sans-Serif" font-size="10.00">std::set&lt; DataObjectIdentifier</text>
<text text-anchor="middle" x="500.5" y="-594.5" font-family="Helvetica,sans-Serif" font-size="10.00">Type &gt;</text>
</a>
</g>
</g>
<!-- Node12&#45;&gt;Node21 -->
<g id="edge22" class="edge">
<title>Node12&#45;&gt;Node21</title>
<path fill="none" stroke="#9a32cd" stroke-dasharray="5,2" d="M327.94,-661.08C331.95,-652.21 337.99,-642.18 346.5,-636 353.02,-631.26 386.25,-623.98 420.18,-617.52"/>
<polygon fill="#9a32cd" stroke="#9a32cd" points="324.57,-660.08 324.14,-670.66 331.08,-662.66 324.57,-660.08"/>
<text text-anchor="middle" x="359.5" y="-639" font-family="Helvetica,sans-Serif" font-size="10.00"> keys</text>
</g>
<!-- Node22 -->
<g id="node22" class="node">
<title>Node22</title>
<g id="a_node22"><a xlink:title=" ">
<polygon fill="white" stroke="#bfbfbf" points="232,-587.5 232,-617.5 401,-617.5 401,-587.5 232,-587.5"/>
<text text-anchor="start" x="240" y="-605.5" font-family="Helvetica,sans-Serif" font-size="10.00">std::map&lt; DataObjectIdentifier</text>
<text text-anchor="middle" x="316.5" y="-594.5" font-family="Helvetica,sans-Serif" font-size="10.00">Type, bool &gt;</text>
</a>
</g>
</g>
<!-- Node12&#45;&gt;Node22 -->
<g id="edge24" class="edge">
<title>Node12&#45;&gt;Node22</title>
<path fill="none" stroke="#9a32cd" stroke-dasharray="5,2" d="M306.18,-662.95C302.64,-658.15 299.36,-652.66 297.5,-647 294.2,-636.98 298.95,-626.11 304.53,-617.74"/>
<polygon fill="#9a32cd" stroke="#9a32cd" points="303.53,-665.25 312.59,-670.74 308.94,-660.8 303.53,-665.25"/>
<text text-anchor="middle" x="310.5" y="-639" font-family="Helvetica,sans-Serif" font-size="10.00"> keys</text>
</g>
<!-- Node27 -->
<g id="node27" class="node">
<title>Node27</title>
<g id="a_node27"><a xlink:title=" ">
<polygon fill="white" stroke="#bfbfbf" points="45,-587.5 45,-617.5 214,-617.5 214,-587.5 45,-587.5"/>
<text text-anchor="start" x="53" y="-605.5" font-family="Helvetica,sans-Serif" font-size="10.00">std::map&lt; DataObjectIdentifier</text>
<text text-anchor="middle" x="129.5" y="-594.5" font-family="Helvetica,sans-Serif" font-size="10.00">Type, DataObjectPointer &gt;</text>
</a>
</g>
</g>
<!-- Node12&#45;&gt;Node27 -->
<g id="edge31" class="edge">
<title>Node12&#45;&gt;Node27</title>
<path fill="none" stroke="#9a32cd" stroke-dasharray="5,2" d="M290.34,-667.16C256.05,-653.59 201.03,-631.81 165.07,-617.58"/>
<polygon fill="#9a32cd" stroke="#9a32cd" points="289.26,-670.5 299.85,-670.93 291.84,-663.99 289.26,-670.5"/>
<text text-anchor="middle" x="250.5" y="-639" font-family="Helvetica,sans-Serif" font-size="10.00"> keys</text>
</g>
<!-- Node13 -->
<g id="node13" class="node">
<title>Node13</title>
<g id="a_node13"><a xlink:title="STL class.">
<polygon fill="white" stroke="#bfbfbf" points="269.5,-743.5 269.5,-773.5 373.5,-773.5 373.5,-743.5 269.5,-743.5"/>
<text text-anchor="start" x="277.5" y="-761.5" font-family="Helvetica,sans-Serif" font-size="10.00">std::basic_string&lt;</text>
<text text-anchor="middle" x="321.5" y="-750.5" font-family="Helvetica,sans-Serif" font-size="10.00"> char &gt;</text>
</a>
</g>
</g>
<!-- Node13&#45;&gt;Node12 -->
<g id="edge12" class="edge">
<title>Node13&#45;&gt;Node12</title>
<path fill="none" stroke="midnightblue" d="M321.5,-733.17C321.5,-718.4 321.5,-700.45 321.5,-690.06"/>
<polygon fill="midnightblue" stroke="midnightblue" points="318,-733.2 321.5,-743.2 325,-733.21 318,-733.2"/>
</g>
<!-- Node14 -->
<g id="node14" class="node">
<title>Node14</title>
<g id="a_node14"><a xlink:href="classitk_1_1MetaDataDictionary.html" target="_top" xlink:title="Provides a mechanism for storing a collection of arbitrary data types.">
<polygon fill="white" stroke="black" points="429.5,-671 429.5,-690 563.5,-690 563.5,-671 429.5,-671"/>
<text text-anchor="middle" x="496.5" y="-678" font-family="Helvetica,sans-Serif" font-size="10.00">itk::MetaDataDictionary</text>
</a>
</g>
</g>
<!-- Node14&#45;&gt;Node9 -->
<g id="edge13" class="edge">
<title>Node14&#45;&gt;Node9</title>
<path fill="none" stroke="#9a32cd" stroke-dasharray="5,2" d="M500.06,-660.97C502.65,-652.22 507.07,-642.33 514.5,-636 540.93,-613.49 557.13,-627.56 590.5,-618 596.71,-616.22 603.35,-614.09 609.52,-612.03"/>
<polygon fill="#9a32cd" stroke="#9a32cd" points="496.64,-660.23 497.71,-670.77 503.44,-661.86 496.64,-660.23"/>
<text text-anchor="middle" x="573" y="-639" font-family="Helvetica,sans-Serif" font-size="10.00"> m_MetaDataDictionary</text>
</g>
<!-- Node15 -->
<g id="node15" class="node">
<title>Node15</title>
<g id="a_node15"><a xlink:title=" ">
<polygon fill="white" stroke="#bfbfbf" points="422,-743.5 422,-773.5 571,-773.5 571,-743.5 422,-743.5"/>
<text text-anchor="start" x="430" y="-761.5" font-family="Helvetica,sans-Serif" font-size="10.00">std::shared_ptr&lt; MetaData</text>
<text text-anchor="middle" x="496.5" y="-750.5" font-family="Helvetica,sans-Serif" font-size="10.00">DictionaryMapType &gt;</text>
</a>
</g>
</g>
<!-- Node15&#45;&gt;Node14 -->
<g id="edge14" class="edge">
<title>Node15&#45;&gt;Node14</title>
<path fill="none" stroke="#9a32cd" stroke-dasharray="5,2" d="M496.5,-733.17C496.5,-718.4 496.5,-700.45 496.5,-690.06"/>
<polygon fill="#9a32cd" stroke="#9a32cd" points="493,-733.2 496.5,-743.2 500,-733.21 493,-733.2"/>
<text text-anchor="middle" x="531" y="-717" font-family="Helvetica,sans-Serif" font-size="10.00"> m_Dictionary</text>
</g>
<!-- Node16 -->
<g id="node16" class="node">
<title>Node16</title>
<g id="a_node16"><a xlink:title="STL class.">
<polygon fill="white" stroke="#bfbfbf" points="446,-830.5 446,-849.5 547,-849.5 547,-830.5 446,-830.5"/>
<text text-anchor="middle" x="496.5" y="-837.5" font-family="Helvetica,sans-Serif" font-size="10.00">std::map&lt; K, T &gt;</text>
</a>
</g>
</g>
<!-- Node16&#45;&gt;Node15 -->
<g id="edge15" class="edge">
<title>Node16&#45;&gt;Node15</title>
<path fill="none" stroke="#9a32cd" stroke-dasharray="5,2" d="M496.5,-820.33C496.5,-806.01 496.5,-786.56 496.5,-773.54"/>
<polygon fill="#9a32cd" stroke="#9a32cd" points="493,-820.49 496.5,-830.49 500,-820.49 493,-820.49"/>
<text text-anchor="middle" x="505" y="-799.5" font-family="Helvetica,sans-Serif" font-size="10.00"> ptr</text>
</g>
<!-- Node17 -->
<g id="node17" class="node">
<title>Node17</title>
<g id="a_node17"><a xlink:title=" ">
<polygon fill="white" stroke="#bfbfbf" points="476,-897.5 476,-916.5 505,-916.5 505,-897.5 476,-897.5"/>
<text text-anchor="middle" x="490.5" y="-904.5" font-family="Helvetica,sans-Serif" font-size="10.00">K</text>
</a>
</g>
</g>
<!-- Node17&#45;&gt;Node16 -->
<g id="edge16" class="edge">
<title>Node17&#45;&gt;Node16</title>
<path fill="none" stroke="#9a32cd" stroke-dasharray="5,2" d="M490.41,-887.21C490.54,-881.08 490.84,-874.24 491.5,-868 492.14,-861.93 493.39,-855.18 494.48,-849.95"/>
<polygon fill="#9a32cd" stroke="#9a32cd" points="486.91,-887.2 490.34,-897.22 493.91,-887.25 486.91,-887.2"/>
<text text-anchor="middle" x="504.5" y="-871" font-family="Helvetica,sans-Serif" font-size="10.00"> keys</text>
</g>
<!-- Node18 -->
<g id="node18" class="node">
<title>Node18</title>
<g id="a_node18"><a xlink:title=" ">
<polygon fill="white" stroke="#bfbfbf" points="561,-897.5 561,-916.5 590,-916.5 590,-897.5 561,-897.5"/>
<text text-anchor="middle" x="575.5" y="-904.5" font-family="Helvetica,sans-Serif" font-size="10.00">T</text>
</a>
</g>
</g>
<!-- Node18&#45;&gt;Node16 -->
<g id="edge17" class="edge">
<title>Node18&#45;&gt;Node16</title>
<path fill="none" stroke="#9a32cd" stroke-dasharray="5,2" d="M555.96,-891.23C550.88,-887.31 545.45,-883.04 540.5,-879 528.46,-869.17 514.98,-857.41 506.15,-849.61"/>
<polygon fill="#9a32cd" stroke="#9a32cd" points="553.96,-894.11 564.03,-897.4 558.21,-888.55 553.96,-894.11"/>
<text text-anchor="middle" x="565" y="-871" font-family="Helvetica,sans-Serif" font-size="10.00"> elements</text>
</g>
<!-- Node20 -->
<g id="node20" class="node">
<title>Node20</title>
<g id="a_node20"><a xlink:title="STL class.">
<polygon fill="white" stroke="#bfbfbf" points="561.5,-792.5 561.5,-811.5 661.5,-811.5 661.5,-792.5 561.5,-792.5"/>
<text text-anchor="middle" x="611.5" y="-799.5" font-family="Helvetica,sans-Serif" font-size="10.00">std::atomic&lt; T &gt;</text>
</a>
</g>
</g>
<!-- Node18&#45;&gt;Node20 -->
<g id="edge20" class="edge">
<title>Node18&#45;&gt;Node20</title>
<path fill="none" stroke="#9a32cd" stroke-dasharray="5,2" d="M585.34,-888.22C586.84,-885.19 588.29,-882.04 589.5,-879 598.98,-855.27 606.3,-825.9 609.59,-811.62"/>
<polygon fill="#9a32cd" stroke="#9a32cd" points="582.17,-886.73 580.62,-897.21 588.37,-889.98 582.17,-886.73"/>
<text text-anchor="middle" x="602" y="-871" font-family="Helvetica,sans-Serif" font-size="10.00"> ptr</text>
</g>
<!-- Node19 -->
<g id="node19" class="node">
<title>Node19</title>
<g id="a_node19"><a xlink:href="classitk_1_1TimeStamp.html" target="_top" xlink:title="Generate a unique, increasing time value.">
<polygon fill="white" stroke="black" points="590.5,-671 590.5,-690 682.5,-690 682.5,-671 590.5,-671"/>
<text text-anchor="middle" x="636.5" y="-678" font-family="Helvetica,sans-Serif" font-size="10.00">itk::TimeStamp</text>
</a>
</g>
</g>
<!-- Node19&#45;&gt;Node8 -->
<g id="edge33" class="edge">
<title>Node19&#45;&gt;Node8</title>
<path fill="none" stroke="#9a32cd" stroke-dasharray="5,2" d="M669.85,-666.09C677.67,-661.28 685.02,-655.01 689.5,-647 691.89,-642.73 690.18,-640.84 689.5,-636 686.36,-613.57 684.38,-607.84 675.5,-587 666.11,-564.96 650.92,-541.18 642.54,-528.73"/>
<polygon fill="#9a32cd" stroke="#9a32cd" points="668.08,-663.07 660.95,-670.91 671.41,-669.22 668.08,-663.07"/>
<text text-anchor="middle" x="757.5" y="-600" font-family="Helvetica,sans-Serif" font-size="10.00"> m_OutputInformationMTime</text>
</g>
<!-- Node19&#45;&gt;Node9 -->
<g id="edge18" class="edge">
<title>Node19&#45;&gt;Node9</title>
<path fill="none" stroke="#9a32cd" stroke-dasharray="5,2" d="M635.76,-660.72C635.15,-645.2 634.3,-623.86 633.84,-612.12"/>
<polygon fill="#9a32cd" stroke="#9a32cd" points="632.26,-660.93 636.16,-670.78 639.26,-660.65 632.26,-660.93"/>
<text text-anchor="middle" x="661.5" y="-639" font-family="Helvetica,sans-Serif" font-size="10.00"> m_MTime</text>
</g>
<!-- Node20&#45;&gt;Node19 -->
<g id="edge19" class="edge">
<title>Node20&#45;&gt;Node19</title>
<path fill="none" stroke="#9a32cd" stroke-dasharray="5,2" d="M613.92,-782.24C615.52,-770.84 617.8,-756.02 620.5,-743 624.44,-723.99 630.52,-702.05 633.94,-690.19"/>
<polygon fill="#9a32cd" stroke="#9a32cd" points="610.43,-781.93 612.57,-792.3 617.37,-782.86 610.43,-781.93"/>
<text text-anchor="middle" x="673.5" y="-756" font-family="Helvetica,sans-Serif" font-size="10.00"> m_GlobalTimeStamp</text>
</g>
<!-- Node21&#45;&gt;Node8 -->
<g id="edge21" class="edge">
<title>Node21&#45;&gt;Node8</title>
<path fill="none" stroke="#9a32cd" stroke-dasharray="5,2" d="M499.29,-576.73C500.1,-566.29 502.94,-554.79 510.5,-547 520.86,-536.33 554.47,-529.45 584.37,-525.32"/>
<polygon fill="#9a32cd" stroke="#9a32cd" points="495.79,-576.94 499.07,-587.02 502.78,-577.1 495.79,-576.94"/>
<text text-anchor="middle" x="571" y="-555.5" font-family="Helvetica,sans-Serif" font-size="10.00"> m_RequiredInputNames</text>
</g>
<!-- Node22&#45;&gt;Node8 -->
<g id="edge23" class="edge">
<title>Node22&#45;&gt;Node8</title>
<path fill="none" stroke="#9a32cd" stroke-dasharray="5,2" d="M326.87,-578.13C333.17,-566.78 342.36,-554.09 354.5,-547 392.3,-524.92 513.87,-520.49 584.44,-519.84"/>
<polygon fill="#9a32cd" stroke="#9a32cd" points="323.67,-576.7 322.25,-587.2 329.91,-579.88 323.67,-576.7"/>
<text text-anchor="start" x="354.5" y="-561" font-family="Helvetica,sans-Serif" font-size="10.00"> m_CachedInputReleaseData</text>
<text text-anchor="middle" x="425.5" y="-550" font-family="Helvetica,sans-Serif" font-size="10.00">Flags</text>
</g>
<!-- Node23 -->
<g id="node23" class="node">
<title>Node23</title>
<g id="a_node23"><a xlink:title=" ">
<polygon fill="white" stroke="#bfbfbf" points="1023.5,-593 1023.5,-612 1157.5,-612 1157.5,-593 1023.5,-593"/>
<text text-anchor="middle" x="1090.5" y="-600" font-family="Helvetica,sans-Serif" font-size="10.00">std::atomic&lt; uint32_t &gt;</text>
</a>
</g>
</g>
<!-- Node23&#45;&gt;Node8 -->
<g id="edge25" class="edge">
<title>Node23&#45;&gt;Node8</title>
<path fill="none" stroke="#9a32cd" stroke-dasharray="5,2" d="M1056.88,-589.53C1019.82,-576.84 958.18,-557.25 903.5,-547 813.17,-530.06 788.78,-539.71 697.5,-529 694.63,-528.66 691.69,-528.3 688.72,-527.91"/>
<polygon fill="#9a32cd" stroke="#9a32cd" points="1056.07,-592.95 1066.66,-592.91 1058.35,-586.33 1056.07,-592.95"/>
<text text-anchor="middle" x="1021" y="-555.5" font-family="Helvetica,sans-Serif" font-size="10.00"> m_Progress</text>
</g>
<!-- Node24 -->
<g id="node24" class="node">
<title>Node24</title>
<g id="a_node24"><a xlink:title=" ">
<polygon fill="white" stroke="#bfbfbf" points="1062.5,-671 1062.5,-690 1118.5,-690 1118.5,-671 1062.5,-671"/>
<text text-anchor="middle" x="1090.5" y="-678" font-family="Helvetica,sans-Serif" font-size="10.00">uint32_t</text>
</a>
</g>
</g>
<!-- Node24&#45;&gt;Node23 -->
<g id="edge26" class="edge">
<title>Node24&#45;&gt;Node23</title>
<path fill="none" stroke="#9a32cd" stroke-dasharray="5,2" d="M1090.5,-660.72C1090.5,-645.2 1090.5,-623.86 1090.5,-612.12"/>
<polygon fill="#9a32cd" stroke="#9a32cd" points="1087,-660.78 1090.5,-670.78 1094,-660.78 1087,-660.78"/>
<text text-anchor="middle" x="1099" y="-639" font-family="Helvetica,sans-Serif" font-size="10.00"> ptr</text>
</g>
<!-- Node25 -->
<g id="node25" class="node">
<title>Node25</title>
<g id="a_node25"><a xlink:title=" ">
<polygon fill="white" stroke="#bfbfbf" points="1176,-587.5 1176,-617.5 1345,-617.5 1345,-587.5 1176,-587.5"/>
<text text-anchor="start" x="1184" y="-605.5" font-family="Helvetica,sans-Serif" font-size="10.00">std::vector&lt; DataObjectPointer</text>
<text text-anchor="middle" x="1260.5" y="-594.5" font-family="Helvetica,sans-Serif" font-size="10.00">Map::iterator &gt;</text>
</a>
</g>
</g>
<!-- Node25&#45;&gt;Node8 -->
<g id="edge27" class="edge">
<title>Node25&#45;&gt;Node8</title>
<path fill="none" stroke="#9a32cd" stroke-dasharray="5,2" d="M1208.48,-584.43C1167.43,-571.75 1108.44,-555.27 1055.5,-547 898.1,-522.4 856.04,-544.64 697.5,-529 694.62,-528.72 691.68,-528.39 688.7,-528.04"/>
<polygon fill="#9a32cd" stroke="#9a32cd" points="1207.67,-587.84 1218.26,-587.48 1209.76,-581.16 1207.67,-587.84"/>
<text text-anchor="middle" x="1199" y="-561" font-family="Helvetica,sans-Serif" font-size="10.00"> m_IndexedOutputs</text>
<text text-anchor="middle" x="1199" y="-550" font-family="Helvetica,sans-Serif" font-size="10.00">m_IndexedInputs</text>
</g>
<!-- Node26 -->
<g id="node26" class="node">
<title>Node26</title>
<g id="a_node26"><a xlink:title="STL iterator class.">
<polygon fill="white" stroke="#bfbfbf" points="1189,-671 1189,-690 1332,-690 1332,-671 1189,-671"/>
<text text-anchor="middle" x="1260.5" y="-678" font-family="Helvetica,sans-Serif" font-size="10.00">std::map&lt; K, T &gt;::iterator</text>
</a>
</g>
</g>
<!-- Node26&#45;&gt;Node25 -->
<g id="edge28" class="edge">
<title>Node26&#45;&gt;Node25</title>
<path fill="none" stroke="#9a32cd" stroke-dasharray="5,2" d="M1260.5,-660.78C1260.5,-647.4 1260.5,-629.69 1260.5,-617.52"/>
<polygon fill="#9a32cd" stroke="#9a32cd" points="1257,-660.78 1260.5,-670.78 1264,-660.78 1257,-660.78"/>
<text text-anchor="middle" x="1285" y="-639" font-family="Helvetica,sans-Serif" font-size="10.00"> elements</text>
</g>
<!-- Node27&#45;&gt;Node8 -->
<g id="edge29" class="edge">
<title>Node27&#45;&gt;Node8</title>
<path fill="none" stroke="#9a32cd" stroke-dasharray="5,2" d="M168.34,-583.17C196.58,-570.72 236.08,-555.11 272.5,-547 381.52,-522.73 512.96,-519.08 584.27,-519.16"/>
<polygon fill="#9a32cd" stroke="#9a32cd" points="166.55,-580.14 158.85,-587.42 169.41,-586.53 166.55,-580.14"/>
<text text-anchor="middle" x="301" y="-561" font-family="Helvetica,sans-Serif" font-size="10.00"> m_Outputs</text>
<text text-anchor="middle" x="301" y="-550" font-family="Helvetica,sans-Serif" font-size="10.00">m_Inputs</text>
</g>
<!-- Node28 -->
<g id="node28" class="node">
<title>Node28</title>
<g id="a_node28"><a xlink:href="classitk_1_1SmartPointer.html" target="_top" xlink:title=" ">
<polygon fill="white" stroke="black" points="0,-665.5 0,-695.5 107,-695.5 107,-665.5 0,-665.5"/>
<text text-anchor="start" x="8" y="-683.5" font-family="Helvetica,sans-Serif" font-size="10.00">itk::SmartPointer&lt;</text>
<text text-anchor="middle" x="53.5" y="-672.5" font-family="Helvetica,sans-Serif" font-size="10.00"> Self &gt;</text>
</a>
</g>
</g>
<!-- Node28&#45;&gt;Node4 -->
<g id="edge36" class="edge">
<title>Node28&#45;&gt;Node4</title>
<path fill="none" stroke="#9a32cd" stroke-dasharray="5,2" d="M36.45,-657.01C27.14,-642.52 17.5,-622.84 17.5,-603.5 17.5,-603.5 17.5,-603.5 17.5,-319.5 17.5,-293.86 40.87,-277.52 64.78,-267.52"/>
<polygon fill="#9a32cd" stroke="#9a32cd" points="33.58,-659.02 42.11,-665.31 39.37,-655.07 33.58,-659.02"/>
<text text-anchor="middle" x="72.5" y="-454" font-family="Helvetica,sans-Serif" font-size="10.00"> m_DifferenceFunction</text>
</g>
<!-- Node28&#45;&gt;Node27 -->
<g id="edge30" class="edge">
<title>Node28&#45;&gt;Node27</title>
<path fill="none" stroke="#9a32cd" stroke-dasharray="5,2" d="M74.97,-658.03C87.87,-645.13 103.93,-629.07 115.27,-617.73"/>
<polygon fill="#9a32cd" stroke="#9a32cd" points="72.39,-655.66 67.8,-665.2 77.34,-660.61 72.39,-655.66"/>
<text text-anchor="middle" x="121" y="-639" font-family="Helvetica,sans-Serif" font-size="10.00"> elements</text>
</g>
<!-- Node29 -->
<g id="node29" class="node">
<title>Node29</title>
<g id="a_node29"><a xlink:href="classitk_1_1SmartPointer.html" target="_top" xlink:title=" ">
<polygon fill="white" stroke="black" points="863.5,-587.5 863.5,-617.5 1005.5,-617.5 1005.5,-587.5 863.5,-587.5"/>
<text text-anchor="start" x="871.5" y="-605.5" font-family="Helvetica,sans-Serif" font-size="10.00">itk::SmartPointer&lt;</text>
<text text-anchor="middle" x="934.5" y="-594.5" font-family="Helvetica,sans-Serif" font-size="10.00"> itk::MultiThreaderBase &gt;</text>
</a>
</g>
</g>
<!-- Node29&#45;&gt;Node8 -->
<g id="edge32" class="edge">
<title>Node29&#45;&gt;Node8</title>
<path fill="none" stroke="#9a32cd" stroke-dasharray="5,2" d="M873.54,-584.83C811.12,-567.76 716.54,-541.89 667.88,-528.58"/>
<polygon fill="#9a32cd" stroke="#9a32cd" points="872.7,-588.23 883.27,-587.49 874.55,-581.48 872.7,-588.23"/>
<text text-anchor="middle" x="856" y="-555.5" font-family="Helvetica,sans-Serif" font-size="10.00"> m_MultiThreader</text>
</g>
<!-- Node30 -->
<g id="node30" class="node">
<title>Node30</title>
<g id="a_node30"><a xlink:href="structitk_1_1ImageSourceCommon.html" target="_top" xlink:title="Secondary base class of ImageSource common between templates.">
<polygon fill="white" stroke="black" points="707,-509.5 707,-528.5 850,-528.5 850,-509.5 707,-509.5"/>
<text text-anchor="middle" x="778.5" y="-516.5" font-family="Helvetica,sans-Serif" font-size="10.00">itk::ImageSourceCommon</text>
</a>
</g>
</g>
<!-- Node30&#45;&gt;Node7 -->
<g id="edge34" class="edge">
<title>Node30&#45;&gt;Node7</title>
<path fill="none" stroke="#8b1a1a" d="M749.14,-505.49C725.97,-495.62 693.65,-481.85 669.57,-471.59"/>
<polygon fill="#8b1a1a" stroke="#8b1a1a" points="747.88,-508.76 758.46,-509.46 750.63,-502.32 747.88,-508.76"/>
</g>
<!-- Node31 -->
<g id="node31" class="node">
<title>Node31</title>
<g id="a_node31"><a xlink:href="classitk_1_1ImageToImageFilterCommon.html" target="_top" xlink:title="Secondary base class of ImageToImageFilter common between templates.">
<polygon fill="white" stroke="black" points="725.5,-447 725.5,-466 901.5,-466 901.5,-447 725.5,-447"/>
<text text-anchor="middle" x="813.5" y="-454" font-family="Helvetica,sans-Serif" font-size="10.00">itk::ImageToImageFilterCommon</text>
</a>
</g>
</g>
<!-- Node31&#45;&gt;Node6 -->
<g id="edge35" class="edge">
<title>Node31&#45;&gt;Node6</title>
<path fill="none" stroke="#8b1a1a" d="M780.73,-443.28C750.56,-432.03 705.83,-415.35 674.2,-403.56"/>
<polygon fill="#8b1a1a" stroke="#8b1a1a" points="779.77,-446.66 790.36,-446.87 782.21,-440.1 779.77,-446.66"/>
</g>
</g>
</svg>
