<?xml version="1.0" encoding="UTF-8" standalone="no"?>
<!DOCTYPE svg PUBLIC "-//W3C//DTD SVG 1.1//EN"
 "http://www.w3.org/Graphics/SVG/1.1/DTD/svg11.dtd">
<!-- Generated by graphviz version 2.43.0 (0)
 -->
<!-- Title: itk::GPUBinaryThresholdImageFilter&lt; TInputImage, TOutputImage &gt; Pages: 1 -->
<svg width="2433pt" height="97pt"
 viewBox="0.00 0.00 2433.00 96.50" xmlns="http://www.w3.org/2000/svg" xmlns:xlink="http://www.w3.org/1999/xlink">
<g id="graph0" class="graph" transform="scale(1 1) rotate(0) translate(4 92.5)">
<title>itk::GPUBinaryThresholdImageFilter&lt; TInputImage, TOutputImage &gt;</title>
<polygon fill="white" stroke="transparent" points="-4,4 -4,-92.5 2429,-92.5 2429,4 -4,4"/>
<!-- Node1 -->
<g id="node1" class="node">
<title>Node1</title>
<g id="a_node1"><a xlink:title="GPU version of binary threshold image filter.">
<polygon fill="#bfbfbf" stroke="black" points="2224,-22.5 2224,-52.5 2425,-52.5 2425,-22.5 2224,-22.5"/>
<text text-anchor="start" x="2232" y="-40.5" font-family="Helvetica,sans-Serif" font-size="10.00">itk::GPUBinaryThresholdImage</text>
<text text-anchor="middle" x="2324.5" y="-29.5" font-family="Helvetica,sans-Serif" font-size="10.00">Filter&lt; TInputImage, TOutputImage &gt;</text>
</a>
</g>
</g>
<!-- Node2 -->
<g id="node2" class="node">
<title>Node2</title>
<g id="a_node2"><a xlink:href="classitk_1_1GPUUnaryFunctorImageFilter.html" target="_top" xlink:title=" ">
<polygon fill="white" stroke="black" points="1967,-0.5 1967,-74.5 2188,-74.5 2188,-0.5 1967,-0.5"/>
<text text-anchor="start" x="1975" y="-62.5" font-family="Helvetica,sans-Serif" font-size="10.00">itk::GPUUnaryFunctorImage</text>
<text text-anchor="start" x="1975" y="-51.5" font-family="Helvetica,sans-Serif" font-size="10.00">Filter&lt; TInputImage, TOutputImage,</text>
<text text-anchor="start" x="1975" y="-40.5" font-family="Helvetica,sans-Serif" font-size="10.00"> Functor::GPUBinaryThreshold</text>
<text text-anchor="start" x="1975" y="-29.5" font-family="Helvetica,sans-Serif" font-size="10.00">&lt; TInputImage::PixelType, TOutputImage</text>
<text text-anchor="start" x="1975" y="-18.5" font-family="Helvetica,sans-Serif" font-size="10.00">::PixelType &gt;, BinaryThresholdImageFilter</text>
<text text-anchor="middle" x="2077.5" y="-7.5" font-family="Helvetica,sans-Serif" font-size="10.00">&lt; TInputImage, TOutputImage &gt; &gt;</text>
</a>
</g>
</g>
<!-- Node2&#45;&gt;Node1 -->
<g id="edge1" class="edge">
<title>Node2&#45;&gt;Node1</title>
<path fill="none" stroke="midnightblue" d="M2198.13,-37.5C2206.68,-37.5 2215.26,-37.5 2223.69,-37.5"/>
<polygon fill="midnightblue" stroke="midnightblue" points="2198.1,-34 2188.1,-37.5 2198.1,-41 2198.1,-34"/>
</g>
<!-- Node3 -->
<g id="node3" class="node">
<title>Node3</title>
<g id="a_node3"><a xlink:href="classitk_1_1GPUInPlaceImageFilter.html" target="_top" xlink:title=" ">
<polygon fill="white" stroke="black" points="1743,-11.5 1743,-63.5 1931,-63.5 1931,-11.5 1743,-11.5"/>
<text text-anchor="start" x="1751" y="-51.5" font-family="Helvetica,sans-Serif" font-size="10.00">itk::GPUInPlaceImageFilter</text>
<text text-anchor="start" x="1751" y="-40.5" font-family="Helvetica,sans-Serif" font-size="10.00">&lt; TInputImage, TOutputImage,</text>
<text text-anchor="start" x="1751" y="-29.5" font-family="Helvetica,sans-Serif" font-size="10.00"> BinaryThresholdImageFilter</text>
<text text-anchor="middle" x="1837" y="-18.5" font-family="Helvetica,sans-Serif" font-size="10.00">&lt; TInputImage, TOutputImage &gt; &gt;</text>
</a>
</g>
</g>
<!-- Node3&#45;&gt;Node2 -->
<g id="edge2" class="edge">
<title>Node3&#45;&gt;Node2</title>
<path fill="none" stroke="midnightblue" d="M1941.39,-37.5C1949.78,-37.5 1958.26,-37.5 1966.69,-37.5"/>
<polygon fill="midnightblue" stroke="midnightblue" points="1941.24,-34 1931.24,-37.5 1941.23,-41 1941.24,-34"/>
</g>
<!-- Node4 -->
<g id="node4" class="node">
<title>Node4</title>
<g id="a_node4"><a xlink:href="classitk_1_1GPUImageToImageFilter.html" target="_top" xlink:title=" ">
<polygon fill="white" stroke="black" points="1519,-11.5 1519,-63.5 1707,-63.5 1707,-11.5 1519,-11.5"/>
<text text-anchor="start" x="1527" y="-51.5" font-family="Helvetica,sans-Serif" font-size="10.00">itk::GPUImageToImageFilter</text>
<text text-anchor="start" x="1527" y="-40.5" font-family="Helvetica,sans-Serif" font-size="10.00">&lt; TInputImage, TOutputImage,</text>
<text text-anchor="start" x="1527" y="-29.5" font-family="Helvetica,sans-Serif" font-size="10.00"> BinaryThresholdImageFilter</text>
<text text-anchor="middle" x="1613" y="-18.5" font-family="Helvetica,sans-Serif" font-size="10.00">&lt; TInputImage, TOutputImage &gt; &gt;</text>
</a>
</g>
</g>
<!-- Node4&#45;&gt;Node3 -->
<g id="edge3" class="edge">
<title>Node4&#45;&gt;Node3</title>
<path fill="none" stroke="midnightblue" d="M1717.43,-37.5C1725.86,-37.5 1734.35,-37.5 1742.7,-37.5"/>
<polygon fill="midnightblue" stroke="midnightblue" points="1717.18,-34 1707.18,-37.5 1717.18,-41 1717.18,-34"/>
</g>
<!-- Node5 -->
<g id="node5" class="node">
<title>Node5</title>
<g id="a_node5"><a xlink:href="classitk_1_1BinaryThresholdImageFilter.html" target="_top" xlink:title="Binarize an input image by thresholding.">
<polygon fill="white" stroke="black" points="1282,-22.5 1282,-52.5 1483,-52.5 1483,-22.5 1282,-22.5"/>
<text text-anchor="start" x="1290" y="-40.5" font-family="Helvetica,sans-Serif" font-size="10.00">itk::BinaryThresholdImage</text>
<text text-anchor="middle" x="1382.5" y="-29.5" font-family="Helvetica,sans-Serif" font-size="10.00">Filter&lt; TInputImage, TOutputImage &gt;</text>
</a>
</g>
</g>
<!-- Node5&#45;&gt;Node4 -->
<g id="edge4" class="edge">
<title>Node5&#45;&gt;Node4</title>
<path fill="none" stroke="midnightblue" d="M1493.14,-37.5C1501.76,-37.5 1510.41,-37.5 1518.9,-37.5"/>
<polygon fill="midnightblue" stroke="midnightblue" points="1493.06,-34 1483.06,-37.5 1493.06,-41 1493.06,-34"/>
</g>
<!-- Node6 -->
<g id="node6" class="node">
<title>Node6</title>
<g id="a_node6"><a xlink:href="classitk_1_1UnaryFunctorImageFilter.html" target="_top" xlink:title=" ">
<polygon fill="white" stroke="black" points="1037,-6 1037,-69 1246,-69 1246,-6 1037,-6"/>
<text text-anchor="start" x="1045" y="-57" font-family="Helvetica,sans-Serif" font-size="10.00">itk::UnaryFunctorImageFilter</text>
<text text-anchor="start" x="1045" y="-46" font-family="Helvetica,sans-Serif" font-size="10.00">&lt; TInputImage, TOutputImage,</text>
<text text-anchor="start" x="1045" y="-35" font-family="Helvetica,sans-Serif" font-size="10.00"> Functor::BinaryThreshold&lt;</text>
<text text-anchor="start" x="1045" y="-24" font-family="Helvetica,sans-Serif" font-size="10.00"> TInputImage::PixelType, TOutputImage</text>
<text text-anchor="middle" x="1141.5" y="-13" font-family="Helvetica,sans-Serif" font-size="10.00">::PixelType &gt; &gt;</text>
</a>
</g>
</g>
<!-- Node6&#45;&gt;Node5 -->
<g id="edge5" class="edge">
<title>Node6&#45;&gt;Node5</title>
<path fill="none" stroke="midnightblue" d="M1256.32,-37.5C1264.89,-37.5 1273.49,-37.5 1281.96,-37.5"/>
<polygon fill="midnightblue" stroke="midnightblue" points="1256.29,-34 1246.29,-37.5 1256.29,-41 1256.29,-34"/>
</g>
<!-- Node7 -->
<g id="node7" class="node">
<title>Node7</title>
<g id="a_node7"><a xlink:href="classitk_1_1InPlaceImageFilter.html" target="_top" xlink:title="Base class for filters that take an image as input and overwrite that image as the output.">
<polygon fill="white" stroke="black" points="825,-22.5 825,-52.5 1001,-52.5 1001,-22.5 825,-22.5"/>
<text text-anchor="start" x="833" y="-40.5" font-family="Helvetica,sans-Serif" font-size="10.00">itk::InPlaceImageFilter</text>
<text text-anchor="middle" x="913" y="-29.5" font-family="Helvetica,sans-Serif" font-size="10.00">&lt; TInputImage, TOutputImage &gt;</text>
</a>
</g>
</g>
<!-- Node7&#45;&gt;Node6 -->
<g id="edge6" class="edge">
<title>Node7&#45;&gt;Node6</title>
<path fill="none" stroke="midnightblue" d="M1011.38,-37.5C1019.75,-37.5 1028.23,-37.5 1036.65,-37.5"/>
<polygon fill="midnightblue" stroke="midnightblue" points="1011.25,-34 1001.25,-37.5 1011.25,-41 1011.25,-34"/>
</g>
<!-- Node8 -->
<g id="node8" class="node">
<title>Node8</title>
<g id="a_node8"><a xlink:href="classitk_1_1ImageToImageFilter.html" target="_top" xlink:title=" ">
<polygon fill="white" stroke="black" points="621,-22.5 621,-52.5 789,-52.5 789,-22.5 621,-22.5"/>
<text text-anchor="start" x="629" y="-40.5" font-family="Helvetica,sans-Serif" font-size="10.00">itk::ImageToImageFilter</text>
<text text-anchor="middle" x="705" y="-29.5" font-family="Helvetica,sans-Serif" font-size="10.00">&lt; TInputImage, TInputImage &gt;</text>
</a>
</g>
</g>
<!-- Node8&#45;&gt;Node7 -->
<g id="edge7" class="edge">
<title>Node8&#45;&gt;Node7</title>
<path fill="none" stroke="midnightblue" d="M799.44,-37.5C807.88,-37.5 816.41,-37.5 824.8,-37.5"/>
<polygon fill="midnightblue" stroke="midnightblue" points="799.19,-34 789.19,-37.5 799.19,-41 799.19,-34"/>
</g>
<!-- Node9 -->
<g id="node9" class="node">
<title>Node9</title>
<g id="a_node9"><a xlink:href="classitk_1_1ImageSource.html" target="_top" xlink:title=" ">
<polygon fill="white" stroke="black" points="426.5,-44.5 426.5,-74.5 567.5,-74.5 567.5,-44.5 426.5,-44.5"/>
<text text-anchor="start" x="434.5" y="-62.5" font-family="Helvetica,sans-Serif" font-size="10.00">itk::ImageSource&lt; TInput</text>
<text text-anchor="middle" x="497" y="-51.5" font-family="Helvetica,sans-Serif" font-size="10.00">Image &gt;</text>
</a>
</g>
</g>
<!-- Node9&#45;&gt;Node8 -->
<g id="edge8" class="edge">
<title>Node9&#45;&gt;Node8</title>
<path fill="none" stroke="midnightblue" d="M577.87,-50.97C591.94,-49.47 606.62,-47.9 620.79,-46.39"/>
<polygon fill="midnightblue" stroke="midnightblue" points="577.31,-47.51 567.74,-52.05 578.06,-54.47 577.31,-47.51"/>
</g>
<!-- Node10 -->
<g id="node10" class="node">
<title>Node10</title>
<g id="a_node10"><a xlink:href="classitk_1_1ProcessObject.html" target="_top" xlink:title="The base class for all process objects (source, filters, mappers) in the Insight data processing pipe...">
<polygon fill="white" stroke="black" points="249.5,-69 249.5,-88 353.5,-88 353.5,-69 249.5,-69"/>
<text text-anchor="middle" x="301.5" y="-76" font-family="Helvetica,sans-Serif" font-size="10.00">itk::ProcessObject</text>
</a>
</g>
</g>
<!-- Node10&#45;&gt;Node9 -->
<g id="edge9" class="edge">
<title>Node10&#45;&gt;Node9</title>
<path fill="none" stroke="midnightblue" d="M363.77,-72.48C383.68,-70.53 405.92,-68.35 426.39,-66.34"/>
<polygon fill="midnightblue" stroke="midnightblue" points="363.2,-69.02 353.59,-73.48 363.89,-75.99 363.2,-69.02"/>
</g>
<!-- Node11 -->
<g id="node11" class="node">
<title>Node11</title>
<g id="a_node11"><a xlink:href="classitk_1_1Object.html" target="_top" xlink:title="Base class for most ITK classes.">
<polygon fill="white" stroke="black" points="127,-69 127,-88 194,-88 194,-69 127,-69"/>
<text text-anchor="middle" x="160.5" y="-76" font-family="Helvetica,sans-Serif" font-size="10.00">itk::Object</text>
</a>
</g>
</g>
<!-- Node11&#45;&gt;Node10 -->
<g id="edge10" class="edge">
<title>Node11&#45;&gt;Node10</title>
<path fill="none" stroke="midnightblue" d="M204.13,-78.5C218.41,-78.5 234.48,-78.5 249.35,-78.5"/>
<polygon fill="midnightblue" stroke="midnightblue" points="204.09,-75 194.09,-78.5 204.09,-82 204.09,-75"/>
</g>
<!-- Node12 -->
<g id="node12" class="node">
<title>Node12</title>
<g id="a_node12"><a xlink:href="classitk_1_1LightObject.html" target="_top" xlink:title="Light weight base class for most itk classes.">
<polygon fill="white" stroke="black" points="0,-69 0,-88 91,-88 91,-69 0,-69"/>
<text text-anchor="middle" x="45.5" y="-76" font-family="Helvetica,sans-Serif" font-size="10.00">itk::LightObject</text>
</a>
</g>
</g>
<!-- Node12&#45;&gt;Node11 -->
<g id="edge11" class="edge">
<title>Node12&#45;&gt;Node11</title>
<path fill="none" stroke="midnightblue" d="M101.28,-78.5C109.96,-78.5 118.69,-78.5 126.66,-78.5"/>
<polygon fill="midnightblue" stroke="midnightblue" points="101.16,-75 91.16,-78.5 101.16,-82 101.16,-75"/>
</g>
<!-- Node13 -->
<g id="node13" class="node">
<title>Node13</title>
<g id="a_node13"><a xlink:href="structitk_1_1ImageSourceCommon.html" target="_top" xlink:title="Secondary base class of ImageSource common between templates.">
<polygon fill="white" stroke="black" points="230,-31 230,-50 373,-50 373,-31 230,-31"/>
<text text-anchor="middle" x="301.5" y="-38" font-family="Helvetica,sans-Serif" font-size="10.00">itk::ImageSourceCommon</text>
</a>
</g>
</g>
<!-- Node13&#45;&gt;Node9 -->
<g id="edge12" class="edge">
<title>Node13&#45;&gt;Node9</title>
<path fill="none" stroke="#8b1a1a" d="M383.48,-48.45C397.78,-49.86 412.54,-51.3 426.48,-52.67"/>
<polygon fill="#8b1a1a" stroke="#8b1a1a" points="383.47,-44.93 373.18,-47.44 382.79,-51.9 383.47,-44.93"/>
</g>
<!-- Node14 -->
<g id="node14" class="node">
<title>Node14</title>
<g id="a_node14"><a xlink:href="classitk_1_1ImageToImageFilterCommon.html" target="_top" xlink:title="Secondary base class of ImageToImageFilter common between templates.">
<polygon fill="white" stroke="black" points="409,-6 409,-25 585,-25 585,-6 409,-6"/>
<text text-anchor="middle" x="497" y="-13" font-family="Helvetica,sans-Serif" font-size="10.00">itk::ImageToImageFilterCommon</text>
</a>
</g>
</g>
<!-- Node14&#45;&gt;Node8 -->
<g id="edge13" class="edge">
<title>Node14&#45;&gt;Node8</title>
<path fill="none" stroke="#8b1a1a" d="M595.12,-25.87C603.73,-26.79 612.39,-27.72 620.86,-28.62"/>
<polygon fill="#8b1a1a" stroke="#8b1a1a" points="595.38,-22.38 585.06,-24.8 594.64,-29.34 595.38,-22.38"/>
</g>
</g>
</svg>
