<?xml version="1.0" encoding="UTF-8" standalone="no"?>
<!DOCTYPE svg PUBLIC "-//W3C//DTD SVG 1.1//EN"
 "http://www.w3.org/Graphics/SVG/1.1/DTD/svg11.dtd">
<!-- Generated by graphviz version 2.43.0 (0)
 -->
<!-- Title: itk::CovariantVector&lt; T, VVectorDimension &gt; Pages: 1 -->
<svg width="161pt" height="163pt"
 viewBox="0.00 0.00 160.50 163.00" xmlns="http://www.w3.org/2000/svg" xmlns:xlink="http://www.w3.org/1999/xlink">
<g id="graph0" class="graph" transform="scale(1 1) rotate(0) translate(4 159)">
<title>itk::CovariantVector&lt; T, VVectorDimension &gt;</title>
<polygon fill="white" stroke="transparent" points="-4,4 -4,-159 156.5,-159 156.5,4 -4,4"/>
<!-- Node1 -->
<g id="node1" class="node">
<title>Node1</title>
<g id="a_node1"><a xlink:title="A templated class holding a n&#45;Dimensional covariant vector.">
<polygon fill="#bfbfbf" stroke="black" points="0,-0.5 0,-30.5 141,-30.5 141,-0.5 0,-0.5"/>
<text text-anchor="start" x="8" y="-18.5" font-family="Helvetica,sans-Serif" font-size="10.00">itk::CovariantVector</text>
<text text-anchor="middle" x="70.5" y="-7.5" font-family="Helvetica,sans-Serif" font-size="10.00">&lt; T, VVectorDimension &gt;</text>
</a>
</g>
</g>
<!-- Node2 -->
<g id="node2" class="node">
<title>Node2</title>
<g id="a_node2"><a xlink:href="classitk_1_1FixedArray.html" target="_top" xlink:title=" ">
<polygon fill="white" stroke="black" points="6.5,-68.5 6.5,-87.5 134.5,-87.5 134.5,-68.5 6.5,-68.5"/>
<text text-anchor="middle" x="70.5" y="-75.5" font-family="Helvetica,sans-Serif" font-size="10.00">itk::FixedArray&lt; T, 3 &gt;</text>
</a>
</g>
</g>
<!-- Node2&#45;&gt;Node1 -->
<g id="edge1" class="edge">
<title>Node2&#45;&gt;Node1</title>
<path fill="none" stroke="midnightblue" d="M70.5,-58.22C70.5,-49.36 70.5,-38.96 70.5,-30.76"/>
<polygon fill="midnightblue" stroke="midnightblue" points="67,-58.33 70.5,-68.33 74,-58.33 67,-58.33"/>
</g>
<!-- Node3 -->
<g id="node3" class="node">
<title>Node3</title>
<g id="a_node3"><a xlink:title=" ">
<polygon fill="white" stroke="#bfbfbf" points="42.5,-135.5 42.5,-154.5 98.5,-154.5 98.5,-135.5 42.5,-135.5"/>
<text text-anchor="middle" x="70.5" y="-142.5" font-family="Helvetica,sans-Serif" font-size="10.00">VLength</text>
</a>
</g>
</g>
<!-- Node3&#45;&gt;Node2 -->
<g id="edge2" class="edge">
<title>Node3&#45;&gt;Node2</title>
<path fill="none" stroke="#9a32cd" stroke-dasharray="5,2" d="M70.5,-125.04C70.5,-112.67 70.5,-97.12 70.5,-87.63"/>
<polygon fill="#9a32cd" stroke="#9a32cd" points="67,-125.23 70.5,-135.23 74,-125.23 67,-125.23"/>
<text text-anchor="middle" x="111.5" y="-109" font-family="Helvetica,sans-Serif" font-size="10.00"> m_InternalArray</text>
</g>
</g>
</svg>
