<?xml version="1.0" encoding="UTF-8" standalone="no"?>
<!DOCTYPE svg PUBLIC "-//W3C//DTD SVG 1.1//EN"
 "http://www.w3.org/Graphics/SVG/1.1/DTD/svg11.dtd">
<!-- Generated by graphviz version 2.43.0 (0)
 -->
<!-- Title: itk::ManifoldParzenWindowsPointSetFunction&lt; TPointSet, TOutput, TCoordRep &gt; Pages: 1 -->
<svg width="1652pt" height="245pt"
 viewBox="0.00 0.00 1652.00 244.50" xmlns="http://www.w3.org/2000/svg" xmlns:xlink="http://www.w3.org/1999/xlink">
<g id="graph0" class="graph" transform="scale(1 1) rotate(0) translate(4 240.5)">
<title>itk::ManifoldParzenWindowsPointSetFunction&lt; TPointSet, TOutput, TCoordRep &gt;</title>
<polygon fill="white" stroke="transparent" points="-4,4 -4,-240.5 1648,-240.5 1648,4 -4,4"/>
<!-- Node1 -->
<g id="node1" class="node">
<title>Node1</title>
<g id="a_node1"><a xlink:title="Point set function based on n&#45;dimensional parzen windowing.">
<polygon fill="#bfbfbf" stroke="black" points="1485,-66 1485,-107 1644,-107 1644,-66 1485,-66"/>
<text text-anchor="start" x="1493" y="-95" font-family="Helvetica,sans-Serif" font-size="10.00">itk::ManifoldParzenWindows</text>
<text text-anchor="start" x="1493" y="-84" font-family="Helvetica,sans-Serif" font-size="10.00">PointSetFunction&lt; TPointSet,</text>
<text text-anchor="middle" x="1564.5" y="-73" font-family="Helvetica,sans-Serif" font-size="10.00"> TOutput, TCoordRep &gt;</text>
</a>
</g>
</g>
<!-- Node2 -->
<g id="node2" class="node">
<title>Node2</title>
<g id="a_node2"><a xlink:href="classitk_1_1PointSetFunction.html" target="_top" xlink:title=" ">
<polygon fill="white" stroke="black" points="1218.5,-137 1218.5,-178 1335.5,-178 1335.5,-137 1218.5,-137"/>
<text text-anchor="start" x="1226.5" y="-166" font-family="Helvetica,sans-Serif" font-size="10.00">itk::PointSetFunction</text>
<text text-anchor="start" x="1226.5" y="-155" font-family="Helvetica,sans-Serif" font-size="10.00">&lt; TPointSet, double,</text>
<text text-anchor="middle" x="1277" y="-144" font-family="Helvetica,sans-Serif" font-size="10.00"> double &gt;</text>
</a>
</g>
</g>
<!-- Node2&#45;&gt;Node1 -->
<g id="edge1" class="edge">
<title>Node2&#45;&gt;Node1</title>
<path fill="none" stroke="midnightblue" d="M1345.69,-143.71C1381.85,-136.03 1427.02,-125.94 1467,-115.5 1476.9,-112.92 1487.32,-110 1497.5,-107.03"/>
<polygon fill="midnightblue" stroke="midnightblue" points="1344.81,-140.32 1335.75,-145.81 1346.25,-147.17 1344.81,-140.32"/>
</g>
<!-- Node3 -->
<g id="node3" class="node">
<title>Node3</title>
<g id="a_node3"><a xlink:href="classitk_1_1FunctionBase.html" target="_top" xlink:title=" ">
<polygon fill="white" stroke="black" points="1030,-137 1030,-178 1155,-178 1155,-137 1030,-137"/>
<text text-anchor="start" x="1038" y="-166" font-family="Helvetica,sans-Serif" font-size="10.00">itk::FunctionBase&lt;</text>
<text text-anchor="start" x="1038" y="-155" font-family="Helvetica,sans-Serif" font-size="10.00"> TPointSet ::PointType,</text>
<text text-anchor="middle" x="1092.5" y="-144" font-family="Helvetica,sans-Serif" font-size="10.00"> double &gt;</text>
</a>
</g>
</g>
<!-- Node3&#45;&gt;Node2 -->
<g id="edge2" class="edge">
<title>Node3&#45;&gt;Node2</title>
<path fill="none" stroke="midnightblue" d="M1165.28,-157.5C1182.91,-157.5 1201.56,-157.5 1218.43,-157.5"/>
<polygon fill="midnightblue" stroke="midnightblue" points="1165.03,-154 1155.03,-157.5 1165.03,-161 1165.03,-154"/>
</g>
<!-- Node4 -->
<g id="node4" class="node">
<title>Node4</title>
<g id="a_node4"><a xlink:href="classitk_1_1Object.html" target="_top" xlink:title="Base class for most ITK classes.">
<polygon fill="white" stroke="black" points="926,-148 926,-167 993,-167 993,-148 926,-148"/>
<text text-anchor="middle" x="959.5" y="-155" font-family="Helvetica,sans-Serif" font-size="10.00">itk::Object</text>
</a>
</g>
</g>
<!-- Node4&#45;&gt;Node3 -->
<g id="edge3" class="edge">
<title>Node4&#45;&gt;Node3</title>
<path fill="none" stroke="midnightblue" d="M1003.26,-157.5C1011.77,-157.5 1020.86,-157.5 1029.86,-157.5"/>
<polygon fill="midnightblue" stroke="midnightblue" points="1003.22,-154 993.22,-157.5 1003.22,-161 1003.22,-154"/>
</g>
<!-- Node5 -->
<g id="node5" class="node">
<title>Node5</title>
<g id="a_node5"><a xlink:href="classitk_1_1LightObject.html" target="_top" xlink:title="Light weight base class for most itk classes.">
<polygon fill="white" stroke="black" points="660.5,-212 660.5,-231 751.5,-231 751.5,-212 660.5,-212"/>
<text text-anchor="middle" x="706" y="-219" font-family="Helvetica,sans-Serif" font-size="10.00">itk::LightObject</text>
</a>
</g>
</g>
<!-- Node5&#45;&gt;Node4 -->
<g id="edge4" class="edge">
<title>Node5&#45;&gt;Node4</title>
<path fill="none" stroke="midnightblue" d="M761.69,-216.62C802.84,-211.78 860.12,-202.53 908,-185.5 920.85,-180.93 934.29,-173.31 944.08,-167.18"/>
<polygon fill="midnightblue" stroke="midnightblue" points="761.14,-213.16 751.6,-217.75 761.93,-220.11 761.14,-213.16"/>
</g>
<!-- Node6 -->
<g id="node6" class="node">
<title>Node6</title>
<g id="a_node6"><a xlink:title=" ">
<polygon fill="white" stroke="#bfbfbf" points="378,-217 378,-236 485,-236 485,-217 378,-217"/>
<text text-anchor="middle" x="431.5" y="-224" font-family="Helvetica,sans-Serif" font-size="10.00">std::atomic&lt; int &gt;</text>
</a>
</g>
</g>
<!-- Node6&#45;&gt;Node5 -->
<g id="edge5" class="edge">
<title>Node6&#45;&gt;Node5</title>
<path fill="none" stroke="#9a32cd" stroke-dasharray="5,2" d="M495.18,-225.35C545.64,-224.42 615.33,-223.15 660.29,-222.32"/>
<polygon fill="#9a32cd" stroke="#9a32cd" points="494.97,-221.85 485.04,-225.54 495.1,-228.85 494.97,-221.85"/>
<text text-anchor="middle" x="572.5" y="-227.5" font-family="Helvetica,sans-Serif" font-size="10.00"> m_ReferenceCount</text>
</g>
<!-- Node7 -->
<g id="node7" class="node">
<title>Node7</title>
<g id="a_node7"><a xlink:title="STL class.">
<polygon fill="white" stroke="#bfbfbf" points="673.5,-168 673.5,-187 738.5,-187 738.5,-168 673.5,-168"/>
<text text-anchor="middle" x="706" y="-175" font-family="Helvetica,sans-Serif" font-size="10.00">std::string</text>
</a>
</g>
</g>
<!-- Node7&#45;&gt;Node4 -->
<g id="edge6" class="edge">
<title>Node7&#45;&gt;Node4</title>
<path fill="none" stroke="#9a32cd" stroke-dasharray="5,2" d="M748.68,-174.19C798.33,-170.24 880.24,-163.72 925.64,-160.11"/>
<polygon fill="#9a32cd" stroke="#9a32cd" points="748.29,-170.71 738.6,-174.99 748.84,-177.68 748.29,-170.71"/>
<text text-anchor="middle" x="849.5" y="-173.5" font-family="Helvetica,sans-Serif" font-size="10.00"> m_ObjectName</text>
</g>
<!-- Node8 -->
<g id="node8" class="node">
<title>Node8</title>
<g id="a_node8"><a xlink:title="STL class.">
<polygon fill="white" stroke="#bfbfbf" points="379.5,-167.5 379.5,-197.5 483.5,-197.5 483.5,-167.5 379.5,-167.5"/>
<text text-anchor="start" x="387.5" y="-185.5" font-family="Helvetica,sans-Serif" font-size="10.00">std::basic_string&lt;</text>
<text text-anchor="middle" x="431.5" y="-174.5" font-family="Helvetica,sans-Serif" font-size="10.00"> char &gt;</text>
</a>
</g>
</g>
<!-- Node8&#45;&gt;Node7 -->
<g id="edge7" class="edge">
<title>Node8&#45;&gt;Node7</title>
<path fill="none" stroke="midnightblue" d="M493.85,-181.37C549.49,-180.35 629.3,-178.89 673.14,-178.08"/>
<polygon fill="midnightblue" stroke="midnightblue" points="493.69,-177.88 483.76,-181.56 493.82,-184.88 493.69,-177.88"/>
</g>
<!-- Node9 -->
<g id="node9" class="node">
<title>Node9</title>
<g id="a_node9"><a xlink:href="classitk_1_1MetaDataDictionary.html" target="_top" xlink:title="Provides a mechanism for storing a collection of arbitrary data types.">
<polygon fill="white" stroke="black" points="639,-129 639,-148 773,-148 773,-129 639,-129"/>
<text text-anchor="middle" x="706" y="-136" font-family="Helvetica,sans-Serif" font-size="10.00">itk::MetaDataDictionary</text>
</a>
</g>
</g>
<!-- Node9&#45;&gt;Node4 -->
<g id="edge8" class="edge">
<title>Node9&#45;&gt;Node4</title>
<path fill="none" stroke="#9a32cd" stroke-dasharray="5,2" d="M783.42,-135.22C821.13,-134.82 867.18,-136.15 908,-142.5 915.68,-143.69 923.83,-145.75 931.29,-147.96"/>
<polygon fill="#9a32cd" stroke="#9a32cd" points="782.96,-131.73 773.02,-135.38 783.07,-138.72 782.96,-131.73"/>
<text text-anchor="middle" x="849.5" y="-145.5" font-family="Helvetica,sans-Serif" font-size="10.00"> m_MetaDataDictionary</text>
</g>
<!-- Node10 -->
<g id="node10" class="node">
<title>Node10</title>
<g id="a_node10"><a xlink:title=" ">
<polygon fill="white" stroke="#bfbfbf" points="357,-118.5 357,-148.5 506,-148.5 506,-118.5 357,-118.5"/>
<text text-anchor="start" x="365" y="-136.5" font-family="Helvetica,sans-Serif" font-size="10.00">std::shared_ptr&lt; MetaData</text>
<text text-anchor="middle" x="431.5" y="-125.5" font-family="Helvetica,sans-Serif" font-size="10.00">DictionaryMapType &gt;</text>
</a>
</g>
</g>
<!-- Node10&#45;&gt;Node9 -->
<g id="edge9" class="edge">
<title>Node10&#45;&gt;Node9</title>
<path fill="none" stroke="#9a32cd" stroke-dasharray="5,2" d="M516.34,-135.04C555.65,-135.76 601.82,-136.61 638.65,-137.28"/>
<polygon fill="#9a32cd" stroke="#9a32cd" points="516.3,-131.54 506.24,-134.85 516.18,-138.54 516.3,-131.54"/>
<text text-anchor="middle" x="572.5" y="-140.5" font-family="Helvetica,sans-Serif" font-size="10.00"> m_Dictionary</text>
</g>
<!-- Node11 -->
<g id="node11" class="node">
<title>Node11</title>
<g id="a_node11"><a xlink:title="STL class.">
<polygon fill="white" stroke="#bfbfbf" points="114,-124 114,-143 215,-143 215,-124 114,-124"/>
<text text-anchor="middle" x="164.5" y="-131" font-family="Helvetica,sans-Serif" font-size="10.00">std::map&lt; K, T &gt;</text>
</a>
</g>
</g>
<!-- Node11&#45;&gt;Node10 -->
<g id="edge10" class="edge">
<title>Node11&#45;&gt;Node10</title>
<path fill="none" stroke="#9a32cd" stroke-dasharray="5,2" d="M225.18,-133.5C264.19,-133.5 315.41,-133.5 356.93,-133.5"/>
<polygon fill="#9a32cd" stroke="#9a32cd" points="225.03,-130 215.03,-133.5 225.03,-137 225.03,-130"/>
<text text-anchor="middle" x="286" y="-136.5" font-family="Helvetica,sans-Serif" font-size="10.00"> ptr</text>
</g>
<!-- Node12 -->
<g id="node12" class="node">
<title>Node12</title>
<g id="a_node12"><a xlink:title=" ">
<polygon fill="white" stroke="#bfbfbf" points="0,-148 0,-167 29,-167 29,-148 0,-148"/>
<text text-anchor="middle" x="14.5" y="-155" font-family="Helvetica,sans-Serif" font-size="10.00">K</text>
</a>
</g>
</g>
<!-- Node12&#45;&gt;Node11 -->
<g id="edge11" class="edge">
<title>Node12&#45;&gt;Node11</title>
<path fill="none" stroke="#9a32cd" stroke-dasharray="5,2" d="M39.24,-153.65C59.28,-150.4 88.63,-145.64 113.78,-141.56"/>
<polygon fill="#9a32cd" stroke="#9a32cd" points="38.47,-150.23 29.16,-155.29 39.59,-157.14 38.47,-150.23"/>
<text text-anchor="middle" x="71.5" y="-155.5" font-family="Helvetica,sans-Serif" font-size="10.00"> keys</text>
</g>
<!-- Node13 -->
<g id="node13" class="node">
<title>Node13</title>
<g id="a_node13"><a xlink:title=" ">
<polygon fill="white" stroke="#bfbfbf" points="0,-95 0,-114 29,-114 29,-95 0,-95"/>
<text text-anchor="middle" x="14.5" y="-102" font-family="Helvetica,sans-Serif" font-size="10.00">T</text>
</a>
</g>
</g>
<!-- Node13&#45;&gt;Node11 -->
<g id="edge12" class="edge">
<title>Node13&#45;&gt;Node11</title>
<path fill="none" stroke="#9a32cd" stroke-dasharray="5,2" d="M39.09,-109.12C59.39,-113.1 89.35,-118.97 114.78,-123.95"/>
<polygon fill="#9a32cd" stroke="#9a32cd" points="39.64,-105.66 29.16,-107.18 38.3,-112.53 39.64,-105.66"/>
<text text-anchor="middle" x="71.5" y="-123.5" font-family="Helvetica,sans-Serif" font-size="10.00"> elements</text>
</g>
<!-- Node15 -->
<g id="node15" class="node">
<title>Node15</title>
<g id="a_node15"><a xlink:title="STL class.">
<polygon fill="white" stroke="#bfbfbf" points="114.5,-80 114.5,-99 214.5,-99 214.5,-80 114.5,-80"/>
<text text-anchor="middle" x="164.5" y="-87" font-family="Helvetica,sans-Serif" font-size="10.00">std::atomic&lt; T &gt;</text>
</a>
</g>
</g>
<!-- Node13&#45;&gt;Node15 -->
<g id="edge15" class="edge">
<title>Node13&#45;&gt;Node15</title>
<path fill="none" stroke="#9a32cd" stroke-dasharray="5,2" d="M38.4,-93.04C41.24,-92.01 44.15,-91.12 47,-90.5 68.74,-85.79 93.31,-84.94 114.26,-85.51"/>
<polygon fill="#9a32cd" stroke="#9a32cd" points="37.03,-89.82 29.19,-96.95 39.77,-96.27 37.03,-89.82"/>
<text text-anchor="middle" x="71.5" y="-93.5" font-family="Helvetica,sans-Serif" font-size="10.00"> ptr</text>
</g>
<!-- Node14 -->
<g id="node14" class="node">
<title>Node14</title>
<g id="a_node14"><a xlink:href="classitk_1_1TimeStamp.html" target="_top" xlink:title="Generate a unique, increasing time value.">
<polygon fill="white" stroke="black" points="526.5,-85 526.5,-104 618.5,-104 618.5,-85 526.5,-85"/>
<text text-anchor="middle" x="572.5" y="-92" font-family="Helvetica,sans-Serif" font-size="10.00">itk::TimeStamp</text>
</a>
</g>
</g>
<!-- Node14&#45;&gt;Node4 -->
<g id="edge13" class="edge">
<title>Node14&#45;&gt;Node4</title>
<path fill="none" stroke="#9a32cd" stroke-dasharray="5,2" d="M628.61,-93.57C696.18,-94.01 813.37,-99.92 908,-131.5 920.16,-135.56 932.99,-142.2 942.68,-147.75"/>
<polygon fill="#9a32cd" stroke="#9a32cd" points="628.62,-90.07 618.61,-93.54 628.6,-97.07 628.62,-90.07"/>
<text text-anchor="middle" x="706" y="-105.5" font-family="Helvetica,sans-Serif" font-size="10.00"> m_MTime</text>
</g>
<!-- Node15&#45;&gt;Node14 -->
<g id="edge14" class="edge">
<title>Node15&#45;&gt;Node14</title>
<path fill="none" stroke="#9a32cd" stroke-dasharray="5,2" d="M225.03,-90.23C306.93,-91.24 452.57,-93.04 526.2,-93.94"/>
<polygon fill="#9a32cd" stroke="#9a32cd" points="224.92,-86.73 214.88,-90.11 224.83,-93.73 224.92,-86.73"/>
<text text-anchor="middle" x="286" y="-95.5" font-family="Helvetica,sans-Serif" font-size="10.00"> m_GlobalTimeStamp</text>
</g>
<!-- Node16 -->
<g id="node16" class="node">
<title>Node16</title>
<g id="a_node16"><a xlink:title=" ">
<polygon fill="white" stroke="#bfbfbf" points="1192,-99 1192,-118 1362,-118 1362,-99 1192,-99"/>
<text text-anchor="middle" x="1277" y="-106" font-family="Helvetica,sans-Serif" font-size="10.00">std::vector&lt; GaussianPointer &gt;</text>
</a>
</g>
</g>
<!-- Node16&#45;&gt;Node1 -->
<g id="edge16" class="edge">
<title>Node16&#45;&gt;Node1</title>
<path fill="none" stroke="#9a32cd" stroke-dasharray="5,2" d="M1372.27,-101.24C1408.75,-98.42 1450.03,-95.24 1484.87,-92.56"/>
<polygon fill="#9a32cd" stroke="#9a32cd" points="1371.82,-97.76 1362.12,-102.02 1372.35,-104.74 1371.82,-97.76"/>
<text text-anchor="middle" x="1423.5" y="-103.5" font-family="Helvetica,sans-Serif" font-size="10.00"> m_Gaussians</text>
</g>
<!-- Node17 -->
<g id="node17" class="node">
<title>Node17</title>
<g id="a_node17"><a xlink:href="classitk_1_1SmartPointer.html" target="_top" xlink:title=" ">
<polygon fill="white" stroke="black" points="1223.5,-49.5 1223.5,-79.5 1330.5,-79.5 1330.5,-49.5 1223.5,-49.5"/>
<text text-anchor="start" x="1231.5" y="-67.5" font-family="Helvetica,sans-Serif" font-size="10.00">itk::SmartPointer&lt;</text>
<text text-anchor="middle" x="1277" y="-56.5" font-family="Helvetica,sans-Serif" font-size="10.00"> Self &gt;</text>
</a>
</g>
</g>
<!-- Node17&#45;&gt;Node1 -->
<g id="edge17" class="edge">
<title>Node17&#45;&gt;Node1</title>
<path fill="none" stroke="#9a32cd" stroke-dasharray="5,2" d="M1340.89,-69.35C1383.32,-72.62 1439.61,-76.95 1484.97,-80.45"/>
<polygon fill="#9a32cd" stroke="#9a32cd" points="1340.94,-65.84 1330.7,-68.56 1340.4,-72.82 1340.94,-65.84"/>
<text text-anchor="middle" x="1423.5" y="-82.5" font-family="Helvetica,sans-Serif" font-size="10.00"> m_MultiThreader</text>
</g>
<!-- Node18 -->
<g id="node18" class="node">
<title>Node18</title>
<g id="a_node18"><a xlink:href="classitk_1_1SmartPointer.html" target="_top" xlink:title="Implements transparent reference counting.">
<polygon fill="white" stroke="black" points="1223.5,-0.5 1223.5,-30.5 1330.5,-30.5 1330.5,-0.5 1223.5,-0.5"/>
<text text-anchor="start" x="1231.5" y="-18.5" font-family="Helvetica,sans-Serif" font-size="10.00">itk::SmartPointer&lt;</text>
<text text-anchor="middle" x="1277" y="-7.5" font-family="Helvetica,sans-Serif" font-size="10.00"> TObjectType &gt;</text>
</a>
</g>
</g>
<!-- Node18&#45;&gt;Node1 -->
<g id="edge18" class="edge">
<title>Node18&#45;&gt;Node1</title>
<path fill="none" stroke="#9a32cd" stroke-dasharray="5,2" d="M1340.86,-28.83C1377.73,-36.89 1425.16,-47.68 1467,-58.5 1475.95,-60.81 1485.33,-63.37 1494.58,-65.97"/>
<polygon fill="#9a32cd" stroke="#9a32cd" points="1341.26,-25.34 1330.75,-26.63 1339.78,-32.18 1341.26,-25.34"/>
<text text-anchor="middle" x="1423.5" y="-61.5" font-family="Helvetica,sans-Serif" font-size="10.00"> m_PointsLocator</text>
</g>
</g>
</svg>
