<?xml version="1.0" encoding="UTF-8" standalone="no"?>
<!DOCTYPE svg PUBLIC "-//W3C//DTD SVG 1.1//EN"
 "http://www.w3.org/Graphics/SVG/1.1/DTD/svg11.dtd">
<!-- Generated by graphviz version 2.43.0 (0)
 -->
<!-- Title: itk::NarrowBand&lt; NodeType &gt; Pages: 1 -->
<svg width="271pt" height="162pt"
 viewBox="0.00 0.00 270.50 162.00" xmlns="http://www.w3.org/2000/svg" xmlns:xlink="http://www.w3.org/1999/xlink">
<g id="graph0" class="graph" transform="scale(1 1) rotate(0) translate(4 158)">
<title>itk::NarrowBand&lt; NodeType &gt;</title>
<polygon fill="white" stroke="transparent" points="-4,4 -4,-158 266.5,-158 266.5,4 -4,4"/>
<!-- Node1 -->
<g id="node1" class="node">
<title>Node1</title>
<g id="a_node1"><a xlink:title="Narrow Band class.">
<polygon fill="#bfbfbf" stroke="black" points="69.5,-0.5 69.5,-19.5 235.5,-19.5 235.5,-0.5 69.5,-0.5"/>
<text text-anchor="middle" x="152.5" y="-7.5" font-family="Helvetica,sans-Serif" font-size="10.00">itk::NarrowBand&lt; NodeType &gt;</text>
</a>
</g>
</g>
<!-- Node2 -->
<g id="node2" class="node">
<title>Node2</title>
<g id="a_node2"><a xlink:href="classitk_1_1LightObject.html" target="_top" xlink:title="Light weight base class for most itk classes.">
<polygon fill="white" stroke="black" points="8,-67.5 8,-86.5 99,-86.5 99,-67.5 8,-67.5"/>
<text text-anchor="middle" x="53.5" y="-74.5" font-family="Helvetica,sans-Serif" font-size="10.00">itk::LightObject</text>
</a>
</g>
</g>
<!-- Node2&#45;&gt;Node1 -->
<g id="edge1" class="edge">
<title>Node2&#45;&gt;Node1</title>
<path fill="none" stroke="midnightblue" d="M75.44,-61.59C95.03,-48.74 123.06,-30.33 139.36,-19.63"/>
<polygon fill="midnightblue" stroke="midnightblue" points="73.29,-58.82 66.85,-67.23 77.13,-64.67 73.29,-58.82"/>
</g>
<!-- Node3 -->
<g id="node3" class="node">
<title>Node3</title>
<g id="a_node3"><a xlink:title=" ">
<polygon fill="white" stroke="#bfbfbf" points="0,-134.5 0,-153.5 107,-153.5 107,-134.5 0,-134.5"/>
<text text-anchor="middle" x="53.5" y="-141.5" font-family="Helvetica,sans-Serif" font-size="10.00">std::atomic&lt; int &gt;</text>
</a>
</g>
</g>
<!-- Node3&#45;&gt;Node2 -->
<g id="edge2" class="edge">
<title>Node3&#45;&gt;Node2</title>
<path fill="none" stroke="#9a32cd" stroke-dasharray="5,2" d="M53.5,-124.04C53.5,-111.67 53.5,-96.12 53.5,-86.63"/>
<polygon fill="#9a32cd" stroke="#9a32cd" points="50,-124.23 53.5,-134.23 57,-124.23 50,-124.23"/>
<text text-anchor="middle" x="102" y="-108" font-family="Helvetica,sans-Serif" font-size="10.00"> m_ReferenceCount</text>
</g>
<!-- Node4 -->
<g id="node4" class="node">
<title>Node4</title>
<g id="a_node4"><a xlink:title=" ">
<polygon fill="white" stroke="#bfbfbf" points="117,-67.5 117,-86.5 256,-86.5 256,-67.5 117,-67.5"/>
<text text-anchor="middle" x="186.5" y="-74.5" font-family="Helvetica,sans-Serif" font-size="10.00">std::vector&lt; NodeType &gt;</text>
</a>
</g>
</g>
<!-- Node4&#45;&gt;Node1 -->
<g id="edge3" class="edge">
<title>Node4&#45;&gt;Node1</title>
<path fill="none" stroke="#9a32cd" stroke-dasharray="5,2" d="M177.17,-58.16C170.61,-45.63 162.13,-29.41 157.01,-19.63"/>
<polygon fill="#9a32cd" stroke="#9a32cd" points="174.18,-60 181.91,-67.23 180.38,-56.75 174.18,-60"/>
<text text-anchor="middle" x="217" y="-41" font-family="Helvetica,sans-Serif" font-size="10.00"> m_NodeContainer</text>
</g>
</g>
</svg>
