<?xml version="1.0" encoding="UTF-8" standalone="no"?>
<!DOCTYPE svg PUBLIC "-//W3C//DTD SVG 1.1//EN"
 "http://www.w3.org/Graphics/SVG/1.1/DTD/svg11.dtd">
<!-- Generated by graphviz version 2.43.0 (0)
 -->
<!-- Title: itk::DataObjectConstIterator Pages: 1 -->
<svg width="162pt" height="128pt"
 viewBox="0.00 0.00 162.00 128.00" xmlns="http://www.w3.org/2000/svg" xmlns:xlink="http://www.w3.org/1999/xlink">
<g id="graph0" class="graph" transform="scale(1 1) rotate(0) translate(4 124)">
<title>itk::DataObjectConstIterator</title>
<polygon fill="white" stroke="transparent" points="-4,4 -4,-124 158,-124 158,4 -4,4"/>
<!-- Node1 -->
<g id="node1" class="node">
<title>Node1</title>
<g id="a_node1"><a xlink:title="A forward iterator over the DataObject of a ProcessObject.">
<polygon fill="#bfbfbf" stroke="black" points="0,-0.5 0,-19.5 154,-19.5 154,-0.5 0,-0.5"/>
<text text-anchor="middle" x="77" y="-7.5" font-family="Helvetica,sans-Serif" font-size="10.00">itk::DataObjectConstIterator</text>
</a>
</g>
</g>
<!-- Node2 -->
<g id="node2" class="node">
<title>Node2</title>
<g id="a_node2"><a xlink:title="STL iterator class.">
<polygon fill="white" stroke="#bfbfbf" points="10.5,-89.5 10.5,-119.5 143.5,-119.5 143.5,-89.5 10.5,-89.5"/>
<text text-anchor="start" x="18.5" y="-107.5" font-family="Helvetica,sans-Serif" font-size="10.00">std::map&lt; K, T &gt;::const</text>
<text text-anchor="middle" x="77" y="-96.5" font-family="Helvetica,sans-Serif" font-size="10.00">_iterator</text>
</a>
</g>
</g>
<!-- Node2&#45;&gt;Node1 -->
<g id="edge1" class="edge">
<title>Node2&#45;&gt;Node1</title>
<path fill="none" stroke="#9a32cd" stroke-dasharray="5,2" d="M77,-79.38C77,-59.74 77,-33.12 77,-19.62"/>
<polygon fill="#9a32cd" stroke="#9a32cd" points="73.5,-79.45 77,-89.45 80.5,-79.45 73.5,-79.45"/>
<text text-anchor="middle" x="103" y="-63" font-family="Helvetica,sans-Serif" font-size="10.00"> m_End</text>
<text text-anchor="middle" x="103" y="-52" font-family="Helvetica,sans-Serif" font-size="10.00">m_Iterator</text>
<text text-anchor="middle" x="103" y="-41" font-family="Helvetica,sans-Serif" font-size="10.00">m_Begin</text>
</g>
</g>
</svg>
