<?xml version="1.0" encoding="UTF-8" standalone="no"?>
<!DOCTYPE svg PUBLIC "-//W3C//DTD SVG 1.1//EN"
 "http://www.w3.org/Graphics/SVG/1.1/DTD/svg11.dtd">
<!-- Generated by graphviz version 2.43.0 (0)
 -->
<!-- Title: itk::GeodesicActiveContourShapePriorLevelSetFunction&lt; TImageType, TFeatureImageType &gt; Pages: 1 -->
<svg width="213pt" height="385pt"
 viewBox="0.00 0.00 213.00 385.00" xmlns="http://www.w3.org/2000/svg" xmlns:xlink="http://www.w3.org/1999/xlink">
<g id="graph0" class="graph" transform="scale(1 1) rotate(0) translate(4 381)">
<title>itk::GeodesicActiveContourShapePriorLevelSetFunction&lt; TImageType, TFeatureImageType &gt;</title>
<polygon fill="white" stroke="transparent" points="-4,4 -4,-381 209,-381 209,4 -4,4"/>
<!-- Node1 -->
<g id="node1" class="node">
<title>Node1</title>
<g id="a_node1"><a xlink:title="This function is used in GeodesicActiveContourShapePriorSegmentationLevelSetFilter to segment structu...">
<polygon fill="#bfbfbf" stroke="black" points="2.5,-0.5 2.5,-41.5 202.5,-41.5 202.5,-0.5 2.5,-0.5"/>
<text text-anchor="start" x="10.5" y="-29.5" font-family="Helvetica,sans-Serif" font-size="10.00">itk::GeodesicActiveContour</text>
<text text-anchor="start" x="10.5" y="-18.5" font-family="Helvetica,sans-Serif" font-size="10.00">ShapePriorLevelSetFunction</text>
<text text-anchor="middle" x="102.5" y="-7.5" font-family="Helvetica,sans-Serif" font-size="10.00">&lt; TImageType, TFeatureImageType &gt;</text>
</a>
</g>
</g>
<!-- Node2 -->
<g id="node2" class="node">
<title>Node2</title>
<g id="a_node2"><a xlink:href="classitk_1_1ShapePriorSegmentationLevelSetFunction.html" target="_top" xlink:title=" ">
<polygon fill="white" stroke="black" points="16,-78.5 16,-119.5 189,-119.5 189,-78.5 16,-78.5"/>
<text text-anchor="start" x="24" y="-107.5" font-family="Helvetica,sans-Serif" font-size="10.00">itk::ShapePriorSegmentation</text>
<text text-anchor="start" x="24" y="-96.5" font-family="Helvetica,sans-Serif" font-size="10.00">LevelSetFunction&lt; TImageType,</text>
<text text-anchor="middle" x="102.5" y="-85.5" font-family="Helvetica,sans-Serif" font-size="10.00"> TImageType &gt;</text>
</a>
</g>
</g>
<!-- Node2&#45;&gt;Node1 -->
<g id="edge1" class="edge">
<title>Node2&#45;&gt;Node1</title>
<path fill="none" stroke="midnightblue" d="M102.5,-68.3C102.5,-59.3 102.5,-49.65 102.5,-41.51"/>
<polygon fill="midnightblue" stroke="midnightblue" points="99,-68.43 102.5,-78.43 106,-68.43 99,-68.43"/>
</g>
<!-- Node3 -->
<g id="node3" class="node">
<title>Node3</title>
<g id="a_node3"><a xlink:href="classitk_1_1SegmentationLevelSetFunction.html" target="_top" xlink:title=" ">
<polygon fill="white" stroke="black" points="0,-156.5 0,-186.5 205,-186.5 205,-156.5 0,-156.5"/>
<text text-anchor="start" x="8" y="-174.5" font-family="Helvetica,sans-Serif" font-size="10.00">itk::SegmentationLevelSet</text>
<text text-anchor="middle" x="102.5" y="-163.5" font-family="Helvetica,sans-Serif" font-size="10.00">Function&lt; TImageType, TImageType &gt;</text>
</a>
</g>
</g>
<!-- Node3&#45;&gt;Node2 -->
<g id="edge2" class="edge">
<title>Node3&#45;&gt;Node2</title>
<path fill="none" stroke="midnightblue" d="M102.5,-145.98C102.5,-137.35 102.5,-127.76 102.5,-119.59"/>
<polygon fill="midnightblue" stroke="midnightblue" points="99,-146.23 102.5,-156.23 106,-146.23 99,-146.23"/>
</g>
<!-- Node4 -->
<g id="node4" class="node">
<title>Node4</title>
<g id="a_node4"><a xlink:href="classitk_1_1LevelSetFunction.html" target="_top" xlink:title="The LevelSetFunction class is a generic function object which can be used to create a level set metho...">
<polygon fill="white" stroke="black" points="43,-223.5 43,-253.5 162,-253.5 162,-223.5 43,-223.5"/>
<text text-anchor="start" x="51" y="-241.5" font-family="Helvetica,sans-Serif" font-size="10.00">itk::LevelSetFunction</text>
<text text-anchor="middle" x="102.5" y="-230.5" font-family="Helvetica,sans-Serif" font-size="10.00">&lt; TImageType &gt;</text>
</a>
</g>
</g>
<!-- Node4&#45;&gt;Node3 -->
<g id="edge3" class="edge">
<title>Node4&#45;&gt;Node3</title>
<path fill="none" stroke="midnightblue" d="M102.5,-213.11C102.5,-204.15 102.5,-194.32 102.5,-186.58"/>
<polygon fill="midnightblue" stroke="midnightblue" points="99,-213.4 102.5,-223.4 106,-213.4 99,-213.4"/>
</g>
<!-- Node5 -->
<g id="node5" class="node">
<title>Node5</title>
<g id="a_node5"><a xlink:href="classitk_1_1FiniteDifferenceFunction.html" target="_top" xlink:title=" ">
<polygon fill="white" stroke="black" points="25.5,-290.5 25.5,-320.5 179.5,-320.5 179.5,-290.5 25.5,-290.5"/>
<text text-anchor="start" x="33.5" y="-308.5" font-family="Helvetica,sans-Serif" font-size="10.00">itk::FiniteDifferenceFunction</text>
<text text-anchor="middle" x="102.5" y="-297.5" font-family="Helvetica,sans-Serif" font-size="10.00">&lt; TImageType &gt;</text>
</a>
</g>
</g>
<!-- Node5&#45;&gt;Node4 -->
<g id="edge4" class="edge">
<title>Node5&#45;&gt;Node4</title>
<path fill="none" stroke="midnightblue" d="M102.5,-280.11C102.5,-271.15 102.5,-261.32 102.5,-253.58"/>
<polygon fill="midnightblue" stroke="midnightblue" points="99,-280.4 102.5,-290.4 106,-280.4 99,-280.4"/>
</g>
<!-- Node6 -->
<g id="node6" class="node">
<title>Node6</title>
<g id="a_node6"><a xlink:href="classitk_1_1LightObject.html" target="_top" xlink:title="Light weight base class for most itk classes.">
<polygon fill="white" stroke="black" points="57,-357.5 57,-376.5 148,-376.5 148,-357.5 57,-357.5"/>
<text text-anchor="middle" x="102.5" y="-364.5" font-family="Helvetica,sans-Serif" font-size="10.00">itk::LightObject</text>
</a>
</g>
</g>
<!-- Node6&#45;&gt;Node5 -->
<g id="edge5" class="edge">
<title>Node6&#45;&gt;Node5</title>
<path fill="none" stroke="midnightblue" d="M102.5,-347.23C102.5,-338.59 102.5,-328.5 102.5,-320.52"/>
<polygon fill="midnightblue" stroke="midnightblue" points="99,-347.48 102.5,-357.48 106,-347.48 99,-347.48"/>
</g>
</g>
</svg>
