<?xml version="1.0" encoding="UTF-8" standalone="no"?>
<!DOCTYPE svg PUBLIC "-//W3C//DTD SVG 1.1//EN"
 "http://www.w3.org/Graphics/SVG/1.1/DTD/svg11.dtd">
<!-- Generated by graphviz version 2.43.0 (0)
 -->
<!-- Title: itk::StatisticsLabelMapFilter&lt; TImage, TFeatureImage &gt; Pages: 1 -->
<svg width="1545pt" height="85pt"
 viewBox="0.00 0.00 1545.00 85.00" xmlns="http://www.w3.org/2000/svg" xmlns:xlink="http://www.w3.org/1999/xlink">
<g id="graph0" class="graph" transform="scale(1 1) rotate(0) translate(4 81)">
<title>itk::StatisticsLabelMapFilter&lt; TImage, TFeatureImage &gt;</title>
<polygon fill="white" stroke="transparent" points="-4,4 -4,-81 1541,-81 1541,4 -4,4"/>
<!-- Node1 -->
<g id="node1" class="node">
<title>Node1</title>
<g id="a_node1"><a xlink:title="The valuator class for the StatisticsLabelObject.">
<polygon fill="#bfbfbf" stroke="black" points="1382,-14 1382,-44 1537,-44 1537,-14 1382,-14"/>
<text text-anchor="start" x="1390" y="-32" font-family="Helvetica,sans-Serif" font-size="10.00">itk::StatisticsLabelMapFilter</text>
<text text-anchor="middle" x="1459.5" y="-21" font-family="Helvetica,sans-Serif" font-size="10.00">&lt; TImage, TFeatureImage &gt;</text>
</a>
</g>
</g>
<!-- Node2 -->
<g id="node2" class="node">
<title>Node2</title>
<g id="a_node2"><a xlink:href="classitk_1_1ShapeLabelMapFilter.html" target="_top" xlink:title=" ">
<polygon fill="white" stroke="black" points="1123,-8.5 1123,-49.5 1346,-49.5 1346,-8.5 1123,-8.5"/>
<text text-anchor="start" x="1131" y="-37.5" font-family="Helvetica,sans-Serif" font-size="10.00">itk::ShapeLabelMapFilter</text>
<text text-anchor="start" x="1131" y="-26.5" font-family="Helvetica,sans-Serif" font-size="10.00">&lt; TImage, Image&lt; TImage</text>
<text text-anchor="middle" x="1234.5" y="-15.5" font-family="Helvetica,sans-Serif" font-size="10.00">::PixelType, TImage::ImageDimension &gt; &gt;</text>
</a>
</g>
</g>
<!-- Node2&#45;&gt;Node1 -->
<g id="edge1" class="edge">
<title>Node2&#45;&gt;Node1</title>
<path fill="none" stroke="midnightblue" d="M1356.27,-29C1364.98,-29 1373.61,-29 1381.96,-29"/>
<polygon fill="midnightblue" stroke="midnightblue" points="1356.02,-25.5 1346.02,-29 1356.02,-32.5 1356.02,-25.5"/>
</g>
<!-- Node3 -->
<g id="node3" class="node">
<title>Node3</title>
<g id="a_node3"><a xlink:href="classitk_1_1InPlaceLabelMapFilter.html" target="_top" xlink:title=" ">
<polygon fill="white" stroke="black" points="944,-14 944,-44 1087,-44 1087,-14 944,-14"/>
<text text-anchor="start" x="952" y="-32" font-family="Helvetica,sans-Serif" font-size="10.00">itk::InPlaceLabelMapFilter</text>
<text text-anchor="middle" x="1015.5" y="-21" font-family="Helvetica,sans-Serif" font-size="10.00">&lt; TImage &gt;</text>
</a>
</g>
</g>
<!-- Node3&#45;&gt;Node2 -->
<g id="edge2" class="edge">
<title>Node3&#45;&gt;Node2</title>
<path fill="none" stroke="midnightblue" d="M1097.27,-29C1105.58,-29 1114.13,-29 1122.69,-29"/>
<polygon fill="midnightblue" stroke="midnightblue" points="1097.25,-25.5 1087.25,-29 1097.25,-32.5 1097.25,-25.5"/>
</g>
<!-- Node4 -->
<g id="node4" class="node">
<title>Node4</title>
<g id="a_node4"><a xlink:href="classitk_1_1LabelMapFilter.html" target="_top" xlink:title=" ">
<polygon fill="white" stroke="black" points="789,-14 789,-44 908,-44 908,-14 789,-14"/>
<text text-anchor="start" x="797" y="-32" font-family="Helvetica,sans-Serif" font-size="10.00">itk::LabelMapFilter</text>
<text text-anchor="middle" x="848.5" y="-21" font-family="Helvetica,sans-Serif" font-size="10.00">&lt; TImage, TImage &gt;</text>
</a>
</g>
</g>
<!-- Node4&#45;&gt;Node3 -->
<g id="edge3" class="edge">
<title>Node4&#45;&gt;Node3</title>
<path fill="none" stroke="midnightblue" d="M918.33,-29C926.78,-29 935.43,-29 943.91,-29"/>
<polygon fill="midnightblue" stroke="midnightblue" points="918.14,-25.5 908.14,-29 918.14,-32.5 918.14,-25.5"/>
</g>
<!-- Node5 -->
<g id="node5" class="node">
<title>Node5</title>
<g id="a_node5"><a xlink:href="classitk_1_1ImageToImageFilter.html" target="_top" xlink:title=" ">
<polygon fill="white" stroke="black" points="621,-14 621,-44 753,-44 753,-14 621,-14"/>
<text text-anchor="start" x="629" y="-32" font-family="Helvetica,sans-Serif" font-size="10.00">itk::ImageToImageFilter</text>
<text text-anchor="middle" x="687" y="-21" font-family="Helvetica,sans-Serif" font-size="10.00">&lt; TImage, TImage &gt;</text>
</a>
</g>
</g>
<!-- Node5&#45;&gt;Node4 -->
<g id="edge4" class="edge">
<title>Node5&#45;&gt;Node4</title>
<path fill="none" stroke="midnightblue" d="M763.36,-29C771.94,-29 780.6,-29 788.92,-29"/>
<polygon fill="midnightblue" stroke="midnightblue" points="763.34,-25.5 753.33,-29 763.33,-32.5 763.34,-25.5"/>
</g>
<!-- Node6 -->
<g id="node6" class="node">
<title>Node6</title>
<g id="a_node6"><a xlink:href="classitk_1_1ImageSource.html" target="_top" xlink:title=" ">
<polygon fill="white" stroke="black" points="418,-38.5 418,-57.5 576,-57.5 576,-38.5 418,-38.5"/>
<text text-anchor="middle" x="497" y="-45.5" font-family="Helvetica,sans-Serif" font-size="10.00">itk::ImageSource&lt; TImage &gt;</text>
</a>
</g>
</g>
<!-- Node6&#45;&gt;Node5 -->
<g id="edge5" class="edge">
<title>Node6&#45;&gt;Node5</title>
<path fill="none" stroke="midnightblue" d="M586.31,-39.07C597.99,-37.89 609.79,-36.7 620.98,-35.57"/>
<polygon fill="midnightblue" stroke="midnightblue" points="585.69,-35.62 576.1,-40.11 586.4,-42.58 585.69,-35.62"/>
</g>
<!-- Node7 -->
<g id="node7" class="node">
<title>Node7</title>
<g id="a_node7"><a xlink:href="classitk_1_1ProcessObject.html" target="_top" xlink:title="The base class for all process objects (source, filters, mappers) in the Insight data processing pipe...">
<polygon fill="white" stroke="black" points="249.5,-57.5 249.5,-76.5 353.5,-76.5 353.5,-57.5 249.5,-57.5"/>
<text text-anchor="middle" x="301.5" y="-64.5" font-family="Helvetica,sans-Serif" font-size="10.00">itk::ProcessObject</text>
</a>
</g>
</g>
<!-- Node7&#45;&gt;Node6 -->
<g id="edge6" class="edge">
<title>Node7&#45;&gt;Node6</title>
<path fill="none" stroke="midnightblue" d="M364.02,-60.96C381.16,-59.28 400.01,-57.43 417.97,-55.66"/>
<polygon fill="midnightblue" stroke="midnightblue" points="363.2,-57.52 353.59,-61.98 363.89,-64.49 363.2,-57.52"/>
</g>
<!-- Node8 -->
<g id="node8" class="node">
<title>Node8</title>
<g id="a_node8"><a xlink:href="classitk_1_1Object.html" target="_top" xlink:title="Base class for most ITK classes.">
<polygon fill="white" stroke="black" points="127,-57.5 127,-76.5 194,-76.5 194,-57.5 127,-57.5"/>
<text text-anchor="middle" x="160.5" y="-64.5" font-family="Helvetica,sans-Serif" font-size="10.00">itk::Object</text>
</a>
</g>
</g>
<!-- Node8&#45;&gt;Node7 -->
<g id="edge7" class="edge">
<title>Node8&#45;&gt;Node7</title>
<path fill="none" stroke="midnightblue" d="M204.13,-67C218.41,-67 234.48,-67 249.35,-67"/>
<polygon fill="midnightblue" stroke="midnightblue" points="204.09,-63.5 194.09,-67 204.09,-70.5 204.09,-63.5"/>
</g>
<!-- Node9 -->
<g id="node9" class="node">
<title>Node9</title>
<g id="a_node9"><a xlink:href="classitk_1_1LightObject.html" target="_top" xlink:title="Light weight base class for most itk classes.">
<polygon fill="white" stroke="black" points="0,-57.5 0,-76.5 91,-76.5 91,-57.5 0,-57.5"/>
<text text-anchor="middle" x="45.5" y="-64.5" font-family="Helvetica,sans-Serif" font-size="10.00">itk::LightObject</text>
</a>
</g>
</g>
<!-- Node9&#45;&gt;Node8 -->
<g id="edge8" class="edge">
<title>Node9&#45;&gt;Node8</title>
<path fill="none" stroke="midnightblue" d="M101.28,-67C109.96,-67 118.69,-67 126.66,-67"/>
<polygon fill="midnightblue" stroke="midnightblue" points="101.16,-63.5 91.16,-67 101.16,-70.5 101.16,-63.5"/>
</g>
<!-- Node10 -->
<g id="node10" class="node">
<title>Node10</title>
<g id="a_node10"><a xlink:href="structitk_1_1ImageSourceCommon.html" target="_top" xlink:title="Secondary base class of ImageSource common between templates.">
<polygon fill="white" stroke="black" points="230,-19.5 230,-38.5 373,-38.5 373,-19.5 230,-19.5"/>
<text text-anchor="middle" x="301.5" y="-26.5" font-family="Helvetica,sans-Serif" font-size="10.00">itk::ImageSourceCommon</text>
</a>
</g>
</g>
<!-- Node10&#45;&gt;Node6 -->
<g id="edge9" class="edge">
<title>Node10&#45;&gt;Node6</title>
<path fill="none" stroke="#8b1a1a" d="M383.2,-36.92C394.71,-38.05 406.54,-39.22 418,-40.34"/>
<polygon fill="#8b1a1a" stroke="#8b1a1a" points="383.47,-33.43 373.18,-35.94 382.79,-40.4 383.47,-33.43"/>
</g>
<!-- Node11 -->
<g id="node11" class="node">
<title>Node11</title>
<g id="a_node11"><a xlink:href="classitk_1_1ImageToImageFilterCommon.html" target="_top" xlink:title="Secondary base class of ImageToImageFilter common between templates.">
<polygon fill="white" stroke="black" points="409,-0.5 409,-19.5 585,-19.5 585,-0.5 409,-0.5"/>
<text text-anchor="middle" x="497" y="-7.5" font-family="Helvetica,sans-Serif" font-size="10.00">itk::ImageToImageFilterCommon</text>
</a>
</g>
</g>
<!-- Node11&#45;&gt;Node5 -->
<g id="edge10" class="edge">
<title>Node11&#45;&gt;Node5</title>
<path fill="none" stroke="#8b1a1a" d="M595.27,-19.83C603.91,-20.7 612.52,-21.57 620.8,-22.41"/>
<polygon fill="#8b1a1a" stroke="#8b1a1a" points="595.42,-16.33 585.12,-18.8 594.72,-23.29 595.42,-16.33"/>
</g>
</g>
</svg>
