<?xml version="1.0" encoding="UTF-8" standalone="no"?>
<!DOCTYPE svg PUBLIC "-//W3C//DTD SVG 1.1//EN"
 "http://www.w3.org/Graphics/SVG/1.1/DTD/svg11.dtd">
<!-- Generated by graphviz version 2.43.0 (0)
 -->
<!-- Title: itk::Statistics::MeanSampleFilter&lt; TSample &gt; Pages: 1 -->
<svg width="178pt" height="274pt"
 viewBox="0.00 0.00 178.00 274.00" xmlns="http://www.w3.org/2000/svg" xmlns:xlink="http://www.w3.org/1999/xlink">
<g id="graph0" class="graph" transform="scale(1 1) rotate(0) translate(4 270)">
<title>itk::Statistics::MeanSampleFilter&lt; TSample &gt;</title>
<polygon fill="white" stroke="transparent" points="-4,4 -4,-270 174,-270 174,4 -4,4"/>
<!-- Node1 -->
<g id="node1" class="node">
<title>Node1</title>
<g id="a_node1"><a xlink:title="Given a sample, this filter computes the sample mean.">
<polygon fill="#bfbfbf" stroke="black" points="10,-67.5 10,-97.5 160,-97.5 160,-67.5 10,-67.5"/>
<text text-anchor="start" x="18" y="-85.5" font-family="Helvetica,sans-Serif" font-size="10.00">itk::Statistics::MeanSample</text>
<text text-anchor="middle" x="85" y="-74.5" font-family="Helvetica,sans-Serif" font-size="10.00">Filter&lt; TSample &gt;</text>
</a>
</g>
</g>
<!-- Node5 -->
<g id="node5" class="node">
<title>Node5</title>
<g id="a_node5"><a xlink:href="classitk_1_1Statistics_1_1WeightedMeanSampleFilter.html" target="_top" xlink:title="Given a sample where each measurement vector has associated weight value, this filter computes the sa...">
<polygon fill="white" stroke="black" points="0,-0.5 0,-30.5 170,-30.5 170,-0.5 0,-0.5"/>
<text text-anchor="start" x="8" y="-18.5" font-family="Helvetica,sans-Serif" font-size="10.00">itk::Statistics::Weighted</text>
<text text-anchor="middle" x="85" y="-7.5" font-family="Helvetica,sans-Serif" font-size="10.00">MeanSampleFilter&lt; TSample &gt;</text>
</a>
</g>
</g>
<!-- Node1&#45;&gt;Node5 -->
<g id="edge4" class="edge">
<title>Node1&#45;&gt;Node5</title>
<path fill="none" stroke="midnightblue" d="M85,-57.11C85,-48.15 85,-38.32 85,-30.58"/>
<polygon fill="midnightblue" stroke="midnightblue" points="81.5,-57.4 85,-67.4 88.5,-57.4 81.5,-57.4"/>
</g>
<!-- Node2 -->
<g id="node2" class="node">
<title>Node2</title>
<g id="a_node2"><a xlink:href="classitk_1_1ProcessObject.html" target="_top" xlink:title="The base class for all process objects (source, filters, mappers) in the Insight data processing pipe...">
<polygon fill="white" stroke="black" points="33,-134.5 33,-153.5 137,-153.5 137,-134.5 33,-134.5"/>
<text text-anchor="middle" x="85" y="-141.5" font-family="Helvetica,sans-Serif" font-size="10.00">itk::ProcessObject</text>
</a>
</g>
</g>
<!-- Node2&#45;&gt;Node1 -->
<g id="edge1" class="edge">
<title>Node2&#45;&gt;Node1</title>
<path fill="none" stroke="midnightblue" d="M85,-124.23C85,-115.59 85,-105.5 85,-97.52"/>
<polygon fill="midnightblue" stroke="midnightblue" points="81.5,-124.48 85,-134.48 88.5,-124.48 81.5,-124.48"/>
</g>
<!-- Node3 -->
<g id="node3" class="node">
<title>Node3</title>
<g id="a_node3"><a xlink:href="classitk_1_1Object.html" target="_top" xlink:title="Base class for most ITK classes.">
<polygon fill="white" stroke="black" points="51.5,-190.5 51.5,-209.5 118.5,-209.5 118.5,-190.5 51.5,-190.5"/>
<text text-anchor="middle" x="85" y="-197.5" font-family="Helvetica,sans-Serif" font-size="10.00">itk::Object</text>
</a>
</g>
</g>
<!-- Node3&#45;&gt;Node2 -->
<g id="edge2" class="edge">
<title>Node3&#45;&gt;Node2</title>
<path fill="none" stroke="midnightblue" d="M85,-179.8C85,-170.91 85,-160.78 85,-153.75"/>
<polygon fill="midnightblue" stroke="midnightblue" points="81.5,-180.08 85,-190.08 88.5,-180.08 81.5,-180.08"/>
</g>
<!-- Node4 -->
<g id="node4" class="node">
<title>Node4</title>
<g id="a_node4"><a xlink:href="classitk_1_1LightObject.html" target="_top" xlink:title="Light weight base class for most itk classes.">
<polygon fill="white" stroke="black" points="39.5,-246.5 39.5,-265.5 130.5,-265.5 130.5,-246.5 39.5,-246.5"/>
<text text-anchor="middle" x="85" y="-253.5" font-family="Helvetica,sans-Serif" font-size="10.00">itk::LightObject</text>
</a>
</g>
</g>
<!-- Node4&#45;&gt;Node3 -->
<g id="edge3" class="edge">
<title>Node4&#45;&gt;Node3</title>
<path fill="none" stroke="midnightblue" d="M85,-235.8C85,-226.91 85,-216.78 85,-209.75"/>
<polygon fill="midnightblue" stroke="midnightblue" points="81.5,-236.08 85,-246.08 88.5,-236.08 81.5,-236.08"/>
</g>
</g>
</svg>
