<?xml version="1.0" encoding="UTF-8" standalone="no"?>
<!DOCTYPE svg PUBLIC "-//W3C//DTD SVG 1.1//EN"
 "http://www.w3.org/Graphics/SVG/1.1/DTD/svg11.dtd">
<!-- Generated by graphviz version 2.43.0 (0)
 -->
<!-- Title: itk::PathToPathFilter&lt; TInputPath, TOutputPath &gt; Pages: 1 -->
<svg width="170pt" height="341pt"
 viewBox="0.00 0.00 170.00 341.00" xmlns="http://www.w3.org/2000/svg" xmlns:xlink="http://www.w3.org/1999/xlink">
<g id="graph0" class="graph" transform="scale(1 1) rotate(0) translate(4 337)">
<title>itk::PathToPathFilter&lt; TInputPath, TOutputPath &gt;</title>
<polygon fill="white" stroke="transparent" points="-4,4 -4,-337 166,-337 166,4 -4,4"/>
<!-- Node1 -->
<g id="node1" class="node">
<title>Node1</title>
<g id="a_node1"><a xlink:title="Base class for filters that take a path as input and produce a path as output.">
<polygon fill="#bfbfbf" stroke="black" points="2.5,-67.5 2.5,-97.5 159.5,-97.5 159.5,-67.5 2.5,-67.5"/>
<text text-anchor="start" x="10.5" y="-85.5" font-family="Helvetica,sans-Serif" font-size="10.00">itk::PathToPathFilter</text>
<text text-anchor="middle" x="81" y="-74.5" font-family="Helvetica,sans-Serif" font-size="10.00">&lt; TInputPath, TOutputPath &gt;</text>
</a>
</g>
</g>
<!-- Node6 -->
<g id="node6" class="node">
<title>Node6</title>
<g id="a_node6"><a xlink:href="classitk_1_1PathAndImageToPathFilter.html" target="_top" xlink:title="Base class for filters that take both a path and an image as input and produce a path as output.">
<polygon fill="white" stroke="black" points="0,-0.5 0,-30.5 162,-30.5 162,-0.5 0,-0.5"/>
<text text-anchor="start" x="8" y="-18.5" font-family="Helvetica,sans-Serif" font-size="10.00">itk::PathAndImageToPathFilter</text>
<text text-anchor="middle" x="81" y="-7.5" font-family="Helvetica,sans-Serif" font-size="10.00">&lt; TInputPath, TOutputPath &gt;</text>
</a>
</g>
</g>
<!-- Node1&#45;&gt;Node6 -->
<g id="edge5" class="edge">
<title>Node1&#45;&gt;Node6</title>
<path fill="none" stroke="midnightblue" d="M81,-57.11C81,-48.15 81,-38.32 81,-30.58"/>
<polygon fill="midnightblue" stroke="midnightblue" points="77.5,-57.4 81,-67.4 84.5,-57.4 77.5,-57.4"/>
</g>
<!-- Node2 -->
<g id="node2" class="node">
<title>Node2</title>
<g id="a_node2"><a xlink:href="classitk_1_1PathSource.html" target="_top" xlink:title="Base class for all process objects that output path data.">
<polygon fill="white" stroke="black" points="11,-134.5 11,-164.5 151,-164.5 151,-134.5 11,-134.5"/>
<text text-anchor="start" x="19" y="-152.5" font-family="Helvetica,sans-Serif" font-size="10.00">itk::PathSource&lt; TOutput</text>
<text text-anchor="middle" x="81" y="-141.5" font-family="Helvetica,sans-Serif" font-size="10.00">Path &gt;</text>
</a>
</g>
</g>
<!-- Node2&#45;&gt;Node1 -->
<g id="edge1" class="edge">
<title>Node2&#45;&gt;Node1</title>
<path fill="none" stroke="midnightblue" d="M81,-124.11C81,-115.15 81,-105.32 81,-97.58"/>
<polygon fill="midnightblue" stroke="midnightblue" points="77.5,-124.4 81,-134.4 84.5,-124.4 77.5,-124.4"/>
</g>
<!-- Node3 -->
<g id="node3" class="node">
<title>Node3</title>
<g id="a_node3"><a xlink:href="classitk_1_1ProcessObject.html" target="_top" xlink:title="The base class for all process objects (source, filters, mappers) in the Insight data processing pipe...">
<polygon fill="white" stroke="black" points="29,-201.5 29,-220.5 133,-220.5 133,-201.5 29,-201.5"/>
<text text-anchor="middle" x="81" y="-208.5" font-family="Helvetica,sans-Serif" font-size="10.00">itk::ProcessObject</text>
</a>
</g>
</g>
<!-- Node3&#45;&gt;Node2 -->
<g id="edge2" class="edge">
<title>Node3&#45;&gt;Node2</title>
<path fill="none" stroke="midnightblue" d="M81,-191.23C81,-182.59 81,-172.5 81,-164.52"/>
<polygon fill="midnightblue" stroke="midnightblue" points="77.5,-191.48 81,-201.48 84.5,-191.48 77.5,-191.48"/>
</g>
<!-- Node4 -->
<g id="node4" class="node">
<title>Node4</title>
<g id="a_node4"><a xlink:href="classitk_1_1Object.html" target="_top" xlink:title="Base class for most ITK classes.">
<polygon fill="white" stroke="black" points="47.5,-257.5 47.5,-276.5 114.5,-276.5 114.5,-257.5 47.5,-257.5"/>
<text text-anchor="middle" x="81" y="-264.5" font-family="Helvetica,sans-Serif" font-size="10.00">itk::Object</text>
</a>
</g>
</g>
<!-- Node4&#45;&gt;Node3 -->
<g id="edge3" class="edge">
<title>Node4&#45;&gt;Node3</title>
<path fill="none" stroke="midnightblue" d="M81,-246.8C81,-237.91 81,-227.78 81,-220.75"/>
<polygon fill="midnightblue" stroke="midnightblue" points="77.5,-247.08 81,-257.08 84.5,-247.08 77.5,-247.08"/>
</g>
<!-- Node5 -->
<g id="node5" class="node">
<title>Node5</title>
<g id="a_node5"><a xlink:href="classitk_1_1LightObject.html" target="_top" xlink:title="Light weight base class for most itk classes.">
<polygon fill="white" stroke="black" points="35.5,-313.5 35.5,-332.5 126.5,-332.5 126.5,-313.5 35.5,-313.5"/>
<text text-anchor="middle" x="81" y="-320.5" font-family="Helvetica,sans-Serif" font-size="10.00">itk::LightObject</text>
</a>
</g>
</g>
<!-- Node5&#45;&gt;Node4 -->
<g id="edge4" class="edge">
<title>Node5&#45;&gt;Node4</title>
<path fill="none" stroke="midnightblue" d="M81,-302.8C81,-293.91 81,-283.78 81,-276.75"/>
<polygon fill="midnightblue" stroke="midnightblue" points="77.5,-303.08 81,-313.08 84.5,-303.08 77.5,-303.08"/>
</g>
</g>
</svg>
