<?xml version="1.0" encoding="UTF-8" standalone="no"?>
<!DOCTYPE svg PUBLIC "-//W3C//DTD SVG 1.1//EN"
 "http://www.w3.org/Graphics/SVG/1.1/DTD/svg11.dtd">
<!-- Generated by graphviz version 2.43.0 (0)
 -->
<!-- Title: itk::ScaleSkewVersor3DTransform&lt; TParametersValueType &gt; Pages: 1 -->
<svg width="221pt" height="553pt"
 viewBox="0.00 0.00 221.00 553.00" xmlns="http://www.w3.org/2000/svg" xmlns:xlink="http://www.w3.org/1999/xlink">
<g id="graph0" class="graph" transform="scale(1 1) rotate(0) translate(4 549)">
<title>itk::ScaleSkewVersor3DTransform&lt; TParametersValueType &gt;</title>
<polygon fill="white" stroke="transparent" points="-4,4 -4,-549 217,-549 217,4 -4,4"/>
<!-- Node1 -->
<g id="node1" class="node">
<title>Node1</title>
<g id="a_node1"><a xlink:title="ScaleSkewVersor3DTransform of a vector space (e.g. space coordinates)">
<polygon fill="#bfbfbf" stroke="black" points="16.5,-0.5 16.5,-30.5 196.5,-30.5 196.5,-0.5 16.5,-0.5"/>
<text text-anchor="start" x="24.5" y="-18.5" font-family="Helvetica,sans-Serif" font-size="10.00">itk::ScaleSkewVersor3DTransform</text>
<text text-anchor="middle" x="106.5" y="-7.5" font-family="Helvetica,sans-Serif" font-size="10.00">&lt; TParametersValueType &gt;</text>
</a>
</g>
</g>
<!-- Node2 -->
<g id="node2" class="node">
<title>Node2</title>
<g id="a_node2"><a xlink:href="classitk_1_1VersorRigid3DTransform.html" target="_top" xlink:title=" ">
<polygon fill="white" stroke="black" points="30,-67.5 30,-97.5 183,-97.5 183,-67.5 30,-67.5"/>
<text text-anchor="start" x="38" y="-85.5" font-family="Helvetica,sans-Serif" font-size="10.00">itk::VersorRigid3DTransform</text>
<text text-anchor="middle" x="106.5" y="-74.5" font-family="Helvetica,sans-Serif" font-size="10.00">&lt; double &gt;</text>
</a>
</g>
</g>
<!-- Node2&#45;&gt;Node1 -->
<g id="edge1" class="edge">
<title>Node2&#45;&gt;Node1</title>
<path fill="none" stroke="midnightblue" d="M106.5,-57.11C106.5,-48.15 106.5,-38.32 106.5,-30.58"/>
<polygon fill="midnightblue" stroke="midnightblue" points="103,-57.4 106.5,-67.4 110,-57.4 103,-57.4"/>
</g>
<!-- Node3 -->
<g id="node3" class="node">
<title>Node3</title>
<g id="a_node3"><a xlink:href="classitk_1_1VersorTransform.html" target="_top" xlink:title=" ">
<polygon fill="white" stroke="black" points="49,-134.5 49,-164.5 164,-164.5 164,-134.5 49,-134.5"/>
<text text-anchor="start" x="57" y="-152.5" font-family="Helvetica,sans-Serif" font-size="10.00">itk::VersorTransform</text>
<text text-anchor="middle" x="106.5" y="-141.5" font-family="Helvetica,sans-Serif" font-size="10.00">&lt; double &gt;</text>
</a>
</g>
</g>
<!-- Node3&#45;&gt;Node2 -->
<g id="edge2" class="edge">
<title>Node3&#45;&gt;Node2</title>
<path fill="none" stroke="midnightblue" d="M106.5,-124.11C106.5,-115.15 106.5,-105.32 106.5,-97.58"/>
<polygon fill="midnightblue" stroke="midnightblue" points="103,-124.4 106.5,-134.4 110,-124.4 103,-124.4"/>
</g>
<!-- Node4 -->
<g id="node4" class="node">
<title>Node4</title>
<g id="a_node4"><a xlink:href="classitk_1_1Rigid3DTransform.html" target="_top" xlink:title=" ">
<polygon fill="white" stroke="black" points="45.5,-201.5 45.5,-231.5 167.5,-231.5 167.5,-201.5 45.5,-201.5"/>
<text text-anchor="start" x="53.5" y="-219.5" font-family="Helvetica,sans-Serif" font-size="10.00">itk::Rigid3DTransform</text>
<text text-anchor="middle" x="106.5" y="-208.5" font-family="Helvetica,sans-Serif" font-size="10.00">&lt; double &gt;</text>
</a>
</g>
</g>
<!-- Node4&#45;&gt;Node3 -->
<g id="edge3" class="edge">
<title>Node4&#45;&gt;Node3</title>
<path fill="none" stroke="midnightblue" d="M106.5,-191.11C106.5,-182.15 106.5,-172.32 106.5,-164.58"/>
<polygon fill="midnightblue" stroke="midnightblue" points="103,-191.4 106.5,-201.4 110,-191.4 103,-191.4"/>
</g>
<!-- Node5 -->
<g id="node5" class="node">
<title>Node5</title>
<g id="a_node5"><a xlink:href="classitk_1_1MatrixOffsetTransformBase.html" target="_top" xlink:title=" ">
<polygon fill="white" stroke="black" points="34,-268.5 34,-298.5 179,-298.5 179,-268.5 34,-268.5"/>
<text text-anchor="start" x="42" y="-286.5" font-family="Helvetica,sans-Serif" font-size="10.00">itk::MatrixOffsetTransform</text>
<text text-anchor="middle" x="106.5" y="-275.5" font-family="Helvetica,sans-Serif" font-size="10.00">Base&lt; double, 3, 3 &gt;</text>
</a>
</g>
</g>
<!-- Node5&#45;&gt;Node4 -->
<g id="edge4" class="edge">
<title>Node5&#45;&gt;Node4</title>
<path fill="none" stroke="midnightblue" d="M106.5,-258.11C106.5,-249.15 106.5,-239.32 106.5,-231.58"/>
<polygon fill="midnightblue" stroke="midnightblue" points="103,-258.4 106.5,-268.4 110,-258.4 103,-258.4"/>
</g>
<!-- Node6 -->
<g id="node6" class="node">
<title>Node6</title>
<g id="a_node6"><a xlink:href="classitk_1_1Transform.html" target="_top" xlink:title=" ">
<polygon fill="white" stroke="black" points="0,-335.5 0,-365.5 213,-365.5 213,-335.5 0,-335.5"/>
<text text-anchor="start" x="8" y="-353.5" font-family="Helvetica,sans-Serif" font-size="10.00">itk::Transform&lt; double,</text>
<text text-anchor="middle" x="106.5" y="-342.5" font-family="Helvetica,sans-Serif" font-size="10.00"> VInputDimension, VOutputDimension &gt;</text>
</a>
</g>
</g>
<!-- Node6&#45;&gt;Node5 -->
<g id="edge5" class="edge">
<title>Node6&#45;&gt;Node5</title>
<path fill="none" stroke="midnightblue" d="M106.5,-325.11C106.5,-316.15 106.5,-306.32 106.5,-298.58"/>
<polygon fill="midnightblue" stroke="midnightblue" points="103,-325.4 106.5,-335.4 110,-325.4 103,-325.4"/>
</g>
<!-- Node7 -->
<g id="node7" class="node">
<title>Node7</title>
<g id="a_node7"><a xlink:href="classitk_1_1TransformBaseTemplate.html" target="_top" xlink:title=" ">
<polygon fill="white" stroke="black" points="30,-402.5 30,-432.5 183,-432.5 183,-402.5 30,-402.5"/>
<text text-anchor="start" x="38" y="-420.5" font-family="Helvetica,sans-Serif" font-size="10.00">itk::TransformBaseTemplate</text>
<text text-anchor="middle" x="106.5" y="-409.5" font-family="Helvetica,sans-Serif" font-size="10.00">&lt; double &gt;</text>
</a>
</g>
</g>
<!-- Node7&#45;&gt;Node6 -->
<g id="edge6" class="edge">
<title>Node7&#45;&gt;Node6</title>
<path fill="none" stroke="midnightblue" d="M106.5,-392.11C106.5,-383.15 106.5,-373.32 106.5,-365.58"/>
<polygon fill="midnightblue" stroke="midnightblue" points="103,-392.4 106.5,-402.4 110,-392.4 103,-392.4"/>
</g>
<!-- Node8 -->
<g id="node8" class="node">
<title>Node8</title>
<g id="a_node8"><a xlink:href="classitk_1_1Object.html" target="_top" xlink:title="Base class for most ITK classes.">
<polygon fill="white" stroke="black" points="73,-469.5 73,-488.5 140,-488.5 140,-469.5 73,-469.5"/>
<text text-anchor="middle" x="106.5" y="-476.5" font-family="Helvetica,sans-Serif" font-size="10.00">itk::Object</text>
</a>
</g>
</g>
<!-- Node8&#45;&gt;Node7 -->
<g id="edge7" class="edge">
<title>Node8&#45;&gt;Node7</title>
<path fill="none" stroke="midnightblue" d="M106.5,-459.23C106.5,-450.59 106.5,-440.5 106.5,-432.52"/>
<polygon fill="midnightblue" stroke="midnightblue" points="103,-459.48 106.5,-469.48 110,-459.48 103,-459.48"/>
</g>
<!-- Node9 -->
<g id="node9" class="node">
<title>Node9</title>
<g id="a_node9"><a xlink:href="classitk_1_1LightObject.html" target="_top" xlink:title="Light weight base class for most itk classes.">
<polygon fill="white" stroke="black" points="61,-525.5 61,-544.5 152,-544.5 152,-525.5 61,-525.5"/>
<text text-anchor="middle" x="106.5" y="-532.5" font-family="Helvetica,sans-Serif" font-size="10.00">itk::LightObject</text>
</a>
</g>
</g>
<!-- Node9&#45;&gt;Node8 -->
<g id="edge8" class="edge">
<title>Node9&#45;&gt;Node8</title>
<path fill="none" stroke="midnightblue" d="M106.5,-514.8C106.5,-505.91 106.5,-495.78 106.5,-488.75"/>
<polygon fill="midnightblue" stroke="midnightblue" points="103,-515.08 106.5,-525.08 110,-515.08 103,-515.08"/>
</g>
</g>
</svg>
