<?xml version="1.0" encoding="UTF-8" standalone="no"?>
<!DOCTYPE svg PUBLIC "-//W3C//DTD SVG 1.1//EN"
 "http://www.w3.org/Graphics/SVG/1.1/DTD/svg11.dtd">
<!-- Generated by graphviz version 2.43.0 (0)
 -->
<!-- Title: itk::ScalarAnisotropicDiffusionFunction&lt; TImage &gt; Pages: 1 -->
<svg width="1672pt" height="255pt"
 viewBox="0.00 0.00 1672.00 255.00" xmlns="http://www.w3.org/2000/svg" xmlns:xlink="http://www.w3.org/1999/xlink">
<g id="graph0" class="graph" transform="scale(1 1) rotate(0) translate(4 251)">
<title>itk::ScalarAnisotropicDiffusionFunction&lt; TImage &gt;</title>
<polygon fill="white" stroke="transparent" points="-4,4 -4,-251 1668,-251 1668,4 -4,4"/>
<!-- Node1 -->
<g id="node1" class="node">
<title>Node1</title>
<g id="a_node1"><a xlink:title=" ">
<polygon fill="#bfbfbf" stroke="black" points="1500,-140 1500,-170 1664,-170 1664,-140 1500,-140"/>
<text text-anchor="start" x="1508" y="-158" font-family="Helvetica,sans-Serif" font-size="10.00">itk::ScalarAnisotropicDiffusion</text>
<text text-anchor="middle" x="1582" y="-147" font-family="Helvetica,sans-Serif" font-size="10.00">Function&lt; TImage &gt;</text>
</a>
</g>
</g>
<!-- Node2 -->
<g id="node2" class="node">
<title>Node2</title>
<g id="a_node2"><a xlink:href="classitk_1_1AnisotropicDiffusionFunction.html" target="_top" xlink:title=" ">
<polygon fill="white" stroke="black" points="1329,-140 1329,-170 1463,-170 1463,-140 1329,-140"/>
<text text-anchor="start" x="1337" y="-158" font-family="Helvetica,sans-Serif" font-size="10.00">itk::AnisotropicDiffusion</text>
<text text-anchor="middle" x="1396" y="-147" font-family="Helvetica,sans-Serif" font-size="10.00">Function&lt; TImage &gt;</text>
</a>
</g>
</g>
<!-- Node2&#45;&gt;Node1 -->
<g id="edge1" class="edge">
<title>Node2&#45;&gt;Node1</title>
<path fill="none" stroke="midnightblue" d="M1473.29,-155C1482.01,-155 1490.92,-155 1499.7,-155"/>
<polygon fill="midnightblue" stroke="midnightblue" points="1473.17,-151.5 1463.17,-155 1473.17,-158.5 1473.17,-151.5"/>
</g>
<!-- Node3 -->
<g id="node3" class="node">
<title>Node3</title>
<g id="a_node3"><a xlink:href="classitk_1_1FiniteDifferenceFunction.html" target="_top" xlink:title=" ">
<polygon fill="white" stroke="black" points="1138,-140 1138,-170 1292,-170 1292,-140 1138,-140"/>
<text text-anchor="start" x="1146" y="-158" font-family="Helvetica,sans-Serif" font-size="10.00">itk::FiniteDifferenceFunction</text>
<text text-anchor="middle" x="1215" y="-147" font-family="Helvetica,sans-Serif" font-size="10.00">&lt; TImage &gt;</text>
</a>
</g>
</g>
<!-- Node3&#45;&gt;Node2 -->
<g id="edge2" class="edge">
<title>Node3&#45;&gt;Node2</title>
<path fill="none" stroke="midnightblue" d="M1302.22,-155C1311.15,-155 1320.13,-155 1328.79,-155"/>
<polygon fill="midnightblue" stroke="midnightblue" points="1302.17,-151.5 1292.17,-155 1302.17,-158.5 1302.17,-151.5"/>
</g>
<!-- Node4 -->
<g id="node4" class="node">
<title>Node4</title>
<g id="a_node4"><a xlink:href="classitk_1_1LightObject.html" target="_top" xlink:title="Light weight base class for most itk classes.">
<polygon fill="white" stroke="black" points="921,-197.5 921,-216.5 1012,-216.5 1012,-197.5 921,-197.5"/>
<text text-anchor="middle" x="966.5" y="-204.5" font-family="Helvetica,sans-Serif" font-size="10.00">itk::LightObject</text>
</a>
</g>
</g>
<!-- Node4&#45;&gt;Node3 -->
<g id="edge3" class="edge">
<title>Node4&#45;&gt;Node3</title>
<path fill="none" stroke="midnightblue" d="M1022.3,-195.44C1057.75,-187.96 1104.28,-178.15 1142.62,-170.06"/>
<polygon fill="midnightblue" stroke="midnightblue" points="1021.2,-192.09 1012.14,-197.58 1022.65,-198.94 1021.2,-192.09"/>
</g>
<!-- Node5 -->
<g id="node5" class="node">
<title>Node5</title>
<g id="a_node5"><a xlink:title=" ">
<polygon fill="white" stroke="#bfbfbf" points="552,-227.5 552,-246.5 659,-246.5 659,-227.5 552,-227.5"/>
<text text-anchor="middle" x="605.5" y="-234.5" font-family="Helvetica,sans-Serif" font-size="10.00">std::atomic&lt; int &gt;</text>
</a>
</g>
</g>
<!-- Node5&#45;&gt;Node4 -->
<g id="edge4" class="edge">
<title>Node5&#45;&gt;Node4</title>
<path fill="none" stroke="#9a32cd" stroke-dasharray="5,2" d="M669.39,-231.74C741.44,-225.72 857.71,-216.01 920.99,-210.72"/>
<polygon fill="#9a32cd" stroke="#9a32cd" points="668.76,-228.28 659.09,-232.61 669.34,-235.26 668.76,-228.28"/>
<text text-anchor="middle" x="790.5" y="-230" font-family="Helvetica,sans-Serif" font-size="10.00"> m_ReferenceCount</text>
</g>
<!-- Node6 -->
<g id="node6" class="node">
<title>Node6</title>
<g id="a_node6"><a xlink:href="classitk_1_1ConstNeighborhoodIterator.html" target="_top" xlink:title=" ">
<polygon fill="white" stroke="black" points="883,-118 883,-148 1050,-148 1050,-118 883,-118"/>
<text text-anchor="start" x="891" y="-136" font-family="Helvetica,sans-Serif" font-size="10.00">itk::ConstNeighborhoodIterator</text>
<text text-anchor="middle" x="966.5" y="-125" font-family="Helvetica,sans-Serif" font-size="10.00">&lt; TImage &gt;</text>
</a>
</g>
</g>
<!-- Node6&#45;&gt;Node3 -->
<g id="edge5" class="edge">
<title>Node6&#45;&gt;Node3</title>
<path fill="none" stroke="#9a32cd" stroke-dasharray="5,2" d="M1060.32,-141.28C1085.84,-143.56 1113.21,-146 1137.69,-148.19"/>
<polygon fill="#9a32cd" stroke="#9a32cd" points="1060.54,-137.79 1050.27,-140.39 1059.92,-144.76 1060.54,-137.79"/>
<text text-anchor="middle" x="1094" y="-148" font-family="Helvetica,sans-Serif" font-size="10.00"> m_Radius</text>
</g>
<!-- Node7 -->
<g id="node7" class="node">
<title>Node7</title>
<g id="a_node7"><a xlink:href="classitk_1_1Neighborhood.html" target="_top" xlink:title=" ">
<polygon fill="white" stroke="black" points="521.5,-167.5 521.5,-208.5 689.5,-208.5 689.5,-167.5 521.5,-167.5"/>
<text text-anchor="start" x="529.5" y="-196.5" font-family="Helvetica,sans-Serif" font-size="10.00">itk::Neighborhood&lt;</text>
<text text-anchor="start" x="529.5" y="-185.5" font-family="Helvetica,sans-Serif" font-size="10.00"> TImage::InternalPixelType</text>
<text text-anchor="middle" x="605.5" y="-174.5" font-family="Helvetica,sans-Serif" font-size="10.00"> *, TImage::ImageDimension &gt;</text>
</a>
</g>
</g>
<!-- Node7&#45;&gt;Node6 -->
<g id="edge6" class="edge">
<title>Node7&#45;&gt;Node6</title>
<path fill="none" stroke="midnightblue" d="M699.81,-173.7C756.55,-165.01 828.35,-154.01 883,-145.64"/>
<polygon fill="midnightblue" stroke="midnightblue" points="699.12,-170.27 689.76,-175.24 700.18,-177.19 699.12,-170.27"/>
</g>
<!-- Node8 -->
<g id="node8" class="node">
<title>Node8</title>
<g id="a_node8"><a xlink:title=" ">
<polygon fill="white" stroke="#bfbfbf" points="248,-200.5 248,-219.5 387,-219.5 387,-200.5 248,-200.5"/>
<text text-anchor="middle" x="317.5" y="-207.5" font-family="Helvetica,sans-Serif" font-size="10.00">std::vector&lt; itk::Offset &gt;</text>
</a>
</g>
</g>
<!-- Node8&#45;&gt;Node7 -->
<g id="edge7" class="edge">
<title>Node8&#45;&gt;Node7</title>
<path fill="none" stroke="#9a32cd" stroke-dasharray="5,2" d="M397.14,-203.95C435.68,-200.99 482.11,-197.41 521.25,-194.4"/>
<polygon fill="#9a32cd" stroke="#9a32cd" points="396.71,-200.47 387,-204.73 397.24,-207.45 396.71,-200.47"/>
<text text-anchor="middle" x="458.5" y="-204" font-family="Helvetica,sans-Serif" font-size="10.00"> m_OffsetTable</text>
</g>
<!-- Node9 -->
<g id="node9" class="node">
<title>Node9</title>
<g id="a_node9"><a xlink:href="structitk_1_1Offset.html" target="_top" xlink:title="Represent a n&#45;dimensional offset between two n&#45;dimensional indexes of n&#45;dimensional image.">
<polygon fill="white" stroke="black" points="0,-200.5 0,-219.5 146,-219.5 146,-200.5 0,-200.5"/>
<text text-anchor="middle" x="73" y="-207.5" font-family="Helvetica,sans-Serif" font-size="10.00">itk::Offset&lt; VDimension &gt;</text>
</a>
</g>
</g>
<!-- Node9&#45;&gt;Node8 -->
<g id="edge8" class="edge">
<title>Node9&#45;&gt;Node8</title>
<path fill="none" stroke="#9a32cd" stroke-dasharray="5,2" d="M156.43,-210C186.09,-210 219.21,-210 247.59,-210"/>
<polygon fill="#9a32cd" stroke="#9a32cd" points="156.1,-206.5 146.1,-210 156.1,-213.5 156.1,-206.5"/>
<text text-anchor="middle" x="188.5" y="-213" font-family="Helvetica,sans-Serif" font-size="10.00"> elements</text>
</g>
<!-- Node10 -->
<g id="node10" class="node">
<title>Node10</title>
<g id="a_node10"><a xlink:href="classitk_1_1NeighborhoodAllocator.html" target="_top" xlink:title=" ">
<polygon fill="white" stroke="black" points="231,-151 231,-181 404,-181 404,-151 231,-151"/>
<text text-anchor="start" x="239" y="-169" font-family="Helvetica,sans-Serif" font-size="10.00">itk::NeighborhoodAllocator</text>
<text text-anchor="middle" x="317.5" y="-158" font-family="Helvetica,sans-Serif" font-size="10.00">&lt; TImage::InternalPixelType * &gt;</text>
</a>
</g>
</g>
<!-- Node10&#45;&gt;Node7 -->
<g id="edge9" class="edge">
<title>Node10&#45;&gt;Node7</title>
<path fill="none" stroke="#9a32cd" stroke-dasharray="5,2" d="M414.43,-173.38C449.03,-176.04 487.77,-179.02 521.21,-181.59"/>
<polygon fill="#9a32cd" stroke="#9a32cd" points="414.55,-169.88 404.31,-172.6 414.01,-176.86 414.55,-169.88"/>
<text text-anchor="middle" x="458.5" y="-181" font-family="Helvetica,sans-Serif" font-size="10.00"> m_DataBuffer</text>
</g>
<!-- Node11 -->
<g id="node11" class="node">
<title>Node11</title>
<g id="a_node11"><a xlink:title=" ">
<polygon fill="white" stroke="#bfbfbf" points="4.5,-151 4.5,-181 141.5,-181 141.5,-151 4.5,-151"/>
<text text-anchor="start" x="12.5" y="-169" font-family="Helvetica,sans-Serif" font-size="10.00">std::unique_ptr&lt; TImage</text>
<text text-anchor="middle" x="73" y="-158" font-family="Helvetica,sans-Serif" font-size="10.00">::InternalPixelType *[]&gt;</text>
</a>
</g>
</g>
<!-- Node11&#45;&gt;Node10 -->
<g id="edge10" class="edge">
<title>Node11&#45;&gt;Node10</title>
<path fill="none" stroke="#9a32cd" stroke-dasharray="5,2" d="M151.77,-166C176.93,-166 204.96,-166 230.67,-166"/>
<polygon fill="#9a32cd" stroke="#9a32cd" points="151.55,-162.5 141.55,-166 151.55,-169.5 151.55,-162.5"/>
<text text-anchor="middle" x="188.5" y="-169" font-family="Helvetica,sans-Serif" font-size="10.00"> m_Data</text>
</g>
<!-- Node12 -->
<g id="node12" class="node">
<title>Node12</title>
<g id="a_node12"><a xlink:href="classitk_1_1ImageBoundaryCondition.html" target="_top" xlink:title=" ">
<polygon fill="white" stroke="black" points="513,-118 513,-148 698,-148 698,-118 513,-118"/>
<text text-anchor="start" x="521" y="-136" font-family="Helvetica,sans-Serif" font-size="10.00">itk::ImageBoundaryCondition</text>
<text text-anchor="middle" x="605.5" y="-125" font-family="Helvetica,sans-Serif" font-size="10.00">&lt; ImageType, OutputImageType &gt;</text>
</a>
</g>
</g>
<!-- Node12&#45;&gt;Node6 -->
<g id="edge11" class="edge">
<title>Node12&#45;&gt;Node6</title>
<path fill="none" stroke="#9a32cd" stroke-dasharray="5,2" d="M708.18,-133C763.39,-133 830.78,-133 882.74,-133"/>
<polygon fill="#9a32cd" stroke="#9a32cd" points="708.02,-129.5 698.02,-133 708.02,-136.5 708.02,-129.5"/>
<text text-anchor="middle" x="790.5" y="-136" font-family="Helvetica,sans-Serif" font-size="10.00"> m_BoundaryCondition</text>
</g>
<!-- Node13 -->
<g id="node13" class="node">
<title>Node13</title>
<g id="a_node13"><a xlink:href="classitk_1_1ZeroFluxNeumannBoundaryCondition.html" target="_top" xlink:title=" ">
<polygon fill="white" stroke="black" points="519,-69 519,-99 692,-99 692,-69 519,-69"/>
<text text-anchor="start" x="527" y="-87" font-family="Helvetica,sans-Serif" font-size="10.00">itk::ZeroFluxNeumannBoundary</text>
<text text-anchor="middle" x="605.5" y="-76" font-family="Helvetica,sans-Serif" font-size="10.00">Condition&lt; TImage &gt;</text>
</a>
</g>
</g>
<!-- Node13&#45;&gt;Node6 -->
<g id="edge12" class="edge">
<title>Node13&#45;&gt;Node6</title>
<path fill="none" stroke="#9a32cd" stroke-dasharray="5,2" d="M702.35,-96.2C751.08,-102.51 811.22,-110.45 865,-118 870.85,-118.82 876.89,-119.68 882.98,-120.57"/>
<polygon fill="#9a32cd" stroke="#9a32cd" points="702.5,-92.69 692.13,-94.88 701.6,-99.64 702.5,-92.69"/>
<text text-anchor="middle" x="790.5" y="-121" font-family="Helvetica,sans-Serif" font-size="10.00"> m_InternalBoundaryCondition</text>
</g>
<!-- Node14 -->
<g id="node14" class="node">
<title>Node14</title>
<g id="a_node14"><a xlink:href="classitk_1_1ImageBoundaryCondition.html" target="_top" xlink:title=" ">
<polygon fill="white" stroke="black" points="238,-69 238,-99 397,-99 397,-69 238,-69"/>
<text text-anchor="start" x="246" y="-87" font-family="Helvetica,sans-Serif" font-size="10.00">itk::ImageBoundaryCondition</text>
<text text-anchor="middle" x="317.5" y="-76" font-family="Helvetica,sans-Serif" font-size="10.00">&lt; TImage, TImage &gt;</text>
</a>
</g>
</g>
<!-- Node14&#45;&gt;Node13 -->
<g id="edge13" class="edge">
<title>Node14&#45;&gt;Node13</title>
<path fill="none" stroke="midnightblue" d="M407.39,-84C442.92,-84 483.67,-84 518.87,-84"/>
<polygon fill="midnightblue" stroke="midnightblue" points="407.03,-80.5 397.03,-84 407.03,-87.5 407.03,-80.5"/>
</g>
<!-- Node15 -->
<g id="node15" class="node">
<title>Node15</title>
<g id="a_node15"><a xlink:href="structitk_1_1Index.html" target="_top" xlink:title=" ">
<polygon fill="white" stroke="black" points="525,-0.5 525,-19.5 686,-19.5 686,-0.5 525,-0.5"/>
<text text-anchor="middle" x="605.5" y="-7.5" font-family="Helvetica,sans-Serif" font-size="10.00">itk::Index&lt; Self::Dimension &gt;</text>
</a>
</g>
</g>
<!-- Node15&#45;&gt;Node6 -->
<g id="edge14" class="edge">
<title>Node15&#45;&gt;Node6</title>
<path fill="none" stroke="#9a32cd" stroke-dasharray="5,2" d="M696.4,-0.67C748.03,0.96 812.78,-3.52 865,-28 907.27,-47.82 940.93,-93.83 956.35,-117.82"/>
<polygon fill="#9a32cd" stroke="#9a32cd" points="696.11,2.82 686.26,-1.08 696.39,-4.18 696.11,2.82"/>
<text text-anchor="middle" x="790.5" y="-86" font-family="Helvetica,sans-Serif" font-size="10.00"> m_BeginIndex</text>
<text text-anchor="middle" x="790.5" y="-75" font-family="Helvetica,sans-Serif" font-size="10.00">m_InnerBoundsLow</text>
<text text-anchor="middle" x="790.5" y="-64" font-family="Helvetica,sans-Serif" font-size="10.00">m_Loop</text>
<text text-anchor="middle" x="790.5" y="-53" font-family="Helvetica,sans-Serif" font-size="10.00">m_InnerBoundsHigh</text>
<text text-anchor="middle" x="790.5" y="-42" font-family="Helvetica,sans-Serif" font-size="10.00">m_EndIndex</text>
<text text-anchor="middle" x="790.5" y="-31" font-family="Helvetica,sans-Serif" font-size="10.00">m_Bound</text>
</g>
</g>
</svg>
