<?xml version="1.0" encoding="UTF-8" standalone="no"?>
<!DOCTYPE svg PUBLIC "-//W3C//DTD SVG 1.1//EN"
 "http://www.w3.org/Graphics/SVG/1.1/DTD/svg11.dtd">
<!-- Generated by graphviz version 2.43.0 (0)
 -->
<!-- Title: itk::ConstantVelocityFieldTransform&lt; TParametersValueType, VDimension &gt; Pages: 1 -->
<svg width="1348pt" height="122pt"
 viewBox="0.00 0.00 1348.00 121.50" xmlns="http://www.w3.org/2000/svg" xmlns:xlink="http://www.w3.org/1999/xlink">
<g id="graph0" class="graph" transform="scale(1 1) rotate(0) translate(4 117.5)">
<title>itk::ConstantVelocityFieldTransform&lt; TParametersValueType, VDimension &gt;</title>
<polygon fill="white" stroke="transparent" points="-4,4 -4,-117.5 1344,-117.5 1344,4 -4,4"/>
<!-- Node1 -->
<g id="node1" class="node">
<title>Node1</title>
<g id="a_node1"><a xlink:title="Provides local/dense/high&#45;dimensionality transformation via a a constant velocity field.">
<polygon fill="#bfbfbf" stroke="black" points="914,-39 914,-80 1105,-80 1105,-39 914,-39"/>
<text text-anchor="start" x="922" y="-68" font-family="Helvetica,sans-Serif" font-size="10.00">itk::ConstantVelocityField</text>
<text text-anchor="start" x="922" y="-57" font-family="Helvetica,sans-Serif" font-size="10.00">Transform&lt; TParametersValueType,</text>
<text text-anchor="middle" x="1009.5" y="-46" font-family="Helvetica,sans-Serif" font-size="10.00"> VDimension &gt;</text>
</a>
</g>
</g>
<!-- Node7 -->
<g id="node7" class="node">
<title>Node7</title>
<g id="a_node7"><a xlink:href="classitk_1_1BSplineExponentialDiffeomorphicTransform.html" target="_top" xlink:title="Exponential transform using B&#45;splines as the smoothing kernel.">
<polygon fill="white" stroke="black" points="1141,-72 1141,-113 1340,-113 1340,-72 1141,-72"/>
<text text-anchor="start" x="1149" y="-101" font-family="Helvetica,sans-Serif" font-size="10.00">itk::BSplineExponentialDiffeomorphic</text>
<text text-anchor="start" x="1149" y="-90" font-family="Helvetica,sans-Serif" font-size="10.00">Transform&lt; TParametersValueType,</text>
<text text-anchor="middle" x="1240.5" y="-79" font-family="Helvetica,sans-Serif" font-size="10.00"> VDimension &gt;</text>
</a>
</g>
</g>
<!-- Node1&#45;&gt;Node7 -->
<g id="edge6" class="edge">
<title>Node1&#45;&gt;Node7</title>
<path fill="none" stroke="midnightblue" d="M1115.21,-74.59C1123.7,-75.81 1132.26,-77.05 1140.7,-78.26"/>
<polygon fill="midnightblue" stroke="midnightblue" points="1115.69,-71.12 1105.3,-73.16 1114.69,-78.05 1115.69,-71.12"/>
</g>
<!-- Node8 -->
<g id="node8" class="node">
<title>Node8</title>
<g id="a_node8"><a xlink:href="classitk_1_1GaussianExponentialDiffeomorphicTransform.html" target="_top" xlink:title="Exponential transform using a Gaussian smoothing kernel.">
<polygon fill="white" stroke="black" points="1169.5,-0.5 1169.5,-52.5 1311.5,-52.5 1311.5,-0.5 1169.5,-0.5"/>
<text text-anchor="start" x="1177.5" y="-40.5" font-family="Helvetica,sans-Serif" font-size="10.00">itk::GaussianExponential</text>
<text text-anchor="start" x="1177.5" y="-29.5" font-family="Helvetica,sans-Serif" font-size="10.00">DiffeomorphicTransform</text>
<text text-anchor="start" x="1177.5" y="-18.5" font-family="Helvetica,sans-Serif" font-size="10.00">&lt; TParametersValueType,</text>
<text text-anchor="middle" x="1240.5" y="-7.5" font-family="Helvetica,sans-Serif" font-size="10.00"> VDimension &gt;</text>
</a>
</g>
</g>
<!-- Node1&#45;&gt;Node8 -->
<g id="edge7" class="edge">
<title>Node1&#45;&gt;Node8</title>
<path fill="none" stroke="midnightblue" d="M1115.39,-44.38C1133.64,-41.75 1152.22,-39.08 1169.25,-36.62"/>
<polygon fill="midnightblue" stroke="midnightblue" points="1114.69,-40.95 1105.3,-45.84 1115.69,-47.88 1114.69,-40.95"/>
</g>
<!-- Node2 -->
<g id="node2" class="node">
<title>Node2</title>
<g id="a_node2"><a xlink:href="classitk_1_1DisplacementFieldTransform.html" target="_top" xlink:title="Provides local/dense/high&#45;dimensionality transformation via a a displacement field.">
<polygon fill="white" stroke="black" points="663,-44.5 663,-74.5 878,-74.5 878,-44.5 663,-44.5"/>
<text text-anchor="start" x="671" y="-62.5" font-family="Helvetica,sans-Serif" font-size="10.00">itk::DisplacementFieldTransform</text>
<text text-anchor="middle" x="770.5" y="-51.5" font-family="Helvetica,sans-Serif" font-size="10.00">&lt; TParametersValueType, VDimension &gt;</text>
</a>
</g>
</g>
<!-- Node2&#45;&gt;Node1 -->
<g id="edge1" class="edge">
<title>Node2&#45;&gt;Node1</title>
<path fill="none" stroke="midnightblue" d="M888.3,-59.5C896.9,-59.5 905.51,-59.5 913.96,-59.5"/>
<polygon fill="midnightblue" stroke="midnightblue" points="888.21,-56 878.21,-59.5 888.21,-63 888.21,-56"/>
</g>
<!-- Node3 -->
<g id="node3" class="node">
<title>Node3</title>
<g id="a_node3"><a xlink:href="classitk_1_1Transform.html" target="_top" xlink:title=" ">
<polygon fill="white" stroke="black" points="419,-44.5 419,-74.5 627,-74.5 627,-44.5 419,-44.5"/>
<text text-anchor="start" x="427" y="-62.5" font-family="Helvetica,sans-Serif" font-size="10.00">itk::Transform&lt; TParameters</text>
<text text-anchor="middle" x="523" y="-51.5" font-family="Helvetica,sans-Serif" font-size="10.00">ValueType, VDimension, VDimension &gt;</text>
</a>
</g>
</g>
<!-- Node3&#45;&gt;Node2 -->
<g id="edge2" class="edge">
<title>Node3&#45;&gt;Node2</title>
<path fill="none" stroke="midnightblue" d="M637.06,-59.5C645.62,-59.5 654.25,-59.5 662.77,-59.5"/>
<polygon fill="midnightblue" stroke="midnightblue" points="637.05,-56 627.05,-59.5 637.05,-63 637.05,-56"/>
</g>
<!-- Node4 -->
<g id="node4" class="node">
<title>Node4</title>
<g id="a_node4"><a xlink:href="classitk_1_1TransformBaseTemplate.html" target="_top" xlink:title=" ">
<polygon fill="white" stroke="black" points="230,-44.5 230,-74.5 383,-74.5 383,-44.5 230,-44.5"/>
<text text-anchor="start" x="238" y="-62.5" font-family="Helvetica,sans-Serif" font-size="10.00">itk::TransformBaseTemplate</text>
<text text-anchor="middle" x="306.5" y="-51.5" font-family="Helvetica,sans-Serif" font-size="10.00">&lt; TParametersValueType &gt;</text>
</a>
</g>
</g>
<!-- Node4&#45;&gt;Node3 -->
<g id="edge3" class="edge">
<title>Node4&#45;&gt;Node3</title>
<path fill="none" stroke="midnightblue" d="M393.29,-59.5C401.7,-59.5 410.31,-59.5 418.87,-59.5"/>
<polygon fill="midnightblue" stroke="midnightblue" points="393.12,-56 383.12,-59.5 393.12,-63 393.12,-56"/>
</g>
<!-- Node5 -->
<g id="node5" class="node">
<title>Node5</title>
<g id="a_node5"><a xlink:href="classitk_1_1Object.html" target="_top" xlink:title="Base class for most ITK classes.">
<polygon fill="white" stroke="black" points="127,-50 127,-69 194,-69 194,-50 127,-50"/>
<text text-anchor="middle" x="160.5" y="-57" font-family="Helvetica,sans-Serif" font-size="10.00">itk::Object</text>
</a>
</g>
</g>
<!-- Node5&#45;&gt;Node4 -->
<g id="edge4" class="edge">
<title>Node5&#45;&gt;Node4</title>
<path fill="none" stroke="midnightblue" d="M204.38,-59.5C212.44,-59.5 221.07,-59.5 229.79,-59.5"/>
<polygon fill="midnightblue" stroke="midnightblue" points="204.18,-56 194.18,-59.5 204.18,-63 204.18,-56"/>
</g>
<!-- Node6 -->
<g id="node6" class="node">
<title>Node6</title>
<g id="a_node6"><a xlink:href="classitk_1_1LightObject.html" target="_top" xlink:title="Light weight base class for most itk classes.">
<polygon fill="white" stroke="black" points="0,-50 0,-69 91,-69 91,-50 0,-50"/>
<text text-anchor="middle" x="45.5" y="-57" font-family="Helvetica,sans-Serif" font-size="10.00">itk::LightObject</text>
</a>
</g>
</g>
<!-- Node6&#45;&gt;Node5 -->
<g id="edge5" class="edge">
<title>Node6&#45;&gt;Node5</title>
<path fill="none" stroke="midnightblue" d="M101.28,-59.5C109.96,-59.5 118.69,-59.5 126.66,-59.5"/>
<polygon fill="midnightblue" stroke="midnightblue" points="101.16,-56 91.16,-59.5 101.16,-63 101.16,-56"/>
</g>
</g>
</svg>
