<?xml version="1.0" encoding="UTF-8" standalone="no"?>
<!DOCTYPE svg PUBLIC "-//W3C//DTD SVG 1.1//EN"
 "http://www.w3.org/Graphics/SVG/1.1/DTD/svg11.dtd">
<!-- Generated by graphviz version 2.43.0 (0)
 -->
<!-- Title: itk::IterativeDeconvolutionImageFilter&lt; TInputImage, TKernelImage, TOutputImage, TInternalPrecision &gt; Pages: 1 -->
<svg width="396pt" height="519pt"
 viewBox="0.00 0.00 396.00 519.00" xmlns="http://www.w3.org/2000/svg" xmlns:xlink="http://www.w3.org/1999/xlink">
<g id="graph0" class="graph" transform="scale(1 1) rotate(0) translate(4 515)">
<title>itk::IterativeDeconvolutionImageFilter&lt; TInputImage, TKernelImage, TOutputImage, TInternalPrecision &gt;</title>
<polygon fill="white" stroke="transparent" points="-4,4 -4,-515 392,-515 392,4 -4,4"/>
<!-- Node1 -->
<g id="node1" class="node">
<title>Node1</title>
<g id="a_node1"><a xlink:title="Abstract base class for filters that implement iterative deconvolution algorithms.">
<polygon fill="#bfbfbf" stroke="black" points="128,-0.5 128,-52.5 294,-52.5 294,-0.5 128,-0.5"/>
<text text-anchor="start" x="136" y="-40.5" font-family="Helvetica,sans-Serif" font-size="10.00">itk::IterativeDeconvolution</text>
<text text-anchor="start" x="136" y="-29.5" font-family="Helvetica,sans-Serif" font-size="10.00">ImageFilter&lt; TInputImage,</text>
<text text-anchor="start" x="136" y="-18.5" font-family="Helvetica,sans-Serif" font-size="10.00"> TKernelImage, TOutputImage,</text>
<text text-anchor="middle" x="211" y="-7.5" font-family="Helvetica,sans-Serif" font-size="10.00"> TInternalPrecision &gt;</text>
</a>
</g>
</g>
<!-- Node2 -->
<g id="node2" class="node">
<title>Node2</title>
<g id="a_node2"><a xlink:href="classitk_1_1FFTConvolutionImageFilter.html" target="_top" xlink:title=" ">
<polygon fill="white" stroke="black" points="118.5,-89.5 118.5,-130.5 303.5,-130.5 303.5,-89.5 118.5,-89.5"/>
<text text-anchor="start" x="126.5" y="-118.5" font-family="Helvetica,sans-Serif" font-size="10.00">itk::FFTConvolutionImage</text>
<text text-anchor="start" x="126.5" y="-107.5" font-family="Helvetica,sans-Serif" font-size="10.00">Filter&lt; TInputImage, TInputImage,</text>
<text text-anchor="middle" x="211" y="-96.5" font-family="Helvetica,sans-Serif" font-size="10.00"> TInputImage, double &gt;</text>
</a>
</g>
</g>
<!-- Node2&#45;&gt;Node1 -->
<g id="edge1" class="edge">
<title>Node2&#45;&gt;Node1</title>
<path fill="none" stroke="midnightblue" d="M211,-79.12C211,-70.41 211,-60.99 211,-52.61"/>
<polygon fill="midnightblue" stroke="midnightblue" points="207.5,-79.27 211,-89.27 214.5,-79.27 207.5,-79.27"/>
</g>
<!-- Node3 -->
<g id="node3" class="node">
<title>Node3</title>
<g id="a_node3"><a xlink:href="classitk_1_1ConvolutionImageFilterBase.html" target="_top" xlink:title=" ">
<polygon fill="white" stroke="black" points="119,-167.5 119,-208.5 303,-208.5 303,-167.5 119,-167.5"/>
<text text-anchor="start" x="127" y="-196.5" font-family="Helvetica,sans-Serif" font-size="10.00">itk::ConvolutionImageFilter</text>
<text text-anchor="start" x="127" y="-185.5" font-family="Helvetica,sans-Serif" font-size="10.00">Base&lt; TInputImage, TInputImage,</text>
<text text-anchor="middle" x="211" y="-174.5" font-family="Helvetica,sans-Serif" font-size="10.00"> TInputImage &gt;</text>
</a>
</g>
</g>
<!-- Node3&#45;&gt;Node2 -->
<g id="edge2" class="edge">
<title>Node3&#45;&gt;Node2</title>
<path fill="none" stroke="midnightblue" d="M211,-157.3C211,-148.3 211,-138.65 211,-130.51"/>
<polygon fill="midnightblue" stroke="midnightblue" points="207.5,-157.43 211,-167.43 214.5,-157.43 207.5,-157.43"/>
</g>
<!-- Node4 -->
<g id="node4" class="node">
<title>Node4</title>
<g id="a_node4"><a xlink:href="classitk_1_1ImageToImageFilter.html" target="_top" xlink:title=" ">
<polygon fill="white" stroke="black" points="127,-245.5 127,-275.5 295,-275.5 295,-245.5 127,-245.5"/>
<text text-anchor="start" x="135" y="-263.5" font-family="Helvetica,sans-Serif" font-size="10.00">itk::ImageToImageFilter</text>
<text text-anchor="middle" x="211" y="-252.5" font-family="Helvetica,sans-Serif" font-size="10.00">&lt; TInputImage, TInputImage &gt;</text>
</a>
</g>
</g>
<!-- Node4&#45;&gt;Node3 -->
<g id="edge3" class="edge">
<title>Node4&#45;&gt;Node3</title>
<path fill="none" stroke="midnightblue" d="M211,-234.98C211,-226.35 211,-216.76 211,-208.59"/>
<polygon fill="midnightblue" stroke="midnightblue" points="207.5,-235.23 211,-245.23 214.5,-235.23 207.5,-235.23"/>
</g>
<!-- Node5 -->
<g id="node5" class="node">
<title>Node5</title>
<g id="a_node5"><a xlink:href="classitk_1_1ImageSource.html" target="_top" xlink:title=" ">
<polygon fill="white" stroke="black" points="52.5,-312.5 52.5,-342.5 193.5,-342.5 193.5,-312.5 52.5,-312.5"/>
<text text-anchor="start" x="60.5" y="-330.5" font-family="Helvetica,sans-Serif" font-size="10.00">itk::ImageSource&lt; TInput</text>
<text text-anchor="middle" x="123" y="-319.5" font-family="Helvetica,sans-Serif" font-size="10.00">Image &gt;</text>
</a>
</g>
</g>
<!-- Node5&#45;&gt;Node4 -->
<g id="edge4" class="edge">
<title>Node5&#45;&gt;Node4</title>
<path fill="none" stroke="midnightblue" d="M150.14,-306.45C163.68,-296.45 179.73,-284.6 191.94,-275.58"/>
<polygon fill="midnightblue" stroke="midnightblue" points="148.06,-303.64 142.09,-312.4 152.22,-309.27 148.06,-303.64"/>
</g>
<!-- Node6 -->
<g id="node6" class="node">
<title>Node6</title>
<g id="a_node6"><a xlink:href="classitk_1_1ProcessObject.html" target="_top" xlink:title="The base class for all process objects (source, filters, mappers) in the Insight data processing pipe...">
<polygon fill="white" stroke="black" points="0,-379.5 0,-398.5 104,-398.5 104,-379.5 0,-379.5"/>
<text text-anchor="middle" x="52" y="-386.5" font-family="Helvetica,sans-Serif" font-size="10.00">itk::ProcessObject</text>
</a>
</g>
</g>
<!-- Node6&#45;&gt;Node5 -->
<g id="edge5" class="edge">
<title>Node6&#45;&gt;Node5</title>
<path fill="none" stroke="midnightblue" d="M69.99,-372.92C81.14,-363.58 95.36,-351.66 106.27,-342.52"/>
<polygon fill="midnightblue" stroke="midnightblue" points="67.59,-370.37 62.17,-379.48 72.09,-375.73 67.59,-370.37"/>
</g>
<!-- Node7 -->
<g id="node7" class="node">
<title>Node7</title>
<g id="a_node7"><a xlink:href="classitk_1_1Object.html" target="_top" xlink:title="Base class for most ITK classes.">
<polygon fill="white" stroke="black" points="18.5,-435.5 18.5,-454.5 85.5,-454.5 85.5,-435.5 18.5,-435.5"/>
<text text-anchor="middle" x="52" y="-442.5" font-family="Helvetica,sans-Serif" font-size="10.00">itk::Object</text>
</a>
</g>
</g>
<!-- Node7&#45;&gt;Node6 -->
<g id="edge6" class="edge">
<title>Node7&#45;&gt;Node6</title>
<path fill="none" stroke="midnightblue" d="M52,-424.8C52,-415.91 52,-405.78 52,-398.75"/>
<polygon fill="midnightblue" stroke="midnightblue" points="48.5,-425.08 52,-435.08 55.5,-425.08 48.5,-425.08"/>
</g>
<!-- Node8 -->
<g id="node8" class="node">
<title>Node8</title>
<g id="a_node8"><a xlink:href="classitk_1_1LightObject.html" target="_top" xlink:title="Light weight base class for most itk classes.">
<polygon fill="white" stroke="black" points="6.5,-491.5 6.5,-510.5 97.5,-510.5 97.5,-491.5 6.5,-491.5"/>
<text text-anchor="middle" x="52" y="-498.5" font-family="Helvetica,sans-Serif" font-size="10.00">itk::LightObject</text>
</a>
</g>
</g>
<!-- Node8&#45;&gt;Node7 -->
<g id="edge7" class="edge">
<title>Node8&#45;&gt;Node7</title>
<path fill="none" stroke="midnightblue" d="M52,-480.8C52,-471.91 52,-461.78 52,-454.75"/>
<polygon fill="midnightblue" stroke="midnightblue" points="48.5,-481.08 52,-491.08 55.5,-481.08 48.5,-481.08"/>
</g>
<!-- Node9 -->
<g id="node9" class="node">
<title>Node9</title>
<g id="a_node9"><a xlink:href="structitk_1_1ImageSourceCommon.html" target="_top" xlink:title="Secondary base class of ImageSource common between templates.">
<polygon fill="white" stroke="black" points="122.5,-379.5 122.5,-398.5 265.5,-398.5 265.5,-379.5 122.5,-379.5"/>
<text text-anchor="middle" x="194" y="-386.5" font-family="Helvetica,sans-Serif" font-size="10.00">itk::ImageSourceCommon</text>
</a>
</g>
</g>
<!-- Node9&#45;&gt;Node5 -->
<g id="edge8" class="edge">
<title>Node9&#45;&gt;Node5</title>
<path fill="none" stroke="#8b1a1a" d="M176.01,-372.92C164.86,-363.58 150.64,-351.66 139.73,-342.52"/>
<polygon fill="#8b1a1a" stroke="#8b1a1a" points="173.91,-375.73 183.83,-379.48 178.41,-370.37 173.91,-375.73"/>
</g>
<!-- Node10 -->
<g id="node10" class="node">
<title>Node10</title>
<g id="a_node10"><a xlink:href="classitk_1_1ImageToImageFilterCommon.html" target="_top" xlink:title="Secondary base class of ImageToImageFilter common between templates.">
<polygon fill="white" stroke="black" points="212,-318 212,-337 388,-337 388,-318 212,-318"/>
<text text-anchor="middle" x="300" y="-325" font-family="Helvetica,sans-Serif" font-size="10.00">itk::ImageToImageFilterCommon</text>
</a>
</g>
</g>
<!-- Node10&#45;&gt;Node4 -->
<g id="edge9" class="edge">
<title>Node10&#45;&gt;Node4</title>
<path fill="none" stroke="#8b1a1a" d="M279.52,-311.54C264.71,-300.73 244.82,-286.2 230.29,-275.59"/>
<polygon fill="#8b1a1a" stroke="#8b1a1a" points="277.86,-314.66 288,-317.73 281.99,-309.01 277.86,-314.66"/>
</g>
</g>
</svg>
