<?xml version="1.0" encoding="UTF-8" standalone="no"?>
<!DOCTYPE svg PUBLIC "-//W3C//DTD SVG 1.1//EN"
 "http://www.w3.org/Graphics/SVG/1.1/DTD/svg11.dtd">
<!-- Generated by graphviz version 2.43.0 (0)
 -->
<!-- Title: itk::NeighborhoodIterator&lt; TImage, TBoundaryCondition &gt; Pages: 1 -->
<svg width="683pt" height="50pt"
 viewBox="0.00 0.00 683.00 50.00" xmlns="http://www.w3.org/2000/svg" xmlns:xlink="http://www.w3.org/1999/xlink">
<g id="graph0" class="graph" transform="scale(1 1) rotate(0) translate(4 46)">
<title>itk::NeighborhoodIterator&lt; TImage, TBoundaryCondition &gt;</title>
<polygon fill="white" stroke="transparent" points="-4,4 -4,-46 679,-46 679,4 -4,4"/>
<!-- Node1 -->
<g id="node1" class="node">
<title>Node1</title>
<g id="a_node1"><a xlink:title="Defines iteration of a local N&#45;dimensional neighborhood of pixels across an itk::Image.">
<polygon fill="#bfbfbf" stroke="black" points="494,-6 494,-36 675,-36 675,-6 494,-6"/>
<text text-anchor="start" x="502" y="-24" font-family="Helvetica,sans-Serif" font-size="10.00">itk::NeighborhoodIterator</text>
<text text-anchor="middle" x="584.5" y="-13" font-family="Helvetica,sans-Serif" font-size="10.00">&lt; TImage, TBoundaryCondition &gt;</text>
</a>
</g>
</g>
<!-- Node2 -->
<g id="node2" class="node">
<title>Node2</title>
<g id="a_node2"><a xlink:href="classitk_1_1ConstNeighborhoodIterator.html" target="_top" xlink:title=" ">
<polygon fill="white" stroke="black" points="204,-0.5 204,-41.5 458,-41.5 458,-0.5 204,-0.5"/>
<text text-anchor="start" x="212" y="-29.5" font-family="Helvetica,sans-Serif" font-size="10.00">itk::ConstNeighborhoodIterator</text>
<text text-anchor="start" x="212" y="-18.5" font-family="Helvetica,sans-Serif" font-size="10.00">&lt; TImage, ZeroFluxNeumannBoundaryCondition</text>
<text text-anchor="middle" x="331" y="-7.5" font-family="Helvetica,sans-Serif" font-size="10.00">&lt; TImage &gt; &gt;</text>
</a>
</g>
</g>
<!-- Node2&#45;&gt;Node1 -->
<g id="edge1" class="edge">
<title>Node2&#45;&gt;Node1</title>
<path fill="none" stroke="midnightblue" d="M468.24,-21C476.85,-21 485.39,-21 493.7,-21"/>
<polygon fill="midnightblue" stroke="midnightblue" points="468.12,-17.5 458.12,-21 468.12,-24.5 468.12,-17.5"/>
</g>
<!-- Node3 -->
<g id="node3" class="node">
<title>Node3</title>
<g id="a_node3"><a xlink:href="classitk_1_1Neighborhood.html" target="_top" xlink:title=" ">
<polygon fill="white" stroke="black" points="0,-0.5 0,-41.5 168,-41.5 168,-0.5 0,-0.5"/>
<text text-anchor="start" x="8" y="-29.5" font-family="Helvetica,sans-Serif" font-size="10.00">itk::Neighborhood&lt;</text>
<text text-anchor="start" x="8" y="-18.5" font-family="Helvetica,sans-Serif" font-size="10.00"> TImage::InternalPixelType</text>
<text text-anchor="middle" x="84" y="-7.5" font-family="Helvetica,sans-Serif" font-size="10.00"> *, TImage::ImageDimension &gt;</text>
</a>
</g>
</g>
<!-- Node3&#45;&gt;Node2 -->
<g id="edge2" class="edge">
<title>Node3&#45;&gt;Node2</title>
<path fill="none" stroke="midnightblue" d="M178.39,-21C186.76,-21 195.32,-21 203.91,-21"/>
<polygon fill="midnightblue" stroke="midnightblue" points="178.29,-17.5 168.29,-21 178.29,-24.5 178.29,-17.5"/>
</g>
</g>
</svg>
