<?xml version="1.0" encoding="UTF-8" standalone="no"?>
<!DOCTYPE svg PUBLIC "-//W3C//DTD SVG 1.1//EN"
 "http://www.w3.org/Graphics/SVG/1.1/DTD/svg11.dtd">
<!-- Generated by graphviz version 2.43.0 (0)
 -->
<!-- Title: itk::CoxDeBoorBSplineKernelFunction&lt; VSplineOrder, TRealValueType &gt; Pages: 1 -->
<svg width="166pt" height="296pt"
 viewBox="0.00 0.00 166.00 296.00" xmlns="http://www.w3.org/2000/svg" xmlns:xlink="http://www.w3.org/1999/xlink">
<g id="graph0" class="graph" transform="scale(1 1) rotate(0) translate(4 292)">
<title>itk::CoxDeBoorBSplineKernelFunction&lt; VSplineOrder, TRealValueType &gt;</title>
<polygon fill="white" stroke="transparent" points="-4,4 -4,-292 162,-292 162,4 -4,4"/>
<!-- Node1 -->
<g id="node1" class="node">
<title>Node1</title>
<g id="a_node1"><a xlink:title="BSpline kernel used for density estimation and nonparametric regression.">
<polygon fill="#bfbfbf" stroke="black" points="0,-0.5 0,-41.5 158,-41.5 158,-0.5 0,-0.5"/>
<text text-anchor="start" x="8" y="-29.5" font-family="Helvetica,sans-Serif" font-size="10.00">itk::CoxDeBoorBSplineKernel</text>
<text text-anchor="start" x="8" y="-18.5" font-family="Helvetica,sans-Serif" font-size="10.00">Function&lt; VSplineOrder,</text>
<text text-anchor="middle" x="79" y="-7.5" font-family="Helvetica,sans-Serif" font-size="10.00"> TRealValueType &gt;</text>
</a>
</g>
</g>
<!-- Node2 -->
<g id="node2" class="node">
<title>Node2</title>
<g id="a_node2"><a xlink:href="classitk_1_1KernelFunctionBase.html" target="_top" xlink:title=" ">
<polygon fill="white" stroke="black" points="13.5,-78.5 13.5,-108.5 144.5,-108.5 144.5,-78.5 13.5,-78.5"/>
<text text-anchor="start" x="21.5" y="-96.5" font-family="Helvetica,sans-Serif" font-size="10.00">itk::KernelFunctionBase</text>
<text text-anchor="middle" x="79" y="-85.5" font-family="Helvetica,sans-Serif" font-size="10.00">&lt; double &gt;</text>
</a>
</g>
</g>
<!-- Node2&#45;&gt;Node1 -->
<g id="edge1" class="edge">
<title>Node2&#45;&gt;Node1</title>
<path fill="none" stroke="midnightblue" d="M79,-67.98C79,-59.35 79,-49.76 79,-41.59"/>
<polygon fill="midnightblue" stroke="midnightblue" points="75.5,-68.23 79,-78.23 82.5,-68.23 75.5,-68.23"/>
</g>
<!-- Node3 -->
<g id="node3" class="node">
<title>Node3</title>
<g id="a_node3"><a xlink:href="classitk_1_1FunctionBase.html" target="_top" xlink:title=" ">
<polygon fill="white" stroke="black" points="24.5,-145.5 24.5,-175.5 133.5,-175.5 133.5,-145.5 24.5,-145.5"/>
<text text-anchor="start" x="32.5" y="-163.5" font-family="Helvetica,sans-Serif" font-size="10.00">itk::FunctionBase&lt;</text>
<text text-anchor="middle" x="79" y="-152.5" font-family="Helvetica,sans-Serif" font-size="10.00"> double, double &gt;</text>
</a>
</g>
</g>
<!-- Node3&#45;&gt;Node2 -->
<g id="edge2" class="edge">
<title>Node3&#45;&gt;Node2</title>
<path fill="none" stroke="midnightblue" d="M79,-135.11C79,-126.15 79,-116.32 79,-108.58"/>
<polygon fill="midnightblue" stroke="midnightblue" points="75.5,-135.4 79,-145.4 82.5,-135.4 75.5,-135.4"/>
</g>
<!-- Node4 -->
<g id="node4" class="node">
<title>Node4</title>
<g id="a_node4"><a xlink:href="classitk_1_1Object.html" target="_top" xlink:title="Base class for most ITK classes.">
<polygon fill="white" stroke="black" points="45.5,-212.5 45.5,-231.5 112.5,-231.5 112.5,-212.5 45.5,-212.5"/>
<text text-anchor="middle" x="79" y="-219.5" font-family="Helvetica,sans-Serif" font-size="10.00">itk::Object</text>
</a>
</g>
</g>
<!-- Node4&#45;&gt;Node3 -->
<g id="edge3" class="edge">
<title>Node4&#45;&gt;Node3</title>
<path fill="none" stroke="midnightblue" d="M79,-202.23C79,-193.59 79,-183.5 79,-175.52"/>
<polygon fill="midnightblue" stroke="midnightblue" points="75.5,-202.48 79,-212.48 82.5,-202.48 75.5,-202.48"/>
</g>
<!-- Node5 -->
<g id="node5" class="node">
<title>Node5</title>
<g id="a_node5"><a xlink:href="classitk_1_1LightObject.html" target="_top" xlink:title="Light weight base class for most itk classes.">
<polygon fill="white" stroke="black" points="33.5,-268.5 33.5,-287.5 124.5,-287.5 124.5,-268.5 33.5,-268.5"/>
<text text-anchor="middle" x="79" y="-275.5" font-family="Helvetica,sans-Serif" font-size="10.00">itk::LightObject</text>
</a>
</g>
</g>
<!-- Node5&#45;&gt;Node4 -->
<g id="edge4" class="edge">
<title>Node5&#45;&gt;Node4</title>
<path fill="none" stroke="midnightblue" d="M79,-257.8C79,-248.91 79,-238.78 79,-231.75"/>
<polygon fill="midnightblue" stroke="midnightblue" points="75.5,-258.08 79,-268.08 82.5,-258.08 75.5,-258.08"/>
</g>
</g>
</svg>
