<?xml version="1.0" encoding="UTF-8" standalone="no"?>
<!DOCTYPE svg PUBLIC "-//W3C//DTD SVG 1.1//EN"
 "http://www.w3.org/Graphics/SVG/1.1/DTD/svg11.dtd">
<!-- Generated by graphviz version 2.43.0 (0)
 -->
<!-- Title: itk::BinaryMedianImageFilter&lt; TInputImage, TOutputImage &gt; Pages: 1 -->
<svg width="399pt" height="341pt"
 viewBox="0.00 0.00 399.00 341.00" xmlns="http://www.w3.org/2000/svg" xmlns:xlink="http://www.w3.org/1999/xlink">
<g id="graph0" class="graph" transform="scale(1 1) rotate(0) translate(4 337)">
<title>itk::BinaryMedianImageFilter&lt; TInputImage, TOutputImage &gt;</title>
<polygon fill="white" stroke="transparent" points="-4,4 -4,-337 395,-337 395,4 -4,4"/>
<!-- Node1 -->
<g id="node1" class="node">
<title>Node1</title>
<g id="a_node1"><a xlink:title="Applies a version of the median filter optimized for binary images.">
<polygon fill="#bfbfbf" stroke="black" points="125,-0.5 125,-30.5 301,-30.5 301,-0.5 125,-0.5"/>
<text text-anchor="start" x="133" y="-18.5" font-family="Helvetica,sans-Serif" font-size="10.00">itk::BinaryMedianImageFilter</text>
<text text-anchor="middle" x="213" y="-7.5" font-family="Helvetica,sans-Serif" font-size="10.00">&lt; TInputImage, TOutputImage &gt;</text>
</a>
</g>
</g>
<!-- Node2 -->
<g id="node2" class="node">
<title>Node2</title>
<g id="a_node2"><a xlink:href="classitk_1_1ImageToImageFilter.html" target="_top" xlink:title="Base class for filters that take an image as input and produce an image as output.">
<polygon fill="white" stroke="black" points="125,-67.5 125,-97.5 301,-97.5 301,-67.5 125,-67.5"/>
<text text-anchor="start" x="133" y="-85.5" font-family="Helvetica,sans-Serif" font-size="10.00">itk::ImageToImageFilter</text>
<text text-anchor="middle" x="213" y="-74.5" font-family="Helvetica,sans-Serif" font-size="10.00">&lt; TInputImage, TOutputImage &gt;</text>
</a>
</g>
</g>
<!-- Node2&#45;&gt;Node1 -->
<g id="edge1" class="edge">
<title>Node2&#45;&gt;Node1</title>
<path fill="none" stroke="midnightblue" d="M213,-57.11C213,-48.15 213,-38.32 213,-30.58"/>
<polygon fill="midnightblue" stroke="midnightblue" points="209.5,-57.4 213,-67.4 216.5,-57.4 209.5,-57.4"/>
</g>
<!-- Node3 -->
<g id="node3" class="node">
<title>Node3</title>
<g id="a_node3"><a xlink:href="classitk_1_1ImageSource.html" target="_top" xlink:title="Base class for all process objects that output image data.">
<polygon fill="white" stroke="black" points="48.5,-134.5 48.5,-164.5 197.5,-164.5 197.5,-134.5 48.5,-134.5"/>
<text text-anchor="start" x="56.5" y="-152.5" font-family="Helvetica,sans-Serif" font-size="10.00">itk::ImageSource&lt; TOutput</text>
<text text-anchor="middle" x="123" y="-141.5" font-family="Helvetica,sans-Serif" font-size="10.00">Image &gt;</text>
</a>
</g>
</g>
<!-- Node3&#45;&gt;Node2 -->
<g id="edge2" class="edge">
<title>Node3&#45;&gt;Node2</title>
<path fill="none" stroke="midnightblue" d="M150.76,-128.45C164.61,-118.45 181.02,-106.6 193.51,-97.58"/>
<polygon fill="midnightblue" stroke="midnightblue" points="148.59,-125.7 142.53,-134.4 152.68,-131.38 148.59,-125.7"/>
</g>
<!-- Node4 -->
<g id="node4" class="node">
<title>Node4</title>
<g id="a_node4"><a xlink:href="classitk_1_1ProcessObject.html" target="_top" xlink:title="The base class for all process objects (source, filters, mappers) in the Insight data processing pipe...">
<polygon fill="white" stroke="black" points="0,-201.5 0,-220.5 104,-220.5 104,-201.5 0,-201.5"/>
<text text-anchor="middle" x="52" y="-208.5" font-family="Helvetica,sans-Serif" font-size="10.00">itk::ProcessObject</text>
</a>
</g>
</g>
<!-- Node4&#45;&gt;Node3 -->
<g id="edge3" class="edge">
<title>Node4&#45;&gt;Node3</title>
<path fill="none" stroke="midnightblue" d="M69.99,-194.92C81.14,-185.58 95.36,-173.66 106.27,-164.52"/>
<polygon fill="midnightblue" stroke="midnightblue" points="67.59,-192.37 62.17,-201.48 72.09,-197.73 67.59,-192.37"/>
</g>
<!-- Node5 -->
<g id="node5" class="node">
<title>Node5</title>
<g id="a_node5"><a xlink:href="classitk_1_1Object.html" target="_top" xlink:title="Base class for most ITK classes.">
<polygon fill="white" stroke="black" points="18.5,-257.5 18.5,-276.5 85.5,-276.5 85.5,-257.5 18.5,-257.5"/>
<text text-anchor="middle" x="52" y="-264.5" font-family="Helvetica,sans-Serif" font-size="10.00">itk::Object</text>
</a>
</g>
</g>
<!-- Node5&#45;&gt;Node4 -->
<g id="edge4" class="edge">
<title>Node5&#45;&gt;Node4</title>
<path fill="none" stroke="midnightblue" d="M52,-246.8C52,-237.91 52,-227.78 52,-220.75"/>
<polygon fill="midnightblue" stroke="midnightblue" points="48.5,-247.08 52,-257.08 55.5,-247.08 48.5,-247.08"/>
</g>
<!-- Node6 -->
<g id="node6" class="node">
<title>Node6</title>
<g id="a_node6"><a xlink:href="classitk_1_1LightObject.html" target="_top" xlink:title="Light weight base class for most itk classes.">
<polygon fill="white" stroke="black" points="6.5,-313.5 6.5,-332.5 97.5,-332.5 97.5,-313.5 6.5,-313.5"/>
<text text-anchor="middle" x="52" y="-320.5" font-family="Helvetica,sans-Serif" font-size="10.00">itk::LightObject</text>
</a>
</g>
</g>
<!-- Node6&#45;&gt;Node5 -->
<g id="edge5" class="edge">
<title>Node6&#45;&gt;Node5</title>
<path fill="none" stroke="midnightblue" d="M52,-302.8C52,-293.91 52,-283.78 52,-276.75"/>
<polygon fill="midnightblue" stroke="midnightblue" points="48.5,-303.08 52,-313.08 55.5,-303.08 48.5,-303.08"/>
</g>
<!-- Node7 -->
<g id="node7" class="node">
<title>Node7</title>
<g id="a_node7"><a xlink:href="structitk_1_1ImageSourceCommon.html" target="_top" xlink:title="Secondary base class of ImageSource common between templates.">
<polygon fill="white" stroke="black" points="122.5,-201.5 122.5,-220.5 265.5,-220.5 265.5,-201.5 122.5,-201.5"/>
<text text-anchor="middle" x="194" y="-208.5" font-family="Helvetica,sans-Serif" font-size="10.00">itk::ImageSourceCommon</text>
</a>
</g>
</g>
<!-- Node7&#45;&gt;Node3 -->
<g id="edge6" class="edge">
<title>Node7&#45;&gt;Node3</title>
<path fill="none" stroke="#8b1a1a" d="M176.01,-194.92C164.86,-185.58 150.64,-173.66 139.73,-164.52"/>
<polygon fill="#8b1a1a" stroke="#8b1a1a" points="173.91,-197.73 183.83,-201.48 178.41,-192.37 173.91,-197.73"/>
</g>
<!-- Node8 -->
<g id="node8" class="node">
<title>Node8</title>
<g id="a_node8"><a xlink:href="classitk_1_1ImageToImageFilterCommon.html" target="_top" xlink:title="Secondary base class of ImageToImageFilter common between templates.">
<polygon fill="white" stroke="black" points="215,-140 215,-159 391,-159 391,-140 215,-140"/>
<text text-anchor="middle" x="303" y="-147" font-family="Helvetica,sans-Serif" font-size="10.00">itk::ImageToImageFilterCommon</text>
</a>
</g>
</g>
<!-- Node8&#45;&gt;Node2 -->
<g id="edge7" class="edge">
<title>Node8&#45;&gt;Node2</title>
<path fill="none" stroke="#8b1a1a" d="M282.71,-133.85C267.69,-123 247.34,-108.3 232.51,-97.59"/>
<polygon fill="#8b1a1a" stroke="#8b1a1a" points="280.71,-136.72 290.86,-139.73 284.8,-131.04 280.71,-136.72"/>
</g>
</g>
</svg>
