<?xml version="1.0" encoding="UTF-8" standalone="no"?>
<!DOCTYPE svg PUBLIC "-//W3C//DTD SVG 1.1//EN"
 "http://www.w3.org/Graphics/SVG/1.1/DTD/svg11.dtd">
<!-- Generated by graphviz version 2.43.0 (0)
 -->
<!-- Title: itk::BinaryMorphologyImageFilter&lt; TInputImage, TOutputImage, TKernel &gt; Pages: 1 -->
<svg width="1867pt" height="110pt"
 viewBox="0.00 0.00 1867.00 110.00" xmlns="http://www.w3.org/2000/svg" xmlns:xlink="http://www.w3.org/1999/xlink">
<g id="graph0" class="graph" transform="scale(1 1) rotate(0) translate(4 106)">
<title>itk::BinaryMorphologyImageFilter&lt; TInputImage, TOutputImage, TKernel &gt;</title>
<polygon fill="white" stroke="transparent" points="-4,4 -4,-106 1863,-106 1863,4 -4,4"/>
<!-- Node1 -->
<g id="node1" class="node">
<title>Node1</title>
<g id="a_node1"><a xlink:title="Base class for fast binary dilation and erosion.">
<polygon fill="#bfbfbf" stroke="black" points="1249,-30.5 1249,-71.5 1442,-71.5 1442,-30.5 1249,-30.5"/>
<text text-anchor="start" x="1257" y="-59.5" font-family="Helvetica,sans-Serif" font-size="10.00">itk::BinaryMorphologyImage</text>
<text text-anchor="start" x="1257" y="-48.5" font-family="Helvetica,sans-Serif" font-size="10.00">Filter&lt; TInputImage, TOutputImage,</text>
<text text-anchor="middle" x="1345.5" y="-37.5" font-family="Helvetica,sans-Serif" font-size="10.00"> TKernel &gt;</text>
</a>
</g>
</g>
<!-- Node11 -->
<g id="node11" class="node">
<title>Node11</title>
<g id="a_node11"><a xlink:href="classitk_1_1BinaryDilateImageFilter.html" target="_top" xlink:title="Fast binary dilation of a single intensity value in the image.">
<polygon fill="white" stroke="black" points="1478,-60.5 1478,-101.5 1646,-101.5 1646,-60.5 1478,-60.5"/>
<text text-anchor="start" x="1486" y="-89.5" font-family="Helvetica,sans-Serif" font-size="10.00">itk::BinaryDilateImageFilter</text>
<text text-anchor="start" x="1486" y="-78.5" font-family="Helvetica,sans-Serif" font-size="10.00">&lt; TInputImage, TOutputImage,</text>
<text text-anchor="middle" x="1562" y="-67.5" font-family="Helvetica,sans-Serif" font-size="10.00"> TKernel &gt;</text>
</a>
</g>
</g>
<!-- Node1&#45;&gt;Node11 -->
<g id="edge10" class="edge">
<title>Node1&#45;&gt;Node11</title>
<path fill="none" stroke="midnightblue" d="M1452.26,-65.79C1460.9,-67 1469.55,-68.21 1477.99,-69.39"/>
<polygon fill="midnightblue" stroke="midnightblue" points="1452.53,-62.3 1442.14,-64.38 1451.56,-69.23 1452.53,-62.3"/>
</g>
<!-- Node13 -->
<g id="node13" class="node">
<title>Node13</title>
<g id="a_node13"><a xlink:href="classitk_1_1BinaryErodeImageFilter.html" target="_top" xlink:title="Fast binary erosion of a single intensity value in the image.">
<polygon fill="white" stroke="black" points="1478,-0.5 1478,-41.5 1646,-41.5 1646,-0.5 1478,-0.5"/>
<text text-anchor="start" x="1486" y="-29.5" font-family="Helvetica,sans-Serif" font-size="10.00">itk::BinaryErodeImageFilter</text>
<text text-anchor="start" x="1486" y="-18.5" font-family="Helvetica,sans-Serif" font-size="10.00">&lt; TInputImage, TOutputImage,</text>
<text text-anchor="middle" x="1562" y="-7.5" font-family="Helvetica,sans-Serif" font-size="10.00"> TKernel &gt;</text>
</a>
</g>
</g>
<!-- Node1&#45;&gt;Node13 -->
<g id="edge12" class="edge">
<title>Node1&#45;&gt;Node13</title>
<path fill="none" stroke="midnightblue" d="M1452.26,-36.21C1460.9,-35 1469.55,-33.79 1477.99,-32.61"/>
<polygon fill="midnightblue" stroke="midnightblue" points="1451.56,-32.77 1442.14,-37.62 1452.53,-39.7 1451.56,-32.77"/>
</g>
<!-- Node2 -->
<g id="node2" class="node">
<title>Node2</title>
<g id="a_node2"><a xlink:href="classitk_1_1KernelImageFilter.html" target="_top" xlink:title="A base class for all the filters working on an arbitrary shaped neighborhood.">
<polygon fill="white" stroke="black" points="1045,-30.5 1045,-71.5 1213,-71.5 1213,-30.5 1045,-30.5"/>
<text text-anchor="start" x="1053" y="-59.5" font-family="Helvetica,sans-Serif" font-size="10.00">itk::KernelImageFilter</text>
<text text-anchor="start" x="1053" y="-48.5" font-family="Helvetica,sans-Serif" font-size="10.00">&lt; TInputImage, TOutputImage,</text>
<text text-anchor="middle" x="1129" y="-37.5" font-family="Helvetica,sans-Serif" font-size="10.00"> TKernel &gt;</text>
</a>
</g>
</g>
<!-- Node2&#45;&gt;Node1 -->
<g id="edge1" class="edge">
<title>Node2&#45;&gt;Node1</title>
<path fill="none" stroke="midnightblue" d="M1223.43,-51C1231.85,-51 1240.38,-51 1248.82,-51"/>
<polygon fill="midnightblue" stroke="midnightblue" points="1223.24,-47.5 1213.24,-51 1223.24,-54.5 1223.24,-47.5"/>
</g>
<!-- Node3 -->
<g id="node3" class="node">
<title>Node3</title>
<g id="a_node3"><a xlink:href="classitk_1_1BoxImageFilter.html" target="_top" xlink:title="A base class for all the filters working on a box neighborhood.">
<polygon fill="white" stroke="black" points="833,-36 833,-66 1009,-66 1009,-36 833,-36"/>
<text text-anchor="start" x="841" y="-54" font-family="Helvetica,sans-Serif" font-size="10.00">itk::BoxImageFilter</text>
<text text-anchor="middle" x="921" y="-43" font-family="Helvetica,sans-Serif" font-size="10.00">&lt; TInputImage, TOutputImage &gt;</text>
</a>
</g>
</g>
<!-- Node3&#45;&gt;Node2 -->
<g id="edge2" class="edge">
<title>Node3&#45;&gt;Node2</title>
<path fill="none" stroke="midnightblue" d="M1019.12,-51C1027.73,-51 1036.39,-51 1044.86,-51"/>
<polygon fill="midnightblue" stroke="midnightblue" points="1019.06,-47.5 1009.06,-51 1019.06,-54.5 1019.06,-47.5"/>
</g>
<!-- Node4 -->
<g id="node4" class="node">
<title>Node4</title>
<g id="a_node4"><a xlink:href="classitk_1_1ImageToImageFilter.html" target="_top" xlink:title="Base class for filters that take an image as input and produce an image as output.">
<polygon fill="white" stroke="black" points="621,-36 621,-66 797,-66 797,-36 621,-36"/>
<text text-anchor="start" x="629" y="-54" font-family="Helvetica,sans-Serif" font-size="10.00">itk::ImageToImageFilter</text>
<text text-anchor="middle" x="709" y="-43" font-family="Helvetica,sans-Serif" font-size="10.00">&lt; TInputImage, TOutputImage &gt;</text>
</a>
</g>
</g>
<!-- Node4&#45;&gt;Node3 -->
<g id="edge3" class="edge">
<title>Node4&#45;&gt;Node3</title>
<path fill="none" stroke="midnightblue" d="M807.46,-51C815.88,-51 824.37,-51 832.7,-51"/>
<polygon fill="midnightblue" stroke="midnightblue" points="807.23,-47.5 797.23,-51 807.23,-54.5 807.23,-47.5"/>
</g>
<!-- Node5 -->
<g id="node5" class="node">
<title>Node5</title>
<g id="a_node5"><a xlink:href="classitk_1_1ImageSource.html" target="_top" xlink:title="Base class for all process objects that output image data.">
<polygon fill="white" stroke="black" points="422.5,-58 422.5,-88 571.5,-88 571.5,-58 422.5,-58"/>
<text text-anchor="start" x="430.5" y="-76" font-family="Helvetica,sans-Serif" font-size="10.00">itk::ImageSource&lt; TOutput</text>
<text text-anchor="middle" x="497" y="-65" font-family="Helvetica,sans-Serif" font-size="10.00">Image &gt;</text>
</a>
</g>
</g>
<!-- Node5&#45;&gt;Node4 -->
<g id="edge4" class="edge">
<title>Node5&#45;&gt;Node4</title>
<path fill="none" stroke="midnightblue" d="M581.89,-64.21C594.67,-62.87 607.9,-61.49 620.75,-60.14"/>
<polygon fill="midnightblue" stroke="midnightblue" points="581.32,-60.75 571.74,-65.27 582.05,-67.71 581.32,-60.75"/>
</g>
<!-- Node6 -->
<g id="node6" class="node">
<title>Node6</title>
<g id="a_node6"><a xlink:href="classitk_1_1ProcessObject.html" target="_top" xlink:title="The base class for all process objects (source, filters, mappers) in the Insight data processing pipe...">
<polygon fill="white" stroke="black" points="249.5,-82.5 249.5,-101.5 353.5,-101.5 353.5,-82.5 249.5,-82.5"/>
<text text-anchor="middle" x="301.5" y="-89.5" font-family="Helvetica,sans-Serif" font-size="10.00">itk::ProcessObject</text>
</a>
</g>
</g>
<!-- Node6&#45;&gt;Node5 -->
<g id="edge5" class="edge">
<title>Node6&#45;&gt;Node5</title>
<path fill="none" stroke="midnightblue" d="M363.71,-85.99C382.35,-84.16 403.02,-82.13 422.38,-80.23"/>
<polygon fill="midnightblue" stroke="midnightblue" points="363.2,-82.52 353.59,-86.98 363.89,-89.49 363.2,-82.52"/>
</g>
<!-- Node7 -->
<g id="node7" class="node">
<title>Node7</title>
<g id="a_node7"><a xlink:href="classitk_1_1Object.html" target="_top" xlink:title="Base class for most ITK classes.">
<polygon fill="white" stroke="black" points="127,-82.5 127,-101.5 194,-101.5 194,-82.5 127,-82.5"/>
<text text-anchor="middle" x="160.5" y="-89.5" font-family="Helvetica,sans-Serif" font-size="10.00">itk::Object</text>
</a>
</g>
</g>
<!-- Node7&#45;&gt;Node6 -->
<g id="edge6" class="edge">
<title>Node7&#45;&gt;Node6</title>
<path fill="none" stroke="midnightblue" d="M204.13,-92C218.41,-92 234.48,-92 249.35,-92"/>
<polygon fill="midnightblue" stroke="midnightblue" points="204.09,-88.5 194.09,-92 204.09,-95.5 204.09,-88.5"/>
</g>
<!-- Node8 -->
<g id="node8" class="node">
<title>Node8</title>
<g id="a_node8"><a xlink:href="classitk_1_1LightObject.html" target="_top" xlink:title="Light weight base class for most itk classes.">
<polygon fill="white" stroke="black" points="0,-82.5 0,-101.5 91,-101.5 91,-82.5 0,-82.5"/>
<text text-anchor="middle" x="45.5" y="-89.5" font-family="Helvetica,sans-Serif" font-size="10.00">itk::LightObject</text>
</a>
</g>
</g>
<!-- Node8&#45;&gt;Node7 -->
<g id="edge7" class="edge">
<title>Node8&#45;&gt;Node7</title>
<path fill="none" stroke="midnightblue" d="M101.28,-92C109.96,-92 118.69,-92 126.66,-92"/>
<polygon fill="midnightblue" stroke="midnightblue" points="101.16,-88.5 91.16,-92 101.16,-95.5 101.16,-88.5"/>
</g>
<!-- Node9 -->
<g id="node9" class="node">
<title>Node9</title>
<g id="a_node9"><a xlink:href="structitk_1_1ImageSourceCommon.html" target="_top" xlink:title="Secondary base class of ImageSource common between templates.">
<polygon fill="white" stroke="black" points="230,-44.5 230,-63.5 373,-63.5 373,-44.5 230,-44.5"/>
<text text-anchor="middle" x="301.5" y="-51.5" font-family="Helvetica,sans-Serif" font-size="10.00">itk::ImageSourceCommon</text>
</a>
</g>
</g>
<!-- Node9&#45;&gt;Node5 -->
<g id="edge8" class="edge">
<title>Node9&#45;&gt;Node5</title>
<path fill="none" stroke="#8b1a1a" d="M383.41,-61.94C396.29,-63.21 409.56,-64.51 422.26,-65.76"/>
<polygon fill="#8b1a1a" stroke="#8b1a1a" points="383.47,-58.43 373.18,-60.94 382.79,-65.4 383.47,-58.43"/>
</g>
<!-- Node10 -->
<g id="node10" class="node">
<title>Node10</title>
<g id="a_node10"><a xlink:href="classitk_1_1ImageToImageFilterCommon.html" target="_top" xlink:title="Secondary base class of ImageToImageFilter common between templates.">
<polygon fill="white" stroke="black" points="409,-19.5 409,-38.5 585,-38.5 585,-19.5 409,-19.5"/>
<text text-anchor="middle" x="497" y="-26.5" font-family="Helvetica,sans-Serif" font-size="10.00">itk::ImageToImageFilterCommon</text>
</a>
</g>
</g>
<!-- Node10&#45;&gt;Node4 -->
<g id="edge9" class="edge">
<title>Node10&#45;&gt;Node4</title>
<path fill="none" stroke="#8b1a1a" d="M595.18,-39.18C603.69,-40.07 612.27,-40.97 620.7,-41.85"/>
<polygon fill="#8b1a1a" stroke="#8b1a1a" points="595.54,-35.7 585.23,-38.14 594.82,-42.66 595.54,-35.7"/>
</g>
<!-- Node12 -->
<g id="node12" class="node">
<title>Node12</title>
<g id="a_node12"><a xlink:href="classitk_1_1FastIncrementalBinaryDilateImageFilter.html" target="_top" xlink:title="Fast binary dilation.">
<polygon fill="white" stroke="black" points="1682,-60.5 1682,-101.5 1859,-101.5 1859,-60.5 1682,-60.5"/>
<text text-anchor="start" x="1690" y="-89.5" font-family="Helvetica,sans-Serif" font-size="10.00">itk::FastIncrementalBinary</text>
<text text-anchor="start" x="1690" y="-78.5" font-family="Helvetica,sans-Serif" font-size="10.00">DilateImageFilter&lt; TInputImage,</text>
<text text-anchor="middle" x="1770.5" y="-67.5" font-family="Helvetica,sans-Serif" font-size="10.00"> TOutputImage, TKernel &gt;</text>
</a>
</g>
</g>
<!-- Node11&#45;&gt;Node12 -->
<g id="edge11" class="edge">
<title>Node11&#45;&gt;Node12</title>
<path fill="none" stroke="midnightblue" d="M1656.1,-81C1664.67,-81 1673.33,-81 1681.85,-81"/>
<polygon fill="midnightblue" stroke="midnightblue" points="1656.1,-77.5 1646.1,-81 1656.1,-84.5 1656.1,-77.5"/>
</g>
</g>
</svg>
