<?xml version="1.0" encoding="UTF-8" standalone="no"?>
<!DOCTYPE svg PUBLIC "-//W3C//DTD SVG 1.1//EN"
 "http://www.w3.org/Graphics/SVG/1.1/DTD/svg11.dtd">
<!-- Generated by graphviz version 2.43.0 (0)
 -->
<!-- Title: itk::Statistics::ImageToNeighborhoodSampleAdaptor&lt; TImage, TBoundaryCondition &gt;::ConstIterator Pages: 1 -->
<svg width="269pt" height="139pt"
 viewBox="0.00 0.00 269.00 139.00" xmlns="http://www.w3.org/2000/svg" xmlns:xlink="http://www.w3.org/1999/xlink">
<g id="graph0" class="graph" transform="scale(1 1) rotate(0) translate(4 135)">
<title>itk::Statistics::ImageToNeighborhoodSampleAdaptor&lt; TImage, TBoundaryCondition &gt;::ConstIterator</title>
<polygon fill="white" stroke="transparent" points="-4,4 -4,-135 265,-135 265,4 -4,4"/>
<!-- Node1 -->
<g id="node1" class="node">
<title>Node1</title>
<g id="a_node1"><a xlink:title="Const Iterator.">
<polygon fill="#bfbfbf" stroke="black" points="29,-0.5 29,-52.5 199,-52.5 199,-0.5 29,-0.5"/>
<text text-anchor="start" x="37" y="-40.5" font-family="Helvetica,sans-Serif" font-size="10.00">itk::Statistics::ImageTo</text>
<text text-anchor="start" x="37" y="-29.5" font-family="Helvetica,sans-Serif" font-size="10.00">NeighborhoodSampleAdaptor</text>
<text text-anchor="start" x="37" y="-18.5" font-family="Helvetica,sans-Serif" font-size="10.00">&lt; TImage, TBoundaryCondition</text>
<text text-anchor="middle" x="114" y="-7.5" font-family="Helvetica,sans-Serif" font-size="10.00"> &gt;::ConstIterator</text>
</a>
</g>
</g>
<!-- Node2 -->
<g id="node2" class="node">
<title>Node2</title>
<g id="a_node2"><a xlink:title=" ">
<polygon fill="white" stroke="#bfbfbf" points="0,-100.5 0,-130.5 228,-130.5 228,-100.5 0,-100.5"/>
<text text-anchor="start" x="8" y="-118.5" font-family="Helvetica,sans-Serif" font-size="10.00">std::vector&lt; ConstNeighborhood</text>
<text text-anchor="middle" x="114" y="-107.5" font-family="Helvetica,sans-Serif" font-size="10.00">Iterator&lt; TImage, TBoundaryCondition &gt; &gt;</text>
</a>
</g>
</g>
<!-- Node2&#45;&gt;Node1 -->
<g id="edge1" class="edge">
<title>Node2&#45;&gt;Node1</title>
<path fill="none" stroke="#9a32cd" stroke-dasharray="5,2" d="M114,-89.85C114,-78.26 114,-64.46 114,-52.8"/>
<polygon fill="#9a32cd" stroke="#9a32cd" points="110.5,-90.13 114,-100.13 117.5,-90.13 110.5,-90.13"/>
<text text-anchor="middle" x="187.5" y="-74" font-family="Helvetica,sans-Serif" font-size="10.00"> m_MeasurementVectorCache</text>
</g>
</g>
</svg>
