<?xml version="1.0" encoding="UTF-8" standalone="no"?>
<!DOCTYPE svg PUBLIC "-//W3C//DTD SVG 1.1//EN"
 "http://www.w3.org/Graphics/SVG/1.1/DTD/svg11.dtd">
<!-- Generated by graphviz version 2.43.0 (0)
 -->
<!-- Title: itk::FFTWFFTImageFilterInitFactory Pages: 1 -->
<svg width="181pt" height="163pt"
 viewBox="0.00 0.00 180.50 163.00" xmlns="http://www.w3.org/2000/svg" xmlns:xlink="http://www.w3.org/1999/xlink">
<g id="graph0" class="graph" transform="scale(1 1) rotate(0) translate(4 159)">
<title>itk::FFTWFFTImageFilterInitFactory</title>
<polygon fill="white" stroke="transparent" points="-4,4 -4,-159 176.5,-159 176.5,4 -4,4"/>
<!-- Node1 -->
<g id="node1" class="node">
<title>Node1</title>
<g id="a_node1"><a xlink:title="Initialize FFTW FFT image filter factory backends.">
<polygon fill="#bfbfbf" stroke="black" points="0,-0.5 0,-30.5 151,-30.5 151,-0.5 0,-0.5"/>
<text text-anchor="start" x="8" y="-18.5" font-family="Helvetica,sans-Serif" font-size="10.00">itk::FFTWFFTImageFilterInit</text>
<text text-anchor="middle" x="75.5" y="-7.5" font-family="Helvetica,sans-Serif" font-size="10.00">Factory</text>
</a>
</g>
</g>
<!-- Node2 -->
<g id="node2" class="node">
<title>Node2</title>
<g id="a_node2"><a xlink:href="classitk_1_1LightObject.html" target="_top" xlink:title="Light weight base class for most itk classes.">
<polygon fill="white" stroke="black" points="30,-68.5 30,-87.5 121,-87.5 121,-68.5 30,-68.5"/>
<text text-anchor="middle" x="75.5" y="-75.5" font-family="Helvetica,sans-Serif" font-size="10.00">itk::LightObject</text>
</a>
</g>
</g>
<!-- Node2&#45;&gt;Node1 -->
<g id="edge1" class="edge">
<title>Node2&#45;&gt;Node1</title>
<path fill="none" stroke="midnightblue" d="M75.5,-58.22C75.5,-49.36 75.5,-38.96 75.5,-30.76"/>
<polygon fill="midnightblue" stroke="midnightblue" points="72,-58.33 75.5,-68.33 79,-58.33 72,-58.33"/>
</g>
<!-- Node3 -->
<g id="node3" class="node">
<title>Node3</title>
<g id="a_node3"><a xlink:title=" ">
<polygon fill="white" stroke="#bfbfbf" points="22,-135.5 22,-154.5 129,-154.5 129,-135.5 22,-135.5"/>
<text text-anchor="middle" x="75.5" y="-142.5" font-family="Helvetica,sans-Serif" font-size="10.00">std::atomic&lt; int &gt;</text>
</a>
</g>
</g>
<!-- Node3&#45;&gt;Node2 -->
<g id="edge2" class="edge">
<title>Node3&#45;&gt;Node2</title>
<path fill="none" stroke="#9a32cd" stroke-dasharray="5,2" d="M75.5,-125.04C75.5,-112.67 75.5,-97.12 75.5,-87.63"/>
<polygon fill="#9a32cd" stroke="#9a32cd" points="72,-125.23 75.5,-135.23 79,-125.23 72,-125.23"/>
<text text-anchor="middle" x="124" y="-109" font-family="Helvetica,sans-Serif" font-size="10.00"> m_ReferenceCount</text>
</g>
</g>
</svg>
