<?xml version="1.0" encoding="UTF-8" standalone="no"?>
<!DOCTYPE svg PUBLIC "-//W3C//DTD SVG 1.1//EN"
 "http://www.w3.org/Graphics/SVG/1.1/DTD/svg11.dtd">
<!-- Generated by graphviz version 2.43.0 (0)
 -->
<!-- Title: itk::ThreadLogger Pages: 1 -->
<svg width="1868pt" height="439pt"
 viewBox="0.00 0.00 1868.00 438.50" xmlns="http://www.w3.org/2000/svg" xmlns:xlink="http://www.w3.org/1999/xlink">
<g id="graph0" class="graph" transform="scale(1 1) rotate(0) translate(4 434.5)">
<title>itk::ThreadLogger</title>
<polygon fill="white" stroke="transparent" points="-4,4 -4,-434.5 1864,-434.5 1864,4 -4,4"/>
<!-- Node1 -->
<g id="node1" class="node">
<title>Node1</title>
<g id="a_node1"><a xlink:title="Providing logging service as a separate thread.">
<polygon fill="#bfbfbf" stroke="black" points="1758,-145.5 1758,-164.5 1860,-164.5 1860,-145.5 1758,-145.5"/>
<text text-anchor="middle" x="1809" y="-152.5" font-family="Helvetica,sans-Serif" font-size="10.00">itk::ThreadLogger</text>
</a>
</g>
</g>
<!-- Node2 -->
<g id="node2" class="node">
<title>Node2</title>
<g id="a_node2"><a xlink:href="classitk_1_1Logger.html" target="_top" xlink:title="Used for logging information during a run.">
<polygon fill="white" stroke="black" points="1479.5,-290.5 1479.5,-309.5 1547.5,-309.5 1547.5,-290.5 1479.5,-290.5"/>
<text text-anchor="middle" x="1513.5" y="-297.5" font-family="Helvetica,sans-Serif" font-size="10.00">itk::Logger</text>
</a>
</g>
</g>
<!-- Node2&#45;&gt;Node1 -->
<g id="edge1" class="edge">
<title>Node2&#45;&gt;Node1</title>
<path fill="none" stroke="midnightblue" d="M1558.02,-306.49C1606.52,-311.37 1685.32,-312.01 1740,-276 1781.05,-248.96 1799.86,-188.18 1805.8,-164.6"/>
<polygon fill="midnightblue" stroke="midnightblue" points="1558.18,-302.99 1547.85,-305.36 1557.4,-309.94 1558.18,-302.99"/>
</g>
<!-- Node3 -->
<g id="node3" class="node">
<title>Node3</title>
<g id="a_node3"><a xlink:href="classitk_1_1LoggerBase.html" target="_top" xlink:title="Used for logging information during a run.">
<polygon fill="white" stroke="black" points="1235,-301.5 1235,-320.5 1327,-320.5 1327,-301.5 1235,-301.5"/>
<text text-anchor="middle" x="1281" y="-308.5" font-family="Helvetica,sans-Serif" font-size="10.00">itk::LoggerBase</text>
</a>
</g>
</g>
<!-- Node3&#45;&gt;Node2 -->
<g id="edge2" class="edge">
<title>Node3&#45;&gt;Node2</title>
<path fill="none" stroke="midnightblue" d="M1337.29,-308.36C1381.56,-306.25 1442.18,-303.36 1479.28,-301.59"/>
<polygon fill="midnightblue" stroke="midnightblue" points="1337.09,-304.87 1327.26,-308.84 1337.42,-311.86 1337.09,-304.87"/>
</g>
<!-- Node4 -->
<g id="node4" class="node">
<title>Node4</title>
<g id="a_node4"><a xlink:href="classitk_1_1Object.html" target="_top" xlink:title="Base class for most ITK classes.">
<polygon fill="white" stroke="black" points="959.5,-319.5 959.5,-338.5 1026.5,-338.5 1026.5,-319.5 959.5,-319.5"/>
<text text-anchor="middle" x="993" y="-326.5" font-family="Helvetica,sans-Serif" font-size="10.00">itk::Object</text>
</a>
</g>
</g>
<!-- Node4&#45;&gt;Node3 -->
<g id="edge3" class="edge">
<title>Node4&#45;&gt;Node3</title>
<path fill="none" stroke="midnightblue" d="M1036.65,-326.32C1089.87,-322.97 1180.46,-317.26 1234.82,-313.84"/>
<polygon fill="midnightblue" stroke="midnightblue" points="1036.29,-322.83 1026.53,-326.95 1036.73,-329.82 1036.29,-322.83"/>
</g>
<!-- Node5 -->
<g id="node5" class="node">
<title>Node5</title>
<g id="a_node5"><a xlink:href="classitk_1_1LightObject.html" target="_top" xlink:title="Light weight base class for most itk classes.">
<polygon fill="white" stroke="black" points="660.5,-362.5 660.5,-381.5 751.5,-381.5 751.5,-362.5 660.5,-362.5"/>
<text text-anchor="middle" x="706" y="-369.5" font-family="Helvetica,sans-Serif" font-size="10.00">itk::LightObject</text>
</a>
</g>
</g>
<!-- Node5&#45;&gt;Node4 -->
<g id="edge4" class="edge">
<title>Node5&#45;&gt;Node4</title>
<path fill="none" stroke="midnightblue" d="M761.81,-366.49C802.33,-362.1 858.78,-355.32 908,-347 925.06,-344.12 943.91,-340.15 959.42,-336.68"/>
<polygon fill="midnightblue" stroke="midnightblue" points="761.44,-363.01 751.87,-367.55 762.19,-369.97 761.44,-363.01"/>
</g>
<!-- Node6 -->
<g id="node6" class="node">
<title>Node6</title>
<g id="a_node6"><a xlink:title=" ">
<polygon fill="white" stroke="#bfbfbf" points="378,-361.5 378,-380.5 485,-380.5 485,-361.5 378,-361.5"/>
<text text-anchor="middle" x="431.5" y="-368.5" font-family="Helvetica,sans-Serif" font-size="10.00">std::atomic&lt; int &gt;</text>
</a>
</g>
</g>
<!-- Node6&#45;&gt;Node5 -->
<g id="edge5" class="edge">
<title>Node6&#45;&gt;Node5</title>
<path fill="none" stroke="#9a32cd" stroke-dasharray="5,2" d="M495.18,-371.23C545.64,-371.42 615.33,-371.67 660.29,-371.84"/>
<polygon fill="#9a32cd" stroke="#9a32cd" points="495.05,-367.73 485.04,-371.19 495.03,-374.73 495.05,-367.73"/>
<text text-anchor="middle" x="572.5" y="-374" font-family="Helvetica,sans-Serif" font-size="10.00"> m_ReferenceCount</text>
</g>
<!-- Node7 -->
<g id="node7" class="node">
<title>Node7</title>
<g id="a_node7"><a xlink:title="STL class.">
<polygon fill="white" stroke="#bfbfbf" points="673.5,-264.5 673.5,-283.5 738.5,-283.5 738.5,-264.5 673.5,-264.5"/>
<text text-anchor="middle" x="706" y="-271.5" font-family="Helvetica,sans-Serif" font-size="10.00">std::string</text>
</a>
</g>
</g>
<!-- Node7&#45;&gt;Node3 -->
<g id="edge16" class="edge">
<title>Node7&#45;&gt;Node3</title>
<path fill="none" stroke="#9a32cd" stroke-dasharray="5,2" d="M748.7,-274.78C814.8,-276.22 947.64,-279.91 1060,-288 1120.71,-292.37 1190.58,-300.15 1234.99,-305.44"/>
<polygon fill="#9a32cd" stroke="#9a32cd" points="748.75,-271.28 738.68,-274.57 748.6,-278.28 748.75,-271.28"/>
<text text-anchor="middle" x="993" y="-302" font-family="Helvetica,sans-Serif" font-size="10.00"> m_HumanReadableFormat</text>
<text text-anchor="middle" x="993" y="-291" font-family="Helvetica,sans-Serif" font-size="10.00">m_Name</text>
</g>
<!-- Node7&#45;&gt;Node4 -->
<g id="edge6" class="edge">
<title>Node7&#45;&gt;Node4</title>
<path fill="none" stroke="#9a32cd" stroke-dasharray="5,2" d="M748.93,-280.13C789.72,-286.31 853.35,-296.56 908,-308 925.07,-311.57 943.91,-316.22 959.42,-320.23"/>
<polygon fill="#9a32cd" stroke="#9a32cd" points="749.23,-276.63 738.82,-278.6 748.19,-283.55 749.23,-276.63"/>
<text text-anchor="middle" x="849.5" y="-311" font-family="Helvetica,sans-Serif" font-size="10.00"> m_ObjectName</text>
</g>
<!-- Node21 -->
<g id="node21" class="node">
<title>Node21</title>
<g id="a_node21"><a xlink:title=" ">
<polygon fill="white" stroke="#bfbfbf" points="1078,-229.5 1078,-248.5 1217,-248.5 1217,-229.5 1078,-229.5"/>
<text text-anchor="middle" x="1147.5" y="-236.5" font-family="Helvetica,sans-Serif" font-size="10.00">std::queue&lt; std::string &gt;</text>
</a>
</g>
</g>
<!-- Node7&#45;&gt;Node21 -->
<g id="edge23" class="edge">
<title>Node7&#45;&gt;Node21</title>
<path fill="none" stroke="#9a32cd" stroke-dasharray="5,2" d="M742.47,-261.21C757.27,-256.46 774.76,-251.6 791,-249 889.77,-233.19 1005.89,-233.39 1077.86,-235.66"/>
<polygon fill="#9a32cd" stroke="#9a32cd" points="741.09,-257.98 732.7,-264.45 743.29,-264.62 741.09,-257.98"/>
<text text-anchor="middle" x="849.5" y="-252" font-family="Helvetica,sans-Serif" font-size="10.00"> elements</text>
</g>
<!-- Node8 -->
<g id="node8" class="node">
<title>Node8</title>
<g id="a_node8"><a xlink:title="STL class.">
<polygon fill="white" stroke="#bfbfbf" points="379.5,-259 379.5,-289 483.5,-289 483.5,-259 379.5,-259"/>
<text text-anchor="start" x="387.5" y="-277" font-family="Helvetica,sans-Serif" font-size="10.00">std::basic_string&lt;</text>
<text text-anchor="middle" x="431.5" y="-266" font-family="Helvetica,sans-Serif" font-size="10.00"> char &gt;</text>
</a>
</g>
</g>
<!-- Node8&#45;&gt;Node7 -->
<g id="edge7" class="edge">
<title>Node8&#45;&gt;Node7</title>
<path fill="none" stroke="midnightblue" d="M493.85,-274C549.49,-274 629.3,-274 673.14,-274"/>
<polygon fill="midnightblue" stroke="midnightblue" points="493.76,-270.5 483.76,-274 493.76,-277.5 493.76,-270.5"/>
</g>
<!-- Node9 -->
<g id="node9" class="node">
<title>Node9</title>
<g id="a_node9"><a xlink:href="classitk_1_1MetaDataDictionary.html" target="_top" xlink:title="Provides a mechanism for storing a collection of arbitrary data types.">
<polygon fill="white" stroke="black" points="639,-402.5 639,-421.5 773,-421.5 773,-402.5 639,-402.5"/>
<text text-anchor="middle" x="706" y="-409.5" font-family="Helvetica,sans-Serif" font-size="10.00">itk::MetaDataDictionary</text>
</a>
</g>
</g>
<!-- Node9&#45;&gt;Node4 -->
<g id="edge8" class="edge">
<title>Node9&#45;&gt;Node4</title>
<path fill="none" stroke="#9a32cd" stroke-dasharray="5,2" d="M783.47,-406.05C822.71,-400.4 870.08,-389.41 908,-368 918.13,-362.28 916.1,-355.11 926,-349 936.08,-342.77 948.24,-338.37 959.36,-335.31"/>
<polygon fill="#9a32cd" stroke="#9a32cd" points="782.87,-402.6 773.43,-407.41 783.8,-409.54 782.87,-402.6"/>
<text text-anchor="middle" x="849.5" y="-407" font-family="Helvetica,sans-Serif" font-size="10.00"> m_MetaDataDictionary</text>
</g>
<!-- Node10 -->
<g id="node10" class="node">
<title>Node10</title>
<g id="a_node10"><a xlink:title=" ">
<polygon fill="white" stroke="#bfbfbf" points="357,-400 357,-430 506,-430 506,-400 357,-400"/>
<text text-anchor="start" x="365" y="-418" font-family="Helvetica,sans-Serif" font-size="10.00">std::shared_ptr&lt; MetaData</text>
<text text-anchor="middle" x="431.5" y="-407" font-family="Helvetica,sans-Serif" font-size="10.00">DictionaryMapType &gt;</text>
</a>
</g>
</g>
<!-- Node10&#45;&gt;Node9 -->
<g id="edge9" class="edge">
<title>Node10&#45;&gt;Node9</title>
<path fill="none" stroke="#9a32cd" stroke-dasharray="5,2" d="M516.34,-414.08C555.65,-413.64 601.82,-413.14 638.65,-412.73"/>
<polygon fill="#9a32cd" stroke="#9a32cd" points="516.2,-410.58 506.24,-414.19 516.28,-417.58 516.2,-410.58"/>
<text text-anchor="middle" x="572.5" y="-416" font-family="Helvetica,sans-Serif" font-size="10.00"> m_Dictionary</text>
</g>
<!-- Node11 -->
<g id="node11" class="node">
<title>Node11</title>
<g id="a_node11"><a xlink:title="STL class.">
<polygon fill="white" stroke="#bfbfbf" points="114,-404.5 114,-423.5 215,-423.5 215,-404.5 114,-404.5"/>
<text text-anchor="middle" x="164.5" y="-411.5" font-family="Helvetica,sans-Serif" font-size="10.00">std::map&lt; K, T &gt;</text>
</a>
</g>
</g>
<!-- Node11&#45;&gt;Node10 -->
<g id="edge10" class="edge">
<title>Node11&#45;&gt;Node10</title>
<path fill="none" stroke="#9a32cd" stroke-dasharray="5,2" d="M225.18,-414.23C264.19,-414.37 315.41,-414.57 356.93,-414.72"/>
<polygon fill="#9a32cd" stroke="#9a32cd" points="225.05,-410.72 215.03,-414.19 225.02,-417.72 225.05,-410.72"/>
<text text-anchor="middle" x="286" y="-417" font-family="Helvetica,sans-Serif" font-size="10.00"> ptr</text>
</g>
<!-- Node12 -->
<g id="node12" class="node">
<title>Node12</title>
<g id="a_node12"><a xlink:title=" ">
<polygon fill="white" stroke="#bfbfbf" points="0,-404.5 0,-423.5 29,-423.5 29,-404.5 0,-404.5"/>
<text text-anchor="middle" x="14.5" y="-411.5" font-family="Helvetica,sans-Serif" font-size="10.00">K</text>
</a>
</g>
</g>
<!-- Node12&#45;&gt;Node11 -->
<g id="edge11" class="edge">
<title>Node12&#45;&gt;Node11</title>
<path fill="none" stroke="#9a32cd" stroke-dasharray="5,2" d="M39.24,-414C59.28,-414 88.63,-414 113.78,-414"/>
<polygon fill="#9a32cd" stroke="#9a32cd" points="39.16,-410.5 29.16,-414 39.16,-417.5 39.16,-410.5"/>
<text text-anchor="middle" x="71.5" y="-417" font-family="Helvetica,sans-Serif" font-size="10.00"> keys</text>
</g>
<!-- Node13 -->
<g id="node13" class="node">
<title>Node13</title>
<g id="a_node13"><a xlink:title=" ">
<polygon fill="white" stroke="#bfbfbf" points="0,-351.5 0,-370.5 29,-370.5 29,-351.5 0,-351.5"/>
<text text-anchor="middle" x="14.5" y="-358.5" font-family="Helvetica,sans-Serif" font-size="10.00">T</text>
</a>
</g>
</g>
<!-- Node13&#45;&gt;Node11 -->
<g id="edge12" class="edge">
<title>Node13&#45;&gt;Node11</title>
<path fill="none" stroke="#9a32cd" stroke-dasharray="5,2" d="M38.78,-369.34C65.36,-378.85 108.76,-394.4 136.72,-404.41"/>
<polygon fill="#9a32cd" stroke="#9a32cd" points="39.75,-365.97 29.16,-365.89 37.39,-372.56 39.75,-365.97"/>
<text text-anchor="middle" x="71.5" y="-392" font-family="Helvetica,sans-Serif" font-size="10.00"> elements</text>
</g>
<!-- Node15 -->
<g id="node15" class="node">
<title>Node15</title>
<g id="a_node15"><a xlink:title="STL class.">
<polygon fill="white" stroke="#bfbfbf" points="114.5,-330.5 114.5,-349.5 214.5,-349.5 214.5,-330.5 114.5,-330.5"/>
<text text-anchor="middle" x="164.5" y="-337.5" font-family="Helvetica,sans-Serif" font-size="10.00">std::atomic&lt; T &gt;</text>
</a>
</g>
</g>
<!-- Node13&#45;&gt;Node15 -->
<g id="edge15" class="edge">
<title>Node13&#45;&gt;Node15</title>
<path fill="none" stroke="#9a32cd" stroke-dasharray="5,2" d="M38.38,-348.85C41.22,-347.72 44.14,-346.72 47,-346 68.69,-340.51 93.37,-338.64 114.4,-338.29"/>
<polygon fill="#9a32cd" stroke="#9a32cd" points="36.82,-345.72 29.17,-353.05 39.72,-352.09 36.82,-345.72"/>
<text text-anchor="middle" x="71.5" y="-349" font-family="Helvetica,sans-Serif" font-size="10.00"> ptr</text>
</g>
<!-- Node14 -->
<g id="node14" class="node">
<title>Node14</title>
<g id="a_node14"><a xlink:href="classitk_1_1TimeStamp.html" target="_top" xlink:title="Generate a unique, increasing time value.">
<polygon fill="white" stroke="black" points="526.5,-323.5 526.5,-342.5 618.5,-342.5 618.5,-323.5 526.5,-323.5"/>
<text text-anchor="middle" x="572.5" y="-330.5" font-family="Helvetica,sans-Serif" font-size="10.00">itk::TimeStamp</text>
</a>
</g>
</g>
<!-- Node14&#45;&gt;Node4 -->
<g id="edge13" class="edge">
<title>Node14&#45;&gt;Node4</title>
<path fill="none" stroke="#9a32cd" stroke-dasharray="5,2" d="M628.8,-332.47C717.33,-331.63 888.15,-329.99 959.48,-329.31"/>
<polygon fill="#9a32cd" stroke="#9a32cd" points="628.65,-328.97 618.68,-332.57 628.72,-335.97 628.65,-328.97"/>
<text text-anchor="middle" x="706" y="-335" font-family="Helvetica,sans-Serif" font-size="10.00"> m_MTime</text>
</g>
<!-- Node15&#45;&gt;Node14 -->
<g id="edge14" class="edge">
<title>Node15&#45;&gt;Node14</title>
<path fill="none" stroke="#9a32cd" stroke-dasharray="5,2" d="M225.03,-338.97C306.93,-337.56 452.57,-335.05 526.2,-333.78"/>
<polygon fill="#9a32cd" stroke="#9a32cd" points="224.82,-335.48 214.88,-339.15 224.94,-342.48 224.82,-335.48"/>
<text text-anchor="middle" x="286" y="-341" font-family="Helvetica,sans-Serif" font-size="10.00"> m_GlobalTimeStamp</text>
</g>
<!-- Node16 -->
<g id="node16" class="node">
<title>Node16</title>
<g id="a_node16"><a xlink:href="classitk_1_1SmartPointer.html" target="_top" xlink:title=" ">
<polygon fill="white" stroke="black" points="939.5,-358 939.5,-388 1046.5,-388 1046.5,-358 939.5,-358"/>
<text text-anchor="start" x="947.5" y="-376" font-family="Helvetica,sans-Serif" font-size="10.00">itk::SmartPointer&lt;</text>
<text text-anchor="middle" x="993" y="-365" font-family="Helvetica,sans-Serif" font-size="10.00"> Self &gt;</text>
</a>
</g>
</g>
<!-- Node16&#45;&gt;Node3 -->
<g id="edge17" class="edge">
<title>Node16&#45;&gt;Node3</title>
<path fill="none" stroke="#9a32cd" stroke-dasharray="5,2" d="M1056.69,-364.47C1101.7,-357.69 1163.59,-347.02 1217,-333 1229.89,-329.62 1243.91,-324.83 1255.45,-320.59"/>
<polygon fill="#9a32cd" stroke="#9a32cd" points="1056.16,-361.01 1046.78,-365.94 1057.18,-367.94 1056.16,-361.01"/>
<text text-anchor="middle" x="1147.5" y="-374" font-family="Helvetica,sans-Serif" font-size="10.00"> m_Output</text>
<text text-anchor="middle" x="1147.5" y="-363" font-family="Helvetica,sans-Serif" font-size="10.00">m_Clock</text>
</g>
<!-- Node17 -->
<g id="node17" class="node">
<title>Node17</title>
<g id="a_node17"><a xlink:title=" ">
<polygon fill="white" stroke="#bfbfbf" points="1446.5,-203 1446.5,-233 1580.5,-233 1580.5,-203 1446.5,-203"/>
<text text-anchor="start" x="1454.5" y="-221" font-family="Helvetica,sans-Serif" font-size="10.00">std::queue&lt; OutputType</text>
<text text-anchor="middle" x="1513.5" y="-210" font-family="Helvetica,sans-Serif" font-size="10.00">::Pointer &gt;</text>
</a>
</g>
</g>
<!-- Node17&#45;&gt;Node1 -->
<g id="edge18" class="edge">
<title>Node17&#45;&gt;Node1</title>
<path fill="none" stroke="#9a32cd" stroke-dasharray="5,2" d="M1591,-210.03C1635.08,-204.38 1691.23,-195.4 1740,-182 1756.29,-177.52 1774.01,-170.41 1787.27,-164.61"/>
<polygon fill="#9a32cd" stroke="#9a32cd" points="1590.42,-206.57 1580.93,-211.28 1591.29,-213.52 1590.42,-206.57"/>
<text text-anchor="middle" x="1676" y="-210" font-family="Helvetica,sans-Serif" font-size="10.00"> m_OutputQ</text>
</g>
<!-- Node18 -->
<g id="node18" class="node">
<title>Node18</title>
<g id="a_node18"><a xlink:title=" ">
<polygon fill="white" stroke="#bfbfbf" points="1456,-164.5 1456,-183.5 1571,-183.5 1571,-164.5 1456,-164.5"/>
<text text-anchor="middle" x="1513.5" y="-171.5" font-family="Helvetica,sans-Serif" font-size="10.00">std::atomic&lt; bool &gt;</text>
</a>
</g>
</g>
<!-- Node18&#45;&gt;Node1 -->
<g id="edge19" class="edge">
<title>Node18&#45;&gt;Node1</title>
<path fill="none" stroke="#9a32cd" stroke-dasharray="5,2" d="M1581.2,-169.68C1634.91,-166.2 1709.23,-161.39 1757.94,-158.24"/>
<polygon fill="#9a32cd" stroke="#9a32cd" points="1580.84,-166.2 1571.09,-170.34 1581.29,-173.18 1580.84,-166.2"/>
<text text-anchor="middle" x="1676" y="-170" font-family="Helvetica,sans-Serif" font-size="10.00"> m_TerminationRequested</text>
</g>
<!-- Node19 -->
<g id="node19" class="node">
<title>Node19</title>
<g id="a_node19"><a xlink:title=" ">
<polygon fill="white" stroke="#bfbfbf" points="1433,-126.5 1433,-145.5 1594,-145.5 1594,-126.5 1433,-126.5"/>
<text text-anchor="middle" x="1513.5" y="-133.5" font-family="Helvetica,sans-Serif" font-size="10.00">std::queue&lt; OperationType &gt;</text>
</a>
</g>
</g>
<!-- Node19&#45;&gt;Node1 -->
<g id="edge20" class="edge">
<title>Node19&#45;&gt;Node1</title>
<path fill="none" stroke="#9a32cd" stroke-dasharray="5,2" d="M1604.3,-136.62C1645.7,-137.56 1695.43,-139.62 1740,-144 1745.83,-144.57 1751.92,-145.33 1757.96,-146.18"/>
<polygon fill="#9a32cd" stroke="#9a32cd" points="1604.31,-133.12 1594.24,-136.4 1604.16,-140.11 1604.31,-133.12"/>
<text text-anchor="middle" x="1676" y="-147" font-family="Helvetica,sans-Serif" font-size="10.00"> m_OperationQ</text>
</g>
<!-- Node20 -->
<g id="node20" class="node">
<title>Node20</title>
<g id="a_node20"><a xlink:title="STL class.">
<polygon fill="white" stroke="#bfbfbf" points="1479,-88.5 1479,-107.5 1548,-107.5 1548,-88.5 1479,-88.5"/>
<text text-anchor="middle" x="1513.5" y="-95.5" font-family="Helvetica,sans-Serif" font-size="10.00">std::mutex</text>
</a>
</g>
</g>
<!-- Node20&#45;&gt;Node1 -->
<g id="edge21" class="edge">
<title>Node20&#45;&gt;Node1</title>
<path fill="none" stroke="#9a32cd" stroke-dasharray="5,2" d="M1558.32,-97.83C1604.42,-98.71 1678.65,-103.18 1740,-121 1759.27,-126.6 1779.63,-137.53 1792.99,-145.5"/>
<polygon fill="#9a32cd" stroke="#9a32cd" points="1558.13,-94.33 1548.08,-97.68 1558.03,-101.32 1558.13,-94.33"/>
<text text-anchor="middle" x="1676" y="-124" font-family="Helvetica,sans-Serif" font-size="10.00"> m_Mutex</text>
</g>
<!-- Node21&#45;&gt;Node1 -->
<g id="edge22" class="edge">
<title>Node21&#45;&gt;Node1</title>
<path fill="none" stroke="#9a32cd" stroke-dasharray="5,2" d="M1197.91,-250.73C1303.82,-273.16 1557.85,-312.34 1740,-222 1767.32,-208.45 1790.5,-179.77 1801.37,-164.7"/>
<polygon fill="#9a32cd" stroke="#9a32cd" points="1198.35,-247.24 1187.83,-248.55 1196.87,-254.08 1198.35,-247.24"/>
<text text-anchor="middle" x="1380" y="-280" font-family="Helvetica,sans-Serif" font-size="10.00"> m_MessageQ</text>
</g>
<!-- Node22 -->
<g id="node22" class="node">
<title>Node22</title>
<g id="a_node22"><a xlink:title=" ">
<polygon fill="white" stroke="#bfbfbf" points="1443.5,-39 1443.5,-69 1583.5,-69 1583.5,-39 1443.5,-39"/>
<text text-anchor="start" x="1451.5" y="-57" font-family="Helvetica,sans-Serif" font-size="10.00">std::queue&lt; PriorityLevel</text>
<text text-anchor="middle" x="1513.5" y="-46" font-family="Helvetica,sans-Serif" font-size="10.00">Enum &gt;</text>
</a>
</g>
</g>
<!-- Node22&#45;&gt;Node1 -->
<g id="edge24" class="edge">
<title>Node22&#45;&gt;Node1</title>
<path fill="none" stroke="#9a32cd" stroke-dasharray="5,2" d="M1593.57,-52.39C1638.64,-54.44 1694.92,-62.2 1740,-85 1768.12,-99.22 1791.28,-129.73 1801.84,-145.35"/>
<polygon fill="#9a32cd" stroke="#9a32cd" points="1593.68,-48.89 1583.55,-52.01 1593.42,-55.88 1593.68,-48.89"/>
<text text-anchor="middle" x="1676" y="-88" font-family="Helvetica,sans-Serif" font-size="10.00"> m_LevelQ</text>
</g>
<!-- Node23 -->
<g id="node23" class="node">
<title>Node23</title>
<g id="a_node23"><a xlink:title="STL class.">
<polygon fill="white" stroke="#bfbfbf" points="1479,-0.5 1479,-19.5 1548,-19.5 1548,-0.5 1479,-0.5"/>
<text text-anchor="middle" x="1513.5" y="-7.5" font-family="Helvetica,sans-Serif" font-size="10.00">std::thread</text>
</a>
</g>
</g>
<!-- Node23&#45;&gt;Node1 -->
<g id="edge25" class="edge">
<title>Node23&#45;&gt;Node1</title>
<path fill="none" stroke="#9a32cd" stroke-dasharray="5,2" d="M1558.41,-4.55C1606.93,-0.84 1685.42,-1.93 1740,-38 1779.79,-64.29 1799.23,-122.46 1805.58,-145.41"/>
<polygon fill="#9a32cd" stroke="#9a32cd" points="1557.89,-1.08 1548.23,-5.43 1558.49,-8.06 1557.89,-1.08"/>
<text text-anchor="middle" x="1676" y="-41" font-family="Helvetica,sans-Serif" font-size="10.00"> m_Thread</text>
</g>
</g>
</svg>
