<?xml version="1.0" encoding="UTF-8" standalone="no"?>
<!DOCTYPE svg PUBLIC "-//W3C//DTD SVG 1.1//EN"
 "http://www.w3.org/Graphics/SVG/1.1/DTD/svg11.dtd">
<!-- Generated by graphviz version 2.43.0 (0)
 -->
<!-- Title: itk::FloodFilledImageFunctionConditionalIterator&lt; TImage, TFunction &gt; Pages: 1 -->
<svg width="836pt" height="214pt"
 viewBox="0.00 0.00 836.00 214.00" xmlns="http://www.w3.org/2000/svg" xmlns:xlink="http://www.w3.org/1999/xlink">
<g id="graph0" class="graph" transform="scale(1 1) rotate(0) translate(4 210)">
<title>itk::FloodFilledImageFunctionConditionalIterator&lt; TImage, TFunction &gt;</title>
<polygon fill="white" stroke="transparent" points="-4,4 -4,-210 832,-210 832,4 -4,4"/>
<!-- Node1 -->
<g id="node1" class="node">
<title>Node1</title>
<g id="a_node1"><a xlink:title="Iterates over a flood&#45;filled image function with write access to pixels.">
<polygon fill="#bfbfbf" stroke="black" points="667,-88 667,-129 828,-129 828,-88 667,-88"/>
<text text-anchor="start" x="675" y="-117" font-family="Helvetica,sans-Serif" font-size="10.00">itk::FloodFilledImageFunction</text>
<text text-anchor="start" x="675" y="-106" font-family="Helvetica,sans-Serif" font-size="10.00">ConditionalIterator&lt; TImage,</text>
<text text-anchor="middle" x="747.5" y="-95" font-family="Helvetica,sans-Serif" font-size="10.00"> TFunction &gt;</text>
</a>
</g>
</g>
<!-- Node2 -->
<g id="node2" class="node">
<title>Node2</title>
<g id="a_node2"><a xlink:href="classitk_1_1FloodFilledImageFunctionConditionalConstIterator.html" target="_top" xlink:title="Iterates over a flood&#45;filled image function with read&#45;only access to pixels.">
<polygon fill="white" stroke="black" points="469,-88 469,-129 630,-129 630,-88 469,-88"/>
<text text-anchor="start" x="477" y="-117" font-family="Helvetica,sans-Serif" font-size="10.00">itk::FloodFilledImageFunction</text>
<text text-anchor="start" x="477" y="-106" font-family="Helvetica,sans-Serif" font-size="10.00">ConditionalConstIterator</text>
<text text-anchor="middle" x="549.5" y="-95" font-family="Helvetica,sans-Serif" font-size="10.00">&lt; TImage, TFunction &gt;</text>
</a>
</g>
</g>
<!-- Node2&#45;&gt;Node1 -->
<g id="edge1" class="edge">
<title>Node2&#45;&gt;Node1</title>
<path fill="none" stroke="midnightblue" d="M640.49,-108.5C649.28,-108.5 658.17,-108.5 666.85,-108.5"/>
<polygon fill="midnightblue" stroke="midnightblue" points="640.22,-105 630.22,-108.5 640.22,-112 640.22,-105"/>
</g>
<!-- Node3 -->
<g id="node3" class="node">
<title>Node3</title>
<g id="a_node3"><a xlink:href="classitk_1_1FloodFilledFunctionConditionalConstIterator.html" target="_top" xlink:title="Iterates over a flood&#45;filled spatial function.">
<polygon fill="white" stroke="black" points="296,-88 296,-129 432,-129 432,-88 296,-88"/>
<text text-anchor="start" x="304" y="-117" font-family="Helvetica,sans-Serif" font-size="10.00">itk::FloodFilledFunction</text>
<text text-anchor="start" x="304" y="-106" font-family="Helvetica,sans-Serif" font-size="10.00">ConditionalConstIterator</text>
<text text-anchor="middle" x="364" y="-95" font-family="Helvetica,sans-Serif" font-size="10.00">&lt; TImage, TFunction &gt;</text>
</a>
</g>
</g>
<!-- Node3&#45;&gt;Node2 -->
<g id="edge2" class="edge">
<title>Node3&#45;&gt;Node2</title>
<path fill="none" stroke="midnightblue" d="M442.26,-108.5C451.06,-108.5 460.05,-108.5 468.88,-108.5"/>
<polygon fill="midnightblue" stroke="midnightblue" points="442.03,-105 432.03,-108.5 442.03,-112 442.03,-105"/>
</g>
<!-- Node4 -->
<g id="node4" class="node">
<title>Node4</title>
<g id="a_node4"><a xlink:href="classitk_1_1ConditionalConstIterator.html" target="_top" xlink:title="A base class for other iterators where membership in the set of output pixels is conditional upon som...">
<polygon fill="white" stroke="black" points="0,-175.5 0,-205.5 155,-205.5 155,-175.5 0,-175.5"/>
<text text-anchor="start" x="8" y="-193.5" font-family="Helvetica,sans-Serif" font-size="10.00">itk::ConditionalConstIterator</text>
<text text-anchor="middle" x="77.5" y="-182.5" font-family="Helvetica,sans-Serif" font-size="10.00">&lt; TImage &gt;</text>
</a>
</g>
</g>
<!-- Node4&#45;&gt;Node3 -->
<g id="edge3" class="edge">
<title>Node4&#45;&gt;Node3</title>
<path fill="none" stroke="midnightblue" d="M164.98,-178.93C200.57,-172.8 241.85,-163.91 278,-151.5 294.89,-145.7 312.66,-137.14 327.56,-129.18"/>
<polygon fill="midnightblue" stroke="midnightblue" points="164.39,-175.48 155.1,-180.59 165.54,-182.38 164.39,-175.48"/>
</g>
<!-- Node5 -->
<g id="node5" class="node">
<title>Node5</title>
<g id="a_node5"><a xlink:title=" ">
<polygon fill="white" stroke="#bfbfbf" points="7.5,-137 7.5,-156 147.5,-156 147.5,-137 7.5,-137"/>
<text text-anchor="middle" x="77.5" y="-144" font-family="Helvetica,sans-Serif" font-size="10.00">std::queue&lt; IndexType &gt;</text>
</a>
</g>
</g>
<!-- Node5&#45;&gt;Node3 -->
<g id="edge4" class="edge">
<title>Node5&#45;&gt;Node3</title>
<path fill="none" stroke="#9a32cd" stroke-dasharray="5,2" d="M158,-138.44C194.61,-134.44 238.58,-129.25 278,-123.5 283.78,-122.66 289.78,-121.72 295.78,-120.74"/>
<polygon fill="#9a32cd" stroke="#9a32cd" points="157.44,-134.98 147.88,-139.53 158.2,-141.94 157.44,-134.98"/>
<text text-anchor="middle" x="225.5" y="-139.5" font-family="Helvetica,sans-Serif" font-size="10.00"> m_IndexStack</text>
</g>
<!-- Node6 -->
<g id="node6" class="node">
<title>Node6</title>
<g id="a_node6"><a xlink:title=" ">
<polygon fill="white" stroke="#bfbfbf" points="7.5,-99 7.5,-118 147.5,-118 147.5,-99 7.5,-99"/>
<text text-anchor="middle" x="77.5" y="-106" font-family="Helvetica,sans-Serif" font-size="10.00">std::vector&lt; IndexType &gt;</text>
</a>
</g>
</g>
<!-- Node6&#45;&gt;Node3 -->
<g id="edge5" class="edge">
<title>Node6&#45;&gt;Node3</title>
<path fill="none" stroke="#9a32cd" stroke-dasharray="5,2" d="M157.98,-108.5C201.4,-108.5 254.59,-108.5 295.91,-108.5"/>
<polygon fill="#9a32cd" stroke="#9a32cd" points="157.73,-105 147.73,-108.5 157.73,-112 157.73,-105"/>
<text text-anchor="middle" x="225.5" y="-111.5" font-family="Helvetica,sans-Serif" font-size="10.00"> m_Seeds</text>
</g>
<!-- Node7 -->
<g id="node7" class="node">
<title>Node7</title>
<g id="a_node7"><a xlink:href="classitk_1_1SmartPointer.html" target="_top" xlink:title=" ">
<polygon fill="white" stroke="black" points="24,-49.5 24,-79.5 131,-79.5 131,-49.5 24,-49.5"/>
<text text-anchor="start" x="32" y="-67.5" font-family="Helvetica,sans-Serif" font-size="10.00">itk::SmartPointer&lt;</text>
<text text-anchor="middle" x="77.5" y="-56.5" font-family="Helvetica,sans-Serif" font-size="10.00"> FunctionType &gt;</text>
</a>
</g>
</g>
<!-- Node7&#45;&gt;Node3 -->
<g id="edge6" class="edge">
<title>Node7&#45;&gt;Node3</title>
<path fill="none" stroke="#9a32cd" stroke-dasharray="5,2" d="M141.05,-73.1C180.41,-78.63 232.23,-86.14 278,-93.5 283.77,-94.43 289.75,-95.42 295.75,-96.44"/>
<polygon fill="#9a32cd" stroke="#9a32cd" points="141.46,-69.62 131.07,-71.7 140.49,-76.55 141.46,-69.62"/>
<text text-anchor="middle" x="225.5" y="-96.5" font-family="Helvetica,sans-Serif" font-size="10.00"> m_Function</text>
</g>
<!-- Node8 -->
<g id="node8" class="node">
<title>Node8</title>
<g id="a_node8"><a xlink:href="classitk_1_1SmartPointer.html" target="_top" xlink:title=" ">
<polygon fill="white" stroke="black" points="24,-0.5 24,-30.5 131,-30.5 131,-0.5 24,-0.5"/>
<text text-anchor="start" x="32" y="-18.5" font-family="Helvetica,sans-Serif" font-size="10.00">itk::SmartPointer&lt;</text>
<text text-anchor="middle" x="77.5" y="-7.5" font-family="Helvetica,sans-Serif" font-size="10.00"> Self &gt;</text>
</a>
</g>
</g>
<!-- Node8&#45;&gt;Node3 -->
<g id="edge7" class="edge">
<title>Node8&#45;&gt;Node3</title>
<path fill="none" stroke="#9a32cd" stroke-dasharray="5,2" d="M141.17,-25.85C181.12,-33.51 233.55,-45.58 278,-62.5 295.72,-69.25 314.36,-79 329.65,-87.79"/>
<polygon fill="#9a32cd" stroke="#9a32cd" points="141.77,-22.4 131.3,-23.99 140.48,-29.28 141.77,-22.4"/>
<text text-anchor="middle" x="225.5" y="-65.5" font-family="Helvetica,sans-Serif" font-size="10.00"> m_TemporaryPointer</text>
</g>
</g>
</svg>
