<?xml version="1.0" encoding="UTF-8" standalone="no"?>
<!DOCTYPE svg PUBLIC "-//W3C//DTD SVG 1.1//EN"
 "http://www.w3.org/Graphics/SVG/1.1/DTD/svg11.dtd">
<!-- Generated by graphviz version 2.43.0 (0)
 -->
<!-- Title: itk::LevelSetEquationChanAndVeseInternalTerm&lt; TInput, TLevelSetContainer &gt; Pages: 1 -->
<svg width="203pt" height="307pt"
 viewBox="0.00 0.00 203.00 307.00" xmlns="http://www.w3.org/2000/svg" xmlns:xlink="http://www.w3.org/1999/xlink">
<g id="graph0" class="graph" transform="scale(1 1) rotate(0) translate(4 303)">
<title>itk::LevelSetEquationChanAndVeseInternalTerm&lt; TInput, TLevelSetContainer &gt;</title>
<polygon fill="white" stroke="transparent" points="-4,4 -4,-303 199,-303 199,4 -4,4"/>
<!-- Node1 -->
<g id="node1" class="node">
<title>Node1</title>
<g id="a_node1"><a xlink:title="Class to represent the internal energy Chan And Vese term.">
<polygon fill="#bfbfbf" stroke="black" points="15,-78.5 15,-119.5 180,-119.5 180,-78.5 15,-78.5"/>
<text text-anchor="start" x="23" y="-107.5" font-family="Helvetica,sans-Serif" font-size="10.00">itk::LevelSetEquationChan</text>
<text text-anchor="start" x="23" y="-96.5" font-family="Helvetica,sans-Serif" font-size="10.00">AndVeseInternalTerm&lt; TInput,</text>
<text text-anchor="middle" x="97.5" y="-85.5" font-family="Helvetica,sans-Serif" font-size="10.00"> TLevelSetContainer &gt;</text>
</a>
</g>
</g>
<!-- Node5 -->
<g id="node5" class="node">
<title>Node5</title>
<g id="a_node5"><a xlink:href="classitk_1_1LevelSetEquationChanAndVeseExternalTerm.html" target="_top" xlink:title="Class to represent the external energy Chan And Vese term.">
<polygon fill="white" stroke="black" points="13.5,-0.5 13.5,-41.5 181.5,-41.5 181.5,-0.5 13.5,-0.5"/>
<text text-anchor="start" x="21.5" y="-29.5" font-family="Helvetica,sans-Serif" font-size="10.00">itk::LevelSetEquationChan</text>
<text text-anchor="start" x="21.5" y="-18.5" font-family="Helvetica,sans-Serif" font-size="10.00">AndVeseExternalTerm&lt; TInput,</text>
<text text-anchor="middle" x="97.5" y="-7.5" font-family="Helvetica,sans-Serif" font-size="10.00"> TLevelSetContainer &gt;</text>
</a>
</g>
</g>
<!-- Node1&#45;&gt;Node5 -->
<g id="edge4" class="edge">
<title>Node1&#45;&gt;Node5</title>
<path fill="none" stroke="midnightblue" d="M97.5,-68.3C97.5,-59.3 97.5,-49.65 97.5,-41.51"/>
<polygon fill="midnightblue" stroke="midnightblue" points="94,-68.43 97.5,-78.43 101,-68.43 94,-68.43"/>
</g>
<!-- Node2 -->
<g id="node2" class="node">
<title>Node2</title>
<g id="a_node2"><a xlink:href="classitk_1_1LevelSetEquationTermBase.html" target="_top" xlink:title=" ">
<polygon fill="white" stroke="black" points="0,-156.5 0,-186.5 195,-186.5 195,-156.5 0,-156.5"/>
<text text-anchor="start" x="8" y="-174.5" font-family="Helvetica,sans-Serif" font-size="10.00">itk::LevelSetEquationTerm</text>
<text text-anchor="middle" x="97.5" y="-163.5" font-family="Helvetica,sans-Serif" font-size="10.00">Base&lt; TInput, TLevelSetContainer &gt;</text>
</a>
</g>
</g>
<!-- Node2&#45;&gt;Node1 -->
<g id="edge1" class="edge">
<title>Node2&#45;&gt;Node1</title>
<path fill="none" stroke="midnightblue" d="M97.5,-145.98C97.5,-137.35 97.5,-127.76 97.5,-119.59"/>
<polygon fill="midnightblue" stroke="midnightblue" points="94,-146.23 97.5,-156.23 101,-146.23 94,-146.23"/>
</g>
<!-- Node3 -->
<g id="node3" class="node">
<title>Node3</title>
<g id="a_node3"><a xlink:href="classitk_1_1Object.html" target="_top" xlink:title="Base class for most ITK classes.">
<polygon fill="white" stroke="black" points="64,-223.5 64,-242.5 131,-242.5 131,-223.5 64,-223.5"/>
<text text-anchor="middle" x="97.5" y="-230.5" font-family="Helvetica,sans-Serif" font-size="10.00">itk::Object</text>
</a>
</g>
</g>
<!-- Node3&#45;&gt;Node2 -->
<g id="edge2" class="edge">
<title>Node3&#45;&gt;Node2</title>
<path fill="none" stroke="midnightblue" d="M97.5,-213.23C97.5,-204.59 97.5,-194.5 97.5,-186.52"/>
<polygon fill="midnightblue" stroke="midnightblue" points="94,-213.48 97.5,-223.48 101,-213.48 94,-213.48"/>
</g>
<!-- Node4 -->
<g id="node4" class="node">
<title>Node4</title>
<g id="a_node4"><a xlink:href="classitk_1_1LightObject.html" target="_top" xlink:title="Light weight base class for most itk classes.">
<polygon fill="white" stroke="black" points="52,-279.5 52,-298.5 143,-298.5 143,-279.5 52,-279.5"/>
<text text-anchor="middle" x="97.5" y="-286.5" font-family="Helvetica,sans-Serif" font-size="10.00">itk::LightObject</text>
</a>
</g>
</g>
<!-- Node4&#45;&gt;Node3 -->
<g id="edge3" class="edge">
<title>Node4&#45;&gt;Node3</title>
<path fill="none" stroke="midnightblue" d="M97.5,-268.8C97.5,-259.91 97.5,-249.78 97.5,-242.75"/>
<polygon fill="midnightblue" stroke="midnightblue" points="94,-269.08 97.5,-279.08 101,-269.08 94,-269.08"/>
</g>
</g>
</svg>
