<?xml version="1.0" encoding="UTF-8" standalone="no"?>
<!DOCTYPE svg PUBLIC "-//W3C//DTD SVG 1.1//EN"
 "http://www.w3.org/Graphics/SVG/1.1/DTD/svg11.dtd">
<!-- Generated by graphviz version 2.43.0 (0)
 -->
<!-- Title: itk::Statistics::KdTree&lt; TSample &gt; Pages: 1 -->
<svg width="1349pt" height="196pt"
 viewBox="0.00 0.00 1349.00 195.50" xmlns="http://www.w3.org/2000/svg" xmlns:xlink="http://www.w3.org/1999/xlink">
<g id="graph0" class="graph" transform="scale(1 1) rotate(0) translate(4 191.5)">
<title>itk::Statistics::KdTree&lt; TSample &gt;</title>
<polygon fill="white" stroke="transparent" points="-4,4 -4,-191.5 1345,-191.5 1345,4 -4,4"/>
<!-- Node1 -->
<g id="node1" class="node">
<title>Node1</title>
<g id="a_node1"><a xlink:title="This class provides methods for k&#45;nearest neighbor search and related data structures for a k&#45;d tree.">
<polygon fill="#bfbfbf" stroke="black" points="1222,-49.5 1222,-79.5 1341,-79.5 1341,-49.5 1222,-49.5"/>
<text text-anchor="start" x="1230" y="-67.5" font-family="Helvetica,sans-Serif" font-size="10.00">itk::Statistics::KdTree</text>
<text text-anchor="middle" x="1281.5" y="-56.5" font-family="Helvetica,sans-Serif" font-size="10.00">&lt; TSample &gt;</text>
</a>
</g>
</g>
<!-- Node2 -->
<g id="node2" class="node">
<title>Node2</title>
<g id="a_node2"><a xlink:href="classitk_1_1Object.html" target="_top" xlink:title="Base class for most ITK classes.">
<polygon fill="white" stroke="black" points="965,-99 965,-118 1032,-118 1032,-99 965,-99"/>
<text text-anchor="middle" x="998.5" y="-106" font-family="Helvetica,sans-Serif" font-size="10.00">itk::Object</text>
</a>
</g>
</g>
<!-- Node2&#45;&gt;Node1 -->
<g id="edge1" class="edge">
<title>Node2&#45;&gt;Node1</title>
<path fill="none" stroke="midnightblue" d="M1042.16,-107.71C1083.83,-106.25 1148.86,-102.12 1204,-90.5 1216.63,-87.84 1230.06,-83.73 1242.09,-79.56"/>
<polygon fill="midnightblue" stroke="midnightblue" points="1041.97,-104.22 1032.08,-108.03 1042.19,-111.21 1041.97,-104.22"/>
</g>
<!-- Node3 -->
<g id="node3" class="node">
<title>Node3</title>
<g id="a_node3"><a xlink:href="classitk_1_1LightObject.html" target="_top" xlink:title="Light weight base class for most itk classes.">
<polygon fill="white" stroke="black" points="660.5,-163 660.5,-182 751.5,-182 751.5,-163 660.5,-163"/>
<text text-anchor="middle" x="706" y="-170" font-family="Helvetica,sans-Serif" font-size="10.00">itk::LightObject</text>
</a>
</g>
</g>
<!-- Node3&#45;&gt;Node2 -->
<g id="edge2" class="edge">
<title>Node3&#45;&gt;Node2</title>
<path fill="none" stroke="midnightblue" d="M761.66,-165.11C802.33,-159.1 859.03,-149.63 908,-137.5 929.56,-132.16 953.47,-124.31 971.15,-118.12"/>
<polygon fill="midnightblue" stroke="midnightblue" points="761.08,-161.66 751.68,-166.56 762.09,-168.59 761.08,-161.66"/>
</g>
<!-- Node4 -->
<g id="node4" class="node">
<title>Node4</title>
<g id="a_node4"><a xlink:title=" ">
<polygon fill="white" stroke="#bfbfbf" points="378,-168 378,-187 485,-187 485,-168 378,-168"/>
<text text-anchor="middle" x="431.5" y="-175" font-family="Helvetica,sans-Serif" font-size="10.00">std::atomic&lt; int &gt;</text>
</a>
</g>
</g>
<!-- Node4&#45;&gt;Node3 -->
<g id="edge3" class="edge">
<title>Node4&#45;&gt;Node3</title>
<path fill="none" stroke="#9a32cd" stroke-dasharray="5,2" d="M495.18,-176.35C545.64,-175.42 615.33,-174.15 660.29,-173.32"/>
<polygon fill="#9a32cd" stroke="#9a32cd" points="494.97,-172.85 485.04,-176.54 495.1,-179.85 494.97,-172.85"/>
<text text-anchor="middle" x="572.5" y="-178.5" font-family="Helvetica,sans-Serif" font-size="10.00"> m_ReferenceCount</text>
</g>
<!-- Node5 -->
<g id="node5" class="node">
<title>Node5</title>
<g id="a_node5"><a xlink:title="STL class.">
<polygon fill="white" stroke="#bfbfbf" points="673.5,-119 673.5,-138 738.5,-138 738.5,-119 673.5,-119"/>
<text text-anchor="middle" x="706" y="-126" font-family="Helvetica,sans-Serif" font-size="10.00">std::string</text>
</a>
</g>
</g>
<!-- Node5&#45;&gt;Node2 -->
<g id="edge4" class="edge">
<title>Node5&#45;&gt;Node2</title>
<path fill="none" stroke="#9a32cd" stroke-dasharray="5,2" d="M748.97,-125.61C807.26,-121.6 911.53,-114.42 964.56,-110.77"/>
<polygon fill="#9a32cd" stroke="#9a32cd" points="748.38,-122.14 738.64,-126.32 748.86,-129.13 748.38,-122.14"/>
<text text-anchor="middle" x="849.5" y="-125.5" font-family="Helvetica,sans-Serif" font-size="10.00"> m_ObjectName</text>
</g>
<!-- Node6 -->
<g id="node6" class="node">
<title>Node6</title>
<g id="a_node6"><a xlink:title="STL class.">
<polygon fill="white" stroke="#bfbfbf" points="379.5,-118.5 379.5,-148.5 483.5,-148.5 483.5,-118.5 379.5,-118.5"/>
<text text-anchor="start" x="387.5" y="-136.5" font-family="Helvetica,sans-Serif" font-size="10.00">std::basic_string&lt;</text>
<text text-anchor="middle" x="431.5" y="-125.5" font-family="Helvetica,sans-Serif" font-size="10.00"> char &gt;</text>
</a>
</g>
</g>
<!-- Node6&#45;&gt;Node5 -->
<g id="edge5" class="edge">
<title>Node6&#45;&gt;Node5</title>
<path fill="none" stroke="midnightblue" d="M493.85,-132.37C549.49,-131.35 629.3,-129.89 673.14,-129.08"/>
<polygon fill="midnightblue" stroke="midnightblue" points="493.69,-128.88 483.76,-132.56 493.82,-135.88 493.69,-128.88"/>
</g>
<!-- Node7 -->
<g id="node7" class="node">
<title>Node7</title>
<g id="a_node7"><a xlink:href="classitk_1_1MetaDataDictionary.html" target="_top" xlink:title="Provides a mechanism for storing a collection of arbitrary data types.">
<polygon fill="white" stroke="black" points="639,-80 639,-99 773,-99 773,-80 639,-80"/>
<text text-anchor="middle" x="706" y="-87" font-family="Helvetica,sans-Serif" font-size="10.00">itk::MetaDataDictionary</text>
</a>
</g>
</g>
<!-- Node7&#45;&gt;Node2 -->
<g id="edge6" class="edge">
<title>Node7&#45;&gt;Node2</title>
<path fill="none" stroke="#9a32cd" stroke-dasharray="5,2" d="M783.59,-88.4C821.15,-88.53 867.02,-89.68 908,-93.5 926.98,-95.27 948.01,-98.72 964.92,-101.86"/>
<polygon fill="#9a32cd" stroke="#9a32cd" points="783.23,-84.9 773.22,-88.39 783.22,-91.9 783.23,-84.9"/>
<text text-anchor="middle" x="849.5" y="-96.5" font-family="Helvetica,sans-Serif" font-size="10.00"> m_MetaDataDictionary</text>
</g>
<!-- Node8 -->
<g id="node8" class="node">
<title>Node8</title>
<g id="a_node8"><a xlink:title=" ">
<polygon fill="white" stroke="#bfbfbf" points="357,-69.5 357,-99.5 506,-99.5 506,-69.5 357,-69.5"/>
<text text-anchor="start" x="365" y="-87.5" font-family="Helvetica,sans-Serif" font-size="10.00">std::shared_ptr&lt; MetaData</text>
<text text-anchor="middle" x="431.5" y="-76.5" font-family="Helvetica,sans-Serif" font-size="10.00">DictionaryMapType &gt;</text>
</a>
</g>
</g>
<!-- Node8&#45;&gt;Node7 -->
<g id="edge7" class="edge">
<title>Node8&#45;&gt;Node7</title>
<path fill="none" stroke="#9a32cd" stroke-dasharray="5,2" d="M516.34,-86.04C555.65,-86.76 601.82,-87.61 638.65,-88.28"/>
<polygon fill="#9a32cd" stroke="#9a32cd" points="516.3,-82.54 506.24,-85.85 516.18,-89.54 516.3,-82.54"/>
<text text-anchor="middle" x="572.5" y="-90.5" font-family="Helvetica,sans-Serif" font-size="10.00"> m_Dictionary</text>
</g>
<!-- Node9 -->
<g id="node9" class="node">
<title>Node9</title>
<g id="a_node9"><a xlink:title="STL class.">
<polygon fill="white" stroke="#bfbfbf" points="114,-75 114,-94 215,-94 215,-75 114,-75"/>
<text text-anchor="middle" x="164.5" y="-82" font-family="Helvetica,sans-Serif" font-size="10.00">std::map&lt; K, T &gt;</text>
</a>
</g>
</g>
<!-- Node9&#45;&gt;Node8 -->
<g id="edge8" class="edge">
<title>Node9&#45;&gt;Node8</title>
<path fill="none" stroke="#9a32cd" stroke-dasharray="5,2" d="M225.18,-84.5C264.19,-84.5 315.41,-84.5 356.93,-84.5"/>
<polygon fill="#9a32cd" stroke="#9a32cd" points="225.03,-81 215.03,-84.5 225.03,-88 225.03,-81"/>
<text text-anchor="middle" x="286" y="-87.5" font-family="Helvetica,sans-Serif" font-size="10.00"> ptr</text>
</g>
<!-- Node10 -->
<g id="node10" class="node">
<title>Node10</title>
<g id="a_node10"><a xlink:title=" ">
<polygon fill="white" stroke="#bfbfbf" points="0,-99 0,-118 29,-118 29,-99 0,-99"/>
<text text-anchor="middle" x="14.5" y="-106" font-family="Helvetica,sans-Serif" font-size="10.00">K</text>
</a>
</g>
</g>
<!-- Node10&#45;&gt;Node9 -->
<g id="edge9" class="edge">
<title>Node10&#45;&gt;Node9</title>
<path fill="none" stroke="#9a32cd" stroke-dasharray="5,2" d="M39.24,-104.65C59.28,-101.4 88.63,-96.64 113.78,-92.56"/>
<polygon fill="#9a32cd" stroke="#9a32cd" points="38.47,-101.23 29.16,-106.29 39.59,-108.14 38.47,-101.23"/>
<text text-anchor="middle" x="71.5" y="-105.5" font-family="Helvetica,sans-Serif" font-size="10.00"> keys</text>
</g>
<!-- Node11 -->
<g id="node11" class="node">
<title>Node11</title>
<g id="a_node11"><a xlink:title=" ">
<polygon fill="white" stroke="#bfbfbf" points="0,-46 0,-65 29,-65 29,-46 0,-46"/>
<text text-anchor="middle" x="14.5" y="-53" font-family="Helvetica,sans-Serif" font-size="10.00">T</text>
</a>
</g>
</g>
<!-- Node11&#45;&gt;Node9 -->
<g id="edge10" class="edge">
<title>Node11&#45;&gt;Node9</title>
<path fill="none" stroke="#9a32cd" stroke-dasharray="5,2" d="M39.09,-60.12C59.39,-64.1 89.35,-69.97 114.78,-74.95"/>
<polygon fill="#9a32cd" stroke="#9a32cd" points="39.64,-56.66 29.16,-58.18 38.3,-63.53 39.64,-56.66"/>
<text text-anchor="middle" x="71.5" y="-73.5" font-family="Helvetica,sans-Serif" font-size="10.00"> elements</text>
</g>
<!-- Node13 -->
<g id="node13" class="node">
<title>Node13</title>
<g id="a_node13"><a xlink:title="STL class.">
<polygon fill="white" stroke="#bfbfbf" points="114.5,-31 114.5,-50 214.5,-50 214.5,-31 114.5,-31"/>
<text text-anchor="middle" x="164.5" y="-38" font-family="Helvetica,sans-Serif" font-size="10.00">std::atomic&lt; T &gt;</text>
</a>
</g>
</g>
<!-- Node11&#45;&gt;Node13 -->
<g id="edge13" class="edge">
<title>Node11&#45;&gt;Node13</title>
<path fill="none" stroke="#9a32cd" stroke-dasharray="5,2" d="M38.4,-44.04C41.24,-43.01 44.15,-42.12 47,-41.5 68.74,-36.79 93.31,-35.94 114.26,-36.51"/>
<polygon fill="#9a32cd" stroke="#9a32cd" points="37.03,-40.82 29.19,-47.95 39.77,-47.27 37.03,-40.82"/>
<text text-anchor="middle" x="71.5" y="-44.5" font-family="Helvetica,sans-Serif" font-size="10.00"> ptr</text>
</g>
<!-- Node12 -->
<g id="node12" class="node">
<title>Node12</title>
<g id="a_node12"><a xlink:href="classitk_1_1TimeStamp.html" target="_top" xlink:title="Generate a unique, increasing time value.">
<polygon fill="white" stroke="black" points="526.5,-36 526.5,-55 618.5,-55 618.5,-36 526.5,-36"/>
<text text-anchor="middle" x="572.5" y="-43" font-family="Helvetica,sans-Serif" font-size="10.00">itk::TimeStamp</text>
</a>
</g>
</g>
<!-- Node12&#45;&gt;Node2 -->
<g id="edge11" class="edge">
<title>Node12&#45;&gt;Node2</title>
<path fill="none" stroke="#9a32cd" stroke-dasharray="5,2" d="M628.89,-47.2C695.91,-50.31 811.75,-59.04 908,-83.5 916.17,-85.58 917.92,-87.08 926,-89.5 938.67,-93.29 952.72,-97.11 964.99,-100.32"/>
<polygon fill="#9a32cd" stroke="#9a32cd" points="628.71,-43.69 618.56,-46.75 628.4,-50.69 628.71,-43.69"/>
<text text-anchor="middle" x="706" y="-61.5" font-family="Helvetica,sans-Serif" font-size="10.00"> m_MTime</text>
</g>
<!-- Node13&#45;&gt;Node12 -->
<g id="edge12" class="edge">
<title>Node13&#45;&gt;Node12</title>
<path fill="none" stroke="#9a32cd" stroke-dasharray="5,2" d="M225.03,-41.23C306.93,-42.24 452.57,-44.04 526.2,-44.94"/>
<polygon fill="#9a32cd" stroke="#9a32cd" points="224.92,-37.73 214.88,-41.11 224.83,-44.73 224.92,-37.73"/>
<text text-anchor="middle" x="286" y="-46.5" font-family="Helvetica,sans-Serif" font-size="10.00"> m_GlobalTimeStamp</text>
</g>
<!-- Node14 -->
<g id="node14" class="node">
<title>Node14</title>
<g id="a_node14"><a xlink:href="structitk_1_1Statistics_1_1KdTreeNode.html" target="_top" xlink:title="This class defines the interface of its derived classes.">
<polygon fill="white" stroke="black" points="926,-49.5 926,-79.5 1071,-79.5 1071,-49.5 926,-49.5"/>
<text text-anchor="start" x="934" y="-67.5" font-family="Helvetica,sans-Serif" font-size="10.00">itk::Statistics::KdTreeNode</text>
<text text-anchor="middle" x="998.5" y="-56.5" font-family="Helvetica,sans-Serif" font-size="10.00">&lt; TSample &gt;</text>
</a>
</g>
</g>
<!-- Node14&#45;&gt;Node1 -->
<g id="edge14" class="edge">
<title>Node14&#45;&gt;Node1</title>
<path fill="none" stroke="#9a32cd" stroke-dasharray="5,2" d="M1081.17,-64.5C1126.18,-64.5 1181.02,-64.5 1221.78,-64.5"/>
<polygon fill="#9a32cd" stroke="#9a32cd" points="1081.14,-61 1071.14,-64.5 1081.14,-68 1081.14,-61"/>
<text text-anchor="middle" x="1146.5" y="-78.5" font-family="Helvetica,sans-Serif" font-size="10.00"> m_Root</text>
<text text-anchor="middle" x="1146.5" y="-67.5" font-family="Helvetica,sans-Serif" font-size="10.00">m_EmptyTerminalNode</text>
</g>
<!-- Node15 -->
<g id="node15" class="node">
<title>Node15</title>
<g id="a_node15"><a xlink:href="classitk_1_1SmartPointer.html" target="_top" xlink:title=" ">
<polygon fill="white" stroke="black" points="945,-0.5 945,-30.5 1052,-30.5 1052,-0.5 945,-0.5"/>
<text text-anchor="start" x="953" y="-18.5" font-family="Helvetica,sans-Serif" font-size="10.00">itk::SmartPointer&lt;</text>
<text text-anchor="middle" x="998.5" y="-7.5" font-family="Helvetica,sans-Serif" font-size="10.00"> Self &gt;</text>
</a>
</g>
</g>
<!-- Node15&#45;&gt;Node1 -->
<g id="edge15" class="edge">
<title>Node15&#45;&gt;Node1</title>
<path fill="none" stroke="#9a32cd" stroke-dasharray="5,2" d="M1062.11,-25.43C1102.63,-31.97 1156.5,-40.9 1204,-49.5 1209.73,-50.54 1215.69,-51.65 1221.64,-52.78"/>
<polygon fill="#9a32cd" stroke="#9a32cd" points="1062.54,-21.95 1052.11,-23.82 1061.43,-28.86 1062.54,-21.95"/>
<text text-anchor="middle" x="1146.5" y="-52.5" font-family="Helvetica,sans-Serif" font-size="10.00"> m_DistanceMetric</text>
</g>
</g>
</svg>
