<?xml version="1.0" encoding="UTF-8" standalone="no"?>
<!DOCTYPE svg PUBLIC "-//W3C//DTD SVG 1.1//EN"
 "http://www.w3.org/Graphics/SVG/1.1/DTD/svg11.dtd">
<!-- Generated by graphviz version 2.43.0 (0)
 -->
<!-- Title: itk::GaussianOperator&lt; TPixel, VDimension, TAllocator &gt; Pages: 1 -->
<svg width="195pt" height="353pt"
 viewBox="0.00 0.00 195.00 353.00" xmlns="http://www.w3.org/2000/svg" xmlns:xlink="http://www.w3.org/1999/xlink">
<g id="graph0" class="graph" transform="scale(1 1) rotate(0) translate(4 349)">
<title>itk::GaussianOperator&lt; TPixel, VDimension, TAllocator &gt;</title>
<polygon fill="white" stroke="transparent" points="-4,4 -4,-349 191,-349 191,4 -4,4"/>
<!-- Node1 -->
<g id="node1" class="node">
<title>Node1</title>
<g id="a_node1"><a xlink:title="A NeighborhoodOperator whose coefficients are a one dimensional, discrete Gaussian kernel.">
<polygon fill="#bfbfbf" stroke="black" points="31,-0.5 31,-41.5 156,-41.5 156,-0.5 31,-0.5"/>
<text text-anchor="start" x="39" y="-29.5" font-family="Helvetica,sans-Serif" font-size="10.00">itk::GaussianOperator</text>
<text text-anchor="start" x="39" y="-18.5" font-family="Helvetica,sans-Serif" font-size="10.00">&lt; TPixel, VDimension,</text>
<text text-anchor="middle" x="93.5" y="-7.5" font-family="Helvetica,sans-Serif" font-size="10.00"> TAllocator &gt;</text>
</a>
</g>
</g>
<!-- Node2 -->
<g id="node2" class="node">
<title>Node2</title>
<g id="a_node2"><a xlink:href="classitk_1_1NeighborhoodOperator.html" target="_top" xlink:title=" ">
<polygon fill="white" stroke="black" points="0,-79.5 0,-120.5 187,-120.5 187,-79.5 0,-79.5"/>
<text text-anchor="start" x="8" y="-108.5" font-family="Helvetica,sans-Serif" font-size="10.00">itk::NeighborhoodOperator</text>
<text text-anchor="start" x="8" y="-97.5" font-family="Helvetica,sans-Serif" font-size="10.00">&lt; TPixel, 2, NeighborhoodAllocator</text>
<text text-anchor="middle" x="93.5" y="-86.5" font-family="Helvetica,sans-Serif" font-size="10.00">&lt; TPixel &gt; &gt;</text>
</a>
</g>
</g>
<!-- Node2&#45;&gt;Node1 -->
<g id="edge1" class="edge">
<title>Node2&#45;&gt;Node1</title>
<path fill="none" stroke="midnightblue" d="M93.5,-68.91C93.5,-59.79 93.5,-50.02 93.5,-41.76"/>
<polygon fill="midnightblue" stroke="midnightblue" points="90,-69.17 93.5,-79.17 97,-69.17 90,-69.17"/>
</g>
<!-- Node3 -->
<g id="node3" class="node">
<title>Node3</title>
<g id="a_node3"><a xlink:href="classitk_1_1Neighborhood.html" target="_top" xlink:title=" ">
<polygon fill="white" stroke="black" points="28,-158.5 28,-210.5 159,-210.5 159,-158.5 28,-158.5"/>
<text text-anchor="start" x="36" y="-198.5" font-family="Helvetica,sans-Serif" font-size="10.00">itk::Neighborhood&lt;</text>
<text text-anchor="start" x="36" y="-187.5" font-family="Helvetica,sans-Serif" font-size="10.00"> TPixel, VDimension,</text>
<text text-anchor="start" x="36" y="-176.5" font-family="Helvetica,sans-Serif" font-size="10.00"> NeighborhoodAllocator</text>
<text text-anchor="middle" x="93.5" y="-165.5" font-family="Helvetica,sans-Serif" font-size="10.00">&lt; TPixel &gt; &gt;</text>
</a>
</g>
</g>
<!-- Node3&#45;&gt;Node2 -->
<g id="edge2" class="edge">
<title>Node3&#45;&gt;Node2</title>
<path fill="none" stroke="midnightblue" d="M93.5,-148.27C93.5,-138.77 93.5,-128.84 93.5,-120.55"/>
<polygon fill="midnightblue" stroke="midnightblue" points="90,-148.3 93.5,-158.3 97,-148.3 90,-148.3"/>
</g>
<!-- Node4 -->
<g id="node4" class="node">
<title>Node4</title>
<g id="a_node4"><a xlink:title=" ">
<polygon fill="white" stroke="#bfbfbf" points="24,-258.5 24,-277.5 163,-277.5 163,-258.5 24,-258.5"/>
<text text-anchor="middle" x="93.5" y="-265.5" font-family="Helvetica,sans-Serif" font-size="10.00">std::vector&lt; itk::Offset &gt;</text>
</a>
</g>
</g>
<!-- Node4&#45;&gt;Node3 -->
<g id="edge3" class="edge">
<title>Node4&#45;&gt;Node3</title>
<path fill="none" stroke="#9a32cd" stroke-dasharray="5,2" d="M93.5,-248.04C93.5,-236.94 93.5,-222.8 93.5,-210.76"/>
<polygon fill="#9a32cd" stroke="#9a32cd" points="90,-248.28 93.5,-258.28 97,-248.28 90,-248.28"/>
<text text-anchor="middle" x="130" y="-232" font-family="Helvetica,sans-Serif" font-size="10.00"> m_OffsetTable</text>
</g>
<!-- Node5 -->
<g id="node5" class="node">
<title>Node5</title>
<g id="a_node5"><a xlink:href="structitk_1_1Offset.html" target="_top" xlink:title="Represent a n&#45;dimensional offset between two n&#45;dimensional indexes of n&#45;dimensional image.">
<polygon fill="white" stroke="black" points="20.5,-325.5 20.5,-344.5 166.5,-344.5 166.5,-325.5 20.5,-325.5"/>
<text text-anchor="middle" x="93.5" y="-332.5" font-family="Helvetica,sans-Serif" font-size="10.00">itk::Offset&lt; VDimension &gt;</text>
</a>
</g>
</g>
<!-- Node5&#45;&gt;Node4 -->
<g id="edge4" class="edge">
<title>Node5&#45;&gt;Node4</title>
<path fill="none" stroke="#9a32cd" stroke-dasharray="5,2" d="M93.5,-315.04C93.5,-302.67 93.5,-287.12 93.5,-277.63"/>
<polygon fill="#9a32cd" stroke="#9a32cd" points="90,-315.23 93.5,-325.23 97,-315.23 90,-315.23"/>
<text text-anchor="middle" x="118" y="-299" font-family="Helvetica,sans-Serif" font-size="10.00"> elements</text>
</g>
</g>
</svg>
