<?xml version="1.0" encoding="UTF-8" standalone="no"?>
<!DOCTYPE svg PUBLIC "-//W3C//DTD SVG 1.1//EN"
 "http://www.w3.org/Graphics/SVG/1.1/DTD/svg11.dtd">
<!-- Generated by graphviz version 2.43.0 (0)
 -->
<!-- Title: itk::UnaryGeneratorImageFilter&lt; TInputImage, TOutputImage &gt; Pages: 1 -->
<svg width="1441pt" height="1043pt"
 viewBox="0.00 0.00 1441.00 1043.00" xmlns="http://www.w3.org/2000/svg" xmlns:xlink="http://www.w3.org/1999/xlink">
<g id="graph0" class="graph" transform="scale(1 1) rotate(0) translate(4 1039)">
<title>itk::UnaryGeneratorImageFilter&lt; TInputImage, TOutputImage &gt;</title>
<polygon fill="white" stroke="transparent" points="-4,4 -4,-1039 1437,-1039 1437,4 -4,4"/>
<!-- Node1 -->
<g id="node1" class="node">
<title>Node1</title>
<g id="a_node1"><a xlink:title="Implements pixel&#45;wise generic &quot;operation&quot; on one image.">
<polygon fill="#bfbfbf" stroke="black" points="1037,-497 1037,-538 1196,-538 1196,-497 1037,-497"/>
<text text-anchor="start" x="1045" y="-526" font-family="Helvetica,sans-Serif" font-size="10.00">itk::UnaryGeneratorImage</text>
<text text-anchor="start" x="1045" y="-515" font-family="Helvetica,sans-Serif" font-size="10.00">Filter&lt; TInputImage, TOutput</text>
<text text-anchor="middle" x="1116.5" y="-504" font-family="Helvetica,sans-Serif" font-size="10.00">Image &gt;</text>
</a>
</g>
</g>
<!-- Node10 -->
<g id="node10" class="node">
<title>Node10</title>
<g id="a_node10"><a xlink:href="classitk_1_1AbsImageFilter.html" target="_top" xlink:title="Computes the absolute value of each pixel.">
<polygon fill="white" stroke="black" points="1244.5,-1004.5 1244.5,-1034.5 1420.5,-1034.5 1420.5,-1004.5 1244.5,-1004.5"/>
<text text-anchor="start" x="1252.5" y="-1022.5" font-family="Helvetica,sans-Serif" font-size="10.00">itk::AbsImageFilter</text>
<text text-anchor="middle" x="1332.5" y="-1011.5" font-family="Helvetica,sans-Serif" font-size="10.00">&lt; TInputImage, TOutputImage &gt;</text>
</a>
</g>
</g>
<!-- Node1&#45;&gt;Node10 -->
<g id="edge9" class="edge">
<title>Node1&#45;&gt;Node10</title>
<path fill="none" stroke="midnightblue" d="M1120.7,-548.25C1131.23,-643.53 1167.85,-931.25 1232,-995.5 1235.64,-999.15 1239.73,-1002.28 1244.13,-1004.96"/>
<polygon fill="midnightblue" stroke="midnightblue" points="1124.16,-547.68 1119.6,-538.12 1117.2,-548.44 1124.16,-547.68"/>
</g>
<!-- Node11 -->
<g id="node11" class="node">
<title>Node11</title>
<g id="a_node11"><a xlink:href="classitk_1_1AcosImageFilter.html" target="_top" xlink:title="Computes the inverse cosine of each pixel.">
<polygon fill="white" stroke="black" points="1244.5,-955.5 1244.5,-985.5 1420.5,-985.5 1420.5,-955.5 1244.5,-955.5"/>
<text text-anchor="start" x="1252.5" y="-973.5" font-family="Helvetica,sans-Serif" font-size="10.00">itk::AcosImageFilter</text>
<text text-anchor="middle" x="1332.5" y="-962.5" font-family="Helvetica,sans-Serif" font-size="10.00">&lt; TInputImage, TOutputImage &gt;</text>
</a>
</g>
</g>
<!-- Node1&#45;&gt;Node11 -->
<g id="edge10" class="edge">
<title>Node1&#45;&gt;Node11</title>
<path fill="none" stroke="midnightblue" d="M1121.57,-548.04C1133.97,-636.43 1173.96,-889.84 1232,-946.5 1235.69,-950.1 1239.82,-953.19 1244.24,-955.85"/>
<polygon fill="midnightblue" stroke="midnightblue" points="1125.04,-547.53 1120.2,-538.1 1118.1,-548.48 1125.04,-547.53"/>
</g>
<!-- Node12 -->
<g id="node12" class="node">
<title>Node12</title>
<g id="a_node12"><a xlink:href="classitk_1_1AsinImageFilter.html" target="_top" xlink:title="Computes the sine of each pixel.">
<polygon fill="white" stroke="black" points="1244.5,-906.5 1244.5,-936.5 1420.5,-936.5 1420.5,-906.5 1244.5,-906.5"/>
<text text-anchor="start" x="1252.5" y="-924.5" font-family="Helvetica,sans-Serif" font-size="10.00">itk::AsinImageFilter</text>
<text text-anchor="middle" x="1332.5" y="-913.5" font-family="Helvetica,sans-Serif" font-size="10.00">&lt; TInputImage, TOutputImage &gt;</text>
</a>
</g>
</g>
<!-- Node1&#45;&gt;Node12 -->
<g id="edge11" class="edge">
<title>Node1&#45;&gt;Node12</title>
<path fill="none" stroke="midnightblue" d="M1117.14,-548.7C1118.09,-621.19 1131.04,-802.04 1232,-897.5 1235.74,-901.04 1239.92,-904.09 1244.37,-906.71"/>
<polygon fill="midnightblue" stroke="midnightblue" points="1120.64,-548.4 1117.08,-538.42 1113.64,-548.44 1120.64,-548.4"/>
</g>
<!-- Node13 -->
<g id="node13" class="node">
<title>Node13</title>
<g id="a_node13"><a xlink:href="classitk_1_1AtanImageFilter.html" target="_top" xlink:title="Computes the one&#45;argument inverse tangent of each pixel.">
<polygon fill="white" stroke="black" points="1244.5,-857.5 1244.5,-887.5 1420.5,-887.5 1420.5,-857.5 1244.5,-857.5"/>
<text text-anchor="start" x="1252.5" y="-875.5" font-family="Helvetica,sans-Serif" font-size="10.00">itk::AtanImageFilter</text>
<text text-anchor="middle" x="1332.5" y="-864.5" font-family="Helvetica,sans-Serif" font-size="10.00">&lt; TInputImage, TOutputImage &gt;</text>
</a>
</g>
</g>
<!-- Node1&#45;&gt;Node13 -->
<g id="edge12" class="edge">
<title>Node1&#45;&gt;Node13</title>
<path fill="none" stroke="midnightblue" d="M1118.74,-548.33C1123.12,-613.85 1142.88,-767.57 1232,-848.5 1235.68,-851.84 1239.75,-854.74 1244.08,-857.26"/>
<polygon fill="midnightblue" stroke="midnightblue" points="1122.23,-548.01 1118.15,-538.24 1115.24,-548.42 1122.23,-548.01"/>
</g>
<!-- Node14 -->
<g id="node14" class="node">
<title>Node14</title>
<g id="a_node14"><a xlink:href="classitk_1_1BoundedReciprocalImageFilter.html" target="_top" xlink:title="Computes 1/(1+x) for each pixel in the image.">
<polygon fill="white" stroke="black" points="1232,-808.5 1232,-838.5 1433,-838.5 1433,-808.5 1232,-808.5"/>
<text text-anchor="start" x="1240" y="-826.5" font-family="Helvetica,sans-Serif" font-size="10.00">itk::BoundedReciprocalImage</text>
<text text-anchor="middle" x="1332.5" y="-815.5" font-family="Helvetica,sans-Serif" font-size="10.00">Filter&lt; TInputImage, TOutputImage &gt;</text>
</a>
</g>
</g>
<!-- Node1&#45;&gt;Node14 -->
<g id="edge13" class="edge">
<title>Node1&#45;&gt;Node14</title>
<path fill="none" stroke="midnightblue" d="M1120.85,-548.25C1128.89,-606.48 1154.73,-732.96 1232,-799.5 1235.9,-802.86 1240.2,-805.77 1244.75,-808.29"/>
<polygon fill="midnightblue" stroke="midnightblue" points="1124.3,-547.67 1119.55,-538.2 1117.36,-548.57 1124.3,-547.67"/>
</g>
<!-- Node15 -->
<g id="node15" class="node">
<title>Node15</title>
<g id="a_node15"><a xlink:href="classitk_1_1ComplexToImaginaryImageFilter.html" target="_top" xlink:title="Computes pixel&#45;wise the imaginary part of a complex image.">
<polygon fill="white" stroke="black" points="1232,-759.5 1232,-789.5 1433,-789.5 1433,-759.5 1232,-759.5"/>
<text text-anchor="start" x="1240" y="-777.5" font-family="Helvetica,sans-Serif" font-size="10.00">itk::ComplexToImaginaryImage</text>
<text text-anchor="middle" x="1332.5" y="-766.5" font-family="Helvetica,sans-Serif" font-size="10.00">Filter&lt; TInputImage, TOutputImage &gt;</text>
</a>
</g>
</g>
<!-- Node1&#45;&gt;Node15 -->
<g id="edge14" class="edge">
<title>Node1&#45;&gt;Node15</title>
<path fill="none" stroke="midnightblue" d="M1123.78,-548.28C1135.69,-598.57 1166.48,-698.02 1232,-750.5 1236.3,-753.94 1241.02,-756.91 1245.99,-759.45"/>
<polygon fill="midnightblue" stroke="midnightblue" points="1127.14,-547.3 1121.51,-538.32 1120.32,-548.85 1127.14,-547.3"/>
</g>
<!-- Node16 -->
<g id="node16" class="node">
<title>Node16</title>
<g id="a_node16"><a xlink:href="classitk_1_1ComplexToModulusImageFilter.html" target="_top" xlink:title="Computes pixel&#45;wise the Modulus of a complex image.">
<polygon fill="white" stroke="black" points="1232,-710.5 1232,-740.5 1433,-740.5 1433,-710.5 1232,-710.5"/>
<text text-anchor="start" x="1240" y="-728.5" font-family="Helvetica,sans-Serif" font-size="10.00">itk::ComplexToModulusImage</text>
<text text-anchor="middle" x="1332.5" y="-717.5" font-family="Helvetica,sans-Serif" font-size="10.00">Filter&lt; TInputImage, TOutputImage &gt;</text>
</a>
</g>
</g>
<!-- Node1&#45;&gt;Node16 -->
<g id="edge15" class="edge">
<title>Node1&#45;&gt;Node16</title>
<path fill="none" stroke="midnightblue" d="M1128.06,-547.62C1144.01,-588.63 1178.24,-661.39 1232,-700.5 1237.33,-704.38 1243.2,-707.66 1249.33,-710.43"/>
<polygon fill="midnightblue" stroke="midnightblue" points="1131.29,-546.27 1124.48,-538.16 1124.74,-548.75 1131.29,-546.27"/>
</g>
<!-- Node17 -->
<g id="node17" class="node">
<title>Node17</title>
<g id="a_node17"><a xlink:href="classitk_1_1ComplexToPhaseImageFilter.html" target="_top" xlink:title="Computes pixel&#45;wise the modulus of a complex image.">
<polygon fill="white" stroke="black" points="1253,-650 1253,-691 1412,-691 1412,-650 1253,-650"/>
<text text-anchor="start" x="1261" y="-679" font-family="Helvetica,sans-Serif" font-size="10.00">itk::ComplexToPhaseImage</text>
<text text-anchor="start" x="1261" y="-668" font-family="Helvetica,sans-Serif" font-size="10.00">Filter&lt; TInputImage, TOutput</text>
<text text-anchor="middle" x="1332.5" y="-657" font-family="Helvetica,sans-Serif" font-size="10.00">Image &gt;</text>
</a>
</g>
</g>
<!-- Node1&#45;&gt;Node17 -->
<g id="edge16" class="edge">
<title>Node1&#45;&gt;Node17</title>
<path fill="none" stroke="midnightblue" d="M1137.21,-546.27C1157.77,-574.21 1192.5,-615.9 1232,-640.5 1238.51,-644.55 1245.6,-648.09 1252.9,-651.16"/>
<polygon fill="midnightblue" stroke="midnightblue" points="1139.98,-544.13 1131.29,-538.08 1134.3,-548.23 1139.98,-544.13"/>
</g>
<!-- Node18 -->
<g id="node18" class="node">
<title>Node18</title>
<g id="a_node18"><a xlink:href="classitk_1_1ComplexToRealImageFilter.html" target="_top" xlink:title="Computes pixel&#45;wise the real(x) part of a complex image.">
<polygon fill="white" stroke="black" points="1244.5,-600.5 1244.5,-630.5 1420.5,-630.5 1420.5,-600.5 1244.5,-600.5"/>
<text text-anchor="start" x="1252.5" y="-618.5" font-family="Helvetica,sans-Serif" font-size="10.00">itk::ComplexToRealImageFilter</text>
<text text-anchor="middle" x="1332.5" y="-607.5" font-family="Helvetica,sans-Serif" font-size="10.00">&lt; TInputImage, TOutputImage &gt;</text>
</a>
</g>
</g>
<!-- Node1&#45;&gt;Node18 -->
<g id="edge17" class="edge">
<title>Node1&#45;&gt;Node18</title>
<path fill="none" stroke="midnightblue" d="M1152.09,-544.26C1173.95,-560.03 1203.39,-579.23 1232,-591.5 1239.92,-594.9 1248.41,-597.87 1256.97,-600.45"/>
<polygon fill="midnightblue" stroke="midnightblue" points="1153.94,-541.28 1143.8,-538.19 1149.8,-546.92 1153.94,-541.28"/>
</g>
<!-- Node19 -->
<g id="node19" class="node">
<title>Node19</title>
<g id="a_node19"><a xlink:href="classitk_1_1CosImageFilter.html" target="_top" xlink:title="Computes the cosine of each pixel.">
<polygon fill="white" stroke="black" points="1244.5,-551.5 1244.5,-581.5 1420.5,-581.5 1420.5,-551.5 1244.5,-551.5"/>
<text text-anchor="start" x="1252.5" y="-569.5" font-family="Helvetica,sans-Serif" font-size="10.00">itk::CosImageFilter</text>
<text text-anchor="middle" x="1332.5" y="-558.5" font-family="Helvetica,sans-Serif" font-size="10.00">&lt; TInputImage, TOutputImage &gt;</text>
</a>
</g>
</g>
<!-- Node1&#45;&gt;Node19 -->
<g id="edge18" class="edge">
<title>Node1&#45;&gt;Node19</title>
<path fill="none" stroke="midnightblue" d="M1206.02,-537.77C1226.06,-542.36 1246.98,-547.15 1265.88,-551.47"/>
<polygon fill="midnightblue" stroke="midnightblue" points="1206.8,-534.36 1196.27,-535.54 1205.24,-541.18 1206.8,-534.36"/>
</g>
<!-- Node20 -->
<g id="node20" class="node">
<title>Node20</title>
<g id="a_node20"><a xlink:href="classitk_1_1EdgePotentialImageFilter.html" target="_top" xlink:title="Computes the edge potential of an image from the image gradient.">
<polygon fill="white" stroke="black" points="1244.5,-502.5 1244.5,-532.5 1420.5,-532.5 1420.5,-502.5 1244.5,-502.5"/>
<text text-anchor="start" x="1252.5" y="-520.5" font-family="Helvetica,sans-Serif" font-size="10.00">itk::EdgePotentialImageFilter</text>
<text text-anchor="middle" x="1332.5" y="-509.5" font-family="Helvetica,sans-Serif" font-size="10.00">&lt; TInputImage, TOutputImage &gt;</text>
</a>
</g>
</g>
<!-- Node1&#45;&gt;Node20 -->
<g id="edge19" class="edge">
<title>Node1&#45;&gt;Node20</title>
<path fill="none" stroke="midnightblue" d="M1206.63,-517.5C1219.07,-517.5 1231.83,-517.5 1244.24,-517.5"/>
<polygon fill="midnightblue" stroke="midnightblue" points="1206.27,-514 1196.27,-517.5 1206.27,-521 1206.27,-514"/>
</g>
<!-- Node21 -->
<g id="node21" class="node">
<title>Node21</title>
<g id="a_node21"><a xlink:href="classitk_1_1ExpImageFilter.html" target="_top" xlink:title="Computes the exponential function of each pixel.">
<polygon fill="white" stroke="black" points="1244.5,-453.5 1244.5,-483.5 1420.5,-483.5 1420.5,-453.5 1244.5,-453.5"/>
<text text-anchor="start" x="1252.5" y="-471.5" font-family="Helvetica,sans-Serif" font-size="10.00">itk::ExpImageFilter</text>
<text text-anchor="middle" x="1332.5" y="-460.5" font-family="Helvetica,sans-Serif" font-size="10.00">&lt; TInputImage, TOutputImage &gt;</text>
</a>
</g>
</g>
<!-- Node1&#45;&gt;Node21 -->
<g id="edge20" class="edge">
<title>Node1&#45;&gt;Node21</title>
<path fill="none" stroke="midnightblue" d="M1206.02,-497.23C1226.06,-492.64 1246.98,-487.85 1265.88,-483.53"/>
<polygon fill="midnightblue" stroke="midnightblue" points="1205.24,-493.82 1196.27,-499.46 1206.8,-500.64 1205.24,-493.82"/>
</g>
<!-- Node22 -->
<g id="node22" class="node">
<title>Node22</title>
<g id="a_node22"><a xlink:href="classitk_1_1Log10ImageFilter.html" target="_top" xlink:title="Computes the log10 of each pixel.">
<polygon fill="white" stroke="black" points="1244.5,-404.5 1244.5,-434.5 1420.5,-434.5 1420.5,-404.5 1244.5,-404.5"/>
<text text-anchor="start" x="1252.5" y="-422.5" font-family="Helvetica,sans-Serif" font-size="10.00">itk::Log10ImageFilter</text>
<text text-anchor="middle" x="1332.5" y="-411.5" font-family="Helvetica,sans-Serif" font-size="10.00">&lt; TInputImage, TOutputImage &gt;</text>
</a>
</g>
</g>
<!-- Node1&#45;&gt;Node22 -->
<g id="edge21" class="edge">
<title>Node1&#45;&gt;Node22</title>
<path fill="none" stroke="midnightblue" d="M1152.09,-490.74C1173.95,-474.97 1203.39,-455.77 1232,-443.5 1239.92,-440.1 1248.41,-437.13 1256.97,-434.55"/>
<polygon fill="midnightblue" stroke="midnightblue" points="1149.8,-488.08 1143.8,-496.81 1153.94,-493.72 1149.8,-488.08"/>
</g>
<!-- Node23 -->
<g id="node23" class="node">
<title>Node23</title>
<g id="a_node23"><a xlink:href="classitk_1_1LogImageFilter.html" target="_top" xlink:title="Computes the log() of each pixel.">
<polygon fill="white" stroke="black" points="1244.5,-355.5 1244.5,-385.5 1420.5,-385.5 1420.5,-355.5 1244.5,-355.5"/>
<text text-anchor="start" x="1252.5" y="-373.5" font-family="Helvetica,sans-Serif" font-size="10.00">itk::LogImageFilter</text>
<text text-anchor="middle" x="1332.5" y="-362.5" font-family="Helvetica,sans-Serif" font-size="10.00">&lt; TInputImage, TOutputImage &gt;</text>
</a>
</g>
</g>
<!-- Node1&#45;&gt;Node23 -->
<g id="edge22" class="edge">
<title>Node1&#45;&gt;Node23</title>
<path fill="none" stroke="midnightblue" d="M1136.92,-488.25C1157.26,-459.95 1191.83,-417.98 1232,-394.5 1237.91,-391.05 1244.29,-388.09 1250.86,-385.56"/>
<polygon fill="midnightblue" stroke="midnightblue" points="1133.96,-486.37 1131.07,-496.56 1139.69,-490.4 1133.96,-486.37"/>
</g>
<!-- Node24 -->
<g id="node24" class="node">
<title>Node24</title>
<g id="a_node24"><a xlink:href="classitk_1_1RGBToLuminanceImageFilter.html" target="_top" xlink:title="Converts an RGB image into a grayscale image.">
<polygon fill="white" stroke="black" points="1253,-295 1253,-336 1412,-336 1412,-295 1253,-295"/>
<text text-anchor="start" x="1261" y="-324" font-family="Helvetica,sans-Serif" font-size="10.00">itk::RGBToLuminanceImage</text>
<text text-anchor="start" x="1261" y="-313" font-family="Helvetica,sans-Serif" font-size="10.00">Filter&lt; TInputImage, TOutput</text>
<text text-anchor="middle" x="1332.5" y="-302" font-family="Helvetica,sans-Serif" font-size="10.00">Image &gt;</text>
</a>
</g>
</g>
<!-- Node1&#45;&gt;Node24 -->
<g id="edge23" class="edge">
<title>Node1&#45;&gt;Node24</title>
<path fill="none" stroke="midnightblue" d="M1129.8,-487.28C1147,-448.75 1181.88,-382.67 1232,-345.5 1238.38,-340.77 1245.5,-336.78 1252.93,-333.42"/>
<polygon fill="midnightblue" stroke="midnightblue" points="1126.39,-486.34 1125.61,-496.91 1132.81,-489.13 1126.39,-486.34"/>
</g>
<!-- Node25 -->
<g id="node25" class="node">
<title>Node25</title>
<g id="a_node25"><a xlink:href="classitk_1_1RoundImageFilter.html" target="_top" xlink:title="Rounds the value of each pixel.">
<polygon fill="white" stroke="black" points="1244.5,-245.5 1244.5,-275.5 1420.5,-275.5 1420.5,-245.5 1244.5,-245.5"/>
<text text-anchor="start" x="1252.5" y="-263.5" font-family="Helvetica,sans-Serif" font-size="10.00">itk::RoundImageFilter</text>
<text text-anchor="middle" x="1332.5" y="-252.5" font-family="Helvetica,sans-Serif" font-size="10.00">&lt; TInputImage, TOutputImage &gt;</text>
</a>
</g>
</g>
<!-- Node1&#45;&gt;Node25 -->
<g id="edge24" class="edge">
<title>Node1&#45;&gt;Node25</title>
<path fill="none" stroke="midnightblue" d="M1123.87,-486.92C1135.92,-436.94 1166.91,-338.05 1232,-285.5 1236.71,-281.7 1241.93,-278.46 1247.43,-275.71"/>
<polygon fill="midnightblue" stroke="midnightblue" points="1120.43,-486.28 1121.58,-496.81 1127.25,-487.86 1120.43,-486.28"/>
</g>
<!-- Node26 -->
<g id="node26" class="node">
<title>Node26</title>
<g id="a_node26"><a xlink:href="classitk_1_1SinImageFilter.html" target="_top" xlink:title="Computes the sine of each pixel.">
<polygon fill="white" stroke="black" points="1244.5,-196.5 1244.5,-226.5 1420.5,-226.5 1420.5,-196.5 1244.5,-196.5"/>
<text text-anchor="start" x="1252.5" y="-214.5" font-family="Helvetica,sans-Serif" font-size="10.00">itk::SinImageFilter</text>
<text text-anchor="middle" x="1332.5" y="-203.5" font-family="Helvetica,sans-Serif" font-size="10.00">&lt; TInputImage, TOutputImage &gt;</text>
</a>
</g>
</g>
<!-- Node1&#45;&gt;Node26 -->
<g id="edge25" class="edge">
<title>Node1&#45;&gt;Node26</title>
<path fill="none" stroke="midnightblue" d="M1120.85,-486.75C1128.89,-428.52 1154.73,-302.04 1232,-235.5 1235.9,-232.14 1240.2,-229.23 1244.75,-226.71"/>
<polygon fill="midnightblue" stroke="midnightblue" points="1117.36,-486.43 1119.55,-496.8 1124.3,-487.33 1117.36,-486.43"/>
</g>
<!-- Node27 -->
<g id="node27" class="node">
<title>Node27</title>
<g id="a_node27"><a xlink:href="classitk_1_1SqrtImageFilter.html" target="_top" xlink:title="Computes the square root of each pixel.">
<polygon fill="white" stroke="black" points="1244.5,-147.5 1244.5,-177.5 1420.5,-177.5 1420.5,-147.5 1244.5,-147.5"/>
<text text-anchor="start" x="1252.5" y="-165.5" font-family="Helvetica,sans-Serif" font-size="10.00">itk::SqrtImageFilter</text>
<text text-anchor="middle" x="1332.5" y="-154.5" font-family="Helvetica,sans-Serif" font-size="10.00">&lt; TInputImage, TOutputImage &gt;</text>
</a>
</g>
</g>
<!-- Node1&#45;&gt;Node27 -->
<g id="edge26" class="edge">
<title>Node1&#45;&gt;Node27</title>
<path fill="none" stroke="midnightblue" d="M1118.74,-486.67C1123.12,-421.15 1142.88,-267.43 1232,-186.5 1235.68,-183.16 1239.75,-180.26 1244.08,-177.74"/>
<polygon fill="midnightblue" stroke="midnightblue" points="1115.24,-486.58 1118.15,-496.76 1122.23,-486.99 1115.24,-486.58"/>
</g>
<!-- Node28 -->
<g id="node28" class="node">
<title>Node28</title>
<g id="a_node28"><a xlink:href="classitk_1_1SquareImageFilter.html" target="_top" xlink:title="Computes the square of the intensity values pixel&#45;wise.">
<polygon fill="white" stroke="black" points="1244.5,-98.5 1244.5,-128.5 1420.5,-128.5 1420.5,-98.5 1244.5,-98.5"/>
<text text-anchor="start" x="1252.5" y="-116.5" font-family="Helvetica,sans-Serif" font-size="10.00">itk::SquareImageFilter</text>
<text text-anchor="middle" x="1332.5" y="-105.5" font-family="Helvetica,sans-Serif" font-size="10.00">&lt; TInputImage, TOutputImage &gt;</text>
</a>
</g>
</g>
<!-- Node1&#45;&gt;Node28 -->
<g id="edge27" class="edge">
<title>Node1&#45;&gt;Node28</title>
<path fill="none" stroke="midnightblue" d="M1117.14,-486.3C1118.09,-413.81 1131.04,-232.96 1232,-137.5 1235.74,-133.96 1239.92,-130.91 1244.37,-128.29"/>
<polygon fill="midnightblue" stroke="midnightblue" points="1113.64,-486.56 1117.08,-496.58 1120.64,-486.6 1113.64,-486.56"/>
</g>
<!-- Node29 -->
<g id="node29" class="node">
<title>Node29</title>
<g id="a_node29"><a xlink:href="classitk_1_1TanImageFilter.html" target="_top" xlink:title="Computes the tangent of each input pixel.">
<polygon fill="white" stroke="black" points="1244.5,-49.5 1244.5,-79.5 1420.5,-79.5 1420.5,-49.5 1244.5,-49.5"/>
<text text-anchor="start" x="1252.5" y="-67.5" font-family="Helvetica,sans-Serif" font-size="10.00">itk::TanImageFilter</text>
<text text-anchor="middle" x="1332.5" y="-56.5" font-family="Helvetica,sans-Serif" font-size="10.00">&lt; TInputImage, TOutputImage &gt;</text>
</a>
</g>
</g>
<!-- Node1&#45;&gt;Node29 -->
<g id="edge28" class="edge">
<title>Node1&#45;&gt;Node29</title>
<path fill="none" stroke="midnightblue" d="M1121.57,-486.96C1133.97,-398.57 1173.96,-145.16 1232,-88.5 1235.69,-84.9 1239.82,-81.81 1244.24,-79.15"/>
<polygon fill="midnightblue" stroke="midnightblue" points="1118.1,-486.52 1120.2,-496.9 1125.04,-487.47 1118.1,-486.52"/>
</g>
<!-- Node30 -->
<g id="node30" class="node">
<title>Node30</title>
<g id="a_node30"><a xlink:href="classitk_1_1VectorMagnitudeImageFilter.html" target="_top" xlink:title="Take an image of vectors as input and produce an image with the magnitude of those vectors.">
<polygon fill="white" stroke="black" points="1232,-0.5 1232,-30.5 1433,-30.5 1433,-0.5 1232,-0.5"/>
<text text-anchor="start" x="1240" y="-18.5" font-family="Helvetica,sans-Serif" font-size="10.00">itk::VectorMagnitudeImage</text>
<text text-anchor="middle" x="1332.5" y="-7.5" font-family="Helvetica,sans-Serif" font-size="10.00">Filter&lt; TInputImage, TOutputImage &gt;</text>
</a>
</g>
</g>
<!-- Node1&#45;&gt;Node30 -->
<g id="edge29" class="edge">
<title>Node1&#45;&gt;Node30</title>
<path fill="none" stroke="midnightblue" d="M1120.7,-486.75C1131.23,-391.47 1167.85,-103.75 1232,-39.5 1235.39,-36.1 1239.17,-33.16 1243.22,-30.6"/>
<polygon fill="midnightblue" stroke="midnightblue" points="1117.2,-486.56 1119.6,-496.88 1124.16,-487.32 1117.2,-486.56"/>
</g>
<!-- Node2 -->
<g id="node2" class="node">
<title>Node2</title>
<g id="a_node2"><a xlink:href="classitk_1_1InPlaceImageFilter.html" target="_top" xlink:title="Base class for filters that take an image as input and overwrite that image as the output.">
<polygon fill="white" stroke="black" points="825,-502.5 825,-532.5 1001,-532.5 1001,-502.5 825,-502.5"/>
<text text-anchor="start" x="833" y="-520.5" font-family="Helvetica,sans-Serif" font-size="10.00">itk::InPlaceImageFilter</text>
<text text-anchor="middle" x="913" y="-509.5" font-family="Helvetica,sans-Serif" font-size="10.00">&lt; TInputImage, TOutputImage &gt;</text>
</a>
</g>
</g>
<!-- Node2&#45;&gt;Node1 -->
<g id="edge1" class="edge">
<title>Node2&#45;&gt;Node1</title>
<path fill="none" stroke="midnightblue" d="M1011.22,-517.5C1019.77,-517.5 1028.35,-517.5 1036.72,-517.5"/>
<polygon fill="midnightblue" stroke="midnightblue" points="1011.21,-514 1001.21,-517.5 1011.21,-521 1011.21,-514"/>
</g>
<!-- Node3 -->
<g id="node3" class="node">
<title>Node3</title>
<g id="a_node3"><a xlink:href="classitk_1_1ImageToImageFilter.html" target="_top" xlink:title=" ">
<polygon fill="white" stroke="black" points="621,-502.5 621,-532.5 789,-532.5 789,-502.5 621,-502.5"/>
<text text-anchor="start" x="629" y="-520.5" font-family="Helvetica,sans-Serif" font-size="10.00">itk::ImageToImageFilter</text>
<text text-anchor="middle" x="705" y="-509.5" font-family="Helvetica,sans-Serif" font-size="10.00">&lt; TInputImage, TInputImage &gt;</text>
</a>
</g>
</g>
<!-- Node3&#45;&gt;Node2 -->
<g id="edge2" class="edge">
<title>Node3&#45;&gt;Node2</title>
<path fill="none" stroke="midnightblue" d="M799.44,-517.5C807.88,-517.5 816.41,-517.5 824.8,-517.5"/>
<polygon fill="midnightblue" stroke="midnightblue" points="799.19,-514 789.19,-517.5 799.19,-521 799.19,-514"/>
</g>
<!-- Node4 -->
<g id="node4" class="node">
<title>Node4</title>
<g id="a_node4"><a xlink:href="classitk_1_1ImageSource.html" target="_top" xlink:title=" ">
<polygon fill="white" stroke="black" points="426.5,-524.5 426.5,-554.5 567.5,-554.5 567.5,-524.5 426.5,-524.5"/>
<text text-anchor="start" x="434.5" y="-542.5" font-family="Helvetica,sans-Serif" font-size="10.00">itk::ImageSource&lt; TInput</text>
<text text-anchor="middle" x="497" y="-531.5" font-family="Helvetica,sans-Serif" font-size="10.00">Image &gt;</text>
</a>
</g>
</g>
<!-- Node4&#45;&gt;Node3 -->
<g id="edge3" class="edge">
<title>Node4&#45;&gt;Node3</title>
<path fill="none" stroke="midnightblue" d="M577.87,-530.97C591.94,-529.47 606.62,-527.9 620.79,-526.39"/>
<polygon fill="midnightblue" stroke="midnightblue" points="577.31,-527.51 567.74,-532.05 578.06,-534.47 577.31,-527.51"/>
</g>
<!-- Node5 -->
<g id="node5" class="node">
<title>Node5</title>
<g id="a_node5"><a xlink:href="classitk_1_1ProcessObject.html" target="_top" xlink:title="The base class for all process objects (source, filters, mappers) in the Insight data processing pipe...">
<polygon fill="white" stroke="black" points="249.5,-549 249.5,-568 353.5,-568 353.5,-549 249.5,-549"/>
<text text-anchor="middle" x="301.5" y="-556" font-family="Helvetica,sans-Serif" font-size="10.00">itk::ProcessObject</text>
</a>
</g>
</g>
<!-- Node5&#45;&gt;Node4 -->
<g id="edge4" class="edge">
<title>Node5&#45;&gt;Node4</title>
<path fill="none" stroke="midnightblue" d="M363.77,-552.48C383.68,-550.53 405.92,-548.35 426.39,-546.34"/>
<polygon fill="midnightblue" stroke="midnightblue" points="363.2,-549.02 353.59,-553.48 363.89,-555.99 363.2,-549.02"/>
</g>
<!-- Node6 -->
<g id="node6" class="node">
<title>Node6</title>
<g id="a_node6"><a xlink:href="classitk_1_1Object.html" target="_top" xlink:title="Base class for most ITK classes.">
<polygon fill="white" stroke="black" points="127,-549 127,-568 194,-568 194,-549 127,-549"/>
<text text-anchor="middle" x="160.5" y="-556" font-family="Helvetica,sans-Serif" font-size="10.00">itk::Object</text>
</a>
</g>
</g>
<!-- Node6&#45;&gt;Node5 -->
<g id="edge5" class="edge">
<title>Node6&#45;&gt;Node5</title>
<path fill="none" stroke="midnightblue" d="M204.13,-558.5C218.41,-558.5 234.48,-558.5 249.35,-558.5"/>
<polygon fill="midnightblue" stroke="midnightblue" points="204.09,-555 194.09,-558.5 204.09,-562 204.09,-555"/>
</g>
<!-- Node7 -->
<g id="node7" class="node">
<title>Node7</title>
<g id="a_node7"><a xlink:href="classitk_1_1LightObject.html" target="_top" xlink:title="Light weight base class for most itk classes.">
<polygon fill="white" stroke="black" points="0,-549 0,-568 91,-568 91,-549 0,-549"/>
<text text-anchor="middle" x="45.5" y="-556" font-family="Helvetica,sans-Serif" font-size="10.00">itk::LightObject</text>
</a>
</g>
</g>
<!-- Node7&#45;&gt;Node6 -->
<g id="edge6" class="edge">
<title>Node7&#45;&gt;Node6</title>
<path fill="none" stroke="midnightblue" d="M101.28,-558.5C109.96,-558.5 118.69,-558.5 126.66,-558.5"/>
<polygon fill="midnightblue" stroke="midnightblue" points="101.16,-555 91.16,-558.5 101.16,-562 101.16,-555"/>
</g>
<!-- Node8 -->
<g id="node8" class="node">
<title>Node8</title>
<g id="a_node8"><a xlink:href="structitk_1_1ImageSourceCommon.html" target="_top" xlink:title="Secondary base class of ImageSource common between templates.">
<polygon fill="white" stroke="black" points="230,-511 230,-530 373,-530 373,-511 230,-511"/>
<text text-anchor="middle" x="301.5" y="-518" font-family="Helvetica,sans-Serif" font-size="10.00">itk::ImageSourceCommon</text>
</a>
</g>
</g>
<!-- Node8&#45;&gt;Node4 -->
<g id="edge7" class="edge">
<title>Node8&#45;&gt;Node4</title>
<path fill="none" stroke="#8b1a1a" d="M383.48,-528.45C397.78,-529.86 412.54,-531.3 426.48,-532.67"/>
<polygon fill="#8b1a1a" stroke="#8b1a1a" points="383.47,-524.93 373.18,-527.44 382.79,-531.9 383.47,-524.93"/>
</g>
<!-- Node9 -->
<g id="node9" class="node">
<title>Node9</title>
<g id="a_node9"><a xlink:href="classitk_1_1ImageToImageFilterCommon.html" target="_top" xlink:title="Secondary base class of ImageToImageFilter common between templates.">
<polygon fill="white" stroke="black" points="409,-486 409,-505 585,-505 585,-486 409,-486"/>
<text text-anchor="middle" x="497" y="-493" font-family="Helvetica,sans-Serif" font-size="10.00">itk::ImageToImageFilterCommon</text>
</a>
</g>
</g>
<!-- Node9&#45;&gt;Node3 -->
<g id="edge8" class="edge">
<title>Node9&#45;&gt;Node3</title>
<path fill="none" stroke="#8b1a1a" d="M595.12,-505.87C603.73,-506.79 612.39,-507.72 620.86,-508.62"/>
<polygon fill="#8b1a1a" stroke="#8b1a1a" points="595.38,-502.38 585.06,-504.8 594.64,-509.34 595.38,-502.38"/>
</g>
</g>
</svg>
