<?xml version="1.0" encoding="UTF-8" standalone="no"?>
<!DOCTYPE svg PUBLIC "-//W3C//DTD SVG 1.1//EN"
 "http://www.w3.org/Graphics/SVG/1.1/DTD/svg11.dtd">
<!-- Generated by graphviz version 2.43.0 (0)
 -->
<!-- Title: itk::MapContainer&lt; TElementIdentifier, TElement &gt; Pages: 1 -->
<svg width="270pt" height="173pt"
 viewBox="0.00 0.00 269.50 173.00" xmlns="http://www.w3.org/2000/svg" xmlns:xlink="http://www.w3.org/1999/xlink">
<g id="graph0" class="graph" transform="scale(1 1) rotate(0) translate(4 169)">
<title>itk::MapContainer&lt; TElementIdentifier, TElement &gt;</title>
<polygon fill="white" stroke="transparent" points="-4,4 -4,-169 265.5,-169 265.5,4 -4,4"/>
<!-- Node1 -->
<g id="node1" class="node">
<title>Node1</title>
<g id="a_node1"><a xlink:title="A wrapper of the STL &quot;map&quot; container.">
<polygon fill="#bfbfbf" stroke="black" points="56,-0.5 56,-41.5 169,-41.5 169,-0.5 56,-0.5"/>
<text text-anchor="start" x="64" y="-29.5" font-family="Helvetica,sans-Serif" font-size="10.00">itk::MapContainer&lt;</text>
<text text-anchor="start" x="64" y="-18.5" font-family="Helvetica,sans-Serif" font-size="10.00"> TElementIdentifier,</text>
<text text-anchor="middle" x="112.5" y="-7.5" font-family="Helvetica,sans-Serif" font-size="10.00"> TElement &gt;</text>
</a>
</g>
</g>
<!-- Node2 -->
<g id="node2" class="node">
<title>Node2</title>
<g id="a_node2"><a xlink:href="classitk_1_1Object.html" target="_top" xlink:title="Base class for most ITK classes.">
<polygon fill="white" stroke="black" points="12,-84 12,-103 79,-103 79,-84 12,-84"/>
<text text-anchor="middle" x="45.5" y="-91" font-family="Helvetica,sans-Serif" font-size="10.00">itk::Object</text>
</a>
</g>
</g>
<!-- Node2&#45;&gt;Node1 -->
<g id="edge1" class="edge">
<title>Node2&#45;&gt;Node1</title>
<path fill="none" stroke="midnightblue" d="M60.84,-76.36C70.64,-66.05 83.42,-52.6 93.81,-41.66"/>
<polygon fill="midnightblue" stroke="midnightblue" points="58.07,-74.2 53.72,-83.86 63.14,-79.02 58.07,-74.2"/>
</g>
<!-- Node3 -->
<g id="node3" class="node">
<title>Node3</title>
<g id="a_node3"><a xlink:href="classitk_1_1LightObject.html" target="_top" xlink:title="Light weight base class for most itk classes.">
<polygon fill="white" stroke="black" points="0,-145.5 0,-164.5 91,-164.5 91,-145.5 0,-145.5"/>
<text text-anchor="middle" x="45.5" y="-152.5" font-family="Helvetica,sans-Serif" font-size="10.00">itk::LightObject</text>
</a>
</g>
</g>
<!-- Node3&#45;&gt;Node2 -->
<g id="edge2" class="edge">
<title>Node3&#45;&gt;Node2</title>
<path fill="none" stroke="midnightblue" d="M45.5,-135.32C45.5,-124.5 45.5,-111.4 45.5,-103.01"/>
<polygon fill="midnightblue" stroke="midnightblue" points="42,-135.48 45.5,-145.48 49,-135.48 42,-135.48"/>
</g>
<!-- Node4 -->
<g id="node4" class="node">
<title>Node4</title>
<g id="a_node4"><a xlink:title="STL class.">
<polygon fill="white" stroke="#bfbfbf" points="97.5,-78.5 97.5,-108.5 261.5,-108.5 261.5,-78.5 97.5,-78.5"/>
<text text-anchor="start" x="105.5" y="-96.5" font-family="Helvetica,sans-Serif" font-size="10.00">std::map&lt; TElementIdentifier,</text>
<text text-anchor="middle" x="179.5" y="-85.5" font-family="Helvetica,sans-Serif" font-size="10.00"> TElement &gt;</text>
</a>
</g>
</g>
<!-- Node4&#45;&gt;Node1 -->
<g id="edge3" class="edge">
<title>Node4&#45;&gt;Node1</title>
<path fill="none" stroke="#8b1a1a" d="M158.9,-70.82C150.03,-61.49 139.75,-50.67 131.12,-41.59"/>
<polygon fill="#8b1a1a" stroke="#8b1a1a" points="156.52,-73.4 165.94,-78.23 161.59,-68.57 156.52,-73.4"/>
</g>
</g>
</svg>
