<?xml version="1.0" encoding="UTF-8" standalone="no"?>
<!DOCTYPE svg PUBLIC "-//W3C//DTD SVG 1.1//EN"
 "http://www.w3.org/Graphics/SVG/1.1/DTD/svg11.dtd">
<!-- Generated by graphviz version 2.43.0 (0)
 -->
<!-- Title: itk::QuadricDecimationQuadEdgeMeshFilter&lt; TInput, TOutput, TCriterion &gt; Pages: 1 -->
<svg width="2819pt" height="467pt"
 viewBox="0.00 0.00 2819.00 466.86" xmlns="http://www.w3.org/2000/svg" xmlns:xlink="http://www.w3.org/1999/xlink">
<g id="graph0" class="graph" transform="scale(1 1) rotate(0) translate(4 462.86)">
<title>itk::QuadricDecimationQuadEdgeMeshFilter&lt; TInput, TOutput, TCriterion &gt;</title>
<polygon fill="white" stroke="transparent" points="-4,4 -4,-462.86 2815,-462.86 2815,4 -4,4"/>
<!-- Node1 -->
<g id="node1" class="node">
<title>Node1</title>
<g id="a_node1"><a xlink:title="Quadric decimation.">
<polygon fill="#bfbfbf" stroke="black" points="2656,-319.86 2656,-360.86 2811,-360.86 2811,-319.86 2656,-319.86"/>
<text text-anchor="start" x="2664" y="-348.86" font-family="Helvetica,sans-Serif" font-size="10.00">itk::QuadricDecimationQuad</text>
<text text-anchor="start" x="2664" y="-337.86" font-family="Helvetica,sans-Serif" font-size="10.00">EdgeMeshFilter&lt; TInput,</text>
<text text-anchor="middle" x="2733.5" y="-326.86" font-family="Helvetica,sans-Serif" font-size="10.00"> TOutput, TCriterion &gt;</text>
</a>
</g>
</g>
<!-- Node2 -->
<g id="node2" class="node">
<title>Node2</title>
<g id="a_node2"><a xlink:href="classitk_1_1EdgeDecimationQuadEdgeMeshFilter.html" target="_top" xlink:title=" ">
<polygon fill="white" stroke="black" points="2394,-363.86 2394,-404.86 2559,-404.86 2559,-363.86 2394,-363.86"/>
<text text-anchor="start" x="2402" y="-392.86" font-family="Helvetica,sans-Serif" font-size="10.00">itk::EdgeDecimationQuadEdge</text>
<text text-anchor="start" x="2402" y="-381.86" font-family="Helvetica,sans-Serif" font-size="10.00">MeshFilter&lt; TInput, TOutput,</text>
<text text-anchor="middle" x="2476.5" y="-370.86" font-family="Helvetica,sans-Serif" font-size="10.00"> TCriterion &gt;</text>
</a>
</g>
</g>
<!-- Node2&#45;&gt;Node1 -->
<g id="edge1" class="edge">
<title>Node2&#45;&gt;Node1</title>
<path fill="none" stroke="midnightblue" d="M2569.18,-368.54C2597.64,-363.63 2628.68,-358.27 2655.99,-353.56"/>
<polygon fill="midnightblue" stroke="midnightblue" points="2568.5,-365.11 2559.24,-370.26 2569.69,-372 2568.5,-365.11"/>
</g>
<!-- Node3 -->
<g id="node3" class="node">
<title>Node3</title>
<g id="a_node3"><a xlink:href="classitk_1_1DecimationQuadEdgeMeshFilter.html" target="_top" xlink:title=" ">
<polygon fill="white" stroke="black" points="2092.5,-329.86 2092.5,-370.86 2259.5,-370.86 2259.5,-329.86 2092.5,-329.86"/>
<text text-anchor="start" x="2100.5" y="-358.86" font-family="Helvetica,sans-Serif" font-size="10.00">itk::DecimationQuadEdgeMesh</text>
<text text-anchor="start" x="2100.5" y="-347.86" font-family="Helvetica,sans-Serif" font-size="10.00">Filter&lt; TInput, TOutput,</text>
<text text-anchor="middle" x="2176" y="-336.86" font-family="Helvetica,sans-Serif" font-size="10.00"> TCriterion &gt;</text>
</a>
</g>
</g>
<!-- Node3&#45;&gt;Node2 -->
<g id="edge2" class="edge">
<title>Node3&#45;&gt;Node2</title>
<path fill="none" stroke="midnightblue" d="M2269.71,-360.92C2309.45,-365.45 2355.45,-370.69 2393.88,-375.06"/>
<polygon fill="midnightblue" stroke="midnightblue" points="2270.08,-357.44 2259.75,-359.79 2269.29,-364.39 2270.08,-357.44"/>
</g>
<!-- Node4 -->
<g id="node4" class="node">
<title>Node4</title>
<g id="a_node4"><a xlink:href="classitk_1_1QuadEdgeMeshToQuadEdgeMeshFilter.html" target="_top" xlink:title=" ">
<polygon fill="white" stroke="black" points="1878,-332.36 1878,-362.36 2049,-362.36 2049,-332.36 1878,-332.36"/>
<text text-anchor="start" x="1886" y="-350.36" font-family="Helvetica,sans-Serif" font-size="10.00">itk::QuadEdgeMeshToQuadEdge</text>
<text text-anchor="middle" x="1963.5" y="-339.36" font-family="Helvetica,sans-Serif" font-size="10.00">MeshFilter&lt; TInput, TOutput &gt;</text>
</a>
</g>
</g>
<!-- Node4&#45;&gt;Node3 -->
<g id="edge3" class="edge">
<title>Node4&#45;&gt;Node3</title>
<path fill="none" stroke="midnightblue" d="M2059.24,-348.71C2070.23,-348.87 2081.37,-349.03 2092.18,-349.18"/>
<polygon fill="midnightblue" stroke="midnightblue" points="2059.26,-345.21 2049.21,-348.57 2059.16,-352.21 2059.26,-345.21"/>
</g>
<!-- Node5 -->
<g id="node5" class="node">
<title>Node5</title>
<g id="a_node5"><a xlink:href="classitk_1_1MeshToMeshFilter.html" target="_top" xlink:title=" ">
<polygon fill="white" stroke="black" points="1718,-326.36 1718,-356.36 1841,-356.36 1841,-326.36 1718,-326.36"/>
<text text-anchor="start" x="1726" y="-344.36" font-family="Helvetica,sans-Serif" font-size="10.00">itk::MeshToMeshFilter</text>
<text text-anchor="middle" x="1779.5" y="-333.36" font-family="Helvetica,sans-Serif" font-size="10.00">&lt; TInput, TOutput &gt;</text>
</a>
</g>
</g>
<!-- Node5&#45;&gt;Node4 -->
<g id="edge4" class="edge">
<title>Node5&#45;&gt;Node4</title>
<path fill="none" stroke="midnightblue" d="M1851.21,-343.69C1859.94,-343.98 1868.94,-344.28 1877.85,-344.57"/>
<polygon fill="midnightblue" stroke="midnightblue" points="1851.21,-340.19 1841.1,-343.36 1850.98,-347.19 1851.21,-340.19"/>
</g>
<!-- Node6 -->
<g id="node6" class="node">
<title>Node6</title>
<g id="a_node6"><a xlink:href="classitk_1_1MeshSource.html" target="_top" xlink:title=" ">
<polygon fill="white" stroke="black" points="1417,-304.86 1417,-323.86 1573,-323.86 1573,-304.86 1417,-304.86"/>
<text text-anchor="middle" x="1495" y="-311.86" font-family="Helvetica,sans-Serif" font-size="10.00">itk::MeshSource&lt; TOutput &gt;</text>
</a>
</g>
</g>
<!-- Node6&#45;&gt;Node5 -->
<g id="edge5" class="edge">
<title>Node6&#45;&gt;Node5</title>
<path fill="none" stroke="midnightblue" d="M1583.24,-322.7C1626.92,-326.87 1678.7,-331.82 1717.96,-335.57"/>
<polygon fill="midnightblue" stroke="midnightblue" points="1583.48,-319.2 1573.19,-321.74 1582.82,-326.17 1583.48,-319.2"/>
</g>
<!-- Node7 -->
<g id="node7" class="node">
<title>Node7</title>
<g id="a_node7"><a xlink:href="classitk_1_1ProcessObject.html" target="_top" xlink:title="The base class for all process objects (source, filters, mappers) in the Insight data processing pipe...">
<polygon fill="white" stroke="black" points="1276,-198.86 1276,-217.86 1380,-217.86 1380,-198.86 1276,-198.86"/>
<text text-anchor="middle" x="1328" y="-205.86" font-family="Helvetica,sans-Serif" font-size="10.00">itk::ProcessObject</text>
</a>
</g>
</g>
<!-- Node7&#45;&gt;Node6 -->
<g id="edge6" class="edge">
<title>Node7&#45;&gt;Node6</title>
<path fill="none" stroke="midnightblue" d="M1352.4,-223.39C1386.73,-245.45 1449.79,-285.96 1478.74,-304.56"/>
<polygon fill="midnightblue" stroke="midnightblue" points="1354.24,-220.41 1343.93,-217.95 1350.46,-226.3 1354.24,-220.41"/>
</g>
<!-- Node8 -->
<g id="node8" class="node">
<title>Node8</title>
<g id="a_node8"><a xlink:href="classitk_1_1Object.html" target="_top" xlink:title="Base class for most ITK classes.">
<polygon fill="white" stroke="black" points="980,-154.86 980,-173.86 1047,-173.86 1047,-154.86 980,-154.86"/>
<text text-anchor="middle" x="1013.5" y="-161.86" font-family="Helvetica,sans-Serif" font-size="10.00">itk::Object</text>
</a>
</g>
</g>
<!-- Node8&#45;&gt;Node7 -->
<g id="edge7" class="edge">
<title>Node8&#45;&gt;Node7</title>
<path fill="none" stroke="midnightblue" d="M1057.17,-170.37C1114.17,-178.39 1215.03,-192.59 1275.98,-201.18"/>
<polygon fill="midnightblue" stroke="midnightblue" points="1057.45,-166.87 1047.06,-168.94 1056.47,-173.8 1057.45,-166.87"/>
</g>
<!-- Node9 -->
<g id="node9" class="node">
<title>Node9</title>
<g id="a_node9"><a xlink:href="classitk_1_1LightObject.html" target="_top" xlink:title="Light weight base class for most itk classes.">
<polygon fill="white" stroke="black" points="659,-83.86 659,-102.86 750,-102.86 750,-83.86 659,-83.86"/>
<text text-anchor="middle" x="704.5" y="-90.86" font-family="Helvetica,sans-Serif" font-size="10.00">itk::LightObject</text>
</a>
</g>
</g>
<!-- Node9&#45;&gt;Node8 -->
<g id="edge8" class="edge">
<title>Node9&#45;&gt;Node8</title>
<path fill="none" stroke="midnightblue" d="M756.37,-105.12C819.72,-119.77 926.11,-144.38 979.63,-156.76"/>
<polygon fill="midnightblue" stroke="midnightblue" points="757.12,-101.7 746.58,-102.86 755.54,-108.52 757.12,-101.7"/>
</g>
<!-- Node10 -->
<g id="node10" class="node">
<title>Node10</title>
<g id="a_node10"><a xlink:title=" ">
<polygon fill="white" stroke="#bfbfbf" points="372,-83.86 372,-102.86 479,-102.86 479,-83.86 372,-83.86"/>
<text text-anchor="middle" x="425.5" y="-90.86" font-family="Helvetica,sans-Serif" font-size="10.00">std::atomic&lt; int &gt;</text>
</a>
</g>
</g>
<!-- Node10&#45;&gt;Node9 -->
<g id="edge9" class="edge">
<title>Node10&#45;&gt;Node9</title>
<path fill="none" stroke="#9a32cd" stroke-dasharray="5,2" d="M489.29,-93.36C540.91,-93.36 612.77,-93.36 658.72,-93.36"/>
<polygon fill="#9a32cd" stroke="#9a32cd" points="489.25,-89.86 479.25,-93.36 489.25,-96.86 489.25,-89.86"/>
<text text-anchor="middle" x="566.5" y="-96.36" font-family="Helvetica,sans-Serif" font-size="10.00"> m_ReferenceCount</text>
</g>
<!-- Node11 -->
<g id="node11" class="node">
<title>Node11</title>
<g id="a_node11"><a xlink:title="STL class.">
<polygon fill="white" stroke="#bfbfbf" points="672,-256.86 672,-275.86 737,-275.86 737,-256.86 672,-256.86"/>
<text text-anchor="middle" x="704.5" y="-263.86" font-family="Helvetica,sans-Serif" font-size="10.00">std::string</text>
</a>
</g>
</g>
<!-- Node11&#45;&gt;Node8 -->
<g id="edge10" class="edge">
<title>Node11&#45;&gt;Node8</title>
<path fill="none" stroke="#9a32cd" stroke-dasharray="5,2" d="M726.82,-250.98C744.11,-239.22 769.56,-223.52 794,-214.36 843.55,-195.79 860.85,-209.24 911,-192.36 919.48,-189.51 920.58,-186.37 929,-183.36 945.38,-177.5 964.23,-173.03 979.87,-169.9"/>
<polygon fill="#9a32cd" stroke="#9a32cd" points="724.78,-248.13 718.56,-256.71 728.77,-253.88 724.78,-248.13"/>
<text text-anchor="middle" x="852.5" y="-217.36" font-family="Helvetica,sans-Serif" font-size="10.00"> m_ObjectName</text>
</g>
<!-- Node20 -->
<g id="node20" class="node">
<title>Node20</title>
<g id="a_node20"><a xlink:title=" ">
<polygon fill="white" stroke="#bfbfbf" points="932.5,-242.36 932.5,-272.36 1094.5,-272.36 1094.5,-242.36 932.5,-242.36"/>
<text text-anchor="start" x="940.5" y="-260.36" font-family="Helvetica,sans-Serif" font-size="10.00">std::set&lt; DataObjectIdentifier</text>
<text text-anchor="middle" x="1013.5" y="-249.36" font-family="Helvetica,sans-Serif" font-size="10.00">Type &gt;</text>
</a>
</g>
</g>
<!-- Node11&#45;&gt;Node20 -->
<g id="edge21" class="edge">
<title>Node11&#45;&gt;Node20</title>
<path fill="none" stroke="#9a32cd" stroke-dasharray="5,2" d="M747.21,-265.53C788.73,-264.66 854.28,-263.17 911,-261.36 917.96,-261.14 925.19,-260.89 932.44,-260.63"/>
<polygon fill="#9a32cd" stroke="#9a32cd" points="747.11,-262.03 737.19,-265.74 747.26,-269.03 747.11,-262.03"/>
<text text-anchor="middle" x="852.5" y="-268.36" font-family="Helvetica,sans-Serif" font-size="10.00"> keys</text>
</g>
<!-- Node21 -->
<g id="node21" class="node">
<title>Node21</title>
<g id="a_node21"><a xlink:title=" ">
<polygon fill="white" stroke="#bfbfbf" points="929,-193.36 929,-223.36 1098,-223.36 1098,-193.36 929,-193.36"/>
<text text-anchor="start" x="937" y="-211.36" font-family="Helvetica,sans-Serif" font-size="10.00">std::map&lt; DataObjectIdentifier</text>
<text text-anchor="middle" x="1013.5" y="-200.36" font-family="Helvetica,sans-Serif" font-size="10.00">Type, bool &gt;</text>
</a>
</g>
</g>
<!-- Node11&#45;&gt;Node21 -->
<g id="edge23" class="edge">
<title>Node11&#45;&gt;Node21</title>
<path fill="none" stroke="#9a32cd" stroke-dasharray="5,2" d="M746.91,-257.73C761.75,-254.69 778.61,-251.31 794,-248.36 845.89,-238.43 859.04,-236.89 911,-227.36 917.97,-226.08 925.2,-224.75 932.45,-223.4"/>
<polygon fill="#9a32cd" stroke="#9a32cd" points="746.09,-254.33 737,-259.77 747.5,-261.18 746.09,-254.33"/>
<text text-anchor="middle" x="852.5" y="-251.36" font-family="Helvetica,sans-Serif" font-size="10.00"> keys</text>
</g>
<!-- Node26 -->
<g id="node26" class="node">
<title>Node26</title>
<g id="a_node26"><a xlink:title=" ">
<polygon fill="white" stroke="#bfbfbf" points="929,-291.36 929,-321.36 1098,-321.36 1098,-291.36 929,-291.36"/>
<text text-anchor="start" x="937" y="-309.36" font-family="Helvetica,sans-Serif" font-size="10.00">std::map&lt; DataObjectIdentifier</text>
<text text-anchor="middle" x="1013.5" y="-298.36" font-family="Helvetica,sans-Serif" font-size="10.00">Type, DataObjectPointer &gt;</text>
</a>
</g>
</g>
<!-- Node11&#45;&gt;Node26 -->
<g id="edge30" class="edge">
<title>Node11&#45;&gt;Node26</title>
<path fill="none" stroke="#9a32cd" stroke-dasharray="5,2" d="M747.69,-273.37C762.33,-275.72 778.87,-278.26 794,-280.36 838.46,-286.52 888.14,-292.5 928.88,-297.17"/>
<polygon fill="#9a32cd" stroke="#9a32cd" points="747.84,-269.85 737.41,-271.71 746.72,-276.76 747.84,-269.85"/>
<text text-anchor="middle" x="852.5" y="-298.36" font-family="Helvetica,sans-Serif" font-size="10.00"> keys</text>
</g>
<!-- Node12 -->
<g id="node12" class="node">
<title>Node12</title>
<g id="a_node12"><a xlink:title="STL class.">
<polygon fill="white" stroke="#bfbfbf" points="373.5,-251.36 373.5,-281.36 477.5,-281.36 477.5,-251.36 373.5,-251.36"/>
<text text-anchor="start" x="381.5" y="-269.36" font-family="Helvetica,sans-Serif" font-size="10.00">std::basic_string&lt;</text>
<text text-anchor="middle" x="425.5" y="-258.36" font-family="Helvetica,sans-Serif" font-size="10.00"> char &gt;</text>
</a>
</g>
</g>
<!-- Node12&#45;&gt;Node11 -->
<g id="edge11" class="edge">
<title>Node12&#45;&gt;Node11</title>
<path fill="none" stroke="midnightblue" d="M487.93,-266.36C544.75,-266.36 626.97,-266.36 671.66,-266.36"/>
<polygon fill="midnightblue" stroke="midnightblue" points="487.63,-262.86 477.63,-266.36 487.63,-269.86 487.63,-262.86"/>
</g>
<!-- Node13 -->
<g id="node13" class="node">
<title>Node13</title>
<g id="a_node13"><a xlink:href="classitk_1_1MetaDataDictionary.html" target="_top" xlink:title="Provides a mechanism for storing a collection of arbitrary data types.">
<polygon fill="white" stroke="black" points="637.5,-172.86 637.5,-191.86 771.5,-191.86 771.5,-172.86 637.5,-172.86"/>
<text text-anchor="middle" x="704.5" y="-179.86" font-family="Helvetica,sans-Serif" font-size="10.00">itk::MetaDataDictionary</text>
</a>
</g>
</g>
<!-- Node13&#45;&gt;Node8 -->
<g id="edge12" class="edge">
<title>Node13&#45;&gt;Node8</title>
<path fill="none" stroke="#9a32cd" stroke-dasharray="5,2" d="M781.74,-177.89C845.39,-174.16 933.03,-169.02 979.86,-166.27"/>
<polygon fill="#9a32cd" stroke="#9a32cd" points="781.51,-174.4 771.74,-178.48 781.92,-181.38 781.51,-174.4"/>
<text text-anchor="middle" x="852.5" y="-180.36" font-family="Helvetica,sans-Serif" font-size="10.00"> m_MetaDataDictionary</text>
</g>
<!-- Node14 -->
<g id="node14" class="node">
<title>Node14</title>
<g id="a_node14"><a xlink:title=" ">
<polygon fill="white" stroke="#bfbfbf" points="351,-169.36 351,-199.36 500,-199.36 500,-169.36 351,-169.36"/>
<text text-anchor="start" x="359" y="-187.36" font-family="Helvetica,sans-Serif" font-size="10.00">std::shared_ptr&lt; MetaData</text>
<text text-anchor="middle" x="425.5" y="-176.36" font-family="Helvetica,sans-Serif" font-size="10.00">DictionaryMapType &gt;</text>
</a>
</g>
</g>
<!-- Node14&#45;&gt;Node13 -->
<g id="edge13" class="edge">
<title>Node14&#45;&gt;Node13</title>
<path fill="none" stroke="#9a32cd" stroke-dasharray="5,2" d="M510.18,-183.76C550.89,-183.46 599.13,-183.11 637.24,-182.84"/>
<polygon fill="#9a32cd" stroke="#9a32cd" points="509.98,-180.26 500,-183.83 510.03,-187.26 509.98,-180.26"/>
<text text-anchor="middle" x="566.5" y="-187.36" font-family="Helvetica,sans-Serif" font-size="10.00"> m_Dictionary</text>
</g>
<!-- Node15 -->
<g id="node15" class="node">
<title>Node15</title>
<g id="a_node15"><a xlink:title="STL class.">
<polygon fill="white" stroke="#bfbfbf" points="114,-174.86 114,-193.86 215,-193.86 215,-174.86 114,-174.86"/>
<text text-anchor="middle" x="164.5" y="-181.86" font-family="Helvetica,sans-Serif" font-size="10.00">std::map&lt; K, T &gt;</text>
</a>
</g>
</g>
<!-- Node15&#45;&gt;Node14 -->
<g id="edge14" class="edge">
<title>Node15&#45;&gt;Node14</title>
<path fill="none" stroke="#9a32cd" stroke-dasharray="5,2" d="M225.34,-184.36C262.61,-184.36 310.86,-184.36 350.52,-184.36"/>
<polygon fill="#9a32cd" stroke="#9a32cd" points="225.13,-180.86 215.13,-184.36 225.13,-187.86 225.13,-180.86"/>
<text text-anchor="middle" x="283" y="-187.36" font-family="Helvetica,sans-Serif" font-size="10.00"> ptr</text>
</g>
<!-- Node16 -->
<g id="node16" class="node">
<title>Node16</title>
<g id="a_node16"><a xlink:title=" ">
<polygon fill="white" stroke="#bfbfbf" points="0,-197.86 0,-216.86 29,-216.86 29,-197.86 0,-197.86"/>
<text text-anchor="middle" x="14.5" y="-204.86" font-family="Helvetica,sans-Serif" font-size="10.00">K</text>
</a>
</g>
</g>
<!-- Node16&#45;&gt;Node15 -->
<g id="edge15" class="edge">
<title>Node16&#45;&gt;Node15</title>
<path fill="none" stroke="#9a32cd" stroke-dasharray="5,2" d="M39.24,-203.67C59.28,-200.56 88.63,-195.99 113.78,-192.09"/>
<polygon fill="#9a32cd" stroke="#9a32cd" points="38.5,-200.24 29.16,-205.24 39.58,-207.16 38.5,-200.24"/>
<text text-anchor="middle" x="71.5" y="-206.36" font-family="Helvetica,sans-Serif" font-size="10.00"> keys</text>
</g>
<!-- Node17 -->
<g id="node17" class="node">
<title>Node17</title>
<g id="a_node17"><a xlink:title=" ">
<polygon fill="white" stroke="#bfbfbf" points="0,-144.86 0,-163.86 29,-163.86 29,-144.86 0,-144.86"/>
<text text-anchor="middle" x="14.5" y="-151.86" font-family="Helvetica,sans-Serif" font-size="10.00">T</text>
</a>
</g>
</g>
<!-- Node17&#45;&gt;Node15 -->
<g id="edge16" class="edge">
<title>Node17&#45;&gt;Node15</title>
<path fill="none" stroke="#9a32cd" stroke-dasharray="5,2" d="M39.01,-159.12C59.76,-163.33 90.63,-169.59 116.44,-174.82"/>
<polygon fill="#9a32cd" stroke="#9a32cd" points="39.65,-155.68 29.16,-157.13 38.26,-162.55 39.65,-155.68"/>
<text text-anchor="middle" x="71.5" y="-173.36" font-family="Helvetica,sans-Serif" font-size="10.00"> elements</text>
</g>
<!-- Node19 -->
<g id="node19" class="node">
<title>Node19</title>
<g id="a_node19"><a xlink:title="STL class.">
<polygon fill="white" stroke="#bfbfbf" points="233,-129.86 233,-148.86 333,-148.86 333,-129.86 233,-129.86"/>
<text text-anchor="middle" x="283" y="-136.86" font-family="Helvetica,sans-Serif" font-size="10.00">std::atomic&lt; T &gt;</text>
</a>
</g>
</g>
<!-- Node17&#45;&gt;Node19 -->
<g id="edge19" class="edge">
<title>Node17&#45;&gt;Node19</title>
<path fill="none" stroke="#9a32cd" stroke-dasharray="5,2" d="M39.06,-147.78C41.72,-147.22 44.41,-146.72 47,-146.36 110.66,-137.44 184.94,-136.84 232.68,-137.71"/>
<polygon fill="#9a32cd" stroke="#9a32cd" points="38.06,-144.42 29.17,-150.19 39.71,-151.23 38.06,-144.42"/>
<text text-anchor="middle" x="71.5" y="-149.36" font-family="Helvetica,sans-Serif" font-size="10.00"> ptr</text>
</g>
<!-- Node18 -->
<g id="node18" class="node">
<title>Node18</title>
<g id="a_node18"><a xlink:href="classitk_1_1TimeStamp.html" target="_top" xlink:title="Generate a unique, increasing time value.">
<polygon fill="white" stroke="black" points="658.5,-129.86 658.5,-148.86 750.5,-148.86 750.5,-129.86 658.5,-129.86"/>
<text text-anchor="middle" x="704.5" y="-136.86" font-family="Helvetica,sans-Serif" font-size="10.00">itk::TimeStamp</text>
</a>
</g>
</g>
<!-- Node18&#45;&gt;Node7 -->
<g id="edge32" class="edge">
<title>Node18&#45;&gt;Node7</title>
<path fill="none" stroke="#9a32cd" stroke-dasharray="5,2" d="M761.1,-133.75C837.41,-127.17 978.74,-118.97 1098,-134.36 1170.92,-143.77 1188.82,-151.46 1258,-176.36 1275.64,-182.71 1294.94,-191.86 1308.63,-198.75"/>
<polygon fill="#9a32cd" stroke="#9a32cd" points="760.42,-130.3 750.77,-134.67 761.04,-137.27 760.42,-130.3"/>
<text text-anchor="middle" x="1013.5" y="-137.36" font-family="Helvetica,sans-Serif" font-size="10.00"> m_OutputInformationMTime</text>
</g>
<!-- Node18&#45;&gt;Node8 -->
<g id="edge17" class="edge">
<title>Node18&#45;&gt;Node8</title>
<path fill="none" stroke="#9a32cd" stroke-dasharray="5,2" d="M761.09,-143.89C824.93,-149.09 927.56,-157.44 979.75,-161.69"/>
<polygon fill="#9a32cd" stroke="#9a32cd" points="761.05,-140.37 750.8,-143.05 760.48,-147.35 761.05,-140.37"/>
<text text-anchor="middle" x="852.5" y="-159.36" font-family="Helvetica,sans-Serif" font-size="10.00"> m_MTime</text>
</g>
<!-- Node19&#45;&gt;Node18 -->
<g id="edge18" class="edge">
<title>Node19&#45;&gt;Node18</title>
<path fill="none" stroke="#9a32cd" stroke-dasharray="5,2" d="M343.61,-139.36C428.52,-139.36 582.42,-139.36 658.48,-139.36"/>
<polygon fill="#9a32cd" stroke="#9a32cd" points="343.36,-135.86 333.36,-139.36 343.36,-142.86 343.36,-135.86"/>
<text text-anchor="middle" x="425.5" y="-142.36" font-family="Helvetica,sans-Serif" font-size="10.00"> m_GlobalTimeStamp</text>
</g>
<!-- Node20&#45;&gt;Node7 -->
<g id="edge20" class="edge">
<title>Node20&#45;&gt;Node7</title>
<path fill="none" stroke="#9a32cd" stroke-dasharray="5,2" d="M1104.54,-253.85C1150.84,-250.69 1207.92,-244.71 1258,-233.36 1274.15,-229.7 1291.69,-223.31 1305.05,-217.91"/>
<polygon fill="#9a32cd" stroke="#9a32cd" points="1104.29,-250.36 1094.53,-254.5 1104.74,-257.34 1104.29,-250.36"/>
<text text-anchor="middle" x="1187" y="-256.36" font-family="Helvetica,sans-Serif" font-size="10.00"> m_RequiredInputNames</text>
</g>
<!-- Node21&#45;&gt;Node7 -->
<g id="edge22" class="edge">
<title>Node21&#45;&gt;Node7</title>
<path fill="none" stroke="#9a32cd" stroke-dasharray="5,2" d="M1108.35,-208.36C1163.29,-208.36 1230.54,-208.36 1275.84,-208.36"/>
<polygon fill="#9a32cd" stroke="#9a32cd" points="1108.24,-204.86 1098.24,-208.36 1108.24,-211.86 1108.24,-204.86"/>
<text text-anchor="start" x="1116" y="-222.36" font-family="Helvetica,sans-Serif" font-size="10.00"> m_CachedInputReleaseData</text>
<text text-anchor="middle" x="1187" y="-211.36" font-family="Helvetica,sans-Serif" font-size="10.00">Flags</text>
</g>
<!-- Node22 -->
<g id="node22" class="node">
<title>Node22</title>
<g id="a_node22"><a xlink:title=" ">
<polygon fill="white" stroke="#bfbfbf" points="946.5,-57.86 946.5,-76.86 1080.5,-76.86 1080.5,-57.86 946.5,-57.86"/>
<text text-anchor="middle" x="1013.5" y="-64.86" font-family="Helvetica,sans-Serif" font-size="10.00">std::atomic&lt; uint32_t &gt;</text>
</a>
</g>
</g>
<!-- Node22&#45;&gt;Node7 -->
<g id="edge24" class="edge">
<title>Node22&#45;&gt;Node7</title>
<path fill="none" stroke="#9a32cd" stroke-dasharray="5,2" d="M1088.66,-57.11C1140.07,-53.84 1208.01,-57.48 1258,-89.36 1298.87,-115.43 1318.31,-174.98 1324.61,-198.52"/>
<polygon fill="#9a32cd" stroke="#9a32cd" points="1088.33,-53.63 1078.61,-57.85 1088.84,-60.61 1088.33,-53.63"/>
<text text-anchor="middle" x="1187" y="-92.36" font-family="Helvetica,sans-Serif" font-size="10.00"> m_Progress</text>
</g>
<!-- Node23 -->
<g id="node23" class="node">
<title>Node23</title>
<g id="a_node23"><a xlink:title=" ">
<polygon fill="white" stroke="#bfbfbf" points="676.5,-45.86 676.5,-64.86 732.5,-64.86 732.5,-45.86 676.5,-45.86"/>
<text text-anchor="middle" x="704.5" y="-52.86" font-family="Helvetica,sans-Serif" font-size="10.00">uint32_t</text>
</a>
</g>
</g>
<!-- Node23&#45;&gt;Node22 -->
<g id="edge25" class="edge">
<title>Node23&#45;&gt;Node22</title>
<path fill="none" stroke="#9a32cd" stroke-dasharray="5,2" d="M742.88,-56.82C793.35,-58.79 884.11,-62.34 946.28,-64.77"/>
<polygon fill="#9a32cd" stroke="#9a32cd" points="742.87,-53.32 732.74,-56.42 742.6,-60.31 742.87,-53.32"/>
<text text-anchor="middle" x="852.5" y="-66.36" font-family="Helvetica,sans-Serif" font-size="10.00"> ptr</text>
</g>
<!-- Node24 -->
<g id="node24" class="node">
<title>Node24</title>
<g id="a_node24"><a xlink:title=" ">
<polygon fill="white" stroke="#bfbfbf" points="929,-7.36 929,-37.36 1098,-37.36 1098,-7.36 929,-7.36"/>
<text text-anchor="start" x="937" y="-25.36" font-family="Helvetica,sans-Serif" font-size="10.00">std::vector&lt; DataObjectPointer</text>
<text text-anchor="middle" x="1013.5" y="-14.36" font-family="Helvetica,sans-Serif" font-size="10.00">Map::iterator &gt;</text>
</a>
</g>
</g>
<!-- Node24&#45;&gt;Node7 -->
<g id="edge26" class="edge">
<title>Node24&#45;&gt;Node7</title>
<path fill="none" stroke="#9a32cd" stroke-dasharray="5,2" d="M1083.51,-5.62C1136.12,2.96 1207.84,5.21 1258,-30.36 1315.58,-71.2 1325.11,-167.3 1326.69,-198.44"/>
<polygon fill="#9a32cd" stroke="#9a32cd" points="1082.84,-2.19 1073.59,-7.35 1084.04,-9.08 1082.84,-2.19"/>
<text text-anchor="middle" x="1187" y="-44.36" font-family="Helvetica,sans-Serif" font-size="10.00"> m_IndexedOutputs</text>
<text text-anchor="middle" x="1187" y="-33.36" font-family="Helvetica,sans-Serif" font-size="10.00">m_IndexedInputs</text>
</g>
<!-- Node25 -->
<g id="node25" class="node">
<title>Node25</title>
<g id="a_node25"><a xlink:title="STL iterator class.">
<polygon fill="white" stroke="#bfbfbf" points="633,-7.86 633,-26.86 776,-26.86 776,-7.86 633,-7.86"/>
<text text-anchor="middle" x="704.5" y="-14.86" font-family="Helvetica,sans-Serif" font-size="10.00">std::map&lt; K, T &gt;::iterator</text>
</a>
</g>
</g>
<!-- Node25&#45;&gt;Node24 -->
<g id="edge27" class="edge">
<title>Node25&#45;&gt;Node24</title>
<path fill="none" stroke="#9a32cd" stroke-dasharray="5,2" d="M786.39,-18.68C830.34,-19.39 884.61,-20.28 928.97,-21"/>
<polygon fill="#9a32cd" stroke="#9a32cd" points="786.37,-15.18 776.32,-18.51 786.26,-22.18 786.37,-15.18"/>
<text text-anchor="middle" x="852.5" y="-24.36" font-family="Helvetica,sans-Serif" font-size="10.00"> elements</text>
</g>
<!-- Node26&#45;&gt;Node7 -->
<g id="edge28" class="edge">
<title>Node26&#45;&gt;Node7</title>
<path fill="none" stroke="#9a32cd" stroke-dasharray="5,2" d="M1108.29,-303.91C1155.08,-299.7 1211.46,-290 1258,-268.36 1283.91,-256.31 1307.5,-231.54 1319.22,-217.9"/>
<polygon fill="#9a32cd" stroke="#9a32cd" points="1107.83,-300.43 1098.15,-304.74 1108.41,-307.41 1107.83,-300.43"/>
<text text-anchor="middle" x="1187" y="-317.36" font-family="Helvetica,sans-Serif" font-size="10.00"> m_Outputs</text>
<text text-anchor="middle" x="1187" y="-306.36" font-family="Helvetica,sans-Serif" font-size="10.00">m_Inputs</text>
</g>
<!-- Node27 -->
<g id="node27" class="node">
<title>Node27</title>
<g id="a_node27"><a xlink:href="classitk_1_1SmartPointer.html" target="_top" xlink:title=" ">
<polygon fill="white" stroke="black" points="651,-362.36 651,-392.36 758,-392.36 758,-362.36 651,-362.36"/>
<text text-anchor="start" x="659" y="-380.36" font-family="Helvetica,sans-Serif" font-size="10.00">itk::SmartPointer&lt;</text>
<text text-anchor="middle" x="704.5" y="-369.36" font-family="Helvetica,sans-Serif" font-size="10.00"> Self &gt;</text>
</a>
</g>
</g>
<!-- Node27&#45;&gt;Node2 -->
<g id="edge34" class="edge">
<title>Node27&#45;&gt;Node2</title>
<path fill="none" stroke="#9a32cd" stroke-dasharray="5,2" d="M768.12,-384.48C830.1,-390.91 927.72,-399.36 1012.5,-399.36 1012.5,-399.36 1012.5,-399.36 2177,-399.36 2250.42,-399.36 2333.87,-394.78 2393.84,-390.68"/>
<polygon fill="#9a32cd" stroke="#9a32cd" points="768.42,-380.99 758.11,-383.43 767.69,-387.96 768.42,-380.99"/>
<text text-anchor="middle" x="1645.5" y="-413.36" font-family="Helvetica,sans-Serif" font-size="10.00"> m_JoinVertexFunction</text>
<text text-anchor="middle" x="1645.5" y="-402.36" font-family="Helvetica,sans-Serif" font-size="10.00">m_PriorityQueue</text>
</g>
<!-- Node27&#45;&gt;Node26 -->
<g id="edge29" class="edge">
<title>Node27&#45;&gt;Node26</title>
<path fill="none" stroke="#9a32cd" stroke-dasharray="5,2" d="M768.1,-362.88C820.4,-350.79 894.71,-333.6 947.63,-321.36"/>
<polygon fill="#9a32cd" stroke="#9a32cd" points="767.23,-359.49 758.28,-365.15 768.81,-366.31 767.23,-359.49"/>
<text text-anchor="middle" x="852.5" y="-360.36" font-family="Helvetica,sans-Serif" font-size="10.00"> elements</text>
</g>
<!-- Node28 -->
<g id="node28" class="node">
<title>Node28</title>
<g id="a_node28"><a xlink:href="classitk_1_1SmartPointer.html" target="_top" xlink:title=" ">
<polygon fill="white" stroke="black" points="942.5,-340.36 942.5,-370.36 1084.5,-370.36 1084.5,-340.36 942.5,-340.36"/>
<text text-anchor="start" x="950.5" y="-358.36" font-family="Helvetica,sans-Serif" font-size="10.00">itk::SmartPointer&lt;</text>
<text text-anchor="middle" x="1013.5" y="-347.36" font-family="Helvetica,sans-Serif" font-size="10.00"> itk::MultiThreaderBase &gt;</text>
</a>
</g>
</g>
<!-- Node28&#45;&gt;Node7 -->
<g id="edge31" class="edge">
<title>Node28&#45;&gt;Node7</title>
<path fill="none" stroke="#9a32cd" stroke-dasharray="5,2" d="M1094.93,-364.52C1145.61,-366.24 1210.24,-360.61 1258,-329.36 1299.28,-302.35 1318.59,-241.55 1324.73,-217.97"/>
<polygon fill="#9a32cd" stroke="#9a32cd" points="1094.81,-361.01 1084.67,-364.06 1094.5,-368 1094.81,-361.01"/>
<text text-anchor="middle" x="1187" y="-368.36" font-family="Helvetica,sans-Serif" font-size="10.00"> m_MultiThreader</text>
</g>
<!-- Node29 -->
<g id="node29" class="node">
<title>Node29</title>
<g id="a_node29"><a xlink:title=" ">
<polygon fill="white" stroke="#bfbfbf" points="2095,-428.36 2095,-458.36 2257,-458.36 2257,-428.36 2095,-428.36"/>
<text text-anchor="start" x="2103" y="-446.36" font-family="Helvetica,sans-Serif" font-size="10.00">std::map&lt; OutputQEType</text>
<text text-anchor="middle" x="2176" y="-435.36" font-family="Helvetica,sans-Serif" font-size="10.00"> *, PriorityQueueItemType * &gt;</text>
</a>
</g>
</g>
<!-- Node29&#45;&gt;Node2 -->
<g id="edge33" class="edge">
<title>Node29&#45;&gt;Node2</title>
<path fill="none" stroke="#9a32cd" stroke-dasharray="5,2" d="M2267.18,-431.66C2300.02,-426.81 2337.33,-420.61 2371,-413.36 2382.32,-410.92 2394.23,-407.98 2405.8,-404.92"/>
<polygon fill="#9a32cd" stroke="#9a32cd" points="2266.54,-428.22 2257.14,-433.12 2267.54,-435.14 2266.54,-428.22"/>
<text text-anchor="middle" x="2327.5" y="-431.36" font-family="Helvetica,sans-Serif" font-size="10.00"> m_QueueMapper</text>
</g>
<!-- Node30 -->
<g id="node30" class="node">
<title>Node30</title>
<g id="a_node30"><a xlink:title=" ">
<polygon fill="white" stroke="#bfbfbf" points="2389,-292.36 2389,-322.36 2564,-322.36 2564,-292.36 2389,-292.36"/>
<text text-anchor="start" x="2397" y="-310.36" font-family="Helvetica,sans-Serif" font-size="10.00">std::map&lt; OutputPointIdentifier,</text>
<text text-anchor="middle" x="2476.5" y="-299.36" font-family="Helvetica,sans-Serif" font-size="10.00"> QuadricElementType &gt;</text>
</a>
</g>
</g>
<!-- Node30&#45;&gt;Node1 -->
<g id="edge35" class="edge">
<title>Node30&#45;&gt;Node1</title>
<path fill="none" stroke="#9a32cd" stroke-dasharray="5,2" d="M2574.41,-319.9C2601.37,-323.39 2630.26,-327.13 2655.87,-330.44"/>
<polygon fill="#9a32cd" stroke="#9a32cd" points="2574.55,-316.39 2564.19,-318.58 2573.66,-323.33 2574.55,-316.39"/>
<text text-anchor="middle" x="2610" y="-331.36" font-family="Helvetica,sans-Serif" font-size="10.00"> m_Quadric</text>
</g>
<!-- Node31 -->
<g id="node31" class="node">
<title>Node31</title>
<g id="a_node31"><a xlink:href="classitk_1_1QuadEdgeMeshDecimationQuadricElementHelper.html" target="_top" xlink:title="TODO explicit specification for VDimension=3!!!">
<polygon fill="white" stroke="black" points="2086,-280.36 2086,-310.36 2266,-310.36 2266,-280.36 2086,-280.36"/>
<text text-anchor="start" x="2094" y="-298.36" font-family="Helvetica,sans-Serif" font-size="10.00">itk::QuadEdgeMeshDecimation</text>
<text text-anchor="middle" x="2176" y="-287.36" font-family="Helvetica,sans-Serif" font-size="10.00">QuadricElementHelper&lt; TPoint &gt;</text>
</a>
</g>
</g>
<!-- Node31&#45;&gt;Node30 -->
<g id="edge36" class="edge">
<title>Node31&#45;&gt;Node30</title>
<path fill="none" stroke="#9a32cd" stroke-dasharray="5,2" d="M2276.3,-299.35C2312.72,-300.82 2353.63,-302.46 2388.86,-303.88"/>
<polygon fill="#9a32cd" stroke="#9a32cd" points="2276.29,-295.85 2266.16,-298.94 2276.01,-302.84 2276.29,-295.85"/>
<text text-anchor="middle" x="2327.5" y="-306.36" font-family="Helvetica,sans-Serif" font-size="10.00"> elements</text>
</g>
</g>
</svg>
