<?xml version="1.0" encoding="UTF-8" standalone="no"?>
<!DOCTYPE svg PUBLIC "-//W3C//DTD SVG 1.1//EN"
 "http://www.w3.org/Graphics/SVG/1.1/DTD/svg11.dtd">
<!-- Generated by graphviz version 2.43.0 (0)
 -->
<!-- Title: itk::QuadEdgeMeshFrontIterator&lt; TMesh, TQE &gt; Pages: 1 -->
<svg width="231pt" height="252pt"
 viewBox="0.00 0.00 230.50 252.00" xmlns="http://www.w3.org/2000/svg" xmlns:xlink="http://www.w3.org/1999/xlink">
<g id="graph0" class="graph" transform="scale(1 1) rotate(0) translate(4 248)">
<title>itk::QuadEdgeMeshFrontIterator&lt; TMesh, TQE &gt;</title>
<polygon fill="white" stroke="transparent" points="-4,4 -4,-248 226.5,-248 226.5,4 -4,4"/>
<!-- Node1 -->
<g id="node1" class="node">
<title>Node1</title>
<g id="a_node1"><a xlink:title="Non const quad edge front iterator.">
<polygon fill="#bfbfbf" stroke="black" points="33.5,-0.5 33.5,-30.5 205.5,-30.5 205.5,-0.5 33.5,-0.5"/>
<text text-anchor="start" x="41.5" y="-18.5" font-family="Helvetica,sans-Serif" font-size="10.00">itk::QuadEdgeMeshFrontIterator</text>
<text text-anchor="middle" x="119.5" y="-7.5" font-family="Helvetica,sans-Serif" font-size="10.00">&lt; TMesh, TQE &gt;</text>
</a>
</g>
</g>
<!-- Node2 -->
<g id="node2" class="node">
<title>Node2</title>
<g id="a_node2"><a xlink:href="classitk_1_1QuadEdgeMeshFrontBaseIterator.html" target="_top" xlink:title="Front iterator on Mesh class.">
<polygon fill="white" stroke="black" points="39.5,-68.5 39.5,-98.5 199.5,-98.5 199.5,-68.5 39.5,-68.5"/>
<text text-anchor="start" x="47.5" y="-86.5" font-family="Helvetica,sans-Serif" font-size="10.00">itk::QuadEdgeMeshFrontBase</text>
<text text-anchor="middle" x="119.5" y="-75.5" font-family="Helvetica,sans-Serif" font-size="10.00">Iterator&lt; TMesh, TQE &gt;</text>
</a>
</g>
</g>
<!-- Node2&#45;&gt;Node1 -->
<g id="edge1" class="edge">
<title>Node2&#45;&gt;Node1</title>
<path fill="none" stroke="midnightblue" d="M119.5,-58.03C119.5,-48.86 119.5,-38.74 119.5,-30.79"/>
<polygon fill="midnightblue" stroke="midnightblue" points="116,-58.18 119.5,-68.18 123,-58.18 116,-58.18"/>
</g>
<!-- Node3 -->
<g id="node3" class="node">
<title>Node3</title>
<g id="a_node3"><a xlink:title="STL class.">
<polygon fill="white" stroke="#bfbfbf" points="0,-152 0,-171 81,-171 81,-152 0,-152"/>
<text text-anchor="middle" x="40.5" y="-159" font-family="Helvetica,sans-Serif" font-size="10.00">std::list&lt; T &gt;</text>
</a>
</g>
</g>
<!-- Node3&#45;&gt;Node2 -->
<g id="edge2" class="edge">
<title>Node3&#45;&gt;Node2</title>
<path fill="none" stroke="#9a32cd" stroke-dasharray="5,2" d="M57.11,-144.52C71.26,-130.91 91.39,-111.54 104.93,-98.52"/>
<polygon fill="#9a32cd" stroke="#9a32cd" points="54.34,-142.33 49.56,-151.78 59.2,-147.37 54.34,-142.33"/>
<text text-anchor="middle" x="107" y="-120" font-family="Helvetica,sans-Serif" font-size="10.00"> m_Front</text>
</g>
<!-- Node4 -->
<g id="node4" class="node">
<title>Node4</title>
<g id="a_node4"><a xlink:title=" ">
<polygon fill="white" stroke="#bfbfbf" points="26,-224.5 26,-243.5 55,-243.5 55,-224.5 26,-224.5"/>
<text text-anchor="middle" x="40.5" y="-231.5" font-family="Helvetica,sans-Serif" font-size="10.00">T</text>
</a>
</g>
</g>
<!-- Node4&#45;&gt;Node3 -->
<g id="edge3" class="edge">
<title>Node4&#45;&gt;Node3</title>
<path fill="none" stroke="#9a32cd" stroke-dasharray="5,2" d="M40.5,-213.94C40.5,-200.03 40.5,-181.82 40.5,-171.22"/>
<polygon fill="#9a32cd" stroke="#9a32cd" points="37,-214.36 40.5,-224.36 44,-214.36 37,-214.36"/>
<text text-anchor="middle" x="65" y="-198" font-family="Helvetica,sans-Serif" font-size="10.00"> elements</text>
</g>
<!-- Node5 -->
<g id="node5" class="node">
<title>Node5</title>
<g id="a_node5"><a xlink:href="classitk_1_1SmartPointer.html" target="_top" xlink:title=" ">
<polygon fill="white" stroke="black" points="99,-146.5 99,-176.5 206,-176.5 206,-146.5 99,-146.5"/>
<text text-anchor="start" x="107" y="-164.5" font-family="Helvetica,sans-Serif" font-size="10.00">itk::SmartPointer&lt;</text>
<text text-anchor="middle" x="152.5" y="-153.5" font-family="Helvetica,sans-Serif" font-size="10.00"> Self &gt;</text>
</a>
</g>
</g>
<!-- Node5&#45;&gt;Node2 -->
<g id="edge4" class="edge">
<title>Node5&#45;&gt;Node2</title>
<path fill="none" stroke="#9a32cd" stroke-dasharray="5,2" d="M142.22,-136.83C136.8,-124.35 130.33,-109.44 125.68,-98.73"/>
<polygon fill="#9a32cd" stroke="#9a32cd" points="139.1,-138.43 146.29,-146.2 145.52,-135.64 139.1,-138.43"/>
<text text-anchor="middle" x="180" y="-120" font-family="Helvetica,sans-Serif" font-size="10.00"> m_IsPointVisited</text>
</g>
</g>
</svg>
