<?xml version="1.0" encoding="UTF-8" standalone="no"?>
<!DOCTYPE svg PUBLIC "-//W3C//DTD SVG 1.1//EN"
 "http://www.w3.org/Graphics/SVG/1.1/DTD/svg11.dtd">
<!-- Generated by graphviz version 2.43.0 (0)
 -->
<!-- Title: itk::SparseImage&lt; TNode, VImageDimension &gt; Pages: 1 -->
<svg width="2193pt" height="496pt"
 viewBox="0.00 0.00 2193.00 496.00" xmlns="http://www.w3.org/2000/svg" xmlns:xlink="http://www.w3.org/1999/xlink">
<g id="graph0" class="graph" transform="scale(1 1) rotate(0) translate(4 492)">
<title>itk::SparseImage&lt; TNode, VImageDimension &gt;</title>
<polygon fill="white" stroke="transparent" points="-4,4 -4,-492 2189,-492 2189,4 -4,4"/>
<!-- Node1 -->
<g id="node1" class="node">
<title>Node1</title>
<g id="a_node1"><a xlink:title="A storage type for sparse image data.">
<polygon fill="#bfbfbf" stroke="black" points="2040,-112 2040,-142 2185,-142 2185,-112 2040,-112"/>
<text text-anchor="start" x="2048" y="-130" font-family="Helvetica,sans-Serif" font-size="10.00">itk::SparseImage&lt; TNode,</text>
<text text-anchor="middle" x="2112.5" y="-119" font-family="Helvetica,sans-Serif" font-size="10.00"> VImageDimension &gt;</text>
</a>
</g>
</g>
<!-- Node2 -->
<g id="node2" class="node">
<title>Node2</title>
<g id="a_node2"><a xlink:href="classitk_1_1Image.html" target="_top" xlink:title=" ">
<polygon fill="white" stroke="black" points="1863,-149.5 1863,-168.5 2003,-168.5 2003,-149.5 1863,-149.5"/>
<text text-anchor="middle" x="1933" y="-156.5" font-family="Helvetica,sans-Serif" font-size="10.00">itk::Image&lt; TNode *, 2 &gt;</text>
</a>
</g>
</g>
<!-- Node2&#45;&gt;Node1 -->
<g id="edge1" class="edge">
<title>Node2&#45;&gt;Node1</title>
<path fill="none" stroke="midnightblue" d="M1996.75,-147.69C2010.7,-145.17 2025.59,-142.49 2039.87,-139.91"/>
<polygon fill="midnightblue" stroke="midnightblue" points="1996,-144.27 1986.78,-149.49 1997.24,-151.16 1996,-144.27"/>
</g>
<!-- Node3 -->
<g id="node3" class="node">
<title>Node3</title>
<g id="a_node3"><a xlink:href="classitk_1_1ImageBase.html" target="_top" xlink:title="Base class for templated image classes.">
<polygon fill="white" stroke="black" points="1576,-158.5 1576,-177.5 1779,-177.5 1779,-158.5 1576,-158.5"/>
<text text-anchor="middle" x="1677.5" y="-165.5" font-family="Helvetica,sans-Serif" font-size="10.00">itk::ImageBase&lt; VImageDimension &gt;</text>
</a>
</g>
</g>
<!-- Node3&#45;&gt;Node2 -->
<g id="edge2" class="edge">
<title>Node3&#45;&gt;Node2</title>
<path fill="none" stroke="midnightblue" d="M1789.32,-164.07C1814.29,-163.18 1840.09,-162.26 1862.78,-161.46"/>
<polygon fill="midnightblue" stroke="midnightblue" points="1788.92,-160.58 1779.05,-164.43 1789.17,-167.57 1788.92,-160.58"/>
</g>
<!-- Node4 -->
<g id="node4" class="node">
<title>Node4</title>
<g id="a_node4"><a xlink:href="classitk_1_1DataObject.html" target="_top" xlink:title="Base class for all data objects in ITK.">
<polygon fill="white" stroke="black" points="1284.5,-268.5 1284.5,-287.5 1374.5,-287.5 1374.5,-268.5 1284.5,-268.5"/>
<text text-anchor="middle" x="1329.5" y="-275.5" font-family="Helvetica,sans-Serif" font-size="10.00">itk::DataObject</text>
</a>
</g>
</g>
<!-- Node4&#45;&gt;Node3 -->
<g id="edge3" class="edge">
<title>Node4&#45;&gt;Node3</title>
<path fill="none" stroke="midnightblue" d="M1384.6,-275.91C1431.71,-272.64 1501.17,-264.29 1558,-243 1600.86,-226.94 1644.68,-194.02 1664.93,-177.66"/>
<polygon fill="midnightblue" stroke="midnightblue" points="1384.36,-272.41 1374.61,-276.55 1384.81,-279.4 1384.36,-272.41"/>
</g>
<!-- Node5 -->
<g id="node5" class="node">
<title>Node5</title>
<g id="a_node5"><a xlink:href="classitk_1_1Object.html" target="_top" xlink:title="Base class for most ITK classes.">
<polygon fill="white" stroke="black" points="982.5,-406.5 982.5,-425.5 1049.5,-425.5 1049.5,-406.5 982.5,-406.5"/>
<text text-anchor="middle" x="1016" y="-413.5" font-family="Helvetica,sans-Serif" font-size="10.00">itk::Object</text>
</a>
</g>
</g>
<!-- Node5&#45;&gt;Node4 -->
<g id="edge4" class="edge">
<title>Node5&#45;&gt;Node4</title>
<path fill="none" stroke="midnightblue" d="M1059.78,-419.45C1104.13,-421.13 1174.2,-418.4 1227,-391 1274.28,-366.46 1310.14,-310.29 1323.17,-287.69"/>
<polygon fill="midnightblue" stroke="midnightblue" points="1059.79,-415.94 1049.64,-418.96 1059.46,-422.93 1059.79,-415.94"/>
</g>
<!-- Node6 -->
<g id="node6" class="node">
<title>Node6</title>
<g id="a_node6"><a xlink:href="classitk_1_1LightObject.html" target="_top" xlink:title="Light weight base class for most itk classes.">
<polygon fill="white" stroke="black" points="654.5,-467.5 654.5,-486.5 745.5,-486.5 745.5,-467.5 654.5,-467.5"/>
<text text-anchor="middle" x="700" y="-474.5" font-family="Helvetica,sans-Serif" font-size="10.00">itk::LightObject</text>
</a>
</g>
</g>
<!-- Node6&#45;&gt;Node5 -->
<g id="edge5" class="edge">
<title>Node6&#45;&gt;Node5</title>
<path fill="none" stroke="midnightblue" d="M755.51,-470.19C796.11,-464.73 852.78,-456.3 902,-446 929.42,-440.26 960.11,-431.99 982.58,-425.59"/>
<polygon fill="midnightblue" stroke="midnightblue" points="755.01,-466.73 745.55,-471.51 755.93,-473.67 755.01,-466.73"/>
</g>
<!-- Node7 -->
<g id="node7" class="node">
<title>Node7</title>
<g id="a_node7"><a xlink:title=" ">
<polygon fill="white" stroke="#bfbfbf" points="372,-467.5 372,-486.5 479,-486.5 479,-467.5 372,-467.5"/>
<text text-anchor="middle" x="425.5" y="-474.5" font-family="Helvetica,sans-Serif" font-size="10.00">std::atomic&lt; int &gt;</text>
</a>
</g>
</g>
<!-- Node7&#45;&gt;Node6 -->
<g id="edge6" class="edge">
<title>Node7&#45;&gt;Node6</title>
<path fill="none" stroke="#9a32cd" stroke-dasharray="5,2" d="M489.18,-477C539.64,-477 609.33,-477 654.29,-477"/>
<polygon fill="#9a32cd" stroke="#9a32cd" points="489.04,-473.5 479.04,-477 489.04,-480.5 489.04,-473.5"/>
<text text-anchor="middle" x="566.5" y="-480" font-family="Helvetica,sans-Serif" font-size="10.00"> m_ReferenceCount</text>
</g>
<!-- Node8 -->
<g id="node8" class="node">
<title>Node8</title>
<g id="a_node8"><a xlink:title="STL class.">
<polygon fill="white" stroke="#bfbfbf" points="667.5,-374.5 667.5,-393.5 732.5,-393.5 732.5,-374.5 667.5,-374.5"/>
<text text-anchor="middle" x="700" y="-381.5" font-family="Helvetica,sans-Serif" font-size="10.00">std::string</text>
</a>
</g>
</g>
<!-- Node8&#45;&gt;Node4 -->
<g id="edge19" class="edge">
<title>Node8&#45;&gt;Node4</title>
<path fill="none" stroke="#9a32cd" stroke-dasharray="5,2" d="M742.8,-380.04C783.49,-376.09 847.05,-369.66 902,-363 1047.43,-345.37 1085.23,-344.93 1227,-308 1251.01,-301.75 1277.92,-293.75 1298,-287.58"/>
<polygon fill="#9a32cd" stroke="#9a32cd" points="742.33,-376.57 732.72,-381.01 743.01,-383.54 742.33,-376.57"/>
<text text-anchor="middle" x="1016" y="-363" font-family="Helvetica,sans-Serif" font-size="10.00"> m_SourceOutputName</text>
</g>
<!-- Node8&#45;&gt;Node5 -->
<g id="edge7" class="edge">
<title>Node8&#45;&gt;Node5</title>
<path fill="none" stroke="#9a32cd" stroke-dasharray="5,2" d="M742.55,-388.23C805.68,-394.67 924.49,-406.78 982.06,-412.64"/>
<polygon fill="#9a32cd" stroke="#9a32cd" points="742.85,-384.75 732.55,-387.21 742.14,-391.71 742.85,-384.75"/>
<text text-anchor="middle" x="843.5" y="-406" font-family="Helvetica,sans-Serif" font-size="10.00"> m_ObjectName</text>
</g>
<!-- Node9 -->
<g id="node9" class="node">
<title>Node9</title>
<g id="a_node9"><a xlink:title="STL class.">
<polygon fill="white" stroke="#bfbfbf" points="373.5,-369 373.5,-399 477.5,-399 477.5,-369 373.5,-369"/>
<text text-anchor="start" x="381.5" y="-387" font-family="Helvetica,sans-Serif" font-size="10.00">std::basic_string&lt;</text>
<text text-anchor="middle" x="425.5" y="-376" font-family="Helvetica,sans-Serif" font-size="10.00"> char &gt;</text>
</a>
</g>
</g>
<!-- Node9&#45;&gt;Node8 -->
<g id="edge8" class="edge">
<title>Node9&#45;&gt;Node8</title>
<path fill="none" stroke="midnightblue" d="M487.85,-384C543.49,-384 623.3,-384 667.14,-384"/>
<polygon fill="midnightblue" stroke="midnightblue" points="487.76,-380.5 477.76,-384 487.76,-387.5 487.76,-380.5"/>
</g>
<!-- Node10 -->
<g id="node10" class="node">
<title>Node10</title>
<g id="a_node10"><a xlink:href="classitk_1_1MetaDataDictionary.html" target="_top" xlink:title="Provides a mechanism for storing a collection of arbitrary data types.">
<polygon fill="white" stroke="black" points="633,-427.5 633,-446.5 767,-446.5 767,-427.5 633,-427.5"/>
<text text-anchor="middle" x="700" y="-434.5" font-family="Helvetica,sans-Serif" font-size="10.00">itk::MetaDataDictionary</text>
</a>
</g>
</g>
<!-- Node10&#45;&gt;Node5 -->
<g id="edge9" class="edge">
<title>Node10&#45;&gt;Node5</title>
<path fill="none" stroke="#9a32cd" stroke-dasharray="5,2" d="M777.48,-431.89C842.93,-427.51 933.96,-421.42 982.11,-418.2"/>
<polygon fill="#9a32cd" stroke="#9a32cd" points="776.95,-428.41 767.21,-432.57 777.42,-435.4 776.95,-428.41"/>
<text text-anchor="middle" x="843.5" y="-434" font-family="Helvetica,sans-Serif" font-size="10.00"> m_MetaDataDictionary</text>
</g>
<!-- Node11 -->
<g id="node11" class="node">
<title>Node11</title>
<g id="a_node11"><a xlink:title=" ">
<polygon fill="white" stroke="#bfbfbf" points="351,-418 351,-448 500,-448 500,-418 351,-418"/>
<text text-anchor="start" x="359" y="-436" font-family="Helvetica,sans-Serif" font-size="10.00">std::shared_ptr&lt; MetaData</text>
<text text-anchor="middle" x="425.5" y="-425" font-family="Helvetica,sans-Serif" font-size="10.00">DictionaryMapType &gt;</text>
</a>
</g>
</g>
<!-- Node11&#45;&gt;Node10 -->
<g id="edge10" class="edge">
<title>Node11&#45;&gt;Node10</title>
<path fill="none" stroke="#9a32cd" stroke-dasharray="5,2" d="M510.34,-434.23C549.65,-434.81 595.82,-435.49 632.65,-436.03"/>
<polygon fill="#9a32cd" stroke="#9a32cd" points="510.29,-430.73 500.24,-434.08 510.19,-437.73 510.29,-430.73"/>
<text text-anchor="middle" x="566.5" y="-438" font-family="Helvetica,sans-Serif" font-size="10.00"> m_Dictionary</text>
</g>
<!-- Node12 -->
<g id="node12" class="node">
<title>Node12</title>
<g id="a_node12"><a xlink:title="STL class.">
<polygon fill="white" stroke="#bfbfbf" points="114,-421.5 114,-440.5 215,-440.5 215,-421.5 114,-421.5"/>
<text text-anchor="middle" x="164.5" y="-428.5" font-family="Helvetica,sans-Serif" font-size="10.00">std::map&lt; K, T &gt;</text>
</a>
</g>
</g>
<!-- Node12&#45;&gt;Node11 -->
<g id="edge11" class="edge">
<title>Node12&#45;&gt;Node11</title>
<path fill="none" stroke="#9a32cd" stroke-dasharray="5,2" d="M225.34,-431.46C262.61,-431.75 310.86,-432.12 350.52,-432.43"/>
<polygon fill="#9a32cd" stroke="#9a32cd" points="225.16,-427.96 215.13,-431.38 225.1,-434.96 225.16,-427.96"/>
<text text-anchor="middle" x="283" y="-435" font-family="Helvetica,sans-Serif" font-size="10.00"> ptr</text>
</g>
<!-- Node13 -->
<g id="node13" class="node">
<title>Node13</title>
<g id="a_node13"><a xlink:title=" ">
<polygon fill="white" stroke="#bfbfbf" points="0,-421.5 0,-440.5 29,-440.5 29,-421.5 0,-421.5"/>
<text text-anchor="middle" x="14.5" y="-428.5" font-family="Helvetica,sans-Serif" font-size="10.00">K</text>
</a>
</g>
</g>
<!-- Node13&#45;&gt;Node12 -->
<g id="edge12" class="edge">
<title>Node13&#45;&gt;Node12</title>
<path fill="none" stroke="#9a32cd" stroke-dasharray="5,2" d="M39.24,-431C59.28,-431 88.63,-431 113.78,-431"/>
<polygon fill="#9a32cd" stroke="#9a32cd" points="39.16,-427.5 29.16,-431 39.16,-434.5 39.16,-427.5"/>
<text text-anchor="middle" x="71.5" y="-434" font-family="Helvetica,sans-Serif" font-size="10.00"> keys</text>
</g>
<!-- Node14 -->
<g id="node14" class="node">
<title>Node14</title>
<g id="a_node14"><a xlink:title=" ">
<polygon fill="white" stroke="#bfbfbf" points="0,-368.5 0,-387.5 29,-387.5 29,-368.5 0,-368.5"/>
<text text-anchor="middle" x="14.5" y="-375.5" font-family="Helvetica,sans-Serif" font-size="10.00">T</text>
</a>
</g>
</g>
<!-- Node14&#45;&gt;Node12 -->
<g id="edge13" class="edge">
<title>Node14&#45;&gt;Node12</title>
<path fill="none" stroke="#9a32cd" stroke-dasharray="5,2" d="M38.78,-386.34C65.36,-395.85 108.76,-411.4 136.72,-421.41"/>
<polygon fill="#9a32cd" stroke="#9a32cd" points="39.75,-382.97 29.16,-382.89 37.39,-389.56 39.75,-382.97"/>
<text text-anchor="middle" x="71.5" y="-409" font-family="Helvetica,sans-Serif" font-size="10.00"> elements</text>
</g>
<!-- Node16 -->
<g id="node16" class="node">
<title>Node16</title>
<g id="a_node16"><a xlink:title="STL class.">
<polygon fill="white" stroke="#bfbfbf" points="233,-342.5 233,-361.5 333,-361.5 333,-342.5 233,-342.5"/>
<text text-anchor="middle" x="283" y="-349.5" font-family="Helvetica,sans-Serif" font-size="10.00">std::atomic&lt; T &gt;</text>
</a>
</g>
</g>
<!-- Node14&#45;&gt;Node16 -->
<g id="edge16" class="edge">
<title>Node14&#45;&gt;Node16</title>
<path fill="none" stroke="#9a32cd" stroke-dasharray="5,2" d="M39.45,-374.88C41.99,-374.57 44.55,-374.27 47,-374 111.15,-366.93 185.32,-360.23 232.89,-356.12"/>
<polygon fill="#9a32cd" stroke="#9a32cd" points="38.78,-371.43 29.29,-376.15 39.65,-378.38 38.78,-371.43"/>
<text text-anchor="middle" x="71.5" y="-377" font-family="Helvetica,sans-Serif" font-size="10.00"> ptr</text>
</g>
<!-- Node15 -->
<g id="node15" class="node">
<title>Node15</title>
<g id="a_node15"><a xlink:href="classitk_1_1TimeStamp.html" target="_top" xlink:title="Generate a unique, increasing time value.">
<polygon fill="white" stroke="black" points="654,-329.5 654,-348.5 746,-348.5 746,-329.5 654,-329.5"/>
<text text-anchor="middle" x="700" y="-336.5" font-family="Helvetica,sans-Serif" font-size="10.00">itk::TimeStamp</text>
</a>
</g>
</g>
<!-- Node15&#45;&gt;Node4 -->
<g id="edge20" class="edge">
<title>Node15&#45;&gt;Node4</title>
<path fill="none" stroke="#9a32cd" stroke-dasharray="5,2" d="M756.11,-334.32C851.92,-326.08 1055.4,-308.13 1227,-290 1245.79,-288.01 1266.52,-285.6 1284.31,-283.47"/>
<polygon fill="#9a32cd" stroke="#9a32cd" points="755.73,-330.84 746.07,-335.18 756.33,-337.81 755.73,-330.84"/>
<text text-anchor="middle" x="1016" y="-322" font-family="Helvetica,sans-Serif" font-size="10.00"> m_UpdateMTime</text>
</g>
<!-- Node15&#45;&gt;Node5 -->
<g id="edge14" class="edge">
<title>Node15&#45;&gt;Node5</title>
<path fill="none" stroke="#9a32cd" stroke-dasharray="5,2" d="M756.09,-341.92C797.84,-345.87 855.71,-355.16 902,-377 911.42,-381.44 910.72,-387.27 920,-392 939.55,-401.96 963.52,-407.98 982.49,-411.49"/>
<polygon fill="#9a32cd" stroke="#9a32cd" points="756.38,-338.43 746.11,-341.04 755.77,-345.4 756.38,-338.43"/>
<text text-anchor="middle" x="843.5" y="-380" font-family="Helvetica,sans-Serif" font-size="10.00"> m_MTime</text>
</g>
<!-- Node16&#45;&gt;Node15 -->
<g id="edge15" class="edge">
<title>Node16&#45;&gt;Node15</title>
<path fill="none" stroke="#9a32cd" stroke-dasharray="5,2" d="M343.23,-349.3C345.86,-349.19 348.45,-349.09 351,-349 459.72,-345 587.6,-341.68 653.94,-340.06"/>
<polygon fill="#9a32cd" stroke="#9a32cd" points="342.88,-345.81 333.03,-349.71 343.16,-352.8 342.88,-345.81"/>
<text text-anchor="middle" x="425.5" y="-352" font-family="Helvetica,sans-Serif" font-size="10.00"> m_GlobalTimeStamp</text>
</g>
<!-- Node17 -->
<g id="node17" class="node">
<title>Node17</title>
<g id="a_node17"><a xlink:href="classitk_1_1RealTimeStamp.html" target="_top" xlink:title="The RealTimeStamp is a data structure for representing time with high precision and a large dynamic r...">
<polygon fill="white" stroke="black" points="959.5,-262.5 959.5,-281.5 1072.5,-281.5 1072.5,-262.5 959.5,-262.5"/>
<text text-anchor="middle" x="1016" y="-269.5" font-family="Helvetica,sans-Serif" font-size="10.00">itk::RealTimeStamp</text>
</a>
</g>
</g>
<!-- Node17&#45;&gt;Node4 -->
<g id="edge17" class="edge">
<title>Node17&#45;&gt;Node4</title>
<path fill="none" stroke="#9a32cd" stroke-dasharray="5,2" d="M1082.93,-273.27C1143.57,-274.44 1231.82,-276.14 1284.36,-277.15"/>
<polygon fill="#9a32cd" stroke="#9a32cd" points="1082.76,-269.77 1072.69,-273.07 1082.62,-276.76 1082.76,-269.77"/>
<text text-anchor="middle" x="1178.5" y="-278" font-family="Helvetica,sans-Serif" font-size="10.00"> m_RealTimeStamp</text>
</g>
<!-- Node18 -->
<g id="node18" class="node">
<title>Node18</title>
<g id="a_node18"><a xlink:title=" ">
<polygon fill="white" stroke="#bfbfbf" points="672,-262.5 672,-281.5 728,-281.5 728,-262.5 672,-262.5"/>
<text text-anchor="middle" x="700" y="-269.5" font-family="Helvetica,sans-Serif" font-size="10.00">uint64_t</text>
</a>
</g>
</g>
<!-- Node18&#45;&gt;Node17 -->
<g id="edge18" class="edge">
<title>Node18&#45;&gt;Node17</title>
<path fill="none" stroke="#9a32cd" stroke-dasharray="5,2" d="M738.34,-272C793.14,-272 895.73,-272 959.41,-272"/>
<polygon fill="#9a32cd" stroke="#9a32cd" points="738.04,-268.5 728.04,-272 738.04,-275.5 738.04,-268.5"/>
<text text-anchor="middle" x="843.5" y="-286" font-family="Helvetica,sans-Serif" font-size="10.00"> m_Seconds</text>
<text text-anchor="middle" x="843.5" y="-275" font-family="Helvetica,sans-Serif" font-size="10.00">m_MicroSeconds</text>
</g>
<!-- Node19 -->
<g id="node19" class="node">
<title>Node19</title>
<g id="a_node19"><a xlink:href="classitk_1_1WeakPointer.html" target="_top" xlink:title=" ">
<polygon fill="white" stroke="black" points="955.5,-213 955.5,-243 1076.5,-243 1076.5,-213 955.5,-213"/>
<text text-anchor="start" x="963.5" y="-231" font-family="Helvetica,sans-Serif" font-size="10.00">itk::WeakPointer&lt; itk</text>
<text text-anchor="middle" x="1016" y="-220" font-family="Helvetica,sans-Serif" font-size="10.00">::ProcessObject &gt;</text>
</a>
</g>
</g>
<!-- Node19&#45;&gt;Node4 -->
<g id="edge21" class="edge">
<title>Node19&#45;&gt;Node4</title>
<path fill="none" stroke="#9a32cd" stroke-dasharray="5,2" d="M1086.97,-237.64C1127.86,-243.45 1180.42,-251.21 1227,-259 1245.83,-262.15 1266.56,-265.97 1284.35,-269.35"/>
<polygon fill="#9a32cd" stroke="#9a32cd" points="1087.23,-234.14 1076.84,-236.21 1086.25,-241.07 1087.23,-234.14"/>
<text text-anchor="middle" x="1178.5" y="-262" font-family="Helvetica,sans-Serif" font-size="10.00"> m_Source</text>
</g>
<!-- Node20 -->
<g id="node20" class="node">
<title>Node20</title>
<g id="a_node20"><a xlink:href="classitk_1_1Point.html" target="_top" xlink:title=" ">
<polygon fill="white" stroke="black" points="1245,-115.5 1245,-134.5 1414,-134.5 1414,-115.5 1245,-115.5"/>
<text text-anchor="middle" x="1329.5" y="-122.5" font-family="Helvetica,sans-Serif" font-size="10.00">itk::Point&lt; PointValueType, 2 &gt;</text>
</a>
</g>
</g>
<!-- Node20&#45;&gt;Node3 -->
<g id="edge22" class="edge">
<title>Node20&#45;&gt;Node3</title>
<path fill="none" stroke="#9a32cd" stroke-dasharray="5,2" d="M1417.22,-135.78C1473.4,-142.76 1545.88,-151.77 1599.93,-158.48"/>
<polygon fill="#9a32cd" stroke="#9a32cd" points="1417.64,-132.3 1407.29,-134.54 1416.78,-139.25 1417.64,-132.3"/>
<text text-anchor="middle" x="1495" y="-156" font-family="Helvetica,sans-Serif" font-size="10.00"> m_Origin</text>
</g>
<!-- Node21 -->
<g id="node21" class="node">
<title>Node21</title>
<g id="a_node21"><a xlink:href="classitk_1_1FixedArray.html" target="_top" xlink:title=" ">
<polygon fill="white" stroke="black" points="941,-115 941,-145 1091,-145 1091,-115 941,-115"/>
<text text-anchor="start" x="949" y="-133" font-family="Helvetica,sans-Serif" font-size="10.00">itk::FixedArray&lt; PointValue</text>
<text text-anchor="middle" x="1016" y="-122" font-family="Helvetica,sans-Serif" font-size="10.00">Type, VPointDimension &gt;</text>
</a>
</g>
</g>
<!-- Node21&#45;&gt;Node20 -->
<g id="edge23" class="edge">
<title>Node21&#45;&gt;Node20</title>
<path fill="none" stroke="midnightblue" d="M1101.44,-128.64C1146.02,-127.93 1200.53,-127.05 1244.97,-126.34"/>
<polygon fill="midnightblue" stroke="midnightblue" points="1101.16,-125.15 1091.22,-128.81 1101.27,-132.15 1101.16,-125.15"/>
</g>
<!-- Node22 -->
<g id="node22" class="node">
<title>Node22</title>
<g id="a_node22"><a xlink:title=" ">
<polygon fill="white" stroke="#bfbfbf" points="672,-143.5 672,-162.5 728,-162.5 728,-143.5 672,-143.5"/>
<text text-anchor="middle" x="700" y="-150.5" font-family="Helvetica,sans-Serif" font-size="10.00">VLength</text>
</a>
</g>
</g>
<!-- Node22&#45;&gt;Node21 -->
<g id="edge24" class="edge">
<title>Node22&#45;&gt;Node21</title>
<path fill="none" stroke="#9a32cd" stroke-dasharray="5,2" d="M738.24,-145.76C752.78,-143.2 769.61,-140.58 785,-139 836.88,-133.68 895.63,-131.45 940.77,-130.53"/>
<polygon fill="#9a32cd" stroke="#9a32cd" points="737.34,-142.36 728.12,-147.59 738.58,-149.25 737.34,-142.36"/>
<text text-anchor="middle" x="843.5" y="-142" font-family="Helvetica,sans-Serif" font-size="10.00"> m_InternalArray</text>
</g>
<!-- Node25 -->
<g id="node25" class="node">
<title>Node25</title>
<g id="a_node25"><a xlink:href="classitk_1_1FixedArray.html" target="_top" xlink:title=" ">
<polygon fill="white" stroke="black" points="929.5,-164 929.5,-194 1102.5,-194 1102.5,-164 929.5,-164"/>
<text text-anchor="start" x="937.5" y="-182" font-family="Helvetica,sans-Serif" font-size="10.00">itk::FixedArray&lt; Spacing</text>
<text text-anchor="middle" x="1016" y="-171" font-family="Helvetica,sans-Serif" font-size="10.00">ValueType, VVectorDimension &gt;</text>
</a>
</g>
</g>
<!-- Node22&#45;&gt;Node25 -->
<g id="edge28" class="edge">
<title>Node22&#45;&gt;Node25</title>
<path fill="none" stroke="#9a32cd" stroke-dasharray="5,2" d="M738.03,-156.07C784.8,-159.94 866.75,-166.72 929.41,-171.91"/>
<polygon fill="#9a32cd" stroke="#9a32cd" points="738.3,-152.58 728.04,-155.24 737.72,-159.55 738.3,-152.58"/>
<text text-anchor="middle" x="843.5" y="-173" font-family="Helvetica,sans-Serif" font-size="10.00"> m_InternalArray</text>
</g>
<!-- Node23 -->
<g id="node23" class="node">
<title>Node23</title>
<g id="a_node23"><a xlink:href="classitk_1_1Matrix.html" target="_top" xlink:title=" ">
<polygon fill="white" stroke="black" points="1253.5,-154 1253.5,-184 1405.5,-184 1405.5,-154 1253.5,-154"/>
<text text-anchor="start" x="1261.5" y="-172" font-family="Helvetica,sans-Serif" font-size="10.00">itk::Matrix&lt; SpacePrecision</text>
<text text-anchor="middle" x="1329.5" y="-161" font-family="Helvetica,sans-Serif" font-size="10.00">Type, 2, 2 &gt;</text>
</a>
</g>
</g>
<!-- Node23&#45;&gt;Node3 -->
<g id="edge25" class="edge">
<title>Node23&#45;&gt;Node3</title>
<path fill="none" stroke="#9a32cd" stroke-dasharray="5,2" d="M1415.72,-168.75C1464.19,-168.61 1525.16,-168.44 1575.96,-168.29"/>
<polygon fill="#9a32cd" stroke="#9a32cd" points="1415.57,-165.25 1405.58,-168.78 1415.59,-172.25 1415.57,-165.25"/>
<text text-anchor="middle" x="1495" y="-205" font-family="Helvetica,sans-Serif" font-size="10.00"> m_PhysicalPointToIndex</text>
<text text-anchor="middle" x="1495" y="-194" font-family="Helvetica,sans-Serif" font-size="10.00">m_IndexToPhysicalPoint</text>
<text text-anchor="middle" x="1495" y="-183" font-family="Helvetica,sans-Serif" font-size="10.00">m_Direction</text>
<text text-anchor="middle" x="1495" y="-172" font-family="Helvetica,sans-Serif" font-size="10.00">m_InverseDirection</text>
</g>
<!-- Node24 -->
<g id="node24" class="node">
<title>Node24</title>
<g id="a_node24"><a xlink:href="classitk_1_1Vector.html" target="_top" xlink:title=" ">
<polygon fill="white" stroke="black" points="1258,-216 1258,-246 1401,-246 1401,-216 1258,-216"/>
<text text-anchor="start" x="1266" y="-234" font-family="Helvetica,sans-Serif" font-size="10.00">itk::Vector&lt; SpacingValue</text>
<text text-anchor="middle" x="1329.5" y="-223" font-family="Helvetica,sans-Serif" font-size="10.00">Type, 2 &gt;</text>
</a>
</g>
</g>
<!-- Node24&#45;&gt;Node3 -->
<g id="edge26" class="edge">
<title>Node24&#45;&gt;Node3</title>
<path fill="none" stroke="#9a32cd" stroke-dasharray="5,2" d="M1411.26,-230.17C1455.12,-228.33 1510.03,-223.77 1558,-213 1593.86,-204.95 1633.36,-188.25 1656.49,-177.61"/>
<polygon fill="#9a32cd" stroke="#9a32cd" points="1411.08,-226.67 1401.22,-230.55 1411.34,-233.67 1411.08,-226.67"/>
<text text-anchor="middle" x="1495" y="-231" font-family="Helvetica,sans-Serif" font-size="10.00"> m_Spacing</text>
</g>
<!-- Node25&#45;&gt;Node24 -->
<g id="edge27" class="edge">
<title>Node25&#45;&gt;Node24</title>
<path fill="none" stroke="midnightblue" d="M1112.4,-194.93C1159.31,-202.76 1214.85,-212.03 1257.88,-219.21"/>
<polygon fill="midnightblue" stroke="midnightblue" points="1112.97,-191.47 1102.53,-193.28 1111.82,-198.38 1112.97,-191.47"/>
</g>
<!-- Node26 -->
<g id="node26" class="node">
<title>Node26</title>
<g id="a_node26"><a xlink:href="classitk_1_1ImageRegion.html" target="_top" xlink:title=" ">
<polygon fill="white" stroke="black" points="1265.5,-49.5 1265.5,-68.5 1393.5,-68.5 1393.5,-49.5 1265.5,-49.5"/>
<text text-anchor="middle" x="1329.5" y="-56.5" font-family="Helvetica,sans-Serif" font-size="10.00">itk::ImageRegion&lt; 2 &gt;</text>
</a>
</g>
</g>
<!-- Node26&#45;&gt;Node3 -->
<g id="edge29" class="edge">
<title>Node26&#45;&gt;Node3</title>
<path fill="none" stroke="#9a32cd" stroke-dasharray="5,2" d="M1403.71,-55.76C1452.17,-57.33 1514.56,-66.92 1558,-101 1573.34,-113.03 1561.16,-128.36 1576,-141 1585.29,-148.9 1596.66,-154.52 1608.38,-158.5"/>
<polygon fill="#9a32cd" stroke="#9a32cd" points="1403.67,-52.25 1393.59,-55.54 1403.51,-59.25 1403.67,-52.25"/>
<text text-anchor="middle" x="1495" y="-126" font-family="Helvetica,sans-Serif" font-size="10.00"> m_RequestedRegion</text>
<text text-anchor="middle" x="1495" y="-115" font-family="Helvetica,sans-Serif" font-size="10.00">m_BufferedRegion</text>
<text text-anchor="middle" x="1495" y="-104" font-family="Helvetica,sans-Serif" font-size="10.00">m_LargestPossibleRegion</text>
</g>
<!-- Node27 -->
<g id="node27" class="node">
<title>Node27</title>
<g id="a_node27"><a xlink:href="classitk_1_1Region.html" target="_top" xlink:title="A region represents some portion or piece of data.">
<polygon fill="white" stroke="black" points="981.5,-0.5 981.5,-19.5 1050.5,-19.5 1050.5,-0.5 981.5,-0.5"/>
<text text-anchor="middle" x="1016" y="-7.5" font-family="Helvetica,sans-Serif" font-size="10.00">itk::Region</text>
</a>
</g>
</g>
<!-- Node27&#45;&gt;Node26 -->
<g id="edge30" class="edge">
<title>Node27&#45;&gt;Node26</title>
<path fill="none" stroke="midnightblue" d="M1060.59,-16.86C1114.68,-25.37 1207.2,-39.92 1268.1,-49.5"/>
<polygon fill="midnightblue" stroke="midnightblue" points="1061.05,-13.39 1050.63,-15.29 1059.97,-20.3 1061.05,-13.39"/>
</g>
<!-- Node28 -->
<g id="node28" class="node">
<title>Node28</title>
<g id="a_node28"><a xlink:href="structitk_1_1Size.html" target="_top" xlink:title=" ">
<polygon fill="white" stroke="black" points="923.5,-76.5 923.5,-95.5 1108.5,-95.5 1108.5,-76.5 923.5,-76.5"/>
<text text-anchor="middle" x="1016" y="-83.5" font-family="Helvetica,sans-Serif" font-size="10.00">itk::Size&lt; Self::ImageDimension &gt;</text>
</a>
</g>
</g>
<!-- Node28&#45;&gt;Node26 -->
<g id="edge31" class="edge">
<title>Node28&#45;&gt;Node26</title>
<path fill="none" stroke="#9a32cd" stroke-dasharray="5,2" d="M1118.96,-77.16C1167.27,-72.98 1223.45,-68.11 1265.48,-64.46"/>
<polygon fill="#9a32cd" stroke="#9a32cd" points="1118.44,-73.69 1108.78,-78.05 1119.04,-80.67 1118.44,-73.69"/>
<text text-anchor="middle" x="1178.5" y="-79" font-family="Helvetica,sans-Serif" font-size="10.00"> m_Size</text>
</g>
<!-- Node29 -->
<g id="node29" class="node">
<title>Node29</title>
<g id="a_node29"><a xlink:href="structitk_1_1Index.html" target="_top" xlink:title=" ">
<polygon fill="white" stroke="black" points="920,-38.5 920,-57.5 1112,-57.5 1112,-38.5 920,-38.5"/>
<text text-anchor="middle" x="1016" y="-45.5" font-family="Helvetica,sans-Serif" font-size="10.00">itk::Index&lt; Self::ImageDimension &gt;</text>
</a>
</g>
</g>
<!-- Node29&#45;&gt;Node26 -->
<g id="edge32" class="edge">
<title>Node29&#45;&gt;Node26</title>
<path fill="none" stroke="#9a32cd" stroke-dasharray="5,2" d="M1122.41,-49.78C1155.86,-50.54 1192.99,-51.59 1227,-53 1239.43,-53.52 1252.72,-54.2 1265.44,-54.93"/>
<polygon fill="#9a32cd" stroke="#9a32cd" points="1122.23,-46.28 1112.15,-49.56 1122.07,-53.28 1122.23,-46.28"/>
<text text-anchor="middle" x="1178.5" y="-56" font-family="Helvetica,sans-Serif" font-size="10.00"> m_Index</text>
</g>
<!-- Node30 -->
<g id="node30" class="node">
<title>Node30</title>
<g id="a_node30"><a xlink:href="classitk_1_1SmartPointer.html" target="_top" xlink:title=" ">
<polygon fill="white" stroke="black" points="1624,-102 1624,-132 1731,-132 1731,-102 1624,-102"/>
<text text-anchor="start" x="1632" y="-120" font-family="Helvetica,sans-Serif" font-size="10.00">itk::SmartPointer&lt;</text>
<text text-anchor="middle" x="1677.5" y="-109" font-family="Helvetica,sans-Serif" font-size="10.00"> Self &gt;</text>
</a>
</g>
</g>
<!-- Node30&#45;&gt;Node1 -->
<g id="edge34" class="edge">
<title>Node30&#45;&gt;Node1</title>
<path fill="none" stroke="#9a32cd" stroke-dasharray="5,2" d="M1741.22,-115.71C1806.61,-114.72 1912.04,-114.09 2003,-118 2014.9,-118.51 2027.51,-119.32 2039.76,-120.24"/>
<polygon fill="#9a32cd" stroke="#9a32cd" points="1741.02,-112.22 1731.08,-115.88 1741.13,-119.22 1741.02,-112.22"/>
<text text-anchor="middle" x="1933" y="-132" font-family="Helvetica,sans-Serif" font-size="10.00"> m_NodeList</text>
<text text-anchor="middle" x="1933" y="-121" font-family="Helvetica,sans-Serif" font-size="10.00">m_NodeStore</text>
</g>
<!-- Node30&#45;&gt;Node2 -->
<g id="edge33" class="edge">
<title>Node30&#45;&gt;Node2</title>
<path fill="none" stroke="#9a32cd" stroke-dasharray="5,2" d="M1741.1,-127.37C1781.82,-134.12 1834.53,-142.85 1874.24,-149.43"/>
<polygon fill="#9a32cd" stroke="#9a32cd" points="1741.46,-123.88 1731.03,-125.7 1740.32,-130.79 1741.46,-123.88"/>
<text text-anchor="middle" x="1821" y="-148" font-family="Helvetica,sans-Serif" font-size="10.00"> m_Buffer</text>
</g>
</g>
</svg>
