<?xml version="1.0" encoding="UTF-8" standalone="no"?>
<!DOCTYPE svg PUBLIC "-//W3C//DTD SVG 1.1//EN"
 "http://www.w3.org/Graphics/SVG/1.1/DTD/svg11.dtd">
<!-- Generated by graphviz version 2.43.0 (0)
 -->
<!-- Title: itk::GaussianBlurImageFunction&lt; TInputImage, TOutput &gt; Pages: 1 -->
<svg width="2125pt" height="360pt"
 viewBox="0.00 0.00 2125.00 360.46" xmlns="http://www.w3.org/2000/svg" xmlns:xlink="http://www.w3.org/1999/xlink">
<g id="graph0" class="graph" transform="scale(1 1) rotate(0) translate(4 356.46)">
<title>itk::GaussianBlurImageFunction&lt; TInputImage, TOutput &gt;</title>
<polygon fill="white" stroke="transparent" points="-4,4 -4,-356.46 2121,-356.46 2121,4 -4,4"/>
<!-- Node1 -->
<g id="node1" class="node">
<title>Node1</title>
<g id="a_node1"><a xlink:title="Compute the convolution of a neighborhood operator with the image at a specific location in space,...">
<polygon fill="#bfbfbf" stroke="black" points="1945,-84.46 1945,-114.46 2117,-114.46 2117,-84.46 1945,-84.46"/>
<text text-anchor="start" x="1953" y="-102.46" font-family="Helvetica,sans-Serif" font-size="10.00">itk::GaussianBlurImageFunction</text>
<text text-anchor="middle" x="2031" y="-91.46" font-family="Helvetica,sans-Serif" font-size="10.00">&lt; TInputImage, TOutput &gt;</text>
</a>
</g>
</g>
<!-- Node2 -->
<g id="node2" class="node">
<title>Node2</title>
<g id="a_node2"><a xlink:href="classitk_1_1ImageFunction.html" target="_top" xlink:title=" ">
<polygon fill="white" stroke="black" points="1598,-164.46 1598,-194.46 1738,-194.46 1738,-164.46 1598,-164.46"/>
<text text-anchor="start" x="1606" y="-182.46" font-family="Helvetica,sans-Serif" font-size="10.00">itk::ImageFunction</text>
<text text-anchor="middle" x="1668" y="-171.46" font-family="Helvetica,sans-Serif" font-size="10.00">&lt; TInputImage, double &gt;</text>
</a>
</g>
</g>
<!-- Node2&#45;&gt;Node1 -->
<g id="edge1" class="edge">
<title>Node2&#45;&gt;Node1</title>
<path fill="none" stroke="midnightblue" d="M1748.26,-170.56C1799.72,-163.81 1867.96,-153 1927,-137.46 1949.86,-131.44 1974.74,-122.34 1994.32,-114.55"/>
<polygon fill="midnightblue" stroke="midnightblue" points="1747.67,-167.11 1738.2,-171.86 1748.56,-174.05 1747.67,-167.11"/>
</g>
<!-- Node3 -->
<g id="node3" class="node">
<title>Node3</title>
<g id="a_node3"><a xlink:href="classitk_1_1FunctionBase.html" target="_top" xlink:title=" ">
<polygon fill="white" stroke="black" points="1270.5,-224.96 1270.5,-265.96 1437.5,-265.96 1437.5,-224.96 1270.5,-224.96"/>
<text text-anchor="start" x="1278.5" y="-253.96" font-family="Helvetica,sans-Serif" font-size="10.00">itk::FunctionBase&lt;</text>
<text text-anchor="start" x="1278.5" y="-242.96" font-family="Helvetica,sans-Serif" font-size="10.00"> Point&lt; float, TInputImage</text>
<text text-anchor="middle" x="1354" y="-231.96" font-family="Helvetica,sans-Serif" font-size="10.00">::ImageDimension &gt;, double &gt;</text>
</a>
</g>
</g>
<!-- Node3&#45;&gt;Node2 -->
<g id="edge2" class="edge">
<title>Node3&#45;&gt;Node2</title>
<path fill="none" stroke="midnightblue" d="M1447.68,-231.43C1488.48,-224.63 1536.85,-215.7 1580,-205.46 1593.19,-202.32 1607.34,-198.36 1620.31,-194.48"/>
<polygon fill="midnightblue" stroke="midnightblue" points="1447.05,-227.99 1437.75,-233.07 1448.19,-234.9 1447.05,-227.99"/>
</g>
<!-- Node4 -->
<g id="node4" class="node">
<title>Node4</title>
<g id="a_node4"><a xlink:href="classitk_1_1Object.html" target="_top" xlink:title="Base class for most ITK classes.">
<polygon fill="white" stroke="black" points="1001,-246.96 1001,-265.96 1068,-265.96 1068,-246.96 1001,-246.96"/>
<text text-anchor="middle" x="1034.5" y="-253.96" font-family="Helvetica,sans-Serif" font-size="10.00">itk::Object</text>
</a>
</g>
</g>
<!-- Node4&#45;&gt;Node3 -->
<g id="edge3" class="edge">
<title>Node4&#45;&gt;Node3</title>
<path fill="none" stroke="midnightblue" d="M1078.54,-254.97C1127.63,-253.27 1209.01,-250.45 1270.44,-248.32"/>
<polygon fill="midnightblue" stroke="midnightblue" points="1078.16,-251.48 1068.28,-255.32 1078.4,-258.47 1078.16,-251.48"/>
</g>
<!-- Node5 -->
<g id="node5" class="node">
<title>Node5</title>
<g id="a_node5"><a xlink:href="classitk_1_1LightObject.html" target="_top" xlink:title="Light weight base class for most itk classes.">
<polygon fill="white" stroke="black" points="660.5,-329.96 660.5,-348.96 751.5,-348.96 751.5,-329.96 660.5,-329.96"/>
<text text-anchor="middle" x="706" y="-336.96" font-family="Helvetica,sans-Serif" font-size="10.00">itk::LightObject</text>
</a>
</g>
</g>
<!-- Node5&#45;&gt;Node4 -->
<g id="edge4" class="edge">
<title>Node5&#45;&gt;Node4</title>
<path fill="none" stroke="midnightblue" d="M761.93,-338.48C813.9,-336.02 893.35,-328.23 958,-304.46 982.78,-295.34 1007.94,-277.17 1022.05,-265.98"/>
<polygon fill="midnightblue" stroke="midnightblue" points="761.76,-334.98 751.91,-338.9 762.05,-341.98 761.76,-334.98"/>
</g>
<!-- Node6 -->
<g id="node6" class="node">
<title>Node6</title>
<g id="a_node6"><a xlink:title=" ">
<polygon fill="white" stroke="#bfbfbf" points="378,-332.96 378,-351.96 485,-351.96 485,-332.96 378,-332.96"/>
<text text-anchor="middle" x="431.5" y="-339.96" font-family="Helvetica,sans-Serif" font-size="10.00">std::atomic&lt; int &gt;</text>
</a>
</g>
</g>
<!-- Node6&#45;&gt;Node5 -->
<g id="edge5" class="edge">
<title>Node6&#45;&gt;Node5</title>
<path fill="none" stroke="#9a32cd" stroke-dasharray="5,2" d="M495.18,-341.77C545.64,-341.21 615.33,-340.44 660.29,-339.95"/>
<polygon fill="#9a32cd" stroke="#9a32cd" points="495,-338.27 485.04,-341.88 495.08,-345.27 495,-338.27"/>
<text text-anchor="middle" x="572.5" y="-343.46" font-family="Helvetica,sans-Serif" font-size="10.00"> m_ReferenceCount</text>
</g>
<!-- Node7 -->
<g id="node7" class="node">
<title>Node7</title>
<g id="a_node7"><a xlink:title="STL class.">
<polygon fill="white" stroke="#bfbfbf" points="673.5,-287.96 673.5,-306.96 738.5,-306.96 738.5,-287.96 673.5,-287.96"/>
<text text-anchor="middle" x="706" y="-294.96" font-family="Helvetica,sans-Serif" font-size="10.00">std::string</text>
</a>
</g>
</g>
<!-- Node7&#45;&gt;Node4 -->
<g id="edge6" class="edge">
<title>Node7&#45;&gt;Node4</title>
<path fill="none" stroke="#9a32cd" stroke-dasharray="5,2" d="M748.91,-294.31C798.87,-290.29 884.8,-282.5 958,-271.46 972.14,-269.33 987.65,-266.35 1000.91,-263.62"/>
<polygon fill="#9a32cd" stroke="#9a32cd" points="748.51,-290.83 738.82,-295.11 749.06,-297.81 748.51,-290.83"/>
<text text-anchor="middle" x="874.5" y="-292.46" font-family="Helvetica,sans-Serif" font-size="10.00"> m_ObjectName</text>
</g>
<!-- Node8 -->
<g id="node8" class="node">
<title>Node8</title>
<g id="a_node8"><a xlink:title="STL class.">
<polygon fill="white" stroke="#bfbfbf" points="379.5,-283.46 379.5,-313.46 483.5,-313.46 483.5,-283.46 379.5,-283.46"/>
<text text-anchor="start" x="387.5" y="-301.46" font-family="Helvetica,sans-Serif" font-size="10.00">std::basic_string&lt;</text>
<text text-anchor="middle" x="431.5" y="-290.46" font-family="Helvetica,sans-Serif" font-size="10.00"> char &gt;</text>
</a>
</g>
</g>
<!-- Node8&#45;&gt;Node7 -->
<g id="edge7" class="edge">
<title>Node8&#45;&gt;Node7</title>
<path fill="none" stroke="midnightblue" d="M493.85,-298.23C549.49,-298.03 629.3,-297.74 673.14,-297.57"/>
<polygon fill="midnightblue" stroke="midnightblue" points="493.74,-294.73 483.76,-298.27 493.77,-301.73 493.74,-294.73"/>
</g>
<!-- Node9 -->
<g id="node9" class="node">
<title>Node9</title>
<g id="a_node9"><a xlink:href="classitk_1_1MetaDataDictionary.html" target="_top" xlink:title="Provides a mechanism for storing a collection of arbitrary data types.">
<polygon fill="white" stroke="black" points="639,-246.96 639,-265.96 773,-265.96 773,-246.96 639,-246.96"/>
<text text-anchor="middle" x="706" y="-253.96" font-family="Helvetica,sans-Serif" font-size="10.00">itk::MetaDataDictionary</text>
</a>
</g>
</g>
<!-- Node9&#45;&gt;Node4 -->
<g id="edge8" class="edge">
<title>Node9&#45;&gt;Node4</title>
<path fill="none" stroke="#9a32cd" stroke-dasharray="5,2" d="M783.45,-256.46C852.4,-256.46 950.47,-256.46 1000.85,-256.46"/>
<polygon fill="#9a32cd" stroke="#9a32cd" points="783.07,-252.96 773.07,-256.46 783.07,-259.96 783.07,-252.96"/>
<text text-anchor="middle" x="874.5" y="-259.46" font-family="Helvetica,sans-Serif" font-size="10.00"> m_MetaDataDictionary</text>
</g>
<!-- Node10 -->
<g id="node10" class="node">
<title>Node10</title>
<g id="a_node10"><a xlink:title=" ">
<polygon fill="white" stroke="#bfbfbf" points="357,-234.46 357,-264.46 506,-264.46 506,-234.46 357,-234.46"/>
<text text-anchor="start" x="365" y="-252.46" font-family="Helvetica,sans-Serif" font-size="10.00">std::shared_ptr&lt; MetaData</text>
<text text-anchor="middle" x="431.5" y="-241.46" font-family="Helvetica,sans-Serif" font-size="10.00">DictionaryMapType &gt;</text>
</a>
</g>
</g>
<!-- Node10&#45;&gt;Node9 -->
<g id="edge9" class="edge">
<title>Node10&#45;&gt;Node9</title>
<path fill="none" stroke="#9a32cd" stroke-dasharray="5,2" d="M516.34,-251.61C555.65,-252.62 601.82,-253.81 638.65,-254.75"/>
<polygon fill="#9a32cd" stroke="#9a32cd" points="516.33,-248.11 506.24,-251.35 516.15,-255.11 516.33,-248.11"/>
<text text-anchor="middle" x="572.5" y="-256.46" font-family="Helvetica,sans-Serif" font-size="10.00"> m_Dictionary</text>
</g>
<!-- Node11 -->
<g id="node11" class="node">
<title>Node11</title>
<g id="a_node11"><a xlink:title="STL class.">
<polygon fill="white" stroke="#bfbfbf" points="114,-239.96 114,-258.96 215,-258.96 215,-239.96 114,-239.96"/>
<text text-anchor="middle" x="164.5" y="-246.96" font-family="Helvetica,sans-Serif" font-size="10.00">std::map&lt; K, T &gt;</text>
</a>
</g>
</g>
<!-- Node11&#45;&gt;Node10 -->
<g id="edge10" class="edge">
<title>Node11&#45;&gt;Node10</title>
<path fill="none" stroke="#9a32cd" stroke-dasharray="5,2" d="M225.18,-249.46C264.19,-249.46 315.41,-249.46 356.93,-249.46"/>
<polygon fill="#9a32cd" stroke="#9a32cd" points="225.03,-245.96 215.03,-249.46 225.03,-252.96 225.03,-245.96"/>
<text text-anchor="middle" x="286" y="-252.46" font-family="Helvetica,sans-Serif" font-size="10.00"> ptr</text>
</g>
<!-- Node12 -->
<g id="node12" class="node">
<title>Node12</title>
<g id="a_node12"><a xlink:title=" ">
<polygon fill="white" stroke="#bfbfbf" points="0,-263.96 0,-282.96 29,-282.96 29,-263.96 0,-263.96"/>
<text text-anchor="middle" x="14.5" y="-270.96" font-family="Helvetica,sans-Serif" font-size="10.00">K</text>
</a>
</g>
</g>
<!-- Node12&#45;&gt;Node11 -->
<g id="edge11" class="edge">
<title>Node12&#45;&gt;Node11</title>
<path fill="none" stroke="#9a32cd" stroke-dasharray="5,2" d="M39.24,-269.61C59.28,-266.36 88.63,-261.6 113.78,-257.52"/>
<polygon fill="#9a32cd" stroke="#9a32cd" points="38.47,-266.19 29.16,-271.24 39.59,-273.1 38.47,-266.19"/>
<text text-anchor="middle" x="71.5" y="-270.46" font-family="Helvetica,sans-Serif" font-size="10.00"> keys</text>
</g>
<!-- Node13 -->
<g id="node13" class="node">
<title>Node13</title>
<g id="a_node13"><a xlink:title=" ">
<polygon fill="white" stroke="#bfbfbf" points="0,-210.96 0,-229.96 29,-229.96 29,-210.96 0,-210.96"/>
<text text-anchor="middle" x="14.5" y="-217.96" font-family="Helvetica,sans-Serif" font-size="10.00">T</text>
</a>
</g>
</g>
<!-- Node13&#45;&gt;Node11 -->
<g id="edge12" class="edge">
<title>Node13&#45;&gt;Node11</title>
<path fill="none" stroke="#9a32cd" stroke-dasharray="5,2" d="M39.09,-225.08C59.39,-229.06 89.35,-234.93 114.78,-239.91"/>
<polygon fill="#9a32cd" stroke="#9a32cd" points="39.64,-221.62 29.16,-223.13 38.3,-228.49 39.64,-221.62"/>
<text text-anchor="middle" x="71.5" y="-238.46" font-family="Helvetica,sans-Serif" font-size="10.00"> elements</text>
</g>
<!-- Node15 -->
<g id="node15" class="node">
<title>Node15</title>
<g id="a_node15"><a xlink:title="STL class.">
<polygon fill="white" stroke="#bfbfbf" points="114.5,-195.96 114.5,-214.96 214.5,-214.96 214.5,-195.96 114.5,-195.96"/>
<text text-anchor="middle" x="164.5" y="-202.96" font-family="Helvetica,sans-Serif" font-size="10.00">std::atomic&lt; T &gt;</text>
</a>
</g>
</g>
<!-- Node13&#45;&gt;Node15 -->
<g id="edge15" class="edge">
<title>Node13&#45;&gt;Node15</title>
<path fill="none" stroke="#9a32cd" stroke-dasharray="5,2" d="M38.4,-209C41.24,-207.97 44.15,-207.08 47,-206.46 68.74,-201.75 93.31,-200.9 114.26,-201.46"/>
<polygon fill="#9a32cd" stroke="#9a32cd" points="37.03,-205.78 29.19,-212.91 39.77,-212.22 37.03,-205.78"/>
<text text-anchor="middle" x="71.5" y="-209.46" font-family="Helvetica,sans-Serif" font-size="10.00"> ptr</text>
</g>
<!-- Node14 -->
<g id="node14" class="node">
<title>Node14</title>
<g id="a_node14"><a xlink:href="classitk_1_1TimeStamp.html" target="_top" xlink:title="Generate a unique, increasing time value.">
<polygon fill="white" stroke="black" points="526.5,-199.96 526.5,-218.96 618.5,-218.96 618.5,-199.96 526.5,-199.96"/>
<text text-anchor="middle" x="572.5" y="-206.96" font-family="Helvetica,sans-Serif" font-size="10.00">itk::TimeStamp</text>
</a>
</g>
</g>
<!-- Node14&#45;&gt;Node4 -->
<g id="edge13" class="edge">
<title>Node14&#45;&gt;Node4</title>
<path fill="none" stroke="#9a32cd" stroke-dasharray="5,2" d="M628.8,-213.73C668.86,-216.93 724.32,-221.58 773,-226.46 854.99,-234.67 951.26,-246.27 1000.64,-252.36"/>
<polygon fill="#9a32cd" stroke="#9a32cd" points="628.94,-210.23 618.7,-212.92 628.39,-217.21 628.94,-210.23"/>
<text text-anchor="middle" x="706" y="-229.46" font-family="Helvetica,sans-Serif" font-size="10.00"> m_MTime</text>
</g>
<!-- Node15&#45;&gt;Node14 -->
<g id="edge14" class="edge">
<title>Node15&#45;&gt;Node14</title>
<path fill="none" stroke="#9a32cd" stroke-dasharray="5,2" d="M225.03,-206.04C306.93,-206.85 452.57,-208.29 526.2,-209.01"/>
<polygon fill="#9a32cd" stroke="#9a32cd" points="224.91,-202.54 214.88,-205.94 224.84,-209.54 224.91,-202.54"/>
<text text-anchor="middle" x="286" y="-209.46" font-family="Helvetica,sans-Serif" font-size="10.00"> m_GlobalTimeStamp</text>
</g>
<!-- Node16 -->
<g id="node16" class="node">
<title>Node16</title>
<g id="a_node16"><a xlink:href="classitk_1_1ContinuousIndex.html" target="_top" xlink:title=" ">
<polygon fill="white" stroke="black" points="1267,-164.46 1267,-194.46 1441,-194.46 1441,-164.46 1267,-164.46"/>
<text text-anchor="start" x="1275" y="-182.46" font-family="Helvetica,sans-Serif" font-size="10.00">itk::ContinuousIndex</text>
<text text-anchor="middle" x="1354" y="-171.46" font-family="Helvetica,sans-Serif" font-size="10.00">&lt; float, Self::ImageDimension &gt;</text>
</a>
</g>
</g>
<!-- Node16&#45;&gt;Node2 -->
<g id="edge16" class="edge">
<title>Node16&#45;&gt;Node2</title>
<path fill="none" stroke="#9a32cd" stroke-dasharray="5,2" d="M1451.37,-179.46C1498.8,-179.46 1554.89,-179.46 1597.97,-179.46"/>
<polygon fill="#9a32cd" stroke="#9a32cd" points="1451.08,-175.96 1441.08,-179.46 1451.08,-182.96 1451.08,-175.96"/>
<text text-anchor="middle" x="1519.5" y="-193.46" font-family="Helvetica,sans-Serif" font-size="10.00"> m_EndContinuousIndex</text>
<text text-anchor="middle" x="1519.5" y="-182.46" font-family="Helvetica,sans-Serif" font-size="10.00">m_StartContinuousIndex</text>
</g>
<!-- Node17 -->
<g id="node17" class="node">
<title>Node17</title>
<g id="a_node17"><a xlink:href="classitk_1_1Point.html" target="_top" xlink:title=" ">
<polygon fill="white" stroke="black" points="976,-155.46 976,-185.46 1093,-185.46 1093,-155.46 976,-155.46"/>
<text text-anchor="start" x="984" y="-173.46" font-family="Helvetica,sans-Serif" font-size="10.00">itk::Point&lt; float,</text>
<text text-anchor="middle" x="1034.5" y="-162.46" font-family="Helvetica,sans-Serif" font-size="10.00"> VIndexDimension &gt;</text>
</a>
</g>
</g>
<!-- Node17&#45;&gt;Node16 -->
<g id="edge17" class="edge">
<title>Node17&#45;&gt;Node16</title>
<path fill="none" stroke="midnightblue" d="M1103.59,-172.39C1151.32,-173.74 1215.5,-175.56 1266.8,-177.01"/>
<polygon fill="midnightblue" stroke="midnightblue" points="1103.46,-168.88 1093.37,-172.1 1103.26,-175.88 1103.46,-168.88"/>
</g>
<!-- Node18 -->
<g id="node18" class="node">
<title>Node18</title>
<g id="a_node18"><a xlink:href="classitk_1_1FixedArray.html" target="_top" xlink:title=" ">
<polygon fill="white" stroke="black" points="644.5,-150.46 644.5,-180.46 767.5,-180.46 767.5,-150.46 644.5,-150.46"/>
<text text-anchor="start" x="652.5" y="-168.46" font-family="Helvetica,sans-Serif" font-size="10.00">itk::FixedArray&lt; float,</text>
<text text-anchor="middle" x="706" y="-157.46" font-family="Helvetica,sans-Serif" font-size="10.00"> VPointDimension &gt;</text>
</a>
</g>
</g>
<!-- Node18&#45;&gt;Node17 -->
<g id="edge18" class="edge">
<title>Node18&#45;&gt;Node17</title>
<path fill="none" stroke="midnightblue" d="M777.68,-166.54C836.99,-167.45 920.63,-168.73 975.92,-169.58"/>
<polygon fill="midnightblue" stroke="midnightblue" points="777.7,-163.04 767.65,-166.39 777.59,-170.04 777.7,-163.04"/>
</g>
<!-- Node19 -->
<g id="node19" class="node">
<title>Node19</title>
<g id="a_node19"><a xlink:title=" ">
<polygon fill="white" stroke="#bfbfbf" points="403.5,-111.96 403.5,-130.96 459.5,-130.96 459.5,-111.96 403.5,-111.96"/>
<text text-anchor="middle" x="431.5" y="-118.96" font-family="Helvetica,sans-Serif" font-size="10.00">VLength</text>
</a>
</g>
</g>
<!-- Node19&#45;&gt;Node18 -->
<g id="edge19" class="edge">
<title>Node19&#45;&gt;Node18</title>
<path fill="none" stroke="#9a32cd" stroke-dasharray="5,2" d="M469.61,-127.57C486.24,-130.31 506.1,-133.56 524,-136.46 564.05,-142.95 609.11,-150.17 644.24,-155.78"/>
<polygon fill="#9a32cd" stroke="#9a32cd" points="470.16,-124.12 459.72,-125.95 469.02,-131.02 470.16,-124.12"/>
<text text-anchor="middle" x="572.5" y="-154.46" font-family="Helvetica,sans-Serif" font-size="10.00"> m_InternalArray</text>
</g>
<!-- Node20 -->
<g id="node20" class="node">
<title>Node20</title>
<g id="a_node20"><a xlink:href="classitk_1_1FixedArray.html" target="_top" xlink:title=" ">
<polygon fill="white" stroke="black" points="791,-107.46 791,-137.46 958,-137.46 958,-107.46 791,-107.46"/>
<text text-anchor="start" x="799" y="-125.46" font-family="Helvetica,sans-Serif" font-size="10.00">itk::FixedArray&lt; Neighborhood</text>
<text text-anchor="middle" x="874.5" y="-114.46" font-family="Helvetica,sans-Serif" font-size="10.00">Type, Self::ImageDimension &gt;</text>
</a>
</g>
</g>
<!-- Node19&#45;&gt;Node20 -->
<g id="edge21" class="edge">
<title>Node19&#45;&gt;Node20</title>
<path fill="none" stroke="#9a32cd" stroke-dasharray="5,2" d="M469.76,-121.41C507.78,-121.38 568.5,-121.35 621,-121.46 677.66,-121.57 741.47,-121.82 790.77,-122.05"/>
<polygon fill="#9a32cd" stroke="#9a32cd" points="469.65,-117.91 459.66,-121.42 469.66,-124.91 469.65,-117.91"/>
<text text-anchor="middle" x="572.5" y="-124.46" font-family="Helvetica,sans-Serif" font-size="10.00"> m_InternalArray</text>
</g>
<!-- Node22 -->
<g id="node22" class="node">
<title>Node22</title>
<g id="a_node22"><a xlink:href="classitk_1_1FixedArray.html" target="_top" xlink:title=" ">
<polygon fill="white" stroke="black" points="1111,-64.46 1111,-94.46 1249,-94.46 1249,-64.46 1111,-64.46"/>
<text text-anchor="start" x="1119" y="-82.46" font-family="Helvetica,sans-Serif" font-size="10.00">itk::FixedArray&lt; double,</text>
<text text-anchor="middle" x="1180" y="-71.46" font-family="Helvetica,sans-Serif" font-size="10.00"> Self::ImageDimension &gt;</text>
</a>
</g>
</g>
<!-- Node19&#45;&gt;Node22 -->
<g id="edge24" class="edge">
<title>Node19&#45;&gt;Node22</title>
<path fill="none" stroke="#9a32cd" stroke-dasharray="5,2" d="M469.69,-118.53C511.03,-115.33 579.76,-110.17 639,-106.46 808.57,-95.84 1008.3,-86.74 1110.77,-82.32"/>
<polygon fill="#9a32cd" stroke="#9a32cd" points="469.25,-115.06 459.55,-119.32 469.79,-122.03 469.25,-115.06"/>
<text text-anchor="middle" x="706" y="-109.46" font-family="Helvetica,sans-Serif" font-size="10.00"> m_InternalArray</text>
</g>
<!-- Node20&#45;&gt;Node1 -->
<g id="edge20" class="edge">
<title>Node20&#45;&gt;Node1</title>
<path fill="none" stroke="#9a32cd" stroke-dasharray="5,2" d="M968.48,-122.92C1028.55,-123.18 1108.39,-123.46 1179,-123.46 1179,-123.46 1179,-123.46 1669,-123.46 1763.53,-123.46 1871.68,-115.16 1944.77,-108.33"/>
<polygon fill="#9a32cd" stroke="#9a32cd" points="968.28,-119.42 958.26,-122.88 968.25,-126.42 968.28,-119.42"/>
<text text-anchor="middle" x="1354" y="-137.46" font-family="Helvetica,sans-Serif" font-size="10.00"> m_ContinuousOperatorArray</text>
<text text-anchor="middle" x="1354" y="-126.46" font-family="Helvetica,sans-Serif" font-size="10.00">m_OperatorArray</text>
</g>
<!-- Node21 -->
<g id="node21" class="node">
<title>Node21</title>
<g id="a_node21"><a xlink:href="classitk_1_1SmartPointer.html" target="_top" xlink:title=" ">
<polygon fill="white" stroke="black" points="1614.5,-1.46 1614.5,-31.46 1721.5,-31.46 1721.5,-1.46 1614.5,-1.46"/>
<text text-anchor="start" x="1622.5" y="-19.46" font-family="Helvetica,sans-Serif" font-size="10.00">itk::SmartPointer&lt;</text>
<text text-anchor="middle" x="1668" y="-8.46" font-family="Helvetica,sans-Serif" font-size="10.00"> Self &gt;</text>
</a>
</g>
</g>
<!-- Node21&#45;&gt;Node1 -->
<g id="edge22" class="edge">
<title>Node21&#45;&gt;Node1</title>
<path fill="none" stroke="#9a32cd" stroke-dasharray="5,2" d="M1731.63,-5.47C1785.12,1.31 1863.29,4.95 1927,-17.46 1964.95,-30.8 1999.4,-64.56 2017.23,-84.35"/>
<polygon fill="#9a32cd" stroke="#9a32cd" points="1731.06,-2.02 1721.61,-6.81 1731.99,-8.96 1731.06,-2.02"/>
<text text-anchor="middle" x="1841.5" y="-53.46" font-family="Helvetica,sans-Serif" font-size="10.00"> m_OperatorInternalImageFunction</text>
<text text-anchor="middle" x="1841.5" y="-42.46" font-family="Helvetica,sans-Serif" font-size="10.00">m_OperatorImageFunction</text>
<text text-anchor="middle" x="1841.5" y="-31.46" font-family="Helvetica,sans-Serif" font-size="10.00">m_InternalImage</text>
<text text-anchor="middle" x="1841.5" y="-20.46" font-family="Helvetica,sans-Serif" font-size="10.00">m_GaussianFunction</text>
</g>
<!-- Node22&#45;&gt;Node1 -->
<g id="edge23" class="edge">
<title>Node22&#45;&gt;Node1</title>
<path fill="none" stroke="#9a32cd" stroke-dasharray="5,2" d="M1259.41,-78.39C1315.1,-77.68 1391.64,-76.82 1459,-76.46 1512.78,-76.17 1526.24,-75.08 1580,-76.46 1707.08,-79.7 1854.14,-88.1 1944.62,-93.79"/>
<polygon fill="#9a32cd" stroke="#9a32cd" points="1259.22,-74.89 1249.26,-78.52 1259.31,-81.89 1259.22,-74.89"/>
<text text-anchor="middle" x="1519.5" y="-101.46" font-family="Helvetica,sans-Serif" font-size="10.00"> m_MaximumError</text>
<text text-anchor="middle" x="1519.5" y="-90.46" font-family="Helvetica,sans-Serif" font-size="10.00">m_Sigma</text>
<text text-anchor="middle" x="1519.5" y="-79.46" font-family="Helvetica,sans-Serif" font-size="10.00">m_Extent</text>
</g>
</g>
</svg>
