<?xml version="1.0" encoding="UTF-8" standalone="no"?>
<!DOCTYPE svg PUBLIC "-//W3C//DTD SVG 1.1//EN"
 "http://www.w3.org/Graphics/SVG/1.1/DTD/svg11.dtd">
<!-- Generated by graphviz version 2.43.0 (0)
 -->
<!-- Title: itk::SimplexMeshToTriangleMeshFilter&lt; TInputMesh, TOutputMesh &gt; Pages: 1 -->
<svg width="2016pt" height="439pt"
 viewBox="0.00 0.00 2016.00 439.43" xmlns="http://www.w3.org/2000/svg" xmlns:xlink="http://www.w3.org/1999/xlink">
<g id="graph0" class="graph" transform="scale(1 1) rotate(0) translate(4 435.43)">
<title>itk::SimplexMeshToTriangleMeshFilter&lt; TInputMesh, TOutputMesh &gt;</title>
<polygon fill="white" stroke="transparent" points="-4,4 -4,-435.43 2012,-435.43 2012,4 -4,4"/>
<!-- Node1 -->
<g id="node1" class="node">
<title>Node1</title>
<g id="a_node1"><a xlink:title="This filter converts a 2&#45;simplex mesh into a triangle mesh.">
<polygon fill="#bfbfbf" stroke="black" points="1858,-377.93 1858,-418.93 2008,-418.93 2008,-377.93 1858,-377.93"/>
<text text-anchor="start" x="1866" y="-406.93" font-family="Helvetica,sans-Serif" font-size="10.00">itk::SimplexMeshToTriangle</text>
<text text-anchor="start" x="1866" y="-395.93" font-family="Helvetica,sans-Serif" font-size="10.00">MeshFilter&lt; TInputMesh,</text>
<text text-anchor="middle" x="1933" y="-384.93" font-family="Helvetica,sans-Serif" font-size="10.00"> TOutputMesh &gt;</text>
</a>
</g>
</g>
<!-- Node2 -->
<g id="node2" class="node">
<title>Node2</title>
<g id="a_node2"><a xlink:href="classitk_1_1MeshToMeshFilter.html" target="_top" xlink:title="MeshToMeshFilter is the base class for all process objects that output mesh data, and require mesh da...">
<polygon fill="white" stroke="black" points="1654,-352.43 1654,-382.43 1821,-382.43 1821,-352.43 1654,-352.43"/>
<text text-anchor="start" x="1662" y="-370.43" font-family="Helvetica,sans-Serif" font-size="10.00">itk::MeshToMeshFilter</text>
<text text-anchor="middle" x="1737.5" y="-359.43" font-family="Helvetica,sans-Serif" font-size="10.00">&lt; TInputMesh, TOutputMesh &gt;</text>
</a>
</g>
</g>
<!-- Node2&#45;&gt;Node1 -->
<g id="edge1" class="edge">
<title>Node2&#45;&gt;Node1</title>
<path fill="none" stroke="midnightblue" d="M1831.2,-382.28C1840.16,-383.72 1849.17,-385.16 1857.91,-386.56"/>
<polygon fill="midnightblue" stroke="midnightblue" points="1831.55,-378.8 1821.12,-380.67 1830.44,-385.71 1831.55,-378.8"/>
</g>
<!-- Node3 -->
<g id="node3" class="node">
<title>Node3</title>
<g id="a_node3"><a xlink:href="classitk_1_1MeshSource.html" target="_top" xlink:title="Base class for all process objects that output mesh data.">
<polygon fill="white" stroke="black" points="1472,-297.43 1472,-327.43 1617,-327.43 1617,-297.43 1472,-297.43"/>
<text text-anchor="start" x="1480" y="-315.43" font-family="Helvetica,sans-Serif" font-size="10.00">itk::MeshSource&lt; TOutput</text>
<text text-anchor="middle" x="1544.5" y="-304.43" font-family="Helvetica,sans-Serif" font-size="10.00">Mesh &gt;</text>
</a>
</g>
</g>
<!-- Node3&#45;&gt;Node2 -->
<g id="edge2" class="edge">
<title>Node3&#45;&gt;Node2</title>
<path fill="none" stroke="midnightblue" d="M1607.39,-330.25C1632.25,-337.41 1660.59,-345.57 1684.37,-352.42"/>
<polygon fill="midnightblue" stroke="midnightblue" points="1608.27,-326.87 1597.69,-327.46 1606.33,-333.59 1608.27,-326.87"/>
</g>
<!-- Node4 -->
<g id="node4" class="node">
<title>Node4</title>
<g id="a_node4"><a xlink:href="classitk_1_1ProcessObject.html" target="_top" xlink:title="The base class for all process objects (source, filters, mappers) in the Insight data processing pipe...">
<polygon fill="white" stroke="black" points="1276,-219.93 1276,-238.93 1380,-238.93 1380,-219.93 1276,-219.93"/>
<text text-anchor="middle" x="1328" y="-226.93" font-family="Helvetica,sans-Serif" font-size="10.00">itk::ProcessObject</text>
</a>
</g>
</g>
<!-- Node4&#45;&gt;Node3 -->
<g id="edge3" class="edge">
<title>Node4&#45;&gt;Node3</title>
<path fill="none" stroke="midnightblue" d="M1363.34,-242.72C1401.92,-257.65 1464.41,-281.83 1504.72,-297.43"/>
<polygon fill="midnightblue" stroke="midnightblue" points="1364.2,-239.3 1353.61,-238.95 1361.67,-245.83 1364.2,-239.3"/>
</g>
<!-- Node5 -->
<g id="node5" class="node">
<title>Node5</title>
<g id="a_node5"><a xlink:href="classitk_1_1Object.html" target="_top" xlink:title="Base class for most ITK classes.">
<polygon fill="white" stroke="black" points="980,-126.93 980,-145.93 1047,-145.93 1047,-126.93 980,-126.93"/>
<text text-anchor="middle" x="1013.5" y="-133.93" font-family="Helvetica,sans-Serif" font-size="10.00">itk::Object</text>
</a>
</g>
</g>
<!-- Node5&#45;&gt;Node4 -->
<g id="edge4" class="edge">
<title>Node5&#45;&gt;Node4</title>
<path fill="none" stroke="midnightblue" d="M1057.46,-138.2C1107.44,-141.56 1191.58,-151.28 1258,-179.43 1281.15,-189.25 1303.98,-208.08 1316.71,-219.62"/>
<polygon fill="midnightblue" stroke="midnightblue" points="1057.53,-134.7 1047.33,-137.58 1057.1,-141.69 1057.53,-134.7"/>
</g>
<!-- Node6 -->
<g id="node6" class="node">
<title>Node6</title>
<g id="a_node6"><a xlink:href="classitk_1_1LightObject.html" target="_top" xlink:title="Light weight base class for most itk classes.">
<polygon fill="white" stroke="black" points="659,-107.93 659,-126.93 750,-126.93 750,-107.93 659,-107.93"/>
<text text-anchor="middle" x="704.5" y="-114.93" font-family="Helvetica,sans-Serif" font-size="10.00">itk::LightObject</text>
</a>
</g>
</g>
<!-- Node6&#45;&gt;Node5 -->
<g id="edge5" class="edge">
<title>Node6&#45;&gt;Node5</title>
<path fill="none" stroke="midnightblue" d="M760.4,-120.83C824.13,-124.77 927.17,-131.15 979.59,-134.4"/>
<polygon fill="midnightblue" stroke="midnightblue" points="760.34,-117.32 750.14,-120.2 759.91,-124.31 760.34,-117.32"/>
</g>
<!-- Node7 -->
<g id="node7" class="node">
<title>Node7</title>
<g id="a_node7"><a xlink:title=" ">
<polygon fill="white" stroke="#bfbfbf" points="372,-106.93 372,-125.93 479,-125.93 479,-106.93 372,-106.93"/>
<text text-anchor="middle" x="425.5" y="-113.93" font-family="Helvetica,sans-Serif" font-size="10.00">std::atomic&lt; int &gt;</text>
</a>
</g>
</g>
<!-- Node7&#45;&gt;Node6 -->
<g id="edge6" class="edge">
<title>Node7&#45;&gt;Node6</title>
<path fill="none" stroke="#9a32cd" stroke-dasharray="5,2" d="M489.29,-116.66C540.91,-116.85 612.77,-117.1 658.72,-117.27"/>
<polygon fill="#9a32cd" stroke="#9a32cd" points="489.27,-113.16 479.25,-116.62 489.24,-120.16 489.27,-113.16"/>
<text text-anchor="middle" x="566.5" y="-120.43" font-family="Helvetica,sans-Serif" font-size="10.00"> m_ReferenceCount</text>
</g>
<!-- Node8 -->
<g id="node8" class="node">
<title>Node8</title>
<g id="a_node8"><a xlink:title="STL class.">
<polygon fill="white" stroke="#bfbfbf" points="672,-228.93 672,-247.93 737,-247.93 737,-228.93 672,-228.93"/>
<text text-anchor="middle" x="704.5" y="-235.93" font-family="Helvetica,sans-Serif" font-size="10.00">std::string</text>
</a>
</g>
</g>
<!-- Node8&#45;&gt;Node5 -->
<g id="edge7" class="edge">
<title>Node8&#45;&gt;Node5</title>
<path fill="none" stroke="#9a32cd" stroke-dasharray="5,2" d="M726.8,-223C744.08,-211.21 769.52,-195.49 794,-186.43 843.55,-168.1 860.86,-182.08 911,-165.43 919.49,-162.61 920.6,-159.49 929,-156.43 945.39,-150.46 964.24,-145.77 979.87,-142.44"/>
<polygon fill="#9a32cd" stroke="#9a32cd" points="724.75,-220.16 718.55,-228.75 728.75,-225.9 724.75,-220.16"/>
<text text-anchor="middle" x="852.5" y="-189.43" font-family="Helvetica,sans-Serif" font-size="10.00"> m_ObjectName</text>
</g>
<!-- Node17 -->
<g id="node17" class="node">
<title>Node17</title>
<g id="a_node17"><a xlink:title=" ">
<polygon fill="white" stroke="#bfbfbf" points="932.5,-214.43 932.5,-244.43 1094.5,-244.43 1094.5,-214.43 932.5,-214.43"/>
<text text-anchor="start" x="940.5" y="-232.43" font-family="Helvetica,sans-Serif" font-size="10.00">std::set&lt; DataObjectIdentifier</text>
<text text-anchor="middle" x="1013.5" y="-221.43" font-family="Helvetica,sans-Serif" font-size="10.00">Type &gt;</text>
</a>
</g>
</g>
<!-- Node8&#45;&gt;Node17 -->
<g id="edge18" class="edge">
<title>Node8&#45;&gt;Node17</title>
<path fill="none" stroke="#9a32cd" stroke-dasharray="5,2" d="M747.21,-237.6C788.73,-236.73 854.28,-235.24 911,-233.43 917.96,-233.21 925.19,-232.96 932.44,-232.7"/>
<polygon fill="#9a32cd" stroke="#9a32cd" points="747.11,-234.1 737.19,-237.81 747.26,-241.1 747.11,-234.1"/>
<text text-anchor="middle" x="852.5" y="-239.43" font-family="Helvetica,sans-Serif" font-size="10.00"> keys</text>
</g>
<!-- Node18 -->
<g id="node18" class="node">
<title>Node18</title>
<g id="a_node18"><a xlink:title=" ">
<polygon fill="white" stroke="#bfbfbf" points="929,-165.43 929,-195.43 1098,-195.43 1098,-165.43 929,-165.43"/>
<text text-anchor="start" x="937" y="-183.43" font-family="Helvetica,sans-Serif" font-size="10.00">std::map&lt; DataObjectIdentifier</text>
<text text-anchor="middle" x="1013.5" y="-172.43" font-family="Helvetica,sans-Serif" font-size="10.00">Type, bool &gt;</text>
</a>
</g>
</g>
<!-- Node8&#45;&gt;Node18 -->
<g id="edge20" class="edge">
<title>Node8&#45;&gt;Node18</title>
<path fill="none" stroke="#9a32cd" stroke-dasharray="5,2" d="M746.91,-229.8C761.75,-226.77 778.61,-223.38 794,-220.43 845.89,-210.5 859.04,-208.96 911,-199.43 917.97,-198.16 925.2,-196.82 932.45,-195.48"/>
<polygon fill="#9a32cd" stroke="#9a32cd" points="746.09,-226.4 737,-231.84 747.5,-233.26 746.09,-226.4"/>
<text text-anchor="middle" x="852.5" y="-223.43" font-family="Helvetica,sans-Serif" font-size="10.00"> keys</text>
</g>
<!-- Node23 -->
<g id="node23" class="node">
<title>Node23</title>
<g id="a_node23"><a xlink:title=" ">
<polygon fill="white" stroke="#bfbfbf" points="929,-361.43 929,-391.43 1098,-391.43 1098,-361.43 929,-361.43"/>
<text text-anchor="start" x="937" y="-379.43" font-family="Helvetica,sans-Serif" font-size="10.00">std::map&lt; DataObjectIdentifier</text>
<text text-anchor="middle" x="1013.5" y="-368.43" font-family="Helvetica,sans-Serif" font-size="10.00">Type, DataObjectPointer &gt;</text>
</a>
</g>
</g>
<!-- Node8&#45;&gt;Node23 -->
<g id="edge27" class="edge">
<title>Node8&#45;&gt;Node23</title>
<path fill="none" stroke="#9a32cd" stroke-dasharray="5,2" d="M747.45,-246.3C804.06,-257.26 899.22,-277.06 911,-288.43 932.26,-308.95 908.17,-331.48 929,-352.43 932.4,-355.86 936.26,-358.8 940.4,-361.33"/>
<polygon fill="#9a32cd" stroke="#9a32cd" points="747.84,-242.81 737.36,-244.36 746.52,-249.68 747.84,-242.81"/>
<text text-anchor="middle" x="852.5" y="-291.43" font-family="Helvetica,sans-Serif" font-size="10.00"> keys</text>
</g>
<!-- Node9 -->
<g id="node9" class="node">
<title>Node9</title>
<g id="a_node9"><a xlink:title="STL class.">
<polygon fill="white" stroke="#bfbfbf" points="373.5,-223.43 373.5,-253.43 477.5,-253.43 477.5,-223.43 373.5,-223.43"/>
<text text-anchor="start" x="381.5" y="-241.43" font-family="Helvetica,sans-Serif" font-size="10.00">std::basic_string&lt;</text>
<text text-anchor="middle" x="425.5" y="-230.43" font-family="Helvetica,sans-Serif" font-size="10.00"> char &gt;</text>
</a>
</g>
</g>
<!-- Node9&#45;&gt;Node8 -->
<g id="edge8" class="edge">
<title>Node9&#45;&gt;Node8</title>
<path fill="none" stroke="midnightblue" d="M487.93,-238.43C544.75,-238.43 626.97,-238.43 671.66,-238.43"/>
<polygon fill="midnightblue" stroke="midnightblue" points="487.63,-234.93 477.63,-238.43 487.63,-241.93 487.63,-234.93"/>
</g>
<!-- Node10 -->
<g id="node10" class="node">
<title>Node10</title>
<g id="a_node10"><a xlink:href="classitk_1_1MetaDataDictionary.html" target="_top" xlink:title="Provides a mechanism for storing a collection of arbitrary data types.">
<polygon fill="white" stroke="black" points="637.5,-146.93 637.5,-165.93 771.5,-165.93 771.5,-146.93 637.5,-146.93"/>
<text text-anchor="middle" x="704.5" y="-153.93" font-family="Helvetica,sans-Serif" font-size="10.00">itk::MetaDataDictionary</text>
</a>
</g>
</g>
<!-- Node10&#45;&gt;Node5 -->
<g id="edge9" class="edge">
<title>Node10&#45;&gt;Node5</title>
<path fill="none" stroke="#9a32cd" stroke-dasharray="5,2" d="M781.74,-151.47C845.39,-147.32 933.03,-141.61 979.86,-138.56"/>
<polygon fill="#9a32cd" stroke="#9a32cd" points="781.49,-147.97 771.74,-152.12 781.94,-154.96 781.49,-147.97"/>
<text text-anchor="middle" x="852.5" y="-153.43" font-family="Helvetica,sans-Serif" font-size="10.00"> m_MetaDataDictionary</text>
</g>
<!-- Node11 -->
<g id="node11" class="node">
<title>Node11</title>
<g id="a_node11"><a xlink:title=" ">
<polygon fill="white" stroke="#bfbfbf" points="351,-145.43 351,-175.43 500,-175.43 500,-145.43 351,-145.43"/>
<text text-anchor="start" x="359" y="-163.43" font-family="Helvetica,sans-Serif" font-size="10.00">std::shared_ptr&lt; MetaData</text>
<text text-anchor="middle" x="425.5" y="-152.43" font-family="Helvetica,sans-Serif" font-size="10.00">DictionaryMapType &gt;</text>
</a>
</g>
</g>
<!-- Node11&#45;&gt;Node10 -->
<g id="edge10" class="edge">
<title>Node11&#45;&gt;Node10</title>
<path fill="none" stroke="#9a32cd" stroke-dasharray="5,2" d="M510.18,-159.22C550.89,-158.64 599.13,-157.94 637.24,-157.39"/>
<polygon fill="#9a32cd" stroke="#9a32cd" points="509.95,-155.73 500,-159.37 510.05,-162.73 509.95,-155.73"/>
<text text-anchor="middle" x="566.5" y="-161.43" font-family="Helvetica,sans-Serif" font-size="10.00"> m_Dictionary</text>
</g>
<!-- Node12 -->
<g id="node12" class="node">
<title>Node12</title>
<g id="a_node12"><a xlink:title="STL class.">
<polygon fill="white" stroke="#bfbfbf" points="114,-149.93 114,-168.93 215,-168.93 215,-149.93 114,-149.93"/>
<text text-anchor="middle" x="164.5" y="-156.93" font-family="Helvetica,sans-Serif" font-size="10.00">std::map&lt; K, T &gt;</text>
</a>
</g>
</g>
<!-- Node12&#45;&gt;Node11 -->
<g id="edge11" class="edge">
<title>Node12&#45;&gt;Node11</title>
<path fill="none" stroke="#9a32cd" stroke-dasharray="5,2" d="M225.34,-159.66C262.61,-159.81 310.86,-159.99 350.52,-160.15"/>
<polygon fill="#9a32cd" stroke="#9a32cd" points="225.14,-156.16 215.13,-159.62 225.12,-163.16 225.14,-156.16"/>
<text text-anchor="middle" x="283" y="-162.43" font-family="Helvetica,sans-Serif" font-size="10.00"> ptr</text>
</g>
<!-- Node13 -->
<g id="node13" class="node">
<title>Node13</title>
<g id="a_node13"><a xlink:title=" ">
<polygon fill="white" stroke="#bfbfbf" points="0,-149.93 0,-168.93 29,-168.93 29,-149.93 0,-149.93"/>
<text text-anchor="middle" x="14.5" y="-156.93" font-family="Helvetica,sans-Serif" font-size="10.00">K</text>
</a>
</g>
</g>
<!-- Node13&#45;&gt;Node12 -->
<g id="edge12" class="edge">
<title>Node13&#45;&gt;Node12</title>
<path fill="none" stroke="#9a32cd" stroke-dasharray="5,2" d="M39.24,-159.43C59.28,-159.43 88.63,-159.43 113.78,-159.43"/>
<polygon fill="#9a32cd" stroke="#9a32cd" points="39.16,-155.93 29.16,-159.43 39.16,-162.93 39.16,-155.93"/>
<text text-anchor="middle" x="71.5" y="-162.43" font-family="Helvetica,sans-Serif" font-size="10.00"> keys</text>
</g>
<!-- Node14 -->
<g id="node14" class="node">
<title>Node14</title>
<g id="a_node14"><a xlink:title=" ">
<polygon fill="white" stroke="#bfbfbf" points="0,-96.93 0,-115.93 29,-115.93 29,-96.93 0,-96.93"/>
<text text-anchor="middle" x="14.5" y="-103.93" font-family="Helvetica,sans-Serif" font-size="10.00">T</text>
</a>
</g>
</g>
<!-- Node14&#45;&gt;Node12 -->
<g id="edge13" class="edge">
<title>Node14&#45;&gt;Node12</title>
<path fill="none" stroke="#9a32cd" stroke-dasharray="5,2" d="M38.78,-114.77C65.36,-124.29 108.76,-139.83 136.72,-149.84"/>
<polygon fill="#9a32cd" stroke="#9a32cd" points="39.75,-111.4 29.16,-111.32 37.39,-117.99 39.75,-111.4"/>
<text text-anchor="middle" x="71.5" y="-137.43" font-family="Helvetica,sans-Serif" font-size="10.00"> elements</text>
</g>
<!-- Node16 -->
<g id="node16" class="node">
<title>Node16</title>
<g id="a_node16"><a xlink:title="STL class.">
<polygon fill="white" stroke="#bfbfbf" points="233,-74.93 233,-93.93 333,-93.93 333,-74.93 233,-74.93"/>
<text text-anchor="middle" x="283" y="-81.93" font-family="Helvetica,sans-Serif" font-size="10.00">std::atomic&lt; T &gt;</text>
</a>
</g>
</g>
<!-- Node14&#45;&gt;Node16 -->
<g id="edge16" class="edge">
<title>Node14&#45;&gt;Node16</title>
<path fill="none" stroke="#9a32cd" stroke-dasharray="5,2" d="M39.45,-104.12C42,-103.88 44.55,-103.65 47,-103.43 111.22,-97.78 185.37,-91.89 232.92,-88.2"/>
<polygon fill="#9a32cd" stroke="#9a32cd" points="38.92,-100.65 29.3,-105.08 39.58,-107.62 38.92,-100.65"/>
<text text-anchor="middle" x="71.5" y="-106.43" font-family="Helvetica,sans-Serif" font-size="10.00"> ptr</text>
</g>
<!-- Node15 -->
<g id="node15" class="node">
<title>Node15</title>
<g id="a_node15"><a xlink:href="classitk_1_1TimeStamp.html" target="_top" xlink:title="Generate a unique, increasing time value.">
<polygon fill="white" stroke="black" points="658.5,-67.93 658.5,-86.93 750.5,-86.93 750.5,-67.93 658.5,-67.93"/>
<text text-anchor="middle" x="704.5" y="-74.93" font-family="Helvetica,sans-Serif" font-size="10.00">itk::TimeStamp</text>
</a>
</g>
</g>
<!-- Node15&#45;&gt;Node4 -->
<g id="edge29" class="edge">
<title>Node15&#45;&gt;Node4</title>
<path fill="none" stroke="#9a32cd" stroke-dasharray="5,2" d="M760.62,-68.88C866.12,-55.5 1100.11,-40.43 1258,-139.43 1290.36,-159.72 1313.3,-200.95 1322.51,-219.72"/>
<polygon fill="#9a32cd" stroke="#9a32cd" points="759.98,-65.44 750.52,-70.21 760.89,-72.38 759.98,-65.44"/>
<text text-anchor="middle" x="1013.5" y="-80.43" font-family="Helvetica,sans-Serif" font-size="10.00"> m_OutputInformationMTime</text>
</g>
<!-- Node15&#45;&gt;Node5 -->
<g id="edge14" class="edge">
<title>Node15&#45;&gt;Node5</title>
<path fill="none" stroke="#9a32cd" stroke-dasharray="5,2" d="M760.64,-83.46C802.22,-88.49 860.52,-96.59 911,-107.43 935.55,-112.71 962.89,-120.64 983.01,-126.88"/>
<polygon fill="#9a32cd" stroke="#9a32cd" points="761.05,-79.98 750.71,-82.28 760.22,-86.93 761.05,-79.98"/>
<text text-anchor="middle" x="852.5" y="-110.43" font-family="Helvetica,sans-Serif" font-size="10.00"> m_MTime</text>
</g>
<!-- Node16&#45;&gt;Node15 -->
<g id="edge15" class="edge">
<title>Node16&#45;&gt;Node15</title>
<path fill="none" stroke="#9a32cd" stroke-dasharray="5,2" d="M343.61,-83.44C428.52,-82.02 582.42,-79.45 658.48,-78.18"/>
<polygon fill="#9a32cd" stroke="#9a32cd" points="343.3,-79.94 333.36,-83.61 343.41,-86.94 343.3,-79.94"/>
<text text-anchor="middle" x="425.5" y="-86.43" font-family="Helvetica,sans-Serif" font-size="10.00"> m_GlobalTimeStamp</text>
</g>
<!-- Node17&#45;&gt;Node4 -->
<g id="edge17" class="edge">
<title>Node17&#45;&gt;Node4</title>
<path fill="none" stroke="#9a32cd" stroke-dasharray="5,2" d="M1104.76,-229.43C1160.22,-229.43 1229.26,-229.43 1275.55,-229.43"/>
<polygon fill="#9a32cd" stroke="#9a32cd" points="1104.57,-225.93 1094.57,-229.43 1104.57,-232.93 1104.57,-225.93"/>
<text text-anchor="middle" x="1187" y="-232.43" font-family="Helvetica,sans-Serif" font-size="10.00"> m_RequiredInputNames</text>
</g>
<!-- Node18&#45;&gt;Node4 -->
<g id="edge19" class="edge">
<title>Node18&#45;&gt;Node4</title>
<path fill="none" stroke="#9a32cd" stroke-dasharray="5,2" d="M1108.39,-183.47C1154.01,-186.41 1209.35,-192.18 1258,-203.43 1274.59,-207.27 1292.56,-214.14 1306.01,-219.85"/>
<polygon fill="#9a32cd" stroke="#9a32cd" points="1108.41,-179.96 1098.21,-182.84 1107.98,-186.95 1108.41,-179.96"/>
<text text-anchor="start" x="1116" y="-217.43" font-family="Helvetica,sans-Serif" font-size="10.00"> m_CachedInputReleaseData</text>
<text text-anchor="middle" x="1187" y="-206.43" font-family="Helvetica,sans-Serif" font-size="10.00">Flags</text>
</g>
<!-- Node19 -->
<g id="node19" class="node">
<title>Node19</title>
<g id="a_node19"><a xlink:title=" ">
<polygon fill="white" stroke="#bfbfbf" points="946.5,-5.93 946.5,-24.93 1080.5,-24.93 1080.5,-5.93 946.5,-5.93"/>
<text text-anchor="middle" x="1013.5" y="-12.93" font-family="Helvetica,sans-Serif" font-size="10.00">std::atomic&lt; uint32_t &gt;</text>
</a>
</g>
</g>
<!-- Node19&#45;&gt;Node4 -->
<g id="edge21" class="edge">
<title>Node19&#45;&gt;Node4</title>
<path fill="none" stroke="#9a32cd" stroke-dasharray="5,2" d="M1070.11,-4.42C1123.81,2.89 1204.65,4.7 1258,-36.43 1318.59,-83.14 1326.08,-187.52 1326.92,-219.76"/>
<polygon fill="#9a32cd" stroke="#9a32cd" points="1069.46,-0.98 1060.08,-5.89 1070.48,-7.9 1069.46,-0.98"/>
<text text-anchor="middle" x="1187" y="-39.43" font-family="Helvetica,sans-Serif" font-size="10.00"> m_Progress</text>
</g>
<!-- Node20 -->
<g id="node20" class="node">
<title>Node20</title>
<g id="a_node20"><a xlink:title=" ">
<polygon fill="white" stroke="#bfbfbf" points="676.5,-5.93 676.5,-24.93 732.5,-24.93 732.5,-5.93 676.5,-5.93"/>
<text text-anchor="middle" x="704.5" y="-12.93" font-family="Helvetica,sans-Serif" font-size="10.00">uint32_t</text>
</a>
</g>
</g>
<!-- Node20&#45;&gt;Node19 -->
<g id="edge22" class="edge">
<title>Node20&#45;&gt;Node19</title>
<path fill="none" stroke="#9a32cd" stroke-dasharray="5,2" d="M742.88,-15.43C793.35,-15.43 884.11,-15.43 946.28,-15.43"/>
<polygon fill="#9a32cd" stroke="#9a32cd" points="742.74,-11.93 732.74,-15.43 742.74,-18.93 742.74,-11.93"/>
<text text-anchor="middle" x="852.5" y="-18.43" font-family="Helvetica,sans-Serif" font-size="10.00"> ptr</text>
</g>
<!-- Node21 -->
<g id="node21" class="node">
<title>Node21</title>
<g id="a_node21"><a xlink:title=" ">
<polygon fill="white" stroke="#bfbfbf" points="929,-263.43 929,-293.43 1098,-293.43 1098,-263.43 929,-263.43"/>
<text text-anchor="start" x="937" y="-281.43" font-family="Helvetica,sans-Serif" font-size="10.00">std::vector&lt; DataObjectPointer</text>
<text text-anchor="middle" x="1013.5" y="-270.43" font-family="Helvetica,sans-Serif" font-size="10.00">Map::iterator &gt;</text>
</a>
</g>
</g>
<!-- Node21&#45;&gt;Node4 -->
<g id="edge23" class="edge">
<title>Node21&#45;&gt;Node4</title>
<path fill="none" stroke="#9a32cd" stroke-dasharray="5,2" d="M1108.26,-267.02C1153.61,-261.07 1208.78,-253.21 1258,-244.43 1266.93,-242.84 1276.46,-240.92 1285.51,-238.98"/>
<polygon fill="#9a32cd" stroke="#9a32cd" points="1107.61,-263.57 1098.14,-268.34 1108.51,-270.52 1107.61,-263.57"/>
<text text-anchor="middle" x="1187" y="-279.43" font-family="Helvetica,sans-Serif" font-size="10.00"> m_IndexedOutputs</text>
<text text-anchor="middle" x="1187" y="-268.43" font-family="Helvetica,sans-Serif" font-size="10.00">m_IndexedInputs</text>
</g>
<!-- Node22 -->
<g id="node22" class="node">
<title>Node22</title>
<g id="a_node22"><a xlink:title="STL iterator class.">
<polygon fill="white" stroke="#bfbfbf" points="633,-313.93 633,-332.93 776,-332.93 776,-313.93 633,-313.93"/>
<text text-anchor="middle" x="704.5" y="-320.93" font-family="Helvetica,sans-Serif" font-size="10.00">std::map&lt; K, T &gt;::iterator</text>
</a>
</g>
</g>
<!-- Node22&#45;&gt;Node21 -->
<g id="edge24" class="edge">
<title>Node22&#45;&gt;Node21</title>
<path fill="none" stroke="#9a32cd" stroke-dasharray="5,2" d="M786.15,-316.98C824.17,-313.39 870.06,-308.24 911,-301.43 924.19,-299.24 938.23,-296.39 951.54,-293.45"/>
<polygon fill="#9a32cd" stroke="#9a32cd" points="785.79,-313.5 776.16,-317.91 786.44,-320.47 785.79,-313.5"/>
<text text-anchor="middle" x="852.5" y="-318.43" font-family="Helvetica,sans-Serif" font-size="10.00"> elements</text>
</g>
<!-- Node23&#45;&gt;Node4 -->
<g id="edge25" class="edge">
<title>Node23&#45;&gt;Node4</title>
<path fill="none" stroke="#9a32cd" stroke-dasharray="5,2" d="M1108.34,-380.71C1156.56,-378.63 1214.22,-369.16 1258,-340.43 1296.13,-315.41 1316.92,-261.25 1324.09,-239.14"/>
<polygon fill="#9a32cd" stroke="#9a32cd" points="1108.09,-377.21 1098.21,-381.04 1108.32,-384.21 1108.09,-377.21"/>
<text text-anchor="middle" x="1187" y="-393.43" font-family="Helvetica,sans-Serif" font-size="10.00"> m_Outputs</text>
<text text-anchor="middle" x="1187" y="-382.43" font-family="Helvetica,sans-Serif" font-size="10.00">m_Inputs</text>
</g>
<!-- Node24 -->
<g id="node24" class="node">
<title>Node24</title>
<g id="a_node24"><a xlink:href="classitk_1_1SmartPointer.html" target="_top" xlink:title=" ">
<polygon fill="white" stroke="black" points="651,-387.43 651,-417.43 758,-417.43 758,-387.43 651,-387.43"/>
<text text-anchor="start" x="659" y="-405.43" font-family="Helvetica,sans-Serif" font-size="10.00">itk::SmartPointer&lt;</text>
<text text-anchor="middle" x="704.5" y="-394.43" font-family="Helvetica,sans-Serif" font-size="10.00"> Self &gt;</text>
</a>
</g>
</g>
<!-- Node24&#45;&gt;Node1 -->
<g id="edge30" class="edge">
<title>Node24&#45;&gt;Node1</title>
<path fill="none" stroke="#9a32cd" stroke-dasharray="5,2" d="M768.15,-408.26C830.15,-413.52 927.79,-420.43 1012.5,-420.43 1012.5,-420.43 1012.5,-420.43 1738.5,-420.43 1778.06,-420.43 1821.88,-415.84 1857.8,-410.85"/>
<polygon fill="#9a32cd" stroke="#9a32cd" points="768.4,-404.77 758.14,-407.4 767.8,-411.74 768.4,-404.77"/>
<text text-anchor="middle" x="1426" y="-423.43" font-family="Helvetica,sans-Serif" font-size="10.00"> m_Centers</text>
</g>
<!-- Node24&#45;&gt;Node23 -->
<g id="edge26" class="edge">
<title>Node24&#45;&gt;Node23</title>
<path fill="none" stroke="#9a32cd" stroke-dasharray="5,2" d="M768.49,-397.1C814.84,-393.17 878.33,-387.8 928.92,-383.51"/>
<polygon fill="#9a32cd" stroke="#9a32cd" points="767.94,-393.63 758.28,-397.96 768.53,-400.61 767.94,-393.63"/>
<text text-anchor="middle" x="852.5" y="-397.43" font-family="Helvetica,sans-Serif" font-size="10.00"> elements</text>
</g>
<!-- Node25 -->
<g id="node25" class="node">
<title>Node25</title>
<g id="a_node25"><a xlink:href="classitk_1_1SmartPointer.html" target="_top" xlink:title=" ">
<polygon fill="white" stroke="black" points="942.5,-312.43 942.5,-342.43 1084.5,-342.43 1084.5,-312.43 942.5,-312.43"/>
<text text-anchor="start" x="950.5" y="-330.43" font-family="Helvetica,sans-Serif" font-size="10.00">itk::SmartPointer&lt;</text>
<text text-anchor="middle" x="1013.5" y="-319.43" font-family="Helvetica,sans-Serif" font-size="10.00"> itk::MultiThreaderBase &gt;</text>
</a>
</g>
</g>
<!-- Node25&#45;&gt;Node4 -->
<g id="edge28" class="edge">
<title>Node25&#45;&gt;Node4</title>
<path fill="none" stroke="#9a32cd" stroke-dasharray="5,2" d="M1095.02,-327.14C1144.15,-324.2 1207.09,-315.36 1258,-291.43 1284.23,-279.1 1307.69,-253.46 1319.3,-239.32"/>
<polygon fill="#9a32cd" stroke="#9a32cd" points="1094.56,-323.66 1084.75,-327.68 1094.92,-330.65 1094.56,-323.66"/>
<text text-anchor="middle" x="1187" y="-328.43" font-family="Helvetica,sans-Serif" font-size="10.00"> m_MultiThreader</text>
</g>
</g>
</svg>
