<?xml version="1.0" encoding="UTF-8" standalone="no"?>
<!DOCTYPE svg PUBLIC "-//W3C//DTD SVG 1.1//EN"
 "http://www.w3.org/Graphics/SVG/1.1/DTD/svg11.dtd">
<!-- Generated by graphviz version 2.43.0 (0)
 -->
<!-- Title: itk::Statistics::MixtureModelComponentBase&lt; TSample &gt; Pages: 1 -->
<svg width="200pt" height="229pt"
 viewBox="0.00 0.00 200.00 229.00" xmlns="http://www.w3.org/2000/svg" xmlns:xlink="http://www.w3.org/1999/xlink">
<g id="graph0" class="graph" transform="scale(1 1) rotate(0) translate(4 225)">
<title>itk::Statistics::MixtureModelComponentBase&lt; TSample &gt;</title>
<polygon fill="white" stroke="transparent" points="-4,4 -4,-225 196,-225 196,4 -4,4"/>
<!-- Node1 -->
<g id="node1" class="node">
<title>Node1</title>
<g id="a_node1"><a xlink:title="base class for distribution modules that supports analytical way to update the distribution parameter...">
<polygon fill="#bfbfbf" stroke="black" points="0,-78.5 0,-108.5 192,-108.5 192,-78.5 0,-78.5"/>
<text text-anchor="start" x="8" y="-96.5" font-family="Helvetica,sans-Serif" font-size="10.00">itk::Statistics::Mixture</text>
<text text-anchor="middle" x="96" y="-85.5" font-family="Helvetica,sans-Serif" font-size="10.00">ModelComponentBase&lt; TSample &gt;</text>
</a>
</g>
</g>
<!-- Node4 -->
<g id="node4" class="node">
<title>Node4</title>
<g id="a_node4"><a xlink:href="classitk_1_1Statistics_1_1GaussianMixtureModelComponent.html" target="_top" xlink:title="is a component (derived from MixtureModelComponentBase) for Gaussian class. This class is used in Exp...">
<polygon fill="white" stroke="black" points="21.5,-0.5 21.5,-41.5 170.5,-41.5 170.5,-0.5 21.5,-0.5"/>
<text text-anchor="start" x="29.5" y="-29.5" font-family="Helvetica,sans-Serif" font-size="10.00">itk::Statistics::Gaussian</text>
<text text-anchor="start" x="29.5" y="-18.5" font-family="Helvetica,sans-Serif" font-size="10.00">MixtureModelComponent&lt;</text>
<text text-anchor="middle" x="96" y="-7.5" font-family="Helvetica,sans-Serif" font-size="10.00"> TSample &gt;</text>
</a>
</g>
</g>
<!-- Node1&#45;&gt;Node4 -->
<g id="edge3" class="edge">
<title>Node1&#45;&gt;Node4</title>
<path fill="none" stroke="midnightblue" d="M96,-67.98C96,-59.35 96,-49.76 96,-41.59"/>
<polygon fill="midnightblue" stroke="midnightblue" points="92.5,-68.23 96,-78.23 99.5,-68.23 92.5,-68.23"/>
</g>
<!-- Node2 -->
<g id="node2" class="node">
<title>Node2</title>
<g id="a_node2"><a xlink:href="classitk_1_1Object.html" target="_top" xlink:title="Base class for most ITK classes.">
<polygon fill="white" stroke="black" points="62.5,-145.5 62.5,-164.5 129.5,-164.5 129.5,-145.5 62.5,-145.5"/>
<text text-anchor="middle" x="96" y="-152.5" font-family="Helvetica,sans-Serif" font-size="10.00">itk::Object</text>
</a>
</g>
</g>
<!-- Node2&#45;&gt;Node1 -->
<g id="edge1" class="edge">
<title>Node2&#45;&gt;Node1</title>
<path fill="none" stroke="midnightblue" d="M96,-135.23C96,-126.59 96,-116.5 96,-108.52"/>
<polygon fill="midnightblue" stroke="midnightblue" points="92.5,-135.48 96,-145.48 99.5,-135.48 92.5,-135.48"/>
</g>
<!-- Node3 -->
<g id="node3" class="node">
<title>Node3</title>
<g id="a_node3"><a xlink:href="classitk_1_1LightObject.html" target="_top" xlink:title="Light weight base class for most itk classes.">
<polygon fill="white" stroke="black" points="50.5,-201.5 50.5,-220.5 141.5,-220.5 141.5,-201.5 50.5,-201.5"/>
<text text-anchor="middle" x="96" y="-208.5" font-family="Helvetica,sans-Serif" font-size="10.00">itk::LightObject</text>
</a>
</g>
</g>
<!-- Node3&#45;&gt;Node2 -->
<g id="edge2" class="edge">
<title>Node3&#45;&gt;Node2</title>
<path fill="none" stroke="midnightblue" d="M96,-190.8C96,-181.91 96,-171.78 96,-164.75"/>
<polygon fill="midnightblue" stroke="midnightblue" points="92.5,-191.08 96,-201.08 99.5,-191.08 92.5,-191.08"/>
</g>
</g>
</svg>
