<?xml version="1.0" encoding="UTF-8" standalone="no"?>
<!DOCTYPE svg PUBLIC "-//W3C//DTD SVG 1.1//EN"
 "http://www.w3.org/Graphics/SVG/1.1/DTD/svg11.dtd">
<!-- Generated by graphviz version 2.43.0 (0)
 -->
<!-- Title: itk::ImageRandomConstIteratorWithOnlyIndex&lt; TImage &gt; Pages: 1 -->
<svg width="286pt" height="117pt"
 viewBox="0.00 0.00 285.50 117.00" xmlns="http://www.w3.org/2000/svg" xmlns:xlink="http://www.w3.org/1999/xlink">
<g id="graph0" class="graph" transform="scale(1 1) rotate(0) translate(4 113)">
<title>itk::ImageRandomConstIteratorWithOnlyIndex&lt; TImage &gt;</title>
<polygon fill="white" stroke="transparent" points="-4,4 -4,-113 281.5,-113 281.5,4 -4,4"/>
<!-- Node1 -->
<g id="node1" class="node">
<title>Node1</title>
<g id="a_node1"><a xlink:title="A multi&#45;dimensional image iterator that visits a random set of locations within an image region,...">
<polygon fill="#bfbfbf" stroke="black" points="65,-0.5 65,-30.5 235,-30.5 235,-0.5 65,-0.5"/>
<text text-anchor="start" x="73" y="-18.5" font-family="Helvetica,sans-Serif" font-size="10.00">itk::ImageRandomConstIterator</text>
<text text-anchor="middle" x="150" y="-7.5" font-family="Helvetica,sans-Serif" font-size="10.00">WithOnlyIndex&lt; TImage &gt;</text>
</a>
</g>
</g>
<!-- Node2 -->
<g id="node2" class="node">
<title>Node2</title>
<g id="a_node2"><a xlink:href="classitk_1_1ImageConstIteratorWithOnlyIndex.html" target="_top" xlink:title="A base class for multi&#45;dimensional iterators templated over image type that are designed to provide o...">
<polygon fill="white" stroke="black" points="0,-78.5 0,-108.5 152,-108.5 152,-78.5 0,-78.5"/>
<text text-anchor="start" x="8" y="-96.5" font-family="Helvetica,sans-Serif" font-size="10.00">itk::ImageConstIteratorWith</text>
<text text-anchor="middle" x="76" y="-85.5" font-family="Helvetica,sans-Serif" font-size="10.00">OnlyIndex&lt; TImage &gt;</text>
</a>
</g>
</g>
<!-- Node2&#45;&gt;Node1 -->
<g id="edge1" class="edge">
<title>Node2&#45;&gt;Node1</title>
<path fill="none" stroke="midnightblue" d="M96.9,-71.03C109.46,-58.13 125.1,-42.07 136.14,-30.73"/>
<polygon fill="midnightblue" stroke="midnightblue" points="94.39,-68.6 89.92,-78.2 99.4,-73.48 94.39,-68.6"/>
</g>
<!-- Node3 -->
<g id="node3" class="node">
<title>Node3</title>
<g id="a_node3"><a xlink:href="classitk_1_1SmartPointer.html" target="_top" xlink:title=" ">
<polygon fill="white" stroke="black" points="170.5,-78.5 170.5,-108.5 277.5,-108.5 277.5,-78.5 170.5,-78.5"/>
<text text-anchor="start" x="178.5" y="-96.5" font-family="Helvetica,sans-Serif" font-size="10.00">itk::SmartPointer&lt;</text>
<text text-anchor="middle" x="224" y="-85.5" font-family="Helvetica,sans-Serif" font-size="10.00"> Self &gt;</text>
</a>
</g>
</g>
<!-- Node3&#45;&gt;Node1 -->
<g id="edge2" class="edge">
<title>Node3&#45;&gt;Node1</title>
<path fill="none" stroke="#9a32cd" stroke-dasharray="5,2" d="M203.1,-71.03C190.54,-58.13 174.9,-42.07 163.86,-30.73"/>
<polygon fill="#9a32cd" stroke="#9a32cd" points="200.6,-73.48 210.08,-78.2 205.61,-68.6 200.6,-73.48"/>
<text text-anchor="middle" x="224.5" y="-52" font-family="Helvetica,sans-Serif" font-size="10.00"> m_Generator</text>
</g>
</g>
</svg>
