<?xml version="1.0" encoding="UTF-8" standalone="no"?>
<!DOCTYPE svg PUBLIC "-//W3C//DTD SVG 1.1//EN"
 "http://www.w3.org/Graphics/SVG/1.1/DTD/svg11.dtd">
<!-- Generated by graphviz version 2.43.0 (0)
 -->
<!-- Title: itk::BayesianClassifierInitializationImageFilter&lt; TInputImage, TProbabilityPrecisionType &gt; Pages: 1 -->
<svg width="1103pt" height="96pt"
 viewBox="0.00 0.00 1103.00 96.00" xmlns="http://www.w3.org/2000/svg" xmlns:xlink="http://www.w3.org/1999/xlink">
<g id="graph0" class="graph" transform="scale(1 1) rotate(0) translate(4 92)">
<title>itk::BayesianClassifierInitializationImageFilter&lt; TInputImage, TProbabilityPrecisionType &gt;</title>
<polygon fill="white" stroke="transparent" points="-4,4 -4,-92 1099,-92 1099,4 -4,4"/>
<!-- Node1 -->
<g id="node1" class="node">
<title>Node1</title>
<g id="a_node1"><a xlink:title="This filter is intended to be used as a helper class to initialize the BayesianClassifierImageFilter.">
<polygon fill="#bfbfbf" stroke="black" points="886,-13.5 886,-54.5 1095,-54.5 1095,-13.5 886,-13.5"/>
<text text-anchor="start" x="894" y="-42.5" font-family="Helvetica,sans-Serif" font-size="10.00">itk::BayesianClassifierInitialization</text>
<text text-anchor="start" x="894" y="-31.5" font-family="Helvetica,sans-Serif" font-size="10.00">ImageFilter&lt; TInputImage, TProbability</text>
<text text-anchor="middle" x="990.5" y="-20.5" font-family="Helvetica,sans-Serif" font-size="10.00">PrecisionType &gt;</text>
</a>
</g>
</g>
<!-- Node2 -->
<g id="node2" class="node">
<title>Node2</title>
<g id="a_node2"><a xlink:href="classitk_1_1ImageToImageFilter.html" target="_top" xlink:title=" ">
<polygon fill="white" stroke="black" points="621,-13.5 621,-54.5 850,-54.5 850,-13.5 621,-13.5"/>
<text text-anchor="start" x="629" y="-42.5" font-family="Helvetica,sans-Serif" font-size="10.00">itk::ImageToImageFilter</text>
<text text-anchor="start" x="629" y="-31.5" font-family="Helvetica,sans-Serif" font-size="10.00">&lt; TInputImage, VectorImage</text>
<text text-anchor="middle" x="735.5" y="-20.5" font-family="Helvetica,sans-Serif" font-size="10.00">&lt; float, TInputImage::ImageDimension &gt; &gt;</text>
</a>
</g>
</g>
<!-- Node2&#45;&gt;Node1 -->
<g id="edge1" class="edge">
<title>Node2&#45;&gt;Node1</title>
<path fill="none" stroke="midnightblue" d="M860.16,-34C868.79,-34 877.44,-34 885.95,-34"/>
<polygon fill="midnightblue" stroke="midnightblue" points="860.05,-30.5 850.05,-34 860.05,-37.5 860.05,-30.5"/>
</g>
<!-- Node3 -->
<g id="node3" class="node">
<title>Node3</title>
<g id="a_node3"><a xlink:href="classitk_1_1ImageSource.html" target="_top" xlink:title=" ">
<polygon fill="white" stroke="black" points="423,-38.5 423,-79.5 571,-79.5 571,-38.5 423,-38.5"/>
<text text-anchor="start" x="431" y="-67.5" font-family="Helvetica,sans-Serif" font-size="10.00">itk::ImageSource&lt; Vector</text>
<text text-anchor="start" x="431" y="-56.5" font-family="Helvetica,sans-Serif" font-size="10.00">Image&lt; float, TInputImage</text>
<text text-anchor="middle" x="497" y="-45.5" font-family="Helvetica,sans-Serif" font-size="10.00">::ImageDimension &gt; &gt;</text>
</a>
</g>
</g>
<!-- Node3&#45;&gt;Node2 -->
<g id="edge2" class="edge">
<title>Node3&#45;&gt;Node2</title>
<path fill="none" stroke="midnightblue" d="M581.32,-50.19C594.11,-48.84 607.49,-47.43 620.8,-46.02"/>
<polygon fill="midnightblue" stroke="midnightblue" points="580.79,-46.73 571.21,-51.26 581.52,-53.69 580.79,-46.73"/>
</g>
<!-- Node4 -->
<g id="node4" class="node">
<title>Node4</title>
<g id="a_node4"><a xlink:href="classitk_1_1ProcessObject.html" target="_top" xlink:title="The base class for all process objects (source, filters, mappers) in the Insight data processing pipe...">
<polygon fill="white" stroke="black" points="249.5,-68.5 249.5,-87.5 353.5,-87.5 353.5,-68.5 249.5,-68.5"/>
<text text-anchor="middle" x="301.5" y="-75.5" font-family="Helvetica,sans-Serif" font-size="10.00">itk::ProcessObject</text>
</a>
</g>
</g>
<!-- Node4&#45;&gt;Node3 -->
<g id="edge3" class="edge">
<title>Node4&#45;&gt;Node3</title>
<path fill="none" stroke="midnightblue" d="M363.77,-71.98C382.5,-70.14 403.3,-68.1 422.75,-66.19"/>
<polygon fill="midnightblue" stroke="midnightblue" points="363.2,-68.52 353.59,-72.98 363.89,-75.49 363.2,-68.52"/>
</g>
<!-- Node5 -->
<g id="node5" class="node">
<title>Node5</title>
<g id="a_node5"><a xlink:href="classitk_1_1Object.html" target="_top" xlink:title="Base class for most ITK classes.">
<polygon fill="white" stroke="black" points="127,-68.5 127,-87.5 194,-87.5 194,-68.5 127,-68.5"/>
<text text-anchor="middle" x="160.5" y="-75.5" font-family="Helvetica,sans-Serif" font-size="10.00">itk::Object</text>
</a>
</g>
</g>
<!-- Node5&#45;&gt;Node4 -->
<g id="edge4" class="edge">
<title>Node5&#45;&gt;Node4</title>
<path fill="none" stroke="midnightblue" d="M204.13,-78C218.41,-78 234.48,-78 249.35,-78"/>
<polygon fill="midnightblue" stroke="midnightblue" points="204.09,-74.5 194.09,-78 204.09,-81.5 204.09,-74.5"/>
</g>
<!-- Node6 -->
<g id="node6" class="node">
<title>Node6</title>
<g id="a_node6"><a xlink:href="classitk_1_1LightObject.html" target="_top" xlink:title="Light weight base class for most itk classes.">
<polygon fill="white" stroke="black" points="0,-68.5 0,-87.5 91,-87.5 91,-68.5 0,-68.5"/>
<text text-anchor="middle" x="45.5" y="-75.5" font-family="Helvetica,sans-Serif" font-size="10.00">itk::LightObject</text>
</a>
</g>
</g>
<!-- Node6&#45;&gt;Node5 -->
<g id="edge5" class="edge">
<title>Node6&#45;&gt;Node5</title>
<path fill="none" stroke="midnightblue" d="M101.28,-78C109.96,-78 118.69,-78 126.66,-78"/>
<polygon fill="midnightblue" stroke="midnightblue" points="101.16,-74.5 91.16,-78 101.16,-81.5 101.16,-74.5"/>
</g>
<!-- Node7 -->
<g id="node7" class="node">
<title>Node7</title>
<g id="a_node7"><a xlink:href="structitk_1_1ImageSourceCommon.html" target="_top" xlink:title="Secondary base class of ImageSource common between templates.">
<polygon fill="white" stroke="black" points="230,-30.5 230,-49.5 373,-49.5 373,-30.5 230,-30.5"/>
<text text-anchor="middle" x="301.5" y="-37.5" font-family="Helvetica,sans-Serif" font-size="10.00">itk::ImageSourceCommon</text>
</a>
</g>
</g>
<!-- Node7&#45;&gt;Node3 -->
<g id="edge6" class="edge">
<title>Node7&#45;&gt;Node3</title>
<path fill="none" stroke="#8b1a1a" d="M383.16,-47.92C396.34,-49.21 409.93,-50.55 422.91,-51.82"/>
<polygon fill="#8b1a1a" stroke="#8b1a1a" points="383.47,-44.43 373.18,-46.94 382.79,-51.4 383.47,-44.43"/>
</g>
<!-- Node8 -->
<g id="node8" class="node">
<title>Node8</title>
<g id="a_node8"><a xlink:href="classitk_1_1ImageToImageFilterCommon.html" target="_top" xlink:title="Secondary base class of ImageToImageFilter common between templates.">
<polygon fill="white" stroke="black" points="409,-0.5 409,-19.5 585,-19.5 585,-0.5 409,-0.5"/>
<text text-anchor="middle" x="497" y="-7.5" font-family="Helvetica,sans-Serif" font-size="10.00">itk::ImageToImageFilterCommon</text>
</a>
</g>
</g>
<!-- Node8&#45;&gt;Node2 -->
<g id="edge7" class="edge">
<title>Node8&#45;&gt;Node2</title>
<path fill="none" stroke="#8b1a1a" d="M595.2,-19.86C603.59,-20.72 612.12,-21.58 620.63,-22.44"/>
<polygon fill="#8b1a1a" stroke="#8b1a1a" points="595.36,-16.36 585.06,-18.83 594.65,-23.33 595.36,-16.36"/>
</g>
</g>
</svg>
