<?xml version="1.0" encoding="UTF-8" standalone="no"?>
<!DOCTYPE svg PUBLIC "-//W3C//DTD SVG 1.1//EN"
 "http://www.w3.org/Graphics/SVG/1.1/DTD/svg11.dtd">
<!-- Generated by graphviz version 2.43.0 (0)
 -->
<!-- Title: itk::LBFGSBOptimizerv4 Pages: 1 -->
<svg width="2307pt" height="434pt"
 viewBox="0.00 0.00 2307.00 434.00" xmlns="http://www.w3.org/2000/svg" xmlns:xlink="http://www.w3.org/1999/xlink">
<g id="graph0" class="graph" transform="scale(1 1) rotate(0) translate(4 430)">
<title>itk::LBFGSBOptimizerv4</title>
<polygon fill="white" stroke="transparent" points="-4,4 -4,-430 2303,-430 2303,4 -4,4"/>
<!-- Node1 -->
<g id="node1" class="node">
<title>Node1</title>
<g id="a_node1"><a xlink:title="Limited memory Broyden Fletcher Goldfarb Shannon minimization with simple bounds.">
<polygon fill="#bfbfbf" stroke="black" points="2165,-38.5 2165,-57.5 2299,-57.5 2299,-38.5 2165,-38.5"/>
<text text-anchor="middle" x="2232" y="-45.5" font-family="Helvetica,sans-Serif" font-size="10.00">itk::LBFGSBOptimizerv4</text>
</a>
</g>
</g>
<!-- Node2 -->
<g id="node2" class="node">
<title>Node2</title>
<g id="a_node2"><a xlink:href="classitk_1_1LBFGSOptimizerBasev4.html" target="_top" xlink:title=" ">
<polygon fill="white" stroke="black" points="1884,-217 1884,-247 2035,-247 2035,-217 1884,-217"/>
<text text-anchor="start" x="1892" y="-235" font-family="Helvetica,sans-Serif" font-size="10.00">itk::LBFGSOptimizerBasev4</text>
<text text-anchor="middle" x="1959.5" y="-224" font-family="Helvetica,sans-Serif" font-size="10.00">&lt; vnl_lbfgsb &gt;</text>
</a>
</g>
</g>
<!-- Node2&#45;&gt;Node1 -->
<g id="edge1" class="edge">
<title>Node2&#45;&gt;Node1</title>
<path fill="none" stroke="midnightblue" d="M1991.08,-211.2C2049.47,-171.48 2174.79,-86.23 2216.88,-57.6"/>
<polygon fill="midnightblue" stroke="midnightblue" points="1988.94,-208.42 1982.64,-216.94 1992.87,-214.21 1988.94,-208.42"/>
</g>
<!-- Node3 -->
<g id="node3" class="node">
<title>Node3</title>
<g id="a_node3"><a xlink:href="classitk_1_1SingleValuedNonLinearVnlOptimizerv4.html" target="_top" xlink:title="This is a base for the ITKv4 Optimization methods using the vnl library.">
<polygon fill="white" stroke="black" points="1558,-194 1558,-224 1706,-224 1706,-194 1558,-194"/>
<text text-anchor="start" x="1566" y="-212" font-family="Helvetica,sans-Serif" font-size="10.00">itk::SingleValuedNonLinear</text>
<text text-anchor="middle" x="1632" y="-201" font-family="Helvetica,sans-Serif" font-size="10.00">VnlOptimizerv4</text>
</a>
</g>
</g>
<!-- Node3&#45;&gt;Node2 -->
<g id="edge2" class="edge">
<title>Node3&#45;&gt;Node2</title>
<path fill="none" stroke="midnightblue" d="M1716.18,-214.88C1767.85,-218.53 1833.71,-223.18 1883.72,-226.72"/>
<polygon fill="midnightblue" stroke="midnightblue" points="1716.27,-211.38 1706.05,-214.16 1715.78,-218.36 1716.27,-211.38"/>
</g>
<!-- Node4 -->
<g id="node4" class="node">
<title>Node4</title>
<g id="a_node4"><a xlink:href="classitk_1_1ObjectToObjectOptimizerBaseTemplate.html" target="_top" xlink:title=" ">
<polygon fill="white" stroke="black" points="1245,-225 1245,-255 1402,-255 1402,-225 1245,-225"/>
<text text-anchor="start" x="1253" y="-243" font-family="Helvetica,sans-Serif" font-size="10.00">itk::ObjectToObjectOptimizer</text>
<text text-anchor="middle" x="1323.5" y="-232" font-family="Helvetica,sans-Serif" font-size="10.00">BaseTemplate&lt; double &gt;</text>
</a>
</g>
</g>
<!-- Node4&#45;&gt;Node3 -->
<g id="edge3" class="edge">
<title>Node4&#45;&gt;Node3</title>
<path fill="none" stroke="midnightblue" d="M1412.22,-231.13C1458.29,-226.47 1514.1,-220.82 1557.82,-216.4"/>
<polygon fill="midnightblue" stroke="midnightblue" points="1411.84,-227.65 1402.24,-232.14 1412.54,-234.61 1411.84,-227.65"/>
</g>
<!-- Node5 -->
<g id="node5" class="node">
<title>Node5</title>
<g id="a_node5"><a xlink:href="classitk_1_1Object.html" target="_top" xlink:title="Base class for most ITK classes.">
<polygon fill="white" stroke="black" points="1008,-324.5 1008,-343.5 1075,-343.5 1075,-324.5 1008,-324.5"/>
<text text-anchor="middle" x="1041.5" y="-331.5" font-family="Helvetica,sans-Serif" font-size="10.00">itk::Object</text>
</a>
</g>
</g>
<!-- Node5&#45;&gt;Node4 -->
<g id="edge4" class="edge">
<title>Node5&#45;&gt;Node4</title>
<path fill="none" stroke="midnightblue" d="M1085.53,-334.38C1125.61,-332.7 1185.28,-324.75 1227,-295 1239.66,-285.97 1232.82,-274.67 1245,-265 1249.87,-261.13 1255.36,-257.85 1261.1,-255.08"/>
<polygon fill="midnightblue" stroke="midnightblue" points="1085.17,-330.89 1075.28,-334.7 1085.39,-337.89 1085.17,-330.89"/>
</g>
<!-- Node6 -->
<g id="node6" class="node">
<title>Node6</title>
<g id="a_node6"><a xlink:href="classitk_1_1LightObject.html" target="_top" xlink:title="Light weight base class for most itk classes.">
<polygon fill="white" stroke="black" points="687.5,-365.5 687.5,-384.5 778.5,-384.5 778.5,-365.5 687.5,-365.5"/>
<text text-anchor="middle" x="733" y="-372.5" font-family="Helvetica,sans-Serif" font-size="10.00">itk::LightObject</text>
</a>
</g>
</g>
<!-- Node6&#45;&gt;Node5 -->
<g id="edge5" class="edge">
<title>Node6&#45;&gt;Node5</title>
<path fill="none" stroke="midnightblue" d="M788.54,-369.32C832.91,-364.5 897.11,-357.1 953,-349 971.15,-346.37 991.33,-342.94 1007.74,-340.03"/>
<polygon fill="midnightblue" stroke="midnightblue" points="788.12,-365.84 778.55,-370.39 788.87,-372.8 788.12,-365.84"/>
</g>
<!-- Node7 -->
<g id="node7" class="node">
<title>Node7</title>
<g id="a_node7"><a xlink:title=" ">
<polygon fill="white" stroke="#bfbfbf" points="382.5,-368.5 382.5,-387.5 489.5,-387.5 489.5,-368.5 382.5,-368.5"/>
<text text-anchor="middle" x="436" y="-375.5" font-family="Helvetica,sans-Serif" font-size="10.00">std::atomic&lt; int &gt;</text>
</a>
</g>
</g>
<!-- Node7&#45;&gt;Node6 -->
<g id="edge6" class="edge">
<title>Node7&#45;&gt;Node6</title>
<path fill="none" stroke="#9a32cd" stroke-dasharray="5,2" d="M499.96,-377.36C556.32,-376.79 637.54,-375.96 687.43,-375.45"/>
<polygon fill="#9a32cd" stroke="#9a32cd" points="499.7,-373.86 489.74,-377.46 499.78,-380.86 499.7,-373.86"/>
<text text-anchor="middle" x="581.5" y="-379" font-family="Helvetica,sans-Serif" font-size="10.00"> m_ReferenceCount</text>
</g>
<!-- Node8 -->
<g id="node8" class="node">
<title>Node8</title>
<g id="a_node8"><a xlink:title="STL class.">
<polygon fill="white" stroke="#bfbfbf" points="700.5,-324.5 700.5,-343.5 765.5,-343.5 765.5,-324.5 700.5,-324.5"/>
<text text-anchor="middle" x="733" y="-331.5" font-family="Helvetica,sans-Serif" font-size="10.00">std::string</text>
</a>
</g>
</g>
<!-- Node8&#45;&gt;Node5 -->
<g id="edge7" class="edge">
<title>Node8&#45;&gt;Node5</title>
<path fill="none" stroke="#9a32cd" stroke-dasharray="5,2" d="M775.8,-334C837.47,-334 951.56,-334 1007.64,-334"/>
<polygon fill="#9a32cd" stroke="#9a32cd" points="775.65,-330.5 765.65,-334 775.65,-337.5 775.65,-330.5"/>
<text text-anchor="middle" x="894.5" y="-337" font-family="Helvetica,sans-Serif" font-size="10.00"> m_ObjectName</text>
</g>
<!-- Node9 -->
<g id="node9" class="node">
<title>Node9</title>
<g id="a_node9"><a xlink:title="STL class.">
<polygon fill="white" stroke="#bfbfbf" points="384,-319 384,-349 488,-349 488,-319 384,-319"/>
<text text-anchor="start" x="392" y="-337" font-family="Helvetica,sans-Serif" font-size="10.00">std::basic_string&lt;</text>
<text text-anchor="middle" x="436" y="-326" font-family="Helvetica,sans-Serif" font-size="10.00"> char &gt;</text>
</a>
</g>
</g>
<!-- Node9&#45;&gt;Node8 -->
<g id="edge8" class="edge">
<title>Node9&#45;&gt;Node8</title>
<path fill="none" stroke="midnightblue" d="M498.4,-334C559.88,-334 652.08,-334 700.19,-334"/>
<polygon fill="midnightblue" stroke="midnightblue" points="498.05,-330.5 488.05,-334 498.05,-337.5 498.05,-330.5"/>
</g>
<!-- Node10 -->
<g id="node10" class="node">
<title>Node10</title>
<g id="a_node10"><a xlink:href="classitk_1_1MetaDataDictionary.html" target="_top" xlink:title="Provides a mechanism for storing a collection of arbitrary data types.">
<polygon fill="white" stroke="black" points="666,-281.5 666,-300.5 800,-300.5 800,-281.5 666,-281.5"/>
<text text-anchor="middle" x="733" y="-288.5" font-family="Helvetica,sans-Serif" font-size="10.00">itk::MetaDataDictionary</text>
</a>
</g>
</g>
<!-- Node10&#45;&gt;Node5 -->
<g id="edge9" class="edge">
<title>Node10&#45;&gt;Node5</title>
<path fill="none" stroke="#9a32cd" stroke-dasharray="5,2" d="M810.41,-299.96C852.53,-305.1 905.72,-311.93 953,-319 971.14,-321.71 991.32,-325.15 1007.73,-328.04"/>
<polygon fill="#9a32cd" stroke="#9a32cd" points="810.58,-296.45 800.23,-298.72 809.73,-303.4 810.58,-296.45"/>
<text text-anchor="middle" x="894.5" y="-322" font-family="Helvetica,sans-Serif" font-size="10.00"> m_MetaDataDictionary</text>
</g>
<!-- Node11 -->
<g id="node11" class="node">
<title>Node11</title>
<g id="a_node11"><a xlink:title=" ">
<polygon fill="white" stroke="#bfbfbf" points="361.5,-270 361.5,-300 510.5,-300 510.5,-270 361.5,-270"/>
<text text-anchor="start" x="369.5" y="-288" font-family="Helvetica,sans-Serif" font-size="10.00">std::shared_ptr&lt; MetaData</text>
<text text-anchor="middle" x="436" y="-277" font-family="Helvetica,sans-Serif" font-size="10.00">DictionaryMapType &gt;</text>
</a>
</g>
</g>
<!-- Node11&#45;&gt;Node10 -->
<g id="edge10" class="edge">
<title>Node11&#45;&gt;Node10</title>
<path fill="none" stroke="#9a32cd" stroke-dasharray="5,2" d="M520.92,-286.71C566.86,-287.64 622.97,-288.78 665.79,-289.65"/>
<polygon fill="#9a32cd" stroke="#9a32cd" points="520.75,-283.2 510.68,-286.5 520.61,-290.2 520.75,-283.2"/>
<text text-anchor="middle" x="581.5" y="-291" font-family="Helvetica,sans-Serif" font-size="10.00"> m_Dictionary</text>
</g>
<!-- Node12 -->
<g id="node12" class="node">
<title>Node12</title>
<g id="a_node12"><a xlink:title="STL class.">
<polygon fill="white" stroke="#bfbfbf" points="114,-275.5 114,-294.5 215,-294.5 215,-275.5 114,-275.5"/>
<text text-anchor="middle" x="164.5" y="-282.5" font-family="Helvetica,sans-Serif" font-size="10.00">std::map&lt; K, T &gt;</text>
</a>
</g>
</g>
<!-- Node12&#45;&gt;Node11 -->
<g id="edge11" class="edge">
<title>Node12&#45;&gt;Node11</title>
<path fill="none" stroke="#9a32cd" stroke-dasharray="5,2" d="M225.42,-285C265.56,-285 318.68,-285 361.39,-285"/>
<polygon fill="#9a32cd" stroke="#9a32cd" points="225.24,-281.5 215.24,-285 225.24,-288.5 225.24,-281.5"/>
<text text-anchor="middle" x="286" y="-288" font-family="Helvetica,sans-Serif" font-size="10.00"> ptr</text>
</g>
<!-- Node13 -->
<g id="node13" class="node">
<title>Node13</title>
<g id="a_node13"><a xlink:title=" ">
<polygon fill="white" stroke="#bfbfbf" points="0,-299.5 0,-318.5 29,-318.5 29,-299.5 0,-299.5"/>
<text text-anchor="middle" x="14.5" y="-306.5" font-family="Helvetica,sans-Serif" font-size="10.00">K</text>
</a>
</g>
</g>
<!-- Node13&#45;&gt;Node12 -->
<g id="edge12" class="edge">
<title>Node13&#45;&gt;Node12</title>
<path fill="none" stroke="#9a32cd" stroke-dasharray="5,2" d="M39.24,-305.15C59.28,-301.9 88.63,-297.14 113.78,-293.06"/>
<polygon fill="#9a32cd" stroke="#9a32cd" points="38.47,-301.73 29.16,-306.79 39.59,-308.64 38.47,-301.73"/>
<text text-anchor="middle" x="71.5" y="-306" font-family="Helvetica,sans-Serif" font-size="10.00"> keys</text>
</g>
<!-- Node14 -->
<g id="node14" class="node">
<title>Node14</title>
<g id="a_node14"><a xlink:title=" ">
<polygon fill="white" stroke="#bfbfbf" points="0,-246.5 0,-265.5 29,-265.5 29,-246.5 0,-246.5"/>
<text text-anchor="middle" x="14.5" y="-253.5" font-family="Helvetica,sans-Serif" font-size="10.00">T</text>
</a>
</g>
</g>
<!-- Node14&#45;&gt;Node12 -->
<g id="edge13" class="edge">
<title>Node14&#45;&gt;Node12</title>
<path fill="none" stroke="#9a32cd" stroke-dasharray="5,2" d="M39.09,-260.62C59.39,-264.6 89.35,-270.47 114.78,-275.45"/>
<polygon fill="#9a32cd" stroke="#9a32cd" points="39.64,-257.16 29.16,-258.68 38.3,-264.03 39.64,-257.16"/>
<text text-anchor="middle" x="71.5" y="-274" font-family="Helvetica,sans-Serif" font-size="10.00"> elements</text>
</g>
<!-- Node16 -->
<g id="node16" class="node">
<title>Node16</title>
<g id="a_node16"><a xlink:title="STL class.">
<polygon fill="white" stroke="#bfbfbf" points="114.5,-231.5 114.5,-250.5 214.5,-250.5 214.5,-231.5 114.5,-231.5"/>
<text text-anchor="middle" x="164.5" y="-238.5" font-family="Helvetica,sans-Serif" font-size="10.00">std::atomic&lt; T &gt;</text>
</a>
</g>
</g>
<!-- Node14&#45;&gt;Node16 -->
<g id="edge16" class="edge">
<title>Node14&#45;&gt;Node16</title>
<path fill="none" stroke="#9a32cd" stroke-dasharray="5,2" d="M38.4,-244.54C41.24,-243.51 44.15,-242.62 47,-242 68.74,-237.29 93.31,-236.44 114.26,-237.01"/>
<polygon fill="#9a32cd" stroke="#9a32cd" points="37.03,-241.32 29.19,-248.45 39.77,-247.77 37.03,-241.32"/>
<text text-anchor="middle" x="71.5" y="-245" font-family="Helvetica,sans-Serif" font-size="10.00"> ptr</text>
</g>
<!-- Node15 -->
<g id="node15" class="node">
<title>Node15</title>
<g id="a_node15"><a xlink:href="classitk_1_1TimeStamp.html" target="_top" xlink:title="Generate a unique, increasing time value.">
<polygon fill="white" stroke="black" points="535.5,-234.5 535.5,-253.5 627.5,-253.5 627.5,-234.5 535.5,-234.5"/>
<text text-anchor="middle" x="581.5" y="-241.5" font-family="Helvetica,sans-Serif" font-size="10.00">itk::TimeStamp</text>
</a>
</g>
</g>
<!-- Node15&#45;&gt;Node5 -->
<g id="edge14" class="edge">
<title>Node15&#45;&gt;Node5</title>
<path fill="none" stroke="#9a32cd" stroke-dasharray="5,2" d="M637.82,-240.7C713.67,-238.62 852.06,-243.79 953,-299 962.39,-304.14 961.59,-309.9 971,-315 982.33,-321.14 995.79,-325.42 1007.84,-328.33"/>
<polygon fill="#9a32cd" stroke="#9a32cd" points="637.42,-237.21 627.54,-241.03 637.65,-244.21 637.42,-237.21"/>
<text text-anchor="middle" x="733" y="-256" font-family="Helvetica,sans-Serif" font-size="10.00"> m_MTime</text>
</g>
<!-- Node16&#45;&gt;Node15 -->
<g id="edge15" class="edge">
<title>Node16&#45;&gt;Node15</title>
<path fill="none" stroke="#9a32cd" stroke-dasharray="5,2" d="M224.87,-241.43C308.76,-242.04 460.15,-243.13 535.44,-243.67"/>
<polygon fill="#9a32cd" stroke="#9a32cd" points="224.76,-237.93 214.74,-241.36 224.71,-244.93 224.76,-237.93"/>
<text text-anchor="middle" x="286" y="-245" font-family="Helvetica,sans-Serif" font-size="10.00"> m_GlobalTimeStamp</text>
</g>
<!-- Node17 -->
<g id="node17" class="node">
<title>Node17</title>
<g id="a_node17"><a xlink:href="classitk_1_1SmartPointer.html" target="_top" xlink:title=" ">
<polygon fill="white" stroke="black" points="988,-89 988,-119 1095,-119 1095,-89 988,-89"/>
<text text-anchor="start" x="996" y="-107" font-family="Helvetica,sans-Serif" font-size="10.00">itk::SmartPointer&lt;</text>
<text text-anchor="middle" x="1041.5" y="-96" font-family="Helvetica,sans-Serif" font-size="10.00"> Self &gt;</text>
</a>
</g>
</g>
<!-- Node17&#45;&gt;Node3 -->
<g id="edge31" class="edge">
<title>Node17&#45;&gt;Node3</title>
<path fill="none" stroke="#9a32cd" stroke-dasharray="5,2" d="M1105.52,-96.24C1141.29,-93.18 1186.82,-91.53 1227,-97 1363.49,-115.57 1518.96,-167.89 1590.76,-193.91"/>
<polygon fill="#9a32cd" stroke="#9a32cd" points="1104.86,-92.79 1095.22,-97.19 1105.5,-99.76 1104.86,-92.79"/>
<text text-anchor="middle" x="1323.5" y="-137" font-family="Helvetica,sans-Serif" font-size="10.00"> m_Command</text>
</g>
<!-- Node17&#45;&gt;Node4 -->
<g id="edge17" class="edge">
<title>Node17&#45;&gt;Node4</title>
<path fill="none" stroke="#9a32cd" stroke-dasharray="5,2" d="M1104.92,-121.57C1113.33,-123.8 1121.86,-126 1130,-128 1172.84,-138.5 1194.68,-118.98 1227,-149 1247.71,-168.24 1225.85,-189.21 1245,-210 1250.67,-216.16 1257.75,-221.06 1265.3,-224.97"/>
<polygon fill="#9a32cd" stroke="#9a32cd" points="1105.69,-118.15 1095.13,-118.93 1103.88,-124.91 1105.69,-118.15"/>
<text text-anchor="middle" x="1178.5" y="-152" font-family="Helvetica,sans-Serif" font-size="10.00"> m_ScalesEstimator</text>
</g>
<!-- Node24 -->
<g id="node24" class="node">
<title>Node24</title>
<g id="a_node24"><a xlink:href="classitk_1_1SingleValuedVnlCostFunctionAdaptorv4.html" target="_top" xlink:title="This class is an Adaptor that allows to pass itk::ObjectToObjectMetricBase objects to vnl_optimizers ...">
<polygon fill="white" stroke="black" points="1255.5,-171 1255.5,-201 1391.5,-201 1391.5,-171 1255.5,-171"/>
<text text-anchor="start" x="1263.5" y="-189" font-family="Helvetica,sans-Serif" font-size="10.00">itk::SingleValuedVnlCost</text>
<text text-anchor="middle" x="1323.5" y="-178" font-family="Helvetica,sans-Serif" font-size="10.00">FunctionAdaptorv4</text>
</a>
</g>
</g>
<!-- Node17&#45;&gt;Node24 -->
<g id="edge30" class="edge">
<title>Node17&#45;&gt;Node24</title>
<path fill="none" stroke="#9a32cd" stroke-dasharray="5,2" d="M1105.41,-99.99C1141.93,-99.71 1188.23,-102.94 1227,-117 1258.92,-128.58 1289.6,-154.15 1307.22,-170.71"/>
<polygon fill="#9a32cd" stroke="#9a32cd" points="1105.32,-96.49 1095.38,-100.16 1105.44,-103.49 1105.32,-96.49"/>
<text text-anchor="middle" x="1178.5" y="-120" font-family="Helvetica,sans-Serif" font-size="10.00"> m_Reporter</text>
</g>
<!-- Node18 -->
<g id="node18" class="node">
<title>Node18</title>
<g id="a_node18"><a xlink:href="classitk_1_1SmartPointer.html" target="_top" xlink:title="Implements transparent reference counting.">
<polygon fill="white" stroke="black" points="988,-275 988,-305 1095,-305 1095,-275 988,-275"/>
<text text-anchor="start" x="996" y="-293" font-family="Helvetica,sans-Serif" font-size="10.00">itk::SmartPointer&lt;</text>
<text text-anchor="middle" x="1041.5" y="-282" font-family="Helvetica,sans-Serif" font-size="10.00"> TObjectType &gt;</text>
</a>
</g>
</g>
<!-- Node18&#45;&gt;Node4 -->
<g id="edge18" class="edge">
<title>Node18&#45;&gt;Node4</title>
<path fill="none" stroke="#9a32cd" stroke-dasharray="5,2" d="M1105.6,-283.95C1141.41,-279.98 1186.93,-274.02 1227,-266 1241.83,-263.03 1257.75,-259.03 1272.25,-255.06"/>
<polygon fill="#9a32cd" stroke="#9a32cd" points="1104.86,-280.51 1095.3,-285.07 1105.62,-287.47 1104.86,-280.51"/>
<text text-anchor="middle" x="1178.5" y="-283" font-family="Helvetica,sans-Serif" font-size="10.00"> m_Metric</text>
</g>
<!-- Node19 -->
<g id="node19" class="node">
<title>Node19</title>
<g id="a_node19"><a xlink:href="classitk_1_1OptimizerParameters.html" target="_top" xlink:title=" ">
<polygon fill="white" stroke="black" points="972,-226 972,-256 1111,-256 1111,-226 972,-226"/>
<text text-anchor="start" x="980" y="-244" font-family="Helvetica,sans-Serif" font-size="10.00">itk::OptimizerParameters</text>
<text text-anchor="middle" x="1041.5" y="-233" font-family="Helvetica,sans-Serif" font-size="10.00">&lt; double &gt;</text>
</a>
</g>
</g>
<!-- Node19&#45;&gt;Node4 -->
<g id="edge19" class="edge">
<title>Node19&#45;&gt;Node4</title>
<path fill="none" stroke="#9a32cd" stroke-dasharray="5,2" d="M1121.5,-240.72C1160.09,-240.58 1206.35,-240.41 1244.77,-240.28"/>
<polygon fill="#9a32cd" stroke="#9a32cd" points="1121.34,-237.22 1111.35,-240.75 1121.37,-244.22 1121.34,-237.22"/>
<text text-anchor="middle" x="1178.5" y="-254" font-family="Helvetica,sans-Serif" font-size="10.00"> m_Scales</text>
<text text-anchor="middle" x="1178.5" y="-243" font-family="Helvetica,sans-Serif" font-size="10.00">m_Weights</text>
</g>
<!-- Node20 -->
<g id="node20" class="node">
<title>Node20</title>
<g id="a_node20"><a xlink:href="classitk_1_1Array.html" target="_top" xlink:title=" ">
<polygon fill="white" stroke="black" points="674.5,-69.5 674.5,-88.5 791.5,-88.5 791.5,-69.5 674.5,-69.5"/>
<text text-anchor="middle" x="733" y="-76.5" font-family="Helvetica,sans-Serif" font-size="10.00">itk::Array&lt; double &gt;</text>
</a>
</g>
</g>
<!-- Node20&#45;&gt;Node1 -->
<g id="edge39" class="edge">
<title>Node20&#45;&gt;Node1</title>
<path fill="none" stroke="#9a32cd" stroke-dasharray="5,2" d="M801.77,-68.19C863.75,-59.24 958.05,-48 1040.5,-48 1040.5,-48 1040.5,-48 1960.5,-48 2030.24,-48 2110.09,-48 2164.86,-48"/>
<polygon fill="#9a32cd" stroke="#9a32cd" points="801.12,-64.75 791.73,-69.66 802.13,-71.67 801.12,-64.75"/>
<text text-anchor="middle" x="1480" y="-62" font-family="Helvetica,sans-Serif" font-size="10.00"> m_LowerBound</text>
<text text-anchor="middle" x="1480" y="-51" font-family="Helvetica,sans-Serif" font-size="10.00">m_UpperBound</text>
</g>
<!-- Node20&#45;&gt;Node19 -->
<g id="edge20" class="edge">
<title>Node20&#45;&gt;Node19</title>
<path fill="none" stroke="midnightblue" d="M801.68,-86.9C850.03,-95.98 913.31,-115.44 953,-157 971.93,-176.83 952.1,-196.14 971,-216 974.71,-219.9 979.08,-223.19 983.78,-225.98"/>
<polygon fill="midnightblue" stroke="midnightblue" points="802.06,-83.41 791.6,-85.11 800.84,-90.3 802.06,-83.41"/>
</g>
<!-- Node21 -->
<g id="node21" class="node">
<title>Node21</title>
<g id="a_node21"><a xlink:title=" ">
<polygon fill="white" stroke="#bfbfbf" points="374.5,-69.5 374.5,-88.5 497.5,-88.5 497.5,-69.5 374.5,-69.5"/>
<text text-anchor="middle" x="436" y="-76.5" font-family="Helvetica,sans-Serif" font-size="10.00">vnl_vector&lt; double &gt;</text>
</a>
</g>
</g>
<!-- Node21&#45;&gt;Node20 -->
<g id="edge21" class="edge">
<title>Node21&#45;&gt;Node20</title>
<path fill="none" stroke="midnightblue" d="M508.04,-79C558.98,-79 626.72,-79 674.32,-79"/>
<polygon fill="midnightblue" stroke="midnightblue" points="507.77,-75.5 497.77,-79 507.77,-82.5 507.77,-75.5"/>
</g>
<!-- Node22 -->
<g id="node22" class="node">
<title>Node22</title>
<g id="a_node22"><a xlink:title=" ">
<polygon fill="white" stroke="#bfbfbf" points="648,-164 648,-194 818,-194 818,-164 648,-164"/>
<text text-anchor="start" x="656" y="-182" font-family="Helvetica,sans-Serif" font-size="10.00">std::unique_ptr&lt; itk</text>
<text text-anchor="middle" x="733" y="-171" font-family="Helvetica,sans-Serif" font-size="10.00">::OptimizerParametersHelper &gt;</text>
</a>
</g>
</g>
<!-- Node22&#45;&gt;Node19 -->
<g id="edge22" class="edge">
<title>Node22&#45;&gt;Node19</title>
<path fill="none" stroke="#9a32cd" stroke-dasharray="5,2" d="M818.02,-196C866.41,-205.78 926.46,-217.93 971.97,-227.14"/>
<polygon fill="#9a32cd" stroke="#9a32cd" points="818.69,-192.56 808.2,-194.01 817.3,-199.42 818.69,-192.56"/>
<text text-anchor="middle" x="894.5" y="-226" font-family="Helvetica,sans-Serif" font-size="10.00"> m_Helper</text>
</g>
<!-- Node26 -->
<g id="node26" class="node">
<title>Node26</title>
<g id="a_node26"><a xlink:href="classitk_1_1OptimizerParameters.html" target="_top" xlink:title=" ">
<polygon fill="white" stroke="black" points="971,-138 971,-168 1112,-168 1112,-138 971,-138"/>
<text text-anchor="start" x="979" y="-156" font-family="Helvetica,sans-Serif" font-size="10.00">itk::OptimizerParameters</text>
<text text-anchor="middle" x="1041.5" y="-145" font-family="Helvetica,sans-Serif" font-size="10.00">&lt; InternalMeasureType &gt;</text>
</a>
</g>
</g>
<!-- Node22&#45;&gt;Node26 -->
<g id="edge29" class="edge">
<title>Node22&#45;&gt;Node26</title>
<path fill="none" stroke="#9a32cd" stroke-dasharray="5,2" d="M828.14,-171.01C874.14,-167.11 928.54,-162.5 970.76,-158.92"/>
<polygon fill="#9a32cd" stroke="#9a32cd" points="827.83,-167.53 818.16,-171.86 828.42,-174.5 827.83,-167.53"/>
<text text-anchor="middle" x="894.5" y="-173" font-family="Helvetica,sans-Serif" font-size="10.00"> m_Helper</text>
</g>
<!-- Node23 -->
<g id="node23" class="node">
<title>Node23</title>
<g id="a_node23"><a xlink:href="classitk_1_1OptimizerParametersHelper.html" target="_top" xlink:title="Basic helper class to manage parameter data as an Array type, the default type.">
<polygon fill="white" stroke="black" points="366.5,-164 366.5,-194 505.5,-194 505.5,-164 366.5,-164"/>
<text text-anchor="start" x="374.5" y="-182" font-family="Helvetica,sans-Serif" font-size="10.00">itk::OptimizerParameters</text>
<text text-anchor="middle" x="436" y="-171" font-family="Helvetica,sans-Serif" font-size="10.00">Helper&lt; TValue &gt;</text>
</a>
</g>
</g>
<!-- Node23&#45;&gt;Node22 -->
<g id="edge23" class="edge">
<title>Node23&#45;&gt;Node22</title>
<path fill="none" stroke="#9a32cd" stroke-dasharray="5,2" d="M515.94,-179C556.67,-179 606.36,-179 647.82,-179"/>
<polygon fill="#9a32cd" stroke="#9a32cd" points="515.79,-175.5 505.79,-179 515.79,-182.5 515.79,-175.5"/>
<text text-anchor="middle" x="581.5" y="-182" font-family="Helvetica,sans-Serif" font-size="10.00"> ptr</text>
</g>
<!-- Node24&#45;&gt;Node3 -->
<g id="edge24" class="edge">
<title>Node24&#45;&gt;Node3</title>
<path fill="none" stroke="#9a32cd" stroke-dasharray="5,2" d="M1401.76,-191.8C1449.6,-195.39 1510.66,-199.97 1557.73,-203.5"/>
<polygon fill="#9a32cd" stroke="#9a32cd" points="1402,-188.31 1391.76,-191.05 1401.47,-195.29 1402,-188.31"/>
<text text-anchor="middle" x="1480" y="-205" font-family="Helvetica,sans-Serif" font-size="10.00"> m_CostFunctionAdaptor</text>
</g>
<!-- Node25 -->
<g id="node25" class="node">
<title>Node25</title>
<g id="a_node25"><a xlink:title=" ">
<polygon fill="white" stroke="#bfbfbf" points="990.5,-187.5 990.5,-206.5 1092.5,-206.5 1092.5,-187.5 990.5,-187.5"/>
<text text-anchor="middle" x="1041.5" y="-194.5" font-family="Helvetica,sans-Serif" font-size="10.00">vnl_cost_function</text>
</a>
</g>
</g>
<!-- Node25&#45;&gt;Node24 -->
<g id="edge25" class="edge">
<title>Node25&#45;&gt;Node24</title>
<path fill="none" stroke="midnightblue" d="M1103,-198.18C1139.04,-198.5 1185.66,-198.27 1227,-196 1236.15,-195.5 1245.78,-194.75 1255.26,-193.88"/>
<polygon fill="midnightblue" stroke="midnightblue" points="1102.69,-194.67 1092.66,-198.07 1102.62,-201.67 1102.69,-194.67"/>
</g>
<!-- Node26&#45;&gt;Node24 -->
<g id="edge26" class="edge">
<title>Node26&#45;&gt;Node24</title>
<path fill="none" stroke="#9a32cd" stroke-dasharray="5,2" d="M1122,-162.37C1164.06,-167.33 1215.14,-173.35 1255.22,-178.07"/>
<polygon fill="#9a32cd" stroke="#9a32cd" points="1122.41,-158.89 1112.07,-161.2 1121.59,-165.85 1122.41,-158.89"/>
<text text-anchor="middle" x="1178.5" y="-178" font-family="Helvetica,sans-Serif" font-size="10.00"> m_Scales</text>
</g>
<!-- Node27 -->
<g id="node27" class="node">
<title>Node27</title>
<g id="a_node27"><a xlink:href="classitk_1_1Array.html" target="_top" xlink:title=" ">
<polygon fill="white" stroke="black" points="657,-8 657,-38 809,-38 809,-8 657,-8"/>
<text text-anchor="start" x="665" y="-26" font-family="Helvetica,sans-Serif" font-size="10.00">itk::Array&lt; InternalMeasure</text>
<text text-anchor="middle" x="733" y="-15" font-family="Helvetica,sans-Serif" font-size="10.00">Type &gt;</text>
</a>
</g>
</g>
<!-- Node27&#45;&gt;Node26 -->
<g id="edge27" class="edge">
<title>Node27&#45;&gt;Node26</title>
<path fill="none" stroke="midnightblue" d="M819.12,-24.62C863.91,-29.75 916.86,-43.17 953,-76 971.1,-92.45 953.81,-110.6 971,-128 974.79,-131.83 979.2,-135.08 983.93,-137.83"/>
<polygon fill="midnightblue" stroke="midnightblue" points="819.42,-21.14 809.11,-23.6 818.7,-28.1 819.42,-21.14"/>
</g>
<!-- Node28 -->
<g id="node28" class="node">
<title>Node28</title>
<g id="a_node28"><a xlink:title=" ">
<polygon fill="white" stroke="#bfbfbf" points="357,-8 357,-38 515,-38 515,-8 357,-8"/>
<text text-anchor="start" x="365" y="-26" font-family="Helvetica,sans-Serif" font-size="10.00">vnl_vector&lt; InternalMeasure</text>
<text text-anchor="middle" x="436" y="-15" font-family="Helvetica,sans-Serif" font-size="10.00">Type &gt;</text>
</a>
</g>
</g>
<!-- Node28&#45;&gt;Node27 -->
<g id="edge28" class="edge">
<title>Node28&#45;&gt;Node27</title>
<path fill="none" stroke="midnightblue" d="M525.48,-23C567.38,-23 616.88,-23 656.92,-23"/>
<polygon fill="midnightblue" stroke="midnightblue" points="525.28,-19.5 515.28,-23 525.28,-26.5 525.28,-19.5"/>
</g>
<!-- Node29 -->
<g id="node29" class="node">
<title>Node29</title>
<g id="a_node29"><a xlink:title=" ">
<polygon fill="white" stroke="#bfbfbf" points="1563,-256 1563,-286 1701,-286 1701,-256 1563,-256"/>
<text text-anchor="start" x="1571" y="-274" font-family="Helvetica,sans-Serif" font-size="10.00">std::unique_ptr&lt; Internal</text>
<text text-anchor="middle" x="1632" y="-263" font-family="Helvetica,sans-Serif" font-size="10.00">OptimizerType &gt;</text>
</a>
</g>
</g>
<!-- Node29&#45;&gt;Node2 -->
<g id="edge32" class="edge">
<title>Node29&#45;&gt;Node2</title>
<path fill="none" stroke="#9a32cd" stroke-dasharray="5,2" d="M1711.48,-261.6C1763.84,-255.32 1832.27,-247.12 1883.83,-240.95"/>
<polygon fill="#9a32cd" stroke="#9a32cd" points="1710.75,-258.16 1701.24,-262.82 1711.58,-265.11 1710.75,-258.16"/>
<text text-anchor="middle" x="1795" y="-262" font-family="Helvetica,sans-Serif" font-size="10.00"> m_VnlOptimizer</text>
</g>
<!-- Node30 -->
<g id="node30" class="node">
<title>Node30</title>
<g id="a_node30"><a xlink:href="classLBFGSBOptimizerHelperv4.html" target="_top" xlink:title="Wrapper helper around vnl_lbfgsb.">
<polygon fill="white" stroke="black" points="1250,-274.5 1250,-293.5 1397,-293.5 1397,-274.5 1250,-274.5"/>
<text text-anchor="middle" x="1323.5" y="-281.5" font-family="Helvetica,sans-Serif" font-size="10.00">LBFGSBOptimizerHelperv4</text>
</a>
</g>
</g>
<!-- Node30&#45;&gt;Node29 -->
<g id="edge33" class="edge">
<title>Node30&#45;&gt;Node29</title>
<path fill="none" stroke="#9a32cd" stroke-dasharray="5,2" d="M1407.34,-280.49C1456.05,-278.42 1516.9,-275.84 1562.82,-273.89"/>
<polygon fill="#9a32cd" stroke="#9a32cd" points="1406.98,-277 1397.14,-280.92 1407.28,-283.99 1406.98,-277"/>
<text text-anchor="middle" x="1480" y="-282" font-family="Helvetica,sans-Serif" font-size="10.00"> ptr</text>
</g>
<!-- Node31 -->
<g id="node31" class="node">
<title>Node31</title>
<g id="a_node31"><a xlink:title="STL class.">
<polygon fill="white" stroke="#bfbfbf" points="1579,-311.5 1579,-330.5 1685,-330.5 1685,-311.5 1579,-311.5"/>
<text text-anchor="middle" x="1632" y="-318.5" font-family="Helvetica,sans-Serif" font-size="10.00">std::ostringstream</text>
</a>
</g>
</g>
<!-- Node31&#45;&gt;Node2 -->
<g id="edge34" class="edge">
<title>Node31&#45;&gt;Node2</title>
<path fill="none" stroke="#9a32cd" stroke-dasharray="5,2" d="M1695.36,-312.37C1742.86,-304.85 1809.48,-292.27 1866,-274 1887.98,-266.89 1911.69,-256.06 1929.6,-247.18"/>
<polygon fill="#9a32cd" stroke="#9a32cd" points="1694.57,-308.95 1685.23,-313.94 1695.65,-315.87 1694.57,-308.95"/>
<text text-anchor="middle" x="1795" y="-309" font-family="Helvetica,sans-Serif" font-size="10.00"> m_StopConditionDescription</text>
</g>
<!-- Node32 -->
<g id="node32" class="node">
<title>Node32</title>
<g id="a_node32"><a xlink:title="STL class.">
<polygon fill="white" stroke="#bfbfbf" points="1255,-335 1255,-365 1392,-365 1392,-335 1255,-335"/>
<text text-anchor="start" x="1263" y="-353" font-family="Helvetica,sans-Serif" font-size="10.00">std::basic_ostringstream</text>
<text text-anchor="middle" x="1323.5" y="-342" font-family="Helvetica,sans-Serif" font-size="10.00">&lt; char &gt;</text>
</a>
</g>
</g>
<!-- Node32&#45;&gt;Node31 -->
<g id="edge35" class="edge">
<title>Node32&#45;&gt;Node31</title>
<path fill="none" stroke="midnightblue" d="M1402.25,-342.64C1457.53,-337.41 1530.28,-330.53 1578.74,-325.94"/>
<polygon fill="midnightblue" stroke="midnightblue" points="1401.77,-339.17 1392.14,-343.6 1402.43,-346.14 1401.77,-339.17"/>
</g>
<!-- Node33 -->
<g id="node33" class="node">
<title>Node33</title>
<g id="a_node33"><a xlink:title="STL class.">
<polygon fill="white" stroke="#bfbfbf" points="987,-376 987,-406 1096,-406 1096,-376 987,-376"/>
<text text-anchor="start" x="995" y="-394" font-family="Helvetica,sans-Serif" font-size="10.00">std::basic_ostream</text>
<text text-anchor="middle" x="1041.5" y="-383" font-family="Helvetica,sans-Serif" font-size="10.00">&lt; Char &gt;</text>
</a>
</g>
</g>
<!-- Node33&#45;&gt;Node32 -->
<g id="edge36" class="edge">
<title>Node33&#45;&gt;Node32</title>
<path fill="none" stroke="midnightblue" d="M1106.24,-381.67C1150.62,-375.17 1209.71,-366.52 1254.91,-359.9"/>
<polygon fill="midnightblue" stroke="midnightblue" points="1105.54,-378.23 1096.16,-383.14 1106.56,-385.16 1105.54,-378.23"/>
</g>
<!-- Node34 -->
<g id="node34" class="node">
<title>Node34</title>
<g id="a_node34"><a xlink:title="STL class.">
<polygon fill="white" stroke="#bfbfbf" points="669,-403.5 669,-422.5 797,-422.5 797,-403.5 669,-403.5"/>
<text text-anchor="middle" x="733" y="-410.5" font-family="Helvetica,sans-Serif" font-size="10.00">std::basic_ios&lt; Char &gt;</text>
</a>
</g>
</g>
<!-- Node34&#45;&gt;Node33 -->
<g id="edge37" class="edge">
<title>Node34&#45;&gt;Node33</title>
<path fill="none" stroke="midnightblue" d="M807.21,-407.75C862.4,-403.78 936.85,-398.44 986.66,-394.86"/>
<polygon fill="midnightblue" stroke="midnightblue" points="806.86,-404.26 797.14,-408.47 807.36,-411.24 806.86,-404.26"/>
</g>
<!-- Node35 -->
<g id="node35" class="node">
<title>Node35</title>
<g id="a_node35"><a xlink:title="STL class.">
<polygon fill="white" stroke="#bfbfbf" points="396,-406.5 396,-425.5 476,-425.5 476,-406.5 396,-406.5"/>
<text text-anchor="middle" x="436" y="-413.5" font-family="Helvetica,sans-Serif" font-size="10.00">std::ios_base</text>
</a>
</g>
</g>
<!-- Node35&#45;&gt;Node34 -->
<g id="edge38" class="edge">
<title>Node35&#45;&gt;Node34</title>
<path fill="none" stroke="midnightblue" d="M486.43,-415.5C536.57,-414.99 614.34,-414.2 668.89,-413.64"/>
<polygon fill="midnightblue" stroke="midnightblue" points="486.14,-412 476.17,-415.6 486.21,-419 486.14,-412"/>
</g>
<!-- Node36 -->
<g id="node36" class="node">
<title>Node36</title>
<g id="a_node36"><a xlink:href="classitk_1_1Array.html" target="_top" xlink:title=" ">
<polygon fill="white" stroke="black" points="1907,-0.5 1907,-19.5 2012,-19.5 2012,-0.5 1907,-0.5"/>
<text text-anchor="middle" x="1959.5" y="-7.5" font-family="Helvetica,sans-Serif" font-size="10.00">itk::Array&lt; long &gt;</text>
</a>
</g>
</g>
<!-- Node36&#45;&gt;Node1 -->
<g id="edge40" class="edge">
<title>Node36&#45;&gt;Node1</title>
<path fill="none" stroke="#9a32cd" stroke-dasharray="5,2" d="M2022.34,-10.91C2058.85,-12.29 2105.84,-15.53 2147,-23 2166.61,-26.56 2188.15,-33.02 2204.5,-38.48"/>
<polygon fill="#9a32cd" stroke="#9a32cd" points="2022.45,-7.41 2012.33,-10.57 2022.21,-14.41 2022.45,-7.41"/>
<text text-anchor="middle" x="2100" y="-26" font-family="Helvetica,sans-Serif" font-size="10.00"> m_BoundSelection</text>
</g>
<!-- Node37 -->
<g id="node37" class="node">
<title>Node37</title>
<g id="a_node37"><a xlink:title=" ">
<polygon fill="white" stroke="#bfbfbf" points="1576.5,-0.5 1576.5,-19.5 1687.5,-19.5 1687.5,-0.5 1576.5,-0.5"/>
<text text-anchor="middle" x="1632" y="-7.5" font-family="Helvetica,sans-Serif" font-size="10.00">vnl_vector&lt; long &gt;</text>
</a>
</g>
</g>
<!-- Node37&#45;&gt;Node36 -->
<g id="edge41" class="edge">
<title>Node37&#45;&gt;Node36</title>
<path fill="none" stroke="midnightblue" d="M1698.2,-10C1759.62,-10 1850.4,-10 1906.92,-10"/>
<polygon fill="midnightblue" stroke="midnightblue" points="1697.85,-6.5 1687.85,-10 1697.85,-13.5 1697.85,-6.5"/>
</g>
</g>
</svg>
