<?xml version="1.0" encoding="UTF-8" standalone="no"?>
<!DOCTYPE svg PUBLIC "-//W3C//DTD SVG 1.1//EN"
 "http://www.w3.org/Graphics/SVG/1.1/DTD/svg11.dtd">
<!-- Generated by graphviz version 2.43.0 (0)
 -->
<!-- Title: itk::CellInterface&lt; TPixelType, TCellTraits &gt;::MultiVisitor Pages: 1 -->
<svg width="668pt" height="128pt"
 viewBox="0.00 0.00 668.00 127.50" xmlns="http://www.w3.org/2000/svg" xmlns:xlink="http://www.w3.org/1999/xlink">
<g id="graph0" class="graph" transform="scale(1 1) rotate(0) translate(4 123.5)">
<title>itk::CellInterface&lt; TPixelType, TCellTraits &gt;::MultiVisitor</title>
<polygon fill="white" stroke="transparent" points="-4,4 -4,-123.5 664,-123.5 664,4 -4,4"/>
<!-- Node1 -->
<g id="node1" class="node">
<title>Node1</title>
<g id="a_node1"><a xlink:title="A visitor that can visit different cell types in a mesh. CellInterfaceVisitor instances can be regist...">
<polygon fill="#bfbfbf" stroke="black" points="524,-44 524,-85 660,-85 660,-44 524,-44"/>
<text text-anchor="start" x="532" y="-73" font-family="Helvetica,sans-Serif" font-size="10.00">itk::CellInterface</text>
<text text-anchor="start" x="532" y="-62" font-family="Helvetica,sans-Serif" font-size="10.00">&lt; TPixelType, TCellTraits</text>
<text text-anchor="middle" x="592" y="-51" font-family="Helvetica,sans-Serif" font-size="10.00"> &gt;::MultiVisitor</text>
</a>
</g>
</g>
<!-- Node2 -->
<g id="node2" class="node">
<title>Node2</title>
<g id="a_node2"><a xlink:href="classitk_1_1LightObject.html" target="_top" xlink:title="Light weight base class for most itk classes.">
<polygon fill="white" stroke="black" points="279,-99 279,-118 370,-118 370,-99 279,-99"/>
<text text-anchor="middle" x="324.5" y="-106" font-family="Helvetica,sans-Serif" font-size="10.00">itk::LightObject</text>
</a>
</g>
</g>
<!-- Node2&#45;&gt;Node1 -->
<g id="edge1" class="edge">
<title>Node2&#45;&gt;Node1</title>
<path fill="none" stroke="midnightblue" d="M380.27,-99.92C416.07,-94.26 463.84,-86.61 506,-79.5 511.76,-78.53 517.74,-77.51 523.74,-76.47"/>
<polygon fill="midnightblue" stroke="midnightblue" points="379.37,-96.52 370.04,-101.54 380.46,-103.44 379.37,-96.52"/>
</g>
<!-- Node3 -->
<g id="node3" class="node">
<title>Node3</title>
<g id="a_node3"><a xlink:title=" ">
<polygon fill="white" stroke="#bfbfbf" points="0,-99 0,-118 107,-118 107,-99 0,-99"/>
<text text-anchor="middle" x="53.5" y="-106" font-family="Helvetica,sans-Serif" font-size="10.00">std::atomic&lt; int &gt;</text>
</a>
</g>
</g>
<!-- Node3&#45;&gt;Node2 -->
<g id="edge2" class="edge">
<title>Node3&#45;&gt;Node2</title>
<path fill="none" stroke="#9a32cd" stroke-dasharray="5,2" d="M117.27,-108.5C166.77,-108.5 234.58,-108.5 278.71,-108.5"/>
<polygon fill="#9a32cd" stroke="#9a32cd" points="117,-105 107,-108.5 117,-112 117,-105"/>
<text text-anchor="middle" x="173.5" y="-111.5" font-family="Helvetica,sans-Serif" font-size="10.00"> m_ReferenceCount</text>
</g>
<!-- Node4 -->
<g id="node4" class="node">
<title>Node4</title>
<g id="a_node4"><a xlink:href="classitk_1_1SmartPointer.html" target="_top" xlink:title=" ">
<polygon fill="white" stroke="black" points="271,-49.5 271,-79.5 378,-79.5 378,-49.5 271,-49.5"/>
<text text-anchor="start" x="279" y="-67.5" font-family="Helvetica,sans-Serif" font-size="10.00">itk::SmartPointer&lt;</text>
<text text-anchor="middle" x="324.5" y="-56.5" font-family="Helvetica,sans-Serif" font-size="10.00"> Self &gt;</text>
</a>
</g>
</g>
<!-- Node4&#45;&gt;Node1 -->
<g id="edge3" class="edge">
<title>Node4&#45;&gt;Node1</title>
<path fill="none" stroke="#9a32cd" stroke-dasharray="5,2" d="M388.35,-64.5C429.08,-64.5 482.09,-64.5 523.68,-64.5"/>
<polygon fill="#9a32cd" stroke="#9a32cd" points="388.27,-61 378.27,-64.5 388.27,-68 388.27,-61"/>
<text text-anchor="middle" x="466.5" y="-67.5" font-family="Helvetica,sans-Serif" font-size="10.00"> m_Visitors</text>
</g>
<!-- Node5 -->
<g id="node5" class="node">
<title>Node5</title>
<g id="a_node5"><a xlink:title=" ">
<polygon fill="white" stroke="#bfbfbf" points="240,-0.5 240,-30.5 409,-30.5 409,-0.5 240,-0.5"/>
<text text-anchor="start" x="248" y="-18.5" font-family="Helvetica,sans-Serif" font-size="10.00">std::map&lt; CellGeometryEnum,</text>
<text text-anchor="middle" x="324.5" y="-7.5" font-family="Helvetica,sans-Serif" font-size="10.00"> VisitorPointer &gt;</text>
</a>
</g>
</g>
<!-- Node5&#45;&gt;Node1 -->
<g id="edge4" class="edge">
<title>Node5&#45;&gt;Node1</title>
<path fill="none" stroke="#9a32cd" stroke-dasharray="5,2" d="M417.22,-32.43C452.29,-38.9 491.6,-46.16 523.96,-52.13"/>
<polygon fill="#9a32cd" stroke="#9a32cd" points="417.43,-28.91 406.96,-30.53 416.16,-35.79 417.43,-28.91"/>
<text text-anchor="middle" x="466.5" y="-51.5" font-family="Helvetica,sans-Serif" font-size="10.00"> m_UserDefined</text>
</g>
</g>
</svg>
