<?xml version="1.0" encoding="UTF-8" standalone="no"?>
<!DOCTYPE svg PUBLIC "-//W3C//DTD SVG 1.1//EN"
 "http://www.w3.org/Graphics/SVG/1.1/DTD/svg11.dtd">
<!-- Generated by graphviz version 2.43.0 (0)
 -->
<!-- Title: itk::TextOutput Pages: 1 -->
<svg width="1394pt" height="173pt"
 viewBox="0.00 0.00 1394.00 173.00" xmlns="http://www.w3.org/2000/svg" xmlns:xlink="http://www.w3.org/1999/xlink">
<g id="graph0" class="graph" transform="scale(1 1) rotate(0) translate(4 169)">
<title>itk::TextOutput</title>
<polygon fill="white" stroke="transparent" points="-4,4 -4,-169 1390,-169 1390,4 -4,4"/>
<!-- Node1 -->
<g id="node1" class="node">
<title>Node1</title>
<g id="a_node1"><a xlink:title=" ">
<polygon fill="#bfbfbf" stroke="black" points="1297,-38.5 1297,-57.5 1386,-57.5 1386,-38.5 1297,-38.5"/>
<text text-anchor="middle" x="1341.5" y="-45.5" font-family="Helvetica,sans-Serif" font-size="10.00">itk::TextOutput</text>
</a>
</g>
</g>
<!-- Node2 -->
<g id="node2" class="node">
<title>Node2</title>
<g id="a_node2"><a xlink:href="classitk_1_1OutputWindow.html" target="_top" xlink:title="Messages sent from the system are collected by this object.">
<polygon fill="white" stroke="black" points="1153,-38.5 1153,-57.5 1260,-57.5 1260,-38.5 1153,-38.5"/>
<text text-anchor="middle" x="1206.5" y="-45.5" font-family="Helvetica,sans-Serif" font-size="10.00">itk::OutputWindow</text>
</a>
</g>
</g>
<!-- Node2&#45;&gt;Node1 -->
<g id="edge1" class="edge">
<title>Node2&#45;&gt;Node1</title>
<path fill="none" stroke="midnightblue" d="M1270.18,-48C1279.21,-48 1288.33,-48 1296.88,-48"/>
<polygon fill="midnightblue" stroke="midnightblue" points="1270.07,-44.5 1260.07,-48 1270.07,-51.5 1270.07,-44.5"/>
</g>
<!-- Node3 -->
<g id="node3" class="node">
<title>Node3</title>
<g id="a_node3"><a xlink:href="classitk_1_1Object.html" target="_top" xlink:title="Base class for most ITK classes.">
<polygon fill="white" stroke="black" points="950,-76.5 950,-95.5 1017,-95.5 1017,-76.5 950,-76.5"/>
<text text-anchor="middle" x="983.5" y="-83.5" font-family="Helvetica,sans-Serif" font-size="10.00">itk::Object</text>
</a>
</g>
</g>
<!-- Node3&#45;&gt;Node2 -->
<g id="edge2" class="edge">
<title>Node3&#45;&gt;Node2</title>
<path fill="none" stroke="midnightblue" d="M1027.36,-80.12C1057.53,-75.82 1098.83,-69.61 1135,-63 1143.99,-61.36 1153.58,-59.43 1162.7,-57.52"/>
<polygon fill="midnightblue" stroke="midnightblue" points="1026.59,-76.7 1017.18,-81.56 1027.57,-83.63 1026.59,-76.7"/>
</g>
<!-- Node4 -->
<g id="node4" class="node">
<title>Node4</title>
<g id="a_node4"><a xlink:href="classitk_1_1LightObject.html" target="_top" xlink:title="Light weight base class for most itk classes.">
<polygon fill="white" stroke="black" points="660.5,-140.5 660.5,-159.5 751.5,-159.5 751.5,-140.5 660.5,-140.5"/>
<text text-anchor="middle" x="706" y="-147.5" font-family="Helvetica,sans-Serif" font-size="10.00">itk::LightObject</text>
</a>
</g>
</g>
<!-- Node4&#45;&gt;Node3 -->
<g id="edge3" class="edge">
<title>Node4&#45;&gt;Node3</title>
<path fill="none" stroke="midnightblue" d="M761.83,-142.94C802.58,-137.02 859.31,-127.39 908,-114 925.99,-109.05 945.72,-101.54 960.36,-95.54"/>
<polygon fill="midnightblue" stroke="midnightblue" points="761.24,-139.49 751.83,-144.36 762.22,-146.42 761.24,-139.49"/>
</g>
<!-- Node5 -->
<g id="node5" class="node">
<title>Node5</title>
<g id="a_node5"><a xlink:title=" ">
<polygon fill="white" stroke="#bfbfbf" points="378,-145.5 378,-164.5 485,-164.5 485,-145.5 378,-145.5"/>
<text text-anchor="middle" x="431.5" y="-152.5" font-family="Helvetica,sans-Serif" font-size="10.00">std::atomic&lt; int &gt;</text>
</a>
</g>
</g>
<!-- Node5&#45;&gt;Node4 -->
<g id="edge4" class="edge">
<title>Node5&#45;&gt;Node4</title>
<path fill="none" stroke="#9a32cd" stroke-dasharray="5,2" d="M495.18,-153.85C545.64,-152.92 615.33,-151.65 660.29,-150.82"/>
<polygon fill="#9a32cd" stroke="#9a32cd" points="494.97,-150.35 485.04,-154.04 495.1,-157.35 494.97,-150.35"/>
<text text-anchor="middle" x="572.5" y="-156" font-family="Helvetica,sans-Serif" font-size="10.00"> m_ReferenceCount</text>
</g>
<!-- Node6 -->
<g id="node6" class="node">
<title>Node6</title>
<g id="a_node6"><a xlink:title="STL class.">
<polygon fill="white" stroke="#bfbfbf" points="673.5,-96.5 673.5,-115.5 738.5,-115.5 738.5,-96.5 673.5,-96.5"/>
<text text-anchor="middle" x="706" y="-103.5" font-family="Helvetica,sans-Serif" font-size="10.00">std::string</text>
</a>
</g>
</g>
<!-- Node6&#45;&gt;Node3 -->
<g id="edge5" class="edge">
<title>Node6&#45;&gt;Node3</title>
<path fill="none" stroke="#9a32cd" stroke-dasharray="5,2" d="M748.73,-102.97C803.89,-98.97 899.9,-92 949.99,-88.36"/>
<polygon fill="#9a32cd" stroke="#9a32cd" points="748.32,-99.49 738.6,-103.71 748.83,-106.47 748.32,-99.49"/>
<text text-anchor="middle" x="849.5" y="-102" font-family="Helvetica,sans-Serif" font-size="10.00"> m_ObjectName</text>
</g>
<!-- Node7 -->
<g id="node7" class="node">
<title>Node7</title>
<g id="a_node7"><a xlink:title="STL class.">
<polygon fill="white" stroke="#bfbfbf" points="379.5,-96 379.5,-126 483.5,-126 483.5,-96 379.5,-96"/>
<text text-anchor="start" x="387.5" y="-114" font-family="Helvetica,sans-Serif" font-size="10.00">std::basic_string&lt;</text>
<text text-anchor="middle" x="431.5" y="-103" font-family="Helvetica,sans-Serif" font-size="10.00"> char &gt;</text>
</a>
</g>
</g>
<!-- Node7&#45;&gt;Node6 -->
<g id="edge6" class="edge">
<title>Node7&#45;&gt;Node6</title>
<path fill="none" stroke="midnightblue" d="M493.85,-109.87C549.49,-108.85 629.3,-107.39 673.14,-106.58"/>
<polygon fill="midnightblue" stroke="midnightblue" points="493.69,-106.38 483.76,-110.06 493.82,-113.38 493.69,-106.38"/>
</g>
<!-- Node8 -->
<g id="node8" class="node">
<title>Node8</title>
<g id="a_node8"><a xlink:href="classitk_1_1MetaDataDictionary.html" target="_top" xlink:title="Provides a mechanism for storing a collection of arbitrary data types.">
<polygon fill="white" stroke="black" points="639,-57.5 639,-76.5 773,-76.5 773,-57.5 639,-57.5"/>
<text text-anchor="middle" x="706" y="-64.5" font-family="Helvetica,sans-Serif" font-size="10.00">itk::MetaDataDictionary</text>
</a>
</g>
</g>
<!-- Node8&#45;&gt;Node3 -->
<g id="edge7" class="edge">
<title>Node8&#45;&gt;Node3</title>
<path fill="none" stroke="#9a32cd" stroke-dasharray="5,2" d="M783.65,-65.32C821.22,-65.31 867.09,-66.51 908,-71 921.77,-72.51 936.78,-75.31 949.69,-78.08"/>
<polygon fill="#9a32cd" stroke="#9a32cd" points="783.27,-61.82 773.28,-65.35 783.29,-68.82 783.27,-61.82"/>
<text text-anchor="middle" x="849.5" y="-74" font-family="Helvetica,sans-Serif" font-size="10.00"> m_MetaDataDictionary</text>
</g>
<!-- Node9 -->
<g id="node9" class="node">
<title>Node9</title>
<g id="a_node9"><a xlink:title=" ">
<polygon fill="white" stroke="#bfbfbf" points="357,-47 357,-77 506,-77 506,-47 357,-47"/>
<text text-anchor="start" x="365" y="-65" font-family="Helvetica,sans-Serif" font-size="10.00">std::shared_ptr&lt; MetaData</text>
<text text-anchor="middle" x="431.5" y="-54" font-family="Helvetica,sans-Serif" font-size="10.00">DictionaryMapType &gt;</text>
</a>
</g>
</g>
<!-- Node9&#45;&gt;Node8 -->
<g id="edge8" class="edge">
<title>Node9&#45;&gt;Node8</title>
<path fill="none" stroke="#9a32cd" stroke-dasharray="5,2" d="M516.34,-63.54C555.65,-64.26 601.82,-65.11 638.65,-65.78"/>
<polygon fill="#9a32cd" stroke="#9a32cd" points="516.3,-60.04 506.24,-63.35 516.18,-67.04 516.3,-60.04"/>
<text text-anchor="middle" x="572.5" y="-68" font-family="Helvetica,sans-Serif" font-size="10.00"> m_Dictionary</text>
</g>
<!-- Node10 -->
<g id="node10" class="node">
<title>Node10</title>
<g id="a_node10"><a xlink:title="STL class.">
<polygon fill="white" stroke="#bfbfbf" points="114,-52.5 114,-71.5 215,-71.5 215,-52.5 114,-52.5"/>
<text text-anchor="middle" x="164.5" y="-59.5" font-family="Helvetica,sans-Serif" font-size="10.00">std::map&lt; K, T &gt;</text>
</a>
</g>
</g>
<!-- Node10&#45;&gt;Node9 -->
<g id="edge9" class="edge">
<title>Node10&#45;&gt;Node9</title>
<path fill="none" stroke="#9a32cd" stroke-dasharray="5,2" d="M225.18,-62C264.19,-62 315.41,-62 356.93,-62"/>
<polygon fill="#9a32cd" stroke="#9a32cd" points="225.03,-58.5 215.03,-62 225.03,-65.5 225.03,-58.5"/>
<text text-anchor="middle" x="286" y="-65" font-family="Helvetica,sans-Serif" font-size="10.00"> ptr</text>
</g>
<!-- Node11 -->
<g id="node11" class="node">
<title>Node11</title>
<g id="a_node11"><a xlink:title=" ">
<polygon fill="white" stroke="#bfbfbf" points="0,-76.5 0,-95.5 29,-95.5 29,-76.5 0,-76.5"/>
<text text-anchor="middle" x="14.5" y="-83.5" font-family="Helvetica,sans-Serif" font-size="10.00">K</text>
</a>
</g>
</g>
<!-- Node11&#45;&gt;Node10 -->
<g id="edge10" class="edge">
<title>Node11&#45;&gt;Node10</title>
<path fill="none" stroke="#9a32cd" stroke-dasharray="5,2" d="M39.24,-82.15C59.28,-78.9 88.63,-74.14 113.78,-70.06"/>
<polygon fill="#9a32cd" stroke="#9a32cd" points="38.47,-78.73 29.16,-83.79 39.59,-85.64 38.47,-78.73"/>
<text text-anchor="middle" x="71.5" y="-83" font-family="Helvetica,sans-Serif" font-size="10.00"> keys</text>
</g>
<!-- Node12 -->
<g id="node12" class="node">
<title>Node12</title>
<g id="a_node12"><a xlink:title=" ">
<polygon fill="white" stroke="#bfbfbf" points="0,-23.5 0,-42.5 29,-42.5 29,-23.5 0,-23.5"/>
<text text-anchor="middle" x="14.5" y="-30.5" font-family="Helvetica,sans-Serif" font-size="10.00">T</text>
</a>
</g>
</g>
<!-- Node12&#45;&gt;Node10 -->
<g id="edge11" class="edge">
<title>Node12&#45;&gt;Node10</title>
<path fill="none" stroke="#9a32cd" stroke-dasharray="5,2" d="M39.09,-37.62C59.39,-41.6 89.35,-47.47 114.78,-52.45"/>
<polygon fill="#9a32cd" stroke="#9a32cd" points="39.64,-34.16 29.16,-35.68 38.3,-41.03 39.64,-34.16"/>
<text text-anchor="middle" x="71.5" y="-51" font-family="Helvetica,sans-Serif" font-size="10.00"> elements</text>
</g>
<!-- Node14 -->
<g id="node14" class="node">
<title>Node14</title>
<g id="a_node14"><a xlink:title="STL class.">
<polygon fill="white" stroke="#bfbfbf" points="114.5,-8.5 114.5,-27.5 214.5,-27.5 214.5,-8.5 114.5,-8.5"/>
<text text-anchor="middle" x="164.5" y="-15.5" font-family="Helvetica,sans-Serif" font-size="10.00">std::atomic&lt; T &gt;</text>
</a>
</g>
</g>
<!-- Node12&#45;&gt;Node14 -->
<g id="edge14" class="edge">
<title>Node12&#45;&gt;Node14</title>
<path fill="none" stroke="#9a32cd" stroke-dasharray="5,2" d="M38.4,-21.54C41.24,-20.51 44.15,-19.62 47,-19 68.74,-14.29 93.31,-13.44 114.26,-14.01"/>
<polygon fill="#9a32cd" stroke="#9a32cd" points="37.03,-18.32 29.19,-25.45 39.77,-24.77 37.03,-18.32"/>
<text text-anchor="middle" x="71.5" y="-22" font-family="Helvetica,sans-Serif" font-size="10.00"> ptr</text>
</g>
<!-- Node13 -->
<g id="node13" class="node">
<title>Node13</title>
<g id="a_node13"><a xlink:href="classitk_1_1TimeStamp.html" target="_top" xlink:title="Generate a unique, increasing time value.">
<polygon fill="white" stroke="black" points="526.5,-13.5 526.5,-32.5 618.5,-32.5 618.5,-13.5 526.5,-13.5"/>
<text text-anchor="middle" x="572.5" y="-20.5" font-family="Helvetica,sans-Serif" font-size="10.00">itk::TimeStamp</text>
</a>
</g>
</g>
<!-- Node13&#45;&gt;Node3 -->
<g id="edge12" class="edge">
<title>Node13&#45;&gt;Node3</title>
<path fill="none" stroke="#9a32cd" stroke-dasharray="5,2" d="M628.9,-24.67C695.93,-27.75 811.78,-36.45 908,-61 908.61,-61.16 933.42,-69.49 954.24,-76.49"/>
<polygon fill="#9a32cd" stroke="#9a32cd" points="628.71,-21.16 618.57,-24.22 628.41,-28.15 628.71,-21.16"/>
<text text-anchor="middle" x="706" y="-40" font-family="Helvetica,sans-Serif" font-size="10.00"> m_MTime</text>
</g>
<!-- Node14&#45;&gt;Node13 -->
<g id="edge13" class="edge">
<title>Node14&#45;&gt;Node13</title>
<path fill="none" stroke="#9a32cd" stroke-dasharray="5,2" d="M225.03,-18.73C306.93,-19.74 452.57,-21.54 526.2,-22.44"/>
<polygon fill="#9a32cd" stroke="#9a32cd" points="224.92,-15.23 214.88,-18.61 224.83,-22.23 224.92,-15.23"/>
<text text-anchor="middle" x="286" y="-24" font-family="Helvetica,sans-Serif" font-size="10.00"> m_GlobalTimeStamp</text>
</g>
<!-- Node15 -->
<g id="node15" class="node">
<title>Node15</title>
<g id="a_node15"><a xlink:title=" ">
<polygon fill="white" stroke="#bfbfbf" points="926,-38.5 926,-57.5 1041,-57.5 1041,-38.5 926,-38.5"/>
<text text-anchor="middle" x="983.5" y="-45.5" font-family="Helvetica,sans-Serif" font-size="10.00">std::atomic&lt; bool &gt;</text>
</a>
</g>
</g>
<!-- Node15&#45;&gt;Node2 -->
<g id="edge15" class="edge">
<title>Node15&#45;&gt;Node2</title>
<path fill="none" stroke="#9a32cd" stroke-dasharray="5,2" d="M1051.45,-48C1083.95,-48 1122.44,-48 1152.82,-48"/>
<polygon fill="#9a32cd" stroke="#9a32cd" points="1051.13,-44.5 1041.13,-48 1051.13,-51.5 1051.13,-44.5"/>
<text text-anchor="middle" x="1097" y="-51" font-family="Helvetica,sans-Serif" font-size="10.00"> m_PromptUser</text>
</g>
<!-- Node16 -->
<g id="node16" class="node">
<title>Node16</title>
<g id="a_node16"><a xlink:title="STL class.">
<polygon fill="white" stroke="#bfbfbf" points="949,-0.5 949,-19.5 1018,-19.5 1018,-0.5 949,-0.5"/>
<text text-anchor="middle" x="983.5" y="-7.5" font-family="Helvetica,sans-Serif" font-size="10.00">std::mutex</text>
</a>
</g>
</g>
<!-- Node16&#45;&gt;Node2 -->
<g id="edge16" class="edge">
<title>Node16&#45;&gt;Node2</title>
<path fill="none" stroke="#9a32cd" stroke-dasharray="5,2" d="M1028.24,-16C1058.33,-20.3 1099.18,-26.46 1135,-33 1143.99,-34.64 1153.58,-36.57 1162.7,-38.48"/>
<polygon fill="#9a32cd" stroke="#9a32cd" points="1028.46,-12.5 1018.07,-14.56 1027.48,-19.43 1028.46,-12.5"/>
<text text-anchor="middle" x="1097" y="-36" font-family="Helvetica,sans-Serif" font-size="10.00"> m_cerrMutex</text>
</g>
</g>
</svg>
