<?xml version="1.0" encoding="UTF-8" standalone="no"?>
<!DOCTYPE svg PUBLIC "-//W3C//DTD SVG 1.1//EN"
 "http://www.w3.org/Graphics/SVG/1.1/DTD/svg11.dtd">
<!-- Generated by graphviz version 2.43.0 (0)
 -->
<!-- Title: itk::SingleValuedNonLinearVnlOptimizerv4 Pages: 1 -->
<svg width="1714pt" height="361pt"
 viewBox="0.00 0.00 1714.00 360.50" xmlns="http://www.w3.org/2000/svg" xmlns:xlink="http://www.w3.org/1999/xlink">
<g id="graph0" class="graph" transform="scale(1 1) rotate(0) translate(4 356.5)">
<title>itk::SingleValuedNonLinearVnlOptimizerv4</title>
<polygon fill="white" stroke="transparent" points="-4,4 -4,-356.5 1710,-356.5 1710,4 -4,4"/>
<!-- Node1 -->
<g id="node1" class="node">
<title>Node1</title>
<g id="a_node1"><a xlink:title="This is a base for the ITKv4 Optimization methods using the vnl library.">
<polygon fill="#bfbfbf" stroke="black" points="1558,-95.5 1558,-125.5 1706,-125.5 1706,-95.5 1558,-95.5"/>
<text text-anchor="start" x="1566" y="-113.5" font-family="Helvetica,sans-Serif" font-size="10.00">itk::SingleValuedNonLinear</text>
<text text-anchor="middle" x="1632" y="-102.5" font-family="Helvetica,sans-Serif" font-size="10.00">VnlOptimizerv4</text>
</a>
</g>
</g>
<!-- Node2 -->
<g id="node2" class="node">
<title>Node2</title>
<g id="a_node2"><a xlink:href="classitk_1_1ObjectToObjectOptimizerBaseTemplate.html" target="_top" xlink:title=" ">
<polygon fill="white" stroke="black" points="1245,-162.5 1245,-192.5 1402,-192.5 1402,-162.5 1245,-162.5"/>
<text text-anchor="start" x="1253" y="-180.5" font-family="Helvetica,sans-Serif" font-size="10.00">itk::ObjectToObjectOptimizer</text>
<text text-anchor="middle" x="1323.5" y="-169.5" font-family="Helvetica,sans-Serif" font-size="10.00">BaseTemplate&lt; double &gt;</text>
</a>
</g>
</g>
<!-- Node2&#45;&gt;Node1 -->
<g id="edge1" class="edge">
<title>Node2&#45;&gt;Node1</title>
<path fill="none" stroke="midnightblue" d="M1403.24,-160.29C1452.38,-149.55 1515.03,-135.85 1562.18,-125.54"/>
<polygon fill="midnightblue" stroke="midnightblue" points="1402.31,-156.91 1393.28,-162.46 1403.8,-163.75 1402.31,-156.91"/>
</g>
<!-- Node3 -->
<g id="node3" class="node">
<title>Node3</title>
<g id="a_node3"><a xlink:href="classitk_1_1Object.html" target="_top" xlink:title="Base class for most ITK classes.">
<polygon fill="white" stroke="black" points="1008,-257 1008,-276 1075,-276 1075,-257 1008,-257"/>
<text text-anchor="middle" x="1041.5" y="-264" font-family="Helvetica,sans-Serif" font-size="10.00">itk::Object</text>
</a>
</g>
</g>
<!-- Node3&#45;&gt;Node2 -->
<g id="edge2" class="edge">
<title>Node3&#45;&gt;Node2</title>
<path fill="none" stroke="midnightblue" d="M1085.44,-260.83C1123.43,-255.03 1179.97,-244.42 1227,-227.5 1252.36,-218.38 1279.41,-203.7 1298.22,-192.6"/>
<polygon fill="midnightblue" stroke="midnightblue" points="1084.62,-257.42 1075.24,-262.35 1085.64,-264.34 1084.62,-257.42"/>
</g>
<!-- Node4 -->
<g id="node4" class="node">
<title>Node4</title>
<g id="a_node4"><a xlink:href="classitk_1_1LightObject.html" target="_top" xlink:title="Light weight base class for most itk classes.">
<polygon fill="white" stroke="black" points="687.5,-330 687.5,-349 778.5,-349 778.5,-330 687.5,-330"/>
<text text-anchor="middle" x="733" y="-337" font-family="Helvetica,sans-Serif" font-size="10.00">itk::LightObject</text>
</a>
</g>
</g>
<!-- Node4&#45;&gt;Node3 -->
<g id="edge3" class="edge">
<title>Node4&#45;&gt;Node3</title>
<path fill="none" stroke="midnightblue" d="M788.73,-333.23C833.46,-327.34 898.06,-317.07 953,-301.5 976.61,-294.81 1002.59,-283.94 1020.06,-276.09"/>
<polygon fill="midnightblue" stroke="midnightblue" points="788.12,-329.78 778.65,-334.53 789.02,-336.72 788.12,-329.78"/>
</g>
<!-- Node5 -->
<g id="node5" class="node">
<title>Node5</title>
<g id="a_node5"><a xlink:title=" ">
<polygon fill="white" stroke="#bfbfbf" points="382.5,-333 382.5,-352 489.5,-352 489.5,-333 382.5,-333"/>
<text text-anchor="middle" x="436" y="-340" font-family="Helvetica,sans-Serif" font-size="10.00">std::atomic&lt; int &gt;</text>
</a>
</g>
</g>
<!-- Node5&#45;&gt;Node4 -->
<g id="edge4" class="edge">
<title>Node5&#45;&gt;Node4</title>
<path fill="none" stroke="#9a32cd" stroke-dasharray="5,2" d="M499.96,-341.86C556.32,-341.29 637.54,-340.46 687.43,-339.95"/>
<polygon fill="#9a32cd" stroke="#9a32cd" points="499.7,-338.36 489.74,-341.96 499.78,-345.36 499.7,-338.36"/>
<text text-anchor="middle" x="581.5" y="-343.5" font-family="Helvetica,sans-Serif" font-size="10.00"> m_ReferenceCount</text>
</g>
<!-- Node6 -->
<g id="node6" class="node">
<title>Node6</title>
<g id="a_node6"><a xlink:title="STL class.">
<polygon fill="white" stroke="#bfbfbf" points="700.5,-288 700.5,-307 765.5,-307 765.5,-288 700.5,-288"/>
<text text-anchor="middle" x="733" y="-295" font-family="Helvetica,sans-Serif" font-size="10.00">std::string</text>
</a>
</g>
</g>
<!-- Node6&#45;&gt;Node3 -->
<g id="edge5" class="edge">
<title>Node6&#45;&gt;Node3</title>
<path fill="none" stroke="#9a32cd" stroke-dasharray="5,2" d="M775.8,-293.27C837.47,-287.04 951.56,-275.5 1007.64,-269.82"/>
<polygon fill="#9a32cd" stroke="#9a32cd" points="775.24,-289.81 765.65,-294.3 775.95,-296.78 775.24,-289.81"/>
<text text-anchor="middle" x="894.5" y="-289.5" font-family="Helvetica,sans-Serif" font-size="10.00"> m_ObjectName</text>
</g>
<!-- Node7 -->
<g id="node7" class="node">
<title>Node7</title>
<g id="a_node7"><a xlink:title="STL class.">
<polygon fill="white" stroke="#bfbfbf" points="384,-283.5 384,-313.5 488,-313.5 488,-283.5 384,-283.5"/>
<text text-anchor="start" x="392" y="-301.5" font-family="Helvetica,sans-Serif" font-size="10.00">std::basic_string&lt;</text>
<text text-anchor="middle" x="436" y="-290.5" font-family="Helvetica,sans-Serif" font-size="10.00"> char &gt;</text>
</a>
</g>
</g>
<!-- Node7&#45;&gt;Node6 -->
<g id="edge6" class="edge">
<title>Node7&#45;&gt;Node6</title>
<path fill="none" stroke="midnightblue" d="M498.4,-298.29C559.88,-298.08 652.08,-297.77 700.19,-297.61"/>
<polygon fill="midnightblue" stroke="midnightblue" points="498.04,-294.79 488.05,-298.33 498.06,-301.79 498.04,-294.79"/>
</g>
<!-- Node8 -->
<g id="node8" class="node">
<title>Node8</title>
<g id="a_node8"><a xlink:href="classitk_1_1MetaDataDictionary.html" target="_top" xlink:title="Provides a mechanism for storing a collection of arbitrary data types.">
<polygon fill="white" stroke="black" points="666,-247 666,-266 800,-266 800,-247 666,-247"/>
<text text-anchor="middle" x="733" y="-254" font-family="Helvetica,sans-Serif" font-size="10.00">itk::MetaDataDictionary</text>
</a>
</g>
</g>
<!-- Node8&#45;&gt;Node3 -->
<g id="edge7" class="edge">
<title>Node8&#45;&gt;Node3</title>
<path fill="none" stroke="#9a32cd" stroke-dasharray="5,2" d="M810.3,-258.9C852.39,-260.23 905.58,-261.93 953,-263.5 971.08,-264.1 991.26,-264.79 1007.68,-265.36"/>
<polygon fill="#9a32cd" stroke="#9a32cd" points="810.23,-255.39 800.13,-258.57 810.01,-262.39 810.23,-255.39"/>
<text text-anchor="middle" x="894.5" y="-266.5" font-family="Helvetica,sans-Serif" font-size="10.00"> m_MetaDataDictionary</text>
</g>
<!-- Node9 -->
<g id="node9" class="node">
<title>Node9</title>
<g id="a_node9"><a xlink:title=" ">
<polygon fill="white" stroke="#bfbfbf" points="361.5,-234.5 361.5,-264.5 510.5,-264.5 510.5,-234.5 361.5,-234.5"/>
<text text-anchor="start" x="369.5" y="-252.5" font-family="Helvetica,sans-Serif" font-size="10.00">std::shared_ptr&lt; MetaData</text>
<text text-anchor="middle" x="436" y="-241.5" font-family="Helvetica,sans-Serif" font-size="10.00">DictionaryMapType &gt;</text>
</a>
</g>
</g>
<!-- Node9&#45;&gt;Node8 -->
<g id="edge8" class="edge">
<title>Node9&#45;&gt;Node8</title>
<path fill="none" stroke="#9a32cd" stroke-dasharray="5,2" d="M520.92,-251.49C566.86,-252.58 622.97,-253.91 665.79,-254.93"/>
<polygon fill="#9a32cd" stroke="#9a32cd" points="520.76,-247.99 510.68,-251.25 520.59,-254.98 520.76,-247.99"/>
<text text-anchor="middle" x="581.5" y="-256.5" font-family="Helvetica,sans-Serif" font-size="10.00"> m_Dictionary</text>
</g>
<!-- Node10 -->
<g id="node10" class="node">
<title>Node10</title>
<g id="a_node10"><a xlink:title="STL class.">
<polygon fill="white" stroke="#bfbfbf" points="114,-240 114,-259 215,-259 215,-240 114,-240"/>
<text text-anchor="middle" x="164.5" y="-247" font-family="Helvetica,sans-Serif" font-size="10.00">std::map&lt; K, T &gt;</text>
</a>
</g>
</g>
<!-- Node10&#45;&gt;Node9 -->
<g id="edge9" class="edge">
<title>Node10&#45;&gt;Node9</title>
<path fill="none" stroke="#9a32cd" stroke-dasharray="5,2" d="M225.42,-249.5C265.56,-249.5 318.68,-249.5 361.39,-249.5"/>
<polygon fill="#9a32cd" stroke="#9a32cd" points="225.24,-246 215.24,-249.5 225.24,-253 225.24,-246"/>
<text text-anchor="middle" x="286" y="-252.5" font-family="Helvetica,sans-Serif" font-size="10.00"> ptr</text>
</g>
<!-- Node11 -->
<g id="node11" class="node">
<title>Node11</title>
<g id="a_node11"><a xlink:title=" ">
<polygon fill="white" stroke="#bfbfbf" points="0,-264 0,-283 29,-283 29,-264 0,-264"/>
<text text-anchor="middle" x="14.5" y="-271" font-family="Helvetica,sans-Serif" font-size="10.00">K</text>
</a>
</g>
</g>
<!-- Node11&#45;&gt;Node10 -->
<g id="edge10" class="edge">
<title>Node11&#45;&gt;Node10</title>
<path fill="none" stroke="#9a32cd" stroke-dasharray="5,2" d="M39.24,-269.65C59.28,-266.4 88.63,-261.64 113.78,-257.56"/>
<polygon fill="#9a32cd" stroke="#9a32cd" points="38.47,-266.23 29.16,-271.29 39.59,-273.14 38.47,-266.23"/>
<text text-anchor="middle" x="71.5" y="-270.5" font-family="Helvetica,sans-Serif" font-size="10.00"> keys</text>
</g>
<!-- Node12 -->
<g id="node12" class="node">
<title>Node12</title>
<g id="a_node12"><a xlink:title=" ">
<polygon fill="white" stroke="#bfbfbf" points="0,-211 0,-230 29,-230 29,-211 0,-211"/>
<text text-anchor="middle" x="14.5" y="-218" font-family="Helvetica,sans-Serif" font-size="10.00">T</text>
</a>
</g>
</g>
<!-- Node12&#45;&gt;Node10 -->
<g id="edge11" class="edge">
<title>Node12&#45;&gt;Node10</title>
<path fill="none" stroke="#9a32cd" stroke-dasharray="5,2" d="M39.09,-225.12C59.39,-229.1 89.35,-234.97 114.78,-239.95"/>
<polygon fill="#9a32cd" stroke="#9a32cd" points="39.64,-221.66 29.16,-223.18 38.3,-228.53 39.64,-221.66"/>
<text text-anchor="middle" x="71.5" y="-238.5" font-family="Helvetica,sans-Serif" font-size="10.00"> elements</text>
</g>
<!-- Node14 -->
<g id="node14" class="node">
<title>Node14</title>
<g id="a_node14"><a xlink:title="STL class.">
<polygon fill="white" stroke="#bfbfbf" points="114.5,-196 114.5,-215 214.5,-215 214.5,-196 114.5,-196"/>
<text text-anchor="middle" x="164.5" y="-203" font-family="Helvetica,sans-Serif" font-size="10.00">std::atomic&lt; T &gt;</text>
</a>
</g>
</g>
<!-- Node12&#45;&gt;Node14 -->
<g id="edge14" class="edge">
<title>Node12&#45;&gt;Node14</title>
<path fill="none" stroke="#9a32cd" stroke-dasharray="5,2" d="M38.4,-209.04C41.24,-208.01 44.15,-207.12 47,-206.5 68.74,-201.79 93.31,-200.94 114.26,-201.51"/>
<polygon fill="#9a32cd" stroke="#9a32cd" points="37.03,-205.82 29.19,-212.95 39.77,-212.27 37.03,-205.82"/>
<text text-anchor="middle" x="71.5" y="-209.5" font-family="Helvetica,sans-Serif" font-size="10.00"> ptr</text>
</g>
<!-- Node13 -->
<g id="node13" class="node">
<title>Node13</title>
<g id="a_node13"><a xlink:href="classitk_1_1TimeStamp.html" target="_top" xlink:title="Generate a unique, increasing time value.">
<polygon fill="white" stroke="black" points="535.5,-201 535.5,-220 627.5,-220 627.5,-201 535.5,-201"/>
<text text-anchor="middle" x="581.5" y="-208" font-family="Helvetica,sans-Serif" font-size="10.00">itk::TimeStamp</text>
</a>
</g>
</g>
<!-- Node13&#45;&gt;Node3 -->
<g id="edge12" class="edge">
<title>Node13&#45;&gt;Node3</title>
<path fill="none" stroke="#9a32cd" stroke-dasharray="5,2" d="M637.93,-212.54C685.76,-214.72 756.62,-218.92 818,-226.5 885.97,-234.89 964.66,-250.43 1007.87,-259.47"/>
<polygon fill="#9a32cd" stroke="#9a32cd" points="637.93,-209.04 627.79,-212.1 637.62,-216.03 637.93,-209.04"/>
<text text-anchor="middle" x="733" y="-229.5" font-family="Helvetica,sans-Serif" font-size="10.00"> m_MTime</text>
</g>
<!-- Node14&#45;&gt;Node13 -->
<g id="edge13" class="edge">
<title>Node14&#45;&gt;Node13</title>
<path fill="none" stroke="#9a32cd" stroke-dasharray="5,2" d="M224.87,-206.22C308.76,-207.23 460.15,-209.05 535.44,-209.96"/>
<polygon fill="#9a32cd" stroke="#9a32cd" points="224.78,-202.71 214.74,-206.09 224.69,-209.71 224.78,-202.71"/>
<text text-anchor="middle" x="286" y="-210.5" font-family="Helvetica,sans-Serif" font-size="10.00"> m_GlobalTimeStamp</text>
</g>
<!-- Node15 -->
<g id="node15" class="node">
<title>Node15</title>
<g id="a_node15"><a xlink:href="classitk_1_1SmartPointer.html" target="_top" xlink:title=" ">
<polygon fill="white" stroke="black" points="988,-95.5 988,-125.5 1095,-125.5 1095,-95.5 988,-95.5"/>
<text text-anchor="start" x="996" y="-113.5" font-family="Helvetica,sans-Serif" font-size="10.00">itk::SmartPointer&lt;</text>
<text text-anchor="middle" x="1041.5" y="-102.5" font-family="Helvetica,sans-Serif" font-size="10.00"> Self &gt;</text>
</a>
</g>
</g>
<!-- Node15&#45;&gt;Node1 -->
<g id="edge29" class="edge">
<title>Node15&#45;&gt;Node1</title>
<path fill="none" stroke="#9a32cd" stroke-dasharray="5,2" d="M1105.5,-110.5C1215.3,-110.5 1441.12,-110.5 1557.73,-110.5"/>
<polygon fill="#9a32cd" stroke="#9a32cd" points="1105.24,-107 1095.24,-110.5 1105.24,-114 1105.24,-107"/>
<text text-anchor="middle" x="1323.5" y="-113.5" font-family="Helvetica,sans-Serif" font-size="10.00"> m_Command</text>
</g>
<!-- Node15&#45;&gt;Node2 -->
<g id="edge15" class="edge">
<title>Node15&#45;&gt;Node2</title>
<path fill="none" stroke="#9a32cd" stroke-dasharray="5,2" d="M1105.19,-125.41C1140.9,-133.92 1186.46,-144.78 1227,-154.5 1237.7,-157.06 1249.07,-159.8 1260.09,-162.45"/>
<polygon fill="#9a32cd" stroke="#9a32cd" points="1105.93,-121.99 1095.39,-123.08 1104.31,-128.8 1105.93,-121.99"/>
<text text-anchor="middle" x="1178.5" y="-157.5" font-family="Helvetica,sans-Serif" font-size="10.00"> m_ScalesEstimator</text>
</g>
<!-- Node22 -->
<g id="node22" class="node">
<title>Node22</title>
<g id="a_node22"><a xlink:href="classitk_1_1SingleValuedVnlCostFunctionAdaptorv4.html" target="_top" xlink:title="This class is an Adaptor that allows to pass itk::ObjectToObjectMetricBase objects to vnl_optimizers ...">
<polygon fill="white" stroke="black" points="1255.5,-40.5 1255.5,-70.5 1391.5,-70.5 1391.5,-40.5 1255.5,-40.5"/>
<text text-anchor="start" x="1263.5" y="-58.5" font-family="Helvetica,sans-Serif" font-size="10.00">itk::SingleValuedVnlCost</text>
<text text-anchor="middle" x="1323.5" y="-47.5" font-family="Helvetica,sans-Serif" font-size="10.00">FunctionAdaptorv4</text>
</a>
</g>
</g>
<!-- Node15&#45;&gt;Node22 -->
<g id="edge28" class="edge">
<title>Node15&#45;&gt;Node22</title>
<path fill="none" stroke="#9a32cd" stroke-dasharray="5,2" d="M1101.15,-92.67C1110.74,-90.06 1120.61,-87.56 1130,-85.5 1171.29,-76.42 1218.16,-69.05 1255.31,-63.89"/>
<polygon fill="#9a32cd" stroke="#9a32cd" points="1099.98,-89.36 1091.28,-95.41 1101.85,-96.1 1099.98,-89.36"/>
<text text-anchor="middle" x="1178.5" y="-88.5" font-family="Helvetica,sans-Serif" font-size="10.00"> m_Reporter</text>
</g>
<!-- Node16 -->
<g id="node16" class="node">
<title>Node16</title>
<g id="a_node16"><a xlink:href="classitk_1_1SmartPointer.html" target="_top" xlink:title="Implements transparent reference counting.">
<polygon fill="white" stroke="black" points="988,-207.5 988,-237.5 1095,-237.5 1095,-207.5 988,-207.5"/>
<text text-anchor="start" x="996" y="-225.5" font-family="Helvetica,sans-Serif" font-size="10.00">itk::SmartPointer&lt;</text>
<text text-anchor="middle" x="1041.5" y="-214.5" font-family="Helvetica,sans-Serif" font-size="10.00"> TObjectType &gt;</text>
</a>
</g>
</g>
<!-- Node16&#45;&gt;Node2 -->
<g id="edge16" class="edge">
<title>Node16&#45;&gt;Node2</title>
<path fill="none" stroke="#9a32cd" stroke-dasharray="5,2" d="M1105.49,-216.26C1141.26,-212.32 1186.79,-206.62 1227,-199.5 1238.22,-197.51 1250.12,-195.06 1261.55,-192.52"/>
<polygon fill="#9a32cd" stroke="#9a32cd" points="1104.77,-212.82 1095.2,-217.38 1105.52,-219.78 1104.77,-212.82"/>
<text text-anchor="middle" x="1178.5" y="-215.5" font-family="Helvetica,sans-Serif" font-size="10.00"> m_Metric</text>
</g>
<!-- Node17 -->
<g id="node17" class="node">
<title>Node17</title>
<g id="a_node17"><a xlink:href="classitk_1_1OptimizerParameters.html" target="_top" xlink:title=" ">
<polygon fill="white" stroke="black" points="972,-151.5 972,-181.5 1111,-181.5 1111,-151.5 972,-151.5"/>
<text text-anchor="start" x="980" y="-169.5" font-family="Helvetica,sans-Serif" font-size="10.00">itk::OptimizerParameters</text>
<text text-anchor="middle" x="1041.5" y="-158.5" font-family="Helvetica,sans-Serif" font-size="10.00">&lt; double &gt;</text>
</a>
</g>
</g>
<!-- Node17&#45;&gt;Node2 -->
<g id="edge17" class="edge">
<title>Node17&#45;&gt;Node2</title>
<path fill="none" stroke="#9a32cd" stroke-dasharray="5,2" d="M1121.5,-169.6C1160.09,-171.12 1206.35,-172.94 1244.77,-174.45"/>
<polygon fill="#9a32cd" stroke="#9a32cd" points="1121.48,-166.1 1111.35,-169.2 1121.21,-173.09 1121.48,-166.1"/>
<text text-anchor="middle" x="1178.5" y="-187.5" font-family="Helvetica,sans-Serif" font-size="10.00"> m_Scales</text>
<text text-anchor="middle" x="1178.5" y="-176.5" font-family="Helvetica,sans-Serif" font-size="10.00">m_Weights</text>
</g>
<!-- Node18 -->
<g id="node18" class="node">
<title>Node18</title>
<g id="a_node18"><a xlink:href="classitk_1_1Array.html" target="_top" xlink:title=" ">
<polygon fill="white" stroke="black" points="674.5,-157 674.5,-176 791.5,-176 791.5,-157 674.5,-157"/>
<text text-anchor="middle" x="733" y="-164" font-family="Helvetica,sans-Serif" font-size="10.00">itk::Array&lt; double &gt;</text>
</a>
</g>
</g>
<!-- Node18&#45;&gt;Node17 -->
<g id="edge18" class="edge">
<title>Node18&#45;&gt;Node17</title>
<path fill="none" stroke="midnightblue" d="M801.82,-166.5C852.37,-166.5 921.12,-166.5 971.86,-166.5"/>
<polygon fill="midnightblue" stroke="midnightblue" points="801.65,-163 791.65,-166.5 801.65,-170 801.65,-163"/>
</g>
<!-- Node19 -->
<g id="node19" class="node">
<title>Node19</title>
<g id="a_node19"><a xlink:title=" ">
<polygon fill="white" stroke="#bfbfbf" points="374.5,-157 374.5,-176 497.5,-176 497.5,-157 374.5,-157"/>
<text text-anchor="middle" x="436" y="-164" font-family="Helvetica,sans-Serif" font-size="10.00">vnl_vector&lt; double &gt;</text>
</a>
</g>
</g>
<!-- Node19&#45;&gt;Node18 -->
<g id="edge19" class="edge">
<title>Node19&#45;&gt;Node18</title>
<path fill="none" stroke="midnightblue" d="M508.04,-166.5C558.98,-166.5 626.72,-166.5 674.32,-166.5"/>
<polygon fill="midnightblue" stroke="midnightblue" points="507.77,-163 497.77,-166.5 507.77,-170 507.77,-163"/>
</g>
<!-- Node20 -->
<g id="node20" class="node">
<title>Node20</title>
<g id="a_node20"><a xlink:title=" ">
<polygon fill="white" stroke="#bfbfbf" points="648,-62.5 648,-92.5 818,-92.5 818,-62.5 648,-62.5"/>
<text text-anchor="start" x="656" y="-80.5" font-family="Helvetica,sans-Serif" font-size="10.00">std::unique_ptr&lt; itk</text>
<text text-anchor="middle" x="733" y="-69.5" font-family="Helvetica,sans-Serif" font-size="10.00">::OptimizerParametersHelper &gt;</text>
</a>
</g>
</g>
<!-- Node20&#45;&gt;Node17 -->
<g id="edge20" class="edge">
<title>Node20&#45;&gt;Node17</title>
<path fill="none" stroke="#9a32cd" stroke-dasharray="5,2" d="M795.91,-95.48C852.59,-111.94 935.53,-136.02 988.76,-151.48"/>
<polygon fill="#9a32cd" stroke="#9a32cd" points="796.57,-92.03 785.99,-92.6 794.62,-98.75 796.57,-92.03"/>
<text text-anchor="middle" x="894.5" y="-142.5" font-family="Helvetica,sans-Serif" font-size="10.00"> m_Helper</text>
</g>
<!-- Node24 -->
<g id="node24" class="node">
<title>Node24</title>
<g id="a_node24"><a xlink:href="classitk_1_1OptimizerParameters.html" target="_top" xlink:title=" ">
<polygon fill="white" stroke="black" points="971,-0.5 971,-30.5 1112,-30.5 1112,-0.5 971,-0.5"/>
<text text-anchor="start" x="979" y="-18.5" font-family="Helvetica,sans-Serif" font-size="10.00">itk::OptimizerParameters</text>
<text text-anchor="middle" x="1041.5" y="-7.5" font-family="Helvetica,sans-Serif" font-size="10.00">&lt; InternalMeasureType &gt;</text>
</a>
</g>
</g>
<!-- Node20&#45;&gt;Node24 -->
<g id="edge27" class="edge">
<title>Node20&#45;&gt;Node24</title>
<path fill="none" stroke="#9a32cd" stroke-dasharray="5,2" d="M818.25,-60.46C866.23,-50.75 925.62,-38.74 970.93,-29.57"/>
<polygon fill="#9a32cd" stroke="#9a32cd" points="817.3,-57.08 808.2,-62.49 818.69,-63.94 817.3,-57.08"/>
<text text-anchor="middle" x="894.5" y="-59.5" font-family="Helvetica,sans-Serif" font-size="10.00"> m_Helper</text>
</g>
<!-- Node21 -->
<g id="node21" class="node">
<title>Node21</title>
<g id="a_node21"><a xlink:href="classitk_1_1OptimizerParametersHelper.html" target="_top" xlink:title="Basic helper class to manage parameter data as an Array type, the default type.">
<polygon fill="white" stroke="black" points="366.5,-62.5 366.5,-92.5 505.5,-92.5 505.5,-62.5 366.5,-62.5"/>
<text text-anchor="start" x="374.5" y="-80.5" font-family="Helvetica,sans-Serif" font-size="10.00">itk::OptimizerParameters</text>
<text text-anchor="middle" x="436" y="-69.5" font-family="Helvetica,sans-Serif" font-size="10.00">Helper&lt; TValue &gt;</text>
</a>
</g>
</g>
<!-- Node21&#45;&gt;Node20 -->
<g id="edge21" class="edge">
<title>Node21&#45;&gt;Node20</title>
<path fill="none" stroke="#9a32cd" stroke-dasharray="5,2" d="M515.94,-77.5C556.67,-77.5 606.36,-77.5 647.82,-77.5"/>
<polygon fill="#9a32cd" stroke="#9a32cd" points="515.79,-74 505.79,-77.5 515.79,-81 515.79,-74"/>
<text text-anchor="middle" x="581.5" y="-80.5" font-family="Helvetica,sans-Serif" font-size="10.00"> ptr</text>
</g>
<!-- Node22&#45;&gt;Node1 -->
<g id="edge22" class="edge">
<title>Node22&#45;&gt;Node1</title>
<path fill="none" stroke="#9a32cd" stroke-dasharray="5,2" d="M1401.84,-63.8C1443.08,-68.85 1494.54,-76.13 1540,-85.5 1553.32,-88.24 1567.57,-91.84 1580.74,-95.44"/>
<polygon fill="#9a32cd" stroke="#9a32cd" points="1402.21,-60.32 1391.86,-62.6 1401.37,-67.27 1402.21,-60.32"/>
<text text-anchor="middle" x="1480" y="-88.5" font-family="Helvetica,sans-Serif" font-size="10.00"> m_CostFunctionAdaptor</text>
</g>
<!-- Node23 -->
<g id="node23" class="node">
<title>Node23</title>
<g id="a_node23"><a xlink:title=" ">
<polygon fill="white" stroke="#bfbfbf" points="990.5,-50 990.5,-69 1092.5,-69 1092.5,-50 990.5,-50"/>
<text text-anchor="middle" x="1041.5" y="-57" font-family="Helvetica,sans-Serif" font-size="10.00">vnl_cost_function</text>
</a>
</g>
</g>
<!-- Node23&#45;&gt;Node22 -->
<g id="edge23" class="edge">
<title>Node23&#45;&gt;Node22</title>
<path fill="none" stroke="midnightblue" d="M1102.72,-58.64C1147.57,-58 1208.8,-57.12 1255.25,-56.46"/>
<polygon fill="midnightblue" stroke="midnightblue" points="1102.51,-55.14 1092.56,-58.78 1102.61,-62.14 1102.51,-55.14"/>
</g>
<!-- Node24&#45;&gt;Node22 -->
<g id="edge24" class="edge">
<title>Node24&#45;&gt;Node22</title>
<path fill="none" stroke="#9a32cd" stroke-dasharray="5,2" d="M1122,-26.86C1164.06,-32.87 1215.14,-40.16 1255.22,-45.89"/>
<polygon fill="#9a32cd" stroke="#9a32cd" points="1122.47,-23.39 1112.07,-25.44 1121.48,-30.32 1122.47,-23.39"/>
<text text-anchor="middle" x="1178.5" y="-44.5" font-family="Helvetica,sans-Serif" font-size="10.00"> m_Scales</text>
</g>
<!-- Node25 -->
<g id="node25" class="node">
<title>Node25</title>
<g id="a_node25"><a xlink:href="classitk_1_1Array.html" target="_top" xlink:title=" ">
<polygon fill="white" stroke="black" points="657,-0.5 657,-30.5 809,-30.5 809,-0.5 657,-0.5"/>
<text text-anchor="start" x="665" y="-18.5" font-family="Helvetica,sans-Serif" font-size="10.00">itk::Array&lt; InternalMeasure</text>
<text text-anchor="middle" x="733" y="-7.5" font-family="Helvetica,sans-Serif" font-size="10.00">Type &gt;</text>
</a>
</g>
</g>
<!-- Node25&#45;&gt;Node24 -->
<g id="edge25" class="edge">
<title>Node25&#45;&gt;Node24</title>
<path fill="none" stroke="midnightblue" d="M819.39,-15.5C867.17,-15.5 925.98,-15.5 970.93,-15.5"/>
<polygon fill="midnightblue" stroke="midnightblue" points="819.37,-12 809.37,-15.5 819.37,-19 819.37,-12"/>
</g>
<!-- Node26 -->
<g id="node26" class="node">
<title>Node26</title>
<g id="a_node26"><a xlink:title=" ">
<polygon fill="white" stroke="#bfbfbf" points="357,-0.5 357,-30.5 515,-30.5 515,-0.5 357,-0.5"/>
<text text-anchor="start" x="365" y="-18.5" font-family="Helvetica,sans-Serif" font-size="10.00">vnl_vector&lt; InternalMeasure</text>
<text text-anchor="middle" x="436" y="-7.5" font-family="Helvetica,sans-Serif" font-size="10.00">Type &gt;</text>
</a>
</g>
</g>
<!-- Node26&#45;&gt;Node25 -->
<g id="edge26" class="edge">
<title>Node26&#45;&gt;Node25</title>
<path fill="none" stroke="midnightblue" d="M525.48,-15.5C567.38,-15.5 616.88,-15.5 656.92,-15.5"/>
<polygon fill="midnightblue" stroke="midnightblue" points="525.28,-12 515.28,-15.5 525.28,-19 525.28,-12"/>
</g>
</g>
</svg>
