<?xml version="1.0" encoding="UTF-8" standalone="no"?>
<!DOCTYPE svg PUBLIC "-//W3C//DTD SVG 1.1//EN"
 "http://www.w3.org/Graphics/SVG/1.1/DTD/svg11.dtd">
<!-- Generated by graphviz version 2.43.0 (0)
 -->
<!-- Title: itk::BSplineControlPointImageFilter&lt; TInputImage, TOutputImage &gt; Pages: 1 -->
<svg width="2325pt" height="478pt"
 viewBox="0.00 0.00 2325.00 477.72" xmlns="http://www.w3.org/2000/svg" xmlns:xlink="http://www.w3.org/1999/xlink">
<g id="graph0" class="graph" transform="scale(1 1) rotate(0) translate(4 473.72)">
<title>itk::BSplineControlPointImageFilter&lt; TInputImage, TOutputImage &gt;</title>
<polygon fill="white" stroke="transparent" points="-4,4 -4,-473.72 2321,-473.72 2321,4 -4,4"/>
<!-- Node1 -->
<g id="node1" class="node">
<title>Node1</title>
<g id="a_node1"><a xlink:title="Process a given a B&#45;spline grid of control points.">
<polygon fill="#bfbfbf" stroke="black" points="2169,-186.22 2169,-227.22 2317,-227.22 2317,-186.22 2169,-186.22"/>
<text text-anchor="start" x="2177" y="-215.22" font-family="Helvetica,sans-Serif" font-size="10.00">itk::BSplineControlPoint</text>
<text text-anchor="start" x="2177" y="-204.22" font-family="Helvetica,sans-Serif" font-size="10.00">ImageFilter&lt; TInputImage,</text>
<text text-anchor="middle" x="2243" y="-193.22" font-family="Helvetica,sans-Serif" font-size="10.00"> TOutputImage &gt;</text>
</a>
</g>
</g>
<!-- Node2 -->
<g id="node2" class="node">
<title>Node2</title>
<g id="a_node2"><a xlink:href="classitk_1_1ImageToImageFilter.html" target="_top" xlink:title=" ">
<polygon fill="white" stroke="black" points="1831,-191.72 1831,-221.72 1999,-221.72 1999,-191.72 1831,-191.72"/>
<text text-anchor="start" x="1839" y="-209.72" font-family="Helvetica,sans-Serif" font-size="10.00">itk::ImageToImageFilter</text>
<text text-anchor="middle" x="1915" y="-198.72" font-family="Helvetica,sans-Serif" font-size="10.00">&lt; TInputImage, TInputImage &gt;</text>
</a>
</g>
</g>
<!-- Node2&#45;&gt;Node1 -->
<g id="edge1" class="edge">
<title>Node2&#45;&gt;Node1</title>
<path fill="none" stroke="midnightblue" d="M2009.4,-206.72C2060.02,-206.72 2121.66,-206.72 2168.76,-206.72"/>
<polygon fill="midnightblue" stroke="midnightblue" points="2009.11,-203.22 1999.11,-206.72 2009.11,-210.22 2009.11,-203.22"/>
</g>
<!-- Node3 -->
<g id="node3" class="node">
<title>Node3</title>
<g id="a_node3"><a xlink:href="classitk_1_1ImageSource.html" target="_top" xlink:title=" ">
<polygon fill="white" stroke="black" points="1554.5,-208.72 1554.5,-238.72 1695.5,-238.72 1695.5,-208.72 1554.5,-208.72"/>
<text text-anchor="start" x="1562.5" y="-226.72" font-family="Helvetica,sans-Serif" font-size="10.00">itk::ImageSource&lt; TInput</text>
<text text-anchor="middle" x="1625" y="-215.72" font-family="Helvetica,sans-Serif" font-size="10.00">Image &gt;</text>
</a>
</g>
</g>
<!-- Node3&#45;&gt;Node2 -->
<g id="edge2" class="edge">
<title>Node3&#45;&gt;Node2</title>
<path fill="none" stroke="midnightblue" d="M1705.94,-219C1744.83,-216.71 1791.54,-213.95 1830.84,-211.63"/>
<polygon fill="midnightblue" stroke="midnightblue" points="1705.49,-215.52 1695.72,-219.61 1705.91,-222.51 1705.49,-215.52"/>
</g>
<!-- Node4 -->
<g id="node4" class="node">
<title>Node4</title>
<g id="a_node4"><a xlink:href="classitk_1_1ProcessObject.html" target="_top" xlink:title="The base class for all process objects (source, filters, mappers) in the Insight data processing pipe...">
<polygon fill="white" stroke="black" points="1295.5,-214.22 1295.5,-233.22 1399.5,-233.22 1399.5,-214.22 1295.5,-214.22"/>
<text text-anchor="middle" x="1347.5" y="-221.22" font-family="Helvetica,sans-Serif" font-size="10.00">itk::ProcessObject</text>
</a>
</g>
</g>
<!-- Node4&#45;&gt;Node3 -->
<g id="edge3" class="edge">
<title>Node4&#45;&gt;Node3</title>
<path fill="none" stroke="midnightblue" d="M1409.68,-223.72C1452.52,-223.72 1509.82,-223.72 1554.4,-223.72"/>
<polygon fill="midnightblue" stroke="midnightblue" points="1409.67,-220.22 1399.67,-223.72 1409.67,-227.22 1409.67,-220.22"/>
</g>
<!-- Node5 -->
<g id="node5" class="node">
<title>Node5</title>
<g id="a_node5"><a xlink:href="classitk_1_1Object.html" target="_top" xlink:title="Base class for most ITK classes.">
<polygon fill="white" stroke="black" points="980,-121.22 980,-140.22 1047,-140.22 1047,-121.22 980,-121.22"/>
<text text-anchor="middle" x="1013.5" y="-128.22" font-family="Helvetica,sans-Serif" font-size="10.00">itk::Object</text>
</a>
</g>
</g>
<!-- Node5&#45;&gt;Node4 -->
<g id="edge4" class="edge">
<title>Node5&#45;&gt;Node4</title>
<path fill="none" stroke="midnightblue" d="M1057.54,-127.89C1109.66,-126.64 1197.91,-131.75 1258,-173.72 1271.06,-182.85 1263.36,-195.03 1276,-204.72 1281.73,-209.12 1288.41,-212.5 1295.32,-215.1"/>
<polygon fill="midnightblue" stroke="midnightblue" points="1057.19,-124.4 1047.31,-128.23 1057.42,-131.39 1057.19,-124.4"/>
</g>
<!-- Node6 -->
<g id="node6" class="node">
<title>Node6</title>
<g id="a_node6"><a xlink:href="classitk_1_1LightObject.html" target="_top" xlink:title="Light weight base class for most itk classes.">
<polygon fill="white" stroke="black" points="659,-112.22 659,-131.22 750,-131.22 750,-112.22 659,-112.22"/>
<text text-anchor="middle" x="704.5" y="-119.22" font-family="Helvetica,sans-Serif" font-size="10.00">itk::LightObject</text>
</a>
</g>
</g>
<!-- Node6&#45;&gt;Node5 -->
<g id="edge5" class="edge">
<title>Node6&#45;&gt;Node5</title>
<path fill="none" stroke="midnightblue" d="M760.4,-123.33C824.13,-125.2 927.17,-128.22 979.59,-129.76"/>
<polygon fill="midnightblue" stroke="midnightblue" points="760.24,-119.83 750.14,-123.03 760.03,-126.82 760.24,-119.83"/>
</g>
<!-- Node7 -->
<g id="node7" class="node">
<title>Node7</title>
<g id="a_node7"><a xlink:title=" ">
<polygon fill="white" stroke="#bfbfbf" points="372,-109.22 372,-128.22 479,-128.22 479,-109.22 372,-109.22"/>
<text text-anchor="middle" x="425.5" y="-116.22" font-family="Helvetica,sans-Serif" font-size="10.00">std::atomic&lt; int &gt;</text>
</a>
</g>
</g>
<!-- Node7&#45;&gt;Node6 -->
<g id="edge6" class="edge">
<title>Node7&#45;&gt;Node6</title>
<path fill="none" stroke="#9a32cd" stroke-dasharray="5,2" d="M489.29,-119.4C540.91,-119.96 612.77,-120.74 658.72,-121.24"/>
<polygon fill="#9a32cd" stroke="#9a32cd" points="489.29,-115.9 479.25,-119.29 489.22,-122.9 489.29,-115.9"/>
<text text-anchor="middle" x="566.5" y="-124.72" font-family="Helvetica,sans-Serif" font-size="10.00"> m_ReferenceCount</text>
</g>
<!-- Node8 -->
<g id="node8" class="node">
<title>Node8</title>
<g id="a_node8"><a xlink:title="STL class.">
<polygon fill="white" stroke="#bfbfbf" points="672,-233.22 672,-252.22 737,-252.22 737,-233.22 672,-233.22"/>
<text text-anchor="middle" x="704.5" y="-240.22" font-family="Helvetica,sans-Serif" font-size="10.00">std::string</text>
</a>
</g>
</g>
<!-- Node8&#45;&gt;Node5 -->
<g id="edge7" class="edge">
<title>Node8&#45;&gt;Node5</title>
<path fill="none" stroke="#9a32cd" stroke-dasharray="5,2" d="M726.84,-227.4C744.15,-215.67 769.6,-199.98 794,-190.72 843.55,-171.92 864.23,-192.65 911,-167.72 920.98,-162.4 919.1,-155.19 929,-149.72 944.49,-141.17 963.62,-136.46 979.66,-133.87"/>
<polygon fill="#9a32cd" stroke="#9a32cd" points="724.81,-224.54 718.58,-233.11 728.79,-230.3 724.81,-224.54"/>
<text text-anchor="middle" x="852.5" y="-193.72" font-family="Helvetica,sans-Serif" font-size="10.00"> m_ObjectName</text>
</g>
<!-- Node17 -->
<g id="node17" class="node">
<title>Node17</title>
<g id="a_node17"><a xlink:title=" ">
<polygon fill="white" stroke="#bfbfbf" points="932.5,-208.72 932.5,-238.72 1094.5,-238.72 1094.5,-208.72 932.5,-208.72"/>
<text text-anchor="start" x="940.5" y="-226.72" font-family="Helvetica,sans-Serif" font-size="10.00">std::set&lt; DataObjectIdentifier</text>
<text text-anchor="middle" x="1013.5" y="-215.72" font-family="Helvetica,sans-Serif" font-size="10.00">Type &gt;</text>
</a>
</g>
</g>
<!-- Node8&#45;&gt;Node17 -->
<g id="edge18" class="edge">
<title>Node8&#45;&gt;Node17</title>
<path fill="none" stroke="#9a32cd" stroke-dasharray="5,2" d="M747.27,-243.08C788.85,-243.12 854.43,-242.3 911,-237.72 917.91,-237.16 925.08,-236.45 932.25,-235.64"/>
<polygon fill="#9a32cd" stroke="#9a32cd" points="747.25,-239.58 737.24,-243.06 747.23,-246.58 747.25,-239.58"/>
<text text-anchor="middle" x="852.5" y="-245.72" font-family="Helvetica,sans-Serif" font-size="10.00"> keys</text>
</g>
<!-- Node18 -->
<g id="node18" class="node">
<title>Node18</title>
<g id="a_node18"><a xlink:title=" ">
<polygon fill="white" stroke="#bfbfbf" points="929,-159.72 929,-189.72 1098,-189.72 1098,-159.72 929,-159.72"/>
<text text-anchor="start" x="937" y="-177.72" font-family="Helvetica,sans-Serif" font-size="10.00">std::map&lt; DataObjectIdentifier</text>
<text text-anchor="middle" x="1013.5" y="-166.72" font-family="Helvetica,sans-Serif" font-size="10.00">Type, bool &gt;</text>
</a>
</g>
</g>
<!-- Node8&#45;&gt;Node18 -->
<g id="edge20" class="edge">
<title>Node8&#45;&gt;Node18</title>
<path fill="none" stroke="#9a32cd" stroke-dasharray="5,2" d="M746.91,-234.09C761.75,-231.06 778.61,-227.67 794,-224.72 845.89,-214.79 859.54,-215.66 911,-203.72 928.32,-199.71 947.08,-194.57 963.71,-189.74"/>
<polygon fill="#9a32cd" stroke="#9a32cd" points="746.09,-230.69 737,-236.13 747.5,-237.55 746.09,-230.69"/>
<text text-anchor="middle" x="852.5" y="-227.72" font-family="Helvetica,sans-Serif" font-size="10.00"> keys</text>
</g>
<!-- Node23 -->
<g id="node23" class="node">
<title>Node23</title>
<g id="a_node23"><a xlink:title=" ">
<polygon fill="white" stroke="#bfbfbf" points="929,-355.72 929,-385.72 1098,-385.72 1098,-355.72 929,-355.72"/>
<text text-anchor="start" x="937" y="-373.72" font-family="Helvetica,sans-Serif" font-size="10.00">std::map&lt; DataObjectIdentifier</text>
<text text-anchor="middle" x="1013.5" y="-362.72" font-family="Helvetica,sans-Serif" font-size="10.00">Type, DataObjectPointer &gt;</text>
</a>
</g>
</g>
<!-- Node8&#45;&gt;Node23 -->
<g id="edge27" class="edge">
<title>Node8&#45;&gt;Node23</title>
<path fill="none" stroke="#9a32cd" stroke-dasharray="5,2" d="M747.38,-250.66C803.9,-261.72 898.95,-281.63 911,-292.72 929.62,-309.85 910.74,-329.21 929,-346.72 932.59,-350.17 936.65,-353.12 940.98,-355.66"/>
<polygon fill="#9a32cd" stroke="#9a32cd" points="747.79,-247.18 737.3,-248.71 746.45,-254.05 747.79,-247.18"/>
<text text-anchor="middle" x="852.5" y="-295.72" font-family="Helvetica,sans-Serif" font-size="10.00"> keys</text>
</g>
<!-- Node9 -->
<g id="node9" class="node">
<title>Node9</title>
<g id="a_node9"><a xlink:title="STL class.">
<polygon fill="white" stroke="#bfbfbf" points="373.5,-227.72 373.5,-257.72 477.5,-257.72 477.5,-227.72 373.5,-227.72"/>
<text text-anchor="start" x="381.5" y="-245.72" font-family="Helvetica,sans-Serif" font-size="10.00">std::basic_string&lt;</text>
<text text-anchor="middle" x="425.5" y="-234.72" font-family="Helvetica,sans-Serif" font-size="10.00"> char &gt;</text>
</a>
</g>
</g>
<!-- Node9&#45;&gt;Node8 -->
<g id="edge8" class="edge">
<title>Node9&#45;&gt;Node8</title>
<path fill="none" stroke="midnightblue" d="M487.93,-242.72C544.75,-242.72 626.97,-242.72 671.66,-242.72"/>
<polygon fill="midnightblue" stroke="midnightblue" points="487.63,-239.22 477.63,-242.72 487.63,-246.22 487.63,-239.22"/>
</g>
<!-- Node10 -->
<g id="node10" class="node">
<title>Node10</title>
<g id="a_node10"><a xlink:href="classitk_1_1MetaDataDictionary.html" target="_top" xlink:title="Provides a mechanism for storing a collection of arbitrary data types.">
<polygon fill="white" stroke="black" points="637.5,-151.22 637.5,-170.22 771.5,-170.22 771.5,-151.22 637.5,-151.22"/>
<text text-anchor="middle" x="704.5" y="-158.22" font-family="Helvetica,sans-Serif" font-size="10.00">itk::MetaDataDictionary</text>
</a>
</g>
</g>
<!-- Node10&#45;&gt;Node5 -->
<g id="edge9" class="edge">
<title>Node10&#45;&gt;Node5</title>
<path fill="none" stroke="#9a32cd" stroke-dasharray="5,2" d="M781.74,-153.27C845.39,-147.05 933.03,-138.49 979.86,-133.91"/>
<polygon fill="#9a32cd" stroke="#9a32cd" points="781.35,-149.79 771.74,-154.25 782.03,-156.76 781.35,-149.79"/>
<text text-anchor="middle" x="852.5" y="-155.72" font-family="Helvetica,sans-Serif" font-size="10.00"> m_MetaDataDictionary</text>
</g>
<!-- Node11 -->
<g id="node11" class="node">
<title>Node11</title>
<g id="a_node11"><a xlink:title=" ">
<polygon fill="white" stroke="#bfbfbf" points="351,-147.72 351,-177.72 500,-177.72 500,-147.72 351,-147.72"/>
<text text-anchor="start" x="359" y="-165.72" font-family="Helvetica,sans-Serif" font-size="10.00">std::shared_ptr&lt; MetaData</text>
<text text-anchor="middle" x="425.5" y="-154.72" font-family="Helvetica,sans-Serif" font-size="10.00">DictionaryMapType &gt;</text>
</a>
</g>
</g>
<!-- Node11&#45;&gt;Node10 -->
<g id="edge10" class="edge">
<title>Node11&#45;&gt;Node10</title>
<path fill="none" stroke="#9a32cd" stroke-dasharray="5,2" d="M510.18,-162.12C550.89,-161.82 599.13,-161.48 637.24,-161.2"/>
<polygon fill="#9a32cd" stroke="#9a32cd" points="509.98,-158.62 500,-162.19 510.03,-165.62 509.98,-158.62"/>
<text text-anchor="middle" x="566.5" y="-165.72" font-family="Helvetica,sans-Serif" font-size="10.00"> m_Dictionary</text>
</g>
<!-- Node12 -->
<g id="node12" class="node">
<title>Node12</title>
<g id="a_node12"><a xlink:title="STL class.">
<polygon fill="white" stroke="#bfbfbf" points="114,-152.22 114,-171.22 215,-171.22 215,-152.22 114,-152.22"/>
<text text-anchor="middle" x="164.5" y="-159.22" font-family="Helvetica,sans-Serif" font-size="10.00">std::map&lt; K, T &gt;</text>
</a>
</g>
</g>
<!-- Node12&#45;&gt;Node11 -->
<g id="edge11" class="edge">
<title>Node12&#45;&gt;Node11</title>
<path fill="none" stroke="#9a32cd" stroke-dasharray="5,2" d="M225.34,-161.95C262.61,-162.1 310.86,-162.28 350.52,-162.44"/>
<polygon fill="#9a32cd" stroke="#9a32cd" points="225.14,-158.45 215.13,-161.91 225.12,-165.45 225.14,-158.45"/>
<text text-anchor="middle" x="283" y="-165.72" font-family="Helvetica,sans-Serif" font-size="10.00"> ptr</text>
</g>
<!-- Node13 -->
<g id="node13" class="node">
<title>Node13</title>
<g id="a_node13"><a xlink:title=" ">
<polygon fill="white" stroke="#bfbfbf" points="0,-152.22 0,-171.22 29,-171.22 29,-152.22 0,-152.22"/>
<text text-anchor="middle" x="14.5" y="-159.22" font-family="Helvetica,sans-Serif" font-size="10.00">K</text>
</a>
</g>
</g>
<!-- Node13&#45;&gt;Node12 -->
<g id="edge12" class="edge">
<title>Node13&#45;&gt;Node12</title>
<path fill="none" stroke="#9a32cd" stroke-dasharray="5,2" d="M39.24,-161.72C59.28,-161.72 88.63,-161.72 113.78,-161.72"/>
<polygon fill="#9a32cd" stroke="#9a32cd" points="39.16,-158.22 29.16,-161.72 39.16,-165.22 39.16,-158.22"/>
<text text-anchor="middle" x="71.5" y="-164.72" font-family="Helvetica,sans-Serif" font-size="10.00"> keys</text>
</g>
<!-- Node14 -->
<g id="node14" class="node">
<title>Node14</title>
<g id="a_node14"><a xlink:title=" ">
<polygon fill="white" stroke="#bfbfbf" points="0,-99.22 0,-118.22 29,-118.22 29,-99.22 0,-99.22"/>
<text text-anchor="middle" x="14.5" y="-106.22" font-family="Helvetica,sans-Serif" font-size="10.00">T</text>
</a>
</g>
</g>
<!-- Node14&#45;&gt;Node12 -->
<g id="edge13" class="edge">
<title>Node14&#45;&gt;Node12</title>
<path fill="none" stroke="#9a32cd" stroke-dasharray="5,2" d="M38.78,-117.06C65.36,-126.58 108.76,-142.12 136.72,-152.13"/>
<polygon fill="#9a32cd" stroke="#9a32cd" points="39.75,-113.69 29.16,-113.61 37.39,-120.28 39.75,-113.69"/>
<text text-anchor="middle" x="71.5" y="-140.72" font-family="Helvetica,sans-Serif" font-size="10.00"> elements</text>
</g>
<!-- Node16 -->
<g id="node16" class="node">
<title>Node16</title>
<g id="a_node16"><a xlink:title="STL class.">
<polygon fill="white" stroke="#bfbfbf" points="233,-77.22 233,-96.22 333,-96.22 333,-77.22 233,-77.22"/>
<text text-anchor="middle" x="283" y="-84.22" font-family="Helvetica,sans-Serif" font-size="10.00">std::atomic&lt; T &gt;</text>
</a>
</g>
</g>
<!-- Node14&#45;&gt;Node16 -->
<g id="edge16" class="edge">
<title>Node14&#45;&gt;Node16</title>
<path fill="none" stroke="#9a32cd" stroke-dasharray="5,2" d="M39.45,-106.41C42,-106.17 44.55,-105.94 47,-105.72 111.22,-100.07 185.37,-94.18 232.92,-90.49"/>
<polygon fill="#9a32cd" stroke="#9a32cd" points="38.92,-102.94 29.3,-107.37 39.58,-109.91 38.92,-102.94"/>
<text text-anchor="middle" x="71.5" y="-108.72" font-family="Helvetica,sans-Serif" font-size="10.00"> ptr</text>
</g>
<!-- Node15 -->
<g id="node15" class="node">
<title>Node15</title>
<g id="a_node15"><a xlink:href="classitk_1_1TimeStamp.html" target="_top" xlink:title="Generate a unique, increasing time value.">
<polygon fill="white" stroke="black" points="658.5,-70.22 658.5,-89.22 750.5,-89.22 750.5,-70.22 658.5,-70.22"/>
<text text-anchor="middle" x="704.5" y="-77.22" font-family="Helvetica,sans-Serif" font-size="10.00">itk::TimeStamp</text>
</a>
</g>
</g>
<!-- Node15&#45;&gt;Node4 -->
<g id="edge29" class="edge">
<title>Node15&#45;&gt;Node4</title>
<path fill="none" stroke="#9a32cd" stroke-dasharray="5,2" d="M761.09,-76.15C886.77,-69.34 1187.34,-60.56 1258,-126.72 1283.97,-151.04 1251.31,-179.11 1276,-204.72 1281.37,-210.29 1288.18,-214.28 1295.44,-217.13"/>
<polygon fill="#9a32cd" stroke="#9a32cd" points="760.7,-72.67 750.91,-76.72 761.09,-79.66 760.7,-72.67"/>
<text text-anchor="middle" x="1013.5" y="-81.72" font-family="Helvetica,sans-Serif" font-size="10.00"> m_OutputInformationMTime</text>
</g>
<!-- Node15&#45;&gt;Node5 -->
<g id="edge14" class="edge">
<title>Node15&#45;&gt;Node5</title>
<path fill="none" stroke="#9a32cd" stroke-dasharray="5,2" d="M760.69,-86.88C802.14,-92.47 860.26,-100.78 911,-109.72 934.04,-113.78 959.85,-119.14 979.68,-123.42"/>
<polygon fill="#9a32cd" stroke="#9a32cd" points="760.9,-83.38 750.52,-85.52 759.97,-90.31 760.9,-83.38"/>
<text text-anchor="middle" x="852.5" y="-112.72" font-family="Helvetica,sans-Serif" font-size="10.00"> m_MTime</text>
</g>
<!-- Node16&#45;&gt;Node15 -->
<g id="edge15" class="edge">
<title>Node16&#45;&gt;Node15</title>
<path fill="none" stroke="#9a32cd" stroke-dasharray="5,2" d="M343.61,-85.73C428.52,-84.31 582.42,-81.74 658.48,-80.47"/>
<polygon fill="#9a32cd" stroke="#9a32cd" points="343.3,-82.23 333.36,-85.9 343.41,-89.23 343.3,-82.23"/>
<text text-anchor="middle" x="425.5" y="-88.72" font-family="Helvetica,sans-Serif" font-size="10.00"> m_GlobalTimeStamp</text>
</g>
<!-- Node17&#45;&gt;Node4 -->
<g id="edge17" class="edge">
<title>Node17&#45;&gt;Node4</title>
<path fill="none" stroke="#9a32cd" stroke-dasharray="5,2" d="M1104.91,-223.72C1166.07,-223.72 1244.64,-223.72 1295.28,-223.72"/>
<polygon fill="#9a32cd" stroke="#9a32cd" points="1104.87,-220.22 1094.87,-223.72 1104.87,-227.22 1104.87,-220.22"/>
<text text-anchor="middle" x="1187" y="-226.72" font-family="Helvetica,sans-Serif" font-size="10.00"> m_RequiredInputNames</text>
</g>
<!-- Node18&#45;&gt;Node4 -->
<g id="edge19" class="edge">
<title>Node18&#45;&gt;Node4</title>
<path fill="none" stroke="#9a32cd" stroke-dasharray="5,2" d="M1108.44,-177.53C1154.07,-180.43 1209.41,-186.21 1258,-197.72 1266.35,-199.7 1267.84,-202.05 1276,-204.72 1286.36,-208.12 1297.71,-211.38 1308.23,-214.21"/>
<polygon fill="#9a32cd" stroke="#9a32cd" points="1108.45,-174.03 1098.26,-176.92 1108.04,-181.01 1108.45,-174.03"/>
<text text-anchor="start" x="1116" y="-211.72" font-family="Helvetica,sans-Serif" font-size="10.00"> m_CachedInputReleaseData</text>
<text text-anchor="middle" x="1187" y="-200.72" font-family="Helvetica,sans-Serif" font-size="10.00">Flags</text>
</g>
<!-- Node19 -->
<g id="node19" class="node">
<title>Node19</title>
<g id="a_node19"><a xlink:title=" ">
<polygon fill="white" stroke="#bfbfbf" points="946.5,-10.22 946.5,-29.22 1080.5,-29.22 1080.5,-10.22 946.5,-10.22"/>
<text text-anchor="middle" x="1013.5" y="-17.22" font-family="Helvetica,sans-Serif" font-size="10.00">std::atomic&lt; uint32_t &gt;</text>
</a>
</g>
</g>
<!-- Node19&#45;&gt;Node4 -->
<g id="edge21" class="edge">
<title>Node19&#45;&gt;Node4</title>
<path fill="none" stroke="#9a32cd" stroke-dasharray="5,2" d="M1061.08,-8.16C1116.04,2.41 1206.43,9.66 1258,-40.72 1284.22,-66.34 1252.15,-176.88 1276,-204.72 1281.11,-210.69 1287.89,-214.88 1295.21,-217.81"/>
<polygon fill="#9a32cd" stroke="#9a32cd" points="1060.35,-4.74 1051.25,-10.16 1061.75,-11.6 1060.35,-4.74"/>
<text text-anchor="middle" x="1187" y="-43.72" font-family="Helvetica,sans-Serif" font-size="10.00"> m_Progress</text>
</g>
<!-- Node20 -->
<g id="node20" class="node">
<title>Node20</title>
<g id="a_node20"><a xlink:title=" ">
<polygon fill="white" stroke="#bfbfbf" points="676.5,-10.22 676.5,-29.22 732.5,-29.22 732.5,-10.22 676.5,-10.22"/>
<text text-anchor="middle" x="704.5" y="-17.22" font-family="Helvetica,sans-Serif" font-size="10.00">uint32_t</text>
</a>
</g>
</g>
<!-- Node20&#45;&gt;Node19 -->
<g id="edge22" class="edge">
<title>Node20&#45;&gt;Node19</title>
<path fill="none" stroke="#9a32cd" stroke-dasharray="5,2" d="M742.88,-19.72C793.35,-19.72 884.11,-19.72 946.28,-19.72"/>
<polygon fill="#9a32cd" stroke="#9a32cd" points="742.74,-16.22 732.74,-19.72 742.74,-23.22 742.74,-16.22"/>
<text text-anchor="middle" x="852.5" y="-22.72" font-family="Helvetica,sans-Serif" font-size="10.00"> ptr</text>
</g>
<!-- Node21 -->
<g id="node21" class="node">
<title>Node21</title>
<g id="a_node21"><a xlink:title=" ">
<polygon fill="white" stroke="#bfbfbf" points="929,-257.72 929,-287.72 1098,-287.72 1098,-257.72 929,-257.72"/>
<text text-anchor="start" x="937" y="-275.72" font-family="Helvetica,sans-Serif" font-size="10.00">std::vector&lt; DataObjectPointer</text>
<text text-anchor="middle" x="1013.5" y="-264.72" font-family="Helvetica,sans-Serif" font-size="10.00">Map::iterator &gt;</text>
</a>
</g>
</g>
<!-- Node21&#45;&gt;Node4 -->
<g id="edge23" class="edge">
<title>Node21&#45;&gt;Node4</title>
<path fill="none" stroke="#9a32cd" stroke-dasharray="5,2" d="M1108.36,-260.27C1153.63,-254.09 1208.68,-246.34 1258,-238.72 1270.01,-236.87 1282.92,-234.75 1295.06,-232.7"/>
<polygon fill="#9a32cd" stroke="#9a32cd" points="1107.7,-256.82 1098.26,-261.64 1108.64,-263.76 1107.7,-256.82"/>
<text text-anchor="middle" x="1187" y="-272.72" font-family="Helvetica,sans-Serif" font-size="10.00"> m_IndexedOutputs</text>
<text text-anchor="middle" x="1187" y="-261.72" font-family="Helvetica,sans-Serif" font-size="10.00">m_IndexedInputs</text>
</g>
<!-- Node22 -->
<g id="node22" class="node">
<title>Node22</title>
<g id="a_node22"><a xlink:title="STL iterator class.">
<polygon fill="white" stroke="#bfbfbf" points="633,-318.22 633,-337.22 776,-337.22 776,-318.22 633,-318.22"/>
<text text-anchor="middle" x="704.5" y="-325.22" font-family="Helvetica,sans-Serif" font-size="10.00">std::map&lt; K, T &gt;::iterator</text>
</a>
</g>
</g>
<!-- Node22&#45;&gt;Node21 -->
<g id="edge24" class="edge">
<title>Node22&#45;&gt;Node21</title>
<path fill="none" stroke="#9a32cd" stroke-dasharray="5,2" d="M786.47,-324.88C824.74,-322.06 870.76,-316.53 911,-305.72 919.45,-303.45 920.79,-300.76 929,-297.72 938.51,-294.2 948.76,-290.81 958.71,-287.73"/>
<polygon fill="#9a32cd" stroke="#9a32cd" points="786.14,-321.39 776.4,-325.57 786.62,-328.38 786.14,-321.39"/>
<text text-anchor="middle" x="852.5" y="-326.72" font-family="Helvetica,sans-Serif" font-size="10.00"> elements</text>
</g>
<!-- Node23&#45;&gt;Node4 -->
<g id="edge25" class="edge">
<title>Node23&#45;&gt;Node4</title>
<path fill="none" stroke="#9a32cd" stroke-dasharray="5,2" d="M1108.02,-370.68C1155.63,-366.99 1212.82,-356.67 1258,-330.72 1299.81,-306.71 1330.31,-254.91 1341.65,-233.4"/>
<polygon fill="#9a32cd" stroke="#9a32cd" points="1107.75,-367.19 1098.01,-371.36 1108.23,-374.17 1107.75,-367.19"/>
<text text-anchor="middle" x="1187" y="-383.72" font-family="Helvetica,sans-Serif" font-size="10.00"> m_Outputs</text>
<text text-anchor="middle" x="1187" y="-372.72" font-family="Helvetica,sans-Serif" font-size="10.00">m_Inputs</text>
</g>
<!-- Node24 -->
<g id="node24" class="node">
<title>Node24</title>
<g id="a_node24"><a xlink:href="classitk_1_1SmartPointer.html" target="_top" xlink:title=" ">
<polygon fill="white" stroke="black" points="651,-369.72 651,-399.72 758,-399.72 758,-369.72 651,-369.72"/>
<text text-anchor="start" x="659" y="-387.72" font-family="Helvetica,sans-Serif" font-size="10.00">itk::SmartPointer&lt;</text>
<text text-anchor="middle" x="704.5" y="-376.72" font-family="Helvetica,sans-Serif" font-size="10.00"> Self &gt;</text>
</a>
</g>
</g>
<!-- Node24&#45;&gt;Node1 -->
<g id="edge32" class="edge">
<title>Node24&#45;&gt;Node1</title>
<path fill="none" stroke="#9a32cd" stroke-dasharray="5,2" d="M768.04,-394.44C829.96,-403.2 927.53,-414.72 1012.5,-414.72 1012.5,-414.72 1012.5,-414.72 1916,-414.72 2054.3,-414.72 2181.12,-280.04 2225.38,-227.43"/>
<polygon fill="#9a32cd" stroke="#9a32cd" points="768.44,-390.96 758.04,-393 767.44,-397.89 768.44,-390.96"/>
<text text-anchor="middle" x="1478" y="-461.72" font-family="Helvetica,sans-Serif" font-size="10.00"> m_KernelOrder0</text>
<text text-anchor="middle" x="1478" y="-450.72" font-family="Helvetica,sans-Serif" font-size="10.00">m_KernelOrder1</text>
<text text-anchor="middle" x="1478" y="-439.72" font-family="Helvetica,sans-Serif" font-size="10.00">m_KernelOrder2</text>
<text text-anchor="middle" x="1478" y="-428.72" font-family="Helvetica,sans-Serif" font-size="10.00">m_KernelOrder3</text>
<text text-anchor="middle" x="1478" y="-417.72" font-family="Helvetica,sans-Serif" font-size="10.00">m_Kernel</text>
</g>
<!-- Node24&#45;&gt;Node23 -->
<g id="edge26" class="edge">
<title>Node24&#45;&gt;Node23</title>
<path fill="none" stroke="#9a32cd" stroke-dasharray="5,2" d="M768.49,-381.85C814.84,-379.74 878.33,-376.84 928.92,-374.53"/>
<polygon fill="#9a32cd" stroke="#9a32cd" points="768.11,-378.36 758.28,-382.32 768.42,-385.36 768.11,-378.36"/>
<text text-anchor="middle" x="852.5" y="-382.72" font-family="Helvetica,sans-Serif" font-size="10.00"> elements</text>
</g>
<!-- Node25 -->
<g id="node25" class="node">
<title>Node25</title>
<g id="a_node25"><a xlink:href="classitk_1_1SmartPointer.html" target="_top" xlink:title=" ">
<polygon fill="white" stroke="black" points="942.5,-306.72 942.5,-336.72 1084.5,-336.72 1084.5,-306.72 942.5,-306.72"/>
<text text-anchor="start" x="950.5" y="-324.72" font-family="Helvetica,sans-Serif" font-size="10.00">itk::SmartPointer&lt;</text>
<text text-anchor="middle" x="1013.5" y="-313.72" font-family="Helvetica,sans-Serif" font-size="10.00"> itk::MultiThreaderBase &gt;</text>
</a>
</g>
</g>
<!-- Node25&#45;&gt;Node4 -->
<g id="edge28" class="edge">
<title>Node25&#45;&gt;Node4</title>
<path fill="none" stroke="#9a32cd" stroke-dasharray="5,2" d="M1094.79,-318.62C1143.44,-314.55 1205.95,-305.34 1258,-284.72 1289.23,-272.35 1320.3,-247.22 1335.99,-233.39"/>
<polygon fill="#9a32cd" stroke="#9a32cd" points="1094.33,-315.15 1084.63,-319.42 1094.87,-322.13 1094.33,-315.15"/>
<text text-anchor="middle" x="1187" y="-318.72" font-family="Helvetica,sans-Serif" font-size="10.00"> m_MultiThreader</text>
</g>
<!-- Node26 -->
<g id="node26" class="node">
<title>Node26</title>
<g id="a_node26"><a xlink:href="structitk_1_1ImageSourceCommon.html" target="_top" xlink:title="Secondary base class of ImageSource common between templates.">
<polygon fill="white" stroke="black" points="1276,-176.22 1276,-195.22 1419,-195.22 1419,-176.22 1276,-176.22"/>
<text text-anchor="middle" x="1347.5" y="-183.22" font-family="Helvetica,sans-Serif" font-size="10.00">itk::ImageSourceCommon</text>
</a>
</g>
</g>
<!-- Node26&#45;&gt;Node3 -->
<g id="edge30" class="edge">
<title>Node26&#45;&gt;Node3</title>
<path fill="none" stroke="#8b1a1a" d="M1427.65,-196.64C1467.65,-202.16 1515.75,-208.79 1554.33,-214.11"/>
<polygon fill="#8b1a1a" stroke="#8b1a1a" points="1428.05,-193.16 1417.66,-195.26 1427.09,-200.1 1428.05,-193.16"/>
</g>
<!-- Node27 -->
<g id="node27" class="node">
<title>Node27</title>
<g id="a_node27"><a xlink:href="classitk_1_1ImageToImageFilterCommon.html" target="_top" xlink:title="Secondary base class of ImageToImageFilter common between templates.">
<polygon fill="white" stroke="black" points="1537,-170.22 1537,-189.22 1713,-189.22 1713,-170.22 1537,-170.22"/>
<text text-anchor="middle" x="1625" y="-177.22" font-family="Helvetica,sans-Serif" font-size="10.00">itk::ImageToImageFilterCommon</text>
</a>
</g>
</g>
<!-- Node27&#45;&gt;Node2 -->
<g id="edge31" class="edge">
<title>Node27&#45;&gt;Node2</title>
<path fill="none" stroke="#8b1a1a" d="M1723.37,-188.85C1758.17,-192.11 1797.04,-195.76 1830.56,-198.9"/>
<polygon fill="#8b1a1a" stroke="#8b1a1a" points="1723.47,-185.35 1713.19,-187.9 1722.82,-192.32 1723.47,-185.35"/>
</g>
<!-- Node28 -->
<g id="node28" class="node">
<title>Node28</title>
<g id="a_node28"><a xlink:href="classitk_1_1FixedArray.html" target="_top" xlink:title=" ">
<polygon fill="white" stroke="black" points="1836.5,-128.72 1836.5,-158.72 1993.5,-158.72 1993.5,-128.72 1836.5,-128.72"/>
<text text-anchor="start" x="1844.5" y="-146.72" font-family="Helvetica,sans-Serif" font-size="10.00">itk::FixedArray&lt; unsigned</text>
<text text-anchor="middle" x="1915" y="-135.72" font-family="Helvetica,sans-Serif" font-size="10.00"> int, Self::ImageDimension &gt;</text>
</a>
</g>
</g>
<!-- Node28&#45;&gt;Node1 -->
<g id="edge33" class="edge">
<title>Node28&#45;&gt;Node1</title>
<path fill="none" stroke="#9a32cd" stroke-dasharray="5,2" d="M2003.85,-140.65C2048.64,-141.25 2103.54,-145.35 2151,-158.72 2172.15,-164.68 2193.98,-175.99 2210.96,-186.14"/>
<polygon fill="#9a32cd" stroke="#9a32cd" points="2003.6,-137.15 1993.57,-140.58 2003.54,-144.15 2003.6,-137.15"/>
<text text-anchor="middle" x="2084" y="-194.72" font-family="Helvetica,sans-Serif" font-size="10.00"> m_NumberOfControlPoints</text>
<text text-anchor="middle" x="2084" y="-183.72" font-family="Helvetica,sans-Serif" font-size="10.00">m_SplineOrder</text>
<text text-anchor="middle" x="2084" y="-172.72" font-family="Helvetica,sans-Serif" font-size="10.00">m_CloseDimension</text>
<text text-anchor="middle" x="2084" y="-161.72" font-family="Helvetica,sans-Serif" font-size="10.00">m_NumberOfLevels</text>
</g>
<!-- Node29 -->
<g id="node29" class="node">
<title>Node29</title>
<g id="a_node29"><a xlink:title=" ">
<polygon fill="white" stroke="#bfbfbf" points="1597,-132.22 1597,-151.22 1653,-151.22 1653,-132.22 1597,-132.22"/>
<text text-anchor="middle" x="1625" y="-139.22" font-family="Helvetica,sans-Serif" font-size="10.00">VLength</text>
</a>
</g>
</g>
<!-- Node29&#45;&gt;Node28 -->
<g id="edge34" class="edge">
<title>Node29&#45;&gt;Node28</title>
<path fill="none" stroke="#9a32cd" stroke-dasharray="5,2" d="M1663.24,-141.98C1706.82,-142.28 1780.17,-142.79 1836.31,-143.18"/>
<polygon fill="#9a32cd" stroke="#9a32cd" points="1663.12,-138.48 1653.09,-141.91 1663.07,-145.48 1663.12,-138.48"/>
<text text-anchor="middle" x="1772" y="-146.72" font-family="Helvetica,sans-Serif" font-size="10.00"> m_InternalArray</text>
</g>
</g>
</svg>
