<?xml version="1.0" encoding="UTF-8" standalone="no"?>
<!DOCTYPE svg PUBLIC "-//W3C//DTD SVG 1.1//EN"
 "http://www.w3.org/Graphics/SVG/1.1/DTD/svg11.dtd">
<!-- Generated by graphviz version 2.43.0 (0)
 -->
<!-- Title: itk::OptimizerParameters&lt; TParametersValueType &gt; Pages: 1 -->
<svg width="635pt" height="88pt"
 viewBox="0.00 0.00 635.00 88.00" xmlns="http://www.w3.org/2000/svg" xmlns:xlink="http://www.w3.org/1999/xlink">
<g id="graph0" class="graph" transform="scale(1 1) rotate(0) translate(4 84)">
<title>itk::OptimizerParameters&lt; TParametersValueType &gt;</title>
<polygon fill="white" stroke="transparent" points="-4,4 -4,-84 631,-84 631,4 -4,4"/>
<!-- Node1 -->
<g id="node1" class="node">
<title>Node1</title>
<g id="a_node1"><a xlink:title="Class to hold and manage different parameter types used during optimization.">
<polygon fill="#bfbfbf" stroke="black" points="477,-24.5 477,-54.5 627,-54.5 627,-24.5 477,-24.5"/>
<text text-anchor="start" x="485" y="-42.5" font-family="Helvetica,sans-Serif" font-size="10.00">itk::OptimizerParameters</text>
<text text-anchor="middle" x="552" y="-31.5" font-family="Helvetica,sans-Serif" font-size="10.00">&lt; TParametersValueType &gt;</text>
</a>
</g>
</g>
<!-- Node2 -->
<g id="node2" class="node">
<title>Node2</title>
<g id="a_node2"><a xlink:href="classitk_1_1Array.html" target="_top" xlink:title=" ">
<polygon fill="white" stroke="black" points="224.5,-49.5 224.5,-79.5 385.5,-79.5 385.5,-49.5 224.5,-49.5"/>
<text text-anchor="start" x="232.5" y="-67.5" font-family="Helvetica,sans-Serif" font-size="10.00">itk::Array&lt; TParametersValue</text>
<text text-anchor="middle" x="305" y="-56.5" font-family="Helvetica,sans-Serif" font-size="10.00">Type &gt;</text>
</a>
</g>
</g>
<!-- Node2&#45;&gt;Node1 -->
<g id="edge1" class="edge">
<title>Node2&#45;&gt;Node1</title>
<path fill="none" stroke="midnightblue" d="M395.65,-55.35C422.33,-52.63 451.26,-49.68 476.84,-47.07"/>
<polygon fill="midnightblue" stroke="midnightblue" points="395.14,-51.89 385.54,-56.38 395.85,-58.85 395.14,-51.89"/>
</g>
<!-- Node3 -->
<g id="node3" class="node">
<title>Node3</title>
<g id="a_node3"><a xlink:title=" ">
<polygon fill="white" stroke="#bfbfbf" points="0,-49.5 0,-79.5 167,-79.5 167,-49.5 0,-49.5"/>
<text text-anchor="start" x="8" y="-67.5" font-family="Helvetica,sans-Serif" font-size="10.00">vnl_vector&lt; TParametersValue</text>
<text text-anchor="middle" x="83.5" y="-56.5" font-family="Helvetica,sans-Serif" font-size="10.00">Type &gt;</text>
</a>
</g>
</g>
<!-- Node3&#45;&gt;Node2 -->
<g id="edge2" class="edge">
<title>Node3&#45;&gt;Node2</title>
<path fill="none" stroke="midnightblue" d="M177.35,-64.5C192.97,-64.5 209.06,-64.5 224.31,-64.5"/>
<polygon fill="midnightblue" stroke="midnightblue" points="177.17,-61 167.17,-64.5 177.17,-68 177.17,-61"/>
</g>
<!-- Node4 -->
<g id="node4" class="node">
<title>Node4</title>
<g id="a_node4"><a xlink:title=" ">
<polygon fill="white" stroke="#bfbfbf" points="220,-0.5 220,-30.5 390,-30.5 390,-0.5 220,-0.5"/>
<text text-anchor="start" x="228" y="-18.5" font-family="Helvetica,sans-Serif" font-size="10.00">std::unique_ptr&lt; itk</text>
<text text-anchor="middle" x="305" y="-7.5" font-family="Helvetica,sans-Serif" font-size="10.00">::OptimizerParametersHelper &gt;</text>
</a>
</g>
</g>
<!-- Node4&#45;&gt;Node1 -->
<g id="edge3" class="edge">
<title>Node4&#45;&gt;Node1</title>
<path fill="none" stroke="#9a32cd" stroke-dasharray="5,2" d="M400.31,-24.74C425.65,-27.22 452.69,-29.87 476.77,-32.23"/>
<polygon fill="#9a32cd" stroke="#9a32cd" points="400.61,-21.25 390.32,-23.76 399.93,-28.22 400.61,-21.25"/>
<text text-anchor="middle" x="433.5" y="-32.5" font-family="Helvetica,sans-Serif" font-size="10.00"> m_Helper</text>
</g>
<!-- Node5 -->
<g id="node5" class="node">
<title>Node5</title>
<g id="a_node5"><a xlink:href="classitk_1_1OptimizerParametersHelper.html" target="_top" xlink:title="Basic helper class to manage parameter data as an Array type, the default type.">
<polygon fill="white" stroke="black" points="14,-0.5 14,-30.5 153,-30.5 153,-0.5 14,-0.5"/>
<text text-anchor="start" x="22" y="-18.5" font-family="Helvetica,sans-Serif" font-size="10.00">itk::OptimizerParameters</text>
<text text-anchor="middle" x="83.5" y="-7.5" font-family="Helvetica,sans-Serif" font-size="10.00">Helper&lt; TValue &gt;</text>
</a>
</g>
</g>
<!-- Node5&#45;&gt;Node4 -->
<g id="edge4" class="edge">
<title>Node5&#45;&gt;Node4</title>
<path fill="none" stroke="#9a32cd" stroke-dasharray="5,2" d="M163.11,-15.5C181.49,-15.5 201.14,-15.5 219.76,-15.5"/>
<polygon fill="#9a32cd" stroke="#9a32cd" points="163.05,-12 153.05,-15.5 163.05,-19 163.05,-12"/>
<text text-anchor="middle" x="193.5" y="-18.5" font-family="Helvetica,sans-Serif" font-size="10.00"> ptr</text>
</g>
</g>
</svg>
