<?xml version="1.0" encoding="UTF-8" standalone="no"?>
<!DOCTYPE svg PUBLIC "-//W3C//DTD SVG 1.1//EN"
 "http://www.w3.org/Graphics/SVG/1.1/DTD/svg11.dtd">
<!-- Generated by graphviz version 2.43.0 (0)
 -->
<!-- Title: itk::DelaunayConformingQuadEdgeMeshFilter&lt; TInputMesh, TOutputMesh &gt; Pages: 1 -->
<svg width="2537pt" height="445pt"
 viewBox="0.00 0.00 2537.00 444.72" xmlns="http://www.w3.org/2000/svg" xmlns:xlink="http://www.w3.org/1999/xlink">
<g id="graph0" class="graph" transform="scale(1 1) rotate(0) translate(4 440.72)">
<title>itk::DelaunayConformingQuadEdgeMeshFilter&lt; TInputMesh, TOutputMesh &gt;</title>
<polygon fill="white" stroke="transparent" points="-4,4 -4,-440.72 2533,-440.72 2533,4 -4,4"/>
<!-- Node1 -->
<g id="node1" class="node">
<title>Node1</title>
<g id="a_node1"><a xlink:title="FIXME Add documentation.">
<polygon fill="#bfbfbf" stroke="black" points="2365,-182.22 2365,-223.22 2529,-223.22 2529,-182.22 2365,-182.22"/>
<text text-anchor="start" x="2373" y="-211.22" font-family="Helvetica,sans-Serif" font-size="10.00">itk::DelaunayConformingQuad</text>
<text text-anchor="start" x="2373" y="-200.22" font-family="Helvetica,sans-Serif" font-size="10.00">EdgeMeshFilter&lt; TInputMesh,</text>
<text text-anchor="middle" x="2447" y="-189.22" font-family="Helvetica,sans-Serif" font-size="10.00"> TOutputMesh &gt;</text>
</a>
</g>
</g>
<!-- Node2 -->
<g id="node2" class="node">
<title>Node2</title>
<g id="a_node2"><a xlink:href="classitk_1_1QuadEdgeMeshToQuadEdgeMeshFilter.html" target="_top" xlink:title=" ">
<polygon fill="white" stroke="black" points="2016,-203.22 2016,-244.22 2187,-244.22 2187,-203.22 2016,-203.22"/>
<text text-anchor="start" x="2024" y="-232.22" font-family="Helvetica,sans-Serif" font-size="10.00">itk::QuadEdgeMeshToQuadEdge</text>
<text text-anchor="start" x="2024" y="-221.22" font-family="Helvetica,sans-Serif" font-size="10.00">MeshFilter&lt; TInputMesh,</text>
<text text-anchor="middle" x="2101.5" y="-210.22" font-family="Helvetica,sans-Serif" font-size="10.00"> TInputMesh &gt;</text>
</a>
</g>
</g>
<!-- Node2&#45;&gt;Node1 -->
<g id="edge1" class="edge">
<title>Node2&#45;&gt;Node1</title>
<path fill="none" stroke="midnightblue" d="M2197.41,-217.92C2249.94,-214.71 2314.54,-210.76 2364.73,-207.69"/>
<polygon fill="midnightblue" stroke="midnightblue" points="2197.18,-214.43 2187.41,-218.53 2197.61,-221.41 2197.18,-214.43"/>
</g>
<!-- Node3 -->
<g id="node3" class="node">
<title>Node3</title>
<g id="a_node3"><a xlink:href="classitk_1_1MeshToMeshFilter.html" target="_top" xlink:title=" ">
<polygon fill="white" stroke="black" points="1741.5,-208.72 1741.5,-238.72 1900.5,-238.72 1900.5,-208.72 1741.5,-208.72"/>
<text text-anchor="start" x="1749.5" y="-226.72" font-family="Helvetica,sans-Serif" font-size="10.00">itk::MeshToMeshFilter</text>
<text text-anchor="middle" x="1821" y="-215.72" font-family="Helvetica,sans-Serif" font-size="10.00">&lt; TInputMesh, TInputMesh &gt;</text>
</a>
</g>
</g>
<!-- Node3&#45;&gt;Node2 -->
<g id="edge2" class="edge">
<title>Node3&#45;&gt;Node2</title>
<path fill="none" stroke="midnightblue" d="M1910.94,-223.72C1944.48,-223.72 1982.52,-223.72 2015.67,-223.72"/>
<polygon fill="midnightblue" stroke="midnightblue" points="1910.69,-220.22 1900.69,-223.72 1910.69,-227.22 1910.69,-220.22"/>
</g>
<!-- Node4 -->
<g id="node4" class="node">
<title>Node4</title>
<g id="a_node4"><a xlink:href="classitk_1_1MeshSource.html" target="_top" xlink:title=" ">
<polygon fill="white" stroke="black" points="1507,-214.22 1507,-233.22 1681,-233.22 1681,-214.22 1507,-214.22"/>
<text text-anchor="middle" x="1594" y="-221.22" font-family="Helvetica,sans-Serif" font-size="10.00">itk::MeshSource&lt; TInputMesh &gt;</text>
</a>
</g>
</g>
<!-- Node4&#45;&gt;Node3 -->
<g id="edge3" class="edge">
<title>Node4&#45;&gt;Node3</title>
<path fill="none" stroke="midnightblue" d="M1691.35,-223.72C1708.06,-223.72 1725.24,-223.72 1741.4,-223.72"/>
<polygon fill="midnightblue" stroke="midnightblue" points="1691.03,-220.22 1681.03,-223.72 1691.03,-227.22 1691.03,-220.22"/>
</g>
<!-- Node5 -->
<g id="node5" class="node">
<title>Node5</title>
<g id="a_node5"><a xlink:href="classitk_1_1ProcessObject.html" target="_top" xlink:title="The base class for all process objects (source, filters, mappers) in the Insight data processing pipe...">
<polygon fill="white" stroke="black" points="1321,-214.22 1321,-233.22 1425,-233.22 1425,-214.22 1321,-214.22"/>
<text text-anchor="middle" x="1373" y="-221.22" font-family="Helvetica,sans-Serif" font-size="10.00">itk::ProcessObject</text>
</a>
</g>
</g>
<!-- Node5&#45;&gt;Node4 -->
<g id="edge4" class="edge">
<title>Node5&#45;&gt;Node4</title>
<path fill="none" stroke="midnightblue" d="M1435.31,-223.72C1457.41,-223.72 1482.8,-223.72 1506.64,-223.72"/>
<polygon fill="midnightblue" stroke="midnightblue" points="1435.07,-220.22 1425.07,-223.72 1435.07,-227.22 1435.07,-220.22"/>
</g>
<!-- Node6 -->
<g id="node6" class="node">
<title>Node6</title>
<g id="a_node6"><a xlink:href="classitk_1_1Object.html" target="_top" xlink:title="Base class for most ITK classes.">
<polygon fill="white" stroke="black" points="980,-121.22 980,-140.22 1047,-140.22 1047,-121.22 980,-121.22"/>
<text text-anchor="middle" x="1013.5" y="-128.22" font-family="Helvetica,sans-Serif" font-size="10.00">itk::Object</text>
</a>
</g>
</g>
<!-- Node6&#45;&gt;Node5 -->
<g id="edge5" class="edge">
<title>Node6&#45;&gt;Node5</title>
<path fill="none" stroke="midnightblue" d="M1057.54,-127.89C1109.66,-126.64 1197.91,-131.75 1258,-173.72 1271.06,-182.85 1263.03,-195.46 1276,-204.72 1289,-214 1305.39,-219.03 1320.94,-221.68"/>
<polygon fill="midnightblue" stroke="midnightblue" points="1057.19,-124.4 1047.31,-128.23 1057.42,-131.39 1057.19,-124.4"/>
</g>
<!-- Node7 -->
<g id="node7" class="node">
<title>Node7</title>
<g id="a_node7"><a xlink:href="classitk_1_1LightObject.html" target="_top" xlink:title="Light weight base class for most itk classes.">
<polygon fill="white" stroke="black" points="659,-112.22 659,-131.22 750,-131.22 750,-112.22 659,-112.22"/>
<text text-anchor="middle" x="704.5" y="-119.22" font-family="Helvetica,sans-Serif" font-size="10.00">itk::LightObject</text>
</a>
</g>
</g>
<!-- Node7&#45;&gt;Node6 -->
<g id="edge6" class="edge">
<title>Node7&#45;&gt;Node6</title>
<path fill="none" stroke="midnightblue" d="M760.4,-123.33C824.13,-125.2 927.17,-128.22 979.59,-129.76"/>
<polygon fill="midnightblue" stroke="midnightblue" points="760.24,-119.83 750.14,-123.03 760.03,-126.82 760.24,-119.83"/>
</g>
<!-- Node8 -->
<g id="node8" class="node">
<title>Node8</title>
<g id="a_node8"><a xlink:title=" ">
<polygon fill="white" stroke="#bfbfbf" points="372,-111.22 372,-130.22 479,-130.22 479,-111.22 372,-111.22"/>
<text text-anchor="middle" x="425.5" y="-118.22" font-family="Helvetica,sans-Serif" font-size="10.00">std::atomic&lt; int &gt;</text>
</a>
</g>
</g>
<!-- Node8&#45;&gt;Node7 -->
<g id="edge7" class="edge">
<title>Node8&#45;&gt;Node7</title>
<path fill="none" stroke="#9a32cd" stroke-dasharray="5,2" d="M489.29,-120.95C540.91,-121.14 612.77,-121.4 658.72,-121.56"/>
<polygon fill="#9a32cd" stroke="#9a32cd" points="489.27,-117.45 479.25,-120.91 489.24,-124.45 489.27,-117.45"/>
<text text-anchor="middle" x="566.5" y="-124.72" font-family="Helvetica,sans-Serif" font-size="10.00"> m_ReferenceCount</text>
</g>
<!-- Node9 -->
<g id="node9" class="node">
<title>Node9</title>
<g id="a_node9"><a xlink:title="STL class.">
<polygon fill="white" stroke="#bfbfbf" points="672,-233.22 672,-252.22 737,-252.22 737,-233.22 672,-233.22"/>
<text text-anchor="middle" x="704.5" y="-240.22" font-family="Helvetica,sans-Serif" font-size="10.00">std::string</text>
</a>
</g>
</g>
<!-- Node9&#45;&gt;Node6 -->
<g id="edge8" class="edge">
<title>Node9&#45;&gt;Node6</title>
<path fill="none" stroke="#9a32cd" stroke-dasharray="5,2" d="M726.84,-227.4C744.15,-215.67 769.6,-199.98 794,-190.72 843.55,-171.92 864.23,-192.65 911,-167.72 920.98,-162.4 919.1,-155.19 929,-149.72 944.49,-141.17 963.62,-136.46 979.66,-133.87"/>
<polygon fill="#9a32cd" stroke="#9a32cd" points="724.81,-224.54 718.58,-233.11 728.79,-230.3 724.81,-224.54"/>
<text text-anchor="middle" x="852.5" y="-193.72" font-family="Helvetica,sans-Serif" font-size="10.00"> m_ObjectName</text>
</g>
<!-- Node18 -->
<g id="node18" class="node">
<title>Node18</title>
<g id="a_node18"><a xlink:title=" ">
<polygon fill="white" stroke="#bfbfbf" points="932.5,-208.72 932.5,-238.72 1094.5,-238.72 1094.5,-208.72 932.5,-208.72"/>
<text text-anchor="start" x="940.5" y="-226.72" font-family="Helvetica,sans-Serif" font-size="10.00">std::set&lt; DataObjectIdentifier</text>
<text text-anchor="middle" x="1013.5" y="-215.72" font-family="Helvetica,sans-Serif" font-size="10.00">Type &gt;</text>
</a>
</g>
</g>
<!-- Node9&#45;&gt;Node18 -->
<g id="edge19" class="edge">
<title>Node9&#45;&gt;Node18</title>
<path fill="none" stroke="#9a32cd" stroke-dasharray="5,2" d="M747.27,-243.08C788.85,-243.12 854.43,-242.3 911,-237.72 917.91,-237.16 925.08,-236.45 932.25,-235.64"/>
<polygon fill="#9a32cd" stroke="#9a32cd" points="747.25,-239.58 737.24,-243.06 747.23,-246.58 747.25,-239.58"/>
<text text-anchor="middle" x="852.5" y="-245.72" font-family="Helvetica,sans-Serif" font-size="10.00"> keys</text>
</g>
<!-- Node19 -->
<g id="node19" class="node">
<title>Node19</title>
<g id="a_node19"><a xlink:title=" ">
<polygon fill="white" stroke="#bfbfbf" points="929,-159.72 929,-189.72 1098,-189.72 1098,-159.72 929,-159.72"/>
<text text-anchor="start" x="937" y="-177.72" font-family="Helvetica,sans-Serif" font-size="10.00">std::map&lt; DataObjectIdentifier</text>
<text text-anchor="middle" x="1013.5" y="-166.72" font-family="Helvetica,sans-Serif" font-size="10.00">Type, bool &gt;</text>
</a>
</g>
</g>
<!-- Node9&#45;&gt;Node19 -->
<g id="edge21" class="edge">
<title>Node9&#45;&gt;Node19</title>
<path fill="none" stroke="#9a32cd" stroke-dasharray="5,2" d="M746.91,-234.09C761.75,-231.06 778.61,-227.67 794,-224.72 845.89,-214.79 859.54,-215.66 911,-203.72 928.32,-199.71 947.08,-194.57 963.71,-189.74"/>
<polygon fill="#9a32cd" stroke="#9a32cd" points="746.09,-230.69 737,-236.13 747.5,-237.55 746.09,-230.69"/>
<text text-anchor="middle" x="852.5" y="-227.72" font-family="Helvetica,sans-Serif" font-size="10.00"> keys</text>
</g>
<!-- Node24 -->
<g id="node24" class="node">
<title>Node24</title>
<g id="a_node24"><a xlink:title=" ">
<polygon fill="white" stroke="#bfbfbf" points="929,-355.72 929,-385.72 1098,-385.72 1098,-355.72 929,-355.72"/>
<text text-anchor="start" x="937" y="-373.72" font-family="Helvetica,sans-Serif" font-size="10.00">std::map&lt; DataObjectIdentifier</text>
<text text-anchor="middle" x="1013.5" y="-362.72" font-family="Helvetica,sans-Serif" font-size="10.00">Type, DataObjectPointer &gt;</text>
</a>
</g>
</g>
<!-- Node9&#45;&gt;Node24 -->
<g id="edge28" class="edge">
<title>Node9&#45;&gt;Node24</title>
<path fill="none" stroke="#9a32cd" stroke-dasharray="5,2" d="M747.38,-250.66C803.9,-261.72 898.95,-281.63 911,-292.72 929.62,-309.85 910.74,-329.21 929,-346.72 932.59,-350.17 936.65,-353.12 940.98,-355.66"/>
<polygon fill="#9a32cd" stroke="#9a32cd" points="747.79,-247.18 737.3,-248.71 746.45,-254.05 747.79,-247.18"/>
<text text-anchor="middle" x="852.5" y="-295.72" font-family="Helvetica,sans-Serif" font-size="10.00"> keys</text>
</g>
<!-- Node10 -->
<g id="node10" class="node">
<title>Node10</title>
<g id="a_node10"><a xlink:title="STL class.">
<polygon fill="white" stroke="#bfbfbf" points="373.5,-227.72 373.5,-257.72 477.5,-257.72 477.5,-227.72 373.5,-227.72"/>
<text text-anchor="start" x="381.5" y="-245.72" font-family="Helvetica,sans-Serif" font-size="10.00">std::basic_string&lt;</text>
<text text-anchor="middle" x="425.5" y="-234.72" font-family="Helvetica,sans-Serif" font-size="10.00"> char &gt;</text>
</a>
</g>
</g>
<!-- Node10&#45;&gt;Node9 -->
<g id="edge9" class="edge">
<title>Node10&#45;&gt;Node9</title>
<path fill="none" stroke="midnightblue" d="M487.93,-242.72C544.75,-242.72 626.97,-242.72 671.66,-242.72"/>
<polygon fill="midnightblue" stroke="midnightblue" points="487.63,-239.22 477.63,-242.72 487.63,-246.22 487.63,-239.22"/>
</g>
<!-- Node11 -->
<g id="node11" class="node">
<title>Node11</title>
<g id="a_node11"><a xlink:href="classitk_1_1MetaDataDictionary.html" target="_top" xlink:title="Provides a mechanism for storing a collection of arbitrary data types.">
<polygon fill="white" stroke="black" points="637.5,-151.22 637.5,-170.22 771.5,-170.22 771.5,-151.22 637.5,-151.22"/>
<text text-anchor="middle" x="704.5" y="-158.22" font-family="Helvetica,sans-Serif" font-size="10.00">itk::MetaDataDictionary</text>
</a>
</g>
</g>
<!-- Node11&#45;&gt;Node6 -->
<g id="edge10" class="edge">
<title>Node11&#45;&gt;Node6</title>
<path fill="none" stroke="#9a32cd" stroke-dasharray="5,2" d="M781.74,-153.27C845.39,-147.05 933.03,-138.49 979.86,-133.91"/>
<polygon fill="#9a32cd" stroke="#9a32cd" points="781.35,-149.79 771.74,-154.25 782.03,-156.76 781.35,-149.79"/>
<text text-anchor="middle" x="852.5" y="-155.72" font-family="Helvetica,sans-Serif" font-size="10.00"> m_MetaDataDictionary</text>
</g>
<!-- Node12 -->
<g id="node12" class="node">
<title>Node12</title>
<g id="a_node12"><a xlink:title=" ">
<polygon fill="white" stroke="#bfbfbf" points="351,-149.72 351,-179.72 500,-179.72 500,-149.72 351,-149.72"/>
<text text-anchor="start" x="359" y="-167.72" font-family="Helvetica,sans-Serif" font-size="10.00">std::shared_ptr&lt; MetaData</text>
<text text-anchor="middle" x="425.5" y="-156.72" font-family="Helvetica,sans-Serif" font-size="10.00">DictionaryMapType &gt;</text>
</a>
</g>
</g>
<!-- Node12&#45;&gt;Node11 -->
<g id="edge11" class="edge">
<title>Node12&#45;&gt;Node11</title>
<path fill="none" stroke="#9a32cd" stroke-dasharray="5,2" d="M510.18,-163.51C550.89,-162.93 599.13,-162.23 637.24,-161.68"/>
<polygon fill="#9a32cd" stroke="#9a32cd" points="509.95,-160.02 500,-163.66 510.05,-167.02 509.95,-160.02"/>
<text text-anchor="middle" x="566.5" y="-166.72" font-family="Helvetica,sans-Serif" font-size="10.00"> m_Dictionary</text>
</g>
<!-- Node13 -->
<g id="node13" class="node">
<title>Node13</title>
<g id="a_node13"><a xlink:title="STL class.">
<polygon fill="white" stroke="#bfbfbf" points="114,-154.22 114,-173.22 215,-173.22 215,-154.22 114,-154.22"/>
<text text-anchor="middle" x="164.5" y="-161.22" font-family="Helvetica,sans-Serif" font-size="10.00">std::map&lt; K, T &gt;</text>
</a>
</g>
</g>
<!-- Node13&#45;&gt;Node12 -->
<g id="edge12" class="edge">
<title>Node13&#45;&gt;Node12</title>
<path fill="none" stroke="#9a32cd" stroke-dasharray="5,2" d="M225.34,-163.95C262.61,-164.1 310.86,-164.28 350.52,-164.44"/>
<polygon fill="#9a32cd" stroke="#9a32cd" points="225.14,-160.45 215.13,-163.91 225.12,-167.45 225.14,-160.45"/>
<text text-anchor="middle" x="283" y="-167.72" font-family="Helvetica,sans-Serif" font-size="10.00"> ptr</text>
</g>
<!-- Node14 -->
<g id="node14" class="node">
<title>Node14</title>
<g id="a_node14"><a xlink:title=" ">
<polygon fill="white" stroke="#bfbfbf" points="0,-154.22 0,-173.22 29,-173.22 29,-154.22 0,-154.22"/>
<text text-anchor="middle" x="14.5" y="-161.22" font-family="Helvetica,sans-Serif" font-size="10.00">K</text>
</a>
</g>
</g>
<!-- Node14&#45;&gt;Node13 -->
<g id="edge13" class="edge">
<title>Node14&#45;&gt;Node13</title>
<path fill="none" stroke="#9a32cd" stroke-dasharray="5,2" d="M39.24,-163.72C59.28,-163.72 88.63,-163.72 113.78,-163.72"/>
<polygon fill="#9a32cd" stroke="#9a32cd" points="39.16,-160.22 29.16,-163.72 39.16,-167.22 39.16,-160.22"/>
<text text-anchor="middle" x="71.5" y="-166.72" font-family="Helvetica,sans-Serif" font-size="10.00"> keys</text>
</g>
<!-- Node15 -->
<g id="node15" class="node">
<title>Node15</title>
<g id="a_node15"><a xlink:title=" ">
<polygon fill="white" stroke="#bfbfbf" points="0,-101.22 0,-120.22 29,-120.22 29,-101.22 0,-101.22"/>
<text text-anchor="middle" x="14.5" y="-108.22" font-family="Helvetica,sans-Serif" font-size="10.00">T</text>
</a>
</g>
</g>
<!-- Node15&#45;&gt;Node13 -->
<g id="edge14" class="edge">
<title>Node15&#45;&gt;Node13</title>
<path fill="none" stroke="#9a32cd" stroke-dasharray="5,2" d="M38.78,-119.06C65.36,-128.58 108.76,-144.12 136.72,-154.13"/>
<polygon fill="#9a32cd" stroke="#9a32cd" points="39.75,-115.69 29.16,-115.61 37.39,-122.28 39.75,-115.69"/>
<text text-anchor="middle" x="71.5" y="-142.72" font-family="Helvetica,sans-Serif" font-size="10.00"> elements</text>
</g>
<!-- Node17 -->
<g id="node17" class="node">
<title>Node17</title>
<g id="a_node17"><a xlink:title="STL class.">
<polygon fill="white" stroke="#bfbfbf" points="233,-79.22 233,-98.22 333,-98.22 333,-79.22 233,-79.22"/>
<text text-anchor="middle" x="283" y="-86.22" font-family="Helvetica,sans-Serif" font-size="10.00">std::atomic&lt; T &gt;</text>
</a>
</g>
</g>
<!-- Node15&#45;&gt;Node17 -->
<g id="edge17" class="edge">
<title>Node15&#45;&gt;Node17</title>
<path fill="none" stroke="#9a32cd" stroke-dasharray="5,2" d="M39.45,-108.41C42,-108.17 44.55,-107.94 47,-107.72 111.22,-102.07 185.37,-96.18 232.92,-92.49"/>
<polygon fill="#9a32cd" stroke="#9a32cd" points="38.92,-104.94 29.3,-109.37 39.58,-111.91 38.92,-104.94"/>
<text text-anchor="middle" x="71.5" y="-110.72" font-family="Helvetica,sans-Serif" font-size="10.00"> ptr</text>
</g>
<!-- Node16 -->
<g id="node16" class="node">
<title>Node16</title>
<g id="a_node16"><a xlink:href="classitk_1_1TimeStamp.html" target="_top" xlink:title="Generate a unique, increasing time value.">
<polygon fill="white" stroke="black" points="658.5,-72.22 658.5,-91.22 750.5,-91.22 750.5,-72.22 658.5,-72.22"/>
<text text-anchor="middle" x="704.5" y="-79.22" font-family="Helvetica,sans-Serif" font-size="10.00">itk::TimeStamp</text>
</a>
</g>
</g>
<!-- Node16&#45;&gt;Node5 -->
<g id="edge30" class="edge">
<title>Node16&#45;&gt;Node5</title>
<path fill="none" stroke="#9a32cd" stroke-dasharray="5,2" d="M760.96,-83.16C802.33,-84.34 860.22,-86.23 911,-88.72 1065.96,-96.33 1144.75,-20.68 1258,-126.72 1283.97,-151.04 1250.45,-179.96 1276,-204.72 1287.83,-216.19 1304.48,-221.7 1320.6,-224.11"/>
<polygon fill="#9a32cd" stroke="#9a32cd" points="760.91,-79.66 750.82,-82.88 760.72,-86.66 760.91,-79.66"/>
<text text-anchor="middle" x="1013.5" y="-92.72" font-family="Helvetica,sans-Serif" font-size="10.00"> m_OutputInformationMTime</text>
</g>
<!-- Node16&#45;&gt;Node6 -->
<g id="edge15" class="edge">
<title>Node16&#45;&gt;Node6</title>
<path fill="none" stroke="#9a32cd" stroke-dasharray="5,2" d="M760.7,-88.2C802.16,-93.32 860.29,-101.03 911,-109.72 934.06,-113.67 959.87,-119.03 979.7,-123.34"/>
<polygon fill="#9a32cd" stroke="#9a32cd" points="760.89,-84.7 750.53,-86.96 760.04,-91.65 760.89,-84.7"/>
<text text-anchor="middle" x="852.5" y="-112.72" font-family="Helvetica,sans-Serif" font-size="10.00"> m_MTime</text>
</g>
<!-- Node17&#45;&gt;Node16 -->
<g id="edge16" class="edge">
<title>Node17&#45;&gt;Node16</title>
<path fill="none" stroke="#9a32cd" stroke-dasharray="5,2" d="M343.61,-87.73C428.52,-86.31 582.42,-83.74 658.48,-82.47"/>
<polygon fill="#9a32cd" stroke="#9a32cd" points="343.3,-84.23 333.36,-87.9 343.41,-91.23 343.3,-84.23"/>
<text text-anchor="middle" x="425.5" y="-90.72" font-family="Helvetica,sans-Serif" font-size="10.00"> m_GlobalTimeStamp</text>
</g>
<!-- Node18&#45;&gt;Node5 -->
<g id="edge18" class="edge">
<title>Node18&#45;&gt;Node5</title>
<path fill="none" stroke="#9a32cd" stroke-dasharray="5,2" d="M1105.06,-223.72C1173.36,-223.72 1264.58,-223.72 1320.76,-223.72"/>
<polygon fill="#9a32cd" stroke="#9a32cd" points="1104.73,-220.22 1094.73,-223.72 1104.73,-227.22 1104.73,-220.22"/>
<text text-anchor="middle" x="1187" y="-226.72" font-family="Helvetica,sans-Serif" font-size="10.00"> m_RequiredInputNames</text>
</g>
<!-- Node19&#45;&gt;Node5 -->
<g id="edge20" class="edge">
<title>Node19&#45;&gt;Node5</title>
<path fill="none" stroke="#9a32cd" stroke-dasharray="5,2" d="M1108.44,-177.53C1154.07,-180.43 1209.41,-186.21 1258,-197.72 1266.35,-199.7 1267.76,-202.32 1276,-204.72 1290.36,-208.9 1306.19,-212.45 1320.78,-215.31"/>
<polygon fill="#9a32cd" stroke="#9a32cd" points="1108.45,-174.03 1098.26,-176.92 1108.04,-181.01 1108.45,-174.03"/>
<text text-anchor="start" x="1116" y="-211.72" font-family="Helvetica,sans-Serif" font-size="10.00"> m_CachedInputReleaseData</text>
<text text-anchor="middle" x="1187" y="-200.72" font-family="Helvetica,sans-Serif" font-size="10.00">Flags</text>
</g>
<!-- Node20 -->
<g id="node20" class="node">
<title>Node20</title>
<g id="a_node20"><a xlink:title=" ">
<polygon fill="white" stroke="#bfbfbf" points="946.5,-10.22 946.5,-29.22 1080.5,-29.22 1080.5,-10.22 946.5,-10.22"/>
<text text-anchor="middle" x="1013.5" y="-17.22" font-family="Helvetica,sans-Serif" font-size="10.00">std::atomic&lt; uint32_t &gt;</text>
</a>
</g>
</g>
<!-- Node20&#45;&gt;Node5 -->
<g id="edge22" class="edge">
<title>Node20&#45;&gt;Node5</title>
<path fill="none" stroke="#9a32cd" stroke-dasharray="5,2" d="M1061.08,-8.16C1116.04,2.41 1206.43,9.66 1258,-40.72 1310.45,-91.97 1226.43,-150.69 1276,-204.72 1287.37,-217.12 1304.3,-222.77 1320.8,-225.03"/>
<polygon fill="#9a32cd" stroke="#9a32cd" points="1060.35,-4.74 1051.25,-10.16 1061.75,-11.6 1060.35,-4.74"/>
<text text-anchor="middle" x="1187" y="-43.72" font-family="Helvetica,sans-Serif" font-size="10.00"> m_Progress</text>
</g>
<!-- Node21 -->
<g id="node21" class="node">
<title>Node21</title>
<g id="a_node21"><a xlink:title=" ">
<polygon fill="white" stroke="#bfbfbf" points="676.5,-10.22 676.5,-29.22 732.5,-29.22 732.5,-10.22 676.5,-10.22"/>
<text text-anchor="middle" x="704.5" y="-17.22" font-family="Helvetica,sans-Serif" font-size="10.00">uint32_t</text>
</a>
</g>
</g>
<!-- Node21&#45;&gt;Node20 -->
<g id="edge23" class="edge">
<title>Node21&#45;&gt;Node20</title>
<path fill="none" stroke="#9a32cd" stroke-dasharray="5,2" d="M742.88,-19.72C793.35,-19.72 884.11,-19.72 946.28,-19.72"/>
<polygon fill="#9a32cd" stroke="#9a32cd" points="742.74,-16.22 732.74,-19.72 742.74,-23.22 742.74,-16.22"/>
<text text-anchor="middle" x="852.5" y="-22.72" font-family="Helvetica,sans-Serif" font-size="10.00"> ptr</text>
</g>
<!-- Node22 -->
<g id="node22" class="node">
<title>Node22</title>
<g id="a_node22"><a xlink:title=" ">
<polygon fill="white" stroke="#bfbfbf" points="929,-257.72 929,-287.72 1098,-287.72 1098,-257.72 929,-257.72"/>
<text text-anchor="start" x="937" y="-275.72" font-family="Helvetica,sans-Serif" font-size="10.00">std::vector&lt; DataObjectPointer</text>
<text text-anchor="middle" x="1013.5" y="-264.72" font-family="Helvetica,sans-Serif" font-size="10.00">Map::iterator &gt;</text>
</a>
</g>
</g>
<!-- Node22&#45;&gt;Node5 -->
<g id="edge24" class="edge">
<title>Node22&#45;&gt;Node5</title>
<path fill="none" stroke="#9a32cd" stroke-dasharray="5,2" d="M1108.6,-259.83C1176.48,-250.52 1265.55,-238.31 1320.76,-230.75"/>
<polygon fill="#9a32cd" stroke="#9a32cd" points="1107.75,-256.41 1098.32,-261.23 1108.7,-263.34 1107.75,-256.41"/>
<text text-anchor="middle" x="1187" y="-271.72" font-family="Helvetica,sans-Serif" font-size="10.00"> m_IndexedOutputs</text>
<text text-anchor="middle" x="1187" y="-260.72" font-family="Helvetica,sans-Serif" font-size="10.00">m_IndexedInputs</text>
</g>
<!-- Node23 -->
<g id="node23" class="node">
<title>Node23</title>
<g id="a_node23"><a xlink:title="STL iterator class.">
<polygon fill="white" stroke="#bfbfbf" points="633,-318.22 633,-337.22 776,-337.22 776,-318.22 633,-318.22"/>
<text text-anchor="middle" x="704.5" y="-325.22" font-family="Helvetica,sans-Serif" font-size="10.00">std::map&lt; K, T &gt;::iterator</text>
</a>
</g>
</g>
<!-- Node23&#45;&gt;Node22 -->
<g id="edge25" class="edge">
<title>Node23&#45;&gt;Node22</title>
<path fill="none" stroke="#9a32cd" stroke-dasharray="5,2" d="M786.47,-324.88C824.74,-322.06 870.76,-316.53 911,-305.72 919.45,-303.45 920.79,-300.76 929,-297.72 938.51,-294.2 948.76,-290.81 958.71,-287.73"/>
<polygon fill="#9a32cd" stroke="#9a32cd" points="786.14,-321.39 776.4,-325.57 786.62,-328.38 786.14,-321.39"/>
<text text-anchor="middle" x="852.5" y="-326.72" font-family="Helvetica,sans-Serif" font-size="10.00"> elements</text>
</g>
<!-- Node24&#45;&gt;Node5 -->
<g id="edge26" class="edge">
<title>Node24&#45;&gt;Node5</title>
<path fill="none" stroke="#9a32cd" stroke-dasharray="5,2" d="M1108.3,-366.49C1155.21,-361.36 1211.71,-350.5 1258,-327.72 1305.84,-304.19 1348.19,-254.4 1364.68,-233.39"/>
<polygon fill="#9a32cd" stroke="#9a32cd" points="1107.73,-363.03 1098.14,-367.52 1108.44,-369.99 1107.73,-363.03"/>
<text text-anchor="middle" x="1187" y="-378.72" font-family="Helvetica,sans-Serif" font-size="10.00"> m_Outputs</text>
<text text-anchor="middle" x="1187" y="-367.72" font-family="Helvetica,sans-Serif" font-size="10.00">m_Inputs</text>
</g>
<!-- Node25 -->
<g id="node25" class="node">
<title>Node25</title>
<g id="a_node25"><a xlink:href="classitk_1_1SmartPointer.html" target="_top" xlink:title=" ">
<polygon fill="white" stroke="black" points="651,-369.72 651,-399.72 758,-399.72 758,-369.72 651,-369.72"/>
<text text-anchor="start" x="659" y="-387.72" font-family="Helvetica,sans-Serif" font-size="10.00">itk::SmartPointer&lt;</text>
<text text-anchor="middle" x="704.5" y="-376.72" font-family="Helvetica,sans-Serif" font-size="10.00"> Self &gt;</text>
</a>
</g>
</g>
<!-- Node25&#45;&gt;Node1 -->
<g id="edge35" class="edge">
<title>Node25&#45;&gt;Node1</title>
<path fill="none" stroke="#9a32cd" stroke-dasharray="5,2" d="M768.04,-394.44C829.96,-403.2 927.53,-414.72 1012.5,-414.72 1012.5,-414.72 1012.5,-414.72 2102.5,-414.72 2247.21,-414.72 2381.97,-276.78 2428.67,-223.44"/>
<polygon fill="#9a32cd" stroke="#9a32cd" points="768.44,-390.96 758.04,-393 767.44,-397.89 768.44,-390.96"/>
<text text-anchor="middle" x="1594" y="-428.72" font-family="Helvetica,sans-Serif" font-size="10.00"> m_PriorityQueue</text>
<text text-anchor="middle" x="1594" y="-417.72" font-family="Helvetica,sans-Serif" font-size="10.00">m_FlipEdge</text>
</g>
<!-- Node25&#45;&gt;Node24 -->
<g id="edge27" class="edge">
<title>Node25&#45;&gt;Node24</title>
<path fill="none" stroke="#9a32cd" stroke-dasharray="5,2" d="M768.49,-381.85C814.84,-379.74 878.33,-376.84 928.92,-374.53"/>
<polygon fill="#9a32cd" stroke="#9a32cd" points="768.11,-378.36 758.28,-382.32 768.42,-385.36 768.11,-378.36"/>
<text text-anchor="middle" x="852.5" y="-382.72" font-family="Helvetica,sans-Serif" font-size="10.00"> elements</text>
</g>
<!-- Node26 -->
<g id="node26" class="node">
<title>Node26</title>
<g id="a_node26"><a xlink:href="classitk_1_1SmartPointer.html" target="_top" xlink:title=" ">
<polygon fill="white" stroke="black" points="942.5,-306.72 942.5,-336.72 1084.5,-336.72 1084.5,-306.72 942.5,-306.72"/>
<text text-anchor="start" x="950.5" y="-324.72" font-family="Helvetica,sans-Serif" font-size="10.00">itk::SmartPointer&lt;</text>
<text text-anchor="middle" x="1013.5" y="-313.72" font-family="Helvetica,sans-Serif" font-size="10.00"> itk::MultiThreaderBase &gt;</text>
</a>
</g>
</g>
<!-- Node26&#45;&gt;Node5 -->
<g id="edge29" class="edge">
<title>Node26&#45;&gt;Node5</title>
<path fill="none" stroke="#9a32cd" stroke-dasharray="5,2" d="M1094.76,-315.9C1143,-310.76 1205.1,-301.23 1258,-283.72 1296.01,-271.14 1336.6,-246.82 1357.58,-233.33"/>
<polygon fill="#9a32cd" stroke="#9a32cd" points="1094.27,-312.43 1084.68,-316.93 1094.99,-319.39 1094.27,-312.43"/>
<text text-anchor="middle" x="1187" y="-315.72" font-family="Helvetica,sans-Serif" font-size="10.00"> m_MultiThreader</text>
</g>
<!-- Node27 -->
<g id="node27" class="node">
<title>Node27</title>
<g id="a_node27"><a xlink:title=" ">
<polygon fill="white" stroke="#bfbfbf" points="2009,-153.72 2009,-183.72 2194,-183.72 2194,-153.72 2009,-153.72"/>
<text text-anchor="start" x="2017" y="-171.72" font-family="Helvetica,sans-Serif" font-size="10.00">std::map&lt; OutputEdgeCell</text>
<text text-anchor="middle" x="2101.5" y="-160.72" font-family="Helvetica,sans-Serif" font-size="10.00">Type *, PriorityQueueItemType * &gt;</text>
</a>
</g>
</g>
<!-- Node27&#45;&gt;Node1 -->
<g id="edge31" class="edge">
<title>Node27&#45;&gt;Node1</title>
<path fill="none" stroke="#9a32cd" stroke-dasharray="5,2" d="M2204.22,-178.79C2255.5,-183.87 2316.84,-189.94 2364.9,-194.7"/>
<polygon fill="#9a32cd" stroke="#9a32cd" points="2204.4,-175.29 2194.1,-177.79 2203.71,-182.26 2204.4,-175.29"/>
<text text-anchor="middle" x="2279.5" y="-194.72" font-family="Helvetica,sans-Serif" font-size="10.00"> m_QueueMapper</text>
</g>
<!-- Node28 -->
<g id="node28" class="node">
<title>Node28</title>
<g id="a_node28"><a xlink:href="classitk_1_1MaxPriorityQueueElementWrapper.html" target="_top" xlink:title=" ">
<polygon fill="white" stroke="black" points="1718,-148.22 1718,-189.22 1924,-189.22 1924,-148.22 1718,-148.22"/>
<text text-anchor="start" x="1726" y="-177.22" font-family="Helvetica,sans-Serif" font-size="10.00">itk::MaxPriorityQueueElement</text>
<text text-anchor="start" x="1726" y="-166.22" font-family="Helvetica,sans-Serif" font-size="10.00">Wrapper&lt; TElement, TElementPriority,</text>
<text text-anchor="middle" x="1821" y="-155.22" font-family="Helvetica,sans-Serif" font-size="10.00"> TElementIdentifier &gt;</text>
</a>
</g>
</g>
<!-- Node28&#45;&gt;Node27 -->
<g id="edge32" class="edge">
<title>Node28&#45;&gt;Node27</title>
<path fill="none" stroke="#9a32cd" stroke-dasharray="5,2" d="M1934.3,-168.72C1959.11,-168.72 1985.12,-168.72 2008.99,-168.72"/>
<polygon fill="#9a32cd" stroke="#9a32cd" points="1934.12,-165.22 1924.12,-168.72 1934.12,-172.22 1934.12,-165.22"/>
<text text-anchor="middle" x="1966.5" y="-171.72" font-family="Helvetica,sans-Serif" font-size="10.00"> elements</text>
</g>
<!-- Node29 -->
<g id="node29" class="node">
<title>Node29</title>
<g id="a_node29"><a xlink:href="classitk_1_1MinPriorityQueueElementWrapper.html" target="_top" xlink:title=" ">
<polygon fill="white" stroke="black" points="1513.5,-148.22 1513.5,-189.22 1674.5,-189.22 1674.5,-148.22 1513.5,-148.22"/>
<text text-anchor="start" x="1521.5" y="-177.22" font-family="Helvetica,sans-Serif" font-size="10.00">itk::MinPriorityQueueElement</text>
<text text-anchor="start" x="1521.5" y="-166.22" font-family="Helvetica,sans-Serif" font-size="10.00">Wrapper&lt; TElement, double,</text>
<text text-anchor="middle" x="1594" y="-155.22" font-family="Helvetica,sans-Serif" font-size="10.00"> IdentifierType &gt;</text>
</a>
</g>
</g>
<!-- Node29&#45;&gt;Node28 -->
<g id="edge33" class="edge">
<title>Node29&#45;&gt;Node28</title>
<path fill="none" stroke="midnightblue" d="M1684.96,-168.72C1695.82,-168.72 1706.98,-168.72 1718,-168.72"/>
<polygon fill="midnightblue" stroke="midnightblue" points="1684.64,-165.22 1674.64,-168.72 1684.64,-172.22 1684.64,-165.22"/>
</g>
<!-- Node30 -->
<g id="node30" class="node">
<title>Node30</title>
<g id="a_node30"><a xlink:href="classitk_1_1ElementWrapperInterface.html" target="_top" xlink:title=" ">
<polygon fill="white" stroke="black" points="1276,-142.72 1276,-194.72 1470,-194.72 1470,-142.72 1276,-142.72"/>
<text text-anchor="start" x="1284" y="-182.72" font-family="Helvetica,sans-Serif" font-size="10.00">itk::ElementWrapperInterface</text>
<text text-anchor="start" x="1284" y="-171.72" font-family="Helvetica,sans-Serif" font-size="10.00">&lt; MinPriorityQueueElementWrapper</text>
<text text-anchor="start" x="1284" y="-160.72" font-family="Helvetica,sans-Serif" font-size="10.00">&lt; TElement, double, IdentifierType</text>
<text text-anchor="middle" x="1373" y="-149.72" font-family="Helvetica,sans-Serif" font-size="10.00"> &gt;, IdentifierType &gt;</text>
</a>
</g>
</g>
<!-- Node30&#45;&gt;Node29 -->
<g id="edge34" class="edge">
<title>Node30&#45;&gt;Node29</title>
<path fill="none" stroke="midnightblue" d="M1480.28,-168.72C1491.44,-168.72 1502.64,-168.72 1513.42,-168.72"/>
<polygon fill="midnightblue" stroke="midnightblue" points="1480.06,-165.22 1470.06,-168.72 1480.06,-172.22 1480.06,-165.22"/>
</g>
<!-- Node31 -->
<g id="node31" class="node">
<title>Node31</title>
<g id="a_node31"><a xlink:title=" ">
<polygon fill="white" stroke="#bfbfbf" points="2031.5,-104.72 2031.5,-134.72 2171.5,-134.72 2171.5,-104.72 2031.5,-104.72"/>
<text text-anchor="start" x="2039.5" y="-122.72" font-family="Helvetica,sans-Serif" font-size="10.00">std::list&lt; OutputEdgeCell</text>
<text text-anchor="middle" x="2101.5" y="-111.72" font-family="Helvetica,sans-Serif" font-size="10.00">Type * &gt;</text>
</a>
</g>
</g>
<!-- Node31&#45;&gt;Node1 -->
<g id="edge36" class="edge">
<title>Node31&#45;&gt;Node1</title>
<path fill="none" stroke="#9a32cd" stroke-dasharray="5,2" d="M2181.65,-129.92C2229.96,-137.14 2292.67,-148.3 2347,-163.72 2364.42,-168.67 2383,-175.54 2399.32,-182.14"/>
<polygon fill="#9a32cd" stroke="#9a32cd" points="2181.97,-126.43 2171.57,-128.44 2180.95,-133.36 2181.97,-126.43"/>
<text text-anchor="middle" x="2279.5" y="-166.72" font-family="Helvetica,sans-Serif" font-size="10.00"> m_ListOfConstrainedEdges</text>
</g>
</g>
</svg>
