<?xml version="1.0" encoding="UTF-8" standalone="no"?>
<!DOCTYPE svg PUBLIC "-//W3C//DTD SVG 1.1//EN"
 "http://www.w3.org/Graphics/SVG/1.1/DTD/svg11.dtd">
<!-- Generated by graphviz version 2.43.0 (0)
 -->
<!-- Title: itk::BSplineTransform&lt; TParametersValueType, VDimension, VSplineOrder &gt; Pages: 1 -->
<svg width="168pt" height="363pt"
 viewBox="0.00 0.00 168.00 363.00" xmlns="http://www.w3.org/2000/svg" xmlns:xlink="http://www.w3.org/1999/xlink">
<g id="graph0" class="graph" transform="scale(1 1) rotate(0) translate(4 359)">
<title>itk::BSplineTransform&lt; TParametersValueType, VDimension, VSplineOrder &gt;</title>
<polygon fill="white" stroke="transparent" points="-4,4 -4,-359 164,-359 164,4 -4,4"/>
<!-- Node1 -->
<g id="node1" class="node">
<title>Node1</title>
<g id="a_node1"><a xlink:title="Deformable transform using a BSpline representation.">
<polygon fill="#bfbfbf" stroke="black" points="0,-0.5 0,-41.5 160,-41.5 160,-0.5 0,-0.5"/>
<text text-anchor="start" x="8" y="-29.5" font-family="Helvetica,sans-Serif" font-size="10.00">itk::BSplineTransform</text>
<text text-anchor="start" x="8" y="-18.5" font-family="Helvetica,sans-Serif" font-size="10.00">&lt; TParametersValueType,</text>
<text text-anchor="middle" x="80" y="-7.5" font-family="Helvetica,sans-Serif" font-size="10.00"> VDimension, VSplineOrder &gt;</text>
</a>
</g>
</g>
<!-- Node2 -->
<g id="node2" class="node">
<title>Node2</title>
<g id="a_node2"><a xlink:href="classitk_1_1BSplineBaseTransform.html" target="_top" xlink:title=" ">
<polygon fill="white" stroke="black" points="7.5,-78.5 7.5,-108.5 152.5,-108.5 152.5,-78.5 7.5,-78.5"/>
<text text-anchor="start" x="15.5" y="-96.5" font-family="Helvetica,sans-Serif" font-size="10.00">itk::BSplineBaseTransform</text>
<text text-anchor="middle" x="80" y="-85.5" font-family="Helvetica,sans-Serif" font-size="10.00">&lt; double, 3, 3 &gt;</text>
</a>
</g>
</g>
<!-- Node2&#45;&gt;Node1 -->
<g id="edge1" class="edge">
<title>Node2&#45;&gt;Node1</title>
<path fill="none" stroke="midnightblue" d="M80,-67.98C80,-59.35 80,-49.76 80,-41.59"/>
<polygon fill="midnightblue" stroke="midnightblue" points="76.5,-68.23 80,-78.23 83.5,-68.23 76.5,-68.23"/>
</g>
<!-- Node3 -->
<g id="node3" class="node">
<title>Node3</title>
<g id="a_node3"><a xlink:href="classitk_1_1Transform.html" target="_top" xlink:title=" ">
<polygon fill="white" stroke="black" points="2.5,-145.5 2.5,-175.5 157.5,-175.5 157.5,-145.5 2.5,-145.5"/>
<text text-anchor="start" x="10.5" y="-163.5" font-family="Helvetica,sans-Serif" font-size="10.00">itk::Transform&lt; double,</text>
<text text-anchor="middle" x="80" y="-152.5" font-family="Helvetica,sans-Serif" font-size="10.00"> VDimension, VDimension &gt;</text>
</a>
</g>
</g>
<!-- Node3&#45;&gt;Node2 -->
<g id="edge2" class="edge">
<title>Node3&#45;&gt;Node2</title>
<path fill="none" stroke="midnightblue" d="M80,-135.11C80,-126.15 80,-116.32 80,-108.58"/>
<polygon fill="midnightblue" stroke="midnightblue" points="76.5,-135.4 80,-145.4 83.5,-135.4 76.5,-135.4"/>
</g>
<!-- Node4 -->
<g id="node4" class="node">
<title>Node4</title>
<g id="a_node4"><a xlink:href="classitk_1_1TransformBaseTemplate.html" target="_top" xlink:title=" ">
<polygon fill="white" stroke="black" points="3.5,-212.5 3.5,-242.5 156.5,-242.5 156.5,-212.5 3.5,-212.5"/>
<text text-anchor="start" x="11.5" y="-230.5" font-family="Helvetica,sans-Serif" font-size="10.00">itk::TransformBaseTemplate</text>
<text text-anchor="middle" x="80" y="-219.5" font-family="Helvetica,sans-Serif" font-size="10.00">&lt; double &gt;</text>
</a>
</g>
</g>
<!-- Node4&#45;&gt;Node3 -->
<g id="edge3" class="edge">
<title>Node4&#45;&gt;Node3</title>
<path fill="none" stroke="midnightblue" d="M80,-202.11C80,-193.15 80,-183.32 80,-175.58"/>
<polygon fill="midnightblue" stroke="midnightblue" points="76.5,-202.4 80,-212.4 83.5,-202.4 76.5,-202.4"/>
</g>
<!-- Node5 -->
<g id="node5" class="node">
<title>Node5</title>
<g id="a_node5"><a xlink:href="classitk_1_1Object.html" target="_top" xlink:title="Base class for most ITK classes.">
<polygon fill="white" stroke="black" points="46.5,-279.5 46.5,-298.5 113.5,-298.5 113.5,-279.5 46.5,-279.5"/>
<text text-anchor="middle" x="80" y="-286.5" font-family="Helvetica,sans-Serif" font-size="10.00">itk::Object</text>
</a>
</g>
</g>
<!-- Node5&#45;&gt;Node4 -->
<g id="edge4" class="edge">
<title>Node5&#45;&gt;Node4</title>
<path fill="none" stroke="midnightblue" d="M80,-269.23C80,-260.59 80,-250.5 80,-242.52"/>
<polygon fill="midnightblue" stroke="midnightblue" points="76.5,-269.48 80,-279.48 83.5,-269.48 76.5,-269.48"/>
</g>
<!-- Node6 -->
<g id="node6" class="node">
<title>Node6</title>
<g id="a_node6"><a xlink:href="classitk_1_1LightObject.html" target="_top" xlink:title="Light weight base class for most itk classes.">
<polygon fill="white" stroke="black" points="34.5,-335.5 34.5,-354.5 125.5,-354.5 125.5,-335.5 34.5,-335.5"/>
<text text-anchor="middle" x="80" y="-342.5" font-family="Helvetica,sans-Serif" font-size="10.00">itk::LightObject</text>
</a>
</g>
</g>
<!-- Node6&#45;&gt;Node5 -->
<g id="edge5" class="edge">
<title>Node6&#45;&gt;Node5</title>
<path fill="none" stroke="midnightblue" d="M80,-324.8C80,-315.91 80,-305.78 80,-298.75"/>
<polygon fill="midnightblue" stroke="midnightblue" points="76.5,-325.08 80,-335.08 83.5,-325.08 76.5,-325.08"/>
</g>
</g>
</svg>
