<?xml version="1.0" encoding="UTF-8" standalone="no"?>
<!DOCTYPE svg PUBLIC "-//W3C//DTD SVG 1.1//EN"
 "http://www.w3.org/Graphics/SVG/1.1/DTD/svg11.dtd">
<!-- Generated by graphviz version 2.43.0 (0)
 -->
<!-- Title: itk::GaussianSmoothingOnUpdateTimeVaryingVelocityFieldTransform&lt; TParametersValueType, VDimension &gt; Pages: 1 -->
<svg width="223pt" height="530pt"
 viewBox="0.00 0.00 223.00 530.00" xmlns="http://www.w3.org/2000/svg" xmlns:xlink="http://www.w3.org/1999/xlink">
<g id="graph0" class="graph" transform="scale(1 1) rotate(0) translate(4 526)">
<title>itk::GaussianSmoothingOnUpdateTimeVaryingVelocityFieldTransform&lt; TParametersValueType, VDimension &gt;</title>
<polygon fill="white" stroke="transparent" points="-4,4 -4,-526 219,-526 219,4 -4,4"/>
<!-- Node1 -->
<g id="node1" class="node">
<title>Node1</title>
<g id="a_node1"><a xlink:title="Modifies the UpdateTransformParameters method to peform a Gaussian smoothing of the velocity field af...">
<polygon fill="#bfbfbf" stroke="black" points="12,-0.5 12,-52.5 203,-52.5 203,-0.5 12,-0.5"/>
<text text-anchor="start" x="20" y="-40.5" font-family="Helvetica,sans-Serif" font-size="10.00">itk::GaussianSmoothingOn</text>
<text text-anchor="start" x="20" y="-29.5" font-family="Helvetica,sans-Serif" font-size="10.00">UpdateTimeVaryingVelocityField</text>
<text text-anchor="start" x="20" y="-18.5" font-family="Helvetica,sans-Serif" font-size="10.00">Transform&lt; TParametersValueType,</text>
<text text-anchor="middle" x="107.5" y="-7.5" font-family="Helvetica,sans-Serif" font-size="10.00"> VDimension &gt;</text>
</a>
</g>
</g>
<!-- Node2 -->
<g id="node2" class="node">
<title>Node2</title>
<g id="a_node2"><a xlink:href="classitk_1_1TimeVaryingVelocityFieldTransform.html" target="_top" xlink:title="Transform objects based on integration of a time&#45;varying velocity field.">
<polygon fill="white" stroke="black" points="13.5,-89.5 13.5,-130.5 201.5,-130.5 201.5,-89.5 13.5,-89.5"/>
<text text-anchor="start" x="21.5" y="-118.5" font-family="Helvetica,sans-Serif" font-size="10.00">itk::TimeVaryingVelocity</text>
<text text-anchor="start" x="21.5" y="-107.5" font-family="Helvetica,sans-Serif" font-size="10.00">FieldTransform&lt; TParametersValue</text>
<text text-anchor="middle" x="107.5" y="-96.5" font-family="Helvetica,sans-Serif" font-size="10.00">Type, VDimension &gt;</text>
</a>
</g>
</g>
<!-- Node2&#45;&gt;Node1 -->
<g id="edge1" class="edge">
<title>Node2&#45;&gt;Node1</title>
<path fill="none" stroke="midnightblue" d="M107.5,-79.12C107.5,-70.41 107.5,-60.99 107.5,-52.61"/>
<polygon fill="midnightblue" stroke="midnightblue" points="104,-79.27 107.5,-89.27 111,-79.27 104,-79.27"/>
</g>
<!-- Node3 -->
<g id="node3" class="node">
<title>Node3</title>
<g id="a_node3"><a xlink:href="classitk_1_1VelocityFieldTransform.html" target="_top" xlink:title="Provides local/dense/high&#45;dimensionality transformation via a a velocity field.">
<polygon fill="white" stroke="black" points="34.5,-167.5 34.5,-208.5 180.5,-208.5 180.5,-167.5 34.5,-167.5"/>
<text text-anchor="start" x="42.5" y="-196.5" font-family="Helvetica,sans-Serif" font-size="10.00">itk::VelocityFieldTransform</text>
<text text-anchor="start" x="42.5" y="-185.5" font-family="Helvetica,sans-Serif" font-size="10.00">&lt; TParametersValueType,</text>
<text text-anchor="middle" x="107.5" y="-174.5" font-family="Helvetica,sans-Serif" font-size="10.00"> VDimension &gt;</text>
</a>
</g>
</g>
<!-- Node3&#45;&gt;Node2 -->
<g id="edge2" class="edge">
<title>Node3&#45;&gt;Node2</title>
<path fill="none" stroke="midnightblue" d="M107.5,-157.3C107.5,-148.3 107.5,-138.65 107.5,-130.51"/>
<polygon fill="midnightblue" stroke="midnightblue" points="104,-157.43 107.5,-167.43 111,-157.43 104,-157.43"/>
</g>
<!-- Node4 -->
<g id="node4" class="node">
<title>Node4</title>
<g id="a_node4"><a xlink:href="classitk_1_1DisplacementFieldTransform.html" target="_top" xlink:title="Provides local/dense/high&#45;dimensionality transformation via a a displacement field.">
<polygon fill="white" stroke="black" points="0,-245.5 0,-275.5 215,-275.5 215,-245.5 0,-245.5"/>
<text text-anchor="start" x="8" y="-263.5" font-family="Helvetica,sans-Serif" font-size="10.00">itk::DisplacementFieldTransform</text>
<text text-anchor="middle" x="107.5" y="-252.5" font-family="Helvetica,sans-Serif" font-size="10.00">&lt; TParametersValueType, VDimension &gt;</text>
</a>
</g>
</g>
<!-- Node4&#45;&gt;Node3 -->
<g id="edge3" class="edge">
<title>Node4&#45;&gt;Node3</title>
<path fill="none" stroke="midnightblue" d="M107.5,-234.98C107.5,-226.35 107.5,-216.76 107.5,-208.59"/>
<polygon fill="midnightblue" stroke="midnightblue" points="104,-235.23 107.5,-245.23 111,-235.23 104,-235.23"/>
</g>
<!-- Node5 -->
<g id="node5" class="node">
<title>Node5</title>
<g id="a_node5"><a xlink:href="classitk_1_1Transform.html" target="_top" xlink:title=" ">
<polygon fill="white" stroke="black" points="3.5,-312.5 3.5,-342.5 211.5,-342.5 211.5,-312.5 3.5,-312.5"/>
<text text-anchor="start" x="11.5" y="-330.5" font-family="Helvetica,sans-Serif" font-size="10.00">itk::Transform&lt; TParameters</text>
<text text-anchor="middle" x="107.5" y="-319.5" font-family="Helvetica,sans-Serif" font-size="10.00">ValueType, VDimension, VDimension &gt;</text>
</a>
</g>
</g>
<!-- Node5&#45;&gt;Node4 -->
<g id="edge4" class="edge">
<title>Node5&#45;&gt;Node4</title>
<path fill="none" stroke="midnightblue" d="M107.5,-302.11C107.5,-293.15 107.5,-283.32 107.5,-275.58"/>
<polygon fill="midnightblue" stroke="midnightblue" points="104,-302.4 107.5,-312.4 111,-302.4 104,-302.4"/>
</g>
<!-- Node6 -->
<g id="node6" class="node">
<title>Node6</title>
<g id="a_node6"><a xlink:href="classitk_1_1TransformBaseTemplate.html" target="_top" xlink:title=" ">
<polygon fill="white" stroke="black" points="31,-379.5 31,-409.5 184,-409.5 184,-379.5 31,-379.5"/>
<text text-anchor="start" x="39" y="-397.5" font-family="Helvetica,sans-Serif" font-size="10.00">itk::TransformBaseTemplate</text>
<text text-anchor="middle" x="107.5" y="-386.5" font-family="Helvetica,sans-Serif" font-size="10.00">&lt; TParametersValueType &gt;</text>
</a>
</g>
</g>
<!-- Node6&#45;&gt;Node5 -->
<g id="edge5" class="edge">
<title>Node6&#45;&gt;Node5</title>
<path fill="none" stroke="midnightblue" d="M107.5,-369.11C107.5,-360.15 107.5,-350.32 107.5,-342.58"/>
<polygon fill="midnightblue" stroke="midnightblue" points="104,-369.4 107.5,-379.4 111,-369.4 104,-369.4"/>
</g>
<!-- Node7 -->
<g id="node7" class="node">
<title>Node7</title>
<g id="a_node7"><a xlink:href="classitk_1_1Object.html" target="_top" xlink:title="Base class for most ITK classes.">
<polygon fill="white" stroke="black" points="74,-446.5 74,-465.5 141,-465.5 141,-446.5 74,-446.5"/>
<text text-anchor="middle" x="107.5" y="-453.5" font-family="Helvetica,sans-Serif" font-size="10.00">itk::Object</text>
</a>
</g>
</g>
<!-- Node7&#45;&gt;Node6 -->
<g id="edge6" class="edge">
<title>Node7&#45;&gt;Node6</title>
<path fill="none" stroke="midnightblue" d="M107.5,-436.23C107.5,-427.59 107.5,-417.5 107.5,-409.52"/>
<polygon fill="midnightblue" stroke="midnightblue" points="104,-436.48 107.5,-446.48 111,-436.48 104,-436.48"/>
</g>
<!-- Node8 -->
<g id="node8" class="node">
<title>Node8</title>
<g id="a_node8"><a xlink:href="classitk_1_1LightObject.html" target="_top" xlink:title="Light weight base class for most itk classes.">
<polygon fill="white" stroke="black" points="62,-502.5 62,-521.5 153,-521.5 153,-502.5 62,-502.5"/>
<text text-anchor="middle" x="107.5" y="-509.5" font-family="Helvetica,sans-Serif" font-size="10.00">itk::LightObject</text>
</a>
</g>
</g>
<!-- Node8&#45;&gt;Node7 -->
<g id="edge7" class="edge">
<title>Node8&#45;&gt;Node7</title>
<path fill="none" stroke="midnightblue" d="M107.5,-491.8C107.5,-482.91 107.5,-472.78 107.5,-465.75"/>
<polygon fill="midnightblue" stroke="midnightblue" points="104,-492.08 107.5,-502.08 111,-492.08 104,-492.08"/>
</g>
</g>
</svg>
