<?xml version="1.0" encoding="UTF-8" standalone="no"?>
<!DOCTYPE svg PUBLIC "-//W3C//DTD SVG 1.1//EN"
 "http://www.w3.org/Graphics/SVG/1.1/DTD/svg11.dtd">
<!-- Generated by graphviz version 2.43.0 (0)
 -->
<!-- Title: itk::LevelSetEquationTermContainer&lt; TInputImage, TLevelSetContainer &gt; Pages: 1 -->
<svg width="1402pt" height="252pt"
 viewBox="0.00 0.00 1402.00 252.00" xmlns="http://www.w3.org/2000/svg" xmlns:xlink="http://www.w3.org/1999/xlink">
<g id="graph0" class="graph" transform="scale(1 1) rotate(0) translate(4 248)">
<title>itk::LevelSetEquationTermContainer&lt; TInputImage, TLevelSetContainer &gt;</title>
<polygon fill="white" stroke="transparent" points="-4,4 -4,-248 1398,-248 1398,4 -4,4"/>
<!-- Node1 -->
<g id="node1" class="node">
<title>Node1</title>
<g id="a_node1"><a xlink:title="Class for container holding the terms of a given level set update equation.">
<polygon fill="#bfbfbf" stroke="black" points="1250,-109 1250,-150 1394,-150 1394,-109 1250,-109"/>
<text text-anchor="start" x="1258" y="-138" font-family="Helvetica,sans-Serif" font-size="10.00">itk::LevelSetEquationTerm</text>
<text text-anchor="start" x="1258" y="-127" font-family="Helvetica,sans-Serif" font-size="10.00">Container&lt; TInputImage,</text>
<text text-anchor="middle" x="1322" y="-116" font-family="Helvetica,sans-Serif" font-size="10.00"> TLevelSetContainer &gt;</text>
</a>
</g>
</g>
<!-- Node2 -->
<g id="node2" class="node">
<title>Node2</title>
<g id="a_node2"><a xlink:href="classitk_1_1Object.html" target="_top" xlink:title="Base class for most ITK classes.">
<polygon fill="white" stroke="black" points="997,-120 997,-139 1064,-139 1064,-120 997,-120"/>
<text text-anchor="middle" x="1030.5" y="-127" font-family="Helvetica,sans-Serif" font-size="10.00">itk::Object</text>
</a>
</g>
</g>
<!-- Node2&#45;&gt;Node1 -->
<g id="edge1" class="edge">
<title>Node2&#45;&gt;Node1</title>
<path fill="none" stroke="midnightblue" d="M1074.42,-129.5C1120.65,-129.5 1194.96,-129.5 1249.94,-129.5"/>
<polygon fill="midnightblue" stroke="midnightblue" points="1074.15,-126 1064.15,-129.5 1074.15,-133 1074.15,-126"/>
</g>
<!-- Node3 -->
<g id="node3" class="node">
<title>Node3</title>
<g id="a_node3"><a xlink:href="classitk_1_1LightObject.html" target="_top" xlink:title="Light weight base class for most itk classes.">
<polygon fill="white" stroke="black" points="672.5,-138 672.5,-157 763.5,-157 763.5,-138 672.5,-138"/>
<text text-anchor="middle" x="718" y="-145" font-family="Helvetica,sans-Serif" font-size="10.00">itk::LightObject</text>
</a>
</g>
</g>
<!-- Node3&#45;&gt;Node2 -->
<g id="edge2" class="edge">
<title>Node3&#45;&gt;Node2</title>
<path fill="none" stroke="midnightblue" d="M773.81,-144.32C838.36,-140.58 943.49,-134.49 996.59,-131.41"/>
<polygon fill="midnightblue" stroke="midnightblue" points="773.6,-140.83 763.82,-144.9 774,-147.82 773.6,-140.83"/>
</g>
<!-- Node4 -->
<g id="node4" class="node">
<title>Node4</title>
<g id="a_node4"><a xlink:title=" ">
<polygon fill="white" stroke="#bfbfbf" points="378,-141 378,-160 485,-160 485,-141 378,-141"/>
<text text-anchor="middle" x="431.5" y="-148" font-family="Helvetica,sans-Serif" font-size="10.00">std::atomic&lt; int &gt;</text>
</a>
</g>
</g>
<!-- Node4&#45;&gt;Node3 -->
<g id="edge3" class="edge">
<title>Node4&#45;&gt;Node3</title>
<path fill="none" stroke="#9a32cd" stroke-dasharray="5,2" d="M495.09,-149.84C548.7,-149.27 624.59,-148.47 672.28,-147.97"/>
<polygon fill="#9a32cd" stroke="#9a32cd" points="494.98,-146.34 485.01,-149.95 495.05,-153.34 494.98,-146.34"/>
<text text-anchor="middle" x="572.5" y="-152.5" font-family="Helvetica,sans-Serif" font-size="10.00"> m_ReferenceCount</text>
</g>
<!-- Node5 -->
<g id="node5" class="node">
<title>Node5</title>
<g id="a_node5"><a xlink:title="STL class.">
<polygon fill="white" stroke="#bfbfbf" points="685.5,-187 685.5,-206 750.5,-206 750.5,-187 685.5,-187"/>
<text text-anchor="middle" x="718" y="-194" font-family="Helvetica,sans-Serif" font-size="10.00">std::string</text>
</a>
</g>
</g>
<!-- Node5&#45;&gt;Node2 -->
<g id="edge4" class="edge">
<title>Node5&#45;&gt;Node2</title>
<path fill="none" stroke="#9a32cd" stroke-dasharray="5,2" d="M755.97,-183.69C773.68,-177.88 795.28,-171.26 815,-166.5 878.73,-151.12 954.6,-139.59 996.88,-133.76"/>
<polygon fill="#9a32cd" stroke="#9a32cd" points="754.43,-180.52 746.04,-187 756.64,-187.16 754.43,-180.52"/>
<text text-anchor="middle" x="873.5" y="-169.5" font-family="Helvetica,sans-Serif" font-size="10.00"> m_ObjectName</text>
</g>
<!-- Node16 -->
<g id="node16" class="node">
<title>Node16</title>
<g id="a_node16"><a xlink:title=" ">
<polygon fill="white" stroke="#bfbfbf" points="954.5,-160.5 954.5,-190.5 1106.5,-190.5 1106.5,-160.5 954.5,-160.5"/>
<text text-anchor="start" x="962.5" y="-178.5" font-family="Helvetica,sans-Serif" font-size="10.00">std::unordered_map</text>
<text text-anchor="middle" x="1030.5" y="-167.5" font-family="Helvetica,sans-Serif" font-size="10.00">&lt; std::string, TermPointer &gt;</text>
</a>
</g>
</g>
<!-- Node5&#45;&gt;Node16 -->
<g id="edge17" class="edge">
<title>Node5&#45;&gt;Node16</title>
<path fill="none" stroke="#9a32cd" stroke-dasharray="5,2" d="M760.79,-193.67C810.27,-190.33 893.6,-184.69 954.37,-180.58"/>
<polygon fill="#9a32cd" stroke="#9a32cd" points="760.51,-190.18 750.77,-194.35 760.98,-197.17 760.51,-190.18"/>
<text text-anchor="middle" x="873.5" y="-192.5" font-family="Helvetica,sans-Serif" font-size="10.00"> keys</text>
</g>
<!-- Node17 -->
<g id="node17" class="node">
<title>Node17</title>
<g id="a_node17"><a xlink:title=" ">
<polygon fill="white" stroke="#bfbfbf" points="977,-213.5 977,-243.5 1084,-243.5 1084,-213.5 977,-213.5"/>
<text text-anchor="start" x="985" y="-231.5" font-family="Helvetica,sans-Serif" font-size="10.00">std::unordered_set</text>
<text text-anchor="middle" x="1030.5" y="-220.5" font-family="Helvetica,sans-Serif" font-size="10.00">&lt; std::string &gt;</text>
</a>
</g>
</g>
<!-- Node5&#45;&gt;Node17 -->
<g id="edge19" class="edge">
<title>Node5&#45;&gt;Node17</title>
<path fill="none" stroke="#9a32cd" stroke-dasharray="5,2" d="M761.04,-200.83C817.02,-206.6 916.03,-216.81 976.9,-223.08"/>
<polygon fill="#9a32cd" stroke="#9a32cd" points="761.08,-197.32 750.77,-199.77 760.36,-204.28 761.08,-197.32"/>
<text text-anchor="middle" x="873.5" y="-220.5" font-family="Helvetica,sans-Serif" font-size="10.00"> keys</text>
</g>
<!-- Node6 -->
<g id="node6" class="node">
<title>Node6</title>
<g id="a_node6"><a xlink:title="STL class.">
<polygon fill="white" stroke="#bfbfbf" points="379.5,-181.5 379.5,-211.5 483.5,-211.5 483.5,-181.5 379.5,-181.5"/>
<text text-anchor="start" x="387.5" y="-199.5" font-family="Helvetica,sans-Serif" font-size="10.00">std::basic_string&lt;</text>
<text text-anchor="middle" x="431.5" y="-188.5" font-family="Helvetica,sans-Serif" font-size="10.00"> char &gt;</text>
</a>
</g>
</g>
<!-- Node6&#45;&gt;Node5 -->
<g id="edge5" class="edge">
<title>Node6&#45;&gt;Node5</title>
<path fill="none" stroke="midnightblue" d="M493.97,-196.5C552.75,-196.5 639.07,-196.5 685.19,-196.5"/>
<polygon fill="midnightblue" stroke="midnightblue" points="493.69,-193 483.69,-196.5 493.69,-200 493.69,-193"/>
</g>
<!-- Node7 -->
<g id="node7" class="node">
<title>Node7</title>
<g id="a_node7"><a xlink:href="classitk_1_1MetaDataDictionary.html" target="_top" xlink:title="Provides a mechanism for storing a collection of arbitrary data types.">
<polygon fill="white" stroke="black" points="651,-97 651,-116 785,-116 785,-97 651,-97"/>
<text text-anchor="middle" x="718" y="-104" font-family="Helvetica,sans-Serif" font-size="10.00">itk::MetaDataDictionary</text>
</a>
</g>
</g>
<!-- Node7&#45;&gt;Node2 -->
<g id="edge6" class="edge">
<title>Node7&#45;&gt;Node2</title>
<path fill="none" stroke="#9a32cd" stroke-dasharray="5,2" d="M795.35,-110.4C835.96,-112.66 886.73,-115.8 932,-119.5 953.54,-121.26 977.7,-123.74 996.59,-125.78"/>
<polygon fill="#9a32cd" stroke="#9a32cd" points="795.43,-106.89 785.25,-109.84 795.04,-113.88 795.43,-106.89"/>
<text text-anchor="middle" x="873.5" y="-122.5" font-family="Helvetica,sans-Serif" font-size="10.00"> m_MetaDataDictionary</text>
</g>
<!-- Node8 -->
<g id="node8" class="node">
<title>Node8</title>
<g id="a_node8"><a xlink:title=" ">
<polygon fill="white" stroke="#bfbfbf" points="357,-91.5 357,-121.5 506,-121.5 506,-91.5 357,-91.5"/>
<text text-anchor="start" x="365" y="-109.5" font-family="Helvetica,sans-Serif" font-size="10.00">std::shared_ptr&lt; MetaData</text>
<text text-anchor="middle" x="431.5" y="-98.5" font-family="Helvetica,sans-Serif" font-size="10.00">DictionaryMapType &gt;</text>
</a>
</g>
</g>
<!-- Node8&#45;&gt;Node7 -->
<g id="edge7" class="edge">
<title>Node8&#45;&gt;Node7</title>
<path fill="none" stroke="#9a32cd" stroke-dasharray="5,2" d="M516.29,-106.5C559.26,-106.5 610.85,-106.5 650.96,-106.5"/>
<polygon fill="#9a32cd" stroke="#9a32cd" points="516.14,-103 506.14,-106.5 516.14,-110 516.14,-103"/>
<text text-anchor="middle" x="572.5" y="-109.5" font-family="Helvetica,sans-Serif" font-size="10.00"> m_Dictionary</text>
</g>
<!-- Node9 -->
<g id="node9" class="node">
<title>Node9</title>
<g id="a_node9"><a xlink:title="STL class.">
<polygon fill="white" stroke="#bfbfbf" points="114,-97 114,-116 215,-116 215,-97 114,-97"/>
<text text-anchor="middle" x="164.5" y="-104" font-family="Helvetica,sans-Serif" font-size="10.00">std::map&lt; K, T &gt;</text>
</a>
</g>
</g>
<!-- Node9&#45;&gt;Node8 -->
<g id="edge8" class="edge">
<title>Node9&#45;&gt;Node8</title>
<path fill="none" stroke="#9a32cd" stroke-dasharray="5,2" d="M225.18,-106.5C264.19,-106.5 315.41,-106.5 356.93,-106.5"/>
<polygon fill="#9a32cd" stroke="#9a32cd" points="225.03,-103 215.03,-106.5 225.03,-110 225.03,-103"/>
<text text-anchor="middle" x="286" y="-109.5" font-family="Helvetica,sans-Serif" font-size="10.00"> ptr</text>
</g>
<!-- Node10 -->
<g id="node10" class="node">
<title>Node10</title>
<g id="a_node10"><a xlink:title=" ">
<polygon fill="white" stroke="#bfbfbf" points="0,-121 0,-140 29,-140 29,-121 0,-121"/>
<text text-anchor="middle" x="14.5" y="-128" font-family="Helvetica,sans-Serif" font-size="10.00">K</text>
</a>
</g>
</g>
<!-- Node10&#45;&gt;Node9 -->
<g id="edge9" class="edge">
<title>Node10&#45;&gt;Node9</title>
<path fill="none" stroke="#9a32cd" stroke-dasharray="5,2" d="M39.24,-126.65C59.28,-123.4 88.63,-118.64 113.78,-114.56"/>
<polygon fill="#9a32cd" stroke="#9a32cd" points="38.47,-123.23 29.16,-128.29 39.59,-130.14 38.47,-123.23"/>
<text text-anchor="middle" x="71.5" y="-127.5" font-family="Helvetica,sans-Serif" font-size="10.00"> keys</text>
</g>
<!-- Node11 -->
<g id="node11" class="node">
<title>Node11</title>
<g id="a_node11"><a xlink:title=" ">
<polygon fill="white" stroke="#bfbfbf" points="0,-68 0,-87 29,-87 29,-68 0,-68"/>
<text text-anchor="middle" x="14.5" y="-75" font-family="Helvetica,sans-Serif" font-size="10.00">T</text>
</a>
</g>
</g>
<!-- Node11&#45;&gt;Node9 -->
<g id="edge10" class="edge">
<title>Node11&#45;&gt;Node9</title>
<path fill="none" stroke="#9a32cd" stroke-dasharray="5,2" d="M39.09,-82.12C59.39,-86.1 89.35,-91.97 114.78,-96.95"/>
<polygon fill="#9a32cd" stroke="#9a32cd" points="39.64,-78.66 29.16,-80.18 38.3,-85.53 39.64,-78.66"/>
<text text-anchor="middle" x="71.5" y="-95.5" font-family="Helvetica,sans-Serif" font-size="10.00"> elements</text>
</g>
<!-- Node13 -->
<g id="node13" class="node">
<title>Node13</title>
<g id="a_node13"><a xlink:title="STL class.">
<polygon fill="white" stroke="#bfbfbf" points="114.5,-53 114.5,-72 214.5,-72 214.5,-53 114.5,-53"/>
<text text-anchor="middle" x="164.5" y="-60" font-family="Helvetica,sans-Serif" font-size="10.00">std::atomic&lt; T &gt;</text>
</a>
</g>
</g>
<!-- Node11&#45;&gt;Node13 -->
<g id="edge13" class="edge">
<title>Node11&#45;&gt;Node13</title>
<path fill="none" stroke="#9a32cd" stroke-dasharray="5,2" d="M38.4,-66.04C41.24,-65.01 44.15,-64.12 47,-63.5 68.74,-58.79 93.31,-57.94 114.26,-58.51"/>
<polygon fill="#9a32cd" stroke="#9a32cd" points="37.03,-62.82 29.19,-69.95 39.77,-69.27 37.03,-62.82"/>
<text text-anchor="middle" x="71.5" y="-66.5" font-family="Helvetica,sans-Serif" font-size="10.00"> ptr</text>
</g>
<!-- Node12 -->
<g id="node12" class="node">
<title>Node12</title>
<g id="a_node12"><a xlink:href="classitk_1_1TimeStamp.html" target="_top" xlink:title="Generate a unique, increasing time value.">
<polygon fill="white" stroke="black" points="526.5,-56 526.5,-75 618.5,-75 618.5,-56 526.5,-56"/>
<text text-anchor="middle" x="572.5" y="-63" font-family="Helvetica,sans-Serif" font-size="10.00">itk::TimeStamp</text>
</a>
</g>
</g>
<!-- Node12&#45;&gt;Node2 -->
<g id="edge11" class="edge">
<title>Node12&#45;&gt;Node2</title>
<path fill="none" stroke="#9a32cd" stroke-dasharray="5,2" d="M628.88,-65.54C674.26,-66.22 740.05,-68.67 797,-76.5 816.69,-79.21 937.62,-107.67 996.86,-121.73"/>
<polygon fill="#9a32cd" stroke="#9a32cd" points="628.71,-62.04 618.66,-65.41 628.62,-69.04 628.71,-62.04"/>
<text text-anchor="middle" x="718" y="-79.5" font-family="Helvetica,sans-Serif" font-size="10.00"> m_MTime</text>
</g>
<!-- Node13&#45;&gt;Node12 -->
<g id="edge12" class="edge">
<title>Node13&#45;&gt;Node12</title>
<path fill="none" stroke="#9a32cd" stroke-dasharray="5,2" d="M225.03,-62.94C306.93,-63.55 452.57,-64.62 526.2,-65.17"/>
<polygon fill="#9a32cd" stroke="#9a32cd" points="224.9,-59.44 214.88,-62.86 224.85,-66.44 224.9,-59.44"/>
<text text-anchor="middle" x="286" y="-66.5" font-family="Helvetica,sans-Serif" font-size="10.00"> m_GlobalTimeStamp</text>
</g>
<!-- Node14 -->
<g id="node14" class="node">
<title>Node14</title>
<g id="a_node14"><a xlink:title=" ">
<polygon fill="white" stroke="#bfbfbf" points="950,-60 950,-101 1111,-101 1111,-60 950,-60"/>
<text text-anchor="start" x="958" y="-89" font-family="Helvetica,sans-Serif" font-size="10.00">std::map&lt; TermIdType,</text>
<text text-anchor="start" x="958" y="-78" font-family="Helvetica,sans-Serif" font-size="10.00"> std::atomic&lt; LevelSetOutput</text>
<text text-anchor="middle" x="1030.5" y="-67" font-family="Helvetica,sans-Serif" font-size="10.00">RealType &gt; &gt;</text>
</a>
</g>
</g>
<!-- Node14&#45;&gt;Node1 -->
<g id="edge14" class="edge">
<title>Node14&#45;&gt;Node1</title>
<path fill="none" stroke="#9a32cd" stroke-dasharray="5,2" d="M1121.44,-95.72C1162.75,-102.72 1211.05,-110.89 1249.78,-117.45"/>
<polygon fill="#9a32cd" stroke="#9a32cd" points="1121.82,-92.24 1111.37,-94.02 1120.65,-99.14 1121.82,-92.24"/>
<text text-anchor="middle" x="1180.5" y="-116.5" font-family="Helvetica,sans-Serif" font-size="10.00"> m_TermContribution</text>
</g>
<!-- Node15 -->
<g id="node15" class="node">
<title>Node15</title>
<g id="a_node15"><a xlink:title=" ">
<polygon fill="white" stroke="#bfbfbf" points="639,-0.5 639,-30.5 797,-30.5 797,-0.5 639,-0.5"/>
<text text-anchor="start" x="647" y="-18.5" font-family="Helvetica,sans-Serif" font-size="10.00">std::atomic&lt; LevelSetOutput</text>
<text text-anchor="middle" x="718" y="-7.5" font-family="Helvetica,sans-Serif" font-size="10.00">RealType &gt;</text>
</a>
</g>
</g>
<!-- Node15&#45;&gt;Node14 -->
<g id="edge15" class="edge">
<title>Node15&#45;&gt;Node14</title>
<path fill="none" stroke="#9a32cd" stroke-dasharray="5,2" d="M807.44,-20.89C846.19,-24.73 891.87,-31.3 932,-42.5 940.43,-44.85 941.9,-47.18 950,-50.5 957.64,-53.64 965.75,-56.84 973.74,-59.92"/>
<polygon fill="#9a32cd" stroke="#9a32cd" points="807.52,-17.38 797.23,-19.92 806.86,-24.35 807.52,-17.38"/>
<text text-anchor="middle" x="873.5" y="-45.5" font-family="Helvetica,sans-Serif" font-size="10.00"> elements</text>
</g>
<!-- Node16&#45;&gt;Node1 -->
<g id="edge16" class="edge">
<title>Node16&#45;&gt;Node1</title>
<path fill="none" stroke="#9a32cd" stroke-dasharray="5,2" d="M1116.79,-161.95C1159.01,-155.24 1209.4,-147.23 1249.56,-140.85"/>
<polygon fill="#9a32cd" stroke="#9a32cd" points="1116.13,-158.51 1106.81,-163.53 1117.23,-165.42 1116.13,-158.51"/>
<text text-anchor="middle" x="1180.5" y="-161.5" font-family="Helvetica,sans-Serif" font-size="10.00"> m_NameContainer</text>
</g>
<!-- Node17&#45;&gt;Node1 -->
<g id="edge18" class="edge">
<title>Node17&#45;&gt;Node1</title>
<path fill="none" stroke="#9a32cd" stroke-dasharray="5,2" d="M1094.2,-214.58C1134.24,-204.89 1186.9,-190.65 1232,-173.5 1249.24,-166.94 1267.61,-158.18 1283.17,-150.2"/>
<polygon fill="#9a32cd" stroke="#9a32cd" points="1093.22,-211.21 1084.3,-216.94 1094.84,-218.02 1093.22,-211.21"/>
<text text-anchor="middle" x="1180.5" y="-208.5" font-family="Helvetica,sans-Serif" font-size="10.00"> m_RequiredData</text>
</g>
<!-- Node18 -->
<g id="node18" class="node">
<title>Node18</title>
<g id="a_node18"><a xlink:title=" ">
<polygon fill="white" stroke="#bfbfbf" points="966,-10.5 966,-40.5 1095,-40.5 1095,-10.5 966,-10.5"/>
<text text-anchor="start" x="974" y="-28.5" font-family="Helvetica,sans-Serif" font-size="10.00">std::map&lt; TermIdType,</text>
<text text-anchor="middle" x="1030.5" y="-17.5" font-family="Helvetica,sans-Serif" font-size="10.00"> TermPointer &gt;</text>
</a>
</g>
</g>
<!-- Node18&#45;&gt;Node1 -->
<g id="edge20" class="edge">
<title>Node18&#45;&gt;Node1</title>
<path fill="none" stroke="#9a32cd" stroke-dasharray="5,2" d="M1105.46,-42.58C1143.85,-52.43 1191.15,-66.12 1232,-82.5 1250.33,-89.85 1269.81,-99.87 1285.87,-108.77"/>
<polygon fill="#9a32cd" stroke="#9a32cd" points="1105.95,-39.1 1095.39,-40.04 1104.23,-45.88 1105.95,-39.1"/>
<text text-anchor="middle" x="1180.5" y="-85.5" font-family="Helvetica,sans-Serif" font-size="10.00"> m_Container</text>
</g>
</g>
</svg>
