<?xml version="1.0" encoding="UTF-8" standalone="no"?>
<!DOCTYPE svg PUBLIC "-//W3C//DTD SVG 1.1//EN"
 "http://www.w3.org/Graphics/SVG/1.1/DTD/svg11.dtd">
<!-- Generated by graphviz version 2.43.0 (0)
 -->
<!-- Title: itk::CentralDifferenceImageFunction&lt; TInputImage, TCoordRep, TOutputType &gt; Pages: 1 -->
<svg width="2007pt" height="216pt"
 viewBox="0.00 0.00 2007.00 215.50" xmlns="http://www.w3.org/2000/svg" xmlns:xlink="http://www.w3.org/1999/xlink">
<g id="graph0" class="graph" transform="scale(1 1) rotate(0) translate(4 211.5)">
<title>itk::CentralDifferenceImageFunction&lt; TInputImage, TCoordRep, TOutputType &gt;</title>
<polygon fill="white" stroke="transparent" points="-4,4 -4,-211.5 2003,-211.5 2003,4 -4,4"/>
<!-- Node1 -->
<g id="node1" class="node">
<title>Node1</title>
<g id="a_node1"><a xlink:title="Calculate the derivative by central differencing.">
<polygon fill="#bfbfbf" stroke="black" points="1807,-8 1807,-49 1999,-49 1999,-8 1807,-8"/>
<text text-anchor="start" x="1815" y="-37" font-family="Helvetica,sans-Serif" font-size="10.00">itk::CentralDifferenceImage</text>
<text text-anchor="start" x="1815" y="-26" font-family="Helvetica,sans-Serif" font-size="10.00">Function&lt; TInputImage, TCoordRep,</text>
<text text-anchor="middle" x="1903" y="-15" font-family="Helvetica,sans-Serif" font-size="10.00"> TOutputType &gt;</text>
</a>
</g>
</g>
<!-- Node2 -->
<g id="node2" class="node">
<title>Node2</title>
<g id="a_node2"><a xlink:href="classitk_1_1ImageFunction.html" target="_top" xlink:title=" ">
<polygon fill="white" stroke="black" points="1477,-49.5 1477,-101.5 1695,-101.5 1695,-49.5 1477,-49.5"/>
<text text-anchor="start" x="1485" y="-89.5" font-family="Helvetica,sans-Serif" font-size="10.00">itk::ImageFunction</text>
<text text-anchor="start" x="1485" y="-78.5" font-family="Helvetica,sans-Serif" font-size="10.00">&lt; TInputImage, CovariantVector</text>
<text text-anchor="start" x="1485" y="-67.5" font-family="Helvetica,sans-Serif" font-size="10.00">&lt; double, TInputImage::ImageDimension</text>
<text text-anchor="middle" x="1586" y="-56.5" font-family="Helvetica,sans-Serif" font-size="10.00"> &gt;, float &gt;</text>
</a>
</g>
</g>
<!-- Node2&#45;&gt;Node1 -->
<g id="edge1" class="edge">
<title>Node2&#45;&gt;Node1</title>
<path fill="none" stroke="midnightblue" d="M1705.69,-57.79C1739.09,-52.81 1774.98,-47.45 1806.82,-42.7"/>
<polygon fill="midnightblue" stroke="midnightblue" points="1704.78,-54.39 1695.41,-59.33 1705.81,-61.31 1704.78,-54.39"/>
</g>
<!-- Node3 -->
<g id="node3" class="node">
<title>Node3</title>
<g id="a_node3"><a xlink:href="classitk_1_1FunctionBase.html" target="_top" xlink:title=" ">
<polygon fill="white" stroke="black" points="1080,-76.5 1080,-128.5 1320,-128.5 1320,-76.5 1080,-76.5"/>
<text text-anchor="start" x="1088" y="-116.5" font-family="Helvetica,sans-Serif" font-size="10.00">itk::FunctionBase&lt;</text>
<text text-anchor="start" x="1088" y="-105.5" font-family="Helvetica,sans-Serif" font-size="10.00"> Point&lt; float, TInputImage</text>
<text text-anchor="start" x="1088" y="-94.5" font-family="Helvetica,sans-Serif" font-size="10.00">::ImageDimension &gt;, CovariantVector</text>
<text text-anchor="middle" x="1200" y="-83.5" font-family="Helvetica,sans-Serif" font-size="10.00">&lt; double, TInputImage::ImageDimension &gt; &gt;</text>
</a>
</g>
</g>
<!-- Node3&#45;&gt;Node2 -->
<g id="edge2" class="edge">
<title>Node3&#45;&gt;Node2</title>
<path fill="none" stroke="midnightblue" d="M1330.21,-93.41C1377.88,-90.06 1431.35,-86.3 1476.95,-83.1"/>
<polygon fill="midnightblue" stroke="midnightblue" points="1329.86,-89.93 1320.13,-94.12 1330.35,-96.91 1329.86,-89.93"/>
</g>
<!-- Node4 -->
<g id="node4" class="node">
<title>Node4</title>
<g id="a_node4"><a xlink:href="classitk_1_1Object.html" target="_top" xlink:title="Base class for most ITK classes.">
<polygon fill="white" stroke="black" points="951,-100 951,-119 1018,-119 1018,-100 951,-100"/>
<text text-anchor="middle" x="984.5" y="-107" font-family="Helvetica,sans-Serif" font-size="10.00">itk::Object</text>
</a>
</g>
</g>
<!-- Node4&#45;&gt;Node3 -->
<g id="edge3" class="edge">
<title>Node4&#45;&gt;Node3</title>
<path fill="none" stroke="midnightblue" d="M1028.42,-108.09C1043.57,-107.6 1061.43,-107.01 1079.79,-106.41"/>
<polygon fill="midnightblue" stroke="midnightblue" points="1028.27,-104.6 1018.39,-108.42 1028.5,-111.59 1028.27,-104.6"/>
</g>
<!-- Node5 -->
<g id="node5" class="node">
<title>Node5</title>
<g id="a_node5"><a xlink:href="classitk_1_1LightObject.html" target="_top" xlink:title="Light weight base class for most itk classes.">
<polygon fill="white" stroke="black" points="660.5,-184 660.5,-203 751.5,-203 751.5,-184 660.5,-184"/>
<text text-anchor="middle" x="706" y="-191" font-family="Helvetica,sans-Serif" font-size="10.00">itk::LightObject</text>
</a>
</g>
</g>
<!-- Node5&#45;&gt;Node4 -->
<g id="edge4" class="edge">
<title>Node5&#45;&gt;Node4</title>
<path fill="none" stroke="midnightblue" d="M761.9,-188.51C803.15,-183.49 860.48,-173.77 908,-155.5 931.78,-146.36 956.47,-129.73 970.88,-119.17"/>
<polygon fill="midnightblue" stroke="midnightblue" points="761.31,-185.06 751.78,-189.69 762.12,-192.01 761.31,-185.06"/>
</g>
<!-- Node6 -->
<g id="node6" class="node">
<title>Node6</title>
<g id="a_node6"><a xlink:title=" ">
<polygon fill="white" stroke="#bfbfbf" points="378,-188 378,-207 485,-207 485,-188 378,-188"/>
<text text-anchor="middle" x="431.5" y="-195" font-family="Helvetica,sans-Serif" font-size="10.00">std::atomic&lt; int &gt;</text>
</a>
</g>
</g>
<!-- Node6&#45;&gt;Node5 -->
<g id="edge5" class="edge">
<title>Node6&#45;&gt;Node5</title>
<path fill="none" stroke="#9a32cd" stroke-dasharray="5,2" d="M495.18,-196.58C545.64,-195.84 615.33,-194.82 660.29,-194.16"/>
<polygon fill="#9a32cd" stroke="#9a32cd" points="494.99,-193.08 485.04,-196.73 495.09,-200.08 494.99,-193.08"/>
<text text-anchor="middle" x="572.5" y="-198.5" font-family="Helvetica,sans-Serif" font-size="10.00"> m_ReferenceCount</text>
</g>
<!-- Node7 -->
<g id="node7" class="node">
<title>Node7</title>
<g id="a_node7"><a xlink:title="STL class.">
<polygon fill="white" stroke="#bfbfbf" points="673.5,-142 673.5,-161 738.5,-161 738.5,-142 673.5,-142"/>
<text text-anchor="middle" x="706" y="-149" font-family="Helvetica,sans-Serif" font-size="10.00">std::string</text>
</a>
</g>
</g>
<!-- Node7&#45;&gt;Node4 -->
<g id="edge6" class="edge">
<title>Node7&#45;&gt;Node4</title>
<path fill="none" stroke="#9a32cd" stroke-dasharray="5,2" d="M748.87,-146.65C789.61,-141.75 853.2,-133.61 908,-124.5 922.11,-122.15 937.61,-119.15 950.88,-116.44"/>
<polygon fill="#9a32cd" stroke="#9a32cd" points="748.29,-143.2 738.77,-147.86 749.12,-150.15 748.29,-143.2"/>
<text text-anchor="middle" x="849.5" y="-143.5" font-family="Helvetica,sans-Serif" font-size="10.00"> m_ObjectName</text>
</g>
<!-- Node8 -->
<g id="node8" class="node">
<title>Node8</title>
<g id="a_node8"><a xlink:title="STL class.">
<polygon fill="white" stroke="#bfbfbf" points="379.5,-138.5 379.5,-168.5 483.5,-168.5 483.5,-138.5 379.5,-138.5"/>
<text text-anchor="start" x="387.5" y="-156.5" font-family="Helvetica,sans-Serif" font-size="10.00">std::basic_string&lt;</text>
<text text-anchor="middle" x="431.5" y="-145.5" font-family="Helvetica,sans-Serif" font-size="10.00"> char &gt;</text>
</a>
</g>
</g>
<!-- Node8&#45;&gt;Node7 -->
<g id="edge7" class="edge">
<title>Node8&#45;&gt;Node7</title>
<path fill="none" stroke="midnightblue" d="M493.85,-153.05C549.49,-152.64 629.3,-152.06 673.14,-151.73"/>
<polygon fill="midnightblue" stroke="midnightblue" points="493.73,-149.55 483.76,-153.12 493.78,-156.55 493.73,-149.55"/>
</g>
<!-- Node9 -->
<g id="node9" class="node">
<title>Node9</title>
<g id="a_node9"><a xlink:href="classitk_1_1MetaDataDictionary.html" target="_top" xlink:title="Provides a mechanism for storing a collection of arbitrary data types.">
<polygon fill="white" stroke="black" points="639,-100 639,-119 773,-119 773,-100 639,-100"/>
<text text-anchor="middle" x="706" y="-107" font-family="Helvetica,sans-Serif" font-size="10.00">itk::MetaDataDictionary</text>
</a>
</g>
</g>
<!-- Node9&#45;&gt;Node4 -->
<g id="edge8" class="edge">
<title>Node9&#45;&gt;Node4</title>
<path fill="none" stroke="#9a32cd" stroke-dasharray="5,2" d="M783.3,-109.5C838.33,-109.5 909.87,-109.5 950.84,-109.5"/>
<polygon fill="#9a32cd" stroke="#9a32cd" points="783.23,-106 773.23,-109.5 783.23,-113 783.23,-106"/>
<text text-anchor="middle" x="849.5" y="-112.5" font-family="Helvetica,sans-Serif" font-size="10.00"> m_MetaDataDictionary</text>
</g>
<!-- Node10 -->
<g id="node10" class="node">
<title>Node10</title>
<g id="a_node10"><a xlink:title=" ">
<polygon fill="white" stroke="#bfbfbf" points="357,-89.5 357,-119.5 506,-119.5 506,-89.5 357,-89.5"/>
<text text-anchor="start" x="365" y="-107.5" font-family="Helvetica,sans-Serif" font-size="10.00">std::shared_ptr&lt; MetaData</text>
<text text-anchor="middle" x="431.5" y="-96.5" font-family="Helvetica,sans-Serif" font-size="10.00">DictionaryMapType &gt;</text>
</a>
</g>
</g>
<!-- Node10&#45;&gt;Node9 -->
<g id="edge9" class="edge">
<title>Node10&#45;&gt;Node9</title>
<path fill="none" stroke="#9a32cd" stroke-dasharray="5,2" d="M516.34,-106.04C555.65,-106.76 601.82,-107.61 638.65,-108.28"/>
<polygon fill="#9a32cd" stroke="#9a32cd" points="516.3,-102.54 506.24,-105.85 516.18,-109.54 516.3,-102.54"/>
<text text-anchor="middle" x="572.5" y="-110.5" font-family="Helvetica,sans-Serif" font-size="10.00"> m_Dictionary</text>
</g>
<!-- Node11 -->
<g id="node11" class="node">
<title>Node11</title>
<g id="a_node11"><a xlink:title="STL class.">
<polygon fill="white" stroke="#bfbfbf" points="114,-95 114,-114 215,-114 215,-95 114,-95"/>
<text text-anchor="middle" x="164.5" y="-102" font-family="Helvetica,sans-Serif" font-size="10.00">std::map&lt; K, T &gt;</text>
</a>
</g>
</g>
<!-- Node11&#45;&gt;Node10 -->
<g id="edge10" class="edge">
<title>Node11&#45;&gt;Node10</title>
<path fill="none" stroke="#9a32cd" stroke-dasharray="5,2" d="M225.18,-104.5C264.19,-104.5 315.41,-104.5 356.93,-104.5"/>
<polygon fill="#9a32cd" stroke="#9a32cd" points="225.03,-101 215.03,-104.5 225.03,-108 225.03,-101"/>
<text text-anchor="middle" x="286" y="-107.5" font-family="Helvetica,sans-Serif" font-size="10.00"> ptr</text>
</g>
<!-- Node12 -->
<g id="node12" class="node">
<title>Node12</title>
<g id="a_node12"><a xlink:title=" ">
<polygon fill="white" stroke="#bfbfbf" points="0,-119 0,-138 29,-138 29,-119 0,-119"/>
<text text-anchor="middle" x="14.5" y="-126" font-family="Helvetica,sans-Serif" font-size="10.00">K</text>
</a>
</g>
</g>
<!-- Node12&#45;&gt;Node11 -->
<g id="edge11" class="edge">
<title>Node12&#45;&gt;Node11</title>
<path fill="none" stroke="#9a32cd" stroke-dasharray="5,2" d="M39.24,-124.65C59.28,-121.4 88.63,-116.64 113.78,-112.56"/>
<polygon fill="#9a32cd" stroke="#9a32cd" points="38.47,-121.23 29.16,-126.29 39.59,-128.14 38.47,-121.23"/>
<text text-anchor="middle" x="71.5" y="-125.5" font-family="Helvetica,sans-Serif" font-size="10.00"> keys</text>
</g>
<!-- Node13 -->
<g id="node13" class="node">
<title>Node13</title>
<g id="a_node13"><a xlink:title=" ">
<polygon fill="white" stroke="#bfbfbf" points="0,-66 0,-85 29,-85 29,-66 0,-66"/>
<text text-anchor="middle" x="14.5" y="-73" font-family="Helvetica,sans-Serif" font-size="10.00">T</text>
</a>
</g>
</g>
<!-- Node13&#45;&gt;Node11 -->
<g id="edge12" class="edge">
<title>Node13&#45;&gt;Node11</title>
<path fill="none" stroke="#9a32cd" stroke-dasharray="5,2" d="M39.09,-80.12C59.39,-84.1 89.35,-89.97 114.78,-94.95"/>
<polygon fill="#9a32cd" stroke="#9a32cd" points="39.64,-76.66 29.16,-78.18 38.3,-83.53 39.64,-76.66"/>
<text text-anchor="middle" x="71.5" y="-93.5" font-family="Helvetica,sans-Serif" font-size="10.00"> elements</text>
</g>
<!-- Node15 -->
<g id="node15" class="node">
<title>Node15</title>
<g id="a_node15"><a xlink:title="STL class.">
<polygon fill="white" stroke="#bfbfbf" points="114.5,-51 114.5,-70 214.5,-70 214.5,-51 114.5,-51"/>
<text text-anchor="middle" x="164.5" y="-58" font-family="Helvetica,sans-Serif" font-size="10.00">std::atomic&lt; T &gt;</text>
</a>
</g>
</g>
<!-- Node13&#45;&gt;Node15 -->
<g id="edge15" class="edge">
<title>Node13&#45;&gt;Node15</title>
<path fill="none" stroke="#9a32cd" stroke-dasharray="5,2" d="M38.4,-64.04C41.24,-63.01 44.15,-62.12 47,-61.5 68.74,-56.79 93.31,-55.94 114.26,-56.51"/>
<polygon fill="#9a32cd" stroke="#9a32cd" points="37.03,-60.82 29.19,-67.95 39.77,-67.27 37.03,-60.82"/>
<text text-anchor="middle" x="71.5" y="-64.5" font-family="Helvetica,sans-Serif" font-size="10.00"> ptr</text>
</g>
<!-- Node14 -->
<g id="node14" class="node">
<title>Node14</title>
<g id="a_node14"><a xlink:href="classitk_1_1TimeStamp.html" target="_top" xlink:title="Generate a unique, increasing time value.">
<polygon fill="white" stroke="black" points="526.5,-56 526.5,-75 618.5,-75 618.5,-56 526.5,-56"/>
<text text-anchor="middle" x="572.5" y="-63" font-family="Helvetica,sans-Serif" font-size="10.00">itk::TimeStamp</text>
</a>
</g>
</g>
<!-- Node14&#45;&gt;Node4 -->
<g id="edge13" class="edge">
<title>Node14&#45;&gt;Node4</title>
<path fill="none" stroke="#9a32cd" stroke-dasharray="5,2" d="M628.85,-68.32C668.94,-70.62 724.4,-74.34 773,-79.5 836.14,-86.21 909.46,-97.44 950.78,-104.1"/>
<polygon fill="#9a32cd" stroke="#9a32cd" points="628.92,-64.82 618.74,-67.75 628.53,-71.81 628.92,-64.82"/>
<text text-anchor="middle" x="706" y="-82.5" font-family="Helvetica,sans-Serif" font-size="10.00"> m_MTime</text>
</g>
<!-- Node15&#45;&gt;Node14 -->
<g id="edge14" class="edge">
<title>Node15&#45;&gt;Node14</title>
<path fill="none" stroke="#9a32cd" stroke-dasharray="5,2" d="M225.03,-61.23C306.93,-62.24 452.57,-64.04 526.2,-64.94"/>
<polygon fill="#9a32cd" stroke="#9a32cd" points="224.92,-57.73 214.88,-61.11 224.83,-64.73 224.92,-57.73"/>
<text text-anchor="middle" x="286" y="-65.5" font-family="Helvetica,sans-Serif" font-size="10.00"> m_GlobalTimeStamp</text>
</g>
<!-- Node16 -->
<g id="node16" class="node">
<title>Node16</title>
<g id="a_node16"><a xlink:href="classitk_1_1ContinuousIndex.html" target="_top" xlink:title=" ">
<polygon fill="white" stroke="black" points="1113,-27.5 1113,-57.5 1287,-57.5 1287,-27.5 1113,-27.5"/>
<text text-anchor="start" x="1121" y="-45.5" font-family="Helvetica,sans-Serif" font-size="10.00">itk::ContinuousIndex</text>
<text text-anchor="middle" x="1200" y="-34.5" font-family="Helvetica,sans-Serif" font-size="10.00">&lt; float, Self::ImageDimension &gt;</text>
</a>
</g>
</g>
<!-- Node16&#45;&gt;Node2 -->
<g id="edge16" class="edge">
<title>Node16&#45;&gt;Node2</title>
<path fill="none" stroke="#9a32cd" stroke-dasharray="5,2" d="M1297.31,-46.82C1345.87,-49.42 1405.63,-53.25 1459,-58.5 1464.82,-59.07 1470.79,-59.71 1476.81,-60.39"/>
<polygon fill="#9a32cd" stroke="#9a32cd" points="1297.29,-43.31 1287.12,-46.28 1296.93,-50.3 1297.29,-43.31"/>
<text text-anchor="middle" x="1398.5" y="-72.5" font-family="Helvetica,sans-Serif" font-size="10.00"> m_EndContinuousIndex</text>
<text text-anchor="middle" x="1398.5" y="-61.5" font-family="Helvetica,sans-Serif" font-size="10.00">m_StartContinuousIndex</text>
</g>
<!-- Node17 -->
<g id="node17" class="node">
<title>Node17</title>
<g id="a_node17"><a xlink:href="classitk_1_1Point.html" target="_top" xlink:title=" ">
<polygon fill="white" stroke="black" points="926,-24.5 926,-54.5 1043,-54.5 1043,-24.5 926,-24.5"/>
<text text-anchor="start" x="934" y="-42.5" font-family="Helvetica,sans-Serif" font-size="10.00">itk::Point&lt; float,</text>
<text text-anchor="middle" x="984.5" y="-31.5" font-family="Helvetica,sans-Serif" font-size="10.00"> VIndexDimension &gt;</text>
</a>
</g>
</g>
<!-- Node17&#45;&gt;Node16 -->
<g id="edge17" class="edge">
<title>Node17&#45;&gt;Node16</title>
<path fill="none" stroke="midnightblue" d="M1053.52,-40.46C1072.33,-40.72 1092.99,-41.01 1112.7,-41.29"/>
<polygon fill="midnightblue" stroke="midnightblue" points="1053.32,-36.95 1043.28,-40.31 1053.23,-43.95 1053.32,-36.95"/>
</g>
<!-- Node18 -->
<g id="node18" class="node">
<title>Node18</title>
<g id="a_node18"><a xlink:href="classitk_1_1FixedArray.html" target="_top" xlink:title=" ">
<polygon fill="white" stroke="black" points="644.5,-3.5 644.5,-33.5 767.5,-33.5 767.5,-3.5 644.5,-3.5"/>
<text text-anchor="start" x="652.5" y="-21.5" font-family="Helvetica,sans-Serif" font-size="10.00">itk::FixedArray&lt; float,</text>
<text text-anchor="middle" x="706" y="-10.5" font-family="Helvetica,sans-Serif" font-size="10.00"> VPointDimension &gt;</text>
</a>
</g>
</g>
<!-- Node18&#45;&gt;Node17 -->
<g id="edge18" class="edge">
<title>Node18&#45;&gt;Node17</title>
<path fill="none" stroke="midnightblue" d="M777.86,-23.88C823.75,-27.37 882.77,-31.85 925.8,-35.12"/>
<polygon fill="midnightblue" stroke="midnightblue" points="777.92,-20.38 767.68,-23.11 777.39,-27.36 777.92,-20.38"/>
</g>
<!-- Node19 -->
<g id="node19" class="node">
<title>Node19</title>
<g id="a_node19"><a xlink:title=" ">
<polygon fill="white" stroke="#bfbfbf" points="403.5,-9 403.5,-28 459.5,-28 459.5,-9 403.5,-9"/>
<text text-anchor="middle" x="431.5" y="-16" font-family="Helvetica,sans-Serif" font-size="10.00">VLength</text>
</a>
</g>
</g>
<!-- Node19&#45;&gt;Node18 -->
<g id="edge19" class="edge">
<title>Node19&#45;&gt;Node18</title>
<path fill="none" stroke="#9a32cd" stroke-dasharray="5,2" d="M469.81,-18.5C514.8,-18.5 591.01,-18.5 644.45,-18.5"/>
<polygon fill="#9a32cd" stroke="#9a32cd" points="469.62,-15 459.62,-18.5 469.62,-22 469.62,-15"/>
<text text-anchor="middle" x="572.5" y="-21.5" font-family="Helvetica,sans-Serif" font-size="10.00"> m_InternalArray</text>
</g>
<!-- Node20 -->
<g id="node20" class="node">
<title>Node20</title>
<g id="a_node20"><a xlink:href="classitk_1_1SmartPointer.html" target="_top" xlink:title="Implements transparent reference counting.">
<polygon fill="white" stroke="black" points="1532.5,-0.5 1532.5,-30.5 1639.5,-30.5 1639.5,-0.5 1532.5,-0.5"/>
<text text-anchor="start" x="1540.5" y="-18.5" font-family="Helvetica,sans-Serif" font-size="10.00">itk::SmartPointer&lt;</text>
<text text-anchor="middle" x="1586" y="-7.5" font-family="Helvetica,sans-Serif" font-size="10.00"> TObjectType &gt;</text>
</a>
</g>
</g>
<!-- Node20&#45;&gt;Node1 -->
<g id="edge20" class="edge">
<title>Node20&#45;&gt;Node1</title>
<path fill="none" stroke="#9a32cd" stroke-dasharray="5,2" d="M1649.9,-18.1C1694.76,-19.95 1755.89,-22.47 1806.71,-24.57"/>
<polygon fill="#9a32cd" stroke="#9a32cd" points="1649.86,-14.59 1639.72,-17.68 1649.57,-21.59 1649.86,-14.59"/>
<text text-anchor="middle" x="1751" y="-27.5" font-family="Helvetica,sans-Serif" font-size="10.00"> m_Interpolator</text>
</g>
</g>
</svg>
