<?xml version="1.0" encoding="UTF-8" standalone="no"?>
<!DOCTYPE svg PUBLIC "-//W3C//DTD SVG 1.1//EN"
 "http://www.w3.org/Graphics/SVG/1.1/DTD/svg11.dtd">
<!-- Generated by graphviz version 2.43.0 (0)
 -->
<!-- Title: itk::LaplacianDeformationQuadEdgeMeshFilter&lt; TInputMesh, TOutputMesh, TSolverTraits &gt; Pages: 1 -->
<svg width="1429pt" height="110pt"
 viewBox="0.00 0.00 1429.00 110.00" xmlns="http://www.w3.org/2000/svg" xmlns:xlink="http://www.w3.org/1999/xlink">
<g id="graph0" class="graph" transform="scale(1 1) rotate(0) translate(4 106)">
<title>itk::LaplacianDeformationQuadEdgeMeshFilter&lt; TInputMesh, TOutputMesh, TSolverTraits &gt;</title>
<polygon fill="white" stroke="transparent" points="-4,4 -4,-106 1425,-106 1425,4 -4,4"/>
<!-- Node1 -->
<g id="node1" class="node">
<title>Node1</title>
<g id="a_node1"><a xlink:title="(abstract) base class for laplacian surface mesh deformation.">
<polygon fill="#bfbfbf" stroke="black" points="961,-30.5 961,-71.5 1149,-71.5 1149,-30.5 961,-30.5"/>
<text text-anchor="start" x="969" y="-59.5" font-family="Helvetica,sans-Serif" font-size="10.00">itk::LaplacianDeformation</text>
<text text-anchor="start" x="969" y="-48.5" font-family="Helvetica,sans-Serif" font-size="10.00">QuadEdgeMeshFilter&lt; TInputMesh,</text>
<text text-anchor="middle" x="1055" y="-37.5" font-family="Helvetica,sans-Serif" font-size="10.00"> TOutputMesh, TSolverTraits &gt;</text>
</a>
</g>
</g>
<!-- Node8 -->
<g id="node8" class="node">
<title>Node8</title>
<g id="a_node8"><a xlink:href="classitk_1_1LaplacianDeformationQuadEdgeMeshFilterWithHardConstraints.html" target="_top" xlink:title="Laplacian mesh deformation with hard constraints (interpolating displacement for some handle points)">
<polygon fill="white" stroke="black" points="1185,-60.5 1185,-101.5 1421,-101.5 1421,-60.5 1185,-60.5"/>
<text text-anchor="start" x="1193" y="-89.5" font-family="Helvetica,sans-Serif" font-size="10.00">itk::LaplacianDeformation</text>
<text text-anchor="start" x="1193" y="-78.5" font-family="Helvetica,sans-Serif" font-size="10.00">QuadEdgeMeshFilterWithHardConstraints</text>
<text text-anchor="middle" x="1303" y="-67.5" font-family="Helvetica,sans-Serif" font-size="10.00">&lt; TInputMesh, TOutputMesh, TSolverTraits &gt;</text>
</a>
</g>
</g>
<!-- Node1&#45;&gt;Node8 -->
<g id="edge7" class="edge">
<title>Node1&#45;&gt;Node8</title>
<path fill="none" stroke="midnightblue" d="M1158.96,-63.56C1167.5,-64.6 1176.17,-65.65 1184.8,-66.71"/>
<polygon fill="midnightblue" stroke="midnightblue" points="1159.35,-60.08 1149,-62.34 1158.5,-67.03 1159.35,-60.08"/>
</g>
<!-- Node9 -->
<g id="node9" class="node">
<title>Node9</title>
<g id="a_node9"><a xlink:href="classitk_1_1LaplacianDeformationQuadEdgeMeshFilterWithSoftConstraints.html" target="_top" xlink:title="Laplacian deformation with soft constraints (approximating displacement for handle points).">
<polygon fill="white" stroke="black" points="1185,-0.5 1185,-41.5 1421,-41.5 1421,-0.5 1185,-0.5"/>
<text text-anchor="start" x="1193" y="-29.5" font-family="Helvetica,sans-Serif" font-size="10.00">itk::LaplacianDeformation</text>
<text text-anchor="start" x="1193" y="-18.5" font-family="Helvetica,sans-Serif" font-size="10.00">QuadEdgeMeshFilterWithSoftConstraints</text>
<text text-anchor="middle" x="1303" y="-7.5" font-family="Helvetica,sans-Serif" font-size="10.00">&lt; TInputMesh, TOutputMesh, TSolverTraits &gt;</text>
</a>
</g>
</g>
<!-- Node1&#45;&gt;Node9 -->
<g id="edge8" class="edge">
<title>Node1&#45;&gt;Node9</title>
<path fill="none" stroke="midnightblue" d="M1158.96,-38.44C1167.5,-37.4 1176.17,-36.35 1184.8,-35.29"/>
<polygon fill="midnightblue" stroke="midnightblue" points="1158.5,-34.97 1149,-39.66 1159.35,-41.92 1158.5,-34.97"/>
</g>
<!-- Node2 -->
<g id="node2" class="node">
<title>Node2</title>
<g id="a_node2"><a xlink:href="classitk_1_1QuadEdgeMeshToQuadEdgeMeshFilter.html" target="_top" xlink:title="Duplicates the content of a Mesh.">
<polygon fill="white" stroke="black" points="754,-30.5 754,-71.5 925,-71.5 925,-30.5 754,-30.5"/>
<text text-anchor="start" x="762" y="-59.5" font-family="Helvetica,sans-Serif" font-size="10.00">itk::QuadEdgeMeshToQuadEdge</text>
<text text-anchor="start" x="762" y="-48.5" font-family="Helvetica,sans-Serif" font-size="10.00">MeshFilter&lt; TInputMesh,</text>
<text text-anchor="middle" x="839.5" y="-37.5" font-family="Helvetica,sans-Serif" font-size="10.00"> TOutputMesh &gt;</text>
</a>
</g>
</g>
<!-- Node2&#45;&gt;Node1 -->
<g id="edge1" class="edge">
<title>Node2&#45;&gt;Node1</title>
<path fill="none" stroke="midnightblue" d="M935.46,-51C943.94,-51 952.52,-51 960.98,-51"/>
<polygon fill="midnightblue" stroke="midnightblue" points="935.19,-47.5 925.19,-51 935.19,-54.5 935.19,-47.5"/>
</g>
<!-- Node3 -->
<g id="node3" class="node">
<title>Node3</title>
<g id="a_node3"><a xlink:href="classitk_1_1MeshToMeshFilter.html" target="_top" xlink:title="MeshToMeshFilter is the base class for all process objects that output mesh data, and require mesh da...">
<polygon fill="white" stroke="black" points="551,-36 551,-66 718,-66 718,-36 551,-36"/>
<text text-anchor="start" x="559" y="-54" font-family="Helvetica,sans-Serif" font-size="10.00">itk::MeshToMeshFilter</text>
<text text-anchor="middle" x="634.5" y="-43" font-family="Helvetica,sans-Serif" font-size="10.00">&lt; TInputMesh, TOutputMesh &gt;</text>
</a>
</g>
</g>
<!-- Node3&#45;&gt;Node2 -->
<g id="edge2" class="edge">
<title>Node3&#45;&gt;Node2</title>
<path fill="none" stroke="midnightblue" d="M728.33,-51C736.78,-51 745.32,-51 753.7,-51"/>
<polygon fill="midnightblue" stroke="midnightblue" points="728.07,-47.5 718.07,-51 728.07,-54.5 728.07,-47.5"/>
</g>
<!-- Node4 -->
<g id="node4" class="node">
<title>Node4</title>
<g id="a_node4"><a xlink:href="classitk_1_1MeshSource.html" target="_top" xlink:title="Base class for all process objects that output mesh data.">
<polygon fill="white" stroke="black" points="370,-36 370,-66 515,-66 515,-36 370,-36"/>
<text text-anchor="start" x="378" y="-54" font-family="Helvetica,sans-Serif" font-size="10.00">itk::MeshSource&lt; TOutput</text>
<text text-anchor="middle" x="442.5" y="-43" font-family="Helvetica,sans-Serif" font-size="10.00">Mesh &gt;</text>
</a>
</g>
</g>
<!-- Node4&#45;&gt;Node3 -->
<g id="edge3" class="edge">
<title>Node4&#45;&gt;Node3</title>
<path fill="none" stroke="midnightblue" d="M525.29,-51C533.76,-51 542.36,-51 550.83,-51"/>
<polygon fill="midnightblue" stroke="midnightblue" points="525.06,-47.5 515.06,-51 525.06,-54.5 525.06,-47.5"/>
</g>
<!-- Node5 -->
<g id="node5" class="node">
<title>Node5</title>
<g id="a_node5"><a xlink:href="classitk_1_1ProcessObject.html" target="_top" xlink:title="The base class for all process objects (source, filters, mappers) in the Insight data processing pipe...">
<polygon fill="white" stroke="black" points="230,-41.5 230,-60.5 334,-60.5 334,-41.5 230,-41.5"/>
<text text-anchor="middle" x="282" y="-48.5" font-family="Helvetica,sans-Serif" font-size="10.00">itk::ProcessObject</text>
</a>
</g>
</g>
<!-- Node5&#45;&gt;Node4 -->
<g id="edge4" class="edge">
<title>Node5&#45;&gt;Node4</title>
<path fill="none" stroke="midnightblue" d="M344.11,-51C352.52,-51 361.21,-51 369.79,-51"/>
<polygon fill="midnightblue" stroke="midnightblue" points="344.02,-47.5 334.02,-51 344.02,-54.5 344.02,-47.5"/>
</g>
<!-- Node6 -->
<g id="node6" class="node">
<title>Node6</title>
<g id="a_node6"><a xlink:href="classitk_1_1Object.html" target="_top" xlink:title="Base class for most ITK classes.">
<polygon fill="white" stroke="black" points="127,-41.5 127,-60.5 194,-60.5 194,-41.5 127,-41.5"/>
<text text-anchor="middle" x="160.5" y="-48.5" font-family="Helvetica,sans-Serif" font-size="10.00">itk::Object</text>
</a>
</g>
</g>
<!-- Node6&#45;&gt;Node5 -->
<g id="edge5" class="edge">
<title>Node6&#45;&gt;Node5</title>
<path fill="none" stroke="midnightblue" d="M204.36,-51C212.66,-51 221.44,-51 229.97,-51"/>
<polygon fill="midnightblue" stroke="midnightblue" points="204.15,-47.5 194.15,-51 204.15,-54.5 204.15,-47.5"/>
</g>
<!-- Node7 -->
<g id="node7" class="node">
<title>Node7</title>
<g id="a_node7"><a xlink:href="classitk_1_1LightObject.html" target="_top" xlink:title="Light weight base class for most itk classes.">
<polygon fill="white" stroke="black" points="0,-41.5 0,-60.5 91,-60.5 91,-41.5 0,-41.5"/>
<text text-anchor="middle" x="45.5" y="-48.5" font-family="Helvetica,sans-Serif" font-size="10.00">itk::LightObject</text>
</a>
</g>
</g>
<!-- Node7&#45;&gt;Node6 -->
<g id="edge6" class="edge">
<title>Node7&#45;&gt;Node6</title>
<path fill="none" stroke="midnightblue" d="M101.28,-51C109.96,-51 118.69,-51 126.66,-51"/>
<polygon fill="midnightblue" stroke="midnightblue" points="101.16,-47.5 91.16,-51 101.16,-54.5 101.16,-47.5"/>
</g>
</g>
</svg>
