<?xml version="1.0" encoding="UTF-8" standalone="no"?>
<!DOCTYPE svg PUBLIC "-//W3C//DTD SVG 1.1//EN"
 "http://www.w3.org/Graphics/SVG/1.1/DTD/svg11.dtd">
<!-- Generated by graphviz version 2.43.0 (0)
 -->
<!-- Title: itk::MatrixOffsetTransformBase&lt; TParametersValueType, VInputDimension, VOutputDimension &gt; Pages: 1 -->
<svg width="1808pt" height="392pt"
 viewBox="0.00 0.00 1808.00 392.00" xmlns="http://www.w3.org/2000/svg" xmlns:xlink="http://www.w3.org/1999/xlink">
<g id="graph0" class="graph" transform="scale(1 1) rotate(0) translate(4 388)">
<title>itk::MatrixOffsetTransformBase&lt; TParametersValueType, VInputDimension, VOutputDimension &gt;</title>
<polygon fill="white" stroke="transparent" points="-4,4 -4,-388 1804,-388 1804,4 -4,4"/>
<!-- Node1 -->
<g id="node1" class="node">
<title>Node1</title>
<g id="a_node1"><a xlink:title="Matrix and Offset transformation of a vector space (e.g. space coordinates)">
<polygon fill="#bfbfbf" stroke="black" points="1587,-141.5 1587,-182.5 1800,-182.5 1800,-141.5 1587,-141.5"/>
<text text-anchor="start" x="1595" y="-170.5" font-family="Helvetica,sans-Serif" font-size="10.00">itk::MatrixOffsetTransform</text>
<text text-anchor="start" x="1595" y="-159.5" font-family="Helvetica,sans-Serif" font-size="10.00">Base&lt; TParametersValueType,</text>
<text text-anchor="middle" x="1693.5" y="-148.5" font-family="Helvetica,sans-Serif" font-size="10.00"> VInputDimension, VOutputDimension &gt;</text>
</a>
</g>
</g>
<!-- Node2 -->
<g id="node2" class="node">
<title>Node2</title>
<g id="a_node2"><a xlink:href="classitk_1_1Transform.html" target="_top" xlink:title=" ">
<polygon fill="white" stroke="black" points="1314.5,-269 1314.5,-299 1445.5,-299 1445.5,-269 1314.5,-269"/>
<text text-anchor="start" x="1322.5" y="-287" font-family="Helvetica,sans-Serif" font-size="10.00">itk::Transform&lt; double,</text>
<text text-anchor="middle" x="1380" y="-276" font-family="Helvetica,sans-Serif" font-size="10.00"> 3, 3 &gt;</text>
</a>
</g>
</g>
<!-- Node2&#45;&gt;Node1 -->
<g id="edge1" class="edge">
<title>Node2&#45;&gt;Node1</title>
<path fill="none" stroke="midnightblue" d="M1456.08,-274.1C1491.29,-267.84 1533.26,-258.01 1569,-243 1605.64,-227.61 1643.19,-201.16 1667.11,-182.69"/>
<polygon fill="midnightblue" stroke="midnightblue" points="1455.13,-270.71 1445.87,-275.85 1456.32,-277.61 1455.13,-270.71"/>
</g>
<!-- Node3 -->
<g id="node3" class="node">
<title>Node3</title>
<g id="a_node3"><a xlink:href="classitk_1_1TransformBaseTemplate.html" target="_top" xlink:title=" ">
<polygon fill="white" stroke="black" points="1105,-277 1105,-307 1258,-307 1258,-277 1105,-277"/>
<text text-anchor="start" x="1113" y="-295" font-family="Helvetica,sans-Serif" font-size="10.00">itk::TransformBaseTemplate</text>
<text text-anchor="middle" x="1181.5" y="-284" font-family="Helvetica,sans-Serif" font-size="10.00">&lt; double &gt;</text>
</a>
</g>
</g>
<!-- Node3&#45;&gt;Node2 -->
<g id="edge2" class="edge">
<title>Node3&#45;&gt;Node2</title>
<path fill="none" stroke="midnightblue" d="M1268.25,-288.51C1283.67,-287.88 1299.51,-287.24 1314.22,-286.64"/>
<polygon fill="midnightblue" stroke="midnightblue" points="1268.04,-285.01 1258.19,-288.92 1268.33,-292.01 1268.04,-285.01"/>
</g>
<!-- Node4 -->
<g id="node4" class="node">
<title>Node4</title>
<g id="a_node4"><a xlink:href="classitk_1_1Object.html" target="_top" xlink:title="Base class for most ITK classes.">
<polygon fill="white" stroke="black" points="920,-286.5 920,-305.5 987,-305.5 987,-286.5 920,-286.5"/>
<text text-anchor="middle" x="953.5" y="-293.5" font-family="Helvetica,sans-Serif" font-size="10.00">itk::Object</text>
</a>
</g>
</g>
<!-- Node4&#45;&gt;Node3 -->
<g id="edge3" class="edge">
<title>Node4&#45;&gt;Node3</title>
<path fill="none" stroke="midnightblue" d="M997.56,-295.24C1027.76,-294.7 1068.94,-293.97 1104.58,-293.34"/>
<polygon fill="midnightblue" stroke="midnightblue" points="997.3,-291.74 987.36,-295.42 997.42,-298.74 997.3,-291.74"/>
</g>
<!-- Node5 -->
<g id="node5" class="node">
<title>Node5</title>
<g id="a_node5"><a xlink:href="classitk_1_1LightObject.html" target="_top" xlink:title="Light weight base class for most itk classes.">
<polygon fill="white" stroke="black" points="654.5,-361.5 654.5,-380.5 745.5,-380.5 745.5,-361.5 654.5,-361.5"/>
<text text-anchor="middle" x="700" y="-368.5" font-family="Helvetica,sans-Serif" font-size="10.00">itk::LightObject</text>
</a>
</g>
</g>
<!-- Node5&#45;&gt;Node4 -->
<g id="edge4" class="edge">
<title>Node5&#45;&gt;Node4</title>
<path fill="none" stroke="midnightblue" d="M755.85,-369.25C797.55,-366.17 855.48,-358.04 902,-337 918.46,-329.55 934.07,-315.4 943.47,-305.83"/>
<polygon fill="midnightblue" stroke="midnightblue" points="755.36,-365.77 745.62,-369.93 755.83,-372.76 755.36,-365.77"/>
</g>
<!-- Node6 -->
<g id="node6" class="node">
<title>Node6</title>
<g id="a_node6"><a xlink:title=" ">
<polygon fill="white" stroke="#bfbfbf" points="372,-364.5 372,-383.5 479,-383.5 479,-364.5 372,-364.5"/>
<text text-anchor="middle" x="425.5" y="-371.5" font-family="Helvetica,sans-Serif" font-size="10.00">std::atomic&lt; int &gt;</text>
</a>
</g>
</g>
<!-- Node6&#45;&gt;Node5 -->
<g id="edge5" class="edge">
<title>Node6&#45;&gt;Node5</title>
<path fill="none" stroke="#9a32cd" stroke-dasharray="5,2" d="M489.18,-373.31C539.64,-372.75 609.33,-371.99 654.29,-371.49"/>
<polygon fill="#9a32cd" stroke="#9a32cd" points="489,-369.81 479.04,-373.42 489.08,-376.81 489,-369.81"/>
<text text-anchor="middle" x="566.5" y="-375" font-family="Helvetica,sans-Serif" font-size="10.00"> m_ReferenceCount</text>
</g>
<!-- Node7 -->
<g id="node7" class="node">
<title>Node7</title>
<g id="a_node7"><a xlink:title="STL class.">
<polygon fill="white" stroke="#bfbfbf" points="667.5,-320.5 667.5,-339.5 732.5,-339.5 732.5,-320.5 667.5,-320.5"/>
<text text-anchor="middle" x="700" y="-327.5" font-family="Helvetica,sans-Serif" font-size="10.00">std::string</text>
</a>
</g>
</g>
<!-- Node7&#45;&gt;Node4 -->
<g id="edge6" class="edge">
<title>Node7&#45;&gt;Node4</title>
<path fill="none" stroke="#9a32cd" stroke-dasharray="5,2" d="M742.61,-326.96C783.41,-323.63 847.27,-317.46 902,-308 907.77,-307 913.87,-305.74 919.75,-304.41"/>
<polygon fill="#9a32cd" stroke="#9a32cd" points="742.19,-323.49 732.5,-327.77 742.75,-330.46 742.19,-323.49"/>
<text text-anchor="middle" x="843.5" y="-325" font-family="Helvetica,sans-Serif" font-size="10.00"> m_ObjectName</text>
</g>
<!-- Node8 -->
<g id="node8" class="node">
<title>Node8</title>
<g id="a_node8"><a xlink:title="STL class.">
<polygon fill="white" stroke="#bfbfbf" points="373.5,-315 373.5,-345 477.5,-345 477.5,-315 373.5,-315"/>
<text text-anchor="start" x="381.5" y="-333" font-family="Helvetica,sans-Serif" font-size="10.00">std::basic_string&lt;</text>
<text text-anchor="middle" x="425.5" y="-322" font-family="Helvetica,sans-Serif" font-size="10.00"> char &gt;</text>
</a>
</g>
</g>
<!-- Node8&#45;&gt;Node7 -->
<g id="edge7" class="edge">
<title>Node8&#45;&gt;Node7</title>
<path fill="none" stroke="midnightblue" d="M487.85,-330C543.49,-330 623.3,-330 667.14,-330"/>
<polygon fill="midnightblue" stroke="midnightblue" points="487.76,-326.5 477.76,-330 487.76,-333.5 487.76,-326.5"/>
</g>
<!-- Node9 -->
<g id="node9" class="node">
<title>Node9</title>
<g id="a_node9"><a xlink:href="classitk_1_1MetaDataDictionary.html" target="_top" xlink:title="Provides a mechanism for storing a collection of arbitrary data types.">
<polygon fill="white" stroke="black" points="633,-277.5 633,-296.5 767,-296.5 767,-277.5 633,-277.5"/>
<text text-anchor="middle" x="700" y="-284.5" font-family="Helvetica,sans-Serif" font-size="10.00">itk::MetaDataDictionary</text>
</a>
</g>
</g>
<!-- Node9&#45;&gt;Node4 -->
<g id="edge8" class="edge">
<title>Node9&#45;&gt;Node4</title>
<path fill="none" stroke="#9a32cd" stroke-dasharray="5,2" d="M777.08,-289.72C824.79,-291.43 883.88,-293.54 919.85,-294.83"/>
<polygon fill="#9a32cd" stroke="#9a32cd" points="777.2,-286.22 767.08,-289.36 776.95,-293.22 777.2,-286.22"/>
<text text-anchor="middle" x="843.5" y="-297" font-family="Helvetica,sans-Serif" font-size="10.00"> m_MetaDataDictionary</text>
</g>
<!-- Node10 -->
<g id="node10" class="node">
<title>Node10</title>
<g id="a_node10"><a xlink:title=" ">
<polygon fill="white" stroke="#bfbfbf" points="351,-266 351,-296 500,-296 500,-266 351,-266"/>
<text text-anchor="start" x="359" y="-284" font-family="Helvetica,sans-Serif" font-size="10.00">std::shared_ptr&lt; MetaData</text>
<text text-anchor="middle" x="425.5" y="-273" font-family="Helvetica,sans-Serif" font-size="10.00">DictionaryMapType &gt;</text>
</a>
</g>
</g>
<!-- Node10&#45;&gt;Node9 -->
<g id="edge9" class="edge">
<title>Node10&#45;&gt;Node9</title>
<path fill="none" stroke="#9a32cd" stroke-dasharray="5,2" d="M510.34,-282.85C549.65,-283.71 595.82,-284.73 632.65,-285.54"/>
<polygon fill="#9a32cd" stroke="#9a32cd" points="510.32,-279.34 500.24,-282.62 510.16,-286.34 510.32,-279.34"/>
<text text-anchor="middle" x="566.5" y="-288" font-family="Helvetica,sans-Serif" font-size="10.00"> m_Dictionary</text>
</g>
<!-- Node11 -->
<g id="node11" class="node">
<title>Node11</title>
<g id="a_node11"><a xlink:title="STL class.">
<polygon fill="white" stroke="#bfbfbf" points="114,-271.5 114,-290.5 215,-290.5 215,-271.5 114,-271.5"/>
<text text-anchor="middle" x="164.5" y="-278.5" font-family="Helvetica,sans-Serif" font-size="10.00">std::map&lt; K, T &gt;</text>
</a>
</g>
</g>
<!-- Node11&#45;&gt;Node10 -->
<g id="edge10" class="edge">
<title>Node11&#45;&gt;Node10</title>
<path fill="none" stroke="#9a32cd" stroke-dasharray="5,2" d="M225.34,-281C262.61,-281 310.86,-281 350.52,-281"/>
<polygon fill="#9a32cd" stroke="#9a32cd" points="225.13,-277.5 215.13,-281 225.13,-284.5 225.13,-277.5"/>
<text text-anchor="middle" x="283" y="-284" font-family="Helvetica,sans-Serif" font-size="10.00"> ptr</text>
</g>
<!-- Node12 -->
<g id="node12" class="node">
<title>Node12</title>
<g id="a_node12"><a xlink:title=" ">
<polygon fill="white" stroke="#bfbfbf" points="0,-291.5 0,-310.5 29,-310.5 29,-291.5 0,-291.5"/>
<text text-anchor="middle" x="14.5" y="-298.5" font-family="Helvetica,sans-Serif" font-size="10.00">K</text>
</a>
</g>
</g>
<!-- Node12&#45;&gt;Node11 -->
<g id="edge11" class="edge">
<title>Node12&#45;&gt;Node11</title>
<path fill="none" stroke="#9a32cd" stroke-dasharray="5,2" d="M39.24,-297.79C59.28,-295.08 88.63,-291.12 113.78,-287.72"/>
<polygon fill="#9a32cd" stroke="#9a32cd" points="38.6,-294.35 29.16,-299.15 39.54,-301.28 38.6,-294.35"/>
<text text-anchor="middle" x="71.5" y="-299" font-family="Helvetica,sans-Serif" font-size="10.00"> keys</text>
</g>
<!-- Node13 -->
<g id="node13" class="node">
<title>Node13</title>
<g id="a_node13"><a xlink:title=" ">
<polygon fill="white" stroke="#bfbfbf" points="0,-238.5 0,-257.5 29,-257.5 29,-238.5 0,-238.5"/>
<text text-anchor="middle" x="14.5" y="-245.5" font-family="Helvetica,sans-Serif" font-size="10.00">T</text>
</a>
</g>
</g>
<!-- Node13&#45;&gt;Node11 -->
<g id="edge12" class="edge">
<title>Node13&#45;&gt;Node11</title>
<path fill="none" stroke="#9a32cd" stroke-dasharray="5,2" d="M38.92,-253.22C60.82,-258.11 94.06,-265.52 120.69,-271.46"/>
<polygon fill="#9a32cd" stroke="#9a32cd" points="39.68,-249.81 29.16,-251.05 38.16,-256.64 39.68,-249.81"/>
<text text-anchor="middle" x="71.5" y="-268" font-family="Helvetica,sans-Serif" font-size="10.00"> elements</text>
</g>
<!-- Node15 -->
<g id="node15" class="node">
<title>Node15</title>
<g id="a_node15"><a xlink:title="STL class.">
<polygon fill="white" stroke="#bfbfbf" points="233,-223.5 233,-242.5 333,-242.5 333,-223.5 233,-223.5"/>
<text text-anchor="middle" x="283" y="-230.5" font-family="Helvetica,sans-Serif" font-size="10.00">std::atomic&lt; T &gt;</text>
</a>
</g>
</g>
<!-- Node13&#45;&gt;Node15 -->
<g id="edge15" class="edge">
<title>Node13&#45;&gt;Node15</title>
<path fill="none" stroke="#9a32cd" stroke-dasharray="5,2" d="M39.06,-241.42C41.72,-240.86 44.41,-240.36 47,-240 110.66,-231.08 184.94,-230.48 232.68,-231.35"/>
<polygon fill="#9a32cd" stroke="#9a32cd" points="38.06,-238.07 29.17,-243.83 39.71,-244.87 38.06,-238.07"/>
<text text-anchor="middle" x="71.5" y="-243" font-family="Helvetica,sans-Serif" font-size="10.00"> ptr</text>
</g>
<!-- Node14 -->
<g id="node14" class="node">
<title>Node14</title>
<g id="a_node14"><a xlink:href="classitk_1_1TimeStamp.html" target="_top" xlink:title="Generate a unique, increasing time value.">
<polygon fill="white" stroke="black" points="654,-223.5 654,-242.5 746,-242.5 746,-223.5 654,-223.5"/>
<text text-anchor="middle" x="700" y="-230.5" font-family="Helvetica,sans-Serif" font-size="10.00">itk::TimeStamp</text>
</a>
</g>
</g>
<!-- Node14&#45;&gt;Node1 -->
<g id="edge23" class="edge">
<title>Node14&#45;&gt;Node1</title>
<path fill="none" stroke="#9a32cd" stroke-dasharray="5,2" d="M756.57,-231.61C807.53,-230.45 885.09,-229 952.5,-229 952.5,-229 952.5,-229 1381,-229 1470.47,-229 1571.24,-202.25 1633.31,-182.56"/>
<polygon fill="#9a32cd" stroke="#9a32cd" points="756.35,-228.11 746.43,-231.84 756.51,-235.11 756.35,-228.11"/>
<text text-anchor="middle" x="1181.5" y="-243" font-family="Helvetica,sans-Serif" font-size="10.00"> m_InverseMatrixMTime</text>
<text text-anchor="middle" x="1181.5" y="-232" font-family="Helvetica,sans-Serif" font-size="10.00">m_MatrixMTime</text>
</g>
<!-- Node14&#45;&gt;Node4 -->
<g id="edge13" class="edge">
<title>Node14&#45;&gt;Node4</title>
<path fill="none" stroke="#9a32cd" stroke-dasharray="5,2" d="M756.33,-241.67C797.11,-248.76 853.65,-260.04 902,-275 911.98,-278.09 922.71,-282.4 931.7,-286.31"/>
<polygon fill="#9a32cd" stroke="#9a32cd" points="756.77,-238.2 746.32,-239.96 755.59,-245.1 756.77,-238.2"/>
<text text-anchor="middle" x="843.5" y="-278" font-family="Helvetica,sans-Serif" font-size="10.00"> m_MTime</text>
</g>
<!-- Node15&#45;&gt;Node14 -->
<g id="edge14" class="edge">
<title>Node15&#45;&gt;Node14</title>
<path fill="none" stroke="#9a32cd" stroke-dasharray="5,2" d="M343.37,-233C427.26,-233 578.65,-233 653.94,-233"/>
<polygon fill="#9a32cd" stroke="#9a32cd" points="343.24,-229.5 333.24,-233 343.24,-236.5 343.24,-229.5"/>
<text text-anchor="middle" x="425.5" y="-236" font-family="Helvetica,sans-Serif" font-size="10.00"> m_GlobalTimeStamp</text>
</g>
<!-- Node16 -->
<g id="node16" class="node">
<title>Node16</title>
<g id="a_node16"><a xlink:href="classitk_1_1Matrix.html" target="_top" xlink:title=" ">
<polygon fill="white" stroke="black" points="1299.5,-159.5 1299.5,-200.5 1460.5,-200.5 1460.5,-159.5 1299.5,-159.5"/>
<text text-anchor="start" x="1307.5" y="-188.5" font-family="Helvetica,sans-Serif" font-size="10.00">itk::Matrix&lt; double,</text>
<text text-anchor="start" x="1307.5" y="-177.5" font-family="Helvetica,sans-Serif" font-size="10.00"> Self::OutputSpaceDimension,</text>
<text text-anchor="middle" x="1380" y="-166.5" font-family="Helvetica,sans-Serif" font-size="10.00"> Self::InputSpaceDimension &gt;</text>
</a>
</g>
</g>
<!-- Node16&#45;&gt;Node1 -->
<g id="edge16" class="edge">
<title>Node16&#45;&gt;Node1</title>
<path fill="none" stroke="#9a32cd" stroke-dasharray="5,2" d="M1470.86,-174.81C1507.06,-172.72 1549.08,-170.29 1586.74,-168.11"/>
<polygon fill="#9a32cd" stroke="#9a32cd" points="1470.6,-171.32 1460.81,-175.39 1471,-178.31 1470.6,-171.32"/>
<text text-anchor="middle" x="1526" y="-176" font-family="Helvetica,sans-Serif" font-size="10.00"> m_Matrix</text>
</g>
<!-- Node17 -->
<g id="node17" class="node">
<title>Node17</title>
<g id="a_node17"><a xlink:href="classitk_1_1Point.html" target="_top" xlink:title=" ">
<polygon fill="white" stroke="black" points="1299.5,-110 1299.5,-140 1460.5,-140 1460.5,-110 1299.5,-110"/>
<text text-anchor="start" x="1307.5" y="-128" font-family="Helvetica,sans-Serif" font-size="10.00">itk::Point&lt; double,</text>
<text text-anchor="middle" x="1380" y="-117" font-family="Helvetica,sans-Serif" font-size="10.00"> Self::InputSpaceDimension &gt;</text>
</a>
</g>
</g>
<!-- Node17&#45;&gt;Node1 -->
<g id="edge17" class="edge">
<title>Node17&#45;&gt;Node1</title>
<path fill="none" stroke="#9a32cd" stroke-dasharray="5,2" d="M1470.86,-135.67C1507.06,-139.97 1549.08,-144.96 1586.74,-149.44"/>
<polygon fill="#9a32cd" stroke="#9a32cd" points="1471.16,-132.18 1460.81,-134.48 1470.33,-139.14 1471.16,-132.18"/>
<text text-anchor="middle" x="1526" y="-149" font-family="Helvetica,sans-Serif" font-size="10.00"> m_Center</text>
</g>
<!-- Node18 -->
<g id="node18" class="node">
<title>Node18</title>
<g id="a_node18"><a xlink:href="classitk_1_1FixedArray.html" target="_top" xlink:title=" ">
<polygon fill="white" stroke="black" points="1114.5,-110 1114.5,-140 1248.5,-140 1248.5,-110 1114.5,-110"/>
<text text-anchor="start" x="1122.5" y="-128" font-family="Helvetica,sans-Serif" font-size="10.00">itk::FixedArray&lt; double,</text>
<text text-anchor="middle" x="1181.5" y="-117" font-family="Helvetica,sans-Serif" font-size="10.00"> VPointDimension &gt;</text>
</a>
</g>
</g>
<!-- Node18&#45;&gt;Node17 -->
<g id="edge18" class="edge">
<title>Node18&#45;&gt;Node17</title>
<path fill="none" stroke="midnightblue" d="M1258.81,-125C1272.13,-125 1286.02,-125 1299.42,-125"/>
<polygon fill="midnightblue" stroke="midnightblue" points="1258.75,-121.5 1248.75,-125 1258.75,-128.5 1258.75,-121.5"/>
</g>
<!-- Node19 -->
<g id="node19" class="node">
<title>Node19</title>
<g id="a_node19"><a xlink:title=" ">
<polygon fill="white" stroke="#bfbfbf" points="925.5,-89.5 925.5,-108.5 981.5,-108.5 981.5,-89.5 925.5,-89.5"/>
<text text-anchor="middle" x="953.5" y="-96.5" font-family="Helvetica,sans-Serif" font-size="10.00">VLength</text>
</a>
</g>
</g>
<!-- Node19&#45;&gt;Node18 -->
<g id="edge19" class="edge">
<title>Node19&#45;&gt;Node18</title>
<path fill="none" stroke="#9a32cd" stroke-dasharray="5,2" d="M991.95,-103.31C1025.18,-107.13 1074.5,-112.81 1114.36,-117.39"/>
<polygon fill="#9a32cd" stroke="#9a32cd" points="992.1,-99.8 981.76,-102.14 991.3,-106.76 992.1,-99.8"/>
<text text-anchor="middle" x="1046" y="-116" font-family="Helvetica,sans-Serif" font-size="10.00"> m_InternalArray</text>
</g>
<!-- Node21 -->
<g id="node21" class="node">
<title>Node21</title>
<g id="a_node21"><a xlink:href="classitk_1_1FixedArray.html" target="_top" xlink:title=" ">
<polygon fill="white" stroke="black" points="1114.5,-61 1114.5,-91 1248.5,-91 1248.5,-61 1114.5,-61"/>
<text text-anchor="start" x="1122.5" y="-79" font-family="Helvetica,sans-Serif" font-size="10.00">itk::FixedArray&lt; double,</text>
<text text-anchor="middle" x="1181.5" y="-68" font-family="Helvetica,sans-Serif" font-size="10.00"> VVectorDimension &gt;</text>
</a>
</g>
</g>
<!-- Node19&#45;&gt;Node21 -->
<g id="edge22" class="edge">
<title>Node19&#45;&gt;Node21</title>
<path fill="none" stroke="#9a32cd" stroke-dasharray="5,2" d="M991.33,-87.79C995.9,-86.7 1000.53,-85.72 1005,-85 1040.84,-79.19 1081.28,-76.83 1114.3,-75.98"/>
<polygon fill="#9a32cd" stroke="#9a32cd" points="990.31,-84.44 981.51,-90.34 992.07,-91.21 990.31,-84.44"/>
<text text-anchor="middle" x="1046" y="-88" font-family="Helvetica,sans-Serif" font-size="10.00"> m_InternalArray</text>
</g>
<!-- Node20 -->
<g id="node20" class="node">
<title>Node20</title>
<g id="a_node20"><a xlink:href="classitk_1_1Vector.html" target="_top" xlink:title=" ">
<polygon fill="white" stroke="black" points="1295,-61 1295,-91 1465,-91 1465,-61 1295,-61"/>
<text text-anchor="start" x="1303" y="-79" font-family="Helvetica,sans-Serif" font-size="10.00">itk::Vector&lt; double,</text>
<text text-anchor="middle" x="1380" y="-68" font-family="Helvetica,sans-Serif" font-size="10.00"> Self::OutputSpaceDimension &gt;</text>
</a>
</g>
</g>
<!-- Node20&#45;&gt;Node1 -->
<g id="edge20" class="edge">
<title>Node20&#45;&gt;Node1</title>
<path fill="none" stroke="#9a32cd" stroke-dasharray="5,2" d="M1475.26,-90.32C1505.5,-95.91 1538.93,-103.13 1569,-112 1595.73,-119.89 1624.66,-131.43 1647.8,-141.44"/>
<polygon fill="#9a32cd" stroke="#9a32cd" points="1475.6,-86.83 1465.13,-88.49 1474.35,-93.72 1475.6,-86.83"/>
<text text-anchor="middle" x="1526" y="-126" font-family="Helvetica,sans-Serif" font-size="10.00"> m_Offset</text>
<text text-anchor="middle" x="1526" y="-115" font-family="Helvetica,sans-Serif" font-size="10.00">m_Translation</text>
</g>
<!-- Node21&#45;&gt;Node20 -->
<g id="edge21" class="edge">
<title>Node21&#45;&gt;Node20</title>
<path fill="none" stroke="midnightblue" d="M1258.97,-76C1270.75,-76 1282.98,-76 1294.91,-76"/>
<polygon fill="midnightblue" stroke="midnightblue" points="1258.75,-72.5 1248.75,-76 1258.75,-79.5 1258.75,-72.5"/>
</g>
<!-- Node22 -->
<g id="node22" class="node">
<title>Node22</title>
<g id="a_node22"><a xlink:href="classitk_1_1Matrix.html" target="_top" xlink:title=" ">
<polygon fill="white" stroke="black" points="1295,-0.5 1295,-41.5 1465,-41.5 1465,-0.5 1295,-0.5"/>
<text text-anchor="start" x="1303" y="-29.5" font-family="Helvetica,sans-Serif" font-size="10.00">itk::Matrix&lt; double,</text>
<text text-anchor="start" x="1303" y="-18.5" font-family="Helvetica,sans-Serif" font-size="10.00"> Self::InputSpaceDimension,</text>
<text text-anchor="middle" x="1380" y="-7.5" font-family="Helvetica,sans-Serif" font-size="10.00"> Self::OutputSpaceDimension &gt;</text>
</a>
</g>
</g>
<!-- Node22&#45;&gt;Node1 -->
<g id="edge24" class="edge">
<title>Node22&#45;&gt;Node1</title>
<path fill="none" stroke="#9a32cd" stroke-dasharray="5,2" d="M1475.29,-42.85C1505.94,-51.57 1539.61,-62.94 1569,-77 1605.63,-94.52 1643.48,-122.25 1667.46,-141.24"/>
<polygon fill="#9a32cd" stroke="#9a32cd" points="1476.03,-39.42 1465.45,-40.1 1474.15,-46.16 1476.03,-39.42"/>
<text text-anchor="middle" x="1526" y="-80" font-family="Helvetica,sans-Serif" font-size="10.00"> m_InverseMatrix</text>
</g>
</g>
</svg>
