<?xml version="1.0" encoding="UTF-8" standalone="no"?>
<!DOCTYPE svg PUBLIC "-//W3C//DTD SVG 1.1//EN"
 "http://www.w3.org/Graphics/SVG/1.1/DTD/svg11.dtd">
<!-- Generated by graphviz version 2.43.0 (0)
 -->
<!-- Title: itk::DecimateFramesVideoFilter&lt; TVideoStream &gt; Pages: 1 -->
<svg width="191pt" height="397pt"
 viewBox="0.00 0.00 191.00 397.00" xmlns="http://www.w3.org/2000/svg" xmlns:xlink="http://www.w3.org/1999/xlink">
<g id="graph0" class="graph" transform="scale(1 1) rotate(0) translate(4 393)">
<title>itk::DecimateFramesVideoFilter&lt; TVideoStream &gt;</title>
<polygon fill="white" stroke="transparent" points="-4,4 -4,-393 187,-393 187,4 -4,4"/>
<!-- Node1 -->
<g id="node1" class="node">
<title>Node1</title>
<g id="a_node1"><a xlink:title="Reduce a video&#39;s frame&#45;rate by keeping every Nth frame.">
<polygon fill="#bfbfbf" stroke="black" points="18.5,-0.5 18.5,-30.5 164.5,-30.5 164.5,-0.5 18.5,-0.5"/>
<text text-anchor="start" x="26.5" y="-18.5" font-family="Helvetica,sans-Serif" font-size="10.00">itk::DecimateFramesVideo</text>
<text text-anchor="middle" x="91.5" y="-7.5" font-family="Helvetica,sans-Serif" font-size="10.00">Filter&lt; TVideoStream &gt;</text>
</a>
</g>
</g>
<!-- Node2 -->
<g id="node2" class="node">
<title>Node2</title>
<g id="a_node2"><a xlink:href="classitk_1_1VideoToVideoFilter.html" target="_top" xlink:title=" ">
<polygon fill="white" stroke="black" points="0,-67.5 0,-97.5 183,-97.5 183,-67.5 0,-67.5"/>
<text text-anchor="start" x="8" y="-85.5" font-family="Helvetica,sans-Serif" font-size="10.00">itk::VideoToVideoFilter</text>
<text text-anchor="middle" x="91.5" y="-74.5" font-family="Helvetica,sans-Serif" font-size="10.00">&lt; TVideoStream, TVideoStream &gt;</text>
</a>
</g>
</g>
<!-- Node2&#45;&gt;Node1 -->
<g id="edge1" class="edge">
<title>Node2&#45;&gt;Node1</title>
<path fill="none" stroke="midnightblue" d="M91.5,-57.11C91.5,-48.15 91.5,-38.32 91.5,-30.58"/>
<polygon fill="midnightblue" stroke="midnightblue" points="88,-57.4 91.5,-67.4 95,-57.4 88,-57.4"/>
</g>
<!-- Node3 -->
<g id="node3" class="node">
<title>Node3</title>
<g id="a_node3"><a xlink:href="classitk_1_1VideoSource.html" target="_top" xlink:title=" ">
<polygon fill="white" stroke="black" points="21,-134.5 21,-164.5 162,-164.5 162,-134.5 21,-134.5"/>
<text text-anchor="start" x="29" y="-152.5" font-family="Helvetica,sans-Serif" font-size="10.00">itk::VideoSource&lt; TVideo</text>
<text text-anchor="middle" x="91.5" y="-141.5" font-family="Helvetica,sans-Serif" font-size="10.00">Stream &gt;</text>
</a>
</g>
</g>
<!-- Node3&#45;&gt;Node2 -->
<g id="edge2" class="edge">
<title>Node3&#45;&gt;Node2</title>
<path fill="none" stroke="midnightblue" d="M91.5,-124.11C91.5,-115.15 91.5,-105.32 91.5,-97.58"/>
<polygon fill="midnightblue" stroke="midnightblue" points="88,-124.4 91.5,-134.4 95,-124.4 88,-124.4"/>
</g>
<!-- Node4 -->
<g id="node4" class="node">
<title>Node4</title>
<g id="a_node4"><a xlink:href="classitk_1_1TemporalProcessObject.html" target="_top" xlink:title="TemporalProcessObject implements a ProcessObject for the itk pipeline with the notion of a temporal r...">
<polygon fill="white" stroke="black" points="17,-201.5 17,-220.5 166,-220.5 166,-201.5 17,-201.5"/>
<text text-anchor="middle" x="91.5" y="-208.5" font-family="Helvetica,sans-Serif" font-size="10.00">itk::TemporalProcessObject</text>
</a>
</g>
</g>
<!-- Node4&#45;&gt;Node3 -->
<g id="edge3" class="edge">
<title>Node4&#45;&gt;Node3</title>
<path fill="none" stroke="midnightblue" d="M91.5,-191.23C91.5,-182.59 91.5,-172.5 91.5,-164.52"/>
<polygon fill="midnightblue" stroke="midnightblue" points="88,-191.48 91.5,-201.48 95,-191.48 88,-191.48"/>
</g>
<!-- Node5 -->
<g id="node5" class="node">
<title>Node5</title>
<g id="a_node5"><a xlink:href="classitk_1_1ProcessObject.html" target="_top" xlink:title="The base class for all process objects (source, filters, mappers) in the Insight data processing pipe...">
<polygon fill="white" stroke="black" points="39.5,-257.5 39.5,-276.5 143.5,-276.5 143.5,-257.5 39.5,-257.5"/>
<text text-anchor="middle" x="91.5" y="-264.5" font-family="Helvetica,sans-Serif" font-size="10.00">itk::ProcessObject</text>
</a>
</g>
</g>
<!-- Node5&#45;&gt;Node4 -->
<g id="edge4" class="edge">
<title>Node5&#45;&gt;Node4</title>
<path fill="none" stroke="midnightblue" d="M91.5,-246.8C91.5,-237.91 91.5,-227.78 91.5,-220.75"/>
<polygon fill="midnightblue" stroke="midnightblue" points="88,-247.08 91.5,-257.08 95,-247.08 88,-247.08"/>
</g>
<!-- Node6 -->
<g id="node6" class="node">
<title>Node6</title>
<g id="a_node6"><a xlink:href="classitk_1_1Object.html" target="_top" xlink:title="Base class for most ITK classes.">
<polygon fill="white" stroke="black" points="58,-313.5 58,-332.5 125,-332.5 125,-313.5 58,-313.5"/>
<text text-anchor="middle" x="91.5" y="-320.5" font-family="Helvetica,sans-Serif" font-size="10.00">itk::Object</text>
</a>
</g>
</g>
<!-- Node6&#45;&gt;Node5 -->
<g id="edge5" class="edge">
<title>Node6&#45;&gt;Node5</title>
<path fill="none" stroke="midnightblue" d="M91.5,-302.8C91.5,-293.91 91.5,-283.78 91.5,-276.75"/>
<polygon fill="midnightblue" stroke="midnightblue" points="88,-303.08 91.5,-313.08 95,-303.08 88,-303.08"/>
</g>
<!-- Node7 -->
<g id="node7" class="node">
<title>Node7</title>
<g id="a_node7"><a xlink:href="classitk_1_1LightObject.html" target="_top" xlink:title="Light weight base class for most itk classes.">
<polygon fill="white" stroke="black" points="46,-369.5 46,-388.5 137,-388.5 137,-369.5 46,-369.5"/>
<text text-anchor="middle" x="91.5" y="-376.5" font-family="Helvetica,sans-Serif" font-size="10.00">itk::LightObject</text>
</a>
</g>
</g>
<!-- Node7&#45;&gt;Node6 -->
<g id="edge6" class="edge">
<title>Node7&#45;&gt;Node6</title>
<path fill="none" stroke="midnightblue" d="M91.5,-358.8C91.5,-349.91 91.5,-339.78 91.5,-332.75"/>
<polygon fill="midnightblue" stroke="midnightblue" points="88,-359.08 91.5,-369.08 95,-359.08 88,-359.08"/>
</g>
</g>
</svg>
