<?xml version="1.0" encoding="UTF-8" standalone="no"?>
<!DOCTYPE svg PUBLIC "-//W3C//DTD SVG 1.1//EN"
 "http://www.w3.org/Graphics/SVG/1.1/DTD/svg11.dtd">
<!-- Generated by graphviz version 2.43.0 (0)
 -->
<!-- Title: itk::ImageModelEstimatorBase&lt; TInputImage, TMembershipFunction &gt; Pages: 1 -->
<svg width="839pt" height="88pt"
 viewBox="0.00 0.00 839.00 88.00" xmlns="http://www.w3.org/2000/svg" xmlns:xlink="http://www.w3.org/1999/xlink">
<g id="graph0" class="graph" transform="scale(1 1) rotate(0) translate(4 84)">
<title>itk::ImageModelEstimatorBase&lt; TInputImage, TMembershipFunction &gt;</title>
<polygon fill="white" stroke="transparent" points="-4,4 -4,-84 835,-84 835,4 -4,4"/>
<!-- Node1 -->
<g id="node1" class="node">
<title>Node1</title>
<g id="a_node1"><a xlink:title="Base class for model estimation from images used for classification.">
<polygon fill="#bfbfbf" stroke="black" points="394,-19 394,-60 580,-60 580,-19 394,-19"/>
<text text-anchor="start" x="402" y="-48" font-family="Helvetica,sans-Serif" font-size="10.00">itk::ImageModelEstimator</text>
<text text-anchor="start" x="402" y="-37" font-family="Helvetica,sans-Serif" font-size="10.00">Base&lt; TInputImage, TMembership</text>
<text text-anchor="middle" x="487" y="-26" font-family="Helvetica,sans-Serif" font-size="10.00">Function &gt;</text>
</a>
</g>
</g>
<!-- Node5 -->
<g id="node5" class="node">
<title>Node5</title>
<g id="a_node5"><a xlink:href="classitk_1_1ImageGaussianModelEstimator.html" target="_top" xlink:title="Base class for ImageGaussianModelEstimator object.">
<polygon fill="white" stroke="black" points="616,-49.5 616,-79.5 831,-79.5 831,-49.5 616,-49.5"/>
<text text-anchor="start" x="624" y="-67.5" font-family="Helvetica,sans-Serif" font-size="10.00">itk::ImageGaussianModelEstimator</text>
<text text-anchor="middle" x="723.5" y="-56.5" font-family="Helvetica,sans-Serif" font-size="10.00">&lt; TInputImage, TMembershipFunction &gt;</text>
</a>
</g>
</g>
<!-- Node1&#45;&gt;Node5 -->
<g id="edge4" class="edge">
<title>Node1&#45;&gt;Node5</title>
<path fill="none" stroke="midnightblue" d="M590.04,-50.38C598.64,-51.3 607.35,-52.22 615.99,-53.14"/>
<polygon fill="midnightblue" stroke="midnightblue" points="590.32,-46.89 580.01,-49.31 589.58,-53.85 590.32,-46.89"/>
</g>
<!-- Node6 -->
<g id="node6" class="node">
<title>Node6</title>
<g id="a_node6"><a xlink:href="classitk_1_1ImageKmeansModelEstimator.html" target="_top" xlink:title="Base class for ImageKmeansModelEstimator object.">
<polygon fill="white" stroke="black" points="616,-0.5 616,-30.5 831,-30.5 831,-0.5 616,-0.5"/>
<text text-anchor="start" x="624" y="-18.5" font-family="Helvetica,sans-Serif" font-size="10.00">itk::ImageKmeansModelEstimator</text>
<text text-anchor="middle" x="723.5" y="-7.5" font-family="Helvetica,sans-Serif" font-size="10.00">&lt; TInputImage, TMembershipFunction &gt;</text>
</a>
</g>
</g>
<!-- Node1&#45;&gt;Node6 -->
<g id="edge5" class="edge">
<title>Node1&#45;&gt;Node6</title>
<path fill="none" stroke="midnightblue" d="M590.04,-29.06C598.64,-28.18 607.35,-27.28 615.99,-26.4"/>
<polygon fill="midnightblue" stroke="midnightblue" points="589.6,-25.58 580.01,-30.08 590.31,-32.55 589.6,-25.58"/>
</g>
<!-- Node2 -->
<g id="node2" class="node">
<title>Node2</title>
<g id="a_node2"><a xlink:href="classitk_1_1LightProcessObject.html" target="_top" xlink:title="LightProcessObject is the base class for all process objects (source, filters, mappers) in the Insigh...">
<polygon fill="white" stroke="black" points="230,-30 230,-49 358,-49 358,-30 230,-30"/>
<text text-anchor="middle" x="294" y="-37" font-family="Helvetica,sans-Serif" font-size="10.00">itk::LightProcessObject</text>
</a>
</g>
</g>
<!-- Node2&#45;&gt;Node1 -->
<g id="edge1" class="edge">
<title>Node2&#45;&gt;Node1</title>
<path fill="none" stroke="midnightblue" d="M368.22,-39.5C376.65,-39.5 385.33,-39.5 393.98,-39.5"/>
<polygon fill="midnightblue" stroke="midnightblue" points="368.07,-36 358.07,-39.5 368.07,-43 368.07,-36"/>
</g>
<!-- Node3 -->
<g id="node3" class="node">
<title>Node3</title>
<g id="a_node3"><a xlink:href="classitk_1_1Object.html" target="_top" xlink:title="Base class for most ITK classes.">
<polygon fill="white" stroke="black" points="127,-30 127,-49 194,-49 194,-30 127,-30"/>
<text text-anchor="middle" x="160.5" y="-37" font-family="Helvetica,sans-Serif" font-size="10.00">itk::Object</text>
</a>
</g>
</g>
<!-- Node3&#45;&gt;Node2 -->
<g id="edge2" class="edge">
<title>Node3&#45;&gt;Node2</title>
<path fill="none" stroke="midnightblue" d="M204.08,-39.5C212.31,-39.5 221.09,-39.5 229.81,-39.5"/>
<polygon fill="midnightblue" stroke="midnightblue" points="204.01,-36 194.01,-39.5 204.01,-43 204.01,-36"/>
</g>
<!-- Node4 -->
<g id="node4" class="node">
<title>Node4</title>
<g id="a_node4"><a xlink:href="classitk_1_1LightObject.html" target="_top" xlink:title="Light weight base class for most itk classes.">
<polygon fill="white" stroke="black" points="0,-30 0,-49 91,-49 91,-30 0,-30"/>
<text text-anchor="middle" x="45.5" y="-37" font-family="Helvetica,sans-Serif" font-size="10.00">itk::LightObject</text>
</a>
</g>
</g>
<!-- Node4&#45;&gt;Node3 -->
<g id="edge3" class="edge">
<title>Node4&#45;&gt;Node3</title>
<path fill="none" stroke="midnightblue" d="M101.28,-39.5C109.96,-39.5 118.69,-39.5 126.66,-39.5"/>
<polygon fill="midnightblue" stroke="midnightblue" points="101.16,-36 91.16,-39.5 101.16,-43 101.16,-36"/>
</g>
</g>
</svg>
