<?xml version="1.0" encoding="UTF-8" standalone="no"?>
<!DOCTYPE svg PUBLIC "-//W3C//DTD SVG 1.1//EN"
 "http://www.w3.org/Graphics/SVG/1.1/DTD/svg11.dtd">
<!-- Generated by graphviz version 2.43.0 (0)
 -->
<!-- Title: itk::ESMDemonsRegistrationFunction&lt; TFixedImage, TMovingImage, TDisplacementField &gt; Pages: 1 -->
<svg width="2017pt" height="303pt"
 viewBox="0.00 0.00 2017.00 302.50" xmlns="http://www.w3.org/2000/svg" xmlns:xlink="http://www.w3.org/1999/xlink">
<g id="graph0" class="graph" transform="scale(1 1) rotate(0) translate(4 298.5)">
<title>itk::ESMDemonsRegistrationFunction&lt; TFixedImage, TMovingImage, TDisplacementField &gt;</title>
<polygon fill="white" stroke="transparent" points="-4,4 -4,-298.5 2013,-298.5 2013,4 -4,4"/>
<!-- Node1 -->
<g id="node1" class="node">
<title>Node1</title>
<g id="a_node1"><a xlink:title="Fast implementation of the symmetric demons registration force.">
<polygon fill="#bfbfbf" stroke="black" points="1803,-77 1803,-118 2009,-118 2009,-77 1803,-77"/>
<text text-anchor="start" x="1811" y="-106" font-family="Helvetica,sans-Serif" font-size="10.00">itk::ESMDemonsRegistration</text>
<text text-anchor="start" x="1811" y="-95" font-family="Helvetica,sans-Serif" font-size="10.00">Function&lt; TFixedImage,</text>
<text text-anchor="middle" x="1906" y="-84" font-family="Helvetica,sans-Serif" font-size="10.00"> TMovingImage, TDisplacementField &gt;</text>
</a>
</g>
</g>
<!-- Node2 -->
<g id="node2" class="node">
<title>Node2</title>
<g id="a_node2"><a xlink:href="classitk_1_1PDEDeformableRegistrationFunction.html" target="_top" xlink:title=" ">
<polygon fill="white" stroke="black" points="1388,-160 1388,-201 1601,-201 1601,-160 1388,-160"/>
<text text-anchor="start" x="1396" y="-189" font-family="Helvetica,sans-Serif" font-size="10.00">itk::PDEDeformableRegistration</text>
<text text-anchor="start" x="1396" y="-178" font-family="Helvetica,sans-Serif" font-size="10.00">Function&lt; TFixedImage, TMovingImage,</text>
<text text-anchor="middle" x="1494.5" y="-167" font-family="Helvetica,sans-Serif" font-size="10.00"> TDisplacementField &gt;</text>
</a>
</g>
</g>
<!-- Node2&#45;&gt;Node1 -->
<g id="edge1" class="edge">
<title>Node2&#45;&gt;Node1</title>
<path fill="none" stroke="midnightblue" d="M1611.37,-167.98C1664.67,-161.03 1728.47,-151.01 1785,-137.5 1806.57,-132.34 1829.8,-125.03 1850.02,-118.06"/>
<polygon fill="midnightblue" stroke="midnightblue" points="1610.67,-164.55 1601.2,-169.29 1611.57,-171.49 1610.67,-164.55"/>
</g>
<!-- Node3 -->
<g id="node3" class="node">
<title>Node3</title>
<g id="a_node3"><a xlink:href="classitk_1_1FiniteDifferenceFunction.html" target="_top" xlink:title=" ">
<polygon fill="white" stroke="black" points="1197,-165.5 1197,-195.5 1351,-195.5 1351,-165.5 1197,-165.5"/>
<text text-anchor="start" x="1205" y="-183.5" font-family="Helvetica,sans-Serif" font-size="10.00">itk::FiniteDifferenceFunction</text>
<text text-anchor="middle" x="1274" y="-172.5" font-family="Helvetica,sans-Serif" font-size="10.00">&lt; TDisplacementField &gt;</text>
</a>
</g>
</g>
<!-- Node3&#45;&gt;Node2 -->
<g id="edge2" class="edge">
<title>Node3&#45;&gt;Node2</title>
<path fill="none" stroke="midnightblue" d="M1361.21,-180.5C1369.91,-180.5 1378.8,-180.5 1387.67,-180.5"/>
<polygon fill="midnightblue" stroke="midnightblue" points="1361.11,-177 1351.11,-180.5 1361.11,-184 1361.11,-177"/>
</g>
<!-- Node4 -->
<g id="node4" class="node">
<title>Node4</title>
<g id="a_node4"><a xlink:href="classitk_1_1LightObject.html" target="_top" xlink:title="Light weight base class for most itk classes.">
<polygon fill="white" stroke="black" points="980,-234 980,-253 1071,-253 1071,-234 980,-234"/>
<text text-anchor="middle" x="1025.5" y="-241" font-family="Helvetica,sans-Serif" font-size="10.00">itk::LightObject</text>
</a>
</g>
</g>
<!-- Node4&#45;&gt;Node3 -->
<g id="edge3" class="edge">
<title>Node4&#45;&gt;Node3</title>
<path fill="none" stroke="midnightblue" d="M1073.7,-231.44C1113.64,-221.23 1171.09,-206.55 1214.06,-195.57"/>
<polygon fill="midnightblue" stroke="midnightblue" points="1072.76,-228.06 1063.94,-233.93 1074.49,-234.85 1072.76,-228.06"/>
</g>
<!-- Node5 -->
<g id="node5" class="node">
<title>Node5</title>
<g id="a_node5"><a xlink:title=" ">
<polygon fill="white" stroke="#bfbfbf" points="611,-275 611,-294 718,-294 718,-275 611,-275"/>
<text text-anchor="middle" x="664.5" y="-282" font-family="Helvetica,sans-Serif" font-size="10.00">std::atomic&lt; int &gt;</text>
</a>
</g>
</g>
<!-- Node5&#45;&gt;Node4 -->
<g id="edge4" class="edge">
<title>Node5&#45;&gt;Node4</title>
<path fill="none" stroke="#9a32cd" stroke-dasharray="5,2" d="M728.39,-277.32C800.44,-269.09 916.71,-255.81 979.99,-248.58"/>
<polygon fill="#9a32cd" stroke="#9a32cd" points="727.62,-273.88 718.09,-278.49 728.42,-280.84 727.62,-273.88"/>
<text text-anchor="middle" x="849.5" y="-273.5" font-family="Helvetica,sans-Serif" font-size="10.00"> m_ReferenceCount</text>
</g>
<!-- Node6 -->
<g id="node6" class="node">
<title>Node6</title>
<g id="a_node6"><a xlink:href="classitk_1_1ConstNeighborhoodIterator.html" target="_top" xlink:title=" ">
<polygon fill="white" stroke="black" points="942,-143.5 942,-173.5 1109,-173.5 1109,-143.5 942,-143.5"/>
<text text-anchor="start" x="950" y="-161.5" font-family="Helvetica,sans-Serif" font-size="10.00">itk::ConstNeighborhoodIterator</text>
<text text-anchor="middle" x="1025.5" y="-150.5" font-family="Helvetica,sans-Serif" font-size="10.00">&lt; TDisplacementField &gt;</text>
</a>
</g>
</g>
<!-- Node6&#45;&gt;Node3 -->
<g id="edge5" class="edge">
<title>Node6&#45;&gt;Node3</title>
<path fill="none" stroke="#9a32cd" stroke-dasharray="5,2" d="M1119.32,-166.78C1144.84,-169.06 1172.21,-171.5 1196.69,-173.69"/>
<polygon fill="#9a32cd" stroke="#9a32cd" points="1119.54,-163.29 1109.27,-165.89 1118.92,-170.26 1119.54,-163.29"/>
<text text-anchor="middle" x="1153" y="-173.5" font-family="Helvetica,sans-Serif" font-size="10.00"> m_Radius</text>
</g>
<!-- Node7 -->
<g id="node7" class="node">
<title>Node7</title>
<g id="a_node7"><a xlink:href="classitk_1_1Neighborhood.html" target="_top" xlink:title=" ">
<polygon fill="white" stroke="black" points="600.5,-193 600.5,-256 728.5,-256 728.5,-193 600.5,-193"/>
<text text-anchor="start" x="608.5" y="-244" font-family="Helvetica,sans-Serif" font-size="10.00">itk::Neighborhood&lt;</text>
<text text-anchor="start" x="608.5" y="-233" font-family="Helvetica,sans-Serif" font-size="10.00"> TDisplacementField</text>
<text text-anchor="start" x="608.5" y="-222" font-family="Helvetica,sans-Serif" font-size="10.00"> ::InternalPixelType</text>
<text text-anchor="start" x="608.5" y="-211" font-family="Helvetica,sans-Serif" font-size="10.00"> *, TDisplacementField</text>
<text text-anchor="middle" x="664.5" y="-200" font-family="Helvetica,sans-Serif" font-size="10.00"> ::ImageDimension &gt;</text>
</a>
</g>
</g>
<!-- Node7&#45;&gt;Node6 -->
<g id="edge6" class="edge">
<title>Node7&#45;&gt;Node6</title>
<path fill="none" stroke="midnightblue" d="M738.89,-211.01C798.15,-200.11 881.49,-184.79 942.85,-173.51"/>
<polygon fill="midnightblue" stroke="midnightblue" points="738.06,-207.6 728.86,-212.85 739.32,-214.49 738.06,-207.6"/>
</g>
<!-- Node8 -->
<g id="node8" class="node">
<title>Node8</title>
<g id="a_node8"><a xlink:href="classitk_1_1NeighborhoodAllocator.html" target="_top" xlink:title=" ">
<polygon fill="white" stroke="black" points="275.5,-228 275.5,-269 446.5,-269 446.5,-228 275.5,-228"/>
<text text-anchor="start" x="283.5" y="-257" font-family="Helvetica,sans-Serif" font-size="10.00">itk::NeighborhoodAllocator</text>
<text text-anchor="start" x="283.5" y="-246" font-family="Helvetica,sans-Serif" font-size="10.00">&lt; TDisplacementField ::Internal</text>
<text text-anchor="middle" x="361" y="-235" font-family="Helvetica,sans-Serif" font-size="10.00">PixelType * &gt;</text>
</a>
</g>
</g>
<!-- Node8&#45;&gt;Node7 -->
<g id="edge7" class="edge">
<title>Node8&#45;&gt;Node7</title>
<path fill="none" stroke="#9a32cd" stroke-dasharray="5,2" d="M456.94,-240.94C503.72,-237.22 558.84,-232.83 600.38,-229.52"/>
<polygon fill="#9a32cd" stroke="#9a32cd" points="456.48,-237.47 446.79,-241.75 457.03,-244.45 456.48,-237.47"/>
<text text-anchor="middle" x="517.5" y="-241.5" font-family="Helvetica,sans-Serif" font-size="10.00"> m_DataBuffer</text>
</g>
<!-- Node9 -->
<g id="node9" class="node">
<title>Node9</title>
<g id="a_node9"><a xlink:title=" ">
<polygon fill="white" stroke="#bfbfbf" points="0,-233.5 0,-263.5 174,-263.5 174,-233.5 0,-233.5"/>
<text text-anchor="start" x="8" y="-251.5" font-family="Helvetica,sans-Serif" font-size="10.00">std::unique_ptr&lt; TDisplacement</text>
<text text-anchor="middle" x="87" y="-240.5" font-family="Helvetica,sans-Serif" font-size="10.00">Field ::InternalPixelType *[]&gt;</text>
</a>
</g>
</g>
<!-- Node9&#45;&gt;Node8 -->
<g id="edge8" class="edge">
<title>Node9&#45;&gt;Node8</title>
<path fill="none" stroke="#9a32cd" stroke-dasharray="5,2" d="M184.44,-248.5C214.14,-248.5 246.59,-248.5 275.43,-248.5"/>
<polygon fill="#9a32cd" stroke="#9a32cd" points="184.06,-245 174.06,-248.5 184.06,-252 184.06,-245"/>
<text text-anchor="middle" x="216.5" y="-251.5" font-family="Helvetica,sans-Serif" font-size="10.00"> m_Data</text>
</g>
<!-- Node10 -->
<g id="node10" class="node">
<title>Node10</title>
<g id="a_node10"><a xlink:title=" ">
<polygon fill="white" stroke="#bfbfbf" points="291.5,-190 291.5,-209 430.5,-209 430.5,-190 291.5,-190"/>
<text text-anchor="middle" x="361" y="-197" font-family="Helvetica,sans-Serif" font-size="10.00">std::vector&lt; itk::Offset &gt;</text>
</a>
</g>
</g>
<!-- Node10&#45;&gt;Node7 -->
<g id="edge9" class="edge">
<title>Node10&#45;&gt;Node7</title>
<path fill="none" stroke="#9a32cd" stroke-dasharray="5,2" d="M440.87,-206.04C490.62,-210.16 554,-215.42 600.4,-219.27"/>
<polygon fill="#9a32cd" stroke="#9a32cd" points="441.05,-202.54 430.79,-205.2 440.47,-209.52 441.05,-202.54"/>
<text text-anchor="middle" x="517.5" y="-217.5" font-family="Helvetica,sans-Serif" font-size="10.00"> m_OffsetTable</text>
</g>
<!-- Node11 -->
<g id="node11" class="node">
<title>Node11</title>
<g id="a_node11"><a xlink:href="structitk_1_1Offset.html" target="_top" xlink:title="Represent a n&#45;dimensional offset between two n&#45;dimensional indexes of n&#45;dimensional image.">
<polygon fill="white" stroke="black" points="14,-190 14,-209 160,-209 160,-190 14,-190"/>
<text text-anchor="middle" x="87" y="-197" font-family="Helvetica,sans-Serif" font-size="10.00">itk::Offset&lt; VDimension &gt;</text>
</a>
</g>
</g>
<!-- Node11&#45;&gt;Node10 -->
<g id="edge10" class="edge">
<title>Node11&#45;&gt;Node10</title>
<path fill="none" stroke="#9a32cd" stroke-dasharray="5,2" d="M170.36,-199.5C208.98,-199.5 254.49,-199.5 291.24,-199.5"/>
<polygon fill="#9a32cd" stroke="#9a32cd" points="170.18,-196 160.18,-199.5 170.18,-203 170.18,-196"/>
<text text-anchor="middle" x="216.5" y="-202.5" font-family="Helvetica,sans-Serif" font-size="10.00"> elements</text>
</g>
<!-- Node12 -->
<g id="node12" class="node">
<title>Node12</title>
<g id="a_node12"><a xlink:href="classitk_1_1ImageBoundaryCondition.html" target="_top" xlink:title=" ">
<polygon fill="white" stroke="black" points="572,-143.5 572,-173.5 757,-173.5 757,-143.5 572,-143.5"/>
<text text-anchor="start" x="580" y="-161.5" font-family="Helvetica,sans-Serif" font-size="10.00">itk::ImageBoundaryCondition</text>
<text text-anchor="middle" x="664.5" y="-150.5" font-family="Helvetica,sans-Serif" font-size="10.00">&lt; ImageType, OutputImageType &gt;</text>
</a>
</g>
</g>
<!-- Node12&#45;&gt;Node6 -->
<g id="edge11" class="edge">
<title>Node12&#45;&gt;Node6</title>
<path fill="none" stroke="#9a32cd" stroke-dasharray="5,2" d="M767.18,-158.5C822.39,-158.5 889.78,-158.5 941.74,-158.5"/>
<polygon fill="#9a32cd" stroke="#9a32cd" points="767.02,-155 757.02,-158.5 767.02,-162 767.02,-155"/>
<text text-anchor="middle" x="849.5" y="-161.5" font-family="Helvetica,sans-Serif" font-size="10.00"> m_BoundaryCondition</text>
</g>
<!-- Node13 -->
<g id="node13" class="node">
<title>Node13</title>
<g id="a_node13"><a xlink:href="classitk_1_1ZeroFluxNeumannBoundaryCondition.html" target="_top" xlink:title=" ">
<polygon fill="white" stroke="black" points="573.5,-94.5 573.5,-124.5 755.5,-124.5 755.5,-94.5 573.5,-94.5"/>
<text text-anchor="start" x="581.5" y="-112.5" font-family="Helvetica,sans-Serif" font-size="10.00">itk::ZeroFluxNeumannBoundary</text>
<text text-anchor="middle" x="664.5" y="-101.5" font-family="Helvetica,sans-Serif" font-size="10.00">Condition&lt; TDisplacementField &gt;</text>
</a>
</g>
</g>
<!-- Node13&#45;&gt;Node6 -->
<g id="edge12" class="edge">
<title>Node13&#45;&gt;Node6</title>
<path fill="none" stroke="#9a32cd" stroke-dasharray="5,2" d="M765.64,-122.26C813.59,-128.47 871.79,-136.17 924,-143.5 929.85,-144.32 935.89,-145.18 941.98,-146.07"/>
<polygon fill="#9a32cd" stroke="#9a32cd" points="765.94,-118.77 755.57,-120.96 765.04,-125.71 765.94,-118.77"/>
<text text-anchor="middle" x="849.5" y="-146.5" font-family="Helvetica,sans-Serif" font-size="10.00"> m_InternalBoundaryCondition</text>
</g>
<!-- Node14 -->
<g id="node14" class="node">
<title>Node14</title>
<g id="a_node14"><a xlink:href="classitk_1_1ImageBoundaryCondition.html" target="_top" xlink:title=" ">
<polygon fill="white" stroke="black" points="259,-89 259,-130 463,-130 463,-89 259,-89"/>
<text text-anchor="start" x="267" y="-118" font-family="Helvetica,sans-Serif" font-size="10.00">itk::ImageBoundaryCondition</text>
<text text-anchor="start" x="267" y="-107" font-family="Helvetica,sans-Serif" font-size="10.00">&lt; TDisplacementField, TDisplacement</text>
<text text-anchor="middle" x="361" y="-96" font-family="Helvetica,sans-Serif" font-size="10.00">Field &gt;</text>
</a>
</g>
</g>
<!-- Node14&#45;&gt;Node13 -->
<g id="edge13" class="edge">
<title>Node14&#45;&gt;Node13</title>
<path fill="none" stroke="midnightblue" d="M473.34,-109.5C506.22,-109.5 541.79,-109.5 573.17,-109.5"/>
<polygon fill="midnightblue" stroke="midnightblue" points="473.23,-106 463.23,-109.5 473.23,-113 473.23,-106"/>
</g>
<!-- Node15 -->
<g id="node15" class="node">
<title>Node15</title>
<g id="a_node15"><a xlink:href="structitk_1_1Index.html" target="_top" xlink:title=" ">
<polygon fill="white" stroke="black" points="584,-26 584,-45 745,-45 745,-26 584,-26"/>
<text text-anchor="middle" x="664.5" y="-33" font-family="Helvetica,sans-Serif" font-size="10.00">itk::Index&lt; Self::Dimension &gt;</text>
</a>
</g>
</g>
<!-- Node15&#45;&gt;Node6 -->
<g id="edge14" class="edge">
<title>Node15&#45;&gt;Node6</title>
<path fill="none" stroke="#9a32cd" stroke-dasharray="5,2" d="M755.4,-26.17C807.03,-24.54 871.78,-29.02 924,-53.5 966.27,-73.32 999.93,-119.33 1015.35,-143.32"/>
<polygon fill="#9a32cd" stroke="#9a32cd" points="755.11,-22.68 745.26,-26.58 755.39,-29.68 755.11,-22.68"/>
<text text-anchor="middle" x="849.5" y="-111.5" font-family="Helvetica,sans-Serif" font-size="10.00"> m_BeginIndex</text>
<text text-anchor="middle" x="849.5" y="-100.5" font-family="Helvetica,sans-Serif" font-size="10.00">m_InnerBoundsLow</text>
<text text-anchor="middle" x="849.5" y="-89.5" font-family="Helvetica,sans-Serif" font-size="10.00">m_Loop</text>
<text text-anchor="middle" x="849.5" y="-78.5" font-family="Helvetica,sans-Serif" font-size="10.00">m_InnerBoundsHigh</text>
<text text-anchor="middle" x="849.5" y="-67.5" font-family="Helvetica,sans-Serif" font-size="10.00">m_EndIndex</text>
<text text-anchor="middle" x="849.5" y="-56.5" font-family="Helvetica,sans-Serif" font-size="10.00">m_Bound</text>
</g>
<!-- Node16 -->
<g id="node16" class="node">
<title>Node16</title>
<g id="a_node16"><a xlink:title="STL class.">
<polygon fill="white" stroke="#bfbfbf" points="1460,-122 1460,-141 1529,-141 1529,-122 1460,-122"/>
<text text-anchor="middle" x="1494.5" y="-129" font-family="Helvetica,sans-Serif" font-size="10.00">std::mutex</text>
</a>
</g>
</g>
<!-- Node16&#45;&gt;Node1 -->
<g id="edge15" class="edge">
<title>Node16&#45;&gt;Node1</title>
<path fill="none" stroke="#9a32cd" stroke-dasharray="5,2" d="M1539.45,-128.49C1596.21,-124.52 1698.02,-117.15 1785,-109.5 1790.84,-108.99 1796.84,-108.44 1802.89,-107.88"/>
<polygon fill="#9a32cd" stroke="#9a32cd" points="1539.13,-125 1529.39,-129.19 1539.61,-131.98 1539.13,-125"/>
<text text-anchor="middle" x="1702" y="-125.5" font-family="Helvetica,sans-Serif" font-size="10.00"> m_MetricCalculationLock</text>
</g>
<!-- Node17 -->
<g id="node17" class="node">
<title>Node17</title>
<g id="a_node17"><a xlink:href="classitk_1_1SmartPointer.html" target="_top" xlink:title=" ">
<polygon fill="white" stroke="black" points="1441,-49.5 1441,-79.5 1548,-79.5 1548,-49.5 1441,-49.5"/>
<text text-anchor="start" x="1449" y="-67.5" font-family="Helvetica,sans-Serif" font-size="10.00">itk::SmartPointer&lt;</text>
<text text-anchor="middle" x="1494.5" y="-56.5" font-family="Helvetica,sans-Serif" font-size="10.00"> Self &gt;</text>
</a>
</g>
</g>
<!-- Node17&#45;&gt;Node1 -->
<g id="edge16" class="edge">
<title>Node17&#45;&gt;Node1</title>
<path fill="none" stroke="#9a32cd" stroke-dasharray="5,2" d="M1558.32,-60.09C1617.18,-57.06 1707.45,-55.2 1785,-65.5 1803.17,-67.91 1822.5,-72.25 1840.22,-76.97"/>
<polygon fill="#9a32cd" stroke="#9a32cd" points="1557.87,-56.61 1548.07,-60.65 1558.25,-63.6 1557.87,-56.61"/>
<text text-anchor="start" x="1619" y="-101.5" font-family="Helvetica,sans-Serif" font-size="10.00"> m_MappedMovingImageGradient</text>
<text text-anchor="middle" x="1702" y="-90.5" font-family="Helvetica,sans-Serif" font-size="10.00">Calculator</text>
<text text-anchor="middle" x="1702" y="-79.5" font-family="Helvetica,sans-Serif" font-size="10.00">m_MovingImageWarper</text>
<text text-anchor="middle" x="1702" y="-68.5" font-family="Helvetica,sans-Serif" font-size="10.00">m_FixedImageGradientCalculator</text>
</g>
<!-- Node18 -->
<g id="node18" class="node">
<title>Node18</title>
<g id="a_node18"><a xlink:href="classitk_1_1SmartPointer.html" target="_top" xlink:title="Implements transparent reference counting.">
<polygon fill="white" stroke="black" points="1441,-0.5 1441,-30.5 1548,-30.5 1548,-0.5 1441,-0.5"/>
<text text-anchor="start" x="1449" y="-18.5" font-family="Helvetica,sans-Serif" font-size="10.00">itk::SmartPointer&lt;</text>
<text text-anchor="middle" x="1494.5" y="-7.5" font-family="Helvetica,sans-Serif" font-size="10.00"> TObjectType &gt;</text>
</a>
</g>
</g>
<!-- Node18&#45;&gt;Node1 -->
<g id="edge17" class="edge">
<title>Node18&#45;&gt;Node1</title>
<path fill="none" stroke="#9a32cd" stroke-dasharray="5,2" d="M1558.54,-15.32C1617.92,-16.57 1708.87,-22.13 1785,-42.5 1814.33,-50.35 1845.45,-64.8 1868.64,-76.93"/>
<polygon fill="#9a32cd" stroke="#9a32cd" points="1558.26,-11.82 1548.2,-15.14 1558.14,-18.82 1558.26,-11.82"/>
<text text-anchor="middle" x="1702" y="-45.5" font-family="Helvetica,sans-Serif" font-size="10.00"> m_MovingImageInterpolator</text>
</g>
</g>
</svg>
