<?xml version="1.0" encoding="UTF-8" standalone="no"?>
<!DOCTYPE svg PUBLIC "-//W3C//DTD SVG 1.1//EN"
 "http://www.w3.org/Graphics/SVG/1.1/DTD/svg11.dtd">
<!-- Generated by graphviz version 2.43.0 (0)
 -->
<!-- Title: itk::QuadEdge Pages: 1 -->
<svg width="169pt" height="106pt"
 viewBox="0.00 0.00 169.00 106.00" xmlns="http://www.w3.org/2000/svg" xmlns:xlink="http://www.w3.org/1999/xlink">
<g id="graph0" class="graph" transform="scale(1 1) rotate(0) translate(4 102)">
<title>itk::QuadEdge</title>
<polygon fill="white" stroke="transparent" points="-4,4 -4,-102 165,-102 165,4 -4,4"/>
<!-- Node1 -->
<g id="node1" class="node">
<title>Node1</title>
<g id="a_node1"><a xlink:title="Base class for the implementation of a quad&#45;edge data structure as proposed in &quot;Guibas and Stolfi 198...">
<polygon fill="#bfbfbf" stroke="black" points="38,-78.5 38,-97.5 123,-97.5 123,-78.5 38,-78.5"/>
<text text-anchor="middle" x="80.5" y="-85.5" font-family="Helvetica,sans-Serif" font-size="10.00">itk::QuadEdge</text>
</a>
</g>
</g>
<!-- Node2 -->
<g id="node2" class="node">
<title>Node2</title>
<g id="a_node2"><a xlink:href="classitk_1_1GeometricalQuadEdge.html" target="_top" xlink:title="This class extends the QuadEdge by adding a reference to the Origin.">
<polygon fill="white" stroke="black" points="0,-0.5 0,-41.5 161,-41.5 161,-0.5 0,-0.5"/>
<text text-anchor="start" x="8" y="-29.5" font-family="Helvetica,sans-Serif" font-size="10.00">itk::GeometricalQuadEdge</text>
<text text-anchor="start" x="8" y="-18.5" font-family="Helvetica,sans-Serif" font-size="10.00">&lt; TVRef, TFRef, TPrimalData,</text>
<text text-anchor="middle" x="80.5" y="-7.5" font-family="Helvetica,sans-Serif" font-size="10.00"> TDualData, PrimalDual &gt;</text>
</a>
</g>
</g>
<!-- Node1&#45;&gt;Node2 -->
<g id="edge1" class="edge">
<title>Node1&#45;&gt;Node2</title>
<path fill="none" stroke="midnightblue" d="M80.5,-68.04C80.5,-59.71 80.5,-49.94 80.5,-41.54"/>
<polygon fill="midnightblue" stroke="midnightblue" points="77,-68.23 80.5,-78.23 84,-68.23 77,-68.23"/>
</g>
</g>
</svg>
