<?xml version="1.0" encoding="UTF-8" standalone="no"?>
<!DOCTYPE svg PUBLIC "-//W3C//DTD SVG 1.1//EN"
 "http://www.w3.org/Graphics/SVG/1.1/DTD/svg11.dtd">
<!-- Generated by graphviz version 2.43.0 (0)
 -->
<!-- Title: itk::ParametricSpaceToImageSpaceMeshFilter&lt; TInputMesh, TOutputMesh &gt; Pages: 1 -->
<svg width="176pt" height="352pt"
 viewBox="0.00 0.00 176.00 352.00" xmlns="http://www.w3.org/2000/svg" xmlns:xlink="http://www.w3.org/1999/xlink">
<g id="graph0" class="graph" transform="scale(1 1) rotate(0) translate(4 348)">
<title>itk::ParametricSpaceToImageSpaceMeshFilter&lt; TInputMesh, TOutputMesh &gt;</title>
<polygon fill="white" stroke="transparent" points="-4,4 -4,-348 172,-348 172,4 -4,4"/>
<!-- Node1 -->
<g id="node1" class="node">
<title>Node1</title>
<g id="a_node1"><a xlink:title="ParametricSpaceToImageSpaceMeshFilter takes an itk::Mesh on which the point Data is expected to conta...">
<polygon fill="#bfbfbf" stroke="black" points="0,-0.5 0,-41.5 168,-41.5 168,-0.5 0,-0.5"/>
<text text-anchor="start" x="8" y="-29.5" font-family="Helvetica,sans-Serif" font-size="10.00">itk::ParametricSpaceToImage</text>
<text text-anchor="start" x="8" y="-18.5" font-family="Helvetica,sans-Serif" font-size="10.00">SpaceMeshFilter&lt; TInputMesh,</text>
<text text-anchor="middle" x="84" y="-7.5" font-family="Helvetica,sans-Serif" font-size="10.00"> TOutputMesh &gt;</text>
</a>
</g>
</g>
<!-- Node2 -->
<g id="node2" class="node">
<title>Node2</title>
<g id="a_node2"><a xlink:href="classitk_1_1MeshToMeshFilter.html" target="_top" xlink:title="MeshToMeshFilter is the base class for all process objects that output mesh data, and require mesh da...">
<polygon fill="white" stroke="black" points="0.5,-78.5 0.5,-108.5 167.5,-108.5 167.5,-78.5 0.5,-78.5"/>
<text text-anchor="start" x="8.5" y="-96.5" font-family="Helvetica,sans-Serif" font-size="10.00">itk::MeshToMeshFilter</text>
<text text-anchor="middle" x="84" y="-85.5" font-family="Helvetica,sans-Serif" font-size="10.00">&lt; TInputMesh, TOutputMesh &gt;</text>
</a>
</g>
</g>
<!-- Node2&#45;&gt;Node1 -->
<g id="edge1" class="edge">
<title>Node2&#45;&gt;Node1</title>
<path fill="none" stroke="midnightblue" d="M84,-67.98C84,-59.35 84,-49.76 84,-41.59"/>
<polygon fill="midnightblue" stroke="midnightblue" points="80.5,-68.23 84,-78.23 87.5,-68.23 80.5,-68.23"/>
</g>
<!-- Node3 -->
<g id="node3" class="node">
<title>Node3</title>
<g id="a_node3"><a xlink:href="classitk_1_1MeshSource.html" target="_top" xlink:title="Base class for all process objects that output mesh data.">
<polygon fill="white" stroke="black" points="11.5,-145.5 11.5,-175.5 156.5,-175.5 156.5,-145.5 11.5,-145.5"/>
<text text-anchor="start" x="19.5" y="-163.5" font-family="Helvetica,sans-Serif" font-size="10.00">itk::MeshSource&lt; TOutput</text>
<text text-anchor="middle" x="84" y="-152.5" font-family="Helvetica,sans-Serif" font-size="10.00">Mesh &gt;</text>
</a>
</g>
</g>
<!-- Node3&#45;&gt;Node2 -->
<g id="edge2" class="edge">
<title>Node3&#45;&gt;Node2</title>
<path fill="none" stroke="midnightblue" d="M84,-135.11C84,-126.15 84,-116.32 84,-108.58"/>
<polygon fill="midnightblue" stroke="midnightblue" points="80.5,-135.4 84,-145.4 87.5,-135.4 80.5,-135.4"/>
</g>
<!-- Node4 -->
<g id="node4" class="node">
<title>Node4</title>
<g id="a_node4"><a xlink:href="classitk_1_1ProcessObject.html" target="_top" xlink:title="The base class for all process objects (source, filters, mappers) in the Insight data processing pipe...">
<polygon fill="white" stroke="black" points="32,-212.5 32,-231.5 136,-231.5 136,-212.5 32,-212.5"/>
<text text-anchor="middle" x="84" y="-219.5" font-family="Helvetica,sans-Serif" font-size="10.00">itk::ProcessObject</text>
</a>
</g>
</g>
<!-- Node4&#45;&gt;Node3 -->
<g id="edge3" class="edge">
<title>Node4&#45;&gt;Node3</title>
<path fill="none" stroke="midnightblue" d="M84,-202.23C84,-193.59 84,-183.5 84,-175.52"/>
<polygon fill="midnightblue" stroke="midnightblue" points="80.5,-202.48 84,-212.48 87.5,-202.48 80.5,-202.48"/>
</g>
<!-- Node5 -->
<g id="node5" class="node">
<title>Node5</title>
<g id="a_node5"><a xlink:href="classitk_1_1Object.html" target="_top" xlink:title="Base class for most ITK classes.">
<polygon fill="white" stroke="black" points="50.5,-268.5 50.5,-287.5 117.5,-287.5 117.5,-268.5 50.5,-268.5"/>
<text text-anchor="middle" x="84" y="-275.5" font-family="Helvetica,sans-Serif" font-size="10.00">itk::Object</text>
</a>
</g>
</g>
<!-- Node5&#45;&gt;Node4 -->
<g id="edge4" class="edge">
<title>Node5&#45;&gt;Node4</title>
<path fill="none" stroke="midnightblue" d="M84,-257.8C84,-248.91 84,-238.78 84,-231.75"/>
<polygon fill="midnightblue" stroke="midnightblue" points="80.5,-258.08 84,-268.08 87.5,-258.08 80.5,-258.08"/>
</g>
<!-- Node6 -->
<g id="node6" class="node">
<title>Node6</title>
<g id="a_node6"><a xlink:href="classitk_1_1LightObject.html" target="_top" xlink:title="Light weight base class for most itk classes.">
<polygon fill="white" stroke="black" points="38.5,-324.5 38.5,-343.5 129.5,-343.5 129.5,-324.5 38.5,-324.5"/>
<text text-anchor="middle" x="84" y="-331.5" font-family="Helvetica,sans-Serif" font-size="10.00">itk::LightObject</text>
</a>
</g>
</g>
<!-- Node6&#45;&gt;Node5 -->
<g id="edge5" class="edge">
<title>Node6&#45;&gt;Node5</title>
<path fill="none" stroke="midnightblue" d="M84,-313.8C84,-304.91 84,-294.78 84,-287.75"/>
<polygon fill="midnightblue" stroke="midnightblue" points="80.5,-314.08 84,-324.08 87.5,-314.08 80.5,-314.08"/>
</g>
</g>
</svg>
