<?xml version="1.0" encoding="UTF-8" standalone="no"?>
<!DOCTYPE svg PUBLIC "-//W3C//DTD SVG 1.1//EN"
 "http://www.w3.org/Graphics/SVG/1.1/DTD/svg11.dtd">
<!-- Generated by graphviz version 2.43.0 (0)
 -->
<!-- Title: itk::GPUCastImageFilter&lt; TInputImage, TOutputImage &gt; Pages: 1 -->
<svg width="1410pt" height="1057pt"
 viewBox="0.00 0.00 1410.00 1057.00" xmlns="http://www.w3.org/2000/svg" xmlns:xlink="http://www.w3.org/1999/xlink">
<g id="graph0" class="graph" transform="scale(1 1) rotate(0) translate(4 1053)">
<title>itk::GPUCastImageFilter&lt; TInputImage, TOutputImage &gt;</title>
<polygon fill="white" stroke="transparent" points="-4,4 -4,-1053 1406,-1053 1406,4 -4,4"/>
<!-- Node1 -->
<g id="node1" class="node">
<title>Node1</title>
<g id="a_node1"><a xlink:title="GPU version of CastImageFilter.">
<polygon fill="#bfbfbf" stroke="black" points="90.5,-0.5 90.5,-30.5 266.5,-30.5 266.5,-0.5 90.5,-0.5"/>
<text text-anchor="start" x="98.5" y="-18.5" font-family="Helvetica,sans-Serif" font-size="10.00">itk::GPUCastImageFilter</text>
<text text-anchor="middle" x="178.5" y="-7.5" font-family="Helvetica,sans-Serif" font-size="10.00">&lt; TInputImage, TOutputImage &gt;</text>
</a>
</g>
</g>
<!-- Node2 -->
<g id="node2" class="node">
<title>Node2</title>
<g id="a_node2"><a xlink:href="classitk_1_1GPUUnaryFunctorImageFilter.html" target="_top" xlink:title=" ">
<polygon fill="white" stroke="black" points="37.5,-68.5 37.5,-131.5 319.5,-131.5 319.5,-68.5 37.5,-68.5"/>
<text text-anchor="start" x="45.5" y="-119.5" font-family="Helvetica,sans-Serif" font-size="10.00">itk::GPUUnaryFunctorImage</text>
<text text-anchor="start" x="45.5" y="-108.5" font-family="Helvetica,sans-Serif" font-size="10.00">Filter&lt; TInputImage, TOutputImage,</text>
<text text-anchor="start" x="45.5" y="-97.5" font-family="Helvetica,sans-Serif" font-size="10.00"> Functor::GPUCast&lt; TInputImage</text>
<text text-anchor="start" x="45.5" y="-86.5" font-family="Helvetica,sans-Serif" font-size="10.00">::PixelType, TOutputImage::PixelType</text>
<text text-anchor="middle" x="178.5" y="-75.5" font-family="Helvetica,sans-Serif" font-size="10.00"> &gt;, CastImageFilter&lt; TInputImage, TOutputImage &gt; &gt;</text>
</a>
</g>
</g>
<!-- Node2&#45;&gt;Node1 -->
<g id="edge1" class="edge">
<title>Node2&#45;&gt;Node1</title>
<path fill="none" stroke="midnightblue" d="M178.5,-58.16C178.5,-48.35 178.5,-38.51 178.5,-30.86"/>
<polygon fill="midnightblue" stroke="midnightblue" points="175,-58.28 178.5,-68.28 182,-58.28 175,-58.28"/>
</g>
<!-- Node3 -->
<g id="node3" class="node">
<title>Node3</title>
<g id="a_node3"><a xlink:href="classitk_1_1GPUInPlaceImageFilter.html" target="_top" xlink:title=" ">
<polygon fill="white" stroke="black" points="2,-179.5 2,-231.5 175,-231.5 175,-179.5 2,-179.5"/>
<text text-anchor="start" x="10" y="-219.5" font-family="Helvetica,sans-Serif" font-size="10.00">itk::GPUInPlaceImageFilter</text>
<text text-anchor="start" x="10" y="-208.5" font-family="Helvetica,sans-Serif" font-size="10.00">&lt; TInputImage, TOutputImage,</text>
<text text-anchor="start" x="10" y="-197.5" font-family="Helvetica,sans-Serif" font-size="10.00"> CastImageFilter&lt; TInputImage,</text>
<text text-anchor="middle" x="88.5" y="-186.5" font-family="Helvetica,sans-Serif" font-size="10.00"> TOutputImage &gt; &gt;</text>
</a>
</g>
</g>
<!-- Node3&#45;&gt;Node2 -->
<g id="edge2" class="edge">
<title>Node3&#45;&gt;Node2</title>
<path fill="none" stroke="midnightblue" d="M116.99,-171.74C128.12,-158.94 140.81,-144.34 151.77,-131.74"/>
<polygon fill="midnightblue" stroke="midnightblue" points="114.21,-169.6 110.29,-179.45 119.49,-174.2 114.21,-169.6"/>
</g>
<!-- Node4 -->
<g id="node4" class="node">
<title>Node4</title>
<g id="a_node4"><a xlink:href="classitk_1_1GPUImageToImageFilter.html" target="_top" xlink:title=" ">
<polygon fill="white" stroke="black" points="0,-269.5 0,-321.5 173,-321.5 173,-269.5 0,-269.5"/>
<text text-anchor="start" x="8" y="-309.5" font-family="Helvetica,sans-Serif" font-size="10.00">itk::GPUImageToImageFilter</text>
<text text-anchor="start" x="8" y="-298.5" font-family="Helvetica,sans-Serif" font-size="10.00">&lt; TInputImage, TOutputImage,</text>
<text text-anchor="start" x="8" y="-287.5" font-family="Helvetica,sans-Serif" font-size="10.00"> CastImageFilter&lt; TInputImage,</text>
<text text-anchor="middle" x="86.5" y="-276.5" font-family="Helvetica,sans-Serif" font-size="10.00"> TOutputImage &gt; &gt;</text>
</a>
</g>
</g>
<!-- Node4&#45;&gt;Node3 -->
<g id="edge3" class="edge">
<title>Node4&#45;&gt;Node3</title>
<path fill="none" stroke="midnightblue" d="M87.31,-258.99C87.52,-249.81 87.74,-240.12 87.93,-231.59"/>
<polygon fill="midnightblue" stroke="midnightblue" points="83.81,-258.97 87.08,-269.05 90.8,-259.13 83.81,-258.97"/>
</g>
<!-- Node5 -->
<g id="node5" class="node">
<title>Node5</title>
<g id="a_node5"><a xlink:href="classitk_1_1CastImageFilter.html" target="_top" xlink:title="Casts input pixels to output pixel type.">
<polygon fill="white" stroke="black" points="165.5,-359.5 165.5,-389.5 341.5,-389.5 341.5,-359.5 165.5,-359.5"/>
<text text-anchor="start" x="173.5" y="-377.5" font-family="Helvetica,sans-Serif" font-size="10.00">itk::CastImageFilter</text>
<text text-anchor="middle" x="253.5" y="-366.5" font-family="Helvetica,sans-Serif" font-size="10.00">&lt; TInputImage, TOutputImage &gt;</text>
</a>
</g>
</g>
<!-- Node5&#45;&gt;Node4 -->
<g id="edge4" class="edge">
<title>Node5&#45;&gt;Node4</title>
<path fill="none" stroke="midnightblue" d="M213.6,-355.1C191.85,-345.07 164.6,-332.51 140.93,-321.59"/>
<polygon fill="midnightblue" stroke="midnightblue" points="212.32,-358.37 222.87,-359.38 215.25,-352.01 212.32,-358.37"/>
</g>
<!-- Node6 -->
<g id="node6" class="node">
<title>Node6</title>
<g id="a_node6"><a xlink:href="classitk_1_1InPlaceImageFilter.html" target="_top" xlink:title="Base class for filters that take an image as input and overwrite that image as the output.">
<polygon fill="white" stroke="black" points="228.5,-427.5 228.5,-457.5 404.5,-457.5 404.5,-427.5 228.5,-427.5"/>
<text text-anchor="start" x="236.5" y="-445.5" font-family="Helvetica,sans-Serif" font-size="10.00">itk::InPlaceImageFilter</text>
<text text-anchor="middle" x="316.5" y="-434.5" font-family="Helvetica,sans-Serif" font-size="10.00">&lt; TInputImage, TOutputImage &gt;</text>
</a>
</g>
</g>
<!-- Node6&#45;&gt;Node5 -->
<g id="edge5" class="edge">
<title>Node6&#45;&gt;Node5</title>
<path fill="none" stroke="midnightblue" d="M295.69,-419.69C286.3,-409.86 275.48,-398.52 267.14,-389.79"/>
<polygon fill="midnightblue" stroke="midnightblue" points="293.39,-422.36 302.83,-427.18 298.46,-417.53 293.39,-422.36"/>
</g>
<!-- Node7 -->
<g id="node7" class="node">
<title>Node7</title>
<g id="a_node7"><a xlink:href="classitk_1_1ImageToImageFilter.html" target="_top" xlink:title=" ">
<polygon fill="white" stroke="black" points="609.5,-495.5 609.5,-525.5 777.5,-525.5 777.5,-495.5 609.5,-495.5"/>
<text text-anchor="start" x="617.5" y="-513.5" font-family="Helvetica,sans-Serif" font-size="10.00">itk::ImageToImageFilter</text>
<text text-anchor="middle" x="693.5" y="-502.5" font-family="Helvetica,sans-Serif" font-size="10.00">&lt; TInputImage, TInputImage &gt;</text>
</a>
</g>
</g>
<!-- Node7&#45;&gt;Node6 -->
<g id="edge6" class="edge">
<title>Node7&#45;&gt;Node6</title>
<path fill="none" stroke="midnightblue" d="M603.18,-493.69C540.34,-482.69 457.31,-468.15 396.79,-457.56"/>
<polygon fill="midnightblue" stroke="midnightblue" points="602.63,-497.15 613.09,-495.42 603.84,-490.25 602.63,-497.15"/>
</g>
<!-- Node8 -->
<g id="node8" class="node">
<title>Node8</title>
<g id="a_node8"><a xlink:href="classitk_1_1ImageSource.html" target="_top" xlink:title=" ">
<polygon fill="white" stroke="black" points="623,-573.5 623,-603.5 764,-603.5 764,-573.5 623,-573.5"/>
<text text-anchor="start" x="631" y="-591.5" font-family="Helvetica,sans-Serif" font-size="10.00">itk::ImageSource&lt; TInput</text>
<text text-anchor="middle" x="693.5" y="-580.5" font-family="Helvetica,sans-Serif" font-size="10.00">Image &gt;</text>
</a>
</g>
</g>
<!-- Node8&#45;&gt;Node7 -->
<g id="edge7" class="edge">
<title>Node8&#45;&gt;Node7</title>
<path fill="none" stroke="midnightblue" d="M693.5,-563.09C693.5,-550.76 693.5,-536.22 693.5,-525.73"/>
<polygon fill="midnightblue" stroke="midnightblue" points="690,-563.2 693.5,-573.2 697,-563.21 690,-563.2"/>
</g>
<!-- Node9 -->
<g id="node9" class="node">
<title>Node9</title>
<g id="a_node9"><a xlink:href="classitk_1_1ProcessObject.html" target="_top" xlink:title="The base class for all process objects (source, filters, mappers) in the Insight data processing pipe...">
<polygon fill="white" stroke="black" points="641.5,-641.5 641.5,-660.5 745.5,-660.5 745.5,-641.5 641.5,-641.5"/>
<text text-anchor="middle" x="693.5" y="-648.5" font-family="Helvetica,sans-Serif" font-size="10.00">itk::ProcessObject</text>
</a>
</g>
</g>
<!-- Node9&#45;&gt;Node8 -->
<g id="edge8" class="edge">
<title>Node9&#45;&gt;Node8</title>
<path fill="none" stroke="midnightblue" d="M693.5,-631.22C693.5,-622.36 693.5,-611.96 693.5,-603.76"/>
<polygon fill="midnightblue" stroke="midnightblue" points="690,-631.33 693.5,-641.33 697,-631.33 690,-631.33"/>
</g>
<!-- Node10 -->
<g id="node10" class="node">
<title>Node10</title>
<g id="a_node10"><a xlink:href="classitk_1_1Object.html" target="_top" xlink:title="Base class for most ITK classes.">
<polygon fill="white" stroke="black" points="657,-725 657,-744 724,-744 724,-725 657,-725"/>
<text text-anchor="middle" x="690.5" y="-732" font-family="Helvetica,sans-Serif" font-size="10.00">itk::Object</text>
</a>
</g>
</g>
<!-- Node10&#45;&gt;Node9 -->
<g id="edge9" class="edge">
<title>Node10&#45;&gt;Node9</title>
<path fill="none" stroke="midnightblue" d="M691.2,-714.38C691.83,-697.4 692.71,-673.37 693.18,-660.66"/>
<polygon fill="midnightblue" stroke="midnightblue" points="687.69,-714.66 690.82,-724.78 694.69,-714.91 687.69,-714.66"/>
</g>
<!-- Node11 -->
<g id="node11" class="node">
<title>Node11</title>
<g id="a_node11"><a xlink:href="classitk_1_1LightObject.html" target="_top" xlink:title="Light weight base class for most itk classes.">
<polygon fill="white" stroke="black" points="788,-803 788,-822 879,-822 879,-803 788,-803"/>
<text text-anchor="middle" x="833.5" y="-810" font-family="Helvetica,sans-Serif" font-size="10.00">itk::LightObject</text>
</a>
</g>
</g>
<!-- Node11&#45;&gt;Node10 -->
<g id="edge10" class="edge">
<title>Node11&#45;&gt;Node10</title>
<path fill="none" stroke="midnightblue" d="M808.2,-798.05C778.91,-782.49 731.56,-757.32 706.79,-744.16"/>
<polygon fill="midnightblue" stroke="midnightblue" points="806.9,-801.33 817.37,-802.93 810.19,-795.15 806.9,-801.33"/>
</g>
<!-- Node12 -->
<g id="node12" class="node">
<title>Node12</title>
<g id="a_node12"><a xlink:title=" ">
<polygon fill="white" stroke="#bfbfbf" points="794,-881 794,-900 901,-900 901,-881 794,-881"/>
<text text-anchor="middle" x="847.5" y="-888" font-family="Helvetica,sans-Serif" font-size="10.00">std::atomic&lt; int &gt;</text>
</a>
</g>
</g>
<!-- Node12&#45;&gt;Node11 -->
<g id="edge11" class="edge">
<title>Node12&#45;&gt;Node11</title>
<path fill="none" stroke="#9a32cd" stroke-dasharray="5,2" d="M844.04,-870.72C841.18,-855.2 837.25,-833.86 835.09,-822.12"/>
<polygon fill="#9a32cd" stroke="#9a32cd" points="840.64,-871.58 845.89,-880.78 847.52,-870.31 840.64,-871.58"/>
<text text-anchor="middle" x="889" y="-849" font-family="Helvetica,sans-Serif" font-size="10.00"> m_ReferenceCount</text>
</g>
<!-- Node13 -->
<g id="node13" class="node">
<title>Node13</title>
<g id="a_node13"><a xlink:title="STL class.">
<polygon fill="white" stroke="#bfbfbf" points="346,-803 346,-822 411,-822 411,-803 346,-803"/>
<text text-anchor="middle" x="378.5" y="-810" font-family="Helvetica,sans-Serif" font-size="10.00">std::string</text>
</a>
</g>
</g>
<!-- Node13&#45;&gt;Node10 -->
<g id="edge12" class="edge">
<title>Node13&#45;&gt;Node10</title>
<path fill="none" stroke="#9a32cd" stroke-dasharray="5,2" d="M403.18,-798.24C422.97,-788.23 451.76,-775.06 478.5,-768 551.53,-748.71 573.71,-766.16 647.5,-750 654.27,-748.52 661.47,-746.34 668,-744.12"/>
<polygon fill="#9a32cd" stroke="#9a32cd" points="401.52,-795.16 394.24,-802.85 404.73,-801.38 401.52,-795.16"/>
<text text-anchor="middle" x="518" y="-771" font-family="Helvetica,sans-Serif" font-size="10.00"> m_ObjectName</text>
</g>
<!-- Node22 -->
<g id="node22" class="node">
<title>Node22</title>
<g id="a_node22"><a xlink:title=" ">
<polygon fill="white" stroke="#bfbfbf" points="476.5,-719.5 476.5,-749.5 638.5,-749.5 638.5,-719.5 476.5,-719.5"/>
<text text-anchor="start" x="484.5" y="-737.5" font-family="Helvetica,sans-Serif" font-size="10.00">std::set&lt; DataObjectIdentifier</text>
<text text-anchor="middle" x="557.5" y="-726.5" font-family="Helvetica,sans-Serif" font-size="10.00">Type &gt;</text>
</a>
</g>
</g>
<!-- Node13&#45;&gt;Node22 -->
<g id="edge23" class="edge">
<title>Node13&#45;&gt;Node22</title>
<path fill="none" stroke="#9a32cd" stroke-dasharray="5,2" d="M384.94,-793.08C388.95,-784.21 394.99,-774.18 403.5,-768 410.02,-763.26 443.25,-755.98 477.18,-749.52"/>
<polygon fill="#9a32cd" stroke="#9a32cd" points="381.57,-792.08 381.14,-802.66 388.08,-794.66 381.57,-792.08"/>
<text text-anchor="middle" x="416.5" y="-771" font-family="Helvetica,sans-Serif" font-size="10.00"> keys</text>
</g>
<!-- Node23 -->
<g id="node23" class="node">
<title>Node23</title>
<g id="a_node23"><a xlink:title=" ">
<polygon fill="white" stroke="#bfbfbf" points="289,-719.5 289,-749.5 458,-749.5 458,-719.5 289,-719.5"/>
<text text-anchor="start" x="297" y="-737.5" font-family="Helvetica,sans-Serif" font-size="10.00">std::map&lt; DataObjectIdentifier</text>
<text text-anchor="middle" x="373.5" y="-726.5" font-family="Helvetica,sans-Serif" font-size="10.00">Type, bool &gt;</text>
</a>
</g>
</g>
<!-- Node13&#45;&gt;Node23 -->
<g id="edge25" class="edge">
<title>Node13&#45;&gt;Node23</title>
<path fill="none" stroke="#9a32cd" stroke-dasharray="5,2" d="M363.18,-794.95C359.64,-790.15 356.36,-784.66 354.5,-779 351.2,-768.98 355.95,-758.11 361.53,-749.74"/>
<polygon fill="#9a32cd" stroke="#9a32cd" points="360.53,-797.25 369.59,-802.74 365.94,-792.8 360.53,-797.25"/>
<text text-anchor="middle" x="367.5" y="-771" font-family="Helvetica,sans-Serif" font-size="10.00"> keys</text>
</g>
<!-- Node28 -->
<g id="node28" class="node">
<title>Node28</title>
<g id="a_node28"><a xlink:title=" ">
<polygon fill="white" stroke="#bfbfbf" points="102,-719.5 102,-749.5 271,-749.5 271,-719.5 102,-719.5"/>
<text text-anchor="start" x="110" y="-737.5" font-family="Helvetica,sans-Serif" font-size="10.00">std::map&lt; DataObjectIdentifier</text>
<text text-anchor="middle" x="186.5" y="-726.5" font-family="Helvetica,sans-Serif" font-size="10.00">Type, DataObjectPointer &gt;</text>
</a>
</g>
</g>
<!-- Node13&#45;&gt;Node28 -->
<g id="edge32" class="edge">
<title>Node13&#45;&gt;Node28</title>
<path fill="none" stroke="#9a32cd" stroke-dasharray="5,2" d="M347.34,-799.16C313.05,-785.59 258.03,-763.81 222.07,-749.58"/>
<polygon fill="#9a32cd" stroke="#9a32cd" points="346.26,-802.5 356.85,-802.93 348.84,-795.99 346.26,-802.5"/>
<text text-anchor="middle" x="306.5" y="-771" font-family="Helvetica,sans-Serif" font-size="10.00"> keys</text>
</g>
<!-- Node14 -->
<g id="node14" class="node">
<title>Node14</title>
<g id="a_node14"><a xlink:title="STL class.">
<polygon fill="white" stroke="#bfbfbf" points="326.5,-875.5 326.5,-905.5 430.5,-905.5 430.5,-875.5 326.5,-875.5"/>
<text text-anchor="start" x="334.5" y="-893.5" font-family="Helvetica,sans-Serif" font-size="10.00">std::basic_string&lt;</text>
<text text-anchor="middle" x="378.5" y="-882.5" font-family="Helvetica,sans-Serif" font-size="10.00"> char &gt;</text>
</a>
</g>
</g>
<!-- Node14&#45;&gt;Node13 -->
<g id="edge13" class="edge">
<title>Node14&#45;&gt;Node13</title>
<path fill="none" stroke="midnightblue" d="M378.5,-865.17C378.5,-850.4 378.5,-832.45 378.5,-822.06"/>
<polygon fill="midnightblue" stroke="midnightblue" points="375,-865.2 378.5,-875.2 382,-865.21 375,-865.2"/>
</g>
<!-- Node15 -->
<g id="node15" class="node">
<title>Node15</title>
<g id="a_node15"><a xlink:href="classitk_1_1MetaDataDictionary.html" target="_top" xlink:title="Provides a mechanism for storing a collection of arbitrary data types.">
<polygon fill="white" stroke="black" points="486.5,-803 486.5,-822 620.5,-822 620.5,-803 486.5,-803"/>
<text text-anchor="middle" x="553.5" y="-810" font-family="Helvetica,sans-Serif" font-size="10.00">itk::MetaDataDictionary</text>
</a>
</g>
</g>
<!-- Node15&#45;&gt;Node10 -->
<g id="edge14" class="edge">
<title>Node15&#45;&gt;Node10</title>
<path fill="none" stroke="#9a32cd" stroke-dasharray="5,2" d="M556.6,-792.98C558.99,-784.23 563.18,-774.34 570.5,-768 597.06,-744.99 613.7,-759.63 647.5,-750 653.71,-748.23 660.36,-746.11 666.52,-744.04"/>
<polygon fill="#9a32cd" stroke="#9a32cd" points="553.18,-792.26 554.5,-802.78 560.02,-793.74 553.18,-792.26"/>
<text text-anchor="middle" x="629" y="-771" font-family="Helvetica,sans-Serif" font-size="10.00"> m_MetaDataDictionary</text>
</g>
<!-- Node16 -->
<g id="node16" class="node">
<title>Node16</title>
<g id="a_node16"><a xlink:title=" ">
<polygon fill="white" stroke="#bfbfbf" points="479,-875.5 479,-905.5 628,-905.5 628,-875.5 479,-875.5"/>
<text text-anchor="start" x="487" y="-893.5" font-family="Helvetica,sans-Serif" font-size="10.00">std::shared_ptr&lt; MetaData</text>
<text text-anchor="middle" x="553.5" y="-882.5" font-family="Helvetica,sans-Serif" font-size="10.00">DictionaryMapType &gt;</text>
</a>
</g>
</g>
<!-- Node16&#45;&gt;Node15 -->
<g id="edge15" class="edge">
<title>Node16&#45;&gt;Node15</title>
<path fill="none" stroke="#9a32cd" stroke-dasharray="5,2" d="M553.5,-865.17C553.5,-850.4 553.5,-832.45 553.5,-822.06"/>
<polygon fill="#9a32cd" stroke="#9a32cd" points="550,-865.2 553.5,-875.2 557,-865.21 550,-865.2"/>
<text text-anchor="middle" x="588" y="-849" font-family="Helvetica,sans-Serif" font-size="10.00"> m_Dictionary</text>
</g>
<!-- Node17 -->
<g id="node17" class="node">
<title>Node17</title>
<g id="a_node17"><a xlink:title="STL class.">
<polygon fill="white" stroke="#bfbfbf" points="503,-962.5 503,-981.5 604,-981.5 604,-962.5 503,-962.5"/>
<text text-anchor="middle" x="553.5" y="-969.5" font-family="Helvetica,sans-Serif" font-size="10.00">std::map&lt; K, T &gt;</text>
</a>
</g>
</g>
<!-- Node17&#45;&gt;Node16 -->
<g id="edge16" class="edge">
<title>Node17&#45;&gt;Node16</title>
<path fill="none" stroke="#9a32cd" stroke-dasharray="5,2" d="M553.5,-952.33C553.5,-938.01 553.5,-918.56 553.5,-905.54"/>
<polygon fill="#9a32cd" stroke="#9a32cd" points="550,-952.49 553.5,-962.49 557,-952.49 550,-952.49"/>
<text text-anchor="middle" x="562" y="-931.5" font-family="Helvetica,sans-Serif" font-size="10.00"> ptr</text>
</g>
<!-- Node18 -->
<g id="node18" class="node">
<title>Node18</title>
<g id="a_node18"><a xlink:title=" ">
<polygon fill="white" stroke="#bfbfbf" points="534,-1029.5 534,-1048.5 563,-1048.5 563,-1029.5 534,-1029.5"/>
<text text-anchor="middle" x="548.5" y="-1036.5" font-family="Helvetica,sans-Serif" font-size="10.00">K</text>
</a>
</g>
</g>
<!-- Node18&#45;&gt;Node17 -->
<g id="edge17" class="edge">
<title>Node18&#45;&gt;Node17</title>
<path fill="none" stroke="#9a32cd" stroke-dasharray="5,2" d="M548.54,-1019.23C548.68,-1013.09 548.96,-1006.25 549.5,-1000 550.03,-993.96 551.03,-987.21 551.89,-981.97"/>
<polygon fill="#9a32cd" stroke="#9a32cd" points="545.05,-1019.19 548.43,-1029.23 552.04,-1019.27 545.05,-1019.19"/>
<text text-anchor="middle" x="562.5" y="-1003" font-family="Helvetica,sans-Serif" font-size="10.00"> keys</text>
</g>
<!-- Node19 -->
<g id="node19" class="node">
<title>Node19</title>
<g id="a_node19"><a xlink:title=" ">
<polygon fill="white" stroke="#bfbfbf" points="619,-1029.5 619,-1048.5 648,-1048.5 648,-1029.5 619,-1029.5"/>
<text text-anchor="middle" x="633.5" y="-1036.5" font-family="Helvetica,sans-Serif" font-size="10.00">T</text>
</a>
</g>
</g>
<!-- Node19&#45;&gt;Node17 -->
<g id="edge18" class="edge">
<title>Node19&#45;&gt;Node17</title>
<path fill="none" stroke="#9a32cd" stroke-dasharray="5,2" d="M613.99,-1023.2C608.91,-1019.27 603.47,-1015.01 598.5,-1011 586.25,-1001.11 572.45,-989.37 563.4,-981.58"/>
<polygon fill="#9a32cd" stroke="#9a32cd" points="611.99,-1026.07 622.05,-1029.37 616.24,-1020.51 611.99,-1026.07"/>
<text text-anchor="middle" x="623" y="-1003" font-family="Helvetica,sans-Serif" font-size="10.00"> elements</text>
</g>
<!-- Node21 -->
<g id="node21" class="node">
<title>Node21</title>
<g id="a_node21"><a xlink:title="STL class.">
<polygon fill="white" stroke="#bfbfbf" points="619.5,-924.5 619.5,-943.5 719.5,-943.5 719.5,-924.5 619.5,-924.5"/>
<text text-anchor="middle" x="669.5" y="-931.5" font-family="Helvetica,sans-Serif" font-size="10.00">std::atomic&lt; T &gt;</text>
</a>
</g>
</g>
<!-- Node19&#45;&gt;Node21 -->
<g id="edge21" class="edge">
<title>Node19&#45;&gt;Node21</title>
<path fill="none" stroke="#9a32cd" stroke-dasharray="5,2" d="M643.34,-1020.22C644.84,-1017.19 646.29,-1014.04 647.5,-1011 656.98,-987.27 664.3,-957.9 667.59,-943.62"/>
<polygon fill="#9a32cd" stroke="#9a32cd" points="640.17,-1018.73 638.62,-1029.21 646.37,-1021.98 640.17,-1018.73"/>
<text text-anchor="middle" x="659" y="-1003" font-family="Helvetica,sans-Serif" font-size="10.00"> ptr</text>
</g>
<!-- Node20 -->
<g id="node20" class="node">
<title>Node20</title>
<g id="a_node20"><a xlink:href="classitk_1_1TimeStamp.html" target="_top" xlink:title="Generate a unique, increasing time value.">
<polygon fill="white" stroke="black" points="647.5,-803 647.5,-822 739.5,-822 739.5,-803 647.5,-803"/>
<text text-anchor="middle" x="693.5" y="-810" font-family="Helvetica,sans-Serif" font-size="10.00">itk::TimeStamp</text>
</a>
</g>
</g>
<!-- Node20&#45;&gt;Node9 -->
<g id="edge34" class="edge">
<title>Node20&#45;&gt;Node9</title>
<path fill="none" stroke="#9a32cd" stroke-dasharray="5,2" d="M726.85,-798.09C734.67,-793.28 742.02,-787.01 746.5,-779 748.89,-774.73 747.13,-772.85 746.5,-768 743.59,-745.66 742.25,-739.76 733.5,-719 724.14,-696.78 708.46,-673.07 699.77,-660.68"/>
<polygon fill="#9a32cd" stroke="#9a32cd" points="725.08,-795.07 717.95,-802.91 728.41,-801.22 725.08,-795.07"/>
<text text-anchor="middle" x="814.5" y="-732" font-family="Helvetica,sans-Serif" font-size="10.00"> m_OutputInformationMTime</text>
</g>
<!-- Node20&#45;&gt;Node10 -->
<g id="edge19" class="edge">
<title>Node20&#45;&gt;Node10</title>
<path fill="none" stroke="#9a32cd" stroke-dasharray="5,2" d="M692.76,-792.72C692.15,-777.2 691.3,-755.86 690.84,-744.12"/>
<polygon fill="#9a32cd" stroke="#9a32cd" points="689.26,-792.93 693.16,-802.78 696.26,-792.65 689.26,-792.93"/>
<text text-anchor="middle" x="717.5" y="-771" font-family="Helvetica,sans-Serif" font-size="10.00"> m_MTime</text>
</g>
<!-- Node21&#45;&gt;Node20 -->
<g id="edge20" class="edge">
<title>Node21&#45;&gt;Node20</title>
<path fill="none" stroke="#9a32cd" stroke-dasharray="5,2" d="M672.47,-914.28C674.34,-902.89 676.89,-888.08 679.5,-875 683.28,-856.1 688.48,-834.12 691.36,-822.23"/>
<polygon fill="#9a32cd" stroke="#9a32cd" points="668.99,-913.9 670.85,-924.33 675.9,-915.01 668.99,-913.9"/>
<text text-anchor="middle" x="732.5" y="-888" font-family="Helvetica,sans-Serif" font-size="10.00"> m_GlobalTimeStamp</text>
</g>
<!-- Node22&#45;&gt;Node9 -->
<g id="edge22" class="edge">
<title>Node22&#45;&gt;Node9</title>
<path fill="none" stroke="#9a32cd" stroke-dasharray="5,2" d="M555.78,-708.77C556.39,-698.33 559.03,-686.82 566.5,-679 576.89,-668.12 610.98,-661.24 641.23,-657.16"/>
<polygon fill="#9a32cd" stroke="#9a32cd" points="552.28,-709.04 555.76,-719.04 559.28,-709.05 552.28,-709.04"/>
<text text-anchor="middle" x="627" y="-687.5" font-family="Helvetica,sans-Serif" font-size="10.00"> m_RequiredInputNames</text>
</g>
<!-- Node23&#45;&gt;Node9 -->
<g id="edge24" class="edge">
<title>Node23&#45;&gt;Node9</title>
<path fill="none" stroke="#9a32cd" stroke-dasharray="5,2" d="M383.45,-710.14C389.55,-698.8 398.51,-686.1 410.5,-679 448.29,-656.61 570.35,-652.31 641.22,-651.76"/>
<polygon fill="#9a32cd" stroke="#9a32cd" points="380.27,-708.69 379,-719.21 386.55,-711.78 380.27,-708.69"/>
<text text-anchor="start" x="410.5" y="-693" font-family="Helvetica,sans-Serif" font-size="10.00"> m_CachedInputReleaseData</text>
<text text-anchor="middle" x="481.5" y="-682" font-family="Helvetica,sans-Serif" font-size="10.00">Flags</text>
</g>
<!-- Node24 -->
<g id="node24" class="node">
<title>Node24</title>
<g id="a_node24"><a xlink:title=" ">
<polygon fill="white" stroke="#bfbfbf" points="1080.5,-725 1080.5,-744 1214.5,-744 1214.5,-725 1080.5,-725"/>
<text text-anchor="middle" x="1147.5" y="-732" font-family="Helvetica,sans-Serif" font-size="10.00">std::atomic&lt; uint32_t &gt;</text>
</a>
</g>
</g>
<!-- Node24&#45;&gt;Node9 -->
<g id="edge26" class="edge">
<title>Node24&#45;&gt;Node9</title>
<path fill="none" stroke="#9a32cd" stroke-dasharray="5,2" d="M1113.7,-721.54C1076.43,-708.86 1014.46,-689.29 959.5,-679 870.04,-662.25 845.91,-671.54 755.5,-661 752.26,-660.62 748.93,-660.21 745.57,-659.77"/>
<polygon fill="#9a32cd" stroke="#9a32cd" points="1112.93,-724.98 1123.53,-724.92 1115.21,-718.36 1112.93,-724.98"/>
<text text-anchor="middle" x="1078" y="-687.5" font-family="Helvetica,sans-Serif" font-size="10.00"> m_Progress</text>
</g>
<!-- Node25 -->
<g id="node25" class="node">
<title>Node25</title>
<g id="a_node25"><a xlink:title=" ">
<polygon fill="white" stroke="#bfbfbf" points="1119.5,-803 1119.5,-822 1175.5,-822 1175.5,-803 1119.5,-803"/>
<text text-anchor="middle" x="1147.5" y="-810" font-family="Helvetica,sans-Serif" font-size="10.00">uint32_t</text>
</a>
</g>
</g>
<!-- Node25&#45;&gt;Node24 -->
<g id="edge27" class="edge">
<title>Node25&#45;&gt;Node24</title>
<path fill="none" stroke="#9a32cd" stroke-dasharray="5,2" d="M1147.5,-792.72C1147.5,-777.2 1147.5,-755.86 1147.5,-744.12"/>
<polygon fill="#9a32cd" stroke="#9a32cd" points="1144,-792.78 1147.5,-802.78 1151,-792.78 1144,-792.78"/>
<text text-anchor="middle" x="1156" y="-771" font-family="Helvetica,sans-Serif" font-size="10.00"> ptr</text>
</g>
<!-- Node26 -->
<g id="node26" class="node">
<title>Node26</title>
<g id="a_node26"><a xlink:title=" ">
<polygon fill="white" stroke="#bfbfbf" points="1233,-719.5 1233,-749.5 1402,-749.5 1402,-719.5 1233,-719.5"/>
<text text-anchor="start" x="1241" y="-737.5" font-family="Helvetica,sans-Serif" font-size="10.00">std::vector&lt; DataObjectPointer</text>
<text text-anchor="middle" x="1317.5" y="-726.5" font-family="Helvetica,sans-Serif" font-size="10.00">Map::iterator &gt;</text>
</a>
</g>
</g>
<!-- Node26&#45;&gt;Node9 -->
<g id="edge28" class="edge">
<title>Node26&#45;&gt;Node9</title>
<path fill="none" stroke="#9a32cd" stroke-dasharray="5,2" d="M1265.48,-716.43C1224.43,-703.75 1165.44,-687.28 1112.5,-679 955.54,-654.46 913.62,-676.43 755.5,-661 752.25,-660.68 748.91,-660.32 745.55,-659.92"/>
<polygon fill="#9a32cd" stroke="#9a32cd" points="1264.67,-719.84 1275.26,-719.48 1266.76,-713.16 1264.67,-719.84"/>
<text text-anchor="middle" x="1256" y="-693" font-family="Helvetica,sans-Serif" font-size="10.00"> m_IndexedOutputs</text>
<text text-anchor="middle" x="1256" y="-682" font-family="Helvetica,sans-Serif" font-size="10.00">m_IndexedInputs</text>
</g>
<!-- Node27 -->
<g id="node27" class="node">
<title>Node27</title>
<g id="a_node27"><a xlink:title="STL iterator class.">
<polygon fill="white" stroke="#bfbfbf" points="1246,-803 1246,-822 1389,-822 1389,-803 1246,-803"/>
<text text-anchor="middle" x="1317.5" y="-810" font-family="Helvetica,sans-Serif" font-size="10.00">std::map&lt; K, T &gt;::iterator</text>
</a>
</g>
</g>
<!-- Node27&#45;&gt;Node26 -->
<g id="edge29" class="edge">
<title>Node27&#45;&gt;Node26</title>
<path fill="none" stroke="#9a32cd" stroke-dasharray="5,2" d="M1317.5,-792.78C1317.5,-779.4 1317.5,-761.69 1317.5,-749.52"/>
<polygon fill="#9a32cd" stroke="#9a32cd" points="1314,-792.78 1317.5,-802.78 1321,-792.78 1314,-792.78"/>
<text text-anchor="middle" x="1342" y="-771" font-family="Helvetica,sans-Serif" font-size="10.00"> elements</text>
</g>
<!-- Node28&#45;&gt;Node9 -->
<g id="edge30" class="edge">
<title>Node28&#45;&gt;Node9</title>
<path fill="none" stroke="#9a32cd" stroke-dasharray="5,2" d="M224.77,-715.15C252.6,-702.7 291.54,-687.09 327.5,-679 437.21,-654.32 569.62,-650.84 641.27,-651.05"/>
<polygon fill="#9a32cd" stroke="#9a32cd" points="223.07,-712.08 215.42,-719.41 225.97,-718.46 223.07,-712.08"/>
<text text-anchor="middle" x="356" y="-693" font-family="Helvetica,sans-Serif" font-size="10.00"> m_Outputs</text>
<text text-anchor="middle" x="356" y="-682" font-family="Helvetica,sans-Serif" font-size="10.00">m_Inputs</text>
</g>
<!-- Node29 -->
<g id="node29" class="node">
<title>Node29</title>
<g id="a_node29"><a xlink:href="classitk_1_1SmartPointer.html" target="_top" xlink:title=" ">
<polygon fill="white" stroke="black" points="57,-797.5 57,-827.5 164,-827.5 164,-797.5 57,-797.5"/>
<text text-anchor="start" x="65" y="-815.5" font-family="Helvetica,sans-Serif" font-size="10.00">itk::SmartPointer&lt;</text>
<text text-anchor="middle" x="110.5" y="-804.5" font-family="Helvetica,sans-Serif" font-size="10.00"> Self &gt;</text>
</a>
</g>
</g>
<!-- Node29&#45;&gt;Node4 -->
<g id="edge37" class="edge">
<title>Node29&#45;&gt;Node4</title>
<path fill="none" stroke="#9a32cd" stroke-dasharray="5,2" d="M93.45,-789.01C84.14,-774.52 74.5,-754.84 74.5,-735.5 74.5,-735.5 74.5,-735.5 74.5,-373.5 74.5,-356.05 77.55,-336.63 80.57,-321.66"/>
<polygon fill="#9a32cd" stroke="#9a32cd" points="90.58,-791.02 99.11,-797.31 96.37,-787.07 90.58,-791.02"/>
<text text-anchor="middle" x="131" y="-547" font-family="Helvetica,sans-Serif" font-size="10.00"> m_GPUKernelManager</text>
</g>
<!-- Node29&#45;&gt;Node28 -->
<g id="edge31" class="edge">
<title>Node29&#45;&gt;Node28</title>
<path fill="none" stroke="#9a32cd" stroke-dasharray="5,2" d="M131.97,-790.03C144.87,-777.13 160.93,-761.07 172.27,-749.73"/>
<polygon fill="#9a32cd" stroke="#9a32cd" points="129.39,-787.66 124.8,-797.2 134.34,-792.61 129.39,-787.66"/>
<text text-anchor="middle" x="178" y="-771" font-family="Helvetica,sans-Serif" font-size="10.00"> elements</text>
</g>
<!-- Node30 -->
<g id="node30" class="node">
<title>Node30</title>
<g id="a_node30"><a xlink:href="classitk_1_1SmartPointer.html" target="_top" xlink:title=" ">
<polygon fill="white" stroke="black" points="920.5,-719.5 920.5,-749.5 1062.5,-749.5 1062.5,-719.5 920.5,-719.5"/>
<text text-anchor="start" x="928.5" y="-737.5" font-family="Helvetica,sans-Serif" font-size="10.00">itk::SmartPointer&lt;</text>
<text text-anchor="middle" x="991.5" y="-726.5" font-family="Helvetica,sans-Serif" font-size="10.00"> itk::MultiThreaderBase &gt;</text>
</a>
</g>
</g>
<!-- Node30&#45;&gt;Node9 -->
<g id="edge33" class="edge">
<title>Node30&#45;&gt;Node9</title>
<path fill="none" stroke="#9a32cd" stroke-dasharray="5,2" d="M930.54,-716.83C868.12,-699.76 773.54,-673.89 724.88,-660.58"/>
<polygon fill="#9a32cd" stroke="#9a32cd" points="929.7,-720.23 940.27,-719.49 931.55,-713.48 929.7,-720.23"/>
<text text-anchor="middle" x="912" y="-687.5" font-family="Helvetica,sans-Serif" font-size="10.00"> m_MultiThreader</text>
</g>
<!-- Node31 -->
<g id="node31" class="node">
<title>Node31</title>
<g id="a_node31"><a xlink:href="structitk_1_1ImageSourceCommon.html" target="_top" xlink:title="Secondary base class of ImageSource common between templates.">
<polygon fill="white" stroke="black" points="764,-641.5 764,-660.5 907,-660.5 907,-641.5 764,-641.5"/>
<text text-anchor="middle" x="835.5" y="-648.5" font-family="Helvetica,sans-Serif" font-size="10.00">itk::ImageSourceCommon</text>
</a>
</g>
</g>
<!-- Node31&#45;&gt;Node8 -->
<g id="edge35" class="edge">
<title>Node31&#45;&gt;Node8</title>
<path fill="none" stroke="#8b1a1a" d="M806.14,-637.49C782.97,-627.62 750.65,-613.85 726.57,-603.59"/>
<polygon fill="#8b1a1a" stroke="#8b1a1a" points="804.88,-640.76 815.46,-641.46 807.63,-634.32 804.88,-640.76"/>
</g>
<!-- Node32 -->
<g id="node32" class="node">
<title>Node32</title>
<g id="a_node32"><a xlink:href="classitk_1_1ImageToImageFilterCommon.html" target="_top" xlink:title="Secondary base class of ImageToImageFilter common between templates.">
<polygon fill="white" stroke="black" points="782.5,-579 782.5,-598 958.5,-598 958.5,-579 782.5,-579"/>
<text text-anchor="middle" x="870.5" y="-586" font-family="Helvetica,sans-Serif" font-size="10.00">itk::ImageToImageFilterCommon</text>
</a>
</g>
</g>
<!-- Node32&#45;&gt;Node7 -->
<g id="edge36" class="edge">
<title>Node32&#45;&gt;Node7</title>
<path fill="none" stroke="#8b1a1a" d="M840.95,-574.81C809.29,-561.22 759.16,-539.69 726.3,-525.58"/>
<polygon fill="#8b1a1a" stroke="#8b1a1a" points="839.97,-578.2 850.54,-578.93 842.73,-571.77 839.97,-578.2"/>
</g>
<!-- Node33 -->
<g id="node33" class="node">
<title>Node33</title>
<g id="a_node33"><a xlink:href="classitk_1_1Functor_1_1GPUCast.html" target="_top" xlink:title=" ">
<polygon fill="white" stroke="black" points="193.5,-185 193.5,-226 345.5,-226 345.5,-185 193.5,-185"/>
<text text-anchor="start" x="201.5" y="-214" font-family="Helvetica,sans-Serif" font-size="10.00">itk::Functor::GPUCast</text>
<text text-anchor="start" x="201.5" y="-203" font-family="Helvetica,sans-Serif" font-size="10.00">&lt; TInputImage::PixelType,</text>
<text text-anchor="middle" x="269.5" y="-192" font-family="Helvetica,sans-Serif" font-size="10.00"> TOutputImage::PixelType &gt;</text>
</a>
</g>
</g>
<!-- Node33&#45;&gt;Node2 -->
<g id="edge38" class="edge">
<title>Node33&#45;&gt;Node2</title>
<path fill="none" stroke="#9a32cd" stroke-dasharray="5,2" d="M245.13,-176.78C232.96,-162.94 218.2,-146.15 205.66,-131.9"/>
<polygon fill="#9a32cd" stroke="#9a32cd" points="242.72,-179.35 251.95,-184.54 247.98,-174.72 242.72,-179.35"/>
<text text-anchor="middle" x="257" y="-153" font-family="Helvetica,sans-Serif" font-size="10.00"> m_Functor</text>
</g>
<!-- Node34 -->
<g id="node34" class="node">
<title>Node34</title>
<g id="a_node34"><a xlink:href="classitk_1_1Functor_1_1GPUFunctorBase.html" target="_top" xlink:title="Base functor class for GPU functor image filters.">
<polygon fill="white" stroke="black" points="191.5,-286 191.5,-305 349.5,-305 349.5,-286 191.5,-286"/>
<text text-anchor="middle" x="270.5" y="-293" font-family="Helvetica,sans-Serif" font-size="10.00">itk::Functor::GPUFunctorBase</text>
</a>
</g>
</g>
<!-- Node34&#45;&gt;Node33 -->
<g id="edge39" class="edge">
<title>Node34&#45;&gt;Node33</title>
<path fill="none" stroke="midnightblue" d="M270.28,-275.41C270.12,-260.81 269.89,-240.76 269.72,-226.05"/>
<polygon fill="midnightblue" stroke="midnightblue" points="266.79,-275.78 270.4,-285.74 273.79,-275.7 266.79,-275.78"/>
</g>
</g>
</svg>
