<?xml version="1.0" encoding="UTF-8" standalone="no"?>
<!DOCTYPE svg PUBLIC "-//W3C//DTD SVG 1.1//EN"
 "http://www.w3.org/Graphics/SVG/1.1/DTD/svg11.dtd">
<!-- Generated by graphviz version 2.43.0 (0)
 -->
<!-- Title: itk::InputDataObjectIterator Pages: 1 -->
<svg width="159pt" height="174pt"
 viewBox="0.00 0.00 159.00 174.00" xmlns="http://www.w3.org/2000/svg" xmlns:xlink="http://www.w3.org/1999/xlink">
<g id="graph0" class="graph" transform="scale(1 1) rotate(0) translate(4 170)">
<title>itk::InputDataObjectIterator</title>
<polygon fill="white" stroke="transparent" points="-4,4 -4,-170 155,-170 155,4 -4,4"/>
<!-- Node1 -->
<g id="node1" class="node">
<title>Node1</title>
<g id="a_node1"><a xlink:title="A forward iterator over inputs of a ProcessObject.">
<polygon fill="#bfbfbf" stroke="black" points="0,-0.5 0,-19.5 151,-19.5 151,-0.5 0,-0.5"/>
<text text-anchor="middle" x="75.5" y="-7.5" font-family="Helvetica,sans-Serif" font-size="10.00">itk::InputDataObjectIterator</text>
</a>
</g>
</g>
<!-- Node2 -->
<g id="node2" class="node">
<title>Node2</title>
<g id="a_node2"><a xlink:href="classitk_1_1DataObjectIterator.html" target="_top" xlink:title="A forward iterator over the DataObject of a ProcessObject.">
<polygon fill="white" stroke="black" points="12.5,-57.5 12.5,-76.5 138.5,-76.5 138.5,-57.5 12.5,-57.5"/>
<text text-anchor="middle" x="75.5" y="-64.5" font-family="Helvetica,sans-Serif" font-size="10.00">itk::DataObjectIterator</text>
</a>
</g>
</g>
<!-- Node2&#45;&gt;Node1 -->
<g id="edge1" class="edge">
<title>Node2&#45;&gt;Node1</title>
<path fill="none" stroke="midnightblue" d="M75.5,-47.12C75.5,-37.82 75.5,-27.06 75.5,-19.71"/>
<polygon fill="midnightblue" stroke="midnightblue" points="72,-47.41 75.5,-57.41 79,-47.41 72,-47.41"/>
</g>
<!-- Node3 -->
<g id="node3" class="node">
<title>Node3</title>
<g id="a_node3"><a xlink:title="STL iterator class.">
<polygon fill="white" stroke="#bfbfbf" points="4,-146.5 4,-165.5 147,-165.5 147,-146.5 4,-146.5"/>
<text text-anchor="middle" x="75.5" y="-153.5" font-family="Helvetica,sans-Serif" font-size="10.00">std::map&lt; K, T &gt;::iterator</text>
</a>
</g>
</g>
<!-- Node3&#45;&gt;Node2 -->
<g id="edge2" class="edge">
<title>Node3&#45;&gt;Node2</title>
<path fill="none" stroke="#9a32cd" stroke-dasharray="5,2" d="M75.5,-136.19C75.5,-117.74 75.5,-90.41 75.5,-76.62"/>
<polygon fill="#9a32cd" stroke="#9a32cd" points="72,-136.34 75.5,-146.34 79,-136.34 72,-136.34"/>
<text text-anchor="middle" x="101.5" y="-120" font-family="Helvetica,sans-Serif" font-size="10.00"> m_End</text>
<text text-anchor="middle" x="101.5" y="-109" font-family="Helvetica,sans-Serif" font-size="10.00">m_Iterator</text>
<text text-anchor="middle" x="101.5" y="-98" font-family="Helvetica,sans-Serif" font-size="10.00">m_Begin</text>
</g>
</g>
</svg>
