<?xml version="1.0" encoding="UTF-8" standalone="no"?>
<!DOCTYPE svg PUBLIC "-//W3C//DTD SVG 1.1//EN"
 "http://www.w3.org/Graphics/SVG/1.1/DTD/svg11.dtd">
<!-- Generated by graphviz version 2.43.0 (0)
 -->
<!-- Title: itk::WhitakerSparseLevelSetImage&lt; TOutput, VDimension &gt; Pages: 1 -->
<svg width="2439pt" height="369pt"
 viewBox="0.00 0.00 2439.00 369.00" xmlns="http://www.w3.org/2000/svg" xmlns:xlink="http://www.w3.org/1999/xlink">
<g id="graph0" class="graph" transform="scale(1 1) rotate(0) translate(4 365)">
<title>itk::WhitakerSparseLevelSetImage&lt; TOutput, VDimension &gt;</title>
<polygon fill="white" stroke="transparent" points="-4,4 -4,-365 2435,-365 2435,4 -4,4"/>
<!-- Node1 -->
<g id="node1" class="node">
<title>Node1</title>
<g id="a_node1"><a xlink:title="Derived class for the sparse&#45;field representation of level&#45;set function.">
<polygon fill="#bfbfbf" stroke="black" points="2241,-71.5 2241,-101.5 2431,-101.5 2431,-71.5 2241,-71.5"/>
<text text-anchor="start" x="2249" y="-89.5" font-family="Helvetica,sans-Serif" font-size="10.00">itk::WhitakerSparseLevel</text>
<text text-anchor="middle" x="2336" y="-78.5" font-family="Helvetica,sans-Serif" font-size="10.00">SetImage&lt; TOutput, VDimension &gt;</text>
</a>
</g>
</g>
<!-- Node2 -->
<g id="node2" class="node">
<title>Node2</title>
<g id="a_node2"><a xlink:href="classitk_1_1LevelSetSparseImage.html" target="_top" xlink:title="Base class for the sparse representation of a level&#45;set function on one Image.">
<polygon fill="white" stroke="black" points="2061,-71.5 2061,-101.5 2204,-101.5 2204,-71.5 2061,-71.5"/>
<text text-anchor="start" x="2069" y="-89.5" font-family="Helvetica,sans-Serif" font-size="10.00">itk::LevelSetSparseImage</text>
<text text-anchor="middle" x="2132.5" y="-78.5" font-family="Helvetica,sans-Serif" font-size="10.00">&lt; TOutput, VDimension &gt;</text>
</a>
</g>
</g>
<!-- Node2&#45;&gt;Node1 -->
<g id="edge1" class="edge">
<title>Node2&#45;&gt;Node1</title>
<path fill="none" stroke="midnightblue" d="M2214.34,-86.5C2223.01,-86.5 2231.9,-86.5 2240.72,-86.5"/>
<polygon fill="midnightblue" stroke="midnightblue" points="2214.26,-83 2204.26,-86.5 2214.26,-90 2214.26,-83"/>
</g>
<!-- Node3 -->
<g id="node3" class="node">
<title>Node3</title>
<g id="a_node3"><a xlink:href="classitk_1_1DiscreteLevelSetImage.html" target="_top" xlink:title="Abstract class for a level&#45;set function on one Image.">
<polygon fill="white" stroke="black" points="1776,-137.5 1776,-167.5 1925,-167.5 1925,-137.5 1776,-137.5"/>
<text text-anchor="start" x="1784" y="-155.5" font-family="Helvetica,sans-Serif" font-size="10.00">itk::DiscreteLevelSetImage</text>
<text text-anchor="middle" x="1850.5" y="-144.5" font-family="Helvetica,sans-Serif" font-size="10.00">&lt; TOutput, VDimension &gt;</text>
</a>
</g>
</g>
<!-- Node3&#45;&gt;Node2 -->
<g id="edge2" class="edge">
<title>Node3&#45;&gt;Node2</title>
<path fill="none" stroke="midnightblue" d="M1935.45,-138.64C1969.1,-132.48 2008.1,-124.55 2043,-115.5 2058.18,-111.56 2074.56,-106.45 2089.06,-101.61"/>
<polygon fill="midnightblue" stroke="midnightblue" points="1934.4,-135.27 1925.19,-140.5 1935.65,-142.16 1934.4,-135.27"/>
</g>
<!-- Node4 -->
<g id="node4" class="node">
<title>Node4</title>
<g id="a_node4"><a xlink:href="classitk_1_1LevelSetImage.html" target="_top" xlink:title=" ">
<polygon fill="white" stroke="black" points="1590,-132 1590,-173 1739,-173 1739,-132 1590,-132"/>
<text text-anchor="start" x="1598" y="-161" font-family="Helvetica,sans-Serif" font-size="10.00">itk::LevelSetImage</text>
<text text-anchor="start" x="1598" y="-150" font-family="Helvetica,sans-Serif" font-size="10.00">&lt; Index&lt; VDimension</text>
<text text-anchor="middle" x="1664.5" y="-139" font-family="Helvetica,sans-Serif" font-size="10.00"> &gt;, VDimension, TOutput &gt;</text>
</a>
</g>
</g>
<!-- Node4&#45;&gt;Node3 -->
<g id="edge3" class="edge">
<title>Node4&#45;&gt;Node3</title>
<path fill="none" stroke="midnightblue" d="M1749.03,-152.5C1757.96,-152.5 1767,-152.5 1775.8,-152.5"/>
<polygon fill="midnightblue" stroke="midnightblue" points="1749.01,-149 1739.01,-152.5 1749.01,-156 1749.01,-149"/>
</g>
<!-- Node5 -->
<g id="node5" class="node">
<title>Node5</title>
<g id="a_node5"><a xlink:href="classitk_1_1LevelSetBase.html" target="_top" xlink:title=" ">
<polygon fill="white" stroke="black" points="1301,-168.5 1301,-220.5 1468,-220.5 1468,-168.5 1301,-168.5"/>
<text text-anchor="start" x="1309" y="-208.5" font-family="Helvetica,sans-Serif" font-size="10.00">itk::LevelSetBase&lt;</text>
<text text-anchor="start" x="1309" y="-197.5" font-family="Helvetica,sans-Serif" font-size="10.00"> Index&lt; VDimension &gt;</text>
<text text-anchor="start" x="1309" y="-186.5" font-family="Helvetica,sans-Serif" font-size="10.00">, VDimension, TOutput,</text>
<text text-anchor="middle" x="1384.5" y="-175.5" font-family="Helvetica,sans-Serif" font-size="10.00"> ImageBase&lt; VDimension &gt; &gt;</text>
</a>
</g>
</g>
<!-- Node5&#45;&gt;Node4 -->
<g id="edge4" class="edge">
<title>Node5&#45;&gt;Node4</title>
<path fill="none" stroke="midnightblue" d="M1478.25,-180.49C1514.5,-175.01 1555.48,-168.82 1589.67,-163.65"/>
<polygon fill="midnightblue" stroke="midnightblue" points="1477.52,-177.06 1468.16,-182.01 1478.57,-183.98 1477.52,-177.06"/>
</g>
<!-- Node6 -->
<g id="node6" class="node">
<title>Node6</title>
<g id="a_node6"><a xlink:href="classitk_1_1DataObject.html" target="_top" xlink:title="Base class for all data objects in ITK.">
<polygon fill="white" stroke="black" points="1174,-185 1174,-204 1264,-204 1264,-185 1174,-185"/>
<text text-anchor="middle" x="1219" y="-192" font-family="Helvetica,sans-Serif" font-size="10.00">itk::DataObject</text>
</a>
</g>
</g>
<!-- Node6&#45;&gt;Node5 -->
<g id="edge5" class="edge">
<title>Node6&#45;&gt;Node5</title>
<path fill="none" stroke="midnightblue" d="M1274.37,-194.5C1282.87,-194.5 1291.82,-194.5 1300.78,-194.5"/>
<polygon fill="midnightblue" stroke="midnightblue" points="1274.25,-191 1264.25,-194.5 1274.25,-198 1274.25,-191"/>
</g>
<!-- Node7 -->
<g id="node7" class="node">
<title>Node7</title>
<g id="a_node7"><a xlink:href="classitk_1_1Object.html" target="_top" xlink:title="Base class for most ITK classes.">
<polygon fill="white" stroke="black" points="947,-244 947,-263 1014,-263 1014,-244 947,-244"/>
<text text-anchor="middle" x="980.5" y="-251" font-family="Helvetica,sans-Serif" font-size="10.00">itk::Object</text>
</a>
</g>
</g>
<!-- Node7&#45;&gt;Node6 -->
<g id="edge6" class="edge">
<title>Node7&#45;&gt;Node6</title>
<path fill="none" stroke="midnightblue" d="M1024.26,-242.83C1068.48,-231.8 1136.93,-214.72 1179.52,-204.1"/>
<polygon fill="midnightblue" stroke="midnightblue" points="1023.24,-239.48 1014.38,-245.3 1024.93,-246.27 1023.24,-239.48"/>
</g>
<!-- Node8 -->
<g id="node8" class="node">
<title>Node8</title>
<g id="a_node8"><a xlink:href="classitk_1_1LightObject.html" target="_top" xlink:title="Light weight base class for most itk classes.">
<polygon fill="white" stroke="black" points="654.5,-240 654.5,-259 745.5,-259 745.5,-240 654.5,-240"/>
<text text-anchor="middle" x="700" y="-247" font-family="Helvetica,sans-Serif" font-size="10.00">itk::LightObject</text>
</a>
</g>
</g>
<!-- Node8&#45;&gt;Node7 -->
<g id="edge7" class="edge">
<title>Node8&#45;&gt;Node7</title>
<path fill="none" stroke="midnightblue" d="M755.99,-250.29C812.84,-251.11 899.69,-252.35 946.64,-253.03"/>
<polygon fill="midnightblue" stroke="midnightblue" points="755.8,-246.79 745.75,-250.14 755.69,-253.79 755.8,-246.79"/>
</g>
<!-- Node9 -->
<g id="node9" class="node">
<title>Node9</title>
<g id="a_node9"><a xlink:title=" ">
<polygon fill="white" stroke="#bfbfbf" points="372,-239 372,-258 479,-258 479,-239 372,-239"/>
<text text-anchor="middle" x="425.5" y="-246" font-family="Helvetica,sans-Serif" font-size="10.00">std::atomic&lt; int &gt;</text>
</a>
</g>
</g>
<!-- Node9&#45;&gt;Node8 -->
<g id="edge8" class="edge">
<title>Node9&#45;&gt;Node8</title>
<path fill="none" stroke="#9a32cd" stroke-dasharray="5,2" d="M489.18,-248.73C539.64,-248.92 609.33,-249.17 654.29,-249.34"/>
<polygon fill="#9a32cd" stroke="#9a32cd" points="489.05,-245.23 479.04,-248.69 489.03,-252.23 489.05,-245.23"/>
<text text-anchor="middle" x="566.5" y="-251.5" font-family="Helvetica,sans-Serif" font-size="10.00"> m_ReferenceCount</text>
</g>
<!-- Node10 -->
<g id="node10" class="node">
<title>Node10</title>
<g id="a_node10"><a xlink:title="STL class.">
<polygon fill="white" stroke="#bfbfbf" points="667.5,-336 667.5,-355 732.5,-355 732.5,-336 667.5,-336"/>
<text text-anchor="middle" x="700" y="-343" font-family="Helvetica,sans-Serif" font-size="10.00">std::string</text>
</a>
</g>
</g>
<!-- Node10&#45;&gt;Node6 -->
<g id="edge21" class="edge">
<title>Node10&#45;&gt;Node6</title>
<path fill="none" stroke="#9a32cd" stroke-dasharray="5,2" d="M742.91,-346.42C783.92,-346.47 847.94,-344.29 902,-332.5 1020.07,-306.76 1048.51,-290.72 1156,-235.5 1173.91,-226.3 1193.01,-213.09 1205.21,-204.17"/>
<polygon fill="#9a32cd" stroke="#9a32cd" points="742.76,-342.92 732.74,-346.36 742.72,-349.92 742.76,-342.92"/>
<text text-anchor="middle" x="980.5" y="-330.5" font-family="Helvetica,sans-Serif" font-size="10.00"> m_SourceOutputName</text>
</g>
<!-- Node10&#45;&gt;Node7 -->
<g id="edge9" class="edge">
<title>Node10&#45;&gt;Node7</title>
<path fill="none" stroke="#9a32cd" stroke-dasharray="5,2" d="M742.76,-333.18C756.21,-329.32 771.21,-325.12 785,-321.5 836.72,-307.93 851.88,-312.12 902,-293.5 924.28,-285.22 948.38,-272.05 963.69,-263.11"/>
<polygon fill="#9a32cd" stroke="#9a32cd" points="741.45,-329.92 732.82,-336.06 743.4,-336.64 741.45,-329.92"/>
<text text-anchor="middle" x="843.5" y="-324.5" font-family="Helvetica,sans-Serif" font-size="10.00"> m_ObjectName</text>
</g>
<!-- Node11 -->
<g id="node11" class="node">
<title>Node11</title>
<g id="a_node11"><a xlink:title="STL class.">
<polygon fill="white" stroke="#bfbfbf" points="373.5,-330.5 373.5,-360.5 477.5,-360.5 477.5,-330.5 373.5,-330.5"/>
<text text-anchor="start" x="381.5" y="-348.5" font-family="Helvetica,sans-Serif" font-size="10.00">std::basic_string&lt;</text>
<text text-anchor="middle" x="425.5" y="-337.5" font-family="Helvetica,sans-Serif" font-size="10.00"> char &gt;</text>
</a>
</g>
</g>
<!-- Node11&#45;&gt;Node10 -->
<g id="edge10" class="edge">
<title>Node11&#45;&gt;Node10</title>
<path fill="none" stroke="midnightblue" d="M487.85,-345.5C543.49,-345.5 623.3,-345.5 667.14,-345.5"/>
<polygon fill="midnightblue" stroke="midnightblue" points="487.76,-342 477.76,-345.5 487.76,-349 487.76,-342"/>
</g>
<!-- Node12 -->
<g id="node12" class="node">
<title>Node12</title>
<g id="a_node12"><a xlink:href="classitk_1_1MetaDataDictionary.html" target="_top" xlink:title="Provides a mechanism for storing a collection of arbitrary data types.">
<polygon fill="white" stroke="black" points="633,-279 633,-298 767,-298 767,-279 633,-279"/>
<text text-anchor="middle" x="700" y="-286" font-family="Helvetica,sans-Serif" font-size="10.00">itk::MetaDataDictionary</text>
</a>
</g>
</g>
<!-- Node12&#45;&gt;Node7 -->
<g id="edge11" class="edge">
<title>Node12&#45;&gt;Node7</title>
<path fill="none" stroke="#9a32cd" stroke-dasharray="5,2" d="M777.49,-279.77C815.03,-275.38 860.91,-269.87 902,-264.5 916.69,-262.58 932.92,-260.3 946.71,-258.32"/>
<polygon fill="#9a32cd" stroke="#9a32cd" points="776.66,-276.34 767.13,-280.98 777.47,-283.3 776.66,-276.34"/>
<text text-anchor="middle" x="843.5" y="-281.5" font-family="Helvetica,sans-Serif" font-size="10.00"> m_MetaDataDictionary</text>
</g>
<!-- Node13 -->
<g id="node13" class="node">
<title>Node13</title>
<g id="a_node13"><a xlink:title=" ">
<polygon fill="white" stroke="#bfbfbf" points="351,-277.5 351,-307.5 500,-307.5 500,-277.5 351,-277.5"/>
<text text-anchor="start" x="359" y="-295.5" font-family="Helvetica,sans-Serif" font-size="10.00">std::shared_ptr&lt; MetaData</text>
<text text-anchor="middle" x="425.5" y="-284.5" font-family="Helvetica,sans-Serif" font-size="10.00">DictionaryMapType &gt;</text>
</a>
</g>
</g>
<!-- Node13&#45;&gt;Node12 -->
<g id="edge12" class="edge">
<title>Node13&#45;&gt;Node12</title>
<path fill="none" stroke="#9a32cd" stroke-dasharray="5,2" d="M510.34,-291.27C549.65,-290.69 595.82,-290.01 632.65,-289.47"/>
<polygon fill="#9a32cd" stroke="#9a32cd" points="510.19,-287.77 500.24,-291.42 510.29,-294.77 510.19,-287.77"/>
<text text-anchor="middle" x="566.5" y="-293.5" font-family="Helvetica,sans-Serif" font-size="10.00"> m_Dictionary</text>
</g>
<!-- Node14 -->
<g id="node14" class="node">
<title>Node14</title>
<g id="a_node14"><a xlink:title="STL class.">
<polygon fill="white" stroke="#bfbfbf" points="114,-282 114,-301 215,-301 215,-282 114,-282"/>
<text text-anchor="middle" x="164.5" y="-289" font-family="Helvetica,sans-Serif" font-size="10.00">std::map&lt; K, T &gt;</text>
</a>
</g>
</g>
<!-- Node14&#45;&gt;Node13 -->
<g id="edge13" class="edge">
<title>Node14&#45;&gt;Node13</title>
<path fill="none" stroke="#9a32cd" stroke-dasharray="5,2" d="M225.34,-291.73C262.61,-291.87 310.86,-292.06 350.52,-292.21"/>
<polygon fill="#9a32cd" stroke="#9a32cd" points="225.14,-288.23 215.13,-291.69 225.12,-295.23 225.14,-288.23"/>
<text text-anchor="middle" x="283" y="-294.5" font-family="Helvetica,sans-Serif" font-size="10.00"> ptr</text>
</g>
<!-- Node15 -->
<g id="node15" class="node">
<title>Node15</title>
<g id="a_node15"><a xlink:title=" ">
<polygon fill="white" stroke="#bfbfbf" points="0,-282 0,-301 29,-301 29,-282 0,-282"/>
<text text-anchor="middle" x="14.5" y="-289" font-family="Helvetica,sans-Serif" font-size="10.00">K</text>
</a>
</g>
</g>
<!-- Node15&#45;&gt;Node14 -->
<g id="edge14" class="edge">
<title>Node15&#45;&gt;Node14</title>
<path fill="none" stroke="#9a32cd" stroke-dasharray="5,2" d="M39.24,-291.5C59.28,-291.5 88.63,-291.5 113.78,-291.5"/>
<polygon fill="#9a32cd" stroke="#9a32cd" points="39.16,-288 29.16,-291.5 39.16,-295 39.16,-288"/>
<text text-anchor="middle" x="71.5" y="-294.5" font-family="Helvetica,sans-Serif" font-size="10.00"> keys</text>
</g>
<!-- Node16 -->
<g id="node16" class="node">
<title>Node16</title>
<g id="a_node16"><a xlink:title=" ">
<polygon fill="white" stroke="#bfbfbf" points="0,-229 0,-248 29,-248 29,-229 0,-229"/>
<text text-anchor="middle" x="14.5" y="-236" font-family="Helvetica,sans-Serif" font-size="10.00">T</text>
</a>
</g>
</g>
<!-- Node16&#45;&gt;Node14 -->
<g id="edge15" class="edge">
<title>Node16&#45;&gt;Node14</title>
<path fill="none" stroke="#9a32cd" stroke-dasharray="5,2" d="M38.78,-246.84C65.36,-256.35 108.76,-271.9 136.72,-281.91"/>
<polygon fill="#9a32cd" stroke="#9a32cd" points="39.75,-243.47 29.16,-243.39 37.39,-250.06 39.75,-243.47"/>
<text text-anchor="middle" x="71.5" y="-269.5" font-family="Helvetica,sans-Serif" font-size="10.00"> elements</text>
</g>
<!-- Node18 -->
<g id="node18" class="node">
<title>Node18</title>
<g id="a_node18"><a xlink:title="STL class.">
<polygon fill="white" stroke="#bfbfbf" points="233,-207 233,-226 333,-226 333,-207 233,-207"/>
<text text-anchor="middle" x="283" y="-214" font-family="Helvetica,sans-Serif" font-size="10.00">std::atomic&lt; T &gt;</text>
</a>
</g>
</g>
<!-- Node16&#45;&gt;Node18 -->
<g id="edge18" class="edge">
<title>Node16&#45;&gt;Node18</title>
<path fill="none" stroke="#9a32cd" stroke-dasharray="5,2" d="M39.44,-235.33C41.99,-235.03 44.55,-234.75 47,-234.5 111.12,-227.98 185.29,-222.67 232.88,-219.55"/>
<polygon fill="#9a32cd" stroke="#9a32cd" points="38.77,-231.89 29.28,-236.6 39.64,-238.84 38.77,-231.89"/>
<text text-anchor="middle" x="71.5" y="-237.5" font-family="Helvetica,sans-Serif" font-size="10.00"> ptr</text>
</g>
<!-- Node17 -->
<g id="node17" class="node">
<title>Node17</title>
<g id="a_node17"><a xlink:href="classitk_1_1TimeStamp.html" target="_top" xlink:title="Generate a unique, increasing time value.">
<polygon fill="white" stroke="black" points="654,-200 654,-219 746,-219 746,-200 654,-200"/>
<text text-anchor="middle" x="700" y="-207" font-family="Helvetica,sans-Serif" font-size="10.00">itk::TimeStamp</text>
</a>
</g>
</g>
<!-- Node17&#45;&gt;Node6 -->
<g id="edge22" class="edge">
<title>Node17&#45;&gt;Node6</title>
<path fill="none" stroke="#9a32cd" stroke-dasharray="5,2" d="M756.66,-207.88C860.12,-204.88 1080.02,-198.5 1173.96,-195.78"/>
<polygon fill="#9a32cd" stroke="#9a32cd" points="756.32,-204.39 746.43,-208.18 756.52,-211.39 756.32,-204.39"/>
<text text-anchor="middle" x="980.5" y="-205.5" font-family="Helvetica,sans-Serif" font-size="10.00"> m_UpdateMTime</text>
</g>
<!-- Node17&#45;&gt;Node7 -->
<g id="edge16" class="edge">
<title>Node17&#45;&gt;Node7</title>
<path fill="none" stroke="#9a32cd" stroke-dasharray="5,2" d="M756.25,-215.15C796.75,-219.65 853,-226.66 902,-235.5 916.82,-238.17 933.07,-241.83 946.84,-245.15"/>
<polygon fill="#9a32cd" stroke="#9a32cd" points="756.62,-211.67 746.3,-214.06 755.86,-218.63 756.62,-211.67"/>
<text text-anchor="middle" x="843.5" y="-238.5" font-family="Helvetica,sans-Serif" font-size="10.00"> m_MTime</text>
</g>
<!-- Node18&#45;&gt;Node17 -->
<g id="edge17" class="edge">
<title>Node18&#45;&gt;Node17</title>
<path fill="none" stroke="#9a32cd" stroke-dasharray="5,2" d="M343.37,-215.5C427.26,-214.08 578.65,-211.53 653.94,-210.26"/>
<polygon fill="#9a32cd" stroke="#9a32cd" points="343.18,-212 333.24,-215.67 343.29,-219 343.18,-212"/>
<text text-anchor="middle" x="425.5" y="-217.5" font-family="Helvetica,sans-Serif" font-size="10.00"> m_GlobalTimeStamp</text>
</g>
<!-- Node19 -->
<g id="node19" class="node">
<title>Node19</title>
<g id="a_node19"><a xlink:href="classitk_1_1RealTimeStamp.html" target="_top" xlink:title="The RealTimeStamp is a data structure for representing time with high precision and a large dynamic r...">
<polygon fill="white" stroke="black" points="924,-139 924,-158 1037,-158 1037,-139 924,-139"/>
<text text-anchor="middle" x="980.5" y="-146" font-family="Helvetica,sans-Serif" font-size="10.00">itk::RealTimeStamp</text>
</a>
</g>
</g>
<!-- Node19&#45;&gt;Node6 -->
<g id="edge19" class="edge">
<title>Node19&#45;&gt;Node6</title>
<path fill="none" stroke="#9a32cd" stroke-dasharray="5,2" d="M1047.2,-152.29C1080.23,-155.24 1120.65,-160.42 1156,-169.5 1170.5,-173.23 1186.13,-179.55 1198.07,-184.9"/>
<polygon fill="#9a32cd" stroke="#9a32cd" points="1047.46,-148.8 1037.2,-151.45 1046.87,-155.78 1047.46,-148.8"/>
<text text-anchor="middle" x="1107.5" y="-172.5" font-family="Helvetica,sans-Serif" font-size="10.00"> m_RealTimeStamp</text>
</g>
<!-- Node20 -->
<g id="node20" class="node">
<title>Node20</title>
<g id="a_node20"><a xlink:title=" ">
<polygon fill="white" stroke="#bfbfbf" points="672,-139 672,-158 728,-158 728,-139 672,-139"/>
<text text-anchor="middle" x="700" y="-146" font-family="Helvetica,sans-Serif" font-size="10.00">uint64_t</text>
</a>
</g>
</g>
<!-- Node20&#45;&gt;Node19 -->
<g id="edge20" class="edge">
<title>Node20&#45;&gt;Node19</title>
<path fill="none" stroke="#9a32cd" stroke-dasharray="5,2" d="M738.4,-148.5C786.06,-148.5 868.88,-148.5 923.94,-148.5"/>
<polygon fill="#9a32cd" stroke="#9a32cd" points="738.21,-145 728.21,-148.5 738.21,-152 738.21,-145"/>
<text text-anchor="middle" x="843.5" y="-162.5" font-family="Helvetica,sans-Serif" font-size="10.00"> m_Seconds</text>
<text text-anchor="middle" x="843.5" y="-151.5" font-family="Helvetica,sans-Serif" font-size="10.00">m_MicroSeconds</text>
</g>
<!-- Node21 -->
<g id="node21" class="node">
<title>Node21</title>
<g id="a_node21"><a xlink:href="classitk_1_1WeakPointer.html" target="_top" xlink:title=" ">
<polygon fill="white" stroke="black" points="920,-89.5 920,-119.5 1041,-119.5 1041,-89.5 920,-89.5"/>
<text text-anchor="start" x="928" y="-107.5" font-family="Helvetica,sans-Serif" font-size="10.00">itk::WeakPointer&lt; itk</text>
<text text-anchor="middle" x="980.5" y="-96.5" font-family="Helvetica,sans-Serif" font-size="10.00">::ProcessObject &gt;</text>
</a>
</g>
</g>
<!-- Node21&#45;&gt;Node6 -->
<g id="edge23" class="edge">
<title>Node21&#45;&gt;Node6</title>
<path fill="none" stroke="#9a32cd" stroke-dasharray="5,2" d="M1051.1,-109.37C1084.23,-113.81 1123.6,-122.31 1156,-138.5 1178.83,-149.91 1199.58,-172.1 1210.31,-184.86"/>
<polygon fill="#9a32cd" stroke="#9a32cd" points="1051.38,-105.87 1041.03,-108.11 1050.52,-112.82 1051.38,-105.87"/>
<text text-anchor="middle" x="1107.5" y="-141.5" font-family="Helvetica,sans-Serif" font-size="10.00"> m_Source</text>
</g>
<!-- Node22 -->
<g id="node22" class="node">
<title>Node22</title>
<g id="a_node22"><a xlink:href="structitk_1_1Offset.html" target="_top" xlink:title="Represent a n&#45;dimensional offset between two n&#45;dimensional indexes of n&#45;dimensional image.">
<polygon fill="white" stroke="black" points="1311.5,-130 1311.5,-149 1457.5,-149 1457.5,-130 1311.5,-130"/>
<text text-anchor="middle" x="1384.5" y="-137" font-family="Helvetica,sans-Serif" font-size="10.00">itk::Offset&lt; VDimension &gt;</text>
</a>
</g>
</g>
<!-- Node22&#45;&gt;Node4 -->
<g id="edge24" class="edge">
<title>Node22&#45;&gt;Node4</title>
<path fill="none" stroke="#9a32cd" stroke-dasharray="5,2" d="M1467.98,-143.36C1506.57,-145.16 1552.16,-147.29 1589.61,-149.04"/>
<polygon fill="#9a32cd" stroke="#9a32cd" points="1467.97,-139.85 1457.82,-142.88 1467.64,-146.85 1467.97,-139.85"/>
<text text-anchor="middle" x="1529" y="-150.5" font-family="Helvetica,sans-Serif" font-size="10.00"> m_DomainOffset</text>
</g>
<!-- Node23 -->
<g id="node23" class="node">
<title>Node23</title>
<g id="a_node23"><a xlink:title=" ">
<polygon fill="white" stroke="#bfbfbf" points="1783.5,-99 1783.5,-118 1917.5,-118 1917.5,-99 1783.5,-99"/>
<text text-anchor="middle" x="1850.5" y="-106" font-family="Helvetica,sans-Serif" font-size="10.00">std::list&lt; LayerIdType &gt;</text>
</a>
</g>
</g>
<!-- Node23&#45;&gt;Node2 -->
<g id="edge25" class="edge">
<title>Node23&#45;&gt;Node2</title>
<path fill="none" stroke="#9a32cd" stroke-dasharray="5,2" d="M1927.55,-102.52C1968.98,-99.27 2019.94,-95.27 2060.55,-92.07"/>
<polygon fill="#9a32cd" stroke="#9a32cd" points="1927.2,-99.04 1917.5,-103.31 1927.74,-106.02 1927.2,-99.04"/>
<text text-anchor="middle" x="1993" y="-103.5" font-family="Helvetica,sans-Serif" font-size="10.00"> m_InternalLabelList</text>
</g>
<!-- Node24 -->
<g id="node24" class="node">
<title>Node24</title>
<g id="a_node24"><a xlink:title=" ">
<polygon fill="white" stroke="#bfbfbf" points="1784.5,-49.5 1784.5,-79.5 1916.5,-79.5 1916.5,-49.5 1784.5,-49.5"/>
<text text-anchor="start" x="1792.5" y="-67.5" font-family="Helvetica,sans-Serif" font-size="10.00">std::map&lt; LayerIdType,</text>
<text text-anchor="middle" x="1850.5" y="-56.5" font-family="Helvetica,sans-Serif" font-size="10.00"> LayerType &gt;</text>
</a>
</g>
</g>
<!-- Node24&#45;&gt;Node2 -->
<g id="edge26" class="edge">
<title>Node24&#45;&gt;Node2</title>
<path fill="none" stroke="#9a32cd" stroke-dasharray="5,2" d="M1926.89,-69.71C1962.17,-72.23 2004.75,-75.37 2043,-78.5 2048.84,-78.98 2054.9,-79.49 2060.98,-80.02"/>
<polygon fill="#9a32cd" stroke="#9a32cd" points="1926.89,-66.2 1916.67,-68.99 1926.4,-73.19 1926.89,-66.2"/>
<text text-anchor="middle" x="1993" y="-81.5" font-family="Helvetica,sans-Serif" font-size="10.00"> m_Layers</text>
</g>
<!-- Node25 -->
<g id="node25" class="node">
<title>Node25</title>
<g id="a_node25"><a xlink:href="classitk_1_1SmartPointer.html" target="_top" xlink:title=" ">
<polygon fill="white" stroke="black" points="1797,-0.5 1797,-30.5 1904,-30.5 1904,-0.5 1797,-0.5"/>
<text text-anchor="start" x="1805" y="-18.5" font-family="Helvetica,sans-Serif" font-size="10.00">itk::SmartPointer&lt;</text>
<text text-anchor="middle" x="1850.5" y="-7.5" font-family="Helvetica,sans-Serif" font-size="10.00"> Self &gt;</text>
</a>
</g>
</g>
<!-- Node25&#45;&gt;Node2 -->
<g id="edge27" class="edge">
<title>Node25&#45;&gt;Node2</title>
<path fill="none" stroke="#9a32cd" stroke-dasharray="5,2" d="M1914.67,-26.54C1952.24,-33.64 2000.68,-43.72 2043,-55.5 2059.31,-60.04 2076.98,-66.01 2092.2,-71.49"/>
<polygon fill="#9a32cd" stroke="#9a32cd" points="1914.84,-23.01 1904.37,-24.62 1913.56,-29.89 1914.84,-23.01"/>
<text text-anchor="middle" x="1993" y="-58.5" font-family="Helvetica,sans-Serif" font-size="10.00"> m_LabelMap</text>
</g>
</g>
</svg>
