<?xml version="1.0" encoding="UTF-8" standalone="no"?>
<!DOCTYPE svg PUBLIC "-//W3C//DTD SVG 1.1//EN"
 "http://www.w3.org/Graphics/SVG/1.1/DTD/svg11.dtd">
<!-- Generated by graphviz version 2.43.0 (0)
 -->
<!-- Title: itk::FFTWComplexToComplexFFTImageFilter&lt; TInputImage, TOutputImage &gt; Pages: 1 -->
<svg width="396pt" height="419pt"
 viewBox="0.00 0.00 396.00 419.00" xmlns="http://www.w3.org/2000/svg" xmlns:xlink="http://www.w3.org/1999/xlink">
<g id="graph0" class="graph" transform="scale(1 1) rotate(0) translate(4 415)">
<title>itk::FFTWComplexToComplexFFTImageFilter&lt; TInputImage, TOutputImage &gt;</title>
<polygon fill="white" stroke="transparent" points="-4,4 -4,-415 392,-415 392,4 -4,4"/>
<!-- Node1 -->
<g id="node1" class="node">
<title>Node1</title>
<g id="a_node1"><a xlink:title="Implements an API to enable the Fourier transform or the inverse Fourier transform of images with com...">
<polygon fill="#bfbfbf" stroke="black" points="128.5,-0.5 128.5,-41.5 293.5,-41.5 293.5,-0.5 128.5,-0.5"/>
<text text-anchor="start" x="136.5" y="-29.5" font-family="Helvetica,sans-Serif" font-size="10.00">itk::FFTWComplexToComplex</text>
<text text-anchor="start" x="136.5" y="-18.5" font-family="Helvetica,sans-Serif" font-size="10.00">FFTImageFilter&lt; TInputImage,</text>
<text text-anchor="middle" x="211" y="-7.5" font-family="Helvetica,sans-Serif" font-size="10.00"> TOutputImage &gt;</text>
</a>
</g>
</g>
<!-- Node2 -->
<g id="node2" class="node">
<title>Node2</title>
<g id="a_node2"><a xlink:href="classitk_1_1ComplexToComplexFFTImageFilter.html" target="_top" xlink:title=" ">
<polygon fill="white" stroke="black" points="114.5,-78.5 114.5,-108.5 307.5,-108.5 307.5,-78.5 114.5,-78.5"/>
<text text-anchor="start" x="122.5" y="-96.5" font-family="Helvetica,sans-Serif" font-size="10.00">itk::ComplexToComplexFFTImage</text>
<text text-anchor="middle" x="211" y="-85.5" font-family="Helvetica,sans-Serif" font-size="10.00">Filter&lt; TInputImage, TInputImage &gt;</text>
</a>
</g>
</g>
<!-- Node2&#45;&gt;Node1 -->
<g id="edge1" class="edge">
<title>Node2&#45;&gt;Node1</title>
<path fill="none" stroke="midnightblue" d="M211,-67.98C211,-59.35 211,-49.76 211,-41.59"/>
<polygon fill="midnightblue" stroke="midnightblue" points="207.5,-68.23 211,-78.23 214.5,-68.23 207.5,-68.23"/>
</g>
<!-- Node3 -->
<g id="node3" class="node">
<title>Node3</title>
<g id="a_node3"><a xlink:href="classitk_1_1ImageToImageFilter.html" target="_top" xlink:title=" ">
<polygon fill="white" stroke="black" points="127,-145.5 127,-175.5 295,-175.5 295,-145.5 127,-145.5"/>
<text text-anchor="start" x="135" y="-163.5" font-family="Helvetica,sans-Serif" font-size="10.00">itk::ImageToImageFilter</text>
<text text-anchor="middle" x="211" y="-152.5" font-family="Helvetica,sans-Serif" font-size="10.00">&lt; TInputImage, TInputImage &gt;</text>
</a>
</g>
</g>
<!-- Node3&#45;&gt;Node2 -->
<g id="edge2" class="edge">
<title>Node3&#45;&gt;Node2</title>
<path fill="none" stroke="midnightblue" d="M211,-135.11C211,-126.15 211,-116.32 211,-108.58"/>
<polygon fill="midnightblue" stroke="midnightblue" points="207.5,-135.4 211,-145.4 214.5,-135.4 207.5,-135.4"/>
</g>
<!-- Node4 -->
<g id="node4" class="node">
<title>Node4</title>
<g id="a_node4"><a xlink:href="classitk_1_1ImageSource.html" target="_top" xlink:title=" ">
<polygon fill="white" stroke="black" points="52.5,-212.5 52.5,-242.5 193.5,-242.5 193.5,-212.5 52.5,-212.5"/>
<text text-anchor="start" x="60.5" y="-230.5" font-family="Helvetica,sans-Serif" font-size="10.00">itk::ImageSource&lt; TInput</text>
<text text-anchor="middle" x="123" y="-219.5" font-family="Helvetica,sans-Serif" font-size="10.00">Image &gt;</text>
</a>
</g>
</g>
<!-- Node4&#45;&gt;Node3 -->
<g id="edge3" class="edge">
<title>Node4&#45;&gt;Node3</title>
<path fill="none" stroke="midnightblue" d="M150.14,-206.45C163.68,-196.45 179.73,-184.6 191.94,-175.58"/>
<polygon fill="midnightblue" stroke="midnightblue" points="148.06,-203.64 142.09,-212.4 152.22,-209.27 148.06,-203.64"/>
</g>
<!-- Node5 -->
<g id="node5" class="node">
<title>Node5</title>
<g id="a_node5"><a xlink:href="classitk_1_1ProcessObject.html" target="_top" xlink:title="The base class for all process objects (source, filters, mappers) in the Insight data processing pipe...">
<polygon fill="white" stroke="black" points="0,-279.5 0,-298.5 104,-298.5 104,-279.5 0,-279.5"/>
<text text-anchor="middle" x="52" y="-286.5" font-family="Helvetica,sans-Serif" font-size="10.00">itk::ProcessObject</text>
</a>
</g>
</g>
<!-- Node5&#45;&gt;Node4 -->
<g id="edge4" class="edge">
<title>Node5&#45;&gt;Node4</title>
<path fill="none" stroke="midnightblue" d="M69.99,-272.92C81.14,-263.58 95.36,-251.66 106.27,-242.52"/>
<polygon fill="midnightblue" stroke="midnightblue" points="67.59,-270.37 62.17,-279.48 72.09,-275.73 67.59,-270.37"/>
</g>
<!-- Node6 -->
<g id="node6" class="node">
<title>Node6</title>
<g id="a_node6"><a xlink:href="classitk_1_1Object.html" target="_top" xlink:title="Base class for most ITK classes.">
<polygon fill="white" stroke="black" points="18.5,-335.5 18.5,-354.5 85.5,-354.5 85.5,-335.5 18.5,-335.5"/>
<text text-anchor="middle" x="52" y="-342.5" font-family="Helvetica,sans-Serif" font-size="10.00">itk::Object</text>
</a>
</g>
</g>
<!-- Node6&#45;&gt;Node5 -->
<g id="edge5" class="edge">
<title>Node6&#45;&gt;Node5</title>
<path fill="none" stroke="midnightblue" d="M52,-324.8C52,-315.91 52,-305.78 52,-298.75"/>
<polygon fill="midnightblue" stroke="midnightblue" points="48.5,-325.08 52,-335.08 55.5,-325.08 48.5,-325.08"/>
</g>
<!-- Node7 -->
<g id="node7" class="node">
<title>Node7</title>
<g id="a_node7"><a xlink:href="classitk_1_1LightObject.html" target="_top" xlink:title="Light weight base class for most itk classes.">
<polygon fill="white" stroke="black" points="6.5,-391.5 6.5,-410.5 97.5,-410.5 97.5,-391.5 6.5,-391.5"/>
<text text-anchor="middle" x="52" y="-398.5" font-family="Helvetica,sans-Serif" font-size="10.00">itk::LightObject</text>
</a>
</g>
</g>
<!-- Node7&#45;&gt;Node6 -->
<g id="edge6" class="edge">
<title>Node7&#45;&gt;Node6</title>
<path fill="none" stroke="midnightblue" d="M52,-380.8C52,-371.91 52,-361.78 52,-354.75"/>
<polygon fill="midnightblue" stroke="midnightblue" points="48.5,-381.08 52,-391.08 55.5,-381.08 48.5,-381.08"/>
</g>
<!-- Node8 -->
<g id="node8" class="node">
<title>Node8</title>
<g id="a_node8"><a xlink:href="structitk_1_1ImageSourceCommon.html" target="_top" xlink:title="Secondary base class of ImageSource common between templates.">
<polygon fill="white" stroke="black" points="122.5,-279.5 122.5,-298.5 265.5,-298.5 265.5,-279.5 122.5,-279.5"/>
<text text-anchor="middle" x="194" y="-286.5" font-family="Helvetica,sans-Serif" font-size="10.00">itk::ImageSourceCommon</text>
</a>
</g>
</g>
<!-- Node8&#45;&gt;Node4 -->
<g id="edge7" class="edge">
<title>Node8&#45;&gt;Node4</title>
<path fill="none" stroke="#8b1a1a" d="M176.01,-272.92C164.86,-263.58 150.64,-251.66 139.73,-242.52"/>
<polygon fill="#8b1a1a" stroke="#8b1a1a" points="173.91,-275.73 183.83,-279.48 178.41,-270.37 173.91,-275.73"/>
</g>
<!-- Node9 -->
<g id="node9" class="node">
<title>Node9</title>
<g id="a_node9"><a xlink:href="classitk_1_1ImageToImageFilterCommon.html" target="_top" xlink:title="Secondary base class of ImageToImageFilter common between templates.">
<polygon fill="white" stroke="black" points="212,-218 212,-237 388,-237 388,-218 212,-218"/>
<text text-anchor="middle" x="300" y="-225" font-family="Helvetica,sans-Serif" font-size="10.00">itk::ImageToImageFilterCommon</text>
</a>
</g>
</g>
<!-- Node9&#45;&gt;Node3 -->
<g id="edge8" class="edge">
<title>Node9&#45;&gt;Node3</title>
<path fill="none" stroke="#8b1a1a" d="M279.52,-211.54C264.71,-200.73 244.82,-186.2 230.29,-175.59"/>
<polygon fill="#8b1a1a" stroke="#8b1a1a" points="277.86,-214.66 288,-217.73 281.99,-209.01 277.86,-214.66"/>
</g>
</g>
</svg>
