<?xml version="1.0" encoding="UTF-8" standalone="no"?>
<!DOCTYPE svg PUBLIC "-//W3C//DTD SVG 1.1//EN"
 "http://www.w3.org/Graphics/SVG/1.1/DTD/svg11.dtd">
<!-- Generated by graphviz version 2.43.0 (0)
 -->
<!-- Title: itk::CentralDifferenceImageFunction&lt; TInputImage, TCoordRep, TOutputType &gt; Pages: 1 -->
<svg width="960pt" height="61pt"
 viewBox="0.00 0.00 960.00 61.00" xmlns="http://www.w3.org/2000/svg" xmlns:xlink="http://www.w3.org/1999/xlink">
<g id="graph0" class="graph" transform="scale(1 1) rotate(0) translate(4 57)">
<title>itk::CentralDifferenceImageFunction&lt; TInputImage, TCoordRep, TOutputType &gt;</title>
<polygon fill="white" stroke="transparent" points="-4,4 -4,-57 956,-57 956,4 -4,4"/>
<!-- Node1 -->
<g id="node1" class="node">
<title>Node1</title>
<g id="a_node1"><a xlink:title="Calculate the derivative by central differencing.">
<polygon fill="#bfbfbf" stroke="black" points="760,-6 760,-47 952,-47 952,-6 760,-6"/>
<text text-anchor="start" x="768" y="-35" font-family="Helvetica,sans-Serif" font-size="10.00">itk::CentralDifferenceImage</text>
<text text-anchor="start" x="768" y="-24" font-family="Helvetica,sans-Serif" font-size="10.00">Function&lt; TInputImage, TCoordRep,</text>
<text text-anchor="middle" x="856" y="-13" font-family="Helvetica,sans-Serif" font-size="10.00"> TOutputType &gt;</text>
</a>
</g>
</g>
<!-- Node2 -->
<g id="node2" class="node">
<title>Node2</title>
<g id="a_node2"><a xlink:href="classitk_1_1ImageFunction.html" target="_top" xlink:title=" ">
<polygon fill="white" stroke="black" points="506,-0.5 506,-52.5 724,-52.5 724,-0.5 506,-0.5"/>
<text text-anchor="start" x="514" y="-40.5" font-family="Helvetica,sans-Serif" font-size="10.00">itk::ImageFunction</text>
<text text-anchor="start" x="514" y="-29.5" font-family="Helvetica,sans-Serif" font-size="10.00">&lt; TInputImage, CovariantVector</text>
<text text-anchor="start" x="514" y="-18.5" font-family="Helvetica,sans-Serif" font-size="10.00">&lt; double, TInputImage::ImageDimension</text>
<text text-anchor="middle" x="615" y="-7.5" font-family="Helvetica,sans-Serif" font-size="10.00"> &gt;, float &gt;</text>
</a>
</g>
</g>
<!-- Node2&#45;&gt;Node1 -->
<g id="edge1" class="edge">
<title>Node2&#45;&gt;Node1</title>
<path fill="none" stroke="midnightblue" d="M734.34,-26.5C742.9,-26.5 751.46,-26.5 759.85,-26.5"/>
<polygon fill="midnightblue" stroke="midnightblue" points="734.31,-23 724.31,-26.5 734.31,-30 734.31,-23"/>
</g>
<!-- Node3 -->
<g id="node3" class="node">
<title>Node3</title>
<g id="a_node3"><a xlink:href="classitk_1_1FunctionBase.html" target="_top" xlink:title=" ">
<polygon fill="white" stroke="black" points="230,-0.5 230,-52.5 470,-52.5 470,-0.5 230,-0.5"/>
<text text-anchor="start" x="238" y="-40.5" font-family="Helvetica,sans-Serif" font-size="10.00">itk::FunctionBase&lt;</text>
<text text-anchor="start" x="238" y="-29.5" font-family="Helvetica,sans-Serif" font-size="10.00"> Point&lt; float, TInputImage</text>
<text text-anchor="start" x="238" y="-18.5" font-family="Helvetica,sans-Serif" font-size="10.00">::ImageDimension &gt;, CovariantVector</text>
<text text-anchor="middle" x="350" y="-7.5" font-family="Helvetica,sans-Serif" font-size="10.00">&lt; double, TInputImage::ImageDimension &gt; &gt;</text>
</a>
</g>
</g>
<!-- Node3&#45;&gt;Node2 -->
<g id="edge2" class="edge">
<title>Node3&#45;&gt;Node2</title>
<path fill="none" stroke="midnightblue" d="M480.47,-26.5C488.9,-26.5 497.35,-26.5 505.68,-26.5"/>
<polygon fill="midnightblue" stroke="midnightblue" points="480.19,-23 470.19,-26.5 480.19,-30 480.19,-23"/>
</g>
<!-- Node4 -->
<g id="node4" class="node">
<title>Node4</title>
<g id="a_node4"><a xlink:href="classitk_1_1Object.html" target="_top" xlink:title="Base class for most ITK classes.">
<polygon fill="white" stroke="black" points="127,-17 127,-36 194,-36 194,-17 127,-17"/>
<text text-anchor="middle" x="160.5" y="-24" font-family="Helvetica,sans-Serif" font-size="10.00">itk::Object</text>
</a>
</g>
</g>
<!-- Node4&#45;&gt;Node3 -->
<g id="edge3" class="edge">
<title>Node4&#45;&gt;Node3</title>
<path fill="none" stroke="midnightblue" d="M204.22,-26.5C212.21,-26.5 220.91,-26.5 229.95,-26.5"/>
<polygon fill="midnightblue" stroke="midnightblue" points="204.16,-23 194.16,-26.5 204.16,-30 204.16,-23"/>
</g>
<!-- Node5 -->
<g id="node5" class="node">
<title>Node5</title>
<g id="a_node5"><a xlink:href="classitk_1_1LightObject.html" target="_top" xlink:title="Light weight base class for most itk classes.">
<polygon fill="white" stroke="black" points="0,-17 0,-36 91,-36 91,-17 0,-17"/>
<text text-anchor="middle" x="45.5" y="-24" font-family="Helvetica,sans-Serif" font-size="10.00">itk::LightObject</text>
</a>
</g>
</g>
<!-- Node5&#45;&gt;Node4 -->
<g id="edge4" class="edge">
<title>Node5&#45;&gt;Node4</title>
<path fill="none" stroke="midnightblue" d="M101.28,-26.5C109.96,-26.5 118.69,-26.5 126.66,-26.5"/>
<polygon fill="midnightblue" stroke="midnightblue" points="101.16,-23 91.16,-26.5 101.16,-30 101.16,-23"/>
</g>
</g>
</svg>
