<?xml version="1.0" encoding="UTF-8" standalone="no"?>
<!DOCTYPE svg PUBLIC "-//W3C//DTD SVG 1.1//EN"
 "http://www.w3.org/Graphics/SVG/1.1/DTD/svg11.dtd">
<!-- Generated by graphviz version 2.43.0 (0)
 -->
<!-- Title: itk::FastMarchingExtensionImageFilterBase&lt; TInput, TOutput, TAuxValue, VAuxDimension &gt; Pages: 1 -->
<svg width="218pt" height="262pt"
 viewBox="0.00 0.00 218.00 262.00" xmlns="http://www.w3.org/2000/svg" xmlns:xlink="http://www.w3.org/1999/xlink">
<g id="graph0" class="graph" transform="scale(1 1) rotate(0) translate(4 258)">
<title>itk::FastMarchingExtensionImageFilterBase&lt; TInput, TOutput, TAuxValue, VAuxDimension &gt;</title>
<polygon fill="white" stroke="transparent" points="-4,4 -4,-258 214,-258 214,4 -4,4"/>
<!-- Node1 -->
<g id="node1" class="node">
<title>Node1</title>
<g id="a_node1"><a xlink:title="Extend auxiliary variables smoothly using Fast Marching.">
<polygon fill="#bfbfbf" stroke="black" points="0,-0.5 0,-41.5 210,-41.5 210,-0.5 0,-0.5"/>
<text text-anchor="start" x="8" y="-29.5" font-family="Helvetica,sans-Serif" font-size="10.00">itk::FastMarchingExtension</text>
<text text-anchor="start" x="8" y="-18.5" font-family="Helvetica,sans-Serif" font-size="10.00">ImageFilterBase&lt; TInput,</text>
<text text-anchor="middle" x="105" y="-7.5" font-family="Helvetica,sans-Serif" font-size="10.00"> TOutput, TAuxValue, VAuxDimension &gt;</text>
</a>
</g>
</g>
<!-- Node2 -->
<g id="node2" class="node">
<title>Node2</title>
<g id="a_node2"><a xlink:href="classitk_1_1FastMarchingImageFilterBase.html" target="_top" xlink:title="Apply the Fast Marching method to solve an Eikonal equation on an image.">
<polygon fill="white" stroke="black" points="27.5,-78.5 27.5,-108.5 182.5,-108.5 182.5,-78.5 27.5,-78.5"/>
<text text-anchor="start" x="35.5" y="-96.5" font-family="Helvetica,sans-Serif" font-size="10.00">itk::FastMarchingImageFilter</text>
<text text-anchor="middle" x="105" y="-85.5" font-family="Helvetica,sans-Serif" font-size="10.00">Base&lt; TInput, TOutput &gt;</text>
</a>
</g>
</g>
<!-- Node2&#45;&gt;Node1 -->
<g id="edge1" class="edge">
<title>Node2&#45;&gt;Node1</title>
<path fill="none" stroke="midnightblue" d="M105,-67.98C105,-59.35 105,-49.76 105,-41.59"/>
<polygon fill="midnightblue" stroke="midnightblue" points="101.5,-68.23 105,-78.23 108.5,-68.23 101.5,-68.23"/>
</g>
<!-- Node3 -->
<g id="node3" class="node">
<title>Node3</title>
<g id="a_node3"><a xlink:href="classitk_1_1FastMarchingBase.html" target="_top" xlink:title="Abstract class to solve an Eikonal based&#45;equation using Fast Marching Method.">
<polygon fill="white" stroke="black" points="43,-145.5 43,-175.5 167,-175.5 167,-145.5 43,-145.5"/>
<text text-anchor="start" x="51" y="-163.5" font-family="Helvetica,sans-Serif" font-size="10.00">itk::FastMarchingBase</text>
<text text-anchor="middle" x="105" y="-152.5" font-family="Helvetica,sans-Serif" font-size="10.00">&lt; TInput, TOutput &gt;</text>
</a>
</g>
</g>
<!-- Node3&#45;&gt;Node2 -->
<g id="edge2" class="edge">
<title>Node3&#45;&gt;Node2</title>
<path fill="none" stroke="midnightblue" d="M105,-135.11C105,-126.15 105,-116.32 105,-108.58"/>
<polygon fill="midnightblue" stroke="midnightblue" points="101.5,-135.4 105,-145.4 108.5,-135.4 101.5,-135.4"/>
</g>
<!-- Node4 -->
<g id="node4" class="node">
<title>Node4</title>
<g id="a_node4"><a xlink:title=" ">
<polygon fill="white" stroke="#bfbfbf" points="47.5,-212.5 47.5,-253.5 162.5,-253.5 162.5,-212.5 47.5,-212.5"/>
<text text-anchor="start" x="55.5" y="-241.5" font-family="Helvetica,sans-Serif" font-size="10.00">FastMarchingTraits</text>
<text text-anchor="start" x="55.5" y="-230.5" font-family="Helvetica,sans-Serif" font-size="10.00">&lt; TInput, TOutput &gt;</text>
<text text-anchor="middle" x="105" y="-219.5" font-family="Helvetica,sans-Serif" font-size="10.00">::SuperclassType</text>
</a>
</g>
</g>
<!-- Node4&#45;&gt;Node3 -->
<g id="edge3" class="edge">
<title>Node4&#45;&gt;Node3</title>
<path fill="none" stroke="midnightblue" d="M105,-202.08C105,-193.01 105,-183.45 105,-175.89"/>
<polygon fill="midnightblue" stroke="midnightblue" points="101.5,-202.36 105,-212.36 108.5,-202.36 101.5,-202.36"/>
</g>
</g>
</svg>
