<?xml version="1.0" encoding="UTF-8" standalone="no"?>
<!DOCTYPE svg PUBLIC "-//W3C//DTD SVG 1.1//EN"
 "http://www.w3.org/Graphics/SVG/1.1/DTD/svg11.dtd">
<!-- Generated by graphviz version 2.43.0 (0)
 -->
<!-- Title: itk::DOMNodeXMLReader Pages: 1 -->
<svg width="1551pt" height="409pt"
 viewBox="0.00 0.00 1551.00 408.69" xmlns="http://www.w3.org/2000/svg" xmlns:xlink="http://www.w3.org/1999/xlink">
<g id="graph0" class="graph" transform="scale(1 1) rotate(0) translate(4 404.69)">
<title>itk::DOMNodeXMLReader</title>
<polygon fill="white" stroke="transparent" points="-4,4 -4,-404.69 1547,-404.69 1547,4 -4,4"/>
<!-- Node1 -->
<g id="node1" class="node">
<title>Node1</title>
<g id="a_node1"><a xlink:title="Class to read a DOM object from an XML file or an input stream.">
<polygon fill="#bfbfbf" stroke="black" points="1403,-221.19 1403,-240.19 1543,-240.19 1543,-221.19 1403,-221.19"/>
<text text-anchor="middle" x="1473" y="-228.19" font-family="Helvetica,sans-Serif" font-size="10.00">itk::DOMNodeXMLReader</text>
</a>
</g>
</g>
<!-- Node2 -->
<g id="node2" class="node">
<title>Node2</title>
<g id="a_node2"><a xlink:href="classitk_1_1Object.html" target="_top" xlink:title="Base class for most ITK classes.">
<polygon fill="white" stroke="black" points="971,-287.19 971,-306.19 1038,-306.19 1038,-287.19 971,-287.19"/>
<text text-anchor="middle" x="1004.5" y="-294.19" font-family="Helvetica,sans-Serif" font-size="10.00">itk::Object</text>
</a>
</g>
</g>
<!-- Node2&#45;&gt;Node1 -->
<g id="edge1" class="edge">
<title>Node2&#45;&gt;Node1</title>
<path fill="none" stroke="midnightblue" d="M1048.36,-295.06C1119.1,-291.75 1264.49,-282.33 1385,-257.69 1405.92,-253.42 1428.97,-246.14 1446.08,-240.22"/>
<polygon fill="midnightblue" stroke="midnightblue" points="1047.9,-291.58 1038.07,-295.52 1048.21,-298.57 1047.9,-291.58"/>
</g>
<!-- Node14 -->
<g id="node14" class="node">
<title>Node14</title>
<g id="a_node14"><a xlink:href="classitk_1_1DOMNode.html" target="_top" xlink:title="Class to represent a node in a Document Object Model (DOM) tree structure.">
<polygon fill="white" stroke="black" points="1225,-146.19 1225,-165.19 1310,-165.19 1310,-146.19 1225,-146.19"/>
<text text-anchor="middle" x="1267.5" y="-153.19" font-family="Helvetica,sans-Serif" font-size="10.00">itk::DOMNode</text>
</a>
</g>
</g>
<!-- Node2&#45;&gt;Node14 -->
<g id="edge15" class="edge">
<title>Node2&#45;&gt;Node14</title>
<path fill="none" stroke="midnightblue" d="M1022.96,-280.17C1041.12,-263.83 1071.04,-239.25 1101,-224.69 1144.83,-203.4 1162.73,-217.04 1207,-196.69 1225.01,-188.42 1243.45,-174.74 1254.94,-165.48"/>
<polygon fill="midnightblue" stroke="midnightblue" points="1020.49,-277.68 1015.49,-287.02 1025.22,-282.84 1020.49,-277.68"/>
</g>
<!-- Node3 -->
<g id="node3" class="node">
<title>Node3</title>
<g id="a_node3"><a xlink:href="classitk_1_1LightObject.html" target="_top" xlink:title="Light weight base class for most itk classes.">
<polygon fill="white" stroke="black" points="660.5,-269.19 660.5,-288.19 751.5,-288.19 751.5,-269.19 660.5,-269.19"/>
<text text-anchor="middle" x="706" y="-276.19" font-family="Helvetica,sans-Serif" font-size="10.00">itk::LightObject</text>
</a>
</g>
</g>
<!-- Node3&#45;&gt;Node2 -->
<g id="edge2" class="edge">
<title>Node3&#45;&gt;Node2</title>
<path fill="none" stroke="midnightblue" d="M761.85,-283.51C771.56,-284.29 781.57,-285.06 791,-285.69 854.58,-289.99 928.96,-293.49 970.72,-295.32"/>
<polygon fill="midnightblue" stroke="midnightblue" points="762.13,-280.02 751.88,-282.69 761.56,-287 762.13,-280.02"/>
</g>
<!-- Node4 -->
<g id="node4" class="node">
<title>Node4</title>
<g id="a_node4"><a xlink:title=" ">
<polygon fill="white" stroke="#bfbfbf" points="378,-269.19 378,-288.19 485,-288.19 485,-269.19 378,-269.19"/>
<text text-anchor="middle" x="431.5" y="-276.19" font-family="Helvetica,sans-Serif" font-size="10.00">std::atomic&lt; int &gt;</text>
</a>
</g>
</g>
<!-- Node4&#45;&gt;Node3 -->
<g id="edge3" class="edge">
<title>Node4&#45;&gt;Node3</title>
<path fill="none" stroke="#9a32cd" stroke-dasharray="5,2" d="M495.18,-278.69C545.64,-278.69 615.33,-278.69 660.29,-278.69"/>
<polygon fill="#9a32cd" stroke="#9a32cd" points="495.04,-275.19 485.04,-278.69 495.04,-282.19 495.04,-275.19"/>
<text text-anchor="middle" x="572.5" y="-281.69" font-family="Helvetica,sans-Serif" font-size="10.00"> m_ReferenceCount</text>
</g>
<!-- Node5 -->
<g id="node5" class="node">
<title>Node5</title>
<g id="a_node5"><a xlink:title="STL class.">
<polygon fill="white" stroke="#bfbfbf" points="673.5,-178.19 673.5,-197.19 738.5,-197.19 738.5,-178.19 673.5,-178.19"/>
<text text-anchor="middle" x="706" y="-185.19" font-family="Helvetica,sans-Serif" font-size="10.00">std::string</text>
</a>
</g>
</g>
<!-- Node5&#45;&gt;Node1 -->
<g id="edge24" class="edge">
<title>Node5&#45;&gt;Node1</title>
<path fill="none" stroke="#9a32cd" stroke-dasharray="5,2" d="M748.74,-196.47C792.63,-205.25 863.82,-218.21 926,-223.69 1096.92,-238.75 1299.09,-236.01 1402.88,-233.12"/>
<polygon fill="#9a32cd" stroke="#9a32cd" points="749.22,-193 738.73,-194.45 747.83,-199.86 749.22,-193"/>
<text text-anchor="middle" x="1154" y="-237.69" font-family="Helvetica,sans-Serif" font-size="10.00"> m_FileName</text>
</g>
<!-- Node5&#45;&gt;Node2 -->
<g id="edge4" class="edge">
<title>Node5&#45;&gt;Node2</title>
<path fill="none" stroke="#9a32cd" stroke-dasharray="5,2" d="M723.77,-204.38C739.69,-219.21 764.99,-240.25 791,-251.69 839.36,-272.96 856.35,-261.58 908,-272.69 929.06,-277.22 952.52,-283.11 970.92,-287.92"/>
<polygon fill="#9a32cd" stroke="#9a32cd" points="725.99,-201.66 716.34,-197.28 721.15,-206.72 725.99,-201.66"/>
<text text-anchor="middle" x="849.5" y="-275.69" font-family="Helvetica,sans-Serif" font-size="10.00"> m_ObjectName</text>
</g>
<!-- Node5&#45;&gt;Node14 -->
<g id="edge22" class="edge">
<title>Node5&#45;&gt;Node14</title>
<path fill="none" stroke="#9a32cd" stroke-dasharray="5,2" d="M748.74,-179C792.63,-170.34 863.82,-157.63 926,-152.69 995.56,-147.17 1013.22,-152.12 1083,-152.69 1131.75,-153.09 1187.77,-154.08 1224.96,-154.82"/>
<polygon fill="#9a32cd" stroke="#9a32cd" points="747.85,-175.61 738.73,-181 749.22,-182.47 747.85,-175.61"/>
<text text-anchor="middle" x="1004.5" y="-166.69" font-family="Helvetica,sans-Serif" font-size="10.00"> m_Name</text>
<text text-anchor="middle" x="1004.5" y="-155.69" font-family="Helvetica,sans-Serif" font-size="10.00">m_ID</text>
</g>
<!-- Node15 -->
<g id="node15" class="node">
<title>Node15</title>
<g id="a_node15"><a xlink:title=" ">
<polygon fill="white" stroke="#bfbfbf" points="926,-76.69 926,-106.69 1083,-106.69 1083,-76.69 926,-76.69"/>
<text text-anchor="start" x="934" y="-94.69" font-family="Helvetica,sans-Serif" font-size="10.00">std::map&lt; AttributeKeyType,</text>
<text text-anchor="middle" x="1004.5" y="-83.69" font-family="Helvetica,sans-Serif" font-size="10.00"> AttributeValueType &gt;</text>
</a>
</g>
</g>
<!-- Node5&#45;&gt;Node15 -->
<g id="edge17" class="edge">
<title>Node5&#45;&gt;Node15</title>
<path fill="none" stroke="#9a32cd" stroke-dasharray="5,2" d="M719.58,-169.93C734.28,-150.78 760.49,-121.24 791,-107.69 833.01,-89.03 884.3,-84.71 925.96,-85.21"/>
<polygon fill="#9a32cd" stroke="#9a32cd" points="716.64,-168.02 713.5,-178.14 722.27,-172.19 716.64,-168.02"/>
<text text-anchor="middle" x="849.5" y="-121.69" font-family="Helvetica,sans-Serif" font-size="10.00"> keys</text>
<text text-anchor="middle" x="849.5" y="-110.69" font-family="Helvetica,sans-Serif" font-size="10.00">elements</text>
</g>
<!-- Node6 -->
<g id="node6" class="node">
<title>Node6</title>
<g id="a_node6"><a xlink:title="STL class.">
<polygon fill="white" stroke="#bfbfbf" points="379.5,-172.69 379.5,-202.69 483.5,-202.69 483.5,-172.69 379.5,-172.69"/>
<text text-anchor="start" x="387.5" y="-190.69" font-family="Helvetica,sans-Serif" font-size="10.00">std::basic_string&lt;</text>
<text text-anchor="middle" x="431.5" y="-179.69" font-family="Helvetica,sans-Serif" font-size="10.00"> char &gt;</text>
</a>
</g>
</g>
<!-- Node6&#45;&gt;Node5 -->
<g id="edge5" class="edge">
<title>Node6&#45;&gt;Node5</title>
<path fill="none" stroke="midnightblue" d="M493.85,-187.69C549.49,-187.69 629.3,-187.69 673.14,-187.69"/>
<polygon fill="midnightblue" stroke="midnightblue" points="493.76,-184.19 483.76,-187.69 493.76,-191.19 493.76,-184.19"/>
</g>
<!-- Node7 -->
<g id="node7" class="node">
<title>Node7</title>
<g id="a_node7"><a xlink:href="classitk_1_1MetaDataDictionary.html" target="_top" xlink:title="Provides a mechanism for storing a collection of arbitrary data types.">
<polygon fill="white" stroke="black" points="639,-356.19 639,-375.19 773,-375.19 773,-356.19 639,-356.19"/>
<text text-anchor="middle" x="706" y="-363.19" font-family="Helvetica,sans-Serif" font-size="10.00">itk::MetaDataDictionary</text>
</a>
</g>
</g>
<!-- Node7&#45;&gt;Node2 -->
<g id="edge6" class="edge">
<title>Node7&#45;&gt;Node2</title>
<path fill="none" stroke="#9a32cd" stroke-dasharray="5,2" d="M783.1,-360.54C821.13,-356.7 867.55,-350.06 908,-338.69 936.25,-330.75 966.99,-316.04 985.75,-306.31"/>
<polygon fill="#9a32cd" stroke="#9a32cd" points="782.74,-357.06 773.12,-361.51 783.41,-364.03 782.74,-357.06"/>
<text text-anchor="middle" x="849.5" y="-361.69" font-family="Helvetica,sans-Serif" font-size="10.00"> m_MetaDataDictionary</text>
</g>
<!-- Node8 -->
<g id="node8" class="node">
<title>Node8</title>
<g id="a_node8"><a xlink:title=" ">
<polygon fill="white" stroke="#bfbfbf" points="357,-351.69 357,-381.69 506,-381.69 506,-351.69 357,-351.69"/>
<text text-anchor="start" x="365" y="-369.69" font-family="Helvetica,sans-Serif" font-size="10.00">std::shared_ptr&lt; MetaData</text>
<text text-anchor="middle" x="431.5" y="-358.69" font-family="Helvetica,sans-Serif" font-size="10.00">DictionaryMapType &gt;</text>
</a>
</g>
</g>
<!-- Node8&#45;&gt;Node7 -->
<g id="edge7" class="edge">
<title>Node8&#45;&gt;Node7</title>
<path fill="none" stroke="#9a32cd" stroke-dasharray="5,2" d="M516.34,-366.38C555.65,-366.24 601.82,-366.07 638.65,-365.94"/>
<polygon fill="#9a32cd" stroke="#9a32cd" points="516.23,-362.88 506.24,-366.42 516.26,-369.88 516.23,-362.88"/>
<text text-anchor="middle" x="572.5" y="-368.69" font-family="Helvetica,sans-Serif" font-size="10.00"> m_Dictionary</text>
</g>
<!-- Node9 -->
<g id="node9" class="node">
<title>Node9</title>
<g id="a_node9"><a xlink:title="STL class.">
<polygon fill="white" stroke="#bfbfbf" points="114,-357.19 114,-376.19 215,-376.19 215,-357.19 114,-357.19"/>
<text text-anchor="middle" x="164.5" y="-364.19" font-family="Helvetica,sans-Serif" font-size="10.00">std::map&lt; K, T &gt;</text>
</a>
</g>
</g>
<!-- Node9&#45;&gt;Node8 -->
<g id="edge8" class="edge">
<title>Node9&#45;&gt;Node8</title>
<path fill="none" stroke="#9a32cd" stroke-dasharray="5,2" d="M225.18,-366.69C264.19,-366.69 315.41,-366.69 356.93,-366.69"/>
<polygon fill="#9a32cd" stroke="#9a32cd" points="225.03,-363.19 215.03,-366.69 225.03,-370.19 225.03,-363.19"/>
<text text-anchor="middle" x="286" y="-369.69" font-family="Helvetica,sans-Serif" font-size="10.00"> ptr</text>
</g>
<!-- Node10 -->
<g id="node10" class="node">
<title>Node10</title>
<g id="a_node10"><a xlink:title=" ">
<polygon fill="white" stroke="#bfbfbf" points="0,-381.19 0,-400.19 29,-400.19 29,-381.19 0,-381.19"/>
<text text-anchor="middle" x="14.5" y="-388.19" font-family="Helvetica,sans-Serif" font-size="10.00">K</text>
</a>
</g>
</g>
<!-- Node10&#45;&gt;Node9 -->
<g id="edge9" class="edge">
<title>Node10&#45;&gt;Node9</title>
<path fill="none" stroke="#9a32cd" stroke-dasharray="5,2" d="M39.24,-386.84C59.28,-383.59 88.63,-378.83 113.78,-374.75"/>
<polygon fill="#9a32cd" stroke="#9a32cd" points="38.47,-383.42 29.16,-388.48 39.59,-390.33 38.47,-383.42"/>
<text text-anchor="middle" x="71.5" y="-387.69" font-family="Helvetica,sans-Serif" font-size="10.00"> keys</text>
</g>
<!-- Node11 -->
<g id="node11" class="node">
<title>Node11</title>
<g id="a_node11"><a xlink:title=" ">
<polygon fill="white" stroke="#bfbfbf" points="0,-328.19 0,-347.19 29,-347.19 29,-328.19 0,-328.19"/>
<text text-anchor="middle" x="14.5" y="-335.19" font-family="Helvetica,sans-Serif" font-size="10.00">T</text>
</a>
</g>
</g>
<!-- Node11&#45;&gt;Node9 -->
<g id="edge10" class="edge">
<title>Node11&#45;&gt;Node9</title>
<path fill="none" stroke="#9a32cd" stroke-dasharray="5,2" d="M39.09,-342.31C59.39,-346.29 89.35,-352.16 114.78,-357.15"/>
<polygon fill="#9a32cd" stroke="#9a32cd" points="39.64,-338.86 29.16,-340.37 38.3,-345.73 39.64,-338.86"/>
<text text-anchor="middle" x="71.5" y="-355.69" font-family="Helvetica,sans-Serif" font-size="10.00"> elements</text>
</g>
<!-- Node13 -->
<g id="node13" class="node">
<title>Node13</title>
<g id="a_node13"><a xlink:title="STL class.">
<polygon fill="white" stroke="#bfbfbf" points="114.5,-313.19 114.5,-332.19 214.5,-332.19 214.5,-313.19 114.5,-313.19"/>
<text text-anchor="middle" x="164.5" y="-320.19" font-family="Helvetica,sans-Serif" font-size="10.00">std::atomic&lt; T &gt;</text>
</a>
</g>
</g>
<!-- Node11&#45;&gt;Node13 -->
<g id="edge13" class="edge">
<title>Node11&#45;&gt;Node13</title>
<path fill="none" stroke="#9a32cd" stroke-dasharray="5,2" d="M38.4,-326.24C41.24,-325.2 44.15,-324.31 47,-323.69 68.74,-318.98 93.31,-318.13 114.26,-318.7"/>
<polygon fill="#9a32cd" stroke="#9a32cd" points="37.03,-323.01 29.19,-330.14 39.77,-329.46 37.03,-323.01"/>
<text text-anchor="middle" x="71.5" y="-326.69" font-family="Helvetica,sans-Serif" font-size="10.00"> ptr</text>
</g>
<!-- Node12 -->
<g id="node12" class="node">
<title>Node12</title>
<g id="a_node12"><a xlink:href="classitk_1_1TimeStamp.html" target="_top" xlink:title="Generate a unique, increasing time value.">
<polygon fill="white" stroke="black" points="526.5,-314.19 526.5,-333.19 618.5,-333.19 618.5,-314.19 526.5,-314.19"/>
<text text-anchor="middle" x="572.5" y="-321.19" font-family="Helvetica,sans-Serif" font-size="10.00">itk::TimeStamp</text>
</a>
</g>
</g>
<!-- Node12&#45;&gt;Node2 -->
<g id="edge11" class="edge">
<title>Node12&#45;&gt;Node2</title>
<path fill="none" stroke="#9a32cd" stroke-dasharray="5,2" d="M628.9,-320.21C695.25,-316.05 809.74,-308.86 908,-302.69 928.89,-301.38 952.35,-299.91 970.79,-298.75"/>
<polygon fill="#9a32cd" stroke="#9a32cd" points="628.44,-316.74 618.68,-320.86 628.88,-323.72 628.44,-316.74"/>
<text text-anchor="middle" x="706" y="-321.69" font-family="Helvetica,sans-Serif" font-size="10.00"> m_MTime</text>
</g>
<!-- Node13&#45;&gt;Node12 -->
<g id="edge12" class="edge">
<title>Node13&#45;&gt;Node12</title>
<path fill="none" stroke="#9a32cd" stroke-dasharray="5,2" d="M225.03,-322.84C306.93,-323.04 452.57,-323.4 526.2,-323.58"/>
<polygon fill="#9a32cd" stroke="#9a32cd" points="224.89,-319.34 214.88,-322.81 224.87,-326.34 224.89,-319.34"/>
<text text-anchor="middle" x="286" y="-325.69" font-family="Helvetica,sans-Serif" font-size="10.00"> m_GlobalTimeStamp</text>
</g>
<!-- Node14&#45;&gt;Node1 -->
<g id="edge14" class="edge">
<title>Node14&#45;&gt;Node1</title>
<path fill="none" stroke="#9a32cd" stroke-dasharray="5,2" d="M1304.18,-168.84C1344.71,-183.78 1409.87,-207.79 1445.91,-221.08"/>
<polygon fill="#9a32cd" stroke="#9a32cd" points="1305.28,-165.52 1294.69,-165.34 1302.86,-172.09 1305.28,-165.52"/>
<text text-anchor="middle" x="1356.5" y="-200.69" font-family="Helvetica,sans-Serif" font-size="10.00"> m_Context</text>
</g>
<!-- Node14&#45;&gt;Node14 -->
<g id="edge20" class="edge">
<title>Node14&#45;&gt;Node14</title>
<path fill="none" stroke="#9a32cd" stroke-dasharray="5,2" d="M1251.2,-175.09C1252.29,-180.01 1257.72,-183.69 1267.5,-183.69 1283.14,-183.69 1287.66,-174.26 1281.06,-165.45"/>
<polygon fill="#9a32cd" stroke="#9a32cd" points="1254.58,-176.02 1253.94,-165.45 1247.84,-174.12 1254.58,-176.02"/>
<text text-anchor="middle" x="1267.5" y="-186.69" font-family="Helvetica,sans-Serif" font-size="10.00"> m_Parent</text>
</g>
<!-- Node15&#45;&gt;Node14 -->
<g id="edge16" class="edge">
<title>Node15&#45;&gt;Node14</title>
<path fill="none" stroke="#9a32cd" stroke-dasharray="5,2" d="M1093.38,-95.38C1129.41,-98.95 1171.02,-105.77 1207,-118.69 1224.86,-125.11 1243.05,-137.44 1254.53,-146.1"/>
<polygon fill="#9a32cd" stroke="#9a32cd" points="1093.66,-91.89 1083.38,-94.46 1093.01,-98.86 1093.66,-91.89"/>
<text text-anchor="middle" x="1154" y="-121.69" font-family="Helvetica,sans-Serif" font-size="10.00"> m_Attributes</text>
</g>
<!-- Node16 -->
<g id="node16" class="node">
<title>Node16</title>
<g id="a_node16"><a xlink:title=" ">
<polygon fill="white" stroke="#bfbfbf" points="942,-38.19 942,-57.19 1067,-57.19 1067,-38.19 942,-38.19"/>
<text text-anchor="middle" x="1004.5" y="-45.19" font-family="Helvetica,sans-Serif" font-size="10.00">std::vector&lt; Pointer &gt;</text>
</a>
</g>
</g>
<!-- Node16&#45;&gt;Node14 -->
<g id="edge18" class="edge">
<title>Node16&#45;&gt;Node14</title>
<path fill="none" stroke="#9a32cd" stroke-dasharray="5,2" d="M1077.18,-47.48C1117.7,-50.26 1167.93,-58.78 1207,-81.69 1233.73,-97.37 1253.29,-129.93 1261.79,-146.12"/>
<polygon fill="#9a32cd" stroke="#9a32cd" points="1077.28,-43.98 1067.09,-46.9 1076.87,-50.97 1077.28,-43.98"/>
<text text-anchor="middle" x="1154" y="-84.69" font-family="Helvetica,sans-Serif" font-size="10.00"> m_Children</text>
</g>
<!-- Node17 -->
<g id="node17" class="node">
<title>Node17</title>
<g id="a_node17"><a xlink:href="classitk_1_1SmartPointer.html" target="_top" xlink:title=" ">
<polygon fill="white" stroke="black" points="652.5,-12.69 652.5,-42.69 759.5,-42.69 759.5,-12.69 652.5,-12.69"/>
<text text-anchor="start" x="660.5" y="-30.69" font-family="Helvetica,sans-Serif" font-size="10.00">itk::SmartPointer&lt;</text>
<text text-anchor="middle" x="706" y="-19.69" font-family="Helvetica,sans-Serif" font-size="10.00"> Self &gt;</text>
</a>
</g>
</g>
<!-- Node17&#45;&gt;Node1 -->
<g id="edge23" class="edge">
<title>Node17&#45;&gt;Node1</title>
<path fill="none" stroke="#9a32cd" stroke-dasharray="5,2" d="M769.66,-16.1C866.7,-0.88 1057.69,18.03 1207,-35.69 1323.09,-77.46 1431.94,-187.57 1463.12,-220.96"/>
<polygon fill="#9a32cd" stroke="#9a32cd" points="769.04,-12.65 759.72,-17.69 770.15,-19.56 769.04,-12.65"/>
<text text-anchor="middle" x="1154" y="-38.69" font-family="Helvetica,sans-Serif" font-size="10.00"> m_DOMNodeXML</text>
</g>
<!-- Node17&#45;&gt;Node16 -->
<g id="edge19" class="edge">
<title>Node17&#45;&gt;Node16</title>
<path fill="none" stroke="#9a32cd" stroke-dasharray="5,2" d="M769.84,-31.93C820.54,-35.35 891.46,-40.13 941.84,-43.53"/>
<polygon fill="#9a32cd" stroke="#9a32cd" points="769.88,-28.43 759.67,-31.24 769.41,-35.41 769.88,-28.43"/>
<text text-anchor="middle" x="849.5" y="-44.69" font-family="Helvetica,sans-Serif" font-size="10.00"> elements</text>
</g>
<!-- Node18 -->
<g id="node18" class="node">
<title>Node18</title>
<g id="a_node18"><a xlink:title=" ">
<polygon fill="white" stroke="#bfbfbf" points="940,-184.69 940,-214.69 1069,-214.69 1069,-184.69 940,-184.69"/>
<text text-anchor="start" x="948" y="-202.69" font-family="Helvetica,sans-Serif" font-size="10.00">std::list&lt; AttributeItem</text>
<text text-anchor="middle" x="1004.5" y="-191.69" font-family="Helvetica,sans-Serif" font-size="10.00">Type * &gt;</text>
</a>
</g>
</g>
<!-- Node18&#45;&gt;Node14 -->
<g id="edge21" class="edge">
<title>Node18&#45;&gt;Node14</title>
<path fill="none" stroke="#9a32cd" stroke-dasharray="5,2" d="M1078.88,-187.32C1126.02,-179.37 1185.57,-169.34 1224.78,-162.73"/>
<polygon fill="#9a32cd" stroke="#9a32cd" points="1078.29,-183.87 1069.01,-188.98 1079.46,-190.77 1078.29,-183.87"/>
<text text-anchor="middle" x="1154" y="-186.69" font-family="Helvetica,sans-Serif" font-size="10.00"> m_OrderedAttributes</text>
</g>
</g>
</svg>
