<?xml version="1.0" encoding="UTF-8" standalone="no"?>
<!DOCTYPE svg PUBLIC "-//W3C//DTD SVG 1.1//EN"
 "http://www.w3.org/Graphics/SVG/1.1/DTD/svg11.dtd">
<!-- Generated by graphviz version 2.43.0 (0)
 -->
<!-- Title: itk::SmoothingQuadEdgeMeshFilter&lt; TInputMesh, TOutputMesh &gt; Pages: 1 -->
<svg width="2344pt" height="440pt"
 viewBox="0.00 0.00 2344.00 440.10" xmlns="http://www.w3.org/2000/svg" xmlns:xlink="http://www.w3.org/1999/xlink">
<g id="graph0" class="graph" transform="scale(1 1) rotate(0) translate(4 436.1)">
<title>itk::SmoothingQuadEdgeMeshFilter&lt; TInputMesh, TOutputMesh &gt;</title>
<polygon fill="white" stroke="transparent" points="-4,4 -4,-436.1 2340,-436.1 2340,4 -4,4"/>
<!-- Node1 -->
<g id="node1" class="node">
<title>Node1</title>
<g id="a_node1"><a xlink:title="QuadEdgeMesh Smoothing Filter.">
<polygon fill="#bfbfbf" stroke="black" points="2144,-275.1 2144,-305.1 2336,-305.1 2336,-275.1 2144,-275.1"/>
<text text-anchor="start" x="2152" y="-293.1" font-family="Helvetica,sans-Serif" font-size="10.00">itk::SmoothingQuadEdgeMesh</text>
<text text-anchor="middle" x="2240" y="-282.1" font-family="Helvetica,sans-Serif" font-size="10.00">Filter&lt; TInputMesh, TOutputMesh &gt;</text>
</a>
</g>
</g>
<!-- Node2 -->
<g id="node2" class="node">
<title>Node2</title>
<g id="a_node2"><a xlink:href="classitk_1_1QuadEdgeMeshToQuadEdgeMeshFilter.html" target="_top" xlink:title=" ">
<polygon fill="white" stroke="black" points="1824,-269.6 1824,-310.6 1995,-310.6 1995,-269.6 1824,-269.6"/>
<text text-anchor="start" x="1832" y="-298.6" font-family="Helvetica,sans-Serif" font-size="10.00">itk::QuadEdgeMeshToQuadEdge</text>
<text text-anchor="start" x="1832" y="-287.6" font-family="Helvetica,sans-Serif" font-size="10.00">MeshFilter&lt; TInputMesh,</text>
<text text-anchor="middle" x="1909.5" y="-276.6" font-family="Helvetica,sans-Serif" font-size="10.00"> TInputMesh &gt;</text>
</a>
</g>
</g>
<!-- Node2&#45;&gt;Node1 -->
<g id="edge1" class="edge">
<title>Node2&#45;&gt;Node1</title>
<path fill="none" stroke="midnightblue" d="M2005.13,-290.1C2048.72,-290.1 2100.33,-290.1 2143.97,-290.1"/>
<polygon fill="midnightblue" stroke="midnightblue" points="2005.1,-286.6 1995.1,-290.1 2005.1,-293.6 2005.1,-286.6"/>
</g>
<!-- Node3 -->
<g id="node3" class="node">
<title>Node3</title>
<g id="a_node3"><a xlink:href="classitk_1_1MeshToMeshFilter.html" target="_top" xlink:title=" ">
<polygon fill="white" stroke="black" points="1628,-269.1 1628,-299.1 1787,-299.1 1787,-269.1 1628,-269.1"/>
<text text-anchor="start" x="1636" y="-287.1" font-family="Helvetica,sans-Serif" font-size="10.00">itk::MeshToMeshFilter</text>
<text text-anchor="middle" x="1707.5" y="-276.1" font-family="Helvetica,sans-Serif" font-size="10.00">&lt; TInputMesh, TInputMesh &gt;</text>
</a>
</g>
</g>
<!-- Node3&#45;&gt;Node2 -->
<g id="edge2" class="edge">
<title>Node3&#45;&gt;Node2</title>
<path fill="none" stroke="midnightblue" d="M1797.49,-286.77C1806.26,-287.04 1815.15,-287.3 1823.88,-287.56"/>
<polygon fill="midnightblue" stroke="midnightblue" points="1797.36,-283.27 1787.26,-286.47 1797.15,-290.26 1797.36,-283.27"/>
</g>
<!-- Node4 -->
<g id="node4" class="node">
<title>Node4</title>
<g id="a_node4"><a xlink:href="classitk_1_1MeshSource.html" target="_top" xlink:title=" ">
<polygon fill="white" stroke="black" points="1417,-247.6 1417,-266.6 1591,-266.6 1591,-247.6 1417,-247.6"/>
<text text-anchor="middle" x="1504" y="-254.6" font-family="Helvetica,sans-Serif" font-size="10.00">itk::MeshSource&lt; TInputMesh &gt;</text>
</a>
</g>
</g>
<!-- Node4&#45;&gt;Node3 -->
<g id="edge3" class="edge">
<title>Node4&#45;&gt;Node3</title>
<path fill="none" stroke="midnightblue" d="M1585.99,-267.96C1599.8,-269.81 1614.12,-271.73 1627.87,-273.57"/>
<polygon fill="midnightblue" stroke="midnightblue" points="1586.42,-264.48 1576.04,-266.62 1585.49,-271.42 1586.42,-264.48"/>
</g>
<!-- Node5 -->
<g id="node5" class="node">
<title>Node5</title>
<g id="a_node5"><a xlink:href="classitk_1_1ProcessObject.html" target="_top" xlink:title="The base class for all process objects (source, filters, mappers) in the Insight data processing pipe...">
<polygon fill="white" stroke="black" points="1276,-209.6 1276,-228.6 1380,-228.6 1380,-209.6 1276,-209.6"/>
<text text-anchor="middle" x="1328" y="-216.6" font-family="Helvetica,sans-Serif" font-size="10.00">itk::ProcessObject</text>
</a>
</g>
</g>
<!-- Node5&#45;&gt;Node4 -->
<g id="edge4" class="edge">
<title>Node5&#45;&gt;Node4</title>
<path fill="none" stroke="midnightblue" d="M1382.81,-230.86C1407.42,-236.23 1436.19,-242.51 1459.41,-247.58"/>
<polygon fill="midnightblue" stroke="midnightblue" points="1383.42,-227.41 1372.91,-228.69 1381.93,-234.25 1383.42,-227.41"/>
</g>
<!-- Node6 -->
<g id="node6" class="node">
<title>Node6</title>
<g id="a_node6"><a xlink:href="classitk_1_1Object.html" target="_top" xlink:title="Base class for most ITK classes.">
<polygon fill="white" stroke="black" points="980,-116.6 980,-135.6 1047,-135.6 1047,-116.6 980,-116.6"/>
<text text-anchor="middle" x="1013.5" y="-123.6" font-family="Helvetica,sans-Serif" font-size="10.00">itk::Object</text>
</a>
</g>
</g>
<!-- Node6&#45;&gt;Node5 -->
<g id="edge5" class="edge">
<title>Node6&#45;&gt;Node5</title>
<path fill="none" stroke="midnightblue" d="M1057.41,-128.2C1107.35,-131.91 1191.46,-142.11 1258,-170.1 1281.02,-179.79 1303.9,-198.22 1316.67,-209.51"/>
<polygon fill="midnightblue" stroke="midnightblue" points="1057.51,-124.7 1047.29,-127.51 1057.03,-131.69 1057.51,-124.7"/>
</g>
<!-- Node7 -->
<g id="node7" class="node">
<title>Node7</title>
<g id="a_node7"><a xlink:href="classitk_1_1LightObject.html" target="_top" xlink:title="Light weight base class for most itk classes.">
<polygon fill="white" stroke="black" points="659,-107.6 659,-126.6 750,-126.6 750,-107.6 659,-107.6"/>
<text text-anchor="middle" x="704.5" y="-114.6" font-family="Helvetica,sans-Serif" font-size="10.00">itk::LightObject</text>
</a>
</g>
</g>
<!-- Node7&#45;&gt;Node6 -->
<g id="edge6" class="edge">
<title>Node7&#45;&gt;Node6</title>
<path fill="none" stroke="midnightblue" d="M760.4,-118.71C824.13,-120.58 927.17,-123.6 979.59,-125.14"/>
<polygon fill="midnightblue" stroke="midnightblue" points="760.24,-115.21 750.14,-118.41 760.03,-122.2 760.24,-115.21"/>
</g>
<!-- Node8 -->
<g id="node8" class="node">
<title>Node8</title>
<g id="a_node8"><a xlink:title=" ">
<polygon fill="white" stroke="#bfbfbf" points="372,-104.6 372,-123.6 479,-123.6 479,-104.6 372,-104.6"/>
<text text-anchor="middle" x="425.5" y="-111.6" font-family="Helvetica,sans-Serif" font-size="10.00">std::atomic&lt; int &gt;</text>
</a>
</g>
</g>
<!-- Node8&#45;&gt;Node7 -->
<g id="edge7" class="edge">
<title>Node8&#45;&gt;Node7</title>
<path fill="none" stroke="#9a32cd" stroke-dasharray="5,2" d="M489.29,-114.78C540.91,-115.34 612.77,-116.12 658.72,-116.62"/>
<polygon fill="#9a32cd" stroke="#9a32cd" points="489.29,-111.28 479.25,-114.67 489.22,-118.28 489.29,-111.28"/>
<text text-anchor="middle" x="566.5" y="-120.1" font-family="Helvetica,sans-Serif" font-size="10.00"> m_ReferenceCount</text>
</g>
<!-- Node9 -->
<g id="node9" class="node">
<title>Node9</title>
<g id="a_node9"><a xlink:title="STL class.">
<polygon fill="white" stroke="#bfbfbf" points="672,-228.6 672,-247.6 737,-247.6 737,-228.6 672,-228.6"/>
<text text-anchor="middle" x="704.5" y="-235.6" font-family="Helvetica,sans-Serif" font-size="10.00">std::string</text>
</a>
</g>
</g>
<!-- Node9&#45;&gt;Node6 -->
<g id="edge8" class="edge">
<title>Node9&#45;&gt;Node6</title>
<path fill="none" stroke="#9a32cd" stroke-dasharray="5,2" d="M726.84,-222.78C744.15,-211.05 769.6,-195.36 794,-186.1 843.55,-167.3 864.23,-188.03 911,-163.1 920.98,-157.78 919.1,-150.57 929,-145.1 944.49,-136.55 963.62,-131.84 979.66,-129.26"/>
<polygon fill="#9a32cd" stroke="#9a32cd" points="724.81,-219.93 718.58,-228.49 728.79,-225.68 724.81,-219.93"/>
<text text-anchor="middle" x="852.5" y="-189.1" font-family="Helvetica,sans-Serif" font-size="10.00"> m_ObjectName</text>
</g>
<!-- Node18 -->
<g id="node18" class="node">
<title>Node18</title>
<g id="a_node18"><a xlink:title=" ">
<polygon fill="white" stroke="#bfbfbf" points="932.5,-204.1 932.5,-234.1 1094.5,-234.1 1094.5,-204.1 932.5,-204.1"/>
<text text-anchor="start" x="940.5" y="-222.1" font-family="Helvetica,sans-Serif" font-size="10.00">std::set&lt; DataObjectIdentifier</text>
<text text-anchor="middle" x="1013.5" y="-211.1" font-family="Helvetica,sans-Serif" font-size="10.00">Type &gt;</text>
</a>
</g>
</g>
<!-- Node9&#45;&gt;Node18 -->
<g id="edge19" class="edge">
<title>Node9&#45;&gt;Node18</title>
<path fill="none" stroke="#9a32cd" stroke-dasharray="5,2" d="M747.27,-238.46C788.85,-238.5 854.43,-237.68 911,-233.1 917.91,-232.54 925.08,-231.83 932.25,-231.02"/>
<polygon fill="#9a32cd" stroke="#9a32cd" points="747.25,-234.96 737.24,-238.44 747.23,-241.96 747.25,-234.96"/>
<text text-anchor="middle" x="852.5" y="-242.1" font-family="Helvetica,sans-Serif" font-size="10.00"> keys</text>
</g>
<!-- Node19 -->
<g id="node19" class="node">
<title>Node19</title>
<g id="a_node19"><a xlink:title=" ">
<polygon fill="white" stroke="#bfbfbf" points="929,-155.1 929,-185.1 1098,-185.1 1098,-155.1 929,-155.1"/>
<text text-anchor="start" x="937" y="-173.1" font-family="Helvetica,sans-Serif" font-size="10.00">std::map&lt; DataObjectIdentifier</text>
<text text-anchor="middle" x="1013.5" y="-162.1" font-family="Helvetica,sans-Serif" font-size="10.00">Type, bool &gt;</text>
</a>
</g>
</g>
<!-- Node9&#45;&gt;Node19 -->
<g id="edge21" class="edge">
<title>Node9&#45;&gt;Node19</title>
<path fill="none" stroke="#9a32cd" stroke-dasharray="5,2" d="M746.91,-229.48C761.75,-226.44 778.61,-223.05 794,-220.1 845.89,-210.17 859.54,-211.04 911,-199.1 913.71,-198.47 936.71,-191.91 960.13,-185.19"/>
<polygon fill="#9a32cd" stroke="#9a32cd" points="746.09,-226.07 737,-231.51 747.5,-232.93 746.09,-226.07"/>
<text text-anchor="middle" x="852.5" y="-223.1" font-family="Helvetica,sans-Serif" font-size="10.00"> keys</text>
</g>
<!-- Node24 -->
<g id="node24" class="node">
<title>Node24</title>
<g id="a_node24"><a xlink:title=" ">
<polygon fill="white" stroke="#bfbfbf" points="929,-351.1 929,-381.1 1098,-381.1 1098,-351.1 929,-351.1"/>
<text text-anchor="start" x="937" y="-369.1" font-family="Helvetica,sans-Serif" font-size="10.00">std::map&lt; DataObjectIdentifier</text>
<text text-anchor="middle" x="1013.5" y="-358.1" font-family="Helvetica,sans-Serif" font-size="10.00">Type, DataObjectPointer &gt;</text>
</a>
</g>
</g>
<!-- Node9&#45;&gt;Node24 -->
<g id="edge28" class="edge">
<title>Node9&#45;&gt;Node24</title>
<path fill="none" stroke="#9a32cd" stroke-dasharray="5,2" d="M747.37,-246.05C803.88,-257.12 898.92,-277.05 911,-288.1 929.35,-304.9 911.09,-323.84 929,-341.1 933.03,-344.99 937.64,-348.27 942.58,-351.05"/>
<polygon fill="#9a32cd" stroke="#9a32cd" points="747.78,-242.57 737.3,-244.09 746.45,-249.44 747.78,-242.57"/>
<text text-anchor="middle" x="852.5" y="-291.1" font-family="Helvetica,sans-Serif" font-size="10.00"> keys</text>
</g>
<!-- Node10 -->
<g id="node10" class="node">
<title>Node10</title>
<g id="a_node10"><a xlink:title="STL class.">
<polygon fill="white" stroke="#bfbfbf" points="373.5,-223.1 373.5,-253.1 477.5,-253.1 477.5,-223.1 373.5,-223.1"/>
<text text-anchor="start" x="381.5" y="-241.1" font-family="Helvetica,sans-Serif" font-size="10.00">std::basic_string&lt;</text>
<text text-anchor="middle" x="425.5" y="-230.1" font-family="Helvetica,sans-Serif" font-size="10.00"> char &gt;</text>
</a>
</g>
</g>
<!-- Node10&#45;&gt;Node9 -->
<g id="edge9" class="edge">
<title>Node10&#45;&gt;Node9</title>
<path fill="none" stroke="midnightblue" d="M487.93,-238.1C544.75,-238.1 626.97,-238.1 671.66,-238.1"/>
<polygon fill="midnightblue" stroke="midnightblue" points="487.63,-234.6 477.63,-238.1 487.63,-241.6 487.63,-234.6"/>
</g>
<!-- Node11 -->
<g id="node11" class="node">
<title>Node11</title>
<g id="a_node11"><a xlink:href="classitk_1_1MetaDataDictionary.html" target="_top" xlink:title="Provides a mechanism for storing a collection of arbitrary data types.">
<polygon fill="white" stroke="black" points="637.5,-146.6 637.5,-165.6 771.5,-165.6 771.5,-146.6 637.5,-146.6"/>
<text text-anchor="middle" x="704.5" y="-153.6" font-family="Helvetica,sans-Serif" font-size="10.00">itk::MetaDataDictionary</text>
</a>
</g>
</g>
<!-- Node11&#45;&gt;Node6 -->
<g id="edge10" class="edge">
<title>Node11&#45;&gt;Node6</title>
<path fill="none" stroke="#9a32cd" stroke-dasharray="5,2" d="M781.74,-148.65C845.39,-142.43 933.03,-133.87 979.86,-129.29"/>
<polygon fill="#9a32cd" stroke="#9a32cd" points="781.35,-145.17 771.74,-149.63 782.03,-152.14 781.35,-145.17"/>
<text text-anchor="middle" x="852.5" y="-151.1" font-family="Helvetica,sans-Serif" font-size="10.00"> m_MetaDataDictionary</text>
</g>
<!-- Node12 -->
<g id="node12" class="node">
<title>Node12</title>
<g id="a_node12"><a xlink:title=" ">
<polygon fill="white" stroke="#bfbfbf" points="351,-143.1 351,-173.1 500,-173.1 500,-143.1 351,-143.1"/>
<text text-anchor="start" x="359" y="-161.1" font-family="Helvetica,sans-Serif" font-size="10.00">std::shared_ptr&lt; MetaData</text>
<text text-anchor="middle" x="425.5" y="-150.1" font-family="Helvetica,sans-Serif" font-size="10.00">DictionaryMapType &gt;</text>
</a>
</g>
</g>
<!-- Node12&#45;&gt;Node11 -->
<g id="edge11" class="edge">
<title>Node12&#45;&gt;Node11</title>
<path fill="none" stroke="#9a32cd" stroke-dasharray="5,2" d="M510.18,-157.5C550.89,-157.21 599.13,-156.86 637.24,-156.58"/>
<polygon fill="#9a32cd" stroke="#9a32cd" points="509.98,-154 500,-157.57 510.03,-161 509.98,-154"/>
<text text-anchor="middle" x="566.5" y="-161.1" font-family="Helvetica,sans-Serif" font-size="10.00"> m_Dictionary</text>
</g>
<!-- Node13 -->
<g id="node13" class="node">
<title>Node13</title>
<g id="a_node13"><a xlink:title="STL class.">
<polygon fill="white" stroke="#bfbfbf" points="114,-147.6 114,-166.6 215,-166.6 215,-147.6 114,-147.6"/>
<text text-anchor="middle" x="164.5" y="-154.6" font-family="Helvetica,sans-Serif" font-size="10.00">std::map&lt; K, T &gt;</text>
</a>
</g>
</g>
<!-- Node13&#45;&gt;Node12 -->
<g id="edge12" class="edge">
<title>Node13&#45;&gt;Node12</title>
<path fill="none" stroke="#9a32cd" stroke-dasharray="5,2" d="M225.34,-157.33C262.61,-157.48 310.86,-157.66 350.52,-157.82"/>
<polygon fill="#9a32cd" stroke="#9a32cd" points="225.14,-153.83 215.13,-157.29 225.12,-160.83 225.14,-153.83"/>
<text text-anchor="middle" x="283" y="-161.1" font-family="Helvetica,sans-Serif" font-size="10.00"> ptr</text>
</g>
<!-- Node14 -->
<g id="node14" class="node">
<title>Node14</title>
<g id="a_node14"><a xlink:title=" ">
<polygon fill="white" stroke="#bfbfbf" points="0,-147.6 0,-166.6 29,-166.6 29,-147.6 0,-147.6"/>
<text text-anchor="middle" x="14.5" y="-154.6" font-family="Helvetica,sans-Serif" font-size="10.00">K</text>
</a>
</g>
</g>
<!-- Node14&#45;&gt;Node13 -->
<g id="edge13" class="edge">
<title>Node14&#45;&gt;Node13</title>
<path fill="none" stroke="#9a32cd" stroke-dasharray="5,2" d="M39.24,-157.1C59.28,-157.1 88.63,-157.1 113.78,-157.1"/>
<polygon fill="#9a32cd" stroke="#9a32cd" points="39.16,-153.6 29.16,-157.1 39.16,-160.6 39.16,-153.6"/>
<text text-anchor="middle" x="71.5" y="-160.1" font-family="Helvetica,sans-Serif" font-size="10.00"> keys</text>
</g>
<!-- Node15 -->
<g id="node15" class="node">
<title>Node15</title>
<g id="a_node15"><a xlink:title=" ">
<polygon fill="white" stroke="#bfbfbf" points="0,-94.6 0,-113.6 29,-113.6 29,-94.6 0,-94.6"/>
<text text-anchor="middle" x="14.5" y="-101.6" font-family="Helvetica,sans-Serif" font-size="10.00">T</text>
</a>
</g>
</g>
<!-- Node15&#45;&gt;Node13 -->
<g id="edge14" class="edge">
<title>Node15&#45;&gt;Node13</title>
<path fill="none" stroke="#9a32cd" stroke-dasharray="5,2" d="M38.78,-112.44C65.36,-121.96 108.76,-137.5 136.72,-147.51"/>
<polygon fill="#9a32cd" stroke="#9a32cd" points="39.75,-109.07 29.16,-108.99 37.39,-115.66 39.75,-109.07"/>
<text text-anchor="middle" x="71.5" y="-136.1" font-family="Helvetica,sans-Serif" font-size="10.00"> elements</text>
</g>
<!-- Node17 -->
<g id="node17" class="node">
<title>Node17</title>
<g id="a_node17"><a xlink:title="STL class.">
<polygon fill="white" stroke="#bfbfbf" points="233,-72.6 233,-91.6 333,-91.6 333,-72.6 233,-72.6"/>
<text text-anchor="middle" x="283" y="-79.6" font-family="Helvetica,sans-Serif" font-size="10.00">std::atomic&lt; T &gt;</text>
</a>
</g>
</g>
<!-- Node15&#45;&gt;Node17 -->
<g id="edge17" class="edge">
<title>Node15&#45;&gt;Node17</title>
<path fill="none" stroke="#9a32cd" stroke-dasharray="5,2" d="M39.45,-101.79C42,-101.55 44.55,-101.32 47,-101.1 111.22,-95.45 185.37,-89.56 232.92,-85.87"/>
<polygon fill="#9a32cd" stroke="#9a32cd" points="38.92,-98.32 29.3,-102.75 39.58,-105.29 38.92,-98.32"/>
<text text-anchor="middle" x="71.5" y="-104.1" font-family="Helvetica,sans-Serif" font-size="10.00"> ptr</text>
</g>
<!-- Node16 -->
<g id="node16" class="node">
<title>Node16</title>
<g id="a_node16"><a xlink:href="classitk_1_1TimeStamp.html" target="_top" xlink:title="Generate a unique, increasing time value.">
<polygon fill="white" stroke="black" points="658.5,-65.6 658.5,-84.6 750.5,-84.6 750.5,-65.6 658.5,-65.6"/>
<text text-anchor="middle" x="704.5" y="-72.6" font-family="Helvetica,sans-Serif" font-size="10.00">itk::TimeStamp</text>
</a>
</g>
</g>
<!-- Node16&#45;&gt;Node5 -->
<g id="edge30" class="edge">
<title>Node16&#45;&gt;Node5</title>
<path fill="none" stroke="#9a32cd" stroke-dasharray="5,2" d="M760.66,-65.65C866.24,-50.59 1100.35,-32.13 1258,-131.1 1289.73,-151.03 1312.84,-190.93 1322.29,-209.36"/>
<polygon fill="#9a32cd" stroke="#9a32cd" points="759.94,-62.22 750.55,-67.14 760.96,-69.14 759.94,-62.22"/>
<text text-anchor="middle" x="1013.5" y="-73.1" font-family="Helvetica,sans-Serif" font-size="10.00"> m_OutputInformationMTime</text>
</g>
<!-- Node16&#45;&gt;Node6 -->
<g id="edge15" class="edge">
<title>Node16&#45;&gt;Node6</title>
<path fill="none" stroke="#9a32cd" stroke-dasharray="5,2" d="M760.69,-82.26C802.14,-87.85 860.26,-96.16 911,-105.1 934.04,-109.16 959.85,-114.52 979.68,-118.8"/>
<polygon fill="#9a32cd" stroke="#9a32cd" points="760.9,-78.76 750.52,-80.9 759.97,-85.69 760.9,-78.76"/>
<text text-anchor="middle" x="852.5" y="-108.1" font-family="Helvetica,sans-Serif" font-size="10.00"> m_MTime</text>
</g>
<!-- Node17&#45;&gt;Node16 -->
<g id="edge16" class="edge">
<title>Node17&#45;&gt;Node16</title>
<path fill="none" stroke="#9a32cd" stroke-dasharray="5,2" d="M343.61,-81.11C428.52,-79.69 582.42,-77.12 658.48,-75.85"/>
<polygon fill="#9a32cd" stroke="#9a32cd" points="343.3,-77.61 333.36,-81.28 343.41,-84.61 343.3,-77.61"/>
<text text-anchor="middle" x="425.5" y="-84.1" font-family="Helvetica,sans-Serif" font-size="10.00"> m_GlobalTimeStamp</text>
</g>
<!-- Node18&#45;&gt;Node5 -->
<g id="edge18" class="edge">
<title>Node18&#45;&gt;Node5</title>
<path fill="none" stroke="#9a32cd" stroke-dasharray="5,2" d="M1104.76,-219.1C1160.22,-219.1 1229.26,-219.1 1275.55,-219.1"/>
<polygon fill="#9a32cd" stroke="#9a32cd" points="1104.57,-215.6 1094.57,-219.1 1104.57,-222.6 1104.57,-215.6"/>
<text text-anchor="middle" x="1187" y="-222.1" font-family="Helvetica,sans-Serif" font-size="10.00"> m_RequiredInputNames</text>
</g>
<!-- Node19&#45;&gt;Node5 -->
<g id="edge20" class="edge">
<title>Node19&#45;&gt;Node5</title>
<path fill="none" stroke="#9a32cd" stroke-dasharray="5,2" d="M1108.39,-173.14C1154.01,-176.08 1209.35,-181.85 1258,-193.1 1274.59,-196.94 1292.56,-203.81 1306.01,-209.52"/>
<polygon fill="#9a32cd" stroke="#9a32cd" points="1108.41,-169.63 1098.21,-172.51 1107.98,-176.62 1108.41,-169.63"/>
<text text-anchor="start" x="1116" y="-207.1" font-family="Helvetica,sans-Serif" font-size="10.00"> m_CachedInputReleaseData</text>
<text text-anchor="middle" x="1187" y="-196.1" font-family="Helvetica,sans-Serif" font-size="10.00">Flags</text>
</g>
<!-- Node20 -->
<g id="node20" class="node">
<title>Node20</title>
<g id="a_node20"><a xlink:title=" ">
<polygon fill="white" stroke="#bfbfbf" points="946.5,-5.6 946.5,-24.6 1080.5,-24.6 1080.5,-5.6 946.5,-5.6"/>
<text text-anchor="middle" x="1013.5" y="-12.6" font-family="Helvetica,sans-Serif" font-size="10.00">std::atomic&lt; uint32_t &gt;</text>
</a>
</g>
</g>
<!-- Node20&#45;&gt;Node5 -->
<g id="edge22" class="edge">
<title>Node20&#45;&gt;Node5</title>
<path fill="none" stroke="#9a32cd" stroke-dasharray="5,2" d="M1070.91,-4.16C1124.5,2.89 1204.61,4.33 1258,-36.1 1315.93,-79.97 1325.22,-178.38 1326.72,-209.48"/>
<polygon fill="#9a32cd" stroke="#9a32cd" points="1070.3,-0.71 1060.89,-5.59 1071.28,-7.64 1070.3,-0.71"/>
<text text-anchor="middle" x="1187" y="-39.1" font-family="Helvetica,sans-Serif" font-size="10.00"> m_Progress</text>
</g>
<!-- Node21 -->
<g id="node21" class="node">
<title>Node21</title>
<g id="a_node21"><a xlink:title=" ">
<polygon fill="white" stroke="#bfbfbf" points="676.5,-5.6 676.5,-24.6 732.5,-24.6 732.5,-5.6 676.5,-5.6"/>
<text text-anchor="middle" x="704.5" y="-12.6" font-family="Helvetica,sans-Serif" font-size="10.00">uint32_t</text>
</a>
</g>
</g>
<!-- Node21&#45;&gt;Node20 -->
<g id="edge23" class="edge">
<title>Node21&#45;&gt;Node20</title>
<path fill="none" stroke="#9a32cd" stroke-dasharray="5,2" d="M742.88,-15.1C793.35,-15.1 884.11,-15.1 946.28,-15.1"/>
<polygon fill="#9a32cd" stroke="#9a32cd" points="742.74,-11.6 732.74,-15.1 742.74,-18.6 742.74,-11.6"/>
<text text-anchor="middle" x="852.5" y="-18.1" font-family="Helvetica,sans-Serif" font-size="10.00"> ptr</text>
</g>
<!-- Node22 -->
<g id="node22" class="node">
<title>Node22</title>
<g id="a_node22"><a xlink:title=" ">
<polygon fill="white" stroke="#bfbfbf" points="929,-253.1 929,-283.1 1098,-283.1 1098,-253.1 929,-253.1"/>
<text text-anchor="start" x="937" y="-271.1" font-family="Helvetica,sans-Serif" font-size="10.00">std::vector&lt; DataObjectPointer</text>
<text text-anchor="middle" x="1013.5" y="-260.1" font-family="Helvetica,sans-Serif" font-size="10.00">Map::iterator &gt;</text>
</a>
</g>
</g>
<!-- Node22&#45;&gt;Node5 -->
<g id="edge24" class="edge">
<title>Node22&#45;&gt;Node5</title>
<path fill="none" stroke="#9a32cd" stroke-dasharray="5,2" d="M1108.26,-256.69C1153.61,-250.74 1208.78,-242.88 1258,-234.1 1266.93,-232.51 1276.46,-230.59 1285.51,-228.65"/>
<polygon fill="#9a32cd" stroke="#9a32cd" points="1107.61,-253.24 1098.14,-258.01 1108.51,-260.19 1107.61,-253.24"/>
<text text-anchor="middle" x="1187" y="-270.1" font-family="Helvetica,sans-Serif" font-size="10.00"> m_IndexedOutputs</text>
<text text-anchor="middle" x="1187" y="-259.1" font-family="Helvetica,sans-Serif" font-size="10.00">m_IndexedInputs</text>
</g>
<!-- Node23 -->
<g id="node23" class="node">
<title>Node23</title>
<g id="a_node23"><a xlink:title="STL iterator class.">
<polygon fill="white" stroke="#bfbfbf" points="633,-313.6 633,-332.6 776,-332.6 776,-313.6 633,-313.6"/>
<text text-anchor="middle" x="704.5" y="-320.6" font-family="Helvetica,sans-Serif" font-size="10.00">std::map&lt; K, T &gt;::iterator</text>
</a>
</g>
</g>
<!-- Node23&#45;&gt;Node22 -->
<g id="edge25" class="edge">
<title>Node23&#45;&gt;Node22</title>
<path fill="none" stroke="#9a32cd" stroke-dasharray="5,2" d="M786.25,-321.11C824.66,-318.48 870.86,-312.87 911,-301.1 919.58,-298.59 920.67,-295.35 929,-292.1 937.29,-288.87 946.2,-285.85 954.99,-283.12"/>
<polygon fill="#9a32cd" stroke="#9a32cd" points="785.9,-317.62 776.14,-321.74 786.34,-324.61 785.9,-317.62"/>
<text text-anchor="middle" x="852.5" y="-324.1" font-family="Helvetica,sans-Serif" font-size="10.00"> elements</text>
</g>
<!-- Node24&#45;&gt;Node5 -->
<g id="edge26" class="edge">
<title>Node24&#45;&gt;Node5</title>
<path fill="none" stroke="#9a32cd" stroke-dasharray="5,2" d="M1108.37,-370.89C1156.59,-369.06 1214.25,-359.81 1258,-331.1 1296.38,-305.92 1317.03,-251.24 1324.13,-228.9"/>
<polygon fill="#9a32cd" stroke="#9a32cd" points="1108.12,-367.4 1098.23,-371.18 1108.32,-374.4 1108.12,-367.4"/>
<text text-anchor="middle" x="1187" y="-385.1" font-family="Helvetica,sans-Serif" font-size="10.00"> m_Outputs</text>
<text text-anchor="middle" x="1187" y="-374.1" font-family="Helvetica,sans-Serif" font-size="10.00">m_Inputs</text>
</g>
<!-- Node25 -->
<g id="node25" class="node">
<title>Node25</title>
<g id="a_node25"><a xlink:href="classitk_1_1SmartPointer.html" target="_top" xlink:title=" ">
<polygon fill="white" stroke="black" points="651,-365.1 651,-395.1 758,-395.1 758,-365.1 651,-365.1"/>
<text text-anchor="start" x="659" y="-383.1" font-family="Helvetica,sans-Serif" font-size="10.00">itk::SmartPointer&lt;</text>
<text text-anchor="middle" x="704.5" y="-372.1" font-family="Helvetica,sans-Serif" font-size="10.00"> Self &gt;</text>
</a>
</g>
</g>
<!-- Node25&#45;&gt;Node1 -->
<g id="edge31" class="edge">
<title>Node25&#45;&gt;Node1</title>
<path fill="none" stroke="#9a32cd" stroke-dasharray="5,2" d="M768.04,-389.82C829.96,-398.58 927.53,-410.1 1012.5,-410.1 1012.5,-410.1 1012.5,-410.1 1910.5,-410.1 2031.33,-410.1 2162.81,-337.59 2215.37,-305.3"/>
<polygon fill="#9a32cd" stroke="#9a32cd" points="768.44,-386.34 758.04,-388.38 767.44,-393.27 768.44,-386.34"/>
<text text-anchor="middle" x="1504" y="-424.1" font-family="Helvetica,sans-Serif" font-size="10.00"> m_InputDelaunayFilter</text>
<text text-anchor="middle" x="1504" y="-413.1" font-family="Helvetica,sans-Serif" font-size="10.00">m_OutputDelaunayFilter</text>
</g>
<!-- Node25&#45;&gt;Node24 -->
<g id="edge27" class="edge">
<title>Node25&#45;&gt;Node24</title>
<path fill="none" stroke="#9a32cd" stroke-dasharray="5,2" d="M768.49,-377.23C814.84,-375.12 878.33,-372.22 928.92,-369.91"/>
<polygon fill="#9a32cd" stroke="#9a32cd" points="768.11,-373.74 758.28,-377.7 768.42,-380.74 768.11,-373.74"/>
<text text-anchor="middle" x="852.5" y="-379.1" font-family="Helvetica,sans-Serif" font-size="10.00"> elements</text>
</g>
<!-- Node26 -->
<g id="node26" class="node">
<title>Node26</title>
<g id="a_node26"><a xlink:href="classitk_1_1SmartPointer.html" target="_top" xlink:title=" ">
<polygon fill="white" stroke="black" points="942.5,-302.1 942.5,-332.1 1084.5,-332.1 1084.5,-302.1 942.5,-302.1"/>
<text text-anchor="start" x="950.5" y="-320.1" font-family="Helvetica,sans-Serif" font-size="10.00">itk::SmartPointer&lt;</text>
<text text-anchor="middle" x="1013.5" y="-309.1" font-family="Helvetica,sans-Serif" font-size="10.00"> itk::MultiThreaderBase &gt;</text>
</a>
</g>
</g>
<!-- Node26&#45;&gt;Node5 -->
<g id="edge29" class="edge">
<title>Node26&#45;&gt;Node5</title>
<path fill="none" stroke="#9a32cd" stroke-dasharray="5,2" d="M1094.81,-317.37C1144.01,-314.72 1207.08,-306.16 1258,-282.1 1284.69,-269.49 1308.31,-242.97 1319.73,-228.69"/>
<polygon fill="#9a32cd" stroke="#9a32cd" points="1094.36,-313.88 1084.54,-317.84 1094.69,-320.88 1094.36,-313.88"/>
<text text-anchor="middle" x="1187" y="-319.1" font-family="Helvetica,sans-Serif" font-size="10.00"> m_MultiThreader</text>
</g>
<!-- Node27 -->
<g id="node27" class="node">
<title>Node27</title>
<g id="a_node27"><a xlink:href="classitk_1_1MatrixCoefficients.html" target="_top" xlink:title="Superclass for all the matrix coefficients computation classes.">
<polygon fill="white" stroke="black" points="1847,-220.1 1847,-250.1 1972,-250.1 1972,-220.1 1847,-220.1"/>
<text text-anchor="start" x="1855" y="-238.1" font-family="Helvetica,sans-Serif" font-size="10.00">itk::MatrixCoefficients</text>
<text text-anchor="middle" x="1909.5" y="-227.1" font-family="Helvetica,sans-Serif" font-size="10.00">&lt; TInputMesh &gt;</text>
</a>
</g>
</g>
<!-- Node27&#45;&gt;Node1 -->
<g id="edge32" class="edge">
<title>Node27&#45;&gt;Node1</title>
<path fill="none" stroke="#9a32cd" stroke-dasharray="5,2" d="M1982.19,-247.11C2031.27,-255.32 2096.72,-266.28 2149.26,-275.08"/>
<polygon fill="#9a32cd" stroke="#9a32cd" points="1982.73,-243.65 1972.29,-245.45 1981.57,-250.55 1982.73,-243.65"/>
<text text-anchor="middle" x="2069.5" y="-274.1" font-family="Helvetica,sans-Serif" font-size="10.00"> m_CoefficientsMethod</text>
</g>
</g>
</svg>
