<?xml version="1.0" encoding="UTF-8" standalone="no"?>
<!DOCTYPE svg PUBLIC "-//W3C//DTD SVG 1.1//EN"
 "http://www.w3.org/Graphics/SVG/1.1/DTD/svg11.dtd">
<!-- Generated by graphviz version 2.43.0 (0)
 -->
<!-- Title: itk::FastMarchingUpwindGradientImageFilter&lt; TLevelSet, TSpeedImage &gt; Pages: 1 -->
<svg width="2475pt" height="542pt"
 viewBox="0.00 0.00 2475.00 541.94" xmlns="http://www.w3.org/2000/svg" xmlns:xlink="http://www.w3.org/1999/xlink">
<g id="graph0" class="graph" transform="scale(1 1) rotate(0) translate(4 537.94)">
<title>itk::FastMarchingUpwindGradientImageFilter&lt; TLevelSet, TSpeedImage &gt;</title>
<polygon fill="white" stroke="transparent" points="-4,4 -4,-537.94 2471,-537.94 2471,4 -4,4"/>
<!-- Node1 -->
<g id="node1" class="node">
<title>Node1</title>
<g id="a_node1"><a xlink:title="Generates the upwind gradient field of fast marching arrival times.">
<polygon fill="#bfbfbf" stroke="black" points="2252,-458.94 2252,-488.94 2467,-488.94 2467,-458.94 2252,-458.94"/>
<text text-anchor="start" x="2260" y="-476.94" font-family="Helvetica,sans-Serif" font-size="10.00">itk::FastMarchingUpwindGradient</text>
<text text-anchor="middle" x="2359.5" y="-465.94" font-family="Helvetica,sans-Serif" font-size="10.00">ImageFilter&lt; TLevelSet, TSpeedImage &gt;</text>
</a>
</g>
</g>
<!-- Node2 -->
<g id="node2" class="node">
<title>Node2</title>
<g id="a_node2"><a xlink:href="classitk_1_1FastMarchingImageFilter.html" target="_top" xlink:title=" ">
<polygon fill="white" stroke="black" points="2036,-404.44 2036,-445.44 2215,-445.44 2215,-404.44 2036,-404.44"/>
<text text-anchor="start" x="2044" y="-433.44" font-family="Helvetica,sans-Serif" font-size="10.00">itk::FastMarchingImageFilter</text>
<text text-anchor="start" x="2044" y="-422.44" font-family="Helvetica,sans-Serif" font-size="10.00">&lt; TLevelSet, Image&lt; float,</text>
<text text-anchor="middle" x="2125.5" y="-411.44" font-family="Helvetica,sans-Serif" font-size="10.00"> TLevelSet::ImageDimension &gt; &gt;</text>
</a>
</g>
</g>
<!-- Node2&#45;&gt;Node1 -->
<g id="edge1" class="edge">
<title>Node2&#45;&gt;Node1</title>
<path fill="none" stroke="midnightblue" d="M2225.04,-445.75C2245.89,-450.15 2267.52,-454.72 2287.13,-458.86"/>
<polygon fill="midnightblue" stroke="midnightblue" points="2225.71,-442.31 2215.2,-443.67 2224.26,-449.16 2225.71,-442.31"/>
</g>
<!-- Node3 -->
<g id="node3" class="node">
<title>Node3</title>
<g id="a_node3"><a xlink:href="classitk_1_1ImageToImageFilter.html" target="_top" xlink:title=" ">
<polygon fill="white" stroke="black" points="1744,-286.44 1744,-327.44 1926,-327.44 1926,-286.44 1744,-286.44"/>
<text text-anchor="start" x="1752" y="-315.44" font-family="Helvetica,sans-Serif" font-size="10.00">itk::ImageToImageFilter</text>
<text text-anchor="start" x="1752" y="-304.44" font-family="Helvetica,sans-Serif" font-size="10.00">&lt; Image&lt; float, TLevelSet</text>
<text text-anchor="middle" x="1835" y="-293.44" font-family="Helvetica,sans-Serif" font-size="10.00">::ImageDimension &gt;, TLevelSet &gt;</text>
</a>
</g>
</g>
<!-- Node3&#45;&gt;Node2 -->
<g id="edge2" class="edge">
<title>Node3&#45;&gt;Node2</title>
<path fill="none" stroke="midnightblue" d="M1895.83,-331.41C1948.61,-353 2024.68,-384.11 2074.34,-404.42"/>
<polygon fill="midnightblue" stroke="midnightblue" points="1896.83,-328.04 1886.25,-327.49 1894.18,-334.51 1896.83,-328.04"/>
</g>
<!-- Node4 -->
<g id="node4" class="node">
<title>Node4</title>
<g id="a_node4"><a xlink:href="classitk_1_1ImageSource.html" target="_top" xlink:title=" ">
<polygon fill="white" stroke="black" points="1547.5,-251.94 1547.5,-281.94 1690.5,-281.94 1690.5,-251.94 1547.5,-251.94"/>
<text text-anchor="start" x="1555.5" y="-269.94" font-family="Helvetica,sans-Serif" font-size="10.00">itk::ImageSource&lt; TLevel</text>
<text text-anchor="middle" x="1619" y="-258.94" font-family="Helvetica,sans-Serif" font-size="10.00">Set &gt;</text>
</a>
</g>
</g>
<!-- Node4&#45;&gt;Node3 -->
<g id="edge3" class="edge">
<title>Node4&#45;&gt;Node3</title>
<path fill="none" stroke="midnightblue" d="M1700.8,-282.04C1714.89,-284.67 1729.63,-287.43 1743.95,-290.1"/>
<polygon fill="midnightblue" stroke="midnightblue" points="1701.14,-278.54 1690.66,-280.14 1699.85,-285.42 1701.14,-278.54"/>
</g>
<!-- Node5 -->
<g id="node5" class="node">
<title>Node5</title>
<g id="a_node5"><a xlink:href="classitk_1_1ProcessObject.html" target="_top" xlink:title="The base class for all process objects (source, filters, mappers) in the Insight data processing pipe...">
<polygon fill="white" stroke="black" points="1295.5,-234.44 1295.5,-253.44 1399.5,-253.44 1399.5,-234.44 1295.5,-234.44"/>
<text text-anchor="middle" x="1347.5" y="-241.44" font-family="Helvetica,sans-Serif" font-size="10.00">itk::ProcessObject</text>
</a>
</g>
</g>
<!-- Node5&#45;&gt;Node4 -->
<g id="edge4" class="edge">
<title>Node5&#45;&gt;Node4</title>
<path fill="none" stroke="midnightblue" d="M1409.62,-249.15C1450.56,-252.65 1504.58,-257.26 1547.36,-260.91"/>
<polygon fill="midnightblue" stroke="midnightblue" points="1409.77,-245.65 1399.51,-248.29 1409.17,-252.63 1409.77,-245.65"/>
</g>
<!-- Node6 -->
<g id="node6" class="node">
<title>Node6</title>
<g id="a_node6"><a xlink:href="classitk_1_1Object.html" target="_top" xlink:title="Base class for most ITK classes.">
<polygon fill="white" stroke="black" points="980,-131.44 980,-150.44 1047,-150.44 1047,-131.44 980,-131.44"/>
<text text-anchor="middle" x="1013.5" y="-138.44" font-family="Helvetica,sans-Serif" font-size="10.00">itk::Object</text>
</a>
</g>
</g>
<!-- Node6&#45;&gt;Node5 -->
<g id="edge5" class="edge">
<title>Node6&#45;&gt;Node5</title>
<path fill="none" stroke="midnightblue" d="M1057.67,-140.18C1109.92,-141.39 1198.29,-150.44 1258,-193.94 1270.88,-203.32 1263.36,-215.24 1276,-224.94 1281.73,-229.33 1288.41,-232.71 1295.32,-235.31"/>
<polygon fill="midnightblue" stroke="midnightblue" points="1057.46,-136.68 1047.41,-140.04 1057.36,-143.68 1057.46,-136.68"/>
</g>
<!-- Node7 -->
<g id="node7" class="node">
<title>Node7</title>
<g id="a_node7"><a xlink:href="classitk_1_1LightObject.html" target="_top" xlink:title="Light weight base class for most itk classes.">
<polygon fill="white" stroke="black" points="659,-111.44 659,-130.44 750,-130.44 750,-111.44 659,-111.44"/>
<text text-anchor="middle" x="704.5" y="-118.44" font-family="Helvetica,sans-Serif" font-size="10.00">itk::LightObject</text>
</a>
</g>
</g>
<!-- Node7&#45;&gt;Node6 -->
<g id="edge6" class="edge">
<title>Node7&#45;&gt;Node6</title>
<path fill="none" stroke="midnightblue" d="M760.4,-124.51C824.13,-128.66 927.17,-135.38 979.59,-138.79"/>
<polygon fill="midnightblue" stroke="midnightblue" points="760.35,-121 750.14,-123.84 759.89,-127.99 760.35,-121"/>
</g>
<!-- Node8 -->
<g id="node8" class="node">
<title>Node8</title>
<g id="a_node8"><a xlink:title=" ">
<polygon fill="white" stroke="#bfbfbf" points="372,-110.44 372,-129.44 479,-129.44 479,-110.44 372,-110.44"/>
<text text-anchor="middle" x="425.5" y="-117.44" font-family="Helvetica,sans-Serif" font-size="10.00">std::atomic&lt; int &gt;</text>
</a>
</g>
</g>
<!-- Node8&#45;&gt;Node7 -->
<g id="edge7" class="edge">
<title>Node8&#45;&gt;Node7</title>
<path fill="none" stroke="#9a32cd" stroke-dasharray="5,2" d="M489.29,-120.16C540.91,-120.35 612.77,-120.61 658.72,-120.77"/>
<polygon fill="#9a32cd" stroke="#9a32cd" points="489.27,-116.66 479.25,-120.13 489.24,-123.66 489.27,-116.66"/>
<text text-anchor="middle" x="566.5" y="-123.94" font-family="Helvetica,sans-Serif" font-size="10.00"> m_ReferenceCount</text>
</g>
<!-- Node9 -->
<g id="node9" class="node">
<title>Node9</title>
<g id="a_node9"><a xlink:title="STL class.">
<polygon fill="white" stroke="#bfbfbf" points="672,-233.44 672,-252.44 737,-252.44 737,-233.44 672,-233.44"/>
<text text-anchor="middle" x="704.5" y="-240.44" font-family="Helvetica,sans-Serif" font-size="10.00">std::string</text>
</a>
</g>
</g>
<!-- Node9&#45;&gt;Node6 -->
<g id="edge8" class="edge">
<title>Node9&#45;&gt;Node6</title>
<path fill="none" stroke="#9a32cd" stroke-dasharray="5,2" d="M726.8,-227.5C744.08,-215.71 769.52,-199.99 794,-190.94 843.55,-172.6 861.23,-187.67 911,-169.94 919.62,-166.86 920.45,-163.21 929,-159.94 945.25,-153.72 964.08,-149.22 979.75,-146.16"/>
<polygon fill="#9a32cd" stroke="#9a32cd" points="724.75,-224.66 718.55,-233.25 728.75,-230.4 724.75,-224.66"/>
<text text-anchor="middle" x="852.5" y="-193.94" font-family="Helvetica,sans-Serif" font-size="10.00"> m_ObjectName</text>
</g>
<!-- Node18 -->
<g id="node18" class="node">
<title>Node18</title>
<g id="a_node18"><a xlink:title=" ">
<polygon fill="white" stroke="#bfbfbf" points="932.5,-169.94 932.5,-199.94 1094.5,-199.94 1094.5,-169.94 932.5,-169.94"/>
<text text-anchor="start" x="940.5" y="-187.94" font-family="Helvetica,sans-Serif" font-size="10.00">std::set&lt; DataObjectIdentifier</text>
<text text-anchor="middle" x="1013.5" y="-176.94" font-family="Helvetica,sans-Serif" font-size="10.00">Type &gt;</text>
</a>
</g>
</g>
<!-- Node9&#45;&gt;Node18 -->
<g id="edge19" class="edge">
<title>Node9&#45;&gt;Node18</title>
<path fill="none" stroke="#9a32cd" stroke-dasharray="5,2" d="M746.91,-234.31C761.75,-231.27 778.61,-227.88 794,-224.94 845.89,-215 859.04,-213.46 911,-203.94 917.97,-202.66 925.2,-201.32 932.45,-199.98"/>
<polygon fill="#9a32cd" stroke="#9a32cd" points="746.09,-230.9 737,-236.34 747.5,-237.76 746.09,-230.9"/>
<text text-anchor="middle" x="852.5" y="-227.94" font-family="Helvetica,sans-Serif" font-size="10.00"> keys</text>
</g>
<!-- Node19 -->
<g id="node19" class="node">
<title>Node19</title>
<g id="a_node19"><a xlink:title=" ">
<polygon fill="white" stroke="#bfbfbf" points="929,-218.94 929,-248.94 1098,-248.94 1098,-218.94 929,-218.94"/>
<text text-anchor="start" x="937" y="-236.94" font-family="Helvetica,sans-Serif" font-size="10.00">std::map&lt; DataObjectIdentifier</text>
<text text-anchor="middle" x="1013.5" y="-225.94" font-family="Helvetica,sans-Serif" font-size="10.00">Type, bool &gt;</text>
</a>
</g>
</g>
<!-- Node9&#45;&gt;Node19 -->
<g id="edge21" class="edge">
<title>Node9&#45;&gt;Node19</title>
<path fill="none" stroke="#9a32cd" stroke-dasharray="5,2" d="M747.21,-242.1C788.73,-241.23 854.28,-239.74 911,-237.94 916.82,-237.75 922.82,-237.55 928.87,-237.33"/>
<polygon fill="#9a32cd" stroke="#9a32cd" points="747.11,-238.61 737.19,-242.31 747.26,-245.6 747.11,-238.61"/>
<text text-anchor="middle" x="852.5" y="-244.94" font-family="Helvetica,sans-Serif" font-size="10.00"> keys</text>
</g>
<!-- Node24 -->
<g id="node24" class="node">
<title>Node24</title>
<g id="a_node24"><a xlink:title=" ">
<polygon fill="white" stroke="#bfbfbf" points="929,-365.94 929,-395.94 1098,-395.94 1098,-365.94 929,-365.94"/>
<text text-anchor="start" x="937" y="-383.94" font-family="Helvetica,sans-Serif" font-size="10.00">std::map&lt; DataObjectIdentifier</text>
<text text-anchor="middle" x="1013.5" y="-372.94" font-family="Helvetica,sans-Serif" font-size="10.00">Type, DataObjectPointer &gt;</text>
</a>
</g>
</g>
<!-- Node9&#45;&gt;Node24 -->
<g id="edge28" class="edge">
<title>Node9&#45;&gt;Node24</title>
<path fill="none" stroke="#9a32cd" stroke-dasharray="5,2" d="M747.45,-250.81C804.05,-261.77 899.19,-281.59 911,-292.94 932,-313.11 908.54,-335.21 929,-355.94 932.83,-359.81 937.23,-363.09 941.97,-365.87"/>
<polygon fill="#9a32cd" stroke="#9a32cd" points="747.84,-247.32 737.36,-248.86 746.52,-254.19 747.84,-247.32"/>
<text text-anchor="middle" x="852.5" y="-295.94" font-family="Helvetica,sans-Serif" font-size="10.00"> keys</text>
</g>
<!-- Node10 -->
<g id="node10" class="node">
<title>Node10</title>
<g id="a_node10"><a xlink:title="STL class.">
<polygon fill="white" stroke="#bfbfbf" points="373.5,-227.94 373.5,-257.94 477.5,-257.94 477.5,-227.94 373.5,-227.94"/>
<text text-anchor="start" x="381.5" y="-245.94" font-family="Helvetica,sans-Serif" font-size="10.00">std::basic_string&lt;</text>
<text text-anchor="middle" x="425.5" y="-234.94" font-family="Helvetica,sans-Serif" font-size="10.00"> char &gt;</text>
</a>
</g>
</g>
<!-- Node10&#45;&gt;Node9 -->
<g id="edge9" class="edge">
<title>Node10&#45;&gt;Node9</title>
<path fill="none" stroke="midnightblue" d="M487.93,-242.94C544.75,-242.94 626.97,-242.94 671.66,-242.94"/>
<polygon fill="midnightblue" stroke="midnightblue" points="487.63,-239.44 477.63,-242.94 487.63,-246.44 487.63,-239.44"/>
</g>
<!-- Node11 -->
<g id="node11" class="node">
<title>Node11</title>
<g id="a_node11"><a xlink:href="classitk_1_1MetaDataDictionary.html" target="_top" xlink:title="Provides a mechanism for storing a collection of arbitrary data types.">
<polygon fill="white" stroke="black" points="637.5,-152.44 637.5,-171.44 771.5,-171.44 771.5,-152.44 637.5,-152.44"/>
<text text-anchor="middle" x="704.5" y="-159.44" font-family="Helvetica,sans-Serif" font-size="10.00">itk::MetaDataDictionary</text>
</a>
</g>
</g>
<!-- Node11&#45;&gt;Node6 -->
<g id="edge10" class="edge">
<title>Node11&#45;&gt;Node6</title>
<path fill="none" stroke="#9a32cd" stroke-dasharray="5,2" d="M781.74,-156.72C845.39,-152.37 933.03,-146.37 979.86,-143.17"/>
<polygon fill="#9a32cd" stroke="#9a32cd" points="781.47,-153.23 771.74,-157.4 781.95,-160.21 781.47,-153.23"/>
<text text-anchor="middle" x="852.5" y="-158.94" font-family="Helvetica,sans-Serif" font-size="10.00"> m_MetaDataDictionary</text>
</g>
<!-- Node12 -->
<g id="node12" class="node">
<title>Node12</title>
<g id="a_node12"><a xlink:title=" ">
<polygon fill="white" stroke="#bfbfbf" points="351,-148.94 351,-178.94 500,-178.94 500,-148.94 351,-148.94"/>
<text text-anchor="start" x="359" y="-166.94" font-family="Helvetica,sans-Serif" font-size="10.00">std::shared_ptr&lt; MetaData</text>
<text text-anchor="middle" x="425.5" y="-155.94" font-family="Helvetica,sans-Serif" font-size="10.00">DictionaryMapType &gt;</text>
</a>
</g>
</g>
<!-- Node12&#45;&gt;Node11 -->
<g id="edge11" class="edge">
<title>Node12&#45;&gt;Node11</title>
<path fill="none" stroke="#9a32cd" stroke-dasharray="5,2" d="M510.18,-163.33C550.89,-163.04 599.13,-162.69 637.24,-162.41"/>
<polygon fill="#9a32cd" stroke="#9a32cd" points="509.98,-159.83 500,-163.4 510.03,-166.83 509.98,-159.83"/>
<text text-anchor="middle" x="566.5" y="-166.94" font-family="Helvetica,sans-Serif" font-size="10.00"> m_Dictionary</text>
</g>
<!-- Node13 -->
<g id="node13" class="node">
<title>Node13</title>
<g id="a_node13"><a xlink:title="STL class.">
<polygon fill="white" stroke="#bfbfbf" points="114,-153.44 114,-172.44 215,-172.44 215,-153.44 114,-153.44"/>
<text text-anchor="middle" x="164.5" y="-160.44" font-family="Helvetica,sans-Serif" font-size="10.00">std::map&lt; K, T &gt;</text>
</a>
</g>
</g>
<!-- Node13&#45;&gt;Node12 -->
<g id="edge12" class="edge">
<title>Node13&#45;&gt;Node12</title>
<path fill="none" stroke="#9a32cd" stroke-dasharray="5,2" d="M225.34,-163.17C262.61,-163.31 310.86,-163.5 350.52,-163.65"/>
<polygon fill="#9a32cd" stroke="#9a32cd" points="225.14,-159.67 215.13,-163.13 225.12,-166.67 225.14,-159.67"/>
<text text-anchor="middle" x="283" y="-166.94" font-family="Helvetica,sans-Serif" font-size="10.00"> ptr</text>
</g>
<!-- Node14 -->
<g id="node14" class="node">
<title>Node14</title>
<g id="a_node14"><a xlink:title=" ">
<polygon fill="white" stroke="#bfbfbf" points="0,-153.44 0,-172.44 29,-172.44 29,-153.44 0,-153.44"/>
<text text-anchor="middle" x="14.5" y="-160.44" font-family="Helvetica,sans-Serif" font-size="10.00">K</text>
</a>
</g>
</g>
<!-- Node14&#45;&gt;Node13 -->
<g id="edge13" class="edge">
<title>Node14&#45;&gt;Node13</title>
<path fill="none" stroke="#9a32cd" stroke-dasharray="5,2" d="M39.24,-162.94C59.28,-162.94 88.63,-162.94 113.78,-162.94"/>
<polygon fill="#9a32cd" stroke="#9a32cd" points="39.16,-159.44 29.16,-162.94 39.16,-166.44 39.16,-159.44"/>
<text text-anchor="middle" x="71.5" y="-165.94" font-family="Helvetica,sans-Serif" font-size="10.00"> keys</text>
</g>
<!-- Node15 -->
<g id="node15" class="node">
<title>Node15</title>
<g id="a_node15"><a xlink:title=" ">
<polygon fill="white" stroke="#bfbfbf" points="0,-100.44 0,-119.44 29,-119.44 29,-100.44 0,-100.44"/>
<text text-anchor="middle" x="14.5" y="-107.44" font-family="Helvetica,sans-Serif" font-size="10.00">T</text>
</a>
</g>
</g>
<!-- Node15&#45;&gt;Node13 -->
<g id="edge14" class="edge">
<title>Node15&#45;&gt;Node13</title>
<path fill="none" stroke="#9a32cd" stroke-dasharray="5,2" d="M38.78,-118.27C65.36,-127.79 108.76,-143.33 136.72,-153.35"/>
<polygon fill="#9a32cd" stroke="#9a32cd" points="39.75,-114.9 29.16,-114.83 37.39,-121.49 39.75,-114.9"/>
<text text-anchor="middle" x="71.5" y="-141.94" font-family="Helvetica,sans-Serif" font-size="10.00"> elements</text>
</g>
<!-- Node17 -->
<g id="node17" class="node">
<title>Node17</title>
<g id="a_node17"><a xlink:title="STL class.">
<polygon fill="white" stroke="#bfbfbf" points="233,-78.44 233,-97.44 333,-97.44 333,-78.44 233,-78.44"/>
<text text-anchor="middle" x="283" y="-85.44" font-family="Helvetica,sans-Serif" font-size="10.00">std::atomic&lt; T &gt;</text>
</a>
</g>
</g>
<!-- Node15&#45;&gt;Node17 -->
<g id="edge17" class="edge">
<title>Node15&#45;&gt;Node17</title>
<path fill="none" stroke="#9a32cd" stroke-dasharray="5,2" d="M39.45,-107.62C42,-107.38 44.55,-107.15 47,-106.94 111.22,-101.28 185.37,-95.39 232.92,-91.7"/>
<polygon fill="#9a32cd" stroke="#9a32cd" points="38.92,-104.15 29.3,-108.58 39.58,-111.12 38.92,-104.15"/>
<text text-anchor="middle" x="71.5" y="-109.94" font-family="Helvetica,sans-Serif" font-size="10.00"> ptr</text>
</g>
<!-- Node16 -->
<g id="node16" class="node">
<title>Node16</title>
<g id="a_node16"><a xlink:href="classitk_1_1TimeStamp.html" target="_top" xlink:title="Generate a unique, increasing time value.">
<polygon fill="white" stroke="black" points="658.5,-71.44 658.5,-90.44 750.5,-90.44 750.5,-71.44 658.5,-71.44"/>
<text text-anchor="middle" x="704.5" y="-78.44" font-family="Helvetica,sans-Serif" font-size="10.00">itk::TimeStamp</text>
</a>
</g>
</g>
<!-- Node16&#45;&gt;Node5 -->
<g id="edge30" class="edge">
<title>Node16&#45;&gt;Node5</title>
<path fill="none" stroke="#9a32cd" stroke-dasharray="5,2" d="M752.59,-69.23C859.03,-45.87 1119.65,-6.62 1258,-141.94 1284.99,-168.33 1249.98,-197.59 1276,-224.94 1281.33,-230.54 1288.12,-234.55 1295.38,-237.41"/>
<polygon fill="#9a32cd" stroke="#9a32cd" points="751.77,-65.83 742.78,-71.43 753.3,-72.65 751.77,-65.83"/>
<text text-anchor="middle" x="1013.5" y="-61.94" font-family="Helvetica,sans-Serif" font-size="10.00"> m_OutputInformationMTime</text>
</g>
<!-- Node16&#45;&gt;Node6 -->
<g id="edge15" class="edge">
<title>Node16&#45;&gt;Node6</title>
<path fill="none" stroke="#9a32cd" stroke-dasharray="5,2" d="M760.63,-87.3C802.21,-92.57 860.51,-100.96 911,-111.94 935.53,-117.27 962.88,-125.2 983,-131.42"/>
<polygon fill="#9a32cd" stroke="#9a32cd" points="761.06,-83.82 750.7,-86.06 760.19,-90.77 761.06,-83.82"/>
<text text-anchor="middle" x="852.5" y="-114.94" font-family="Helvetica,sans-Serif" font-size="10.00"> m_MTime</text>
</g>
<!-- Node17&#45;&gt;Node16 -->
<g id="edge16" class="edge">
<title>Node17&#45;&gt;Node16</title>
<path fill="none" stroke="#9a32cd" stroke-dasharray="5,2" d="M343.61,-86.94C428.52,-85.52 582.42,-82.96 658.48,-81.69"/>
<polygon fill="#9a32cd" stroke="#9a32cd" points="343.3,-83.45 333.36,-87.11 343.41,-90.44 343.3,-83.45"/>
<text text-anchor="middle" x="425.5" y="-89.94" font-family="Helvetica,sans-Serif" font-size="10.00"> m_GlobalTimeStamp</text>
</g>
<!-- Node18&#45;&gt;Node5 -->
<g id="edge18" class="edge">
<title>Node18&#45;&gt;Node5</title>
<path fill="none" stroke="#9a32cd" stroke-dasharray="5,2" d="M1104.7,-195.1C1150.81,-201 1207.67,-209.37 1258,-219.94 1266.13,-221.64 1267.99,-222.74 1276,-224.94 1287.37,-228.05 1299.78,-231.41 1310.98,-234.42"/>
<polygon fill="#9a32cd" stroke="#9a32cd" points="1105.1,-191.62 1094.74,-193.84 1104.22,-198.57 1105.1,-191.62"/>
<text text-anchor="middle" x="1187" y="-222.94" font-family="Helvetica,sans-Serif" font-size="10.00"> m_RequiredInputNames</text>
</g>
<!-- Node19&#45;&gt;Node5 -->
<g id="edge20" class="edge">
<title>Node19&#45;&gt;Node5</title>
<path fill="none" stroke="#9a32cd" stroke-dasharray="5,2" d="M1108.3,-234.35C1153.55,-234.84 1208.61,-235.86 1258,-237.94 1270,-238.44 1282.91,-239.19 1295.05,-240"/>
<polygon fill="#9a32cd" stroke="#9a32cd" points="1108.24,-230.85 1098.21,-234.25 1108.17,-237.85 1108.24,-230.85"/>
<text text-anchor="start" x="1116" y="-251.94" font-family="Helvetica,sans-Serif" font-size="10.00"> m_CachedInputReleaseData</text>
<text text-anchor="middle" x="1187" y="-240.94" font-family="Helvetica,sans-Serif" font-size="10.00">Flags</text>
</g>
<!-- Node20 -->
<g id="node20" class="node">
<title>Node20</title>
<g id="a_node20"><a xlink:title=" ">
<polygon fill="white" stroke="#bfbfbf" points="946.5,-10.44 946.5,-29.44 1080.5,-29.44 1080.5,-10.44 946.5,-10.44"/>
<text text-anchor="middle" x="1013.5" y="-17.44" font-family="Helvetica,sans-Serif" font-size="10.00">std::atomic&lt; uint32_t &gt;</text>
</a>
</g>
</g>
<!-- Node20&#45;&gt;Node5 -->
<g id="edge22" class="edge">
<title>Node20&#45;&gt;Node5</title>
<path fill="none" stroke="#9a32cd" stroke-dasharray="5,2" d="M1060.73,-8.36C1115.74,2.36 1206.58,9.89 1258,-40.94 1287.22,-69.82 1249.45,-193.58 1276,-224.94 1281.08,-230.93 1287.83,-235.14 1295.15,-238.07"/>
<polygon fill="#9a32cd" stroke="#9a32cd" points="1059.98,-4.94 1050.89,-10.38 1061.39,-11.79 1059.98,-4.94"/>
<text text-anchor="middle" x="1187" y="-43.94" font-family="Helvetica,sans-Serif" font-size="10.00"> m_Progress</text>
</g>
<!-- Node21 -->
<g id="node21" class="node">
<title>Node21</title>
<g id="a_node21"><a xlink:title=" ">
<polygon fill="white" stroke="#bfbfbf" points="676.5,-10.44 676.5,-29.44 732.5,-29.44 732.5,-10.44 676.5,-10.44"/>
<text text-anchor="middle" x="704.5" y="-17.44" font-family="Helvetica,sans-Serif" font-size="10.00">uint32_t</text>
</a>
</g>
</g>
<!-- Node21&#45;&gt;Node20 -->
<g id="edge23" class="edge">
<title>Node21&#45;&gt;Node20</title>
<path fill="none" stroke="#9a32cd" stroke-dasharray="5,2" d="M742.88,-19.94C793.35,-19.94 884.11,-19.94 946.28,-19.94"/>
<polygon fill="#9a32cd" stroke="#9a32cd" points="742.74,-16.44 732.74,-19.94 742.74,-23.44 742.74,-16.44"/>
<text text-anchor="middle" x="852.5" y="-22.94" font-family="Helvetica,sans-Serif" font-size="10.00"> ptr</text>
</g>
<!-- Node22 -->
<g id="node22" class="node">
<title>Node22</title>
<g id="a_node22"><a xlink:title=" ">
<polygon fill="white" stroke="#bfbfbf" points="929,-267.94 929,-297.94 1098,-297.94 1098,-267.94 929,-267.94"/>
<text text-anchor="start" x="937" y="-285.94" font-family="Helvetica,sans-Serif" font-size="10.00">std::vector&lt; DataObjectPointer</text>
<text text-anchor="middle" x="1013.5" y="-274.94" font-family="Helvetica,sans-Serif" font-size="10.00">Map::iterator &gt;</text>
</a>
</g>
</g>
<!-- Node22&#45;&gt;Node5 -->
<g id="edge24" class="edge">
<title>Node22&#45;&gt;Node5</title>
<path fill="none" stroke="#9a32cd" stroke-dasharray="5,2" d="M1108.21,-275.95C1153.56,-272.09 1208.72,-266.7 1258,-259.94 1270.99,-258.15 1284.99,-255.81 1297.93,-253.48"/>
<polygon fill="#9a32cd" stroke="#9a32cd" points="1107.77,-272.48 1098.1,-276.8 1108.36,-279.45 1107.77,-272.48"/>
<text text-anchor="middle" x="1187" y="-289.94" font-family="Helvetica,sans-Serif" font-size="10.00"> m_IndexedOutputs</text>
<text text-anchor="middle" x="1187" y="-278.94" font-family="Helvetica,sans-Serif" font-size="10.00">m_IndexedInputs</text>
</g>
<!-- Node23 -->
<g id="node23" class="node">
<title>Node23</title>
<g id="a_node23"><a xlink:title="STL iterator class.">
<polygon fill="white" stroke="#bfbfbf" points="633,-318.44 633,-337.44 776,-337.44 776,-318.44 633,-318.44"/>
<text text-anchor="middle" x="704.5" y="-325.44" font-family="Helvetica,sans-Serif" font-size="10.00">std::map&lt; K, T &gt;::iterator</text>
</a>
</g>
</g>
<!-- Node23&#45;&gt;Node22 -->
<g id="edge25" class="edge">
<title>Node23&#45;&gt;Node22</title>
<path fill="none" stroke="#9a32cd" stroke-dasharray="5,2" d="M786.15,-321.49C824.17,-317.89 870.06,-312.74 911,-305.94 924.19,-303.74 938.23,-300.9 951.54,-297.96"/>
<polygon fill="#9a32cd" stroke="#9a32cd" points="785.79,-318 776.16,-322.41 786.44,-324.97 785.79,-318"/>
<text text-anchor="middle" x="852.5" y="-323.94" font-family="Helvetica,sans-Serif" font-size="10.00"> elements</text>
</g>
<!-- Node24&#45;&gt;Node5 -->
<g id="edge26" class="edge">
<title>Node24&#45;&gt;Node5</title>
<path fill="none" stroke="#9a32cd" stroke-dasharray="5,2" d="M1108.49,-382.1C1155.83,-379.06 1212.64,-369.66 1258,-344.94 1298.53,-322.84 1329.31,-274.51 1341.17,-253.74"/>
<polygon fill="#9a32cd" stroke="#9a32cd" points="1108.02,-378.62 1098.23,-382.67 1108.41,-385.61 1108.02,-378.62"/>
<text text-anchor="middle" x="1187" y="-395.94" font-family="Helvetica,sans-Serif" font-size="10.00"> m_Outputs</text>
<text text-anchor="middle" x="1187" y="-384.94" font-family="Helvetica,sans-Serif" font-size="10.00">m_Inputs</text>
</g>
<!-- Node25 -->
<g id="node25" class="node">
<title>Node25</title>
<g id="a_node25"><a xlink:href="classitk_1_1SmartPointer.html" target="_top" xlink:title=" ">
<polygon fill="white" stroke="black" points="651,-409.94 651,-439.94 758,-439.94 758,-409.94 651,-409.94"/>
<text text-anchor="start" x="659" y="-427.94" font-family="Helvetica,sans-Serif" font-size="10.00">itk::SmartPointer&lt;</text>
<text text-anchor="middle" x="704.5" y="-416.94" font-family="Helvetica,sans-Serif" font-size="10.00"> Self &gt;</text>
</a>
</g>
</g>
<!-- Node25&#45;&gt;Node1 -->
<g id="edge37" class="edge">
<title>Node25&#45;&gt;Node1</title>
<path fill="none" stroke="#9a32cd" stroke-dasharray="5,2" d="M742.13,-444.78C798.5,-473.42 910.69,-522.94 1012.5,-522.94 1012.5,-522.94 1012.5,-522.94 2126.5,-522.94 2192.98,-522.94 2267.92,-503.43 2314.18,-489.04"/>
<polygon fill="#9a32cd" stroke="#9a32cd" points="743.41,-441.5 732.92,-440.03 740.2,-447.73 743.41,-441.5"/>
<text text-anchor="middle" x="1619" y="-525.94" font-family="Helvetica,sans-Serif" font-size="10.00"> m_GradientImage</text>
</g>
<!-- Node25&#45;&gt;Node2 -->
<g id="edge34" class="edge">
<title>Node25&#45;&gt;Node2</title>
<path fill="none" stroke="#9a32cd" stroke-dasharray="5,2" d="M768.22,-424.94C830.26,-424.94 927.93,-424.94 1012.5,-424.94 1012.5,-424.94 1012.5,-424.94 1836,-424.94 1902.99,-424.94 1978.73,-424.94 2035.79,-424.94"/>
<polygon fill="#9a32cd" stroke="#9a32cd" points="768.19,-421.44 758.19,-424.94 768.19,-428.44 768.19,-421.44"/>
<text text-anchor="middle" x="1475" y="-427.94" font-family="Helvetica,sans-Serif" font-size="10.00"> m_LabelImage</text>
</g>
<!-- Node25&#45;&gt;Node24 -->
<g id="edge27" class="edge">
<title>Node25&#45;&gt;Node24</title>
<path fill="none" stroke="#9a32cd" stroke-dasharray="5,2" d="M762.29,-407.19C772.75,-404.41 783.65,-401.83 794,-399.94 838.1,-391.86 887.86,-387.2 928.74,-384.51"/>
<polygon fill="#9a32cd" stroke="#9a32cd" points="761.13,-403.88 752.42,-409.9 762.99,-410.63 761.13,-403.88"/>
<text text-anchor="middle" x="852.5" y="-402.94" font-family="Helvetica,sans-Serif" font-size="10.00"> elements</text>
</g>
<!-- Node26 -->
<g id="node26" class="node">
<title>Node26</title>
<g id="a_node26"><a xlink:href="classitk_1_1SmartPointer.html" target="_top" xlink:title=" ">
<polygon fill="white" stroke="black" points="942.5,-316.94 942.5,-346.94 1084.5,-346.94 1084.5,-316.94 942.5,-316.94"/>
<text text-anchor="start" x="950.5" y="-334.94" font-family="Helvetica,sans-Serif" font-size="10.00">itk::SmartPointer&lt;</text>
<text text-anchor="middle" x="1013.5" y="-323.94" font-family="Helvetica,sans-Serif" font-size="10.00"> itk::MultiThreaderBase &gt;</text>
</a>
</g>
</g>
<!-- Node26&#45;&gt;Node5 -->
<g id="edge29" class="edge">
<title>Node26&#45;&gt;Node5</title>
<path fill="none" stroke="#9a32cd" stroke-dasharray="5,2" d="M1094.83,-331.18C1143.36,-328.51 1205.73,-321.1 1258,-301.94 1288.87,-290.62 1319.84,-266.77 1335.68,-253.45"/>
<polygon fill="#9a32cd" stroke="#9a32cd" points="1094.51,-327.69 1084.69,-331.68 1094.85,-334.68 1094.51,-327.69"/>
<text text-anchor="middle" x="1187" y="-332.94" font-family="Helvetica,sans-Serif" font-size="10.00"> m_MultiThreader</text>
</g>
<!-- Node27 -->
<g id="node27" class="node">
<title>Node27</title>
<g id="a_node27"><a xlink:href="structitk_1_1ImageSourceCommon.html" target="_top" xlink:title="Secondary base class of ImageSource common between templates.">
<polygon fill="white" stroke="black" points="1276,-196.44 1276,-215.44 1419,-215.44 1419,-196.44 1276,-196.44"/>
<text text-anchor="middle" x="1347.5" y="-203.44" font-family="Helvetica,sans-Serif" font-size="10.00">itk::ImageSourceCommon</text>
</a>
</g>
</g>
<!-- Node27&#45;&gt;Node4 -->
<g id="edge31" class="edge">
<title>Node27&#45;&gt;Node4</title>
<path fill="none" stroke="#8b1a1a" d="M1400.59,-217.73C1443.62,-227.47 1504.99,-241.36 1551.55,-251.9"/>
<polygon fill="#8b1a1a" stroke="#8b1a1a" points="1401.14,-214.26 1390.61,-215.47 1399.59,-221.09 1401.14,-214.26"/>
</g>
<!-- Node28 -->
<g id="node28" class="node">
<title>Node28</title>
<g id="a_node28"><a xlink:href="classitk_1_1ImageToImageFilterCommon.html" target="_top" xlink:title="Secondary base class of ImageToImageFilter common between templates.">
<polygon fill="white" stroke="black" points="1531,-213.44 1531,-232.44 1707,-232.44 1707,-213.44 1531,-213.44"/>
<text text-anchor="middle" x="1619" y="-220.44" font-family="Helvetica,sans-Serif" font-size="10.00">itk::ImageToImageFilterCommon</text>
</a>
</g>
</g>
<!-- Node28&#45;&gt;Node3 -->
<g id="edge32" class="edge">
<title>Node28&#45;&gt;Node3</title>
<path fill="none" stroke="#8b1a1a" d="M1692.81,-235.66C1697.72,-237.48 1702.5,-239.56 1707,-241.94 1727.01,-252.52 1724.58,-265.3 1744,-276.94 1749.79,-280.41 1756.04,-283.53 1762.44,-286.34"/>
<polygon fill="#8b1a1a" stroke="#8b1a1a" points="1693.83,-232.31 1683.23,-232.47 1691.62,-238.95 1693.83,-232.31"/>
</g>
<!-- Node29 -->
<g id="node29" class="node">
<title>Node29</title>
<g id="a_node29"><a xlink:title=" ">
<polygon fill="white" stroke="#bfbfbf" points="1745.5,-226.44 1745.5,-267.44 1924.5,-267.44 1924.5,-226.44 1745.5,-226.44"/>
<text text-anchor="start" x="1753.5" y="-255.44" font-family="Helvetica,sans-Serif" font-size="10.00">std::priority_queue</text>
<text text-anchor="start" x="1753.5" y="-244.44" font-family="Helvetica,sans-Serif" font-size="10.00">&lt; AxisNodeType, HeapContainer,</text>
<text text-anchor="middle" x="1835" y="-233.44" font-family="Helvetica,sans-Serif" font-size="10.00"> NodeComparer &gt;</text>
</a>
</g>
</g>
<!-- Node29&#45;&gt;Node2 -->
<g id="edge33" class="edge">
<title>Node29&#45;&gt;Node2</title>
<path fill="none" stroke="#9a32cd" stroke-dasharray="5,2" d="M1913.51,-271.33C1917.78,-273.12 1921.97,-274.99 1926,-276.94 1997.03,-311.23 2068.22,-372.4 2102.85,-404.3"/>
<polygon fill="#9a32cd" stroke="#9a32cd" points="1914.66,-268.02 1904.07,-267.54 1912.05,-274.51 1914.66,-268.02"/>
<text text-anchor="middle" x="1981" y="-337.94" font-family="Helvetica,sans-Serif" font-size="10.00"> m_TrialHeap</text>
</g>
<!-- Node30 -->
<g id="node30" class="node">
<title>Node30</title>
<g id="a_node30"><a xlink:href="classitk_1_1FastMarchingImageFilter_1_1AxisNodeType.html" target="_top" xlink:title=" ">
<polygon fill="white" stroke="black" points="1757.5,-453.44 1757.5,-494.44 1912.5,-494.44 1912.5,-453.44 1757.5,-453.44"/>
<text text-anchor="start" x="1765.5" y="-482.44" font-family="Helvetica,sans-Serif" font-size="10.00">itk::FastMarchingImageFilter</text>
<text text-anchor="start" x="1765.5" y="-471.44" font-family="Helvetica,sans-Serif" font-size="10.00">&lt; TLevelSet, TSpeedImage</text>
<text text-anchor="middle" x="1835" y="-460.44" font-family="Helvetica,sans-Serif" font-size="10.00"> &gt;::AxisNodeType</text>
</a>
</g>
</g>
<!-- Node30&#45;&gt;Node2 -->
<g id="edge35" class="edge">
<title>Node30&#45;&gt;Node2</title>
<path fill="none" stroke="#9a32cd" stroke-dasharray="5,2" d="M1922.49,-459.24C1958.3,-453.16 1999.79,-446.12 2035.82,-440"/>
<polygon fill="#9a32cd" stroke="#9a32cd" points="1921.83,-455.81 1912.56,-460.93 1923,-462.71 1921.83,-455.81"/>
<text text-anchor="middle" x="1981" y="-458.94" font-family="Helvetica,sans-Serif" font-size="10.00"> m_NodesUsed</text>
</g>
<!-- Node31 -->
<g id="node31" class="node">
<title>Node31</title>
<g id="a_node31"><a xlink:title=" ">
<polygon fill="white" stroke="#bfbfbf" points="1586.5,-464.44 1586.5,-483.44 1651.5,-483.44 1651.5,-464.44 1586.5,-464.44"/>
<text text-anchor="middle" x="1619" y="-471.44" font-family="Helvetica,sans-Serif" font-size="10.00">NodeType</text>
</a>
</g>
</g>
<!-- Node31&#45;&gt;Node30 -->
<g id="edge36" class="edge">
<title>Node31&#45;&gt;Node30</title>
<path fill="none" stroke="midnightblue" d="M1661.88,-473.94C1689.04,-473.94 1725.23,-473.94 1757.42,-473.94"/>
<polygon fill="midnightblue" stroke="midnightblue" points="1661.58,-470.44 1651.58,-473.94 1661.58,-477.44 1661.58,-470.44"/>
</g>
</g>
</svg>
