<?xml version="1.0" encoding="UTF-8" standalone="no"?>
<!DOCTYPE svg PUBLIC "-//W3C//DTD SVG 1.1//EN"
 "http://www.w3.org/Graphics/SVG/1.1/DTD/svg11.dtd">
<!-- Generated by graphviz version 2.43.0 (0)
 -->
<!-- Title: itk::PointSetToPointSetMetricv4&lt; TFixedPointSet, TMovingPointSet, TInternalComputationValueType &gt; Pages: 1 -->
<svg width="2447pt" height="253pt"
 viewBox="0.00 0.00 2447.00 253.08" xmlns="http://www.w3.org/2000/svg" xmlns:xlink="http://www.w3.org/1999/xlink">
<g id="graph0" class="graph" transform="scale(1 1) rotate(0) translate(4 249.08)">
<title>itk::PointSetToPointSetMetricv4&lt; TFixedPointSet, TMovingPointSet, TInternalComputationValueType &gt;</title>
<polygon fill="white" stroke="transparent" points="-4,4 -4,-249.08 2443,-249.08 2443,4 -4,4"/>
<!-- Node1 -->
<g id="node1" class="node">
<title>Node1</title>
<g id="a_node1"><a xlink:title="Computes similarity between two point sets.">
<polygon fill="#bfbfbf" stroke="black" points="2248,-4.58 2248,-45.58 2439,-45.58 2439,-4.58 2248,-4.58"/>
<text text-anchor="start" x="2256" y="-33.58" font-family="Helvetica,sans-Serif" font-size="10.00">itk::PointSetToPointSetMetricv4</text>
<text text-anchor="start" x="2256" y="-22.58" font-family="Helvetica,sans-Serif" font-size="10.00">&lt; TFixedPointSet, TMovingPointSet,</text>
<text text-anchor="middle" x="2343.5" y="-11.58" font-family="Helvetica,sans-Serif" font-size="10.00"> TInternalComputationValueType &gt;</text>
</a>
</g>
</g>
<!-- Node2 -->
<g id="node2" class="node">
<title>Node2</title>
<g id="a_node2"><a xlink:href="classitk_1_1PointSetToPointSetMetricWithIndexv4.html" target="_top" xlink:title=" ">
<polygon fill="white" stroke="black" points="2047,-4.58 2047,-45.58 2211,-45.58 2211,-4.58 2047,-4.58"/>
<text text-anchor="start" x="2055" y="-33.58" font-family="Helvetica,sans-Serif" font-size="10.00">itk::PointSetToPointSetMetric</text>
<text text-anchor="start" x="2055" y="-22.58" font-family="Helvetica,sans-Serif" font-size="10.00">WithIndexv4&lt; TFixedPointSet,</text>
<text text-anchor="middle" x="2129" y="-11.58" font-family="Helvetica,sans-Serif" font-size="10.00"> TFixedPointSet, double &gt;</text>
</a>
</g>
</g>
<!-- Node2&#45;&gt;Node1 -->
<g id="edge1" class="edge">
<title>Node2&#45;&gt;Node1</title>
<path fill="none" stroke="midnightblue" d="M2221.42,-25.08C2230.16,-25.08 2239.03,-25.08 2247.79,-25.08"/>
<polygon fill="midnightblue" stroke="midnightblue" points="2221.25,-21.58 2211.25,-25.08 2221.25,-28.58 2221.25,-21.58"/>
</g>
<!-- Node3 -->
<g id="node3" class="node">
<title>Node3</title>
<g id="a_node3"><a xlink:href="classitk_1_1ObjectToObjectMetric.html" target="_top" xlink:title=" ">
<polygon fill="white" stroke="black" points="1824,-64.58 1824,-127.58 2010,-127.58 2010,-64.58 1824,-64.58"/>
<text text-anchor="start" x="1832" y="-115.58" font-family="Helvetica,sans-Serif" font-size="10.00">itk::ObjectToObjectMetric</text>
<text text-anchor="start" x="1832" y="-104.58" font-family="Helvetica,sans-Serif" font-size="10.00">&lt; TFixedPointSet::PointDimension,</text>
<text text-anchor="start" x="1832" y="-93.58" font-family="Helvetica,sans-Serif" font-size="10.00"> TFixedPointSet ::PointDimension,</text>
<text text-anchor="start" x="1832" y="-82.58" font-family="Helvetica,sans-Serif" font-size="10.00"> Image&lt; double, TFixedPointSet::</text>
<text text-anchor="middle" x="1917" y="-71.58" font-family="Helvetica,sans-Serif" font-size="10.00">PointDimension &gt;, double &gt;</text>
</a>
</g>
</g>
<!-- Node3&#45;&gt;Node2 -->
<g id="edge2" class="edge">
<title>Node3&#45;&gt;Node2</title>
<path fill="none" stroke="midnightblue" d="M2019.64,-61.72C2035.86,-56.23 2052.19,-50.71 2067.08,-45.68"/>
<polygon fill="midnightblue" stroke="midnightblue" points="2018.46,-58.42 2010.11,-64.94 2020.7,-65.05 2018.46,-58.42"/>
</g>
<!-- Node4 -->
<g id="node4" class="node">
<title>Node4</title>
<g id="a_node4"><a xlink:href="classitk_1_1ObjectToObjectMetricBaseTemplate.html" target="_top" xlink:title=" ">
<polygon fill="white" stroke="black" points="1505,-137.08 1505,-167.08 1646,-167.08 1646,-137.08 1505,-137.08"/>
<text text-anchor="start" x="1513" y="-155.08" font-family="Helvetica,sans-Serif" font-size="10.00">itk::ObjectToObjectMetric</text>
<text text-anchor="middle" x="1575.5" y="-144.08" font-family="Helvetica,sans-Serif" font-size="10.00">BaseTemplate&lt; double &gt;</text>
</a>
</g>
</g>
<!-- Node4&#45;&gt;Node3 -->
<g id="edge3" class="edge">
<title>Node4&#45;&gt;Node3</title>
<path fill="none" stroke="midnightblue" d="M1656.17,-138.94C1706.34,-130.66 1771.29,-119.95 1823.7,-111.3"/>
<polygon fill="midnightblue" stroke="midnightblue" points="1655.32,-135.53 1646.02,-140.61 1656.46,-142.44 1655.32,-135.53"/>
</g>
<!-- Node5 -->
<g id="node5" class="node">
<title>Node5</title>
<g id="a_node5"><a xlink:href="classitk_1_1SingleValuedCostFunctionv4Template.html" target="_top" xlink:title=" ">
<polygon fill="white" stroke="black" points="1210,-151.08 1210,-181.08 1383,-181.08 1383,-151.08 1210,-151.08"/>
<text text-anchor="start" x="1218" y="-169.08" font-family="Helvetica,sans-Serif" font-size="10.00">itk::SingleValuedCostFunctionv4</text>
<text text-anchor="middle" x="1296.5" y="-158.08" font-family="Helvetica,sans-Serif" font-size="10.00">Template&lt; double &gt;</text>
</a>
</g>
</g>
<!-- Node5&#45;&gt;Node4 -->
<g id="edge4" class="edge">
<title>Node5&#45;&gt;Node4</title>
<path fill="none" stroke="midnightblue" d="M1393.46,-161.23C1430.12,-159.38 1471.18,-157.3 1504.92,-155.59"/>
<polygon fill="midnightblue" stroke="midnightblue" points="1393.06,-157.74 1383.25,-161.74 1393.41,-164.74 1393.06,-157.74"/>
</g>
<!-- Node6 -->
<g id="node6" class="node">
<title>Node6</title>
<g id="a_node6"><a xlink:href="classitk_1_1CostFunctionTemplate.html" target="_top" xlink:title=" ">
<polygon fill="white" stroke="black" points="1030,-151.08 1030,-181.08 1173,-181.08 1173,-151.08 1030,-151.08"/>
<text text-anchor="start" x="1038" y="-169.08" font-family="Helvetica,sans-Serif" font-size="10.00">itk::CostFunctionTemplate</text>
<text text-anchor="middle" x="1101.5" y="-158.08" font-family="Helvetica,sans-Serif" font-size="10.00">&lt; double &gt;</text>
</a>
</g>
</g>
<!-- Node6&#45;&gt;Node5 -->
<g id="edge5" class="edge">
<title>Node6&#45;&gt;Node5</title>
<path fill="none" stroke="midnightblue" d="M1183.46,-166.08C1192.23,-166.08 1201.17,-166.08 1209.99,-166.08"/>
<polygon fill="midnightblue" stroke="midnightblue" points="1183.27,-162.58 1173.27,-166.08 1183.27,-169.58 1183.27,-162.58"/>
</g>
<!-- Node7 -->
<g id="node7" class="node">
<title>Node7</title>
<g id="a_node7"><a xlink:href="classitk_1_1Object.html" target="_top" xlink:title="Base class for most ITK classes.">
<polygon fill="white" stroke="black" points="926,-156.58 926,-175.58 993,-175.58 993,-156.58 926,-156.58"/>
<text text-anchor="middle" x="959.5" y="-163.58" font-family="Helvetica,sans-Serif" font-size="10.00">itk::Object</text>
</a>
</g>
</g>
<!-- Node7&#45;&gt;Node6 -->
<g id="edge6" class="edge">
<title>Node7&#45;&gt;Node6</title>
<path fill="none" stroke="midnightblue" d="M1003.52,-166.08C1011.87,-166.08 1020.81,-166.08 1029.78,-166.08"/>
<polygon fill="midnightblue" stroke="midnightblue" points="1003.32,-162.58 993.32,-166.08 1003.32,-169.58 1003.32,-162.58"/>
</g>
<!-- Node8 -->
<g id="node8" class="node">
<title>Node8</title>
<g id="a_node8"><a xlink:href="classitk_1_1LightObject.html" target="_top" xlink:title="Light weight base class for most itk classes.">
<polygon fill="white" stroke="black" points="660.5,-220.58 660.5,-239.58 751.5,-239.58 751.5,-220.58 660.5,-220.58"/>
<text text-anchor="middle" x="706" y="-227.58" font-family="Helvetica,sans-Serif" font-size="10.00">itk::LightObject</text>
</a>
</g>
</g>
<!-- Node8&#45;&gt;Node7 -->
<g id="edge7" class="edge">
<title>Node8&#45;&gt;Node7</title>
<path fill="none" stroke="midnightblue" d="M761.62,-224.65C802.72,-219.46 859.99,-209.87 908,-193.08 920.57,-188.68 933.82,-181.49 943.59,-175.63"/>
<polygon fill="midnightblue" stroke="midnightblue" points="761.04,-221.19 751.53,-225.87 761.88,-228.14 761.04,-221.19"/>
</g>
<!-- Node9 -->
<g id="node9" class="node">
<title>Node9</title>
<g id="a_node9"><a xlink:title=" ">
<polygon fill="white" stroke="#bfbfbf" points="378,-225.58 378,-244.58 485,-244.58 485,-225.58 378,-225.58"/>
<text text-anchor="middle" x="431.5" y="-232.58" font-family="Helvetica,sans-Serif" font-size="10.00">std::atomic&lt; int &gt;</text>
</a>
</g>
</g>
<!-- Node9&#45;&gt;Node8 -->
<g id="edge8" class="edge">
<title>Node9&#45;&gt;Node8</title>
<path fill="none" stroke="#9a32cd" stroke-dasharray="5,2" d="M495.18,-233.93C545.64,-233 615.33,-231.72 660.29,-230.9"/>
<polygon fill="#9a32cd" stroke="#9a32cd" points="494.97,-230.43 485.04,-234.11 495.1,-237.43 494.97,-230.43"/>
<text text-anchor="middle" x="572.5" y="-236.08" font-family="Helvetica,sans-Serif" font-size="10.00"> m_ReferenceCount</text>
</g>
<!-- Node10 -->
<g id="node10" class="node">
<title>Node10</title>
<g id="a_node10"><a xlink:title="STL class.">
<polygon fill="white" stroke="#bfbfbf" points="673.5,-176.58 673.5,-195.58 738.5,-195.58 738.5,-176.58 673.5,-176.58"/>
<text text-anchor="middle" x="706" y="-183.58" font-family="Helvetica,sans-Serif" font-size="10.00">std::string</text>
</a>
</g>
</g>
<!-- Node10&#45;&gt;Node7 -->
<g id="edge9" class="edge">
<title>Node10&#45;&gt;Node7</title>
<path fill="none" stroke="#9a32cd" stroke-dasharray="5,2" d="M748.68,-182.76C798.33,-178.82 880.24,-172.3 925.64,-168.69"/>
<polygon fill="#9a32cd" stroke="#9a32cd" points="748.29,-179.28 738.6,-183.57 748.84,-186.26 748.29,-179.28"/>
<text text-anchor="middle" x="849.5" y="-181.08" font-family="Helvetica,sans-Serif" font-size="10.00"> m_ObjectName</text>
</g>
<!-- Node11 -->
<g id="node11" class="node">
<title>Node11</title>
<g id="a_node11"><a xlink:title="STL class.">
<polygon fill="white" stroke="#bfbfbf" points="379.5,-176.08 379.5,-206.08 483.5,-206.08 483.5,-176.08 379.5,-176.08"/>
<text text-anchor="start" x="387.5" y="-194.08" font-family="Helvetica,sans-Serif" font-size="10.00">std::basic_string&lt;</text>
<text text-anchor="middle" x="431.5" y="-183.08" font-family="Helvetica,sans-Serif" font-size="10.00"> char &gt;</text>
</a>
</g>
</g>
<!-- Node11&#45;&gt;Node10 -->
<g id="edge10" class="edge">
<title>Node11&#45;&gt;Node10</title>
<path fill="none" stroke="midnightblue" d="M493.85,-189.95C549.49,-188.93 629.3,-187.47 673.14,-186.66"/>
<polygon fill="midnightblue" stroke="midnightblue" points="493.69,-186.45 483.76,-190.14 493.82,-193.45 493.69,-186.45"/>
</g>
<!-- Node12 -->
<g id="node12" class="node">
<title>Node12</title>
<g id="a_node12"><a xlink:href="classitk_1_1MetaDataDictionary.html" target="_top" xlink:title="Provides a mechanism for storing a collection of arbitrary data types.">
<polygon fill="white" stroke="black" points="639,-137.58 639,-156.58 773,-156.58 773,-137.58 639,-137.58"/>
<text text-anchor="middle" x="706" y="-144.58" font-family="Helvetica,sans-Serif" font-size="10.00">itk::MetaDataDictionary</text>
</a>
</g>
</g>
<!-- Node12&#45;&gt;Node7 -->
<g id="edge11" class="edge">
<title>Node12&#45;&gt;Node7</title>
<path fill="none" stroke="#9a32cd" stroke-dasharray="5,2" d="M783.42,-143.8C821.13,-143.4 867.18,-144.73 908,-151.08 915.68,-152.27 923.83,-154.33 931.29,-156.54"/>
<polygon fill="#9a32cd" stroke="#9a32cd" points="782.96,-140.3 773.02,-143.95 783.07,-147.3 782.96,-140.3"/>
<text text-anchor="middle" x="849.5" y="-154.08" font-family="Helvetica,sans-Serif" font-size="10.00"> m_MetaDataDictionary</text>
</g>
<!-- Node13 -->
<g id="node13" class="node">
<title>Node13</title>
<g id="a_node13"><a xlink:title=" ">
<polygon fill="white" stroke="#bfbfbf" points="357,-127.08 357,-157.08 506,-157.08 506,-127.08 357,-127.08"/>
<text text-anchor="start" x="365" y="-145.08" font-family="Helvetica,sans-Serif" font-size="10.00">std::shared_ptr&lt; MetaData</text>
<text text-anchor="middle" x="431.5" y="-134.08" font-family="Helvetica,sans-Serif" font-size="10.00">DictionaryMapType &gt;</text>
</a>
</g>
</g>
<!-- Node13&#45;&gt;Node12 -->
<g id="edge12" class="edge">
<title>Node13&#45;&gt;Node12</title>
<path fill="none" stroke="#9a32cd" stroke-dasharray="5,2" d="M516.34,-143.62C555.65,-144.34 601.82,-145.19 638.65,-145.86"/>
<polygon fill="#9a32cd" stroke="#9a32cd" points="516.3,-140.12 506.24,-143.43 516.18,-147.11 516.3,-140.12"/>
<text text-anchor="middle" x="572.5" y="-148.08" font-family="Helvetica,sans-Serif" font-size="10.00"> m_Dictionary</text>
</g>
<!-- Node14 -->
<g id="node14" class="node">
<title>Node14</title>
<g id="a_node14"><a xlink:title="STL class.">
<polygon fill="white" stroke="#bfbfbf" points="114,-132.58 114,-151.58 215,-151.58 215,-132.58 114,-132.58"/>
<text text-anchor="middle" x="164.5" y="-139.58" font-family="Helvetica,sans-Serif" font-size="10.00">std::map&lt; K, T &gt;</text>
</a>
</g>
</g>
<!-- Node14&#45;&gt;Node13 -->
<g id="edge13" class="edge">
<title>Node14&#45;&gt;Node13</title>
<path fill="none" stroke="#9a32cd" stroke-dasharray="5,2" d="M225.18,-142.08C264.19,-142.08 315.41,-142.08 356.93,-142.08"/>
<polygon fill="#9a32cd" stroke="#9a32cd" points="225.03,-138.58 215.03,-142.08 225.03,-145.58 225.03,-138.58"/>
<text text-anchor="middle" x="286" y="-145.08" font-family="Helvetica,sans-Serif" font-size="10.00"> ptr</text>
</g>
<!-- Node15 -->
<g id="node15" class="node">
<title>Node15</title>
<g id="a_node15"><a xlink:title=" ">
<polygon fill="white" stroke="#bfbfbf" points="0,-156.58 0,-175.58 29,-175.58 29,-156.58 0,-156.58"/>
<text text-anchor="middle" x="14.5" y="-163.58" font-family="Helvetica,sans-Serif" font-size="10.00">K</text>
</a>
</g>
</g>
<!-- Node15&#45;&gt;Node14 -->
<g id="edge14" class="edge">
<title>Node15&#45;&gt;Node14</title>
<path fill="none" stroke="#9a32cd" stroke-dasharray="5,2" d="M39.24,-162.23C59.28,-158.98 88.63,-154.22 113.78,-150.14"/>
<polygon fill="#9a32cd" stroke="#9a32cd" points="38.47,-158.81 29.16,-163.86 39.59,-165.72 38.47,-158.81"/>
<text text-anchor="middle" x="71.5" y="-163.08" font-family="Helvetica,sans-Serif" font-size="10.00"> keys</text>
</g>
<!-- Node16 -->
<g id="node16" class="node">
<title>Node16</title>
<g id="a_node16"><a xlink:title=" ">
<polygon fill="white" stroke="#bfbfbf" points="0,-103.58 0,-122.58 29,-122.58 29,-103.58 0,-103.58"/>
<text text-anchor="middle" x="14.5" y="-110.58" font-family="Helvetica,sans-Serif" font-size="10.00">T</text>
</a>
</g>
</g>
<!-- Node16&#45;&gt;Node14 -->
<g id="edge15" class="edge">
<title>Node16&#45;&gt;Node14</title>
<path fill="none" stroke="#9a32cd" stroke-dasharray="5,2" d="M39.09,-117.7C59.39,-121.68 89.35,-127.55 114.78,-132.53"/>
<polygon fill="#9a32cd" stroke="#9a32cd" points="39.64,-114.24 29.16,-115.75 38.3,-121.11 39.64,-114.24"/>
<text text-anchor="middle" x="71.5" y="-131.08" font-family="Helvetica,sans-Serif" font-size="10.00"> elements</text>
</g>
<!-- Node18 -->
<g id="node18" class="node">
<title>Node18</title>
<g id="a_node18"><a xlink:title="STL class.">
<polygon fill="white" stroke="#bfbfbf" points="114.5,-88.58 114.5,-107.58 214.5,-107.58 214.5,-88.58 114.5,-88.58"/>
<text text-anchor="middle" x="164.5" y="-95.58" font-family="Helvetica,sans-Serif" font-size="10.00">std::atomic&lt; T &gt;</text>
</a>
</g>
</g>
<!-- Node16&#45;&gt;Node18 -->
<g id="edge18" class="edge">
<title>Node16&#45;&gt;Node18</title>
<path fill="none" stroke="#9a32cd" stroke-dasharray="5,2" d="M38.4,-101.62C41.24,-100.59 44.15,-99.7 47,-99.08 68.74,-94.37 93.31,-93.52 114.26,-94.09"/>
<polygon fill="#9a32cd" stroke="#9a32cd" points="37.03,-98.4 29.19,-105.53 39.77,-104.85 37.03,-98.4"/>
<text text-anchor="middle" x="71.5" y="-102.08" font-family="Helvetica,sans-Serif" font-size="10.00"> ptr</text>
</g>
<!-- Node17 -->
<g id="node17" class="node">
<title>Node17</title>
<g id="a_node17"><a xlink:href="classitk_1_1TimeStamp.html" target="_top" xlink:title="Generate a unique, increasing time value.">
<polygon fill="white" stroke="black" points="526.5,-93.58 526.5,-112.58 618.5,-112.58 618.5,-93.58 526.5,-93.58"/>
<text text-anchor="middle" x="572.5" y="-100.58" font-family="Helvetica,sans-Serif" font-size="10.00">itk::TimeStamp</text>
</a>
</g>
</g>
<!-- Node17&#45;&gt;Node7 -->
<g id="edge16" class="edge">
<title>Node17&#45;&gt;Node7</title>
<path fill="none" stroke="#9a32cd" stroke-dasharray="5,2" d="M628.67,-101.76C696.29,-101.77 813.54,-107.12 908,-139.08 920.62,-143.35 933.86,-150.55 943.62,-156.44"/>
<polygon fill="#9a32cd" stroke="#9a32cd" points="628.64,-98.26 618.65,-101.8 628.67,-105.26 628.64,-98.26"/>
<text text-anchor="middle" x="706" y="-112.08" font-family="Helvetica,sans-Serif" font-size="10.00"> m_MTime</text>
</g>
<!-- Node18&#45;&gt;Node17 -->
<g id="edge17" class="edge">
<title>Node18&#45;&gt;Node17</title>
<path fill="none" stroke="#9a32cd" stroke-dasharray="5,2" d="M225.03,-98.81C306.93,-99.82 452.57,-101.61 526.2,-102.52"/>
<polygon fill="#9a32cd" stroke="#9a32cd" points="224.92,-95.31 214.88,-98.69 224.83,-102.31 224.92,-95.31"/>
<text text-anchor="middle" x="286" y="-103.08" font-family="Helvetica,sans-Serif" font-size="10.00"> m_GlobalTimeStamp</text>
</g>
<!-- Node19 -->
<g id="node19" class="node">
<title>Node19</title>
<g id="a_node19"><a xlink:href="classitk_1_1SmartPointer.html" target="_top" xlink:title="Implements transparent reference counting.">
<polygon fill="white" stroke="black" points="1243,-81.08 1243,-111.08 1350,-111.08 1350,-81.08 1243,-81.08"/>
<text text-anchor="start" x="1251" y="-99.08" font-family="Helvetica,sans-Serif" font-size="10.00">itk::SmartPointer&lt;</text>
<text text-anchor="middle" x="1296.5" y="-88.08" font-family="Helvetica,sans-Serif" font-size="10.00"> TObjectType &gt;</text>
</a>
</g>
</g>
<!-- Node19&#45;&gt;Node2 -->
<g id="edge21" class="edge">
<title>Node19&#45;&gt;Node2</title>
<path fill="none" stroke="#9a32cd" stroke-dasharray="5,2" d="M1351.86,-77.96C1422.72,-55.37 1550.98,-18.05 1664,-4.08 1726.63,3.66 1742.92,-2.02 1806,-4.08 1888.03,-6.75 1981.62,-13.24 2046.68,-18.31"/>
<polygon fill="#9a32cd" stroke="#9a32cd" points="1350.7,-74.65 1342.25,-81.04 1352.84,-81.32 1350.7,-74.65"/>
<text text-anchor="start" x="1664" y="-84.08" font-family="Helvetica,sans-Serif" font-size="10.00"> m_FixedTransformedPoints</text>
<text text-anchor="middle" x="1735" y="-73.08" font-family="Helvetica,sans-Serif" font-size="10.00">Locator</text>
<text text-anchor="start" x="1664" y="-62.08" font-family="Helvetica,sans-Serif" font-size="10.00">m_MovingTransformedPoint</text>
<text text-anchor="middle" x="1735" y="-51.08" font-family="Helvetica,sans-Serif" font-size="10.00">Set</text>
<text text-anchor="start" x="1664" y="-40.08" font-family="Helvetica,sans-Serif" font-size="10.00">m_FixedTransformedPoint</text>
<text text-anchor="middle" x="1735" y="-29.08" font-family="Helvetica,sans-Serif" font-size="10.00">Set</text>
<text text-anchor="start" x="1664" y="-18.08" font-family="Helvetica,sans-Serif" font-size="10.00">m_MovingTransformedPoints</text>
<text text-anchor="middle" x="1735" y="-7.08" font-family="Helvetica,sans-Serif" font-size="10.00">Locator</text>
</g>
<!-- Node19&#45;&gt;Node3 -->
<g id="edge20" class="edge">
<title>Node19&#45;&gt;Node3</title>
<path fill="none" stroke="#9a32cd" stroke-dasharray="5,2" d="M1360.47,-96.08C1470.11,-96.08 1696.49,-96.08 1823.82,-96.08"/>
<polygon fill="#9a32cd" stroke="#9a32cd" points="1360.23,-92.58 1350.23,-96.08 1360.23,-99.58 1360.23,-92.58"/>
<text text-anchor="middle" x="1575.5" y="-110.08" font-family="Helvetica,sans-Serif" font-size="10.00"> m_MovingTransform</text>
<text text-anchor="middle" x="1575.5" y="-99.08" font-family="Helvetica,sans-Serif" font-size="10.00">m_FixedTransform</text>
</g>
<!-- Node19&#45;&gt;Node4 -->
<g id="edge19" class="edge">
<title>Node19&#45;&gt;Node4</title>
<path fill="none" stroke="#9a32cd" stroke-dasharray="5,2" d="M1360.51,-106.27C1397.48,-112.52 1445.03,-121.05 1487,-130.08 1496.8,-132.19 1507.17,-134.62 1517.21,-137.07"/>
<polygon fill="#9a32cd" stroke="#9a32cd" points="1360.82,-102.77 1350.38,-104.56 1359.66,-109.67 1360.82,-102.77"/>
<text text-anchor="middle" x="1444" y="-144.08" font-family="Helvetica,sans-Serif" font-size="10.00"> m_MovingObject</text>
<text text-anchor="middle" x="1444" y="-133.08" font-family="Helvetica,sans-Serif" font-size="10.00">m_FixedObject</text>
</g>
</g>
</svg>
