<?xml version="1.0" encoding="UTF-8" standalone="no"?>
<!DOCTYPE svg PUBLIC "-//W3C//DTD SVG 1.1//EN"
 "http://www.w3.org/Graphics/SVG/1.1/DTD/svg11.dtd">
<!-- Generated by graphviz version 2.43.0 (0)
 -->
<!-- Title: itk::VoronoiDiagram2D&lt; TCoordType &gt; Pages: 1 -->
<svg width="976pt" height="50pt"
 viewBox="0.00 0.00 976.00 50.00" xmlns="http://www.w3.org/2000/svg" xmlns:xlink="http://www.w3.org/1999/xlink">
<g id="graph0" class="graph" transform="scale(1 1) rotate(0) translate(4 46)">
<title>itk::VoronoiDiagram2D&lt; TCoordType &gt;</title>
<polygon fill="white" stroke="transparent" points="-4,4 -4,-46 972,-46 972,4 -4,4"/>
<!-- Node1 -->
<g id="node1" class="node">
<title>Node1</title>
<g id="a_node1"><a xlink:title="Implements the 2&#45;Dimensional Voronoi Diagram.">
<polygon fill="#bfbfbf" stroke="black" points="840,-6 840,-36 968,-36 968,-6 840,-6"/>
<text text-anchor="start" x="848" y="-24" font-family="Helvetica,sans-Serif" font-size="10.00">itk::VoronoiDiagram2D</text>
<text text-anchor="middle" x="904" y="-13" font-family="Helvetica,sans-Serif" font-size="10.00">&lt; TCoordType &gt;</text>
</a>
</g>
</g>
<!-- Node2 -->
<g id="node2" class="node">
<title>Node2</title>
<g id="a_node2"><a xlink:href="classitk_1_1Mesh.html" target="_top" xlink:title=" ">
<polygon fill="white" stroke="black" points="611,-0.5 611,-41.5 804,-41.5 804,-0.5 611,-0.5"/>
<text text-anchor="start" x="619" y="-29.5" font-family="Helvetica,sans-Serif" font-size="10.00">itk::Mesh&lt; TCoordType,</text>
<text text-anchor="start" x="619" y="-18.5" font-family="Helvetica,sans-Serif" font-size="10.00"> 2, DefaultDynamicMeshTraits</text>
<text text-anchor="middle" x="707.5" y="-7.5" font-family="Helvetica,sans-Serif" font-size="10.00">&lt; TCoordType, 2, 2, TCoordType &gt; &gt;</text>
</a>
</g>
</g>
<!-- Node2&#45;&gt;Node1 -->
<g id="edge1" class="edge">
<title>Node2&#45;&gt;Node1</title>
<path fill="none" stroke="midnightblue" d="M814.04,-21C822.88,-21 831.62,-21 839.98,-21"/>
<polygon fill="midnightblue" stroke="midnightblue" points="814.04,-17.5 804.04,-21 814.04,-24.5 814.04,-17.5"/>
</g>
<!-- Node3 -->
<g id="node3" class="node">
<title>Node3</title>
<g id="a_node3"><a xlink:href="classitk_1_1PointSet.html" target="_top" xlink:title=" ">
<polygon fill="white" stroke="black" points="356,-0.5 356,-41.5 575,-41.5 575,-0.5 356,-0.5"/>
<text text-anchor="start" x="364" y="-29.5" font-family="Helvetica,sans-Serif" font-size="10.00">itk::PointSet&lt; TCoordType,</text>
<text text-anchor="start" x="364" y="-18.5" font-family="Helvetica,sans-Serif" font-size="10.00"> VDimension, DefaultDynamicMesh</text>
<text text-anchor="middle" x="465.5" y="-7.5" font-family="Helvetica,sans-Serif" font-size="10.00">Traits&lt; TCoordType, 2, 2, TCoordType &gt; &gt;</text>
</a>
</g>
</g>
<!-- Node3&#45;&gt;Node2 -->
<g id="edge2" class="edge">
<title>Node3&#45;&gt;Node2</title>
<path fill="none" stroke="midnightblue" d="M585.34,-21C593.93,-21 602.53,-21 610.96,-21"/>
<polygon fill="midnightblue" stroke="midnightblue" points="585.26,-17.5 575.26,-21 585.26,-24.5 585.26,-17.5"/>
</g>
<!-- Node4 -->
<g id="node4" class="node">
<title>Node4</title>
<g id="a_node4"><a xlink:href="classitk_1_1DataObject.html" target="_top" xlink:title="Base class for all data objects in ITK.">
<polygon fill="white" stroke="black" points="230,-11.5 230,-30.5 320,-30.5 320,-11.5 230,-11.5"/>
<text text-anchor="middle" x="275" y="-18.5" font-family="Helvetica,sans-Serif" font-size="10.00">itk::DataObject</text>
</a>
</g>
</g>
<!-- Node4&#45;&gt;Node3 -->
<g id="edge3" class="edge">
<title>Node4&#45;&gt;Node3</title>
<path fill="none" stroke="midnightblue" d="M330.47,-21C338.5,-21 347.02,-21 355.7,-21"/>
<polygon fill="midnightblue" stroke="midnightblue" points="330.19,-17.5 320.19,-21 330.19,-24.5 330.19,-17.5"/>
</g>
<!-- Node5 -->
<g id="node5" class="node">
<title>Node5</title>
<g id="a_node5"><a xlink:href="classitk_1_1Object.html" target="_top" xlink:title="Base class for most ITK classes.">
<polygon fill="white" stroke="black" points="127,-11.5 127,-30.5 194,-30.5 194,-11.5 127,-11.5"/>
<text text-anchor="middle" x="160.5" y="-18.5" font-family="Helvetica,sans-Serif" font-size="10.00">itk::Object</text>
</a>
</g>
</g>
<!-- Node5&#45;&gt;Node4 -->
<g id="edge4" class="edge">
<title>Node5&#45;&gt;Node4</title>
<path fill="none" stroke="midnightblue" d="M204.05,-21C212.47,-21 221.34,-21 229.81,-21"/>
<polygon fill="midnightblue" stroke="midnightblue" points="204.04,-17.5 194.04,-21 204.04,-24.5 204.04,-17.5"/>
</g>
<!-- Node6 -->
<g id="node6" class="node">
<title>Node6</title>
<g id="a_node6"><a xlink:href="classitk_1_1LightObject.html" target="_top" xlink:title="Light weight base class for most itk classes.">
<polygon fill="white" stroke="black" points="0,-11.5 0,-30.5 91,-30.5 91,-11.5 0,-11.5"/>
<text text-anchor="middle" x="45.5" y="-18.5" font-family="Helvetica,sans-Serif" font-size="10.00">itk::LightObject</text>
</a>
</g>
</g>
<!-- Node6&#45;&gt;Node5 -->
<g id="edge5" class="edge">
<title>Node6&#45;&gt;Node5</title>
<path fill="none" stroke="midnightblue" d="M101.28,-21C109.96,-21 118.69,-21 126.66,-21"/>
<polygon fill="midnightblue" stroke="midnightblue" points="101.16,-17.5 91.16,-21 101.16,-24.5 101.16,-17.5"/>
</g>
</g>
</svg>
