<?xml version="1.0" encoding="UTF-8" standalone="no"?>
<!DOCTYPE svg PUBLIC "-//W3C//DTD SVG 1.1//EN"
 "http://www.w3.org/Graphics/SVG/1.1/DTD/svg11.dtd">
<!-- Generated by graphviz version 2.43.0 (0)
 -->
<!-- Title: itk::Statistics::KdTreeBasedKmeansEstimator&lt; TKdTree &gt; Pages: 1 -->
<svg width="173pt" height="151pt"
 viewBox="0.00 0.00 173.00 151.00" xmlns="http://www.w3.org/2000/svg" xmlns:xlink="http://www.w3.org/1999/xlink">
<g id="graph0" class="graph" transform="scale(1 1) rotate(0) translate(4 147)">
<title>itk::Statistics::KdTreeBasedKmeansEstimator&lt; TKdTree &gt;</title>
<polygon fill="white" stroke="transparent" points="-4,4 -4,-147 169,-147 169,4 -4,4"/>
<!-- Node1 -->
<g id="node1" class="node">
<title>Node1</title>
<g id="a_node1"><a xlink:title="fast k&#45;means algorithm implementation using k&#45;d tree structure">
<polygon fill="#bfbfbf" stroke="black" points="0,-0.5 0,-30.5 165,-30.5 165,-0.5 0,-0.5"/>
<text text-anchor="start" x="8" y="-18.5" font-family="Helvetica,sans-Serif" font-size="10.00">itk::Statistics::KdTreeBased</text>
<text text-anchor="middle" x="82.5" y="-7.5" font-family="Helvetica,sans-Serif" font-size="10.00">KmeansEstimator&lt; TKdTree &gt;</text>
</a>
</g>
</g>
<!-- Node2 -->
<g id="node2" class="node">
<title>Node2</title>
<g id="a_node2"><a xlink:href="classitk_1_1Object.html" target="_top" xlink:title="Base class for most ITK classes.">
<polygon fill="white" stroke="black" points="49,-67.5 49,-86.5 116,-86.5 116,-67.5 49,-67.5"/>
<text text-anchor="middle" x="82.5" y="-74.5" font-family="Helvetica,sans-Serif" font-size="10.00">itk::Object</text>
</a>
</g>
</g>
<!-- Node2&#45;&gt;Node1 -->
<g id="edge1" class="edge">
<title>Node2&#45;&gt;Node1</title>
<path fill="none" stroke="midnightblue" d="M82.5,-57.23C82.5,-48.59 82.5,-38.5 82.5,-30.52"/>
<polygon fill="midnightblue" stroke="midnightblue" points="79,-57.48 82.5,-67.48 86,-57.48 79,-57.48"/>
</g>
<!-- Node3 -->
<g id="node3" class="node">
<title>Node3</title>
<g id="a_node3"><a xlink:href="classitk_1_1LightObject.html" target="_top" xlink:title="Light weight base class for most itk classes.">
<polygon fill="white" stroke="black" points="37,-123.5 37,-142.5 128,-142.5 128,-123.5 37,-123.5"/>
<text text-anchor="middle" x="82.5" y="-130.5" font-family="Helvetica,sans-Serif" font-size="10.00">itk::LightObject</text>
</a>
</g>
</g>
<!-- Node3&#45;&gt;Node2 -->
<g id="edge2" class="edge">
<title>Node3&#45;&gt;Node2</title>
<path fill="none" stroke="midnightblue" d="M82.5,-112.8C82.5,-103.91 82.5,-93.78 82.5,-86.75"/>
<polygon fill="midnightblue" stroke="midnightblue" points="79,-113.08 82.5,-123.08 86,-113.08 79,-113.08"/>
</g>
</g>
</svg>
