<?xml version="1.0" encoding="UTF-8" standalone="no"?>
<!DOCTYPE svg PUBLIC "-//W3C//DTD SVG 1.1//EN"
 "http://www.w3.org/Graphics/SVG/1.1/DTD/svg11.dtd">
<!-- Generated by graphviz version 2.43.0 (0)
 -->
<!-- Title: itk::OrthogonalSwath2DPathFilter&lt; TFourierSeriesPath, TSwathMeritImage &gt; Pages: 1 -->
<svg width="2312pt" height="429pt"
 viewBox="0.00 0.00 2312.00 429.10" xmlns="http://www.w3.org/2000/svg" xmlns:xlink="http://www.w3.org/1999/xlink">
<g id="graph0" class="graph" transform="scale(1 1) rotate(0) translate(4 425.1)">
<title>itk::OrthogonalSwath2DPathFilter&lt; TFourierSeriesPath, TSwathMeritImage &gt;</title>
<polygon fill="white" stroke="transparent" points="-4,4 -4,-425.1 2308,-425.1 2308,4 -4,4"/>
<!-- Node1 -->
<g id="node1" class="node">
<title>Node1</title>
<g id="a_node1"><a xlink:title="Filter that optimizes a 2D path relative to an image.">
<polygon fill="#bfbfbf" stroke="black" points="2150,-364.6 2150,-405.6 2304,-405.6 2304,-364.6 2150,-364.6"/>
<text text-anchor="start" x="2158" y="-393.6" font-family="Helvetica,sans-Serif" font-size="10.00">itk::OrthogonalSwath2DPath</text>
<text text-anchor="start" x="2158" y="-382.6" font-family="Helvetica,sans-Serif" font-size="10.00">Filter&lt; TFourierSeriesPath,</text>
<text text-anchor="middle" x="2227" y="-371.6" font-family="Helvetica,sans-Serif" font-size="10.00"> TSwathMeritImage &gt;</text>
</a>
</g>
</g>
<!-- Node2 -->
<g id="node2" class="node">
<title>Node2</title>
<g id="a_node2"><a xlink:href="classitk_1_1PathAndImageToPathFilter.html" target="_top" xlink:title=" ">
<polygon fill="white" stroke="black" points="1851,-339.6 1851,-380.6 2113,-380.6 2113,-339.6 1851,-339.6"/>
<text text-anchor="start" x="1859" y="-368.6" font-family="Helvetica,sans-Serif" font-size="10.00">itk::PathAndImageToPathFilter</text>
<text text-anchor="start" x="1859" y="-357.6" font-family="Helvetica,sans-Serif" font-size="10.00">&lt; TFourierSeriesPath, TSwathMerit</text>
<text text-anchor="middle" x="1982" y="-346.6" font-family="Helvetica,sans-Serif" font-size="10.00">Image, OrthogonallyCorrected2DParametricPath &gt;</text>
</a>
</g>
</g>
<!-- Node2&#45;&gt;Node1 -->
<g id="edge1" class="edge">
<title>Node2&#45;&gt;Node1</title>
<path fill="none" stroke="midnightblue" d="M2123.27,-374.53C2132.3,-375.46 2141.18,-376.38 2149.71,-377.25"/>
<polygon fill="midnightblue" stroke="midnightblue" points="2123.34,-371.02 2113.04,-373.48 2122.63,-377.99 2123.34,-371.02"/>
</g>
<!-- Node3 -->
<g id="node3" class="node">
<title>Node3</title>
<g id="a_node3"><a xlink:href="classitk_1_1PathToPathFilter.html" target="_top" xlink:title=" ">
<polygon fill="white" stroke="black" points="1618,-321.1 1618,-373.1 1814,-373.1 1814,-321.1 1618,-321.1"/>
<text text-anchor="start" x="1626" y="-361.1" font-family="Helvetica,sans-Serif" font-size="10.00">itk::PathToPathFilter</text>
<text text-anchor="start" x="1626" y="-350.1" font-family="Helvetica,sans-Serif" font-size="10.00">&lt; TFourierSeriesPath,</text>
<text text-anchor="start" x="1626" y="-339.1" font-family="Helvetica,sans-Serif" font-size="10.00"> OrthogonallyCorrected2DParametric</text>
<text text-anchor="middle" x="1716" y="-328.1" font-family="Helvetica,sans-Serif" font-size="10.00">Path &gt;</text>
</a>
</g>
</g>
<!-- Node3&#45;&gt;Node2 -->
<g id="edge2" class="edge">
<title>Node3&#45;&gt;Node2</title>
<path fill="none" stroke="midnightblue" d="M1824.31,-352.39C1833.01,-352.82 1841.86,-353.25 1850.7,-353.69"/>
<polygon fill="midnightblue" stroke="midnightblue" points="1824.34,-348.88 1814.18,-351.89 1823.99,-355.88 1824.34,-348.88"/>
</g>
<!-- Node4 -->
<g id="node4" class="node">
<title>Node4</title>
<g id="a_node4"><a xlink:href="classitk_1_1PathSource.html" target="_top" xlink:title=" ">
<polygon fill="white" stroke="black" points="1417,-281.1 1417,-311.1 1581,-311.1 1581,-281.1 1417,-281.1"/>
<text text-anchor="start" x="1425" y="-299.1" font-family="Helvetica,sans-Serif" font-size="10.00">itk::PathSource&lt; Orthogonally</text>
<text text-anchor="middle" x="1499" y="-288.1" font-family="Helvetica,sans-Serif" font-size="10.00">Corrected2DParametricPath &gt;</text>
</a>
</g>
</g>
<!-- Node4&#45;&gt;Node3 -->
<g id="edge3" class="edge">
<title>Node4&#45;&gt;Node3</title>
<path fill="none" stroke="midnightblue" d="M1573.13,-313.45C1587.51,-316.86 1602.8,-320.49 1617.82,-324.05"/>
<polygon fill="midnightblue" stroke="midnightblue" points="1573.88,-310.03 1563.34,-311.13 1572.27,-316.84 1573.88,-310.03"/>
</g>
<!-- Node5 -->
<g id="node5" class="node">
<title>Node5</title>
<g id="a_node5"><a xlink:href="classitk_1_1ProcessObject.html" target="_top" xlink:title="The base class for all process objects (source, filters, mappers) in the Insight data processing pipe...">
<polygon fill="white" stroke="black" points="1276,-209.6 1276,-228.6 1380,-228.6 1380,-209.6 1276,-209.6"/>
<text text-anchor="middle" x="1328" y="-216.6" font-family="Helvetica,sans-Serif" font-size="10.00">itk::ProcessObject</text>
</a>
</g>
</g>
<!-- Node5&#45;&gt;Node4 -->
<g id="edge4" class="edge">
<title>Node5&#45;&gt;Node4</title>
<path fill="none" stroke="midnightblue" d="M1359.53,-233.01C1389.3,-246.58 1434.45,-267.15 1465.03,-281.08"/>
<polygon fill="midnightblue" stroke="midnightblue" points="1360.61,-229.66 1350.06,-228.7 1357.71,-236.03 1360.61,-229.66"/>
</g>
<!-- Node6 -->
<g id="node6" class="node">
<title>Node6</title>
<g id="a_node6"><a xlink:href="classitk_1_1Object.html" target="_top" xlink:title="Base class for most ITK classes.">
<polygon fill="white" stroke="black" points="980,-116.6 980,-135.6 1047,-135.6 1047,-116.6 980,-116.6"/>
<text text-anchor="middle" x="1013.5" y="-123.6" font-family="Helvetica,sans-Serif" font-size="10.00">itk::Object</text>
</a>
</g>
</g>
<!-- Node6&#45;&gt;Node5 -->
<g id="edge5" class="edge">
<title>Node6&#45;&gt;Node5</title>
<path fill="none" stroke="midnightblue" d="M1057.46,-127.87C1107.44,-131.23 1191.58,-140.95 1258,-169.1 1281.15,-178.92 1303.98,-197.75 1316.71,-209.29"/>
<polygon fill="midnightblue" stroke="midnightblue" points="1057.53,-124.37 1047.33,-127.25 1057.1,-131.36 1057.53,-124.37"/>
</g>
<!-- Node7 -->
<g id="node7" class="node">
<title>Node7</title>
<g id="a_node7"><a xlink:href="classitk_1_1LightObject.html" target="_top" xlink:title="Light weight base class for most itk classes.">
<polygon fill="white" stroke="black" points="659,-107.6 659,-126.6 750,-126.6 750,-107.6 659,-107.6"/>
<text text-anchor="middle" x="704.5" y="-114.6" font-family="Helvetica,sans-Serif" font-size="10.00">itk::LightObject</text>
</a>
</g>
</g>
<!-- Node7&#45;&gt;Node6 -->
<g id="edge6" class="edge">
<title>Node7&#45;&gt;Node6</title>
<path fill="none" stroke="midnightblue" d="M760.4,-118.71C824.13,-120.58 927.17,-123.6 979.59,-125.14"/>
<polygon fill="midnightblue" stroke="midnightblue" points="760.24,-115.21 750.14,-118.41 760.03,-122.2 760.24,-115.21"/>
</g>
<!-- Node8 -->
<g id="node8" class="node">
<title>Node8</title>
<g id="a_node8"><a xlink:title=" ">
<polygon fill="white" stroke="#bfbfbf" points="372,-104.6 372,-123.6 479,-123.6 479,-104.6 372,-104.6"/>
<text text-anchor="middle" x="425.5" y="-111.6" font-family="Helvetica,sans-Serif" font-size="10.00">std::atomic&lt; int &gt;</text>
</a>
</g>
</g>
<!-- Node8&#45;&gt;Node7 -->
<g id="edge7" class="edge">
<title>Node8&#45;&gt;Node7</title>
<path fill="none" stroke="#9a32cd" stroke-dasharray="5,2" d="M489.29,-114.78C540.91,-115.34 612.77,-116.12 658.72,-116.62"/>
<polygon fill="#9a32cd" stroke="#9a32cd" points="489.29,-111.28 479.25,-114.67 489.22,-118.28 489.29,-111.28"/>
<text text-anchor="middle" x="566.5" y="-119.1" font-family="Helvetica,sans-Serif" font-size="10.00"> m_ReferenceCount</text>
</g>
<!-- Node9 -->
<g id="node9" class="node">
<title>Node9</title>
<g id="a_node9"><a xlink:title="STL class.">
<polygon fill="white" stroke="#bfbfbf" points="672,-228.6 672,-247.6 737,-247.6 737,-228.6 672,-228.6"/>
<text text-anchor="middle" x="704.5" y="-235.6" font-family="Helvetica,sans-Serif" font-size="10.00">std::string</text>
</a>
</g>
</g>
<!-- Node9&#45;&gt;Node6 -->
<g id="edge8" class="edge">
<title>Node9&#45;&gt;Node6</title>
<path fill="none" stroke="#9a32cd" stroke-dasharray="5,2" d="M726.86,-222.83C744.18,-211.13 769.63,-195.46 794,-186.1 843.55,-167.07 863.54,-185.88 911,-162.1 920.57,-157.31 919.51,-151.05 929,-146.1 944.73,-137.9 963.88,-133 979.87,-130.11"/>
<polygon fill="#9a32cd" stroke="#9a32cd" points="724.84,-219.97 718.59,-228.53 728.81,-225.74 724.84,-219.97"/>
<text text-anchor="middle" x="852.5" y="-189.1" font-family="Helvetica,sans-Serif" font-size="10.00"> m_ObjectName</text>
</g>
<!-- Node18 -->
<g id="node18" class="node">
<title>Node18</title>
<g id="a_node18"><a xlink:title=" ">
<polygon fill="white" stroke="#bfbfbf" points="932.5,-204.1 932.5,-234.1 1094.5,-234.1 1094.5,-204.1 932.5,-204.1"/>
<text text-anchor="start" x="940.5" y="-222.1" font-family="Helvetica,sans-Serif" font-size="10.00">std::set&lt; DataObjectIdentifier</text>
<text text-anchor="middle" x="1013.5" y="-211.1" font-family="Helvetica,sans-Serif" font-size="10.00">Type &gt;</text>
</a>
</g>
</g>
<!-- Node9&#45;&gt;Node18 -->
<g id="edge19" class="edge">
<title>Node9&#45;&gt;Node18</title>
<path fill="none" stroke="#9a32cd" stroke-dasharray="5,2" d="M747.27,-238.46C788.85,-238.5 854.43,-237.68 911,-233.1 917.91,-232.54 925.08,-231.83 932.25,-231.02"/>
<polygon fill="#9a32cd" stroke="#9a32cd" points="747.25,-234.96 737.24,-238.44 747.23,-241.96 747.25,-234.96"/>
<text text-anchor="middle" x="852.5" y="-241.1" font-family="Helvetica,sans-Serif" font-size="10.00"> keys</text>
</g>
<!-- Node19 -->
<g id="node19" class="node">
<title>Node19</title>
<g id="a_node19"><a xlink:title=" ">
<polygon fill="white" stroke="#bfbfbf" points="929,-155.1 929,-185.1 1098,-185.1 1098,-155.1 929,-155.1"/>
<text text-anchor="start" x="937" y="-173.1" font-family="Helvetica,sans-Serif" font-size="10.00">std::map&lt; DataObjectIdentifier</text>
<text text-anchor="middle" x="1013.5" y="-162.1" font-family="Helvetica,sans-Serif" font-size="10.00">Type, bool &gt;</text>
</a>
</g>
</g>
<!-- Node9&#45;&gt;Node19 -->
<g id="edge21" class="edge">
<title>Node9&#45;&gt;Node19</title>
<path fill="none" stroke="#9a32cd" stroke-dasharray="5,2" d="M746.91,-229.48C761.75,-226.44 778.61,-223.05 794,-220.1 845.89,-210.17 859.54,-211.04 911,-199.1 928.32,-195.09 947.08,-189.95 963.71,-185.12"/>
<polygon fill="#9a32cd" stroke="#9a32cd" points="746.09,-226.07 737,-231.51 747.5,-232.93 746.09,-226.07"/>
<text text-anchor="middle" x="852.5" y="-223.1" font-family="Helvetica,sans-Serif" font-size="10.00"> keys</text>
</g>
<!-- Node24 -->
<g id="node24" class="node">
<title>Node24</title>
<g id="a_node24"><a xlink:title=" ">
<polygon fill="white" stroke="#bfbfbf" points="929,-351.1 929,-381.1 1098,-381.1 1098,-351.1 929,-351.1"/>
<text text-anchor="start" x="937" y="-369.1" font-family="Helvetica,sans-Serif" font-size="10.00">std::map&lt; DataObjectIdentifier</text>
<text text-anchor="middle" x="1013.5" y="-358.1" font-family="Helvetica,sans-Serif" font-size="10.00">Type, DataObjectPointer &gt;</text>
</a>
</g>
</g>
<!-- Node9&#45;&gt;Node24 -->
<g id="edge28" class="edge">
<title>Node9&#45;&gt;Node24</title>
<path fill="none" stroke="#9a32cd" stroke-dasharray="5,2" d="M747.38,-246.04C803.9,-257.1 898.95,-277.01 911,-288.1 929.62,-305.23 910.74,-324.59 929,-342.1 932.59,-345.55 936.65,-348.5 940.98,-351.04"/>
<polygon fill="#9a32cd" stroke="#9a32cd" points="747.79,-242.56 737.3,-244.09 746.45,-249.43 747.79,-242.56"/>
<text text-anchor="middle" x="852.5" y="-291.1" font-family="Helvetica,sans-Serif" font-size="10.00"> keys</text>
</g>
<!-- Node10 -->
<g id="node10" class="node">
<title>Node10</title>
<g id="a_node10"><a xlink:title="STL class.">
<polygon fill="white" stroke="#bfbfbf" points="373.5,-223.1 373.5,-253.1 477.5,-253.1 477.5,-223.1 373.5,-223.1"/>
<text text-anchor="start" x="381.5" y="-241.1" font-family="Helvetica,sans-Serif" font-size="10.00">std::basic_string&lt;</text>
<text text-anchor="middle" x="425.5" y="-230.1" font-family="Helvetica,sans-Serif" font-size="10.00"> char &gt;</text>
</a>
</g>
</g>
<!-- Node10&#45;&gt;Node9 -->
<g id="edge9" class="edge">
<title>Node10&#45;&gt;Node9</title>
<path fill="none" stroke="midnightblue" d="M487.93,-238.1C544.75,-238.1 626.97,-238.1 671.66,-238.1"/>
<polygon fill="midnightblue" stroke="midnightblue" points="487.63,-234.6 477.63,-238.1 487.63,-241.6 487.63,-234.6"/>
</g>
<!-- Node11 -->
<g id="node11" class="node">
<title>Node11</title>
<g id="a_node11"><a xlink:href="classitk_1_1MetaDataDictionary.html" target="_top" xlink:title="Provides a mechanism for storing a collection of arbitrary data types.">
<polygon fill="white" stroke="black" points="637.5,-146.6 637.5,-165.6 771.5,-165.6 771.5,-146.6 637.5,-146.6"/>
<text text-anchor="middle" x="704.5" y="-153.6" font-family="Helvetica,sans-Serif" font-size="10.00">itk::MetaDataDictionary</text>
</a>
</g>
</g>
<!-- Node11&#45;&gt;Node6 -->
<g id="edge10" class="edge">
<title>Node11&#45;&gt;Node6</title>
<path fill="none" stroke="#9a32cd" stroke-dasharray="5,2" d="M781.74,-148.65C845.39,-142.43 933.03,-133.87 979.86,-129.29"/>
<polygon fill="#9a32cd" stroke="#9a32cd" points="781.35,-145.17 771.74,-149.63 782.03,-152.14 781.35,-145.17"/>
<text text-anchor="middle" x="852.5" y="-150.1" font-family="Helvetica,sans-Serif" font-size="10.00"> m_MetaDataDictionary</text>
</g>
<!-- Node12 -->
<g id="node12" class="node">
<title>Node12</title>
<g id="a_node12"><a xlink:title=" ">
<polygon fill="white" stroke="#bfbfbf" points="351,-143.1 351,-173.1 500,-173.1 500,-143.1 351,-143.1"/>
<text text-anchor="start" x="359" y="-161.1" font-family="Helvetica,sans-Serif" font-size="10.00">std::shared_ptr&lt; MetaData</text>
<text text-anchor="middle" x="425.5" y="-150.1" font-family="Helvetica,sans-Serif" font-size="10.00">DictionaryMapType &gt;</text>
</a>
</g>
</g>
<!-- Node12&#45;&gt;Node11 -->
<g id="edge11" class="edge">
<title>Node12&#45;&gt;Node11</title>
<path fill="none" stroke="#9a32cd" stroke-dasharray="5,2" d="M510.18,-157.5C550.89,-157.21 599.13,-156.86 637.24,-156.58"/>
<polygon fill="#9a32cd" stroke="#9a32cd" points="509.98,-154 500,-157.57 510.03,-161 509.98,-154"/>
<text text-anchor="middle" x="566.5" y="-160.1" font-family="Helvetica,sans-Serif" font-size="10.00"> m_Dictionary</text>
</g>
<!-- Node13 -->
<g id="node13" class="node">
<title>Node13</title>
<g id="a_node13"><a xlink:title="STL class.">
<polygon fill="white" stroke="#bfbfbf" points="114,-147.6 114,-166.6 215,-166.6 215,-147.6 114,-147.6"/>
<text text-anchor="middle" x="164.5" y="-154.6" font-family="Helvetica,sans-Serif" font-size="10.00">std::map&lt; K, T &gt;</text>
</a>
</g>
</g>
<!-- Node13&#45;&gt;Node12 -->
<g id="edge12" class="edge">
<title>Node13&#45;&gt;Node12</title>
<path fill="none" stroke="#9a32cd" stroke-dasharray="5,2" d="M225.34,-157.33C262.61,-157.48 310.86,-157.66 350.52,-157.82"/>
<polygon fill="#9a32cd" stroke="#9a32cd" points="225.14,-153.83 215.13,-157.29 225.12,-160.83 225.14,-153.83"/>
<text text-anchor="middle" x="283" y="-160.1" font-family="Helvetica,sans-Serif" font-size="10.00"> ptr</text>
</g>
<!-- Node14 -->
<g id="node14" class="node">
<title>Node14</title>
<g id="a_node14"><a xlink:title=" ">
<polygon fill="white" stroke="#bfbfbf" points="0,-147.6 0,-166.6 29,-166.6 29,-147.6 0,-147.6"/>
<text text-anchor="middle" x="14.5" y="-154.6" font-family="Helvetica,sans-Serif" font-size="10.00">K</text>
</a>
</g>
</g>
<!-- Node14&#45;&gt;Node13 -->
<g id="edge13" class="edge">
<title>Node14&#45;&gt;Node13</title>
<path fill="none" stroke="#9a32cd" stroke-dasharray="5,2" d="M39.24,-157.1C59.28,-157.1 88.63,-157.1 113.78,-157.1"/>
<polygon fill="#9a32cd" stroke="#9a32cd" points="39.16,-153.6 29.16,-157.1 39.16,-160.6 39.16,-153.6"/>
<text text-anchor="middle" x="71.5" y="-160.1" font-family="Helvetica,sans-Serif" font-size="10.00"> keys</text>
</g>
<!-- Node15 -->
<g id="node15" class="node">
<title>Node15</title>
<g id="a_node15"><a xlink:title=" ">
<polygon fill="white" stroke="#bfbfbf" points="0,-94.6 0,-113.6 29,-113.6 29,-94.6 0,-94.6"/>
<text text-anchor="middle" x="14.5" y="-101.6" font-family="Helvetica,sans-Serif" font-size="10.00">T</text>
</a>
</g>
</g>
<!-- Node15&#45;&gt;Node13 -->
<g id="edge14" class="edge">
<title>Node15&#45;&gt;Node13</title>
<path fill="none" stroke="#9a32cd" stroke-dasharray="5,2" d="M38.78,-112.44C65.36,-121.96 108.76,-137.5 136.72,-147.51"/>
<polygon fill="#9a32cd" stroke="#9a32cd" points="39.75,-109.07 29.16,-108.99 37.39,-115.66 39.75,-109.07"/>
<text text-anchor="middle" x="71.5" y="-135.1" font-family="Helvetica,sans-Serif" font-size="10.00"> elements</text>
</g>
<!-- Node17 -->
<g id="node17" class="node">
<title>Node17</title>
<g id="a_node17"><a xlink:title="STL class.">
<polygon fill="white" stroke="#bfbfbf" points="233,-72.6 233,-91.6 333,-91.6 333,-72.6 233,-72.6"/>
<text text-anchor="middle" x="283" y="-79.6" font-family="Helvetica,sans-Serif" font-size="10.00">std::atomic&lt; T &gt;</text>
</a>
</g>
</g>
<!-- Node15&#45;&gt;Node17 -->
<g id="edge17" class="edge">
<title>Node15&#45;&gt;Node17</title>
<path fill="none" stroke="#9a32cd" stroke-dasharray="5,2" d="M39.44,-100.94C41.99,-100.64 44.55,-100.35 47,-100.1 111.12,-93.58 185.29,-88.27 232.88,-85.15"/>
<polygon fill="#9a32cd" stroke="#9a32cd" points="38.77,-97.49 29.28,-102.2 39.64,-104.44 38.77,-97.49"/>
<text text-anchor="middle" x="71.5" y="-103.1" font-family="Helvetica,sans-Serif" font-size="10.00"> ptr</text>
</g>
<!-- Node16 -->
<g id="node16" class="node">
<title>Node16</title>
<g id="a_node16"><a xlink:href="classitk_1_1TimeStamp.html" target="_top" xlink:title="Generate a unique, increasing time value.">
<polygon fill="white" stroke="black" points="658.5,-65.6 658.5,-84.6 750.5,-84.6 750.5,-65.6 658.5,-65.6"/>
<text text-anchor="middle" x="704.5" y="-72.6" font-family="Helvetica,sans-Serif" font-size="10.00">itk::TimeStamp</text>
</a>
</g>
</g>
<!-- Node16&#45;&gt;Node5 -->
<g id="edge30" class="edge">
<title>Node16&#45;&gt;Node5</title>
<path fill="none" stroke="#9a32cd" stroke-dasharray="5,2" d="M760.66,-65.37C866.24,-49.79 1100.35,-30.25 1258,-129.1 1290.36,-149.39 1313.3,-190.62 1322.51,-209.39"/>
<polygon fill="#9a32cd" stroke="#9a32cd" points="759.91,-61.94 750.55,-66.91 760.97,-68.86 759.91,-61.94"/>
<text text-anchor="middle" x="1013.5" y="-71.1" font-family="Helvetica,sans-Serif" font-size="10.00"> m_OutputInformationMTime</text>
</g>
<!-- Node16&#45;&gt;Node6 -->
<g id="edge15" class="edge">
<title>Node16&#45;&gt;Node6</title>
<path fill="none" stroke="#9a32cd" stroke-dasharray="5,2" d="M760.72,-81.78C802.19,-87.07 860.32,-95.05 911,-104.1 934.07,-108.23 959.89,-113.84 979.71,-118.36"/>
<polygon fill="#9a32cd" stroke="#9a32cd" points="760.91,-78.28 750.55,-80.5 760.03,-85.22 760.91,-78.28"/>
<text text-anchor="middle" x="852.5" y="-107.1" font-family="Helvetica,sans-Serif" font-size="10.00"> m_MTime</text>
</g>
<!-- Node17&#45;&gt;Node16 -->
<g id="edge16" class="edge">
<title>Node17&#45;&gt;Node16</title>
<path fill="none" stroke="#9a32cd" stroke-dasharray="5,2" d="M343.61,-81.11C428.52,-79.69 582.42,-77.12 658.48,-75.85"/>
<polygon fill="#9a32cd" stroke="#9a32cd" points="343.3,-77.61 333.36,-81.28 343.41,-84.61 343.3,-77.61"/>
<text text-anchor="middle" x="425.5" y="-84.1" font-family="Helvetica,sans-Serif" font-size="10.00"> m_GlobalTimeStamp</text>
</g>
<!-- Node18&#45;&gt;Node5 -->
<g id="edge18" class="edge">
<title>Node18&#45;&gt;Node5</title>
<path fill="none" stroke="#9a32cd" stroke-dasharray="5,2" d="M1104.76,-219.1C1160.22,-219.1 1229.26,-219.1 1275.55,-219.1"/>
<polygon fill="#9a32cd" stroke="#9a32cd" points="1104.57,-215.6 1094.57,-219.1 1104.57,-222.6 1104.57,-215.6"/>
<text text-anchor="middle" x="1187" y="-222.1" font-family="Helvetica,sans-Serif" font-size="10.00"> m_RequiredInputNames</text>
</g>
<!-- Node19&#45;&gt;Node5 -->
<g id="edge20" class="edge">
<title>Node19&#45;&gt;Node5</title>
<path fill="none" stroke="#9a32cd" stroke-dasharray="5,2" d="M1108.39,-173.14C1154.01,-176.08 1209.35,-181.85 1258,-193.1 1274.59,-196.94 1292.56,-203.81 1306.01,-209.52"/>
<polygon fill="#9a32cd" stroke="#9a32cd" points="1108.41,-169.63 1098.21,-172.51 1107.98,-176.62 1108.41,-169.63"/>
<text text-anchor="start" x="1116" y="-207.1" font-family="Helvetica,sans-Serif" font-size="10.00"> m_CachedInputReleaseData</text>
<text text-anchor="middle" x="1187" y="-196.1" font-family="Helvetica,sans-Serif" font-size="10.00">Flags</text>
</g>
<!-- Node20 -->
<g id="node20" class="node">
<title>Node20</title>
<g id="a_node20"><a xlink:title=" ">
<polygon fill="white" stroke="#bfbfbf" points="946.5,-5.6 946.5,-24.6 1080.5,-24.6 1080.5,-5.6 946.5,-5.6"/>
<text text-anchor="middle" x="1013.5" y="-12.6" font-family="Helvetica,sans-Serif" font-size="10.00">std::atomic&lt; uint32_t &gt;</text>
</a>
</g>
</g>
<!-- Node20&#45;&gt;Node5 -->
<g id="edge22" class="edge">
<title>Node20&#45;&gt;Node5</title>
<path fill="none" stroke="#9a32cd" stroke-dasharray="5,2" d="M1070.91,-4.16C1124.5,2.89 1204.61,4.33 1258,-36.1 1315.93,-79.97 1325.22,-178.38 1326.72,-209.48"/>
<polygon fill="#9a32cd" stroke="#9a32cd" points="1070.3,-0.71 1060.89,-5.59 1071.28,-7.64 1070.3,-0.71"/>
<text text-anchor="middle" x="1187" y="-39.1" font-family="Helvetica,sans-Serif" font-size="10.00"> m_Progress</text>
</g>
<!-- Node21 -->
<g id="node21" class="node">
<title>Node21</title>
<g id="a_node21"><a xlink:title=" ">
<polygon fill="white" stroke="#bfbfbf" points="676.5,-5.6 676.5,-24.6 732.5,-24.6 732.5,-5.6 676.5,-5.6"/>
<text text-anchor="middle" x="704.5" y="-12.6" font-family="Helvetica,sans-Serif" font-size="10.00">uint32_t</text>
</a>
</g>
</g>
<!-- Node21&#45;&gt;Node20 -->
<g id="edge23" class="edge">
<title>Node21&#45;&gt;Node20</title>
<path fill="none" stroke="#9a32cd" stroke-dasharray="5,2" d="M742.88,-15.1C793.35,-15.1 884.11,-15.1 946.28,-15.1"/>
<polygon fill="#9a32cd" stroke="#9a32cd" points="742.74,-11.6 732.74,-15.1 742.74,-18.6 742.74,-11.6"/>
<text text-anchor="middle" x="852.5" y="-18.1" font-family="Helvetica,sans-Serif" font-size="10.00"> ptr</text>
</g>
<!-- Node22 -->
<g id="node22" class="node">
<title>Node22</title>
<g id="a_node22"><a xlink:title=" ">
<polygon fill="white" stroke="#bfbfbf" points="929,-253.1 929,-283.1 1098,-283.1 1098,-253.1 929,-253.1"/>
<text text-anchor="start" x="937" y="-271.1" font-family="Helvetica,sans-Serif" font-size="10.00">std::vector&lt; DataObjectPointer</text>
<text text-anchor="middle" x="1013.5" y="-260.1" font-family="Helvetica,sans-Serif" font-size="10.00">Map::iterator &gt;</text>
</a>
</g>
</g>
<!-- Node22&#45;&gt;Node5 -->
<g id="edge24" class="edge">
<title>Node22&#45;&gt;Node5</title>
<path fill="none" stroke="#9a32cd" stroke-dasharray="5,2" d="M1108.26,-256.69C1153.61,-250.74 1208.78,-242.88 1258,-234.1 1266.93,-232.51 1276.46,-230.59 1285.51,-228.65"/>
<polygon fill="#9a32cd" stroke="#9a32cd" points="1107.61,-253.24 1098.14,-258.01 1108.51,-260.19 1107.61,-253.24"/>
<text text-anchor="middle" x="1187" y="-269.1" font-family="Helvetica,sans-Serif" font-size="10.00"> m_IndexedOutputs</text>
<text text-anchor="middle" x="1187" y="-258.1" font-family="Helvetica,sans-Serif" font-size="10.00">m_IndexedInputs</text>
</g>
<!-- Node23 -->
<g id="node23" class="node">
<title>Node23</title>
<g id="a_node23"><a xlink:title="STL iterator class.">
<polygon fill="white" stroke="#bfbfbf" points="633,-313.6 633,-332.6 776,-332.6 776,-313.6 633,-313.6"/>
<text text-anchor="middle" x="704.5" y="-320.6" font-family="Helvetica,sans-Serif" font-size="10.00">std::map&lt; K, T &gt;::iterator</text>
</a>
</g>
</g>
<!-- Node23&#45;&gt;Node22 -->
<g id="edge25" class="edge">
<title>Node23&#45;&gt;Node22</title>
<path fill="none" stroke="#9a32cd" stroke-dasharray="5,2" d="M786.47,-320.26C824.74,-317.44 870.76,-311.91 911,-301.1 919.45,-298.83 920.79,-296.14 929,-293.1 938.51,-289.58 948.76,-286.19 958.71,-283.11"/>
<polygon fill="#9a32cd" stroke="#9a32cd" points="786.14,-316.77 776.4,-320.95 786.62,-323.76 786.14,-316.77"/>
<text text-anchor="middle" x="852.5" y="-322.1" font-family="Helvetica,sans-Serif" font-size="10.00"> elements</text>
</g>
<!-- Node24&#45;&gt;Node5 -->
<g id="edge26" class="edge">
<title>Node24&#45;&gt;Node5</title>
<path fill="none" stroke="#9a32cd" stroke-dasharray="5,2" d="M1108.34,-370.38C1156.56,-368.31 1214.22,-358.83 1258,-330.1 1296.13,-305.08 1316.92,-250.92 1324.09,-228.81"/>
<polygon fill="#9a32cd" stroke="#9a32cd" points="1108.09,-366.88 1098.21,-370.71 1108.32,-373.88 1108.09,-366.88"/>
<text text-anchor="middle" x="1187" y="-383.1" font-family="Helvetica,sans-Serif" font-size="10.00"> m_Outputs</text>
<text text-anchor="middle" x="1187" y="-372.1" font-family="Helvetica,sans-Serif" font-size="10.00">m_Inputs</text>
</g>
<!-- Node25 -->
<g id="node25" class="node">
<title>Node25</title>
<g id="a_node25"><a xlink:href="classitk_1_1SmartPointer.html" target="_top" xlink:title=" ">
<polygon fill="white" stroke="black" points="651,-365.1 651,-395.1 758,-395.1 758,-365.1 651,-365.1"/>
<text text-anchor="start" x="659" y="-383.1" font-family="Helvetica,sans-Serif" font-size="10.00">itk::SmartPointer&lt;</text>
<text text-anchor="middle" x="704.5" y="-372.1" font-family="Helvetica,sans-Serif" font-size="10.00"> Self &gt;</text>
</a>
</g>
</g>
<!-- Node25&#45;&gt;Node1 -->
<g id="edge31" class="edge">
<title>Node25&#45;&gt;Node1</title>
<path fill="none" stroke="#9a32cd" stroke-dasharray="5,2" d="M768.04,-389.82C829.96,-398.58 927.53,-410.1 1012.5,-410.1 1012.5,-410.1 1012.5,-410.1 1983,-410.1 2039.09,-410.1 2102.08,-403.43 2149.87,-396.98"/>
<polygon fill="#9a32cd" stroke="#9a32cd" points="768.44,-386.34 758.04,-388.38 767.44,-393.27 768.44,-386.34"/>
<text text-anchor="middle" x="1499" y="-413.1" font-family="Helvetica,sans-Serif" font-size="10.00"> m_FinalOffsetValues</text>
</g>
<!-- Node25&#45;&gt;Node24 -->
<g id="edge27" class="edge">
<title>Node25&#45;&gt;Node24</title>
<path fill="none" stroke="#9a32cd" stroke-dasharray="5,2" d="M768.49,-377.23C814.84,-375.12 878.33,-372.22 928.92,-369.91"/>
<polygon fill="#9a32cd" stroke="#9a32cd" points="768.11,-373.74 758.28,-377.7 768.42,-380.74 768.11,-373.74"/>
<text text-anchor="middle" x="852.5" y="-378.1" font-family="Helvetica,sans-Serif" font-size="10.00"> elements</text>
</g>
<!-- Node26 -->
<g id="node26" class="node">
<title>Node26</title>
<g id="a_node26"><a xlink:href="classitk_1_1SmartPointer.html" target="_top" xlink:title=" ">
<polygon fill="white" stroke="black" points="942.5,-302.1 942.5,-332.1 1084.5,-332.1 1084.5,-302.1 942.5,-302.1"/>
<text text-anchor="start" x="950.5" y="-320.1" font-family="Helvetica,sans-Serif" font-size="10.00">itk::SmartPointer&lt;</text>
<text text-anchor="middle" x="1013.5" y="-309.1" font-family="Helvetica,sans-Serif" font-size="10.00"> itk::MultiThreaderBase &gt;</text>
</a>
</g>
</g>
<!-- Node26&#45;&gt;Node5 -->
<g id="edge29" class="edge">
<title>Node26&#45;&gt;Node5</title>
<path fill="none" stroke="#9a32cd" stroke-dasharray="5,2" d="M1095.02,-316.81C1144.15,-313.87 1207.09,-305.03 1258,-281.1 1284.23,-268.77 1307.69,-243.13 1319.3,-228.99"/>
<polygon fill="#9a32cd" stroke="#9a32cd" points="1094.56,-313.33 1084.75,-317.35 1094.92,-320.32 1094.56,-313.33"/>
<text text-anchor="middle" x="1187" y="-318.1" font-family="Helvetica,sans-Serif" font-size="10.00"> m_MultiThreader</text>
</g>
</g>
</svg>
