<?xml version="1.0" encoding="UTF-8" standalone="no"?>
<!DOCTYPE svg PUBLIC "-//W3C//DTD SVG 1.1//EN"
 "http://www.w3.org/Graphics/SVG/1.1/DTD/svg11.dtd">
<!-- Generated by graphviz version 2.43.0 (0)
 -->
<!-- Title: itk::LevelSetDomainPartitionImage&lt; TImage &gt; Pages: 1 -->
<svg width="170pt" height="285pt"
 viewBox="0.00 0.00 170.00 285.00" xmlns="http://www.w3.org/2000/svg" xmlns:xlink="http://www.w3.org/1999/xlink">
<g id="graph0" class="graph" transform="scale(1 1) rotate(0) translate(4 281)">
<title>itk::LevelSetDomainPartitionImage&lt; TImage &gt;</title>
<polygon fill="white" stroke="transparent" points="-4,4 -4,-281 166,-281 166,4 -4,4"/>
<!-- Node1 -->
<g id="node1" class="node">
<title>Node1</title>
<g id="a_node1"><a xlink:title="Helper class used to partition domain and efficiently compute overlap.">
<polygon fill="#bfbfbf" stroke="black" points="3,-67.5 3,-97.5 159,-97.5 159,-67.5 3,-67.5"/>
<text text-anchor="start" x="11" y="-85.5" font-family="Helvetica,sans-Serif" font-size="10.00">itk::LevelSetDomainPartition</text>
<text text-anchor="middle" x="81" y="-74.5" font-family="Helvetica,sans-Serif" font-size="10.00">Image&lt; TImage &gt;</text>
</a>
</g>
</g>
<!-- Node5 -->
<g id="node5" class="node">
<title>Node5</title>
<g id="a_node5"><a xlink:href="classitk_1_1LevelSetDomainPartitionImageWithKdTree.html" target="_top" xlink:title="Helper class used to share data in the ScalarChanAndVeseLevelSetFunction.">
<polygon fill="white" stroke="black" points="0,-0.5 0,-30.5 162,-30.5 162,-0.5 0,-0.5"/>
<text text-anchor="start" x="8" y="-18.5" font-family="Helvetica,sans-Serif" font-size="10.00">itk::LevelSetDomainPartition</text>
<text text-anchor="middle" x="81" y="-7.5" font-family="Helvetica,sans-Serif" font-size="10.00">ImageWithKdTree&lt; TImage &gt;</text>
</a>
</g>
</g>
<!-- Node1&#45;&gt;Node5 -->
<g id="edge4" class="edge">
<title>Node1&#45;&gt;Node5</title>
<path fill="none" stroke="midnightblue" d="M81,-57.11C81,-48.15 81,-38.32 81,-30.58"/>
<polygon fill="midnightblue" stroke="midnightblue" points="77.5,-57.4 81,-67.4 84.5,-57.4 77.5,-57.4"/>
</g>
<!-- Node2 -->
<g id="node2" class="node">
<title>Node2</title>
<g id="a_node2"><a xlink:href="classitk_1_1LevelSetDomainPartitionBase.html" target="_top" xlink:title=" ">
<polygon fill="white" stroke="black" points="3,-134.5 3,-164.5 159,-164.5 159,-134.5 3,-134.5"/>
<text text-anchor="start" x="11" y="-152.5" font-family="Helvetica,sans-Serif" font-size="10.00">itk::LevelSetDomainPartition</text>
<text text-anchor="middle" x="81" y="-141.5" font-family="Helvetica,sans-Serif" font-size="10.00">Base&lt; TImage &gt;</text>
</a>
</g>
</g>
<!-- Node2&#45;&gt;Node1 -->
<g id="edge1" class="edge">
<title>Node2&#45;&gt;Node1</title>
<path fill="none" stroke="midnightblue" d="M81,-124.11C81,-115.15 81,-105.32 81,-97.58"/>
<polygon fill="midnightblue" stroke="midnightblue" points="77.5,-124.4 81,-134.4 84.5,-124.4 77.5,-124.4"/>
</g>
<!-- Node3 -->
<g id="node3" class="node">
<title>Node3</title>
<g id="a_node3"><a xlink:href="classitk_1_1Object.html" target="_top" xlink:title="Base class for most ITK classes.">
<polygon fill="white" stroke="black" points="47.5,-201.5 47.5,-220.5 114.5,-220.5 114.5,-201.5 47.5,-201.5"/>
<text text-anchor="middle" x="81" y="-208.5" font-family="Helvetica,sans-Serif" font-size="10.00">itk::Object</text>
</a>
</g>
</g>
<!-- Node3&#45;&gt;Node2 -->
<g id="edge2" class="edge">
<title>Node3&#45;&gt;Node2</title>
<path fill="none" stroke="midnightblue" d="M81,-191.23C81,-182.59 81,-172.5 81,-164.52"/>
<polygon fill="midnightblue" stroke="midnightblue" points="77.5,-191.48 81,-201.48 84.5,-191.48 77.5,-191.48"/>
</g>
<!-- Node4 -->
<g id="node4" class="node">
<title>Node4</title>
<g id="a_node4"><a xlink:href="classitk_1_1LightObject.html" target="_top" xlink:title="Light weight base class for most itk classes.">
<polygon fill="white" stroke="black" points="35.5,-257.5 35.5,-276.5 126.5,-276.5 126.5,-257.5 35.5,-257.5"/>
<text text-anchor="middle" x="81" y="-264.5" font-family="Helvetica,sans-Serif" font-size="10.00">itk::LightObject</text>
</a>
</g>
</g>
<!-- Node4&#45;&gt;Node3 -->
<g id="edge3" class="edge">
<title>Node4&#45;&gt;Node3</title>
<path fill="none" stroke="midnightblue" d="M81,-246.8C81,-237.91 81,-227.78 81,-220.75"/>
<polygon fill="midnightblue" stroke="midnightblue" points="77.5,-247.08 81,-257.08 84.5,-247.08 77.5,-247.08"/>
</g>
</g>
</svg>
