<?xml version="1.0" encoding="UTF-8" standalone="no"?>
<!DOCTYPE svg PUBLIC "-//W3C//DTD SVG 1.1//EN"
 "http://www.w3.org/Graphics/SVG/1.1/DTD/svg11.dtd">
<!-- Generated by graphviz version 2.43.0 (0)
 -->
<!-- Title: itk::SymmetricEllipsoidInteriorExteriorSpatialFunction&lt; VDimension, TInput &gt; Pages: 1 -->
<svg width="211pt" height="385pt"
 viewBox="0.00 0.00 211.00 385.00" xmlns="http://www.w3.org/2000/svg" xmlns:xlink="http://www.w3.org/1999/xlink">
<g id="graph0" class="graph" transform="scale(1 1) rotate(0) translate(4 381)">
<title>itk::SymmetricEllipsoidInteriorExteriorSpatialFunction&lt; VDimension, TInput &gt;</title>
<polygon fill="white" stroke="transparent" points="-4,4 -4,-381 207,-381 207,4 -4,4"/>
<!-- Node1 -->
<g id="node1" class="node">
<title>Node1</title>
<g id="a_node1"><a xlink:title="Function implementation of an ellipsoid.">
<polygon fill="#bfbfbf" stroke="black" points="0,-0.5 0,-41.5 203,-41.5 203,-0.5 0,-0.5"/>
<text text-anchor="start" x="8" y="-29.5" font-family="Helvetica,sans-Serif" font-size="10.00">itk::SymmetricEllipsoidInterior</text>
<text text-anchor="start" x="8" y="-18.5" font-family="Helvetica,sans-Serif" font-size="10.00">ExteriorSpatialFunction&lt; VDimension,</text>
<text text-anchor="middle" x="101.5" y="-7.5" font-family="Helvetica,sans-Serif" font-size="10.00"> TInput &gt;</text>
</a>
</g>
</g>
<!-- Node2 -->
<g id="node2" class="node">
<title>Node2</title>
<g id="a_node2"><a xlink:href="classitk_1_1InteriorExteriorSpatialFunction.html" target="_top" xlink:title=" ">
<polygon fill="white" stroke="black" points="9,-78.5 9,-108.5 194,-108.5 194,-78.5 9,-78.5"/>
<text text-anchor="start" x="17" y="-96.5" font-family="Helvetica,sans-Serif" font-size="10.00">itk::InteriorExteriorSpatial</text>
<text text-anchor="middle" x="101.5" y="-85.5" font-family="Helvetica,sans-Serif" font-size="10.00">Function&lt; 3, Point&lt; double, 3 &gt; &gt;</text>
</a>
</g>
</g>
<!-- Node2&#45;&gt;Node1 -->
<g id="edge1" class="edge">
<title>Node2&#45;&gt;Node1</title>
<path fill="none" stroke="midnightblue" d="M101.5,-67.98C101.5,-59.35 101.5,-49.76 101.5,-41.59"/>
<polygon fill="midnightblue" stroke="midnightblue" points="98,-68.23 101.5,-78.23 105,-68.23 98,-68.23"/>
</g>
<!-- Node3 -->
<g id="node3" class="node">
<title>Node3</title>
<g id="a_node3"><a xlink:href="classitk_1_1SpatialFunction.html" target="_top" xlink:title=" ">
<polygon fill="white" stroke="black" points="29,-145.5 29,-186.5 174,-186.5 174,-145.5 29,-145.5"/>
<text text-anchor="start" x="37" y="-174.5" font-family="Helvetica,sans-Serif" font-size="10.00">itk::SpatialFunction</text>
<text text-anchor="start" x="37" y="-163.5" font-family="Helvetica,sans-Serif" font-size="10.00">&lt; bool, VDimension, Point</text>
<text text-anchor="middle" x="101.5" y="-152.5" font-family="Helvetica,sans-Serif" font-size="10.00">&lt; double, 3 &gt; &gt;</text>
</a>
</g>
</g>
<!-- Node3&#45;&gt;Node2 -->
<g id="edge2" class="edge">
<title>Node3&#45;&gt;Node2</title>
<path fill="none" stroke="midnightblue" d="M101.5,-135.08C101.5,-126.01 101.5,-116.45 101.5,-108.89"/>
<polygon fill="midnightblue" stroke="midnightblue" points="98,-135.36 101.5,-145.36 105,-135.36 98,-135.36"/>
</g>
<!-- Node4 -->
<g id="node4" class="node">
<title>Node4</title>
<g id="a_node4"><a xlink:href="classitk_1_1FunctionBase.html" target="_top" xlink:title=" ">
<polygon fill="white" stroke="black" points="44,-223.5 44,-264.5 159,-264.5 159,-223.5 44,-223.5"/>
<text text-anchor="start" x="52" y="-252.5" font-family="Helvetica,sans-Serif" font-size="10.00">itk::FunctionBase&lt;</text>
<text text-anchor="start" x="52" y="-241.5" font-family="Helvetica,sans-Serif" font-size="10.00"> Point&lt; double, 3 &gt;,</text>
<text text-anchor="middle" x="101.5" y="-230.5" font-family="Helvetica,sans-Serif" font-size="10.00"> bool &gt;</text>
</a>
</g>
</g>
<!-- Node4&#45;&gt;Node3 -->
<g id="edge3" class="edge">
<title>Node4&#45;&gt;Node3</title>
<path fill="none" stroke="midnightblue" d="M101.5,-213.3C101.5,-204.3 101.5,-194.65 101.5,-186.51"/>
<polygon fill="midnightblue" stroke="midnightblue" points="98,-213.43 101.5,-223.43 105,-213.43 98,-213.43"/>
</g>
<!-- Node5 -->
<g id="node5" class="node">
<title>Node5</title>
<g id="a_node5"><a xlink:href="classitk_1_1Object.html" target="_top" xlink:title="Base class for most ITK classes.">
<polygon fill="white" stroke="black" points="68,-301.5 68,-320.5 135,-320.5 135,-301.5 68,-301.5"/>
<text text-anchor="middle" x="101.5" y="-308.5" font-family="Helvetica,sans-Serif" font-size="10.00">itk::Object</text>
</a>
</g>
</g>
<!-- Node5&#45;&gt;Node4 -->
<g id="edge4" class="edge">
<title>Node5&#45;&gt;Node4</title>
<path fill="none" stroke="midnightblue" d="M101.5,-291.04C101.5,-282.71 101.5,-272.94 101.5,-264.54"/>
<polygon fill="midnightblue" stroke="midnightblue" points="98,-291.23 101.5,-301.23 105,-291.23 98,-291.23"/>
</g>
<!-- Node6 -->
<g id="node6" class="node">
<title>Node6</title>
<g id="a_node6"><a xlink:href="classitk_1_1LightObject.html" target="_top" xlink:title="Light weight base class for most itk classes.">
<polygon fill="white" stroke="black" points="56,-357.5 56,-376.5 147,-376.5 147,-357.5 56,-357.5"/>
<text text-anchor="middle" x="101.5" y="-364.5" font-family="Helvetica,sans-Serif" font-size="10.00">itk::LightObject</text>
</a>
</g>
</g>
<!-- Node6&#45;&gt;Node5 -->
<g id="edge5" class="edge">
<title>Node6&#45;&gt;Node5</title>
<path fill="none" stroke="midnightblue" d="M101.5,-346.8C101.5,-337.91 101.5,-327.78 101.5,-320.75"/>
<polygon fill="midnightblue" stroke="midnightblue" points="98,-347.08 101.5,-357.08 105,-347.08 98,-347.08"/>
</g>
</g>
</svg>
