<?xml version="1.0" encoding="UTF-8" standalone="no"?>
<!DOCTYPE svg PUBLIC "-//W3C//DTD SVG 1.1//EN"
 "http://www.w3.org/Graphics/SVG/1.1/DTD/svg11.dtd">
<!-- Generated by graphviz version 2.43.0 (0)
 -->
<!-- Title: itk::SymmetricForcesDemonsRegistrationFunction&lt; TFixedImage, TMovingImage, TDisplacementField &gt; Pages: 1 -->
<svg width="2017pt" height="280pt"
 viewBox="0.00 0.00 2017.00 279.50" xmlns="http://www.w3.org/2000/svg" xmlns:xlink="http://www.w3.org/1999/xlink">
<g id="graph0" class="graph" transform="scale(1 1) rotate(0) translate(4 275.5)">
<title>itk::SymmetricForcesDemonsRegistrationFunction&lt; TFixedImage, TMovingImage, TDisplacementField &gt;</title>
<polygon fill="white" stroke="transparent" points="-4,4 -4,-275.5 2013,-275.5 2013,4 -4,4"/>
<!-- Node1 -->
<g id="node1" class="node">
<title>Node1</title>
<g id="a_node1"><a xlink:title=" ">
<polygon fill="#bfbfbf" stroke="black" points="1803,-66 1803,-107 2009,-107 2009,-66 1803,-66"/>
<text text-anchor="start" x="1811" y="-95" font-family="Helvetica,sans-Serif" font-size="10.00">itk::SymmetricForcesDemons</text>
<text text-anchor="start" x="1811" y="-84" font-family="Helvetica,sans-Serif" font-size="10.00">RegistrationFunction&lt; TFixedImage,</text>
<text text-anchor="middle" x="1906" y="-73" font-family="Helvetica,sans-Serif" font-size="10.00"> TMovingImage, TDisplacementField &gt;</text>
</a>
</g>
</g>
<!-- Node2 -->
<g id="node2" class="node">
<title>Node2</title>
<g id="a_node2"><a xlink:href="classitk_1_1PDEDeformableRegistrationFunction.html" target="_top" xlink:title=" ">
<polygon fill="white" stroke="black" points="1388,-137 1388,-178 1601,-178 1601,-137 1388,-137"/>
<text text-anchor="start" x="1396" y="-166" font-family="Helvetica,sans-Serif" font-size="10.00">itk::PDEDeformableRegistration</text>
<text text-anchor="start" x="1396" y="-155" font-family="Helvetica,sans-Serif" font-size="10.00">Function&lt; TFixedImage, TMovingImage,</text>
<text text-anchor="middle" x="1494.5" y="-144" font-family="Helvetica,sans-Serif" font-size="10.00"> TDisplacementField &gt;</text>
</a>
</g>
</g>
<!-- Node2&#45;&gt;Node1 -->
<g id="edge1" class="edge">
<title>Node2&#45;&gt;Node1</title>
<path fill="none" stroke="midnightblue" d="M1611.23,-143.22C1664.36,-136.02 1728.08,-126.48 1785,-115.5 1797.84,-113.02 1811.37,-110.08 1824.54,-107.03"/>
<polygon fill="midnightblue" stroke="midnightblue" points="1610.54,-139.78 1601.09,-144.58 1611.47,-146.72 1610.54,-139.78"/>
</g>
<!-- Node3 -->
<g id="node3" class="node">
<title>Node3</title>
<g id="a_node3"><a xlink:href="classitk_1_1FiniteDifferenceFunction.html" target="_top" xlink:title=" ">
<polygon fill="white" stroke="black" points="1197,-142.5 1197,-172.5 1351,-172.5 1351,-142.5 1197,-142.5"/>
<text text-anchor="start" x="1205" y="-160.5" font-family="Helvetica,sans-Serif" font-size="10.00">itk::FiniteDifferenceFunction</text>
<text text-anchor="middle" x="1274" y="-149.5" font-family="Helvetica,sans-Serif" font-size="10.00">&lt; TDisplacementField &gt;</text>
</a>
</g>
</g>
<!-- Node3&#45;&gt;Node2 -->
<g id="edge2" class="edge">
<title>Node3&#45;&gt;Node2</title>
<path fill="none" stroke="midnightblue" d="M1361.21,-157.5C1369.91,-157.5 1378.8,-157.5 1387.67,-157.5"/>
<polygon fill="midnightblue" stroke="midnightblue" points="1361.11,-154 1351.11,-157.5 1361.11,-161 1361.11,-154"/>
</g>
<!-- Node4 -->
<g id="node4" class="node">
<title>Node4</title>
<g id="a_node4"><a xlink:href="classitk_1_1LightObject.html" target="_top" xlink:title="Light weight base class for most itk classes.">
<polygon fill="white" stroke="black" points="980,-211 980,-230 1071,-230 1071,-211 980,-211"/>
<text text-anchor="middle" x="1025.5" y="-218" font-family="Helvetica,sans-Serif" font-size="10.00">itk::LightObject</text>
</a>
</g>
</g>
<!-- Node4&#45;&gt;Node3 -->
<g id="edge3" class="edge">
<title>Node4&#45;&gt;Node3</title>
<path fill="none" stroke="midnightblue" d="M1073.7,-208.44C1113.64,-198.23 1171.09,-183.55 1214.06,-172.57"/>
<polygon fill="midnightblue" stroke="midnightblue" points="1072.76,-205.06 1063.94,-210.93 1074.49,-211.85 1072.76,-205.06"/>
</g>
<!-- Node5 -->
<g id="node5" class="node">
<title>Node5</title>
<g id="a_node5"><a xlink:title=" ">
<polygon fill="white" stroke="#bfbfbf" points="611,-252 611,-271 718,-271 718,-252 611,-252"/>
<text text-anchor="middle" x="664.5" y="-259" font-family="Helvetica,sans-Serif" font-size="10.00">std::atomic&lt; int &gt;</text>
</a>
</g>
</g>
<!-- Node5&#45;&gt;Node4 -->
<g id="edge4" class="edge">
<title>Node5&#45;&gt;Node4</title>
<path fill="none" stroke="#9a32cd" stroke-dasharray="5,2" d="M728.39,-254.32C800.44,-246.09 916.71,-232.81 979.99,-225.58"/>
<polygon fill="#9a32cd" stroke="#9a32cd" points="727.62,-250.88 718.09,-255.49 728.42,-257.84 727.62,-250.88"/>
<text text-anchor="middle" x="849.5" y="-250.5" font-family="Helvetica,sans-Serif" font-size="10.00"> m_ReferenceCount</text>
</g>
<!-- Node6 -->
<g id="node6" class="node">
<title>Node6</title>
<g id="a_node6"><a xlink:href="classitk_1_1ConstNeighborhoodIterator.html" target="_top" xlink:title=" ">
<polygon fill="white" stroke="black" points="942,-120.5 942,-150.5 1109,-150.5 1109,-120.5 942,-120.5"/>
<text text-anchor="start" x="950" y="-138.5" font-family="Helvetica,sans-Serif" font-size="10.00">itk::ConstNeighborhoodIterator</text>
<text text-anchor="middle" x="1025.5" y="-127.5" font-family="Helvetica,sans-Serif" font-size="10.00">&lt; TDisplacementField &gt;</text>
</a>
</g>
</g>
<!-- Node6&#45;&gt;Node3 -->
<g id="edge5" class="edge">
<title>Node6&#45;&gt;Node3</title>
<path fill="none" stroke="#9a32cd" stroke-dasharray="5,2" d="M1119.32,-143.78C1144.84,-146.06 1172.21,-148.5 1196.69,-150.69"/>
<polygon fill="#9a32cd" stroke="#9a32cd" points="1119.54,-140.29 1109.27,-142.89 1118.92,-147.26 1119.54,-140.29"/>
<text text-anchor="middle" x="1153" y="-150.5" font-family="Helvetica,sans-Serif" font-size="10.00"> m_Radius</text>
</g>
<!-- Node7 -->
<g id="node7" class="node">
<title>Node7</title>
<g id="a_node7"><a xlink:href="classitk_1_1Neighborhood.html" target="_top" xlink:title=" ">
<polygon fill="white" stroke="black" points="600.5,-170 600.5,-233 728.5,-233 728.5,-170 600.5,-170"/>
<text text-anchor="start" x="608.5" y="-221" font-family="Helvetica,sans-Serif" font-size="10.00">itk::Neighborhood&lt;</text>
<text text-anchor="start" x="608.5" y="-210" font-family="Helvetica,sans-Serif" font-size="10.00"> TDisplacementField</text>
<text text-anchor="start" x="608.5" y="-199" font-family="Helvetica,sans-Serif" font-size="10.00"> ::InternalPixelType</text>
<text text-anchor="start" x="608.5" y="-188" font-family="Helvetica,sans-Serif" font-size="10.00"> *, TDisplacementField</text>
<text text-anchor="middle" x="664.5" y="-177" font-family="Helvetica,sans-Serif" font-size="10.00"> ::ImageDimension &gt;</text>
</a>
</g>
</g>
<!-- Node7&#45;&gt;Node6 -->
<g id="edge6" class="edge">
<title>Node7&#45;&gt;Node6</title>
<path fill="none" stroke="midnightblue" d="M738.89,-188.01C798.15,-177.11 881.49,-161.79 942.85,-150.51"/>
<polygon fill="midnightblue" stroke="midnightblue" points="738.06,-184.6 728.86,-189.85 739.32,-191.49 738.06,-184.6"/>
</g>
<!-- Node8 -->
<g id="node8" class="node">
<title>Node8</title>
<g id="a_node8"><a xlink:href="classitk_1_1NeighborhoodAllocator.html" target="_top" xlink:title=" ">
<polygon fill="white" stroke="black" points="275.5,-205 275.5,-246 446.5,-246 446.5,-205 275.5,-205"/>
<text text-anchor="start" x="283.5" y="-234" font-family="Helvetica,sans-Serif" font-size="10.00">itk::NeighborhoodAllocator</text>
<text text-anchor="start" x="283.5" y="-223" font-family="Helvetica,sans-Serif" font-size="10.00">&lt; TDisplacementField ::Internal</text>
<text text-anchor="middle" x="361" y="-212" font-family="Helvetica,sans-Serif" font-size="10.00">PixelType * &gt;</text>
</a>
</g>
</g>
<!-- Node8&#45;&gt;Node7 -->
<g id="edge7" class="edge">
<title>Node8&#45;&gt;Node7</title>
<path fill="none" stroke="#9a32cd" stroke-dasharray="5,2" d="M456.94,-217.94C503.72,-214.22 558.84,-209.83 600.38,-206.52"/>
<polygon fill="#9a32cd" stroke="#9a32cd" points="456.48,-214.47 446.79,-218.75 457.03,-221.45 456.48,-214.47"/>
<text text-anchor="middle" x="517.5" y="-218.5" font-family="Helvetica,sans-Serif" font-size="10.00"> m_DataBuffer</text>
</g>
<!-- Node9 -->
<g id="node9" class="node">
<title>Node9</title>
<g id="a_node9"><a xlink:title=" ">
<polygon fill="white" stroke="#bfbfbf" points="0,-210.5 0,-240.5 174,-240.5 174,-210.5 0,-210.5"/>
<text text-anchor="start" x="8" y="-228.5" font-family="Helvetica,sans-Serif" font-size="10.00">std::unique_ptr&lt; TDisplacement</text>
<text text-anchor="middle" x="87" y="-217.5" font-family="Helvetica,sans-Serif" font-size="10.00">Field ::InternalPixelType *[]&gt;</text>
</a>
</g>
</g>
<!-- Node9&#45;&gt;Node8 -->
<g id="edge8" class="edge">
<title>Node9&#45;&gt;Node8</title>
<path fill="none" stroke="#9a32cd" stroke-dasharray="5,2" d="M184.44,-225.5C214.14,-225.5 246.59,-225.5 275.43,-225.5"/>
<polygon fill="#9a32cd" stroke="#9a32cd" points="184.06,-222 174.06,-225.5 184.06,-229 184.06,-222"/>
<text text-anchor="middle" x="216.5" y="-228.5" font-family="Helvetica,sans-Serif" font-size="10.00"> m_Data</text>
</g>
<!-- Node10 -->
<g id="node10" class="node">
<title>Node10</title>
<g id="a_node10"><a xlink:title=" ">
<polygon fill="white" stroke="#bfbfbf" points="291.5,-167 291.5,-186 430.5,-186 430.5,-167 291.5,-167"/>
<text text-anchor="middle" x="361" y="-174" font-family="Helvetica,sans-Serif" font-size="10.00">std::vector&lt; itk::Offset &gt;</text>
</a>
</g>
</g>
<!-- Node10&#45;&gt;Node7 -->
<g id="edge9" class="edge">
<title>Node10&#45;&gt;Node7</title>
<path fill="none" stroke="#9a32cd" stroke-dasharray="5,2" d="M440.87,-183.04C490.62,-187.16 554,-192.42 600.4,-196.27"/>
<polygon fill="#9a32cd" stroke="#9a32cd" points="441.05,-179.54 430.79,-182.2 440.47,-186.52 441.05,-179.54"/>
<text text-anchor="middle" x="517.5" y="-194.5" font-family="Helvetica,sans-Serif" font-size="10.00"> m_OffsetTable</text>
</g>
<!-- Node11 -->
<g id="node11" class="node">
<title>Node11</title>
<g id="a_node11"><a xlink:href="structitk_1_1Offset.html" target="_top" xlink:title="Represent a n&#45;dimensional offset between two n&#45;dimensional indexes of n&#45;dimensional image.">
<polygon fill="white" stroke="black" points="14,-167 14,-186 160,-186 160,-167 14,-167"/>
<text text-anchor="middle" x="87" y="-174" font-family="Helvetica,sans-Serif" font-size="10.00">itk::Offset&lt; VDimension &gt;</text>
</a>
</g>
</g>
<!-- Node11&#45;&gt;Node10 -->
<g id="edge10" class="edge">
<title>Node11&#45;&gt;Node10</title>
<path fill="none" stroke="#9a32cd" stroke-dasharray="5,2" d="M170.36,-176.5C208.98,-176.5 254.49,-176.5 291.24,-176.5"/>
<polygon fill="#9a32cd" stroke="#9a32cd" points="170.18,-173 160.18,-176.5 170.18,-180 170.18,-173"/>
<text text-anchor="middle" x="216.5" y="-179.5" font-family="Helvetica,sans-Serif" font-size="10.00"> elements</text>
</g>
<!-- Node12 -->
<g id="node12" class="node">
<title>Node12</title>
<g id="a_node12"><a xlink:href="classitk_1_1ImageBoundaryCondition.html" target="_top" xlink:title=" ">
<polygon fill="white" stroke="black" points="572,-120.5 572,-150.5 757,-150.5 757,-120.5 572,-120.5"/>
<text text-anchor="start" x="580" y="-138.5" font-family="Helvetica,sans-Serif" font-size="10.00">itk::ImageBoundaryCondition</text>
<text text-anchor="middle" x="664.5" y="-127.5" font-family="Helvetica,sans-Serif" font-size="10.00">&lt; ImageType, OutputImageType &gt;</text>
</a>
</g>
</g>
<!-- Node12&#45;&gt;Node6 -->
<g id="edge11" class="edge">
<title>Node12&#45;&gt;Node6</title>
<path fill="none" stroke="#9a32cd" stroke-dasharray="5,2" d="M767.18,-135.5C822.39,-135.5 889.78,-135.5 941.74,-135.5"/>
<polygon fill="#9a32cd" stroke="#9a32cd" points="767.02,-132 757.02,-135.5 767.02,-139 767.02,-132"/>
<text text-anchor="middle" x="849.5" y="-138.5" font-family="Helvetica,sans-Serif" font-size="10.00"> m_BoundaryCondition</text>
</g>
<!-- Node13 -->
<g id="node13" class="node">
<title>Node13</title>
<g id="a_node13"><a xlink:href="classitk_1_1ZeroFluxNeumannBoundaryCondition.html" target="_top" xlink:title=" ">
<polygon fill="white" stroke="black" points="573.5,-71.5 573.5,-101.5 755.5,-101.5 755.5,-71.5 573.5,-71.5"/>
<text text-anchor="start" x="581.5" y="-89.5" font-family="Helvetica,sans-Serif" font-size="10.00">itk::ZeroFluxNeumannBoundary</text>
<text text-anchor="middle" x="664.5" y="-78.5" font-family="Helvetica,sans-Serif" font-size="10.00">Condition&lt; TDisplacementField &gt;</text>
</a>
</g>
</g>
<!-- Node13&#45;&gt;Node6 -->
<g id="edge12" class="edge">
<title>Node13&#45;&gt;Node6</title>
<path fill="none" stroke="#9a32cd" stroke-dasharray="5,2" d="M765.64,-99.26C813.59,-105.47 871.79,-113.17 924,-120.5 929.85,-121.32 935.89,-122.18 941.98,-123.07"/>
<polygon fill="#9a32cd" stroke="#9a32cd" points="765.94,-95.77 755.57,-97.96 765.04,-102.71 765.94,-95.77"/>
<text text-anchor="middle" x="849.5" y="-123.5" font-family="Helvetica,sans-Serif" font-size="10.00"> m_InternalBoundaryCondition</text>
</g>
<!-- Node14 -->
<g id="node14" class="node">
<title>Node14</title>
<g id="a_node14"><a xlink:href="classitk_1_1ImageBoundaryCondition.html" target="_top" xlink:title=" ">
<polygon fill="white" stroke="black" points="259,-66 259,-107 463,-107 463,-66 259,-66"/>
<text text-anchor="start" x="267" y="-95" font-family="Helvetica,sans-Serif" font-size="10.00">itk::ImageBoundaryCondition</text>
<text text-anchor="start" x="267" y="-84" font-family="Helvetica,sans-Serif" font-size="10.00">&lt; TDisplacementField, TDisplacement</text>
<text text-anchor="middle" x="361" y="-73" font-family="Helvetica,sans-Serif" font-size="10.00">Field &gt;</text>
</a>
</g>
</g>
<!-- Node14&#45;&gt;Node13 -->
<g id="edge13" class="edge">
<title>Node14&#45;&gt;Node13</title>
<path fill="none" stroke="midnightblue" d="M473.34,-86.5C506.22,-86.5 541.79,-86.5 573.17,-86.5"/>
<polygon fill="midnightblue" stroke="midnightblue" points="473.23,-83 463.23,-86.5 473.23,-90 473.23,-83"/>
</g>
<!-- Node15 -->
<g id="node15" class="node">
<title>Node15</title>
<g id="a_node15"><a xlink:href="structitk_1_1Index.html" target="_top" xlink:title=" ">
<polygon fill="white" stroke="black" points="584,-3 584,-22 745,-22 745,-3 584,-3"/>
<text text-anchor="middle" x="664.5" y="-10" font-family="Helvetica,sans-Serif" font-size="10.00">itk::Index&lt; Self::Dimension &gt;</text>
</a>
</g>
</g>
<!-- Node15&#45;&gt;Node6 -->
<g id="edge14" class="edge">
<title>Node15&#45;&gt;Node6</title>
<path fill="none" stroke="#9a32cd" stroke-dasharray="5,2" d="M755.4,-3.17C807.03,-1.54 871.78,-6.02 924,-30.5 966.27,-50.32 999.93,-96.33 1015.35,-120.32"/>
<polygon fill="#9a32cd" stroke="#9a32cd" points="755.11,0.32 745.26,-3.58 755.39,-6.68 755.11,0.32"/>
<text text-anchor="middle" x="849.5" y="-88.5" font-family="Helvetica,sans-Serif" font-size="10.00"> m_BeginIndex</text>
<text text-anchor="middle" x="849.5" y="-77.5" font-family="Helvetica,sans-Serif" font-size="10.00">m_InnerBoundsLow</text>
<text text-anchor="middle" x="849.5" y="-66.5" font-family="Helvetica,sans-Serif" font-size="10.00">m_Loop</text>
<text text-anchor="middle" x="849.5" y="-55.5" font-family="Helvetica,sans-Serif" font-size="10.00">m_InnerBoundsHigh</text>
<text text-anchor="middle" x="849.5" y="-44.5" font-family="Helvetica,sans-Serif" font-size="10.00">m_EndIndex</text>
<text text-anchor="middle" x="849.5" y="-33.5" font-family="Helvetica,sans-Serif" font-size="10.00">m_Bound</text>
</g>
<!-- Node16 -->
<g id="node16" class="node">
<title>Node16</title>
<g id="a_node16"><a xlink:title="STL class.">
<polygon fill="white" stroke="#bfbfbf" points="1460,-99 1460,-118 1529,-118 1529,-99 1460,-99"/>
<text text-anchor="middle" x="1494.5" y="-106" font-family="Helvetica,sans-Serif" font-size="10.00">std::mutex</text>
</a>
</g>
</g>
<!-- Node16&#45;&gt;Node1 -->
<g id="edge15" class="edge">
<title>Node16&#45;&gt;Node1</title>
<path fill="none" stroke="#9a32cd" stroke-dasharray="5,2" d="M1539.29,-106.15C1601.7,-102.79 1718.07,-96.54 1802.82,-91.99"/>
<polygon fill="#9a32cd" stroke="#9a32cd" points="1538.81,-102.67 1529.01,-106.7 1539.18,-109.66 1538.81,-102.67"/>
<text text-anchor="middle" x="1702" y="-103.5" font-family="Helvetica,sans-Serif" font-size="10.00"> m_MetricCalculationLock</text>
</g>
<!-- Node17 -->
<g id="node17" class="node">
<title>Node17</title>
<g id="a_node17"><a xlink:href="classitk_1_1SmartPointer.html" target="_top" xlink:title=" ">
<polygon fill="white" stroke="black" points="1441,-49.5 1441,-79.5 1548,-79.5 1548,-49.5 1441,-49.5"/>
<text text-anchor="start" x="1449" y="-67.5" font-family="Helvetica,sans-Serif" font-size="10.00">itk::SmartPointer&lt;</text>
<text text-anchor="middle" x="1494.5" y="-56.5" font-family="Helvetica,sans-Serif" font-size="10.00"> Self &gt;</text>
</a>
</g>
</g>
<!-- Node17&#45;&gt;Node1 -->
<g id="edge16" class="edge">
<title>Node17&#45;&gt;Node1</title>
<path fill="none" stroke="#9a32cd" stroke-dasharray="5,2" d="M1558.31,-66.78C1616.96,-69.03 1706.95,-72.82 1785,-77.5 1790.84,-77.85 1796.84,-78.23 1802.89,-78.63"/>
<polygon fill="#9a32cd" stroke="#9a32cd" points="1558.21,-63.27 1548.09,-66.39 1557.95,-70.27 1558.21,-63.27"/>
<text text-anchor="middle" x="1702" y="-80.5" font-family="Helvetica,sans-Serif" font-size="10.00"> m_FixedImageGradientCalculator</text>
</g>
<!-- Node18 -->
<g id="node18" class="node">
<title>Node18</title>
<g id="a_node18"><a xlink:href="classitk_1_1SmartPointer.html" target="_top" xlink:title="Implements transparent reference counting.">
<polygon fill="white" stroke="black" points="1441,-0.5 1441,-30.5 1548,-30.5 1548,-0.5 1441,-0.5"/>
<text text-anchor="start" x="1449" y="-18.5" font-family="Helvetica,sans-Serif" font-size="10.00">itk::SmartPointer&lt;</text>
<text text-anchor="middle" x="1494.5" y="-7.5" font-family="Helvetica,sans-Serif" font-size="10.00"> TObjectType &gt;</text>
</a>
</g>
</g>
<!-- Node18&#45;&gt;Node1 -->
<g id="edge17" class="edge">
<title>Node18&#45;&gt;Node1</title>
<path fill="none" stroke="#9a32cd" stroke-dasharray="5,2" d="M1558.42,-21.23C1617.34,-27.2 1707.66,-37.87 1785,-53.5 1801.84,-56.9 1819.79,-61.38 1836.54,-65.92"/>
<polygon fill="#9a32cd" stroke="#9a32cd" points="1558.46,-17.72 1548.16,-20.21 1557.76,-24.68 1558.46,-17.72"/>
<text text-anchor="middle" x="1702" y="-56.5" font-family="Helvetica,sans-Serif" font-size="10.00"> m_MovingImageInterpolator</text>
</g>
</g>
</svg>
