<?xml version="1.0" encoding="UTF-8" standalone="no"?>
<!DOCTYPE svg PUBLIC "-//W3C//DTD SVG 1.1//EN"
 "http://www.w3.org/Graphics/SVG/1.1/DTD/svg11.dtd">
<!-- Generated by graphviz version 2.43.0 (0)
 -->
<!-- Title: itk::Statistics::DistanceMetric&lt; TVector &gt; Pages: 1 -->
<svg width="731pt" height="186pt"
 viewBox="0.00 0.00 731.00 186.00" xmlns="http://www.w3.org/2000/svg" xmlns:xlink="http://www.w3.org/1999/xlink">
<g id="graph0" class="graph" transform="scale(1 1) rotate(0) translate(4 182)">
<title>itk::Statistics::DistanceMetric&lt; TVector &gt;</title>
<polygon fill="white" stroke="transparent" points="-4,4 -4,-182 727,-182 727,4 -4,4"/>
<!-- Node1 -->
<g id="node1" class="node">
<title>Node1</title>
<g id="a_node1"><a xlink:title="this class declares common interfaces for distance functions.">
<polygon fill="#bfbfbf" stroke="black" points="375,-73.5 375,-103.5 504,-103.5 504,-73.5 375,-73.5"/>
<text text-anchor="start" x="383" y="-91.5" font-family="Helvetica,sans-Serif" font-size="10.00">itk::Statistics::Distance</text>
<text text-anchor="middle" x="439.5" y="-80.5" font-family="Helvetica,sans-Serif" font-size="10.00">Metric&lt; TVector &gt;</text>
</a>
</g>
</g>
<!-- Node5 -->
<g id="node5" class="node">
<title>Node5</title>
<g id="a_node5"><a xlink:href="classitk_1_1Statistics_1_1EuclideanDistanceMetric.html" target="_top" xlink:title="Euclidean distance function.">
<polygon fill="white" stroke="black" points="557,-147.5 557,-177.5 706,-177.5 706,-147.5 557,-147.5"/>
<text text-anchor="start" x="565" y="-165.5" font-family="Helvetica,sans-Serif" font-size="10.00">itk::Statistics::Euclidean</text>
<text text-anchor="middle" x="631.5" y="-154.5" font-family="Helvetica,sans-Serif" font-size="10.00">DistanceMetric&lt; TVector &gt;</text>
</a>
</g>
</g>
<!-- Node1&#45;&gt;Node5 -->
<g id="edge4" class="edge">
<title>Node1&#45;&gt;Node5</title>
<path fill="none" stroke="midnightblue" d="M475.86,-108.51C494.52,-118.49 518.04,-130.17 540,-138.5 548.66,-141.79 557.96,-144.8 567.17,-147.49"/>
<polygon fill="midnightblue" stroke="midnightblue" points="477.31,-105.32 466.85,-103.62 473.97,-111.47 477.31,-105.32"/>
</g>
<!-- Node6 -->
<g id="node6" class="node">
<title>Node6</title>
<g id="a_node6"><a xlink:href="classitk_1_1Statistics_1_1EuclideanSquareDistanceMetric.html" target="_top" xlink:title="Computes Euclidean distance between origin and given measurement vector.">
<polygon fill="white" stroke="black" points="540,-98.5 540,-128.5 723,-128.5 723,-98.5 540,-98.5"/>
<text text-anchor="start" x="548" y="-116.5" font-family="Helvetica,sans-Serif" font-size="10.00">itk::Statistics::Euclidean</text>
<text text-anchor="middle" x="631.5" y="-105.5" font-family="Helvetica,sans-Serif" font-size="10.00">SquareDistanceMetric&lt; TVector &gt;</text>
</a>
</g>
</g>
<!-- Node1&#45;&gt;Node6 -->
<g id="edge5" class="edge">
<title>Node1&#45;&gt;Node6</title>
<path fill="none" stroke="midnightblue" d="M514.2,-98.2C522.64,-99.31 531.33,-100.45 539.96,-101.59"/>
<polygon fill="midnightblue" stroke="midnightblue" points="514.4,-94.69 504.03,-96.86 513.49,-101.63 514.4,-94.69"/>
</g>
<!-- Node7 -->
<g id="node7" class="node">
<title>Node7</title>
<g id="a_node7"><a xlink:href="classitk_1_1Statistics_1_1MahalanobisDistanceMetric.html" target="_top" xlink:title="MahalanobisDistanceMetric class computes a Mahalanobis distance given a mean and covariance.">
<polygon fill="white" stroke="black" points="557,-49.5 557,-79.5 706,-79.5 706,-49.5 557,-49.5"/>
<text text-anchor="start" x="565" y="-67.5" font-family="Helvetica,sans-Serif" font-size="10.00">itk::Statistics::Mahalanobis</text>
<text text-anchor="middle" x="631.5" y="-56.5" font-family="Helvetica,sans-Serif" font-size="10.00">DistanceMetric&lt; TVector &gt;</text>
</a>
</g>
</g>
<!-- Node1&#45;&gt;Node7 -->
<g id="edge6" class="edge">
<title>Node1&#45;&gt;Node7</title>
<path fill="none" stroke="midnightblue" d="M514.11,-79.2C528.13,-77.43 542.81,-75.58 556.84,-73.8"/>
<polygon fill="midnightblue" stroke="midnightblue" points="513.51,-75.75 504.03,-80.47 514.39,-82.69 513.51,-75.75"/>
</g>
<!-- Node8 -->
<g id="node8" class="node">
<title>Node8</title>
<g id="a_node8"><a xlink:href="classitk_1_1Statistics_1_1ManhattanDistanceMetric.html" target="_top" xlink:title="Euclidean distance function.">
<polygon fill="white" stroke="black" points="557,-0.5 557,-30.5 706,-30.5 706,-0.5 557,-0.5"/>
<text text-anchor="start" x="565" y="-18.5" font-family="Helvetica,sans-Serif" font-size="10.00">itk::Statistics::Manhattan</text>
<text text-anchor="middle" x="631.5" y="-7.5" font-family="Helvetica,sans-Serif" font-size="10.00">DistanceMetric&lt; TVector &gt;</text>
</a>
</g>
</g>
<!-- Node1&#45;&gt;Node8 -->
<g id="edge7" class="edge">
<title>Node1&#45;&gt;Node8</title>
<path fill="none" stroke="midnightblue" d="M476.3,-68.72C494.91,-59 518.25,-47.65 540,-39.5 548.68,-36.25 557.98,-33.26 567.19,-30.57"/>
<polygon fill="midnightblue" stroke="midnightblue" points="474.5,-65.71 467.3,-73.49 477.78,-71.9 474.5,-65.71"/>
</g>
<!-- Node2 -->
<g id="node2" class="node">
<title>Node2</title>
<g id="a_node2"><a xlink:href="classitk_1_1FunctionBase.html" target="_top" xlink:title=" ">
<polygon fill="white" stroke="black" points="230,-73.5 230,-103.5 339,-103.5 339,-73.5 230,-73.5"/>
<text text-anchor="start" x="238" y="-91.5" font-family="Helvetica,sans-Serif" font-size="10.00">itk::FunctionBase&lt;</text>
<text text-anchor="middle" x="284.5" y="-80.5" font-family="Helvetica,sans-Serif" font-size="10.00"> TVector, double &gt;</text>
</a>
</g>
</g>
<!-- Node2&#45;&gt;Node1 -->
<g id="edge1" class="edge">
<title>Node2&#45;&gt;Node1</title>
<path fill="none" stroke="midnightblue" d="M349.19,-88.5C357.64,-88.5 366.31,-88.5 374.77,-88.5"/>
<polygon fill="midnightblue" stroke="midnightblue" points="349.01,-85 339.01,-88.5 349.01,-92 349.01,-85"/>
</g>
<!-- Node3 -->
<g id="node3" class="node">
<title>Node3</title>
<g id="a_node3"><a xlink:href="classitk_1_1Object.html" target="_top" xlink:title="Base class for most ITK classes.">
<polygon fill="white" stroke="black" points="127,-79 127,-98 194,-98 194,-79 127,-79"/>
<text text-anchor="middle" x="160.5" y="-86" font-family="Helvetica,sans-Serif" font-size="10.00">itk::Object</text>
</a>
</g>
</g>
<!-- Node3&#45;&gt;Node2 -->
<g id="edge2" class="edge">
<title>Node3&#45;&gt;Node2</title>
<path fill="none" stroke="midnightblue" d="M204.37,-88.5C212.65,-88.5 221.41,-88.5 229.98,-88.5"/>
<polygon fill="midnightblue" stroke="midnightblue" points="204.19,-85 194.19,-88.5 204.19,-92 204.19,-85"/>
</g>
<!-- Node4 -->
<g id="node4" class="node">
<title>Node4</title>
<g id="a_node4"><a xlink:href="classitk_1_1LightObject.html" target="_top" xlink:title="Light weight base class for most itk classes.">
<polygon fill="white" stroke="black" points="0,-79 0,-98 91,-98 91,-79 0,-79"/>
<text text-anchor="middle" x="45.5" y="-86" font-family="Helvetica,sans-Serif" font-size="10.00">itk::LightObject</text>
</a>
</g>
</g>
<!-- Node4&#45;&gt;Node3 -->
<g id="edge3" class="edge">
<title>Node4&#45;&gt;Node3</title>
<path fill="none" stroke="midnightblue" d="M101.28,-88.5C109.96,-88.5 118.69,-88.5 126.66,-88.5"/>
<polygon fill="midnightblue" stroke="midnightblue" points="101.16,-85 91.16,-88.5 101.16,-92 101.16,-85"/>
</g>
</g>
</svg>
