<?xml version="1.0" encoding="UTF-8" standalone="no"?>
<!DOCTYPE svg PUBLIC "-//W3C//DTD SVG 1.1//EN"
 "http://www.w3.org/Graphics/SVG/1.1/DTD/svg11.dtd">
<!-- Generated by graphviz version 2.43.0 (0)
 -->
<!-- Title: itk::DTITubeSpatialObject&lt; TDimension &gt; Pages: 1 -->
<svg width="205pt" height="430pt"
 viewBox="0.00 0.00 205.00 430.00" xmlns="http://www.w3.org/2000/svg" xmlns:xlink="http://www.w3.org/1999/xlink">
<g id="graph0" class="graph" transform="scale(1 1) rotate(0) translate(4 426)">
<title>itk::DTITubeSpatialObject&lt; TDimension &gt;</title>
<polygon fill="white" stroke="transparent" points="-4,4 -4,-426 201,-426 201,4 -4,4"/>
<!-- Node1 -->
<g id="node1" class="node">
<title>Node1</title>
<g id="a_node1"><a xlink:title="Representation of a tube based on the spatial object classes.">
<polygon fill="#bfbfbf" stroke="black" points="28.5,-0.5 28.5,-30.5 168.5,-30.5 168.5,-0.5 28.5,-0.5"/>
<text text-anchor="start" x="36.5" y="-18.5" font-family="Helvetica,sans-Serif" font-size="10.00">itk::DTITubeSpatialObject</text>
<text text-anchor="middle" x="98.5" y="-7.5" font-family="Helvetica,sans-Serif" font-size="10.00">&lt; TDimension &gt;</text>
</a>
</g>
</g>
<!-- Node2 -->
<g id="node2" class="node">
<title>Node2</title>
<g id="a_node2"><a xlink:href="classitk_1_1TubeSpatialObject.html" target="_top" xlink:title=" ">
<polygon fill="white" stroke="black" points="14,-67.5 14,-108.5 183,-108.5 183,-67.5 14,-67.5"/>
<text text-anchor="start" x="22" y="-96.5" font-family="Helvetica,sans-Serif" font-size="10.00">itk::TubeSpatialObject</text>
<text text-anchor="start" x="22" y="-85.5" font-family="Helvetica,sans-Serif" font-size="10.00">&lt; 3, DTITubeSpatialObjectPoint</text>
<text text-anchor="middle" x="98.5" y="-74.5" font-family="Helvetica,sans-Serif" font-size="10.00">&lt; 3 &gt; &gt;</text>
</a>
</g>
</g>
<!-- Node2&#45;&gt;Node1 -->
<g id="edge1" class="edge">
<title>Node2&#45;&gt;Node1</title>
<path fill="none" stroke="midnightblue" d="M98.5,-57.08C98.5,-48.01 98.5,-38.45 98.5,-30.89"/>
<polygon fill="midnightblue" stroke="midnightblue" points="95,-57.36 98.5,-67.36 102,-57.36 95,-57.36"/>
</g>
<!-- Node3 -->
<g id="node3" class="node">
<title>Node3</title>
<g id="a_node3"><a xlink:href="classitk_1_1PointBasedSpatialObject.html" target="_top" xlink:title=" ">
<polygon fill="white" stroke="black" points="0,-145.5 0,-186.5 197,-186.5 197,-145.5 0,-145.5"/>
<text text-anchor="start" x="8" y="-174.5" font-family="Helvetica,sans-Serif" font-size="10.00">itk::PointBasedSpatialObject</text>
<text text-anchor="start" x="8" y="-163.5" font-family="Helvetica,sans-Serif" font-size="10.00">&lt; TDimension, DTITubeSpatialObject</text>
<text text-anchor="middle" x="98.5" y="-152.5" font-family="Helvetica,sans-Serif" font-size="10.00">Point&lt; 3 &gt; &gt;</text>
</a>
</g>
</g>
<!-- Node3&#45;&gt;Node2 -->
<g id="edge2" class="edge">
<title>Node3&#45;&gt;Node2</title>
<path fill="none" stroke="midnightblue" d="M98.5,-135.3C98.5,-126.3 98.5,-116.65 98.5,-108.51"/>
<polygon fill="midnightblue" stroke="midnightblue" points="95,-135.43 98.5,-145.43 102,-135.43 95,-135.43"/>
</g>
<!-- Node4 -->
<g id="node4" class="node">
<title>Node4</title>
<g id="a_node4"><a xlink:href="classitk_1_1SpatialObject.html" target="_top" xlink:title=" ">
<polygon fill="white" stroke="black" points="48,-223.5 48,-253.5 149,-253.5 149,-223.5 48,-223.5"/>
<text text-anchor="start" x="56" y="-241.5" font-family="Helvetica,sans-Serif" font-size="10.00">itk::SpatialObject</text>
<text text-anchor="middle" x="98.5" y="-230.5" font-family="Helvetica,sans-Serif" font-size="10.00">&lt; TDimension &gt;</text>
</a>
</g>
</g>
<!-- Node4&#45;&gt;Node3 -->
<g id="edge3" class="edge">
<title>Node4&#45;&gt;Node3</title>
<path fill="none" stroke="midnightblue" d="M98.5,-212.98C98.5,-204.35 98.5,-194.76 98.5,-186.59"/>
<polygon fill="midnightblue" stroke="midnightblue" points="95,-213.23 98.5,-223.23 102,-213.23 95,-213.23"/>
</g>
<!-- Node5 -->
<g id="node5" class="node">
<title>Node5</title>
<g id="a_node5"><a xlink:href="classitk_1_1DataObject.html" target="_top" xlink:title="Base class for all data objects in ITK.">
<polygon fill="white" stroke="black" points="53.5,-290.5 53.5,-309.5 143.5,-309.5 143.5,-290.5 53.5,-290.5"/>
<text text-anchor="middle" x="98.5" y="-297.5" font-family="Helvetica,sans-Serif" font-size="10.00">itk::DataObject</text>
</a>
</g>
</g>
<!-- Node5&#45;&gt;Node4 -->
<g id="edge4" class="edge">
<title>Node5&#45;&gt;Node4</title>
<path fill="none" stroke="midnightblue" d="M98.5,-280.23C98.5,-271.59 98.5,-261.5 98.5,-253.52"/>
<polygon fill="midnightblue" stroke="midnightblue" points="95,-280.48 98.5,-290.48 102,-280.48 95,-280.48"/>
</g>
<!-- Node6 -->
<g id="node6" class="node">
<title>Node6</title>
<g id="a_node6"><a xlink:href="classitk_1_1Object.html" target="_top" xlink:title="Base class for most ITK classes.">
<polygon fill="white" stroke="black" points="65,-346.5 65,-365.5 132,-365.5 132,-346.5 65,-346.5"/>
<text text-anchor="middle" x="98.5" y="-353.5" font-family="Helvetica,sans-Serif" font-size="10.00">itk::Object</text>
</a>
</g>
</g>
<!-- Node6&#45;&gt;Node5 -->
<g id="edge5" class="edge">
<title>Node6&#45;&gt;Node5</title>
<path fill="none" stroke="midnightblue" d="M98.5,-335.8C98.5,-326.91 98.5,-316.78 98.5,-309.75"/>
<polygon fill="midnightblue" stroke="midnightblue" points="95,-336.08 98.5,-346.08 102,-336.08 95,-336.08"/>
</g>
<!-- Node7 -->
<g id="node7" class="node">
<title>Node7</title>
<g id="a_node7"><a xlink:href="classitk_1_1LightObject.html" target="_top" xlink:title="Light weight base class for most itk classes.">
<polygon fill="white" stroke="black" points="53,-402.5 53,-421.5 144,-421.5 144,-402.5 53,-402.5"/>
<text text-anchor="middle" x="98.5" y="-409.5" font-family="Helvetica,sans-Serif" font-size="10.00">itk::LightObject</text>
</a>
</g>
</g>
<!-- Node7&#45;&gt;Node6 -->
<g id="edge6" class="edge">
<title>Node7&#45;&gt;Node6</title>
<path fill="none" stroke="midnightblue" d="M98.5,-391.8C98.5,-382.91 98.5,-372.78 98.5,-365.75"/>
<polygon fill="midnightblue" stroke="midnightblue" points="95,-392.08 98.5,-402.08 102,-392.08 95,-392.08"/>
</g>
</g>
</svg>
