<?xml version="1.0" encoding="UTF-8" standalone="no"?>
<!DOCTYPE svg PUBLIC "-//W3C//DTD SVG 1.1//EN"
 "http://www.w3.org/Graphics/SVG/1.1/DTD/svg11.dtd">
<!-- Generated by graphviz version 2.43.0 (0)
 -->
<!-- Title: itk::LabeledPointSetToPointSetMetricv4&lt; TFixedPointSet, TMovingPointSet, TInternalComputationValueType &gt; Pages: 1 -->
<svg width="2820pt" height="386pt"
 viewBox="0.00 0.00 2820.00 385.50" xmlns="http://www.w3.org/2000/svg" xmlns:xlink="http://www.w3.org/1999/xlink">
<g id="graph0" class="graph" transform="scale(1 1) rotate(0) translate(4 381.5)">
<title>itk::LabeledPointSetToPointSetMetricv4&lt; TFixedPointSet, TMovingPointSet, TInternalComputationValueType &gt;</title>
<polygon fill="white" stroke="transparent" points="-4,4 -4,-381.5 2816,-381.5 2816,4 -4,4"/>
<!-- Node1 -->
<g id="node1" class="node">
<title>Node1</title>
<g id="a_node1"><a xlink:title="Computes the distance metric and gradient between two labeled point sets.">
<polygon fill="#bfbfbf" stroke="black" points="2597,-60.5 2597,-112.5 2812,-112.5 2812,-60.5 2597,-60.5"/>
<text text-anchor="start" x="2605" y="-100.5" font-family="Helvetica,sans-Serif" font-size="10.00">itk::LabeledPointSetToPoint</text>
<text text-anchor="start" x="2605" y="-89.5" font-family="Helvetica,sans-Serif" font-size="10.00">SetMetricv4&lt; TFixedPointSet,</text>
<text text-anchor="start" x="2605" y="-78.5" font-family="Helvetica,sans-Serif" font-size="10.00"> TMovingPointSet, TInternalComputation</text>
<text text-anchor="middle" x="2704.5" y="-67.5" font-family="Helvetica,sans-Serif" font-size="10.00">ValueType &gt;</text>
</a>
</g>
</g>
<!-- Node2 -->
<g id="node2" class="node">
<title>Node2</title>
<g id="a_node2"><a xlink:href="classitk_1_1PointSetToPointSetMetricv4.html" target="_top" xlink:title=" ">
<polygon fill="white" stroke="black" points="2248,-137 2248,-178 2429,-178 2429,-137 2248,-137"/>
<text text-anchor="start" x="2256" y="-166" font-family="Helvetica,sans-Serif" font-size="10.00">itk::PointSetToPointSetMetricv4</text>
<text text-anchor="start" x="2256" y="-155" font-family="Helvetica,sans-Serif" font-size="10.00">&lt; TFixedPointSet, TFixedPointSet,</text>
<text text-anchor="middle" x="2338.5" y="-144" font-family="Helvetica,sans-Serif" font-size="10.00"> double &gt;</text>
</a>
</g>
</g>
<!-- Node2&#45;&gt;Node1 -->
<g id="edge1" class="edge">
<title>Node2&#45;&gt;Node1</title>
<path fill="none" stroke="midnightblue" d="M2439.27,-156.62C2482.69,-154.44 2533.87,-149.42 2579,-138.5 2603.59,-132.55 2629.59,-122.37 2651.43,-112.58"/>
<polygon fill="midnightblue" stroke="midnightblue" points="2439.1,-153.12 2429.27,-157.08 2439.42,-160.11 2439.1,-153.12"/>
</g>
<!-- Node3 -->
<g id="node3" class="node">
<title>Node3</title>
<g id="a_node3"><a xlink:href="classitk_1_1PointSetToPointSetMetricWithIndexv4.html" target="_top" xlink:title=" ">
<polygon fill="white" stroke="black" points="2047,-137 2047,-178 2211,-178 2211,-137 2047,-137"/>
<text text-anchor="start" x="2055" y="-166" font-family="Helvetica,sans-Serif" font-size="10.00">itk::PointSetToPointSetMetric</text>
<text text-anchor="start" x="2055" y="-155" font-family="Helvetica,sans-Serif" font-size="10.00">WithIndexv4&lt; TFixedPointSet,</text>
<text text-anchor="middle" x="2129" y="-144" font-family="Helvetica,sans-Serif" font-size="10.00"> TFixedPointSet, double &gt;</text>
</a>
</g>
</g>
<!-- Node3&#45;&gt;Node2 -->
<g id="edge2" class="edge">
<title>Node3&#45;&gt;Node2</title>
<path fill="none" stroke="midnightblue" d="M2221.37,-157.5C2230.16,-157.5 2239.08,-157.5 2247.85,-157.5"/>
<polygon fill="midnightblue" stroke="midnightblue" points="2221.12,-154 2211.12,-157.5 2221.12,-161 2221.12,-154"/>
</g>
<!-- Node4 -->
<g id="node4" class="node">
<title>Node4</title>
<g id="a_node4"><a xlink:href="classitk_1_1ObjectToObjectMetric.html" target="_top" xlink:title=" ">
<polygon fill="white" stroke="black" points="1824,-197 1824,-260 2010,-260 2010,-197 1824,-197"/>
<text text-anchor="start" x="1832" y="-248" font-family="Helvetica,sans-Serif" font-size="10.00">itk::ObjectToObjectMetric</text>
<text text-anchor="start" x="1832" y="-237" font-family="Helvetica,sans-Serif" font-size="10.00">&lt; TFixedPointSet::PointDimension,</text>
<text text-anchor="start" x="1832" y="-226" font-family="Helvetica,sans-Serif" font-size="10.00"> TFixedPointSet ::PointDimension,</text>
<text text-anchor="start" x="1832" y="-215" font-family="Helvetica,sans-Serif" font-size="10.00"> Image&lt; double, TFixedPointSet::</text>
<text text-anchor="middle" x="1917" y="-204" font-family="Helvetica,sans-Serif" font-size="10.00">PointDimension &gt;, double &gt;</text>
</a>
</g>
</g>
<!-- Node4&#45;&gt;Node3 -->
<g id="edge3" class="edge">
<title>Node4&#45;&gt;Node3</title>
<path fill="none" stroke="midnightblue" d="M2019.64,-194.14C2035.86,-188.65 2052.19,-183.13 2067.08,-178.1"/>
<polygon fill="midnightblue" stroke="midnightblue" points="2018.46,-190.84 2010.11,-197.36 2020.7,-197.47 2018.46,-190.84"/>
</g>
<!-- Node5 -->
<g id="node5" class="node">
<title>Node5</title>
<g id="a_node5"><a xlink:href="classitk_1_1ObjectToObjectMetricBaseTemplate.html" target="_top" xlink:title=" ">
<polygon fill="white" stroke="black" points="1505,-269.5 1505,-299.5 1646,-299.5 1646,-269.5 1505,-269.5"/>
<text text-anchor="start" x="1513" y="-287.5" font-family="Helvetica,sans-Serif" font-size="10.00">itk::ObjectToObjectMetric</text>
<text text-anchor="middle" x="1575.5" y="-276.5" font-family="Helvetica,sans-Serif" font-size="10.00">BaseTemplate&lt; double &gt;</text>
</a>
</g>
</g>
<!-- Node5&#45;&gt;Node4 -->
<g id="edge4" class="edge">
<title>Node5&#45;&gt;Node4</title>
<path fill="none" stroke="midnightblue" d="M1656.17,-271.36C1706.34,-263.08 1771.29,-252.37 1823.7,-243.72"/>
<polygon fill="midnightblue" stroke="midnightblue" points="1655.32,-267.95 1646.02,-273.03 1656.46,-274.86 1655.32,-267.95"/>
</g>
<!-- Node6 -->
<g id="node6" class="node">
<title>Node6</title>
<g id="a_node6"><a xlink:href="classitk_1_1SingleValuedCostFunctionv4Template.html" target="_top" xlink:title=" ">
<polygon fill="white" stroke="black" points="1210,-283.5 1210,-313.5 1383,-313.5 1383,-283.5 1210,-283.5"/>
<text text-anchor="start" x="1218" y="-301.5" font-family="Helvetica,sans-Serif" font-size="10.00">itk::SingleValuedCostFunctionv4</text>
<text text-anchor="middle" x="1296.5" y="-290.5" font-family="Helvetica,sans-Serif" font-size="10.00">Template&lt; double &gt;</text>
</a>
</g>
</g>
<!-- Node6&#45;&gt;Node5 -->
<g id="edge5" class="edge">
<title>Node6&#45;&gt;Node5</title>
<path fill="none" stroke="midnightblue" d="M1393.46,-293.65C1430.12,-291.8 1471.18,-289.72 1504.92,-288.02"/>
<polygon fill="midnightblue" stroke="midnightblue" points="1393.06,-290.17 1383.25,-294.17 1393.41,-297.16 1393.06,-290.17"/>
</g>
<!-- Node7 -->
<g id="node7" class="node">
<title>Node7</title>
<g id="a_node7"><a xlink:href="classitk_1_1CostFunctionTemplate.html" target="_top" xlink:title=" ">
<polygon fill="white" stroke="black" points="1030,-283.5 1030,-313.5 1173,-313.5 1173,-283.5 1030,-283.5"/>
<text text-anchor="start" x="1038" y="-301.5" font-family="Helvetica,sans-Serif" font-size="10.00">itk::CostFunctionTemplate</text>
<text text-anchor="middle" x="1101.5" y="-290.5" font-family="Helvetica,sans-Serif" font-size="10.00">&lt; double &gt;</text>
</a>
</g>
</g>
<!-- Node7&#45;&gt;Node6 -->
<g id="edge6" class="edge">
<title>Node7&#45;&gt;Node6</title>
<path fill="none" stroke="midnightblue" d="M1183.46,-298.5C1192.23,-298.5 1201.17,-298.5 1209.99,-298.5"/>
<polygon fill="midnightblue" stroke="midnightblue" points="1183.27,-295 1173.27,-298.5 1183.27,-302 1183.27,-295"/>
</g>
<!-- Node8 -->
<g id="node8" class="node">
<title>Node8</title>
<g id="a_node8"><a xlink:href="classitk_1_1Object.html" target="_top" xlink:title="Base class for most ITK classes.">
<polygon fill="white" stroke="black" points="926,-289 926,-308 993,-308 993,-289 926,-289"/>
<text text-anchor="middle" x="959.5" y="-296" font-family="Helvetica,sans-Serif" font-size="10.00">itk::Object</text>
</a>
</g>
</g>
<!-- Node8&#45;&gt;Node7 -->
<g id="edge7" class="edge">
<title>Node8&#45;&gt;Node7</title>
<path fill="none" stroke="midnightblue" d="M1003.52,-298.5C1011.87,-298.5 1020.81,-298.5 1029.78,-298.5"/>
<polygon fill="midnightblue" stroke="midnightblue" points="1003.32,-295 993.32,-298.5 1003.32,-302 1003.32,-295"/>
</g>
<!-- Node9 -->
<g id="node9" class="node">
<title>Node9</title>
<g id="a_node9"><a xlink:href="classitk_1_1LightObject.html" target="_top" xlink:title="Light weight base class for most itk classes.">
<polygon fill="white" stroke="black" points="660.5,-353 660.5,-372 751.5,-372 751.5,-353 660.5,-353"/>
<text text-anchor="middle" x="706" y="-360" font-family="Helvetica,sans-Serif" font-size="10.00">itk::LightObject</text>
</a>
</g>
</g>
<!-- Node9&#45;&gt;Node8 -->
<g id="edge8" class="edge">
<title>Node9&#45;&gt;Node8</title>
<path fill="none" stroke="midnightblue" d="M761.62,-357.07C802.72,-351.88 859.99,-342.3 908,-325.5 920.57,-321.1 933.82,-313.91 943.59,-308.05"/>
<polygon fill="midnightblue" stroke="midnightblue" points="761.04,-353.61 751.53,-358.29 761.88,-360.56 761.04,-353.61"/>
</g>
<!-- Node10 -->
<g id="node10" class="node">
<title>Node10</title>
<g id="a_node10"><a xlink:title=" ">
<polygon fill="white" stroke="#bfbfbf" points="378,-358 378,-377 485,-377 485,-358 378,-358"/>
<text text-anchor="middle" x="431.5" y="-365" font-family="Helvetica,sans-Serif" font-size="10.00">std::atomic&lt; int &gt;</text>
</a>
</g>
</g>
<!-- Node10&#45;&gt;Node9 -->
<g id="edge9" class="edge">
<title>Node10&#45;&gt;Node9</title>
<path fill="none" stroke="#9a32cd" stroke-dasharray="5,2" d="M495.18,-366.35C545.64,-365.42 615.33,-364.15 660.29,-363.32"/>
<polygon fill="#9a32cd" stroke="#9a32cd" points="494.97,-362.85 485.04,-366.54 495.1,-369.85 494.97,-362.85"/>
<text text-anchor="middle" x="572.5" y="-368.5" font-family="Helvetica,sans-Serif" font-size="10.00"> m_ReferenceCount</text>
</g>
<!-- Node11 -->
<g id="node11" class="node">
<title>Node11</title>
<g id="a_node11"><a xlink:title="STL class.">
<polygon fill="white" stroke="#bfbfbf" points="673.5,-309 673.5,-328 738.5,-328 738.5,-309 673.5,-309"/>
<text text-anchor="middle" x="706" y="-316" font-family="Helvetica,sans-Serif" font-size="10.00">std::string</text>
</a>
</g>
</g>
<!-- Node11&#45;&gt;Node8 -->
<g id="edge10" class="edge">
<title>Node11&#45;&gt;Node8</title>
<path fill="none" stroke="#9a32cd" stroke-dasharray="5,2" d="M748.68,-315.19C798.33,-311.24 880.24,-304.72 925.64,-301.11"/>
<polygon fill="#9a32cd" stroke="#9a32cd" points="748.29,-311.71 738.6,-315.99 748.84,-318.68 748.29,-311.71"/>
<text text-anchor="middle" x="849.5" y="-313.5" font-family="Helvetica,sans-Serif" font-size="10.00"> m_ObjectName</text>
</g>
<!-- Node12 -->
<g id="node12" class="node">
<title>Node12</title>
<g id="a_node12"><a xlink:title="STL class.">
<polygon fill="white" stroke="#bfbfbf" points="379.5,-308.5 379.5,-338.5 483.5,-338.5 483.5,-308.5 379.5,-308.5"/>
<text text-anchor="start" x="387.5" y="-326.5" font-family="Helvetica,sans-Serif" font-size="10.00">std::basic_string&lt;</text>
<text text-anchor="middle" x="431.5" y="-315.5" font-family="Helvetica,sans-Serif" font-size="10.00"> char &gt;</text>
</a>
</g>
</g>
<!-- Node12&#45;&gt;Node11 -->
<g id="edge11" class="edge">
<title>Node12&#45;&gt;Node11</title>
<path fill="none" stroke="midnightblue" d="M493.85,-322.37C549.49,-321.35 629.3,-319.89 673.14,-319.08"/>
<polygon fill="midnightblue" stroke="midnightblue" points="493.69,-318.88 483.76,-322.56 493.82,-325.88 493.69,-318.88"/>
</g>
<!-- Node13 -->
<g id="node13" class="node">
<title>Node13</title>
<g id="a_node13"><a xlink:href="classitk_1_1MetaDataDictionary.html" target="_top" xlink:title="Provides a mechanism for storing a collection of arbitrary data types.">
<polygon fill="white" stroke="black" points="639,-270 639,-289 773,-289 773,-270 639,-270"/>
<text text-anchor="middle" x="706" y="-277" font-family="Helvetica,sans-Serif" font-size="10.00">itk::MetaDataDictionary</text>
</a>
</g>
</g>
<!-- Node13&#45;&gt;Node8 -->
<g id="edge12" class="edge">
<title>Node13&#45;&gt;Node8</title>
<path fill="none" stroke="#9a32cd" stroke-dasharray="5,2" d="M783.42,-276.22C821.13,-275.82 867.18,-277.15 908,-283.5 915.68,-284.69 923.83,-286.75 931.29,-288.96"/>
<polygon fill="#9a32cd" stroke="#9a32cd" points="782.96,-272.73 773.02,-276.38 783.07,-279.72 782.96,-272.73"/>
<text text-anchor="middle" x="849.5" y="-286.5" font-family="Helvetica,sans-Serif" font-size="10.00"> m_MetaDataDictionary</text>
</g>
<!-- Node14 -->
<g id="node14" class="node">
<title>Node14</title>
<g id="a_node14"><a xlink:title=" ">
<polygon fill="white" stroke="#bfbfbf" points="357,-259.5 357,-289.5 506,-289.5 506,-259.5 357,-259.5"/>
<text text-anchor="start" x="365" y="-277.5" font-family="Helvetica,sans-Serif" font-size="10.00">std::shared_ptr&lt; MetaData</text>
<text text-anchor="middle" x="431.5" y="-266.5" font-family="Helvetica,sans-Serif" font-size="10.00">DictionaryMapType &gt;</text>
</a>
</g>
</g>
<!-- Node14&#45;&gt;Node13 -->
<g id="edge13" class="edge">
<title>Node14&#45;&gt;Node13</title>
<path fill="none" stroke="#9a32cd" stroke-dasharray="5,2" d="M516.34,-276.04C555.65,-276.76 601.82,-277.61 638.65,-278.28"/>
<polygon fill="#9a32cd" stroke="#9a32cd" points="516.3,-272.54 506.24,-275.85 516.18,-279.54 516.3,-272.54"/>
<text text-anchor="middle" x="572.5" y="-280.5" font-family="Helvetica,sans-Serif" font-size="10.00"> m_Dictionary</text>
</g>
<!-- Node15 -->
<g id="node15" class="node">
<title>Node15</title>
<g id="a_node15"><a xlink:title="STL class.">
<polygon fill="white" stroke="#bfbfbf" points="114,-265 114,-284 215,-284 215,-265 114,-265"/>
<text text-anchor="middle" x="164.5" y="-272" font-family="Helvetica,sans-Serif" font-size="10.00">std::map&lt; K, T &gt;</text>
</a>
</g>
</g>
<!-- Node15&#45;&gt;Node14 -->
<g id="edge14" class="edge">
<title>Node15&#45;&gt;Node14</title>
<path fill="none" stroke="#9a32cd" stroke-dasharray="5,2" d="M225.18,-274.5C264.19,-274.5 315.41,-274.5 356.93,-274.5"/>
<polygon fill="#9a32cd" stroke="#9a32cd" points="225.03,-271 215.03,-274.5 225.03,-278 225.03,-271"/>
<text text-anchor="middle" x="286" y="-277.5" font-family="Helvetica,sans-Serif" font-size="10.00"> ptr</text>
</g>
<!-- Node16 -->
<g id="node16" class="node">
<title>Node16</title>
<g id="a_node16"><a xlink:title=" ">
<polygon fill="white" stroke="#bfbfbf" points="0,-289 0,-308 29,-308 29,-289 0,-289"/>
<text text-anchor="middle" x="14.5" y="-296" font-family="Helvetica,sans-Serif" font-size="10.00">K</text>
</a>
</g>
</g>
<!-- Node16&#45;&gt;Node15 -->
<g id="edge15" class="edge">
<title>Node16&#45;&gt;Node15</title>
<path fill="none" stroke="#9a32cd" stroke-dasharray="5,2" d="M39.24,-294.65C59.28,-291.4 88.63,-286.64 113.78,-282.56"/>
<polygon fill="#9a32cd" stroke="#9a32cd" points="38.47,-291.23 29.16,-296.29 39.59,-298.14 38.47,-291.23"/>
<text text-anchor="middle" x="71.5" y="-295.5" font-family="Helvetica,sans-Serif" font-size="10.00"> keys</text>
</g>
<!-- Node17 -->
<g id="node17" class="node">
<title>Node17</title>
<g id="a_node17"><a xlink:title=" ">
<polygon fill="white" stroke="#bfbfbf" points="0,-236 0,-255 29,-255 29,-236 0,-236"/>
<text text-anchor="middle" x="14.5" y="-243" font-family="Helvetica,sans-Serif" font-size="10.00">T</text>
</a>
</g>
</g>
<!-- Node17&#45;&gt;Node15 -->
<g id="edge16" class="edge">
<title>Node17&#45;&gt;Node15</title>
<path fill="none" stroke="#9a32cd" stroke-dasharray="5,2" d="M39.09,-250.12C59.39,-254.1 89.35,-259.97 114.78,-264.95"/>
<polygon fill="#9a32cd" stroke="#9a32cd" points="39.64,-246.66 29.16,-248.18 38.3,-253.53 39.64,-246.66"/>
<text text-anchor="middle" x="71.5" y="-263.5" font-family="Helvetica,sans-Serif" font-size="10.00"> elements</text>
</g>
<!-- Node19 -->
<g id="node19" class="node">
<title>Node19</title>
<g id="a_node19"><a xlink:title="STL class.">
<polygon fill="white" stroke="#bfbfbf" points="114.5,-221 114.5,-240 214.5,-240 214.5,-221 114.5,-221"/>
<text text-anchor="middle" x="164.5" y="-228" font-family="Helvetica,sans-Serif" font-size="10.00">std::atomic&lt; T &gt;</text>
</a>
</g>
</g>
<!-- Node17&#45;&gt;Node19 -->
<g id="edge19" class="edge">
<title>Node17&#45;&gt;Node19</title>
<path fill="none" stroke="#9a32cd" stroke-dasharray="5,2" d="M38.4,-234.04C41.24,-233.01 44.15,-232.12 47,-231.5 68.74,-226.79 93.31,-225.94 114.26,-226.51"/>
<polygon fill="#9a32cd" stroke="#9a32cd" points="37.03,-230.82 29.19,-237.95 39.77,-237.27 37.03,-230.82"/>
<text text-anchor="middle" x="71.5" y="-234.5" font-family="Helvetica,sans-Serif" font-size="10.00"> ptr</text>
</g>
<!-- Node18 -->
<g id="node18" class="node">
<title>Node18</title>
<g id="a_node18"><a xlink:href="classitk_1_1TimeStamp.html" target="_top" xlink:title="Generate a unique, increasing time value.">
<polygon fill="white" stroke="black" points="526.5,-226 526.5,-245 618.5,-245 618.5,-226 526.5,-226"/>
<text text-anchor="middle" x="572.5" y="-233" font-family="Helvetica,sans-Serif" font-size="10.00">itk::TimeStamp</text>
</a>
</g>
</g>
<!-- Node18&#45;&gt;Node8 -->
<g id="edge17" class="edge">
<title>Node18&#45;&gt;Node8</title>
<path fill="none" stroke="#9a32cd" stroke-dasharray="5,2" d="M628.67,-234.18C696.29,-234.2 813.54,-239.54 908,-271.5 920.62,-275.77 933.86,-282.97 943.62,-288.86"/>
<polygon fill="#9a32cd" stroke="#9a32cd" points="628.64,-230.68 618.65,-234.22 628.67,-237.68 628.64,-230.68"/>
<text text-anchor="middle" x="706" y="-244.5" font-family="Helvetica,sans-Serif" font-size="10.00"> m_MTime</text>
</g>
<!-- Node19&#45;&gt;Node18 -->
<g id="edge18" class="edge">
<title>Node19&#45;&gt;Node18</title>
<path fill="none" stroke="#9a32cd" stroke-dasharray="5,2" d="M225.03,-231.23C306.93,-232.24 452.57,-234.04 526.2,-234.94"/>
<polygon fill="#9a32cd" stroke="#9a32cd" points="224.92,-227.73 214.88,-231.11 224.83,-234.73 224.92,-227.73"/>
<text text-anchor="middle" x="286" y="-235.5" font-family="Helvetica,sans-Serif" font-size="10.00"> m_GlobalTimeStamp</text>
</g>
<!-- Node20 -->
<g id="node20" class="node">
<title>Node20</title>
<g id="a_node20"><a xlink:href="classitk_1_1SmartPointer.html" target="_top" xlink:title="Implements transparent reference counting.">
<polygon fill="white" stroke="black" points="1243,-213.5 1243,-243.5 1350,-243.5 1350,-213.5 1243,-213.5"/>
<text text-anchor="start" x="1251" y="-231.5" font-family="Helvetica,sans-Serif" font-size="10.00">itk::SmartPointer&lt;</text>
<text text-anchor="middle" x="1296.5" y="-220.5" font-family="Helvetica,sans-Serif" font-size="10.00"> TObjectType &gt;</text>
</a>
</g>
</g>
<!-- Node20&#45;&gt;Node3 -->
<g id="edge22" class="edge">
<title>Node20&#45;&gt;Node3</title>
<path fill="none" stroke="#9a32cd" stroke-dasharray="5,2" d="M1351.86,-210.38C1422.72,-187.79 1550.98,-150.47 1664,-136.5 1726.63,-128.76 1742.92,-134.45 1806,-136.5 1888.03,-139.17 1981.62,-145.66 2046.68,-150.73"/>
<polygon fill="#9a32cd" stroke="#9a32cd" points="1350.7,-207.07 1342.25,-213.46 1352.84,-213.74 1350.7,-207.07"/>
<text text-anchor="start" x="1664" y="-216.5" font-family="Helvetica,sans-Serif" font-size="10.00"> m_FixedTransformedPoints</text>
<text text-anchor="middle" x="1735" y="-205.5" font-family="Helvetica,sans-Serif" font-size="10.00">Locator</text>
<text text-anchor="start" x="1664" y="-194.5" font-family="Helvetica,sans-Serif" font-size="10.00">m_MovingTransformedPoint</text>
<text text-anchor="middle" x="1735" y="-183.5" font-family="Helvetica,sans-Serif" font-size="10.00">Set</text>
<text text-anchor="start" x="1664" y="-172.5" font-family="Helvetica,sans-Serif" font-size="10.00">m_FixedTransformedPoint</text>
<text text-anchor="middle" x="1735" y="-161.5" font-family="Helvetica,sans-Serif" font-size="10.00">Set</text>
<text text-anchor="start" x="1664" y="-150.5" font-family="Helvetica,sans-Serif" font-size="10.00">m_MovingTransformedPoints</text>
<text text-anchor="middle" x="1735" y="-139.5" font-family="Helvetica,sans-Serif" font-size="10.00">Locator</text>
</g>
<!-- Node20&#45;&gt;Node4 -->
<g id="edge21" class="edge">
<title>Node20&#45;&gt;Node4</title>
<path fill="none" stroke="#9a32cd" stroke-dasharray="5,2" d="M1360.47,-228.5C1470.11,-228.5 1696.49,-228.5 1823.82,-228.5"/>
<polygon fill="#9a32cd" stroke="#9a32cd" points="1360.23,-225 1350.23,-228.5 1360.23,-232 1360.23,-225"/>
<text text-anchor="middle" x="1575.5" y="-242.5" font-family="Helvetica,sans-Serif" font-size="10.00"> m_MovingTransform</text>
<text text-anchor="middle" x="1575.5" y="-231.5" font-family="Helvetica,sans-Serif" font-size="10.00">m_FixedTransform</text>
</g>
<!-- Node20&#45;&gt;Node5 -->
<g id="edge20" class="edge">
<title>Node20&#45;&gt;Node5</title>
<path fill="none" stroke="#9a32cd" stroke-dasharray="5,2" d="M1360.51,-238.69C1397.48,-244.94 1445.03,-253.47 1487,-262.5 1496.8,-264.61 1507.17,-267.04 1517.21,-269.5"/>
<polygon fill="#9a32cd" stroke="#9a32cd" points="1360.82,-235.19 1350.38,-236.99 1359.66,-242.09 1360.82,-235.19"/>
<text text-anchor="middle" x="1444" y="-276.5" font-family="Helvetica,sans-Serif" font-size="10.00"> m_MovingObject</text>
<text text-anchor="middle" x="1444" y="-265.5" font-family="Helvetica,sans-Serif" font-size="10.00">m_FixedObject</text>
</g>
<!-- Node21 -->
<g id="node21" class="node">
<title>Node21</title>
<g id="a_node21"><a xlink:title=" ">
<polygon fill="white" stroke="#bfbfbf" points="2268.5,-99 2268.5,-118 2408.5,-118 2408.5,-99 2268.5,-99"/>
<text text-anchor="middle" x="2338.5" y="-106" font-family="Helvetica,sans-Serif" font-size="10.00">std::vector&lt; LabelType &gt;</text>
</a>
</g>
</g>
<!-- Node21&#45;&gt;Node1 -->
<g id="edge23" class="edge">
<title>Node21&#45;&gt;Node1</title>
<path fill="none" stroke="#9a32cd" stroke-dasharray="5,2" d="M2419.02,-103.69C2471.16,-100.54 2539.95,-96.38 2596.83,-92.95"/>
<polygon fill="#9a32cd" stroke="#9a32cd" points="2418.59,-100.21 2408.82,-104.31 2419.02,-107.2 2418.59,-100.21"/>
<text text-anchor="middle" x="2513" y="-126.5" font-family="Helvetica,sans-Serif" font-size="10.00"> m_FixedPointSetLabels</text>
<text text-anchor="middle" x="2513" y="-115.5" font-family="Helvetica,sans-Serif" font-size="10.00">m_CommonPointSetLabels</text>
<text text-anchor="middle" x="2513" y="-104.5" font-family="Helvetica,sans-Serif" font-size="10.00">m_MovingPointSetLabels</text>
</g>
<!-- Node22 -->
<g id="node22" class="node">
<title>Node22</title>
<g id="a_node22"><a xlink:title=" ">
<polygon fill="white" stroke="#bfbfbf" points="2263,-49.5 2263,-79.5 2414,-79.5 2414,-49.5 2263,-49.5"/>
<text text-anchor="start" x="2271" y="-67.5" font-family="Helvetica,sans-Serif" font-size="10.00">std::vector&lt; PointSetMetric</text>
<text text-anchor="middle" x="2338.5" y="-56.5" font-family="Helvetica,sans-Serif" font-size="10.00">Pointer &gt;</text>
</a>
</g>
</g>
<!-- Node22&#45;&gt;Node1 -->
<g id="edge24" class="edge">
<title>Node22&#45;&gt;Node1</title>
<path fill="none" stroke="#9a32cd" stroke-dasharray="5,2" d="M2424.39,-69.34C2470.19,-71.99 2527.69,-75.35 2579,-78.5 2584.84,-78.86 2590.83,-79.23 2596.87,-79.61"/>
<polygon fill="#9a32cd" stroke="#9a32cd" points="2424.4,-65.84 2414.21,-68.76 2423.99,-72.83 2424.4,-65.84"/>
<text text-anchor="middle" x="2513" y="-81.5" font-family="Helvetica,sans-Serif" font-size="10.00"> m_PointSetMetricClones</text>
</g>
<!-- Node23 -->
<g id="node23" class="node">
<title>Node23</title>
<g id="a_node23"><a xlink:href="classitk_1_1SmartPointer.html" target="_top" xlink:title=" ">
<polygon fill="white" stroke="black" points="2285,-0.5 2285,-30.5 2392,-30.5 2392,-0.5 2285,-0.5"/>
<text text-anchor="start" x="2293" y="-18.5" font-family="Helvetica,sans-Serif" font-size="10.00">itk::SmartPointer&lt;</text>
<text text-anchor="middle" x="2338.5" y="-7.5" font-family="Helvetica,sans-Serif" font-size="10.00"> Self &gt;</text>
</a>
</g>
</g>
<!-- Node23&#45;&gt;Node1 -->
<g id="edge25" class="edge">
<title>Node23&#45;&gt;Node1</title>
<path fill="none" stroke="#9a32cd" stroke-dasharray="5,2" d="M2402.07,-24.57C2450.54,-31.93 2519.27,-43.1 2579,-55.5 2586.42,-57.04 2594.06,-58.72 2601.73,-60.47"/>
<polygon fill="#9a32cd" stroke="#9a32cd" points="2402.46,-21.09 2392.05,-23.06 2401.41,-28.01 2402.46,-21.09"/>
<text text-anchor="middle" x="2513" y="-58.5" font-family="Helvetica,sans-Serif" font-size="10.00"> m_PointSetMetric</text>
</g>
</g>
</svg>
