<?xml version="1.0" encoding="UTF-8" standalone="no"?>
<!DOCTYPE svg PUBLIC "-//W3C//DTD SVG 1.1//EN"
 "http://www.w3.org/Graphics/SVG/1.1/DTD/svg11.dtd">
<!-- Generated by graphviz version 2.43.0 (0)
 -->
<!-- Title: itk::QuadrilateralCell&lt; TCellInterface &gt; Pages: 1 -->
<svg width="272pt" height="95pt"
 viewBox="0.00 0.00 271.50 95.00" xmlns="http://www.w3.org/2000/svg" xmlns:xlink="http://www.w3.org/1999/xlink">
<g id="graph0" class="graph" transform="scale(1 1) rotate(0) translate(4 91)">
<title>itk::QuadrilateralCell&lt; TCellInterface &gt;</title>
<polygon fill="white" stroke="transparent" points="-4,4 -4,-91 267.5,-91 267.5,4 -4,4"/>
<!-- Node1 -->
<g id="node1" class="node">
<title>Node1</title>
<g id="a_node1"><a xlink:title="Represents a quadrilateral for a Mesh.">
<polygon fill="#bfbfbf" stroke="black" points="53,-0.5 53,-30.5 171,-30.5 171,-0.5 53,-0.5"/>
<text text-anchor="start" x="61" y="-18.5" font-family="Helvetica,sans-Serif" font-size="10.00">itk::QuadrilateralCell</text>
<text text-anchor="middle" x="112" y="-7.5" font-family="Helvetica,sans-Serif" font-size="10.00">&lt; TCellInterface &gt;</text>
</a>
</g>
</g>
<!-- Node2 -->
<g id="node2" class="node">
<title>Node2</title>
<g id="a_node2"><a xlink:title=" ">
<polygon fill="white" stroke="#bfbfbf" points="0,-67.5 0,-86.5 84,-86.5 84,-67.5 0,-67.5"/>
<text text-anchor="middle" x="42" y="-74.5" font-family="Helvetica,sans-Serif" font-size="10.00">TCellInterface</text>
</a>
</g>
</g>
<!-- Node2&#45;&gt;Node1 -->
<g id="edge1" class="edge">
<title>Node2&#45;&gt;Node1</title>
<path fill="none" stroke="midnightblue" d="M59.74,-60.92C70.73,-51.58 84.75,-39.66 95.5,-30.52"/>
<polygon fill="midnightblue" stroke="midnightblue" points="57.38,-58.33 52.03,-67.48 61.92,-63.67 57.38,-58.33"/>
</g>
<!-- Node3 -->
<g id="node3" class="node">
<title>Node3</title>
<g id="a_node3"><a xlink:href="classitk_1_1QuadrilateralCellTopology.html" target="_top" xlink:title="Holds data defining the topological connections of the vertices and edges of a QuadrilateralCell.">
<polygon fill="white" stroke="black" points="102.5,-67.5 102.5,-86.5 263.5,-86.5 263.5,-67.5 102.5,-67.5"/>
<text text-anchor="middle" x="183" y="-74.5" font-family="Helvetica,sans-Serif" font-size="10.00">itk::QuadrilateralCellTopology</text>
</a>
</g>
</g>
<!-- Node3&#45;&gt;Node1 -->
<g id="edge2" class="edge">
<title>Node3&#45;&gt;Node1</title>
<path fill="none" stroke="#8b1a1a" d="M165.01,-60.92C153.86,-51.58 139.64,-39.66 128.73,-30.52"/>
<polygon fill="#8b1a1a" stroke="#8b1a1a" points="162.91,-63.73 172.83,-67.48 167.41,-58.37 162.91,-63.73"/>
</g>
</g>
</svg>
