<?xml version="1.0" encoding="UTF-8" standalone="no"?>
<!DOCTYPE svg PUBLIC "-//W3C//DTD SVG 1.1//EN"
 "http://www.w3.org/Graphics/SVG/1.1/DTD/svg11.dtd">
<!-- Generated by graphviz version 2.43.0 (0)
 -->
<!-- Title: itk::RecursiveSeparableImageFilter&lt; TInputImage, TOutputImage &gt; Pages: 1 -->
<svg width="2326pt" height="458pt"
 viewBox="0.00 0.00 2326.00 458.00" xmlns="http://www.w3.org/2000/svg" xmlns:xlink="http://www.w3.org/1999/xlink">
<g id="graph0" class="graph" transform="scale(1 1) rotate(0) translate(4 454)">
<title>itk::RecursiveSeparableImageFilter&lt; TInputImage, TOutputImage &gt;</title>
<polygon fill="white" stroke="transparent" points="-4,4 -4,-454 2322,-454 2322,4 -4,4"/>
<!-- Node1 -->
<g id="node1" class="node">
<title>Node1</title>
<g id="a_node1"><a xlink:title="Base class for recursive convolution with a kernel.">
<polygon fill="#bfbfbf" stroke="black" points="2117,-68.5 2117,-98.5 2318,-98.5 2318,-68.5 2117,-68.5"/>
<text text-anchor="start" x="2125" y="-86.5" font-family="Helvetica,sans-Serif" font-size="10.00">itk::RecursiveSeparableImage</text>
<text text-anchor="middle" x="2217.5" y="-75.5" font-family="Helvetica,sans-Serif" font-size="10.00">Filter&lt; TInputImage, TOutputImage &gt;</text>
</a>
</g>
</g>
<!-- Node2 -->
<g id="node2" class="node">
<title>Node2</title>
<g id="a_node2"><a xlink:href="classitk_1_1InPlaceImageFilter.html" target="_top" xlink:title=" ">
<polygon fill="white" stroke="black" points="1874,-136.5 1874,-166.5 2042,-166.5 2042,-136.5 1874,-136.5"/>
<text text-anchor="start" x="1882" y="-154.5" font-family="Helvetica,sans-Serif" font-size="10.00">itk::InPlaceImageFilter</text>
<text text-anchor="middle" x="1958" y="-143.5" font-family="Helvetica,sans-Serif" font-size="10.00">&lt; TInputImage, TInputImage &gt;</text>
</a>
</g>
</g>
<!-- Node2&#45;&gt;Node1 -->
<g id="edge1" class="edge">
<title>Node2&#45;&gt;Node1</title>
<path fill="none" stroke="midnightblue" d="M2052.6,-146.48C2068.25,-144.41 2084.21,-141.52 2099,-137.5 2131.93,-128.55 2167.18,-111.2 2190.38,-98.57"/>
<polygon fill="midnightblue" stroke="midnightblue" points="2051.87,-143.04 2042.37,-147.73 2052.72,-149.99 2051.87,-143.04"/>
</g>
<!-- Node3 -->
<g id="node3" class="node">
<title>Node3</title>
<g id="a_node3"><a xlink:href="classitk_1_1ImageToImageFilter.html" target="_top" xlink:title=" ">
<polygon fill="white" stroke="black" points="1669,-136.5 1669,-166.5 1837,-166.5 1837,-136.5 1669,-136.5"/>
<text text-anchor="start" x="1677" y="-154.5" font-family="Helvetica,sans-Serif" font-size="10.00">itk::ImageToImageFilter</text>
<text text-anchor="middle" x="1753" y="-143.5" font-family="Helvetica,sans-Serif" font-size="10.00">&lt; TInputImage, TInputImage &gt;</text>
</a>
</g>
</g>
<!-- Node3&#45;&gt;Node2 -->
<g id="edge2" class="edge">
<title>Node3&#45;&gt;Node2</title>
<path fill="none" stroke="midnightblue" d="M1847.19,-151.5C1856.13,-151.5 1865.15,-151.5 1873.98,-151.5"/>
<polygon fill="midnightblue" stroke="midnightblue" points="1847.15,-148 1837.15,-151.5 1847.15,-155 1847.15,-148"/>
</g>
<!-- Node4 -->
<g id="node4" class="node">
<title>Node4</title>
<g id="a_node4"><a xlink:href="classitk_1_1ImageSource.html" target="_top" xlink:title=" ">
<polygon fill="white" stroke="black" points="1473.5,-163.5 1473.5,-193.5 1614.5,-193.5 1614.5,-163.5 1473.5,-163.5"/>
<text text-anchor="start" x="1481.5" y="-181.5" font-family="Helvetica,sans-Serif" font-size="10.00">itk::ImageSource&lt; TInput</text>
<text text-anchor="middle" x="1544" y="-170.5" font-family="Helvetica,sans-Serif" font-size="10.00">Image &gt;</text>
</a>
</g>
</g>
<!-- Node4&#45;&gt;Node3 -->
<g id="edge3" class="edge">
<title>Node4&#45;&gt;Node3</title>
<path fill="none" stroke="midnightblue" d="M1624.84,-168.09C1639.21,-166.21 1654.22,-164.25 1668.69,-162.37"/>
<polygon fill="midnightblue" stroke="midnightblue" points="1623.97,-164.67 1614.5,-169.43 1624.87,-171.61 1623.97,-164.67"/>
</g>
<!-- Node5 -->
<g id="node5" class="node">
<title>Node5</title>
<g id="a_node5"><a xlink:href="classitk_1_1ProcessObject.html" target="_top" xlink:title="The base class for all process objects (source, filters, mappers) in the Insight data processing pipe...">
<polygon fill="white" stroke="black" points="1295.5,-191 1295.5,-210 1399.5,-210 1399.5,-191 1295.5,-191"/>
<text text-anchor="middle" x="1347.5" y="-198" font-family="Helvetica,sans-Serif" font-size="10.00">itk::ProcessObject</text>
</a>
</g>
</g>
<!-- Node5&#45;&gt;Node4 -->
<g id="edge4" class="edge">
<title>Node5&#45;&gt;Node4</title>
<path fill="none" stroke="midnightblue" d="M1409.61,-193.59C1429.81,-191.3 1452.43,-188.74 1473.23,-186.39"/>
<polygon fill="midnightblue" stroke="midnightblue" points="1409.15,-190.12 1399.6,-194.72 1409.93,-197.07 1409.15,-190.12"/>
</g>
<!-- Node6 -->
<g id="node6" class="node">
<title>Node6</title>
<g id="a_node6"><a xlink:href="classitk_1_1Object.html" target="_top" xlink:title="Base class for most ITK classes.">
<polygon fill="white" stroke="black" points="980,-221 980,-240 1047,-240 1047,-221 980,-221"/>
<text text-anchor="middle" x="1013.5" y="-228" font-family="Helvetica,sans-Serif" font-size="10.00">itk::Object</text>
</a>
</g>
</g>
<!-- Node6&#45;&gt;Node5 -->
<g id="edge5" class="edge">
<title>Node6&#45;&gt;Node5</title>
<path fill="none" stroke="midnightblue" d="M1057.3,-226.63C1118.33,-221.12 1230.16,-211.01 1295.43,-205.11"/>
<polygon fill="midnightblue" stroke="midnightblue" points="1056.89,-223.16 1047.24,-227.54 1057.52,-230.13 1056.89,-223.16"/>
</g>
<!-- Node7 -->
<g id="node7" class="node">
<title>Node7</title>
<g id="a_node7"><a xlink:href="classitk_1_1LightObject.html" target="_top" xlink:title="Light weight base class for most itk classes.">
<polygon fill="white" stroke="black" points="659,-175 659,-194 750,-194 750,-175 659,-175"/>
<text text-anchor="middle" x="704.5" y="-182" font-family="Helvetica,sans-Serif" font-size="10.00">itk::LightObject</text>
</a>
</g>
</g>
<!-- Node7&#45;&gt;Node6 -->
<g id="edge6" class="edge">
<title>Node7&#45;&gt;Node6</title>
<path fill="none" stroke="midnightblue" d="M760.4,-192.73C824.13,-202.28 927.17,-217.71 979.59,-225.57"/>
<polygon fill="midnightblue" stroke="midnightblue" points="760.55,-189.21 750.14,-191.19 759.51,-196.13 760.55,-189.21"/>
</g>
<!-- Node8 -->
<g id="node8" class="node">
<title>Node8</title>
<g id="a_node8"><a xlink:title=" ">
<polygon fill="white" stroke="#bfbfbf" points="372,-171 372,-190 479,-190 479,-171 372,-171"/>
<text text-anchor="middle" x="425.5" y="-178" font-family="Helvetica,sans-Serif" font-size="10.00">std::atomic&lt; int &gt;</text>
</a>
</g>
</g>
<!-- Node8&#45;&gt;Node7 -->
<g id="edge7" class="edge">
<title>Node8&#45;&gt;Node7</title>
<path fill="none" stroke="#9a32cd" stroke-dasharray="5,2" d="M489.29,-181.41C540.91,-182.15 612.77,-183.19 658.72,-183.85"/>
<polygon fill="#9a32cd" stroke="#9a32cd" points="489.3,-177.91 479.25,-181.26 489.2,-184.91 489.3,-177.91"/>
<text text-anchor="middle" x="566.5" y="-185.5" font-family="Helvetica,sans-Serif" font-size="10.00"> m_ReferenceCount</text>
</g>
<!-- Node9 -->
<g id="node9" class="node">
<title>Node9</title>
<g id="a_node9"><a xlink:title="STL class.">
<polygon fill="white" stroke="#bfbfbf" points="672,-340 672,-359 737,-359 737,-340 672,-340"/>
<text text-anchor="middle" x="704.5" y="-347" font-family="Helvetica,sans-Serif" font-size="10.00">std::string</text>
</a>
</g>
</g>
<!-- Node9&#45;&gt;Node6 -->
<g id="edge8" class="edge">
<title>Node9&#45;&gt;Node6</title>
<path fill="none" stroke="#9a32cd" stroke-dasharray="5,2" d="M727.23,-334.19C744.58,-322.6 769.89,-307.1 794,-297.5 843.58,-277.75 862.41,-292.56 911,-270.5 919.99,-266.42 920.2,-261.96 929,-257.5 945.04,-249.37 964.03,-243 979.85,-238.49"/>
<polygon fill="#9a32cd" stroke="#9a32cd" points="725.22,-331.32 718.93,-339.84 729.16,-337.1 725.22,-331.32"/>
<text text-anchor="middle" x="852.5" y="-300.5" font-family="Helvetica,sans-Serif" font-size="10.00"> m_ObjectName</text>
</g>
<!-- Node18 -->
<g id="node18" class="node">
<title>Node18</title>
<g id="a_node18"><a xlink:title=" ">
<polygon fill="white" stroke="#bfbfbf" points="932.5,-329.5 932.5,-359.5 1094.5,-359.5 1094.5,-329.5 932.5,-329.5"/>
<text text-anchor="start" x="940.5" y="-347.5" font-family="Helvetica,sans-Serif" font-size="10.00">std::set&lt; DataObjectIdentifier</text>
<text text-anchor="middle" x="1013.5" y="-336.5" font-family="Helvetica,sans-Serif" font-size="10.00">Type &gt;</text>
</a>
</g>
</g>
<!-- Node9&#45;&gt;Node18 -->
<g id="edge19" class="edge">
<title>Node9&#45;&gt;Node18</title>
<path fill="none" stroke="#9a32cd" stroke-dasharray="5,2" d="M747.4,-348.82C794.8,-348.05 873.1,-346.77 932.35,-345.81"/>
<polygon fill="#9a32cd" stroke="#9a32cd" points="747.14,-345.32 737.2,-348.98 747.25,-352.32 747.14,-345.32"/>
<text text-anchor="middle" x="852.5" y="-350.5" font-family="Helvetica,sans-Serif" font-size="10.00"> keys</text>
</g>
<!-- Node19 -->
<g id="node19" class="node">
<title>Node19</title>
<g id="a_node19"><a xlink:title=" ">
<polygon fill="white" stroke="#bfbfbf" points="929,-266.5 929,-296.5 1098,-296.5 1098,-266.5 929,-266.5"/>
<text text-anchor="start" x="937" y="-284.5" font-family="Helvetica,sans-Serif" font-size="10.00">std::map&lt; DataObjectIdentifier</text>
<text text-anchor="middle" x="1013.5" y="-273.5" font-family="Helvetica,sans-Serif" font-size="10.00">Type, bool &gt;</text>
</a>
</g>
</g>
<!-- Node9&#45;&gt;Node19 -->
<g id="edge21" class="edge">
<title>Node9&#45;&gt;Node19</title>
<path fill="none" stroke="#9a32cd" stroke-dasharray="5,2" d="M746.91,-340.87C761.75,-337.83 778.61,-334.45 794,-331.5 845.89,-321.57 859.54,-322.44 911,-310.5 928.32,-306.48 947.08,-301.35 963.71,-296.52"/>
<polygon fill="#9a32cd" stroke="#9a32cd" points="746.09,-337.47 737,-342.91 747.5,-344.32 746.09,-337.47"/>
<text text-anchor="middle" x="852.5" y="-334.5" font-family="Helvetica,sans-Serif" font-size="10.00"> keys</text>
</g>
<!-- Node24 -->
<g id="node24" class="node">
<title>Node24</title>
<g id="a_node24"><a xlink:title=" ">
<polygon fill="white" stroke="#bfbfbf" points="929,-385.5 929,-415.5 1098,-415.5 1098,-385.5 929,-385.5"/>
<text text-anchor="start" x="937" y="-403.5" font-family="Helvetica,sans-Serif" font-size="10.00">std::map&lt; DataObjectIdentifier</text>
<text text-anchor="middle" x="1013.5" y="-392.5" font-family="Helvetica,sans-Serif" font-size="10.00">Type, DataObjectPointer &gt;</text>
</a>
</g>
</g>
<!-- Node9&#45;&gt;Node24 -->
<g id="edge28" class="edge">
<title>Node9&#45;&gt;Node24</title>
<path fill="none" stroke="#9a32cd" stroke-dasharray="5,2" d="M747.2,-356.43C793.65,-364.14 869.92,-376.81 928.8,-386.59"/>
<polygon fill="#9a32cd" stroke="#9a32cd" points="747.64,-352.95 737.2,-354.77 746.49,-359.86 747.64,-352.95"/>
<text text-anchor="middle" x="852.5" y="-385.5" font-family="Helvetica,sans-Serif" font-size="10.00"> keys</text>
</g>
<!-- Node10 -->
<g id="node10" class="node">
<title>Node10</title>
<g id="a_node10"><a xlink:title="STL class.">
<polygon fill="white" stroke="#bfbfbf" points="373.5,-334.5 373.5,-364.5 477.5,-364.5 477.5,-334.5 373.5,-334.5"/>
<text text-anchor="start" x="381.5" y="-352.5" font-family="Helvetica,sans-Serif" font-size="10.00">std::basic_string&lt;</text>
<text text-anchor="middle" x="425.5" y="-341.5" font-family="Helvetica,sans-Serif" font-size="10.00"> char &gt;</text>
</a>
</g>
</g>
<!-- Node10&#45;&gt;Node9 -->
<g id="edge9" class="edge">
<title>Node10&#45;&gt;Node9</title>
<path fill="none" stroke="midnightblue" d="M487.93,-349.5C544.75,-349.5 626.97,-349.5 671.66,-349.5"/>
<polygon fill="midnightblue" stroke="midnightblue" points="487.63,-346 477.63,-349.5 487.63,-353 487.63,-346"/>
</g>
<!-- Node11 -->
<g id="node11" class="node">
<title>Node11</title>
<g id="a_node11"><a xlink:href="classitk_1_1MetaDataDictionary.html" target="_top" xlink:title="Provides a mechanism for storing a collection of arbitrary data types.">
<polygon fill="white" stroke="black" points="637.5,-257 637.5,-276 771.5,-276 771.5,-257 637.5,-257"/>
<text text-anchor="middle" x="704.5" y="-264" font-family="Helvetica,sans-Serif" font-size="10.00">itk::MetaDataDictionary</text>
</a>
</g>
</g>
<!-- Node11&#45;&gt;Node6 -->
<g id="edge10" class="edge">
<title>Node11&#45;&gt;Node6</title>
<path fill="none" stroke="#9a32cd" stroke-dasharray="5,2" d="M781.82,-257.61C820.53,-253.1 868.26,-247.52 911,-242.5 933.91,-239.81 959.73,-236.76 979.59,-234.4"/>
<polygon fill="#9a32cd" stroke="#9a32cd" points="781.2,-254.16 771.67,-258.8 782.01,-261.11 781.2,-254.16"/>
<text text-anchor="middle" x="852.5" y="-258.5" font-family="Helvetica,sans-Serif" font-size="10.00"> m_MetaDataDictionary</text>
</g>
<!-- Node12 -->
<g id="node12" class="node">
<title>Node12</title>
<g id="a_node12"><a xlink:title=" ">
<polygon fill="white" stroke="#bfbfbf" points="351,-256.5 351,-286.5 500,-286.5 500,-256.5 351,-256.5"/>
<text text-anchor="start" x="359" y="-274.5" font-family="Helvetica,sans-Serif" font-size="10.00">std::shared_ptr&lt; MetaData</text>
<text text-anchor="middle" x="425.5" y="-263.5" font-family="Helvetica,sans-Serif" font-size="10.00">DictionaryMapType &gt;</text>
</a>
</g>
</g>
<!-- Node12&#45;&gt;Node11 -->
<g id="edge11" class="edge">
<title>Node12&#45;&gt;Node11</title>
<path fill="none" stroke="#9a32cd" stroke-dasharray="5,2" d="M510.18,-269.99C550.89,-269.25 599.13,-268.38 637.24,-267.7"/>
<polygon fill="#9a32cd" stroke="#9a32cd" points="509.94,-266.49 500,-270.17 510.07,-273.49 509.94,-266.49"/>
<text text-anchor="middle" x="566.5" y="-272.5" font-family="Helvetica,sans-Serif" font-size="10.00"> m_Dictionary</text>
</g>
<!-- Node13 -->
<g id="node13" class="node">
<title>Node13</title>
<g id="a_node13"><a xlink:title="STL class.">
<polygon fill="white" stroke="#bfbfbf" points="114,-262 114,-281 215,-281 215,-262 114,-262"/>
<text text-anchor="middle" x="164.5" y="-269" font-family="Helvetica,sans-Serif" font-size="10.00">std::map&lt; K, T &gt;</text>
</a>
</g>
</g>
<!-- Node13&#45;&gt;Node12 -->
<g id="edge12" class="edge">
<title>Node13&#45;&gt;Node12</title>
<path fill="none" stroke="#9a32cd" stroke-dasharray="5,2" d="M225.34,-271.5C262.61,-271.5 310.86,-271.5 350.52,-271.5"/>
<polygon fill="#9a32cd" stroke="#9a32cd" points="225.13,-268 215.13,-271.5 225.13,-275 225.13,-268"/>
<text text-anchor="middle" x="283" y="-274.5" font-family="Helvetica,sans-Serif" font-size="10.00"> ptr</text>
</g>
<!-- Node14 -->
<g id="node14" class="node">
<title>Node14</title>
<g id="a_node14"><a xlink:title=" ">
<polygon fill="white" stroke="#bfbfbf" points="0,-285 0,-304 29,-304 29,-285 0,-285"/>
<text text-anchor="middle" x="14.5" y="-292" font-family="Helvetica,sans-Serif" font-size="10.00">K</text>
</a>
</g>
</g>
<!-- Node14&#45;&gt;Node13 -->
<g id="edge13" class="edge">
<title>Node14&#45;&gt;Node13</title>
<path fill="none" stroke="#9a32cd" stroke-dasharray="5,2" d="M39.24,-290.81C59.28,-287.7 88.63,-283.13 113.78,-279.23"/>
<polygon fill="#9a32cd" stroke="#9a32cd" points="38.5,-287.38 29.16,-292.38 39.58,-294.3 38.5,-287.38"/>
<text text-anchor="middle" x="71.5" y="-292.5" font-family="Helvetica,sans-Serif" font-size="10.00"> keys</text>
</g>
<!-- Node15 -->
<g id="node15" class="node">
<title>Node15</title>
<g id="a_node15"><a xlink:title=" ">
<polygon fill="white" stroke="#bfbfbf" points="0,-232 0,-251 29,-251 29,-232 0,-232"/>
<text text-anchor="middle" x="14.5" y="-239" font-family="Helvetica,sans-Serif" font-size="10.00">T</text>
</a>
</g>
</g>
<!-- Node15&#45;&gt;Node13 -->
<g id="edge14" class="edge">
<title>Node15&#45;&gt;Node13</title>
<path fill="none" stroke="#9a32cd" stroke-dasharray="5,2" d="M39.01,-246.26C59.76,-250.47 90.63,-256.73 116.44,-261.96"/>
<polygon fill="#9a32cd" stroke="#9a32cd" points="39.65,-242.83 29.16,-244.27 38.26,-249.69 39.65,-242.83"/>
<text text-anchor="middle" x="71.5" y="-259.5" font-family="Helvetica,sans-Serif" font-size="10.00"> elements</text>
</g>
<!-- Node17 -->
<g id="node17" class="node">
<title>Node17</title>
<g id="a_node17"><a xlink:title="STL class.">
<polygon fill="white" stroke="#bfbfbf" points="233,-217 233,-236 333,-236 333,-217 233,-217"/>
<text text-anchor="middle" x="283" y="-224" font-family="Helvetica,sans-Serif" font-size="10.00">std::atomic&lt; T &gt;</text>
</a>
</g>
</g>
<!-- Node15&#45;&gt;Node17 -->
<g id="edge17" class="edge">
<title>Node15&#45;&gt;Node17</title>
<path fill="none" stroke="#9a32cd" stroke-dasharray="5,2" d="M39.03,-234.08C41.7,-233.45 44.39,-232.9 47,-232.5 110.54,-222.77 184.85,-222.74 232.62,-224.16"/>
<polygon fill="#9a32cd" stroke="#9a32cd" points="37.85,-230.77 29.13,-236.79 39.7,-237.53 37.85,-230.77"/>
<text text-anchor="middle" x="71.5" y="-235.5" font-family="Helvetica,sans-Serif" font-size="10.00"> ptr</text>
</g>
<!-- Node16 -->
<g id="node16" class="node">
<title>Node16</title>
<g id="a_node16"><a xlink:href="classitk_1_1TimeStamp.html" target="_top" xlink:title="Generate a unique, increasing time value.">
<polygon fill="white" stroke="black" points="658.5,-217 658.5,-236 750.5,-236 750.5,-217 658.5,-217"/>
<text text-anchor="middle" x="704.5" y="-224" font-family="Helvetica,sans-Serif" font-size="10.00">itk::TimeStamp</text>
</a>
</g>
</g>
<!-- Node16&#45;&gt;Node5 -->
<g id="edge30" class="edge">
<title>Node16&#45;&gt;Node5</title>
<path fill="none" stroke="#9a32cd" stroke-dasharray="5,2" d="M760.9,-218.25C806.04,-211.96 871.47,-203.83 929,-200.5 1060.88,-192.86 1216.58,-196.1 1295.35,-198.6"/>
<polygon fill="#9a32cd" stroke="#9a32cd" points="760.15,-214.82 750.74,-219.68 761.13,-221.75 760.15,-214.82"/>
<text text-anchor="middle" x="1013.5" y="-203.5" font-family="Helvetica,sans-Serif" font-size="10.00"> m_OutputInformationMTime</text>
</g>
<!-- Node16&#45;&gt;Node6 -->
<g id="edge15" class="edge">
<title>Node16&#45;&gt;Node6</title>
<path fill="none" stroke="#9a32cd" stroke-dasharray="5,2" d="M761.09,-227.22C824.93,-228.06 927.56,-229.39 979.75,-230.07"/>
<polygon fill="#9a32cd" stroke="#9a32cd" points="760.84,-223.72 750.8,-227.09 760.75,-230.72 760.84,-223.72"/>
<text text-anchor="middle" x="852.5" y="-231.5" font-family="Helvetica,sans-Serif" font-size="10.00"> m_MTime</text>
</g>
<!-- Node17&#45;&gt;Node16 -->
<g id="edge16" class="edge">
<title>Node17&#45;&gt;Node16</title>
<path fill="none" stroke="#9a32cd" stroke-dasharray="5,2" d="M343.61,-226.5C428.52,-226.5 582.42,-226.5 658.48,-226.5"/>
<polygon fill="#9a32cd" stroke="#9a32cd" points="343.36,-223 333.36,-226.5 343.36,-230 343.36,-223"/>
<text text-anchor="middle" x="425.5" y="-229.5" font-family="Helvetica,sans-Serif" font-size="10.00"> m_GlobalTimeStamp</text>
</g>
<!-- Node18&#45;&gt;Node5 -->
<g id="edge18" class="edge">
<title>Node18&#45;&gt;Node5</title>
<path fill="none" stroke="#9a32cd" stroke-dasharray="5,2" d="M1104.63,-334.78C1152.45,-326.8 1210.89,-312.39 1258,-286.5 1294.05,-266.69 1325.81,-228.22 1339.43,-210.22"/>
<polygon fill="#9a32cd" stroke="#9a32cd" points="1103.92,-331.35 1094.6,-336.39 1105.03,-338.26 1103.92,-331.35"/>
<text text-anchor="middle" x="1187" y="-334.5" font-family="Helvetica,sans-Serif" font-size="10.00"> m_RequiredInputNames</text>
</g>
<!-- Node19&#45;&gt;Node5 -->
<g id="edge20" class="edge">
<title>Node19&#45;&gt;Node5</title>
<path fill="none" stroke="#9a32cd" stroke-dasharray="5,2" d="M1102.3,-264.43C1148.82,-254.87 1206.78,-242.14 1258,-228.5 1278.4,-223.07 1301.1,-215.86 1318.4,-210.12"/>
<polygon fill="#9a32cd" stroke="#9a32cd" points="1101.35,-261.05 1092.25,-266.48 1102.75,-267.91 1101.35,-261.05"/>
<text text-anchor="start" x="1116" y="-274.5" font-family="Helvetica,sans-Serif" font-size="10.00"> m_CachedInputReleaseData</text>
<text text-anchor="middle" x="1187" y="-263.5" font-family="Helvetica,sans-Serif" font-size="10.00">Flags</text>
</g>
<!-- Node20 -->
<g id="node20" class="node">
<title>Node20</title>
<g id="a_node20"><a xlink:title=" ">
<polygon fill="white" stroke="#bfbfbf" points="946.5,-127 946.5,-146 1080.5,-146 1080.5,-127 946.5,-127"/>
<text text-anchor="middle" x="1013.5" y="-134" font-family="Helvetica,sans-Serif" font-size="10.00">std::atomic&lt; uint32_t &gt;</text>
</a>
</g>
</g>
<!-- Node20&#45;&gt;Node5 -->
<g id="edge22" class="edge">
<title>Node20&#45;&gt;Node5</title>
<path fill="none" stroke="#9a32cd" stroke-dasharray="5,2" d="M1090.94,-127.59C1141.41,-125.28 1207.32,-129.38 1258,-157.5 1269.66,-163.97 1264.96,-174.02 1276,-181.5 1281.88,-185.48 1288.56,-188.63 1295.41,-191.12"/>
<polygon fill="#9a32cd" stroke="#9a32cd" points="1090.53,-124.1 1080.73,-128.15 1090.91,-131.09 1090.53,-124.1"/>
<text text-anchor="middle" x="1187" y="-160.5" font-family="Helvetica,sans-Serif" font-size="10.00"> m_Progress</text>
</g>
<!-- Node21 -->
<g id="node21" class="node">
<title>Node21</title>
<g id="a_node21"><a xlink:title=" ">
<polygon fill="white" stroke="#bfbfbf" points="676.5,-127 676.5,-146 732.5,-146 732.5,-127 676.5,-127"/>
<text text-anchor="middle" x="704.5" y="-134" font-family="Helvetica,sans-Serif" font-size="10.00">uint32_t</text>
</a>
</g>
</g>
<!-- Node21&#45;&gt;Node20 -->
<g id="edge23" class="edge">
<title>Node21&#45;&gt;Node20</title>
<path fill="none" stroke="#9a32cd" stroke-dasharray="5,2" d="M742.88,-136.5C793.35,-136.5 884.11,-136.5 946.28,-136.5"/>
<polygon fill="#9a32cd" stroke="#9a32cd" points="742.74,-133 732.74,-136.5 742.74,-140 742.74,-133"/>
<text text-anchor="middle" x="852.5" y="-139.5" font-family="Helvetica,sans-Serif" font-size="10.00"> ptr</text>
</g>
<!-- Node22 -->
<g id="node22" class="node">
<title>Node22</title>
<g id="a_node22"><a xlink:title=" ">
<polygon fill="white" stroke="#bfbfbf" points="929,-77.5 929,-107.5 1098,-107.5 1098,-77.5 929,-77.5"/>
<text text-anchor="start" x="937" y="-95.5" font-family="Helvetica,sans-Serif" font-size="10.00">std::vector&lt; DataObjectPointer</text>
<text text-anchor="middle" x="1013.5" y="-84.5" font-family="Helvetica,sans-Serif" font-size="10.00">Map::iterator &gt;</text>
</a>
</g>
</g>
<!-- Node22&#45;&gt;Node5 -->
<g id="edge24" class="edge">
<title>Node22&#45;&gt;Node5</title>
<path fill="none" stroke="#9a32cd" stroke-dasharray="5,2" d="M1076.37,-75.37C1130.49,-64.43 1208.05,-59.06 1258,-100.5 1286.38,-124.04 1250.51,-154.85 1276,-181.5 1281.34,-187.09 1288.14,-191.09 1295.4,-193.95"/>
<polygon fill="#9a32cd" stroke="#9a32cd" points="1075.6,-71.96 1066.55,-77.47 1077.06,-78.81 1075.6,-71.96"/>
<text text-anchor="middle" x="1187" y="-114.5" font-family="Helvetica,sans-Serif" font-size="10.00"> m_IndexedOutputs</text>
<text text-anchor="middle" x="1187" y="-103.5" font-family="Helvetica,sans-Serif" font-size="10.00">m_IndexedInputs</text>
</g>
<!-- Node23 -->
<g id="node23" class="node">
<title>Node23</title>
<g id="a_node23"><a xlink:title="STL iterator class.">
<polygon fill="white" stroke="#bfbfbf" points="633,-83 633,-102 776,-102 776,-83 633,-83"/>
<text text-anchor="middle" x="704.5" y="-90" font-family="Helvetica,sans-Serif" font-size="10.00">std::map&lt; K, T &gt;::iterator</text>
</a>
</g>
</g>
<!-- Node23&#45;&gt;Node22 -->
<g id="edge25" class="edge">
<title>Node23&#45;&gt;Node22</title>
<path fill="none" stroke="#9a32cd" stroke-dasharray="5,2" d="M786.39,-92.5C830.34,-92.5 884.61,-92.5 928.97,-92.5"/>
<polygon fill="#9a32cd" stroke="#9a32cd" points="786.32,-89 776.32,-92.5 786.32,-96 786.32,-89"/>
<text text-anchor="middle" x="852.5" y="-95.5" font-family="Helvetica,sans-Serif" font-size="10.00"> elements</text>
</g>
<!-- Node24&#45;&gt;Node5 -->
<g id="edge26" class="edge">
<title>Node24&#45;&gt;Node5</title>
<path fill="none" stroke="#9a32cd" stroke-dasharray="5,2" d="M1108.33,-397.05C1156.81,-391.21 1214.72,-377.54 1258,-346.5 1308.1,-310.58 1335.21,-236.65 1343.62,-210.18"/>
<polygon fill="#9a32cd" stroke="#9a32cd" points="1107.69,-393.6 1098.14,-398.18 1108.46,-400.56 1107.69,-393.6"/>
<text text-anchor="middle" x="1187" y="-408.5" font-family="Helvetica,sans-Serif" font-size="10.00"> m_Outputs</text>
<text text-anchor="middle" x="1187" y="-397.5" font-family="Helvetica,sans-Serif" font-size="10.00">m_Inputs</text>
</g>
<!-- Node25 -->
<g id="node25" class="node">
<title>Node25</title>
<g id="a_node25"><a xlink:href="classitk_1_1SmartPointer.html" target="_top" xlink:title=" ">
<polygon fill="white" stroke="black" points="651,-419.5 651,-449.5 758,-449.5 758,-419.5 651,-419.5"/>
<text text-anchor="start" x="659" y="-437.5" font-family="Helvetica,sans-Serif" font-size="10.00">itk::SmartPointer&lt;</text>
<text text-anchor="middle" x="704.5" y="-426.5" font-family="Helvetica,sans-Serif" font-size="10.00"> Self &gt;</text>
</a>
</g>
</g>
<!-- Node25&#45;&gt;Node24 -->
<g id="edge27" class="edge">
<title>Node25&#45;&gt;Node24</title>
<path fill="none" stroke="#9a32cd" stroke-dasharray="5,2" d="M768.36,-427.95C809.05,-423.67 863.17,-417.89 911,-412.5 916.82,-411.84 922.82,-411.16 928.87,-410.46"/>
<polygon fill="#9a32cd" stroke="#9a32cd" points="767.89,-424.48 758.31,-429.01 768.62,-431.44 767.89,-424.48"/>
<text text-anchor="middle" x="852.5" y="-427.5" font-family="Helvetica,sans-Serif" font-size="10.00"> elements</text>
</g>
<!-- Node26 -->
<g id="node26" class="node">
<title>Node26</title>
<g id="a_node26"><a xlink:href="classitk_1_1SmartPointer.html" target="_top" xlink:title=" ">
<polygon fill="white" stroke="black" points="942.5,-28.5 942.5,-58.5 1084.5,-58.5 1084.5,-28.5 942.5,-28.5"/>
<text text-anchor="start" x="950.5" y="-46.5" font-family="Helvetica,sans-Serif" font-size="10.00">itk::SmartPointer&lt;</text>
<text text-anchor="middle" x="1013.5" y="-35.5" font-family="Helvetica,sans-Serif" font-size="10.00"> itk::MultiThreaderBase &gt;</text>
</a>
</g>
</g>
<!-- Node26&#45;&gt;Node5 -->
<g id="edge29" class="edge">
<title>Node26&#45;&gt;Node5</title>
<path fill="none" stroke="#9a32cd" stroke-dasharray="5,2" d="M1074.73,-26.25C1129.52,-14.59 1209.09,-8.32 1258,-52.5 1300.96,-91.3 1237.69,-138.1 1276,-181.5 1281.2,-187.39 1288.02,-191.55 1295.36,-194.46"/>
<polygon fill="#9a32cd" stroke="#9a32cd" points="1073.79,-22.88 1064.8,-28.49 1075.32,-29.71 1073.79,-22.88"/>
<text text-anchor="middle" x="1187" y="-55.5" font-family="Helvetica,sans-Serif" font-size="10.00"> m_MultiThreader</text>
</g>
<!-- Node27 -->
<g id="node27" class="node">
<title>Node27</title>
<g id="a_node27"><a xlink:href="structitk_1_1ImageSourceCommon.html" target="_top" xlink:title="Secondary base class of ImageSource common between templates.">
<polygon fill="white" stroke="black" points="1276,-153 1276,-172 1419,-172 1419,-153 1276,-153"/>
<text text-anchor="middle" x="1347.5" y="-160" font-family="Helvetica,sans-Serif" font-size="10.00">itk::ImageSourceCommon</text>
</a>
</g>
</g>
<!-- Node27&#45;&gt;Node4 -->
<g id="edge31" class="edge">
<title>Node27&#45;&gt;Node4</title>
<path fill="none" stroke="#8b1a1a" d="M1429.28,-169.15C1443.89,-170.35 1459,-171.59 1473.26,-172.76"/>
<polygon fill="#8b1a1a" stroke="#8b1a1a" points="1429.52,-165.65 1419.27,-168.32 1428.95,-172.63 1429.52,-165.65"/>
</g>
<!-- Node28 -->
<g id="node28" class="node">
<title>Node28</title>
<g id="a_node28"><a xlink:href="classitk_1_1ImageToImageFilterCommon.html" target="_top" xlink:title="Secondary base class of ImageToImageFilter common between templates.">
<polygon fill="white" stroke="black" points="1456,-125 1456,-144 1632,-144 1632,-125 1456,-125"/>
<text text-anchor="middle" x="1544" y="-132" font-family="Helvetica,sans-Serif" font-size="10.00">itk::ImageToImageFilterCommon</text>
</a>
</g>
</g>
<!-- Node28&#45;&gt;Node3 -->
<g id="edge32" class="edge">
<title>Node28&#45;&gt;Node3</title>
<path fill="none" stroke="#8b1a1a" d="M1642.21,-142.48C1651.13,-143.22 1660.1,-143.95 1668.88,-144.67"/>
<polygon fill="#8b1a1a" stroke="#8b1a1a" points="1642.44,-138.99 1632.19,-141.66 1641.87,-145.97 1642.44,-138.99"/>
</g>
<!-- Node29 -->
<g id="node29" class="node">
<title>Node29</title>
<g id="a_node29"><a xlink:href="classitk_1_1NumericTraits.html" target="_top" xlink:title=" ">
<polygon fill="white" stroke="black" points="1903,-0.5 1903,-30.5 2013,-30.5 2013,-0.5 1903,-0.5"/>
<text text-anchor="start" x="1911" y="-18.5" font-family="Helvetica,sans-Serif" font-size="10.00">itk::NumericTraits</text>
<text text-anchor="middle" x="1958" y="-7.5" font-family="Helvetica,sans-Serif" font-size="10.00">&lt; InputPixelType &gt;</text>
</a>
</g>
</g>
<!-- Node29&#45;&gt;Node1 -->
<g id="edge33" class="edge">
<title>Node29&#45;&gt;Node1</title>
<path fill="none" stroke="#9a32cd" stroke-dasharray="5,2" d="M2023.22,-6.37C2047.37,-4.95 2074.82,-5.76 2099,-12.5 2137.8,-23.31 2176.58,-50.79 2198.46,-68.22"/>
<polygon fill="#9a32cd" stroke="#9a32cd" points="2022.82,-2.89 2013.1,-7.11 2023.32,-9.88 2022.82,-2.89"/>
<text text-anchor="middle" x="2079.5" y="-125.5" font-family="Helvetica,sans-Serif" font-size="10.00"> m_BN1</text>
<text text-anchor="middle" x="2079.5" y="-114.5" font-family="Helvetica,sans-Serif" font-size="10.00">m_BM1</text>
<text text-anchor="middle" x="2079.5" y="-103.5" font-family="Helvetica,sans-Serif" font-size="10.00">m_BN2</text>
<text text-anchor="middle" x="2079.5" y="-92.5" font-family="Helvetica,sans-Serif" font-size="10.00">m_D1</text>
<text text-anchor="middle" x="2079.5" y="-81.5" font-family="Helvetica,sans-Serif" font-size="10.00">m_BM2</text>
<text text-anchor="middle" x="2079.5" y="-70.5" font-family="Helvetica,sans-Serif" font-size="10.00">m_BN3</text>
<text text-anchor="middle" x="2079.5" y="-59.5" font-family="Helvetica,sans-Serif" font-size="10.00">m_D2</text>
<text text-anchor="middle" x="2079.5" y="-48.5" font-family="Helvetica,sans-Serif" font-size="10.00">m_BM3</text>
<text text-anchor="middle" x="2079.5" y="-37.5" font-family="Helvetica,sans-Serif" font-size="10.00">m_BN4</text>
<text text-anchor="middle" x="2079.5" y="-26.5" font-family="Helvetica,sans-Serif" font-size="10.00">m_D3</text>
<text text-anchor="middle" x="2079.5" y="-15.5" font-family="Helvetica,sans-Serif" font-size="10.00">...</text>
</g>
<!-- Node30 -->
<g id="node30" class="node">
<title>Node30</title>
<g id="a_node30"><a xlink:title=" ">
<polygon fill="white" stroke="#bfbfbf" points="1698,-0.5 1698,-30.5 1808,-30.5 1808,-0.5 1698,-0.5"/>
<text text-anchor="start" x="1706" y="-18.5" font-family="Helvetica,sans-Serif" font-size="10.00">std::numeric_limits</text>
<text text-anchor="middle" x="1753" y="-7.5" font-family="Helvetica,sans-Serif" font-size="10.00">&lt; InputPixelType &gt;</text>
</a>
</g>
</g>
<!-- Node30&#45;&gt;Node29 -->
<g id="edge34" class="edge">
<title>Node30&#45;&gt;Node29</title>
<path fill="none" stroke="midnightblue" d="M1818.31,-15.5C1845.45,-15.5 1876.7,-15.5 1902.66,-15.5"/>
<polygon fill="midnightblue" stroke="midnightblue" points="1818.13,-12 1808.13,-15.5 1818.13,-19 1818.13,-12"/>
</g>
</g>
</svg>
