<?xml version="1.0" encoding="UTF-8" standalone="no"?>
<!DOCTYPE svg PUBLIC "-//W3C//DTD SVG 1.1//EN"
 "http://www.w3.org/Graphics/SVG/1.1/DTD/svg11.dtd">
<!-- Generated by graphviz version 2.43.0 (0)
 -->
<!-- Title: itk::CenteredVersorTransformInitializer&lt; TFixedImage, TMovingImage &gt; Pages: 1 -->
<svg width="623pt" height="50pt"
 viewBox="0.00 0.00 623.00 50.00" xmlns="http://www.w3.org/2000/svg" xmlns:xlink="http://www.w3.org/1999/xlink">
<g id="graph0" class="graph" transform="scale(1 1) rotate(0) translate(4 46)">
<title>itk::CenteredVersorTransformInitializer&lt; TFixedImage, TMovingImage &gt;</title>
<polygon fill="white" stroke="transparent" points="-4,4 -4,-46 619,-46 619,4 -4,4"/>
<!-- Node1 -->
<g id="node1" class="node">
<title>Node1</title>
<g id="a_node1"><a xlink:title="CenteredVersorTransformInitializer is a helper class intended to initialize the center of rotation,...">
<polygon fill="#bfbfbf" stroke="black" points="456,-0.5 456,-41.5 615,-41.5 615,-0.5 456,-0.5"/>
<text text-anchor="start" x="464" y="-29.5" font-family="Helvetica,sans-Serif" font-size="10.00">itk::CenteredVersorTransform</text>
<text text-anchor="start" x="464" y="-18.5" font-family="Helvetica,sans-Serif" font-size="10.00">Initializer&lt; TFixedImage,</text>
<text text-anchor="middle" x="535.5" y="-7.5" font-family="Helvetica,sans-Serif" font-size="10.00"> TMovingImage &gt;</text>
</a>
</g>
</g>
<!-- Node2 -->
<g id="node2" class="node">
<title>Node2</title>
<g id="a_node2"><a xlink:href="classitk_1_1CenteredTransformInitializer.html" target="_top" xlink:title=" ">
<polygon fill="white" stroke="black" points="230,-0.5 230,-41.5 420,-41.5 420,-0.5 230,-0.5"/>
<text text-anchor="start" x="238" y="-29.5" font-family="Helvetica,sans-Serif" font-size="10.00">itk::CenteredTransformInitializer</text>
<text text-anchor="start" x="238" y="-18.5" font-family="Helvetica,sans-Serif" font-size="10.00">&lt; VersorRigid3DTransform&lt; double</text>
<text text-anchor="middle" x="325" y="-7.5" font-family="Helvetica,sans-Serif" font-size="10.00"> &gt;, TFixedImage, TMovingImage &gt;</text>
</a>
</g>
</g>
<!-- Node2&#45;&gt;Node1 -->
<g id="edge1" class="edge">
<title>Node2&#45;&gt;Node1</title>
<path fill="none" stroke="midnightblue" d="M430.23,-21C438.8,-21 447.37,-21 455.7,-21"/>
<polygon fill="midnightblue" stroke="midnightblue" points="430.19,-17.5 420.19,-21 430.19,-24.5 430.19,-17.5"/>
</g>
<!-- Node3 -->
<g id="node3" class="node">
<title>Node3</title>
<g id="a_node3"><a xlink:href="classitk_1_1Object.html" target="_top" xlink:title="Base class for most ITK classes.">
<polygon fill="white" stroke="black" points="127,-11.5 127,-30.5 194,-30.5 194,-11.5 127,-11.5"/>
<text text-anchor="middle" x="160.5" y="-18.5" font-family="Helvetica,sans-Serif" font-size="10.00">itk::Object</text>
</a>
</g>
</g>
<!-- Node3&#45;&gt;Node2 -->
<g id="edge2" class="edge">
<title>Node3&#45;&gt;Node2</title>
<path fill="none" stroke="midnightblue" d="M204.49,-21C212.49,-21 221.12,-21 229.97,-21"/>
<polygon fill="midnightblue" stroke="midnightblue" points="204.38,-17.5 194.38,-21 204.38,-24.5 204.38,-17.5"/>
</g>
<!-- Node4 -->
<g id="node4" class="node">
<title>Node4</title>
<g id="a_node4"><a xlink:href="classitk_1_1LightObject.html" target="_top" xlink:title="Light weight base class for most itk classes.">
<polygon fill="white" stroke="black" points="0,-11.5 0,-30.5 91,-30.5 91,-11.5 0,-11.5"/>
<text text-anchor="middle" x="45.5" y="-18.5" font-family="Helvetica,sans-Serif" font-size="10.00">itk::LightObject</text>
</a>
</g>
</g>
<!-- Node4&#45;&gt;Node3 -->
<g id="edge3" class="edge">
<title>Node4&#45;&gt;Node3</title>
<path fill="none" stroke="midnightblue" d="M101.28,-21C109.96,-21 118.69,-21 126.66,-21"/>
<polygon fill="midnightblue" stroke="midnightblue" points="101.16,-17.5 91.16,-21 101.16,-24.5 101.16,-17.5"/>
</g>
</g>
</svg>
