<?xml version="1.0" encoding="UTF-8" standalone="no"?>
<!DOCTYPE svg PUBLIC "-//W3C//DTD SVG 1.1//EN"
 "http://www.w3.org/Graphics/SVG/1.1/DTD/svg11.dtd">
<!-- Generated by graphviz version 2.43.0 (0)
 -->
<!-- Title: itk::ParticleSwarmOptimizerBase Pages: 1 -->
<svg width="2217pt" height="463pt"
 viewBox="0.00 0.00 2217.00 462.50" xmlns="http://www.w3.org/2000/svg" xmlns:xlink="http://www.w3.org/1999/xlink">
<g id="graph0" class="graph" transform="scale(1 1) rotate(0) translate(4 458.5)">
<title>itk::ParticleSwarmOptimizerBase</title>
<polygon fill="white" stroke="transparent" points="-4,4 -4,-458.5 2213,-458.5 2213,4 -4,4"/>
<!-- Node1 -->
<g id="node1" class="node">
<title>Node1</title>
<g id="a_node1"><a xlink:title="Abstract implementation of a Particle Swarm Optimization (PSO) algorithm.">
<polygon fill="#bfbfbf" stroke="black" points="2032,-131 2032,-150 2209,-150 2209,-131 2032,-131"/>
<text text-anchor="middle" x="2120.5" y="-138" font-family="Helvetica,sans-Serif" font-size="10.00">itk::ParticleSwarmOptimizerBase</text>
</a>
</g>
</g>
<!-- Node2 -->
<g id="node2" class="node">
<title>Node2</title>
<g id="a_node2"><a xlink:href="classitk_1_1SingleValuedNonLinearOptimizer.html" target="_top" xlink:title="This class is a base for the Optimization methods that optimize a single valued function.">
<polygon fill="white" stroke="black" points="1673.5,-224.5 1673.5,-254.5 1821.5,-254.5 1821.5,-224.5 1673.5,-224.5"/>
<text text-anchor="start" x="1681.5" y="-242.5" font-family="Helvetica,sans-Serif" font-size="10.00">itk::SingleValuedNonLinear</text>
<text text-anchor="middle" x="1747.5" y="-231.5" font-family="Helvetica,sans-Serif" font-size="10.00">Optimizer</text>
</a>
</g>
</g>
<!-- Node2&#45;&gt;Node1 -->
<g id="edge1" class="edge">
<title>Node2&#45;&gt;Node1</title>
<path fill="none" stroke="midnightblue" d="M1831.86,-235.2C1885.13,-230.53 1955.03,-220.8 2014,-200.5 2049.66,-188.23 2087.03,-163.78 2106.29,-150.19"/>
<polygon fill="midnightblue" stroke="midnightblue" points="1831.45,-231.72 1821.77,-236.04 1832.03,-238.7 1831.45,-231.72"/>
</g>
<!-- Node3 -->
<g id="node3" class="node">
<title>Node3</title>
<g id="a_node3"><a xlink:href="classitk_1_1NonLinearOptimizer.html" target="_top" xlink:title="Wrap of the vnl_nonlinear_minimizer to be adapted.">
<polygon fill="white" stroke="black" points="1387,-256 1387,-275 1520,-275 1520,-256 1387,-256"/>
<text text-anchor="middle" x="1453.5" y="-263" font-family="Helvetica,sans-Serif" font-size="10.00">itk::NonLinearOptimizer</text>
</a>
</g>
</g>
<!-- Node3&#45;&gt;Node2 -->
<g id="edge2" class="edge">
<title>Node3&#45;&gt;Node2</title>
<path fill="none" stroke="midnightblue" d="M1530.14,-258.77C1574.31,-254.83 1629.78,-249.89 1673.49,-246"/>
<polygon fill="midnightblue" stroke="midnightblue" points="1529.68,-255.29 1520.03,-259.67 1530.3,-262.26 1529.68,-255.29"/>
</g>
<!-- Node4 -->
<g id="node4" class="node">
<title>Node4</title>
<g id="a_node4"><a xlink:href="classitk_1_1Optimizer.html" target="_top" xlink:title="Generic representation for an optimization method.">
<polygon fill="white" stroke="black" points="1244,-256 1244,-275 1327,-275 1327,-256 1244,-256"/>
<text text-anchor="middle" x="1285.5" y="-263" font-family="Helvetica,sans-Serif" font-size="10.00">itk::Optimizer</text>
</a>
</g>
</g>
<!-- Node4&#45;&gt;Node3 -->
<g id="edge3" class="edge">
<title>Node4&#45;&gt;Node3</title>
<path fill="none" stroke="midnightblue" d="M1337.55,-265.5C1353.09,-265.5 1370.4,-265.5 1386.77,-265.5"/>
<polygon fill="midnightblue" stroke="midnightblue" points="1337.11,-262 1327.11,-265.5 1337.11,-269 1337.11,-262"/>
</g>
<!-- Node5 -->
<g id="node5" class="node">
<title>Node5</title>
<g id="a_node5"><a xlink:href="classitk_1_1Object.html" target="_top" xlink:title="Base class for most ITK classes.">
<polygon fill="white" stroke="black" points="998,-344 998,-363 1065,-363 1065,-344 998,-344"/>
<text text-anchor="middle" x="1031.5" y="-351" font-family="Helvetica,sans-Serif" font-size="10.00">itk::Object</text>
</a>
</g>
</g>
<!-- Node5&#45;&gt;Node4 -->
<g id="edge4" class="edge">
<title>Node5&#45;&gt;Node4</title>
<path fill="none" stroke="midnightblue" d="M1070.45,-340.69C1107.02,-328.28 1163.89,-308.86 1213,-291.5 1228.07,-286.17 1244.87,-280.07 1258.39,-275.12"/>
<polygon fill="midnightblue" stroke="midnightblue" points="1069.04,-337.47 1060.69,-343.99 1071.29,-344.1 1069.04,-337.47"/>
</g>
<!-- Node6 -->
<g id="node6" class="node">
<title>Node6</title>
<g id="a_node6"><a xlink:href="classitk_1_1LightObject.html" target="_top" xlink:title="Light weight base class for most itk classes.">
<polygon fill="white" stroke="black" points="678.5,-431 678.5,-450 769.5,-450 769.5,-431 678.5,-431"/>
<text text-anchor="middle" x="724" y="-438" font-family="Helvetica,sans-Serif" font-size="10.00">itk::LightObject</text>
</a>
</g>
</g>
<!-- Node6&#45;&gt;Node5 -->
<g id="edge5" class="edge">
<title>Node6&#45;&gt;Node5</title>
<path fill="none" stroke="midnightblue" d="M779.75,-434.48C824.76,-428.48 889.72,-417.37 944,-398.5 970.38,-389.33 998.69,-373.29 1015.48,-363.04"/>
<polygon fill="midnightblue" stroke="midnightblue" points="779.08,-431.04 769.61,-435.79 779.98,-437.98 779.08,-431.04"/>
</g>
<!-- Node7 -->
<g id="node7" class="node">
<title>Node7</title>
<g id="a_node7"><a xlink:title=" ">
<polygon fill="white" stroke="#bfbfbf" points="378,-435 378,-454 485,-454 485,-435 378,-435"/>
<text text-anchor="middle" x="431.5" y="-442" font-family="Helvetica,sans-Serif" font-size="10.00">std::atomic&lt; int &gt;</text>
</a>
</g>
</g>
<!-- Node7&#45;&gt;Node6 -->
<g id="edge6" class="edge">
<title>Node7&#45;&gt;Node6</title>
<path fill="none" stroke="#9a32cd" stroke-dasharray="5,2" d="M495.13,-443.64C550.33,-442.88 629.39,-441.79 678.4,-441.11"/>
<polygon fill="#9a32cd" stroke="#9a32cd" points="495.06,-440.14 485.11,-443.78 495.15,-447.14 495.06,-440.14"/>
<text text-anchor="middle" x="572.5" y="-445.5" font-family="Helvetica,sans-Serif" font-size="10.00"> m_ReferenceCount</text>
</g>
<!-- Node8 -->
<g id="node8" class="node">
<title>Node8</title>
<g id="a_node8"><a xlink:title="STL class.">
<polygon fill="white" stroke="#bfbfbf" points="691.5,-388 691.5,-407 756.5,-407 756.5,-388 691.5,-388"/>
<text text-anchor="middle" x="724" y="-395" font-family="Helvetica,sans-Serif" font-size="10.00">std::string</text>
</a>
</g>
</g>
<!-- Node8&#45;&gt;Node5 -->
<g id="edge7" class="edge">
<title>Node8&#45;&gt;Node5</title>
<path fill="none" stroke="#9a32cd" stroke-dasharray="5,2" d="M766.67,-392.49C810.78,-387.06 882.4,-377.92 944,-368.5 961.78,-365.78 981.55,-362.38 997.69,-359.51"/>
<polygon fill="#9a32cd" stroke="#9a32cd" points="766.11,-389.03 756.61,-393.72 766.96,-395.98 766.11,-389.03"/>
<text text-anchor="middle" x="885.5" y="-386.5" font-family="Helvetica,sans-Serif" font-size="10.00"> m_ObjectName</text>
</g>
<!-- Node9 -->
<g id="node9" class="node">
<title>Node9</title>
<g id="a_node9"><a xlink:title="STL class.">
<polygon fill="white" stroke="#bfbfbf" points="379.5,-385.5 379.5,-415.5 483.5,-415.5 483.5,-385.5 379.5,-385.5"/>
<text text-anchor="start" x="387.5" y="-403.5" font-family="Helvetica,sans-Serif" font-size="10.00">std::basic_string&lt;</text>
<text text-anchor="middle" x="431.5" y="-392.5" font-family="Helvetica,sans-Serif" font-size="10.00"> char &gt;</text>
</a>
</g>
</g>
<!-- Node9&#45;&gt;Node8 -->
<g id="edge8" class="edge">
<title>Node9&#45;&gt;Node8</title>
<path fill="none" stroke="midnightblue" d="M493.92,-399.87C554.22,-399.24 643.81,-398.32 691.1,-397.83"/>
<polygon fill="midnightblue" stroke="midnightblue" points="493.73,-396.37 483.77,-399.97 493.8,-403.37 493.73,-396.37"/>
</g>
<!-- Node10 -->
<g id="node10" class="node">
<title>Node10</title>
<g id="a_node10"><a xlink:href="classitk_1_1MetaDataDictionary.html" target="_top" xlink:title="Provides a mechanism for storing a collection of arbitrary data types.">
<polygon fill="white" stroke="black" points="657,-344 657,-363 791,-363 791,-344 657,-344"/>
<text text-anchor="middle" x="724" y="-351" font-family="Helvetica,sans-Serif" font-size="10.00">itk::MetaDataDictionary</text>
</a>
</g>
</g>
<!-- Node10&#45;&gt;Node5 -->
<g id="edge9" class="edge">
<title>Node10&#45;&gt;Node5</title>
<path fill="none" stroke="#9a32cd" stroke-dasharray="5,2" d="M801.61,-353.5C864.74,-353.5 951.2,-353.5 997.7,-353.5"/>
<polygon fill="#9a32cd" stroke="#9a32cd" points="801.29,-350 791.29,-353.5 801.29,-357 801.29,-350"/>
<text text-anchor="middle" x="885.5" y="-356.5" font-family="Helvetica,sans-Serif" font-size="10.00"> m_MetaDataDictionary</text>
</g>
<!-- Node11 -->
<g id="node11" class="node">
<title>Node11</title>
<g id="a_node11"><a xlink:title=" ">
<polygon fill="white" stroke="#bfbfbf" points="357,-336.5 357,-366.5 506,-366.5 506,-336.5 357,-336.5"/>
<text text-anchor="start" x="365" y="-354.5" font-family="Helvetica,sans-Serif" font-size="10.00">std::shared_ptr&lt; MetaData</text>
<text text-anchor="middle" x="431.5" y="-343.5" font-family="Helvetica,sans-Serif" font-size="10.00">DictionaryMapType &gt;</text>
</a>
</g>
</g>
<!-- Node11&#45;&gt;Node10 -->
<g id="edge10" class="edge">
<title>Node11&#45;&gt;Node10</title>
<path fill="none" stroke="#9a32cd" stroke-dasharray="5,2" d="M516.43,-352.08C561.08,-352.39 615.2,-352.76 656.84,-353.04"/>
<polygon fill="#9a32cd" stroke="#9a32cd" points="516.2,-348.58 506.18,-352.01 516.16,-355.58 516.2,-348.58"/>
<text text-anchor="middle" x="572.5" y="-355.5" font-family="Helvetica,sans-Serif" font-size="10.00"> m_Dictionary</text>
</g>
<!-- Node12 -->
<g id="node12" class="node">
<title>Node12</title>
<g id="a_node12"><a xlink:title="STL class.">
<polygon fill="white" stroke="#bfbfbf" points="114,-342 114,-361 215,-361 215,-342 114,-342"/>
<text text-anchor="middle" x="164.5" y="-349" font-family="Helvetica,sans-Serif" font-size="10.00">std::map&lt; K, T &gt;</text>
</a>
</g>
</g>
<!-- Node12&#45;&gt;Node11 -->
<g id="edge11" class="edge">
<title>Node12&#45;&gt;Node11</title>
<path fill="none" stroke="#9a32cd" stroke-dasharray="5,2" d="M225.18,-351.5C264.19,-351.5 315.41,-351.5 356.93,-351.5"/>
<polygon fill="#9a32cd" stroke="#9a32cd" points="225.03,-348 215.03,-351.5 225.03,-355 225.03,-348"/>
<text text-anchor="middle" x="286" y="-354.5" font-family="Helvetica,sans-Serif" font-size="10.00"> ptr</text>
</g>
<!-- Node13 -->
<g id="node13" class="node">
<title>Node13</title>
<g id="a_node13"><a xlink:title=" ">
<polygon fill="white" stroke="#bfbfbf" points="0,-366 0,-385 29,-385 29,-366 0,-366"/>
<text text-anchor="middle" x="14.5" y="-373" font-family="Helvetica,sans-Serif" font-size="10.00">K</text>
</a>
</g>
</g>
<!-- Node13&#45;&gt;Node12 -->
<g id="edge12" class="edge">
<title>Node13&#45;&gt;Node12</title>
<path fill="none" stroke="#9a32cd" stroke-dasharray="5,2" d="M39.24,-371.65C59.28,-368.4 88.63,-363.64 113.78,-359.56"/>
<polygon fill="#9a32cd" stroke="#9a32cd" points="38.47,-368.23 29.16,-373.29 39.59,-375.14 38.47,-368.23"/>
<text text-anchor="middle" x="71.5" y="-372.5" font-family="Helvetica,sans-Serif" font-size="10.00"> keys</text>
</g>
<!-- Node14 -->
<g id="node14" class="node">
<title>Node14</title>
<g id="a_node14"><a xlink:title=" ">
<polygon fill="white" stroke="#bfbfbf" points="0,-313 0,-332 29,-332 29,-313 0,-313"/>
<text text-anchor="middle" x="14.5" y="-320" font-family="Helvetica,sans-Serif" font-size="10.00">T</text>
</a>
</g>
</g>
<!-- Node14&#45;&gt;Node12 -->
<g id="edge13" class="edge">
<title>Node14&#45;&gt;Node12</title>
<path fill="none" stroke="#9a32cd" stroke-dasharray="5,2" d="M39.09,-327.12C59.39,-331.1 89.35,-336.97 114.78,-341.95"/>
<polygon fill="#9a32cd" stroke="#9a32cd" points="39.64,-323.66 29.16,-325.18 38.3,-330.53 39.64,-323.66"/>
<text text-anchor="middle" x="71.5" y="-340.5" font-family="Helvetica,sans-Serif" font-size="10.00"> elements</text>
</g>
<!-- Node16 -->
<g id="node16" class="node">
<title>Node16</title>
<g id="a_node16"><a xlink:title="STL class.">
<polygon fill="white" stroke="#bfbfbf" points="114.5,-298 114.5,-317 214.5,-317 214.5,-298 114.5,-298"/>
<text text-anchor="middle" x="164.5" y="-305" font-family="Helvetica,sans-Serif" font-size="10.00">std::atomic&lt; T &gt;</text>
</a>
</g>
</g>
<!-- Node14&#45;&gt;Node16 -->
<g id="edge16" class="edge">
<title>Node14&#45;&gt;Node16</title>
<path fill="none" stroke="#9a32cd" stroke-dasharray="5,2" d="M38.4,-311.04C41.24,-310.01 44.15,-309.12 47,-308.5 68.74,-303.79 93.31,-302.94 114.26,-303.51"/>
<polygon fill="#9a32cd" stroke="#9a32cd" points="37.03,-307.82 29.19,-314.95 39.77,-314.27 37.03,-307.82"/>
<text text-anchor="middle" x="71.5" y="-311.5" font-family="Helvetica,sans-Serif" font-size="10.00"> ptr</text>
</g>
<!-- Node15 -->
<g id="node15" class="node">
<title>Node15</title>
<g id="a_node15"><a xlink:href="classitk_1_1TimeStamp.html" target="_top" xlink:title="Generate a unique, increasing time value.">
<polygon fill="white" stroke="black" points="526.5,-301 526.5,-320 618.5,-320 618.5,-301 526.5,-301"/>
<text text-anchor="middle" x="572.5" y="-308" font-family="Helvetica,sans-Serif" font-size="10.00">itk::TimeStamp</text>
</a>
</g>
</g>
<!-- Node15&#45;&gt;Node5 -->
<g id="edge14" class="edge">
<title>Node15&#45;&gt;Node5</title>
<path fill="none" stroke="#9a32cd" stroke-dasharray="5,2" d="M628.86,-312.31C676.64,-314.18 747.48,-317.64 809,-323.5 876.41,-329.92 954.84,-341.52 997.94,-348.26"/>
<polygon fill="#9a32cd" stroke="#9a32cd" points="628.85,-308.81 618.73,-311.93 628.59,-315.81 628.85,-308.81"/>
<text text-anchor="middle" x="724" y="-326.5" font-family="Helvetica,sans-Serif" font-size="10.00"> m_MTime</text>
</g>
<!-- Node16&#45;&gt;Node15 -->
<g id="edge15" class="edge">
<title>Node16&#45;&gt;Node15</title>
<path fill="none" stroke="#9a32cd" stroke-dasharray="5,2" d="M225.03,-307.94C306.93,-308.55 452.57,-309.62 526.2,-310.17"/>
<polygon fill="#9a32cd" stroke="#9a32cd" points="224.9,-304.44 214.88,-307.86 224.85,-311.44 224.9,-304.44"/>
<text text-anchor="middle" x="286" y="-311.5" font-family="Helvetica,sans-Serif" font-size="10.00"> m_GlobalTimeStamp</text>
</g>
<!-- Node17 -->
<g id="node17" class="node">
<title>Node17</title>
<g id="a_node17"><a xlink:href="classitk_1_1Array.html" target="_top" xlink:title=" ">
<polygon fill="white" stroke="black" points="665.5,-206 665.5,-225 782.5,-225 782.5,-206 665.5,-206"/>
<text text-anchor="middle" x="724" y="-213" font-family="Helvetica,sans-Serif" font-size="10.00">itk::Array&lt; double &gt;</text>
</a>
</g>
</g>
<!-- Node17&#45;&gt;Node4 -->
<g id="edge17" class="edge">
<title>Node17&#45;&gt;Node4</title>
<path fill="none" stroke="#9a32cd" stroke-dasharray="5,2" d="M792.94,-211.45C868.5,-208.06 994.02,-205.72 1101,-219.5 1156.54,-226.66 1219.49,-244.68 1255.35,-255.93"/>
<polygon fill="#9a32cd" stroke="#9a32cd" points="792.45,-207.97 782.62,-211.94 792.77,-214.97 792.45,-207.97"/>
<text text-anchor="middle" x="1031.5" y="-233.5" font-family="Helvetica,sans-Serif" font-size="10.00"> m_InverseScales</text>
<text text-anchor="middle" x="1031.5" y="-222.5" font-family="Helvetica,sans-Serif" font-size="10.00">m_Scales</text>
</g>
<!-- Node19 -->
<g id="node19" class="node">
<title>Node19</title>
<g id="a_node19"><a xlink:href="classitk_1_1OptimizerParameters.html" target="_top" xlink:title=" ">
<polygon fill="white" stroke="black" points="962,-250.5 962,-280.5 1101,-280.5 1101,-250.5 962,-250.5"/>
<text text-anchor="start" x="970" y="-268.5" font-family="Helvetica,sans-Serif" font-size="10.00">itk::OptimizerParameters</text>
<text text-anchor="middle" x="1031.5" y="-257.5" font-family="Helvetica,sans-Serif" font-size="10.00">&lt; double &gt;</text>
</a>
</g>
</g>
<!-- Node17&#45;&gt;Node19 -->
<g id="edge20" class="edge">
<title>Node17&#45;&gt;Node19</title>
<path fill="none" stroke="midnightblue" d="M792.95,-226.62C843.26,-234.85 911.52,-246.03 961.97,-254.28"/>
<polygon fill="midnightblue" stroke="midnightblue" points="793.26,-223.12 782.82,-224.96 792.12,-230.03 793.26,-223.12"/>
</g>
<!-- Node18 -->
<g id="node18" class="node">
<title>Node18</title>
<g id="a_node18"><a xlink:title=" ">
<polygon fill="white" stroke="#bfbfbf" points="370,-206 370,-225 493,-225 493,-206 370,-206"/>
<text text-anchor="middle" x="431.5" y="-213" font-family="Helvetica,sans-Serif" font-size="10.00">vnl_vector&lt; double &gt;</text>
</a>
</g>
</g>
<!-- Node18&#45;&gt;Node17 -->
<g id="edge18" class="edge">
<title>Node18&#45;&gt;Node17</title>
<path fill="none" stroke="midnightblue" d="M503.07,-215.5C552.73,-215.5 618.4,-215.5 665.01,-215.5"/>
<polygon fill="midnightblue" stroke="midnightblue" points="503.04,-212 493.04,-215.5 503.04,-219 503.04,-212"/>
</g>
<!-- Node19&#45;&gt;Node4 -->
<g id="edge19" class="edge">
<title>Node19&#45;&gt;Node4</title>
<path fill="none" stroke="#9a32cd" stroke-dasharray="5,2" d="M1111.14,-265.5C1155.16,-265.5 1208.21,-265.5 1243.94,-265.5"/>
<polygon fill="#9a32cd" stroke="#9a32cd" points="1111.03,-262 1101.03,-265.5 1111.03,-269 1111.03,-262"/>
<text text-anchor="middle" x="1166" y="-279.5" font-family="Helvetica,sans-Serif" font-size="10.00"> m_CurrentPosition</text>
<text text-anchor="middle" x="1166" y="-268.5" font-family="Helvetica,sans-Serif" font-size="10.00">m_InitialPosition</text>
</g>
<!-- Node20 -->
<g id="node20" class="node">
<title>Node20</title>
<g id="a_node20"><a xlink:title=" ">
<polygon fill="white" stroke="#bfbfbf" points="639,-247.5 639,-277.5 809,-277.5 809,-247.5 639,-247.5"/>
<text text-anchor="start" x="647" y="-265.5" font-family="Helvetica,sans-Serif" font-size="10.00">std::unique_ptr&lt; itk</text>
<text text-anchor="middle" x="724" y="-254.5" font-family="Helvetica,sans-Serif" font-size="10.00">::OptimizerParametersHelper &gt;</text>
</a>
</g>
</g>
<!-- Node20&#45;&gt;Node19 -->
<g id="edge21" class="edge">
<title>Node20&#45;&gt;Node19</title>
<path fill="none" stroke="#9a32cd" stroke-dasharray="5,2" d="M819.29,-263.43C865.39,-263.88 919.84,-264.41 961.92,-264.83"/>
<polygon fill="#9a32cd" stroke="#9a32cd" points="819.32,-259.93 809.29,-263.33 819.25,-266.93 819.32,-259.93"/>
<text text-anchor="middle" x="885.5" y="-267.5" font-family="Helvetica,sans-Serif" font-size="10.00"> m_Helper</text>
</g>
<!-- Node21 -->
<g id="node21" class="node">
<title>Node21</title>
<g id="a_node21"><a xlink:href="classitk_1_1OptimizerParametersHelper.html" target="_top" xlink:title="Basic helper class to manage parameter data as an Array type, the default type.">
<polygon fill="white" stroke="black" points="362,-247.5 362,-277.5 501,-277.5 501,-247.5 362,-247.5"/>
<text text-anchor="start" x="370" y="-265.5" font-family="Helvetica,sans-Serif" font-size="10.00">itk::OptimizerParameters</text>
<text text-anchor="middle" x="431.5" y="-254.5" font-family="Helvetica,sans-Serif" font-size="10.00">Helper&lt; TValue &gt;</text>
</a>
</g>
</g>
<!-- Node21&#45;&gt;Node20 -->
<g id="edge22" class="edge">
<title>Node21&#45;&gt;Node20</title>
<path fill="none" stroke="#9a32cd" stroke-dasharray="5,2" d="M511.45,-262.5C550.91,-262.5 598.68,-262.5 638.84,-262.5"/>
<polygon fill="#9a32cd" stroke="#9a32cd" points="511.34,-259 501.34,-262.5 511.34,-266 511.34,-259"/>
<text text-anchor="middle" x="572.5" y="-265.5" font-family="Helvetica,sans-Serif" font-size="10.00"> ptr</text>
</g>
<!-- Node22 -->
<g id="node22" class="node">
<title>Node22</title>
<g id="a_node22"><a xlink:href="classitk_1_1SmartPointer.html" target="_top" xlink:title=" ">
<polygon fill="white" stroke="black" points="1400,-206.5 1400,-236.5 1507,-236.5 1507,-206.5 1400,-206.5"/>
<text text-anchor="start" x="1408" y="-224.5" font-family="Helvetica,sans-Serif" font-size="10.00">itk::SmartPointer&lt;</text>
<text text-anchor="middle" x="1453.5" y="-213.5" font-family="Helvetica,sans-Serif" font-size="10.00"> Self &gt;</text>
</a>
</g>
</g>
<!-- Node22&#45;&gt;Node2 -->
<g id="edge23" class="edge">
<title>Node22&#45;&gt;Node2</title>
<path fill="none" stroke="#9a32cd" stroke-dasharray="5,2" d="M1517.22,-224.9C1550.7,-226.75 1592.6,-229.15 1630,-231.5 1644.06,-232.38 1659.08,-233.38 1673.49,-234.36"/>
<polygon fill="#9a32cd" stroke="#9a32cd" points="1517.29,-221.4 1507.11,-224.34 1516.91,-228.38 1517.29,-221.4"/>
<text text-anchor="middle" x="1589" y="-234.5" font-family="Helvetica,sans-Serif" font-size="10.00"> m_CostFunction</text>
</g>
<!-- Node23 -->
<g id="node23" class="node">
<title>Node23</title>
<g id="a_node23"><a xlink:title=" ">
<polygon fill="white" stroke="#bfbfbf" points="1719.5,-186 1719.5,-205 1775.5,-205 1775.5,-186 1719.5,-186"/>
<text text-anchor="middle" x="1747.5" y="-193" font-family="Helvetica,sans-Serif" font-size="10.00">uint32_t</text>
</a>
</g>
</g>
<!-- Node23&#45;&gt;Node1 -->
<g id="edge24" class="edge">
<title>Node23&#45;&gt;Node1</title>
<path fill="none" stroke="#9a32cd" stroke-dasharray="5,2" d="M1785.82,-192.99C1837.4,-189.18 1933.27,-180.79 2014,-166.5 2038.15,-162.23 2064.98,-155.59 2085.54,-150.09"/>
<polygon fill="#9a32cd" stroke="#9a32cd" points="1785.53,-189.51 1775.81,-193.72 1786.03,-196.49 1785.53,-189.51"/>
<text text-anchor="middle" x="1939.5" y="-188.5" font-family="Helvetica,sans-Serif" font-size="10.00"> m_Seed</text>
</g>
<!-- Node24 -->
<g id="node24" class="node">
<title>Node24</title>
<g id="a_node24"><a xlink:title=" ">
<polygon fill="white" stroke="#bfbfbf" points="1670,-148 1670,-167 1825,-167 1825,-148 1670,-148"/>
<text text-anchor="middle" x="1747.5" y="-155" font-family="Helvetica,sans-Serif" font-size="10.00">std::vector&lt; MeasureType &gt;</text>
</a>
</g>
</g>
<!-- Node24&#45;&gt;Node1 -->
<g id="edge25" class="edge">
<title>Node24&#45;&gt;Node1</title>
<path fill="none" stroke="#9a32cd" stroke-dasharray="5,2" d="M1835.45,-153.52C1894.64,-150.8 1972.69,-147.23 2031.99,-144.51"/>
<polygon fill="#9a32cd" stroke="#9a32cd" points="1835.2,-150.02 1825.37,-153.98 1835.52,-157.02 1835.2,-150.02"/>
<text text-anchor="middle" x="1939.5" y="-154.5" font-family="Helvetica,sans-Serif" font-size="10.00"> m_FunctionBestValueMemory</text>
</g>
<!-- Node25 -->
<g id="node25" class="node">
<title>Node25</title>
<g id="a_node25"><a xlink:title="STL class.">
<polygon fill="white" stroke="#bfbfbf" points="1694.5,-110 1694.5,-129 1800.5,-129 1800.5,-110 1694.5,-110"/>
<text text-anchor="middle" x="1747.5" y="-117" font-family="Helvetica,sans-Serif" font-size="10.00">std::ostringstream</text>
</a>
</g>
</g>
<!-- Node25&#45;&gt;Node1 -->
<g id="edge26" class="edge">
<title>Node25&#45;&gt;Node1</title>
<path fill="none" stroke="#9a32cd" stroke-dasharray="5,2" d="M1811.01,-121.15C1864.85,-122.8 1944.6,-125.78 2014,-130.5 2019.78,-130.89 2025.74,-131.34 2031.74,-131.82"/>
<polygon fill="#9a32cd" stroke="#9a32cd" points="1811.04,-117.65 1800.94,-120.85 1810.83,-124.65 1811.04,-117.65"/>
<text text-anchor="middle" x="1939.5" y="-133.5" font-family="Helvetica,sans-Serif" font-size="10.00"> m_StopConditionDescription</text>
</g>
<!-- Node26 -->
<g id="node26" class="node">
<title>Node26</title>
<g id="a_node26"><a xlink:title="STL class.">
<polygon fill="white" stroke="#bfbfbf" points="1385,-104.5 1385,-134.5 1522,-134.5 1522,-104.5 1385,-104.5"/>
<text text-anchor="start" x="1393" y="-122.5" font-family="Helvetica,sans-Serif" font-size="10.00">std::basic_ostringstream</text>
<text text-anchor="middle" x="1453.5" y="-111.5" font-family="Helvetica,sans-Serif" font-size="10.00">&lt; char &gt;</text>
</a>
</g>
</g>
<!-- Node26&#45;&gt;Node25 -->
<g id="edge27" class="edge">
<title>Node26&#45;&gt;Node25</title>
<path fill="none" stroke="midnightblue" d="M1532.26,-119.5C1583.47,-119.5 1649.12,-119.5 1694.17,-119.5"/>
<polygon fill="midnightblue" stroke="midnightblue" points="1532.22,-116 1522.22,-119.5 1532.22,-123 1532.22,-116"/>
</g>
<!-- Node27 -->
<g id="node27" class="node">
<title>Node27</title>
<g id="a_node27"><a xlink:title="STL class.">
<polygon fill="white" stroke="#bfbfbf" points="1231,-104.5 1231,-134.5 1340,-134.5 1340,-104.5 1231,-104.5"/>
<text text-anchor="start" x="1239" y="-122.5" font-family="Helvetica,sans-Serif" font-size="10.00">std::basic_ostream</text>
<text text-anchor="middle" x="1285.5" y="-111.5" font-family="Helvetica,sans-Serif" font-size="10.00">&lt; Char &gt;</text>
</a>
</g>
</g>
<!-- Node27&#45;&gt;Node26 -->
<g id="edge28" class="edge">
<title>Node27&#45;&gt;Node26</title>
<path fill="none" stroke="midnightblue" d="M1350.57,-119.5C1361.83,-119.5 1373.57,-119.5 1384.92,-119.5"/>
<polygon fill="midnightblue" stroke="midnightblue" points="1350.4,-116 1340.4,-119.5 1350.4,-123 1350.4,-116"/>
</g>
<!-- Node28 -->
<g id="node28" class="node">
<title>Node28</title>
<g id="a_node28"><a xlink:title="STL class.">
<polygon fill="white" stroke="#bfbfbf" points="967.5,-110 967.5,-129 1095.5,-129 1095.5,-110 967.5,-110"/>
<text text-anchor="middle" x="1031.5" y="-117" font-family="Helvetica,sans-Serif" font-size="10.00">std::basic_ios&lt; Char &gt;</text>
</a>
</g>
</g>
<!-- Node28&#45;&gt;Node27 -->
<g id="edge29" class="edge">
<title>Node28&#45;&gt;Node27</title>
<path fill="none" stroke="midnightblue" d="M1105.97,-119.5C1145.84,-119.5 1194.25,-119.5 1230.6,-119.5"/>
<polygon fill="midnightblue" stroke="midnightblue" points="1105.77,-116 1095.76,-119.5 1105.76,-123 1105.77,-116"/>
</g>
<!-- Node29 -->
<g id="node29" class="node">
<title>Node29</title>
<g id="a_node29"><a xlink:title="STL class.">
<polygon fill="white" stroke="#bfbfbf" points="684,-110 684,-129 764,-129 764,-110 684,-110"/>
<text text-anchor="middle" x="724" y="-117" font-family="Helvetica,sans-Serif" font-size="10.00">std::ios_base</text>
</a>
</g>
</g>
<!-- Node29&#45;&gt;Node28 -->
<g id="edge30" class="edge">
<title>Node29&#45;&gt;Node28</title>
<path fill="none" stroke="midnightblue" d="M774.07,-119.5C826.55,-119.5 909.96,-119.5 967.32,-119.5"/>
<polygon fill="midnightblue" stroke="midnightblue" points="774,-116 764,-119.5 774,-123 774,-116"/>
</g>
<!-- Node30 -->
<g id="node30" class="node">
<title>Node30</title>
<g id="a_node30"><a xlink:title=" ">
<polygon fill="white" stroke="#bfbfbf" points="1659.5,-50 1659.5,-91 1835.5,-91 1835.5,-50 1659.5,-50"/>
<text text-anchor="start" x="1667.5" y="-79" font-family="Helvetica,sans-Serif" font-size="10.00">std::vector&lt; std::pair</text>
<text text-anchor="start" x="1667.5" y="-68" font-family="Helvetica,sans-Serif" font-size="10.00">&lt; ParametersType::ValueType,</text>
<text text-anchor="middle" x="1747.5" y="-57" font-family="Helvetica,sans-Serif" font-size="10.00"> ParametersType::ValueType &gt; &gt;</text>
</a>
</g>
</g>
<!-- Node30&#45;&gt;Node1 -->
<g id="edge31" class="edge">
<title>Node30&#45;&gt;Node1</title>
<path fill="none" stroke="#9a32cd" stroke-dasharray="5,2" d="M1845.49,-80.13C1896.08,-86.13 1958.76,-95.1 2014,-107.5 2041.34,-113.64 2071.81,-123.51 2092.95,-130.86"/>
<polygon fill="#9a32cd" stroke="#9a32cd" points="1845.88,-76.65 1835.54,-78.97 1845.07,-83.61 1845.88,-76.65"/>
<text text-anchor="middle" x="1939.5" y="-110.5" font-family="Helvetica,sans-Serif" font-size="10.00"> m_ParameterBounds</text>
</g>
<!-- Node31 -->
<g id="node31" class="node">
<title>Node31</title>
<g id="a_node31"><a xlink:title=" ">
<polygon fill="white" stroke="#bfbfbf" points="1648,-0.5 1648,-30.5 1847,-30.5 1847,-0.5 1648,-0.5"/>
<text text-anchor="start" x="1656" y="-18.5" font-family="Helvetica,sans-Serif" font-size="10.00">std::vector&lt; itk::Particle</text>
<text text-anchor="middle" x="1747.5" y="-7.5" font-family="Helvetica,sans-Serif" font-size="10.00">SwarmOptimizerBase::ParticleData &gt;</text>
</a>
</g>
</g>
<!-- Node31&#45;&gt;Node1 -->
<g id="edge32" class="edge">
<title>Node31&#45;&gt;Node1</title>
<path fill="none" stroke="#9a32cd" stroke-dasharray="5,2" d="M1857.23,-26.5C1906.48,-34.06 1964.61,-46.66 2014,-67.5 2052.37,-83.69 2090.98,-115.18 2109,-130.98"/>
<polygon fill="#9a32cd" stroke="#9a32cd" points="1857.59,-23.02 1847.18,-25.01 1856.56,-29.94 1857.59,-23.02"/>
<text text-anchor="middle" x="1939.5" y="-70.5" font-family="Helvetica,sans-Serif" font-size="10.00"> m_Particles</text>
</g>
<!-- Node32 -->
<g id="node32" class="node">
<title>Node32</title>
<g id="a_node32"><a xlink:href="structitk_1_1ParticleSwarmOptimizerBase_1_1ParticleData.html" target="_top" xlink:title=" ">
<polygon fill="white" stroke="black" points="1377,-0.5 1377,-30.5 1530,-30.5 1530,-0.5 1377,-0.5"/>
<text text-anchor="start" x="1385" y="-18.5" font-family="Helvetica,sans-Serif" font-size="10.00">itk::ParticleSwarmOptimizer</text>
<text text-anchor="middle" x="1453.5" y="-7.5" font-family="Helvetica,sans-Serif" font-size="10.00">Base::ParticleData</text>
</a>
</g>
</g>
<!-- Node32&#45;&gt;Node31 -->
<g id="edge33" class="edge">
<title>Node32&#45;&gt;Node31</title>
<path fill="none" stroke="#9a32cd" stroke-dasharray="5,2" d="M1540.36,-15.5C1574.08,-15.5 1612.97,-15.5 1647.83,-15.5"/>
<polygon fill="#9a32cd" stroke="#9a32cd" points="1540.08,-12 1530.08,-15.5 1540.08,-19 1540.08,-12"/>
<text text-anchor="middle" x="1589" y="-18.5" font-family="Helvetica,sans-Serif" font-size="10.00"> elements</text>
</g>
</g>
</svg>
