<?xml version="1.0" encoding="UTF-8" standalone="no"?>
<!DOCTYPE svg PUBLIC "-//W3C//DTD SVG 1.1//EN"
 "http://www.w3.org/Graphics/SVG/1.1/DTD/svg11.dtd">
<!-- Generated by graphviz version 2.43.0 (0)
 -->
<!-- Title: itk::SurfaceSpatialObject&lt; TDimension &gt; Pages: 1 -->
<svg width="214pt" height="341pt"
 viewBox="0.00 0.00 214.00 341.00" xmlns="http://www.w3.org/2000/svg" xmlns:xlink="http://www.w3.org/1999/xlink">
<g id="graph0" class="graph" transform="scale(1 1) rotate(0) translate(4 337)">
<title>itk::SurfaceSpatialObject&lt; TDimension &gt;</title>
<polygon fill="white" stroke="transparent" points="-4,4 -4,-337 210,-337 210,4 -4,4"/>
<!-- Node1 -->
<g id="node1" class="node">
<title>Node1</title>
<g id="a_node1"><a xlink:title="Representation of a Surface based on the spatial object classes.">
<polygon fill="#bfbfbf" stroke="black" points="34.5,-0.5 34.5,-30.5 171.5,-30.5 171.5,-0.5 34.5,-0.5"/>
<text text-anchor="start" x="42.5" y="-18.5" font-family="Helvetica,sans-Serif" font-size="10.00">itk::SurfaceSpatialObject</text>
<text text-anchor="middle" x="103" y="-7.5" font-family="Helvetica,sans-Serif" font-size="10.00">&lt; TDimension &gt;</text>
</a>
</g>
</g>
<!-- Node2 -->
<g id="node2" class="node">
<title>Node2</title>
<g id="a_node2"><a xlink:href="classitk_1_1PointBasedSpatialObject.html" target="_top" xlink:title=" ">
<polygon fill="white" stroke="black" points="0,-67.5 0,-97.5 206,-97.5 206,-67.5 0,-67.5"/>
<text text-anchor="start" x="8" y="-85.5" font-family="Helvetica,sans-Serif" font-size="10.00">itk::PointBasedSpatialObject</text>
<text text-anchor="middle" x="103" y="-74.5" font-family="Helvetica,sans-Serif" font-size="10.00">&lt; 3, SurfaceSpatialObjectPoint&lt; 3 &gt; &gt;</text>
</a>
</g>
</g>
<!-- Node2&#45;&gt;Node1 -->
<g id="edge1" class="edge">
<title>Node2&#45;&gt;Node1</title>
<path fill="none" stroke="midnightblue" d="M103,-57.11C103,-48.15 103,-38.32 103,-30.58"/>
<polygon fill="midnightblue" stroke="midnightblue" points="99.5,-57.4 103,-67.4 106.5,-57.4 99.5,-57.4"/>
</g>
<!-- Node3 -->
<g id="node3" class="node">
<title>Node3</title>
<g id="a_node3"><a xlink:href="classitk_1_1SpatialObject.html" target="_top" xlink:title=" ">
<polygon fill="white" stroke="black" points="52.5,-134.5 52.5,-164.5 153.5,-164.5 153.5,-134.5 52.5,-134.5"/>
<text text-anchor="start" x="60.5" y="-152.5" font-family="Helvetica,sans-Serif" font-size="10.00">itk::SpatialObject</text>
<text text-anchor="middle" x="103" y="-141.5" font-family="Helvetica,sans-Serif" font-size="10.00">&lt; TDimension &gt;</text>
</a>
</g>
</g>
<!-- Node3&#45;&gt;Node2 -->
<g id="edge2" class="edge">
<title>Node3&#45;&gt;Node2</title>
<path fill="none" stroke="midnightblue" d="M103,-124.11C103,-115.15 103,-105.32 103,-97.58"/>
<polygon fill="midnightblue" stroke="midnightblue" points="99.5,-124.4 103,-134.4 106.5,-124.4 99.5,-124.4"/>
</g>
<!-- Node4 -->
<g id="node4" class="node">
<title>Node4</title>
<g id="a_node4"><a xlink:href="classitk_1_1DataObject.html" target="_top" xlink:title="Base class for all data objects in ITK.">
<polygon fill="white" stroke="black" points="58,-201.5 58,-220.5 148,-220.5 148,-201.5 58,-201.5"/>
<text text-anchor="middle" x="103" y="-208.5" font-family="Helvetica,sans-Serif" font-size="10.00">itk::DataObject</text>
</a>
</g>
</g>
<!-- Node4&#45;&gt;Node3 -->
<g id="edge3" class="edge">
<title>Node4&#45;&gt;Node3</title>
<path fill="none" stroke="midnightblue" d="M103,-191.23C103,-182.59 103,-172.5 103,-164.52"/>
<polygon fill="midnightblue" stroke="midnightblue" points="99.5,-191.48 103,-201.48 106.5,-191.48 99.5,-191.48"/>
</g>
<!-- Node5 -->
<g id="node5" class="node">
<title>Node5</title>
<g id="a_node5"><a xlink:href="classitk_1_1Object.html" target="_top" xlink:title="Base class for most ITK classes.">
<polygon fill="white" stroke="black" points="69.5,-257.5 69.5,-276.5 136.5,-276.5 136.5,-257.5 69.5,-257.5"/>
<text text-anchor="middle" x="103" y="-264.5" font-family="Helvetica,sans-Serif" font-size="10.00">itk::Object</text>
</a>
</g>
</g>
<!-- Node5&#45;&gt;Node4 -->
<g id="edge4" class="edge">
<title>Node5&#45;&gt;Node4</title>
<path fill="none" stroke="midnightblue" d="M103,-246.8C103,-237.91 103,-227.78 103,-220.75"/>
<polygon fill="midnightblue" stroke="midnightblue" points="99.5,-247.08 103,-257.08 106.5,-247.08 99.5,-247.08"/>
</g>
<!-- Node6 -->
<g id="node6" class="node">
<title>Node6</title>
<g id="a_node6"><a xlink:href="classitk_1_1LightObject.html" target="_top" xlink:title="Light weight base class for most itk classes.">
<polygon fill="white" stroke="black" points="57.5,-313.5 57.5,-332.5 148.5,-332.5 148.5,-313.5 57.5,-313.5"/>
<text text-anchor="middle" x="103" y="-320.5" font-family="Helvetica,sans-Serif" font-size="10.00">itk::LightObject</text>
</a>
</g>
</g>
<!-- Node6&#45;&gt;Node5 -->
<g id="edge5" class="edge">
<title>Node6&#45;&gt;Node5</title>
<path fill="none" stroke="midnightblue" d="M103,-302.8C103,-293.91 103,-283.78 103,-276.75"/>
<polygon fill="midnightblue" stroke="midnightblue" points="99.5,-303.08 103,-313.08 106.5,-303.08 99.5,-303.08"/>
</g>
</g>
</svg>
