<?xml version="1.0" encoding="UTF-8" standalone="no"?>
<!DOCTYPE svg PUBLIC "-//W3C//DTD SVG 1.1//EN"
 "http://www.w3.org/Graphics/SVG/1.1/DTD/svg11.dtd">
<!-- Generated by graphviz version 2.43.0 (0)
 -->
<!-- Title: itk::NormalBandNode&lt; TImageType &gt; Pages: 1 -->
<svg width="220pt" height="296pt"
 viewBox="0.00 0.00 219.50 296.00" xmlns="http://www.w3.org/2000/svg" xmlns:xlink="http://www.w3.org/1999/xlink">
<g id="graph0" class="graph" transform="scale(1 1) rotate(0) translate(4 292)">
<title>itk::NormalBandNode&lt; TImageType &gt;</title>
<polygon fill="white" stroke="transparent" points="-4,4 -4,-292 215.5,-292 215.5,4 -4,4"/>
<!-- Node1 -->
<g id="node1" class="node">
<title>Node1</title>
<g id="a_node1"><a xlink:title="This is a data storage class that can is used as the node type for the SparseImage class.">
<polygon fill="#bfbfbf" stroke="black" points="28.5,-0.5 28.5,-30.5 150.5,-30.5 150.5,-0.5 28.5,-0.5"/>
<text text-anchor="start" x="36.5" y="-18.5" font-family="Helvetica,sans-Serif" font-size="10.00">itk::NormalBandNode</text>
<text text-anchor="middle" x="89.5" y="-7.5" font-family="Helvetica,sans-Serif" font-size="10.00">&lt; TImageType &gt;</text>
</a>
</g>
</g>
<!-- Node1&#45;&gt;Node1 -->
<g id="edge4" class="edge">
<title>Node1&#45;&gt;Node1</title>
<path fill="none" stroke="#9a32cd" stroke-dasharray="5,2" d="M160.63,-23.65C165.52,-21.78 168.5,-19.07 168.5,-15.5 168.5,-9.93 161.25,-6.43 150.78,-5"/>
<polygon fill="#9a32cd" stroke="#9a32cd" points="159.7,-20.28 150.78,-26 161.32,-27.09 159.7,-20.28"/>
<text text-anchor="middle" x="190" y="-18.5" font-family="Helvetica,sans-Serif" font-size="10.00"> Next</text>
<text text-anchor="middle" x="190" y="-7.5" font-family="Helvetica,sans-Serif" font-size="10.00">Previous</text>
</g>
<!-- Node2 -->
<g id="node2" class="node">
<title>Node2</title>
<g id="a_node2"><a xlink:href="classitk_1_1Vector.html" target="_top" xlink:title=" ">
<polygon fill="white" stroke="black" points="0,-122.5 0,-152.5 179,-152.5 179,-122.5 0,-122.5"/>
<text text-anchor="start" x="8" y="-140.5" font-family="Helvetica,sans-Serif" font-size="10.00">itk::Vector&lt; NodeValueType,</text>
<text text-anchor="middle" x="89.5" y="-129.5" font-family="Helvetica,sans-Serif" font-size="10.00"> TImageType::ImageDimension &gt;</text>
</a>
</g>
</g>
<!-- Node2&#45;&gt;Node1 -->
<g id="edge1" class="edge">
<title>Node2&#45;&gt;Node1</title>
<path fill="none" stroke="#9a32cd" stroke-dasharray="5,2" d="M89.5,-111.99C89.5,-87.51 89.5,-50.74 89.5,-30.72"/>
<polygon fill="#9a32cd" stroke="#9a32cd" points="86,-112.26 89.5,-122.26 93,-112.26 86,-112.26"/>
<text text-anchor="middle" x="136.5" y="-96" font-family="Helvetica,sans-Serif" font-size="10.00"> m_InputData</text>
<text text-anchor="middle" x="136.5" y="-85" font-family="Helvetica,sans-Serif" font-size="10.00">m_Flux</text>
<text text-anchor="middle" x="136.5" y="-74" font-family="Helvetica,sans-Serif" font-size="10.00">m_ManifoldNormal</text>
<text text-anchor="middle" x="136.5" y="-63" font-family="Helvetica,sans-Serif" font-size="10.00">m_Data</text>
<text text-anchor="middle" x="136.5" y="-52" font-family="Helvetica,sans-Serif" font-size="10.00">m_Update</text>
</g>
<!-- Node3 -->
<g id="node3" class="node">
<title>Node3</title>
<g id="a_node3"><a xlink:href="classitk_1_1FixedArray.html" target="_top" xlink:title=" ">
<polygon fill="white" stroke="black" points="14,-190.5 14,-220.5 165,-220.5 165,-190.5 14,-190.5"/>
<text text-anchor="start" x="22" y="-208.5" font-family="Helvetica,sans-Serif" font-size="10.00">itk::FixedArray&lt; NodeValue</text>
<text text-anchor="middle" x="89.5" y="-197.5" font-family="Helvetica,sans-Serif" font-size="10.00">Type, VVectorDimension &gt;</text>
</a>
</g>
</g>
<!-- Node3&#45;&gt;Node2 -->
<g id="edge2" class="edge">
<title>Node3&#45;&gt;Node2</title>
<path fill="none" stroke="midnightblue" d="M89.5,-180.03C89.5,-170.86 89.5,-160.74 89.5,-152.79"/>
<polygon fill="midnightblue" stroke="midnightblue" points="86,-180.18 89.5,-190.18 93,-180.18 86,-180.18"/>
</g>
<!-- Node4 -->
<g id="node4" class="node">
<title>Node4</title>
<g id="a_node4"><a xlink:title=" ">
<polygon fill="white" stroke="#bfbfbf" points="61.5,-268.5 61.5,-287.5 117.5,-287.5 117.5,-268.5 61.5,-268.5"/>
<text text-anchor="middle" x="89.5" y="-275.5" font-family="Helvetica,sans-Serif" font-size="10.00">VLength</text>
</a>
</g>
</g>
<!-- Node4&#45;&gt;Node3 -->
<g id="edge3" class="edge">
<title>Node4&#45;&gt;Node3</title>
<path fill="none" stroke="#9a32cd" stroke-dasharray="5,2" d="M89.5,-258.24C89.5,-246.41 89.5,-231.38 89.5,-220.58"/>
<polygon fill="#9a32cd" stroke="#9a32cd" points="86,-258.36 89.5,-268.36 93,-258.36 86,-258.36"/>
<text text-anchor="middle" x="130.5" y="-242" font-family="Helvetica,sans-Serif" font-size="10.00"> m_InternalArray</text>
</g>
</g>
</svg>
