<?xml version="1.0" encoding="UTF-8" standalone="no"?>
<!DOCTYPE svg PUBLIC "-//W3C//DTD SVG 1.1//EN"
 "http://www.w3.org/Graphics/SVG/1.1/DTD/svg11.dtd">
<!-- Generated by graphviz version 2.43.0 (0)
 -->
<!-- Title: itk::Rigid3DPerspectiveTransform&lt; TParametersValueType &gt; Pages: 1 -->
<svg width="187pt" height="285pt"
 viewBox="0.00 0.00 187.00 285.00" xmlns="http://www.w3.org/2000/svg" xmlns:xlink="http://www.w3.org/1999/xlink">
<g id="graph0" class="graph" transform="scale(1 1) rotate(0) translate(4 281)">
<title>itk::Rigid3DPerspectiveTransform&lt; TParametersValueType &gt;</title>
<polygon fill="white" stroke="transparent" points="-4,4 -4,-281 183,-281 183,4 -4,4"/>
<!-- Node1 -->
<g id="node1" class="node">
<title>Node1</title>
<g id="a_node1"><a xlink:title="Rigid3DTramsform of a vector space (e.g. space coordinates)">
<polygon fill="#bfbfbf" stroke="black" points="0,-0.5 0,-30.5 179,-30.5 179,-0.5 0,-0.5"/>
<text text-anchor="start" x="8" y="-18.5" font-family="Helvetica,sans-Serif" font-size="10.00">itk::Rigid3DPerspectiveTransform</text>
<text text-anchor="middle" x="89.5" y="-7.5" font-family="Helvetica,sans-Serif" font-size="10.00">&lt; TParametersValueType &gt;</text>
</a>
</g>
</g>
<!-- Node2 -->
<g id="node2" class="node">
<title>Node2</title>
<g id="a_node2"><a xlink:href="classitk_1_1Transform.html" target="_top" xlink:title=" ">
<polygon fill="white" stroke="black" points="24,-67.5 24,-97.5 155,-97.5 155,-67.5 24,-67.5"/>
<text text-anchor="start" x="32" y="-85.5" font-family="Helvetica,sans-Serif" font-size="10.00">itk::Transform&lt; double,</text>
<text text-anchor="middle" x="89.5" y="-74.5" font-family="Helvetica,sans-Serif" font-size="10.00"> 3, 2 &gt;</text>
</a>
</g>
</g>
<!-- Node2&#45;&gt;Node1 -->
<g id="edge1" class="edge">
<title>Node2&#45;&gt;Node1</title>
<path fill="none" stroke="midnightblue" d="M89.5,-57.11C89.5,-48.15 89.5,-38.32 89.5,-30.58"/>
<polygon fill="midnightblue" stroke="midnightblue" points="86,-57.4 89.5,-67.4 93,-57.4 86,-57.4"/>
</g>
<!-- Node3 -->
<g id="node3" class="node">
<title>Node3</title>
<g id="a_node3"><a xlink:href="classitk_1_1TransformBaseTemplate.html" target="_top" xlink:title=" ">
<polygon fill="white" stroke="black" points="13,-134.5 13,-164.5 166,-164.5 166,-134.5 13,-134.5"/>
<text text-anchor="start" x="21" y="-152.5" font-family="Helvetica,sans-Serif" font-size="10.00">itk::TransformBaseTemplate</text>
<text text-anchor="middle" x="89.5" y="-141.5" font-family="Helvetica,sans-Serif" font-size="10.00">&lt; double &gt;</text>
</a>
</g>
</g>
<!-- Node3&#45;&gt;Node2 -->
<g id="edge2" class="edge">
<title>Node3&#45;&gt;Node2</title>
<path fill="none" stroke="midnightblue" d="M89.5,-124.11C89.5,-115.15 89.5,-105.32 89.5,-97.58"/>
<polygon fill="midnightblue" stroke="midnightblue" points="86,-124.4 89.5,-134.4 93,-124.4 86,-124.4"/>
</g>
<!-- Node4 -->
<g id="node4" class="node">
<title>Node4</title>
<g id="a_node4"><a xlink:href="classitk_1_1Object.html" target="_top" xlink:title="Base class for most ITK classes.">
<polygon fill="white" stroke="black" points="56,-201.5 56,-220.5 123,-220.5 123,-201.5 56,-201.5"/>
<text text-anchor="middle" x="89.5" y="-208.5" font-family="Helvetica,sans-Serif" font-size="10.00">itk::Object</text>
</a>
</g>
</g>
<!-- Node4&#45;&gt;Node3 -->
<g id="edge3" class="edge">
<title>Node4&#45;&gt;Node3</title>
<path fill="none" stroke="midnightblue" d="M89.5,-191.23C89.5,-182.59 89.5,-172.5 89.5,-164.52"/>
<polygon fill="midnightblue" stroke="midnightblue" points="86,-191.48 89.5,-201.48 93,-191.48 86,-191.48"/>
</g>
<!-- Node5 -->
<g id="node5" class="node">
<title>Node5</title>
<g id="a_node5"><a xlink:href="classitk_1_1LightObject.html" target="_top" xlink:title="Light weight base class for most itk classes.">
<polygon fill="white" stroke="black" points="44,-257.5 44,-276.5 135,-276.5 135,-257.5 44,-257.5"/>
<text text-anchor="middle" x="89.5" y="-264.5" font-family="Helvetica,sans-Serif" font-size="10.00">itk::LightObject</text>
</a>
</g>
</g>
<!-- Node5&#45;&gt;Node4 -->
<g id="edge4" class="edge">
<title>Node5&#45;&gt;Node4</title>
<path fill="none" stroke="midnightblue" d="M89.5,-246.8C89.5,-237.91 89.5,-227.78 89.5,-220.75"/>
<polygon fill="midnightblue" stroke="midnightblue" points="86,-247.08 89.5,-257.08 93,-247.08 86,-247.08"/>
</g>
</g>
</svg>
