<?xml version="1.0" encoding="UTF-8" standalone="no"?>
<!DOCTYPE svg PUBLIC "-//W3C//DTD SVG 1.1//EN"
 "http://www.w3.org/Graphics/SVG/1.1/DTD/svg11.dtd">
<!-- Generated by graphviz version 2.43.0 (0)
 -->
<!-- Title: itk::Functor::VectorMagnitudeLinearTransform&lt; TInput, TOutput &gt; Pages: 1 -->
<svg width="186pt" height="196pt"
 viewBox="0.00 0.00 186.00 196.00" xmlns="http://www.w3.org/2000/svg" xmlns:xlink="http://www.w3.org/1999/xlink">
<g id="graph0" class="graph" transform="scale(1 1) rotate(0) translate(4 192)">
<title>itk::Functor::VectorMagnitudeLinearTransform&lt; TInput, TOutput &gt;</title>
<polygon fill="white" stroke="transparent" points="-4,4 -4,-192 182,-192 182,4 -4,4"/>
<!-- Node1 -->
<g id="node1" class="node">
<title>Node1</title>
<g id="a_node1"><a xlink:title=" ">
<polygon fill="#bfbfbf" stroke="black" points="9,-0.5 9,-41.5 169,-41.5 169,-0.5 9,-0.5"/>
<text text-anchor="start" x="17" y="-29.5" font-family="Helvetica,sans-Serif" font-size="10.00">itk::Functor::VectorMagnitude</text>
<text text-anchor="start" x="17" y="-18.5" font-family="Helvetica,sans-Serif" font-size="10.00">LinearTransform&lt; TInput,</text>
<text text-anchor="middle" x="89" y="-7.5" font-family="Helvetica,sans-Serif" font-size="10.00"> TOutput &gt;</text>
</a>
</g>
</g>
<!-- Node2 -->
<g id="node2" class="node">
<title>Node2</title>
<g id="a_node2"><a xlink:href="classitk_1_1NumericTraits.html" target="_top" xlink:title=" ">
<polygon fill="white" stroke="black" points="0,-89.5 0,-119.5 178,-119.5 178,-89.5 0,-89.5"/>
<text text-anchor="start" x="8" y="-107.5" font-family="Helvetica,sans-Serif" font-size="10.00">itk::NumericTraits</text>
<text text-anchor="middle" x="89" y="-96.5" font-family="Helvetica,sans-Serif" font-size="10.00">&lt; typename TInput::ValueType &gt;</text>
</a>
</g>
</g>
<!-- Node2&#45;&gt;Node1 -->
<g id="edge1" class="edge">
<title>Node2&#45;&gt;Node1</title>
<path fill="none" stroke="#9a32cd" stroke-dasharray="5,2" d="M89,-79.07C89,-67.06 89,-52.79 89,-41.53"/>
<polygon fill="#9a32cd" stroke="#9a32cd" points="85.5,-79.3 89,-89.3 92.5,-79.3 85.5,-79.3"/>
<text text-anchor="middle" x="113" y="-63" font-family="Helvetica,sans-Serif" font-size="10.00"> m_Factor</text>
</g>
<!-- Node3 -->
<g id="node3" class="node">
<title>Node3</title>
<g id="a_node3"><a xlink:title=" ">
<polygon fill="white" stroke="#bfbfbf" points="0,-157.5 0,-187.5 178,-187.5 178,-157.5 0,-157.5"/>
<text text-anchor="start" x="8" y="-175.5" font-family="Helvetica,sans-Serif" font-size="10.00">std::numeric_limits</text>
<text text-anchor="middle" x="89" y="-164.5" font-family="Helvetica,sans-Serif" font-size="10.00">&lt; typename TInput::ValueType &gt;</text>
</a>
</g>
</g>
<!-- Node3&#45;&gt;Node2 -->
<g id="edge2" class="edge">
<title>Node3&#45;&gt;Node2</title>
<path fill="none" stroke="midnightblue" d="M89,-147.03C89,-137.86 89,-127.74 89,-119.79"/>
<polygon fill="midnightblue" stroke="midnightblue" points="85.5,-147.18 89,-157.18 92.5,-147.18 85.5,-147.18"/>
</g>
</g>
</svg>
