<?xml version="1.0" encoding="UTF-8" standalone="no"?>
<!DOCTYPE svg PUBLIC "-//W3C//DTD SVG 1.1//EN"
 "http://www.w3.org/Graphics/SVG/1.1/DTD/svg11.dtd">
<!-- Generated by graphviz version 2.43.0 (0)
 -->
<!-- Title: itk::ExhaustiveOptimizer Pages: 1 -->
<svg width="2132pt" height="352pt"
 viewBox="0.00 0.00 2132.00 352.00" xmlns="http://www.w3.org/2000/svg" xmlns:xlink="http://www.w3.org/1999/xlink">
<g id="graph0" class="graph" transform="scale(1 1) rotate(0) translate(4 348)">
<title>itk::ExhaustiveOptimizer</title>
<polygon fill="white" stroke="transparent" points="-4,4 -4,-348 2128,-348 2128,4 -4,4"/>
<!-- Node1 -->
<g id="node1" class="node">
<title>Node1</title>
<g id="a_node1"><a xlink:title="Optimizer that fully samples a grid on the parametric space.">
<polygon fill="#bfbfbf" stroke="black" points="1987,-44.5 1987,-63.5 2124,-63.5 2124,-44.5 1987,-44.5"/>
<text text-anchor="middle" x="2055.5" y="-51.5" font-family="Helvetica,sans-Serif" font-size="10.00">itk::ExhaustiveOptimizer</text>
</a>
</g>
</g>
<!-- Node2 -->
<g id="node2" class="node">
<title>Node2</title>
<g id="a_node2"><a xlink:href="classitk_1_1SingleValuedNonLinearOptimizer.html" target="_top" xlink:title="This class is a base for the Optimization methods that optimize a single valued function.">
<polygon fill="white" stroke="black" points="1658,-92 1658,-122 1806,-122 1806,-92 1658,-92"/>
<text text-anchor="start" x="1666" y="-110" font-family="Helvetica,sans-Serif" font-size="10.00">itk::SingleValuedNonLinear</text>
<text text-anchor="middle" x="1732" y="-99" font-family="Helvetica,sans-Serif" font-size="10.00">Optimizer</text>
</a>
</g>
</g>
<!-- Node2&#45;&gt;Node1 -->
<g id="edge1" class="edge">
<title>Node2&#45;&gt;Node1</title>
<path fill="none" stroke="midnightblue" d="M1816.18,-93.9C1861.41,-86.7 1918.3,-77.53 1969,-69 1979.25,-67.27 1990.19,-65.39 2000.7,-63.56"/>
<polygon fill="midnightblue" stroke="midnightblue" points="1815.46,-90.47 1806.13,-95.5 1816.56,-97.38 1815.46,-90.47"/>
</g>
<!-- Node3 -->
<g id="node3" class="node">
<title>Node3</title>
<g id="a_node3"><a xlink:href="classitk_1_1NonLinearOptimizer.html" target="_top" xlink:title="Wrap of the vnl_nonlinear_minimizer to be adapted.">
<polygon fill="white" stroke="black" points="1390.5,-143.5 1390.5,-162.5 1523.5,-162.5 1523.5,-143.5 1390.5,-143.5"/>
<text text-anchor="middle" x="1457" y="-150.5" font-family="Helvetica,sans-Serif" font-size="10.00">itk::NonLinearOptimizer</text>
</a>
</g>
</g>
<!-- Node3&#45;&gt;Node2 -->
<g id="edge2" class="edge">
<title>Node3&#45;&gt;Node2</title>
<path fill="none" stroke="midnightblue" d="M1524.57,-141.78C1564.91,-134.99 1616.42,-126.31 1657.89,-119.32"/>
<polygon fill="midnightblue" stroke="midnightblue" points="1523.85,-138.36 1514.57,-143.47 1525.01,-145.26 1523.85,-138.36"/>
</g>
<!-- Node4 -->
<g id="node4" class="node">
<title>Node4</title>
<g id="a_node4"><a xlink:href="classitk_1_1Optimizer.html" target="_top" xlink:title="Generic representation for an optimization method.">
<polygon fill="white" stroke="black" points="1244,-143.5 1244,-162.5 1327,-162.5 1327,-143.5 1244,-143.5"/>
<text text-anchor="middle" x="1285.5" y="-150.5" font-family="Helvetica,sans-Serif" font-size="10.00">itk::Optimizer</text>
</a>
</g>
</g>
<!-- Node4&#45;&gt;Node3 -->
<g id="edge3" class="edge">
<title>Node4&#45;&gt;Node3</title>
<path fill="none" stroke="midnightblue" d="M1337.18,-153C1353.85,-153 1372.63,-153 1390.25,-153"/>
<polygon fill="midnightblue" stroke="midnightblue" points="1337.1,-149.5 1327.1,-153 1337.1,-156.5 1337.1,-149.5"/>
</g>
<!-- Node5 -->
<g id="node5" class="node">
<title>Node5</title>
<g id="a_node5"><a xlink:href="classitk_1_1Object.html" target="_top" xlink:title="Base class for most ITK classes.">
<polygon fill="white" stroke="black" points="998,-233.5 998,-252.5 1065,-252.5 1065,-233.5 998,-233.5"/>
<text text-anchor="middle" x="1031.5" y="-240.5" font-family="Helvetica,sans-Serif" font-size="10.00">itk::Object</text>
</a>
</g>
</g>
<!-- Node5&#45;&gt;Node4 -->
<g id="edge4" class="edge">
<title>Node5&#45;&gt;Node4</title>
<path fill="none" stroke="midnightblue" d="M1069.46,-229.99C1105.96,-217.12 1163.37,-196.82 1213,-179 1228.04,-173.6 1244.84,-167.49 1258.37,-162.56"/>
<polygon fill="midnightblue" stroke="midnightblue" points="1068.01,-226.79 1059.74,-233.42 1070.33,-233.4 1068.01,-226.79"/>
</g>
<!-- Node6 -->
<g id="node6" class="node">
<title>Node6</title>
<g id="a_node6"><a xlink:href="classitk_1_1LightObject.html" target="_top" xlink:title="Light weight base class for most itk classes.">
<polygon fill="white" stroke="black" points="678.5,-320.5 678.5,-339.5 769.5,-339.5 769.5,-320.5 678.5,-320.5"/>
<text text-anchor="middle" x="724" y="-327.5" font-family="Helvetica,sans-Serif" font-size="10.00">itk::LightObject</text>
</a>
</g>
</g>
<!-- Node6&#45;&gt;Node5 -->
<g id="edge5" class="edge">
<title>Node6&#45;&gt;Node5</title>
<path fill="none" stroke="midnightblue" d="M779.75,-323.98C824.76,-317.98 889.72,-306.87 944,-288 970.38,-278.83 998.69,-262.79 1015.48,-252.54"/>
<polygon fill="midnightblue" stroke="midnightblue" points="779.08,-320.54 769.61,-325.29 779.98,-327.48 779.08,-320.54"/>
</g>
<!-- Node7 -->
<g id="node7" class="node">
<title>Node7</title>
<g id="a_node7"><a xlink:title=" ">
<polygon fill="white" stroke="#bfbfbf" points="378,-324.5 378,-343.5 485,-343.5 485,-324.5 378,-324.5"/>
<text text-anchor="middle" x="431.5" y="-331.5" font-family="Helvetica,sans-Serif" font-size="10.00">std::atomic&lt; int &gt;</text>
</a>
</g>
</g>
<!-- Node7&#45;&gt;Node6 -->
<g id="edge6" class="edge">
<title>Node7&#45;&gt;Node6</title>
<path fill="none" stroke="#9a32cd" stroke-dasharray="5,2" d="M495.13,-333.14C550.33,-332.38 629.39,-331.29 678.4,-330.61"/>
<polygon fill="#9a32cd" stroke="#9a32cd" points="495.06,-329.64 485.11,-333.28 495.15,-336.64 495.06,-329.64"/>
<text text-anchor="middle" x="572.5" y="-335" font-family="Helvetica,sans-Serif" font-size="10.00"> m_ReferenceCount</text>
</g>
<!-- Node8 -->
<g id="node8" class="node">
<title>Node8</title>
<g id="a_node8"><a xlink:title="STL class.">
<polygon fill="white" stroke="#bfbfbf" points="691.5,-277.5 691.5,-296.5 756.5,-296.5 756.5,-277.5 691.5,-277.5"/>
<text text-anchor="middle" x="724" y="-284.5" font-family="Helvetica,sans-Serif" font-size="10.00">std::string</text>
</a>
</g>
</g>
<!-- Node8&#45;&gt;Node5 -->
<g id="edge7" class="edge">
<title>Node8&#45;&gt;Node5</title>
<path fill="none" stroke="#9a32cd" stroke-dasharray="5,2" d="M766.67,-281.99C810.78,-276.56 882.4,-267.42 944,-258 961.78,-255.28 981.55,-251.88 997.69,-249.01"/>
<polygon fill="#9a32cd" stroke="#9a32cd" points="766.11,-278.53 756.61,-283.22 766.96,-285.48 766.11,-278.53"/>
<text text-anchor="middle" x="885.5" y="-276" font-family="Helvetica,sans-Serif" font-size="10.00"> m_ObjectName</text>
</g>
<!-- Node9 -->
<g id="node9" class="node">
<title>Node9</title>
<g id="a_node9"><a xlink:title="STL class.">
<polygon fill="white" stroke="#bfbfbf" points="379.5,-275 379.5,-305 483.5,-305 483.5,-275 379.5,-275"/>
<text text-anchor="start" x="387.5" y="-293" font-family="Helvetica,sans-Serif" font-size="10.00">std::basic_string&lt;</text>
<text text-anchor="middle" x="431.5" y="-282" font-family="Helvetica,sans-Serif" font-size="10.00"> char &gt;</text>
</a>
</g>
</g>
<!-- Node9&#45;&gt;Node8 -->
<g id="edge8" class="edge">
<title>Node9&#45;&gt;Node8</title>
<path fill="none" stroke="midnightblue" d="M493.92,-289.37C554.22,-288.74 643.81,-287.82 691.1,-287.33"/>
<polygon fill="midnightblue" stroke="midnightblue" points="493.73,-285.87 483.77,-289.47 493.8,-292.87 493.73,-285.87"/>
</g>
<!-- Node10 -->
<g id="node10" class="node">
<title>Node10</title>
<g id="a_node10"><a xlink:href="classitk_1_1MetaDataDictionary.html" target="_top" xlink:title="Provides a mechanism for storing a collection of arbitrary data types.">
<polygon fill="white" stroke="black" points="657,-233.5 657,-252.5 791,-252.5 791,-233.5 657,-233.5"/>
<text text-anchor="middle" x="724" y="-240.5" font-family="Helvetica,sans-Serif" font-size="10.00">itk::MetaDataDictionary</text>
</a>
</g>
</g>
<!-- Node10&#45;&gt;Node5 -->
<g id="edge9" class="edge">
<title>Node10&#45;&gt;Node5</title>
<path fill="none" stroke="#9a32cd" stroke-dasharray="5,2" d="M801.61,-243C864.74,-243 951.2,-243 997.7,-243"/>
<polygon fill="#9a32cd" stroke="#9a32cd" points="801.29,-239.5 791.29,-243 801.29,-246.5 801.29,-239.5"/>
<text text-anchor="middle" x="885.5" y="-246" font-family="Helvetica,sans-Serif" font-size="10.00"> m_MetaDataDictionary</text>
</g>
<!-- Node11 -->
<g id="node11" class="node">
<title>Node11</title>
<g id="a_node11"><a xlink:title=" ">
<polygon fill="white" stroke="#bfbfbf" points="357,-226 357,-256 506,-256 506,-226 357,-226"/>
<text text-anchor="start" x="365" y="-244" font-family="Helvetica,sans-Serif" font-size="10.00">std::shared_ptr&lt; MetaData</text>
<text text-anchor="middle" x="431.5" y="-233" font-family="Helvetica,sans-Serif" font-size="10.00">DictionaryMapType &gt;</text>
</a>
</g>
</g>
<!-- Node11&#45;&gt;Node10 -->
<g id="edge10" class="edge">
<title>Node11&#45;&gt;Node10</title>
<path fill="none" stroke="#9a32cd" stroke-dasharray="5,2" d="M516.43,-241.58C561.08,-241.89 615.2,-242.26 656.84,-242.54"/>
<polygon fill="#9a32cd" stroke="#9a32cd" points="516.2,-238.08 506.18,-241.51 516.16,-245.08 516.2,-238.08"/>
<text text-anchor="middle" x="572.5" y="-245" font-family="Helvetica,sans-Serif" font-size="10.00"> m_Dictionary</text>
</g>
<!-- Node12 -->
<g id="node12" class="node">
<title>Node12</title>
<g id="a_node12"><a xlink:title="STL class.">
<polygon fill="white" stroke="#bfbfbf" points="114,-231.5 114,-250.5 215,-250.5 215,-231.5 114,-231.5"/>
<text text-anchor="middle" x="164.5" y="-238.5" font-family="Helvetica,sans-Serif" font-size="10.00">std::map&lt; K, T &gt;</text>
</a>
</g>
</g>
<!-- Node12&#45;&gt;Node11 -->
<g id="edge11" class="edge">
<title>Node12&#45;&gt;Node11</title>
<path fill="none" stroke="#9a32cd" stroke-dasharray="5,2" d="M225.18,-241C264.19,-241 315.41,-241 356.93,-241"/>
<polygon fill="#9a32cd" stroke="#9a32cd" points="225.03,-237.5 215.03,-241 225.03,-244.5 225.03,-237.5"/>
<text text-anchor="middle" x="286" y="-244" font-family="Helvetica,sans-Serif" font-size="10.00"> ptr</text>
</g>
<!-- Node13 -->
<g id="node13" class="node">
<title>Node13</title>
<g id="a_node13"><a xlink:title=" ">
<polygon fill="white" stroke="#bfbfbf" points="0,-255.5 0,-274.5 29,-274.5 29,-255.5 0,-255.5"/>
<text text-anchor="middle" x="14.5" y="-262.5" font-family="Helvetica,sans-Serif" font-size="10.00">K</text>
</a>
</g>
</g>
<!-- Node13&#45;&gt;Node12 -->
<g id="edge12" class="edge">
<title>Node13&#45;&gt;Node12</title>
<path fill="none" stroke="#9a32cd" stroke-dasharray="5,2" d="M39.24,-261.15C59.28,-257.9 88.63,-253.14 113.78,-249.06"/>
<polygon fill="#9a32cd" stroke="#9a32cd" points="38.47,-257.73 29.16,-262.79 39.59,-264.64 38.47,-257.73"/>
<text text-anchor="middle" x="71.5" y="-262" font-family="Helvetica,sans-Serif" font-size="10.00"> keys</text>
</g>
<!-- Node14 -->
<g id="node14" class="node">
<title>Node14</title>
<g id="a_node14"><a xlink:title=" ">
<polygon fill="white" stroke="#bfbfbf" points="0,-202.5 0,-221.5 29,-221.5 29,-202.5 0,-202.5"/>
<text text-anchor="middle" x="14.5" y="-209.5" font-family="Helvetica,sans-Serif" font-size="10.00">T</text>
</a>
</g>
</g>
<!-- Node14&#45;&gt;Node12 -->
<g id="edge13" class="edge">
<title>Node14&#45;&gt;Node12</title>
<path fill="none" stroke="#9a32cd" stroke-dasharray="5,2" d="M39.09,-216.62C59.39,-220.6 89.35,-226.47 114.78,-231.45"/>
<polygon fill="#9a32cd" stroke="#9a32cd" points="39.64,-213.16 29.16,-214.68 38.3,-220.03 39.64,-213.16"/>
<text text-anchor="middle" x="71.5" y="-230" font-family="Helvetica,sans-Serif" font-size="10.00"> elements</text>
</g>
<!-- Node16 -->
<g id="node16" class="node">
<title>Node16</title>
<g id="a_node16"><a xlink:title="STL class.">
<polygon fill="white" stroke="#bfbfbf" points="114.5,-187.5 114.5,-206.5 214.5,-206.5 214.5,-187.5 114.5,-187.5"/>
<text text-anchor="middle" x="164.5" y="-194.5" font-family="Helvetica,sans-Serif" font-size="10.00">std::atomic&lt; T &gt;</text>
</a>
</g>
</g>
<!-- Node14&#45;&gt;Node16 -->
<g id="edge16" class="edge">
<title>Node14&#45;&gt;Node16</title>
<path fill="none" stroke="#9a32cd" stroke-dasharray="5,2" d="M38.4,-200.54C41.24,-199.51 44.15,-198.62 47,-198 68.74,-193.29 93.31,-192.44 114.26,-193.01"/>
<polygon fill="#9a32cd" stroke="#9a32cd" points="37.03,-197.32 29.19,-204.45 39.77,-203.77 37.03,-197.32"/>
<text text-anchor="middle" x="71.5" y="-201" font-family="Helvetica,sans-Serif" font-size="10.00"> ptr</text>
</g>
<!-- Node15 -->
<g id="node15" class="node">
<title>Node15</title>
<g id="a_node15"><a xlink:href="classitk_1_1TimeStamp.html" target="_top" xlink:title="Generate a unique, increasing time value.">
<polygon fill="white" stroke="black" points="526.5,-190.5 526.5,-209.5 618.5,-209.5 618.5,-190.5 526.5,-190.5"/>
<text text-anchor="middle" x="572.5" y="-197.5" font-family="Helvetica,sans-Serif" font-size="10.00">itk::TimeStamp</text>
</a>
</g>
</g>
<!-- Node15&#45;&gt;Node5 -->
<g id="edge14" class="edge">
<title>Node15&#45;&gt;Node5</title>
<path fill="none" stroke="#9a32cd" stroke-dasharray="5,2" d="M628.86,-201.81C676.64,-203.68 747.48,-207.14 809,-213 876.41,-219.42 954.84,-231.02 997.94,-237.76"/>
<polygon fill="#9a32cd" stroke="#9a32cd" points="628.85,-198.31 618.73,-201.43 628.59,-205.31 628.85,-198.31"/>
<text text-anchor="middle" x="724" y="-216" font-family="Helvetica,sans-Serif" font-size="10.00"> m_MTime</text>
</g>
<!-- Node16&#45;&gt;Node15 -->
<g id="edge15" class="edge">
<title>Node16&#45;&gt;Node15</title>
<path fill="none" stroke="#9a32cd" stroke-dasharray="5,2" d="M225.03,-197.44C306.93,-198.05 452.57,-199.12 526.2,-199.67"/>
<polygon fill="#9a32cd" stroke="#9a32cd" points="224.9,-193.94 214.88,-197.36 224.85,-200.94 224.9,-193.94"/>
<text text-anchor="middle" x="286" y="-201" font-family="Helvetica,sans-Serif" font-size="10.00"> m_GlobalTimeStamp</text>
</g>
<!-- Node17 -->
<g id="node17" class="node">
<title>Node17</title>
<g id="a_node17"><a xlink:href="classitk_1_1Array.html" target="_top" xlink:title=" ">
<polygon fill="white" stroke="black" points="665.5,-95.5 665.5,-114.5 782.5,-114.5 782.5,-95.5 665.5,-95.5"/>
<text text-anchor="middle" x="724" y="-102.5" font-family="Helvetica,sans-Serif" font-size="10.00">itk::Array&lt; double &gt;</text>
</a>
</g>
</g>
<!-- Node17&#45;&gt;Node4 -->
<g id="edge17" class="edge">
<title>Node17&#45;&gt;Node4</title>
<path fill="none" stroke="#9a32cd" stroke-dasharray="5,2" d="M792.92,-100.82C868.47,-97.27 993.97,-94.63 1101,-108 1156.17,-114.89 1218.73,-132.38 1254.7,-143.42"/>
<polygon fill="#9a32cd" stroke="#9a32cd" points="792.42,-97.34 782.6,-101.33 792.76,-104.34 792.42,-97.34"/>
<text text-anchor="middle" x="1031.5" y="-122" font-family="Helvetica,sans-Serif" font-size="10.00"> m_InverseScales</text>
<text text-anchor="middle" x="1031.5" y="-111" font-family="Helvetica,sans-Serif" font-size="10.00">m_Scales</text>
</g>
<!-- Node19 -->
<g id="node19" class="node">
<title>Node19</title>
<g id="a_node19"><a xlink:href="classitk_1_1OptimizerParameters.html" target="_top" xlink:title=" ">
<polygon fill="white" stroke="black" points="962,-139 962,-169 1101,-169 1101,-139 962,-139"/>
<text text-anchor="start" x="970" y="-157" font-family="Helvetica,sans-Serif" font-size="10.00">itk::OptimizerParameters</text>
<text text-anchor="middle" x="1031.5" y="-146" font-family="Helvetica,sans-Serif" font-size="10.00">&lt; double &gt;</text>
</a>
</g>
</g>
<!-- Node17&#45;&gt;Node19 -->
<g id="edge20" class="edge">
<title>Node17&#45;&gt;Node19</title>
<path fill="none" stroke="midnightblue" d="M792.95,-115.9C843.26,-123.97 911.52,-134.92 961.97,-143.01"/>
<polygon fill="midnightblue" stroke="midnightblue" points="793.25,-112.4 782.82,-114.27 792.14,-119.31 793.25,-112.4"/>
</g>
<!-- Node18 -->
<g id="node18" class="node">
<title>Node18</title>
<g id="a_node18"><a xlink:title=" ">
<polygon fill="white" stroke="#bfbfbf" points="370,-95.5 370,-114.5 493,-114.5 493,-95.5 370,-95.5"/>
<text text-anchor="middle" x="431.5" y="-102.5" font-family="Helvetica,sans-Serif" font-size="10.00">vnl_vector&lt; double &gt;</text>
</a>
</g>
</g>
<!-- Node18&#45;&gt;Node17 -->
<g id="edge18" class="edge">
<title>Node18&#45;&gt;Node17</title>
<path fill="none" stroke="midnightblue" d="M503.07,-105C552.73,-105 618.4,-105 665.01,-105"/>
<polygon fill="midnightblue" stroke="midnightblue" points="503.04,-101.5 493.04,-105 503.04,-108.5 503.04,-101.5"/>
</g>
<!-- Node19&#45;&gt;Node4 -->
<g id="edge19" class="edge">
<title>Node19&#45;&gt;Node4</title>
<path fill="none" stroke="#9a32cd" stroke-dasharray="5,2" d="M1111.14,-153.69C1155.16,-153.51 1208.21,-153.3 1243.94,-153.16"/>
<polygon fill="#9a32cd" stroke="#9a32cd" points="1111.01,-150.19 1101.03,-153.73 1111.04,-157.19 1111.01,-150.19"/>
<text text-anchor="middle" x="1166" y="-167" font-family="Helvetica,sans-Serif" font-size="10.00"> m_CurrentPosition</text>
<text text-anchor="middle" x="1166" y="-156" font-family="Helvetica,sans-Serif" font-size="10.00">m_InitialPosition</text>
</g>
<!-- Node20 -->
<g id="node20" class="node">
<title>Node20</title>
<g id="a_node20"><a xlink:title=" ">
<polygon fill="white" stroke="#bfbfbf" points="639,-137 639,-167 809,-167 809,-137 639,-137"/>
<text text-anchor="start" x="647" y="-155" font-family="Helvetica,sans-Serif" font-size="10.00">std::unique_ptr&lt; itk</text>
<text text-anchor="middle" x="724" y="-144" font-family="Helvetica,sans-Serif" font-size="10.00">::OptimizerParametersHelper &gt;</text>
</a>
</g>
</g>
<!-- Node20&#45;&gt;Node19 -->
<g id="edge21" class="edge">
<title>Node20&#45;&gt;Node19</title>
<path fill="none" stroke="#9a32cd" stroke-dasharray="5,2" d="M819.29,-152.62C865.39,-152.92 919.84,-153.28 961.92,-153.55"/>
<polygon fill="#9a32cd" stroke="#9a32cd" points="819.31,-149.12 809.29,-152.55 819.26,-156.12 819.31,-149.12"/>
<text text-anchor="middle" x="885.5" y="-156" font-family="Helvetica,sans-Serif" font-size="10.00"> m_Helper</text>
</g>
<!-- Node21 -->
<g id="node21" class="node">
<title>Node21</title>
<g id="a_node21"><a xlink:href="classitk_1_1OptimizerParametersHelper.html" target="_top" xlink:title="Basic helper class to manage parameter data as an Array type, the default type.">
<polygon fill="white" stroke="black" points="362,-137 362,-167 501,-167 501,-137 362,-137"/>
<text text-anchor="start" x="370" y="-155" font-family="Helvetica,sans-Serif" font-size="10.00">itk::OptimizerParameters</text>
<text text-anchor="middle" x="431.5" y="-144" font-family="Helvetica,sans-Serif" font-size="10.00">Helper&lt; TValue &gt;</text>
</a>
</g>
</g>
<!-- Node21&#45;&gt;Node20 -->
<g id="edge22" class="edge">
<title>Node21&#45;&gt;Node20</title>
<path fill="none" stroke="#9a32cd" stroke-dasharray="5,2" d="M511.45,-152C550.91,-152 598.68,-152 638.84,-152"/>
<polygon fill="#9a32cd" stroke="#9a32cd" points="511.34,-148.5 501.34,-152 511.34,-155.5 511.34,-148.5"/>
<text text-anchor="middle" x="572.5" y="-155" font-family="Helvetica,sans-Serif" font-size="10.00"> ptr</text>
</g>
<!-- Node22 -->
<g id="node22" class="node">
<title>Node22</title>
<g id="a_node22"><a xlink:href="classitk_1_1SmartPointer.html" target="_top" xlink:title=" ">
<polygon fill="white" stroke="black" points="1403.5,-92 1403.5,-122 1510.5,-122 1510.5,-92 1403.5,-92"/>
<text text-anchor="start" x="1411.5" y="-110" font-family="Helvetica,sans-Serif" font-size="10.00">itk::SmartPointer&lt;</text>
<text text-anchor="middle" x="1457" y="-99" font-family="Helvetica,sans-Serif" font-size="10.00"> Self &gt;</text>
</a>
</g>
</g>
<!-- Node22&#45;&gt;Node2 -->
<g id="edge23" class="edge">
<title>Node22&#45;&gt;Node2</title>
<path fill="none" stroke="#9a32cd" stroke-dasharray="5,2" d="M1520.74,-107C1561.61,-107 1615.09,-107 1657.89,-107"/>
<polygon fill="#9a32cd" stroke="#9a32cd" points="1520.64,-103.5 1510.64,-107 1520.64,-110.5 1520.64,-103.5"/>
<text text-anchor="middle" x="1596" y="-110" font-family="Helvetica,sans-Serif" font-size="10.00"> m_CostFunction</text>
</g>
<!-- Node23 -->
<g id="node23" class="node">
<title>Node23</title>
<g id="a_node23"><a xlink:title="STL class.">
<polygon fill="white" stroke="#bfbfbf" points="1679,-44.5 1679,-63.5 1785,-63.5 1785,-44.5 1679,-44.5"/>
<text text-anchor="middle" x="1732" y="-51.5" font-family="Helvetica,sans-Serif" font-size="10.00">std::ostringstream</text>
</a>
</g>
</g>
<!-- Node23&#45;&gt;Node1 -->
<g id="edge24" class="edge">
<title>Node23&#45;&gt;Node1</title>
<path fill="none" stroke="#9a32cd" stroke-dasharray="5,2" d="M1795.32,-54C1850.34,-54 1930.36,-54 1986.9,-54"/>
<polygon fill="#9a32cd" stroke="#9a32cd" points="1795.01,-50.5 1785.01,-54 1795.01,-57.5 1795.01,-50.5"/>
<text text-anchor="middle" x="1898" y="-57" font-family="Helvetica,sans-Serif" font-size="10.00"> m_StopConditionDescription</text>
</g>
<!-- Node24 -->
<g id="node24" class="node">
<title>Node24</title>
<g id="a_node24"><a xlink:title="STL class.">
<polygon fill="white" stroke="#bfbfbf" points="1388.5,-39 1388.5,-69 1525.5,-69 1525.5,-39 1388.5,-39"/>
<text text-anchor="start" x="1396.5" y="-57" font-family="Helvetica,sans-Serif" font-size="10.00">std::basic_ostringstream</text>
<text text-anchor="middle" x="1457" y="-46" font-family="Helvetica,sans-Serif" font-size="10.00">&lt; char &gt;</text>
</a>
</g>
</g>
<!-- Node24&#45;&gt;Node23 -->
<g id="edge25" class="edge">
<title>Node24&#45;&gt;Node23</title>
<path fill="none" stroke="midnightblue" d="M1536.04,-54C1581.88,-54 1638.56,-54 1678.97,-54"/>
<polygon fill="midnightblue" stroke="midnightblue" points="1535.83,-50.5 1525.83,-54 1535.83,-57.5 1535.83,-50.5"/>
</g>
<!-- Node25 -->
<g id="node25" class="node">
<title>Node25</title>
<g id="a_node25"><a xlink:title="STL class.">
<polygon fill="white" stroke="#bfbfbf" points="1231,-38 1231,-68 1340,-68 1340,-38 1231,-38"/>
<text text-anchor="start" x="1239" y="-56" font-family="Helvetica,sans-Serif" font-size="10.00">std::basic_ostream</text>
<text text-anchor="middle" x="1285.5" y="-45" font-family="Helvetica,sans-Serif" font-size="10.00">&lt; Char &gt;</text>
</a>
</g>
</g>
<!-- Node25&#45;&gt;Node24 -->
<g id="edge26" class="edge">
<title>Node25&#45;&gt;Node24</title>
<path fill="none" stroke="midnightblue" d="M1350.39,-53.38C1362.81,-53.45 1375.87,-53.53 1388.4,-53.6"/>
<polygon fill="midnightblue" stroke="midnightblue" points="1350.15,-49.88 1340.13,-53.32 1350.11,-56.88 1350.15,-49.88"/>
</g>
<!-- Node26 -->
<g id="node26" class="node">
<title>Node26</title>
<g id="a_node26"><a xlink:title="STL class.">
<polygon fill="white" stroke="#bfbfbf" points="967.5,-42.5 967.5,-61.5 1095.5,-61.5 1095.5,-42.5 967.5,-42.5"/>
<text text-anchor="middle" x="1031.5" y="-49.5" font-family="Helvetica,sans-Serif" font-size="10.00">std::basic_ios&lt; Char &gt;</text>
</a>
</g>
</g>
<!-- Node26&#45;&gt;Node25 -->
<g id="edge27" class="edge">
<title>Node26&#45;&gt;Node25</title>
<path fill="none" stroke="midnightblue" d="M1105.97,-52.29C1145.84,-52.45 1194.25,-52.64 1230.6,-52.79"/>
<polygon fill="midnightblue" stroke="midnightblue" points="1105.78,-48.79 1095.76,-52.25 1105.75,-55.79 1105.78,-48.79"/>
</g>
<!-- Node27 -->
<g id="node27" class="node">
<title>Node27</title>
<g id="a_node27"><a xlink:title="STL class.">
<polygon fill="white" stroke="#bfbfbf" points="684,-42.5 684,-61.5 764,-61.5 764,-42.5 684,-42.5"/>
<text text-anchor="middle" x="724" y="-49.5" font-family="Helvetica,sans-Serif" font-size="10.00">std::ios_base</text>
</a>
</g>
</g>
<!-- Node27&#45;&gt;Node26 -->
<g id="edge28" class="edge">
<title>Node27&#45;&gt;Node26</title>
<path fill="none" stroke="midnightblue" d="M774.07,-52C826.55,-52 909.96,-52 967.32,-52"/>
<polygon fill="midnightblue" stroke="midnightblue" points="774,-48.5 764,-52 774,-55.5 774,-48.5"/>
</g>
<!-- Node28 -->
<g id="node28" class="node">
<title>Node28</title>
<g id="a_node28"><a xlink:href="classitk_1_1Array.html" target="_top" xlink:title=" ">
<polygon fill="white" stroke="black" points="1655,-3.5 1655,-22.5 1809,-22.5 1809,-3.5 1655,-3.5"/>
<text text-anchor="middle" x="1732" y="-10.5" font-family="Helvetica,sans-Serif" font-size="10.00">itk::Array&lt; SizeValueType &gt;</text>
</a>
</g>
</g>
<!-- Node28&#45;&gt;Node1 -->
<g id="edge29" class="edge">
<title>Node28&#45;&gt;Node1</title>
<path fill="none" stroke="#9a32cd" stroke-dasharray="5,2" d="M1819.12,-21.15C1863.9,-25.73 1919.49,-31.94 1969,-39 1980.04,-40.57 1991.84,-42.49 2003.04,-44.42"/>
<polygon fill="#9a32cd" stroke="#9a32cd" points="1819.45,-17.67 1809.15,-20.14 1818.74,-24.63 1819.45,-17.67"/>
<text text-anchor="middle" x="1898" y="-42" font-family="Helvetica,sans-Serif" font-size="10.00"> m_NumberOfSteps</text>
</g>
<!-- Node29 -->
<g id="node29" class="node">
<title>Node29</title>
<g id="a_node29"><a xlink:title=" ">
<polygon fill="white" stroke="#bfbfbf" points="1377,-0.5 1377,-19.5 1537,-19.5 1537,-0.5 1377,-0.5"/>
<text text-anchor="middle" x="1457" y="-7.5" font-family="Helvetica,sans-Serif" font-size="10.00">vnl_vector&lt; SizeValueType &gt;</text>
</a>
</g>
</g>
<!-- Node29&#45;&gt;Node28 -->
<g id="edge30" class="edge">
<title>Node29&#45;&gt;Node28</title>
<path fill="none" stroke="midnightblue" d="M1547.46,-10.98C1582.14,-11.36 1621.45,-11.8 1654.76,-12.16"/>
<polygon fill="midnightblue" stroke="midnightblue" points="1547.37,-7.48 1537.33,-10.87 1547.29,-14.48 1547.37,-7.48"/>
</g>
</g>
</svg>
