<?xml version="1.0" encoding="UTF-8" standalone="no"?>
<!DOCTYPE svg PUBLIC "-//W3C//DTD SVG 1.1//EN"
 "http://www.w3.org/Graphics/SVG/1.1/DTD/svg11.dtd">
<!-- Generated by graphviz version 2.43.0 (0)
 -->
<!-- Title: itk::watershed::Segmenter&lt; TInputImage &gt; Pages: 1 -->
<svg width="1722pt" height="440pt"
 viewBox="0.00 0.00 1722.00 440.12" xmlns="http://www.w3.org/2000/svg" xmlns:xlink="http://www.w3.org/1999/xlink">
<g id="graph0" class="graph" transform="scale(1 1) rotate(0) translate(4 436.12)">
<title>itk::watershed::Segmenter&lt; TInputImage &gt;</title>
<polygon fill="white" stroke="transparent" points="-4,4 -4,-436.12 1718,-436.12 1718,4 -4,4"/>
<!-- Node1 -->
<g id="node1" class="node">
<title>Node1</title>
<g id="a_node1"><a xlink:title=" ">
<polygon fill="#bfbfbf" stroke="black" points="1568,-136.62 1568,-166.62 1714,-166.62 1714,-136.62 1568,-136.62"/>
<text text-anchor="start" x="1576" y="-154.62" font-family="Helvetica,sans-Serif" font-size="10.00">itk::watershed::Segmenter</text>
<text text-anchor="middle" x="1641" y="-143.62" font-family="Helvetica,sans-Serif" font-size="10.00">&lt; TInputImage &gt;</text>
</a>
</g>
</g>
<!-- Node2 -->
<g id="node2" class="node">
<title>Node2</title>
<g id="a_node2"><a xlink:href="classitk_1_1ProcessObject.html" target="_top" xlink:title="The base class for all process objects (source, filters, mappers) in the Insight data processing pipe...">
<polygon fill="white" stroke="black" points="1312,-173.12 1312,-192.12 1416,-192.12 1416,-173.12 1312,-173.12"/>
<text text-anchor="middle" x="1364" y="-180.12" font-family="Helvetica,sans-Serif" font-size="10.00">itk::ProcessObject</text>
</a>
</g>
</g>
<!-- Node2&#45;&gt;Node1 -->
<g id="edge1" class="edge">
<title>Node2&#45;&gt;Node1</title>
<path fill="none" stroke="midnightblue" d="M1426.15,-175.72C1468.07,-171 1523.86,-164.71 1567.94,-159.74"/>
<polygon fill="midnightblue" stroke="midnightblue" points="1425.63,-172.26 1416.08,-176.86 1426.41,-179.22 1425.63,-172.26"/>
</g>
<!-- Node3 -->
<g id="node3" class="node">
<title>Node3</title>
<g id="a_node3"><a xlink:href="classitk_1_1Object.html" target="_top" xlink:title="Base class for most ITK classes.">
<polygon fill="white" stroke="black" points="980,-203.12 980,-222.12 1047,-222.12 1047,-203.12 980,-203.12"/>
<text text-anchor="middle" x="1013.5" y="-210.12" font-family="Helvetica,sans-Serif" font-size="10.00">itk::Object</text>
</a>
</g>
</g>
<!-- Node3&#45;&gt;Node2 -->
<g id="edge2" class="edge">
<title>Node3&#45;&gt;Node2</title>
<path fill="none" stroke="midnightblue" d="M1057.49,-208.92C1121.86,-203.38 1243.05,-192.94 1311.87,-187.02"/>
<polygon fill="midnightblue" stroke="midnightblue" points="1056.95,-205.45 1047.29,-209.8 1057.55,-212.42 1056.95,-205.45"/>
</g>
<!-- Node4 -->
<g id="node4" class="node">
<title>Node4</title>
<g id="a_node4"><a xlink:href="classitk_1_1LightObject.html" target="_top" xlink:title="Light weight base class for most itk classes.">
<polygon fill="white" stroke="black" points="659,-157.12 659,-176.12 750,-176.12 750,-157.12 659,-157.12"/>
<text text-anchor="middle" x="704.5" y="-164.12" font-family="Helvetica,sans-Serif" font-size="10.00">itk::LightObject</text>
</a>
</g>
</g>
<!-- Node4&#45;&gt;Node3 -->
<g id="edge3" class="edge">
<title>Node4&#45;&gt;Node3</title>
<path fill="none" stroke="midnightblue" d="M760.4,-174.84C824.13,-184.39 927.17,-199.83 979.59,-207.69"/>
<polygon fill="midnightblue" stroke="midnightblue" points="760.55,-171.33 750.14,-173.31 759.51,-178.25 760.55,-171.33"/>
</g>
<!-- Node5 -->
<g id="node5" class="node">
<title>Node5</title>
<g id="a_node5"><a xlink:title=" ">
<polygon fill="white" stroke="#bfbfbf" points="372,-153.12 372,-172.12 479,-172.12 479,-153.12 372,-153.12"/>
<text text-anchor="middle" x="425.5" y="-160.12" font-family="Helvetica,sans-Serif" font-size="10.00">std::atomic&lt; int &gt;</text>
</a>
</g>
</g>
<!-- Node5&#45;&gt;Node4 -->
<g id="edge4" class="edge">
<title>Node5&#45;&gt;Node4</title>
<path fill="none" stroke="#9a32cd" stroke-dasharray="5,2" d="M489.29,-163.52C540.91,-164.27 612.77,-165.31 658.72,-165.97"/>
<polygon fill="#9a32cd" stroke="#9a32cd" points="489.3,-160.02 479.25,-163.38 489.2,-167.02 489.3,-160.02"/>
<text text-anchor="middle" x="566.5" y="-168.62" font-family="Helvetica,sans-Serif" font-size="10.00"> m_ReferenceCount</text>
</g>
<!-- Node6 -->
<g id="node6" class="node">
<title>Node6</title>
<g id="a_node6"><a xlink:title="STL class.">
<polygon fill="white" stroke="#bfbfbf" points="672,-322.12 672,-341.12 737,-341.12 737,-322.12 672,-322.12"/>
<text text-anchor="middle" x="704.5" y="-329.12" font-family="Helvetica,sans-Serif" font-size="10.00">std::string</text>
</a>
</g>
</g>
<!-- Node6&#45;&gt;Node3 -->
<g id="edge5" class="edge">
<title>Node6&#45;&gt;Node3</title>
<path fill="none" stroke="#9a32cd" stroke-dasharray="5,2" d="M727.23,-316.31C744.58,-304.72 769.89,-289.22 794,-279.62 843.58,-259.87 862.41,-274.68 911,-252.62 919.99,-248.54 920.2,-244.08 929,-239.62 945.04,-231.49 964.03,-225.12 979.85,-220.61"/>
<polygon fill="#9a32cd" stroke="#9a32cd" points="725.22,-313.43 718.93,-321.96 729.16,-319.22 725.22,-313.43"/>
<text text-anchor="middle" x="852.5" y="-282.62" font-family="Helvetica,sans-Serif" font-size="10.00"> m_ObjectName</text>
</g>
<!-- Node15 -->
<g id="node15" class="node">
<title>Node15</title>
<g id="a_node15"><a xlink:title=" ">
<polygon fill="white" stroke="#bfbfbf" points="932.5,-311.62 932.5,-341.62 1094.5,-341.62 1094.5,-311.62 932.5,-311.62"/>
<text text-anchor="start" x="940.5" y="-329.62" font-family="Helvetica,sans-Serif" font-size="10.00">std::set&lt; DataObjectIdentifier</text>
<text text-anchor="middle" x="1013.5" y="-318.62" font-family="Helvetica,sans-Serif" font-size="10.00">Type &gt;</text>
</a>
</g>
</g>
<!-- Node6&#45;&gt;Node15 -->
<g id="edge16" class="edge">
<title>Node6&#45;&gt;Node15</title>
<path fill="none" stroke="#9a32cd" stroke-dasharray="5,2" d="M747.4,-330.93C794.8,-330.16 873.1,-328.89 932.35,-327.92"/>
<polygon fill="#9a32cd" stroke="#9a32cd" points="747.14,-327.44 737.2,-331.1 747.25,-334.44 747.14,-327.44"/>
<text text-anchor="middle" x="852.5" y="-332.62" font-family="Helvetica,sans-Serif" font-size="10.00"> keys</text>
</g>
<!-- Node16 -->
<g id="node16" class="node">
<title>Node16</title>
<g id="a_node16"><a xlink:title=" ">
<polygon fill="white" stroke="#bfbfbf" points="929,-248.62 929,-278.62 1098,-278.62 1098,-248.62 929,-248.62"/>
<text text-anchor="start" x="937" y="-266.62" font-family="Helvetica,sans-Serif" font-size="10.00">std::map&lt; DataObjectIdentifier</text>
<text text-anchor="middle" x="1013.5" y="-255.62" font-family="Helvetica,sans-Serif" font-size="10.00">Type, bool &gt;</text>
</a>
</g>
</g>
<!-- Node6&#45;&gt;Node16 -->
<g id="edge18" class="edge">
<title>Node6&#45;&gt;Node16</title>
<path fill="none" stroke="#9a32cd" stroke-dasharray="5,2" d="M746.91,-322.99C761.75,-319.95 778.61,-316.56 794,-313.62 845.89,-303.69 859.54,-304.56 911,-292.62 928.32,-288.6 947.08,-283.46 963.71,-278.63"/>
<polygon fill="#9a32cd" stroke="#9a32cd" points="746.09,-319.58 737,-325.03 747.5,-326.44 746.09,-319.58"/>
<text text-anchor="middle" x="852.5" y="-316.62" font-family="Helvetica,sans-Serif" font-size="10.00"> keys</text>
</g>
<!-- Node21 -->
<g id="node21" class="node">
<title>Node21</title>
<g id="a_node21"><a xlink:title=" ">
<polygon fill="white" stroke="#bfbfbf" points="929,-367.62 929,-397.62 1098,-397.62 1098,-367.62 929,-367.62"/>
<text text-anchor="start" x="937" y="-385.62" font-family="Helvetica,sans-Serif" font-size="10.00">std::map&lt; DataObjectIdentifier</text>
<text text-anchor="middle" x="1013.5" y="-374.62" font-family="Helvetica,sans-Serif" font-size="10.00">Type, DataObjectPointer &gt;</text>
</a>
</g>
</g>
<!-- Node6&#45;&gt;Node21 -->
<g id="edge25" class="edge">
<title>Node6&#45;&gt;Node21</title>
<path fill="none" stroke="#9a32cd" stroke-dasharray="5,2" d="M747.2,-338.55C793.65,-346.26 869.92,-358.93 928.8,-368.71"/>
<polygon fill="#9a32cd" stroke="#9a32cd" points="747.64,-335.07 737.2,-336.88 746.49,-341.97 747.64,-335.07"/>
<text text-anchor="middle" x="852.5" y="-367.62" font-family="Helvetica,sans-Serif" font-size="10.00"> keys</text>
</g>
<!-- Node7 -->
<g id="node7" class="node">
<title>Node7</title>
<g id="a_node7"><a xlink:title="STL class.">
<polygon fill="white" stroke="#bfbfbf" points="373.5,-316.62 373.5,-346.62 477.5,-346.62 477.5,-316.62 373.5,-316.62"/>
<text text-anchor="start" x="381.5" y="-334.62" font-family="Helvetica,sans-Serif" font-size="10.00">std::basic_string&lt;</text>
<text text-anchor="middle" x="425.5" y="-323.62" font-family="Helvetica,sans-Serif" font-size="10.00"> char &gt;</text>
</a>
</g>
</g>
<!-- Node7&#45;&gt;Node6 -->
<g id="edge6" class="edge">
<title>Node7&#45;&gt;Node6</title>
<path fill="none" stroke="midnightblue" d="M487.93,-331.62C544.75,-331.62 626.97,-331.62 671.66,-331.62"/>
<polygon fill="midnightblue" stroke="midnightblue" points="487.63,-328.12 477.63,-331.62 487.63,-335.12 487.63,-328.12"/>
</g>
<!-- Node8 -->
<g id="node8" class="node">
<title>Node8</title>
<g id="a_node8"><a xlink:href="classitk_1_1MetaDataDictionary.html" target="_top" xlink:title="Provides a mechanism for storing a collection of arbitrary data types.">
<polygon fill="white" stroke="black" points="637.5,-239.12 637.5,-258.12 771.5,-258.12 771.5,-239.12 637.5,-239.12"/>
<text text-anchor="middle" x="704.5" y="-246.12" font-family="Helvetica,sans-Serif" font-size="10.00">itk::MetaDataDictionary</text>
</a>
</g>
</g>
<!-- Node8&#45;&gt;Node3 -->
<g id="edge7" class="edge">
<title>Node8&#45;&gt;Node3</title>
<path fill="none" stroke="#9a32cd" stroke-dasharray="5,2" d="M781.82,-239.73C820.53,-235.22 868.26,-229.64 911,-224.62 933.91,-221.93 959.73,-218.87 979.59,-216.52"/>
<polygon fill="#9a32cd" stroke="#9a32cd" points="781.2,-236.28 771.67,-240.91 782.01,-243.23 781.2,-236.28"/>
<text text-anchor="middle" x="852.5" y="-240.62" font-family="Helvetica,sans-Serif" font-size="10.00"> m_MetaDataDictionary</text>
</g>
<!-- Node9 -->
<g id="node9" class="node">
<title>Node9</title>
<g id="a_node9"><a xlink:title=" ">
<polygon fill="white" stroke="#bfbfbf" points="351,-238.62 351,-268.62 500,-268.62 500,-238.62 351,-238.62"/>
<text text-anchor="start" x="359" y="-256.62" font-family="Helvetica,sans-Serif" font-size="10.00">std::shared_ptr&lt; MetaData</text>
<text text-anchor="middle" x="425.5" y="-245.62" font-family="Helvetica,sans-Serif" font-size="10.00">DictionaryMapType &gt;</text>
</a>
</g>
</g>
<!-- Node9&#45;&gt;Node8 -->
<g id="edge8" class="edge">
<title>Node9&#45;&gt;Node8</title>
<path fill="none" stroke="#9a32cd" stroke-dasharray="5,2" d="M510.18,-252.11C550.89,-251.37 599.13,-250.5 637.24,-249.81"/>
<polygon fill="#9a32cd" stroke="#9a32cd" points="509.94,-248.61 500,-252.29 510.07,-255.61 509.94,-248.61"/>
<text text-anchor="middle" x="566.5" y="-254.62" font-family="Helvetica,sans-Serif" font-size="10.00"> m_Dictionary</text>
</g>
<!-- Node10 -->
<g id="node10" class="node">
<title>Node10</title>
<g id="a_node10"><a xlink:title="STL class.">
<polygon fill="white" stroke="#bfbfbf" points="114,-244.12 114,-263.12 215,-263.12 215,-244.12 114,-244.12"/>
<text text-anchor="middle" x="164.5" y="-251.12" font-family="Helvetica,sans-Serif" font-size="10.00">std::map&lt; K, T &gt;</text>
</a>
</g>
</g>
<!-- Node10&#45;&gt;Node9 -->
<g id="edge9" class="edge">
<title>Node10&#45;&gt;Node9</title>
<path fill="none" stroke="#9a32cd" stroke-dasharray="5,2" d="M225.34,-253.62C262.61,-253.62 310.86,-253.62 350.52,-253.62"/>
<polygon fill="#9a32cd" stroke="#9a32cd" points="225.13,-250.12 215.13,-253.62 225.13,-257.12 225.13,-250.12"/>
<text text-anchor="middle" x="283" y="-256.62" font-family="Helvetica,sans-Serif" font-size="10.00"> ptr</text>
</g>
<!-- Node11 -->
<g id="node11" class="node">
<title>Node11</title>
<g id="a_node11"><a xlink:title=" ">
<polygon fill="white" stroke="#bfbfbf" points="0,-267.12 0,-286.12 29,-286.12 29,-267.12 0,-267.12"/>
<text text-anchor="middle" x="14.5" y="-274.12" font-family="Helvetica,sans-Serif" font-size="10.00">K</text>
</a>
</g>
</g>
<!-- Node11&#45;&gt;Node10 -->
<g id="edge10" class="edge">
<title>Node11&#45;&gt;Node10</title>
<path fill="none" stroke="#9a32cd" stroke-dasharray="5,2" d="M39.24,-272.93C59.28,-269.81 88.63,-265.25 113.78,-261.34"/>
<polygon fill="#9a32cd" stroke="#9a32cd" points="38.5,-269.5 29.16,-274.49 39.58,-276.42 38.5,-269.5"/>
<text text-anchor="middle" x="71.5" y="-274.62" font-family="Helvetica,sans-Serif" font-size="10.00"> keys</text>
</g>
<!-- Node12 -->
<g id="node12" class="node">
<title>Node12</title>
<g id="a_node12"><a xlink:title=" ">
<polygon fill="white" stroke="#bfbfbf" points="0,-214.12 0,-233.12 29,-233.12 29,-214.12 0,-214.12"/>
<text text-anchor="middle" x="14.5" y="-221.12" font-family="Helvetica,sans-Serif" font-size="10.00">T</text>
</a>
</g>
</g>
<!-- Node12&#45;&gt;Node10 -->
<g id="edge11" class="edge">
<title>Node12&#45;&gt;Node10</title>
<path fill="none" stroke="#9a32cd" stroke-dasharray="5,2" d="M39.01,-228.38C59.76,-232.59 90.63,-238.85 116.44,-244.08"/>
<polygon fill="#9a32cd" stroke="#9a32cd" points="39.65,-224.94 29.16,-226.39 38.26,-231.8 39.65,-224.94"/>
<text text-anchor="middle" x="71.5" y="-241.62" font-family="Helvetica,sans-Serif" font-size="10.00"> elements</text>
</g>
<!-- Node14 -->
<g id="node14" class="node">
<title>Node14</title>
<g id="a_node14"><a xlink:title="STL class.">
<polygon fill="white" stroke="#bfbfbf" points="233,-199.12 233,-218.12 333,-218.12 333,-199.12 233,-199.12"/>
<text text-anchor="middle" x="283" y="-206.12" font-family="Helvetica,sans-Serif" font-size="10.00">std::atomic&lt; T &gt;</text>
</a>
</g>
</g>
<!-- Node12&#45;&gt;Node14 -->
<g id="edge14" class="edge">
<title>Node12&#45;&gt;Node14</title>
<path fill="none" stroke="#9a32cd" stroke-dasharray="5,2" d="M39.03,-216.2C41.7,-215.57 44.39,-215.02 47,-214.62 110.54,-204.89 184.85,-204.86 232.62,-206.28"/>
<polygon fill="#9a32cd" stroke="#9a32cd" points="37.85,-212.89 29.13,-218.91 39.7,-219.64 37.85,-212.89"/>
<text text-anchor="middle" x="71.5" y="-217.62" font-family="Helvetica,sans-Serif" font-size="10.00"> ptr</text>
</g>
<!-- Node13 -->
<g id="node13" class="node">
<title>Node13</title>
<g id="a_node13"><a xlink:href="classitk_1_1TimeStamp.html" target="_top" xlink:title="Generate a unique, increasing time value.">
<polygon fill="white" stroke="black" points="658.5,-199.12 658.5,-218.12 750.5,-218.12 750.5,-199.12 658.5,-199.12"/>
<text text-anchor="middle" x="704.5" y="-206.12" font-family="Helvetica,sans-Serif" font-size="10.00">itk::TimeStamp</text>
</a>
</g>
</g>
<!-- Node13&#45;&gt;Node2 -->
<g id="edge27" class="edge">
<title>Node13&#45;&gt;Node2</title>
<path fill="none" stroke="#9a32cd" stroke-dasharray="5,2" d="M760.9,-200.36C806.04,-194.08 871.47,-185.95 929,-182.62 1067.22,-174.6 1230.61,-178.09 1311.83,-180.7"/>
<polygon fill="#9a32cd" stroke="#9a32cd" points="760.15,-196.93 750.74,-201.8 761.13,-203.87 760.15,-196.93"/>
<text text-anchor="middle" x="1013.5" y="-185.62" font-family="Helvetica,sans-Serif" font-size="10.00"> m_OutputInformationMTime</text>
</g>
<!-- Node13&#45;&gt;Node3 -->
<g id="edge12" class="edge">
<title>Node13&#45;&gt;Node3</title>
<path fill="none" stroke="#9a32cd" stroke-dasharray="5,2" d="M761.09,-209.34C824.93,-210.17 927.56,-211.51 979.75,-212.19"/>
<polygon fill="#9a32cd" stroke="#9a32cd" points="760.84,-205.84 750.8,-209.21 760.75,-212.84 760.84,-205.84"/>
<text text-anchor="middle" x="852.5" y="-213.62" font-family="Helvetica,sans-Serif" font-size="10.00"> m_MTime</text>
</g>
<!-- Node14&#45;&gt;Node13 -->
<g id="edge13" class="edge">
<title>Node14&#45;&gt;Node13</title>
<path fill="none" stroke="#9a32cd" stroke-dasharray="5,2" d="M343.61,-208.62C428.52,-208.62 582.42,-208.62 658.48,-208.62"/>
<polygon fill="#9a32cd" stroke="#9a32cd" points="343.36,-205.12 333.36,-208.62 343.36,-212.12 343.36,-205.12"/>
<text text-anchor="middle" x="425.5" y="-211.62" font-family="Helvetica,sans-Serif" font-size="10.00"> m_GlobalTimeStamp</text>
</g>
<!-- Node15&#45;&gt;Node2 -->
<g id="edge15" class="edge">
<title>Node15&#45;&gt;Node2</title>
<path fill="none" stroke="#9a32cd" stroke-dasharray="5,2" d="M1104.54,-314.59C1151.95,-305.87 1210.04,-291.33 1258,-267.62 1298.37,-247.66 1337.25,-209.83 1354.16,-192.16"/>
<polygon fill="#9a32cd" stroke="#9a32cd" points="1103.83,-311.16 1094.6,-316.36 1105.05,-318.05 1103.83,-311.16"/>
<text text-anchor="middle" x="1187" y="-314.62" font-family="Helvetica,sans-Serif" font-size="10.00"> m_RequiredInputNames</text>
</g>
<!-- Node16&#45;&gt;Node2 -->
<g id="edge17" class="edge">
<title>Node16&#45;&gt;Node2</title>
<path fill="none" stroke="#9a32cd" stroke-dasharray="5,2" d="M1100.53,-246.54C1147.26,-236.93 1205.97,-224.35 1258,-211.62 1282.43,-205.64 1309.82,-198.05 1330.49,-192.13"/>
<polygon fill="#9a32cd" stroke="#9a32cd" points="1099.54,-243.17 1090.44,-248.6 1100.94,-250.03 1099.54,-243.17"/>
<text text-anchor="start" x="1116" y="-255.62" font-family="Helvetica,sans-Serif" font-size="10.00"> m_CachedInputReleaseData</text>
<text text-anchor="middle" x="1187" y="-244.62" font-family="Helvetica,sans-Serif" font-size="10.00">Flags</text>
</g>
<!-- Node17 -->
<g id="node17" class="node">
<title>Node17</title>
<g id="a_node17"><a xlink:title=" ">
<polygon fill="white" stroke="#bfbfbf" points="946.5,-109.12 946.5,-128.12 1080.5,-128.12 1080.5,-109.12 946.5,-109.12"/>
<text text-anchor="middle" x="1013.5" y="-116.12" font-family="Helvetica,sans-Serif" font-size="10.00">std::atomic&lt; uint32_t &gt;</text>
</a>
</g>
</g>
<!-- Node17&#45;&gt;Node2 -->
<g id="edge19" class="edge">
<title>Node17&#45;&gt;Node2</title>
<path fill="none" stroke="#9a32cd" stroke-dasharray="5,2" d="M1090.75,-110.05C1141.14,-107.89 1207.04,-112.02 1258,-139.62 1269.41,-145.8 1265.05,-155.65 1276,-162.62 1286.72,-169.44 1299.5,-173.94 1311.92,-176.91"/>
<polygon fill="#9a32cd" stroke="#9a32cd" points="1090.37,-106.56 1080.57,-110.58 1090.73,-113.55 1090.37,-106.56"/>
<text text-anchor="middle" x="1187" y="-142.62" font-family="Helvetica,sans-Serif" font-size="10.00"> m_Progress</text>
</g>
<!-- Node18 -->
<g id="node18" class="node">
<title>Node18</title>
<g id="a_node18"><a xlink:title=" ">
<polygon fill="white" stroke="#bfbfbf" points="676.5,-109.12 676.5,-128.12 732.5,-128.12 732.5,-109.12 676.5,-109.12"/>
<text text-anchor="middle" x="704.5" y="-116.12" font-family="Helvetica,sans-Serif" font-size="10.00">uint32_t</text>
</a>
</g>
</g>
<!-- Node18&#45;&gt;Node17 -->
<g id="edge20" class="edge">
<title>Node18&#45;&gt;Node17</title>
<path fill="none" stroke="#9a32cd" stroke-dasharray="5,2" d="M742.88,-118.62C793.35,-118.62 884.11,-118.62 946.28,-118.62"/>
<polygon fill="#9a32cd" stroke="#9a32cd" points="742.74,-115.12 732.74,-118.62 742.74,-122.12 742.74,-115.12"/>
<text text-anchor="middle" x="852.5" y="-121.62" font-family="Helvetica,sans-Serif" font-size="10.00"> ptr</text>
</g>
<!-- Node19 -->
<g id="node19" class="node">
<title>Node19</title>
<g id="a_node19"><a xlink:title=" ">
<polygon fill="white" stroke="#bfbfbf" points="929,-59.62 929,-89.62 1098,-89.62 1098,-59.62 929,-59.62"/>
<text text-anchor="start" x="937" y="-77.62" font-family="Helvetica,sans-Serif" font-size="10.00">std::vector&lt; DataObjectPointer</text>
<text text-anchor="middle" x="1013.5" y="-66.62" font-family="Helvetica,sans-Serif" font-size="10.00">Map::iterator &gt;</text>
</a>
</g>
</g>
<!-- Node19&#45;&gt;Node2 -->
<g id="edge21" class="edge">
<title>Node19&#45;&gt;Node2</title>
<path fill="none" stroke="#9a32cd" stroke-dasharray="5,2" d="M1077.85,-57.56C1131.89,-47.12 1208.47,-42.59 1258,-83.62 1285.73,-106.59 1250.56,-137.13 1276,-162.62 1285.52,-172.16 1298.62,-177.53 1311.77,-180.45"/>
<polygon fill="#9a32cd" stroke="#9a32cd" points="1077.13,-54.14 1068.04,-59.57 1078.54,-61 1077.13,-54.14"/>
<text text-anchor="middle" x="1187" y="-97.62" font-family="Helvetica,sans-Serif" font-size="10.00"> m_IndexedOutputs</text>
<text text-anchor="middle" x="1187" y="-86.62" font-family="Helvetica,sans-Serif" font-size="10.00">m_IndexedInputs</text>
</g>
<!-- Node20 -->
<g id="node20" class="node">
<title>Node20</title>
<g id="a_node20"><a xlink:title="STL iterator class.">
<polygon fill="white" stroke="#bfbfbf" points="633,-65.12 633,-84.12 776,-84.12 776,-65.12 633,-65.12"/>
<text text-anchor="middle" x="704.5" y="-72.12" font-family="Helvetica,sans-Serif" font-size="10.00">std::map&lt; K, T &gt;::iterator</text>
</a>
</g>
</g>
<!-- Node20&#45;&gt;Node19 -->
<g id="edge22" class="edge">
<title>Node20&#45;&gt;Node19</title>
<path fill="none" stroke="#9a32cd" stroke-dasharray="5,2" d="M786.39,-74.62C830.34,-74.62 884.61,-74.62 928.97,-74.62"/>
<polygon fill="#9a32cd" stroke="#9a32cd" points="786.32,-71.12 776.32,-74.62 786.32,-78.12 786.32,-71.12"/>
<text text-anchor="middle" x="852.5" y="-77.62" font-family="Helvetica,sans-Serif" font-size="10.00"> elements</text>
</g>
<!-- Node21&#45;&gt;Node2 -->
<g id="edge23" class="edge">
<title>Node21&#45;&gt;Node2</title>
<path fill="none" stroke="#9a32cd" stroke-dasharray="5,2" d="M1108.15,-376.66C1156.18,-369.92 1213.72,-355.84 1258,-326.62 1311.71,-291.17 1347.46,-218.26 1358.97,-192.17"/>
<polygon fill="#9a32cd" stroke="#9a32cd" points="1107.51,-373.22 1098.05,-377.99 1108.42,-380.16 1107.51,-373.22"/>
<text text-anchor="middle" x="1187" y="-388.62" font-family="Helvetica,sans-Serif" font-size="10.00"> m_Outputs</text>
<text text-anchor="middle" x="1187" y="-377.62" font-family="Helvetica,sans-Serif" font-size="10.00">m_Inputs</text>
</g>
<!-- Node22 -->
<g id="node22" class="node">
<title>Node22</title>
<g id="a_node22"><a xlink:href="classitk_1_1SmartPointer.html" target="_top" xlink:title=" ">
<polygon fill="white" stroke="black" points="651,-401.62 651,-431.62 758,-431.62 758,-401.62 651,-401.62"/>
<text text-anchor="start" x="659" y="-419.62" font-family="Helvetica,sans-Serif" font-size="10.00">itk::SmartPointer&lt;</text>
<text text-anchor="middle" x="704.5" y="-408.62" font-family="Helvetica,sans-Serif" font-size="10.00"> Self &gt;</text>
</a>
</g>
</g>
<!-- Node22&#45;&gt;Node21 -->
<g id="edge24" class="edge">
<title>Node22&#45;&gt;Node21</title>
<path fill="none" stroke="#9a32cd" stroke-dasharray="5,2" d="M768.36,-410.07C809.05,-405.79 863.17,-400 911,-394.62 916.82,-393.96 922.82,-393.28 928.87,-392.58"/>
<polygon fill="#9a32cd" stroke="#9a32cd" points="767.89,-406.6 758.31,-411.13 768.62,-413.56 767.89,-406.6"/>
<text text-anchor="middle" x="852.5" y="-409.62" font-family="Helvetica,sans-Serif" font-size="10.00"> elements</text>
</g>
<!-- Node23 -->
<g id="node23" class="node">
<title>Node23</title>
<g id="a_node23"><a xlink:href="classitk_1_1SmartPointer.html" target="_top" xlink:title=" ">
<polygon fill="white" stroke="black" points="942.5,-10.62 942.5,-40.62 1084.5,-40.62 1084.5,-10.62 942.5,-10.62"/>
<text text-anchor="start" x="950.5" y="-28.62" font-family="Helvetica,sans-Serif" font-size="10.00">itk::SmartPointer&lt;</text>
<text text-anchor="middle" x="1013.5" y="-17.62" font-family="Helvetica,sans-Serif" font-size="10.00"> itk::MultiThreaderBase &gt;</text>
</a>
</g>
</g>
<!-- Node23&#45;&gt;Node2 -->
<g id="edge26" class="edge">
<title>Node23&#45;&gt;Node2</title>
<path fill="none" stroke="#9a32cd" stroke-dasharray="5,2" d="M1076.24,-8.38C1130.99,2.81 1209.56,8.21 1258,-35.62 1300.27,-73.87 1237.44,-120.63 1276,-162.62 1285.22,-172.66 1298.39,-178.17 1311.69,-181.06"/>
<polygon fill="#9a32cd" stroke="#9a32cd" points="1075.34,-4.99 1066.31,-10.52 1076.82,-11.83 1075.34,-4.99"/>
<text text-anchor="middle" x="1187" y="-38.62" font-family="Helvetica,sans-Serif" font-size="10.00"> m_MultiThreader</text>
</g>
<!-- Node24 -->
<g id="node24" class="node">
<title>Node24</title>
<g id="a_node24"><a xlink:href="structitk_1_1watershed_1_1Segmenter_1_1connectivity__t.html" target="_top" xlink:title=" ">
<polygon fill="white" stroke="black" points="1276,-123.62 1276,-153.62 1452,-153.62 1452,-123.62 1276,-123.62"/>
<text text-anchor="start" x="1284" y="-141.62" font-family="Helvetica,sans-Serif" font-size="10.00">itk::watershed::Segmenter</text>
<text text-anchor="middle" x="1364" y="-130.62" font-family="Helvetica,sans-Serif" font-size="10.00">&lt; TInputImage &gt;::connectivity_t</text>
</a>
</g>
</g>
<!-- Node24&#45;&gt;Node1 -->
<g id="edge28" class="edge">
<title>Node24&#45;&gt;Node1</title>
<path fill="none" stroke="#9a32cd" stroke-dasharray="5,2" d="M1462.19,-143.21C1496.98,-144.86 1535.54,-146.68 1567.84,-148.21"/>
<polygon fill="#9a32cd" stroke="#9a32cd" points="1462.17,-139.71 1452.01,-142.73 1461.84,-146.7 1462.17,-139.71"/>
<text text-anchor="middle" x="1510" y="-150.62" font-family="Helvetica,sans-Serif" font-size="10.00"> m_Connectivity</text>
</g>
</g>
</svg>
