<?xml version="1.0" encoding="UTF-8" standalone="no"?>
<!DOCTYPE svg PUBLIC "-//W3C//DTD SVG 1.1//EN"
 "http://www.w3.org/Graphics/SVG/1.1/DTD/svg11.dtd">
<!-- Generated by graphviz version 2.43.0 (0)
 -->
<!-- Title: itk::SPSAOptimizer Pages: 1 -->
<svg width="1904pt" height="264pt"
 viewBox="0.00 0.00 1904.00 263.50" xmlns="http://www.w3.org/2000/svg" xmlns:xlink="http://www.w3.org/1999/xlink">
<g id="graph0" class="graph" transform="scale(1 1) rotate(0) translate(4 259.5)">
<title>itk::SPSAOptimizer</title>
<polygon fill="white" stroke="transparent" points="-4,4 -4,-259.5 1900,-259.5 1900,4 -4,4"/>
<!-- Node1 -->
<g id="node1" class="node">
<title>Node1</title>
<g id="a_node1"><a xlink:title="An optimizer based on simultaneous perturbation...">
<polygon fill="#bfbfbf" stroke="black" points="1787,-15 1787,-34 1896,-34 1896,-15 1787,-15"/>
<text text-anchor="middle" x="1841.5" y="-22" font-family="Helvetica,sans-Serif" font-size="10.00">itk::SPSAOptimizer</text>
</a>
</g>
</g>
<!-- Node2 -->
<g id="node2" class="node">
<title>Node2</title>
<g id="a_node2"><a xlink:href="classitk_1_1SingleValuedNonLinearOptimizer.html" target="_top" xlink:title="This class is a base for the Optimization methods that optimize a single valued function.">
<polygon fill="white" stroke="black" points="1602,-37.5 1602,-67.5 1750,-67.5 1750,-37.5 1602,-37.5"/>
<text text-anchor="start" x="1610" y="-55.5" font-family="Helvetica,sans-Serif" font-size="10.00">itk::SingleValuedNonLinear</text>
<text text-anchor="middle" x="1676" y="-44.5" font-family="Helvetica,sans-Serif" font-size="10.00">Optimizer</text>
</a>
</g>
</g>
<!-- Node2&#45;&gt;Node1 -->
<g id="edge1" class="edge">
<title>Node2&#45;&gt;Node1</title>
<path fill="none" stroke="midnightblue" d="M1760.22,-38.25C1769.16,-36.72 1778.08,-35.19 1786.54,-33.74"/>
<polygon fill="midnightblue" stroke="midnightblue" points="1759.41,-34.84 1750.14,-39.97 1760.59,-41.74 1759.41,-34.84"/>
</g>
<!-- Node3 -->
<g id="node3" class="node">
<title>Node3</title>
<g id="a_node3"><a xlink:href="classitk_1_1NonLinearOptimizer.html" target="_top" xlink:title="Wrap of the vnl_nonlinear_minimizer to be adapted.">
<polygon fill="white" stroke="black" points="1351,-57 1351,-76 1484,-76 1484,-57 1351,-57"/>
<text text-anchor="middle" x="1417.5" y="-64" font-family="Helvetica,sans-Serif" font-size="10.00">itk::NonLinearOptimizer</text>
</a>
</g>
</g>
<!-- Node3&#45;&gt;Node2 -->
<g id="edge2" class="edge">
<title>Node3&#45;&gt;Node2</title>
<path fill="none" stroke="midnightblue" d="M1494.54,-62.35C1528.44,-60.5 1568.2,-58.33 1601.76,-56.5"/>
<polygon fill="midnightblue" stroke="midnightblue" points="1494.02,-58.87 1484.22,-62.91 1494.4,-65.86 1494.02,-58.87"/>
</g>
<!-- Node4 -->
<g id="node4" class="node">
<title>Node4</title>
<g id="a_node4"><a xlink:href="classitk_1_1Optimizer.html" target="_top" xlink:title="Generic representation for an optimization method.">
<polygon fill="white" stroke="black" points="1231,-57 1231,-76 1314,-76 1314,-57 1231,-57"/>
<text text-anchor="middle" x="1272.5" y="-64" font-family="Helvetica,sans-Serif" font-size="10.00">itk::Optimizer</text>
</a>
</g>
</g>
<!-- Node4&#45;&gt;Node3 -->
<g id="edge3" class="edge">
<title>Node4&#45;&gt;Node3</title>
<path fill="none" stroke="midnightblue" d="M1324.34,-66.5C1332.95,-66.5 1341.99,-66.5 1350.91,-66.5"/>
<polygon fill="midnightblue" stroke="midnightblue" points="1324.1,-63 1314.1,-66.5 1324.1,-70 1324.1,-63"/>
</g>
<!-- Node5 -->
<g id="node5" class="node">
<title>Node5</title>
<g id="a_node5"><a xlink:href="classitk_1_1Object.html" target="_top" xlink:title="Base class for most ITK classes.">
<polygon fill="white" stroke="black" points="998,-145 998,-164 1065,-164 1065,-145 998,-145"/>
<text text-anchor="middle" x="1031.5" y="-152" font-family="Helvetica,sans-Serif" font-size="10.00">itk::Object</text>
</a>
</g>
</g>
<!-- Node5&#45;&gt;Node4 -->
<g id="edge4" class="edge">
<title>Node5&#45;&gt;Node4</title>
<path fill="none" stroke="midnightblue" d="M1072.67,-141.82C1109.49,-129.93 1165.36,-111.23 1213,-92.5 1225.83,-87.46 1239.95,-81.2 1251.11,-76.09"/>
<polygon fill="midnightblue" stroke="midnightblue" points="1071.26,-138.59 1062.81,-144.98 1073.41,-145.26 1071.26,-138.59"/>
</g>
<!-- Node6 -->
<g id="node6" class="node">
<title>Node6</title>
<g id="a_node6"><a xlink:href="classitk_1_1LightObject.html" target="_top" xlink:title="Light weight base class for most itk classes.">
<polygon fill="white" stroke="black" points="678.5,-232 678.5,-251 769.5,-251 769.5,-232 678.5,-232"/>
<text text-anchor="middle" x="724" y="-239" font-family="Helvetica,sans-Serif" font-size="10.00">itk::LightObject</text>
</a>
</g>
</g>
<!-- Node6&#45;&gt;Node5 -->
<g id="edge5" class="edge">
<title>Node6&#45;&gt;Node5</title>
<path fill="none" stroke="midnightblue" d="M779.75,-235.48C824.76,-229.48 889.72,-218.37 944,-199.5 970.38,-190.33 998.69,-174.29 1015.48,-164.04"/>
<polygon fill="midnightblue" stroke="midnightblue" points="779.08,-232.04 769.61,-236.79 779.98,-238.98 779.08,-232.04"/>
</g>
<!-- Node7 -->
<g id="node7" class="node">
<title>Node7</title>
<g id="a_node7"><a xlink:title=" ">
<polygon fill="white" stroke="#bfbfbf" points="378,-236 378,-255 485,-255 485,-236 378,-236"/>
<text text-anchor="middle" x="431.5" y="-243" font-family="Helvetica,sans-Serif" font-size="10.00">std::atomic&lt; int &gt;</text>
</a>
</g>
</g>
<!-- Node7&#45;&gt;Node6 -->
<g id="edge6" class="edge">
<title>Node7&#45;&gt;Node6</title>
<path fill="none" stroke="#9a32cd" stroke-dasharray="5,2" d="M495.13,-244.64C550.33,-243.88 629.39,-242.79 678.4,-242.11"/>
<polygon fill="#9a32cd" stroke="#9a32cd" points="495.06,-241.14 485.11,-244.78 495.15,-248.14 495.06,-241.14"/>
<text text-anchor="middle" x="572.5" y="-246.5" font-family="Helvetica,sans-Serif" font-size="10.00"> m_ReferenceCount</text>
</g>
<!-- Node8 -->
<g id="node8" class="node">
<title>Node8</title>
<g id="a_node8"><a xlink:title="STL class.">
<polygon fill="white" stroke="#bfbfbf" points="691.5,-189 691.5,-208 756.5,-208 756.5,-189 691.5,-189"/>
<text text-anchor="middle" x="724" y="-196" font-family="Helvetica,sans-Serif" font-size="10.00">std::string</text>
</a>
</g>
</g>
<!-- Node8&#45;&gt;Node5 -->
<g id="edge7" class="edge">
<title>Node8&#45;&gt;Node5</title>
<path fill="none" stroke="#9a32cd" stroke-dasharray="5,2" d="M766.67,-193.49C810.78,-188.06 882.4,-178.92 944,-169.5 961.78,-166.78 981.55,-163.38 997.69,-160.51"/>
<polygon fill="#9a32cd" stroke="#9a32cd" points="766.11,-190.03 756.61,-194.72 766.96,-196.98 766.11,-190.03"/>
<text text-anchor="middle" x="885.5" y="-187.5" font-family="Helvetica,sans-Serif" font-size="10.00"> m_ObjectName</text>
</g>
<!-- Node9 -->
<g id="node9" class="node">
<title>Node9</title>
<g id="a_node9"><a xlink:title="STL class.">
<polygon fill="white" stroke="#bfbfbf" points="379.5,-186.5 379.5,-216.5 483.5,-216.5 483.5,-186.5 379.5,-186.5"/>
<text text-anchor="start" x="387.5" y="-204.5" font-family="Helvetica,sans-Serif" font-size="10.00">std::basic_string&lt;</text>
<text text-anchor="middle" x="431.5" y="-193.5" font-family="Helvetica,sans-Serif" font-size="10.00"> char &gt;</text>
</a>
</g>
</g>
<!-- Node9&#45;&gt;Node8 -->
<g id="edge8" class="edge">
<title>Node9&#45;&gt;Node8</title>
<path fill="none" stroke="midnightblue" d="M493.92,-200.87C554.22,-200.24 643.81,-199.32 691.1,-198.83"/>
<polygon fill="midnightblue" stroke="midnightblue" points="493.73,-197.37 483.77,-200.97 493.8,-204.37 493.73,-197.37"/>
</g>
<!-- Node10 -->
<g id="node10" class="node">
<title>Node10</title>
<g id="a_node10"><a xlink:href="classitk_1_1MetaDataDictionary.html" target="_top" xlink:title="Provides a mechanism for storing a collection of arbitrary data types.">
<polygon fill="white" stroke="black" points="657,-145 657,-164 791,-164 791,-145 657,-145"/>
<text text-anchor="middle" x="724" y="-152" font-family="Helvetica,sans-Serif" font-size="10.00">itk::MetaDataDictionary</text>
</a>
</g>
</g>
<!-- Node10&#45;&gt;Node5 -->
<g id="edge9" class="edge">
<title>Node10&#45;&gt;Node5</title>
<path fill="none" stroke="#9a32cd" stroke-dasharray="5,2" d="M801.61,-154.5C864.74,-154.5 951.2,-154.5 997.7,-154.5"/>
<polygon fill="#9a32cd" stroke="#9a32cd" points="801.29,-151 791.29,-154.5 801.29,-158 801.29,-151"/>
<text text-anchor="middle" x="885.5" y="-157.5" font-family="Helvetica,sans-Serif" font-size="10.00"> m_MetaDataDictionary</text>
</g>
<!-- Node11 -->
<g id="node11" class="node">
<title>Node11</title>
<g id="a_node11"><a xlink:title=" ">
<polygon fill="white" stroke="#bfbfbf" points="357,-137.5 357,-167.5 506,-167.5 506,-137.5 357,-137.5"/>
<text text-anchor="start" x="365" y="-155.5" font-family="Helvetica,sans-Serif" font-size="10.00">std::shared_ptr&lt; MetaData</text>
<text text-anchor="middle" x="431.5" y="-144.5" font-family="Helvetica,sans-Serif" font-size="10.00">DictionaryMapType &gt;</text>
</a>
</g>
</g>
<!-- Node11&#45;&gt;Node10 -->
<g id="edge10" class="edge">
<title>Node11&#45;&gt;Node10</title>
<path fill="none" stroke="#9a32cd" stroke-dasharray="5,2" d="M516.43,-153.08C561.08,-153.39 615.2,-153.76 656.84,-154.04"/>
<polygon fill="#9a32cd" stroke="#9a32cd" points="516.2,-149.58 506.18,-153.01 516.16,-156.58 516.2,-149.58"/>
<text text-anchor="middle" x="572.5" y="-156.5" font-family="Helvetica,sans-Serif" font-size="10.00"> m_Dictionary</text>
</g>
<!-- Node12 -->
<g id="node12" class="node">
<title>Node12</title>
<g id="a_node12"><a xlink:title="STL class.">
<polygon fill="white" stroke="#bfbfbf" points="114,-143 114,-162 215,-162 215,-143 114,-143"/>
<text text-anchor="middle" x="164.5" y="-150" font-family="Helvetica,sans-Serif" font-size="10.00">std::map&lt; K, T &gt;</text>
</a>
</g>
</g>
<!-- Node12&#45;&gt;Node11 -->
<g id="edge11" class="edge">
<title>Node12&#45;&gt;Node11</title>
<path fill="none" stroke="#9a32cd" stroke-dasharray="5,2" d="M225.18,-152.5C264.19,-152.5 315.41,-152.5 356.93,-152.5"/>
<polygon fill="#9a32cd" stroke="#9a32cd" points="225.03,-149 215.03,-152.5 225.03,-156 225.03,-149"/>
<text text-anchor="middle" x="286" y="-155.5" font-family="Helvetica,sans-Serif" font-size="10.00"> ptr</text>
</g>
<!-- Node13 -->
<g id="node13" class="node">
<title>Node13</title>
<g id="a_node13"><a xlink:title=" ">
<polygon fill="white" stroke="#bfbfbf" points="0,-167 0,-186 29,-186 29,-167 0,-167"/>
<text text-anchor="middle" x="14.5" y="-174" font-family="Helvetica,sans-Serif" font-size="10.00">K</text>
</a>
</g>
</g>
<!-- Node13&#45;&gt;Node12 -->
<g id="edge12" class="edge">
<title>Node13&#45;&gt;Node12</title>
<path fill="none" stroke="#9a32cd" stroke-dasharray="5,2" d="M39.24,-172.65C59.28,-169.4 88.63,-164.64 113.78,-160.56"/>
<polygon fill="#9a32cd" stroke="#9a32cd" points="38.47,-169.23 29.16,-174.29 39.59,-176.14 38.47,-169.23"/>
<text text-anchor="middle" x="71.5" y="-173.5" font-family="Helvetica,sans-Serif" font-size="10.00"> keys</text>
</g>
<!-- Node14 -->
<g id="node14" class="node">
<title>Node14</title>
<g id="a_node14"><a xlink:title=" ">
<polygon fill="white" stroke="#bfbfbf" points="0,-114 0,-133 29,-133 29,-114 0,-114"/>
<text text-anchor="middle" x="14.5" y="-121" font-family="Helvetica,sans-Serif" font-size="10.00">T</text>
</a>
</g>
</g>
<!-- Node14&#45;&gt;Node12 -->
<g id="edge13" class="edge">
<title>Node14&#45;&gt;Node12</title>
<path fill="none" stroke="#9a32cd" stroke-dasharray="5,2" d="M39.09,-128.12C59.39,-132.1 89.35,-137.97 114.78,-142.95"/>
<polygon fill="#9a32cd" stroke="#9a32cd" points="39.64,-124.66 29.16,-126.18 38.3,-131.53 39.64,-124.66"/>
<text text-anchor="middle" x="71.5" y="-141.5" font-family="Helvetica,sans-Serif" font-size="10.00"> elements</text>
</g>
<!-- Node16 -->
<g id="node16" class="node">
<title>Node16</title>
<g id="a_node16"><a xlink:title="STL class.">
<polygon fill="white" stroke="#bfbfbf" points="114.5,-99 114.5,-118 214.5,-118 214.5,-99 114.5,-99"/>
<text text-anchor="middle" x="164.5" y="-106" font-family="Helvetica,sans-Serif" font-size="10.00">std::atomic&lt; T &gt;</text>
</a>
</g>
</g>
<!-- Node14&#45;&gt;Node16 -->
<g id="edge16" class="edge">
<title>Node14&#45;&gt;Node16</title>
<path fill="none" stroke="#9a32cd" stroke-dasharray="5,2" d="M38.4,-112.04C41.24,-111.01 44.15,-110.12 47,-109.5 68.74,-104.79 93.31,-103.94 114.26,-104.51"/>
<polygon fill="#9a32cd" stroke="#9a32cd" points="37.03,-108.82 29.19,-115.95 39.77,-115.27 37.03,-108.82"/>
<text text-anchor="middle" x="71.5" y="-112.5" font-family="Helvetica,sans-Serif" font-size="10.00"> ptr</text>
</g>
<!-- Node15 -->
<g id="node15" class="node">
<title>Node15</title>
<g id="a_node15"><a xlink:href="classitk_1_1TimeStamp.html" target="_top" xlink:title="Generate a unique, increasing time value.">
<polygon fill="white" stroke="black" points="526.5,-102 526.5,-121 618.5,-121 618.5,-102 526.5,-102"/>
<text text-anchor="middle" x="572.5" y="-109" font-family="Helvetica,sans-Serif" font-size="10.00">itk::TimeStamp</text>
</a>
</g>
</g>
<!-- Node15&#45;&gt;Node5 -->
<g id="edge14" class="edge">
<title>Node15&#45;&gt;Node5</title>
<path fill="none" stroke="#9a32cd" stroke-dasharray="5,2" d="M628.86,-113.31C676.64,-115.18 747.48,-118.64 809,-124.5 876.41,-130.92 954.84,-142.52 997.94,-149.26"/>
<polygon fill="#9a32cd" stroke="#9a32cd" points="628.85,-109.81 618.73,-112.93 628.59,-116.81 628.85,-109.81"/>
<text text-anchor="middle" x="724" y="-127.5" font-family="Helvetica,sans-Serif" font-size="10.00"> m_MTime</text>
</g>
<!-- Node16&#45;&gt;Node15 -->
<g id="edge15" class="edge">
<title>Node16&#45;&gt;Node15</title>
<path fill="none" stroke="#9a32cd" stroke-dasharray="5,2" d="M225.03,-108.94C306.93,-109.55 452.57,-110.62 526.2,-111.17"/>
<polygon fill="#9a32cd" stroke="#9a32cd" points="224.9,-105.44 214.88,-108.86 224.85,-112.44 224.9,-105.44"/>
<text text-anchor="middle" x="286" y="-112.5" font-family="Helvetica,sans-Serif" font-size="10.00"> m_GlobalTimeStamp</text>
</g>
<!-- Node17 -->
<g id="node17" class="node">
<title>Node17</title>
<g id="a_node17"><a xlink:href="classitk_1_1Array.html" target="_top" xlink:title=" ">
<polygon fill="white" stroke="black" points="665.5,-3 665.5,-22 782.5,-22 782.5,-3 665.5,-3"/>
<text text-anchor="middle" x="724" y="-10" font-family="Helvetica,sans-Serif" font-size="10.00">itk::Array&lt; double &gt;</text>
</a>
</g>
</g>
<!-- Node17&#45;&gt;Node4 -->
<g id="edge17" class="edge">
<title>Node17&#45;&gt;Node4</title>
<path fill="none" stroke="#9a32cd" stroke-dasharray="5,2" d="M793.02,-9.03C868.64,-6.31 994.21,-5.19 1101,-20.5 1152.59,-27.9 1210.85,-45.75 1244.17,-56.92"/>
<polygon fill="#9a32cd" stroke="#9a32cd" points="792.54,-5.54 782.68,-9.42 792.81,-12.54 792.54,-5.54"/>
<text text-anchor="middle" x="1031.5" y="-34.5" font-family="Helvetica,sans-Serif" font-size="10.00"> m_InverseScales</text>
<text text-anchor="middle" x="1031.5" y="-23.5" font-family="Helvetica,sans-Serif" font-size="10.00">m_Scales</text>
</g>
<!-- Node19 -->
<g id="node19" class="node">
<title>Node19</title>
<g id="a_node19"><a xlink:href="classitk_1_1OptimizerParameters.html" target="_top" xlink:title=" ">
<polygon fill="white" stroke="black" points="962,-51.5 962,-81.5 1101,-81.5 1101,-51.5 962,-51.5"/>
<text text-anchor="start" x="970" y="-69.5" font-family="Helvetica,sans-Serif" font-size="10.00">itk::OptimizerParameters</text>
<text text-anchor="middle" x="1031.5" y="-58.5" font-family="Helvetica,sans-Serif" font-size="10.00">&lt; double &gt;</text>
</a>
</g>
</g>
<!-- Node17&#45;&gt;Node19 -->
<g id="edge20" class="edge">
<title>Node17&#45;&gt;Node19</title>
<path fill="none" stroke="midnightblue" d="M789.08,-23.83C839.67,-32.77 910.12,-45.22 961.86,-54.37"/>
<polygon fill="midnightblue" stroke="midnightblue" points="789.37,-20.32 778.91,-22.03 788.15,-27.22 789.37,-20.32"/>
</g>
<!-- Node18 -->
<g id="node18" class="node">
<title>Node18</title>
<g id="a_node18"><a xlink:title=" ">
<polygon fill="white" stroke="#bfbfbf" points="370,-3 370,-22 493,-22 493,-3 370,-3"/>
<text text-anchor="middle" x="431.5" y="-10" font-family="Helvetica,sans-Serif" font-size="10.00">vnl_vector&lt; double &gt;</text>
</a>
</g>
</g>
<!-- Node18&#45;&gt;Node17 -->
<g id="edge18" class="edge">
<title>Node18&#45;&gt;Node17</title>
<path fill="none" stroke="midnightblue" d="M503.07,-12.5C552.73,-12.5 618.4,-12.5 665.01,-12.5"/>
<polygon fill="midnightblue" stroke="midnightblue" points="503.04,-9 493.04,-12.5 503.04,-16 503.04,-9"/>
</g>
<!-- Node19&#45;&gt;Node4 -->
<g id="edge19" class="edge">
<title>Node19&#45;&gt;Node4</title>
<path fill="none" stroke="#9a32cd" stroke-dasharray="5,2" d="M1111.56,-66.5C1151.47,-66.5 1198.21,-66.5 1230.81,-66.5"/>
<polygon fill="#9a32cd" stroke="#9a32cd" points="1111.31,-63 1101.31,-66.5 1111.31,-70 1111.31,-63"/>
<text text-anchor="middle" x="1166" y="-80.5" font-family="Helvetica,sans-Serif" font-size="10.00"> m_CurrentPosition</text>
<text text-anchor="middle" x="1166" y="-69.5" font-family="Helvetica,sans-Serif" font-size="10.00">m_InitialPosition</text>
</g>
<!-- Node20 -->
<g id="node20" class="node">
<title>Node20</title>
<g id="a_node20"><a xlink:title=" ">
<polygon fill="white" stroke="#bfbfbf" points="639,-48.5 639,-78.5 809,-78.5 809,-48.5 639,-48.5"/>
<text text-anchor="start" x="647" y="-66.5" font-family="Helvetica,sans-Serif" font-size="10.00">std::unique_ptr&lt; itk</text>
<text text-anchor="middle" x="724" y="-55.5" font-family="Helvetica,sans-Serif" font-size="10.00">::OptimizerParametersHelper &gt;</text>
</a>
</g>
</g>
<!-- Node20&#45;&gt;Node19 -->
<g id="edge21" class="edge">
<title>Node20&#45;&gt;Node19</title>
<path fill="none" stroke="#9a32cd" stroke-dasharray="5,2" d="M819.29,-64.43C865.39,-64.88 919.84,-65.41 961.92,-65.83"/>
<polygon fill="#9a32cd" stroke="#9a32cd" points="819.32,-60.93 809.29,-64.33 819.25,-67.93 819.32,-60.93"/>
<text text-anchor="middle" x="885.5" y="-68.5" font-family="Helvetica,sans-Serif" font-size="10.00"> m_Helper</text>
</g>
<!-- Node21 -->
<g id="node21" class="node">
<title>Node21</title>
<g id="a_node21"><a xlink:href="classitk_1_1OptimizerParametersHelper.html" target="_top" xlink:title="Basic helper class to manage parameter data as an Array type, the default type.">
<polygon fill="white" stroke="black" points="362,-48.5 362,-78.5 501,-78.5 501,-48.5 362,-48.5"/>
<text text-anchor="start" x="370" y="-66.5" font-family="Helvetica,sans-Serif" font-size="10.00">itk::OptimizerParameters</text>
<text text-anchor="middle" x="431.5" y="-55.5" font-family="Helvetica,sans-Serif" font-size="10.00">Helper&lt; TValue &gt;</text>
</a>
</g>
</g>
<!-- Node21&#45;&gt;Node20 -->
<g id="edge22" class="edge">
<title>Node21&#45;&gt;Node20</title>
<path fill="none" stroke="#9a32cd" stroke-dasharray="5,2" d="M511.45,-63.5C550.91,-63.5 598.68,-63.5 638.84,-63.5"/>
<polygon fill="#9a32cd" stroke="#9a32cd" points="511.34,-60 501.34,-63.5 511.34,-67 511.34,-60"/>
<text text-anchor="middle" x="572.5" y="-66.5" font-family="Helvetica,sans-Serif" font-size="10.00"> ptr</text>
</g>
<!-- Node22 -->
<g id="node22" class="node">
<title>Node22</title>
<g id="a_node22"><a xlink:href="classitk_1_1SmartPointer.html" target="_top" xlink:title=" ">
<polygon fill="white" stroke="black" points="1364,-0.5 1364,-30.5 1471,-30.5 1471,-0.5 1364,-0.5"/>
<text text-anchor="start" x="1372" y="-18.5" font-family="Helvetica,sans-Serif" font-size="10.00">itk::SmartPointer&lt;</text>
<text text-anchor="middle" x="1417.5" y="-7.5" font-family="Helvetica,sans-Serif" font-size="10.00"> Self &gt;</text>
</a>
</g>
</g>
<!-- Node22&#45;&gt;Node1 -->
<g id="edge24" class="edge">
<title>Node22&#45;&gt;Node1</title>
<path fill="none" stroke="#9a32cd" stroke-dasharray="5,2" d="M1481.4,-14.55C1548.1,-13.85 1656.53,-13.61 1750,-17.5 1761.97,-18 1774.8,-18.82 1786.94,-19.72"/>
<polygon fill="#9a32cd" stroke="#9a32cd" points="1481.02,-11.05 1471.06,-14.66 1481.1,-18.05 1481.02,-11.05"/>
<text text-anchor="middle" x="1676" y="-20.5" font-family="Helvetica,sans-Serif" font-size="10.00"> m_Generator</text>
</g>
<!-- Node22&#45;&gt;Node2 -->
<g id="edge23" class="edge">
<title>Node22&#45;&gt;Node2</title>
<path fill="none" stroke="#9a32cd" stroke-dasharray="5,2" d="M1481.02,-24.52C1517.43,-29.77 1563.52,-36.42 1601.64,-41.92"/>
<polygon fill="#9a32cd" stroke="#9a32cd" points="1481.42,-21.04 1471.03,-23.08 1480.42,-27.97 1481.42,-21.04"/>
<text text-anchor="middle" x="1543" y="-41.5" font-family="Helvetica,sans-Serif" font-size="10.00"> m_CostFunction</text>
</g>
</g>
</svg>
