<?xml version="1.0" encoding="UTF-8" standalone="no"?>
<!DOCTYPE svg PUBLIC "-//W3C//DTD SVG 1.1//EN"
 "http://www.w3.org/Graphics/SVG/1.1/DTD/svg11.dtd">
<!-- Generated by graphviz version 2.43.0 (0)
 -->
<!-- Title: itk::AntiAliasBinaryImageFilter&lt; TInputImage, TOutputImage &gt; Pages: 1 -->
<svg width="396pt" height="553pt"
 viewBox="0.00 0.00 396.00 553.00" xmlns="http://www.w3.org/2000/svg" xmlns:xlink="http://www.w3.org/1999/xlink">
<g id="graph0" class="graph" transform="scale(1 1) rotate(0) translate(4 549)">
<title>itk::AntiAliasBinaryImageFilter&lt; TInputImage, TOutputImage &gt;</title>
<polygon fill="white" stroke="transparent" points="-4,4 -4,-549 392,-549 392,4 -4,4"/>
<!-- Node1 -->
<g id="node1" class="node">
<title>Node1</title>
<g id="a_node1"><a xlink:title="A method for estimation of a surface from a binary volume.">
<polygon fill="#bfbfbf" stroke="black" points="110.5,-0.5 110.5,-30.5 311.5,-30.5 311.5,-0.5 110.5,-0.5"/>
<text text-anchor="start" x="118.5" y="-18.5" font-family="Helvetica,sans-Serif" font-size="10.00">itk::AntiAliasBinaryImage</text>
<text text-anchor="middle" x="211" y="-7.5" font-family="Helvetica,sans-Serif" font-size="10.00">Filter&lt; TInputImage, TOutputImage &gt;</text>
</a>
</g>
</g>
<!-- Node2 -->
<g id="node2" class="node">
<title>Node2</title>
<g id="a_node2"><a xlink:href="classitk_1_1SparseFieldLevelSetImageFilter.html" target="_top" xlink:title="This class implements a finite difference partial differential equation solver for evolving surfaces ...">
<polygon fill="white" stroke="black" points="137,-67.5 137,-108.5 285,-108.5 285,-67.5 137,-67.5"/>
<text text-anchor="start" x="145" y="-96.5" font-family="Helvetica,sans-Serif" font-size="10.00">itk::SparseFieldLevelSet</text>
<text text-anchor="start" x="145" y="-85.5" font-family="Helvetica,sans-Serif" font-size="10.00">ImageFilter&lt; TInputImage,</text>
<text text-anchor="middle" x="211" y="-74.5" font-family="Helvetica,sans-Serif" font-size="10.00"> TOutputImage &gt;</text>
</a>
</g>
</g>
<!-- Node2&#45;&gt;Node1 -->
<g id="edge1" class="edge">
<title>Node2&#45;&gt;Node1</title>
<path fill="none" stroke="midnightblue" d="M211,-57.08C211,-48.01 211,-38.45 211,-30.89"/>
<polygon fill="midnightblue" stroke="midnightblue" points="207.5,-57.36 211,-67.36 214.5,-57.36 207.5,-57.36"/>
</g>
<!-- Node3 -->
<g id="node3" class="node">
<title>Node3</title>
<g id="a_node3"><a xlink:href="classitk_1_1FiniteDifferenceImageFilter.html" target="_top" xlink:title=" ">
<polygon fill="white" stroke="black" points="110.5,-145.5 110.5,-175.5 311.5,-175.5 311.5,-145.5 110.5,-145.5"/>
<text text-anchor="start" x="118.5" y="-163.5" font-family="Helvetica,sans-Serif" font-size="10.00">itk::FiniteDifferenceImage</text>
<text text-anchor="middle" x="211" y="-152.5" font-family="Helvetica,sans-Serif" font-size="10.00">Filter&lt; TInputImage, TOutputImage &gt;</text>
</a>
</g>
</g>
<!-- Node3&#45;&gt;Node2 -->
<g id="edge2" class="edge">
<title>Node3&#45;&gt;Node2</title>
<path fill="none" stroke="midnightblue" d="M211,-134.98C211,-126.35 211,-116.76 211,-108.59"/>
<polygon fill="midnightblue" stroke="midnightblue" points="207.5,-135.23 211,-145.23 214.5,-135.23 207.5,-135.23"/>
</g>
<!-- Node4 -->
<g id="node4" class="node">
<title>Node4</title>
<g id="a_node4"><a xlink:href="classitk_1_1InPlaceImageFilter.html" target="_top" xlink:title="Base class for filters that take an image as input and overwrite that image as the output.">
<polygon fill="white" stroke="black" points="123,-212.5 123,-242.5 299,-242.5 299,-212.5 123,-212.5"/>
<text text-anchor="start" x="131" y="-230.5" font-family="Helvetica,sans-Serif" font-size="10.00">itk::InPlaceImageFilter</text>
<text text-anchor="middle" x="211" y="-219.5" font-family="Helvetica,sans-Serif" font-size="10.00">&lt; TInputImage, TOutputImage &gt;</text>
</a>
</g>
</g>
<!-- Node4&#45;&gt;Node3 -->
<g id="edge3" class="edge">
<title>Node4&#45;&gt;Node3</title>
<path fill="none" stroke="midnightblue" d="M211,-202.11C211,-193.15 211,-183.32 211,-175.58"/>
<polygon fill="midnightblue" stroke="midnightblue" points="207.5,-202.4 211,-212.4 214.5,-202.4 207.5,-202.4"/>
</g>
<!-- Node5 -->
<g id="node5" class="node">
<title>Node5</title>
<g id="a_node5"><a xlink:href="classitk_1_1ImageToImageFilter.html" target="_top" xlink:title=" ">
<polygon fill="white" stroke="black" points="127,-279.5 127,-309.5 295,-309.5 295,-279.5 127,-279.5"/>
<text text-anchor="start" x="135" y="-297.5" font-family="Helvetica,sans-Serif" font-size="10.00">itk::ImageToImageFilter</text>
<text text-anchor="middle" x="211" y="-286.5" font-family="Helvetica,sans-Serif" font-size="10.00">&lt; TInputImage, TInputImage &gt;</text>
</a>
</g>
</g>
<!-- Node5&#45;&gt;Node4 -->
<g id="edge4" class="edge">
<title>Node5&#45;&gt;Node4</title>
<path fill="none" stroke="midnightblue" d="M211,-269.11C211,-260.15 211,-250.32 211,-242.58"/>
<polygon fill="midnightblue" stroke="midnightblue" points="207.5,-269.4 211,-279.4 214.5,-269.4 207.5,-269.4"/>
</g>
<!-- Node6 -->
<g id="node6" class="node">
<title>Node6</title>
<g id="a_node6"><a xlink:href="classitk_1_1ImageSource.html" target="_top" xlink:title=" ">
<polygon fill="white" stroke="black" points="52.5,-346.5 52.5,-376.5 193.5,-376.5 193.5,-346.5 52.5,-346.5"/>
<text text-anchor="start" x="60.5" y="-364.5" font-family="Helvetica,sans-Serif" font-size="10.00">itk::ImageSource&lt; TInput</text>
<text text-anchor="middle" x="123" y="-353.5" font-family="Helvetica,sans-Serif" font-size="10.00">Image &gt;</text>
</a>
</g>
</g>
<!-- Node6&#45;&gt;Node5 -->
<g id="edge5" class="edge">
<title>Node6&#45;&gt;Node5</title>
<path fill="none" stroke="midnightblue" d="M150.14,-340.45C163.68,-330.45 179.73,-318.6 191.94,-309.58"/>
<polygon fill="midnightblue" stroke="midnightblue" points="148.06,-337.64 142.09,-346.4 152.22,-343.27 148.06,-337.64"/>
</g>
<!-- Node7 -->
<g id="node7" class="node">
<title>Node7</title>
<g id="a_node7"><a xlink:href="classitk_1_1ProcessObject.html" target="_top" xlink:title="The base class for all process objects (source, filters, mappers) in the Insight data processing pipe...">
<polygon fill="white" stroke="black" points="0,-413.5 0,-432.5 104,-432.5 104,-413.5 0,-413.5"/>
<text text-anchor="middle" x="52" y="-420.5" font-family="Helvetica,sans-Serif" font-size="10.00">itk::ProcessObject</text>
</a>
</g>
</g>
<!-- Node7&#45;&gt;Node6 -->
<g id="edge6" class="edge">
<title>Node7&#45;&gt;Node6</title>
<path fill="none" stroke="midnightblue" d="M69.99,-406.92C81.14,-397.58 95.36,-385.66 106.27,-376.52"/>
<polygon fill="midnightblue" stroke="midnightblue" points="67.59,-404.37 62.17,-413.48 72.09,-409.73 67.59,-404.37"/>
</g>
<!-- Node8 -->
<g id="node8" class="node">
<title>Node8</title>
<g id="a_node8"><a xlink:href="classitk_1_1Object.html" target="_top" xlink:title="Base class for most ITK classes.">
<polygon fill="white" stroke="black" points="18.5,-469.5 18.5,-488.5 85.5,-488.5 85.5,-469.5 18.5,-469.5"/>
<text text-anchor="middle" x="52" y="-476.5" font-family="Helvetica,sans-Serif" font-size="10.00">itk::Object</text>
</a>
</g>
</g>
<!-- Node8&#45;&gt;Node7 -->
<g id="edge7" class="edge">
<title>Node8&#45;&gt;Node7</title>
<path fill="none" stroke="midnightblue" d="M52,-458.8C52,-449.91 52,-439.78 52,-432.75"/>
<polygon fill="midnightblue" stroke="midnightblue" points="48.5,-459.08 52,-469.08 55.5,-459.08 48.5,-459.08"/>
</g>
<!-- Node9 -->
<g id="node9" class="node">
<title>Node9</title>
<g id="a_node9"><a xlink:href="classitk_1_1LightObject.html" target="_top" xlink:title="Light weight base class for most itk classes.">
<polygon fill="white" stroke="black" points="6.5,-525.5 6.5,-544.5 97.5,-544.5 97.5,-525.5 6.5,-525.5"/>
<text text-anchor="middle" x="52" y="-532.5" font-family="Helvetica,sans-Serif" font-size="10.00">itk::LightObject</text>
</a>
</g>
</g>
<!-- Node9&#45;&gt;Node8 -->
<g id="edge8" class="edge">
<title>Node9&#45;&gt;Node8</title>
<path fill="none" stroke="midnightblue" d="M52,-514.8C52,-505.91 52,-495.78 52,-488.75"/>
<polygon fill="midnightblue" stroke="midnightblue" points="48.5,-515.08 52,-525.08 55.5,-515.08 48.5,-515.08"/>
</g>
<!-- Node10 -->
<g id="node10" class="node">
<title>Node10</title>
<g id="a_node10"><a xlink:href="structitk_1_1ImageSourceCommon.html" target="_top" xlink:title="Secondary base class of ImageSource common between templates.">
<polygon fill="white" stroke="black" points="122.5,-413.5 122.5,-432.5 265.5,-432.5 265.5,-413.5 122.5,-413.5"/>
<text text-anchor="middle" x="194" y="-420.5" font-family="Helvetica,sans-Serif" font-size="10.00">itk::ImageSourceCommon</text>
</a>
</g>
</g>
<!-- Node10&#45;&gt;Node6 -->
<g id="edge9" class="edge">
<title>Node10&#45;&gt;Node6</title>
<path fill="none" stroke="#8b1a1a" d="M176.01,-406.92C164.86,-397.58 150.64,-385.66 139.73,-376.52"/>
<polygon fill="#8b1a1a" stroke="#8b1a1a" points="173.91,-409.73 183.83,-413.48 178.41,-404.37 173.91,-409.73"/>
</g>
<!-- Node11 -->
<g id="node11" class="node">
<title>Node11</title>
<g id="a_node11"><a xlink:href="classitk_1_1ImageToImageFilterCommon.html" target="_top" xlink:title="Secondary base class of ImageToImageFilter common between templates.">
<polygon fill="white" stroke="black" points="212,-352 212,-371 388,-371 388,-352 212,-352"/>
<text text-anchor="middle" x="300" y="-359" font-family="Helvetica,sans-Serif" font-size="10.00">itk::ImageToImageFilterCommon</text>
</a>
</g>
</g>
<!-- Node11&#45;&gt;Node5 -->
<g id="edge10" class="edge">
<title>Node11&#45;&gt;Node5</title>
<path fill="none" stroke="#8b1a1a" d="M279.52,-345.54C264.71,-334.73 244.82,-320.2 230.29,-309.59"/>
<polygon fill="#8b1a1a" stroke="#8b1a1a" points="277.86,-348.66 288,-351.73 281.99,-343.01 277.86,-348.66"/>
</g>
</g>
</svg>
