<?xml version="1.0" encoding="UTF-8" standalone="no"?>
<!DOCTYPE svg PUBLIC "-//W3C//DTD SVG 1.1//EN"
 "http://www.w3.org/Graphics/SVG/1.1/DTD/svg11.dtd">
<!-- Generated by graphviz version 2.43.0 (0)
 -->
<!-- Title: itk::ConnectedRegionsMeshFilter&lt; TInputMesh, TOutputMesh &gt; Pages: 1 -->
<svg width="2080pt" height="434pt"
 viewBox="0.00 0.00 2080.00 434.00" xmlns="http://www.w3.org/2000/svg" xmlns:xlink="http://www.w3.org/1999/xlink">
<g id="graph0" class="graph" transform="scale(1 1) rotate(0) translate(4 430)">
<title>itk::ConnectedRegionsMeshFilter&lt; TInputMesh, TOutputMesh &gt;</title>
<polygon fill="white" stroke="transparent" points="-4,4 -4,-430 2076,-430 2076,4 -4,4"/>
<!-- Node1 -->
<g id="node1" class="node">
<title>Node1</title>
<g id="a_node1"><a xlink:title="Extract portions of a mesh that are connected at vertices.">
<polygon fill="#bfbfbf" stroke="black" points="1880,-77.5 1880,-107.5 2072,-107.5 2072,-77.5 1880,-77.5"/>
<text text-anchor="start" x="1888" y="-95.5" font-family="Helvetica,sans-Serif" font-size="10.00">itk::ConnectedRegionsMesh</text>
<text text-anchor="middle" x="1976" y="-84.5" font-family="Helvetica,sans-Serif" font-size="10.00">Filter&lt; TInputMesh, TOutputMesh &gt;</text>
</a>
</g>
</g>
<!-- Node2 -->
<g id="node2" class="node">
<title>Node2</title>
<g id="a_node2"><a xlink:href="classitk_1_1MeshToMeshFilter.html" target="_top" xlink:title="MeshToMeshFilter is the base class for all process objects that output mesh data, and require mesh da...">
<polygon fill="white" stroke="black" points="1599,-155.5 1599,-185.5 1766,-185.5 1766,-155.5 1599,-155.5"/>
<text text-anchor="start" x="1607" y="-173.5" font-family="Helvetica,sans-Serif" font-size="10.00">itk::MeshToMeshFilter</text>
<text text-anchor="middle" x="1682.5" y="-162.5" font-family="Helvetica,sans-Serif" font-size="10.00">&lt; TInputMesh, TOutputMesh &gt;</text>
</a>
</g>
</g>
<!-- Node2&#45;&gt;Node1 -->
<g id="edge1" class="edge">
<title>Node2&#45;&gt;Node1</title>
<path fill="none" stroke="midnightblue" d="M1766.07,-153.17C1796.39,-146.38 1830.9,-138.14 1862,-129.5 1885.37,-123 1911.09,-114.68 1932.08,-107.57"/>
<polygon fill="midnightblue" stroke="midnightblue" points="1764.96,-149.83 1755.96,-155.42 1766.48,-156.67 1764.96,-149.83"/>
</g>
<!-- Node3 -->
<g id="node3" class="node">
<title>Node3</title>
<g id="a_node3"><a xlink:href="classitk_1_1MeshSource.html" target="_top" xlink:title="Base class for all process objects that output mesh data.">
<polygon fill="white" stroke="black" points="1417,-155.5 1417,-185.5 1562,-185.5 1562,-155.5 1417,-155.5"/>
<text text-anchor="start" x="1425" y="-173.5" font-family="Helvetica,sans-Serif" font-size="10.00">itk::MeshSource&lt; TOutput</text>
<text text-anchor="middle" x="1489.5" y="-162.5" font-family="Helvetica,sans-Serif" font-size="10.00">Mesh &gt;</text>
</a>
</g>
</g>
<!-- Node3&#45;&gt;Node2 -->
<g id="edge2" class="edge">
<title>Node3&#45;&gt;Node2</title>
<path fill="none" stroke="midnightblue" d="M1572.37,-170.5C1581.13,-170.5 1590.05,-170.5 1598.83,-170.5"/>
<polygon fill="midnightblue" stroke="midnightblue" points="1572.16,-167 1562.16,-170.5 1572.16,-174 1572.16,-167"/>
</g>
<!-- Node4 -->
<g id="node4" class="node">
<title>Node4</title>
<g id="a_node4"><a xlink:href="classitk_1_1ProcessObject.html" target="_top" xlink:title="The base class for all process objects (source, filters, mappers) in the Insight data processing pipe...">
<polygon fill="white" stroke="black" points="1276,-161 1276,-180 1380,-180 1380,-161 1276,-161"/>
<text text-anchor="middle" x="1328" y="-168" font-family="Helvetica,sans-Serif" font-size="10.00">itk::ProcessObject</text>
</a>
</g>
</g>
<!-- Node4&#45;&gt;Node3 -->
<g id="edge3" class="edge">
<title>Node4&#45;&gt;Node3</title>
<path fill="none" stroke="midnightblue" d="M1390.37,-170.5C1399.06,-170.5 1408.06,-170.5 1416.91,-170.5"/>
<polygon fill="midnightblue" stroke="midnightblue" points="1390.34,-167 1380.34,-170.5 1390.34,-174 1390.34,-167"/>
</g>
<!-- Node5 -->
<g id="node5" class="node">
<title>Node5</title>
<g id="a_node5"><a xlink:href="classitk_1_1Object.html" target="_top" xlink:title="Base class for most ITK classes.">
<polygon fill="white" stroke="black" points="980,-197 980,-216 1047,-216 1047,-197 980,-197"/>
<text text-anchor="middle" x="1013.5" y="-204" font-family="Helvetica,sans-Serif" font-size="10.00">itk::Object</text>
</a>
</g>
</g>
<!-- Node5&#45;&gt;Node4 -->
<g id="edge4" class="edge">
<title>Node5&#45;&gt;Node4</title>
<path fill="none" stroke="midnightblue" d="M1057.17,-201.58C1114.17,-195.02 1215.03,-183.4 1275.98,-176.38"/>
<polygon fill="midnightblue" stroke="midnightblue" points="1056.59,-198.13 1047.06,-202.75 1057.39,-205.08 1056.59,-198.13"/>
</g>
<!-- Node6 -->
<g id="node6" class="node">
<title>Node6</title>
<g id="a_node6"><a xlink:href="classitk_1_1LightObject.html" target="_top" xlink:title="Light weight base class for most itk classes.">
<polygon fill="white" stroke="black" points="659,-151 659,-170 750,-170 750,-151 659,-151"/>
<text text-anchor="middle" x="704.5" y="-158" font-family="Helvetica,sans-Serif" font-size="10.00">itk::LightObject</text>
</a>
</g>
</g>
<!-- Node6&#45;&gt;Node5 -->
<g id="edge5" class="edge">
<title>Node6&#45;&gt;Node5</title>
<path fill="none" stroke="midnightblue" d="M760.4,-168.73C824.13,-178.28 927.17,-193.71 979.59,-201.57"/>
<polygon fill="midnightblue" stroke="midnightblue" points="760.55,-165.21 750.14,-167.19 759.51,-172.13 760.55,-165.21"/>
</g>
<!-- Node7 -->
<g id="node7" class="node">
<title>Node7</title>
<g id="a_node7"><a xlink:title=" ">
<polygon fill="white" stroke="#bfbfbf" points="372,-147 372,-166 479,-166 479,-147 372,-147"/>
<text text-anchor="middle" x="425.5" y="-154" font-family="Helvetica,sans-Serif" font-size="10.00">std::atomic&lt; int &gt;</text>
</a>
</g>
</g>
<!-- Node7&#45;&gt;Node6 -->
<g id="edge6" class="edge">
<title>Node7&#45;&gt;Node6</title>
<path fill="none" stroke="#9a32cd" stroke-dasharray="5,2" d="M489.29,-157.41C540.91,-158.15 612.77,-159.19 658.72,-159.85"/>
<polygon fill="#9a32cd" stroke="#9a32cd" points="489.3,-153.91 479.25,-157.26 489.2,-160.91 489.3,-153.91"/>
<text text-anchor="middle" x="566.5" y="-161.5" font-family="Helvetica,sans-Serif" font-size="10.00"> m_ReferenceCount</text>
</g>
<!-- Node8 -->
<g id="node8" class="node">
<title>Node8</title>
<g id="a_node8"><a xlink:title="STL class.">
<polygon fill="white" stroke="#bfbfbf" points="672,-316 672,-335 737,-335 737,-316 672,-316"/>
<text text-anchor="middle" x="704.5" y="-323" font-family="Helvetica,sans-Serif" font-size="10.00">std::string</text>
</a>
</g>
</g>
<!-- Node8&#45;&gt;Node5 -->
<g id="edge7" class="edge">
<title>Node8&#45;&gt;Node5</title>
<path fill="none" stroke="#9a32cd" stroke-dasharray="5,2" d="M727.23,-310.19C744.58,-298.6 769.89,-283.1 794,-273.5 843.58,-253.75 862.41,-268.56 911,-246.5 919.99,-242.42 920.2,-237.96 929,-233.5 945.04,-225.37 964.03,-219 979.85,-214.49"/>
<polygon fill="#9a32cd" stroke="#9a32cd" points="725.22,-307.32 718.93,-315.84 729.16,-313.1 725.22,-307.32"/>
<text text-anchor="middle" x="852.5" y="-276.5" font-family="Helvetica,sans-Serif" font-size="10.00"> m_ObjectName</text>
</g>
<!-- Node17 -->
<g id="node17" class="node">
<title>Node17</title>
<g id="a_node17"><a xlink:title=" ">
<polygon fill="white" stroke="#bfbfbf" points="932.5,-305.5 932.5,-335.5 1094.5,-335.5 1094.5,-305.5 932.5,-305.5"/>
<text text-anchor="start" x="940.5" y="-323.5" font-family="Helvetica,sans-Serif" font-size="10.00">std::set&lt; DataObjectIdentifier</text>
<text text-anchor="middle" x="1013.5" y="-312.5" font-family="Helvetica,sans-Serif" font-size="10.00">Type &gt;</text>
</a>
</g>
</g>
<!-- Node8&#45;&gt;Node17 -->
<g id="edge18" class="edge">
<title>Node8&#45;&gt;Node17</title>
<path fill="none" stroke="#9a32cd" stroke-dasharray="5,2" d="M747.4,-324.82C794.8,-324.05 873.1,-322.77 932.35,-321.81"/>
<polygon fill="#9a32cd" stroke="#9a32cd" points="747.14,-321.32 737.2,-324.98 747.25,-328.32 747.14,-321.32"/>
<text text-anchor="middle" x="852.5" y="-326.5" font-family="Helvetica,sans-Serif" font-size="10.00"> keys</text>
</g>
<!-- Node18 -->
<g id="node18" class="node">
<title>Node18</title>
<g id="a_node18"><a xlink:title=" ">
<polygon fill="white" stroke="#bfbfbf" points="929,-242.5 929,-272.5 1098,-272.5 1098,-242.5 929,-242.5"/>
<text text-anchor="start" x="937" y="-260.5" font-family="Helvetica,sans-Serif" font-size="10.00">std::map&lt; DataObjectIdentifier</text>
<text text-anchor="middle" x="1013.5" y="-249.5" font-family="Helvetica,sans-Serif" font-size="10.00">Type, bool &gt;</text>
</a>
</g>
</g>
<!-- Node8&#45;&gt;Node18 -->
<g id="edge20" class="edge">
<title>Node8&#45;&gt;Node18</title>
<path fill="none" stroke="#9a32cd" stroke-dasharray="5,2" d="M746.91,-316.87C761.75,-313.83 778.61,-310.45 794,-307.5 845.89,-297.57 859.54,-298.44 911,-286.5 928.32,-282.48 947.08,-277.35 963.71,-272.52"/>
<polygon fill="#9a32cd" stroke="#9a32cd" points="746.09,-313.47 737,-318.91 747.5,-320.32 746.09,-313.47"/>
<text text-anchor="middle" x="852.5" y="-310.5" font-family="Helvetica,sans-Serif" font-size="10.00"> keys</text>
</g>
<!-- Node23 -->
<g id="node23" class="node">
<title>Node23</title>
<g id="a_node23"><a xlink:title=" ">
<polygon fill="white" stroke="#bfbfbf" points="929,-361.5 929,-391.5 1098,-391.5 1098,-361.5 929,-361.5"/>
<text text-anchor="start" x="937" y="-379.5" font-family="Helvetica,sans-Serif" font-size="10.00">std::map&lt; DataObjectIdentifier</text>
<text text-anchor="middle" x="1013.5" y="-368.5" font-family="Helvetica,sans-Serif" font-size="10.00">Type, DataObjectPointer &gt;</text>
</a>
</g>
</g>
<!-- Node8&#45;&gt;Node23 -->
<g id="edge27" class="edge">
<title>Node8&#45;&gt;Node23</title>
<path fill="none" stroke="#9a32cd" stroke-dasharray="5,2" d="M747.2,-332.43C793.65,-340.14 869.92,-352.81 928.8,-362.59"/>
<polygon fill="#9a32cd" stroke="#9a32cd" points="747.64,-328.95 737.2,-330.77 746.49,-335.86 747.64,-328.95"/>
<text text-anchor="middle" x="852.5" y="-361.5" font-family="Helvetica,sans-Serif" font-size="10.00"> keys</text>
</g>
<!-- Node9 -->
<g id="node9" class="node">
<title>Node9</title>
<g id="a_node9"><a xlink:title="STL class.">
<polygon fill="white" stroke="#bfbfbf" points="373.5,-310.5 373.5,-340.5 477.5,-340.5 477.5,-310.5 373.5,-310.5"/>
<text text-anchor="start" x="381.5" y="-328.5" font-family="Helvetica,sans-Serif" font-size="10.00">std::basic_string&lt;</text>
<text text-anchor="middle" x="425.5" y="-317.5" font-family="Helvetica,sans-Serif" font-size="10.00"> char &gt;</text>
</a>
</g>
</g>
<!-- Node9&#45;&gt;Node8 -->
<g id="edge8" class="edge">
<title>Node9&#45;&gt;Node8</title>
<path fill="none" stroke="midnightblue" d="M487.93,-325.5C544.75,-325.5 626.97,-325.5 671.66,-325.5"/>
<polygon fill="midnightblue" stroke="midnightblue" points="487.63,-322 477.63,-325.5 487.63,-329 487.63,-322"/>
</g>
<!-- Node10 -->
<g id="node10" class="node">
<title>Node10</title>
<g id="a_node10"><a xlink:href="classitk_1_1MetaDataDictionary.html" target="_top" xlink:title="Provides a mechanism for storing a collection of arbitrary data types.">
<polygon fill="white" stroke="black" points="637.5,-233 637.5,-252 771.5,-252 771.5,-233 637.5,-233"/>
<text text-anchor="middle" x="704.5" y="-240" font-family="Helvetica,sans-Serif" font-size="10.00">itk::MetaDataDictionary</text>
</a>
</g>
</g>
<!-- Node10&#45;&gt;Node5 -->
<g id="edge9" class="edge">
<title>Node10&#45;&gt;Node5</title>
<path fill="none" stroke="#9a32cd" stroke-dasharray="5,2" d="M781.82,-233.61C820.53,-229.1 868.26,-223.52 911,-218.5 933.91,-215.81 959.73,-212.76 979.59,-210.4"/>
<polygon fill="#9a32cd" stroke="#9a32cd" points="781.2,-230.16 771.67,-234.8 782.01,-237.11 781.2,-230.16"/>
<text text-anchor="middle" x="852.5" y="-234.5" font-family="Helvetica,sans-Serif" font-size="10.00"> m_MetaDataDictionary</text>
</g>
<!-- Node11 -->
<g id="node11" class="node">
<title>Node11</title>
<g id="a_node11"><a xlink:title=" ">
<polygon fill="white" stroke="#bfbfbf" points="351,-232.5 351,-262.5 500,-262.5 500,-232.5 351,-232.5"/>
<text text-anchor="start" x="359" y="-250.5" font-family="Helvetica,sans-Serif" font-size="10.00">std::shared_ptr&lt; MetaData</text>
<text text-anchor="middle" x="425.5" y="-239.5" font-family="Helvetica,sans-Serif" font-size="10.00">DictionaryMapType &gt;</text>
</a>
</g>
</g>
<!-- Node11&#45;&gt;Node10 -->
<g id="edge10" class="edge">
<title>Node11&#45;&gt;Node10</title>
<path fill="none" stroke="#9a32cd" stroke-dasharray="5,2" d="M510.18,-245.99C550.89,-245.25 599.13,-244.38 637.24,-243.7"/>
<polygon fill="#9a32cd" stroke="#9a32cd" points="509.94,-242.49 500,-246.17 510.07,-249.49 509.94,-242.49"/>
<text text-anchor="middle" x="566.5" y="-248.5" font-family="Helvetica,sans-Serif" font-size="10.00"> m_Dictionary</text>
</g>
<!-- Node12 -->
<g id="node12" class="node">
<title>Node12</title>
<g id="a_node12"><a xlink:title="STL class.">
<polygon fill="white" stroke="#bfbfbf" points="114,-238 114,-257 215,-257 215,-238 114,-238"/>
<text text-anchor="middle" x="164.5" y="-245" font-family="Helvetica,sans-Serif" font-size="10.00">std::map&lt; K, T &gt;</text>
</a>
</g>
</g>
<!-- Node12&#45;&gt;Node11 -->
<g id="edge11" class="edge">
<title>Node12&#45;&gt;Node11</title>
<path fill="none" stroke="#9a32cd" stroke-dasharray="5,2" d="M225.34,-247.5C262.61,-247.5 310.86,-247.5 350.52,-247.5"/>
<polygon fill="#9a32cd" stroke="#9a32cd" points="225.13,-244 215.13,-247.5 225.13,-251 225.13,-244"/>
<text text-anchor="middle" x="283" y="-250.5" font-family="Helvetica,sans-Serif" font-size="10.00"> ptr</text>
</g>
<!-- Node13 -->
<g id="node13" class="node">
<title>Node13</title>
<g id="a_node13"><a xlink:title=" ">
<polygon fill="white" stroke="#bfbfbf" points="0,-261 0,-280 29,-280 29,-261 0,-261"/>
<text text-anchor="middle" x="14.5" y="-268" font-family="Helvetica,sans-Serif" font-size="10.00">K</text>
</a>
</g>
</g>
<!-- Node13&#45;&gt;Node12 -->
<g id="edge12" class="edge">
<title>Node13&#45;&gt;Node12</title>
<path fill="none" stroke="#9a32cd" stroke-dasharray="5,2" d="M39.24,-266.81C59.28,-263.7 88.63,-259.13 113.78,-255.23"/>
<polygon fill="#9a32cd" stroke="#9a32cd" points="38.5,-263.38 29.16,-268.38 39.58,-270.3 38.5,-263.38"/>
<text text-anchor="middle" x="71.5" y="-268.5" font-family="Helvetica,sans-Serif" font-size="10.00"> keys</text>
</g>
<!-- Node14 -->
<g id="node14" class="node">
<title>Node14</title>
<g id="a_node14"><a xlink:title=" ">
<polygon fill="white" stroke="#bfbfbf" points="0,-208 0,-227 29,-227 29,-208 0,-208"/>
<text text-anchor="middle" x="14.5" y="-215" font-family="Helvetica,sans-Serif" font-size="10.00">T</text>
</a>
</g>
</g>
<!-- Node14&#45;&gt;Node12 -->
<g id="edge13" class="edge">
<title>Node14&#45;&gt;Node12</title>
<path fill="none" stroke="#9a32cd" stroke-dasharray="5,2" d="M39.01,-222.26C59.76,-226.47 90.63,-232.73 116.44,-237.96"/>
<polygon fill="#9a32cd" stroke="#9a32cd" points="39.65,-218.83 29.16,-220.27 38.26,-225.69 39.65,-218.83"/>
<text text-anchor="middle" x="71.5" y="-235.5" font-family="Helvetica,sans-Serif" font-size="10.00"> elements</text>
</g>
<!-- Node16 -->
<g id="node16" class="node">
<title>Node16</title>
<g id="a_node16"><a xlink:title="STL class.">
<polygon fill="white" stroke="#bfbfbf" points="233,-193 233,-212 333,-212 333,-193 233,-193"/>
<text text-anchor="middle" x="283" y="-200" font-family="Helvetica,sans-Serif" font-size="10.00">std::atomic&lt; T &gt;</text>
</a>
</g>
</g>
<!-- Node14&#45;&gt;Node16 -->
<g id="edge16" class="edge">
<title>Node14&#45;&gt;Node16</title>
<path fill="none" stroke="#9a32cd" stroke-dasharray="5,2" d="M39.03,-210.08C41.7,-209.45 44.39,-208.9 47,-208.5 110.54,-198.77 184.85,-198.74 232.62,-200.16"/>
<polygon fill="#9a32cd" stroke="#9a32cd" points="37.85,-206.77 29.13,-212.79 39.7,-213.53 37.85,-206.77"/>
<text text-anchor="middle" x="71.5" y="-211.5" font-family="Helvetica,sans-Serif" font-size="10.00"> ptr</text>
</g>
<!-- Node15 -->
<g id="node15" class="node">
<title>Node15</title>
<g id="a_node15"><a xlink:href="classitk_1_1TimeStamp.html" target="_top" xlink:title="Generate a unique, increasing time value.">
<polygon fill="white" stroke="black" points="658.5,-193 658.5,-212 750.5,-212 750.5,-193 658.5,-193"/>
<text text-anchor="middle" x="704.5" y="-200" font-family="Helvetica,sans-Serif" font-size="10.00">itk::TimeStamp</text>
</a>
</g>
</g>
<!-- Node15&#45;&gt;Node4 -->
<g id="edge29" class="edge">
<title>Node15&#45;&gt;Node4</title>
<path fill="none" stroke="#9a32cd" stroke-dasharray="5,2" d="M760.92,-194.48C806.06,-188.33 871.5,-180.27 929,-176.5 1053.3,-168.35 1199.87,-168.7 1275.73,-169.63"/>
<polygon fill="#9a32cd" stroke="#9a32cd" points="760.18,-191.05 750.75,-195.88 761.14,-197.98 760.18,-191.05"/>
<text text-anchor="middle" x="1013.5" y="-179.5" font-family="Helvetica,sans-Serif" font-size="10.00"> m_OutputInformationMTime</text>
</g>
<!-- Node15&#45;&gt;Node5 -->
<g id="edge14" class="edge">
<title>Node15&#45;&gt;Node5</title>
<path fill="none" stroke="#9a32cd" stroke-dasharray="5,2" d="M761.09,-203.22C824.93,-204.06 927.56,-205.39 979.75,-206.07"/>
<polygon fill="#9a32cd" stroke="#9a32cd" points="760.84,-199.72 750.8,-203.09 760.75,-206.72 760.84,-199.72"/>
<text text-anchor="middle" x="852.5" y="-207.5" font-family="Helvetica,sans-Serif" font-size="10.00"> m_MTime</text>
</g>
<!-- Node16&#45;&gt;Node15 -->
<g id="edge15" class="edge">
<title>Node16&#45;&gt;Node15</title>
<path fill="none" stroke="#9a32cd" stroke-dasharray="5,2" d="M343.61,-202.5C428.52,-202.5 582.42,-202.5 658.48,-202.5"/>
<polygon fill="#9a32cd" stroke="#9a32cd" points="343.36,-199 333.36,-202.5 343.36,-206 343.36,-199"/>
<text text-anchor="middle" x="425.5" y="-205.5" font-family="Helvetica,sans-Serif" font-size="10.00"> m_GlobalTimeStamp</text>
</g>
<!-- Node17&#45;&gt;Node4 -->
<g id="edge17" class="edge">
<title>Node17&#45;&gt;Node4</title>
<path fill="none" stroke="#9a32cd" stroke-dasharray="5,2" d="M1104.73,-313.9C1153.36,-306.85 1212.54,-292.32 1258,-262.5 1290.55,-241.15 1313.55,-198.94 1322.66,-180.04"/>
<polygon fill="#9a32cd" stroke="#9a32cd" points="1103.95,-310.48 1094.52,-315.3 1104.9,-317.41 1103.95,-310.48"/>
<text text-anchor="middle" x="1187" y="-314.5" font-family="Helvetica,sans-Serif" font-size="10.00"> m_RequiredInputNames</text>
</g>
<!-- Node18&#45;&gt;Node4 -->
<g id="edge19" class="edge">
<title>Node18&#45;&gt;Node4</title>
<path fill="none" stroke="#9a32cd" stroke-dasharray="5,2" d="M1105.03,-240.37C1151.34,-230.59 1208.28,-216.98 1258,-200.5 1275.11,-194.83 1293.82,-186.55 1307.44,-180.13"/>
<polygon fill="#9a32cd" stroke="#9a32cd" points="1104.09,-236.99 1095.01,-242.46 1105.52,-243.84 1104.09,-236.99"/>
<text text-anchor="start" x="1116" y="-250.5" font-family="Helvetica,sans-Serif" font-size="10.00"> m_CachedInputReleaseData</text>
<text text-anchor="middle" x="1187" y="-239.5" font-family="Helvetica,sans-Serif" font-size="10.00">Flags</text>
</g>
<!-- Node19 -->
<g id="node19" class="node">
<title>Node19</title>
<g id="a_node19"><a xlink:title=" ">
<polygon fill="white" stroke="#bfbfbf" points="946.5,-103 946.5,-122 1080.5,-122 1080.5,-103 946.5,-103"/>
<text text-anchor="middle" x="1013.5" y="-110" font-family="Helvetica,sans-Serif" font-size="10.00">std::atomic&lt; uint32_t &gt;</text>
</a>
</g>
</g>
<!-- Node19&#45;&gt;Node4 -->
<g id="edge21" class="edge">
<title>Node19&#45;&gt;Node4</title>
<path fill="none" stroke="#9a32cd" stroke-dasharray="5,2" d="M1090.85,-111.22C1139.59,-112.32 1203.61,-117.32 1258,-133.5 1278.45,-139.58 1299.77,-152.12 1313.2,-160.91"/>
<polygon fill="#9a32cd" stroke="#9a32cd" points="1090.75,-107.72 1080.69,-111.05 1090.63,-114.72 1090.75,-107.72"/>
<text text-anchor="middle" x="1187" y="-136.5" font-family="Helvetica,sans-Serif" font-size="10.00"> m_Progress</text>
</g>
<!-- Node20 -->
<g id="node20" class="node">
<title>Node20</title>
<g id="a_node20"><a xlink:title=" ">
<polygon fill="white" stroke="#bfbfbf" points="676.5,-103 676.5,-122 732.5,-122 732.5,-103 676.5,-103"/>
<text text-anchor="middle" x="704.5" y="-110" font-family="Helvetica,sans-Serif" font-size="10.00">uint32_t</text>
</a>
</g>
</g>
<!-- Node20&#45;&gt;Node19 -->
<g id="edge22" class="edge">
<title>Node20&#45;&gt;Node19</title>
<path fill="none" stroke="#9a32cd" stroke-dasharray="5,2" d="M742.88,-112.5C793.35,-112.5 884.11,-112.5 946.28,-112.5"/>
<polygon fill="#9a32cd" stroke="#9a32cd" points="742.74,-109 732.74,-112.5 742.74,-116 742.74,-109"/>
<text text-anchor="middle" x="852.5" y="-115.5" font-family="Helvetica,sans-Serif" font-size="10.00"> ptr</text>
</g>
<!-- Node21 -->
<g id="node21" class="node">
<title>Node21</title>
<g id="a_node21"><a xlink:title=" ">
<polygon fill="white" stroke="#bfbfbf" points="929,-53.5 929,-83.5 1098,-83.5 1098,-53.5 929,-53.5"/>
<text text-anchor="start" x="937" y="-71.5" font-family="Helvetica,sans-Serif" font-size="10.00">std::vector&lt; DataObjectPointer</text>
<text text-anchor="middle" x="1013.5" y="-60.5" font-family="Helvetica,sans-Serif" font-size="10.00">Map::iterator &gt;</text>
</a>
</g>
</g>
<!-- Node21&#45;&gt;Node4 -->
<g id="edge23" class="edge">
<title>Node21&#45;&gt;Node4</title>
<path fill="none" stroke="#9a32cd" stroke-dasharray="5,2" d="M1108.41,-57.96C1155.73,-56.77 1212.55,-61.88 1258,-85.5 1290.72,-102.51 1313.47,-142.55 1322.58,-160.95"/>
<polygon fill="#9a32cd" stroke="#9a32cd" points="1108.03,-54.48 1098.16,-58.32 1108.27,-61.47 1108.03,-54.48"/>
<text text-anchor="middle" x="1187" y="-99.5" font-family="Helvetica,sans-Serif" font-size="10.00"> m_IndexedOutputs</text>
<text text-anchor="middle" x="1187" y="-88.5" font-family="Helvetica,sans-Serif" font-size="10.00">m_IndexedInputs</text>
</g>
<!-- Node22 -->
<g id="node22" class="node">
<title>Node22</title>
<g id="a_node22"><a xlink:title="STL iterator class.">
<polygon fill="white" stroke="#bfbfbf" points="633,-59 633,-78 776,-78 776,-59 633,-59"/>
<text text-anchor="middle" x="704.5" y="-66" font-family="Helvetica,sans-Serif" font-size="10.00">std::map&lt; K, T &gt;::iterator</text>
</a>
</g>
</g>
<!-- Node22&#45;&gt;Node21 -->
<g id="edge24" class="edge">
<title>Node22&#45;&gt;Node21</title>
<path fill="none" stroke="#9a32cd" stroke-dasharray="5,2" d="M786.39,-68.5C830.34,-68.5 884.61,-68.5 928.97,-68.5"/>
<polygon fill="#9a32cd" stroke="#9a32cd" points="786.32,-65 776.32,-68.5 786.32,-72 786.32,-65"/>
<text text-anchor="middle" x="852.5" y="-71.5" font-family="Helvetica,sans-Serif" font-size="10.00"> elements</text>
</g>
<!-- Node23&#45;&gt;Node4 -->
<g id="edge25" class="edge">
<title>Node23&#45;&gt;Node4</title>
<path fill="none" stroke="#9a32cd" stroke-dasharray="5,2" d="M1108.22,-377.16C1157.5,-372.95 1216.19,-360.2 1258,-326.5 1306.42,-287.47 1321.83,-207.5 1325.81,-180.02"/>
<polygon fill="#9a32cd" stroke="#9a32cd" points="1107.88,-373.67 1098.17,-377.91 1108.41,-380.65 1107.88,-373.67"/>
<text text-anchor="middle" x="1187" y="-389.5" font-family="Helvetica,sans-Serif" font-size="10.00"> m_Outputs</text>
<text text-anchor="middle" x="1187" y="-378.5" font-family="Helvetica,sans-Serif" font-size="10.00">m_Inputs</text>
</g>
<!-- Node24 -->
<g id="node24" class="node">
<title>Node24</title>
<g id="a_node24"><a xlink:href="classitk_1_1SmartPointer.html" target="_top" xlink:title=" ">
<polygon fill="white" stroke="black" points="651,-395.5 651,-425.5 758,-425.5 758,-395.5 651,-395.5"/>
<text text-anchor="start" x="659" y="-413.5" font-family="Helvetica,sans-Serif" font-size="10.00">itk::SmartPointer&lt;</text>
<text text-anchor="middle" x="704.5" y="-402.5" font-family="Helvetica,sans-Serif" font-size="10.00"> Self &gt;</text>
</a>
</g>
</g>
<!-- Node24&#45;&gt;Node23 -->
<g id="edge26" class="edge">
<title>Node24&#45;&gt;Node23</title>
<path fill="none" stroke="#9a32cd" stroke-dasharray="5,2" d="M768.36,-403.95C809.05,-399.67 863.17,-393.89 911,-388.5 916.82,-387.84 922.82,-387.16 928.87,-386.46"/>
<polygon fill="#9a32cd" stroke="#9a32cd" points="767.89,-400.48 758.31,-405.01 768.62,-407.44 767.89,-400.48"/>
<text text-anchor="middle" x="852.5" y="-403.5" font-family="Helvetica,sans-Serif" font-size="10.00"> elements</text>
</g>
<!-- Node25 -->
<g id="node25" class="node">
<title>Node25</title>
<g id="a_node25"><a xlink:href="classitk_1_1SmartPointer.html" target="_top" xlink:title=" ">
<polygon fill="white" stroke="black" points="942.5,-4.5 942.5,-34.5 1084.5,-34.5 1084.5,-4.5 942.5,-4.5"/>
<text text-anchor="start" x="950.5" y="-22.5" font-family="Helvetica,sans-Serif" font-size="10.00">itk::SmartPointer&lt;</text>
<text text-anchor="middle" x="1013.5" y="-11.5" font-family="Helvetica,sans-Serif" font-size="10.00"> itk::MultiThreaderBase &gt;</text>
</a>
</g>
</g>
<!-- Node25&#45;&gt;Node4 -->
<g id="edge28" class="edge">
<title>Node25&#45;&gt;Node4</title>
<path fill="none" stroke="#9a32cd" stroke-dasharray="5,2" d="M1094.83,-8.8C1145.61,-6.2 1210.4,-10.95 1258,-42.5 1301.14,-71.09 1319.43,-135.97 1325.01,-160.69"/>
<polygon fill="#9a32cd" stroke="#9a32cd" points="1094.31,-5.33 1084.55,-9.44 1094.74,-12.32 1094.31,-5.33"/>
<text text-anchor="middle" x="1187" y="-45.5" font-family="Helvetica,sans-Serif" font-size="10.00"> m_MultiThreader</text>
</g>
<!-- Node26 -->
<g id="node26" class="node">
<title>Node26</title>
<g id="a_node26"><a xlink:title=" ">
<polygon fill="white" stroke="#bfbfbf" points="1602,-117 1602,-136 1763,-136 1763,-117 1602,-117"/>
<text text-anchor="middle" x="1682.5" y="-124" font-family="Helvetica,sans-Serif" font-size="10.00">std::vector&lt; SizeValueType &gt;</text>
</a>
</g>
</g>
<!-- Node26&#45;&gt;Node1 -->
<g id="edge30" class="edge">
<title>Node26&#45;&gt;Node1</title>
<path fill="none" stroke="#9a32cd" stroke-dasharray="5,2" d="M1773.47,-116.01C1807.23,-112.07 1845.69,-107.58 1879.9,-103.59"/>
<polygon fill="#9a32cd" stroke="#9a32cd" points="1772.68,-112.57 1763.15,-117.21 1773.49,-119.53 1772.68,-112.57"/>
<text text-anchor="middle" x="1823" y="-117.5" font-family="Helvetica,sans-Serif" font-size="10.00"> m_RegionSizes</text>
</g>
<!-- Node27 -->
<g id="node27" class="node">
<title>Node27</title>
<g id="a_node27"><a xlink:title=" ">
<polygon fill="white" stroke="#bfbfbf" points="1604,-50 1604,-69 1761,-69 1761,-50 1604,-50"/>
<text text-anchor="middle" x="1682.5" y="-57" font-family="Helvetica,sans-Serif" font-size="10.00">std::vector&lt; IdentifierType &gt;</text>
</a>
</g>
</g>
<!-- Node27&#45;&gt;Node1 -->
<g id="edge31" class="edge">
<title>Node27&#45;&gt;Node1</title>
<path fill="none" stroke="#9a32cd" stroke-dasharray="5,2" d="M1771.26,-55.29C1800.27,-55.15 1832.63,-56.34 1862,-60.5 1885.72,-63.86 1911.47,-70.88 1932.39,-77.49"/>
<polygon fill="#9a32cd" stroke="#9a32cd" points="1771.11,-51.79 1761.15,-55.39 1771.19,-58.79 1771.11,-51.79"/>
<text text-anchor="middle" x="1823" y="-96.5" font-family="Helvetica,sans-Serif" font-size="10.00"> m_SeedList</text>
<text text-anchor="middle" x="1823" y="-85.5" font-family="Helvetica,sans-Serif" font-size="10.00">m_Wave2</text>
<text text-anchor="middle" x="1823" y="-74.5" font-family="Helvetica,sans-Serif" font-size="10.00">m_RegionList</text>
<text text-anchor="middle" x="1823" y="-63.5" font-family="Helvetica,sans-Serif" font-size="10.00">m_Wave</text>
</g>
<!-- Node28 -->
<g id="node28" class="node">
<title>Node28</title>
<g id="a_node28"><a xlink:title=" ">
<polygon fill="white" stroke="#bfbfbf" points="1614.5,-0.5 1614.5,-30.5 1750.5,-30.5 1750.5,-0.5 1614.5,-0.5"/>
<text text-anchor="start" x="1622.5" y="-18.5" font-family="Helvetica,sans-Serif" font-size="10.00">std::vector&lt; OffsetValue</text>
<text text-anchor="middle" x="1682.5" y="-7.5" font-family="Helvetica,sans-Serif" font-size="10.00">Type &gt;</text>
</a>
</g>
</g>
<!-- Node28&#45;&gt;Node1 -->
<g id="edge32" class="edge">
<title>Node28&#45;&gt;Node1</title>
<path fill="none" stroke="#9a32cd" stroke-dasharray="5,2" d="M1760.77,-20.71C1792.58,-24.18 1829.52,-29.94 1862,-39.5 1893.18,-48.67 1926.62,-65.29 1948.96,-77.48"/>
<polygon fill="#9a32cd" stroke="#9a32cd" points="1760.94,-17.21 1750.63,-19.66 1760.22,-24.17 1760.94,-17.21"/>
<text text-anchor="middle" x="1823" y="-42.5" font-family="Helvetica,sans-Serif" font-size="10.00"> m_Visited</text>
</g>
</g>
</svg>
