<?xml version="1.0" encoding="UTF-8" standalone="no"?>
<!DOCTYPE svg PUBLIC "-//W3C//DTD SVG 1.1//EN"
 "http://www.w3.org/Graphics/SVG/1.1/DTD/svg11.dtd">
<!-- Generated by graphviz version 2.43.0 (0)
 -->
<!-- Title: itk::SymmetricForcesDemonsRegistrationFilter&lt; TFixedImage, TMovingImage, TDisplacementField &gt; Pages: 1 -->
<svg width="1415pt" height="989pt"
 viewBox="0.00 0.00 1415.00 989.00" xmlns="http://www.w3.org/2000/svg" xmlns:xlink="http://www.w3.org/1999/xlink">
<g id="graph0" class="graph" transform="scale(1 1) rotate(0) translate(4 985)">
<title>itk::SymmetricForcesDemonsRegistrationFilter&lt; TFixedImage, TMovingImage, TDisplacementField &gt;</title>
<polygon fill="white" stroke="transparent" points="-4,4 -4,-985 1411,-985 1411,4 -4,4"/>
<!-- Node1 -->
<g id="node1" class="node">
<title>Node1</title>
<g id="a_node1"><a xlink:title="Deformably register two images using the demons algorithm.">
<polygon fill="#bfbfbf" stroke="black" points="76.5,-0.5 76.5,-41.5 282.5,-41.5 282.5,-0.5 76.5,-0.5"/>
<text text-anchor="start" x="84.5" y="-29.5" font-family="Helvetica,sans-Serif" font-size="10.00">itk::SymmetricForcesDemons</text>
<text text-anchor="start" x="84.5" y="-18.5" font-family="Helvetica,sans-Serif" font-size="10.00">RegistrationFilter&lt; TFixedImage,</text>
<text text-anchor="middle" x="179.5" y="-7.5" font-family="Helvetica,sans-Serif" font-size="10.00"> TMovingImage, TDisplacementField &gt;</text>
</a>
</g>
</g>
<!-- Node2 -->
<g id="node2" class="node">
<title>Node2</title>
<g id="a_node2"><a xlink:href="classitk_1_1PDEDeformableRegistrationFilter.html" target="_top" xlink:title="Deformably register two images using a PDE algorithm.">
<polygon fill="white" stroke="black" points="81,-79.5 81,-120.5 278,-120.5 278,-79.5 81,-79.5"/>
<text text-anchor="start" x="89" y="-108.5" font-family="Helvetica,sans-Serif" font-size="10.00">itk::PDEDeformableRegistration</text>
<text text-anchor="start" x="89" y="-97.5" font-family="Helvetica,sans-Serif" font-size="10.00">Filter&lt; TFixedImage, TMovingImage,</text>
<text text-anchor="middle" x="179.5" y="-86.5" font-family="Helvetica,sans-Serif" font-size="10.00"> TDisplacementField &gt;</text>
</a>
</g>
</g>
<!-- Node2&#45;&gt;Node1 -->
<g id="edge1" class="edge">
<title>Node2&#45;&gt;Node1</title>
<path fill="none" stroke="midnightblue" d="M179.5,-68.91C179.5,-59.79 179.5,-50.02 179.5,-41.76"/>
<polygon fill="midnightblue" stroke="midnightblue" points="176,-69.17 179.5,-79.17 183,-69.17 176,-69.17"/>
</g>
<!-- Node3 -->
<g id="node3" class="node">
<title>Node3</title>
<g id="a_node3"><a xlink:href="classitk_1_1DenseFiniteDifferenceImageFilter.html" target="_top" xlink:title=" ">
<polygon fill="white" stroke="black" points="0,-179.5 0,-220.5 183,-220.5 183,-179.5 0,-179.5"/>
<text text-anchor="start" x="8" y="-208.5" font-family="Helvetica,sans-Serif" font-size="10.00">itk::DenseFiniteDifference</text>
<text text-anchor="start" x="8" y="-197.5" font-family="Helvetica,sans-Serif" font-size="10.00">ImageFilter&lt; TDisplacementField,</text>
<text text-anchor="middle" x="91.5" y="-186.5" font-family="Helvetica,sans-Serif" font-size="10.00"> TDisplacementField &gt;</text>
</a>
</g>
</g>
<!-- Node3&#45;&gt;Node2 -->
<g id="edge2" class="edge">
<title>Node3&#45;&gt;Node2</title>
<path fill="none" stroke="midnightblue" d="M116.1,-171.6C130.6,-155.46 148.6,-135.41 161.72,-120.8"/>
<polygon fill="midnightblue" stroke="midnightblue" points="113.39,-169.39 109.31,-179.17 118.59,-174.07 113.39,-169.39"/>
</g>
<!-- Node4 -->
<g id="node4" class="node">
<title>Node4</title>
<g id="a_node4"><a xlink:href="classitk_1_1FiniteDifferenceImageFilter.html" target="_top" xlink:title=" ">
<polygon fill="white" stroke="black" points="15.5,-268.5 15.5,-309.5 167.5,-309.5 167.5,-268.5 15.5,-268.5"/>
<text text-anchor="start" x="23.5" y="-297.5" font-family="Helvetica,sans-Serif" font-size="10.00">itk::FiniteDifferenceImage</text>
<text text-anchor="start" x="23.5" y="-286.5" font-family="Helvetica,sans-Serif" font-size="10.00">Filter&lt; TDisplacementField,</text>
<text text-anchor="middle" x="91.5" y="-275.5" font-family="Helvetica,sans-Serif" font-size="10.00"> TDisplacementField &gt;</text>
</a>
</g>
</g>
<!-- Node4&#45;&gt;Node3 -->
<g id="edge3" class="edge">
<title>Node4&#45;&gt;Node3</title>
<path fill="none" stroke="midnightblue" d="M91.5,-257.94C91.5,-245.6 91.5,-231.66 91.5,-220.66"/>
<polygon fill="midnightblue" stroke="midnightblue" points="88,-258.26 91.5,-268.26 95,-258.26 88,-258.26"/>
</g>
<!-- Node5 -->
<g id="node5" class="node">
<title>Node5</title>
<g id="a_node5"><a xlink:href="classitk_1_1InPlaceImageFilter.html" target="_top" xlink:title=" ">
<polygon fill="white" stroke="black" points="370.5,-347.5 370.5,-388.5 498.5,-388.5 498.5,-347.5 370.5,-347.5"/>
<text text-anchor="start" x="378.5" y="-376.5" font-family="Helvetica,sans-Serif" font-size="10.00">itk::InPlaceImageFilter</text>
<text text-anchor="start" x="378.5" y="-365.5" font-family="Helvetica,sans-Serif" font-size="10.00">&lt; TDisplacementField,</text>
<text text-anchor="middle" x="434.5" y="-354.5" font-family="Helvetica,sans-Serif" font-size="10.00"> TDisplacementField &gt;</text>
</a>
</g>
</g>
<!-- Node5&#45;&gt;Node4 -->
<g id="edge4" class="edge">
<title>Node5&#45;&gt;Node4</title>
<path fill="none" stroke="midnightblue" d="M360.37,-350.36C303.41,-337.57 225.01,-319.97 167.57,-307.08"/>
<polygon fill="midnightblue" stroke="midnightblue" points="359.86,-353.83 370.39,-352.61 361.4,-347 359.86,-353.83"/>
</g>
<!-- Node6 -->
<g id="node6" class="node">
<title>Node6</title>
<g id="a_node6"><a xlink:href="classitk_1_1ImageToImageFilter.html" target="_top" xlink:title=" ">
<polygon fill="white" stroke="black" points="632.5,-426.5 632.5,-467.5 764.5,-467.5 764.5,-426.5 632.5,-426.5"/>
<text text-anchor="start" x="640.5" y="-455.5" font-family="Helvetica,sans-Serif" font-size="10.00">itk::ImageToImageFilter</text>
<text text-anchor="start" x="640.5" y="-444.5" font-family="Helvetica,sans-Serif" font-size="10.00">&lt; TDisplacementField,</text>
<text text-anchor="middle" x="698.5" y="-433.5" font-family="Helvetica,sans-Serif" font-size="10.00"> TDisplacementField &gt;</text>
</a>
</g>
</g>
<!-- Node6&#45;&gt;Node5 -->
<g id="edge5" class="edge">
<title>Node6&#45;&gt;Node5</title>
<path fill="none" stroke="midnightblue" d="M622.43,-423.81C583.2,-412.37 535.87,-398.57 498.53,-387.67"/>
<polygon fill="midnightblue" stroke="midnightblue" points="621.64,-427.23 632.22,-426.67 623.6,-420.51 621.64,-427.23"/>
</g>
<!-- Node7 -->
<g id="node7" class="node">
<title>Node7</title>
<g id="a_node7"><a xlink:href="classitk_1_1ImageSource.html" target="_top" xlink:title=" ">
<polygon fill="white" stroke="black" points="606.5,-505.5 606.5,-535.5 790.5,-535.5 790.5,-505.5 606.5,-505.5"/>
<text text-anchor="start" x="614.5" y="-523.5" font-family="Helvetica,sans-Serif" font-size="10.00">itk::ImageSource&lt; TDisplacement</text>
<text text-anchor="middle" x="698.5" y="-512.5" font-family="Helvetica,sans-Serif" font-size="10.00">Field &gt;</text>
</a>
</g>
</g>
<!-- Node7&#45;&gt;Node6 -->
<g id="edge6" class="edge">
<title>Node7&#45;&gt;Node6</title>
<path fill="none" stroke="midnightblue" d="M698.5,-495.1C698.5,-486.1 698.5,-476.02 698.5,-467.51"/>
<polygon fill="midnightblue" stroke="midnightblue" points="695,-495.37 698.5,-505.37 702,-495.37 695,-495.37"/>
</g>
<!-- Node8 -->
<g id="node8" class="node">
<title>Node8</title>
<g id="a_node8"><a xlink:href="classitk_1_1ProcessObject.html" target="_top" xlink:title="The base class for all process objects (source, filters, mappers) in the Insight data processing pipe...">
<polygon fill="white" stroke="black" points="646.5,-573.5 646.5,-592.5 750.5,-592.5 750.5,-573.5 646.5,-573.5"/>
<text text-anchor="middle" x="698.5" y="-580.5" font-family="Helvetica,sans-Serif" font-size="10.00">itk::ProcessObject</text>
</a>
</g>
</g>
<!-- Node8&#45;&gt;Node7 -->
<g id="edge7" class="edge">
<title>Node8&#45;&gt;Node7</title>
<path fill="none" stroke="midnightblue" d="M698.5,-563.22C698.5,-554.36 698.5,-543.96 698.5,-535.76"/>
<polygon fill="midnightblue" stroke="midnightblue" points="695,-563.33 698.5,-573.33 702,-563.33 695,-563.33"/>
</g>
<!-- Node9 -->
<g id="node9" class="node">
<title>Node9</title>
<g id="a_node9"><a xlink:href="classitk_1_1Object.html" target="_top" xlink:title="Base class for most ITK classes.">
<polygon fill="white" stroke="black" points="662,-657 662,-676 729,-676 729,-657 662,-657"/>
<text text-anchor="middle" x="695.5" y="-664" font-family="Helvetica,sans-Serif" font-size="10.00">itk::Object</text>
</a>
</g>
</g>
<!-- Node9&#45;&gt;Node8 -->
<g id="edge8" class="edge">
<title>Node9&#45;&gt;Node8</title>
<path fill="none" stroke="midnightblue" d="M696.2,-646.38C696.83,-629.4 697.71,-605.37 698.18,-592.66"/>
<polygon fill="midnightblue" stroke="midnightblue" points="692.69,-646.66 695.82,-656.78 699.69,-646.91 692.69,-646.66"/>
</g>
<!-- Node10 -->
<g id="node10" class="node">
<title>Node10</title>
<g id="a_node10"><a xlink:href="classitk_1_1LightObject.html" target="_top" xlink:title="Light weight base class for most itk classes.">
<polygon fill="white" stroke="black" points="791,-735 791,-754 882,-754 882,-735 791,-735"/>
<text text-anchor="middle" x="836.5" y="-742" font-family="Helvetica,sans-Serif" font-size="10.00">itk::LightObject</text>
</a>
</g>
</g>
<!-- Node10&#45;&gt;Node9 -->
<g id="edge9" class="edge">
<title>Node10&#45;&gt;Node9</title>
<path fill="none" stroke="midnightblue" d="M811.55,-730.05C782.68,-714.49 735.98,-689.32 711.56,-676.16"/>
<polygon fill="midnightblue" stroke="midnightblue" points="810.14,-733.27 820.6,-734.93 813.46,-727.1 810.14,-733.27"/>
</g>
<!-- Node11 -->
<g id="node11" class="node">
<title>Node11</title>
<g id="a_node11"><a xlink:title=" ">
<polygon fill="white" stroke="#bfbfbf" points="798,-813 798,-832 905,-832 905,-813 798,-813"/>
<text text-anchor="middle" x="851.5" y="-820" font-family="Helvetica,sans-Serif" font-size="10.00">std::atomic&lt; int &gt;</text>
</a>
</g>
</g>
<!-- Node11&#45;&gt;Node10 -->
<g id="edge10" class="edge">
<title>Node11&#45;&gt;Node10</title>
<path fill="none" stroke="#9a32cd" stroke-dasharray="5,2" d="M847.79,-802.72C844.73,-787.2 840.52,-765.86 838.2,-754.12"/>
<polygon fill="#9a32cd" stroke="#9a32cd" points="844.41,-803.65 849.78,-812.78 851.28,-802.29 844.41,-803.65"/>
<text text-anchor="middle" x="893" y="-781" font-family="Helvetica,sans-Serif" font-size="10.00"> m_ReferenceCount</text>
</g>
<!-- Node12 -->
<g id="node12" class="node">
<title>Node12</title>
<g id="a_node12"><a xlink:title="STL class.">
<polygon fill="white" stroke="#bfbfbf" points="350,-735 350,-754 415,-754 415,-735 350,-735"/>
<text text-anchor="middle" x="382.5" y="-742" font-family="Helvetica,sans-Serif" font-size="10.00">std::string</text>
</a>
</g>
</g>
<!-- Node12&#45;&gt;Node9 -->
<g id="edge11" class="edge">
<title>Node12&#45;&gt;Node9</title>
<path fill="none" stroke="#9a32cd" stroke-dasharray="5,2" d="M407.44,-730.24C427.44,-720.24 456.52,-707.07 483.5,-700 556.57,-680.84 578.71,-698.16 652.5,-682 659.27,-680.52 666.47,-678.34 673,-676.12"/>
<polygon fill="#9a32cd" stroke="#9a32cd" points="405.72,-727.19 398.41,-734.86 408.91,-733.43 405.72,-727.19"/>
<text text-anchor="middle" x="523" y="-703" font-family="Helvetica,sans-Serif" font-size="10.00"> m_ObjectName</text>
</g>
<!-- Node21 -->
<g id="node21" class="node">
<title>Node21</title>
<g id="a_node21"><a xlink:title=" ">
<polygon fill="white" stroke="#bfbfbf" points="481.5,-651.5 481.5,-681.5 643.5,-681.5 643.5,-651.5 481.5,-651.5"/>
<text text-anchor="start" x="489.5" y="-669.5" font-family="Helvetica,sans-Serif" font-size="10.00">std::set&lt; DataObjectIdentifier</text>
<text text-anchor="middle" x="562.5" y="-658.5" font-family="Helvetica,sans-Serif" font-size="10.00">Type &gt;</text>
</a>
</g>
</g>
<!-- Node12&#45;&gt;Node21 -->
<g id="edge22" class="edge">
<title>Node12&#45;&gt;Node21</title>
<path fill="none" stroke="#9a32cd" stroke-dasharray="5,2" d="M389.23,-725.36C393.44,-716.42 399.76,-706.24 408.5,-700 415.06,-695.32 448.29,-688.05 482.21,-681.57"/>
<polygon fill="#9a32cd" stroke="#9a32cd" points="385.97,-724.08 385.34,-734.66 392.43,-726.78 385.97,-724.08"/>
<text text-anchor="middle" x="421.5" y="-703" font-family="Helvetica,sans-Serif" font-size="10.00"> keys</text>
</g>
<!-- Node22 -->
<g id="node22" class="node">
<title>Node22</title>
<g id="a_node22"><a xlink:title=" ">
<polygon fill="white" stroke="#bfbfbf" points="294,-651.5 294,-681.5 463,-681.5 463,-651.5 294,-651.5"/>
<text text-anchor="start" x="302" y="-669.5" font-family="Helvetica,sans-Serif" font-size="10.00">std::map&lt; DataObjectIdentifier</text>
<text text-anchor="middle" x="378.5" y="-658.5" font-family="Helvetica,sans-Serif" font-size="10.00">Type, bool &gt;</text>
</a>
</g>
</g>
<!-- Node12&#45;&gt;Node22 -->
<g id="edge24" class="edge">
<title>Node12&#45;&gt;Node22</title>
<path fill="none" stroke="#9a32cd" stroke-dasharray="5,2" d="M367.96,-727.08C364.51,-722.22 361.31,-716.68 359.5,-711 356.3,-700.95 361.05,-690.07 366.6,-681.71"/>
<polygon fill="#9a32cd" stroke="#9a32cd" points="365.24,-729.28 374.19,-734.94 370.72,-724.93 365.24,-729.28"/>
<text text-anchor="middle" x="372.5" y="-703" font-family="Helvetica,sans-Serif" font-size="10.00"> keys</text>
</g>
<!-- Node27 -->
<g id="node27" class="node">
<title>Node27</title>
<g id="a_node27"><a xlink:title=" ">
<polygon fill="white" stroke="#bfbfbf" points="107,-651.5 107,-681.5 276,-681.5 276,-651.5 107,-651.5"/>
<text text-anchor="start" x="115" y="-669.5" font-family="Helvetica,sans-Serif" font-size="10.00">std::map&lt; DataObjectIdentifier</text>
<text text-anchor="middle" x="191.5" y="-658.5" font-family="Helvetica,sans-Serif" font-size="10.00">Type, DataObjectPointer &gt;</text>
</a>
</g>
</g>
<!-- Node12&#45;&gt;Node27 -->
<g id="edge31" class="edge">
<title>Node12&#45;&gt;Node27</title>
<path fill="none" stroke="#9a32cd" stroke-dasharray="5,2" d="M351.5,-731.16C317.39,-717.59 262.66,-695.81 226.89,-681.58"/>
<polygon fill="#9a32cd" stroke="#9a32cd" points="350.38,-734.48 360.96,-734.93 352.96,-727.98 350.38,-734.48"/>
<text text-anchor="middle" x="310.5" y="-703" font-family="Helvetica,sans-Serif" font-size="10.00"> keys</text>
</g>
<!-- Node13 -->
<g id="node13" class="node">
<title>Node13</title>
<g id="a_node13"><a xlink:title="STL class.">
<polygon fill="white" stroke="#bfbfbf" points="330.5,-807.5 330.5,-837.5 434.5,-837.5 434.5,-807.5 330.5,-807.5"/>
<text text-anchor="start" x="338.5" y="-825.5" font-family="Helvetica,sans-Serif" font-size="10.00">std::basic_string&lt;</text>
<text text-anchor="middle" x="382.5" y="-814.5" font-family="Helvetica,sans-Serif" font-size="10.00"> char &gt;</text>
</a>
</g>
</g>
<!-- Node13&#45;&gt;Node12 -->
<g id="edge12" class="edge">
<title>Node13&#45;&gt;Node12</title>
<path fill="none" stroke="midnightblue" d="M382.5,-797.17C382.5,-782.4 382.5,-764.45 382.5,-754.06"/>
<polygon fill="midnightblue" stroke="midnightblue" points="379,-797.2 382.5,-807.2 386,-797.21 379,-797.2"/>
</g>
<!-- Node14 -->
<g id="node14" class="node">
<title>Node14</title>
<g id="a_node14"><a xlink:href="classitk_1_1MetaDataDictionary.html" target="_top" xlink:title="Provides a mechanism for storing a collection of arbitrary data types.">
<polygon fill="white" stroke="black" points="491.5,-735 491.5,-754 625.5,-754 625.5,-735 491.5,-735"/>
<text text-anchor="middle" x="558.5" y="-742" font-family="Helvetica,sans-Serif" font-size="10.00">itk::MetaDataDictionary</text>
</a>
</g>
</g>
<!-- Node14&#45;&gt;Node9 -->
<g id="edge13" class="edge">
<title>Node14&#45;&gt;Node9</title>
<path fill="none" stroke="#9a32cd" stroke-dasharray="5,2" d="M561.6,-724.98C563.99,-716.23 568.18,-706.34 575.5,-700 602.06,-676.99 618.7,-691.63 652.5,-682 658.71,-680.23 665.36,-678.11 671.52,-676.04"/>
<polygon fill="#9a32cd" stroke="#9a32cd" points="558.18,-724.26 559.5,-734.78 565.02,-725.74 558.18,-724.26"/>
<text text-anchor="middle" x="634" y="-703" font-family="Helvetica,sans-Serif" font-size="10.00"> m_MetaDataDictionary</text>
</g>
<!-- Node15 -->
<g id="node15" class="node">
<title>Node15</title>
<g id="a_node15"><a xlink:title=" ">
<polygon fill="white" stroke="#bfbfbf" points="484,-807.5 484,-837.5 633,-837.5 633,-807.5 484,-807.5"/>
<text text-anchor="start" x="492" y="-825.5" font-family="Helvetica,sans-Serif" font-size="10.00">std::shared_ptr&lt; MetaData</text>
<text text-anchor="middle" x="558.5" y="-814.5" font-family="Helvetica,sans-Serif" font-size="10.00">DictionaryMapType &gt;</text>
</a>
</g>
</g>
<!-- Node15&#45;&gt;Node14 -->
<g id="edge14" class="edge">
<title>Node15&#45;&gt;Node14</title>
<path fill="none" stroke="#9a32cd" stroke-dasharray="5,2" d="M558.5,-797.17C558.5,-782.4 558.5,-764.45 558.5,-754.06"/>
<polygon fill="#9a32cd" stroke="#9a32cd" points="555,-797.2 558.5,-807.2 562,-797.21 555,-797.2"/>
<text text-anchor="middle" x="593" y="-781" font-family="Helvetica,sans-Serif" font-size="10.00"> m_Dictionary</text>
</g>
<!-- Node16 -->
<g id="node16" class="node">
<title>Node16</title>
<g id="a_node16"><a xlink:title="STL class.">
<polygon fill="white" stroke="#bfbfbf" points="508,-894.5 508,-913.5 609,-913.5 609,-894.5 508,-894.5"/>
<text text-anchor="middle" x="558.5" y="-901.5" font-family="Helvetica,sans-Serif" font-size="10.00">std::map&lt; K, T &gt;</text>
</a>
</g>
</g>
<!-- Node16&#45;&gt;Node15 -->
<g id="edge15" class="edge">
<title>Node16&#45;&gt;Node15</title>
<path fill="none" stroke="#9a32cd" stroke-dasharray="5,2" d="M558.5,-884.33C558.5,-870.01 558.5,-850.56 558.5,-837.54"/>
<polygon fill="#9a32cd" stroke="#9a32cd" points="555,-884.49 558.5,-894.49 562,-884.49 555,-884.49"/>
<text text-anchor="middle" x="567" y="-863.5" font-family="Helvetica,sans-Serif" font-size="10.00"> ptr</text>
</g>
<!-- Node17 -->
<g id="node17" class="node">
<title>Node17</title>
<g id="a_node17"><a xlink:title=" ">
<polygon fill="white" stroke="#bfbfbf" points="538,-961.5 538,-980.5 567,-980.5 567,-961.5 538,-961.5"/>
<text text-anchor="middle" x="552.5" y="-968.5" font-family="Helvetica,sans-Serif" font-size="10.00">K</text>
</a>
</g>
</g>
<!-- Node17&#45;&gt;Node16 -->
<g id="edge16" class="edge">
<title>Node17&#45;&gt;Node16</title>
<path fill="none" stroke="#9a32cd" stroke-dasharray="5,2" d="M552.41,-951.21C552.54,-945.08 552.84,-938.24 553.5,-932 554.14,-925.93 555.39,-919.18 556.48,-913.95"/>
<polygon fill="#9a32cd" stroke="#9a32cd" points="548.91,-951.2 552.34,-961.22 555.91,-951.25 548.91,-951.2"/>
<text text-anchor="middle" x="566.5" y="-935" font-family="Helvetica,sans-Serif" font-size="10.00"> keys</text>
</g>
<!-- Node18 -->
<g id="node18" class="node">
<title>Node18</title>
<g id="a_node18"><a xlink:title=" ">
<polygon fill="white" stroke="#bfbfbf" points="623,-961.5 623,-980.5 652,-980.5 652,-961.5 623,-961.5"/>
<text text-anchor="middle" x="637.5" y="-968.5" font-family="Helvetica,sans-Serif" font-size="10.00">T</text>
</a>
</g>
</g>
<!-- Node18&#45;&gt;Node16 -->
<g id="edge17" class="edge">
<title>Node18&#45;&gt;Node16</title>
<path fill="none" stroke="#9a32cd" stroke-dasharray="5,2" d="M617.96,-955.23C612.88,-951.31 607.45,-947.04 602.5,-943 590.46,-933.17 576.98,-921.41 568.15,-913.61"/>
<polygon fill="#9a32cd" stroke="#9a32cd" points="615.96,-958.11 626.03,-961.4 620.21,-952.55 615.96,-958.11"/>
<text text-anchor="middle" x="627" y="-935" font-family="Helvetica,sans-Serif" font-size="10.00"> elements</text>
</g>
<!-- Node20 -->
<g id="node20" class="node">
<title>Node20</title>
<g id="a_node20"><a xlink:title="STL class.">
<polygon fill="white" stroke="#bfbfbf" points="623.5,-856.5 623.5,-875.5 723.5,-875.5 723.5,-856.5 623.5,-856.5"/>
<text text-anchor="middle" x="673.5" y="-863.5" font-family="Helvetica,sans-Serif" font-size="10.00">std::atomic&lt; T &gt;</text>
</a>
</g>
</g>
<!-- Node18&#45;&gt;Node20 -->
<g id="edge20" class="edge">
<title>Node18&#45;&gt;Node20</title>
<path fill="none" stroke="#9a32cd" stroke-dasharray="5,2" d="M647.34,-952.22C648.84,-949.19 650.29,-946.04 651.5,-943 660.98,-919.27 668.3,-889.9 671.59,-875.62"/>
<polygon fill="#9a32cd" stroke="#9a32cd" points="644.17,-950.73 642.62,-961.21 650.37,-953.98 644.17,-950.73"/>
<text text-anchor="middle" x="663" y="-935" font-family="Helvetica,sans-Serif" font-size="10.00"> ptr</text>
</g>
<!-- Node19 -->
<g id="node19" class="node">
<title>Node19</title>
<g id="a_node19"><a xlink:href="classitk_1_1TimeStamp.html" target="_top" xlink:title="Generate a unique, increasing time value.">
<polygon fill="white" stroke="black" points="652.5,-735 652.5,-754 744.5,-754 744.5,-735 652.5,-735"/>
<text text-anchor="middle" x="698.5" y="-742" font-family="Helvetica,sans-Serif" font-size="10.00">itk::TimeStamp</text>
</a>
</g>
</g>
<!-- Node19&#45;&gt;Node8 -->
<g id="edge33" class="edge">
<title>Node19&#45;&gt;Node8</title>
<path fill="none" stroke="#9a32cd" stroke-dasharray="5,2" d="M731.85,-730.09C739.67,-725.28 747.02,-719.01 751.5,-711 753.89,-706.73 752.13,-704.85 751.5,-700 748.59,-677.66 747.25,-671.76 738.5,-651 729.14,-628.78 713.46,-605.07 704.77,-592.68"/>
<polygon fill="#9a32cd" stroke="#9a32cd" points="730.08,-727.07 722.95,-734.91 733.41,-733.22 730.08,-727.07"/>
<text text-anchor="middle" x="819.5" y="-664" font-family="Helvetica,sans-Serif" font-size="10.00"> m_OutputInformationMTime</text>
</g>
<!-- Node19&#45;&gt;Node9 -->
<g id="edge18" class="edge">
<title>Node19&#45;&gt;Node9</title>
<path fill="none" stroke="#9a32cd" stroke-dasharray="5,2" d="M697.76,-724.72C697.15,-709.2 696.3,-687.86 695.84,-676.12"/>
<polygon fill="#9a32cd" stroke="#9a32cd" points="694.26,-724.93 698.16,-734.78 701.26,-724.65 694.26,-724.93"/>
<text text-anchor="middle" x="722.5" y="-703" font-family="Helvetica,sans-Serif" font-size="10.00"> m_MTime</text>
</g>
<!-- Node20&#45;&gt;Node19 -->
<g id="edge19" class="edge">
<title>Node20&#45;&gt;Node19</title>
<path fill="none" stroke="#9a32cd" stroke-dasharray="5,2" d="M676.4,-846.26C678.24,-834.87 680.79,-820.06 683.5,-807 687.44,-788.06 693.05,-766.1 696.17,-754.22"/>
<polygon fill="#9a32cd" stroke="#9a32cd" points="672.91,-845.89 674.81,-856.32 679.83,-846.99 672.91,-845.89"/>
<text text-anchor="middle" x="736.5" y="-820" font-family="Helvetica,sans-Serif" font-size="10.00"> m_GlobalTimeStamp</text>
</g>
<!-- Node21&#45;&gt;Node8 -->
<g id="edge21" class="edge">
<title>Node21&#45;&gt;Node8</title>
<path fill="none" stroke="#9a32cd" stroke-dasharray="5,2" d="M560.78,-640.77C561.39,-630.33 564.03,-618.82 571.5,-611 581.89,-600.12 615.98,-593.24 646.23,-589.16"/>
<polygon fill="#9a32cd" stroke="#9a32cd" points="557.28,-641.04 560.76,-651.04 564.28,-641.05 557.28,-641.04"/>
<text text-anchor="middle" x="632" y="-619.5" font-family="Helvetica,sans-Serif" font-size="10.00"> m_RequiredInputNames</text>
</g>
<!-- Node22&#45;&gt;Node8 -->
<g id="edge23" class="edge">
<title>Node22&#45;&gt;Node8</title>
<path fill="none" stroke="#9a32cd" stroke-dasharray="5,2" d="M388.45,-642.14C394.55,-630.8 403.51,-618.1 415.5,-611 453.29,-588.61 575.35,-584.31 646.22,-583.76"/>
<polygon fill="#9a32cd" stroke="#9a32cd" points="385.27,-640.69 384,-651.21 391.55,-643.78 385.27,-640.69"/>
<text text-anchor="start" x="415.5" y="-625" font-family="Helvetica,sans-Serif" font-size="10.00"> m_CachedInputReleaseData</text>
<text text-anchor="middle" x="486.5" y="-614" font-family="Helvetica,sans-Serif" font-size="10.00">Flags</text>
</g>
<!-- Node23 -->
<g id="node23" class="node">
<title>Node23</title>
<g id="a_node23"><a xlink:title=" ">
<polygon fill="white" stroke="#bfbfbf" points="1085.5,-657 1085.5,-676 1219.5,-676 1219.5,-657 1085.5,-657"/>
<text text-anchor="middle" x="1152.5" y="-664" font-family="Helvetica,sans-Serif" font-size="10.00">std::atomic&lt; uint32_t &gt;</text>
</a>
</g>
</g>
<!-- Node23&#45;&gt;Node8 -->
<g id="edge25" class="edge">
<title>Node23&#45;&gt;Node8</title>
<path fill="none" stroke="#9a32cd" stroke-dasharray="5,2" d="M1118.7,-653.54C1081.43,-640.86 1019.46,-621.29 964.5,-611 875.04,-594.25 850.91,-603.54 760.5,-593 757.26,-592.62 753.93,-592.21 750.57,-591.77"/>
<polygon fill="#9a32cd" stroke="#9a32cd" points="1117.93,-656.98 1128.53,-656.92 1120.21,-650.36 1117.93,-656.98"/>
<text text-anchor="middle" x="1083" y="-619.5" font-family="Helvetica,sans-Serif" font-size="10.00"> m_Progress</text>
</g>
<!-- Node24 -->
<g id="node24" class="node">
<title>Node24</title>
<g id="a_node24"><a xlink:title=" ">
<polygon fill="white" stroke="#bfbfbf" points="1124.5,-735 1124.5,-754 1180.5,-754 1180.5,-735 1124.5,-735"/>
<text text-anchor="middle" x="1152.5" y="-742" font-family="Helvetica,sans-Serif" font-size="10.00">uint32_t</text>
</a>
</g>
</g>
<!-- Node24&#45;&gt;Node23 -->
<g id="edge26" class="edge">
<title>Node24&#45;&gt;Node23</title>
<path fill="none" stroke="#9a32cd" stroke-dasharray="5,2" d="M1152.5,-724.72C1152.5,-709.2 1152.5,-687.86 1152.5,-676.12"/>
<polygon fill="#9a32cd" stroke="#9a32cd" points="1149,-724.78 1152.5,-734.78 1156,-724.78 1149,-724.78"/>
<text text-anchor="middle" x="1161" y="-703" font-family="Helvetica,sans-Serif" font-size="10.00"> ptr</text>
</g>
<!-- Node25 -->
<g id="node25" class="node">
<title>Node25</title>
<g id="a_node25"><a xlink:title=" ">
<polygon fill="white" stroke="#bfbfbf" points="1238,-651.5 1238,-681.5 1407,-681.5 1407,-651.5 1238,-651.5"/>
<text text-anchor="start" x="1246" y="-669.5" font-family="Helvetica,sans-Serif" font-size="10.00">std::vector&lt; DataObjectPointer</text>
<text text-anchor="middle" x="1322.5" y="-658.5" font-family="Helvetica,sans-Serif" font-size="10.00">Map::iterator &gt;</text>
</a>
</g>
</g>
<!-- Node25&#45;&gt;Node8 -->
<g id="edge27" class="edge">
<title>Node25&#45;&gt;Node8</title>
<path fill="none" stroke="#9a32cd" stroke-dasharray="5,2" d="M1270.48,-648.43C1229.43,-635.75 1170.44,-619.28 1117.5,-611 960.54,-586.46 918.62,-608.43 760.5,-593 757.25,-592.68 753.91,-592.32 750.55,-591.92"/>
<polygon fill="#9a32cd" stroke="#9a32cd" points="1269.67,-651.84 1280.26,-651.48 1271.76,-645.16 1269.67,-651.84"/>
<text text-anchor="middle" x="1261" y="-625" font-family="Helvetica,sans-Serif" font-size="10.00"> m_IndexedOutputs</text>
<text text-anchor="middle" x="1261" y="-614" font-family="Helvetica,sans-Serif" font-size="10.00">m_IndexedInputs</text>
</g>
<!-- Node26 -->
<g id="node26" class="node">
<title>Node26</title>
<g id="a_node26"><a xlink:title="STL iterator class.">
<polygon fill="white" stroke="#bfbfbf" points="1251,-735 1251,-754 1394,-754 1394,-735 1251,-735"/>
<text text-anchor="middle" x="1322.5" y="-742" font-family="Helvetica,sans-Serif" font-size="10.00">std::map&lt; K, T &gt;::iterator</text>
</a>
</g>
</g>
<!-- Node26&#45;&gt;Node25 -->
<g id="edge28" class="edge">
<title>Node26&#45;&gt;Node25</title>
<path fill="none" stroke="#9a32cd" stroke-dasharray="5,2" d="M1322.5,-724.78C1322.5,-711.4 1322.5,-693.69 1322.5,-681.52"/>
<polygon fill="#9a32cd" stroke="#9a32cd" points="1319,-724.78 1322.5,-734.78 1326,-724.78 1319,-724.78"/>
<text text-anchor="middle" x="1347" y="-703" font-family="Helvetica,sans-Serif" font-size="10.00"> elements</text>
</g>
<!-- Node27&#45;&gt;Node8 -->
<g id="edge29" class="edge">
<title>Node27&#45;&gt;Node8</title>
<path fill="none" stroke="#9a32cd" stroke-dasharray="5,2" d="M229.77,-647.15C257.6,-634.7 296.54,-619.09 332.5,-611 442.21,-586.32 574.62,-582.84 646.27,-583.05"/>
<polygon fill="#9a32cd" stroke="#9a32cd" points="228.07,-644.08 220.42,-651.41 230.97,-650.46 228.07,-644.08"/>
<text text-anchor="middle" x="361" y="-625" font-family="Helvetica,sans-Serif" font-size="10.00"> m_Outputs</text>
<text text-anchor="middle" x="361" y="-614" font-family="Helvetica,sans-Serif" font-size="10.00">m_Inputs</text>
</g>
<!-- Node28 -->
<g id="node28" class="node">
<title>Node28</title>
<g id="a_node28"><a xlink:href="classitk_1_1SmartPointer.html" target="_top" xlink:title=" ">
<polygon fill="white" stroke="black" points="54,-729.5 54,-759.5 161,-759.5 161,-729.5 54,-729.5"/>
<text text-anchor="start" x="62" y="-747.5" font-family="Helvetica,sans-Serif" font-size="10.00">itk::SmartPointer&lt;</text>
<text text-anchor="middle" x="107.5" y="-736.5" font-family="Helvetica,sans-Serif" font-size="10.00"> Self &gt;</text>
</a>
</g>
</g>
<!-- Node28&#45;&gt;Node4 -->
<g id="edge36" class="edge">
<title>Node28&#45;&gt;Node4</title>
<path fill="none" stroke="#9a32cd" stroke-dasharray="5,2" d="M94.3,-720.64C87.05,-705.95 79.5,-686.19 79.5,-667.5 79.5,-667.5 79.5,-667.5 79.5,-367 79.5,-347.38 83.35,-325.28 86.69,-309.81"/>
<polygon fill="#9a32cd" stroke="#9a32cd" points="91.2,-722.27 98.95,-729.5 97.4,-719.02 91.2,-722.27"/>
<text text-anchor="middle" x="134.5" y="-518" font-family="Helvetica,sans-Serif" font-size="10.00"> m_DifferenceFunction</text>
</g>
<!-- Node28&#45;&gt;Node27 -->
<g id="edge30" class="edge">
<title>Node28&#45;&gt;Node27</title>
<path fill="none" stroke="#9a32cd" stroke-dasharray="5,2" d="M130.83,-722.39C145.15,-709.43 163.12,-693.18 175.77,-681.73"/>
<polygon fill="#9a32cd" stroke="#9a32cd" points="128.37,-719.9 123.3,-729.2 133.06,-725.09 128.37,-719.9"/>
<text text-anchor="middle" x="180" y="-703" font-family="Helvetica,sans-Serif" font-size="10.00"> elements</text>
</g>
<!-- Node29 -->
<g id="node29" class="node">
<title>Node29</title>
<g id="a_node29"><a xlink:href="classitk_1_1SmartPointer.html" target="_top" xlink:title=" ">
<polygon fill="white" stroke="black" points="925.5,-651.5 925.5,-681.5 1067.5,-681.5 1067.5,-651.5 925.5,-651.5"/>
<text text-anchor="start" x="933.5" y="-669.5" font-family="Helvetica,sans-Serif" font-size="10.00">itk::SmartPointer&lt;</text>
<text text-anchor="middle" x="996.5" y="-658.5" font-family="Helvetica,sans-Serif" font-size="10.00"> itk::MultiThreaderBase &gt;</text>
</a>
</g>
</g>
<!-- Node29&#45;&gt;Node8 -->
<g id="edge32" class="edge">
<title>Node29&#45;&gt;Node8</title>
<path fill="none" stroke="#9a32cd" stroke-dasharray="5,2" d="M935.54,-648.83C873.12,-631.76 778.54,-605.89 729.88,-592.58"/>
<polygon fill="#9a32cd" stroke="#9a32cd" points="934.7,-652.23 945.27,-651.49 936.55,-645.48 934.7,-652.23"/>
<text text-anchor="middle" x="917" y="-619.5" font-family="Helvetica,sans-Serif" font-size="10.00"> m_MultiThreader</text>
</g>
<!-- Node30 -->
<g id="node30" class="node">
<title>Node30</title>
<g id="a_node30"><a xlink:href="structitk_1_1ImageSourceCommon.html" target="_top" xlink:title="Secondary base class of ImageSource common between templates.">
<polygon fill="white" stroke="black" points="769,-573.5 769,-592.5 912,-592.5 912,-573.5 769,-573.5"/>
<text text-anchor="middle" x="840.5" y="-580.5" font-family="Helvetica,sans-Serif" font-size="10.00">itk::ImageSourceCommon</text>
</a>
</g>
</g>
<!-- Node30&#45;&gt;Node7 -->
<g id="edge34" class="edge">
<title>Node30&#45;&gt;Node7</title>
<path fill="none" stroke="#8b1a1a" d="M811.14,-569.49C787.97,-559.62 755.65,-545.85 731.57,-535.59"/>
<polygon fill="#8b1a1a" stroke="#8b1a1a" points="809.88,-572.76 820.46,-573.46 812.63,-566.32 809.88,-572.76"/>
</g>
<!-- Node31 -->
<g id="node31" class="node">
<title>Node31</title>
<g id="a_node31"><a xlink:href="classitk_1_1ImageToImageFilterCommon.html" target="_top" xlink:title="Secondary base class of ImageToImageFilter common between templates.">
<polygon fill="white" stroke="black" points="808.5,-511 808.5,-530 984.5,-530 984.5,-511 808.5,-511"/>
<text text-anchor="middle" x="896.5" y="-518" font-family="Helvetica,sans-Serif" font-size="10.00">itk::ImageToImageFilterCommon</text>
</a>
</g>
</g>
<!-- Node31&#45;&gt;Node6 -->
<g id="edge35" class="edge">
<title>Node31&#45;&gt;Node6</title>
<path fill="none" stroke="#8b1a1a" d="M862.99,-507.4C832.83,-496.51 787.98,-480.31 752.72,-467.58"/>
<polygon fill="#8b1a1a" stroke="#8b1a1a" points="862.02,-510.77 872.62,-510.88 864.4,-504.19 862.02,-510.77"/>
</g>
<!-- Node32 -->
<g id="node32" class="node">
<title>Node32</title>
<g id="a_node32"><a xlink:href="classitk_1_1FixedArray.html" target="_top" xlink:title=" ">
<polygon fill="white" stroke="black" points="201.5,-185 201.5,-215 335.5,-215 335.5,-185 201.5,-185"/>
<text text-anchor="start" x="209.5" y="-203" font-family="Helvetica,sans-Serif" font-size="10.00">itk::FixedArray&lt; double,</text>
<text text-anchor="middle" x="268.5" y="-192" font-family="Helvetica,sans-Serif" font-size="10.00"> ImageDimension &gt;</text>
</a>
</g>
</g>
<!-- Node32&#45;&gt;Node2 -->
<g id="edge37" class="edge">
<title>Node32&#45;&gt;Node2</title>
<path fill="none" stroke="#9a32cd" stroke-dasharray="5,2" d="M248.73,-177.24C233.4,-160.35 212.32,-137.14 197.46,-120.78"/>
<polygon fill="#9a32cd" stroke="#9a32cd" points="246.43,-179.91 255.75,-184.96 251.62,-175.2 246.43,-179.91"/>
<text text-anchor="middle" x="317.5" y="-153" font-family="Helvetica,sans-Serif" font-size="10.00"> m_StandardDeviations</text>
<text text-anchor="middle" x="317.5" y="-142" font-family="Helvetica,sans-Serif" font-size="10.00">m_UpdateFieldStandardDeviations</text>
</g>
<!-- Node33 -->
<g id="node33" class="node">
<title>Node33</title>
<g id="a_node33"><a xlink:title=" ">
<polygon fill="white" stroke="#bfbfbf" points="240.5,-279.5 240.5,-298.5 296.5,-298.5 296.5,-279.5 240.5,-279.5"/>
<text text-anchor="middle" x="268.5" y="-286.5" font-family="Helvetica,sans-Serif" font-size="10.00">VLength</text>
</a>
</g>
</g>
<!-- Node33&#45;&gt;Node32 -->
<g id="edge38" class="edge">
<title>Node33&#45;&gt;Node32</title>
<path fill="none" stroke="#9a32cd" stroke-dasharray="5,2" d="M268.5,-268.91C268.5,-252.65 268.5,-229.66 268.5,-215.05"/>
<polygon fill="#9a32cd" stroke="#9a32cd" points="265,-269.34 268.5,-279.34 272,-269.34 265,-269.34"/>
<text text-anchor="middle" x="309.5" y="-242" font-family="Helvetica,sans-Serif" font-size="10.00"> m_InternalArray</text>
</g>
</g>
</svg>
