<?xml version="1.0" encoding="UTF-8" standalone="no"?>
<!DOCTYPE svg PUBLIC "-//W3C//DTD SVG 1.1//EN"
 "http://www.w3.org/Graphics/SVG/1.1/DTD/svg11.dtd">
<!-- Generated by graphviz version 2.43.0 (0)
 -->
<!-- Title: itk::Statistics::ProbabilityDistribution Pages: 1 -->
<svg width="562pt" height="127pt"
 viewBox="0.00 0.00 562.00 126.50" xmlns="http://www.w3.org/2000/svg" xmlns:xlink="http://www.w3.org/1999/xlink">
<g id="graph0" class="graph" transform="scale(1 1) rotate(0) translate(4 122.5)">
<title>itk::Statistics::ProbabilityDistribution</title>
<polygon fill="white" stroke="transparent" points="-4,4 -4,-122.5 558,-122.5 558,4 -4,4"/>
<!-- Node1 -->
<g id="node1" class="node">
<title>Node1</title>
<g id="a_node1"><a xlink:title="ProbabilityDistribution class defines common interface for statistical distributions (pdfs,...">
<polygon fill="#bfbfbf" stroke="black" points="230,-39 230,-69 369,-69 369,-39 230,-39"/>
<text text-anchor="start" x="238" y="-57" font-family="Helvetica,sans-Serif" font-size="10.00">itk::Statistics::Probability</text>
<text text-anchor="middle" x="299.5" y="-46" font-family="Helvetica,sans-Serif" font-size="10.00">Distribution</text>
</a>
</g>
</g>
<!-- Node4 -->
<g id="node4" class="node">
<title>Node4</title>
<g id="a_node4"><a xlink:href="classitk_1_1Statistics_1_1ChiSquareDistribution.html" target="_top" xlink:title="ChiSquareDistribution class defines the interface for a univariate Chi&#45;Square distribution (pdfs,...">
<polygon fill="white" stroke="black" points="411.5,-88 411.5,-118 547.5,-118 547.5,-88 411.5,-88"/>
<text text-anchor="start" x="419.5" y="-106" font-family="Helvetica,sans-Serif" font-size="10.00">itk::Statistics::ChiSquare</text>
<text text-anchor="middle" x="479.5" y="-95" font-family="Helvetica,sans-Serif" font-size="10.00">Distribution</text>
</a>
</g>
</g>
<!-- Node1&#45;&gt;Node4 -->
<g id="edge3" class="edge">
<title>Node1&#45;&gt;Node4</title>
<path fill="none" stroke="midnightblue" d="M365.24,-71.82C384.46,-77.11 405.31,-82.85 423.82,-87.95"/>
<polygon fill="midnightblue" stroke="midnightblue" points="365.93,-68.38 355.36,-69.1 364.07,-75.13 365.93,-68.38"/>
</g>
<!-- Node5 -->
<g id="node5" class="node">
<title>Node5</title>
<g id="a_node5"><a xlink:href="classitk_1_1Statistics_1_1GaussianDistribution.html" target="_top" xlink:title="GaussianDistribution class defines the interface for a univariate Gaussian distribution (pdfs,...">
<polygon fill="white" stroke="black" points="414,-39 414,-69 545,-69 545,-39 414,-39"/>
<text text-anchor="start" x="422" y="-57" font-family="Helvetica,sans-Serif" font-size="10.00">itk::Statistics::Gaussian</text>
<text text-anchor="middle" x="479.5" y="-46" font-family="Helvetica,sans-Serif" font-size="10.00">Distribution</text>
</a>
</g>
</g>
<!-- Node1&#45;&gt;Node5 -->
<g id="edge4" class="edge">
<title>Node1&#45;&gt;Node5</title>
<path fill="none" stroke="midnightblue" d="M379.15,-54C390.72,-54 402.53,-54 413.77,-54"/>
<polygon fill="midnightblue" stroke="midnightblue" points="379.06,-50.5 369.06,-54 379.06,-57.5 379.06,-50.5"/>
</g>
<!-- Node6 -->
<g id="node6" class="node">
<title>Node6</title>
<g id="a_node6"><a xlink:href="classitk_1_1Statistics_1_1TDistribution.html" target="_top" xlink:title="TDistribution class defines the interface for a univariate Student&#45;t distribution (pdfs,...">
<polygon fill="white" stroke="black" points="405,-0.5 405,-19.5 554,-19.5 554,-0.5 405,-0.5"/>
<text text-anchor="middle" x="479.5" y="-7.5" font-family="Helvetica,sans-Serif" font-size="10.00">itk::Statistics::TDistribution</text>
</a>
</g>
</g>
<!-- Node1&#45;&gt;Node6 -->
<g id="edge5" class="edge">
<title>Node1&#45;&gt;Node6</title>
<path fill="none" stroke="midnightblue" d="M371.19,-36.53C394.66,-30.72 419.91,-24.48 440.02,-19.51"/>
<polygon fill="midnightblue" stroke="midnightblue" points="370.13,-33.18 361.26,-38.98 371.81,-39.98 370.13,-33.18"/>
</g>
<!-- Node2 -->
<g id="node2" class="node">
<title>Node2</title>
<g id="a_node2"><a xlink:href="classitk_1_1Object.html" target="_top" xlink:title="Base class for most ITK classes.">
<polygon fill="white" stroke="black" points="127,-44.5 127,-63.5 194,-63.5 194,-44.5 127,-44.5"/>
<text text-anchor="middle" x="160.5" y="-51.5" font-family="Helvetica,sans-Serif" font-size="10.00">itk::Object</text>
</a>
</g>
</g>
<!-- Node2&#45;&gt;Node1 -->
<g id="edge1" class="edge">
<title>Node2&#45;&gt;Node1</title>
<path fill="none" stroke="midnightblue" d="M204.56,-54C212.64,-54 221.26,-54 229.88,-54"/>
<polygon fill="midnightblue" stroke="midnightblue" points="204.31,-50.5 194.31,-54 204.31,-57.5 204.31,-50.5"/>
</g>
<!-- Node3 -->
<g id="node3" class="node">
<title>Node3</title>
<g id="a_node3"><a xlink:href="classitk_1_1LightObject.html" target="_top" xlink:title="Light weight base class for most itk classes.">
<polygon fill="white" stroke="black" points="0,-44.5 0,-63.5 91,-63.5 91,-44.5 0,-44.5"/>
<text text-anchor="middle" x="45.5" y="-51.5" font-family="Helvetica,sans-Serif" font-size="10.00">itk::LightObject</text>
</a>
</g>
</g>
<!-- Node3&#45;&gt;Node2 -->
<g id="edge2" class="edge">
<title>Node3&#45;&gt;Node2</title>
<path fill="none" stroke="midnightblue" d="M101.28,-54C109.96,-54 118.69,-54 126.66,-54"/>
<polygon fill="midnightblue" stroke="midnightblue" points="101.16,-50.5 91.16,-54 101.16,-57.5 101.16,-50.5"/>
</g>
</g>
</svg>
