<?xml version="1.0" encoding="UTF-8" standalone="no"?>
<!DOCTYPE svg PUBLIC "-//W3C//DTD SVG 1.1//EN"
 "http://www.w3.org/Graphics/SVG/1.1/DTD/svg11.dtd">
<!-- Generated by graphviz version 2.43.0 (0)
 -->
<!-- Title: itk::NumericTraits&lt; CovariantVector&lt; T, D &gt; &gt; Pages: 1 -->
<svg width="161pt" height="263pt"
 viewBox="0.00 0.00 160.50 263.00" xmlns="http://www.w3.org/2000/svg" xmlns:xlink="http://www.w3.org/1999/xlink">
<g id="graph0" class="graph" transform="scale(1 1) rotate(0) translate(4 259)">
<title>itk::NumericTraits&lt; CovariantVector&lt; T, D &gt; &gt;</title>
<polygon fill="white" stroke="transparent" points="-4,4 -4,-259 156.5,-259 156.5,4 -4,4"/>
<!-- Node1 -->
<g id="node1" class="node">
<title>Node1</title>
<g id="a_node1"><a xlink:title="Define numeric traits for CovariantVector.">
<polygon fill="#bfbfbf" stroke="black" points="7.5,-0.5 7.5,-41.5 133.5,-41.5 133.5,-0.5 7.5,-0.5"/>
<text text-anchor="start" x="15.5" y="-29.5" font-family="Helvetica,sans-Serif" font-size="10.00">itk::NumericTraits</text>
<text text-anchor="start" x="15.5" y="-18.5" font-family="Helvetica,sans-Serif" font-size="10.00">&lt; CovariantVector&lt; T,</text>
<text text-anchor="middle" x="70.5" y="-7.5" font-family="Helvetica,sans-Serif" font-size="10.00"> D &gt; &gt;</text>
</a>
</g>
</g>
<!-- Node2 -->
<g id="node2" class="node">
<title>Node2</title>
<g id="a_node2"><a xlink:href="classitk_1_1CovariantVector.html" target="_top" xlink:title="A templated class holding a n&#45;Dimensional covariant vector.">
<polygon fill="white" stroke="black" points="0,-100.5 0,-130.5 141,-130.5 141,-100.5 0,-100.5"/>
<text text-anchor="start" x="8" y="-118.5" font-family="Helvetica,sans-Serif" font-size="10.00">itk::CovariantVector</text>
<text text-anchor="middle" x="70.5" y="-107.5" font-family="Helvetica,sans-Serif" font-size="10.00">&lt; T, VVectorDimension &gt;</text>
</a>
</g>
</g>
<!-- Node2&#45;&gt;Node1 -->
<g id="edge1" class="edge">
<title>Node2&#45;&gt;Node1</title>
<path fill="none" stroke="#9a32cd" stroke-dasharray="5,2" d="M70.5,-90.28C70.5,-75.14 70.5,-55.88 70.5,-41.68"/>
<polygon fill="#9a32cd" stroke="#9a32cd" points="67,-90.45 70.5,-100.45 74,-90.45 67,-90.45"/>
<text text-anchor="middle" x="82" y="-74" font-family="Helvetica,sans-Serif" font-size="10.00"> One</text>
<text text-anchor="middle" x="82" y="-63" font-family="Helvetica,sans-Serif" font-size="10.00">Zero</text>
</g>
<!-- Node3 -->
<g id="node3" class="node">
<title>Node3</title>
<g id="a_node3"><a xlink:href="classitk_1_1FixedArray.html" target="_top" xlink:title=" ">
<polygon fill="white" stroke="black" points="6.5,-168.5 6.5,-187.5 134.5,-187.5 134.5,-168.5 6.5,-168.5"/>
<text text-anchor="middle" x="70.5" y="-175.5" font-family="Helvetica,sans-Serif" font-size="10.00">itk::FixedArray&lt; T, 3 &gt;</text>
</a>
</g>
</g>
<!-- Node3&#45;&gt;Node2 -->
<g id="edge2" class="edge">
<title>Node3&#45;&gt;Node2</title>
<path fill="none" stroke="midnightblue" d="M70.5,-158.22C70.5,-149.36 70.5,-138.96 70.5,-130.76"/>
<polygon fill="midnightblue" stroke="midnightblue" points="67,-158.33 70.5,-168.33 74,-158.33 67,-158.33"/>
</g>
<!-- Node4 -->
<g id="node4" class="node">
<title>Node4</title>
<g id="a_node4"><a xlink:title=" ">
<polygon fill="white" stroke="#bfbfbf" points="42.5,-235.5 42.5,-254.5 98.5,-254.5 98.5,-235.5 42.5,-235.5"/>
<text text-anchor="middle" x="70.5" y="-242.5" font-family="Helvetica,sans-Serif" font-size="10.00">VLength</text>
</a>
</g>
</g>
<!-- Node4&#45;&gt;Node3 -->
<g id="edge3" class="edge">
<title>Node4&#45;&gt;Node3</title>
<path fill="none" stroke="#9a32cd" stroke-dasharray="5,2" d="M70.5,-225.04C70.5,-212.67 70.5,-197.12 70.5,-187.63"/>
<polygon fill="#9a32cd" stroke="#9a32cd" points="67,-225.23 70.5,-235.23 74,-225.23 67,-225.23"/>
<text text-anchor="middle" x="111.5" y="-209" font-family="Helvetica,sans-Serif" font-size="10.00"> m_InternalArray</text>
</g>
</g>
</svg>
