<?xml version="1.0" encoding="UTF-8" standalone="no"?>
<!DOCTYPE svg PUBLIC "-//W3C//DTD SVG 1.1//EN"
 "http://www.w3.org/Graphics/SVG/1.1/DTD/svg11.dtd">
<!-- Generated by graphviz version 2.43.0 (0)
 -->
<!-- Title: itk::MeshSpatialObject&lt; TMesh &gt; Pages: 1 -->
<svg width="195pt" height="274pt"
 viewBox="0.00 0.00 195.00 274.00" xmlns="http://www.w3.org/2000/svg" xmlns:xlink="http://www.w3.org/1999/xlink">
<g id="graph0" class="graph" transform="scale(1 1) rotate(0) translate(4 270)">
<title>itk::MeshSpatialObject&lt; TMesh &gt;</title>
<polygon fill="white" stroke="transparent" points="-4,4 -4,-270 191,-270 191,4 -4,4"/>
<!-- Node1 -->
<g id="node1" class="node">
<title>Node1</title>
<g id="a_node1"><a xlink:title="Implementation of an Mesh as spatial object.">
<polygon fill="#bfbfbf" stroke="black" points="30,-0.5 30,-30.5 157,-30.5 157,-0.5 30,-0.5"/>
<text text-anchor="start" x="38" y="-18.5" font-family="Helvetica,sans-Serif" font-size="10.00">itk::MeshSpatialObject</text>
<text text-anchor="middle" x="93.5" y="-7.5" font-family="Helvetica,sans-Serif" font-size="10.00">&lt; TMesh &gt;</text>
</a>
</g>
</g>
<!-- Node2 -->
<g id="node2" class="node">
<title>Node2</title>
<g id="a_node2"><a xlink:href="classitk_1_1SpatialObject.html" target="_top" xlink:title=" ">
<polygon fill="white" stroke="black" points="0,-67.5 0,-97.5 187,-97.5 187,-67.5 0,-67.5"/>
<text text-anchor="start" x="8" y="-85.5" font-family="Helvetica,sans-Serif" font-size="10.00">itk::SpatialObject</text>
<text text-anchor="middle" x="93.5" y="-74.5" font-family="Helvetica,sans-Serif" font-size="10.00">&lt; Mesh&lt; int &gt; ::PointDimension &gt;</text>
</a>
</g>
</g>
<!-- Node2&#45;&gt;Node1 -->
<g id="edge1" class="edge">
<title>Node2&#45;&gt;Node1</title>
<path fill="none" stroke="midnightblue" d="M93.5,-57.11C93.5,-48.15 93.5,-38.32 93.5,-30.58"/>
<polygon fill="midnightblue" stroke="midnightblue" points="90,-57.4 93.5,-67.4 97,-57.4 90,-57.4"/>
</g>
<!-- Node3 -->
<g id="node3" class="node">
<title>Node3</title>
<g id="a_node3"><a xlink:href="classitk_1_1DataObject.html" target="_top" xlink:title="Base class for all data objects in ITK.">
<polygon fill="white" stroke="black" points="48.5,-134.5 48.5,-153.5 138.5,-153.5 138.5,-134.5 48.5,-134.5"/>
<text text-anchor="middle" x="93.5" y="-141.5" font-family="Helvetica,sans-Serif" font-size="10.00">itk::DataObject</text>
</a>
</g>
</g>
<!-- Node3&#45;&gt;Node2 -->
<g id="edge2" class="edge">
<title>Node3&#45;&gt;Node2</title>
<path fill="none" stroke="midnightblue" d="M93.5,-124.23C93.5,-115.59 93.5,-105.5 93.5,-97.52"/>
<polygon fill="midnightblue" stroke="midnightblue" points="90,-124.48 93.5,-134.48 97,-124.48 90,-124.48"/>
</g>
<!-- Node4 -->
<g id="node4" class="node">
<title>Node4</title>
<g id="a_node4"><a xlink:href="classitk_1_1Object.html" target="_top" xlink:title="Base class for most ITK classes.">
<polygon fill="white" stroke="black" points="60,-190.5 60,-209.5 127,-209.5 127,-190.5 60,-190.5"/>
<text text-anchor="middle" x="93.5" y="-197.5" font-family="Helvetica,sans-Serif" font-size="10.00">itk::Object</text>
</a>
</g>
</g>
<!-- Node4&#45;&gt;Node3 -->
<g id="edge3" class="edge">
<title>Node4&#45;&gt;Node3</title>
<path fill="none" stroke="midnightblue" d="M93.5,-179.8C93.5,-170.91 93.5,-160.78 93.5,-153.75"/>
<polygon fill="midnightblue" stroke="midnightblue" points="90,-180.08 93.5,-190.08 97,-180.08 90,-180.08"/>
</g>
<!-- Node5 -->
<g id="node5" class="node">
<title>Node5</title>
<g id="a_node5"><a xlink:href="classitk_1_1LightObject.html" target="_top" xlink:title="Light weight base class for most itk classes.">
<polygon fill="white" stroke="black" points="48,-246.5 48,-265.5 139,-265.5 139,-246.5 48,-246.5"/>
<text text-anchor="middle" x="93.5" y="-253.5" font-family="Helvetica,sans-Serif" font-size="10.00">itk::LightObject</text>
</a>
</g>
</g>
<!-- Node5&#45;&gt;Node4 -->
<g id="edge4" class="edge">
<title>Node5&#45;&gt;Node4</title>
<path fill="none" stroke="midnightblue" d="M93.5,-235.8C93.5,-226.91 93.5,-216.78 93.5,-209.75"/>
<polygon fill="midnightblue" stroke="midnightblue" points="90,-236.08 93.5,-246.08 97,-236.08 90,-236.08"/>
</g>
</g>
</svg>
