<?xml version="1.0" encoding="UTF-8" standalone="no"?>
<!DOCTYPE svg PUBLIC "-//W3C//DTD SVG 1.1//EN"
 "http://www.w3.org/Graphics/SVG/1.1/DTD/svg11.dtd">
<!-- Generated by graphviz version 2.43.0 (0)
 -->
<!-- Title: itk::EllipseSpatialObject&lt; TDimension &gt; Pages: 1 -->
<svg width="141pt" height="263pt"
 viewBox="0.00 0.00 141.00 263.00" xmlns="http://www.w3.org/2000/svg" xmlns:xlink="http://www.w3.org/1999/xlink">
<g id="graph0" class="graph" transform="scale(1 1) rotate(0) translate(4 259)">
<title>itk::EllipseSpatialObject&lt; TDimension &gt;</title>
<polygon fill="white" stroke="transparent" points="-4,4 -4,-259 137,-259 137,4 -4,4"/>
<!-- Node1 -->
<g id="node1" class="node">
<title>Node1</title>
<g id="a_node1"><a xlink:title=" ">
<polygon fill="#bfbfbf" stroke="black" points="0,-0.5 0,-30.5 133,-30.5 133,-0.5 0,-0.5"/>
<text text-anchor="start" x="8" y="-18.5" font-family="Helvetica,sans-Serif" font-size="10.00">itk::EllipseSpatialObject</text>
<text text-anchor="middle" x="66.5" y="-7.5" font-family="Helvetica,sans-Serif" font-size="10.00">&lt; TDimension &gt;</text>
</a>
</g>
</g>
<!-- Node2 -->
<g id="node2" class="node">
<title>Node2</title>
<g id="a_node2"><a xlink:href="classitk_1_1SpatialObject.html" target="_top" xlink:title=" ">
<polygon fill="white" stroke="black" points="2,-67.5 2,-86.5 131,-86.5 131,-67.5 2,-67.5"/>
<text text-anchor="middle" x="66.5" y="-74.5" font-family="Helvetica,sans-Serif" font-size="10.00">itk::SpatialObject&lt; 3 &gt;</text>
</a>
</g>
</g>
<!-- Node2&#45;&gt;Node1 -->
<g id="edge1" class="edge">
<title>Node2&#45;&gt;Node1</title>
<path fill="none" stroke="midnightblue" d="M66.5,-57.23C66.5,-48.59 66.5,-38.5 66.5,-30.52"/>
<polygon fill="midnightblue" stroke="midnightblue" points="63,-57.48 66.5,-67.48 70,-57.48 63,-57.48"/>
</g>
<!-- Node3 -->
<g id="node3" class="node">
<title>Node3</title>
<g id="a_node3"><a xlink:href="classitk_1_1DataObject.html" target="_top" xlink:title="Base class for all data objects in ITK.">
<polygon fill="white" stroke="black" points="21.5,-123.5 21.5,-142.5 111.5,-142.5 111.5,-123.5 21.5,-123.5"/>
<text text-anchor="middle" x="66.5" y="-130.5" font-family="Helvetica,sans-Serif" font-size="10.00">itk::DataObject</text>
</a>
</g>
</g>
<!-- Node3&#45;&gt;Node2 -->
<g id="edge2" class="edge">
<title>Node3&#45;&gt;Node2</title>
<path fill="none" stroke="midnightblue" d="M66.5,-112.8C66.5,-103.91 66.5,-93.78 66.5,-86.75"/>
<polygon fill="midnightblue" stroke="midnightblue" points="63,-113.08 66.5,-123.08 70,-113.08 63,-113.08"/>
</g>
<!-- Node4 -->
<g id="node4" class="node">
<title>Node4</title>
<g id="a_node4"><a xlink:href="classitk_1_1Object.html" target="_top" xlink:title="Base class for most ITK classes.">
<polygon fill="white" stroke="black" points="33,-179.5 33,-198.5 100,-198.5 100,-179.5 33,-179.5"/>
<text text-anchor="middle" x="66.5" y="-186.5" font-family="Helvetica,sans-Serif" font-size="10.00">itk::Object</text>
</a>
</g>
</g>
<!-- Node4&#45;&gt;Node3 -->
<g id="edge3" class="edge">
<title>Node4&#45;&gt;Node3</title>
<path fill="none" stroke="midnightblue" d="M66.5,-168.8C66.5,-159.91 66.5,-149.78 66.5,-142.75"/>
<polygon fill="midnightblue" stroke="midnightblue" points="63,-169.08 66.5,-179.08 70,-169.08 63,-169.08"/>
</g>
<!-- Node5 -->
<g id="node5" class="node">
<title>Node5</title>
<g id="a_node5"><a xlink:href="classitk_1_1LightObject.html" target="_top" xlink:title="Light weight base class for most itk classes.">
<polygon fill="white" stroke="black" points="21,-235.5 21,-254.5 112,-254.5 112,-235.5 21,-235.5"/>
<text text-anchor="middle" x="66.5" y="-242.5" font-family="Helvetica,sans-Serif" font-size="10.00">itk::LightObject</text>
</a>
</g>
</g>
<!-- Node5&#45;&gt;Node4 -->
<g id="edge4" class="edge">
<title>Node5&#45;&gt;Node4</title>
<path fill="none" stroke="midnightblue" d="M66.5,-224.8C66.5,-215.91 66.5,-205.78 66.5,-198.75"/>
<polygon fill="midnightblue" stroke="midnightblue" points="63,-225.08 66.5,-235.08 70,-225.08 63,-225.08"/>
</g>
</g>
</svg>
