<?xml version="1.0" encoding="UTF-8" standalone="no"?>
<!DOCTYPE svg PUBLIC "-//W3C//DTD SVG 1.1//EN"
 "http://www.w3.org/Graphics/SVG/1.1/DTD/svg11.dtd">
<!-- Generated by graphviz version 2.43.0 (0)
 -->
<!-- Title: itk::GPUCastImageFilter&lt; TInputImage, TOutputImage &gt; Pages: 1 -->
<svg width="2169pt" height="91pt"
 viewBox="0.00 0.00 2169.00 91.00" xmlns="http://www.w3.org/2000/svg" xmlns:xlink="http://www.w3.org/1999/xlink">
<g id="graph0" class="graph" transform="scale(1 1) rotate(0) translate(4 87)">
<title>itk::GPUCastImageFilter&lt; TInputImage, TOutputImage &gt;</title>
<polygon fill="white" stroke="transparent" points="-4,4 -4,-87 2165,-87 2165,4 -4,4"/>
<!-- Node1 -->
<g id="node1" class="node">
<title>Node1</title>
<g id="a_node1"><a xlink:title="GPU version of CastImageFilter.">
<polygon fill="#bfbfbf" stroke="black" points="1985,-17 1985,-47 2161,-47 2161,-17 1985,-17"/>
<text text-anchor="start" x="1993" y="-35" font-family="Helvetica,sans-Serif" font-size="10.00">itk::GPUCastImageFilter</text>
<text text-anchor="middle" x="2073" y="-24" font-family="Helvetica,sans-Serif" font-size="10.00">&lt; TInputImage, TOutputImage &gt;</text>
</a>
</g>
</g>
<!-- Node2 -->
<g id="node2" class="node">
<title>Node2</title>
<g id="a_node2"><a xlink:href="classitk_1_1GPUUnaryFunctorImageFilter.html" target="_top" xlink:title=" ">
<polygon fill="white" stroke="black" points="1667,-0.5 1667,-63.5 1949,-63.5 1949,-0.5 1667,-0.5"/>
<text text-anchor="start" x="1675" y="-51.5" font-family="Helvetica,sans-Serif" font-size="10.00">itk::GPUUnaryFunctorImage</text>
<text text-anchor="start" x="1675" y="-40.5" font-family="Helvetica,sans-Serif" font-size="10.00">Filter&lt; TInputImage, TOutputImage,</text>
<text text-anchor="start" x="1675" y="-29.5" font-family="Helvetica,sans-Serif" font-size="10.00"> Functor::GPUCast&lt; TInputImage</text>
<text text-anchor="start" x="1675" y="-18.5" font-family="Helvetica,sans-Serif" font-size="10.00">::PixelType, TOutputImage::PixelType</text>
<text text-anchor="middle" x="1808" y="-7.5" font-family="Helvetica,sans-Serif" font-size="10.00"> &gt;, CastImageFilter&lt; TInputImage, TOutputImage &gt; &gt;</text>
</a>
</g>
</g>
<!-- Node2&#45;&gt;Node1 -->
<g id="edge1" class="edge">
<title>Node2&#45;&gt;Node1</title>
<path fill="none" stroke="midnightblue" d="M1959.55,-32C1968.19,-32 1976.72,-32 1984.99,-32"/>
<polygon fill="midnightblue" stroke="midnightblue" points="1959.35,-28.5 1949.35,-32 1959.35,-35.5 1959.35,-28.5"/>
</g>
<!-- Node3 -->
<g id="node3" class="node">
<title>Node3</title>
<g id="a_node3"><a xlink:href="classitk_1_1GPUInPlaceImageFilter.html" target="_top" xlink:title=" ">
<polygon fill="white" stroke="black" points="1458,-6 1458,-58 1631,-58 1631,-6 1458,-6"/>
<text text-anchor="start" x="1466" y="-46" font-family="Helvetica,sans-Serif" font-size="10.00">itk::GPUInPlaceImageFilter</text>
<text text-anchor="start" x="1466" y="-35" font-family="Helvetica,sans-Serif" font-size="10.00">&lt; TInputImage, TOutputImage,</text>
<text text-anchor="start" x="1466" y="-24" font-family="Helvetica,sans-Serif" font-size="10.00"> CastImageFilter&lt; TInputImage,</text>
<text text-anchor="middle" x="1544.5" y="-13" font-family="Helvetica,sans-Serif" font-size="10.00"> TOutputImage &gt; &gt;</text>
</a>
</g>
</g>
<!-- Node3&#45;&gt;Node2 -->
<g id="edge2" class="edge">
<title>Node3&#45;&gt;Node2</title>
<path fill="none" stroke="midnightblue" d="M1641.19,-32C1649.54,-32 1658.09,-32 1666.7,-32"/>
<polygon fill="midnightblue" stroke="midnightblue" points="1641.12,-28.5 1631.12,-32 1641.12,-35.5 1641.12,-28.5"/>
</g>
<!-- Node4 -->
<g id="node4" class="node">
<title>Node4</title>
<g id="a_node4"><a xlink:href="classitk_1_1GPUImageToImageFilter.html" target="_top" xlink:title=" ">
<polygon fill="white" stroke="black" points="1249,-6 1249,-58 1422,-58 1422,-6 1249,-6"/>
<text text-anchor="start" x="1257" y="-46" font-family="Helvetica,sans-Serif" font-size="10.00">itk::GPUImageToImageFilter</text>
<text text-anchor="start" x="1257" y="-35" font-family="Helvetica,sans-Serif" font-size="10.00">&lt; TInputImage, TOutputImage,</text>
<text text-anchor="start" x="1257" y="-24" font-family="Helvetica,sans-Serif" font-size="10.00"> CastImageFilter&lt; TInputImage,</text>
<text text-anchor="middle" x="1335.5" y="-13" font-family="Helvetica,sans-Serif" font-size="10.00"> TOutputImage &gt; &gt;</text>
</a>
</g>
</g>
<!-- Node4&#45;&gt;Node3 -->
<g id="edge3" class="edge">
<title>Node4&#45;&gt;Node3</title>
<path fill="none" stroke="midnightblue" d="M1432.2,-32C1440.76,-32 1449.4,-32 1457.88,-32"/>
<polygon fill="midnightblue" stroke="midnightblue" points="1432.19,-28.5 1422.19,-32 1432.19,-35.5 1432.19,-28.5"/>
</g>
<!-- Node5 -->
<g id="node5" class="node">
<title>Node5</title>
<g id="a_node5"><a xlink:href="classitk_1_1CastImageFilter.html" target="_top" xlink:title="Casts input pixels to output pixel type.">
<polygon fill="white" stroke="black" points="1037,-17 1037,-47 1213,-47 1213,-17 1037,-17"/>
<text text-anchor="start" x="1045" y="-35" font-family="Helvetica,sans-Serif" font-size="10.00">itk::CastImageFilter</text>
<text text-anchor="middle" x="1125" y="-24" font-family="Helvetica,sans-Serif" font-size="10.00">&lt; TInputImage, TOutputImage &gt;</text>
</a>
</g>
</g>
<!-- Node5&#45;&gt;Node4 -->
<g id="edge4" class="edge">
<title>Node5&#45;&gt;Node4</title>
<path fill="none" stroke="midnightblue" d="M1223.25,-32C1231.84,-32 1240.49,-32 1248.97,-32"/>
<polygon fill="midnightblue" stroke="midnightblue" points="1223.21,-28.5 1213.21,-32 1223.21,-35.5 1223.21,-28.5"/>
</g>
<!-- Node6 -->
<g id="node6" class="node">
<title>Node6</title>
<g id="a_node6"><a xlink:href="classitk_1_1InPlaceImageFilter.html" target="_top" xlink:title="Base class for filters that take an image as input and overwrite that image as the output.">
<polygon fill="white" stroke="black" points="825,-17 825,-47 1001,-47 1001,-17 825,-17"/>
<text text-anchor="start" x="833" y="-35" font-family="Helvetica,sans-Serif" font-size="10.00">itk::InPlaceImageFilter</text>
<text text-anchor="middle" x="913" y="-24" font-family="Helvetica,sans-Serif" font-size="10.00">&lt; TInputImage, TOutputImage &gt;</text>
</a>
</g>
</g>
<!-- Node6&#45;&gt;Node5 -->
<g id="edge5" class="edge">
<title>Node6&#45;&gt;Node5</title>
<path fill="none" stroke="midnightblue" d="M1011.46,-32C1019.88,-32 1028.37,-32 1036.7,-32"/>
<polygon fill="midnightblue" stroke="midnightblue" points="1011.23,-28.5 1001.23,-32 1011.23,-35.5 1011.23,-28.5"/>
</g>
<!-- Node7 -->
<g id="node7" class="node">
<title>Node7</title>
<g id="a_node7"><a xlink:href="classitk_1_1ImageToImageFilter.html" target="_top" xlink:title=" ">
<polygon fill="white" stroke="black" points="621,-17 621,-47 789,-47 789,-17 621,-17"/>
<text text-anchor="start" x="629" y="-35" font-family="Helvetica,sans-Serif" font-size="10.00">itk::ImageToImageFilter</text>
<text text-anchor="middle" x="705" y="-24" font-family="Helvetica,sans-Serif" font-size="10.00">&lt; TInputImage, TInputImage &gt;</text>
</a>
</g>
</g>
<!-- Node7&#45;&gt;Node6 -->
<g id="edge6" class="edge">
<title>Node7&#45;&gt;Node6</title>
<path fill="none" stroke="midnightblue" d="M799.44,-32C807.88,-32 816.41,-32 824.8,-32"/>
<polygon fill="midnightblue" stroke="midnightblue" points="799.19,-28.5 789.19,-32 799.19,-35.5 799.19,-28.5"/>
</g>
<!-- Node8 -->
<g id="node8" class="node">
<title>Node8</title>
<g id="a_node8"><a xlink:href="classitk_1_1ImageSource.html" target="_top" xlink:title=" ">
<polygon fill="white" stroke="black" points="426.5,-39 426.5,-69 567.5,-69 567.5,-39 426.5,-39"/>
<text text-anchor="start" x="434.5" y="-57" font-family="Helvetica,sans-Serif" font-size="10.00">itk::ImageSource&lt; TInput</text>
<text text-anchor="middle" x="497" y="-46" font-family="Helvetica,sans-Serif" font-size="10.00">Image &gt;</text>
</a>
</g>
</g>
<!-- Node8&#45;&gt;Node7 -->
<g id="edge7" class="edge">
<title>Node8&#45;&gt;Node7</title>
<path fill="none" stroke="midnightblue" d="M577.87,-45.47C591.94,-43.97 606.62,-42.4 620.79,-40.89"/>
<polygon fill="midnightblue" stroke="midnightblue" points="577.31,-42.01 567.74,-46.55 578.06,-48.97 577.31,-42.01"/>
</g>
<!-- Node9 -->
<g id="node9" class="node">
<title>Node9</title>
<g id="a_node9"><a xlink:href="classitk_1_1ProcessObject.html" target="_top" xlink:title="The base class for all process objects (source, filters, mappers) in the Insight data processing pipe...">
<polygon fill="white" stroke="black" points="249.5,-63.5 249.5,-82.5 353.5,-82.5 353.5,-63.5 249.5,-63.5"/>
<text text-anchor="middle" x="301.5" y="-70.5" font-family="Helvetica,sans-Serif" font-size="10.00">itk::ProcessObject</text>
</a>
</g>
</g>
<!-- Node9&#45;&gt;Node8 -->
<g id="edge8" class="edge">
<title>Node9&#45;&gt;Node8</title>
<path fill="none" stroke="midnightblue" d="M363.77,-66.98C383.68,-65.03 405.92,-62.85 426.39,-60.84"/>
<polygon fill="midnightblue" stroke="midnightblue" points="363.2,-63.52 353.59,-67.98 363.89,-70.49 363.2,-63.52"/>
</g>
<!-- Node10 -->
<g id="node10" class="node">
<title>Node10</title>
<g id="a_node10"><a xlink:href="classitk_1_1Object.html" target="_top" xlink:title="Base class for most ITK classes.">
<polygon fill="white" stroke="black" points="127,-63.5 127,-82.5 194,-82.5 194,-63.5 127,-63.5"/>
<text text-anchor="middle" x="160.5" y="-70.5" font-family="Helvetica,sans-Serif" font-size="10.00">itk::Object</text>
</a>
</g>
</g>
<!-- Node10&#45;&gt;Node9 -->
<g id="edge9" class="edge">
<title>Node10&#45;&gt;Node9</title>
<path fill="none" stroke="midnightblue" d="M204.13,-73C218.41,-73 234.48,-73 249.35,-73"/>
<polygon fill="midnightblue" stroke="midnightblue" points="204.09,-69.5 194.09,-73 204.09,-76.5 204.09,-69.5"/>
</g>
<!-- Node11 -->
<g id="node11" class="node">
<title>Node11</title>
<g id="a_node11"><a xlink:href="classitk_1_1LightObject.html" target="_top" xlink:title="Light weight base class for most itk classes.">
<polygon fill="white" stroke="black" points="0,-63.5 0,-82.5 91,-82.5 91,-63.5 0,-63.5"/>
<text text-anchor="middle" x="45.5" y="-70.5" font-family="Helvetica,sans-Serif" font-size="10.00">itk::LightObject</text>
</a>
</g>
</g>
<!-- Node11&#45;&gt;Node10 -->
<g id="edge10" class="edge">
<title>Node11&#45;&gt;Node10</title>
<path fill="none" stroke="midnightblue" d="M101.28,-73C109.96,-73 118.69,-73 126.66,-73"/>
<polygon fill="midnightblue" stroke="midnightblue" points="101.16,-69.5 91.16,-73 101.16,-76.5 101.16,-69.5"/>
</g>
<!-- Node12 -->
<g id="node12" class="node">
<title>Node12</title>
<g id="a_node12"><a xlink:href="structitk_1_1ImageSourceCommon.html" target="_top" xlink:title="Secondary base class of ImageSource common between templates.">
<polygon fill="white" stroke="black" points="230,-25.5 230,-44.5 373,-44.5 373,-25.5 230,-25.5"/>
<text text-anchor="middle" x="301.5" y="-32.5" font-family="Helvetica,sans-Serif" font-size="10.00">itk::ImageSourceCommon</text>
</a>
</g>
</g>
<!-- Node12&#45;&gt;Node8 -->
<g id="edge11" class="edge">
<title>Node12&#45;&gt;Node8</title>
<path fill="none" stroke="#8b1a1a" d="M383.48,-42.95C397.78,-44.36 412.54,-45.8 426.48,-47.17"/>
<polygon fill="#8b1a1a" stroke="#8b1a1a" points="383.47,-39.43 373.18,-41.94 382.79,-46.4 383.47,-39.43"/>
</g>
<!-- Node13 -->
<g id="node13" class="node">
<title>Node13</title>
<g id="a_node13"><a xlink:href="classitk_1_1ImageToImageFilterCommon.html" target="_top" xlink:title="Secondary base class of ImageToImageFilter common between templates.">
<polygon fill="white" stroke="black" points="409,-0.5 409,-19.5 585,-19.5 585,-0.5 409,-0.5"/>
<text text-anchor="middle" x="497" y="-7.5" font-family="Helvetica,sans-Serif" font-size="10.00">itk::ImageToImageFilterCommon</text>
</a>
</g>
</g>
<!-- Node13&#45;&gt;Node7 -->
<g id="edge12" class="edge">
<title>Node13&#45;&gt;Node7</title>
<path fill="none" stroke="#8b1a1a" d="M595.12,-20.37C603.73,-21.29 612.39,-22.22 620.86,-23.12"/>
<polygon fill="#8b1a1a" stroke="#8b1a1a" points="595.38,-16.88 585.06,-19.3 594.64,-23.84 595.38,-16.88"/>
</g>
</g>
</svg>
