<?xml version="1.0" encoding="UTF-8" standalone="no"?>
<!DOCTYPE svg PUBLIC "-//W3C//DTD SVG 1.1//EN"
 "http://www.w3.org/Graphics/SVG/1.1/DTD/svg11.dtd">
<!-- Generated by graphviz version 2.43.0 (0)
 -->
<!-- Title: itk::ObjectToObjectOptimizerBaseTemplate&lt; TInternalComputationValueType &gt; Pages: 1 -->
<svg width="1441pt" height="303pt"
 viewBox="0.00 0.00 1441.00 302.50" xmlns="http://www.w3.org/2000/svg" xmlns:xlink="http://www.w3.org/1999/xlink">
<g id="graph0" class="graph" transform="scale(1 1) rotate(0) translate(4 298.5)">
<title>itk::ObjectToObjectOptimizerBaseTemplate&lt; TInternalComputationValueType &gt;</title>
<polygon fill="white" stroke="transparent" points="-4,4 -4,-298.5 1437,-298.5 1437,4 -4,4"/>
<!-- Node1 -->
<g id="node1" class="node">
<title>Node1</title>
<g id="a_node1"><a xlink:title="Abstract base for object&#45;to&#45;object optimizers.">
<polygon fill="#bfbfbf" stroke="black" points="230,-110 230,-151 433,-151 433,-110 230,-110"/>
<text text-anchor="start" x="238" y="-139" font-family="Helvetica,sans-Serif" font-size="10.00">itk::ObjectToObjectOptimizer</text>
<text text-anchor="start" x="238" y="-128" font-family="Helvetica,sans-Serif" font-size="10.00">BaseTemplate&lt; TInternalComputation</text>
<text text-anchor="middle" x="331.5" y="-117" font-family="Helvetica,sans-Serif" font-size="10.00">ValueType &gt;</text>
</a>
</g>
</g>
<!-- Node4 -->
<g id="node4" class="node">
<title>Node4</title>
<g id="a_node4"><a xlink:href="classitk_1_1ExhaustiveOptimizerv4.html" target="_top" xlink:title="Optimizer that fully samples a grid on the parametric space.">
<polygon fill="white" stroke="black" points="479,-230.5 479,-260.5 674,-260.5 674,-230.5 479,-230.5"/>
<text text-anchor="start" x="487" y="-248.5" font-family="Helvetica,sans-Serif" font-size="10.00">itk::ExhaustiveOptimizerv4</text>
<text text-anchor="middle" x="576.5" y="-237.5" font-family="Helvetica,sans-Serif" font-size="10.00">&lt; TInternalComputationValueType &gt;</text>
</a>
</g>
</g>
<!-- Node1&#45;&gt;Node4 -->
<g id="edge3" class="edge">
<title>Node1&#45;&gt;Node4</title>
<path fill="none" stroke="midnightblue" d="M365.76,-157.29C392.28,-177.4 431.13,-204.19 469,-220.5 477.9,-224.33 487.47,-227.63 497.11,-230.45"/>
<polygon fill="midnightblue" stroke="midnightblue" points="367.66,-154.34 357.6,-151.01 363.39,-159.88 367.66,-154.34"/>
</g>
<!-- Node5 -->
<g id="node5" class="node">
<title>Node5</title>
<g id="a_node5"><a xlink:href="classitk_1_1GradientDescentOptimizerBasev4Template.html" target="_top" xlink:title=" ">
<polygon fill="white" stroke="black" points="469,-170 469,-211 684,-211 684,-170 469,-170"/>
<text text-anchor="start" x="477" y="-199" font-family="Helvetica,sans-Serif" font-size="10.00">itk::GradientDescentOptimizer</text>
<text text-anchor="start" x="477" y="-188" font-family="Helvetica,sans-Serif" font-size="10.00">Basev4Template&lt; TInternalComputation</text>
<text text-anchor="middle" x="576.5" y="-177" font-family="Helvetica,sans-Serif" font-size="10.00">ValueType &gt;</text>
</a>
</g>
</g>
<!-- Node1&#45;&gt;Node5 -->
<g id="edge4" class="edge">
<title>Node1&#45;&gt;Node5</title>
<path fill="none" stroke="midnightblue" d="M425.75,-153.53C447.67,-158.94 470.88,-164.67 492.32,-169.96"/>
<polygon fill="midnightblue" stroke="midnightblue" points="426.33,-150.06 415.79,-151.06 424.66,-156.86 426.33,-150.06"/>
</g>
<!-- Node12 -->
<g id="node12" class="node">
<title>Node12</title>
<g id="a_node12"><a xlink:href="classitk_1_1MultiStartOptimizerv4Template.html" target="_top" xlink:title="Multi&#45;start searches over input parameters and returns the best metric value.">
<polygon fill="white" stroke="black" points="487,-110 487,-151 666,-151 666,-110 487,-110"/>
<text text-anchor="start" x="495" y="-139" font-family="Helvetica,sans-Serif" font-size="10.00">itk::MultiStartOptimizerv4</text>
<text text-anchor="start" x="495" y="-128" font-family="Helvetica,sans-Serif" font-size="10.00">Template&lt; TInternalComputation</text>
<text text-anchor="middle" x="576.5" y="-117" font-family="Helvetica,sans-Serif" font-size="10.00">ValueType &gt;</text>
</a>
</g>
</g>
<!-- Node1&#45;&gt;Node12 -->
<g id="edge11" class="edge">
<title>Node1&#45;&gt;Node12</title>
<path fill="none" stroke="midnightblue" d="M443.13,-130.5C457.7,-130.5 472.48,-130.5 486.63,-130.5"/>
<polygon fill="midnightblue" stroke="midnightblue" points="443.09,-127 433.09,-130.5 443.09,-134 443.09,-127"/>
</g>
<!-- Node13 -->
<g id="node13" class="node">
<title>Node13</title>
<g id="a_node13"><a xlink:href="classitk_1_1OnePlusOneEvolutionaryOptimizerv4.html" target="_top" xlink:title="1+1 evolutionary strategy optimizer">
<polygon fill="white" stroke="black" points="479.5,-50 479.5,-91 673.5,-91 673.5,-50 479.5,-50"/>
<text text-anchor="start" x="487.5" y="-79" font-family="Helvetica,sans-Serif" font-size="10.00">itk::OnePlusOneEvolutionary</text>
<text text-anchor="start" x="487.5" y="-68" font-family="Helvetica,sans-Serif" font-size="10.00">Optimizerv4&lt; TInternalComputation</text>
<text text-anchor="middle" x="576.5" y="-57" font-family="Helvetica,sans-Serif" font-size="10.00">ValueType &gt;</text>
</a>
</g>
</g>
<!-- Node1&#45;&gt;Node13 -->
<g id="edge12" class="edge">
<title>Node1&#45;&gt;Node13</title>
<path fill="none" stroke="midnightblue" d="M425.75,-107.47C447.67,-102.06 470.88,-96.33 492.32,-91.04"/>
<polygon fill="midnightblue" stroke="midnightblue" points="424.66,-104.14 415.79,-109.94 426.33,-110.94 424.66,-104.14"/>
</g>
<!-- Node14 -->
<g id="node14" class="node">
<title>Node14</title>
<g id="a_node14"><a xlink:href="classitk_1_1PowellOptimizerv4.html" target="_top" xlink:title="Implements Powell optimization using Brent line search.">
<polygon fill="white" stroke="black" points="479,-0.5 479,-30.5 674,-30.5 674,-0.5 479,-0.5"/>
<text text-anchor="start" x="487" y="-18.5" font-family="Helvetica,sans-Serif" font-size="10.00">itk::PowellOptimizerv4</text>
<text text-anchor="middle" x="576.5" y="-7.5" font-family="Helvetica,sans-Serif" font-size="10.00">&lt; TInternalComputationValueType &gt;</text>
</a>
</g>
</g>
<!-- Node1&#45;&gt;Node14 -->
<g id="edge13" class="edge">
<title>Node1&#45;&gt;Node14</title>
<path fill="none" stroke="midnightblue" d="M365.76,-103.71C392.28,-83.6 431.13,-56.81 469,-40.5 477.9,-36.67 487.47,-33.37 497.11,-30.55"/>
<polygon fill="midnightblue" stroke="midnightblue" points="363.39,-101.12 357.6,-109.99 367.66,-106.66 363.39,-101.12"/>
</g>
<!-- Node2 -->
<g id="node2" class="node">
<title>Node2</title>
<g id="a_node2"><a xlink:href="classitk_1_1Object.html" target="_top" xlink:title="Base class for most ITK classes.">
<polygon fill="white" stroke="black" points="127,-121 127,-140 194,-140 194,-121 127,-121"/>
<text text-anchor="middle" x="160.5" y="-128" font-family="Helvetica,sans-Serif" font-size="10.00">itk::Object</text>
</a>
</g>
</g>
<!-- Node2&#45;&gt;Node1 -->
<g id="edge1" class="edge">
<title>Node2&#45;&gt;Node1</title>
<path fill="none" stroke="midnightblue" d="M204.18,-130.5C212.19,-130.5 220.86,-130.5 229.78,-130.5"/>
<polygon fill="midnightblue" stroke="midnightblue" points="204.08,-127 194.08,-130.5 204.08,-134 204.08,-127"/>
</g>
<!-- Node3 -->
<g id="node3" class="node">
<title>Node3</title>
<g id="a_node3"><a xlink:href="classitk_1_1LightObject.html" target="_top" xlink:title="Light weight base class for most itk classes.">
<polygon fill="white" stroke="black" points="0,-121 0,-140 91,-140 91,-121 0,-121"/>
<text text-anchor="middle" x="45.5" y="-128" font-family="Helvetica,sans-Serif" font-size="10.00">itk::LightObject</text>
</a>
</g>
</g>
<!-- Node3&#45;&gt;Node2 -->
<g id="edge2" class="edge">
<title>Node3&#45;&gt;Node2</title>
<path fill="none" stroke="midnightblue" d="M101.28,-130.5C109.96,-130.5 118.69,-130.5 126.66,-130.5"/>
<polygon fill="midnightblue" stroke="midnightblue" points="101.16,-127 91.16,-130.5 101.16,-134 101.16,-127"/>
</g>
<!-- Node6 -->
<g id="node6" class="node">
<title>Node6</title>
<g id="a_node6"><a xlink:href="classitk_1_1GradientDescentOptimizerv4Template.html" target="_top" xlink:title="Gradient descent optimizer.">
<polygon fill="white" stroke="black" points="720,-175.5 720,-205.5 960,-205.5 960,-175.5 720,-175.5"/>
<text text-anchor="start" x="728" y="-193.5" font-family="Helvetica,sans-Serif" font-size="10.00">itk::GradientDescentOptimizerv4</text>
<text text-anchor="middle" x="840" y="-182.5" font-family="Helvetica,sans-Serif" font-size="10.00">Template&lt; TInternalComputationValueType &gt;</text>
</a>
</g>
</g>
<!-- Node5&#45;&gt;Node6 -->
<g id="edge5" class="edge">
<title>Node5&#45;&gt;Node6</title>
<path fill="none" stroke="midnightblue" d="M694.46,-190.5C702.88,-190.5 711.38,-190.5 719.81,-190.5"/>
<polygon fill="midnightblue" stroke="midnightblue" points="694.24,-187 684.24,-190.5 694.24,-194 694.24,-187"/>
</g>
<!-- Node7 -->
<g id="node7" class="node">
<title>Node7</title>
<g id="a_node7"><a xlink:href="classitk_1_1GradientDescentLineSearchOptimizerv4Template.html" target="_top" xlink:title="Gradient descent optimizer with a golden section line search.">
<polygon fill="white" stroke="black" points="1001.5,-253 1001.5,-294 1196.5,-294 1196.5,-253 1001.5,-253"/>
<text text-anchor="start" x="1009.5" y="-282" font-family="Helvetica,sans-Serif" font-size="10.00">itk::GradientDescentLine</text>
<text text-anchor="start" x="1009.5" y="-271" font-family="Helvetica,sans-Serif" font-size="10.00">SearchOptimizerv4Template</text>
<text text-anchor="middle" x="1099" y="-260" font-family="Helvetica,sans-Serif" font-size="10.00">&lt; TInternalComputationValueType &gt;</text>
</a>
</g>
</g>
<!-- Node6&#45;&gt;Node7 -->
<g id="edge6" class="edge">
<title>Node6&#45;&gt;Node7</title>
<path fill="none" stroke="midnightblue" d="M894.44,-208.85C924.26,-218.98 962.11,-231.67 996,-242.5 1006.75,-245.94 1018.17,-249.5 1029.33,-252.92"/>
<polygon fill="midnightblue" stroke="midnightblue" points="895.25,-205.43 884.65,-205.52 892.99,-212.05 895.25,-205.43"/>
</g>
<!-- Node9 -->
<g id="node9" class="node">
<title>Node9</title>
<g id="a_node9"><a xlink:href="classitk_1_1LBFGS2Optimizerv4Template.html" target="_top" xlink:title="Wrap of the libLBFGS[1] algorithm for use in ITKv4 registration framework. LibLBFGS is a translation ...">
<polygon fill="white" stroke="black" points="1001.5,-203.5 1001.5,-233.5 1196.5,-233.5 1196.5,-203.5 1001.5,-203.5"/>
<text text-anchor="start" x="1009.5" y="-221.5" font-family="Helvetica,sans-Serif" font-size="10.00">itk::LBFGS2Optimizerv4Template</text>
<text text-anchor="middle" x="1099" y="-210.5" font-family="Helvetica,sans-Serif" font-size="10.00">&lt; TInternalComputationValueType &gt;</text>
</a>
</g>
</g>
<!-- Node6&#45;&gt;Node9 -->
<g id="edge8" class="edge">
<title>Node6&#45;&gt;Node9</title>
<path fill="none" stroke="midnightblue" d="M970.13,-204.57C980.6,-205.71 991.07,-206.85 1001.25,-207.96"/>
<polygon fill="midnightblue" stroke="midnightblue" points="970.42,-201.08 960.1,-203.48 969.66,-208.04 970.42,-201.08"/>
</g>
<!-- Node10 -->
<g id="node10" class="node">
<title>Node10</title>
<g id="a_node10"><a xlink:href="classitk_1_1MultiGradientOptimizerv4Template.html" target="_top" xlink:title="Multiple gradient&#45;based optimizers are combined in order to perform a multi&#45;objective optimization.">
<polygon fill="white" stroke="black" points="996,-143 996,-184 1202,-184 1202,-143 996,-143"/>
<text text-anchor="start" x="1004" y="-172" font-family="Helvetica,sans-Serif" font-size="10.00">itk::MultiGradientOptimizerv4</text>
<text text-anchor="start" x="1004" y="-161" font-family="Helvetica,sans-Serif" font-size="10.00">Template&lt; TInternalComputationValue</text>
<text text-anchor="middle" x="1099" y="-150" font-family="Helvetica,sans-Serif" font-size="10.00">Type &gt;</text>
</a>
</g>
</g>
<!-- Node6&#45;&gt;Node10 -->
<g id="edge9" class="edge">
<title>Node6&#45;&gt;Node10</title>
<path fill="none" stroke="midnightblue" d="M970.19,-176.93C978.8,-176.02 987.41,-175.12 995.85,-174.23"/>
<polygon fill="midnightblue" stroke="midnightblue" points="969.68,-173.46 960.1,-177.99 970.41,-180.42 969.68,-173.46"/>
</g>
<!-- Node11 -->
<g id="node11" class="node">
<title>Node11</title>
<g id="a_node11"><a xlink:href="classitk_1_1QuasiNewtonOptimizerv4Template.html" target="_top" xlink:title="Implement a Quasi&#45;Newton optimizer with BFGS Hessian estimation.">
<polygon fill="white" stroke="black" points="996,-83 996,-124 1202,-124 1202,-83 996,-83"/>
<text text-anchor="start" x="1004" y="-112" font-family="Helvetica,sans-Serif" font-size="10.00">itk::QuasiNewtonOptimizerv4</text>
<text text-anchor="start" x="1004" y="-101" font-family="Helvetica,sans-Serif" font-size="10.00">Template&lt; TInternalComputationValue</text>
<text text-anchor="middle" x="1099" y="-90" font-family="Helvetica,sans-Serif" font-size="10.00">Type &gt;</text>
</a>
</g>
</g>
<!-- Node6&#45;&gt;Node11 -->
<g id="edge10" class="edge">
<title>Node6&#45;&gt;Node11</title>
<path fill="none" stroke="midnightblue" d="M889.13,-171.86C919.59,-160.31 959.89,-145.44 996,-133.5 1005.64,-130.31 1015.84,-127.11 1025.93,-124.05"/>
<polygon fill="midnightblue" stroke="midnightblue" points="887.71,-168.66 879.61,-175.49 890.2,-175.2 887.71,-168.66"/>
</g>
<!-- Node8 -->
<g id="node8" class="node">
<title>Node8</title>
<g id="a_node8"><a xlink:href="classitk_1_1ConjugateGradientLineSearchOptimizerv4Template.html" target="_top" xlink:title="Conjugate gradient descent optimizer with a golden section line search for nonlinear optimization.">
<polygon fill="white" stroke="black" points="1238,-253 1238,-294 1433,-294 1433,-253 1238,-253"/>
<text text-anchor="start" x="1246" y="-282" font-family="Helvetica,sans-Serif" font-size="10.00">itk::ConjugateGradientLine</text>
<text text-anchor="start" x="1246" y="-271" font-family="Helvetica,sans-Serif" font-size="10.00">SearchOptimizerv4Template</text>
<text text-anchor="middle" x="1335.5" y="-260" font-family="Helvetica,sans-Serif" font-size="10.00">&lt; TInternalComputationValueType &gt;</text>
</a>
</g>
</g>
<!-- Node7&#45;&gt;Node8 -->
<g id="edge7" class="edge">
<title>Node7&#45;&gt;Node8</title>
<path fill="none" stroke="midnightblue" d="M1207.01,-273.5C1217.34,-273.5 1227.77,-273.5 1237.99,-273.5"/>
<polygon fill="midnightblue" stroke="midnightblue" points="1206.73,-270 1196.73,-273.5 1206.73,-277 1206.73,-270"/>
</g>
</g>
</svg>
