<?xml version="1.0" encoding="UTF-8" standalone="no"?>
<!DOCTYPE svg PUBLIC "-//W3C//DTD SVG 1.1//EN"
 "http://www.w3.org/Graphics/SVG/1.1/DTD/svg11.dtd">
<!-- Generated by graphviz version 2.43.0 (0)
 -->
<!-- Title: itk::MovingHistogramErodeImageFilter&lt; TInputImage, TOutputImage, TKernel &gt; Pages: 1 -->
<svg width="2090pt" height="97pt"
 viewBox="0.00 0.00 2090.00 96.50" xmlns="http://www.w3.org/2000/svg" xmlns:xlink="http://www.w3.org/1999/xlink">
<g id="graph0" class="graph" transform="scale(1 1) rotate(0) translate(4 92.5)">
<title>itk::MovingHistogramErodeImageFilter&lt; TInputImage, TOutputImage, TKernel &gt;</title>
<polygon fill="white" stroke="transparent" points="-4,4 -4,-92.5 2086,-92.5 2086,4 -4,4"/>
<!-- Node1 -->
<g id="node1" class="node">
<title>Node1</title>
<g id="a_node1"><a xlink:title="Grayscale erosion of an image.">
<polygon fill="#bfbfbf" stroke="black" points="1932,-17 1932,-58 2082,-58 2082,-17 1932,-17"/>
<text text-anchor="start" x="1940" y="-46" font-family="Helvetica,sans-Serif" font-size="10.00">itk::MovingHistogramErode</text>
<text text-anchor="start" x="1940" y="-35" font-family="Helvetica,sans-Serif" font-size="10.00">ImageFilter&lt; TInputImage,</text>
<text text-anchor="middle" x="2007" y="-24" font-family="Helvetica,sans-Serif" font-size="10.00"> TOutputImage, TKernel &gt;</text>
</a>
</g>
</g>
<!-- Node2 -->
<g id="node2" class="node">
<title>Node2</title>
<g id="a_node2"><a xlink:href="classitk_1_1MovingHistogramMorphologyImageFilter.html" target="_top" xlink:title=" ">
<polygon fill="white" stroke="black" points="1692,-0.5 1692,-74.5 1896,-74.5 1896,-0.5 1692,-0.5"/>
<text text-anchor="start" x="1700" y="-62.5" font-family="Helvetica,sans-Serif" font-size="10.00">itk::MovingHistogramMorphology</text>
<text text-anchor="start" x="1700" y="-51.5" font-family="Helvetica,sans-Serif" font-size="10.00">ImageFilter&lt; TInputImage,</text>
<text text-anchor="start" x="1700" y="-40.5" font-family="Helvetica,sans-Serif" font-size="10.00"> TOutputImage, TKernel, Function</text>
<text text-anchor="start" x="1700" y="-29.5" font-family="Helvetica,sans-Serif" font-size="10.00">::MorphologyHistogram&lt; TInputImage</text>
<text text-anchor="start" x="1700" y="-18.5" font-family="Helvetica,sans-Serif" font-size="10.00">::PixelType, std::less&lt; TInputImage</text>
<text text-anchor="middle" x="1794" y="-7.5" font-family="Helvetica,sans-Serif" font-size="10.00">::PixelType &gt; &gt; &gt;</text>
</a>
</g>
</g>
<!-- Node2&#45;&gt;Node1 -->
<g id="edge1" class="edge">
<title>Node2&#45;&gt;Node1</title>
<path fill="none" stroke="midnightblue" d="M1906.35,-37.5C1915.01,-37.5 1923.62,-37.5 1931.94,-37.5"/>
<polygon fill="midnightblue" stroke="midnightblue" points="1906.17,-34 1896.17,-37.5 1906.17,-41 1906.17,-34"/>
</g>
<!-- Node3 -->
<g id="node3" class="node">
<title>Node3</title>
<g id="a_node3"><a xlink:href="classitk_1_1MovingHistogramImageFilter.html" target="_top" xlink:title=" ">
<polygon fill="white" stroke="black" points="1438,-6 1438,-69 1656,-69 1656,-6 1438,-6"/>
<text text-anchor="start" x="1446" y="-57" font-family="Helvetica,sans-Serif" font-size="10.00">itk::MovingHistogramImage</text>
<text text-anchor="start" x="1446" y="-46" font-family="Helvetica,sans-Serif" font-size="10.00">Filter&lt; TInputImage, TOutputImage,</text>
<text text-anchor="start" x="1446" y="-35" font-family="Helvetica,sans-Serif" font-size="10.00"> TKernel, Function::MorphologyHistogram</text>
<text text-anchor="start" x="1446" y="-24" font-family="Helvetica,sans-Serif" font-size="10.00">&lt; TInputImage::PixelType, std::less</text>
<text text-anchor="middle" x="1547" y="-13" font-family="Helvetica,sans-Serif" font-size="10.00">&lt; TInputImage::PixelType &gt; &gt; &gt;</text>
</a>
</g>
</g>
<!-- Node3&#45;&gt;Node2 -->
<g id="edge2" class="edge">
<title>Node3&#45;&gt;Node2</title>
<path fill="none" stroke="midnightblue" d="M1666.43,-37.5C1674.87,-37.5 1683.32,-37.5 1691.65,-37.5"/>
<polygon fill="midnightblue" stroke="midnightblue" points="1666.17,-34 1656.17,-37.5 1666.17,-41 1666.17,-34"/>
</g>
<!-- Node4 -->
<g id="node4" class="node">
<title>Node4</title>
<g id="a_node4"><a xlink:href="classitk_1_1MovingHistogramImageFilterBase.html" target="_top" xlink:title="Implements a generic moving histogram algorithm.">
<polygon fill="white" stroke="black" points="1249,-17 1249,-58 1402,-58 1402,-17 1249,-17"/>
<text text-anchor="start" x="1257" y="-46" font-family="Helvetica,sans-Serif" font-size="10.00">itk::MovingHistogramImage</text>
<text text-anchor="start" x="1257" y="-35" font-family="Helvetica,sans-Serif" font-size="10.00">FilterBase&lt; TInputImage,</text>
<text text-anchor="middle" x="1325.5" y="-24" font-family="Helvetica,sans-Serif" font-size="10.00"> TOutputImage, TKernel &gt;</text>
</a>
</g>
</g>
<!-- Node4&#45;&gt;Node3 -->
<g id="edge3" class="edge">
<title>Node4&#45;&gt;Node3</title>
<path fill="none" stroke="midnightblue" d="M1412.17,-37.5C1420.56,-37.5 1429.15,-37.5 1437.73,-37.5"/>
<polygon fill="midnightblue" stroke="midnightblue" points="1412.04,-34 1402.04,-37.5 1412.04,-41 1412.04,-34"/>
</g>
<!-- Node5 -->
<g id="node5" class="node">
<title>Node5</title>
<g id="a_node5"><a xlink:href="classitk_1_1KernelImageFilter.html" target="_top" xlink:title="A base class for all the filters working on an arbitrary shaped neighborhood.">
<polygon fill="white" stroke="black" points="1045,-17 1045,-58 1213,-58 1213,-17 1045,-17"/>
<text text-anchor="start" x="1053" y="-46" font-family="Helvetica,sans-Serif" font-size="10.00">itk::KernelImageFilter</text>
<text text-anchor="start" x="1053" y="-35" font-family="Helvetica,sans-Serif" font-size="10.00">&lt; TInputImage, TOutputImage,</text>
<text text-anchor="middle" x="1129" y="-24" font-family="Helvetica,sans-Serif" font-size="10.00"> TKernel &gt;</text>
</a>
</g>
</g>
<!-- Node5&#45;&gt;Node4 -->
<g id="edge4" class="edge">
<title>Node5&#45;&gt;Node4</title>
<path fill="none" stroke="midnightblue" d="M1223.12,-37.5C1231.73,-37.5 1240.38,-37.5 1248.81,-37.5"/>
<polygon fill="midnightblue" stroke="midnightblue" points="1223.05,-34 1213.05,-37.5 1223.05,-41 1223.05,-34"/>
</g>
<!-- Node6 -->
<g id="node6" class="node">
<title>Node6</title>
<g id="a_node6"><a xlink:href="classitk_1_1BoxImageFilter.html" target="_top" xlink:title="A base class for all the filters working on a box neighborhood.">
<polygon fill="white" stroke="black" points="833,-22.5 833,-52.5 1009,-52.5 1009,-22.5 833,-22.5"/>
<text text-anchor="start" x="841" y="-40.5" font-family="Helvetica,sans-Serif" font-size="10.00">itk::BoxImageFilter</text>
<text text-anchor="middle" x="921" y="-29.5" font-family="Helvetica,sans-Serif" font-size="10.00">&lt; TInputImage, TOutputImage &gt;</text>
</a>
</g>
</g>
<!-- Node6&#45;&gt;Node5 -->
<g id="edge5" class="edge">
<title>Node6&#45;&gt;Node5</title>
<path fill="none" stroke="midnightblue" d="M1019.12,-37.5C1027.73,-37.5 1036.39,-37.5 1044.86,-37.5"/>
<polygon fill="midnightblue" stroke="midnightblue" points="1019.06,-34 1009.06,-37.5 1019.06,-41 1019.06,-34"/>
</g>
<!-- Node7 -->
<g id="node7" class="node">
<title>Node7</title>
<g id="a_node7"><a xlink:href="classitk_1_1ImageToImageFilter.html" target="_top" xlink:title="Base class for filters that take an image as input and produce an image as output.">
<polygon fill="white" stroke="black" points="621,-22.5 621,-52.5 797,-52.5 797,-22.5 621,-22.5"/>
<text text-anchor="start" x="629" y="-40.5" font-family="Helvetica,sans-Serif" font-size="10.00">itk::ImageToImageFilter</text>
<text text-anchor="middle" x="709" y="-29.5" font-family="Helvetica,sans-Serif" font-size="10.00">&lt; TInputImage, TOutputImage &gt;</text>
</a>
</g>
</g>
<!-- Node7&#45;&gt;Node6 -->
<g id="edge6" class="edge">
<title>Node7&#45;&gt;Node6</title>
<path fill="none" stroke="midnightblue" d="M807.46,-37.5C815.88,-37.5 824.37,-37.5 832.7,-37.5"/>
<polygon fill="midnightblue" stroke="midnightblue" points="807.23,-34 797.23,-37.5 807.23,-41 807.23,-34"/>
</g>
<!-- Node8 -->
<g id="node8" class="node">
<title>Node8</title>
<g id="a_node8"><a xlink:href="classitk_1_1ImageSource.html" target="_top" xlink:title="Base class for all process objects that output image data.">
<polygon fill="white" stroke="black" points="422.5,-44.5 422.5,-74.5 571.5,-74.5 571.5,-44.5 422.5,-44.5"/>
<text text-anchor="start" x="430.5" y="-62.5" font-family="Helvetica,sans-Serif" font-size="10.00">itk::ImageSource&lt; TOutput</text>
<text text-anchor="middle" x="497" y="-51.5" font-family="Helvetica,sans-Serif" font-size="10.00">Image &gt;</text>
</a>
</g>
</g>
<!-- Node8&#45;&gt;Node7 -->
<g id="edge7" class="edge">
<title>Node8&#45;&gt;Node7</title>
<path fill="none" stroke="midnightblue" d="M581.89,-50.71C594.67,-49.37 607.9,-47.99 620.75,-46.64"/>
<polygon fill="midnightblue" stroke="midnightblue" points="581.32,-47.25 571.74,-51.77 582.05,-54.21 581.32,-47.25"/>
</g>
<!-- Node9 -->
<g id="node9" class="node">
<title>Node9</title>
<g id="a_node9"><a xlink:href="classitk_1_1ProcessObject.html" target="_top" xlink:title="The base class for all process objects (source, filters, mappers) in the Insight data processing pipe...">
<polygon fill="white" stroke="black" points="249.5,-69 249.5,-88 353.5,-88 353.5,-69 249.5,-69"/>
<text text-anchor="middle" x="301.5" y="-76" font-family="Helvetica,sans-Serif" font-size="10.00">itk::ProcessObject</text>
</a>
</g>
</g>
<!-- Node9&#45;&gt;Node8 -->
<g id="edge8" class="edge">
<title>Node9&#45;&gt;Node8</title>
<path fill="none" stroke="midnightblue" d="M363.71,-72.49C382.35,-70.66 403.02,-68.63 422.38,-66.73"/>
<polygon fill="midnightblue" stroke="midnightblue" points="363.2,-69.02 353.59,-73.48 363.89,-75.99 363.2,-69.02"/>
</g>
<!-- Node10 -->
<g id="node10" class="node">
<title>Node10</title>
<g id="a_node10"><a xlink:href="classitk_1_1Object.html" target="_top" xlink:title="Base class for most ITK classes.">
<polygon fill="white" stroke="black" points="127,-69 127,-88 194,-88 194,-69 127,-69"/>
<text text-anchor="middle" x="160.5" y="-76" font-family="Helvetica,sans-Serif" font-size="10.00">itk::Object</text>
</a>
</g>
</g>
<!-- Node10&#45;&gt;Node9 -->
<g id="edge9" class="edge">
<title>Node10&#45;&gt;Node9</title>
<path fill="none" stroke="midnightblue" d="M204.13,-78.5C218.41,-78.5 234.48,-78.5 249.35,-78.5"/>
<polygon fill="midnightblue" stroke="midnightblue" points="204.09,-75 194.09,-78.5 204.09,-82 204.09,-75"/>
</g>
<!-- Node11 -->
<g id="node11" class="node">
<title>Node11</title>
<g id="a_node11"><a xlink:href="classitk_1_1LightObject.html" target="_top" xlink:title="Light weight base class for most itk classes.">
<polygon fill="white" stroke="black" points="0,-69 0,-88 91,-88 91,-69 0,-69"/>
<text text-anchor="middle" x="45.5" y="-76" font-family="Helvetica,sans-Serif" font-size="10.00">itk::LightObject</text>
</a>
</g>
</g>
<!-- Node11&#45;&gt;Node10 -->
<g id="edge10" class="edge">
<title>Node11&#45;&gt;Node10</title>
<path fill="none" stroke="midnightblue" d="M101.28,-78.5C109.96,-78.5 118.69,-78.5 126.66,-78.5"/>
<polygon fill="midnightblue" stroke="midnightblue" points="101.16,-75 91.16,-78.5 101.16,-82 101.16,-75"/>
</g>
<!-- Node12 -->
<g id="node12" class="node">
<title>Node12</title>
<g id="a_node12"><a xlink:href="structitk_1_1ImageSourceCommon.html" target="_top" xlink:title="Secondary base class of ImageSource common between templates.">
<polygon fill="white" stroke="black" points="230,-31 230,-50 373,-50 373,-31 230,-31"/>
<text text-anchor="middle" x="301.5" y="-38" font-family="Helvetica,sans-Serif" font-size="10.00">itk::ImageSourceCommon</text>
</a>
</g>
</g>
<!-- Node12&#45;&gt;Node8 -->
<g id="edge11" class="edge">
<title>Node12&#45;&gt;Node8</title>
<path fill="none" stroke="#8b1a1a" d="M383.41,-48.44C396.29,-49.71 409.56,-51.01 422.26,-52.26"/>
<polygon fill="#8b1a1a" stroke="#8b1a1a" points="383.47,-44.93 373.18,-47.44 382.79,-51.9 383.47,-44.93"/>
</g>
<!-- Node13 -->
<g id="node13" class="node">
<title>Node13</title>
<g id="a_node13"><a xlink:href="classitk_1_1ImageToImageFilterCommon.html" target="_top" xlink:title="Secondary base class of ImageToImageFilter common between templates.">
<polygon fill="white" stroke="black" points="409,-6 409,-25 585,-25 585,-6 409,-6"/>
<text text-anchor="middle" x="497" y="-13" font-family="Helvetica,sans-Serif" font-size="10.00">itk::ImageToImageFilterCommon</text>
</a>
</g>
</g>
<!-- Node13&#45;&gt;Node7 -->
<g id="edge12" class="edge">
<title>Node13&#45;&gt;Node7</title>
<path fill="none" stroke="#8b1a1a" d="M595.18,-25.68C603.69,-26.57 612.27,-27.47 620.7,-28.35"/>
<polygon fill="#8b1a1a" stroke="#8b1a1a" points="595.54,-22.2 585.23,-24.64 594.82,-29.16 595.54,-22.2"/>
</g>
</g>
</svg>
