<?xml version="1.0" encoding="UTF-8" standalone="no"?>
<!DOCTYPE svg PUBLIC "-//W3C//DTD SVG 1.1//EN"
 "http://www.w3.org/Graphics/SVG/1.1/DTD/svg11.dtd">
<!-- Generated by graphviz version 2.43.0 (0)
 -->
<!-- Title: itk::ShapedNeighborhoodIterator&lt; TImage, TBoundaryCondition &gt; Pages: 1 -->
<svg width="1160pt" height="50pt"
 viewBox="0.00 0.00 1160.00 50.00" xmlns="http://www.w3.org/2000/svg" xmlns:xlink="http://www.w3.org/1999/xlink">
<g id="graph0" class="graph" transform="scale(1 1) rotate(0) translate(4 46)">
<title>itk::ShapedNeighborhoodIterator&lt; TImage, TBoundaryCondition &gt;</title>
<polygon fill="white" stroke="transparent" points="-4,4 -4,-46 1156,-46 1156,4 -4,4"/>
<!-- Node1 -->
<g id="node1" class="node">
<title>Node1</title>
<g id="a_node1"><a xlink:title="A neighborhood iterator which can take on an arbitrary shape.">
<polygon fill="#bfbfbf" stroke="black" points="971,-6 971,-36 1152,-36 1152,-6 971,-6"/>
<text text-anchor="start" x="979" y="-24" font-family="Helvetica,sans-Serif" font-size="10.00">itk::ShapedNeighborhoodIterator</text>
<text text-anchor="middle" x="1061.5" y="-13" font-family="Helvetica,sans-Serif" font-size="10.00">&lt; TImage, TBoundaryCondition &gt;</text>
</a>
</g>
</g>
<!-- Node2 -->
<g id="node2" class="node">
<title>Node2</title>
<g id="a_node2"><a xlink:href="classitk_1_1ConstShapedNeighborhoodIterator.html" target="_top" xlink:title=" ">
<polygon fill="white" stroke="black" points="738,-0.5 738,-41.5 935,-41.5 935,-0.5 738,-0.5"/>
<text text-anchor="start" x="746" y="-29.5" font-family="Helvetica,sans-Serif" font-size="10.00">itk::ConstShapedNeighborhood</text>
<text text-anchor="start" x="746" y="-18.5" font-family="Helvetica,sans-Serif" font-size="10.00">Iterator&lt; TImage, ZeroFluxNeumann</text>
<text text-anchor="middle" x="836.5" y="-7.5" font-family="Helvetica,sans-Serif" font-size="10.00">BoundaryCondition&lt; TImage &gt; &gt;</text>
</a>
</g>
</g>
<!-- Node2&#45;&gt;Node1 -->
<g id="edge1" class="edge">
<title>Node2&#45;&gt;Node1</title>
<path fill="none" stroke="midnightblue" d="M945.32,-21C953.87,-21 962.45,-21 970.85,-21"/>
<polygon fill="midnightblue" stroke="midnightblue" points="945.31,-17.5 935.31,-21 945.31,-24.5 945.31,-17.5"/>
</g>
<!-- Node3 -->
<g id="node3" class="node">
<title>Node3</title>
<g id="a_node3"><a xlink:href="classitk_1_1NeighborhoodIterator.html" target="_top" xlink:title=" ">
<polygon fill="white" stroke="black" points="494,-0.5 494,-41.5 702,-41.5 702,-0.5 494,-0.5"/>
<text text-anchor="start" x="502" y="-29.5" font-family="Helvetica,sans-Serif" font-size="10.00">itk::NeighborhoodIterator</text>
<text text-anchor="start" x="502" y="-18.5" font-family="Helvetica,sans-Serif" font-size="10.00">&lt; TImage, ZeroFluxNeumannBoundary</text>
<text text-anchor="middle" x="598" y="-7.5" font-family="Helvetica,sans-Serif" font-size="10.00">Condition&lt; TImage &gt; &gt;</text>
</a>
</g>
</g>
<!-- Node3&#45;&gt;Node2 -->
<g id="edge2" class="edge">
<title>Node3&#45;&gt;Node2</title>
<path fill="none" stroke="#8b1a1a" d="M712.06,-21C720.62,-21 729.21,-21 737.66,-21"/>
<polygon fill="#8b1a1a" stroke="#8b1a1a" points="712.04,-17.5 702.04,-21 712.04,-24.5 712.04,-17.5"/>
</g>
<!-- Node4 -->
<g id="node4" class="node">
<title>Node4</title>
<g id="a_node4"><a xlink:href="classitk_1_1ConstNeighborhoodIterator.html" target="_top" xlink:title=" ">
<polygon fill="white" stroke="black" points="204,-0.5 204,-41.5 458,-41.5 458,-0.5 204,-0.5"/>
<text text-anchor="start" x="212" y="-29.5" font-family="Helvetica,sans-Serif" font-size="10.00">itk::ConstNeighborhoodIterator</text>
<text text-anchor="start" x="212" y="-18.5" font-family="Helvetica,sans-Serif" font-size="10.00">&lt; TImage, ZeroFluxNeumannBoundaryCondition</text>
<text text-anchor="middle" x="331" y="-7.5" font-family="Helvetica,sans-Serif" font-size="10.00">&lt; TImage &gt; &gt;</text>
</a>
</g>
</g>
<!-- Node4&#45;&gt;Node3 -->
<g id="edge3" class="edge">
<title>Node4&#45;&gt;Node3</title>
<path fill="none" stroke="midnightblue" d="M468.31,-21C476.84,-21 485.35,-21 493.7,-21"/>
<polygon fill="midnightblue" stroke="midnightblue" points="468.29,-17.5 458.29,-21 468.29,-24.5 468.29,-17.5"/>
</g>
<!-- Node5 -->
<g id="node5" class="node">
<title>Node5</title>
<g id="a_node5"><a xlink:href="classitk_1_1Neighborhood.html" target="_top" xlink:title=" ">
<polygon fill="white" stroke="black" points="0,-0.5 0,-41.5 168,-41.5 168,-0.5 0,-0.5"/>
<text text-anchor="start" x="8" y="-29.5" font-family="Helvetica,sans-Serif" font-size="10.00">itk::Neighborhood&lt;</text>
<text text-anchor="start" x="8" y="-18.5" font-family="Helvetica,sans-Serif" font-size="10.00"> TImage::InternalPixelType</text>
<text text-anchor="middle" x="84" y="-7.5" font-family="Helvetica,sans-Serif" font-size="10.00"> *, TImage::ImageDimension &gt;</text>
</a>
</g>
</g>
<!-- Node5&#45;&gt;Node4 -->
<g id="edge4" class="edge">
<title>Node5&#45;&gt;Node4</title>
<path fill="none" stroke="midnightblue" d="M178.39,-21C186.76,-21 195.32,-21 203.91,-21"/>
<polygon fill="midnightblue" stroke="midnightblue" points="178.29,-17.5 168.29,-21 178.29,-24.5 178.29,-17.5"/>
</g>
</g>
</svg>
