<?xml version="1.0" encoding="UTF-8" standalone="no"?>
<!DOCTYPE svg PUBLIC "-//W3C//DTD SVG 1.1//EN"
 "http://www.w3.org/Graphics/SVG/1.1/DTD/svg11.dtd">
<!-- Generated by graphviz version 2.43.0 (0)
 -->
<!-- Title: itk::MeshFileWriter&lt; TInputMesh &gt; Pages: 1 -->
<svg width="1534pt" height="491pt"
 viewBox="0.00 0.00 1534.00 491.34" xmlns="http://www.w3.org/2000/svg" xmlns:xlink="http://www.w3.org/1999/xlink">
<g id="graph0" class="graph" transform="scale(1 1) rotate(0) translate(4 487.34)">
<title>itk::MeshFileWriter&lt; TInputMesh &gt;</title>
<polygon fill="white" stroke="transparent" points="-4,4 -4,-487.34 1530,-487.34 1530,4 -4,4"/>
<!-- Node1 -->
<g id="node1" class="node">
<title>Node1</title>
<g id="a_node1"><a xlink:title="Writes mesh data to a single file.">
<polygon fill="#bfbfbf" stroke="black" points="1417,-353.34 1417,-383.34 1526,-383.34 1526,-353.34 1417,-353.34"/>
<text text-anchor="start" x="1425" y="-371.34" font-family="Helvetica,sans-Serif" font-size="10.00">itk::MeshFileWriter</text>
<text text-anchor="middle" x="1471.5" y="-360.34" font-family="Helvetica,sans-Serif" font-size="10.00">&lt; TInputMesh &gt;</text>
</a>
</g>
</g>
<!-- Node2 -->
<g id="node2" class="node">
<title>Node2</title>
<g id="a_node2"><a xlink:href="classitk_1_1ProcessObject.html" target="_top" xlink:title="The base class for all process objects (source, filters, mappers) in the Insight data processing pipe...">
<polygon fill="white" stroke="black" points="1276,-216.84 1276,-235.84 1380,-235.84 1380,-216.84 1276,-216.84"/>
<text text-anchor="middle" x="1328" y="-223.84" font-family="Helvetica,sans-Serif" font-size="10.00">itk::ProcessObject</text>
</a>
</g>
</g>
<!-- Node2&#45;&gt;Node1 -->
<g id="edge1" class="edge">
<title>Node2&#45;&gt;Node1</title>
<path fill="none" stroke="midnightblue" d="M1345.79,-243.18C1373.56,-271.05 1428.64,-326.33 1455.32,-353.1"/>
<polygon fill="midnightblue" stroke="midnightblue" points="1348.26,-240.71 1338.73,-236.1 1343.31,-245.65 1348.26,-240.71"/>
</g>
<!-- Node3 -->
<g id="node3" class="node">
<title>Node3</title>
<g id="a_node3"><a xlink:href="classitk_1_1Object.html" target="_top" xlink:title="Base class for most ITK classes.">
<polygon fill="white" stroke="black" points="980,-123.84 980,-142.84 1047,-142.84 1047,-123.84 980,-123.84"/>
<text text-anchor="middle" x="1013.5" y="-130.84" font-family="Helvetica,sans-Serif" font-size="10.00">itk::Object</text>
</a>
</g>
</g>
<!-- Node3&#45;&gt;Node2 -->
<g id="edge2" class="edge">
<title>Node3&#45;&gt;Node2</title>
<path fill="none" stroke="midnightblue" d="M1057.46,-135.11C1107.44,-138.46 1191.58,-148.18 1258,-176.34 1281.15,-186.15 1303.98,-204.98 1316.71,-216.52"/>
<polygon fill="midnightblue" stroke="midnightblue" points="1057.53,-131.6 1047.33,-134.48 1057.1,-138.59 1057.53,-131.6"/>
</g>
<!-- Node4 -->
<g id="node4" class="node">
<title>Node4</title>
<g id="a_node4"><a xlink:href="classitk_1_1LightObject.html" target="_top" xlink:title="Light weight base class for most itk classes.">
<polygon fill="white" stroke="black" points="659,-106.84 659,-125.84 750,-125.84 750,-106.84 659,-106.84"/>
<text text-anchor="middle" x="704.5" y="-113.84" font-family="Helvetica,sans-Serif" font-size="10.00">itk::LightObject</text>
</a>
</g>
</g>
<!-- Node4&#45;&gt;Node3 -->
<g id="edge3" class="edge">
<title>Node4&#45;&gt;Node3</title>
<path fill="none" stroke="midnightblue" d="M760.4,-119.38C824.13,-122.91 927.17,-128.61 979.59,-131.51"/>
<polygon fill="midnightblue" stroke="midnightblue" points="760.32,-115.87 750.14,-118.81 759.93,-122.86 760.32,-115.87"/>
</g>
<!-- Node5 -->
<g id="node5" class="node">
<title>Node5</title>
<g id="a_node5"><a xlink:title=" ">
<polygon fill="white" stroke="#bfbfbf" points="372,-105.84 372,-124.84 479,-124.84 479,-105.84 372,-105.84"/>
<text text-anchor="middle" x="425.5" y="-112.84" font-family="Helvetica,sans-Serif" font-size="10.00">std::atomic&lt; int &gt;</text>
</a>
</g>
</g>
<!-- Node5&#45;&gt;Node4 -->
<g id="edge4" class="edge">
<title>Node5&#45;&gt;Node4</title>
<path fill="none" stroke="#9a32cd" stroke-dasharray="5,2" d="M489.29,-115.56C540.91,-115.75 612.77,-116.01 658.72,-116.17"/>
<polygon fill="#9a32cd" stroke="#9a32cd" points="489.27,-112.06 479.25,-115.53 489.24,-119.06 489.27,-112.06"/>
<text text-anchor="middle" x="566.5" y="-118.34" font-family="Helvetica,sans-Serif" font-size="10.00"> m_ReferenceCount</text>
</g>
<!-- Node6 -->
<g id="node6" class="node">
<title>Node6</title>
<g id="a_node6"><a xlink:title="STL class.">
<polygon fill="white" stroke="#bfbfbf" points="672,-245.84 672,-264.84 737,-264.84 737,-245.84 672,-245.84"/>
<text text-anchor="middle" x="704.5" y="-252.84" font-family="Helvetica,sans-Serif" font-size="10.00">std::string</text>
</a>
</g>
</g>
<!-- Node6&#45;&gt;Node1 -->
<g id="edge29" class="edge">
<title>Node6&#45;&gt;Node1</title>
<path fill="none" stroke="#9a32cd" stroke-dasharray="5,2" d="M715.49,-273.77C729.48,-297.45 757.37,-337.49 794,-354.34 822.1,-367.26 1261.9,-368.39 1416.92,-368.39"/>
<polygon fill="#9a32cd" stroke="#9a32cd" points="718.5,-271.98 710.51,-265.02 712.41,-275.45 718.5,-271.98"/>
<text text-anchor="middle" x="1187" y="-370.34" font-family="Helvetica,sans-Serif" font-size="10.00"> m_FileName</text>
</g>
<!-- Node6&#45;&gt;Node3 -->
<g id="edge5" class="edge">
<title>Node6&#45;&gt;Node3</title>
<path fill="none" stroke="#9a32cd" stroke-dasharray="5,2" d="M722.1,-238.35C738.77,-222.35 765.92,-199.01 794,-186.34 842.23,-164.57 861.62,-183.33 911,-164.34 919.75,-160.97 920.33,-156.92 929,-153.34 945.12,-146.68 963.95,-141.93 979.64,-138.73"/>
<polygon fill="#9a32cd" stroke="#9a32cd" points="719.48,-236.02 714.81,-245.53 724.39,-241.01 719.48,-236.02"/>
<text text-anchor="middle" x="852.5" y="-189.34" font-family="Helvetica,sans-Serif" font-size="10.00"> m_ObjectName</text>
</g>
<!-- Node15 -->
<g id="node15" class="node">
<title>Node15</title>
<g id="a_node15"><a xlink:title=" ">
<polygon fill="white" stroke="#bfbfbf" points="932.5,-211.34 932.5,-241.34 1094.5,-241.34 1094.5,-211.34 932.5,-211.34"/>
<text text-anchor="start" x="940.5" y="-229.34" font-family="Helvetica,sans-Serif" font-size="10.00">std::set&lt; DataObjectIdentifier</text>
<text text-anchor="middle" x="1013.5" y="-218.34" font-family="Helvetica,sans-Serif" font-size="10.00">Type &gt;</text>
</a>
</g>
</g>
<!-- Node6&#45;&gt;Node15 -->
<g id="edge16" class="edge">
<title>Node6&#45;&gt;Node15</title>
<path fill="none" stroke="#9a32cd" stroke-dasharray="5,2" d="M747.4,-251.38C794.8,-246.9 873.1,-239.5 932.35,-233.91"/>
<polygon fill="#9a32cd" stroke="#9a32cd" points="746.82,-247.92 737.2,-252.34 747.48,-254.89 746.82,-247.92"/>
<text text-anchor="middle" x="852.5" y="-249.34" font-family="Helvetica,sans-Serif" font-size="10.00"> keys</text>
</g>
<!-- Node16 -->
<g id="node16" class="node">
<title>Node16</title>
<g id="a_node16"><a xlink:title=" ">
<polygon fill="white" stroke="#bfbfbf" points="929,-162.34 929,-192.34 1098,-192.34 1098,-162.34 929,-162.34"/>
<text text-anchor="start" x="937" y="-180.34" font-family="Helvetica,sans-Serif" font-size="10.00">std::map&lt; DataObjectIdentifier</text>
<text text-anchor="middle" x="1013.5" y="-169.34" font-family="Helvetica,sans-Serif" font-size="10.00">Type, bool &gt;</text>
</a>
</g>
</g>
<!-- Node6&#45;&gt;Node16 -->
<g id="edge18" class="edge">
<title>Node6&#45;&gt;Node16</title>
<path fill="none" stroke="#9a32cd" stroke-dasharray="5,2" d="M736.62,-241.79C753.37,-234.91 774.54,-226.85 794,-221.34 844.9,-206.9 859.14,-209.83 911,-199.34 921.78,-197.15 933.19,-194.76 944.31,-192.39"/>
<polygon fill="#9a32cd" stroke="#9a32cd" points="735.19,-238.6 727.31,-245.68 737.89,-245.06 735.19,-238.6"/>
<text text-anchor="middle" x="852.5" y="-224.34" font-family="Helvetica,sans-Serif" font-size="10.00"> keys</text>
</g>
<!-- Node21 -->
<g id="node21" class="node">
<title>Node21</title>
<g id="a_node21"><a xlink:title=" ">
<polygon fill="white" stroke="#bfbfbf" points="929,-260.34 929,-290.34 1098,-290.34 1098,-260.34 929,-260.34"/>
<text text-anchor="start" x="937" y="-278.34" font-family="Helvetica,sans-Serif" font-size="10.00">std::map&lt; DataObjectIdentifier</text>
<text text-anchor="middle" x="1013.5" y="-267.34" font-family="Helvetica,sans-Serif" font-size="10.00">Type, DataObjectPointer &gt;</text>
</a>
</g>
</g>
<!-- Node6&#45;&gt;Node21 -->
<g id="edge25" class="edge">
<title>Node6&#45;&gt;Node21</title>
<path fill="none" stroke="#9a32cd" stroke-dasharray="5,2" d="M747.64,-261.91C762.29,-263.96 778.83,-266.03 794,-267.34 838.44,-271.15 888.11,-273.15 928.86,-274.2"/>
<polygon fill="#9a32cd" stroke="#9a32cd" points="747.77,-258.39 737.37,-260.43 746.77,-265.32 747.77,-258.39"/>
<text text-anchor="middle" x="852.5" y="-276.34" font-family="Helvetica,sans-Serif" font-size="10.00"> keys</text>
</g>
<!-- Node7 -->
<g id="node7" class="node">
<title>Node7</title>
<g id="a_node7"><a xlink:title="STL class.">
<polygon fill="white" stroke="#bfbfbf" points="373.5,-240.34 373.5,-270.34 477.5,-270.34 477.5,-240.34 373.5,-240.34"/>
<text text-anchor="start" x="381.5" y="-258.34" font-family="Helvetica,sans-Serif" font-size="10.00">std::basic_string&lt;</text>
<text text-anchor="middle" x="425.5" y="-247.34" font-family="Helvetica,sans-Serif" font-size="10.00"> char &gt;</text>
</a>
</g>
</g>
<!-- Node7&#45;&gt;Node6 -->
<g id="edge6" class="edge">
<title>Node7&#45;&gt;Node6</title>
<path fill="none" stroke="midnightblue" d="M487.93,-255.34C544.75,-255.34 626.97,-255.34 671.66,-255.34"/>
<polygon fill="midnightblue" stroke="midnightblue" points="487.63,-251.84 477.63,-255.34 487.63,-258.84 487.63,-251.84"/>
</g>
<!-- Node8 -->
<g id="node8" class="node">
<title>Node8</title>
<g id="a_node8"><a xlink:href="classitk_1_1MetaDataDictionary.html" target="_top" xlink:title="Provides a mechanism for storing a collection of arbitrary data types.">
<polygon fill="white" stroke="black" points="637.5,-147.84 637.5,-166.84 771.5,-166.84 771.5,-147.84 637.5,-147.84"/>
<text text-anchor="middle" x="704.5" y="-154.84" font-family="Helvetica,sans-Serif" font-size="10.00">itk::MetaDataDictionary</text>
</a>
</g>
</g>
<!-- Node8&#45;&gt;Node3 -->
<g id="edge7" class="edge">
<title>Node8&#45;&gt;Node3</title>
<path fill="none" stroke="#9a32cd" stroke-dasharray="5,2" d="M781.74,-151.38C845.39,-146.4 933.03,-139.55 979.86,-135.89"/>
<polygon fill="#9a32cd" stroke="#9a32cd" points="781.43,-147.89 771.74,-152.16 781.98,-154.87 781.43,-147.89"/>
<text text-anchor="middle" x="852.5" y="-152.34" font-family="Helvetica,sans-Serif" font-size="10.00"> m_MetaDataDictionary</text>
</g>
<!-- Node9 -->
<g id="node9" class="node">
<title>Node9</title>
<g id="a_node9"><a xlink:title=" ">
<polygon fill="white" stroke="#bfbfbf" points="351,-144.34 351,-174.34 500,-174.34 500,-144.34 351,-144.34"/>
<text text-anchor="start" x="359" y="-162.34" font-family="Helvetica,sans-Serif" font-size="10.00">std::shared_ptr&lt; MetaData</text>
<text text-anchor="middle" x="425.5" y="-151.34" font-family="Helvetica,sans-Serif" font-size="10.00">DictionaryMapType &gt;</text>
</a>
</g>
</g>
<!-- Node9&#45;&gt;Node8 -->
<g id="edge8" class="edge">
<title>Node9&#45;&gt;Node8</title>
<path fill="none" stroke="#9a32cd" stroke-dasharray="5,2" d="M510.18,-158.73C550.89,-158.44 599.13,-158.09 637.24,-157.81"/>
<polygon fill="#9a32cd" stroke="#9a32cd" points="509.98,-155.23 500,-158.81 510.03,-162.23 509.98,-155.23"/>
<text text-anchor="middle" x="566.5" y="-161.34" font-family="Helvetica,sans-Serif" font-size="10.00"> m_Dictionary</text>
</g>
<!-- Node10 -->
<g id="node10" class="node">
<title>Node10</title>
<g id="a_node10"><a xlink:title="STL class.">
<polygon fill="white" stroke="#bfbfbf" points="114,-148.84 114,-167.84 215,-167.84 215,-148.84 114,-148.84"/>
<text text-anchor="middle" x="164.5" y="-155.84" font-family="Helvetica,sans-Serif" font-size="10.00">std::map&lt; K, T &gt;</text>
</a>
</g>
</g>
<!-- Node10&#45;&gt;Node9 -->
<g id="edge9" class="edge">
<title>Node10&#45;&gt;Node9</title>
<path fill="none" stroke="#9a32cd" stroke-dasharray="5,2" d="M225.34,-158.57C262.61,-158.71 310.86,-158.9 350.52,-159.05"/>
<polygon fill="#9a32cd" stroke="#9a32cd" points="225.14,-155.07 215.13,-158.53 225.12,-162.07 225.14,-155.07"/>
<text text-anchor="middle" x="283" y="-161.34" font-family="Helvetica,sans-Serif" font-size="10.00"> ptr</text>
</g>
<!-- Node11 -->
<g id="node11" class="node">
<title>Node11</title>
<g id="a_node11"><a xlink:title=" ">
<polygon fill="white" stroke="#bfbfbf" points="0,-148.84 0,-167.84 29,-167.84 29,-148.84 0,-148.84"/>
<text text-anchor="middle" x="14.5" y="-155.84" font-family="Helvetica,sans-Serif" font-size="10.00">K</text>
</a>
</g>
</g>
<!-- Node11&#45;&gt;Node10 -->
<g id="edge10" class="edge">
<title>Node11&#45;&gt;Node10</title>
<path fill="none" stroke="#9a32cd" stroke-dasharray="5,2" d="M39.24,-158.34C59.28,-158.34 88.63,-158.34 113.78,-158.34"/>
<polygon fill="#9a32cd" stroke="#9a32cd" points="39.16,-154.84 29.16,-158.34 39.16,-161.84 39.16,-154.84"/>
<text text-anchor="middle" x="71.5" y="-161.34" font-family="Helvetica,sans-Serif" font-size="10.00"> keys</text>
</g>
<!-- Node12 -->
<g id="node12" class="node">
<title>Node12</title>
<g id="a_node12"><a xlink:title=" ">
<polygon fill="white" stroke="#bfbfbf" points="0,-95.84 0,-114.84 29,-114.84 29,-95.84 0,-95.84"/>
<text text-anchor="middle" x="14.5" y="-102.84" font-family="Helvetica,sans-Serif" font-size="10.00">T</text>
</a>
</g>
</g>
<!-- Node12&#45;&gt;Node10 -->
<g id="edge11" class="edge">
<title>Node12&#45;&gt;Node10</title>
<path fill="none" stroke="#9a32cd" stroke-dasharray="5,2" d="M38.78,-113.67C65.36,-123.19 108.76,-138.73 136.72,-148.75"/>
<polygon fill="#9a32cd" stroke="#9a32cd" points="39.75,-110.3 29.16,-110.23 37.39,-116.89 39.75,-110.3"/>
<text text-anchor="middle" x="71.5" y="-136.34" font-family="Helvetica,sans-Serif" font-size="10.00"> elements</text>
</g>
<!-- Node14 -->
<g id="node14" class="node">
<title>Node14</title>
<g id="a_node14"><a xlink:title="STL class.">
<polygon fill="white" stroke="#bfbfbf" points="233,-73.84 233,-92.84 333,-92.84 333,-73.84 233,-73.84"/>
<text text-anchor="middle" x="283" y="-80.84" font-family="Helvetica,sans-Serif" font-size="10.00">std::atomic&lt; T &gt;</text>
</a>
</g>
</g>
<!-- Node12&#45;&gt;Node14 -->
<g id="edge14" class="edge">
<title>Node12&#45;&gt;Node14</title>
<path fill="none" stroke="#9a32cd" stroke-dasharray="5,2" d="M39.44,-102.17C41.99,-101.87 44.55,-101.59 47,-101.34 111.12,-94.81 185.29,-89.5 232.88,-86.38"/>
<polygon fill="#9a32cd" stroke="#9a32cd" points="38.77,-98.73 29.28,-103.43 39.64,-105.67 38.77,-98.73"/>
<text text-anchor="middle" x="71.5" y="-104.34" font-family="Helvetica,sans-Serif" font-size="10.00"> ptr</text>
</g>
<!-- Node13 -->
<g id="node13" class="node">
<title>Node13</title>
<g id="a_node13"><a xlink:href="classitk_1_1TimeStamp.html" target="_top" xlink:title="Generate a unique, increasing time value.">
<polygon fill="white" stroke="black" points="658.5,-66.84 658.5,-85.84 750.5,-85.84 750.5,-66.84 658.5,-66.84"/>
<text text-anchor="middle" x="704.5" y="-73.84" font-family="Helvetica,sans-Serif" font-size="10.00">itk::TimeStamp</text>
</a>
</g>
</g>
<!-- Node13&#45;&gt;Node2 -->
<g id="edge27" class="edge">
<title>Node13&#45;&gt;Node2</title>
<path fill="none" stroke="#9a32cd" stroke-dasharray="5,2" d="M760.63,-67.49C866.15,-53.56 1100.18,-37.38 1258,-136.34 1290.36,-156.63 1313.3,-197.85 1322.51,-216.63"/>
<polygon fill="#9a32cd" stroke="#9a32cd" points="759.96,-64.05 750.53,-68.87 760.91,-70.99 759.96,-64.05"/>
<text text-anchor="middle" x="1013.5" y="-77.34" font-family="Helvetica,sans-Serif" font-size="10.00"> m_OutputInformationMTime</text>
</g>
<!-- Node13&#45;&gt;Node3 -->
<g id="edge12" class="edge">
<title>Node13&#45;&gt;Node3</title>
<path fill="none" stroke="#9a32cd" stroke-dasharray="5,2" d="M760.84,-82.66C802.38,-87.83 860.53,-95.98 911,-106.34 934.4,-111.14 960.43,-118.1 980.27,-123.75"/>
<polygon fill="#9a32cd" stroke="#9a32cd" points="761.01,-79.16 750.66,-81.41 760.16,-86.1 761.01,-79.16"/>
<text text-anchor="middle" x="852.5" y="-109.34" font-family="Helvetica,sans-Serif" font-size="10.00"> m_MTime</text>
</g>
<!-- Node14&#45;&gt;Node13 -->
<g id="edge13" class="edge">
<title>Node14&#45;&gt;Node13</title>
<path fill="none" stroke="#9a32cd" stroke-dasharray="5,2" d="M343.61,-82.34C428.52,-80.92 582.42,-78.36 658.48,-77.09"/>
<polygon fill="#9a32cd" stroke="#9a32cd" points="343.3,-78.85 333.36,-82.51 343.41,-85.84 343.3,-78.85"/>
<text text-anchor="middle" x="425.5" y="-85.34" font-family="Helvetica,sans-Serif" font-size="10.00"> m_GlobalTimeStamp</text>
</g>
<!-- Node15&#45;&gt;Node2 -->
<g id="edge15" class="edge">
<title>Node15&#45;&gt;Node2</title>
<path fill="none" stroke="#9a32cd" stroke-dasharray="5,2" d="M1104.76,-226.34C1160.22,-226.34 1229.26,-226.34 1275.55,-226.34"/>
<polygon fill="#9a32cd" stroke="#9a32cd" points="1104.57,-222.84 1094.57,-226.34 1104.57,-229.84 1104.57,-222.84"/>
<text text-anchor="middle" x="1187" y="-229.34" font-family="Helvetica,sans-Serif" font-size="10.00"> m_RequiredInputNames</text>
</g>
<!-- Node16&#45;&gt;Node2 -->
<g id="edge17" class="edge">
<title>Node16&#45;&gt;Node2</title>
<path fill="none" stroke="#9a32cd" stroke-dasharray="5,2" d="M1108.39,-180.37C1154.01,-183.32 1209.35,-189.08 1258,-200.34 1274.59,-204.17 1292.56,-211.04 1306.01,-216.75"/>
<polygon fill="#9a32cd" stroke="#9a32cd" points="1108.41,-176.86 1098.21,-179.75 1107.98,-183.85 1108.41,-176.86"/>
<text text-anchor="start" x="1116" y="-214.34" font-family="Helvetica,sans-Serif" font-size="10.00"> m_CachedInputReleaseData</text>
<text text-anchor="middle" x="1187" y="-203.34" font-family="Helvetica,sans-Serif" font-size="10.00">Flags</text>
</g>
<!-- Node17 -->
<g id="node17" class="node">
<title>Node17</title>
<g id="a_node17"><a xlink:title=" ">
<polygon fill="white" stroke="#bfbfbf" points="946.5,-5.84 946.5,-24.84 1080.5,-24.84 1080.5,-5.84 946.5,-5.84"/>
<text text-anchor="middle" x="1013.5" y="-12.84" font-family="Helvetica,sans-Serif" font-size="10.00">std::atomic&lt; uint32_t &gt;</text>
</a>
</g>
</g>
<!-- Node17&#45;&gt;Node2 -->
<g id="edge19" class="edge">
<title>Node17&#45;&gt;Node2</title>
<path fill="none" stroke="#9a32cd" stroke-dasharray="5,2" d="M1070.54,-4.32C1124.21,2.89 1204.7,4.54 1258,-36.34 1317.87,-82.25 1325.85,-185.06 1326.86,-216.81"/>
<polygon fill="#9a32cd" stroke="#9a32cd" points="1069.91,-0.87 1060.51,-5.77 1070.91,-7.8 1069.91,-0.87"/>
<text text-anchor="middle" x="1187" y="-39.34" font-family="Helvetica,sans-Serif" font-size="10.00"> m_Progress</text>
</g>
<!-- Node18 -->
<g id="node18" class="node">
<title>Node18</title>
<g id="a_node18"><a xlink:title=" ">
<polygon fill="white" stroke="#bfbfbf" points="676.5,-5.84 676.5,-24.84 732.5,-24.84 732.5,-5.84 676.5,-5.84"/>
<text text-anchor="middle" x="704.5" y="-12.84" font-family="Helvetica,sans-Serif" font-size="10.00">uint32_t</text>
</a>
</g>
</g>
<!-- Node18&#45;&gt;Node17 -->
<g id="edge20" class="edge">
<title>Node18&#45;&gt;Node17</title>
<path fill="none" stroke="#9a32cd" stroke-dasharray="5,2" d="M742.88,-15.34C793.35,-15.34 884.11,-15.34 946.28,-15.34"/>
<polygon fill="#9a32cd" stroke="#9a32cd" points="742.74,-11.84 732.74,-15.34 742.74,-18.84 742.74,-11.84"/>
<text text-anchor="middle" x="852.5" y="-18.34" font-family="Helvetica,sans-Serif" font-size="10.00"> ptr</text>
</g>
<!-- Node19 -->
<g id="node19" class="node">
<title>Node19</title>
<g id="a_node19"><a xlink:title=" ">
<polygon fill="white" stroke="#bfbfbf" points="929,-435.34 929,-465.34 1098,-465.34 1098,-435.34 929,-435.34"/>
<text text-anchor="start" x="937" y="-453.34" font-family="Helvetica,sans-Serif" font-size="10.00">std::vector&lt; DataObjectPointer</text>
<text text-anchor="middle" x="1013.5" y="-442.34" font-family="Helvetica,sans-Serif" font-size="10.00">Map::iterator &gt;</text>
</a>
</g>
</g>
<!-- Node19&#45;&gt;Node2 -->
<g id="edge21" class="edge">
<title>Node19&#45;&gt;Node2</title>
<path fill="none" stroke="#9a32cd" stroke-dasharray="5,2" d="M1108.28,-461.44C1157.73,-462.23 1216.55,-454.48 1258,-421.34 1318.3,-373.11 1325.98,-268.35 1326.9,-236.03"/>
<polygon fill="#9a32cd" stroke="#9a32cd" points="1108.3,-457.94 1098.21,-461.17 1108.11,-464.94 1108.3,-457.94"/>
<text text-anchor="middle" x="1187" y="-475.34" font-family="Helvetica,sans-Serif" font-size="10.00"> m_IndexedOutputs</text>
<text text-anchor="middle" x="1187" y="-464.34" font-family="Helvetica,sans-Serif" font-size="10.00">m_IndexedInputs</text>
</g>
<!-- Node20 -->
<g id="node20" class="node">
<title>Node20</title>
<g id="a_node20"><a xlink:title="STL iterator class.">
<polygon fill="white" stroke="#bfbfbf" points="633,-440.84 633,-459.84 776,-459.84 776,-440.84 633,-440.84"/>
<text text-anchor="middle" x="704.5" y="-447.84" font-family="Helvetica,sans-Serif" font-size="10.00">std::map&lt; K, T &gt;::iterator</text>
</a>
</g>
</g>
<!-- Node20&#45;&gt;Node19 -->
<g id="edge22" class="edge">
<title>Node20&#45;&gt;Node19</title>
<path fill="none" stroke="#9a32cd" stroke-dasharray="5,2" d="M786.39,-450.34C830.34,-450.34 884.61,-450.34 928.97,-450.34"/>
<polygon fill="#9a32cd" stroke="#9a32cd" points="786.32,-446.84 776.32,-450.34 786.32,-453.84 786.32,-446.84"/>
<text text-anchor="middle" x="852.5" y="-453.34" font-family="Helvetica,sans-Serif" font-size="10.00"> elements</text>
</g>
<!-- Node21&#45;&gt;Node2 -->
<g id="edge23" class="edge">
<title>Node21&#45;&gt;Node2</title>
<path fill="none" stroke="#9a32cd" stroke-dasharray="5,2" d="M1108.26,-263.92C1153.61,-257.97 1208.78,-250.11 1258,-241.34 1266.93,-239.74 1276.46,-237.82 1285.51,-235.89"/>
<polygon fill="#9a32cd" stroke="#9a32cd" points="1107.61,-260.48 1098.14,-265.24 1108.51,-267.42 1107.61,-260.48"/>
<text text-anchor="middle" x="1187" y="-276.34" font-family="Helvetica,sans-Serif" font-size="10.00"> m_Outputs</text>
<text text-anchor="middle" x="1187" y="-265.34" font-family="Helvetica,sans-Serif" font-size="10.00">m_Inputs</text>
</g>
<!-- Node22 -->
<g id="node22" class="node">
<title>Node22</title>
<g id="a_node22"><a xlink:href="classitk_1_1SmartPointer.html" target="_top" xlink:title=" ">
<polygon fill="white" stroke="black" points="651,-356.34 651,-386.34 758,-386.34 758,-356.34 651,-356.34"/>
<text text-anchor="start" x="659" y="-374.34" font-family="Helvetica,sans-Serif" font-size="10.00">itk::SmartPointer&lt;</text>
<text text-anchor="middle" x="704.5" y="-363.34" font-family="Helvetica,sans-Serif" font-size="10.00"> Self &gt;</text>
</a>
</g>
</g>
<!-- Node22&#45;&gt;Node1 -->
<g id="edge28" class="edge">
<title>Node22&#45;&gt;Node1</title>
<path fill="none" stroke="#9a32cd" stroke-dasharray="5,2" d="M768.31,-380.09C776.92,-381.01 785.67,-381.81 794,-382.34 999.81,-395.4 1051.78,-384.07 1258,-383.34 1320.67,-383.11 1336.65,-388.61 1399,-382.34 1404.79,-381.75 1410.81,-380.93 1416.78,-379.97"/>
<polygon fill="#9a32cd" stroke="#9a32cd" points="768.61,-376.6 758.28,-378.95 767.83,-383.56 768.61,-376.6"/>
<text text-anchor="middle" x="1187" y="-388.34" font-family="Helvetica,sans-Serif" font-size="10.00"> m_MeshIO</text>
</g>
<!-- Node22&#45;&gt;Node21 -->
<g id="edge24" class="edge">
<title>Node22&#45;&gt;Node21</title>
<path fill="none" stroke="#9a32cd" stroke-dasharray="5,2" d="M761.69,-353.2C806.84,-338.7 871.92,-317.95 929,-300.34 939.56,-297.08 950.88,-293.65 961.68,-290.4"/>
<polygon fill="#9a32cd" stroke="#9a32cd" points="760.54,-349.89 752.09,-356.29 762.68,-356.56 760.54,-349.89"/>
<text text-anchor="middle" x="852.5" y="-344.34" font-family="Helvetica,sans-Serif" font-size="10.00"> elements</text>
</g>
<!-- Node23 -->
<g id="node23" class="node">
<title>Node23</title>
<g id="a_node23"><a xlink:href="classitk_1_1SmartPointer.html" target="_top" xlink:title=" ">
<polygon fill="white" stroke="black" points="942.5,-309.34 942.5,-339.34 1084.5,-339.34 1084.5,-309.34 942.5,-309.34"/>
<text text-anchor="start" x="950.5" y="-327.34" font-family="Helvetica,sans-Serif" font-size="10.00">itk::SmartPointer&lt;</text>
<text text-anchor="middle" x="1013.5" y="-316.34" font-family="Helvetica,sans-Serif" font-size="10.00"> itk::MultiThreaderBase &gt;</text>
</a>
</g>
</g>
<!-- Node23&#45;&gt;Node2 -->
<g id="edge26" class="edge">
<title>Node23&#45;&gt;Node2</title>
<path fill="none" stroke="#9a32cd" stroke-dasharray="5,2" d="M1095.02,-324.04C1144.15,-321.1 1207.09,-312.27 1258,-288.34 1284.23,-276 1307.69,-250.36 1319.3,-236.22"/>
<polygon fill="#9a32cd" stroke="#9a32cd" points="1094.56,-320.56 1084.75,-324.59 1094.92,-327.55 1094.56,-320.56"/>
<text text-anchor="middle" x="1187" y="-325.34" font-family="Helvetica,sans-Serif" font-size="10.00"> m_MultiThreader</text>
</g>
</g>
</svg>
