<?xml version="1.0" encoding="UTF-8" standalone="no"?>
<!DOCTYPE svg PUBLIC "-//W3C//DTD SVG 1.1//EN"
 "http://www.w3.org/Graphics/SVG/1.1/DTD/svg11.dtd">
<!-- Generated by graphviz version 2.43.0 (0)
 -->
<!-- Title: itk::ImageIORegion Pages: 1 -->
<svg width="441pt" height="95pt"
 viewBox="0.00 0.00 441.00 95.00" xmlns="http://www.w3.org/2000/svg" xmlns:xlink="http://www.w3.org/1999/xlink">
<g id="graph0" class="graph" transform="scale(1 1) rotate(0) translate(4 91)">
<title>itk::ImageIORegion</title>
<polygon fill="white" stroke="transparent" points="-4,4 -4,-91 437,-91 437,4 -4,4"/>
<!-- Node1 -->
<g id="node1" class="node">
<title>Node1</title>
<g id="a_node1"><a xlink:title="An ImageIORegion represents a structured region of data.">
<polygon fill="#bfbfbf" stroke="black" points="115.5,-0.5 115.5,-19.5 225.5,-19.5 225.5,-0.5 115.5,-0.5"/>
<text text-anchor="middle" x="170.5" y="-7.5" font-family="Helvetica,sans-Serif" font-size="10.00">itk::ImageIORegion</text>
</a>
</g>
</g>
<!-- Node2 -->
<g id="node2" class="node">
<title>Node2</title>
<g id="a_node2"><a xlink:href="classitk_1_1Region.html" target="_top" xlink:title="A region represents some portion or piece of data.">
<polygon fill="white" stroke="black" points="0,-67.5 0,-86.5 69,-86.5 69,-67.5 0,-67.5"/>
<text text-anchor="middle" x="34.5" y="-74.5" font-family="Helvetica,sans-Serif" font-size="10.00">itk::Region</text>
</a>
</g>
</g>
<!-- Node2&#45;&gt;Node1 -->
<g id="edge1" class="edge">
<title>Node2&#45;&gt;Node1</title>
<path fill="none" stroke="midnightblue" d="M61.82,-62.94C88.76,-50.07 129.16,-30.76 152.37,-19.67"/>
<polygon fill="midnightblue" stroke="midnightblue" points="60.07,-59.9 52.56,-67.37 63.09,-66.21 60.07,-59.9"/>
</g>
<!-- Node3 -->
<g id="node3" class="node">
<title>Node3</title>
<g id="a_node3"><a xlink:title=" ">
<polygon fill="white" stroke="#bfbfbf" points="87,-67.5 87,-86.5 254,-86.5 254,-67.5 87,-67.5"/>
<text text-anchor="middle" x="170.5" y="-74.5" font-family="Helvetica,sans-Serif" font-size="10.00">std::vector&lt; IndexValueType &gt;</text>
</a>
</g>
</g>
<!-- Node3&#45;&gt;Node1 -->
<g id="edge2" class="edge">
<title>Node3&#45;&gt;Node1</title>
<path fill="none" stroke="#9a32cd" stroke-dasharray="5,2" d="M170.5,-57.04C170.5,-44.67 170.5,-29.12 170.5,-19.63"/>
<polygon fill="#9a32cd" stroke="#9a32cd" points="167,-57.23 170.5,-67.23 174,-57.23 167,-57.23"/>
<text text-anchor="middle" x="193.5" y="-41" font-family="Helvetica,sans-Serif" font-size="10.00"> m_Index</text>
</g>
<!-- Node4 -->
<g id="node4" class="node">
<title>Node4</title>
<g id="a_node4"><a xlink:title=" ">
<polygon fill="white" stroke="#bfbfbf" points="272,-67.5 272,-86.5 433,-86.5 433,-67.5 272,-67.5"/>
<text text-anchor="middle" x="352.5" y="-74.5" font-family="Helvetica,sans-Serif" font-size="10.00">std::vector&lt; SizeValueType &gt;</text>
</a>
</g>
</g>
<!-- Node4&#45;&gt;Node1 -->
<g id="edge3" class="edge">
<title>Node4&#45;&gt;Node1</title>
<path fill="none" stroke="#9a32cd" stroke-dasharray="5,2" d="M318.72,-63.94C282.62,-51.04 226.29,-30.92 194.48,-19.56"/>
<polygon fill="#9a32cd" stroke="#9a32cd" points="317.74,-67.3 328.33,-67.37 320.09,-60.71 317.74,-67.3"/>
<text text-anchor="middle" x="291" y="-41" font-family="Helvetica,sans-Serif" font-size="10.00"> m_Size</text>
</g>
</g>
</svg>
