<?xml version="1.0" encoding="UTF-8" standalone="no"?>
<!DOCTYPE svg PUBLIC "-//W3C//DTD SVG 1.1//EN"
 "http://www.w3.org/Graphics/SVG/1.1/DTD/svg11.dtd">
<!-- Generated by graphviz version 2.43.0 (0)
 -->
<!-- Title: itk::BinaryImageToLevelSetImageAdaptor&lt; TInput, ShiSparseLevelSetImage&lt; TInput::ImageDimension &gt; &gt; Pages: 1 -->
<svg width="900pt" height="61pt"
 viewBox="0.00 0.00 900.00 61.00" xmlns="http://www.w3.org/2000/svg" xmlns:xlink="http://www.w3.org/1999/xlink">
<g id="graph0" class="graph" transform="scale(1 1) rotate(0) translate(4 57)">
<title>itk::BinaryImageToLevelSetImageAdaptor&lt; TInput, ShiSparseLevelSetImage&lt; TInput::ImageDimension &gt; &gt;</title>
<polygon fill="white" stroke="transparent" points="-4,4 -4,-57 896,-57 896,4 -4,4"/>
<!-- Node1 -->
<g id="node1" class="node">
<title>Node1</title>
<g id="a_node1"><a xlink:title="Partial template specialization for ShiSparseLevelSetImage.">
<polygon fill="#bfbfbf" stroke="black" points="649,-6 649,-47 892,-47 892,-6 649,-6"/>
<text text-anchor="start" x="657" y="-35" font-family="Helvetica,sans-Serif" font-size="10.00">itk::BinaryImageToLevelSet</text>
<text text-anchor="start" x="657" y="-24" font-family="Helvetica,sans-Serif" font-size="10.00">ImageAdaptor&lt; TInput, ShiSparse</text>
<text text-anchor="middle" x="770.5" y="-13" font-family="Helvetica,sans-Serif" font-size="10.00">LevelSetImage&lt; TInput::ImageDimension &gt; &gt;</text>
</a>
</g>
</g>
<!-- Node2 -->
<g id="node2" class="node">
<title>Node2</title>
<g id="a_node2"><a xlink:href="classitk_1_1BinaryImageToSparseLevelSetImageAdaptorBase.html" target="_top" xlink:title=" ">
<polygon fill="white" stroke="black" points="428,-0.5 428,-52.5 613,-52.5 613,-0.5 428,-0.5"/>
<text text-anchor="start" x="436" y="-40.5" font-family="Helvetica,sans-Serif" font-size="10.00">itk::BinaryImageToSparse</text>
<text text-anchor="start" x="436" y="-29.5" font-family="Helvetica,sans-Serif" font-size="10.00">LevelSetImageAdaptorBase</text>
<text text-anchor="start" x="436" y="-18.5" font-family="Helvetica,sans-Serif" font-size="10.00">&lt; TInput, ShiSparseLevelSetImage</text>
<text text-anchor="middle" x="520.5" y="-7.5" font-family="Helvetica,sans-Serif" font-size="10.00">&lt; TInput::ImageDimension &gt; &gt;</text>
</a>
</g>
</g>
<!-- Node2&#45;&gt;Node1 -->
<g id="edge1" class="edge">
<title>Node2&#45;&gt;Node1</title>
<path fill="none" stroke="midnightblue" d="M623.28,-26.5C631.66,-26.5 640.18,-26.5 648.68,-26.5"/>
<polygon fill="midnightblue" stroke="midnightblue" points="623.14,-23 613.14,-26.5 623.14,-30 623.14,-23"/>
</g>
<!-- Node3 -->
<g id="node3" class="node">
<title>Node3</title>
<g id="a_node3"><a xlink:href="classitk_1_1BinaryImageToLevelSetImageAdaptorBase.html" target="_top" xlink:title=" ">
<polygon fill="white" stroke="black" points="230,-0.5 230,-52.5 392,-52.5 392,-0.5 230,-0.5"/>
<text text-anchor="start" x="238" y="-40.5" font-family="Helvetica,sans-Serif" font-size="10.00">itk::BinaryImageToLevelSet</text>
<text text-anchor="start" x="238" y="-29.5" font-family="Helvetica,sans-Serif" font-size="10.00">ImageAdaptorBase&lt; TInput,</text>
<text text-anchor="start" x="238" y="-18.5" font-family="Helvetica,sans-Serif" font-size="10.00"> ShiSparseLevelSetImage&lt;</text>
<text text-anchor="middle" x="311" y="-7.5" font-family="Helvetica,sans-Serif" font-size="10.00"> TInput::ImageDimension &gt; &gt;</text>
</a>
</g>
</g>
<!-- Node3&#45;&gt;Node2 -->
<g id="edge2" class="edge">
<title>Node3&#45;&gt;Node2</title>
<path fill="none" stroke="midnightblue" d="M402.4,-26.5C410.81,-26.5 419.33,-26.5 427.74,-26.5"/>
<polygon fill="midnightblue" stroke="midnightblue" points="402.22,-23 392.22,-26.5 402.22,-30 402.22,-23"/>
</g>
<!-- Node4 -->
<g id="node4" class="node">
<title>Node4</title>
<g id="a_node4"><a xlink:href="classitk_1_1Object.html" target="_top" xlink:title="Base class for most ITK classes.">
<polygon fill="white" stroke="black" points="127,-17 127,-36 194,-36 194,-17 127,-17"/>
<text text-anchor="middle" x="160.5" y="-24" font-family="Helvetica,sans-Serif" font-size="10.00">itk::Object</text>
</a>
</g>
</g>
<!-- Node4&#45;&gt;Node3 -->
<g id="edge3" class="edge">
<title>Node4&#45;&gt;Node3</title>
<path fill="none" stroke="midnightblue" d="M204.28,-26.5C212.32,-26.5 220.97,-26.5 229.73,-26.5"/>
<polygon fill="midnightblue" stroke="midnightblue" points="204.09,-23 194.09,-26.5 204.09,-30 204.09,-23"/>
</g>
<!-- Node5 -->
<g id="node5" class="node">
<title>Node5</title>
<g id="a_node5"><a xlink:href="classitk_1_1LightObject.html" target="_top" xlink:title="Light weight base class for most itk classes.">
<polygon fill="white" stroke="black" points="0,-17 0,-36 91,-36 91,-17 0,-17"/>
<text text-anchor="middle" x="45.5" y="-24" font-family="Helvetica,sans-Serif" font-size="10.00">itk::LightObject</text>
</a>
</g>
</g>
<!-- Node5&#45;&gt;Node4 -->
<g id="edge4" class="edge">
<title>Node5&#45;&gt;Node4</title>
<path fill="none" stroke="midnightblue" d="M101.28,-26.5C109.96,-26.5 118.69,-26.5 126.66,-26.5"/>
<polygon fill="midnightblue" stroke="midnightblue" points="101.16,-23 91.16,-26.5 101.16,-30 101.16,-23"/>
</g>
</g>
</svg>
