<?xml version="1.0" encoding="UTF-8" standalone="no"?>
<!DOCTYPE svg PUBLIC "-//W3C//DTD SVG 1.1//EN"
 "http://www.w3.org/Graphics/SVG/1.1/DTD/svg11.dtd">
<!-- Generated by graphviz version 2.43.0 (0)
 -->
<!-- Title: itk::LaplacianDeformationQuadEdgeMeshFilterWithSoftConstraints&lt; TInputMesh, TOutputMesh, TSolverTraits &gt; Pages: 1 -->
<svg width="2592pt" height="537pt"
 viewBox="0.00 0.00 2592.00 536.50" xmlns="http://www.w3.org/2000/svg" xmlns:xlink="http://www.w3.org/1999/xlink">
<g id="graph0" class="graph" transform="scale(1 1) rotate(0) translate(4 532.5)">
<title>itk::LaplacianDeformationQuadEdgeMeshFilterWithSoftConstraints&lt; TInputMesh, TOutputMesh, TSolverTraits &gt;</title>
<polygon fill="white" stroke="transparent" points="-4,4 -4,-532.5 2588,-532.5 2588,4 -4,4"/>
<!-- Node1 -->
<g id="node1" class="node">
<title>Node1</title>
<g id="a_node1"><a xlink:title="Laplacian deformation with soft constraints (approximating displacement for handle points).">
<polygon fill="#bfbfbf" stroke="black" points="2348,-39.5 2348,-80.5 2584,-80.5 2584,-39.5 2348,-39.5"/>
<text text-anchor="start" x="2356" y="-68.5" font-family="Helvetica,sans-Serif" font-size="10.00">itk::LaplacianDeformation</text>
<text text-anchor="start" x="2356" y="-57.5" font-family="Helvetica,sans-Serif" font-size="10.00">QuadEdgeMeshFilterWithSoftConstraints</text>
<text text-anchor="middle" x="2466" y="-46.5" font-family="Helvetica,sans-Serif" font-size="10.00">&lt; TInputMesh, TOutputMesh, TSolverTraits &gt;</text>
</a>
</g>
</g>
<!-- Node2 -->
<g id="node2" class="node">
<title>Node2</title>
<g id="a_node2"><a xlink:href="classitk_1_1LaplacianDeformationQuadEdgeMeshFilter.html" target="_top" xlink:title="(abstract) base class for laplacian surface mesh deformation.">
<polygon fill="white" stroke="black" points="2123,-132.5 2123,-173.5 2311,-173.5 2311,-132.5 2123,-132.5"/>
<text text-anchor="start" x="2131" y="-161.5" font-family="Helvetica,sans-Serif" font-size="10.00">itk::LaplacianDeformation</text>
<text text-anchor="start" x="2131" y="-150.5" font-family="Helvetica,sans-Serif" font-size="10.00">QuadEdgeMeshFilter&lt; TInputMesh,</text>
<text text-anchor="middle" x="2217" y="-139.5" font-family="Helvetica,sans-Serif" font-size="10.00"> TOutputMesh, TSolverTraits &gt;</text>
</a>
</g>
</g>
<!-- Node2&#45;&gt;Node1 -->
<g id="edge1" class="edge">
<title>Node2&#45;&gt;Node1</title>
<path fill="none" stroke="midnightblue" d="M2282.11,-128.86C2321.84,-113.9 2372.34,-94.89 2410.2,-80.63"/>
<polygon fill="midnightblue" stroke="midnightblue" points="2280.64,-125.68 2272.51,-132.48 2283.1,-132.23 2280.64,-125.68"/>
</g>
<!-- Node3 -->
<g id="node3" class="node">
<title>Node3</title>
<g id="a_node3"><a xlink:href="classitk_1_1QuadEdgeMeshToQuadEdgeMeshFilter.html" target="_top" xlink:title="Duplicates the content of a Mesh.">
<polygon fill="white" stroke="black" points="1803,-252.5 1803,-293.5 1974,-293.5 1974,-252.5 1803,-252.5"/>
<text text-anchor="start" x="1811" y="-281.5" font-family="Helvetica,sans-Serif" font-size="10.00">itk::QuadEdgeMeshToQuadEdge</text>
<text text-anchor="start" x="1811" y="-270.5" font-family="Helvetica,sans-Serif" font-size="10.00">MeshFilter&lt; TInputMesh,</text>
<text text-anchor="middle" x="1888.5" y="-259.5" font-family="Helvetica,sans-Serif" font-size="10.00"> TOutputMesh &gt;</text>
</a>
</g>
</g>
<!-- Node3&#45;&gt;Node2 -->
<g id="edge2" class="edge">
<title>Node3&#45;&gt;Node2</title>
<path fill="none" stroke="midnightblue" d="M1978.7,-249.71C2017.96,-238.55 2064.3,-224.09 2105,-208 2130.1,-198.08 2157.27,-184.66 2178.44,-173.57"/>
<polygon fill="midnightblue" stroke="midnightblue" points="1977.56,-246.4 1968.89,-252.48 1979.46,-253.14 1977.56,-246.4"/>
</g>
<!-- Node4 -->
<g id="node4" class="node">
<title>Node4</title>
<g id="a_node4"><a xlink:href="classitk_1_1MeshToMeshFilter.html" target="_top" xlink:title="MeshToMeshFilter is the base class for all process objects that output mesh data, and require mesh da...">
<polygon fill="white" stroke="black" points="1599,-258 1599,-288 1766,-288 1766,-258 1599,-258"/>
<text text-anchor="start" x="1607" y="-276" font-family="Helvetica,sans-Serif" font-size="10.00">itk::MeshToMeshFilter</text>
<text text-anchor="middle" x="1682.5" y="-265" font-family="Helvetica,sans-Serif" font-size="10.00">&lt; TInputMesh, TOutputMesh &gt;</text>
</a>
</g>
</g>
<!-- Node4&#45;&gt;Node3 -->
<g id="edge3" class="edge">
<title>Node4&#45;&gt;Node3</title>
<path fill="none" stroke="midnightblue" d="M1776.41,-273C1785.17,-273 1794.03,-273 1802.71,-273"/>
<polygon fill="midnightblue" stroke="midnightblue" points="1776.18,-269.5 1766.18,-273 1776.18,-276.5 1776.18,-269.5"/>
</g>
<!-- Node5 -->
<g id="node5" class="node">
<title>Node5</title>
<g id="a_node5"><a xlink:href="classitk_1_1MeshSource.html" target="_top" xlink:title="Base class for all process objects that output mesh data.">
<polygon fill="white" stroke="black" points="1417,-258 1417,-288 1562,-288 1562,-258 1417,-258"/>
<text text-anchor="start" x="1425" y="-276" font-family="Helvetica,sans-Serif" font-size="10.00">itk::MeshSource&lt; TOutput</text>
<text text-anchor="middle" x="1489.5" y="-265" font-family="Helvetica,sans-Serif" font-size="10.00">Mesh &gt;</text>
</a>
</g>
</g>
<!-- Node5&#45;&gt;Node4 -->
<g id="edge4" class="edge">
<title>Node5&#45;&gt;Node4</title>
<path fill="none" stroke="midnightblue" d="M1572.37,-273C1581.13,-273 1590.05,-273 1598.83,-273"/>
<polygon fill="midnightblue" stroke="midnightblue" points="1572.16,-269.5 1562.16,-273 1572.16,-276.5 1572.16,-269.5"/>
</g>
<!-- Node6 -->
<g id="node6" class="node">
<title>Node6</title>
<g id="a_node6"><a xlink:href="classitk_1_1ProcessObject.html" target="_top" xlink:title="The base class for all process objects (source, filters, mappers) in the Insight data processing pipe...">
<polygon fill="white" stroke="black" points="1276,-263.5 1276,-282.5 1380,-282.5 1380,-263.5 1276,-263.5"/>
<text text-anchor="middle" x="1328" y="-270.5" font-family="Helvetica,sans-Serif" font-size="10.00">itk::ProcessObject</text>
</a>
</g>
</g>
<!-- Node6&#45;&gt;Node5 -->
<g id="edge5" class="edge">
<title>Node6&#45;&gt;Node5</title>
<path fill="none" stroke="midnightblue" d="M1390.37,-273C1399.06,-273 1408.06,-273 1416.91,-273"/>
<polygon fill="midnightblue" stroke="midnightblue" points="1390.34,-269.5 1380.34,-273 1390.34,-276.5 1390.34,-269.5"/>
</g>
<!-- Node7 -->
<g id="node7" class="node">
<title>Node7</title>
<g id="a_node7"><a xlink:href="classitk_1_1Object.html" target="_top" xlink:title="Base class for most ITK classes.">
<polygon fill="white" stroke="black" points="980,-299.5 980,-318.5 1047,-318.5 1047,-299.5 980,-299.5"/>
<text text-anchor="middle" x="1013.5" y="-306.5" font-family="Helvetica,sans-Serif" font-size="10.00">itk::Object</text>
</a>
</g>
</g>
<!-- Node7&#45;&gt;Node6 -->
<g id="edge6" class="edge">
<title>Node7&#45;&gt;Node6</title>
<path fill="none" stroke="midnightblue" d="M1057.17,-304.08C1114.17,-297.52 1215.03,-285.9 1275.98,-278.88"/>
<polygon fill="midnightblue" stroke="midnightblue" points="1056.59,-300.63 1047.06,-305.25 1057.39,-307.58 1056.59,-300.63"/>
</g>
<!-- Node8 -->
<g id="node8" class="node">
<title>Node8</title>
<g id="a_node8"><a xlink:href="classitk_1_1LightObject.html" target="_top" xlink:title="Light weight base class for most itk classes.">
<polygon fill="white" stroke="black" points="659,-253.5 659,-272.5 750,-272.5 750,-253.5 659,-253.5"/>
<text text-anchor="middle" x="704.5" y="-260.5" font-family="Helvetica,sans-Serif" font-size="10.00">itk::LightObject</text>
</a>
</g>
</g>
<!-- Node8&#45;&gt;Node7 -->
<g id="edge7" class="edge">
<title>Node8&#45;&gt;Node7</title>
<path fill="none" stroke="midnightblue" d="M760.4,-271.23C824.13,-280.78 927.17,-296.21 979.59,-304.07"/>
<polygon fill="midnightblue" stroke="midnightblue" points="760.55,-267.71 750.14,-269.69 759.51,-274.63 760.55,-267.71"/>
</g>
<!-- Node9 -->
<g id="node9" class="node">
<title>Node9</title>
<g id="a_node9"><a xlink:title=" ">
<polygon fill="white" stroke="#bfbfbf" points="372,-249.5 372,-268.5 479,-268.5 479,-249.5 372,-249.5"/>
<text text-anchor="middle" x="425.5" y="-256.5" font-family="Helvetica,sans-Serif" font-size="10.00">std::atomic&lt; int &gt;</text>
</a>
</g>
</g>
<!-- Node9&#45;&gt;Node8 -->
<g id="edge8" class="edge">
<title>Node9&#45;&gt;Node8</title>
<path fill="none" stroke="#9a32cd" stroke-dasharray="5,2" d="M489.29,-259.91C540.91,-260.65 612.77,-261.69 658.72,-262.35"/>
<polygon fill="#9a32cd" stroke="#9a32cd" points="489.3,-256.41 479.25,-259.76 489.2,-263.41 489.3,-256.41"/>
<text text-anchor="middle" x="566.5" y="-264" font-family="Helvetica,sans-Serif" font-size="10.00"> m_ReferenceCount</text>
</g>
<!-- Node10 -->
<g id="node10" class="node">
<title>Node10</title>
<g id="a_node10"><a xlink:title="STL class.">
<polygon fill="white" stroke="#bfbfbf" points="672,-418.5 672,-437.5 737,-437.5 737,-418.5 672,-418.5"/>
<text text-anchor="middle" x="704.5" y="-425.5" font-family="Helvetica,sans-Serif" font-size="10.00">std::string</text>
</a>
</g>
</g>
<!-- Node10&#45;&gt;Node7 -->
<g id="edge9" class="edge">
<title>Node10&#45;&gt;Node7</title>
<path fill="none" stroke="#9a32cd" stroke-dasharray="5,2" d="M727.23,-412.69C744.58,-401.1 769.89,-385.6 794,-376 843.58,-356.25 862.41,-371.06 911,-349 919.99,-344.92 920.2,-340.46 929,-336 945.04,-327.87 964.03,-321.5 979.85,-316.99"/>
<polygon fill="#9a32cd" stroke="#9a32cd" points="725.22,-409.82 718.93,-418.34 729.16,-415.6 725.22,-409.82"/>
<text text-anchor="middle" x="852.5" y="-379" font-family="Helvetica,sans-Serif" font-size="10.00"> m_ObjectName</text>
</g>
<!-- Node19 -->
<g id="node19" class="node">
<title>Node19</title>
<g id="a_node19"><a xlink:title=" ">
<polygon fill="white" stroke="#bfbfbf" points="932.5,-408 932.5,-438 1094.5,-438 1094.5,-408 932.5,-408"/>
<text text-anchor="start" x="940.5" y="-426" font-family="Helvetica,sans-Serif" font-size="10.00">std::set&lt; DataObjectIdentifier</text>
<text text-anchor="middle" x="1013.5" y="-415" font-family="Helvetica,sans-Serif" font-size="10.00">Type &gt;</text>
</a>
</g>
</g>
<!-- Node10&#45;&gt;Node19 -->
<g id="edge20" class="edge">
<title>Node10&#45;&gt;Node19</title>
<path fill="none" stroke="#9a32cd" stroke-dasharray="5,2" d="M747.4,-427.32C794.8,-426.55 873.1,-425.27 932.35,-424.31"/>
<polygon fill="#9a32cd" stroke="#9a32cd" points="747.14,-423.82 737.2,-427.48 747.25,-430.82 747.14,-423.82"/>
<text text-anchor="middle" x="852.5" y="-429" font-family="Helvetica,sans-Serif" font-size="10.00"> keys</text>
</g>
<!-- Node20 -->
<g id="node20" class="node">
<title>Node20</title>
<g id="a_node20"><a xlink:title=" ">
<polygon fill="white" stroke="#bfbfbf" points="929,-345 929,-375 1098,-375 1098,-345 929,-345"/>
<text text-anchor="start" x="937" y="-363" font-family="Helvetica,sans-Serif" font-size="10.00">std::map&lt; DataObjectIdentifier</text>
<text text-anchor="middle" x="1013.5" y="-352" font-family="Helvetica,sans-Serif" font-size="10.00">Type, bool &gt;</text>
</a>
</g>
</g>
<!-- Node10&#45;&gt;Node20 -->
<g id="edge22" class="edge">
<title>Node10&#45;&gt;Node20</title>
<path fill="none" stroke="#9a32cd" stroke-dasharray="5,2" d="M746.91,-419.37C761.75,-416.33 778.61,-412.95 794,-410 845.89,-400.07 859.54,-400.94 911,-389 928.32,-384.98 947.08,-379.85 963.71,-375.02"/>
<polygon fill="#9a32cd" stroke="#9a32cd" points="746.09,-415.97 737,-421.41 747.5,-422.82 746.09,-415.97"/>
<text text-anchor="middle" x="852.5" y="-413" font-family="Helvetica,sans-Serif" font-size="10.00"> keys</text>
</g>
<!-- Node25 -->
<g id="node25" class="node">
<title>Node25</title>
<g id="a_node25"><a xlink:title=" ">
<polygon fill="white" stroke="#bfbfbf" points="929,-464 929,-494 1098,-494 1098,-464 929,-464"/>
<text text-anchor="start" x="937" y="-482" font-family="Helvetica,sans-Serif" font-size="10.00">std::map&lt; DataObjectIdentifier</text>
<text text-anchor="middle" x="1013.5" y="-471" font-family="Helvetica,sans-Serif" font-size="10.00">Type, DataObjectPointer &gt;</text>
</a>
</g>
</g>
<!-- Node10&#45;&gt;Node25 -->
<g id="edge29" class="edge">
<title>Node10&#45;&gt;Node25</title>
<path fill="none" stroke="#9a32cd" stroke-dasharray="5,2" d="M747.2,-434.93C793.65,-442.64 869.92,-455.31 928.8,-465.09"/>
<polygon fill="#9a32cd" stroke="#9a32cd" points="747.64,-431.45 737.2,-433.27 746.49,-438.36 747.64,-431.45"/>
<text text-anchor="middle" x="852.5" y="-464" font-family="Helvetica,sans-Serif" font-size="10.00"> keys</text>
</g>
<!-- Node11 -->
<g id="node11" class="node">
<title>Node11</title>
<g id="a_node11"><a xlink:title="STL class.">
<polygon fill="white" stroke="#bfbfbf" points="373.5,-413 373.5,-443 477.5,-443 477.5,-413 373.5,-413"/>
<text text-anchor="start" x="381.5" y="-431" font-family="Helvetica,sans-Serif" font-size="10.00">std::basic_string&lt;</text>
<text text-anchor="middle" x="425.5" y="-420" font-family="Helvetica,sans-Serif" font-size="10.00"> char &gt;</text>
</a>
</g>
</g>
<!-- Node11&#45;&gt;Node10 -->
<g id="edge10" class="edge">
<title>Node11&#45;&gt;Node10</title>
<path fill="none" stroke="midnightblue" d="M487.93,-428C544.75,-428 626.97,-428 671.66,-428"/>
<polygon fill="midnightblue" stroke="midnightblue" points="487.63,-424.5 477.63,-428 487.63,-431.5 487.63,-424.5"/>
</g>
<!-- Node12 -->
<g id="node12" class="node">
<title>Node12</title>
<g id="a_node12"><a xlink:href="classitk_1_1MetaDataDictionary.html" target="_top" xlink:title="Provides a mechanism for storing a collection of arbitrary data types.">
<polygon fill="white" stroke="black" points="637.5,-335.5 637.5,-354.5 771.5,-354.5 771.5,-335.5 637.5,-335.5"/>
<text text-anchor="middle" x="704.5" y="-342.5" font-family="Helvetica,sans-Serif" font-size="10.00">itk::MetaDataDictionary</text>
</a>
</g>
</g>
<!-- Node12&#45;&gt;Node7 -->
<g id="edge11" class="edge">
<title>Node12&#45;&gt;Node7</title>
<path fill="none" stroke="#9a32cd" stroke-dasharray="5,2" d="M781.82,-336.11C820.53,-331.6 868.26,-326.02 911,-321 933.91,-318.31 959.73,-315.26 979.59,-312.9"/>
<polygon fill="#9a32cd" stroke="#9a32cd" points="781.2,-332.66 771.67,-337.3 782.01,-339.61 781.2,-332.66"/>
<text text-anchor="middle" x="852.5" y="-337" font-family="Helvetica,sans-Serif" font-size="10.00"> m_MetaDataDictionary</text>
</g>
<!-- Node13 -->
<g id="node13" class="node">
<title>Node13</title>
<g id="a_node13"><a xlink:title=" ">
<polygon fill="white" stroke="#bfbfbf" points="351,-335 351,-365 500,-365 500,-335 351,-335"/>
<text text-anchor="start" x="359" y="-353" font-family="Helvetica,sans-Serif" font-size="10.00">std::shared_ptr&lt; MetaData</text>
<text text-anchor="middle" x="425.5" y="-342" font-family="Helvetica,sans-Serif" font-size="10.00">DictionaryMapType &gt;</text>
</a>
</g>
</g>
<!-- Node13&#45;&gt;Node12 -->
<g id="edge12" class="edge">
<title>Node13&#45;&gt;Node12</title>
<path fill="none" stroke="#9a32cd" stroke-dasharray="5,2" d="M510.18,-348.49C550.89,-347.75 599.13,-346.88 637.24,-346.2"/>
<polygon fill="#9a32cd" stroke="#9a32cd" points="509.94,-344.99 500,-348.67 510.07,-351.99 509.94,-344.99"/>
<text text-anchor="middle" x="566.5" y="-351" font-family="Helvetica,sans-Serif" font-size="10.00"> m_Dictionary</text>
</g>
<!-- Node14 -->
<g id="node14" class="node">
<title>Node14</title>
<g id="a_node14"><a xlink:title="STL class.">
<polygon fill="white" stroke="#bfbfbf" points="114,-340.5 114,-359.5 215,-359.5 215,-340.5 114,-340.5"/>
<text text-anchor="middle" x="164.5" y="-347.5" font-family="Helvetica,sans-Serif" font-size="10.00">std::map&lt; K, T &gt;</text>
</a>
</g>
</g>
<!-- Node14&#45;&gt;Node13 -->
<g id="edge13" class="edge">
<title>Node14&#45;&gt;Node13</title>
<path fill="none" stroke="#9a32cd" stroke-dasharray="5,2" d="M225.34,-350C262.61,-350 310.86,-350 350.52,-350"/>
<polygon fill="#9a32cd" stroke="#9a32cd" points="225.13,-346.5 215.13,-350 225.13,-353.5 225.13,-346.5"/>
<text text-anchor="middle" x="283" y="-353" font-family="Helvetica,sans-Serif" font-size="10.00"> ptr</text>
</g>
<!-- Node15 -->
<g id="node15" class="node">
<title>Node15</title>
<g id="a_node15"><a xlink:title=" ">
<polygon fill="white" stroke="#bfbfbf" points="0,-363.5 0,-382.5 29,-382.5 29,-363.5 0,-363.5"/>
<text text-anchor="middle" x="14.5" y="-370.5" font-family="Helvetica,sans-Serif" font-size="10.00">K</text>
</a>
</g>
</g>
<!-- Node15&#45;&gt;Node14 -->
<g id="edge14" class="edge">
<title>Node15&#45;&gt;Node14</title>
<path fill="none" stroke="#9a32cd" stroke-dasharray="5,2" d="M39.24,-369.31C59.28,-366.2 88.63,-361.63 113.78,-357.73"/>
<polygon fill="#9a32cd" stroke="#9a32cd" points="38.5,-365.88 29.16,-370.88 39.58,-372.8 38.5,-365.88"/>
<text text-anchor="middle" x="71.5" y="-371" font-family="Helvetica,sans-Serif" font-size="10.00"> keys</text>
</g>
<!-- Node16 -->
<g id="node16" class="node">
<title>Node16</title>
<g id="a_node16"><a xlink:title=" ">
<polygon fill="white" stroke="#bfbfbf" points="0,-310.5 0,-329.5 29,-329.5 29,-310.5 0,-310.5"/>
<text text-anchor="middle" x="14.5" y="-317.5" font-family="Helvetica,sans-Serif" font-size="10.00">T</text>
</a>
</g>
</g>
<!-- Node16&#45;&gt;Node14 -->
<g id="edge15" class="edge">
<title>Node16&#45;&gt;Node14</title>
<path fill="none" stroke="#9a32cd" stroke-dasharray="5,2" d="M39.01,-324.76C59.76,-328.97 90.63,-335.23 116.44,-340.46"/>
<polygon fill="#9a32cd" stroke="#9a32cd" points="39.65,-321.33 29.16,-322.77 38.26,-328.19 39.65,-321.33"/>
<text text-anchor="middle" x="71.5" y="-338" font-family="Helvetica,sans-Serif" font-size="10.00"> elements</text>
</g>
<!-- Node18 -->
<g id="node18" class="node">
<title>Node18</title>
<g id="a_node18"><a xlink:title="STL class.">
<polygon fill="white" stroke="#bfbfbf" points="233,-295.5 233,-314.5 333,-314.5 333,-295.5 233,-295.5"/>
<text text-anchor="middle" x="283" y="-302.5" font-family="Helvetica,sans-Serif" font-size="10.00">std::atomic&lt; T &gt;</text>
</a>
</g>
</g>
<!-- Node16&#45;&gt;Node18 -->
<g id="edge18" class="edge">
<title>Node16&#45;&gt;Node18</title>
<path fill="none" stroke="#9a32cd" stroke-dasharray="5,2" d="M39.03,-312.58C41.7,-311.95 44.39,-311.4 47,-311 110.54,-301.27 184.85,-301.24 232.62,-302.66"/>
<polygon fill="#9a32cd" stroke="#9a32cd" points="37.85,-309.27 29.13,-315.29 39.7,-316.03 37.85,-309.27"/>
<text text-anchor="middle" x="71.5" y="-314" font-family="Helvetica,sans-Serif" font-size="10.00"> ptr</text>
</g>
<!-- Node17 -->
<g id="node17" class="node">
<title>Node17</title>
<g id="a_node17"><a xlink:href="classitk_1_1TimeStamp.html" target="_top" xlink:title="Generate a unique, increasing time value.">
<polygon fill="white" stroke="black" points="658.5,-295.5 658.5,-314.5 750.5,-314.5 750.5,-295.5 658.5,-295.5"/>
<text text-anchor="middle" x="704.5" y="-302.5" font-family="Helvetica,sans-Serif" font-size="10.00">itk::TimeStamp</text>
</a>
</g>
</g>
<!-- Node17&#45;&gt;Node6 -->
<g id="edge31" class="edge">
<title>Node17&#45;&gt;Node6</title>
<path fill="none" stroke="#9a32cd" stroke-dasharray="5,2" d="M760.92,-296.98C806.06,-290.83 871.5,-282.77 929,-279 1053.3,-270.85 1199.87,-271.2 1275.73,-272.13"/>
<polygon fill="#9a32cd" stroke="#9a32cd" points="760.18,-293.55 750.75,-298.38 761.14,-300.48 760.18,-293.55"/>
<text text-anchor="middle" x="1013.5" y="-282" font-family="Helvetica,sans-Serif" font-size="10.00"> m_OutputInformationMTime</text>
</g>
<!-- Node17&#45;&gt;Node7 -->
<g id="edge16" class="edge">
<title>Node17&#45;&gt;Node7</title>
<path fill="none" stroke="#9a32cd" stroke-dasharray="5,2" d="M761.09,-305.72C824.93,-306.56 927.56,-307.89 979.75,-308.57"/>
<polygon fill="#9a32cd" stroke="#9a32cd" points="760.84,-302.22 750.8,-305.59 760.75,-309.22 760.84,-302.22"/>
<text text-anchor="middle" x="852.5" y="-310" font-family="Helvetica,sans-Serif" font-size="10.00"> m_MTime</text>
</g>
<!-- Node18&#45;&gt;Node17 -->
<g id="edge17" class="edge">
<title>Node18&#45;&gt;Node17</title>
<path fill="none" stroke="#9a32cd" stroke-dasharray="5,2" d="M343.61,-305C428.52,-305 582.42,-305 658.48,-305"/>
<polygon fill="#9a32cd" stroke="#9a32cd" points="343.36,-301.5 333.36,-305 343.36,-308.5 343.36,-301.5"/>
<text text-anchor="middle" x="425.5" y="-308" font-family="Helvetica,sans-Serif" font-size="10.00"> m_GlobalTimeStamp</text>
</g>
<!-- Node19&#45;&gt;Node6 -->
<g id="edge19" class="edge">
<title>Node19&#45;&gt;Node6</title>
<path fill="none" stroke="#9a32cd" stroke-dasharray="5,2" d="M1104.73,-416.4C1153.36,-409.35 1212.54,-394.82 1258,-365 1290.55,-343.65 1313.55,-301.44 1322.66,-282.54"/>
<polygon fill="#9a32cd" stroke="#9a32cd" points="1103.95,-412.98 1094.52,-417.8 1104.9,-419.91 1103.95,-412.98"/>
<text text-anchor="middle" x="1187" y="-417" font-family="Helvetica,sans-Serif" font-size="10.00"> m_RequiredInputNames</text>
</g>
<!-- Node20&#45;&gt;Node6 -->
<g id="edge21" class="edge">
<title>Node20&#45;&gt;Node6</title>
<path fill="none" stroke="#9a32cd" stroke-dasharray="5,2" d="M1105.03,-342.87C1151.34,-333.09 1208.28,-319.48 1258,-303 1275.11,-297.33 1293.82,-289.05 1307.44,-282.63"/>
<polygon fill="#9a32cd" stroke="#9a32cd" points="1104.09,-339.49 1095.01,-344.96 1105.52,-346.34 1104.09,-339.49"/>
<text text-anchor="start" x="1116" y="-353" font-family="Helvetica,sans-Serif" font-size="10.00"> m_CachedInputReleaseData</text>
<text text-anchor="middle" x="1187" y="-342" font-family="Helvetica,sans-Serif" font-size="10.00">Flags</text>
</g>
<!-- Node21 -->
<g id="node21" class="node">
<title>Node21</title>
<g id="a_node21"><a xlink:title=" ">
<polygon fill="white" stroke="#bfbfbf" points="946.5,-205.5 946.5,-224.5 1080.5,-224.5 1080.5,-205.5 946.5,-205.5"/>
<text text-anchor="middle" x="1013.5" y="-212.5" font-family="Helvetica,sans-Serif" font-size="10.00">std::atomic&lt; uint32_t &gt;</text>
</a>
</g>
</g>
<!-- Node21&#45;&gt;Node6 -->
<g id="edge23" class="edge">
<title>Node21&#45;&gt;Node6</title>
<path fill="none" stroke="#9a32cd" stroke-dasharray="5,2" d="M1090.85,-213.72C1139.59,-214.82 1203.61,-219.82 1258,-236 1278.45,-242.08 1299.77,-254.62 1313.2,-263.41"/>
<polygon fill="#9a32cd" stroke="#9a32cd" points="1090.75,-210.22 1080.69,-213.55 1090.63,-217.22 1090.75,-210.22"/>
<text text-anchor="middle" x="1187" y="-239" font-family="Helvetica,sans-Serif" font-size="10.00"> m_Progress</text>
</g>
<!-- Node22 -->
<g id="node22" class="node">
<title>Node22</title>
<g id="a_node22"><a xlink:title=" ">
<polygon fill="white" stroke="#bfbfbf" points="676.5,-205.5 676.5,-224.5 732.5,-224.5 732.5,-205.5 676.5,-205.5"/>
<text text-anchor="middle" x="704.5" y="-212.5" font-family="Helvetica,sans-Serif" font-size="10.00">uint32_t</text>
</a>
</g>
</g>
<!-- Node22&#45;&gt;Node21 -->
<g id="edge24" class="edge">
<title>Node22&#45;&gt;Node21</title>
<path fill="none" stroke="#9a32cd" stroke-dasharray="5,2" d="M742.88,-215C793.35,-215 884.11,-215 946.28,-215"/>
<polygon fill="#9a32cd" stroke="#9a32cd" points="742.74,-211.5 732.74,-215 742.74,-218.5 742.74,-211.5"/>
<text text-anchor="middle" x="852.5" y="-218" font-family="Helvetica,sans-Serif" font-size="10.00"> ptr</text>
</g>
<!-- Node23 -->
<g id="node23" class="node">
<title>Node23</title>
<g id="a_node23"><a xlink:title=" ">
<polygon fill="white" stroke="#bfbfbf" points="929,-156 929,-186 1098,-186 1098,-156 929,-156"/>
<text text-anchor="start" x="937" y="-174" font-family="Helvetica,sans-Serif" font-size="10.00">std::vector&lt; DataObjectPointer</text>
<text text-anchor="middle" x="1013.5" y="-163" font-family="Helvetica,sans-Serif" font-size="10.00">Map::iterator &gt;</text>
</a>
</g>
</g>
<!-- Node23&#45;&gt;Node6 -->
<g id="edge25" class="edge">
<title>Node23&#45;&gt;Node6</title>
<path fill="none" stroke="#9a32cd" stroke-dasharray="5,2" d="M1108.41,-160.46C1155.73,-159.27 1212.55,-164.38 1258,-188 1290.72,-205.01 1313.47,-245.05 1322.58,-263.45"/>
<polygon fill="#9a32cd" stroke="#9a32cd" points="1108.03,-156.98 1098.16,-160.82 1108.27,-163.97 1108.03,-156.98"/>
<text text-anchor="middle" x="1187" y="-202" font-family="Helvetica,sans-Serif" font-size="10.00"> m_IndexedOutputs</text>
<text text-anchor="middle" x="1187" y="-191" font-family="Helvetica,sans-Serif" font-size="10.00">m_IndexedInputs</text>
</g>
<!-- Node24 -->
<g id="node24" class="node">
<title>Node24</title>
<g id="a_node24"><a xlink:title="STL iterator class.">
<polygon fill="white" stroke="#bfbfbf" points="633,-161.5 633,-180.5 776,-180.5 776,-161.5 633,-161.5"/>
<text text-anchor="middle" x="704.5" y="-168.5" font-family="Helvetica,sans-Serif" font-size="10.00">std::map&lt; K, T &gt;::iterator</text>
</a>
</g>
</g>
<!-- Node24&#45;&gt;Node23 -->
<g id="edge26" class="edge">
<title>Node24&#45;&gt;Node23</title>
<path fill="none" stroke="#9a32cd" stroke-dasharray="5,2" d="M786.39,-171C830.34,-171 884.61,-171 928.97,-171"/>
<polygon fill="#9a32cd" stroke="#9a32cd" points="786.32,-167.5 776.32,-171 786.32,-174.5 786.32,-167.5"/>
<text text-anchor="middle" x="852.5" y="-174" font-family="Helvetica,sans-Serif" font-size="10.00"> elements</text>
</g>
<!-- Node25&#45;&gt;Node6 -->
<g id="edge27" class="edge">
<title>Node25&#45;&gt;Node6</title>
<path fill="none" stroke="#9a32cd" stroke-dasharray="5,2" d="M1108.22,-479.66C1157.5,-475.45 1216.19,-462.7 1258,-429 1306.42,-389.97 1321.83,-310 1325.81,-282.52"/>
<polygon fill="#9a32cd" stroke="#9a32cd" points="1107.88,-476.17 1098.17,-480.41 1108.41,-483.15 1107.88,-476.17"/>
<text text-anchor="middle" x="1187" y="-492" font-family="Helvetica,sans-Serif" font-size="10.00"> m_Outputs</text>
<text text-anchor="middle" x="1187" y="-481" font-family="Helvetica,sans-Serif" font-size="10.00">m_Inputs</text>
</g>
<!-- Node26 -->
<g id="node26" class="node">
<title>Node26</title>
<g id="a_node26"><a xlink:href="classitk_1_1SmartPointer.html" target="_top" xlink:title=" ">
<polygon fill="white" stroke="black" points="651,-498 651,-528 758,-528 758,-498 651,-498"/>
<text text-anchor="start" x="659" y="-516" font-family="Helvetica,sans-Serif" font-size="10.00">itk::SmartPointer&lt;</text>
<text text-anchor="middle" x="704.5" y="-505" font-family="Helvetica,sans-Serif" font-size="10.00"> Self &gt;</text>
</a>
</g>
</g>
<!-- Node26&#45;&gt;Node25 -->
<g id="edge28" class="edge">
<title>Node26&#45;&gt;Node25</title>
<path fill="none" stroke="#9a32cd" stroke-dasharray="5,2" d="M768.36,-506.45C809.05,-502.17 863.17,-496.39 911,-491 916.82,-490.34 922.82,-489.66 928.87,-488.96"/>
<polygon fill="#9a32cd" stroke="#9a32cd" points="767.89,-502.98 758.31,-507.51 768.62,-509.94 767.89,-502.98"/>
<text text-anchor="middle" x="852.5" y="-506" font-family="Helvetica,sans-Serif" font-size="10.00"> elements</text>
</g>
<!-- Node27 -->
<g id="node27" class="node">
<title>Node27</title>
<g id="a_node27"><a xlink:href="classitk_1_1SmartPointer.html" target="_top" xlink:title=" ">
<polygon fill="white" stroke="black" points="942.5,-107 942.5,-137 1084.5,-137 1084.5,-107 942.5,-107"/>
<text text-anchor="start" x="950.5" y="-125" font-family="Helvetica,sans-Serif" font-size="10.00">itk::SmartPointer&lt;</text>
<text text-anchor="middle" x="1013.5" y="-114" font-family="Helvetica,sans-Serif" font-size="10.00"> itk::MultiThreaderBase &gt;</text>
</a>
</g>
</g>
<!-- Node27&#45;&gt;Node6 -->
<g id="edge30" class="edge">
<title>Node27&#45;&gt;Node6</title>
<path fill="none" stroke="#9a32cd" stroke-dasharray="5,2" d="M1094.83,-111.74C1145.61,-109.4 1210.39,-114.42 1258,-146 1300.87,-174.43 1319.33,-238.77 1324.98,-263.27"/>
<polygon fill="#9a32cd" stroke="#9a32cd" points="1094.33,-108.27 1084.54,-112.33 1094.72,-115.26 1094.33,-108.27"/>
<text text-anchor="middle" x="1187" y="-149" font-family="Helvetica,sans-Serif" font-size="10.00"> m_MultiThreader</text>
</g>
<!-- Node28 -->
<g id="node28" class="node">
<title>Node28</title>
<g id="a_node28"><a xlink:title=" ">
<polygon fill="white" stroke="#bfbfbf" points="1822.5,-192.5 1822.5,-233.5 1954.5,-233.5 1954.5,-192.5 1822.5,-192.5"/>
<text text-anchor="start" x="1830.5" y="-221.5" font-family="Helvetica,sans-Serif" font-size="10.00">std::unordered_map</text>
<text text-anchor="start" x="1830.5" y="-210.5" font-family="Helvetica,sans-Serif" font-size="10.00">&lt; OutputPointIdentifier,</text>
<text text-anchor="middle" x="1888.5" y="-199.5" font-family="Helvetica,sans-Serif" font-size="10.00"> OutputVectorType &gt;</text>
</a>
</g>
</g>
<!-- Node28&#45;&gt;Node2 -->
<g id="edge32" class="edge">
<title>Node28&#45;&gt;Node2</title>
<path fill="none" stroke="#9a32cd" stroke-dasharray="5,2" d="M1964.92,-199.14C2011.99,-190.49 2072.94,-179.29 2123,-170.09"/>
<polygon fill="#9a32cd" stroke="#9a32cd" points="1963.99,-195.75 1954.79,-201 1965.26,-202.64 1963.99,-195.75"/>
<text text-anchor="middle" x="2048.5" y="-196" font-family="Helvetica,sans-Serif" font-size="10.00"> m_Constraints</text>
</g>
<!-- Node29 -->
<g id="node29" class="node">
<title>Node29</title>
<g id="a_node29"><a xlink:title=" ">
<polygon fill="white" stroke="#bfbfbf" points="1822.5,-132.5 1822.5,-173.5 1954.5,-173.5 1954.5,-132.5 1822.5,-132.5"/>
<text text-anchor="start" x="1830.5" y="-161.5" font-family="Helvetica,sans-Serif" font-size="10.00">std::unordered_map</text>
<text text-anchor="start" x="1830.5" y="-150.5" font-family="Helvetica,sans-Serif" font-size="10.00">&lt; OutputPointIdentifier,</text>
<text text-anchor="middle" x="1888.5" y="-139.5" font-family="Helvetica,sans-Serif" font-size="10.00"> OutputPointIdentifier &gt;</text>
</a>
</g>
</g>
<!-- Node29&#45;&gt;Node2 -->
<g id="edge33" class="edge">
<title>Node29&#45;&gt;Node2</title>
<path fill="none" stroke="#9a32cd" stroke-dasharray="5,2" d="M1964.92,-153C2011.99,-153 2072.94,-153 2123,-153"/>
<polygon fill="#9a32cd" stroke="#9a32cd" points="1964.79,-149.5 1954.79,-153 1964.79,-156.5 1964.79,-149.5"/>
<text text-anchor="middle" x="2048.5" y="-156" font-family="Helvetica,sans-Serif" font-size="10.00"> m_InternalMap</text>
</g>
<!-- Node30 -->
<g id="node30" class="node">
<title>Node30</title>
<g id="a_node30"><a xlink:title=" ">
<polygon fill="white" stroke="#bfbfbf" points="1821.5,-0.5 1821.5,-41.5 1955.5,-41.5 1955.5,-0.5 1821.5,-0.5"/>
<text text-anchor="start" x="1829.5" y="-29.5" font-family="Helvetica,sans-Serif" font-size="10.00">std::unordered_map</text>
<text text-anchor="start" x="1829.5" y="-18.5" font-family="Helvetica,sans-Serif" font-size="10.00">&lt; OutputPointIdentifier,</text>
<text text-anchor="middle" x="1888.5" y="-7.5" font-family="Helvetica,sans-Serif" font-size="10.00"> OutputCoordRepType &gt;</text>
</a>
</g>
</g>
<!-- Node30&#45;&gt;Node1 -->
<g id="edge37" class="edge">
<title>Node30&#45;&gt;Node1</title>
<path fill="none" stroke="#9a32cd" stroke-dasharray="5,2" d="M1965.6,-26.16C2063.23,-32.77 2233.56,-44.32 2347.79,-52.06"/>
<polygon fill="#9a32cd" stroke="#9a32cd" points="1965.73,-22.66 1955.52,-25.47 1965.26,-29.64 1965.73,-22.66"/>
<text text-anchor="middle" x="2217" y="-53" font-family="Helvetica,sans-Serif" font-size="10.00"> m_LocalLambdaSquare</text>
</g>
<!-- Node30&#45;&gt;Node2 -->
<g id="edge34" class="edge">
<title>Node30&#45;&gt;Node2</title>
<path fill="none" stroke="#9a32cd" stroke-dasharray="5,2" d="M1965.18,-43.33C2007.02,-56.49 2059.58,-74.39 2105,-94 2131.05,-105.25 2159.26,-120.28 2180.73,-132.36"/>
<polygon fill="#9a32cd" stroke="#9a32cd" points="1966.2,-39.98 1955.61,-40.34 1964.11,-46.66 1966.2,-39.98"/>
<text text-anchor="middle" x="2048.5" y="-97" font-family="Helvetica,sans-Serif" font-size="10.00"> m_MixedAreaMap</text>
</g>
<!-- Node31 -->
<g id="node31" class="node">
<title>Node31</title>
<g id="a_node31"><a xlink:title=" ">
<polygon fill="white" stroke="#bfbfbf" points="1821.5,-61 1821.5,-113 1955.5,-113 1955.5,-61 1821.5,-61"/>
<text text-anchor="start" x="1829.5" y="-101" font-family="Helvetica,sans-Serif" font-size="10.00">std::unordered_map</text>
<text text-anchor="start" x="1829.5" y="-90" font-family="Helvetica,sans-Serif" font-size="10.00">&lt; OutputQEPrimal *,</text>
<text text-anchor="start" x="1829.5" y="-79" font-family="Helvetica,sans-Serif" font-size="10.00"> OutputCoordRepType,</text>
<text text-anchor="middle" x="1888.5" y="-68" font-family="Helvetica,sans-Serif" font-size="10.00"> HashOutputQEPrimal &gt;</text>
</a>
</g>
</g>
<!-- Node31&#45;&gt;Node2 -->
<g id="edge35" class="edge">
<title>Node31&#45;&gt;Node2</title>
<path fill="none" stroke="#9a32cd" stroke-dasharray="5,2" d="M1965.37,-102.34C2012.33,-111.83 2072.95,-124.08 2122.81,-134.16"/>
<polygon fill="#9a32cd" stroke="#9a32cd" points="1966.07,-98.91 1955.57,-100.36 1964.68,-105.77 1966.07,-98.91"/>
<text text-anchor="middle" x="2048.5" y="-133" font-family="Helvetica,sans-Serif" font-size="10.00"> m_CoefficientMap</text>
</g>
<!-- Node32 -->
<g id="node32" class="node">
<title>Node32</title>
<g id="a_node32"><a xlink:href="classitk_1_1MatrixCoefficients.html" target="_top" xlink:title="Superclass for all the matrix coefficients computation classes.">
<polygon fill="white" stroke="black" points="1826,-313 1826,-343 1951,-343 1951,-313 1826,-313"/>
<text text-anchor="start" x="1834" y="-331" font-family="Helvetica,sans-Serif" font-size="10.00">itk::MatrixCoefficients</text>
<text text-anchor="middle" x="1888.5" y="-320" font-family="Helvetica,sans-Serif" font-size="10.00">&lt; TInputMesh &gt;</text>
</a>
</g>
</g>
<!-- Node32&#45;&gt;Node2 -->
<g id="edge36" class="edge">
<title>Node32&#45;&gt;Node2</title>
<path fill="none" stroke="#9a32cd" stroke-dasharray="5,2" d="M1954.6,-309.89C1961.2,-307.71 1967.77,-305.4 1974,-303 2034.28,-279.76 2050.14,-274.13 2105,-240 2137.22,-219.95 2171.12,-192.29 2192.85,-173.58"/>
<polygon fill="#9a32cd" stroke="#9a32cd" points="1953.38,-306.61 1944.93,-312.99 1955.52,-313.27 1953.38,-306.61"/>
<text text-anchor="middle" x="2048.5" y="-298" font-family="Helvetica,sans-Serif" font-size="10.00"> m_CoefficientsMethod</text>
</g>
</g>
</svg>
