<?xml version="1.0" encoding="UTF-8" standalone="no"?>
<!DOCTYPE svg PUBLIC "-//W3C//DTD SVG 1.1//EN"
 "http://www.w3.org/Graphics/SVG/1.1/DTD/svg11.dtd">
<!-- Generated by graphviz version 2.43.0 (0)
 -->
<!-- Title: itk::PointSetToSpatialObjectDemonsRegistration&lt; TFixedPointSet, TMovingSpatialObject &gt; Pages: 1 -->
<svg width="192pt" height="218pt"
 viewBox="0.00 0.00 192.00 218.00" xmlns="http://www.w3.org/2000/svg" xmlns:xlink="http://www.w3.org/1999/xlink">
<g id="graph0" class="graph" transform="scale(1 1) rotate(0) translate(4 214)">
<title>itk::PointSetToSpatialObjectDemonsRegistration&lt; TFixedPointSet, TMovingSpatialObject &gt;</title>
<polygon fill="white" stroke="transparent" points="-4,4 -4,-214 188,-214 188,4 -4,4"/>
<!-- Node1 -->
<g id="node1" class="node">
<title>Node1</title>
<g id="a_node1"><a xlink:title="Implementation of Demons Registration between a PointSet and a SpatialObject.">
<polygon fill="#bfbfbf" stroke="black" points="0,-0.5 0,-41.5 184,-41.5 184,-0.5 0,-0.5"/>
<text text-anchor="start" x="8" y="-29.5" font-family="Helvetica,sans-Serif" font-size="10.00">itk::PointSetToSpatialObject</text>
<text text-anchor="start" x="8" y="-18.5" font-family="Helvetica,sans-Serif" font-size="10.00">DemonsRegistration&lt; TFixedPoint</text>
<text text-anchor="middle" x="92" y="-7.5" font-family="Helvetica,sans-Serif" font-size="10.00">Set, TMovingSpatialObject &gt;</text>
</a>
</g>
</g>
<!-- Node2 -->
<g id="node2" class="node">
<title>Node2</title>
<g id="a_node2"><a xlink:href="classitk_1_1ProcessObject.html" target="_top" xlink:title="The base class for all process objects (source, filters, mappers) in the Insight data processing pipe...">
<polygon fill="white" stroke="black" points="40,-78.5 40,-97.5 144,-97.5 144,-78.5 40,-78.5"/>
<text text-anchor="middle" x="92" y="-85.5" font-family="Helvetica,sans-Serif" font-size="10.00">itk::ProcessObject</text>
</a>
</g>
</g>
<!-- Node2&#45;&gt;Node1 -->
<g id="edge1" class="edge">
<title>Node2&#45;&gt;Node1</title>
<path fill="none" stroke="midnightblue" d="M92,-68.04C92,-59.71 92,-49.94 92,-41.54"/>
<polygon fill="midnightblue" stroke="midnightblue" points="88.5,-68.23 92,-78.23 95.5,-68.23 88.5,-68.23"/>
</g>
<!-- Node3 -->
<g id="node3" class="node">
<title>Node3</title>
<g id="a_node3"><a xlink:href="classitk_1_1Object.html" target="_top" xlink:title="Base class for most ITK classes.">
<polygon fill="white" stroke="black" points="58.5,-134.5 58.5,-153.5 125.5,-153.5 125.5,-134.5 58.5,-134.5"/>
<text text-anchor="middle" x="92" y="-141.5" font-family="Helvetica,sans-Serif" font-size="10.00">itk::Object</text>
</a>
</g>
</g>
<!-- Node3&#45;&gt;Node2 -->
<g id="edge2" class="edge">
<title>Node3&#45;&gt;Node2</title>
<path fill="none" stroke="midnightblue" d="M92,-123.8C92,-114.91 92,-104.78 92,-97.75"/>
<polygon fill="midnightblue" stroke="midnightblue" points="88.5,-124.08 92,-134.08 95.5,-124.08 88.5,-124.08"/>
</g>
<!-- Node4 -->
<g id="node4" class="node">
<title>Node4</title>
<g id="a_node4"><a xlink:href="classitk_1_1LightObject.html" target="_top" xlink:title="Light weight base class for most itk classes.">
<polygon fill="white" stroke="black" points="46.5,-190.5 46.5,-209.5 137.5,-209.5 137.5,-190.5 46.5,-190.5"/>
<text text-anchor="middle" x="92" y="-197.5" font-family="Helvetica,sans-Serif" font-size="10.00">itk::LightObject</text>
</a>
</g>
</g>
<!-- Node4&#45;&gt;Node3 -->
<g id="edge3" class="edge">
<title>Node4&#45;&gt;Node3</title>
<path fill="none" stroke="midnightblue" d="M92,-179.8C92,-170.91 92,-160.78 92,-153.75"/>
<polygon fill="midnightblue" stroke="midnightblue" points="88.5,-180.08 92,-190.08 95.5,-180.08 88.5,-180.08"/>
</g>
</g>
</svg>
