<?xml version="1.0" encoding="UTF-8" standalone="no"?>
<!DOCTYPE svg PUBLIC "-//W3C//DTD SVG 1.1//EN"
 "http://www.w3.org/Graphics/SVG/1.1/DTD/svg11.dtd">
<!-- Generated by graphviz version 2.43.0 (0)
 -->
<!-- Title: itk::StatisticsLabelObject&lt; TLabel, VImageDimension &gt; Pages: 1 -->
<svg width="1690pt" height="281pt"
 viewBox="0.00 0.00 1690.00 281.40" xmlns="http://www.w3.org/2000/svg" xmlns:xlink="http://www.w3.org/1999/xlink">
<g id="graph0" class="graph" transform="scale(1 1) rotate(0) translate(4 277.4)">
<title>itk::StatisticsLabelObject&lt; TLabel, VImageDimension &gt;</title>
<polygon fill="white" stroke="transparent" points="-4,4 -4,-277.4 1686,-277.4 1686,4 -4,4"/>
<!-- Node1 -->
<g id="node1" class="node">
<title>Node1</title>
<g id="a_node1"><a xlink:title="A Label object to store the common attributes related to the statistics of the object.">
<polygon fill="#bfbfbf" stroke="black" points="1515,-84.9 1515,-114.9 1682,-114.9 1682,-84.9 1515,-84.9"/>
<text text-anchor="start" x="1523" y="-102.9" font-family="Helvetica,sans-Serif" font-size="10.00">itk::StatisticsLabelObject</text>
<text text-anchor="middle" x="1598.5" y="-91.9" font-family="Helvetica,sans-Serif" font-size="10.00">&lt; TLabel, VImageDimension &gt;</text>
</a>
</g>
</g>
<!-- Node2 -->
<g id="node2" class="node">
<title>Node2</title>
<g id="a_node2"><a xlink:href="classitk_1_1ShapeLabelObject.html" target="_top" xlink:title="A Label object to store the common attributes related to the shape of the object.">
<polygon fill="white" stroke="black" points="1182,-194.9 1182,-224.9 1349,-224.9 1349,-194.9 1182,-194.9"/>
<text text-anchor="start" x="1190" y="-212.9" font-family="Helvetica,sans-Serif" font-size="10.00">itk::ShapeLabelObject</text>
<text text-anchor="middle" x="1265.5" y="-201.9" font-family="Helvetica,sans-Serif" font-size="10.00">&lt; TLabel, VImageDimension &gt;</text>
</a>
</g>
</g>
<!-- Node2&#45;&gt;Node1 -->
<g id="edge1" class="edge">
<title>Node2&#45;&gt;Node1</title>
<path fill="none" stroke="midnightblue" d="M1354.96,-192.67C1398.47,-182.93 1451.26,-169.22 1497,-151.9 1523.64,-141.81 1552.34,-126.47 1572.23,-115.06"/>
<polygon fill="midnightblue" stroke="midnightblue" points="1353.98,-189.3 1344.97,-194.87 1355.49,-196.14 1353.98,-189.3"/>
</g>
<!-- Node3 -->
<g id="node3" class="node">
<title>Node3</title>
<g id="a_node3"><a xlink:href="classitk_1_1LabelObject.html" target="_top" xlink:title="The base class for the representation of an labeled binary object in an image.">
<polygon fill="white" stroke="black" points="813.5,-193.9 813.5,-223.9 953.5,-223.9 953.5,-193.9 813.5,-193.9"/>
<text text-anchor="start" x="821.5" y="-211.9" font-family="Helvetica,sans-Serif" font-size="10.00">itk::LabelObject&lt; TLabel,</text>
<text text-anchor="middle" x="883.5" y="-200.9" font-family="Helvetica,sans-Serif" font-size="10.00"> VImageDimension &gt;</text>
</a>
</g>
</g>
<!-- Node3&#45;&gt;Node2 -->
<g id="edge2" class="edge">
<title>Node3&#45;&gt;Node2</title>
<path fill="none" stroke="midnightblue" d="M963.78,-209.11C1027.62,-209.28 1117.09,-209.51 1181.82,-209.68"/>
<polygon fill="midnightblue" stroke="midnightblue" points="963.77,-205.61 953.76,-209.08 963.75,-212.61 963.77,-205.61"/>
</g>
<!-- Node4 -->
<g id="node4" class="node">
<title>Node4</title>
<g id="a_node4"><a xlink:href="classitk_1_1LightObject.html" target="_top" xlink:title="Light weight base class for most itk classes.">
<polygon fill="white" stroke="black" points="540.5,-212.4 540.5,-231.4 631.5,-231.4 631.5,-212.4 540.5,-212.4"/>
<text text-anchor="middle" x="586" y="-219.4" font-family="Helvetica,sans-Serif" font-size="10.00">itk::LightObject</text>
</a>
</g>
</g>
<!-- Node4&#45;&gt;Node3 -->
<g id="edge3" class="edge">
<title>Node4&#45;&gt;Node3</title>
<path fill="none" stroke="midnightblue" d="M641.84,-219.49C690.26,-217.36 761.09,-214.24 813.38,-211.94"/>
<polygon fill="midnightblue" stroke="midnightblue" points="641.4,-216 631.56,-219.94 641.7,-223 641.4,-216"/>
</g>
<!-- Node5 -->
<g id="node5" class="node">
<title>Node5</title>
<g id="a_node5"><a xlink:title=" ">
<polygon fill="white" stroke="#bfbfbf" points="268,-213.4 268,-232.4 375,-232.4 375,-213.4 268,-213.4"/>
<text text-anchor="middle" x="321.5" y="-220.4" font-family="Helvetica,sans-Serif" font-size="10.00">std::atomic&lt; int &gt;</text>
</a>
</g>
</g>
<!-- Node5&#45;&gt;Node4 -->
<g id="edge4" class="edge">
<title>Node5&#45;&gt;Node4</title>
<path fill="none" stroke="#9a32cd" stroke-dasharray="5,2" d="M385.52,-222.66C433.23,-222.48 497.58,-222.23 540.14,-222.07"/>
<polygon fill="#9a32cd" stroke="#9a32cd" points="385.29,-219.16 375.31,-222.7 385.32,-226.16 385.29,-219.16"/>
<text text-anchor="middle" x="452.5" y="-224.9" font-family="Helvetica,sans-Serif" font-size="10.00"> m_ReferenceCount</text>
</g>
<!-- Node6 -->
<g id="node6" class="node">
<title>Node6</title>
<g id="a_node6"><a xlink:title=" ">
<polygon fill="white" stroke="#bfbfbf" points="519.5,-173.4 519.5,-192.4 652.5,-192.4 652.5,-173.4 519.5,-173.4"/>
<text text-anchor="middle" x="586" y="-180.4" font-family="Helvetica,sans-Serif" font-size="10.00">std::deque&lt; LineType &gt;</text>
</a>
</g>
</g>
<!-- Node6&#45;&gt;Node3 -->
<g id="edge5" class="edge">
<title>Node6&#45;&gt;Node3</title>
<path fill="none" stroke="#9a32cd" stroke-dasharray="5,2" d="M662.59,-189.55C709.01,-193.64 768.04,-198.83 813.24,-202.81"/>
<polygon fill="#9a32cd" stroke="#9a32cd" points="662.85,-186.06 652.58,-188.67 662.24,-193.03 662.85,-186.06"/>
<text text-anchor="middle" x="714" y="-199.9" font-family="Helvetica,sans-Serif" font-size="10.00"> m_LineContainer</text>
</g>
<!-- Node7 -->
<g id="node7" class="node">
<title>Node7</title>
<g id="a_node7"><a xlink:href="classitk_1_1LabelObjectLine.html" target="_top" xlink:title=" ">
<polygon fill="white" stroke="black" points="257,-163.9 257,-193.9 386,-193.9 386,-163.9 257,-163.9"/>
<text text-anchor="start" x="265" y="-181.9" font-family="Helvetica,sans-Serif" font-size="10.00">itk::LabelObjectLine</text>
<text text-anchor="middle" x="321.5" y="-170.9" font-family="Helvetica,sans-Serif" font-size="10.00">&lt; VImageDimension &gt;</text>
</a>
</g>
</g>
<!-- Node7&#45;&gt;Node6 -->
<g id="edge6" class="edge">
<title>Node7&#45;&gt;Node6</title>
<path fill="none" stroke="#9a32cd" stroke-dasharray="5,2" d="M396.2,-180.02C434.88,-180.61 481.87,-181.33 519.3,-181.9"/>
<polygon fill="#9a32cd" stroke="#9a32cd" points="396.1,-176.52 386.04,-179.87 395.99,-183.52 396.1,-176.52"/>
<text text-anchor="middle" x="452.5" y="-183.9" font-family="Helvetica,sans-Serif" font-size="10.00"> elements</text>
</g>
<!-- Node8 -->
<g id="node8" class="node">
<title>Node8</title>
<g id="a_node8"><a xlink:href="structitk_1_1Index.html" target="_top" xlink:title=" ">
<polygon fill="white" stroke="black" points="0,-169.4 0,-188.4 175,-188.4 175,-169.4 0,-169.4"/>
<text text-anchor="middle" x="87.5" y="-176.4" font-family="Helvetica,sans-Serif" font-size="10.00">itk::Index&lt; VImageDimension &gt;</text>
</a>
</g>
</g>
<!-- Node8&#45;&gt;Node7 -->
<g id="edge7" class="edge">
<title>Node8&#45;&gt;Node7</title>
<path fill="none" stroke="#9a32cd" stroke-dasharray="5,2" d="M185.45,-178.9C209.51,-178.9 234.69,-178.9 256.7,-178.9"/>
<polygon fill="#9a32cd" stroke="#9a32cd" points="185.22,-175.4 175.22,-178.9 185.22,-182.4 185.22,-175.4"/>
<text text-anchor="middle" x="216" y="-181.9" font-family="Helvetica,sans-Serif" font-size="10.00"> m_Index</text>
</g>
<!-- Node9 -->
<g id="node9" class="node">
<title>Node9</title>
<g id="a_node9"><a xlink:href="classitk_1_1Point.html" target="_top" xlink:title=" ">
<polygon fill="white" stroke="black" points="823,-54.9 823,-84.9 944,-84.9 944,-54.9 823,-54.9"/>
<text text-anchor="start" x="831" y="-72.9" font-family="Helvetica,sans-Serif" font-size="10.00">itk::Point&lt; double,</text>
<text text-anchor="middle" x="883.5" y="-61.9" font-family="Helvetica,sans-Serif" font-size="10.00"> VImageDimension &gt;</text>
</a>
</g>
</g>
<!-- Node9&#45;&gt;Node2 -->
<g id="edge8" class="edge">
<title>Node9&#45;&gt;Node2</title>
<path fill="none" stroke="#9a32cd" stroke-dasharray="5,2" d="M954.15,-59.4C1026.61,-50.17 1133.66,-41.87 1164,-67.9 1203.93,-102.16 1147.52,-145.16 1182,-184.9 1185.33,-188.74 1189.24,-192.01 1193.5,-194.78"/>
<polygon fill="#9a32cd" stroke="#9a32cd" points="953.63,-55.94 944.17,-60.7 954.54,-62.88 953.63,-55.94"/>
<text text-anchor="middle" x="1087" y="-81.9" font-family="Helvetica,sans-Serif" font-size="10.00"> m_OrientedBoundingBoxOrigin</text>
<text text-anchor="middle" x="1087" y="-70.9" font-family="Helvetica,sans-Serif" font-size="10.00">m_Centroid</text>
</g>
<!-- Node10 -->
<g id="node10" class="node">
<title>Node10</title>
<g id="a_node10"><a xlink:href="classitk_1_1FixedArray.html" target="_top" xlink:title=" ">
<polygon fill="white" stroke="black" points="519,-51.9 519,-81.9 653,-81.9 653,-51.9 519,-51.9"/>
<text text-anchor="start" x="527" y="-69.9" font-family="Helvetica,sans-Serif" font-size="10.00">itk::FixedArray&lt; double,</text>
<text text-anchor="middle" x="586" y="-58.9" font-family="Helvetica,sans-Serif" font-size="10.00"> VPointDimension &gt;</text>
</a>
</g>
</g>
<!-- Node10&#45;&gt;Node9 -->
<g id="edge9" class="edge">
<title>Node10&#45;&gt;Node9</title>
<path fill="none" stroke="midnightblue" d="M663.38,-67.68C713.08,-68.18 776.97,-68.83 822.92,-69.3"/>
<polygon fill="midnightblue" stroke="midnightblue" points="663.35,-64.17 653.32,-67.57 663.28,-71.17 663.35,-64.17"/>
</g>
<!-- Node17 -->
<g id="node17" class="node">
<title>Node17</title>
<g id="a_node17"><a xlink:href="classitk_1_1Point.html" target="_top" xlink:title=" ">
<polygon fill="white" stroke="black" points="1018,-2.9 1018,-32.9 1156,-32.9 1156,-2.9 1018,-2.9"/>
<text text-anchor="start" x="1026" y="-20.9" font-family="Helvetica,sans-Serif" font-size="10.00">itk::Point&lt; double,</text>
<text text-anchor="middle" x="1087" y="-9.9" font-family="Helvetica,sans-Serif" font-size="10.00"> Self::ImageDimension &gt;</text>
</a>
</g>
</g>
<!-- Node10&#45;&gt;Node17 -->
<g id="edge18" class="edge">
<title>Node10&#45;&gt;Node17</title>
<path fill="none" stroke="midnightblue" d="M663.45,-57.98C697.57,-54.1 738.28,-49.6 775,-45.9 858.47,-37.48 954.67,-29.01 1017.71,-23.62"/>
<polygon fill="midnightblue" stroke="midnightblue" points="662.63,-54.56 653.09,-59.17 663.42,-61.51 662.63,-54.56"/>
</g>
<!-- Node11 -->
<g id="node11" class="node">
<title>Node11</title>
<g id="a_node11"><a xlink:title=" ">
<polygon fill="white" stroke="#bfbfbf" points="293.5,-80.4 293.5,-99.4 349.5,-99.4 349.5,-80.4 293.5,-80.4"/>
<text text-anchor="middle" x="321.5" y="-87.4" font-family="Helvetica,sans-Serif" font-size="10.00">VLength</text>
</a>
</g>
</g>
<!-- Node11&#45;&gt;Node10 -->
<g id="edge10" class="edge">
<title>Node11&#45;&gt;Node10</title>
<path fill="none" stroke="#9a32cd" stroke-dasharray="5,2" d="M359.69,-82.54C373.55,-80.05 389.44,-77.51 404,-75.9 441.84,-71.72 484.35,-69.49 518.65,-68.29"/>
<polygon fill="#9a32cd" stroke="#9a32cd" points="358.75,-79.15 349.55,-84.41 360.02,-86.04 358.75,-79.15"/>
<text text-anchor="middle" x="452.5" y="-78.9" font-family="Helvetica,sans-Serif" font-size="10.00"> m_InternalArray</text>
</g>
<!-- Node14 -->
<g id="node14" class="node">
<title>Node14</title>
<g id="a_node14"><a xlink:href="classitk_1_1FixedArray.html" target="_top" xlink:title=" ">
<polygon fill="white" stroke="black" points="519,-100.9 519,-130.9 653,-130.9 653,-100.9 519,-100.9"/>
<text text-anchor="start" x="527" y="-118.9" font-family="Helvetica,sans-Serif" font-size="10.00">itk::FixedArray&lt; double,</text>
<text text-anchor="middle" x="586" y="-107.9" font-family="Helvetica,sans-Serif" font-size="10.00"> VVectorDimension &gt;</text>
</a>
</g>
</g>
<!-- Node11&#45;&gt;Node14 -->
<g id="edge14" class="edge">
<title>Node11&#45;&gt;Node14</title>
<path fill="none" stroke="#9a32cd" stroke-dasharray="5,2" d="M359.77,-93.59C401.11,-97.69 468.58,-104.37 518.92,-109.35"/>
<polygon fill="#9a32cd" stroke="#9a32cd" points="359.9,-90.09 349.6,-92.58 359.21,-97.05 359.9,-90.09"/>
<text text-anchor="middle" x="452.5" y="-109.9" font-family="Helvetica,sans-Serif" font-size="10.00"> m_InternalArray</text>
</g>
<!-- Node12 -->
<g id="node12" class="node">
<title>Node12</title>
<g id="a_node12"><a xlink:href="classitk_1_1Matrix.html" target="_top" xlink:title=" ">
<polygon fill="white" stroke="black" points="775,-242.9 775,-272.9 992,-272.9 992,-242.9 775,-242.9"/>
<text text-anchor="start" x="783" y="-260.9" font-family="Helvetica,sans-Serif" font-size="10.00">itk::Matrix&lt; double,</text>
<text text-anchor="middle" x="883.5" y="-249.9" font-family="Helvetica,sans-Serif" font-size="10.00"> VImageDimension, VImageDimension &gt;</text>
</a>
</g>
</g>
<!-- Node12&#45;&gt;Node2 -->
<g id="edge11" class="edge">
<title>Node12&#45;&gt;Node2</title>
<path fill="none" stroke="#9a32cd" stroke-dasharray="5,2" d="M1002.2,-243.27C1052.11,-237.04 1110.9,-229.66 1164,-222.9 1169.85,-222.16 1175.88,-221.38 1181.96,-220.6"/>
<polygon fill="#9a32cd" stroke="#9a32cd" points="1001.51,-239.83 992.02,-244.54 1002.38,-246.77 1001.51,-239.83"/>
<text text-anchor="middle" x="1087" y="-244.9" font-family="Helvetica,sans-Serif" font-size="10.00"> m_PrincipalAxes</text>
</g>
<!-- Node13 -->
<g id="node13" class="node">
<title>Node13</title>
<g id="a_node13"><a xlink:href="classitk_1_1Vector.html" target="_top" xlink:title=" ">
<polygon fill="white" stroke="black" points="823,-144.9 823,-174.9 944,-174.9 944,-144.9 823,-144.9"/>
<text text-anchor="start" x="831" y="-162.9" font-family="Helvetica,sans-Serif" font-size="10.00">itk::Vector&lt; double,</text>
<text text-anchor="middle" x="883.5" y="-151.9" font-family="Helvetica,sans-Serif" font-size="10.00"> VImageDimension &gt;</text>
</a>
</g>
</g>
<!-- Node13&#45;&gt;Node2 -->
<g id="edge12" class="edge">
<title>Node13&#45;&gt;Node2</title>
<path fill="none" stroke="#9a32cd" stroke-dasharray="5,2" d="M954.28,-152C1012.11,-147.99 1095.61,-148.15 1164,-171.9 1173.32,-175.14 1173.16,-180.52 1182,-184.9 1189.51,-188.62 1197.68,-191.91 1205.87,-194.78"/>
<polygon fill="#9a32cd" stroke="#9a32cd" points="953.86,-148.52 944.15,-152.76 954.38,-155.5 953.86,-148.52"/>
<text text-anchor="middle" x="1087" y="-196.9" font-family="Helvetica,sans-Serif" font-size="10.00"> m_PrincipalMoments</text>
<text text-anchor="middle" x="1087" y="-185.9" font-family="Helvetica,sans-Serif" font-size="10.00">m_EquivalentEllipsoidDiameter</text>
<text text-anchor="middle" x="1087" y="-174.9" font-family="Helvetica,sans-Serif" font-size="10.00">m_OrientedBoundingBoxSize</text>
</g>
<!-- Node14&#45;&gt;Node13 -->
<g id="edge13" class="edge">
<title>Node14&#45;&gt;Node13</title>
<path fill="none" stroke="midnightblue" d="M662.95,-127.68C665.66,-128.09 668.36,-128.5 671,-128.9 722.19,-136.61 780.4,-145.12 822.77,-151.27"/>
<polygon fill="midnightblue" stroke="midnightblue" points="663.44,-124.22 653.02,-126.17 662.38,-131.14 663.44,-124.22"/>
</g>
<!-- Node18 -->
<g id="node18" class="node">
<title>Node18</title>
<g id="a_node18"><a xlink:href="classitk_1_1Vector.html" target="_top" xlink:title=" ">
<polygon fill="white" stroke="black" points="1018,-98.9 1018,-128.9 1156,-128.9 1156,-98.9 1018,-98.9"/>
<text text-anchor="start" x="1026" y="-116.9" font-family="Helvetica,sans-Serif" font-size="10.00">itk::Vector&lt; double,</text>
<text text-anchor="middle" x="1087" y="-105.9" font-family="Helvetica,sans-Serif" font-size="10.00"> Self::ImageDimension &gt;</text>
</a>
</g>
</g>
<!-- Node14&#45;&gt;Node18 -->
<g id="edge20" class="edge">
<title>Node14&#45;&gt;Node18</title>
<path fill="none" stroke="midnightblue" d="M663.29,-115.59C759.97,-115.21 925.12,-114.54 1017.78,-114.17"/>
<polygon fill="midnightblue" stroke="midnightblue" points="662.99,-112.1 653.01,-115.64 663.02,-119.1 662.99,-112.1"/>
</g>
<!-- Node15 -->
<g id="node15" class="node">
<title>Node15</title>
<g id="a_node15"><a xlink:href="classitk_1_1Matrix.html" target="_top" xlink:title=" ">
<polygon fill="white" stroke="black" points="1196.5,-134.4 1196.5,-175.4 1334.5,-175.4 1334.5,-134.4 1196.5,-134.4"/>
<text text-anchor="start" x="1204.5" y="-163.4" font-family="Helvetica,sans-Serif" font-size="10.00">itk::Matrix&lt; double,</text>
<text text-anchor="start" x="1204.5" y="-152.4" font-family="Helvetica,sans-Serif" font-size="10.00"> Self::ImageDimension,</text>
<text text-anchor="middle" x="1265.5" y="-141.4" font-family="Helvetica,sans-Serif" font-size="10.00"> Self::ImageDimension &gt;</text>
</a>
</g>
</g>
<!-- Node15&#45;&gt;Node1 -->
<g id="edge15" class="edge">
<title>Node15&#45;&gt;Node1</title>
<path fill="none" stroke="#9a32cd" stroke-dasharray="5,2" d="M1344.7,-141.91C1395.89,-133.4 1462.68,-122.3 1514.75,-113.65"/>
<polygon fill="#9a32cd" stroke="#9a32cd" points="1343.97,-138.48 1334.68,-143.57 1345.12,-145.38 1343.97,-138.48"/>
<text text-anchor="middle" x="1432" y="-139.9" font-family="Helvetica,sans-Serif" font-size="10.00"> m_WeightedPrincipalAxes</text>
</g>
<!-- Node16 -->
<g id="node16" class="node">
<title>Node16</title>
<g id="a_node16"><a xlink:href="classitk_1_1SmartPointer.html" target="_top" xlink:title=" ">
<polygon fill="white" stroke="black" points="1212,-84.9 1212,-114.9 1319,-114.9 1319,-84.9 1212,-84.9"/>
<text text-anchor="start" x="1220" y="-102.9" font-family="Helvetica,sans-Serif" font-size="10.00">itk::SmartPointer&lt;</text>
<text text-anchor="middle" x="1265.5" y="-91.9" font-family="Helvetica,sans-Serif" font-size="10.00"> const Self &gt;</text>
</a>
</g>
</g>
<!-- Node16&#45;&gt;Node1 -->
<g id="edge16" class="edge">
<title>Node16&#45;&gt;Node1</title>
<path fill="none" stroke="#9a32cd" stroke-dasharray="5,2" d="M1329.51,-99.9C1382.1,-99.9 1457.44,-99.9 1514.85,-99.9"/>
<polygon fill="#9a32cd" stroke="#9a32cd" points="1329.31,-96.4 1319.31,-99.9 1329.31,-103.4 1329.31,-96.4"/>
<text text-anchor="middle" x="1432" y="-102.9" font-family="Helvetica,sans-Serif" font-size="10.00"> m_Histogram</text>
</g>
<!-- Node17&#45;&gt;Node1 -->
<g id="edge17" class="edge">
<title>Node17&#45;&gt;Node1</title>
<path fill="none" stroke="#9a32cd" stroke-dasharray="5,2" d="M1166.26,-6.75C1250.59,2.15 1387.44,7.42 1497,-31.9 1529.72,-43.64 1562.01,-68.5 1580.83,-84.68"/>
<polygon fill="#9a32cd" stroke="#9a32cd" points="1165.8,-3.28 1156.24,-7.85 1166.56,-10.24 1165.8,-3.28"/>
<text text-anchor="middle" x="1265.5" y="-8.9" font-family="Helvetica,sans-Serif" font-size="10.00"> m_CenterOfGravity</text>
</g>
<!-- Node18&#45;&gt;Node1 -->
<g id="edge19" class="edge">
<title>Node18&#45;&gt;Node1</title>
<path fill="none" stroke="#9a32cd" stroke-dasharray="5,2" d="M1164.13,-92.07C1174.31,-80.89 1170.92,-71.06 1182,-64.9 1307.57,4.95 1488.22,-54.56 1563.04,-84.82"/>
<polygon fill="#9a32cd" stroke="#9a32cd" points="1161.64,-89.6 1156.36,-98.79 1166.21,-94.89 1161.64,-89.6"/>
<text text-anchor="middle" x="1265.5" y="-67.9" font-family="Helvetica,sans-Serif" font-size="10.00"> m_WeightedPrincipalMoments</text>
</g>
</g>
</svg>
