<?xml version="1.0" encoding="UTF-8" standalone="no"?>
<!DOCTYPE svg PUBLIC "-//W3C//DTD SVG 1.1//EN"
 "http://www.w3.org/Graphics/SVG/1.1/DTD/svg11.dtd">
<!-- Generated by graphviz version 2.43.0 (0)
 -->
<!-- Title: itk::FiniteDifferenceFunction&lt; TImageType &gt; Pages: 1 -->
<svg width="1371pt" height="256pt"
 viewBox="0.00 0.00 1371.00 255.96" xmlns="http://www.w3.org/2000/svg" xmlns:xlink="http://www.w3.org/1999/xlink">
<g id="graph0" class="graph" transform="scale(1 1) rotate(0) translate(4 251.96)">
<title>itk::FiniteDifferenceFunction&lt; TImageType &gt;</title>
<polygon fill="white" stroke="transparent" points="-4,4 -4,-251.96 1367,-251.96 1367,4 -4,4"/>
<!-- Node1 -->
<g id="node1" class="node">
<title>Node1</title>
<g id="a_node1"><a xlink:title=" ">
<polygon fill="#bfbfbf" stroke="black" points="1209,-140.96 1209,-170.96 1363,-170.96 1363,-140.96 1209,-140.96"/>
<text text-anchor="start" x="1217" y="-158.96" font-family="Helvetica,sans-Serif" font-size="10.00">itk::FiniteDifferenceFunction</text>
<text text-anchor="middle" x="1286" y="-147.96" font-family="Helvetica,sans-Serif" font-size="10.00">&lt; TImageType &gt;</text>
</a>
</g>
</g>
<!-- Node2 -->
<g id="node2" class="node">
<title>Node2</title>
<g id="a_node2"><a xlink:href="classitk_1_1LightObject.html" target="_top" xlink:title="Light weight base class for most itk classes.">
<polygon fill="white" stroke="black" points="992,-198.46 992,-217.46 1083,-217.46 1083,-198.46 992,-198.46"/>
<text text-anchor="middle" x="1037.5" y="-205.46" font-family="Helvetica,sans-Serif" font-size="10.00">itk::LightObject</text>
</a>
</g>
</g>
<!-- Node2&#45;&gt;Node1 -->
<g id="edge1" class="edge">
<title>Node2&#45;&gt;Node1</title>
<path fill="none" stroke="midnightblue" d="M1093.3,-196.4C1128.75,-188.92 1175.28,-179.1 1213.62,-171.01"/>
<polygon fill="midnightblue" stroke="midnightblue" points="1092.2,-193.05 1083.14,-198.54 1093.65,-199.9 1092.2,-193.05"/>
</g>
<!-- Node3 -->
<g id="node3" class="node">
<title>Node3</title>
<g id="a_node3"><a xlink:title=" ">
<polygon fill="white" stroke="#bfbfbf" points="607.5,-228.46 607.5,-247.46 714.5,-247.46 714.5,-228.46 607.5,-228.46"/>
<text text-anchor="middle" x="661" y="-235.46" font-family="Helvetica,sans-Serif" font-size="10.00">std::atomic&lt; int &gt;</text>
</a>
</g>
</g>
<!-- Node3&#45;&gt;Node2 -->
<g id="edge2" class="edge">
<title>Node3&#45;&gt;Node2</title>
<path fill="none" stroke="#9a32cd" stroke-dasharray="5,2" d="M725.2,-232.89C800.82,-226.84 925.51,-216.85 991.81,-211.54"/>
<polygon fill="#9a32cd" stroke="#9a32cd" points="724.55,-229.43 714.86,-233.72 725.11,-236.41 724.55,-229.43"/>
<text text-anchor="middle" x="861.5" y="-229.96" font-family="Helvetica,sans-Serif" font-size="10.00"> m_ReferenceCount</text>
</g>
<!-- Node4 -->
<g id="node4" class="node">
<title>Node4</title>
<g id="a_node4"><a xlink:href="classitk_1_1ConstNeighborhoodIterator.html" target="_top" xlink:title=" ">
<polygon fill="white" stroke="black" points="954,-118.96 954,-148.96 1121,-148.96 1121,-118.96 954,-118.96"/>
<text text-anchor="start" x="962" y="-136.96" font-family="Helvetica,sans-Serif" font-size="10.00">itk::ConstNeighborhoodIterator</text>
<text text-anchor="middle" x="1037.5" y="-125.96" font-family="Helvetica,sans-Serif" font-size="10.00">&lt; TImageType &gt;</text>
</a>
</g>
</g>
<!-- Node4&#45;&gt;Node1 -->
<g id="edge3" class="edge">
<title>Node4&#45;&gt;Node1</title>
<path fill="none" stroke="#9a32cd" stroke-dasharray="5,2" d="M1131.32,-142.24C1156.84,-144.52 1184.21,-146.96 1208.69,-149.14"/>
<polygon fill="#9a32cd" stroke="#9a32cd" points="1131.54,-138.75 1121.27,-141.34 1130.92,-145.72 1131.54,-138.75"/>
<text text-anchor="middle" x="1165" y="-148.96" font-family="Helvetica,sans-Serif" font-size="10.00"> m_Radius</text>
</g>
<!-- Node5 -->
<g id="node5" class="node">
<title>Node5</title>
<g id="a_node5"><a xlink:href="classitk_1_1Neighborhood.html" target="_top" xlink:title=" ">
<polygon fill="white" stroke="black" points="553,-168.46 553,-209.46 769,-209.46 769,-168.46 553,-168.46"/>
<text text-anchor="start" x="561" y="-197.46" font-family="Helvetica,sans-Serif" font-size="10.00">itk::Neighborhood&lt;</text>
<text text-anchor="start" x="561" y="-186.46" font-family="Helvetica,sans-Serif" font-size="10.00"> TImageType ::InternalPixel</text>
<text text-anchor="middle" x="661" y="-175.46" font-family="Helvetica,sans-Serif" font-size="10.00">Type *, TImageType ::ImageDimension &gt;</text>
</a>
</g>
</g>
<!-- Node5&#45;&gt;Node4 -->
<g id="edge4" class="edge">
<title>Node5&#45;&gt;Node4</title>
<path fill="none" stroke="midnightblue" d="M778.96,-171.97C827.54,-164.89 884.5,-156.56 936,-148.96 941.85,-148.09 947.88,-147.2 953.96,-146.3"/>
<polygon fill="midnightblue" stroke="midnightblue" points="778.43,-168.51 769.04,-173.41 779.44,-175.43 778.43,-168.51"/>
</g>
<!-- Node6 -->
<g id="node6" class="node">
<title>Node6</title>
<g id="a_node6"><a xlink:href="classitk_1_1NeighborhoodAllocator.html" target="_top" xlink:title=" ">
<polygon fill="white" stroke="black" points="245,-195.96 245,-225.96 444,-225.96 444,-195.96 245,-195.96"/>
<text text-anchor="start" x="253" y="-213.96" font-family="Helvetica,sans-Serif" font-size="10.00">itk::NeighborhoodAllocator</text>
<text text-anchor="middle" x="344.5" y="-202.96" font-family="Helvetica,sans-Serif" font-size="10.00">&lt; TImageType ::InternalPixelType * &gt;</text>
</a>
</g>
</g>
<!-- Node6&#45;&gt;Node5 -->
<g id="edge5" class="edge">
<title>Node6&#45;&gt;Node5</title>
<path fill="none" stroke="#9a32cd" stroke-dasharray="5,2" d="M454.4,-203.34C486.32,-201.11 521.18,-198.67 552.98,-196.44"/>
<polygon fill="#9a32cd" stroke="#9a32cd" points="453.88,-199.87 444.15,-204.06 454.37,-206.85 453.88,-199.87"/>
<text text-anchor="middle" x="498.5" y="-204.96" font-family="Helvetica,sans-Serif" font-size="10.00"> m_DataBuffer</text>
</g>
<!-- Node7 -->
<g id="node7" class="node">
<title>Node7</title>
<g id="a_node7"><a xlink:title=" ">
<polygon fill="white" stroke="#bfbfbf" points="0,-195.96 0,-225.96 160,-225.96 160,-195.96 0,-195.96"/>
<text text-anchor="start" x="8" y="-213.96" font-family="Helvetica,sans-Serif" font-size="10.00">std::unique_ptr&lt; TImageType</text>
<text text-anchor="middle" x="80" y="-202.96" font-family="Helvetica,sans-Serif" font-size="10.00"> ::InternalPixelType *[]&gt;</text>
</a>
</g>
</g>
<!-- Node7&#45;&gt;Node6 -->
<g id="edge6" class="edge">
<title>Node7&#45;&gt;Node6</title>
<path fill="none" stroke="#9a32cd" stroke-dasharray="5,2" d="M170.23,-210.96C194.14,-210.96 220.14,-210.96 244.55,-210.96"/>
<polygon fill="#9a32cd" stroke="#9a32cd" points="170.11,-207.46 160.11,-210.96 170.11,-214.46 170.11,-207.46"/>
<text text-anchor="middle" x="202.5" y="-213.96" font-family="Helvetica,sans-Serif" font-size="10.00"> m_Data</text>
</g>
<!-- Node8 -->
<g id="node8" class="node">
<title>Node8</title>
<g id="a_node8"><a xlink:title=" ">
<polygon fill="white" stroke="#bfbfbf" points="275,-157.46 275,-176.46 414,-176.46 414,-157.46 275,-157.46"/>
<text text-anchor="middle" x="344.5" y="-164.46" font-family="Helvetica,sans-Serif" font-size="10.00">std::vector&lt; itk::Offset &gt;</text>
</a>
</g>
</g>
<!-- Node8&#45;&gt;Node5 -->
<g id="edge7" class="edge">
<title>Node8&#45;&gt;Node5</title>
<path fill="none" stroke="#9a32cd" stroke-dasharray="5,2" d="M424.34,-172.47C463.24,-175.19 510.74,-178.51 552.87,-181.46"/>
<polygon fill="#9a32cd" stroke="#9a32cd" points="424.35,-168.96 414.13,-171.76 423.86,-175.95 424.35,-168.96"/>
<text text-anchor="middle" x="498.5" y="-181.96" font-family="Helvetica,sans-Serif" font-size="10.00"> m_OffsetTable</text>
</g>
<!-- Node9 -->
<g id="node9" class="node">
<title>Node9</title>
<g id="a_node9"><a xlink:href="structitk_1_1Offset.html" target="_top" xlink:title="Represent a n&#45;dimensional offset between two n&#45;dimensional indexes of n&#45;dimensional image.">
<polygon fill="white" stroke="black" points="7,-157.46 7,-176.46 153,-176.46 153,-157.46 7,-157.46"/>
<text text-anchor="middle" x="80" y="-164.46" font-family="Helvetica,sans-Serif" font-size="10.00">itk::Offset&lt; VDimension &gt;</text>
</a>
</g>
</g>
<!-- Node9&#45;&gt;Node8 -->
<g id="edge8" class="edge">
<title>Node9&#45;&gt;Node8</title>
<path fill="none" stroke="#9a32cd" stroke-dasharray="5,2" d="M163.49,-166.96C199.27,-166.96 240.67,-166.96 274.75,-166.96"/>
<polygon fill="#9a32cd" stroke="#9a32cd" points="163.08,-163.46 153.08,-166.96 163.08,-170.46 163.08,-163.46"/>
<text text-anchor="middle" x="202.5" y="-169.96" font-family="Helvetica,sans-Serif" font-size="10.00"> elements</text>
</g>
<!-- Node10 -->
<g id="node10" class="node">
<title>Node10</title>
<g id="a_node10"><a xlink:href="classitk_1_1ImageBoundaryCondition.html" target="_top" xlink:title=" ">
<polygon fill="white" stroke="black" points="568.5,-118.96 568.5,-148.96 753.5,-148.96 753.5,-118.96 568.5,-118.96"/>
<text text-anchor="start" x="576.5" y="-136.96" font-family="Helvetica,sans-Serif" font-size="10.00">itk::ImageBoundaryCondition</text>
<text text-anchor="middle" x="661" y="-125.96" font-family="Helvetica,sans-Serif" font-size="10.00">&lt; ImageType, OutputImageType &gt;</text>
</a>
</g>
</g>
<!-- Node10&#45;&gt;Node4 -->
<g id="edge9" class="edge">
<title>Node10&#45;&gt;Node4</title>
<path fill="none" stroke="#9a32cd" stroke-dasharray="5,2" d="M763.81,-133.96C823.45,-133.96 897.81,-133.96 953.81,-133.96"/>
<polygon fill="#9a32cd" stroke="#9a32cd" points="763.61,-130.46 753.61,-133.96 763.61,-137.46 763.61,-130.46"/>
<text text-anchor="middle" x="861.5" y="-136.96" font-family="Helvetica,sans-Serif" font-size="10.00"> m_BoundaryCondition</text>
</g>
<!-- Node11 -->
<g id="node11" class="node">
<title>Node11</title>
<g id="a_node11"><a xlink:href="classitk_1_1ZeroFluxNeumannBoundaryCondition.html" target="_top" xlink:title=" ">
<polygon fill="white" stroke="black" points="574.5,-69.96 574.5,-99.96 747.5,-99.96 747.5,-69.96 574.5,-69.96"/>
<text text-anchor="start" x="582.5" y="-87.96" font-family="Helvetica,sans-Serif" font-size="10.00">itk::ZeroFluxNeumannBoundary</text>
<text text-anchor="middle" x="661" y="-76.96" font-family="Helvetica,sans-Serif" font-size="10.00">Condition&lt; TImageType &gt;</text>
</a>
</g>
</g>
<!-- Node11&#45;&gt;Node4 -->
<g id="edge10" class="edge">
<title>Node11&#45;&gt;Node4</title>
<path fill="none" stroke="#9a32cd" stroke-dasharray="5,2" d="M757.54,-96.22C810.22,-102.59 876.77,-110.86 936,-118.96 941.86,-119.76 947.9,-120.6 953.98,-121.47"/>
<polygon fill="#9a32cd" stroke="#9a32cd" points="757.88,-92.74 747.54,-95.02 757.05,-99.69 757.88,-92.74"/>
<text text-anchor="middle" x="861.5" y="-121.96" font-family="Helvetica,sans-Serif" font-size="10.00"> m_InternalBoundaryCondition</text>
</g>
<!-- Node12 -->
<g id="node12" class="node">
<title>Node12</title>
<g id="a_node12"><a xlink:href="classitk_1_1ImageBoundaryCondition.html" target="_top" xlink:title=" ">
<polygon fill="white" stroke="black" points="262.5,-69.96 262.5,-99.96 426.5,-99.96 426.5,-69.96 262.5,-69.96"/>
<text text-anchor="start" x="270.5" y="-87.96" font-family="Helvetica,sans-Serif" font-size="10.00">itk::ImageBoundaryCondition</text>
<text text-anchor="middle" x="344.5" y="-76.96" font-family="Helvetica,sans-Serif" font-size="10.00">&lt; TImageType, TImageType &gt;</text>
</a>
</g>
</g>
<!-- Node12&#45;&gt;Node11 -->
<g id="edge11" class="edge">
<title>Node12&#45;&gt;Node11</title>
<path fill="none" stroke="midnightblue" d="M437.14,-84.96C480.42,-84.96 531.77,-84.96 574.27,-84.96"/>
<polygon fill="midnightblue" stroke="midnightblue" points="436.9,-81.46 426.9,-84.96 436.9,-88.46 436.9,-81.46"/>
</g>
<!-- Node13 -->
<g id="node13" class="node">
<title>Node13</title>
<g id="a_node13"><a xlink:href="structitk_1_1Index.html" target="_top" xlink:title=" ">
<polygon fill="white" stroke="black" points="580.5,-1.46 580.5,-20.46 741.5,-20.46 741.5,-1.46 580.5,-1.46"/>
<text text-anchor="middle" x="661" y="-8.46" font-family="Helvetica,sans-Serif" font-size="10.00">itk::Index&lt; Self::Dimension &gt;</text>
</a>
</g>
</g>
<!-- Node13&#45;&gt;Node4 -->
<g id="edge12" class="edge">
<title>Node13&#45;&gt;Node4</title>
<path fill="none" stroke="#9a32cd" stroke-dasharray="5,2" d="M750.63,-0.89C806.35,1.68 878.35,-2.06 936,-28.96 978.31,-48.69 1011.95,-94.74 1027.36,-118.76"/>
<polygon fill="#9a32cd" stroke="#9a32cd" points="750.21,2.59 740.42,-1.44 750.59,-4.4 750.21,2.59"/>
<text text-anchor="middle" x="861.5" y="-86.96" font-family="Helvetica,sans-Serif" font-size="10.00"> m_BeginIndex</text>
<text text-anchor="middle" x="861.5" y="-75.96" font-family="Helvetica,sans-Serif" font-size="10.00">m_InnerBoundsLow</text>
<text text-anchor="middle" x="861.5" y="-64.96" font-family="Helvetica,sans-Serif" font-size="10.00">m_Loop</text>
<text text-anchor="middle" x="861.5" y="-53.96" font-family="Helvetica,sans-Serif" font-size="10.00">m_InnerBoundsHigh</text>
<text text-anchor="middle" x="861.5" y="-42.96" font-family="Helvetica,sans-Serif" font-size="10.00">m_EndIndex</text>
<text text-anchor="middle" x="861.5" y="-31.96" font-family="Helvetica,sans-Serif" font-size="10.00">m_Bound</text>
</g>
</g>
</svg>
