<?xml version="1.0" encoding="UTF-8" standalone="no"?>
<!DOCTYPE svg PUBLIC "-//W3C//DTD SVG 1.1//EN"
 "http://www.w3.org/Graphics/SVG/1.1/DTD/svg11.dtd">
<!-- Generated by graphviz version 2.43.0 (0)
 -->
<!-- Title: itk::NeighborhoodOperatorImageFunction&lt; TInputImage, TOutput &gt; Pages: 1 -->
<svg width="181pt" height="307pt"
 viewBox="0.00 0.00 181.00 307.00" xmlns="http://www.w3.org/2000/svg" xmlns:xlink="http://www.w3.org/1999/xlink">
<g id="graph0" class="graph" transform="scale(1 1) rotate(0) translate(4 303)">
<title>itk::NeighborhoodOperatorImageFunction&lt; TInputImage, TOutput &gt;</title>
<polygon fill="white" stroke="transparent" points="-4,4 -4,-303 177,-303 177,4 -4,4"/>
<!-- Node1 -->
<g id="node1" class="node">
<title>Node1</title>
<g id="a_node1"><a xlink:title="Compute the convolution of a neighborhood operator with the image at a specific location in space,...">
<polygon fill="#bfbfbf" stroke="black" points="4.5,-0.5 4.5,-41.5 168.5,-41.5 168.5,-0.5 4.5,-0.5"/>
<text text-anchor="start" x="12.5" y="-29.5" font-family="Helvetica,sans-Serif" font-size="10.00">itk::NeighborhoodOperator</text>
<text text-anchor="start" x="12.5" y="-18.5" font-family="Helvetica,sans-Serif" font-size="10.00">ImageFunction&lt; TInputImage,</text>
<text text-anchor="middle" x="86.5" y="-7.5" font-family="Helvetica,sans-Serif" font-size="10.00"> TOutput &gt;</text>
</a>
</g>
</g>
<!-- Node2 -->
<g id="node2" class="node">
<title>Node2</title>
<g id="a_node2"><a xlink:href="classitk_1_1ImageFunction.html" target="_top" xlink:title=" ">
<polygon fill="white" stroke="black" points="13.5,-78.5 13.5,-108.5 159.5,-108.5 159.5,-78.5 13.5,-78.5"/>
<text text-anchor="start" x="21.5" y="-96.5" font-family="Helvetica,sans-Serif" font-size="10.00">itk::ImageFunction</text>
<text text-anchor="middle" x="86.5" y="-85.5" font-family="Helvetica,sans-Serif" font-size="10.00">&lt; TInputImage, TOutput &gt;</text>
</a>
</g>
</g>
<!-- Node2&#45;&gt;Node1 -->
<g id="edge1" class="edge">
<title>Node2&#45;&gt;Node1</title>
<path fill="none" stroke="midnightblue" d="M86.5,-67.98C86.5,-59.35 86.5,-49.76 86.5,-41.59"/>
<polygon fill="midnightblue" stroke="midnightblue" points="83,-68.23 86.5,-78.23 90,-68.23 83,-68.23"/>
</g>
<!-- Node3 -->
<g id="node3" class="node">
<title>Node3</title>
<g id="a_node3"><a xlink:href="classitk_1_1FunctionBase.html" target="_top" xlink:title=" ">
<polygon fill="white" stroke="black" points="0,-145.5 0,-186.5 173,-186.5 173,-145.5 0,-145.5"/>
<text text-anchor="start" x="8" y="-174.5" font-family="Helvetica,sans-Serif" font-size="10.00">itk::FunctionBase&lt;</text>
<text text-anchor="start" x="8" y="-163.5" font-family="Helvetica,sans-Serif" font-size="10.00"> Point&lt; float, TInputImage</text>
<text text-anchor="middle" x="86.5" y="-152.5" font-family="Helvetica,sans-Serif" font-size="10.00">::ImageDimension &gt;, TOutput &gt;</text>
</a>
</g>
</g>
<!-- Node3&#45;&gt;Node2 -->
<g id="edge2" class="edge">
<title>Node3&#45;&gt;Node2</title>
<path fill="none" stroke="midnightblue" d="M86.5,-135.08C86.5,-126.01 86.5,-116.45 86.5,-108.89"/>
<polygon fill="midnightblue" stroke="midnightblue" points="83,-135.36 86.5,-145.36 90,-135.36 83,-135.36"/>
</g>
<!-- Node4 -->
<g id="node4" class="node">
<title>Node4</title>
<g id="a_node4"><a xlink:href="classitk_1_1Object.html" target="_top" xlink:title="Base class for most ITK classes.">
<polygon fill="white" stroke="black" points="53,-223.5 53,-242.5 120,-242.5 120,-223.5 53,-223.5"/>
<text text-anchor="middle" x="86.5" y="-230.5" font-family="Helvetica,sans-Serif" font-size="10.00">itk::Object</text>
</a>
</g>
</g>
<!-- Node4&#45;&gt;Node3 -->
<g id="edge3" class="edge">
<title>Node4&#45;&gt;Node3</title>
<path fill="none" stroke="midnightblue" d="M86.5,-213.04C86.5,-204.71 86.5,-194.94 86.5,-186.54"/>
<polygon fill="midnightblue" stroke="midnightblue" points="83,-213.23 86.5,-223.23 90,-213.23 83,-213.23"/>
</g>
<!-- Node5 -->
<g id="node5" class="node">
<title>Node5</title>
<g id="a_node5"><a xlink:href="classitk_1_1LightObject.html" target="_top" xlink:title="Light weight base class for most itk classes.">
<polygon fill="white" stroke="black" points="41,-279.5 41,-298.5 132,-298.5 132,-279.5 41,-279.5"/>
<text text-anchor="middle" x="86.5" y="-286.5" font-family="Helvetica,sans-Serif" font-size="10.00">itk::LightObject</text>
</a>
</g>
</g>
<!-- Node5&#45;&gt;Node4 -->
<g id="edge4" class="edge">
<title>Node5&#45;&gt;Node4</title>
<path fill="none" stroke="midnightblue" d="M86.5,-268.8C86.5,-259.91 86.5,-249.78 86.5,-242.75"/>
<polygon fill="midnightblue" stroke="midnightblue" points="83,-269.08 86.5,-279.08 90,-269.08 83,-269.08"/>
</g>
</g>
</svg>
