<?xml version="1.0" encoding="UTF-8" standalone="no"?>
<!DOCTYPE svg PUBLIC "-//W3C//DTD SVG 1.1//EN"
 "http://www.w3.org/Graphics/SVG/1.1/DTD/svg11.dtd">
<!-- Generated by graphviz version 2.43.0 (0)
 -->
<!-- Title: itk::PDEDeformableRegistrationFunction&lt; TFixedImage, TMovingImage, TDisplacementField &gt; Pages: 1 -->
<svg width="1609pt" height="277pt"
 viewBox="0.00 0.00 1609.00 277.00" xmlns="http://www.w3.org/2000/svg" xmlns:xlink="http://www.w3.org/1999/xlink">
<g id="graph0" class="graph" transform="scale(1 1) rotate(0) translate(4 273)">
<title>itk::PDEDeformableRegistrationFunction&lt; TFixedImage, TMovingImage, TDisplacementField &gt;</title>
<polygon fill="white" stroke="transparent" points="-4,4 -4,-273 1605,-273 1605,4 -4,4"/>
<!-- Node1 -->
<g id="node1" class="node">
<title>Node1</title>
<g id="a_node1"><a xlink:title=" ">
<polygon fill="#bfbfbf" stroke="black" points="1388,-134.5 1388,-175.5 1601,-175.5 1601,-134.5 1388,-134.5"/>
<text text-anchor="start" x="1396" y="-163.5" font-family="Helvetica,sans-Serif" font-size="10.00">itk::PDEDeformableRegistration</text>
<text text-anchor="start" x="1396" y="-152.5" font-family="Helvetica,sans-Serif" font-size="10.00">Function&lt; TFixedImage, TMovingImage,</text>
<text text-anchor="middle" x="1494.5" y="-141.5" font-family="Helvetica,sans-Serif" font-size="10.00"> TDisplacementField &gt;</text>
</a>
</g>
</g>
<!-- Node2 -->
<g id="node2" class="node">
<title>Node2</title>
<g id="a_node2"><a xlink:href="classitk_1_1FiniteDifferenceFunction.html" target="_top" xlink:title=" ">
<polygon fill="white" stroke="black" points="1197,-140 1197,-170 1351,-170 1351,-140 1197,-140"/>
<text text-anchor="start" x="1205" y="-158" font-family="Helvetica,sans-Serif" font-size="10.00">itk::FiniteDifferenceFunction</text>
<text text-anchor="middle" x="1274" y="-147" font-family="Helvetica,sans-Serif" font-size="10.00">&lt; TDisplacementField &gt;</text>
</a>
</g>
</g>
<!-- Node2&#45;&gt;Node1 -->
<g id="edge1" class="edge">
<title>Node2&#45;&gt;Node1</title>
<path fill="none" stroke="midnightblue" d="M1361.21,-155C1369.91,-155 1378.8,-155 1387.67,-155"/>
<polygon fill="midnightblue" stroke="midnightblue" points="1361.11,-151.5 1351.11,-155 1361.11,-158.5 1361.11,-151.5"/>
</g>
<!-- Node3 -->
<g id="node3" class="node">
<title>Node3</title>
<g id="a_node3"><a xlink:href="classitk_1_1LightObject.html" target="_top" xlink:title="Light weight base class for most itk classes.">
<polygon fill="white" stroke="black" points="980,-208.5 980,-227.5 1071,-227.5 1071,-208.5 980,-208.5"/>
<text text-anchor="middle" x="1025.5" y="-215.5" font-family="Helvetica,sans-Serif" font-size="10.00">itk::LightObject</text>
</a>
</g>
</g>
<!-- Node3&#45;&gt;Node2 -->
<g id="edge2" class="edge">
<title>Node3&#45;&gt;Node2</title>
<path fill="none" stroke="midnightblue" d="M1073.7,-205.94C1113.64,-195.73 1171.09,-181.05 1214.06,-170.07"/>
<polygon fill="midnightblue" stroke="midnightblue" points="1072.76,-202.56 1063.94,-208.43 1074.49,-209.35 1072.76,-202.56"/>
</g>
<!-- Node4 -->
<g id="node4" class="node">
<title>Node4</title>
<g id="a_node4"><a xlink:title=" ">
<polygon fill="white" stroke="#bfbfbf" points="611,-249.5 611,-268.5 718,-268.5 718,-249.5 611,-249.5"/>
<text text-anchor="middle" x="664.5" y="-256.5" font-family="Helvetica,sans-Serif" font-size="10.00">std::atomic&lt; int &gt;</text>
</a>
</g>
</g>
<!-- Node4&#45;&gt;Node3 -->
<g id="edge3" class="edge">
<title>Node4&#45;&gt;Node3</title>
<path fill="none" stroke="#9a32cd" stroke-dasharray="5,2" d="M728.39,-251.82C800.44,-243.59 916.71,-230.31 979.99,-223.08"/>
<polygon fill="#9a32cd" stroke="#9a32cd" points="727.62,-248.38 718.09,-252.99 728.42,-255.34 727.62,-248.38"/>
<text text-anchor="middle" x="849.5" y="-248" font-family="Helvetica,sans-Serif" font-size="10.00"> m_ReferenceCount</text>
</g>
<!-- Node5 -->
<g id="node5" class="node">
<title>Node5</title>
<g id="a_node5"><a xlink:href="classitk_1_1ConstNeighborhoodIterator.html" target="_top" xlink:title=" ">
<polygon fill="white" stroke="black" points="942,-118 942,-148 1109,-148 1109,-118 942,-118"/>
<text text-anchor="start" x="950" y="-136" font-family="Helvetica,sans-Serif" font-size="10.00">itk::ConstNeighborhoodIterator</text>
<text text-anchor="middle" x="1025.5" y="-125" font-family="Helvetica,sans-Serif" font-size="10.00">&lt; TDisplacementField &gt;</text>
</a>
</g>
</g>
<!-- Node5&#45;&gt;Node2 -->
<g id="edge4" class="edge">
<title>Node5&#45;&gt;Node2</title>
<path fill="none" stroke="#9a32cd" stroke-dasharray="5,2" d="M1119.32,-141.28C1144.84,-143.56 1172.21,-146 1196.69,-148.19"/>
<polygon fill="#9a32cd" stroke="#9a32cd" points="1119.54,-137.79 1109.27,-140.39 1118.92,-144.76 1119.54,-137.79"/>
<text text-anchor="middle" x="1153" y="-148" font-family="Helvetica,sans-Serif" font-size="10.00"> m_Radius</text>
</g>
<!-- Node6 -->
<g id="node6" class="node">
<title>Node6</title>
<g id="a_node6"><a xlink:href="classitk_1_1Neighborhood.html" target="_top" xlink:title=" ">
<polygon fill="white" stroke="black" points="600.5,-167.5 600.5,-230.5 728.5,-230.5 728.5,-167.5 600.5,-167.5"/>
<text text-anchor="start" x="608.5" y="-218.5" font-family="Helvetica,sans-Serif" font-size="10.00">itk::Neighborhood&lt;</text>
<text text-anchor="start" x="608.5" y="-207.5" font-family="Helvetica,sans-Serif" font-size="10.00"> TDisplacementField</text>
<text text-anchor="start" x="608.5" y="-196.5" font-family="Helvetica,sans-Serif" font-size="10.00"> ::InternalPixelType</text>
<text text-anchor="start" x="608.5" y="-185.5" font-family="Helvetica,sans-Serif" font-size="10.00"> *, TDisplacementField</text>
<text text-anchor="middle" x="664.5" y="-174.5" font-family="Helvetica,sans-Serif" font-size="10.00"> ::ImageDimension &gt;</text>
</a>
</g>
</g>
<!-- Node6&#45;&gt;Node5 -->
<g id="edge5" class="edge">
<title>Node6&#45;&gt;Node5</title>
<path fill="none" stroke="midnightblue" d="M738.89,-185.51C798.15,-174.61 881.49,-159.29 942.85,-148.01"/>
<polygon fill="midnightblue" stroke="midnightblue" points="738.06,-182.1 728.86,-187.35 739.32,-188.99 738.06,-182.1"/>
</g>
<!-- Node7 -->
<g id="node7" class="node">
<title>Node7</title>
<g id="a_node7"><a xlink:href="classitk_1_1NeighborhoodAllocator.html" target="_top" xlink:title=" ">
<polygon fill="white" stroke="black" points="275.5,-202.5 275.5,-243.5 446.5,-243.5 446.5,-202.5 275.5,-202.5"/>
<text text-anchor="start" x="283.5" y="-231.5" font-family="Helvetica,sans-Serif" font-size="10.00">itk::NeighborhoodAllocator</text>
<text text-anchor="start" x="283.5" y="-220.5" font-family="Helvetica,sans-Serif" font-size="10.00">&lt; TDisplacementField ::Internal</text>
<text text-anchor="middle" x="361" y="-209.5" font-family="Helvetica,sans-Serif" font-size="10.00">PixelType * &gt;</text>
</a>
</g>
</g>
<!-- Node7&#45;&gt;Node6 -->
<g id="edge6" class="edge">
<title>Node7&#45;&gt;Node6</title>
<path fill="none" stroke="#9a32cd" stroke-dasharray="5,2" d="M456.94,-215.44C503.72,-211.72 558.84,-207.33 600.38,-204.02"/>
<polygon fill="#9a32cd" stroke="#9a32cd" points="456.48,-211.97 446.79,-216.25 457.03,-218.95 456.48,-211.97"/>
<text text-anchor="middle" x="517.5" y="-216" font-family="Helvetica,sans-Serif" font-size="10.00"> m_DataBuffer</text>
</g>
<!-- Node8 -->
<g id="node8" class="node">
<title>Node8</title>
<g id="a_node8"><a xlink:title=" ">
<polygon fill="white" stroke="#bfbfbf" points="0,-208 0,-238 174,-238 174,-208 0,-208"/>
<text text-anchor="start" x="8" y="-226" font-family="Helvetica,sans-Serif" font-size="10.00">std::unique_ptr&lt; TDisplacement</text>
<text text-anchor="middle" x="87" y="-215" font-family="Helvetica,sans-Serif" font-size="10.00">Field ::InternalPixelType *[]&gt;</text>
</a>
</g>
</g>
<!-- Node8&#45;&gt;Node7 -->
<g id="edge7" class="edge">
<title>Node8&#45;&gt;Node7</title>
<path fill="none" stroke="#9a32cd" stroke-dasharray="5,2" d="M184.44,-223C214.14,-223 246.59,-223 275.43,-223"/>
<polygon fill="#9a32cd" stroke="#9a32cd" points="184.06,-219.5 174.06,-223 184.06,-226.5 184.06,-219.5"/>
<text text-anchor="middle" x="216.5" y="-226" font-family="Helvetica,sans-Serif" font-size="10.00"> m_Data</text>
</g>
<!-- Node9 -->
<g id="node9" class="node">
<title>Node9</title>
<g id="a_node9"><a xlink:title=" ">
<polygon fill="white" stroke="#bfbfbf" points="291.5,-164.5 291.5,-183.5 430.5,-183.5 430.5,-164.5 291.5,-164.5"/>
<text text-anchor="middle" x="361" y="-171.5" font-family="Helvetica,sans-Serif" font-size="10.00">std::vector&lt; itk::Offset &gt;</text>
</a>
</g>
</g>
<!-- Node9&#45;&gt;Node6 -->
<g id="edge8" class="edge">
<title>Node9&#45;&gt;Node6</title>
<path fill="none" stroke="#9a32cd" stroke-dasharray="5,2" d="M440.87,-180.54C490.62,-184.66 554,-189.92 600.4,-193.77"/>
<polygon fill="#9a32cd" stroke="#9a32cd" points="441.05,-177.04 430.79,-179.7 440.47,-184.02 441.05,-177.04"/>
<text text-anchor="middle" x="517.5" y="-192" font-family="Helvetica,sans-Serif" font-size="10.00"> m_OffsetTable</text>
</g>
<!-- Node10 -->
<g id="node10" class="node">
<title>Node10</title>
<g id="a_node10"><a xlink:href="structitk_1_1Offset.html" target="_top" xlink:title="Represent a n&#45;dimensional offset between two n&#45;dimensional indexes of n&#45;dimensional image.">
<polygon fill="white" stroke="black" points="14,-164.5 14,-183.5 160,-183.5 160,-164.5 14,-164.5"/>
<text text-anchor="middle" x="87" y="-171.5" font-family="Helvetica,sans-Serif" font-size="10.00">itk::Offset&lt; VDimension &gt;</text>
</a>
</g>
</g>
<!-- Node10&#45;&gt;Node9 -->
<g id="edge9" class="edge">
<title>Node10&#45;&gt;Node9</title>
<path fill="none" stroke="#9a32cd" stroke-dasharray="5,2" d="M170.36,-174C208.98,-174 254.49,-174 291.24,-174"/>
<polygon fill="#9a32cd" stroke="#9a32cd" points="170.18,-170.5 160.18,-174 170.18,-177.5 170.18,-170.5"/>
<text text-anchor="middle" x="216.5" y="-177" font-family="Helvetica,sans-Serif" font-size="10.00"> elements</text>
</g>
<!-- Node11 -->
<g id="node11" class="node">
<title>Node11</title>
<g id="a_node11"><a xlink:href="classitk_1_1ImageBoundaryCondition.html" target="_top" xlink:title=" ">
<polygon fill="white" stroke="black" points="572,-118 572,-148 757,-148 757,-118 572,-118"/>
<text text-anchor="start" x="580" y="-136" font-family="Helvetica,sans-Serif" font-size="10.00">itk::ImageBoundaryCondition</text>
<text text-anchor="middle" x="664.5" y="-125" font-family="Helvetica,sans-Serif" font-size="10.00">&lt; ImageType, OutputImageType &gt;</text>
</a>
</g>
</g>
<!-- Node11&#45;&gt;Node5 -->
<g id="edge10" class="edge">
<title>Node11&#45;&gt;Node5</title>
<path fill="none" stroke="#9a32cd" stroke-dasharray="5,2" d="M767.18,-133C822.39,-133 889.78,-133 941.74,-133"/>
<polygon fill="#9a32cd" stroke="#9a32cd" points="767.02,-129.5 757.02,-133 767.02,-136.5 767.02,-129.5"/>
<text text-anchor="middle" x="849.5" y="-136" font-family="Helvetica,sans-Serif" font-size="10.00"> m_BoundaryCondition</text>
</g>
<!-- Node12 -->
<g id="node12" class="node">
<title>Node12</title>
<g id="a_node12"><a xlink:href="classitk_1_1ZeroFluxNeumannBoundaryCondition.html" target="_top" xlink:title=" ">
<polygon fill="white" stroke="black" points="573.5,-69 573.5,-99 755.5,-99 755.5,-69 573.5,-69"/>
<text text-anchor="start" x="581.5" y="-87" font-family="Helvetica,sans-Serif" font-size="10.00">itk::ZeroFluxNeumannBoundary</text>
<text text-anchor="middle" x="664.5" y="-76" font-family="Helvetica,sans-Serif" font-size="10.00">Condition&lt; TDisplacementField &gt;</text>
</a>
</g>
</g>
<!-- Node12&#45;&gt;Node5 -->
<g id="edge11" class="edge">
<title>Node12&#45;&gt;Node5</title>
<path fill="none" stroke="#9a32cd" stroke-dasharray="5,2" d="M765.64,-96.76C813.59,-102.97 871.79,-110.67 924,-118 929.85,-118.82 935.89,-119.68 941.98,-120.57"/>
<polygon fill="#9a32cd" stroke="#9a32cd" points="765.94,-93.27 755.57,-95.46 765.04,-100.21 765.94,-93.27"/>
<text text-anchor="middle" x="849.5" y="-121" font-family="Helvetica,sans-Serif" font-size="10.00"> m_InternalBoundaryCondition</text>
</g>
<!-- Node13 -->
<g id="node13" class="node">
<title>Node13</title>
<g id="a_node13"><a xlink:href="classitk_1_1ImageBoundaryCondition.html" target="_top" xlink:title=" ">
<polygon fill="white" stroke="black" points="259,-63.5 259,-104.5 463,-104.5 463,-63.5 259,-63.5"/>
<text text-anchor="start" x="267" y="-92.5" font-family="Helvetica,sans-Serif" font-size="10.00">itk::ImageBoundaryCondition</text>
<text text-anchor="start" x="267" y="-81.5" font-family="Helvetica,sans-Serif" font-size="10.00">&lt; TDisplacementField, TDisplacement</text>
<text text-anchor="middle" x="361" y="-70.5" font-family="Helvetica,sans-Serif" font-size="10.00">Field &gt;</text>
</a>
</g>
</g>
<!-- Node13&#45;&gt;Node12 -->
<g id="edge12" class="edge">
<title>Node13&#45;&gt;Node12</title>
<path fill="none" stroke="midnightblue" d="M473.34,-84C506.22,-84 541.79,-84 573.17,-84"/>
<polygon fill="midnightblue" stroke="midnightblue" points="473.23,-80.5 463.23,-84 473.23,-87.5 473.23,-80.5"/>
</g>
<!-- Node14 -->
<g id="node14" class="node">
<title>Node14</title>
<g id="a_node14"><a xlink:href="structitk_1_1Index.html" target="_top" xlink:title=" ">
<polygon fill="white" stroke="black" points="584,-0.5 584,-19.5 745,-19.5 745,-0.5 584,-0.5"/>
<text text-anchor="middle" x="664.5" y="-7.5" font-family="Helvetica,sans-Serif" font-size="10.00">itk::Index&lt; Self::Dimension &gt;</text>
</a>
</g>
</g>
<!-- Node14&#45;&gt;Node5 -->
<g id="edge13" class="edge">
<title>Node14&#45;&gt;Node5</title>
<path fill="none" stroke="#9a32cd" stroke-dasharray="5,2" d="M755.4,-0.67C807.03,0.96 871.78,-3.52 924,-28 966.27,-47.82 999.93,-93.83 1015.35,-117.82"/>
<polygon fill="#9a32cd" stroke="#9a32cd" points="755.11,2.82 745.26,-1.08 755.39,-4.18 755.11,2.82"/>
<text text-anchor="middle" x="849.5" y="-86" font-family="Helvetica,sans-Serif" font-size="10.00"> m_BeginIndex</text>
<text text-anchor="middle" x="849.5" y="-75" font-family="Helvetica,sans-Serif" font-size="10.00">m_InnerBoundsLow</text>
<text text-anchor="middle" x="849.5" y="-64" font-family="Helvetica,sans-Serif" font-size="10.00">m_Loop</text>
<text text-anchor="middle" x="849.5" y="-53" font-family="Helvetica,sans-Serif" font-size="10.00">m_InnerBoundsHigh</text>
<text text-anchor="middle" x="849.5" y="-42" font-family="Helvetica,sans-Serif" font-size="10.00">m_EndIndex</text>
<text text-anchor="middle" x="849.5" y="-31" font-family="Helvetica,sans-Serif" font-size="10.00">m_Bound</text>
</g>
</g>
</svg>
