<?xml version="1.0" encoding="UTF-8" standalone="no"?>
<!DOCTYPE svg PUBLIC "-//W3C//DTD SVG 1.1//EN"
 "http://www.w3.org/Graphics/SVG/1.1/DTD/svg11.dtd">
<!-- Generated by graphviz version 2.43.0 (0)
 -->
<!-- Title: itk::LabelMapMaskImageFilter&lt; TInputImage, TOutputImage &gt; Pages: 1 -->
<svg width="2424pt" height="460pt"
 viewBox="0.00 0.00 2424.00 460.00" xmlns="http://www.w3.org/2000/svg" xmlns:xlink="http://www.w3.org/1999/xlink">
<g id="graph0" class="graph" transform="scale(1 1) rotate(0) translate(4 456)">
<title>itk::LabelMapMaskImageFilter&lt; TInputImage, TOutputImage &gt;</title>
<polygon fill="white" stroke="transparent" points="-4,4 -4,-456 2420,-456 2420,4 -4,4"/>
<!-- Node1 -->
<g id="node1" class="node">
<title>Node1</title>
<g id="a_node1"><a xlink:title="Mask and image with a LabelMap.">
<polygon fill="#bfbfbf" stroke="black" points="2240,-51 2240,-81 2416,-81 2416,-51 2240,-51"/>
<text text-anchor="start" x="2248" y="-69" font-family="Helvetica,sans-Serif" font-size="10.00">itk::LabelMapMaskImageFilter</text>
<text text-anchor="middle" x="2328" y="-58" font-family="Helvetica,sans-Serif" font-size="10.00">&lt; TInputImage, TOutputImage &gt;</text>
</a>
</g>
</g>
<!-- Node2 -->
<g id="node2" class="node">
<title>Node2</title>
<g id="a_node2"><a xlink:href="classitk_1_1LabelMapFilter.html" target="_top" xlink:title="Base class for filters that take an image as input and overwrite that image as the output.">
<polygon fill="white" stroke="black" points="2027,-226 2027,-256 2203,-256 2203,-226 2027,-226"/>
<text text-anchor="start" x="2035" y="-244" font-family="Helvetica,sans-Serif" font-size="10.00">itk::LabelMapFilter</text>
<text text-anchor="middle" x="2115" y="-233" font-family="Helvetica,sans-Serif" font-size="10.00">&lt; TInputImage, TOutputImage &gt;</text>
</a>
</g>
</g>
<!-- Node2&#45;&gt;Node1 -->
<g id="edge1" class="edge">
<title>Node2&#45;&gt;Node1</title>
<path fill="none" stroke="midnightblue" d="M2142.2,-219.27C2185.62,-183.26 2271.42,-112.1 2308.84,-81.06"/>
<polygon fill="midnightblue" stroke="midnightblue" points="2139.82,-216.7 2134.36,-225.78 2144.29,-222.09 2139.82,-216.7"/>
</g>
<!-- Node3 -->
<g id="node3" class="node">
<title>Node3</title>
<g id="a_node3"><a xlink:href="classitk_1_1ImageToImageFilter.html" target="_top" xlink:title="Base class for filters that take an image as input and produce an image as output.">
<polygon fill="white" stroke="black" points="1669,-226 1669,-256 1845,-256 1845,-226 1669,-226"/>
<text text-anchor="start" x="1677" y="-244" font-family="Helvetica,sans-Serif" font-size="10.00">itk::ImageToImageFilter</text>
<text text-anchor="middle" x="1757" y="-233" font-family="Helvetica,sans-Serif" font-size="10.00">&lt; TInputImage, TOutputImage &gt;</text>
</a>
</g>
</g>
<!-- Node3&#45;&gt;Node2 -->
<g id="edge2" class="edge">
<title>Node3&#45;&gt;Node2</title>
<path fill="none" stroke="midnightblue" d="M1855.3,-241C1908.93,-241 1974.96,-241 2026.89,-241"/>
<polygon fill="midnightblue" stroke="midnightblue" points="1855.09,-237.5 1845.09,-241 1855.09,-244.5 1855.09,-237.5"/>
</g>
<!-- Node4 -->
<g id="node4" class="node">
<title>Node4</title>
<g id="a_node4"><a xlink:href="classitk_1_1ImageSource.html" target="_top" xlink:title="Base class for all process objects that output image data.">
<polygon fill="white" stroke="black" points="1469.5,-226 1469.5,-256 1618.5,-256 1618.5,-226 1469.5,-226"/>
<text text-anchor="start" x="1477.5" y="-244" font-family="Helvetica,sans-Serif" font-size="10.00">itk::ImageSource&lt; TOutput</text>
<text text-anchor="middle" x="1544" y="-233" font-family="Helvetica,sans-Serif" font-size="10.00">Image &gt;</text>
</a>
</g>
</g>
<!-- Node4&#45;&gt;Node3 -->
<g id="edge3" class="edge">
<title>Node4&#45;&gt;Node3</title>
<path fill="none" stroke="midnightblue" d="M1628.55,-241C1641.85,-241 1655.62,-241 1668.99,-241"/>
<polygon fill="midnightblue" stroke="midnightblue" points="1628.5,-237.5 1618.5,-241 1628.5,-244.5 1628.5,-237.5"/>
</g>
<!-- Node5 -->
<g id="node5" class="node">
<title>Node5</title>
<g id="a_node5"><a xlink:href="classitk_1_1ProcessObject.html" target="_top" xlink:title="The base class for all process objects (source, filters, mappers) in the Insight data processing pipe...">
<polygon fill="white" stroke="black" points="1295.5,-231.5 1295.5,-250.5 1399.5,-250.5 1399.5,-231.5 1295.5,-231.5"/>
<text text-anchor="middle" x="1347.5" y="-238.5" font-family="Helvetica,sans-Serif" font-size="10.00">itk::ProcessObject</text>
</a>
</g>
</g>
<!-- Node5&#45;&gt;Node4 -->
<g id="edge4" class="edge">
<title>Node5&#45;&gt;Node4</title>
<path fill="none" stroke="midnightblue" d="M1409.83,-241C1428.67,-241 1449.61,-241 1469.19,-241"/>
<polygon fill="midnightblue" stroke="midnightblue" points="1409.6,-237.5 1399.6,-241 1409.6,-244.5 1409.6,-237.5"/>
</g>
<!-- Node6 -->
<g id="node6" class="node">
<title>Node6</title>
<g id="a_node6"><a xlink:href="classitk_1_1Object.html" target="_top" xlink:title="Base class for most ITK classes.">
<polygon fill="white" stroke="black" points="980,-129.5 980,-148.5 1047,-148.5 1047,-129.5 980,-129.5"/>
<text text-anchor="middle" x="1013.5" y="-136.5" font-family="Helvetica,sans-Serif" font-size="10.00">itk::Object</text>
</a>
</g>
</g>
<!-- Node6&#45;&gt;Node5 -->
<g id="edge5" class="edge">
<title>Node6&#45;&gt;Node5</title>
<path fill="none" stroke="midnightblue" d="M1057.21,-145.11C1106.62,-152.99 1189.9,-168.74 1258,-194 1285.08,-204.04 1314.25,-220.82 1331.42,-231.38"/>
<polygon fill="midnightblue" stroke="midnightblue" points="1057.62,-141.63 1047.2,-143.55 1056.54,-148.55 1057.62,-141.63"/>
</g>
<!-- Node7 -->
<g id="node7" class="node">
<title>Node7</title>
<g id="a_node7"><a xlink:href="classitk_1_1LightObject.html" target="_top" xlink:title="Light weight base class for most itk classes.">
<polygon fill="white" stroke="black" points="659,-124.5 659,-143.5 750,-143.5 750,-124.5 659,-124.5"/>
<text text-anchor="middle" x="704.5" y="-131.5" font-family="Helvetica,sans-Serif" font-size="10.00">itk::LightObject</text>
</a>
</g>
</g>
<!-- Node7&#45;&gt;Node6 -->
<g id="edge6" class="edge">
<title>Node7&#45;&gt;Node6</title>
<path fill="none" stroke="midnightblue" d="M760.4,-134.89C824.13,-135.93 927.17,-137.61 979.59,-138.46"/>
<polygon fill="midnightblue" stroke="midnightblue" points="760.2,-131.39 750.14,-134.73 760.08,-138.39 760.2,-131.39"/>
</g>
<!-- Node8 -->
<g id="node8" class="node">
<title>Node8</title>
<g id="a_node8"><a xlink:title=" ">
<polygon fill="white" stroke="#bfbfbf" points="372,-126.5 372,-145.5 479,-145.5 479,-126.5 372,-126.5"/>
<text text-anchor="middle" x="425.5" y="-133.5" font-family="Helvetica,sans-Serif" font-size="10.00">std::atomic&lt; int &gt;</text>
</a>
</g>
</g>
<!-- Node8&#45;&gt;Node7 -->
<g id="edge7" class="edge">
<title>Node8&#45;&gt;Node7</title>
<path fill="none" stroke="#9a32cd" stroke-dasharray="5,2" d="M489.29,-135.55C540.91,-135.17 612.77,-134.66 658.72,-134.32"/>
<polygon fill="#9a32cd" stroke="#9a32cd" points="489.23,-132.05 479.25,-135.62 489.28,-139.05 489.23,-132.05"/>
<text text-anchor="middle" x="566.5" y="-139" font-family="Helvetica,sans-Serif" font-size="10.00"> m_ReferenceCount</text>
</g>
<!-- Node9 -->
<g id="node9" class="node">
<title>Node9</title>
<g id="a_node9"><a xlink:title="STL class.">
<polygon fill="white" stroke="#bfbfbf" points="672,-247.5 672,-266.5 737,-266.5 737,-247.5 672,-247.5"/>
<text text-anchor="middle" x="704.5" y="-254.5" font-family="Helvetica,sans-Serif" font-size="10.00">std::string</text>
</a>
</g>
</g>
<!-- Node9&#45;&gt;Node6 -->
<g id="edge8" class="edge">
<title>Node9&#45;&gt;Node6</title>
<path fill="none" stroke="#9a32cd" stroke-dasharray="5,2" d="M726.8,-241.56C744.08,-229.77 769.52,-214.06 794,-205 843.55,-186.67 863.83,-207.8 911,-184 920.82,-179.04 919.56,-172.66 929,-167 944.6,-157.64 963.74,-150.93 979.76,-146.43"/>
<polygon fill="#9a32cd" stroke="#9a32cd" points="724.75,-238.72 718.55,-247.31 728.75,-244.47 724.75,-238.72"/>
<text text-anchor="middle" x="852.5" y="-208" font-family="Helvetica,sans-Serif" font-size="10.00"> m_ObjectName</text>
</g>
<!-- Node18 -->
<g id="node18" class="node">
<title>Node18</title>
<g id="a_node18"><a xlink:title=" ">
<polygon fill="white" stroke="#bfbfbf" points="932.5,-275 932.5,-305 1094.5,-305 1094.5,-275 932.5,-275"/>
<text text-anchor="start" x="940.5" y="-293" font-family="Helvetica,sans-Serif" font-size="10.00">std::set&lt; DataObjectIdentifier</text>
<text text-anchor="middle" x="1013.5" y="-282" font-family="Helvetica,sans-Serif" font-size="10.00">Type &gt;</text>
</a>
</g>
</g>
<!-- Node9&#45;&gt;Node18 -->
<g id="edge19" class="edge">
<title>Node9&#45;&gt;Node18</title>
<path fill="none" stroke="#9a32cd" stroke-dasharray="5,2" d="M747.2,-264.82C761.95,-267.39 778.67,-270.07 794,-272 839.7,-277.74 891.01,-282.08 932.42,-285.05"/>
<polygon fill="#9a32cd" stroke="#9a32cd" points="747.81,-261.38 737.35,-263.08 746.59,-268.27 747.81,-261.38"/>
<text text-anchor="middle" x="852.5" y="-286" font-family="Helvetica,sans-Serif" font-size="10.00"> keys</text>
</g>
<!-- Node19 -->
<g id="node19" class="node">
<title>Node19</title>
<g id="a_node19"><a xlink:title=" ">
<polygon fill="white" stroke="#bfbfbf" points="929,-226 929,-256 1098,-256 1098,-226 929,-226"/>
<text text-anchor="start" x="937" y="-244" font-family="Helvetica,sans-Serif" font-size="10.00">std::map&lt; DataObjectIdentifier</text>
<text text-anchor="middle" x="1013.5" y="-233" font-family="Helvetica,sans-Serif" font-size="10.00">Type, bool &gt;</text>
</a>
</g>
</g>
<!-- Node9&#45;&gt;Node19 -->
<g id="edge21" class="edge">
<title>Node9&#45;&gt;Node19</title>
<path fill="none" stroke="#9a32cd" stroke-dasharray="5,2" d="M747.25,-257.01C788.8,-256.77 854.37,-255.75 911,-252 916.84,-251.61 922.85,-251.14 928.91,-250.62"/>
<polygon fill="#9a32cd" stroke="#9a32cd" points="747.21,-253.51 737.22,-257.05 747.24,-260.51 747.21,-253.51"/>
<text text-anchor="middle" x="852.5" y="-260" font-family="Helvetica,sans-Serif" font-size="10.00"> keys</text>
</g>
<!-- Node24 -->
<g id="node24" class="node">
<title>Node24</title>
<g id="a_node24"><a xlink:title=" ">
<polygon fill="white" stroke="#bfbfbf" points="929,-177 929,-207 1098,-207 1098,-177 929,-177"/>
<text text-anchor="start" x="937" y="-195" font-family="Helvetica,sans-Serif" font-size="10.00">std::map&lt; DataObjectIdentifier</text>
<text text-anchor="middle" x="1013.5" y="-184" font-family="Helvetica,sans-Serif" font-size="10.00">Type, DataObjectPointer &gt;</text>
</a>
</g>
</g>
<!-- Node9&#45;&gt;Node24 -->
<g id="edge28" class="edge">
<title>Node9&#45;&gt;Node24</title>
<path fill="none" stroke="#9a32cd" stroke-dasharray="5,2" d="M746.91,-248.37C761.75,-245.33 778.61,-241.95 794,-239 845.89,-229.07 859.38,-229.23 911,-218 925.93,-214.75 941.99,-210.84 956.83,-207.04"/>
<polygon fill="#9a32cd" stroke="#9a32cd" points="746.09,-244.97 737,-250.41 747.5,-251.82 746.09,-244.97"/>
<text text-anchor="middle" x="852.5" y="-242" font-family="Helvetica,sans-Serif" font-size="10.00"> keys</text>
</g>
<!-- Node10 -->
<g id="node10" class="node">
<title>Node10</title>
<g id="a_node10"><a xlink:title="STL class.">
<polygon fill="white" stroke="#bfbfbf" points="373.5,-242 373.5,-272 477.5,-272 477.5,-242 373.5,-242"/>
<text text-anchor="start" x="381.5" y="-260" font-family="Helvetica,sans-Serif" font-size="10.00">std::basic_string&lt;</text>
<text text-anchor="middle" x="425.5" y="-249" font-family="Helvetica,sans-Serif" font-size="10.00"> char &gt;</text>
</a>
</g>
</g>
<!-- Node10&#45;&gt;Node9 -->
<g id="edge9" class="edge">
<title>Node10&#45;&gt;Node9</title>
<path fill="none" stroke="midnightblue" d="M487.93,-257C544.75,-257 626.97,-257 671.66,-257"/>
<polygon fill="midnightblue" stroke="midnightblue" points="487.63,-253.5 477.63,-257 487.63,-260.5 487.63,-253.5"/>
</g>
<!-- Node11 -->
<g id="node11" class="node">
<title>Node11</title>
<g id="a_node11"><a xlink:href="classitk_1_1MetaDataDictionary.html" target="_top" xlink:title="Provides a mechanism for storing a collection of arbitrary data types.">
<polygon fill="white" stroke="black" points="637.5,-85.5 637.5,-104.5 771.5,-104.5 771.5,-85.5 637.5,-85.5"/>
<text text-anchor="middle" x="704.5" y="-92.5" font-family="Helvetica,sans-Serif" font-size="10.00">itk::MetaDataDictionary</text>
</a>
</g>
</g>
<!-- Node11&#45;&gt;Node6 -->
<g id="edge10" class="edge">
<title>Node11&#45;&gt;Node6</title>
<path fill="none" stroke="#9a32cd" stroke-dasharray="5,2" d="M781.95,-103.76C820.68,-108.43 868.41,-114.53 911,-121 934,-124.49 959.82,-129.08 979.66,-132.75"/>
<polygon fill="#9a32cd" stroke="#9a32cd" points="782.13,-100.25 771.79,-102.54 781.3,-107.2 782.13,-100.25"/>
<text text-anchor="middle" x="852.5" y="-124" font-family="Helvetica,sans-Serif" font-size="10.00"> m_MetaDataDictionary</text>
</g>
<!-- Node12 -->
<g id="node12" class="node">
<title>Node12</title>
<g id="a_node12"><a xlink:title=" ">
<polygon fill="white" stroke="#bfbfbf" points="351,-77 351,-107 500,-107 500,-77 351,-77"/>
<text text-anchor="start" x="359" y="-95" font-family="Helvetica,sans-Serif" font-size="10.00">std::shared_ptr&lt; MetaData</text>
<text text-anchor="middle" x="425.5" y="-84" font-family="Helvetica,sans-Serif" font-size="10.00">DictionaryMapType &gt;</text>
</a>
</g>
</g>
<!-- Node12&#45;&gt;Node11 -->
<g id="edge11" class="edge">
<title>Node12&#45;&gt;Node11</title>
<path fill="none" stroke="#9a32cd" stroke-dasharray="5,2" d="M510.18,-92.91C550.89,-93.35 599.13,-93.87 637.24,-94.28"/>
<polygon fill="#9a32cd" stroke="#9a32cd" points="510.04,-89.4 500,-92.8 509.97,-96.4 510.04,-89.4"/>
<text text-anchor="middle" x="566.5" y="-98" font-family="Helvetica,sans-Serif" font-size="10.00"> m_Dictionary</text>
</g>
<!-- Node13 -->
<g id="node13" class="node">
<title>Node13</title>
<g id="a_node13"><a xlink:title="STL class.">
<polygon fill="white" stroke="#bfbfbf" points="114,-82.5 114,-101.5 215,-101.5 215,-82.5 114,-82.5"/>
<text text-anchor="middle" x="164.5" y="-89.5" font-family="Helvetica,sans-Serif" font-size="10.00">std::map&lt; K, T &gt;</text>
</a>
</g>
</g>
<!-- Node13&#45;&gt;Node12 -->
<g id="edge12" class="edge">
<title>Node13&#45;&gt;Node12</title>
<path fill="none" stroke="#9a32cd" stroke-dasharray="5,2" d="M225.34,-92C262.61,-92 310.86,-92 350.52,-92"/>
<polygon fill="#9a32cd" stroke="#9a32cd" points="225.13,-88.5 215.13,-92 225.13,-95.5 225.13,-88.5"/>
<text text-anchor="middle" x="283" y="-95" font-family="Helvetica,sans-Serif" font-size="10.00"> ptr</text>
</g>
<!-- Node14 -->
<g id="node14" class="node">
<title>Node14</title>
<g id="a_node14"><a xlink:title=" ">
<polygon fill="white" stroke="#bfbfbf" points="0,-104.5 0,-123.5 29,-123.5 29,-104.5 0,-104.5"/>
<text text-anchor="middle" x="14.5" y="-111.5" font-family="Helvetica,sans-Serif" font-size="10.00">K</text>
</a>
</g>
</g>
<!-- Node14&#45;&gt;Node13 -->
<g id="edge13" class="edge">
<title>Node14&#45;&gt;Node13</title>
<path fill="none" stroke="#9a32cd" stroke-dasharray="5,2" d="M39.24,-110.47C59.28,-107.49 88.63,-103.13 113.78,-99.39"/>
<polygon fill="#9a32cd" stroke="#9a32cd" points="38.53,-107.04 29.16,-111.97 39.56,-113.96 38.53,-107.04"/>
<text text-anchor="middle" x="71.5" y="-113" font-family="Helvetica,sans-Serif" font-size="10.00"> keys</text>
</g>
<!-- Node15 -->
<g id="node15" class="node">
<title>Node15</title>
<g id="a_node15"><a xlink:title=" ">
<polygon fill="white" stroke="#bfbfbf" points="0,-51.5 0,-70.5 29,-70.5 29,-51.5 0,-51.5"/>
<text text-anchor="middle" x="14.5" y="-58.5" font-family="Helvetica,sans-Serif" font-size="10.00">T</text>
</a>
</g>
</g>
<!-- Node15&#45;&gt;Node13 -->
<g id="edge14" class="edge">
<title>Node15&#45;&gt;Node13</title>
<path fill="none" stroke="#9a32cd" stroke-dasharray="5,2" d="M39.2,-65.96C60.4,-70.4 92.04,-77.03 118.09,-82.49"/>
<polygon fill="#9a32cd" stroke="#9a32cd" points="39.66,-62.49 29.16,-63.86 38.23,-69.34 39.66,-62.49"/>
<text text-anchor="middle" x="71.5" y="-81" font-family="Helvetica,sans-Serif" font-size="10.00"> elements</text>
</g>
<!-- Node17 -->
<g id="node17" class="node">
<title>Node17</title>
<g id="a_node17"><a xlink:title="STL class.">
<polygon fill="white" stroke="#bfbfbf" points="233,-36.5 233,-55.5 333,-55.5 333,-36.5 233,-36.5"/>
<text text-anchor="middle" x="283" y="-43.5" font-family="Helvetica,sans-Serif" font-size="10.00">std::atomic&lt; T &gt;</text>
</a>
</g>
</g>
<!-- Node15&#45;&gt;Node17 -->
<g id="edge17" class="edge">
<title>Node15&#45;&gt;Node17</title>
<path fill="none" stroke="#9a32cd" stroke-dasharray="5,2" d="M39.06,-54.42C41.72,-53.86 44.41,-53.36 47,-53 110.66,-44.08 184.94,-43.48 232.68,-44.35"/>
<polygon fill="#9a32cd" stroke="#9a32cd" points="38.06,-51.07 29.17,-56.83 39.71,-57.87 38.06,-51.07"/>
<text text-anchor="middle" x="71.5" y="-56" font-family="Helvetica,sans-Serif" font-size="10.00"> ptr</text>
</g>
<!-- Node16 -->
<g id="node16" class="node">
<title>Node16</title>
<g id="a_node16"><a xlink:href="classitk_1_1TimeStamp.html" target="_top" xlink:title="Generate a unique, increasing time value.">
<polygon fill="white" stroke="black" points="658.5,-36.5 658.5,-55.5 750.5,-55.5 750.5,-36.5 658.5,-36.5"/>
<text text-anchor="middle" x="704.5" y="-43.5" font-family="Helvetica,sans-Serif" font-size="10.00">itk::TimeStamp</text>
</a>
</g>
</g>
<!-- Node16&#45;&gt;Node1 -->
<g id="edge34" class="edge">
<title>Node16&#45;&gt;Node1</title>
<path fill="none" stroke="#9a32cd" stroke-dasharray="5,2" d="M753.97,-34.18C814.2,-20.55 920.29,0 1012.5,0 1012.5,0 1012.5,0 2116,0 2183.74,0 2258.37,-31.37 2298.19,-50.86"/>
<polygon fill="#9a32cd" stroke="#9a32cd" points="752.96,-30.82 743.99,-36.47 754.52,-37.64 752.96,-30.82"/>
<text text-anchor="middle" x="1544" y="-3" font-family="Helvetica,sans-Serif" font-size="10.00"> m_CropTimeStamp</text>
</g>
<!-- Node16&#45;&gt;Node5 -->
<g id="edge30" class="edge">
<title>Node16&#45;&gt;Node5</title>
<path fill="none" stroke="#9a32cd" stroke-dasharray="5,2" d="M760.84,-45.07C865.25,-45.72 1095.43,-58.73 1258,-153 1294.18,-173.98 1326.11,-213.34 1339.63,-231.45"/>
<polygon fill="#9a32cd" stroke="#9a32cd" points="760.84,-41.57 750.83,-45.05 760.82,-48.57 760.84,-41.57"/>
<text text-anchor="middle" x="1013.5" y="-90" font-family="Helvetica,sans-Serif" font-size="10.00"> m_OutputInformationMTime</text>
</g>
<!-- Node16&#45;&gt;Node6 -->
<g id="edge15" class="edge">
<title>Node16&#45;&gt;Node6</title>
<path fill="none" stroke="#9a32cd" stroke-dasharray="5,2" d="M760.8,-54.61C802.7,-61.97 861.34,-74.07 911,-91 941.81,-101.51 975.62,-118.73 995.4,-129.44"/>
<polygon fill="#9a32cd" stroke="#9a32cd" points="761.24,-51.13 750.79,-52.89 760.06,-58.03 761.24,-51.13"/>
<text text-anchor="middle" x="852.5" y="-94" font-family="Helvetica,sans-Serif" font-size="10.00"> m_MTime</text>
</g>
<!-- Node17&#45;&gt;Node16 -->
<g id="edge16" class="edge">
<title>Node17&#45;&gt;Node16</title>
<path fill="none" stroke="#9a32cd" stroke-dasharray="5,2" d="M343.61,-46C428.52,-46 582.42,-46 658.48,-46"/>
<polygon fill="#9a32cd" stroke="#9a32cd" points="343.36,-42.5 333.36,-46 343.36,-49.5 343.36,-42.5"/>
<text text-anchor="middle" x="425.5" y="-49" font-family="Helvetica,sans-Serif" font-size="10.00"> m_GlobalTimeStamp</text>
</g>
<!-- Node18&#45;&gt;Node5 -->
<g id="edge18" class="edge">
<title>Node18&#45;&gt;Node5</title>
<path fill="none" stroke="#9a32cd" stroke-dasharray="5,2" d="M1104.69,-285.93C1150.91,-282.63 1207.88,-276.68 1258,-266 1266.25,-264.24 1267.93,-262.43 1276,-260 1286.8,-256.75 1298.62,-253.46 1309.43,-250.55"/>
<polygon fill="#9a32cd" stroke="#9a32cd" points="1104.44,-282.44 1094.7,-286.61 1104.91,-289.42 1104.44,-282.44"/>
<text text-anchor="middle" x="1187" y="-287" font-family="Helvetica,sans-Serif" font-size="10.00"> m_RequiredInputNames</text>
</g>
<!-- Node19&#45;&gt;Node5 -->
<g id="edge20" class="edge">
<title>Node19&#45;&gt;Node5</title>
<path fill="none" stroke="#9a32cd" stroke-dasharray="5,2" d="M1108.63,-241C1169.26,-241 1245.74,-241 1295.36,-241"/>
<polygon fill="#9a32cd" stroke="#9a32cd" points="1108.28,-237.5 1098.28,-241 1108.28,-244.5 1108.28,-237.5"/>
<text text-anchor="start" x="1116" y="-255" font-family="Helvetica,sans-Serif" font-size="10.00"> m_CachedInputReleaseData</text>
<text text-anchor="middle" x="1187" y="-244" font-family="Helvetica,sans-Serif" font-size="10.00">Flags</text>
</g>
<!-- Node20 -->
<g id="node20" class="node">
<title>Node20</title>
<g id="a_node20"><a xlink:title=" ">
<polygon fill="white" stroke="#bfbfbf" points="946.5,-373.5 946.5,-392.5 1080.5,-392.5 1080.5,-373.5 946.5,-373.5"/>
<text text-anchor="middle" x="1013.5" y="-380.5" font-family="Helvetica,sans-Serif" font-size="10.00">std::atomic&lt; uint32_t &gt;</text>
</a>
</g>
</g>
<!-- Node20&#45;&gt;Node5 -->
<g id="edge22" class="edge">
<title>Node20&#45;&gt;Node5</title>
<path fill="none" stroke="#9a32cd" stroke-dasharray="5,2" d="M1090.92,-384.48C1153.11,-383.99 1234.32,-378.92 1258,-357 1290.18,-327.21 1246.26,-292.22 1276,-260 1281.25,-254.32 1287.99,-250.27 1295.23,-247.39"/>
<polygon fill="#9a32cd" stroke="#9a32cd" points="1090.71,-380.98 1080.72,-384.52 1090.73,-387.98 1090.71,-380.98"/>
<text text-anchor="middle" x="1187" y="-386" font-family="Helvetica,sans-Serif" font-size="10.00"> m_Progress</text>
</g>
<!-- Node21 -->
<g id="node21" class="node">
<title>Node21</title>
<g id="a_node21"><a xlink:title=" ">
<polygon fill="white" stroke="#bfbfbf" points="676.5,-373.5 676.5,-392.5 732.5,-392.5 732.5,-373.5 676.5,-373.5"/>
<text text-anchor="middle" x="704.5" y="-380.5" font-family="Helvetica,sans-Serif" font-size="10.00">uint32_t</text>
</a>
</g>
</g>
<!-- Node21&#45;&gt;Node20 -->
<g id="edge23" class="edge">
<title>Node21&#45;&gt;Node20</title>
<path fill="none" stroke="#9a32cd" stroke-dasharray="5,2" d="M742.88,-383C793.35,-383 884.11,-383 946.28,-383"/>
<polygon fill="#9a32cd" stroke="#9a32cd" points="742.74,-379.5 732.74,-383 742.74,-386.5 742.74,-379.5"/>
<text text-anchor="middle" x="852.5" y="-386" font-family="Helvetica,sans-Serif" font-size="10.00"> ptr</text>
</g>
<!-- Node22 -->
<g id="node22" class="node">
<title>Node22</title>
<g id="a_node22"><a xlink:title=" ">
<polygon fill="white" stroke="#bfbfbf" points="929,-324 929,-354 1098,-354 1098,-324 929,-324"/>
<text text-anchor="start" x="937" y="-342" font-family="Helvetica,sans-Serif" font-size="10.00">std::vector&lt; DataObjectPointer</text>
<text text-anchor="middle" x="1013.5" y="-331" font-family="Helvetica,sans-Serif" font-size="10.00">Map::iterator &gt;</text>
</a>
</g>
</g>
<!-- Node22&#45;&gt;Node5 -->
<g id="edge24" class="edge">
<title>Node22&#45;&gt;Node5</title>
<path fill="none" stroke="#9a32cd" stroke-dasharray="5,2" d="M1108.2,-332.64C1166.48,-326.99 1234.64,-316.78 1258,-299 1273.19,-287.44 1261.41,-272.31 1276,-260 1281.62,-255.26 1288.31,-251.69 1295.3,-249.01"/>
<polygon fill="#9a32cd" stroke="#9a32cd" points="1107.83,-329.16 1098.2,-333.57 1108.48,-336.13 1107.83,-329.16"/>
<text text-anchor="middle" x="1187" y="-345" font-family="Helvetica,sans-Serif" font-size="10.00"> m_IndexedOutputs</text>
<text text-anchor="middle" x="1187" y="-334" font-family="Helvetica,sans-Serif" font-size="10.00">m_IndexedInputs</text>
</g>
<!-- Node23 -->
<g id="node23" class="node">
<title>Node23</title>
<g id="a_node23"><a xlink:title="STL iterator class.">
<polygon fill="white" stroke="#bfbfbf" points="633,-332.5 633,-351.5 776,-351.5 776,-332.5 633,-332.5"/>
<text text-anchor="middle" x="704.5" y="-339.5" font-family="Helvetica,sans-Serif" font-size="10.00">std::map&lt; K, T &gt;::iterator</text>
</a>
</g>
</g>
<!-- Node23&#45;&gt;Node22 -->
<g id="edge25" class="edge">
<title>Node23&#45;&gt;Node22</title>
<path fill="none" stroke="#9a32cd" stroke-dasharray="5,2" d="M786.39,-341.21C830.34,-340.78 884.61,-340.25 928.97,-339.82"/>
<polygon fill="#9a32cd" stroke="#9a32cd" points="786.28,-337.71 776.32,-341.31 786.35,-344.71 786.28,-337.71"/>
<text text-anchor="middle" x="852.5" y="-344" font-family="Helvetica,sans-Serif" font-size="10.00"> elements</text>
</g>
<!-- Node24&#45;&gt;Node5 -->
<g id="edge26" class="edge">
<title>Node24&#45;&gt;Node5</title>
<path fill="none" stroke="#9a32cd" stroke-dasharray="5,2" d="M1108.32,-196.65C1153.81,-199.97 1209.06,-205.59 1258,-215 1278.76,-218.99 1301.64,-225.78 1318.93,-231.42"/>
<polygon fill="#9a32cd" stroke="#9a32cd" points="1108.4,-193.15 1098.18,-195.93 1107.91,-200.13 1108.4,-193.15"/>
<text text-anchor="middle" x="1187" y="-229" font-family="Helvetica,sans-Serif" font-size="10.00"> m_Outputs</text>
<text text-anchor="middle" x="1187" y="-218" font-family="Helvetica,sans-Serif" font-size="10.00">m_Inputs</text>
</g>
<!-- Node25 -->
<g id="node25" class="node">
<title>Node25</title>
<g id="a_node25"><a xlink:href="classitk_1_1SmartPointer.html" target="_top" xlink:title=" ">
<polygon fill="white" stroke="black" points="651,-163 651,-193 758,-193 758,-163 651,-163"/>
<text text-anchor="start" x="659" y="-181" font-family="Helvetica,sans-Serif" font-size="10.00">itk::SmartPointer&lt;</text>
<text text-anchor="middle" x="704.5" y="-170" font-family="Helvetica,sans-Serif" font-size="10.00"> Self &gt;</text>
</a>
</g>
</g>
<!-- Node25&#45;&gt;Node24 -->
<g id="edge27" class="edge">
<title>Node25&#45;&gt;Node24</title>
<path fill="none" stroke="#9a32cd" stroke-dasharray="5,2" d="M768.38,-174.01C776.98,-173.59 785.71,-173.23 794,-173 845.98,-171.53 859.22,-168.2 911,-173 920.91,-173.92 931.29,-175.33 941.47,-176.98"/>
<polygon fill="#9a32cd" stroke="#9a32cd" points="768.17,-170.52 758.36,-174.52 768.53,-177.51 768.17,-170.52"/>
<text text-anchor="middle" x="852.5" y="-176" font-family="Helvetica,sans-Serif" font-size="10.00"> elements</text>
</g>
<!-- Node26 -->
<g id="node26" class="node">
<title>Node26</title>
<g id="a_node26"><a xlink:href="classitk_1_1SmartPointer.html" target="_top" xlink:title=" ">
<polygon fill="white" stroke="black" points="942.5,-412 942.5,-442 1084.5,-442 1084.5,-412 942.5,-412"/>
<text text-anchor="start" x="950.5" y="-430" font-family="Helvetica,sans-Serif" font-size="10.00">itk::SmartPointer&lt;</text>
<text text-anchor="middle" x="1013.5" y="-419" font-family="Helvetica,sans-Serif" font-size="10.00"> itk::MultiThreaderBase &gt;</text>
</a>
</g>
</g>
<!-- Node26&#45;&gt;Node5 -->
<g id="edge29" class="edge">
<title>Node26&#45;&gt;Node5</title>
<path fill="none" stroke="#9a32cd" stroke-dasharray="5,2" d="M1094.73,-440.48C1148.17,-444.55 1216.05,-439.48 1258,-398 1301.98,-354.51 1235.28,-306.56 1276,-260 1281.17,-254.08 1287.98,-249.92 1295.32,-247"/>
<polygon fill="#9a32cd" stroke="#9a32cd" points="1094.85,-436.97 1084.58,-439.58 1094.24,-443.95 1094.85,-436.97"/>
<text text-anchor="middle" x="1187" y="-444" font-family="Helvetica,sans-Serif" font-size="10.00"> m_MultiThreader</text>
</g>
<!-- Node27 -->
<g id="node27" class="node">
<title>Node27</title>
<g id="a_node27"><a xlink:href="structitk_1_1ImageSourceCommon.html" target="_top" xlink:title="Secondary base class of ImageSource common between templates.">
<polygon fill="white" stroke="black" points="1276,-269.5 1276,-288.5 1419,-288.5 1419,-269.5 1276,-269.5"/>
<text text-anchor="middle" x="1347.5" y="-276.5" font-family="Helvetica,sans-Serif" font-size="10.00">itk::ImageSourceCommon</text>
</a>
</g>
</g>
<!-- Node27&#45;&gt;Node4 -->
<g id="edge31" class="edge">
<title>Node27&#45;&gt;Node4</title>
<path fill="none" stroke="#8b1a1a" d="M1407.32,-267.51C1426.89,-263.68 1448.94,-259.38 1469.49,-255.36"/>
<polygon fill="#8b1a1a" stroke="#8b1a1a" points="1406.47,-264.11 1397.33,-269.46 1407.82,-270.98 1406.47,-264.11"/>
</g>
<!-- Node28 -->
<g id="node28" class="node">
<title>Node28</title>
<g id="a_node28"><a xlink:href="classitk_1_1ImageToImageFilterCommon.html" target="_top" xlink:title="Secondary base class of ImageToImageFilter common between templates.">
<polygon fill="white" stroke="black" points="1456,-275.5 1456,-294.5 1632,-294.5 1632,-275.5 1456,-275.5"/>
<text text-anchor="middle" x="1544" y="-282.5" font-family="Helvetica,sans-Serif" font-size="10.00">itk::ImageToImageFilterCommon</text>
</a>
</g>
</g>
<!-- Node28&#45;&gt;Node3 -->
<g id="edge32" class="edge">
<title>Node28&#45;&gt;Node3</title>
<path fill="none" stroke="#8b1a1a" d="M1600.63,-273.4C1626.08,-268.09 1656.56,-261.74 1683.75,-256.07"/>
<polygon fill="#8b1a1a" stroke="#8b1a1a" points="1599.86,-269.98 1590.78,-275.45 1601.29,-276.84 1599.86,-269.98"/>
</g>
<!-- Node29 -->
<g id="node29" class="node">
<title>Node29</title>
<g id="a_node29"><a xlink:title="STL class.">
<polygon fill="white" stroke="#bfbfbf" points="1722.5,-275.5 1722.5,-294.5 1791.5,-294.5 1791.5,-275.5 1722.5,-275.5"/>
<text text-anchor="middle" x="1757" y="-282.5" font-family="Helvetica,sans-Serif" font-size="10.00">std::mutex</text>
</a>
</g>
</g>
<!-- Node29&#45;&gt;Node2 -->
<g id="edge33" class="edge">
<title>Node29&#45;&gt;Node2</title>
<path fill="none" stroke="#9a32cd" stroke-dasharray="5,2" d="M1801.87,-279.94C1851.99,-274.12 1936.44,-264.17 2009,-255 2014.84,-254.26 2020.86,-253.49 2026.92,-252.7"/>
<polygon fill="#9a32cd" stroke="#9a32cd" points="1801.24,-276.49 1791.71,-281.12 1802.05,-283.44 1801.24,-276.49"/>
<text text-anchor="middle" x="1936" y="-275" font-family="Helvetica,sans-Serif" font-size="10.00"> m_LabelObjectContainerLock</text>
</g>
</g>
</svg>
