<?xml version="1.0" encoding="UTF-8" standalone="no"?>
<!DOCTYPE svg PUBLIC "-//W3C//DTD SVG 1.1//EN"
 "http://www.w3.org/Graphics/SVG/1.1/DTD/svg11.dtd">
<!-- Generated by graphviz version 2.43.0 (0)
 -->
<!-- Title: itk::TransformParametersAdaptor&lt; TTransform &gt; Pages: 1 -->
<svg width="1104pt" height="283pt"
 viewBox="0.00 0.00 1104.00 283.00" xmlns="http://www.w3.org/2000/svg" xmlns:xlink="http://www.w3.org/1999/xlink">
<g id="graph0" class="graph" transform="scale(1 1) rotate(0) translate(4 279)">
<title>itk::TransformParametersAdaptor&lt; TTransform &gt;</title>
<polygon fill="white" stroke="transparent" points="-4,4 -4,-279 1100,-279 1100,4 -4,4"/>
<!-- Node1 -->
<g id="node1" class="node">
<title>Node1</title>
<g id="a_node1"><a xlink:title="Base helper class intended for multi&#45;resolution image registration.">
<polygon fill="#bfbfbf" stroke="black" points="484,-121 484,-151 624,-151 624,-121 484,-121"/>
<text text-anchor="start" x="492" y="-139" font-family="Helvetica,sans-Serif" font-size="10.00">itk::TransformParameters</text>
<text text-anchor="middle" x="554" y="-128" font-family="Helvetica,sans-Serif" font-size="10.00">Adaptor&lt; TTransform &gt;</text>
</a>
</g>
</g>
<!-- Node5 -->
<g id="node5" class="node">
<title>Node5</title>
<g id="a_node5"><a xlink:href="classitk_1_1BSplineTransformParametersAdaptor.html" target="_top" xlink:title="BSplineTransformParametersAdaptor adapts a BSplineTransform to the new specified fixed parameters.">
<polygon fill="white" stroke="black" points="666,-233 666,-263 842,-263 842,-233 666,-233"/>
<text text-anchor="start" x="674" y="-251" font-family="Helvetica,sans-Serif" font-size="10.00">itk::BSplineTransformParameters</text>
<text text-anchor="middle" x="754" y="-240" font-family="Helvetica,sans-Serif" font-size="10.00">Adaptor&lt; TTransform &gt;</text>
</a>
</g>
</g>
<!-- Node1&#45;&gt;Node5 -->
<g id="edge4" class="edge">
<title>Node1&#45;&gt;Node5</title>
<path fill="none" stroke="midnightblue" d="M576.45,-158.6C596.36,-178.31 627.7,-206.3 660,-223 667.43,-226.84 675.5,-230.13 683.68,-232.95"/>
<polygon fill="midnightblue" stroke="midnightblue" points="578.68,-155.88 569.16,-151.24 573.71,-160.8 578.68,-155.88"/>
</g>
<!-- Node6 -->
<g id="node6" class="node">
<title>Node6</title>
<g id="a_node6"><a xlink:href="classitk_1_1ConstantVelocityFieldTransformParametersAdaptor.html" target="_top" xlink:title="ConstantVelocityFieldTransformParametersAdaptor is a helper class intended to definition.">
<polygon fill="white" stroke="black" points="674.5,-172.5 674.5,-213.5 833.5,-213.5 833.5,-172.5 674.5,-172.5"/>
<text text-anchor="start" x="682.5" y="-201.5" font-family="Helvetica,sans-Serif" font-size="10.00">itk::ConstantVelocityField</text>
<text text-anchor="start" x="682.5" y="-190.5" font-family="Helvetica,sans-Serif" font-size="10.00">TransformParametersAdaptor</text>
<text text-anchor="middle" x="754" y="-179.5" font-family="Helvetica,sans-Serif" font-size="10.00">&lt; TTransform &gt;</text>
</a>
</g>
</g>
<!-- Node1&#45;&gt;Node6 -->
<g id="edge5" class="edge">
<title>Node1&#45;&gt;Node6</title>
<path fill="none" stroke="midnightblue" d="M617.14,-153.89C637.65,-159.79 660.63,-166.41 681.77,-172.49"/>
<polygon fill="midnightblue" stroke="midnightblue" points="617.86,-150.45 607.28,-151.05 615.92,-157.18 617.86,-150.45"/>
</g>
<!-- Node9 -->
<g id="node9" class="node">
<title>Node9</title>
<g id="a_node9"><a xlink:href="classitk_1_1DisplacementFieldTransformParametersAdaptor.html" target="_top" xlink:title="DisplacementFieldTransformParametersAdaptor is a helper class intended to definition.">
<polygon fill="white" stroke="black" points="660,-121 660,-151 848,-151 848,-121 660,-121"/>
<text text-anchor="start" x="668" y="-139" font-family="Helvetica,sans-Serif" font-size="10.00">itk::DisplacementFieldTransform</text>
<text text-anchor="middle" x="754" y="-128" font-family="Helvetica,sans-Serif" font-size="10.00">ParametersAdaptor&lt; TTransform &gt;</text>
</a>
</g>
</g>
<!-- Node1&#45;&gt;Node9 -->
<g id="edge8" class="edge">
<title>Node1&#45;&gt;Node9</title>
<path fill="none" stroke="midnightblue" d="M634.34,-136C642.71,-136 651.27,-136 659.78,-136"/>
<polygon fill="midnightblue" stroke="midnightblue" points="634.25,-132.5 624.25,-136 634.25,-139.5 634.25,-132.5"/>
</g>
<!-- Node12 -->
<g id="node12" class="node">
<title>Node12</title>
<g id="a_node12"><a xlink:href="classitk_1_1TimeVaryingBSplineVelocityFieldTransformParametersAdaptor.html" target="_top" xlink:title="TimeVaryingBSplineVelocityFieldTransformParametersAdaptor is a helper class intended to definition.">
<polygon fill="white" stroke="black" points="663,-60.5 663,-101.5 845,-101.5 845,-60.5 663,-60.5"/>
<text text-anchor="start" x="671" y="-89.5" font-family="Helvetica,sans-Serif" font-size="10.00">itk::TimeVaryingBSplineVelocity</text>
<text text-anchor="start" x="671" y="-78.5" font-family="Helvetica,sans-Serif" font-size="10.00">FieldTransformParametersAdaptor</text>
<text text-anchor="middle" x="754" y="-67.5" font-family="Helvetica,sans-Serif" font-size="10.00">&lt; TTransform &gt;</text>
</a>
</g>
</g>
<!-- Node1&#45;&gt;Node12 -->
<g id="edge11" class="edge">
<title>Node1&#45;&gt;Node12</title>
<path fill="none" stroke="midnightblue" d="M618.91,-118.25C638.04,-112.93 659.19,-107.06 678.92,-101.58"/>
<polygon fill="midnightblue" stroke="midnightblue" points="617.8,-114.92 609.1,-120.97 619.68,-121.67 617.8,-114.92"/>
</g>
<!-- Node13 -->
<g id="node13" class="node">
<title>Node13</title>
<g id="a_node13"><a xlink:href="classitk_1_1TimeVaryingVelocityFieldTransformParametersAdaptor.html" target="_top" xlink:title="TimeVaryingVelocityFieldTransformParametersAdaptor is a helper class intended to definition.">
<polygon fill="white" stroke="black" points="663,-0.5 663,-41.5 845,-41.5 845,-0.5 663,-0.5"/>
<text text-anchor="start" x="671" y="-29.5" font-family="Helvetica,sans-Serif" font-size="10.00">itk::TimeVaryingVelocity</text>
<text text-anchor="start" x="671" y="-18.5" font-family="Helvetica,sans-Serif" font-size="10.00">FieldTransformParametersAdaptor</text>
<text text-anchor="middle" x="754" y="-7.5" font-family="Helvetica,sans-Serif" font-size="10.00">&lt; TTransform &gt;</text>
</a>
</g>
</g>
<!-- Node1&#45;&gt;Node13 -->
<g id="edge12" class="edge">
<title>Node1&#45;&gt;Node13</title>
<path fill="none" stroke="midnightblue" d="M577.45,-113.66C597.58,-94.7 628.68,-67.96 660,-51 666.41,-47.53 673.3,-44.37 680.31,-41.53"/>
<polygon fill="midnightblue" stroke="midnightblue" points="574.84,-111.31 570.04,-120.76 579.68,-116.37 574.84,-111.31"/>
</g>
<!-- Node2 -->
<g id="node2" class="node">
<title>Node2</title>
<g id="a_node2"><a xlink:href="classitk_1_1TransformParametersAdaptorBase.html" target="_top" xlink:title=" ">
<polygon fill="white" stroke="black" points="230,-104.5 230,-167.5 448,-167.5 448,-104.5 230,-104.5"/>
<text text-anchor="start" x="238" y="-155.5" font-family="Helvetica,sans-Serif" font-size="10.00">itk::TransformParameters</text>
<text text-anchor="start" x="238" y="-144.5" font-family="Helvetica,sans-Serif" font-size="10.00">AdaptorBase&lt; Transform</text>
<text text-anchor="start" x="238" y="-133.5" font-family="Helvetica,sans-Serif" font-size="10.00">&lt; TTransform::ScalarType,</text>
<text text-anchor="start" x="238" y="-122.5" font-family="Helvetica,sans-Serif" font-size="10.00"> TTransform::InputSpaceDimension,</text>
<text text-anchor="middle" x="339" y="-111.5" font-family="Helvetica,sans-Serif" font-size="10.00"> TTransform::OutputSpaceDimension &gt; &gt;</text>
</a>
</g>
</g>
<!-- Node2&#45;&gt;Node1 -->
<g id="edge1" class="edge">
<title>Node2&#45;&gt;Node1</title>
<path fill="none" stroke="midnightblue" d="M458.29,-136C466.98,-136 475.56,-136 483.8,-136"/>
<polygon fill="midnightblue" stroke="midnightblue" points="458.06,-132.5 448.06,-136 458.06,-139.5 458.06,-132.5"/>
</g>
<!-- Node3 -->
<g id="node3" class="node">
<title>Node3</title>
<g id="a_node3"><a xlink:href="classitk_1_1Object.html" target="_top" xlink:title="Base class for most ITK classes.">
<polygon fill="white" stroke="black" points="127,-126.5 127,-145.5 194,-145.5 194,-126.5 127,-126.5"/>
<text text-anchor="middle" x="160.5" y="-133.5" font-family="Helvetica,sans-Serif" font-size="10.00">itk::Object</text>
</a>
</g>
</g>
<!-- Node3&#45;&gt;Node2 -->
<g id="edge2" class="edge">
<title>Node3&#45;&gt;Node2</title>
<path fill="none" stroke="midnightblue" d="M204.31,-136C212.25,-136 220.87,-136 229.78,-136"/>
<polygon fill="midnightblue" stroke="midnightblue" points="204.28,-132.5 194.28,-136 204.28,-139.5 204.28,-132.5"/>
</g>
<!-- Node4 -->
<g id="node4" class="node">
<title>Node4</title>
<g id="a_node4"><a xlink:href="classitk_1_1LightObject.html" target="_top" xlink:title="Light weight base class for most itk classes.">
<polygon fill="white" stroke="black" points="0,-126.5 0,-145.5 91,-145.5 91,-126.5 0,-126.5"/>
<text text-anchor="middle" x="45.5" y="-133.5" font-family="Helvetica,sans-Serif" font-size="10.00">itk::LightObject</text>
</a>
</g>
</g>
<!-- Node4&#45;&gt;Node3 -->
<g id="edge3" class="edge">
<title>Node4&#45;&gt;Node3</title>
<path fill="none" stroke="midnightblue" d="M101.28,-136C109.96,-136 118.69,-136 126.66,-136"/>
<polygon fill="midnightblue" stroke="midnightblue" points="101.16,-132.5 91.16,-136 101.16,-139.5 101.16,-132.5"/>
</g>
<!-- Node7 -->
<g id="node7" class="node">
<title>Node7</title>
<g id="a_node7"><a xlink:href="classitk_1_1BSplineExponentialDiffeomorphicTransformParametersAdaptor.html" target="_top" xlink:title="Helper class for multiresolution image registration.">
<polygon fill="white" stroke="black" points="890.5,-233.5 890.5,-274.5 1089.5,-274.5 1089.5,-233.5 890.5,-233.5"/>
<text text-anchor="start" x="898.5" y="-262.5" font-family="Helvetica,sans-Serif" font-size="10.00">itk::BSplineExponentialDiffeomorphic</text>
<text text-anchor="start" x="898.5" y="-251.5" font-family="Helvetica,sans-Serif" font-size="10.00">TransformParametersAdaptor&lt;</text>
<text text-anchor="middle" x="990" y="-240.5" font-family="Helvetica,sans-Serif" font-size="10.00"> TTransform &gt;</text>
</a>
</g>
</g>
<!-- Node6&#45;&gt;Node7 -->
<g id="edge6" class="edge">
<title>Node6&#45;&gt;Node7</title>
<path fill="none" stroke="midnightblue" d="M843.53,-216.08C865.46,-221.8 888.81,-227.88 910.24,-233.47"/>
<polygon fill="midnightblue" stroke="midnightblue" points="844.13,-212.62 833.57,-213.48 842.36,-219.39 844.13,-212.62"/>
</g>
<!-- Node8 -->
<g id="node8" class="node">
<title>Node8</title>
<g id="a_node8"><a xlink:href="classitk_1_1GaussianExponentialDiffeomorphicTransformParametersAdaptor.html" target="_top" xlink:title="Helper class for multiresolution image registration.">
<polygon fill="white" stroke="black" points="895,-173.5 895,-214.5 1085,-214.5 1085,-173.5 895,-173.5"/>
<text text-anchor="start" x="903" y="-202.5" font-family="Helvetica,sans-Serif" font-size="10.00">itk::GaussianExponential</text>
<text text-anchor="start" x="903" y="-191.5" font-family="Helvetica,sans-Serif" font-size="10.00">DiffeomorphicTransformParameters</text>
<text text-anchor="middle" x="990" y="-180.5" font-family="Helvetica,sans-Serif" font-size="10.00">Adaptor&lt; TTransform &gt;</text>
</a>
</g>
</g>
<!-- Node6&#45;&gt;Node8 -->
<g id="edge7" class="edge">
<title>Node6&#45;&gt;Node8</title>
<path fill="none" stroke="midnightblue" d="M843.83,-193.38C860.51,-193.45 877.99,-193.53 894.82,-193.6"/>
<polygon fill="midnightblue" stroke="midnightblue" points="843.58,-189.88 833.57,-193.34 843.55,-196.88 843.58,-189.88"/>
</g>
<!-- Node10 -->
<g id="node10" class="node">
<title>Node10</title>
<g id="a_node10"><a xlink:href="classitk_1_1BSplineSmoothingOnUpdateDisplacementFieldTransformParametersAdaptor.html" target="_top" xlink:title="Helper class for multiresolution image registration.">
<polygon fill="white" stroke="black" points="884,-113.5 884,-154.5 1096,-154.5 1096,-113.5 884,-113.5"/>
<text text-anchor="start" x="892" y="-142.5" font-family="Helvetica,sans-Serif" font-size="10.00">itk::BSplineSmoothingOnUpdate</text>
<text text-anchor="start" x="892" y="-131.5" font-family="Helvetica,sans-Serif" font-size="10.00">DisplacementFieldTransformParameters</text>
<text text-anchor="middle" x="990" y="-120.5" font-family="Helvetica,sans-Serif" font-size="10.00">Adaptor&lt; TTransform &gt;</text>
</a>
</g>
</g>
<!-- Node9&#45;&gt;Node10 -->
<g id="edge9" class="edge">
<title>Node9&#45;&gt;Node10</title>
<path fill="none" stroke="midnightblue" d="M858.4,-135.12C866.84,-135.04 875.38,-134.97 883.83,-134.9"/>
<polygon fill="midnightblue" stroke="midnightblue" points="858.13,-131.62 848.16,-135.2 858.18,-138.62 858.13,-131.62"/>
</g>
<!-- Node11 -->
<g id="node11" class="node">
<title>Node11</title>
<g id="a_node11"><a xlink:href="classitk_1_1GaussianSmoothingOnUpdateDisplacementFieldTransformParametersAdaptor.html" target="_top" xlink:title="Helper class for multiresolution image registration.">
<polygon fill="white" stroke="black" points="894.5,-53.5 894.5,-94.5 1085.5,-94.5 1085.5,-53.5 894.5,-53.5"/>
<text text-anchor="start" x="902.5" y="-82.5" font-family="Helvetica,sans-Serif" font-size="10.00">itk::GaussianSmoothingOn</text>
<text text-anchor="start" x="902.5" y="-71.5" font-family="Helvetica,sans-Serif" font-size="10.00">UpdateDisplacementFieldTransform</text>
<text text-anchor="middle" x="990" y="-60.5" font-family="Helvetica,sans-Serif" font-size="10.00">ParametersAdaptor&lt; TTransform &gt;</text>
</a>
</g>
</g>
<!-- Node9&#45;&gt;Node11 -->
<g id="edge10" class="edge">
<title>Node9&#45;&gt;Node11</title>
<path fill="none" stroke="midnightblue" d="M821.33,-118.43C849.32,-111.01 882.1,-102.32 911.22,-94.61"/>
<polygon fill="midnightblue" stroke="midnightblue" points="820.41,-115.05 811.64,-120.99 822.21,-121.81 820.41,-115.05"/>
</g>
</g>
</svg>
