<?xml version="1.0" encoding="UTF-8" standalone="no"?>
<!DOCTYPE svg PUBLIC "-//W3C//DTD SVG 1.1//EN"
 "http://www.w3.org/Graphics/SVG/1.1/DTD/svg11.dtd">
<!-- Generated by graphviz version 2.43.0 (0)
 -->
<!-- Title: itk::KullbackLeiblerCompareHistogramImageToImageMetric&lt; TFixedImage, TMovingImage &gt; Pages: 1 -->
<svg width="219pt" height="486pt"
 viewBox="0.00 0.00 219.00 486.00" xmlns="http://www.w3.org/2000/svg" xmlns:xlink="http://www.w3.org/1999/xlink">
<g id="graph0" class="graph" transform="scale(1 1) rotate(0) translate(4 482)">
<title>itk::KullbackLeiblerCompareHistogramImageToImageMetric&lt; TFixedImage, TMovingImage &gt;</title>
<polygon fill="white" stroke="transparent" points="-4,4 -4,-482 215,-482 215,4 -4,4"/>
<!-- Node1 -->
<g id="node1" class="node">
<title>Node1</title>
<g id="a_node1"><a xlink:title="Computes the Kubler Lieblach(KL) metric between the histogram of the two images to be registered and ...">
<polygon fill="#bfbfbf" stroke="black" points="15.5,-0.5 15.5,-41.5 195.5,-41.5 195.5,-0.5 15.5,-0.5"/>
<text text-anchor="start" x="23.5" y="-29.5" font-family="Helvetica,sans-Serif" font-size="10.00">itk::KullbackLeiblerCompare</text>
<text text-anchor="start" x="23.5" y="-18.5" font-family="Helvetica,sans-Serif" font-size="10.00">HistogramImageToImageMetric</text>
<text text-anchor="middle" x="105.5" y="-7.5" font-family="Helvetica,sans-Serif" font-size="10.00">&lt; TFixedImage, TMovingImage &gt;</text>
</a>
</g>
</g>
<!-- Node2 -->
<g id="node2" class="node">
<title>Node2</title>
<g id="a_node2"><a xlink:href="classitk_1_1CompareHistogramImageToImageMetric.html" target="_top" xlink:title="Compares Histograms between two images to be registered to a Training Histogram.">
<polygon fill="white" stroke="black" points="23,-78.5 23,-119.5 188,-119.5 188,-78.5 23,-78.5"/>
<text text-anchor="start" x="31" y="-107.5" font-family="Helvetica,sans-Serif" font-size="10.00">itk::CompareHistogramImage</text>
<text text-anchor="start" x="31" y="-96.5" font-family="Helvetica,sans-Serif" font-size="10.00">ToImageMetric&lt; TFixedImage,</text>
<text text-anchor="middle" x="105.5" y="-85.5" font-family="Helvetica,sans-Serif" font-size="10.00"> TMovingImage &gt;</text>
</a>
</g>
</g>
<!-- Node2&#45;&gt;Node1 -->
<g id="edge1" class="edge">
<title>Node2&#45;&gt;Node1</title>
<path fill="none" stroke="midnightblue" d="M105.5,-68.3C105.5,-59.3 105.5,-49.65 105.5,-41.51"/>
<polygon fill="midnightblue" stroke="midnightblue" points="102,-68.43 105.5,-78.43 109,-68.43 102,-68.43"/>
</g>
<!-- Node3 -->
<g id="node3" class="node">
<title>Node3</title>
<g id="a_node3"><a xlink:href="classitk_1_1HistogramImageToImageMetric.html" target="_top" xlink:title="Computes similarity between two objects to be registered.">
<polygon fill="white" stroke="black" points="0,-156.5 0,-186.5 211,-186.5 211,-156.5 0,-156.5"/>
<text text-anchor="start" x="8" y="-174.5" font-family="Helvetica,sans-Serif" font-size="10.00">itk::HistogramImageToImage</text>
<text text-anchor="middle" x="105.5" y="-163.5" font-family="Helvetica,sans-Serif" font-size="10.00">Metric&lt; TFixedImage, TMovingImage &gt;</text>
</a>
</g>
</g>
<!-- Node3&#45;&gt;Node2 -->
<g id="edge2" class="edge">
<title>Node3&#45;&gt;Node2</title>
<path fill="none" stroke="midnightblue" d="M105.5,-145.98C105.5,-137.35 105.5,-127.76 105.5,-119.59"/>
<polygon fill="midnightblue" stroke="midnightblue" points="102,-146.23 105.5,-156.23 109,-146.23 102,-146.23"/>
</g>
<!-- Node4 -->
<g id="node4" class="node">
<title>Node4</title>
<g id="a_node4"><a xlink:href="classitk_1_1ImageToImageMetric.html" target="_top" xlink:title="Computes similarity between regions of two images.">
<polygon fill="white" stroke="black" points="15.5,-223.5 15.5,-253.5 195.5,-253.5 195.5,-223.5 15.5,-223.5"/>
<text text-anchor="start" x="23.5" y="-241.5" font-family="Helvetica,sans-Serif" font-size="10.00">itk::ImageToImageMetric</text>
<text text-anchor="middle" x="105.5" y="-230.5" font-family="Helvetica,sans-Serif" font-size="10.00">&lt; TFixedImage, TMovingImage &gt;</text>
</a>
</g>
</g>
<!-- Node4&#45;&gt;Node3 -->
<g id="edge3" class="edge">
<title>Node4&#45;&gt;Node3</title>
<path fill="none" stroke="midnightblue" d="M105.5,-213.11C105.5,-204.15 105.5,-194.32 105.5,-186.58"/>
<polygon fill="midnightblue" stroke="midnightblue" points="102,-213.4 105.5,-223.4 109,-213.4 102,-213.4"/>
</g>
<!-- Node5 -->
<g id="node5" class="node">
<title>Node5</title>
<g id="a_node5"><a xlink:href="classitk_1_1SingleValuedCostFunction.html" target="_top" xlink:title="This class is a base for the CostFunctions returning a single value.">
<polygon fill="white" stroke="black" points="25,-290.5 25,-309.5 186,-309.5 186,-290.5 25,-290.5"/>
<text text-anchor="middle" x="105.5" y="-297.5" font-family="Helvetica,sans-Serif" font-size="10.00">itk::SingleValuedCostFunction</text>
</a>
</g>
</g>
<!-- Node5&#45;&gt;Node4 -->
<g id="edge4" class="edge">
<title>Node5&#45;&gt;Node4</title>
<path fill="none" stroke="midnightblue" d="M105.5,-280.23C105.5,-271.59 105.5,-261.5 105.5,-253.52"/>
<polygon fill="midnightblue" stroke="midnightblue" points="102,-280.48 105.5,-290.48 109,-280.48 102,-280.48"/>
</g>
<!-- Node6 -->
<g id="node6" class="node">
<title>Node6</title>
<g id="a_node6"><a xlink:href="classitk_1_1CostFunctionTemplate.html" target="_top" xlink:title=" ">
<polygon fill="white" stroke="black" points="65.5,-346.5 65.5,-365.5 145.5,-365.5 145.5,-346.5 65.5,-346.5"/>
<text text-anchor="middle" x="105.5" y="-353.5" font-family="Helvetica,sans-Serif" font-size="10.00">CostFunction</text>
</a>
</g>
</g>
<!-- Node6&#45;&gt;Node5 -->
<g id="edge5" class="edge">
<title>Node6&#45;&gt;Node5</title>
<path fill="none" stroke="midnightblue" d="M105.5,-335.8C105.5,-326.91 105.5,-316.78 105.5,-309.75"/>
<polygon fill="midnightblue" stroke="midnightblue" points="102,-336.08 105.5,-346.08 109,-336.08 102,-336.08"/>
</g>
<!-- Node7 -->
<g id="node7" class="node">
<title>Node7</title>
<g id="a_node7"><a xlink:href="classitk_1_1Object.html" target="_top" xlink:title="Base class for most ITK classes.">
<polygon fill="white" stroke="black" points="72,-402.5 72,-421.5 139,-421.5 139,-402.5 72,-402.5"/>
<text text-anchor="middle" x="105.5" y="-409.5" font-family="Helvetica,sans-Serif" font-size="10.00">itk::Object</text>
</a>
</g>
</g>
<!-- Node7&#45;&gt;Node6 -->
<g id="edge6" class="edge">
<title>Node7&#45;&gt;Node6</title>
<path fill="none" stroke="midnightblue" d="M105.5,-391.8C105.5,-382.91 105.5,-372.78 105.5,-365.75"/>
<polygon fill="midnightblue" stroke="midnightblue" points="102,-392.08 105.5,-402.08 109,-392.08 102,-392.08"/>
</g>
<!-- Node8 -->
<g id="node8" class="node">
<title>Node8</title>
<g id="a_node8"><a xlink:href="classitk_1_1LightObject.html" target="_top" xlink:title="Light weight base class for most itk classes.">
<polygon fill="white" stroke="black" points="60,-458.5 60,-477.5 151,-477.5 151,-458.5 60,-458.5"/>
<text text-anchor="middle" x="105.5" y="-465.5" font-family="Helvetica,sans-Serif" font-size="10.00">itk::LightObject</text>
</a>
</g>
</g>
<!-- Node8&#45;&gt;Node7 -->
<g id="edge7" class="edge">
<title>Node8&#45;&gt;Node7</title>
<path fill="none" stroke="midnightblue" d="M105.5,-447.8C105.5,-438.91 105.5,-428.78 105.5,-421.75"/>
<polygon fill="midnightblue" stroke="midnightblue" points="102,-448.08 105.5,-458.08 109,-448.08 102,-448.08"/>
</g>
</g>
</svg>
