<?xml version="1.0" encoding="UTF-8" standalone="no"?>
<!DOCTYPE svg PUBLIC "-//W3C//DTD SVG 1.1//EN"
 "http://www.w3.org/Graphics/SVG/1.1/DTD/svg11.dtd">
<!-- Generated by graphviz version 2.43.0 (0)
 -->
<!-- Title: itk::ForwardDifferenceOperator&lt; TPixel, VDimension, TAllocator &gt; Pages: 1 -->
<svg width="196pt" height="206pt"
 viewBox="0.00 0.00 196.00 206.00" xmlns="http://www.w3.org/2000/svg" xmlns:xlink="http://www.w3.org/1999/xlink">
<g id="graph0" class="graph" transform="scale(1 1) rotate(0) translate(4 202)">
<title>itk::ForwardDifferenceOperator&lt; TPixel, VDimension, TAllocator &gt;</title>
<polygon fill="white" stroke="transparent" points="-4,4 -4,-202 192,-202 192,4 -4,4"/>
<!-- Node1 -->
<g id="node1" class="node">
<title>Node1</title>
<g id="a_node1"><a xlink:title="Operator whose inner product with a neighborhood returns a &quot;half&quot; derivative at the center of the nei...">
<polygon fill="#bfbfbf" stroke="black" points="0,-0.5 0,-30.5 188,-30.5 188,-0.5 0,-0.5"/>
<text text-anchor="start" x="8" y="-18.5" font-family="Helvetica,sans-Serif" font-size="10.00">itk::ForwardDifferenceOperator</text>
<text text-anchor="middle" x="94" y="-7.5" font-family="Helvetica,sans-Serif" font-size="10.00">&lt; TPixel, VDimension, TAllocator &gt;</text>
</a>
</g>
</g>
<!-- Node2 -->
<g id="node2" class="node">
<title>Node2</title>
<g id="a_node2"><a xlink:href="classitk_1_1NeighborhoodOperator.html" target="_top" xlink:title=" ">
<polygon fill="white" stroke="black" points="0.5,-67.5 0.5,-108.5 187.5,-108.5 187.5,-67.5 0.5,-67.5"/>
<text text-anchor="start" x="8.5" y="-96.5" font-family="Helvetica,sans-Serif" font-size="10.00">itk::NeighborhoodOperator</text>
<text text-anchor="start" x="8.5" y="-85.5" font-family="Helvetica,sans-Serif" font-size="10.00">&lt; TPixel, 2, NeighborhoodAllocator</text>
<text text-anchor="middle" x="94" y="-74.5" font-family="Helvetica,sans-Serif" font-size="10.00">&lt; TPixel &gt; &gt;</text>
</a>
</g>
</g>
<!-- Node2&#45;&gt;Node1 -->
<g id="edge1" class="edge">
<title>Node2&#45;&gt;Node1</title>
<path fill="none" stroke="midnightblue" d="M94,-57.08C94,-48.01 94,-38.45 94,-30.89"/>
<polygon fill="midnightblue" stroke="midnightblue" points="90.5,-57.36 94,-67.36 97.5,-57.36 90.5,-57.36"/>
</g>
<!-- Node3 -->
<g id="node3" class="node">
<title>Node3</title>
<g id="a_node3"><a xlink:href="classitk_1_1Neighborhood.html" target="_top" xlink:title=" ">
<polygon fill="white" stroke="black" points="28.5,-145.5 28.5,-197.5 159.5,-197.5 159.5,-145.5 28.5,-145.5"/>
<text text-anchor="start" x="36.5" y="-185.5" font-family="Helvetica,sans-Serif" font-size="10.00">itk::Neighborhood&lt;</text>
<text text-anchor="start" x="36.5" y="-174.5" font-family="Helvetica,sans-Serif" font-size="10.00"> TPixel, VDimension,</text>
<text text-anchor="start" x="36.5" y="-163.5" font-family="Helvetica,sans-Serif" font-size="10.00"> NeighborhoodAllocator</text>
<text text-anchor="middle" x="94" y="-152.5" font-family="Helvetica,sans-Serif" font-size="10.00">&lt; TPixel &gt; &gt;</text>
</a>
</g>
</g>
<!-- Node3&#45;&gt;Node2 -->
<g id="edge2" class="edge">
<title>Node3&#45;&gt;Node2</title>
<path fill="none" stroke="midnightblue" d="M94,-135.15C94,-126.05 94,-116.6 94,-108.63"/>
<polygon fill="midnightblue" stroke="midnightblue" points="90.5,-135.16 94,-145.16 97.5,-135.16 90.5,-135.16"/>
</g>
</g>
</svg>
