<?xml version="1.0" encoding="UTF-8" standalone="no"?>
<!DOCTYPE svg PUBLIC "-//W3C//DTD SVG 1.1//EN"
 "http://www.w3.org/Graphics/SVG/1.1/DTD/svg11.dtd">
<!-- Generated by graphviz version 2.43.0 (0)
 -->
<!-- Title: itk::ImageMomentsCalculator&lt; TImage &gt; Pages: 1 -->
<svg width="1399pt" height="262pt"
 viewBox="0.00 0.00 1399.00 261.50" xmlns="http://www.w3.org/2000/svg" xmlns:xlink="http://www.w3.org/1999/xlink">
<g id="graph0" class="graph" transform="scale(1 1) rotate(0) translate(4 257.5)">
<title>itk::ImageMomentsCalculator&lt; TImage &gt;</title>
<polygon fill="white" stroke="transparent" points="-4,4 -4,-257.5 1395,-257.5 1395,4 -4,4"/>
<!-- Node1 -->
<g id="node1" class="node">
<title>Node1</title>
<g id="a_node1"><a xlink:title="Compute moments of an n&#45;dimensional image.">
<polygon fill="#bfbfbf" stroke="black" points="1230,-77.5 1230,-107.5 1391,-107.5 1391,-77.5 1230,-77.5"/>
<text text-anchor="start" x="1238" y="-95.5" font-family="Helvetica,sans-Serif" font-size="10.00">itk::ImageMomentsCalculator</text>
<text text-anchor="middle" x="1310.5" y="-84.5" font-family="Helvetica,sans-Serif" font-size="10.00">&lt; TImage &gt;</text>
</a>
</g>
</g>
<!-- Node2 -->
<g id="node2" class="node">
<title>Node2</title>
<g id="a_node2"><a xlink:href="classitk_1_1Object.html" target="_top" xlink:title="Base class for most ITK classes.">
<polygon fill="white" stroke="black" points="981.5,-160 981.5,-179 1048.5,-179 1048.5,-160 981.5,-160"/>
<text text-anchor="middle" x="1015" y="-167" font-family="Helvetica,sans-Serif" font-size="10.00">itk::Object</text>
</a>
</g>
</g>
<!-- Node2&#45;&gt;Node1 -->
<g id="edge1" class="edge">
<title>Node2&#45;&gt;Node1</title>
<path fill="none" stroke="midnightblue" d="M1058.81,-169.95C1099.24,-169.2 1161.1,-165.03 1212,-148.5 1240.59,-139.21 1270.07,-120.83 1289.02,-107.66"/>
<polygon fill="midnightblue" stroke="midnightblue" points="1058.72,-166.45 1048.76,-170.07 1058.8,-173.45 1058.72,-166.45"/>
</g>
<!-- Node3 -->
<g id="node3" class="node">
<title>Node3</title>
<g id="a_node3"><a xlink:href="classitk_1_1LightObject.html" target="_top" xlink:title="Light weight base class for most itk classes.">
<polygon fill="white" stroke="black" points="670.5,-231 670.5,-250 761.5,-250 761.5,-231 670.5,-231"/>
<text text-anchor="middle" x="716" y="-238" font-family="Helvetica,sans-Serif" font-size="10.00">itk::LightObject</text>
</a>
</g>
</g>
<!-- Node3&#45;&gt;Node2 -->
<g id="edge2" class="edge">
<title>Node3&#45;&gt;Node2</title>
<path fill="none" stroke="midnightblue" d="M771.62,-234.02C814.62,-228.18 875.81,-218.23 928,-203.5 950.87,-197.05 976.04,-186.69 993.21,-179.1"/>
<polygon fill="midnightblue" stroke="midnightblue" points="771.09,-230.56 761.64,-235.35 772.01,-237.5 771.09,-230.56"/>
</g>
<!-- Node4 -->
<g id="node4" class="node">
<title>Node4</title>
<g id="a_node4"><a xlink:title=" ">
<polygon fill="white" stroke="#bfbfbf" points="378,-234 378,-253 485,-253 485,-234 378,-234"/>
<text text-anchor="middle" x="431.5" y="-241" font-family="Helvetica,sans-Serif" font-size="10.00">std::atomic&lt; int &gt;</text>
</a>
</g>
</g>
<!-- Node4&#45;&gt;Node3 -->
<g id="edge3" class="edge">
<title>Node4&#45;&gt;Node3</title>
<path fill="none" stroke="#9a32cd" stroke-dasharray="5,2" d="M495.62,-242.83C548.71,-242.27 623.28,-241.47 670.36,-240.97"/>
<polygon fill="#9a32cd" stroke="#9a32cd" points="495.27,-239.33 485.3,-242.94 495.34,-246.33 495.27,-239.33"/>
<text text-anchor="middle" x="572.5" y="-244.5" font-family="Helvetica,sans-Serif" font-size="10.00"> m_ReferenceCount</text>
</g>
<!-- Node5 -->
<g id="node5" class="node">
<title>Node5</title>
<g id="a_node5"><a xlink:title="STL class.">
<polygon fill="white" stroke="#bfbfbf" points="683.5,-189 683.5,-208 748.5,-208 748.5,-189 683.5,-189"/>
<text text-anchor="middle" x="716" y="-196" font-family="Helvetica,sans-Serif" font-size="10.00">std::string</text>
</a>
</g>
</g>
<!-- Node5&#45;&gt;Node2 -->
<g id="edge4" class="edge">
<title>Node5&#45;&gt;Node2</title>
<path fill="none" stroke="#9a32cd" stroke-dasharray="5,2" d="M758.72,-194.43C818.49,-188.59 927.26,-177.97 981.47,-172.68"/>
<polygon fill="#9a32cd" stroke="#9a32cd" points="758.12,-190.97 748.5,-195.42 758.8,-197.94 758.12,-190.97"/>
<text text-anchor="middle" x="869.5" y="-191.5" font-family="Helvetica,sans-Serif" font-size="10.00"> m_ObjectName</text>
</g>
<!-- Node6 -->
<g id="node6" class="node">
<title>Node6</title>
<g id="a_node6"><a xlink:title="STL class.">
<polygon fill="white" stroke="#bfbfbf" points="379.5,-184.5 379.5,-214.5 483.5,-214.5 483.5,-184.5 379.5,-184.5"/>
<text text-anchor="start" x="387.5" y="-202.5" font-family="Helvetica,sans-Serif" font-size="10.00">std::basic_string&lt;</text>
<text text-anchor="middle" x="431.5" y="-191.5" font-family="Helvetica,sans-Serif" font-size="10.00"> char &gt;</text>
</a>
</g>
</g>
<!-- Node6&#45;&gt;Node5 -->
<g id="edge5" class="edge">
<title>Node6&#45;&gt;Node5</title>
<path fill="none" stroke="midnightblue" d="M493.87,-199.28C552.27,-199.08 637.81,-198.77 683.49,-198.61"/>
<polygon fill="midnightblue" stroke="midnightblue" points="493.65,-195.78 483.66,-199.32 493.67,-202.78 493.65,-195.78"/>
</g>
<!-- Node7 -->
<g id="node7" class="node">
<title>Node7</title>
<g id="a_node7"><a xlink:href="classitk_1_1MetaDataDictionary.html" target="_top" xlink:title="Provides a mechanism for storing a collection of arbitrary data types.">
<polygon fill="white" stroke="black" points="649,-149 649,-168 783,-168 783,-149 649,-149"/>
<text text-anchor="middle" x="716" y="-156" font-family="Helvetica,sans-Serif" font-size="10.00">itk::MetaDataDictionary</text>
</a>
</g>
</g>
<!-- Node7&#45;&gt;Node2 -->
<g id="edge6" class="edge">
<title>Node7&#45;&gt;Node2</title>
<path fill="none" stroke="#9a32cd" stroke-dasharray="5,2" d="M793.31,-160.12C833.41,-161.12 883.37,-162.57 928,-164.5 945.63,-165.26 965.28,-166.38 981.34,-167.37"/>
<polygon fill="#9a32cd" stroke="#9a32cd" points="793.15,-156.62 783.07,-159.88 792.98,-163.62 793.15,-156.62"/>
<text text-anchor="middle" x="869.5" y="-167.5" font-family="Helvetica,sans-Serif" font-size="10.00"> m_MetaDataDictionary</text>
</g>
<!-- Node8 -->
<g id="node8" class="node">
<title>Node8</title>
<g id="a_node8"><a xlink:title=" ">
<polygon fill="white" stroke="#bfbfbf" points="357,-135.5 357,-165.5 506,-165.5 506,-135.5 357,-135.5"/>
<text text-anchor="start" x="365" y="-153.5" font-family="Helvetica,sans-Serif" font-size="10.00">std::shared_ptr&lt; MetaData</text>
<text text-anchor="middle" x="431.5" y="-142.5" font-family="Helvetica,sans-Serif" font-size="10.00">DictionaryMapType &gt;</text>
</a>
</g>
</g>
<!-- Node8&#45;&gt;Node7 -->
<g id="edge7" class="edge">
<title>Node8&#45;&gt;Node7</title>
<path fill="none" stroke="#9a32cd" stroke-dasharray="5,2" d="M516.36,-152.87C558.68,-154.07 609.27,-155.51 648.81,-156.63"/>
<polygon fill="#9a32cd" stroke="#9a32cd" points="516.45,-149.38 506.35,-152.59 516.25,-156.37 516.45,-149.38"/>
<text text-anchor="middle" x="572.5" y="-158.5" font-family="Helvetica,sans-Serif" font-size="10.00"> m_Dictionary</text>
</g>
<!-- Node9 -->
<g id="node9" class="node">
<title>Node9</title>
<g id="a_node9"><a xlink:title="STL class.">
<polygon fill="white" stroke="#bfbfbf" points="114,-141 114,-160 215,-160 215,-141 114,-141"/>
<text text-anchor="middle" x="164.5" y="-148" font-family="Helvetica,sans-Serif" font-size="10.00">std::map&lt; K, T &gt;</text>
</a>
</g>
</g>
<!-- Node9&#45;&gt;Node8 -->
<g id="edge8" class="edge">
<title>Node9&#45;&gt;Node8</title>
<path fill="none" stroke="#9a32cd" stroke-dasharray="5,2" d="M225.18,-150.5C264.19,-150.5 315.41,-150.5 356.93,-150.5"/>
<polygon fill="#9a32cd" stroke="#9a32cd" points="225.03,-147 215.03,-150.5 225.03,-154 225.03,-147"/>
<text text-anchor="middle" x="286" y="-153.5" font-family="Helvetica,sans-Serif" font-size="10.00"> ptr</text>
</g>
<!-- Node10 -->
<g id="node10" class="node">
<title>Node10</title>
<g id="a_node10"><a xlink:title=" ">
<polygon fill="white" stroke="#bfbfbf" points="0,-165 0,-184 29,-184 29,-165 0,-165"/>
<text text-anchor="middle" x="14.5" y="-172" font-family="Helvetica,sans-Serif" font-size="10.00">K</text>
</a>
</g>
</g>
<!-- Node10&#45;&gt;Node9 -->
<g id="edge9" class="edge">
<title>Node10&#45;&gt;Node9</title>
<path fill="none" stroke="#9a32cd" stroke-dasharray="5,2" d="M39.24,-170.65C59.28,-167.4 88.63,-162.64 113.78,-158.56"/>
<polygon fill="#9a32cd" stroke="#9a32cd" points="38.47,-167.23 29.16,-172.29 39.59,-174.14 38.47,-167.23"/>
<text text-anchor="middle" x="71.5" y="-171.5" font-family="Helvetica,sans-Serif" font-size="10.00"> keys</text>
</g>
<!-- Node11 -->
<g id="node11" class="node">
<title>Node11</title>
<g id="a_node11"><a xlink:title=" ">
<polygon fill="white" stroke="#bfbfbf" points="0,-112 0,-131 29,-131 29,-112 0,-112"/>
<text text-anchor="middle" x="14.5" y="-119" font-family="Helvetica,sans-Serif" font-size="10.00">T</text>
</a>
</g>
</g>
<!-- Node11&#45;&gt;Node9 -->
<g id="edge10" class="edge">
<title>Node11&#45;&gt;Node9</title>
<path fill="none" stroke="#9a32cd" stroke-dasharray="5,2" d="M39.09,-126.12C59.39,-130.1 89.35,-135.97 114.78,-140.95"/>
<polygon fill="#9a32cd" stroke="#9a32cd" points="39.64,-122.66 29.16,-124.18 38.3,-129.53 39.64,-122.66"/>
<text text-anchor="middle" x="71.5" y="-139.5" font-family="Helvetica,sans-Serif" font-size="10.00"> elements</text>
</g>
<!-- Node13 -->
<g id="node13" class="node">
<title>Node13</title>
<g id="a_node13"><a xlink:title="STL class.">
<polygon fill="white" stroke="#bfbfbf" points="114.5,-97 114.5,-116 214.5,-116 214.5,-97 114.5,-97"/>
<text text-anchor="middle" x="164.5" y="-104" font-family="Helvetica,sans-Serif" font-size="10.00">std::atomic&lt; T &gt;</text>
</a>
</g>
</g>
<!-- Node11&#45;&gt;Node13 -->
<g id="edge13" class="edge">
<title>Node11&#45;&gt;Node13</title>
<path fill="none" stroke="#9a32cd" stroke-dasharray="5,2" d="M38.4,-110.04C41.24,-109.01 44.15,-108.12 47,-107.5 68.74,-102.79 93.31,-101.94 114.26,-102.51"/>
<polygon fill="#9a32cd" stroke="#9a32cd" points="37.03,-106.82 29.19,-113.95 39.77,-113.27 37.03,-106.82"/>
<text text-anchor="middle" x="71.5" y="-110.5" font-family="Helvetica,sans-Serif" font-size="10.00"> ptr</text>
</g>
<!-- Node12 -->
<g id="node12" class="node">
<title>Node12</title>
<g id="a_node12"><a xlink:href="classitk_1_1TimeStamp.html" target="_top" xlink:title="Generate a unique, increasing time value.">
<polygon fill="white" stroke="black" points="526.5,-103 526.5,-122 618.5,-122 618.5,-103 526.5,-103"/>
<text text-anchor="middle" x="572.5" y="-110" font-family="Helvetica,sans-Serif" font-size="10.00">itk::TimeStamp</text>
</a>
</g>
</g>
<!-- Node12&#45;&gt;Node2 -->
<g id="edge11" class="edge">
<title>Node12&#45;&gt;Node2</title>
<path fill="none" stroke="#9a32cd" stroke-dasharray="5,2" d="M628.65,-114.83C673.15,-117.11 737.28,-121.32 793,-128.5 860.34,-137.17 938.24,-153 981.23,-162.24"/>
<polygon fill="#9a32cd" stroke="#9a32cd" points="628.79,-111.33 618.63,-114.33 628.44,-118.32 628.79,-111.33"/>
<text text-anchor="middle" x="716" y="-131.5" font-family="Helvetica,sans-Serif" font-size="10.00"> m_MTime</text>
</g>
<!-- Node13&#45;&gt;Node12 -->
<g id="edge12" class="edge">
<title>Node13&#45;&gt;Node12</title>
<path fill="none" stroke="#9a32cd" stroke-dasharray="5,2" d="M225.03,-107.38C306.93,-108.59 452.57,-110.74 526.2,-111.83"/>
<polygon fill="#9a32cd" stroke="#9a32cd" points="224.93,-103.88 214.88,-107.23 224.82,-110.88 224.93,-103.88"/>
<text text-anchor="middle" x="286" y="-111.5" font-family="Helvetica,sans-Serif" font-size="10.00"> m_GlobalTimeStamp</text>
</g>
<!-- Node14 -->
<g id="node14" class="node">
<title>Node14</title>
<g id="a_node14"><a xlink:href="classitk_1_1Matrix.html" target="_top" xlink:title=" ">
<polygon fill="white" stroke="black" points="946,-100 946,-141 1084,-141 1084,-100 946,-100"/>
<text text-anchor="start" x="954" y="-129" font-family="Helvetica,sans-Serif" font-size="10.00">itk::Matrix&lt; ScalarType,</text>
<text text-anchor="start" x="954" y="-118" font-family="Helvetica,sans-Serif" font-size="10.00"> Self::ImageDimension,</text>
<text text-anchor="middle" x="1015" y="-107" font-family="Helvetica,sans-Serif" font-size="10.00"> Self::ImageDimension &gt;</text>
</a>
</g>
</g>
<!-- Node14&#45;&gt;Node1 -->
<g id="edge14" class="edge">
<title>Node14&#45;&gt;Node1</title>
<path fill="none" stroke="#9a32cd" stroke-dasharray="5,2" d="M1094.24,-113.04C1136.16,-109.04 1187.7,-104.12 1229.83,-100.1"/>
<polygon fill="#9a32cd" stroke="#9a32cd" points="1093.69,-109.57 1084.07,-114.01 1094.36,-116.54 1093.69,-109.57"/>
<text text-anchor="middle" x="1157" y="-136.5" font-family="Helvetica,sans-Serif" font-size="10.00"> m_Pa</text>
<text text-anchor="middle" x="1157" y="-125.5" font-family="Helvetica,sans-Serif" font-size="10.00">m_M2</text>
<text text-anchor="middle" x="1157" y="-114.5" font-family="Helvetica,sans-Serif" font-size="10.00">m_Cm</text>
</g>
<!-- Node15 -->
<g id="node15" class="node">
<title>Node15</title>
<g id="a_node15"><a xlink:href="classitk_1_1Vector.html" target="_top" xlink:title=" ">
<polygon fill="white" stroke="black" points="946,-49.5 946,-79.5 1084,-79.5 1084,-49.5 946,-49.5"/>
<text text-anchor="start" x="954" y="-67.5" font-family="Helvetica,sans-Serif" font-size="10.00">itk::Vector&lt; ScalarType,</text>
<text text-anchor="middle" x="1015" y="-56.5" font-family="Helvetica,sans-Serif" font-size="10.00"> Self::ImageDimension &gt;</text>
</a>
</g>
</g>
<!-- Node15&#45;&gt;Node1 -->
<g id="edge15" class="edge">
<title>Node15&#45;&gt;Node1</title>
<path fill="none" stroke="#9a32cd" stroke-dasharray="5,2" d="M1094.78,-59.5C1130.69,-58.5 1173.66,-59.1 1212,-64.5 1230.31,-67.08 1250,-72.25 1266.86,-77.46"/>
<polygon fill="#9a32cd" stroke="#9a32cd" points="1094.24,-56.02 1084.36,-59.84 1094.47,-63.02 1094.24,-56.02"/>
<text text-anchor="middle" x="1157" y="-89.5" font-family="Helvetica,sans-Serif" font-size="10.00"> m_Cg</text>
<text text-anchor="middle" x="1157" y="-78.5" font-family="Helvetica,sans-Serif" font-size="10.00">m_M1</text>
<text text-anchor="middle" x="1157" y="-67.5" font-family="Helvetica,sans-Serif" font-size="10.00">m_Pm</text>
</g>
<!-- Node16 -->
<g id="node16" class="node">
<title>Node16</title>
<g id="a_node16"><a xlink:href="classitk_1_1FixedArray.html" target="_top" xlink:title=" ">
<polygon fill="white" stroke="black" points="639,-49.5 639,-79.5 793,-79.5 793,-49.5 639,-49.5"/>
<text text-anchor="start" x="647" y="-67.5" font-family="Helvetica,sans-Serif" font-size="10.00">itk::FixedArray&lt; ScalarType,</text>
<text text-anchor="middle" x="716" y="-56.5" font-family="Helvetica,sans-Serif" font-size="10.00"> VVectorDimension &gt;</text>
</a>
</g>
</g>
<!-- Node16&#45;&gt;Node15 -->
<g id="edge16" class="edge">
<title>Node16&#45;&gt;Node15</title>
<path fill="none" stroke="midnightblue" d="M803.21,-64.5C848.55,-64.5 903.35,-64.5 945.71,-64.5"/>
<polygon fill="midnightblue" stroke="midnightblue" points="803.1,-61 793.1,-64.5 803.1,-68 803.1,-61"/>
</g>
<!-- Node17 -->
<g id="node17" class="node">
<title>Node17</title>
<g id="a_node17"><a xlink:title=" ">
<polygon fill="white" stroke="#bfbfbf" points="403.5,-55 403.5,-74 459.5,-74 459.5,-55 403.5,-55"/>
<text text-anchor="middle" x="431.5" y="-62" font-family="Helvetica,sans-Serif" font-size="10.00">VLength</text>
</a>
</g>
</g>
<!-- Node17&#45;&gt;Node16 -->
<g id="edge17" class="edge">
<title>Node17&#45;&gt;Node16</title>
<path fill="none" stroke="#9a32cd" stroke-dasharray="5,2" d="M469.84,-64.5C512.69,-64.5 584.08,-64.5 638.81,-64.5"/>
<polygon fill="#9a32cd" stroke="#9a32cd" points="469.59,-61 459.59,-64.5 469.59,-68 469.59,-61"/>
<text text-anchor="middle" x="572.5" y="-67.5" font-family="Helvetica,sans-Serif" font-size="10.00"> m_InternalArray</text>
</g>
<!-- Node18 -->
<g id="node18" class="node">
<title>Node18</title>
<g id="a_node18"><a xlink:href="classitk_1_1SmartPointer.html" target="_top" xlink:title="Implements transparent reference counting.">
<polygon fill="white" stroke="black" points="961.5,-0.5 961.5,-30.5 1068.5,-30.5 1068.5,-0.5 961.5,-0.5"/>
<text text-anchor="start" x="969.5" y="-18.5" font-family="Helvetica,sans-Serif" font-size="10.00">itk::SmartPointer&lt;</text>
<text text-anchor="middle" x="1015" y="-7.5" font-family="Helvetica,sans-Serif" font-size="10.00"> TObjectType &gt;</text>
</a>
</g>
</g>
<!-- Node18&#45;&gt;Node1 -->
<g id="edge18" class="edge">
<title>Node18&#45;&gt;Node1</title>
<path fill="none" stroke="#9a32cd" stroke-dasharray="5,2" d="M1078.77,-19.28C1117.8,-22.89 1168.64,-29.91 1212,-43.5 1238.21,-51.72 1266.01,-66.35 1285.19,-77.49"/>
<polygon fill="#9a32cd" stroke="#9a32cd" points="1078.87,-15.77 1068.6,-18.39 1078.26,-22.74 1078.87,-15.77"/>
<text text-anchor="middle" x="1157" y="-46.5" font-family="Helvetica,sans-Serif" font-size="10.00"> m_SpatialObjectMask</text>
</g>
</g>
</svg>
