<?xml version="1.0" encoding="UTF-8" standalone="no"?>
<!DOCTYPE svg PUBLIC "-//W3C//DTD SVG 1.1//EN"
 "http://www.w3.org/Graphics/SVG/1.1/DTD/svg11.dtd">
<!-- Generated by graphviz version 2.43.0 (0)
 -->
<!-- Title: itk::LevelSetEvolution&lt; TEquationContainer, WhitakerSparseLevelSetImage&lt; TOutput, VDimension &gt; &gt; Pages: 1 -->
<svg width="1695pt" height="185pt"
 viewBox="0.00 0.00 1695.00 184.50" xmlns="http://www.w3.org/2000/svg" xmlns:xlink="http://www.w3.org/1999/xlink">
<g id="graph0" class="graph" transform="scale(1 1) rotate(0) translate(4 180.5)">
<title>itk::LevelSetEvolution&lt; TEquationContainer, WhitakerSparseLevelSetImage&lt; TOutput, VDimension &gt; &gt;</title>
<polygon fill="white" stroke="transparent" points="-4,4 -4,-180.5 1691,-180.5 1691,4 -4,4"/>
<!-- Node1 -->
<g id="node1" class="node">
<title>Node1</title>
<g id="a_node1"><a xlink:title=" ">
<polygon fill="#bfbfbf" stroke="black" points="1518,-2.5 1518,-54.5 1687,-54.5 1687,-2.5 1518,-2.5"/>
<text text-anchor="start" x="1526" y="-42.5" font-family="Helvetica,sans-Serif" font-size="10.00">itk::LevelSetEvolution</text>
<text text-anchor="start" x="1526" y="-31.5" font-family="Helvetica,sans-Serif" font-size="10.00">&lt; TEquationContainer,</text>
<text text-anchor="start" x="1526" y="-20.5" font-family="Helvetica,sans-Serif" font-size="10.00"> WhitakerSparseLevelSetImage</text>
<text text-anchor="middle" x="1602.5" y="-9.5" font-family="Helvetica,sans-Serif" font-size="10.00">&lt; TOutput, VDimension &gt; &gt;</text>
</a>
</g>
</g>
<!-- Node2 -->
<g id="node2" class="node">
<title>Node2</title>
<g id="a_node2"><a xlink:href="classitk_1_1LevelSetEvolutionBase.html" target="_top" xlink:title=" ">
<polygon fill="white" stroke="black" points="1172,-50 1172,-91 1399,-91 1399,-50 1172,-50"/>
<text text-anchor="start" x="1180" y="-79" font-family="Helvetica,sans-Serif" font-size="10.00">itk::LevelSetEvolutionBase</text>
<text text-anchor="start" x="1180" y="-68" font-family="Helvetica,sans-Serif" font-size="10.00">&lt; TEquationContainer, WhitakerSparse</text>
<text text-anchor="middle" x="1285.5" y="-57" font-family="Helvetica,sans-Serif" font-size="10.00">LevelSetImage&lt; TOutput, VDimension &gt; &gt;</text>
</a>
</g>
</g>
<!-- Node2&#45;&gt;Node1 -->
<g id="edge1" class="edge">
<title>Node2&#45;&gt;Node1</title>
<path fill="none" stroke="midnightblue" d="M1409.47,-54.1C1445.69,-49.27 1484.46,-44.1 1517.62,-39.68"/>
<polygon fill="midnightblue" stroke="midnightblue" points="1408.78,-50.66 1399.33,-55.46 1409.71,-57.6 1408.78,-50.66"/>
</g>
<!-- Node3 -->
<g id="node3" class="node">
<title>Node3</title>
<g id="a_node3"><a xlink:href="classitk_1_1Object.html" target="_top" xlink:title="Base class for most ITK classes.">
<polygon fill="white" stroke="black" points="946,-88 946,-107 1013,-107 1013,-88 946,-88"/>
<text text-anchor="middle" x="979.5" y="-95" font-family="Helvetica,sans-Serif" font-size="10.00">itk::Object</text>
</a>
</g>
</g>
<!-- Node3&#45;&gt;Node2 -->
<g id="edge2" class="edge">
<title>Node3&#45;&gt;Node2</title>
<path fill="none" stroke="midnightblue" d="M1023.33,-93.7C1061.79,-90.28 1119.97,-85.11 1171.67,-80.52"/>
<polygon fill="midnightblue" stroke="midnightblue" points="1022.68,-90.24 1013.03,-94.61 1023.3,-97.21 1022.68,-90.24"/>
</g>
<!-- Node4 -->
<g id="node4" class="node">
<title>Node4</title>
<g id="a_node4"><a xlink:href="classitk_1_1LightObject.html" target="_top" xlink:title="Light weight base class for most itk classes.">
<polygon fill="white" stroke="black" points="660.5,-152 660.5,-171 751.5,-171 751.5,-152 660.5,-152"/>
<text text-anchor="middle" x="706" y="-159" font-family="Helvetica,sans-Serif" font-size="10.00">itk::LightObject</text>
</a>
</g>
</g>
<!-- Node4&#45;&gt;Node3 -->
<g id="edge3" class="edge">
<title>Node4&#45;&gt;Node3</title>
<path fill="none" stroke="midnightblue" d="M761.91,-154.7C802.7,-148.92 859.44,-139.34 908,-125.5 925.1,-120.63 943.77,-113.11 957.6,-107.09"/>
<polygon fill="midnightblue" stroke="midnightblue" points="761.32,-151.25 751.89,-156.09 762.28,-158.18 761.32,-151.25"/>
</g>
<!-- Node5 -->
<g id="node5" class="node">
<title>Node5</title>
<g id="a_node5"><a xlink:title=" ">
<polygon fill="white" stroke="#bfbfbf" points="378,-157 378,-176 485,-176 485,-157 378,-157"/>
<text text-anchor="middle" x="431.5" y="-164" font-family="Helvetica,sans-Serif" font-size="10.00">std::atomic&lt; int &gt;</text>
</a>
</g>
</g>
<!-- Node5&#45;&gt;Node4 -->
<g id="edge4" class="edge">
<title>Node5&#45;&gt;Node4</title>
<path fill="none" stroke="#9a32cd" stroke-dasharray="5,2" d="M495.18,-165.35C545.64,-164.42 615.33,-163.15 660.29,-162.32"/>
<polygon fill="#9a32cd" stroke="#9a32cd" points="494.97,-161.85 485.04,-165.54 495.1,-168.85 494.97,-161.85"/>
<text text-anchor="middle" x="572.5" y="-167.5" font-family="Helvetica,sans-Serif" font-size="10.00"> m_ReferenceCount</text>
</g>
<!-- Node6 -->
<g id="node6" class="node">
<title>Node6</title>
<g id="a_node6"><a xlink:title="STL class.">
<polygon fill="white" stroke="#bfbfbf" points="673.5,-108 673.5,-127 738.5,-127 738.5,-108 673.5,-108"/>
<text text-anchor="middle" x="706" y="-115" font-family="Helvetica,sans-Serif" font-size="10.00">std::string</text>
</a>
</g>
</g>
<!-- Node6&#45;&gt;Node3 -->
<g id="edge5" class="edge">
<title>Node6&#45;&gt;Node3</title>
<path fill="none" stroke="#9a32cd" stroke-dasharray="5,2" d="M748.98,-114.41C803.2,-110.41 896.47,-103.54 945.76,-99.91"/>
<polygon fill="#9a32cd" stroke="#9a32cd" points="748.39,-110.94 738.68,-115.17 748.91,-117.92 748.39,-110.94"/>
<text text-anchor="middle" x="849.5" y="-113.5" font-family="Helvetica,sans-Serif" font-size="10.00"> m_ObjectName</text>
</g>
<!-- Node7 -->
<g id="node7" class="node">
<title>Node7</title>
<g id="a_node7"><a xlink:title="STL class.">
<polygon fill="white" stroke="#bfbfbf" points="379.5,-107.5 379.5,-137.5 483.5,-137.5 483.5,-107.5 379.5,-107.5"/>
<text text-anchor="start" x="387.5" y="-125.5" font-family="Helvetica,sans-Serif" font-size="10.00">std::basic_string&lt;</text>
<text text-anchor="middle" x="431.5" y="-114.5" font-family="Helvetica,sans-Serif" font-size="10.00"> char &gt;</text>
</a>
</g>
</g>
<!-- Node7&#45;&gt;Node6 -->
<g id="edge6" class="edge">
<title>Node7&#45;&gt;Node6</title>
<path fill="none" stroke="midnightblue" d="M493.85,-121.37C549.49,-120.35 629.3,-118.89 673.14,-118.08"/>
<polygon fill="midnightblue" stroke="midnightblue" points="493.69,-117.88 483.76,-121.56 493.82,-124.88 493.69,-117.88"/>
</g>
<!-- Node8 -->
<g id="node8" class="node">
<title>Node8</title>
<g id="a_node8"><a xlink:href="classitk_1_1MetaDataDictionary.html" target="_top" xlink:title="Provides a mechanism for storing a collection of arbitrary data types.">
<polygon fill="white" stroke="black" points="639,-69 639,-88 773,-88 773,-69 639,-69"/>
<text text-anchor="middle" x="706" y="-76" font-family="Helvetica,sans-Serif" font-size="10.00">itk::MetaDataDictionary</text>
</a>
</g>
</g>
<!-- Node8&#45;&gt;Node3 -->
<g id="edge7" class="edge">
<title>Node8&#45;&gt;Node3</title>
<path fill="none" stroke="#9a32cd" stroke-dasharray="5,2" d="M783.67,-76.62C821.25,-76.57 867.12,-77.79 908,-82.5 920.43,-83.93 933.91,-86.54 945.72,-89.17"/>
<polygon fill="#9a32cd" stroke="#9a32cd" points="783.28,-73.12 773.3,-76.67 783.31,-80.12 783.28,-73.12"/>
<text text-anchor="middle" x="849.5" y="-85.5" font-family="Helvetica,sans-Serif" font-size="10.00"> m_MetaDataDictionary</text>
</g>
<!-- Node9 -->
<g id="node9" class="node">
<title>Node9</title>
<g id="a_node9"><a xlink:title=" ">
<polygon fill="white" stroke="#bfbfbf" points="357,-58.5 357,-88.5 506,-88.5 506,-58.5 357,-58.5"/>
<text text-anchor="start" x="365" y="-76.5" font-family="Helvetica,sans-Serif" font-size="10.00">std::shared_ptr&lt; MetaData</text>
<text text-anchor="middle" x="431.5" y="-65.5" font-family="Helvetica,sans-Serif" font-size="10.00">DictionaryMapType &gt;</text>
</a>
</g>
</g>
<!-- Node9&#45;&gt;Node8 -->
<g id="edge8" class="edge">
<title>Node9&#45;&gt;Node8</title>
<path fill="none" stroke="#9a32cd" stroke-dasharray="5,2" d="M516.34,-75.04C555.65,-75.76 601.82,-76.61 638.65,-77.28"/>
<polygon fill="#9a32cd" stroke="#9a32cd" points="516.3,-71.54 506.24,-74.85 516.18,-78.54 516.3,-71.54"/>
<text text-anchor="middle" x="572.5" y="-79.5" font-family="Helvetica,sans-Serif" font-size="10.00"> m_Dictionary</text>
</g>
<!-- Node10 -->
<g id="node10" class="node">
<title>Node10</title>
<g id="a_node10"><a xlink:title="STL class.">
<polygon fill="white" stroke="#bfbfbf" points="114,-64 114,-83 215,-83 215,-64 114,-64"/>
<text text-anchor="middle" x="164.5" y="-71" font-family="Helvetica,sans-Serif" font-size="10.00">std::map&lt; K, T &gt;</text>
</a>
</g>
</g>
<!-- Node10&#45;&gt;Node9 -->
<g id="edge9" class="edge">
<title>Node10&#45;&gt;Node9</title>
<path fill="none" stroke="#9a32cd" stroke-dasharray="5,2" d="M225.18,-73.5C264.19,-73.5 315.41,-73.5 356.93,-73.5"/>
<polygon fill="#9a32cd" stroke="#9a32cd" points="225.03,-70 215.03,-73.5 225.03,-77 225.03,-70"/>
<text text-anchor="middle" x="286" y="-76.5" font-family="Helvetica,sans-Serif" font-size="10.00"> ptr</text>
</g>
<!-- Node11 -->
<g id="node11" class="node">
<title>Node11</title>
<g id="a_node11"><a xlink:title=" ">
<polygon fill="white" stroke="#bfbfbf" points="0,-88 0,-107 29,-107 29,-88 0,-88"/>
<text text-anchor="middle" x="14.5" y="-95" font-family="Helvetica,sans-Serif" font-size="10.00">K</text>
</a>
</g>
</g>
<!-- Node11&#45;&gt;Node10 -->
<g id="edge10" class="edge">
<title>Node11&#45;&gt;Node10</title>
<path fill="none" stroke="#9a32cd" stroke-dasharray="5,2" d="M39.24,-93.65C59.28,-90.4 88.63,-85.64 113.78,-81.56"/>
<polygon fill="#9a32cd" stroke="#9a32cd" points="38.47,-90.23 29.16,-95.29 39.59,-97.14 38.47,-90.23"/>
<text text-anchor="middle" x="71.5" y="-94.5" font-family="Helvetica,sans-Serif" font-size="10.00"> keys</text>
</g>
<!-- Node12 -->
<g id="node12" class="node">
<title>Node12</title>
<g id="a_node12"><a xlink:title=" ">
<polygon fill="white" stroke="#bfbfbf" points="0,-35 0,-54 29,-54 29,-35 0,-35"/>
<text text-anchor="middle" x="14.5" y="-42" font-family="Helvetica,sans-Serif" font-size="10.00">T</text>
</a>
</g>
</g>
<!-- Node12&#45;&gt;Node10 -->
<g id="edge11" class="edge">
<title>Node12&#45;&gt;Node10</title>
<path fill="none" stroke="#9a32cd" stroke-dasharray="5,2" d="M39.09,-49.12C59.39,-53.1 89.35,-58.97 114.78,-63.95"/>
<polygon fill="#9a32cd" stroke="#9a32cd" points="39.64,-45.66 29.16,-47.18 38.3,-52.53 39.64,-45.66"/>
<text text-anchor="middle" x="71.5" y="-63.5" font-family="Helvetica,sans-Serif" font-size="10.00"> elements</text>
</g>
<!-- Node14 -->
<g id="node14" class="node">
<title>Node14</title>
<g id="a_node14"><a xlink:title="STL class.">
<polygon fill="white" stroke="#bfbfbf" points="114.5,-20 114.5,-39 214.5,-39 214.5,-20 114.5,-20"/>
<text text-anchor="middle" x="164.5" y="-27" font-family="Helvetica,sans-Serif" font-size="10.00">std::atomic&lt; T &gt;</text>
</a>
</g>
</g>
<!-- Node12&#45;&gt;Node14 -->
<g id="edge14" class="edge">
<title>Node12&#45;&gt;Node14</title>
<path fill="none" stroke="#9a32cd" stroke-dasharray="5,2" d="M38.4,-33.04C41.24,-32.01 44.15,-31.12 47,-30.5 68.74,-25.79 93.31,-24.94 114.26,-25.51"/>
<polygon fill="#9a32cd" stroke="#9a32cd" points="37.03,-29.82 29.19,-36.95 39.77,-36.27 37.03,-29.82"/>
<text text-anchor="middle" x="71.5" y="-33.5" font-family="Helvetica,sans-Serif" font-size="10.00"> ptr</text>
</g>
<!-- Node13 -->
<g id="node13" class="node">
<title>Node13</title>
<g id="a_node13"><a xlink:href="classitk_1_1TimeStamp.html" target="_top" xlink:title="Generate a unique, increasing time value.">
<polygon fill="white" stroke="black" points="526.5,-25 526.5,-44 618.5,-44 618.5,-25 526.5,-25"/>
<text text-anchor="middle" x="572.5" y="-32" font-family="Helvetica,sans-Serif" font-size="10.00">itk::TimeStamp</text>
</a>
</g>
</g>
<!-- Node13&#45;&gt;Node3 -->
<g id="edge12" class="edge">
<title>Node13&#45;&gt;Node3</title>
<path fill="none" stroke="#9a32cd" stroke-dasharray="5,2" d="M628.97,-35.89C696.07,-38.7 811.99,-47.13 908,-72.5 923.82,-76.68 941.15,-82.8 954.66,-87.94"/>
<polygon fill="#9a32cd" stroke="#9a32cd" points="628.76,-32.38 618.63,-35.49 628.49,-39.38 628.76,-32.38"/>
<text text-anchor="middle" x="706" y="-50.5" font-family="Helvetica,sans-Serif" font-size="10.00"> m_MTime</text>
</g>
<!-- Node14&#45;&gt;Node13 -->
<g id="edge13" class="edge">
<title>Node14&#45;&gt;Node13</title>
<path fill="none" stroke="#9a32cd" stroke-dasharray="5,2" d="M225.03,-30.23C306.93,-31.24 452.57,-33.04 526.2,-33.94"/>
<polygon fill="#9a32cd" stroke="#9a32cd" points="224.92,-26.73 214.88,-30.11 224.83,-33.73 224.92,-26.73"/>
<text text-anchor="middle" x="286" y="-35.5" font-family="Helvetica,sans-Serif" font-size="10.00"> m_GlobalTimeStamp</text>
</g>
<!-- Node15 -->
<g id="node15" class="node">
<title>Node15</title>
<g id="a_node15"><a xlink:href="classitk_1_1SmartPointer.html" target="_top" xlink:title=" ">
<polygon fill="white" stroke="black" points="926,-38.5 926,-68.5 1033,-68.5 1033,-38.5 926,-38.5"/>
<text text-anchor="start" x="934" y="-56.5" font-family="Helvetica,sans-Serif" font-size="10.00">itk::SmartPointer&lt;</text>
<text text-anchor="middle" x="979.5" y="-45.5" font-family="Helvetica,sans-Serif" font-size="10.00"> Self &gt;</text>
</a>
</g>
</g>
<!-- Node15&#45;&gt;Node2 -->
<g id="edge15" class="edge">
<title>Node15&#45;&gt;Node2</title>
<path fill="none" stroke="#9a32cd" stroke-dasharray="5,2" d="M1043.26,-57.01C1080.33,-59.08 1128.37,-61.77 1171.81,-64.2"/>
<polygon fill="#9a32cd" stroke="#9a32cd" points="1043.29,-53.51 1033.11,-56.44 1042.89,-60.49 1043.29,-53.51"/>
<text text-anchor="middle" x="1102.5" y="-66.5" font-family="Helvetica,sans-Serif" font-size="10.00"> m_StoppingCriterion</text>
</g>
<!-- Node16 -->
<g id="node16" class="node">
<title>Node16</title>
<g id="a_node16"><a xlink:title=" ">
<polygon fill="white" stroke="#bfbfbf" points="1215.5,-0.5 1215.5,-30.5 1355.5,-30.5 1355.5,-0.5 1215.5,-0.5"/>
<text text-anchor="start" x="1223.5" y="-18.5" font-family="Helvetica,sans-Serif" font-size="10.00">std::map&lt; IdentifierType,</text>
<text text-anchor="middle" x="1285.5" y="-7.5" font-family="Helvetica,sans-Serif" font-size="10.00"> LevelSetLayerType * &gt;</text>
</a>
</g>
</g>
<!-- Node16&#45;&gt;Node1 -->
<g id="edge16" class="edge">
<title>Node16&#45;&gt;Node1</title>
<path fill="none" stroke="#9a32cd" stroke-dasharray="5,2" d="M1365.65,-18.77C1412.11,-20.68 1470.78,-23.11 1517.98,-25.05"/>
<polygon fill="#9a32cd" stroke="#9a32cd" points="1365.76,-15.27 1355.63,-18.35 1365.48,-22.26 1365.76,-15.27"/>
<text text-anchor="middle" x="1458.5" y="-27.5" font-family="Helvetica,sans-Serif" font-size="10.00"> m_UpdateBuffer</text>
</g>
</g>
</svg>
