<?xml version="1.0" encoding="UTF-8" standalone="no"?>
<!DOCTYPE svg PUBLIC "-//W3C//DTD SVG 1.1//EN"
 "http://www.w3.org/Graphics/SVG/1.1/DTD/svg11.dtd">
<!-- Generated by graphviz version 2.43.0 (0)
 -->
<!-- Title: itk::ImageRegionRange&lt; TImage &gt; Pages: 1 -->
<svg width="706pt" height="77pt"
 viewBox="0.00 0.00 706.00 77.00" xmlns="http://www.w3.org/2000/svg" xmlns:xlink="http://www.w3.org/1999/xlink">
<g id="graph0" class="graph" transform="scale(1 1) rotate(0) translate(4 73)">
<title>itk::ImageRegionRange&lt; TImage &gt;</title>
<polygon fill="white" stroke="transparent" points="-4,4 -4,-73 702,-73 702,4 -4,4"/>
<!-- Node1 -->
<g id="node1" class="node">
<title>Node1</title>
<g id="a_node1"><a xlink:title=" ">
<polygon fill="#bfbfbf" stroke="black" points="567,-35 567,-65 698,-65 698,-35 567,-35"/>
<text text-anchor="start" x="575" y="-53" font-family="Helvetica,sans-Serif" font-size="10.00">itk::ImageRegionRange</text>
<text text-anchor="middle" x="632.5" y="-42" font-family="Helvetica,sans-Serif" font-size="10.00">&lt; TImage &gt;</text>
</a>
</g>
</g>
<!-- Node2 -->
<g id="node2" class="node">
<title>Node2</title>
<g id="a_node2"><a xlink:href="classitk_1_1ImageRegionRange_1_1QualifiedIterator.html" target="_top" xlink:title=" ">
<polygon fill="white" stroke="black" points="294,-0.5 294,-41.5 455,-41.5 455,-0.5 294,-0.5"/>
<text text-anchor="start" x="302" y="-29.5" font-family="Helvetica,sans-Serif" font-size="10.00">itk::ImageRegionRange</text>
<text text-anchor="start" x="302" y="-18.5" font-family="Helvetica,sans-Serif" font-size="10.00">&lt; TImage &gt;::QualifiedIterator</text>
<text text-anchor="middle" x="374.5" y="-7.5" font-family="Helvetica,sans-Serif" font-size="10.00">&lt; VIsConst &gt;</text>
</a>
</g>
</g>
<!-- Node2&#45;&gt;Node1 -->
<g id="edge1" class="edge">
<title>Node2&#45;&gt;Node1</title>
<path fill="none" stroke="#9a32cd" stroke-dasharray="5,2" d="M465.36,-31.18C498.85,-34.97 536.18,-39.2 566.95,-42.69"/>
<polygon fill="#9a32cd" stroke="#9a32cd" points="465.43,-27.66 455.1,-30.02 464.64,-34.62 465.43,-27.66"/>
<text text-anchor="middle" x="511" y="-44" font-family="Helvetica,sans-Serif" font-size="10.00"> m_BufferBegin</text>
</g>
<!-- Node3 -->
<g id="node3" class="node">
<title>Node3</title>
<g id="a_node3"><a xlink:href="structitk_1_1Offset.html" target="_top" xlink:title=" ">
<polygon fill="white" stroke="black" points="0,-40.5 0,-59.5 185,-59.5 185,-40.5 0,-40.5"/>
<text text-anchor="middle" x="92.5" y="-47.5" font-family="Helvetica,sans-Serif" font-size="10.00">itk::Offset&lt; ImageDimension+1 &gt;</text>
</a>
</g>
</g>
<!-- Node3&#45;&gt;Node1 -->
<g id="edge3" class="edge">
<title>Node3&#45;&gt;Node1</title>
<path fill="none" stroke="#9a32cd" stroke-dasharray="5,2" d="M195.3,-53.82C197.89,-53.88 200.46,-53.94 203,-54 356.74,-57.38 395.32,-61.58 549,-56 554.74,-55.79 560.7,-55.5 566.67,-55.16"/>
<polygon fill="#9a32cd" stroke="#9a32cd" points="195.3,-50.32 185.21,-53.55 195.11,-57.31 195.3,-50.32"/>
<text text-anchor="middle" x="374.5" y="-61" font-family="Helvetica,sans-Serif" font-size="10.00"> m_OffsetTable</text>
</g>
<!-- Node3&#45;&gt;Node2 -->
<g id="edge2" class="edge">
<title>Node3&#45;&gt;Node2</title>
<path fill="none" stroke="#9a32cd" stroke-dasharray="5,2" d="M195.16,-39.47C227.66,-36.1 263.15,-32.43 293.85,-29.25"/>
<polygon fill="#9a32cd" stroke="#9a32cd" points="194.77,-35.99 185.18,-40.5 195.49,-42.96 194.77,-35.99"/>
<text text-anchor="middle" x="239.5" y="-42" font-family="Helvetica,sans-Serif" font-size="10.00"> m_OffsetTable</text>
</g>
</g>
</svg>
