<?xml version="1.0" encoding="UTF-8" standalone="no"?>
<!DOCTYPE svg PUBLIC "-//W3C//DTD SVG 1.1//EN"
 "http://www.w3.org/Graphics/SVG/1.1/DTD/svg11.dtd">
<!-- Generated by graphviz version 2.43.0 (0)
 -->
<!-- Title: itk::MovingHistogramMorphologyImageFilter&lt; TInputImage, TOutputImage, TKernel, THistogram &gt; Pages: 1 -->
<svg width="1346pt" height="967pt"
 viewBox="0.00 0.00 1346.00 967.00" xmlns="http://www.w3.org/2000/svg" xmlns:xlink="http://www.w3.org/1999/xlink">
<g id="graph0" class="graph" transform="scale(1 1) rotate(0) translate(4 963)">
<title>itk::MovingHistogramMorphologyImageFilter&lt; TInputImage, TOutputImage, TKernel, THistogram &gt;</title>
<polygon fill="white" stroke="transparent" points="-4,4 -4,-963 1342,-963 1342,4 -4,4"/>
<!-- Node1 -->
<g id="node1" class="node">
<title>Node1</title>
<g id="a_node1"><a xlink:title="Base class for MovingHistogramDilateImageFilter and MovingHistogramErodeImageFilter.">
<polygon fill="#bfbfbf" stroke="black" points="931.5,-0.5 931.5,-41.5 1137.5,-41.5 1137.5,-0.5 931.5,-0.5"/>
<text text-anchor="start" x="939.5" y="-29.5" font-family="Helvetica,sans-Serif" font-size="10.00">itk::MovingHistogramMorphology</text>
<text text-anchor="start" x="939.5" y="-18.5" font-family="Helvetica,sans-Serif" font-size="10.00">ImageFilter&lt; TInputImage,</text>
<text text-anchor="middle" x="1034.5" y="-7.5" font-family="Helvetica,sans-Serif" font-size="10.00"> TOutputImage, TKernel, THistogram &gt;</text>
</a>
</g>
</g>
<!-- Node2 -->
<g id="node2" class="node">
<title>Node2</title>
<g id="a_node2"><a xlink:href="classitk_1_1MovingHistogramImageFilter.html" target="_top" xlink:title="Implements a generic moving histogram algorithm.">
<polygon fill="white" stroke="black" points="938,-79.5 938,-120.5 1131,-120.5 1131,-79.5 938,-79.5"/>
<text text-anchor="start" x="946" y="-108.5" font-family="Helvetica,sans-Serif" font-size="10.00">itk::MovingHistogramImage</text>
<text text-anchor="start" x="946" y="-97.5" font-family="Helvetica,sans-Serif" font-size="10.00">Filter&lt; TInputImage, TOutputImage,</text>
<text text-anchor="middle" x="1034.5" y="-86.5" font-family="Helvetica,sans-Serif" font-size="10.00"> TKernel, THistogram &gt;</text>
</a>
</g>
</g>
<!-- Node2&#45;&gt;Node1 -->
<g id="edge1" class="edge">
<title>Node2&#45;&gt;Node1</title>
<path fill="none" stroke="midnightblue" d="M1034.5,-68.91C1034.5,-59.79 1034.5,-50.02 1034.5,-41.76"/>
<polygon fill="midnightblue" stroke="midnightblue" points="1031,-69.17 1034.5,-79.17 1038,-69.17 1031,-69.17"/>
</g>
<!-- Node3 -->
<g id="node3" class="node">
<title>Node3</title>
<g id="a_node3"><a xlink:href="classitk_1_1MovingHistogramImageFilterBase.html" target="_top" xlink:title="Implements a generic moving histogram algorithm.">
<polygon fill="white" stroke="black" points="958,-158.5 958,-199.5 1111,-199.5 1111,-158.5 958,-158.5"/>
<text text-anchor="start" x="966" y="-187.5" font-family="Helvetica,sans-Serif" font-size="10.00">itk::MovingHistogramImage</text>
<text text-anchor="start" x="966" y="-176.5" font-family="Helvetica,sans-Serif" font-size="10.00">FilterBase&lt; TInputImage,</text>
<text text-anchor="middle" x="1034.5" y="-165.5" font-family="Helvetica,sans-Serif" font-size="10.00"> TOutputImage, TKernel &gt;</text>
</a>
</g>
</g>
<!-- Node3&#45;&gt;Node2 -->
<g id="edge2" class="edge">
<title>Node3&#45;&gt;Node2</title>
<path fill="none" stroke="midnightblue" d="M1034.5,-147.91C1034.5,-138.79 1034.5,-129.02 1034.5,-120.76"/>
<polygon fill="midnightblue" stroke="midnightblue" points="1031,-148.17 1034.5,-158.17 1038,-148.17 1031,-148.17"/>
</g>
<!-- Node4 -->
<g id="node4" class="node">
<title>Node4</title>
<g id="a_node4"><a xlink:href="classitk_1_1KernelImageFilter.html" target="_top" xlink:title="A base class for all the filters working on an arbitrary shaped neighborhood.">
<polygon fill="white" stroke="black" points="704.5,-258.5 704.5,-299.5 872.5,-299.5 872.5,-258.5 704.5,-258.5"/>
<text text-anchor="start" x="712.5" y="-287.5" font-family="Helvetica,sans-Serif" font-size="10.00">itk::KernelImageFilter</text>
<text text-anchor="start" x="712.5" y="-276.5" font-family="Helvetica,sans-Serif" font-size="10.00">&lt; TInputImage, TOutputImage,</text>
<text text-anchor="middle" x="788.5" y="-265.5" font-family="Helvetica,sans-Serif" font-size="10.00"> TKernel &gt;</text>
</a>
</g>
</g>
<!-- Node4&#45;&gt;Node3 -->
<g id="edge3" class="edge">
<title>Node4&#45;&gt;Node3</title>
<path fill="none" stroke="midnightblue" d="M847.01,-254.69C889.21,-237.88 945.53,-215.44 985.39,-199.56"/>
<polygon fill="midnightblue" stroke="midnightblue" points="845.69,-251.45 837.69,-258.4 848.28,-257.95 845.69,-251.45"/>
</g>
<!-- Node5 -->
<g id="node5" class="node">
<title>Node5</title>
<g id="a_node5"><a xlink:href="classitk_1_1BoxImageFilter.html" target="_top" xlink:title="A base class for all the filters working on a box neighborhood.">
<polygon fill="white" stroke="black" points="700.5,-347.5 700.5,-377.5 876.5,-377.5 876.5,-347.5 700.5,-347.5"/>
<text text-anchor="start" x="708.5" y="-365.5" font-family="Helvetica,sans-Serif" font-size="10.00">itk::BoxImageFilter</text>
<text text-anchor="middle" x="788.5" y="-354.5" font-family="Helvetica,sans-Serif" font-size="10.00">&lt; TInputImage, TOutputImage &gt;</text>
</a>
</g>
</g>
<!-- Node5&#45;&gt;Node4 -->
<g id="edge4" class="edge">
<title>Node5&#45;&gt;Node4</title>
<path fill="none" stroke="midnightblue" d="M788.5,-337.07C788.5,-325.06 788.5,-310.79 788.5,-299.53"/>
<polygon fill="midnightblue" stroke="midnightblue" points="785,-337.3 788.5,-347.3 792,-337.3 785,-337.3"/>
</g>
<!-- Node6 -->
<g id="node6" class="node">
<title>Node6</title>
<g id="a_node6"><a xlink:href="classitk_1_1ImageToImageFilter.html" target="_top" xlink:title="Base class for filters that take an image as input and produce an image as output.">
<polygon fill="white" stroke="black" points="700.5,-415.5 700.5,-445.5 876.5,-445.5 876.5,-415.5 700.5,-415.5"/>
<text text-anchor="start" x="708.5" y="-433.5" font-family="Helvetica,sans-Serif" font-size="10.00">itk::ImageToImageFilter</text>
<text text-anchor="middle" x="788.5" y="-422.5" font-family="Helvetica,sans-Serif" font-size="10.00">&lt; TInputImage, TOutputImage &gt;</text>
</a>
</g>
</g>
<!-- Node6&#45;&gt;Node5 -->
<g id="edge5" class="edge">
<title>Node6&#45;&gt;Node5</title>
<path fill="none" stroke="midnightblue" d="M788.5,-405.03C788.5,-395.86 788.5,-385.74 788.5,-377.79"/>
<polygon fill="midnightblue" stroke="midnightblue" points="785,-405.18 788.5,-415.18 792,-405.18 785,-405.18"/>
</g>
<!-- Node7 -->
<g id="node7" class="node">
<title>Node7</title>
<g id="a_node7"><a xlink:href="classitk_1_1ImageSource.html" target="_top" xlink:title="Base class for all process objects that output image data.">
<polygon fill="white" stroke="black" points="624,-483.5 624,-513.5 773,-513.5 773,-483.5 624,-483.5"/>
<text text-anchor="start" x="632" y="-501.5" font-family="Helvetica,sans-Serif" font-size="10.00">itk::ImageSource&lt; TOutput</text>
<text text-anchor="middle" x="698.5" y="-490.5" font-family="Helvetica,sans-Serif" font-size="10.00">Image &gt;</text>
</a>
</g>
</g>
<!-- Node7&#45;&gt;Node6 -->
<g id="edge6" class="edge">
<title>Node7&#45;&gt;Node6</title>
<path fill="none" stroke="midnightblue" d="M726.32,-477.1C740.27,-466.87 756.81,-454.74 769.32,-445.57"/>
<polygon fill="midnightblue" stroke="midnightblue" points="724.02,-474.44 718.03,-483.18 728.16,-480.09 724.02,-474.44"/>
</g>
<!-- Node8 -->
<g id="node8" class="node">
<title>Node8</title>
<g id="a_node8"><a xlink:href="classitk_1_1ProcessObject.html" target="_top" xlink:title="The base class for all process objects (source, filters, mappers) in the Insight data processing pipe...">
<polygon fill="white" stroke="black" points="575.5,-551.5 575.5,-570.5 679.5,-570.5 679.5,-551.5 575.5,-551.5"/>
<text text-anchor="middle" x="627.5" y="-558.5" font-family="Helvetica,sans-Serif" font-size="10.00">itk::ProcessObject</text>
</a>
</g>
</g>
<!-- Node8&#45;&gt;Node7 -->
<g id="edge7" class="edge">
<title>Node8&#45;&gt;Node7</title>
<path fill="none" stroke="midnightblue" d="M645.55,-544.62C656.78,-535.05 671.12,-522.83 682.04,-513.53"/>
<polygon fill="midnightblue" stroke="midnightblue" points="643.01,-542.18 637.67,-551.33 647.55,-547.51 643.01,-542.18"/>
</g>
<!-- Node9 -->
<g id="node9" class="node">
<title>Node9</title>
<g id="a_node9"><a xlink:href="classitk_1_1Object.html" target="_top" xlink:title="Base class for most ITK classes.">
<polygon fill="white" stroke="black" points="733,-635 733,-654 800,-654 800,-635 733,-635"/>
<text text-anchor="middle" x="766.5" y="-642" font-family="Helvetica,sans-Serif" font-size="10.00">itk::Object</text>
</a>
</g>
</g>
<!-- Node9&#45;&gt;Node8 -->
<g id="edge8" class="edge">
<title>Node9&#45;&gt;Node8</title>
<path fill="none" stroke="midnightblue" d="M742.92,-629.68C714.16,-612.81 666.4,-584.81 642.34,-570.7"/>
<polygon fill="midnightblue" stroke="midnightblue" points="741.49,-632.89 751.89,-634.93 745.03,-626.85 741.49,-632.89"/>
</g>
<!-- Node10 -->
<g id="node10" class="node">
<title>Node10</title>
<g id="a_node10"><a xlink:href="classitk_1_1LightObject.html" target="_top" xlink:title="Light weight base class for most itk classes.">
<polygon fill="white" stroke="black" points="658,-713 658,-732 749,-732 749,-713 658,-713"/>
<text text-anchor="middle" x="703.5" y="-720" font-family="Helvetica,sans-Serif" font-size="10.00">itk::LightObject</text>
</a>
</g>
</g>
<!-- Node10&#45;&gt;Node9 -->
<g id="edge9" class="edge">
<title>Node10&#45;&gt;Node9</title>
<path fill="none" stroke="midnightblue" d="M738.01,-708.41C746.62,-703.57 754.96,-697.19 760.5,-689 767.51,-678.64 768,-663.7 767.45,-654.3"/>
<polygon fill="midnightblue" stroke="midnightblue" points="736.42,-705.3 729.06,-712.92 739.56,-711.55 736.42,-705.3"/>
</g>
<!-- Node11 -->
<g id="node11" class="node">
<title>Node11</title>
<g id="a_node11"><a xlink:title=" ">
<polygon fill="white" stroke="#bfbfbf" points="650,-791 650,-810 757,-810 757,-791 650,-791"/>
<text text-anchor="middle" x="703.5" y="-798" font-family="Helvetica,sans-Serif" font-size="10.00">std::atomic&lt; int &gt;</text>
</a>
</g>
</g>
<!-- Node11&#45;&gt;Node10 -->
<g id="edge10" class="edge">
<title>Node11&#45;&gt;Node10</title>
<path fill="none" stroke="#9a32cd" stroke-dasharray="5,2" d="M703.5,-780.72C703.5,-765.2 703.5,-743.86 703.5,-732.12"/>
<polygon fill="#9a32cd" stroke="#9a32cd" points="700,-780.78 703.5,-790.78 707,-780.78 700,-780.78"/>
<text text-anchor="middle" x="752" y="-759" font-family="Helvetica,sans-Serif" font-size="10.00"> m_ReferenceCount</text>
</g>
<!-- Node12 -->
<g id="node12" class="node">
<title>Node12</title>
<g id="a_node12"><a xlink:title="STL class.">
<polygon fill="white" stroke="#bfbfbf" points="331,-713 331,-732 396,-732 396,-713 331,-713"/>
<text text-anchor="middle" x="363.5" y="-720" font-family="Helvetica,sans-Serif" font-size="10.00">std::string</text>
</a>
</g>
</g>
<!-- Node12&#45;&gt;Node9 -->
<g id="edge11" class="edge">
<title>Node12&#45;&gt;Node9</title>
<path fill="none" stroke="#9a32cd" stroke-dasharray="5,2" d="M406.3,-713.36C454.08,-704.36 533.73,-689.59 602.5,-678 653.95,-669.33 667.63,-671.57 718.5,-660 725.72,-658.36 733.43,-656.21 740.52,-654.07"/>
<polygon fill="#9a32cd" stroke="#9a32cd" points="405.49,-709.95 396.31,-715.25 406.79,-716.83 405.49,-709.95"/>
<text text-anchor="middle" x="642" y="-681" font-family="Helvetica,sans-Serif" font-size="10.00"> m_ObjectName</text>
</g>
<!-- Node21 -->
<g id="node21" class="node">
<title>Node21</title>
<g id="a_node21"><a xlink:title=" ">
<polygon fill="white" stroke="#bfbfbf" points="374.5,-629.5 374.5,-659.5 536.5,-659.5 536.5,-629.5 374.5,-629.5"/>
<text text-anchor="start" x="382.5" y="-647.5" font-family="Helvetica,sans-Serif" font-size="10.00">std::set&lt; DataObjectIdentifier</text>
<text text-anchor="middle" x="455.5" y="-636.5" font-family="Helvetica,sans-Serif" font-size="10.00">Type &gt;</text>
</a>
</g>
</g>
<!-- Node12&#45;&gt;Node21 -->
<g id="edge22" class="edge">
<title>Node12&#45;&gt;Node21</title>
<path fill="none" stroke="#9a32cd" stroke-dasharray="5,2" d="M381.92,-706.28C398.44,-692.64 422.47,-672.78 438.53,-659.52"/>
<polygon fill="#9a32cd" stroke="#9a32cd" points="379.53,-703.71 374.05,-712.78 383.99,-709.11 379.53,-703.71"/>
<text text-anchor="middle" x="428.5" y="-681" font-family="Helvetica,sans-Serif" font-size="10.00"> keys</text>
</g>
<!-- Node22 -->
<g id="node22" class="node">
<title>Node22</title>
<g id="a_node22"><a xlink:title=" ">
<polygon fill="white" stroke="#bfbfbf" points="187,-629.5 187,-659.5 356,-659.5 356,-629.5 187,-629.5"/>
<text text-anchor="start" x="195" y="-647.5" font-family="Helvetica,sans-Serif" font-size="10.00">std::map&lt; DataObjectIdentifier</text>
<text text-anchor="middle" x="271.5" y="-636.5" font-family="Helvetica,sans-Serif" font-size="10.00">Type, bool &gt;</text>
</a>
</g>
</g>
<!-- Node12&#45;&gt;Node22 -->
<g id="edge24" class="edge">
<title>Node12&#45;&gt;Node22</title>
<path fill="none" stroke="#9a32cd" stroke-dasharray="5,2" d="M345.08,-706.28C328.56,-692.64 304.53,-672.78 288.47,-659.52"/>
<polygon fill="#9a32cd" stroke="#9a32cd" points="343.01,-709.11 352.95,-712.78 347.47,-703.71 343.01,-709.11"/>
<text text-anchor="middle" x="336.5" y="-681" font-family="Helvetica,sans-Serif" font-size="10.00"> keys</text>
</g>
<!-- Node27 -->
<g id="node27" class="node">
<title>Node27</title>
<g id="a_node27"><a xlink:title=" ">
<polygon fill="white" stroke="#bfbfbf" points="0,-629.5 0,-659.5 169,-659.5 169,-629.5 0,-629.5"/>
<text text-anchor="start" x="8" y="-647.5" font-family="Helvetica,sans-Serif" font-size="10.00">std::map&lt; DataObjectIdentifier</text>
<text text-anchor="middle" x="84.5" y="-636.5" font-family="Helvetica,sans-Serif" font-size="10.00">Type, DataObjectPointer &gt;</text>
</a>
</g>
</g>
<!-- Node12&#45;&gt;Node27 -->
<g id="edge31" class="edge">
<title>Node12&#45;&gt;Node27</title>
<path fill="none" stroke="#9a32cd" stroke-dasharray="5,2" d="M322.3,-710.28C272.77,-696.79 189.63,-674.14 135.94,-659.51"/>
<polygon fill="#9a32cd" stroke="#9a32cd" points="321.47,-713.68 332.04,-712.93 323.31,-706.92 321.47,-713.68"/>
<text text-anchor="middle" x="254.5" y="-681" font-family="Helvetica,sans-Serif" font-size="10.00"> keys</text>
</g>
<!-- Node13 -->
<g id="node13" class="node">
<title>Node13</title>
<g id="a_node13"><a xlink:title="STL class.">
<polygon fill="white" stroke="#bfbfbf" points="311.5,-785.5 311.5,-815.5 415.5,-815.5 415.5,-785.5 311.5,-785.5"/>
<text text-anchor="start" x="319.5" y="-803.5" font-family="Helvetica,sans-Serif" font-size="10.00">std::basic_string&lt;</text>
<text text-anchor="middle" x="363.5" y="-792.5" font-family="Helvetica,sans-Serif" font-size="10.00"> char &gt;</text>
</a>
</g>
</g>
<!-- Node13&#45;&gt;Node12 -->
<g id="edge12" class="edge">
<title>Node13&#45;&gt;Node12</title>
<path fill="none" stroke="midnightblue" d="M363.5,-775.17C363.5,-760.4 363.5,-742.45 363.5,-732.06"/>
<polygon fill="midnightblue" stroke="midnightblue" points="360,-775.2 363.5,-785.2 367,-775.21 360,-775.2"/>
</g>
<!-- Node14 -->
<g id="node14" class="node">
<title>Node14</title>
<g id="a_node14"><a xlink:href="classitk_1_1MetaDataDictionary.html" target="_top" xlink:title="Provides a mechanism for storing a collection of arbitrary data types.">
<polygon fill="white" stroke="black" points="767.5,-713 767.5,-732 901.5,-732 901.5,-713 767.5,-713"/>
<text text-anchor="middle" x="834.5" y="-720" font-family="Helvetica,sans-Serif" font-size="10.00">itk::MetaDataDictionary</text>
</a>
</g>
</g>
<!-- Node14&#45;&gt;Node9 -->
<g id="edge13" class="edge">
<title>Node14&#45;&gt;Node9</title>
<path fill="none" stroke="#9a32cd" stroke-dasharray="5,2" d="M819.33,-705.24C814.56,-700.08 809.28,-694.32 804.5,-689 793.78,-677.06 781.62,-663.05 774,-654.23"/>
<polygon fill="#9a32cd" stroke="#9a32cd" points="816.92,-707.79 826.29,-712.73 822.05,-703.02 816.92,-707.79"/>
<text text-anchor="middle" x="863" y="-681" font-family="Helvetica,sans-Serif" font-size="10.00"> m_MetaDataDictionary</text>
</g>
<!-- Node15 -->
<g id="node15" class="node">
<title>Node15</title>
<g id="a_node15"><a xlink:title=" ">
<polygon fill="white" stroke="#bfbfbf" points="775,-785.5 775,-815.5 924,-815.5 924,-785.5 775,-785.5"/>
<text text-anchor="start" x="783" y="-803.5" font-family="Helvetica,sans-Serif" font-size="10.00">std::shared_ptr&lt; MetaData</text>
<text text-anchor="middle" x="849.5" y="-792.5" font-family="Helvetica,sans-Serif" font-size="10.00">DictionaryMapType &gt;</text>
</a>
</g>
</g>
<!-- Node15&#45;&gt;Node14 -->
<g id="edge14" class="edge">
<title>Node15&#45;&gt;Node14</title>
<path fill="none" stroke="#9a32cd" stroke-dasharray="5,2" d="M844.7,-775.17C841.78,-760.4 838.24,-742.45 836.19,-732.06"/>
<polygon fill="#9a32cd" stroke="#9a32cd" points="841.31,-776.07 846.68,-785.2 848.18,-774.72 841.31,-776.07"/>
<text text-anchor="middle" x="878" y="-759" font-family="Helvetica,sans-Serif" font-size="10.00"> m_Dictionary</text>
</g>
<!-- Node16 -->
<g id="node16" class="node">
<title>Node16</title>
<g id="a_node16"><a xlink:title="STL class.">
<polygon fill="white" stroke="#bfbfbf" points="785,-872.5 785,-891.5 886,-891.5 886,-872.5 785,-872.5"/>
<text text-anchor="middle" x="835.5" y="-879.5" font-family="Helvetica,sans-Serif" font-size="10.00">std::map&lt; K, T &gt;</text>
</a>
</g>
</g>
<!-- Node16&#45;&gt;Node15 -->
<g id="edge15" class="edge">
<title>Node16&#45;&gt;Node15</title>
<path fill="none" stroke="#9a32cd" stroke-dasharray="5,2" d="M838.79,-862.33C841.31,-848.01 844.74,-828.56 847.03,-815.54"/>
<polygon fill="#9a32cd" stroke="#9a32cd" points="835.29,-862.04 837,-872.49 842.18,-863.25 835.29,-862.04"/>
<text text-anchor="middle" x="853" y="-841.5" font-family="Helvetica,sans-Serif" font-size="10.00"> ptr</text>
</g>
<!-- Node17 -->
<g id="node17" class="node">
<title>Node17</title>
<g id="a_node17"><a xlink:title=" ">
<polygon fill="white" stroke="#bfbfbf" points="821,-939.5 821,-958.5 850,-958.5 850,-939.5 821,-939.5"/>
<text text-anchor="middle" x="835.5" y="-946.5" font-family="Helvetica,sans-Serif" font-size="10.00">K</text>
</a>
</g>
</g>
<!-- Node17&#45;&gt;Node16 -->
<g id="edge16" class="edge">
<title>Node17&#45;&gt;Node16</title>
<path fill="none" stroke="#9a32cd" stroke-dasharray="5,2" d="M835.5,-929.04C835.5,-916.67 835.5,-901.12 835.5,-891.63"/>
<polygon fill="#9a32cd" stroke="#9a32cd" points="832,-929.23 835.5,-939.23 839,-929.23 832,-929.23"/>
<text text-anchor="middle" x="848.5" y="-913" font-family="Helvetica,sans-Serif" font-size="10.00"> keys</text>
</g>
<!-- Node18 -->
<g id="node18" class="node">
<title>Node18</title>
<g id="a_node18"><a xlink:title=" ">
<polygon fill="white" stroke="#bfbfbf" points="716,-939.5 716,-958.5 745,-958.5 745,-939.5 716,-939.5"/>
<text text-anchor="middle" x="730.5" y="-946.5" font-family="Helvetica,sans-Serif" font-size="10.00">T</text>
</a>
</g>
</g>
<!-- Node18&#45;&gt;Node16 -->
<g id="edge17" class="edge">
<title>Node18&#45;&gt;Node16</title>
<path fill="none" stroke="#9a32cd" stroke-dasharray="5,2" d="M749.39,-933.07C759.04,-925.73 771.12,-916.99 782.5,-910 793.58,-903.19 806.6,-896.54 816.95,-891.55"/>
<polygon fill="#9a32cd" stroke="#9a32cd" points="747.08,-930.43 741.3,-939.32 751.36,-935.97 747.08,-930.43"/>
<text text-anchor="middle" x="807" y="-913" font-family="Helvetica,sans-Serif" font-size="10.00"> elements</text>
</g>
<!-- Node20 -->
<g id="node20" class="node">
<title>Node20</title>
<g id="a_node20"><a xlink:title="STL class.">
<polygon fill="white" stroke="#bfbfbf" points="581.5,-834.5 581.5,-853.5 681.5,-853.5 681.5,-834.5 581.5,-834.5"/>
<text text-anchor="middle" x="631.5" y="-841.5" font-family="Helvetica,sans-Serif" font-size="10.00">std::atomic&lt; T &gt;</text>
</a>
</g>
</g>
<!-- Node18&#45;&gt;Node20 -->
<g id="edge20" class="edge">
<title>Node18&#45;&gt;Node20</title>
<path fill="none" stroke="#9a32cd" stroke-dasharray="5,2" d="M715.06,-931.93C693.88,-909.9 656.56,-871.07 639.92,-853.76"/>
<polygon fill="#9a32cd" stroke="#9a32cd" points="712.61,-934.43 722.06,-939.22 717.65,-929.58 712.61,-934.43"/>
<text text-anchor="middle" x="713" y="-913" font-family="Helvetica,sans-Serif" font-size="10.00"> ptr</text>
</g>
<!-- Node19 -->
<g id="node19" class="node">
<title>Node19</title>
<g id="a_node19"><a xlink:href="classitk_1_1TimeStamp.html" target="_top" xlink:title="Generate a unique, increasing time value.">
<polygon fill="white" stroke="black" points="526.5,-713 526.5,-732 618.5,-732 618.5,-713 526.5,-713"/>
<text text-anchor="middle" x="572.5" y="-720" font-family="Helvetica,sans-Serif" font-size="10.00">itk::TimeStamp</text>
</a>
</g>
</g>
<!-- Node19&#45;&gt;Node8 -->
<g id="edge33" class="edge">
<title>Node19&#45;&gt;Node8</title>
<path fill="none" stroke="#9a32cd" stroke-dasharray="5,2" d="M571.62,-702.67C571.35,-683.54 572.63,-653.34 581.5,-629 590,-605.67 608.55,-582.75 619.32,-570.7"/>
<polygon fill="#9a32cd" stroke="#9a32cd" points="568.13,-702.88 571.93,-712.77 575.12,-702.67 568.13,-702.88"/>
<text text-anchor="middle" x="652.5" y="-642" font-family="Helvetica,sans-Serif" font-size="10.00"> m_OutputInformationMTime</text>
</g>
<!-- Node19&#45;&gt;Node9 -->
<g id="edge18" class="edge">
<title>Node19&#45;&gt;Node9</title>
<path fill="none" stroke="#9a32cd" stroke-dasharray="5,2" d="M620.44,-710.49C640.88,-705.09 664.76,-697.83 685.5,-689 694.48,-685.18 695.95,-682.71 704.5,-678 719.72,-669.61 737.28,-660.45 749.82,-654"/>
<polygon fill="#9a32cd" stroke="#9a32cd" points="619.52,-707.11 610.71,-712.99 621.26,-713.89 619.52,-707.11"/>
<text text-anchor="middle" x="730.5" y="-681" font-family="Helvetica,sans-Serif" font-size="10.00"> m_MTime</text>
</g>
<!-- Node20&#45;&gt;Node19 -->
<g id="edge19" class="edge">
<title>Node20&#45;&gt;Node19</title>
<path fill="none" stroke="#9a32cd" stroke-dasharray="5,2" d="M571.46,-838.78C557.17,-834.77 543.48,-827.82 534.5,-816 514.02,-789.04 546.79,-749.48 563.57,-732.16"/>
<polygon fill="#9a32cd" stroke="#9a32cd" points="570.87,-842.23 581.4,-841.11 572.47,-835.42 570.87,-842.23"/>
<text text-anchor="middle" x="587.5" y="-798" font-family="Helvetica,sans-Serif" font-size="10.00"> m_GlobalTimeStamp</text>
</g>
<!-- Node21&#45;&gt;Node8 -->
<g id="edge21" class="edge">
<title>Node21&#45;&gt;Node8</title>
<path fill="none" stroke="#9a32cd" stroke-dasharray="5,2" d="M438.67,-620.69C432.99,-610.06 429.82,-597.85 437.5,-589 455.03,-568.81 525.26,-563.32 575.22,-562.04"/>
<polygon fill="#9a32cd" stroke="#9a32cd" points="435.86,-622.81 444.09,-629.49 441.82,-619.14 435.86,-622.81"/>
<text text-anchor="middle" x="498" y="-597.5" font-family="Helvetica,sans-Serif" font-size="10.00"> m_RequiredInputNames</text>
</g>
<!-- Node22&#45;&gt;Node8 -->
<g id="edge23" class="edge">
<title>Node22&#45;&gt;Node8</title>
<path fill="none" stroke="#9a32cd" stroke-dasharray="5,2" d="M272.55,-619.52C274.35,-608.53 278.45,-596.35 287.5,-589 309.3,-571.29 485.58,-565 575.35,-562.93"/>
<polygon fill="#9a32cd" stroke="#9a32cd" points="269.07,-619.17 271.45,-629.49 276.03,-619.93 269.07,-619.17"/>
<text text-anchor="start" x="287.5" y="-603" font-family="Helvetica,sans-Serif" font-size="10.00"> m_CachedInputReleaseData</text>
<text text-anchor="middle" x="358.5" y="-592" font-family="Helvetica,sans-Serif" font-size="10.00">Flags</text>
</g>
<!-- Node23 -->
<g id="node23" class="node">
<title>Node23</title>
<g id="a_node23"><a xlink:title=" ">
<polygon fill="white" stroke="#bfbfbf" points="818.5,-635 818.5,-654 952.5,-654 952.5,-635 818.5,-635"/>
<text text-anchor="middle" x="885.5" y="-642" font-family="Helvetica,sans-Serif" font-size="10.00">std::atomic&lt; uint32_t &gt;</text>
</a>
</g>
</g>
<!-- Node23&#45;&gt;Node8 -->
<g id="edge25" class="edge">
<title>Node23&#45;&gt;Node8</title>
<path fill="none" stroke="#9a32cd" stroke-dasharray="5,2" d="M848.8,-631.91C796.36,-615.34 701.21,-585.29 654.65,-570.58"/>
<polygon fill="#9a32cd" stroke="#9a32cd" points="847.79,-635.26 858.38,-634.93 849.9,-628.58 847.79,-635.26"/>
<text text-anchor="middle" x="811" y="-597.5" font-family="Helvetica,sans-Serif" font-size="10.00"> m_Progress</text>
</g>
<!-- Node24 -->
<g id="node24" class="node">
<title>Node24</title>
<g id="a_node24"><a xlink:title=" ">
<polygon fill="white" stroke="#bfbfbf" points="919.5,-713 919.5,-732 975.5,-732 975.5,-713 919.5,-713"/>
<text text-anchor="middle" x="947.5" y="-720" font-family="Helvetica,sans-Serif" font-size="10.00">uint32_t</text>
</a>
</g>
</g>
<!-- Node24&#45;&gt;Node23 -->
<g id="edge26" class="edge">
<title>Node24&#45;&gt;Node23</title>
<path fill="none" stroke="#9a32cd" stroke-dasharray="5,2" d="M940.42,-703.41C936.69,-695.18 931.62,-685.6 925.5,-678 917.98,-668.66 907.37,-660.2 898.97,-654.25"/>
<polygon fill="#9a32cd" stroke="#9a32cd" points="937.29,-705.01 944.39,-712.87 943.75,-702.3 937.29,-705.01"/>
<text text-anchor="middle" x="941" y="-681" font-family="Helvetica,sans-Serif" font-size="10.00"> ptr</text>
</g>
<!-- Node25 -->
<g id="node25" class="node">
<title>Node25</title>
<g id="a_node25"><a xlink:title=" ">
<polygon fill="white" stroke="#bfbfbf" points="971,-629.5 971,-659.5 1140,-659.5 1140,-629.5 971,-629.5"/>
<text text-anchor="start" x="979" y="-647.5" font-family="Helvetica,sans-Serif" font-size="10.00">std::vector&lt; DataObjectPointer</text>
<text text-anchor="middle" x="1055.5" y="-636.5" font-family="Helvetica,sans-Serif" font-size="10.00">Map::iterator &gt;</text>
</a>
</g>
</g>
<!-- Node25&#45;&gt;Node8 -->
<g id="edge27" class="edge">
<title>Node25&#45;&gt;Node8</title>
<path fill="none" stroke="#9a32cd" stroke-dasharray="5,2" d="M999.44,-626.67C957.42,-614.61 898.29,-598.83 845.5,-589 776.45,-576.15 758.14,-580.13 688.5,-571 685.63,-570.62 682.69,-570.23 679.73,-569.82"/>
<polygon fill="#9a32cd" stroke="#9a32cd" points="998.63,-630.08 1009.21,-629.49 1000.58,-623.35 998.63,-630.08"/>
<text text-anchor="middle" x="986" y="-603" font-family="Helvetica,sans-Serif" font-size="10.00"> m_IndexedOutputs</text>
<text text-anchor="middle" x="986" y="-592" font-family="Helvetica,sans-Serif" font-size="10.00">m_IndexedInputs</text>
</g>
<!-- Node26 -->
<g id="node26" class="node">
<title>Node26</title>
<g id="a_node26"><a xlink:title="STL iterator class.">
<polygon fill="white" stroke="#bfbfbf" points="994,-713 994,-732 1137,-732 1137,-713 994,-713"/>
<text text-anchor="middle" x="1065.5" y="-720" font-family="Helvetica,sans-Serif" font-size="10.00">std::map&lt; K, T &gt;::iterator</text>
</a>
</g>
</g>
<!-- Node26&#45;&gt;Node25 -->
<g id="edge28" class="edge">
<title>Node26&#45;&gt;Node25</title>
<path fill="none" stroke="#9a32cd" stroke-dasharray="5,2" d="M1063.04,-702.78C1061.28,-689.4 1058.95,-671.69 1057.34,-659.52"/>
<polygon fill="#9a32cd" stroke="#9a32cd" points="1059.58,-703.32 1064.35,-712.78 1066.52,-702.41 1059.58,-703.32"/>
<text text-anchor="middle" x="1085" y="-681" font-family="Helvetica,sans-Serif" font-size="10.00"> elements</text>
</g>
<!-- Node27&#45;&gt;Node8 -->
<g id="edge29" class="edge">
<title>Node27&#45;&gt;Node8</title>
<path fill="none" stroke="#9a32cd" stroke-dasharray="5,2" d="M120.27,-624.69C145.8,-612.24 181.34,-596.8 214.5,-589 281.56,-573.22 479.87,-565.93 575.19,-563.27"/>
<polygon fill="#9a32cd" stroke="#9a32cd" points="118.4,-621.72 111.01,-629.3 121.52,-627.98 118.4,-621.72"/>
<text text-anchor="middle" x="243" y="-603" font-family="Helvetica,sans-Serif" font-size="10.00"> m_Outputs</text>
<text text-anchor="middle" x="243" y="-592" font-family="Helvetica,sans-Serif" font-size="10.00">m_Inputs</text>
</g>
<!-- Node28 -->
<g id="node28" class="node">
<title>Node28</title>
<g id="a_node28"><a xlink:href="classitk_1_1SmartPointer.html" target="_top" xlink:title=" ">
<polygon fill="white" stroke="black" points="31,-707.5 31,-737.5 138,-737.5 138,-707.5 31,-707.5"/>
<text text-anchor="start" x="39" y="-725.5" font-family="Helvetica,sans-Serif" font-size="10.00">itk::SmartPointer&lt;</text>
<text text-anchor="middle" x="84.5" y="-714.5" font-family="Helvetica,sans-Serif" font-size="10.00"> Self &gt;</text>
</a>
</g>
</g>
<!-- Node28&#45;&gt;Node27 -->
<g id="edge30" class="edge">
<title>Node28&#45;&gt;Node27</title>
<path fill="none" stroke="#9a32cd" stroke-dasharray="5,2" d="M84.5,-697.09C84.5,-684.76 84.5,-670.22 84.5,-659.73"/>
<polygon fill="#9a32cd" stroke="#9a32cd" points="81,-697.2 84.5,-707.2 88,-697.21 81,-697.2"/>
<text text-anchor="middle" x="109" y="-681" font-family="Helvetica,sans-Serif" font-size="10.00"> elements</text>
</g>
<!-- Node29 -->
<g id="node29" class="node">
<title>Node29</title>
<g id="a_node29"><a xlink:href="classitk_1_1SmartPointer.html" target="_top" xlink:title=" ">
<polygon fill="white" stroke="black" points="1158.5,-629.5 1158.5,-659.5 1300.5,-659.5 1300.5,-629.5 1158.5,-629.5"/>
<text text-anchor="start" x="1166.5" y="-647.5" font-family="Helvetica,sans-Serif" font-size="10.00">itk::SmartPointer&lt;</text>
<text text-anchor="middle" x="1229.5" y="-636.5" font-family="Helvetica,sans-Serif" font-size="10.00"> itk::MultiThreaderBase &gt;</text>
</a>
</g>
</g>
<!-- Node29&#45;&gt;Node8 -->
<g id="edge32" class="edge">
<title>Node29&#45;&gt;Node8</title>
<path fill="none" stroke="#9a32cd" stroke-dasharray="5,2" d="M1180.14,-626.16C1141.76,-613.51 1086.92,-597.18 1037.5,-589 884.27,-563.63 843.06,-586.35 688.5,-571 685.62,-570.71 682.68,-570.39 679.7,-570.03"/>
<polygon fill="#9a32cd" stroke="#9a32cd" points="1179.42,-629.62 1190.01,-629.46 1181.64,-622.98 1179.42,-629.62"/>
<text text-anchor="middle" x="1171" y="-597.5" font-family="Helvetica,sans-Serif" font-size="10.00"> m_MultiThreader</text>
</g>
<!-- Node30 -->
<g id="node30" class="node">
<title>Node30</title>
<g id="a_node30"><a xlink:href="structitk_1_1ImageSourceCommon.html" target="_top" xlink:title="Secondary base class of ImageSource common between templates.">
<polygon fill="white" stroke="black" points="698,-551.5 698,-570.5 841,-570.5 841,-551.5 698,-551.5"/>
<text text-anchor="middle" x="769.5" y="-558.5" font-family="Helvetica,sans-Serif" font-size="10.00">itk::ImageSourceCommon</text>
</a>
</g>
</g>
<!-- Node30&#45;&gt;Node7 -->
<g id="edge34" class="edge">
<title>Node30&#45;&gt;Node7</title>
<path fill="none" stroke="#8b1a1a" d="M751.45,-544.62C740.22,-535.05 725.88,-522.83 714.96,-513.53"/>
<polygon fill="#8b1a1a" stroke="#8b1a1a" points="749.45,-547.51 759.33,-551.33 753.99,-542.18 749.45,-547.51"/>
</g>
<!-- Node31 -->
<g id="node31" class="node">
<title>Node31</title>
<g id="a_node31"><a xlink:href="classitk_1_1ImageToImageFilterCommon.html" target="_top" xlink:title="Secondary base class of ImageToImageFilter common between templates.">
<polygon fill="white" stroke="black" points="790.5,-489 790.5,-508 966.5,-508 966.5,-489 790.5,-489"/>
<text text-anchor="middle" x="878.5" y="-496" font-family="Helvetica,sans-Serif" font-size="10.00">itk::ImageToImageFilterCommon</text>
</a>
</g>
</g>
<!-- Node31&#45;&gt;Node6 -->
<g id="edge35" class="edge">
<title>Node31&#45;&gt;Node6</title>
<path fill="none" stroke="#8b1a1a" d="M858.56,-482.88C843.45,-471.8 822.8,-456.65 807.84,-445.68"/>
<polygon fill="#8b1a1a" stroke="#8b1a1a" points="856.6,-485.78 866.73,-488.87 860.74,-480.14 856.6,-485.78"/>
</g>
<!-- Node32 -->
<g id="node32" class="node">
<title>Node32</title>
<g id="a_node32"><a xlink:title=" ">
<polygon fill="white" stroke="#bfbfbf" points="890.5,-258.5 890.5,-299.5 1036.5,-299.5 1036.5,-258.5 890.5,-258.5"/>
<text text-anchor="start" x="898.5" y="-287.5" font-family="Helvetica,sans-Serif" font-size="10.00">std::map&lt; OffsetType,</text>
<text text-anchor="start" x="898.5" y="-276.5" font-family="Helvetica,sans-Serif" font-size="10.00"> OffsetListType, Functor</text>
<text text-anchor="middle" x="963.5" y="-265.5" font-family="Helvetica,sans-Serif" font-size="10.00">::LexicographicCompare &gt;</text>
</a>
</g>
</g>
<!-- Node32&#45;&gt;Node3 -->
<g id="edge36" class="edge">
<title>Node32&#45;&gt;Node3</title>
<path fill="none" stroke="#9a32cd" stroke-dasharray="5,2" d="M969.52,-248.38C972.56,-238.11 977.03,-226.94 983.5,-218 988.48,-211.11 995.08,-204.93 1001.87,-199.65"/>
<polygon fill="#9a32cd" stroke="#9a32cd" points="966.08,-247.67 966.92,-258.23 972.85,-249.45 966.08,-247.67"/>
<text text-anchor="middle" x="1033.5" y="-232" font-family="Helvetica,sans-Serif" font-size="10.00"> m_RemovedOffsets</text>
<text text-anchor="middle" x="1033.5" y="-221" font-family="Helvetica,sans-Serif" font-size="10.00">m_AddedOffsets</text>
</g>
<!-- Node33 -->
<g id="node33" class="node">
<title>Node33</title>
<g id="a_node33"><a xlink:href="classitk_1_1FixedArray.html" target="_top" xlink:title=" ">
<polygon fill="white" stroke="black" points="1054.5,-264 1054.5,-294 1192.5,-294 1192.5,-264 1054.5,-264"/>
<text text-anchor="start" x="1062.5" y="-282" font-family="Helvetica,sans-Serif" font-size="10.00">itk::FixedArray&lt; int,</text>
<text text-anchor="middle" x="1123.5" y="-271" font-family="Helvetica,sans-Serif" font-size="10.00"> Self::ImageDimension &gt;</text>
</a>
</g>
</g>
<!-- Node33&#45;&gt;Node3 -->
<g id="edge37" class="edge">
<title>Node33&#45;&gt;Node3</title>
<path fill="none" stroke="#9a32cd" stroke-dasharray="5,2" d="M1110.56,-254.94C1103.4,-243.22 1093.87,-229.14 1083.5,-218 1077.41,-211.46 1070.12,-205.17 1063.05,-199.65"/>
<polygon fill="#9a32cd" stroke="#9a32cd" points="1107.66,-256.91 1115.77,-263.74 1113.69,-253.35 1107.66,-256.91"/>
<text text-anchor="middle" x="1121.5" y="-226.5" font-family="Helvetica,sans-Serif" font-size="10.00"> m_Axes</text>
</g>
<!-- Node34 -->
<g id="node34" class="node">
<title>Node34</title>
<g id="a_node34"><a xlink:title=" ">
<polygon fill="white" stroke="#bfbfbf" points="1095.5,-353 1095.5,-372 1151.5,-372 1151.5,-353 1095.5,-353"/>
<text text-anchor="middle" x="1123.5" y="-360" font-family="Helvetica,sans-Serif" font-size="10.00">VLength</text>
</a>
</g>
</g>
<!-- Node34&#45;&gt;Node33 -->
<g id="edge38" class="edge">
<title>Node34&#45;&gt;Node33</title>
<path fill="none" stroke="#9a32cd" stroke-dasharray="5,2" d="M1123.5,-342.73C1123.5,-327.91 1123.5,-307.55 1123.5,-294.1"/>
<polygon fill="#9a32cd" stroke="#9a32cd" points="1120,-342.78 1123.5,-352.78 1127,-342.78 1120,-342.78"/>
<text text-anchor="middle" x="1164.5" y="-321" font-family="Helvetica,sans-Serif" font-size="10.00"> m_InternalArray</text>
</g>
<!-- Node35 -->
<g id="node35" class="node">
<title>Node35</title>
<g id="a_node35"><a xlink:title=" ">
<polygon fill="white" stroke="#bfbfbf" points="1211,-269.5 1211,-288.5 1338,-288.5 1338,-269.5 1211,-269.5"/>
<text text-anchor="middle" x="1274.5" y="-276.5" font-family="Helvetica,sans-Serif" font-size="10.00">std::list&lt; OffsetType &gt;</text>
</a>
</g>
</g>
<!-- Node35&#45;&gt;Node3 -->
<g id="edge39" class="edge">
<title>Node35&#45;&gt;Node3</title>
<path fill="none" stroke="#9a32cd" stroke-dasharray="5,2" d="M1248.75,-264.9C1223.17,-252.12 1182.64,-232.55 1146.5,-218 1130.4,-211.52 1112.73,-205.18 1096.28,-199.59"/>
<polygon fill="#9a32cd" stroke="#9a32cd" points="1247.28,-268.07 1257.79,-269.43 1250.42,-261.82 1247.28,-268.07"/>
<text text-anchor="middle" x="1237.5" y="-226.5" font-family="Helvetica,sans-Serif" font-size="10.00"> m_KernelOffsets</text>
</g>
</g>
</svg>
