<?xml version="1.0" encoding="UTF-8" standalone="no"?>
<!DOCTYPE svg PUBLIC "-//W3C//DTD SVG 1.1//EN"
 "http://www.w3.org/Graphics/SVG/1.1/DTD/svg11.dtd">
<!-- Generated by graphviz version 2.43.0 (0)
 -->
<!-- Title: itk::ImageFileReader&lt; TOutputImage, ConvertPixelTraits &gt; Pages: 1 -->
<svg width="1977pt" height="481pt"
 viewBox="0.00 0.00 1977.00 480.54" xmlns="http://www.w3.org/2000/svg" xmlns:xlink="http://www.w3.org/1999/xlink">
<g id="graph0" class="graph" transform="scale(1 1) rotate(0) translate(4 476.54)">
<title>itk::ImageFileReader&lt; TOutputImage, ConvertPixelTraits &gt;</title>
<polygon fill="white" stroke="transparent" points="-4,4 -4,-476.54 1973,-476.54 1973,4 -4,4"/>
<!-- Node1 -->
<g id="node1" class="node">
<title>Node1</title>
<g id="a_node1"><a xlink:title="Data source that reads image data from a single file.">
<polygon fill="#bfbfbf" stroke="black" points="1804,-322.54 1804,-363.54 1969,-363.54 1969,-322.54 1804,-322.54"/>
<text text-anchor="start" x="1812" y="-351.54" font-family="Helvetica,sans-Serif" font-size="10.00">itk::ImageFileReader</text>
<text text-anchor="start" x="1812" y="-340.54" font-family="Helvetica,sans-Serif" font-size="10.00">&lt; TOutputImage, ConvertPixel</text>
<text text-anchor="middle" x="1886.5" y="-329.54" font-family="Helvetica,sans-Serif" font-size="10.00">Traits &gt;</text>
</a>
</g>
</g>
<!-- Node2 -->
<g id="node2" class="node">
<title>Node2</title>
<g id="a_node2"><a xlink:href="classitk_1_1ImageSource.html" target="_top" xlink:title="Base class for all process objects that output image data.">
<polygon fill="white" stroke="black" points="1525,-305.04 1525,-335.04 1674,-335.04 1674,-305.04 1525,-305.04"/>
<text text-anchor="start" x="1533" y="-323.04" font-family="Helvetica,sans-Serif" font-size="10.00">itk::ImageSource&lt; TOutput</text>
<text text-anchor="middle" x="1599.5" y="-312.04" font-family="Helvetica,sans-Serif" font-size="10.00">Image &gt;</text>
</a>
</g>
</g>
<!-- Node2&#45;&gt;Node1 -->
<g id="edge1" class="edge">
<title>Node2&#45;&gt;Node1</title>
<path fill="none" stroke="midnightblue" d="M1684.69,-326.83C1722.29,-329.87 1766.45,-333.43 1803.76,-336.44"/>
<polygon fill="midnightblue" stroke="midnightblue" points="1684.51,-323.31 1674.27,-325.99 1683.95,-330.28 1684.51,-323.31"/>
</g>
<!-- Node3 -->
<g id="node3" class="node">
<title>Node3</title>
<g id="a_node3"><a xlink:href="classitk_1_1ProcessObject.html" target="_top" xlink:title="The base class for all process objects (source, filters, mappers) in the Insight data processing pipe...">
<polygon fill="white" stroke="black" points="1307.5,-246.54 1307.5,-265.54 1411.5,-265.54 1411.5,-246.54 1307.5,-246.54"/>
<text text-anchor="middle" x="1359.5" y="-253.54" font-family="Helvetica,sans-Serif" font-size="10.00">itk::ProcessObject</text>
</a>
</g>
</g>
<!-- Node3&#45;&gt;Node2 -->
<g id="edge2" class="edge">
<title>Node3&#45;&gt;Node2</title>
<path fill="none" stroke="midnightblue" d="M1405.86,-268.24C1444.75,-278.69 1500.91,-293.8 1542.58,-305"/>
<polygon fill="midnightblue" stroke="midnightblue" points="1406.44,-264.77 1395.87,-265.55 1404.62,-271.53 1406.44,-264.77"/>
</g>
<!-- Node4 -->
<g id="node4" class="node">
<title>Node4</title>
<g id="a_node4"><a xlink:href="classitk_1_1Object.html" target="_top" xlink:title="Base class for most ITK classes.">
<polygon fill="white" stroke="black" points="980,-128.54 980,-147.54 1047,-147.54 1047,-128.54 980,-128.54"/>
<text text-anchor="middle" x="1013.5" y="-135.54" font-family="Helvetica,sans-Serif" font-size="10.00">itk::Object</text>
</a>
</g>
</g>
<!-- Node4&#45;&gt;Node3 -->
<g id="edge3" class="edge">
<title>Node4&#45;&gt;Node3</title>
<path fill="none" stroke="midnightblue" d="M1057.21,-131.09C1110.82,-124.95 1202.48,-123.37 1258,-172.04 1280.54,-191.8 1254.34,-216.31 1276,-237.04 1284.49,-245.17 1295.74,-250.07 1307.18,-252.97"/>
<polygon fill="midnightblue" stroke="midnightblue" points="1056.5,-127.65 1047.01,-132.36 1057.37,-134.6 1056.5,-127.65"/>
</g>
<!-- Node5 -->
<g id="node5" class="node">
<title>Node5</title>
<g id="a_node5"><a xlink:href="classitk_1_1LightObject.html" target="_top" xlink:title="Light weight base class for most itk classes.">
<polygon fill="white" stroke="black" points="659,-111.54 659,-130.54 750,-130.54 750,-111.54 659,-111.54"/>
<text text-anchor="middle" x="704.5" y="-118.54" font-family="Helvetica,sans-Serif" font-size="10.00">itk::LightObject</text>
</a>
</g>
</g>
<!-- Node5&#45;&gt;Node4 -->
<g id="edge4" class="edge">
<title>Node5&#45;&gt;Node4</title>
<path fill="none" stroke="midnightblue" d="M760.4,-124.08C824.13,-127.61 927.17,-133.31 979.59,-136.22"/>
<polygon fill="midnightblue" stroke="midnightblue" points="760.32,-120.57 750.14,-123.51 759.93,-127.56 760.32,-120.57"/>
</g>
<!-- Node6 -->
<g id="node6" class="node">
<title>Node6</title>
<g id="a_node6"><a xlink:title=" ">
<polygon fill="white" stroke="#bfbfbf" points="372,-110.54 372,-129.54 479,-129.54 479,-110.54 372,-110.54"/>
<text text-anchor="middle" x="425.5" y="-117.54" font-family="Helvetica,sans-Serif" font-size="10.00">std::atomic&lt; int &gt;</text>
</a>
</g>
</g>
<!-- Node6&#45;&gt;Node5 -->
<g id="edge5" class="edge">
<title>Node6&#45;&gt;Node5</title>
<path fill="none" stroke="#9a32cd" stroke-dasharray="5,2" d="M489.29,-120.26C540.91,-120.45 612.77,-120.71 658.72,-120.88"/>
<polygon fill="#9a32cd" stroke="#9a32cd" points="489.27,-116.76 479.25,-120.23 489.24,-123.76 489.27,-116.76"/>
<text text-anchor="middle" x="566.5" y="-124.04" font-family="Helvetica,sans-Serif" font-size="10.00"> m_ReferenceCount</text>
</g>
<!-- Node7 -->
<g id="node7" class="node">
<title>Node7</title>
<g id="a_node7"><a xlink:title="STL class.">
<polygon fill="white" stroke="#bfbfbf" points="672,-250.54 672,-269.54 737,-269.54 737,-250.54 672,-250.54"/>
<text text-anchor="middle" x="704.5" y="-257.54" font-family="Helvetica,sans-Serif" font-size="10.00">std::string</text>
</a>
</g>
</g>
<!-- Node7&#45;&gt;Node1 -->
<g id="edge34" class="edge">
<title>Node7&#45;&gt;Node1</title>
<path fill="none" stroke="#9a32cd" stroke-dasharray="5,2" d="M715.44,-278.59C729.37,-302.39 757.19,-342.57 794,-359.04 841.47,-380.27 859,-359.45 911,-359.04 1242,-356.39 1636.18,-348.45 1803.69,-344.85"/>
<polygon fill="#9a32cd" stroke="#9a32cd" points="718.44,-276.79 710.48,-269.79 712.34,-280.22 718.44,-276.79"/>
<text text-anchor="middle" x="1359.5" y="-357.04" font-family="Helvetica,sans-Serif" font-size="10.00"> m_ExceptionMessage</text>
</g>
<!-- Node7&#45;&gt;Node4 -->
<g id="edge6" class="edge">
<title>Node7&#45;&gt;Node4</title>
<path fill="none" stroke="#9a32cd" stroke-dasharray="5,2" d="M722.08,-243C738.73,-226.97 765.87,-203.6 794,-191.04 842.24,-169.5 861.99,-189.77 911,-170.04 919.92,-166.45 920.19,-161.88 929,-158.04 945.12,-151 964.12,-146.2 979.92,-143.07"/>
<polygon fill="#9a32cd" stroke="#9a32cd" points="719.45,-240.68 714.8,-250.2 724.37,-245.66 719.45,-240.68"/>
<text text-anchor="middle" x="852.5" y="-194.04" font-family="Helvetica,sans-Serif" font-size="10.00"> m_ObjectName</text>
</g>
<!-- Node16 -->
<g id="node16" class="node">
<title>Node16</title>
<g id="a_node16"><a xlink:title=" ">
<polygon fill="white" stroke="#bfbfbf" points="932.5,-216.04 932.5,-246.04 1094.5,-246.04 1094.5,-216.04 932.5,-216.04"/>
<text text-anchor="start" x="940.5" y="-234.04" font-family="Helvetica,sans-Serif" font-size="10.00">std::set&lt; DataObjectIdentifier</text>
<text text-anchor="middle" x="1013.5" y="-223.04" font-family="Helvetica,sans-Serif" font-size="10.00">Type &gt;</text>
</a>
</g>
</g>
<!-- Node7&#45;&gt;Node16 -->
<g id="edge17" class="edge">
<title>Node7&#45;&gt;Node16</title>
<path fill="none" stroke="#9a32cd" stroke-dasharray="5,2" d="M747.4,-256.08C794.8,-251.6 873.1,-244.2 932.35,-238.61"/>
<polygon fill="#9a32cd" stroke="#9a32cd" points="746.82,-252.62 737.2,-257.04 747.48,-259.59 746.82,-252.62"/>
<text text-anchor="middle" x="852.5" y="-254.04" font-family="Helvetica,sans-Serif" font-size="10.00"> keys</text>
</g>
<!-- Node17 -->
<g id="node17" class="node">
<title>Node17</title>
<g id="a_node17"><a xlink:title=" ">
<polygon fill="white" stroke="#bfbfbf" points="929,-167.04 929,-197.04 1098,-197.04 1098,-167.04 929,-167.04"/>
<text text-anchor="start" x="937" y="-185.04" font-family="Helvetica,sans-Serif" font-size="10.00">std::map&lt; DataObjectIdentifier</text>
<text text-anchor="middle" x="1013.5" y="-174.04" font-family="Helvetica,sans-Serif" font-size="10.00">Type, bool &gt;</text>
</a>
</g>
</g>
<!-- Node7&#45;&gt;Node17 -->
<g id="edge19" class="edge">
<title>Node7&#45;&gt;Node17</title>
<path fill="none" stroke="#9a32cd" stroke-dasharray="5,2" d="M736.62,-246.49C753.37,-239.61 774.54,-231.56 794,-226.04 844.9,-211.6 859.14,-214.53 911,-204.04 921.78,-201.86 933.19,-199.46 944.31,-197.09"/>
<polygon fill="#9a32cd" stroke="#9a32cd" points="735.19,-243.3 727.31,-250.38 737.89,-249.76 735.19,-243.3"/>
<text text-anchor="middle" x="852.5" y="-229.04" font-family="Helvetica,sans-Serif" font-size="10.00"> keys</text>
</g>
<!-- Node22 -->
<g id="node22" class="node">
<title>Node22</title>
<g id="a_node22"><a xlink:title=" ">
<polygon fill="white" stroke="#bfbfbf" points="929,-265.04 929,-295.04 1098,-295.04 1098,-265.04 929,-265.04"/>
<text text-anchor="start" x="937" y="-283.04" font-family="Helvetica,sans-Serif" font-size="10.00">std::map&lt; DataObjectIdentifier</text>
<text text-anchor="middle" x="1013.5" y="-272.04" font-family="Helvetica,sans-Serif" font-size="10.00">Type, DataObjectPointer &gt;</text>
</a>
</g>
</g>
<!-- Node7&#45;&gt;Node22 -->
<g id="edge26" class="edge">
<title>Node7&#45;&gt;Node22</title>
<path fill="none" stroke="#9a32cd" stroke-dasharray="5,2" d="M747.64,-266.61C762.29,-268.67 778.83,-270.73 794,-272.04 838.44,-275.85 888.11,-277.85 928.86,-278.9"/>
<polygon fill="#9a32cd" stroke="#9a32cd" points="747.77,-263.09 737.37,-265.13 746.77,-270.02 747.77,-263.09"/>
<text text-anchor="middle" x="852.5" y="-281.04" font-family="Helvetica,sans-Serif" font-size="10.00"> keys</text>
</g>
<!-- Node8 -->
<g id="node8" class="node">
<title>Node8</title>
<g id="a_node8"><a xlink:title="STL class.">
<polygon fill="white" stroke="#bfbfbf" points="373.5,-245.04 373.5,-275.04 477.5,-275.04 477.5,-245.04 373.5,-245.04"/>
<text text-anchor="start" x="381.5" y="-263.04" font-family="Helvetica,sans-Serif" font-size="10.00">std::basic_string&lt;</text>
<text text-anchor="middle" x="425.5" y="-252.04" font-family="Helvetica,sans-Serif" font-size="10.00"> char &gt;</text>
</a>
</g>
</g>
<!-- Node8&#45;&gt;Node7 -->
<g id="edge7" class="edge">
<title>Node8&#45;&gt;Node7</title>
<path fill="none" stroke="midnightblue" d="M487.93,-260.04C544.75,-260.04 626.97,-260.04 671.66,-260.04"/>
<polygon fill="midnightblue" stroke="midnightblue" points="487.63,-256.54 477.63,-260.04 487.63,-263.54 487.63,-256.54"/>
</g>
<!-- Node9 -->
<g id="node9" class="node">
<title>Node9</title>
<g id="a_node9"><a xlink:href="classitk_1_1MetaDataDictionary.html" target="_top" xlink:title="Provides a mechanism for storing a collection of arbitrary data types.">
<polygon fill="white" stroke="black" points="637.5,-152.54 637.5,-171.54 771.5,-171.54 771.5,-152.54 637.5,-152.54"/>
<text text-anchor="middle" x="704.5" y="-159.54" font-family="Helvetica,sans-Serif" font-size="10.00">itk::MetaDataDictionary</text>
</a>
</g>
</g>
<!-- Node9&#45;&gt;Node4 -->
<g id="edge8" class="edge">
<title>Node9&#45;&gt;Node4</title>
<path fill="none" stroke="#9a32cd" stroke-dasharray="5,2" d="M781.74,-156.08C845.39,-151.1 933.03,-144.25 979.86,-140.59"/>
<polygon fill="#9a32cd" stroke="#9a32cd" points="781.43,-152.59 771.74,-156.86 781.98,-159.57 781.43,-152.59"/>
<text text-anchor="middle" x="852.5" y="-158.04" font-family="Helvetica,sans-Serif" font-size="10.00"> m_MetaDataDictionary</text>
</g>
<!-- Node10 -->
<g id="node10" class="node">
<title>Node10</title>
<g id="a_node10"><a xlink:title=" ">
<polygon fill="white" stroke="#bfbfbf" points="351,-149.04 351,-179.04 500,-179.04 500,-149.04 351,-149.04"/>
<text text-anchor="start" x="359" y="-167.04" font-family="Helvetica,sans-Serif" font-size="10.00">std::shared_ptr&lt; MetaData</text>
<text text-anchor="middle" x="425.5" y="-156.04" font-family="Helvetica,sans-Serif" font-size="10.00">DictionaryMapType &gt;</text>
</a>
</g>
</g>
<!-- Node10&#45;&gt;Node9 -->
<g id="edge9" class="edge">
<title>Node10&#45;&gt;Node9</title>
<path fill="none" stroke="#9a32cd" stroke-dasharray="5,2" d="M510.18,-163.43C550.89,-163.14 599.13,-162.79 637.24,-162.52"/>
<polygon fill="#9a32cd" stroke="#9a32cd" points="509.98,-159.93 500,-163.51 510.03,-166.93 509.98,-159.93"/>
<text text-anchor="middle" x="566.5" y="-166.04" font-family="Helvetica,sans-Serif" font-size="10.00"> m_Dictionary</text>
</g>
<!-- Node11 -->
<g id="node11" class="node">
<title>Node11</title>
<g id="a_node11"><a xlink:title="STL class.">
<polygon fill="white" stroke="#bfbfbf" points="114,-153.54 114,-172.54 215,-172.54 215,-153.54 114,-153.54"/>
<text text-anchor="middle" x="164.5" y="-160.54" font-family="Helvetica,sans-Serif" font-size="10.00">std::map&lt; K, T &gt;</text>
</a>
</g>
</g>
<!-- Node11&#45;&gt;Node10 -->
<g id="edge10" class="edge">
<title>Node11&#45;&gt;Node10</title>
<path fill="none" stroke="#9a32cd" stroke-dasharray="5,2" d="M225.34,-163.27C262.61,-163.41 310.86,-163.6 350.52,-163.75"/>
<polygon fill="#9a32cd" stroke="#9a32cd" points="225.14,-159.77 215.13,-163.23 225.12,-166.77 225.14,-159.77"/>
<text text-anchor="middle" x="283" y="-166.04" font-family="Helvetica,sans-Serif" font-size="10.00"> ptr</text>
</g>
<!-- Node12 -->
<g id="node12" class="node">
<title>Node12</title>
<g id="a_node12"><a xlink:title=" ">
<polygon fill="white" stroke="#bfbfbf" points="0,-153.54 0,-172.54 29,-172.54 29,-153.54 0,-153.54"/>
<text text-anchor="middle" x="14.5" y="-160.54" font-family="Helvetica,sans-Serif" font-size="10.00">K</text>
</a>
</g>
</g>
<!-- Node12&#45;&gt;Node11 -->
<g id="edge11" class="edge">
<title>Node12&#45;&gt;Node11</title>
<path fill="none" stroke="#9a32cd" stroke-dasharray="5,2" d="M39.24,-163.04C59.28,-163.04 88.63,-163.04 113.78,-163.04"/>
<polygon fill="#9a32cd" stroke="#9a32cd" points="39.16,-159.54 29.16,-163.04 39.16,-166.54 39.16,-159.54"/>
<text text-anchor="middle" x="71.5" y="-166.04" font-family="Helvetica,sans-Serif" font-size="10.00"> keys</text>
</g>
<!-- Node13 -->
<g id="node13" class="node">
<title>Node13</title>
<g id="a_node13"><a xlink:title=" ">
<polygon fill="white" stroke="#bfbfbf" points="0,-100.54 0,-119.54 29,-119.54 29,-100.54 0,-100.54"/>
<text text-anchor="middle" x="14.5" y="-107.54" font-family="Helvetica,sans-Serif" font-size="10.00">T</text>
</a>
</g>
</g>
<!-- Node13&#45;&gt;Node11 -->
<g id="edge12" class="edge">
<title>Node13&#45;&gt;Node11</title>
<path fill="none" stroke="#9a32cd" stroke-dasharray="5,2" d="M38.78,-118.37C65.36,-127.89 108.76,-143.43 136.72,-153.45"/>
<polygon fill="#9a32cd" stroke="#9a32cd" points="39.75,-115 29.16,-114.93 37.39,-121.59 39.75,-115"/>
<text text-anchor="middle" x="71.5" y="-142.04" font-family="Helvetica,sans-Serif" font-size="10.00"> elements</text>
</g>
<!-- Node15 -->
<g id="node15" class="node">
<title>Node15</title>
<g id="a_node15"><a xlink:title="STL class.">
<polygon fill="white" stroke="#bfbfbf" points="233,-78.54 233,-97.54 333,-97.54 333,-78.54 233,-78.54"/>
<text text-anchor="middle" x="283" y="-85.54" font-family="Helvetica,sans-Serif" font-size="10.00">std::atomic&lt; T &gt;</text>
</a>
</g>
</g>
<!-- Node13&#45;&gt;Node15 -->
<g id="edge15" class="edge">
<title>Node13&#45;&gt;Node15</title>
<path fill="none" stroke="#9a32cd" stroke-dasharray="5,2" d="M39.45,-107.72C42,-107.48 44.55,-107.25 47,-107.04 111.22,-101.38 185.37,-95.49 232.92,-91.8"/>
<polygon fill="#9a32cd" stroke="#9a32cd" points="38.92,-104.25 29.3,-108.68 39.58,-111.22 38.92,-104.25"/>
<text text-anchor="middle" x="71.5" y="-110.04" font-family="Helvetica,sans-Serif" font-size="10.00"> ptr</text>
</g>
<!-- Node14 -->
<g id="node14" class="node">
<title>Node14</title>
<g id="a_node14"><a xlink:href="classitk_1_1TimeStamp.html" target="_top" xlink:title="Generate a unique, increasing time value.">
<polygon fill="white" stroke="black" points="658.5,-71.54 658.5,-90.54 750.5,-90.54 750.5,-71.54 658.5,-71.54"/>
<text text-anchor="middle" x="704.5" y="-78.54" font-family="Helvetica,sans-Serif" font-size="10.00">itk::TimeStamp</text>
</a>
</g>
</g>
<!-- Node14&#45;&gt;Node3 -->
<g id="edge28" class="edge">
<title>Node14&#45;&gt;Node3</title>
<path fill="none" stroke="#9a32cd" stroke-dasharray="5,2" d="M760.69,-77.08C886.23,-69.36 1187.7,-58.4 1258,-125.04 1294.59,-159.72 1241.56,-200.21 1276,-237.04 1284.23,-245.84 1295.65,-250.95 1307.38,-253.84"/>
<polygon fill="#9a32cd" stroke="#9a32cd" points="760.29,-73.6 750.53,-77.73 760.73,-80.59 760.29,-73.6"/>
<text text-anchor="middle" x="1013.5" y="-81.04" font-family="Helvetica,sans-Serif" font-size="10.00"> m_OutputInformationMTime</text>
</g>
<!-- Node14&#45;&gt;Node4 -->
<g id="edge13" class="edge">
<title>Node14&#45;&gt;Node4</title>
<path fill="none" stroke="#9a32cd" stroke-dasharray="5,2" d="M760.55,-87.8C802.08,-93.28 860.37,-101.76 911,-112.04 934.18,-116.74 959.99,-123.37 979.78,-128.76"/>
<polygon fill="#9a32cd" stroke="#9a32cd" points="761,-84.33 750.63,-86.51 760.09,-91.27 761,-84.33"/>
<text text-anchor="middle" x="852.5" y="-115.04" font-family="Helvetica,sans-Serif" font-size="10.00"> m_MTime</text>
</g>
<!-- Node15&#45;&gt;Node14 -->
<g id="edge14" class="edge">
<title>Node15&#45;&gt;Node14</title>
<path fill="none" stroke="#9a32cd" stroke-dasharray="5,2" d="M343.61,-87.04C428.52,-85.63 582.42,-83.06 658.48,-81.79"/>
<polygon fill="#9a32cd" stroke="#9a32cd" points="343.3,-83.55 333.36,-87.21 343.41,-90.55 343.3,-83.55"/>
<text text-anchor="middle" x="425.5" y="-90.04" font-family="Helvetica,sans-Serif" font-size="10.00"> m_GlobalTimeStamp</text>
</g>
<!-- Node16&#45;&gt;Node3 -->
<g id="edge16" class="edge">
<title>Node16&#45;&gt;Node3</title>
<path fill="none" stroke="#9a32cd" stroke-dasharray="5,2" d="M1104.79,-237.13C1150.68,-240.28 1207.32,-244.25 1258,-248.04 1274.06,-249.24 1291.55,-250.61 1307.38,-251.87"/>
<polygon fill="#9a32cd" stroke="#9a32cd" points="1104.79,-233.62 1094.57,-236.43 1104.31,-240.61 1104.79,-233.62"/>
<text text-anchor="middle" x="1187" y="-251.04" font-family="Helvetica,sans-Serif" font-size="10.00"> m_RequiredInputNames</text>
</g>
<!-- Node17&#45;&gt;Node3 -->
<g id="edge18" class="edge">
<title>Node17&#45;&gt;Node3</title>
<path fill="none" stroke="#9a32cd" stroke-dasharray="5,2" d="M1108.25,-176.33C1156.05,-177.53 1213.35,-185.59 1258,-212.04 1269.78,-219.01 1264.6,-229.46 1276,-237.04 1285.3,-243.22 1296.35,-247.41 1307.29,-250.24"/>
<polygon fill="#9a32cd" stroke="#9a32cd" points="1108.25,-172.83 1098.2,-176.18 1108.15,-179.83 1108.25,-172.83"/>
<text text-anchor="start" x="1116" y="-226.04" font-family="Helvetica,sans-Serif" font-size="10.00"> m_CachedInputReleaseData</text>
<text text-anchor="middle" x="1187" y="-215.04" font-family="Helvetica,sans-Serif" font-size="10.00">Flags</text>
</g>
<!-- Node18 -->
<g id="node18" class="node">
<title>Node18</title>
<g id="a_node18"><a xlink:title=" ">
<polygon fill="white" stroke="#bfbfbf" points="946.5,-10.54 946.5,-29.54 1080.5,-29.54 1080.5,-10.54 946.5,-10.54"/>
<text text-anchor="middle" x="1013.5" y="-17.54" font-family="Helvetica,sans-Serif" font-size="10.00">std::atomic&lt; uint32_t &gt;</text>
</a>
</g>
</g>
<!-- Node18&#45;&gt;Node3 -->
<g id="edge20" class="edge">
<title>Node18&#45;&gt;Node3</title>
<path fill="none" stroke="#9a32cd" stroke-dasharray="5,2" d="M1060.78,-8.41C1115.84,2.36 1206.73,9.94 1258,-41.04 1289.01,-71.88 1247.22,-204.1 1276,-237.04 1284.03,-246.22 1295.52,-251.45 1307.39,-254.32"/>
<polygon fill="#9a32cd" stroke="#9a32cd" points="1060.02,-4.99 1050.93,-10.44 1061.43,-11.85 1060.02,-4.99"/>
<text text-anchor="middle" x="1187" y="-44.04" font-family="Helvetica,sans-Serif" font-size="10.00"> m_Progress</text>
</g>
<!-- Node19 -->
<g id="node19" class="node">
<title>Node19</title>
<g id="a_node19"><a xlink:title=" ">
<polygon fill="white" stroke="#bfbfbf" points="676.5,-10.54 676.5,-29.54 732.5,-29.54 732.5,-10.54 676.5,-10.54"/>
<text text-anchor="middle" x="704.5" y="-17.54" font-family="Helvetica,sans-Serif" font-size="10.00">uint32_t</text>
</a>
</g>
</g>
<!-- Node19&#45;&gt;Node18 -->
<g id="edge21" class="edge">
<title>Node19&#45;&gt;Node18</title>
<path fill="none" stroke="#9a32cd" stroke-dasharray="5,2" d="M742.88,-20.04C793.35,-20.04 884.11,-20.04 946.28,-20.04"/>
<polygon fill="#9a32cd" stroke="#9a32cd" points="742.74,-16.54 732.74,-20.04 742.74,-23.54 742.74,-16.54"/>
<text text-anchor="middle" x="852.5" y="-23.04" font-family="Helvetica,sans-Serif" font-size="10.00"> ptr</text>
</g>
<!-- Node20 -->
<g id="node20" class="node">
<title>Node20</title>
<g id="a_node20"><a xlink:title=" ">
<polygon fill="white" stroke="#bfbfbf" points="929,-442.04 929,-472.04 1098,-472.04 1098,-442.04 929,-442.04"/>
<text text-anchor="start" x="937" y="-460.04" font-family="Helvetica,sans-Serif" font-size="10.00">std::vector&lt; DataObjectPointer</text>
<text text-anchor="middle" x="1013.5" y="-449.04" font-family="Helvetica,sans-Serif" font-size="10.00">Map::iterator &gt;</text>
</a>
</g>
</g>
<!-- Node20&#45;&gt;Node3 -->
<g id="edge22" class="edge">
<title>Node20&#45;&gt;Node3</title>
<path fill="none" stroke="#9a32cd" stroke-dasharray="5,2" d="M1076.08,-438.66C1129.67,-420.06 1206.58,-386.75 1258,-336.04 1270.45,-323.75 1263.78,-313.56 1276,-301.04 1291.73,-284.92 1314.47,-273.11 1332.1,-265.64"/>
<polygon fill="#9a32cd" stroke="#9a32cd" points="1074.7,-435.43 1066.36,-441.96 1076.96,-442.06 1074.7,-435.43"/>
<text text-anchor="middle" x="1187" y="-437.04" font-family="Helvetica,sans-Serif" font-size="10.00"> m_IndexedOutputs</text>
<text text-anchor="middle" x="1187" y="-426.04" font-family="Helvetica,sans-Serif" font-size="10.00">m_IndexedInputs</text>
</g>
<!-- Node21 -->
<g id="node21" class="node">
<title>Node21</title>
<g id="a_node21"><a xlink:title="STL iterator class.">
<polygon fill="white" stroke="#bfbfbf" points="633,-447.54 633,-466.54 776,-466.54 776,-447.54 633,-447.54"/>
<text text-anchor="middle" x="704.5" y="-454.54" font-family="Helvetica,sans-Serif" font-size="10.00">std::map&lt; K, T &gt;::iterator</text>
</a>
</g>
</g>
<!-- Node21&#45;&gt;Node20 -->
<g id="edge23" class="edge">
<title>Node21&#45;&gt;Node20</title>
<path fill="none" stroke="#9a32cd" stroke-dasharray="5,2" d="M786.39,-457.04C830.34,-457.04 884.61,-457.04 928.97,-457.04"/>
<polygon fill="#9a32cd" stroke="#9a32cd" points="786.32,-453.54 776.32,-457.04 786.32,-460.54 786.32,-453.54"/>
<text text-anchor="middle" x="852.5" y="-460.04" font-family="Helvetica,sans-Serif" font-size="10.00"> elements</text>
</g>
<!-- Node22&#45;&gt;Node3 -->
<g id="edge24" class="edge">
<title>Node22&#45;&gt;Node3</title>
<path fill="none" stroke="#9a32cd" stroke-dasharray="5,2" d="M1108.34,-273.49C1172.46,-269.02 1254.99,-263.26 1307.34,-259.61"/>
<polygon fill="#9a32cd" stroke="#9a32cd" points="1107.94,-270.01 1098.21,-274.2 1108.43,-276.99 1107.94,-270.01"/>
<text text-anchor="middle" x="1187" y="-286.04" font-family="Helvetica,sans-Serif" font-size="10.00"> m_Outputs</text>
<text text-anchor="middle" x="1187" y="-275.04" font-family="Helvetica,sans-Serif" font-size="10.00">m_Inputs</text>
</g>
<!-- Node23 -->
<g id="node23" class="node">
<title>Node23</title>
<g id="a_node23"><a xlink:href="classitk_1_1SmartPointer.html" target="_top" xlink:title=" ">
<polygon fill="white" stroke="black" points="651,-366.04 651,-396.04 758,-396.04 758,-366.04 651,-366.04"/>
<text text-anchor="start" x="659" y="-384.04" font-family="Helvetica,sans-Serif" font-size="10.00">itk::SmartPointer&lt;</text>
<text text-anchor="middle" x="704.5" y="-373.04" font-family="Helvetica,sans-Serif" font-size="10.00"> Self &gt;</text>
</a>
</g>
</g>
<!-- Node23&#45;&gt;Node1 -->
<g id="edge35" class="edge">
<title>Node23&#45;&gt;Node1</title>
<path fill="none" stroke="#9a32cd" stroke-dasharray="5,2" d="M768.02,-391.4C829.91,-400.74 927.47,-413.04 1012.5,-413.04 1012.5,-413.04 1012.5,-413.04 1600.5,-413.04 1684.24,-413.04 1705.21,-402.05 1786,-380.04 1802.45,-375.56 1820,-369.48 1835.71,-363.55"/>
<polygon fill="#9a32cd" stroke="#9a32cd" points="768.43,-387.92 758.02,-389.87 767.38,-394.84 768.43,-387.92"/>
<text text-anchor="middle" x="1359.5" y="-416.04" font-family="Helvetica,sans-Serif" font-size="10.00"> m_ImageIO</text>
</g>
<!-- Node23&#45;&gt;Node22 -->
<g id="edge25" class="edge">
<title>Node23&#45;&gt;Node22</title>
<path fill="none" stroke="#9a32cd" stroke-dasharray="5,2" d="M757.77,-362.65C802.95,-346.91 870.08,-323.87 929,-305.04 939.38,-301.72 950.52,-298.29 961.18,-295.08"/>
<polygon fill="#9a32cd" stroke="#9a32cd" points="756.48,-359.4 748.19,-366 758.79,-366.01 756.48,-359.4"/>
<text text-anchor="middle" x="852.5" y="-352.04" font-family="Helvetica,sans-Serif" font-size="10.00"> elements</text>
</g>
<!-- Node24 -->
<g id="node24" class="node">
<title>Node24</title>
<g id="a_node24"><a xlink:href="classitk_1_1SmartPointer.html" target="_top" xlink:title=" ">
<polygon fill="white" stroke="black" points="942.5,-314.04 942.5,-344.04 1084.5,-344.04 1084.5,-314.04 942.5,-314.04"/>
<text text-anchor="start" x="950.5" y="-332.04" font-family="Helvetica,sans-Serif" font-size="10.00">itk::SmartPointer&lt;</text>
<text text-anchor="middle" x="1013.5" y="-321.04" font-family="Helvetica,sans-Serif" font-size="10.00"> itk::MultiThreaderBase &gt;</text>
</a>
</g>
</g>
<!-- Node24&#45;&gt;Node3 -->
<g id="edge27" class="edge">
<title>Node24&#45;&gt;Node3</title>
<path fill="none" stroke="#9a32cd" stroke-dasharray="5,2" d="M1094.76,-324.28C1142.74,-320.09 1204.57,-312.32 1258,-298.04 1287.6,-290.12 1319.98,-275.41 1339.77,-265.67"/>
<polygon fill="#9a32cd" stroke="#9a32cd" points="1094.41,-320.79 1084.73,-325.12 1094.99,-327.77 1094.41,-320.79"/>
<text text-anchor="middle" x="1187" y="-324.04" font-family="Helvetica,sans-Serif" font-size="10.00"> m_MultiThreader</text>
</g>
<!-- Node25 -->
<g id="node25" class="node">
<title>Node25</title>
<g id="a_node25"><a xlink:href="structitk_1_1ImageSourceCommon.html" target="_top" xlink:title="Secondary base class of ImageSource common between templates.">
<polygon fill="white" stroke="black" points="1288,-310.54 1288,-329.54 1431,-329.54 1431,-310.54 1288,-310.54"/>
<text text-anchor="middle" x="1359.5" y="-317.54" font-family="Helvetica,sans-Serif" font-size="10.00">itk::ImageSourceCommon</text>
</a>
</g>
</g>
<!-- Node25&#45;&gt;Node2 -->
<g id="edge29" class="edge">
<title>Node25&#45;&gt;Node2</title>
<path fill="none" stroke="#8b1a1a" d="M1441.44,-320.04C1468.42,-320.04 1498.3,-320.04 1524.7,-320.04"/>
<polygon fill="#8b1a1a" stroke="#8b1a1a" points="1441.26,-316.54 1431.26,-320.04 1441.26,-323.54 1441.26,-316.54"/>
</g>
<!-- Node26 -->
<g id="node26" class="node">
<title>Node26</title>
<g id="a_node26"><a xlink:href="classitk_1_1ImageIORegion.html" target="_top" xlink:title="An ImageIORegion represents a structured region of data.">
<polygon fill="white" stroke="black" points="1544.5,-189.54 1544.5,-208.54 1654.5,-208.54 1654.5,-189.54 1544.5,-189.54"/>
<text text-anchor="middle" x="1599.5" y="-196.54" font-family="Helvetica,sans-Serif" font-size="10.00">itk::ImageIORegion</text>
</a>
</g>
</g>
<!-- Node26&#45;&gt;Node1 -->
<g id="edge30" class="edge">
<title>Node26&#45;&gt;Node1</title>
<path fill="none" stroke="#9a32cd" stroke-dasharray="5,2" d="M1628.73,-213.3C1679.48,-238.94 1786.28,-292.9 1844.88,-322.52"/>
<polygon fill="#9a32cd" stroke="#9a32cd" points="1630.15,-210.09 1619.64,-208.71 1626.99,-216.34 1630.15,-210.09"/>
<text text-anchor="middle" x="1739" y="-295.04" font-family="Helvetica,sans-Serif" font-size="10.00"> m_ActualIORegion</text>
</g>
<!-- Node27 -->
<g id="node27" class="node">
<title>Node27</title>
<g id="a_node27"><a xlink:href="classitk_1_1Region.html" target="_top" xlink:title="A region represents some portion or piece of data.">
<polygon fill="white" stroke="black" points="1325,-170.54 1325,-189.54 1394,-189.54 1394,-170.54 1325,-170.54"/>
<text text-anchor="middle" x="1359.5" y="-177.54" font-family="Helvetica,sans-Serif" font-size="10.00">itk::Region</text>
</a>
</g>
</g>
<!-- Node27&#45;&gt;Node26 -->
<g id="edge31" class="edge">
<title>Node27&#45;&gt;Node26</title>
<path fill="none" stroke="midnightblue" d="M1404.21,-183.53C1443.72,-186.68 1502.02,-191.34 1544.45,-194.72"/>
<polygon fill="midnightblue" stroke="midnightblue" points="1404.34,-180.03 1394.09,-182.72 1403.78,-187 1404.34,-180.03"/>
</g>
<!-- Node28 -->
<g id="node28" class="node">
<title>Node28</title>
<g id="a_node28"><a xlink:title=" ">
<polygon fill="white" stroke="#bfbfbf" points="1276,-132.54 1276,-151.54 1443,-151.54 1443,-132.54 1276,-132.54"/>
<text text-anchor="middle" x="1359.5" y="-139.54" font-family="Helvetica,sans-Serif" font-size="10.00">std::vector&lt; IndexValueType &gt;</text>
</a>
</g>
</g>
<!-- Node28&#45;&gt;Node26 -->
<g id="edge32" class="edge">
<title>Node28&#45;&gt;Node26</title>
<path fill="none" stroke="#9a32cd" stroke-dasharray="5,2" d="M1419.52,-153.57C1446.32,-159.05 1478.36,-165.95 1507,-173.04 1527.04,-178 1549.32,-184.31 1566.88,-189.48"/>
<polygon fill="#9a32cd" stroke="#9a32cd" points="1420.02,-150.1 1409.52,-151.54 1418.63,-156.96 1420.02,-150.1"/>
<text text-anchor="middle" x="1484" y="-176.04" font-family="Helvetica,sans-Serif" font-size="10.00"> m_Index</text>
</g>
<!-- Node29 -->
<g id="node29" class="node">
<title>Node29</title>
<g id="a_node29"><a xlink:title=" ">
<polygon fill="white" stroke="#bfbfbf" points="1279,-208.54 1279,-227.54 1440,-227.54 1440,-208.54 1279,-208.54"/>
<text text-anchor="middle" x="1359.5" y="-215.54" font-family="Helvetica,sans-Serif" font-size="10.00">std::vector&lt; SizeValueType &gt;</text>
</a>
</g>
</g>
<!-- Node29&#45;&gt;Node26 -->
<g id="edge33" class="edge">
<title>Node29&#45;&gt;Node26</title>
<path fill="none" stroke="#9a32cd" stroke-dasharray="5,2" d="M1450.23,-210.87C1481.82,-208.35 1516.36,-205.59 1544.14,-203.38"/>
<polygon fill="#9a32cd" stroke="#9a32cd" points="1449.77,-207.4 1440.08,-211.68 1450.33,-214.38 1449.77,-207.4"/>
<text text-anchor="middle" x="1484" y="-212.04" font-family="Helvetica,sans-Serif" font-size="10.00"> m_Size</text>
</g>
</g>
</svg>
