<?xml version="1.0" encoding="UTF-8" standalone="no"?>
<!DOCTYPE svg PUBLIC "-//W3C//DTD SVG 1.1//EN"
 "http://www.w3.org/Graphics/SVG/1.1/DTD/svg11.dtd">
<!-- Generated by graphviz version 2.43.0 (0)
 -->
<!-- Title: itk::ConjugateGradientLineSearchOptimizerv4Template&lt; TInternalComputationValueType &gt; Pages: 1 -->
<svg width="2633pt" height="255pt"
 viewBox="0.00 0.00 2633.00 254.50" xmlns="http://www.w3.org/2000/svg" xmlns:xlink="http://www.w3.org/1999/xlink">
<g id="graph0" class="graph" transform="scale(1 1) rotate(0) translate(4 250.5)">
<title>itk::ConjugateGradientLineSearchOptimizerv4Template&lt; TInternalComputationValueType &gt;</title>
<polygon fill="white" stroke="transparent" points="-4,4 -4,-250.5 2629,-250.5 2629,4 -4,4"/>
<!-- Node1 -->
<g id="node1" class="node">
<title>Node1</title>
<g id="a_node1"><a xlink:title="Conjugate gradient descent optimizer with a golden section line search for nonlinear optimization.">
<polygon fill="#bfbfbf" stroke="black" points="2430,-60.5 2430,-101.5 2625,-101.5 2625,-60.5 2430,-60.5"/>
<text text-anchor="start" x="2438" y="-89.5" font-family="Helvetica,sans-Serif" font-size="10.00">itk::ConjugateGradientLine</text>
<text text-anchor="start" x="2438" y="-78.5" font-family="Helvetica,sans-Serif" font-size="10.00">SearchOptimizerv4Template</text>
<text text-anchor="middle" x="2527.5" y="-67.5" font-family="Helvetica,sans-Serif" font-size="10.00">&lt; TInternalComputationValueType &gt;</text>
</a>
</g>
</g>
<!-- Node2 -->
<g id="node2" class="node">
<title>Node2</title>
<g id="a_node2"><a xlink:href="classitk_1_1GradientDescentLineSearchOptimizerv4Template.html" target="_top" xlink:title="Gradient descent optimizer with a golden section line search.">
<polygon fill="white" stroke="black" points="2198,-60.5 2198,-101.5 2393,-101.5 2393,-60.5 2198,-60.5"/>
<text text-anchor="start" x="2206" y="-89.5" font-family="Helvetica,sans-Serif" font-size="10.00">itk::GradientDescentLine</text>
<text text-anchor="start" x="2206" y="-78.5" font-family="Helvetica,sans-Serif" font-size="10.00">SearchOptimizerv4Template</text>
<text text-anchor="middle" x="2295.5" y="-67.5" font-family="Helvetica,sans-Serif" font-size="10.00">&lt; TInternalComputationValueType &gt;</text>
</a>
</g>
</g>
<!-- Node2&#45;&gt;Node1 -->
<g id="edge1" class="edge">
<title>Node2&#45;&gt;Node1</title>
<path fill="none" stroke="midnightblue" d="M2403.08,-81C2412,-81 2420.99,-81 2429.84,-81"/>
<polygon fill="midnightblue" stroke="midnightblue" points="2403.04,-77.5 2393.04,-81 2403.04,-84.5 2403.04,-77.5"/>
</g>
<!-- Node3 -->
<g id="node3" class="node">
<title>Node3</title>
<g id="a_node3"><a xlink:href="classitk_1_1GradientDescentOptimizerv4Template.html" target="_top" xlink:title="Gradient descent optimizer.">
<polygon fill="white" stroke="black" points="1921,-66 1921,-96 2161,-96 2161,-66 1921,-66"/>
<text text-anchor="start" x="1929" y="-84" font-family="Helvetica,sans-Serif" font-size="10.00">itk::GradientDescentOptimizerv4</text>
<text text-anchor="middle" x="2041" y="-73" font-family="Helvetica,sans-Serif" font-size="10.00">Template&lt; TInternalComputationValueType &gt;</text>
</a>
</g>
</g>
<!-- Node3&#45;&gt;Node2 -->
<g id="edge2" class="edge">
<title>Node3&#45;&gt;Node2</title>
<path fill="none" stroke="midnightblue" d="M2171.29,-81C2180.21,-81 2189.1,-81 2197.8,-81"/>
<polygon fill="midnightblue" stroke="midnightblue" points="2171.23,-77.5 2161.23,-81 2171.23,-84.5 2171.23,-77.5"/>
</g>
<!-- Node4 -->
<g id="node4" class="node">
<title>Node4</title>
<g id="a_node4"><a xlink:href="classitk_1_1GradientDescentOptimizerBasev4Template.html" target="_top" xlink:title=" ">
<polygon fill="white" stroke="black" points="1669,-60.5 1669,-101.5 1884,-101.5 1884,-60.5 1669,-60.5"/>
<text text-anchor="start" x="1677" y="-89.5" font-family="Helvetica,sans-Serif" font-size="10.00">itk::GradientDescentOptimizer</text>
<text text-anchor="start" x="1677" y="-78.5" font-family="Helvetica,sans-Serif" font-size="10.00">Basev4Template&lt; TInternalComputation</text>
<text text-anchor="middle" x="1776.5" y="-67.5" font-family="Helvetica,sans-Serif" font-size="10.00">ValueType &gt;</text>
</a>
</g>
</g>
<!-- Node4&#45;&gt;Node3 -->
<g id="edge3" class="edge">
<title>Node4&#45;&gt;Node3</title>
<path fill="none" stroke="midnightblue" d="M1894.51,-81C1903.27,-81 1912.12,-81 1920.9,-81"/>
<polygon fill="midnightblue" stroke="midnightblue" points="1894.27,-77.5 1884.27,-81 1894.27,-84.5 1894.27,-77.5"/>
</g>
<!-- Node5 -->
<g id="node5" class="node">
<title>Node5</title>
<g id="a_node5"><a xlink:href="classitk_1_1ObjectToObjectOptimizerBaseTemplate.html" target="_top" xlink:title="Abstract base for object&#45;to&#45;object optimizers.">
<polygon fill="white" stroke="black" points="1243,-126.5 1243,-167.5 1446,-167.5 1446,-126.5 1243,-126.5"/>
<text text-anchor="start" x="1251" y="-155.5" font-family="Helvetica,sans-Serif" font-size="10.00">itk::ObjectToObjectOptimizer</text>
<text text-anchor="start" x="1251" y="-144.5" font-family="Helvetica,sans-Serif" font-size="10.00">BaseTemplate&lt; TInternalComputation</text>
<text text-anchor="middle" x="1344.5" y="-133.5" font-family="Helvetica,sans-Serif" font-size="10.00">ValueType &gt;</text>
</a>
</g>
</g>
<!-- Node5&#45;&gt;Node4 -->
<g id="edge4" class="edge">
<title>Node5&#45;&gt;Node4</title>
<path fill="none" stroke="midnightblue" d="M1456.64,-141.66C1514.9,-137.55 1587.23,-130.38 1651,-118 1672.14,-113.9 1694.83,-107.7 1714.98,-101.55"/>
<polygon fill="midnightblue" stroke="midnightblue" points="1456.04,-138.19 1446.3,-142.36 1456.52,-145.17 1456.04,-138.19"/>
</g>
<!-- Node6 -->
<g id="node6" class="node">
<title>Node6</title>
<g id="a_node6"><a xlink:href="classitk_1_1Object.html" target="_top" xlink:title="Base class for most ITK classes.">
<polygon fill="white" stroke="black" points="998,-100.5 998,-119.5 1065,-119.5 1065,-100.5 998,-100.5"/>
<text text-anchor="middle" x="1031.5" y="-107.5" font-family="Helvetica,sans-Serif" font-size="10.00">itk::Object</text>
</a>
</g>
</g>
<!-- Node6&#45;&gt;Node5 -->
<g id="edge5" class="edge">
<title>Node6&#45;&gt;Node5</title>
<path fill="none" stroke="midnightblue" d="M1075.59,-115.58C1089.45,-117.34 1104.87,-119.28 1119,-121 1159.51,-125.92 1204.15,-131.13 1242.89,-135.59"/>
<polygon fill="midnightblue" stroke="midnightblue" points="1075.71,-112.06 1065.35,-114.27 1074.82,-119.01 1075.71,-112.06"/>
</g>
<!-- Node25 -->
<g id="node25" class="node">
<title>Node25</title>
<g id="a_node25"><a xlink:href="classitk_1_1DomainThreader.html" target="_top" xlink:title=" ">
<polygon fill="white" stroke="black" points="1234,-55 1234,-107 1455,-107 1455,-55 1234,-55"/>
<text text-anchor="start" x="1242" y="-95" font-family="Helvetica,sans-Serif" font-size="10.00">itk::DomainThreader</text>
<text text-anchor="start" x="1242" y="-84" font-family="Helvetica,sans-Serif" font-size="10.00">&lt; itk::ThreadedIndexedContainer</text>
<text text-anchor="start" x="1242" y="-73" font-family="Helvetica,sans-Serif" font-size="10.00">Partitioner, itk::GradientDescentOptimizer</text>
<text text-anchor="middle" x="1344.5" y="-62" font-family="Helvetica,sans-Serif" font-size="10.00">Basev4Template &gt;</text>
</a>
</g>
</g>
<!-- Node6&#45;&gt;Node25 -->
<g id="edge27" class="edge">
<title>Node6&#45;&gt;Node25</title>
<path fill="none" stroke="midnightblue" d="M1075.09,-110.36C1112.36,-110.26 1167.9,-109.1 1216,-104 1221.82,-103.38 1227.76,-102.66 1233.76,-101.84"/>
<polygon fill="midnightblue" stroke="midnightblue" points="1075.08,-106.86 1065.08,-110.36 1075.08,-113.86 1075.08,-106.86"/>
</g>
<!-- Node7 -->
<g id="node7" class="node">
<title>Node7</title>
<g id="a_node7"><a xlink:href="classitk_1_1LightObject.html" target="_top" xlink:title="Light weight base class for most itk classes.">
<polygon fill="white" stroke="black" points="678.5,-135.5 678.5,-154.5 769.5,-154.5 769.5,-135.5 678.5,-135.5"/>
<text text-anchor="middle" x="724" y="-142.5" font-family="Helvetica,sans-Serif" font-size="10.00">itk::LightObject</text>
</a>
</g>
</g>
<!-- Node7&#45;&gt;Node6 -->
<g id="edge6" class="edge">
<title>Node7&#45;&gt;Node6</title>
<path fill="none" stroke="midnightblue" d="M779.55,-140.76C823.92,-137.07 888.12,-131.19 944,-124 961.8,-121.71 981.57,-118.55 997.71,-115.82"/>
<polygon fill="midnightblue" stroke="midnightblue" points="779.23,-137.27 769.56,-141.58 779.81,-144.25 779.23,-137.27"/>
</g>
<!-- Node8 -->
<g id="node8" class="node">
<title>Node8</title>
<g id="a_node8"><a xlink:title=" ">
<polygon fill="white" stroke="#bfbfbf" points="378,-137.5 378,-156.5 485,-156.5 485,-137.5 378,-137.5"/>
<text text-anchor="middle" x="431.5" y="-144.5" font-family="Helvetica,sans-Serif" font-size="10.00">std::atomic&lt; int &gt;</text>
</a>
</g>
</g>
<!-- Node8&#45;&gt;Node7 -->
<g id="edge7" class="edge">
<title>Node8&#45;&gt;Node7</title>
<path fill="none" stroke="#9a32cd" stroke-dasharray="5,2" d="M495.13,-146.57C550.33,-146.19 629.39,-145.64 678.4,-145.31"/>
<polygon fill="#9a32cd" stroke="#9a32cd" points="495.08,-143.07 485.11,-146.64 495.13,-150.07 495.08,-143.07"/>
<text text-anchor="middle" x="572.5" y="-150" font-family="Helvetica,sans-Serif" font-size="10.00"> m_ReferenceCount</text>
</g>
<!-- Node9 -->
<g id="node9" class="node">
<title>Node9</title>
<g id="a_node9"><a xlink:title="STL class.">
<polygon fill="white" stroke="#bfbfbf" points="691.5,-95.5 691.5,-114.5 756.5,-114.5 756.5,-95.5 691.5,-95.5"/>
<text text-anchor="middle" x="724" y="-102.5" font-family="Helvetica,sans-Serif" font-size="10.00">std::string</text>
</a>
</g>
</g>
<!-- Node9&#45;&gt;Node6 -->
<g id="edge8" class="edge">
<title>Node9&#45;&gt;Node6</title>
<path fill="none" stroke="#9a32cd" stroke-dasharray="5,2" d="M766.66,-105.68C828.13,-106.69 941.85,-108.55 997.75,-109.46"/>
<polygon fill="#9a32cd" stroke="#9a32cd" points="766.6,-102.18 756.54,-105.52 766.48,-109.18 766.6,-102.18"/>
<text text-anchor="middle" x="885.5" y="-112" font-family="Helvetica,sans-Serif" font-size="10.00"> m_ObjectName</text>
</g>
<!-- Node10 -->
<g id="node10" class="node">
<title>Node10</title>
<g id="a_node10"><a xlink:title="STL class.">
<polygon fill="white" stroke="#bfbfbf" points="379.5,-88 379.5,-118 483.5,-118 483.5,-88 379.5,-88"/>
<text text-anchor="start" x="387.5" y="-106" font-family="Helvetica,sans-Serif" font-size="10.00">std::basic_string&lt;</text>
<text text-anchor="middle" x="431.5" y="-95" font-family="Helvetica,sans-Serif" font-size="10.00"> char &gt;</text>
</a>
</g>
</g>
<!-- Node10&#45;&gt;Node9 -->
<g id="edge9" class="edge">
<title>Node10&#45;&gt;Node9</title>
<path fill="none" stroke="midnightblue" d="M493.92,-103.42C554.22,-103.84 643.81,-104.45 691.1,-104.78"/>
<polygon fill="midnightblue" stroke="midnightblue" points="493.79,-99.92 483.77,-103.35 493.74,-106.92 493.79,-99.92"/>
</g>
<!-- Node11 -->
<g id="node11" class="node">
<title>Node11</title>
<g id="a_node11"><a xlink:href="classitk_1_1MetaDataDictionary.html" target="_top" xlink:title="Provides a mechanism for storing a collection of arbitrary data types.">
<polygon fill="white" stroke="black" points="657,-53.5 657,-72.5 791,-72.5 791,-53.5 657,-53.5"/>
<text text-anchor="middle" x="724" y="-60.5" font-family="Helvetica,sans-Serif" font-size="10.00">itk::MetaDataDictionary</text>
</a>
</g>
</g>
<!-- Node11&#45;&gt;Node6 -->
<g id="edge10" class="edge">
<title>Node11&#45;&gt;Node6</title>
<path fill="none" stroke="#9a32cd" stroke-dasharray="5,2" d="M801.51,-71.73C843.66,-76.89 896.84,-83.98 944,-92 961.84,-95.03 981.62,-99.1 997.75,-102.59"/>
<polygon fill="#9a32cd" stroke="#9a32cd" points="801.67,-68.23 791.32,-70.5 800.82,-75.17 801.67,-68.23"/>
<text text-anchor="middle" x="885.5" y="-95" font-family="Helvetica,sans-Serif" font-size="10.00"> m_MetaDataDictionary</text>
</g>
<!-- Node12 -->
<g id="node12" class="node">
<title>Node12</title>
<g id="a_node12"><a xlink:title=" ">
<polygon fill="white" stroke="#bfbfbf" points="357,-39 357,-69 506,-69 506,-39 357,-39"/>
<text text-anchor="start" x="365" y="-57" font-family="Helvetica,sans-Serif" font-size="10.00">std::shared_ptr&lt; MetaData</text>
<text text-anchor="middle" x="431.5" y="-46" font-family="Helvetica,sans-Serif" font-size="10.00">DictionaryMapType &gt;</text>
</a>
</g>
</g>
<!-- Node12&#45;&gt;Node11 -->
<g id="edge11" class="edge">
<title>Node12&#45;&gt;Node11</title>
<path fill="none" stroke="#9a32cd" stroke-dasharray="5,2" d="M516.43,-56.6C561.08,-57.98 615.2,-59.66 656.84,-60.95"/>
<polygon fill="#9a32cd" stroke="#9a32cd" points="516.28,-53.09 506.18,-56.28 516.07,-60.09 516.28,-53.09"/>
<text text-anchor="middle" x="572.5" y="-63" font-family="Helvetica,sans-Serif" font-size="10.00"> m_Dictionary</text>
</g>
<!-- Node13 -->
<g id="node13" class="node">
<title>Node13</title>
<g id="a_node13"><a xlink:title="STL class.">
<polygon fill="white" stroke="#bfbfbf" points="114,-44.5 114,-63.5 215,-63.5 215,-44.5 114,-44.5"/>
<text text-anchor="middle" x="164.5" y="-51.5" font-family="Helvetica,sans-Serif" font-size="10.00">std::map&lt; K, T &gt;</text>
</a>
</g>
</g>
<!-- Node13&#45;&gt;Node12 -->
<g id="edge12" class="edge">
<title>Node13&#45;&gt;Node12</title>
<path fill="none" stroke="#9a32cd" stroke-dasharray="5,2" d="M225.18,-54C264.19,-54 315.41,-54 356.93,-54"/>
<polygon fill="#9a32cd" stroke="#9a32cd" points="225.03,-50.5 215.03,-54 225.03,-57.5 225.03,-50.5"/>
<text text-anchor="middle" x="286" y="-57" font-family="Helvetica,sans-Serif" font-size="10.00"> ptr</text>
</g>
<!-- Node14 -->
<g id="node14" class="node">
<title>Node14</title>
<g id="a_node14"><a xlink:title=" ">
<polygon fill="white" stroke="#bfbfbf" points="0,-68.5 0,-87.5 29,-87.5 29,-68.5 0,-68.5"/>
<text text-anchor="middle" x="14.5" y="-75.5" font-family="Helvetica,sans-Serif" font-size="10.00">K</text>
</a>
</g>
</g>
<!-- Node14&#45;&gt;Node13 -->
<g id="edge13" class="edge">
<title>Node14&#45;&gt;Node13</title>
<path fill="none" stroke="#9a32cd" stroke-dasharray="5,2" d="M39.24,-74.15C59.28,-70.9 88.63,-66.14 113.78,-62.06"/>
<polygon fill="#9a32cd" stroke="#9a32cd" points="38.47,-70.73 29.16,-75.79 39.59,-77.64 38.47,-70.73"/>
<text text-anchor="middle" x="71.5" y="-76" font-family="Helvetica,sans-Serif" font-size="10.00"> keys</text>
</g>
<!-- Node15 -->
<g id="node15" class="node">
<title>Node15</title>
<g id="a_node15"><a xlink:title=" ">
<polygon fill="white" stroke="#bfbfbf" points="0,-15.5 0,-34.5 29,-34.5 29,-15.5 0,-15.5"/>
<text text-anchor="middle" x="14.5" y="-22.5" font-family="Helvetica,sans-Serif" font-size="10.00">T</text>
</a>
</g>
</g>
<!-- Node15&#45;&gt;Node13 -->
<g id="edge14" class="edge">
<title>Node15&#45;&gt;Node13</title>
<path fill="none" stroke="#9a32cd" stroke-dasharray="5,2" d="M39.09,-29.62C59.39,-33.6 89.35,-39.47 114.78,-44.45"/>
<polygon fill="#9a32cd" stroke="#9a32cd" points="39.64,-26.16 29.16,-27.68 38.3,-33.03 39.64,-26.16"/>
<text text-anchor="middle" x="71.5" y="-44" font-family="Helvetica,sans-Serif" font-size="10.00"> elements</text>
</g>
<!-- Node17 -->
<g id="node17" class="node">
<title>Node17</title>
<g id="a_node17"><a xlink:title="STL class.">
<polygon fill="white" stroke="#bfbfbf" points="114.5,-0.5 114.5,-19.5 214.5,-19.5 214.5,-0.5 114.5,-0.5"/>
<text text-anchor="middle" x="164.5" y="-7.5" font-family="Helvetica,sans-Serif" font-size="10.00">std::atomic&lt; T &gt;</text>
</a>
</g>
</g>
<!-- Node15&#45;&gt;Node17 -->
<g id="edge17" class="edge">
<title>Node15&#45;&gt;Node17</title>
<path fill="none" stroke="#9a32cd" stroke-dasharray="5,2" d="M38.4,-13.54C41.24,-12.51 44.15,-11.62 47,-11 68.74,-6.29 93.31,-5.44 114.26,-6.01"/>
<polygon fill="#9a32cd" stroke="#9a32cd" points="37.03,-10.32 29.19,-17.45 39.77,-16.77 37.03,-10.32"/>
<text text-anchor="middle" x="71.5" y="-14" font-family="Helvetica,sans-Serif" font-size="10.00"> ptr</text>
</g>
<!-- Node16 -->
<g id="node16" class="node">
<title>Node16</title>
<g id="a_node16"><a xlink:href="classitk_1_1TimeStamp.html" target="_top" xlink:title="Generate a unique, increasing time value.">
<polygon fill="white" stroke="black" points="526.5,-5.5 526.5,-24.5 618.5,-24.5 618.5,-5.5 526.5,-5.5"/>
<text text-anchor="middle" x="572.5" y="-12.5" font-family="Helvetica,sans-Serif" font-size="10.00">itk::TimeStamp</text>
</a>
</g>
</g>
<!-- Node16&#45;&gt;Node6 -->
<g id="edge15" class="edge">
<title>Node16&#45;&gt;Node6</title>
<path fill="none" stroke="#9a32cd" stroke-dasharray="5,2" d="M628.73,-16.03C676.72,-17.68 747.91,-21.96 809,-33 870.46,-44.1 886.34,-48.02 944,-72 952.45,-75.51 953.75,-78.04 962,-82 976.01,-88.73 992.08,-95.35 1005.14,-100.47"/>
<polygon fill="#9a32cd" stroke="#9a32cd" points="628.66,-12.53 618.56,-15.71 628.44,-19.52 628.66,-12.53"/>
<text text-anchor="middle" x="724" y="-36" font-family="Helvetica,sans-Serif" font-size="10.00"> m_MTime</text>
</g>
<!-- Node17&#45;&gt;Node16 -->
<g id="edge16" class="edge">
<title>Node17&#45;&gt;Node16</title>
<path fill="none" stroke="#9a32cd" stroke-dasharray="5,2" d="M225.03,-10.73C306.93,-11.74 452.57,-13.54 526.2,-14.44"/>
<polygon fill="#9a32cd" stroke="#9a32cd" points="224.92,-7.23 214.88,-10.61 224.83,-14.23 224.92,-7.23"/>
<text text-anchor="middle" x="286" y="-16" font-family="Helvetica,sans-Serif" font-size="10.00"> m_GlobalTimeStamp</text>
</g>
<!-- Node18 -->
<g id="node18" class="node">
<title>Node18</title>
<g id="a_node18"><a xlink:href="classitk_1_1SmartPointer.html" target="_top" xlink:title=" ">
<polygon fill="white" stroke="black" points="978,-43 978,-73 1085,-73 1085,-43 978,-43"/>
<text text-anchor="start" x="986" y="-61" font-family="Helvetica,sans-Serif" font-size="10.00">itk::SmartPointer&lt;</text>
<text text-anchor="middle" x="1031.5" y="-50" font-family="Helvetica,sans-Serif" font-size="10.00"> Self &gt;</text>
</a>
</g>
</g>
<!-- Node18&#45;&gt;Node4 -->
<g id="edge25" class="edge">
<title>Node18&#45;&gt;Node4</title>
<path fill="none" stroke="#9a32cd" stroke-dasharray="5,2" d="M1095.43,-48.56C1135.09,-43.09 1187.41,-36.76 1234,-34 1332.05,-28.18 1357.04,-26.86 1455,-34 1526.65,-39.23 1606.61,-50.94 1668.73,-61.37"/>
<polygon fill="#9a32cd" stroke="#9a32cd" points="1094.8,-45.11 1085.38,-49.96 1095.77,-52.05 1094.8,-45.11"/>
<text text-anchor="middle" x="1344.5" y="-37" font-family="Helvetica,sans-Serif" font-size="10.00"> m_ConvergenceMonitoring</text>
</g>
<!-- Node18&#45;&gt;Node5 -->
<g id="edge18" class="edge">
<title>Node18&#45;&gt;Node5</title>
<path fill="none" stroke="#9a32cd" stroke-dasharray="5,2" d="M1094.94,-70.24C1131.03,-78.31 1176.89,-90.31 1216,-106 1224.49,-109.41 1225.54,-112.51 1234,-116 1243.13,-119.77 1252.87,-123.25 1262.64,-126.41"/>
<polygon fill="#9a32cd" stroke="#9a32cd" points="1095.55,-66.79 1085.03,-68.06 1094.05,-73.63 1095.55,-66.79"/>
<text text-anchor="middle" x="1167.5" y="-109" font-family="Helvetica,sans-Serif" font-size="10.00"> m_ScalesEstimator</text>
</g>
<!-- Node18&#45;&gt;Node25 -->
<g id="edge28" class="edge">
<title>Node18&#45;&gt;Node25</title>
<path fill="none" stroke="#9a32cd" stroke-dasharray="5,2" d="M1095.42,-55.78C1130.9,-55.17 1176,-55.46 1216,-59 1221.82,-59.51 1227.77,-60.15 1233.77,-60.88"/>
<polygon fill="#9a32cd" stroke="#9a32cd" points="1095.14,-52.28 1085.21,-55.98 1095.28,-59.28 1095.14,-52.28"/>
<text text-anchor="middle" x="1167.5" y="-62" font-family="Helvetica,sans-Serif" font-size="10.00"> m_MultiThreader</text>
</g>
<!-- Node19 -->
<g id="node19" class="node">
<title>Node19</title>
<g id="a_node19"><a xlink:href="classitk_1_1SmartPointer.html" target="_top" xlink:title="Implements transparent reference counting.">
<polygon fill="white" stroke="black" points="978,-216 978,-246 1085,-246 1085,-216 978,-216"/>
<text text-anchor="start" x="986" y="-234" font-family="Helvetica,sans-Serif" font-size="10.00">itk::SmartPointer&lt;</text>
<text text-anchor="middle" x="1031.5" y="-223" font-family="Helvetica,sans-Serif" font-size="10.00"> TObjectType &gt;</text>
</a>
</g>
</g>
<!-- Node19&#45;&gt;Node5 -->
<g id="edge19" class="edge">
<title>Node19&#45;&gt;Node5</title>
<path fill="none" stroke="#9a32cd" stroke-dasharray="5,2" d="M1095.64,-222.87C1131.36,-217.48 1176.64,-209.29 1216,-198 1244.07,-189.95 1274.47,-177.93 1298.55,-167.58"/>
<polygon fill="#9a32cd" stroke="#9a32cd" points="1094.73,-219.47 1085.35,-224.39 1095.75,-226.4 1094.73,-219.47"/>
<text text-anchor="middle" x="1167.5" y="-221" font-family="Helvetica,sans-Serif" font-size="10.00"> m_Metric</text>
</g>
<!-- Node20 -->
<g id="node20" class="node">
<title>Node20</title>
<g id="a_node20"><a xlink:href="classitk_1_1OptimizerParameters.html" target="_top" xlink:title=" ">
<polygon fill="white" stroke="black" points="962,-167 962,-197 1101,-197 1101,-167 962,-167"/>
<text text-anchor="start" x="970" y="-185" font-family="Helvetica,sans-Serif" font-size="10.00">itk::OptimizerParameters</text>
<text text-anchor="middle" x="1031.5" y="-174" font-family="Helvetica,sans-Serif" font-size="10.00">&lt; double &gt;</text>
</a>
</g>
</g>
<!-- Node20&#45;&gt;Node5 -->
<g id="edge20" class="edge">
<title>Node20&#45;&gt;Node5</title>
<path fill="none" stroke="#9a32cd" stroke-dasharray="5,2" d="M1111.1,-173.15C1151.08,-168.65 1200.14,-163.13 1242.86,-158.33"/>
<polygon fill="#9a32cd" stroke="#9a32cd" points="1110.68,-169.68 1101.14,-174.28 1111.46,-176.64 1110.68,-169.68"/>
<text text-anchor="middle" x="1167.5" y="-186" font-family="Helvetica,sans-Serif" font-size="10.00"> m_Scales</text>
<text text-anchor="middle" x="1167.5" y="-175" font-family="Helvetica,sans-Serif" font-size="10.00">m_Weights</text>
</g>
<!-- Node21 -->
<g id="node21" class="node">
<title>Node21</title>
<g id="a_node21"><a xlink:href="classitk_1_1Array.html" target="_top" xlink:title=" ">
<polygon fill="white" stroke="black" points="665.5,-225.5 665.5,-244.5 782.5,-244.5 782.5,-225.5 665.5,-225.5"/>
<text text-anchor="middle" x="724" y="-232.5" font-family="Helvetica,sans-Serif" font-size="10.00">itk::Array&lt; double &gt;</text>
</a>
</g>
</g>
<!-- Node21&#45;&gt;Node20 -->
<g id="edge21" class="edge">
<title>Node21&#45;&gt;Node20</title>
<path fill="none" stroke="midnightblue" d="M793.04,-226.72C836.41,-221.03 893.71,-212.76 944,-203 952.95,-201.26 962.37,-199.21 971.57,-197.08"/>
<polygon fill="midnightblue" stroke="midnightblue" points="792.35,-223.28 782.88,-228.04 793.25,-230.22 792.35,-223.28"/>
</g>
<!-- Node22 -->
<g id="node22" class="node">
<title>Node22</title>
<g id="a_node22"><a xlink:title=" ">
<polygon fill="white" stroke="#bfbfbf" points="370,-225.5 370,-244.5 493,-244.5 493,-225.5 370,-225.5"/>
<text text-anchor="middle" x="431.5" y="-232.5" font-family="Helvetica,sans-Serif" font-size="10.00">vnl_vector&lt; double &gt;</text>
</a>
</g>
</g>
<!-- Node22&#45;&gt;Node21 -->
<g id="edge22" class="edge">
<title>Node22&#45;&gt;Node21</title>
<path fill="none" stroke="midnightblue" d="M503.07,-235C552.73,-235 618.4,-235 665.01,-235"/>
<polygon fill="midnightblue" stroke="midnightblue" points="503.04,-231.5 493.04,-235 503.04,-238.5 503.04,-231.5"/>
</g>
<!-- Node23 -->
<g id="node23" class="node">
<title>Node23</title>
<g id="a_node23"><a xlink:title=" ">
<polygon fill="white" stroke="#bfbfbf" points="639,-175 639,-205 809,-205 809,-175 639,-175"/>
<text text-anchor="start" x="647" y="-193" font-family="Helvetica,sans-Serif" font-size="10.00">std::unique_ptr&lt; itk</text>
<text text-anchor="middle" x="724" y="-182" font-family="Helvetica,sans-Serif" font-size="10.00">::OptimizerParametersHelper &gt;</text>
</a>
</g>
</g>
<!-- Node23&#45;&gt;Node20 -->
<g id="edge23" class="edge">
<title>Node23&#45;&gt;Node20</title>
<path fill="none" stroke="#9a32cd" stroke-dasharray="5,2" d="M819.29,-187.53C865.39,-186.32 919.84,-184.9 961.92,-183.8"/>
<polygon fill="#9a32cd" stroke="#9a32cd" points="819.19,-184.03 809.29,-187.79 819.38,-191.03 819.19,-184.03"/>
<text text-anchor="middle" x="885.5" y="-191" font-family="Helvetica,sans-Serif" font-size="10.00"> m_Helper</text>
</g>
<!-- Node24 -->
<g id="node24" class="node">
<title>Node24</title>
<g id="a_node24"><a xlink:href="classitk_1_1OptimizerParametersHelper.html" target="_top" xlink:title="Basic helper class to manage parameter data as an Array type, the default type.">
<polygon fill="white" stroke="black" points="362,-176 362,-206 501,-206 501,-176 362,-176"/>
<text text-anchor="start" x="370" y="-194" font-family="Helvetica,sans-Serif" font-size="10.00">itk::OptimizerParameters</text>
<text text-anchor="middle" x="431.5" y="-183" font-family="Helvetica,sans-Serif" font-size="10.00">Helper&lt; TValue &gt;</text>
</a>
</g>
</g>
<!-- Node24&#45;&gt;Node23 -->
<g id="edge24" class="edge">
<title>Node24&#45;&gt;Node23</title>
<path fill="none" stroke="#9a32cd" stroke-dasharray="5,2" d="M511.45,-190.73C550.91,-190.59 598.68,-190.43 638.84,-190.29"/>
<polygon fill="#9a32cd" stroke="#9a32cd" points="511.33,-187.23 501.34,-190.76 511.36,-194.23 511.33,-187.23"/>
<text text-anchor="middle" x="572.5" y="-193" font-family="Helvetica,sans-Serif" font-size="10.00"> ptr</text>
</g>
<!-- Node25&#45;&gt;Node4 -->
<g id="edge26" class="edge">
<title>Node25&#45;&gt;Node4</title>
<path fill="none" stroke="#9a32cd" stroke-dasharray="5,2" d="M1465.24,-81C1529.06,-81 1606.92,-81 1668.68,-81"/>
<polygon fill="#9a32cd" stroke="#9a32cd" points="1465.12,-77.5 1455.12,-81 1465.12,-84.5 1465.12,-77.5"/>
<text text-anchor="start" x="1473" y="-106" font-family="Helvetica,sans-Serif" font-size="10.00"> m_ModifyGradientByLearning</text>
<text text-anchor="middle" x="1562" y="-95" font-family="Helvetica,sans-Serif" font-size="10.00">RateThreader</text>
<text text-anchor="middle" x="1562" y="-84" font-family="Helvetica,sans-Serif" font-size="10.00">m_ModifyGradientByScalesThreader</text>
</g>
</g>
</svg>
