<?xml version="1.0" encoding="UTF-8" standalone="no"?>
<!DOCTYPE svg PUBLIC "-//W3C//DTD SVG 1.1//EN"
 "http://www.w3.org/Graphics/SVG/1.1/DTD/svg11.dtd">
<!-- Generated by graphviz version 2.43.0 (0)
 -->
<!-- Title: itk::BinaryThresholdSpatialFunction&lt; TFunction &gt; Pages: 1 -->
<svg width="202pt" height="307pt"
 viewBox="0.00 0.00 202.00 307.00" xmlns="http://www.w3.org/2000/svg" xmlns:xlink="http://www.w3.org/1999/xlink">
<g id="graph0" class="graph" transform="scale(1 1) rotate(0) translate(4 303)">
<title>itk::BinaryThresholdSpatialFunction&lt; TFunction &gt;</title>
<polygon fill="white" stroke="transparent" points="-4,4 -4,-303 198,-303 198,4 -4,4"/>
<!-- Node1 -->
<g id="node1" class="node">
<title>Node1</title>
<g id="a_node1"><a xlink:title="A spatial functions that returns if the internal spatial function is within user specified thresholds...">
<polygon fill="#bfbfbf" stroke="black" points="22.5,-0.5 22.5,-30.5 171.5,-30.5 171.5,-0.5 22.5,-0.5"/>
<text text-anchor="start" x="30.5" y="-18.5" font-family="Helvetica,sans-Serif" font-size="10.00">itk::BinaryThresholdSpatial</text>
<text text-anchor="middle" x="97" y="-7.5" font-family="Helvetica,sans-Serif" font-size="10.00">Function&lt; TFunction &gt;</text>
</a>
</g>
</g>
<!-- Node2 -->
<g id="node2" class="node">
<title>Node2</title>
<g id="a_node2"><a xlink:href="classitk_1_1SpatialFunction.html" target="_top" xlink:title=" ">
<polygon fill="white" stroke="black" points="0,-67.5 0,-108.5 194,-108.5 194,-67.5 0,-67.5"/>
<text text-anchor="start" x="8" y="-96.5" font-family="Helvetica,sans-Serif" font-size="10.00">itk::SpatialFunction</text>
<text text-anchor="start" x="8" y="-85.5" font-family="Helvetica,sans-Serif" font-size="10.00">&lt; bool, TFunction::ImageDimension,</text>
<text text-anchor="middle" x="97" y="-74.5" font-family="Helvetica,sans-Serif" font-size="10.00"> TFunction::InputType &gt;</text>
</a>
</g>
</g>
<!-- Node2&#45;&gt;Node1 -->
<g id="edge1" class="edge">
<title>Node2&#45;&gt;Node1</title>
<path fill="none" stroke="midnightblue" d="M97,-57.08C97,-48.01 97,-38.45 97,-30.89"/>
<polygon fill="midnightblue" stroke="midnightblue" points="93.5,-57.36 97,-67.36 100.5,-57.36 93.5,-57.36"/>
</g>
<!-- Node3 -->
<g id="node3" class="node">
<title>Node3</title>
<g id="a_node3"><a xlink:href="classitk_1_1FunctionBase.html" target="_top" xlink:title=" ">
<polygon fill="white" stroke="black" points="35.5,-145.5 35.5,-186.5 158.5,-186.5 158.5,-145.5 35.5,-145.5"/>
<text text-anchor="start" x="43.5" y="-174.5" font-family="Helvetica,sans-Serif" font-size="10.00">itk::FunctionBase&lt;</text>
<text text-anchor="start" x="43.5" y="-163.5" font-family="Helvetica,sans-Serif" font-size="10.00"> TFunction::InputType,</text>
<text text-anchor="middle" x="97" y="-152.5" font-family="Helvetica,sans-Serif" font-size="10.00"> bool &gt;</text>
</a>
</g>
</g>
<!-- Node3&#45;&gt;Node2 -->
<g id="edge2" class="edge">
<title>Node3&#45;&gt;Node2</title>
<path fill="none" stroke="midnightblue" d="M97,-135.3C97,-126.3 97,-116.65 97,-108.51"/>
<polygon fill="midnightblue" stroke="midnightblue" points="93.5,-135.43 97,-145.43 100.5,-135.43 93.5,-135.43"/>
</g>
<!-- Node4 -->
<g id="node4" class="node">
<title>Node4</title>
<g id="a_node4"><a xlink:href="classitk_1_1Object.html" target="_top" xlink:title="Base class for most ITK classes.">
<polygon fill="white" stroke="black" points="63.5,-223.5 63.5,-242.5 130.5,-242.5 130.5,-223.5 63.5,-223.5"/>
<text text-anchor="middle" x="97" y="-230.5" font-family="Helvetica,sans-Serif" font-size="10.00">itk::Object</text>
</a>
</g>
</g>
<!-- Node4&#45;&gt;Node3 -->
<g id="edge3" class="edge">
<title>Node4&#45;&gt;Node3</title>
<path fill="none" stroke="midnightblue" d="M97,-213.04C97,-204.71 97,-194.94 97,-186.54"/>
<polygon fill="midnightblue" stroke="midnightblue" points="93.5,-213.23 97,-223.23 100.5,-213.23 93.5,-213.23"/>
</g>
<!-- Node5 -->
<g id="node5" class="node">
<title>Node5</title>
<g id="a_node5"><a xlink:href="classitk_1_1LightObject.html" target="_top" xlink:title="Light weight base class for most itk classes.">
<polygon fill="white" stroke="black" points="51.5,-279.5 51.5,-298.5 142.5,-298.5 142.5,-279.5 51.5,-279.5"/>
<text text-anchor="middle" x="97" y="-286.5" font-family="Helvetica,sans-Serif" font-size="10.00">itk::LightObject</text>
</a>
</g>
</g>
<!-- Node5&#45;&gt;Node4 -->
<g id="edge4" class="edge">
<title>Node5&#45;&gt;Node4</title>
<path fill="none" stroke="midnightblue" d="M97,-268.8C97,-259.91 97,-249.78 97,-242.75"/>
<polygon fill="midnightblue" stroke="midnightblue" points="93.5,-269.08 97,-279.08 100.5,-269.08 93.5,-269.08"/>
</g>
</g>
</svg>
