<?xml version="1.0" encoding="UTF-8" standalone="no"?>
<!DOCTYPE svg PUBLIC "-//W3C//DTD SVG 1.1//EN"
 "http://www.w3.org/Graphics/SVG/1.1/DTD/svg11.dtd">
<!-- Generated by graphviz version 2.43.0 (0)
 -->
<!-- Title: itk::ShotNoiseImageFilter&lt; TInputImage, TOutputImage &gt; Pages: 1 -->
<svg width="396pt" height="475pt"
 viewBox="0.00 0.00 396.00 475.00" xmlns="http://www.w3.org/2000/svg" xmlns:xlink="http://www.w3.org/1999/xlink">
<g id="graph0" class="graph" transform="scale(1 1) rotate(0) translate(4 471)">
<title>itk::ShotNoiseImageFilter&lt; TInputImage, TOutputImage &gt;</title>
<polygon fill="white" stroke="transparent" points="-4,4 -4,-471 392,-471 392,4 -4,4"/>
<!-- Node1 -->
<g id="node1" class="node">
<title>Node1</title>
<g id="a_node1"><a xlink:title="Alter an image with shot noise.">
<polygon fill="#bfbfbf" stroke="black" points="123,-0.5 123,-30.5 299,-30.5 299,-0.5 123,-0.5"/>
<text text-anchor="start" x="131" y="-18.5" font-family="Helvetica,sans-Serif" font-size="10.00">itk::ShotNoiseImageFilter</text>
<text text-anchor="middle" x="211" y="-7.5" font-family="Helvetica,sans-Serif" font-size="10.00">&lt; TInputImage, TOutputImage &gt;</text>
</a>
</g>
</g>
<!-- Node2 -->
<g id="node2" class="node">
<title>Node2</title>
<g id="a_node2"><a xlink:href="classitk_1_1NoiseBaseImageFilter.html" target="_top" xlink:title=" ">
<polygon fill="white" stroke="black" points="127,-67.5 127,-97.5 295,-97.5 295,-67.5 127,-67.5"/>
<text text-anchor="start" x="135" y="-85.5" font-family="Helvetica,sans-Serif" font-size="10.00">itk::NoiseBaseImageFilter</text>
<text text-anchor="middle" x="211" y="-74.5" font-family="Helvetica,sans-Serif" font-size="10.00">&lt; TInputImage, TInputImage &gt;</text>
</a>
</g>
</g>
<!-- Node2&#45;&gt;Node1 -->
<g id="edge1" class="edge">
<title>Node2&#45;&gt;Node1</title>
<path fill="none" stroke="midnightblue" d="M211,-57.11C211,-48.15 211,-38.32 211,-30.58"/>
<polygon fill="midnightblue" stroke="midnightblue" points="207.5,-57.4 211,-67.4 214.5,-57.4 207.5,-57.4"/>
</g>
<!-- Node3 -->
<g id="node3" class="node">
<title>Node3</title>
<g id="a_node3"><a xlink:href="classitk_1_1InPlaceImageFilter.html" target="_top" xlink:title=" ">
<polygon fill="white" stroke="black" points="127,-134.5 127,-164.5 295,-164.5 295,-134.5 127,-134.5"/>
<text text-anchor="start" x="135" y="-152.5" font-family="Helvetica,sans-Serif" font-size="10.00">itk::InPlaceImageFilter</text>
<text text-anchor="middle" x="211" y="-141.5" font-family="Helvetica,sans-Serif" font-size="10.00">&lt; TInputImage, TInputImage &gt;</text>
</a>
</g>
</g>
<!-- Node3&#45;&gt;Node2 -->
<g id="edge2" class="edge">
<title>Node3&#45;&gt;Node2</title>
<path fill="none" stroke="midnightblue" d="M211,-124.11C211,-115.15 211,-105.32 211,-97.58"/>
<polygon fill="midnightblue" stroke="midnightblue" points="207.5,-124.4 211,-134.4 214.5,-124.4 207.5,-124.4"/>
</g>
<!-- Node4 -->
<g id="node4" class="node">
<title>Node4</title>
<g id="a_node4"><a xlink:href="classitk_1_1ImageToImageFilter.html" target="_top" xlink:title=" ">
<polygon fill="white" stroke="black" points="127,-201.5 127,-231.5 295,-231.5 295,-201.5 127,-201.5"/>
<text text-anchor="start" x="135" y="-219.5" font-family="Helvetica,sans-Serif" font-size="10.00">itk::ImageToImageFilter</text>
<text text-anchor="middle" x="211" y="-208.5" font-family="Helvetica,sans-Serif" font-size="10.00">&lt; TInputImage, TInputImage &gt;</text>
</a>
</g>
</g>
<!-- Node4&#45;&gt;Node3 -->
<g id="edge3" class="edge">
<title>Node4&#45;&gt;Node3</title>
<path fill="none" stroke="midnightblue" d="M211,-191.11C211,-182.15 211,-172.32 211,-164.58"/>
<polygon fill="midnightblue" stroke="midnightblue" points="207.5,-191.4 211,-201.4 214.5,-191.4 207.5,-191.4"/>
</g>
<!-- Node5 -->
<g id="node5" class="node">
<title>Node5</title>
<g id="a_node5"><a xlink:href="classitk_1_1ImageSource.html" target="_top" xlink:title=" ">
<polygon fill="white" stroke="black" points="52.5,-268.5 52.5,-298.5 193.5,-298.5 193.5,-268.5 52.5,-268.5"/>
<text text-anchor="start" x="60.5" y="-286.5" font-family="Helvetica,sans-Serif" font-size="10.00">itk::ImageSource&lt; TInput</text>
<text text-anchor="middle" x="123" y="-275.5" font-family="Helvetica,sans-Serif" font-size="10.00">Image &gt;</text>
</a>
</g>
</g>
<!-- Node5&#45;&gt;Node4 -->
<g id="edge4" class="edge">
<title>Node5&#45;&gt;Node4</title>
<path fill="none" stroke="midnightblue" d="M150.14,-262.45C163.68,-252.45 179.73,-240.6 191.94,-231.58"/>
<polygon fill="midnightblue" stroke="midnightblue" points="148.06,-259.64 142.09,-268.4 152.22,-265.27 148.06,-259.64"/>
</g>
<!-- Node6 -->
<g id="node6" class="node">
<title>Node6</title>
<g id="a_node6"><a xlink:href="classitk_1_1ProcessObject.html" target="_top" xlink:title="The base class for all process objects (source, filters, mappers) in the Insight data processing pipe...">
<polygon fill="white" stroke="black" points="0,-335.5 0,-354.5 104,-354.5 104,-335.5 0,-335.5"/>
<text text-anchor="middle" x="52" y="-342.5" font-family="Helvetica,sans-Serif" font-size="10.00">itk::ProcessObject</text>
</a>
</g>
</g>
<!-- Node6&#45;&gt;Node5 -->
<g id="edge5" class="edge">
<title>Node6&#45;&gt;Node5</title>
<path fill="none" stroke="midnightblue" d="M69.99,-328.92C81.14,-319.58 95.36,-307.66 106.27,-298.52"/>
<polygon fill="midnightblue" stroke="midnightblue" points="67.59,-326.37 62.17,-335.48 72.09,-331.73 67.59,-326.37"/>
</g>
<!-- Node7 -->
<g id="node7" class="node">
<title>Node7</title>
<g id="a_node7"><a xlink:href="classitk_1_1Object.html" target="_top" xlink:title="Base class for most ITK classes.">
<polygon fill="white" stroke="black" points="18.5,-391.5 18.5,-410.5 85.5,-410.5 85.5,-391.5 18.5,-391.5"/>
<text text-anchor="middle" x="52" y="-398.5" font-family="Helvetica,sans-Serif" font-size="10.00">itk::Object</text>
</a>
</g>
</g>
<!-- Node7&#45;&gt;Node6 -->
<g id="edge6" class="edge">
<title>Node7&#45;&gt;Node6</title>
<path fill="none" stroke="midnightblue" d="M52,-380.8C52,-371.91 52,-361.78 52,-354.75"/>
<polygon fill="midnightblue" stroke="midnightblue" points="48.5,-381.08 52,-391.08 55.5,-381.08 48.5,-381.08"/>
</g>
<!-- Node8 -->
<g id="node8" class="node">
<title>Node8</title>
<g id="a_node8"><a xlink:href="classitk_1_1LightObject.html" target="_top" xlink:title="Light weight base class for most itk classes.">
<polygon fill="white" stroke="black" points="6.5,-447.5 6.5,-466.5 97.5,-466.5 97.5,-447.5 6.5,-447.5"/>
<text text-anchor="middle" x="52" y="-454.5" font-family="Helvetica,sans-Serif" font-size="10.00">itk::LightObject</text>
</a>
</g>
</g>
<!-- Node8&#45;&gt;Node7 -->
<g id="edge7" class="edge">
<title>Node8&#45;&gt;Node7</title>
<path fill="none" stroke="midnightblue" d="M52,-436.8C52,-427.91 52,-417.78 52,-410.75"/>
<polygon fill="midnightblue" stroke="midnightblue" points="48.5,-437.08 52,-447.08 55.5,-437.08 48.5,-437.08"/>
</g>
<!-- Node9 -->
<g id="node9" class="node">
<title>Node9</title>
<g id="a_node9"><a xlink:href="structitk_1_1ImageSourceCommon.html" target="_top" xlink:title="Secondary base class of ImageSource common between templates.">
<polygon fill="white" stroke="black" points="122.5,-335.5 122.5,-354.5 265.5,-354.5 265.5,-335.5 122.5,-335.5"/>
<text text-anchor="middle" x="194" y="-342.5" font-family="Helvetica,sans-Serif" font-size="10.00">itk::ImageSourceCommon</text>
</a>
</g>
</g>
<!-- Node9&#45;&gt;Node5 -->
<g id="edge8" class="edge">
<title>Node9&#45;&gt;Node5</title>
<path fill="none" stroke="#8b1a1a" d="M176.01,-328.92C164.86,-319.58 150.64,-307.66 139.73,-298.52"/>
<polygon fill="#8b1a1a" stroke="#8b1a1a" points="173.91,-331.73 183.83,-335.48 178.41,-326.37 173.91,-331.73"/>
</g>
<!-- Node10 -->
<g id="node10" class="node">
<title>Node10</title>
<g id="a_node10"><a xlink:href="classitk_1_1ImageToImageFilterCommon.html" target="_top" xlink:title="Secondary base class of ImageToImageFilter common between templates.">
<polygon fill="white" stroke="black" points="212,-274 212,-293 388,-293 388,-274 212,-274"/>
<text text-anchor="middle" x="300" y="-281" font-family="Helvetica,sans-Serif" font-size="10.00">itk::ImageToImageFilterCommon</text>
</a>
</g>
</g>
<!-- Node10&#45;&gt;Node4 -->
<g id="edge9" class="edge">
<title>Node10&#45;&gt;Node4</title>
<path fill="none" stroke="#8b1a1a" d="M279.52,-267.54C264.71,-256.73 244.82,-242.2 230.29,-231.59"/>
<polygon fill="#8b1a1a" stroke="#8b1a1a" points="277.86,-270.66 288,-273.73 281.99,-265.01 277.86,-270.66"/>
</g>
</g>
</svg>
