<?xml version="1.0" encoding="UTF-8" standalone="no"?>
<!DOCTYPE svg PUBLIC "-//W3C//DTD SVG 1.1//EN"
 "http://www.w3.org/Graphics/SVG/1.1/DTD/svg11.dtd">
<!-- Generated by graphviz version 2.43.0 (0)
 -->
<!-- Title: itk::RegularStepGradientDescentOptimizerv4&lt; TInternalComputationValueType &gt; Pages: 1 -->
<svg width="185pt" height="363pt"
 viewBox="0.00 0.00 185.00 363.00" xmlns="http://www.w3.org/2000/svg" xmlns:xlink="http://www.w3.org/1999/xlink">
<g id="graph0" class="graph" transform="scale(1 1) rotate(0) translate(4 359)">
<title>itk::RegularStepGradientDescentOptimizerv4&lt; TInternalComputationValueType &gt;</title>
<polygon fill="white" stroke="transparent" points="-4,4 -4,-359 181,-359 181,4 -4,4"/>
<!-- Node1 -->
<g id="node1" class="node">
<title>Node1</title>
<g id="a_node1"><a xlink:title="Regular Step Gradient descent optimizer.">
<polygon fill="#bfbfbf" stroke="black" points="3,-0.5 3,-41.5 174,-41.5 174,-0.5 3,-0.5"/>
<text text-anchor="start" x="11" y="-29.5" font-family="Helvetica,sans-Serif" font-size="10.00">itk::RegularStepGradient</text>
<text text-anchor="start" x="11" y="-18.5" font-family="Helvetica,sans-Serif" font-size="10.00">DescentOptimizerv4&lt; TInternal</text>
<text text-anchor="middle" x="88.5" y="-7.5" font-family="Helvetica,sans-Serif" font-size="10.00">ComputationValueType &gt;</text>
</a>
</g>
</g>
<!-- Node2 -->
<g id="node2" class="node">
<title>Node2</title>
<g id="a_node2"><a xlink:href="classitk_1_1GradientDescentOptimizerv4Template.html" target="_top" xlink:title=" ">
<polygon fill="white" stroke="black" points="0,-78.5 0,-108.5 177,-108.5 177,-78.5 0,-78.5"/>
<text text-anchor="start" x="8" y="-96.5" font-family="Helvetica,sans-Serif" font-size="10.00">itk::GradientDescentOptimizerv4</text>
<text text-anchor="middle" x="88.5" y="-85.5" font-family="Helvetica,sans-Serif" font-size="10.00">Template&lt; double &gt;</text>
</a>
</g>
</g>
<!-- Node2&#45;&gt;Node1 -->
<g id="edge1" class="edge">
<title>Node2&#45;&gt;Node1</title>
<path fill="none" stroke="midnightblue" d="M88.5,-67.98C88.5,-59.35 88.5,-49.76 88.5,-41.59"/>
<polygon fill="midnightblue" stroke="midnightblue" points="85,-68.23 88.5,-78.23 92,-68.23 85,-68.23"/>
</g>
<!-- Node3 -->
<g id="node3" class="node">
<title>Node3</title>
<g id="a_node3"><a xlink:href="classitk_1_1GradientDescentOptimizerBasev4Template.html" target="_top" xlink:title=" ">
<polygon fill="white" stroke="black" points="6,-145.5 6,-175.5 171,-175.5 171,-145.5 6,-145.5"/>
<text text-anchor="start" x="14" y="-163.5" font-family="Helvetica,sans-Serif" font-size="10.00">itk::GradientDescentOptimizer</text>
<text text-anchor="middle" x="88.5" y="-152.5" font-family="Helvetica,sans-Serif" font-size="10.00">Basev4Template&lt; double &gt;</text>
</a>
</g>
</g>
<!-- Node3&#45;&gt;Node2 -->
<g id="edge2" class="edge">
<title>Node3&#45;&gt;Node2</title>
<path fill="none" stroke="midnightblue" d="M88.5,-135.11C88.5,-126.15 88.5,-116.32 88.5,-108.58"/>
<polygon fill="midnightblue" stroke="midnightblue" points="85,-135.4 88.5,-145.4 92,-135.4 85,-135.4"/>
</g>
<!-- Node4 -->
<g id="node4" class="node">
<title>Node4</title>
<g id="a_node4"><a xlink:href="classitk_1_1ObjectToObjectOptimizerBaseTemplate.html" target="_top" xlink:title=" ">
<polygon fill="white" stroke="black" points="10,-212.5 10,-242.5 167,-242.5 167,-212.5 10,-212.5"/>
<text text-anchor="start" x="18" y="-230.5" font-family="Helvetica,sans-Serif" font-size="10.00">itk::ObjectToObjectOptimizer</text>
<text text-anchor="middle" x="88.5" y="-219.5" font-family="Helvetica,sans-Serif" font-size="10.00">BaseTemplate&lt; double &gt;</text>
</a>
</g>
</g>
<!-- Node4&#45;&gt;Node3 -->
<g id="edge3" class="edge">
<title>Node4&#45;&gt;Node3</title>
<path fill="none" stroke="midnightblue" d="M88.5,-202.11C88.5,-193.15 88.5,-183.32 88.5,-175.58"/>
<polygon fill="midnightblue" stroke="midnightblue" points="85,-202.4 88.5,-212.4 92,-202.4 85,-202.4"/>
</g>
<!-- Node5 -->
<g id="node5" class="node">
<title>Node5</title>
<g id="a_node5"><a xlink:href="classitk_1_1Object.html" target="_top" xlink:title="Base class for most ITK classes.">
<polygon fill="white" stroke="black" points="55,-279.5 55,-298.5 122,-298.5 122,-279.5 55,-279.5"/>
<text text-anchor="middle" x="88.5" y="-286.5" font-family="Helvetica,sans-Serif" font-size="10.00">itk::Object</text>
</a>
</g>
</g>
<!-- Node5&#45;&gt;Node4 -->
<g id="edge4" class="edge">
<title>Node5&#45;&gt;Node4</title>
<path fill="none" stroke="midnightblue" d="M88.5,-269.23C88.5,-260.59 88.5,-250.5 88.5,-242.52"/>
<polygon fill="midnightblue" stroke="midnightblue" points="85,-269.48 88.5,-279.48 92,-269.48 85,-269.48"/>
</g>
<!-- Node6 -->
<g id="node6" class="node">
<title>Node6</title>
<g id="a_node6"><a xlink:href="classitk_1_1LightObject.html" target="_top" xlink:title="Light weight base class for most itk classes.">
<polygon fill="white" stroke="black" points="43,-335.5 43,-354.5 134,-354.5 134,-335.5 43,-335.5"/>
<text text-anchor="middle" x="88.5" y="-342.5" font-family="Helvetica,sans-Serif" font-size="10.00">itk::LightObject</text>
</a>
</g>
</g>
<!-- Node6&#45;&gt;Node5 -->
<g id="edge5" class="edge">
<title>Node6&#45;&gt;Node5</title>
<path fill="none" stroke="midnightblue" d="M88.5,-324.8C88.5,-315.91 88.5,-305.78 88.5,-298.75"/>
<polygon fill="midnightblue" stroke="midnightblue" points="85,-325.08 88.5,-335.08 92,-325.08 85,-325.08"/>
</g>
</g>
</svg>
