<?xml version="1.0" encoding="UTF-8" standalone="no"?>
<!DOCTYPE svg PUBLIC "-//W3C//DTD SVG 1.1//EN"
 "http://www.w3.org/Graphics/SVG/1.1/DTD/svg11.dtd">
<!-- Generated by graphviz version 2.43.0 (0)
 -->
<!-- Title: itk::ANTSNeighborhoodCorrelationImageToImageMetricv4GetValueAndDerivativeThreader&lt; TDomainPartitioner, TImageToImageMetric, TNeighborhoodCorrelationMetric &gt; Pages: 1 -->
<svg width="625pt" height="115pt"
 viewBox="0.00 0.00 625.00 114.50" xmlns="http://www.w3.org/2000/svg" xmlns:xlink="http://www.w3.org/1999/xlink">
<g id="graph0" class="graph" transform="scale(1 1) rotate(0) translate(4 110.5)">
<title>itk::ANTSNeighborhoodCorrelationImageToImageMetricv4GetValueAndDerivativeThreader&lt; TDomainPartitioner, TImageToImageMetric, TNeighborhoodCorrelationMetric &gt;</title>
<polygon fill="white" stroke="transparent" points="-4,4 -4,-110.5 621,-110.5 621,4 -4,4"/>
<!-- Node1 -->
<g id="node1" class="node">
<title>Node1</title>
<g id="a_node1"><a xlink:title="Threading implementation for ANTS CC metric ANTSNeighborhoodCorrelationImageToImageMetricv4 ....">
<polygon fill="#bfbfbf" stroke="black" points="333,-19 333,-71 617,-71 617,-19 333,-19"/>
<text text-anchor="start" x="341" y="-59" font-family="Helvetica,sans-Serif" font-size="10.00">itk::ANTSNeighborhoodCorrelation</text>
<text text-anchor="start" x="341" y="-48" font-family="Helvetica,sans-Serif" font-size="10.00">ImageToImageMetricv4GetValueAndDerivative</text>
<text text-anchor="start" x="341" y="-37" font-family="Helvetica,sans-Serif" font-size="10.00">Threader&lt; TDomainPartitioner, TImageToImageMetric,</text>
<text text-anchor="middle" x="475" y="-26" font-family="Helvetica,sans-Serif" font-size="10.00"> TNeighborhoodCorrelationMetric &gt;</text>
</a>
</g>
</g>
<!-- Node2 -->
<g id="node2" class="node">
<title>Node2</title>
<g id="a_node2"><a xlink:href="classitk_1_1ImageToImageMetricv4GetValueAndDerivativeThreader.html" target="_top" xlink:title=" ">
<polygon fill="white" stroke="black" points="0,-54 0,-106 206,-106 206,-54 0,-54"/>
<text text-anchor="start" x="8" y="-94" font-family="Helvetica,sans-Serif" font-size="10.00">itk::ImageToImageMetricv4</text>
<text text-anchor="start" x="8" y="-83" font-family="Helvetica,sans-Serif" font-size="10.00">GetValueAndDerivativeThreader</text>
<text text-anchor="start" x="8" y="-72" font-family="Helvetica,sans-Serif" font-size="10.00">&lt; TDomainPartitioner, TImageToImage</text>
<text text-anchor="middle" x="103" y="-61" font-family="Helvetica,sans-Serif" font-size="10.00">Metric &gt;</text>
</a>
</g>
</g>
<!-- Node2&#45;&gt;Node1 -->
<g id="edge1" class="edge">
<title>Node2&#45;&gt;Node1</title>
<path fill="none" stroke="midnightblue" d="M216.32,-73.91C248.25,-71.81 283.02,-69.17 315,-66 320.82,-65.42 326.75,-64.8 332.74,-64.14"/>
<polygon fill="midnightblue" stroke="midnightblue" points="215.82,-70.43 206.07,-74.57 216.27,-77.42 215.82,-70.43"/>
</g>
<!-- Node3 -->
<g id="node3" class="node">
<title>Node3</title>
<g id="a_node3"><a xlink:title=" ">
<polygon fill="white" stroke="#bfbfbf" points="20,-0.5 20,-19.5 186,-19.5 186,-0.5 20,-0.5"/>
<text text-anchor="middle" x="103" y="-7.5" font-family="Helvetica,sans-Serif" font-size="10.00">std::deque&lt; QueueRealType &gt;</text>
</a>
</g>
</g>
<!-- Node3&#45;&gt;Node1 -->
<g id="edge2" class="edge">
<title>Node3&#45;&gt;Node1</title>
<path fill="none" stroke="#9a32cd" stroke-dasharray="5,2" d="M196.4,-7.46C205.72,-7.27 215.05,-7.11 224,-7 264.44,-6.49 274.83,-2.27 315,-7 336.7,-9.56 359.74,-14.01 381.33,-19"/>
<polygon fill="#9a32cd" stroke="#9a32cd" points="196.22,-3.96 186.3,-7.67 196.37,-10.96 196.22,-3.96"/>
<text text-anchor="middle" x="269.5" y="-54" font-family="Helvetica,sans-Serif" font-size="10.00"> QsumMoving2</text>
<text text-anchor="middle" x="269.5" y="-43" font-family="Helvetica,sans-Serif" font-size="10.00">QsumMoving</text>
<text text-anchor="middle" x="269.5" y="-32" font-family="Helvetica,sans-Serif" font-size="10.00">QsumFixed</text>
<text text-anchor="middle" x="269.5" y="-21" font-family="Helvetica,sans-Serif" font-size="10.00">Qcount</text>
<text text-anchor="middle" x="269.5" y="-10" font-family="Helvetica,sans-Serif" font-size="10.00">QsumFixedMoving</text>
</g>
</g>
</svg>
