<?xml version="1.0" encoding="UTF-8" standalone="no"?>
<!DOCTYPE svg PUBLIC "-//W3C//DTD SVG 1.1//EN"
 "http://www.w3.org/Graphics/SVG/1.1/DTD/svg11.dtd">
<!-- Generated by graphviz version 2.43.0 (0)
 -->
<!-- Title: itk::GradientDescentOptimizerBasev4ModifyGradientByScalesThreaderTemplate&lt; TInternalComputationValueType &gt; Pages: 1 -->
<svg width="1683pt" height="165pt"
 viewBox="0.00 0.00 1683.00 165.00" xmlns="http://www.w3.org/2000/svg" xmlns:xlink="http://www.w3.org/1999/xlink">
<g id="graph0" class="graph" transform="scale(1 1) rotate(0) translate(4 161)">
<title>itk::GradientDescentOptimizerBasev4ModifyGradientByScalesThreaderTemplate&lt; TInternalComputationValueType &gt;</title>
<polygon fill="white" stroke="transparent" points="-4,4 -4,-161 1679,-161 1679,4 -4,4"/>
<!-- Node1 -->
<g id="node1" class="node">
<title>Node1</title>
<g id="a_node1"><a xlink:title="Modify the gradient by the parameter scales for GradientDescentOptimizerBasev4.">
<polygon fill="#bfbfbf" stroke="black" points="1435,-26.5 1435,-67.5 1675,-67.5 1675,-26.5 1435,-26.5"/>
<text text-anchor="start" x="1443" y="-55.5" font-family="Helvetica,sans-Serif" font-size="10.00">itk::GradientDescentOptimizer</text>
<text text-anchor="start" x="1443" y="-44.5" font-family="Helvetica,sans-Serif" font-size="10.00">Basev4ModifyGradientByScalesThreader</text>
<text text-anchor="middle" x="1555" y="-33.5" font-family="Helvetica,sans-Serif" font-size="10.00">Template&lt; TInternalComputationValueType &gt;</text>
</a>
</g>
</g>
<!-- Node2 -->
<g id="node2" class="node">
<title>Node2</title>
<g id="a_node2"><a xlink:href="classitk_1_1DomainThreader.html" target="_top" xlink:title=" ">
<polygon fill="white" stroke="black" points="1156,-15.5 1156,-78.5 1398,-78.5 1398,-15.5 1156,-15.5"/>
<text text-anchor="start" x="1164" y="-66.5" font-family="Helvetica,sans-Serif" font-size="10.00">itk::DomainThreader</text>
<text text-anchor="start" x="1164" y="-55.5" font-family="Helvetica,sans-Serif" font-size="10.00">&lt; ThreadedIndexedContainer</text>
<text text-anchor="start" x="1164" y="-44.5" font-family="Helvetica,sans-Serif" font-size="10.00">Partitioner, GradientDescentOptimizer</text>
<text text-anchor="start" x="1164" y="-33.5" font-family="Helvetica,sans-Serif" font-size="10.00">Basev4Template&lt; TInternalComputationValue</text>
<text text-anchor="middle" x="1277" y="-22.5" font-family="Helvetica,sans-Serif" font-size="10.00">Type &gt; &gt;</text>
</a>
</g>
</g>
<!-- Node2&#45;&gt;Node1 -->
<g id="edge1" class="edge">
<title>Node2&#45;&gt;Node1</title>
<path fill="none" stroke="midnightblue" d="M1408.46,-47C1417.18,-47 1425.94,-47 1434.6,-47"/>
<polygon fill="midnightblue" stroke="midnightblue" points="1408.25,-43.5 1398.25,-47 1408.25,-50.5 1408.25,-43.5"/>
</g>
<!-- Node3 -->
<g id="node3" class="node">
<title>Node3</title>
<g id="a_node3"><a xlink:href="classitk_1_1Object.html" target="_top" xlink:title="Base class for most ITK classes.">
<polygon fill="white" stroke="black" points="946,-68.5 946,-87.5 1013,-87.5 1013,-68.5 946,-68.5"/>
<text text-anchor="middle" x="979.5" y="-75.5" font-family="Helvetica,sans-Serif" font-size="10.00">itk::Object</text>
</a>
</g>
</g>
<!-- Node3&#45;&gt;Node2 -->
<g id="edge2" class="edge">
<title>Node3&#45;&gt;Node2</title>
<path fill="none" stroke="midnightblue" d="M1023.51,-73.49C1058.27,-69.84 1108.95,-64.53 1155.8,-59.61"/>
<polygon fill="midnightblue" stroke="midnightblue" points="1022.83,-70.04 1013.25,-74.56 1023.56,-77 1022.83,-70.04"/>
</g>
<!-- Node4 -->
<g id="node4" class="node">
<title>Node4</title>
<g id="a_node4"><a xlink:href="classitk_1_1LightObject.html" target="_top" xlink:title="Light weight base class for most itk classes.">
<polygon fill="white" stroke="black" points="660.5,-132.5 660.5,-151.5 751.5,-151.5 751.5,-132.5 660.5,-132.5"/>
<text text-anchor="middle" x="706" y="-139.5" font-family="Helvetica,sans-Serif" font-size="10.00">itk::LightObject</text>
</a>
</g>
</g>
<!-- Node4&#45;&gt;Node3 -->
<g id="edge3" class="edge">
<title>Node4&#45;&gt;Node3</title>
<path fill="none" stroke="midnightblue" d="M761.91,-135.2C802.7,-129.42 859.44,-119.84 908,-106 925.1,-101.13 943.77,-93.61 957.6,-87.59"/>
<polygon fill="midnightblue" stroke="midnightblue" points="761.32,-131.75 751.89,-136.59 762.28,-138.68 761.32,-131.75"/>
</g>
<!-- Node5 -->
<g id="node5" class="node">
<title>Node5</title>
<g id="a_node5"><a xlink:title=" ">
<polygon fill="white" stroke="#bfbfbf" points="378,-137.5 378,-156.5 485,-156.5 485,-137.5 378,-137.5"/>
<text text-anchor="middle" x="431.5" y="-144.5" font-family="Helvetica,sans-Serif" font-size="10.00">std::atomic&lt; int &gt;</text>
</a>
</g>
</g>
<!-- Node5&#45;&gt;Node4 -->
<g id="edge4" class="edge">
<title>Node5&#45;&gt;Node4</title>
<path fill="none" stroke="#9a32cd" stroke-dasharray="5,2" d="M495.18,-145.85C545.64,-144.92 615.33,-143.65 660.29,-142.82"/>
<polygon fill="#9a32cd" stroke="#9a32cd" points="494.97,-142.35 485.04,-146.04 495.1,-149.35 494.97,-142.35"/>
<text text-anchor="middle" x="572.5" y="-148" font-family="Helvetica,sans-Serif" font-size="10.00"> m_ReferenceCount</text>
</g>
<!-- Node6 -->
<g id="node6" class="node">
<title>Node6</title>
<g id="a_node6"><a xlink:title="STL class.">
<polygon fill="white" stroke="#bfbfbf" points="673.5,-88.5 673.5,-107.5 738.5,-107.5 738.5,-88.5 673.5,-88.5"/>
<text text-anchor="middle" x="706" y="-95.5" font-family="Helvetica,sans-Serif" font-size="10.00">std::string</text>
</a>
</g>
</g>
<!-- Node6&#45;&gt;Node3 -->
<g id="edge5" class="edge">
<title>Node6&#45;&gt;Node3</title>
<path fill="none" stroke="#9a32cd" stroke-dasharray="5,2" d="M748.98,-94.91C803.2,-90.91 896.47,-84.04 945.76,-80.41"/>
<polygon fill="#9a32cd" stroke="#9a32cd" points="748.39,-91.44 738.68,-95.67 748.91,-98.42 748.39,-91.44"/>
<text text-anchor="middle" x="849.5" y="-94" font-family="Helvetica,sans-Serif" font-size="10.00"> m_ObjectName</text>
</g>
<!-- Node7 -->
<g id="node7" class="node">
<title>Node7</title>
<g id="a_node7"><a xlink:title="STL class.">
<polygon fill="white" stroke="#bfbfbf" points="379.5,-88 379.5,-118 483.5,-118 483.5,-88 379.5,-88"/>
<text text-anchor="start" x="387.5" y="-106" font-family="Helvetica,sans-Serif" font-size="10.00">std::basic_string&lt;</text>
<text text-anchor="middle" x="431.5" y="-95" font-family="Helvetica,sans-Serif" font-size="10.00"> char &gt;</text>
</a>
</g>
</g>
<!-- Node7&#45;&gt;Node6 -->
<g id="edge6" class="edge">
<title>Node7&#45;&gt;Node6</title>
<path fill="none" stroke="midnightblue" d="M493.85,-101.87C549.49,-100.85 629.3,-99.39 673.14,-98.58"/>
<polygon fill="midnightblue" stroke="midnightblue" points="493.69,-98.38 483.76,-102.06 493.82,-105.38 493.69,-98.38"/>
</g>
<!-- Node8 -->
<g id="node8" class="node">
<title>Node8</title>
<g id="a_node8"><a xlink:href="classitk_1_1MetaDataDictionary.html" target="_top" xlink:title="Provides a mechanism for storing a collection of arbitrary data types.">
<polygon fill="white" stroke="black" points="639,-49.5 639,-68.5 773,-68.5 773,-49.5 639,-49.5"/>
<text text-anchor="middle" x="706" y="-56.5" font-family="Helvetica,sans-Serif" font-size="10.00">itk::MetaDataDictionary</text>
</a>
</g>
</g>
<!-- Node8&#45;&gt;Node3 -->
<g id="edge7" class="edge">
<title>Node8&#45;&gt;Node3</title>
<path fill="none" stroke="#9a32cd" stroke-dasharray="5,2" d="M783.67,-57.12C821.25,-57.07 867.12,-58.29 908,-63 920.43,-64.43 933.91,-67.04 945.72,-69.67"/>
<polygon fill="#9a32cd" stroke="#9a32cd" points="783.28,-53.62 773.3,-57.17 783.31,-60.62 783.28,-53.62"/>
<text text-anchor="middle" x="849.5" y="-66" font-family="Helvetica,sans-Serif" font-size="10.00"> m_MetaDataDictionary</text>
</g>
<!-- Node9 -->
<g id="node9" class="node">
<title>Node9</title>
<g id="a_node9"><a xlink:title=" ">
<polygon fill="white" stroke="#bfbfbf" points="357,-39 357,-69 506,-69 506,-39 357,-39"/>
<text text-anchor="start" x="365" y="-57" font-family="Helvetica,sans-Serif" font-size="10.00">std::shared_ptr&lt; MetaData</text>
<text text-anchor="middle" x="431.5" y="-46" font-family="Helvetica,sans-Serif" font-size="10.00">DictionaryMapType &gt;</text>
</a>
</g>
</g>
<!-- Node9&#45;&gt;Node8 -->
<g id="edge8" class="edge">
<title>Node9&#45;&gt;Node8</title>
<path fill="none" stroke="#9a32cd" stroke-dasharray="5,2" d="M516.34,-55.54C555.65,-56.26 601.82,-57.11 638.65,-57.78"/>
<polygon fill="#9a32cd" stroke="#9a32cd" points="516.3,-52.04 506.24,-55.35 516.18,-59.04 516.3,-52.04"/>
<text text-anchor="middle" x="572.5" y="-60" font-family="Helvetica,sans-Serif" font-size="10.00"> m_Dictionary</text>
</g>
<!-- Node10 -->
<g id="node10" class="node">
<title>Node10</title>
<g id="a_node10"><a xlink:title="STL class.">
<polygon fill="white" stroke="#bfbfbf" points="114,-44.5 114,-63.5 215,-63.5 215,-44.5 114,-44.5"/>
<text text-anchor="middle" x="164.5" y="-51.5" font-family="Helvetica,sans-Serif" font-size="10.00">std::map&lt; K, T &gt;</text>
</a>
</g>
</g>
<!-- Node10&#45;&gt;Node9 -->
<g id="edge9" class="edge">
<title>Node10&#45;&gt;Node9</title>
<path fill="none" stroke="#9a32cd" stroke-dasharray="5,2" d="M225.18,-54C264.19,-54 315.41,-54 356.93,-54"/>
<polygon fill="#9a32cd" stroke="#9a32cd" points="225.03,-50.5 215.03,-54 225.03,-57.5 225.03,-50.5"/>
<text text-anchor="middle" x="286" y="-57" font-family="Helvetica,sans-Serif" font-size="10.00"> ptr</text>
</g>
<!-- Node11 -->
<g id="node11" class="node">
<title>Node11</title>
<g id="a_node11"><a xlink:title=" ">
<polygon fill="white" stroke="#bfbfbf" points="0,-68.5 0,-87.5 29,-87.5 29,-68.5 0,-68.5"/>
<text text-anchor="middle" x="14.5" y="-75.5" font-family="Helvetica,sans-Serif" font-size="10.00">K</text>
</a>
</g>
</g>
<!-- Node11&#45;&gt;Node10 -->
<g id="edge10" class="edge">
<title>Node11&#45;&gt;Node10</title>
<path fill="none" stroke="#9a32cd" stroke-dasharray="5,2" d="M39.24,-74.15C59.28,-70.9 88.63,-66.14 113.78,-62.06"/>
<polygon fill="#9a32cd" stroke="#9a32cd" points="38.47,-70.73 29.16,-75.79 39.59,-77.64 38.47,-70.73"/>
<text text-anchor="middle" x="71.5" y="-75" font-family="Helvetica,sans-Serif" font-size="10.00"> keys</text>
</g>
<!-- Node12 -->
<g id="node12" class="node">
<title>Node12</title>
<g id="a_node12"><a xlink:title=" ">
<polygon fill="white" stroke="#bfbfbf" points="0,-15.5 0,-34.5 29,-34.5 29,-15.5 0,-15.5"/>
<text text-anchor="middle" x="14.5" y="-22.5" font-family="Helvetica,sans-Serif" font-size="10.00">T</text>
</a>
</g>
</g>
<!-- Node12&#45;&gt;Node10 -->
<g id="edge11" class="edge">
<title>Node12&#45;&gt;Node10</title>
<path fill="none" stroke="#9a32cd" stroke-dasharray="5,2" d="M39.09,-29.62C59.39,-33.6 89.35,-39.47 114.78,-44.45"/>
<polygon fill="#9a32cd" stroke="#9a32cd" points="39.64,-26.16 29.16,-27.68 38.3,-33.03 39.64,-26.16"/>
<text text-anchor="middle" x="71.5" y="-44" font-family="Helvetica,sans-Serif" font-size="10.00"> elements</text>
</g>
<!-- Node14 -->
<g id="node14" class="node">
<title>Node14</title>
<g id="a_node14"><a xlink:title="STL class.">
<polygon fill="white" stroke="#bfbfbf" points="114.5,-0.5 114.5,-19.5 214.5,-19.5 214.5,-0.5 114.5,-0.5"/>
<text text-anchor="middle" x="164.5" y="-7.5" font-family="Helvetica,sans-Serif" font-size="10.00">std::atomic&lt; T &gt;</text>
</a>
</g>
</g>
<!-- Node12&#45;&gt;Node14 -->
<g id="edge14" class="edge">
<title>Node12&#45;&gt;Node14</title>
<path fill="none" stroke="#9a32cd" stroke-dasharray="5,2" d="M38.4,-13.54C41.24,-12.51 44.15,-11.62 47,-11 68.74,-6.29 93.31,-5.44 114.26,-6.01"/>
<polygon fill="#9a32cd" stroke="#9a32cd" points="37.03,-10.32 29.19,-17.45 39.77,-16.77 37.03,-10.32"/>
<text text-anchor="middle" x="71.5" y="-14" font-family="Helvetica,sans-Serif" font-size="10.00"> ptr</text>
</g>
<!-- Node13 -->
<g id="node13" class="node">
<title>Node13</title>
<g id="a_node13"><a xlink:href="classitk_1_1TimeStamp.html" target="_top" xlink:title="Generate a unique, increasing time value.">
<polygon fill="white" stroke="black" points="526.5,-5.5 526.5,-24.5 618.5,-24.5 618.5,-5.5 526.5,-5.5"/>
<text text-anchor="middle" x="572.5" y="-12.5" font-family="Helvetica,sans-Serif" font-size="10.00">itk::TimeStamp</text>
</a>
</g>
</g>
<!-- Node13&#45;&gt;Node3 -->
<g id="edge12" class="edge">
<title>Node13&#45;&gt;Node3</title>
<path fill="none" stroke="#9a32cd" stroke-dasharray="5,2" d="M628.97,-16.39C696.07,-19.2 811.99,-27.63 908,-53 923.82,-57.18 941.15,-63.3 954.66,-68.44"/>
<polygon fill="#9a32cd" stroke="#9a32cd" points="628.76,-12.88 618.63,-15.99 628.49,-19.88 628.76,-12.88"/>
<text text-anchor="middle" x="706" y="-31" font-family="Helvetica,sans-Serif" font-size="10.00"> m_MTime</text>
</g>
<!-- Node14&#45;&gt;Node13 -->
<g id="edge13" class="edge">
<title>Node14&#45;&gt;Node13</title>
<path fill="none" stroke="#9a32cd" stroke-dasharray="5,2" d="M225.03,-10.73C306.93,-11.74 452.57,-13.54 526.2,-14.44"/>
<polygon fill="#9a32cd" stroke="#9a32cd" points="224.92,-7.23 214.88,-10.61 224.83,-14.23 224.92,-7.23"/>
<text text-anchor="middle" x="286" y="-16" font-family="Helvetica,sans-Serif" font-size="10.00"> m_GlobalTimeStamp</text>
</g>
<!-- Node15 -->
<g id="node15" class="node">
<title>Node15</title>
<g id="a_node15"><a xlink:href="classitk_1_1SmartPointer.html" target="_top" xlink:title=" ">
<polygon fill="white" stroke="black" points="926,-19 926,-49 1033,-49 1033,-19 926,-19"/>
<text text-anchor="start" x="934" y="-37" font-family="Helvetica,sans-Serif" font-size="10.00">itk::SmartPointer&lt;</text>
<text text-anchor="middle" x="979.5" y="-26" font-family="Helvetica,sans-Serif" font-size="10.00"> Self &gt;</text>
</a>
</g>
</g>
<!-- Node15&#45;&gt;Node2 -->
<g id="edge15" class="edge">
<title>Node15&#45;&gt;Node2</title>
<path fill="none" stroke="#9a32cd" stroke-dasharray="5,2" d="M1043.65,-36.78C1076.36,-38.22 1117.43,-40.02 1155.9,-41.72"/>
<polygon fill="#9a32cd" stroke="#9a32cd" points="1043.47,-33.27 1033.33,-36.32 1043.17,-40.26 1043.47,-33.27"/>
<text text-anchor="middle" x="1094.5" y="-44" font-family="Helvetica,sans-Serif" font-size="10.00"> m_MultiThreader</text>
</g>
</g>
</svg>
