<?xml version="1.0" encoding="UTF-8" standalone="no"?>
<!DOCTYPE svg PUBLIC "-//W3C//DTD SVG 1.1//EN"
 "http://www.w3.org/Graphics/SVG/1.1/DTD/svg11.dtd">
<!-- Generated by graphviz version 2.43.0 (0)
 -->
<!-- Title: itk::LaplacianDeformationQuadEdgeMeshFilterWithSoftConstraints&lt; TInputMesh, TOutputMesh, TSolverTraits &gt; Pages: 1 -->
<svg width="1429pt" height="50pt"
 viewBox="0.00 0.00 1429.00 50.00" xmlns="http://www.w3.org/2000/svg" xmlns:xlink="http://www.w3.org/1999/xlink">
<g id="graph0" class="graph" transform="scale(1 1) rotate(0) translate(4 46)">
<title>itk::LaplacianDeformationQuadEdgeMeshFilterWithSoftConstraints&lt; TInputMesh, TOutputMesh, TSolverTraits &gt;</title>
<polygon fill="white" stroke="transparent" points="-4,4 -4,-46 1425,-46 1425,4 -4,4"/>
<!-- Node1 -->
<g id="node1" class="node">
<title>Node1</title>
<g id="a_node1"><a xlink:title="Laplacian deformation with soft constraints (approximating displacement for handle points).">
<polygon fill="#bfbfbf" stroke="black" points="1185,-0.5 1185,-41.5 1421,-41.5 1421,-0.5 1185,-0.5"/>
<text text-anchor="start" x="1193" y="-29.5" font-family="Helvetica,sans-Serif" font-size="10.00">itk::LaplacianDeformation</text>
<text text-anchor="start" x="1193" y="-18.5" font-family="Helvetica,sans-Serif" font-size="10.00">QuadEdgeMeshFilterWithSoftConstraints</text>
<text text-anchor="middle" x="1303" y="-7.5" font-family="Helvetica,sans-Serif" font-size="10.00">&lt; TInputMesh, TOutputMesh, TSolverTraits &gt;</text>
</a>
</g>
</g>
<!-- Node2 -->
<g id="node2" class="node">
<title>Node2</title>
<g id="a_node2"><a xlink:href="classitk_1_1LaplacianDeformationQuadEdgeMeshFilter.html" target="_top" xlink:title="(abstract) base class for laplacian surface mesh deformation.">
<polygon fill="white" stroke="black" points="961,-0.5 961,-41.5 1149,-41.5 1149,-0.5 961,-0.5"/>
<text text-anchor="start" x="969" y="-29.5" font-family="Helvetica,sans-Serif" font-size="10.00">itk::LaplacianDeformation</text>
<text text-anchor="start" x="969" y="-18.5" font-family="Helvetica,sans-Serif" font-size="10.00">QuadEdgeMeshFilter&lt; TInputMesh,</text>
<text text-anchor="middle" x="1055" y="-7.5" font-family="Helvetica,sans-Serif" font-size="10.00"> TOutputMesh, TSolverTraits &gt;</text>
</a>
</g>
</g>
<!-- Node2&#45;&gt;Node1 -->
<g id="edge1" class="edge">
<title>Node2&#45;&gt;Node1</title>
<path fill="none" stroke="midnightblue" d="M1159.23,-21C1167.68,-21 1176.26,-21 1184.8,-21"/>
<polygon fill="midnightblue" stroke="midnightblue" points="1159,-17.5 1149,-21 1159,-24.5 1159,-17.5"/>
</g>
<!-- Node3 -->
<g id="node3" class="node">
<title>Node3</title>
<g id="a_node3"><a xlink:href="classitk_1_1QuadEdgeMeshToQuadEdgeMeshFilter.html" target="_top" xlink:title="Duplicates the content of a Mesh.">
<polygon fill="white" stroke="black" points="754,-0.5 754,-41.5 925,-41.5 925,-0.5 754,-0.5"/>
<text text-anchor="start" x="762" y="-29.5" font-family="Helvetica,sans-Serif" font-size="10.00">itk::QuadEdgeMeshToQuadEdge</text>
<text text-anchor="start" x="762" y="-18.5" font-family="Helvetica,sans-Serif" font-size="10.00">MeshFilter&lt; TInputMesh,</text>
<text text-anchor="middle" x="839.5" y="-7.5" font-family="Helvetica,sans-Serif" font-size="10.00"> TOutputMesh &gt;</text>
</a>
</g>
</g>
<!-- Node3&#45;&gt;Node2 -->
<g id="edge2" class="edge">
<title>Node3&#45;&gt;Node2</title>
<path fill="none" stroke="midnightblue" d="M935.46,-21C943.94,-21 952.52,-21 960.98,-21"/>
<polygon fill="midnightblue" stroke="midnightblue" points="935.19,-17.5 925.19,-21 935.19,-24.5 935.19,-17.5"/>
</g>
<!-- Node4 -->
<g id="node4" class="node">
<title>Node4</title>
<g id="a_node4"><a xlink:href="classitk_1_1MeshToMeshFilter.html" target="_top" xlink:title="MeshToMeshFilter is the base class for all process objects that output mesh data, and require mesh da...">
<polygon fill="white" stroke="black" points="551,-6 551,-36 718,-36 718,-6 551,-6"/>
<text text-anchor="start" x="559" y="-24" font-family="Helvetica,sans-Serif" font-size="10.00">itk::MeshToMeshFilter</text>
<text text-anchor="middle" x="634.5" y="-13" font-family="Helvetica,sans-Serif" font-size="10.00">&lt; TInputMesh, TOutputMesh &gt;</text>
</a>
</g>
</g>
<!-- Node4&#45;&gt;Node3 -->
<g id="edge3" class="edge">
<title>Node4&#45;&gt;Node3</title>
<path fill="none" stroke="midnightblue" d="M728.33,-21C736.78,-21 745.32,-21 753.7,-21"/>
<polygon fill="midnightblue" stroke="midnightblue" points="728.07,-17.5 718.07,-21 728.07,-24.5 728.07,-17.5"/>
</g>
<!-- Node5 -->
<g id="node5" class="node">
<title>Node5</title>
<g id="a_node5"><a xlink:href="classitk_1_1MeshSource.html" target="_top" xlink:title="Base class for all process objects that output mesh data.">
<polygon fill="white" stroke="black" points="370,-6 370,-36 515,-36 515,-6 370,-6"/>
<text text-anchor="start" x="378" y="-24" font-family="Helvetica,sans-Serif" font-size="10.00">itk::MeshSource&lt; TOutput</text>
<text text-anchor="middle" x="442.5" y="-13" font-family="Helvetica,sans-Serif" font-size="10.00">Mesh &gt;</text>
</a>
</g>
</g>
<!-- Node5&#45;&gt;Node4 -->
<g id="edge4" class="edge">
<title>Node5&#45;&gt;Node4</title>
<path fill="none" stroke="midnightblue" d="M525.29,-21C533.76,-21 542.36,-21 550.83,-21"/>
<polygon fill="midnightblue" stroke="midnightblue" points="525.06,-17.5 515.06,-21 525.06,-24.5 525.06,-17.5"/>
</g>
<!-- Node6 -->
<g id="node6" class="node">
<title>Node6</title>
<g id="a_node6"><a xlink:href="classitk_1_1ProcessObject.html" target="_top" xlink:title="The base class for all process objects (source, filters, mappers) in the Insight data processing pipe...">
<polygon fill="white" stroke="black" points="230,-11.5 230,-30.5 334,-30.5 334,-11.5 230,-11.5"/>
<text text-anchor="middle" x="282" y="-18.5" font-family="Helvetica,sans-Serif" font-size="10.00">itk::ProcessObject</text>
</a>
</g>
</g>
<!-- Node6&#45;&gt;Node5 -->
<g id="edge5" class="edge">
<title>Node6&#45;&gt;Node5</title>
<path fill="none" stroke="midnightblue" d="M344.11,-21C352.52,-21 361.21,-21 369.79,-21"/>
<polygon fill="midnightblue" stroke="midnightblue" points="344.02,-17.5 334.02,-21 344.02,-24.5 344.02,-17.5"/>
</g>
<!-- Node7 -->
<g id="node7" class="node">
<title>Node7</title>
<g id="a_node7"><a xlink:href="classitk_1_1Object.html" target="_top" xlink:title="Base class for most ITK classes.">
<polygon fill="white" stroke="black" points="127,-11.5 127,-30.5 194,-30.5 194,-11.5 127,-11.5"/>
<text text-anchor="middle" x="160.5" y="-18.5" font-family="Helvetica,sans-Serif" font-size="10.00">itk::Object</text>
</a>
</g>
</g>
<!-- Node7&#45;&gt;Node6 -->
<g id="edge6" class="edge">
<title>Node7&#45;&gt;Node6</title>
<path fill="none" stroke="midnightblue" d="M204.36,-21C212.66,-21 221.44,-21 229.97,-21"/>
<polygon fill="midnightblue" stroke="midnightblue" points="204.15,-17.5 194.15,-21 204.15,-24.5 204.15,-17.5"/>
</g>
<!-- Node8 -->
<g id="node8" class="node">
<title>Node8</title>
<g id="a_node8"><a xlink:href="classitk_1_1LightObject.html" target="_top" xlink:title="Light weight base class for most itk classes.">
<polygon fill="white" stroke="black" points="0,-11.5 0,-30.5 91,-30.5 91,-11.5 0,-11.5"/>
<text text-anchor="middle" x="45.5" y="-18.5" font-family="Helvetica,sans-Serif" font-size="10.00">itk::LightObject</text>
</a>
</g>
</g>
<!-- Node8&#45;&gt;Node7 -->
<g id="edge7" class="edge">
<title>Node8&#45;&gt;Node7</title>
<path fill="none" stroke="midnightblue" d="M101.28,-21C109.96,-21 118.69,-21 126.66,-21"/>
<polygon fill="midnightblue" stroke="midnightblue" points="101.16,-17.5 91.16,-21 101.16,-24.5 101.16,-17.5"/>
</g>
</g>
</svg>
