<?xml version="1.0" encoding="UTF-8" standalone="no"?>
<!DOCTYPE svg PUBLIC "-//W3C//DTD SVG 1.1//EN"
 "http://www.w3.org/Graphics/SVG/1.1/DTD/svg11.dtd">
<!-- Generated by graphviz version 2.43.0 (0)
 -->
<!-- Title: itk::ThresholdLabelerImageFilter&lt; TInputImage, TOutputImage &gt; Pages: 1 -->
<svg width="2785pt" height="459pt"
 viewBox="0.00 0.00 2785.00 458.50" xmlns="http://www.w3.org/2000/svg" xmlns:xlink="http://www.w3.org/1999/xlink">
<g id="graph0" class="graph" transform="scale(1 1) rotate(0) translate(4 454.5)">
<title>itk::ThresholdLabelerImageFilter&lt; TInputImage, TOutputImage &gt;</title>
<polygon fill="white" stroke="transparent" points="-4,4 -4,-454.5 2781,-454.5 2781,4 -4,4"/>
<!-- Node1 -->
<g id="node1" class="node">
<title>Node1</title>
<g id="a_node1"><a xlink:title="Label an input image according to a set of thresholds.">
<polygon fill="#bfbfbf" stroke="black" points="2576,-33 2576,-63 2777,-63 2777,-33 2576,-33"/>
<text text-anchor="start" x="2584" y="-51" font-family="Helvetica,sans-Serif" font-size="10.00">itk::ThresholdLabelerImage</text>
<text text-anchor="middle" x="2676.5" y="-40" font-family="Helvetica,sans-Serif" font-size="10.00">Filter&lt; TInputImage, TOutputImage &gt;</text>
</a>
</g>
</g>
<!-- Node2 -->
<g id="node2" class="node">
<title>Node2</title>
<g id="a_node2"><a xlink:href="classitk_1_1UnaryFunctorImageFilter.html" target="_top" xlink:title=" ">
<polygon fill="white" stroke="black" points="2251,-76.5 2251,-139.5 2468,-139.5 2468,-76.5 2251,-76.5"/>
<text text-anchor="start" x="2259" y="-127.5" font-family="Helvetica,sans-Serif" font-size="10.00">itk::UnaryFunctorImageFilter</text>
<text text-anchor="start" x="2259" y="-116.5" font-family="Helvetica,sans-Serif" font-size="10.00">&lt; TInputImage, TOutputImage,</text>
<text text-anchor="start" x="2259" y="-105.5" font-family="Helvetica,sans-Serif" font-size="10.00"> Functor::ThresholdLabeler</text>
<text text-anchor="start" x="2259" y="-94.5" font-family="Helvetica,sans-Serif" font-size="10.00">&lt; TInputImage::PixelType, TOutputImage</text>
<text text-anchor="middle" x="2359.5" y="-83.5" font-family="Helvetica,sans-Serif" font-size="10.00">::PixelType &gt; &gt;</text>
</a>
</g>
</g>
<!-- Node2&#45;&gt;Node1 -->
<g id="edge1" class="edge">
<title>Node2&#45;&gt;Node1</title>
<path fill="none" stroke="midnightblue" d="M2477.97,-85.62C2517.44,-78.11 2560.49,-69.91 2596.3,-63.09"/>
<polygon fill="midnightblue" stroke="midnightblue" points="2477.19,-82.21 2468.02,-87.52 2478.5,-89.09 2477.19,-82.21"/>
</g>
<!-- Node3 -->
<g id="node3" class="node">
<title>Node3</title>
<g id="a_node3"><a xlink:href="classitk_1_1InPlaceImageFilter.html" target="_top" xlink:title="Base class for filters that take an image as input and overwrite that image as the output.">
<polygon fill="white" stroke="black" points="1945,-137 1945,-167 2121,-167 2121,-137 1945,-137"/>
<text text-anchor="start" x="1953" y="-155" font-family="Helvetica,sans-Serif" font-size="10.00">itk::InPlaceImageFilter</text>
<text text-anchor="middle" x="2033" y="-144" font-family="Helvetica,sans-Serif" font-size="10.00">&lt; TInputImage, TOutputImage &gt;</text>
</a>
</g>
</g>
<!-- Node3&#45;&gt;Node2 -->
<g id="edge2" class="edge">
<title>Node3&#45;&gt;Node2</title>
<path fill="none" stroke="midnightblue" d="M2131.35,-138.8C2169.05,-133.69 2212.35,-127.82 2250.97,-122.58"/>
<polygon fill="midnightblue" stroke="midnightblue" points="2130.83,-135.34 2121.39,-140.15 2131.77,-142.28 2130.83,-135.34"/>
</g>
<!-- Node4 -->
<g id="node4" class="node">
<title>Node4</title>
<g id="a_node4"><a xlink:href="classitk_1_1ImageToImageFilter.html" target="_top" xlink:title=" ">
<polygon fill="white" stroke="black" points="1669,-137 1669,-167 1837,-167 1837,-137 1669,-137"/>
<text text-anchor="start" x="1677" y="-155" font-family="Helvetica,sans-Serif" font-size="10.00">itk::ImageToImageFilter</text>
<text text-anchor="middle" x="1753" y="-144" font-family="Helvetica,sans-Serif" font-size="10.00">&lt; TInputImage, TInputImage &gt;</text>
</a>
</g>
</g>
<!-- Node4&#45;&gt;Node3 -->
<g id="edge3" class="edge">
<title>Node4&#45;&gt;Node3</title>
<path fill="none" stroke="midnightblue" d="M1847.11,-152C1878.57,-152 1913.56,-152 1944.57,-152"/>
<polygon fill="midnightblue" stroke="midnightblue" points="1847.03,-148.5 1837.03,-152 1847.03,-155.5 1847.03,-148.5"/>
</g>
<!-- Node5 -->
<g id="node5" class="node">
<title>Node5</title>
<g id="a_node5"><a xlink:href="classitk_1_1ImageSource.html" target="_top" xlink:title=" ">
<polygon fill="white" stroke="black" points="1473.5,-164 1473.5,-194 1614.5,-194 1614.5,-164 1473.5,-164"/>
<text text-anchor="start" x="1481.5" y="-182" font-family="Helvetica,sans-Serif" font-size="10.00">itk::ImageSource&lt; TInput</text>
<text text-anchor="middle" x="1544" y="-171" font-family="Helvetica,sans-Serif" font-size="10.00">Image &gt;</text>
</a>
</g>
</g>
<!-- Node5&#45;&gt;Node4 -->
<g id="edge4" class="edge">
<title>Node5&#45;&gt;Node4</title>
<path fill="none" stroke="midnightblue" d="M1624.84,-168.59C1639.21,-166.71 1654.22,-164.75 1668.69,-162.87"/>
<polygon fill="midnightblue" stroke="midnightblue" points="1623.97,-165.17 1614.5,-169.93 1624.87,-172.11 1623.97,-165.17"/>
</g>
<!-- Node6 -->
<g id="node6" class="node">
<title>Node6</title>
<g id="a_node6"><a xlink:href="classitk_1_1ProcessObject.html" target="_top" xlink:title="The base class for all process objects (source, filters, mappers) in the Insight data processing pipe...">
<polygon fill="white" stroke="black" points="1295.5,-191.5 1295.5,-210.5 1399.5,-210.5 1399.5,-191.5 1295.5,-191.5"/>
<text text-anchor="middle" x="1347.5" y="-198.5" font-family="Helvetica,sans-Serif" font-size="10.00">itk::ProcessObject</text>
</a>
</g>
</g>
<!-- Node6&#45;&gt;Node5 -->
<g id="edge5" class="edge">
<title>Node6&#45;&gt;Node5</title>
<path fill="none" stroke="midnightblue" d="M1409.61,-194.09C1429.81,-191.8 1452.43,-189.24 1473.23,-186.89"/>
<polygon fill="midnightblue" stroke="midnightblue" points="1409.15,-190.62 1399.6,-195.22 1409.93,-197.57 1409.15,-190.62"/>
</g>
<!-- Node7 -->
<g id="node7" class="node">
<title>Node7</title>
<g id="a_node7"><a xlink:href="classitk_1_1Object.html" target="_top" xlink:title="Base class for most ITK classes.">
<polygon fill="white" stroke="black" points="980,-221.5 980,-240.5 1047,-240.5 1047,-221.5 980,-221.5"/>
<text text-anchor="middle" x="1013.5" y="-228.5" font-family="Helvetica,sans-Serif" font-size="10.00">itk::Object</text>
</a>
</g>
</g>
<!-- Node7&#45;&gt;Node6 -->
<g id="edge6" class="edge">
<title>Node7&#45;&gt;Node6</title>
<path fill="none" stroke="midnightblue" d="M1057.3,-227.13C1118.33,-221.62 1230.16,-211.51 1295.43,-205.61"/>
<polygon fill="midnightblue" stroke="midnightblue" points="1056.89,-223.66 1047.24,-228.04 1057.52,-230.63 1056.89,-223.66"/>
</g>
<!-- Node8 -->
<g id="node8" class="node">
<title>Node8</title>
<g id="a_node8"><a xlink:href="classitk_1_1LightObject.html" target="_top" xlink:title="Light weight base class for most itk classes.">
<polygon fill="white" stroke="black" points="659,-175.5 659,-194.5 750,-194.5 750,-175.5 659,-175.5"/>
<text text-anchor="middle" x="704.5" y="-182.5" font-family="Helvetica,sans-Serif" font-size="10.00">itk::LightObject</text>
</a>
</g>
</g>
<!-- Node8&#45;&gt;Node7 -->
<g id="edge7" class="edge">
<title>Node8&#45;&gt;Node7</title>
<path fill="none" stroke="midnightblue" d="M760.4,-193.23C824.13,-202.78 927.17,-218.21 979.59,-226.07"/>
<polygon fill="midnightblue" stroke="midnightblue" points="760.55,-189.71 750.14,-191.69 759.51,-196.63 760.55,-189.71"/>
</g>
<!-- Node9 -->
<g id="node9" class="node">
<title>Node9</title>
<g id="a_node9"><a xlink:title=" ">
<polygon fill="white" stroke="#bfbfbf" points="372,-171.5 372,-190.5 479,-190.5 479,-171.5 372,-171.5"/>
<text text-anchor="middle" x="425.5" y="-178.5" font-family="Helvetica,sans-Serif" font-size="10.00">std::atomic&lt; int &gt;</text>
</a>
</g>
</g>
<!-- Node9&#45;&gt;Node8 -->
<g id="edge8" class="edge">
<title>Node9&#45;&gt;Node8</title>
<path fill="none" stroke="#9a32cd" stroke-dasharray="5,2" d="M489.29,-181.91C540.91,-182.65 612.77,-183.69 658.72,-184.35"/>
<polygon fill="#9a32cd" stroke="#9a32cd" points="489.3,-178.41 479.25,-181.76 489.2,-185.41 489.3,-178.41"/>
<text text-anchor="middle" x="566.5" y="-186" font-family="Helvetica,sans-Serif" font-size="10.00"> m_ReferenceCount</text>
</g>
<!-- Node10 -->
<g id="node10" class="node">
<title>Node10</title>
<g id="a_node10"><a xlink:title="STL class.">
<polygon fill="white" stroke="#bfbfbf" points="672,-340.5 672,-359.5 737,-359.5 737,-340.5 672,-340.5"/>
<text text-anchor="middle" x="704.5" y="-347.5" font-family="Helvetica,sans-Serif" font-size="10.00">std::string</text>
</a>
</g>
</g>
<!-- Node10&#45;&gt;Node7 -->
<g id="edge9" class="edge">
<title>Node10&#45;&gt;Node7</title>
<path fill="none" stroke="#9a32cd" stroke-dasharray="5,2" d="M727.23,-334.69C744.58,-323.1 769.89,-307.6 794,-298 843.58,-278.25 862.41,-293.06 911,-271 919.99,-266.92 920.2,-262.46 929,-258 945.04,-249.87 964.03,-243.5 979.85,-238.99"/>
<polygon fill="#9a32cd" stroke="#9a32cd" points="725.22,-331.82 718.93,-340.34 729.16,-337.6 725.22,-331.82"/>
<text text-anchor="middle" x="852.5" y="-301" font-family="Helvetica,sans-Serif" font-size="10.00"> m_ObjectName</text>
</g>
<!-- Node19 -->
<g id="node19" class="node">
<title>Node19</title>
<g id="a_node19"><a xlink:title=" ">
<polygon fill="white" stroke="#bfbfbf" points="932.5,-330 932.5,-360 1094.5,-360 1094.5,-330 932.5,-330"/>
<text text-anchor="start" x="940.5" y="-348" font-family="Helvetica,sans-Serif" font-size="10.00">std::set&lt; DataObjectIdentifier</text>
<text text-anchor="middle" x="1013.5" y="-337" font-family="Helvetica,sans-Serif" font-size="10.00">Type &gt;</text>
</a>
</g>
</g>
<!-- Node10&#45;&gt;Node19 -->
<g id="edge20" class="edge">
<title>Node10&#45;&gt;Node19</title>
<path fill="none" stroke="#9a32cd" stroke-dasharray="5,2" d="M747.4,-349.32C794.8,-348.55 873.1,-347.27 932.35,-346.31"/>
<polygon fill="#9a32cd" stroke="#9a32cd" points="747.14,-345.82 737.2,-349.48 747.25,-352.82 747.14,-345.82"/>
<text text-anchor="middle" x="852.5" y="-351" font-family="Helvetica,sans-Serif" font-size="10.00"> keys</text>
</g>
<!-- Node20 -->
<g id="node20" class="node">
<title>Node20</title>
<g id="a_node20"><a xlink:title=" ">
<polygon fill="white" stroke="#bfbfbf" points="929,-267 929,-297 1098,-297 1098,-267 929,-267"/>
<text text-anchor="start" x="937" y="-285" font-family="Helvetica,sans-Serif" font-size="10.00">std::map&lt; DataObjectIdentifier</text>
<text text-anchor="middle" x="1013.5" y="-274" font-family="Helvetica,sans-Serif" font-size="10.00">Type, bool &gt;</text>
</a>
</g>
</g>
<!-- Node10&#45;&gt;Node20 -->
<g id="edge22" class="edge">
<title>Node10&#45;&gt;Node20</title>
<path fill="none" stroke="#9a32cd" stroke-dasharray="5,2" d="M746.91,-341.37C761.75,-338.33 778.61,-334.95 794,-332 845.89,-322.07 859.54,-322.94 911,-311 928.32,-306.98 947.08,-301.85 963.71,-297.02"/>
<polygon fill="#9a32cd" stroke="#9a32cd" points="746.09,-337.97 737,-343.41 747.5,-344.82 746.09,-337.97"/>
<text text-anchor="middle" x="852.5" y="-335" font-family="Helvetica,sans-Serif" font-size="10.00"> keys</text>
</g>
<!-- Node25 -->
<g id="node25" class="node">
<title>Node25</title>
<g id="a_node25"><a xlink:title=" ">
<polygon fill="white" stroke="#bfbfbf" points="929,-386 929,-416 1098,-416 1098,-386 929,-386"/>
<text text-anchor="start" x="937" y="-404" font-family="Helvetica,sans-Serif" font-size="10.00">std::map&lt; DataObjectIdentifier</text>
<text text-anchor="middle" x="1013.5" y="-393" font-family="Helvetica,sans-Serif" font-size="10.00">Type, DataObjectPointer &gt;</text>
</a>
</g>
</g>
<!-- Node10&#45;&gt;Node25 -->
<g id="edge29" class="edge">
<title>Node10&#45;&gt;Node25</title>
<path fill="none" stroke="#9a32cd" stroke-dasharray="5,2" d="M747.2,-356.93C793.65,-364.64 869.92,-377.31 928.8,-387.09"/>
<polygon fill="#9a32cd" stroke="#9a32cd" points="747.64,-353.45 737.2,-355.27 746.49,-360.36 747.64,-353.45"/>
<text text-anchor="middle" x="852.5" y="-386" font-family="Helvetica,sans-Serif" font-size="10.00"> keys</text>
</g>
<!-- Node11 -->
<g id="node11" class="node">
<title>Node11</title>
<g id="a_node11"><a xlink:title="STL class.">
<polygon fill="white" stroke="#bfbfbf" points="373.5,-335 373.5,-365 477.5,-365 477.5,-335 373.5,-335"/>
<text text-anchor="start" x="381.5" y="-353" font-family="Helvetica,sans-Serif" font-size="10.00">std::basic_string&lt;</text>
<text text-anchor="middle" x="425.5" y="-342" font-family="Helvetica,sans-Serif" font-size="10.00"> char &gt;</text>
</a>
</g>
</g>
<!-- Node11&#45;&gt;Node10 -->
<g id="edge10" class="edge">
<title>Node11&#45;&gt;Node10</title>
<path fill="none" stroke="midnightblue" d="M487.93,-350C544.75,-350 626.97,-350 671.66,-350"/>
<polygon fill="midnightblue" stroke="midnightblue" points="487.63,-346.5 477.63,-350 487.63,-353.5 487.63,-346.5"/>
</g>
<!-- Node12 -->
<g id="node12" class="node">
<title>Node12</title>
<g id="a_node12"><a xlink:href="classitk_1_1MetaDataDictionary.html" target="_top" xlink:title="Provides a mechanism for storing a collection of arbitrary data types.">
<polygon fill="white" stroke="black" points="637.5,-257.5 637.5,-276.5 771.5,-276.5 771.5,-257.5 637.5,-257.5"/>
<text text-anchor="middle" x="704.5" y="-264.5" font-family="Helvetica,sans-Serif" font-size="10.00">itk::MetaDataDictionary</text>
</a>
</g>
</g>
<!-- Node12&#45;&gt;Node7 -->
<g id="edge11" class="edge">
<title>Node12&#45;&gt;Node7</title>
<path fill="none" stroke="#9a32cd" stroke-dasharray="5,2" d="M781.82,-258.11C820.53,-253.6 868.26,-248.02 911,-243 933.91,-240.31 959.73,-237.26 979.59,-234.9"/>
<polygon fill="#9a32cd" stroke="#9a32cd" points="781.2,-254.66 771.67,-259.3 782.01,-261.61 781.2,-254.66"/>
<text text-anchor="middle" x="852.5" y="-259" font-family="Helvetica,sans-Serif" font-size="10.00"> m_MetaDataDictionary</text>
</g>
<!-- Node13 -->
<g id="node13" class="node">
<title>Node13</title>
<g id="a_node13"><a xlink:title=" ">
<polygon fill="white" stroke="#bfbfbf" points="351,-257 351,-287 500,-287 500,-257 351,-257"/>
<text text-anchor="start" x="359" y="-275" font-family="Helvetica,sans-Serif" font-size="10.00">std::shared_ptr&lt; MetaData</text>
<text text-anchor="middle" x="425.5" y="-264" font-family="Helvetica,sans-Serif" font-size="10.00">DictionaryMapType &gt;</text>
</a>
</g>
</g>
<!-- Node13&#45;&gt;Node12 -->
<g id="edge12" class="edge">
<title>Node13&#45;&gt;Node12</title>
<path fill="none" stroke="#9a32cd" stroke-dasharray="5,2" d="M510.18,-270.49C550.89,-269.75 599.13,-268.88 637.24,-268.2"/>
<polygon fill="#9a32cd" stroke="#9a32cd" points="509.94,-266.99 500,-270.67 510.07,-273.99 509.94,-266.99"/>
<text text-anchor="middle" x="566.5" y="-273" font-family="Helvetica,sans-Serif" font-size="10.00"> m_Dictionary</text>
</g>
<!-- Node14 -->
<g id="node14" class="node">
<title>Node14</title>
<g id="a_node14"><a xlink:title="STL class.">
<polygon fill="white" stroke="#bfbfbf" points="114,-262.5 114,-281.5 215,-281.5 215,-262.5 114,-262.5"/>
<text text-anchor="middle" x="164.5" y="-269.5" font-family="Helvetica,sans-Serif" font-size="10.00">std::map&lt; K, T &gt;</text>
</a>
</g>
</g>
<!-- Node14&#45;&gt;Node13 -->
<g id="edge13" class="edge">
<title>Node14&#45;&gt;Node13</title>
<path fill="none" stroke="#9a32cd" stroke-dasharray="5,2" d="M225.34,-272C262.61,-272 310.86,-272 350.52,-272"/>
<polygon fill="#9a32cd" stroke="#9a32cd" points="225.13,-268.5 215.13,-272 225.13,-275.5 225.13,-268.5"/>
<text text-anchor="middle" x="283" y="-275" font-family="Helvetica,sans-Serif" font-size="10.00"> ptr</text>
</g>
<!-- Node15 -->
<g id="node15" class="node">
<title>Node15</title>
<g id="a_node15"><a xlink:title=" ">
<polygon fill="white" stroke="#bfbfbf" points="0,-285.5 0,-304.5 29,-304.5 29,-285.5 0,-285.5"/>
<text text-anchor="middle" x="14.5" y="-292.5" font-family="Helvetica,sans-Serif" font-size="10.00">K</text>
</a>
</g>
</g>
<!-- Node15&#45;&gt;Node14 -->
<g id="edge14" class="edge">
<title>Node15&#45;&gt;Node14</title>
<path fill="none" stroke="#9a32cd" stroke-dasharray="5,2" d="M39.24,-291.31C59.28,-288.2 88.63,-283.63 113.78,-279.73"/>
<polygon fill="#9a32cd" stroke="#9a32cd" points="38.5,-287.88 29.16,-292.88 39.58,-294.8 38.5,-287.88"/>
<text text-anchor="middle" x="71.5" y="-293" font-family="Helvetica,sans-Serif" font-size="10.00"> keys</text>
</g>
<!-- Node16 -->
<g id="node16" class="node">
<title>Node16</title>
<g id="a_node16"><a xlink:title=" ">
<polygon fill="white" stroke="#bfbfbf" points="0,-232.5 0,-251.5 29,-251.5 29,-232.5 0,-232.5"/>
<text text-anchor="middle" x="14.5" y="-239.5" font-family="Helvetica,sans-Serif" font-size="10.00">T</text>
</a>
</g>
</g>
<!-- Node16&#45;&gt;Node14 -->
<g id="edge15" class="edge">
<title>Node16&#45;&gt;Node14</title>
<path fill="none" stroke="#9a32cd" stroke-dasharray="5,2" d="M39.01,-246.76C59.76,-250.97 90.63,-257.23 116.44,-262.46"/>
<polygon fill="#9a32cd" stroke="#9a32cd" points="39.65,-243.33 29.16,-244.77 38.26,-250.19 39.65,-243.33"/>
<text text-anchor="middle" x="71.5" y="-260" font-family="Helvetica,sans-Serif" font-size="10.00"> elements</text>
</g>
<!-- Node18 -->
<g id="node18" class="node">
<title>Node18</title>
<g id="a_node18"><a xlink:title="STL class.">
<polygon fill="white" stroke="#bfbfbf" points="233,-217.5 233,-236.5 333,-236.5 333,-217.5 233,-217.5"/>
<text text-anchor="middle" x="283" y="-224.5" font-family="Helvetica,sans-Serif" font-size="10.00">std::atomic&lt; T &gt;</text>
</a>
</g>
</g>
<!-- Node16&#45;&gt;Node18 -->
<g id="edge18" class="edge">
<title>Node16&#45;&gt;Node18</title>
<path fill="none" stroke="#9a32cd" stroke-dasharray="5,2" d="M39.03,-234.58C41.7,-233.95 44.39,-233.4 47,-233 110.54,-223.27 184.85,-223.24 232.62,-224.66"/>
<polygon fill="#9a32cd" stroke="#9a32cd" points="37.85,-231.27 29.13,-237.29 39.7,-238.03 37.85,-231.27"/>
<text text-anchor="middle" x="71.5" y="-236" font-family="Helvetica,sans-Serif" font-size="10.00"> ptr</text>
</g>
<!-- Node17 -->
<g id="node17" class="node">
<title>Node17</title>
<g id="a_node17"><a xlink:href="classitk_1_1TimeStamp.html" target="_top" xlink:title="Generate a unique, increasing time value.">
<polygon fill="white" stroke="black" points="658.5,-217.5 658.5,-236.5 750.5,-236.5 750.5,-217.5 658.5,-217.5"/>
<text text-anchor="middle" x="704.5" y="-224.5" font-family="Helvetica,sans-Serif" font-size="10.00">itk::TimeStamp</text>
</a>
</g>
</g>
<!-- Node17&#45;&gt;Node6 -->
<g id="edge31" class="edge">
<title>Node17&#45;&gt;Node6</title>
<path fill="none" stroke="#9a32cd" stroke-dasharray="5,2" d="M760.9,-218.75C806.04,-212.46 871.47,-204.33 929,-201 1060.88,-193.36 1216.58,-196.6 1295.35,-199.1"/>
<polygon fill="#9a32cd" stroke="#9a32cd" points="760.15,-215.32 750.74,-220.18 761.13,-222.25 760.15,-215.32"/>
<text text-anchor="middle" x="1013.5" y="-204" font-family="Helvetica,sans-Serif" font-size="10.00"> m_OutputInformationMTime</text>
</g>
<!-- Node17&#45;&gt;Node7 -->
<g id="edge16" class="edge">
<title>Node17&#45;&gt;Node7</title>
<path fill="none" stroke="#9a32cd" stroke-dasharray="5,2" d="M761.09,-227.72C824.93,-228.56 927.56,-229.89 979.75,-230.57"/>
<polygon fill="#9a32cd" stroke="#9a32cd" points="760.84,-224.22 750.8,-227.59 760.75,-231.22 760.84,-224.22"/>
<text text-anchor="middle" x="852.5" y="-232" font-family="Helvetica,sans-Serif" font-size="10.00"> m_MTime</text>
</g>
<!-- Node18&#45;&gt;Node17 -->
<g id="edge17" class="edge">
<title>Node18&#45;&gt;Node17</title>
<path fill="none" stroke="#9a32cd" stroke-dasharray="5,2" d="M343.61,-227C428.52,-227 582.42,-227 658.48,-227"/>
<polygon fill="#9a32cd" stroke="#9a32cd" points="343.36,-223.5 333.36,-227 343.36,-230.5 343.36,-223.5"/>
<text text-anchor="middle" x="425.5" y="-230" font-family="Helvetica,sans-Serif" font-size="10.00"> m_GlobalTimeStamp</text>
</g>
<!-- Node19&#45;&gt;Node6 -->
<g id="edge19" class="edge">
<title>Node19&#45;&gt;Node6</title>
<path fill="none" stroke="#9a32cd" stroke-dasharray="5,2" d="M1104.63,-335.28C1152.45,-327.3 1210.89,-312.89 1258,-287 1294.05,-267.19 1325.81,-228.72 1339.43,-210.72"/>
<polygon fill="#9a32cd" stroke="#9a32cd" points="1103.92,-331.85 1094.6,-336.89 1105.03,-338.76 1103.92,-331.85"/>
<text text-anchor="middle" x="1187" y="-335" font-family="Helvetica,sans-Serif" font-size="10.00"> m_RequiredInputNames</text>
</g>
<!-- Node20&#45;&gt;Node6 -->
<g id="edge21" class="edge">
<title>Node20&#45;&gt;Node6</title>
<path fill="none" stroke="#9a32cd" stroke-dasharray="5,2" d="M1102.3,-264.93C1148.82,-255.37 1206.78,-242.64 1258,-229 1278.4,-223.57 1301.1,-216.36 1318.4,-210.62"/>
<polygon fill="#9a32cd" stroke="#9a32cd" points="1101.35,-261.55 1092.25,-266.98 1102.75,-268.41 1101.35,-261.55"/>
<text text-anchor="start" x="1116" y="-275" font-family="Helvetica,sans-Serif" font-size="10.00"> m_CachedInputReleaseData</text>
<text text-anchor="middle" x="1187" y="-264" font-family="Helvetica,sans-Serif" font-size="10.00">Flags</text>
</g>
<!-- Node21 -->
<g id="node21" class="node">
<title>Node21</title>
<g id="a_node21"><a xlink:title=" ">
<polygon fill="white" stroke="#bfbfbf" points="946.5,-127.5 946.5,-146.5 1080.5,-146.5 1080.5,-127.5 946.5,-127.5"/>
<text text-anchor="middle" x="1013.5" y="-134.5" font-family="Helvetica,sans-Serif" font-size="10.00">std::atomic&lt; uint32_t &gt;</text>
</a>
</g>
</g>
<!-- Node21&#45;&gt;Node6 -->
<g id="edge23" class="edge">
<title>Node21&#45;&gt;Node6</title>
<path fill="none" stroke="#9a32cd" stroke-dasharray="5,2" d="M1090.94,-128.09C1141.41,-125.78 1207.32,-129.88 1258,-158 1269.66,-164.47 1264.96,-174.52 1276,-182 1281.88,-185.98 1288.56,-189.13 1295.41,-191.62"/>
<polygon fill="#9a32cd" stroke="#9a32cd" points="1090.53,-124.6 1080.73,-128.65 1090.91,-131.59 1090.53,-124.6"/>
<text text-anchor="middle" x="1187" y="-161" font-family="Helvetica,sans-Serif" font-size="10.00"> m_Progress</text>
</g>
<!-- Node22 -->
<g id="node22" class="node">
<title>Node22</title>
<g id="a_node22"><a xlink:title=" ">
<polygon fill="white" stroke="#bfbfbf" points="676.5,-127.5 676.5,-146.5 732.5,-146.5 732.5,-127.5 676.5,-127.5"/>
<text text-anchor="middle" x="704.5" y="-134.5" font-family="Helvetica,sans-Serif" font-size="10.00">uint32_t</text>
</a>
</g>
</g>
<!-- Node22&#45;&gt;Node21 -->
<g id="edge24" class="edge">
<title>Node22&#45;&gt;Node21</title>
<path fill="none" stroke="#9a32cd" stroke-dasharray="5,2" d="M742.88,-137C793.35,-137 884.11,-137 946.28,-137"/>
<polygon fill="#9a32cd" stroke="#9a32cd" points="742.74,-133.5 732.74,-137 742.74,-140.5 742.74,-133.5"/>
<text text-anchor="middle" x="852.5" y="-140" font-family="Helvetica,sans-Serif" font-size="10.00"> ptr</text>
</g>
<!-- Node23 -->
<g id="node23" class="node">
<title>Node23</title>
<g id="a_node23"><a xlink:title=" ">
<polygon fill="white" stroke="#bfbfbf" points="929,-78 929,-108 1098,-108 1098,-78 929,-78"/>
<text text-anchor="start" x="937" y="-96" font-family="Helvetica,sans-Serif" font-size="10.00">std::vector&lt; DataObjectPointer</text>
<text text-anchor="middle" x="1013.5" y="-85" font-family="Helvetica,sans-Serif" font-size="10.00">Map::iterator &gt;</text>
</a>
</g>
</g>
<!-- Node23&#45;&gt;Node6 -->
<g id="edge25" class="edge">
<title>Node23&#45;&gt;Node6</title>
<path fill="none" stroke="#9a32cd" stroke-dasharray="5,2" d="M1076.37,-75.87C1130.49,-64.93 1208.05,-59.56 1258,-101 1286.38,-124.54 1250.51,-155.35 1276,-182 1281.34,-187.59 1288.14,-191.59 1295.4,-194.45"/>
<polygon fill="#9a32cd" stroke="#9a32cd" points="1075.6,-72.46 1066.55,-77.97 1077.06,-79.31 1075.6,-72.46"/>
<text text-anchor="middle" x="1187" y="-115" font-family="Helvetica,sans-Serif" font-size="10.00"> m_IndexedOutputs</text>
<text text-anchor="middle" x="1187" y="-104" font-family="Helvetica,sans-Serif" font-size="10.00">m_IndexedInputs</text>
</g>
<!-- Node24 -->
<g id="node24" class="node">
<title>Node24</title>
<g id="a_node24"><a xlink:title="STL iterator class.">
<polygon fill="white" stroke="#bfbfbf" points="633,-83.5 633,-102.5 776,-102.5 776,-83.5 633,-83.5"/>
<text text-anchor="middle" x="704.5" y="-90.5" font-family="Helvetica,sans-Serif" font-size="10.00">std::map&lt; K, T &gt;::iterator</text>
</a>
</g>
</g>
<!-- Node24&#45;&gt;Node23 -->
<g id="edge26" class="edge">
<title>Node24&#45;&gt;Node23</title>
<path fill="none" stroke="#9a32cd" stroke-dasharray="5,2" d="M786.39,-93C830.34,-93 884.61,-93 928.97,-93"/>
<polygon fill="#9a32cd" stroke="#9a32cd" points="786.32,-89.5 776.32,-93 786.32,-96.5 786.32,-89.5"/>
<text text-anchor="middle" x="852.5" y="-96" font-family="Helvetica,sans-Serif" font-size="10.00"> elements</text>
</g>
<!-- Node25&#45;&gt;Node6 -->
<g id="edge27" class="edge">
<title>Node25&#45;&gt;Node6</title>
<path fill="none" stroke="#9a32cd" stroke-dasharray="5,2" d="M1108.33,-397.55C1156.81,-391.71 1214.72,-378.04 1258,-347 1308.1,-311.08 1335.21,-237.15 1343.62,-210.68"/>
<polygon fill="#9a32cd" stroke="#9a32cd" points="1107.69,-394.1 1098.14,-398.68 1108.46,-401.06 1107.69,-394.1"/>
<text text-anchor="middle" x="1187" y="-409" font-family="Helvetica,sans-Serif" font-size="10.00"> m_Outputs</text>
<text text-anchor="middle" x="1187" y="-398" font-family="Helvetica,sans-Serif" font-size="10.00">m_Inputs</text>
</g>
<!-- Node26 -->
<g id="node26" class="node">
<title>Node26</title>
<g id="a_node26"><a xlink:href="classitk_1_1SmartPointer.html" target="_top" xlink:title=" ">
<polygon fill="white" stroke="black" points="651,-420 651,-450 758,-450 758,-420 651,-420"/>
<text text-anchor="start" x="659" y="-438" font-family="Helvetica,sans-Serif" font-size="10.00">itk::SmartPointer&lt;</text>
<text text-anchor="middle" x="704.5" y="-427" font-family="Helvetica,sans-Serif" font-size="10.00"> Self &gt;</text>
</a>
</g>
</g>
<!-- Node26&#45;&gt;Node25 -->
<g id="edge28" class="edge">
<title>Node26&#45;&gt;Node25</title>
<path fill="none" stroke="#9a32cd" stroke-dasharray="5,2" d="M768.36,-428.45C809.05,-424.17 863.17,-418.39 911,-413 916.82,-412.34 922.82,-411.66 928.87,-410.96"/>
<polygon fill="#9a32cd" stroke="#9a32cd" points="767.89,-424.98 758.31,-429.51 768.62,-431.94 767.89,-424.98"/>
<text text-anchor="middle" x="852.5" y="-428" font-family="Helvetica,sans-Serif" font-size="10.00"> elements</text>
</g>
<!-- Node27 -->
<g id="node27" class="node">
<title>Node27</title>
<g id="a_node27"><a xlink:href="classitk_1_1SmartPointer.html" target="_top" xlink:title=" ">
<polygon fill="white" stroke="black" points="942.5,-29 942.5,-59 1084.5,-59 1084.5,-29 942.5,-29"/>
<text text-anchor="start" x="950.5" y="-47" font-family="Helvetica,sans-Serif" font-size="10.00">itk::SmartPointer&lt;</text>
<text text-anchor="middle" x="1013.5" y="-36" font-family="Helvetica,sans-Serif" font-size="10.00"> itk::MultiThreaderBase &gt;</text>
</a>
</g>
</g>
<!-- Node27&#45;&gt;Node6 -->
<g id="edge30" class="edge">
<title>Node27&#45;&gt;Node6</title>
<path fill="none" stroke="#9a32cd" stroke-dasharray="5,2" d="M1074.73,-26.75C1129.52,-15.09 1209.09,-8.82 1258,-53 1300.96,-91.8 1237.69,-138.6 1276,-182 1281.2,-187.89 1288.02,-192.05 1295.36,-194.96"/>
<polygon fill="#9a32cd" stroke="#9a32cd" points="1073.79,-23.38 1064.8,-28.99 1075.32,-30.21 1073.79,-23.38"/>
<text text-anchor="middle" x="1187" y="-56" font-family="Helvetica,sans-Serif" font-size="10.00"> m_MultiThreader</text>
</g>
<!-- Node28 -->
<g id="node28" class="node">
<title>Node28</title>
<g id="a_node28"><a xlink:href="structitk_1_1ImageSourceCommon.html" target="_top" xlink:title="Secondary base class of ImageSource common between templates.">
<polygon fill="white" stroke="black" points="1276,-153.5 1276,-172.5 1419,-172.5 1419,-153.5 1276,-153.5"/>
<text text-anchor="middle" x="1347.5" y="-160.5" font-family="Helvetica,sans-Serif" font-size="10.00">itk::ImageSourceCommon</text>
</a>
</g>
</g>
<!-- Node28&#45;&gt;Node5 -->
<g id="edge32" class="edge">
<title>Node28&#45;&gt;Node5</title>
<path fill="none" stroke="#8b1a1a" d="M1429.28,-169.65C1443.89,-170.85 1459,-172.09 1473.26,-173.26"/>
<polygon fill="#8b1a1a" stroke="#8b1a1a" points="1429.52,-166.15 1419.27,-168.82 1428.95,-173.13 1429.52,-166.15"/>
</g>
<!-- Node29 -->
<g id="node29" class="node">
<title>Node29</title>
<g id="a_node29"><a xlink:href="classitk_1_1ImageToImageFilterCommon.html" target="_top" xlink:title="Secondary base class of ImageToImageFilter common between templates.">
<polygon fill="white" stroke="black" points="1456,-125.5 1456,-144.5 1632,-144.5 1632,-125.5 1456,-125.5"/>
<text text-anchor="middle" x="1544" y="-132.5" font-family="Helvetica,sans-Serif" font-size="10.00">itk::ImageToImageFilterCommon</text>
</a>
</g>
</g>
<!-- Node29&#45;&gt;Node4 -->
<g id="edge33" class="edge">
<title>Node29&#45;&gt;Node4</title>
<path fill="none" stroke="#8b1a1a" d="M1642.21,-142.98C1651.13,-143.72 1660.1,-144.45 1668.88,-145.17"/>
<polygon fill="#8b1a1a" stroke="#8b1a1a" points="1642.44,-139.49 1632.19,-142.16 1641.87,-146.47 1642.44,-139.49"/>
</g>
<!-- Node30 -->
<g id="node30" class="node">
<title>Node30</title>
<g id="a_node30"><a xlink:href="classitk_1_1Functor_1_1ThresholdLabeler.html" target="_top" xlink:title=" ">
<polygon fill="white" stroke="black" points="1952.5,-76.5 1952.5,-117.5 2113.5,-117.5 2113.5,-76.5 1952.5,-76.5"/>
<text text-anchor="start" x="1960.5" y="-105.5" font-family="Helvetica,sans-Serif" font-size="10.00">itk::Functor::ThresholdLabeler</text>
<text text-anchor="start" x="1960.5" y="-94.5" font-family="Helvetica,sans-Serif" font-size="10.00">&lt; TInputImage::PixelType,</text>
<text text-anchor="middle" x="2033" y="-83.5" font-family="Helvetica,sans-Serif" font-size="10.00"> TOutputImage::PixelType &gt;</text>
</a>
</g>
</g>
<!-- Node30&#45;&gt;Node2 -->
<g id="edge34" class="edge">
<title>Node30&#45;&gt;Node2</title>
<path fill="none" stroke="#9a32cd" stroke-dasharray="5,2" d="M2123.89,-100.05C2163.21,-101.38 2209.65,-102.95 2250.79,-104.35"/>
<polygon fill="#9a32cd" stroke="#9a32cd" points="2123.91,-96.55 2113.8,-99.7 2123.67,-103.54 2123.91,-96.55"/>
<text text-anchor="middle" x="2186" y="-106" font-family="Helvetica,sans-Serif" font-size="10.00"> m_Functor</text>
</g>
<!-- Node31 -->
<g id="node31" class="node">
<title>Node31</title>
<g id="a_node31"><a xlink:title=" ">
<polygon fill="white" stroke="#bfbfbf" points="1678.5,-54 1678.5,-84 1827.5,-84 1827.5,-54 1678.5,-54"/>
<text text-anchor="start" x="1686.5" y="-72" font-family="Helvetica,sans-Serif" font-size="10.00">std::vector&lt; RealThreshold</text>
<text text-anchor="middle" x="1753" y="-61" font-family="Helvetica,sans-Serif" font-size="10.00">Type &gt;</text>
</a>
</g>
</g>
<!-- Node31&#45;&gt;Node1 -->
<g id="edge37" class="edge">
<title>Node31&#45;&gt;Node1</title>
<path fill="none" stroke="#9a32cd" stroke-dasharray="5,2" d="M1838.02,-67.09C2008.32,-63.2 2393.47,-54.43 2575.99,-50.27"/>
<polygon fill="#9a32cd" stroke="#9a32cd" points="1837.77,-63.59 1827.85,-67.32 1837.93,-70.59 1837.77,-63.59"/>
<text text-anchor="middle" x="2186" y="-63" font-family="Helvetica,sans-Serif" font-size="10.00"> m_RealThresholds</text>
</g>
<!-- Node31&#45;&gt;Node30 -->
<g id="edge35" class="edge">
<title>Node31&#45;&gt;Node30</title>
<path fill="none" stroke="#9a32cd" stroke-dasharray="5,2" d="M1837.82,-77.44C1874.04,-81.09 1916.24,-85.34 1952.02,-88.94"/>
<polygon fill="#9a32cd" stroke="#9a32cd" points="1838.07,-73.95 1827.77,-76.43 1837.37,-80.91 1838.07,-73.95"/>
<text text-anchor="middle" x="1891" y="-89" font-family="Helvetica,sans-Serif" font-size="10.00"> m_Thresholds</text>
</g>
<!-- Node32 -->
<g id="node32" class="node">
<title>Node32</title>
<g id="a_node32"><a xlink:title=" ">
<polygon fill="white" stroke="#bfbfbf" points="2279,-0.5 2279,-19.5 2440,-19.5 2440,-0.5 2279,-0.5"/>
<text text-anchor="middle" x="2359.5" y="-7.5" font-family="Helvetica,sans-Serif" font-size="10.00">std::vector&lt; InputPixelType &gt;</text>
</a>
</g>
</g>
<!-- Node32&#45;&gt;Node1 -->
<g id="edge36" class="edge">
<title>Node32&#45;&gt;Node1</title>
<path fill="none" stroke="#9a32cd" stroke-dasharray="5,2" d="M2450.38,-13.18C2484.23,-15.1 2522.99,-18.15 2558,-23 2575.97,-25.49 2595.3,-29.18 2612.99,-32.96"/>
<polygon fill="#9a32cd" stroke="#9a32cd" points="2450.22,-9.67 2440.05,-12.62 2449.84,-16.66 2450.22,-9.67"/>
<text text-anchor="middle" x="2522" y="-26" font-family="Helvetica,sans-Serif" font-size="10.00"> m_Thresholds</text>
</g>
</g>
</svg>
