<?xml version="1.0" encoding="UTF-8" standalone="no"?>
<!DOCTYPE svg PUBLIC "-//W3C//DTD SVG 1.1//EN"
 "http://www.w3.org/Graphics/SVG/1.1/DTD/svg11.dtd">
<!-- Generated by graphviz version 2.43.0 (0)
 -->
<!-- Title: itk::LBFGSOptimizerBasev4&lt; TInternalVnlOptimizerType &gt; Pages: 1 -->
<svg width="2061pt" height="406pt"
 viewBox="0.00 0.00 2061.00 405.50" xmlns="http://www.w3.org/2000/svg" xmlns:xlink="http://www.w3.org/1999/xlink">
<g id="graph0" class="graph" transform="scale(1 1) rotate(0) translate(4 401.5)">
<title>itk::LBFGSOptimizerBasev4&lt; TInternalVnlOptimizerType &gt;</title>
<polygon fill="white" stroke="transparent" points="-4,4 -4,-401.5 2057,-401.5 2057,4 -4,4"/>
<!-- Node1 -->
<g id="node1" class="node">
<title>Node1</title>
<g id="a_node1"><a xlink:title="Abstract base for vnl lbfgs algorithm optimizers in ITKv4 registration framework.">
<polygon fill="#bfbfbf" stroke="black" points="1884,-44.5 1884,-74.5 2053,-74.5 2053,-44.5 1884,-44.5"/>
<text text-anchor="start" x="1892" y="-62.5" font-family="Helvetica,sans-Serif" font-size="10.00">itk::LBFGSOptimizerBasev4</text>
<text text-anchor="middle" x="1968.5" y="-51.5" font-family="Helvetica,sans-Serif" font-size="10.00">&lt; TInternalVnlOptimizerType &gt;</text>
</a>
</g>
</g>
<!-- Node2 -->
<g id="node2" class="node">
<title>Node2</title>
<g id="a_node2"><a xlink:href="classitk_1_1SingleValuedNonLinearVnlOptimizerv4.html" target="_top" xlink:title="This is a base for the ITKv4 Optimization methods using the vnl library.">
<polygon fill="white" stroke="black" points="1558,-123.5 1558,-153.5 1706,-153.5 1706,-123.5 1558,-123.5"/>
<text text-anchor="start" x="1566" y="-141.5" font-family="Helvetica,sans-Serif" font-size="10.00">itk::SingleValuedNonLinear</text>
<text text-anchor="middle" x="1632" y="-130.5" font-family="Helvetica,sans-Serif" font-size="10.00">VnlOptimizerv4</text>
</a>
</g>
</g>
<!-- Node2&#45;&gt;Node1 -->
<g id="edge1" class="edge">
<title>Node2&#45;&gt;Node1</title>
<path fill="none" stroke="midnightblue" d="M1706.7,-121.09C1765.69,-107.16 1847.56,-87.83 1903.75,-74.56"/>
<polygon fill="midnightblue" stroke="midnightblue" points="1705.63,-117.75 1696.7,-123.45 1707.24,-124.56 1705.63,-117.75"/>
</g>
<!-- Node3 -->
<g id="node3" class="node">
<title>Node3</title>
<g id="a_node3"><a xlink:href="classitk_1_1ObjectToObjectOptimizerBaseTemplate.html" target="_top" xlink:title=" ">
<polygon fill="white" stroke="black" points="1245,-207.5 1245,-237.5 1402,-237.5 1402,-207.5 1245,-207.5"/>
<text text-anchor="start" x="1253" y="-225.5" font-family="Helvetica,sans-Serif" font-size="10.00">itk::ObjectToObjectOptimizer</text>
<text text-anchor="middle" x="1323.5" y="-214.5" font-family="Helvetica,sans-Serif" font-size="10.00">BaseTemplate&lt; double &gt;</text>
</a>
</g>
</g>
<!-- Node3&#45;&gt;Node2 -->
<g id="edge2" class="edge">
<title>Node3&#45;&gt;Node2</title>
<path fill="none" stroke="midnightblue" d="M1402.33,-205.09C1443.49,-195.44 1494.74,-182.75 1540,-169.5 1556.18,-164.76 1573.76,-158.94 1589.11,-153.62"/>
<polygon fill="midnightblue" stroke="midnightblue" points="1401.31,-201.73 1392.36,-207.41 1402.9,-208.55 1401.31,-201.73"/>
</g>
<!-- Node4 -->
<g id="node4" class="node">
<title>Node4</title>
<g id="a_node4"><a xlink:href="classitk_1_1Object.html" target="_top" xlink:title="Base class for most ITK classes.">
<polygon fill="white" stroke="black" points="1008,-302 1008,-321 1075,-321 1075,-302 1008,-302"/>
<text text-anchor="middle" x="1041.5" y="-309" font-family="Helvetica,sans-Serif" font-size="10.00">itk::Object</text>
</a>
</g>
</g>
<!-- Node4&#45;&gt;Node3 -->
<g id="edge3" class="edge">
<title>Node4&#45;&gt;Node3</title>
<path fill="none" stroke="midnightblue" d="M1085.44,-305.83C1123.43,-300.03 1179.97,-289.42 1227,-272.5 1252.36,-263.38 1279.41,-248.7 1298.22,-237.6"/>
<polygon fill="midnightblue" stroke="midnightblue" points="1084.62,-302.42 1075.24,-307.35 1085.64,-309.34 1084.62,-302.42"/>
</g>
<!-- Node5 -->
<g id="node5" class="node">
<title>Node5</title>
<g id="a_node5"><a xlink:href="classitk_1_1LightObject.html" target="_top" xlink:title="Light weight base class for most itk classes.">
<polygon fill="white" stroke="black" points="687.5,-374 687.5,-393 778.5,-393 778.5,-374 687.5,-374"/>
<text text-anchor="middle" x="733" y="-381" font-family="Helvetica,sans-Serif" font-size="10.00">itk::LightObject</text>
</a>
</g>
</g>
<!-- Node5&#45;&gt;Node4 -->
<g id="edge4" class="edge">
<title>Node5&#45;&gt;Node4</title>
<path fill="none" stroke="midnightblue" d="M788.69,-377.08C833.4,-371.11 897.99,-360.8 953,-345.5 976.24,-339.04 1001.85,-328.68 1019.33,-321.1"/>
<polygon fill="midnightblue" stroke="midnightblue" points="788.08,-373.63 778.62,-378.4 788.99,-380.57 788.08,-373.63"/>
</g>
<!-- Node6 -->
<g id="node6" class="node">
<title>Node6</title>
<g id="a_node6"><a xlink:title=" ">
<polygon fill="white" stroke="#bfbfbf" points="382.5,-378 382.5,-397 489.5,-397 489.5,-378 382.5,-378"/>
<text text-anchor="middle" x="436" y="-385" font-family="Helvetica,sans-Serif" font-size="10.00">std::atomic&lt; int &gt;</text>
</a>
</g>
</g>
<!-- Node6&#45;&gt;Node5 -->
<g id="edge5" class="edge">
<title>Node6&#45;&gt;Node5</title>
<path fill="none" stroke="#9a32cd" stroke-dasharray="5,2" d="M499.96,-386.65C556.32,-385.88 637.54,-384.78 687.43,-384.1"/>
<polygon fill="#9a32cd" stroke="#9a32cd" points="499.69,-383.15 489.74,-386.78 499.79,-390.15 499.69,-383.15"/>
<text text-anchor="middle" x="581.5" y="-388.5" font-family="Helvetica,sans-Serif" font-size="10.00"> m_ReferenceCount</text>
</g>
<!-- Node7 -->
<g id="node7" class="node">
<title>Node7</title>
<g id="a_node7"><a xlink:title="STL class.">
<polygon fill="white" stroke="#bfbfbf" points="700.5,-332 700.5,-351 765.5,-351 765.5,-332 700.5,-332"/>
<text text-anchor="middle" x="733" y="-339" font-family="Helvetica,sans-Serif" font-size="10.00">std::string</text>
</a>
</g>
</g>
<!-- Node7&#45;&gt;Node4 -->
<g id="edge6" class="edge">
<title>Node7&#45;&gt;Node4</title>
<path fill="none" stroke="#9a32cd" stroke-dasharray="5,2" d="M775.8,-337.41C837.47,-331.37 951.56,-320.21 1007.64,-314.72"/>
<polygon fill="#9a32cd" stroke="#9a32cd" points="775.26,-333.94 765.65,-338.4 775.94,-340.91 775.26,-333.94"/>
<text text-anchor="middle" x="894.5" y="-333.5" font-family="Helvetica,sans-Serif" font-size="10.00"> m_ObjectName</text>
</g>
<!-- Node8 -->
<g id="node8" class="node">
<title>Node8</title>
<g id="a_node8"><a xlink:title="STL class.">
<polygon fill="white" stroke="#bfbfbf" points="384,-328.5 384,-358.5 488,-358.5 488,-328.5 384,-328.5"/>
<text text-anchor="start" x="392" y="-346.5" font-family="Helvetica,sans-Serif" font-size="10.00">std::basic_string&lt;</text>
<text text-anchor="middle" x="436" y="-335.5" font-family="Helvetica,sans-Serif" font-size="10.00"> char &gt;</text>
</a>
</g>
</g>
<!-- Node8&#45;&gt;Node7 -->
<g id="edge7" class="edge">
<title>Node8&#45;&gt;Node7</title>
<path fill="none" stroke="midnightblue" d="M498.4,-343.08C559.88,-342.67 652.08,-342.04 700.19,-341.72"/>
<polygon fill="midnightblue" stroke="midnightblue" points="498.02,-339.59 488.05,-343.15 498.07,-346.59 498.02,-339.59"/>
</g>
<!-- Node9 -->
<g id="node9" class="node">
<title>Node9</title>
<g id="a_node9"><a xlink:href="classitk_1_1MetaDataDictionary.html" target="_top" xlink:title="Provides a mechanism for storing a collection of arbitrary data types.">
<polygon fill="white" stroke="black" points="666,-292 666,-311 800,-311 800,-292 666,-292"/>
<text text-anchor="middle" x="733" y="-299" font-family="Helvetica,sans-Serif" font-size="10.00">itk::MetaDataDictionary</text>
</a>
</g>
</g>
<!-- Node9&#45;&gt;Node4 -->
<g id="edge8" class="edge">
<title>Node9&#45;&gt;Node4</title>
<path fill="none" stroke="#9a32cd" stroke-dasharray="5,2" d="M810.32,-302.6C852.41,-303.37 905.61,-304.61 953,-306.5 971.09,-307.22 991.27,-308.35 1007.69,-309.36"/>
<polygon fill="#9a32cd" stroke="#9a32cd" points="810.2,-299.1 800.14,-302.42 810.08,-306.1 810.2,-299.1"/>
<text text-anchor="middle" x="894.5" y="-309.5" font-family="Helvetica,sans-Serif" font-size="10.00"> m_MetaDataDictionary</text>
</g>
<!-- Node10 -->
<g id="node10" class="node">
<title>Node10</title>
<g id="a_node10"><a xlink:title=" ">
<polygon fill="white" stroke="#bfbfbf" points="361.5,-279.5 361.5,-309.5 510.5,-309.5 510.5,-279.5 361.5,-279.5"/>
<text text-anchor="start" x="369.5" y="-297.5" font-family="Helvetica,sans-Serif" font-size="10.00">std::shared_ptr&lt; MetaData</text>
<text text-anchor="middle" x="436" y="-286.5" font-family="Helvetica,sans-Serif" font-size="10.00">DictionaryMapType &gt;</text>
</a>
</g>
</g>
<!-- Node10&#45;&gt;Node9 -->
<g id="edge9" class="edge">
<title>Node10&#45;&gt;Node9</title>
<path fill="none" stroke="#9a32cd" stroke-dasharray="5,2" d="M520.92,-296.49C566.86,-297.58 622.97,-298.91 665.79,-299.93"/>
<polygon fill="#9a32cd" stroke="#9a32cd" points="520.76,-292.99 510.68,-296.25 520.59,-299.98 520.76,-292.99"/>
<text text-anchor="middle" x="581.5" y="-301.5" font-family="Helvetica,sans-Serif" font-size="10.00"> m_Dictionary</text>
</g>
<!-- Node11 -->
<g id="node11" class="node">
<title>Node11</title>
<g id="a_node11"><a xlink:title="STL class.">
<polygon fill="white" stroke="#bfbfbf" points="114,-285 114,-304 215,-304 215,-285 114,-285"/>
<text text-anchor="middle" x="164.5" y="-292" font-family="Helvetica,sans-Serif" font-size="10.00">std::map&lt; K, T &gt;</text>
</a>
</g>
</g>
<!-- Node11&#45;&gt;Node10 -->
<g id="edge10" class="edge">
<title>Node11&#45;&gt;Node10</title>
<path fill="none" stroke="#9a32cd" stroke-dasharray="5,2" d="M225.42,-294.5C265.56,-294.5 318.68,-294.5 361.39,-294.5"/>
<polygon fill="#9a32cd" stroke="#9a32cd" points="225.24,-291 215.24,-294.5 225.24,-298 225.24,-291"/>
<text text-anchor="middle" x="286" y="-297.5" font-family="Helvetica,sans-Serif" font-size="10.00"> ptr</text>
</g>
<!-- Node12 -->
<g id="node12" class="node">
<title>Node12</title>
<g id="a_node12"><a xlink:title=" ">
<polygon fill="white" stroke="#bfbfbf" points="0,-309 0,-328 29,-328 29,-309 0,-309"/>
<text text-anchor="middle" x="14.5" y="-316" font-family="Helvetica,sans-Serif" font-size="10.00">K</text>
</a>
</g>
</g>
<!-- Node12&#45;&gt;Node11 -->
<g id="edge11" class="edge">
<title>Node12&#45;&gt;Node11</title>
<path fill="none" stroke="#9a32cd" stroke-dasharray="5,2" d="M39.24,-314.65C59.28,-311.4 88.63,-306.64 113.78,-302.56"/>
<polygon fill="#9a32cd" stroke="#9a32cd" points="38.47,-311.23 29.16,-316.29 39.59,-318.14 38.47,-311.23"/>
<text text-anchor="middle" x="71.5" y="-315.5" font-family="Helvetica,sans-Serif" font-size="10.00"> keys</text>
</g>
<!-- Node13 -->
<g id="node13" class="node">
<title>Node13</title>
<g id="a_node13"><a xlink:title=" ">
<polygon fill="white" stroke="#bfbfbf" points="0,-256 0,-275 29,-275 29,-256 0,-256"/>
<text text-anchor="middle" x="14.5" y="-263" font-family="Helvetica,sans-Serif" font-size="10.00">T</text>
</a>
</g>
</g>
<!-- Node13&#45;&gt;Node11 -->
<g id="edge12" class="edge">
<title>Node13&#45;&gt;Node11</title>
<path fill="none" stroke="#9a32cd" stroke-dasharray="5,2" d="M39.09,-270.12C59.39,-274.1 89.35,-279.97 114.78,-284.95"/>
<polygon fill="#9a32cd" stroke="#9a32cd" points="39.64,-266.66 29.16,-268.18 38.3,-273.53 39.64,-266.66"/>
<text text-anchor="middle" x="71.5" y="-283.5" font-family="Helvetica,sans-Serif" font-size="10.00"> elements</text>
</g>
<!-- Node15 -->
<g id="node15" class="node">
<title>Node15</title>
<g id="a_node15"><a xlink:title="STL class.">
<polygon fill="white" stroke="#bfbfbf" points="114.5,-241 114.5,-260 214.5,-260 214.5,-241 114.5,-241"/>
<text text-anchor="middle" x="164.5" y="-248" font-family="Helvetica,sans-Serif" font-size="10.00">std::atomic&lt; T &gt;</text>
</a>
</g>
</g>
<!-- Node13&#45;&gt;Node15 -->
<g id="edge15" class="edge">
<title>Node13&#45;&gt;Node15</title>
<path fill="none" stroke="#9a32cd" stroke-dasharray="5,2" d="M38.4,-254.04C41.24,-253.01 44.15,-252.12 47,-251.5 68.74,-246.79 93.31,-245.94 114.26,-246.51"/>
<polygon fill="#9a32cd" stroke="#9a32cd" points="37.03,-250.82 29.19,-257.95 39.77,-257.27 37.03,-250.82"/>
<text text-anchor="middle" x="71.5" y="-254.5" font-family="Helvetica,sans-Serif" font-size="10.00"> ptr</text>
</g>
<!-- Node14 -->
<g id="node14" class="node">
<title>Node14</title>
<g id="a_node14"><a xlink:href="classitk_1_1TimeStamp.html" target="_top" xlink:title="Generate a unique, increasing time value.">
<polygon fill="white" stroke="black" points="535.5,-245 535.5,-264 627.5,-264 627.5,-245 535.5,-245"/>
<text text-anchor="middle" x="581.5" y="-252" font-family="Helvetica,sans-Serif" font-size="10.00">itk::TimeStamp</text>
</a>
</g>
</g>
<!-- Node14&#45;&gt;Node4 -->
<g id="edge13" class="edge">
<title>Node14&#45;&gt;Node4</title>
<path fill="none" stroke="#9a32cd" stroke-dasharray="5,2" d="M637.93,-256.84C685.76,-259.26 756.62,-263.79 818,-271.5 885.95,-280.04 964.65,-295.52 1007.87,-304.51"/>
<polygon fill="#9a32cd" stroke="#9a32cd" points="637.95,-253.34 627.79,-256.34 637.6,-260.33 637.95,-253.34"/>
<text text-anchor="middle" x="733" y="-274.5" font-family="Helvetica,sans-Serif" font-size="10.00"> m_MTime</text>
</g>
<!-- Node15&#45;&gt;Node14 -->
<g id="edge14" class="edge">
<title>Node15&#45;&gt;Node14</title>
<path fill="none" stroke="#9a32cd" stroke-dasharray="5,2" d="M224.87,-251.07C308.76,-251.88 460.15,-253.34 535.44,-254.07"/>
<polygon fill="#9a32cd" stroke="#9a32cd" points="224.77,-247.57 214.74,-250.97 224.7,-254.57 224.77,-247.57"/>
<text text-anchor="middle" x="286" y="-254.5" font-family="Helvetica,sans-Serif" font-size="10.00"> m_GlobalTimeStamp</text>
</g>
<!-- Node16 -->
<g id="node16" class="node">
<title>Node16</title>
<g id="a_node16"><a xlink:href="classitk_1_1SmartPointer.html" target="_top" xlink:title=" ">
<polygon fill="white" stroke="black" points="988,-140.5 988,-170.5 1095,-170.5 1095,-140.5 988,-140.5"/>
<text text-anchor="start" x="996" y="-158.5" font-family="Helvetica,sans-Serif" font-size="10.00">itk::SmartPointer&lt;</text>
<text text-anchor="middle" x="1041.5" y="-147.5" font-family="Helvetica,sans-Serif" font-size="10.00"> Self &gt;</text>
</a>
</g>
</g>
<!-- Node16&#45;&gt;Node2 -->
<g id="edge30" class="edge">
<title>Node16&#45;&gt;Node2</title>
<path fill="none" stroke="#9a32cd" stroke-dasharray="5,2" d="M1105.38,-153.83C1199.78,-151.3 1383.71,-146.28 1540,-141.5 1545.85,-141.32 1551.9,-141.13 1557.99,-140.94"/>
<polygon fill="#9a32cd" stroke="#9a32cd" points="1105.05,-150.34 1095.15,-154.1 1105.24,-157.33 1105.05,-150.34"/>
<text text-anchor="middle" x="1323.5" y="-152.5" font-family="Helvetica,sans-Serif" font-size="10.00"> m_Command</text>
</g>
<!-- Node16&#45;&gt;Node3 -->
<g id="edge16" class="edge">
<title>Node16&#45;&gt;Node3</title>
<path fill="none" stroke="#9a32cd" stroke-dasharray="5,2" d="M1105.19,-170.41C1140.9,-178.92 1186.46,-189.78 1227,-199.5 1237.7,-202.06 1249.07,-204.8 1260.09,-207.45"/>
<polygon fill="#9a32cd" stroke="#9a32cd" points="1105.93,-166.99 1095.39,-168.08 1104.31,-173.8 1105.93,-166.99"/>
<text text-anchor="middle" x="1178.5" y="-202.5" font-family="Helvetica,sans-Serif" font-size="10.00"> m_ScalesEstimator</text>
</g>
<!-- Node23 -->
<g id="node23" class="node">
<title>Node23</title>
<g id="a_node23"><a xlink:href="classitk_1_1SingleValuedVnlCostFunctionAdaptorv4.html" target="_top" xlink:title="This class is an Adaptor that allows to pass itk::ObjectToObjectMetricBase objects to vnl_optimizers ...">
<polygon fill="white" stroke="black" points="1255.5,-88.5 1255.5,-118.5 1391.5,-118.5 1391.5,-88.5 1255.5,-88.5"/>
<text text-anchor="start" x="1263.5" y="-106.5" font-family="Helvetica,sans-Serif" font-size="10.00">itk::SingleValuedVnlCost</text>
<text text-anchor="middle" x="1323.5" y="-95.5" font-family="Helvetica,sans-Serif" font-size="10.00">FunctionAdaptorv4</text>
</a>
</g>
</g>
<!-- Node16&#45;&gt;Node23 -->
<g id="edge29" class="edge">
<title>Node16&#45;&gt;Node23</title>
<path fill="none" stroke="#9a32cd" stroke-dasharray="5,2" d="M1100.46,-137.72C1110.26,-135.06 1120.38,-132.54 1130,-130.5 1171.27,-121.75 1218.13,-115.11 1255.29,-110.6"/>
<polygon fill="#9a32cd" stroke="#9a32cd" points="1099.49,-134.36 1090.8,-140.4 1101.37,-141.1 1099.49,-134.36"/>
<text text-anchor="middle" x="1178.5" y="-133.5" font-family="Helvetica,sans-Serif" font-size="10.00"> m_Reporter</text>
</g>
<!-- Node17 -->
<g id="node17" class="node">
<title>Node17</title>
<g id="a_node17"><a xlink:href="classitk_1_1SmartPointer.html" target="_top" xlink:title="Implements transparent reference counting.">
<polygon fill="white" stroke="black" points="988,-252.5 988,-282.5 1095,-282.5 1095,-252.5 988,-252.5"/>
<text text-anchor="start" x="996" y="-270.5" font-family="Helvetica,sans-Serif" font-size="10.00">itk::SmartPointer&lt;</text>
<text text-anchor="middle" x="1041.5" y="-259.5" font-family="Helvetica,sans-Serif" font-size="10.00"> TObjectType &gt;</text>
</a>
</g>
</g>
<!-- Node17&#45;&gt;Node3 -->
<g id="edge17" class="edge">
<title>Node17&#45;&gt;Node3</title>
<path fill="none" stroke="#9a32cd" stroke-dasharray="5,2" d="M1105.49,-261.26C1141.26,-257.32 1186.79,-251.62 1227,-244.5 1238.22,-242.51 1250.12,-240.06 1261.55,-237.52"/>
<polygon fill="#9a32cd" stroke="#9a32cd" points="1104.77,-257.82 1095.2,-262.38 1105.52,-264.78 1104.77,-257.82"/>
<text text-anchor="middle" x="1178.5" y="-260.5" font-family="Helvetica,sans-Serif" font-size="10.00"> m_Metric</text>
</g>
<!-- Node18 -->
<g id="node18" class="node">
<title>Node18</title>
<g id="a_node18"><a xlink:href="classitk_1_1OptimizerParameters.html" target="_top" xlink:title=" ">
<polygon fill="white" stroke="black" points="972,-196.5 972,-226.5 1111,-226.5 1111,-196.5 972,-196.5"/>
<text text-anchor="start" x="980" y="-214.5" font-family="Helvetica,sans-Serif" font-size="10.00">itk::OptimizerParameters</text>
<text text-anchor="middle" x="1041.5" y="-203.5" font-family="Helvetica,sans-Serif" font-size="10.00">&lt; double &gt;</text>
</a>
</g>
</g>
<!-- Node18&#45;&gt;Node3 -->
<g id="edge18" class="edge">
<title>Node18&#45;&gt;Node3</title>
<path fill="none" stroke="#9a32cd" stroke-dasharray="5,2" d="M1121.5,-214.6C1160.09,-216.12 1206.35,-217.94 1244.77,-219.45"/>
<polygon fill="#9a32cd" stroke="#9a32cd" points="1121.48,-211.1 1111.35,-214.2 1121.21,-218.09 1121.48,-211.1"/>
<text text-anchor="middle" x="1178.5" y="-232.5" font-family="Helvetica,sans-Serif" font-size="10.00"> m_Scales</text>
<text text-anchor="middle" x="1178.5" y="-221.5" font-family="Helvetica,sans-Serif" font-size="10.00">m_Weights</text>
</g>
<!-- Node19 -->
<g id="node19" class="node">
<title>Node19</title>
<g id="a_node19"><a xlink:href="classitk_1_1Array.html" target="_top" xlink:title=" ">
<polygon fill="white" stroke="black" points="674.5,-202 674.5,-221 791.5,-221 791.5,-202 674.5,-202"/>
<text text-anchor="middle" x="733" y="-209" font-family="Helvetica,sans-Serif" font-size="10.00">itk::Array&lt; double &gt;</text>
</a>
</g>
</g>
<!-- Node19&#45;&gt;Node18 -->
<g id="edge19" class="edge">
<title>Node19&#45;&gt;Node18</title>
<path fill="none" stroke="midnightblue" d="M801.82,-211.5C852.37,-211.5 921.12,-211.5 971.86,-211.5"/>
<polygon fill="midnightblue" stroke="midnightblue" points="801.65,-208 791.65,-211.5 801.65,-215 801.65,-208"/>
</g>
<!-- Node20 -->
<g id="node20" class="node">
<title>Node20</title>
<g id="a_node20"><a xlink:title=" ">
<polygon fill="white" stroke="#bfbfbf" points="374.5,-202 374.5,-221 497.5,-221 497.5,-202 374.5,-202"/>
<text text-anchor="middle" x="436" y="-209" font-family="Helvetica,sans-Serif" font-size="10.00">vnl_vector&lt; double &gt;</text>
</a>
</g>
</g>
<!-- Node20&#45;&gt;Node19 -->
<g id="edge20" class="edge">
<title>Node20&#45;&gt;Node19</title>
<path fill="none" stroke="midnightblue" d="M508.04,-211.5C558.98,-211.5 626.72,-211.5 674.32,-211.5"/>
<polygon fill="midnightblue" stroke="midnightblue" points="507.77,-208 497.77,-211.5 507.77,-215 507.77,-208"/>
</g>
<!-- Node21 -->
<g id="node21" class="node">
<title>Node21</title>
<g id="a_node21"><a xlink:title=" ">
<polygon fill="white" stroke="#bfbfbf" points="648,-111.5 648,-141.5 818,-141.5 818,-111.5 648,-111.5"/>
<text text-anchor="start" x="656" y="-129.5" font-family="Helvetica,sans-Serif" font-size="10.00">std::unique_ptr&lt; itk</text>
<text text-anchor="middle" x="733" y="-118.5" font-family="Helvetica,sans-Serif" font-size="10.00">::OptimizerParametersHelper &gt;</text>
</a>
</g>
</g>
<!-- Node21&#45;&gt;Node18 -->
<g id="edge21" class="edge">
<title>Node21&#45;&gt;Node18</title>
<path fill="none" stroke="#9a32cd" stroke-dasharray="5,2" d="M797.85,-144.21C853.55,-159.66 933.49,-181.82 986.18,-196.44"/>
<polygon fill="#9a32cd" stroke="#9a32cd" points="798.66,-140.8 788.09,-141.5 796.79,-147.55 798.66,-140.8"/>
<text text-anchor="middle" x="894.5" y="-188.5" font-family="Helvetica,sans-Serif" font-size="10.00"> m_Helper</text>
</g>
<!-- Node25 -->
<g id="node25" class="node">
<title>Node25</title>
<g id="a_node25"><a xlink:href="classitk_1_1OptimizerParameters.html" target="_top" xlink:title=" ">
<polygon fill="white" stroke="black" points="971,-51.5 971,-81.5 1112,-81.5 1112,-51.5 971,-51.5"/>
<text text-anchor="start" x="979" y="-69.5" font-family="Helvetica,sans-Serif" font-size="10.00">itk::OptimizerParameters</text>
<text text-anchor="middle" x="1041.5" y="-58.5" font-family="Helvetica,sans-Serif" font-size="10.00">&lt; InternalMeasureType &gt;</text>
</a>
</g>
</g>
<!-- Node21&#45;&gt;Node25 -->
<g id="edge28" class="edge">
<title>Node21&#45;&gt;Node25</title>
<path fill="none" stroke="#9a32cd" stroke-dasharray="5,2" d="M820.91,-109.49C868.39,-100.19 926.39,-88.84 970.86,-80.13"/>
<polygon fill="#9a32cd" stroke="#9a32cd" points="820.09,-106.08 810.95,-111.44 821.43,-112.95 820.09,-106.08"/>
<text text-anchor="middle" x="894.5" y="-107.5" font-family="Helvetica,sans-Serif" font-size="10.00"> m_Helper</text>
</g>
<!-- Node22 -->
<g id="node22" class="node">
<title>Node22</title>
<g id="a_node22"><a xlink:href="classitk_1_1OptimizerParametersHelper.html" target="_top" xlink:title="Basic helper class to manage parameter data as an Array type, the default type.">
<polygon fill="white" stroke="black" points="366.5,-111.5 366.5,-141.5 505.5,-141.5 505.5,-111.5 366.5,-111.5"/>
<text text-anchor="start" x="374.5" y="-129.5" font-family="Helvetica,sans-Serif" font-size="10.00">itk::OptimizerParameters</text>
<text text-anchor="middle" x="436" y="-118.5" font-family="Helvetica,sans-Serif" font-size="10.00">Helper&lt; TValue &gt;</text>
</a>
</g>
</g>
<!-- Node22&#45;&gt;Node21 -->
<g id="edge22" class="edge">
<title>Node22&#45;&gt;Node21</title>
<path fill="none" stroke="#9a32cd" stroke-dasharray="5,2" d="M515.94,-126.5C556.67,-126.5 606.36,-126.5 647.82,-126.5"/>
<polygon fill="#9a32cd" stroke="#9a32cd" points="515.79,-123 505.79,-126.5 515.79,-130 515.79,-123"/>
<text text-anchor="middle" x="581.5" y="-129.5" font-family="Helvetica,sans-Serif" font-size="10.00"> ptr</text>
</g>
<!-- Node23&#45;&gt;Node2 -->
<g id="edge23" class="edge">
<title>Node23&#45;&gt;Node2</title>
<path fill="none" stroke="#9a32cd" stroke-dasharray="5,2" d="M1401.76,-112.32C1449.6,-117.79 1510.66,-124.76 1557.73,-130.13"/>
<polygon fill="#9a32cd" stroke="#9a32cd" points="1402.1,-108.84 1391.76,-111.18 1401.3,-115.79 1402.1,-108.84"/>
<text text-anchor="middle" x="1480" y="-129.5" font-family="Helvetica,sans-Serif" font-size="10.00"> m_CostFunctionAdaptor</text>
</g>
<!-- Node24 -->
<g id="node24" class="node">
<title>Node24</title>
<g id="a_node24"><a xlink:title=" ">
<polygon fill="white" stroke="#bfbfbf" points="990.5,-101 990.5,-120 1092.5,-120 1092.5,-101 990.5,-101"/>
<text text-anchor="middle" x="1041.5" y="-108" font-family="Helvetica,sans-Serif" font-size="10.00">vnl_cost_function</text>
</a>
</g>
</g>
<!-- Node24&#45;&gt;Node23 -->
<g id="edge24" class="edge">
<title>Node24&#45;&gt;Node23</title>
<path fill="none" stroke="midnightblue" d="M1102.72,-108.99C1147.57,-107.87 1208.8,-106.34 1255.25,-105.18"/>
<polygon fill="midnightblue" stroke="midnightblue" points="1102.47,-105.5 1092.56,-109.25 1102.64,-112.5 1102.47,-105.5"/>
</g>
<!-- Node25&#45;&gt;Node23 -->
<g id="edge25" class="edge">
<title>Node25&#45;&gt;Node23</title>
<path fill="none" stroke="#9a32cd" stroke-dasharray="5,2" d="M1122.5,-76.8C1154.94,-81.01 1192.76,-85.94 1227,-90.5 1236.21,-91.73 1245.91,-93.03 1255.46,-94.32"/>
<polygon fill="#9a32cd" stroke="#9a32cd" points="1122.53,-73.28 1112.16,-75.46 1121.63,-80.22 1122.53,-73.28"/>
<text text-anchor="middle" x="1178.5" y="-93.5" font-family="Helvetica,sans-Serif" font-size="10.00"> m_Scales</text>
</g>
<!-- Node26 -->
<g id="node26" class="node">
<title>Node26</title>
<g id="a_node26"><a xlink:href="classitk_1_1Array.html" target="_top" xlink:title=" ">
<polygon fill="white" stroke="black" points="657,-51.5 657,-81.5 809,-81.5 809,-51.5 657,-51.5"/>
<text text-anchor="start" x="665" y="-69.5" font-family="Helvetica,sans-Serif" font-size="10.00">itk::Array&lt; InternalMeasure</text>
<text text-anchor="middle" x="733" y="-58.5" font-family="Helvetica,sans-Serif" font-size="10.00">Type &gt;</text>
</a>
</g>
</g>
<!-- Node26&#45;&gt;Node25 -->
<g id="edge26" class="edge">
<title>Node26&#45;&gt;Node25</title>
<path fill="none" stroke="midnightblue" d="M819.39,-66.5C867.17,-66.5 925.98,-66.5 970.93,-66.5"/>
<polygon fill="midnightblue" stroke="midnightblue" points="819.37,-63 809.37,-66.5 819.37,-70 819.37,-63"/>
</g>
<!-- Node27 -->
<g id="node27" class="node">
<title>Node27</title>
<g id="a_node27"><a xlink:title=" ">
<polygon fill="white" stroke="#bfbfbf" points="357,-51.5 357,-81.5 515,-81.5 515,-51.5 357,-51.5"/>
<text text-anchor="start" x="365" y="-69.5" font-family="Helvetica,sans-Serif" font-size="10.00">vnl_vector&lt; InternalMeasure</text>
<text text-anchor="middle" x="436" y="-58.5" font-family="Helvetica,sans-Serif" font-size="10.00">Type &gt;</text>
</a>
</g>
</g>
<!-- Node27&#45;&gt;Node26 -->
<g id="edge27" class="edge">
<title>Node27&#45;&gt;Node26</title>
<path fill="none" stroke="midnightblue" d="M525.48,-66.5C567.38,-66.5 616.88,-66.5 656.92,-66.5"/>
<polygon fill="midnightblue" stroke="midnightblue" points="525.28,-63 515.28,-66.5 525.28,-70 525.28,-63"/>
</g>
<!-- Node28 -->
<g id="node28" class="node">
<title>Node28</title>
<g id="a_node28"><a xlink:title=" ">
<polygon fill="white" stroke="#bfbfbf" points="1563,-44.5 1563,-74.5 1701,-74.5 1701,-44.5 1563,-44.5"/>
<text text-anchor="start" x="1571" y="-62.5" font-family="Helvetica,sans-Serif" font-size="10.00">std::unique_ptr&lt; Internal</text>
<text text-anchor="middle" x="1632" y="-51.5" font-family="Helvetica,sans-Serif" font-size="10.00">OptimizerType &gt;</text>
</a>
</g>
</g>
<!-- Node28&#45;&gt;Node1 -->
<g id="edge31" class="edge">
<title>Node28&#45;&gt;Node1</title>
<path fill="none" stroke="#9a32cd" stroke-dasharray="5,2" d="M1711.23,-59.5C1763.03,-59.5 1830.9,-59.5 1883.79,-59.5"/>
<polygon fill="#9a32cd" stroke="#9a32cd" points="1711.09,-56 1701.09,-59.5 1711.09,-63 1711.09,-56"/>
<text text-anchor="middle" x="1795" y="-62.5" font-family="Helvetica,sans-Serif" font-size="10.00"> m_VnlOptimizer</text>
</g>
<!-- Node29 -->
<g id="node29" class="node">
<title>Node29</title>
<g id="a_node29"><a xlink:href="classLBFGSBOptimizerHelperv4.html" target="_top" xlink:title="Wrapper helper around vnl_lbfgsb.">
<polygon fill="white" stroke="black" points="1250,-50 1250,-69 1397,-69 1397,-50 1250,-50"/>
<text text-anchor="middle" x="1323.5" y="-57" font-family="Helvetica,sans-Serif" font-size="10.00">LBFGSBOptimizerHelperv4</text>
</a>
</g>
</g>
<!-- Node29&#45;&gt;Node28 -->
<g id="edge32" class="edge">
<title>Node29&#45;&gt;Node28</title>
<path fill="none" stroke="#9a32cd" stroke-dasharray="5,2" d="M1407.34,-59.5C1456.05,-59.5 1516.9,-59.5 1562.82,-59.5"/>
<polygon fill="#9a32cd" stroke="#9a32cd" points="1407.14,-56 1397.14,-59.5 1407.14,-63 1407.14,-56"/>
<text text-anchor="middle" x="1480" y="-62.5" font-family="Helvetica,sans-Serif" font-size="10.00"> ptr</text>
</g>
<!-- Node30 -->
<g id="node30" class="node">
<title>Node30</title>
<g id="a_node30"><a xlink:title="STL class.">
<polygon fill="white" stroke="#bfbfbf" points="1579,-6 1579,-25 1685,-25 1685,-6 1579,-6"/>
<text text-anchor="middle" x="1632" y="-13" font-family="Helvetica,sans-Serif" font-size="10.00">std::ostringstream</text>
</a>
</g>
</g>
<!-- Node30&#45;&gt;Node1 -->
<g id="edge33" class="edge">
<title>Node30&#45;&gt;Node1</title>
<path fill="none" stroke="#9a32cd" stroke-dasharray="5,2" d="M1695.35,-22.87C1742.3,-28.51 1808.24,-36.64 1866,-44.5 1871.82,-45.29 1877.83,-46.13 1883.88,-46.99"/>
<polygon fill="#9a32cd" stroke="#9a32cd" points="1695.67,-19.38 1685.33,-21.67 1694.84,-26.33 1695.67,-19.38"/>
<text text-anchor="middle" x="1795" y="-47.5" font-family="Helvetica,sans-Serif" font-size="10.00"> m_StopConditionDescription</text>
</g>
<!-- Node31 -->
<g id="node31" class="node">
<title>Node31</title>
<g id="a_node31"><a xlink:title="STL class.">
<polygon fill="white" stroke="#bfbfbf" points="1255,-0.5 1255,-30.5 1392,-30.5 1392,-0.5 1255,-0.5"/>
<text text-anchor="start" x="1263" y="-18.5" font-family="Helvetica,sans-Serif" font-size="10.00">std::basic_ostringstream</text>
<text text-anchor="middle" x="1323.5" y="-7.5" font-family="Helvetica,sans-Serif" font-size="10.00">&lt; char &gt;</text>
</a>
</g>
</g>
<!-- Node31&#45;&gt;Node30 -->
<g id="edge34" class="edge">
<title>Node31&#45;&gt;Node30</title>
<path fill="none" stroke="midnightblue" d="M1402.25,-15.5C1457.53,-15.5 1530.28,-15.5 1578.74,-15.5"/>
<polygon fill="midnightblue" stroke="midnightblue" points="1402.14,-12 1392.14,-15.5 1402.14,-19 1402.14,-12"/>
</g>
<!-- Node32 -->
<g id="node32" class="node">
<title>Node32</title>
<g id="a_node32"><a xlink:title="STL class.">
<polygon fill="white" stroke="#bfbfbf" points="987,-0.5 987,-30.5 1096,-30.5 1096,-0.5 987,-0.5"/>
<text text-anchor="start" x="995" y="-18.5" font-family="Helvetica,sans-Serif" font-size="10.00">std::basic_ostream</text>
<text text-anchor="middle" x="1041.5" y="-7.5" font-family="Helvetica,sans-Serif" font-size="10.00">&lt; Char &gt;</text>
</a>
</g>
</g>
<!-- Node32&#45;&gt;Node31 -->
<g id="edge35" class="edge">
<title>Node32&#45;&gt;Node31</title>
<path fill="none" stroke="midnightblue" d="M1106.24,-15.5C1150.62,-15.5 1209.71,-15.5 1254.91,-15.5"/>
<polygon fill="midnightblue" stroke="midnightblue" points="1106.16,-12 1096.16,-15.5 1106.16,-19 1106.16,-12"/>
</g>
<!-- Node33 -->
<g id="node33" class="node">
<title>Node33</title>
<g id="a_node33"><a xlink:title="STL class.">
<polygon fill="white" stroke="#bfbfbf" points="669,-6 669,-25 797,-25 797,-6 669,-6"/>
<text text-anchor="middle" x="733" y="-13" font-family="Helvetica,sans-Serif" font-size="10.00">std::basic_ios&lt; Char &gt;</text>
</a>
</g>
</g>
<!-- Node33&#45;&gt;Node32 -->
<g id="edge36" class="edge">
<title>Node33&#45;&gt;Node32</title>
<path fill="none" stroke="midnightblue" d="M807.21,-15.5C862.4,-15.5 936.85,-15.5 986.66,-15.5"/>
<polygon fill="midnightblue" stroke="midnightblue" points="807.14,-12 797.14,-15.5 807.14,-19 807.14,-12"/>
</g>
<!-- Node34 -->
<g id="node34" class="node">
<title>Node34</title>
<g id="a_node34"><a xlink:title="STL class.">
<polygon fill="white" stroke="#bfbfbf" points="396,-6 396,-25 476,-25 476,-6 396,-6"/>
<text text-anchor="middle" x="436" y="-13" font-family="Helvetica,sans-Serif" font-size="10.00">std::ios_base</text>
</a>
</g>
</g>
<!-- Node34&#45;&gt;Node33 -->
<g id="edge37" class="edge">
<title>Node34&#45;&gt;Node33</title>
<path fill="none" stroke="midnightblue" d="M486.43,-15.5C536.57,-15.5 614.34,-15.5 668.89,-15.5"/>
<polygon fill="midnightblue" stroke="midnightblue" points="486.17,-12 476.17,-15.5 486.17,-19 486.17,-12"/>
</g>
</g>
</svg>
