<?xml version="1.0" encoding="UTF-8" standalone="no"?>
<!DOCTYPE svg PUBLIC "-//W3C//DTD SVG 1.1//EN"
 "http://www.w3.org/Graphics/SVG/1.1/DTD/svg11.dtd">
<!-- Generated by graphviz version 2.43.0 (0)
 -->
<!-- Title: itk::OtsuThresholdCalculator&lt; THistogram, TOutput &gt; Pages: 1 -->
<svg width="2039pt" height="469pt"
 viewBox="0.00 0.00 2039.00 468.50" xmlns="http://www.w3.org/2000/svg" xmlns:xlink="http://www.w3.org/1999/xlink">
<g id="graph0" class="graph" transform="scale(1 1) rotate(0) translate(4 464.5)">
<title>itk::OtsuThresholdCalculator&lt; THistogram, TOutput &gt;</title>
<polygon fill="white" stroke="transparent" points="-4,4 -4,-464.5 2035,-464.5 2035,4 -4,4"/>
<!-- Node1 -->
<g id="node1" class="node">
<title>Node1</title>
<g id="a_node1"><a xlink:title="Computes the Otsu&#39;s threshold for an image.">
<polygon fill="#bfbfbf" stroke="black" points="1876,-159.5 1876,-189.5 2031,-189.5 2031,-159.5 1876,-159.5"/>
<text text-anchor="start" x="1884" y="-177.5" font-family="Helvetica,sans-Serif" font-size="10.00">itk::OtsuThresholdCalculator</text>
<text text-anchor="middle" x="1953.5" y="-166.5" font-family="Helvetica,sans-Serif" font-size="10.00">&lt; THistogram, TOutput &gt;</text>
</a>
</g>
</g>
<!-- Node2 -->
<g id="node2" class="node">
<title>Node2</title>
<g id="a_node2"><a xlink:href="classitk_1_1HistogramThresholdCalculator.html" target="_top" xlink:title=" ">
<polygon fill="white" stroke="black" points="1522,-197.5 1522,-227.5 1706,-227.5 1706,-197.5 1522,-197.5"/>
<text text-anchor="start" x="1530" y="-215.5" font-family="Helvetica,sans-Serif" font-size="10.00">itk::HistogramThresholdCalculator</text>
<text text-anchor="middle" x="1614" y="-204.5" font-family="Helvetica,sans-Serif" font-size="10.00">&lt; THistogram, double &gt;</text>
</a>
</g>
</g>
<!-- Node2&#45;&gt;Node1 -->
<g id="edge1" class="edge">
<title>Node2&#45;&gt;Node1</title>
<path fill="none" stroke="midnightblue" d="M1716.43,-201.08C1767.64,-195.31 1828.74,-188.43 1875.94,-183.12"/>
<polygon fill="midnightblue" stroke="midnightblue" points="1715.88,-197.62 1706.33,-202.22 1716.66,-204.58 1715.88,-197.62"/>
</g>
<!-- Node3 -->
<g id="node3" class="node">
<title>Node3</title>
<g id="a_node3"><a xlink:href="classitk_1_1ProcessObject.html" target="_top" xlink:title="The base class for all process objects (source, filters, mappers) in the Insight data processing pipe...">
<polygon fill="white" stroke="black" points="1303,-244 1303,-263 1407,-263 1407,-244 1303,-244"/>
<text text-anchor="middle" x="1355" y="-251" font-family="Helvetica,sans-Serif" font-size="10.00">itk::ProcessObject</text>
</a>
</g>
</g>
<!-- Node3&#45;&gt;Node2 -->
<g id="edge2" class="edge">
<title>Node3&#45;&gt;Node2</title>
<path fill="none" stroke="midnightblue" d="M1416.98,-243.77C1448.32,-238.77 1487.15,-232.58 1521.96,-227.02"/>
<polygon fill="midnightblue" stroke="midnightblue" points="1416.41,-240.32 1407.08,-245.35 1417.51,-247.23 1416.41,-240.32"/>
</g>
<!-- Node4 -->
<g id="node4" class="node">
<title>Node4</title>
<g id="a_node4"><a xlink:href="classitk_1_1Object.html" target="_top" xlink:title="Base class for most ITK classes.">
<polygon fill="white" stroke="black" points="980,-146 980,-165 1047,-165 1047,-146 980,-146"/>
<text text-anchor="middle" x="1013.5" y="-153" font-family="Helvetica,sans-Serif" font-size="10.00">itk::Object</text>
</a>
</g>
</g>
<!-- Node4&#45;&gt;Node3 -->
<g id="edge3" class="edge">
<title>Node4&#45;&gt;Node3</title>
<path fill="none" stroke="midnightblue" d="M1057.16,-160.49C1106.52,-167.08 1189.76,-180.72 1258,-204.5 1287.86,-214.9 1320.13,-232.93 1338.62,-243.97"/>
<polygon fill="midnightblue" stroke="midnightblue" points="1057.52,-157.01 1047.16,-159.19 1056.62,-163.95 1057.52,-157.01"/>
</g>
<!-- Node26 -->
<g id="node26" class="node">
<title>Node26</title>
<g id="a_node26"><a xlink:href="classitk_1_1HistogramAlgorithmBase.html" target="_top" xlink:title=" ">
<polygon fill="white" stroke="black" points="1276,-135.5 1276,-165.5 1434,-165.5 1434,-135.5 1276,-135.5"/>
<text text-anchor="start" x="1284" y="-153.5" font-family="Helvetica,sans-Serif" font-size="10.00">itk::HistogramAlgorithmBase</text>
<text text-anchor="middle" x="1355" y="-142.5" font-family="Helvetica,sans-Serif" font-size="10.00">&lt; THistogram &gt;</text>
</a>
</g>
</g>
<!-- Node4&#45;&gt;Node26 -->
<g id="edge31" class="edge">
<title>Node4&#45;&gt;Node26</title>
<path fill="none" stroke="midnightblue" d="M1057.1,-154.87C1111.83,-154.07 1207.85,-152.65 1275.86,-151.65"/>
<polygon fill="midnightblue" stroke="midnightblue" points="1057,-151.37 1047.05,-155.02 1057.1,-158.37 1057,-151.37"/>
</g>
<!-- Node5 -->
<g id="node5" class="node">
<title>Node5</title>
<g id="a_node5"><a xlink:href="classitk_1_1LightObject.html" target="_top" xlink:title="Light weight base class for most itk classes.">
<polygon fill="white" stroke="black" points="659,-160 659,-179 750,-179 750,-160 659,-160"/>
<text text-anchor="middle" x="704.5" y="-167" font-family="Helvetica,sans-Serif" font-size="10.00">itk::LightObject</text>
</a>
</g>
</g>
<!-- Node5&#45;&gt;Node4 -->
<g id="edge4" class="edge">
<title>Node5&#45;&gt;Node4</title>
<path fill="none" stroke="midnightblue" d="M760.4,-167C824.13,-164.09 927.17,-159.39 979.59,-157"/>
<polygon fill="midnightblue" stroke="midnightblue" points="759.97,-163.51 750.14,-167.46 760.29,-170.51 759.97,-163.51"/>
</g>
<!-- Node6 -->
<g id="node6" class="node">
<title>Node6</title>
<g id="a_node6"><a xlink:title=" ">
<polygon fill="white" stroke="#bfbfbf" points="372,-161 372,-180 479,-180 479,-161 372,-161"/>
<text text-anchor="middle" x="425.5" y="-168" font-family="Helvetica,sans-Serif" font-size="10.00">std::atomic&lt; int &gt;</text>
</a>
</g>
</g>
<!-- Node6&#45;&gt;Node5 -->
<g id="edge5" class="edge">
<title>Node6&#45;&gt;Node5</title>
<path fill="none" stroke="#9a32cd" stroke-dasharray="5,2" d="M489.29,-170.27C540.91,-170.09 612.77,-169.83 658.72,-169.66"/>
<polygon fill="#9a32cd" stroke="#9a32cd" points="489.24,-166.77 479.25,-170.31 489.27,-173.77 489.24,-166.77"/>
<text text-anchor="middle" x="566.5" y="-173.5" font-family="Helvetica,sans-Serif" font-size="10.00"> m_ReferenceCount</text>
</g>
<!-- Node7 -->
<g id="node7" class="node">
<title>Node7</title>
<g id="a_node7"><a xlink:title="STL class.">
<polygon fill="white" stroke="#bfbfbf" points="672,-235 672,-254 737,-254 737,-235 672,-235"/>
<text text-anchor="middle" x="704.5" y="-242" font-family="Helvetica,sans-Serif" font-size="10.00">std::string</text>
</a>
</g>
</g>
<!-- Node7&#45;&gt;Node4 -->
<g id="edge6" class="edge">
<title>Node7&#45;&gt;Node4</title>
<path fill="none" stroke="#9a32cd" stroke-dasharray="5,2" d="M730.48,-229.9C747.81,-220.32 771.69,-208.2 794,-200.5 827.96,-188.78 927.43,-170.42 979.64,-161.19"/>
<polygon fill="#9a32cd" stroke="#9a32cd" points="728.58,-226.95 721.59,-234.91 732.02,-233.05 728.58,-226.95"/>
<text text-anchor="middle" x="852.5" y="-203.5" font-family="Helvetica,sans-Serif" font-size="10.00"> m_ObjectName</text>
</g>
<!-- Node16 -->
<g id="node16" class="node">
<title>Node16</title>
<g id="a_node16"><a xlink:title=" ">
<polygon fill="white" stroke="#bfbfbf" points="932.5,-236.5 932.5,-266.5 1094.5,-266.5 1094.5,-236.5 932.5,-236.5"/>
<text text-anchor="start" x="940.5" y="-254.5" font-family="Helvetica,sans-Serif" font-size="10.00">std::set&lt; DataObjectIdentifier</text>
<text text-anchor="middle" x="1013.5" y="-243.5" font-family="Helvetica,sans-Serif" font-size="10.00">Type &gt;</text>
</a>
</g>
</g>
<!-- Node7&#45;&gt;Node16 -->
<g id="edge17" class="edge">
<title>Node7&#45;&gt;Node16</title>
<path fill="none" stroke="#9a32cd" stroke-dasharray="5,2" d="M747.4,-245.46C794.8,-246.54 873.1,-248.32 932.35,-249.67"/>
<polygon fill="#9a32cd" stroke="#9a32cd" points="747.28,-241.95 737.2,-245.22 747.12,-248.95 747.28,-241.95"/>
<text text-anchor="middle" x="852.5" y="-251.5" font-family="Helvetica,sans-Serif" font-size="10.00"> keys</text>
</g>
<!-- Node17 -->
<g id="node17" class="node">
<title>Node17</title>
<g id="a_node17"><a xlink:title=" ">
<polygon fill="white" stroke="#bfbfbf" points="929,-187.5 929,-217.5 1098,-217.5 1098,-187.5 929,-187.5"/>
<text text-anchor="start" x="937" y="-205.5" font-family="Helvetica,sans-Serif" font-size="10.00">std::map&lt; DataObjectIdentifier</text>
<text text-anchor="middle" x="1013.5" y="-194.5" font-family="Helvetica,sans-Serif" font-size="10.00">Type, bool &gt;</text>
</a>
</g>
</g>
<!-- Node7&#45;&gt;Node17 -->
<g id="edge19" class="edge">
<title>Node7&#45;&gt;Node17</title>
<path fill="none" stroke="#9a32cd" stroke-dasharray="5,2" d="M746.93,-238.29C761.77,-236.1 778.63,-233.65 794,-231.5 838.53,-225.27 888.21,-218.65 928.94,-213.31"/>
<polygon fill="#9a32cd" stroke="#9a32cd" points="746.4,-234.83 737.02,-239.76 747.43,-241.76 746.4,-234.83"/>
<text text-anchor="middle" x="852.5" y="-234.5" font-family="Helvetica,sans-Serif" font-size="10.00"> keys</text>
</g>
<!-- Node22 -->
<g id="node22" class="node">
<title>Node22</title>
<g id="a_node22"><a xlink:title=" ">
<polygon fill="white" stroke="#bfbfbf" points="929,-285.5 929,-315.5 1098,-315.5 1098,-285.5 929,-285.5"/>
<text text-anchor="start" x="937" y="-303.5" font-family="Helvetica,sans-Serif" font-size="10.00">std::map&lt; DataObjectIdentifier</text>
<text text-anchor="middle" x="1013.5" y="-292.5" font-family="Helvetica,sans-Serif" font-size="10.00">Type, DataObjectPointer &gt;</text>
</a>
</g>
</g>
<!-- Node7&#45;&gt;Node22 -->
<g id="edge26" class="edge">
<title>Node7&#45;&gt;Node22</title>
<path fill="none" stroke="#9a32cd" stroke-dasharray="5,2" d="M747.24,-253.85C761.98,-257.05 778.7,-260.56 794,-263.5 838.4,-272.02 888.07,-280.51 928.82,-287.21"/>
<polygon fill="#9a32cd" stroke="#9a32cd" points="747.9,-250.42 737.38,-251.7 746.4,-257.25 747.9,-250.42"/>
<text text-anchor="middle" x="852.5" y="-286.5" font-family="Helvetica,sans-Serif" font-size="10.00"> keys</text>
</g>
<!-- Node8 -->
<g id="node8" class="node">
<title>Node8</title>
<g id="a_node8"><a xlink:title="STL class.">
<polygon fill="white" stroke="#bfbfbf" points="373.5,-229.5 373.5,-259.5 477.5,-259.5 477.5,-229.5 373.5,-229.5"/>
<text text-anchor="start" x="381.5" y="-247.5" font-family="Helvetica,sans-Serif" font-size="10.00">std::basic_string&lt;</text>
<text text-anchor="middle" x="425.5" y="-236.5" font-family="Helvetica,sans-Serif" font-size="10.00"> char &gt;</text>
</a>
</g>
</g>
<!-- Node8&#45;&gt;Node7 -->
<g id="edge7" class="edge">
<title>Node8&#45;&gt;Node7</title>
<path fill="none" stroke="midnightblue" d="M487.93,-244.5C544.75,-244.5 626.97,-244.5 671.66,-244.5"/>
<polygon fill="midnightblue" stroke="midnightblue" points="487.63,-241 477.63,-244.5 487.63,-248 487.63,-241"/>
</g>
<!-- Node9 -->
<g id="node9" class="node">
<title>Node9</title>
<g id="a_node9"><a xlink:href="classitk_1_1MetaDataDictionary.html" target="_top" xlink:title="Provides a mechanism for storing a collection of arbitrary data types.">
<polygon fill="white" stroke="black" points="637.5,-121 637.5,-140 771.5,-140 771.5,-121 637.5,-121"/>
<text text-anchor="middle" x="704.5" y="-128" font-family="Helvetica,sans-Serif" font-size="10.00">itk::MetaDataDictionary</text>
</a>
</g>
</g>
<!-- Node9&#45;&gt;Node4 -->
<g id="edge8" class="edge">
<title>Node9&#45;&gt;Node4</title>
<path fill="none" stroke="#9a32cd" stroke-dasharray="5,2" d="M781.86,-135.61C820.57,-138.32 868.3,-141.84 911,-145.5 933.93,-147.47 959.75,-150.01 979.61,-152.05"/>
<polygon fill="#9a32cd" stroke="#9a32cd" points="781.92,-132.11 771.71,-134.9 781.44,-139.09 781.92,-132.11"/>
<text text-anchor="middle" x="852.5" y="-148.5" font-family="Helvetica,sans-Serif" font-size="10.00"> m_MetaDataDictionary</text>
</g>
<!-- Node10 -->
<g id="node10" class="node">
<title>Node10</title>
<g id="a_node10"><a xlink:title=" ">
<polygon fill="white" stroke="#bfbfbf" points="351,-111.5 351,-141.5 500,-141.5 500,-111.5 351,-111.5"/>
<text text-anchor="start" x="359" y="-129.5" font-family="Helvetica,sans-Serif" font-size="10.00">std::shared_ptr&lt; MetaData</text>
<text text-anchor="middle" x="425.5" y="-118.5" font-family="Helvetica,sans-Serif" font-size="10.00">DictionaryMapType &gt;</text>
</a>
</g>
</g>
<!-- Node10&#45;&gt;Node9 -->
<g id="edge9" class="edge">
<title>Node10&#45;&gt;Node9</title>
<path fill="none" stroke="#9a32cd" stroke-dasharray="5,2" d="M510.18,-127.71C550.89,-128.3 599.13,-128.99 637.24,-129.54"/>
<polygon fill="#9a32cd" stroke="#9a32cd" points="510.05,-124.21 500,-127.56 509.95,-131.21 510.05,-124.21"/>
<text text-anchor="middle" x="566.5" y="-132.5" font-family="Helvetica,sans-Serif" font-size="10.00"> m_Dictionary</text>
</g>
<!-- Node11 -->
<g id="node11" class="node">
<title>Node11</title>
<g id="a_node11"><a xlink:title="STL class.">
<polygon fill="white" stroke="#bfbfbf" points="114,-117 114,-136 215,-136 215,-117 114,-117"/>
<text text-anchor="middle" x="164.5" y="-124" font-family="Helvetica,sans-Serif" font-size="10.00">std::map&lt; K, T &gt;</text>
</a>
</g>
</g>
<!-- Node11&#45;&gt;Node10 -->
<g id="edge10" class="edge">
<title>Node11&#45;&gt;Node10</title>
<path fill="none" stroke="#9a32cd" stroke-dasharray="5,2" d="M225.34,-126.5C262.61,-126.5 310.86,-126.5 350.52,-126.5"/>
<polygon fill="#9a32cd" stroke="#9a32cd" points="225.13,-123 215.13,-126.5 225.13,-130 225.13,-123"/>
<text text-anchor="middle" x="283" y="-129.5" font-family="Helvetica,sans-Serif" font-size="10.00"> ptr</text>
</g>
<!-- Node12 -->
<g id="node12" class="node">
<title>Node12</title>
<g id="a_node12"><a xlink:title=" ">
<polygon fill="white" stroke="#bfbfbf" points="0,-129 0,-148 29,-148 29,-129 0,-129"/>
<text text-anchor="middle" x="14.5" y="-136" font-family="Helvetica,sans-Serif" font-size="10.00">K</text>
</a>
</g>
</g>
<!-- Node12&#45;&gt;Node11 -->
<g id="edge11" class="edge">
<title>Node12&#45;&gt;Node11</title>
<path fill="none" stroke="#9a32cd" stroke-dasharray="5,2" d="M39.24,-136.57C59.28,-134.95 88.63,-132.57 113.78,-130.53"/>
<polygon fill="#9a32cd" stroke="#9a32cd" points="38.84,-133.1 29.16,-137.39 39.41,-140.07 38.84,-133.1"/>
<text text-anchor="middle" x="71.5" y="-139.5" font-family="Helvetica,sans-Serif" font-size="10.00"> keys</text>
</g>
<!-- Node13 -->
<g id="node13" class="node">
<title>Node13</title>
<g id="a_node13"><a xlink:title=" ">
<polygon fill="white" stroke="#bfbfbf" points="0,-76 0,-95 29,-95 29,-76 0,-76"/>
<text text-anchor="middle" x="14.5" y="-83" font-family="Helvetica,sans-Serif" font-size="10.00">T</text>
</a>
</g>
</g>
<!-- Node13&#45;&gt;Node11 -->
<g id="edge12" class="edge">
<title>Node13&#45;&gt;Node11</title>
<path fill="none" stroke="#9a32cd" stroke-dasharray="5,2" d="M38.95,-92C63.24,-98.73 101.45,-109.31 129.15,-116.98"/>
<polygon fill="#9a32cd" stroke="#9a32cd" points="39.73,-88.58 29.16,-89.28 37.86,-95.33 39.73,-88.58"/>
<text text-anchor="middle" x="71.5" y="-110.5" font-family="Helvetica,sans-Serif" font-size="10.00"> elements</text>
</g>
<!-- Node15 -->
<g id="node15" class="node">
<title>Node15</title>
<g id="a_node15"><a xlink:title="STL class.">
<polygon fill="white" stroke="#bfbfbf" points="233,-61 233,-80 333,-80 333,-61 233,-61"/>
<text text-anchor="middle" x="283" y="-68" font-family="Helvetica,sans-Serif" font-size="10.00">std::atomic&lt; T &gt;</text>
</a>
</g>
</g>
<!-- Node13&#45;&gt;Node15 -->
<g id="edge15" class="edge">
<title>Node13&#45;&gt;Node15</title>
<path fill="none" stroke="#9a32cd" stroke-dasharray="5,2" d="M39.11,-80.61C41.77,-80.17 44.43,-79.79 47,-79.5 110.89,-72.23 185.12,-70.5 232.78,-70.24"/>
<polygon fill="#9a32cd" stroke="#9a32cd" points="38.43,-77.17 29.23,-82.42 39.7,-84.06 38.43,-77.17"/>
<text text-anchor="middle" x="71.5" y="-82.5" font-family="Helvetica,sans-Serif" font-size="10.00"> ptr</text>
</g>
<!-- Node14 -->
<g id="node14" class="node">
<title>Node14</title>
<g id="a_node14"><a xlink:href="classitk_1_1TimeStamp.html" target="_top" xlink:title="Generate a unique, increasing time value.">
<polygon fill="white" stroke="black" points="658.5,-61 658.5,-80 750.5,-80 750.5,-61 658.5,-61"/>
<text text-anchor="middle" x="704.5" y="-68" font-family="Helvetica,sans-Serif" font-size="10.00">itk::TimeStamp</text>
</a>
</g>
</g>
<!-- Node14&#45;&gt;Node3 -->
<g id="edge28" class="edge">
<title>Node14&#45;&gt;Node3</title>
<path fill="none" stroke="#9a32cd" stroke-dasharray="5,2" d="M761.11,-68.89C865.13,-68.23 1093.46,-77.98 1258,-166.5 1296.03,-186.96 1331.02,-225.67 1346.13,-243.74"/>
<polygon fill="#9a32cd" stroke="#9a32cd" points="760.81,-65.4 750.84,-69 760.88,-72.4 760.81,-65.4"/>
<text text-anchor="middle" x="1013.5" y="-108.5" font-family="Helvetica,sans-Serif" font-size="10.00"> m_OutputInformationMTime</text>
</g>
<!-- Node14&#45;&gt;Node4 -->
<g id="edge13" class="edge">
<title>Node14&#45;&gt;Node4</title>
<path fill="none" stroke="#9a32cd" stroke-dasharray="5,2" d="M758.21,-82.36C799.9,-92.03 859.48,-106.5 911,-121.5 936.69,-128.98 965.6,-138.8 985.97,-145.97"/>
<polygon fill="#9a32cd" stroke="#9a32cd" points="758.8,-78.9 748.27,-80.06 757.23,-85.72 758.8,-78.9"/>
<text text-anchor="middle" x="852.5" y="-124.5" font-family="Helvetica,sans-Serif" font-size="10.00"> m_MTime</text>
</g>
<!-- Node15&#45;&gt;Node14 -->
<g id="edge14" class="edge">
<title>Node15&#45;&gt;Node14</title>
<path fill="none" stroke="#9a32cd" stroke-dasharray="5,2" d="M343.61,-70.5C428.52,-70.5 582.42,-70.5 658.48,-70.5"/>
<polygon fill="#9a32cd" stroke="#9a32cd" points="343.36,-67 333.36,-70.5 343.36,-74 343.36,-67"/>
<text text-anchor="middle" x="425.5" y="-73.5" font-family="Helvetica,sans-Serif" font-size="10.00"> m_GlobalTimeStamp</text>
</g>
<!-- Node16&#45;&gt;Node3 -->
<g id="edge16" class="edge">
<title>Node16&#45;&gt;Node3</title>
<path fill="none" stroke="#9a32cd" stroke-dasharray="5,2" d="M1104.53,-252.03C1167.95,-252.4 1250.57,-252.89 1302.97,-253.2"/>
<polygon fill="#9a32cd" stroke="#9a32cd" points="1104.55,-248.53 1094.53,-251.97 1104.51,-255.53 1104.55,-248.53"/>
<text text-anchor="middle" x="1187" y="-255.5" font-family="Helvetica,sans-Serif" font-size="10.00"> m_RequiredInputNames</text>
</g>
<!-- Node17&#45;&gt;Node3 -->
<g id="edge18" class="edge">
<title>Node17&#45;&gt;Node3</title>
<path fill="none" stroke="#9a32cd" stroke-dasharray="5,2" d="M1108.31,-207.19C1153.8,-210.52 1209.05,-216.14 1258,-225.5 1281.36,-229.97 1307.21,-237.67 1326.2,-243.87"/>
<polygon fill="#9a32cd" stroke="#9a32cd" points="1108.39,-203.69 1098.17,-206.47 1107.9,-210.67 1108.39,-203.69"/>
<text text-anchor="start" x="1116" y="-239.5" font-family="Helvetica,sans-Serif" font-size="10.00"> m_CachedInputReleaseData</text>
<text text-anchor="middle" x="1187" y="-228.5" font-family="Helvetica,sans-Serif" font-size="10.00">Flags</text>
</g>
<!-- Node18 -->
<g id="node18" class="node">
<title>Node18</title>
<g id="a_node18"><a xlink:title=" ">
<polygon fill="white" stroke="#bfbfbf" points="946.5,-433 946.5,-452 1080.5,-452 1080.5,-433 946.5,-433"/>
<text text-anchor="middle" x="1013.5" y="-440" font-family="Helvetica,sans-Serif" font-size="10.00">std::atomic&lt; uint32_t &gt;</text>
</a>
</g>
</g>
<!-- Node18&#45;&gt;Node3 -->
<g id="edge20" class="edge">
<title>Node18&#45;&gt;Node3</title>
<path fill="none" stroke="#9a32cd" stroke-dasharray="5,2" d="M1090.52,-450.04C1141.73,-451.36 1208.66,-445.43 1258,-413.5 1315.38,-376.36 1343.39,-291.75 1351.46,-263.15"/>
<polygon fill="#9a32cd" stroke="#9a32cd" points="1090.62,-446.54 1080.5,-449.69 1090.37,-453.54 1090.62,-446.54"/>
<text text-anchor="middle" x="1187" y="-452.5" font-family="Helvetica,sans-Serif" font-size="10.00"> m_Progress</text>
</g>
<!-- Node19 -->
<g id="node19" class="node">
<title>Node19</title>
<g id="a_node19"><a xlink:title=" ">
<polygon fill="white" stroke="#bfbfbf" points="676.5,-433 676.5,-452 732.5,-452 732.5,-433 676.5,-433"/>
<text text-anchor="middle" x="704.5" y="-440" font-family="Helvetica,sans-Serif" font-size="10.00">uint32_t</text>
</a>
</g>
</g>
<!-- Node19&#45;&gt;Node18 -->
<g id="edge21" class="edge">
<title>Node19&#45;&gt;Node18</title>
<path fill="none" stroke="#9a32cd" stroke-dasharray="5,2" d="M742.88,-442.5C793.35,-442.5 884.11,-442.5 946.28,-442.5"/>
<polygon fill="#9a32cd" stroke="#9a32cd" points="742.74,-439 732.74,-442.5 742.74,-446 742.74,-439"/>
<text text-anchor="middle" x="852.5" y="-445.5" font-family="Helvetica,sans-Serif" font-size="10.00"> ptr</text>
</g>
<!-- Node20 -->
<g id="node20" class="node">
<title>Node20</title>
<g id="a_node20"><a xlink:title=" ">
<polygon fill="white" stroke="#bfbfbf" points="929,-383.5 929,-413.5 1098,-413.5 1098,-383.5 929,-383.5"/>
<text text-anchor="start" x="937" y="-401.5" font-family="Helvetica,sans-Serif" font-size="10.00">std::vector&lt; DataObjectPointer</text>
<text text-anchor="middle" x="1013.5" y="-390.5" font-family="Helvetica,sans-Serif" font-size="10.00">Map::iterator &gt;</text>
</a>
</g>
</g>
<!-- Node20&#45;&gt;Node3 -->
<g id="edge22" class="edge">
<title>Node20&#45;&gt;Node3</title>
<path fill="none" stroke="#9a32cd" stroke-dasharray="5,2" d="M1108.45,-389.01C1165.63,-382.02 1232.44,-371.34 1258,-357.5 1301,-334.22 1335.16,-284.29 1348.24,-263.21"/>
<polygon fill="#9a32cd" stroke="#9a32cd" points="1107.78,-385.56 1098.26,-390.22 1108.61,-392.51 1107.78,-385.56"/>
<text text-anchor="middle" x="1187" y="-401.5" font-family="Helvetica,sans-Serif" font-size="10.00"> m_IndexedOutputs</text>
<text text-anchor="middle" x="1187" y="-390.5" font-family="Helvetica,sans-Serif" font-size="10.00">m_IndexedInputs</text>
</g>
<!-- Node21 -->
<g id="node21" class="node">
<title>Node21</title>
<g id="a_node21"><a xlink:title="STL iterator class.">
<polygon fill="white" stroke="#bfbfbf" points="633,-389 633,-408 776,-408 776,-389 633,-389"/>
<text text-anchor="middle" x="704.5" y="-396" font-family="Helvetica,sans-Serif" font-size="10.00">std::map&lt; K, T &gt;::iterator</text>
</a>
</g>
</g>
<!-- Node21&#45;&gt;Node20 -->
<g id="edge23" class="edge">
<title>Node21&#45;&gt;Node20</title>
<path fill="none" stroke="#9a32cd" stroke-dasharray="5,2" d="M786.39,-398.5C830.34,-398.5 884.61,-398.5 928.97,-398.5"/>
<polygon fill="#9a32cd" stroke="#9a32cd" points="786.32,-395 776.32,-398.5 786.32,-402 786.32,-395"/>
<text text-anchor="middle" x="852.5" y="-401.5" font-family="Helvetica,sans-Serif" font-size="10.00"> elements</text>
</g>
<!-- Node22&#45;&gt;Node3 -->
<g id="edge24" class="edge">
<title>Node22&#45;&gt;Node3</title>
<path fill="none" stroke="#9a32cd" stroke-dasharray="5,2" d="M1108.3,-288.01C1153.55,-281.93 1208.61,-274.45 1258,-267.5 1272.51,-265.46 1288.25,-263.19 1302.7,-261.08"/>
<polygon fill="#9a32cd" stroke="#9a32cd" points="1107.65,-284.57 1098.2,-289.37 1108.58,-291.51 1107.65,-284.57"/>
<text text-anchor="middle" x="1187" y="-300.5" font-family="Helvetica,sans-Serif" font-size="10.00"> m_Outputs</text>
<text text-anchor="middle" x="1187" y="-289.5" font-family="Helvetica,sans-Serif" font-size="10.00">m_Inputs</text>
</g>
<!-- Node23 -->
<g id="node23" class="node">
<title>Node23</title>
<g id="a_node23"><a xlink:href="classitk_1_1SmartPointer.html" target="_top" xlink:title=" ">
<polygon fill="white" stroke="black" points="651,-314.5 651,-344.5 758,-344.5 758,-314.5 651,-314.5"/>
<text text-anchor="start" x="659" y="-332.5" font-family="Helvetica,sans-Serif" font-size="10.00">itk::SmartPointer&lt;</text>
<text text-anchor="middle" x="704.5" y="-321.5" font-family="Helvetica,sans-Serif" font-size="10.00"> Self &gt;</text>
</a>
</g>
</g>
<!-- Node23&#45;&gt;Node22 -->
<g id="edge25" class="edge">
<title>Node23&#45;&gt;Node22</title>
<path fill="none" stroke="#9a32cd" stroke-dasharray="5,2" d="M768.49,-323.55C814.84,-319.17 878.33,-313.17 928.92,-308.39"/>
<polygon fill="#9a32cd" stroke="#9a32cd" points="767.9,-320.09 758.28,-324.51 768.56,-327.06 767.9,-320.09"/>
<text text-anchor="middle" x="852.5" y="-323.5" font-family="Helvetica,sans-Serif" font-size="10.00"> elements</text>
</g>
<!-- Node24 -->
<g id="node24" class="node">
<title>Node24</title>
<g id="a_node24"><a xlink:href="classitk_1_1SmartPointer.html" target="_top" xlink:title=" ">
<polygon fill="white" stroke="black" points="942.5,-334.5 942.5,-364.5 1084.5,-364.5 1084.5,-334.5 942.5,-334.5"/>
<text text-anchor="start" x="950.5" y="-352.5" font-family="Helvetica,sans-Serif" font-size="10.00">itk::SmartPointer&lt;</text>
<text text-anchor="middle" x="1013.5" y="-341.5" font-family="Helvetica,sans-Serif" font-size="10.00"> itk::MultiThreaderBase &gt;</text>
</a>
</g>
</g>
<!-- Node24&#45;&gt;Node3 -->
<g id="edge27" class="edge">
<title>Node24&#45;&gt;Node3</title>
<path fill="none" stroke="#9a32cd" stroke-dasharray="5,2" d="M1094.68,-345.39C1143.15,-340.95 1205.52,-331.71 1258,-312.5 1290.88,-300.46 1324.72,-276.41 1342.09,-263.03"/>
<polygon fill="#9a32cd" stroke="#9a32cd" points="1094.21,-341.92 1084.55,-346.27 1094.82,-348.89 1094.21,-341.92"/>
<text text-anchor="middle" x="1187" y="-345.5" font-family="Helvetica,sans-Serif" font-size="10.00"> m_MultiThreader</text>
</g>
<!-- Node25 -->
<g id="node25" class="node">
<title>Node25</title>
<g id="a_node25"><a xlink:href="classitk_1_1OtsuMultipleThresholdsCalculator.html" target="_top" xlink:title=" ">
<polygon fill="white" stroke="black" points="1538.5,-135.5 1538.5,-165.5 1689.5,-165.5 1689.5,-135.5 1538.5,-135.5"/>
<text text-anchor="start" x="1546.5" y="-153.5" font-family="Helvetica,sans-Serif" font-size="10.00">itk::OtsuMultipleThresholds</text>
<text text-anchor="middle" x="1614" y="-142.5" font-family="Helvetica,sans-Serif" font-size="10.00">Calculator&lt; THistogram &gt;</text>
</a>
</g>
</g>
<!-- Node25&#45;&gt;Node1 -->
<g id="edge29" class="edge">
<title>Node25&#45;&gt;Node1</title>
<path fill="none" stroke="#9a32cd" stroke-dasharray="5,2" d="M1699.67,-151.78C1746.44,-153.05 1805.52,-155.55 1858,-160.5 1863.86,-161.05 1869.91,-161.72 1875.99,-162.46"/>
<polygon fill="#9a32cd" stroke="#9a32cd" points="1699.67,-148.28 1689.58,-151.53 1699.49,-155.28 1699.67,-148.28"/>
<text text-anchor="start" x="1724" y="-174.5" font-family="Helvetica,sans-Serif" font-size="10.00"> m_OtsuMultipleThresholds</text>
<text text-anchor="middle" x="1791" y="-163.5" font-family="Helvetica,sans-Serif" font-size="10.00">Calculator</text>
</g>
<!-- Node26&#45;&gt;Node25 -->
<g id="edge30" class="edge">
<title>Node26&#45;&gt;Node25</title>
<path fill="none" stroke="midnightblue" d="M1444.39,-150.5C1474.97,-150.5 1508.92,-150.5 1538.3,-150.5"/>
<polygon fill="midnightblue" stroke="midnightblue" points="1444.16,-147 1434.16,-150.5 1444.16,-154 1444.16,-147"/>
</g>
<!-- Node27 -->
<g id="node27" class="node">
<title>Node27</title>
<g id="a_node27"><a xlink:href="classitk_1_1SmartPointer.html" target="_top" xlink:title=" ">
<polygon fill="white" stroke="black" points="960,-0.5 960,-30.5 1067,-30.5 1067,-0.5 960,-0.5"/>
<text text-anchor="start" x="968" y="-18.5" font-family="Helvetica,sans-Serif" font-size="10.00">itk::SmartPointer&lt;</text>
<text text-anchor="middle" x="1013.5" y="-7.5" font-family="Helvetica,sans-Serif" font-size="10.00"> const Self &gt;</text>
</a>
</g>
</g>
<!-- Node27&#45;&gt;Node26 -->
<g id="edge32" class="edge">
<title>Node27&#45;&gt;Node26</title>
<path fill="none" stroke="#9a32cd" stroke-dasharray="5,2" d="M1077.43,-3.95C1132,2.22 1209.63,1.12 1258,-42.5 1286.03,-67.78 1250.63,-97.55 1276,-125.5 1279.54,-129.4 1283.68,-132.69 1288.18,-135.47"/>
<polygon fill="#9a32cd" stroke="#9a32cd" points="1076.67,-0.51 1067.17,-5.22 1077.53,-7.46 1076.67,-0.51"/>
<text text-anchor="middle" x="1187" y="-45.5" font-family="Helvetica,sans-Serif" font-size="10.00"> m_InputHistogram</text>
</g>
<!-- Node28 -->
<g id="node28" class="node">
<title>Node28</title>
<g id="a_node28"><a xlink:title=" ">
<polygon fill="white" stroke="#bfbfbf" points="1281.5,-86.5 1281.5,-116.5 1428.5,-116.5 1428.5,-86.5 1281.5,-86.5"/>
<text text-anchor="start" x="1289.5" y="-104.5" font-family="Helvetica,sans-Serif" font-size="10.00">std::vector&lt; Measurement</text>
<text text-anchor="middle" x="1355" y="-93.5" font-family="Helvetica,sans-Serif" font-size="10.00">Type &gt;</text>
</a>
</g>
</g>
<!-- Node28&#45;&gt;Node25 -->
<g id="edge33" class="edge">
<title>Node28&#45;&gt;Node25</title>
<path fill="none" stroke="#9a32cd" stroke-dasharray="5,2" d="M1438.84,-117.29C1470.83,-123.39 1507.16,-130.32 1538.33,-136.26"/>
<polygon fill="#9a32cd" stroke="#9a32cd" points="1439.09,-113.78 1428.62,-115.34 1437.78,-120.66 1439.09,-113.78"/>
<text text-anchor="middle" x="1478" y="-132.5" font-family="Helvetica,sans-Serif" font-size="10.00"> m_Output</text>
</g>
</g>
</svg>
