<?xml version="1.0" encoding="UTF-8" standalone="no"?>
<!DOCTYPE svg PUBLIC "-//W3C//DTD SVG 1.1//EN"
 "http://www.w3.org/Graphics/SVG/1.1/DTD/svg11.dtd">
<!-- Generated by graphviz version 2.43.0 (0)
 -->
<!-- Title: itk::LabelImageToLabelMapFilter&lt; TInputImage, TOutputImage &gt; Pages: 1 -->
<svg width="604pt" height="110pt"
 viewBox="0.00 0.00 604.00 110.00" xmlns="http://www.w3.org/2000/svg" xmlns:xlink="http://www.w3.org/1999/xlink">
<g id="graph0" class="graph" transform="scale(1 1) rotate(0) translate(4 106)">
<title>itk::LabelImageToLabelMapFilter&lt; TInputImage, TOutputImage &gt;</title>
<polygon fill="white" stroke="transparent" points="-4,4 -4,-106 600,-106 600,4 -4,4"/>
<!-- Node1 -->
<g id="node1" class="node">
<title>Node1</title>
<g id="a_node1"><a xlink:title="convert a labeled image to a label collection image">
<polygon fill="#bfbfbf" stroke="black" points="395,-30.5 395,-60.5 596,-60.5 596,-30.5 395,-30.5"/>
<text text-anchor="start" x="403" y="-48.5" font-family="Helvetica,sans-Serif" font-size="10.00">itk::LabelImageToLabelMap</text>
<text text-anchor="middle" x="495.5" y="-37.5" font-family="Helvetica,sans-Serif" font-size="10.00">Filter&lt; TInputImage, TOutputImage &gt;</text>
</a>
</g>
</g>
<!-- Node2 -->
<g id="node2" class="node">
<title>Node2</title>
<g id="a_node2"><a xlink:title=" ">
<polygon fill="white" stroke="#bfbfbf" points="0,-49.5 0,-101.5 253,-101.5 253,-49.5 0,-49.5"/>
<text text-anchor="start" x="8" y="-89.5" font-family="Helvetica,sans-Serif" font-size="10.00">ImageToImageFilter</text>
<text text-anchor="start" x="8" y="-78.5" font-family="Helvetica,sans-Serif" font-size="10.00">&lt; TInputImage, LabelMap</text>
<text text-anchor="start" x="8" y="-67.5" font-family="Helvetica,sans-Serif" font-size="10.00">&lt;LabelObject&lt;typename TInputImage</text>
<text text-anchor="middle" x="126.5" y="-56.5" font-family="Helvetica,sans-Serif" font-size="10.00">::PixelType, TInputImage::ImageDimension&gt;&gt; &gt;</text>
</a>
</g>
</g>
<!-- Node2&#45;&gt;Node1 -->
<g id="edge1" class="edge">
<title>Node2&#45;&gt;Node1</title>
<path fill="none" stroke="midnightblue" d="M263.15,-64.41C306.76,-60.85 354.25,-56.96 394.79,-53.65"/>
<polygon fill="midnightblue" stroke="midnightblue" points="262.71,-60.94 253.03,-65.24 263.28,-67.91 262.71,-60.94"/>
</g>
<!-- Node3 -->
<g id="node3" class="node">
<title>Node3</title>
<g id="a_node3"><a xlink:title=" ">
<polygon fill="white" stroke="#bfbfbf" points="55,-0.5 55,-30.5 198,-30.5 198,-0.5 55,-0.5"/>
<text text-anchor="start" x="63" y="-18.5" font-family="Helvetica,sans-Serif" font-size="10.00">std::vector&lt; OutputImage</text>
<text text-anchor="middle" x="126.5" y="-7.5" font-family="Helvetica,sans-Serif" font-size="10.00">Pointer &gt;</text>
</a>
</g>
</g>
<!-- Node3&#45;&gt;Node1 -->
<g id="edge2" class="edge">
<title>Node3&#45;&gt;Node1</title>
<path fill="none" stroke="#9a32cd" stroke-dasharray="5,2" d="M208.3,-22.1C263.23,-26.6 336.28,-32.57 394.82,-37.35"/>
<polygon fill="#9a32cd" stroke="#9a32cd" points="208.51,-18.61 198.26,-21.28 207.94,-25.59 208.51,-18.61"/>
<text text-anchor="middle" x="324" y="-38.5" font-family="Helvetica,sans-Serif" font-size="10.00"> m_TemporaryImages</text>
</g>
</g>
</svg>
