<?xml version="1.0" encoding="UTF-8" standalone="no"?>
<!DOCTYPE svg PUBLIC "-//W3C//DTD SVG 1.1//EN"
 "http://www.w3.org/Graphics/SVG/1.1/DTD/svg11.dtd">
<!-- Generated by graphviz version 2.43.0 (0)
 -->
<!-- Title: itk::TotalProgressReporter Pages: 1 -->
<svg width="1610pt" height="430pt"
 viewBox="0.00 0.00 1610.00 430.00" xmlns="http://www.w3.org/2000/svg" xmlns:xlink="http://www.w3.org/1999/xlink">
<g id="graph0" class="graph" transform="scale(1 1) rotate(0) translate(4 426)">
<title>itk::TotalProgressReporter</title>
<polygon fill="white" stroke="transparent" points="-4,4 -4,-426 1606,-426 1606,4 -4,4"/>
<!-- Node1 -->
<g id="node1" class="node">
<title>Node1</title>
<g id="a_node1"><a xlink:title="A progress reporter for concurrent threads.">
<polygon fill="#bfbfbf" stroke="black" points="1459,-157 1459,-176 1602,-176 1602,-157 1459,-157"/>
<text text-anchor="middle" x="1530.5" y="-164" font-family="Helvetica,sans-Serif" font-size="10.00">itk::TotalProgressReporter</text>
</a>
</g>
</g>
<!-- Node2 -->
<g id="node2" class="node">
<title>Node2</title>
<g id="a_node2"><a xlink:href="classitk_1_1ProcessObject.html" target="_top" xlink:title="The base class for all process objects (source, filters, mappers) in the Insight data processing pipe...">
<polygon fill="white" stroke="black" points="1276,-157 1276,-176 1380,-176 1380,-157 1276,-157"/>
<text text-anchor="middle" x="1328" y="-164" font-family="Helvetica,sans-Serif" font-size="10.00">itk::ProcessObject</text>
</a>
</g>
</g>
<!-- Node2&#45;&gt;Node1 -->
<g id="edge1" class="edge">
<title>Node2&#45;&gt;Node1</title>
<path fill="none" stroke="#9a32cd" stroke-dasharray="5,2" d="M1390.17,-166.5C1411.85,-166.5 1436.41,-166.5 1458.81,-166.5"/>
<polygon fill="#9a32cd" stroke="#9a32cd" points="1390.11,-163 1380.11,-166.5 1390.11,-170 1390.11,-163"/>
<text text-anchor="middle" x="1419.5" y="-169.5" font-family="Helvetica,sans-Serif" font-size="10.00"> m_Filter</text>
</g>
<!-- Node3 -->
<g id="node3" class="node">
<title>Node3</title>
<g id="a_node3"><a xlink:href="classitk_1_1Object.html" target="_top" xlink:title="Base class for most ITK classes.">
<polygon fill="white" stroke="black" points="980,-193 980,-212 1047,-212 1047,-193 980,-193"/>
<text text-anchor="middle" x="1013.5" y="-200" font-family="Helvetica,sans-Serif" font-size="10.00">itk::Object</text>
</a>
</g>
</g>
<!-- Node3&#45;&gt;Node2 -->
<g id="edge2" class="edge">
<title>Node3&#45;&gt;Node2</title>
<path fill="none" stroke="midnightblue" d="M1057.17,-197.58C1114.17,-191.02 1215.03,-179.4 1275.98,-172.38"/>
<polygon fill="midnightblue" stroke="midnightblue" points="1056.59,-194.13 1047.06,-198.75 1057.39,-201.08 1056.59,-194.13"/>
</g>
<!-- Node4 -->
<g id="node4" class="node">
<title>Node4</title>
<g id="a_node4"><a xlink:href="classitk_1_1LightObject.html" target="_top" xlink:title="Light weight base class for most itk classes.">
<polygon fill="white" stroke="black" points="659,-147 659,-166 750,-166 750,-147 659,-147"/>
<text text-anchor="middle" x="704.5" y="-154" font-family="Helvetica,sans-Serif" font-size="10.00">itk::LightObject</text>
</a>
</g>
</g>
<!-- Node4&#45;&gt;Node3 -->
<g id="edge3" class="edge">
<title>Node4&#45;&gt;Node3</title>
<path fill="none" stroke="midnightblue" d="M760.4,-164.73C824.13,-174.28 927.17,-189.71 979.59,-197.57"/>
<polygon fill="midnightblue" stroke="midnightblue" points="760.55,-161.21 750.14,-163.19 759.51,-168.13 760.55,-161.21"/>
</g>
<!-- Node5 -->
<g id="node5" class="node">
<title>Node5</title>
<g id="a_node5"><a xlink:title=" ">
<polygon fill="white" stroke="#bfbfbf" points="372,-143 372,-162 479,-162 479,-143 372,-143"/>
<text text-anchor="middle" x="425.5" y="-150" font-family="Helvetica,sans-Serif" font-size="10.00">std::atomic&lt; int &gt;</text>
</a>
</g>
</g>
<!-- Node5&#45;&gt;Node4 -->
<g id="edge4" class="edge">
<title>Node5&#45;&gt;Node4</title>
<path fill="none" stroke="#9a32cd" stroke-dasharray="5,2" d="M489.29,-153.41C540.91,-154.15 612.77,-155.19 658.72,-155.85"/>
<polygon fill="#9a32cd" stroke="#9a32cd" points="489.3,-149.91 479.25,-153.26 489.2,-156.91 489.3,-149.91"/>
<text text-anchor="middle" x="566.5" y="-157.5" font-family="Helvetica,sans-Serif" font-size="10.00"> m_ReferenceCount</text>
</g>
<!-- Node6 -->
<g id="node6" class="node">
<title>Node6</title>
<g id="a_node6"><a xlink:title="STL class.">
<polygon fill="white" stroke="#bfbfbf" points="672,-312 672,-331 737,-331 737,-312 672,-312"/>
<text text-anchor="middle" x="704.5" y="-319" font-family="Helvetica,sans-Serif" font-size="10.00">std::string</text>
</a>
</g>
</g>
<!-- Node6&#45;&gt;Node3 -->
<g id="edge5" class="edge">
<title>Node6&#45;&gt;Node3</title>
<path fill="none" stroke="#9a32cd" stroke-dasharray="5,2" d="M727.23,-306.19C744.58,-294.6 769.89,-279.1 794,-269.5 843.58,-249.75 862.41,-264.56 911,-242.5 919.99,-238.42 920.2,-233.96 929,-229.5 945.04,-221.37 964.03,-215 979.85,-210.49"/>
<polygon fill="#9a32cd" stroke="#9a32cd" points="725.22,-303.32 718.93,-311.84 729.16,-309.1 725.22,-303.32"/>
<text text-anchor="middle" x="852.5" y="-272.5" font-family="Helvetica,sans-Serif" font-size="10.00"> m_ObjectName</text>
</g>
<!-- Node15 -->
<g id="node15" class="node">
<title>Node15</title>
<g id="a_node15"><a xlink:title=" ">
<polygon fill="white" stroke="#bfbfbf" points="932.5,-301.5 932.5,-331.5 1094.5,-331.5 1094.5,-301.5 932.5,-301.5"/>
<text text-anchor="start" x="940.5" y="-319.5" font-family="Helvetica,sans-Serif" font-size="10.00">std::set&lt; DataObjectIdentifier</text>
<text text-anchor="middle" x="1013.5" y="-308.5" font-family="Helvetica,sans-Serif" font-size="10.00">Type &gt;</text>
</a>
</g>
</g>
<!-- Node6&#45;&gt;Node15 -->
<g id="edge16" class="edge">
<title>Node6&#45;&gt;Node15</title>
<path fill="none" stroke="#9a32cd" stroke-dasharray="5,2" d="M747.4,-320.82C794.8,-320.05 873.1,-318.77 932.35,-317.81"/>
<polygon fill="#9a32cd" stroke="#9a32cd" points="747.14,-317.32 737.2,-320.98 747.25,-324.32 747.14,-317.32"/>
<text text-anchor="middle" x="852.5" y="-322.5" font-family="Helvetica,sans-Serif" font-size="10.00"> keys</text>
</g>
<!-- Node16 -->
<g id="node16" class="node">
<title>Node16</title>
<g id="a_node16"><a xlink:title=" ">
<polygon fill="white" stroke="#bfbfbf" points="929,-238.5 929,-268.5 1098,-268.5 1098,-238.5 929,-238.5"/>
<text text-anchor="start" x="937" y="-256.5" font-family="Helvetica,sans-Serif" font-size="10.00">std::map&lt; DataObjectIdentifier</text>
<text text-anchor="middle" x="1013.5" y="-245.5" font-family="Helvetica,sans-Serif" font-size="10.00">Type, bool &gt;</text>
</a>
</g>
</g>
<!-- Node6&#45;&gt;Node16 -->
<g id="edge18" class="edge">
<title>Node6&#45;&gt;Node16</title>
<path fill="none" stroke="#9a32cd" stroke-dasharray="5,2" d="M746.91,-312.87C761.75,-309.83 778.61,-306.45 794,-303.5 845.89,-293.57 859.54,-294.44 911,-282.5 928.32,-278.48 947.08,-273.35 963.71,-268.52"/>
<polygon fill="#9a32cd" stroke="#9a32cd" points="746.09,-309.47 737,-314.91 747.5,-316.32 746.09,-309.47"/>
<text text-anchor="middle" x="852.5" y="-306.5" font-family="Helvetica,sans-Serif" font-size="10.00"> keys</text>
</g>
<!-- Node21 -->
<g id="node21" class="node">
<title>Node21</title>
<g id="a_node21"><a xlink:title=" ">
<polygon fill="white" stroke="#bfbfbf" points="929,-357.5 929,-387.5 1098,-387.5 1098,-357.5 929,-357.5"/>
<text text-anchor="start" x="937" y="-375.5" font-family="Helvetica,sans-Serif" font-size="10.00">std::map&lt; DataObjectIdentifier</text>
<text text-anchor="middle" x="1013.5" y="-364.5" font-family="Helvetica,sans-Serif" font-size="10.00">Type, DataObjectPointer &gt;</text>
</a>
</g>
</g>
<!-- Node6&#45;&gt;Node21 -->
<g id="edge25" class="edge">
<title>Node6&#45;&gt;Node21</title>
<path fill="none" stroke="#9a32cd" stroke-dasharray="5,2" d="M747.2,-328.43C793.65,-336.14 869.92,-348.81 928.8,-358.59"/>
<polygon fill="#9a32cd" stroke="#9a32cd" points="747.64,-324.95 737.2,-326.77 746.49,-331.86 747.64,-324.95"/>
<text text-anchor="middle" x="852.5" y="-357.5" font-family="Helvetica,sans-Serif" font-size="10.00"> keys</text>
</g>
<!-- Node7 -->
<g id="node7" class="node">
<title>Node7</title>
<g id="a_node7"><a xlink:title="STL class.">
<polygon fill="white" stroke="#bfbfbf" points="373.5,-306.5 373.5,-336.5 477.5,-336.5 477.5,-306.5 373.5,-306.5"/>
<text text-anchor="start" x="381.5" y="-324.5" font-family="Helvetica,sans-Serif" font-size="10.00">std::basic_string&lt;</text>
<text text-anchor="middle" x="425.5" y="-313.5" font-family="Helvetica,sans-Serif" font-size="10.00"> char &gt;</text>
</a>
</g>
</g>
<!-- Node7&#45;&gt;Node6 -->
<g id="edge6" class="edge">
<title>Node7&#45;&gt;Node6</title>
<path fill="none" stroke="midnightblue" d="M487.93,-321.5C544.75,-321.5 626.97,-321.5 671.66,-321.5"/>
<polygon fill="midnightblue" stroke="midnightblue" points="487.63,-318 477.63,-321.5 487.63,-325 487.63,-318"/>
</g>
<!-- Node8 -->
<g id="node8" class="node">
<title>Node8</title>
<g id="a_node8"><a xlink:href="classitk_1_1MetaDataDictionary.html" target="_top" xlink:title="Provides a mechanism for storing a collection of arbitrary data types.">
<polygon fill="white" stroke="black" points="637.5,-229 637.5,-248 771.5,-248 771.5,-229 637.5,-229"/>
<text text-anchor="middle" x="704.5" y="-236" font-family="Helvetica,sans-Serif" font-size="10.00">itk::MetaDataDictionary</text>
</a>
</g>
</g>
<!-- Node8&#45;&gt;Node3 -->
<g id="edge7" class="edge">
<title>Node8&#45;&gt;Node3</title>
<path fill="none" stroke="#9a32cd" stroke-dasharray="5,2" d="M781.82,-229.61C820.53,-225.1 868.26,-219.52 911,-214.5 933.91,-211.81 959.73,-208.76 979.59,-206.4"/>
<polygon fill="#9a32cd" stroke="#9a32cd" points="781.2,-226.16 771.67,-230.8 782.01,-233.11 781.2,-226.16"/>
<text text-anchor="middle" x="852.5" y="-230.5" font-family="Helvetica,sans-Serif" font-size="10.00"> m_MetaDataDictionary</text>
</g>
<!-- Node9 -->
<g id="node9" class="node">
<title>Node9</title>
<g id="a_node9"><a xlink:title=" ">
<polygon fill="white" stroke="#bfbfbf" points="351,-228.5 351,-258.5 500,-258.5 500,-228.5 351,-228.5"/>
<text text-anchor="start" x="359" y="-246.5" font-family="Helvetica,sans-Serif" font-size="10.00">std::shared_ptr&lt; MetaData</text>
<text text-anchor="middle" x="425.5" y="-235.5" font-family="Helvetica,sans-Serif" font-size="10.00">DictionaryMapType &gt;</text>
</a>
</g>
</g>
<!-- Node9&#45;&gt;Node8 -->
<g id="edge8" class="edge">
<title>Node9&#45;&gt;Node8</title>
<path fill="none" stroke="#9a32cd" stroke-dasharray="5,2" d="M510.18,-241.99C550.89,-241.25 599.13,-240.38 637.24,-239.7"/>
<polygon fill="#9a32cd" stroke="#9a32cd" points="509.94,-238.49 500,-242.17 510.07,-245.49 509.94,-238.49"/>
<text text-anchor="middle" x="566.5" y="-244.5" font-family="Helvetica,sans-Serif" font-size="10.00"> m_Dictionary</text>
</g>
<!-- Node10 -->
<g id="node10" class="node">
<title>Node10</title>
<g id="a_node10"><a xlink:title="STL class.">
<polygon fill="white" stroke="#bfbfbf" points="114,-234 114,-253 215,-253 215,-234 114,-234"/>
<text text-anchor="middle" x="164.5" y="-241" font-family="Helvetica,sans-Serif" font-size="10.00">std::map&lt; K, T &gt;</text>
</a>
</g>
</g>
<!-- Node10&#45;&gt;Node9 -->
<g id="edge9" class="edge">
<title>Node10&#45;&gt;Node9</title>
<path fill="none" stroke="#9a32cd" stroke-dasharray="5,2" d="M225.34,-243.5C262.61,-243.5 310.86,-243.5 350.52,-243.5"/>
<polygon fill="#9a32cd" stroke="#9a32cd" points="225.13,-240 215.13,-243.5 225.13,-247 225.13,-240"/>
<text text-anchor="middle" x="283" y="-246.5" font-family="Helvetica,sans-Serif" font-size="10.00"> ptr</text>
</g>
<!-- Node11 -->
<g id="node11" class="node">
<title>Node11</title>
<g id="a_node11"><a xlink:title=" ">
<polygon fill="white" stroke="#bfbfbf" points="0,-257 0,-276 29,-276 29,-257 0,-257"/>
<text text-anchor="middle" x="14.5" y="-264" font-family="Helvetica,sans-Serif" font-size="10.00">K</text>
</a>
</g>
</g>
<!-- Node11&#45;&gt;Node10 -->
<g id="edge10" class="edge">
<title>Node11&#45;&gt;Node10</title>
<path fill="none" stroke="#9a32cd" stroke-dasharray="5,2" d="M39.24,-262.81C59.28,-259.7 88.63,-255.13 113.78,-251.23"/>
<polygon fill="#9a32cd" stroke="#9a32cd" points="38.5,-259.38 29.16,-264.38 39.58,-266.3 38.5,-259.38"/>
<text text-anchor="middle" x="71.5" y="-264.5" font-family="Helvetica,sans-Serif" font-size="10.00"> keys</text>
</g>
<!-- Node12 -->
<g id="node12" class="node">
<title>Node12</title>
<g id="a_node12"><a xlink:title=" ">
<polygon fill="white" stroke="#bfbfbf" points="0,-204 0,-223 29,-223 29,-204 0,-204"/>
<text text-anchor="middle" x="14.5" y="-211" font-family="Helvetica,sans-Serif" font-size="10.00">T</text>
</a>
</g>
</g>
<!-- Node12&#45;&gt;Node10 -->
<g id="edge11" class="edge">
<title>Node12&#45;&gt;Node10</title>
<path fill="none" stroke="#9a32cd" stroke-dasharray="5,2" d="M39.01,-218.26C59.76,-222.47 90.63,-228.73 116.44,-233.96"/>
<polygon fill="#9a32cd" stroke="#9a32cd" points="39.65,-214.83 29.16,-216.27 38.26,-221.69 39.65,-214.83"/>
<text text-anchor="middle" x="71.5" y="-231.5" font-family="Helvetica,sans-Serif" font-size="10.00"> elements</text>
</g>
<!-- Node14 -->
<g id="node14" class="node">
<title>Node14</title>
<g id="a_node14"><a xlink:title="STL class.">
<polygon fill="white" stroke="#bfbfbf" points="233,-189 233,-208 333,-208 333,-189 233,-189"/>
<text text-anchor="middle" x="283" y="-196" font-family="Helvetica,sans-Serif" font-size="10.00">std::atomic&lt; T &gt;</text>
</a>
</g>
</g>
<!-- Node12&#45;&gt;Node14 -->
<g id="edge14" class="edge">
<title>Node12&#45;&gt;Node14</title>
<path fill="none" stroke="#9a32cd" stroke-dasharray="5,2" d="M39.03,-206.08C41.7,-205.45 44.39,-204.9 47,-204.5 110.54,-194.77 184.85,-194.74 232.62,-196.16"/>
<polygon fill="#9a32cd" stroke="#9a32cd" points="37.85,-202.77 29.13,-208.79 39.7,-209.53 37.85,-202.77"/>
<text text-anchor="middle" x="71.5" y="-207.5" font-family="Helvetica,sans-Serif" font-size="10.00"> ptr</text>
</g>
<!-- Node13 -->
<g id="node13" class="node">
<title>Node13</title>
<g id="a_node13"><a xlink:href="classitk_1_1TimeStamp.html" target="_top" xlink:title="Generate a unique, increasing time value.">
<polygon fill="white" stroke="black" points="658.5,-189 658.5,-208 750.5,-208 750.5,-189 658.5,-189"/>
<text text-anchor="middle" x="704.5" y="-196" font-family="Helvetica,sans-Serif" font-size="10.00">itk::TimeStamp</text>
</a>
</g>
</g>
<!-- Node13&#45;&gt;Node2 -->
<g id="edge27" class="edge">
<title>Node13&#45;&gt;Node2</title>
<path fill="none" stroke="#9a32cd" stroke-dasharray="5,2" d="M760.92,-190.48C806.06,-184.33 871.5,-176.27 929,-172.5 1053.3,-164.35 1199.87,-164.7 1275.73,-165.63"/>
<polygon fill="#9a32cd" stroke="#9a32cd" points="760.18,-187.05 750.75,-191.88 761.14,-193.98 760.18,-187.05"/>
<text text-anchor="middle" x="1013.5" y="-175.5" font-family="Helvetica,sans-Serif" font-size="10.00"> m_OutputInformationMTime</text>
</g>
<!-- Node13&#45;&gt;Node3 -->
<g id="edge12" class="edge">
<title>Node13&#45;&gt;Node3</title>
<path fill="none" stroke="#9a32cd" stroke-dasharray="5,2" d="M761.09,-199.22C824.93,-200.06 927.56,-201.39 979.75,-202.07"/>
<polygon fill="#9a32cd" stroke="#9a32cd" points="760.84,-195.72 750.8,-199.09 760.75,-202.72 760.84,-195.72"/>
<text text-anchor="middle" x="852.5" y="-203.5" font-family="Helvetica,sans-Serif" font-size="10.00"> m_MTime</text>
</g>
<!-- Node14&#45;&gt;Node13 -->
<g id="edge13" class="edge">
<title>Node14&#45;&gt;Node13</title>
<path fill="none" stroke="#9a32cd" stroke-dasharray="5,2" d="M343.61,-198.5C428.52,-198.5 582.42,-198.5 658.48,-198.5"/>
<polygon fill="#9a32cd" stroke="#9a32cd" points="343.36,-195 333.36,-198.5 343.36,-202 343.36,-195"/>
<text text-anchor="middle" x="425.5" y="-201.5" font-family="Helvetica,sans-Serif" font-size="10.00"> m_GlobalTimeStamp</text>
</g>
<!-- Node15&#45;&gt;Node2 -->
<g id="edge15" class="edge">
<title>Node15&#45;&gt;Node2</title>
<path fill="none" stroke="#9a32cd" stroke-dasharray="5,2" d="M1104.73,-309.9C1153.36,-302.85 1212.54,-288.32 1258,-258.5 1290.55,-237.15 1313.55,-194.94 1322.66,-176.04"/>
<polygon fill="#9a32cd" stroke="#9a32cd" points="1103.95,-306.48 1094.52,-311.3 1104.9,-313.41 1103.95,-306.48"/>
<text text-anchor="middle" x="1187" y="-310.5" font-family="Helvetica,sans-Serif" font-size="10.00"> m_RequiredInputNames</text>
</g>
<!-- Node16&#45;&gt;Node2 -->
<g id="edge17" class="edge">
<title>Node16&#45;&gt;Node2</title>
<path fill="none" stroke="#9a32cd" stroke-dasharray="5,2" d="M1105.03,-236.37C1151.34,-226.59 1208.28,-212.98 1258,-196.5 1275.11,-190.83 1293.82,-182.55 1307.44,-176.13"/>
<polygon fill="#9a32cd" stroke="#9a32cd" points="1104.09,-232.99 1095.01,-238.46 1105.52,-239.84 1104.09,-232.99"/>
<text text-anchor="start" x="1116" y="-246.5" font-family="Helvetica,sans-Serif" font-size="10.00"> m_CachedInputReleaseData</text>
<text text-anchor="middle" x="1187" y="-235.5" font-family="Helvetica,sans-Serif" font-size="10.00">Flags</text>
</g>
<!-- Node17 -->
<g id="node17" class="node">
<title>Node17</title>
<g id="a_node17"><a xlink:title=" ">
<polygon fill="white" stroke="#bfbfbf" points="946.5,-99 946.5,-118 1080.5,-118 1080.5,-99 946.5,-99"/>
<text text-anchor="middle" x="1013.5" y="-106" font-family="Helvetica,sans-Serif" font-size="10.00">std::atomic&lt; uint32_t &gt;</text>
</a>
</g>
</g>
<!-- Node17&#45;&gt;Node2 -->
<g id="edge19" class="edge">
<title>Node17&#45;&gt;Node2</title>
<path fill="none" stroke="#9a32cd" stroke-dasharray="5,2" d="M1090.85,-107.22C1139.59,-108.32 1203.61,-113.32 1258,-129.5 1278.45,-135.58 1299.77,-148.12 1313.2,-156.91"/>
<polygon fill="#9a32cd" stroke="#9a32cd" points="1090.75,-103.72 1080.69,-107.05 1090.63,-110.72 1090.75,-103.72"/>
<text text-anchor="middle" x="1187" y="-132.5" font-family="Helvetica,sans-Serif" font-size="10.00"> m_Progress</text>
</g>
<!-- Node18 -->
<g id="node18" class="node">
<title>Node18</title>
<g id="a_node18"><a xlink:title=" ">
<polygon fill="white" stroke="#bfbfbf" points="676.5,-99 676.5,-118 732.5,-118 732.5,-99 676.5,-99"/>
<text text-anchor="middle" x="704.5" y="-106" font-family="Helvetica,sans-Serif" font-size="10.00">uint32_t</text>
</a>
</g>
</g>
<!-- Node18&#45;&gt;Node17 -->
<g id="edge20" class="edge">
<title>Node18&#45;&gt;Node17</title>
<path fill="none" stroke="#9a32cd" stroke-dasharray="5,2" d="M742.88,-108.5C793.35,-108.5 884.11,-108.5 946.28,-108.5"/>
<polygon fill="#9a32cd" stroke="#9a32cd" points="742.74,-105 732.74,-108.5 742.74,-112 742.74,-105"/>
<text text-anchor="middle" x="852.5" y="-111.5" font-family="Helvetica,sans-Serif" font-size="10.00"> ptr</text>
</g>
<!-- Node19 -->
<g id="node19" class="node">
<title>Node19</title>
<g id="a_node19"><a xlink:title=" ">
<polygon fill="white" stroke="#bfbfbf" points="929,-49.5 929,-79.5 1098,-79.5 1098,-49.5 929,-49.5"/>
<text text-anchor="start" x="937" y="-67.5" font-family="Helvetica,sans-Serif" font-size="10.00">std::vector&lt; DataObjectPointer</text>
<text text-anchor="middle" x="1013.5" y="-56.5" font-family="Helvetica,sans-Serif" font-size="10.00">Map::iterator &gt;</text>
</a>
</g>
</g>
<!-- Node19&#45;&gt;Node2 -->
<g id="edge21" class="edge">
<title>Node19&#45;&gt;Node2</title>
<path fill="none" stroke="#9a32cd" stroke-dasharray="5,2" d="M1108.41,-53.96C1155.73,-52.77 1212.55,-57.88 1258,-81.5 1290.72,-98.51 1313.47,-138.55 1322.58,-156.95"/>
<polygon fill="#9a32cd" stroke="#9a32cd" points="1108.03,-50.48 1098.16,-54.32 1108.27,-57.47 1108.03,-50.48"/>
<text text-anchor="middle" x="1187" y="-95.5" font-family="Helvetica,sans-Serif" font-size="10.00"> m_IndexedOutputs</text>
<text text-anchor="middle" x="1187" y="-84.5" font-family="Helvetica,sans-Serif" font-size="10.00">m_IndexedInputs</text>
</g>
<!-- Node20 -->
<g id="node20" class="node">
<title>Node20</title>
<g id="a_node20"><a xlink:title="STL iterator class.">
<polygon fill="white" stroke="#bfbfbf" points="633,-55 633,-74 776,-74 776,-55 633,-55"/>
<text text-anchor="middle" x="704.5" y="-62" font-family="Helvetica,sans-Serif" font-size="10.00">std::map&lt; K, T &gt;::iterator</text>
</a>
</g>
</g>
<!-- Node20&#45;&gt;Node19 -->
<g id="edge22" class="edge">
<title>Node20&#45;&gt;Node19</title>
<path fill="none" stroke="#9a32cd" stroke-dasharray="5,2" d="M786.39,-64.5C830.34,-64.5 884.61,-64.5 928.97,-64.5"/>
<polygon fill="#9a32cd" stroke="#9a32cd" points="786.32,-61 776.32,-64.5 786.32,-68 786.32,-61"/>
<text text-anchor="middle" x="852.5" y="-67.5" font-family="Helvetica,sans-Serif" font-size="10.00"> elements</text>
</g>
<!-- Node21&#45;&gt;Node2 -->
<g id="edge23" class="edge">
<title>Node21&#45;&gt;Node2</title>
<path fill="none" stroke="#9a32cd" stroke-dasharray="5,2" d="M1108.22,-373.16C1157.5,-368.95 1216.19,-356.2 1258,-322.5 1306.42,-283.47 1321.83,-203.5 1325.81,-176.02"/>
<polygon fill="#9a32cd" stroke="#9a32cd" points="1107.88,-369.67 1098.17,-373.91 1108.41,-376.65 1107.88,-369.67"/>
<text text-anchor="middle" x="1187" y="-385.5" font-family="Helvetica,sans-Serif" font-size="10.00"> m_Outputs</text>
<text text-anchor="middle" x="1187" y="-374.5" font-family="Helvetica,sans-Serif" font-size="10.00">m_Inputs</text>
</g>
<!-- Node22 -->
<g id="node22" class="node">
<title>Node22</title>
<g id="a_node22"><a xlink:href="classitk_1_1SmartPointer.html" target="_top" xlink:title=" ">
<polygon fill="white" stroke="black" points="651,-391.5 651,-421.5 758,-421.5 758,-391.5 651,-391.5"/>
<text text-anchor="start" x="659" y="-409.5" font-family="Helvetica,sans-Serif" font-size="10.00">itk::SmartPointer&lt;</text>
<text text-anchor="middle" x="704.5" y="-398.5" font-family="Helvetica,sans-Serif" font-size="10.00"> Self &gt;</text>
</a>
</g>
</g>
<!-- Node22&#45;&gt;Node21 -->
<g id="edge24" class="edge">
<title>Node22&#45;&gt;Node21</title>
<path fill="none" stroke="#9a32cd" stroke-dasharray="5,2" d="M768.36,-399.95C809.05,-395.67 863.17,-389.89 911,-384.5 916.82,-383.84 922.82,-383.16 928.87,-382.46"/>
<polygon fill="#9a32cd" stroke="#9a32cd" points="767.89,-396.48 758.31,-401.01 768.62,-403.44 767.89,-396.48"/>
<text text-anchor="middle" x="852.5" y="-399.5" font-family="Helvetica,sans-Serif" font-size="10.00"> elements</text>
</g>
<!-- Node23 -->
<g id="node23" class="node">
<title>Node23</title>
<g id="a_node23"><a xlink:href="classitk_1_1SmartPointer.html" target="_top" xlink:title=" ">
<polygon fill="white" stroke="black" points="942.5,-0.5 942.5,-30.5 1084.5,-30.5 1084.5,-0.5 942.5,-0.5"/>
<text text-anchor="start" x="950.5" y="-18.5" font-family="Helvetica,sans-Serif" font-size="10.00">itk::SmartPointer&lt;</text>
<text text-anchor="middle" x="1013.5" y="-7.5" font-family="Helvetica,sans-Serif" font-size="10.00"> itk::MultiThreaderBase &gt;</text>
</a>
</g>
</g>
<!-- Node23&#45;&gt;Node2 -->
<g id="edge26" class="edge">
<title>Node23&#45;&gt;Node2</title>
<path fill="none" stroke="#9a32cd" stroke-dasharray="5,2" d="M1094.83,-4.8C1145.61,-2.2 1210.4,-6.95 1258,-38.5 1301.14,-67.09 1319.43,-131.97 1325.01,-156.69"/>
<polygon fill="#9a32cd" stroke="#9a32cd" points="1094.31,-1.33 1084.55,-5.44 1094.74,-8.32 1094.31,-1.33"/>
<text text-anchor="middle" x="1187" y="-41.5" font-family="Helvetica,sans-Serif" font-size="10.00"> m_MultiThreader</text>
</g>
</g>
</svg>
