<?xml version="1.0" encoding="UTF-8" standalone="no"?>
<!DOCTYPE svg PUBLIC "-//W3C//DTD SVG 1.1//EN"
 "http://www.w3.org/Graphics/SVG/1.1/DTD/svg11.dtd">
<!-- Generated by graphviz version 2.43.0 (0)
 -->
<!-- Title: itk::GaussianExponentialDiffeomorphicTransform&lt; TParametersValueType, VDimension &gt; Pages: 1 -->
<svg width="2677pt" height="219pt"
 viewBox="0.00 0.00 2677.00 219.00" xmlns="http://www.w3.org/2000/svg" xmlns:xlink="http://www.w3.org/1999/xlink">
<g id="graph0" class="graph" transform="scale(1 1) rotate(0) translate(4 215)">
<title>itk::GaussianExponentialDiffeomorphicTransform&lt; TParametersValueType, VDimension &gt;</title>
<polygon fill="white" stroke="transparent" points="-4,4 -4,-215 2673,-215 2673,4 -4,4"/>
<!-- Node1 -->
<g id="node1" class="node">
<title>Node1</title>
<g id="a_node1"><a xlink:title="Exponential transform using a Gaussian smoothing kernel.">
<polygon fill="#bfbfbf" stroke="black" points="2527,-89 2527,-141 2669,-141 2669,-89 2527,-89"/>
<text text-anchor="start" x="2535" y="-129" font-family="Helvetica,sans-Serif" font-size="10.00">itk::GaussianExponential</text>
<text text-anchor="start" x="2535" y="-118" font-family="Helvetica,sans-Serif" font-size="10.00">DiffeomorphicTransform</text>
<text text-anchor="start" x="2535" y="-107" font-family="Helvetica,sans-Serif" font-size="10.00">&lt; TParametersValueType,</text>
<text text-anchor="middle" x="2598" y="-96" font-family="Helvetica,sans-Serif" font-size="10.00"> VDimension &gt;</text>
</a>
</g>
</g>
<!-- Node2 -->
<g id="node2" class="node">
<title>Node2</title>
<g id="a_node2"><a xlink:href="classitk_1_1ConstantVelocityFieldTransform.html" target="_top" xlink:title="Provides local/dense/high&#45;dimensionality transformation via a a constant velocity field.">
<polygon fill="white" stroke="black" points="2141,-122.5 2141,-163.5 2332,-163.5 2332,-122.5 2141,-122.5"/>
<text text-anchor="start" x="2149" y="-151.5" font-family="Helvetica,sans-Serif" font-size="10.00">itk::ConstantVelocityField</text>
<text text-anchor="start" x="2149" y="-140.5" font-family="Helvetica,sans-Serif" font-size="10.00">Transform&lt; TParametersValueType,</text>
<text text-anchor="middle" x="2236.5" y="-129.5" font-family="Helvetica,sans-Serif" font-size="10.00"> VDimension &gt;</text>
</a>
</g>
</g>
<!-- Node2&#45;&gt;Node1 -->
<g id="edge1" class="edge">
<title>Node2&#45;&gt;Node1</title>
<path fill="none" stroke="midnightblue" d="M2342.59,-134.82C2401.94,-130.19 2474.51,-124.54 2526.93,-120.46"/>
<polygon fill="midnightblue" stroke="midnightblue" points="2342.12,-131.34 2332.42,-135.61 2342.67,-138.32 2342.12,-131.34"/>
</g>
<!-- Node3 -->
<g id="node3" class="node">
<title>Node3</title>
<g id="a_node3"><a xlink:href="classitk_1_1DisplacementFieldTransform.html" target="_top" xlink:title="Provides local/dense/high&#45;dimensionality transformation via a a displacement field.">
<polygon fill="white" stroke="black" points="1887.5,-128 1887.5,-158 2102.5,-158 2102.5,-128 1887.5,-128"/>
<text text-anchor="start" x="1895.5" y="-146" font-family="Helvetica,sans-Serif" font-size="10.00">itk::DisplacementFieldTransform</text>
<text text-anchor="middle" x="1995" y="-135" font-family="Helvetica,sans-Serif" font-size="10.00">&lt; TParametersValueType, VDimension &gt;</text>
</a>
</g>
</g>
<!-- Node3&#45;&gt;Node2 -->
<g id="edge2" class="edge">
<title>Node3&#45;&gt;Node2</title>
<path fill="none" stroke="midnightblue" d="M2112.96,-143C2122.35,-143 2131.77,-143 2140.97,-143"/>
<polygon fill="midnightblue" stroke="midnightblue" points="2112.79,-139.5 2102.79,-143 2112.79,-146.5 2112.79,-139.5"/>
</g>
<!-- Node4 -->
<g id="node4" class="node">
<title>Node4</title>
<g id="a_node4"><a xlink:href="classitk_1_1Transform.html" target="_top" xlink:title=" ">
<polygon fill="white" stroke="black" points="1500,-105 1500,-135 1708,-135 1708,-105 1500,-105"/>
<text text-anchor="start" x="1508" y="-123" font-family="Helvetica,sans-Serif" font-size="10.00">itk::Transform&lt; TParameters</text>
<text text-anchor="middle" x="1604" y="-112" font-family="Helvetica,sans-Serif" font-size="10.00">ValueType, VDimension, VDimension &gt;</text>
</a>
</g>
</g>
<!-- Node4&#45;&gt;Node3 -->
<g id="edge3" class="edge">
<title>Node4&#45;&gt;Node3</title>
<path fill="none" stroke="midnightblue" d="M1718.29,-119.11C1764.75,-119.54 1819.02,-121.05 1868,-125 1877.58,-125.77 1887.54,-126.8 1897.48,-127.98"/>
<polygon fill="midnightblue" stroke="midnightblue" points="1718.22,-115.61 1708.19,-119.03 1718.16,-122.61 1718.22,-115.61"/>
</g>
<!-- Node5 -->
<g id="node5" class="node">
<title>Node5</title>
<g id="a_node5"><a xlink:href="classitk_1_1TransformBaseTemplate.html" target="_top" xlink:title=" ">
<polygon fill="white" stroke="black" points="1238,-101 1238,-131 1391,-131 1391,-101 1238,-101"/>
<text text-anchor="start" x="1246" y="-119" font-family="Helvetica,sans-Serif" font-size="10.00">itk::TransformBaseTemplate</text>
<text text-anchor="middle" x="1314.5" y="-108" font-family="Helvetica,sans-Serif" font-size="10.00">&lt; TParametersValueType &gt;</text>
</a>
</g>
</g>
<!-- Node5&#45;&gt;Node4 -->
<g id="edge4" class="edge">
<title>Node5&#45;&gt;Node4</title>
<path fill="none" stroke="midnightblue" d="M1401.36,-117.19C1432.32,-117.63 1467.58,-118.12 1499.87,-118.57"/>
<polygon fill="midnightblue" stroke="midnightblue" points="1401.08,-113.69 1391.04,-117.05 1400.99,-120.69 1401.08,-113.69"/>
</g>
<!-- Node6 -->
<g id="node6" class="node">
<title>Node6</title>
<g id="a_node6"><a xlink:href="classitk_1_1Object.html" target="_top" xlink:title="Base class for most ITK classes.">
<polygon fill="white" stroke="black" points="977,-102.5 977,-121.5 1044,-121.5 1044,-102.5 977,-102.5"/>
<text text-anchor="middle" x="1010.5" y="-109.5" font-family="Helvetica,sans-Serif" font-size="10.00">itk::Object</text>
</a>
</g>
</g>
<!-- Node6&#45;&gt;Node5 -->
<g id="edge5" class="edge">
<title>Node6&#45;&gt;Node5</title>
<path fill="none" stroke="midnightblue" d="M1054.38,-112.57C1102.07,-113.2 1180,-114.23 1237.96,-115"/>
<polygon fill="midnightblue" stroke="midnightblue" points="1054.15,-109.06 1044.11,-112.43 1054.06,-116.06 1054.15,-109.06"/>
</g>
<!-- Node7 -->
<g id="node7" class="node">
<title>Node7</title>
<g id="a_node7"><a xlink:href="classitk_1_1LightObject.html" target="_top" xlink:title="Light weight base class for most itk classes.">
<polygon fill="white" stroke="black" points="660.5,-153.5 660.5,-172.5 751.5,-172.5 751.5,-153.5 660.5,-153.5"/>
<text text-anchor="middle" x="706" y="-160.5" font-family="Helvetica,sans-Serif" font-size="10.00">itk::LightObject</text>
</a>
</g>
</g>
<!-- Node7&#45;&gt;Node6 -->
<g id="edge6" class="edge">
<title>Node7&#45;&gt;Node6</title>
<path fill="none" stroke="midnightblue" d="M761.74,-153.77C824.47,-143.19 925.23,-126.21 976.79,-117.51"/>
<polygon fill="midnightblue" stroke="midnightblue" points="760.91,-150.36 751.63,-155.47 762.08,-157.26 760.91,-150.36"/>
</g>
<!-- Node8 -->
<g id="node8" class="node">
<title>Node8</title>
<g id="a_node8"><a xlink:title=" ">
<polygon fill="white" stroke="#bfbfbf" points="378,-156.5 378,-175.5 485,-175.5 485,-156.5 378,-156.5"/>
<text text-anchor="middle" x="431.5" y="-163.5" font-family="Helvetica,sans-Serif" font-size="10.00">std::atomic&lt; int &gt;</text>
</a>
</g>
</g>
<!-- Node8&#45;&gt;Node7 -->
<g id="edge7" class="edge">
<title>Node8&#45;&gt;Node7</title>
<path fill="none" stroke="#9a32cd" stroke-dasharray="5,2" d="M495.18,-165.31C545.64,-164.75 615.33,-163.99 660.29,-163.49"/>
<polygon fill="#9a32cd" stroke="#9a32cd" points="495,-161.81 485.04,-165.42 495.08,-168.81 495,-161.81"/>
<text text-anchor="middle" x="572.5" y="-167" font-family="Helvetica,sans-Serif" font-size="10.00"> m_ReferenceCount</text>
</g>
<!-- Node9 -->
<g id="node9" class="node">
<title>Node9</title>
<g id="a_node9"><a xlink:title="STL class.">
<polygon fill="white" stroke="#bfbfbf" points="673.5,-112.5 673.5,-131.5 738.5,-131.5 738.5,-112.5 673.5,-112.5"/>
<text text-anchor="middle" x="706" y="-119.5" font-family="Helvetica,sans-Serif" font-size="10.00">std::string</text>
</a>
</g>
</g>
<!-- Node9&#45;&gt;Node4 -->
<g id="edge18" class="edge">
<title>Node9&#45;&gt;Node4</title>
<path fill="none" stroke="#9a32cd" stroke-dasharray="5,2" d="M748.78,-125.4C855.68,-133.62 1147.85,-153.01 1391,-141 1426.56,-139.24 1465.34,-135.84 1499.91,-132.27"/>
<polygon fill="#9a32cd" stroke="#9a32cd" points="748.97,-121.91 738.72,-124.62 748.42,-128.88 748.97,-121.91"/>
<text text-anchor="middle" x="1166.5" y="-158" font-family="Helvetica,sans-Serif" font-size="10.00"> m_InputSpaceName</text>
<text text-anchor="middle" x="1166.5" y="-147" font-family="Helvetica,sans-Serif" font-size="10.00">m_OutputSpaceName</text>
</g>
<!-- Node9&#45;&gt;Node6 -->
<g id="edge8" class="edge">
<title>Node9&#45;&gt;Node6</title>
<path fill="none" stroke="#9a32cd" stroke-dasharray="5,2" d="M748.79,-116.67C762.24,-115.19 777.23,-113.77 791,-113 856.9,-109.33 934.16,-110.19 976.89,-111.11"/>
<polygon fill="#9a32cd" stroke="#9a32cd" points="748.38,-113.2 738.85,-117.81 749.18,-120.15 748.38,-113.2"/>
<text text-anchor="middle" x="849.5" y="-116" font-family="Helvetica,sans-Serif" font-size="10.00"> m_ObjectName</text>
</g>
<!-- Node10 -->
<g id="node10" class="node">
<title>Node10</title>
<g id="a_node10"><a xlink:title="STL class.">
<polygon fill="white" stroke="#bfbfbf" points="379.5,-107 379.5,-137 483.5,-137 483.5,-107 379.5,-107"/>
<text text-anchor="start" x="387.5" y="-125" font-family="Helvetica,sans-Serif" font-size="10.00">std::basic_string&lt;</text>
<text text-anchor="middle" x="431.5" y="-114" font-family="Helvetica,sans-Serif" font-size="10.00"> char &gt;</text>
</a>
</g>
</g>
<!-- Node10&#45;&gt;Node9 -->
<g id="edge9" class="edge">
<title>Node10&#45;&gt;Node9</title>
<path fill="none" stroke="midnightblue" d="M493.85,-122C549.49,-122 629.3,-122 673.14,-122"/>
<polygon fill="midnightblue" stroke="midnightblue" points="493.76,-118.5 483.76,-122 493.76,-125.5 493.76,-118.5"/>
</g>
<!-- Node11 -->
<g id="node11" class="node">
<title>Node11</title>
<g id="a_node11"><a xlink:href="classitk_1_1MetaDataDictionary.html" target="_top" xlink:title="Provides a mechanism for storing a collection of arbitrary data types.">
<polygon fill="white" stroke="black" points="639,-23.5 639,-42.5 773,-42.5 773,-23.5 639,-23.5"/>
<text text-anchor="middle" x="706" y="-30.5" font-family="Helvetica,sans-Serif" font-size="10.00">itk::MetaDataDictionary</text>
</a>
</g>
</g>
<!-- Node11&#45;&gt;Node6 -->
<g id="edge10" class="edge">
<title>Node11&#45;&gt;Node6</title>
<path fill="none" stroke="#9a32cd" stroke-dasharray="5,2" d="M783.21,-24.94C823.35,-24.44 871.64,-30.11 908,-54 921.64,-62.96 913.31,-75.74 926,-86 940.4,-97.65 960.04,-104.1 976.65,-107.66"/>
<polygon fill="#9a32cd" stroke="#9a32cd" points="783.11,-21.44 773.2,-25.19 783.28,-28.44 783.11,-21.44"/>
<text text-anchor="middle" x="849.5" y="-57" font-family="Helvetica,sans-Serif" font-size="10.00"> m_MetaDataDictionary</text>
</g>
<!-- Node12 -->
<g id="node12" class="node">
<title>Node12</title>
<g id="a_node12"><a xlink:title=" ">
<polygon fill="white" stroke="#bfbfbf" points="357,-18 357,-48 506,-48 506,-18 357,-18"/>
<text text-anchor="start" x="365" y="-36" font-family="Helvetica,sans-Serif" font-size="10.00">std::shared_ptr&lt; MetaData</text>
<text text-anchor="middle" x="431.5" y="-25" font-family="Helvetica,sans-Serif" font-size="10.00">DictionaryMapType &gt;</text>
</a>
</g>
</g>
<!-- Node12&#45;&gt;Node11 -->
<g id="edge11" class="edge">
<title>Node12&#45;&gt;Node11</title>
<path fill="none" stroke="#9a32cd" stroke-dasharray="5,2" d="M516.34,-33C555.65,-33 601.82,-33 638.65,-33"/>
<polygon fill="#9a32cd" stroke="#9a32cd" points="516.24,-29.5 506.24,-33 516.24,-36.5 516.24,-29.5"/>
<text text-anchor="middle" x="572.5" y="-36" font-family="Helvetica,sans-Serif" font-size="10.00"> m_Dictionary</text>
</g>
<!-- Node13 -->
<g id="node13" class="node">
<title>Node13</title>
<g id="a_node13"><a xlink:title="STL class.">
<polygon fill="white" stroke="#bfbfbf" points="114,-23.5 114,-42.5 215,-42.5 215,-23.5 114,-23.5"/>
<text text-anchor="middle" x="164.5" y="-30.5" font-family="Helvetica,sans-Serif" font-size="10.00">std::map&lt; K, T &gt;</text>
</a>
</g>
</g>
<!-- Node13&#45;&gt;Node12 -->
<g id="edge12" class="edge">
<title>Node13&#45;&gt;Node12</title>
<path fill="none" stroke="#9a32cd" stroke-dasharray="5,2" d="M225.18,-33C264.19,-33 315.41,-33 356.93,-33"/>
<polygon fill="#9a32cd" stroke="#9a32cd" points="225.03,-29.5 215.03,-33 225.03,-36.5 225.03,-29.5"/>
<text text-anchor="middle" x="286" y="-36" font-family="Helvetica,sans-Serif" font-size="10.00"> ptr</text>
</g>
<!-- Node14 -->
<g id="node14" class="node">
<title>Node14</title>
<g id="a_node14"><a xlink:title=" ">
<polygon fill="white" stroke="#bfbfbf" points="0,-0.5 0,-19.5 29,-19.5 29,-0.5 0,-0.5"/>
<text text-anchor="middle" x="14.5" y="-7.5" font-family="Helvetica,sans-Serif" font-size="10.00">K</text>
</a>
</g>
</g>
<!-- Node14&#45;&gt;Node13 -->
<g id="edge13" class="edge">
<title>Node14&#45;&gt;Node13</title>
<path fill="none" stroke="#9a32cd" stroke-dasharray="5,2" d="M39.44,-8.42C55.54,-7.81 77.18,-7.89 96,-11 111.08,-13.49 127.39,-18.73 140.2,-23.47"/>
<polygon fill="#9a32cd" stroke="#9a32cd" points="39.1,-4.93 29.28,-8.92 39.44,-11.92 39.1,-4.93"/>
<text text-anchor="middle" x="71.5" y="-14" font-family="Helvetica,sans-Serif" font-size="10.00"> keys</text>
</g>
<!-- Node15 -->
<g id="node15" class="node">
<title>Node15</title>
<g id="a_node15"><a xlink:title=" ">
<polygon fill="white" stroke="#bfbfbf" points="0,-53.5 0,-72.5 29,-72.5 29,-53.5 0,-53.5"/>
<text text-anchor="middle" x="14.5" y="-60.5" font-family="Helvetica,sans-Serif" font-size="10.00">T</text>
</a>
</g>
</g>
<!-- Node15&#45;&gt;Node13 -->
<g id="edge14" class="edge">
<title>Node15&#45;&gt;Node13</title>
<path fill="none" stroke="#9a32cd" stroke-dasharray="5,2" d="M38.71,-53.53C41.48,-52.59 44.28,-51.72 47,-51 68.66,-45.27 93.11,-41.15 113.99,-38.31"/>
<polygon fill="#9a32cd" stroke="#9a32cd" points="37.25,-50.34 29.09,-57.1 39.69,-56.9 37.25,-50.34"/>
<text text-anchor="middle" x="71.5" y="-54" font-family="Helvetica,sans-Serif" font-size="10.00"> elements</text>
</g>
<!-- Node17 -->
<g id="node17" class="node">
<title>Node17</title>
<g id="a_node17"><a xlink:title="STL class.">
<polygon fill="white" stroke="#bfbfbf" points="114.5,-68.5 114.5,-87.5 214.5,-87.5 214.5,-68.5 114.5,-68.5"/>
<text text-anchor="middle" x="164.5" y="-75.5" font-family="Helvetica,sans-Serif" font-size="10.00">std::atomic&lt; T &gt;</text>
</a>
</g>
</g>
<!-- Node15&#45;&gt;Node17 -->
<g id="edge17" class="edge">
<title>Node15&#45;&gt;Node17</title>
<path fill="none" stroke="#9a32cd" stroke-dasharray="5,2" d="M39.33,-65.42C59.54,-67.46 89.19,-70.47 114.45,-73.03"/>
<polygon fill="#9a32cd" stroke="#9a32cd" points="39.46,-61.91 29.16,-64.38 38.75,-68.87 39.46,-61.91"/>
<text text-anchor="middle" x="71.5" y="-73" font-family="Helvetica,sans-Serif" font-size="10.00"> ptr</text>
</g>
<!-- Node16 -->
<g id="node16" class="node">
<title>Node16</title>
<g id="a_node16"><a xlink:href="classitk_1_1TimeStamp.html" target="_top" xlink:title="Generate a unique, increasing time value.">
<polygon fill="white" stroke="black" points="526.5,-68.5 526.5,-87.5 618.5,-87.5 618.5,-68.5 526.5,-68.5"/>
<text text-anchor="middle" x="572.5" y="-75.5" font-family="Helvetica,sans-Serif" font-size="10.00">itk::TimeStamp</text>
</a>
</g>
</g>
<!-- Node16&#45;&gt;Node6 -->
<g id="edge15" class="edge">
<title>Node16&#45;&gt;Node6</title>
<path fill="none" stroke="#9a32cd" stroke-dasharray="5,2" d="M628.77,-81.67C668.83,-84.37 724.28,-88.23 773,-92 845.92,-97.64 931.42,-105.07 977,-109.1"/>
<polygon fill="#9a32cd" stroke="#9a32cd" points="628.89,-78.17 618.68,-80.99 628.42,-85.15 628.89,-78.17"/>
<text text-anchor="middle" x="706" y="-95" font-family="Helvetica,sans-Serif" font-size="10.00"> m_MTime</text>
</g>
<!-- Node17&#45;&gt;Node16 -->
<g id="edge16" class="edge">
<title>Node17&#45;&gt;Node16</title>
<path fill="none" stroke="#9a32cd" stroke-dasharray="5,2" d="M225.03,-78C306.93,-78 452.57,-78 526.2,-78"/>
<polygon fill="#9a32cd" stroke="#9a32cd" points="224.88,-74.5 214.88,-78 224.88,-81.5 224.88,-74.5"/>
<text text-anchor="middle" x="286" y="-81" font-family="Helvetica,sans-Serif" font-size="10.00"> m_GlobalTimeStamp</text>
</g>
<!-- Node18 -->
<g id="node18" class="node">
<title>Node18</title>
<g id="a_node18"><a xlink:href="classitk_1_1SmartPointer.html" target="_top" xlink:title=" ">
<polygon fill="white" stroke="black" points="1550.5,-171 1550.5,-201 1657.5,-201 1657.5,-171 1550.5,-171"/>
<text text-anchor="start" x="1558.5" y="-189" font-family="Helvetica,sans-Serif" font-size="10.00">itk::SmartPointer&lt;</text>
<text text-anchor="middle" x="1604" y="-178" font-family="Helvetica,sans-Serif" font-size="10.00"> Self &gt;</text>
</a>
</g>
</g>
<!-- Node18&#45;&gt;Node2 -->
<g id="edge20" class="edge">
<title>Node18&#45;&gt;Node2</title>
<path fill="none" stroke="#9a32cd" stroke-dasharray="5,2" d="M1667.88,-187.85C1686.58,-188.33 1707.12,-188.77 1726,-189 1894.25,-191.09 1937.35,-191.2 2104,-168 2115.97,-166.33 2128.5,-164.31 2140.87,-162.15"/>
<polygon fill="#9a32cd" stroke="#9a32cd" points="1667.79,-184.35 1657.71,-187.59 1667.61,-191.35 1667.79,-184.35"/>
<text text-anchor="middle" x="1995" y="-203" font-family="Helvetica,sans-Serif" font-size="10.00"> m_ConstantVelocityFieldInterpolator</text>
<text text-anchor="middle" x="1995" y="-192" font-family="Helvetica,sans-Serif" font-size="10.00">m_ConstantVelocityField</text>
</g>
<!-- Node18&#45;&gt;Node3 -->
<g id="edge19" class="edge">
<title>Node18&#45;&gt;Node3</title>
<path fill="none" stroke="#9a32cd" stroke-dasharray="5,2" d="M1649.32,-167.19C1671.84,-158.61 1699.9,-149.4 1726,-145 1778.65,-136.12 1837.95,-134.8 1887.35,-136.05"/>
<polygon fill="#9a32cd" stroke="#9a32cd" points="1647.75,-164.04 1639.71,-170.93 1650.29,-170.56 1647.75,-164.04"/>
<text text-anchor="middle" x="1797" y="-181" font-family="Helvetica,sans-Serif" font-size="10.00"> m_DisplacementField</text>
<text text-anchor="middle" x="1797" y="-170" font-family="Helvetica,sans-Serif" font-size="10.00">m_Interpolator</text>
<text text-anchor="middle" x="1797" y="-159" font-family="Helvetica,sans-Serif" font-size="10.00">m_InverseDisplacementField</text>
<text text-anchor="middle" x="1797" y="-148" font-family="Helvetica,sans-Serif" font-size="10.00">m_InverseInterpolator</text>
</g>
<!-- Node19 -->
<g id="node19" class="node">
<title>Node19</title>
<g id="a_node19"><a xlink:href="classitk_1_1GaussianOperator.html" target="_top" xlink:title=" ">
<polygon fill="white" stroke="black" points="2158,-73 2158,-103 2315,-103 2315,-73 2158,-73"/>
<text text-anchor="start" x="2166" y="-91" font-family="Helvetica,sans-Serif" font-size="10.00">itk::GaussianOperator</text>
<text text-anchor="middle" x="2236.5" y="-80" font-family="Helvetica,sans-Serif" font-size="10.00">&lt; ScalarType, VDimension &gt;</text>
</a>
</g>
</g>
<!-- Node19&#45;&gt;Node1 -->
<g id="edge21" class="edge">
<title>Node19&#45;&gt;Node1</title>
<path fill="none" stroke="#9a32cd" stroke-dasharray="5,2" d="M2325.22,-94.59C2387.22,-99.24 2469.23,-105.4 2526.88,-109.73"/>
<polygon fill="#9a32cd" stroke="#9a32cd" points="2325.3,-91.08 2315.06,-93.83 2324.77,-98.06 2325.3,-91.08"/>
<text text-anchor="middle" x="2429.5" y="-110" font-family="Helvetica,sans-Serif" font-size="10.00"> m_GaussianSmoothingOperator</text>
</g>
<!-- Node20 -->
<g id="node20" class="node">
<title>Node20</title>
<g id="a_node20"><a xlink:href="classitk_1_1NeighborhoodOperator.html" target="_top" xlink:title=" ">
<polygon fill="white" stroke="black" points="1886,-66.5 1886,-107.5 2104,-107.5 2104,-66.5 1886,-66.5"/>
<text text-anchor="start" x="1894" y="-95.5" font-family="Helvetica,sans-Serif" font-size="10.00">itk::NeighborhoodOperator</text>
<text text-anchor="start" x="1894" y="-84.5" font-family="Helvetica,sans-Serif" font-size="10.00">&lt; ScalarType, VDimension,</text>
<text text-anchor="middle" x="1995" y="-73.5" font-family="Helvetica,sans-Serif" font-size="10.00"> NeighborhoodAllocator&lt; ScalarType &gt; &gt;</text>
</a>
</g>
</g>
<!-- Node20&#45;&gt;Node19 -->
<g id="edge22" class="edge">
<title>Node20&#45;&gt;Node19</title>
<path fill="none" stroke="midnightblue" d="M2114.4,-87.49C2129.16,-87.56 2143.95,-87.62 2157.88,-87.68"/>
<polygon fill="midnightblue" stroke="midnightblue" points="2114.2,-83.99 2104.19,-87.45 2114.17,-90.99 2114.2,-83.99"/>
</g>
<!-- Node21 -->
<g id="node21" class="node">
<title>Node21</title>
<g id="a_node21"><a xlink:href="classitk_1_1Neighborhood.html" target="_top" xlink:title=" ">
<polygon fill="white" stroke="black" points="1534,-34 1534,-86 1674,-86 1674,-34 1534,-34"/>
<text text-anchor="start" x="1542" y="-74" font-family="Helvetica,sans-Serif" font-size="10.00">itk::Neighborhood&lt;</text>
<text text-anchor="start" x="1542" y="-63" font-family="Helvetica,sans-Serif" font-size="10.00"> ScalarType, VDimension,</text>
<text text-anchor="start" x="1542" y="-52" font-family="Helvetica,sans-Serif" font-size="10.00"> NeighborhoodAllocator</text>
<text text-anchor="middle" x="1604" y="-41" font-family="Helvetica,sans-Serif" font-size="10.00">&lt; ScalarType &gt; &gt;</text>
</a>
</g>
</g>
<!-- Node21&#45;&gt;Node20 -->
<g id="edge23" class="edge">
<title>Node21&#45;&gt;Node20</title>
<path fill="none" stroke="midnightblue" d="M1684.32,-65.51C1742.44,-69.54 1821.99,-75.06 1885.91,-79.5"/>
<polygon fill="midnightblue" stroke="midnightblue" points="1684.32,-62 1674.1,-64.8 1683.83,-68.98 1684.32,-62"/>
</g>
<!-- Node22 -->
<g id="node22" class="node">
<title>Node22</title>
<g id="a_node22"><a xlink:title=" ">
<polygon fill="white" stroke="#bfbfbf" points="1245,-57.5 1245,-76.5 1384,-76.5 1384,-57.5 1245,-57.5"/>
<text text-anchor="middle" x="1314.5" y="-64.5" font-family="Helvetica,sans-Serif" font-size="10.00">std::vector&lt; itk::Offset &gt;</text>
</a>
</g>
</g>
<!-- Node22&#45;&gt;Node21 -->
<g id="edge24" class="edge">
<title>Node22&#45;&gt;Node21</title>
<path fill="none" stroke="#9a32cd" stroke-dasharray="5,2" d="M1394.36,-65.08C1437.99,-64.02 1491.7,-62.71 1533.7,-61.69"/>
<polygon fill="#9a32cd" stroke="#9a32cd" points="1394.28,-61.58 1384.36,-65.32 1394.45,-68.58 1394.28,-61.58"/>
<text text-anchor="middle" x="1445.5" y="-67" font-family="Helvetica,sans-Serif" font-size="10.00"> m_OffsetTable</text>
</g>
<!-- Node23 -->
<g id="node23" class="node">
<title>Node23</title>
<g id="a_node23"><a xlink:href="structitk_1_1Offset.html" target="_top" xlink:title="Represent a n&#45;dimensional offset between two n&#45;dimensional indexes of n&#45;dimensional image.">
<polygon fill="white" stroke="black" points="937.5,-57.5 937.5,-76.5 1083.5,-76.5 1083.5,-57.5 937.5,-57.5"/>
<text text-anchor="middle" x="1010.5" y="-64.5" font-family="Helvetica,sans-Serif" font-size="10.00">itk::Offset&lt; VDimension &gt;</text>
</a>
</g>
</g>
<!-- Node23&#45;&gt;Node22 -->
<g id="edge25" class="edge">
<title>Node23&#45;&gt;Node22</title>
<path fill="none" stroke="#9a32cd" stroke-dasharray="5,2" d="M1094.06,-67C1141.39,-67 1200.09,-67 1244.87,-67"/>
<polygon fill="#9a32cd" stroke="#9a32cd" points="1093.84,-63.5 1083.84,-67 1093.84,-70.5 1093.84,-63.5"/>
<text text-anchor="middle" x="1166.5" y="-70" font-family="Helvetica,sans-Serif" font-size="10.00"> elements</text>
</g>
<!-- Node24 -->
<g id="node24" class="node">
<title>Node24</title>
<g id="a_node24"><a xlink:href="classitk_1_1NeighborhoodAllocator.html" target="_top" xlink:title=" ">
<polygon fill="white" stroke="black" points="1241,-8 1241,-38 1388,-38 1388,-8 1241,-8"/>
<text text-anchor="start" x="1249" y="-26" font-family="Helvetica,sans-Serif" font-size="10.00">itk::NeighborhoodAllocator</text>
<text text-anchor="middle" x="1314.5" y="-15" font-family="Helvetica,sans-Serif" font-size="10.00">&lt; ScalarType &gt;</text>
</a>
</g>
</g>
<!-- Node24&#45;&gt;Node21 -->
<g id="edge26" class="edge">
<title>Node24&#45;&gt;Node21</title>
<path fill="none" stroke="#9a32cd" stroke-dasharray="5,2" d="M1398.2,-33.64C1441.19,-39.18 1493.13,-45.86 1533.94,-51.11"/>
<polygon fill="#9a32cd" stroke="#9a32cd" points="1398.41,-30.14 1388.05,-32.34 1397.52,-37.08 1398.41,-30.14"/>
<text text-anchor="middle" x="1445.5" y="-47" font-family="Helvetica,sans-Serif" font-size="10.00"> m_DataBuffer</text>
</g>
<!-- Node25 -->
<g id="node25" class="node">
<title>Node25</title>
<g id="a_node25"><a xlink:title=" ">
<polygon fill="white" stroke="#bfbfbf" points="926,-13.5 926,-32.5 1095,-32.5 1095,-13.5 926,-13.5"/>
<text text-anchor="middle" x="1010.5" y="-20.5" font-family="Helvetica,sans-Serif" font-size="10.00">std::unique_ptr&lt; ScalarType[]&gt;</text>
</a>
</g>
</g>
<!-- Node25&#45;&gt;Node24 -->
<g id="edge27" class="edge">
<title>Node25&#45;&gt;Node24</title>
<path fill="none" stroke="#9a32cd" stroke-dasharray="5,2" d="M1105.29,-23C1149,-23 1200.21,-23 1240.91,-23"/>
<polygon fill="#9a32cd" stroke="#9a32cd" points="1105.22,-19.5 1095.22,-23 1105.22,-26.5 1105.22,-19.5"/>
<text text-anchor="middle" x="1166.5" y="-26" font-family="Helvetica,sans-Serif" font-size="10.00"> m_Data</text>
</g>
</g>
</svg>
