<?xml version="1.0" encoding="UTF-8" standalone="no"?>
<!DOCTYPE svg PUBLIC "-//W3C//DTD SVG 1.1//EN"
 "http://www.w3.org/Graphics/SVG/1.1/DTD/svg11.dtd">
<!-- Generated by graphviz version 2.43.0 (0)
 -->
<!-- Title: itk::ObjectFactoryBase Pages: 1 -->
<svg width="784pt" height="1765pt"
 viewBox="0.00 0.00 784.00 1765.00" xmlns="http://www.w3.org/2000/svg" xmlns:xlink="http://www.w3.org/1999/xlink">
<g id="graph0" class="graph" transform="scale(1 1) rotate(0) translate(4 1761)">
<title>itk::ObjectFactoryBase</title>
<polygon fill="white" stroke="transparent" points="-4,4 -4,-1761 780,-1761 780,4 -4,4"/>
<!-- Node1 -->
<g id="node1" class="node">
<title>Node1</title>
<g id="a_node1"><a xlink:title="Create instances of classes using an object factory.">
<polygon fill="#bfbfbf" stroke="black" points="230,-829.5 230,-848.5 356,-848.5 356,-829.5 230,-829.5"/>
<text text-anchor="middle" x="293" y="-836.5" font-family="Helvetica,sans-Serif" font-size="10.00">itk::ObjectFactoryBase</text>
</a>
</g>
</g>
<!-- Node4 -->
<g id="node4" class="node">
<title>Node4</title>
<g id="a_node4"><a xlink:href="classitk_1_1BioRadImageIOFactory.html" target="_top" xlink:title="Create instances of BioRadImageIO objects using an object factory.">
<polygon fill="white" stroke="black" points="411,-1737.5 411,-1756.5 557,-1756.5 557,-1737.5 411,-1737.5"/>
<text text-anchor="middle" x="484" y="-1744.5" font-family="Helvetica,sans-Serif" font-size="10.00">itk::BioRadImageIOFactory</text>
</a>
</g>
</g>
<!-- Node1&#45;&gt;Node4 -->
<g id="edge3" class="edge">
<title>Node1&#45;&gt;Node4</title>
<path fill="none" stroke="midnightblue" d="M294.81,-858.81C300.09,-983.92 331.38,-1661.26 392,-1728 397.21,-1733.73 403.66,-1737.99 410.71,-1741.11"/>
<polygon fill="midnightblue" stroke="midnightblue" points="298.3,-858.59 294.39,-848.75 291.31,-858.88 298.3,-858.59"/>
</g>
<!-- Node5 -->
<g id="node5" class="node">
<title>Node5</title>
<g id="a_node5"><a xlink:href="classitk_1_1BMPImageIOFactory.html" target="_top" xlink:title="Create instances of BMPImageIO objects using an object factory.">
<polygon fill="white" stroke="black" points="417,-1699.5 417,-1718.5 551,-1718.5 551,-1699.5 417,-1699.5"/>
<text text-anchor="middle" x="484" y="-1706.5" font-family="Helvetica,sans-Serif" font-size="10.00">itk::BMPImageIOFactory</text>
</a>
</g>
</g>
<!-- Node1&#45;&gt;Node5 -->
<g id="edge4" class="edge">
<title>Node1&#45;&gt;Node5</title>
<path fill="none" stroke="midnightblue" d="M294.91,-858.71C300.68,-980.4 333.91,-1626.35 392,-1690 398.64,-1697.27 407.28,-1702.16 416.59,-1705.38"/>
<polygon fill="midnightblue" stroke="midnightblue" points="298.4,-858.43 294.43,-848.61 291.4,-858.76 298.4,-858.43"/>
</g>
<!-- Node6 -->
<g id="node6" class="node">
<title>Node6</title>
<g id="a_node6"><a xlink:href="classitk_1_1Bruker2dseqImageIOFactory.html" target="_top" xlink:title="Create instances of Bruker2dseqImageIO objects using an object factory.">
<polygon fill="white" stroke="black" points="397.5,-1661.5 397.5,-1680.5 570.5,-1680.5 570.5,-1661.5 397.5,-1661.5"/>
<text text-anchor="middle" x="484" y="-1668.5" font-family="Helvetica,sans-Serif" font-size="10.00">itk::Bruker2dseqImageIOFactory</text>
</a>
</g>
</g>
<!-- Node1&#45;&gt;Node6 -->
<g id="edge5" class="edge">
<title>Node1&#45;&gt;Node6</title>
<path fill="none" stroke="midnightblue" d="M295.03,-858.93C301.35,-977.92 336.48,-1591.49 392,-1652 395.38,-1655.69 399.28,-1658.76 403.52,-1661.31"/>
<polygon fill="midnightblue" stroke="midnightblue" points="298.51,-858.53 294.49,-848.73 291.52,-858.89 298.51,-858.53"/>
</g>
<!-- Node7 -->
<g id="node7" class="node">
<title>Node7</title>
<g id="a_node7"><a xlink:href="classitk_1_1BYUMeshIOFactory.html" target="_top" xlink:title="Create instances of BYUMeshIO objects using an object factory.">
<polygon fill="white" stroke="black" points="420.5,-1623.5 420.5,-1642.5 547.5,-1642.5 547.5,-1623.5 420.5,-1623.5"/>
<text text-anchor="middle" x="484" y="-1630.5" font-family="Helvetica,sans-Serif" font-size="10.00">itk::BYUMeshIOFactory</text>
</a>
</g>
</g>
<!-- Node1&#45;&gt;Node7 -->
<g id="edge6" class="edge">
<title>Node1&#45;&gt;Node7</title>
<path fill="none" stroke="midnightblue" d="M295.14,-858.71C301.97,-973.85 338.98,-1556.55 392,-1614 399.55,-1622.18 409.65,-1627.34 420.36,-1630.5"/>
<polygon fill="midnightblue" stroke="midnightblue" points="298.62,-858.31 294.54,-848.54 291.63,-858.72 298.62,-858.31"/>
</g>
<!-- Node8 -->
<g id="node8" class="node">
<title>Node8</title>
<g id="a_node8"><a xlink:href="classitk_1_1FFTDiscreteGaussianImageFilterFactory.html" target="_top" xlink:title="Object Factory implementation for overriding DiscreteGaussianImageFilter with FFTDiscreteGaussianImag...">
<polygon fill="white" stroke="black" points="415,-1574 415,-1604 553,-1604 553,-1574 415,-1574"/>
<text text-anchor="start" x="423" y="-1592" font-family="Helvetica,sans-Serif" font-size="10.00">itk::FFTDiscreteGaussian</text>
<text text-anchor="middle" x="484" y="-1581" font-family="Helvetica,sans-Serif" font-size="10.00">ImageFilterFactory</text>
</a>
</g>
</g>
<!-- Node1&#45;&gt;Node8 -->
<g id="edge7" class="edge">
<title>Node1&#45;&gt;Node8</title>
<path fill="none" stroke="midnightblue" d="M293.84,-858.61C293.4,-963.2 296.5,-1454.79 392,-1564 398.15,-1571.03 406.07,-1576.17 414.67,-1579.91"/>
<polygon fill="midnightblue" stroke="midnightblue" points="297.34,-858.54 293.9,-848.52 290.34,-858.49 297.34,-858.54"/>
</g>
<!-- Node9 -->
<g id="node9" class="node">
<title>Node9</title>
<g id="a_node9"><a xlink:href="classitk_1_1FFTImageFilterFactory.html" target="_top" xlink:title="Object factory implementation for FFT filters.">
<polygon fill="white" stroke="black" points="411,-1513.5 411,-1554.5 557,-1554.5 557,-1513.5 411,-1513.5"/>
<text text-anchor="start" x="419" y="-1542.5" font-family="Helvetica,sans-Serif" font-size="10.00">itk::FFTImageFilterFactory</text>
<text text-anchor="start" x="419" y="-1531.5" font-family="Helvetica,sans-Serif" font-size="10.00">&lt; TFFTImageFilter, TInput,</text>
<text text-anchor="middle" x="484" y="-1520.5" font-family="Helvetica,sans-Serif" font-size="10.00"> TOutput &gt;</text>
</a>
</g>
</g>
<!-- Node1&#45;&gt;Node9 -->
<g id="edge8" class="edge">
<title>Node1&#45;&gt;Node9</title>
<path fill="none" stroke="midnightblue" d="M294.21,-858.75C295.63,-958.12 306.74,-1402.63 392,-1504 397.14,-1510.11 403.55,-1514.98 410.58,-1518.87"/>
<polygon fill="midnightblue" stroke="midnightblue" points="297.7,-858.57 294.08,-848.61 290.7,-858.66 297.7,-858.57"/>
</g>
<!-- Node10 -->
<g id="node10" class="node">
<title>Node10</title>
<g id="a_node10"><a xlink:href="classitk_1_1FileListVideoIOFactory.html" target="_top" xlink:title="Create instances of FileListVideoIO objects using an object factory.">
<polygon fill="white" stroke="black" points="412.5,-1475.5 412.5,-1494.5 555.5,-1494.5 555.5,-1475.5 412.5,-1475.5"/>
<text text-anchor="middle" x="484" y="-1482.5" font-family="Helvetica,sans-Serif" font-size="10.00">itk::FileListVideoIOFactory</text>
</a>
</g>
</g>
<!-- Node1&#45;&gt;Node10 -->
<g id="edge9" class="edge">
<title>Node1&#45;&gt;Node10</title>
<path fill="none" stroke="midnightblue" d="M294.18,-858.71C295.49,-955.08 306.12,-1375.64 392,-1466 397.67,-1471.97 404.69,-1476.31 412.3,-1479.44"/>
<polygon fill="midnightblue" stroke="midnightblue" points="297.68,-858.57 294.07,-848.61 290.68,-858.65 297.68,-858.57"/>
</g>
<!-- Node11 -->
<g id="node11" class="node">
<title>Node11</title>
<g id="a_node11"><a xlink:href="classitk_1_1FreeSurferAsciiMeshIOFactory.html" target="_top" xlink:title="Create instances of FreeSurferAsciiMeshIO objects using an object factory.">
<polygon fill="white" stroke="black" points="416.5,-1426 416.5,-1456 551.5,-1456 551.5,-1426 416.5,-1426"/>
<text text-anchor="start" x="424.5" y="-1444" font-family="Helvetica,sans-Serif" font-size="10.00">itk::FreeSurferAsciiMesh</text>
<text text-anchor="middle" x="484" y="-1433" font-family="Helvetica,sans-Serif" font-size="10.00">IOFactory</text>
</a>
</g>
</g>
<!-- Node1&#45;&gt;Node11 -->
<g id="edge10" class="edge">
<title>Node1&#45;&gt;Node11</title>
<path fill="none" stroke="midnightblue" d="M294.57,-858.8C297.61,-950.44 314.8,-1332.52 392,-1417 398.61,-1424.24 407.13,-1429.4 416.28,-1433.06"/>
<polygon fill="midnightblue" stroke="midnightblue" points="298.06,-858.57 294.25,-848.68 291.07,-858.79 298.06,-858.57"/>
</g>
<!-- Node12 -->
<g id="node12" class="node">
<title>Node12</title>
<g id="a_node12"><a xlink:href="classitk_1_1FreeSurferBinaryMeshIOFactory.html" target="_top" xlink:title="Create instances of FreeSurferBinaryMeshIO objects using an object factory.">
<polygon fill="white" stroke="black" points="412.5,-1377 412.5,-1407 555.5,-1407 555.5,-1377 412.5,-1377"/>
<text text-anchor="start" x="420.5" y="-1395" font-family="Helvetica,sans-Serif" font-size="10.00">itk::FreeSurferBinaryMesh</text>
<text text-anchor="middle" x="484" y="-1384" font-family="Helvetica,sans-Serif" font-size="10.00">IOFactory</text>
</a>
</g>
</g>
<!-- Node1&#45;&gt;Node12 -->
<g id="edge11" class="edge">
<title>Node1&#45;&gt;Node12</title>
<path fill="none" stroke="midnightblue" d="M294.93,-858.7C299.41,-945.18 321.52,-1290.29 392,-1367 397.65,-1373.15 404.67,-1377.85 412.27,-1381.42"/>
<polygon fill="midnightblue" stroke="midnightblue" points="298.42,-858.48 294.43,-848.66 291.43,-858.82 298.42,-858.48"/>
</g>
<!-- Node13 -->
<g id="node13" class="node">
<title>Node13</title>
<g id="a_node13"><a xlink:href="classitk_1_1GDCMImageIOFactory.html" target="_top" xlink:title="Create instances of GDCMImageIO objects using an object factory.">
<polygon fill="white" stroke="black" points="412.5,-1338.5 412.5,-1357.5 555.5,-1357.5 555.5,-1338.5 412.5,-1338.5"/>
<text text-anchor="middle" x="484" y="-1345.5" font-family="Helvetica,sans-Serif" font-size="10.00">itk::GDCMImageIOFactory</text>
</a>
</g>
</g>
<!-- Node1&#45;&gt;Node13 -->
<g id="edge12" class="edge">
<title>Node1&#45;&gt;Node13</title>
<path fill="none" stroke="midnightblue" d="M295.13,-858.95C300.28,-942.19 324.18,-1260.6 392,-1329 397.68,-1334.73 404.62,-1338.95 412.1,-1342.02"/>
<polygon fill="midnightblue" stroke="midnightblue" points="298.62,-858.59 294.53,-848.82 291.63,-859.01 298.62,-858.59"/>
</g>
<!-- Node14 -->
<g id="node14" class="node">
<title>Node14</title>
<g id="a_node14"><a xlink:href="classitk_1_1GE4ImageIOFactory.html" target="_top" xlink:title="Create instances of GE4ImageIO objects using an object factory.">
<polygon fill="white" stroke="black" points="418.5,-1300.5 418.5,-1319.5 549.5,-1319.5 549.5,-1300.5 418.5,-1300.5"/>
<text text-anchor="middle" x="484" y="-1307.5" font-family="Helvetica,sans-Serif" font-size="10.00">itk::GE4ImageIOFactory</text>
</a>
</g>
</g>
<!-- Node1&#45;&gt;Node14 -->
<g id="edge13" class="edge">
<title>Node1&#45;&gt;Node14</title>
<path fill="none" stroke="midnightblue" d="M295.49,-858.91C301.83,-937.98 329.12,-1228.6 392,-1291 399.22,-1298.16 408.39,-1302.95 418.13,-1306.1"/>
<polygon fill="midnightblue" stroke="midnightblue" points="298.97,-858.53 294.71,-848.83 292,-859.07 298.97,-858.53"/>
</g>
<!-- Node15 -->
<g id="node15" class="node">
<title>Node15</title>
<g id="a_node15"><a xlink:href="classitk_1_1GE5ImageIOFactory.html" target="_top" xlink:title="Create instances of GE5ImageIO objects using an object factory.">
<polygon fill="white" stroke="black" points="418.5,-1262.5 418.5,-1281.5 549.5,-1281.5 549.5,-1262.5 418.5,-1262.5"/>
<text text-anchor="middle" x="484" y="-1269.5" font-family="Helvetica,sans-Serif" font-size="10.00">itk::GE5ImageIOFactory</text>
</a>
</g>
</g>
<!-- Node1&#45;&gt;Node15 -->
<g id="edge14" class="edge">
<title>Node1&#45;&gt;Node15</title>
<path fill="none" stroke="midnightblue" d="M295.94,-859.12C303.59,-934.21 334.11,-1196.63 392,-1253 399.28,-1260.09 408.5,-1264.85 418.24,-1267.98"/>
<polygon fill="midnightblue" stroke="midnightblue" points="299.38,-858.34 294.91,-848.74 292.41,-859.03 299.38,-858.34"/>
</g>
<!-- Node16 -->
<g id="node16" class="node">
<title>Node16</title>
<g id="a_node16"><a xlink:href="classitk_1_1GEAdwImageIOFactory.html" target="_top" xlink:title="Create instances of GEAdwImageIO objects using an object factory.">
<polygon fill="white" stroke="black" points="411,-1224.5 411,-1243.5 557,-1243.5 557,-1224.5 411,-1224.5"/>
<text text-anchor="middle" x="484" y="-1231.5" font-family="Helvetica,sans-Serif" font-size="10.00">itk::GEAdwImageIOFactory</text>
</a>
</g>
</g>
<!-- Node1&#45;&gt;Node16 -->
<g id="edge15" class="edge">
<title>Node1&#45;&gt;Node16</title>
<path fill="none" stroke="midnightblue" d="M296.39,-858.62C305.31,-928.6 338.89,-1164.44 392,-1215 397.38,-1220.12 403.76,-1224.01 410.61,-1226.95"/>
<polygon fill="midnightblue" stroke="midnightblue" points="299.84,-858.03 295.13,-848.54 292.9,-858.89 299.84,-858.03"/>
</g>
<!-- Node17 -->
<g id="node17" class="node">
<title>Node17</title>
<g id="a_node17"><a xlink:href="classitk_1_1GiftiMeshIOFactory.html" target="_top" xlink:title="Create instances of GiftiMeshIO objects using an object factory.">
<polygon fill="white" stroke="black" points="420,-1186.5 420,-1205.5 548,-1205.5 548,-1186.5 420,-1186.5"/>
<text text-anchor="middle" x="484" y="-1193.5" font-family="Helvetica,sans-Serif" font-size="10.00">itk::GiftiMeshIOFactory</text>
</a>
</g>
</g>
<!-- Node1&#45;&gt;Node17 -->
<g id="edge16" class="edge">
<title>Node1&#45;&gt;Node17</title>
<path fill="none" stroke="midnightblue" d="M293.25,-858.59C292.18,-916.69 297.46,-1089.42 392,-1177 399.81,-1184.24 409.65,-1189.01 419.94,-1192.1"/>
<polygon fill="midnightblue" stroke="midnightblue" points="296.75,-858.65 293.53,-848.56 289.75,-858.46 296.75,-858.65"/>
</g>
<!-- Node18 -->
<g id="node18" class="node">
<title>Node18</title>
<g id="a_node18"><a xlink:href="classitk_1_1GiplImageIOFactory.html" target="_top" xlink:title="Create instances of GiplImageIO objects using an object factory.">
<polygon fill="white" stroke="black" points="418.5,-1148.5 418.5,-1167.5 549.5,-1167.5 549.5,-1148.5 418.5,-1148.5"/>
<text text-anchor="middle" x="484" y="-1155.5" font-family="Helvetica,sans-Serif" font-size="10.00">itk::GiplImageIOFactory</text>
</a>
</g>
</g>
<!-- Node1&#45;&gt;Node18 -->
<g id="edge17" class="edge">
<title>Node1&#45;&gt;Node18</title>
<path fill="none" stroke="midnightblue" d="M294.1,-858.86C295.5,-912.79 307.21,-1063.05 392,-1139 399.45,-1145.68 408.63,-1150.23 418.27,-1153.31"/>
<polygon fill="midnightblue" stroke="midnightblue" points="297.59,-858.55 293.93,-848.61 290.59,-858.66 297.59,-858.55"/>
</g>
<!-- Node19 -->
<g id="node19" class="node">
<title>Node19</title>
<g id="a_node19"><a xlink:href="classitk_1_1GPUBinaryThresholdImageFilterFactory.html" target="_top" xlink:title=" ">
<polygon fill="white" stroke="black" points="400.5,-1099 400.5,-1129 567.5,-1129 567.5,-1099 400.5,-1099"/>
<text text-anchor="start" x="408.5" y="-1117" font-family="Helvetica,sans-Serif" font-size="10.00">itk::GPUBinaryThresholdImage</text>
<text text-anchor="middle" x="484" y="-1106" font-family="Helvetica,sans-Serif" font-size="10.00">FilterFactory</text>
</a>
</g>
</g>
<!-- Node1&#45;&gt;Node19 -->
<g id="edge18" class="edge">
<title>Node1&#45;&gt;Node19</title>
<path fill="none" stroke="midnightblue" d="M295.77,-858.85C301.07,-906.26 321.2,-1026.87 392,-1090 395.78,-1093.37 399.98,-1096.28 404.44,-1098.78"/>
<polygon fill="midnightblue" stroke="midnightblue" points="299.23,-858.28 294.73,-848.68 292.26,-858.99 299.23,-858.28"/>
</g>
<!-- Node20 -->
<g id="node20" class="node">
<title>Node20</title>
<g id="a_node20"><a xlink:href="classitk_1_1GPUDemonsRegistrationFilterFactory.html" target="_top" xlink:title="Object Factory implementation for GPUDemonsRegistrationFilter.">
<polygon fill="white" stroke="black" points="406,-1050 406,-1080 562,-1080 562,-1050 406,-1050"/>
<text text-anchor="start" x="414" y="-1068" font-family="Helvetica,sans-Serif" font-size="10.00">itk::GPUDemonsRegistration</text>
<text text-anchor="middle" x="484" y="-1057" font-family="Helvetica,sans-Serif" font-size="10.00">FilterFactory</text>
</a>
</g>
</g>
<!-- Node1&#45;&gt;Node20 -->
<g id="edge19" class="edge">
<title>Node1&#45;&gt;Node20</title>
<path fill="none" stroke="midnightblue" d="M297.83,-858.76C306.76,-899.34 332.85,-992.33 392,-1041 396.16,-1044.43 400.77,-1047.37 405.62,-1049.89"/>
<polygon fill="midnightblue" stroke="midnightblue" points="301.22,-857.86 295.76,-848.79 294.37,-859.29 301.22,-857.86"/>
</g>
<!-- Node21 -->
<g id="node21" class="node">
<title>Node21</title>
<g id="a_node21"><a xlink:href="classitk_1_1GPUGradientAnisotropicDiffusionImageFilterFactory.html" target="_top" xlink:title=" ">
<polygon fill="white" stroke="black" points="407.5,-1001 407.5,-1031 560.5,-1031 560.5,-1001 407.5,-1001"/>
<text text-anchor="start" x="415.5" y="-1019" font-family="Helvetica,sans-Serif" font-size="10.00">itk::GPUGradientAnisotropic</text>
<text text-anchor="middle" x="484" y="-1008" font-family="Helvetica,sans-Serif" font-size="10.00">DiffusionImageFilterFactory</text>
</a>
</g>
</g>
<!-- Node1&#45;&gt;Node21 -->
<g id="edge20" class="edge">
<title>Node1&#45;&gt;Node21</title>
<path fill="none" stroke="midnightblue" d="M301.04,-858.2C313.94,-890.63 344.47,-956.12 392,-991 397.28,-994.88 403.14,-998.15 409.25,-1000.92"/>
<polygon fill="midnightblue" stroke="midnightblue" points="304.2,-856.65 297.35,-848.56 297.66,-859.15 304.2,-856.65"/>
</g>
<!-- Node22 -->
<g id="node22" class="node">
<title>Node22</title>
<g id="a_node22"><a xlink:href="classitk_1_1GPUImageFactory.html" target="_top" xlink:title=" ">
<polygon fill="white" stroke="black" points="423,-962.5 423,-981.5 545,-981.5 545,-962.5 423,-962.5"/>
<text text-anchor="middle" x="484" y="-969.5" font-family="Helvetica,sans-Serif" font-size="10.00">itk::GPUImageFactory</text>
</a>
</g>
</g>
<!-- Node1&#45;&gt;Node22 -->
<g id="edge21" class="edge">
<title>Node1&#45;&gt;Node22</title>
<path fill="none" stroke="midnightblue" d="M304.55,-857.62C320.16,-883.38 351.94,-929.35 392,-953 401.31,-958.5 411.98,-962.42 422.66,-965.21"/>
<polygon fill="midnightblue" stroke="midnightblue" points="307.46,-855.67 299.37,-848.83 301.43,-859.23 307.46,-855.67"/>
</g>
<!-- Node23 -->
<g id="node23" class="node">
<title>Node23</title>
<g id="a_node23"><a xlink:href="classitk_1_1GPUMeanImageFilterFactory.html" target="_top" xlink:title="Object Factory implementation for GPUMeanImageFilter.">
<polygon fill="white" stroke="black" points="397,-924.5 397,-943.5 571,-943.5 571,-924.5 397,-924.5"/>
<text text-anchor="middle" x="484" y="-931.5" font-family="Helvetica,sans-Serif" font-size="10.00">itk::GPUMeanImageFilterFactory</text>
</a>
</g>
</g>
<!-- Node1&#45;&gt;Node23 -->
<g id="edge22" class="edge">
<title>Node1&#45;&gt;Node23</title>
<path fill="none" stroke="midnightblue" d="M310.78,-855.97C329.11,-873.49 360.13,-900.28 392,-915 400.35,-918.86 409.5,-921.94 418.66,-924.4"/>
<polygon fill="midnightblue" stroke="midnightblue" points="312.89,-853.13 303.29,-848.65 308,-858.14 312.89,-853.13"/>
</g>
<!-- Node24 -->
<g id="node24" class="node">
<title>Node24</title>
<g id="a_node24"><a xlink:href="classitk_1_1HDF5ImageIOFactory.html" target="_top" xlink:title="Create instances of HDF5ImageIO objects using an object factory.">
<polygon fill="white" stroke="black" points="414.5,-886.5 414.5,-905.5 553.5,-905.5 553.5,-886.5 414.5,-886.5"/>
<text text-anchor="middle" x="484" y="-893.5" font-family="Helvetica,sans-Serif" font-size="10.00">itk::HDF5ImageIOFactory</text>
</a>
</g>
</g>
<!-- Node1&#45;&gt;Node24 -->
<g id="edge23" class="edge">
<title>Node1&#45;&gt;Node24</title>
<path fill="none" stroke="midnightblue" d="M325.19,-852.61C344.23,-860.53 369.2,-870.25 392,-877 404.07,-880.57 417.23,-883.73 429.7,-886.4"/>
<polygon fill="midnightblue" stroke="midnightblue" points="326.4,-849.32 315.83,-848.65 323.68,-855.77 326.4,-849.32"/>
</g>
<!-- Node25 -->
<g id="node25" class="node">
<title>Node25</title>
<g id="a_node25"><a xlink:href="classitk_1_1HDF5TransformIOFactory.html" target="_top" xlink:title="Create instances of HDF5TransformIO objects using an object factory.">
<polygon fill="white" stroke="black" points="405.5,-848.5 405.5,-867.5 562.5,-867.5 562.5,-848.5 405.5,-848.5"/>
<text text-anchor="middle" x="484" y="-855.5" font-family="Helvetica,sans-Serif" font-size="10.00">itk::HDF5TransformIOFactory</text>
</a>
</g>
</g>
<!-- Node1&#45;&gt;Node25 -->
<g id="edge24" class="edge">
<title>Node1&#45;&gt;Node25</title>
<path fill="none" stroke="midnightblue" d="M366.25,-846.26C379.02,-847.55 392.37,-848.89 405.29,-850.19"/>
<polygon fill="midnightblue" stroke="midnightblue" points="366.45,-842.77 356.15,-845.25 365.75,-849.73 366.45,-842.77"/>
</g>
<!-- Node26 -->
<g id="node26" class="node">
<title>Node26</title>
<g id="a_node26"><a xlink:href="classitk_1_1JPEG2000ImageIOFactory.html" target="_top" xlink:title="Supports for the JPEG2000 file format based on openjpeg.">
<polygon fill="white" stroke="black" points="405,-810.5 405,-829.5 563,-829.5 563,-810.5 405,-810.5"/>
<text text-anchor="middle" x="484" y="-817.5" font-family="Helvetica,sans-Serif" font-size="10.00">itk::JPEG2000ImageIOFactory</text>
</a>
</g>
</g>
<!-- Node1&#45;&gt;Node26 -->
<g id="edge25" class="edge">
<title>Node1&#45;&gt;Node26</title>
<path fill="none" stroke="midnightblue" d="M366.18,-831.74C378.86,-830.47 392.12,-829.14 404.95,-827.85"/>
<polygon fill="midnightblue" stroke="midnightblue" points="365.75,-828.27 356.15,-832.75 366.45,-835.23 365.75,-828.27"/>
</g>
<!-- Node27 -->
<g id="node27" class="node">
<title>Node27</title>
<g id="a_node27"><a xlink:href="classitk_1_1JPEGImageIOFactory.html" target="_top" xlink:title="Create instances of JPEGImageIO objects using an object factory.">
<polygon fill="white" stroke="black" points="417,-772.5 417,-791.5 551,-791.5 551,-772.5 417,-772.5"/>
<text text-anchor="middle" x="484" y="-779.5" font-family="Helvetica,sans-Serif" font-size="10.00">itk::JPEGImageIOFactory</text>
</a>
</g>
</g>
<!-- Node1&#45;&gt;Node27 -->
<g id="edge26" class="edge">
<title>Node1&#45;&gt;Node27</title>
<path fill="none" stroke="midnightblue" d="M325.19,-825.39C344.23,-817.47 369.2,-807.75 392,-801 404.07,-797.43 417.23,-794.27 429.7,-791.6"/>
<polygon fill="midnightblue" stroke="midnightblue" points="323.68,-822.23 315.83,-829.35 326.4,-828.68 323.68,-822.23"/>
</g>
<!-- Node28 -->
<g id="node28" class="node">
<title>Node28</title>
<g id="a_node28"><a xlink:href="classitk_1_1LSMImageIOFactory.html" target="_top" xlink:title="Create instances of LSMImageIO objects using an object factory.">
<polygon fill="white" stroke="black" points="418,-734.5 418,-753.5 550,-753.5 550,-734.5 418,-734.5"/>
<text text-anchor="middle" x="484" y="-741.5" font-family="Helvetica,sans-Serif" font-size="10.00">itk::LSMImageIOFactory</text>
</a>
</g>
</g>
<!-- Node1&#45;&gt;Node28 -->
<g id="edge27" class="edge">
<title>Node1&#45;&gt;Node28</title>
<path fill="none" stroke="midnightblue" d="M310.78,-822.03C329.11,-804.51 360.13,-777.72 392,-763 400.35,-759.14 409.5,-756.06 418.66,-753.6"/>
<polygon fill="midnightblue" stroke="midnightblue" points="308,-819.86 303.29,-829.35 312.89,-824.87 308,-819.86"/>
</g>
<!-- Node29 -->
<g id="node29" class="node">
<title>Node29</title>
<g id="a_node29"><a xlink:href="classitk_1_1MatlabTransformIOFactory.html" target="_top" xlink:title="Create instances of MatlabTransformIO objects using an object factory.">
<polygon fill="white" stroke="black" points="402,-696.5 402,-715.5 566,-715.5 566,-696.5 402,-696.5"/>
<text text-anchor="middle" x="484" y="-703.5" font-family="Helvetica,sans-Serif" font-size="10.00">itk::MatlabTransformIOFactory</text>
</a>
</g>
</g>
<!-- Node1&#45;&gt;Node29 -->
<g id="edge28" class="edge">
<title>Node1&#45;&gt;Node29</title>
<path fill="none" stroke="midnightblue" d="M304.55,-820.38C320.16,-794.62 351.94,-748.65 392,-725 398.53,-721.14 405.73,-718.06 413.14,-715.6"/>
<polygon fill="midnightblue" stroke="midnightblue" points="301.43,-818.77 299.37,-829.17 307.46,-822.33 301.43,-818.77"/>
</g>
<!-- Node30 -->
<g id="node30" class="node">
<title>Node30</title>
<g id="a_node30"><a xlink:href="classitk_1_1MetaImageIOFactory.html" target="_top" xlink:title="Create instances of MetaImageIO objects using an object factory.">
<polygon fill="white" stroke="black" points="415.5,-658.5 415.5,-677.5 552.5,-677.5 552.5,-658.5 415.5,-658.5"/>
<text text-anchor="middle" x="484" y="-665.5" font-family="Helvetica,sans-Serif" font-size="10.00">itk::MetaImageIOFactory</text>
</a>
</g>
</g>
<!-- Node1&#45;&gt;Node30 -->
<g id="edge29" class="edge">
<title>Node1&#45;&gt;Node30</title>
<path fill="none" stroke="midnightblue" d="M300.82,-819.48C313.37,-786.57 343.41,-720.39 392,-687 399.05,-682.16 407.08,-678.5 415.39,-675.76"/>
<polygon fill="midnightblue" stroke="midnightblue" points="297.38,-818.67 297.23,-829.27 303.96,-821.09 297.38,-818.67"/>
</g>
<!-- Node31 -->
<g id="node31" class="node">
<title>Node31</title>
<g id="a_node31"><a xlink:href="classitk_1_1MINCImageIOFactory.html" target="_top" xlink:title="Create instances of MINCImageIO objects using an object factory.">
<polygon fill="white" stroke="black" points="415,-620.5 415,-639.5 553,-639.5 553,-620.5 415,-620.5"/>
<text text-anchor="middle" x="484" y="-627.5" font-family="Helvetica,sans-Serif" font-size="10.00">itk::MINCImageIOFactory</text>
</a>
</g>
</g>
<!-- Node1&#45;&gt;Node31 -->
<g id="edge30" class="edge">
<title>Node1&#45;&gt;Node31</title>
<path fill="none" stroke="midnightblue" d="M298.2,-819.36C307.63,-780.29 334.34,-692.86 392,-649 398.81,-643.82 406.7,-639.97 414.93,-637.13"/>
<polygon fill="midnightblue" stroke="midnightblue" points="294.76,-818.69 295.94,-829.22 301.59,-820.25 294.76,-818.69"/>
</g>
<!-- Node32 -->
<g id="node32" class="node">
<title>Node32</title>
<g id="a_node32"><a xlink:href="classitk_1_1MRCImageIOFactory.html" target="_top" xlink:title="Create instances of MRCImageIO objects using an object factory.">
<polygon fill="white" stroke="black" points="417,-582.5 417,-601.5 551,-601.5 551,-582.5 417,-582.5"/>
<text text-anchor="middle" x="484" y="-589.5" font-family="Helvetica,sans-Serif" font-size="10.00">itk::MRCImageIOFactory</text>
</a>
</g>
</g>
<!-- Node1&#45;&gt;Node32 -->
<g id="edge31" class="edge">
<title>Node1&#45;&gt;Node32</title>
<path fill="none" stroke="midnightblue" d="M296.39,-819.24C302.88,-774.61 325.11,-665.69 392,-611 399.25,-605.08 407.88,-600.86 416.9,-597.88"/>
<polygon fill="midnightblue" stroke="midnightblue" points="292.89,-818.97 295.03,-829.35 299.83,-819.9 292.89,-818.97"/>
</g>
<!-- Node33 -->
<g id="node33" class="node">
<title>Node33</title>
<g id="a_node33"><a xlink:href="classitk_1_1NiftiImageIOFactory.html" target="_top" xlink:title="Create instances of NiftiImageIO objects using an object factory.">
<polygon fill="white" stroke="black" points="418,-544.5 418,-563.5 550,-563.5 550,-544.5 418,-544.5"/>
<text text-anchor="middle" x="484" y="-551.5" font-family="Helvetica,sans-Serif" font-size="10.00">itk::NiftiImageIOFactory</text>
</a>
</g>
</g>
<!-- Node1&#45;&gt;Node33 -->
<g id="edge32" class="edge">
<title>Node1&#45;&gt;Node33</title>
<path fill="none" stroke="midnightblue" d="M295.02,-819.4C298.72,-769.87 315.6,-638.91 392,-573 399.33,-566.67 408.23,-562.27 417.55,-559.23"/>
<polygon fill="midnightblue" stroke="midnightblue" points="291.53,-819.22 294.38,-829.43 298.51,-819.67 291.53,-819.22"/>
</g>
<!-- Node34 -->
<g id="node34" class="node">
<title>Node34</title>
<g id="a_node34"><a xlink:href="classitk_1_1NrrdImageIOFactory.html" target="_top" xlink:title="Create instances of NrrdImageIO objects using an object factory.">
<polygon fill="white" stroke="black" points="417.5,-506.5 417.5,-525.5 550.5,-525.5 550.5,-506.5 417.5,-506.5"/>
<text text-anchor="middle" x="484" y="-513.5" font-family="Helvetica,sans-Serif" font-size="10.00">itk::NrrdImageIOFactory</text>
</a>
</g>
</g>
<!-- Node1&#45;&gt;Node34 -->
<g id="edge33" class="edge">
<title>Node1&#45;&gt;Node34</title>
<path fill="none" stroke="midnightblue" d="M294,-819.23C295.12,-764.89 306.16,-612.19 392,-535 399.2,-528.53 408.02,-524.04 417.32,-520.97"/>
<polygon fill="midnightblue" stroke="midnightblue" points="290.5,-819.23 293.88,-829.27 297.49,-819.31 290.5,-819.23"/>
</g>
<!-- Node35 -->
<g id="node35" class="node">
<title>Node35</title>
<g id="a_node35"><a xlink:href="classitk_1_1ObjectFactory.html" target="_top" xlink:title="Create instances of a class.">
<polygon fill="white" stroke="black" points="418.5,-468.5 418.5,-487.5 549.5,-487.5 549.5,-468.5 418.5,-468.5"/>
<text text-anchor="middle" x="484" y="-475.5" font-family="Helvetica,sans-Serif" font-size="10.00">itk::ObjectFactory&lt; T &gt;</text>
</a>
</g>
</g>
<!-- Node1&#45;&gt;Node35 -->
<g id="edge34" class="edge">
<title>Node1&#45;&gt;Node35</title>
<path fill="none" stroke="midnightblue" d="M293.17,-819.18C291.87,-760.42 296.56,-585.69 392,-497 399.33,-490.19 408.45,-485.56 418.06,-482.46"/>
<polygon fill="midnightblue" stroke="midnightblue" points="289.68,-819.44 293.48,-829.33 296.67,-819.23 289.68,-819.44"/>
</g>
<!-- Node36 -->
<g id="node36" class="node">
<title>Node36</title>
<g id="a_node36"><a xlink:href="classitk_1_1OBJMeshIOFactory.html" target="_top" xlink:title="Create instances of OBJMeshIO objects using an object factory.">
<polygon fill="white" stroke="black" points="421.5,-430.5 421.5,-449.5 546.5,-449.5 546.5,-430.5 421.5,-430.5"/>
<text text-anchor="middle" x="484" y="-437.5" font-family="Helvetica,sans-Serif" font-size="10.00">itk::OBJMeshIOFactory</text>
</a>
</g>
</g>
<!-- Node1&#45;&gt;Node36 -->
<g id="edge35" class="edge">
<title>Node1&#45;&gt;Node36</title>
<path fill="none" stroke="midnightblue" d="M296.36,-819.17C305.17,-748.46 338.43,-510.13 392,-459 400.06,-451.31 410.38,-446.39 421.16,-443.3"/>
<polygon fill="midnightblue" stroke="midnightblue" points="292.85,-819.01 295.11,-829.36 299.8,-819.86 292.85,-819.01"/>
</g>
<!-- Node37 -->
<g id="node37" class="node">
<title>Node37</title>
<g id="a_node37"><a xlink:href="classitk_1_1OFFMeshIOFactory.html" target="_top" xlink:title="Create instances of OFFMeshIO objects using an object factory.">
<polygon fill="white" stroke="black" points="420.5,-392.5 420.5,-411.5 547.5,-411.5 547.5,-392.5 420.5,-392.5"/>
<text text-anchor="middle" x="484" y="-399.5" font-family="Helvetica,sans-Serif" font-size="10.00">itk::OFFMeshIOFactory</text>
</a>
</g>
</g>
<!-- Node1&#45;&gt;Node37 -->
<g id="edge36" class="edge">
<title>Node1&#45;&gt;Node37</title>
<path fill="none" stroke="midnightblue" d="M295.86,-819.15C303.33,-743.98 333.52,-478.07 392,-421 399.74,-413.45 409.66,-408.55 420.09,-405.43"/>
<polygon fill="midnightblue" stroke="midnightblue" points="292.37,-818.88 294.89,-829.17 299.34,-819.55 292.37,-818.88"/>
</g>
<!-- Node38 -->
<g id="node38" class="node">
<title>Node38</title>
<g id="a_node38"><a xlink:href="classitk_1_1PNGImageIOFactory.html" target="_top" xlink:title="Create instances of PNGImageIO objects using an object factory.">
<polygon fill="white" stroke="black" points="417.5,-354.5 417.5,-373.5 550.5,-373.5 550.5,-354.5 417.5,-354.5"/>
<text text-anchor="middle" x="484" y="-361.5" font-family="Helvetica,sans-Serif" font-size="10.00">itk::PNGImageIOFactory</text>
</a>
</g>
</g>
<!-- Node1&#45;&gt;Node38 -->
<g id="edge37" class="edge">
<title>Node1&#45;&gt;Node38</title>
<path fill="none" stroke="midnightblue" d="M295.43,-819.43C301.58,-740.42 328.51,-446.12 392,-383 398.98,-376.06 407.8,-371.35 417.19,-368.2"/>
<polygon fill="midnightblue" stroke="midnightblue" points="291.93,-819.24 294.67,-829.47 298.91,-819.77 291.93,-819.24"/>
</g>
<!-- Node39 -->
<g id="node39" class="node">
<title>Node39</title>
<g id="a_node39"><a xlink:href="classitk_1_1RawImageIOFactory.html" target="_top" xlink:title=" ">
<polygon fill="white" stroke="black" points="402,-305 402,-335 566,-335 566,-305 402,-305"/>
<text text-anchor="start" x="410" y="-323" font-family="Helvetica,sans-Serif" font-size="10.00">itk::RawImageIOFactory</text>
<text text-anchor="middle" x="484" y="-312" font-family="Helvetica,sans-Serif" font-size="10.00">&lt; TPixel, VImageDimension &gt;</text>
</a>
</g>
</g>
<!-- Node1&#45;&gt;Node39 -->
<g id="edge38" class="edge">
<title>Node1&#45;&gt;Node39</title>
<path fill="none" stroke="midnightblue" d="M295.22,-819C300.73,-735.53 325.88,-416.08 392,-345 395.57,-341.16 399.67,-337.89 404.11,-335.11"/>
<polygon fill="midnightblue" stroke="midnightblue" points="291.72,-818.95 294.58,-829.16 298.71,-819.4 291.72,-818.95"/>
</g>
<!-- Node40 -->
<g id="node40" class="node">
<title>Node40</title>
<g id="a_node40"><a xlink:href="classitk_1_1SiemensVisionImageIOFactory.html" target="_top" xlink:title="Create instances of SiemensVisionImageIO objects using an object factory.">
<polygon fill="white" stroke="black" points="392,-266.5 392,-285.5 576,-285.5 576,-266.5 392,-266.5"/>
<text text-anchor="middle" x="484" y="-273.5" font-family="Helvetica,sans-Serif" font-size="10.00">itk::SiemensVisionImageIOFactory</text>
</a>
</g>
</g>
<!-- Node1&#45;&gt;Node40 -->
<g id="edge39" class="edge">
<title>Node1&#45;&gt;Node40</title>
<path fill="none" stroke="midnightblue" d="M294.7,-819.17C298.24,-730.59 317.07,-372.02 392,-295 395.6,-291.3 399.72,-288.22 404.18,-285.68"/>
<polygon fill="midnightblue" stroke="midnightblue" points="291.19,-819.3 294.31,-829.42 298.19,-819.56 291.19,-819.3"/>
</g>
<!-- Node41 -->
<g id="node41" class="node">
<title>Node41</title>
<g id="a_node41"><a xlink:href="classitk_1_1SpatialObjectFactoryBase.html" target="_top" xlink:title="Create instances of SpatialObjects.">
<polygon fill="white" stroke="black" points="404,-228.5 404,-247.5 564,-247.5 564,-228.5 404,-228.5"/>
<text text-anchor="middle" x="484" y="-235.5" font-family="Helvetica,sans-Serif" font-size="10.00">itk::SpatialObjectFactoryBase</text>
</a>
</g>
</g>
<!-- Node1&#45;&gt;Node41 -->
<g id="edge40" class="edge">
<title>Node1&#45;&gt;Node41</title>
<path fill="none" stroke="midnightblue" d="M294.45,-818.97C296.96,-726.3 312.14,-340.04 392,-257 395.58,-253.28 399.69,-250.19 404.13,-247.63"/>
<polygon fill="midnightblue" stroke="midnightblue" points="290.95,-819.12 294.2,-829.21 297.95,-819.3 290.95,-819.12"/>
</g>
<!-- Node43 -->
<g id="node43" class="node">
<title>Node43</title>
<g id="a_node43"><a xlink:href="classitk_1_1StimulateImageIOFactory.html" target="_top" xlink:title="Create instances of StimulateImageIO objects using an object factory.">
<polygon fill="white" stroke="black" points="404.5,-190.5 404.5,-209.5 563.5,-209.5 563.5,-190.5 404.5,-190.5"/>
<text text-anchor="middle" x="484" y="-197.5" font-family="Helvetica,sans-Serif" font-size="10.00">itk::StimulateImageIOFactory</text>
</a>
</g>
</g>
<!-- Node1&#45;&gt;Node43 -->
<g id="edge42" class="edge">
<title>Node1&#45;&gt;Node43</title>
<path fill="none" stroke="midnightblue" d="M294.22,-819.22C295.71,-723.36 307.06,-308.21 392,-219 395.56,-215.26 399.65,-212.16 404.09,-209.59"/>
<polygon fill="midnightblue" stroke="midnightblue" points="290.72,-819.45 294.08,-829.5 297.72,-819.55 290.72,-819.45"/>
</g>
<!-- Node44 -->
<g id="node44" class="node">
<title>Node44</title>
<g id="a_node44"><a xlink:href="classitk_1_1TIFFImageIOFactory.html" target="_top" xlink:title="Create instances of TIFFImageIO objects using an object factory.">
<polygon fill="white" stroke="black" points="417.5,-152.5 417.5,-171.5 550.5,-171.5 550.5,-152.5 417.5,-152.5"/>
<text text-anchor="middle" x="484" y="-159.5" font-family="Helvetica,sans-Serif" font-size="10.00">itk::TIFFImageIOFactory</text>
</a>
</g>
</g>
<!-- Node1&#45;&gt;Node44 -->
<g id="edge43" class="edge">
<title>Node1&#45;&gt;Node44</title>
<path fill="none" stroke="midnightblue" d="M294.02,-819.27C294.56,-720.01 302.03,-276.35 392,-181 398.87,-173.72 407.75,-168.86 417.26,-165.66"/>
<polygon fill="midnightblue" stroke="midnightblue" points="290.52,-819.38 293.99,-829.39 297.52,-819.41 290.52,-819.38"/>
</g>
<!-- Node45 -->
<g id="node45" class="node">
<title>Node45</title>
<g id="a_node45"><a xlink:href="classitk_1_1TransformFactoryBase.html" target="_top" xlink:title="Create instances of Transforms.">
<polygon fill="white" stroke="black" points="412.5,-114.5 412.5,-133.5 555.5,-133.5 555.5,-114.5 412.5,-114.5"/>
<text text-anchor="middle" x="484" y="-121.5" font-family="Helvetica,sans-Serif" font-size="10.00">itk::TransformFactoryBase</text>
</a>
</g>
</g>
<!-- Node1&#45;&gt;Node45 -->
<g id="edge44" class="edge">
<title>Node1&#45;&gt;Node45</title>
<path fill="none" stroke="midnightblue" d="M293.85,-819.11C293.48,-716.15 297.05,-244.43 392,-143 397.63,-136.99 404.62,-132.62 412.22,-129.48"/>
<polygon fill="midnightblue" stroke="midnightblue" points="290.35,-819.35 293.9,-829.33 297.35,-819.32 290.35,-819.35"/>
</g>
<!-- Node47 -->
<g id="node47" class="node">
<title>Node47</title>
<g id="a_node47"><a xlink:href="classitk_1_1TxtTransformIOFactory.html" target="_top" xlink:title="Create instances of TxtTransformIO objects using an object factory.">
<polygon fill="white" stroke="black" points="411,-76.5 411,-95.5 557,-95.5 557,-76.5 411,-76.5"/>
<text text-anchor="middle" x="484" y="-83.5" font-family="Helvetica,sans-Serif" font-size="10.00">itk::TxtTransformIOFactory</text>
</a>
</g>
</g>
<!-- Node1&#45;&gt;Node47 -->
<g id="edge46" class="edge">
<title>Node1&#45;&gt;Node47</title>
<path fill="none" stroke="midnightblue" d="M293.69,-819.05C292.44,-712.61 292.03,-212.56 392,-105 397.27,-99.33 403.77,-95.11 410.84,-92.01"/>
<polygon fill="midnightblue" stroke="midnightblue" points="290.19,-819.36 293.83,-829.31 297.19,-819.27 290.19,-819.36"/>
</g>
<!-- Node48 -->
<g id="node48" class="node">
<title>Node48</title>
<g id="a_node48"><a xlink:href="classitk_1_1VTKImageIOFactory.html" target="_top" xlink:title="Create instances of VTKImageIO objects using an object factory.">
<polygon fill="white" stroke="black" points="418.5,-38.5 418.5,-57.5 549.5,-57.5 549.5,-38.5 418.5,-38.5"/>
<text text-anchor="middle" x="484" y="-45.5" font-family="Helvetica,sans-Serif" font-size="10.00">itk::VTKImageIOFactory</text>
</a>
</g>
</g>
<!-- Node1&#45;&gt;Node48 -->
<g id="edge47" class="edge">
<title>Node1&#45;&gt;Node48</title>
<path fill="none" stroke="midnightblue" d="M295.17,-819.01C302.08,-703.45 339.22,-124.16 392,-67 399.01,-59.41 408.2,-54.43 418.04,-51.23"/>
<polygon fill="midnightblue" stroke="midnightblue" points="291.66,-819.04 294.56,-829.23 298.65,-819.46 291.66,-819.04"/>
</g>
<!-- Node49 -->
<g id="node49" class="node">
<title>Node49</title>
<g id="a_node49"><a xlink:href="classitk_1_1VTKPolyDataMeshIOFactory.html" target="_top" xlink:title="Create instances of VTKPolyDataMeshIO objects using an object factory.">
<polygon fill="white" stroke="black" points="398.5,-0.5 398.5,-19.5 569.5,-19.5 569.5,-0.5 398.5,-0.5"/>
<text text-anchor="middle" x="484" y="-7.5" font-family="Helvetica,sans-Serif" font-size="10.00">itk::VTKPolyDataMeshIOFactory</text>
</a>
</g>
</g>
<!-- Node1&#45;&gt;Node49 -->
<g id="edge48" class="edge">
<title>Node1&#45;&gt;Node49</title>
<path fill="none" stroke="midnightblue" d="M295.03,-819.14C301.38,-700.59 336.67,-89.28 392,-29 395.38,-25.31 399.28,-22.24 403.52,-19.69"/>
<polygon fill="midnightblue" stroke="midnightblue" points="291.53,-819.14 294.5,-829.31 298.52,-819.51 291.53,-819.14"/>
</g>
<!-- Node2 -->
<g id="node2" class="node">
<title>Node2</title>
<g id="a_node2"><a xlink:href="classitk_1_1Object.html" target="_top" xlink:title="Base class for most ITK classes.">
<polygon fill="white" stroke="black" points="127,-829.5 127,-848.5 194,-848.5 194,-829.5 127,-829.5"/>
<text text-anchor="middle" x="160.5" y="-836.5" font-family="Helvetica,sans-Serif" font-size="10.00">itk::Object</text>
</a>
</g>
</g>
<!-- Node2&#45;&gt;Node1 -->
<g id="edge1" class="edge">
<title>Node2&#45;&gt;Node1</title>
<path fill="none" stroke="midnightblue" d="M204.16,-839C212.37,-839 221.13,-839 229.82,-839"/>
<polygon fill="midnightblue" stroke="midnightblue" points="204.09,-835.5 194.09,-839 204.09,-842.5 204.09,-835.5"/>
</g>
<!-- Node3 -->
<g id="node3" class="node">
<title>Node3</title>
<g id="a_node3"><a xlink:href="classitk_1_1LightObject.html" target="_top" xlink:title="Light weight base class for most itk classes.">
<polygon fill="white" stroke="black" points="0,-829.5 0,-848.5 91,-848.5 91,-829.5 0,-829.5"/>
<text text-anchor="middle" x="45.5" y="-836.5" font-family="Helvetica,sans-Serif" font-size="10.00">itk::LightObject</text>
</a>
</g>
</g>
<!-- Node3&#45;&gt;Node2 -->
<g id="edge2" class="edge">
<title>Node3&#45;&gt;Node2</title>
<path fill="none" stroke="midnightblue" d="M101.28,-839C109.96,-839 118.69,-839 126.66,-839"/>
<polygon fill="midnightblue" stroke="midnightblue" points="101.16,-835.5 91.16,-839 101.16,-842.5 101.16,-835.5"/>
</g>
<!-- Node42 -->
<g id="node42" class="node">
<title>Node42</title>
<g id="a_node42"><a xlink:href="classitk_1_1SpatialObjectFactory.html" target="_top" xlink:title="Create instances of SpatialObjects.">
<polygon fill="white" stroke="black" points="612,-228.5 612,-247.5 776,-247.5 776,-228.5 612,-228.5"/>
<text text-anchor="middle" x="694" y="-235.5" font-family="Helvetica,sans-Serif" font-size="10.00">itk::SpatialObjectFactory&lt; T &gt;</text>
</a>
</g>
</g>
<!-- Node41&#45;&gt;Node42 -->
<g id="edge41" class="edge">
<title>Node41&#45;&gt;Node42</title>
<path fill="none" stroke="midnightblue" d="M574.57,-238C586.98,-238 599.68,-238 611.92,-238"/>
<polygon fill="midnightblue" stroke="midnightblue" points="574.23,-234.5 564.23,-238 574.23,-241.5 574.23,-234.5"/>
</g>
<!-- Node46 -->
<g id="node46" class="node">
<title>Node46</title>
<g id="a_node46"><a xlink:href="classitk_1_1TransformFactory.html" target="_top" xlink:title="Create instances of Transforms.">
<polygon fill="white" stroke="black" points="620,-114.5 620,-133.5 768,-133.5 768,-114.5 620,-114.5"/>
<text text-anchor="middle" x="694" y="-121.5" font-family="Helvetica,sans-Serif" font-size="10.00">itk::TransformFactory&lt; T &gt;</text>
</a>
</g>
</g>
<!-- Node45&#45;&gt;Node46 -->
<g id="edge45" class="edge">
<title>Node45&#45;&gt;Node46</title>
<path fill="none" stroke="midnightblue" d="M565.99,-124C583.67,-124 602.29,-124 619.65,-124"/>
<polygon fill="midnightblue" stroke="midnightblue" points="565.71,-120.5 555.71,-124 565.71,-127.5 565.71,-120.5"/>
</g>
</g>
</svg>
