<?xml version="1.0" encoding="UTF-8" standalone="no"?>
<!DOCTYPE svg PUBLIC "-//W3C//DTD SVG 1.1//EN"
 "http://www.w3.org/Graphics/SVG/1.1/DTD/svg11.dtd">
<!-- Generated by graphviz version 2.43.0 (0)
 -->
<!-- Title: itk::QuadEdgeMeshFrontBaseIterator&lt; TMesh, TQE &gt; Pages: 1 -->
<svg width="231pt" height="184pt"
 viewBox="0.00 0.00 230.50 184.00" xmlns="http://www.w3.org/2000/svg" xmlns:xlink="http://www.w3.org/1999/xlink">
<g id="graph0" class="graph" transform="scale(1 1) rotate(0) translate(4 180)">
<title>itk::QuadEdgeMeshFrontBaseIterator&lt; TMesh, TQE &gt;</title>
<polygon fill="white" stroke="transparent" points="-4,4 -4,-180 226.5,-180 226.5,4 -4,4"/>
<!-- Node1 -->
<g id="node1" class="node">
<title>Node1</title>
<g id="a_node1"><a xlink:title="Front iterator on Mesh class.">
<polygon fill="#bfbfbf" stroke="black" points="39.5,-0.5 39.5,-30.5 199.5,-30.5 199.5,-0.5 39.5,-0.5"/>
<text text-anchor="start" x="47.5" y="-18.5" font-family="Helvetica,sans-Serif" font-size="10.00">itk::QuadEdgeMeshFrontBase</text>
<text text-anchor="middle" x="119.5" y="-7.5" font-family="Helvetica,sans-Serif" font-size="10.00">Iterator&lt; TMesh, TQE &gt;</text>
</a>
</g>
</g>
<!-- Node2 -->
<g id="node2" class="node">
<title>Node2</title>
<g id="a_node2"><a xlink:title="STL class.">
<polygon fill="white" stroke="#bfbfbf" points="0,-84 0,-103 81,-103 81,-84 0,-84"/>
<text text-anchor="middle" x="40.5" y="-91" font-family="Helvetica,sans-Serif" font-size="10.00">std::list&lt; T &gt;</text>
</a>
</g>
</g>
<!-- Node2&#45;&gt;Node1 -->
<g id="edge1" class="edge">
<title>Node2&#45;&gt;Node1</title>
<path fill="none" stroke="#9a32cd" stroke-dasharray="5,2" d="M57.11,-76.52C71.26,-62.91 91.39,-43.54 104.93,-30.52"/>
<polygon fill="#9a32cd" stroke="#9a32cd" points="54.34,-74.33 49.56,-83.78 59.2,-79.37 54.34,-74.33"/>
<text text-anchor="middle" x="107" y="-52" font-family="Helvetica,sans-Serif" font-size="10.00"> m_Front</text>
</g>
<!-- Node3 -->
<g id="node3" class="node">
<title>Node3</title>
<g id="a_node3"><a xlink:title=" ">
<polygon fill="white" stroke="#bfbfbf" points="26,-156.5 26,-175.5 55,-175.5 55,-156.5 26,-156.5"/>
<text text-anchor="middle" x="40.5" y="-163.5" font-family="Helvetica,sans-Serif" font-size="10.00">T</text>
</a>
</g>
</g>
<!-- Node3&#45;&gt;Node2 -->
<g id="edge2" class="edge">
<title>Node3&#45;&gt;Node2</title>
<path fill="none" stroke="#9a32cd" stroke-dasharray="5,2" d="M40.5,-145.94C40.5,-132.03 40.5,-113.82 40.5,-103.22"/>
<polygon fill="#9a32cd" stroke="#9a32cd" points="37,-146.36 40.5,-156.36 44,-146.36 37,-146.36"/>
<text text-anchor="middle" x="65" y="-130" font-family="Helvetica,sans-Serif" font-size="10.00"> elements</text>
</g>
<!-- Node4 -->
<g id="node4" class="node">
<title>Node4</title>
<g id="a_node4"><a xlink:href="classitk_1_1SmartPointer.html" target="_top" xlink:title=" ">
<polygon fill="white" stroke="black" points="99,-78.5 99,-108.5 206,-108.5 206,-78.5 99,-78.5"/>
<text text-anchor="start" x="107" y="-96.5" font-family="Helvetica,sans-Serif" font-size="10.00">itk::SmartPointer&lt;</text>
<text text-anchor="middle" x="152.5" y="-85.5" font-family="Helvetica,sans-Serif" font-size="10.00"> Self &gt;</text>
</a>
</g>
</g>
<!-- Node4&#45;&gt;Node1 -->
<g id="edge3" class="edge">
<title>Node4&#45;&gt;Node1</title>
<path fill="none" stroke="#9a32cd" stroke-dasharray="5,2" d="M142.22,-68.83C136.8,-56.35 130.33,-41.44 125.68,-30.73"/>
<polygon fill="#9a32cd" stroke="#9a32cd" points="139.1,-70.43 146.29,-78.2 145.52,-67.64 139.1,-70.43"/>
<text text-anchor="middle" x="180" y="-52" font-family="Helvetica,sans-Serif" font-size="10.00"> m_IsPointVisited</text>
</g>
</g>
</svg>
