<?xml version="1.0" encoding="UTF-8" standalone="no"?>
<!DOCTYPE svg PUBLIC "-//W3C//DTD SVG 1.1//EN"
 "http://www.w3.org/Graphics/SVG/1.1/DTD/svg11.dtd">
<!-- Generated by graphviz version 2.43.0 (0)
 -->
<!-- Title: itk::BSplineSmoothingOnUpdateDisplacementFieldTransformParametersAdaptor&lt; TTransform &gt; Pages: 1 -->
<svg width="1104pt" height="72pt"
 viewBox="0.00 0.00 1104.00 72.00" xmlns="http://www.w3.org/2000/svg" xmlns:xlink="http://www.w3.org/1999/xlink">
<g id="graph0" class="graph" transform="scale(1 1) rotate(0) translate(4 68)">
<title>itk::BSplineSmoothingOnUpdateDisplacementFieldTransformParametersAdaptor&lt; TTransform &gt;</title>
<polygon fill="white" stroke="transparent" points="-4,4 -4,-68 1100,-68 1100,4 -4,4"/>
<!-- Node1 -->
<g id="node1" class="node">
<title>Node1</title>
<g id="a_node1"><a xlink:title="Helper class for multiresolution image registration.">
<polygon fill="#bfbfbf" stroke="black" points="884,-11.5 884,-52.5 1096,-52.5 1096,-11.5 884,-11.5"/>
<text text-anchor="start" x="892" y="-40.5" font-family="Helvetica,sans-Serif" font-size="10.00">itk::BSplineSmoothingOnUpdate</text>
<text text-anchor="start" x="892" y="-29.5" font-family="Helvetica,sans-Serif" font-size="10.00">DisplacementFieldTransformParameters</text>
<text text-anchor="middle" x="990" y="-18.5" font-family="Helvetica,sans-Serif" font-size="10.00">Adaptor&lt; TTransform &gt;</text>
</a>
</g>
</g>
<!-- Node2 -->
<g id="node2" class="node">
<title>Node2</title>
<g id="a_node2"><a xlink:href="classitk_1_1DisplacementFieldTransformParametersAdaptor.html" target="_top" xlink:title="DisplacementFieldTransformParametersAdaptor is a helper class intended to definition.">
<polygon fill="white" stroke="black" points="660,-17 660,-47 848,-47 848,-17 660,-17"/>
<text text-anchor="start" x="668" y="-35" font-family="Helvetica,sans-Serif" font-size="10.00">itk::DisplacementFieldTransform</text>
<text text-anchor="middle" x="754" y="-24" font-family="Helvetica,sans-Serif" font-size="10.00">ParametersAdaptor&lt; TTransform &gt;</text>
</a>
</g>
</g>
<!-- Node2&#45;&gt;Node1 -->
<g id="edge1" class="edge">
<title>Node2&#45;&gt;Node1</title>
<path fill="none" stroke="midnightblue" d="M858.4,-32C866.84,-32 875.38,-32 883.83,-32"/>
<polygon fill="midnightblue" stroke="midnightblue" points="858.16,-28.5 848.16,-32 858.16,-35.5 858.16,-28.5"/>
</g>
<!-- Node3 -->
<g id="node3" class="node">
<title>Node3</title>
<g id="a_node3"><a xlink:href="classitk_1_1TransformParametersAdaptor.html" target="_top" xlink:title="Base helper class intended for multi&#45;resolution image registration.">
<polygon fill="white" stroke="black" points="484,-17 484,-47 624,-47 624,-17 484,-17"/>
<text text-anchor="start" x="492" y="-35" font-family="Helvetica,sans-Serif" font-size="10.00">itk::TransformParameters</text>
<text text-anchor="middle" x="554" y="-24" font-family="Helvetica,sans-Serif" font-size="10.00">Adaptor&lt; TTransform &gt;</text>
</a>
</g>
</g>
<!-- Node3&#45;&gt;Node2 -->
<g id="edge2" class="edge">
<title>Node3&#45;&gt;Node2</title>
<path fill="none" stroke="midnightblue" d="M634.34,-32C642.71,-32 651.27,-32 659.78,-32"/>
<polygon fill="midnightblue" stroke="midnightblue" points="634.25,-28.5 624.25,-32 634.25,-35.5 634.25,-28.5"/>
</g>
<!-- Node4 -->
<g id="node4" class="node">
<title>Node4</title>
<g id="a_node4"><a xlink:href="classitk_1_1TransformParametersAdaptorBase.html" target="_top" xlink:title=" ">
<polygon fill="white" stroke="black" points="230,-0.5 230,-63.5 448,-63.5 448,-0.5 230,-0.5"/>
<text text-anchor="start" x="238" y="-51.5" font-family="Helvetica,sans-Serif" font-size="10.00">itk::TransformParameters</text>
<text text-anchor="start" x="238" y="-40.5" font-family="Helvetica,sans-Serif" font-size="10.00">AdaptorBase&lt; Transform</text>
<text text-anchor="start" x="238" y="-29.5" font-family="Helvetica,sans-Serif" font-size="10.00">&lt; TTransform::ScalarType,</text>
<text text-anchor="start" x="238" y="-18.5" font-family="Helvetica,sans-Serif" font-size="10.00"> TTransform::InputSpaceDimension,</text>
<text text-anchor="middle" x="339" y="-7.5" font-family="Helvetica,sans-Serif" font-size="10.00"> TTransform::OutputSpaceDimension &gt; &gt;</text>
</a>
</g>
</g>
<!-- Node4&#45;&gt;Node3 -->
<g id="edge3" class="edge">
<title>Node4&#45;&gt;Node3</title>
<path fill="none" stroke="midnightblue" d="M458.29,-32C466.98,-32 475.56,-32 483.8,-32"/>
<polygon fill="midnightblue" stroke="midnightblue" points="458.06,-28.5 448.06,-32 458.06,-35.5 458.06,-28.5"/>
</g>
<!-- Node5 -->
<g id="node5" class="node">
<title>Node5</title>
<g id="a_node5"><a xlink:href="classitk_1_1Object.html" target="_top" xlink:title="Base class for most ITK classes.">
<polygon fill="white" stroke="black" points="127,-22.5 127,-41.5 194,-41.5 194,-22.5 127,-22.5"/>
<text text-anchor="middle" x="160.5" y="-29.5" font-family="Helvetica,sans-Serif" font-size="10.00">itk::Object</text>
</a>
</g>
</g>
<!-- Node5&#45;&gt;Node4 -->
<g id="edge4" class="edge">
<title>Node5&#45;&gt;Node4</title>
<path fill="none" stroke="midnightblue" d="M204.31,-32C212.25,-32 220.87,-32 229.78,-32"/>
<polygon fill="midnightblue" stroke="midnightblue" points="204.28,-28.5 194.28,-32 204.28,-35.5 204.28,-28.5"/>
</g>
<!-- Node6 -->
<g id="node6" class="node">
<title>Node6</title>
<g id="a_node6"><a xlink:href="classitk_1_1LightObject.html" target="_top" xlink:title="Light weight base class for most itk classes.">
<polygon fill="white" stroke="black" points="0,-22.5 0,-41.5 91,-41.5 91,-22.5 0,-22.5"/>
<text text-anchor="middle" x="45.5" y="-29.5" font-family="Helvetica,sans-Serif" font-size="10.00">itk::LightObject</text>
</a>
</g>
</g>
<!-- Node6&#45;&gt;Node5 -->
<g id="edge5" class="edge">
<title>Node6&#45;&gt;Node5</title>
<path fill="none" stroke="midnightblue" d="M101.28,-32C109.96,-32 118.69,-32 126.66,-32"/>
<polygon fill="midnightblue" stroke="midnightblue" points="101.16,-28.5 91.16,-32 101.16,-35.5 101.16,-28.5"/>
</g>
</g>
</svg>
