<?xml version="1.0" encoding="UTF-8" standalone="no"?>
<!DOCTYPE svg PUBLIC "-//W3C//DTD SVG 1.1//EN"
 "http://www.w3.org/Graphics/SVG/1.1/DTD/svg11.dtd">
<!-- Generated by graphviz version 2.43.0 (0)
 -->
<!-- Title: itk::PolygonGroupSpatialObjectXMLFileReader Pages: 1 -->
<svg width="173pt" height="330pt"
 viewBox="0.00 0.00 173.00 330.00" xmlns="http://www.w3.org/2000/svg" xmlns:xlink="http://www.w3.org/1999/xlink">
<g id="graph0" class="graph" transform="scale(1 1) rotate(0) translate(4 326)">
<title>itk::PolygonGroupSpatialObjectXMLFileReader</title>
<polygon fill="white" stroke="transparent" points="-4,4 -4,-326 169,-326 169,4 -4,4"/>
<!-- Node1 -->
<g id="node1" class="node">
<title>Node1</title>
<g id="a_node1"><a xlink:title=" ">
<polygon fill="#bfbfbf" stroke="black" points="14,-0.5 14,-30.5 151,-30.5 151,-0.5 14,-0.5"/>
<text text-anchor="start" x="22" y="-18.5" font-family="Helvetica,sans-Serif" font-size="10.00">itk::PolygonGroupSpatial</text>
<text text-anchor="middle" x="82.5" y="-7.5" font-family="Helvetica,sans-Serif" font-size="10.00">ObjectXMLFileReader</text>
</a>
</g>
</g>
<!-- Node2 -->
<g id="node2" class="node">
<title>Node2</title>
<g id="a_node2"><a xlink:href="classitk_1_1XMLReader.html" target="_top" xlink:title=" ">
<polygon fill="white" stroke="black" points="0,-67.5 0,-97.5 165,-97.5 165,-67.5 0,-67.5"/>
<text text-anchor="start" x="8" y="-85.5" font-family="Helvetica,sans-Serif" font-size="10.00">itk::XMLReader&lt; GroupSpatial</text>
<text text-anchor="middle" x="82.5" y="-74.5" font-family="Helvetica,sans-Serif" font-size="10.00">Object&lt; 3 &gt; &gt;</text>
</a>
</g>
</g>
<!-- Node2&#45;&gt;Node1 -->
<g id="edge1" class="edge">
<title>Node2&#45;&gt;Node1</title>
<path fill="none" stroke="midnightblue" d="M82.5,-57.11C82.5,-48.15 82.5,-38.32 82.5,-30.58"/>
<polygon fill="midnightblue" stroke="midnightblue" points="79,-57.4 82.5,-67.4 86,-57.4 79,-57.4"/>
</g>
<!-- Node3 -->
<g id="node3" class="node">
<title>Node3</title>
<g id="a_node3"><a xlink:href="classitk_1_1XMLReaderBase.html" target="_top" xlink:title=" ">
<polygon fill="white" stroke="black" points="25,-134.5 25,-153.5 140,-153.5 140,-134.5 25,-134.5"/>
<text text-anchor="middle" x="82.5" y="-141.5" font-family="Helvetica,sans-Serif" font-size="10.00">itk::XMLReaderBase</text>
</a>
</g>
</g>
<!-- Node3&#45;&gt;Node2 -->
<g id="edge2" class="edge">
<title>Node3&#45;&gt;Node2</title>
<path fill="none" stroke="midnightblue" d="M82.5,-124.23C82.5,-115.59 82.5,-105.5 82.5,-97.52"/>
<polygon fill="midnightblue" stroke="midnightblue" points="79,-124.48 82.5,-134.48 86,-124.48 79,-124.48"/>
</g>
<!-- Node4 -->
<g id="node4" class="node">
<title>Node4</title>
<g id="a_node4"><a xlink:href="classitk_1_1LightProcessObject.html" target="_top" xlink:title="LightProcessObject is the base class for all process objects (source, filters, mappers) in the Insigh...">
<polygon fill="white" stroke="black" points="18.5,-190.5 18.5,-209.5 146.5,-209.5 146.5,-190.5 18.5,-190.5"/>
<text text-anchor="middle" x="82.5" y="-197.5" font-family="Helvetica,sans-Serif" font-size="10.00">itk::LightProcessObject</text>
</a>
</g>
</g>
<!-- Node4&#45;&gt;Node3 -->
<g id="edge3" class="edge">
<title>Node4&#45;&gt;Node3</title>
<path fill="none" stroke="midnightblue" d="M82.5,-179.8C82.5,-170.91 82.5,-160.78 82.5,-153.75"/>
<polygon fill="midnightblue" stroke="midnightblue" points="79,-180.08 82.5,-190.08 86,-180.08 79,-180.08"/>
</g>
<!-- Node5 -->
<g id="node5" class="node">
<title>Node5</title>
<g id="a_node5"><a xlink:href="classitk_1_1Object.html" target="_top" xlink:title="Base class for most ITK classes.">
<polygon fill="white" stroke="black" points="49,-246.5 49,-265.5 116,-265.5 116,-246.5 49,-246.5"/>
<text text-anchor="middle" x="82.5" y="-253.5" font-family="Helvetica,sans-Serif" font-size="10.00">itk::Object</text>
</a>
</g>
</g>
<!-- Node5&#45;&gt;Node4 -->
<g id="edge4" class="edge">
<title>Node5&#45;&gt;Node4</title>
<path fill="none" stroke="midnightblue" d="M82.5,-235.8C82.5,-226.91 82.5,-216.78 82.5,-209.75"/>
<polygon fill="midnightblue" stroke="midnightblue" points="79,-236.08 82.5,-246.08 86,-236.08 79,-236.08"/>
</g>
<!-- Node6 -->
<g id="node6" class="node">
<title>Node6</title>
<g id="a_node6"><a xlink:href="classitk_1_1LightObject.html" target="_top" xlink:title="Light weight base class for most itk classes.">
<polygon fill="white" stroke="black" points="37,-302.5 37,-321.5 128,-321.5 128,-302.5 37,-302.5"/>
<text text-anchor="middle" x="82.5" y="-309.5" font-family="Helvetica,sans-Serif" font-size="10.00">itk::LightObject</text>
</a>
</g>
</g>
<!-- Node6&#45;&gt;Node5 -->
<g id="edge5" class="edge">
<title>Node6&#45;&gt;Node5</title>
<path fill="none" stroke="midnightblue" d="M82.5,-291.8C82.5,-282.91 82.5,-272.78 82.5,-265.75"/>
<polygon fill="midnightblue" stroke="midnightblue" points="79,-292.08 82.5,-302.08 86,-292.08 79,-292.08"/>
</g>
</g>
</svg>
