<?xml version="1.0" encoding="UTF-8" standalone="no"?>
<!DOCTYPE svg PUBLIC "-//W3C//DTD SVG 1.1//EN"
 "http://www.w3.org/Graphics/SVG/1.1/DTD/svg11.dtd">
<!-- Generated by graphviz version 2.43.0 (0)
 -->
<!-- Title: itk::ContourSpatialObject&lt; TDimension &gt; Pages: 1 -->
<svg width="2589pt" height="875pt"
 viewBox="0.00 0.00 2589.00 875.00" xmlns="http://www.w3.org/2000/svg" xmlns:xlink="http://www.w3.org/1999/xlink">
<g id="graph0" class="graph" transform="scale(1 1) rotate(0) translate(4 871)">
<title>itk::ContourSpatialObject&lt; TDimension &gt;</title>
<polygon fill="white" stroke="transparent" points="-4,4 -4,-871 2585,-871 2585,4 -4,4"/>
<!-- Node1 -->
<g id="node1" class="node">
<title>Node1</title>
<g id="a_node1"><a xlink:title="Representation of a Contour based on the spatial object classes.">
<polygon fill="#bfbfbf" stroke="black" points="2442,-428.5 2442,-458.5 2581,-458.5 2581,-428.5 2442,-428.5"/>
<text text-anchor="start" x="2450" y="-446.5" font-family="Helvetica,sans-Serif" font-size="10.00">itk::ContourSpatialObject</text>
<text text-anchor="middle" x="2511.5" y="-435.5" font-family="Helvetica,sans-Serif" font-size="10.00">&lt; TDimension &gt;</text>
</a>
</g>
</g>
<!-- Node2 -->
<g id="node2" class="node">
<title>Node2</title>
<g id="a_node2"><a xlink:href="classitk_1_1PointBasedSpatialObject.html" target="_top" xlink:title=" ">
<polygon fill="white" stroke="black" points="2197,-396.5 2197,-426.5 2405,-426.5 2405,-396.5 2197,-396.5"/>
<text text-anchor="start" x="2205" y="-414.5" font-family="Helvetica,sans-Serif" font-size="10.00">itk::PointBasedSpatialObject</text>
<text text-anchor="middle" x="2301" y="-403.5" font-family="Helvetica,sans-Serif" font-size="10.00">&lt; 3, ContourSpatialObjectPoint&lt; 3 &gt; &gt;</text>
</a>
</g>
</g>
<!-- Node2&#45;&gt;Node1 -->
<g id="edge1" class="edge">
<title>Node2&#45;&gt;Node1</title>
<path fill="none" stroke="midnightblue" d="M2409.82,-428.05C2420.69,-429.72 2431.5,-431.38 2441.79,-432.96"/>
<polygon fill="midnightblue" stroke="midnightblue" points="2410.26,-424.57 2399.84,-426.52 2409.19,-431.49 2410.26,-424.57"/>
</g>
<!-- Node3 -->
<g id="node3" class="node">
<title>Node3</title>
<g id="a_node3"><a xlink:href="classitk_1_1SpatialObject.html" target="_top" xlink:title=" ">
<polygon fill="white" stroke="black" points="1895,-396.5 1895,-426.5 1996,-426.5 1996,-396.5 1895,-396.5"/>
<text text-anchor="start" x="1903" y="-414.5" font-family="Helvetica,sans-Serif" font-size="10.00">itk::SpatialObject</text>
<text text-anchor="middle" x="1945.5" y="-403.5" font-family="Helvetica,sans-Serif" font-size="10.00">&lt; TDimension &gt;</text>
</a>
</g>
</g>
<!-- Node3&#45;&gt;Node2 -->
<g id="edge2" class="edge">
<title>Node3&#45;&gt;Node2</title>
<path fill="none" stroke="midnightblue" d="M2006.09,-411.5C2058.09,-411.5 2134.7,-411.5 2196.68,-411.5"/>
<polygon fill="midnightblue" stroke="midnightblue" points="2006.02,-408 1996.02,-411.5 2006.02,-415 2006.02,-408"/>
</g>
<!-- Node4 -->
<g id="node4" class="node">
<title>Node4</title>
<g id="a_node4"><a xlink:href="classitk_1_1DataObject.html" target="_top" xlink:title="Base class for all data objects in ITK.">
<polygon fill="white" stroke="black" points="1343,-154 1343,-173 1433,-173 1433,-154 1343,-154"/>
<text text-anchor="middle" x="1388" y="-161" font-family="Helvetica,sans-Serif" font-size="10.00">itk::DataObject</text>
</a>
</g>
</g>
<!-- Node4&#45;&gt;Node3 -->
<g id="edge3" class="edge">
<title>Node4&#45;&gt;Node3</title>
<path fill="none" stroke="midnightblue" d="M1443.23,-164.01C1522.4,-166.61 1672.73,-178.69 1788,-230.5 1822.88,-246.18 1835.55,-251.57 1855,-284.5 1878.41,-324.14 1843.18,-351.43 1873,-386.5 1878.79,-393.31 1886.55,-398.27 1894.82,-401.88"/>
<polygon fill="midnightblue" stroke="midnightblue" points="1443.1,-160.5 1433.01,-163.71 1442.9,-167.5 1443.1,-160.5"/>
</g>
<!-- Node32 -->
<g id="node32" class="node">
<title>Node32</title>
<g id="a_node32"><a xlink:href="classitk_1_1SpatialObject.html" target="_top" xlink:title="Implementation of the composite pattern.">
<polygon fill="white" stroke="black" points="1664,-296.5 1664,-326.5 1765,-326.5 1765,-296.5 1664,-296.5"/>
<text text-anchor="start" x="1672" y="-314.5" font-family="Helvetica,sans-Serif" font-size="10.00">itk::SpatialObject</text>
<text text-anchor="middle" x="1714.5" y="-303.5" font-family="Helvetica,sans-Serif" font-size="10.00">&lt; VDimension &gt;</text>
</a>
</g>
</g>
<!-- Node4&#45;&gt;Node32 -->
<g id="edge39" class="edge">
<title>Node4&#45;&gt;Node32</title>
<path fill="none" stroke="midnightblue" d="M1432.82,-176.02C1480.88,-190.56 1559.62,-216.79 1623,-249.5 1649.23,-263.04 1676.88,-282.91 1694.6,-296.48"/>
<polygon fill="midnightblue" stroke="midnightblue" points="1433.63,-172.61 1423.04,-173.09 1431.62,-179.31 1433.63,-172.61"/>
</g>
<!-- Node5 -->
<g id="node5" class="node">
<title>Node5</title>
<g id="a_node5"><a xlink:href="classitk_1_1Object.html" target="_top" xlink:title="Base class for most ITK classes.">
<polygon fill="white" stroke="black" points="1003.5,-155 1003.5,-174 1070.5,-174 1070.5,-155 1003.5,-155"/>
<text text-anchor="middle" x="1037" y="-162" font-family="Helvetica,sans-Serif" font-size="10.00">itk::Object</text>
</a>
</g>
</g>
<!-- Node5&#45;&gt;Node4 -->
<g id="edge4" class="edge">
<title>Node5&#45;&gt;Node4</title>
<path fill="none" stroke="midnightblue" d="M1080.66,-164.38C1147.25,-164.19 1275.25,-163.82 1342.79,-163.63"/>
<polygon fill="midnightblue" stroke="midnightblue" points="1080.51,-160.88 1070.52,-164.41 1080.53,-167.88 1080.51,-160.88"/>
</g>
<!-- Node6 -->
<g id="node6" class="node">
<title>Node6</title>
<g id="a_node6"><a xlink:href="classitk_1_1LightObject.html" target="_top" xlink:title="Light weight base class for most itk classes.">
<polygon fill="white" stroke="black" points="665,-151 665,-170 756,-170 756,-151 665,-151"/>
<text text-anchor="middle" x="710.5" y="-158" font-family="Helvetica,sans-Serif" font-size="10.00">itk::LightObject</text>
</a>
</g>
</g>
<!-- Node6&#45;&gt;Node5 -->
<g id="edge5" class="edge">
<title>Node6&#45;&gt;Node5</title>
<path fill="none" stroke="midnightblue" d="M766.37,-161.18C834.34,-162.01 947.92,-163.41 1003.45,-164.1"/>
<polygon fill="midnightblue" stroke="midnightblue" points="766.32,-157.68 756.28,-161.05 766.24,-164.68 766.32,-157.68"/>
</g>
<!-- Node7 -->
<g id="node7" class="node">
<title>Node7</title>
<g id="a_node7"><a xlink:title=" ">
<polygon fill="white" stroke="#bfbfbf" points="372,-148 372,-167 479,-167 479,-148 372,-148"/>
<text text-anchor="middle" x="425.5" y="-155" font-family="Helvetica,sans-Serif" font-size="10.00">std::atomic&lt; int &gt;</text>
</a>
</g>
</g>
<!-- Node7&#45;&gt;Node6 -->
<g id="edge6" class="edge">
<title>Node7&#45;&gt;Node6</title>
<path fill="none" stroke="#9a32cd" stroke-dasharray="5,2" d="M489.4,-158.17C542.56,-158.73 617.4,-159.52 664.67,-160.02"/>
<polygon fill="#9a32cd" stroke="#9a32cd" points="489.1,-154.66 479.07,-158.06 489.03,-161.66 489.1,-154.66"/>
<text text-anchor="middle" x="566.5" y="-162.5" font-family="Helvetica,sans-Serif" font-size="10.00"> m_ReferenceCount</text>
</g>
<!-- Node8 -->
<g id="node8" class="node">
<title>Node8</title>
<g id="a_node8"><a xlink:title="STL class.">
<polygon fill="white" stroke="#bfbfbf" points="678,-469 678,-488 743,-488 743,-469 678,-469"/>
<text text-anchor="middle" x="710.5" y="-476" font-family="Helvetica,sans-Serif" font-size="10.00">std::string</text>
</a>
</g>
</g>
<!-- Node8&#45;&gt;Node3 -->
<g id="edge37" class="edge">
<title>Node8&#45;&gt;Node3</title>
<path fill="none" stroke="#9a32cd" stroke-dasharray="5,2" d="M753.66,-480.83C898.54,-488.1 1389.1,-506.56 1788,-448.5 1824.19,-443.23 1864.32,-433.67 1894.89,-425.58"/>
<polygon fill="#9a32cd" stroke="#9a32cd" points="753.6,-477.32 743.44,-480.31 753.24,-484.32 753.6,-477.32"/>
<text text-anchor="middle" x="1388" y="-489.5" font-family="Helvetica,sans-Serif" font-size="10.00"> m_TypeName</text>
</g>
<!-- Node8&#45;&gt;Node4 -->
<g id="edge19" class="edge">
<title>Node8&#45;&gt;Node4</title>
<path fill="none" stroke="#9a32cd" stroke-dasharray="5,2" d="M715.84,-458.98C725.4,-420.4 751.85,-333.96 806,-285.5 847.17,-248.65 878.55,-276.32 923,-243.5 933.73,-235.58 929.46,-226.17 941,-219.5 1006.51,-181.64 1203.97,-188.26 1279,-178.5 1300.02,-175.77 1323.32,-172.55 1342.88,-169.8"/>
<polygon fill="#9a32cd" stroke="#9a32cd" points="712.38,-458.38 713.49,-468.92 719.2,-459.99 712.38,-458.38"/>
<text text-anchor="middle" x="1037" y="-222.5" font-family="Helvetica,sans-Serif" font-size="10.00"> m_SourceOutputName</text>
</g>
<!-- Node8&#45;&gt;Node5 -->
<g id="edge7" class="edge">
<title>Node8&#45;&gt;Node5</title>
<path fill="none" stroke="#9a32cd" stroke-dasharray="5,2" d="M713.01,-458.95C717.69,-412.27 736.22,-293.64 806,-232.5 846.22,-197.27 875.59,-229.23 923,-204.5 932.49,-199.55 931.54,-193.51 941,-188.5 960.39,-178.23 984.36,-172.22 1003.37,-168.78"/>
<polygon fill="#9a32cd" stroke="#9a32cd" points="709.52,-458.69 712.11,-468.96 716.49,-459.31 709.52,-458.69"/>
<text text-anchor="middle" x="864.5" y="-235.5" font-family="Helvetica,sans-Serif" font-size="10.00"> m_ObjectName</text>
</g>
<!-- Node26 -->
<g id="node26" class="node">
<title>Node26</title>
<g id="a_node26"><a xlink:href="classitk_1_1SpatialObjectProperty.html" target="_top" xlink:title=" ">
<polygon fill="white" stroke="black" points="1317,-556 1317,-575 1459,-575 1459,-556 1317,-556"/>
<text text-anchor="middle" x="1388" y="-563" font-family="Helvetica,sans-Serif" font-size="10.00">itk::SpatialObjectProperty</text>
</a>
</g>
</g>
<!-- Node8&#45;&gt;Node26 -->
<g id="edge33" class="edge">
<title>Node8&#45;&gt;Node26</title>
<path fill="none" stroke="#9a32cd" stroke-dasharray="5,2" d="M731.99,-493.9C750.36,-506.82 778.55,-524.55 806,-533.5 982.72,-591.13 1205.55,-582.45 1316.91,-573"/>
<polygon fill="#9a32cd" stroke="#9a32cd" points="733.98,-491.01 723.82,-488 729.88,-496.69 733.98,-491.01"/>
<text text-anchor="middle" x="1037" y="-582.5" font-family="Helvetica,sans-Serif" font-size="10.00"> m_Name</text>
</g>
<!-- Node27 -->
<g id="node27" class="node">
<title>Node27</title>
<g id="a_node27"><a xlink:title=" ">
<polygon fill="white" stroke="#bfbfbf" points="976,-507.5 976,-537.5 1098,-537.5 1098,-507.5 976,-507.5"/>
<text text-anchor="start" x="984" y="-525.5" font-family="Helvetica,sans-Serif" font-size="10.00">std::map&lt; std::string,</text>
<text text-anchor="middle" x="1037" y="-514.5" font-family="Helvetica,sans-Serif" font-size="10.00"> std::string &gt;</text>
</a>
</g>
</g>
<!-- Node8&#45;&gt;Node27 -->
<g id="edge30" class="edge">
<title>Node8&#45;&gt;Node27</title>
<path fill="none" stroke="#9a32cd" stroke-dasharray="5,2" d="M753.73,-484.92C770.05,-487.35 788.89,-490.12 806,-492.5 863.63,-500.53 929.48,-509.05 975.91,-514.95"/>
<polygon fill="#9a32cd" stroke="#9a32cd" points="753.82,-481.39 743.41,-483.37 752.78,-488.31 753.82,-481.39"/>
<text text-anchor="middle" x="864.5" y="-521.5" font-family="Helvetica,sans-Serif" font-size="10.00"> keys</text>
<text text-anchor="middle" x="864.5" y="-510.5" font-family="Helvetica,sans-Serif" font-size="10.00">elements</text>
</g>
<!-- Node28 -->
<g id="node28" class="node">
<title>Node28</title>
<g id="a_node28"><a xlink:title=" ">
<polygon fill="white" stroke="#bfbfbf" points="976,-604.5 976,-634.5 1098,-634.5 1098,-604.5 976,-604.5"/>
<text text-anchor="start" x="984" y="-622.5" font-family="Helvetica,sans-Serif" font-size="10.00">std::map&lt; std::string,</text>
<text text-anchor="middle" x="1037" y="-611.5" font-family="Helvetica,sans-Serif" font-size="10.00"> double &gt;</text>
</a>
</g>
</g>
<!-- Node8&#45;&gt;Node28 -->
<g id="edge32" class="edge">
<title>Node8&#45;&gt;Node28</title>
<path fill="none" stroke="#9a32cd" stroke-dasharray="5,2" d="M721.64,-497.19C736.5,-522.57 766.74,-567.18 806,-588.5 858.4,-616.96 927.09,-622.87 975.71,-622.8"/>
<polygon fill="#9a32cd" stroke="#9a32cd" points="724.53,-495.18 716.55,-488.21 718.44,-498.63 724.53,-495.18"/>
<text text-anchor="middle" x="864.5" y="-622.5" font-family="Helvetica,sans-Serif" font-size="10.00"> keys</text>
</g>
<!-- Node8&#45;&gt;Node32 -->
<g id="edge46" class="edge">
<title>Node8&#45;&gt;Node32</title>
<path fill="none" stroke="#9a32cd" stroke-dasharray="5,2" d="M730.39,-461.79C767.64,-429.93 854.47,-360.97 941,-330.5 1074.89,-283.35 1515.32,-301.17 1663.98,-308.76"/>
<polygon fill="#9a32cd" stroke="#9a32cd" points="727.68,-459.5 722.42,-468.69 732.27,-464.79 727.68,-459.5"/>
<text text-anchor="middle" x="1215" y="-305.5" font-family="Helvetica,sans-Serif" font-size="10.00"> m_TypeName</text>
</g>
<!-- Node9 -->
<g id="node9" class="node">
<title>Node9</title>
<g id="a_node9"><a xlink:title="STL class.">
<polygon fill="white" stroke="#bfbfbf" points="373.5,-463.5 373.5,-493.5 477.5,-493.5 477.5,-463.5 373.5,-463.5"/>
<text text-anchor="start" x="381.5" y="-481.5" font-family="Helvetica,sans-Serif" font-size="10.00">std::basic_string&lt;</text>
<text text-anchor="middle" x="425.5" y="-470.5" font-family="Helvetica,sans-Serif" font-size="10.00"> char &gt;</text>
</a>
</g>
</g>
<!-- Node9&#45;&gt;Node8 -->
<g id="edge8" class="edge">
<title>Node9&#45;&gt;Node8</title>
<path fill="none" stroke="midnightblue" d="M487.98,-478.5C546.48,-478.5 632.17,-478.5 677.93,-478.5"/>
<polygon fill="midnightblue" stroke="midnightblue" points="487.75,-475 477.75,-478.5 487.75,-482 487.75,-475"/>
</g>
<!-- Node10 -->
<g id="node10" class="node">
<title>Node10</title>
<g id="a_node10"><a xlink:href="classitk_1_1MetaDataDictionary.html" target="_top" xlink:title="Provides a mechanism for storing a collection of arbitrary data types.">
<polygon fill="white" stroke="black" points="643.5,-190 643.5,-209 777.5,-209 777.5,-190 643.5,-190"/>
<text text-anchor="middle" x="710.5" y="-197" font-family="Helvetica,sans-Serif" font-size="10.00">itk::MetaDataDictionary</text>
</a>
</g>
</g>
<!-- Node10&#45;&gt;Node5 -->
<g id="edge9" class="edge">
<title>Node10&#45;&gt;Node5</title>
<path fill="none" stroke="#9a32cd" stroke-dasharray="5,2" d="M787.85,-191.27C856.2,-183.89 953.13,-173.44 1003.21,-168.04"/>
<polygon fill="#9a32cd" stroke="#9a32cd" points="787.13,-187.82 777.56,-192.38 787.88,-194.78 787.13,-187.82"/>
<text text-anchor="middle" x="864.5" y="-192.5" font-family="Helvetica,sans-Serif" font-size="10.00"> m_MetaDataDictionary</text>
</g>
<!-- Node11 -->
<g id="node11" class="node">
<title>Node11</title>
<g id="a_node11"><a xlink:title=" ">
<polygon fill="white" stroke="#bfbfbf" points="351,-186.5 351,-216.5 500,-216.5 500,-186.5 351,-186.5"/>
<text text-anchor="start" x="359" y="-204.5" font-family="Helvetica,sans-Serif" font-size="10.00">std::shared_ptr&lt; MetaData</text>
<text text-anchor="middle" x="425.5" y="-193.5" font-family="Helvetica,sans-Serif" font-size="10.00">DictionaryMapType &gt;</text>
</a>
</g>
</g>
<!-- Node11&#45;&gt;Node10 -->
<g id="edge10" class="edge">
<title>Node11&#45;&gt;Node10</title>
<path fill="none" stroke="#9a32cd" stroke-dasharray="5,2" d="M510.18,-200.91C552.75,-200.61 603.75,-200.25 643.5,-199.97"/>
<polygon fill="#9a32cd" stroke="#9a32cd" points="510.09,-197.41 500.12,-200.98 510.14,-204.41 510.09,-197.41"/>
<text text-anchor="middle" x="566.5" y="-204.5" font-family="Helvetica,sans-Serif" font-size="10.00"> m_Dictionary</text>
</g>
<!-- Node12 -->
<g id="node12" class="node">
<title>Node12</title>
<g id="a_node12"><a xlink:title="STL class.">
<polygon fill="white" stroke="#bfbfbf" points="114,-191 114,-210 215,-210 215,-191 114,-191"/>
<text text-anchor="middle" x="164.5" y="-198" font-family="Helvetica,sans-Serif" font-size="10.00">std::map&lt; K, T &gt;</text>
</a>
</g>
</g>
<!-- Node12&#45;&gt;Node11 -->
<g id="edge11" class="edge">
<title>Node12&#45;&gt;Node11</title>
<path fill="none" stroke="#9a32cd" stroke-dasharray="5,2" d="M225.34,-200.73C262.61,-200.87 310.86,-201.06 350.52,-201.21"/>
<polygon fill="#9a32cd" stroke="#9a32cd" points="225.14,-197.23 215.13,-200.69 225.12,-204.23 225.14,-197.23"/>
<text text-anchor="middle" x="283" y="-204.5" font-family="Helvetica,sans-Serif" font-size="10.00"> ptr</text>
</g>
<!-- Node13 -->
<g id="node13" class="node">
<title>Node13</title>
<g id="a_node13"><a xlink:title=" ">
<polygon fill="white" stroke="#bfbfbf" points="0,-191 0,-210 29,-210 29,-191 0,-191"/>
<text text-anchor="middle" x="14.5" y="-198" font-family="Helvetica,sans-Serif" font-size="10.00">K</text>
</a>
</g>
</g>
<!-- Node13&#45;&gt;Node12 -->
<g id="edge12" class="edge">
<title>Node13&#45;&gt;Node12</title>
<path fill="none" stroke="#9a32cd" stroke-dasharray="5,2" d="M39.24,-200.5C59.28,-200.5 88.63,-200.5 113.78,-200.5"/>
<polygon fill="#9a32cd" stroke="#9a32cd" points="39.16,-197 29.16,-200.5 39.16,-204 39.16,-197"/>
<text text-anchor="middle" x="71.5" y="-203.5" font-family="Helvetica,sans-Serif" font-size="10.00"> keys</text>
</g>
<!-- Node14 -->
<g id="node14" class="node">
<title>Node14</title>
<g id="a_node14"><a xlink:title=" ">
<polygon fill="white" stroke="#bfbfbf" points="0,-138 0,-157 29,-157 29,-138 0,-138"/>
<text text-anchor="middle" x="14.5" y="-145" font-family="Helvetica,sans-Serif" font-size="10.00">T</text>
</a>
</g>
</g>
<!-- Node14&#45;&gt;Node12 -->
<g id="edge13" class="edge">
<title>Node14&#45;&gt;Node12</title>
<path fill="none" stroke="#9a32cd" stroke-dasharray="5,2" d="M38.78,-155.84C65.36,-165.35 108.76,-180.9 136.72,-190.91"/>
<polygon fill="#9a32cd" stroke="#9a32cd" points="39.75,-152.47 29.16,-152.39 37.39,-159.06 39.75,-152.47"/>
<text text-anchor="middle" x="71.5" y="-179.5" font-family="Helvetica,sans-Serif" font-size="10.00"> elements</text>
</g>
<!-- Node16 -->
<g id="node16" class="node">
<title>Node16</title>
<g id="a_node16"><a xlink:title="STL class.">
<polygon fill="white" stroke="#bfbfbf" points="233,-116 233,-135 333,-135 333,-116 233,-116"/>
<text text-anchor="middle" x="283" y="-123" font-family="Helvetica,sans-Serif" font-size="10.00">std::atomic&lt; T &gt;</text>
</a>
</g>
</g>
<!-- Node14&#45;&gt;Node16 -->
<g id="edge16" class="edge">
<title>Node14&#45;&gt;Node16</title>
<path fill="none" stroke="#9a32cd" stroke-dasharray="5,2" d="M39.45,-145.18C42,-144.95 44.55,-144.72 47,-144.5 111.22,-138.85 185.37,-132.96 232.92,-129.26"/>
<polygon fill="#9a32cd" stroke="#9a32cd" points="38.92,-141.72 29.3,-146.14 39.58,-148.69 38.92,-141.72"/>
<text text-anchor="middle" x="71.5" y="-147.5" font-family="Helvetica,sans-Serif" font-size="10.00"> ptr</text>
</g>
<!-- Node15 -->
<g id="node15" class="node">
<title>Node15</title>
<g id="a_node15"><a xlink:href="classitk_1_1TimeStamp.html" target="_top" xlink:title="Generate a unique, increasing time value.">
<polygon fill="white" stroke="black" points="664.5,-109 664.5,-128 756.5,-128 756.5,-109 664.5,-109"/>
<text text-anchor="middle" x="710.5" y="-116" font-family="Helvetica,sans-Serif" font-size="10.00">itk::TimeStamp</text>
</a>
</g>
</g>
<!-- Node15&#45;&gt;Node4 -->
<g id="edge20" class="edge">
<title>Node15&#45;&gt;Node4</title>
<path fill="none" stroke="#9a32cd" stroke-dasharray="5,2" d="M767.21,-119.27C847.95,-120.7 1002.15,-124.56 1133,-134.5 1206.69,-140.1 1291.97,-150.68 1342.59,-157.4"/>
<polygon fill="#9a32cd" stroke="#9a32cd" points="766.84,-115.77 756.79,-119.09 766.73,-122.76 766.84,-115.77"/>
<text text-anchor="middle" x="1037" y="-137.5" font-family="Helvetica,sans-Serif" font-size="10.00"> m_UpdateMTime</text>
</g>
<!-- Node15&#45;&gt;Node5 -->
<g id="edge14" class="edge">
<title>Node15&#45;&gt;Node5</title>
<path fill="none" stroke="#9a32cd" stroke-dasharray="5,2" d="M767.09,-125.92C809.76,-131.67 870.13,-139.9 923,-147.5 950.1,-151.4 980.82,-156.03 1003.38,-159.48"/>
<polygon fill="#9a32cd" stroke="#9a32cd" points="767.28,-122.42 756.91,-124.55 766.35,-129.35 767.28,-122.42"/>
<text text-anchor="middle" x="864.5" y="-150.5" font-family="Helvetica,sans-Serif" font-size="10.00"> m_MTime</text>
</g>
<!-- Node16&#45;&gt;Node15 -->
<g id="edge15" class="edge">
<title>Node16&#45;&gt;Node15</title>
<path fill="none" stroke="#9a32cd" stroke-dasharray="5,2" d="M343.36,-124.52C429.4,-123.11 586.94,-120.52 664.26,-119.24"/>
<polygon fill="#9a32cd" stroke="#9a32cd" points="343.17,-121.03 333.23,-124.69 343.28,-128.03 343.17,-121.03"/>
<text text-anchor="middle" x="425.5" y="-127.5" font-family="Helvetica,sans-Serif" font-size="10.00"> m_GlobalTimeStamp</text>
</g>
<!-- Node17 -->
<g id="node17" class="node">
<title>Node17</title>
<g id="a_node17"><a xlink:href="classitk_1_1RealTimeStamp.html" target="_top" xlink:title="The RealTimeStamp is a data structure for representing time with high precision and a large dynamic r...">
<polygon fill="white" stroke="black" points="980.5,-50 980.5,-69 1093.5,-69 1093.5,-50 980.5,-50"/>
<text text-anchor="middle" x="1037" y="-57" font-family="Helvetica,sans-Serif" font-size="10.00">itk::RealTimeStamp</text>
</a>
</g>
</g>
<!-- Node17&#45;&gt;Node4 -->
<g id="edge17" class="edge">
<title>Node17&#45;&gt;Node4</title>
<path fill="none" stroke="#9a32cd" stroke-dasharray="5,2" d="M1103.58,-55.45C1153.36,-54.66 1222.61,-58.56 1279,-80.5 1321.53,-97.05 1361.32,-135.82 1378.32,-153.9"/>
<polygon fill="#9a32cd" stroke="#9a32cd" points="1103.5,-51.95 1093.58,-55.67 1103.66,-58.95 1103.5,-51.95"/>
<text text-anchor="middle" x="1215" y="-83.5" font-family="Helvetica,sans-Serif" font-size="10.00"> m_RealTimeStamp</text>
</g>
<!-- Node18 -->
<g id="node18" class="node">
<title>Node18</title>
<g id="a_node18"><a xlink:title=" ">
<polygon fill="white" stroke="#bfbfbf" points="682.5,-50 682.5,-69 738.5,-69 738.5,-50 682.5,-50"/>
<text text-anchor="middle" x="710.5" y="-57" font-family="Helvetica,sans-Serif" font-size="10.00">uint64_t</text>
</a>
</g>
</g>
<!-- Node18&#45;&gt;Node17 -->
<g id="edge18" class="edge">
<title>Node18&#45;&gt;Node17</title>
<path fill="none" stroke="#9a32cd" stroke-dasharray="5,2" d="M748.93,-59.5C805.77,-59.5 914.22,-59.5 980.33,-59.5"/>
<polygon fill="#9a32cd" stroke="#9a32cd" points="748.61,-56 738.61,-59.5 748.61,-63 748.61,-56"/>
<text text-anchor="middle" x="864.5" y="-73.5" font-family="Helvetica,sans-Serif" font-size="10.00"> m_Seconds</text>
<text text-anchor="middle" x="864.5" y="-62.5" font-family="Helvetica,sans-Serif" font-size="10.00">m_MicroSeconds</text>
</g>
<!-- Node19 -->
<g id="node19" class="node">
<title>Node19</title>
<g id="a_node19"><a xlink:href="classitk_1_1WeakPointer.html" target="_top" xlink:title=" ">
<polygon fill="white" stroke="black" points="976.5,-0.5 976.5,-30.5 1097.5,-30.5 1097.5,-0.5 976.5,-0.5"/>
<text text-anchor="start" x="984.5" y="-18.5" font-family="Helvetica,sans-Serif" font-size="10.00">itk::WeakPointer&lt; itk</text>
<text text-anchor="middle" x="1037" y="-7.5" font-family="Helvetica,sans-Serif" font-size="10.00">::ProcessObject &gt;</text>
</a>
</g>
</g>
<!-- Node19&#45;&gt;Node4 -->
<g id="edge21" class="edge">
<title>Node19&#45;&gt;Node4</title>
<path fill="none" stroke="#9a32cd" stroke-dasharray="5,2" d="M1107.74,-10.46C1158.02,-9.79 1226.07,-15.16 1279,-42.5 1330.03,-68.86 1368.31,-130.05 1381.76,-153.81"/>
<polygon fill="#9a32cd" stroke="#9a32cd" points="1107.53,-6.97 1097.61,-10.68 1107.69,-13.96 1107.53,-6.97"/>
<text text-anchor="middle" x="1215" y="-45.5" font-family="Helvetica,sans-Serif" font-size="10.00"> m_Source</text>
</g>
<!-- Node20 -->
<g id="node20" class="node">
<title>Node20</title>
<g id="a_node20"><a xlink:href="classitk_1_1ImageRegion.html" target="_top" xlink:title=" ">
<polygon fill="white" stroke="black" points="1297,-402 1297,-421 1479,-421 1479,-402 1297,-402"/>
<text text-anchor="middle" x="1388" y="-409" font-family="Helvetica,sans-Serif" font-size="10.00">itk::ImageRegion&lt; VDimension &gt;</text>
</a>
</g>
</g>
<!-- Node20&#45;&gt;Node3 -->
<g id="edge22" class="edge">
<title>Node20&#45;&gt;Node3</title>
<path fill="none" stroke="#9a32cd" stroke-dasharray="5,2" d="M1489.43,-411.5C1608.91,-411.5 1803.62,-411.5 1894.65,-411.5"/>
<polygon fill="#9a32cd" stroke="#9a32cd" points="1489.18,-408 1479.18,-411.5 1489.18,-415 1489.18,-408"/>
<text text-anchor="middle" x="1714.5" y="-436.5" font-family="Helvetica,sans-Serif" font-size="10.00"> m_RequestedRegion</text>
<text text-anchor="middle" x="1714.5" y="-425.5" font-family="Helvetica,sans-Serif" font-size="10.00">m_BufferedRegion</text>
<text text-anchor="middle" x="1714.5" y="-414.5" font-family="Helvetica,sans-Serif" font-size="10.00">m_LargestPossibleRegion</text>
</g>
<!-- Node21 -->
<g id="node21" class="node">
<title>Node21</title>
<g id="a_node21"><a xlink:href="classitk_1_1Region.html" target="_top" xlink:title="A region represents some portion or piece of data.">
<polygon fill="white" stroke="black" points="1002.5,-391 1002.5,-410 1071.5,-410 1071.5,-391 1002.5,-391"/>
<text text-anchor="middle" x="1037" y="-398" font-family="Helvetica,sans-Serif" font-size="10.00">itk::Region</text>
</a>
</g>
</g>
<!-- Node21&#45;&gt;Node20 -->
<g id="edge23" class="edge">
<title>Node21&#45;&gt;Node20</title>
<path fill="none" stroke="midnightblue" d="M1081.98,-401.89C1135.66,-403.58 1227.76,-406.48 1296.75,-408.66"/>
<polygon fill="midnightblue" stroke="midnightblue" points="1081.89,-398.38 1071.78,-401.56 1081.67,-405.38 1081.89,-398.38"/>
</g>
<!-- Node33 -->
<g id="node33" class="node">
<title>Node33</title>
<g id="a_node33"><a xlink:href="classitk_1_1ImageRegion.html" target="_top" xlink:title=" ">
<polygon fill="white" stroke="black" points="1324,-343 1324,-362 1452,-362 1452,-343 1324,-343"/>
<text text-anchor="middle" x="1388" y="-350" font-family="Helvetica,sans-Serif" font-size="10.00">itk::ImageRegion&lt; 3 &gt;</text>
</a>
</g>
</g>
<!-- Node21&#45;&gt;Node33 -->
<g id="edge42" class="edge">
<title>Node21&#45;&gt;Node33</title>
<path fill="none" stroke="midnightblue" d="M1081.74,-396.31C1130.12,-391.48 1210.31,-382.84 1279,-372.5 1298.89,-369.51 1320.73,-365.58 1339.53,-362.01"/>
<polygon fill="midnightblue" stroke="midnightblue" points="1081.23,-392.85 1071.62,-397.32 1081.92,-399.81 1081.23,-392.85"/>
</g>
<!-- Node22 -->
<g id="node22" class="node">
<title>Node22</title>
<g id="a_node22"><a xlink:href="structitk_1_1Size.html" target="_top" xlink:title=" ">
<polygon fill="white" stroke="black" points="944.5,-340 944.5,-359 1129.5,-359 1129.5,-340 944.5,-340"/>
<text text-anchor="middle" x="1037" y="-347" font-family="Helvetica,sans-Serif" font-size="10.00">itk::Size&lt; Self::ImageDimension &gt;</text>
</a>
</g>
</g>
<!-- Node22&#45;&gt;Node20 -->
<g id="edge24" class="edge">
<title>Node22&#45;&gt;Node20</title>
<path fill="none" stroke="#9a32cd" stroke-dasharray="5,2" d="M1109.51,-360.67C1157.52,-368.34 1222.15,-379 1279,-389.5 1299.79,-393.34 1322.76,-397.97 1342.14,-401.98"/>
<polygon fill="#9a32cd" stroke="#9a32cd" points="1109.95,-357.19 1099.52,-359.08 1108.85,-364.11 1109.95,-357.19"/>
<text text-anchor="middle" x="1215" y="-392.5" font-family="Helvetica,sans-Serif" font-size="10.00"> m_Size</text>
</g>
<!-- Node22&#45;&gt;Node33 -->
<g id="edge43" class="edge">
<title>Node22&#45;&gt;Node33</title>
<path fill="none" stroke="#9a32cd" stroke-dasharray="5,2" d="M1086.96,-337.84C1106.72,-333.69 1129.82,-329.54 1151,-327.5 1207.63,-322.04 1222.48,-321.04 1279,-327.5 1304.62,-330.43 1333.01,-337.14 1354.25,-342.87"/>
<polygon fill="#9a32cd" stroke="#9a32cd" points="1085.99,-334.47 1076.95,-340 1087.46,-341.31 1085.99,-334.47"/>
<text text-anchor="middle" x="1215" y="-330.5" font-family="Helvetica,sans-Serif" font-size="10.00"> m_Size</text>
</g>
<!-- Node23 -->
<g id="node23" class="node">
<title>Node23</title>
<g id="a_node23"><a xlink:href="structitk_1_1Index.html" target="_top" xlink:title=" ">
<polygon fill="white" stroke="black" points="941,-431 941,-450 1133,-450 1133,-431 941,-431"/>
<text text-anchor="middle" x="1037" y="-438" font-family="Helvetica,sans-Serif" font-size="10.00">itk::Index&lt; Self::ImageDimension &gt;</text>
</a>
</g>
</g>
<!-- Node23&#45;&gt;Node20 -->
<g id="edge25" class="edge">
<title>Node23&#45;&gt;Node20</title>
<path fill="none" stroke="#9a32cd" stroke-dasharray="5,2" d="M1090.76,-451.88C1139.93,-460.64 1215.08,-469.28 1279,-456.5 1312.86,-449.73 1349.38,-432.11 1370.09,-421.03"/>
<polygon fill="#9a32cd" stroke="#9a32cd" points="1091.14,-448.4 1080.67,-450.02 1089.87,-455.28 1091.14,-448.4"/>
<text text-anchor="middle" x="1215" y="-465.5" font-family="Helvetica,sans-Serif" font-size="10.00"> m_Index</text>
</g>
<!-- Node23&#45;&gt;Node33 -->
<g id="edge44" class="edge">
<title>Node23&#45;&gt;Node33</title>
<path fill="none" stroke="#9a32cd" stroke-dasharray="5,2" d="M1119.14,-429.38C1166.32,-421.92 1226.63,-410.66 1279,-395.5 1310.21,-386.47 1344.88,-371.79 1366.31,-362.14"/>
<polygon fill="#9a32cd" stroke="#9a32cd" points="1118.32,-425.96 1108.97,-430.96 1119.39,-432.88 1118.32,-425.96"/>
<text text-anchor="middle" x="1215" y="-425.5" font-family="Helvetica,sans-Serif" font-size="10.00"> m_Index</text>
</g>
<!-- Node24 -->
<g id="node24" class="node">
<title>Node24</title>
<g id="a_node24"><a xlink:title=" ">
<polygon fill="white" stroke="#bfbfbf" points="1333,-246 1333,-265 1443,-265 1443,-246 1333,-246"/>
<text text-anchor="middle" x="1388" y="-253" font-family="Helvetica,sans-Serif" font-size="10.00">std::list&lt; Pointer &gt;</text>
</a>
</g>
</g>
<!-- Node24&#45;&gt;Node3 -->
<g id="edge26" class="edge">
<title>Node24&#45;&gt;Node3</title>
<path fill="none" stroke="#9a32cd" stroke-dasharray="5,2" d="M1442.15,-244.13C1522.65,-229.84 1677.77,-214.03 1788,-275.5 1827.91,-297.76 1829.03,-315.9 1855,-353.5 1864.5,-367.25 1860.26,-375.69 1873,-386.5 1879.42,-391.95 1887.09,-396.23 1895,-399.6"/>
<polygon fill="#9a32cd" stroke="#9a32cd" points="1441.45,-240.7 1432.24,-245.95 1442.71,-247.58 1441.45,-240.7"/>
<text text-anchor="middle" x="1714.5" y="-278.5" font-family="Helvetica,sans-Serif" font-size="10.00"> m_ChildrenList</text>
</g>
<!-- Node24&#45;&gt;Node32 -->
<g id="edge40" class="edge">
<title>Node24&#45;&gt;Node32</title>
<path fill="none" stroke="#9a32cd" stroke-dasharray="5,2" d="M1453.5,-252.45C1501.07,-251.79 1566.98,-254.22 1623,-268.5 1646.26,-274.43 1670.74,-286.46 1688.37,-296.29"/>
<polygon fill="#9a32cd" stroke="#9a32cd" points="1453.27,-248.95 1443.33,-252.64 1453.4,-255.95 1453.27,-248.95"/>
<text text-anchor="middle" x="1560" y="-271.5" font-family="Helvetica,sans-Serif" font-size="10.00"> m_ChildrenList</text>
</g>
<!-- Node25 -->
<g id="node25" class="node">
<title>Node25</title>
<g id="a_node25"><a xlink:href="classitk_1_1SmartPointer.html" target="_top" xlink:title=" ">
<polygon fill="white" stroke="black" points="983.5,-240.5 983.5,-270.5 1090.5,-270.5 1090.5,-240.5 983.5,-240.5"/>
<text text-anchor="start" x="991.5" y="-258.5" font-family="Helvetica,sans-Serif" font-size="10.00">itk::SmartPointer&lt;</text>
<text text-anchor="middle" x="1037" y="-247.5" font-family="Helvetica,sans-Serif" font-size="10.00"> Self &gt;</text>
</a>
</g>
</g>
<!-- Node25&#45;&gt;Node24 -->
<g id="edge27" class="edge">
<title>Node25&#45;&gt;Node24</title>
<path fill="none" stroke="#9a32cd" stroke-dasharray="5,2" d="M1100.92,-255.5C1167.08,-255.5 1270.11,-255.5 1332.79,-255.5"/>
<polygon fill="#9a32cd" stroke="#9a32cd" points="1100.63,-252 1090.63,-255.5 1100.63,-259 1100.63,-252"/>
<text text-anchor="middle" x="1215" y="-258.5" font-family="Helvetica,sans-Serif" font-size="10.00"> elements</text>
</g>
<!-- Node26&#45;&gt;Node3 -->
<g id="edge28" class="edge">
<title>Node26&#45;&gt;Node3</title>
<path fill="none" stroke="#9a32cd" stroke-dasharray="5,2" d="M1469.28,-575C1566.53,-582.72 1732.53,-583.41 1855,-518.5 1894.59,-497.52 1923.7,-450.98 1936.8,-426.78"/>
<polygon fill="#9a32cd" stroke="#9a32cd" points="1469.48,-571.51 1459.22,-574.16 1468.9,-578.48 1469.48,-571.51"/>
<text text-anchor="middle" x="1714.5" y="-577.5" font-family="Helvetica,sans-Serif" font-size="10.00"> m_Property</text>
</g>
<!-- Node26&#45;&gt;Node32 -->
<g id="edge45" class="edge">
<title>Node26&#45;&gt;Node32</title>
<path fill="none" stroke="#9a32cd" stroke-dasharray="5,2" d="M1421.05,-551.55C1438.75,-543.25 1460.78,-531.94 1479,-519.5 1570.24,-457.21 1664.23,-362.92 1699.24,-326.54"/>
<polygon fill="#9a32cd" stroke="#9a32cd" points="1419.34,-548.48 1411.71,-555.84 1422.26,-554.85 1419.34,-548.48"/>
<text text-anchor="middle" x="1560" y="-507.5" font-family="Helvetica,sans-Serif" font-size="10.00"> m_Property</text>
</g>
<!-- Node27&#45;&gt;Node26 -->
<g id="edge29" class="edge">
<title>Node27&#45;&gt;Node26</title>
<path fill="none" stroke="#9a32cd" stroke-dasharray="5,2" d="M1108.08,-528.08C1156.26,-532.26 1221.64,-538.61 1279,-546.5 1298.14,-549.13 1319.08,-552.67 1337.39,-555.97"/>
<polygon fill="#9a32cd" stroke="#9a32cd" points="1108.33,-524.59 1098.07,-527.22 1107.73,-531.57 1108.33,-524.59"/>
<text text-anchor="middle" x="1215" y="-549.5" font-family="Helvetica,sans-Serif" font-size="10.00"> m_StringDictionary</text>
</g>
<!-- Node28&#45;&gt;Node26 -->
<g id="edge31" class="edge">
<title>Node28&#45;&gt;Node26</title>
<path fill="none" stroke="#9a32cd" stroke-dasharray="5,2" d="M1108.41,-608.76C1156.48,-601.41 1221.6,-591.42 1279,-582.5 1294.47,-580.09 1311.19,-577.47 1326.74,-575.03"/>
<polygon fill="#9a32cd" stroke="#9a32cd" points="1107.78,-605.32 1098.43,-610.29 1108.84,-612.24 1107.78,-605.32"/>
<text text-anchor="middle" x="1215" y="-604.5" font-family="Helvetica,sans-Serif" font-size="10.00"> m_ScalarDictionary</text>
</g>
<!-- Node37 -->
<g id="node37" class="node">
<title>Node37</title>
<g id="a_node37"><a xlink:href="classitk_1_1SpatialObjectPoint.html" target="_top" xlink:title=" ">
<polygon fill="white" stroke="black" points="1311,-731 1311,-750 1465,-750 1465,-731 1311,-731"/>
<text text-anchor="middle" x="1388" y="-738" font-family="Helvetica,sans-Serif" font-size="10.00">itk::SpatialObjectPoint&lt; 3 &gt;</text>
</a>
</g>
</g>
<!-- Node28&#45;&gt;Node37 -->
<g id="edge56" class="edge">
<title>Node28&#45;&gt;Node37</title>
<path fill="none" stroke="#9a32cd" stroke-dasharray="5,2" d="M1101.25,-637.3C1117.44,-641.73 1134.84,-646.39 1151,-650.5 1207.63,-664.9 1224.5,-659.44 1279,-680.5 1314.41,-694.18 1352.49,-717.63 1372.61,-730.79"/>
<polygon fill="#9a32cd" stroke="#9a32cd" points="1101.92,-633.86 1091.35,-634.58 1100.06,-640.61 1101.92,-633.86"/>
<text text-anchor="middle" x="1215" y="-683.5" font-family="Helvetica,sans-Serif" font-size="10.00"> m_ScalarDictionary</text>
</g>
<!-- Node29 -->
<g id="node29" class="node">
<title>Node29</title>
<g id="a_node29"><a xlink:href="classitk_1_1RGBAPixel.html" target="_top" xlink:title=" ">
<polygon fill="white" stroke="black" points="966,-672 966,-691 1108,-691 1108,-672 966,-672"/>
<text text-anchor="middle" x="1037" y="-679" font-family="Helvetica,sans-Serif" font-size="10.00">itk::RGBAPixel&lt; double &gt;</text>
</a>
</g>
</g>
<!-- Node29&#45;&gt;Node26 -->
<g id="edge34" class="edge">
<title>Node29&#45;&gt;Node26</title>
<path fill="none" stroke="#9a32cd" stroke-dasharray="5,2" d="M1069.47,-668.08C1091.87,-658.96 1122.86,-647.19 1151,-639.5 1206.75,-624.26 1223.95,-634.1 1279,-616.5 1312.77,-605.7 1349.62,-586.57 1370.36,-575.06"/>
<polygon fill="#9a32cd" stroke="#9a32cd" points="1068.04,-664.89 1060.13,-671.94 1070.71,-671.36 1068.04,-664.89"/>
<text text-anchor="middle" x="1215" y="-642.5" font-family="Helvetica,sans-Serif" font-size="10.00"> m_Color</text>
</g>
<!-- Node29&#45;&gt;Node37 -->
<g id="edge57" class="edge">
<title>Node29&#45;&gt;Node37</title>
<path fill="none" stroke="#9a32cd" stroke-dasharray="5,2" d="M1118.25,-691.04C1165.26,-697.07 1225.69,-705.59 1279,-715.5 1302.46,-719.86 1328.53,-725.86 1349.18,-730.89"/>
<polygon fill="#9a32cd" stroke="#9a32cd" points="1118.49,-687.54 1108.13,-689.75 1117.61,-694.48 1118.49,-687.54"/>
<text text-anchor="middle" x="1215" y="-718.5" font-family="Helvetica,sans-Serif" font-size="10.00"> m_Color</text>
</g>
<!-- Node30 -->
<g id="node30" class="node">
<title>Node30</title>
<g id="a_node30"><a xlink:href="classitk_1_1FixedArray.html" target="_top" xlink:title=" ">
<polygon fill="white" stroke="black" points="633,-709 633,-728 788,-728 788,-709 633,-709"/>
<text text-anchor="middle" x="710.5" y="-716" font-family="Helvetica,sans-Serif" font-size="10.00">itk::FixedArray&lt; double, 4 &gt;</text>
</a>
</g>
</g>
<!-- Node30&#45;&gt;Node29 -->
<g id="edge35" class="edge">
<title>Node30&#45;&gt;Node29</title>
<path fill="none" stroke="midnightblue" d="M798.36,-708.6C850.75,-702.62 916.64,-695.11 965.74,-689.51"/>
<polygon fill="midnightblue" stroke="midnightblue" points="797.94,-705.12 788.4,-709.73 798.73,-712.08 797.94,-705.12"/>
</g>
<!-- Node31 -->
<g id="node31" class="node">
<title>Node31</title>
<g id="a_node31"><a xlink:title=" ">
<polygon fill="white" stroke="#bfbfbf" points="397.5,-777 397.5,-796 453.5,-796 453.5,-777 397.5,-777"/>
<text text-anchor="middle" x="425.5" y="-784" font-family="Helvetica,sans-Serif" font-size="10.00">VLength</text>
</a>
</g>
</g>
<!-- Node31&#45;&gt;Node30 -->
<g id="edge36" class="edge">
<title>Node31&#45;&gt;Node30</title>
<path fill="none" stroke="#9a32cd" stroke-dasharray="5,2" d="M463.36,-777.64C516.71,-764.82 615.01,-741.2 669.86,-728.02"/>
<polygon fill="#9a32cd" stroke="#9a32cd" points="462.54,-774.24 453.64,-779.98 464.18,-781.05 462.54,-774.24"/>
<text text-anchor="middle" x="566.5" y="-767.5" font-family="Helvetica,sans-Serif" font-size="10.00"> m_InternalArray</text>
</g>
<!-- Node39 -->
<g id="node39" class="node">
<title>Node39</title>
<g id="a_node39"><a xlink:href="classitk_1_1FixedArray.html" target="_top" xlink:title=" ">
<polygon fill="white" stroke="black" points="643.5,-771.5 643.5,-801.5 777.5,-801.5 777.5,-771.5 643.5,-771.5"/>
<text text-anchor="start" x="651.5" y="-789.5" font-family="Helvetica,sans-Serif" font-size="10.00">itk::FixedArray&lt; double,</text>
<text text-anchor="middle" x="710.5" y="-778.5" font-family="Helvetica,sans-Serif" font-size="10.00"> VPointDimension &gt;</text>
</a>
</g>
</g>
<!-- Node31&#45;&gt;Node39 -->
<g id="edge54" class="edge">
<title>Node31&#45;&gt;Node39</title>
<path fill="none" stroke="#9a32cd" stroke-dasharray="5,2" d="M463.67,-786.5C509.23,-786.5 587.28,-786.5 643.21,-786.5"/>
<polygon fill="#9a32cd" stroke="#9a32cd" points="463.64,-783 453.64,-786.5 463.64,-790 463.64,-783"/>
<text text-anchor="middle" x="566.5" y="-789.5" font-family="Helvetica,sans-Serif" font-size="10.00"> m_InternalArray</text>
</g>
<!-- Node43 -->
<g id="node43" class="node">
<title>Node43</title>
<g id="a_node43"><a xlink:href="classitk_1_1FixedArray.html" target="_top" xlink:title=" ">
<polygon fill="white" stroke="black" points="643.5,-836.5 643.5,-866.5 777.5,-866.5 777.5,-836.5 643.5,-836.5"/>
<text text-anchor="start" x="651.5" y="-854.5" font-family="Helvetica,sans-Serif" font-size="10.00">itk::FixedArray&lt; double,</text>
<text text-anchor="middle" x="710.5" y="-843.5" font-family="Helvetica,sans-Serif" font-size="10.00"> VVectorDimension &gt;</text>
</a>
</g>
</g>
<!-- Node31&#45;&gt;Node43 -->
<g id="edge62" class="edge">
<title>Node31&#45;&gt;Node43</title>
<path fill="none" stroke="#9a32cd" stroke-dasharray="5,2" d="M463.43,-794.98C509.19,-805.49 587.99,-823.59 644.08,-836.47"/>
<polygon fill="#9a32cd" stroke="#9a32cd" points="464.16,-791.56 453.64,-792.73 462.6,-798.38 464.16,-791.56"/>
<text text-anchor="middle" x="566.5" y="-831.5" font-family="Helvetica,sans-Serif" font-size="10.00"> m_InternalArray</text>
</g>
<!-- Node32&#45;&gt;Node3 -->
<g id="edge38" class="edge">
<title>Node32&#45;&gt;Node3</title>
<path fill="none" stroke="#9a32cd" stroke-dasharray="5,2" d="M1753.99,-331.27C1785.56,-347.13 1831.63,-369.48 1873,-386.5 1881.39,-389.95 1890.45,-393.36 1899.21,-396.5"/>
<polygon fill="#9a32cd" stroke="#9a32cd" points="1755.19,-327.95 1744.68,-326.56 1752.03,-334.2 1755.19,-327.95"/>
<text text-anchor="middle" x="1830.5" y="-380.5" font-family="Helvetica,sans-Serif" font-size="10.00"> m_Parent</text>
</g>
<!-- Node32&#45;&gt;Node32 -->
<g id="edge47" class="edge">
<title>Node32&#45;&gt;Node32</title>
<path fill="none" stroke="#9a32cd" stroke-dasharray="5,2" d="M1693.89,-336.96C1696.45,-341.68 1703.32,-345 1714.5,-345 1732.85,-345 1739.59,-336.06 1734.72,-326.66"/>
<polygon fill="#9a32cd" stroke="#9a32cd" points="1697.4,-336.79 1694.28,-326.66 1690.4,-336.52 1697.4,-336.79"/>
<text text-anchor="middle" x="1714.5" y="-348" font-family="Helvetica,sans-Serif" font-size="10.00"> m_Parent</text>
</g>
<!-- Node33&#45;&gt;Node32 -->
<g id="edge41" class="edge">
<title>Node33&#45;&gt;Node32</title>
<path fill="none" stroke="#9a32cd" stroke-dasharray="5,2" d="M1440.06,-340.86C1457.99,-337.11 1478.31,-333.21 1497,-330.5 1553.94,-322.23 1619.87,-317.07 1663.87,-314.25"/>
<polygon fill="#9a32cd" stroke="#9a32cd" points="1439.14,-337.48 1430.09,-342.99 1440.6,-344.32 1439.14,-337.48"/>
<text text-anchor="middle" x="1560" y="-355.5" font-family="Helvetica,sans-Serif" font-size="10.00"> m_RequestedRegion</text>
<text text-anchor="middle" x="1560" y="-344.5" font-family="Helvetica,sans-Serif" font-size="10.00">m_BufferedRegion</text>
<text text-anchor="middle" x="1560" y="-333.5" font-family="Helvetica,sans-Serif" font-size="10.00">m_LargestPossibleRegion</text>
</g>
<!-- Node34 -->
<g id="node34" class="node">
<title>Node34</title>
<g id="a_node34"><a xlink:title=" ">
<polygon fill="white" stroke="#bfbfbf" points="1873,-347.5 1873,-377.5 2018,-377.5 2018,-347.5 1873,-347.5"/>
<text text-anchor="start" x="1881" y="-365.5" font-family="Helvetica,sans-Serif" font-size="10.00">std::vector&lt; SpatialObject</text>
<text text-anchor="middle" x="1945.5" y="-354.5" font-family="Helvetica,sans-Serif" font-size="10.00">PointType &gt;</text>
</a>
</g>
</g>
<!-- Node34&#45;&gt;Node2 -->
<g id="edge48" class="edge">
<title>Node34&#45;&gt;Node2</title>
<path fill="none" stroke="#9a32cd" stroke-dasharray="5,2" d="M2028.19,-373.82C2078.35,-380.78 2143.05,-389.74 2196.74,-397.19"/>
<polygon fill="#9a32cd" stroke="#9a32cd" points="2028.42,-370.32 2018.04,-372.42 2027.46,-377.26 2028.42,-370.32"/>
<text text-anchor="middle" x="2107.5" y="-397.5" font-family="Helvetica,sans-Serif" font-size="10.00"> m_Points</text>
</g>
<!-- Node35 -->
<g id="node35" class="node">
<title>Node35</title>
<g id="a_node35"><a xlink:title=" ">
<polygon fill="white" stroke="#bfbfbf" points="2036,-547.5 2036,-577.5 2179,-577.5 2179,-547.5 2036,-547.5"/>
<text text-anchor="start" x="2044" y="-565.5" font-family="Helvetica,sans-Serif" font-size="10.00">std::vector&lt; ContourPoint</text>
<text text-anchor="middle" x="2107.5" y="-554.5" font-family="Helvetica,sans-Serif" font-size="10.00">Type &gt;</text>
</a>
</g>
</g>
<!-- Node35&#45;&gt;Node1 -->
<g id="edge49" class="edge">
<title>Node35&#45;&gt;Node1</title>
<path fill="none" stroke="#9a32cd" stroke-dasharray="5,2" d="M2169.25,-544.52C2248.49,-521.06 2385.69,-480.45 2459.68,-458.54"/>
<polygon fill="#9a32cd" stroke="#9a32cd" points="2168.01,-541.23 2159.41,-547.43 2170,-547.95 2168.01,-541.23"/>
<text text-anchor="middle" x="2301" y="-537.5" font-family="Helvetica,sans-Serif" font-size="10.00"> m_ControlPoints</text>
</g>
<!-- Node36 -->
<g id="node36" class="node">
<title>Node36</title>
<g id="a_node36"><a xlink:href="classitk_1_1ContourSpatialObjectPoint.html" target="_top" xlink:title="Point used for a Contour definition.">
<polygon fill="white" stroke="black" points="1641,-761.5 1641,-791.5 1788,-791.5 1788,-761.5 1641,-761.5"/>
<text text-anchor="start" x="1649" y="-779.5" font-family="Helvetica,sans-Serif" font-size="10.00">itk::ContourSpatialObject</text>
<text text-anchor="middle" x="1714.5" y="-768.5" font-family="Helvetica,sans-Serif" font-size="10.00">Point&lt; TPointDimension &gt;</text>
</a>
</g>
</g>
<!-- Node36&#45;&gt;Node35 -->
<g id="edge50" class="edge">
<title>Node36&#45;&gt;Node35</title>
<path fill="none" stroke="#9a32cd" stroke-dasharray="5,2" d="M1751.95,-756.55C1829.64,-714.03 2010.08,-615.27 2079.04,-577.53"/>
<polygon fill="#9a32cd" stroke="#9a32cd" points="1750.09,-753.58 1742.99,-761.45 1753.45,-759.72 1750.09,-753.58"/>
<text text-anchor="middle" x="1830.5" y="-728.5" font-family="Helvetica,sans-Serif" font-size="10.00"> elements</text>
</g>
<!-- Node37&#45;&gt;Node36 -->
<g id="edge51" class="edge">
<title>Node37&#45;&gt;Node36</title>
<path fill="none" stroke="midnightblue" d="M1475.23,-750.07C1526.93,-755.8 1591.92,-763.01 1640.96,-768.45"/>
<polygon fill="midnightblue" stroke="midnightblue" points="1475.41,-746.56 1465.08,-748.94 1474.63,-753.52 1475.41,-746.56"/>
</g>
<!-- Node38 -->
<g id="node38" class="node">
<title>Node38</title>
<g id="a_node38"><a xlink:href="classitk_1_1Point.html" target="_top" xlink:title=" ">
<polygon fill="white" stroke="black" points="980,-759.5 980,-789.5 1094,-789.5 1094,-759.5 980,-759.5"/>
<text text-anchor="start" x="988" y="-777.5" font-family="Helvetica,sans-Serif" font-size="10.00">itk::Point&lt; double,</text>
<text text-anchor="middle" x="1037" y="-766.5" font-family="Helvetica,sans-Serif" font-size="10.00"> TPointDimension &gt;</text>
</a>
</g>
</g>
<!-- Node38&#45;&gt;Node37 -->
<g id="edge52" class="edge">
<title>Node38&#45;&gt;Node37</title>
<path fill="none" stroke="#9a32cd" stroke-dasharray="5,2" d="M1104.37,-768.03C1163.25,-762.3 1249.24,-753.92 1310.89,-747.91"/>
<polygon fill="#9a32cd" stroke="#9a32cd" points="1103.69,-764.58 1094.07,-769.04 1104.37,-771.55 1103.69,-764.58"/>
<text text-anchor="middle" x="1215" y="-765.5" font-family="Helvetica,sans-Serif" font-size="10.00"> m_PositionInObjectSpace</text>
</g>
<!-- Node39&#45;&gt;Node38 -->
<g id="edge53" class="edge">
<title>Node39&#45;&gt;Node38</title>
<path fill="none" stroke="midnightblue" d="M787.92,-783.67C846.74,-781.5 926.71,-778.54 979.77,-776.58"/>
<polygon fill="midnightblue" stroke="midnightblue" points="787.42,-780.19 777.56,-784.06 787.68,-787.19 787.42,-780.19"/>
</g>
<!-- Node41 -->
<g id="node41" class="node">
<title>Node41</title>
<g id="a_node41"><a xlink:href="classitk_1_1Point.html" target="_top" xlink:title=" ">
<polygon fill="white" stroke="black" points="1151,-806 1151,-825 1279,-825 1279,-806 1151,-806"/>
<text text-anchor="middle" x="1215" y="-813" font-family="Helvetica,sans-Serif" font-size="10.00">itk::Point&lt; double, 3 &gt;</text>
</a>
</g>
</g>
<!-- Node39&#45;&gt;Node41 -->
<g id="edge59" class="edge">
<title>Node39&#45;&gt;Node41</title>
<path fill="none" stroke="midnightblue" d="M787.88,-793.18C794.01,-793.65 800.11,-794.1 806,-794.5 927.89,-802.79 1070.47,-809.43 1150.71,-812.89"/>
<polygon fill="midnightblue" stroke="midnightblue" points="787.81,-789.67 777.57,-792.37 787.26,-796.65 787.81,-789.67"/>
</g>
<!-- Node40 -->
<g id="node40" class="node">
<title>Node40</title>
<g id="a_node40"><a xlink:href="classitk_1_1WeakPointer.html" target="_top" xlink:title=" ">
<polygon fill="white" stroke="black" points="976.5,-710.5 976.5,-740.5 1097.5,-740.5 1097.5,-710.5 976.5,-710.5"/>
<text text-anchor="start" x="984.5" y="-728.5" font-family="Helvetica,sans-Serif" font-size="10.00">itk::WeakPointer&lt; itk</text>
<text text-anchor="middle" x="1037" y="-717.5" font-family="Helvetica,sans-Serif" font-size="10.00">::SpatialObject &gt;</text>
</a>
</g>
</g>
<!-- Node40&#45;&gt;Node37 -->
<g id="edge55" class="edge">
<title>Node40&#45;&gt;Node37</title>
<path fill="none" stroke="#9a32cd" stroke-dasharray="5,2" d="M1107.9,-728.5C1166.64,-731.03 1250.44,-734.63 1310.87,-737.23"/>
<polygon fill="#9a32cd" stroke="#9a32cd" points="1107.74,-724.99 1097.6,-728.06 1107.44,-731.99 1107.74,-724.99"/>
<text text-anchor="middle" x="1215" y="-738.5" font-family="Helvetica,sans-Serif" font-size="10.00"> m_SpatialObject</text>
</g>
<!-- Node41&#45;&gt;Node36 -->
<g id="edge58" class="edge">
<title>Node41&#45;&gt;Node36</title>
<path fill="none" stroke="#9a32cd" stroke-dasharray="5,2" d="M1289.05,-809.77C1383.43,-802.37 1546.78,-789.57 1640.94,-782.19"/>
<polygon fill="#9a32cd" stroke="#9a32cd" points="1288.7,-806.29 1279.01,-810.56 1289.25,-813.27 1288.7,-806.29"/>
<text text-anchor="middle" x="1388" y="-811.5" font-family="Helvetica,sans-Serif" font-size="10.00"> m_PickedPointInObjectSpace</text>
</g>
<!-- Node42 -->
<g id="node42" class="node">
<title>Node42</title>
<g id="a_node42"><a xlink:href="classitk_1_1CovariantVector.html" target="_top" xlink:title=" ">
<polygon fill="white" stroke="black" points="1158.5,-834.5 1158.5,-864.5 1271.5,-864.5 1271.5,-834.5 1158.5,-834.5"/>
<text text-anchor="start" x="1166.5" y="-852.5" font-family="Helvetica,sans-Serif" font-size="10.00">itk::CovariantVector</text>
<text text-anchor="middle" x="1215" y="-841.5" font-family="Helvetica,sans-Serif" font-size="10.00">&lt; double, 3 &gt;</text>
</a>
</g>
</g>
<!-- Node42&#45;&gt;Node36 -->
<g id="edge60" class="edge">
<title>Node42&#45;&gt;Node36</title>
<path fill="none" stroke="#9a32cd" stroke-dasharray="5,2" d="M1281.55,-845.54C1362.5,-839.79 1504.06,-826.92 1623,-801.5 1636.07,-798.71 1650.05,-795.14 1663.02,-791.58"/>
<polygon fill="#9a32cd" stroke="#9a32cd" points="1281.23,-842.06 1271.5,-846.24 1281.72,-849.04 1281.23,-842.06"/>
<text text-anchor="middle" x="1388" y="-846.5" font-family="Helvetica,sans-Serif" font-size="10.00"> m_NormalInObjectSpace</text>
</g>
<!-- Node43&#45;&gt;Node42 -->
<g id="edge61" class="edge">
<title>Node43&#45;&gt;Node42</title>
<path fill="none" stroke="midnightblue" d="M787.95,-851.2C890,-850.79 1068.33,-850.08 1158.47,-849.72"/>
<polygon fill="midnightblue" stroke="midnightblue" points="787.7,-847.7 777.71,-851.24 787.72,-854.7 787.7,-847.7"/>
</g>
</g>
</svg>
