<?xml version="1.0" encoding="UTF-8" standalone="no"?>
<!DOCTYPE svg PUBLIC "-//W3C//DTD SVG 1.1//EN"
 "http://www.w3.org/Graphics/SVG/1.1/DTD/svg11.dtd">
<!-- Generated by graphviz version 2.43.0 (0)
 -->
<!-- Title: itk::PowellOptimizer Pages: 1 -->
<svg width="156pt" height="375pt"
 viewBox="0.00 0.00 156.00 375.00" xmlns="http://www.w3.org/2000/svg" xmlns:xlink="http://www.w3.org/1999/xlink">
<g id="graph0" class="graph" transform="scale(1 1) rotate(0) translate(4 371)">
<title>itk::PowellOptimizer</title>
<polygon fill="white" stroke="transparent" points="-4,4 -4,-371 152,-371 152,4 -4,4"/>
<!-- Node1 -->
<g id="node1" class="node">
<title>Node1</title>
<g id="a_node1"><a xlink:title="Implements Powell optimization using Brent line search.">
<polygon fill="#bfbfbf" stroke="black" points="16,-56.5 16,-75.5 132,-75.5 132,-56.5 16,-56.5"/>
<text text-anchor="middle" x="74" y="-63.5" font-family="Helvetica,sans-Serif" font-size="10.00">itk::PowellOptimizer</text>
</a>
</g>
</g>
<!-- Node7 -->
<g id="node7" class="node">
<title>Node7</title>
<g id="a_node7"><a xlink:href="classitk_1_1FRPROptimizer.html" target="_top" xlink:title="Implements Fletch&#45;Reeves &amp; Polak&#45;Ribiere optimization using dBrent line search.">
<polygon fill="white" stroke="black" points="19.5,-0.5 19.5,-19.5 128.5,-19.5 128.5,-0.5 19.5,-0.5"/>
<text text-anchor="middle" x="74" y="-7.5" font-family="Helvetica,sans-Serif" font-size="10.00">itk::FRPROptimizer</text>
</a>
</g>
</g>
<!-- Node1&#45;&gt;Node7 -->
<g id="edge6" class="edge">
<title>Node1&#45;&gt;Node7</title>
<path fill="none" stroke="midnightblue" d="M74,-45.8C74,-36.91 74,-26.78 74,-19.75"/>
<polygon fill="midnightblue" stroke="midnightblue" points="70.5,-46.08 74,-56.08 77.5,-46.08 70.5,-46.08"/>
</g>
<!-- Node2 -->
<g id="node2" class="node">
<title>Node2</title>
<g id="a_node2"><a xlink:href="classitk_1_1SingleValuedNonLinearOptimizer.html" target="_top" xlink:title="This class is a base for the Optimization methods that optimize a single valued function.">
<polygon fill="white" stroke="black" points="0,-112.5 0,-142.5 148,-142.5 148,-112.5 0,-112.5"/>
<text text-anchor="start" x="8" y="-130.5" font-family="Helvetica,sans-Serif" font-size="10.00">itk::SingleValuedNonLinear</text>
<text text-anchor="middle" x="74" y="-119.5" font-family="Helvetica,sans-Serif" font-size="10.00">Optimizer</text>
</a>
</g>
</g>
<!-- Node2&#45;&gt;Node1 -->
<g id="edge1" class="edge">
<title>Node2&#45;&gt;Node1</title>
<path fill="none" stroke="midnightblue" d="M74,-102.29C74,-92.86 74,-82.65 74,-75.66"/>
<polygon fill="midnightblue" stroke="midnightblue" points="70.5,-102.4 74,-112.4 77.5,-102.4 70.5,-102.4"/>
</g>
<!-- Node3 -->
<g id="node3" class="node">
<title>Node3</title>
<g id="a_node3"><a xlink:href="classitk_1_1NonLinearOptimizer.html" target="_top" xlink:title="Wrap of the vnl_nonlinear_minimizer to be adapted.">
<polygon fill="white" stroke="black" points="7.5,-179.5 7.5,-198.5 140.5,-198.5 140.5,-179.5 7.5,-179.5"/>
<text text-anchor="middle" x="74" y="-186.5" font-family="Helvetica,sans-Serif" font-size="10.00">itk::NonLinearOptimizer</text>
</a>
</g>
</g>
<!-- Node3&#45;&gt;Node2 -->
<g id="edge2" class="edge">
<title>Node3&#45;&gt;Node2</title>
<path fill="none" stroke="midnightblue" d="M74,-169.23C74,-160.59 74,-150.5 74,-142.52"/>
<polygon fill="midnightblue" stroke="midnightblue" points="70.5,-169.48 74,-179.48 77.5,-169.48 70.5,-169.48"/>
</g>
<!-- Node4 -->
<g id="node4" class="node">
<title>Node4</title>
<g id="a_node4"><a xlink:href="classitk_1_1Optimizer.html" target="_top" xlink:title="Generic representation for an optimization method.">
<polygon fill="white" stroke="black" points="32.5,-235.5 32.5,-254.5 115.5,-254.5 115.5,-235.5 32.5,-235.5"/>
<text text-anchor="middle" x="74" y="-242.5" font-family="Helvetica,sans-Serif" font-size="10.00">itk::Optimizer</text>
</a>
</g>
</g>
<!-- Node4&#45;&gt;Node3 -->
<g id="edge3" class="edge">
<title>Node4&#45;&gt;Node3</title>
<path fill="none" stroke="midnightblue" d="M74,-224.8C74,-215.91 74,-205.78 74,-198.75"/>
<polygon fill="midnightblue" stroke="midnightblue" points="70.5,-225.08 74,-235.08 77.5,-225.08 70.5,-225.08"/>
</g>
<!-- Node5 -->
<g id="node5" class="node">
<title>Node5</title>
<g id="a_node5"><a xlink:href="classitk_1_1Object.html" target="_top" xlink:title="Base class for most ITK classes.">
<polygon fill="white" stroke="black" points="40.5,-291.5 40.5,-310.5 107.5,-310.5 107.5,-291.5 40.5,-291.5"/>
<text text-anchor="middle" x="74" y="-298.5" font-family="Helvetica,sans-Serif" font-size="10.00">itk::Object</text>
</a>
</g>
</g>
<!-- Node5&#45;&gt;Node4 -->
<g id="edge4" class="edge">
<title>Node5&#45;&gt;Node4</title>
<path fill="none" stroke="midnightblue" d="M74,-280.8C74,-271.91 74,-261.78 74,-254.75"/>
<polygon fill="midnightblue" stroke="midnightblue" points="70.5,-281.08 74,-291.08 77.5,-281.08 70.5,-281.08"/>
</g>
<!-- Node6 -->
<g id="node6" class="node">
<title>Node6</title>
<g id="a_node6"><a xlink:href="classitk_1_1LightObject.html" target="_top" xlink:title="Light weight base class for most itk classes.">
<polygon fill="white" stroke="black" points="28.5,-347.5 28.5,-366.5 119.5,-366.5 119.5,-347.5 28.5,-347.5"/>
<text text-anchor="middle" x="74" y="-354.5" font-family="Helvetica,sans-Serif" font-size="10.00">itk::LightObject</text>
</a>
</g>
</g>
<!-- Node6&#45;&gt;Node5 -->
<g id="edge5" class="edge">
<title>Node6&#45;&gt;Node5</title>
<path fill="none" stroke="midnightblue" d="M74,-336.8C74,-327.91 74,-317.78 74,-310.75"/>
<polygon fill="midnightblue" stroke="midnightblue" points="70.5,-337.08 74,-347.08 77.5,-337.08 70.5,-337.08"/>
</g>
</g>
</svg>
