<?xml version="1.0" encoding="UTF-8" standalone="no"?>
<!DOCTYPE svg PUBLIC "-//W3C//DTD SVG 1.1//EN"
 "http://www.w3.org/Graphics/SVG/1.1/DTD/svg11.dtd">
<!-- Generated by graphviz version 2.43.0 (0)
 -->
<!-- Title: itk::MultiGradientOptimizerv4Template&lt; TInternalComputationValueType &gt; Pages: 1 -->
<svg width="2510pt" height="277pt"
 viewBox="0.00 0.00 2510.00 277.00" xmlns="http://www.w3.org/2000/svg" xmlns:xlink="http://www.w3.org/1999/xlink">
<g id="graph0" class="graph" transform="scale(1 1) rotate(0) translate(4 273)">
<title>itk::MultiGradientOptimizerv4Template&lt; TInternalComputationValueType &gt;</title>
<polygon fill="white" stroke="transparent" points="-4,4 -4,-273 2506,-273 2506,4 -4,4"/>
<!-- Node1 -->
<g id="node1" class="node">
<title>Node1</title>
<g id="a_node1"><a xlink:title="Multiple gradient&#45;based optimizers are combined in order to perform a multi&#45;objective optimization.">
<polygon fill="#bfbfbf" stroke="black" points="2296,-39 2296,-80 2502,-80 2502,-39 2296,-39"/>
<text text-anchor="start" x="2304" y="-68" font-family="Helvetica,sans-Serif" font-size="10.00">itk::MultiGradientOptimizerv4</text>
<text text-anchor="start" x="2304" y="-57" font-family="Helvetica,sans-Serif" font-size="10.00">Template&lt; TInternalComputationValue</text>
<text text-anchor="middle" x="2399" y="-46" font-family="Helvetica,sans-Serif" font-size="10.00">Type &gt;</text>
</a>
</g>
</g>
<!-- Node2 -->
<g id="node2" class="node">
<title>Node2</title>
<g id="a_node2"><a xlink:href="classitk_1_1GradientDescentOptimizerv4Template.html" target="_top" xlink:title="Gradient descent optimizer.">
<polygon fill="white" stroke="black" points="1921,-88.5 1921,-118.5 2161,-118.5 2161,-88.5 1921,-88.5"/>
<text text-anchor="start" x="1929" y="-106.5" font-family="Helvetica,sans-Serif" font-size="10.00">itk::GradientDescentOptimizerv4</text>
<text text-anchor="middle" x="2041" y="-95.5" font-family="Helvetica,sans-Serif" font-size="10.00">Template&lt; TInternalComputationValueType &gt;</text>
</a>
</g>
</g>
<!-- Node2&#45;&gt;Node1 -->
<g id="edge1" class="edge">
<title>Node2&#45;&gt;Node1</title>
<path fill="none" stroke="midnightblue" d="M2171.33,-87.66C2205.98,-83.4 2243.42,-78.79 2278,-74.5 2283.83,-73.78 2289.83,-73.03 2295.88,-72.28"/>
<polygon fill="midnightblue" stroke="midnightblue" points="2170.66,-84.21 2161.16,-88.91 2171.51,-91.16 2170.66,-84.21"/>
</g>
<!-- Node3 -->
<g id="node3" class="node">
<title>Node3</title>
<g id="a_node3"><a xlink:href="classitk_1_1GradientDescentOptimizerBasev4Template.html" target="_top" xlink:title=" ">
<polygon fill="white" stroke="black" points="1669,-83 1669,-124 1884,-124 1884,-83 1669,-83"/>
<text text-anchor="start" x="1677" y="-112" font-family="Helvetica,sans-Serif" font-size="10.00">itk::GradientDescentOptimizer</text>
<text text-anchor="start" x="1677" y="-101" font-family="Helvetica,sans-Serif" font-size="10.00">Basev4Template&lt; TInternalComputation</text>
<text text-anchor="middle" x="1776.5" y="-90" font-family="Helvetica,sans-Serif" font-size="10.00">ValueType &gt;</text>
</a>
</g>
</g>
<!-- Node3&#45;&gt;Node2 -->
<g id="edge2" class="edge">
<title>Node3&#45;&gt;Node2</title>
<path fill="none" stroke="midnightblue" d="M1894.51,-103.5C1903.27,-103.5 1912.12,-103.5 1920.9,-103.5"/>
<polygon fill="midnightblue" stroke="midnightblue" points="1894.27,-100 1884.27,-103.5 1894.27,-107 1894.27,-100"/>
</g>
<!-- Node4 -->
<g id="node4" class="node">
<title>Node4</title>
<g id="a_node4"><a xlink:href="classitk_1_1ObjectToObjectOptimizerBaseTemplate.html" target="_top" xlink:title="Abstract base for object&#45;to&#45;object optimizers.">
<polygon fill="white" stroke="black" points="1243,-149 1243,-190 1446,-190 1446,-149 1243,-149"/>
<text text-anchor="start" x="1251" y="-178" font-family="Helvetica,sans-Serif" font-size="10.00">itk::ObjectToObjectOptimizer</text>
<text text-anchor="start" x="1251" y="-167" font-family="Helvetica,sans-Serif" font-size="10.00">BaseTemplate&lt; TInternalComputation</text>
<text text-anchor="middle" x="1344.5" y="-156" font-family="Helvetica,sans-Serif" font-size="10.00">ValueType &gt;</text>
</a>
</g>
</g>
<!-- Node4&#45;&gt;Node3 -->
<g id="edge3" class="edge">
<title>Node4&#45;&gt;Node3</title>
<path fill="none" stroke="midnightblue" d="M1456.64,-164.16C1514.9,-160.05 1587.23,-152.88 1651,-140.5 1672.14,-136.4 1694.83,-130.2 1714.98,-124.05"/>
<polygon fill="midnightblue" stroke="midnightblue" points="1456.04,-160.69 1446.3,-164.86 1456.52,-167.67 1456.04,-160.69"/>
</g>
<!-- Node5 -->
<g id="node5" class="node">
<title>Node5</title>
<g id="a_node5"><a xlink:href="classitk_1_1Object.html" target="_top" xlink:title="Base class for most ITK classes.">
<polygon fill="white" stroke="black" points="998,-123 998,-142 1065,-142 1065,-123 998,-123"/>
<text text-anchor="middle" x="1031.5" y="-130" font-family="Helvetica,sans-Serif" font-size="10.00">itk::Object</text>
</a>
</g>
</g>
<!-- Node5&#45;&gt;Node4 -->
<g id="edge4" class="edge">
<title>Node5&#45;&gt;Node4</title>
<path fill="none" stroke="midnightblue" d="M1075.31,-137.59C1118.34,-142.71 1186.24,-150.79 1242.94,-157.54"/>
<polygon fill="midnightblue" stroke="midnightblue" points="1075.54,-134.1 1065.19,-136.39 1074.71,-141.05 1075.54,-134.1"/>
</g>
<!-- Node24 -->
<g id="node24" class="node">
<title>Node24</title>
<g id="a_node24"><a xlink:href="classitk_1_1DomainThreader.html" target="_top" xlink:title=" ">
<polygon fill="white" stroke="black" points="1234,-77.5 1234,-129.5 1455,-129.5 1455,-77.5 1234,-77.5"/>
<text text-anchor="start" x="1242" y="-117.5" font-family="Helvetica,sans-Serif" font-size="10.00">itk::DomainThreader</text>
<text text-anchor="start" x="1242" y="-106.5" font-family="Helvetica,sans-Serif" font-size="10.00">&lt; itk::ThreadedIndexedContainer</text>
<text text-anchor="start" x="1242" y="-95.5" font-family="Helvetica,sans-Serif" font-size="10.00">Partitioner, itk::GradientDescentOptimizer</text>
<text text-anchor="middle" x="1344.5" y="-84.5" font-family="Helvetica,sans-Serif" font-size="10.00">Basev4Template &gt;</text>
</a>
</g>
</g>
<!-- Node5&#45;&gt;Node24 -->
<g id="edge26" class="edge">
<title>Node5&#45;&gt;Node24</title>
<path fill="none" stroke="midnightblue" d="M1075.09,-132.86C1112.36,-132.76 1167.9,-131.6 1216,-126.5 1221.82,-125.88 1227.76,-125.16 1233.76,-124.34"/>
<polygon fill="midnightblue" stroke="midnightblue" points="1075.08,-129.36 1065.08,-132.86 1075.08,-136.36 1075.08,-129.36"/>
</g>
<!-- Node6 -->
<g id="node6" class="node">
<title>Node6</title>
<g id="a_node6"><a xlink:href="classitk_1_1LightObject.html" target="_top" xlink:title="Light weight base class for most itk classes.">
<polygon fill="white" stroke="black" points="678.5,-157 678.5,-176 769.5,-176 769.5,-157 678.5,-157"/>
<text text-anchor="middle" x="724" y="-164" font-family="Helvetica,sans-Serif" font-size="10.00">itk::LightObject</text>
</a>
</g>
</g>
<!-- Node6&#45;&gt;Node5 -->
<g id="edge5" class="edge">
<title>Node6&#45;&gt;Node5</title>
<path fill="none" stroke="midnightblue" d="M779.53,-162.09C823.89,-158.3 888.08,-152.38 944,-145.5 961.79,-143.31 981.55,-140.38 997.7,-137.85"/>
<polygon fill="midnightblue" stroke="midnightblue" points="779.21,-158.6 769.54,-162.93 779.8,-165.58 779.21,-158.6"/>
</g>
<!-- Node7 -->
<g id="node7" class="node">
<title>Node7</title>
<g id="a_node7"><a xlink:title=" ">
<polygon fill="white" stroke="#bfbfbf" points="378,-160 378,-179 485,-179 485,-160 378,-160"/>
<text text-anchor="middle" x="431.5" y="-167" font-family="Helvetica,sans-Serif" font-size="10.00">std::atomic&lt; int &gt;</text>
</a>
</g>
</g>
<!-- Node7&#45;&gt;Node6 -->
<g id="edge6" class="edge">
<title>Node7&#45;&gt;Node6</title>
<path fill="none" stroke="#9a32cd" stroke-dasharray="5,2" d="M495.13,-168.85C550.33,-168.28 629.39,-167.47 678.4,-166.96"/>
<polygon fill="#9a32cd" stroke="#9a32cd" points="495.07,-165.35 485.11,-168.96 495.14,-172.35 495.07,-165.35"/>
<text text-anchor="middle" x="572.5" y="-171.5" font-family="Helvetica,sans-Serif" font-size="10.00"> m_ReferenceCount</text>
</g>
<!-- Node8 -->
<g id="node8" class="node">
<title>Node8</title>
<g id="a_node8"><a xlink:title="STL class.">
<polygon fill="white" stroke="#bfbfbf" points="691.5,-118 691.5,-137 756.5,-137 756.5,-118 691.5,-118"/>
<text text-anchor="middle" x="724" y="-125" font-family="Helvetica,sans-Serif" font-size="10.00">std::string</text>
</a>
</g>
</g>
<!-- Node8&#45;&gt;Node5 -->
<g id="edge7" class="edge">
<title>Node8&#45;&gt;Node5</title>
<path fill="none" stroke="#9a32cd" stroke-dasharray="5,2" d="M766.66,-128.18C828.13,-129.19 941.85,-131.05 997.75,-131.96"/>
<polygon fill="#9a32cd" stroke="#9a32cd" points="766.6,-124.68 756.54,-128.02 766.48,-131.68 766.6,-124.68"/>
<text text-anchor="middle" x="885.5" y="-133.5" font-family="Helvetica,sans-Serif" font-size="10.00"> m_ObjectName</text>
</g>
<!-- Node9 -->
<g id="node9" class="node">
<title>Node9</title>
<g id="a_node9"><a xlink:title="STL class.">
<polygon fill="white" stroke="#bfbfbf" points="379.5,-110.5 379.5,-140.5 483.5,-140.5 483.5,-110.5 379.5,-110.5"/>
<text text-anchor="start" x="387.5" y="-128.5" font-family="Helvetica,sans-Serif" font-size="10.00">std::basic_string&lt;</text>
<text text-anchor="middle" x="431.5" y="-117.5" font-family="Helvetica,sans-Serif" font-size="10.00"> char &gt;</text>
</a>
</g>
</g>
<!-- Node9&#45;&gt;Node8 -->
<g id="edge8" class="edge">
<title>Node9&#45;&gt;Node8</title>
<path fill="none" stroke="midnightblue" d="M493.92,-125.92C554.22,-126.34 643.81,-126.95 691.1,-127.28"/>
<polygon fill="midnightblue" stroke="midnightblue" points="493.79,-122.42 483.77,-125.85 493.74,-129.42 493.79,-122.42"/>
</g>
<!-- Node10 -->
<g id="node10" class="node">
<title>Node10</title>
<g id="a_node10"><a xlink:href="classitk_1_1MetaDataDictionary.html" target="_top" xlink:title="Provides a mechanism for storing a collection of arbitrary data types.">
<polygon fill="white" stroke="black" points="657,-77 657,-96 791,-96 791,-77 657,-77"/>
<text text-anchor="middle" x="724" y="-84" font-family="Helvetica,sans-Serif" font-size="10.00">itk::MetaDataDictionary</text>
</a>
</g>
</g>
<!-- Node10&#45;&gt;Node5 -->
<g id="edge9" class="edge">
<title>Node10&#45;&gt;Node5</title>
<path fill="none" stroke="#9a32cd" stroke-dasharray="5,2" d="M801.56,-94.16C843.72,-98.83 896.91,-105.44 944,-113.5 961.88,-116.56 981.66,-120.84 997.78,-124.56"/>
<polygon fill="#9a32cd" stroke="#9a32cd" points="801.68,-90.66 791.36,-93.05 800.92,-97.61 801.68,-90.66"/>
<text text-anchor="middle" x="885.5" y="-116.5" font-family="Helvetica,sans-Serif" font-size="10.00"> m_MetaDataDictionary</text>
</g>
<!-- Node11 -->
<g id="node11" class="node">
<title>Node11</title>
<g id="a_node11"><a xlink:title=" ">
<polygon fill="white" stroke="#bfbfbf" points="357,-61.5 357,-91.5 506,-91.5 506,-61.5 357,-61.5"/>
<text text-anchor="start" x="365" y="-79.5" font-family="Helvetica,sans-Serif" font-size="10.00">std::shared_ptr&lt; MetaData</text>
<text text-anchor="middle" x="431.5" y="-68.5" font-family="Helvetica,sans-Serif" font-size="10.00">DictionaryMapType &gt;</text>
</a>
</g>
</g>
<!-- Node11&#45;&gt;Node10 -->
<g id="edge10" class="edge">
<title>Node11&#45;&gt;Node10</title>
<path fill="none" stroke="#9a32cd" stroke-dasharray="5,2" d="M516.43,-79.39C561.08,-80.93 615.2,-82.79 656.84,-84.22"/>
<polygon fill="#9a32cd" stroke="#9a32cd" points="516.3,-75.88 506.18,-79.04 516.05,-82.88 516.3,-75.88"/>
<text text-anchor="middle" x="572.5" y="-85.5" font-family="Helvetica,sans-Serif" font-size="10.00"> m_Dictionary</text>
</g>
<!-- Node12 -->
<g id="node12" class="node">
<title>Node12</title>
<g id="a_node12"><a xlink:title="STL class.">
<polygon fill="white" stroke="#bfbfbf" points="114,-67 114,-86 215,-86 215,-67 114,-67"/>
<text text-anchor="middle" x="164.5" y="-74" font-family="Helvetica,sans-Serif" font-size="10.00">std::map&lt; K, T &gt;</text>
</a>
</g>
</g>
<!-- Node12&#45;&gt;Node11 -->
<g id="edge11" class="edge">
<title>Node12&#45;&gt;Node11</title>
<path fill="none" stroke="#9a32cd" stroke-dasharray="5,2" d="M225.18,-76.5C264.19,-76.5 315.41,-76.5 356.93,-76.5"/>
<polygon fill="#9a32cd" stroke="#9a32cd" points="225.03,-73 215.03,-76.5 225.03,-80 225.03,-73"/>
<text text-anchor="middle" x="286" y="-79.5" font-family="Helvetica,sans-Serif" font-size="10.00"> ptr</text>
</g>
<!-- Node13 -->
<g id="node13" class="node">
<title>Node13</title>
<g id="a_node13"><a xlink:title=" ">
<polygon fill="white" stroke="#bfbfbf" points="0,-91 0,-110 29,-110 29,-91 0,-91"/>
<text text-anchor="middle" x="14.5" y="-98" font-family="Helvetica,sans-Serif" font-size="10.00">K</text>
</a>
</g>
</g>
<!-- Node13&#45;&gt;Node12 -->
<g id="edge12" class="edge">
<title>Node13&#45;&gt;Node12</title>
<path fill="none" stroke="#9a32cd" stroke-dasharray="5,2" d="M39.24,-96.65C59.28,-93.4 88.63,-88.64 113.78,-84.56"/>
<polygon fill="#9a32cd" stroke="#9a32cd" points="38.47,-93.23 29.16,-98.29 39.59,-100.14 38.47,-93.23"/>
<text text-anchor="middle" x="71.5" y="-97.5" font-family="Helvetica,sans-Serif" font-size="10.00"> keys</text>
</g>
<!-- Node14 -->
<g id="node14" class="node">
<title>Node14</title>
<g id="a_node14"><a xlink:title=" ">
<polygon fill="white" stroke="#bfbfbf" points="0,-38 0,-57 29,-57 29,-38 0,-38"/>
<text text-anchor="middle" x="14.5" y="-45" font-family="Helvetica,sans-Serif" font-size="10.00">T</text>
</a>
</g>
</g>
<!-- Node14&#45;&gt;Node12 -->
<g id="edge13" class="edge">
<title>Node14&#45;&gt;Node12</title>
<path fill="none" stroke="#9a32cd" stroke-dasharray="5,2" d="M39.09,-52.12C59.39,-56.1 89.35,-61.97 114.78,-66.95"/>
<polygon fill="#9a32cd" stroke="#9a32cd" points="39.64,-48.66 29.16,-50.18 38.3,-55.53 39.64,-48.66"/>
<text text-anchor="middle" x="71.5" y="-65.5" font-family="Helvetica,sans-Serif" font-size="10.00"> elements</text>
</g>
<!-- Node16 -->
<g id="node16" class="node">
<title>Node16</title>
<g id="a_node16"><a xlink:title="STL class.">
<polygon fill="white" stroke="#bfbfbf" points="114.5,-23 114.5,-42 214.5,-42 214.5,-23 114.5,-23"/>
<text text-anchor="middle" x="164.5" y="-30" font-family="Helvetica,sans-Serif" font-size="10.00">std::atomic&lt; T &gt;</text>
</a>
</g>
</g>
<!-- Node14&#45;&gt;Node16 -->
<g id="edge16" class="edge">
<title>Node14&#45;&gt;Node16</title>
<path fill="none" stroke="#9a32cd" stroke-dasharray="5,2" d="M38.4,-36.04C41.24,-35.01 44.15,-34.12 47,-33.5 68.74,-28.79 93.31,-27.94 114.26,-28.51"/>
<polygon fill="#9a32cd" stroke="#9a32cd" points="37.03,-32.82 29.19,-39.95 39.77,-39.27 37.03,-32.82"/>
<text text-anchor="middle" x="71.5" y="-36.5" font-family="Helvetica,sans-Serif" font-size="10.00"> ptr</text>
</g>
<!-- Node15 -->
<g id="node15" class="node">
<title>Node15</title>
<g id="a_node15"><a xlink:href="classitk_1_1TimeStamp.html" target="_top" xlink:title="Generate a unique, increasing time value.">
<polygon fill="white" stroke="black" points="526.5,-28 526.5,-47 618.5,-47 618.5,-28 526.5,-28"/>
<text text-anchor="middle" x="572.5" y="-35" font-family="Helvetica,sans-Serif" font-size="10.00">itk::TimeStamp</text>
</a>
</g>
</g>
<!-- Node15&#45;&gt;Node5 -->
<g id="edge14" class="edge">
<title>Node15&#45;&gt;Node5</title>
<path fill="none" stroke="#9a32cd" stroke-dasharray="5,2" d="M628.64,-36.57C703.44,-37.33 839.7,-45.95 944,-93.5 952.75,-97.49 953.48,-101.05 962,-105.5 974.8,-112.19 989.65,-118.24 1002.24,-122.9"/>
<polygon fill="#9a32cd" stroke="#9a32cd" points="628.52,-33.07 618.5,-36.51 628.48,-40.07 628.52,-33.07"/>
<text text-anchor="middle" x="724" y="-54.5" font-family="Helvetica,sans-Serif" font-size="10.00"> m_MTime</text>
</g>
<!-- Node16&#45;&gt;Node15 -->
<g id="edge15" class="edge">
<title>Node16&#45;&gt;Node15</title>
<path fill="none" stroke="#9a32cd" stroke-dasharray="5,2" d="M225.03,-33.23C306.93,-34.24 452.57,-36.04 526.2,-36.94"/>
<polygon fill="#9a32cd" stroke="#9a32cd" points="224.92,-29.73 214.88,-33.11 224.83,-36.73 224.92,-29.73"/>
<text text-anchor="middle" x="286" y="-38.5" font-family="Helvetica,sans-Serif" font-size="10.00"> m_GlobalTimeStamp</text>
</g>
<!-- Node17 -->
<g id="node17" class="node">
<title>Node17</title>
<g id="a_node17"><a xlink:href="classitk_1_1SmartPointer.html" target="_top" xlink:title=" ">
<polygon fill="white" stroke="black" points="978,-65.5 978,-95.5 1085,-95.5 1085,-65.5 978,-65.5"/>
<text text-anchor="start" x="986" y="-83.5" font-family="Helvetica,sans-Serif" font-size="10.00">itk::SmartPointer&lt;</text>
<text text-anchor="middle" x="1031.5" y="-72.5" font-family="Helvetica,sans-Serif" font-size="10.00"> Self &gt;</text>
</a>
</g>
</g>
<!-- Node17&#45;&gt;Node3 -->
<g id="edge24" class="edge">
<title>Node17&#45;&gt;Node3</title>
<path fill="none" stroke="#9a32cd" stroke-dasharray="5,2" d="M1095.45,-71.45C1135.11,-66.22 1187.43,-60.15 1234,-57.5 1332.06,-51.92 1357.03,-50.51 1455,-57.5 1526.63,-62.61 1606.58,-74.08 1668.71,-84.28"/>
<polygon fill="#9a32cd" stroke="#9a32cd" points="1094.84,-68 1085.39,-72.8 1095.77,-74.94 1094.84,-68"/>
<text text-anchor="middle" x="1344.5" y="-60.5" font-family="Helvetica,sans-Serif" font-size="10.00"> m_ConvergenceMonitoring</text>
</g>
<!-- Node17&#45;&gt;Node4 -->
<g id="edge17" class="edge">
<title>Node17&#45;&gt;Node4</title>
<path fill="none" stroke="#9a32cd" stroke-dasharray="5,2" d="M1095.05,-91.07C1131.37,-98.53 1177.43,-110.3 1216,-127.5 1224.78,-131.42 1225.25,-135.51 1234,-139.5 1241.62,-142.97 1249.73,-146.12 1257.96,-148.96"/>
<polygon fill="#9a32cd" stroke="#9a32cd" points="1095.57,-87.61 1085.08,-89.08 1094.2,-94.47 1095.57,-87.61"/>
<text text-anchor="middle" x="1167.5" y="-130.5" font-family="Helvetica,sans-Serif" font-size="10.00"> m_ScalesEstimator</text>
</g>
<!-- Node17&#45;&gt;Node24 -->
<g id="edge27" class="edge">
<title>Node17&#45;&gt;Node24</title>
<path fill="none" stroke="#9a32cd" stroke-dasharray="5,2" d="M1095.42,-78.28C1130.9,-77.67 1176,-77.96 1216,-81.5 1221.82,-82.01 1227.77,-82.65 1233.77,-83.38"/>
<polygon fill="#9a32cd" stroke="#9a32cd" points="1095.14,-74.78 1085.21,-78.48 1095.28,-81.78 1095.14,-74.78"/>
<text text-anchor="middle" x="1167.5" y="-84.5" font-family="Helvetica,sans-Serif" font-size="10.00"> m_MultiThreader</text>
</g>
<!-- Node18 -->
<g id="node18" class="node">
<title>Node18</title>
<g id="a_node18"><a xlink:href="classitk_1_1SmartPointer.html" target="_top" xlink:title="Implements transparent reference counting.">
<polygon fill="white" stroke="black" points="978,-238.5 978,-268.5 1085,-268.5 1085,-238.5 978,-238.5"/>
<text text-anchor="start" x="986" y="-256.5" font-family="Helvetica,sans-Serif" font-size="10.00">itk::SmartPointer&lt;</text>
<text text-anchor="middle" x="1031.5" y="-245.5" font-family="Helvetica,sans-Serif" font-size="10.00"> TObjectType &gt;</text>
</a>
</g>
</g>
<!-- Node18&#45;&gt;Node4 -->
<g id="edge18" class="edge">
<title>Node18&#45;&gt;Node4</title>
<path fill="none" stroke="#9a32cd" stroke-dasharray="5,2" d="M1095.6,-244.85C1131.32,-239.2 1176.59,-230.77 1216,-219.5 1243.55,-211.62 1273.41,-200.08 1297.31,-190.08"/>
<polygon fill="#9a32cd" stroke="#9a32cd" points="1094.67,-241.45 1085.32,-246.44 1095.74,-248.37 1094.67,-241.45"/>
<text text-anchor="middle" x="1167.5" y="-242.5" font-family="Helvetica,sans-Serif" font-size="10.00"> m_Metric</text>
</g>
<!-- Node19 -->
<g id="node19" class="node">
<title>Node19</title>
<g id="a_node19"><a xlink:href="classitk_1_1OptimizerParameters.html" target="_top" xlink:title=" ">
<polygon fill="white" stroke="black" points="962,-189.5 962,-219.5 1101,-219.5 1101,-189.5 962,-189.5"/>
<text text-anchor="start" x="970" y="-207.5" font-family="Helvetica,sans-Serif" font-size="10.00">itk::OptimizerParameters</text>
<text text-anchor="middle" x="1031.5" y="-196.5" font-family="Helvetica,sans-Serif" font-size="10.00">&lt; double &gt;</text>
</a>
</g>
</g>
<!-- Node19&#45;&gt;Node4 -->
<g id="edge19" class="edge">
<title>Node19&#45;&gt;Node4</title>
<path fill="none" stroke="#9a32cd" stroke-dasharray="5,2" d="M1111.1,-195.65C1151.08,-191.15 1200.14,-185.63 1242.86,-180.83"/>
<polygon fill="#9a32cd" stroke="#9a32cd" points="1110.68,-192.18 1101.14,-196.78 1111.46,-199.14 1110.68,-192.18"/>
<text text-anchor="middle" x="1167.5" y="-207.5" font-family="Helvetica,sans-Serif" font-size="10.00"> m_Scales</text>
<text text-anchor="middle" x="1167.5" y="-196.5" font-family="Helvetica,sans-Serif" font-size="10.00">m_Weights</text>
</g>
<!-- Node20 -->
<g id="node20" class="node">
<title>Node20</title>
<g id="a_node20"><a xlink:href="classitk_1_1Array.html" target="_top" xlink:title=" ">
<polygon fill="white" stroke="black" points="665.5,-247 665.5,-266 782.5,-266 782.5,-247 665.5,-247"/>
<text text-anchor="middle" x="724" y="-254" font-family="Helvetica,sans-Serif" font-size="10.00">itk::Array&lt; double &gt;</text>
</a>
</g>
</g>
<!-- Node20&#45;&gt;Node19 -->
<g id="edge20" class="edge">
<title>Node20&#45;&gt;Node19</title>
<path fill="none" stroke="midnightblue" d="M792.96,-247.45C836.3,-241.38 893.6,-232.82 944,-223.5 950.5,-222.3 957.26,-220.96 964,-219.57"/>
<polygon fill="midnightblue" stroke="midnightblue" points="792.24,-244.02 782.81,-248.86 793.2,-250.95 792.24,-244.02"/>
</g>
<!-- Node21 -->
<g id="node21" class="node">
<title>Node21</title>
<g id="a_node21"><a xlink:title=" ">
<polygon fill="white" stroke="#bfbfbf" points="370,-248 370,-267 493,-267 493,-248 370,-248"/>
<text text-anchor="middle" x="431.5" y="-255" font-family="Helvetica,sans-Serif" font-size="10.00">vnl_vector&lt; double &gt;</text>
</a>
</g>
</g>
<!-- Node21&#45;&gt;Node20 -->
<g id="edge21" class="edge">
<title>Node21&#45;&gt;Node20</title>
<path fill="none" stroke="midnightblue" d="M503.07,-257.26C552.73,-257.09 618.4,-256.86 665.01,-256.7"/>
<polygon fill="midnightblue" stroke="midnightblue" points="503.03,-253.76 493.04,-257.29 503.06,-260.76 503.03,-253.76"/>
</g>
<!-- Node22 -->
<g id="node22" class="node">
<title>Node22</title>
<g id="a_node22"><a xlink:title=" ">
<polygon fill="white" stroke="#bfbfbf" points="639,-196.5 639,-226.5 809,-226.5 809,-196.5 639,-196.5"/>
<text text-anchor="start" x="647" y="-214.5" font-family="Helvetica,sans-Serif" font-size="10.00">std::unique_ptr&lt; itk</text>
<text text-anchor="middle" x="724" y="-203.5" font-family="Helvetica,sans-Serif" font-size="10.00">::OptimizerParametersHelper &gt;</text>
</a>
</g>
</g>
<!-- Node22&#45;&gt;Node19 -->
<g id="edge22" class="edge">
<title>Node22&#45;&gt;Node19</title>
<path fill="none" stroke="#9a32cd" stroke-dasharray="5,2" d="M819.29,-209.34C865.39,-208.28 919.84,-207.04 961.92,-206.07"/>
<polygon fill="#9a32cd" stroke="#9a32cd" points="819.21,-205.84 809.29,-209.57 819.37,-212.84 819.21,-205.84"/>
<text text-anchor="middle" x="885.5" y="-211.5" font-family="Helvetica,sans-Serif" font-size="10.00"> m_Helper</text>
</g>
<!-- Node23 -->
<g id="node23" class="node">
<title>Node23</title>
<g id="a_node23"><a xlink:href="classitk_1_1OptimizerParametersHelper.html" target="_top" xlink:title="Basic helper class to manage parameter data as an Array type, the default type.">
<polygon fill="white" stroke="black" points="362,-198.5 362,-228.5 501,-228.5 501,-198.5 362,-198.5"/>
<text text-anchor="start" x="370" y="-216.5" font-family="Helvetica,sans-Serif" font-size="10.00">itk::OptimizerParameters</text>
<text text-anchor="middle" x="431.5" y="-205.5" font-family="Helvetica,sans-Serif" font-size="10.00">Helper&lt; TValue &gt;</text>
</a>
</g>
</g>
<!-- Node23&#45;&gt;Node22 -->
<g id="edge23" class="edge">
<title>Node23&#45;&gt;Node22</title>
<path fill="none" stroke="#9a32cd" stroke-dasharray="5,2" d="M511.45,-212.96C550.91,-212.68 598.68,-212.36 638.84,-212.08"/>
<polygon fill="#9a32cd" stroke="#9a32cd" points="511.32,-209.46 501.34,-213.03 511.37,-216.46 511.32,-209.46"/>
<text text-anchor="middle" x="572.5" y="-215.5" font-family="Helvetica,sans-Serif" font-size="10.00"> ptr</text>
</g>
<!-- Node24&#45;&gt;Node3 -->
<g id="edge25" class="edge">
<title>Node24&#45;&gt;Node3</title>
<path fill="none" stroke="#9a32cd" stroke-dasharray="5,2" d="M1465.24,-103.5C1529.06,-103.5 1606.92,-103.5 1668.68,-103.5"/>
<polygon fill="#9a32cd" stroke="#9a32cd" points="1465.12,-100 1455.12,-103.5 1465.12,-107 1465.12,-100"/>
<text text-anchor="start" x="1473" y="-128.5" font-family="Helvetica,sans-Serif" font-size="10.00"> m_ModifyGradientByLearning</text>
<text text-anchor="middle" x="1562" y="-117.5" font-family="Helvetica,sans-Serif" font-size="10.00">RateThreader</text>
<text text-anchor="middle" x="1562" y="-106.5" font-family="Helvetica,sans-Serif" font-size="10.00">m_ModifyGradientByScalesThreader</text>
</g>
<!-- Node25 -->
<g id="node25" class="node">
<title>Node25</title>
<g id="a_node25"><a xlink:title=" ">
<polygon fill="white" stroke="#bfbfbf" points="1963.5,-50 1963.5,-69 2118.5,-69 2118.5,-50 1963.5,-50"/>
<text text-anchor="middle" x="2041" y="-57" font-family="Helvetica,sans-Serif" font-size="10.00">std::vector&lt; MeasureType &gt;</text>
</a>
</g>
</g>
<!-- Node25&#45;&gt;Node1 -->
<g id="edge28" class="edge">
<title>Node25&#45;&gt;Node1</title>
<path fill="none" stroke="#9a32cd" stroke-dasharray="5,2" d="M2129.03,-59.5C2179.46,-59.5 2243.21,-59.5 2295.98,-59.5"/>
<polygon fill="#9a32cd" stroke="#9a32cd" points="2128.81,-56 2118.81,-59.5 2128.81,-63 2128.81,-56"/>
<text text-anchor="middle" x="2228.5" y="-62.5" font-family="Helvetica,sans-Serif" font-size="10.00"> m_MetricValuesList</text>
</g>
<!-- Node26 -->
<g id="node26" class="node">
<title>Node26</title>
<g id="a_node26"><a xlink:title=" ">
<polygon fill="white" stroke="#bfbfbf" points="1964.5,-0.5 1964.5,-30.5 2117.5,-30.5 2117.5,-0.5 1964.5,-0.5"/>
<text text-anchor="start" x="1972.5" y="-18.5" font-family="Helvetica,sans-Serif" font-size="10.00">std::vector&lt; LocalOptimizer</text>
<text text-anchor="middle" x="2041" y="-7.5" font-family="Helvetica,sans-Serif" font-size="10.00">Pointer &gt;</text>
</a>
</g>
</g>
<!-- Node26&#45;&gt;Node1 -->
<g id="edge29" class="edge">
<title>Node26&#45;&gt;Node1</title>
<path fill="none" stroke="#9a32cd" stroke-dasharray="5,2" d="M2127.7,-25.99C2172.49,-31.48 2228.2,-38.33 2278,-44.5 2283.83,-45.22 2289.83,-45.97 2295.88,-46.72"/>
<polygon fill="#9a32cd" stroke="#9a32cd" points="2128.08,-22.51 2117.73,-24.77 2127.23,-29.46 2128.08,-22.51"/>
<text text-anchor="middle" x="2228.5" y="-47.5" font-family="Helvetica,sans-Serif" font-size="10.00"> m_OptimizersList</text>
</g>
</g>
</svg>
