<?xml version="1.0" encoding="UTF-8" standalone="no"?>
<!DOCTYPE svg PUBLIC "-//W3C//DTD SVG 1.1//EN"
 "http://www.w3.org/Graphics/SVG/1.1/DTD/svg11.dtd">
<!-- Generated by graphviz version 2.43.0 (0)
 -->
<!-- Title: itk::ScaleTransform&lt; TParametersValueType, VDimension &gt; Pages: 1 -->
<svg width="2104pt" height="404pt"
 viewBox="0.00 0.00 2104.00 403.99" xmlns="http://www.w3.org/2000/svg" xmlns:xlink="http://www.w3.org/1999/xlink">
<g id="graph0" class="graph" transform="scale(1 1) rotate(0) translate(4 399.99)">
<title>itk::ScaleTransform&lt; TParametersValueType, VDimension &gt;</title>
<polygon fill="white" stroke="transparent" points="-4,4 -4,-399.99 2100,-399.99 2100,4 -4,4"/>
<!-- Node1 -->
<g id="node1" class="node">
<title>Node1</title>
<g id="a_node1"><a xlink:title="Scale transformation of a vector space (e.g. space coordinates)">
<polygon fill="#bfbfbf" stroke="black" points="1954,-10.49 1954,-51.49 2096,-51.49 2096,-10.49 1954,-10.49"/>
<text text-anchor="start" x="1962" y="-39.49" font-family="Helvetica,sans-Serif" font-size="10.00">itk::ScaleTransform</text>
<text text-anchor="start" x="1962" y="-28.49" font-family="Helvetica,sans-Serif" font-size="10.00">&lt; TParametersValueType,</text>
<text text-anchor="middle" x="2025" y="-17.49" font-family="Helvetica,sans-Serif" font-size="10.00"> VDimension &gt;</text>
</a>
</g>
</g>
<!-- Node2 -->
<g id="node2" class="node">
<title>Node2</title>
<g id="a_node2"><a xlink:href="classitk_1_1MatrixOffsetTransformBase.html" target="_top" xlink:title=" ">
<polygon fill="white" stroke="black" points="1772,-132.99 1772,-162.99 1917,-162.99 1917,-132.99 1772,-132.99"/>
<text text-anchor="start" x="1780" y="-150.99" font-family="Helvetica,sans-Serif" font-size="10.00">itk::MatrixOffsetTransform</text>
<text text-anchor="middle" x="1844.5" y="-139.99" font-family="Helvetica,sans-Serif" font-size="10.00">Base&lt; float, 3, 3 &gt;</text>
</a>
</g>
</g>
<!-- Node2&#45;&gt;Node1 -->
<g id="edge1" class="edge">
<title>Node2&#45;&gt;Node1</title>
<path fill="none" stroke="midnightblue" d="M1877.16,-127.24C1909.76,-105.87 1960.25,-72.77 1992.72,-51.5"/>
<polygon fill="midnightblue" stroke="midnightblue" points="1874.92,-124.53 1868.47,-132.93 1878.75,-130.38 1874.92,-124.53"/>
</g>
<!-- Node3 -->
<g id="node3" class="node">
<title>Node3</title>
<g id="a_node3"><a xlink:href="classitk_1_1Transform.html" target="_top" xlink:title=" ">
<polygon fill="white" stroke="black" points="1437,-280.99 1437,-310.99 1650,-310.99 1650,-280.99 1437,-280.99"/>
<text text-anchor="start" x="1445" y="-298.99" font-family="Helvetica,sans-Serif" font-size="10.00">itk::Transform&lt; float,</text>
<text text-anchor="middle" x="1543.5" y="-287.99" font-family="Helvetica,sans-Serif" font-size="10.00"> VInputDimension, VOutputDimension &gt;</text>
</a>
</g>
</g>
<!-- Node3&#45;&gt;Node2 -->
<g id="edge2" class="edge">
<title>Node3&#45;&gt;Node2</title>
<path fill="none" stroke="midnightblue" d="M1660.09,-287.71C1692.12,-281.7 1725.81,-271.65 1754,-254.99 1792.36,-232.32 1821.82,-186.96 1835.35,-163.24"/>
<polygon fill="midnightblue" stroke="midnightblue" points="1659.45,-284.26 1650.21,-289.44 1660.66,-291.16 1659.45,-284.26"/>
</g>
<!-- Node4 -->
<g id="node4" class="node">
<title>Node4</title>
<g id="a_node4"><a xlink:href="classitk_1_1TransformBaseTemplate.html" target="_top" xlink:title=" ">
<polygon fill="white" stroke="black" points="1105,-288.99 1105,-318.99 1258,-318.99 1258,-288.99 1105,-288.99"/>
<text text-anchor="start" x="1113" y="-306.99" font-family="Helvetica,sans-Serif" font-size="10.00">itk::TransformBaseTemplate</text>
<text text-anchor="middle" x="1181.5" y="-295.99" font-family="Helvetica,sans-Serif" font-size="10.00">&lt; float &gt;</text>
</a>
</g>
</g>
<!-- Node4&#45;&gt;Node3 -->
<g id="edge3" class="edge">
<title>Node4&#45;&gt;Node3</title>
<path fill="none" stroke="midnightblue" d="M1268.65,-302.08C1319.19,-300.95 1383.44,-299.53 1437,-298.34"/>
<polygon fill="midnightblue" stroke="midnightblue" points="1268.33,-298.58 1258.41,-302.3 1268.48,-305.58 1268.33,-298.58"/>
</g>
<!-- Node5 -->
<g id="node5" class="node">
<title>Node5</title>
<g id="a_node5"><a xlink:href="classitk_1_1Object.html" target="_top" xlink:title="Base class for most ITK classes.">
<polygon fill="white" stroke="black" points="920,-298.49 920,-317.49 987,-317.49 987,-298.49 920,-298.49"/>
<text text-anchor="middle" x="953.5" y="-305.49" font-family="Helvetica,sans-Serif" font-size="10.00">itk::Object</text>
</a>
</g>
</g>
<!-- Node5&#45;&gt;Node4 -->
<g id="edge4" class="edge">
<title>Node5&#45;&gt;Node4</title>
<path fill="none" stroke="midnightblue" d="M997.56,-307.23C1027.76,-306.69 1068.94,-305.97 1104.58,-305.33"/>
<polygon fill="midnightblue" stroke="midnightblue" points="997.3,-303.73 987.36,-307.41 997.42,-310.73 997.3,-303.73"/>
</g>
<!-- Node6 -->
<g id="node6" class="node">
<title>Node6</title>
<g id="a_node6"><a xlink:href="classitk_1_1LightObject.html" target="_top" xlink:title="Light weight base class for most itk classes.">
<polygon fill="white" stroke="black" points="654.5,-373.49 654.5,-392.49 745.5,-392.49 745.5,-373.49 654.5,-373.49"/>
<text text-anchor="middle" x="700" y="-380.49" font-family="Helvetica,sans-Serif" font-size="10.00">itk::LightObject</text>
</a>
</g>
</g>
<!-- Node6&#45;&gt;Node5 -->
<g id="edge5" class="edge">
<title>Node6&#45;&gt;Node5</title>
<path fill="none" stroke="midnightblue" d="M755.85,-381.24C797.55,-378.16 855.48,-370.03 902,-348.99 918.46,-341.54 934.07,-327.39 943.47,-317.82"/>
<polygon fill="midnightblue" stroke="midnightblue" points="755.36,-377.76 745.62,-381.92 755.83,-384.75 755.36,-377.76"/>
</g>
<!-- Node7 -->
<g id="node7" class="node">
<title>Node7</title>
<g id="a_node7"><a xlink:title=" ">
<polygon fill="white" stroke="#bfbfbf" points="372,-376.49 372,-395.49 479,-395.49 479,-376.49 372,-376.49"/>
<text text-anchor="middle" x="425.5" y="-383.49" font-family="Helvetica,sans-Serif" font-size="10.00">std::atomic&lt; int &gt;</text>
</a>
</g>
</g>
<!-- Node7&#45;&gt;Node6 -->
<g id="edge6" class="edge">
<title>Node7&#45;&gt;Node6</title>
<path fill="none" stroke="#9a32cd" stroke-dasharray="5,2" d="M489.18,-385.3C539.64,-384.75 609.33,-383.98 654.29,-383.48"/>
<polygon fill="#9a32cd" stroke="#9a32cd" points="489,-381.8 479.04,-385.41 489.08,-388.8 489,-381.8"/>
<text text-anchor="middle" x="566.5" y="-386.99" font-family="Helvetica,sans-Serif" font-size="10.00"> m_ReferenceCount</text>
</g>
<!-- Node8 -->
<g id="node8" class="node">
<title>Node8</title>
<g id="a_node8"><a xlink:title="STL class.">
<polygon fill="white" stroke="#bfbfbf" points="667.5,-332.49 667.5,-351.49 732.5,-351.49 732.5,-332.49 667.5,-332.49"/>
<text text-anchor="middle" x="700" y="-339.49" font-family="Helvetica,sans-Serif" font-size="10.00">std::string</text>
</a>
</g>
</g>
<!-- Node8&#45;&gt;Node5 -->
<g id="edge7" class="edge">
<title>Node8&#45;&gt;Node5</title>
<path fill="none" stroke="#9a32cd" stroke-dasharray="5,2" d="M742.61,-338.95C783.41,-335.62 847.27,-329.45 902,-319.99 907.77,-318.99 913.87,-317.73 919.75,-316.4"/>
<polygon fill="#9a32cd" stroke="#9a32cd" points="742.19,-335.48 732.5,-339.76 742.75,-342.45 742.19,-335.48"/>
<text text-anchor="middle" x="843.5" y="-336.99" font-family="Helvetica,sans-Serif" font-size="10.00"> m_ObjectName</text>
</g>
<!-- Node9 -->
<g id="node9" class="node">
<title>Node9</title>
<g id="a_node9"><a xlink:title="STL class.">
<polygon fill="white" stroke="#bfbfbf" points="373.5,-326.99 373.5,-356.99 477.5,-356.99 477.5,-326.99 373.5,-326.99"/>
<text text-anchor="start" x="381.5" y="-344.99" font-family="Helvetica,sans-Serif" font-size="10.00">std::basic_string&lt;</text>
<text text-anchor="middle" x="425.5" y="-333.99" font-family="Helvetica,sans-Serif" font-size="10.00"> char &gt;</text>
</a>
</g>
</g>
<!-- Node9&#45;&gt;Node8 -->
<g id="edge8" class="edge">
<title>Node9&#45;&gt;Node8</title>
<path fill="none" stroke="midnightblue" d="M487.85,-341.99C543.49,-341.99 623.3,-341.99 667.14,-341.99"/>
<polygon fill="midnightblue" stroke="midnightblue" points="487.76,-338.49 477.76,-341.99 487.76,-345.49 487.76,-338.49"/>
</g>
<!-- Node10 -->
<g id="node10" class="node">
<title>Node10</title>
<g id="a_node10"><a xlink:href="classitk_1_1MetaDataDictionary.html" target="_top" xlink:title="Provides a mechanism for storing a collection of arbitrary data types.">
<polygon fill="white" stroke="black" points="633,-289.49 633,-308.49 767,-308.49 767,-289.49 633,-289.49"/>
<text text-anchor="middle" x="700" y="-296.49" font-family="Helvetica,sans-Serif" font-size="10.00">itk::MetaDataDictionary</text>
</a>
</g>
</g>
<!-- Node10&#45;&gt;Node5 -->
<g id="edge9" class="edge">
<title>Node10&#45;&gt;Node5</title>
<path fill="none" stroke="#9a32cd" stroke-dasharray="5,2" d="M777.08,-301.71C824.79,-303.42 883.88,-305.54 919.85,-306.82"/>
<polygon fill="#9a32cd" stroke="#9a32cd" points="777.2,-298.22 767.08,-301.36 776.95,-305.21 777.2,-298.22"/>
<text text-anchor="middle" x="843.5" y="-308.99" font-family="Helvetica,sans-Serif" font-size="10.00"> m_MetaDataDictionary</text>
</g>
<!-- Node11 -->
<g id="node11" class="node">
<title>Node11</title>
<g id="a_node11"><a xlink:title=" ">
<polygon fill="white" stroke="#bfbfbf" points="351,-277.99 351,-307.99 500,-307.99 500,-277.99 351,-277.99"/>
<text text-anchor="start" x="359" y="-295.99" font-family="Helvetica,sans-Serif" font-size="10.00">std::shared_ptr&lt; MetaData</text>
<text text-anchor="middle" x="425.5" y="-284.99" font-family="Helvetica,sans-Serif" font-size="10.00">DictionaryMapType &gt;</text>
</a>
</g>
</g>
<!-- Node11&#45;&gt;Node10 -->
<g id="edge10" class="edge">
<title>Node11&#45;&gt;Node10</title>
<path fill="none" stroke="#9a32cd" stroke-dasharray="5,2" d="M510.34,-294.84C549.65,-295.7 595.82,-296.72 632.65,-297.53"/>
<polygon fill="#9a32cd" stroke="#9a32cd" points="510.32,-291.34 500.24,-294.61 510.16,-298.33 510.32,-291.34"/>
<text text-anchor="middle" x="566.5" y="-299.99" font-family="Helvetica,sans-Serif" font-size="10.00"> m_Dictionary</text>
</g>
<!-- Node12 -->
<g id="node12" class="node">
<title>Node12</title>
<g id="a_node12"><a xlink:title="STL class.">
<polygon fill="white" stroke="#bfbfbf" points="114,-283.49 114,-302.49 215,-302.49 215,-283.49 114,-283.49"/>
<text text-anchor="middle" x="164.5" y="-290.49" font-family="Helvetica,sans-Serif" font-size="10.00">std::map&lt; K, T &gt;</text>
</a>
</g>
</g>
<!-- Node12&#45;&gt;Node11 -->
<g id="edge11" class="edge">
<title>Node12&#45;&gt;Node11</title>
<path fill="none" stroke="#9a32cd" stroke-dasharray="5,2" d="M225.34,-292.99C262.61,-292.99 310.86,-292.99 350.52,-292.99"/>
<polygon fill="#9a32cd" stroke="#9a32cd" points="225.13,-289.49 215.13,-292.99 225.13,-296.49 225.13,-289.49"/>
<text text-anchor="middle" x="283" y="-295.99" font-family="Helvetica,sans-Serif" font-size="10.00"> ptr</text>
</g>
<!-- Node13 -->
<g id="node13" class="node">
<title>Node13</title>
<g id="a_node13"><a xlink:title=" ">
<polygon fill="white" stroke="#bfbfbf" points="0,-303.49 0,-322.49 29,-322.49 29,-303.49 0,-303.49"/>
<text text-anchor="middle" x="14.5" y="-310.49" font-family="Helvetica,sans-Serif" font-size="10.00">K</text>
</a>
</g>
</g>
<!-- Node13&#45;&gt;Node12 -->
<g id="edge12" class="edge">
<title>Node13&#45;&gt;Node12</title>
<path fill="none" stroke="#9a32cd" stroke-dasharray="5,2" d="M39.24,-309.78C59.28,-307.07 88.63,-303.11 113.78,-299.71"/>
<polygon fill="#9a32cd" stroke="#9a32cd" points="38.6,-306.34 29.16,-311.15 39.54,-313.27 38.6,-306.34"/>
<text text-anchor="middle" x="71.5" y="-310.99" font-family="Helvetica,sans-Serif" font-size="10.00"> keys</text>
</g>
<!-- Node14 -->
<g id="node14" class="node">
<title>Node14</title>
<g id="a_node14"><a xlink:title=" ">
<polygon fill="white" stroke="#bfbfbf" points="0,-250.49 0,-269.49 29,-269.49 29,-250.49 0,-250.49"/>
<text text-anchor="middle" x="14.5" y="-257.49" font-family="Helvetica,sans-Serif" font-size="10.00">T</text>
</a>
</g>
</g>
<!-- Node14&#45;&gt;Node12 -->
<g id="edge13" class="edge">
<title>Node14&#45;&gt;Node12</title>
<path fill="none" stroke="#9a32cd" stroke-dasharray="5,2" d="M38.92,-265.21C60.82,-270.1 94.06,-277.51 120.69,-283.45"/>
<polygon fill="#9a32cd" stroke="#9a32cd" points="39.68,-261.8 29.16,-263.04 38.16,-268.63 39.68,-261.8"/>
<text text-anchor="middle" x="71.5" y="-279.99" font-family="Helvetica,sans-Serif" font-size="10.00"> elements</text>
</g>
<!-- Node16 -->
<g id="node16" class="node">
<title>Node16</title>
<g id="a_node16"><a xlink:title="STL class.">
<polygon fill="white" stroke="#bfbfbf" points="233,-235.49 233,-254.49 333,-254.49 333,-235.49 233,-235.49"/>
<text text-anchor="middle" x="283" y="-242.49" font-family="Helvetica,sans-Serif" font-size="10.00">std::atomic&lt; T &gt;</text>
</a>
</g>
</g>
<!-- Node14&#45;&gt;Node16 -->
<g id="edge16" class="edge">
<title>Node14&#45;&gt;Node16</title>
<path fill="none" stroke="#9a32cd" stroke-dasharray="5,2" d="M39.06,-253.41C41.72,-252.85 44.41,-252.35 47,-251.99 110.66,-243.07 184.94,-242.48 232.68,-243.34"/>
<polygon fill="#9a32cd" stroke="#9a32cd" points="38.06,-250.06 29.17,-255.82 39.71,-256.86 38.06,-250.06"/>
<text text-anchor="middle" x="71.5" y="-254.99" font-family="Helvetica,sans-Serif" font-size="10.00"> ptr</text>
</g>
<!-- Node15 -->
<g id="node15" class="node">
<title>Node15</title>
<g id="a_node15"><a xlink:href="classitk_1_1TimeStamp.html" target="_top" xlink:title="Generate a unique, increasing time value.">
<polygon fill="white" stroke="black" points="654,-235.49 654,-254.49 746,-254.49 746,-235.49 654,-235.49"/>
<text text-anchor="middle" x="700" y="-242.49" font-family="Helvetica,sans-Serif" font-size="10.00">itk::TimeStamp</text>
</a>
</g>
</g>
<!-- Node15&#45;&gt;Node2 -->
<g id="edge25" class="edge">
<title>Node15&#45;&gt;Node2</title>
<path fill="none" stroke="#9a32cd" stroke-dasharray="5,2" d="M756.57,-243.6C807.53,-242.45 885.09,-240.99 952.5,-240.99 952.5,-240.99 952.5,-240.99 1544.5,-240.99 1639.21,-240.99 1665.58,-235.92 1754,-201.99 1779.41,-192.24 1805.77,-175.37 1823.24,-163.08"/>
<polygon fill="#9a32cd" stroke="#9a32cd" points="756.35,-240.1 746.43,-243.83 756.51,-247.1 756.35,-240.1"/>
<text text-anchor="middle" x="1181.5" y="-254.99" font-family="Helvetica,sans-Serif" font-size="10.00"> m_InverseMatrixMTime</text>
<text text-anchor="middle" x="1181.5" y="-243.99" font-family="Helvetica,sans-Serif" font-size="10.00">m_MatrixMTime</text>
</g>
<!-- Node15&#45;&gt;Node5 -->
<g id="edge14" class="edge">
<title>Node15&#45;&gt;Node5</title>
<path fill="none" stroke="#9a32cd" stroke-dasharray="5,2" d="M756.33,-253.66C797.11,-260.75 853.65,-272.03 902,-286.99 911.98,-290.08 922.71,-294.39 931.7,-298.3"/>
<polygon fill="#9a32cd" stroke="#9a32cd" points="756.77,-250.19 746.32,-251.95 755.59,-257.09 756.77,-250.19"/>
<text text-anchor="middle" x="843.5" y="-289.99" font-family="Helvetica,sans-Serif" font-size="10.00"> m_MTime</text>
</g>
<!-- Node16&#45;&gt;Node15 -->
<g id="edge15" class="edge">
<title>Node16&#45;&gt;Node15</title>
<path fill="none" stroke="#9a32cd" stroke-dasharray="5,2" d="M343.37,-244.99C427.26,-244.99 578.65,-244.99 653.94,-244.99"/>
<polygon fill="#9a32cd" stroke="#9a32cd" points="343.24,-241.49 333.24,-244.99 343.24,-248.49 343.24,-241.49"/>
<text text-anchor="middle" x="425.5" y="-247.99" font-family="Helvetica,sans-Serif" font-size="10.00"> m_GlobalTimeStamp</text>
</g>
<!-- Node17 -->
<g id="node17" class="node">
<title>Node17</title>
<g id="a_node17"><a xlink:href="classitk_1_1Vector.html" target="_top" xlink:title=" ">
<polygon fill="white" stroke="black" points="1458.5,-181.99 1458.5,-211.99 1628.5,-211.99 1628.5,-181.99 1458.5,-181.99"/>
<text text-anchor="start" x="1466.5" y="-199.99" font-family="Helvetica,sans-Serif" font-size="10.00">itk::Vector&lt; float,</text>
<text text-anchor="middle" x="1543.5" y="-188.99" font-family="Helvetica,sans-Serif" font-size="10.00"> Self::OutputSpaceDimension &gt;</text>
</a>
</g>
</g>
<!-- Node17&#45;&gt;Node2 -->
<g id="edge17" class="edge">
<title>Node17&#45;&gt;Node2</title>
<path fill="none" stroke="#9a32cd" stroke-dasharray="5,2" d="M1638.64,-181.82C1674.73,-175.98 1716.28,-169.21 1754,-162.99 1759.75,-162.04 1765.71,-161.05 1771.7,-160.06"/>
<polygon fill="#9a32cd" stroke="#9a32cd" points="1637.93,-178.39 1628.62,-183.44 1639.05,-185.3 1637.93,-178.39"/>
<text text-anchor="middle" x="1711" y="-189.99" font-family="Helvetica,sans-Serif" font-size="10.00"> m_Offset</text>
<text text-anchor="middle" x="1711" y="-178.99" font-family="Helvetica,sans-Serif" font-size="10.00">m_Translation</text>
</g>
<!-- Node18 -->
<g id="node18" class="node">
<title>Node18</title>
<g id="a_node18"><a xlink:href="classitk_1_1FixedArray.html" target="_top" xlink:title=" ">
<polygon fill="white" stroke="black" points="1120,-173.99 1120,-203.99 1243,-203.99 1243,-173.99 1120,-173.99"/>
<text text-anchor="start" x="1128" y="-191.99" font-family="Helvetica,sans-Serif" font-size="10.00">itk::FixedArray&lt; float,</text>
<text text-anchor="middle" x="1181.5" y="-180.99" font-family="Helvetica,sans-Serif" font-size="10.00"> VVectorDimension &gt;</text>
</a>
</g>
</g>
<!-- Node18&#45;&gt;Node17 -->
<g id="edge18" class="edge">
<title>Node18&#45;&gt;Node17</title>
<path fill="none" stroke="midnightblue" d="M1253.48,-190.57C1312.31,-191.88 1396.07,-193.74 1458.29,-195.12"/>
<polygon fill="midnightblue" stroke="midnightblue" points="1253.24,-187.06 1243.16,-190.34 1253.08,-194.06 1253.24,-187.06"/>
</g>
<!-- Node19 -->
<g id="node19" class="node">
<title>Node19</title>
<g id="a_node19"><a xlink:title=" ">
<polygon fill="white" stroke="#bfbfbf" points="925.5,-130.49 925.5,-149.49 981.5,-149.49 981.5,-130.49 925.5,-130.49"/>
<text text-anchor="middle" x="953.5" y="-137.49" font-family="Helvetica,sans-Serif" font-size="10.00">VLength</text>
</a>
</g>
</g>
<!-- Node19&#45;&gt;Node18 -->
<g id="edge19" class="edge">
<title>Node19&#45;&gt;Node18</title>
<path fill="none" stroke="#9a32cd" stroke-dasharray="5,2" d="M991.42,-151.41C995.98,-152.68 1000.58,-153.91 1005,-154.99 1042.83,-164.25 1085.75,-172.6 1119.67,-178.71"/>
<polygon fill="#9a32cd" stroke="#9a32cd" points="992.2,-147.99 981.62,-148.58 990.26,-154.71 992.2,-147.99"/>
<text text-anchor="middle" x="1046" y="-174.99" font-family="Helvetica,sans-Serif" font-size="10.00"> m_InternalArray</text>
</g>
<!-- Node21 -->
<g id="node21" class="node">
<title>Node21</title>
<g id="a_node21"><a xlink:href="classitk_1_1FixedArray.html" target="_top" xlink:title=" ">
<polygon fill="white" stroke="black" points="1120,-124.99 1120,-154.99 1243,-154.99 1243,-124.99 1120,-124.99"/>
<text text-anchor="start" x="1128" y="-142.99" font-family="Helvetica,sans-Serif" font-size="10.00">itk::FixedArray&lt; float,</text>
<text text-anchor="middle" x="1181.5" y="-131.99" font-family="Helvetica,sans-Serif" font-size="10.00"> VPointDimension &gt;</text>
</a>
</g>
</g>
<!-- Node19&#45;&gt;Node21 -->
<g id="edge22" class="edge">
<title>Node19&#45;&gt;Node21</title>
<path fill="none" stroke="#9a32cd" stroke-dasharray="5,2" d="M991.93,-139.99C1026.62,-139.99 1078.85,-139.99 1119.55,-139.99"/>
<polygon fill="#9a32cd" stroke="#9a32cd" points="991.76,-136.49 981.76,-139.99 991.76,-143.49 991.76,-136.49"/>
<text text-anchor="middle" x="1046" y="-142.99" font-family="Helvetica,sans-Serif" font-size="10.00"> m_InternalArray</text>
</g>
<!-- Node24 -->
<g id="node24" class="node">
<title>Node24</title>
<g id="a_node24"><a xlink:href="classitk_1_1FixedArray.html" target="_top" xlink:title=" ">
<polygon fill="white" stroke="black" points="1276,-2.49 1276,-21.49 1419,-21.49 1419,-2.49 1276,-2.49"/>
<text text-anchor="middle" x="1347.5" y="-9.49" font-family="Helvetica,sans-Serif" font-size="10.00">itk::FixedArray&lt; float, 3 &gt;</text>
</a>
</g>
</g>
<!-- Node19&#45;&gt;Node24 -->
<g id="edge27" class="edge">
<title>Node19&#45;&gt;Node24</title>
<path fill="none" stroke="#9a32cd" stroke-dasharray="5,2" d="M991.58,-127.88C1069.14,-102.56 1247.16,-44.43 1317.32,-21.52"/>
<polygon fill="#9a32cd" stroke="#9a32cd" points="990.17,-124.66 981.75,-131.09 992.35,-131.31 990.17,-124.66"/>
<text text-anchor="middle" x="1046" y="-124.99" font-family="Helvetica,sans-Serif" font-size="10.00"> m_InternalArray</text>
</g>
<!-- Node20 -->
<g id="node20" class="node">
<title>Node20</title>
<g id="a_node20"><a xlink:href="classitk_1_1Point.html" target="_top" xlink:title=" ">
<polygon fill="white" stroke="black" points="1463,-132.99 1463,-162.99 1624,-162.99 1624,-132.99 1463,-132.99"/>
<text text-anchor="start" x="1471" y="-150.99" font-family="Helvetica,sans-Serif" font-size="10.00">itk::Point&lt; float,</text>
<text text-anchor="middle" x="1543.5" y="-139.99" font-family="Helvetica,sans-Serif" font-size="10.00"> Self::InputSpaceDimension &gt;</text>
</a>
</g>
</g>
<!-- Node20&#45;&gt;Node2 -->
<g id="edge20" class="edge">
<title>Node20&#45;&gt;Node2</title>
<path fill="none" stroke="#9a32cd" stroke-dasharray="5,2" d="M1634.36,-147.99C1678.37,-147.99 1730.64,-147.99 1771.91,-147.99"/>
<polygon fill="#9a32cd" stroke="#9a32cd" points="1634.23,-144.49 1624.23,-147.99 1634.23,-151.49 1634.23,-144.49"/>
<text text-anchor="middle" x="1711" y="-150.99" font-family="Helvetica,sans-Serif" font-size="10.00"> m_Center</text>
</g>
<!-- Node21&#45;&gt;Node20 -->
<g id="edge21" class="edge">
<title>Node21&#45;&gt;Node20</title>
<path fill="none" stroke="midnightblue" d="M1253.36,-141.57C1313.68,-142.91 1400.27,-144.83 1462.95,-146.22"/>
<polygon fill="midnightblue" stroke="midnightblue" points="1253.24,-138.06 1243.16,-141.34 1253.08,-145.06 1253.24,-138.06"/>
</g>
<!-- Node22 -->
<g id="node22" class="node">
<title>Node22</title>
<g id="a_node22"><a xlink:href="classitk_1_1Matrix.html" target="_top" xlink:title=" ">
<polygon fill="white" stroke="black" points="1463,-72.49 1463,-113.49 1624,-113.49 1624,-72.49 1463,-72.49"/>
<text text-anchor="start" x="1471" y="-101.49" font-family="Helvetica,sans-Serif" font-size="10.00">itk::Matrix&lt; float,</text>
<text text-anchor="start" x="1471" y="-90.49" font-family="Helvetica,sans-Serif" font-size="10.00"> Self::OutputSpaceDimension,</text>
<text text-anchor="middle" x="1543.5" y="-79.49" font-family="Helvetica,sans-Serif" font-size="10.00"> Self::InputSpaceDimension &gt;</text>
</a>
</g>
</g>
<!-- Node22&#45;&gt;Node2 -->
<g id="edge23" class="edge">
<title>Node22&#45;&gt;Node2</title>
<path fill="none" stroke="#9a32cd" stroke-dasharray="5,2" d="M1634.08,-109.47C1678.15,-117.58 1730.55,-127.21 1771.91,-134.82"/>
<polygon fill="#9a32cd" stroke="#9a32cd" points="1634.7,-106.02 1624.23,-107.66 1633.44,-112.91 1634.7,-106.02"/>
<text text-anchor="middle" x="1711" y="-132.99" font-family="Helvetica,sans-Serif" font-size="10.00"> m_Matrix</text>
</g>
<!-- Node23 -->
<g id="node23" class="node">
<title>Node23</title>
<g id="a_node23"><a xlink:href="classitk_1_1Matrix.html" target="_top" xlink:title=" ">
<polygon fill="white" stroke="black" points="1458.5,-12.49 1458.5,-53.49 1628.5,-53.49 1628.5,-12.49 1458.5,-12.49"/>
<text text-anchor="start" x="1466.5" y="-41.49" font-family="Helvetica,sans-Serif" font-size="10.00">itk::Matrix&lt; float,</text>
<text text-anchor="start" x="1466.5" y="-30.49" font-family="Helvetica,sans-Serif" font-size="10.00"> Self::InputSpaceDimension,</text>
<text text-anchor="middle" x="1543.5" y="-19.49" font-family="Helvetica,sans-Serif" font-size="10.00"> Self::OutputSpaceDimension &gt;</text>
</a>
</g>
</g>
<!-- Node23&#45;&gt;Node2 -->
<g id="edge24" class="edge">
<title>Node23&#45;&gt;Node2</title>
<path fill="none" stroke="#9a32cd" stroke-dasharray="5,2" d="M1629.26,-56.44C1636.3,-58.58 1643.28,-60.78 1650,-62.99 1696.89,-78.42 1708.86,-82.01 1754,-101.99 1775.25,-111.4 1798.57,-123.45 1816.09,-132.85"/>
<polygon fill="#9a32cd" stroke="#9a32cd" points="1630.24,-53.07 1619.65,-53.55 1628.22,-59.78 1630.24,-53.07"/>
<text text-anchor="middle" x="1711" y="-104.99" font-family="Helvetica,sans-Serif" font-size="10.00"> m_InverseMatrix</text>
</g>
<!-- Node24&#45;&gt;Node1 -->
<g id="edge26" class="edge">
<title>Node24&#45;&gt;Node1</title>
<path fill="none" stroke="#9a32cd" stroke-dasharray="5,2" d="M1429.68,-3.41C1432.15,-3.25 1434.59,-3.11 1437,-2.99 1623.72,6.48 1843.9,-11.96 1953.97,-23.2"/>
<polygon fill="#9a32cd" stroke="#9a32cd" points="1429.19,0.06 1419.46,-4.14 1429.68,-6.92 1429.19,0.06"/>
<text text-anchor="middle" x="1711" y="-9.99" font-family="Helvetica,sans-Serif" font-size="10.00"> m_Scale</text>
</g>
</g>
</svg>
