<?xml version="1.0" encoding="UTF-8" standalone="no"?>
<!DOCTYPE svg PUBLIC "-//W3C//DTD SVG 1.1//EN"
 "http://www.w3.org/Graphics/SVG/1.1/DTD/svg11.dtd">
<!-- Generated by graphviz version 2.43.0 (0)
 -->
<!-- Title: itk::SphereSignedDistanceFunction&lt; TCoordRep, VSpaceDimension &gt; Pages: 1 -->
<svg width="2344pt" height="236pt"
 viewBox="0.00 0.00 2344.00 235.50" xmlns="http://www.w3.org/2000/svg" xmlns:xlink="http://www.w3.org/1999/xlink">
<g id="graph0" class="graph" transform="scale(1 1) rotate(0) translate(4 231.5)">
<title>itk::SphereSignedDistanceFunction&lt; TCoordRep, VSpaceDimension &gt;</title>
<polygon fill="white" stroke="transparent" points="-4,4 -4,-231.5 2340,-231.5 2340,4 -4,4"/>
<!-- Node1 -->
<g id="node1" class="node">
<title>Node1</title>
<g id="a_node1"><a xlink:title="Compute the signed distance from a N&#45;dimensional sphere.">
<polygon fill="#bfbfbf" stroke="black" points="2109,-26.5 2109,-56.5 2336,-56.5 2336,-26.5 2109,-26.5"/>
<text text-anchor="start" x="2117" y="-44.5" font-family="Helvetica,sans-Serif" font-size="10.00">itk::SphereSignedDistance</text>
<text text-anchor="middle" x="2222.5" y="-33.5" font-family="Helvetica,sans-Serif" font-size="10.00">Function&lt; TCoordRep, VSpaceDimension &gt;</text>
</a>
</g>
</g>
<!-- Node2 -->
<g id="node2" class="node">
<title>Node2</title>
<g id="a_node2"><a xlink:href="classitk_1_1ShapeSignedDistanceFunction.html" target="_top" xlink:title="Base class for functions which evaluates the signed distance from a shape.">
<polygon fill="white" stroke="black" points="1774,-51.5 1774,-81.5 2001,-81.5 2001,-51.5 1774,-51.5"/>
<text text-anchor="start" x="1782" y="-69.5" font-family="Helvetica,sans-Serif" font-size="10.00">itk::ShapeSignedDistance</text>
<text text-anchor="middle" x="1887.5" y="-58.5" font-family="Helvetica,sans-Serif" font-size="10.00">Function&lt; TCoordRep, VSpaceDimension &gt;</text>
</a>
</g>
</g>
<!-- Node2&#45;&gt;Node1 -->
<g id="edge1" class="edge">
<title>Node2&#45;&gt;Node1</title>
<path fill="none" stroke="midnightblue" d="M2011.5,-57.27C2043.39,-54.87 2077.56,-52.31 2108.88,-49.96"/>
<polygon fill="midnightblue" stroke="midnightblue" points="2010.95,-53.8 2001.24,-58.04 2011.47,-60.78 2010.95,-53.8"/>
</g>
<!-- Node3 -->
<g id="node3" class="node">
<title>Node3</title>
<g id="a_node3"><a xlink:href="classitk_1_1SpatialFunction.html" target="_top" xlink:title=" ">
<polygon fill="white" stroke="black" points="1439,-102 1439,-143 1664,-143 1664,-102 1439,-102"/>
<text text-anchor="start" x="1447" y="-131" font-family="Helvetica,sans-Serif" font-size="10.00">itk::SpatialFunction</text>
<text text-anchor="start" x="1447" y="-120" font-family="Helvetica,sans-Serif" font-size="10.00">&lt; double, VSpaceDimension,</text>
<text text-anchor="middle" x="1551.5" y="-109" font-family="Helvetica,sans-Serif" font-size="10.00"> Point&lt; TCoordRep, VSpaceDimension &gt; &gt;</text>
</a>
</g>
</g>
<!-- Node3&#45;&gt;Node2 -->
<g id="edge2" class="edge">
<title>Node3&#45;&gt;Node2</title>
<path fill="none" stroke="midnightblue" d="M1674.13,-102.11C1714.7,-95.31 1759.13,-87.86 1796.82,-81.54"/>
<polygon fill="midnightblue" stroke="midnightblue" points="1673.47,-98.67 1664.18,-103.77 1674.62,-105.57 1673.47,-98.67"/>
</g>
<!-- Node4 -->
<g id="node4" class="node">
<title>Node4</title>
<g id="a_node4"><a xlink:href="classitk_1_1FunctionBase.html" target="_top" xlink:title=" ">
<polygon fill="white" stroke="black" points="1118,-128 1118,-169 1321,-169 1321,-128 1118,-128"/>
<text text-anchor="start" x="1126" y="-157" font-family="Helvetica,sans-Serif" font-size="10.00">itk::FunctionBase&lt;</text>
<text text-anchor="start" x="1126" y="-146" font-family="Helvetica,sans-Serif" font-size="10.00"> Point&lt; TCoordRep, VSpaceDimension</text>
<text text-anchor="middle" x="1219.5" y="-135" font-family="Helvetica,sans-Serif" font-size="10.00"> &gt;, double &gt;</text>
</a>
</g>
</g>
<!-- Node4&#45;&gt;Node3 -->
<g id="edge3" class="edge">
<title>Node4&#45;&gt;Node3</title>
<path fill="none" stroke="midnightblue" d="M1331.44,-139.76C1366.02,-137.03 1404.17,-134.03 1438.81,-131.3"/>
<polygon fill="midnightblue" stroke="midnightblue" points="1331,-136.28 1321.3,-140.56 1331.55,-143.26 1331,-136.28"/>
</g>
<!-- Node5 -->
<g id="node5" class="node">
<title>Node5</title>
<g id="a_node5"><a xlink:href="classitk_1_1Object.html" target="_top" xlink:title="Base class for most ITK classes.">
<polygon fill="white" stroke="black" points="962,-139 962,-158 1029,-158 1029,-139 962,-139"/>
<text text-anchor="middle" x="995.5" y="-146" font-family="Helvetica,sans-Serif" font-size="10.00">itk::Object</text>
</a>
</g>
</g>
<!-- Node5&#45;&gt;Node4 -->
<g id="edge4" class="edge">
<title>Node5&#45;&gt;Node4</title>
<path fill="none" stroke="midnightblue" d="M1039.41,-148.5C1061.79,-148.5 1090.19,-148.5 1117.75,-148.5"/>
<polygon fill="midnightblue" stroke="midnightblue" points="1039.26,-145 1029.26,-148.5 1039.26,-152 1039.26,-145"/>
</g>
<!-- Node6 -->
<g id="node6" class="node">
<title>Node6</title>
<g id="a_node6"><a xlink:href="classitk_1_1LightObject.html" target="_top" xlink:title="Light weight base class for most itk classes.">
<polygon fill="white" stroke="black" points="660.5,-203 660.5,-222 751.5,-222 751.5,-203 660.5,-203"/>
<text text-anchor="middle" x="706" y="-210" font-family="Helvetica,sans-Serif" font-size="10.00">itk::LightObject</text>
</a>
</g>
</g>
<!-- Node6&#45;&gt;Node5 -->
<g id="edge5" class="edge">
<title>Node6&#45;&gt;Node5</title>
<path fill="none" stroke="midnightblue" d="M761.7,-205.26C802.39,-199.32 859.09,-189.88 908,-177.5 929.04,-172.17 952.33,-164.24 969.44,-158.02"/>
<polygon fill="midnightblue" stroke="midnightblue" points="761.12,-201.8 751.72,-206.69 762.11,-208.73 761.12,-201.8"/>
</g>
<!-- Node7 -->
<g id="node7" class="node">
<title>Node7</title>
<g id="a_node7"><a xlink:title=" ">
<polygon fill="white" stroke="#bfbfbf" points="378,-208 378,-227 485,-227 485,-208 378,-208"/>
<text text-anchor="middle" x="431.5" y="-215" font-family="Helvetica,sans-Serif" font-size="10.00">std::atomic&lt; int &gt;</text>
</a>
</g>
</g>
<!-- Node7&#45;&gt;Node6 -->
<g id="edge6" class="edge">
<title>Node7&#45;&gt;Node6</title>
<path fill="none" stroke="#9a32cd" stroke-dasharray="5,2" d="M495.18,-216.35C545.64,-215.42 615.33,-214.15 660.29,-213.32"/>
<polygon fill="#9a32cd" stroke="#9a32cd" points="494.97,-212.85 485.04,-216.54 495.1,-219.85 494.97,-212.85"/>
<text text-anchor="middle" x="572.5" y="-218.5" font-family="Helvetica,sans-Serif" font-size="10.00"> m_ReferenceCount</text>
</g>
<!-- Node8 -->
<g id="node8" class="node">
<title>Node8</title>
<g id="a_node8"><a xlink:title="STL class.">
<polygon fill="white" stroke="#bfbfbf" points="673.5,-159 673.5,-178 738.5,-178 738.5,-159 673.5,-159"/>
<text text-anchor="middle" x="706" y="-166" font-family="Helvetica,sans-Serif" font-size="10.00">std::string</text>
</a>
</g>
</g>
<!-- Node8&#45;&gt;Node5 -->
<g id="edge7" class="edge">
<title>Node8&#45;&gt;Node5</title>
<path fill="none" stroke="#9a32cd" stroke-dasharray="5,2" d="M748.83,-165.59C806.6,-161.57 909.6,-154.41 961.98,-150.76"/>
<polygon fill="#9a32cd" stroke="#9a32cd" points="748.32,-162.12 738.59,-166.3 748.81,-169.1 748.32,-162.12"/>
<text text-anchor="middle" x="849.5" y="-165.5" font-family="Helvetica,sans-Serif" font-size="10.00"> m_ObjectName</text>
</g>
<!-- Node9 -->
<g id="node9" class="node">
<title>Node9</title>
<g id="a_node9"><a xlink:title="STL class.">
<polygon fill="white" stroke="#bfbfbf" points="379.5,-158.5 379.5,-188.5 483.5,-188.5 483.5,-158.5 379.5,-158.5"/>
<text text-anchor="start" x="387.5" y="-176.5" font-family="Helvetica,sans-Serif" font-size="10.00">std::basic_string&lt;</text>
<text text-anchor="middle" x="431.5" y="-165.5" font-family="Helvetica,sans-Serif" font-size="10.00"> char &gt;</text>
</a>
</g>
</g>
<!-- Node9&#45;&gt;Node8 -->
<g id="edge8" class="edge">
<title>Node9&#45;&gt;Node8</title>
<path fill="none" stroke="midnightblue" d="M493.85,-172.37C549.49,-171.35 629.3,-169.89 673.14,-169.08"/>
<polygon fill="midnightblue" stroke="midnightblue" points="493.69,-168.88 483.76,-172.56 493.82,-175.88 493.69,-168.88"/>
</g>
<!-- Node10 -->
<g id="node10" class="node">
<title>Node10</title>
<g id="a_node10"><a xlink:href="classitk_1_1MetaDataDictionary.html" target="_top" xlink:title="Provides a mechanism for storing a collection of arbitrary data types.">
<polygon fill="white" stroke="black" points="639,-120 639,-139 773,-139 773,-120 639,-120"/>
<text text-anchor="middle" x="706" y="-127" font-family="Helvetica,sans-Serif" font-size="10.00">itk::MetaDataDictionary</text>
</a>
</g>
</g>
<!-- Node10&#45;&gt;Node5 -->
<g id="edge9" class="edge">
<title>Node10&#45;&gt;Node5</title>
<path fill="none" stroke="#9a32cd" stroke-dasharray="5,2" d="M783.6,-128.3C821.16,-128.4 867.03,-129.56 908,-133.5 925.9,-135.22 945.68,-138.54 961.8,-141.62"/>
<polygon fill="#9a32cd" stroke="#9a32cd" points="783.23,-124.8 773.23,-128.3 783.23,-131.8 783.23,-124.8"/>
<text text-anchor="middle" x="849.5" y="-136.5" font-family="Helvetica,sans-Serif" font-size="10.00"> m_MetaDataDictionary</text>
</g>
<!-- Node11 -->
<g id="node11" class="node">
<title>Node11</title>
<g id="a_node11"><a xlink:title=" ">
<polygon fill="white" stroke="#bfbfbf" points="357,-109.5 357,-139.5 506,-139.5 506,-109.5 357,-109.5"/>
<text text-anchor="start" x="365" y="-127.5" font-family="Helvetica,sans-Serif" font-size="10.00">std::shared_ptr&lt; MetaData</text>
<text text-anchor="middle" x="431.5" y="-116.5" font-family="Helvetica,sans-Serif" font-size="10.00">DictionaryMapType &gt;</text>
</a>
</g>
</g>
<!-- Node11&#45;&gt;Node10 -->
<g id="edge10" class="edge">
<title>Node11&#45;&gt;Node10</title>
<path fill="none" stroke="#9a32cd" stroke-dasharray="5,2" d="M516.34,-126.04C555.65,-126.76 601.82,-127.61 638.65,-128.28"/>
<polygon fill="#9a32cd" stroke="#9a32cd" points="516.3,-122.54 506.24,-125.85 516.18,-129.54 516.3,-122.54"/>
<text text-anchor="middle" x="572.5" y="-130.5" font-family="Helvetica,sans-Serif" font-size="10.00"> m_Dictionary</text>
</g>
<!-- Node12 -->
<g id="node12" class="node">
<title>Node12</title>
<g id="a_node12"><a xlink:title="STL class.">
<polygon fill="white" stroke="#bfbfbf" points="114,-115 114,-134 215,-134 215,-115 114,-115"/>
<text text-anchor="middle" x="164.5" y="-122" font-family="Helvetica,sans-Serif" font-size="10.00">std::map&lt; K, T &gt;</text>
</a>
</g>
</g>
<!-- Node12&#45;&gt;Node11 -->
<g id="edge11" class="edge">
<title>Node12&#45;&gt;Node11</title>
<path fill="none" stroke="#9a32cd" stroke-dasharray="5,2" d="M225.18,-124.5C264.19,-124.5 315.41,-124.5 356.93,-124.5"/>
<polygon fill="#9a32cd" stroke="#9a32cd" points="225.03,-121 215.03,-124.5 225.03,-128 225.03,-121"/>
<text text-anchor="middle" x="286" y="-127.5" font-family="Helvetica,sans-Serif" font-size="10.00"> ptr</text>
</g>
<!-- Node13 -->
<g id="node13" class="node">
<title>Node13</title>
<g id="a_node13"><a xlink:title=" ">
<polygon fill="white" stroke="#bfbfbf" points="0,-139 0,-158 29,-158 29,-139 0,-139"/>
<text text-anchor="middle" x="14.5" y="-146" font-family="Helvetica,sans-Serif" font-size="10.00">K</text>
</a>
</g>
</g>
<!-- Node13&#45;&gt;Node12 -->
<g id="edge12" class="edge">
<title>Node13&#45;&gt;Node12</title>
<path fill="none" stroke="#9a32cd" stroke-dasharray="5,2" d="M39.24,-144.65C59.28,-141.4 88.63,-136.64 113.78,-132.56"/>
<polygon fill="#9a32cd" stroke="#9a32cd" points="38.47,-141.23 29.16,-146.29 39.59,-148.14 38.47,-141.23"/>
<text text-anchor="middle" x="71.5" y="-145.5" font-family="Helvetica,sans-Serif" font-size="10.00"> keys</text>
</g>
<!-- Node14 -->
<g id="node14" class="node">
<title>Node14</title>
<g id="a_node14"><a xlink:title=" ">
<polygon fill="white" stroke="#bfbfbf" points="0,-86 0,-105 29,-105 29,-86 0,-86"/>
<text text-anchor="middle" x="14.5" y="-93" font-family="Helvetica,sans-Serif" font-size="10.00">T</text>
</a>
</g>
</g>
<!-- Node14&#45;&gt;Node12 -->
<g id="edge13" class="edge">
<title>Node14&#45;&gt;Node12</title>
<path fill="none" stroke="#9a32cd" stroke-dasharray="5,2" d="M39.09,-100.12C59.39,-104.1 89.35,-109.97 114.78,-114.95"/>
<polygon fill="#9a32cd" stroke="#9a32cd" points="39.64,-96.66 29.16,-98.18 38.3,-103.53 39.64,-96.66"/>
<text text-anchor="middle" x="71.5" y="-113.5" font-family="Helvetica,sans-Serif" font-size="10.00"> elements</text>
</g>
<!-- Node16 -->
<g id="node16" class="node">
<title>Node16</title>
<g id="a_node16"><a xlink:title="STL class.">
<polygon fill="white" stroke="#bfbfbf" points="114.5,-71 114.5,-90 214.5,-90 214.5,-71 114.5,-71"/>
<text text-anchor="middle" x="164.5" y="-78" font-family="Helvetica,sans-Serif" font-size="10.00">std::atomic&lt; T &gt;</text>
</a>
</g>
</g>
<!-- Node14&#45;&gt;Node16 -->
<g id="edge16" class="edge">
<title>Node14&#45;&gt;Node16</title>
<path fill="none" stroke="#9a32cd" stroke-dasharray="5,2" d="M38.4,-84.04C41.24,-83.01 44.15,-82.12 47,-81.5 68.74,-76.79 93.31,-75.94 114.26,-76.51"/>
<polygon fill="#9a32cd" stroke="#9a32cd" points="37.03,-80.82 29.19,-87.95 39.77,-87.27 37.03,-80.82"/>
<text text-anchor="middle" x="71.5" y="-84.5" font-family="Helvetica,sans-Serif" font-size="10.00"> ptr</text>
</g>
<!-- Node15 -->
<g id="node15" class="node">
<title>Node15</title>
<g id="a_node15"><a xlink:href="classitk_1_1TimeStamp.html" target="_top" xlink:title="Generate a unique, increasing time value.">
<polygon fill="white" stroke="black" points="526.5,-76 526.5,-95 618.5,-95 618.5,-76 526.5,-76"/>
<text text-anchor="middle" x="572.5" y="-83" font-family="Helvetica,sans-Serif" font-size="10.00">itk::TimeStamp</text>
</a>
</g>
</g>
<!-- Node15&#45;&gt;Node5 -->
<g id="edge14" class="edge">
<title>Node15&#45;&gt;Node5</title>
<path fill="none" stroke="#9a32cd" stroke-dasharray="5,2" d="M628.91,-87.81C669.03,-89.87 724.5,-93.5 773,-99.5 833.48,-106.98 848.65,-109.69 908,-123.5 926.88,-127.89 947.76,-133.9 964.28,-138.92"/>
<polygon fill="#9a32cd" stroke="#9a32cd" points="628.96,-84.31 618.79,-87.31 628.61,-91.3 628.96,-84.31"/>
<text text-anchor="middle" x="706" y="-102.5" font-family="Helvetica,sans-Serif" font-size="10.00"> m_MTime</text>
</g>
<!-- Node16&#45;&gt;Node15 -->
<g id="edge15" class="edge">
<title>Node16&#45;&gt;Node15</title>
<path fill="none" stroke="#9a32cd" stroke-dasharray="5,2" d="M225.03,-81.23C306.93,-82.24 452.57,-84.04 526.2,-84.94"/>
<polygon fill="#9a32cd" stroke="#9a32cd" points="224.92,-77.73 214.88,-81.11 224.83,-84.73 224.92,-77.73"/>
<text text-anchor="middle" x="286" y="-85.5" font-family="Helvetica,sans-Serif" font-size="10.00"> m_GlobalTimeStamp</text>
</g>
<!-- Node17 -->
<g id="node17" class="node">
<title>Node17</title>
<g id="a_node17"><a xlink:href="classitk_1_1OptimizerParameters.html" target="_top" xlink:title=" ">
<polygon fill="white" stroke="black" points="1482,-51.5 1482,-81.5 1621,-81.5 1621,-51.5 1482,-51.5"/>
<text text-anchor="start" x="1490" y="-69.5" font-family="Helvetica,sans-Serif" font-size="10.00">itk::OptimizerParameters</text>
<text text-anchor="middle" x="1551.5" y="-58.5" font-family="Helvetica,sans-Serif" font-size="10.00">&lt; double &gt;</text>
</a>
</g>
</g>
<!-- Node17&#45;&gt;Node2 -->
<g id="edge17" class="edge">
<title>Node17&#45;&gt;Node2</title>
<path fill="none" stroke="#9a32cd" stroke-dasharray="5,2" d="M1631.3,-66.5C1673.79,-66.5 1726.95,-66.5 1773.74,-66.5"/>
<polygon fill="#9a32cd" stroke="#9a32cd" points="1631.3,-63 1621.3,-66.5 1631.3,-70 1631.3,-63"/>
<text text-anchor="middle" x="1719" y="-69.5" font-family="Helvetica,sans-Serif" font-size="10.00"> m_Parameters</text>
</g>
<!-- Node18 -->
<g id="node18" class="node">
<title>Node18</title>
<g id="a_node18"><a xlink:href="classitk_1_1Array.html" target="_top" xlink:title=" ">
<polygon fill="white" stroke="black" points="1161,-90 1161,-109 1278,-109 1278,-90 1161,-90"/>
<text text-anchor="middle" x="1219.5" y="-97" font-family="Helvetica,sans-Serif" font-size="10.00">itk::Array&lt; double &gt;</text>
</a>
</g>
</g>
<!-- Node18&#45;&gt;Node17 -->
<g id="edge18" class="edge">
<title>Node18&#45;&gt;Node17</title>
<path fill="none" stroke="midnightblue" d="M1288.63,-92.69C1345.16,-87.03 1425.17,-79.03 1481.85,-73.37"/>
<polygon fill="midnightblue" stroke="midnightblue" points="1287.96,-89.24 1278.36,-93.71 1288.66,-96.2 1287.96,-89.24"/>
</g>
<!-- Node19 -->
<g id="node19" class="node">
<title>Node19</title>
<g id="a_node19"><a xlink:title=" ">
<polygon fill="white" stroke="#bfbfbf" points="934,-90 934,-109 1057,-109 1057,-90 934,-90"/>
<text text-anchor="middle" x="995.5" y="-97" font-family="Helvetica,sans-Serif" font-size="10.00">vnl_vector&lt; double &gt;</text>
</a>
</g>
</g>
<!-- Node19&#45;&gt;Node18 -->
<g id="edge19" class="edge">
<title>Node19&#45;&gt;Node18</title>
<path fill="none" stroke="midnightblue" d="M1067.23,-99.5C1097.48,-99.5 1132.34,-99.5 1160.97,-99.5"/>
<polygon fill="midnightblue" stroke="midnightblue" points="1067.16,-96 1057.16,-99.5 1067.16,-103 1067.16,-96"/>
</g>
<!-- Node20 -->
<g id="node20" class="node">
<title>Node20</title>
<g id="a_node20"><a xlink:title=" ">
<polygon fill="white" stroke="#bfbfbf" points="1134.5,-40.5 1134.5,-70.5 1304.5,-70.5 1304.5,-40.5 1134.5,-40.5"/>
<text text-anchor="start" x="1142.5" y="-58.5" font-family="Helvetica,sans-Serif" font-size="10.00">std::unique_ptr&lt; itk</text>
<text text-anchor="middle" x="1219.5" y="-47.5" font-family="Helvetica,sans-Serif" font-size="10.00">::OptimizerParametersHelper &gt;</text>
</a>
</g>
</g>
<!-- Node20&#45;&gt;Node17 -->
<g id="edge20" class="edge">
<title>Node20&#45;&gt;Node17</title>
<path fill="none" stroke="#9a32cd" stroke-dasharray="5,2" d="M1314.77,-58.64C1368.03,-60.42 1433.42,-62.6 1481.81,-64.21"/>
<polygon fill="#9a32cd" stroke="#9a32cd" points="1314.74,-55.14 1304.63,-58.3 1314.5,-62.14 1314.74,-55.14"/>
<text text-anchor="middle" x="1380" y="-64.5" font-family="Helvetica,sans-Serif" font-size="10.00"> m_Helper</text>
</g>
<!-- Node21 -->
<g id="node21" class="node">
<title>Node21</title>
<g id="a_node21"><a xlink:href="classitk_1_1OptimizerParametersHelper.html" target="_top" xlink:title="Basic helper class to manage parameter data as an Array type, the default type.">
<polygon fill="white" stroke="black" points="926,-40.5 926,-70.5 1065,-70.5 1065,-40.5 926,-40.5"/>
<text text-anchor="start" x="934" y="-58.5" font-family="Helvetica,sans-Serif" font-size="10.00">itk::OptimizerParameters</text>
<text text-anchor="middle" x="995.5" y="-47.5" font-family="Helvetica,sans-Serif" font-size="10.00">Helper&lt; TValue &gt;</text>
</a>
</g>
</g>
<!-- Node21&#45;&gt;Node20 -->
<g id="edge21" class="edge">
<title>Node21&#45;&gt;Node20</title>
<path fill="none" stroke="#9a32cd" stroke-dasharray="5,2" d="M1075.4,-55.5C1094.55,-55.5 1115.09,-55.5 1134.47,-55.5"/>
<polygon fill="#9a32cd" stroke="#9a32cd" points="1075.22,-52 1065.22,-55.5 1075.22,-59 1075.22,-52"/>
<text text-anchor="middle" x="1091.5" y="-58.5" font-family="Helvetica,sans-Serif" font-size="10.00"> ptr</text>
</g>
<!-- Node22 -->
<g id="node22" class="node">
<title>Node22</title>
<g id="a_node22"><a xlink:href="classitk_1_1Vector.html" target="_top" xlink:title=" ">
<polygon fill="white" stroke="black" points="1812.5,-2.5 1812.5,-32.5 1962.5,-32.5 1962.5,-2.5 1812.5,-2.5"/>
<text text-anchor="start" x="1820.5" y="-20.5" font-family="Helvetica,sans-Serif" font-size="10.00">itk::Vector&lt; CoordRepType,</text>
<text text-anchor="middle" x="1887.5" y="-9.5" font-family="Helvetica,sans-Serif" font-size="10.00"> Self::SpaceDimension &gt;</text>
</a>
</g>
</g>
<!-- Node22&#45;&gt;Node1 -->
<g id="edge22" class="edge">
<title>Node22&#45;&gt;Node1</title>
<path fill="none" stroke="#9a32cd" stroke-dasharray="5,2" d="M1972.83,-23.58C2014.08,-26.55 2064.3,-30.17 2108.79,-33.38"/>
<polygon fill="#9a32cd" stroke="#9a32cd" points="1973.04,-20.08 1962.82,-22.86 1972.54,-27.07 1973.04,-20.08"/>
<text text-anchor="middle" x="2055" y="-35.5" font-family="Helvetica,sans-Serif" font-size="10.00"> m_Translation</text>
</g>
<!-- Node23 -->
<g id="node23" class="node">
<title>Node23</title>
<g id="a_node23"><a xlink:href="classitk_1_1FixedArray.html" target="_top" xlink:title=" ">
<polygon fill="white" stroke="black" points="1478.5,-0.5 1478.5,-30.5 1624.5,-30.5 1624.5,-0.5 1478.5,-0.5"/>
<text text-anchor="start" x="1486.5" y="-18.5" font-family="Helvetica,sans-Serif" font-size="10.00">itk::FixedArray&lt; CoordRep</text>
<text text-anchor="middle" x="1551.5" y="-7.5" font-family="Helvetica,sans-Serif" font-size="10.00">Type, VVectorDimension &gt;</text>
</a>
</g>
</g>
<!-- Node23&#45;&gt;Node22 -->
<g id="edge23" class="edge">
<title>Node23&#45;&gt;Node22</title>
<path fill="none" stroke="midnightblue" d="M1634.85,-15.99C1689.15,-16.32 1759.68,-16.74 1812.26,-17.06"/>
<polygon fill="midnightblue" stroke="midnightblue" points="1634.58,-12.49 1624.56,-15.93 1634.54,-19.49 1634.58,-12.49"/>
</g>
<!-- Node24 -->
<g id="node24" class="node">
<title>Node24</title>
<g id="a_node24"><a xlink:title=" ">
<polygon fill="white" stroke="#bfbfbf" points="1191.5,-2 1191.5,-21 1247.5,-21 1247.5,-2 1191.5,-2"/>
<text text-anchor="middle" x="1219.5" y="-9" font-family="Helvetica,sans-Serif" font-size="10.00">VLength</text>
</a>
</g>
</g>
<!-- Node24&#45;&gt;Node23 -->
<g id="edge24" class="edge">
<title>Node24&#45;&gt;Node23</title>
<path fill="none" stroke="#9a32cd" stroke-dasharray="5,2" d="M1257.53,-11.95C1310.86,-12.6 1410.34,-13.8 1478.45,-14.63"/>
<polygon fill="#9a32cd" stroke="#9a32cd" points="1257.55,-8.45 1247.51,-11.83 1257.46,-15.45 1257.55,-8.45"/>
<text text-anchor="middle" x="1380" y="-17.5" font-family="Helvetica,sans-Serif" font-size="10.00"> m_InternalArray</text>
</g>
</g>
</svg>
