<?xml version="1.0" encoding="UTF-8" standalone="no"?>
<!DOCTYPE svg PUBLIC "-//W3C//DTD SVG 1.1//EN"
 "http://www.w3.org/Graphics/SVG/1.1/DTD/svg11.dtd">
<!-- Generated by graphviz version 2.43.0 (0)
 -->
<!-- Title: itk::ResourceProbesCollectorBase&lt; TProbe &gt; Pages: 1 -->
<svg width="165pt" height="241pt"
 viewBox="0.00 0.00 165.00 241.00" xmlns="http://www.w3.org/2000/svg" xmlns:xlink="http://www.w3.org/1999/xlink">
<g id="graph0" class="graph" transform="scale(1 1) rotate(0) translate(4 237)">
<title>itk::ResourceProbesCollectorBase&lt; TProbe &gt;</title>
<polygon fill="white" stroke="transparent" points="-4,4 -4,-237 161,-237 161,4 -4,4"/>
<!-- Node1 -->
<g id="node1" class="node">
<title>Node1</title>
<g id="a_node1"><a xlink:title="Aggregates a set of probes.">
<polygon fill="#bfbfbf" stroke="black" points="0,-0.5 0,-30.5 157,-30.5 157,-0.5 0,-0.5"/>
<text text-anchor="start" x="8" y="-18.5" font-family="Helvetica,sans-Serif" font-size="10.00">itk::ResourceProbesCollector</text>
<text text-anchor="middle" x="78.5" y="-7.5" font-family="Helvetica,sans-Serif" font-size="10.00">Base&lt; TProbe &gt;</text>
</a>
</g>
</g>
<!-- Node2 -->
<g id="node2" class="node">
<title>Node2</title>
<g id="a_node2"><a xlink:title=" ">
<polygon fill="white" stroke="#bfbfbf" points="2,-78.5 2,-97.5 155,-97.5 155,-78.5 2,-78.5"/>
<text text-anchor="middle" x="78.5" y="-85.5" font-family="Helvetica,sans-Serif" font-size="10.00">std::map&lt; IdType, TProbe &gt;</text>
</a>
</g>
</g>
<!-- Node2&#45;&gt;Node1 -->
<g id="edge1" class="edge">
<title>Node2&#45;&gt;Node1</title>
<path fill="none" stroke="#9a32cd" stroke-dasharray="5,2" d="M78.5,-68.24C78.5,-56.41 78.5,-41.38 78.5,-30.58"/>
<polygon fill="#9a32cd" stroke="#9a32cd" points="75,-68.36 78.5,-78.36 82,-68.36 75,-68.36"/>
<text text-anchor="middle" x="104.5" y="-52" font-family="Helvetica,sans-Serif" font-size="10.00"> m_Probes</text>
</g>
<!-- Node3 -->
<g id="node3" class="node">
<title>Node3</title>
<g id="a_node3"><a xlink:title="STL class.">
<polygon fill="white" stroke="#bfbfbf" points="46,-145.5 46,-164.5 111,-164.5 111,-145.5 46,-145.5"/>
<text text-anchor="middle" x="78.5" y="-152.5" font-family="Helvetica,sans-Serif" font-size="10.00">std::string</text>
</a>
</g>
</g>
<!-- Node3&#45;&gt;Node2 -->
<g id="edge2" class="edge">
<title>Node3&#45;&gt;Node2</title>
<path fill="none" stroke="#9a32cd" stroke-dasharray="5,2" d="M78.5,-135.04C78.5,-122.67 78.5,-107.12 78.5,-97.63"/>
<polygon fill="#9a32cd" stroke="#9a32cd" points="75,-135.23 78.5,-145.23 82,-135.23 75,-135.23"/>
<text text-anchor="middle" x="91.5" y="-119" font-family="Helvetica,sans-Serif" font-size="10.00"> keys</text>
</g>
<!-- Node4 -->
<g id="node4" class="node">
<title>Node4</title>
<g id="a_node4"><a xlink:title="STL class.">
<polygon fill="white" stroke="#bfbfbf" points="26.5,-202.5 26.5,-232.5 130.5,-232.5 130.5,-202.5 26.5,-202.5"/>
<text text-anchor="start" x="34.5" y="-220.5" font-family="Helvetica,sans-Serif" font-size="10.00">std::basic_string&lt;</text>
<text text-anchor="middle" x="78.5" y="-209.5" font-family="Helvetica,sans-Serif" font-size="10.00"> char &gt;</text>
</a>
</g>
</g>
<!-- Node4&#45;&gt;Node3 -->
<g id="edge3" class="edge">
<title>Node4&#45;&gt;Node3</title>
<path fill="none" stroke="midnightblue" d="M78.5,-192.35C78.5,-182.51 78.5,-171.78 78.5,-164.54"/>
<polygon fill="midnightblue" stroke="midnightblue" points="75,-192.47 78.5,-202.47 82,-192.47 75,-192.47"/>
</g>
</g>
</svg>
