<?xml version="1.0" encoding="UTF-8" standalone="no"?>
<!DOCTYPE svg PUBLIC "-//W3C//DTD SVG 1.1//EN"
 "http://www.w3.org/Graphics/SVG/1.1/DTD/svg11.dtd">
<!-- Generated by graphviz version 2.43.0 (0)
 -->
<!-- Title: itk::CannySegmentationLevelSetFunction&lt; TImageType, TFeatureImageType &gt; Pages: 1 -->
<svg width="213pt" height="307pt"
 viewBox="0.00 0.00 213.00 307.00" xmlns="http://www.w3.org/2000/svg" xmlns:xlink="http://www.w3.org/1999/xlink">
<g id="graph0" class="graph" transform="scale(1 1) rotate(0) translate(4 303)">
<title>itk::CannySegmentationLevelSetFunction&lt; TImageType, TFeatureImageType &gt;</title>
<polygon fill="white" stroke="transparent" points="-4,4 -4,-303 209,-303 209,4 -4,4"/>
<!-- Node1 -->
<g id="node1" class="node">
<title>Node1</title>
<g id="a_node1"><a xlink:title="A refinement of the standard level&#45;set function which computes a speed term and advection term based ...">
<polygon fill="#bfbfbf" stroke="black" points="22,-0.5 22,-41.5 183,-41.5 183,-0.5 22,-0.5"/>
<text text-anchor="start" x="30" y="-29.5" font-family="Helvetica,sans-Serif" font-size="10.00">itk::CannySegmentationLevel</text>
<text text-anchor="start" x="30" y="-18.5" font-family="Helvetica,sans-Serif" font-size="10.00">SetFunction&lt; TImageType,</text>
<text text-anchor="middle" x="102.5" y="-7.5" font-family="Helvetica,sans-Serif" font-size="10.00"> TFeatureImageType &gt;</text>
</a>
</g>
</g>
<!-- Node2 -->
<g id="node2" class="node">
<title>Node2</title>
<g id="a_node2"><a xlink:href="classitk_1_1SegmentationLevelSetFunction.html" target="_top" xlink:title=" ">
<polygon fill="white" stroke="black" points="0,-78.5 0,-108.5 205,-108.5 205,-78.5 0,-78.5"/>
<text text-anchor="start" x="8" y="-96.5" font-family="Helvetica,sans-Serif" font-size="10.00">itk::SegmentationLevelSet</text>
<text text-anchor="middle" x="102.5" y="-85.5" font-family="Helvetica,sans-Serif" font-size="10.00">Function&lt; TImageType, TImageType &gt;</text>
</a>
</g>
</g>
<!-- Node2&#45;&gt;Node1 -->
<g id="edge1" class="edge">
<title>Node2&#45;&gt;Node1</title>
<path fill="none" stroke="midnightblue" d="M102.5,-67.98C102.5,-59.35 102.5,-49.76 102.5,-41.59"/>
<polygon fill="midnightblue" stroke="midnightblue" points="99,-68.23 102.5,-78.23 106,-68.23 99,-68.23"/>
</g>
<!-- Node3 -->
<g id="node3" class="node">
<title>Node3</title>
<g id="a_node3"><a xlink:href="classitk_1_1LevelSetFunction.html" target="_top" xlink:title="The LevelSetFunction class is a generic function object which can be used to create a level set metho...">
<polygon fill="white" stroke="black" points="43,-145.5 43,-175.5 162,-175.5 162,-145.5 43,-145.5"/>
<text text-anchor="start" x="51" y="-163.5" font-family="Helvetica,sans-Serif" font-size="10.00">itk::LevelSetFunction</text>
<text text-anchor="middle" x="102.5" y="-152.5" font-family="Helvetica,sans-Serif" font-size="10.00">&lt; TImageType &gt;</text>
</a>
</g>
</g>
<!-- Node3&#45;&gt;Node2 -->
<g id="edge2" class="edge">
<title>Node3&#45;&gt;Node2</title>
<path fill="none" stroke="midnightblue" d="M102.5,-135.11C102.5,-126.15 102.5,-116.32 102.5,-108.58"/>
<polygon fill="midnightblue" stroke="midnightblue" points="99,-135.4 102.5,-145.4 106,-135.4 99,-135.4"/>
</g>
<!-- Node4 -->
<g id="node4" class="node">
<title>Node4</title>
<g id="a_node4"><a xlink:href="classitk_1_1FiniteDifferenceFunction.html" target="_top" xlink:title=" ">
<polygon fill="white" stroke="black" points="25.5,-212.5 25.5,-242.5 179.5,-242.5 179.5,-212.5 25.5,-212.5"/>
<text text-anchor="start" x="33.5" y="-230.5" font-family="Helvetica,sans-Serif" font-size="10.00">itk::FiniteDifferenceFunction</text>
<text text-anchor="middle" x="102.5" y="-219.5" font-family="Helvetica,sans-Serif" font-size="10.00">&lt; TImageType &gt;</text>
</a>
</g>
</g>
<!-- Node4&#45;&gt;Node3 -->
<g id="edge3" class="edge">
<title>Node4&#45;&gt;Node3</title>
<path fill="none" stroke="midnightblue" d="M102.5,-202.11C102.5,-193.15 102.5,-183.32 102.5,-175.58"/>
<polygon fill="midnightblue" stroke="midnightblue" points="99,-202.4 102.5,-212.4 106,-202.4 99,-202.4"/>
</g>
<!-- Node5 -->
<g id="node5" class="node">
<title>Node5</title>
<g id="a_node5"><a xlink:href="classitk_1_1LightObject.html" target="_top" xlink:title="Light weight base class for most itk classes.">
<polygon fill="white" stroke="black" points="57,-279.5 57,-298.5 148,-298.5 148,-279.5 57,-279.5"/>
<text text-anchor="middle" x="102.5" y="-286.5" font-family="Helvetica,sans-Serif" font-size="10.00">itk::LightObject</text>
</a>
</g>
</g>
<!-- Node5&#45;&gt;Node4 -->
<g id="edge4" class="edge">
<title>Node5&#45;&gt;Node4</title>
<path fill="none" stroke="midnightblue" d="M102.5,-269.23C102.5,-260.59 102.5,-250.5 102.5,-242.52"/>
<polygon fill="midnightblue" stroke="midnightblue" points="99,-269.48 102.5,-279.48 106,-269.48 99,-269.48"/>
</g>
</g>
</svg>
