<?xml version="1.0" encoding="UTF-8" standalone="no"?>
<!DOCTYPE svg PUBLIC "-//W3C//DTD SVG 1.1//EN"
 "http://www.w3.org/Graphics/SVG/1.1/DTD/svg11.dtd">
<!-- Generated by graphviz version 2.43.0 (0)
 -->
<!-- Title: itk::TransformFileReaderTemplate&lt; TParametersValueType &gt; Pages: 1 -->
<svg width="203pt" height="207pt"
 viewBox="0.00 0.00 203.00 207.00" xmlns="http://www.w3.org/2000/svg" xmlns:xlink="http://www.w3.org/1999/xlink">
<g id="graph0" class="graph" transform="scale(1 1) rotate(0) translate(4 203)">
<title>itk::TransformFileReaderTemplate&lt; TParametersValueType &gt;</title>
<polygon fill="white" stroke="transparent" points="-4,4 -4,-203 199,-203 199,4 -4,4"/>
<!-- Node1 -->
<g id="node1" class="node">
<title>Node1</title>
<g id="a_node1"><a xlink:title="TODO.">
<polygon fill="#bfbfbf" stroke="black" points="0,-0.5 0,-30.5 195,-30.5 195,-0.5 0,-0.5"/>
<text text-anchor="start" x="8" y="-18.5" font-family="Helvetica,sans-Serif" font-size="10.00">itk::TransformFileReader</text>
<text text-anchor="middle" x="97.5" y="-7.5" font-family="Helvetica,sans-Serif" font-size="10.00">Template&lt; TParametersValueType &gt;</text>
</a>
</g>
</g>
<!-- Node2 -->
<g id="node2" class="node">
<title>Node2</title>
<g id="a_node2"><a xlink:href="classitk_1_1LightProcessObject.html" target="_top" xlink:title="LightProcessObject is the base class for all process objects (source, filters, mappers) in the Insigh...">
<polygon fill="white" stroke="black" points="33.5,-67.5 33.5,-86.5 161.5,-86.5 161.5,-67.5 33.5,-67.5"/>
<text text-anchor="middle" x="97.5" y="-74.5" font-family="Helvetica,sans-Serif" font-size="10.00">itk::LightProcessObject</text>
</a>
</g>
</g>
<!-- Node2&#45;&gt;Node1 -->
<g id="edge1" class="edge">
<title>Node2&#45;&gt;Node1</title>
<path fill="none" stroke="midnightblue" d="M97.5,-57.23C97.5,-48.59 97.5,-38.5 97.5,-30.52"/>
<polygon fill="midnightblue" stroke="midnightblue" points="94,-57.48 97.5,-67.48 101,-57.48 94,-57.48"/>
</g>
<!-- Node3 -->
<g id="node3" class="node">
<title>Node3</title>
<g id="a_node3"><a xlink:href="classitk_1_1Object.html" target="_top" xlink:title="Base class for most ITK classes.">
<polygon fill="white" stroke="black" points="64,-123.5 64,-142.5 131,-142.5 131,-123.5 64,-123.5"/>
<text text-anchor="middle" x="97.5" y="-130.5" font-family="Helvetica,sans-Serif" font-size="10.00">itk::Object</text>
</a>
</g>
</g>
<!-- Node3&#45;&gt;Node2 -->
<g id="edge2" class="edge">
<title>Node3&#45;&gt;Node2</title>
<path fill="none" stroke="midnightblue" d="M97.5,-112.8C97.5,-103.91 97.5,-93.78 97.5,-86.75"/>
<polygon fill="midnightblue" stroke="midnightblue" points="94,-113.08 97.5,-123.08 101,-113.08 94,-113.08"/>
</g>
<!-- Node4 -->
<g id="node4" class="node">
<title>Node4</title>
<g id="a_node4"><a xlink:href="classitk_1_1LightObject.html" target="_top" xlink:title="Light weight base class for most itk classes.">
<polygon fill="white" stroke="black" points="52,-179.5 52,-198.5 143,-198.5 143,-179.5 52,-179.5"/>
<text text-anchor="middle" x="97.5" y="-186.5" font-family="Helvetica,sans-Serif" font-size="10.00">itk::LightObject</text>
</a>
</g>
</g>
<!-- Node4&#45;&gt;Node3 -->
<g id="edge3" class="edge">
<title>Node4&#45;&gt;Node3</title>
<path fill="none" stroke="midnightblue" d="M97.5,-168.8C97.5,-159.91 97.5,-149.78 97.5,-142.75"/>
<polygon fill="midnightblue" stroke="midnightblue" points="94,-169.08 97.5,-179.08 101,-169.08 94,-169.08"/>
</g>
</g>
</svg>
