<?xml version="1.0" encoding="UTF-8" standalone="no"?>
<!DOCTYPE svg PUBLIC "-//W3C//DTD SVG 1.1//EN"
 "http://www.w3.org/Graphics/SVG/1.1/DTD/svg11.dtd">
<!-- Generated by graphviz version 2.43.0 (0)
 -->
<!-- Title: itk::DiffusionTensor3D&lt; TComponent &gt; Pages: 1 -->
<svg width="196pt" height="173pt"
 viewBox="0.00 0.00 196.00 173.00" xmlns="http://www.w3.org/2000/svg" xmlns:xlink="http://www.w3.org/1999/xlink">
<g id="graph0" class="graph" transform="scale(1 1) rotate(0) translate(4 169)">
<title>itk::DiffusionTensor3D&lt; TComponent &gt;</title>
<polygon fill="white" stroke="transparent" points="-4,4 -4,-169 192,-169 192,4 -4,4"/>
<!-- Node1 -->
<g id="node1" class="node">
<title>Node1</title>
<g id="a_node1"><a xlink:title="Represent a diffusion tensor as used in DTI images.">
<polygon fill="#bfbfbf" stroke="black" points="32,-0.5 32,-30.5 156,-30.5 156,-0.5 32,-0.5"/>
<text text-anchor="start" x="40" y="-18.5" font-family="Helvetica,sans-Serif" font-size="10.00">itk::DiffusionTensor3D</text>
<text text-anchor="middle" x="94" y="-7.5" font-family="Helvetica,sans-Serif" font-size="10.00">&lt; TComponent &gt;</text>
</a>
</g>
</g>
<!-- Node2 -->
<g id="node2" class="node">
<title>Node2</title>
<g id="a_node2"><a xlink:href="classitk_1_1SymmetricSecondRankTensor.html" target="_top" xlink:title=" ">
<polygon fill="white" stroke="black" points="19.5,-67.5 19.5,-97.5 168.5,-97.5 168.5,-67.5 19.5,-67.5"/>
<text text-anchor="start" x="27.5" y="-85.5" font-family="Helvetica,sans-Serif" font-size="10.00">itk::SymmetricSecondRank</text>
<text text-anchor="middle" x="94" y="-74.5" font-family="Helvetica,sans-Serif" font-size="10.00">Tensor&lt; TComponent, 3 &gt;</text>
</a>
</g>
</g>
<!-- Node2&#45;&gt;Node1 -->
<g id="edge1" class="edge">
<title>Node2&#45;&gt;Node1</title>
<path fill="none" stroke="midnightblue" d="M94,-57.11C94,-48.15 94,-38.32 94,-30.58"/>
<polygon fill="midnightblue" stroke="midnightblue" points="90.5,-57.4 94,-67.4 97.5,-57.4 90.5,-57.4"/>
</g>
<!-- Node3 -->
<g id="node3" class="node">
<title>Node3</title>
<g id="a_node3"><a xlink:href="classitk_1_1FixedArray.html" target="_top" xlink:title=" ">
<polygon fill="white" stroke="black" points="0,-134.5 0,-164.5 188,-164.5 188,-134.5 0,-134.5"/>
<text text-anchor="start" x="8" y="-152.5" font-family="Helvetica,sans-Serif" font-size="10.00">itk::FixedArray&lt; TComponent,</text>
<text text-anchor="middle" x="94" y="-141.5" font-family="Helvetica,sans-Serif" font-size="10.00"> VDimension *(VDimension+1)/2 &gt;</text>
</a>
</g>
</g>
<!-- Node3&#45;&gt;Node2 -->
<g id="edge2" class="edge">
<title>Node3&#45;&gt;Node2</title>
<path fill="none" stroke="midnightblue" d="M94,-124.11C94,-115.15 94,-105.32 94,-97.58"/>
<polygon fill="midnightblue" stroke="midnightblue" points="90.5,-124.4 94,-134.4 97.5,-124.4 90.5,-124.4"/>
</g>
</g>
</svg>
