<?xml version="1.0" encoding="UTF-8" standalone="no"?>
<!DOCTYPE svg PUBLIC "-//W3C//DTD SVG 1.1//EN"
 "http://www.w3.org/Graphics/SVG/1.1/DTD/svg11.dtd">
<!-- Generated by graphviz version 2.43.0 (0)
 -->
<!-- Title: itk::SquaredEdgeLengthDecimationQuadEdgeMeshFilter&lt; TInput, TOutput, TCriterion &gt; Pages: 1 -->
<svg width="2774pt" height="450pt"
 viewBox="0.00 0.00 2774.00 450.43" xmlns="http://www.w3.org/2000/svg" xmlns:xlink="http://www.w3.org/1999/xlink">
<g id="graph0" class="graph" transform="scale(1 1) rotate(0) translate(4 446.43)">
<title>itk::SquaredEdgeLengthDecimationQuadEdgeMeshFilter&lt; TInput, TOutput, TCriterion &gt;</title>
<polygon fill="white" stroke="transparent" points="-4,4 -4,-446.43 2770,-446.43 2770,4 -4,4"/>
<!-- Node1 -->
<g id="node1" class="node">
<title>Node1</title>
<g id="a_node1"><a xlink:title=" ">
<polygon fill="#bfbfbf" stroke="black" points="2578,-279.93 2578,-320.93 2766,-320.93 2766,-279.93 2578,-279.93"/>
<text text-anchor="start" x="2586" y="-308.93" font-family="Helvetica,sans-Serif" font-size="10.00">itk::SquaredEdgeLengthDecimation</text>
<text text-anchor="start" x="2586" y="-297.93" font-family="Helvetica,sans-Serif" font-size="10.00">QuadEdgeMeshFilter&lt; TInput,</text>
<text text-anchor="middle" x="2672" y="-286.93" font-family="Helvetica,sans-Serif" font-size="10.00"> TOutput, TCriterion &gt;</text>
</a>
</g>
</g>
<!-- Node2 -->
<g id="node2" class="node">
<title>Node2</title>
<g id="a_node2"><a xlink:href="classitk_1_1EdgeDecimationQuadEdgeMeshFilter.html" target="_top" xlink:title=" ">
<polygon fill="white" stroke="black" points="2376,-279.93 2376,-320.93 2541,-320.93 2541,-279.93 2376,-279.93"/>
<text text-anchor="start" x="2384" y="-308.93" font-family="Helvetica,sans-Serif" font-size="10.00">itk::EdgeDecimationQuadEdge</text>
<text text-anchor="start" x="2384" y="-297.93" font-family="Helvetica,sans-Serif" font-size="10.00">MeshFilter&lt; TInput, TOutput,</text>
<text text-anchor="middle" x="2458.5" y="-286.93" font-family="Helvetica,sans-Serif" font-size="10.00"> TCriterion &gt;</text>
</a>
</g>
</g>
<!-- Node2&#45;&gt;Node1 -->
<g id="edge1" class="edge">
<title>Node2&#45;&gt;Node1</title>
<path fill="none" stroke="midnightblue" d="M2551.46,-300.43C2560.2,-300.43 2569.08,-300.43 2577.83,-300.43"/>
<polygon fill="midnightblue" stroke="midnightblue" points="2551.27,-296.93 2541.27,-300.43 2551.27,-303.93 2551.27,-296.93"/>
</g>
<!-- Node3 -->
<g id="node3" class="node">
<title>Node3</title>
<g id="a_node3"><a xlink:href="classitk_1_1DecimationQuadEdgeMeshFilter.html" target="_top" xlink:title=" ">
<polygon fill="white" stroke="black" points="2086,-279.93 2086,-320.93 2253,-320.93 2253,-279.93 2086,-279.93"/>
<text text-anchor="start" x="2094" y="-308.93" font-family="Helvetica,sans-Serif" font-size="10.00">itk::DecimationQuadEdgeMesh</text>
<text text-anchor="start" x="2094" y="-297.93" font-family="Helvetica,sans-Serif" font-size="10.00">Filter&lt; TInput, TOutput,</text>
<text text-anchor="middle" x="2169.5" y="-286.93" font-family="Helvetica,sans-Serif" font-size="10.00"> TCriterion &gt;</text>
</a>
</g>
</g>
<!-- Node3&#45;&gt;Node2 -->
<g id="edge2" class="edge">
<title>Node3&#45;&gt;Node2</title>
<path fill="none" stroke="midnightblue" d="M2263.23,-300.43C2299.53,-300.43 2340.81,-300.43 2375.95,-300.43"/>
<polygon fill="midnightblue" stroke="midnightblue" points="2263.13,-296.93 2253.13,-300.43 2263.13,-303.93 2263.13,-296.93"/>
</g>
<!-- Node4 -->
<g id="node4" class="node">
<title>Node4</title>
<g id="a_node4"><a xlink:href="classitk_1_1QuadEdgeMeshToQuadEdgeMeshFilter.html" target="_top" xlink:title=" ">
<polygon fill="white" stroke="black" points="1878,-283.43 1878,-313.43 2049,-313.43 2049,-283.43 1878,-283.43"/>
<text text-anchor="start" x="1886" y="-301.43" font-family="Helvetica,sans-Serif" font-size="10.00">itk::QuadEdgeMeshToQuadEdge</text>
<text text-anchor="middle" x="1963.5" y="-290.43" font-family="Helvetica,sans-Serif" font-size="10.00">MeshFilter&lt; TInput, TOutput &gt;</text>
</a>
</g>
</g>
<!-- Node4&#45;&gt;Node3 -->
<g id="edge3" class="edge">
<title>Node4&#45;&gt;Node3</title>
<path fill="none" stroke="midnightblue" d="M2059.27,-299.36C2068.19,-299.45 2077.19,-299.54 2085.99,-299.62"/>
<polygon fill="midnightblue" stroke="midnightblue" points="2059.28,-295.86 2049.24,-299.26 2059.21,-302.86 2059.28,-295.86"/>
</g>
<!-- Node5 -->
<g id="node5" class="node">
<title>Node5</title>
<g id="a_node5"><a xlink:href="classitk_1_1MeshToMeshFilter.html" target="_top" xlink:title=" ">
<polygon fill="white" stroke="black" points="1718,-280.43 1718,-310.43 1841,-310.43 1841,-280.43 1718,-280.43"/>
<text text-anchor="start" x="1726" y="-298.43" font-family="Helvetica,sans-Serif" font-size="10.00">itk::MeshToMeshFilter</text>
<text text-anchor="middle" x="1779.5" y="-287.43" font-family="Helvetica,sans-Serif" font-size="10.00">&lt; TInput, TOutput &gt;</text>
</a>
</g>
</g>
<!-- Node5&#45;&gt;Node4 -->
<g id="edge4" class="edge">
<title>Node5&#45;&gt;Node4</title>
<path fill="none" stroke="midnightblue" d="M1851.21,-296.6C1859.94,-296.74 1868.94,-296.89 1877.85,-297.04"/>
<polygon fill="midnightblue" stroke="midnightblue" points="1851.16,-293.1 1841.1,-296.43 1851.04,-300.1 1851.16,-293.1"/>
</g>
<!-- Node6 -->
<g id="node6" class="node">
<title>Node6</title>
<g id="a_node6"><a xlink:href="classitk_1_1MeshSource.html" target="_top" xlink:title=" ">
<polygon fill="white" stroke="black" points="1417,-272.93 1417,-291.93 1573,-291.93 1573,-272.93 1417,-272.93"/>
<text text-anchor="middle" x="1495" y="-279.93" font-family="Helvetica,sans-Serif" font-size="10.00">itk::MeshSource&lt; TOutput &gt;</text>
</a>
</g>
</g>
<!-- Node6&#45;&gt;Node5 -->
<g id="edge5" class="edge">
<title>Node6&#45;&gt;Node5</title>
<path fill="none" stroke="midnightblue" d="M1583.24,-286.45C1626.92,-288.46 1678.7,-290.84 1717.96,-292.65"/>
<polygon fill="midnightblue" stroke="midnightblue" points="1583.34,-282.95 1573.19,-285.98 1583.02,-289.94 1583.34,-282.95"/>
</g>
<!-- Node7 -->
<g id="node7" class="node">
<title>Node7</title>
<g id="a_node7"><a xlink:href="classitk_1_1ProcessObject.html" target="_top" xlink:title="The base class for all process objects (source, filters, mappers) in the Insight data processing pipe...">
<polygon fill="white" stroke="black" points="1276,-219.93 1276,-238.93 1380,-238.93 1380,-219.93 1276,-219.93"/>
<text text-anchor="middle" x="1328" y="-226.93" font-family="Helvetica,sans-Serif" font-size="10.00">itk::ProcessObject</text>
</a>
</g>
</g>
<!-- Node7&#45;&gt;Node6 -->
<g id="edge6" class="edge">
<title>Node7&#45;&gt;Node6</title>
<path fill="none" stroke="midnightblue" d="M1368.45,-242.1C1397.91,-251.57 1437.55,-264.3 1464.34,-272.91"/>
<polygon fill="midnightblue" stroke="midnightblue" points="1369.47,-238.76 1358.88,-239.03 1367.33,-245.42 1369.47,-238.76"/>
</g>
<!-- Node8 -->
<g id="node8" class="node">
<title>Node8</title>
<g id="a_node8"><a xlink:href="classitk_1_1Object.html" target="_top" xlink:title="Base class for most ITK classes.">
<polygon fill="white" stroke="black" points="980,-126.93 980,-145.93 1047,-145.93 1047,-126.93 980,-126.93"/>
<text text-anchor="middle" x="1013.5" y="-133.93" font-family="Helvetica,sans-Serif" font-size="10.00">itk::Object</text>
</a>
</g>
</g>
<!-- Node8&#45;&gt;Node7 -->
<g id="edge7" class="edge">
<title>Node8&#45;&gt;Node7</title>
<path fill="none" stroke="midnightblue" d="M1057.41,-138.53C1107.35,-142.24 1191.46,-152.44 1258,-180.43 1281.02,-190.12 1303.9,-208.55 1316.67,-219.84"/>
<polygon fill="midnightblue" stroke="midnightblue" points="1057.51,-135.03 1047.29,-137.84 1057.03,-142.02 1057.51,-135.03"/>
</g>
<!-- Node9 -->
<g id="node9" class="node">
<title>Node9</title>
<g id="a_node9"><a xlink:href="classitk_1_1LightObject.html" target="_top" xlink:title="Light weight base class for most itk classes.">
<polygon fill="white" stroke="black" points="659,-106.93 659,-125.93 750,-125.93 750,-106.93 659,-106.93"/>
<text text-anchor="middle" x="704.5" y="-113.93" font-family="Helvetica,sans-Serif" font-size="10.00">itk::LightObject</text>
</a>
</g>
</g>
<!-- Node9&#45;&gt;Node8 -->
<g id="edge8" class="edge">
<title>Node9&#45;&gt;Node8</title>
<path fill="none" stroke="midnightblue" d="M760.4,-120.01C824.13,-124.16 927.17,-130.87 979.59,-134.29"/>
<polygon fill="midnightblue" stroke="midnightblue" points="760.35,-116.5 750.14,-119.34 759.89,-123.48 760.35,-116.5"/>
</g>
<!-- Node10 -->
<g id="node10" class="node">
<title>Node10</title>
<g id="a_node10"><a xlink:title=" ">
<polygon fill="white" stroke="#bfbfbf" points="372,-105.93 372,-124.93 479,-124.93 479,-105.93 372,-105.93"/>
<text text-anchor="middle" x="425.5" y="-112.93" font-family="Helvetica,sans-Serif" font-size="10.00">std::atomic&lt; int &gt;</text>
</a>
</g>
</g>
<!-- Node10&#45;&gt;Node9 -->
<g id="edge9" class="edge">
<title>Node10&#45;&gt;Node9</title>
<path fill="none" stroke="#9a32cd" stroke-dasharray="5,2" d="M489.29,-115.66C540.91,-115.85 612.77,-116.1 658.72,-116.27"/>
<polygon fill="#9a32cd" stroke="#9a32cd" points="489.27,-112.16 479.25,-115.62 489.24,-119.16 489.27,-112.16"/>
<text text-anchor="middle" x="566.5" y="-119.43" font-family="Helvetica,sans-Serif" font-size="10.00"> m_ReferenceCount</text>
</g>
<!-- Node11 -->
<g id="node11" class="node">
<title>Node11</title>
<g id="a_node11"><a xlink:title="STL class.">
<polygon fill="white" stroke="#bfbfbf" points="672,-228.93 672,-247.93 737,-247.93 737,-228.93 672,-228.93"/>
<text text-anchor="middle" x="704.5" y="-235.93" font-family="Helvetica,sans-Serif" font-size="10.00">std::string</text>
</a>
</g>
</g>
<!-- Node11&#45;&gt;Node8 -->
<g id="edge10" class="edge">
<title>Node11&#45;&gt;Node8</title>
<path fill="none" stroke="#9a32cd" stroke-dasharray="5,2" d="M726.8,-223C744.08,-211.21 769.52,-195.49 794,-186.43 843.55,-168.1 861.23,-183.17 911,-165.43 919.62,-162.36 920.45,-158.7 929,-155.43 945.25,-149.22 964.08,-144.71 979.75,-141.66"/>
<polygon fill="#9a32cd" stroke="#9a32cd" points="724.75,-220.16 718.55,-228.75 728.75,-225.9 724.75,-220.16"/>
<text text-anchor="middle" x="852.5" y="-189.43" font-family="Helvetica,sans-Serif" font-size="10.00"> m_ObjectName</text>
</g>
<!-- Node20 -->
<g id="node20" class="node">
<title>Node20</title>
<g id="a_node20"><a xlink:title=" ">
<polygon fill="white" stroke="#bfbfbf" points="932.5,-214.43 932.5,-244.43 1094.5,-244.43 1094.5,-214.43 932.5,-214.43"/>
<text text-anchor="start" x="940.5" y="-232.43" font-family="Helvetica,sans-Serif" font-size="10.00">std::set&lt; DataObjectIdentifier</text>
<text text-anchor="middle" x="1013.5" y="-221.43" font-family="Helvetica,sans-Serif" font-size="10.00">Type &gt;</text>
</a>
</g>
</g>
<!-- Node11&#45;&gt;Node20 -->
<g id="edge21" class="edge">
<title>Node11&#45;&gt;Node20</title>
<path fill="none" stroke="#9a32cd" stroke-dasharray="5,2" d="M747.21,-237.6C788.73,-236.73 854.28,-235.24 911,-233.43 917.96,-233.21 925.19,-232.96 932.44,-232.7"/>
<polygon fill="#9a32cd" stroke="#9a32cd" points="747.11,-234.1 737.19,-237.81 747.26,-241.1 747.11,-234.1"/>
<text text-anchor="middle" x="852.5" y="-240.43" font-family="Helvetica,sans-Serif" font-size="10.00"> keys</text>
</g>
<!-- Node21 -->
<g id="node21" class="node">
<title>Node21</title>
<g id="a_node21"><a xlink:title=" ">
<polygon fill="white" stroke="#bfbfbf" points="929,-165.43 929,-195.43 1098,-195.43 1098,-165.43 929,-165.43"/>
<text text-anchor="start" x="937" y="-183.43" font-family="Helvetica,sans-Serif" font-size="10.00">std::map&lt; DataObjectIdentifier</text>
<text text-anchor="middle" x="1013.5" y="-172.43" font-family="Helvetica,sans-Serif" font-size="10.00">Type, bool &gt;</text>
</a>
</g>
</g>
<!-- Node11&#45;&gt;Node21 -->
<g id="edge23" class="edge">
<title>Node11&#45;&gt;Node21</title>
<path fill="none" stroke="#9a32cd" stroke-dasharray="5,2" d="M746.91,-229.8C761.75,-226.77 778.61,-223.38 794,-220.43 845.89,-210.5 859.04,-208.96 911,-199.43 917.97,-198.16 925.2,-196.82 932.45,-195.48"/>
<polygon fill="#9a32cd" stroke="#9a32cd" points="746.09,-226.4 737,-231.84 747.5,-233.26 746.09,-226.4"/>
<text text-anchor="middle" x="852.5" y="-223.43" font-family="Helvetica,sans-Serif" font-size="10.00"> keys</text>
</g>
<!-- Node26 -->
<g id="node26" class="node">
<title>Node26</title>
<g id="a_node26"><a xlink:title=" ">
<polygon fill="white" stroke="#bfbfbf" points="929,-361.43 929,-391.43 1098,-391.43 1098,-361.43 929,-361.43"/>
<text text-anchor="start" x="937" y="-379.43" font-family="Helvetica,sans-Serif" font-size="10.00">std::map&lt; DataObjectIdentifier</text>
<text text-anchor="middle" x="1013.5" y="-368.43" font-family="Helvetica,sans-Serif" font-size="10.00">Type, DataObjectPointer &gt;</text>
</a>
</g>
</g>
<!-- Node11&#45;&gt;Node26 -->
<g id="edge30" class="edge">
<title>Node11&#45;&gt;Node26</title>
<path fill="none" stroke="#9a32cd" stroke-dasharray="5,2" d="M747.45,-246.3C804.05,-257.27 899.19,-277.08 911,-288.43 932,-308.61 908.54,-330.71 929,-351.43 932.83,-355.31 937.23,-358.59 941.97,-361.36"/>
<polygon fill="#9a32cd" stroke="#9a32cd" points="747.84,-242.81 737.36,-244.36 746.52,-249.69 747.84,-242.81"/>
<text text-anchor="middle" x="852.5" y="-291.43" font-family="Helvetica,sans-Serif" font-size="10.00"> keys</text>
</g>
<!-- Node12 -->
<g id="node12" class="node">
<title>Node12</title>
<g id="a_node12"><a xlink:title="STL class.">
<polygon fill="white" stroke="#bfbfbf" points="373.5,-223.43 373.5,-253.43 477.5,-253.43 477.5,-223.43 373.5,-223.43"/>
<text text-anchor="start" x="381.5" y="-241.43" font-family="Helvetica,sans-Serif" font-size="10.00">std::basic_string&lt;</text>
<text text-anchor="middle" x="425.5" y="-230.43" font-family="Helvetica,sans-Serif" font-size="10.00"> char &gt;</text>
</a>
</g>
</g>
<!-- Node12&#45;&gt;Node11 -->
<g id="edge11" class="edge">
<title>Node12&#45;&gt;Node11</title>
<path fill="none" stroke="midnightblue" d="M487.93,-238.43C544.75,-238.43 626.97,-238.43 671.66,-238.43"/>
<polygon fill="midnightblue" stroke="midnightblue" points="487.63,-234.93 477.63,-238.43 487.63,-241.93 487.63,-234.93"/>
</g>
<!-- Node13 -->
<g id="node13" class="node">
<title>Node13</title>
<g id="a_node13"><a xlink:href="classitk_1_1MetaDataDictionary.html" target="_top" xlink:title="Provides a mechanism for storing a collection of arbitrary data types.">
<polygon fill="white" stroke="black" points="637.5,-147.93 637.5,-166.93 771.5,-166.93 771.5,-147.93 637.5,-147.93"/>
<text text-anchor="middle" x="704.5" y="-154.93" font-family="Helvetica,sans-Serif" font-size="10.00">itk::MetaDataDictionary</text>
</a>
</g>
</g>
<!-- Node13&#45;&gt;Node8 -->
<g id="edge12" class="edge">
<title>Node13&#45;&gt;Node8</title>
<path fill="none" stroke="#9a32cd" stroke-dasharray="5,2" d="M781.74,-152.22C845.39,-147.86 933.03,-141.87 979.86,-138.67"/>
<polygon fill="#9a32cd" stroke="#9a32cd" points="781.47,-148.73 771.74,-152.9 781.95,-155.71 781.47,-148.73"/>
<text text-anchor="middle" x="852.5" y="-154.43" font-family="Helvetica,sans-Serif" font-size="10.00"> m_MetaDataDictionary</text>
</g>
<!-- Node14 -->
<g id="node14" class="node">
<title>Node14</title>
<g id="a_node14"><a xlink:title=" ">
<polygon fill="white" stroke="#bfbfbf" points="351,-144.43 351,-174.43 500,-174.43 500,-144.43 351,-144.43"/>
<text text-anchor="start" x="359" y="-162.43" font-family="Helvetica,sans-Serif" font-size="10.00">std::shared_ptr&lt; MetaData</text>
<text text-anchor="middle" x="425.5" y="-151.43" font-family="Helvetica,sans-Serif" font-size="10.00">DictionaryMapType &gt;</text>
</a>
</g>
</g>
<!-- Node14&#45;&gt;Node13 -->
<g id="edge13" class="edge">
<title>Node14&#45;&gt;Node13</title>
<path fill="none" stroke="#9a32cd" stroke-dasharray="5,2" d="M510.18,-158.83C550.89,-158.53 599.13,-158.19 637.24,-157.91"/>
<polygon fill="#9a32cd" stroke="#9a32cd" points="509.98,-155.33 500,-158.9 510.03,-162.33 509.98,-155.33"/>
<text text-anchor="middle" x="566.5" y="-162.43" font-family="Helvetica,sans-Serif" font-size="10.00"> m_Dictionary</text>
</g>
<!-- Node15 -->
<g id="node15" class="node">
<title>Node15</title>
<g id="a_node15"><a xlink:title="STL class.">
<polygon fill="white" stroke="#bfbfbf" points="114,-148.93 114,-167.93 215,-167.93 215,-148.93 114,-148.93"/>
<text text-anchor="middle" x="164.5" y="-155.93" font-family="Helvetica,sans-Serif" font-size="10.00">std::map&lt; K, T &gt;</text>
</a>
</g>
</g>
<!-- Node15&#45;&gt;Node14 -->
<g id="edge14" class="edge">
<title>Node15&#45;&gt;Node14</title>
<path fill="none" stroke="#9a32cd" stroke-dasharray="5,2" d="M225.34,-158.66C262.61,-158.81 310.86,-158.99 350.52,-159.15"/>
<polygon fill="#9a32cd" stroke="#9a32cd" points="225.14,-155.16 215.13,-158.62 225.12,-162.16 225.14,-155.16"/>
<text text-anchor="middle" x="283" y="-162.43" font-family="Helvetica,sans-Serif" font-size="10.00"> ptr</text>
</g>
<!-- Node16 -->
<g id="node16" class="node">
<title>Node16</title>
<g id="a_node16"><a xlink:title=" ">
<polygon fill="white" stroke="#bfbfbf" points="0,-148.93 0,-167.93 29,-167.93 29,-148.93 0,-148.93"/>
<text text-anchor="middle" x="14.5" y="-155.93" font-family="Helvetica,sans-Serif" font-size="10.00">K</text>
</a>
</g>
</g>
<!-- Node16&#45;&gt;Node15 -->
<g id="edge15" class="edge">
<title>Node16&#45;&gt;Node15</title>
<path fill="none" stroke="#9a32cd" stroke-dasharray="5,2" d="M39.24,-158.43C59.28,-158.43 88.63,-158.43 113.78,-158.43"/>
<polygon fill="#9a32cd" stroke="#9a32cd" points="39.16,-154.93 29.16,-158.43 39.16,-161.93 39.16,-154.93"/>
<text text-anchor="middle" x="71.5" y="-161.43" font-family="Helvetica,sans-Serif" font-size="10.00"> keys</text>
</g>
<!-- Node17 -->
<g id="node17" class="node">
<title>Node17</title>
<g id="a_node17"><a xlink:title=" ">
<polygon fill="white" stroke="#bfbfbf" points="0,-95.93 0,-114.93 29,-114.93 29,-95.93 0,-95.93"/>
<text text-anchor="middle" x="14.5" y="-102.93" font-family="Helvetica,sans-Serif" font-size="10.00">T</text>
</a>
</g>
</g>
<!-- Node17&#45;&gt;Node15 -->
<g id="edge16" class="edge">
<title>Node17&#45;&gt;Node15</title>
<path fill="none" stroke="#9a32cd" stroke-dasharray="5,2" d="M38.78,-113.77C65.36,-123.29 108.76,-138.83 136.72,-148.84"/>
<polygon fill="#9a32cd" stroke="#9a32cd" points="39.75,-110.4 29.16,-110.32 37.39,-116.99 39.75,-110.4"/>
<text text-anchor="middle" x="71.5" y="-137.43" font-family="Helvetica,sans-Serif" font-size="10.00"> elements</text>
</g>
<!-- Node19 -->
<g id="node19" class="node">
<title>Node19</title>
<g id="a_node19"><a xlink:title="STL class.">
<polygon fill="white" stroke="#bfbfbf" points="233,-73.93 233,-92.93 333,-92.93 333,-73.93 233,-73.93"/>
<text text-anchor="middle" x="283" y="-80.93" font-family="Helvetica,sans-Serif" font-size="10.00">std::atomic&lt; T &gt;</text>
</a>
</g>
</g>
<!-- Node17&#45;&gt;Node19 -->
<g id="edge19" class="edge">
<title>Node17&#45;&gt;Node19</title>
<path fill="none" stroke="#9a32cd" stroke-dasharray="5,2" d="M39.45,-103.12C42,-102.88 44.55,-102.65 47,-102.43 111.22,-96.78 185.37,-90.89 232.92,-87.2"/>
<polygon fill="#9a32cd" stroke="#9a32cd" points="38.92,-99.65 29.3,-104.08 39.58,-106.62 38.92,-99.65"/>
<text text-anchor="middle" x="71.5" y="-105.43" font-family="Helvetica,sans-Serif" font-size="10.00"> ptr</text>
</g>
<!-- Node18 -->
<g id="node18" class="node">
<title>Node18</title>
<g id="a_node18"><a xlink:href="classitk_1_1TimeStamp.html" target="_top" xlink:title="Generate a unique, increasing time value.">
<polygon fill="white" stroke="black" points="658.5,-66.93 658.5,-85.93 750.5,-85.93 750.5,-66.93 658.5,-66.93"/>
<text text-anchor="middle" x="704.5" y="-73.93" font-family="Helvetica,sans-Serif" font-size="10.00">itk::TimeStamp</text>
</a>
</g>
</g>
<!-- Node18&#45;&gt;Node7 -->
<g id="edge32" class="edge">
<title>Node18&#45;&gt;Node7</title>
<path fill="none" stroke="#9a32cd" stroke-dasharray="5,2" d="M760.61,-68.31C866.1,-55.72 1100.07,-42.29 1258,-141.43 1289.73,-161.35 1312.84,-201.25 1322.29,-219.69"/>
<polygon fill="#9a32cd" stroke="#9a32cd" points="760,-64.86 750.51,-69.56 760.87,-71.81 760,-64.86"/>
<text text-anchor="middle" x="1013.5" y="-81.43" font-family="Helvetica,sans-Serif" font-size="10.00"> m_OutputInformationMTime</text>
</g>
<!-- Node18&#45;&gt;Node8 -->
<g id="edge17" class="edge">
<title>Node18&#45;&gt;Node8</title>
<path fill="none" stroke="#9a32cd" stroke-dasharray="5,2" d="M760.63,-82.79C802.21,-88.06 860.51,-96.46 911,-107.43 935.53,-112.76 962.88,-120.7 983,-126.92"/>
<polygon fill="#9a32cd" stroke="#9a32cd" points="761.06,-79.32 750.7,-81.55 760.19,-86.27 761.06,-79.32"/>
<text text-anchor="middle" x="852.5" y="-110.43" font-family="Helvetica,sans-Serif" font-size="10.00"> m_MTime</text>
</g>
<!-- Node19&#45;&gt;Node18 -->
<g id="edge18" class="edge">
<title>Node19&#45;&gt;Node18</title>
<path fill="none" stroke="#9a32cd" stroke-dasharray="5,2" d="M343.61,-82.44C428.52,-81.02 582.42,-78.45 658.48,-77.18"/>
<polygon fill="#9a32cd" stroke="#9a32cd" points="343.3,-78.94 333.36,-82.61 343.41,-85.94 343.3,-78.94"/>
<text text-anchor="middle" x="425.5" y="-85.43" font-family="Helvetica,sans-Serif" font-size="10.00"> m_GlobalTimeStamp</text>
</g>
<!-- Node20&#45;&gt;Node7 -->
<g id="edge20" class="edge">
<title>Node20&#45;&gt;Node7</title>
<path fill="none" stroke="#9a32cd" stroke-dasharray="5,2" d="M1104.76,-229.43C1160.22,-229.43 1229.26,-229.43 1275.55,-229.43"/>
<polygon fill="#9a32cd" stroke="#9a32cd" points="1104.57,-225.93 1094.57,-229.43 1104.57,-232.93 1104.57,-225.93"/>
<text text-anchor="middle" x="1187" y="-232.43" font-family="Helvetica,sans-Serif" font-size="10.00"> m_RequiredInputNames</text>
</g>
<!-- Node21&#45;&gt;Node7 -->
<g id="edge22" class="edge">
<title>Node21&#45;&gt;Node7</title>
<path fill="none" stroke="#9a32cd" stroke-dasharray="5,2" d="M1108.39,-183.47C1154.01,-186.41 1209.35,-192.18 1258,-203.43 1274.59,-207.27 1292.56,-214.14 1306.01,-219.85"/>
<polygon fill="#9a32cd" stroke="#9a32cd" points="1108.41,-179.96 1098.21,-182.84 1107.98,-186.95 1108.41,-179.96"/>
<text text-anchor="start" x="1116" y="-217.43" font-family="Helvetica,sans-Serif" font-size="10.00"> m_CachedInputReleaseData</text>
<text text-anchor="middle" x="1187" y="-206.43" font-family="Helvetica,sans-Serif" font-size="10.00">Flags</text>
</g>
<!-- Node22 -->
<g id="node22" class="node">
<title>Node22</title>
<g id="a_node22"><a xlink:title=" ">
<polygon fill="white" stroke="#bfbfbf" points="946.5,-5.93 946.5,-24.93 1080.5,-24.93 1080.5,-5.93 946.5,-5.93"/>
<text text-anchor="middle" x="1013.5" y="-12.93" font-family="Helvetica,sans-Serif" font-size="10.00">std::atomic&lt; uint32_t &gt;</text>
</a>
</g>
</g>
<!-- Node22&#45;&gt;Node7 -->
<g id="edge24" class="edge">
<title>Node22&#45;&gt;Node7</title>
<path fill="none" stroke="#9a32cd" stroke-dasharray="5,2" d="M1070.11,-4.42C1123.81,2.89 1204.65,4.7 1258,-36.43 1318.59,-83.14 1326.08,-187.52 1326.92,-219.76"/>
<polygon fill="#9a32cd" stroke="#9a32cd" points="1069.46,-0.98 1060.08,-5.89 1070.48,-7.9 1069.46,-0.98"/>
<text text-anchor="middle" x="1187" y="-39.43" font-family="Helvetica,sans-Serif" font-size="10.00"> m_Progress</text>
</g>
<!-- Node23 -->
<g id="node23" class="node">
<title>Node23</title>
<g id="a_node23"><a xlink:title=" ">
<polygon fill="white" stroke="#bfbfbf" points="676.5,-5.93 676.5,-24.93 732.5,-24.93 732.5,-5.93 676.5,-5.93"/>
<text text-anchor="middle" x="704.5" y="-12.93" font-family="Helvetica,sans-Serif" font-size="10.00">uint32_t</text>
</a>
</g>
</g>
<!-- Node23&#45;&gt;Node22 -->
<g id="edge25" class="edge">
<title>Node23&#45;&gt;Node22</title>
<path fill="none" stroke="#9a32cd" stroke-dasharray="5,2" d="M742.88,-15.43C793.35,-15.43 884.11,-15.43 946.28,-15.43"/>
<polygon fill="#9a32cd" stroke="#9a32cd" points="742.74,-11.93 732.74,-15.43 742.74,-18.93 742.74,-11.93"/>
<text text-anchor="middle" x="852.5" y="-18.43" font-family="Helvetica,sans-Serif" font-size="10.00"> ptr</text>
</g>
<!-- Node24 -->
<g id="node24" class="node">
<title>Node24</title>
<g id="a_node24"><a xlink:title=" ">
<polygon fill="white" stroke="#bfbfbf" points="929,-263.43 929,-293.43 1098,-293.43 1098,-263.43 929,-263.43"/>
<text text-anchor="start" x="937" y="-281.43" font-family="Helvetica,sans-Serif" font-size="10.00">std::vector&lt; DataObjectPointer</text>
<text text-anchor="middle" x="1013.5" y="-270.43" font-family="Helvetica,sans-Serif" font-size="10.00">Map::iterator &gt;</text>
</a>
</g>
</g>
<!-- Node24&#45;&gt;Node7 -->
<g id="edge26" class="edge">
<title>Node24&#45;&gt;Node7</title>
<path fill="none" stroke="#9a32cd" stroke-dasharray="5,2" d="M1108.26,-267.02C1153.61,-261.07 1208.78,-253.21 1258,-244.43 1266.93,-242.84 1276.46,-240.92 1285.51,-238.98"/>
<polygon fill="#9a32cd" stroke="#9a32cd" points="1107.61,-263.57 1098.14,-268.34 1108.51,-270.52 1107.61,-263.57"/>
<text text-anchor="middle" x="1187" y="-280.43" font-family="Helvetica,sans-Serif" font-size="10.00"> m_IndexedOutputs</text>
<text text-anchor="middle" x="1187" y="-269.43" font-family="Helvetica,sans-Serif" font-size="10.00">m_IndexedInputs</text>
</g>
<!-- Node25 -->
<g id="node25" class="node">
<title>Node25</title>
<g id="a_node25"><a xlink:title="STL iterator class.">
<polygon fill="white" stroke="#bfbfbf" points="633,-313.93 633,-332.93 776,-332.93 776,-313.93 633,-313.93"/>
<text text-anchor="middle" x="704.5" y="-320.93" font-family="Helvetica,sans-Serif" font-size="10.00">std::map&lt; K, T &gt;::iterator</text>
</a>
</g>
</g>
<!-- Node25&#45;&gt;Node24 -->
<g id="edge27" class="edge">
<title>Node25&#45;&gt;Node24</title>
<path fill="none" stroke="#9a32cd" stroke-dasharray="5,2" d="M786.15,-316.98C824.17,-313.39 870.06,-308.24 911,-301.43 924.19,-299.24 938.23,-296.39 951.54,-293.45"/>
<polygon fill="#9a32cd" stroke="#9a32cd" points="785.79,-313.5 776.16,-317.91 786.44,-320.47 785.79,-313.5"/>
<text text-anchor="middle" x="852.5" y="-319.43" font-family="Helvetica,sans-Serif" font-size="10.00"> elements</text>
</g>
<!-- Node26&#45;&gt;Node7 -->
<g id="edge28" class="edge">
<title>Node26&#45;&gt;Node7</title>
<path fill="none" stroke="#9a32cd" stroke-dasharray="5,2" d="M1108.37,-381.22C1156.59,-379.39 1214.25,-370.14 1258,-341.43 1296.38,-316.25 1317.03,-261.57 1324.13,-239.23"/>
<polygon fill="#9a32cd" stroke="#9a32cd" points="1108.12,-377.73 1098.23,-381.51 1108.32,-384.73 1108.12,-377.73"/>
<text text-anchor="middle" x="1187" y="-395.43" font-family="Helvetica,sans-Serif" font-size="10.00"> m_Outputs</text>
<text text-anchor="middle" x="1187" y="-384.43" font-family="Helvetica,sans-Serif" font-size="10.00">m_Inputs</text>
</g>
<!-- Node27 -->
<g id="node27" class="node">
<title>Node27</title>
<g id="a_node27"><a xlink:href="classitk_1_1SmartPointer.html" target="_top" xlink:title=" ">
<polygon fill="white" stroke="black" points="651,-387.43 651,-417.43 758,-417.43 758,-387.43 651,-387.43"/>
<text text-anchor="start" x="659" y="-405.43" font-family="Helvetica,sans-Serif" font-size="10.00">itk::SmartPointer&lt;</text>
<text text-anchor="middle" x="704.5" y="-394.43" font-family="Helvetica,sans-Serif" font-size="10.00"> Self &gt;</text>
</a>
</g>
</g>
<!-- Node27&#45;&gt;Node2 -->
<g id="edge34" class="edge">
<title>Node27&#45;&gt;Node2</title>
<path fill="none" stroke="#9a32cd" stroke-dasharray="5,2" d="M768.15,-408.26C830.15,-413.52 927.79,-420.43 1012.5,-420.43 1012.5,-420.43 1012.5,-420.43 2170.5,-420.43 2272.3,-420.43 2379.79,-355.37 2429.4,-321.06"/>
<polygon fill="#9a32cd" stroke="#9a32cd" points="768.4,-404.77 758.14,-407.4 767.8,-411.74 768.4,-404.77"/>
<text text-anchor="middle" x="1645.5" y="-434.43" font-family="Helvetica,sans-Serif" font-size="10.00"> m_JoinVertexFunction</text>
<text text-anchor="middle" x="1645.5" y="-423.43" font-family="Helvetica,sans-Serif" font-size="10.00">m_PriorityQueue</text>
</g>
<!-- Node27&#45;&gt;Node26 -->
<g id="edge29" class="edge">
<title>Node27&#45;&gt;Node26</title>
<path fill="none" stroke="#9a32cd" stroke-dasharray="5,2" d="M768.49,-397.1C814.84,-393.17 878.33,-387.8 928.92,-383.51"/>
<polygon fill="#9a32cd" stroke="#9a32cd" points="767.94,-393.63 758.28,-397.96 768.53,-400.61 767.94,-393.63"/>
<text text-anchor="middle" x="852.5" y="-398.43" font-family="Helvetica,sans-Serif" font-size="10.00"> elements</text>
</g>
<!-- Node28 -->
<g id="node28" class="node">
<title>Node28</title>
<g id="a_node28"><a xlink:href="classitk_1_1SmartPointer.html" target="_top" xlink:title=" ">
<polygon fill="white" stroke="black" points="942.5,-312.43 942.5,-342.43 1084.5,-342.43 1084.5,-312.43 942.5,-312.43"/>
<text text-anchor="start" x="950.5" y="-330.43" font-family="Helvetica,sans-Serif" font-size="10.00">itk::SmartPointer&lt;</text>
<text text-anchor="middle" x="1013.5" y="-319.43" font-family="Helvetica,sans-Serif" font-size="10.00"> itk::MultiThreaderBase &gt;</text>
</a>
</g>
</g>
<!-- Node28&#45;&gt;Node7 -->
<g id="edge31" class="edge">
<title>Node28&#45;&gt;Node7</title>
<path fill="none" stroke="#9a32cd" stroke-dasharray="5,2" d="M1094.81,-327.7C1144.01,-325.05 1207.08,-316.49 1258,-292.43 1284.69,-279.82 1308.31,-253.3 1319.73,-239.02"/>
<polygon fill="#9a32cd" stroke="#9a32cd" points="1094.36,-324.21 1084.54,-328.17 1094.69,-331.2 1094.36,-324.21"/>
<text text-anchor="middle" x="1187" y="-329.43" font-family="Helvetica,sans-Serif" font-size="10.00"> m_MultiThreader</text>
</g>
<!-- Node29 -->
<g id="node29" class="node">
<title>Node29</title>
<g id="a_node29"><a xlink:title=" ">
<polygon fill="white" stroke="#bfbfbf" points="2088.5,-230.43 2088.5,-260.43 2250.5,-260.43 2250.5,-230.43 2088.5,-230.43"/>
<text text-anchor="start" x="2096.5" y="-248.43" font-family="Helvetica,sans-Serif" font-size="10.00">std::map&lt; OutputQEType</text>
<text text-anchor="middle" x="2169.5" y="-237.43" font-family="Helvetica,sans-Serif" font-size="10.00"> *, PriorityQueueItemType * &gt;</text>
</a>
</g>
</g>
<!-- Node29&#45;&gt;Node2 -->
<g id="edge33" class="edge">
<title>Node29&#45;&gt;Node2</title>
<path fill="none" stroke="#9a32cd" stroke-dasharray="5,2" d="M2258.78,-262.35C2296.12,-269.51 2339.34,-277.79 2375.92,-284.8"/>
<polygon fill="#9a32cd" stroke="#9a32cd" points="2259.4,-258.91 2248.92,-260.46 2258.09,-265.78 2259.4,-258.91"/>
<text text-anchor="middle" x="2314.5" y="-284.43" font-family="Helvetica,sans-Serif" font-size="10.00"> m_QueueMapper</text>
</g>
</g>
</svg>
