<?xml version="1.0" encoding="UTF-8" standalone="no"?>
<!DOCTYPE svg PUBLIC "-//W3C//DTD SVG 1.1//EN"
 "http://www.w3.org/Graphics/SVG/1.1/DTD/svg11.dtd">
<!-- Generated by graphviz version 2.43.0 (0)
 -->
<!-- Title: itk::Statistics::ImageToNeighborhoodSampleAdaptor&lt; TImage, TBoundaryCondition &gt;::Iterator Pages: 1 -->
<svg width="796pt" height="61pt"
 viewBox="0.00 0.00 796.00 61.00" xmlns="http://www.w3.org/2000/svg" xmlns:xlink="http://www.w3.org/1999/xlink">
<g id="graph0" class="graph" transform="scale(1 1) rotate(0) translate(4 57)">
<title>itk::Statistics::ImageToNeighborhoodSampleAdaptor&lt; TImage, TBoundaryCondition &gt;::Iterator</title>
<polygon fill="white" stroke="transparent" points="-4,4 -4,-57 792,-57 792,4 -4,4"/>
<!-- Node1 -->
<g id="node1" class="node">
<title>Node1</title>
<g id="a_node1"><a xlink:title="Iterator.">
<polygon fill="#bfbfbf" stroke="black" points="618,-0.5 618,-52.5 788,-52.5 788,-0.5 618,-0.5"/>
<text text-anchor="start" x="626" y="-40.5" font-family="Helvetica,sans-Serif" font-size="10.00">itk::Statistics::ImageTo</text>
<text text-anchor="start" x="626" y="-29.5" font-family="Helvetica,sans-Serif" font-size="10.00">NeighborhoodSampleAdaptor</text>
<text text-anchor="start" x="626" y="-18.5" font-family="Helvetica,sans-Serif" font-size="10.00">&lt; TImage, TBoundaryCondition</text>
<text text-anchor="middle" x="703" y="-7.5" font-family="Helvetica,sans-Serif" font-size="10.00"> &gt;::Iterator</text>
</a>
</g>
</g>
<!-- Node2 -->
<g id="node2" class="node">
<title>Node2</title>
<g id="a_node2"><a xlink:href="classitk_1_1Statistics_1_1ImageToNeighborhoodSampleAdaptor_1_1ConstIterator.html" target="_top" xlink:title="Const Iterator.">
<polygon fill="white" stroke="black" points="411,-0.5 411,-52.5 581,-52.5 581,-0.5 411,-0.5"/>
<text text-anchor="start" x="419" y="-40.5" font-family="Helvetica,sans-Serif" font-size="10.00">itk::Statistics::ImageTo</text>
<text text-anchor="start" x="419" y="-29.5" font-family="Helvetica,sans-Serif" font-size="10.00">NeighborhoodSampleAdaptor</text>
<text text-anchor="start" x="419" y="-18.5" font-family="Helvetica,sans-Serif" font-size="10.00">&lt; TImage, TBoundaryCondition</text>
<text text-anchor="middle" x="496" y="-7.5" font-family="Helvetica,sans-Serif" font-size="10.00"> &gt;::ConstIterator</text>
</a>
</g>
</g>
<!-- Node2&#45;&gt;Node1 -->
<g id="edge1" class="edge">
<title>Node2&#45;&gt;Node1</title>
<path fill="none" stroke="midnightblue" d="M591.49,-26.5C600.24,-26.5 609.08,-26.5 617.73,-26.5"/>
<polygon fill="midnightblue" stroke="midnightblue" points="591.27,-23 581.27,-26.5 591.27,-30 591.27,-23"/>
</g>
<!-- Node3 -->
<g id="node3" class="node">
<title>Node3</title>
<g id="a_node3"><a xlink:title=" ">
<polygon fill="white" stroke="#bfbfbf" points="0,-11.5 0,-41.5 228,-41.5 228,-11.5 0,-11.5"/>
<text text-anchor="start" x="8" y="-29.5" font-family="Helvetica,sans-Serif" font-size="10.00">std::vector&lt; ConstNeighborhood</text>
<text text-anchor="middle" x="114" y="-18.5" font-family="Helvetica,sans-Serif" font-size="10.00">Iterator&lt; TImage, TBoundaryCondition &gt; &gt;</text>
</a>
</g>
</g>
<!-- Node3&#45;&gt;Node2 -->
<g id="edge2" class="edge">
<title>Node3&#45;&gt;Node2</title>
<path fill="none" stroke="#9a32cd" stroke-dasharray="5,2" d="M238.31,-26.5C294.78,-26.5 360.25,-26.5 410.93,-26.5"/>
<polygon fill="#9a32cd" stroke="#9a32cd" points="238.24,-23 228.24,-26.5 238.24,-30 238.24,-23"/>
<text text-anchor="middle" x="319.5" y="-29.5" font-family="Helvetica,sans-Serif" font-size="10.00"> m_MeasurementVectorCache</text>
</g>
</g>
</svg>
