<?xml version="1.0" encoding="UTF-8" standalone="no"?>
<!DOCTYPE svg PUBLIC "-//W3C//DTD SVG 1.1//EN"
 "http://www.w3.org/Graphics/SVG/1.1/DTD/svg11.dtd">
<!-- Generated by graphviz version 2.43.0 (0)
 -->
<!-- Title: itk::ImageRegionConstIteratorWithIndex&lt; TImage &gt; Pages: 1 -->
<svg width="817pt" height="340pt"
 viewBox="0.00 0.00 817.00 339.50" xmlns="http://www.w3.org/2000/svg" xmlns:xlink="http://www.w3.org/1999/xlink">
<g id="graph0" class="graph" transform="scale(1 1) rotate(0) translate(4 335.5)">
<title>itk::ImageRegionConstIteratorWithIndex&lt; TImage &gt;</title>
<polygon fill="white" stroke="transparent" points="-4,4 -4,-335.5 813,-335.5 813,4 -4,4"/>
<!-- Node1 -->
<g id="node1" class="node">
<title>Node1</title>
<g id="a_node1"><a xlink:title="A multi&#45;dimensional iterator templated over image type that walks an image region and is specialized ...">
<polygon fill="#bfbfbf" stroke="black" points="188,-145.5 188,-175.5 352,-175.5 352,-145.5 188,-145.5"/>
<text text-anchor="start" x="196" y="-163.5" font-family="Helvetica,sans-Serif" font-size="10.00">itk::ImageRegionConstIterator</text>
<text text-anchor="middle" x="270" y="-152.5" font-family="Helvetica,sans-Serif" font-size="10.00">WithIndex&lt; TImage &gt;</text>
</a>
</g>
</g>
<!-- Node3 -->
<g id="node3" class="node">
<title>Node3</title>
<g id="a_node3"><a xlink:href="classitk_1_1FrequencyFFTLayoutImageRegionConstIteratorWithIndex.html" target="_top" xlink:title="A multi&#45;dimensional iterator templated over image type that walks pixels within a region and is speci...">
<polygon fill="white" stroke="black" points="402,-290 402,-331 569,-331 569,-290 402,-290"/>
<text text-anchor="start" x="410" y="-319" font-family="Helvetica,sans-Serif" font-size="10.00">itk::FrequencyFFTLayoutImage</text>
<text text-anchor="start" x="410" y="-308" font-family="Helvetica,sans-Serif" font-size="10.00">RegionConstIteratorWithIndex</text>
<text text-anchor="middle" x="485.5" y="-297" font-family="Helvetica,sans-Serif" font-size="10.00">&lt; TImage &gt;</text>
</a>
</g>
</g>
<!-- Node1&#45;&gt;Node3 -->
<g id="edge2" class="edge">
<title>Node1&#45;&gt;Node3</title>
<path fill="none" stroke="midnightblue" d="M287.92,-183.88C308.63,-210.88 346.14,-254.85 388,-280.5 393.68,-283.98 399.81,-287.09 406.11,-289.86"/>
<polygon fill="midnightblue" stroke="midnightblue" points="290.62,-181.64 281.81,-175.76 285.02,-185.85 290.62,-181.64"/>
</g>
<!-- Node5 -->
<g id="node5" class="node">
<title>Node5</title>
<g id="a_node5"><a xlink:href="classitk_1_1FrequencyHalfHermitianFFTLayoutImageRegionConstIteratorWithIndex.html" target="_top" xlink:title="A multi&#45;dimensional iterator templated over image type that walks pixels within a region and is speci...">
<polygon fill="white" stroke="black" points="388,-230 388,-271 583,-271 583,-230 388,-230"/>
<text text-anchor="start" x="396" y="-259" font-family="Helvetica,sans-Serif" font-size="10.00">itk::FrequencyHalfHermitian</text>
<text text-anchor="start" x="396" y="-248" font-family="Helvetica,sans-Serif" font-size="10.00">FFTLayoutImageRegionConstIterator</text>
<text text-anchor="middle" x="485.5" y="-237" font-family="Helvetica,sans-Serif" font-size="10.00">WithIndex&lt; TImage &gt;</text>
</a>
</g>
</g>
<!-- Node1&#45;&gt;Node5 -->
<g id="edge4" class="edge">
<title>Node1&#45;&gt;Node5</title>
<path fill="none" stroke="midnightblue" d="M306.3,-180.63C329.14,-193.14 359.77,-208.97 388,-220.5 396.12,-223.82 404.75,-226.98 413.38,-229.93"/>
<polygon fill="midnightblue" stroke="midnightblue" points="307.78,-177.45 297.33,-175.67 304.39,-183.57 307.78,-177.45"/>
</g>
<!-- Node7 -->
<g id="node7" class="node">
<title>Node7</title>
<g id="a_node7"><a xlink:href="classitk_1_1FrequencyImageRegionConstIteratorWithIndex.html" target="_top" xlink:title="A multi&#45;dimensional iterator templated over image type that walks pixels within a region and is speci...">
<polygon fill="white" stroke="black" points="410.5,-170 410.5,-211 560.5,-211 560.5,-170 410.5,-170"/>
<text text-anchor="start" x="418.5" y="-199" font-family="Helvetica,sans-Serif" font-size="10.00">itk::FrequencyImageRegion</text>
<text text-anchor="start" x="418.5" y="-188" font-family="Helvetica,sans-Serif" font-size="10.00">ConstIteratorWithIndex</text>
<text text-anchor="middle" x="485.5" y="-177" font-family="Helvetica,sans-Serif" font-size="10.00">&lt; TImage &gt;</text>
</a>
</g>
</g>
<!-- Node1&#45;&gt;Node7 -->
<g id="edge6" class="edge">
<title>Node1&#45;&gt;Node7</title>
<path fill="none" stroke="midnightblue" d="M361.96,-173.28C378.06,-175.54 394.64,-177.87 410.21,-180.06"/>
<polygon fill="midnightblue" stroke="midnightblue" points="362.41,-169.81 352.02,-171.88 361.44,-176.74 362.41,-169.81"/>
</g>
<!-- Node9 -->
<g id="node9" class="node">
<title>Node9</title>
<g id="a_node9"><a xlink:href="classitk_1_1FrequencyShiftedFFTLayoutImageRegionConstIteratorWithIndex.html" target="_top" xlink:title="A multi&#45;dimensional iterator templated over image type that walks pixels within a region and is speci...">
<polygon fill="white" stroke="black" points="388.5,-110 388.5,-151 582.5,-151 582.5,-110 388.5,-110"/>
<text text-anchor="start" x="396.5" y="-139" font-family="Helvetica,sans-Serif" font-size="10.00">itk::FrequencyShiftedFFTLayout</text>
<text text-anchor="start" x="396.5" y="-128" font-family="Helvetica,sans-Serif" font-size="10.00">ImageRegionConstIteratorWithIndex</text>
<text text-anchor="middle" x="485.5" y="-117" font-family="Helvetica,sans-Serif" font-size="10.00">&lt; TImage &gt;</text>
</a>
</g>
</g>
<!-- Node1&#45;&gt;Node9 -->
<g id="edge8" class="edge">
<title>Node1&#45;&gt;Node9</title>
<path fill="none" stroke="midnightblue" d="M362.17,-147.69C370.88,-146.47 379.73,-145.22 388.48,-143.99"/>
<polygon fill="midnightblue" stroke="midnightblue" points="361.44,-144.26 352.02,-149.12 362.41,-151.19 361.44,-144.26"/>
</g>
<!-- Node11 -->
<g id="node11" class="node">
<title>Node11</title>
<g id="a_node11"><a xlink:href="classitk_1_1ImageRegionExclusionConstIteratorWithIndex.html" target="_top" xlink:title="A multi&#45;dimensional image iterator that walks an image region, excluding a second region that may par...">
<polygon fill="white" stroke="black" points="412.5,-50 412.5,-91 558.5,-91 558.5,-50 412.5,-50"/>
<text text-anchor="start" x="420.5" y="-79" font-family="Helvetica,sans-Serif" font-size="10.00">itk::ImageRegionExclusion</text>
<text text-anchor="start" x="420.5" y="-68" font-family="Helvetica,sans-Serif" font-size="10.00">ConstIteratorWithIndex</text>
<text text-anchor="middle" x="485.5" y="-57" font-family="Helvetica,sans-Serif" font-size="10.00">&lt; TImage &gt;</text>
</a>
</g>
</g>
<!-- Node1&#45;&gt;Node11 -->
<g id="edge10" class="edge">
<title>Node1&#45;&gt;Node11</title>
<path fill="none" stroke="midnightblue" d="M306.3,-140.37C329.14,-127.86 359.77,-112.03 388,-100.5 396.12,-97.18 404.75,-94.02 413.38,-91.07"/>
<polygon fill="midnightblue" stroke="midnightblue" points="304.39,-137.43 297.33,-145.33 307.78,-143.55 304.39,-137.43"/>
</g>
<!-- Node13 -->
<g id="node13" class="node">
<title>Node13</title>
<g id="a_node13"><a xlink:href="classitk_1_1ImageRegionIteratorWithIndex.html" target="_top" xlink:title="A multi&#45;dimensional iterator templated over image type that walks pixels within a region and is speci...">
<polygon fill="white" stroke="black" points="417.5,-0.5 417.5,-30.5 553.5,-30.5 553.5,-0.5 417.5,-0.5"/>
<text text-anchor="start" x="425.5" y="-18.5" font-family="Helvetica,sans-Serif" font-size="10.00">itk::ImageRegionIterator</text>
<text text-anchor="middle" x="485.5" y="-7.5" font-family="Helvetica,sans-Serif" font-size="10.00">WithIndex&lt; TImage &gt;</text>
</a>
</g>
</g>
<!-- Node1&#45;&gt;Node13 -->
<g id="edge12" class="edge">
<title>Node1&#45;&gt;Node13</title>
<path fill="none" stroke="midnightblue" d="M287.39,-137.2C307.82,-109.91 345.31,-65.27 388,-40.5 397.06,-35.25 407.22,-31.08 417.47,-27.78"/>
<polygon fill="midnightblue" stroke="midnightblue" points="284.46,-135.28 281.36,-145.41 290.1,-139.42 284.46,-135.28"/>
</g>
<!-- Node2 -->
<g id="node2" class="node">
<title>Node2</title>
<g id="a_node2"><a xlink:href="classitk_1_1ImageConstIteratorWithIndex.html" target="_top" xlink:title="A base class for multi&#45;dimensional iterators templated over image type that are designed to efficient...">
<polygon fill="white" stroke="black" points="0,-145.5 0,-175.5 152,-175.5 152,-145.5 0,-145.5"/>
<text text-anchor="start" x="8" y="-163.5" font-family="Helvetica,sans-Serif" font-size="10.00">itk::ImageConstIteratorWith</text>
<text text-anchor="middle" x="76" y="-152.5" font-family="Helvetica,sans-Serif" font-size="10.00">Index&lt; TImage &gt;</text>
</a>
</g>
</g>
<!-- Node2&#45;&gt;Node1 -->
<g id="edge1" class="edge">
<title>Node2&#45;&gt;Node1</title>
<path fill="none" stroke="midnightblue" d="M162.08,-160.5C170.69,-160.5 179.41,-160.5 187.97,-160.5"/>
<polygon fill="midnightblue" stroke="midnightblue" points="162.06,-157 152.06,-160.5 162.06,-164 162.06,-157"/>
</g>
<!-- Node4 -->
<g id="node4" class="node">
<title>Node4</title>
<g id="a_node4"><a xlink:href="classitk_1_1FrequencyFFTLayoutImageRegionIteratorWithIndex.html" target="_top" xlink:title=" ">
<polygon fill="white" stroke="black" points="630.5,-290 630.5,-331 797.5,-331 797.5,-290 630.5,-290"/>
<text text-anchor="start" x="638.5" y="-319" font-family="Helvetica,sans-Serif" font-size="10.00">itk::FrequencyFFTLayoutImage</text>
<text text-anchor="start" x="638.5" y="-308" font-family="Helvetica,sans-Serif" font-size="10.00">RegionIteratorWithIndex</text>
<text text-anchor="middle" x="714" y="-297" font-family="Helvetica,sans-Serif" font-size="10.00">&lt; TImage &gt;</text>
</a>
</g>
</g>
<!-- Node3&#45;&gt;Node4 -->
<g id="edge3" class="edge">
<title>Node3&#45;&gt;Node4</title>
<path fill="none" stroke="midnightblue" d="M579.64,-310.5C596.49,-310.5 613.96,-310.5 630.49,-310.5"/>
<polygon fill="midnightblue" stroke="midnightblue" points="579.23,-307 569.23,-310.5 579.23,-314 579.23,-307"/>
</g>
<!-- Node6 -->
<g id="node6" class="node">
<title>Node6</title>
<g id="a_node6"><a xlink:href="classitk_1_1FrequencyHalfHermitianFFTLayoutImageRegionIteratorWithIndex.html" target="_top" xlink:title=" ">
<polygon fill="white" stroke="black" points="619,-230 619,-271 809,-271 809,-230 619,-230"/>
<text text-anchor="start" x="627" y="-259" font-family="Helvetica,sans-Serif" font-size="10.00">itk::FrequencyHalfHermitian</text>
<text text-anchor="start" x="627" y="-248" font-family="Helvetica,sans-Serif" font-size="10.00">FFTLayoutImageRegionIteratorWith</text>
<text text-anchor="middle" x="714" y="-237" font-family="Helvetica,sans-Serif" font-size="10.00">Index&lt; TImage &gt;</text>
</a>
</g>
</g>
<!-- Node5&#45;&gt;Node6 -->
<g id="edge5" class="edge">
<title>Node5&#45;&gt;Node6</title>
<path fill="none" stroke="midnightblue" d="M593.48,-250.5C601.93,-250.5 610.42,-250.5 618.77,-250.5"/>
<polygon fill="midnightblue" stroke="midnightblue" points="593.21,-247 583.21,-250.5 593.21,-254 593.21,-247"/>
</g>
<!-- Node8 -->
<g id="node8" class="node">
<title>Node8</title>
<g id="a_node8"><a xlink:href="classitk_1_1FrequencyImageRegionIteratorWithIndex.html" target="_top" xlink:title=" ">
<polygon fill="white" stroke="black" points="633.5,-175.5 633.5,-205.5 794.5,-205.5 794.5,-175.5 633.5,-175.5"/>
<text text-anchor="start" x="641.5" y="-193.5" font-family="Helvetica,sans-Serif" font-size="10.00">itk::FrequencyImageRegion</text>
<text text-anchor="middle" x="714" y="-182.5" font-family="Helvetica,sans-Serif" font-size="10.00">IteratorWithIndex&lt; TImage &gt;</text>
</a>
</g>
</g>
<!-- Node7&#45;&gt;Node8 -->
<g id="edge7" class="edge">
<title>Node7&#45;&gt;Node8</title>
<path fill="none" stroke="midnightblue" d="M570.88,-190.5C591.28,-190.5 613.02,-190.5 633.2,-190.5"/>
<polygon fill="midnightblue" stroke="midnightblue" points="570.66,-187 560.66,-190.5 570.66,-194 570.66,-187"/>
</g>
<!-- Node10 -->
<g id="node10" class="node">
<title>Node10</title>
<g id="a_node10"><a xlink:href="classitk_1_1FrequencyShiftedFFTLayoutImageRegionIteratorWithIndex.html" target="_top" xlink:title=" ">
<polygon fill="white" stroke="black" points="629,-110 629,-151 799,-151 799,-110 629,-110"/>
<text text-anchor="start" x="637" y="-139" font-family="Helvetica,sans-Serif" font-size="10.00">itk::FrequencyShiftedFFTLayout</text>
<text text-anchor="start" x="637" y="-128" font-family="Helvetica,sans-Serif" font-size="10.00">ImageRegionIteratorWithIndex</text>
<text text-anchor="middle" x="714" y="-117" font-family="Helvetica,sans-Serif" font-size="10.00">&lt; TImage &gt;</text>
</a>
</g>
</g>
<!-- Node9&#45;&gt;Node10 -->
<g id="edge9" class="edge">
<title>Node9&#45;&gt;Node10</title>
<path fill="none" stroke="midnightblue" d="M592.73,-130.5C604.9,-130.5 617.17,-130.5 628.98,-130.5"/>
<polygon fill="midnightblue" stroke="midnightblue" points="592.56,-127 582.56,-130.5 592.56,-134 592.56,-127"/>
</g>
<!-- Node12 -->
<g id="node12" class="node">
<title>Node12</title>
<g id="a_node12"><a xlink:href="classitk_1_1ImageRegionExclusionIteratorWithIndex.html" target="_top" xlink:title="A multi&#45;dimensional image iterator that walks an image region, excluding a second region contained wi...">
<polygon fill="white" stroke="black" points="633.5,-55.5 633.5,-85.5 794.5,-85.5 794.5,-55.5 633.5,-55.5"/>
<text text-anchor="start" x="641.5" y="-73.5" font-family="Helvetica,sans-Serif" font-size="10.00">itk::ImageRegionExclusion</text>
<text text-anchor="middle" x="714" y="-62.5" font-family="Helvetica,sans-Serif" font-size="10.00">IteratorWithIndex&lt; TImage &gt;</text>
</a>
</g>
</g>
<!-- Node11&#45;&gt;Node12 -->
<g id="edge11" class="edge">
<title>Node11&#45;&gt;Node12</title>
<path fill="none" stroke="midnightblue" d="M568.93,-70.5C589.88,-70.5 612.34,-70.5 633.16,-70.5"/>
<polygon fill="midnightblue" stroke="midnightblue" points="568.79,-67 558.79,-70.5 568.79,-74 568.79,-67"/>
</g>
</g>
</svg>
