<?xml version="1.0" encoding="UTF-8" standalone="no"?>
<!DOCTYPE svg PUBLIC "-//W3C//DTD SVG 1.1//EN"
 "http://www.w3.org/Graphics/SVG/1.1/DTD/svg11.dtd">
<!-- Generated by graphviz version 2.43.0 (0)
 -->
<!-- Title: itk::TimeVaryingBSplineVelocityFieldTransform&lt; TParametersValueType, VDimension &gt; Pages: 1 -->
<svg width="223pt" height="441pt"
 viewBox="0.00 0.00 223.00 441.00" xmlns="http://www.w3.org/2000/svg" xmlns:xlink="http://www.w3.org/1999/xlink">
<g id="graph0" class="graph" transform="scale(1 1) rotate(0) translate(4 437)">
<title>itk::TimeVaryingBSplineVelocityFieldTransform&lt; TParametersValueType, VDimension &gt;</title>
<polygon fill="white" stroke="transparent" points="-4,4 -4,-437 219,-437 219,4 -4,4"/>
<!-- Node1 -->
<g id="node1" class="node">
<title>Node1</title>
<g id="a_node1"><a xlink:title="Integrate a time&#45;varying velocity field represented by a B&#45;spline control point lattice.">
<polygon fill="#bfbfbf" stroke="black" points="0.5,-0.5 0.5,-41.5 214.5,-41.5 214.5,-0.5 0.5,-0.5"/>
<text text-anchor="start" x="8.5" y="-29.5" font-family="Helvetica,sans-Serif" font-size="10.00">itk::TimeVaryingBSplineVelocity</text>
<text text-anchor="start" x="8.5" y="-18.5" font-family="Helvetica,sans-Serif" font-size="10.00">FieldTransform&lt; TParametersValueType,</text>
<text text-anchor="middle" x="107.5" y="-7.5" font-family="Helvetica,sans-Serif" font-size="10.00"> VDimension &gt;</text>
</a>
</g>
</g>
<!-- Node2 -->
<g id="node2" class="node">
<title>Node2</title>
<g id="a_node2"><a xlink:href="classitk_1_1VelocityFieldTransform.html" target="_top" xlink:title="Provides local/dense/high&#45;dimensionality transformation via a a velocity field.">
<polygon fill="white" stroke="black" points="34.5,-78.5 34.5,-119.5 180.5,-119.5 180.5,-78.5 34.5,-78.5"/>
<text text-anchor="start" x="42.5" y="-107.5" font-family="Helvetica,sans-Serif" font-size="10.00">itk::VelocityFieldTransform</text>
<text text-anchor="start" x="42.5" y="-96.5" font-family="Helvetica,sans-Serif" font-size="10.00">&lt; TParametersValueType,</text>
<text text-anchor="middle" x="107.5" y="-85.5" font-family="Helvetica,sans-Serif" font-size="10.00"> VDimension &gt;</text>
</a>
</g>
</g>
<!-- Node2&#45;&gt;Node1 -->
<g id="edge1" class="edge">
<title>Node2&#45;&gt;Node1</title>
<path fill="none" stroke="midnightblue" d="M107.5,-68.3C107.5,-59.3 107.5,-49.65 107.5,-41.51"/>
<polygon fill="midnightblue" stroke="midnightblue" points="104,-68.43 107.5,-78.43 111,-68.43 104,-68.43"/>
</g>
<!-- Node3 -->
<g id="node3" class="node">
<title>Node3</title>
<g id="a_node3"><a xlink:href="classitk_1_1DisplacementFieldTransform.html" target="_top" xlink:title="Provides local/dense/high&#45;dimensionality transformation via a a displacement field.">
<polygon fill="white" stroke="black" points="0,-156.5 0,-186.5 215,-186.5 215,-156.5 0,-156.5"/>
<text text-anchor="start" x="8" y="-174.5" font-family="Helvetica,sans-Serif" font-size="10.00">itk::DisplacementFieldTransform</text>
<text text-anchor="middle" x="107.5" y="-163.5" font-family="Helvetica,sans-Serif" font-size="10.00">&lt; TParametersValueType, VDimension &gt;</text>
</a>
</g>
</g>
<!-- Node3&#45;&gt;Node2 -->
<g id="edge2" class="edge">
<title>Node3&#45;&gt;Node2</title>
<path fill="none" stroke="midnightblue" d="M107.5,-145.98C107.5,-137.35 107.5,-127.76 107.5,-119.59"/>
<polygon fill="midnightblue" stroke="midnightblue" points="104,-146.23 107.5,-156.23 111,-146.23 104,-146.23"/>
</g>
<!-- Node4 -->
<g id="node4" class="node">
<title>Node4</title>
<g id="a_node4"><a xlink:href="classitk_1_1Transform.html" target="_top" xlink:title=" ">
<polygon fill="white" stroke="black" points="3.5,-223.5 3.5,-253.5 211.5,-253.5 211.5,-223.5 3.5,-223.5"/>
<text text-anchor="start" x="11.5" y="-241.5" font-family="Helvetica,sans-Serif" font-size="10.00">itk::Transform&lt; TParameters</text>
<text text-anchor="middle" x="107.5" y="-230.5" font-family="Helvetica,sans-Serif" font-size="10.00">ValueType, VDimension, VDimension &gt;</text>
</a>
</g>
</g>
<!-- Node4&#45;&gt;Node3 -->
<g id="edge3" class="edge">
<title>Node4&#45;&gt;Node3</title>
<path fill="none" stroke="midnightblue" d="M107.5,-213.11C107.5,-204.15 107.5,-194.32 107.5,-186.58"/>
<polygon fill="midnightblue" stroke="midnightblue" points="104,-213.4 107.5,-223.4 111,-213.4 104,-213.4"/>
</g>
<!-- Node5 -->
<g id="node5" class="node">
<title>Node5</title>
<g id="a_node5"><a xlink:href="classitk_1_1TransformBaseTemplate.html" target="_top" xlink:title=" ">
<polygon fill="white" stroke="black" points="31,-290.5 31,-320.5 184,-320.5 184,-290.5 31,-290.5"/>
<text text-anchor="start" x="39" y="-308.5" font-family="Helvetica,sans-Serif" font-size="10.00">itk::TransformBaseTemplate</text>
<text text-anchor="middle" x="107.5" y="-297.5" font-family="Helvetica,sans-Serif" font-size="10.00">&lt; TParametersValueType &gt;</text>
</a>
</g>
</g>
<!-- Node5&#45;&gt;Node4 -->
<g id="edge4" class="edge">
<title>Node5&#45;&gt;Node4</title>
<path fill="none" stroke="midnightblue" d="M107.5,-280.11C107.5,-271.15 107.5,-261.32 107.5,-253.58"/>
<polygon fill="midnightblue" stroke="midnightblue" points="104,-280.4 107.5,-290.4 111,-280.4 104,-280.4"/>
</g>
<!-- Node6 -->
<g id="node6" class="node">
<title>Node6</title>
<g id="a_node6"><a xlink:href="classitk_1_1Object.html" target="_top" xlink:title="Base class for most ITK classes.">
<polygon fill="white" stroke="black" points="74,-357.5 74,-376.5 141,-376.5 141,-357.5 74,-357.5"/>
<text text-anchor="middle" x="107.5" y="-364.5" font-family="Helvetica,sans-Serif" font-size="10.00">itk::Object</text>
</a>
</g>
</g>
<!-- Node6&#45;&gt;Node5 -->
<g id="edge5" class="edge">
<title>Node6&#45;&gt;Node5</title>
<path fill="none" stroke="midnightblue" d="M107.5,-347.23C107.5,-338.59 107.5,-328.5 107.5,-320.52"/>
<polygon fill="midnightblue" stroke="midnightblue" points="104,-347.48 107.5,-357.48 111,-347.48 104,-347.48"/>
</g>
<!-- Node7 -->
<g id="node7" class="node">
<title>Node7</title>
<g id="a_node7"><a xlink:href="classitk_1_1LightObject.html" target="_top" xlink:title="Light weight base class for most itk classes.">
<polygon fill="white" stroke="black" points="62,-413.5 62,-432.5 153,-432.5 153,-413.5 62,-413.5"/>
<text text-anchor="middle" x="107.5" y="-420.5" font-family="Helvetica,sans-Serif" font-size="10.00">itk::LightObject</text>
</a>
</g>
</g>
<!-- Node7&#45;&gt;Node6 -->
<g id="edge6" class="edge">
<title>Node7&#45;&gt;Node6</title>
<path fill="none" stroke="midnightblue" d="M107.5,-402.8C107.5,-393.91 107.5,-383.78 107.5,-376.75"/>
<polygon fill="midnightblue" stroke="midnightblue" points="104,-403.08 107.5,-413.08 111,-403.08 104,-403.08"/>
</g>
</g>
</svg>
