<?xml version="1.0" encoding="UTF-8" standalone="no"?>
<!DOCTYPE svg PUBLIC "-//W3C//DTD SVG 1.1//EN"
 "http://www.w3.org/Graphics/SVG/1.1/DTD/svg11.dtd">
<!-- Generated by graphviz version 2.43.0 (0)
 -->
<!-- Title: itk::BSplineBaseTransform&lt; TParametersValueType, VDimension, VSplineOrder &gt; Pages: 1 -->
<svg width="1799pt" height="191pt"
 viewBox="0.00 0.00 1799.00 190.50" xmlns="http://www.w3.org/2000/svg" xmlns:xlink="http://www.w3.org/1999/xlink">
<g id="graph0" class="graph" transform="scale(1 1) rotate(0) translate(4 186.5)">
<title>itk::BSplineBaseTransform&lt; TParametersValueType, VDimension, VSplineOrder &gt;</title>
<polygon fill="white" stroke="transparent" points="-4,4 -4,-186.5 1795,-186.5 1795,4 -4,4"/>
<!-- Node1 -->
<g id="node1" class="node">
<title>Node1</title>
<g id="a_node1"><a xlink:title="A base class with common elements of BSplineTransform and BSplineDeformableTransform.">
<polygon fill="#bfbfbf" stroke="black" points="1631,-39 1631,-80 1791,-80 1791,-39 1631,-39"/>
<text text-anchor="start" x="1639" y="-68" font-family="Helvetica,sans-Serif" font-size="10.00">itk::BSplineBaseTransform</text>
<text text-anchor="start" x="1639" y="-57" font-family="Helvetica,sans-Serif" font-size="10.00">&lt; TParametersValueType,</text>
<text text-anchor="middle" x="1711" y="-46" font-family="Helvetica,sans-Serif" font-size="10.00"> VDimension, VSplineOrder &gt;</text>
</a>
</g>
</g>
<!-- Node2 -->
<g id="node2" class="node">
<title>Node2</title>
<g id="a_node2"><a xlink:href="classitk_1_1Transform.html" target="_top" xlink:title=" ">
<polygon fill="white" stroke="black" points="1329,-88.5 1329,-118.5 1460,-118.5 1460,-88.5 1329,-88.5"/>
<text text-anchor="start" x="1337" y="-106.5" font-family="Helvetica,sans-Serif" font-size="10.00">itk::Transform&lt; double,</text>
<text text-anchor="middle" x="1394.5" y="-95.5" font-family="Helvetica,sans-Serif" font-size="10.00"> 3, 3 &gt;</text>
</a>
</g>
</g>
<!-- Node2&#45;&gt;Node1 -->
<g id="edge1" class="edge">
<title>Node2&#45;&gt;Node1</title>
<path fill="none" stroke="midnightblue" d="M1470.4,-93.9C1512.36,-88.43 1565.63,-81.32 1613,-74.5 1618.82,-73.66 1624.83,-72.78 1630.88,-71.87"/>
<polygon fill="midnightblue" stroke="midnightblue" points="1469.73,-90.46 1460.27,-95.22 1470.63,-97.4 1469.73,-90.46"/>
</g>
<!-- Node3 -->
<g id="node3" class="node">
<title>Node3</title>
<g id="a_node3"><a xlink:href="classitk_1_1TransformBaseTemplate.html" target="_top" xlink:title=" ">
<polygon fill="white" stroke="black" points="1030,-88.5 1030,-118.5 1183,-118.5 1183,-88.5 1030,-88.5"/>
<text text-anchor="start" x="1038" y="-106.5" font-family="Helvetica,sans-Serif" font-size="10.00">itk::TransformBaseTemplate</text>
<text text-anchor="middle" x="1106.5" y="-95.5" font-family="Helvetica,sans-Serif" font-size="10.00">&lt; double &gt;</text>
</a>
</g>
</g>
<!-- Node3&#45;&gt;Node2 -->
<g id="edge2" class="edge">
<title>Node3&#45;&gt;Node2</title>
<path fill="none" stroke="midnightblue" d="M1193.02,-103.5C1236.54,-103.5 1288.58,-103.5 1328.73,-103.5"/>
<polygon fill="midnightblue" stroke="midnightblue" points="1193.02,-100 1183.02,-103.5 1193.02,-107 1193.02,-100"/>
</g>
<!-- Node4 -->
<g id="node4" class="node">
<title>Node4</title>
<g id="a_node4"><a xlink:href="classitk_1_1Object.html" target="_top" xlink:title="Base class for most ITK classes.">
<polygon fill="white" stroke="black" points="926,-94 926,-113 993,-113 993,-94 926,-94"/>
<text text-anchor="middle" x="959.5" y="-101" font-family="Helvetica,sans-Serif" font-size="10.00">itk::Object</text>
</a>
</g>
</g>
<!-- Node4&#45;&gt;Node3 -->
<g id="edge3" class="edge">
<title>Node4&#45;&gt;Node3</title>
<path fill="none" stroke="midnightblue" d="M1003.29,-103.5C1011.68,-103.5 1020.72,-103.5 1029.82,-103.5"/>
<polygon fill="midnightblue" stroke="midnightblue" points="1003.04,-100 993.04,-103.5 1003.04,-107 1003.04,-100"/>
</g>
<!-- Node5 -->
<g id="node5" class="node">
<title>Node5</title>
<g id="a_node5"><a xlink:href="classitk_1_1LightObject.html" target="_top" xlink:title="Light weight base class for most itk classes.">
<polygon fill="white" stroke="black" points="660.5,-158 660.5,-177 751.5,-177 751.5,-158 660.5,-158"/>
<text text-anchor="middle" x="706" y="-165" font-family="Helvetica,sans-Serif" font-size="10.00">itk::LightObject</text>
</a>
</g>
</g>
<!-- Node5&#45;&gt;Node4 -->
<g id="edge4" class="edge">
<title>Node5&#45;&gt;Node4</title>
<path fill="none" stroke="midnightblue" d="M761.69,-162.62C802.84,-157.78 860.12,-148.53 908,-131.5 920.85,-126.93 934.29,-119.31 944.08,-113.18"/>
<polygon fill="midnightblue" stroke="midnightblue" points="761.14,-159.16 751.6,-163.75 761.93,-166.11 761.14,-159.16"/>
</g>
<!-- Node6 -->
<g id="node6" class="node">
<title>Node6</title>
<g id="a_node6"><a xlink:title=" ">
<polygon fill="white" stroke="#bfbfbf" points="378,-163 378,-182 485,-182 485,-163 378,-163"/>
<text text-anchor="middle" x="431.5" y="-170" font-family="Helvetica,sans-Serif" font-size="10.00">std::atomic&lt; int &gt;</text>
</a>
</g>
</g>
<!-- Node6&#45;&gt;Node5 -->
<g id="edge5" class="edge">
<title>Node6&#45;&gt;Node5</title>
<path fill="none" stroke="#9a32cd" stroke-dasharray="5,2" d="M495.18,-171.35C545.64,-170.42 615.33,-169.15 660.29,-168.32"/>
<polygon fill="#9a32cd" stroke="#9a32cd" points="494.97,-167.85 485.04,-171.54 495.1,-174.85 494.97,-167.85"/>
<text text-anchor="middle" x="572.5" y="-173.5" font-family="Helvetica,sans-Serif" font-size="10.00"> m_ReferenceCount</text>
</g>
<!-- Node7 -->
<g id="node7" class="node">
<title>Node7</title>
<g id="a_node7"><a xlink:title="STL class.">
<polygon fill="white" stroke="#bfbfbf" points="673.5,-114 673.5,-133 738.5,-133 738.5,-114 673.5,-114"/>
<text text-anchor="middle" x="706" y="-121" font-family="Helvetica,sans-Serif" font-size="10.00">std::string</text>
</a>
</g>
</g>
<!-- Node7&#45;&gt;Node4 -->
<g id="edge6" class="edge">
<title>Node7&#45;&gt;Node4</title>
<path fill="none" stroke="#9a32cd" stroke-dasharray="5,2" d="M748.68,-120.19C798.33,-116.24 880.24,-109.72 925.64,-106.11"/>
<polygon fill="#9a32cd" stroke="#9a32cd" points="748.29,-116.71 738.6,-120.99 748.84,-123.68 748.29,-116.71"/>
<text text-anchor="middle" x="849.5" y="-119.5" font-family="Helvetica,sans-Serif" font-size="10.00"> m_ObjectName</text>
</g>
<!-- Node8 -->
<g id="node8" class="node">
<title>Node8</title>
<g id="a_node8"><a xlink:title="STL class.">
<polygon fill="white" stroke="#bfbfbf" points="379.5,-113.5 379.5,-143.5 483.5,-143.5 483.5,-113.5 379.5,-113.5"/>
<text text-anchor="start" x="387.5" y="-131.5" font-family="Helvetica,sans-Serif" font-size="10.00">std::basic_string&lt;</text>
<text text-anchor="middle" x="431.5" y="-120.5" font-family="Helvetica,sans-Serif" font-size="10.00"> char &gt;</text>
</a>
</g>
</g>
<!-- Node8&#45;&gt;Node7 -->
<g id="edge7" class="edge">
<title>Node8&#45;&gt;Node7</title>
<path fill="none" stroke="midnightblue" d="M493.85,-127.37C549.49,-126.35 629.3,-124.89 673.14,-124.08"/>
<polygon fill="midnightblue" stroke="midnightblue" points="493.69,-123.88 483.76,-127.56 493.82,-130.88 493.69,-123.88"/>
</g>
<!-- Node9 -->
<g id="node9" class="node">
<title>Node9</title>
<g id="a_node9"><a xlink:href="classitk_1_1MetaDataDictionary.html" target="_top" xlink:title="Provides a mechanism for storing a collection of arbitrary data types.">
<polygon fill="white" stroke="black" points="639,-75 639,-94 773,-94 773,-75 639,-75"/>
<text text-anchor="middle" x="706" y="-82" font-family="Helvetica,sans-Serif" font-size="10.00">itk::MetaDataDictionary</text>
</a>
</g>
</g>
<!-- Node9&#45;&gt;Node4 -->
<g id="edge8" class="edge">
<title>Node9&#45;&gt;Node4</title>
<path fill="none" stroke="#9a32cd" stroke-dasharray="5,2" d="M783.42,-81.22C821.13,-80.82 867.18,-82.15 908,-88.5 915.68,-89.69 923.83,-91.75 931.29,-93.96"/>
<polygon fill="#9a32cd" stroke="#9a32cd" points="782.96,-77.73 773.02,-81.38 783.07,-84.72 782.96,-77.73"/>
<text text-anchor="middle" x="849.5" y="-91.5" font-family="Helvetica,sans-Serif" font-size="10.00"> m_MetaDataDictionary</text>
</g>
<!-- Node10 -->
<g id="node10" class="node">
<title>Node10</title>
<g id="a_node10"><a xlink:title=" ">
<polygon fill="white" stroke="#bfbfbf" points="357,-64.5 357,-94.5 506,-94.5 506,-64.5 357,-64.5"/>
<text text-anchor="start" x="365" y="-82.5" font-family="Helvetica,sans-Serif" font-size="10.00">std::shared_ptr&lt; MetaData</text>
<text text-anchor="middle" x="431.5" y="-71.5" font-family="Helvetica,sans-Serif" font-size="10.00">DictionaryMapType &gt;</text>
</a>
</g>
</g>
<!-- Node10&#45;&gt;Node9 -->
<g id="edge9" class="edge">
<title>Node10&#45;&gt;Node9</title>
<path fill="none" stroke="#9a32cd" stroke-dasharray="5,2" d="M516.34,-81.04C555.65,-81.76 601.82,-82.61 638.65,-83.28"/>
<polygon fill="#9a32cd" stroke="#9a32cd" points="516.3,-77.54 506.24,-80.85 516.18,-84.54 516.3,-77.54"/>
<text text-anchor="middle" x="572.5" y="-86.5" font-family="Helvetica,sans-Serif" font-size="10.00"> m_Dictionary</text>
</g>
<!-- Node11 -->
<g id="node11" class="node">
<title>Node11</title>
<g id="a_node11"><a xlink:title="STL class.">
<polygon fill="white" stroke="#bfbfbf" points="114,-70 114,-89 215,-89 215,-70 114,-70"/>
<text text-anchor="middle" x="164.5" y="-77" font-family="Helvetica,sans-Serif" font-size="10.00">std::map&lt; K, T &gt;</text>
</a>
</g>
</g>
<!-- Node11&#45;&gt;Node10 -->
<g id="edge10" class="edge">
<title>Node11&#45;&gt;Node10</title>
<path fill="none" stroke="#9a32cd" stroke-dasharray="5,2" d="M225.18,-79.5C264.19,-79.5 315.41,-79.5 356.93,-79.5"/>
<polygon fill="#9a32cd" stroke="#9a32cd" points="225.03,-76 215.03,-79.5 225.03,-83 225.03,-76"/>
<text text-anchor="middle" x="286" y="-82.5" font-family="Helvetica,sans-Serif" font-size="10.00"> ptr</text>
</g>
<!-- Node12 -->
<g id="node12" class="node">
<title>Node12</title>
<g id="a_node12"><a xlink:title=" ">
<polygon fill="white" stroke="#bfbfbf" points="0,-94 0,-113 29,-113 29,-94 0,-94"/>
<text text-anchor="middle" x="14.5" y="-101" font-family="Helvetica,sans-Serif" font-size="10.00">K</text>
</a>
</g>
</g>
<!-- Node12&#45;&gt;Node11 -->
<g id="edge11" class="edge">
<title>Node12&#45;&gt;Node11</title>
<path fill="none" stroke="#9a32cd" stroke-dasharray="5,2" d="M39.24,-99.65C59.28,-96.4 88.63,-91.64 113.78,-87.56"/>
<polygon fill="#9a32cd" stroke="#9a32cd" points="38.47,-96.23 29.16,-101.29 39.59,-103.14 38.47,-96.23"/>
<text text-anchor="middle" x="71.5" y="-101.5" font-family="Helvetica,sans-Serif" font-size="10.00"> keys</text>
</g>
<!-- Node13 -->
<g id="node13" class="node">
<title>Node13</title>
<g id="a_node13"><a xlink:title=" ">
<polygon fill="white" stroke="#bfbfbf" points="0,-41 0,-60 29,-60 29,-41 0,-41"/>
<text text-anchor="middle" x="14.5" y="-48" font-family="Helvetica,sans-Serif" font-size="10.00">T</text>
</a>
</g>
</g>
<!-- Node13&#45;&gt;Node11 -->
<g id="edge12" class="edge">
<title>Node13&#45;&gt;Node11</title>
<path fill="none" stroke="#9a32cd" stroke-dasharray="5,2" d="M39.09,-55.12C59.39,-59.1 89.35,-64.97 114.78,-69.95"/>
<polygon fill="#9a32cd" stroke="#9a32cd" points="39.64,-51.66 29.16,-53.18 38.3,-58.53 39.64,-51.66"/>
<text text-anchor="middle" x="71.5" y="-69.5" font-family="Helvetica,sans-Serif" font-size="10.00"> elements</text>
</g>
<!-- Node15 -->
<g id="node15" class="node">
<title>Node15</title>
<g id="a_node15"><a xlink:title="STL class.">
<polygon fill="white" stroke="#bfbfbf" points="114.5,-26 114.5,-45 214.5,-45 214.5,-26 114.5,-26"/>
<text text-anchor="middle" x="164.5" y="-33" font-family="Helvetica,sans-Serif" font-size="10.00">std::atomic&lt; T &gt;</text>
</a>
</g>
</g>
<!-- Node13&#45;&gt;Node15 -->
<g id="edge15" class="edge">
<title>Node13&#45;&gt;Node15</title>
<path fill="none" stroke="#9a32cd" stroke-dasharray="5,2" d="M38.4,-39.04C41.24,-38.01 44.15,-37.12 47,-36.5 68.74,-31.79 93.31,-30.94 114.26,-31.51"/>
<polygon fill="#9a32cd" stroke="#9a32cd" points="37.03,-35.82 29.19,-42.95 39.77,-42.27 37.03,-35.82"/>
<text text-anchor="middle" x="71.5" y="-39.5" font-family="Helvetica,sans-Serif" font-size="10.00"> ptr</text>
</g>
<!-- Node14 -->
<g id="node14" class="node">
<title>Node14</title>
<g id="a_node14"><a xlink:href="classitk_1_1TimeStamp.html" target="_top" xlink:title="Generate a unique, increasing time value.">
<polygon fill="white" stroke="black" points="526.5,-31 526.5,-50 618.5,-50 618.5,-31 526.5,-31"/>
<text text-anchor="middle" x="572.5" y="-38" font-family="Helvetica,sans-Serif" font-size="10.00">itk::TimeStamp</text>
</a>
</g>
</g>
<!-- Node14&#45;&gt;Node4 -->
<g id="edge13" class="edge">
<title>Node14&#45;&gt;Node4</title>
<path fill="none" stroke="#9a32cd" stroke-dasharray="5,2" d="M628.61,-39.57C696.18,-40.01 813.37,-45.92 908,-77.5 920.16,-81.56 932.99,-88.2 942.68,-93.75"/>
<polygon fill="#9a32cd" stroke="#9a32cd" points="628.62,-36.07 618.61,-39.54 628.6,-43.07 628.62,-36.07"/>
<text text-anchor="middle" x="706" y="-51.5" font-family="Helvetica,sans-Serif" font-size="10.00"> m_MTime</text>
</g>
<!-- Node15&#45;&gt;Node14 -->
<g id="edge14" class="edge">
<title>Node15&#45;&gt;Node14</title>
<path fill="none" stroke="#9a32cd" stroke-dasharray="5,2" d="M225.03,-36.23C306.93,-37.24 452.57,-39.04 526.2,-39.94"/>
<polygon fill="#9a32cd" stroke="#9a32cd" points="224.92,-32.73 214.88,-36.11 224.83,-39.73 224.92,-32.73"/>
<text text-anchor="middle" x="286" y="-41.5" font-family="Helvetica,sans-Serif" font-size="10.00"> m_GlobalTimeStamp</text>
</g>
<!-- Node16 -->
<g id="node16" class="node">
<title>Node16</title>
<g id="a_node16"><a xlink:href="classitk_1_1FixedArray.html" target="_top" xlink:title=" ">
<polygon fill="white" stroke="black" points="1301,-50 1301,-69 1488,-69 1488,-50 1301,-50"/>
<text text-anchor="middle" x="1394.5" y="-57" font-family="Helvetica,sans-Serif" font-size="10.00">itk::FixedArray&lt; ImagePointer, 3 &gt;</text>
</a>
</g>
</g>
<!-- Node16&#45;&gt;Node1 -->
<g id="edge16" class="edge">
<title>Node16&#45;&gt;Node1</title>
<path fill="none" stroke="#9a32cd" stroke-dasharray="5,2" d="M1498.38,-59.5C1541.41,-59.5 1590.63,-59.5 1630.77,-59.5"/>
<polygon fill="#9a32cd" stroke="#9a32cd" points="1498.16,-56 1488.16,-59.5 1498.16,-63 1498.16,-56"/>
<text text-anchor="middle" x="1559.5" y="-62.5" font-family="Helvetica,sans-Serif" font-size="10.00"> m_CoefficientImages</text>
</g>
<!-- Node17 -->
<g id="node17" class="node">
<title>Node17</title>
<g id="a_node17"><a xlink:title=" ">
<polygon fill="white" stroke="#bfbfbf" points="1078.5,-50 1078.5,-69 1134.5,-69 1134.5,-50 1078.5,-50"/>
<text text-anchor="middle" x="1106.5" y="-57" font-family="Helvetica,sans-Serif" font-size="10.00">VLength</text>
</a>
</g>
</g>
<!-- Node17&#45;&gt;Node16 -->
<g id="edge17" class="edge">
<title>Node17&#45;&gt;Node16</title>
<path fill="none" stroke="#9a32cd" stroke-dasharray="5,2" d="M1144.87,-59.5C1184.27,-59.5 1247.87,-59.5 1300.88,-59.5"/>
<polygon fill="#9a32cd" stroke="#9a32cd" points="1144.66,-56 1134.66,-59.5 1144.66,-63 1144.66,-56"/>
<text text-anchor="middle" x="1242" y="-62.5" font-family="Helvetica,sans-Serif" font-size="10.00"> m_InternalArray</text>
</g>
<!-- Node18 -->
<g id="node18" class="node">
<title>Node18</title>
<g id="a_node18"><a xlink:href="classitk_1_1SmartPointer.html" target="_top" xlink:title=" ">
<polygon fill="white" stroke="black" points="1341,-0.5 1341,-30.5 1448,-30.5 1448,-0.5 1341,-0.5"/>
<text text-anchor="start" x="1349" y="-18.5" font-family="Helvetica,sans-Serif" font-size="10.00">itk::SmartPointer&lt;</text>
<text text-anchor="middle" x="1394.5" y="-7.5" font-family="Helvetica,sans-Serif" font-size="10.00"> Self &gt;</text>
</a>
</g>
</g>
<!-- Node18&#45;&gt;Node1 -->
<g id="edge18" class="edge">
<title>Node18&#45;&gt;Node1</title>
<path fill="none" stroke="#9a32cd" stroke-dasharray="5,2" d="M1458.42,-23.54C1501.88,-29.17 1560.99,-37.01 1613,-44.5 1618.82,-45.34 1624.83,-46.22 1630.88,-47.13"/>
<polygon fill="#9a32cd" stroke="#9a32cd" points="1458.65,-20.04 1448.28,-22.22 1457.75,-26.98 1458.65,-20.04"/>
<text text-anchor="middle" x="1559.5" y="-47.5" font-family="Helvetica,sans-Serif" font-size="10.00"> m_WeightsFunction</text>
</g>
</g>
</svg>
