<?xml version="1.0" encoding="UTF-8" standalone="no"?>
<!DOCTYPE svg PUBLIC "-//W3C//DTD SVG 1.1//EN"
 "http://www.w3.org/Graphics/SVG/1.1/DTD/svg11.dtd">
<!-- Generated by graphviz version 2.43.0 (0)
 -->
<!-- Title: itk::LabelOverlapMeasuresImageFilter&lt; TLabelImage &gt; Pages: 1 -->
<svg width="2274pt" height="419pt"
 viewBox="0.00 0.00 2274.00 419.27" xmlns="http://www.w3.org/2000/svg" xmlns:xlink="http://www.w3.org/1999/xlink">
<g id="graph0" class="graph" transform="scale(1 1) rotate(0) translate(4 415.27)">
<title>itk::LabelOverlapMeasuresImageFilter&lt; TLabelImage &gt;</title>
<polygon fill="white" stroke="transparent" points="-4,4 -4,-415.27 2270,-415.27 2270,4 -4,4"/>
<!-- Node1 -->
<g id="node1" class="node">
<title>Node1</title>
<g id="a_node1"><a xlink:title="Computes overlap measures between the set same set of labels of pixels of two images....">
<polygon fill="#bfbfbf" stroke="black" points="2108,-281.27 2108,-311.27 2266,-311.27 2266,-281.27 2108,-281.27"/>
<text text-anchor="start" x="2116" y="-299.27" font-family="Helvetica,sans-Serif" font-size="10.00">itk::LabelOverlapMeasures</text>
<text text-anchor="middle" x="2187" y="-288.27" font-family="Helvetica,sans-Serif" font-size="10.00">ImageFilter&lt; TLabelImage &gt;</text>
</a>
</g>
</g>
<!-- Node2 -->
<g id="node2" class="node">
<title>Node2</title>
<g id="a_node2"><a xlink:href="classitk_1_1ImageToImageFilter.html" target="_top" xlink:title=" ">
<polygon fill="white" stroke="black" points="1787,-281.27 1787,-311.27 1958,-311.27 1958,-281.27 1787,-281.27"/>
<text text-anchor="start" x="1795" y="-299.27" font-family="Helvetica,sans-Serif" font-size="10.00">itk::ImageToImageFilter</text>
<text text-anchor="middle" x="1872.5" y="-288.27" font-family="Helvetica,sans-Serif" font-size="10.00">&lt; TLabelImage, TLabelImage &gt;</text>
</a>
</g>
</g>
<!-- Node2&#45;&gt;Node1 -->
<g id="edge1" class="edge">
<title>Node2&#45;&gt;Node1</title>
<path fill="none" stroke="midnightblue" d="M1968.34,-296.27C2012.95,-296.27 2065.51,-296.27 2107.8,-296.27"/>
<polygon fill="midnightblue" stroke="midnightblue" points="1968.07,-292.77 1958.07,-296.27 1968.07,-299.77 1968.07,-292.77"/>
</g>
<!-- Node3 -->
<g id="node3" class="node">
<title>Node3</title>
<g id="a_node3"><a xlink:href="classitk_1_1ImageSource.html" target="_top" xlink:title=" ">
<polygon fill="white" stroke="black" points="1536.5,-308.27 1536.5,-338.27 1679.5,-338.27 1679.5,-308.27 1536.5,-308.27"/>
<text text-anchor="start" x="1544.5" y="-326.27" font-family="Helvetica,sans-Serif" font-size="10.00">itk::ImageSource&lt; TLabel</text>
<text text-anchor="middle" x="1608" y="-315.27" font-family="Helvetica,sans-Serif" font-size="10.00">Image &gt;</text>
</a>
</g>
</g>
<!-- Node3&#45;&gt;Node2 -->
<g id="edge2" class="edge">
<title>Node3&#45;&gt;Node2</title>
<path fill="none" stroke="midnightblue" d="M1689.92,-314.94C1720.61,-311.79 1755.63,-308.19 1786.67,-304.99"/>
<polygon fill="midnightblue" stroke="midnightblue" points="1689.28,-311.49 1679.69,-316 1690,-318.45 1689.28,-311.49"/>
</g>
<!-- Node4 -->
<g id="node4" class="node">
<title>Node4</title>
<g id="a_node4"><a xlink:href="classitk_1_1ProcessObject.html" target="_top" xlink:title="The base class for all process objects (source, filters, mappers) in the Insight data processing pipe...">
<polygon fill="white" stroke="black" points="1352.5,-197.77 1352.5,-216.77 1456.5,-216.77 1456.5,-197.77 1352.5,-197.77"/>
<text text-anchor="middle" x="1404.5" y="-204.77" font-family="Helvetica,sans-Serif" font-size="10.00">itk::ProcessObject</text>
</a>
</g>
</g>
<!-- Node4&#45;&gt;Node3 -->
<g id="edge3" class="edge">
<title>Node4&#45;&gt;Node3</title>
<path fill="none" stroke="midnightblue" d="M1422.17,-224.08C1443.22,-244.41 1481.37,-278.37 1520,-298.27 1527.4,-302.08 1535.47,-305.39 1543.61,-308.23"/>
<polygon fill="midnightblue" stroke="midnightblue" points="1424.56,-221.52 1414.97,-217.01 1419.66,-226.51 1424.56,-221.52"/>
</g>
<!-- Node5 -->
<g id="node5" class="node">
<title>Node5</title>
<g id="a_node5"><a xlink:href="classitk_1_1Object.html" target="_top" xlink:title="Base class for most ITK classes.">
<polygon fill="white" stroke="black" points="1030,-153.77 1030,-172.77 1097,-172.77 1097,-153.77 1030,-153.77"/>
<text text-anchor="middle" x="1063.5" y="-160.77" font-family="Helvetica,sans-Serif" font-size="10.00">itk::Object</text>
</a>
</g>
</g>
<!-- Node5&#45;&gt;Node4 -->
<g id="edge4" class="edge">
<title>Node5&#45;&gt;Node4</title>
<path fill="none" stroke="midnightblue" d="M1107.27,-168.82C1169.64,-176.91 1285.35,-191.93 1352.21,-200.61"/>
<polygon fill="midnightblue" stroke="midnightblue" points="1107.37,-165.3 1097,-167.49 1106.47,-172.24 1107.37,-165.3"/>
</g>
<!-- Node6 -->
<g id="node6" class="node">
<title>Node6</title>
<g id="a_node6"><a xlink:href="classitk_1_1LightObject.html" target="_top" xlink:title="Light weight base class for most itk classes.">
<polygon fill="white" stroke="black" points="709,-158.77 709,-177.77 800,-177.77 800,-158.77 709,-158.77"/>
<text text-anchor="middle" x="754.5" y="-165.77" font-family="Helvetica,sans-Serif" font-size="10.00">itk::LightObject</text>
</a>
</g>
</g>
<!-- Node6&#45;&gt;Node5 -->
<g id="edge5" class="edge">
<title>Node6&#45;&gt;Node5</title>
<path fill="none" stroke="midnightblue" d="M810.4,-167.37C874.13,-166.34 977.17,-164.66 1029.59,-163.8"/>
<polygon fill="midnightblue" stroke="midnightblue" points="810.08,-163.88 800.14,-167.54 810.2,-170.88 810.08,-163.88"/>
</g>
<!-- Node7 -->
<g id="node7" class="node">
<title>Node7</title>
<g id="a_node7"><a xlink:title=" ">
<polygon fill="white" stroke="#bfbfbf" points="385,-158.77 385,-177.77 492,-177.77 492,-158.77 385,-158.77"/>
<text text-anchor="middle" x="438.5" y="-165.77" font-family="Helvetica,sans-Serif" font-size="10.00">std::atomic&lt; int &gt;</text>
</a>
</g>
</g>
<!-- Node7&#45;&gt;Node6 -->
<g id="edge6" class="edge">
<title>Node7&#45;&gt;Node6</title>
<path fill="none" stroke="#9a32cd" stroke-dasharray="5,2" d="M502.35,-168.27C563.51,-168.27 654.88,-168.27 708.91,-168.27"/>
<polygon fill="#9a32cd" stroke="#9a32cd" points="502.06,-164.77 492.06,-168.27 502.06,-171.77 502.06,-164.77"/>
<text text-anchor="middle" x="598" y="-171.27" font-family="Helvetica,sans-Serif" font-size="10.00"> m_ReferenceCount</text>
</g>
<!-- Node8 -->
<g id="node8" class="node">
<title>Node8</title>
<g id="a_node8"><a xlink:title="STL class.">
<polygon fill="white" stroke="#bfbfbf" points="722,-259.77 722,-278.77 787,-278.77 787,-259.77 722,-259.77"/>
<text text-anchor="middle" x="754.5" y="-266.77" font-family="Helvetica,sans-Serif" font-size="10.00">std::string</text>
</a>
</g>
</g>
<!-- Node8&#45;&gt;Node5 -->
<g id="edge7" class="edge">
<title>Node8&#45;&gt;Node5</title>
<path fill="none" stroke="#9a32cd" stroke-dasharray="5,2" d="M797.19,-257.91C856.28,-241.75 957.65,-213.79 961,-211.27 973.12,-202.14 966.65,-191.08 979,-182.27 993.77,-171.74 1013.42,-166.93 1029.95,-164.78"/>
<polygon fill="#9a32cd" stroke="#9a32cd" points="796.11,-254.57 787.39,-260.58 797.96,-261.33 796.11,-254.57"/>
<text text-anchor="middle" x="902.5" y="-248.27" font-family="Helvetica,sans-Serif" font-size="10.00"> m_ObjectName</text>
</g>
<!-- Node17 -->
<g id="node17" class="node">
<title>Node17</title>
<g id="a_node17"><a xlink:title=" ">
<polygon fill="white" stroke="#bfbfbf" points="982.5,-290.27 982.5,-320.27 1144.5,-320.27 1144.5,-290.27 982.5,-290.27"/>
<text text-anchor="start" x="990.5" y="-308.27" font-family="Helvetica,sans-Serif" font-size="10.00">std::set&lt; DataObjectIdentifier</text>
<text text-anchor="middle" x="1063.5" y="-297.27" font-family="Helvetica,sans-Serif" font-size="10.00">Type &gt;</text>
</a>
</g>
</g>
<!-- Node8&#45;&gt;Node17 -->
<g id="edge18" class="edge">
<title>Node8&#45;&gt;Node17</title>
<path fill="none" stroke="#9a32cd" stroke-dasharray="5,2" d="M797.37,-274.56C812.1,-276.39 828.78,-278.45 844,-280.27 889.78,-285.73 940.98,-291.6 982.31,-296.28"/>
<polygon fill="#9a32cd" stroke="#9a32cd" points="797.39,-271.03 787.03,-273.26 796.52,-277.98 797.39,-271.03"/>
<text text-anchor="middle" x="902.5" y="-296.27" font-family="Helvetica,sans-Serif" font-size="10.00"> keys</text>
</g>
<!-- Node18 -->
<g id="node18" class="node">
<title>Node18</title>
<g id="a_node18"><a xlink:title=" ">
<polygon fill="white" stroke="#bfbfbf" points="979,-241.27 979,-271.27 1148,-271.27 1148,-241.27 979,-241.27"/>
<text text-anchor="start" x="987" y="-259.27" font-family="Helvetica,sans-Serif" font-size="10.00">std::map&lt; DataObjectIdentifier</text>
<text text-anchor="middle" x="1063.5" y="-248.27" font-family="Helvetica,sans-Serif" font-size="10.00">Type, bool &gt;</text>
</a>
</g>
</g>
<!-- Node8&#45;&gt;Node18 -->
<g id="edge20" class="edge">
<title>Node8&#45;&gt;Node18</title>
<path fill="none" stroke="#9a32cd" stroke-dasharray="5,2" d="M797.2,-267.5C843.65,-265.53 919.92,-262.3 978.8,-259.81"/>
<polygon fill="#9a32cd" stroke="#9a32cd" points="797.04,-264 787.2,-267.92 797.34,-271 797.04,-264"/>
<text text-anchor="middle" x="902.5" y="-268.27" font-family="Helvetica,sans-Serif" font-size="10.00"> keys</text>
</g>
<!-- Node23 -->
<g id="node23" class="node">
<title>Node23</title>
<g id="a_node23"><a xlink:title=" ">
<polygon fill="white" stroke="#bfbfbf" points="979,-339.27 979,-369.27 1148,-369.27 1148,-339.27 979,-339.27"/>
<text text-anchor="start" x="987" y="-357.27" font-family="Helvetica,sans-Serif" font-size="10.00">std::map&lt; DataObjectIdentifier</text>
<text text-anchor="middle" x="1063.5" y="-346.27" font-family="Helvetica,sans-Serif" font-size="10.00">Type, DataObjectPointer &gt;</text>
</a>
</g>
</g>
<!-- Node8&#45;&gt;Node23 -->
<g id="edge27" class="edge">
<title>Node8&#45;&gt;Node23</title>
<path fill="none" stroke="#9a32cd" stroke-dasharray="5,2" d="M783.45,-283.37C800.58,-291.57 823.16,-301.56 844,-308.27 887.73,-322.34 937.79,-333.24 978.96,-340.89"/>
<polygon fill="#9a32cd" stroke="#9a32cd" points="784.57,-280.03 774.05,-278.8 781.51,-286.32 784.57,-280.03"/>
<text text-anchor="middle" x="902.5" y="-339.27" font-family="Helvetica,sans-Serif" font-size="10.00"> keys</text>
</g>
<!-- Node9 -->
<g id="node9" class="node">
<title>Node9</title>
<g id="a_node9"><a xlink:title="STL class.">
<polygon fill="white" stroke="#bfbfbf" points="386.5,-254.27 386.5,-284.27 490.5,-284.27 490.5,-254.27 386.5,-254.27"/>
<text text-anchor="start" x="394.5" y="-272.27" font-family="Helvetica,sans-Serif" font-size="10.00">std::basic_string&lt;</text>
<text text-anchor="middle" x="438.5" y="-261.27" font-family="Helvetica,sans-Serif" font-size="10.00"> char &gt;</text>
</a>
</g>
</g>
<!-- Node9&#45;&gt;Node8 -->
<g id="edge8" class="edge">
<title>Node9&#45;&gt;Node8</title>
<path fill="none" stroke="midnightblue" d="M500.97,-269.27C567.34,-269.27 670.47,-269.27 721.98,-269.27"/>
<polygon fill="midnightblue" stroke="midnightblue" points="500.65,-265.77 490.65,-269.27 500.65,-272.77 500.65,-265.77"/>
</g>
<!-- Node10 -->
<g id="node10" class="node">
<title>Node10</title>
<g id="a_node10"><a xlink:href="classitk_1_1MetaDataDictionary.html" target="_top" xlink:title="Provides a mechanism for storing a collection of arbitrary data types.">
<polygon fill="white" stroke="black" points="687.5,-198.77 687.5,-217.77 821.5,-217.77 821.5,-198.77 687.5,-198.77"/>
<text text-anchor="middle" x="754.5" y="-205.77" font-family="Helvetica,sans-Serif" font-size="10.00">itk::MetaDataDictionary</text>
</a>
</g>
</g>
<!-- Node10&#45;&gt;Node5 -->
<g id="edge9" class="edge">
<title>Node10&#45;&gt;Node5</title>
<path fill="none" stroke="#9a32cd" stroke-dasharray="5,2" d="M831.86,-197.79C870.57,-192.4 918.31,-185.64 961,-179.27 983.94,-175.84 1009.75,-171.77 1029.61,-168.59"/>
<polygon fill="#9a32cd" stroke="#9a32cd" points="831.13,-194.36 821.71,-199.2 832.1,-201.29 831.13,-194.36"/>
<text text-anchor="middle" x="902.5" y="-199.27" font-family="Helvetica,sans-Serif" font-size="10.00"> m_MetaDataDictionary</text>
</g>
<!-- Node11 -->
<g id="node11" class="node">
<title>Node11</title>
<g id="a_node11"><a xlink:title=" ">
<polygon fill="white" stroke="#bfbfbf" points="364,-197.27 364,-227.27 513,-227.27 513,-197.27 364,-197.27"/>
<text text-anchor="start" x="372" y="-215.27" font-family="Helvetica,sans-Serif" font-size="10.00">std::shared_ptr&lt; MetaData</text>
<text text-anchor="middle" x="438.5" y="-204.27" font-family="Helvetica,sans-Serif" font-size="10.00">DictionaryMapType &gt;</text>
</a>
</g>
</g>
<!-- Node11&#45;&gt;Node10 -->
<g id="edge10" class="edge">
<title>Node11&#45;&gt;Node10</title>
<path fill="none" stroke="#9a32cd" stroke-dasharray="5,2" d="M523.21,-211.2C574.6,-210.55 639.49,-209.72 687.29,-209.11"/>
<polygon fill="#9a32cd" stroke="#9a32cd" points="523.07,-207.7 513.12,-211.33 523.16,-214.7 523.07,-207.7"/>
<text text-anchor="middle" x="598" y="-214.27" font-family="Helvetica,sans-Serif" font-size="10.00"> m_Dictionary</text>
</g>
<!-- Node12 -->
<g id="node12" class="node">
<title>Node12</title>
<g id="a_node12"><a xlink:title="STL class.">
<polygon fill="white" stroke="#bfbfbf" points="120.5,-202.77 120.5,-221.77 221.5,-221.77 221.5,-202.77 120.5,-202.77"/>
<text text-anchor="middle" x="171" y="-209.77" font-family="Helvetica,sans-Serif" font-size="10.00">std::map&lt; K, T &gt;</text>
</a>
</g>
</g>
<!-- Node12&#45;&gt;Node11 -->
<g id="edge11" class="edge">
<title>Node12&#45;&gt;Node11</title>
<path fill="none" stroke="#9a32cd" stroke-dasharray="5,2" d="M231.79,-212.27C270.87,-212.27 322.19,-212.27 363.79,-212.27"/>
<polygon fill="#9a32cd" stroke="#9a32cd" points="231.63,-208.77 221.63,-212.27 231.63,-215.77 231.63,-208.77"/>
<text text-anchor="middle" x="296" y="-215.27" font-family="Helvetica,sans-Serif" font-size="10.00"> ptr</text>
</g>
<!-- Node13 -->
<g id="node13" class="node">
<title>Node13</title>
<g id="a_node13"><a xlink:title=" ">
<polygon fill="white" stroke="#bfbfbf" points="0,-279.77 0,-298.77 29,-298.77 29,-279.77 0,-279.77"/>
<text text-anchor="middle" x="14.5" y="-286.77" font-family="Helvetica,sans-Serif" font-size="10.00">K</text>
</a>
</g>
</g>
<!-- Node13&#45;&gt;Node12 -->
<g id="edge12" class="edge">
<title>Node13&#45;&gt;Node12</title>
<path fill="none" stroke="#9a32cd" stroke-dasharray="5,2" d="M38.43,-278.33C54.57,-270.59 76.67,-259.91 96,-250.27 115,-240.79 136.58,-229.67 151.51,-221.91"/>
<polygon fill="#9a32cd" stroke="#9a32cd" points="36.73,-275.27 29.22,-282.74 39.75,-281.58 36.73,-275.27"/>
<text text-anchor="middle" x="71.5" y="-276.27" font-family="Helvetica,sans-Serif" font-size="10.00"> keys</text>
</g>
<!-- Node31 -->
<g id="node31" class="node">
<title>Node31</title>
<g id="a_node31"><a xlink:title="STL class.">
<polygon fill="white" stroke="#bfbfbf" points="114,-291.27 114,-321.27 228,-321.27 228,-291.27 114,-291.27"/>
<text text-anchor="start" x="122" y="-309.27" font-family="Helvetica,sans-Serif" font-size="10.00">std::unordered_map</text>
<text text-anchor="middle" x="171" y="-298.27" font-family="Helvetica,sans-Serif" font-size="10.00">&lt; K, T &gt;</text>
</a>
</g>
</g>
<!-- Node13&#45;&gt;Node31 -->
<g id="edge36" class="edge">
<title>Node13&#45;&gt;Node31</title>
<path fill="none" stroke="#9a32cd" stroke-dasharray="5,2" d="M39.19,-291.87C59,-294.05 88.08,-297.25 113.78,-300.08"/>
<polygon fill="#9a32cd" stroke="#9a32cd" points="39.53,-288.39 29.21,-290.78 38.77,-295.35 39.53,-288.39"/>
<text text-anchor="middle" x="71.5" y="-300.27" font-family="Helvetica,sans-Serif" font-size="10.00"> keys</text>
</g>
<!-- Node14 -->
<g id="node14" class="node">
<title>Node14</title>
<g id="a_node14"><a xlink:title=" ">
<polygon fill="white" stroke="#bfbfbf" points="0,-194.77 0,-213.77 29,-213.77 29,-194.77 0,-194.77"/>
<text text-anchor="middle" x="14.5" y="-201.77" font-family="Helvetica,sans-Serif" font-size="10.00">T</text>
</a>
</g>
</g>
<!-- Node14&#45;&gt;Node12 -->
<g id="edge13" class="edge">
<title>Node14&#45;&gt;Node12</title>
<path fill="none" stroke="#9a32cd" stroke-dasharray="5,2" d="M39.29,-204.05C55.33,-204.03 76.95,-204.25 96,-205.27 103.86,-205.69 112.18,-206.3 120.28,-207"/>
<polygon fill="#9a32cd" stroke="#9a32cd" points="39.17,-200.55 29.19,-204.1 39.2,-207.55 39.17,-200.55"/>
<text text-anchor="middle" x="71.5" y="-208.27" font-family="Helvetica,sans-Serif" font-size="10.00"> elements</text>
</g>
<!-- Node16 -->
<g id="node16" class="node">
<title>Node16</title>
<g id="a_node16"><a xlink:title="STL class.">
<polygon fill="white" stroke="#bfbfbf" points="246,-131.77 246,-150.77 346,-150.77 346,-131.77 246,-131.77"/>
<text text-anchor="middle" x="296" y="-138.77" font-family="Helvetica,sans-Serif" font-size="10.00">std::atomic&lt; T &gt;</text>
</a>
</g>
</g>
<!-- Node14&#45;&gt;Node16 -->
<g id="edge16" class="edge">
<title>Node14&#45;&gt;Node16</title>
<path fill="none" stroke="#9a32cd" stroke-dasharray="5,2" d="M38.49,-192.51C41.32,-191.31 44.2,-190.19 47,-189.27 114.07,-167.2 194.87,-153.91 245.6,-147.08"/>
<polygon fill="#9a32cd" stroke="#9a32cd" points="36.9,-189.39 29.3,-196.76 39.84,-195.74 36.9,-189.39"/>
<text text-anchor="middle" x="71.5" y="-192.27" font-family="Helvetica,sans-Serif" font-size="10.00"> ptr</text>
</g>
<!-- Node14&#45;&gt;Node31 -->
<g id="edge37" class="edge">
<title>Node14&#45;&gt;Node31</title>
<path fill="none" stroke="#9a32cd" stroke-dasharray="5,2" d="M38.65,-213.26C60.58,-221.87 90.9,-234 96,-237.27 119.81,-252.52 142.94,-275.88 156.83,-291.12"/>
<polygon fill="#9a32cd" stroke="#9a32cd" points="39.87,-209.99 29.28,-209.6 37.32,-216.5 39.87,-209.99"/>
<text text-anchor="middle" x="71.5" y="-240.27" font-family="Helvetica,sans-Serif" font-size="10.00"> elements</text>
</g>
<!-- Node15 -->
<g id="node15" class="node">
<title>Node15</title>
<g id="a_node15"><a xlink:href="classitk_1_1TimeStamp.html" target="_top" xlink:title="Generate a unique, increasing time value.">
<polygon fill="white" stroke="black" points="708.5,-119.77 708.5,-138.77 800.5,-138.77 800.5,-119.77 708.5,-119.77"/>
<text text-anchor="middle" x="754.5" y="-126.77" font-family="Helvetica,sans-Serif" font-size="10.00">itk::TimeStamp</text>
</a>
</g>
</g>
<!-- Node15&#45;&gt;Node4 -->
<g id="edge29" class="edge">
<title>Node15&#45;&gt;Node4</title>
<path fill="none" stroke="#9a32cd" stroke-dasharray="5,2" d="M811.11,-125.65C887.44,-121.64 1028.78,-117.62 1148,-133.27 1220.78,-142.82 1237.69,-153.15 1308,-174.27 1331.86,-181.43 1358.63,-190.8 1377.75,-197.73"/>
<polygon fill="#9a32cd" stroke="#9a32cd" points="810.57,-122.18 800.78,-126.22 810.96,-129.17 810.57,-122.18"/>
<text text-anchor="middle" x="1063.5" y="-136.27" font-family="Helvetica,sans-Serif" font-size="10.00"> m_OutputInformationMTime</text>
</g>
<!-- Node15&#45;&gt;Node5 -->
<g id="edge14" class="edge">
<title>Node15&#45;&gt;Node5</title>
<path fill="none" stroke="#9a32cd" stroke-dasharray="5,2" d="M810.99,-134.55C852.37,-138.58 910.26,-144.43 961,-150.27 983.94,-152.91 1009.76,-156.22 1029.61,-158.84"/>
<polygon fill="#9a32cd" stroke="#9a32cd" points="811.13,-131.05 800.84,-133.56 810.45,-138.01 811.13,-131.05"/>
<text text-anchor="middle" x="902.5" y="-153.27" font-family="Helvetica,sans-Serif" font-size="10.00"> m_MTime</text>
</g>
<!-- Node16&#45;&gt;Node15 -->
<g id="edge15" class="edge">
<title>Node16&#45;&gt;Node15</title>
<path fill="none" stroke="#9a32cd" stroke-dasharray="5,2" d="M356.23,-138.55C358.85,-138.45 361.45,-138.35 364,-138.27 488.55,-134.04 635.58,-131.24 708.21,-130"/>
<polygon fill="#9a32cd" stroke="#9a32cd" points="355.88,-135.06 346.03,-138.95 356.16,-142.05 355.88,-135.06"/>
<text text-anchor="middle" x="438.5" y="-141.27" font-family="Helvetica,sans-Serif" font-size="10.00"> m_GlobalTimeStamp</text>
</g>
<!-- Node17&#45;&gt;Node4 -->
<g id="edge17" class="edge">
<title>Node17&#45;&gt;Node4</title>
<path fill="none" stroke="#9a32cd" stroke-dasharray="5,2" d="M1154.89,-300.54C1201.76,-295.86 1259.25,-286.6 1308,-268.27 1341.15,-255.81 1374.89,-230.71 1392.01,-216.91"/>
<polygon fill="#9a32cd" stroke="#9a32cd" points="1154.37,-297.07 1144.75,-301.49 1155.03,-304.04 1154.37,-297.07"/>
<text text-anchor="middle" x="1237" y="-301.27" font-family="Helvetica,sans-Serif" font-size="10.00"> m_RequiredInputNames</text>
</g>
<!-- Node18&#45;&gt;Node4 -->
<g id="edge19" class="edge">
<title>Node18&#45;&gt;Node4</title>
<path fill="none" stroke="#9a32cd" stroke-dasharray="5,2" d="M1158.32,-243.55C1203.58,-237.31 1258.64,-229.59 1308,-222.27 1322.44,-220.12 1338.1,-217.71 1352.48,-215.45"/>
<polygon fill="#9a32cd" stroke="#9a32cd" points="1157.66,-240.11 1148.23,-244.94 1158.61,-247.04 1157.66,-240.11"/>
<text text-anchor="start" x="1166" y="-256.27" font-family="Helvetica,sans-Serif" font-size="10.00"> m_CachedInputReleaseData</text>
<text text-anchor="middle" x="1237" y="-245.27" font-family="Helvetica,sans-Serif" font-size="10.00">Flags</text>
</g>
<!-- Node19 -->
<g id="node19" class="node">
<title>Node19</title>
<g id="a_node19"><a xlink:title=" ">
<polygon fill="white" stroke="#bfbfbf" points="996.5,-53.77 996.5,-72.77 1130.5,-72.77 1130.5,-53.77 996.5,-53.77"/>
<text text-anchor="middle" x="1063.5" y="-60.77" font-family="Helvetica,sans-Serif" font-size="10.00">std::atomic&lt; uint32_t &gt;</text>
</a>
</g>
</g>
<!-- Node19&#45;&gt;Node4 -->
<g id="edge21" class="edge">
<title>Node19&#45;&gt;Node4</title>
<path fill="none" stroke="#9a32cd" stroke-dasharray="5,2" d="M1140.78,-54.63C1191.19,-52.45 1257.09,-56.57 1308,-84.27 1356.68,-110.76 1388.64,-173.7 1399.44,-197.72"/>
<polygon fill="#9a32cd" stroke="#9a32cd" points="1140.4,-51.15 1130.6,-55.17 1140.77,-58.14 1140.4,-51.15"/>
<text text-anchor="middle" x="1237" y="-87.27" font-family="Helvetica,sans-Serif" font-size="10.00"> m_Progress</text>
</g>
<!-- Node20 -->
<g id="node20" class="node">
<title>Node20</title>
<g id="a_node20"><a xlink:title=" ">
<polygon fill="white" stroke="#bfbfbf" points="726.5,-53.77 726.5,-72.77 782.5,-72.77 782.5,-53.77 726.5,-53.77"/>
<text text-anchor="middle" x="754.5" y="-60.77" font-family="Helvetica,sans-Serif" font-size="10.00">uint32_t</text>
</a>
</g>
</g>
<!-- Node20&#45;&gt;Node19 -->
<g id="edge22" class="edge">
<title>Node20&#45;&gt;Node19</title>
<path fill="none" stroke="#9a32cd" stroke-dasharray="5,2" d="M792.88,-63.27C843.35,-63.27 934.11,-63.27 996.28,-63.27"/>
<polygon fill="#9a32cd" stroke="#9a32cd" points="792.74,-59.77 782.74,-63.27 792.74,-66.77 792.74,-59.77"/>
<text text-anchor="middle" x="902.5" y="-66.27" font-family="Helvetica,sans-Serif" font-size="10.00"> ptr</text>
</g>
<!-- Node21 -->
<g id="node21" class="node">
<title>Node21</title>
<g id="a_node21"><a xlink:title=" ">
<polygon fill="white" stroke="#bfbfbf" points="979,-4.27 979,-34.27 1148,-34.27 1148,-4.27 979,-4.27"/>
<text text-anchor="start" x="987" y="-22.27" font-family="Helvetica,sans-Serif" font-size="10.00">std::vector&lt; DataObjectPointer</text>
<text text-anchor="middle" x="1063.5" y="-11.27" font-family="Helvetica,sans-Serif" font-size="10.00">Map::iterator &gt;</text>
</a>
</g>
</g>
<!-- Node21&#45;&gt;Node4 -->
<g id="edge23" class="edge">
<title>Node21&#45;&gt;Node4</title>
<path fill="none" stroke="#9a32cd" stroke-dasharray="5,2" d="M1145.19,-2.95C1195.68,2.84 1260.01,1.74 1308,-28.27 1371.91,-68.23 1395.71,-166.46 1401.79,-197.62"/>
<polygon fill="#9a32cd" stroke="#9a32cd" points="1144.45,0.49 1134.97,-4.23 1145.32,-6.46 1144.45,0.49"/>
<text text-anchor="middle" x="1237" y="-42.27" font-family="Helvetica,sans-Serif" font-size="10.00"> m_IndexedOutputs</text>
<text text-anchor="middle" x="1237" y="-31.27" font-family="Helvetica,sans-Serif" font-size="10.00">m_IndexedInputs</text>
</g>
<!-- Node22 -->
<g id="node22" class="node">
<title>Node22</title>
<g id="a_node22"><a xlink:title="STL iterator class.">
<polygon fill="white" stroke="#bfbfbf" points="683,-9.77 683,-28.77 826,-28.77 826,-9.77 683,-9.77"/>
<text text-anchor="middle" x="754.5" y="-16.77" font-family="Helvetica,sans-Serif" font-size="10.00">std::map&lt; K, T &gt;::iterator</text>
</a>
</g>
</g>
<!-- Node22&#45;&gt;Node21 -->
<g id="edge24" class="edge">
<title>Node22&#45;&gt;Node21</title>
<path fill="none" stroke="#9a32cd" stroke-dasharray="5,2" d="M836.39,-19.27C880.34,-19.27 934.61,-19.27 978.97,-19.27"/>
<polygon fill="#9a32cd" stroke="#9a32cd" points="836.32,-15.77 826.32,-19.27 836.32,-22.77 836.32,-15.77"/>
<text text-anchor="middle" x="902.5" y="-22.27" font-family="Helvetica,sans-Serif" font-size="10.00"> elements</text>
</g>
<!-- Node23&#45;&gt;Node4 -->
<g id="edge25" class="edge">
<title>Node23&#45;&gt;Node4</title>
<path fill="none" stroke="#9a32cd" stroke-dasharray="5,2" d="M1158.43,-352.9C1205.76,-348.74 1262.58,-338.21 1308,-313.27 1351.42,-289.42 1385.29,-238.14 1398.02,-216.84"/>
<polygon fill="#9a32cd" stroke="#9a32cd" points="1157.87,-349.44 1148.18,-353.72 1158.43,-356.42 1157.87,-349.44"/>
<text text-anchor="middle" x="1237" y="-365.27" font-family="Helvetica,sans-Serif" font-size="10.00"> m_Outputs</text>
<text text-anchor="middle" x="1237" y="-354.27" font-family="Helvetica,sans-Serif" font-size="10.00">m_Inputs</text>
</g>
<!-- Node24 -->
<g id="node24" class="node">
<title>Node24</title>
<g id="a_node24"><a xlink:href="classitk_1_1SmartPointer.html" target="_top" xlink:title=" ">
<polygon fill="white" stroke="black" points="701,-341.27 701,-371.27 808,-371.27 808,-341.27 701,-341.27"/>
<text text-anchor="start" x="709" y="-359.27" font-family="Helvetica,sans-Serif" font-size="10.00">itk::SmartPointer&lt;</text>
<text text-anchor="middle" x="754.5" y="-348.27" font-family="Helvetica,sans-Serif" font-size="10.00"> Self &gt;</text>
</a>
</g>
</g>
<!-- Node24&#45;&gt;Node23 -->
<g id="edge26" class="edge">
<title>Node24&#45;&gt;Node23</title>
<path fill="none" stroke="#9a32cd" stroke-dasharray="5,2" d="M818.49,-355.86C864.84,-355.55 928.33,-355.14 978.92,-354.81"/>
<polygon fill="#9a32cd" stroke="#9a32cd" points="818.25,-352.36 808.28,-355.92 818.3,-359.36 818.25,-352.36"/>
<text text-anchor="middle" x="902.5" y="-358.27" font-family="Helvetica,sans-Serif" font-size="10.00"> elements</text>
</g>
<!-- Node25 -->
<g id="node25" class="node">
<title>Node25</title>
<g id="a_node25"><a xlink:href="classitk_1_1SmartPointer.html" target="_top" xlink:title=" ">
<polygon fill="white" stroke="black" points="992.5,-192.27 992.5,-222.27 1134.5,-222.27 1134.5,-192.27 992.5,-192.27"/>
<text text-anchor="start" x="1000.5" y="-210.27" font-family="Helvetica,sans-Serif" font-size="10.00">itk::SmartPointer&lt;</text>
<text text-anchor="middle" x="1063.5" y="-199.27" font-family="Helvetica,sans-Serif" font-size="10.00"> itk::MultiThreaderBase &gt;</text>
</a>
</g>
</g>
<!-- Node25&#45;&gt;Node4 -->
<g id="edge28" class="edge">
<title>Node25&#45;&gt;Node4</title>
<path fill="none" stroke="#9a32cd" stroke-dasharray="5,2" d="M1144.85,-207.27C1209.15,-207.27 1297.38,-207.27 1352.38,-207.27"/>
<polygon fill="#9a32cd" stroke="#9a32cd" points="1144.74,-203.77 1134.74,-207.27 1144.74,-210.77 1144.74,-203.77"/>
<text text-anchor="middle" x="1237" y="-210.27" font-family="Helvetica,sans-Serif" font-size="10.00"> m_MultiThreader</text>
</g>
<!-- Node26 -->
<g id="node26" class="node">
<title>Node26</title>
<g id="a_node26"><a xlink:href="structitk_1_1ImageSourceCommon.html" target="_top" xlink:title="Secondary base class of ImageSource common between templates.">
<polygon fill="white" stroke="black" points="1333,-313.77 1333,-332.77 1476,-332.77 1476,-313.77 1333,-313.77"/>
<text text-anchor="middle" x="1404.5" y="-320.77" font-family="Helvetica,sans-Serif" font-size="10.00">itk::ImageSourceCommon</text>
</a>
</g>
</g>
<!-- Node26&#45;&gt;Node3 -->
<g id="edge30" class="edge">
<title>Node26&#45;&gt;Node3</title>
<path fill="none" stroke="#8b1a1a" d="M1486.44,-323.27C1502.99,-323.27 1520.27,-323.27 1536.41,-323.27"/>
<polygon fill="#8b1a1a" stroke="#8b1a1a" points="1486.26,-319.77 1476.26,-323.27 1486.26,-326.77 1486.26,-319.77"/>
</g>
<!-- Node27 -->
<g id="node27" class="node">
<title>Node27</title>
<g id="a_node27"><a xlink:href="classitk_1_1ImageToImageFilterCommon.html" target="_top" xlink:title="Secondary base class of ImageToImageFilter common between templates.">
<polygon fill="white" stroke="black" points="1520,-269.77 1520,-288.77 1696,-288.77 1696,-269.77 1520,-269.77"/>
<text text-anchor="middle" x="1608" y="-276.77" font-family="Helvetica,sans-Serif" font-size="10.00">itk::ImageToImageFilterCommon</text>
</a>
</g>
</g>
<!-- Node27&#45;&gt;Node2 -->
<g id="edge31" class="edge">
<title>Node27&#45;&gt;Node2</title>
<path fill="none" stroke="#8b1a1a" d="M1706.1,-285.56C1732.63,-287.27 1761.16,-289.12 1786.92,-290.79"/>
<polygon fill="#8b1a1a" stroke="#8b1a1a" points="1706.25,-282.06 1696.04,-284.9 1705.8,-289.04 1706.25,-282.06"/>
</g>
<!-- Node28 -->
<g id="node28" class="node">
<title>Node28</title>
<g id="a_node28"><a xlink:title=" ">
<polygon fill="white" stroke="#bfbfbf" points="1781,-221.27 1781,-251.27 1964,-251.27 1964,-221.27 1781,-221.27"/>
<text text-anchor="start" x="1789" y="-239.27" font-family="Helvetica,sans-Serif" font-size="10.00">std::unordered_map</text>
<text text-anchor="middle" x="1872.5" y="-228.27" font-family="Helvetica,sans-Serif" font-size="10.00">&lt; LabelType, LabelSetMeasures &gt;</text>
</a>
</g>
</g>
<!-- Node28&#45;&gt;Node1 -->
<g id="edge32" class="edge">
<title>Node28&#45;&gt;Node1</title>
<path fill="none" stroke="#9a32cd" stroke-dasharray="5,2" d="M1961.9,-253.24C2007.82,-262.06 2063.44,-272.74 2107.79,-281.25"/>
<polygon fill="#9a32cd" stroke="#9a32cd" points="1962.43,-249.78 1951.95,-251.33 1961.11,-256.65 1962.43,-249.78"/>
<text text-anchor="middle" x="2036" y="-279.27" font-family="Helvetica,sans-Serif" font-size="10.00"> m_LabelSetMeasures</text>
</g>
<!-- Node29 -->
<g id="node29" class="node">
<title>Node29</title>
<g id="a_node29"><a xlink:href="classitk_1_1LabelOverlapMeasuresImageFilter_1_1LabelSetMeasures.html" target="_top" xlink:title="Metrics stored per label.">
<polygon fill="white" stroke="black" points="1534.5,-209.77 1534.5,-250.77 1681.5,-250.77 1681.5,-209.77 1534.5,-209.77"/>
<text text-anchor="start" x="1542.5" y="-238.77" font-family="Helvetica,sans-Serif" font-size="10.00">itk::LabelOverlapMeasures</text>
<text text-anchor="start" x="1542.5" y="-227.77" font-family="Helvetica,sans-Serif" font-size="10.00">ImageFilter&lt; TLabelImage</text>
<text text-anchor="middle" x="1608" y="-216.77" font-family="Helvetica,sans-Serif" font-size="10.00"> &gt;::LabelSetMeasures</text>
</a>
</g>
</g>
<!-- Node29&#45;&gt;Node28 -->
<g id="edge33" class="edge">
<title>Node29&#45;&gt;Node28</title>
<path fill="none" stroke="#9a32cd" stroke-dasharray="5,2" d="M1692.01,-232.16C1720.25,-232.81 1751.96,-233.53 1780.77,-234.19"/>
<polygon fill="#9a32cd" stroke="#9a32cd" points="1691.85,-228.66 1681.77,-231.93 1691.69,-235.66 1691.85,-228.66"/>
<text text-anchor="middle" x="1738.5" y="-237.27" font-family="Helvetica,sans-Serif" font-size="10.00"> elements</text>
</g>
<!-- Node30 -->
<g id="node30" class="node">
<title>Node30</title>
<g id="a_node30"><a xlink:title=" ">
<polygon fill="white" stroke="#bfbfbf" points="531,-346.77 531,-365.77 665,-365.77 665,-346.77 531,-346.77"/>
<text text-anchor="middle" x="598" y="-353.77" font-family="Helvetica,sans-Serif" font-size="10.00">std::vector&lt; MapType &gt;</text>
</a>
</g>
</g>
<!-- Node30&#45;&gt;Node1 -->
<g id="edge34" class="edge">
<title>Node30&#45;&gt;Node1</title>
<path fill="none" stroke="#9a32cd" stroke-dasharray="5,2" d="M635.56,-368.9C650.15,-373.48 667.21,-378.26 683,-381.27 778.76,-399.49 804.02,-400.27 901.5,-400.27 901.5,-400.27 901.5,-400.27 1873.5,-400.27 1984.71,-400.27 2107.32,-340.23 2159.82,-311.39"/>
<polygon fill="#9a32cd" stroke="#9a32cd" points="636.49,-365.52 625.89,-365.79 634.34,-372.19 636.49,-365.52"/>
<text text-anchor="middle" x="1404.5" y="-403.27" font-family="Helvetica,sans-Serif" font-size="10.00"> m_LabelSetMeasuresPerThread</text>
</g>
<!-- Node31&#45;&gt;Node30 -->
<g id="edge35" class="edge">
<title>Node31&#45;&gt;Node30</title>
<path fill="none" stroke="#9a32cd" stroke-dasharray="5,2" d="M238.37,-314.08C318.16,-323.46 451.23,-339.12 530.89,-348.49"/>
<polygon fill="#9a32cd" stroke="#9a32cd" points="238.78,-310.6 228.44,-312.91 237.96,-317.55 238.78,-310.6"/>
<text text-anchor="middle" x="296" y="-328.27" font-family="Helvetica,sans-Serif" font-size="10.00"> elements</text>
</g>
</g>
</svg>
