<?xml version="1.0" encoding="UTF-8" standalone="no"?>
<!DOCTYPE svg PUBLIC "-//W3C//DTD SVG 1.1//EN"
 "http://www.w3.org/Graphics/SVG/1.1/DTD/svg11.dtd">
<!-- Generated by graphviz version 2.43.0 (0)
 -->
<!-- Title: itk::SegmentationLevelSetFunction&lt; TImageType, TFeatureImageType &gt; Pages: 1 -->
<svg width="875pt" height="50pt"
 viewBox="0.00 0.00 875.00 50.00" xmlns="http://www.w3.org/2000/svg" xmlns:xlink="http://www.w3.org/1999/xlink">
<g id="graph0" class="graph" transform="scale(1 1) rotate(0) translate(4 46)">
<title>itk::SegmentationLevelSetFunction&lt; TImageType, TFeatureImageType &gt;</title>
<polygon fill="white" stroke="transparent" points="-4,4 -4,-46 871,-46 871,4 -4,4"/>
<!-- Node1 -->
<g id="node1" class="node">
<title>Node1</title>
<g id="a_node1"><a xlink:title=" ">
<polygon fill="#bfbfbf" stroke="black" points="472,-0.5 472,-41.5 649,-41.5 649,-0.5 472,-0.5"/>
<text text-anchor="start" x="480" y="-29.5" font-family="Helvetica,sans-Serif" font-size="10.00">itk::SegmentationLevelSet</text>
<text text-anchor="start" x="480" y="-18.5" font-family="Helvetica,sans-Serif" font-size="10.00">Function&lt; TImageType, TFeature</text>
<text text-anchor="middle" x="560.5" y="-7.5" font-family="Helvetica,sans-Serif" font-size="10.00">ImageType &gt;</text>
</a>
</g>
</g>
<!-- Node5 -->
<g id="node5" class="node">
<title>Node5</title>
<g id="a_node5"><a xlink:href="classitk_1_1VectorThresholdSegmentationLevelSetFunction.html" target="_top" xlink:title="This function is used in VectorThresholdSegmentationLevelSetImageFilter to segment structures in imag...">
<polygon fill="white" stroke="black" points="685,-0.5 685,-41.5 867,-41.5 867,-0.5 685,-0.5"/>
<text text-anchor="start" x="693" y="-29.5" font-family="Helvetica,sans-Serif" font-size="10.00">itk::VectorThresholdSegmentation</text>
<text text-anchor="start" x="693" y="-18.5" font-family="Helvetica,sans-Serif" font-size="10.00">LevelSetFunction&lt; TImageType,</text>
<text text-anchor="middle" x="776" y="-7.5" font-family="Helvetica,sans-Serif" font-size="10.00"> TFeatureImageType &gt;</text>
</a>
</g>
</g>
<!-- Node1&#45;&gt;Node5 -->
<g id="edge4" class="edge">
<title>Node1&#45;&gt;Node5</title>
<path fill="none" stroke="midnightblue" d="M659.5,-21C667.94,-21 676.44,-21 684.81,-21"/>
<polygon fill="midnightblue" stroke="midnightblue" points="659.26,-17.5 649.26,-21 659.26,-24.5 659.26,-17.5"/>
</g>
<!-- Node2 -->
<g id="node2" class="node">
<title>Node2</title>
<g id="a_node2"><a xlink:href="classitk_1_1LevelSetFunction.html" target="_top" xlink:title="The LevelSetFunction class is a generic function object which can be used to create a level set metho...">
<polygon fill="white" stroke="black" points="317,-6 317,-36 436,-36 436,-6 317,-6"/>
<text text-anchor="start" x="325" y="-24" font-family="Helvetica,sans-Serif" font-size="10.00">itk::LevelSetFunction</text>
<text text-anchor="middle" x="376.5" y="-13" font-family="Helvetica,sans-Serif" font-size="10.00">&lt; TImageType &gt;</text>
</a>
</g>
</g>
<!-- Node2&#45;&gt;Node1 -->
<g id="edge1" class="edge">
<title>Node2&#45;&gt;Node1</title>
<path fill="none" stroke="midnightblue" d="M446.18,-21C454.57,-21 463.24,-21 471.87,-21"/>
<polygon fill="midnightblue" stroke="midnightblue" points="446.09,-17.5 436.09,-21 446.09,-24.5 446.09,-17.5"/>
</g>
<!-- Node3 -->
<g id="node3" class="node">
<title>Node3</title>
<g id="a_node3"><a xlink:href="classitk_1_1FiniteDifferenceFunction.html" target="_top" xlink:title=" ">
<polygon fill="white" stroke="black" points="127,-6 127,-36 281,-36 281,-6 127,-6"/>
<text text-anchor="start" x="135" y="-24" font-family="Helvetica,sans-Serif" font-size="10.00">itk::FiniteDifferenceFunction</text>
<text text-anchor="middle" x="204" y="-13" font-family="Helvetica,sans-Serif" font-size="10.00">&lt; TImageType &gt;</text>
</a>
</g>
</g>
<!-- Node3&#45;&gt;Node2 -->
<g id="edge2" class="edge">
<title>Node3&#45;&gt;Node2</title>
<path fill="none" stroke="midnightblue" d="M291.41,-21C300.05,-21 308.68,-21 316.94,-21"/>
<polygon fill="midnightblue" stroke="midnightblue" points="291.27,-17.5 281.27,-21 291.27,-24.5 291.27,-17.5"/>
</g>
<!-- Node4 -->
<g id="node4" class="node">
<title>Node4</title>
<g id="a_node4"><a xlink:href="classitk_1_1LightObject.html" target="_top" xlink:title="Light weight base class for most itk classes.">
<polygon fill="white" stroke="black" points="0,-11.5 0,-30.5 91,-30.5 91,-11.5 0,-11.5"/>
<text text-anchor="middle" x="45.5" y="-18.5" font-family="Helvetica,sans-Serif" font-size="10.00">itk::LightObject</text>
</a>
</g>
</g>
<!-- Node4&#45;&gt;Node3 -->
<g id="edge3" class="edge">
<title>Node4&#45;&gt;Node3</title>
<path fill="none" stroke="midnightblue" d="M101.5,-21C109.7,-21 118.28,-21 126.82,-21"/>
<polygon fill="midnightblue" stroke="midnightblue" points="101.35,-17.5 91.35,-21 101.35,-24.5 101.35,-17.5"/>
</g>
</g>
</svg>
