<?xml version="1.0" encoding="UTF-8" standalone="no"?>
<!DOCTYPE svg PUBLIC "-//W3C//DTD SVG 1.1//EN"
 "http://www.w3.org/Graphics/SVG/1.1/DTD/svg11.dtd">
<!-- Generated by graphviz version 2.43.0 (0)
 -->
<!-- Title: itk::FastMarchingQuadEdgeMeshFilterBase&lt; TInput, TOutput &gt; Pages: 1 -->
<svg width="157pt" height="195pt"
 viewBox="0.00 0.00 157.00 195.00" xmlns="http://www.w3.org/2000/svg" xmlns:xlink="http://www.w3.org/1999/xlink">
<g id="graph0" class="graph" transform="scale(1 1) rotate(0) translate(4 191)">
<title>itk::FastMarchingQuadEdgeMeshFilterBase&lt; TInput, TOutput &gt;</title>
<polygon fill="white" stroke="transparent" points="-4,4 -4,-191 153,-191 153,4 -4,4"/>
<!-- Node1 -->
<g id="node1" class="node">
<title>Node1</title>
<g id="a_node1"><a xlink:title="Fast Marching Method on QuadEdgeMesh.">
<polygon fill="#bfbfbf" stroke="black" points="0,-0.5 0,-41.5 149,-41.5 149,-0.5 0,-0.5"/>
<text text-anchor="start" x="8" y="-29.5" font-family="Helvetica,sans-Serif" font-size="10.00">itk::FastMarchingQuadEdge</text>
<text text-anchor="start" x="8" y="-18.5" font-family="Helvetica,sans-Serif" font-size="10.00">MeshFilterBase&lt; TInput,</text>
<text text-anchor="middle" x="74.5" y="-7.5" font-family="Helvetica,sans-Serif" font-size="10.00"> TOutput &gt;</text>
</a>
</g>
</g>
<!-- Node2 -->
<g id="node2" class="node">
<title>Node2</title>
<g id="a_node2"><a xlink:href="classitk_1_1FastMarchingBase.html" target="_top" xlink:title="Abstract class to solve an Eikonal based&#45;equation using Fast Marching Method.">
<polygon fill="white" stroke="black" points="12.5,-78.5 12.5,-108.5 136.5,-108.5 136.5,-78.5 12.5,-78.5"/>
<text text-anchor="start" x="20.5" y="-96.5" font-family="Helvetica,sans-Serif" font-size="10.00">itk::FastMarchingBase</text>
<text text-anchor="middle" x="74.5" y="-85.5" font-family="Helvetica,sans-Serif" font-size="10.00">&lt; TInput, TOutput &gt;</text>
</a>
</g>
</g>
<!-- Node2&#45;&gt;Node1 -->
<g id="edge1" class="edge">
<title>Node2&#45;&gt;Node1</title>
<path fill="none" stroke="midnightblue" d="M74.5,-67.98C74.5,-59.35 74.5,-49.76 74.5,-41.59"/>
<polygon fill="midnightblue" stroke="midnightblue" points="71,-68.23 74.5,-78.23 78,-68.23 71,-68.23"/>
</g>
<!-- Node3 -->
<g id="node3" class="node">
<title>Node3</title>
<g id="a_node3"><a xlink:title=" ">
<polygon fill="white" stroke="#bfbfbf" points="17,-145.5 17,-186.5 132,-186.5 132,-145.5 17,-145.5"/>
<text text-anchor="start" x="25" y="-174.5" font-family="Helvetica,sans-Serif" font-size="10.00">FastMarchingTraits</text>
<text text-anchor="start" x="25" y="-163.5" font-family="Helvetica,sans-Serif" font-size="10.00">&lt; TInput, TOutput &gt;</text>
<text text-anchor="middle" x="74.5" y="-152.5" font-family="Helvetica,sans-Serif" font-size="10.00">::SuperclassType</text>
</a>
</g>
</g>
<!-- Node3&#45;&gt;Node2 -->
<g id="edge2" class="edge">
<title>Node3&#45;&gt;Node2</title>
<path fill="none" stroke="midnightblue" d="M74.5,-135.08C74.5,-126.01 74.5,-116.45 74.5,-108.89"/>
<polygon fill="midnightblue" stroke="midnightblue" points="71,-135.36 74.5,-145.36 78,-135.36 71,-135.36"/>
</g>
</g>
</svg>
