<?xml version="1.0" encoding="UTF-8" standalone="no"?>
<!DOCTYPE svg PUBLIC "-//W3C//DTD SVG 1.1//EN"
 "http://www.w3.org/Graphics/SVG/1.1/DTD/svg11.dtd">
<!-- Generated by graphviz version 2.43.0 (0)
 -->
<!-- Title: itk::KernelImageFilter&lt; TInputImage, TOutputImage, TKernel &gt; Pages: 1 -->
<svg width="2137pt" height="992pt"
 viewBox="0.00 0.00 2137.00 991.50" xmlns="http://www.w3.org/2000/svg" xmlns:xlink="http://www.w3.org/1999/xlink">
<g id="graph0" class="graph" transform="scale(1 1) rotate(0) translate(4 987.5)">
<title>itk::KernelImageFilter&lt; TInputImage, TOutputImage, TKernel &gt;</title>
<polygon fill="white" stroke="transparent" points="-4,4 -4,-987.5 2133,-987.5 2133,4 -4,4"/>
<!-- Node1 -->
<g id="node1" class="node">
<title>Node1</title>
<g id="a_node1"><a xlink:title="A base class for all the filters working on an arbitrary shaped neighborhood.">
<polygon fill="#bfbfbf" stroke="black" points="1045,-612 1045,-653 1213,-653 1213,-612 1045,-612"/>
<text text-anchor="start" x="1053" y="-641" font-family="Helvetica,sans-Serif" font-size="10.00">itk::KernelImageFilter</text>
<text text-anchor="start" x="1053" y="-630" font-family="Helvetica,sans-Serif" font-size="10.00">&lt; TInputImage, TOutputImage,</text>
<text text-anchor="middle" x="1129" y="-619" font-family="Helvetica,sans-Serif" font-size="10.00"> TKernel &gt;</text>
</a>
</g>
</g>
<!-- Node10 -->
<g id="node10" class="node">
<title>Node10</title>
<g id="a_node10"><a xlink:href="classitk_1_1BinaryMorphologicalClosingImageFilter.html" target="_top" xlink:title="binary morphological closing of an image.">
<polygon fill="white" stroke="black" points="1253.5,-942 1253.5,-983 1437.5,-983 1437.5,-942 1253.5,-942"/>
<text text-anchor="start" x="1261.5" y="-971" font-family="Helvetica,sans-Serif" font-size="10.00">itk::BinaryMorphological</text>
<text text-anchor="start" x="1261.5" y="-960" font-family="Helvetica,sans-Serif" font-size="10.00">ClosingImageFilter&lt; TInputImage,</text>
<text text-anchor="middle" x="1345.5" y="-949" font-family="Helvetica,sans-Serif" font-size="10.00"> TOutputImage, TKernel &gt;</text>
</a>
</g>
</g>
<!-- Node1&#45;&gt;Node10 -->
<g id="edge9" class="edge">
<title>Node1&#45;&gt;Node10</title>
<path fill="none" stroke="midnightblue" d="M1133.5,-663.43C1142,-723.91 1169.24,-858.38 1249,-932.5 1252.82,-936.05 1257.05,-939.18 1261.56,-941.94"/>
<polygon fill="midnightblue" stroke="midnightblue" points="1136.95,-662.82 1132.17,-653.37 1130.01,-663.74 1136.95,-662.82"/>
</g>
<!-- Node11 -->
<g id="node11" class="node">
<title>Node11</title>
<g id="a_node11"><a xlink:href="classitk_1_1BinaryMorphologicalOpeningImageFilter.html" target="_top" xlink:title="binary morphological opening of an image.">
<polygon fill="white" stroke="black" points="1251.5,-882 1251.5,-923 1439.5,-923 1439.5,-882 1251.5,-882"/>
<text text-anchor="start" x="1259.5" y="-911" font-family="Helvetica,sans-Serif" font-size="10.00">itk::BinaryMorphological</text>
<text text-anchor="start" x="1259.5" y="-900" font-family="Helvetica,sans-Serif" font-size="10.00">OpeningImageFilter&lt; TInputImage,</text>
<text text-anchor="middle" x="1345.5" y="-889" font-family="Helvetica,sans-Serif" font-size="10.00"> TOutputImage, TKernel &gt;</text>
</a>
</g>
</g>
<!-- Node1&#45;&gt;Node11 -->
<g id="edge10" class="edge">
<title>Node1&#45;&gt;Node11</title>
<path fill="none" stroke="midnightblue" d="M1136.85,-663C1149.83,-713.85 1182.86,-815.95 1249,-872.5 1253.09,-876 1257.6,-879.09 1262.35,-881.83"/>
<polygon fill="midnightblue" stroke="midnightblue" points="1140.23,-662.12 1134.44,-653.25 1133.44,-663.8 1140.23,-662.12"/>
</g>
<!-- Node12 -->
<g id="node12" class="node">
<title>Node12</title>
<g id="a_node12"><a xlink:href="classitk_1_1BinaryMorphologyImageFilter.html" target="_top" xlink:title="Base class for fast binary dilation and erosion.">
<polygon fill="white" stroke="black" points="1249,-822 1249,-863 1442,-863 1442,-822 1249,-822"/>
<text text-anchor="start" x="1257" y="-851" font-family="Helvetica,sans-Serif" font-size="10.00">itk::BinaryMorphologyImage</text>
<text text-anchor="start" x="1257" y="-840" font-family="Helvetica,sans-Serif" font-size="10.00">Filter&lt; TInputImage, TOutputImage,</text>
<text text-anchor="middle" x="1345.5" y="-829" font-family="Helvetica,sans-Serif" font-size="10.00"> TKernel &gt;</text>
</a>
</g>
</g>
<!-- Node1&#45;&gt;Node12 -->
<g id="edge11" class="edge">
<title>Node1&#45;&gt;Node12</title>
<path fill="none" stroke="midnightblue" d="M1142.03,-662.32C1159.65,-702.27 1196.2,-772.73 1249,-812.5 1253.72,-816.05 1258.87,-819.19 1264.25,-821.97"/>
<polygon fill="midnightblue" stroke="midnightblue" points="1145.23,-660.9 1138.07,-653.09 1138.8,-663.66 1145.23,-660.9"/>
</g>
<!-- Node16 -->
<g id="node16" class="node">
<title>Node16</title>
<g id="a_node16"><a xlink:href="classitk_1_1BlackTopHatImageFilter.html" target="_top" xlink:title="Black top hat extracts local minima that are smaller than the structuring element.">
<polygon fill="white" stroke="black" points="1261.5,-762 1261.5,-803 1429.5,-803 1429.5,-762 1261.5,-762"/>
<text text-anchor="start" x="1269.5" y="-791" font-family="Helvetica,sans-Serif" font-size="10.00">itk::BlackTopHatImageFilter</text>
<text text-anchor="start" x="1269.5" y="-780" font-family="Helvetica,sans-Serif" font-size="10.00">&lt; TInputImage, TOutputImage,</text>
<text text-anchor="middle" x="1345.5" y="-769" font-family="Helvetica,sans-Serif" font-size="10.00"> TKernel &gt;</text>
</a>
</g>
</g>
<!-- Node1&#45;&gt;Node16 -->
<g id="edge15" class="edge">
<title>Node1&#45;&gt;Node16</title>
<path fill="none" stroke="midnightblue" d="M1151.69,-661.35C1173.5,-688.49 1209.48,-728.44 1249,-752.5 1254.79,-756.03 1261.03,-759.17 1267.45,-761.98"/>
<polygon fill="midnightblue" stroke="midnightblue" points="1154.33,-659.05 1145.39,-653.38 1148.84,-663.39 1154.33,-659.05"/>
</g>
<!-- Node17 -->
<g id="node17" class="node">
<title>Node17</title>
<g id="a_node17"><a xlink:href="classitk_1_1GrayscaleDilateImageFilter.html" target="_top" xlink:title="Grayscale dilation of an image.">
<polygon fill="white" stroke="black" points="1249,-702 1249,-743 1442,-743 1442,-702 1249,-702"/>
<text text-anchor="start" x="1257" y="-731" font-family="Helvetica,sans-Serif" font-size="10.00">itk::GrayscaleDilateImage</text>
<text text-anchor="start" x="1257" y="-720" font-family="Helvetica,sans-Serif" font-size="10.00">Filter&lt; TInputImage, TOutputImage,</text>
<text text-anchor="middle" x="1345.5" y="-709" font-family="Helvetica,sans-Serif" font-size="10.00"> TKernel &gt;</text>
</a>
</g>
</g>
<!-- Node1&#45;&gt;Node17 -->
<g id="edge16" class="edge">
<title>Node1&#45;&gt;Node17</title>
<path fill="none" stroke="midnightblue" d="M1175.81,-657.8C1197.6,-669.25 1224.24,-682.45 1249,-692.5 1257.13,-695.8 1265.77,-698.97 1274.4,-701.92"/>
<polygon fill="midnightblue" stroke="midnightblue" points="1177.27,-654.61 1166.79,-653.01 1173.99,-660.79 1177.27,-654.61"/>
</g>
<!-- Node18 -->
<g id="node18" class="node">
<title>Node18</title>
<g id="a_node18"><a xlink:href="classitk_1_1GrayscaleErodeImageFilter.html" target="_top" xlink:title="Grayscale erosion of an image.">
<polygon fill="white" stroke="black" points="1266,-642 1266,-683 1425,-683 1425,-642 1266,-642"/>
<text text-anchor="start" x="1274" y="-671" font-family="Helvetica,sans-Serif" font-size="10.00">itk::GrayscaleErodeImage</text>
<text text-anchor="start" x="1274" y="-660" font-family="Helvetica,sans-Serif" font-size="10.00">Filter&lt; TInputImage, TOutput</text>
<text text-anchor="middle" x="1345.5" y="-649" font-family="Helvetica,sans-Serif" font-size="10.00">Image, TKernel &gt;</text>
</a>
</g>
</g>
<!-- Node1&#45;&gt;Node18 -->
<g id="edge17" class="edge">
<title>Node1&#45;&gt;Node18</title>
<path fill="none" stroke="midnightblue" d="M1223.47,-645.57C1237.62,-647.55 1252.09,-649.58 1265.88,-651.5"/>
<polygon fill="midnightblue" stroke="midnightblue" points="1223.63,-642.06 1213.24,-644.14 1222.66,-648.99 1223.63,-642.06"/>
</g>
<!-- Node19 -->
<g id="node19" class="node">
<title>Node19</title>
<g id="a_node19"><a xlink:href="classitk_1_1GrayscaleMorphologicalClosingImageFilter.html" target="_top" xlink:title="Grayscale closing of an image.">
<polygon fill="white" stroke="black" points="1253.5,-582 1253.5,-623 1437.5,-623 1437.5,-582 1253.5,-582"/>
<text text-anchor="start" x="1261.5" y="-611" font-family="Helvetica,sans-Serif" font-size="10.00">itk::GrayscaleMorphological</text>
<text text-anchor="start" x="1261.5" y="-600" font-family="Helvetica,sans-Serif" font-size="10.00">ClosingImageFilter&lt; TInputImage,</text>
<text text-anchor="middle" x="1345.5" y="-589" font-family="Helvetica,sans-Serif" font-size="10.00"> TOutputImage, TKernel &gt;</text>
</a>
</g>
</g>
<!-- Node1&#45;&gt;Node19 -->
<g id="edge18" class="edge">
<title>Node1&#45;&gt;Node19</title>
<path fill="none" stroke="midnightblue" d="M1223.21,-619.46C1233.26,-618.06 1243.47,-616.63 1253.48,-615.23"/>
<polygon fill="midnightblue" stroke="midnightblue" points="1222.66,-616.01 1213.24,-620.86 1223.63,-622.94 1222.66,-616.01"/>
</g>
<!-- Node20 -->
<g id="node20" class="node">
<title>Node20</title>
<g id="a_node20"><a xlink:href="classitk_1_1GrayscaleMorphologicalOpeningImageFilter.html" target="_top" xlink:title="Grayscale opening of an image.">
<polygon fill="white" stroke="black" points="1251.5,-522 1251.5,-563 1439.5,-563 1439.5,-522 1251.5,-522"/>
<text text-anchor="start" x="1259.5" y="-551" font-family="Helvetica,sans-Serif" font-size="10.00">itk::GrayscaleMorphological</text>
<text text-anchor="start" x="1259.5" y="-540" font-family="Helvetica,sans-Serif" font-size="10.00">OpeningImageFilter&lt; TInputImage,</text>
<text text-anchor="middle" x="1345.5" y="-529" font-family="Helvetica,sans-Serif" font-size="10.00"> TOutputImage, TKernel &gt;</text>
</a>
</g>
</g>
<!-- Node1&#45;&gt;Node20 -->
<g id="edge19" class="edge">
<title>Node1&#45;&gt;Node20</title>
<path fill="none" stroke="midnightblue" d="M1175.81,-607.2C1197.6,-595.75 1224.24,-582.55 1249,-572.5 1257.13,-569.2 1265.77,-566.03 1274.4,-563.08"/>
<polygon fill="midnightblue" stroke="midnightblue" points="1173.99,-604.21 1166.79,-611.99 1177.27,-610.39 1173.99,-604.21"/>
</g>
<!-- Node21 -->
<g id="node21" class="node">
<title>Node21</title>
<g id="a_node21"><a xlink:href="classitk_1_1MorphologicalGradientImageFilter.html" target="_top" xlink:title="Compute the gradient of a grayscale image.">
<polygon fill="white" stroke="black" points="1271.5,-462 1271.5,-503 1419.5,-503 1419.5,-462 1271.5,-462"/>
<text text-anchor="start" x="1279.5" y="-491" font-family="Helvetica,sans-Serif" font-size="10.00">itk::MorphologicalGradient</text>
<text text-anchor="start" x="1279.5" y="-480" font-family="Helvetica,sans-Serif" font-size="10.00">ImageFilter&lt; TInputImage,</text>
<text text-anchor="middle" x="1345.5" y="-469" font-family="Helvetica,sans-Serif" font-size="10.00"> TOutputImage, TKernel &gt;</text>
</a>
</g>
</g>
<!-- Node1&#45;&gt;Node21 -->
<g id="edge20" class="edge">
<title>Node1&#45;&gt;Node21</title>
<path fill="none" stroke="midnightblue" d="M1151.69,-603.65C1173.5,-576.51 1209.48,-536.56 1249,-512.5 1255.98,-508.25 1263.61,-504.55 1271.42,-501.34"/>
<polygon fill="midnightblue" stroke="midnightblue" points="1148.84,-601.61 1145.39,-611.62 1154.33,-605.95 1148.84,-601.61"/>
</g>
<!-- Node22 -->
<g id="node22" class="node">
<title>Node22</title>
<g id="a_node22"><a xlink:href="classitk_1_1MorphologyImageFilter.html" target="_top" xlink:title="Base class for the morphological operations such as erosion and dilation.">
<polygon fill="white" stroke="black" points="1261.5,-402 1261.5,-443 1429.5,-443 1429.5,-402 1261.5,-402"/>
<text text-anchor="start" x="1269.5" y="-431" font-family="Helvetica,sans-Serif" font-size="10.00">itk::MorphologyImageFilter</text>
<text text-anchor="start" x="1269.5" y="-420" font-family="Helvetica,sans-Serif" font-size="10.00">&lt; TInputImage, TOutputImage,</text>
<text text-anchor="middle" x="1345.5" y="-409" font-family="Helvetica,sans-Serif" font-size="10.00"> TKernel &gt;</text>
</a>
</g>
</g>
<!-- Node1&#45;&gt;Node22 -->
<g id="edge21" class="edge">
<title>Node1&#45;&gt;Node22</title>
<path fill="none" stroke="midnightblue" d="M1142.03,-602.68C1159.65,-562.73 1196.2,-492.27 1249,-452.5 1253.72,-448.95 1258.87,-445.81 1264.25,-443.03"/>
<polygon fill="midnightblue" stroke="midnightblue" points="1138.8,-601.34 1138.07,-611.91 1145.23,-604.1 1138.8,-601.34"/>
</g>
<!-- Node27 -->
<g id="node27" class="node">
<title>Node27</title>
<g id="a_node27"><a xlink:href="classitk_1_1MovingHistogramImageFilterBase.html" target="_top" xlink:title="Implements a generic moving histogram algorithm.">
<polygon fill="white" stroke="black" points="1269,-252 1269,-293 1422,-293 1422,-252 1269,-252"/>
<text text-anchor="start" x="1277" y="-281" font-family="Helvetica,sans-Serif" font-size="10.00">itk::MovingHistogramImage</text>
<text text-anchor="start" x="1277" y="-270" font-family="Helvetica,sans-Serif" font-size="10.00">FilterBase&lt; TInputImage,</text>
<text text-anchor="middle" x="1345.5" y="-259" font-family="Helvetica,sans-Serif" font-size="10.00"> TOutputImage, TKernel &gt;</text>
</a>
</g>
</g>
<!-- Node1&#45;&gt;Node27 -->
<g id="edge26" class="edge">
<title>Node1&#45;&gt;Node27</title>
<path fill="none" stroke="midnightblue" d="M1142.38,-602.59C1162.16,-556.09 1203.35,-464.32 1249,-392.5 1272.57,-355.42 1305.43,-316.29 1325.81,-293.15"/>
<polygon fill="midnightblue" stroke="midnightblue" points="1139.15,-601.23 1138.49,-611.81 1145.6,-603.96 1139.15,-601.23"/>
</g>
<!-- Node39 -->
<g id="node39" class="node">
<title>Node39</title>
<g id="a_node39"><a xlink:href="classitk_1_1WhiteTopHatImageFilter.html" target="_top" xlink:title="White top hat extracts local maxima that are larger than the structuring element.">
<polygon fill="white" stroke="black" points="1261.5,-192 1261.5,-233 1429.5,-233 1429.5,-192 1261.5,-192"/>
<text text-anchor="start" x="1269.5" y="-221" font-family="Helvetica,sans-Serif" font-size="10.00">itk::WhiteTopHatImageFilter</text>
<text text-anchor="start" x="1269.5" y="-210" font-family="Helvetica,sans-Serif" font-size="10.00">&lt; TInputImage, TOutputImage,</text>
<text text-anchor="middle" x="1345.5" y="-199" font-family="Helvetica,sans-Serif" font-size="10.00"> TKernel &gt;</text>
</a>
</g>
</g>
<!-- Node1&#45;&gt;Node39 -->
<g id="edge38" class="edge">
<title>Node1&#45;&gt;Node39</title>
<path fill="none" stroke="midnightblue" d="M1130.21,-601.45C1132.41,-528.38 1148.24,-344.09 1249,-242.5 1252.67,-238.8 1256.79,-235.55 1261.21,-232.71"/>
<polygon fill="midnightblue" stroke="midnightblue" points="1126.7,-601.72 1129.96,-611.8 1133.7,-601.88 1126.7,-601.72"/>
</g>
<!-- Node2 -->
<g id="node2" class="node">
<title>Node2</title>
<g id="a_node2"><a xlink:href="classitk_1_1BoxImageFilter.html" target="_top" xlink:title="A base class for all the filters working on a box neighborhood.">
<polygon fill="white" stroke="black" points="833,-617.5 833,-647.5 1009,-647.5 1009,-617.5 833,-617.5"/>
<text text-anchor="start" x="841" y="-635.5" font-family="Helvetica,sans-Serif" font-size="10.00">itk::BoxImageFilter</text>
<text text-anchor="middle" x="921" y="-624.5" font-family="Helvetica,sans-Serif" font-size="10.00">&lt; TInputImage, TOutputImage &gt;</text>
</a>
</g>
</g>
<!-- Node2&#45;&gt;Node1 -->
<g id="edge1" class="edge">
<title>Node2&#45;&gt;Node1</title>
<path fill="none" stroke="midnightblue" d="M1019.12,-632.5C1027.73,-632.5 1036.39,-632.5 1044.86,-632.5"/>
<polygon fill="midnightblue" stroke="midnightblue" points="1019.06,-629 1009.06,-632.5 1019.06,-636 1019.06,-629"/>
</g>
<!-- Node3 -->
<g id="node3" class="node">
<title>Node3</title>
<g id="a_node3"><a xlink:href="classitk_1_1ImageToImageFilter.html" target="_top" xlink:title="Base class for filters that take an image as input and produce an image as output.">
<polygon fill="white" stroke="black" points="621,-617.5 621,-647.5 797,-647.5 797,-617.5 621,-617.5"/>
<text text-anchor="start" x="629" y="-635.5" font-family="Helvetica,sans-Serif" font-size="10.00">itk::ImageToImageFilter</text>
<text text-anchor="middle" x="709" y="-624.5" font-family="Helvetica,sans-Serif" font-size="10.00">&lt; TInputImage, TOutputImage &gt;</text>
</a>
</g>
</g>
<!-- Node3&#45;&gt;Node2 -->
<g id="edge2" class="edge">
<title>Node3&#45;&gt;Node2</title>
<path fill="none" stroke="midnightblue" d="M807.46,-632.5C815.88,-632.5 824.37,-632.5 832.7,-632.5"/>
<polygon fill="midnightblue" stroke="midnightblue" points="807.23,-629 797.23,-632.5 807.23,-636 807.23,-629"/>
</g>
<!-- Node4 -->
<g id="node4" class="node">
<title>Node4</title>
<g id="a_node4"><a xlink:href="classitk_1_1ImageSource.html" target="_top" xlink:title="Base class for all process objects that output image data.">
<polygon fill="white" stroke="black" points="422.5,-639.5 422.5,-669.5 571.5,-669.5 571.5,-639.5 422.5,-639.5"/>
<text text-anchor="start" x="430.5" y="-657.5" font-family="Helvetica,sans-Serif" font-size="10.00">itk::ImageSource&lt; TOutput</text>
<text text-anchor="middle" x="497" y="-646.5" font-family="Helvetica,sans-Serif" font-size="10.00">Image &gt;</text>
</a>
</g>
</g>
<!-- Node4&#45;&gt;Node3 -->
<g id="edge3" class="edge">
<title>Node4&#45;&gt;Node3</title>
<path fill="none" stroke="midnightblue" d="M581.89,-645.71C594.67,-644.37 607.9,-642.99 620.75,-641.64"/>
<polygon fill="midnightblue" stroke="midnightblue" points="581.32,-642.25 571.74,-646.77 582.05,-649.21 581.32,-642.25"/>
</g>
<!-- Node5 -->
<g id="node5" class="node">
<title>Node5</title>
<g id="a_node5"><a xlink:href="classitk_1_1ProcessObject.html" target="_top" xlink:title="The base class for all process objects (source, filters, mappers) in the Insight data processing pipe...">
<polygon fill="white" stroke="black" points="249.5,-664 249.5,-683 353.5,-683 353.5,-664 249.5,-664"/>
<text text-anchor="middle" x="301.5" y="-671" font-family="Helvetica,sans-Serif" font-size="10.00">itk::ProcessObject</text>
</a>
</g>
</g>
<!-- Node5&#45;&gt;Node4 -->
<g id="edge4" class="edge">
<title>Node5&#45;&gt;Node4</title>
<path fill="none" stroke="midnightblue" d="M363.71,-667.49C382.35,-665.66 403.02,-663.63 422.38,-661.73"/>
<polygon fill="midnightblue" stroke="midnightblue" points="363.2,-664.02 353.59,-668.48 363.89,-670.99 363.2,-664.02"/>
</g>
<!-- Node6 -->
<g id="node6" class="node">
<title>Node6</title>
<g id="a_node6"><a xlink:href="classitk_1_1Object.html" target="_top" xlink:title="Base class for most ITK classes.">
<polygon fill="white" stroke="black" points="127,-664 127,-683 194,-683 194,-664 127,-664"/>
<text text-anchor="middle" x="160.5" y="-671" font-family="Helvetica,sans-Serif" font-size="10.00">itk::Object</text>
</a>
</g>
</g>
<!-- Node6&#45;&gt;Node5 -->
<g id="edge5" class="edge">
<title>Node6&#45;&gt;Node5</title>
<path fill="none" stroke="midnightblue" d="M204.13,-673.5C218.41,-673.5 234.48,-673.5 249.35,-673.5"/>
<polygon fill="midnightblue" stroke="midnightblue" points="204.09,-670 194.09,-673.5 204.09,-677 204.09,-670"/>
</g>
<!-- Node7 -->
<g id="node7" class="node">
<title>Node7</title>
<g id="a_node7"><a xlink:href="classitk_1_1LightObject.html" target="_top" xlink:title="Light weight base class for most itk classes.">
<polygon fill="white" stroke="black" points="0,-664 0,-683 91,-683 91,-664 0,-664"/>
<text text-anchor="middle" x="45.5" y="-671" font-family="Helvetica,sans-Serif" font-size="10.00">itk::LightObject</text>
</a>
</g>
</g>
<!-- Node7&#45;&gt;Node6 -->
<g id="edge6" class="edge">
<title>Node7&#45;&gt;Node6</title>
<path fill="none" stroke="midnightblue" d="M101.28,-673.5C109.96,-673.5 118.69,-673.5 126.66,-673.5"/>
<polygon fill="midnightblue" stroke="midnightblue" points="101.16,-670 91.16,-673.5 101.16,-677 101.16,-670"/>
</g>
<!-- Node8 -->
<g id="node8" class="node">
<title>Node8</title>
<g id="a_node8"><a xlink:href="structitk_1_1ImageSourceCommon.html" target="_top" xlink:title="Secondary base class of ImageSource common between templates.">
<polygon fill="white" stroke="black" points="230,-626 230,-645 373,-645 373,-626 230,-626"/>
<text text-anchor="middle" x="301.5" y="-633" font-family="Helvetica,sans-Serif" font-size="10.00">itk::ImageSourceCommon</text>
</a>
</g>
</g>
<!-- Node8&#45;&gt;Node4 -->
<g id="edge7" class="edge">
<title>Node8&#45;&gt;Node4</title>
<path fill="none" stroke="#8b1a1a" d="M383.41,-643.44C396.29,-644.71 409.56,-646.01 422.26,-647.26"/>
<polygon fill="#8b1a1a" stroke="#8b1a1a" points="383.47,-639.93 373.18,-642.44 382.79,-646.9 383.47,-639.93"/>
</g>
<!-- Node9 -->
<g id="node9" class="node">
<title>Node9</title>
<g id="a_node9"><a xlink:href="classitk_1_1ImageToImageFilterCommon.html" target="_top" xlink:title="Secondary base class of ImageToImageFilter common between templates.">
<polygon fill="white" stroke="black" points="409,-601 409,-620 585,-620 585,-601 409,-601"/>
<text text-anchor="middle" x="497" y="-608" font-family="Helvetica,sans-Serif" font-size="10.00">itk::ImageToImageFilterCommon</text>
</a>
</g>
</g>
<!-- Node9&#45;&gt;Node3 -->
<g id="edge8" class="edge">
<title>Node9&#45;&gt;Node3</title>
<path fill="none" stroke="#8b1a1a" d="M595.18,-620.68C603.69,-621.57 612.27,-622.47 620.7,-623.35"/>
<polygon fill="#8b1a1a" stroke="#8b1a1a" points="595.54,-617.2 585.23,-619.64 594.82,-624.16 595.54,-617.2"/>
</g>
<!-- Node13 -->
<g id="node13" class="node">
<title>Node13</title>
<g id="a_node13"><a xlink:href="classitk_1_1BinaryDilateImageFilter.html" target="_top" xlink:title="Fast binary dilation of a single intensity value in the image.">
<polygon fill="white" stroke="black" points="1504.5,-852 1504.5,-893 1672.5,-893 1672.5,-852 1504.5,-852"/>
<text text-anchor="start" x="1512.5" y="-881" font-family="Helvetica,sans-Serif" font-size="10.00">itk::BinaryDilateImageFilter</text>
<text text-anchor="start" x="1512.5" y="-870" font-family="Helvetica,sans-Serif" font-size="10.00">&lt; TInputImage, TOutputImage,</text>
<text text-anchor="middle" x="1588.5" y="-859" font-family="Helvetica,sans-Serif" font-size="10.00"> TKernel &gt;</text>
</a>
</g>
</g>
<!-- Node12&#45;&gt;Node13 -->
<g id="edge12" class="edge">
<title>Node12&#45;&gt;Node13</title>
<path fill="none" stroke="midnightblue" d="M1452.32,-855.67C1469.79,-857.85 1487.68,-860.07 1504.48,-862.17"/>
<polygon fill="midnightblue" stroke="midnightblue" points="1452.45,-852.16 1442.1,-854.4 1451.59,-859.11 1452.45,-852.16"/>
</g>
<!-- Node15 -->
<g id="node15" class="node">
<title>Node15</title>
<g id="a_node15"><a xlink:href="classitk_1_1BinaryErodeImageFilter.html" target="_top" xlink:title="Fast binary erosion of a single intensity value in the image.">
<polygon fill="white" stroke="black" points="1504.5,-792 1504.5,-833 1672.5,-833 1672.5,-792 1504.5,-792"/>
<text text-anchor="start" x="1512.5" y="-821" font-family="Helvetica,sans-Serif" font-size="10.00">itk::BinaryErodeImageFilter</text>
<text text-anchor="start" x="1512.5" y="-810" font-family="Helvetica,sans-Serif" font-size="10.00">&lt; TInputImage, TOutputImage,</text>
<text text-anchor="middle" x="1588.5" y="-799" font-family="Helvetica,sans-Serif" font-size="10.00"> TKernel &gt;</text>
</a>
</g>
</g>
<!-- Node12&#45;&gt;Node15 -->
<g id="edge14" class="edge">
<title>Node12&#45;&gt;Node15</title>
<path fill="none" stroke="midnightblue" d="M1452.32,-829.33C1469.79,-827.15 1487.68,-824.93 1504.48,-822.83"/>
<polygon fill="midnightblue" stroke="midnightblue" points="1451.59,-825.89 1442.1,-830.6 1452.45,-832.84 1451.59,-825.89"/>
</g>
<!-- Node14 -->
<g id="node14" class="node">
<title>Node14</title>
<g id="a_node14"><a xlink:href="classitk_1_1FastIncrementalBinaryDilateImageFilter.html" target="_top" xlink:title="Fast binary dilation.">
<polygon fill="white" stroke="black" points="1749.5,-852 1749.5,-893 1926.5,-893 1926.5,-852 1749.5,-852"/>
<text text-anchor="start" x="1757.5" y="-881" font-family="Helvetica,sans-Serif" font-size="10.00">itk::FastIncrementalBinary</text>
<text text-anchor="start" x="1757.5" y="-870" font-family="Helvetica,sans-Serif" font-size="10.00">DilateImageFilter&lt; TInputImage,</text>
<text text-anchor="middle" x="1838" y="-859" font-family="Helvetica,sans-Serif" font-size="10.00"> TOutputImage, TKernel &gt;</text>
</a>
</g>
</g>
<!-- Node13&#45;&gt;Node14 -->
<g id="edge13" class="edge">
<title>Node13&#45;&gt;Node14</title>
<path fill="none" stroke="midnightblue" d="M1682.86,-872.5C1704.7,-872.5 1727.88,-872.5 1749.46,-872.5"/>
<polygon fill="midnightblue" stroke="midnightblue" points="1682.6,-869 1672.6,-872.5 1682.6,-876 1682.6,-869"/>
</g>
<!-- Node23 -->
<g id="node23" class="node">
<title>Node23</title>
<g id="a_node23"><a xlink:href="classitk_1_1BasicDilateImageFilter.html" target="_top" xlink:title="Grayscale dilation of an image.">
<polygon fill="white" stroke="black" points="1504.5,-552 1504.5,-593 1672.5,-593 1672.5,-552 1504.5,-552"/>
<text text-anchor="start" x="1512.5" y="-581" font-family="Helvetica,sans-Serif" font-size="10.00">itk::BasicDilateImageFilter</text>
<text text-anchor="start" x="1512.5" y="-570" font-family="Helvetica,sans-Serif" font-size="10.00">&lt; TInputImage, TOutputImage,</text>
<text text-anchor="middle" x="1588.5" y="-559" font-family="Helvetica,sans-Serif" font-size="10.00"> TKernel &gt;</text>
</a>
</g>
</g>
<!-- Node22&#45;&gt;Node23 -->
<g id="edge22" class="edge">
<title>Node22&#45;&gt;Node23</title>
<path fill="none" stroke="midnightblue" d="M1437.92,-448.99C1439.32,-450.11 1440.69,-451.28 1442,-452.5 1473.6,-481.78 1445.86,-513.81 1478,-542.5 1485.65,-549.33 1494.7,-554.62 1504.28,-558.72"/>
<polygon fill="midnightblue" stroke="midnightblue" points="1439.64,-445.93 1429.43,-443.08 1435.63,-451.67 1439.64,-445.93"/>
</g>
<!-- Node24 -->
<g id="node24" class="node">
<title>Node24</title>
<g id="a_node24"><a xlink:href="classitk_1_1BasicErodeImageFilter.html" target="_top" xlink:title="Grayscale erosion of an image.">
<polygon fill="white" stroke="black" points="1504.5,-492 1504.5,-533 1672.5,-533 1672.5,-492 1504.5,-492"/>
<text text-anchor="start" x="1512.5" y="-521" font-family="Helvetica,sans-Serif" font-size="10.00">itk::BasicErodeImageFilter</text>
<text text-anchor="start" x="1512.5" y="-510" font-family="Helvetica,sans-Serif" font-size="10.00">&lt; TInputImage, TOutputImage,</text>
<text text-anchor="middle" x="1588.5" y="-499" font-family="Helvetica,sans-Serif" font-size="10.00"> TKernel &gt;</text>
</a>
</g>
</g>
<!-- Node22&#45;&gt;Node24 -->
<g id="edge23" class="edge">
<title>Node22&#45;&gt;Node24</title>
<path fill="none" stroke="midnightblue" d="M1431.12,-447.07C1434.85,-448.78 1438.5,-450.59 1442,-452.5 1460.28,-462.48 1459.54,-472.86 1478,-482.5 1486.3,-486.83 1495.29,-490.59 1504.43,-493.84"/>
<polygon fill="midnightblue" stroke="midnightblue" points="1432.27,-443.75 1421.7,-443.01 1429.5,-450.18 1432.27,-443.75"/>
</g>
<!-- Node25 -->
<g id="node25" class="node">
<title>Node25</title>
<g id="a_node25"><a xlink:href="classitk_1_1GrayscaleFunctionDilateImageFilter.html" target="_top" xlink:title="Grayscale function dilation of an image.">
<polygon fill="white" stroke="black" points="1511,-432 1511,-473 1666,-473 1666,-432 1511,-432"/>
<text text-anchor="start" x="1519" y="-461" font-family="Helvetica,sans-Serif" font-size="10.00">itk::GrayscaleFunctionDilate</text>
<text text-anchor="start" x="1519" y="-450" font-family="Helvetica,sans-Serif" font-size="10.00">ImageFilter&lt; TInputImage,</text>
<text text-anchor="middle" x="1588.5" y="-439" font-family="Helvetica,sans-Serif" font-size="10.00"> TOutputImage, TKernel &gt;</text>
</a>
</g>
</g>
<!-- Node22&#45;&gt;Node25 -->
<g id="edge24" class="edge">
<title>Node22&#45;&gt;Node25</title>
<path fill="none" stroke="midnightblue" d="M1439.73,-434.11C1463.2,-437.03 1488.13,-440.13 1510.69,-442.94"/>
<polygon fill="midnightblue" stroke="midnightblue" points="1440.13,-430.63 1429.78,-432.87 1439.27,-437.57 1440.13,-430.63"/>
</g>
<!-- Node26 -->
<g id="node26" class="node">
<title>Node26</title>
<g id="a_node26"><a xlink:href="classitk_1_1GrayscaleFunctionErodeImageFilter.html" target="_top" xlink:title="Grayscale function erosion of an image.">
<polygon fill="white" stroke="black" points="1512,-372 1512,-413 1665,-413 1665,-372 1512,-372"/>
<text text-anchor="start" x="1520" y="-401" font-family="Helvetica,sans-Serif" font-size="10.00">itk::GrayscaleFunctionErode</text>
<text text-anchor="start" x="1520" y="-390" font-family="Helvetica,sans-Serif" font-size="10.00">ImageFilter&lt; TInputImage,</text>
<text text-anchor="middle" x="1588.5" y="-379" font-family="Helvetica,sans-Serif" font-size="10.00"> TOutputImage, TKernel &gt;</text>
</a>
</g>
</g>
<!-- Node22&#45;&gt;Node26 -->
<g id="edge25" class="edge">
<title>Node22&#45;&gt;Node26</title>
<path fill="none" stroke="midnightblue" d="M1439.89,-410.87C1463.73,-407.91 1489.07,-404.75 1511.89,-401.91"/>
<polygon fill="midnightblue" stroke="midnightblue" points="1439.27,-407.43 1429.78,-412.13 1440.13,-414.37 1439.27,-407.43"/>
</g>
<!-- Node28 -->
<g id="node28" class="node">
<title>Node28</title>
<g id="a_node28"><a xlink:href="classitk_1_1MaskedMovingHistogramImageFilter.html" target="_top" xlink:title=" ">
<polygon fill="white" stroke="black" points="1508.5,-312 1508.5,-353 1668.5,-353 1668.5,-312 1508.5,-312"/>
<text text-anchor="start" x="1516.5" y="-341" font-family="Helvetica,sans-Serif" font-size="10.00">itk::MaskedMovingHistogram</text>
<text text-anchor="start" x="1516.5" y="-330" font-family="Helvetica,sans-Serif" font-size="10.00">ImageFilter&lt; TInputImage,</text>
<text text-anchor="middle" x="1588.5" y="-319" font-family="Helvetica,sans-Serif" font-size="10.00"> TOutputImage, TKernel &gt;</text>
</a>
</g>
</g>
<!-- Node27&#45;&gt;Node28 -->
<g id="edge27" class="edge">
<title>Node27&#45;&gt;Node28</title>
<path fill="none" stroke="midnightblue" d="M1431.89,-293.76C1456.81,-299.96 1483.92,-306.71 1508.43,-312.81"/>
<polygon fill="midnightblue" stroke="midnightblue" points="1432.64,-290.34 1422.09,-291.32 1430.95,-297.13 1432.64,-290.34"/>
</g>
<!-- Node29 -->
<g id="node29" class="node">
<title>Node29</title>
<g id="a_node29"><a xlink:href="classitk_1_1MovingHistogramImageFilter.html" target="_top" xlink:title="Implements a generic moving histogram algorithm.">
<polygon fill="white" stroke="black" points="1492,-252 1492,-293 1685,-293 1685,-252 1492,-252"/>
<text text-anchor="start" x="1500" y="-281" font-family="Helvetica,sans-Serif" font-size="10.00">itk::MovingHistogramImage</text>
<text text-anchor="start" x="1500" y="-270" font-family="Helvetica,sans-Serif" font-size="10.00">Filter&lt; TInputImage, TOutputImage,</text>
<text text-anchor="middle" x="1588.5" y="-259" font-family="Helvetica,sans-Serif" font-size="10.00"> TKernel &gt;</text>
</a>
</g>
</g>
<!-- Node27&#45;&gt;Node29 -->
<g id="edge28" class="edge">
<title>Node27&#45;&gt;Node29</title>
<path fill="none" stroke="midnightblue" d="M1432.34,-272.5C1451.59,-272.5 1472.14,-272.5 1491.77,-272.5"/>
<polygon fill="midnightblue" stroke="midnightblue" points="1432.09,-269 1422.09,-272.5 1432.09,-276 1432.09,-269"/>
</g>
<!-- Node31 -->
<g id="node31" class="node">
<title>Node31</title>
<g id="a_node31"><a xlink:href="classitk_1_1MovingHistogramImageFilter.html" target="_top" xlink:title=" ">
<polygon fill="white" stroke="black" points="1478,-180.5 1478,-232.5 1699,-232.5 1699,-180.5 1478,-180.5"/>
<text text-anchor="start" x="1486" y="-220.5" font-family="Helvetica,sans-Serif" font-size="10.00">MovingHistogramImageFilter</text>
<text text-anchor="start" x="1486" y="-209.5" font-family="Helvetica,sans-Serif" font-size="10.00">&lt; TInputImage, TOutputImage,</text>
<text text-anchor="start" x="1486" y="-198.5" font-family="Helvetica,sans-Serif" font-size="10.00"> TKernel, Function::MorphologicalGradient</text>
<text text-anchor="middle" x="1588.5" y="-187.5" font-family="Helvetica,sans-Serif" font-size="10.00">Histogram&lt; TInputImage::PixelType &gt; &gt;</text>
</a>
</g>
</g>
<!-- Node27&#45;&gt;Node31 -->
<g id="edge30" class="edge">
<title>Node27&#45;&gt;Node31</title>
<path fill="none" stroke="midnightblue" d="M1431.28,-249.28C1450.97,-243.89 1472.06,-238.11 1492.17,-232.61"/>
<polygon fill="midnightblue" stroke="midnightblue" points="1430.15,-245.96 1421.43,-251.98 1432,-252.71 1430.15,-245.96"/>
</g>
<!-- Node33 -->
<g id="node33" class="node">
<title>Node33</title>
<g id="a_node33"><a xlink:href="classitk_1_1MovingHistogramImageFilter.html" target="_top" xlink:title=" ">
<polygon fill="white" stroke="black" points="1479.5,-98 1479.5,-161 1697.5,-161 1697.5,-98 1479.5,-98"/>
<text text-anchor="start" x="1487.5" y="-149" font-family="Helvetica,sans-Serif" font-size="10.00">MovingHistogramImageFilter</text>
<text text-anchor="start" x="1487.5" y="-138" font-family="Helvetica,sans-Serif" font-size="10.00">&lt; TInputImage, TOutputImage,</text>
<text text-anchor="start" x="1487.5" y="-127" font-family="Helvetica,sans-Serif" font-size="10.00"> TKernel, Function::MorphologyHistogram</text>
<text text-anchor="start" x="1487.5" y="-116" font-family="Helvetica,sans-Serif" font-size="10.00">&lt; TInputImage::PixelType, std::greater</text>
<text text-anchor="middle" x="1588.5" y="-105" font-family="Helvetica,sans-Serif" font-size="10.00">&lt; TInputImage::PixelType &gt; &gt; &gt;</text>
</a>
</g>
</g>
<!-- Node27&#45;&gt;Node33 -->
<g id="edge32" class="edge">
<title>Node27&#45;&gt;Node33</title>
<path fill="none" stroke="midnightblue" d="M1430.91,-250.47C1434.83,-248.08 1438.56,-245.43 1442,-242.5 1469.23,-219.29 1451.4,-194.43 1478,-170.5 1481.77,-167.11 1485.85,-163.98 1490.14,-161.11"/>
<polygon fill="midnightblue" stroke="midnightblue" points="1429.16,-247.43 1422.05,-255.29 1432.51,-253.58 1429.16,-247.43"/>
</g>
<!-- Node36 -->
<g id="node36" class="node">
<title>Node36</title>
<g id="a_node36"><a xlink:href="classitk_1_1MovingHistogramImageFilter.html" target="_top" xlink:title=" ">
<polygon fill="white" stroke="black" points="1479.5,-11 1479.5,-74 1697.5,-74 1697.5,-11 1479.5,-11"/>
<text text-anchor="start" x="1487.5" y="-62" font-family="Helvetica,sans-Serif" font-size="10.00">MovingHistogramImageFilter</text>
<text text-anchor="start" x="1487.5" y="-51" font-family="Helvetica,sans-Serif" font-size="10.00">&lt; TInputImage, TOutputImage,</text>
<text text-anchor="start" x="1487.5" y="-40" font-family="Helvetica,sans-Serif" font-size="10.00"> TKernel, Function::MorphologyHistogram</text>
<text text-anchor="start" x="1487.5" y="-29" font-family="Helvetica,sans-Serif" font-size="10.00">&lt; TInputImage::PixelType, std::less</text>
<text text-anchor="middle" x="1588.5" y="-18" font-family="Helvetica,sans-Serif" font-size="10.00">&lt; TInputImage::PixelType &gt; &gt; &gt;</text>
</a>
</g>
</g>
<!-- Node27&#45;&gt;Node36 -->
<g id="edge35" class="edge">
<title>Node27&#45;&gt;Node36</title>
<path fill="none" stroke="midnightblue" d="M1430.99,-251.96C1434.99,-249.19 1438.7,-246.05 1442,-242.5 1489.81,-190.98 1432.64,-142.2 1478,-88.5 1482.59,-83.07 1487.93,-78.26 1493.74,-74.01"/>
<polygon fill="midnightblue" stroke="midnightblue" points="1429.17,-248.97 1422.42,-257.13 1432.79,-254.96 1429.17,-248.97"/>
</g>
<!-- Node30 -->
<g id="node30" class="node">
<title>Node30</title>
<g id="a_node30"><a xlink:href="classitk_1_1MovingHistogramMorphologyImageFilter.html" target="_top" xlink:title="Base class for MovingHistogramDilateImageFilter and MovingHistogramErodeImageFilter.">
<polygon fill="white" stroke="black" points="1735,-252 1735,-293 1941,-293 1941,-252 1735,-252"/>
<text text-anchor="start" x="1743" y="-281" font-family="Helvetica,sans-Serif" font-size="10.00">itk::MovingHistogramMorphology</text>
<text text-anchor="start" x="1743" y="-270" font-family="Helvetica,sans-Serif" font-size="10.00">ImageFilter&lt; TInputImage,</text>
<text text-anchor="middle" x="1838" y="-259" font-family="Helvetica,sans-Serif" font-size="10.00"> TOutputImage, TKernel, THistogram &gt;</text>
</a>
</g>
</g>
<!-- Node29&#45;&gt;Node30 -->
<g id="edge29" class="edge">
<title>Node29&#45;&gt;Node30</title>
<path fill="none" stroke="midnightblue" d="M1695.51,-272.5C1708.47,-272.5 1721.69,-272.5 1734.59,-272.5"/>
<polygon fill="midnightblue" stroke="midnightblue" points="1695.19,-269 1685.19,-272.5 1695.19,-276 1695.19,-269"/>
</g>
<!-- Node32 -->
<g id="node32" class="node">
<title>Node32</title>
<g id="a_node32"><a xlink:href="classitk_1_1MovingHistogramMorphologicalGradientImageFilter.html" target="_top" xlink:title="Morphological gradients enhance the variation of pixel intensity in a given neighborhood.">
<polygon fill="white" stroke="black" points="1742.5,-186 1742.5,-227 1933.5,-227 1933.5,-186 1742.5,-186"/>
<text text-anchor="start" x="1750.5" y="-215" font-family="Helvetica,sans-Serif" font-size="10.00">itk::MovingHistogramMorphological</text>
<text text-anchor="start" x="1750.5" y="-204" font-family="Helvetica,sans-Serif" font-size="10.00">GradientImageFilter&lt; TInputImage,</text>
<text text-anchor="middle" x="1838" y="-193" font-family="Helvetica,sans-Serif" font-size="10.00"> TOutputImage, TKernel &gt;</text>
</a>
</g>
</g>
<!-- Node31&#45;&gt;Node32 -->
<g id="edge31" class="edge">
<title>Node31&#45;&gt;Node32</title>
<path fill="none" stroke="midnightblue" d="M1709.26,-206.5C1720.31,-206.5 1731.4,-206.5 1742.18,-206.5"/>
<polygon fill="midnightblue" stroke="midnightblue" points="1709.14,-203 1699.14,-206.5 1709.14,-210 1709.14,-203"/>
</g>
<!-- Node34 -->
<g id="node34" class="node">
<title>Node34</title>
<g id="a_node34"><a xlink:href="classitk_1_1MovingHistogramMorphologyImageFilter.html" target="_top" xlink:title=" ">
<polygon fill="white" stroke="black" points="1736,-93.5 1736,-167.5 1940,-167.5 1940,-93.5 1736,-93.5"/>
<text text-anchor="start" x="1744" y="-155.5" font-family="Helvetica,sans-Serif" font-size="10.00">itk::MovingHistogramMorphology</text>
<text text-anchor="start" x="1744" y="-144.5" font-family="Helvetica,sans-Serif" font-size="10.00">ImageFilter&lt; TInputImage,</text>
<text text-anchor="start" x="1744" y="-133.5" font-family="Helvetica,sans-Serif" font-size="10.00"> TOutputImage, TKernel, Function</text>
<text text-anchor="start" x="1744" y="-122.5" font-family="Helvetica,sans-Serif" font-size="10.00">::MorphologyHistogram&lt; TInputImage</text>
<text text-anchor="start" x="1744" y="-111.5" font-family="Helvetica,sans-Serif" font-size="10.00">::PixelType, std::greater&lt; TInputImage</text>
<text text-anchor="middle" x="1838" y="-100.5" font-family="Helvetica,sans-Serif" font-size="10.00">::PixelType &gt; &gt; &gt;</text>
</a>
</g>
</g>
<!-- Node33&#45;&gt;Node34 -->
<g id="edge33" class="edge">
<title>Node33&#45;&gt;Node34</title>
<path fill="none" stroke="midnightblue" d="M1707.79,-129.98C1717.11,-130.02 1726.48,-130.05 1735.67,-130.09"/>
<polygon fill="midnightblue" stroke="midnightblue" points="1707.71,-126.48 1697.7,-129.94 1707.68,-133.48 1707.71,-126.48"/>
</g>
<!-- Node35 -->
<g id="node35" class="node">
<title>Node35</title>
<g id="a_node35"><a xlink:href="classitk_1_1MovingHistogramDilateImageFilter.html" target="_top" xlink:title="Grayscale dilation of an image.">
<polygon fill="white" stroke="black" points="1977,-110 1977,-151 2129,-151 2129,-110 1977,-110"/>
<text text-anchor="start" x="1985" y="-139" font-family="Helvetica,sans-Serif" font-size="10.00">itk::MovingHistogramDilate</text>
<text text-anchor="start" x="1985" y="-128" font-family="Helvetica,sans-Serif" font-size="10.00">ImageFilter&lt; TInputImage,</text>
<text text-anchor="middle" x="2053" y="-117" font-family="Helvetica,sans-Serif" font-size="10.00"> TOutputImage, TKernel &gt;</text>
</a>
</g>
</g>
<!-- Node34&#45;&gt;Node35 -->
<g id="edge34" class="edge">
<title>Node34&#45;&gt;Node35</title>
<path fill="none" stroke="midnightblue" d="M1950.33,-130.5C1959.3,-130.5 1968.23,-130.5 1976.85,-130.5"/>
<polygon fill="midnightblue" stroke="midnightblue" points="1950.2,-127 1940.2,-130.5 1950.2,-134 1950.2,-127"/>
</g>
<!-- Node37 -->
<g id="node37" class="node">
<title>Node37</title>
<g id="a_node37"><a xlink:href="classitk_1_1MovingHistogramMorphologyImageFilter.html" target="_top" xlink:title=" ">
<polygon fill="white" stroke="black" points="1736,-0.5 1736,-74.5 1940,-74.5 1940,-0.5 1736,-0.5"/>
<text text-anchor="start" x="1744" y="-62.5" font-family="Helvetica,sans-Serif" font-size="10.00">itk::MovingHistogramMorphology</text>
<text text-anchor="start" x="1744" y="-51.5" font-family="Helvetica,sans-Serif" font-size="10.00">ImageFilter&lt; TInputImage,</text>
<text text-anchor="start" x="1744" y="-40.5" font-family="Helvetica,sans-Serif" font-size="10.00"> TOutputImage, TKernel, Function</text>
<text text-anchor="start" x="1744" y="-29.5" font-family="Helvetica,sans-Serif" font-size="10.00">::MorphologyHistogram&lt; TInputImage</text>
<text text-anchor="start" x="1744" y="-18.5" font-family="Helvetica,sans-Serif" font-size="10.00">::PixelType, std::less&lt; TInputImage</text>
<text text-anchor="middle" x="1838" y="-7.5" font-family="Helvetica,sans-Serif" font-size="10.00">::PixelType &gt; &gt; &gt;</text>
</a>
</g>
</g>
<!-- Node36&#45;&gt;Node37 -->
<g id="edge36" class="edge">
<title>Node36&#45;&gt;Node37</title>
<path fill="none" stroke="midnightblue" d="M1707.79,-40.11C1717.11,-39.92 1726.48,-39.73 1735.67,-39.55"/>
<polygon fill="midnightblue" stroke="midnightblue" points="1707.62,-36.61 1697.7,-40.31 1707.77,-43.61 1707.62,-36.61"/>
</g>
<!-- Node38 -->
<g id="node38" class="node">
<title>Node38</title>
<g id="a_node38"><a xlink:href="classitk_1_1MovingHistogramErodeImageFilter.html" target="_top" xlink:title="Grayscale erosion of an image.">
<polygon fill="white" stroke="black" points="1978,-17 1978,-58 2128,-58 2128,-17 1978,-17"/>
<text text-anchor="start" x="1986" y="-46" font-family="Helvetica,sans-Serif" font-size="10.00">itk::MovingHistogramErode</text>
<text text-anchor="start" x="1986" y="-35" font-family="Helvetica,sans-Serif" font-size="10.00">ImageFilter&lt; TInputImage,</text>
<text text-anchor="middle" x="2053" y="-24" font-family="Helvetica,sans-Serif" font-size="10.00"> TOutputImage, TKernel &gt;</text>
</a>
</g>
</g>
<!-- Node37&#45;&gt;Node38 -->
<g id="edge37" class="edge">
<title>Node37&#45;&gt;Node38</title>
<path fill="none" stroke="midnightblue" d="M1950.3,-37.5C1959.6,-37.5 1968.86,-37.5 1977.78,-37.5"/>
<polygon fill="midnightblue" stroke="midnightblue" points="1950.2,-34 1940.2,-37.5 1950.2,-41 1950.2,-34"/>
</g>
</g>
</svg>
