<?xml version="1.0" encoding="UTF-8" standalone="no"?>
<!DOCTYPE svg PUBLIC "-//W3C//DTD SVG 1.1//EN"
 "http://www.w3.org/Graphics/SVG/1.1/DTD/svg11.dtd">
<!-- Generated by graphviz version 2.43.0 (0)
 -->
<!-- Title: itk::QuadraticTriangleCell&lt; TCellInterface &gt; Pages: 1 -->
<svg width="250pt" height="106pt"
 viewBox="0.00 0.00 250.00 106.00" xmlns="http://www.w3.org/2000/svg" xmlns:xlink="http://www.w3.org/1999/xlink">
<g id="graph0" class="graph" transform="scale(1 1) rotate(0) translate(4 102)">
<title>itk::QuadraticTriangleCell&lt; TCellInterface &gt;</title>
<polygon fill="white" stroke="transparent" points="-4,4 -4,-102 246,-102 246,4 -4,4"/>
<!-- Node1 -->
<g id="node1" class="node">
<title>Node1</title>
<g id="a_node1"><a xlink:title="Represents a second order triangular patch for a Mesh.">
<polygon fill="#bfbfbf" stroke="black" points="37,-0.5 37,-30.5 177,-30.5 177,-0.5 37,-0.5"/>
<text text-anchor="start" x="45" y="-18.5" font-family="Helvetica,sans-Serif" font-size="10.00">itk::QuadraticTriangleCell</text>
<text text-anchor="middle" x="107" y="-7.5" font-family="Helvetica,sans-Serif" font-size="10.00">&lt; TCellInterface &gt;</text>
</a>
</g>
</g>
<!-- Node2 -->
<g id="node2" class="node">
<title>Node2</title>
<g id="a_node2"><a xlink:title=" ">
<polygon fill="white" stroke="#bfbfbf" points="0,-73 0,-92 84,-92 84,-73 0,-73"/>
<text text-anchor="middle" x="42" y="-80" font-family="Helvetica,sans-Serif" font-size="10.00">TCellInterface</text>
</a>
</g>
</g>
<!-- Node2&#45;&gt;Node1 -->
<g id="edge1" class="edge">
<title>Node2&#45;&gt;Node1</title>
<path fill="none" stroke="midnightblue" d="M57.88,-65.62C68.59,-54.91 82.6,-40.9 92.91,-30.59"/>
<polygon fill="midnightblue" stroke="midnightblue" points="55.36,-63.19 50.77,-72.73 60.31,-68.14 55.36,-63.19"/>
</g>
<!-- Node3 -->
<g id="node3" class="node">
<title>Node3</title>
<g id="a_node3"><a xlink:href="classitk_1_1QuadraticTriangleCellTopology.html" target="_top" xlink:title="QuadraticTriangleCellTopology holds data defining the topological connections of the vertices and edg...">
<polygon fill="white" stroke="black" points="102,-67.5 102,-97.5 242,-97.5 242,-67.5 102,-67.5"/>
<text text-anchor="start" x="110" y="-85.5" font-family="Helvetica,sans-Serif" font-size="10.00">itk::QuadraticTriangleCell</text>
<text text-anchor="middle" x="172" y="-74.5" font-family="Helvetica,sans-Serif" font-size="10.00">Topology</text>
</a>
</g>
</g>
<!-- Node3&#45;&gt;Node1 -->
<g id="edge2" class="edge">
<title>Node3&#45;&gt;Node1</title>
<path fill="none" stroke="#8b1a1a" d="M150.81,-60.31C141.06,-50.56 129.76,-39.26 121.08,-30.58"/>
<polygon fill="#8b1a1a" stroke="#8b1a1a" points="148.35,-62.8 157.9,-67.4 153.3,-57.85 148.35,-62.8"/>
</g>
</g>
</svg>
