<?xml version="1.0" encoding="UTF-8" standalone="no"?>
<!DOCTYPE svg PUBLIC "-//W3C//DTD SVG 1.1//EN"
 "http://www.w3.org/Graphics/SVG/1.1/DTD/svg11.dtd">
<!-- Generated by graphviz version 2.43.0 (0)
 -->
<!-- Title: Optimizersv4 Pages: 1 -->
<svg width="244pt" height="303pt"
 viewBox="0.00 0.00 244.00 303.00" xmlns="http://www.w3.org/2000/svg" xmlns:xlink="http://www.w3.org/1999/xlink">
<g id="graph0" class="graph" transform="scale(1 1) rotate(0) translate(4 299)">
<title>Optimizersv4</title>
<polygon fill="white" stroke="transparent" points="-4,4 -4,-299 240,-299 240,4 -4,4"/>
<g id="clust1" class="cluster">
<title>clusterdir_57605c80b6a7e87d0adba2f2655cc3cb</title>
<g id="a_clust1"><a xlink:href="dir_57605c80b6a7e87d0adba2f2655cc3cb.html" target="_top" xlink:title="Numerics">
<polygon fill="#ddddee" stroke="black" points="42,-200 42,-287 228,-287 228,-200 42,-200"/>
<text text-anchor="middle" x="135" y="-275" font-family="Helvetica,sans-Serif" font-size="10.00">Numerics</text>
</a>
</g>
</g>
<g id="clust2" class="cluster">
<title>clusterdir_bc79ba03c9a484399389d8a2b66237d5</title>
<g id="a_clust2"><a xlink:href="dir_bc79ba03c9a484399389d8a2b66237d5.html" target="_top">
<polygon fill="#eeeeff" stroke="black" points="50,-208 50,-260 220,-260 220,-208 50,-208"/>
</a>
</g>
</g>
<!-- dir_bc79ba03c9a484399389d8a2b66237d5 -->
<g id="node1" class="node">
<title>dir_bc79ba03c9a484399389d8a2b66237d5</title>
<text text-anchor="middle" x="171" y="-231.5" font-family="Helvetica,sans-Serif" font-size="10.00">Optimizersv4</text>
</g>
<!-- dir_4f569ab9d88f88475f32b40b2ce1e4e1 -->
<g id="node2" class="node">
<title>dir_4f569ab9d88f88475f32b40b2ce1e4e1</title>
<g id="a_node2"><a xlink:href="dir_4f569ab9d88f88475f32b40b2ce1e4e1.html" target="_top" xlink:title="include">
<polygon fill="white" stroke="black" points="112,-252 58,-252 58,-216 112,-216 112,-252"/>
<text text-anchor="middle" x="85" y="-231.5" font-family="Helvetica,sans-Serif" font-size="10.00">include</text>
</a>
</g>
</g>
<!-- dir_33a5fbe70472a1bbdf281f060bf026c9 -->
<g id="node3" class="node">
<title>dir_33a5fbe70472a1bbdf281f060bf026c9</title>
<g id="a_node3"><a xlink:href="dir_33a5fbe70472a1bbdf281f060bf026c9.html" target="_top" xlink:title="Optimizers">
<polygon fill="white" stroke="red" points="70,-108 0,-108 0,-72 70,-72 70,-108"/>
<text text-anchor="middle" x="35" y="-87.5" font-family="Helvetica,sans-Serif" font-size="10.00">Optimizers</text>
</a>
</g>
</g>
<!-- dir_4f569ab9d88f88475f32b40b2ce1e4e1&#45;&gt;dir_33a5fbe70472a1bbdf281f060bf026c9 -->
<g id="edge1" class="edge">
<title>dir_4f569ab9d88f88475f32b40b2ce1e4e1&#45;&gt;dir_33a5fbe70472a1bbdf281f060bf026c9</title>
<path fill="none" stroke="black" d="M69.72,-215.58C61.97,-205.78 53.13,-192.94 48,-180 40.2,-160.31 37.01,-136.51 35.75,-118.47"/>
<polygon fill="black" stroke="black" points="39.23,-118.13 35.19,-108.33 32.24,-118.51 39.23,-118.13"/>
<g id="a_edge1&#45;headlabel"><a xlink:href="dir_000026_000023.html" target="_top" xlink:title="1">
<text text-anchor="middle" x="42.26" y="-119.06" font-family="Helvetica,sans-Serif" font-size="10.00">1</text>
</a>
</g>
</g>
<!-- dir_6724b11ef9ad676a0a0c31463bff1d93 -->
<g id="node4" class="node">
<title>dir_6724b11ef9ad676a0a0c31463bff1d93</title>
<g id="a_node4"><a xlink:href="dir_6724b11ef9ad676a0a0c31463bff1d93.html" target="_top" xlink:title="Filtering">
<polygon fill="white" stroke="red" points="113,-180 57,-180 57,-144 113,-144 113,-180"/>
<text text-anchor="middle" x="85" y="-159.5" font-family="Helvetica,sans-Serif" font-size="10.00">Filtering</text>
</a>
</g>
</g>
<!-- dir_4f569ab9d88f88475f32b40b2ce1e4e1&#45;&gt;dir_6724b11ef9ad676a0a0c31463bff1d93 -->
<g id="edge2" class="edge">
<title>dir_4f569ab9d88f88475f32b40b2ce1e4e1&#45;&gt;dir_6724b11ef9ad676a0a0c31463bff1d93</title>
<path fill="none" stroke="black" d="M85,-215.7C85,-207.98 85,-198.71 85,-190.11"/>
<polygon fill="black" stroke="black" points="88.5,-190.1 85,-180.1 81.5,-190.1 88.5,-190.1"/>
<g id="a_edge2&#45;headlabel"><a xlink:href="dir_000026_000009.html" target="_top" xlink:title="1">
<text text-anchor="middle" x="91.34" y="-191.2" font-family="Helvetica,sans-Serif" font-size="10.00">1</text>
</a>
</g>
</g>
<!-- dir_cac7f9cecb9aa42a0bd05452dddd8a21 -->
<g id="node5" class="node">
<title>dir_cac7f9cecb9aa42a0bd05452dddd8a21</title>
<g id="a_node5"><a xlink:href="dir_cac7f9cecb9aa42a0bd05452dddd8a21.html" target="_top" xlink:title="Core">
<polygon fill="white" stroke="red" points="125,-36 71,-36 71,0 125,0 125,-36"/>
<text text-anchor="middle" x="98" y="-15.5" font-family="Helvetica,sans-Serif" font-size="10.00">Core</text>
</a>
</g>
</g>
<!-- dir_4f569ab9d88f88475f32b40b2ce1e4e1&#45;&gt;dir_cac7f9cecb9aa42a0bd05452dddd8a21 -->
<g id="edge3" class="edge">
<title>dir_4f569ab9d88f88475f32b40b2ce1e4e1&#45;&gt;dir_cac7f9cecb9aa42a0bd05452dddd8a21</title>
<path fill="none" stroke="black" d="M101.04,-215.85C109.01,-206.12 117.83,-193.27 122,-180 136.38,-134.27 121.17,-78.45 109.26,-45.99"/>
<polygon fill="black" stroke="black" points="112.4,-44.4 105.55,-36.32 105.86,-46.91 112.4,-44.4"/>
<g id="a_edge3&#45;headlabel"><a xlink:href="dir_000026_000006.html" target="_top" xlink:title="40">
<text text-anchor="middle" x="116.34" y="-44.24" font-family="Helvetica,sans-Serif" font-size="10.00">40</text>
</a>
</g>
</g>
<!-- dir_33a5fbe70472a1bbdf281f060bf026c9&#45;&gt;dir_cac7f9cecb9aa42a0bd05452dddd8a21 -->
<g id="edge4" class="edge">
<title>dir_33a5fbe70472a1bbdf281f060bf026c9&#45;&gt;dir_cac7f9cecb9aa42a0bd05452dddd8a21</title>
<path fill="none" stroke="black" d="M50.57,-71.7C58.2,-63.22 67.52,-52.86 75.88,-43.58"/>
<polygon fill="black" stroke="black" points="78.52,-45.88 82.61,-36.1 73.31,-41.2 78.52,-45.88"/>
<g id="a_edge4&#45;headlabel"><a xlink:href="dir_000023_000006.html" target="_top" xlink:title="25">
<text text-anchor="middle" x="78.22" y="-47.95" font-family="Helvetica,sans-Serif" font-size="10.00">25</text>
</a>
</g>
</g>
<!-- dir_6724b11ef9ad676a0a0c31463bff1d93&#45;&gt;dir_33a5fbe70472a1bbdf281f060bf026c9 -->
<g id="edge5" class="edge">
<title>dir_6724b11ef9ad676a0a0c31463bff1d93&#45;&gt;dir_33a5fbe70472a1bbdf281f060bf026c9</title>
<path fill="none" stroke="black" d="M72.64,-143.7C66.77,-135.47 59.63,-125.48 53.16,-116.42"/>
<polygon fill="black" stroke="black" points="55.88,-114.21 47.22,-108.1 50.18,-118.28 55.88,-114.21"/>
<g id="a_edge5&#45;headlabel"><a xlink:href="dir_000009_000023.html" target="_top" xlink:title="1">
<text text-anchor="middle" x="60.28" y="-112.98" font-family="Helvetica,sans-Serif" font-size="10.00">1</text>
</a>
</g>
</g>
<!-- dir_6724b11ef9ad676a0a0c31463bff1d93&#45;&gt;dir_cac7f9cecb9aa42a0bd05452dddd8a21 -->
<g id="edge6" class="edge">
<title>dir_6724b11ef9ad676a0a0c31463bff1d93&#45;&gt;dir_cac7f9cecb9aa42a0bd05452dddd8a21</title>
<path fill="none" stroke="black" d="M86.57,-143.87C88.78,-119.67 92.85,-75.21 95.49,-46.39"/>
<polygon fill="black" stroke="black" points="99,-46.47 96.43,-36.19 92.03,-45.83 99,-46.47"/>
<g id="a_edge6&#45;headlabel"><a xlink:href="dir_000009_000006.html" target="_top" xlink:title="785">
<text text-anchor="middle" x="101.5" y="-47.81" font-family="Helvetica,sans-Serif" font-size="10.00">785</text>
</a>
</g>
</g>
</g>
</svg>
