<?xml version="1.0" encoding="UTF-8" standalone="no"?>
<!DOCTYPE svg PUBLIC "-//W3C//DTD SVG 1.1//EN"
 "http://www.w3.org/Graphics/SVG/1.1/DTD/svg11.dtd">
<!-- Generated by graphviz version 2.43.0 (0)
 -->
<!-- Title: Statistics Pages: 1 -->
<svg width="190pt" height="159pt"
 viewBox="0.00 0.00 190.00 159.00" xmlns="http://www.w3.org/2000/svg" xmlns:xlink="http://www.w3.org/1999/xlink">
<g id="graph0" class="graph" transform="scale(1 1) rotate(0) translate(4 155)">
<title>Statistics</title>
<polygon fill="white" stroke="transparent" points="-4,4 -4,-155 186,-155 186,4 -4,4"/>
<g id="clust1" class="cluster">
<title>clusterdir_57605c80b6a7e87d0adba2f2655cc3cb</title>
<g id="a_clust1"><a xlink:href="dir_57605c80b6a7e87d0adba2f2655cc3cb.html" target="_top" xlink:title="Numerics">
<polygon fill="#ddddee" stroke="black" points="8,-56 8,-143 174,-143 174,-56 8,-56"/>
<text text-anchor="middle" x="91" y="-131" font-family="Helvetica,sans-Serif" font-size="10.00">Numerics</text>
</a>
</g>
</g>
<g id="clust2" class="cluster">
<title>clusterdir_2857c3043737a2d183c326013bc7487b</title>
<g id="a_clust2"><a xlink:href="dir_2857c3043737a2d183c326013bc7487b.html" target="_top">
<polygon fill="#eeeeff" stroke="black" points="16,-64 16,-116 166,-116 166,-64 16,-64"/>
</a>
</g>
</g>
<!-- dir_2857c3043737a2d183c326013bc7487b -->
<g id="node1" class="node">
<title>dir_2857c3043737a2d183c326013bc7487b</title>
<text text-anchor="middle" x="127" y="-87.5" font-family="Helvetica,sans-Serif" font-size="10.00">Statistics</text>
</g>
<!-- dir_e2d130215733efd1e69c9da8b6babdcf -->
<g id="node2" class="node">
<title>dir_e2d130215733efd1e69c9da8b6babdcf</title>
<g id="a_node2"><a xlink:href="dir_e2d130215733efd1e69c9da8b6babdcf.html" target="_top" xlink:title="include">
<polygon fill="white" stroke="black" points="78,-108 24,-108 24,-72 78,-72 78,-108"/>
<text text-anchor="middle" x="51" y="-87.5" font-family="Helvetica,sans-Serif" font-size="10.00">include</text>
</a>
</g>
</g>
<!-- dir_cac7f9cecb9aa42a0bd05452dddd8a21 -->
<g id="node3" class="node">
<title>dir_cac7f9cecb9aa42a0bd05452dddd8a21</title>
<g id="a_node3"><a xlink:href="dir_cac7f9cecb9aa42a0bd05452dddd8a21.html" target="_top" xlink:title="Core">
<polygon fill="white" stroke="red" points="78,-36 24,-36 24,0 78,0 78,-36"/>
<text text-anchor="middle" x="51" y="-15.5" font-family="Helvetica,sans-Serif" font-size="10.00">Core</text>
</a>
</g>
</g>
<!-- dir_e2d130215733efd1e69c9da8b6babdcf&#45;&gt;dir_cac7f9cecb9aa42a0bd05452dddd8a21 -->
<g id="edge2" class="edge">
<title>dir_e2d130215733efd1e69c9da8b6babdcf&#45;&gt;dir_cac7f9cecb9aa42a0bd05452dddd8a21</title>
<path fill="none" stroke="black" d="M45.08,-71.7C44.29,-63.98 44.06,-54.71 44.4,-46.11"/>
<polygon fill="black" stroke="black" points="47.9,-46.32 45.1,-36.1 40.92,-45.84 47.9,-46.32"/>
<g id="a_edge2&#45;headlabel"><a xlink:href="dir_000097_000006.html" target="_top" xlink:title="127">
<text text-anchor="middle" x="50.48" y="-47.61" font-family="Helvetica,sans-Serif" font-size="10.00">127</text>
</a>
</g>
</g>
<!-- dir_cac7f9cecb9aa42a0bd05452dddd8a21&#45;&gt;dir_e2d130215733efd1e69c9da8b6babdcf -->
<g id="edge1" class="edge">
<title>dir_cac7f9cecb9aa42a0bd05452dddd8a21&#45;&gt;dir_e2d130215733efd1e69c9da8b6babdcf</title>
<path fill="none" stroke="black" d="M56.9,-36.1C57.7,-43.79 57.94,-53.05 57.6,-61.67"/>
<polygon fill="black" stroke="black" points="54.11,-61.48 56.92,-71.7 61.09,-61.96 54.11,-61.48"/>
<g id="a_edge1&#45;headlabel"><a xlink:href="dir_000006_000097.html" target="_top" xlink:title="2">
<text text-anchor="middle" x="51.52" y="-55.2" font-family="Helvetica,sans-Serif" font-size="10.00">2</text>
</a>
</g>
</g>
</g>
</svg>
