<?xml version="1.0" encoding="UTF-8" standalone="no"?>
<!DOCTYPE svg PUBLIC "-//W3C//DTD SVG 1.1//EN"
 "http://www.w3.org/Graphics/SVG/1.1/DTD/svg11.dtd">
<!-- Generated by graphviz version 2.43.0 (0)
 -->
<!-- Title: include Pages: 1 -->
<svg width="220pt" height="223pt"
 viewBox="0.00 0.00 220.00 223.00" xmlns="http://www.w3.org/2000/svg" xmlns:xlink="http://www.w3.org/1999/xlink">
<g id="graph0" class="graph" transform="scale(1 1) rotate(0) translate(4 219)">
<title>include</title>
<polygon fill="white" stroke="transparent" points="-4,4 -4,-219 216,-219 216,4 -4,4"/>
<g id="clust1" class="cluster">
<title>clusterdir_bd1f0f20dd49910fd3401f3a7f20f699</title>
<g id="a_clust1"><a xlink:href="dir_bd1f0f20dd49910fd3401f3a7f20f699.html" target="_top" xlink:title="GPUFiniteDifference">
<polygon fill="#ddddee" stroke="black" points="8,-136 8,-207 123,-207 123,-136 8,-136"/>
<text text-anchor="middle" x="65.5" y="-195" font-family="Helvetica,sans-Serif" font-size="10.00">GPUFiniteDifference</text>
</a>
</g>
</g>
<!-- dir_59099ad41e2b22376b491057559decd2 -->
<g id="node1" class="node">
<title>dir_59099ad41e2b22376b491057559decd2</title>
<g id="a_node1"><a xlink:href="dir_59099ad41e2b22376b491057559decd2.html" target="_top" xlink:title="include">
<polygon fill="#eeeeff" stroke="black" points="92,-180 38,-180 38,-144 92,-144 92,-180"/>
<text text-anchor="middle" x="65" y="-159.5" font-family="Helvetica,sans-Serif" font-size="10.00">include</text>
</a>
</g>
</g>
<!-- dir_d38764bbd2ed2fce86b6f67aad6c8758 -->
<g id="node2" class="node">
<title>dir_d38764bbd2ed2fce86b6f67aad6c8758</title>
<g id="a_node2"><a xlink:href="dir_d38764bbd2ed2fce86b6f67aad6c8758.html" target="_top" xlink:title="Common">
<polygon fill="white" stroke="red" points="95.5,-36 34.5,-36 34.5,0 95.5,0 95.5,-36"/>
<text text-anchor="middle" x="65" y="-15.5" font-family="Helvetica,sans-Serif" font-size="10.00">Common</text>
</a>
</g>
</g>
<!-- dir_59099ad41e2b22376b491057559decd2&#45;&gt;dir_d38764bbd2ed2fce86b6f67aad6c8758 -->
<g id="edge1" class="edge">
<title>dir_59099ad41e2b22376b491057559decd2&#45;&gt;dir_d38764bbd2ed2fce86b6f67aad6c8758</title>
<path fill="none" stroke="black" d="M38.88,-143.82C27.42,-134.69 15.19,-122.39 9,-108 2.67,-93.3 2.67,-86.7 9,-72 13.79,-60.87 22.19,-50.99 31.05,-42.86"/>
<polygon fill="black" stroke="black" points="33.54,-45.34 38.88,-36.18 29,-40.01 33.54,-45.34"/>
<g id="a_edge1&#45;headlabel"><a xlink:href="dir_000164_000034.html" target="_top" xlink:title="4">
<text text-anchor="middle" x="32.65" y="-47.33" font-family="Helvetica,sans-Serif" font-size="10.00">4</text>
</a>
</g>
</g>
<!-- dir_f01494f6e3d4d50aecc6eeecc172cb41 -->
<g id="node3" class="node">
<title>dir_f01494f6e3d4d50aecc6eeecc172cb41</title>
<g id="a_node3"><a xlink:href="dir_f01494f6e3d4d50aecc6eeecc172cb41.html" target="_top" xlink:title="FiniteDifference">
<polygon fill="white" stroke="red" points="112,-108 18,-108 18,-72 112,-72 112,-108"/>
<text text-anchor="middle" x="65" y="-87.5" font-family="Helvetica,sans-Serif" font-size="10.00">FiniteDifference</text>
</a>
</g>
</g>
<!-- dir_59099ad41e2b22376b491057559decd2&#45;&gt;dir_f01494f6e3d4d50aecc6eeecc172cb41 -->
<g id="edge2" class="edge">
<title>dir_59099ad41e2b22376b491057559decd2&#45;&gt;dir_f01494f6e3d4d50aecc6eeecc172cb41</title>
<path fill="none" stroke="black" d="M65,-143.7C65,-135.98 65,-126.71 65,-118.11"/>
<polygon fill="black" stroke="black" points="68.5,-118.1 65,-108.1 61.5,-118.1 68.5,-118.1"/>
<g id="a_edge2&#45;headlabel"><a xlink:href="dir_000164_000121.html" target="_top" xlink:title="3">
<text text-anchor="middle" x="71.34" y="-119.2" font-family="Helvetica,sans-Serif" font-size="10.00">3</text>
</a>
</g>
</g>
<!-- dir_c33cbe94a8640e6fa88468267199b2f3 -->
<g id="node4" class="node">
<title>dir_c33cbe94a8640e6fa88468267199b2f3</title>
<g id="a_node4"><a xlink:href="dir_c33cbe94a8640e6fa88468267199b2f3.html" target="_top" xlink:title="GPUCommon">
<polygon fill="white" stroke="red" points="212,-108 130,-108 130,-72 212,-72 212,-108"/>
<text text-anchor="middle" x="171" y="-87.5" font-family="Helvetica,sans-Serif" font-size="10.00">GPUCommon</text>
</a>
</g>
</g>
<!-- dir_59099ad41e2b22376b491057559decd2&#45;&gt;dir_c33cbe94a8640e6fa88468267199b2f3 -->
<g id="edge3" class="edge">
<title>dir_59099ad41e2b22376b491057559decd2&#45;&gt;dir_c33cbe94a8640e6fa88468267199b2f3</title>
<path fill="none" stroke="black" d="M90.93,-143.88C104.66,-134.81 121.71,-123.55 136.54,-113.76"/>
<polygon fill="black" stroke="black" points="138.55,-116.62 144.97,-108.19 134.7,-110.78 138.55,-116.62"/>
<g id="a_edge3&#45;headlabel"><a xlink:href="dir_000164_000159.html" target="_top" xlink:title="3">
<text text-anchor="middle" x="137.12" y="-118.47" font-family="Helvetica,sans-Serif" font-size="10.00">3</text>
</a>
</g>
</g>
<!-- dir_f01494f6e3d4d50aecc6eeecc172cb41&#45;&gt;dir_d38764bbd2ed2fce86b6f67aad6c8758 -->
<g id="edge4" class="edge">
<title>dir_f01494f6e3d4d50aecc6eeecc172cb41&#45;&gt;dir_d38764bbd2ed2fce86b6f67aad6c8758</title>
<path fill="none" stroke="black" d="M65,-71.7C65,-63.98 65,-54.71 65,-46.11"/>
<polygon fill="black" stroke="black" points="68.5,-46.1 65,-36.1 61.5,-46.1 68.5,-46.1"/>
<g id="a_edge4&#45;headlabel"><a xlink:href="dir_000121_000034.html" target="_top" xlink:title="10">
<text text-anchor="middle" x="71.34" y="-47.2" font-family="Helvetica,sans-Serif" font-size="10.00">10</text>
</a>
</g>
</g>
<!-- dir_c33cbe94a8640e6fa88468267199b2f3&#45;&gt;dir_d38764bbd2ed2fce86b6f67aad6c8758 -->
<g id="edge5" class="edge">
<title>dir_c33cbe94a8640e6fa88468267199b2f3&#45;&gt;dir_d38764bbd2ed2fce86b6f67aad6c8758</title>
<path fill="none" stroke="black" d="M145.07,-71.88C131.34,-62.81 114.29,-51.55 99.46,-41.76"/>
<polygon fill="black" stroke="black" points="101.3,-38.78 91.03,-36.19 97.45,-44.62 101.3,-38.78"/>
<g id="a_edge5&#45;headlabel"><a xlink:href="dir_000159_000034.html" target="_top" xlink:title="20">
<text text-anchor="middle" x="105.87" y="-35.89" font-family="Helvetica,sans-Serif" font-size="10.00">20</text>
</a>
</g>
</g>
</g>
</svg>
