<?xml version="1.0" encoding="UTF-8" standalone="no"?>
<!DOCTYPE svg PUBLIC "-//W3C//DTD SVG 1.1//EN"
 "http://www.w3.org/Graphics/SVG/1.1/DTD/svg11.dtd">
<!-- Generated by graphviz version 2.43.0 (0)
 -->
<!-- Title: Transform Pages: 1 -->
<svg width="194pt" height="159pt"
 viewBox="0.00 0.00 194.00 159.00" xmlns="http://www.w3.org/2000/svg" xmlns:xlink="http://www.w3.org/1999/xlink">
<g id="graph0" class="graph" transform="scale(1 1) rotate(0) translate(4 155)">
<title>Transform</title>
<polygon fill="white" stroke="transparent" points="-4,4 -4,-155 190,-155 190,4 -4,4"/>
<g id="clust1" class="cluster">
<title>clusterdir_cac7f9cecb9aa42a0bd05452dddd8a21</title>
<g id="a_clust1"><a xlink:href="dir_cac7f9cecb9aa42a0bd05452dddd8a21.html" target="_top" xlink:title="Core">
<polygon fill="#ddddee" stroke="black" points="8,-56 8,-143 178,-143 178,-56 8,-56"/>
<text text-anchor="middle" x="93" y="-131" font-family="Helvetica,sans-Serif" font-size="10.00">Core</text>
</a>
</g>
</g>
<g id="clust2" class="cluster">
<title>clusterdir_6a74394530d20d7df929c672ed9fa8ba</title>
<g id="a_clust2"><a xlink:href="dir_6a74394530d20d7df929c672ed9fa8ba.html" target="_top">
<polygon fill="#eeeeff" stroke="black" points="16,-64 16,-116 170,-116 170,-64 16,-64"/>
</a>
</g>
</g>
<!-- dir_6a74394530d20d7df929c672ed9fa8ba -->
<g id="node1" class="node">
<title>dir_6a74394530d20d7df929c672ed9fa8ba</title>
<text text-anchor="middle" x="129" y="-87.5" font-family="Helvetica,sans-Serif" font-size="10.00">Transform</text>
</g>
<!-- dir_746ed528eac3b85856fd8453c8e3338e -->
<g id="node2" class="node">
<title>dir_746ed528eac3b85856fd8453c8e3338e</title>
<g id="a_node2"><a xlink:href="dir_746ed528eac3b85856fd8453c8e3338e.html" target="_top" xlink:title="include">
<polygon fill="white" stroke="black" points="78,-108 24,-108 24,-72 78,-72 78,-108"/>
<text text-anchor="middle" x="51" y="-87.5" font-family="Helvetica,sans-Serif" font-size="10.00">include</text>
</a>
</g>
</g>
<!-- dir_d38764bbd2ed2fce86b6f67aad6c8758 -->
<g id="node3" class="node">
<title>dir_d38764bbd2ed2fce86b6f67aad6c8758</title>
<g id="a_node3"><a xlink:href="dir_d38764bbd2ed2fce86b6f67aad6c8758.html" target="_top" xlink:title="Common">
<polygon fill="white" stroke="red" points="81.5,-36 20.5,-36 20.5,0 81.5,0 81.5,-36"/>
<text text-anchor="middle" x="51" y="-15.5" font-family="Helvetica,sans-Serif" font-size="10.00">Common</text>
</a>
</g>
</g>
<!-- dir_746ed528eac3b85856fd8453c8e3338e&#45;&gt;dir_d38764bbd2ed2fce86b6f67aad6c8758 -->
<g id="edge1" class="edge">
<title>dir_746ed528eac3b85856fd8453c8e3338e&#45;&gt;dir_d38764bbd2ed2fce86b6f67aad6c8758</title>
<path fill="none" stroke="black" d="M51,-71.7C51,-63.98 51,-54.71 51,-46.11"/>
<polygon fill="black" stroke="black" points="54.5,-46.1 51,-36.1 47.5,-46.1 54.5,-46.1"/>
<g id="a_edge1&#45;headlabel"><a xlink:href="dir_000019_000034.html" target="_top" xlink:title="37">
<text text-anchor="middle" x="57.34" y="-47.2" font-family="Helvetica,sans-Serif" font-size="10.00">37</text>
</a>
</g>
</g>
</g>
</svg>
