<?xml version="1.0" encoding="UTF-8" standalone="no"?>
<!DOCTYPE svg PUBLIC "-//W3C//DTD SVG 1.1//EN"
 "http://www.w3.org/Graphics/SVG/1.1/DTD/svg11.dtd">
<!-- Generated by graphviz version 2.43.0 (0)
 -->
<!-- Title: SuperPixel Pages: 1 -->
<svg width="196pt" height="159pt"
 viewBox="0.00 0.00 196.00 159.00" xmlns="http://www.w3.org/2000/svg" xmlns:xlink="http://www.w3.org/1999/xlink">
<g id="graph0" class="graph" transform="scale(1 1) rotate(0) translate(4 155)">
<title>SuperPixel</title>
<polygon fill="white" stroke="transparent" points="-4,4 -4,-155 192,-155 192,4 -4,4"/>
<g id="clust1" class="cluster">
<title>clusterdir_431b5b85ef2fd850d23fe72862364324</title>
<g id="a_clust1"><a xlink:href="dir_431b5b85ef2fd850d23fe72862364324.html" target="_top" xlink:title="Segmentation">
<polygon fill="#ddddee" stroke="black" points="8,-56 8,-143 180,-143 180,-56 8,-56"/>
<text text-anchor="middle" x="94" y="-131" font-family="Helvetica,sans-Serif" font-size="10.00">Segmentation</text>
</a>
</g>
</g>
<g id="clust2" class="cluster">
<title>clusterdir_68a16094ff467ee0378cdee2e9e5c31e</title>
<g id="a_clust2"><a xlink:href="dir_68a16094ff467ee0378cdee2e9e5c31e.html" target="_top">
<polygon fill="#eeeeff" stroke="black" points="16,-64 16,-116 172,-116 172,-64 16,-64"/>
</a>
</g>
</g>
<!-- dir_68a16094ff467ee0378cdee2e9e5c31e -->
<g id="node1" class="node">
<title>dir_68a16094ff467ee0378cdee2e9e5c31e</title>
<text text-anchor="middle" x="130" y="-87.5" font-family="Helvetica,sans-Serif" font-size="10.00">SuperPixel</text>
</g>
<!-- dir_7800fb6751c1b701fde8b95c49c00a21 -->
<g id="node2" class="node">
<title>dir_7800fb6751c1b701fde8b95c49c00a21</title>
<g id="a_node2"><a xlink:href="dir_7800fb6751c1b701fde8b95c49c00a21.html" target="_top" xlink:title="include">
<polygon fill="white" stroke="black" points="78,-108 24,-108 24,-72 78,-72 78,-108"/>
<text text-anchor="middle" x="51" y="-87.5" font-family="Helvetica,sans-Serif" font-size="10.00">include</text>
</a>
</g>
</g>
<!-- dir_cac7f9cecb9aa42a0bd05452dddd8a21 -->
<g id="node3" class="node">
<title>dir_cac7f9cecb9aa42a0bd05452dddd8a21</title>
<g id="a_node3"><a xlink:href="dir_cac7f9cecb9aa42a0bd05452dddd8a21.html" target="_top" xlink:title="Core">
<polygon fill="white" stroke="red" points="78,-36 24,-36 24,0 78,0 78,-36"/>
<text text-anchor="middle" x="51" y="-15.5" font-family="Helvetica,sans-Serif" font-size="10.00">Core</text>
</a>
</g>
</g>
<!-- dir_7800fb6751c1b701fde8b95c49c00a21&#45;&gt;dir_cac7f9cecb9aa42a0bd05452dddd8a21 -->
<g id="edge1" class="edge">
<title>dir_7800fb6751c1b701fde8b95c49c00a21&#45;&gt;dir_cac7f9cecb9aa42a0bd05452dddd8a21</title>
<path fill="none" stroke="black" d="M51,-71.7C51,-63.98 51,-54.71 51,-46.11"/>
<polygon fill="black" stroke="black" points="54.5,-46.1 51,-36.1 47.5,-46.1 54.5,-46.1"/>
<g id="a_edge1&#45;headlabel"><a xlink:href="dir_000226_000006.html" target="_top" xlink:title="1">
<text text-anchor="middle" x="57.34" y="-47.2" font-family="Helvetica,sans-Serif" font-size="10.00">1</text>
</a>
</g>
</g>
</g>
</svg>
