<?xml version="1.0" encoding="UTF-8" standalone="no"?>
<!DOCTYPE svg PUBLIC "-//W3C//DTD SVG 1.1//EN"
 "http://www.w3.org/Graphics/SVG/1.1/DTD/svg11.dtd">
<!-- Generated by graphviz version 2.43.0 (0)
 -->
<!-- Title: GPUAnisotropicSmoothing Pages: 1 -->
<svg width="330pt" height="231pt"
 viewBox="0.00 0.00 330.00 231.00" xmlns="http://www.w3.org/2000/svg" xmlns:xlink="http://www.w3.org/1999/xlink">
<g id="graph0" class="graph" transform="scale(1 1) rotate(0) translate(4 227)">
<title>GPUAnisotropicSmoothing</title>
<polygon fill="white" stroke="transparent" points="-4,4 -4,-227 326,-227 326,4 -4,4"/>
<g id="clust1" class="cluster">
<title>clusterdir_6724b11ef9ad676a0a0c31463bff1d93</title>
<g id="a_clust1"><a xlink:href="dir_6724b11ef9ad676a0a0c31463bff1d93.html" target="_top" xlink:title="Filtering">
<polygon fill="#ddddee" stroke="black" points="64,-128 64,-215 314,-215 314,-128 64,-128"/>
<text text-anchor="middle" x="189" y="-203" font-family="Helvetica,sans-Serif" font-size="10.00">Filtering</text>
</a>
</g>
</g>
<g id="clust2" class="cluster">
<title>clusterdir_c8267ed67f0b5771ad9099e7477e4f96</title>
<g id="a_clust2"><a xlink:href="dir_c8267ed67f0b5771ad9099e7477e4f96.html" target="_top">
<polygon fill="#eeeeff" stroke="black" points="72,-136 72,-188 306,-188 306,-136 72,-136"/>
</a>
</g>
</g>
<!-- dir_c8267ed67f0b5771ad9099e7477e4f96 -->
<g id="node1" class="node">
<title>dir_c8267ed67f0b5771ad9099e7477e4f96</title>
<text text-anchor="middle" x="225" y="-159.5" font-family="Helvetica,sans-Serif" font-size="10.00">GPUAnisotropicSmoothing</text>
</g>
<!-- dir_4cea8b6d9ce32c7c1a1d07c46a42d60d -->
<g id="node2" class="node">
<title>dir_4cea8b6d9ce32c7c1a1d07c46a42d60d</title>
<g id="a_node2"><a xlink:href="dir_4cea8b6d9ce32c7c1a1d07c46a42d60d.html" target="_top" xlink:title="include">
<polygon fill="white" stroke="black" points="134,-180 80,-180 80,-144 134,-144 134,-180"/>
<text text-anchor="middle" x="107" y="-159.5" font-family="Helvetica,sans-Serif" font-size="10.00">include</text>
</a>
</g>
</g>
<!-- dir_af58e6114253ac7fa21c5f6f4e65af96 -->
<g id="node3" class="node">
<title>dir_af58e6114253ac7fa21c5f6f4e65af96</title>
<g id="a_node3"><a xlink:href="dir_af58e6114253ac7fa21c5f6f4e65af96.html" target="_top" xlink:title="AnisotropicSmoothing">
<polygon fill="white" stroke="red" points="124,-108 0,-108 0,-72 124,-72 124,-108"/>
<text text-anchor="middle" x="62" y="-87.5" font-family="Helvetica,sans-Serif" font-size="10.00">AnisotropicSmoothing</text>
</a>
</g>
</g>
<!-- dir_4cea8b6d9ce32c7c1a1d07c46a42d60d&#45;&gt;dir_af58e6114253ac7fa21c5f6f4e65af96 -->
<g id="edge1" class="edge">
<title>dir_4cea8b6d9ce32c7c1a1d07c46a42d60d&#45;&gt;dir_af58e6114253ac7fa21c5f6f4e65af96</title>
<path fill="none" stroke="black" d="M95.88,-143.7C90.64,-135.56 84.3,-125.69 78.52,-116.7"/>
<polygon fill="black" stroke="black" points="81.35,-114.62 73,-108.1 75.46,-118.41 81.35,-114.62"/>
<g id="a_edge1&#45;headlabel"><a xlink:href="dir_000154_000029.html" target="_top" xlink:title="2">
<text text-anchor="middle" x="85.68" y="-113.61" font-family="Helvetica,sans-Serif" font-size="10.00">2</text>
</a>
</g>
</g>
<!-- dir_cac7f9cecb9aa42a0bd05452dddd8a21 -->
<g id="node4" class="node">
<title>dir_cac7f9cecb9aa42a0bd05452dddd8a21</title>
<g id="a_node4"><a xlink:href="dir_cac7f9cecb9aa42a0bd05452dddd8a21.html" target="_top" xlink:title="Core">
<polygon fill="white" stroke="red" points="134,-36 80,-36 80,0 134,0 134,-36"/>
<text text-anchor="middle" x="107" y="-15.5" font-family="Helvetica,sans-Serif" font-size="10.00">Core</text>
</a>
</g>
</g>
<!-- dir_4cea8b6d9ce32c7c1a1d07c46a42d60d&#45;&gt;dir_cac7f9cecb9aa42a0bd05452dddd8a21 -->
<g id="edge2" class="edge">
<title>dir_4cea8b6d9ce32c7c1a1d07c46a42d60d&#45;&gt;dir_cac7f9cecb9aa42a0bd05452dddd8a21</title>
<path fill="none" stroke="black" d="M118.05,-143.61C123.74,-133.62 130.08,-120.58 133,-108 136.62,-92.41 136.62,-87.59 133,-72 130.9,-62.96 127.03,-53.68 122.91,-45.47"/>
<polygon fill="black" stroke="black" points="125.86,-43.55 118.05,-36.39 119.69,-46.86 125.86,-43.55"/>
<g id="a_edge2&#45;headlabel"><a xlink:href="dir_000154_000006.html" target="_top" xlink:title="7">
<text text-anchor="middle" x="130.06" y="-42.88" font-family="Helvetica,sans-Serif" font-size="10.00">7</text>
</a>
</g>
</g>
<!-- dir_af58e6114253ac7fa21c5f6f4e65af96&#45;&gt;dir_cac7f9cecb9aa42a0bd05452dddd8a21 -->
<g id="edge3" class="edge">
<title>dir_af58e6114253ac7fa21c5f6f4e65af96&#45;&gt;dir_cac7f9cecb9aa42a0bd05452dddd8a21</title>
<path fill="none" stroke="black" d="M73.12,-71.7C78.36,-63.56 84.7,-53.69 90.48,-44.7"/>
<polygon fill="black" stroke="black" points="93.54,-46.41 96,-36.1 87.65,-42.62 93.54,-46.41"/>
<g id="a_edge3&#45;headlabel"><a xlink:href="dir_000029_000006.html" target="_top" xlink:title="19">
<text text-anchor="middle" x="93.99" y="-48.47" font-family="Helvetica,sans-Serif" font-size="10.00">19</text>
</a>
</g>
</g>
</g>
</svg>
