<?xml version="1.0" encoding="UTF-8" standalone="no"?>
<!DOCTYPE svg PUBLIC "-//W3C//DTD SVG 1.1//EN"
 "http://www.w3.org/Graphics/SVG/1.1/DTD/svg11.dtd">
<!-- Generated by graphviz version 2.43.0 (0)
 -->
<!-- Title: GPUPDEDeformable Pages: 1 -->
<svg width="346pt" height="231pt"
 viewBox="0.00 0.00 346.00 231.00" xmlns="http://www.w3.org/2000/svg" xmlns:xlink="http://www.w3.org/1999/xlink">
<g id="graph0" class="graph" transform="scale(1 1) rotate(0) translate(4 227)">
<title>GPUPDEDeformable</title>
<polygon fill="white" stroke="transparent" points="-4,4 -4,-227 342,-227 342,4 -4,4"/>
<g id="clust1" class="cluster">
<title>clusterdir_0ad122d8d0ab9b1e48b88184c41a4a8e</title>
<g id="a_clust1"><a xlink:href="dir_0ad122d8d0ab9b1e48b88184c41a4a8e.html" target="_top" xlink:title="Registration">
<polygon fill="#ddddee" stroke="black" points="110,-128 110,-215 330,-215 330,-128 110,-128"/>
<text text-anchor="middle" x="220" y="-203" font-family="Helvetica,sans-Serif" font-size="10.00">Registration</text>
</a>
</g>
</g>
<g id="clust2" class="cluster">
<title>clusterdir_847628628971c8ceb43fb52a22f8b6fe</title>
<g id="a_clust2"><a xlink:href="dir_847628628971c8ceb43fb52a22f8b6fe.html" target="_top">
<polygon fill="#eeeeff" stroke="black" points="118,-136 118,-188 322,-188 322,-136 118,-136"/>
</a>
</g>
</g>
<!-- dir_847628628971c8ceb43fb52a22f8b6fe -->
<g id="node1" class="node">
<title>dir_847628628971c8ceb43fb52a22f8b6fe</title>
<text text-anchor="middle" x="256" y="-159.5" font-family="Helvetica,sans-Serif" font-size="10.00">GPUPDEDeformable</text>
</g>
<!-- dir_6822816577adb4c6337dff70c068b32e -->
<g id="node2" class="node">
<title>dir_6822816577adb4c6337dff70c068b32e</title>
<g id="a_node2"><a xlink:href="dir_6822816577adb4c6337dff70c068b32e.html" target="_top" xlink:title="include">
<polygon fill="white" stroke="black" points="180,-180 126,-180 126,-144 180,-144 180,-180"/>
<text text-anchor="middle" x="153" y="-159.5" font-family="Helvetica,sans-Serif" font-size="10.00">include</text>
</a>
</g>
</g>
<!-- dir_0255e60dfbb4ab528d6a3fad7189beb6 -->
<g id="node3" class="node">
<title>dir_0255e60dfbb4ab528d6a3fad7189beb6</title>
<g id="a_node3"><a xlink:href="dir_0255e60dfbb4ab528d6a3fad7189beb6.html" target="_top" xlink:title="PDEDeformable">
<polygon fill="white" stroke="red" points="94,-108 0,-108 0,-72 94,-72 94,-108"/>
<text text-anchor="middle" x="47" y="-87.5" font-family="Helvetica,sans-Serif" font-size="10.00">PDEDeformable</text>
</a>
</g>
</g>
<!-- dir_6822816577adb4c6337dff70c068b32e&#45;&gt;dir_0255e60dfbb4ab528d6a3fad7189beb6 -->
<g id="edge3" class="edge">
<title>dir_6822816577adb4c6337dff70c068b32e&#45;&gt;dir_0255e60dfbb4ab528d6a3fad7189beb6</title>
<path fill="none" stroke="black" d="M127.07,-143.88C113.34,-134.81 96.29,-123.55 81.46,-113.76"/>
<polygon fill="black" stroke="black" points="83.3,-110.78 73.03,-108.19 79.45,-116.62 83.3,-110.78"/>
<g id="a_edge3&#45;headlabel"><a xlink:href="dir_000162_000114.html" target="_top" xlink:title="2">
<text text-anchor="middle" x="87.87" y="-107.89" font-family="Helvetica,sans-Serif" font-size="10.00">2</text>
</a>
</g>
</g>
<!-- dir_50fe1f4dd9f98b7f0f1b3626668dc540 -->
<g id="node4" class="node">
<title>dir_50fe1f4dd9f98b7f0f1b3626668dc540</title>
<g id="a_node4"><a xlink:href="dir_50fe1f4dd9f98b7f0f1b3626668dc540.html" target="_top" xlink:title="GPUCommon">
<polygon fill="white" stroke="red" points="194,-108 112,-108 112,-72 194,-72 194,-108"/>
<text text-anchor="middle" x="153" y="-87.5" font-family="Helvetica,sans-Serif" font-size="10.00">GPUCommon</text>
</a>
</g>
</g>
<!-- dir_6822816577adb4c6337dff70c068b32e&#45;&gt;dir_50fe1f4dd9f98b7f0f1b3626668dc540 -->
<g id="edge4" class="edge">
<title>dir_6822816577adb4c6337dff70c068b32e&#45;&gt;dir_50fe1f4dd9f98b7f0f1b3626668dc540</title>
<path fill="none" stroke="black" d="M153,-143.7C153,-135.98 153,-126.71 153,-118.11"/>
<polygon fill="black" stroke="black" points="156.5,-118.1 153,-108.1 149.5,-118.1 156.5,-118.1"/>
<g id="a_edge4&#45;headlabel"><a xlink:href="dir_000162_000167.html" target="_top" xlink:title="2">
<text text-anchor="middle" x="159.34" y="-119.2" font-family="Helvetica,sans-Serif" font-size="10.00">2</text>
</a>
</g>
</g>
<!-- dir_cac7f9cecb9aa42a0bd05452dddd8a21 -->
<g id="node5" class="node">
<title>dir_cac7f9cecb9aa42a0bd05452dddd8a21</title>
<g id="a_node5"><a xlink:href="dir_cac7f9cecb9aa42a0bd05452dddd8a21.html" target="_top" xlink:title="Core">
<polygon fill="white" stroke="red" points="180,-36 126,-36 126,0 180,0 180,-36"/>
<text text-anchor="middle" x="153" y="-15.5" font-family="Helvetica,sans-Serif" font-size="10.00">Core</text>
</a>
</g>
</g>
<!-- dir_6822816577adb4c6337dff70c068b32e&#45;&gt;dir_cac7f9cecb9aa42a0bd05452dddd8a21 -->
<g id="edge5" class="edge">
<title>dir_6822816577adb4c6337dff70c068b32e&#45;&gt;dir_cac7f9cecb9aa42a0bd05452dddd8a21</title>
<path fill="none" stroke="black" d="M171.94,-143.8C184.66,-131.74 199.68,-116.35 203,-108 208.91,-93.13 208.91,-86.87 203,-72 198.71,-61.2 191.06,-51.32 183.01,-43.1"/>
<polygon fill="black" stroke="black" points="185.25,-40.4 175.6,-36.04 180.42,-45.47 185.25,-40.4"/>
<g id="a_edge5&#45;headlabel"><a xlink:href="dir_000162_000006.html" target="_top" xlink:title="8">
<text text-anchor="middle" x="189.81" y="-38.32" font-family="Helvetica,sans-Serif" font-size="10.00">8</text>
</a>
</g>
</g>
<!-- dir_0255e60dfbb4ab528d6a3fad7189beb6&#45;&gt;dir_cac7f9cecb9aa42a0bd05452dddd8a21 -->
<g id="edge1" class="edge">
<title>dir_0255e60dfbb4ab528d6a3fad7189beb6&#45;&gt;dir_cac7f9cecb9aa42a0bd05452dddd8a21</title>
<path fill="none" stroke="black" d="M72.93,-71.88C86.66,-62.81 103.71,-51.55 118.54,-41.76"/>
<polygon fill="black" stroke="black" points="120.55,-44.62 126.97,-36.19 116.7,-38.78 120.55,-44.62"/>
<g id="a_edge1&#45;headlabel"><a xlink:href="dir_000114_000006.html" target="_top" xlink:title="16">
<text text-anchor="middle" x="119.12" y="-46.47" font-family="Helvetica,sans-Serif" font-size="10.00">16</text>
</a>
</g>
</g>
<!-- dir_50fe1f4dd9f98b7f0f1b3626668dc540&#45;&gt;dir_cac7f9cecb9aa42a0bd05452dddd8a21 -->
<g id="edge2" class="edge">
<title>dir_50fe1f4dd9f98b7f0f1b3626668dc540&#45;&gt;dir_cac7f9cecb9aa42a0bd05452dddd8a21</title>
<path fill="none" stroke="black" d="M153,-71.7C153,-63.98 153,-54.71 153,-46.11"/>
<polygon fill="black" stroke="black" points="156.5,-46.1 153,-36.1 149.5,-46.1 156.5,-46.1"/>
<g id="a_edge2&#45;headlabel"><a xlink:href="dir_000167_000006.html" target="_top" xlink:title="1">
<text text-anchor="middle" x="159.34" y="-47.2" font-family="Helvetica,sans-Serif" font-size="10.00">1</text>
</a>
</g>
</g>
</g>
</svg>
