<?xml version="1.0" encoding="UTF-8" standalone="no"?>
<!DOCTYPE svg PUBLIC "-//W3C//DTD SVG 1.1//EN"
 "http://www.w3.org/Graphics/SVG/1.1/DTD/svg11.dtd">
<!-- Generated by graphviz version 2.43.0 (0)
 -->
<!-- Title: include Pages: 1 -->
<svg width="128pt" height="223pt"
 viewBox="0.00 0.00 127.50 223.00" xmlns="http://www.w3.org/2000/svg" xmlns:xlink="http://www.w3.org/1999/xlink">
<g id="graph0" class="graph" transform="scale(1 1) rotate(0) translate(4 219)">
<title>include</title>
<polygon fill="white" stroke="transparent" points="-4,4 -4,-219 123.5,-219 123.5,4 -4,4"/>
<g id="clust1" class="cluster">
<title>clusterdir_0ed396c5ddbf39eeb8762b17963a1f52</title>
<g id="a_clust1"><a xlink:href="dir_0ed396c5ddbf39eeb8762b17963a1f52.html" target="_top" xlink:title="MeshFreeSurfer">
<polygon fill="#ddddee" stroke="black" points="18.5,-136 18.5,-207 111.5,-207 111.5,-136 18.5,-136"/>
<text text-anchor="middle" x="65" y="-195" font-family="Helvetica,sans-Serif" font-size="10.00">MeshFreeSurfer</text>
</a>
</g>
</g>
<!-- dir_906c92c32af99de68b03183325b63a56 -->
<g id="node1" class="node">
<title>dir_906c92c32af99de68b03183325b63a56</title>
<g id="a_node1"><a xlink:href="dir_906c92c32af99de68b03183325b63a56.html" target="_top" xlink:title="include">
<polygon fill="#eeeeff" stroke="black" points="91.5,-180 37.5,-180 37.5,-144 91.5,-144 91.5,-180"/>
<text text-anchor="middle" x="64.5" y="-159.5" font-family="Helvetica,sans-Serif" font-size="10.00">include</text>
</a>
</g>
</g>
<!-- dir_ed747c199e74b08368b2744f35933cef -->
<g id="node2" class="node">
<title>dir_ed747c199e74b08368b2744f35933cef</title>
<g id="a_node2"><a xlink:href="dir_ed747c199e74b08368b2744f35933cef.html" target="_top" xlink:title="MeshBase">
<polygon fill="white" stroke="red" points="67,-108 0,-108 0,-72 67,-72 67,-108"/>
<text text-anchor="middle" x="33.5" y="-87.5" font-family="Helvetica,sans-Serif" font-size="10.00">MeshBase</text>
</a>
</g>
</g>
<!-- dir_906c92c32af99de68b03183325b63a56&#45;&gt;dir_ed747c199e74b08368b2744f35933cef -->
<g id="edge2" class="edge">
<title>dir_906c92c32af99de68b03183325b63a56&#45;&gt;dir_ed747c199e74b08368b2744f35933cef</title>
<path fill="none" stroke="black" d="M56.84,-143.7C53.31,-135.73 49.04,-126.1 45.13,-117.26"/>
<polygon fill="black" stroke="black" points="48.32,-115.83 41.07,-108.1 41.92,-118.67 48.32,-115.83"/>
<g id="a_edge2&#45;headlabel"><a xlink:href="dir_000136_000108.html" target="_top" xlink:title="4">
<text text-anchor="middle" x="52.38" y="-115.47" font-family="Helvetica,sans-Serif" font-size="10.00">4</text>
</a>
</g>
</g>
<!-- dir_cac7f9cecb9aa42a0bd05452dddd8a21 -->
<g id="node3" class="node">
<title>dir_cac7f9cecb9aa42a0bd05452dddd8a21</title>
<g id="a_node3"><a xlink:href="dir_cac7f9cecb9aa42a0bd05452dddd8a21.html" target="_top" xlink:title="Core">
<polygon fill="white" stroke="red" points="91.5,-36 37.5,-36 37.5,0 91.5,0 91.5,-36"/>
<text text-anchor="middle" x="64.5" y="-15.5" font-family="Helvetica,sans-Serif" font-size="10.00">Core</text>
</a>
</g>
</g>
<!-- dir_906c92c32af99de68b03183325b63a56&#45;&gt;dir_cac7f9cecb9aa42a0bd05452dddd8a21 -->
<g id="edge3" class="edge">
<title>dir_906c92c32af99de68b03183325b63a56&#45;&gt;dir_cac7f9cecb9aa42a0bd05452dddd8a21</title>
<path fill="none" stroke="black" d="M69.37,-143.98C72.06,-133.67 75.14,-120.19 76.5,-108 78.28,-92.1 78.28,-87.9 76.5,-72 75.54,-63.43 73.74,-54.22 71.81,-45.93"/>
<polygon fill="black" stroke="black" points="75.16,-44.89 69.37,-36.02 68.37,-46.57 75.16,-44.89"/>
<g id="a_edge3&#45;headlabel"><a xlink:href="dir_000136_000006.html" target="_top" xlink:title="4">
<text text-anchor="middle" x="78.78" y="-45.2" font-family="Helvetica,sans-Serif" font-size="10.00">4</text>
</a>
</g>
</g>
<!-- dir_ed747c199e74b08368b2744f35933cef&#45;&gt;dir_cac7f9cecb9aa42a0bd05452dddd8a21 -->
<g id="edge1" class="edge">
<title>dir_ed747c199e74b08368b2744f35933cef&#45;&gt;dir_cac7f9cecb9aa42a0bd05452dddd8a21</title>
<path fill="none" stroke="black" d="M41.16,-71.7C44.69,-63.73 48.96,-54.1 52.87,-45.26"/>
<polygon fill="black" stroke="black" points="56.08,-46.67 56.93,-36.1 49.68,-43.83 56.08,-46.67"/>
<g id="a_edge1&#45;headlabel"><a xlink:href="dir_000108_000006.html" target="_top" xlink:title="41">
<text text-anchor="middle" x="57.22" y="-48.6" font-family="Helvetica,sans-Serif" font-size="10.00">41</text>
</a>
</g>
</g>
</g>
</svg>
