<?xml version="1.0" encoding="UTF-8" standalone="no"?>
<!DOCTYPE svg PUBLIC "-//W3C//DTD SVG 1.1//EN"
 "http://www.w3.org/Graphics/SVG/1.1/DTD/svg11.dtd">
<!-- Generated by graphviz version 2.43.0 (0)
 -->
<!-- Title: LabelMap Pages: 1 -->
<svg width="243pt" height="303pt"
 viewBox="0.00 0.00 243.00 303.00" xmlns="http://www.w3.org/2000/svg" xmlns:xlink="http://www.w3.org/1999/xlink">
<g id="graph0" class="graph" transform="scale(1 1) rotate(0) translate(4 299)">
<title>LabelMap</title>
<polygon fill="white" stroke="transparent" points="-4,4 -4,-299 239,-299 239,4 -4,4"/>
<g id="clust1" class="cluster">
<title>clusterdir_6724b11ef9ad676a0a0c31463bff1d93</title>
<g id="a_clust1"><a xlink:href="dir_6724b11ef9ad676a0a0c31463bff1d93.html" target="_top" xlink:title="Filtering">
<polygon fill="#ddddee" stroke="black" points="59,-200 59,-287 227,-287 227,-200 59,-200"/>
<text text-anchor="middle" x="143" y="-275" font-family="Helvetica,sans-Serif" font-size="10.00">Filtering</text>
</a>
</g>
</g>
<g id="clust2" class="cluster">
<title>clusterdir_26f5ffa4ccde54dd7c7e7ec663a16dd0</title>
<g id="a_clust2"><a xlink:href="dir_26f5ffa4ccde54dd7c7e7ec663a16dd0.html" target="_top">
<polygon fill="#eeeeff" stroke="black" points="67,-208 67,-260 219,-260 219,-208 67,-208"/>
</a>
</g>
</g>
<!-- dir_26f5ffa4ccde54dd7c7e7ec663a16dd0 -->
<g id="node1" class="node">
<title>dir_26f5ffa4ccde54dd7c7e7ec663a16dd0</title>
<text text-anchor="middle" x="179" y="-231.5" font-family="Helvetica,sans-Serif" font-size="10.00">LabelMap</text>
</g>
<!-- dir_e6af80814af45e38a077f5717907cac5 -->
<g id="node2" class="node">
<title>dir_e6af80814af45e38a077f5717907cac5</title>
<g id="a_node2"><a xlink:href="dir_e6af80814af45e38a077f5717907cac5.html" target="_top" xlink:title="include">
<polygon fill="white" stroke="black" points="129,-252 75,-252 75,-216 129,-216 129,-252"/>
<text text-anchor="middle" x="102" y="-231.5" font-family="Helvetica,sans-Serif" font-size="10.00">include</text>
</a>
</g>
</g>
<!-- dir_b6f57b6fc6f298c8d76e626523038467 -->
<g id="node3" class="node">
<title>dir_b6f57b6fc6f298c8d76e626523038467</title>
<g id="a_node3"><a xlink:href="dir_b6f57b6fc6f298c8d76e626523038467.html" target="_top" xlink:title="ImageLabel">
<polygon fill="white" stroke="red" points="74,-180 0,-180 0,-144 74,-144 74,-180"/>
<text text-anchor="middle" x="37" y="-159.5" font-family="Helvetica,sans-Serif" font-size="10.00">ImageLabel</text>
</a>
</g>
</g>
<!-- dir_e6af80814af45e38a077f5717907cac5&#45;&gt;dir_b6f57b6fc6f298c8d76e626523038467 -->
<g id="edge3" class="edge">
<title>dir_e6af80814af45e38a077f5717907cac5&#45;&gt;dir_b6f57b6fc6f298c8d76e626523038467</title>
<path fill="none" stroke="black" d="M85.93,-215.7C78.06,-207.22 68.44,-196.86 59.83,-187.58"/>
<polygon fill="black" stroke="black" points="62.25,-185.05 52.88,-180.1 57.12,-189.81 62.25,-185.05"/>
<g id="a_edge3&#45;headlabel"><a xlink:href="dir_000021_000058.html" target="_top" xlink:title="1">
<text text-anchor="middle" x="66.78" y="-183.25" font-family="Helvetica,sans-Serif" font-size="10.00">1</text>
</a>
</g>
</g>
<!-- dir_57605c80b6a7e87d0adba2f2655cc3cb -->
<g id="node4" class="node">
<title>dir_57605c80b6a7e87d0adba2f2655cc3cb</title>
<g id="a_node4"><a xlink:href="dir_57605c80b6a7e87d0adba2f2655cc3cb.html" target="_top" xlink:title="Numerics">
<polygon fill="white" stroke="red" points="116.5,-36 53.5,-36 53.5,0 116.5,0 116.5,-36"/>
<text text-anchor="middle" x="85" y="-15.5" font-family="Helvetica,sans-Serif" font-size="10.00">Numerics</text>
</a>
</g>
</g>
<!-- dir_e6af80814af45e38a077f5717907cac5&#45;&gt;dir_57605c80b6a7e87d0adba2f2655cc3cb -->
<g id="edge4" class="edge">
<title>dir_e6af80814af45e38a077f5717907cac5&#45;&gt;dir_57605c80b6a7e87d0adba2f2655cc3cb</title>
<path fill="none" stroke="black" d="M108.6,-215.66C119.02,-185.7 136.55,-122.58 121,-72 117.99,-62.22 112.49,-52.62 106.68,-44.33"/>
<polygon fill="black" stroke="black" points="109.41,-42.13 100.61,-36.23 103.81,-46.33 109.41,-42.13"/>
<g id="a_edge4&#45;headlabel"><a xlink:href="dir_000021_000022.html" target="_top" xlink:title="1">
<text text-anchor="middle" x="113.83" y="-40.8" font-family="Helvetica,sans-Serif" font-size="10.00">1</text>
</a>
</g>
</g>
<!-- dir_cac7f9cecb9aa42a0bd05452dddd8a21 -->
<g id="node5" class="node">
<title>dir_cac7f9cecb9aa42a0bd05452dddd8a21</title>
<g id="a_node5"><a xlink:href="dir_cac7f9cecb9aa42a0bd05452dddd8a21.html" target="_top" xlink:title="Core">
<polygon fill="white" stroke="red" points="112,-108 58,-108 58,-72 112,-72 112,-108"/>
<text text-anchor="middle" x="85" y="-87.5" font-family="Helvetica,sans-Serif" font-size="10.00">Core</text>
</a>
</g>
</g>
<!-- dir_e6af80814af45e38a077f5717907cac5&#45;&gt;dir_cac7f9cecb9aa42a0bd05452dddd8a21 -->
<g id="edge5" class="edge">
<title>dir_e6af80814af45e38a077f5717907cac5&#45;&gt;dir_cac7f9cecb9aa42a0bd05452dddd8a21</title>
<path fill="none" stroke="black" d="M99.95,-215.87C97.05,-191.67 91.73,-147.21 88.28,-118.39"/>
<polygon fill="black" stroke="black" points="91.72,-117.7 87.06,-108.19 84.77,-118.53 91.72,-117.7"/>
<g id="a_edge5&#45;headlabel"><a xlink:href="dir_000021_000006.html" target="_top" xlink:title="27">
<text text-anchor="middle" x="94.97" y="-118.43" font-family="Helvetica,sans-Serif" font-size="10.00">27</text>
</a>
</g>
</g>
<!-- dir_b6f57b6fc6f298c8d76e626523038467&#45;&gt;dir_cac7f9cecb9aa42a0bd05452dddd8a21 -->
<g id="edge1" class="edge">
<title>dir_b6f57b6fc6f298c8d76e626523038467&#45;&gt;dir_cac7f9cecb9aa42a0bd05452dddd8a21</title>
<path fill="none" stroke="black" d="M48.87,-143.7C54.5,-135.47 61.35,-125.48 67.57,-116.42"/>
<polygon fill="black" stroke="black" points="70.5,-118.33 73.27,-108.1 64.73,-114.37 70.5,-118.33"/>
<g id="a_edge1&#45;headlabel"><a xlink:href="dir_000058_000006.html" target="_top" xlink:title="7">
<text text-anchor="middle" x="70.81" y="-120.4" font-family="Helvetica,sans-Serif" font-size="10.00">7</text>
</a>
</g>
</g>
<!-- dir_57605c80b6a7e87d0adba2f2655cc3cb&#45;&gt;dir_cac7f9cecb9aa42a0bd05452dddd8a21 -->
<g id="edge2" class="edge">
<title>dir_57605c80b6a7e87d0adba2f2655cc3cb&#45;&gt;dir_cac7f9cecb9aa42a0bd05452dddd8a21</title>
<path fill="none" stroke="black" d="M90.9,-36.1C91.7,-43.79 91.94,-53.05 91.6,-61.67"/>
<polygon fill="black" stroke="black" points="88.11,-61.48 90.92,-71.7 95.09,-61.96 88.11,-61.48"/>
<g id="a_edge2&#45;headlabel"><a xlink:href="dir_000022_000006.html" target="_top" xlink:title="204">
<text text-anchor="middle" x="85.52" y="-55.2" font-family="Helvetica,sans-Serif" font-size="10.00">204</text>
</a>
</g>
</g>
<!-- dir_cac7f9cecb9aa42a0bd05452dddd8a21&#45;&gt;dir_57605c80b6a7e87d0adba2f2655cc3cb -->
<g id="edge6" class="edge">
<title>dir_cac7f9cecb9aa42a0bd05452dddd8a21&#45;&gt;dir_57605c80b6a7e87d0adba2f2655cc3cb</title>
<path fill="none" stroke="black" d="M79.08,-71.7C78.29,-63.98 78.06,-54.71 78.4,-46.11"/>
<polygon fill="black" stroke="black" points="81.9,-46.32 79.1,-36.1 74.92,-45.84 81.9,-46.32"/>
<g id="a_edge6&#45;headlabel"><a xlink:href="dir_000006_000022.html" target="_top" xlink:title="2">
<text text-anchor="middle" x="84.48" y="-47.61" font-family="Helvetica,sans-Serif" font-size="10.00">2</text>
</a>
</g>
</g>
</g>
</svg>
