<?xml version="1.0" encoding="UTF-8" standalone="no"?>
<!DOCTYPE svg PUBLIC "-//W3C//DTD SVG 1.1//EN"
 "http://www.w3.org/Graphics/SVG/1.1/DTD/svg11.dtd">
<!-- Generated by graphviz version 2.43.0 (0)
 -->
<!-- Title: include Pages: 1 -->
<svg width="106pt" height="151pt"
 viewBox="0.00 0.00 106.00 151.00" xmlns="http://www.w3.org/2000/svg" xmlns:xlink="http://www.w3.org/1999/xlink">
<g id="graph0" class="graph" transform="scale(1 1) rotate(0) translate(4 147)">
<title>include</title>
<polygon fill="white" stroke="transparent" points="-4,4 -4,-147 102,-147 102,4 -4,4"/>
<g id="clust1" class="cluster">
<title>clusterdir_c33cbe94a8640e6fa88468267199b2f3</title>
<g id="a_clust1"><a xlink:href="dir_c33cbe94a8640e6fa88468267199b2f3.html" target="_top" xlink:title="GPUCommon">
<polygon fill="#ddddee" stroke="black" points="8,-64 8,-135 90,-135 90,-64 8,-64"/>
<text text-anchor="middle" x="49" y="-123" font-family="Helvetica,sans-Serif" font-size="10.00">GPUCommon</text>
</a>
</g>
</g>
<!-- dir_856351105b18f679e8bf63aa50cb1efe -->
<g id="node1" class="node">
<title>dir_856351105b18f679e8bf63aa50cb1efe</title>
<g id="a_node1"><a xlink:href="dir_856351105b18f679e8bf63aa50cb1efe.html" target="_top" xlink:title="include">
<polygon fill="#eeeeff" stroke="black" points="76,-108 22,-108 22,-72 76,-72 76,-108"/>
<text text-anchor="middle" x="49" y="-87.5" font-family="Helvetica,sans-Serif" font-size="10.00">include</text>
</a>
</g>
</g>
<!-- dir_d38764bbd2ed2fce86b6f67aad6c8758 -->
<g id="node2" class="node">
<title>dir_d38764bbd2ed2fce86b6f67aad6c8758</title>
<g id="a_node2"><a xlink:href="dir_d38764bbd2ed2fce86b6f67aad6c8758.html" target="_top" xlink:title="Common">
<polygon fill="white" stroke="red" points="79.5,-36 18.5,-36 18.5,0 79.5,0 79.5,-36"/>
<text text-anchor="middle" x="49" y="-15.5" font-family="Helvetica,sans-Serif" font-size="10.00">Common</text>
</a>
</g>
</g>
<!-- dir_856351105b18f679e8bf63aa50cb1efe&#45;&gt;dir_d38764bbd2ed2fce86b6f67aad6c8758 -->
<g id="edge1" class="edge">
<title>dir_856351105b18f679e8bf63aa50cb1efe&#45;&gt;dir_d38764bbd2ed2fce86b6f67aad6c8758</title>
<path fill="none" stroke="black" d="M49,-71.7C49,-63.98 49,-54.71 49,-46.11"/>
<polygon fill="black" stroke="black" points="52.5,-46.1 49,-36.1 45.5,-46.1 52.5,-46.1"/>
<g id="a_edge1&#45;headlabel"><a xlink:href="dir_000160_000034.html" target="_top" xlink:title="20">
<text text-anchor="middle" x="55.34" y="-47.2" font-family="Helvetica,sans-Serif" font-size="10.00">20</text>
</a>
</g>
</g>
</g>
</svg>
