<?xml version="1.0" encoding="UTF-8" standalone="no"?>
<!DOCTYPE svg PUBLIC "-//W3C//DTD SVG 1.1//EN"
 "http://www.w3.org/Graphics/SVG/1.1/DTD/svg11.dtd">
<!-- Generated by graphviz version 2.43.0 (0)
 -->
<!-- Title: AntiAlias Pages: 1 -->
<svg width="232pt" height="159pt"
 viewBox="0.00 0.00 231.50 159.00" xmlns="http://www.w3.org/2000/svg" xmlns:xlink="http://www.w3.org/1999/xlink">
<g id="graph0" class="graph" transform="scale(1 1) rotate(0) translate(4 155)">
<title>AntiAlias</title>
<polygon fill="white" stroke="transparent" points="-4,4 -4,-155 227.5,-155 227.5,4 -4,4"/>
<g id="clust1" class="cluster">
<title>clusterdir_6724b11ef9ad676a0a0c31463bff1d93</title>
<g id="a_clust1"><a xlink:href="dir_6724b11ef9ad676a0a0c31463bff1d93.html" target="_top" xlink:title="Filtering">
<polygon fill="#ddddee" stroke="black" points="51.5,-56 51.5,-143 215.5,-143 215.5,-56 51.5,-56"/>
<text text-anchor="middle" x="133.5" y="-131" font-family="Helvetica,sans-Serif" font-size="10.00">Filtering</text>
</a>
</g>
</g>
<g id="clust2" class="cluster">
<title>clusterdir_6859e8965d40066b9335eada96bf3308</title>
<g id="a_clust2"><a xlink:href="dir_6859e8965d40066b9335eada96bf3308.html" target="_top">
<polygon fill="#eeeeff" stroke="black" points="59.5,-64 59.5,-116 207.5,-116 207.5,-64 59.5,-64"/>
</a>
</g>
</g>
<!-- dir_6859e8965d40066b9335eada96bf3308 -->
<g id="node1" class="node">
<title>dir_6859e8965d40066b9335eada96bf3308</title>
<text text-anchor="middle" x="169.5" y="-87.5" font-family="Helvetica,sans-Serif" font-size="10.00">AntiAlias</text>
</g>
<!-- dir_a6987418ecc11206830a35b06b4f7dd9 -->
<g id="node2" class="node">
<title>dir_a6987418ecc11206830a35b06b4f7dd9</title>
<g id="a_node2"><a xlink:href="dir_a6987418ecc11206830a35b06b4f7dd9.html" target="_top" xlink:title="include">
<polygon fill="white" stroke="black" points="121.5,-108 67.5,-108 67.5,-72 121.5,-72 121.5,-108"/>
<text text-anchor="middle" x="94.5" y="-87.5" font-family="Helvetica,sans-Serif" font-size="10.00">include</text>
</a>
</g>
</g>
<!-- dir_431b5b85ef2fd850d23fe72862364324 -->
<g id="node3" class="node">
<title>dir_431b5b85ef2fd850d23fe72862364324</title>
<g id="a_node3"><a xlink:href="dir_431b5b85ef2fd850d23fe72862364324.html" target="_top" xlink:title="Segmentation">
<polygon fill="white" stroke="red" points="85,-36 0,-36 0,0 85,0 85,-36"/>
<text text-anchor="middle" x="42.5" y="-15.5" font-family="Helvetica,sans-Serif" font-size="10.00">Segmentation</text>
</a>
</g>
</g>
<!-- dir_a6987418ecc11206830a35b06b4f7dd9&#45;&gt;dir_431b5b85ef2fd850d23fe72862364324 -->
<g id="edge1" class="edge">
<title>dir_a6987418ecc11206830a35b06b4f7dd9&#45;&gt;dir_431b5b85ef2fd850d23fe72862364324</title>
<path fill="none" stroke="black" d="M81.65,-71.7C75.47,-63.39 67.96,-53.28 61.18,-44.14"/>
<polygon fill="black" stroke="black" points="63.98,-42.04 55.21,-36.1 58.36,-46.22 63.98,-42.04"/>
<g id="a_edge1&#45;headlabel"><a xlink:href="dir_000037_000031.html" target="_top" xlink:title="1">
<text text-anchor="middle" x="68.4" y="-40.74" font-family="Helvetica,sans-Serif" font-size="10.00">1</text>
</a>
</g>
</g>
<!-- dir_17a43173937a44f89ee6c08f078de775 -->
<g id="node4" class="node">
<title>dir_17a43173937a44f89ee6c08f078de775</title>
<g id="a_node4"><a xlink:href="dir_17a43173937a44f89ee6c08f078de775.html" target="_top" xlink:title="CurvatureFlow">
<polygon fill="white" stroke="red" points="191.5,-36 103.5,-36 103.5,0 191.5,0 191.5,-36"/>
<text text-anchor="middle" x="147.5" y="-15.5" font-family="Helvetica,sans-Serif" font-size="10.00">CurvatureFlow</text>
</a>
</g>
</g>
<!-- dir_a6987418ecc11206830a35b06b4f7dd9&#45;&gt;dir_17a43173937a44f89ee6c08f078de775 -->
<g id="edge2" class="edge">
<title>dir_a6987418ecc11206830a35b06b4f7dd9&#45;&gt;dir_17a43173937a44f89ee6c08f078de775</title>
<path fill="none" stroke="black" d="M107.6,-71.7C113.89,-63.39 121.55,-53.28 128.46,-44.14"/>
<polygon fill="black" stroke="black" points="131.3,-46.19 134.55,-36.1 125.72,-41.96 131.3,-46.19"/>
<g id="a_edge2&#45;headlabel"><a xlink:href="dir_000037_000066.html" target="_top" xlink:title="1">
<text text-anchor="middle" x="131.4" y="-48.27" font-family="Helvetica,sans-Serif" font-size="10.00">1</text>
</a>
</g>
</g>
</g>
</svg>
