<?xml version="1.0" encoding="UTF-8" standalone="no"?>
<!DOCTYPE svg PUBLIC "-//W3C//DTD SVG 1.1//EN"
 "http://www.w3.org/Graphics/SVG/1.1/DTD/svg11.dtd">
<!-- Generated by graphviz version 2.43.0 (0)
 -->
<!-- Title: include Pages: 1 -->
<svg width="113pt" height="223pt"
 viewBox="0.00 0.00 112.50 223.00" xmlns="http://www.w3.org/2000/svg" xmlns:xlink="http://www.w3.org/1999/xlink">
<g id="graph0" class="graph" transform="scale(1 1) rotate(0) translate(4 219)">
<title>include</title>
<polygon fill="white" stroke="transparent" points="-4,4 -4,-219 108.5,-219 108.5,4 -4,4"/>
<g id="clust1" class="cluster">
<title>clusterdir_32a224cc941df3281aad6c50b26c06ed</title>
<g id="a_clust1"><a xlink:href="dir_32a224cc941df3281aad6c50b26c06ed.html" target="_top" xlink:title="Denoising">
<polygon fill="#ddddee" stroke="black" points="26.5,-136 26.5,-207 96.5,-207 96.5,-136 26.5,-136"/>
<text text-anchor="middle" x="61.5" y="-195" font-family="Helvetica,sans-Serif" font-size="10.00">Denoising</text>
</a>
</g>
</g>
<!-- dir_1495ffb82464dcc129391c58300368fd -->
<g id="node1" class="node">
<title>dir_1495ffb82464dcc129391c58300368fd</title>
<g id="a_node1"><a xlink:href="dir_1495ffb82464dcc129391c58300368fd.html" target="_top" xlink:title="include">
<polygon fill="#eeeeff" stroke="black" points="88.5,-180 34.5,-180 34.5,-144 88.5,-144 88.5,-180"/>
<text text-anchor="middle" x="61.5" y="-159.5" font-family="Helvetica,sans-Serif" font-size="10.00">include</text>
</a>
</g>
</g>
<!-- dir_57605c80b6a7e87d0adba2f2655cc3cb -->
<g id="node2" class="node">
<title>dir_57605c80b6a7e87d0adba2f2655cc3cb</title>
<g id="a_node2"><a xlink:href="dir_57605c80b6a7e87d0adba2f2655cc3cb.html" target="_top" xlink:title="Numerics">
<polygon fill="white" stroke="red" points="63,-108 0,-108 0,-72 63,-72 63,-108"/>
<text text-anchor="middle" x="31.5" y="-87.5" font-family="Helvetica,sans-Serif" font-size="10.00">Numerics</text>
</a>
</g>
</g>
<!-- dir_1495ffb82464dcc129391c58300368fd&#45;&gt;dir_57605c80b6a7e87d0adba2f2655cc3cb -->
<g id="edge3" class="edge">
<title>dir_1495ffb82464dcc129391c58300368fd&#45;&gt;dir_57605c80b6a7e87d0adba2f2655cc3cb</title>
<path fill="none" stroke="black" d="M54.08,-143.7C50.71,-135.81 46.63,-126.3 42.88,-117.55"/>
<polygon fill="black" stroke="black" points="45.99,-115.92 38.83,-108.1 39.55,-118.67 45.99,-115.92"/>
<g id="a_edge3&#45;headlabel"><a xlink:href="dir_000214_000022.html" target="_top" xlink:title="3">
<text text-anchor="middle" x="50.01" y="-115.6" font-family="Helvetica,sans-Serif" font-size="10.00">3</text>
</a>
</g>
</g>
<!-- dir_cac7f9cecb9aa42a0bd05452dddd8a21 -->
<g id="node3" class="node">
<title>dir_cac7f9cecb9aa42a0bd05452dddd8a21</title>
<g id="a_node3"><a xlink:href="dir_cac7f9cecb9aa42a0bd05452dddd8a21.html" target="_top" xlink:title="Core">
<polygon fill="white" stroke="red" points="58.5,-36 4.5,-36 4.5,0 58.5,0 58.5,-36"/>
<text text-anchor="middle" x="31.5" y="-15.5" font-family="Helvetica,sans-Serif" font-size="10.00">Core</text>
</a>
</g>
</g>
<!-- dir_1495ffb82464dcc129391c58300368fd&#45;&gt;dir_cac7f9cecb9aa42a0bd05452dddd8a21 -->
<g id="edge4" class="edge">
<title>dir_1495ffb82464dcc129391c58300368fd&#45;&gt;dir_cac7f9cecb9aa42a0bd05452dddd8a21</title>
<path fill="none" stroke="black" d="M68.05,-143.8C74,-125.53 80.7,-96.01 72.5,-72 69.06,-61.93 62.84,-52.28 56.27,-44.05"/>
<polygon fill="black" stroke="black" points="58.82,-41.65 49.67,-36.32 53.5,-46.2 58.82,-41.65"/>
<g id="a_edge4&#45;headlabel"><a xlink:href="dir_000214_000006.html" target="_top" xlink:title="17">
<text text-anchor="middle" x="63.32" y="-40.04" font-family="Helvetica,sans-Serif" font-size="10.00">17</text>
</a>
</g>
</g>
<!-- dir_57605c80b6a7e87d0adba2f2655cc3cb&#45;&gt;dir_cac7f9cecb9aa42a0bd05452dddd8a21 -->
<g id="edge1" class="edge">
<title>dir_57605c80b6a7e87d0adba2f2655cc3cb&#45;&gt;dir_cac7f9cecb9aa42a0bd05452dddd8a21</title>
<path fill="none" stroke="black" d="M25.58,-71.7C24.79,-63.98 24.56,-54.71 24.9,-46.11"/>
<polygon fill="black" stroke="black" points="28.4,-46.32 25.6,-36.1 21.42,-45.84 28.4,-46.32"/>
<g id="a_edge1&#45;headlabel"><a xlink:href="dir_000022_000006.html" target="_top" xlink:title="204">
<text text-anchor="middle" x="30.98" y="-47.61" font-family="Helvetica,sans-Serif" font-size="10.00">204</text>
</a>
</g>
</g>
<!-- dir_cac7f9cecb9aa42a0bd05452dddd8a21&#45;&gt;dir_57605c80b6a7e87d0adba2f2655cc3cb -->
<g id="edge2" class="edge">
<title>dir_cac7f9cecb9aa42a0bd05452dddd8a21&#45;&gt;dir_57605c80b6a7e87d0adba2f2655cc3cb</title>
<path fill="none" stroke="black" d="M37.4,-36.1C38.2,-43.79 38.44,-53.05 38.1,-61.67"/>
<polygon fill="black" stroke="black" points="34.61,-61.48 37.42,-71.7 41.59,-61.96 34.61,-61.48"/>
<g id="a_edge2&#45;headlabel"><a xlink:href="dir_000006_000022.html" target="_top" xlink:title="2">
<text text-anchor="middle" x="32.02" y="-55.2" font-family="Helvetica,sans-Serif" font-size="10.00">2</text>
</a>
</g>
</g>
</g>
</svg>
