<?xml version="1.0" encoding="UTF-8" standalone="no"?>
<!DOCTYPE svg PUBLIC "-//W3C//DTD SVG 1.1//EN"
 "http://www.w3.org/Graphics/SVG/1.1/DTD/svg11.dtd">
<!-- Generated by graphviz version 2.43.0 (0)
 -->
<!-- Title: ITKWatersheds Pages: 1 -->
<svg width="1091pt" height="116pt"
 viewBox="0.00 0.00 1090.58 116.00" xmlns="http://www.w3.org/2000/svg" xmlns:xlink="http://www.w3.org/1999/xlink">
<g id="graph0" class="graph" transform="scale(1 1) rotate(0) translate(4 112)">
<title>ITKWatersheds</title>
<polygon fill="white" stroke="transparent" points="-4,4 -4,-112 1086.58,-112 1086.58,4 -4,4"/>
<!-- ITKWatersheds -->
<g id="node1" class="node">
<title>ITKWatersheds</title>
<ellipse fill="none" stroke="black" cx="569.84" cy="-90" rx="81.49" ry="18"/>
<text text-anchor="middle" x="569.84" y="-86.3" font-family="Times,serif" font-size="14.00">ITKWatersheds</text>
</g>
<!-- ITKImageGradient -->
<g id="node2" class="node">
<title>ITKImageGradient</title>
<ellipse fill="none" stroke="black" cx="96.84" cy="-18" rx="96.68" ry="18"/>
<text text-anchor="middle" x="96.84" y="-14.3" font-family="Times,serif" font-size="14.00">ITKImageGradient</text>
</g>
<!-- ITKWatersheds&#45;&#45;ITKImageGradient -->
<g id="edge1" class="edge">
<title>ITKWatersheds&#45;&#45;ITKImageGradient</title>
<path fill="none" stroke="black" d="M503.16,-79.69C429.59,-69.34 307.69,-51.98 202.84,-36 191.33,-34.25 179.11,-32.33 167.23,-30.45"/>
</g>
<!-- ITKImageIntensity -->
<g id="node3" class="node">
<title>ITKImageIntensity</title>
<ellipse fill="none" stroke="black" cx="308.84" cy="-18" rx="96.68" ry="18"/>
<text text-anchor="middle" x="308.84" y="-14.3" font-family="Times,serif" font-size="14.00">ITKImageIntensity</text>
</g>
<!-- ITKWatersheds&#45;&#45;ITKImageIntensity -->
<g id="edge2" class="edge">
<title>ITKWatersheds&#45;&#45;ITKImageIntensity</title>
<path fill="none" stroke="black" d="M520.13,-75.67C474.73,-63.49 407.81,-45.54 361.5,-33.12"/>
</g>
<!-- ITKMathematicalMorphology -->
<g id="node4" class="node">
<title>ITKMathematicalMorphology</title>
<ellipse fill="none" stroke="black" cx="569.84" cy="-18" rx="146.47" ry="18"/>
<text text-anchor="middle" x="569.84" y="-14.3" font-family="Times,serif" font-size="14.00">ITKMathematicalMorphology</text>
</g>
<!-- ITKWatersheds&#45;&#45;ITKMathematicalMorphology -->
<g id="edge3" class="edge">
<title>ITKWatersheds&#45;&#45;ITKMathematicalMorphology</title>
<path fill="none" stroke="black" d="M569.84,-71.7C569.84,-60.85 569.84,-46.92 569.84,-36.1"/>
</g>
<!-- ITKSmoothing -->
<g id="node5" class="node">
<title>ITKSmoothing</title>
<ellipse fill="none" stroke="black" cx="811.84" cy="-18" rx="77.19" ry="18"/>
<text text-anchor="middle" x="811.84" y="-14.3" font-family="Times,serif" font-size="14.00">ITKSmoothing</text>
</g>
<!-- ITKWatersheds&#45;&#45;ITKSmoothing -->
<g id="edge4" class="edge">
<title>ITKWatersheds&#45;&#45;ITKSmoothing</title>
<path fill="none" stroke="black" d="M617.08,-75.34C659.85,-62.96 722.52,-44.84 765.14,-32.51"/>
</g>
<!-- ITKThresholding -->
<g id="node6" class="node">
<title>ITKThresholding</title>
<ellipse fill="none" stroke="black" cx="994.84" cy="-18" rx="87.99" ry="18"/>
<text text-anchor="middle" x="994.84" y="-14.3" font-family="Times,serif" font-size="14.00">ITKThresholding</text>
</g>
<!-- ITKWatersheds&#45;&#45;ITKThresholding -->
<g id="edge5" class="edge">
<title>ITKWatersheds&#45;&#45;ITKThresholding</title>
<path fill="none" stroke="black" d="M633.99,-78.89C700.14,-68.41 806.26,-51.42 897.84,-36 908.46,-34.21 919.73,-32.27 930.68,-30.37"/>
</g>
</g>
</svg>
