<?xml version="1.0" encoding="UTF-8" standalone="no"?>
<!DOCTYPE svg PUBLIC "-//W3C//DTD SVG 1.1//EN"
 "http://www.w3.org/Graphics/SVG/1.1/DTD/svg11.dtd">
<!-- Generated by graphviz version 2.43.0 (0)
 -->
<!-- Title: ITKImageStatistics Pages: 1 -->
<svg width="807pt" height="116pt"
 viewBox="0.00 0.00 806.53 116.00" xmlns="http://www.w3.org/2000/svg" xmlns:xlink="http://www.w3.org/1999/xlink">
<g id="graph0" class="graph" transform="scale(1 1) rotate(0) translate(4 112)">
<title>ITKImageStatistics</title>
<polygon fill="white" stroke="transparent" points="-4,4 -4,-112 802.53,-112 802.53,4 -4,4"/>
<!-- ITKImageStatistics -->
<g id="node1" class="node">
<title>ITKImageStatistics</title>
<ellipse fill="none" stroke="black" cx="426.14" cy="-90" rx="99.38" ry="18"/>
<text text-anchor="middle" x="426.14" y="-86.3" font-family="Times,serif" font-size="14.00">ITKImageStatistics</text>
</g>
<!-- ITKImageCompose -->
<g id="node2" class="node">
<title>ITKImageCompose</title>
<ellipse fill="none" stroke="black" cx="98.14" cy="-18" rx="98.28" ry="18"/>
<text text-anchor="middle" x="98.14" y="-14.3" font-family="Times,serif" font-size="14.00">ITKImageCompose</text>
</g>
<!-- ITKImageStatistics&#45;&#45;ITKImageCompose -->
<g id="edge1" class="edge">
<title>ITKImageStatistics&#45;&#45;ITKImageCompose</title>
<path fill="none" stroke="black" d="M364.45,-75.83C305.81,-63.32 218.11,-44.6 159.56,-32.11"/>
</g>
<!-- ITKImageFilterBase -->
<g id="node3" class="node">
<title>ITKImageFilterBase</title>
<ellipse fill="none" stroke="black" cx="318.14" cy="-18" rx="103.98" ry="18"/>
<text text-anchor="middle" x="318.14" y="-14.3" font-family="Times,serif" font-size="14.00">ITKImageFilterBase</text>
</g>
<!-- ITKImageStatistics&#45;&#45;ITKImageFilterBase -->
<g id="edge2" class="edge">
<title>ITKImageStatistics&#45;&#45;ITKImageFilterBase</title>
<path fill="none" stroke="black" d="M400.82,-72.59C383.61,-61.43 360.93,-46.73 343.68,-35.55"/>
</g>
<!-- ITKSpatialObjects -->
<g id="node4" class="node">
<title>ITKSpatialObjects</title>
<ellipse fill="none" stroke="black" cx="535.14" cy="-18" rx="94.78" ry="18"/>
<text text-anchor="middle" x="535.14" y="-14.3" font-family="Times,serif" font-size="14.00">ITKSpatialObjects</text>
</g>
<!-- ITKImageStatistics&#45;&#45;ITKSpatialObjects -->
<g id="edge3" class="edge">
<title>ITKImageStatistics&#45;&#45;ITKSpatialObjects</title>
<path fill="none" stroke="black" d="M451.7,-72.59C469.06,-61.43 491.96,-46.73 509.37,-35.55"/>
</g>
<!-- ITKTransform -->
<g id="node5" class="node">
<title>ITKTransform</title>
<ellipse fill="none" stroke="black" cx="723.14" cy="-18" rx="75.29" ry="18"/>
<text text-anchor="middle" x="723.14" y="-14.3" font-family="Times,serif" font-size="14.00">ITKTransform</text>
</g>
<!-- ITKImageStatistics&#45;&#45;ITKTransform -->
<g id="edge4" class="edge">
<title>ITKImageStatistics&#45;&#45;ITKTransform</title>
<path fill="none" stroke="black" d="M484.11,-75.34C538.47,-62.53 619,-43.55 671.28,-31.22"/>
</g>
</g>
</svg>
