<?xml version="1.0" encoding="UTF-8" standalone="no"?>
<!DOCTYPE svg PUBLIC "-//W3C//DTD SVG 1.1//EN"
 "http://www.w3.org/Graphics/SVG/1.1/DTD/svg11.dtd">
<!-- Generated by graphviz version 2.43.0 (0)
 -->
<!-- Title: ITKDisplacementField Pages: 1 -->
<svg width="544pt" height="116pt"
 viewBox="0.00 0.00 544.39 116.00" xmlns="http://www.w3.org/2000/svg" xmlns:xlink="http://www.w3.org/1999/xlink">
<g id="graph0" class="graph" transform="scale(1 1) rotate(0) translate(4 112)">
<title>ITKDisplacementField</title>
<polygon fill="white" stroke="transparent" points="-4,4 -4,-112 540.39,-112 540.39,4 -4,4"/>
<!-- ITKDisplacementField -->
<g id="node1" class="node">
<title>ITKDisplacementField</title>
<ellipse fill="none" stroke="black" cx="267.04" cy="-90" rx="113.98" ry="18"/>
<text text-anchor="middle" x="267.04" y="-86.3" font-family="Times,serif" font-size="14.00">ITKDisplacementField</text>
</g>
<!-- ITKImageGrid -->
<g id="node2" class="node">
<title>ITKImageGrid</title>
<ellipse fill="none" stroke="black" cx="76.04" cy="-18" rx="76.09" ry="18"/>
<text text-anchor="middle" x="76.04" y="-14.3" font-family="Times,serif" font-size="14.00">ITKImageGrid</text>
</g>
<!-- ITKDisplacementField&#45;&#45;ITKImageGrid -->
<g id="edge1" class="edge">
<title>ITKDisplacementField&#45;&#45;ITKImageGrid</title>
<path fill="none" stroke="black" d="M224.18,-73.29C191.62,-61.36 147.2,-45.08 115.51,-33.46"/>
</g>
<!-- ITKImageIntensity -->
<g id="node3" class="node">
<title>ITKImageIntensity</title>
<ellipse fill="none" stroke="black" cx="267.04" cy="-18" rx="96.68" ry="18"/>
<text text-anchor="middle" x="267.04" y="-14.3" font-family="Times,serif" font-size="14.00">ITKImageIntensity</text>
</g>
<!-- ITKDisplacementField&#45;&#45;ITKImageIntensity -->
<g id="edge2" class="edge">
<title>ITKDisplacementField&#45;&#45;ITKImageIntensity</title>
<path fill="none" stroke="black" d="M267.04,-71.7C267.04,-60.85 267.04,-46.92 267.04,-36.1"/>
</g>
<!-- ITKSmoothing -->
<g id="node4" class="node">
<title>ITKSmoothing</title>
<ellipse fill="none" stroke="black" cx="459.04" cy="-18" rx="77.19" ry="18"/>
<text text-anchor="middle" x="459.04" y="-14.3" font-family="Times,serif" font-size="14.00">ITKSmoothing</text>
</g>
<!-- ITKDisplacementField&#45;&#45;ITKSmoothing -->
<g id="edge3" class="edge">
<title>ITKDisplacementField&#45;&#45;ITKSmoothing</title>
<path fill="none" stroke="black" d="M310.13,-73.29C342.86,-61.36 387.52,-45.08 419.37,-33.46"/>
</g>
</g>
</svg>
