<?xml version="1.0" encoding="UTF-8" standalone="no"?>
<!DOCTYPE svg PUBLIC "-//W3C//DTD SVG 1.1//EN"
 "http://www.w3.org/Graphics/SVG/1.1/DTD/svg11.dtd">
<!-- Generated by graphviz version 2.43.0 (0)
 -->
<!-- Title: ITKGPUThresholding Pages: 1 -->
<svg width="533pt" height="116pt"
 viewBox="0.00 0.00 533.34 116.00" xmlns="http://www.w3.org/2000/svg" xmlns:xlink="http://www.w3.org/1999/xlink">
<g id="graph0" class="graph" transform="scale(1 1) rotate(0) translate(4 112)">
<title>ITKGPUThresholding</title>
<polygon fill="white" stroke="transparent" points="-4,4 -4,-112 529.34,-112 529.34,4 -4,4"/>
<!-- ITKGPUThresholding -->
<g id="node1" class="node">
<title>ITKGPUThresholding</title>
<ellipse fill="none" stroke="black" cx="242.59" cy="-90" rx="108.58" ry="18"/>
<text text-anchor="middle" x="242.59" y="-86.3" font-family="Times,serif" font-size="14.00">ITKGPUThresholding</text>
</g>
<!-- ITKCommon -->
<g id="node2" class="node">
<title>ITKCommon</title>
<ellipse fill="none" stroke="black" cx="67.59" cy="-18" rx="67.69" ry="18"/>
<text text-anchor="middle" x="67.59" y="-14.3" font-family="Times,serif" font-size="14.00">ITKCommon</text>
</g>
<!-- ITKGPUThresholding&#45;&#45;ITKCommon -->
<g id="edge1" class="edge">
<title>ITKGPUThresholding&#45;&#45;ITKCommon</title>
<path fill="none" stroke="black" d="M202.88,-73.12C173.03,-61.18 132.48,-44.95 103.58,-33.39"/>
</g>
<!-- ITKGPUCommon -->
<g id="node3" class="node">
<title>ITKGPUCommon</title>
<ellipse fill="none" stroke="black" cx="242.59" cy="-18" rx="89.08" ry="18"/>
<text text-anchor="middle" x="242.59" y="-14.3" font-family="Times,serif" font-size="14.00">ITKGPUCommon</text>
</g>
<!-- ITKGPUThresholding&#45;&#45;ITKGPUCommon -->
<g id="edge2" class="edge">
<title>ITKGPUThresholding&#45;&#45;ITKGPUCommon</title>
<path fill="none" stroke="black" d="M242.59,-71.7C242.59,-60.85 242.59,-46.92 242.59,-36.1"/>
</g>
<!-- ITKThresholding -->
<g id="node4" class="node">
<title>ITKThresholding</title>
<ellipse fill="none" stroke="black" cx="437.59" cy="-18" rx="87.99" ry="18"/>
<text text-anchor="middle" x="437.59" y="-14.3" font-family="Times,serif" font-size="14.00">ITKThresholding</text>
</g>
<!-- ITKGPUThresholding&#45;&#45;ITKThresholding -->
<g id="edge3" class="edge">
<title>ITKGPUThresholding&#45;&#45;ITKThresholding</title>
<path fill="none" stroke="black" d="M285.87,-73.46C318.75,-61.66 363.68,-45.53 396.11,-33.89"/>
</g>
</g>
</svg>
