<?xml version="1.0" encoding="UTF-8" standalone="no"?>
<!DOCTYPE svg PUBLIC "-//W3C//DTD SVG 1.1//EN"
 "http://www.w3.org/Graphics/SVG/1.1/DTD/svg11.dtd">
<!-- Generated by graphviz version 2.43.0 (0)
 -->
<!-- Title: Module ITKImageLabel Pages: 1 -->
<svg width="562pt" height="64pt"
 viewBox="0.00 0.00 562.00 64.00" xmlns="http://www.w3.org/2000/svg" xmlns:xlink="http://www.w3.org/1999/xlink">
<g id="graph0" class="graph" transform="scale(1 1) rotate(0) translate(4 60)">
<title>Module ITKImageLabel</title>
<polygon fill="white" stroke="transparent" points="-4,4 -4,-60 558,-60 558,4 -4,4"/>
<!-- Node3 -->
<g id="node1" class="node">
<title>Node3</title>
<g id="a_node1"><a xlink:href="group__IntensityImageFilters.html" target="_top" xlink:title=" ">
<polygon fill="white" stroke="black" points="554,-56 428,-56 428,-37 554,-37 554,-56"/>
<text text-anchor="middle" x="491" y="-44" font-family="Helvetica,sans-Serif" font-size="10.00">Intensity Image Filters</text>
</a>
</g>
</g>
<!-- Node1 -->
<g id="node2" class="node">
<title>Node1</title>
<g id="a_node2"><a xlink:title="This module contains filters intended to operate on images of labels. Such images are typically the o...">
<polygon fill="#bfbfbf" stroke="black" points="254,-37 126,-37 126,-18 254,-18 254,-37"/>
<text text-anchor="middle" x="190" y="-25" font-family="Helvetica,sans-Serif" font-size="10.00">Module ITKImageLabel</text>
</a>
</g>
</g>
<!-- Node1&#45;&gt;Node3 -->
<g id="edge2" class="edge">
<title>Node1&#45;&gt;Node3</title>
<path fill="none" stroke="orange" stroke-dasharray="5,2" d="M254.04,-31.51C305.19,-34.76 376.9,-39.31 427.81,-42.55"/>
<text text-anchor="middle" x="341" y="-43.5" font-family="Helvetica,sans-Serif" font-size="10.00">itk::ChangeLabelImageFilter</text>
</g>
<!-- Node4 -->
<g id="node3" class="node">
<title>Node4</title>
<g id="a_node3"><a xlink:href="group__MultiThreaded.html" target="_top" xlink:title=" ">
<polygon fill="white" stroke="black" points="551,-19 431,-19 431,0 551,0 551,-19"/>
<text text-anchor="middle" x="491" y="-7" font-family="Helvetica,sans-Serif" font-size="10.00">MultiThreaded Filters</text>
</a>
</g>
</g>
<!-- Node1&#45;&gt;Node4 -->
<g id="edge3" class="edge">
<title>Node1&#45;&gt;Node4</title>
<path fill="none" stroke="orange" stroke-dasharray="5,2" d="M238.81,-17.99C249.68,-16.18 261.2,-14.53 272,-13.5 325.51,-8.41 386.73,-7.74 430.65,-8.15"/>
<text text-anchor="middle" x="341" y="-16.5" font-family="Helvetica,sans-Serif" font-size="10.00">itk::ChangeLabelImageFilter</text>
</g>
<!-- Node2 -->
<g id="node4" class="node">
<title>Node2</title>
<g id="a_node4"><a xlink:href="group__Group-Filtering.html" target="_top" xlink:title="This group of modules are filters that modify data in the ITK pipeline framework. These filters take ...">
<polygon fill="white" stroke="black" points="89,-37 0,-37 0,-18 89,-18 89,-37"/>
<text text-anchor="middle" x="44.5" y="-25" font-family="Helvetica,sans-Serif" font-size="10.00">Group Filtering</text>
</a>
</g>
</g>
<!-- Node2&#45;&gt;Node1 -->
<g id="edge1" class="edge">
<title>Node2&#45;&gt;Node1</title>
<path fill="none" stroke="black" d="M99.59,-27.5C108.18,-27.5 117.12,-27.5 125.89,-27.5"/>
<polygon fill="black" stroke="black" points="99.33,-24 89.33,-27.5 99.33,-31 99.33,-24"/>
</g>
</g>
</svg>
