<?xml version="1.0" encoding="UTF-8" standalone="no"?>
<!DOCTYPE svg PUBLIC "-//W3C//DTD SVG 1.1//EN"
 "http://www.w3.org/Graphics/SVG/1.1/DTD/svg11.dtd">
<!-- Generated by graphviz version 2.43.0 (0)
 -->
<!-- Title: Image Filters Pages: 1 -->
<svg width="357pt" height="161pt"
 viewBox="0.00 0.00 357.00 161.00" xmlns="http://www.w3.org/2000/svg" xmlns:xlink="http://www.w3.org/1999/xlink">
<g id="graph0" class="graph" transform="scale(1 1) rotate(0) translate(4 157)">
<title>Image Filters</title>
<polygon fill="white" stroke="transparent" points="-4,4 -4,-157 353,-157 353,4 -4,4"/>
<!-- Node2 -->
<g id="node1" class="node">
<title>Node2</title>
<g id="a_node1"><a xlink:href="group__Filters.html" target="_top" xlink:title=" ">
<polygon fill="white" stroke="black" points="47,-85.5 0,-85.5 0,-66.5 47,-66.5 47,-85.5"/>
<text text-anchor="middle" x="23.5" y="-73.5" font-family="Helvetica,sans-Serif" font-size="10.00">Filters</text>
</a>
</g>
</g>
<!-- Node1 -->
<g id="node5" class="node">
<title>Node1</title>
<g id="a_node5"><a xlink:title=" ">
<polygon fill="#bfbfbf" stroke="black" points="163,-85.5 83,-85.5 83,-66.5 163,-66.5 163,-85.5"/>
<text text-anchor="middle" x="123" y="-73.5" font-family="Helvetica,sans-Serif" font-size="10.00">Image Filters</text>
</a>
</g>
</g>
<!-- Node2&#45;&gt;Node1 -->
<g id="edge1" class="edge">
<title>Node2&#45;&gt;Node1</title>
<path fill="none" stroke="black" d="M57.34,-76C65.48,-76 74.28,-76 82.69,-76"/>
<polygon fill="black" stroke="black" points="57.11,-72.5 47.11,-76 57.11,-79.5 57.11,-72.5"/>
</g>
<!-- Node6 -->
<g id="node2" class="node">
<title>Node6</title>
<g id="a_node2"><a xlink:href="group__ImageSegmentation.html" target="_top" xlink:title=" ">
<polygon fill="white" stroke="black" points="333.5,-153 214.5,-153 214.5,-123 333.5,-123 333.5,-153"/>
<text text-anchor="start" x="222.5" y="-141" font-family="Helvetica,sans-Serif" font-size="10.00">Image Segmentation</text>
<text text-anchor="middle" x="274" y="-130" font-family="Helvetica,sans-Serif" font-size="10.00"> Filters</text>
</a>
</g>
</g>
<!-- Node4 -->
<g id="node3" class="node">
<title>Node4</title>
<g id="a_node3"><a xlink:href="group__ImageEnhancement.html" target="_top" xlink:title=" ">
<polygon fill="white" stroke="black" points="349,-104.5 199,-104.5 199,-85.5 349,-85.5 349,-104.5"/>
<text text-anchor="middle" x="274" y="-92.5" font-family="Helvetica,sans-Serif" font-size="10.00">Image Enhancement Filters</text>
</a>
</g>
</g>
<!-- Node3 -->
<g id="node4" class="node">
<title>Node3</title>
<g id="a_node4"><a xlink:href="group__IntensityImageFilters.html" target="_top" xlink:title=" ">
<polygon fill="white" stroke="black" points="337,-67.5 211,-67.5 211,-48.5 337,-48.5 337,-67.5"/>
<text text-anchor="middle" x="274" y="-55.5" font-family="Helvetica,sans-Serif" font-size="10.00">Intensity Image Filters</text>
</a>
</g>
</g>
<!-- Node1&#45;&gt;Node6 -->
<g id="edge5" class="edge">
<title>Node1&#45;&gt;Node6</title>
<path fill="none" stroke="black" d="M150.08,-90.48C164.29,-98.04 182.34,-107.12 199,-114 206.62,-117.14 214.8,-120.15 222.86,-122.91"/>
<polygon fill="black" stroke="black" points="151.38,-87.2 140.92,-85.53 148.06,-93.36 151.38,-87.2"/>
</g>
<!-- Node1&#45;&gt;Node4 -->
<g id="edge3" class="edge">
<title>Node1&#45;&gt;Node4</title>
<path fill="none" stroke="black" d="M173.3,-82.29C181.54,-83.34 190.24,-84.45 198.94,-85.56"/>
<polygon fill="black" stroke="black" points="173.51,-78.79 163.15,-80.99 172.62,-85.73 173.51,-78.79"/>
</g>
<!-- Node1&#45;&gt;Node3 -->
<g id="edge2" class="edge">
<title>Node1&#45;&gt;Node3</title>
<path fill="none" stroke="black" d="M173.38,-70.03C185.35,-68.59 198.3,-67.02 210.77,-65.52"/>
<polygon fill="black" stroke="black" points="172.66,-66.6 163.15,-71.27 173.5,-73.55 172.66,-66.6"/>
</g>
<!-- Node5 -->
<g id="node6" class="node">
<title>Node5</title>
<g id="a_node6"><a xlink:href="group__ImageFeatureExtraction.html" target="_top" xlink:title=" ">
<polygon fill="white" stroke="black" points="344,-30 204,-30 204,0 344,0 344,-30"/>
<text text-anchor="start" x="212" y="-18" font-family="Helvetica,sans-Serif" font-size="10.00">Image Feature Extraction</text>
<text text-anchor="middle" x="274" y="-7" font-family="Helvetica,sans-Serif" font-size="10.00"> Filters</text>
</a>
</g>
</g>
<!-- Node1&#45;&gt;Node5 -->
<g id="edge4" class="edge">
<title>Node1&#45;&gt;Node5</title>
<path fill="none" stroke="black" d="M151.33,-61.89C165.39,-54.89 182.91,-46.55 199,-40 207.54,-36.52 216.76,-33.13 225.71,-30.02"/>
<polygon fill="black" stroke="black" points="149.57,-58.86 142.21,-66.49 152.72,-65.11 149.57,-58.86"/>
</g>
</g>
</svg>
