<?xml version="1.0" encoding="UTF-8" standalone="no"?>
<!DOCTYPE svg PUBLIC "-//W3C//DTD SVG 1.1//EN"
 "http://www.w3.org/Graphics/SVG/1.1/DTD/svg11.dtd">
<!-- Generated by graphviz version 2.43.0 (0)
 -->
<!-- Title: Watershed&#45;based Segmentation Filters Pages: 1 -->
<svg width="653pt" height="224pt"
 viewBox="0.00 0.00 653.00 223.58" xmlns="http://www.w3.org/2000/svg" xmlns:xlink="http://www.w3.org/1999/xlink">
<g id="graph0" class="graph" transform="scale(1 1) rotate(0) translate(4 219.58)">
<title>Watershed&#45;based Segmentation Filters</title>
<polygon fill="white" stroke="transparent" points="-4,4 -4,-219.58 649,-219.58 649,4 -4,4"/>
<!-- Node1 -->
<g id="node1" class="node">
<title>Node1</title>
<g id="a_node1"><a xlink:title=" ">
<polygon fill="#bfbfbf" stroke="black" points="336,-124.58 163,-124.58 163,-94.58 336,-94.58 336,-124.58"/>
<text text-anchor="start" x="171" y="-112.58" font-family="Helvetica,sans-Serif" font-size="10.00">Watershed&#45;based Segmentation</text>
<text text-anchor="middle" x="249.5" y="-101.58" font-family="Helvetica,sans-Serif" font-size="10.00"> Filters</text>
</a>
</g>
</g>
<!-- Node4 -->
<g id="node3" class="node">
<title>Node4</title>
<g id="a_node3"><a xlink:href="group__ITKCommon.html" target="_top" xlink:title="This module contains the central classes of the ITK toolkit. They include, basic data structures (suc...">
<polygon fill="white" stroke="black" points="638.5,-213.08 523.5,-213.08 523.5,-194.08 638.5,-194.08 638.5,-213.08"/>
<text text-anchor="middle" x="581" y="-201.08" font-family="Helvetica,sans-Serif" font-size="10.00">Module ITKCommon</text>
</a>
</g>
</g>
<!-- Node1&#45;&gt;Node4 -->
<g id="edge3" class="edge">
<title>Node1&#45;&gt;Node4</title>
<path fill="none" stroke="orange" stroke-dasharray="5,2" d="M266.55,-124.76C285.7,-141.85 319.49,-168.89 354,-181.58 409.13,-201.86 476.64,-205.99 523.45,-205.89"/>
<text text-anchor="middle" x="426.5" y="-207.58" font-family="Helvetica,sans-Serif" font-size="10.00">itk::EquivalencyTable</text>
</g>
<!-- Node3 -->
<g id="node4" class="node">
<title>Node3</title>
<g id="a_node4"><a xlink:href="group__ITKWatersheds.html" target="_top" xlink:title="This module contains classes related to watershed segmentation. The watershed algorithm proceeds in s...">
<polygon fill="white" stroke="black" points="645,-25.08 517,-25.08 517,-6.08 645,-6.08 645,-25.08"/>
<text text-anchor="middle" x="581" y="-13.08" font-family="Helvetica,sans-Serif" font-size="10.00">Module ITKWatersheds</text>
</a>
</g>
</g>
<!-- Node1&#45;&gt;Node3 -->
<g id="edge2" class="edge">
<title>Node1&#45;&gt;Node3</title>
<path fill="none" stroke="orange" stroke-dasharray="5,2" d="M261.44,-94.37C278.36,-72.3 313.21,-32.32 354,-16.58 411.66,5.66 483.91,0.91 530.98,-6.03"/>
<text text-anchor="middle" x="426.5" y="-173.58" font-family="Helvetica,sans-Serif" font-size="10.00">itk::watershed::Boundary</text>
<text text-anchor="start" x="354" y="-162.58" font-family="Helvetica,sans-Serif" font-size="10.00">itk::watershed::Boundary</text>
<text text-anchor="middle" x="426.5" y="-151.58" font-family="Helvetica,sans-Serif" font-size="10.00">Resolver</text>
<text text-anchor="start" x="354" y="-140.58" font-family="Helvetica,sans-Serif" font-size="10.00">itk::watershed::Equivalence</text>
<text text-anchor="middle" x="426.5" y="-129.58" font-family="Helvetica,sans-Serif" font-size="10.00">Relabeler</text>
<text text-anchor="start" x="354" y="-118.58" font-family="Helvetica,sans-Serif" font-size="10.00">itk::IsolatedWatershedImage</text>
<text text-anchor="middle" x="426.5" y="-107.58" font-family="Helvetica,sans-Serif" font-size="10.00">Filter</text>
<text text-anchor="middle" x="426.5" y="-96.58" font-family="Helvetica,sans-Serif" font-size="10.00">itk::OneWayEquivalencyTable</text>
<text text-anchor="middle" x="426.5" y="-85.58" font-family="Helvetica,sans-Serif" font-size="10.00">itk::watershed::Relabeler</text>
<text text-anchor="middle" x="426.5" y="-74.58" font-family="Helvetica,sans-Serif" font-size="10.00">itk::watershed::Segmenter</text>
<text text-anchor="middle" x="426.5" y="-63.58" font-family="Helvetica,sans-Serif" font-size="10.00">itk::watershed::SegmentTable</text>
<text text-anchor="middle" x="426.5" y="-52.58" font-family="Helvetica,sans-Serif" font-size="10.00">itk::watershed::SegmentTree</text>
<text text-anchor="start" x="354" y="-41.58" font-family="Helvetica,sans-Serif" font-size="10.00">itk::watershed::SegmentTree</text>
<text text-anchor="middle" x="426.5" y="-30.58" font-family="Helvetica,sans-Serif" font-size="10.00">Generator</text>
<text text-anchor="middle" x="426.5" y="-19.58" font-family="Helvetica,sans-Serif" font-size="10.00">...</text>
</g>
<!-- Node2 -->
<g id="node2" class="node">
<title>Node2</title>
<g id="a_node2"><a xlink:href="group__IntensityImageSegmentation.html" target="_top" xlink:title=" ">
<polygon fill="white" stroke="black" points="126,-124.58 0,-124.58 0,-94.58 126,-94.58 126,-124.58"/>
<text text-anchor="start" x="8" y="-112.58" font-family="Helvetica,sans-Serif" font-size="10.00">Intensity&#45;Based Image</text>
<text text-anchor="middle" x="63" y="-101.58" font-family="Helvetica,sans-Serif" font-size="10.00"> Segmentation Filters</text>
</a>
</g>
</g>
<!-- Node2&#45;&gt;Node1 -->
<g id="edge1" class="edge">
<title>Node2&#45;&gt;Node1</title>
<path fill="none" stroke="black" d="M136.34,-109.58C145.08,-109.58 154.07,-109.58 162.98,-109.58"/>
<polygon fill="black" stroke="black" points="136.21,-106.08 126.21,-109.58 136.21,-113.08 136.21,-106.08"/>
</g>
</g>
</svg>
