<?xml version="1.0" encoding="UTF-8" standalone="no"?>
<!DOCTYPE svg PUBLIC "-//W3C//DTD SVG 1.1//EN"
 "http://www.w3.org/Graphics/SVG/1.1/DTD/svg11.dtd">
<!-- Generated by graphviz version 2.43.0 (0)
 -->
<!-- Title: Registration Filters Pages: 1 -->
<svg width="582pt" height="268pt"
 viewBox="0.00 0.00 582.00 267.67" xmlns="http://www.w3.org/2000/svg" xmlns:xlink="http://www.w3.org/1999/xlink">
<g id="graph0" class="graph" transform="scale(1 1) rotate(0) translate(4 263.67)">
<title>Registration Filters</title>
<polygon fill="white" stroke="transparent" points="-4,4 -4,-263.67 578,-263.67 578,4 -4,4"/>
<!-- Node2 -->
<g id="node1" class="node">
<title>Node2</title>
<g id="a_node1"><a xlink:href="group__Filters.html" target="_top" xlink:title=" ">
<polygon fill="white" stroke="black" points="47,-182.17 0,-182.17 0,-163.17 47,-163.17 47,-182.17"/>
<text text-anchor="middle" x="23.5" y="-170.17" font-family="Helvetica,sans-Serif" font-size="10.00">Filters</text>
</a>
</g>
</g>
<!-- Node1 -->
<g id="node3" class="node">
<title>Node1</title>
<g id="a_node3"><a xlink:title=" ">
<polygon fill="#bfbfbf" stroke="black" points="193,-182.17 84,-182.17 84,-163.17 193,-163.17 193,-182.17"/>
<text text-anchor="middle" x="138.5" y="-170.17" font-family="Helvetica,sans-Serif" font-size="10.00">Registration Filters</text>
</a>
</g>
</g>
<!-- Node2&#45;&gt;Node1 -->
<g id="edge1" class="edge">
<title>Node2&#45;&gt;Node1</title>
<path fill="none" stroke="black" d="M57.1,-172.67C65.4,-172.67 74.56,-172.67 83.62,-172.67"/>
<polygon fill="black" stroke="black" points="57.1,-169.17 47.1,-172.67 57.1,-176.17 57.1,-169.17"/>
</g>
<!-- Node4 -->
<g id="node2" class="node">
<title>Node4</title>
<g id="a_node2"><a xlink:href="group__ImageRegistration.html" target="_top" xlink:title=" ">
<polygon fill="white" stroke="black" points="541.5,-259.67 431.5,-259.67 431.5,-229.67 541.5,-229.67 541.5,-259.67"/>
<text text-anchor="start" x="439.5" y="-247.67" font-family="Helvetica,sans-Serif" font-size="10.00">Image Registration</text>
<text text-anchor="middle" x="486.5" y="-236.67" font-family="Helvetica,sans-Serif" font-size="10.00"> Methods</text>
</a>
</g>
</g>
<!-- Node1&#45;&gt;Node4 -->
<g id="edge3" class="edge">
<title>Node1&#45;&gt;Node4</title>
<path fill="none" stroke="black" d="M174.7,-185.66C186.16,-189.57 199.02,-193.63 211,-196.67 286.5,-215.82 375.61,-229.87 431.34,-237.66"/>
<polygon fill="black" stroke="black" points="175.63,-182.27 165.03,-182.28 173.32,-188.88 175.63,-182.27"/>
</g>
<!-- Node3 -->
<g id="node4" class="node">
<title>Node3</title>
<g id="a_node4"><a xlink:href="group__RegistrationComponents.html" target="_top" xlink:title="Registration methods are implemented by combining basic components. This framework allows great flexi...">
<polygon fill="white" stroke="black" points="563,-211.67 410,-211.67 410,-181.67 563,-181.67 563,-211.67"/>
<text text-anchor="start" x="418" y="-199.67" font-family="Helvetica,sans-Serif" font-size="10.00">Components of Registration</text>
<text text-anchor="middle" x="486.5" y="-188.67" font-family="Helvetica,sans-Serif" font-size="10.00"> Methods</text>
</a>
</g>
</g>
<!-- Node1&#45;&gt;Node3 -->
<g id="edge2" class="edge">
<title>Node1&#45;&gt;Node3</title>
<path fill="none" stroke="black" d="M203.38,-177.1C261.72,-181.15 348.04,-187.13 409.82,-191.42"/>
<polygon fill="black" stroke="black" points="203.4,-173.59 193.18,-176.39 202.92,-180.57 203.4,-173.59"/>
</g>
<!-- Node5 -->
<g id="node5" class="node">
<title>Node5</title>
<g id="a_node5"><a xlink:href="group__ModelImageRegistration.html" target="_top" xlink:title=" ">
<polygon fill="white" stroke="black" points="561,-163.67 412,-163.67 412,-133.67 561,-133.67 561,-163.67"/>
<text text-anchor="start" x="420" y="-151.67" font-family="Helvetica,sans-Serif" font-size="10.00">Model &#45; Image Registration</text>
<text text-anchor="middle" x="486.5" y="-140.67" font-family="Helvetica,sans-Serif" font-size="10.00"> Methods</text>
</a>
</g>
</g>
<!-- Node1&#45;&gt;Node5 -->
<g id="edge4" class="edge">
<title>Node1&#45;&gt;Node5</title>
<path fill="none" stroke="black" d="M203.48,-168.23C262.43,-164.14 349.88,-158.07 411.74,-153.78"/>
<polygon fill="black" stroke="black" points="202.92,-164.76 193.18,-168.94 203.4,-171.74 202.92,-164.76"/>
</g>
<!-- Node6 -->
<g id="node6" class="node">
<title>Node6</title>
<g id="a_node6"><a xlink:href="group__ITKRegistrationCommon.html" target="_top" xlink:title="This module contains classes to perform registration within the default ITK registration framework....">
<polygon fill="white" stroke="black" points="574,-34.17 399,-34.17 399,-15.17 574,-15.17 574,-34.17"/>
<text text-anchor="middle" x="486.5" y="-22.17" font-family="Helvetica,sans-Serif" font-size="10.00">Module ITKRegistrationCommon</text>
</a>
</g>
</g>
<!-- Node1&#45;&gt;Node6 -->
<g id="edge5" class="edge">
<title>Node1&#45;&gt;Node6</title>
<path fill="none" stroke="orange" stroke-dasharray="5,2" d="M140.98,-162.8C145.59,-135.9 162.45,-61.31 211,-30.67 285.97,16.66 396.91,-1.62 451.97,-15.15"/>
<text text-anchor="middle" x="296" y="-143.67" font-family="Helvetica,sans-Serif" font-size="10.00">itk::ImageRegistrationMethod</text>
<text text-anchor="start" x="211" y="-132.67" font-family="Helvetica,sans-Serif" font-size="10.00">itk::ImageToSpatialObject</text>
<text text-anchor="middle" x="296" y="-121.67" font-family="Helvetica,sans-Serif" font-size="10.00">RegistrationMethod</text>
<text text-anchor="start" x="211" y="-110.67" font-family="Helvetica,sans-Serif" font-size="10.00">itk::MultiResolutionImage</text>
<text text-anchor="middle" x="296" y="-99.67" font-family="Helvetica,sans-Serif" font-size="10.00">RegistrationMethod</text>
<text text-anchor="start" x="211" y="-88.67" font-family="Helvetica,sans-Serif" font-size="10.00">itk::PointSetToImageRegistration</text>
<text text-anchor="middle" x="296" y="-77.67" font-family="Helvetica,sans-Serif" font-size="10.00">Method</text>
<text text-anchor="start" x="211" y="-66.67" font-family="Helvetica,sans-Serif" font-size="10.00">itk::PointSetToPointSetRegistration</text>
<text text-anchor="middle" x="296" y="-55.67" font-family="Helvetica,sans-Serif" font-size="10.00">Method</text>
<text text-anchor="start" x="211" y="-44.67" font-family="Helvetica,sans-Serif" font-size="10.00">itk::PointSetToSpatialObject</text>
<text text-anchor="middle" x="296" y="-33.67" font-family="Helvetica,sans-Serif" font-size="10.00">DemonsRegistration</text>
</g>
</g>
</svg>
