<?xml version="1.0" encoding="UTF-8" standalone="no"?>
<!DOCTYPE svg PUBLIC "-//W3C//DTD SVG 1.1//EN"
 "http://www.w3.org/Graphics/SVG/1.1/DTD/svg11.dtd">
<!-- Generated by graphviz version 2.43.0 (0)
 -->
<!-- Title: Module ITKVTK Pages: 1 -->
<svg width="508pt" height="51pt"
 viewBox="0.00 0.00 508.00 50.50" xmlns="http://www.w3.org/2000/svg" xmlns:xlink="http://www.w3.org/1999/xlink">
<g id="graph0" class="graph" transform="scale(1 1) rotate(0) translate(4 46.5)">
<title>Module ITKVTK</title>
<polygon fill="white" stroke="transparent" points="-4,4 -4,-46.5 504,-46.5 504,4 -4,4"/>
<!-- Node2 -->
<g id="node1" class="node">
<title>Node2</title>
<g id="a_node1"><a xlink:href="group__Group-Bridge.html" target="_top" xlink:title="This group of modules are intended to bridge ITK to other toolkits as libraries such as visualization...">
<polygon fill="white" stroke="black" points="80,-19 0,-19 0,0 80,0 80,-19"/>
<text text-anchor="middle" x="40" y="-7" font-family="Helvetica,sans-Serif" font-size="10.00">Group Bridge</text>
</a>
</g>
</g>
<!-- Node1 -->
<g id="node3" class="node">
<title>Node1</title>
<g id="a_node3"><a xlink:title="This module contains classes intended to interconnect ITK and VTK (The Visualization Toolkit)....">
<polygon fill="#bfbfbf" stroke="black" points="208,-19 117,-19 117,0 208,0 208,-19"/>
<text text-anchor="middle" x="162.5" y="-7" font-family="Helvetica,sans-Serif" font-size="10.00">Module ITKVTK</text>
</a>
</g>
</g>
<!-- Node2&#45;&gt;Node1 -->
<g id="edge1" class="edge">
<title>Node2&#45;&gt;Node1</title>
<path fill="none" stroke="black" d="M90.22,-9.5C98.99,-9.5 108.08,-9.5 116.72,-9.5"/>
<polygon fill="black" stroke="black" points="90.12,-6 80.12,-9.5 90.12,-13 90.12,-6"/>
</g>
<!-- Node3 -->
<g id="node2" class="node">
<title>Node3</title>
<g id="a_node2"><a xlink:href="group__IOFilters.html" target="_top" xlink:title=" ">
<polygon fill="white" stroke="black" points="500,-19 369,-19 369,0 500,0 500,-19"/>
<text text-anchor="middle" x="434.5" y="-7" font-family="Helvetica,sans-Serif" font-size="10.00">Input and Output Filters</text>
</a>
</g>
</g>
<!-- Node1&#45;&gt;Node3 -->
<g id="edge2" class="edge">
<title>Node1&#45;&gt;Node3</title>
<path fill="none" stroke="orange" stroke-dasharray="5,2" d="M208.09,-9.5C251.9,-9.5 319.22,-9.5 368.89,-9.5"/>
<text text-anchor="middle" x="288.5" y="-34.5" font-family="Helvetica,sans-Serif" font-size="10.00">itk::VTKImageExport</text>
<text text-anchor="middle" x="288.5" y="-23.5" font-family="Helvetica,sans-Serif" font-size="10.00">itk::VTKImageExportBase</text>
<text text-anchor="middle" x="288.5" y="-12.5" font-family="Helvetica,sans-Serif" font-size="10.00">itk::VTKImageImport</text>
</g>
</g>
</svg>
