<?xml version="1.0" encoding="UTF-8" standalone="no"?>
<!DOCTYPE svg PUBLIC "-//W3C//DTD SVG 1.1//EN"
 "http://www.w3.org/Graphics/SVG/1.1/DTD/svg11.dtd">
<!-- Generated by graphviz version 2.43.0 (0)
 -->
<!-- Title: Module ITKImageFeature Pages: 1 -->
<svg width="608pt" height="651pt"
 viewBox="0.00 0.00 608.00 651.01" xmlns="http://www.w3.org/2000/svg" xmlns:xlink="http://www.w3.org/1999/xlink">
<g id="graph0" class="graph" transform="scale(1 1) rotate(0) translate(4 647.01)">
<title>Module ITKImageFeature</title>
<polygon fill="white" stroke="transparent" points="-4,4 -4,-647.01 604,-647.01 604,4 -4,4"/>
<!-- Node5 -->
<g id="node1" class="node">
<title>Node5</title>
<g id="a_node1"><a xlink:href="group__ImageSegmentation.html" target="_top" xlink:title=" ">
<polygon fill="white" stroke="black" points="589.5,-623.01 470.5,-623.01 470.5,-593.01 589.5,-593.01 589.5,-623.01"/>
<text text-anchor="start" x="478.5" y="-611.01" font-family="Helvetica,sans-Serif" font-size="10.00">Image Segmentation</text>
<text text-anchor="middle" x="530" y="-600.01" font-family="Helvetica,sans-Serif" font-size="10.00"> Filters</text>
</a>
</g>
</g>
<!-- Node1 -->
<g id="node2" class="node">
<title>Node1</title>
<g id="a_node2"><a xlink:title="This module contains classes that compute image features. In particular you will find here: Canny edg...">
<polygon fill="#bfbfbf" stroke="black" points="265,-404.51 126,-404.51 126,-385.51 265,-385.51 265,-404.51"/>
<text text-anchor="middle" x="195.5" y="-392.51" font-family="Helvetica,sans-Serif" font-size="10.00">Module ITKImageFeature</text>
</a>
</g>
</g>
<!-- Node1&#45;&gt;Node5 -->
<g id="edge4" class="edge">
<title>Node1&#45;&gt;Node5</title>
<path fill="none" stroke="orange" stroke-dasharray="5,2" d="M197.53,-404.65C201.55,-436.78 219.18,-540.7 283,-586.01 337.46,-624.67 416.71,-624.43 470.42,-618.32"/>
<text text-anchor="start" x="289.5" y="-635.01" font-family="Helvetica,sans-Serif" font-size="10.00">itk::GradientVectorFlowImage</text>
<text text-anchor="middle" x="362.5" y="-624.01" font-family="Helvetica,sans-Serif" font-size="10.00">Filter</text>
</g>
<!-- Node6 -->
<g id="node3" class="node">
<title>Node6</title>
<g id="a_node3"><a xlink:href="group__IntensityImageFilters.html" target="_top" xlink:title=" ">
<polygon fill="white" stroke="black" points="593,-517.51 467,-517.51 467,-498.51 593,-498.51 593,-517.51"/>
<text text-anchor="middle" x="530" y="-505.51" font-family="Helvetica,sans-Serif" font-size="10.00">Intensity Image Filters</text>
</a>
</g>
</g>
<!-- Node1&#45;&gt;Node6 -->
<g id="edge5" class="edge">
<title>Node1&#45;&gt;Node6</title>
<path fill="none" stroke="orange" stroke-dasharray="5,2" d="M202.19,-404.6C214.26,-423.96 244.53,-467.43 283,-486.01 314.32,-501.14 404.76,-505.93 466.79,-507.41"/>
<text text-anchor="start" x="293" y="-575.01" font-family="Helvetica,sans-Serif" font-size="10.00">itk::Hessian3DToVesselness</text>
<text text-anchor="middle" x="362.5" y="-564.01" font-family="Helvetica,sans-Serif" font-size="10.00">MeasureImageFilter</text>
<text text-anchor="start" x="293" y="-553.01" font-family="Helvetica,sans-Serif" font-size="10.00">itk::MultiScaleHessianBased</text>
<text text-anchor="middle" x="362.5" y="-542.01" font-family="Helvetica,sans-Serif" font-size="10.00">MeasureImageFilter</text>
<text text-anchor="middle" x="362.5" y="-531.01" font-family="Helvetica,sans-Serif" font-size="10.00">SigmaStepMethod</text>
<text text-anchor="start" x="293" y="-520.01" font-family="Helvetica,sans-Serif" font-size="10.00">itk::SimpleContourExtractor</text>
<text text-anchor="middle" x="362.5" y="-509.01" font-family="Helvetica,sans-Serif" font-size="10.00">ImageFilter</text>
</g>
<!-- Node10 -->
<g id="node4" class="node">
<title>Node10</title>
<g id="a_node4"><a xlink:href="group__MultiThreaded.html" target="_top" xlink:title=" ">
<polygon fill="white" stroke="black" points="590,-472.51 470,-472.51 470,-453.51 590,-453.51 590,-472.51"/>
<text text-anchor="middle" x="530" y="-460.51" font-family="Helvetica,sans-Serif" font-size="10.00">MultiThreaded Filters</text>
</a>
</g>
</g>
<!-- Node1&#45;&gt;Node10 -->
<g id="edge9" class="edge">
<title>Node1&#45;&gt;Node10</title>
<path fill="none" stroke="orange" stroke-dasharray="5,2" d="M211.44,-404.54C228.17,-414.69 256.42,-430.33 283,-438.01 345.17,-455.98 419.42,-461.45 469.97,-462.92"/>
<text text-anchor="start" x="283" y="-475.01" font-family="Helvetica,sans-Serif" font-size="10.00">itk::LaplacianRecursiveGaussian</text>
<text text-anchor="middle" x="362.5" y="-464.01" font-family="Helvetica,sans-Serif" font-size="10.00">ImageFilter</text>
</g>
<!-- Node9 -->
<g id="node5" class="node">
<title>Node9</title>
<g id="a_node5"><a xlink:href="group__SingleThreaded.html" target="_top" xlink:title=" ">
<polygon fill="white" stroke="black" points="592.5,-427.51 467.5,-427.51 467.5,-408.51 592.5,-408.51 592.5,-427.51"/>
<text text-anchor="middle" x="530" y="-415.51" font-family="Helvetica,sans-Serif" font-size="10.00">SingleThreaded Filters</text>
</a>
</g>
</g>
<!-- Node1&#45;&gt;Node9 -->
<g id="edge8" class="edge">
<title>Node1&#45;&gt;Node9</title>
<path fill="none" stroke="orange" stroke-dasharray="5,2" d="M265.39,-399.78C324.93,-403.89 410.19,-409.79 467.47,-413.75"/>
<text text-anchor="start" x="287" y="-426.01" font-family="Helvetica,sans-Serif" font-size="10.00">itk::HessianRecursiveGaussian</text>
<text text-anchor="middle" x="362.5" y="-415.01" font-family="Helvetica,sans-Serif" font-size="10.00">ImageFilter</text>
</g>
<!-- Node4 -->
<g id="node6" class="node">
<title>Node4</title>
<g id="a_node6"><a xlink:href="group__ImageFilters.html" target="_top" xlink:title=" ">
<polygon fill="white" stroke="black" points="570,-382.51 490,-382.51 490,-363.51 570,-363.51 570,-382.51"/>
<text text-anchor="middle" x="530" y="-370.51" font-family="Helvetica,sans-Serif" font-size="10.00">Image Filters</text>
</a>
</g>
</g>
<!-- Node1&#45;&gt;Node4 -->
<g id="edge3" class="edge">
<title>Node1&#45;&gt;Node4</title>
<path fill="none" stroke="orange" stroke-dasharray="5,2" d="M228.21,-385.42C244.43,-381.01 264.59,-376.25 283,-374.01 355.5,-365.19 440.9,-367.7 489.63,-370.35"/>
<text text-anchor="start" x="289.5" y="-388.01" font-family="Helvetica,sans-Serif" font-size="10.00">itk::GradientVectorFlowImage</text>
<text text-anchor="middle" x="362.5" y="-377.01" font-family="Helvetica,sans-Serif" font-size="10.00">Filter</text>
</g>
<!-- Node8 -->
<g id="node7" class="node">
<title>Node8</title>
<g id="a_node7"><a xlink:href="group__GradientFilters.html" target="_top" xlink:title=" ">
<polygon fill="white" stroke="black" points="592.5,-315.51 467.5,-315.51 467.5,-296.51 592.5,-296.51 592.5,-315.51"/>
<text text-anchor="middle" x="530" y="-303.51" font-family="Helvetica,sans-Serif" font-size="10.00">Image Gradient Filters</text>
</a>
</g>
</g>
<!-- Node1&#45;&gt;Node8 -->
<g id="edge7" class="edge">
<title>Node1&#45;&gt;Node8</title>
<path fill="none" stroke="orange" stroke-dasharray="5,2" d="M203.81,-385.46C217.31,-368.65 248.01,-334.21 283,-320.01 342.26,-295.96 416.2,-295.22 467.47,-298.78"/>
<text text-anchor="start" x="283" y="-356.01" font-family="Helvetica,sans-Serif" font-size="10.00">itk::HessianRecursiveGaussian</text>
<text text-anchor="middle" x="362.5" y="-345.01" font-family="Helvetica,sans-Serif" font-size="10.00">ImageFilter</text>
<text text-anchor="start" x="283" y="-334.01" font-family="Helvetica,sans-Serif" font-size="10.00">itk::LaplacianRecursiveGaussian</text>
<text text-anchor="middle" x="362.5" y="-323.01" font-family="Helvetica,sans-Serif" font-size="10.00">ImageFilter</text>
</g>
<!-- Node7 -->
<g id="node8" class="node">
<title>Node7</title>
<g id="a_node8"><a xlink:href="group__TensorObjects.html" target="_top" xlink:title="Objects required for representing diffusion tensor images in ITK.">
<polygon fill="white" stroke="black" points="591,-248.51 469,-248.51 469,-229.51 591,-229.51 591,-248.51"/>
<text text-anchor="middle" x="530" y="-236.51" font-family="Helvetica,sans-Serif" font-size="10.00">Tensor Image Objects</text>
</a>
</g>
</g>
<!-- Node1&#45;&gt;Node7 -->
<g id="edge6" class="edge">
<title>Node1&#45;&gt;Node7</title>
<path fill="none" stroke="orange" stroke-dasharray="5,2" d="M198.86,-385.32C206.04,-358.2 230.42,-281.45 283,-250.01 345.75,-212.5 434.43,-220.19 486.4,-229.44"/>
<text text-anchor="start" x="293" y="-286.01" font-family="Helvetica,sans-Serif" font-size="10.00">itk::Hessian3DToVesselness</text>
<text text-anchor="middle" x="362.5" y="-275.01" font-family="Helvetica,sans-Serif" font-size="10.00">MeasureImageFilter</text>
<text text-anchor="start" x="293" y="-264.01" font-family="Helvetica,sans-Serif" font-size="10.00">itk::MultiScaleHessianBased</text>
<text text-anchor="middle" x="362.5" y="-253.01" font-family="Helvetica,sans-Serif" font-size="10.00">MeasureImageFilter</text>
</g>
<!-- Node3 -->
<g id="node9" class="node">
<title>Node3</title>
<g id="a_node9"><a xlink:href="group__ImageFeatureExtraction.html" target="_top" xlink:title=" ">
<polygon fill="white" stroke="black" points="600,-44.01 460,-44.01 460,-14.01 600,-14.01 600,-44.01"/>
<text text-anchor="start" x="468" y="-32.01" font-family="Helvetica,sans-Serif" font-size="10.00">Image Feature Extraction</text>
<text text-anchor="middle" x="530" y="-21.01" font-family="Helvetica,sans-Serif" font-size="10.00"> Filters</text>
</a>
</g>
</g>
<!-- Node1&#45;&gt;Node3 -->
<g id="edge2" class="edge">
<title>Node1&#45;&gt;Node3</title>
<path fill="none" stroke="orange" stroke-dasharray="5,2" d="M197.24,-385.26C201.51,-332.05 224.84,-77.36 283,-31.01 339.45,13.97 428.58,0.43 482.64,-13.96"/>
<text text-anchor="middle" x="362.5" y="-210.01" font-family="Helvetica,sans-Serif" font-size="10.00">itk::BilateralImageFilter</text>
<text text-anchor="middle" x="362.5" y="-199.01" font-family="Helvetica,sans-Serif" font-size="10.00">itk::DerivativeImageFilter</text>
<text text-anchor="start" x="286.5" y="-188.01" font-family="Helvetica,sans-Serif" font-size="10.00">itk::HoughTransform2DCircles</text>
<text text-anchor="middle" x="362.5" y="-177.01" font-family="Helvetica,sans-Serif" font-size="10.00">ImageFilter</text>
<text text-anchor="start" x="286.5" y="-166.01" font-family="Helvetica,sans-Serif" font-size="10.00">itk::HoughTransform2DLines</text>
<text text-anchor="middle" x="362.5" y="-155.01" font-family="Helvetica,sans-Serif" font-size="10.00">ImageFilter</text>
<text text-anchor="middle" x="362.5" y="-144.01" font-family="Helvetica,sans-Serif" font-size="10.00">itk::LaplacianImageFilter</text>
<text text-anchor="start" x="286.5" y="-133.01" font-family="Helvetica,sans-Serif" font-size="10.00">itk::LaplacianSharpening</text>
<text text-anchor="middle" x="362.5" y="-122.01" font-family="Helvetica,sans-Serif" font-size="10.00">ImageFilter</text>
<text text-anchor="start" x="286.5" y="-111.01" font-family="Helvetica,sans-Serif" font-size="10.00">itk::MaskFeaturePointSelection</text>
<text text-anchor="middle" x="362.5" y="-100.01" font-family="Helvetica,sans-Serif" font-size="10.00">Filter</text>
<text text-anchor="start" x="286.5" y="-89.01" font-family="Helvetica,sans-Serif" font-size="10.00">itk::SobelEdgeDetectionImage</text>
<text text-anchor="middle" x="362.5" y="-78.01" font-family="Helvetica,sans-Serif" font-size="10.00">Filter</text>
<text text-anchor="middle" x="362.5" y="-67.01" font-family="Helvetica,sans-Serif" font-size="10.00">itk::UnsharpMaskImageFilter</text>
<text text-anchor="start" x="286.5" y="-56.01" font-family="Helvetica,sans-Serif" font-size="10.00">itk::ZeroCrossingBasedEdge</text>
<text text-anchor="middle" x="362.5" y="-45.01" font-family="Helvetica,sans-Serif" font-size="10.00">DetectionImageFilter</text>
<text text-anchor="middle" x="362.5" y="-34.01" font-family="Helvetica,sans-Serif" font-size="10.00">...</text>
</g>
<!-- Node2 -->
<g id="node10" class="node">
<title>Node2</title>
<g id="a_node10"><a xlink:href="group__Group-Filtering.html" target="_top" xlink:title="This group of modules are filters that modify data in the ITK pipeline framework. These filters take ...">
<polygon fill="white" stroke="black" points="89,-404.51 0,-404.51 0,-385.51 89,-385.51 89,-404.51"/>
<text text-anchor="middle" x="44.5" y="-392.51" font-family="Helvetica,sans-Serif" font-size="10.00">Group Filtering</text>
</a>
</g>
</g>
<!-- Node2&#45;&gt;Node1 -->
<g id="edge1" class="edge">
<title>Node2&#45;&gt;Node1</title>
<path fill="none" stroke="black" d="M99.56,-395.01C108.07,-395.01 116.97,-395.01 125.76,-395.01"/>
<polygon fill="black" stroke="black" points="99.4,-391.51 89.4,-395.01 99.4,-398.51 99.4,-391.51"/>
</g>
</g>
</svg>
