<?xml version="1.0" encoding="UTF-8" standalone="no"?>
<!DOCTYPE svg PUBLIC "-//W3C//DTD SVG 1.1//EN"
 "http://www.w3.org/Graphics/SVG/1.1/DTD/svg11.dtd">
<!-- Generated by graphviz version 2.43.0 (0)
 -->
<!-- Title: Functions Pages: 1 -->
<svg width="570pt" height="518pt"
 viewBox="0.00 0.00 570.00 518.28" xmlns="http://www.w3.org/2000/svg" xmlns:xlink="http://www.w3.org/1999/xlink">
<g id="graph0" class="graph" transform="scale(1 1) rotate(0) translate(4 514.28)">
<title>Functions</title>
<polygon fill="white" stroke="transparent" points="-4,4 -4,-514.28 566,-514.28 566,4 -4,4"/>
<!-- Node7 -->
<g id="node1" class="node">
<title>Node7</title>
<g id="a_node1"><a xlink:href="group__ImageInterpolators.html" target="_top" xlink:title=" ">
<polygon fill="white" stroke="black" points="544,-483.78 431,-483.78 431,-464.78 544,-464.78 544,-483.78"/>
<text text-anchor="middle" x="487.5" y="-471.78" font-family="Helvetica,sans-Serif" font-size="10.00">Image Interpolators</text>
</a>
</g>
</g>
<!-- Node2 -->
<g id="node2" class="node">
<title>Node2</title>
<g id="a_node2"><a xlink:href="group__DataProcessing.html" target="_top" xlink:title="The Insight Toolkit includes several ways to process the data using objects such as adaptors,...">
<polygon fill="white" stroke="black" points="135,-293.78 0,-293.78 0,-274.78 135,-274.78 135,-293.78"/>
<text text-anchor="middle" x="67.5" y="-281.78" font-family="Helvetica,sans-Serif" font-size="10.00">Data Processing Objects</text>
</a>
</g>
</g>
<!-- Node1 -->
<g id="node4" class="node">
<title>Node1</title>
<g id="a_node4"><a xlink:title=" ">
<polygon fill="#bfbfbf" stroke="black" points="235,-293.78 172,-293.78 172,-274.78 235,-274.78 235,-293.78"/>
<text text-anchor="middle" x="203.5" y="-281.78" font-family="Helvetica,sans-Serif" font-size="10.00">Functions</text>
</a>
</g>
</g>
<!-- Node2&#45;&gt;Node1 -->
<g id="edge1" class="edge">
<title>Node2&#45;&gt;Node1</title>
<path fill="none" stroke="black" d="M145.33,-284.28C154.7,-284.28 163.8,-284.28 171.89,-284.28"/>
<polygon fill="black" stroke="black" points="145.11,-280.78 135.11,-284.28 145.11,-287.78 145.11,-280.78"/>
</g>
<!-- Node8 -->
<g id="node3" class="node">
<title>Node8</title>
<g id="a_node3"><a xlink:href="group__Numerics.html" target="_top" xlink:title="Insight provides support for numerical operations at two levels. First, Insight uses an external libr...">
<polygon fill="white" stroke="black" points="519,-440.78 456,-440.78 456,-421.78 519,-421.78 519,-440.78"/>
<text text-anchor="middle" x="487.5" y="-428.78" font-family="Helvetica,sans-Serif" font-size="10.00">Numerics</text>
</a>
</g>
</g>
<!-- Node1&#45;&gt;Node7 -->
<g id="edge6" class="edge">
<title>Node1&#45;&gt;Node7</title>
<path fill="none" stroke="orange" stroke-dasharray="5,2" d="M203.93,-294.18C202.82,-323.52 204,-410.58 253,-451.28 304.86,-494.36 387.25,-491.35 439.03,-483.84"/>
<text text-anchor="start" x="265" y="-502.28" font-family="Helvetica,sans-Serif" font-size="10.00">itk::BSplineInterpolation</text>
<text text-anchor="middle" x="324" y="-491.28" font-family="Helvetica,sans-Serif" font-size="10.00">WeightFunction</text>
</g>
<!-- Node1&#45;&gt;Node8 -->
<g id="edge7" class="edge">
<title>Node1&#45;&gt;Node8</title>
<path fill="none" stroke="orange" stroke-dasharray="5,2" d="M205.07,-293.95C207.04,-317.68 215.69,-378.99 253,-407.28 268.83,-419.29 396.02,-426.93 455.74,-429.89"/>
<text text-anchor="start" x="253" y="-439.28" font-family="Helvetica,sans-Serif" font-size="10.00">itk::CumulativeGaussianCost</text>
<text text-anchor="middle" x="324" y="-428.28" font-family="Helvetica,sans-Serif" font-size="10.00">Function</text>
</g>
<!-- Node10 -->
<g id="node5" class="node">
<title>Node10</title>
<g id="a_node5"><a xlink:href="group__ITKFiniteDifference.html" target="_top" xlink:title="This module contains the base classes needed to implement finite differences image filters....">
<polygon fill="white" stroke="black" points="562,-403.78 413,-403.78 413,-384.78 562,-384.78 562,-403.78"/>
<text text-anchor="middle" x="487.5" y="-391.78" font-family="Helvetica,sans-Serif" font-size="10.00">Module ITKFiniteDifference</text>
</a>
</g>
</g>
<!-- Node1&#45;&gt;Node10 -->
<g id="edge9" class="edge">
<title>Node1&#45;&gt;Node10</title>
<path fill="none" stroke="orange" stroke-dasharray="5,2" d="M206.92,-293.81C212.05,-311.79 225.8,-350.5 253,-368.28 278.6,-385.02 354.37,-391.07 412.72,-393.21"/>
<text text-anchor="middle" x="324" y="-395.28" font-family="Helvetica,sans-Serif" font-size="10.00">itk::FiniteDifferenceFunction</text>
</g>
<!-- Node13 -->
<g id="node6" class="node">
<title>Node13</title>
<g id="a_node6"><a xlink:href="group__ITKQuadEdgeMesh.html" target="_top" xlink:title="The QuadEdgeMesh module contain a specialized set of Mesh classes intended to represent 2&#45;manifolds e...">
<polygon fill="white" stroke="black" points="561,-366.78 414,-366.78 414,-347.78 561,-347.78 561,-366.78"/>
<text text-anchor="middle" x="487.5" y="-354.78" font-family="Helvetica,sans-Serif" font-size="10.00">Module ITKQuadEdgeMesh</text>
</a>
</g>
</g>
<!-- Node1&#45;&gt;Node13 -->
<g id="edge13" class="edge">
<title>Node1&#45;&gt;Node13</title>
<path fill="none" stroke="orange" stroke-dasharray="5,2" d="M211.03,-294.18C219.28,-305.77 234.65,-324.5 253,-333.28 280.57,-346.48 356,-352.45 413.73,-355.14"/>
<text text-anchor="middle" x="324" y="-356.28" font-family="Helvetica,sans-Serif" font-size="10.00">MeshFunctionBase</text>
</g>
<!-- Node5 -->
<g id="node7" class="node">
<title>Node5</title>
<g id="a_node7"><a xlink:href="group__FiniteDifferenceFunctions.html" target="_top" xlink:title=" ">
<polygon fill="white" stroke="black" points="560.5,-325.78 414.5,-325.78 414.5,-306.78 560.5,-306.78 560.5,-325.78"/>
<text text-anchor="middle" x="487.5" y="-313.78" font-family="Helvetica,sans-Serif" font-size="10.00">Finite Difference Functions</text>
</a>
</g>
</g>
<!-- Node1&#45;&gt;Node5 -->
<g id="edge4" class="edge">
<title>Node1&#45;&gt;Node5</title>
<path fill="none" stroke="black" d="M224.69,-299.61C233.01,-305.02 243.02,-310.46 253,-313.28 305.56,-328.16 367.49,-328.21 414.35,-324.92"/>
<polygon fill="black" stroke="black" points="226.63,-296.69 216.42,-293.87 222.64,-302.44 226.63,-296.69"/>
</g>
<!-- Node1&#45;&gt;Node5 -->
<g id="edge11" class="edge">
<title>Node1&#45;&gt;Node5</title>
<path fill="none" stroke="orange" stroke-dasharray="5,2" d="M235.27,-286.02C273.01,-288.34 338.88,-293.04 395,-300.28 408.59,-302.04 423.25,-304.39 436.76,-306.76"/>
<text text-anchor="middle" x="324" y="-303.28" font-family="Helvetica,sans-Serif" font-size="10.00">itk::LevelSetFunction</text>
</g>
<!-- Node3 -->
<g id="node8" class="node">
<title>Node3</title>
<g id="a_node8"><a xlink:href="group__ImageFunctions.html" target="_top" xlink:title=" ">
<polygon fill="white" stroke="black" points="536,-283.78 439,-283.78 439,-264.78 536,-264.78 536,-283.78"/>
<text text-anchor="middle" x="487.5" y="-271.78" font-family="Helvetica,sans-Serif" font-size="10.00">Image Functions</text>
</a>
</g>
</g>
<!-- Node1&#45;&gt;Node3 -->
<g id="edge2" class="edge">
<title>Node1&#45;&gt;Node3</title>
<path fill="none" stroke="black" d="M245.2,-282.59C247.84,-282.48 250.46,-282.38 253,-282.28 317.24,-279.86 391.45,-277.37 438.65,-275.83"/>
<polygon fill="black" stroke="black" points="244.88,-279.1 235.03,-282.99 245.16,-286.09 244.88,-279.1"/>
</g>
<!-- Node12 -->
<g id="node9" class="node">
<title>Node12</title>
<g id="a_node9"><a xlink:href="group__ITKLevelSets.html" target="_top" xlink:title="This module contains classes related to level&#45;set segmentation. In level&#45;set segmentation,...">
<polygon fill="white" stroke="black" points="547,-246.78 428,-246.78 428,-227.78 547,-227.78 547,-246.78"/>
<text text-anchor="middle" x="487.5" y="-234.78" font-family="Helvetica,sans-Serif" font-size="10.00">Module ITKLevelSets</text>
</a>
</g>
</g>
<!-- Node1&#45;&gt;Node12 -->
<g id="edge12" class="edge">
<title>Node1&#45;&gt;Node12</title>
<path fill="none" stroke="orange" stroke-dasharray="5,2" d="M222.92,-274.76C231.79,-270.59 242.71,-266.02 253,-263.28 311.15,-247.83 379.8,-241.55 427.56,-239.01"/>
<text text-anchor="middle" x="324" y="-266.28" font-family="Helvetica,sans-Serif" font-size="10.00">itk::LevelSetFunction</text>
</g>
<!-- Node6 -->
<g id="node10" class="node">
<title>Node6</title>
<g id="a_node10"><a xlink:href="group__ITKCommon.html" target="_top" xlink:title="This module contains the central classes of the ITK toolkit. They include, basic data structures (suc...">
<polygon fill="white" stroke="black" points="545,-142.78 430,-142.78 430,-123.78 545,-123.78 545,-142.78"/>
<text text-anchor="middle" x="487.5" y="-130.78" font-family="Helvetica,sans-Serif" font-size="10.00">Module ITKCommon</text>
</a>
</g>
</g>
<!-- Node1&#45;&gt;Node6 -->
<g id="edge5" class="edge">
<title>Node1&#45;&gt;Node6</title>
<path fill="none" stroke="orange" stroke-dasharray="5,2" d="M204.68,-274.47C205.72,-249.07 212.37,-181.05 253,-150.28 308.25,-108.45 393.48,-114.8 444.25,-123.71"/>
<text text-anchor="start" x="255" y="-230.28" font-family="Helvetica,sans-Serif" font-size="10.00">itk::BSplineDerivativeKernel</text>
<text text-anchor="middle" x="324" y="-219.28" font-family="Helvetica,sans-Serif" font-size="10.00">Function</text>
<text text-anchor="start" x="255" y="-208.28" font-family="Helvetica,sans-Serif" font-size="10.00">itk::BSplineInterpolation</text>
<text text-anchor="middle" x="324" y="-197.28" font-family="Helvetica,sans-Serif" font-size="10.00">WeightFunction</text>
<text text-anchor="middle" x="324" y="-186.28" font-family="Helvetica,sans-Serif" font-size="10.00">itk::BSplineKernelFunction</text>
<text text-anchor="middle" x="324" y="-175.28" font-family="Helvetica,sans-Serif" font-size="10.00">itk::FunctionBase</text>
<text text-anchor="middle" x="324" y="-164.28" font-family="Helvetica,sans-Serif" font-size="10.00">itk::GaussianKernelFunction</text>
<text text-anchor="middle" x="324" y="-153.28" font-family="Helvetica,sans-Serif" font-size="10.00">itk::KernelFunctionBase</text>
</g>
<!-- Node11 -->
<g id="node11" class="node">
<title>Node11</title>
<g id="a_node11"><a xlink:href="group__ITKImageSources.html" target="_top" xlink:title="This module groups image sources which generate an image.">
<polygon fill="white" stroke="black" points="557.5,-105.78 417.5,-105.78 417.5,-86.78 557.5,-86.78 557.5,-105.78"/>
<text text-anchor="middle" x="487.5" y="-93.78" font-family="Helvetica,sans-Serif" font-size="10.00">Module ITKImageSources</text>
</a>
</g>
</g>
<!-- Node1&#45;&gt;Node11 -->
<g id="edge10" class="edge">
<title>Node1&#45;&gt;Node11</title>
<path fill="none" stroke="orange" stroke-dasharray="5,2" d="M205.59,-274.43C209.67,-239.75 225.15,-124.26 253,-102.28 277.63,-82.85 357.81,-84.72 417.37,-89.24"/>
<text text-anchor="middle" x="324" y="-105.28" font-family="Helvetica,sans-Serif" font-size="10.00">itk::GaborKernelFunction</text>
</g>
<!-- Node9 -->
<g id="node12" class="node">
<title>Node9</title>
<g id="a_node12"><a xlink:href="group__ITKOptimizers.html" target="_top" xlink:title="This module contains ITK classes that encapsulate numerical optimizers. A set of base classes categor...">
<polygon fill="white" stroke="black" points="549.5,-61.78 425.5,-61.78 425.5,-42.78 549.5,-42.78 549.5,-61.78"/>
<text text-anchor="middle" x="487.5" y="-49.78" font-family="Helvetica,sans-Serif" font-size="10.00">Module ITKOptimizers</text>
</a>
</g>
</g>
<!-- Node1&#45;&gt;Node9 -->
<g id="edge8" class="edge">
<title>Node1&#45;&gt;Node9</title>
<path fill="none" stroke="orange" stroke-dasharray="5,2" d="M205.06,-274.72C207.58,-235.59 219.18,-88.54 253,-60.28 278.22,-39.22 365.02,-41.61 425.37,-46.21"/>
<text text-anchor="start" x="253" y="-74.28" font-family="Helvetica,sans-Serif" font-size="10.00">itk::CumulativeGaussianCost</text>
<text text-anchor="middle" x="324" y="-63.28" font-family="Helvetica,sans-Serif" font-size="10.00">Function</text>
</g>
<!-- Node4 -->
<g id="node13" class="node">
<title>Node4</title>
<g id="a_node13"><a xlink:href="group__SpatialFunctions.html" target="_top" xlink:title=" ">
<polygon fill="white" stroke="black" points="537.5,-24.78 437.5,-24.78 437.5,-5.78 537.5,-5.78 537.5,-24.78"/>
<text text-anchor="middle" x="487.5" y="-12.78" font-family="Helvetica,sans-Serif" font-size="10.00">Spatial Functions</text>
</a>
</g>
</g>
<!-- Node1&#45;&gt;Node4 -->
<g id="edge3" class="edge">
<title>Node1&#45;&gt;Node4</title>
<path fill="none" stroke="black" d="M205.47,-264.69C208.51,-212.08 219.7,-69.62 253,-39.28 304.06,7.24 389.87,2.67 442.03,-5.72"/>
<polygon fill="black" stroke="black" points="201.97,-264.57 204.93,-274.74 208.96,-264.95 201.97,-264.57"/>
</g>
</g>
</svg>
