<?xml version="1.0" encoding="UTF-8" standalone="no"?>
<!DOCTYPE svg PUBLIC "-//W3C//DTD SVG 1.1//EN"
 "http://www.w3.org/Graphics/SVG/1.1/DTD/svg11.dtd">
<!-- Generated by graphviz version 2.43.0 (0)
 -->
<!-- Title: Group Numerics Pages: 1 -->
<svg width="275pt" height="249pt"
 viewBox="0.00 0.00 275.00 249.00" xmlns="http://www.w3.org/2000/svg" xmlns:xlink="http://www.w3.org/1999/xlink">
<g id="graph0" class="graph" transform="scale(1 1) rotate(0) translate(4 245)">
<title>Group Numerics</title>
<polygon fill="white" stroke="transparent" points="-4,4 -4,-245 271,-245 271,4 -4,4"/>
<!-- Node3 -->
<g id="node1" class="node">
<title>Node3</title>
<g id="a_node1"><a xlink:href="group__ITKFEM.html" target="_top" xlink:title=" ">
<polygon fill="white" stroke="black" points="245,-241 153,-241 153,-222 245,-222 245,-241"/>
<text text-anchor="middle" x="199" y="-229" font-family="Helvetica,sans-Serif" font-size="10.00">Module ITKFEM</text>
</a>
</g>
</g>
<!-- Node2 -->
<g id="node2" class="node">
<title>Node2</title>
<g id="a_node2"><a xlink:href="group__ITKEigen.html" target="_top" xlink:title="This module contains classes related to calculation of eigenvectors and eigenvalues.">
<polygon fill="white" stroke="black" points="248,-204 150,-204 150,-185 248,-185 248,-204"/>
<text text-anchor="middle" x="199" y="-192" font-family="Helvetica,sans-Serif" font-size="10.00">Module ITKEigen</text>
</a>
</g>
</g>
<!-- Node4 -->
<g id="node3" class="node">
<title>Node4</title>
<g id="a_node3"><a xlink:href="group__ITKNarrowBand.html" target="_top" xlink:title="This module contains code for data types and calculation on a narrow band of space.">
<polygon fill="white" stroke="black" points="264.5,-167 133.5,-167 133.5,-148 264.5,-148 264.5,-167"/>
<text text-anchor="middle" x="199" y="-155" font-family="Helvetica,sans-Serif" font-size="10.00">Module ITKNarrowBand</text>
</a>
</g>
</g>
<!-- Node8 -->
<g id="node4" class="node">
<title>Node8</title>
<g id="a_node4"><a xlink:href="group__ITKStatistics.html" target="_top" xlink:title="The Statistics module contains basic data structures, statistical algorithms, and a classification fo...">
<polygon fill="white" stroke="black" points="257,-130 141,-130 141,-111 257,-111 257,-130"/>
<text text-anchor="middle" x="199" y="-118" font-family="Helvetica,sans-Serif" font-size="10.00">Module ITKStatistics</text>
</a>
</g>
</g>
<!-- Node1 -->
<g id="node5" class="node">
<title>Node1</title>
<g id="a_node5"><a xlink:title="This group of modules are basic numerical tools and algorithms that have general applications outside...">
<polygon fill="#bfbfbf" stroke="black" points="95,-130 0,-130 0,-111 95,-111 95,-130"/>
<text text-anchor="middle" x="47.5" y="-118" font-family="Helvetica,sans-Serif" font-size="10.00">Group Numerics</text>
</a>
</g>
</g>
<!-- Node1&#45;&gt;Node3 -->
<g id="edge2" class="edge">
<title>Node1&#45;&gt;Node3</title>
<path fill="none" stroke="black" d="M59.83,-138.74C73.93,-159.89 99.96,-194.3 131,-213.5 137.66,-217.62 145.26,-220.8 152.88,-223.27"/>
<polygon fill="black" stroke="black" points="62.59,-136.55 54.22,-130.05 56.71,-140.35 62.59,-136.55"/>
</g>
<!-- Node1&#45;&gt;Node2 -->
<g id="edge1" class="edge">
<title>Node1&#45;&gt;Node2</title>
<path fill="none" stroke="black" d="M68.11,-136.6C84.16,-149.06 107.89,-165.92 131,-176.5 138.23,-179.81 146.18,-182.61 154.01,-184.94"/>
<polygon fill="black" stroke="black" points="70.05,-133.67 60.04,-130.2 65.7,-139.15 70.05,-133.67"/>
</g>
<!-- Node1&#45;&gt;Node4 -->
<g id="edge3" class="edge">
<title>Node1&#45;&gt;Node4</title>
<path fill="none" stroke="black" d="M96.96,-132.49C117.18,-137.5 140.33,-143.23 159.37,-147.94"/>
<polygon fill="black" stroke="black" points="97.55,-129.03 87,-130.03 95.87,-135.83 97.55,-129.03"/>
</g>
<!-- Node1&#45;&gt;Node8 -->
<g id="edge7" class="edge">
<title>Node1&#45;&gt;Node8</title>
<path fill="none" stroke="black" d="M105.74,-120.5C117.22,-120.5 129.29,-120.5 140.77,-120.5"/>
<polygon fill="black" stroke="black" points="105.39,-117 95.39,-120.5 105.39,-124 105.39,-117"/>
</g>
<!-- Node5 -->
<g id="node6" class="node">
<title>Node5</title>
<g id="a_node6"><a xlink:href="group__ITKOptimizers.html" target="_top" xlink:title="This module contains ITK classes that encapsulate numerical optimizers. A set of base classes categor...">
<polygon fill="white" stroke="black" points="261,-93 137,-93 137,-74 261,-74 261,-93"/>
<text text-anchor="middle" x="199" y="-81" font-family="Helvetica,sans-Serif" font-size="10.00">Module ITKOptimizers</text>
</a>
</g>
</g>
<!-- Node1&#45;&gt;Node5 -->
<g id="edge4" class="edge">
<title>Node1&#45;&gt;Node5</title>
<path fill="none" stroke="black" d="M96.96,-108.51C117.18,-103.5 140.33,-97.77 159.37,-93.06"/>
<polygon fill="black" stroke="black" points="95.87,-105.17 87,-110.97 97.55,-111.97 95.87,-105.17"/>
</g>
<!-- Node6 -->
<g id="node7" class="node">
<title>Node6</title>
<g id="a_node7"><a xlink:href="group__ITKOptimizersv4.html" target="_top" xlink:title="This module contains ITK classes that encapsulate numerical optimizers using a new hierarchy develope...">
<polygon fill="white" stroke="black" points="267,-56 131,-56 131,-37 267,-37 267,-56"/>
<text text-anchor="middle" x="199" y="-44" font-family="Helvetica,sans-Serif" font-size="10.00">Module ITKOptimizersv4</text>
</a>
</g>
</g>
<!-- Node1&#45;&gt;Node6 -->
<g id="edge5" class="edge">
<title>Node1&#45;&gt;Node6</title>
<path fill="none" stroke="black" d="M68.48,-104.59C84.56,-92.43 108.18,-76.02 131,-65.5 139.01,-61.8 147.91,-58.67 156.52,-56.08"/>
<polygon fill="black" stroke="black" points="66.15,-101.96 60.37,-110.84 70.42,-107.5 66.15,-101.96"/>
</g>
<!-- Node7 -->
<g id="node8" class="node">
<title>Node7</title>
<g id="a_node8"><a xlink:href="group__ITKPolynomials.html" target="_top" xlink:title="This module contains code for the calculation of polynomial functions.">
<polygon fill="white" stroke="black" points="264.5,-19 133.5,-19 133.5,0 264.5,0 264.5,-19"/>
<text text-anchor="middle" x="199" y="-7" font-family="Helvetica,sans-Serif" font-size="10.00">Module ITKPolynomials</text>
</a>
</g>
</g>
<!-- Node1&#45;&gt;Node7 -->
<g id="edge6" class="edge">
<title>Node1&#45;&gt;Node7</title>
<path fill="none" stroke="black" d="M60.15,-102.21C74.38,-81.34 100.38,-47.61 131,-28.5 137.15,-24.66 144.1,-21.57 151.14,-19.1"/>
<polygon fill="black" stroke="black" points="57.06,-100.53 54.46,-110.8 62.9,-104.4 57.06,-100.53"/>
</g>
</g>
</svg>
