<?xml version="1.0" encoding="UTF-8" standalone="no"?>
<!DOCTYPE svg PUBLIC "-//W3C//DTD SVG 1.1//EN"
 "http://www.w3.org/Graphics/SVG/1.1/DTD/svg11.dtd">
<!-- Generated by graphviz version 2.43.0 (0)
 -->
<!-- Title: Module ITKIONIFTI Pages: 1 -->
<svg width="459pt" height="29pt"
 viewBox="0.00 0.00 459.00 28.50" xmlns="http://www.w3.org/2000/svg" xmlns:xlink="http://www.w3.org/1999/xlink">
<g id="graph0" class="graph" transform="scale(1 1) rotate(0) translate(4 24.5)">
<title>Module ITKIONIFTI</title>
<polygon fill="white" stroke="transparent" points="-4,4 -4,-24.5 455,-24.5 455,4 -4,4"/>
<!-- Node2 -->
<g id="node1" class="node">
<title>Node2</title>
<g id="a_node1"><a xlink:href="group__Group-IO.html" target="_top" xlink:title="This group of modules contains classes for reading and writing images and other data objects.">
<polygon fill="white" stroke="black" points="59,-19 0,-19 0,0 59,0 59,-19"/>
<text text-anchor="middle" x="29.5" y="-7" font-family="Helvetica,sans-Serif" font-size="10.00">Group IO</text>
</a>
</g>
</g>
<!-- Node1 -->
<g id="node2" class="node">
<title>Node1</title>
<g id="a_node2"><a xlink:title="This modules contains an ImageIO class to read or write the nifti medical image format.">
<polygon fill="#bfbfbf" stroke="black" points="203,-19 96,-19 96,0 203,0 203,-19"/>
<text text-anchor="middle" x="149.5" y="-7" font-family="Helvetica,sans-Serif" font-size="10.00">Module ITKIONIFTI</text>
</a>
</g>
</g>
<!-- Node2&#45;&gt;Node1 -->
<g id="edge1" class="edge">
<title>Node2&#45;&gt;Node1</title>
<path fill="none" stroke="black" d="M69.08,-9.5C77.6,-9.5 86.77,-9.5 95.75,-9.5"/>
<polygon fill="black" stroke="black" points="69.06,-6 59.06,-9.5 69.06,-13 69.06,-6"/>
</g>
<!-- Node3 -->
<g id="node3" class="node">
<title>Node3</title>
<g id="a_node3"><a xlink:href="group__IOFilters.html" target="_top" xlink:title=" ">
<polygon fill="white" stroke="black" points="451,-19 320,-19 320,0 451,0 451,-19"/>
<text text-anchor="middle" x="385.5" y="-7" font-family="Helvetica,sans-Serif" font-size="10.00">Input and Output Filters</text>
</a>
</g>
</g>
<!-- Node1&#45;&gt;Node3 -->
<g id="edge2" class="edge">
<title>Node1&#45;&gt;Node3</title>
<path fill="none" stroke="orange" stroke-dasharray="5,2" d="M203.01,-9.5C237.51,-9.5 282.88,-9.5 319.63,-9.5"/>
<text text-anchor="middle" x="261.5" y="-12.5" font-family="Helvetica,sans-Serif" font-size="10.00">itk::NiftiImageIO</text>
</g>
</g>
</svg>
