<?xml version="1.0" encoding="UTF-8" standalone="no"?>
<!DOCTYPE svg PUBLIC "-//W3C//DTD SVG 1.1//EN"
 "http://www.w3.org/Graphics/SVG/1.1/DTD/svg11.dtd">
<!-- Generated by graphviz version 2.43.0 (0)
 -->
<!-- Title: System Objects Pages: 1 -->
<svg width="249pt" height="64pt"
 viewBox="0.00 0.00 249.00 64.00" xmlns="http://www.w3.org/2000/svg" xmlns:xlink="http://www.w3.org/1999/xlink">
<g id="graph0" class="graph" transform="scale(1 1) rotate(0) translate(4 60)">
<title>System Objects</title>
<polygon fill="white" stroke="transparent" points="-4,4 -4,-60 245,-60 245,4 -4,4"/>
<!-- Node1 -->
<g id="node1" class="node">
<title>Node1</title>
<g id="a_node1"><a xlink:title=" ">
<polygon fill="#bfbfbf" stroke="black" points="93,-37 0,-37 0,-18 93,-18 93,-37"/>
<text text-anchor="middle" x="46.5" y="-25" font-family="Helvetica,sans-Serif" font-size="10.00">System Objects</text>
</a>
</g>
</g>
<!-- Node2 -->
<g id="node2" class="node">
<title>Node2</title>
<g id="a_node2"><a xlink:href="group__ITKSystemObjects.html" target="_top" xlink:title=" ">
<polygon fill="white" stroke="black" points="241,-56 129,-56 129,-37 241,-37 241,-56"/>
<text text-anchor="middle" x="185" y="-44" font-family="Helvetica,sans-Serif" font-size="10.00">ITK System Objects</text>
</a>
</g>
</g>
<!-- Node1&#45;&gt;Node2 -->
<g id="edge1" class="edge">
<title>Node1&#45;&gt;Node2</title>
<path fill="none" stroke="black" d="M103.33,-35.27C111.67,-36.43 120.26,-37.63 128.58,-38.79"/>
<polygon fill="black" stroke="black" points="103.72,-31.79 93.33,-33.88 102.75,-38.72 103.72,-31.79"/>
</g>
<!-- Node3 -->
<g id="node3" class="node">
<title>Node3</title>
<g id="a_node3"><a xlink:href="group__OSSystemObjects.html" target="_top" xlink:title=" ">
<polygon fill="white" stroke="black" points="240,-19 130,-19 130,0 240,0 240,-19"/>
<text text-anchor="middle" x="185" y="-7" font-family="Helvetica,sans-Serif" font-size="10.00">OS System Objects</text>
</a>
</g>
</g>
<!-- Node1&#45;&gt;Node3 -->
<g id="edge2" class="edge">
<title>Node1&#45;&gt;Node3</title>
<path fill="none" stroke="black" d="M103.33,-20.14C111.99,-19 120.92,-17.82 129.54,-16.68"/>
<polygon fill="black" stroke="black" points="102.79,-16.68 93.33,-21.46 103.7,-23.62 102.79,-16.68"/>
</g>
</g>
</svg>
