<?xml version="1.0" encoding="UTF-8" standalone="no"?>
<!DOCTYPE svg PUBLIC "-//W3C//DTD SVG 1.1//EN"
 "http://www.w3.org/Graphics/SVG/1.1/DTD/svg11.dtd">
<!-- Generated by graphviz version 2.43.0 (0)
 -->
<!-- Title: MultiThreaded Filters Pages: 1 -->
<svg width="721pt" height="2626pt"
 viewBox="0.00 0.00 721.00 2625.74" xmlns="http://www.w3.org/2000/svg" xmlns:xlink="http://www.w3.org/1999/xlink">
<g id="graph0" class="graph" transform="scale(1 1) rotate(0) translate(4 2621.74)">
<title>MultiThreaded Filters</title>
<polygon fill="white" stroke="transparent" points="-4,4 -4,-2621.74 717,-2621.74 717,4 -4,4"/>
<!-- Node22 -->
<g id="node1" class="node">
<title>Node22</title>
<g id="a_node1"><a xlink:href="group__ITKGPUPDEDeformableRegistration.html" target="_top" xlink:title="This module contains the GPU implementation of classes for deformable image registration based on int...">
<polygon fill="white" stroke="black" points="694,-2583.74 524,-2583.74 524,-2553.74 694,-2553.74 694,-2583.74"/>
<text text-anchor="start" x="532" y="-2571.74" font-family="Helvetica,sans-Serif" font-size="10.00">Module ITKGPUPDEDeformable</text>
<text text-anchor="middle" x="609" y="-2560.74" font-family="Helvetica,sans-Serif" font-size="10.00">Registration</text>
</a>
</g>
</g>
<!-- Node17 -->
<g id="node2" class="node">
<title>Node17</title>
<g id="a_node2"><a xlink:href="group__ITKDiffusionTensorImage.html" target="_top" xlink:title="This module contains classes intended to generate or procees diffusion tensor images....">
<polygon fill="white" stroke="black" points="682,-2494.74 536,-2494.74 536,-2464.74 682,-2464.74 682,-2494.74"/>
<text text-anchor="start" x="544" y="-2482.74" font-family="Helvetica,sans-Serif" font-size="10.00">Module ITKDiffusionTensor</text>
<text text-anchor="middle" x="609" y="-2471.74" font-family="Helvetica,sans-Serif" font-size="10.00">Image</text>
</a>
</g>
</g>
<!-- Node27 -->
<g id="node3" class="node">
<title>Node27</title>
<g id="a_node3"><a xlink:href="group__ITKImageFeature.html" target="_top" xlink:title="This module contains classes that compute image features. In particular you will find here: Canny edg...">
<polygon fill="white" stroke="black" points="678.5,-2444.24 539.5,-2444.24 539.5,-2425.24 678.5,-2425.24 678.5,-2444.24"/>
<text text-anchor="middle" x="609" y="-2432.24" font-family="Helvetica,sans-Serif" font-size="10.00">Module ITKImageFeature</text>
</a>
</g>
</g>
<!-- Node3 -->
<g id="node4" class="node">
<title>Node3</title>
<g id="a_node4"><a xlink:href="group__IntensityImageFilters.html" target="_top" xlink:title=" ">
<polygon fill="white" stroke="black" points="672,-2290.24 546,-2290.24 546,-2271.24 672,-2271.24 672,-2290.24"/>
<text text-anchor="middle" x="609" y="-2278.24" font-family="Helvetica,sans-Serif" font-size="10.00">Intensity Image Filters</text>
</a>
</g>
</g>
<!-- Node10 -->
<g id="node5" class="node">
<title>Node10</title>
<g id="a_node5"><a xlink:href="group__ITKImageLabel.html" target="_top" xlink:title="This module contains filters intended to operate on images of labels. Such images are typically the o...">
<polygon fill="white" stroke="black" points="673,-2253.24 545,-2253.24 545,-2234.24 673,-2234.24 673,-2253.24"/>
<text text-anchor="middle" x="609" y="-2241.24" font-family="Helvetica,sans-Serif" font-size="10.00">Module ITKImageLabel</text>
</a>
</g>
</g>
<!-- Node24 -->
<g id="node6" class="node">
<title>Node24</title>
<g id="a_node6"><a xlink:href="group__ITKImageStatistics.html" target="_top" xlink:title="This module contains classes that compute statistics on images, or use those statistics to perform im...">
<polygon fill="white" stroke="black" points="682.5,-2210.24 535.5,-2210.24 535.5,-2191.24 682.5,-2191.24 682.5,-2210.24"/>
<text text-anchor="middle" x="609" y="-2198.24" font-family="Helvetica,sans-Serif" font-size="10.00">Module ITKImageStatistics</text>
</a>
</g>
</g>
<!-- Node25 -->
<g id="node7" class="node">
<title>Node25</title>
<g id="a_node7"><a xlink:href="group__ITKImageFusion.html" target="_top" xlink:title="This module contains classes made to visually enhance the images, mostly by adding them artificial co...">
<polygon fill="white" stroke="black" points="676,-2165.24 542,-2165.24 542,-2146.24 676,-2146.24 676,-2165.24"/>
<text text-anchor="middle" x="609" y="-2153.24" font-family="Helvetica,sans-Serif" font-size="10.00">Module ITKImageFusion</text>
</a>
</g>
</g>
<!-- Node9 -->
<g id="node8" class="node">
<title>Node9</title>
<g id="a_node8"><a xlink:href="group__ITKThresholding.html" target="_top" xlink:title="This module contains multiple variations of image thresholding filters. In addition to the classical ...">
<polygon fill="white" stroke="black" points="676,-2065.24 542,-2065.24 542,-2046.24 676,-2046.24 676,-2065.24"/>
<text text-anchor="middle" x="609" y="-2053.24" font-family="Helvetica,sans-Serif" font-size="10.00">Module ITKThresholding</text>
</a>
</g>
</g>
<!-- Node21 -->
<g id="node9" class="node">
<title>Node21</title>
<g id="a_node9"><a xlink:href="group__ITKImageGrid.html" target="_top" xlink:title="This module groups image filters whose operations are related to manipulations of the underlying imag...">
<polygon fill="white" stroke="black" points="670,-1965.24 548,-1965.24 548,-1946.24 670,-1946.24 670,-1965.24"/>
<text text-anchor="middle" x="609" y="-1953.24" font-family="Helvetica,sans-Serif" font-size="10.00">Module ITKImageGrid</text>
</a>
</g>
</g>
<!-- Node23 -->
<g id="node10" class="node">
<title>Node23</title>
<g id="a_node10"><a xlink:href="group__ITKImageCompose.html" target="_top" xlink:title="This module contains filters that combine several images into a single output image....">
<polygon fill="white" stroke="black" points="683,-1920.24 535,-1920.24 535,-1901.24 683,-1901.24 683,-1920.24"/>
<text text-anchor="middle" x="609" y="-1908.24" font-family="Helvetica,sans-Serif" font-size="10.00">Module ITKImageCompose</text>
</a>
</g>
</g>
<!-- Node12 -->
<g id="node11" class="node">
<title>Node12</title>
<g id="a_node11"><a xlink:href="group__ITKDistanceMap.html" target="_top" xlink:title="This module contains multiple implementations of distance map filters. They include the implementatio...">
<polygon fill="white" stroke="black" points="676.5,-1809.24 541.5,-1809.24 541.5,-1790.24 676.5,-1790.24 676.5,-1809.24"/>
<text text-anchor="middle" x="609" y="-1797.24" font-family="Helvetica,sans-Serif" font-size="10.00">Module ITKDistanceMap</text>
</a>
</g>
</g>
<!-- Node11 -->
<g id="node12" class="node">
<title>Node11</title>
<g id="a_node12"><a xlink:href="group__ITKTestKernel.html" target="_top" xlink:title="This Module contains helper classes used for the Testing infrastructure of ITK. As an application dev...">
<polygon fill="white" stroke="black" points="669.5,-1753.24 548.5,-1753.24 548.5,-1734.24 669.5,-1734.24 669.5,-1753.24"/>
<text text-anchor="middle" x="609" y="-1741.24" font-family="Helvetica,sans-Serif" font-size="10.00">Module ITKTestKernel</text>
</a>
</g>
</g>
<!-- Node13 -->
<g id="node13" class="node">
<title>Node13</title>
<g id="a_node13"><a xlink:href="group__Streamed.html" target="_top" xlink:title=" ">
<polygon fill="white" stroke="black" points="659,-1631.24 559,-1631.24 559,-1612.24 659,-1612.24 659,-1631.24"/>
<text text-anchor="middle" x="609" y="-1619.24" font-family="Helvetica,sans-Serif" font-size="10.00">Streaming Filters</text>
</a>
</g>
</g>
<!-- Node20 -->
<g id="node14" class="node">
<title>Node20</title>
<g id="a_node14"><a xlink:href="group__GeometricTransform.html" target="_top" xlink:title=" ">
<polygon fill="white" stroke="black" points="681,-1558.74 537,-1558.74 537,-1528.74 681,-1528.74 681,-1558.74"/>
<text text-anchor="start" x="545" y="-1546.74" font-family="Helvetica,sans-Serif" font-size="10.00">Geometric Transformation</text>
<text text-anchor="middle" x="609" y="-1535.74" font-family="Helvetica,sans-Serif" font-size="10.00"> Filters</text>
</a>
</g>
</g>
<!-- Node4 -->
<g id="node15" class="node">
<title>Node4</title>
<g id="a_node15"><a xlink:href="group__ITKImageIntensity.html" target="_top" xlink:title="This module contains filters that perform pixel&#45;wise operations on the intensities of images....">
<polygon fill="white" stroke="black" points="681.5,-1398.24 536.5,-1398.24 536.5,-1379.24 681.5,-1379.24 681.5,-1398.24"/>
<text text-anchor="middle" x="609" y="-1386.24" font-family="Helvetica,sans-Serif" font-size="10.00">Module ITKImageIntensity</text>
</a>
</g>
</g>
<!-- Node28 -->
<g id="node16" class="node">
<title>Node28</title>
<g id="a_node16"><a xlink:href="group__PyramidImageFilter.html" target="_top" xlink:title=" ">
<polygon fill="white" stroke="black" points="671,-1331.24 547,-1331.24 547,-1312.24 671,-1312.24 671,-1331.24"/>
<text text-anchor="middle" x="609" y="-1319.24" font-family="Helvetica,sans-Serif" font-size="10.00">Image Pyramid Filters</text>
</a>
</g>
</g>
<!-- Node1 -->
<g id="node17" class="node">
<title>Node1</title>
<g id="a_node17"><a xlink:title=" ">
<polygon fill="#bfbfbf" stroke="black" points="288,-1364.24 168,-1364.24 168,-1345.24 288,-1345.24 288,-1364.24"/>
<text text-anchor="middle" x="228" y="-1352.24" font-family="Helvetica,sans-Serif" font-size="10.00">MultiThreaded Filters</text>
</a>
</g>
</g>
<!-- Node1&#45;&gt;Node22 -->
<g id="edge21" class="edge">
<title>Node1&#45;&gt;Node22</title>
<path fill="none" stroke="orange" stroke-dasharray="5,2" d="M229.26,-1364.31C232.3,-1474.56 261.78,-2502.16 306,-2546.74 369.86,-2611.13 484.78,-2598.73 552.95,-2583.8"/>
<text text-anchor="start" x="326.5" y="-2609.74" font-family="Helvetica,sans-Serif" font-size="10.00">itk::GPUDemonsRegistration</text>
<text text-anchor="middle" x="396.5" y="-2598.74" font-family="Helvetica,sans-Serif" font-size="10.00">Filter</text>
</g>
<!-- Node1&#45;&gt;Node17 -->
<g id="edge16" class="edge">
<title>Node1&#45;&gt;Node17</title>
<path fill="none" stroke="orange" stroke-dasharray="5,2" d="M228.92,-1364.49C228.2,-1468.74 224.26,-2375.75 306,-2457.74 321.89,-2473.68 451.66,-2478.14 535.84,-2479.35"/>
<text text-anchor="start" x="306" y="-2535.74" font-family="Helvetica,sans-Serif" font-size="10.00">itk::DiffusionTensor3DReconstruction</text>
<text text-anchor="middle" x="396.5" y="-2524.74" font-family="Helvetica,sans-Serif" font-size="10.00">ImageFilter</text>
<text text-anchor="start" x="306" y="-2513.74" font-family="Helvetica,sans-Serif" font-size="10.00">itk::TensorFractionalAnisotropy</text>
<text text-anchor="middle" x="396.5" y="-2502.74" font-family="Helvetica,sans-Serif" font-size="10.00">ImageFilter</text>
<text text-anchor="start" x="306" y="-2491.74" font-family="Helvetica,sans-Serif" font-size="10.00">itk::TensorRelativeAnisotropy</text>
<text text-anchor="middle" x="396.5" y="-2480.74" font-family="Helvetica,sans-Serif" font-size="10.00">ImageFilter</text>
</g>
<!-- Node1&#45;&gt;Node27 -->
<g id="edge26" class="edge">
<title>Node1&#45;&gt;Node27</title>
<path fill="none" stroke="orange" stroke-dasharray="5,2" d="M228.95,-1364.41C228.56,-1465.9 227.54,-2334.28 306,-2412.74 322.12,-2428.87 455.11,-2433.24 539.15,-2434.39"/>
<text text-anchor="start" x="317" y="-2446.74" font-family="Helvetica,sans-Serif" font-size="10.00">itk::LaplacianRecursiveGaussian</text>
<text text-anchor="middle" x="396.5" y="-2435.74" font-family="Helvetica,sans-Serif" font-size="10.00">ImageFilter</text>
</g>
<!-- Node1&#45;&gt;Node3 -->
<g id="edge2" class="edge">
<title>Node1&#45;&gt;Node3</title>
<path fill="none" stroke="orange" stroke-dasharray="5,2" d="M229.08,-1364.4C229.96,-1457.32 239.01,-2191.36 306,-2257.74 322.64,-2274.24 462.52,-2278.91 545.96,-2280.23"/>
<text text-anchor="middle" x="396.5" y="-2401.74" font-family="Helvetica,sans-Serif" font-size="10.00">itk::AbsImageFilter</text>
<text text-anchor="start" x="325.5" y="-2390.74" font-family="Helvetica,sans-Serif" font-size="10.00">itk::AbsoluteValueDifference</text>
<text text-anchor="middle" x="396.5" y="-2379.74" font-family="Helvetica,sans-Serif" font-size="10.00">ImageFilter</text>
<text text-anchor="middle" x="396.5" y="-2368.74" font-family="Helvetica,sans-Serif" font-size="10.00">itk::AcosImageFilter</text>
<text text-anchor="middle" x="396.5" y="-2357.74" font-family="Helvetica,sans-Serif" font-size="10.00">itk::AdaptImageFilter</text>
<text text-anchor="middle" x="396.5" y="-2346.74" font-family="Helvetica,sans-Serif" font-size="10.00">AddImageFilter</text>
<text text-anchor="middle" x="396.5" y="-2335.74" font-family="Helvetica,sans-Serif" font-size="10.00">itk::AndImageFilter</text>
<text text-anchor="middle" x="396.5" y="-2324.74" font-family="Helvetica,sans-Serif" font-size="10.00">itk::AsinImageFilter</text>
<text text-anchor="middle" x="396.5" y="-2313.74" font-family="Helvetica,sans-Serif" font-size="10.00">itk::Atan2ImageFilter</text>
<text text-anchor="middle" x="396.5" y="-2302.74" font-family="Helvetica,sans-Serif" font-size="10.00">itk::AtanImageFilter</text>
<text text-anchor="middle" x="396.5" y="-2291.74" font-family="Helvetica,sans-Serif" font-size="10.00">itk::BinaryFunctorImageFilter</text>
<text text-anchor="middle" x="396.5" y="-2280.74" font-family="Helvetica,sans-Serif" font-size="10.00">...</text>
</g>
<!-- Node1&#45;&gt;Node10 -->
<g id="edge9" class="edge">
<title>Node1&#45;&gt;Node10</title>
<path fill="none" stroke="orange" stroke-dasharray="5,2" d="M229.11,-1364.32C230.25,-1454.98 241.17,-2160.34 306,-2223.74 322.67,-2240.05 461.41,-2243.36 544.93,-2243.85"/>
<text text-anchor="middle" x="396.5" y="-2245.74" font-family="Helvetica,sans-Serif" font-size="10.00">itk::ChangeLabelImageFilter</text>
</g>
<!-- Node1&#45;&gt;Node24 -->
<g id="edge23" class="edge">
<title>Node1&#45;&gt;Node24</title>
<path fill="none" stroke="orange" stroke-dasharray="5,2" d="M229.16,-1364.37C230.74,-1452.57 244.68,-2118.66 306,-2178.74 322.03,-2194.45 451.03,-2198.99 535.17,-2200.27"/>
<text text-anchor="start" x="331" y="-2212.74" font-family="Helvetica,sans-Serif" font-size="10.00">itk::LabelOverlapMeasures</text>
<text text-anchor="middle" x="396.5" y="-2201.74" font-family="Helvetica,sans-Serif" font-size="10.00">ImageFilter</text>
</g>
<!-- Node1&#45;&gt;Node25 -->
<g id="edge24" class="edge">
<title>Node1&#45;&gt;Node25</title>
<path fill="none" stroke="orange" stroke-dasharray="5,2" d="M229.22,-1364.37C231.23,-1449.88 247.97,-2077.19 306,-2133.74 322.49,-2149.82 457.93,-2154.19 541.74,-2155.36"/>
<text text-anchor="middle" x="396.5" y="-2167.74" font-family="Helvetica,sans-Serif" font-size="10.00">itk::LabelOverlayImageFilter</text>
<text text-anchor="middle" x="396.5" y="-2156.74" font-family="Helvetica,sans-Serif" font-size="10.00">itk::LabelToRGBImageFilter</text>
</g>
<!-- Node1&#45;&gt;Node9 -->
<g id="edge8" class="edge">
<title>Node1&#45;&gt;Node9</title>
<path fill="none" stroke="orange" stroke-dasharray="5,2" d="M229.37,-1364.6C232.48,-1444.56 255.31,-1985.05 306,-2033.74 322.61,-2049.7 458.01,-2054.12 541.77,-2055.32"/>
<text text-anchor="start" x="329" y="-2122.74" font-family="Helvetica,sans-Serif" font-size="10.00">itk::BinaryThresholdImage</text>
<text text-anchor="middle" x="396.5" y="-2111.74" font-family="Helvetica,sans-Serif" font-size="10.00">Filter</text>
<text text-anchor="start" x="329" y="-2100.74" font-family="Helvetica,sans-Serif" font-size="10.00">itk::OtsuMultipleThresholds</text>
<text text-anchor="middle" x="396.5" y="-2089.74" font-family="Helvetica,sans-Serif" font-size="10.00">ImageFilter</text>
<text text-anchor="middle" x="396.5" y="-2078.74" font-family="Helvetica,sans-Serif" font-size="10.00">itk::ThresholdImageFilter</text>
<text text-anchor="start" x="329" y="-2067.74" font-family="Helvetica,sans-Serif" font-size="10.00">itk::ThresholdLabelerImage</text>
<text text-anchor="middle" x="396.5" y="-2056.74" font-family="Helvetica,sans-Serif" font-size="10.00">Filter</text>
</g>
<!-- Node1&#45;&gt;Node21 -->
<g id="edge20" class="edge">
<title>Node1&#45;&gt;Node21</title>
<path fill="none" stroke="orange" stroke-dasharray="5,2" d="M229.57,-1364.5C233.88,-1437.2 262.55,-1892.8 306,-1933.74 323.17,-1949.92 464.74,-1954.23 547.81,-1955.36"/>
<text text-anchor="middle" x="396.5" y="-2022.74" font-family="Helvetica,sans-Serif" font-size="10.00">itk::FlipImageFilter</text>
<text text-anchor="middle" x="396.5" y="-2011.74" font-family="Helvetica,sans-Serif" font-size="10.00">itk::InterpolateImageFilter</text>
<text text-anchor="start" x="327" y="-2000.74" font-family="Helvetica,sans-Serif" font-size="10.00">itk::InterpolateImagePoints</text>
<text text-anchor="middle" x="396.5" y="-1989.74" font-family="Helvetica,sans-Serif" font-size="10.00">Filter</text>
<text text-anchor="middle" x="396.5" y="-1978.74" font-family="Helvetica,sans-Serif" font-size="10.00">itk::PermuteAxesImageFilter</text>
<text text-anchor="middle" x="396.5" y="-1967.74" font-family="Helvetica,sans-Serif" font-size="10.00">itk::WarpImageFilter</text>
<text text-anchor="middle" x="396.5" y="-1956.74" font-family="Helvetica,sans-Serif" font-size="10.00">itk::WarpVectorImageFilter</text>
</g>
<!-- Node1&#45;&gt;Node23 -->
<g id="edge22" class="edge">
<title>Node1&#45;&gt;Node23</title>
<path fill="none" stroke="orange" stroke-dasharray="5,2" d="M228.83,-1364.67C227.88,-1431.38 226,-1814.19 306,-1888.74 322.39,-1904.02 450.91,-1908.71 534.93,-1910.13"/>
<text text-anchor="middle" x="396.5" y="-1922.74" font-family="Helvetica,sans-Serif" font-size="10.00">itk::JoinImageFilter</text>
<text text-anchor="middle" x="396.5" y="-1911.74" font-family="Helvetica,sans-Serif" font-size="10.00">itk::JoinSeriesImageFilter</text>
</g>
<!-- Node1&#45;&gt;Node12 -->
<g id="edge11" class="edge">
<title>Node1&#45;&gt;Node12</title>
<path fill="none" stroke="orange" stroke-dasharray="5,2" d="M229.22,-1364.41C230.78,-1422.08 241.85,-1720.14 306,-1777.74 323.09,-1793.09 457.57,-1797.74 541.21,-1799.14"/>
<text text-anchor="start" x="321" y="-1877.74" font-family="Helvetica,sans-Serif" font-size="10.00">itk::ContourDirectedMean</text>
<text text-anchor="middle" x="396.5" y="-1866.74" font-family="Helvetica,sans-Serif" font-size="10.00">DistanceImageFilter</text>
<text text-anchor="start" x="321" y="-1855.74" font-family="Helvetica,sans-Serif" font-size="10.00">itk::ContourMeanDistance</text>
<text text-anchor="middle" x="396.5" y="-1844.74" font-family="Helvetica,sans-Serif" font-size="10.00">ImageFilter</text>
<text text-anchor="start" x="321" y="-1833.74" font-family="Helvetica,sans-Serif" font-size="10.00">itk::DirectedHausdorffDistance</text>
<text text-anchor="middle" x="396.5" y="-1822.74" font-family="Helvetica,sans-Serif" font-size="10.00">ImageFilter</text>
<text text-anchor="start" x="321" y="-1811.74" font-family="Helvetica,sans-Serif" font-size="10.00">itk::HausdorffDistanceImage</text>
<text text-anchor="middle" x="396.5" y="-1800.74" font-family="Helvetica,sans-Serif" font-size="10.00">Filter</text>
</g>
<!-- Node1&#45;&gt;Node11 -->
<g id="edge10" class="edge">
<title>Node1&#45;&gt;Node11</title>
<path fill="none" stroke="orange" stroke-dasharray="5,2" d="M229.52,-1364.46C232.59,-1417.54 250.09,-1671.74 306,-1720.74 323.77,-1736.32 465.47,-1741.36 548.31,-1742.98"/>
<text text-anchor="start" x="334.5" y="-1765.74" font-family="Helvetica,sans-Serif" font-size="10.00">itk::Testing::Comparison</text>
<text text-anchor="middle" x="396.5" y="-1754.74" font-family="Helvetica,sans-Serif" font-size="10.00">ImageFilter</text>
<text text-anchor="middle" x="396.5" y="-1743.74" font-family="Helvetica,sans-Serif" font-size="10.00">itk::RandomImageSource</text>
</g>
<!-- Node1&#45;&gt;Node13 -->
<g id="edge12" class="edge">
<title>Node1&#45;&gt;Node13</title>
<path fill="none" stroke="orange" stroke-dasharray="5,2" d="M228.61,-1364.47C227.71,-1401.86 229.96,-1537.3 306,-1597.74 325.3,-1613.09 478.33,-1618.83 558.85,-1620.8"/>
<text text-anchor="middle" x="396.5" y="-1708.74" font-family="Helvetica,sans-Serif" font-size="10.00">itk::CurvatureFlowImageFilter</text>
<text text-anchor="middle" x="396.5" y="-1697.74" font-family="Helvetica,sans-Serif" font-size="10.00">itk::FlipImageFilter</text>
<text text-anchor="middle" x="396.5" y="-1686.74" font-family="Helvetica,sans-Serif" font-size="10.00">itk::JoinSeriesImageFilter</text>
<text text-anchor="start" x="323.5" y="-1675.74" font-family="Helvetica,sans-Serif" font-size="10.00">itk::MultiResolutionPyramid</text>
<text text-anchor="middle" x="396.5" y="-1664.74" font-family="Helvetica,sans-Serif" font-size="10.00">ImageFilter</text>
<text text-anchor="middle" x="396.5" y="-1653.74" font-family="Helvetica,sans-Serif" font-size="10.00">itk::PermuteAxesImageFilter</text>
<text text-anchor="start" x="323.5" y="-1642.74" font-family="Helvetica,sans-Serif" font-size="10.00">itk::RecursiveMultiResolution</text>
<text text-anchor="middle" x="396.5" y="-1631.74" font-family="Helvetica,sans-Serif" font-size="10.00">PyramidImageFilter</text>
<text text-anchor="middle" x="396.5" y="-1620.74" font-family="Helvetica,sans-Serif" font-size="10.00">itk::WarpImageFilter</text>
</g>
<!-- Node1&#45;&gt;Node20 -->
<g id="edge19" class="edge">
<title>Node1&#45;&gt;Node20</title>
<path fill="none" stroke="orange" stroke-dasharray="5,2" d="M230.25,-1364.65C234.53,-1394.02 251.5,-1480.88 306,-1518.74 324.5,-1531.6 453.39,-1538.44 536.7,-1541.56"/>
<text text-anchor="middle" x="396.5" y="-1585.74" font-family="Helvetica,sans-Serif" font-size="10.00">itk::FlipImageFilter</text>
<text text-anchor="middle" x="396.5" y="-1574.74" font-family="Helvetica,sans-Serif" font-size="10.00">itk::JoinSeriesImageFilter</text>
<text text-anchor="middle" x="396.5" y="-1563.74" font-family="Helvetica,sans-Serif" font-size="10.00">itk::PermuteAxesImageFilter</text>
<text text-anchor="middle" x="396.5" y="-1552.74" font-family="Helvetica,sans-Serif" font-size="10.00">itk::WarpImageFilter</text>
<text text-anchor="middle" x="396.5" y="-1541.74" font-family="Helvetica,sans-Serif" font-size="10.00">itk::WarpVectorImageFilter</text>
</g>
<!-- Node1&#45;&gt;Node4 -->
<g id="edge3" class="edge">
<title>Node1&#45;&gt;Node4</title>
<path fill="none" stroke="orange" stroke-dasharray="5,2" d="M286.95,-1364.3C293.37,-1365.2 299.82,-1366.04 306,-1366.74 384.61,-1375.72 475.16,-1381.74 536.45,-1385.19"/>
<text text-anchor="middle" x="396.5" y="-1506.74" font-family="Helvetica,sans-Serif" font-size="10.00">itk::AbsImageFilter</text>
<text text-anchor="middle" x="396.5" y="-1495.74" font-family="Helvetica,sans-Serif" font-size="10.00">itk::AcosImageFilter</text>
<text text-anchor="middle" x="396.5" y="-1484.74" font-family="Helvetica,sans-Serif" font-size="10.00">itk::AdaptImageFilter</text>
<text text-anchor="middle" x="396.5" y="-1473.74" font-family="Helvetica,sans-Serif" font-size="10.00">AddImageFilter</text>
<text text-anchor="middle" x="396.5" y="-1462.74" font-family="Helvetica,sans-Serif" font-size="10.00">itk::AndImageFilter</text>
<text text-anchor="middle" x="396.5" y="-1451.74" font-family="Helvetica,sans-Serif" font-size="10.00">itk::AsinImageFilter</text>
<text text-anchor="middle" x="396.5" y="-1440.74" font-family="Helvetica,sans-Serif" font-size="10.00">itk::Atan2ImageFilter</text>
<text text-anchor="middle" x="396.5" y="-1429.74" font-family="Helvetica,sans-Serif" font-size="10.00">itk::AtanImageFilter</text>
<text text-anchor="start" x="330" y="-1418.74" font-family="Helvetica,sans-Serif" font-size="10.00">itk::BinaryMagnitudeImage</text>
<text text-anchor="middle" x="396.5" y="-1407.74" font-family="Helvetica,sans-Serif" font-size="10.00">Filter</text>
<text text-anchor="middle" x="396.5" y="-1396.74" font-family="Helvetica,sans-Serif" font-size="10.00">itk::ClampImageFilter</text>
<text text-anchor="middle" x="396.5" y="-1385.74" font-family="Helvetica,sans-Serif" font-size="10.00">...</text>
</g>
<!-- Node1&#45;&gt;Node28 -->
<g id="edge27" class="edge">
<title>Node1&#45;&gt;Node28</title>
<path fill="none" stroke="orange" stroke-dasharray="5,2" d="M246.42,-1345.19C261.63,-1337.42 284.57,-1327.06 306,-1322.74 388.11,-1306.22 485.34,-1309.93 546.85,-1315.05"/>
<text text-anchor="start" x="324.5" y="-1358.74" font-family="Helvetica,sans-Serif" font-size="10.00">itk::MultiResolutionPyramid</text>
<text text-anchor="middle" x="396.5" y="-1347.74" font-family="Helvetica,sans-Serif" font-size="10.00">ImageFilter</text>
<text text-anchor="start" x="324.5" y="-1336.74" font-family="Helvetica,sans-Serif" font-size="10.00">itk::RecursiveMultiResolution</text>
<text text-anchor="middle" x="396.5" y="-1325.74" font-family="Helvetica,sans-Serif" font-size="10.00">PyramidImageFilter</text>
</g>
<!-- Node18 -->
<g id="node18" class="node">
<title>Node18</title>
<g id="a_node18"><a xlink:href="group__FourierTransform.html" target="_top" xlink:title=" ">
<polygon fill="white" stroke="black" points="658.5,-1198.24 559.5,-1198.24 559.5,-1179.24 658.5,-1179.24 658.5,-1198.24"/>
<text text-anchor="middle" x="609" y="-1186.24" font-family="Helvetica,sans-Serif" font-size="10.00">FourierTransform</text>
</a>
</g>
</g>
<!-- Node1&#45;&gt;Node18 -->
<g id="edge17" class="edge">
<title>Node1&#45;&gt;Node18</title>
<path fill="none" stroke="orange" stroke-dasharray="5,2" d="M230.28,-1345.04C234.66,-1316.33 251.86,-1231.59 306,-1196.74 346.57,-1170.63 484.84,-1177.92 559.4,-1184.09"/>
<text text-anchor="start" x="322.5" y="-1298.74" font-family="Helvetica,sans-Serif" font-size="10.00">itk::FFTWComplexToComplex</text>
<text text-anchor="middle" x="396.5" y="-1287.74" font-family="Helvetica,sans-Serif" font-size="10.00">FFTImageFilter</text>
<text text-anchor="start" x="322.5" y="-1276.74" font-family="Helvetica,sans-Serif" font-size="10.00">itk::FFTWForwardFFTImage</text>
<text text-anchor="middle" x="396.5" y="-1265.74" font-family="Helvetica,sans-Serif" font-size="10.00">Filter</text>
<text text-anchor="start" x="322.5" y="-1254.74" font-family="Helvetica,sans-Serif" font-size="10.00">itk::FFTWHalfHermitianTo</text>
<text text-anchor="middle" x="396.5" y="-1243.74" font-family="Helvetica,sans-Serif" font-size="10.00">RealInverseFFTImageFilter</text>
<text text-anchor="start" x="322.5" y="-1232.74" font-family="Helvetica,sans-Serif" font-size="10.00">itk::FFTWInverseFFTImage</text>
<text text-anchor="middle" x="396.5" y="-1221.74" font-family="Helvetica,sans-Serif" font-size="10.00">Filter</text>
<text text-anchor="start" x="322.5" y="-1210.74" font-family="Helvetica,sans-Serif" font-size="10.00">itk::FFTWRealToHalfHermitian</text>
<text text-anchor="middle" x="396.5" y="-1199.74" font-family="Helvetica,sans-Serif" font-size="10.00">ForwardFFTImageFilter</text>
</g>
<!-- Node19 -->
<g id="node19" class="node">
<title>Node19</title>
<g id="a_node19"><a xlink:href="group__ITKFFT.html" target="_top" xlink:title="This module provides interfaces to FFT implementations. In particular it provides the direct and inve...">
<polygon fill="white" stroke="black" points="653.5,-1065.24 564.5,-1065.24 564.5,-1046.24 653.5,-1046.24 653.5,-1065.24"/>
<text text-anchor="middle" x="609" y="-1053.24" font-family="Helvetica,sans-Serif" font-size="10.00">Module ITKFFT</text>
</a>
</g>
</g>
<!-- Node1&#45;&gt;Node19 -->
<g id="edge18" class="edge">
<title>Node1&#45;&gt;Node19</title>
<path fill="none" stroke="orange" stroke-dasharray="5,2" d="M230.02,-1345.24C235.18,-1299.33 259.88,-1101.32 306,-1064.74 344.79,-1033.98 490.55,-1043.69 564.46,-1050.91"/>
<text text-anchor="start" x="322.5" y="-1166.74" font-family="Helvetica,sans-Serif" font-size="10.00">itk::FFTWComplexToComplex</text>
<text text-anchor="middle" x="396.5" y="-1155.74" font-family="Helvetica,sans-Serif" font-size="10.00">FFTImageFilter</text>
<text text-anchor="start" x="322.5" y="-1144.74" font-family="Helvetica,sans-Serif" font-size="10.00">itk::FFTWForwardFFTImage</text>
<text text-anchor="middle" x="396.5" y="-1133.74" font-family="Helvetica,sans-Serif" font-size="10.00">Filter</text>
<text text-anchor="start" x="322.5" y="-1122.74" font-family="Helvetica,sans-Serif" font-size="10.00">itk::FFTWHalfHermitianTo</text>
<text text-anchor="middle" x="396.5" y="-1111.74" font-family="Helvetica,sans-Serif" font-size="10.00">RealInverseFFTImageFilter</text>
<text text-anchor="start" x="322.5" y="-1100.74" font-family="Helvetica,sans-Serif" font-size="10.00">itk::FFTWInverseFFTImage</text>
<text text-anchor="middle" x="396.5" y="-1089.74" font-family="Helvetica,sans-Serif" font-size="10.00">Filter</text>
<text text-anchor="start" x="322.5" y="-1078.74" font-family="Helvetica,sans-Serif" font-size="10.00">itk::FFTWRealToHalfHermitian</text>
<text text-anchor="middle" x="396.5" y="-1067.74" font-family="Helvetica,sans-Serif" font-size="10.00">ForwardFFTImageFilter</text>
</g>
<!-- Node6 -->
<g id="node20" class="node">
<title>Node6</title>
<g id="a_node20"><a xlink:href="group__ITKImageFilterBase.html" target="_top" xlink:title="This module contains the base classes that support image filters. For the most part,...">
<polygon fill="white" stroke="black" points="684.5,-934.24 533.5,-934.24 533.5,-915.24 684.5,-915.24 684.5,-934.24"/>
<text text-anchor="middle" x="609" y="-922.24" font-family="Helvetica,sans-Serif" font-size="10.00">Module ITKImageFilterBase</text>
</a>
</g>
</g>
<!-- Node1&#45;&gt;Node6 -->
<g id="edge5" class="edge">
<title>Node1&#45;&gt;Node6</title>
<path fill="none" stroke="orange" stroke-dasharray="5,2" d="M229.17,-1344.98C230.41,-1286.74 239.99,-985.81 306,-929.74 338.97,-901.74 454.9,-907.76 533.15,-915.57"/>
<text text-anchor="middle" x="396.5" y="-1031.74" font-family="Helvetica,sans-Serif" font-size="10.00">itk::BinaryFunctorImageFilter</text>
<text text-anchor="start" x="325.5" y="-1020.74" font-family="Helvetica,sans-Serif" font-size="10.00">itk::BinaryGeneratorImage</text>
<text text-anchor="middle" x="396.5" y="-1009.74" font-family="Helvetica,sans-Serif" font-size="10.00">Filter</text>
<text text-anchor="middle" x="396.5" y="-998.74" font-family="Helvetica,sans-Serif" font-size="10.00">itk::CastImageFilter</text>
<text text-anchor="start" x="325.5" y="-987.74" font-family="Helvetica,sans-Serif" font-size="10.00">itk::TernaryFunctorImage</text>
<text text-anchor="middle" x="396.5" y="-976.74" font-family="Helvetica,sans-Serif" font-size="10.00">Filter</text>
<text text-anchor="start" x="325.5" y="-965.74" font-family="Helvetica,sans-Serif" font-size="10.00">itk::TernaryGeneratorImage</text>
<text text-anchor="middle" x="396.5" y="-954.74" font-family="Helvetica,sans-Serif" font-size="10.00">Filter</text>
<text text-anchor="start" x="325.5" y="-943.74" font-family="Helvetica,sans-Serif" font-size="10.00">itk::UnaryGeneratorImage</text>
<text text-anchor="middle" x="396.5" y="-932.74" font-family="Helvetica,sans-Serif" font-size="10.00">Filter</text>
</g>
<!-- Node32 -->
<g id="node22" class="node">
<title>Node32</title>
<g id="a_node22"><a xlink:href="group__ITKCommon.html" target="_top" xlink:title="This module contains the central classes of the ITK toolkit. They include, basic data structures (suc...">
<polygon fill="white" stroke="black" points="666.5,-897.24 551.5,-897.24 551.5,-878.24 666.5,-878.24 666.5,-897.24"/>
<text text-anchor="middle" x="609" y="-885.24" font-family="Helvetica,sans-Serif" font-size="10.00">Module ITKCommon</text>
</a>
</g>
</g>
<!-- Node1&#45;&gt;Node32 -->
<g id="edge31" class="edge">
<title>Node1&#45;&gt;Node32</title>
<path fill="none" stroke="orange" stroke-dasharray="5,2" d="M229.03,-1345C229.45,-1284.07 235.02,-956.26 306,-894.74 341.37,-864.09 474.24,-872.78 551.45,-880.85"/>
<text text-anchor="middle" x="396.5" y="-897.74" font-family="Helvetica,sans-Serif" font-size="10.00">itk::UnaryFunctorImageFilter</text>
</g>
<!-- Node31 -->
<g id="node23" class="node">
<title>Node31</title>
<g id="a_node23"><a xlink:href="group__ITKColormap.html" target="_top" xlink:title="This module contains filter/functions for converting grayscale images to colormapped rgb images.">
<polygon fill="white" stroke="black" points="668,-853.24 550,-853.24 550,-834.24 668,-834.24 668,-853.24"/>
<text text-anchor="middle" x="609" y="-841.24" font-family="Helvetica,sans-Serif" font-size="10.00">Module ITKColormap</text>
</a>
</g>
</g>
<!-- Node1&#45;&gt;Node31 -->
<g id="edge30" class="edge">
<title>Node1&#45;&gt;Node31</title>
<path fill="none" stroke="orange" stroke-dasharray="5,2" d="M228.86,-1344.85C228.16,-1279.98 227.79,-915.87 306,-847.74 341.04,-817.22 472.33,-827.05 549.8,-835.98"/>
<text text-anchor="start" x="332.5" y="-861.74" font-family="Helvetica,sans-Serif" font-size="10.00">itk::ScalarToRGBColormap</text>
<text text-anchor="middle" x="396.5" y="-850.74" font-family="Helvetica,sans-Serif" font-size="10.00">ImageFilter</text>
</g>
<!-- Node26 -->
<g id="node24" class="node">
<title>Node26</title>
<g id="a_node24"><a xlink:href="group__GradientFilters.html" target="_top" xlink:title=" ">
<polygon fill="white" stroke="black" points="671.5,-808.24 546.5,-808.24 546.5,-789.24 671.5,-789.24 671.5,-808.24"/>
<text text-anchor="middle" x="609" y="-796.24" font-family="Helvetica,sans-Serif" font-size="10.00">Image Gradient Filters</text>
</a>
</g>
</g>
<!-- Node1&#45;&gt;Node26 -->
<g id="edge25" class="edge">
<title>Node1&#45;&gt;Node26</title>
<path fill="none" stroke="orange" stroke-dasharray="5,2" d="M229.61,-1344.95C234.1,-1273.91 263.23,-839.35 306,-801.74 340.41,-771.49 468.56,-781.14 546.44,-790.32"/>
<text text-anchor="start" x="317" y="-815.74" font-family="Helvetica,sans-Serif" font-size="10.00">itk::LaplacianRecursiveGaussian</text>
<text text-anchor="middle" x="396.5" y="-804.74" font-family="Helvetica,sans-Serif" font-size="10.00">ImageFilter</text>
</g>
<!-- Node14 -->
<g id="node25" class="node">
<title>Node14</title>
<g id="a_node25"><a xlink:href="group__DeformableImageRegistration.html" target="_top" xlink:title=" ">
<polygon fill="white" stroke="black" points="677.5,-647.74 540.5,-647.74 540.5,-617.74 677.5,-617.74 677.5,-647.74"/>
<text text-anchor="start" x="548.5" y="-635.74" font-family="Helvetica,sans-Serif" font-size="10.00">Deformable Registration</text>
<text text-anchor="middle" x="609" y="-624.74" font-family="Helvetica,sans-Serif" font-size="10.00"> Methods</text>
</a>
</g>
</g>
<!-- Node1&#45;&gt;Node14 -->
<g id="edge13" class="edge">
<title>Node1&#45;&gt;Node14</title>
<path fill="none" stroke="orange" stroke-dasharray="5,2" d="M229.27,-1345.05C231.69,-1262.89 250.59,-684.88 306,-634.74 339.1,-604.8 461.74,-613.8 540.19,-623.19"/>
<text text-anchor="start" x="319.5" y="-769.74" font-family="Helvetica,sans-Serif" font-size="10.00">itk::CurvatureRegistration</text>
<text text-anchor="middle" x="396.5" y="-758.74" font-family="Helvetica,sans-Serif" font-size="10.00">Filter</text>
<text text-anchor="middle" x="396.5" y="-747.74" font-family="Helvetica,sans-Serif" font-size="10.00">itk::DemonsRegistrationFilter</text>
<text text-anchor="start" x="319.5" y="-736.74" font-family="Helvetica,sans-Serif" font-size="10.00">itk::DiffeomorphicDemons</text>
<text text-anchor="middle" x="396.5" y="-725.74" font-family="Helvetica,sans-Serif" font-size="10.00">RegistrationFilter</text>
<text text-anchor="start" x="319.5" y="-714.74" font-family="Helvetica,sans-Serif" font-size="10.00">itk::FastSymmetricForces</text>
<text text-anchor="middle" x="396.5" y="-703.74" font-family="Helvetica,sans-Serif" font-size="10.00">DemonsRegistrationFilter</text>
<text text-anchor="start" x="319.5" y="-692.74" font-family="Helvetica,sans-Serif" font-size="10.00">itk::GPUDemonsRegistration</text>
<text text-anchor="middle" x="396.5" y="-681.74" font-family="Helvetica,sans-Serif" font-size="10.00">Filter</text>
<text text-anchor="start" x="319.5" y="-670.74" font-family="Helvetica,sans-Serif" font-size="10.00">itk::LevelSetMotionRegistration</text>
<text text-anchor="middle" x="396.5" y="-659.74" font-family="Helvetica,sans-Serif" font-size="10.00">Filter</text>
<text text-anchor="start" x="319.5" y="-648.74" font-family="Helvetica,sans-Serif" font-size="10.00">itk::SymmetricForcesDemons</text>
<text text-anchor="middle" x="396.5" y="-637.74" font-family="Helvetica,sans-Serif" font-size="10.00">RegistrationFilter</text>
</g>
<!-- Node16 -->
<g id="node26" class="node">
<title>Node16</title>
<g id="a_node26"><a xlink:href="group__TensorObjects.html" target="_top" xlink:title="Objects required for representing diffusion tensor images in ITK.">
<polygon fill="white" stroke="black" points="670,-511.24 548,-511.24 548,-492.24 670,-492.24 670,-511.24"/>
<text text-anchor="middle" x="609" y="-499.24" font-family="Helvetica,sans-Serif" font-size="10.00">Tensor Image Objects</text>
</a>
</g>
</g>
<!-- Node1&#45;&gt;Node16 -->
<g id="edge15" class="edge">
<title>Node1&#45;&gt;Node16</title>
<path fill="none" stroke="orange" stroke-dasharray="5,2" d="M229.1,-1345.03C230.15,-1254.51 240.27,-560.81 306,-500.74 340.06,-469.62 470.03,-481.76 547.93,-492.39"/>
<text text-anchor="start" x="306" y="-602.74" font-family="Helvetica,sans-Serif" font-size="10.00">itk::DiffusionTensor3DReconstruction</text>
<text text-anchor="middle" x="396.5" y="-591.74" font-family="Helvetica,sans-Serif" font-size="10.00">ImageFilter</text>
<text text-anchor="start" x="306" y="-580.74" font-family="Helvetica,sans-Serif" font-size="10.00">itk::SymmetricEigenAnalysis</text>
<text text-anchor="middle" x="396.5" y="-569.74" font-family="Helvetica,sans-Serif" font-size="10.00">FixedDimensionImageFilter</text>
<text text-anchor="start" x="306" y="-558.74" font-family="Helvetica,sans-Serif" font-size="10.00">itk::SymmetricEigenAnalysis</text>
<text text-anchor="middle" x="396.5" y="-547.74" font-family="Helvetica,sans-Serif" font-size="10.00">ImageFilter</text>
<text text-anchor="start" x="306" y="-536.74" font-family="Helvetica,sans-Serif" font-size="10.00">itk::TensorFractionalAnisotropy</text>
<text text-anchor="middle" x="396.5" y="-525.74" font-family="Helvetica,sans-Serif" font-size="10.00">ImageFilter</text>
<text text-anchor="start" x="306" y="-514.74" font-family="Helvetica,sans-Serif" font-size="10.00">itk::TensorRelativeAnisotropy</text>
<text text-anchor="middle" x="396.5" y="-503.74" font-family="Helvetica,sans-Serif" font-size="10.00">ImageFilter</text>
</g>
<!-- Node30 -->
<g id="node27" class="node">
<title>Node30</title>
<g id="a_node27"><a xlink:href="group__DataSources.html" target="_top" xlink:title=" ">
<polygon fill="white" stroke="black" points="649.5,-474.24 568.5,-474.24 568.5,-455.24 649.5,-455.24 649.5,-474.24"/>
<text text-anchor="middle" x="609" y="-462.24" font-family="Helvetica,sans-Serif" font-size="10.00">Data Sources</text>
</a>
</g>
</g>
<!-- Node1&#45;&gt;Node30 -->
<g id="edge29" class="edge">
<title>Node1&#45;&gt;Node30</title>
<path fill="none" stroke="orange" stroke-dasharray="5,2" d="M229.07,-1345.22C229.81,-1253.57 237.85,-529.66 306,-466.74 343.08,-432.51 495.16,-448.63 568.32,-458.73"/>
<text text-anchor="middle" x="396.5" y="-469.74" font-family="Helvetica,sans-Serif" font-size="10.00">itk::RandomImageSource</text>
</g>
<!-- Node29 -->
<g id="node28" class="node">
<title>Node29</title>
<g id="a_node28"><a xlink:href="group__ITKRegistrationCommon.html" target="_top" xlink:title="This module contains classes to perform registration within the default ITK registration framework....">
<polygon fill="white" stroke="black" points="696.5,-408.24 521.5,-408.24 521.5,-389.24 696.5,-389.24 696.5,-408.24"/>
<text text-anchor="middle" x="609" y="-396.24" font-family="Helvetica,sans-Serif" font-size="10.00">Module ITKRegistrationCommon</text>
</a>
</g>
</g>
<!-- Node1&#45;&gt;Node29 -->
<g id="edge28" class="edge">
<title>Node1&#45;&gt;Node29</title>
<path fill="none" stroke="orange" stroke-dasharray="5,2" d="M229,-1345.1C229.14,-1249.07 232.5,-466.56 306,-398.74 339.52,-367.81 466.99,-378.93 545.21,-389.22"/>
<text text-anchor="start" x="324.5" y="-434.74" font-family="Helvetica,sans-Serif" font-size="10.00">itk::MultiResolutionPyramid</text>
<text text-anchor="middle" x="396.5" y="-423.74" font-family="Helvetica,sans-Serif" font-size="10.00">ImageFilter</text>
<text text-anchor="start" x="324.5" y="-412.74" font-family="Helvetica,sans-Serif" font-size="10.00">itk::RecursiveMultiResolution</text>
<text text-anchor="middle" x="396.5" y="-401.74" font-family="Helvetica,sans-Serif" font-size="10.00">PyramidImageFilter</text>
</g>
<!-- Node7 -->
<g id="node29" class="node">
<title>Node7</title>
<g id="a_node29"><a xlink:href="group__ITKCurvatureFlow.html" target="_top" xlink:title="This module contains filters that implement variations of Curvature Flow. This is a technique that us...">
<polygon fill="white" stroke="black" points="680,-332.24 538,-332.24 538,-313.24 680,-313.24 680,-332.24"/>
<text text-anchor="middle" x="609" y="-320.24" font-family="Helvetica,sans-Serif" font-size="10.00">Module ITKCurvatureFlow</text>
</a>
</g>
</g>
<!-- Node1&#45;&gt;Node7 -->
<g id="edge6" class="edge">
<title>Node1&#45;&gt;Node7</title>
<path fill="none" stroke="orange" stroke-dasharray="5,2" d="M228.94,-1344.95C228.43,-1243.9 226.52,-393.53 306,-319.74 340.2,-287.99 472.85,-301.85 550.5,-313.24"/>
<text text-anchor="start" x="323.5" y="-366.74" font-family="Helvetica,sans-Serif" font-size="10.00">itk::BinaryMinMaxCurvature</text>
<text text-anchor="middle" x="396.5" y="-355.74" font-family="Helvetica,sans-Serif" font-size="10.00">FlowImageFilter</text>
<text text-anchor="middle" x="396.5" y="-344.74" font-family="Helvetica,sans-Serif" font-size="10.00">itk::CurvatureFlowImageFilter</text>
<text text-anchor="start" x="323.5" y="-333.74" font-family="Helvetica,sans-Serif" font-size="10.00">itk::MinMaxCurvatureFlow</text>
<text text-anchor="middle" x="396.5" y="-322.74" font-family="Helvetica,sans-Serif" font-size="10.00">ImageFilter</text>
</g>
<!-- Node8 -->
<g id="node30" class="node">
<title>Node8</title>
<g id="a_node30"><a xlink:href="group__ITKLabelMap.html" target="_top" xlink:title="This module contains the infrastructure to store the label images in an efficient and convenient way,...">
<polygon fill="white" stroke="black" points="668.5,-295.24 549.5,-295.24 549.5,-276.24 668.5,-276.24 668.5,-295.24"/>
<text text-anchor="middle" x="609" y="-283.24" font-family="Helvetica,sans-Serif" font-size="10.00">Module ITKLabelMap</text>
</a>
</g>
</g>
<!-- Node1&#45;&gt;Node8 -->
<g id="edge7" class="edge">
<title>Node1&#45;&gt;Node8</title>
<path fill="none" stroke="orange" stroke-dasharray="5,2" d="M228.92,-1344.95C228.14,-1242.09 223.93,-362.12 306,-285.74 339.97,-254.13 471.33,-266.23 549.18,-276.71"/>
<text text-anchor="middle" x="396.5" y="-288.74" font-family="Helvetica,sans-Serif" font-size="10.00">itk::BinaryNotImageFilter</text>
</g>
<!-- Node15 -->
<g id="node31" class="node">
<title>Node15</title>
<g id="a_node31"><a xlink:href="group__ITKPDEDeformableRegistration.html" target="_top" xlink:title="This module contains classes for deformable image registration based on intensity differences by solv...">
<polygon fill="white" stroke="black" points="713,-152.24 505,-152.24 505,-133.24 713,-133.24 713,-152.24"/>
<text text-anchor="middle" x="609" y="-140.24" font-family="Helvetica,sans-Serif" font-size="10.00">Module ITKPDEDeformableRegistration</text>
</a>
</g>
</g>
<!-- Node1&#45;&gt;Node15 -->
<g id="edge14" class="edge">
<title>Node1&#45;&gt;Node15</title>
<path fill="none" stroke="orange" stroke-dasharray="5,2" d="M229.24,-1344.99C232.04,-1232.54 259.37,-184.51 306,-140.74 339.83,-108.99 471.25,-122.1 549.14,-133.22"/>
<text text-anchor="start" x="319.5" y="-253.74" font-family="Helvetica,sans-Serif" font-size="10.00">itk::CurvatureRegistration</text>
<text text-anchor="middle" x="396.5" y="-242.74" font-family="Helvetica,sans-Serif" font-size="10.00">Filter</text>
<text text-anchor="middle" x="396.5" y="-231.74" font-family="Helvetica,sans-Serif" font-size="10.00">itk::DemonsRegistrationFilter</text>
<text text-anchor="start" x="319.5" y="-220.74" font-family="Helvetica,sans-Serif" font-size="10.00">itk::DiffeomorphicDemons</text>
<text text-anchor="middle" x="396.5" y="-209.74" font-family="Helvetica,sans-Serif" font-size="10.00">RegistrationFilter</text>
<text text-anchor="start" x="319.5" y="-198.74" font-family="Helvetica,sans-Serif" font-size="10.00">itk::FastSymmetricForces</text>
<text text-anchor="middle" x="396.5" y="-187.74" font-family="Helvetica,sans-Serif" font-size="10.00">DemonsRegistrationFilter</text>
<text text-anchor="start" x="319.5" y="-176.74" font-family="Helvetica,sans-Serif" font-size="10.00">itk::LevelSetMotionRegistration</text>
<text text-anchor="middle" x="396.5" y="-165.74" font-family="Helvetica,sans-Serif" font-size="10.00">Filter</text>
<text text-anchor="start" x="319.5" y="-154.74" font-family="Helvetica,sans-Serif" font-size="10.00">itk::SymmetricForcesDemons</text>
<text text-anchor="middle" x="396.5" y="-143.74" font-family="Helvetica,sans-Serif" font-size="10.00">RegistrationFilter</text>
</g>
<!-- Node5 -->
<g id="node32" class="node">
<title>Node5</title>
<g id="a_node32"><a xlink:href="group__ITKImageCompare.html" target="_top" xlink:title="This modules provides classes for comparing images. They are typically used for comparing two images ...">
<polygon fill="white" stroke="black" points="682,-52.24 536,-52.24 536,-33.24 682,-33.24 682,-52.24"/>
<text text-anchor="middle" x="609" y="-40.24" font-family="Helvetica,sans-Serif" font-size="10.00">Module ITKImageCompare</text>
</a>
</g>
</g>
<!-- Node1&#45;&gt;Node5 -->
<g id="edge4" class="edge">
<title>Node1&#45;&gt;Node5</title>
<path fill="none" stroke="orange" stroke-dasharray="5,2" d="M229.19,-1344.93C231.54,-1227.17 255.56,-88.32 306,-40.74 383.43,32.28 527.96,-11.76 584.48,-33.13"/>
<text text-anchor="start" x="325.5" y="-109.74" font-family="Helvetica,sans-Serif" font-size="10.00">itk::AbsoluteValueDifference</text>
<text text-anchor="middle" x="396.5" y="-98.74" font-family="Helvetica,sans-Serif" font-size="10.00">ImageFilter</text>
<text text-anchor="middle" x="396.5" y="-87.74" font-family="Helvetica,sans-Serif" font-size="10.00">itk::CheckerBoardImageFilter</text>
<text text-anchor="start" x="325.5" y="-76.74" font-family="Helvetica,sans-Serif" font-size="10.00">itk::SimilarityIndexImage</text>
<text text-anchor="middle" x="396.5" y="-65.74" font-family="Helvetica,sans-Serif" font-size="10.00">Filter</text>
<text text-anchor="start" x="325.5" y="-54.74" font-family="Helvetica,sans-Serif" font-size="10.00">itk::SquaredDifferenceImage</text>
<text text-anchor="middle" x="396.5" y="-43.74" font-family="Helvetica,sans-Serif" font-size="10.00">Filter</text>
</g>
<!-- Node2 -->
<g id="node21" class="node">
<title>Node2</title>
<g id="a_node21"><a xlink:href="group__MultiThreadingGroup.html" target="_top" xlink:title="Filters classified according to their support for performing processing in multiple threads.">
<polygon fill="white" stroke="black" points="131,-1364.24 0,-1364.24 0,-1345.24 131,-1345.24 131,-1364.24"/>
<text text-anchor="middle" x="65.5" y="-1352.24" font-family="Helvetica,sans-Serif" font-size="10.00">MultiThreading Support</text>
</a>
</g>
</g>
<!-- Node2&#45;&gt;Node1 -->
<g id="edge1" class="edge">
<title>Node2&#45;&gt;Node1</title>
<path fill="none" stroke="black" d="M141.32,-1354.74C150.24,-1354.74 159.25,-1354.74 167.9,-1354.74"/>
<polygon fill="black" stroke="black" points="141.32,-1351.24 131.32,-1354.74 141.32,-1358.24 141.32,-1351.24"/>
</g>
</g>
</svg>
