<?xml version="1.0" encoding="UTF-8" standalone="no"?>
<!DOCTYPE svg PUBLIC "-//W3C//DTD SVG 1.1//EN"
 "http://www.w3.org/Graphics/SVG/1.1/DTD/svg11.dtd">
<!-- Generated by graphviz version 2.43.0 (0)
 -->
<!-- Title: Mesh Segmentation Filters Pages: 1 -->
<svg width="717pt" height="78pt"
 viewBox="0.00 0.00 717.00 77.50" xmlns="http://www.w3.org/2000/svg" xmlns:xlink="http://www.w3.org/1999/xlink">
<g id="graph0" class="graph" transform="scale(1 1) rotate(0) translate(4 73.5)">
<title>Mesh Segmentation Filters</title>
<polygon fill="white" stroke="transparent" points="-4,4 -4,-73.5 713,-73.5 713,4 -4,4"/>
<!-- Node1 -->
<g id="node1" class="node">
<title>Node1</title>
<g id="a_node1"><a xlink:title=" ">
<polygon fill="#bfbfbf" stroke="black" points="369,-41 222,-41 222,-22 369,-22 369,-41"/>
<text text-anchor="middle" x="295.5" y="-29" font-family="Helvetica,sans-Serif" font-size="10.00">Mesh Segmentation Filters</text>
</a>
</g>
</g>
<!-- Node4 -->
<g id="node2" class="node">
<title>Node4</title>
<g id="a_node2"><a xlink:href="group__ITKDeformableMesh.html" target="_top" xlink:title="This module contains classes to perform image segmentation by a deformable mesh that experiences a va...">
<polygon fill="white" stroke="black" points="709,-64 554,-64 554,-45 709,-45 709,-64"/>
<text text-anchor="middle" x="631.5" y="-52" font-family="Helvetica,sans-Serif" font-size="10.00">Module ITKDeformableMesh</text>
</a>
</g>
</g>
<!-- Node1&#45;&gt;Node4 -->
<g id="edge3" class="edge">
<title>Node1&#45;&gt;Node4</title>
<path fill="none" stroke="orange" stroke-dasharray="5,2" d="M369.38,-36.52C423.99,-40.28 498.54,-45.41 554,-49.23"/>
<text text-anchor="start" x="387" y="-61.5" font-family="Helvetica,sans-Serif" font-size="10.00">itk::DeformableSimplexMesh3</text>
<text text-anchor="middle" x="461.5" y="-50.5" font-family="Helvetica,sans-Serif" font-size="10.00">DFilter</text>
</g>
<!-- Node3 -->
<g id="node3" class="node">
<title>Node3</title>
<g id="a_node3"><a xlink:href="group__MeshFilters.html" target="_top" xlink:title=" ">
<polygon fill="white" stroke="black" points="669.5,-19 593.5,-19 593.5,0 669.5,0 669.5,-19"/>
<text text-anchor="middle" x="631.5" y="-7" font-family="Helvetica,sans-Serif" font-size="10.00">Mesh Filters</text>
</a>
</g>
</g>
<!-- Node1&#45;&gt;Node3 -->
<g id="edge2" class="edge">
<title>Node1&#45;&gt;Node3</title>
<path fill="none" stroke="orange" stroke-dasharray="5,2" d="M329.71,-21.91C346.69,-17.5 367.78,-12.74 387,-10.5 459.64,-2.03 545.31,-4.55 593.22,-7.08"/>
<text text-anchor="start" x="387" y="-24.5" font-family="Helvetica,sans-Serif" font-size="10.00">itk::DeformableSimplexMesh3</text>
<text text-anchor="middle" x="461.5" y="-13.5" font-family="Helvetica,sans-Serif" font-size="10.00">DFilter</text>
</g>
<!-- Node2 -->
<g id="node4" class="node">
<title>Node2</title>
<g id="a_node4"><a xlink:href="group__ModelImageSegmentation.html" target="_top" xlink:title=" ">
<polygon fill="white" stroke="black" points="185,-46.5 0,-46.5 0,-16.5 185,-16.5 185,-46.5"/>
<text text-anchor="start" x="8" y="-34.5" font-family="Helvetica,sans-Serif" font-size="10.00">Model&#45;Based Image Segmentation</text>
<text text-anchor="middle" x="92.5" y="-23.5" font-family="Helvetica,sans-Serif" font-size="10.00"> Filters</text>
</a>
</g>
</g>
<!-- Node2&#45;&gt;Node1 -->
<g id="edge1" class="edge">
<title>Node2&#45;&gt;Node1</title>
<path fill="none" stroke="black" d="M195.31,-31.5C204.29,-31.5 213.26,-31.5 221.93,-31.5"/>
<polygon fill="black" stroke="black" points="195.18,-28 185.18,-31.5 195.18,-35 195.18,-28"/>
</g>
</g>
</svg>
