<?xml version="1.0" encoding="UTF-8" standalone="no"?>
<!DOCTYPE svg PUBLIC "-//W3C//DTD SVG 1.1//EN"
 "http://www.w3.org/Graphics/SVG/1.1/DTD/svg11.dtd">
<!-- Generated by graphviz version 2.43.0 (0)
 -->
<!-- Title: Image Representation Objects Pages: 1 -->
<svg width="469pt" height="553pt"
 viewBox="0.00 0.00 469.00 552.58" xmlns="http://www.w3.org/2000/svg" xmlns:xlink="http://www.w3.org/1999/xlink">
<g id="graph0" class="graph" transform="scale(1 1) rotate(0) translate(4 548.58)">
<title>Image Representation Objects</title>
<polygon fill="white" stroke="transparent" points="-4,4 -4,-548.58 465,-548.58 465,4 -4,4"/>
<!-- Node1 -->
<g id="node1" class="node">
<title>Node1</title>
<g id="a_node1"><a xlink:title=" ">
<polygon fill="#bfbfbf" stroke="black" points="125,-315.58 0,-315.58 0,-285.58 125,-285.58 125,-315.58"/>
<text text-anchor="start" x="8" y="-303.58" font-family="Helvetica,sans-Serif" font-size="10.00">Image Representation</text>
<text text-anchor="middle" x="62.5" y="-292.58" font-family="Helvetica,sans-Serif" font-size="10.00"> Objects</text>
</a>
</g>
</g>
<!-- Node2 -->
<g id="node2" class="node">
<title>Node2</title>
<g id="a_node2"><a xlink:href="group__DataRepresentation.html" target="_top" xlink:title="ITK includes several data representation objects such as itk::Image, itk::Mesh, itk::Point,...">
<polygon fill="white" stroke="black" points="448,-467.58 331,-467.58 331,-437.58 448,-437.58 448,-467.58"/>
<text text-anchor="start" x="339" y="-455.58" font-family="Helvetica,sans-Serif" font-size="10.00">Data Representation</text>
<text text-anchor="middle" x="389.5" y="-444.58" font-family="Helvetica,sans-Serif" font-size="10.00"> Objects</text>
</a>
</g>
</g>
<!-- Node1&#45;&gt;Node2 -->
<g id="edge2" class="edge">
<title>Node1&#45;&gt;Node2</title>
<path fill="none" stroke="orange" stroke-dasharray="5,2" d="M67.2,-315.98C75.23,-345.69 97.34,-410.42 143,-438.58 199.51,-473.42 277.95,-471.1 330.82,-463.91"/>
<text text-anchor="middle" x="221.5" y="-536.58" font-family="Helvetica,sans-Serif" font-size="10.00">itk::BoundingBox</text>
<text text-anchor="middle" x="221.5" y="-525.58" font-family="Helvetica,sans-Serif" font-size="10.00">itk::ConstantBoundaryCondition</text>
<text text-anchor="middle" x="221.5" y="-514.58" font-family="Helvetica,sans-Serif" font-size="10.00">itk::ImageBoundaryCondition</text>
<text text-anchor="middle" x="221.5" y="-503.58" font-family="Helvetica,sans-Serif" font-size="10.00">itk::PeriodicBoundaryCondition</text>
<text text-anchor="middle" x="221.5" y="-492.58" font-family="Helvetica,sans-Serif" font-size="10.00">itk::ValarrayImageContainer</text>
<text text-anchor="start" x="143" y="-481.58" font-family="Helvetica,sans-Serif" font-size="10.00">itk::ZeroFluxNeumannBoundary</text>
<text text-anchor="middle" x="221.5" y="-470.58" font-family="Helvetica,sans-Serif" font-size="10.00">Condition</text>
</g>
<!-- Node7 -->
<g id="node3" class="node">
<title>Node7</title>
<g id="a_node3"><a xlink:href="group__ITKSystemObjects.html" target="_top" xlink:title=" ">
<polygon fill="white" stroke="black" points="445.5,-411.08 333.5,-411.08 333.5,-392.08 445.5,-392.08 445.5,-411.08"/>
<text text-anchor="middle" x="389.5" y="-399.08" font-family="Helvetica,sans-Serif" font-size="10.00">ITK System Objects</text>
</a>
</g>
</g>
<!-- Node1&#45;&gt;Node7 -->
<g id="edge7" class="edge">
<title>Node1&#45;&gt;Node7</title>
<path fill="none" stroke="orange" stroke-dasharray="5,2" d="M74.11,-315.84C87.73,-334.06 113.18,-363.78 143,-377.58 175.69,-392.71 271.46,-398.32 333.26,-400.38"/>
<text text-anchor="middle" x="221.5" y="-401.58" font-family="Helvetica,sans-Serif" font-size="10.00">itk::ImageBase</text>
</g>
<!-- Node6 -->
<g id="node4" class="node">
<title>Node6</title>
<g id="a_node4"><a xlink:href="group__Geometry.html" target="_top" xlink:title=" ">
<polygon fill="white" stroke="black" points="461,-360.58 318,-360.58 318,-330.58 461,-330.58 461,-360.58"/>
<text text-anchor="start" x="326" y="-348.58" font-family="Helvetica,sans-Serif" font-size="10.00">Geometry Representation</text>
<text text-anchor="middle" x="389.5" y="-337.58" font-family="Helvetica,sans-Serif" font-size="10.00"> Objects</text>
</a>
</g>
</g>
<!-- Node1&#45;&gt;Node6 -->
<g id="edge6" class="edge">
<title>Node1&#45;&gt;Node6</title>
<path fill="none" stroke="orange" stroke-dasharray="5,2" d="M109.8,-315.59C120.6,-318.64 132.13,-321.54 143,-323.58 201.36,-334.53 268.57,-340.07 317.9,-342.85"/>
<text text-anchor="middle" x="221.5" y="-365.58" font-family="Helvetica,sans-Serif" font-size="10.00">itk::DiffusionTensor3D</text>
<text text-anchor="start" x="155" y="-354.58" font-family="Helvetica,sans-Serif" font-size="10.00">itk::SymmetricSecondRank</text>
<text text-anchor="middle" x="221.5" y="-343.58" font-family="Helvetica,sans-Serif" font-size="10.00">Tensor</text>
</g>
<!-- Node4 -->
<g id="node5" class="node">
<title>Node4</title>
<g id="a_node5"><a xlink:href="group__ImageAccess.html" target="_top" xlink:title=" ">
<polygon fill="white" stroke="black" points="451.5,-310.08 327.5,-310.08 327.5,-291.08 451.5,-291.08 451.5,-310.08"/>
<text text-anchor="middle" x="389.5" y="-298.08" font-family="Helvetica,sans-Serif" font-size="10.00">Image Access Objects</text>
</a>
</g>
</g>
<!-- Node1&#45;&gt;Node4 -->
<g id="edge4" class="edge">
<title>Node1&#45;&gt;Node4</title>
<path fill="none" stroke="orange" stroke-dasharray="5,2" d="M125.01,-300.58C182.98,-300.58 269.35,-300.58 327.24,-300.58"/>
<text text-anchor="middle" x="221.5" y="-314.58" font-family="Helvetica,sans-Serif" font-size="10.00">itk::ContinuousIndex</text>
<text text-anchor="middle" x="221.5" y="-303.58" font-family="Helvetica,sans-Serif" font-size="10.00">itk::Index</text>
</g>
<!-- Node3 -->
<g id="node6" class="node">
<title>Node3</title>
<g id="a_node6"><a xlink:href="group__ITKCommon.html" target="_top" xlink:title="This module contains the central classes of the ITK toolkit. They include, basic data structures (suc...">
<polygon fill="white" stroke="black" points="447,-166.08 332,-166.08 332,-147.08 447,-147.08 447,-166.08"/>
<text text-anchor="middle" x="389.5" y="-154.08" font-family="Helvetica,sans-Serif" font-size="10.00">Module ITKCommon</text>
</a>
</g>
</g>
<!-- Node1&#45;&gt;Node3 -->
<g id="edge3" class="edge">
<title>Node1&#45;&gt;Node3</title>
<path fill="none" stroke="orange" stroke-dasharray="5,2" d="M68.13,-285.38C77.36,-258 100.89,-200.87 143,-175.58 200.26,-141.19 279.08,-141.7 331.81,-147.32"/>
<text text-anchor="middle" x="221.5" y="-288.58" font-family="Helvetica,sans-Serif" font-size="10.00">itk::BoundingBox</text>
<text text-anchor="middle" x="221.5" y="-277.58" font-family="Helvetica,sans-Serif" font-size="10.00">itk::ConstantBoundaryCondition</text>
<text text-anchor="middle" x="221.5" y="-266.58" font-family="Helvetica,sans-Serif" font-size="10.00">itk::ContinuousIndex</text>
<text text-anchor="middle" x="221.5" y="-255.58" font-family="Helvetica,sans-Serif" font-size="10.00">itk::DiffusionTensor3D</text>
<text text-anchor="middle" x="221.5" y="-244.58" font-family="Helvetica,sans-Serif" font-size="10.00">itk::Image</text>
<text text-anchor="middle" x="221.5" y="-233.58" font-family="Helvetica,sans-Serif" font-size="10.00">itk::ImageBase</text>
<text text-anchor="middle" x="221.5" y="-222.58" font-family="Helvetica,sans-Serif" font-size="10.00">itk::ImageBoundaryCondition</text>
<text text-anchor="middle" x="221.5" y="-211.58" font-family="Helvetica,sans-Serif" font-size="10.00">itk::ImageContainerInterface</text>
<text text-anchor="middle" x="221.5" y="-200.58" font-family="Helvetica,sans-Serif" font-size="10.00">itk::ImageRegion</text>
<text text-anchor="middle" x="221.5" y="-189.58" font-family="Helvetica,sans-Serif" font-size="10.00">itk::ImportImageContainer</text>
<text text-anchor="middle" x="221.5" y="-178.58" font-family="Helvetica,sans-Serif" font-size="10.00">...</text>
</g>
<!-- Node5 -->
<g id="node7" class="node">
<title>Node5</title>
<g id="a_node7"><a xlink:href="group__TensorObjects.html" target="_top" xlink:title="Objects required for representing diffusion tensor images in ITK.">
<polygon fill="white" stroke="black" points="450.5,-112.08 328.5,-112.08 328.5,-93.08 450.5,-93.08 450.5,-112.08"/>
<text text-anchor="middle" x="389.5" y="-100.08" font-family="Helvetica,sans-Serif" font-size="10.00">Tensor Image Objects</text>
</a>
</g>
</g>
<!-- Node1&#45;&gt;Node5 -->
<g id="edge5" class="edge">
<title>Node1&#45;&gt;Node5</title>
<path fill="none" stroke="orange" stroke-dasharray="5,2" d="M64.37,-285.56C67.47,-247.74 81.38,-148.65 143,-106.58 172,-86.78 265.35,-90.8 328.21,-96.19"/>
<text text-anchor="middle" x="221.5" y="-131.58" font-family="Helvetica,sans-Serif" font-size="10.00">itk::DiffusionTensor3D</text>
<text text-anchor="start" x="155" y="-120.58" font-family="Helvetica,sans-Serif" font-size="10.00">itk::SymmetricSecondRank</text>
<text text-anchor="middle" x="221.5" y="-109.58" font-family="Helvetica,sans-Serif" font-size="10.00">Tensor</text>
</g>
<!-- Node8 -->
<g id="node8" class="node">
<title>Node8</title>
<g id="a_node8"><a xlink:href="group__IOFilters.html" target="_top" xlink:title=" ">
<polygon fill="white" stroke="black" points="455,-75.08 324,-75.08 324,-56.08 455,-56.08 455,-75.08"/>
<text text-anchor="middle" x="389.5" y="-63.08" font-family="Helvetica,sans-Serif" font-size="10.00">Input and Output Filters</text>
</a>
</g>
</g>
<!-- Node1&#45;&gt;Node8 -->
<g id="edge8" class="edge">
<title>Node1&#45;&gt;Node8</title>
<path fill="none" stroke="orange" stroke-dasharray="5,2" d="M63.56,-285.29C64.65,-243.6 74.01,-127.65 143,-76.58 205.07,-30.63 302.09,-44.16 353.61,-56.02"/>
<text text-anchor="middle" x="221.5" y="-79.58" font-family="Helvetica,sans-Serif" font-size="10.00">itk::ImportImageContainer</text>
</g>
<!-- Node9 -->
<g id="node9" class="node">
<title>Node9</title>
<g id="a_node9"><a xlink:href="group__ITKLabelMap.html" target="_top" xlink:title="This module contains the infrastructure to store the label images in an efficient and convenient way,...">
<polygon fill="white" stroke="black" points="449,-38.08 330,-38.08 330,-19.08 449,-19.08 449,-38.08"/>
<text text-anchor="middle" x="389.5" y="-26.08" font-family="Helvetica,sans-Serif" font-size="10.00">Module ITKLabelMap</text>
</a>
</g>
</g>
<!-- Node1&#45;&gt;Node9 -->
<g id="edge9" class="edge">
<title>Node1&#45;&gt;Node9</title>
<path fill="none" stroke="orange" stroke-dasharray="5,2" d="M65.56,-285.49C73.05,-233.24 100.58,-61.48 143,-29.58 207.72,19.09 311.61,-3.93 360.87,-19.04"/>
<text text-anchor="middle" x="221.5" y="-32.58" font-family="Helvetica,sans-Serif" font-size="10.00">itk::LabelMap</text>
</g>
<!-- Node2&#45;&gt;Node1 -->
<g id="edge1" class="edge">
<title>Node2&#45;&gt;Node1</title>
<path fill="none" stroke="black" d="M320.82,-443.15C250.8,-433.19 150.57,-418.3 143,-413.58 104.94,-389.84 80.06,-340.49 69.42,-315.61"/>
<polygon fill="black" stroke="black" points="320.53,-446.64 330.92,-444.58 321.51,-439.71 320.53,-446.64"/>
</g>
</g>
</svg>
