<?xml version="1.0" encoding="UTF-8" standalone="no"?>
<!DOCTYPE svg PUBLIC "-//W3C//DTD SVG 1.1//EN"
 "http://www.w3.org/Graphics/SVG/1.1/DTD/svg11.dtd">
<!-- Generated by graphviz version 2.43.0 (0)
 -->
<!-- Title: Module ITKIOSiemens Pages: 1 -->
<svg width="528pt" height="29pt"
 viewBox="0.00 0.00 528.00 28.50" xmlns="http://www.w3.org/2000/svg" xmlns:xlink="http://www.w3.org/1999/xlink">
<g id="graph0" class="graph" transform="scale(1 1) rotate(0) translate(4 24.5)">
<title>Module ITKIOSiemens</title>
<polygon fill="white" stroke="transparent" points="-4,4 -4,-24.5 524,-24.5 524,4 -4,4"/>
<!-- Node2 -->
<g id="node1" class="node">
<title>Node2</title>
<g id="a_node1"><a xlink:href="group__Group-IO.html" target="_top" xlink:title="This group of modules contains classes for reading and writing images and other data objects.">
<polygon fill="white" stroke="black" points="59,-19 0,-19 0,0 59,0 59,-19"/>
<text text-anchor="middle" x="29.5" y="-7" font-family="Helvetica,sans-Serif" font-size="10.00">Group IO</text>
</a>
</g>
</g>
<!-- Node1 -->
<g id="node2" class="node">
<title>Node1</title>
<g id="a_node2"><a xlink:title="This module contains a class for reading the SiemensVision medical file format.">
<polygon fill="#bfbfbf" stroke="black" points="220,-19 96,-19 96,0 220,0 220,-19"/>
<text text-anchor="middle" x="158" y="-7" font-family="Helvetica,sans-Serif" font-size="10.00">Module ITKIOSiemens</text>
</a>
</g>
</g>
<!-- Node2&#45;&gt;Node1 -->
<g id="edge1" class="edge">
<title>Node2&#45;&gt;Node1</title>
<path fill="none" stroke="black" d="M69.41,-9.5C77.8,-9.5 86.86,-9.5 95.87,-9.5"/>
<polygon fill="black" stroke="black" points="69.2,-6 59.2,-9.5 69.2,-13 69.2,-6"/>
</g>
<!-- Node3 -->
<g id="node3" class="node">
<title>Node3</title>
<g id="a_node3"><a xlink:href="group__IOFilters.html" target="_top" xlink:title=" ">
<polygon fill="white" stroke="black" points="520,-19 389,-19 389,0 520,0 520,-19"/>
<text text-anchor="middle" x="454.5" y="-7" font-family="Helvetica,sans-Serif" font-size="10.00">Input and Output Filters</text>
</a>
</g>
</g>
<!-- Node1&#45;&gt;Node3 -->
<g id="edge2" class="edge">
<title>Node1&#45;&gt;Node3</title>
<path fill="none" stroke="orange" stroke-dasharray="5,2" d="M220.02,-9.5C269.38,-9.5 338.71,-9.5 388.99,-9.5"/>
<text text-anchor="middle" x="304.5" y="-12.5" font-family="Helvetica,sans-Serif" font-size="10.00">itk::SiemensVisionImageIO</text>
</g>
</g>
</svg>
