<?xml version="1.0" encoding="UTF-8" standalone="no"?>
<!DOCTYPE svg PUBLIC "-//W3C//DTD SVG 1.1//EN"
 "http://www.w3.org/Graphics/SVG/1.1/DTD/svg11.dtd">
<!-- Generated by graphviz version 2.43.0 (0)
 -->
<!-- Title: Iterators Pages: 1 -->
<svg width="523pt" height="108pt"
 viewBox="0.00 0.00 523.00 107.50" xmlns="http://www.w3.org/2000/svg" xmlns:xlink="http://www.w3.org/1999/xlink">
<g id="graph0" class="graph" transform="scale(1 1) rotate(0) translate(4 103.5)">
<title>Iterators</title>
<polygon fill="white" stroke="transparent" points="-4,4 -4,-103.5 519,-103.5 519,4 -4,4"/>
<!-- Node5 -->
<g id="node1" class="node">
<title>Node5</title>
<g id="a_node1"><a xlink:href="group__ITKDistanceMap.html" target="_top" xlink:title="This module contains multiple implementations of distance map filters. They include the implementatio...">
<polygon fill="white" stroke="black" points="515,-93 380,-93 380,-74 515,-74 515,-93"/>
<text text-anchor="middle" x="447.5" y="-81" font-family="Helvetica,sans-Serif" font-size="10.00">Module ITKDistanceMap</text>
</a>
</g>
</g>
<!-- Node3 -->
<g id="node2" class="node">
<title>Node3</title>
<g id="a_node2"><a xlink:href="group__ImageIterators.html" target="_top" xlink:title=" ">
<polygon fill="white" stroke="black" points="493.5,-56 401.5,-56 401.5,-37 493.5,-37 493.5,-56"/>
<text text-anchor="middle" x="447.5" y="-44" font-family="Helvetica,sans-Serif" font-size="10.00">Image Iterators</text>
</a>
</g>
</g>
<!-- Node4 -->
<g id="node3" class="node">
<title>Node4</title>
<g id="a_node3"><a xlink:href="group__ITKCommon.html" target="_top" xlink:title="This module contains the central classes of the ITK toolkit. They include, basic data structures (suc...">
<polygon fill="white" stroke="black" points="505,-19 390,-19 390,0 505,0 505,-19"/>
<text text-anchor="middle" x="447.5" y="-7" font-family="Helvetica,sans-Serif" font-size="10.00">Module ITKCommon</text>
</a>
</g>
</g>
<!-- Node1 -->
<g id="node4" class="node">
<title>Node1</title>
<g id="a_node4"><a xlink:title=" ">
<polygon fill="#bfbfbf" stroke="black" points="211,-56 153,-56 153,-37 211,-37 211,-56"/>
<text text-anchor="middle" x="182" y="-44" font-family="Helvetica,sans-Serif" font-size="10.00">Iterators</text>
</a>
</g>
</g>
<!-- Node1&#45;&gt;Node5 -->
<g id="edge4" class="edge">
<title>Node1&#45;&gt;Node5</title>
<path fill="none" stroke="orange" stroke-dasharray="5,2" d="M211,-55.95C216.89,-57.67 223.11,-59.3 229,-60.5 279.05,-70.67 336.55,-76.5 379.85,-79.75"/>
<text text-anchor="start" x="229" y="-91.5" font-family="Helvetica,sans-Serif" font-size="10.00">itk::ReflectiveImageRegion</text>
<text text-anchor="middle" x="295.5" y="-80.5" font-family="Helvetica,sans-Serif" font-size="10.00">ConstIterator</text>
</g>
<!-- Node1&#45;&gt;Node3 -->
<g id="edge2" class="edge">
<title>Node1&#45;&gt;Node3</title>
<path fill="none" stroke="black" d="M221.44,-46.5C269.24,-46.5 350.7,-46.5 401.4,-46.5"/>
<polygon fill="black" stroke="black" points="221.2,-43 211.2,-46.5 221.2,-50 221.2,-43"/>
</g>
<!-- Node1&#45;&gt;Node4 -->
<g id="edge3" class="edge">
<title>Node1&#45;&gt;Node4</title>
<path fill="none" stroke="orange" stroke-dasharray="5,2" d="M196.34,-36.75C205.14,-30.89 217.19,-23.93 229,-20.5 282.01,-5.11 345.3,-3.7 389.9,-5.32"/>
<text text-anchor="middle" x="295.5" y="-34.5" font-family="Helvetica,sans-Serif" font-size="10.00">itk::ConstSliceIterator</text>
<text text-anchor="middle" x="295.5" y="-23.5" font-family="Helvetica,sans-Serif" font-size="10.00">itk::SliceIterator</text>
</g>
<!-- Node2 -->
<g id="node5" class="node">
<title>Node2</title>
<g id="a_node5"><a xlink:href="group__DataAccess.html" target="_top" xlink:title="The Insight Toolkit includes several ways to access data through the user of iterators,...">
<polygon fill="white" stroke="black" points="116,-56 0,-56 0,-37 116,-37 116,-56"/>
<text text-anchor="middle" x="58" y="-44" font-family="Helvetica,sans-Serif" font-size="10.00">Data Access Objects</text>
</a>
</g>
</g>
<!-- Node2&#45;&gt;Node1 -->
<g id="edge1" class="edge">
<title>Node2&#45;&gt;Node1</title>
<path fill="none" stroke="black" d="M126.26,-46.5C135.61,-46.5 144.77,-46.5 152.83,-46.5"/>
<polygon fill="black" stroke="black" points="126.07,-43 116.07,-46.5 126.07,-50 126.07,-43"/>
</g>
</g>
</svg>
