<?xml version="1.0" encoding="UTF-8" standalone="no"?>
<!DOCTYPE svg PUBLIC "-//W3C//DTD SVG 1.1//EN"
 "http://www.w3.org/Graphics/SVG/1.1/DTD/svg11.dtd">
<!-- Generated by graphviz version 2.43.0 (0)
 -->
<!-- Title: Group Nonunit Pages: 1 -->
<svg width="272pt" height="64pt"
 viewBox="0.00 0.00 272.00 64.00" xmlns="http://www.w3.org/2000/svg" xmlns:xlink="http://www.w3.org/1999/xlink">
<g id="graph0" class="graph" transform="scale(1 1) rotate(0) translate(4 60)">
<title>Group Nonunit</title>
<polygon fill="white" stroke="transparent" points="-4,4 -4,-60 268,-60 268,4 -4,4"/>
<!-- Node3 -->
<g id="node1" class="node">
<title>Node3</title>
<g id="a_node1"><a xlink:href="group__ITKReview.html" target="_top" xlink:title=" ">
<polygon fill="white" stroke="black" points="247,-56 140,-56 140,-37 247,-37 247,-56"/>
<text text-anchor="middle" x="193.5" y="-44" font-family="Helvetica,sans-Serif" font-size="10.00">Module ITKReview</text>
</a>
</g>
</g>
<!-- Node1 -->
<g id="node2" class="node">
<title>Node1</title>
<g id="a_node2"><a xlink:title="This group of modules are intended to make use of an extensive set of the toolkit modules.">
<polygon fill="#bfbfbf" stroke="black" points="87,-37 0,-37 0,-18 87,-18 87,-37"/>
<text text-anchor="middle" x="43.5" y="-25" font-family="Helvetica,sans-Serif" font-size="10.00">Group Nonunit</text>
</a>
</g>
</g>
<!-- Node1&#45;&gt;Node3 -->
<g id="edge2" class="edge">
<title>Node1&#45;&gt;Node3</title>
<path fill="none" stroke="black" d="M97.57,-34.31C111.3,-36.08 126.09,-37.97 139.8,-39.73"/>
<polygon fill="black" stroke="black" points="97.67,-30.8 87.31,-33 96.78,-37.74 97.67,-30.8"/>
</g>
<!-- Node2 -->
<g id="node3" class="node">
<title>Node2</title>
<g id="a_node3"><a xlink:href="group__ITKIntegratedTest.html" target="_top" xlink:title="This modules contains tests targeting the behavior of multiple modules of the toolkit when they act t...">
<polygon fill="white" stroke="black" points="264,-19 123,-19 123,0 264,0 264,-19"/>
<text text-anchor="middle" x="193.5" y="-7" font-family="Helvetica,sans-Serif" font-size="10.00">Module ITKIntegratedTest</text>
</a>
</g>
</g>
<!-- Node1&#45;&gt;Node2 -->
<g id="edge1" class="edge">
<title>Node1&#45;&gt;Node2</title>
<path fill="none" stroke="black" d="M97.46,-21.06C105.66,-20.06 114.24,-19.02 122.74,-17.98"/>
<polygon fill="black" stroke="black" points="96.81,-17.61 87.31,-22.29 97.66,-24.56 96.81,-17.61"/>
</g>
</g>
</svg>
