<?xml version="1.0" encoding="UTF-8" standalone="no"?>
<!DOCTYPE svg PUBLIC "-//W3C//DTD SVG 1.1//EN"
 "http://www.w3.org/Graphics/SVG/1.1/DTD/svg11.dtd">
<!-- Generated by graphviz version 2.43.0 (0)
 -->
<!-- Title: Objects Related to Tensor Images Pages: 1 -->
<svg width="478pt" height="714pt"
 viewBox="0.00 0.00 478.00 714.04" xmlns="http://www.w3.org/2000/svg" xmlns:xlink="http://www.w3.org/1999/xlink">
<g id="graph0" class="graph" transform="scale(1 1) rotate(0) translate(4 710.04)">
<title>Objects Related to Tensor Images</title>
<polygon fill="white" stroke="transparent" points="-4,4 -4,-710.04 474,-710.04 474,4 -4,4"/>
<!-- Node6 -->
<g id="node1" class="node">
<title>Node6</title>
<g id="a_node1"><a xlink:href="group__ITKDiffusionTensorImage.html" target="_top" xlink:title="This module contains classes intended to generate or procees diffusion tensor images....">
<polygon fill="white" stroke="black" points="470,-636.04 324,-636.04 324,-606.04 470,-606.04 470,-636.04"/>
<text text-anchor="start" x="332" y="-624.04" font-family="Helvetica,sans-Serif" font-size="10.00">Module ITKDiffusionTensor</text>
<text text-anchor="middle" x="397" y="-613.04" font-family="Helvetica,sans-Serif" font-size="10.00">Image</text>
</a>
</g>
</g>
<!-- Node8 -->
<g id="node2" class="node">
<title>Node8</title>
<g id="a_node2"><a xlink:href="group__ITKImageFeature.html" target="_top" xlink:title="This module contains classes that compute image features. In particular you will find here: Canny edg...">
<polygon fill="white" stroke="black" points="466.5,-563.54 327.5,-563.54 327.5,-544.54 466.5,-544.54 466.5,-563.54"/>
<text text-anchor="middle" x="397" y="-551.54" font-family="Helvetica,sans-Serif" font-size="10.00">Module ITKImageFeature</text>
</a>
</g>
</g>
<!-- Node7 -->
<g id="node3" class="node">
<title>Node7</title>
<g id="a_node3"><a xlink:href="group__IntensityImageFilters.html" target="_top" xlink:title=" ">
<polygon fill="white" stroke="black" points="460,-408.54 334,-408.54 334,-389.54 460,-389.54 460,-408.54"/>
<text text-anchor="middle" x="397" y="-396.54" font-family="Helvetica,sans-Serif" font-size="10.00">Intensity Image Filters</text>
</a>
</g>
</g>
<!-- Node2 -->
<g id="node4" class="node">
<title>Node2</title>
<g id="a_node4"><a xlink:href="group__ImageObjects.html" target="_top" xlink:title=" ">
<polygon fill="white" stroke="black" points="459.5,-358.04 334.5,-358.04 334.5,-328.04 459.5,-328.04 459.5,-358.04"/>
<text text-anchor="start" x="342.5" y="-346.04" font-family="Helvetica,sans-Serif" font-size="10.00">Image Representation</text>
<text text-anchor="middle" x="397" y="-335.04" font-family="Helvetica,sans-Serif" font-size="10.00"> Objects</text>
</a>
</g>
</g>
<!-- Node9 -->
<g id="node5" class="node">
<title>Node9</title>
<g id="a_node5"><a xlink:href="group__ITKImageIntensity.html" target="_top" xlink:title="This module contains filters that perform pixel&#45;wise operations on the intensities of images....">
<polygon fill="white" stroke="black" points="469.5,-285.54 324.5,-285.54 324.5,-266.54 469.5,-266.54 469.5,-285.54"/>
<text text-anchor="middle" x="397" y="-273.54" font-family="Helvetica,sans-Serif" font-size="10.00">Module ITKImageIntensity</text>
</a>
</g>
</g>
<!-- Node3 -->
<g id="node6" class="node">
<title>Node3</title>
<g id="a_node6"><a xlink:href="group__Geometry.html" target="_top" xlink:title=" ">
<polygon fill="white" stroke="black" points="468.5,-235.04 325.5,-235.04 325.5,-205.04 468.5,-205.04 468.5,-235.04"/>
<text text-anchor="start" x="333.5" y="-223.04" font-family="Helvetica,sans-Serif" font-size="10.00">Geometry Representation</text>
<text text-anchor="middle" x="397" y="-212.04" font-family="Helvetica,sans-Serif" font-size="10.00"> Objects</text>
</a>
</g>
</g>
<!-- Node5 -->
<g id="node7" class="node">
<title>Node5</title>
<g id="a_node7"><a xlink:href="group__MultiThreaded.html" target="_top" xlink:title=" ">
<polygon fill="white" stroke="black" points="457,-96.54 337,-96.54 337,-77.54 457,-77.54 457,-96.54"/>
<text text-anchor="middle" x="397" y="-84.54" font-family="Helvetica,sans-Serif" font-size="10.00">MultiThreaded Filters</text>
</a>
</g>
</g>
<!-- Node4 -->
<g id="node8" class="node">
<title>Node4</title>
<g id="a_node8"><a xlink:href="group__ITKCommon.html" target="_top" xlink:title="This module contains the central classes of the ITK toolkit. They include, basic data structures (suc...">
<polygon fill="white" stroke="black" points="454.5,-40.54 339.5,-40.54 339.5,-21.54 454.5,-21.54 454.5,-40.54"/>
<text text-anchor="middle" x="397" y="-28.54" font-family="Helvetica,sans-Serif" font-size="10.00">Module ITKCommon</text>
</a>
</g>
</g>
<!-- Node1 -->
<g id="node9" class="node">
<title>Node1</title>
<g id="a_node9"><a xlink:title="This category includes the objects required for representing diffusion tensor images in ITK.">
<polygon fill="#bfbfbf" stroke="black" points="107,-324.04 0,-324.04 0,-294.04 107,-294.04 107,-324.04"/>
<text text-anchor="start" x="8" y="-312.04" font-family="Helvetica,sans-Serif" font-size="10.00">Objects Related to</text>
<text text-anchor="middle" x="53.5" y="-301.04" font-family="Helvetica,sans-Serif" font-size="10.00"> Tensor Images</text>
</a>
</g>
</g>
<!-- Node1&#45;&gt;Node6 -->
<g id="edge5" class="edge">
<title>Node1&#45;&gt;Node6</title>
<path fill="none" stroke="orange" stroke-dasharray="5,2" d="M55.9,-324.26C61.22,-378.71 82.15,-562.46 125,-599.04 179.75,-645.78 265.44,-644.64 325.77,-636.08"/>
<text text-anchor="start" x="125" y="-698.04" font-family="Helvetica,sans-Serif" font-size="10.00">itk::DiffusionTensor3DReconstruction</text>
<text text-anchor="middle" x="215.5" y="-687.04" font-family="Helvetica,sans-Serif" font-size="10.00">ImageFilter</text>
<text text-anchor="start" x="125" y="-676.04" font-family="Helvetica,sans-Serif" font-size="10.00">itk::TensorFractionalAnisotropy</text>
<text text-anchor="middle" x="215.5" y="-665.04" font-family="Helvetica,sans-Serif" font-size="10.00">ImageFilter</text>
<text text-anchor="start" x="125" y="-654.04" font-family="Helvetica,sans-Serif" font-size="10.00">itk::TensorRelativeAnisotropy</text>
<text text-anchor="middle" x="215.5" y="-643.04" font-family="Helvetica,sans-Serif" font-size="10.00">ImageFilter</text>
</g>
<!-- Node1&#45;&gt;Node8 -->
<g id="edge7" class="edge">
<title>Node1&#45;&gt;Node8</title>
<path fill="none" stroke="orange" stroke-dasharray="5,2" d="M54.04,-324.07C53.69,-365.09 58.95,-479.41 125,-532.04 140.51,-544.4 252.37,-550.01 327.44,-552.41"/>
<text text-anchor="start" x="146" y="-587.04" font-family="Helvetica,sans-Serif" font-size="10.00">itk::Hessian3DToVesselness</text>
<text text-anchor="middle" x="215.5" y="-576.04" font-family="Helvetica,sans-Serif" font-size="10.00">MeasureImageFilter</text>
<text text-anchor="start" x="146" y="-565.04" font-family="Helvetica,sans-Serif" font-size="10.00">itk::MultiScaleHessianBased</text>
<text text-anchor="middle" x="215.5" y="-554.04" font-family="Helvetica,sans-Serif" font-size="10.00">MeasureImageFilter</text>
</g>
<!-- Node1&#45;&gt;Node7 -->
<g id="edge6" class="edge">
<title>Node1&#45;&gt;Node7</title>
<path fill="none" stroke="orange" stroke-dasharray="5,2" d="M65.84,-324.18C78.4,-339.68 100.2,-363.02 125,-374.04 161.1,-390.1 265.7,-395.84 333.89,-397.9"/>
<text text-anchor="start" x="140" y="-520.04" font-family="Helvetica,sans-Serif" font-size="10.00">itk::Hessian3DToVesselness</text>
<text text-anchor="middle" x="215.5" y="-509.04" font-family="Helvetica,sans-Serif" font-size="10.00">MeasureImageFilter</text>
<text text-anchor="start" x="140" y="-498.04" font-family="Helvetica,sans-Serif" font-size="10.00">itk::MultiScaleHessianBased</text>
<text text-anchor="middle" x="215.5" y="-487.04" font-family="Helvetica,sans-Serif" font-size="10.00">MeasureImageFilter</text>
<text text-anchor="start" x="140" y="-476.04" font-family="Helvetica,sans-Serif" font-size="10.00">itk::SymmetricEigenAnalysis</text>
<text text-anchor="middle" x="215.5" y="-465.04" font-family="Helvetica,sans-Serif" font-size="10.00">FixedDimensionImageFilter</text>
<text text-anchor="start" x="140" y="-454.04" font-family="Helvetica,sans-Serif" font-size="10.00">itk::SymmetricEigenAnalysis</text>
<text text-anchor="middle" x="215.5" y="-443.04" font-family="Helvetica,sans-Serif" font-size="10.00">ImageFilter</text>
<text text-anchor="start" x="140" y="-432.04" font-family="Helvetica,sans-Serif" font-size="10.00">itk::TensorFractionalAnisotropy</text>
<text text-anchor="middle" x="215.5" y="-421.04" font-family="Helvetica,sans-Serif" font-size="10.00">ImageFilter</text>
<text text-anchor="start" x="140" y="-410.04" font-family="Helvetica,sans-Serif" font-size="10.00">itk::TensorRelativeAnisotropy</text>
<text text-anchor="middle" x="215.5" y="-399.04" font-family="Helvetica,sans-Serif" font-size="10.00">ImageFilter</text>
</g>
<!-- Node1&#45;&gt;Node2 -->
<g id="edge1" class="edge">
<title>Node1&#45;&gt;Node2</title>
<path fill="none" stroke="orange" stroke-dasharray="5,2" d="M107.17,-318.52C113.17,-319.45 119.21,-320.32 125,-321.04 196.66,-330.03 279.46,-336.13 334.49,-339.59"/>
<text text-anchor="middle" x="215.5" y="-362.04" font-family="Helvetica,sans-Serif" font-size="10.00">itk::DiffusionTensor3D</text>
<text text-anchor="start" x="149" y="-351.04" font-family="Helvetica,sans-Serif" font-size="10.00">itk::SymmetricSecondRank</text>
<text text-anchor="middle" x="215.5" y="-340.04" font-family="Helvetica,sans-Serif" font-size="10.00">Tensor</text>
</g>
<!-- Node1&#45;&gt;Node9 -->
<g id="edge8" class="edge">
<title>Node1&#45;&gt;Node9</title>
<path fill="none" stroke="orange" stroke-dasharray="5,2" d="M80.69,-293.95C93.59,-287.37 109.64,-280.4 125,-277.04 191.42,-262.54 269.2,-264.09 324.36,-268.2"/>
<text text-anchor="start" x="145" y="-313.04" font-family="Helvetica,sans-Serif" font-size="10.00">itk::SymmetricEigenAnalysis</text>
<text text-anchor="middle" x="215.5" y="-302.04" font-family="Helvetica,sans-Serif" font-size="10.00">FixedDimensionImageFilter</text>
<text text-anchor="start" x="145" y="-291.04" font-family="Helvetica,sans-Serif" font-size="10.00">itk::SymmetricEigenAnalysis</text>
<text text-anchor="middle" x="215.5" y="-280.04" font-family="Helvetica,sans-Serif" font-size="10.00">ImageFilter</text>
</g>
<!-- Node1&#45;&gt;Node3 -->
<g id="edge2" class="edge">
<title>Node1&#45;&gt;Node3</title>
<path fill="none" stroke="orange" stroke-dasharray="5,2" d="M62.35,-294.04C73.39,-274.73 95.51,-242 125,-228.04 187.86,-198.29 268.43,-200.22 325.33,-207.16"/>
<text text-anchor="middle" x="215.5" y="-253.04" font-family="Helvetica,sans-Serif" font-size="10.00">itk::DiffusionTensor3D</text>
<text text-anchor="start" x="149" y="-242.04" font-family="Helvetica,sans-Serif" font-size="10.00">itk::SymmetricSecondRank</text>
<text text-anchor="middle" x="215.5" y="-231.04" font-family="Helvetica,sans-Serif" font-size="10.00">Tensor</text>
</g>
<!-- Node1&#45;&gt;Node5 -->
<g id="edge4" class="edge">
<title>Node1&#45;&gt;Node5</title>
<path fill="none" stroke="orange" stroke-dasharray="5,2" d="M53.88,-293.87C53.13,-252.52 57.45,-137.59 125,-88.04 157.44,-64.25 267.46,-71.8 336.94,-79.43"/>
<text text-anchor="start" x="125" y="-190.04" font-family="Helvetica,sans-Serif" font-size="10.00">itk::DiffusionTensor3DReconstruction</text>
<text text-anchor="middle" x="215.5" y="-179.04" font-family="Helvetica,sans-Serif" font-size="10.00">ImageFilter</text>
<text text-anchor="start" x="125" y="-168.04" font-family="Helvetica,sans-Serif" font-size="10.00">itk::SymmetricEigenAnalysis</text>
<text text-anchor="middle" x="215.5" y="-157.04" font-family="Helvetica,sans-Serif" font-size="10.00">FixedDimensionImageFilter</text>
<text text-anchor="start" x="125" y="-146.04" font-family="Helvetica,sans-Serif" font-size="10.00">itk::SymmetricEigenAnalysis</text>
<text text-anchor="middle" x="215.5" y="-135.04" font-family="Helvetica,sans-Serif" font-size="10.00">ImageFilter</text>
<text text-anchor="start" x="125" y="-124.04" font-family="Helvetica,sans-Serif" font-size="10.00">itk::TensorFractionalAnisotropy</text>
<text text-anchor="middle" x="215.5" y="-113.04" font-family="Helvetica,sans-Serif" font-size="10.00">ImageFilter</text>
<text text-anchor="start" x="125" y="-102.04" font-family="Helvetica,sans-Serif" font-size="10.00">itk::TensorRelativeAnisotropy</text>
<text text-anchor="middle" x="215.5" y="-91.04" font-family="Helvetica,sans-Serif" font-size="10.00">ImageFilter</text>
</g>
<!-- Node1&#45;&gt;Node4 -->
<g id="edge3" class="edge">
<title>Node1&#45;&gt;Node4</title>
<path fill="none" stroke="orange" stroke-dasharray="5,2" d="M56.02,-293.77C61.63,-240.89 83.03,-66.98 125,-34.04 196.62,22.17 314.8,-4.88 368.24,-21.44"/>
<text text-anchor="middle" x="215.5" y="-59.04" font-family="Helvetica,sans-Serif" font-size="10.00">itk::DiffusionTensor3D</text>
<text text-anchor="start" x="149" y="-48.04" font-family="Helvetica,sans-Serif" font-size="10.00">itk::SymmetricSecondRank</text>
<text text-anchor="middle" x="215.5" y="-37.04" font-family="Helvetica,sans-Serif" font-size="10.00">Tensor</text>
</g>
</g>
</svg>
