<?xml version="1.0" encoding="UTF-8" standalone="no"?>
<!DOCTYPE svg PUBLIC "-//W3C//DTD SVG 1.1//EN"
 "http://www.w3.org/Graphics/SVG/1.1/DTD/svg11.dtd">
<!-- Generated by graphviz version 2.43.0 (0)
 -->
<!-- Title: Module ITKIOGDCM Pages: 1 -->
<svg width="516pt" height="40pt"
 viewBox="0.00 0.00 516.00 39.50" xmlns="http://www.w3.org/2000/svg" xmlns:xlink="http://www.w3.org/1999/xlink">
<g id="graph0" class="graph" transform="scale(1 1) rotate(0) translate(4 35.5)">
<title>Module ITKIOGDCM</title>
<polygon fill="white" stroke="transparent" points="-4,4 -4,-35.5 512,-35.5 512,4 -4,4"/>
<!-- Node1 -->
<g id="node1" class="node">
<title>Node1</title>
<g id="a_node1"><a xlink:title="This module contains ITK ImageIO classes for the Grassroots DICOM (GDCM) based readers and writers of...">
<polygon fill="#bfbfbf" stroke="black" points="209,-19 96,-19 96,0 209,0 209,-19"/>
<text text-anchor="middle" x="152.5" y="-7" font-family="Helvetica,sans-Serif" font-size="10.00">Module ITKIOGDCM</text>
</a>
</g>
</g>
<!-- Node3 -->
<g id="node3" class="node">
<title>Node3</title>
<g id="a_node3"><a xlink:href="group__IOFilters.html" target="_top" xlink:title=" ">
<polygon fill="white" stroke="black" points="508,-19 377,-19 377,0 508,0 508,-19"/>
<text text-anchor="middle" x="442.5" y="-7" font-family="Helvetica,sans-Serif" font-size="10.00">Input and Output Filters</text>
</a>
</g>
</g>
<!-- Node1&#45;&gt;Node3 -->
<g id="edge2" class="edge">
<title>Node1&#45;&gt;Node3</title>
<path fill="none" stroke="orange" stroke-dasharray="5,2" d="M209.03,-9.5C257,-9.5 326.37,-9.5 376.83,-9.5"/>
<text text-anchor="middle" x="293" y="-23.5" font-family="Helvetica,sans-Serif" font-size="10.00">itk::GDCMImageIO</text>
<text text-anchor="middle" x="293" y="-12.5" font-family="Helvetica,sans-Serif" font-size="10.00">itk::GDCMSeriesFileNames</text>
</g>
<!-- Node2 -->
<g id="node2" class="node">
<title>Node2</title>
<g id="a_node2"><a xlink:href="group__Group-IO.html" target="_top" xlink:title="This group of modules contains classes for reading and writing images and other data objects.">
<polygon fill="white" stroke="black" points="59,-19 0,-19 0,0 59,0 59,-19"/>
<text text-anchor="middle" x="29.5" y="-7" font-family="Helvetica,sans-Serif" font-size="10.00">Group IO</text>
</a>
</g>
</g>
<!-- Node2&#45;&gt;Node1 -->
<g id="edge1" class="edge">
<title>Node2&#45;&gt;Node1</title>
<path fill="none" stroke="black" d="M69.19,-9.5C77.72,-9.5 86.91,-9.5 95.96,-9.5"/>
<polygon fill="black" stroke="black" points="69.18,-6 59.18,-9.5 69.18,-13 69.18,-6"/>
</g>
</g>
</svg>
