<?xml version="1.0" encoding="UTF-8" standalone="no"?>
<!DOCTYPE svg PUBLIC "-//W3C//DTD SVG 1.1//EN"
 "http://www.w3.org/Graphics/SVG/1.1/DTD/svg11.dtd">
<!-- Generated by graphviz version 2.43.0 (0)
 -->
<!-- Title: Optimizers Pages: 1 -->
<svg width="789pt" height="256pt"
 viewBox="0.00 0.00 789.00 255.50" xmlns="http://www.w3.org/2000/svg" xmlns:xlink="http://www.w3.org/1999/xlink">
<g id="graph0" class="graph" transform="scale(1 1) rotate(0) translate(4 251.5)">
<title>Optimizers</title>
<polygon fill="white" stroke="transparent" points="-4,4 -4,-251.5 785,-251.5 785,4 -4,4"/>
<!-- Node2 -->
<g id="node1" class="node">
<title>Node2</title>
<g id="a_node1"><a xlink:href="group__Numerics.html" target="_top" xlink:title="Insight provides support for numerical operations at two levels. First, Insight uses an external libr...">
<polygon fill="white" stroke="black" points="108,-142 45,-142 45,-123 108,-123 108,-142"/>
<text text-anchor="middle" x="76.5" y="-130" font-family="Helvetica,sans-Serif" font-size="10.00">Numerics</text>
</a>
</g>
</g>
<!-- Node1 -->
<g id="node4" class="node">
<title>Node1</title>
<g id="a_node4"><a xlink:title=" ">
<polygon fill="#bfbfbf" stroke="black" points="428,-64 358,-64 358,-45 428,-45 428,-64"/>
<text text-anchor="middle" x="393" y="-52" font-family="Helvetica,sans-Serif" font-size="10.00">Optimizers</text>
</a>
</g>
</g>
<!-- Node2&#45;&gt;Node1 -->
<g id="edge1" class="edge">
<title>Node2&#45;&gt;Node1</title>
<path fill="none" stroke="black" d="M96.93,-148.15C114.93,-161.57 143.05,-179.89 171,-187.5 243.47,-207.23 277.97,-229.85 340,-187.5 382.38,-158.56 390.22,-89.46 391.67,-64.07"/>
<polygon fill="black" stroke="black" points="99.02,-145.34 88.96,-142.03 94.76,-150.9 99.02,-145.34"/>
</g>
<!-- Node3 -->
<g id="node2" class="node">
<title>Node3</title>
<g id="a_node2"><a xlink:href="group__RegistrationComponents.html" target="_top" xlink:title="Registration methods are implemented by combining basic components. This framework allows great flexi...">
<polygon fill="white" stroke="black" points="153,-36.5 0,-36.5 0,-6.5 153,-6.5 153,-36.5"/>
<text text-anchor="start" x="8" y="-24.5" font-family="Helvetica,sans-Serif" font-size="10.00">Components of Registration</text>
<text text-anchor="middle" x="76.5" y="-13.5" font-family="Helvetica,sans-Serif" font-size="10.00"> Methods</text>
</a>
</g>
</g>
<!-- Node3&#45;&gt;Node1 -->
<g id="edge2" class="edge">
<title>Node3&#45;&gt;Node1</title>
<path fill="none" stroke="black" d="M163.34,-19.69C215.01,-20.18 281.84,-23.6 340,-35.5 350.26,-37.6 361.21,-41.36 370.41,-44.98"/>
<polygon fill="black" stroke="black" points="163.23,-16.19 153.21,-19.63 163.19,-23.19 163.23,-16.19"/>
</g>
<!-- Node5 -->
<g id="node3" class="node">
<title>Node5</title>
<g id="a_node3"><a xlink:href="group__ITKLevelSets.html" target="_top" xlink:title="This module contains classes related to level&#45;set segmentation. In level&#45;set segmentation,...">
<polygon fill="white" stroke="black" points="772.5,-219 653.5,-219 653.5,-200 772.5,-200 772.5,-219"/>
<text text-anchor="middle" x="713" y="-207" font-family="Helvetica,sans-Serif" font-size="10.00">Module ITKLevelSets</text>
</a>
</g>
</g>
<!-- Node1&#45;&gt;Node2 -->
<g id="edge3" class="edge">
<title>Node1&#45;&gt;Node2</title>
<path fill="none" stroke="orange" stroke-dasharray="5,2" d="M357.76,-46.59C313.17,-37.94 233.56,-28.17 171,-51.5 132.16,-65.98 98.74,-104.67 84.64,-122.83"/>
<text text-anchor="middle" x="255.5" y="-175.5" font-family="Helvetica,sans-Serif" font-size="10.00">itk::AmoebaOptimizer</text>
<text text-anchor="middle" x="255.5" y="-164.5" font-family="Helvetica,sans-Serif" font-size="10.00">itk::ConjugateGradientOptimizer</text>
<text text-anchor="middle" x="255.5" y="-153.5" font-family="Helvetica,sans-Serif" font-size="10.00">CostFunction</text>
<text text-anchor="middle" x="255.5" y="-142.5" font-family="Helvetica,sans-Serif" font-size="10.00">itk::CumulativeGaussianOptimizer</text>
<text text-anchor="middle" x="255.5" y="-131.5" font-family="Helvetica,sans-Serif" font-size="10.00">itk::ExhaustiveOptimizer</text>
<text text-anchor="middle" x="255.5" y="-120.5" font-family="Helvetica,sans-Serif" font-size="10.00">itk::FRPROptimizer</text>
<text text-anchor="middle" x="255.5" y="-109.5" font-family="Helvetica,sans-Serif" font-size="10.00">itk::GradientDescentOptimizer</text>
<text text-anchor="start" x="171" y="-98.5" font-family="Helvetica,sans-Serif" font-size="10.00">itk::InitializationBiased</text>
<text text-anchor="middle" x="255.5" y="-87.5" font-family="Helvetica,sans-Serif" font-size="10.00">ParticleSwarmOptimizer</text>
<text text-anchor="middle" x="255.5" y="-76.5" font-family="Helvetica,sans-Serif" font-size="10.00">itk::LBFGSBOptimizer</text>
<text text-anchor="middle" x="255.5" y="-65.5" font-family="Helvetica,sans-Serif" font-size="10.00">itk::LBFGSOptimizer</text>
<text text-anchor="middle" x="255.5" y="-54.5" font-family="Helvetica,sans-Serif" font-size="10.00">...</text>
</g>
<!-- Node1&#45;&gt;Node5 -->
<g id="edge5" class="edge">
<title>Node1&#45;&gt;Node5</title>
<path fill="none" stroke="orange" stroke-dasharray="5,2" d="M394.49,-64.25C396.33,-89.46 405.04,-156.99 446,-187.5 510.66,-235.67 610.31,-228.52 667.51,-219"/>
<text text-anchor="middle" x="536.5" y="-239.5" font-family="Helvetica,sans-Serif" font-size="10.00">itk::ShapePriorMAPCostFunction</text>
<text text-anchor="middle" x="536.5" y="-228.5" font-family="Helvetica,sans-Serif" font-size="10.00">itk::ShapePriorMAPCostFunctionBase</text>
</g>
<!-- Node4 -->
<g id="node5" class="node">
<title>Node4</title>
<g id="a_node5"><a xlink:href="group__ITKOptimizers.html" target="_top" xlink:title="This module contains ITK classes that encapsulate numerical optimizers. A set of base classes categor...">
<polygon fill="white" stroke="black" points="775,-64 651,-64 651,-45 775,-45 775,-64"/>
<text text-anchor="middle" x="713" y="-52" font-family="Helvetica,sans-Serif" font-size="10.00">Module ITKOptimizers</text>
</a>
</g>
</g>
<!-- Node1&#45;&gt;Node4 -->
<g id="edge4" class="edge">
<title>Node1&#45;&gt;Node4</title>
<path fill="none" stroke="orange" stroke-dasharray="5,2" d="M428.03,-54.5C481.15,-54.5 584.52,-54.5 650.81,-54.5"/>
<text text-anchor="middle" x="536.5" y="-178.5" font-family="Helvetica,sans-Serif" font-size="10.00">itk::AmoebaOptimizer</text>
<text text-anchor="middle" x="536.5" y="-167.5" font-family="Helvetica,sans-Serif" font-size="10.00">itk::ConjugateGradientOptimizer</text>
<text text-anchor="middle" x="536.5" y="-156.5" font-family="Helvetica,sans-Serif" font-size="10.00">CostFunction</text>
<text text-anchor="middle" x="536.5" y="-145.5" font-family="Helvetica,sans-Serif" font-size="10.00">itk::CumulativeGaussianOptimizer</text>
<text text-anchor="middle" x="536.5" y="-134.5" font-family="Helvetica,sans-Serif" font-size="10.00">itk::ExhaustiveOptimizer</text>
<text text-anchor="middle" x="536.5" y="-123.5" font-family="Helvetica,sans-Serif" font-size="10.00">itk::FRPROptimizer</text>
<text text-anchor="middle" x="536.5" y="-112.5" font-family="Helvetica,sans-Serif" font-size="10.00">itk::GradientDescentOptimizer</text>
<text text-anchor="start" x="452" y="-101.5" font-family="Helvetica,sans-Serif" font-size="10.00">itk::InitializationBiased</text>
<text text-anchor="middle" x="536.5" y="-90.5" font-family="Helvetica,sans-Serif" font-size="10.00">ParticleSwarmOptimizer</text>
<text text-anchor="middle" x="536.5" y="-79.5" font-family="Helvetica,sans-Serif" font-size="10.00">itk::LBFGSBOptimizer</text>
<text text-anchor="middle" x="536.5" y="-68.5" font-family="Helvetica,sans-Serif" font-size="10.00">itk::LBFGSOptimizer</text>
<text text-anchor="middle" x="536.5" y="-57.5" font-family="Helvetica,sans-Serif" font-size="10.00">...</text>
</g>
<!-- Node6 -->
<g id="node6" class="node">
<title>Node6</title>
<g id="a_node6"><a xlink:href="group__ITKOptimizersv4.html" target="_top" xlink:title="This module contains ITK classes that encapsulate numerical optimizers using a new hierarchy develope...">
<polygon fill="white" stroke="black" points="781,-19 645,-19 645,0 781,0 781,-19"/>
<text text-anchor="middle" x="713" y="-7" font-family="Helvetica,sans-Serif" font-size="10.00">Module ITKOptimizersv4</text>
</a>
</g>
</g>
<!-- Node1&#45;&gt;Node6 -->
<g id="edge6" class="edge">
<title>Node1&#45;&gt;Node6</title>
<path fill="none" stroke="orange" stroke-dasharray="5,2" d="M409.29,-44.85C419.32,-39.03 432.96,-32.07 446,-28.5 511.97,-10.42 590.4,-6.88 644.93,-7.12"/>
<text text-anchor="start" x="458" y="-42.5" font-family="Helvetica,sans-Serif" font-size="10.00">itk::SingleValuedCostFunctionv4</text>
<text text-anchor="middle" x="536.5" y="-31.5" font-family="Helvetica,sans-Serif" font-size="10.00">Template</text>
</g>
</g>
</svg>
