<?xml version="1.0" encoding="UTF-8" standalone="no"?>
<!DOCTYPE svg PUBLIC "-//W3C//DTD SVG 1.1//EN"
 "http://www.w3.org/Graphics/SVG/1.1/DTD/svg11.dtd">
<!-- Generated by graphviz version 2.43.0 (0)
 -->
<!-- Title: Image Gradient Filters Pages: 1 -->
<svg width="669pt" height="377pt"
 viewBox="0.00 0.00 669.00 377.01" xmlns="http://www.w3.org/2000/svg" xmlns:xlink="http://www.w3.org/1999/xlink">
<g id="graph0" class="graph" transform="scale(1 1) rotate(0) translate(4 373.01)">
<title>Image Gradient Filters</title>
<polygon fill="white" stroke="transparent" points="-4,4 -4,-373.01 665,-373.01 665,4 -4,4"/>
<!-- Node6 -->
<g id="node1" class="node">
<title>Node6</title>
<g id="a_node1"><a xlink:href="group__ITKImageFeature.html" target="_top" xlink:title="This module contains classes that compute image features. In particular you will find here: Canny edg...">
<polygon fill="white" stroke="black" points="649.5,-324.51 510.5,-324.51 510.5,-305.51 649.5,-305.51 649.5,-324.51"/>
<text text-anchor="middle" x="580" y="-312.51" font-family="Helvetica,sans-Serif" font-size="10.00">Module ITKImageFeature</text>
</a>
</g>
</g>
<!-- Node7 -->
<g id="node2" class="node">
<title>Node7</title>
<g id="a_node2"><a xlink:href="group__MultiThreaded.html" target="_top" xlink:title=" ">
<polygon fill="white" stroke="black" points="640,-279.51 520,-279.51 520,-260.51 640,-260.51 640,-279.51"/>
<text text-anchor="middle" x="580" y="-267.51" font-family="Helvetica,sans-Serif" font-size="10.00">MultiThreaded Filters</text>
</a>
</g>
</g>
<!-- Node5 -->
<g id="node3" class="node">
<title>Node5</title>
<g id="a_node3"><a xlink:href="group__SingleThreaded.html" target="_top" xlink:title=" ">
<polygon fill="white" stroke="black" points="642.5,-190.51 517.5,-190.51 517.5,-171.51 642.5,-171.51 642.5,-190.51"/>
<text text-anchor="middle" x="580" y="-178.51" font-family="Helvetica,sans-Serif" font-size="10.00">SingleThreaded Filters</text>
</a>
</g>
</g>
<!-- Node1 -->
<g id="node4" class="node">
<title>Node1</title>
<g id="a_node4"><a xlink:title=" ">
<polygon fill="#bfbfbf" stroke="black" points="302,-190.51 177,-190.51 177,-171.51 302,-171.51 302,-190.51"/>
<text text-anchor="middle" x="239.5" y="-178.51" font-family="Helvetica,sans-Serif" font-size="10.00">Image Gradient Filters</text>
</a>
</g>
</g>
<!-- Node1&#45;&gt;Node6 -->
<g id="edge5" class="edge">
<title>Node1&#45;&gt;Node6</title>
<path fill="none" stroke="orange" stroke-dasharray="5,2" d="M244.04,-190.67C252.86,-213.2 278.18,-269.11 320,-293.01 377.89,-326.09 455.23,-328.31 510.29,-324.28"/>
<text text-anchor="start" x="321" y="-361.01" font-family="Helvetica,sans-Serif" font-size="10.00">itk::HessianRecursiveGaussian</text>
<text text-anchor="middle" x="400.5" y="-350.01" font-family="Helvetica,sans-Serif" font-size="10.00">ImageFilter</text>
<text text-anchor="start" x="321" y="-339.01" font-family="Helvetica,sans-Serif" font-size="10.00">itk::LaplacianRecursiveGaussian</text>
<text text-anchor="middle" x="400.5" y="-328.01" font-family="Helvetica,sans-Serif" font-size="10.00">ImageFilter</text>
</g>
<!-- Node1&#45;&gt;Node7 -->
<g id="edge6" class="edge">
<title>Node1&#45;&gt;Node7</title>
<path fill="none" stroke="orange" stroke-dasharray="5,2" d="M248.55,-190.91C261.67,-206.25 289.31,-235.31 320,-248.01 354.87,-262.45 454.72,-267.41 519.77,-269.12"/>
<text text-anchor="start" x="321" y="-281.01" font-family="Helvetica,sans-Serif" font-size="10.00">itk::LaplacianRecursiveGaussian</text>
<text text-anchor="middle" x="400.5" y="-270.01" font-family="Helvetica,sans-Serif" font-size="10.00">ImageFilter</text>
</g>
<!-- Node1&#45;&gt;Node5 -->
<g id="edge4" class="edge">
<title>Node1&#45;&gt;Node5</title>
<path fill="none" stroke="orange" stroke-dasharray="5,2" d="M302.19,-181.01C363.31,-181.01 456.38,-181.01 517.45,-181.01"/>
<text text-anchor="start" x="320" y="-239.01" font-family="Helvetica,sans-Serif" font-size="10.00">itk::GradientMagnitudeRecursive</text>
<text text-anchor="middle" x="400.5" y="-228.01" font-family="Helvetica,sans-Serif" font-size="10.00">GaussianImageFilter</text>
<text text-anchor="start" x="320" y="-217.01" font-family="Helvetica,sans-Serif" font-size="10.00">itk::GradientRecursiveGaussian</text>
<text text-anchor="middle" x="400.5" y="-206.01" font-family="Helvetica,sans-Serif" font-size="10.00">ImageFilter</text>
<text text-anchor="start" x="320" y="-195.01" font-family="Helvetica,sans-Serif" font-size="10.00">itk::HessianRecursiveGaussian</text>
<text text-anchor="middle" x="400.5" y="-184.01" font-family="Helvetica,sans-Serif" font-size="10.00">ImageFilter</text>
</g>
<!-- Node4 -->
<g id="node5" class="node">
<title>Node4</title>
<g id="a_node5"><a xlink:href="group__ITKDisplacementField.html" target="_top" xlink:title="This module contains filters for computing and manipulating deformation fields. In ITK a deformation ...">
<polygon fill="white" stroke="black" points="661,-145.51 499,-145.51 499,-126.51 661,-126.51 661,-145.51"/>
<text text-anchor="middle" x="580" y="-133.51" font-family="Helvetica,sans-Serif" font-size="10.00">Module ITKDisplacementField</text>
</a>
</g>
</g>
<!-- Node1&#45;&gt;Node4 -->
<g id="edge3" class="edge">
<title>Node1&#45;&gt;Node4</title>
<path fill="none" stroke="orange" stroke-dasharray="5,2" d="M264.45,-171.49C280.02,-165.72 300.91,-158.77 320,-155.01 379.27,-143.32 447.46,-138.67 498.98,-136.88"/>
<text text-anchor="start" x="325" y="-169.01" font-family="Helvetica,sans-Serif" font-size="10.00">itk::DisplacementFieldJacobian</text>
<text text-anchor="middle" x="400.5" y="-158.01" font-family="Helvetica,sans-Serif" font-size="10.00">DeterminantFilter</text>
</g>
<!-- Node3 -->
<g id="node7" class="node">
<title>Node3</title>
<g id="a_node7"><a xlink:href="group__ITKImageGradient.html" target="_top" xlink:title="This module contains filters that compute differential operations in images. In particular,...">
<polygon fill="white" stroke="black" points="652,-23.51 508,-23.51 508,-4.51 652,-4.51 652,-23.51"/>
<text text-anchor="middle" x="580" y="-11.51" font-family="Helvetica,sans-Serif" font-size="10.00">Module ITKImageGradient</text>
</a>
</g>
</g>
<!-- Node1&#45;&gt;Node3 -->
<g id="edge2" class="edge">
<title>Node1&#45;&gt;Node3</title>
<path fill="none" stroke="orange" stroke-dasharray="5,2" d="M242.44,-171.38C248.44,-144.4 269.43,-67.89 320,-35.01 381.84,5.2 470.33,2.61 526.21,-4.51"/>
<text text-anchor="start" x="320" y="-126.01" font-family="Helvetica,sans-Serif" font-size="10.00">itk::DifferenceOfGaussians</text>
<text text-anchor="middle" x="400.5" y="-115.01" font-family="Helvetica,sans-Serif" font-size="10.00">GradientImageFilter</text>
<text text-anchor="middle" x="400.5" y="-104.01" font-family="Helvetica,sans-Serif" font-size="10.00">itk::GradientImageFilter</text>
<text text-anchor="start" x="320" y="-93.01" font-family="Helvetica,sans-Serif" font-size="10.00">itk::GradientMagnitudeImage</text>
<text text-anchor="middle" x="400.5" y="-82.01" font-family="Helvetica,sans-Serif" font-size="10.00">Filter</text>
<text text-anchor="start" x="320" y="-71.01" font-family="Helvetica,sans-Serif" font-size="10.00">itk::GradientMagnitudeRecursive</text>
<text text-anchor="middle" x="400.5" y="-60.01" font-family="Helvetica,sans-Serif" font-size="10.00">GaussianImageFilter</text>
<text text-anchor="start" x="320" y="-49.01" font-family="Helvetica,sans-Serif" font-size="10.00">itk::GradientRecursiveGaussian</text>
<text text-anchor="middle" x="400.5" y="-38.01" font-family="Helvetica,sans-Serif" font-size="10.00">ImageFilter</text>
</g>
<!-- Node2 -->
<g id="node6" class="node">
<title>Node2</title>
<g id="a_node6"><a xlink:href="group__ImageFeatureExtraction.html" target="_top" xlink:title=" ">
<polygon fill="white" stroke="black" points="140,-196.01 0,-196.01 0,-166.01 140,-166.01 140,-196.01"/>
<text text-anchor="start" x="8" y="-184.01" font-family="Helvetica,sans-Serif" font-size="10.00">Image Feature Extraction</text>
<text text-anchor="middle" x="70" y="-173.01" font-family="Helvetica,sans-Serif" font-size="10.00"> Filters</text>
</a>
</g>
</g>
<!-- Node2&#45;&gt;Node1 -->
<g id="edge1" class="edge">
<title>Node2&#45;&gt;Node1</title>
<path fill="none" stroke="black" d="M150.15,-181.01C159.1,-181.01 168.12,-181.01 176.8,-181.01"/>
<polygon fill="black" stroke="black" points="150.1,-177.51 140.1,-181.01 150.1,-184.51 150.1,-177.51"/>
</g>
</g>
</svg>
