<?xml version="1.0" encoding="UTF-8" standalone="no"?>
<!DOCTYPE svg PUBLIC "-//W3C//DTD SVG 1.1//EN"
 "http://www.w3.org/Graphics/SVG/1.1/DTD/svg11.dtd">
<!-- Generated by graphviz version 2.43.0 (0)
 -->
<!-- Title: itkArithmeticOpsFunctors.h Pages: 1 -->
<svg width="714pt" height="319pt"
 viewBox="0.00 0.00 713.50 319.00" xmlns="http://www.w3.org/2000/svg" xmlns:xlink="http://www.w3.org/1999/xlink">
<g id="graph0" class="graph" transform="scale(1 1) rotate(0) translate(4 315)">
<title>itkArithmeticOpsFunctors.h</title>
<polygon fill="white" stroke="transparent" points="-4,4 -4,-315 709.5,-315 709.5,4 -4,4"/>
<!-- Node1 -->
<g id="node1" class="node">
<title>Node1</title>
<g id="a_node1"><a xlink:title=" ">
<polygon fill="#bfbfbf" stroke="black" points="362,-291.5 362,-310.5 511,-310.5 511,-291.5 362,-291.5"/>
<text text-anchor="middle" x="436.5" y="-298.5" font-family="Helvetica,sans-Serif" font-size="10.00">itkArithmeticOpsFunctors.h</text>
</a>
</g>
</g>
<!-- Node2 -->
<g id="node2" class="node">
<title>Node2</title>
<g id="a_node2"><a xlink:href="itkMath_8h.html" target="_top" xlink:title=" ">
<polygon fill="white" stroke="black" points="405,-235.5 405,-254.5 468,-254.5 468,-235.5 405,-235.5"/>
<text text-anchor="middle" x="436.5" y="-242.5" font-family="Helvetica,sans-Serif" font-size="10.00">itkMath.h</text>
</a>
</g>
</g>
<!-- Node1&#45;&gt;Node2 -->
<g id="edge1" class="edge">
<title>Node1&#45;&gt;Node2</title>
<path fill="none" stroke="midnightblue" d="M436.5,-291.08C436.5,-284.01 436.5,-273.86 436.5,-264.99"/>
<polygon fill="midnightblue" stroke="midnightblue" points="440,-264.75 436.5,-254.75 433,-264.75 440,-264.75"/>
</g>
<!-- Node3 -->
<g id="node3" class="node">
<title>Node3</title>
<g id="a_node3"><a xlink:title=" ">
<polygon fill="white" stroke="#bfbfbf" points="199,-179.5 199,-198.5 246,-198.5 246,-179.5 199,-179.5"/>
<text text-anchor="middle" x="222.5" y="-186.5" font-family="Helvetica,sans-Serif" font-size="10.00">cmath</text>
</a>
</g>
</g>
<!-- Node2&#45;&gt;Node3 -->
<g id="edge2" class="edge">
<title>Node2&#45;&gt;Node3</title>
<path fill="none" stroke="midnightblue" d="M404.73,-236.33C370.45,-228.01 314.02,-214.16 255.98,-199.08"/>
<polygon fill="midnightblue" stroke="midnightblue" points="256.84,-195.69 246.28,-196.55 255.07,-202.46 256.84,-195.69"/>
</g>
<!-- Node4 -->
<g id="node4" class="node">
<title>Node4</title>
<g id="a_node4"><a xlink:href="itkMathDetail_8h.html" target="_top" xlink:title=" ">
<polygon fill="white" stroke="black" points="264.5,-179.5 264.5,-198.5 356.5,-198.5 356.5,-179.5 264.5,-179.5"/>
<text text-anchor="middle" x="310.5" y="-186.5" font-family="Helvetica,sans-Serif" font-size="10.00">itkMathDetail.h</text>
</a>
</g>
</g>
<!-- Node2&#45;&gt;Node4 -->
<g id="edge3" class="edge">
<title>Node2&#45;&gt;Node4</title>
<path fill="none" stroke="midnightblue" d="M416.53,-235.44C395.89,-226.6 363.44,-212.69 339.87,-202.59"/>
<polygon fill="midnightblue" stroke="midnightblue" points="340.94,-199.24 330.37,-198.52 338.18,-205.67 340.94,-199.24"/>
</g>
<!-- Node19 -->
<g id="node19" class="node">
<title>Node19</title>
<g id="a_node19"><a xlink:href="itkConceptChecking_8h.html" target="_top" xlink:title=" ">
<polygon fill="white" stroke="black" points="375,-179.5 375,-198.5 498,-198.5 498,-179.5 375,-179.5"/>
<text text-anchor="middle" x="436.5" y="-186.5" font-family="Helvetica,sans-Serif" font-size="10.00">itkConceptChecking.h</text>
</a>
</g>
</g>
<!-- Node2&#45;&gt;Node19 -->
<g id="edge22" class="edge">
<title>Node2&#45;&gt;Node19</title>
<path fill="none" stroke="midnightblue" d="M436.5,-235.08C436.5,-228.01 436.5,-217.86 436.5,-208.99"/>
<polygon fill="midnightblue" stroke="midnightblue" points="440,-208.75 436.5,-198.75 433,-208.75 440,-208.75"/>
</g>
<!-- Node22 -->
<g id="node22" class="node">
<title>Node22</title>
<g id="a_node22"><a xlink:title=" ">
<polygon fill="white" stroke="#bfbfbf" points="516,-179.5 516,-198.5 605,-198.5 605,-179.5 516,-179.5"/>
<text text-anchor="middle" x="560.5" y="-186.5" font-family="Helvetica,sans-Serif" font-size="10.00">vnl/vnl_math.h</text>
</a>
</g>
</g>
<!-- Node2&#45;&gt;Node22 -->
<g id="edge27" class="edge">
<title>Node2&#45;&gt;Node22</title>
<path fill="none" stroke="midnightblue" d="M456.15,-235.44C476.46,-226.6 508.4,-212.69 531.6,-202.59"/>
<polygon fill="midnightblue" stroke="midnightblue" points="533.17,-205.72 540.94,-198.52 530.38,-199.3 533.17,-205.72"/>
</g>
<!-- Node23 -->
<g id="node23" class="node">
<title>Node23</title>
<g id="a_node23"><a xlink:title=" ">
<polygon fill="white" stroke="#bfbfbf" points="623.5,-179.5 623.5,-198.5 705.5,-198.5 705.5,-179.5 623.5,-179.5"/>
<text text-anchor="middle" x="664.5" y="-186.5" font-family="Helvetica,sans-Serif" font-size="10.00">vxl_version.h</text>
</a>
</g>
</g>
<!-- Node2&#45;&gt;Node23 -->
<g id="edge28" class="edge">
<title>Node2&#45;&gt;Node23</title>
<path fill="none" stroke="midnightblue" d="M468.2,-236.49C507.33,-227.22 574.17,-211.39 618.83,-200.82"/>
<polygon fill="midnightblue" stroke="midnightblue" points="619.64,-204.22 628.56,-198.51 618.02,-197.41 619.64,-204.22"/>
</g>
<!-- Node5 -->
<g id="node5" class="node">
<title>Node5</title>
<g id="a_node5"><a xlink:href="itkIntTypes_8h.html" target="_top" xlink:title=" ">
<polygon fill="white" stroke="black" points="229,-123.5 229,-142.5 308,-142.5 308,-123.5 229,-123.5"/>
<text text-anchor="middle" x="268.5" y="-130.5" font-family="Helvetica,sans-Serif" font-size="10.00">itkIntTypes.h</text>
</a>
</g>
</g>
<!-- Node4&#45;&gt;Node5 -->
<g id="edge4" class="edge">
<title>Node4&#45;&gt;Node5</title>
<path fill="none" stroke="midnightblue" d="M303.56,-179.08C297.57,-171.38 288.75,-160.03 281.45,-150.65"/>
<polygon fill="midnightblue" stroke="midnightblue" points="284.21,-148.5 275.31,-142.75 278.68,-152.79 284.21,-148.5"/>
</g>
<!-- Node9 -->
<g id="node9" class="node">
<title>Node9</title>
<g id="a_node9"><a xlink:href="itkNumericTraits_8h.html" target="_top" xlink:title=" ">
<polygon fill="white" stroke="black" points="325.5,-123.5 325.5,-142.5 431.5,-142.5 431.5,-123.5 325.5,-123.5"/>
<text text-anchor="middle" x="378.5" y="-130.5" font-family="Helvetica,sans-Serif" font-size="10.00">itkNumericTraits.h</text>
</a>
</g>
</g>
<!-- Node4&#45;&gt;Node9 -->
<g id="edge8" class="edge">
<title>Node4&#45;&gt;Node9</title>
<path fill="none" stroke="midnightblue" d="M321.43,-179.32C331.67,-171.18 347.22,-158.84 359.5,-149.09"/>
<polygon fill="midnightblue" stroke="midnightblue" points="361.72,-151.79 367.38,-142.83 357.37,-146.31 361.72,-151.79"/>
</g>
<!-- Node18 -->
<g id="node18" class="node">
<title>Node18</title>
<g id="a_node18"><a xlink:title=" ">
<polygon fill="white" stroke="#bfbfbf" points="166.5,-123.5 166.5,-142.5 210.5,-142.5 210.5,-123.5 166.5,-123.5"/>
<text text-anchor="middle" x="188.5" y="-130.5" font-family="Helvetica,sans-Serif" font-size="10.00">cfenv</text>
</a>
</g>
</g>
<!-- Node4&#45;&gt;Node18 -->
<g id="edge21" class="edge">
<title>Node4&#45;&gt;Node18</title>
<path fill="none" stroke="midnightblue" d="M291.17,-179.44C271.18,-170.6 239.76,-156.69 216.94,-146.59"/>
<polygon fill="midnightblue" stroke="midnightblue" points="218.3,-143.36 207.74,-142.52 215.47,-149.76 218.3,-143.36"/>
</g>
<!-- Node6 -->
<g id="node6" class="node">
<title>Node6</title>
<g id="a_node6"><a xlink:href="itkMacro_8h.html" target="_top" xlink:title=" ">
<polygon fill="white" stroke="black" points="537.5,-6 537.5,-25 605.5,-25 605.5,-6 537.5,-6"/>
<text text-anchor="middle" x="571.5" y="-13" font-family="Helvetica,sans-Serif" font-size="10.00">itkMacro.h</text>
</a>
</g>
</g>
<!-- Node5&#45;&gt;Node6 -->
<g id="edge5" class="edge">
<title>Node5&#45;&gt;Node6</title>
<path fill="none" stroke="midnightblue" d="M282.26,-123.28C304.34,-109.62 349.37,-83.07 390.5,-67 449.54,-43.94 467.76,-49.14 528.5,-31 531.43,-30.13 534.45,-29.19 537.48,-28.22"/>
<polygon fill="midnightblue" stroke="midnightblue" points="538.63,-31.52 547.04,-25.08 536.44,-24.87 538.63,-31.52"/>
</g>
<!-- Node7 -->
<g id="node7" class="node">
<title>Node7</title>
<g id="a_node7"><a xlink:title=" ">
<polygon fill="white" stroke="#bfbfbf" points="129.5,-67.5 129.5,-86.5 179.5,-86.5 179.5,-67.5 129.5,-67.5"/>
<text text-anchor="middle" x="154.5" y="-74.5" font-family="Helvetica,sans-Serif" font-size="10.00">cstdint</text>
</a>
</g>
</g>
<!-- Node5&#45;&gt;Node7 -->
<g id="edge6" class="edge">
<title>Node5&#45;&gt;Node7</title>
<path fill="none" stroke="midnightblue" d="M250.44,-123.44C231.93,-114.68 202.92,-100.94 181.64,-90.86"/>
<polygon fill="midnightblue" stroke="midnightblue" points="183.01,-87.63 172.48,-86.52 180.02,-93.96 183.01,-87.63"/>
</g>
<!-- Node8 -->
<g id="node8" class="node">
<title>Node8</title>
<g id="a_node8"><a xlink:title=" ">
<polygon fill="white" stroke="#bfbfbf" points="61.5,-67.5 61.5,-86.5 111.5,-86.5 111.5,-67.5 61.5,-67.5"/>
<text text-anchor="middle" x="86.5" y="-74.5" font-family="Helvetica,sans-Serif" font-size="10.00">climits</text>
</a>
</g>
</g>
<!-- Node5&#45;&gt;Node8 -->
<g id="edge7" class="edge">
<title>Node5&#45;&gt;Node8</title>
<path fill="none" stroke="midnightblue" d="M239.66,-123.44C207.55,-113.92 155.66,-98.52 121.31,-88.33"/>
<polygon fill="midnightblue" stroke="midnightblue" points="122.27,-84.96 111.69,-85.47 120.28,-91.67 122.27,-84.96"/>
</g>
<!-- Node9&#45;&gt;Node6 -->
<g id="edge9" class="edge">
<title>Node9&#45;&gt;Node6</title>
<path fill="none" stroke="midnightblue" d="M380.51,-123.48C384.23,-109.6 393.49,-82.16 411.5,-67 453.12,-31.96 476.72,-47.69 528.5,-31 531.24,-30.12 534.08,-29.19 536.92,-28.25"/>
<polygon fill="midnightblue" stroke="midnightblue" points="538.15,-31.53 546.53,-25.05 535.93,-24.89 538.15,-31.53"/>
</g>
<!-- Node10 -->
<g id="node10" class="node">
<title>Node10</title>
<g id="a_node10"><a xlink:title=" ">
<polygon fill="white" stroke="#bfbfbf" points="497.5,-67.5 497.5,-86.5 541.5,-86.5 541.5,-67.5 497.5,-67.5"/>
<text text-anchor="middle" x="519.5" y="-74.5" font-family="Helvetica,sans-Serif" font-size="10.00">limits</text>
</a>
</g>
</g>
<!-- Node9&#45;&gt;Node10 -->
<g id="edge10" class="edge">
<title>Node9&#45;&gt;Node10</title>
<path fill="none" stroke="midnightblue" d="M400.84,-123.44C424.25,-114.48 461.24,-100.31 487.69,-90.18"/>
<polygon fill="midnightblue" stroke="midnightblue" points="489.18,-93.36 497.26,-86.52 486.67,-86.82 489.18,-93.36"/>
</g>
<!-- Node11 -->
<g id="node11" class="node">
<title>Node11</title>
<g id="a_node11"><a xlink:title=" ">
<polygon fill="white" stroke="#bfbfbf" points="420,-67.5 420,-86.5 479,-86.5 479,-67.5 420,-67.5"/>
<text text-anchor="middle" x="449.5" y="-74.5" font-family="Helvetica,sans-Serif" font-size="10.00">complex</text>
</a>
</g>
</g>
<!-- Node9&#45;&gt;Node11 -->
<g id="edge11" class="edge">
<title>Node9&#45;&gt;Node11</title>
<path fill="none" stroke="midnightblue" d="M389.91,-123.32C400.61,-115.18 416.84,-102.84 429.66,-93.09"/>
<polygon fill="midnightblue" stroke="midnightblue" points="432.04,-95.67 437.89,-86.83 427.81,-90.1 432.04,-95.67"/>
</g>
<!-- Node12 -->
<g id="node12" class="node">
<title>Node12</title>
<g id="a_node12"><a xlink:href="itkFixedArray_8h.html" target="_top" xlink:title=" ">
<polygon fill="white" stroke="black" points="236,-67.5 236,-86.5 325,-86.5 325,-67.5 236,-67.5"/>
<text text-anchor="middle" x="280.5" y="-74.5" font-family="Helvetica,sans-Serif" font-size="10.00">itkFixedArray.h</text>
</a>
</g>
</g>
<!-- Node9&#45;&gt;Node12 -->
<g id="edge12" class="edge">
<title>Node9&#45;&gt;Node12</title>
<path fill="none" stroke="midnightblue" d="M362.75,-123.32C347.18,-114.74 323.12,-101.49 305.04,-91.52"/>
<polygon fill="midnightblue" stroke="midnightblue" points="306.65,-88.42 296.21,-86.65 303.28,-94.55 306.65,-88.42"/>
</g>
<!-- Node12&#45;&gt;Node6 -->
<g id="edge13" class="edge">
<title>Node12&#45;&gt;Node6</title>
<path fill="none" stroke="midnightblue" d="M325.04,-68.72C385.62,-58.68 490.79,-40.72 528.5,-31 531.7,-30.17 535.01,-29.23 538.31,-28.23"/>
<polygon fill="midnightblue" stroke="midnightblue" points="539.58,-31.49 548.03,-25.1 537.44,-24.83 539.58,-31.49"/>
</g>
<!-- Node13 -->
<g id="node13" class="node">
<title>Node13</title>
<g id="a_node13"><a xlink:href="itkMakeFilled_8h.html" target="_top" xlink:title=" ">
<polygon fill="white" stroke="black" points="346,-6 346,-25 437,-25 437,-6 346,-6"/>
<text text-anchor="middle" x="391.5" y="-13" font-family="Helvetica,sans-Serif" font-size="10.00">itkMakeFilled.h</text>
</a>
</g>
</g>
<!-- Node12&#45;&gt;Node13 -->
<g id="edge14" class="edge">
<title>Node12&#45;&gt;Node13</title>
<path fill="none" stroke="midnightblue" d="M296.4,-67.48C314.78,-57.62 345.26,-41.29 366.74,-29.77"/>
<polygon fill="midnightblue" stroke="midnightblue" points="368.47,-32.82 375.63,-25.01 365.16,-26.65 368.47,-32.82"/>
</g>
<!-- Node14 -->
<g id="node14" class="node">
<title>Node14</title>
<g id="a_node14"><a xlink:title=" ">
<polygon fill="white" stroke="#bfbfbf" points="455.5,-6 455.5,-25 519.5,-25 519.5,-6 455.5,-6"/>
<text text-anchor="middle" x="487.5" y="-13" font-family="Helvetica,sans-Serif" font-size="10.00">algorithm</text>
</a>
</g>
</g>
<!-- Node12&#45;&gt;Node14 -->
<g id="edge15" class="edge">
<title>Node12&#45;&gt;Node14</title>
<path fill="none" stroke="midnightblue" d="M315.05,-67.44C348.78,-58.9 401.46,-45.05 446.5,-31 449.11,-30.19 451.81,-29.31 454.51,-28.41"/>
<polygon fill="midnightblue" stroke="midnightblue" points="455.86,-31.64 464.19,-25.09 453.59,-25.02 455.86,-31.64"/>
</g>
<!-- Node15 -->
<g id="node15" class="node">
<title>Node15</title>
<g id="a_node15"><a xlink:title=" ">
<polygon fill="white" stroke="#bfbfbf" points="166.5,-6 166.5,-25 208.5,-25 208.5,-6 166.5,-6"/>
<text text-anchor="middle" x="187.5" y="-13" font-family="Helvetica,sans-Serif" font-size="10.00">array</text>
</a>
</g>
</g>
<!-- Node12&#45;&gt;Node15 -->
<g id="edge16" class="edge">
<title>Node12&#45;&gt;Node15</title>
<path fill="none" stroke="midnightblue" d="M267.18,-67.48C252.12,-57.84 227.38,-42.02 209.46,-30.55"/>
<polygon fill="midnightblue" stroke="midnightblue" points="211.11,-27.45 200.8,-25.01 207.34,-33.35 211.11,-27.45"/>
</g>
<!-- Node16 -->
<g id="node16" class="node">
<title>Node16</title>
<g id="a_node16"><a xlink:title=" ">
<polygon fill="white" stroke="#bfbfbf" points="227,-6 227,-25 328,-25 328,-6 227,-6"/>
<text text-anchor="middle" x="277.5" y="-13" font-family="Helvetica,sans-Serif" font-size="10.00">itkFixedArray.hxx</text>
</a>
</g>
</g>
<!-- Node12&#45;&gt;Node16 -->
<g id="edge17" class="edge">
<title>Node12&#45;&gt;Node16</title>
<path fill="none" stroke="midnightblue" d="M280.07,-67.48C279.65,-59.08 278.99,-45.98 278.44,-35.16"/>
<polygon fill="midnightblue" stroke="midnightblue" points="281.93,-34.82 277.93,-25.01 274.94,-35.17 281.93,-34.82"/>
</g>
<!-- Node17 -->
<g id="node17" class="node">
<title>Node17</title>
<g id="a_node17"><a xlink:href="itkNumericTraitsFixedArrayPixel_8h.html" target="_top" xlink:title=" ">
<polygon fill="white" stroke="black" points="0,-0.5 0,-30.5 149,-30.5 149,-0.5 0,-0.5"/>
<text text-anchor="start" x="8" y="-18.5" font-family="Helvetica,sans-Serif" font-size="10.00">itkNumericTraitsFixedArray</text>
<text text-anchor="middle" x="74.5" y="-7.5" font-family="Helvetica,sans-Serif" font-size="10.00">Pixel.h</text>
</a>
</g>
</g>
<!-- Node12&#45;&gt;Node17 -->
<g id="edge18" class="edge">
<title>Node12&#45;&gt;Node17</title>
<path fill="none" stroke="midnightblue" d="M246.08,-67.48C213.52,-58.63 164.36,-44.55 126.95,-33.43"/>
<polygon fill="midnightblue" stroke="midnightblue" points="127.8,-30.03 117.22,-30.52 125.8,-36.74 127.8,-30.03"/>
</g>
<!-- Node17&#45;&gt;Node9 -->
<g id="edge19" class="edge">
<title>Node17&#45;&gt;Node9</title>
<path fill="none" stroke="midnightblue" d="M107.7,-30.5C130.58,-40.33 161.61,-53.99 188.5,-67 205.68,-75.31 208.82,-79.81 226.5,-87 261.2,-101.11 301.97,-112.94 332.55,-120.92"/>
<polygon fill="midnightblue" stroke="midnightblue" points="331.95,-124.38 342.5,-123.48 333.69,-117.6 331.95,-124.38"/>
</g>
<!-- Node17&#45;&gt;Node12 -->
<g id="edge20" class="edge">
<title>Node17&#45;&gt;Node12</title>
<path fill="none" stroke="midnightblue" d="M128.88,-30.52C166.05,-40.87 214.09,-54.78 246.09,-64.48"/>
<polygon fill="midnightblue" stroke="midnightblue" points="245.3,-67.9 255.89,-67.48 247.34,-61.21 245.3,-67.9"/>
</g>
<!-- Node19&#45;&gt;Node9 -->
<g id="edge25" class="edge">
<title>Node19&#45;&gt;Node9</title>
<path fill="none" stroke="midnightblue" d="M427.18,-179.32C418.61,-171.34 405.69,-159.31 395.31,-149.65"/>
<polygon fill="midnightblue" stroke="midnightblue" points="397.69,-147.09 387.99,-142.83 392.92,-152.21 397.69,-147.09"/>
</g>
<!-- Node20 -->
<g id="node20" class="node">
<title>Node20</title>
<g id="a_node20"><a xlink:href="itkPixelTraits_8h.html" target="_top" xlink:title=" ">
<polygon fill="white" stroke="black" points="527.5,-123.5 527.5,-142.5 615.5,-142.5 615.5,-123.5 527.5,-123.5"/>
<text text-anchor="middle" x="571.5" y="-130.5" font-family="Helvetica,sans-Serif" font-size="10.00">itkPixelTraits.h</text>
</a>
</g>
</g>
<!-- Node19&#45;&gt;Node20 -->
<g id="edge23" class="edge">
<title>Node19&#45;&gt;Node20</title>
<path fill="none" stroke="midnightblue" d="M457.89,-179.44C480.21,-170.52 515.4,-156.44 540.71,-146.32"/>
<polygon fill="midnightblue" stroke="midnightblue" points="542.22,-149.48 550.21,-142.52 539.62,-142.98 542.22,-149.48"/>
</g>
<!-- Node21 -->
<g id="node21" class="node">
<title>Node21</title>
<g id="a_node21"><a xlink:title=" ">
<polygon fill="white" stroke="#bfbfbf" points="449.5,-123.5 449.5,-142.5 509.5,-142.5 509.5,-123.5 449.5,-123.5"/>
<text text-anchor="middle" x="479.5" y="-130.5" font-family="Helvetica,sans-Serif" font-size="10.00">iostream</text>
</a>
</g>
</g>
<!-- Node19&#45;&gt;Node21 -->
<g id="edge26" class="edge">
<title>Node19&#45;&gt;Node21</title>
<path fill="none" stroke="midnightblue" d="M443.6,-179.08C449.74,-171.38 458.77,-160.03 466.24,-150.65"/>
<polygon fill="midnightblue" stroke="midnightblue" points="469.04,-152.75 472.53,-142.75 463.56,-148.39 469.04,-152.75"/>
</g>
<!-- Node20&#45;&gt;Node6 -->
<g id="edge24" class="edge">
<title>Node20&#45;&gt;Node6</title>
<path fill="none" stroke="midnightblue" d="M571.5,-123.32C571.5,-104.76 571.5,-60.84 571.5,-35.47"/>
<polygon fill="midnightblue" stroke="midnightblue" points="575,-35.28 571.5,-25.28 568,-35.28 575,-35.28"/>
</g>
</g>
</svg>
