<?xml version="1.0" encoding="UTF-8" standalone="no"?>
<!DOCTYPE svg PUBLIC "-//W3C//DTD SVG 1.1//EN"
 "http://www.w3.org/Graphics/SVG/1.1/DTD/svg11.dtd">
<!-- Generated by graphviz version 2.43.0 (0)
 -->
<!-- Title: itkArchetypeSeriesFileNames.h Pages: 1 -->
<svg width="981pt" height="588pt"
 viewBox="0.00 0.00 980.50 588.00" xmlns="http://www.w3.org/2000/svg" xmlns:xlink="http://www.w3.org/1999/xlink">
<g id="graph0" class="graph" transform="scale(1 1) rotate(0) translate(4 584)">
<title>itkArchetypeSeriesFileNames.h</title>
<polygon fill="white" stroke="transparent" points="-4,4 -4,-584 976.5,-584 976.5,4 -4,4"/>
<!-- Node1 -->
<g id="node1" class="node">
<title>Node1</title>
<g id="a_node1"><a xlink:title=" ">
<polygon fill="#bfbfbf" stroke="black" points="427.5,-560.5 427.5,-579.5 597.5,-579.5 597.5,-560.5 427.5,-560.5"/>
<text text-anchor="middle" x="512.5" y="-567.5" font-family="Helvetica,sans-Serif" font-size="10.00">itkArchetypeSeriesFileNames.h</text>
</a>
</g>
</g>
<!-- Node2 -->
<g id="node2" class="node">
<title>Node2</title>
<g id="a_node2"><a xlink:title=" ">
<polygon fill="white" stroke="#bfbfbf" points="108.5,-504.5 108.5,-523.5 246.5,-523.5 246.5,-504.5 108.5,-504.5"/>
<text text-anchor="middle" x="177.5" y="-511.5" font-family="Helvetica,sans-Serif" font-size="10.00">ITKIOImageBaseExport.h</text>
</a>
</g>
</g>
<!-- Node1&#45;&gt;Node2 -->
<g id="edge1" class="edge">
<title>Node1&#45;&gt;Node2</title>
<path fill="none" stroke="midnightblue" d="M459.42,-560.44C400,-550.87 303.78,-535.36 240.57,-525.17"/>
<polygon fill="midnightblue" stroke="midnightblue" points="240.76,-521.65 230.33,-523.52 239.65,-528.56 240.76,-521.65"/>
</g>
<!-- Node3 -->
<g id="node3" class="node">
<title>Node3</title>
<g id="a_node3"><a xlink:href="itkObject_8h.html" target="_top" xlink:title=" ">
<polygon fill="white" stroke="black" points="484.5,-336.5 484.5,-355.5 554.5,-355.5 554.5,-336.5 484.5,-336.5"/>
<text text-anchor="middle" x="519.5" y="-343.5" font-family="Helvetica,sans-Serif" font-size="10.00">itkObject.h</text>
</a>
</g>
</g>
<!-- Node1&#45;&gt;Node3 -->
<g id="edge2" class="edge">
<title>Node1&#45;&gt;Node3</title>
<path fill="none" stroke="midnightblue" d="M512.77,-560.3C513.8,-527.63 517.45,-411.87 518.9,-365.96"/>
<polygon fill="midnightblue" stroke="midnightblue" points="522.4,-365.99 519.22,-355.88 515.41,-365.77 522.4,-365.99"/>
</g>
<!-- Node23 -->
<g id="node23" class="node">
<title>Node23</title>
<g id="a_node23"><a xlink:title=" ">
<polygon fill="white" stroke="#bfbfbf" points="791,-224.5 791,-243.5 838,-243.5 838,-224.5 791,-224.5"/>
<text text-anchor="middle" x="814.5" y="-231.5" font-family="Helvetica,sans-Serif" font-size="10.00">vector</text>
</a>
</g>
</g>
<!-- Node1&#45;&gt;Node23 -->
<g id="edge48" class="edge">
<title>Node1&#45;&gt;Node23</title>
<path fill="none" stroke="midnightblue" d="M597.68,-565.91C730.65,-558.74 972.5,-535.21 972.5,-459 972.5,-459 972.5,-459 972.5,-345 972.5,-284.87 894.48,-254.93 848.09,-242.44"/>
<polygon fill="midnightblue" stroke="midnightblue" points="848.71,-238.99 838.15,-239.9 846.98,-245.77 848.71,-238.99"/>
</g>
<!-- Node25 -->
<g id="node25" class="node">
<title>Node25</title>
<g id="a_node25"><a xlink:title=" ">
<polygon fill="white" stroke="#bfbfbf" points="240.5,-224.5 240.5,-243.5 284.5,-243.5 284.5,-224.5 240.5,-224.5"/>
<text text-anchor="middle" x="262.5" y="-231.5" font-family="Helvetica,sans-Serif" font-size="10.00">string</text>
</a>
</g>
</g>
<!-- Node1&#45;&gt;Node25 -->
<g id="edge49" class="edge">
<title>Node1&#45;&gt;Node25</title>
<path fill="none" stroke="midnightblue" d="M427.25,-563.64C358.96,-554.16 274.5,-528.42 274.5,-459 274.5,-459 274.5,-459 274.5,-345 274.5,-312.76 269.34,-275.51 265.79,-253.68"/>
<polygon fill="midnightblue" stroke="midnightblue" points="269.19,-252.8 264.07,-243.52 262.29,-253.97 269.19,-252.8"/>
</g>
<!-- Node28 -->
<g id="node28" class="node">
<title>Node28</title>
<g id="a_node28"><a xlink:href="itkObjectFactory_8h.html" target="_top" xlink:title=" ">
<polygon fill="white" stroke="black" points="603.5,-504.5 603.5,-523.5 707.5,-523.5 707.5,-504.5 603.5,-504.5"/>
<text text-anchor="middle" x="655.5" y="-511.5" font-family="Helvetica,sans-Serif" font-size="10.00">itkObjectFactory.h</text>
</a>
</g>
</g>
<!-- Node1&#45;&gt;Node28 -->
<g id="edge38" class="edge">
<title>Node1&#45;&gt;Node28</title>
<path fill="none" stroke="midnightblue" d="M535.16,-560.44C558.9,-551.48 596.41,-537.31 623.24,-527.18"/>
<polygon fill="midnightblue" stroke="midnightblue" points="624.83,-530.32 632.95,-523.52 622.36,-523.77 624.83,-530.32"/>
</g>
<!-- Node4 -->
<g id="node4" class="node">
<title>Node4</title>
<g id="a_node4"><a xlink:href="itkLightObject_8h.html" target="_top" xlink:title=" ">
<polygon fill="white" stroke="black" points="342.5,-168.5 342.5,-187.5 436.5,-187.5 436.5,-168.5 342.5,-168.5"/>
<text text-anchor="middle" x="389.5" y="-175.5" font-family="Helvetica,sans-Serif" font-size="10.00">itkLightObject.h</text>
</a>
</g>
</g>
<!-- Node3&#45;&gt;Node4 -->
<g id="edge3" class="edge">
<title>Node3&#45;&gt;Node4</title>
<path fill="none" stroke="midnightblue" d="M484.17,-337.58C439.55,-326.11 364.58,-299.33 331.5,-244 319.67,-224.21 342.49,-204.94 362.9,-192.59"/>
<polygon fill="midnightblue" stroke="midnightblue" points="364.72,-195.58 371.68,-187.58 361.26,-189.5 364.72,-195.58"/>
</g>
<!-- Node16 -->
<g id="node16" class="node">
<title>Node16</title>
<g id="a_node16"><a xlink:href="itkSingletonMacro_8h.html" target="_top" xlink:title=" ">
<polygon fill="white" stroke="black" points="602.5,-56.5 602.5,-75.5 716.5,-75.5 716.5,-56.5 602.5,-56.5"/>
<text text-anchor="middle" x="659.5" y="-63.5" font-family="Helvetica,sans-Serif" font-size="10.00">itkSingletonMacro.h</text>
</a>
</g>
</g>
<!-- Node3&#45;&gt;Node16 -->
<g id="edge36" class="edge">
<title>Node3&#45;&gt;Node16</title>
<path fill="none" stroke="midnightblue" d="M554.74,-341.97C613.35,-334.79 724.5,-311.14 724.5,-235 724.5,-235 724.5,-235 724.5,-177 724.5,-139.18 695.66,-102.94 676.41,-82.96"/>
<polygon fill="midnightblue" stroke="midnightblue" points="678.64,-80.24 669.09,-75.66 673.7,-85.2 678.64,-80.24"/>
</g>
<!-- Node19 -->
<g id="node19" class="node">
<title>Node19</title>
<g id="a_node19"><a xlink:href="itkEventObject_8h.html" target="_top" xlink:title=" ">
<polygon fill="white" stroke="black" points="205.5,-168.5 205.5,-187.5 303.5,-187.5 303.5,-168.5 205.5,-168.5"/>
<text text-anchor="middle" x="254.5" y="-175.5" font-family="Helvetica,sans-Serif" font-size="10.00">itkEventObject.h</text>
</a>
</g>
</g>
<!-- Node3&#45;&gt;Node19 -->
<g id="edge24" class="edge">
<title>Node3&#45;&gt;Node19</title>
<path fill="none" stroke="midnightblue" d="M484.42,-345.18C420.58,-343.35 286.92,-329 231.5,-244 221.74,-229.03 231.19,-209.41 240.76,-195.66"/>
<polygon fill="midnightblue" stroke="midnightblue" points="243.63,-197.67 246.86,-187.58 238.04,-193.45 243.63,-197.67"/>
</g>
<!-- Node20 -->
<g id="node20" class="node">
<title>Node20</title>
<g id="a_node20"><a xlink:href="itkMetaDataDictionary_8h.html" target="_top" xlink:title=" ">
<polygon fill="white" stroke="black" points="452,-280.5 452,-299.5 587,-299.5 587,-280.5 452,-280.5"/>
<text text-anchor="middle" x="519.5" y="-287.5" font-family="Helvetica,sans-Serif" font-size="10.00">itkMetaDataDictionary.h</text>
</a>
</g>
</g>
<!-- Node3&#45;&gt;Node20 -->
<g id="edge26" class="edge">
<title>Node3&#45;&gt;Node20</title>
<path fill="none" stroke="midnightblue" d="M519.5,-336.08C519.5,-329.01 519.5,-318.86 519.5,-309.99"/>
<polygon fill="midnightblue" stroke="midnightblue" points="523,-309.75 519.5,-299.75 516,-309.75 523,-309.75"/>
</g>
<!-- Node27 -->
<g id="node27" class="node">
<title>Node27</title>
<g id="a_node27"><a xlink:title=" ">
<polygon fill="white" stroke="#bfbfbf" points="605,-280.5 605,-299.5 670,-299.5 670,-280.5 605,-280.5"/>
<text text-anchor="middle" x="637.5" y="-287.5" font-family="Helvetica,sans-Serif" font-size="10.00">functional</text>
</a>
</g>
</g>
<!-- Node3&#45;&gt;Node27 -->
<g id="edge37" class="edge">
<title>Node3&#45;&gt;Node27</title>
<path fill="none" stroke="midnightblue" d="M538.2,-336.44C557.44,-327.64 587.65,-313.81 609.7,-303.72"/>
<polygon fill="midnightblue" stroke="midnightblue" points="611.25,-306.86 618.89,-299.52 608.34,-300.5 611.25,-306.86"/>
</g>
<!-- Node5 -->
<g id="node5" class="node">
<title>Node5</title>
<g id="a_node5"><a xlink:href="itkMacro_8h.html" target="_top" xlink:title=" ">
<polygon fill="white" stroke="black" points="425.5,-0.5 425.5,-19.5 493.5,-19.5 493.5,-0.5 425.5,-0.5"/>
<text text-anchor="middle" x="459.5" y="-7.5" font-family="Helvetica,sans-Serif" font-size="10.00">itkMacro.h</text>
</a>
</g>
</g>
<!-- Node4&#45;&gt;Node5 -->
<g id="edge4" class="edge">
<title>Node4&#45;&gt;Node5</title>
<path fill="none" stroke="midnightblue" d="M343.6,-168.43C309.49,-159.49 270.73,-142.4 282.5,-112 303.46,-57.86 370.27,-31.63 415.54,-19.77"/>
<polygon fill="midnightblue" stroke="midnightblue" points="416.55,-23.13 425.41,-17.32 414.87,-16.33 416.55,-23.13"/>
</g>
<!-- Node6 -->
<g id="node6" class="node">
<title>Node6</title>
<g id="a_node6"><a xlink:href="itkSmartPointer_8h.html" target="_top" xlink:title=" ">
<polygon fill="white" stroke="black" points="134,-112.5 134,-131.5 235,-131.5 235,-112.5 134,-112.5"/>
<text text-anchor="middle" x="184.5" y="-119.5" font-family="Helvetica,sans-Serif" font-size="10.00">itkSmartPointer.h</text>
</a>
</g>
</g>
<!-- Node4&#45;&gt;Node6 -->
<g id="edge5" class="edge">
<title>Node4&#45;&gt;Node6</title>
<path fill="none" stroke="midnightblue" d="M357.02,-168.44C321.78,-159.16 265.4,-144.31 226.74,-134.13"/>
<polygon fill="midnightblue" stroke="midnightblue" points="227.39,-130.68 216.83,-131.52 225.61,-137.45 227.39,-130.68"/>
</g>
<!-- Node7 -->
<g id="node7" class="node">
<title>Node7</title>
<g id="a_node7"><a xlink:title=" ">
<polygon fill="white" stroke="#bfbfbf" points="358.5,-56.5 358.5,-75.5 418.5,-75.5 418.5,-56.5 358.5,-56.5"/>
<text text-anchor="middle" x="388.5" y="-63.5" font-family="Helvetica,sans-Serif" font-size="10.00">iostream</text>
</a>
</g>
</g>
<!-- Node4&#45;&gt;Node7 -->
<g id="edge22" class="edge">
<title>Node4&#45;&gt;Node7</title>
<path fill="none" stroke="midnightblue" d="M389.42,-168.37C389.26,-150.62 388.89,-109.67 388.67,-85.6"/>
<polygon fill="midnightblue" stroke="midnightblue" points="392.17,-85.56 388.58,-75.59 385.17,-85.62 392.17,-85.56"/>
</g>
<!-- Node11 -->
<g id="node11" class="node">
<title>Node11</title>
<g id="a_node11"><a xlink:href="itkTimeStamp_8h.html" target="_top" xlink:title=" ">
<polygon fill="white" stroke="black" points="570,-112.5 570,-131.5 665,-131.5 665,-112.5 570,-112.5"/>
<text text-anchor="middle" x="617.5" y="-119.5" font-family="Helvetica,sans-Serif" font-size="10.00">itkTimeStamp.h</text>
</a>
</g>
</g>
<!-- Node4&#45;&gt;Node11 -->
<g id="edge10" class="edge">
<title>Node4&#45;&gt;Node11</title>
<path fill="none" stroke="midnightblue" d="M425.63,-168.44C465.15,-159.08 528.6,-144.06 571.61,-133.87"/>
<polygon fill="midnightblue" stroke="midnightblue" points="572.62,-137.23 581.54,-131.52 571,-130.42 572.62,-137.23"/>
</g>
<!-- Node15 -->
<g id="node15" class="node">
<title>Node15</title>
<g id="a_node15"><a xlink:title=" ">
<polygon fill="white" stroke="#bfbfbf" points="452.5,-56.5 452.5,-75.5 502.5,-75.5 502.5,-56.5 452.5,-56.5"/>
<text text-anchor="middle" x="477.5" y="-63.5" font-family="Helvetica,sans-Serif" font-size="10.00">atomic</text>
</a>
</g>
</g>
<!-- Node4&#45;&gt;Node15 -->
<g id="edge21" class="edge">
<title>Node4&#45;&gt;Node15</title>
<path fill="none" stroke="midnightblue" d="M396.41,-168.37C410.99,-150.14 445.16,-107.43 464.16,-83.68"/>
<polygon fill="midnightblue" stroke="midnightblue" points="467.11,-85.59 470.63,-75.59 461.65,-81.21 467.11,-85.59"/>
</g>
<!-- Node17 -->
<g id="node17" class="node">
<title>Node17</title>
<g id="a_node17"><a xlink:href="itkIndent_8h.html" target="_top" xlink:title=" ">
<polygon fill="white" stroke="black" points="292,-112.5 292,-131.5 361,-131.5 361,-112.5 292,-112.5"/>
<text text-anchor="middle" x="326.5" y="-119.5" font-family="Helvetica,sans-Serif" font-size="10.00">itkIndent.h</text>
</a>
</g>
</g>
<!-- Node4&#45;&gt;Node17 -->
<g id="edge18" class="edge">
<title>Node4&#45;&gt;Node17</title>
<path fill="none" stroke="midnightblue" d="M379.38,-168.32C369.97,-160.26 355.76,-148.08 344.43,-138.37"/>
<polygon fill="midnightblue" stroke="midnightblue" points="346.68,-135.68 336.81,-131.83 342.12,-141 346.68,-135.68"/>
</g>
<!-- Node18 -->
<g id="node18" class="node">
<title>Node18</title>
<g id="a_node18"><a xlink:title=" ">
<polygon fill="white" stroke="#bfbfbf" points="456,-112.5 456,-131.5 513,-131.5 513,-112.5 456,-112.5"/>
<text text-anchor="middle" x="484.5" y="-119.5" font-family="Helvetica,sans-Serif" font-size="10.00">typeinfo</text>
</a>
</g>
</g>
<!-- Node4&#45;&gt;Node18 -->
<g id="edge23" class="edge">
<title>Node4&#45;&gt;Node18</title>
<path fill="none" stroke="midnightblue" d="M404.76,-168.32C419.72,-159.82 442.75,-146.73 460.23,-136.8"/>
<polygon fill="midnightblue" stroke="midnightblue" points="462.31,-139.64 469.27,-131.65 458.85,-133.55 462.31,-139.64"/>
</g>
<!-- Node6&#45;&gt;Node7 -->
<g id="edge6" class="edge">
<title>Node6&#45;&gt;Node7</title>
<path fill="none" stroke="midnightblue" d="M216.82,-112.44C252.51,-103 309.99,-87.78 348.48,-77.59"/>
<polygon fill="midnightblue" stroke="midnightblue" points="349.55,-80.93 358.32,-74.99 347.76,-74.16 349.55,-80.93"/>
</g>
<!-- Node8 -->
<g id="node8" class="node">
<title>Node8</title>
<g id="a_node8"><a xlink:title=" ">
<polygon fill="white" stroke="#bfbfbf" points="190,-56.5 190,-75.5 235,-75.5 235,-56.5 190,-56.5"/>
<text text-anchor="middle" x="212.5" y="-63.5" font-family="Helvetica,sans-Serif" font-size="10.00">utility</text>
</a>
</g>
</g>
<!-- Node6&#45;&gt;Node8 -->
<g id="edge7" class="edge">
<title>Node6&#45;&gt;Node8</title>
<path fill="none" stroke="midnightblue" d="M189.12,-112.08C192.96,-104.69 198.52,-93.95 203.26,-84.81"/>
<polygon fill="midnightblue" stroke="midnightblue" points="206.47,-86.24 207.96,-75.75 200.25,-83.02 206.47,-86.24"/>
</g>
<!-- Node9 -->
<g id="node9" class="node">
<title>Node9</title>
<g id="a_node9"><a xlink:title=" ">
<polygon fill="white" stroke="#bfbfbf" points="0,-56.5 0,-75.5 69,-75.5 69,-56.5 0,-56.5"/>
<text text-anchor="middle" x="34.5" y="-63.5" font-family="Helvetica,sans-Serif" font-size="10.00">type_traits</text>
</a>
</g>
</g>
<!-- Node6&#45;&gt;Node9 -->
<g id="edge8" class="edge">
<title>Node6&#45;&gt;Node9</title>
<path fill="none" stroke="midnightblue" d="M160.73,-112.44C135.61,-103.4 95.79,-89.06 67.6,-78.92"/>
<polygon fill="midnightblue" stroke="midnightblue" points="68.75,-75.61 58.16,-75.52 66.38,-82.2 68.75,-75.61"/>
</g>
<!-- Node10 -->
<g id="node10" class="node">
<title>Node10</title>
<g id="a_node10"><a xlink:title=" ">
<polygon fill="white" stroke="#bfbfbf" points="87,-56.5 87,-75.5 172,-75.5 172,-56.5 87,-56.5"/>
<text text-anchor="middle" x="129.5" y="-63.5" font-family="Helvetica,sans-Serif" font-size="10.00">itkConfigure.h</text>
</a>
</g>
</g>
<!-- Node6&#45;&gt;Node10 -->
<g id="edge9" class="edge">
<title>Node6&#45;&gt;Node10</title>
<path fill="none" stroke="midnightblue" d="M175.42,-112.08C167.33,-104.14 155.3,-92.34 145.59,-82.8"/>
<polygon fill="midnightblue" stroke="midnightblue" points="148,-80.26 138.41,-75.75 143.1,-85.25 148,-80.26"/>
</g>
<!-- Node11&#45;&gt;Node5 -->
<g id="edge11" class="edge">
<title>Node11&#45;&gt;Node5</title>
<path fill="none" stroke="midnightblue" d="M605.1,-112.37C578.1,-93.57 513.75,-48.77 480.38,-25.53"/>
<polygon fill="midnightblue" stroke="midnightblue" points="482.05,-22.43 471.84,-19.59 478.05,-28.18 482.05,-22.43"/>
</g>
<!-- Node12 -->
<g id="node12" class="node">
<title>Node12</title>
<g id="a_node12"><a xlink:href="itkIntTypes_8h.html" target="_top" xlink:title=" ">
<polygon fill="white" stroke="black" points="735,-56.5 735,-75.5 814,-75.5 814,-56.5 735,-56.5"/>
<text text-anchor="middle" x="774.5" y="-63.5" font-family="Helvetica,sans-Serif" font-size="10.00">itkIntTypes.h</text>
</a>
</g>
</g>
<!-- Node11&#45;&gt;Node12 -->
<g id="edge12" class="edge">
<title>Node11&#45;&gt;Node12</title>
<path fill="none" stroke="midnightblue" d="M642.38,-112.44C668.79,-103.36 710.72,-88.94 740.24,-78.78"/>
<polygon fill="midnightblue" stroke="midnightblue" points="741.42,-82.08 749.74,-75.52 739.14,-75.46 741.42,-82.08"/>
</g>
<!-- Node11&#45;&gt;Node15 -->
<g id="edge16" class="edge">
<title>Node11&#45;&gt;Node15</title>
<path fill="none" stroke="midnightblue" d="M595.32,-112.44C572.07,-103.48 535.35,-89.31 509.08,-79.18"/>
<polygon fill="midnightblue" stroke="midnightblue" points="510.17,-75.85 499.58,-75.52 507.65,-82.38 510.17,-75.85"/>
</g>
<!-- Node11&#45;&gt;Node16 -->
<g id="edge17" class="edge">
<title>Node11&#45;&gt;Node16</title>
<path fill="none" stroke="midnightblue" d="M624.44,-112.08C630.43,-104.38 639.25,-93.03 646.55,-83.65"/>
<polygon fill="midnightblue" stroke="midnightblue" points="649.32,-85.79 652.69,-75.75 643.79,-81.5 649.32,-85.79"/>
</g>
<!-- Node12&#45;&gt;Node5 -->
<g id="edge13" class="edge">
<title>Node12&#45;&gt;Node5</title>
<path fill="none" stroke="midnightblue" d="M734.93,-57.68C731.74,-57.11 728.57,-56.54 725.5,-56 647.45,-42.23 556.36,-27 503.57,-18.26"/>
<polygon fill="midnightblue" stroke="midnightblue" points="503.98,-14.78 493.54,-16.6 502.83,-21.69 503.98,-14.78"/>
</g>
<!-- Node13 -->
<g id="node13" class="node">
<title>Node13</title>
<g id="a_node13"><a xlink:title=" ">
<polygon fill="white" stroke="#bfbfbf" points="783.5,-0.5 783.5,-19.5 833.5,-19.5 833.5,-0.5 783.5,-0.5"/>
<text text-anchor="middle" x="808.5" y="-7.5" font-family="Helvetica,sans-Serif" font-size="10.00">cstdint</text>
</a>
</g>
</g>
<!-- Node12&#45;&gt;Node13 -->
<g id="edge14" class="edge">
<title>Node12&#45;&gt;Node13</title>
<path fill="none" stroke="midnightblue" d="M780.11,-56.08C784.87,-48.53 791.82,-37.49 797.65,-28.23"/>
<polygon fill="midnightblue" stroke="midnightblue" points="800.62,-30.08 802.99,-19.75 794.7,-26.35 800.62,-30.08"/>
</g>
<!-- Node14 -->
<g id="node14" class="node">
<title>Node14</title>
<g id="a_node14"><a xlink:title=" ">
<polygon fill="white" stroke="#bfbfbf" points="715.5,-0.5 715.5,-19.5 765.5,-19.5 765.5,-0.5 715.5,-0.5"/>
<text text-anchor="middle" x="740.5" y="-7.5" font-family="Helvetica,sans-Serif" font-size="10.00">climits</text>
</a>
</g>
</g>
<!-- Node12&#45;&gt;Node14 -->
<g id="edge15" class="edge">
<title>Node12&#45;&gt;Node14</title>
<path fill="none" stroke="midnightblue" d="M768.89,-56.08C764.13,-48.53 757.18,-37.49 751.35,-28.23"/>
<polygon fill="midnightblue" stroke="midnightblue" points="754.3,-26.35 746.01,-19.75 748.38,-30.08 754.3,-26.35"/>
</g>
<!-- Node17&#45;&gt;Node5 -->
<g id="edge19" class="edge">
<title>Node17&#45;&gt;Node5</title>
<path fill="none" stroke="midnightblue" d="M327.33,-112.25C329.07,-98.55 334.31,-71.95 349.5,-56 367.04,-37.59 393.2,-26.47 415.6,-19.9"/>
<polygon fill="midnightblue" stroke="midnightblue" points="416.53,-23.27 425.26,-17.27 414.69,-16.52 416.53,-23.27"/>
</g>
<!-- Node17&#45;&gt;Node7 -->
<g id="edge20" class="edge">
<title>Node17&#45;&gt;Node7</title>
<path fill="none" stroke="midnightblue" d="M336.46,-112.32C345.63,-104.34 359.44,-92.31 370.53,-82.65"/>
<polygon fill="midnightblue" stroke="midnightblue" points="373.12,-85.04 378.36,-75.83 368.52,-79.76 373.12,-85.04"/>
</g>
<!-- Node19&#45;&gt;Node17 -->
<g id="edge25" class="edge">
<title>Node19&#45;&gt;Node17</title>
<path fill="none" stroke="midnightblue" d="M266.07,-168.32C276.92,-160.18 293.38,-147.84 306.38,-138.09"/>
<polygon fill="midnightblue" stroke="midnightblue" points="308.82,-140.63 314.72,-131.83 304.62,-135.03 308.82,-140.63"/>
</g>
<!-- Node21 -->
<g id="node21" class="node">
<title>Node21</title>
<g id="a_node21"><a xlink:href="itkMetaDataObjectBase_8h.html" target="_top" xlink:title=" ">
<polygon fill="white" stroke="black" points="340.5,-224.5 340.5,-243.5 482.5,-243.5 482.5,-224.5 340.5,-224.5"/>
<text text-anchor="middle" x="411.5" y="-231.5" font-family="Helvetica,sans-Serif" font-size="10.00">itkMetaDataObjectBase.h</text>
</a>
</g>
</g>
<!-- Node20&#45;&gt;Node21 -->
<g id="edge27" class="edge">
<title>Node20&#45;&gt;Node21</title>
<path fill="none" stroke="midnightblue" d="M502.15,-280.32C484.83,-271.66 457.98,-258.24 438,-248.25"/>
<polygon fill="midnightblue" stroke="midnightblue" points="439.32,-245 428.81,-243.65 436.19,-251.26 439.32,-245"/>
</g>
<!-- Node22 -->
<g id="node22" class="node">
<title>Node22</title>
<g id="a_node22"><a xlink:title=" ">
<polygon fill="white" stroke="#bfbfbf" points="632.5,-224.5 632.5,-243.5 696.5,-243.5 696.5,-224.5 632.5,-224.5"/>
<text text-anchor="middle" x="664.5" y="-231.5" font-family="Helvetica,sans-Serif" font-size="10.00">algorithm</text>
</a>
</g>
</g>
<!-- Node20&#45;&gt;Node22 -->
<g id="edge31" class="edge">
<title>Node20&#45;&gt;Node22</title>
<path fill="none" stroke="midnightblue" d="M542.48,-280.44C566.66,-271.44 604.92,-257.19 632.15,-247.05"/>
<polygon fill="midnightblue" stroke="midnightblue" points="633.48,-250.29 641.63,-243.52 631.04,-243.73 633.48,-250.29"/>
</g>
<!-- Node20&#45;&gt;Node23 -->
<g id="edge32" class="edge">
<title>Node20&#45;&gt;Node23</title>
<path fill="none" stroke="midnightblue" d="M566.24,-280.44C626.1,-269.49 728.37,-250.77 781.01,-241.13"/>
<polygon fill="midnightblue" stroke="midnightblue" points="781.64,-244.57 790.85,-239.33 780.38,-237.69 781.64,-244.57"/>
</g>
<!-- Node24 -->
<g id="node24" class="node">
<title>Node24</title>
<g id="a_node24"><a xlink:title=" ">
<polygon fill="white" stroke="#bfbfbf" points="500.5,-224.5 500.5,-243.5 538.5,-243.5 538.5,-224.5 500.5,-224.5"/>
<text text-anchor="middle" x="519.5" y="-231.5" font-family="Helvetica,sans-Serif" font-size="10.00">map</text>
</a>
</g>
</g>
<!-- Node20&#45;&gt;Node24 -->
<g id="edge33" class="edge">
<title>Node20&#45;&gt;Node24</title>
<path fill="none" stroke="midnightblue" d="M519.5,-280.08C519.5,-273.01 519.5,-262.86 519.5,-253.99"/>
<polygon fill="midnightblue" stroke="midnightblue" points="523,-253.75 519.5,-243.75 516,-253.75 523,-253.75"/>
</g>
<!-- Node20&#45;&gt;Node25 -->
<g id="edge34" class="edge">
<title>Node20&#45;&gt;Node25</title>
<path fill="none" stroke="midnightblue" d="M478.78,-280.44C427.72,-269.72 341.26,-251.55 294.62,-241.75"/>
<polygon fill="midnightblue" stroke="midnightblue" points="295.26,-238.31 284.75,-239.67 293.82,-245.16 295.26,-238.31"/>
</g>
<!-- Node26 -->
<g id="node26" class="node">
<title>Node26</title>
<g id="a_node26"><a xlink:title=" ">
<polygon fill="white" stroke="#bfbfbf" points="556.5,-224.5 556.5,-243.5 614.5,-243.5 614.5,-224.5 556.5,-224.5"/>
<text text-anchor="middle" x="585.5" y="-231.5" font-family="Helvetica,sans-Serif" font-size="10.00">memory</text>
</a>
</g>
</g>
<!-- Node20&#45;&gt;Node26 -->
<g id="edge35" class="edge">
<title>Node20&#45;&gt;Node26</title>
<path fill="none" stroke="midnightblue" d="M530.1,-280.32C539.96,-272.26 554.85,-260.08 566.72,-250.37"/>
<polygon fill="midnightblue" stroke="midnightblue" points="569.18,-252.88 574.7,-243.83 564.75,-247.46 569.18,-252.88"/>
</g>
<!-- Node21&#45;&gt;Node4 -->
<g id="edge28" class="edge">
<title>Node21&#45;&gt;Node4</title>
<path fill="none" stroke="midnightblue" d="M407.87,-224.08C404.89,-216.77 400.57,-206.18 396.88,-197.1"/>
<polygon fill="midnightblue" stroke="midnightblue" points="400.08,-195.69 393.07,-187.75 393.6,-198.33 400.08,-195.69"/>
</g>
<!-- Node21&#45;&gt;Node7 -->
<g id="edge30" class="edge">
<title>Node21&#45;&gt;Node7</title>
<path fill="none" stroke="midnightblue" d="M430.78,-224.38C470.6,-205.39 555.54,-157.94 522.5,-112 511.32,-96.45 463.95,-83.13 428.69,-75.11"/>
<polygon fill="midnightblue" stroke="midnightblue" points="429.16,-71.63 418.65,-72.89 427.65,-78.46 429.16,-71.63"/>
</g>
<!-- Node21&#45;&gt;Node18 -->
<g id="edge29" class="edge">
<title>Node21&#45;&gt;Node18</title>
<path fill="none" stroke="midnightblue" d="M418.56,-224.24C425.65,-215.32 436.74,-200.99 445.5,-188 456.06,-172.35 467.03,-153.83 474.64,-140.57"/>
<polygon fill="midnightblue" stroke="midnightblue" points="477.84,-142.02 479.73,-131.59 471.75,-138.56 477.84,-142.02"/>
</g>
<!-- Node29 -->
<g id="node29" class="node">
<title>Node29</title>
<g id="a_node29"><a xlink:href="itkObjectFactoryBase_8h.html" target="_top" xlink:title=" ">
<polygon fill="white" stroke="black" points="676,-448.5 676,-467.5 805,-467.5 805,-448.5 676,-448.5"/>
<text text-anchor="middle" x="740.5" y="-455.5" font-family="Helvetica,sans-Serif" font-size="10.00">itkObjectFactoryBase.h</text>
</a>
</g>
</g>
<!-- Node28&#45;&gt;Node29 -->
<g id="edge39" class="edge">
<title>Node28&#45;&gt;Node29</title>
<path fill="none" stroke="midnightblue" d="M669.16,-504.32C682.42,-495.9 702.77,-482.97 718.35,-473.07"/>
<polygon fill="midnightblue" stroke="midnightblue" points="720.31,-475.97 726.88,-467.65 716.56,-470.06 720.31,-475.97"/>
</g>
<!-- Node29&#45;&gt;Node16 -->
<g id="edge42" class="edge">
<title>Node29&#45;&gt;Node16</title>
<path fill="none" stroke="midnightblue" d="M743.47,-448.28C749.47,-429.82 762.5,-385.37 762.5,-347 762.5,-347 762.5,-347 762.5,-177 762.5,-132.43 716.88,-98.46 686.36,-80.73"/>
<polygon fill="midnightblue" stroke="midnightblue" points="687.88,-77.57 677.44,-75.75 684.47,-83.68 687.88,-77.57"/>
</g>
<!-- Node29&#45;&gt;Node23 -->
<g id="edge47" class="edge">
<title>Node29&#45;&gt;Node23</title>
<path fill="none" stroke="midnightblue" d="M749.62,-448.22C757.9,-439.73 769.81,-426.1 776.5,-412 802.05,-358.15 810.6,-286.95 813.32,-253.66"/>
<polygon fill="midnightblue" stroke="midnightblue" points="816.82,-253.78 814.05,-243.55 809.83,-253.27 816.82,-253.78"/>
</g>
<!-- Node30 -->
<g id="node30" class="node">
<title>Node30</title>
<g id="a_node30"><a xlink:href="itkCreateObjectFunction_8h.html" target="_top" xlink:title=" ">
<polygon fill="white" stroke="black" points="541,-392.5 541,-411.5 684,-411.5 684,-392.5 541,-392.5"/>
<text text-anchor="middle" x="612.5" y="-399.5" font-family="Helvetica,sans-Serif" font-size="10.00">itkCreateObjectFunction.h</text>
</a>
</g>
</g>
<!-- Node29&#45;&gt;Node30 -->
<g id="edge40" class="edge">
<title>Node29&#45;&gt;Node30</title>
<path fill="none" stroke="midnightblue" d="M720.22,-448.44C699.15,-439.56 665.98,-425.56 642.01,-415.45"/>
<polygon fill="midnightblue" stroke="midnightblue" points="643.26,-412.18 632.69,-411.52 640.54,-418.63 643.26,-412.18"/>
</g>
<!-- Node31 -->
<g id="node31" class="node">
<title>Node31</title>
<g id="a_node31"><a xlink:href="itkCommonEnums_8h.html" target="_top" xlink:title=" ">
<polygon fill="white" stroke="black" points="828.5,-392.5 828.5,-411.5 944.5,-411.5 944.5,-392.5 828.5,-392.5"/>
<text text-anchor="middle" x="886.5" y="-399.5" font-family="Helvetica,sans-Serif" font-size="10.00">itkCommonEnums.h</text>
</a>
</g>
</g>
<!-- Node29&#45;&gt;Node31 -->
<g id="edge43" class="edge">
<title>Node29&#45;&gt;Node31</title>
<path fill="none" stroke="midnightblue" d="M763.63,-448.44C787.98,-439.44 826.51,-425.19 853.92,-415.05"/>
<polygon fill="midnightblue" stroke="midnightblue" points="855.31,-418.27 863.47,-411.52 852.88,-411.7 855.31,-418.27"/>
</g>
<!-- Node33 -->
<g id="node33" class="node">
<title>Node33</title>
<g id="a_node33"><a xlink:title=" ">
<polygon fill="white" stroke="#bfbfbf" points="702.5,-392.5 702.5,-411.5 734.5,-411.5 734.5,-392.5 702.5,-392.5"/>
<text text-anchor="middle" x="718.5" y="-399.5" font-family="Helvetica,sans-Serif" font-size="10.00">list</text>
</a>
</g>
</g>
<!-- Node29&#45;&gt;Node33 -->
<g id="edge46" class="edge">
<title>Node29&#45;&gt;Node33</title>
<path fill="none" stroke="midnightblue" d="M736.87,-448.08C733.89,-440.77 729.57,-430.18 725.88,-421.1"/>
<polygon fill="midnightblue" stroke="midnightblue" points="729.08,-419.69 722.07,-411.75 722.6,-422.33 729.08,-419.69"/>
</g>
<!-- Node30&#45;&gt;Node3 -->
<g id="edge41" class="edge">
<title>Node30&#45;&gt;Node3</title>
<path fill="none" stroke="midnightblue" d="M597.56,-392.32C582.91,-383.82 560.37,-370.73 543.26,-360.8"/>
<polygon fill="midnightblue" stroke="midnightblue" points="544.81,-357.65 534.4,-355.65 541.3,-363.7 544.81,-357.65"/>
</g>
<!-- Node31&#45;&gt;Node12 -->
<g id="edge44" class="edge">
<title>Node31&#45;&gt;Node12</title>
<path fill="none" stroke="midnightblue" d="M890.28,-392.35C897.92,-374.03 914.5,-329.82 914.5,-291 914.5,-291 914.5,-291 914.5,-177 914.5,-125.35 854.85,-94.26 813.42,-78.9"/>
<polygon fill="midnightblue" stroke="midnightblue" points="814.44,-75.54 803.85,-75.5 812.1,-82.14 814.44,-75.54"/>
</g>
<!-- Node32 -->
<g id="node32" class="node">
<title>Node32</title>
<g id="a_node32"><a xlink:title=" ">
<polygon fill="white" stroke="#bfbfbf" points="829,-336.5 829,-355.5 886,-355.5 886,-336.5 829,-336.5"/>
<text text-anchor="middle" x="857.5" y="-343.5" font-family="Helvetica,sans-Serif" font-size="10.00">ostream</text>
</a>
</g>
</g>
<!-- Node31&#45;&gt;Node32 -->
<g id="edge45" class="edge">
<title>Node31&#45;&gt;Node32</title>
<path fill="none" stroke="midnightblue" d="M881.71,-392.08C877.74,-384.69 871.97,-373.95 867.07,-364.81"/>
<polygon fill="midnightblue" stroke="midnightblue" points="870.01,-362.91 862.2,-355.75 863.85,-366.22 870.01,-362.91"/>
</g>
</g>
</svg>
