<?xml version="1.0" encoding="UTF-8" standalone="no"?>
<!DOCTYPE svg PUBLIC "-//W3C//DTD SVG 1.1//EN"
 "http://www.w3.org/Graphics/SVG/1.1/DTD/svg11.dtd">
<!-- Generated by graphviz version 2.43.0 (0)
 -->
<!-- Title: itkAnchorErodeDilateLine.h Pages: 1 -->
<svg width="866pt" height="218pt"
 viewBox="0.00 0.00 866.00 218.00" xmlns="http://www.w3.org/2000/svg" xmlns:xlink="http://www.w3.org/1999/xlink">
<g id="graph0" class="graph" transform="scale(1 1) rotate(0) translate(4 214)">
<title>itkAnchorErodeDilateLine.h</title>
<polygon fill="white" stroke="transparent" points="-4,4 -4,-214 862,-214 862,4 -4,4"/>
<!-- Node1 -->
<g id="node1" class="node">
<title>Node1</title>
<g id="a_node1"><a xlink:title=" ">
<polygon fill="#bfbfbf" stroke="black" points="263.5,-190.5 263.5,-209.5 412.5,-209.5 412.5,-190.5 263.5,-190.5"/>
<text text-anchor="middle" x="338" y="-197.5" font-family="Helvetica,sans-Serif" font-size="10.00">itkAnchorErodeDilateLine.h</text>
</a>
</g>
</g>
<!-- Node2 -->
<g id="node2" class="node">
<title>Node2</title>
<g id="a_node2"><a xlink:href="itkAnchorOpenCloseImageFilter_8h.html" target="_top" xlink:title=" ">
<polygon fill="white" stroke="black" points="157.5,-129 157.5,-148 336.5,-148 336.5,-129 157.5,-129"/>
<text text-anchor="middle" x="247" y="-136" font-family="Helvetica,sans-Serif" font-size="10.00">itkAnchorOpenCloseImageFilter.h</text>
</a>
</g>
</g>
<!-- Node1&#45;&gt;Node2 -->
<g id="edge1" class="edge">
<title>Node1&#45;&gt;Node2</title>
<path fill="none" stroke="midnightblue" d="M316.48,-184.93C298.94,-173.46 274.73,-157.63 260.01,-148.01"/>
<polygon fill="midnightblue" stroke="midnightblue" points="314.68,-187.93 324.96,-190.48 318.51,-182.07 314.68,-187.93"/>
</g>
<!-- Node7 -->
<g id="node7" class="node">
<title>Node7</title>
<g id="a_node7"><a xlink:href="itkAnchorErodeDilateImageFilter_8h.html" target="_top" xlink:title=" ">
<polygon fill="white" stroke="black" points="354.5,-123.5 354.5,-153.5 505.5,-153.5 505.5,-123.5 354.5,-123.5"/>
<text text-anchor="start" x="362.5" y="-141.5" font-family="Helvetica,sans-Serif" font-size="10.00">itkAnchorErodeDilateImage</text>
<text text-anchor="middle" x="430" y="-130.5" font-family="Helvetica,sans-Serif" font-size="10.00">Filter.h</text>
</a>
</g>
</g>
<!-- Node1&#45;&gt;Node7 -->
<g id="edge6" class="edge">
<title>Node1&#45;&gt;Node7</title>
<path fill="none" stroke="midnightblue" d="M359.63,-185.01C374.31,-175.52 393.63,-163.02 408.32,-153.52"/>
<polygon fill="midnightblue" stroke="midnightblue" points="357.68,-182.11 351.18,-190.48 361.48,-187.98 357.68,-182.11"/>
</g>
<!-- Node3 -->
<g id="node3" class="node">
<title>Node3</title>
<g id="a_node3"><a xlink:href="itkAnchorCloseImageFilter_8h.html" target="_top" xlink:title=" ">
<polygon fill="white" stroke="black" points="0,-67.5 0,-86.5 154,-86.5 154,-67.5 0,-67.5"/>
<text text-anchor="middle" x="77" y="-74.5" font-family="Helvetica,sans-Serif" font-size="10.00">itkAnchorCloseImageFilter.h</text>
</a>
</g>
</g>
<!-- Node2&#45;&gt;Node3 -->
<g id="edge2" class="edge">
<title>Node2&#45;&gt;Node3</title>
<path fill="none" stroke="midnightblue" d="M212.95,-125.58C179.91,-114.02 130.58,-96.75 101.31,-86.51"/>
<polygon fill="midnightblue" stroke="midnightblue" points="212.05,-128.98 222.64,-128.98 214.36,-122.37 212.05,-128.98"/>
</g>
<!-- Node5 -->
<g id="node5" class="node">
<title>Node5</title>
<g id="a_node5"><a xlink:href="itkAnchorOpenImageFilter_8h.html" target="_top" xlink:title=" ">
<polygon fill="white" stroke="black" points="172,-67.5 172,-86.5 324,-86.5 324,-67.5 172,-67.5"/>
<text text-anchor="middle" x="248" y="-74.5" font-family="Helvetica,sans-Serif" font-size="10.00">itkAnchorOpenImageFilter.h</text>
</a>
</g>
</g>
<!-- Node2&#45;&gt;Node5 -->
<g id="edge4" class="edge">
<title>Node2&#45;&gt;Node5</title>
<path fill="none" stroke="midnightblue" d="M247.31,-118.82C247.5,-108 247.72,-94.9 247.86,-86.51"/>
<polygon fill="midnightblue" stroke="midnightblue" points="243.81,-118.92 247.14,-128.98 250.81,-119.04 243.81,-118.92"/>
</g>
<!-- Node4 -->
<g id="node4" class="node">
<title>Node4</title>
<g id="a_node4"><a xlink:href="itkGrayscaleMorphologicalClosingImageFilter_8h.html" target="_top" xlink:title=" ">
<polygon fill="white" stroke="black" points="3.5,-0.5 3.5,-30.5 150.5,-30.5 150.5,-0.5 3.5,-0.5"/>
<text text-anchor="start" x="11.5" y="-18.5" font-family="Helvetica,sans-Serif" font-size="10.00">itkGrayscaleMorphological</text>
<text text-anchor="middle" x="77" y="-7.5" font-family="Helvetica,sans-Serif" font-size="10.00">ClosingImageFilter.h</text>
</a>
</g>
</g>
<!-- Node3&#45;&gt;Node4 -->
<g id="edge3" class="edge">
<title>Node3&#45;&gt;Node4</title>
<path fill="none" stroke="midnightblue" d="M77,-57.23C77,-48.59 77,-38.5 77,-30.52"/>
<polygon fill="midnightblue" stroke="midnightblue" points="73.5,-57.48 77,-67.48 80.5,-57.48 73.5,-57.48"/>
</g>
<!-- Node6 -->
<g id="node6" class="node">
<title>Node6</title>
<g id="a_node6"><a xlink:href="itkGrayscaleMorphologicalOpeningImageFilter_8h.html" target="_top" xlink:title=" ">
<polygon fill="white" stroke="black" points="174.5,-0.5 174.5,-30.5 321.5,-30.5 321.5,-0.5 174.5,-0.5"/>
<text text-anchor="start" x="182.5" y="-18.5" font-family="Helvetica,sans-Serif" font-size="10.00">itkGrayscaleMorphological</text>
<text text-anchor="middle" x="248" y="-7.5" font-family="Helvetica,sans-Serif" font-size="10.00">OpeningImageFilter.h</text>
</a>
</g>
</g>
<!-- Node5&#45;&gt;Node6 -->
<g id="edge5" class="edge">
<title>Node5&#45;&gt;Node6</title>
<path fill="none" stroke="midnightblue" d="M248,-57.23C248,-48.59 248,-38.5 248,-30.52"/>
<polygon fill="midnightblue" stroke="midnightblue" points="244.5,-57.48 248,-67.48 251.5,-57.48 244.5,-57.48"/>
</g>
<!-- Node8 -->
<g id="node8" class="node">
<title>Node8</title>
<g id="a_node8"><a xlink:href="itkAnchorDilateImageFilter_8h.html" target="_top" xlink:title=" ">
<polygon fill="white" stroke="black" points="351,-67.5 351,-86.5 507,-86.5 507,-67.5 351,-67.5"/>
<text text-anchor="middle" x="429" y="-74.5" font-family="Helvetica,sans-Serif" font-size="10.00">itkAnchorDilateImageFilter.h</text>
</a>
</g>
</g>
<!-- Node7&#45;&gt;Node8 -->
<g id="edge7" class="edge">
<title>Node7&#45;&gt;Node8</title>
<path fill="none" stroke="midnightblue" d="M429.59,-113.29C429.43,-103.86 429.26,-93.65 429.15,-86.66"/>
<polygon fill="midnightblue" stroke="midnightblue" points="426.1,-113.46 429.76,-123.4 433.09,-113.34 426.1,-113.46"/>
</g>
<!-- Node11 -->
<g id="node11" class="node">
<title>Node11</title>
<g id="a_node11"><a xlink:href="itkAnchorErodeImageFilter_8h.html" target="_top" xlink:title=" ">
<polygon fill="white" stroke="black" points="525.5,-67.5 525.5,-86.5 680.5,-86.5 680.5,-67.5 525.5,-67.5"/>
<text text-anchor="middle" x="603" y="-74.5" font-family="Helvetica,sans-Serif" font-size="10.00">itkAnchorErodeImageFilter.h</text>
</a>
</g>
</g>
<!-- Node7&#45;&gt;Node11 -->
<g id="edge10" class="edge">
<title>Node7&#45;&gt;Node11</title>
<path fill="none" stroke="midnightblue" d="M480.66,-120.08C512.71,-109.05 552.72,-95.29 578.08,-86.57"/>
<polygon fill="midnightblue" stroke="midnightblue" points="479.32,-116.84 471,-123.4 481.59,-123.46 479.32,-116.84"/>
</g>
<!-- Node9 -->
<g id="node9" class="node">
<title>Node9</title>
<g id="a_node9"><a xlink:href="itkGrayscaleDilateImageFilter_8h.html" target="_top" xlink:title=" ">
<polygon fill="white" stroke="black" points="340.5,-6 340.5,-25 511.5,-25 511.5,-6 340.5,-6"/>
<text text-anchor="middle" x="426" y="-13" font-family="Helvetica,sans-Serif" font-size="10.00">itkGrayscaleDilateImageFilter.h</text>
</a>
</g>
</g>
<!-- Node8&#45;&gt;Node9 -->
<g id="edge8" class="edge">
<title>Node8&#45;&gt;Node9</title>
<path fill="none" stroke="midnightblue" d="M428.06,-57.32C427.51,-46.5 426.85,-33.4 426.43,-25.01"/>
<polygon fill="midnightblue" stroke="midnightblue" points="424.57,-57.66 428.57,-67.48 431.56,-57.31 424.57,-57.66"/>
</g>
<!-- Node10 -->
<g id="node10" class="node">
<title>Node10</title>
<g id="a_node10"><a xlink:href="itkMorphologicalGradientImageFilter_8h.html" target="_top" xlink:title=" ">
<polygon fill="white" stroke="black" points="530,-0.5 530,-30.5 670,-30.5 670,-0.5 530,-0.5"/>
<text text-anchor="start" x="538" y="-18.5" font-family="Helvetica,sans-Serif" font-size="10.00">itkMorphologicalGradient</text>
<text text-anchor="middle" x="600" y="-7.5" font-family="Helvetica,sans-Serif" font-size="10.00">ImageFilter.h</text>
</a>
</g>
</g>
<!-- Node8&#45;&gt;Node10 -->
<g id="edge9" class="edge">
<title>Node8&#45;&gt;Node10</title>
<path fill="none" stroke="midnightblue" d="M463.19,-64.1C491.02,-54.42 530.34,-40.74 559.7,-30.52"/>
<polygon fill="midnightblue" stroke="midnightblue" points="461.79,-60.88 453.5,-67.48 464.09,-67.49 461.79,-60.88"/>
</g>
<!-- Node11&#45;&gt;Node10 -->
<g id="edge12" class="edge">
<title>Node11&#45;&gt;Node10</title>
<path fill="none" stroke="midnightblue" d="M602.05,-57.23C601.62,-48.59 601.11,-38.5 600.71,-30.52"/>
<polygon fill="midnightblue" stroke="midnightblue" points="598.57,-57.66 602.57,-67.48 605.56,-57.31 598.57,-57.66"/>
</g>
<!-- Node12 -->
<g id="node12" class="node">
<title>Node12</title>
<g id="a_node12"><a xlink:href="itkGrayscaleErodeImageFilter_8h.html" target="_top" xlink:title=" ">
<polygon fill="white" stroke="black" points="688,-6 688,-25 858,-25 858,-6 688,-6"/>
<text text-anchor="middle" x="773" y="-13" font-family="Helvetica,sans-Serif" font-size="10.00">itkGrayscaleErodeImageFilter.h</text>
</a>
</g>
</g>
<!-- Node11&#45;&gt;Node12 -->
<g id="edge11" class="edge">
<title>Node11&#45;&gt;Node12</title>
<path fill="none" stroke="midnightblue" d="M637.05,-64.08C670.09,-52.52 719.42,-35.25 748.69,-25.01"/>
<polygon fill="midnightblue" stroke="midnightblue" points="635.64,-60.87 627.36,-67.48 637.95,-67.48 635.64,-60.87"/>
</g>
</g>
</svg>
