<?xml version="1.0" encoding="UTF-8" standalone="no"?>
<!DOCTYPE svg PUBLIC "-//W3C//DTD SVG 1.1//EN"
 "http://www.w3.org/Graphics/SVG/1.1/DTD/svg11.dtd">
<!-- Generated by graphviz version 2.43.0 (0)
 -->
<!-- Title: itkArray.h Pages: 1 -->
<svg width="585pt" height="106pt"
 viewBox="0.00 0.00 584.50 106.00" xmlns="http://www.w3.org/2000/svg" xmlns:xlink="http://www.w3.org/1999/xlink">
<g id="graph0" class="graph" transform="scale(1 1) rotate(0) translate(4 102)">
<title>itkArray.h</title>
<polygon fill="white" stroke="transparent" points="-4,4 -4,-102 580.5,-102 580.5,4 -4,4"/>
<!-- Node1 -->
<g id="node1" class="node">
<title>Node1</title>
<g id="a_node1"><a xlink:title=" ">
<polygon fill="#bfbfbf" stroke="black" points="201.5,-78.5 201.5,-97.5 264.5,-97.5 264.5,-78.5 201.5,-78.5"/>
<text text-anchor="middle" x="233" y="-85.5" font-family="Helvetica,sans-Serif" font-size="10.00">itkArray.h</text>
</a>
</g>
</g>
<!-- Node2 -->
<g id="node2" class="node">
<title>Node2</title>
<g id="a_node2"><a xlink:href="itkMacro_8h.html" target="_top" xlink:title=" ">
<polygon fill="white" stroke="black" points="0,-11.5 0,-30.5 68,-30.5 68,-11.5 0,-11.5"/>
<text text-anchor="middle" x="34" y="-18.5" font-family="Helvetica,sans-Serif" font-size="10.00">itkMacro.h</text>
</a>
</g>
</g>
<!-- Node1&#45;&gt;Node2 -->
<g id="edge1" class="edge">
<title>Node1&#45;&gt;Node2</title>
<path fill="none" stroke="midnightblue" d="M201.46,-79.43C169.62,-71.43 119.24,-57.81 77,-42 71.51,-39.94 65.74,-37.48 60.28,-35"/>
<polygon fill="midnightblue" stroke="midnightblue" points="61.44,-31.68 50.9,-30.6 58.46,-38.02 61.44,-31.68"/>
</g>
<!-- Node3 -->
<g id="node3" class="node">
<title>Node3</title>
<g id="a_node3"><a xlink:title=" ">
<polygon fill="white" stroke="#bfbfbf" points="86,-11.5 86,-30.5 168,-30.5 168,-11.5 86,-11.5"/>
<text text-anchor="middle" x="127" y="-18.5" font-family="Helvetica,sans-Serif" font-size="10.00">vxl_version.h</text>
</a>
</g>
</g>
<!-- Node1&#45;&gt;Node3 -->
<g id="edge2" class="edge">
<title>Node1&#45;&gt;Node3</title>
<path fill="none" stroke="midnightblue" d="M218.7,-78.23C200.98,-67.37 170.57,-48.72 149.66,-35.89"/>
<polygon fill="midnightblue" stroke="midnightblue" points="151.42,-32.87 141.07,-30.63 147.76,-38.84 151.42,-32.87"/>
</g>
<!-- Node4 -->
<g id="node4" class="node">
<title>Node4</title>
<g id="a_node4"><a xlink:title=" ">
<polygon fill="white" stroke="#bfbfbf" points="186,-11.5 186,-30.5 280,-30.5 280,-11.5 186,-11.5"/>
<text text-anchor="middle" x="233" y="-18.5" font-family="Helvetica,sans-Serif" font-size="10.00">vnl/vnl_vector.h</text>
</a>
</g>
</g>
<!-- Node1&#45;&gt;Node4 -->
<g id="edge3" class="edge">
<title>Node1&#45;&gt;Node4</title>
<path fill="none" stroke="midnightblue" d="M233,-78.23C233,-68.68 233,-53.12 233,-40.78"/>
<polygon fill="midnightblue" stroke="midnightblue" points="236.5,-40.63 233,-30.63 229.5,-40.63 236.5,-40.63"/>
</g>
<!-- Node5 -->
<g id="node5" class="node">
<title>Node5</title>
<g id="a_node5"><a xlink:title=" ">
<polygon fill="white" stroke="#bfbfbf" points="298.5,-11.5 298.5,-30.5 373.5,-30.5 373.5,-11.5 298.5,-11.5"/>
<text text-anchor="middle" x="336" y="-18.5" font-family="Helvetica,sans-Serif" font-size="10.00">itkArray.hxx</text>
</a>
</g>
</g>
<!-- Node1&#45;&gt;Node5 -->
<g id="edge4" class="edge">
<title>Node1&#45;&gt;Node5</title>
<path fill="none" stroke="midnightblue" d="M246.89,-78.23C264.03,-67.42 293.4,-48.88 313.71,-36.07"/>
<polygon fill="midnightblue" stroke="midnightblue" points="315.74,-38.92 322.33,-30.63 312,-33 315.74,-38.92"/>
</g>
<!-- Node6 -->
<g id="node6" class="node">
<title>Node6</title>
<g id="a_node6"><a xlink:title=" ">
<polygon fill="white" stroke="#bfbfbf" points="391.5,-0.5 391.5,-41.5 576.5,-41.5 576.5,-0.5 391.5,-0.5"/>
<text text-anchor="start" x="399.5" y="-29.5" font-family="Helvetica,sans-Serif" font-size="10.00">/work/ITK/Modules/Core</text>
<text text-anchor="start" x="399.5" y="-18.5" font-family="Helvetica,sans-Serif" font-size="10.00">/Common/include/itkNumericTraits</text>
<text text-anchor="middle" x="484" y="-7.5" font-family="Helvetica,sans-Serif" font-size="10.00">ArrayPixel.h</text>
</a>
</g>
</g>
<!-- Node1&#45;&gt;Node6 -->
<g id="edge5" class="edge">
<title>Node1&#45;&gt;Node6</title>
<path fill="none" stroke="midnightblue" d="M264.54,-78.83C298.09,-70.14 352.62,-56.02 398.93,-44.03"/>
<polygon fill="midnightblue" stroke="midnightblue" points="399.88,-47.4 408.68,-41.51 398.12,-40.62 399.88,-47.4"/>
</g>
</g>
</svg>
