<?xml version="1.0" encoding="UTF-8" standalone="no"?>
<!DOCTYPE svg PUBLIC "-//W3C//DTD SVG 1.1//EN"
 "http://www.w3.org/Graphics/SVG/1.1/DTD/svg11.dtd">
<!-- Generated by graphviz version 2.43.0 (0)
 -->
<!-- Title: itkBSplineBaseTransform.h Pages: 1 -->
<svg width="2337pt" height="285pt"
 viewBox="0.00 0.00 2336.50 285.00" xmlns="http://www.w3.org/2000/svg" xmlns:xlink="http://www.w3.org/1999/xlink">
<g id="graph0" class="graph" transform="scale(1 1) rotate(0) translate(4 281)">
<title>itkBSplineBaseTransform.h</title>
<polygon fill="white" stroke="transparent" points="-4,4 -4,-281 2332.5,-281 2332.5,4 -4,4"/>
<!-- Node1 -->
<g id="node1" class="node">
<title>Node1</title>
<g id="a_node1"><a xlink:title=" ">
<polygon fill="#bfbfbf" stroke="black" points="573.5,-257.5 573.5,-276.5 721.5,-276.5 721.5,-257.5 573.5,-257.5"/>
<text text-anchor="middle" x="647.5" y="-264.5" font-family="Helvetica,sans-Serif" font-size="10.00">itkBSplineBaseTransform.h</text>
</a>
</g>
</g>
<!-- Node2 -->
<g id="node2" class="node">
<title>Node2</title>
<g id="a_node2"><a xlink:href="itkBSplineDeformableTransform_8h.html" target="_top" xlink:title=" ">
<polygon fill="white" stroke="black" points="385.5,-201.5 385.5,-220.5 567.5,-220.5 567.5,-201.5 385.5,-201.5"/>
<text text-anchor="middle" x="476.5" y="-208.5" font-family="Helvetica,sans-Serif" font-size="10.00">itkBSplineDeformableTransform.h</text>
</a>
</g>
</g>
<!-- Node1&#45;&gt;Node2 -->
<g id="edge1" class="edge">
<title>Node1&#45;&gt;Node2</title>
<path fill="none" stroke="midnightblue" d="M610.46,-254.3C578.24,-244.13 532.31,-229.62 503.47,-220.52"/>
<polygon fill="midnightblue" stroke="midnightblue" points="609.81,-257.77 620.4,-257.44 611.92,-251.09 609.81,-257.77"/>
</g>
<!-- Node3 -->
<g id="node3" class="node">
<title>Node3</title>
<g id="a_node3"><a xlink:href="itkBSplineTransform_8h.html" target="_top" xlink:title=" ">
<polygon fill="white" stroke="black" points="585.5,-201.5 585.5,-220.5 709.5,-220.5 709.5,-201.5 585.5,-201.5"/>
<text text-anchor="middle" x="647.5" y="-208.5" font-family="Helvetica,sans-Serif" font-size="10.00">itkBSplineTransform.h</text>
</a>
</g>
</g>
<!-- Node1&#45;&gt;Node3 -->
<g id="edge2" class="edge">
<title>Node1&#45;&gt;Node3</title>
<path fill="none" stroke="midnightblue" d="M647.5,-246.8C647.5,-237.91 647.5,-227.78 647.5,-220.75"/>
<polygon fill="midnightblue" stroke="midnightblue" points="644,-247.08 647.5,-257.08 651,-247.08 644,-247.08"/>
</g>
<!-- Node5 -->
<g id="node5" class="node">
<title>Node5</title>
<g id="a_node5"><a xlink:href="itkImageToImageMetric_8h.html" target="_top" xlink:title=" ">
<polygon fill="white" stroke="black" points="1161,-201.5 1161,-220.5 1302,-220.5 1302,-201.5 1161,-201.5"/>
<text text-anchor="middle" x="1231.5" y="-208.5" font-family="Helvetica,sans-Serif" font-size="10.00">itkImageToImageMetric.h</text>
</a>
</g>
</g>
<!-- Node1&#45;&gt;Node5 -->
<g id="edge4" class="edge">
<title>Node1&#45;&gt;Node5</title>
<path fill="none" stroke="midnightblue" d="M731.98,-258.19C847.61,-247.5 1053.1,-228.5 1160.95,-218.52"/>
<polygon fill="midnightblue" stroke="midnightblue" points="731.4,-254.73 721.76,-259.13 732.04,-261.7 731.4,-254.73"/>
</g>
<!-- Node4 -->
<g id="node4" class="node">
<title>Node4</title>
<g id="a_node4"><a xlink:href="itkLandmarkBasedTransformInitializer_8h.html" target="_top" xlink:title=" ">
<polygon fill="white" stroke="black" points="219,-134.5 219,-164.5 376,-164.5 376,-134.5 219,-134.5"/>
<text text-anchor="start" x="227" y="-152.5" font-family="Helvetica,sans-Serif" font-size="10.00">itkLandmarkBasedTransform</text>
<text text-anchor="middle" x="297.5" y="-141.5" font-family="Helvetica,sans-Serif" font-size="10.00">Initializer.h</text>
</a>
</g>
</g>
<!-- Node3&#45;&gt;Node4 -->
<g id="edge3" class="edge">
<title>Node3&#45;&gt;Node4</title>
<path fill="none" stroke="midnightblue" d="M587.19,-199.75C528.87,-189.83 440.18,-174.76 376.3,-163.9"/>
<polygon fill="midnightblue" stroke="midnightblue" points="586.91,-203.25 597.35,-201.48 588.08,-196.35 586.91,-203.25"/>
</g>
<!-- Node6 -->
<g id="node6" class="node">
<title>Node6</title>
<g id="a_node6"><a xlink:href="itkHistogramImageToImageMetric_8h.html" target="_top" xlink:title=" ">
<polygon fill="white" stroke="black" points="394.5,-134.5 394.5,-164.5 546.5,-164.5 546.5,-134.5 394.5,-134.5"/>
<text text-anchor="start" x="402.5" y="-152.5" font-family="Helvetica,sans-Serif" font-size="10.00">itkHistogramImageToImage</text>
<text text-anchor="middle" x="470.5" y="-141.5" font-family="Helvetica,sans-Serif" font-size="10.00">Metric.h</text>
</a>
</g>
</g>
<!-- Node5&#45;&gt;Node6 -->
<g id="edge5" class="edge">
<title>Node5&#45;&gt;Node6</title>
<path fill="none" stroke="midnightblue" d="M1150.68,-207.3C1023.64,-202.45 769.59,-190.32 555.5,-165 552.68,-164.67 549.8,-164.3 546.9,-163.91"/>
<polygon fill="midnightblue" stroke="midnightblue" points="1150.6,-210.8 1160.72,-207.68 1150.86,-203.8 1150.6,-210.8"/>
</g>
<!-- Node13 -->
<g id="node13" class="node">
<title>Node13</title>
<g id="a_node13"><a xlink:href="itkGradientDifferenceImageToImageMetric_8h.html" target="_top" xlink:title=" ">
<polygon fill="white" stroke="black" points="564.5,-134.5 564.5,-164.5 716.5,-164.5 716.5,-134.5 564.5,-134.5"/>
<text text-anchor="start" x="572.5" y="-152.5" font-family="Helvetica,sans-Serif" font-size="10.00">itkGradientDifferenceImage</text>
<text text-anchor="middle" x="640.5" y="-141.5" font-family="Helvetica,sans-Serif" font-size="10.00">ToImageMetric.h</text>
</a>
</g>
</g>
<!-- Node5&#45;&gt;Node13 -->
<g id="edge12" class="edge">
<title>Node5&#45;&gt;Node13</title>
<path fill="none" stroke="midnightblue" d="M1150.87,-204.83C1050.84,-197.96 875.17,-184.39 725.5,-165 722.68,-164.63 719.81,-164.24 716.91,-163.83"/>
<polygon fill="midnightblue" stroke="midnightblue" points="1150.69,-208.33 1160.91,-205.52 1151.17,-201.35 1150.69,-208.33"/>
</g>
<!-- Node14 -->
<g id="node14" class="node">
<title>Node14</title>
<g id="a_node14"><a xlink:href="itkImageRegistrationMethod_8h.html" target="_top" xlink:title=" ">
<polygon fill="white" stroke="black" points="735,-140 735,-159 900,-159 900,-140 735,-140"/>
<text text-anchor="middle" x="817.5" y="-147" font-family="Helvetica,sans-Serif" font-size="10.00">itkImageRegistrationMethod.h</text>
</a>
</g>
</g>
<!-- Node5&#45;&gt;Node14 -->
<g id="edge13" class="edge">
<title>Node5&#45;&gt;Node14</title>
<path fill="none" stroke="midnightblue" d="M1157.48,-200.11C1091.98,-191.25 993.81,-177.74 908.5,-165 896,-163.13 882.55,-161.04 869.92,-159.03"/>
<polygon fill="midnightblue" stroke="midnightblue" points="1157.33,-203.62 1167.71,-201.49 1158.27,-196.68 1157.33,-203.62"/>
</g>
<!-- Node15 -->
<g id="node15" class="node">
<title>Node15</title>
<g id="a_node15"><a xlink:href="itkKappaStatisticImageToImageMetric_8h.html" target="_top" xlink:title=" ">
<polygon fill="white" stroke="black" points="918,-134.5 918,-164.5 1059,-164.5 1059,-134.5 918,-134.5"/>
<text text-anchor="start" x="926" y="-152.5" font-family="Helvetica,sans-Serif" font-size="10.00">itkKappaStatisticImageTo</text>
<text text-anchor="middle" x="988.5" y="-141.5" font-family="Helvetica,sans-Serif" font-size="10.00">ImageMetric.h</text>
</a>
</g>
</g>
<!-- Node5&#45;&gt;Node15 -->
<g id="edge14" class="edge">
<title>Node5&#45;&gt;Node15</title>
<path fill="none" stroke="midnightblue" d="M1186.76,-199.05C1147.07,-189.33 1088.86,-175.07 1045.77,-164.52"/>
<polygon fill="midnightblue" stroke="midnightblue" points="1186.14,-202.5 1196.68,-201.48 1187.8,-195.7 1186.14,-202.5"/>
</g>
<!-- Node16 -->
<g id="node16" class="node">
<title>Node16</title>
<g id="a_node16"><a xlink:href="itkMatchCardinalityImageToImageMetric_8h.html" target="_top" xlink:title=" ">
<polygon fill="white" stroke="black" points="1077,-134.5 1077,-164.5 1220,-164.5 1220,-134.5 1077,-134.5"/>
<text text-anchor="start" x="1085" y="-152.5" font-family="Helvetica,sans-Serif" font-size="10.00">itkMatchCardinalityImage</text>
<text text-anchor="middle" x="1148.5" y="-141.5" font-family="Helvetica,sans-Serif" font-size="10.00">ToImageMetric.h</text>
</a>
</g>
</g>
<!-- Node5&#45;&gt;Node16 -->
<g id="edge15" class="edge">
<title>Node5&#45;&gt;Node16</title>
<path fill="none" stroke="midnightblue" d="M1211.23,-195.47C1198.09,-186.05 1181.06,-173.84 1168.06,-164.52"/>
<polygon fill="midnightblue" stroke="midnightblue" points="1209.44,-198.49 1219.61,-201.48 1213.52,-192.8 1209.44,-198.49"/>
</g>
<!-- Node17 -->
<g id="node17" class="node">
<title>Node17</title>
<g id="a_node17"><a xlink:href="itkMattesMutualInformationImageToImageMetric_8h.html" target="_top" xlink:title=" ">
<polygon fill="white" stroke="black" points="1238.5,-134.5 1238.5,-164.5 1392.5,-164.5 1392.5,-134.5 1238.5,-134.5"/>
<text text-anchor="start" x="1246.5" y="-152.5" font-family="Helvetica,sans-Serif" font-size="10.00">itkMattesMutualInformation</text>
<text text-anchor="middle" x="1315.5" y="-141.5" font-family="Helvetica,sans-Serif" font-size="10.00">ImageToImageMetric.h</text>
</a>
</g>
</g>
<!-- Node5&#45;&gt;Node17 -->
<g id="edge16" class="edge">
<title>Node5&#45;&gt;Node17</title>
<path fill="none" stroke="midnightblue" d="M1252.02,-195.47C1265.32,-186.05 1282.55,-173.84 1295.7,-164.52"/>
<polygon fill="midnightblue" stroke="midnightblue" points="1249.67,-192.84 1243.54,-201.48 1253.72,-198.55 1249.67,-192.84"/>
</g>
<!-- Node18 -->
<g id="node18" class="node">
<title>Node18</title>
<g id="a_node18"><a xlink:href="itkMeanReciprocalSquareDifferenceImageToImageMetric_8h.html" target="_top" xlink:title=" ">
<polygon fill="white" stroke="black" points="1411,-134.5 1411,-164.5 1602,-164.5 1602,-134.5 1411,-134.5"/>
<text text-anchor="start" x="1419" y="-152.5" font-family="Helvetica,sans-Serif" font-size="10.00">itkMeanReciprocalSquareDifference</text>
<text text-anchor="middle" x="1506.5" y="-141.5" font-family="Helvetica,sans-Serif" font-size="10.00">ImageToImageMetric.h</text>
</a>
</g>
</g>
<!-- Node5&#45;&gt;Node18 -->
<g id="edge17" class="edge">
<title>Node5&#45;&gt;Node18</title>
<path fill="none" stroke="midnightblue" d="M1280.71,-199.35C1325.65,-189.63 1392.41,-175.18 1441.69,-164.52"/>
<polygon fill="midnightblue" stroke="midnightblue" points="1279.93,-195.94 1270.9,-201.48 1281.41,-202.78 1279.93,-195.94"/>
</g>
<!-- Node19 -->
<g id="node19" class="node">
<title>Node19</title>
<g id="a_node19"><a xlink:href="itkMeanSquaresImageToImageMetric_8h.html" target="_top" xlink:title=" ">
<polygon fill="white" stroke="black" points="1620,-134.5 1620,-164.5 1787,-164.5 1787,-134.5 1620,-134.5"/>
<text text-anchor="start" x="1628" y="-152.5" font-family="Helvetica,sans-Serif" font-size="10.00">itkMeanSquaresImageToImage</text>
<text text-anchor="middle" x="1703.5" y="-141.5" font-family="Helvetica,sans-Serif" font-size="10.00">Metric.h</text>
</a>
</g>
</g>
<!-- Node5&#45;&gt;Node19 -->
<g id="edge18" class="edge">
<title>Node5&#45;&gt;Node19</title>
<path fill="none" stroke="midnightblue" d="M1312.45,-201.33C1389.46,-192.86 1508.52,-179.21 1611.5,-165 1614.22,-164.62 1616.99,-164.23 1619.78,-163.83"/>
<polygon fill="midnightblue" stroke="midnightblue" points="1311.9,-197.87 1302.34,-202.43 1312.66,-204.82 1311.9,-197.87"/>
</g>
<!-- Node20 -->
<g id="node20" class="node">
<title>Node20</title>
<g id="a_node20"><a xlink:href="itkMultiResolutionImageRegistrationMethod_8h.html" target="_top" xlink:title=" ">
<polygon fill="white" stroke="black" points="1804.5,-134.5 1804.5,-164.5 2000.5,-164.5 2000.5,-134.5 1804.5,-134.5"/>
<text text-anchor="start" x="1812.5" y="-152.5" font-family="Helvetica,sans-Serif" font-size="10.00">itkMultiResolutionImageRegistration</text>
<text text-anchor="middle" x="1902.5" y="-141.5" font-family="Helvetica,sans-Serif" font-size="10.00">Method.h</text>
</a>
</g>
</g>
<!-- Node5&#45;&gt;Node20 -->
<g id="edge19" class="edge">
<title>Node5&#45;&gt;Node20</title>
<path fill="none" stroke="midnightblue" d="M1312.09,-205.02C1421.82,-197.91 1624.31,-183.62 1796.5,-165 1799.09,-164.72 1801.7,-164.43 1804.35,-164.13"/>
<polygon fill="midnightblue" stroke="midnightblue" points="1311.84,-201.53 1302.09,-205.66 1312.29,-208.51 1311.84,-201.53"/>
</g>
<!-- Node22 -->
<g id="node22" class="node">
<title>Node22</title>
<g id="a_node22"><a xlink:href="itkMutualInformationImageToImageMetric_8h.html" target="_top" xlink:title=" ">
<polygon fill="white" stroke="black" points="2019,-134.5 2019,-164.5 2170,-164.5 2170,-134.5 2019,-134.5"/>
<text text-anchor="start" x="2027" y="-152.5" font-family="Helvetica,sans-Serif" font-size="10.00">itkMutualInformationImage</text>
<text text-anchor="middle" x="2094.5" y="-141.5" font-family="Helvetica,sans-Serif" font-size="10.00">ToImageMetric.h</text>
</a>
</g>
</g>
<!-- Node5&#45;&gt;Node22 -->
<g id="edge21" class="edge">
<title>Node5&#45;&gt;Node22</title>
<path fill="none" stroke="midnightblue" d="M1312.6,-208.28C1454.35,-204.6 1756.23,-193.84 2009.5,-165 2012.47,-164.66 2015.5,-164.29 2018.56,-163.88"/>
<polygon fill="midnightblue" stroke="midnightblue" points="1312.17,-204.79 1302.26,-208.54 1312.34,-211.78 1312.17,-204.79"/>
</g>
<!-- Node23 -->
<g id="node23" class="node">
<title>Node23</title>
<g id="a_node23"><a xlink:href="itkNormalizedCorrelationImageToImageMetric_8h.html" target="_top" xlink:title=" ">
<polygon fill="white" stroke="black" points="2188.5,-134.5 2188.5,-164.5 2328.5,-164.5 2328.5,-134.5 2188.5,-134.5"/>
<text text-anchor="start" x="2196.5" y="-152.5" font-family="Helvetica,sans-Serif" font-size="10.00">itkNormalizedCorrelation</text>
<text text-anchor="middle" x="2258.5" y="-141.5" font-family="Helvetica,sans-Serif" font-size="10.00">ImageToImageMetric.h</text>
</a>
</g>
</g>
<!-- Node5&#45;&gt;Node23 -->
<g id="edge22" class="edge">
<title>Node5&#45;&gt;Node23</title>
<path fill="none" stroke="midnightblue" d="M1312.23,-209.81C1476.21,-208.62 1859.84,-201.76 2179.5,-165 2182.41,-164.67 2185.37,-164.29 2188.36,-163.88"/>
<polygon fill="midnightblue" stroke="midnightblue" points="1312.2,-206.31 1302.22,-209.88 1312.25,-213.31 1312.2,-206.31"/>
</g>
<!-- Node7 -->
<g id="node7" class="node">
<title>Node7</title>
<g id="a_node7"><a xlink:href="itkCompareHistogramImageToImageMetric_8h.html" target="_top" xlink:title=" ">
<polygon fill="white" stroke="black" points="12,-67.5 12,-97.5 167,-97.5 167,-67.5 12,-67.5"/>
<text text-anchor="start" x="20" y="-85.5" font-family="Helvetica,sans-Serif" font-size="10.00">itkCompareHistogramImage</text>
<text text-anchor="middle" x="89.5" y="-74.5" font-family="Helvetica,sans-Serif" font-size="10.00">ToImageMetric.h</text>
</a>
</g>
</g>
<!-- Node6&#45;&gt;Node7 -->
<g id="edge6" class="edge">
<title>Node6&#45;&gt;Node7</title>
<path fill="none" stroke="midnightblue" d="M384.06,-133.75C318.84,-122.63 230.16,-107.5 167.19,-96.75"/>
<polygon fill="midnightblue" stroke="midnightblue" points="383.87,-137.27 394.31,-135.5 385.05,-130.37 383.87,-137.27"/>
</g>
<!-- Node9 -->
<g id="node9" class="node">
<title>Node9</title>
<g id="a_node9"><a xlink:href="itkCorrelationCoefficientHistogramImageToImageMetric_8h.html" target="_top" xlink:title=" ">
<polygon fill="white" stroke="black" points="185,-67.5 185,-97.5 364,-97.5 364,-67.5 185,-67.5"/>
<text text-anchor="start" x="193" y="-85.5" font-family="Helvetica,sans-Serif" font-size="10.00">itkCorrelationCoefficient</text>
<text text-anchor="middle" x="274.5" y="-74.5" font-family="Helvetica,sans-Serif" font-size="10.00">HistogramImageToImageMetric.h</text>
</a>
</g>
</g>
<!-- Node6&#45;&gt;Node9 -->
<g id="edge8" class="edge">
<title>Node6&#45;&gt;Node9</title>
<path fill="none" stroke="midnightblue" d="M418.42,-131.23C386.71,-120.71 346.72,-107.45 316.95,-97.58"/>
<polygon fill="midnightblue" stroke="midnightblue" points="417.38,-134.57 427.97,-134.4 419.58,-127.93 417.38,-134.57"/>
</g>
<!-- Node10 -->
<g id="node10" class="node">
<title>Node10</title>
<g id="a_node10"><a xlink:href="itkMeanSquaresHistogramImageToImageMetric_8h.html" target="_top" xlink:title=" ">
<polygon fill="white" stroke="black" points="382,-67.5 382,-97.5 559,-97.5 559,-67.5 382,-67.5"/>
<text text-anchor="start" x="390" y="-85.5" font-family="Helvetica,sans-Serif" font-size="10.00">itkMeanSquaresHistogramImage</text>
<text text-anchor="middle" x="470.5" y="-74.5" font-family="Helvetica,sans-Serif" font-size="10.00">ToImageMetric.h</text>
</a>
</g>
</g>
<!-- Node6&#45;&gt;Node10 -->
<g id="edge9" class="edge">
<title>Node6&#45;&gt;Node10</title>
<path fill="none" stroke="midnightblue" d="M470.5,-124.11C470.5,-115.15 470.5,-105.32 470.5,-97.58"/>
<polygon fill="midnightblue" stroke="midnightblue" points="467,-124.4 470.5,-134.4 474,-124.4 467,-124.4"/>
</g>
<!-- Node11 -->
<g id="node11" class="node">
<title>Node11</title>
<g id="a_node11"><a xlink:href="itkMutualInformationHistogramImageToImageMetric_8h.html" target="_top" xlink:title=" ">
<polygon fill="white" stroke="black" points="577,-67.5 577,-97.5 748,-97.5 748,-67.5 577,-67.5"/>
<text text-anchor="start" x="585" y="-85.5" font-family="Helvetica,sans-Serif" font-size="10.00">itkMutualInformationHistogram</text>
<text text-anchor="middle" x="662.5" y="-74.5" font-family="Helvetica,sans-Serif" font-size="10.00">ImageToImageMetric.h</text>
</a>
</g>
</g>
<!-- Node6&#45;&gt;Node11 -->
<g id="edge10" class="edge">
<title>Node6&#45;&gt;Node11</title>
<path fill="none" stroke="midnightblue" d="M521.92,-131.09C552.92,-120.6 591.88,-107.41 620.92,-97.58"/>
<polygon fill="midnightblue" stroke="midnightblue" points="520.51,-127.87 512.16,-134.4 522.76,-134.5 520.51,-127.87"/>
</g>
<!-- Node12 -->
<g id="node12" class="node">
<title>Node12</title>
<g id="a_node12"><a xlink:href="itkNormalizedMutualInformationHistogramImageToImageMetric_8h.html" target="_top" xlink:title=" ">
<polygon fill="white" stroke="black" points="766,-67.5 766,-97.5 945,-97.5 945,-67.5 766,-67.5"/>
<text text-anchor="start" x="774" y="-85.5" font-family="Helvetica,sans-Serif" font-size="10.00">itkNormalizedMutualInformation</text>
<text text-anchor="middle" x="855.5" y="-74.5" font-family="Helvetica,sans-Serif" font-size="10.00">HistogramImageToImageMetric.h</text>
</a>
</g>
</g>
<!-- Node6&#45;&gt;Node12 -->
<g id="edge11" class="edge">
<title>Node6&#45;&gt;Node12</title>
<path fill="none" stroke="midnightblue" d="M557,-133.75C635.31,-120.48 714.05,-107.24 771.76,-97.55"/>
<polygon fill="midnightblue" stroke="midnightblue" points="556.23,-130.33 546.95,-135.45 557.4,-137.23 556.23,-130.33"/>
</g>
<!-- Node8 -->
<g id="node8" class="node">
<title>Node8</title>
<g id="a_node8"><a xlink:href="itkKullbackLeiblerCompareHistogramImageToImageMetric_8h.html" target="_top" xlink:title=" ">
<polygon fill="white" stroke="black" points="0,-0.5 0,-30.5 179,-30.5 179,-0.5 0,-0.5"/>
<text text-anchor="start" x="8" y="-18.5" font-family="Helvetica,sans-Serif" font-size="10.00">itkKullbackLeiblerCompare</text>
<text text-anchor="middle" x="89.5" y="-7.5" font-family="Helvetica,sans-Serif" font-size="10.00">HistogramImageToImageMetric.h</text>
</a>
</g>
</g>
<!-- Node7&#45;&gt;Node8 -->
<g id="edge7" class="edge">
<title>Node7&#45;&gt;Node8</title>
<path fill="none" stroke="midnightblue" d="M89.5,-57.11C89.5,-48.15 89.5,-38.32 89.5,-30.58"/>
<polygon fill="midnightblue" stroke="midnightblue" points="86,-57.4 89.5,-67.4 93,-57.4 86,-57.4"/>
</g>
<!-- Node21 -->
<g id="node21" class="node">
<title>Node21</title>
<g id="a_node21"><a xlink:href="itkSimpleMultiResolutionImageRegistrationUI_8h.html" target="_top" xlink:title=" ">
<polygon fill="white" stroke="black" points="1832.5,-67.5 1832.5,-97.5 1972.5,-97.5 1972.5,-67.5 1832.5,-67.5"/>
<text text-anchor="start" x="1840.5" y="-85.5" font-family="Helvetica,sans-Serif" font-size="10.00">itkSimpleMultiResolution</text>
<text text-anchor="middle" x="1902.5" y="-74.5" font-family="Helvetica,sans-Serif" font-size="10.00">ImageRegistrationUI.h</text>
</a>
</g>
</g>
<!-- Node20&#45;&gt;Node21 -->
<g id="edge20" class="edge">
<title>Node20&#45;&gt;Node21</title>
<path fill="none" stroke="midnightblue" d="M1902.5,-124.11C1902.5,-115.15 1902.5,-105.32 1902.5,-97.58"/>
<polygon fill="midnightblue" stroke="midnightblue" points="1899,-124.4 1902.5,-134.4 1906,-124.4 1899,-124.4"/>
</g>
</g>
</svg>
