<?xml version="1.0" encoding="UTF-8" standalone="no"?>
<!DOCTYPE svg PUBLIC "-//W3C//DTD SVG 1.1//EN"
 "http://www.w3.org/Graphics/SVG/1.1/DTD/svg11.dtd">
<!-- Generated by graphviz version 2.43.0 (0)
 -->
<!-- Title: itkByteSwapper.h Pages: 1 -->
<svg width="1104pt" height="588pt"
 viewBox="0.00 0.00 1103.50 588.00" xmlns="http://www.w3.org/2000/svg" xmlns:xlink="http://www.w3.org/1999/xlink">
<g id="graph0" class="graph" transform="scale(1 1) rotate(0) translate(4 584)">
<title>itkByteSwapper.h</title>
<polygon fill="white" stroke="transparent" points="-4,4 -4,-584 1099.5,-584 1099.5,4 -4,4"/>
<!-- Node1 -->
<g id="node1" class="node">
<title>Node1</title>
<g id="a_node1"><a xlink:title=" ">
<polygon fill="#bfbfbf" stroke="black" points="796.5,-560.5 796.5,-579.5 898.5,-579.5 898.5,-560.5 796.5,-560.5"/>
<text text-anchor="middle" x="847.5" y="-567.5" font-family="Helvetica,sans-Serif" font-size="10.00">itkByteSwapper.h</text>
</a>
</g>
</g>
<!-- Node2 -->
<g id="node2" class="node">
<title>Node2</title>
<g id="a_node2"><a xlink:href="itkObject_8h.html" target="_top" xlink:title=" ">
<polygon fill="white" stroke="black" points="336.5,-336.5 336.5,-355.5 406.5,-355.5 406.5,-336.5 336.5,-336.5"/>
<text text-anchor="middle" x="371.5" y="-343.5" font-family="Helvetica,sans-Serif" font-size="10.00">itkObject.h</text>
</a>
</g>
</g>
<!-- Node1&#45;&gt;Node2 -->
<g id="edge1" class="edge">
<title>Node1&#45;&gt;Node2</title>
<path fill="none" stroke="midnightblue" d="M796.3,-560.61C755.19,-553.14 696.31,-540.8 646.5,-524 533.43,-485.87 487.49,-495.75 402.5,-412 389.44,-399.13 381.17,-379.68 376.49,-365.41"/>
<polygon fill="midnightblue" stroke="midnightblue" points="379.81,-364.28 373.59,-355.7 373.1,-366.28 379.81,-364.28"/>
</g>
<!-- Node11 -->
<g id="node11" class="node">
<title>Node11</title>
<g id="a_node11"><a xlink:href="itkIntTypes_8h.html" target="_top" xlink:title=" ">
<polygon fill="white" stroke="black" points="729,-56.5 729,-75.5 808,-75.5 808,-56.5 729,-56.5"/>
<text text-anchor="middle" x="768.5" y="-63.5" font-family="Helvetica,sans-Serif" font-size="10.00">itkIntTypes.h</text>
</a>
</g>
</g>
<!-- Node1&#45;&gt;Node11 -->
<g id="edge47" class="edge">
<title>Node1&#45;&gt;Node11</title>
<path fill="none" stroke="midnightblue" d="M852.78,-560.23C863.23,-542.04 885.5,-498.6 885.5,-459 885.5,-459 885.5,-459 885.5,-177 885.5,-129.6 833.9,-96.64 799.23,-79.85"/>
<polygon fill="midnightblue" stroke="midnightblue" points="800.5,-76.58 789.96,-75.54 797.55,-82.93 800.5,-76.58"/>
</g>
<!-- Node21 -->
<g id="node21" class="node">
<title>Node21</title>
<g id="a_node21"><a xlink:title=" ">
<polygon fill="white" stroke="#bfbfbf" points="24.5,-224.5 24.5,-243.5 88.5,-243.5 88.5,-224.5 24.5,-224.5"/>
<text text-anchor="middle" x="56.5" y="-231.5" font-family="Helvetica,sans-Serif" font-size="10.00">algorithm</text>
</a>
</g>
</g>
<!-- Node1&#45;&gt;Node21 -->
<g id="edge49" class="edge">
<title>Node1&#45;&gt;Node21</title>
<path fill="none" stroke="midnightblue" d="M796.32,-567.19C622.79,-560.39 67.5,-532.85 67.5,-459 67.5,-459 67.5,-459 67.5,-345 67.5,-312.79 62.77,-275.53 59.52,-253.69"/>
<polygon fill="midnightblue" stroke="midnightblue" points="62.93,-252.87 57.94,-243.53 56.01,-253.95 62.93,-252.87"/>
</g>
<!-- Node25 -->
<g id="node25" class="node">
<title>Node25</title>
<g id="a_node25"><a xlink:title=" ">
<polygon fill="white" stroke="#bfbfbf" points="526.5,-224.5 526.5,-243.5 584.5,-243.5 584.5,-224.5 526.5,-224.5"/>
<text text-anchor="middle" x="555.5" y="-231.5" font-family="Helvetica,sans-Serif" font-size="10.00">memory</text>
</a>
</g>
</g>
<!-- Node1&#45;&gt;Node25 -->
<g id="edge50" class="edge">
<title>Node1&#45;&gt;Node25</title>
<path fill="none" stroke="midnightblue" d="M847.5,-560.44C847.5,-541.94 847.5,-496.81 847.5,-459 847.5,-459 847.5,-459 847.5,-401 847.5,-286.04 674.32,-249.69 594.7,-239.06"/>
<polygon fill="midnightblue" stroke="midnightblue" points="594.93,-235.56 584.57,-237.78 594.05,-242.5 594.93,-235.56"/>
</g>
<!-- Node27 -->
<g id="node27" class="node">
<title>Node27</title>
<g id="a_node27"><a xlink:href="itkObjectFactory_8h.html" target="_top" xlink:title=" ">
<polygon fill="white" stroke="black" points="655.5,-504.5 655.5,-523.5 759.5,-523.5 759.5,-504.5 655.5,-504.5"/>
<text text-anchor="middle" x="707.5" y="-511.5" font-family="Helvetica,sans-Serif" font-size="10.00">itkObjectFactory.h</text>
</a>
</g>
</g>
<!-- Node1&#45;&gt;Node27 -->
<g id="edge37" class="edge">
<title>Node1&#45;&gt;Node27</title>
<path fill="none" stroke="midnightblue" d="M825.32,-560.44C802.07,-551.48 765.35,-537.31 739.08,-527.18"/>
<polygon fill="midnightblue" stroke="midnightblue" points="740.17,-523.85 729.58,-523.52 737.65,-530.38 740.17,-523.85"/>
</g>
<!-- Node33 -->
<g id="node33" class="node">
<title>Node33</title>
<g id="a_node33"><a xlink:title=" ">
<polygon fill="white" stroke="#bfbfbf" points="913.5,-504.5 913.5,-523.5 1027.5,-523.5 1027.5,-504.5 913.5,-504.5"/>
<text text-anchor="middle" x="970.5" y="-511.5" font-family="Helvetica,sans-Serif" font-size="10.00">itkByteSwapper.hxx</text>
</a>
</g>
</g>
<!-- Node1&#45;&gt;Node33 -->
<g id="edge48" class="edge">
<title>Node1&#45;&gt;Node33</title>
<path fill="none" stroke="midnightblue" d="M866.99,-560.44C887.14,-551.6 918.82,-537.69 941.83,-527.59"/>
<polygon fill="midnightblue" stroke="midnightblue" points="943.35,-530.74 951.1,-523.52 940.54,-524.33 943.35,-530.74"/>
</g>
<!-- Node34 -->
<g id="node34" class="node">
<title>Node34</title>
<g id="a_node34"><a xlink:title=" ">
<polygon fill="white" stroke="#bfbfbf" points="1045.5,-504.5 1045.5,-523.5 1095.5,-523.5 1095.5,-504.5 1045.5,-504.5"/>
<text text-anchor="middle" x="1070.5" y="-511.5" font-family="Helvetica,sans-Serif" font-size="10.00">cstring</text>
</a>
</g>
</g>
<!-- Node1&#45;&gt;Node34 -->
<g id="edge51" class="edge">
<title>Node1&#45;&gt;Node34</title>
<path fill="none" stroke="midnightblue" d="M884.51,-560.48C920.65,-552.09 977.45,-538.74 1035.55,-524.19"/>
<polygon fill="midnightblue" stroke="midnightblue" points="1036.42,-527.59 1045.27,-521.75 1034.72,-520.8 1036.42,-527.59"/>
</g>
<!-- Node3 -->
<g id="node3" class="node">
<title>Node3</title>
<g id="a_node3"><a xlink:href="itkLightObject_8h.html" target="_top" xlink:title=" ">
<polygon fill="white" stroke="black" points="225.5,-168.5 225.5,-187.5 319.5,-187.5 319.5,-168.5 225.5,-168.5"/>
<text text-anchor="middle" x="272.5" y="-175.5" font-family="Helvetica,sans-Serif" font-size="10.00">itkLightObject.h</text>
</a>
</g>
</g>
<!-- Node2&#45;&gt;Node3 -->
<g id="edge2" class="edge">
<title>Node2&#45;&gt;Node3</title>
<path fill="none" stroke="midnightblue" d="M336.35,-342.11C301.76,-337.75 248.84,-326.91 211.5,-300 187.1,-282.42 182.33,-272.75 173.5,-244 170.89,-235.5 168.69,-231.47 173.5,-224 183.81,-207.99 201.35,-197.62 218.83,-190.92"/>
<polygon fill="midnightblue" stroke="midnightblue" points="220.2,-194.15 228.49,-187.56 217.9,-187.54 220.2,-194.15"/>
</g>
<!-- Node15 -->
<g id="node15" class="node">
<title>Node15</title>
<g id="a_node15"><a xlink:href="itkSingletonMacro_8h.html" target="_top" xlink:title=" ">
<polygon fill="white" stroke="black" points="555.5,-56.5 555.5,-75.5 669.5,-75.5 669.5,-56.5 555.5,-56.5"/>
<text text-anchor="middle" x="612.5" y="-63.5" font-family="Helvetica,sans-Serif" font-size="10.00">itkSingletonMacro.h</text>
</a>
</g>
</g>
<!-- Node2&#45;&gt;Node15 -->
<g id="edge35" class="edge">
<title>Node2&#45;&gt;Node15</title>
<path fill="none" stroke="midnightblue" d="M406.78,-339.92C457.25,-330.62 548.88,-305.79 593.5,-244 628.12,-196.05 621.6,-120.88 616.1,-85.98"/>
<polygon fill="midnightblue" stroke="midnightblue" points="619.49,-85.04 614.33,-75.79 612.59,-86.24 619.49,-85.04"/>
</g>
<!-- Node18 -->
<g id="node18" class="node">
<title>Node18</title>
<g id="a_node18"><a xlink:href="itkEventObject_8h.html" target="_top" xlink:title=" ">
<polygon fill="white" stroke="black" points="26.5,-168.5 26.5,-187.5 124.5,-187.5 124.5,-168.5 26.5,-168.5"/>
<text text-anchor="middle" x="75.5" y="-175.5" font-family="Helvetica,sans-Serif" font-size="10.00">itkEventObject.h</text>
</a>
</g>
</g>
<!-- Node2&#45;&gt;Node18 -->
<g id="edge23" class="edge">
<title>Node2&#45;&gt;Node18</title>
<path fill="none" stroke="midnightblue" d="M336.5,-342.57C297.51,-338.54 233.74,-327.91 186.5,-300 141.47,-273.4 103.97,-222.78 86.34,-196.23"/>
<polygon fill="midnightblue" stroke="midnightblue" points="89.14,-194.12 80.76,-187.63 83.26,-197.92 89.14,-194.12"/>
</g>
<!-- Node19 -->
<g id="node19" class="node">
<title>Node19</title>
<g id="a_node19"><a xlink:href="itkMetaDataDictionary_8h.html" target="_top" xlink:title=" ">
<polygon fill="white" stroke="black" points="304,-280.5 304,-299.5 439,-299.5 439,-280.5 304,-280.5"/>
<text text-anchor="middle" x="371.5" y="-287.5" font-family="Helvetica,sans-Serif" font-size="10.00">itkMetaDataDictionary.h</text>
</a>
</g>
</g>
<!-- Node2&#45;&gt;Node19 -->
<g id="edge25" class="edge">
<title>Node2&#45;&gt;Node19</title>
<path fill="none" stroke="midnightblue" d="M371.5,-336.08C371.5,-329.01 371.5,-318.86 371.5,-309.99"/>
<polygon fill="midnightblue" stroke="midnightblue" points="375,-309.75 371.5,-299.75 368,-309.75 375,-309.75"/>
</g>
<!-- Node26 -->
<g id="node26" class="node">
<title>Node26</title>
<g id="a_node26"><a xlink:title=" ">
<polygon fill="white" stroke="#bfbfbf" points="221,-280.5 221,-299.5 286,-299.5 286,-280.5 221,-280.5"/>
<text text-anchor="middle" x="253.5" y="-287.5" font-family="Helvetica,sans-Serif" font-size="10.00">functional</text>
</a>
</g>
</g>
<!-- Node2&#45;&gt;Node26 -->
<g id="edge36" class="edge">
<title>Node2&#45;&gt;Node26</title>
<path fill="none" stroke="midnightblue" d="M352.8,-336.44C333.56,-327.64 303.35,-313.81 281.3,-303.72"/>
<polygon fill="midnightblue" stroke="midnightblue" points="282.66,-300.5 272.11,-299.52 279.75,-306.86 282.66,-300.5"/>
</g>
<!-- Node4 -->
<g id="node4" class="node">
<title>Node4</title>
<g id="a_node4"><a xlink:href="itkMacro_8h.html" target="_top" xlink:title=" ">
<polygon fill="white" stroke="black" points="257.5,-0.5 257.5,-19.5 325.5,-19.5 325.5,-0.5 257.5,-0.5"/>
<text text-anchor="middle" x="291.5" y="-7.5" font-family="Helvetica,sans-Serif" font-size="10.00">itkMacro.h</text>
</a>
</g>
</g>
<!-- Node3&#45;&gt;Node4 -->
<g id="edge3" class="edge">
<title>Node3&#45;&gt;Node4</title>
<path fill="none" stroke="midnightblue" d="M234.7,-168.46C169.35,-151.98 46.4,-112.38 91.5,-56 110.62,-32.1 194.36,-20 247.24,-14.63"/>
<polygon fill="midnightblue" stroke="midnightblue" points="247.76,-18.1 257.37,-13.65 247.08,-11.13 247.76,-18.1"/>
</g>
<!-- Node5 -->
<g id="node5" class="node">
<title>Node5</title>
<g id="a_node5"><a xlink:href="itkSmartPointer_8h.html" target="_top" xlink:title=" ">
<polygon fill="white" stroke="black" points="180,-112.5 180,-131.5 281,-131.5 281,-112.5 180,-112.5"/>
<text text-anchor="middle" x="230.5" y="-119.5" font-family="Helvetica,sans-Serif" font-size="10.00">itkSmartPointer.h</text>
</a>
</g>
</g>
<!-- Node3&#45;&gt;Node5 -->
<g id="edge4" class="edge">
<title>Node3&#45;&gt;Node5</title>
<path fill="none" stroke="midnightblue" d="M265.56,-168.08C259.57,-160.38 250.75,-149.03 243.45,-139.65"/>
<polygon fill="midnightblue" stroke="midnightblue" points="246.21,-137.5 237.31,-131.75 240.68,-141.79 246.21,-137.5"/>
</g>
<!-- Node6 -->
<g id="node6" class="node">
<title>Node6</title>
<g id="a_node6"><a xlink:title=" ">
<polygon fill="white" stroke="#bfbfbf" points="354.5,-56.5 354.5,-75.5 414.5,-75.5 414.5,-56.5 354.5,-56.5"/>
<text text-anchor="middle" x="384.5" y="-63.5" font-family="Helvetica,sans-Serif" font-size="10.00">iostream</text>
</a>
</g>
</g>
<!-- Node3&#45;&gt;Node6 -->
<g id="edge21" class="edge">
<title>Node3&#45;&gt;Node6</title>
<path fill="none" stroke="midnightblue" d="M280.15,-168.34C291.47,-155.65 313.5,-131.39 333.5,-112 344.1,-101.72 356.5,-90.75 366.43,-82.22"/>
<polygon fill="midnightblue" stroke="midnightblue" points="368.75,-84.84 374.09,-75.69 364.2,-79.51 368.75,-84.84"/>
</g>
<!-- Node10 -->
<g id="node10" class="node">
<title>Node10</title>
<g id="a_node10"><a xlink:href="itkTimeStamp_8h.html" target="_top" xlink:title=" ">
<polygon fill="white" stroke="black" points="414,-112.5 414,-131.5 509,-131.5 509,-112.5 414,-112.5"/>
<text text-anchor="middle" x="461.5" y="-119.5" font-family="Helvetica,sans-Serif" font-size="10.00">itkTimeStamp.h</text>
</a>
</g>
</g>
<!-- Node3&#45;&gt;Node10 -->
<g id="edge9" class="edge">
<title>Node3&#45;&gt;Node10</title>
<path fill="none" stroke="midnightblue" d="M302.45,-168.44C334.66,-159.24 386.03,-144.56 421.64,-134.39"/>
<polygon fill="midnightblue" stroke="midnightblue" points="423.04,-137.63 431.69,-131.52 421.12,-130.9 423.04,-137.63"/>
</g>
<!-- Node14 -->
<g id="node14" class="node">
<title>Node14</title>
<g id="a_node14"><a xlink:title=" ">
<polygon fill="white" stroke="#bfbfbf" points="432.5,-56.5 432.5,-75.5 482.5,-75.5 482.5,-56.5 432.5,-56.5"/>
<text text-anchor="middle" x="457.5" y="-63.5" font-family="Helvetica,sans-Serif" font-size="10.00">atomic</text>
</a>
</g>
</g>
<!-- Node3&#45;&gt;Node14 -->
<g id="edge20" class="edge">
<title>Node3&#45;&gt;Node14</title>
<path fill="none" stroke="midnightblue" d="M287.02,-168.37C318.9,-149.41 395.27,-104 434.05,-80.94"/>
<polygon fill="midnightblue" stroke="midnightblue" points="436.24,-83.71 443.05,-75.59 432.67,-77.69 436.24,-83.71"/>
</g>
<!-- Node16 -->
<g id="node16" class="node">
<title>Node16</title>
<g id="a_node16"><a xlink:href="itkIndent_8h.html" target="_top" xlink:title=" ">
<polygon fill="white" stroke="black" points="0,-112.5 0,-131.5 69,-131.5 69,-112.5 0,-112.5"/>
<text text-anchor="middle" x="34.5" y="-119.5" font-family="Helvetica,sans-Serif" font-size="10.00">itkIndent.h</text>
</a>
</g>
</g>
<!-- Node3&#45;&gt;Node16 -->
<g id="edge17" class="edge">
<title>Node3&#45;&gt;Node16</title>
<path fill="none" stroke="midnightblue" d="M234.79,-168.44C192.5,-158.85 123.99,-143.3 79.09,-133.12"/>
<polygon fill="midnightblue" stroke="midnightblue" points="79.85,-129.7 69.33,-130.9 78.3,-136.53 79.85,-129.7"/>
</g>
<!-- Node17 -->
<g id="node17" class="node">
<title>Node17</title>
<g id="a_node17"><a xlink:title=" ">
<polygon fill="white" stroke="#bfbfbf" points="527,-112.5 527,-131.5 584,-131.5 584,-112.5 527,-112.5"/>
<text text-anchor="middle" x="555.5" y="-119.5" font-family="Helvetica,sans-Serif" font-size="10.00">typeinfo</text>
</a>
</g>
</g>
<!-- Node3&#45;&gt;Node17 -->
<g id="edge22" class="edge">
<title>Node3&#45;&gt;Node17</title>
<path fill="none" stroke="midnightblue" d="M319.82,-169.18C367.34,-161.14 442.87,-147.85 516.89,-132.25"/>
<polygon fill="midnightblue" stroke="midnightblue" points="517.8,-135.64 526.85,-130.14 516.35,-128.79 517.8,-135.64"/>
</g>
<!-- Node5&#45;&gt;Node6 -->
<g id="edge5" class="edge">
<title>Node5&#45;&gt;Node6</title>
<path fill="none" stroke="midnightblue" d="M254.9,-112.44C280.7,-103.4 321.58,-89.06 350.52,-78.92"/>
<polygon fill="midnightblue" stroke="midnightblue" points="351.93,-82.13 360.21,-75.52 349.62,-75.52 351.93,-82.13"/>
</g>
<!-- Node7 -->
<g id="node7" class="node">
<title>Node7</title>
<g id="a_node7"><a xlink:title=" ">
<polygon fill="white" stroke="#bfbfbf" points="291,-56.5 291,-75.5 336,-75.5 336,-56.5 291,-56.5"/>
<text text-anchor="middle" x="313.5" y="-63.5" font-family="Helvetica,sans-Serif" font-size="10.00">utility</text>
</a>
</g>
</g>
<!-- Node5&#45;&gt;Node7 -->
<g id="edge6" class="edge">
<title>Node5&#45;&gt;Node7</title>
<path fill="none" stroke="midnightblue" d="M243.84,-112.32C256.66,-103.98 276.28,-91.21 291.44,-81.35"/>
<polygon fill="midnightblue" stroke="midnightblue" points="293.72,-84.04 300.2,-75.65 289.91,-78.17 293.72,-84.04"/>
</g>
<!-- Node8 -->
<g id="node8" class="node">
<title>Node8</title>
<g id="a_node8"><a xlink:title=" ">
<polygon fill="white" stroke="#bfbfbf" points="101,-56.5 101,-75.5 170,-75.5 170,-56.5 101,-56.5"/>
<text text-anchor="middle" x="135.5" y="-63.5" font-family="Helvetica,sans-Serif" font-size="10.00">type_traits</text>
</a>
</g>
</g>
<!-- Node5&#45;&gt;Node8 -->
<g id="edge7" class="edge">
<title>Node5&#45;&gt;Node8</title>
<path fill="none" stroke="midnightblue" d="M215.24,-112.32C200.28,-103.82 177.25,-90.73 159.77,-80.8"/>
<polygon fill="midnightblue" stroke="midnightblue" points="161.15,-77.55 150.73,-75.65 157.69,-83.64 161.15,-77.55"/>
</g>
<!-- Node9 -->
<g id="node9" class="node">
<title>Node9</title>
<g id="a_node9"><a xlink:title=" ">
<polygon fill="white" stroke="#bfbfbf" points="188,-56.5 188,-75.5 273,-75.5 273,-56.5 188,-56.5"/>
<text text-anchor="middle" x="230.5" y="-63.5" font-family="Helvetica,sans-Serif" font-size="10.00">itkConfigure.h</text>
</a>
</g>
</g>
<!-- Node5&#45;&gt;Node9 -->
<g id="edge8" class="edge">
<title>Node5&#45;&gt;Node9</title>
<path fill="none" stroke="midnightblue" d="M230.5,-112.08C230.5,-105.01 230.5,-94.86 230.5,-85.99"/>
<polygon fill="midnightblue" stroke="midnightblue" points="234,-85.75 230.5,-75.75 227,-85.75 234,-85.75"/>
</g>
<!-- Node10&#45;&gt;Node4 -->
<g id="edge10" class="edge">
<title>Node10&#45;&gt;Node4</title>
<path fill="none" stroke="midnightblue" d="M471.11,-112.27C484.51,-99.06 505.63,-73.66 491.5,-56 472.38,-32.1 388.64,-20 335.76,-14.63"/>
<polygon fill="midnightblue" stroke="midnightblue" points="335.92,-11.13 325.63,-13.65 335.24,-18.1 335.92,-11.13"/>
</g>
<!-- Node10&#45;&gt;Node11 -->
<g id="edge11" class="edge">
<title>Node10&#45;&gt;Node11</title>
<path fill="none" stroke="midnightblue" d="M509.13,-112.62C566.01,-102.62 660.7,-85.96 718.58,-75.78"/>
<polygon fill="midnightblue" stroke="midnightblue" points="719.34,-79.2 728.59,-74.02 718.13,-72.31 719.34,-79.2"/>
</g>
<!-- Node10&#45;&gt;Node14 -->
<g id="edge15" class="edge">
<title>Node10&#45;&gt;Node14</title>
<path fill="none" stroke="midnightblue" d="M460.84,-112.08C460.32,-105.01 459.56,-94.86 458.91,-85.99"/>
<polygon fill="midnightblue" stroke="midnightblue" points="462.38,-85.47 458.15,-75.75 455.4,-85.98 462.38,-85.47"/>
</g>
<!-- Node10&#45;&gt;Node15 -->
<g id="edge16" class="edge">
<title>Node10&#45;&gt;Node15</title>
<path fill="none" stroke="midnightblue" d="M485.43,-112.44C510.72,-103.4 550.8,-89.06 579.18,-78.92"/>
<polygon fill="midnightblue" stroke="midnightblue" points="580.45,-82.18 588.69,-75.52 578.09,-75.59 580.45,-82.18"/>
</g>
<!-- Node11&#45;&gt;Node4 -->
<g id="edge12" class="edge">
<title>Node11&#45;&gt;Node4</title>
<path fill="none" stroke="midnightblue" d="M728.65,-60.49C640.26,-50.48 428.27,-26.48 335.85,-16.02"/>
<polygon fill="midnightblue" stroke="midnightblue" points="336.04,-12.52 325.71,-14.87 335.25,-19.48 336.04,-12.52"/>
</g>
<!-- Node12 -->
<g id="node12" class="node">
<title>Node12</title>
<g id="a_node12"><a xlink:title=" ">
<polygon fill="white" stroke="#bfbfbf" points="709.5,-0.5 709.5,-19.5 759.5,-19.5 759.5,-0.5 709.5,-0.5"/>
<text text-anchor="middle" x="734.5" y="-7.5" font-family="Helvetica,sans-Serif" font-size="10.00">cstdint</text>
</a>
</g>
</g>
<!-- Node11&#45;&gt;Node12 -->
<g id="edge13" class="edge">
<title>Node11&#45;&gt;Node12</title>
<path fill="none" stroke="midnightblue" d="M762.89,-56.08C758.13,-48.53 751.18,-37.49 745.35,-28.23"/>
<polygon fill="midnightblue" stroke="midnightblue" points="748.3,-26.35 740.01,-19.75 742.38,-30.08 748.3,-26.35"/>
</g>
<!-- Node13 -->
<g id="node13" class="node">
<title>Node13</title>
<g id="a_node13"><a xlink:title=" ">
<polygon fill="white" stroke="#bfbfbf" points="777.5,-0.5 777.5,-19.5 827.5,-19.5 827.5,-0.5 777.5,-0.5"/>
<text text-anchor="middle" x="802.5" y="-7.5" font-family="Helvetica,sans-Serif" font-size="10.00">climits</text>
</a>
</g>
</g>
<!-- Node11&#45;&gt;Node13 -->
<g id="edge14" class="edge">
<title>Node11&#45;&gt;Node13</title>
<path fill="none" stroke="midnightblue" d="M774.11,-56.08C778.87,-48.53 785.82,-37.49 791.65,-28.23"/>
<polygon fill="midnightblue" stroke="midnightblue" points="794.62,-30.08 796.99,-19.75 788.7,-26.35 794.62,-30.08"/>
</g>
<!-- Node16&#45;&gt;Node4 -->
<g id="edge18" class="edge">
<title>Node16&#45;&gt;Node4</title>
<path fill="none" stroke="midnightblue" d="M35.08,-112.33C36.5,-98.23 41.44,-70.48 58.5,-56 86.35,-32.35 187.44,-19.87 246.92,-14.44"/>
<polygon fill="midnightblue" stroke="midnightblue" points="247.51,-17.9 257.16,-13.53 246.89,-10.93 247.51,-17.9"/>
</g>
<!-- Node16&#45;&gt;Node6 -->
<g id="edge19" class="edge">
<title>Node16&#45;&gt;Node6</title>
<path fill="none" stroke="midnightblue" d="M69.17,-116.94C125.04,-110.19 238.62,-95.61 344.43,-76.07"/>
<polygon fill="midnightblue" stroke="midnightblue" points="345.13,-79.5 354.32,-74.23 343.85,-72.62 345.13,-79.5"/>
</g>
<!-- Node18&#45;&gt;Node16 -->
<g id="edge24" class="edge">
<title>Node18&#45;&gt;Node16</title>
<path fill="none" stroke="midnightblue" d="M68.73,-168.08C62.94,-160.46 54.44,-149.26 47.36,-139.94"/>
<polygon fill="midnightblue" stroke="midnightblue" points="49.98,-137.6 41.14,-131.75 44.4,-141.83 49.98,-137.6"/>
</g>
<!-- Node20 -->
<g id="node20" class="node">
<title>Node20</title>
<g id="a_node20"><a xlink:href="itkMetaDataObjectBase_8h.html" target="_top" xlink:title=" ">
<polygon fill="white" stroke="black" points="300.5,-224.5 300.5,-243.5 442.5,-243.5 442.5,-224.5 300.5,-224.5"/>
<text text-anchor="middle" x="371.5" y="-231.5" font-family="Helvetica,sans-Serif" font-size="10.00">itkMetaDataObjectBase.h</text>
</a>
</g>
</g>
<!-- Node19&#45;&gt;Node20 -->
<g id="edge26" class="edge">
<title>Node19&#45;&gt;Node20</title>
<path fill="none" stroke="midnightblue" d="M371.5,-280.08C371.5,-273.01 371.5,-262.86 371.5,-253.99"/>
<polygon fill="midnightblue" stroke="midnightblue" points="375,-253.75 371.5,-243.75 368,-253.75 375,-253.75"/>
</g>
<!-- Node19&#45;&gt;Node21 -->
<g id="edge30" class="edge">
<title>Node19&#45;&gt;Node21</title>
<path fill="none" stroke="midnightblue" d="M321.59,-280.44C260.05,-269.89 156.55,-252.15 98.76,-242.25"/>
<polygon fill="midnightblue" stroke="midnightblue" points="99.32,-238.79 88.87,-240.55 98.13,-245.69 99.32,-238.79"/>
</g>
<!-- Node22 -->
<g id="node22" class="node">
<title>Node22</title>
<g id="a_node22"><a xlink:title=" ">
<polygon fill="white" stroke="#bfbfbf" points="461,-224.5 461,-243.5 508,-243.5 508,-224.5 461,-224.5"/>
<text text-anchor="middle" x="484.5" y="-231.5" font-family="Helvetica,sans-Serif" font-size="10.00">vector</text>
</a>
</g>
</g>
<!-- Node19&#45;&gt;Node22 -->
<g id="edge31" class="edge">
<title>Node19&#45;&gt;Node22</title>
<path fill="none" stroke="midnightblue" d="M389.41,-280.44C407.75,-271.68 436.51,-257.94 457.59,-247.86"/>
<polygon fill="midnightblue" stroke="midnightblue" points="459.17,-250.99 466.68,-243.52 456.15,-244.67 459.17,-250.99"/>
</g>
<!-- Node23 -->
<g id="node23" class="node">
<title>Node23</title>
<g id="a_node23"><a xlink:title=" ">
<polygon fill="white" stroke="#bfbfbf" points="182.5,-224.5 182.5,-243.5 220.5,-243.5 220.5,-224.5 182.5,-224.5"/>
<text text-anchor="middle" x="201.5" y="-231.5" font-family="Helvetica,sans-Serif" font-size="10.00">map</text>
</a>
</g>
</g>
<!-- Node19&#45;&gt;Node23 -->
<g id="edge32" class="edge">
<title>Node19&#45;&gt;Node23</title>
<path fill="none" stroke="midnightblue" d="M344.53,-280.49C317.86,-272.06 275.62,-258.7 230.45,-244.3"/>
<polygon fill="midnightblue" stroke="midnightblue" points="231.37,-240.91 220.78,-241.21 229.24,-247.58 231.37,-240.91"/>
</g>
<!-- Node24 -->
<g id="node24" class="node">
<title>Node24</title>
<g id="a_node24"><a xlink:title=" ">
<polygon fill="white" stroke="#bfbfbf" points="238.5,-224.5 238.5,-243.5 282.5,-243.5 282.5,-224.5 238.5,-224.5"/>
<text text-anchor="middle" x="260.5" y="-231.5" font-family="Helvetica,sans-Serif" font-size="10.00">string</text>
</a>
</g>
</g>
<!-- Node19&#45;&gt;Node24 -->
<g id="edge33" class="edge">
<title>Node19&#45;&gt;Node24</title>
<path fill="none" stroke="midnightblue" d="M353.67,-280.32C335.78,-271.62 308.02,-258.12 287.45,-248.11"/>
<polygon fill="midnightblue" stroke="midnightblue" points="288.81,-244.88 278.29,-243.65 285.75,-251.18 288.81,-244.88"/>
</g>
<!-- Node19&#45;&gt;Node25 -->
<g id="edge34" class="edge">
<title>Node19&#45;&gt;Node25</title>
<path fill="none" stroke="midnightblue" d="M400.66,-280.44C432.01,-271.24 482.03,-256.56 516.7,-246.39"/>
<polygon fill="midnightblue" stroke="midnightblue" points="517.87,-249.69 526.48,-243.52 515.9,-242.97 517.87,-249.69"/>
</g>
<!-- Node20&#45;&gt;Node3 -->
<g id="edge27" class="edge">
<title>Node20&#45;&gt;Node3</title>
<path fill="none" stroke="midnightblue" d="M355.59,-224.32C339.86,-215.74 315.56,-202.49 297.29,-192.52"/>
<polygon fill="midnightblue" stroke="midnightblue" points="298.82,-189.37 288.37,-187.65 295.47,-195.52 298.82,-189.37"/>
</g>
<!-- Node20&#45;&gt;Node6 -->
<g id="edge29" class="edge">
<title>Node20&#45;&gt;Node6</title>
<path fill="none" stroke="midnightblue" d="M372.2,-224.08C374.25,-197.95 380.25,-121.21 383.05,-85.58"/>
<polygon fill="midnightblue" stroke="midnightblue" points="386.54,-85.81 383.83,-75.57 379.56,-85.26 386.54,-85.81"/>
</g>
<!-- Node20&#45;&gt;Node17 -->
<g id="edge28" class="edge">
<title>Node20&#45;&gt;Node17</title>
<path fill="none" stroke="midnightblue" d="M385.94,-224.37C417.65,-205.41 493.61,-160 532.18,-136.94"/>
<polygon fill="midnightblue" stroke="midnightblue" points="534.34,-139.73 541.13,-131.59 530.75,-133.72 534.34,-139.73"/>
</g>
<!-- Node28 -->
<g id="node28" class="node">
<title>Node28</title>
<g id="a_node28"><a xlink:href="itkObjectFactoryBase_8h.html" target="_top" xlink:title=" ">
<polygon fill="white" stroke="black" points="583,-448.5 583,-467.5 712,-467.5 712,-448.5 583,-448.5"/>
<text text-anchor="middle" x="647.5" y="-455.5" font-family="Helvetica,sans-Serif" font-size="10.00">itkObjectFactoryBase.h</text>
</a>
</g>
</g>
<!-- Node27&#45;&gt;Node28 -->
<g id="edge38" class="edge">
<title>Node27&#45;&gt;Node28</title>
<path fill="none" stroke="midnightblue" d="M697.86,-504.32C688.99,-496.34 675.63,-484.31 664.89,-474.65"/>
<polygon fill="midnightblue" stroke="midnightblue" points="667.09,-471.92 657.32,-467.83 662.41,-477.13 667.09,-471.92"/>
</g>
<!-- Node28&#45;&gt;Node15 -->
<g id="edge41" class="edge">
<title>Node28&#45;&gt;Node15</title>
<path fill="none" stroke="midnightblue" d="M646.85,-448.38C646.18,-439.32 645.15,-424.67 644.5,-412 637.62,-278.75 664.78,-241.7 633.5,-112 631.2,-102.47 626.8,-92.52 622.62,-84.41"/>
<polygon fill="midnightblue" stroke="midnightblue" points="625.65,-82.67 617.78,-75.58 619.51,-86.03 625.65,-82.67"/>
</g>
<!-- Node28&#45;&gt;Node22 -->
<g id="edge46" class="edge">
<title>Node28&#45;&gt;Node22</title>
<path fill="none" stroke="midnightblue" d="M640.46,-448.48C633.11,-439.51 621.29,-424.92 611.5,-412 567.82,-354.36 518.53,-284.08 496.39,-252.19"/>
<polygon fill="midnightblue" stroke="midnightblue" points="499,-249.81 490.42,-243.59 493.25,-253.8 499,-249.81"/>
</g>
<!-- Node29 -->
<g id="node29" class="node">
<title>Node29</title>
<g id="a_node29"><a xlink:href="itkCreateObjectFunction_8h.html" target="_top" xlink:title=" ">
<polygon fill="white" stroke="black" points="411,-392.5 411,-411.5 554,-411.5 554,-392.5 411,-392.5"/>
<text text-anchor="middle" x="482.5" y="-399.5" font-family="Helvetica,sans-Serif" font-size="10.00">itkCreateObjectFunction.h</text>
</a>
</g>
</g>
<!-- Node28&#45;&gt;Node29 -->
<g id="edge39" class="edge">
<title>Node28&#45;&gt;Node29</title>
<path fill="none" stroke="midnightblue" d="M621.36,-448.44C593.48,-439.32 549.15,-424.81 518.1,-414.65"/>
<polygon fill="midnightblue" stroke="midnightblue" points="519.12,-411.3 508.52,-411.52 516.94,-417.95 519.12,-411.3"/>
</g>
<!-- Node30 -->
<g id="node30" class="node">
<title>Node30</title>
<g id="a_node30"><a xlink:href="itkCommonEnums_8h.html" target="_top" xlink:title=" ">
<polygon fill="white" stroke="black" points="703.5,-392.5 703.5,-411.5 819.5,-411.5 819.5,-392.5 703.5,-392.5"/>
<text text-anchor="middle" x="761.5" y="-399.5" font-family="Helvetica,sans-Serif" font-size="10.00">itkCommonEnums.h</text>
</a>
</g>
</g>
<!-- Node28&#45;&gt;Node30 -->
<g id="edge42" class="edge">
<title>Node28&#45;&gt;Node30</title>
<path fill="none" stroke="midnightblue" d="M665.56,-448.44C684.07,-439.68 713.08,-425.94 734.36,-415.86"/>
<polygon fill="midnightblue" stroke="midnightblue" points="735.98,-418.96 743.52,-411.52 732.99,-412.63 735.98,-418.96"/>
</g>
<!-- Node32 -->
<g id="node32" class="node">
<title>Node32</title>
<g id="a_node32"><a xlink:title=" ">
<polygon fill="white" stroke="#bfbfbf" points="653.5,-392.5 653.5,-411.5 685.5,-411.5 685.5,-392.5 653.5,-392.5"/>
<text text-anchor="middle" x="669.5" y="-399.5" font-family="Helvetica,sans-Serif" font-size="10.00">list</text>
</a>
</g>
</g>
<!-- Node28&#45;&gt;Node32 -->
<g id="edge45" class="edge">
<title>Node28&#45;&gt;Node32</title>
<path fill="none" stroke="midnightblue" d="M651.13,-448.08C654.11,-440.77 658.43,-430.18 662.12,-421.1"/>
<polygon fill="midnightblue" stroke="midnightblue" points="665.4,-422.33 665.93,-411.75 658.92,-419.69 665.4,-422.33"/>
</g>
<!-- Node29&#45;&gt;Node2 -->
<g id="edge40" class="edge">
<title>Node29&#45;&gt;Node2</title>
<path fill="none" stroke="midnightblue" d="M464.67,-392.32C446.78,-383.62 419.02,-370.12 398.45,-360.11"/>
<polygon fill="midnightblue" stroke="midnightblue" points="399.81,-356.88 389.29,-355.65 396.75,-363.18 399.81,-356.88"/>
</g>
<!-- Node30&#45;&gt;Node11 -->
<g id="edge43" class="edge">
<title>Node30&#45;&gt;Node11</title>
<path fill="none" stroke="midnightblue" d="M768.17,-392.44C781.36,-374.62 809.5,-331.84 809.5,-291 809.5,-291 809.5,-291 809.5,-177 809.5,-142.52 791.59,-105.56 779.44,-84.47"/>
<polygon fill="midnightblue" stroke="midnightblue" points="782.34,-82.49 774.2,-75.71 776.34,-86.09 782.34,-82.49"/>
</g>
<!-- Node31 -->
<g id="node31" class="node">
<title>Node31</title>
<g id="a_node31"><a xlink:title=" ">
<polygon fill="white" stroke="#bfbfbf" points="724,-336.5 724,-355.5 781,-355.5 781,-336.5 724,-336.5"/>
<text text-anchor="middle" x="752.5" y="-343.5" font-family="Helvetica,sans-Serif" font-size="10.00">ostream</text>
</a>
</g>
</g>
<!-- Node30&#45;&gt;Node31 -->
<g id="edge44" class="edge">
<title>Node30&#45;&gt;Node31</title>
<path fill="none" stroke="midnightblue" d="M760.01,-392.08C758.82,-384.93 757.11,-374.64 755.62,-365.69"/>
<polygon fill="midnightblue" stroke="midnightblue" points="759.05,-365.04 753.96,-355.75 752.15,-366.19 759.05,-365.04"/>
</g>
</g>
</svg>
