<?xml version="1.0" encoding="UTF-8" standalone="no"?>
<!DOCTYPE svg PUBLIC "-//W3C//DTD SVG 1.1//EN"
 "http://www.w3.org/Graphics/SVG/1.1/DTD/svg11.dtd">
<!-- Generated by graphviz version 2.43.0 (0)
 -->
<!-- Title: itkBinaryCrossStructuringElement.h Pages: 1 -->
<svg width="1090pt" height="464pt"
 viewBox="0.00 0.00 1090.00 464.00" xmlns="http://www.w3.org/2000/svg" xmlns:xlink="http://www.w3.org/1999/xlink">
<g id="graph0" class="graph" transform="scale(1 1) rotate(0) translate(4 460)">
<title>itkBinaryCrossStructuringElement.h</title>
<polygon fill="white" stroke="transparent" points="-4,4 -4,-460 1086,-460 1086,4 -4,4"/>
<!-- Node1 -->
<g id="node1" class="node">
<title>Node1</title>
<g id="a_node1"><a xlink:title=" ">
<polygon fill="#bfbfbf" stroke="black" points="410,-425.5 410,-455.5 551,-455.5 551,-425.5 410,-425.5"/>
<text text-anchor="start" x="418" y="-443.5" font-family="Helvetica,sans-Serif" font-size="10.00">itkBinaryCrossStructuring</text>
<text text-anchor="middle" x="480.5" y="-432.5" font-family="Helvetica,sans-Serif" font-size="10.00">Element.h</text>
</a>
</g>
</g>
<!-- Node2 -->
<g id="node2" class="node">
<title>Node2</title>
<g id="a_node2"><a xlink:href="itkNeighborhood_8h.html" target="_top" xlink:title=" ">
<polygon fill="white" stroke="black" points="285,-358.5 285,-377.5 392,-377.5 392,-358.5 285,-358.5"/>
<text text-anchor="middle" x="338.5" y="-365.5" font-family="Helvetica,sans-Serif" font-size="10.00">itkNeighborhood.h</text>
</a>
</g>
</g>
<!-- Node1&#45;&gt;Node2 -->
<g id="edge1" class="edge">
<title>Node1&#45;&gt;Node2</title>
<path fill="none" stroke="midnightblue" d="M452.11,-425.4C426.67,-412.77 389.65,-394.4 364.86,-382.09"/>
<polygon fill="midnightblue" stroke="midnightblue" points="366.2,-378.85 355.69,-377.53 363.09,-385.12 366.2,-378.85"/>
</g>
<!-- Node36 -->
<g id="node36" class="node">
<title>Node36</title>
<g id="a_node36"><a xlink:title=" ">
<polygon fill="white" stroke="#bfbfbf" points="410,-353 410,-383 551,-383 551,-353 410,-353"/>
<text text-anchor="start" x="418" y="-371" font-family="Helvetica,sans-Serif" font-size="10.00">itkBinaryCrossStructuring</text>
<text text-anchor="middle" x="480.5" y="-360" font-family="Helvetica,sans-Serif" font-size="10.00">Element.hxx</text>
</a>
</g>
</g>
<!-- Node1&#45;&gt;Node36 -->
<g id="edge54" class="edge">
<title>Node1&#45;&gt;Node36</title>
<path fill="none" stroke="midnightblue" d="M480.5,-425.23C480.5,-416.16 480.5,-404.16 480.5,-393.58"/>
<polygon fill="midnightblue" stroke="midnightblue" points="484,-393.25 480.5,-383.25 477,-393.25 484,-393.25"/>
</g>
<!-- Node37 -->
<g id="node37" class="node">
<title>Node37</title>
<g id="a_node37"><a xlink:title=" ">
<polygon fill="white" stroke="#bfbfbf" points="569.5,-347.5 569.5,-388.5 761.5,-388.5 761.5,-347.5 569.5,-347.5"/>
<text text-anchor="start" x="577.5" y="-376.5" font-family="Helvetica,sans-Serif" font-size="10.00">/work/ITK/Modules/Filtering</text>
<text text-anchor="start" x="577.5" y="-365.5" font-family="Helvetica,sans-Serif" font-size="10.00">/MathematicalMorphology</text>
<text text-anchor="middle" x="665.5" y="-354.5" font-family="Helvetica,sans-Serif" font-size="10.00">/include/itkFlatStructuringElement.h</text>
</a>
</g>
</g>
<!-- Node1&#45;&gt;Node37 -->
<g id="edge55" class="edge">
<title>Node1&#45;&gt;Node37</title>
<path fill="none" stroke="midnightblue" d="M517.49,-425.4C542.41,-415.91 575.85,-403.16 604.64,-392.19"/>
<polygon fill="midnightblue" stroke="midnightblue" points="606.11,-395.38 614.21,-388.55 603.62,-388.84 606.11,-395.38"/>
</g>
<!-- Node3 -->
<g id="node3" class="node">
<title>Node3</title>
<g id="a_node3"><a xlink:title=" ">
<polygon fill="white" stroke="#bfbfbf" points="160.5,-123.5 160.5,-142.5 220.5,-142.5 220.5,-123.5 160.5,-123.5"/>
<text text-anchor="middle" x="190.5" y="-130.5" font-family="Helvetica,sans-Serif" font-size="10.00">iostream</text>
</a>
</g>
</g>
<!-- Node2&#45;&gt;Node3 -->
<g id="edge2" class="edge">
<title>Node2&#45;&gt;Node3</title>
<path fill="none" stroke="midnightblue" d="M334.3,-358.35C316.86,-322.49 250.79,-186.94 244.5,-179 235.38,-167.49 222.91,-156.86 212.25,-148.82"/>
<polygon fill="midnightblue" stroke="midnightblue" points="213.98,-145.76 203.83,-142.72 209.87,-151.43 213.98,-145.76"/>
</g>
<!-- Node4 -->
<g id="node4" class="node">
<title>Node4</title>
<g id="a_node4"><a xlink:href="itkNeighborhoodAllocator_8h.html" target="_top" xlink:title=" ">
<polygon fill="white" stroke="black" points="87,-179.5 87,-198.5 236,-198.5 236,-179.5 87,-179.5"/>
<text text-anchor="middle" x="161.5" y="-186.5" font-family="Helvetica,sans-Serif" font-size="10.00">itkNeighborhoodAllocator.h</text>
</a>
</g>
</g>
<!-- Node2&#45;&gt;Node4 -->
<g id="edge3" class="edge">
<title>Node2&#45;&gt;Node4</title>
<path fill="none" stroke="midnightblue" d="M320.75,-358.42C301.74,-348.68 271.37,-331.45 249.5,-311 215.5,-279.21 185.98,-232.63 171.33,-207.55"/>
<polygon fill="midnightblue" stroke="midnightblue" points="174.31,-205.72 166.3,-198.78 168.24,-209.2 174.31,-205.72"/>
</g>
<!-- Node8 -->
<g id="node8" class="node">
<title>Node8</title>
<g id="a_node8"><a xlink:href="itkIndent_8h.html" target="_top" xlink:title=" ">
<polygon fill="white" stroke="black" points="0,-179.5 0,-198.5 69,-198.5 69,-179.5 0,-179.5"/>
<text text-anchor="middle" x="34.5" y="-186.5" font-family="Helvetica,sans-Serif" font-size="10.00">itkIndent.h</text>
</a>
</g>
</g>
<!-- Node2&#45;&gt;Node8 -->
<g id="edge8" class="edge">
<title>Node2&#45;&gt;Node8</title>
<path fill="none" stroke="midnightblue" d="M319.98,-358.43C297.52,-347.88 258.7,-329.14 226.5,-311 162.84,-275.14 90.67,-227.75 55.72,-204.34"/>
<polygon fill="midnightblue" stroke="midnightblue" points="57.52,-201.34 47.27,-198.67 53.62,-207.15 57.52,-201.34"/>
</g>
<!-- Node9 -->
<g id="node9" class="node">
<title>Node9</title>
<g id="a_node9"><a xlink:href="itkSliceIterator_8h.html" target="_top" xlink:title=" ">
<polygon fill="white" stroke="black" points="239,-123.5 239,-142.5 336,-142.5 336,-123.5 239,-123.5"/>
<text text-anchor="middle" x="287.5" y="-130.5" font-family="Helvetica,sans-Serif" font-size="10.00">itkSliceIterator.h</text>
</a>
</g>
</g>
<!-- Node2&#45;&gt;Node9 -->
<g id="edge11" class="edge">
<title>Node2&#45;&gt;Node9</title>
<path fill="none" stroke="midnightblue" d="M335.35,-358.37C331.45,-347.45 324.81,-328.03 320.5,-311 306.1,-254.05 295.06,-185.33 290.2,-152.81"/>
<polygon fill="midnightblue" stroke="midnightblue" points="293.62,-151.94 288.7,-142.56 286.69,-152.96 293.62,-151.94"/>
</g>
<!-- Node14 -->
<g id="node14" class="node">
<title>Node14</title>
<g id="a_node14"><a xlink:title=" ">
<polygon fill="white" stroke="#bfbfbf" points="329.5,-291.5 329.5,-310.5 423.5,-310.5 423.5,-291.5 329.5,-291.5"/>
<text text-anchor="middle" x="376.5" y="-298.5" font-family="Helvetica,sans-Serif" font-size="10.00">vnl/vnl_vector.h</text>
</a>
</g>
</g>
<!-- Node2&#45;&gt;Node14 -->
<g id="edge18" class="edge">
<title>Node2&#45;&gt;Node14</title>
<path fill="none" stroke="midnightblue" d="M343.62,-358.23C349.44,-348.29 359.06,-331.84 366.39,-319.29"/>
<polygon fill="midnightblue" stroke="midnightblue" points="369.43,-321.03 371.46,-310.63 363.39,-317.49 369.43,-321.03"/>
</g>
<!-- Node15 -->
<g id="node15" class="node">
<title>Node15</title>
<g id="a_node15"><a xlink:href="itkOffset_8h.html" target="_top" xlink:title=" ">
<polygon fill="white" stroke="black" points="441.5,-291.5 441.5,-310.5 509.5,-310.5 509.5,-291.5 441.5,-291.5"/>
<text text-anchor="middle" x="475.5" y="-298.5" font-family="Helvetica,sans-Serif" font-size="10.00">itkOffset.h</text>
</a>
</g>
</g>
<!-- Node2&#45;&gt;Node15 -->
<g id="edge19" class="edge">
<title>Node2&#45;&gt;Node15</title>
<path fill="none" stroke="midnightblue" d="M356.69,-358.37C380.03,-347.3 420.73,-327.99 447.89,-315.1"/>
<polygon fill="midnightblue" stroke="midnightblue" points="449.7,-318.12 457.23,-310.67 446.7,-311.79 449.7,-318.12"/>
</g>
<!-- Node34 -->
<g id="node34" class="node">
<title>Node34</title>
<g id="a_node34"><a xlink:title=" ">
<polygon fill="white" stroke="#bfbfbf" points="528,-291.5 528,-310.5 575,-310.5 575,-291.5 528,-291.5"/>
<text text-anchor="middle" x="551.5" y="-298.5" font-family="Helvetica,sans-Serif" font-size="10.00">vector</text>
</a>
</g>
</g>
<!-- Node2&#45;&gt;Node34 -->
<g id="edge52" class="edge">
<title>Node2&#45;&gt;Node34</title>
<path fill="none" stroke="midnightblue" d="M365.14,-358.44C376.35,-354.86 389.55,-350.69 401.5,-347 441.53,-334.64 487.71,-320.86 518.14,-311.84"/>
<polygon fill="midnightblue" stroke="midnightblue" points="519.23,-315.17 527.82,-308.98 517.24,-308.46 519.23,-315.17"/>
</g>
<!-- Node35 -->
<g id="node35" class="node">
<title>Node35</title>
<g id="a_node35"><a xlink:title=" ">
<polygon fill="white" stroke="#bfbfbf" points="593,-291.5 593,-310.5 712,-310.5 712,-291.5 593,-291.5"/>
<text text-anchor="middle" x="652.5" y="-298.5" font-family="Helvetica,sans-Serif" font-size="10.00">itkNeighborhood.hxx</text>
</a>
</g>
</g>
<!-- Node2&#45;&gt;Node35 -->
<g id="edge53" class="edge">
<title>Node2&#45;&gt;Node35</title>
<path fill="none" stroke="midnightblue" d="M362.82,-358.46C374.43,-354.6 388.58,-350.2 401.5,-347 462.11,-332.01 532.12,-319.88 582.77,-312.01"/>
<polygon fill="midnightblue" stroke="midnightblue" points="583.61,-315.42 592.96,-310.44 582.54,-308.5 583.61,-315.42"/>
</g>
<!-- Node4&#45;&gt;Node3 -->
<g id="edge5" class="edge">
<title>Node4&#45;&gt;Node3</title>
<path fill="none" stroke="midnightblue" d="M166.29,-179.08C170.26,-171.69 176.03,-160.95 180.93,-151.81"/>
<polygon fill="midnightblue" stroke="midnightblue" points="184.15,-153.22 185.8,-142.75 177.99,-149.91 184.15,-153.22"/>
</g>
<!-- Node5 -->
<g id="node5" class="node">
<title>Node5</title>
<g id="a_node5"><a xlink:title=" ">
<polygon fill="white" stroke="#bfbfbf" points="561.5,-6 561.5,-25 625.5,-25 625.5,-6 561.5,-6"/>
<text text-anchor="middle" x="593.5" y="-13" font-family="Helvetica,sans-Serif" font-size="10.00">algorithm</text>
</a>
</g>
</g>
<!-- Node4&#45;&gt;Node5 -->
<g id="edge4" class="edge">
<title>Node4&#45;&gt;Node5</title>
<path fill="none" stroke="midnightblue" d="M236.12,-184.19C346.44,-177.9 542.75,-163.91 567.5,-143 598.81,-116.55 598.66,-63.37 596.02,-35.12"/>
<polygon fill="midnightblue" stroke="midnightblue" points="599.47,-34.54 594.86,-25 592.52,-35.33 599.47,-34.54"/>
</g>
<!-- Node6 -->
<g id="node6" class="node">
<title>Node6</title>
<g id="a_node6"><a xlink:title=" ">
<polygon fill="white" stroke="#bfbfbf" points="274.5,-67.5 274.5,-86.5 332.5,-86.5 332.5,-67.5 274.5,-67.5"/>
<text text-anchor="middle" x="303.5" y="-74.5" font-family="Helvetica,sans-Serif" font-size="10.00">memory</text>
</a>
</g>
</g>
<!-- Node4&#45;&gt;Node6 -->
<g id="edge6" class="edge">
<title>Node4&#45;&gt;Node6</title>
<path fill="none" stroke="midnightblue" d="M156.59,-179.46C149.59,-166.05 138.93,-139.83 151.5,-123 165.02,-104.9 223.73,-91.5 264.1,-84.23"/>
<polygon fill="midnightblue" stroke="midnightblue" points="264.94,-87.63 274.18,-82.46 263.73,-80.74 264.94,-87.63"/>
</g>
<!-- Node7 -->
<g id="node7" class="node">
<title>Node7</title>
<g id="a_node7"><a xlink:href="itkMacro_8h.html" target="_top" xlink:title=" ">
<polygon fill="white" stroke="black" points="229.5,-6 229.5,-25 297.5,-25 297.5,-6 229.5,-6"/>
<text text-anchor="middle" x="263.5" y="-13" font-family="Helvetica,sans-Serif" font-size="10.00">itkMacro.h</text>
</a>
</g>
</g>
<!-- Node4&#45;&gt;Node7 -->
<g id="edge7" class="edge">
<title>Node4&#45;&gt;Node7</title>
<path fill="none" stroke="midnightblue" d="M156.32,-179.21C144.54,-157.96 118.57,-102.92 142.5,-67 159.51,-41.47 192.15,-28.82 219.25,-22.57"/>
<polygon fill="midnightblue" stroke="midnightblue" points="220.24,-25.94 229.31,-20.48 218.81,-19.09 220.24,-25.94"/>
</g>
<!-- Node8&#45;&gt;Node3 -->
<g id="edge10" class="edge">
<title>Node8&#45;&gt;Node3</title>
<path fill="none" stroke="midnightblue" d="M59.22,-179.44C85.35,-170.4 126.76,-156.06 156.08,-145.92"/>
<polygon fill="midnightblue" stroke="midnightblue" points="157.59,-149.1 165.9,-142.52 155.3,-142.48 157.59,-149.1"/>
</g>
<!-- Node8&#45;&gt;Node7 -->
<g id="edge9" class="edge">
<title>Node8&#45;&gt;Node7</title>
<path fill="none" stroke="midnightblue" d="M39.21,-179.38C51.53,-157.55 86.91,-99.53 131.5,-67 157.89,-47.75 192.54,-34.86 219.71,-26.93"/>
<polygon fill="midnightblue" stroke="midnightblue" points="220.67,-30.29 229.36,-24.22 218.79,-23.55 220.67,-30.29"/>
</g>
<!-- Node9&#45;&gt;Node7 -->
<g id="edge12" class="edge">
<title>Node9&#45;&gt;Node7</title>
<path fill="none" stroke="midnightblue" d="M244.58,-123.5C209.04,-115.48 162.64,-102.42 151.5,-87 129.92,-57.13 179.35,-37.01 219.28,-26.15"/>
<polygon fill="midnightblue" stroke="midnightblue" points="220.38,-29.49 229.18,-23.59 218.62,-22.71 220.38,-29.49"/>
</g>
<!-- Node10 -->
<g id="node10" class="node">
<title>Node10</title>
<g id="a_node10"><a xlink:href="itkIntTypes_8h.html" target="_top" xlink:title=" ">
<polygon fill="white" stroke="black" points="351,-67.5 351,-86.5 430,-86.5 430,-67.5 351,-67.5"/>
<text text-anchor="middle" x="390.5" y="-74.5" font-family="Helvetica,sans-Serif" font-size="10.00">itkIntTypes.h</text>
</a>
</g>
</g>
<!-- Node9&#45;&gt;Node10 -->
<g id="edge13" class="edge">
<title>Node9&#45;&gt;Node10</title>
<path fill="none" stroke="midnightblue" d="M304.05,-123.32C320.49,-114.7 345.93,-101.36 364.97,-91.39"/>
<polygon fill="midnightblue" stroke="midnightblue" points="366.76,-94.4 373.99,-86.65 363.51,-88.2 366.76,-94.4"/>
</g>
<!-- Node13 -->
<g id="node13" class="node">
<title>Node13</title>
<g id="a_node13"><a xlink:title=" ">
<polygon fill="white" stroke="#bfbfbf" points="161,-67.5 161,-86.5 218,-86.5 218,-67.5 161,-67.5"/>
<text text-anchor="middle" x="189.5" y="-74.5" font-family="Helvetica,sans-Serif" font-size="10.00">valarray</text>
</a>
</g>
</g>
<!-- Node9&#45;&gt;Node13 -->
<g id="edge17" class="edge">
<title>Node9&#45;&gt;Node13</title>
<path fill="none" stroke="midnightblue" d="M271.75,-123.32C256.18,-114.74 232.12,-101.49 214.04,-91.52"/>
<polygon fill="midnightblue" stroke="midnightblue" points="215.65,-88.42 205.21,-86.65 212.28,-94.55 215.65,-88.42"/>
</g>
<!-- Node10&#45;&gt;Node7 -->
<g id="edge14" class="edge">
<title>Node10&#45;&gt;Node7</title>
<path fill="none" stroke="midnightblue" d="M372.3,-67.48C350.99,-57.49 315.47,-40.85 290.84,-29.31"/>
<polygon fill="midnightblue" stroke="midnightblue" points="292.2,-26.08 281.66,-25.01 289.23,-32.42 292.2,-26.08"/>
</g>
<!-- Node11 -->
<g id="node11" class="node">
<title>Node11</title>
<g id="a_node11"><a xlink:title=" ">
<polygon fill="white" stroke="#bfbfbf" points="416.5,-6 416.5,-25 466.5,-25 466.5,-6 416.5,-6"/>
<text text-anchor="middle" x="441.5" y="-13" font-family="Helvetica,sans-Serif" font-size="10.00">cstdint</text>
</a>
</g>
</g>
<!-- Node10&#45;&gt;Node11 -->
<g id="edge15" class="edge">
<title>Node10&#45;&gt;Node11</title>
<path fill="none" stroke="midnightblue" d="M397.81,-67.48C405.53,-58.46 417.91,-44.02 427.52,-32.81"/>
<polygon fill="midnightblue" stroke="midnightblue" points="430.36,-34.88 434.21,-25.01 425.04,-30.32 430.36,-34.88"/>
</g>
<!-- Node12 -->
<g id="node12" class="node">
<title>Node12</title>
<g id="a_node12"><a xlink:title=" ">
<polygon fill="white" stroke="#bfbfbf" points="348.5,-6 348.5,-25 398.5,-25 398.5,-6 348.5,-6"/>
<text text-anchor="middle" x="373.5" y="-13" font-family="Helvetica,sans-Serif" font-size="10.00">climits</text>
</a>
</g>
</g>
<!-- Node10&#45;&gt;Node12 -->
<g id="edge16" class="edge">
<title>Node10&#45;&gt;Node12</title>
<path fill="none" stroke="midnightblue" d="M388.06,-67.48C385.64,-58.99 381.84,-45.7 378.73,-34.82"/>
<polygon fill="midnightblue" stroke="midnightblue" points="382.04,-33.66 375.93,-25.01 375.31,-35.59 382.04,-33.66"/>
</g>
<!-- Node16 -->
<g id="node16" class="node">
<title>Node16</title>
<g id="a_node16"><a xlink:href="itkSize_8h.html" target="_top" xlink:title=" ">
<polygon fill="white" stroke="black" points="499,-123.5 499,-142.5 558,-142.5 558,-123.5 499,-123.5"/>
<text text-anchor="middle" x="528.5" y="-130.5" font-family="Helvetica,sans-Serif" font-size="10.00">itkSize.h</text>
</a>
</g>
</g>
<!-- Node15&#45;&gt;Node16 -->
<g id="edge20" class="edge">
<title>Node15&#45;&gt;Node16</title>
<path fill="none" stroke="midnightblue" d="M474.56,-291.32C472.71,-270.77 470.16,-217.96 487.5,-179 492.52,-167.73 501.48,-157.39 509.75,-149.46"/>
<polygon fill="midnightblue" stroke="midnightblue" points="512.22,-151.95 517.31,-142.66 507.54,-146.74 512.22,-151.95"/>
</g>
<!-- Node19 -->
<g id="node19" class="node">
<title>Node19</title>
<g id="a_node19"><a xlink:href="itkMath_8h.html" target="_top" xlink:title=" ">
<polygon fill="white" stroke="black" points="673,-235.5 673,-254.5 736,-254.5 736,-235.5 673,-235.5"/>
<text text-anchor="middle" x="704.5" y="-242.5" font-family="Helvetica,sans-Serif" font-size="10.00">itkMath.h</text>
</a>
</g>
</g>
<!-- Node15&#45;&gt;Node19 -->
<g id="edge27" class="edge">
<title>Node15&#45;&gt;Node19</title>
<path fill="none" stroke="midnightblue" d="M509.78,-291.92C550.76,-282.25 619.28,-266.09 663.16,-255.75"/>
<polygon fill="midnightblue" stroke="midnightblue" points="664,-259.15 672.93,-253.44 662.4,-252.33 664,-259.15"/>
</g>
<!-- Node16&#45;&gt;Node5 -->
<g id="edge24" class="edge">
<title>Node16&#45;&gt;Node5</title>
<path fill="none" stroke="midnightblue" d="M537.04,-123.32C545.19,-114.68 557.38,-100.76 565.5,-87 575.31,-70.37 583.07,-49.66 587.91,-35"/>
<polygon fill="midnightblue" stroke="midnightblue" points="591.35,-35.73 591.02,-25.14 584.67,-33.62 591.35,-35.73"/>
</g>
<!-- Node16&#45;&gt;Node6 -->
<g id="edge26" class="edge">
<title>Node16&#45;&gt;Node6</title>
<path fill="none" stroke="midnightblue" d="M498.62,-124.83C458.48,-115.19 387.04,-98.05 342.64,-87.39"/>
<polygon fill="midnightblue" stroke="midnightblue" points="343.33,-83.96 332.79,-85.03 341.69,-90.77 343.33,-83.96"/>
</g>
<!-- Node16&#45;&gt;Node7 -->
<g id="edge22" class="edge">
<title>Node16&#45;&gt;Node7</title>
<path fill="none" stroke="midnightblue" d="M518.84,-123.14C503.26,-109.28 471.12,-82.48 439.5,-67 396.83,-46.12 344,-32.41 307.41,-24.61"/>
<polygon fill="midnightblue" stroke="midnightblue" points="308.05,-21.17 297.54,-22.57 306.63,-28.02 308.05,-21.17"/>
</g>
<!-- Node16&#45;&gt;Node10 -->
<g id="edge21" class="edge">
<title>Node16&#45;&gt;Node10</title>
<path fill="none" stroke="midnightblue" d="M506.63,-123.44C483.72,-114.48 447.52,-100.31 421.63,-90.18"/>
<polygon fill="midnightblue" stroke="midnightblue" points="422.85,-86.9 412.26,-86.52 420.3,-93.42 422.85,-86.9"/>
</g>
<!-- Node17 -->
<g id="node17" class="node">
<title>Node17</title>
<g id="a_node17"><a xlink:href="itkMakeFilled_8h.html" target="_top" xlink:title=" ">
<polygon fill="white" stroke="black" points="644,-6 644,-25 735,-25 735,-6 644,-6"/>
<text text-anchor="middle" x="689.5" y="-13" font-family="Helvetica,sans-Serif" font-size="10.00">itkMakeFilled.h</text>
</a>
</g>
</g>
<!-- Node16&#45;&gt;Node17 -->
<g id="edge23" class="edge">
<title>Node16&#45;&gt;Node17</title>
<path fill="none" stroke="midnightblue" d="M540.6,-123.32C567.99,-103.67 634.98,-55.61 668.99,-31.22"/>
<polygon fill="midnightblue" stroke="midnightblue" points="671.17,-33.96 677.26,-25.28 667.09,-28.27 671.17,-33.96"/>
</g>
<!-- Node18 -->
<g id="node18" class="node">
<title>Node18</title>
<g id="a_node18"><a xlink:title=" ">
<polygon fill="white" stroke="#bfbfbf" points="487,-67.5 487,-86.5 556,-86.5 556,-67.5 487,-67.5"/>
<text text-anchor="middle" x="521.5" y="-74.5" font-family="Helvetica,sans-Serif" font-size="10.00">type_traits</text>
</a>
</g>
</g>
<!-- Node16&#45;&gt;Node18 -->
<g id="edge25" class="edge">
<title>Node16&#45;&gt;Node18</title>
<path fill="none" stroke="midnightblue" d="M527.34,-123.08C526.42,-115.93 525.08,-105.64 523.92,-96.69"/>
<polygon fill="midnightblue" stroke="midnightblue" points="527.39,-96.22 522.63,-86.75 520.45,-97.12 527.39,-96.22"/>
</g>
<!-- Node20 -->
<g id="node20" class="node">
<title>Node20</title>
<g id="a_node20"><a xlink:title=" ">
<polygon fill="white" stroke="#bfbfbf" points="637,-179.5 637,-198.5 684,-198.5 684,-179.5 637,-179.5"/>
<text text-anchor="middle" x="660.5" y="-186.5" font-family="Helvetica,sans-Serif" font-size="10.00">cmath</text>
</a>
</g>
</g>
<!-- Node19&#45;&gt;Node20 -->
<g id="edge28" class="edge">
<title>Node19&#45;&gt;Node20</title>
<path fill="none" stroke="midnightblue" d="M697.23,-235.08C690.96,-227.38 681.71,-216.03 674.07,-206.65"/>
<polygon fill="midnightblue" stroke="midnightblue" points="676.66,-204.29 667.63,-198.75 671.23,-208.71 676.66,-204.29"/>
</g>
<!-- Node21 -->
<g id="node21" class="node">
<title>Node21</title>
<g id="a_node21"><a xlink:href="itkMathDetail_8h.html" target="_top" xlink:title=" ">
<polygon fill="white" stroke="black" points="702.5,-179.5 702.5,-198.5 794.5,-198.5 794.5,-179.5 702.5,-179.5"/>
<text text-anchor="middle" x="748.5" y="-186.5" font-family="Helvetica,sans-Serif" font-size="10.00">itkMathDetail.h</text>
</a>
</g>
</g>
<!-- Node19&#45;&gt;Node21 -->
<g id="edge29" class="edge">
<title>Node19&#45;&gt;Node21</title>
<path fill="none" stroke="midnightblue" d="M711.77,-235.08C718.04,-227.38 727.29,-216.03 734.93,-206.65"/>
<polygon fill="midnightblue" stroke="midnightblue" points="737.77,-208.71 741.37,-198.75 732.34,-204.29 737.77,-208.71"/>
</g>
<!-- Node30 -->
<g id="node30" class="node">
<title>Node30</title>
<g id="a_node30"><a xlink:href="itkConceptChecking_8h.html" target="_top" xlink:title=" ">
<polygon fill="white" stroke="black" points="496,-179.5 496,-198.5 619,-198.5 619,-179.5 496,-179.5"/>
<text text-anchor="middle" x="557.5" y="-186.5" font-family="Helvetica,sans-Serif" font-size="10.00">itkConceptChecking.h</text>
</a>
</g>
</g>
<!-- Node19&#45;&gt;Node30 -->
<g id="edge45" class="edge">
<title>Node19&#45;&gt;Node30</title>
<path fill="none" stroke="midnightblue" d="M681.21,-235.44C656.69,-226.44 617.9,-212.19 590.3,-202.05"/>
<polygon fill="midnightblue" stroke="midnightblue" points="591.28,-198.68 580.68,-198.52 588.86,-205.25 591.28,-198.68"/>
</g>
<!-- Node32 -->
<g id="node32" class="node">
<title>Node32</title>
<g id="a_node32"><a xlink:title=" ">
<polygon fill="white" stroke="#bfbfbf" points="813,-179.5 813,-198.5 902,-198.5 902,-179.5 813,-179.5"/>
<text text-anchor="middle" x="857.5" y="-186.5" font-family="Helvetica,sans-Serif" font-size="10.00">vnl/vnl_math.h</text>
</a>
</g>
</g>
<!-- Node19&#45;&gt;Node32 -->
<g id="edge50" class="edge">
<title>Node19&#45;&gt;Node32</title>
<path fill="none" stroke="midnightblue" d="M728.74,-235.44C754.37,-226.4 794.99,-212.06 823.74,-201.92"/>
<polygon fill="midnightblue" stroke="midnightblue" points="825.11,-205.15 833.37,-198.52 822.78,-198.54 825.11,-205.15"/>
</g>
<!-- Node33 -->
<g id="node33" class="node">
<title>Node33</title>
<g id="a_node33"><a xlink:title=" ">
<polygon fill="white" stroke="#bfbfbf" points="920.5,-179.5 920.5,-198.5 1002.5,-198.5 1002.5,-179.5 920.5,-179.5"/>
<text text-anchor="middle" x="961.5" y="-186.5" font-family="Helvetica,sans-Serif" font-size="10.00">vxl_version.h</text>
</a>
</g>
</g>
<!-- Node19&#45;&gt;Node33 -->
<g id="edge51" class="edge">
<title>Node19&#45;&gt;Node33</title>
<path fill="none" stroke="midnightblue" d="M736.01,-237.38C779.62,-228.22 858.84,-211.57 910.82,-200.65"/>
<polygon fill="midnightblue" stroke="midnightblue" points="911.76,-204.03 920.83,-198.55 910.32,-197.18 911.76,-204.03"/>
</g>
<!-- Node21&#45;&gt;Node10 -->
<g id="edge30" class="edge">
<title>Node21&#45;&gt;Node10</title>
<path fill="none" stroke="midnightblue" d="M702.23,-180.42C630.66,-168.63 500.29,-146.85 490.5,-143 474.01,-136.52 434.88,-109.65 410.75,-92.56"/>
<polygon fill="midnightblue" stroke="midnightblue" points="412.48,-89.5 402.31,-86.54 408.42,-95.2 412.48,-89.5"/>
</g>
<!-- Node22 -->
<g id="node22" class="node">
<title>Node22</title>
<g id="a_node22"><a xlink:href="itkNumericTraits_8h.html" target="_top" xlink:title=" ">
<polygon fill="white" stroke="black" points="695.5,-123.5 695.5,-142.5 801.5,-142.5 801.5,-123.5 695.5,-123.5"/>
<text text-anchor="middle" x="748.5" y="-130.5" font-family="Helvetica,sans-Serif" font-size="10.00">itkNumericTraits.h</text>
</a>
</g>
</g>
<!-- Node21&#45;&gt;Node22 -->
<g id="edge31" class="edge">
<title>Node21&#45;&gt;Node22</title>
<path fill="none" stroke="midnightblue" d="M748.5,-179.08C748.5,-172.01 748.5,-161.86 748.5,-152.99"/>
<polygon fill="midnightblue" stroke="midnightblue" points="752,-152.75 748.5,-142.75 745,-152.75 752,-152.75"/>
</g>
<!-- Node29 -->
<g id="node29" class="node">
<title>Node29</title>
<g id="a_node29"><a xlink:title=" ">
<polygon fill="white" stroke="#bfbfbf" points="819.5,-123.5 819.5,-142.5 863.5,-142.5 863.5,-123.5 819.5,-123.5"/>
<text text-anchor="middle" x="841.5" y="-130.5" font-family="Helvetica,sans-Serif" font-size="10.00">cfenv</text>
</a>
</g>
</g>
<!-- Node21&#45;&gt;Node29 -->
<g id="edge44" class="edge">
<title>Node21&#45;&gt;Node29</title>
<path fill="none" stroke="midnightblue" d="M763.44,-179.32C778.09,-170.82 800.63,-157.73 817.74,-147.8"/>
<polygon fill="midnightblue" stroke="midnightblue" points="819.7,-150.7 826.6,-142.65 816.19,-144.65 819.7,-150.7"/>
</g>
<!-- Node22&#45;&gt;Node7 -->
<g id="edge32" class="edge">
<title>Node22&#45;&gt;Node7</title>
<path fill="none" stroke="midnightblue" d="M728.3,-123.44C694.97,-109.64 626.1,-82.45 565.5,-67 466.94,-41.87 439.69,-48.53 339.5,-31 329.07,-29.18 317.86,-27.1 307.34,-25.1"/>
<polygon fill="midnightblue" stroke="midnightblue" points="307.99,-21.66 297.51,-23.22 306.67,-28.54 307.99,-21.66"/>
</g>
<!-- Node23 -->
<g id="node23" class="node">
<title>Node23</title>
<g id="a_node23"><a xlink:title=" ">
<polygon fill="white" stroke="#bfbfbf" points="726.5,-67.5 726.5,-86.5 770.5,-86.5 770.5,-67.5 726.5,-67.5"/>
<text text-anchor="middle" x="748.5" y="-74.5" font-family="Helvetica,sans-Serif" font-size="10.00">limits</text>
</a>
</g>
</g>
<!-- Node22&#45;&gt;Node23 -->
<g id="edge33" class="edge">
<title>Node22&#45;&gt;Node23</title>
<path fill="none" stroke="midnightblue" d="M748.5,-123.08C748.5,-116.01 748.5,-105.86 748.5,-96.99"/>
<polygon fill="midnightblue" stroke="midnightblue" points="752,-96.75 748.5,-86.75 745,-96.75 752,-96.75"/>
</g>
<!-- Node24 -->
<g id="node24" class="node">
<title>Node24</title>
<g id="a_node24"><a xlink:title=" ">
<polygon fill="white" stroke="#bfbfbf" points="935,-67.5 935,-86.5 994,-86.5 994,-67.5 935,-67.5"/>
<text text-anchor="middle" x="964.5" y="-74.5" font-family="Helvetica,sans-Serif" font-size="10.00">complex</text>
</a>
</g>
</g>
<!-- Node22&#45;&gt;Node24 -->
<g id="edge34" class="edge">
<title>Node22&#45;&gt;Node24</title>
<path fill="none" stroke="midnightblue" d="M782.73,-123.44C821.44,-113.77 884.37,-98.03 925.1,-87.85"/>
<polygon fill="midnightblue" stroke="midnightblue" points="926.09,-91.21 934.95,-85.39 924.4,-84.42 926.09,-91.21"/>
</g>
<!-- Node25 -->
<g id="node25" class="node">
<title>Node25</title>
<g id="a_node25"><a xlink:href="itkFixedArray_8h.html" target="_top" xlink:title=" ">
<polygon fill="white" stroke="black" points="789,-67.5 789,-86.5 878,-86.5 878,-67.5 789,-67.5"/>
<text text-anchor="middle" x="833.5" y="-74.5" font-family="Helvetica,sans-Serif" font-size="10.00">itkFixedArray.h</text>
</a>
</g>
</g>
<!-- Node22&#45;&gt;Node25 -->
<g id="edge35" class="edge">
<title>Node22&#45;&gt;Node25</title>
<path fill="none" stroke="midnightblue" d="M762.16,-123.32C775.42,-114.9 795.77,-101.97 811.35,-92.07"/>
<polygon fill="midnightblue" stroke="midnightblue" points="813.31,-94.97 819.88,-86.65 809.56,-89.06 813.31,-94.97"/>
</g>
<!-- Node25&#45;&gt;Node5 -->
<g id="edge38" class="edge">
<title>Node25&#45;&gt;Node5</title>
<path fill="none" stroke="midnightblue" d="M789.5,-67.44C749.15,-59.24 687.87,-45.94 635.5,-31 632.55,-30.16 629.51,-29.23 626.47,-28.26"/>
<polygon fill="midnightblue" stroke="midnightblue" points="627.5,-24.91 616.9,-25.08 625.29,-31.56 627.5,-24.91"/>
</g>
<!-- Node25&#45;&gt;Node7 -->
<g id="edge36" class="edge">
<title>Node25&#45;&gt;Node7</title>
<path fill="none" stroke="midnightblue" d="M788.75,-68.25C785.63,-67.8 782.52,-67.37 779.5,-67 584.78,-42.85 533.92,-57.42 339.5,-31 329.22,-29.6 318.22,-27.73 307.88,-25.79"/>
<polygon fill="midnightblue" stroke="midnightblue" points="308.28,-22.31 297.8,-23.85 306.96,-29.18 308.28,-22.31"/>
</g>
<!-- Node25&#45;&gt;Node17 -->
<g id="edge37" class="edge">
<title>Node25&#45;&gt;Node17</title>
<path fill="none" stroke="midnightblue" d="M812.87,-67.48C788.38,-57.36 747.35,-40.4 719.39,-28.85"/>
<polygon fill="midnightblue" stroke="midnightblue" points="720.67,-25.59 710.09,-25.01 718,-32.06 720.67,-25.59"/>
</g>
<!-- Node26 -->
<g id="node26" class="node">
<title>Node26</title>
<g id="a_node26"><a xlink:title=" ">
<polygon fill="white" stroke="#bfbfbf" points="753.5,-6 753.5,-25 795.5,-25 795.5,-6 753.5,-6"/>
<text text-anchor="middle" x="774.5" y="-13" font-family="Helvetica,sans-Serif" font-size="10.00">array</text>
</a>
</g>
</g>
<!-- Node25&#45;&gt;Node26 -->
<g id="edge39" class="edge">
<title>Node25&#45;&gt;Node26</title>
<path fill="none" stroke="midnightblue" d="M825.05,-67.48C815.93,-58.28 801.23,-43.46 790.02,-32.16"/>
<polygon fill="midnightblue" stroke="midnightblue" points="792.46,-29.65 782.94,-25.01 787.49,-34.57 792.46,-29.65"/>
</g>
<!-- Node27 -->
<g id="node27" class="node">
<title>Node27</title>
<g id="a_node27"><a xlink:title=" ">
<polygon fill="white" stroke="#bfbfbf" points="814,-6 814,-25 915,-25 915,-6 814,-6"/>
<text text-anchor="middle" x="864.5" y="-13" font-family="Helvetica,sans-Serif" font-size="10.00">itkFixedArray.hxx</text>
</a>
</g>
</g>
<!-- Node25&#45;&gt;Node27 -->
<g id="edge40" class="edge">
<title>Node25&#45;&gt;Node27</title>
<path fill="none" stroke="midnightblue" d="M837.94,-67.48C842.45,-58.82 849.57,-45.15 855.31,-34.15"/>
<polygon fill="midnightblue" stroke="midnightblue" points="858.55,-35.49 860.07,-25.01 852.34,-32.26 858.55,-35.49"/>
</g>
<!-- Node28 -->
<g id="node28" class="node">
<title>Node28</title>
<g id="a_node28"><a xlink:href="itkNumericTraitsFixedArrayPixel_8h.html" target="_top" xlink:title=" ">
<polygon fill="white" stroke="black" points="933,-0.5 933,-30.5 1082,-30.5 1082,-0.5 933,-0.5"/>
<text text-anchor="start" x="941" y="-18.5" font-family="Helvetica,sans-Serif" font-size="10.00">itkNumericTraitsFixedArray</text>
<text text-anchor="middle" x="1007.5" y="-7.5" font-family="Helvetica,sans-Serif" font-size="10.00">Pixel.h</text>
</a>
</g>
</g>
<!-- Node25&#45;&gt;Node28 -->
<g id="edge41" class="edge">
<title>Node25&#45;&gt;Node28</title>
<path fill="none" stroke="midnightblue" d="M853.53,-67.48C877.27,-58.7 917.53,-44.79 950.98,-33.71"/>
<polygon fill="midnightblue" stroke="midnightblue" points="952.26,-36.98 960.66,-30.52 950.07,-30.33 952.26,-36.98"/>
</g>
<!-- Node28&#45;&gt;Node22 -->
<g id="edge42" class="edge">
<title>Node28&#45;&gt;Node22</title>
<path fill="none" stroke="midnightblue" d="M984.85,-30.61C955.78,-48.57 906.79,-78.34 887.5,-87 856.28,-101.02 819.36,-112.76 791.41,-120.73"/>
<polygon fill="midnightblue" stroke="midnightblue" points="790.24,-117.43 781.55,-123.5 792.13,-124.17 790.24,-117.43"/>
</g>
<!-- Node28&#45;&gt;Node25 -->
<g id="edge43" class="edge">
<title>Node28&#45;&gt;Node25</title>
<path fill="none" stroke="midnightblue" d="M972.32,-30.52C943.52,-40.83 902.95,-54.66 873.03,-64.36"/>
<polygon fill="midnightblue" stroke="midnightblue" points="871.78,-61.08 863.33,-67.48 873.92,-67.75 871.78,-61.08"/>
</g>
<!-- Node30&#45;&gt;Node3 -->
<g id="edge49" class="edge">
<title>Node30&#45;&gt;Node3</title>
<path fill="none" stroke="midnightblue" d="M495.78,-181.08C429.85,-173.33 322.42,-159.63 230.5,-143 230.4,-142.98 230.3,-142.96 230.2,-142.95"/>
<polygon fill="midnightblue" stroke="midnightblue" points="231.07,-139.55 220.59,-141.06 229.72,-146.42 231.07,-139.55"/>
</g>
<!-- Node30&#45;&gt;Node22 -->
<g id="edge48" class="edge">
<title>Node30&#45;&gt;Node22</title>
<path fill="none" stroke="midnightblue" d="M587.76,-179.44C620.46,-170.2 672.68,-155.44 708.68,-145.26"/>
<polygon fill="midnightblue" stroke="midnightblue" points="709.71,-148.61 718.38,-142.52 707.8,-141.87 709.71,-148.61"/>
</g>
<!-- Node31 -->
<g id="node31" class="node">
<title>Node31</title>
<g id="a_node31"><a xlink:href="itkPixelTraits_8h.html" target="_top" xlink:title=" ">
<polygon fill="white" stroke="black" points="354.5,-123.5 354.5,-142.5 442.5,-142.5 442.5,-123.5 354.5,-123.5"/>
<text text-anchor="middle" x="398.5" y="-130.5" font-family="Helvetica,sans-Serif" font-size="10.00">itkPixelTraits.h</text>
</a>
</g>
</g>
<!-- Node30&#45;&gt;Node31 -->
<g id="edge46" class="edge">
<title>Node30&#45;&gt;Node31</title>
<path fill="none" stroke="midnightblue" d="M532.31,-179.44C505.56,-170.36 463.1,-155.94 433.19,-145.78"/>
<polygon fill="midnightblue" stroke="midnightblue" points="434.17,-142.42 423.58,-142.52 431.92,-149.05 434.17,-142.42"/>
</g>
<!-- Node31&#45;&gt;Node7 -->
<g id="edge47" class="edge">
<title>Node31&#45;&gt;Node7</title>
<path fill="none" stroke="midnightblue" d="M357.3,-123.45C322.52,-115.31 276.66,-102.09 265.5,-87 254.61,-72.26 255.77,-50.66 258.61,-35.26"/>
<polygon fill="midnightblue" stroke="midnightblue" points="262.07,-35.85 260.83,-25.32 255.23,-34.32 262.07,-35.85"/>
</g>
</g>
</svg>
