<?xml version="1.0" encoding="UTF-8" standalone="no"?>
<!DOCTYPE svg PUBLIC "-//W3C//DTD SVG 1.1//EN"
 "http://www.w3.org/Graphics/SVG/1.1/DTD/svg11.dtd">
<!-- Generated by graphviz version 2.43.0 (0)
 -->
<!-- Title: itkBinaryBallStructuringElement.h Pages: 1 -->
<svg width="2819pt" height="475pt"
 viewBox="0.00 0.00 2819.00 475.00" xmlns="http://www.w3.org/2000/svg" xmlns:xlink="http://www.w3.org/1999/xlink">
<g id="graph0" class="graph" transform="scale(1 1) rotate(0) translate(4 471)">
<title>itkBinaryBallStructuringElement.h</title>
<polygon fill="white" stroke="transparent" points="-4,4 -4,-471 2815,-471 2815,4 -4,4"/>
<!-- Node1 -->
<g id="node1" class="node">
<title>Node1</title>
<g id="a_node1"><a xlink:title=" ">
<polygon fill="#bfbfbf" stroke="black" points="1360,-436.5 1360,-466.5 1493,-466.5 1493,-436.5 1360,-436.5"/>
<text text-anchor="start" x="1368" y="-454.5" font-family="Helvetica,sans-Serif" font-size="10.00">itkBinaryBallStructuring</text>
<text text-anchor="middle" x="1426.5" y="-443.5" font-family="Helvetica,sans-Serif" font-size="10.00">Element.h</text>
</a>
</g>
</g>
<!-- Node2 -->
<g id="node2" class="node">
<title>Node2</title>
<g id="a_node2"><a xlink:href="itkNeighborhood_8h.html" target="_top" xlink:title=" ">
<polygon fill="white" stroke="black" points="378,-364 378,-383 485,-383 485,-364 378,-364"/>
<text text-anchor="middle" x="431.5" y="-371" font-family="Helvetica,sans-Serif" font-size="10.00">itkNeighborhood.h</text>
</a>
</g>
</g>
<!-- Node1&#45;&gt;Node2 -->
<g id="edge1" class="edge">
<title>Node1&#45;&gt;Node2</title>
<path fill="none" stroke="midnightblue" d="M1359.68,-445.79C1236.86,-437.1 966.93,-417.77 739.5,-400 655.01,-393.4 557.52,-385.23 495.25,-379.95"/>
<polygon fill="midnightblue" stroke="midnightblue" points="495.44,-376.45 485.18,-379.1 494.85,-383.43 495.44,-376.45"/>
</g>
<!-- Node20 -->
<g id="node20" class="node">
<title>Node20</title>
<g id="a_node20"><a xlink:title=" ">
<polygon fill="white" stroke="#bfbfbf" points="698,-179.5 698,-198.5 745,-198.5 745,-179.5 698,-179.5"/>
<text text-anchor="middle" x="721.5" y="-186.5" font-family="Helvetica,sans-Serif" font-size="10.00">cmath</text>
</a>
</g>
</g>
<!-- Node1&#45;&gt;Node20 -->
<g id="edge57" class="edge">
<title>Node1&#45;&gt;Node20</title>
<path fill="none" stroke="midnightblue" d="M1359.82,-449C1210.66,-445.07 859.75,-432.45 817.5,-400 776.69,-368.66 799.89,-337.8 778.5,-291 764.55,-260.47 744.59,-226.87 732.37,-207.15"/>
<polygon fill="midnightblue" stroke="midnightblue" points="735.33,-205.27 727.05,-198.65 729.39,-208.98 735.33,-205.27"/>
</g>
<!-- Node34 -->
<g id="node34" class="node">
<title>Node34</title>
<g id="a_node34"><a xlink:title=" ">
<polygon fill="white" stroke="#bfbfbf" points="723,-291.5 723,-310.5 770,-310.5 770,-291.5 723,-291.5"/>
<text text-anchor="middle" x="746.5" y="-298.5" font-family="Helvetica,sans-Serif" font-size="10.00">vector</text>
</a>
</g>
</g>
<!-- Node1&#45;&gt;Node34 -->
<g id="edge58" class="edge">
<title>Node1&#45;&gt;Node34</title>
<path fill="none" stroke="midnightblue" d="M1359.76,-449.23C1204.72,-445.71 829.88,-433.77 784.5,-400 759.33,-381.27 750.83,-343.49 747.96,-320.7"/>
<polygon fill="midnightblue" stroke="midnightblue" points="751.42,-320.19 746.93,-310.59 744.46,-320.9 751.42,-320.19"/>
</g>
<!-- Node36 -->
<g id="node36" class="node">
<title>Node36</title>
<g id="a_node36"><a xlink:title=" ">
<polygon fill="white" stroke="#bfbfbf" points="827,-358.5 827,-388.5 960,-388.5 960,-358.5 827,-358.5"/>
<text text-anchor="start" x="835" y="-376.5" font-family="Helvetica,sans-Serif" font-size="10.00">itkBinaryBallStructuring</text>
<text text-anchor="middle" x="893.5" y="-365.5" font-family="Helvetica,sans-Serif" font-size="10.00">Element.hxx</text>
</a>
</g>
</g>
<!-- Node1&#45;&gt;Node36 -->
<g id="edge54" class="edge">
<title>Node1&#45;&gt;Node36</title>
<path fill="none" stroke="midnightblue" d="M1359.94,-447.6C1270.32,-442.69 1106.31,-430.15 969.5,-400 959.71,-397.84 949.42,-394.88 939.68,-391.74"/>
<polygon fill="midnightblue" stroke="midnightblue" points="940.76,-388.41 930.16,-388.56 938.54,-395.05 940.76,-388.41"/>
</g>
<!-- Node37 -->
<g id="node37" class="node">
<title>Node37</title>
<g id="a_node37"><a xlink:title=" ">
<polygon fill="white" stroke="#bfbfbf" points="978.5,-353 978.5,-394 1170.5,-394 1170.5,-353 978.5,-353"/>
<text text-anchor="start" x="986.5" y="-382" font-family="Helvetica,sans-Serif" font-size="10.00">/work/ITK/Modules/Filtering</text>
<text text-anchor="start" x="986.5" y="-371" font-family="Helvetica,sans-Serif" font-size="10.00">/MathematicalMorphology</text>
<text text-anchor="middle" x="1074.5" y="-360" font-family="Helvetica,sans-Serif" font-size="10.00">/include/itkFlatStructuringElement.h</text>
</a>
</g>
</g>
<!-- Node1&#45;&gt;Node37 -->
<g id="edge55" class="edge">
<title>Node1&#45;&gt;Node37</title>
<path fill="none" stroke="midnightblue" d="M1359.81,-437.44C1310.25,-427.58 1241.03,-413.49 1180.5,-400 1175.19,-398.82 1169.73,-397.58 1164.23,-396.31"/>
<polygon fill="midnightblue" stroke="midnightblue" points="1164.84,-392.86 1154.31,-394 1163.25,-399.68 1164.84,-392.86"/>
</g>
<!-- Node38 -->
<g id="node38" class="node">
<title>Node38</title>
<g id="a_node38"><a xlink:title=" ">
<polygon fill="white" stroke="#bfbfbf" points="1189,-364 1189,-383 1252,-383 1252,-364 1189,-364"/>
<text text-anchor="middle" x="1220.5" y="-371" font-family="Helvetica,sans-Serif" font-size="10.00">itkMath.h</text>
</a>
</g>
</g>
<!-- Node1&#45;&gt;Node38 -->
<g id="edge56" class="edge">
<title>Node1&#45;&gt;Node38</title>
<path fill="none" stroke="midnightblue" d="M1367.49,-436.43C1335.41,-427.8 1295.45,-415.44 1261.5,-400 1254.63,-396.88 1247.52,-392.8 1241.19,-388.82"/>
<polygon fill="midnightblue" stroke="midnightblue" points="1242.88,-385.74 1232.59,-383.19 1239.04,-391.59 1242.88,-385.74"/>
</g>
<!-- Node39 -->
<g id="node39" class="node">
<title>Node39</title>
<g id="a_node39"><a xlink:title=" ">
<polygon fill="white" stroke="#bfbfbf" points="1270,-364 1270,-383 1339,-383 1339,-364 1270,-364"/>
<text text-anchor="middle" x="1304.5" y="-371" font-family="Helvetica,sans-Serif" font-size="10.00">itkImage.h</text>
</a>
</g>
</g>
<!-- Node1&#45;&gt;Node39 -->
<g id="edge59" class="edge">
<title>Node1&#45;&gt;Node39</title>
<path fill="none" stroke="midnightblue" d="M1403.84,-436.38C1381.89,-422.71 1348.81,-402.1 1326.94,-388.48"/>
<polygon fill="midnightblue" stroke="midnightblue" points="1328.65,-385.42 1318.32,-383.11 1324.95,-391.36 1328.65,-385.42"/>
</g>
<!-- Node40 -->
<g id="node40" class="node">
<title>Node40</title>
<g id="a_node40"><a xlink:title=" ">
<polygon fill="white" stroke="#bfbfbf" points="1357.5,-364 1357.5,-383 1495.5,-383 1495.5,-364 1357.5,-364"/>
<text text-anchor="middle" x="1426.5" y="-371" font-family="Helvetica,sans-Serif" font-size="10.00">itkImageRegionIterator.h</text>
</a>
</g>
</g>
<!-- Node1&#45;&gt;Node40 -->
<g id="edge60" class="edge">
<title>Node1&#45;&gt;Node40</title>
<path fill="none" stroke="midnightblue" d="M1426.5,-436.2C1426.5,-424.1 1426.5,-406.65 1426.5,-393.39"/>
<polygon fill="midnightblue" stroke="midnightblue" points="1430,-393.06 1426.5,-383.06 1423,-393.06 1430,-393.06"/>
</g>
<!-- Node41 -->
<g id="node41" class="node">
<title>Node41</title>
<g id="a_node41"><a xlink:title=" ">
<polygon fill="white" stroke="#bfbfbf" points="1513.5,-358.5 1513.5,-388.5 1671.5,-388.5 1671.5,-358.5 1513.5,-358.5"/>
<text text-anchor="start" x="1521.5" y="-376.5" font-family="Helvetica,sans-Serif" font-size="10.00">itkFloodFilledSpatialFunction</text>
<text text-anchor="middle" x="1592.5" y="-365.5" font-family="Helvetica,sans-Serif" font-size="10.00">ConditionalIterator.h</text>
</a>
</g>
</g>
<!-- Node1&#45;&gt;Node41 -->
<g id="edge61" class="edge">
<title>Node1&#45;&gt;Node41</title>
<path fill="none" stroke="midnightblue" d="M1457.33,-436.38C1484.24,-424.07 1523.44,-406.12 1552.71,-392.72"/>
<polygon fill="midnightblue" stroke="midnightblue" points="1554.2,-395.89 1561.83,-388.54 1551.28,-389.52 1554.2,-395.89"/>
</g>
<!-- Node42 -->
<g id="node42" class="node">
<title>Node42</title>
<g id="a_node42"><a xlink:title=" ">
<polygon fill="white" stroke="#bfbfbf" points="1689.5,-358.5 1689.5,-388.5 1833.5,-388.5 1833.5,-358.5 1689.5,-358.5"/>
<text text-anchor="start" x="1697.5" y="-376.5" font-family="Helvetica,sans-Serif" font-size="10.00">itkEllipsoidInteriorExterior</text>
<text text-anchor="middle" x="1761.5" y="-365.5" font-family="Helvetica,sans-Serif" font-size="10.00">SpatialFunction.h</text>
</a>
</g>
</g>
<!-- Node1&#45;&gt;Node42 -->
<g id="edge62" class="edge">
<title>Node1&#45;&gt;Node42</title>
<path fill="none" stroke="midnightblue" d="M1493.26,-439.28C1544.75,-430.13 1617.56,-416.11 1680.5,-400 1690.14,-397.53 1700.33,-394.59 1710.11,-391.6"/>
<polygon fill="midnightblue" stroke="midnightblue" points="1711.2,-394.93 1719.71,-388.61 1709.12,-388.24 1711.2,-394.93"/>
</g>
<!-- Node43 -->
<g id="node43" class="node">
<title>Node43</title>
<g id="a_node43"><a xlink:title=" ">
<polygon fill="white" stroke="#bfbfbf" points="1852,-347.5 1852,-399.5 2047,-399.5 2047,-347.5 1852,-347.5"/>
<text text-anchor="start" x="1860" y="-387.5" font-family="Helvetica,sans-Serif" font-size="10.00">/work/ITK/Modules/Filtering</text>
<text text-anchor="start" x="1860" y="-376.5" font-family="Helvetica,sans-Serif" font-size="10.00">/MathematicalMorphology</text>
<text text-anchor="start" x="1860" y="-365.5" font-family="Helvetica,sans-Serif" font-size="10.00">/include/itkVanHerkGilWermanDilate</text>
<text text-anchor="middle" x="1949.5" y="-354.5" font-family="Helvetica,sans-Serif" font-size="10.00">ImageFilter.h</text>
</a>
</g>
</g>
<!-- Node1&#45;&gt;Node43 -->
<g id="edge63" class="edge">
<title>Node1&#45;&gt;Node43</title>
<path fill="none" stroke="midnightblue" d="M1493.13,-444.76C1573.48,-437.3 1712.75,-422.72 1841.85,-400.03"/>
<polygon fill="midnightblue" stroke="midnightblue" points="1842.69,-403.43 1851.92,-398.24 1841.46,-396.54 1842.69,-403.43"/>
</g>
<!-- Node44 -->
<g id="node44" class="node">
<title>Node44</title>
<g id="a_node44"><a xlink:title=" ">
<polygon fill="white" stroke="#bfbfbf" points="2065,-353 2065,-394 2278,-394 2278,-353 2065,-353"/>
<text text-anchor="start" x="2073" y="-382" font-family="Helvetica,sans-Serif" font-size="10.00">/work/ITK/Modules/Filtering</text>
<text text-anchor="start" x="2073" y="-371" font-family="Helvetica,sans-Serif" font-size="10.00">/MathematicalMorphology</text>
<text text-anchor="middle" x="2171.5" y="-360" font-family="Helvetica,sans-Serif" font-size="10.00">/include/itkVanHerkGilWermanUtilities.h</text>
</a>
</g>
</g>
<!-- Node1&#45;&gt;Node44 -->
<g id="edge64" class="edge">
<title>Node1&#45;&gt;Node44</title>
<path fill="none" stroke="midnightblue" d="M1493.06,-448.19C1608.36,-443.51 1852.5,-430.64 2056.5,-400 2064.18,-398.85 2072.11,-397.47 2080.05,-395.97"/>
<polygon fill="midnightblue" stroke="midnightblue" points="2080.95,-399.36 2090.09,-394.01 2079.6,-392.49 2080.95,-399.36"/>
</g>
<!-- Node45 -->
<g id="node45" class="node">
<title>Node45</title>
<g id="a_node45"><a xlink:title=" ">
<polygon fill="white" stroke="#bfbfbf" points="2295.5,-358.5 2295.5,-388.5 2453.5,-388.5 2453.5,-358.5 2295.5,-358.5"/>
<text text-anchor="start" x="2303.5" y="-376.5" font-family="Helvetica,sans-Serif" font-size="10.00">itkImageRegionConstIterator</text>
<text text-anchor="middle" x="2374.5" y="-365.5" font-family="Helvetica,sans-Serif" font-size="10.00">WithIndex.h</text>
</a>
</g>
</g>
<!-- Node1&#45;&gt;Node45 -->
<g id="edge65" class="edge">
<title>Node1&#45;&gt;Node45</title>
<path fill="none" stroke="midnightblue" d="M1493.22,-448.54C1667.8,-443.1 2135.08,-426.45 2287.5,-400 2299.49,-397.92 2312.18,-394.77 2324.05,-391.38"/>
<polygon fill="midnightblue" stroke="midnightblue" points="2325.2,-394.69 2333.79,-388.5 2323.21,-387.98 2325.2,-394.69"/>
</g>
<!-- Node46 -->
<g id="node46" class="node">
<title>Node46</title>
<g id="a_node46"><a xlink:title=" ">
<polygon fill="white" stroke="#bfbfbf" points="2471.5,-364 2471.5,-383 2637.5,-383 2637.5,-364 2471.5,-364"/>
<text text-anchor="middle" x="2554.5" y="-371" font-family="Helvetica,sans-Serif" font-size="10.00">itkImageRegionConstIterator.h</text>
</a>
</g>
</g>
<!-- Node1&#45;&gt;Node46 -->
<g id="edge66" class="edge">
<title>Node1&#45;&gt;Node46</title>
<path fill="none" stroke="midnightblue" d="M1493.19,-449.18C1691.39,-444.95 2274.71,-430.22 2462.5,-400 2481.79,-396.9 2502.82,-391.25 2519.9,-386.05"/>
<polygon fill="midnightblue" stroke="midnightblue" points="2520.95,-389.39 2529.45,-383.07 2518.86,-382.71 2520.95,-389.39"/>
</g>
<!-- Node47 -->
<g id="node47" class="node">
<title>Node47</title>
<g id="a_node47"><a xlink:title=" ">
<polygon fill="white" stroke="#bfbfbf" points="2656,-364 2656,-383 2811,-383 2811,-364 2656,-364"/>
<text text-anchor="middle" x="2733.5" y="-371" font-family="Helvetica,sans-Serif" font-size="10.00">itkNeighborhoodAlgorithm.h</text>
</a>
</g>
</g>
<!-- Node1&#45;&gt;Node47 -->
<g id="edge67" class="edge">
<title>Node1&#45;&gt;Node47</title>
<path fill="none" stroke="midnightblue" d="M1493.05,-449.88C1713.96,-447.48 2421.64,-437.04 2646.5,-400 2664.76,-396.99 2684.6,-391.37 2700.72,-386.16"/>
<polygon fill="midnightblue" stroke="midnightblue" points="2701.84,-389.48 2710.23,-383.01 2699.63,-382.84 2701.84,-389.48"/>
</g>
<!-- Node3 -->
<g id="node3" class="node">
<title>Node3</title>
<g id="a_node3"><a xlink:title=" ">
<polygon fill="white" stroke="#bfbfbf" points="377.5,-123.5 377.5,-142.5 437.5,-142.5 437.5,-123.5 377.5,-123.5"/>
<text text-anchor="middle" x="407.5" y="-130.5" font-family="Helvetica,sans-Serif" font-size="10.00">iostream</text>
</a>
</g>
</g>
<!-- Node2&#45;&gt;Node3 -->
<g id="edge2" class="edge">
<title>Node2&#45;&gt;Node3</title>
<path fill="none" stroke="midnightblue" d="M430.55,-363.52C428.65,-348.04 423.47,-315.64 411.5,-291 388.81,-244.3 356.42,-248.09 339.5,-199 336.6,-190.6 335.29,-186.83 339.5,-179 347.12,-164.82 361.4,-154.35 374.91,-147.1"/>
<polygon fill="midnightblue" stroke="midnightblue" points="376.63,-150.16 384.05,-142.59 373.53,-143.88 376.63,-150.16"/>
</g>
<!-- Node4 -->
<g id="node4" class="node">
<title>Node4</title>
<g id="a_node4"><a xlink:href="itkNeighborhoodAllocator_8h.html" target="_top" xlink:title=" ">
<polygon fill="white" stroke="black" points="801,-179.5 801,-198.5 950,-198.5 950,-179.5 801,-179.5"/>
<text text-anchor="middle" x="875.5" y="-186.5" font-family="Helvetica,sans-Serif" font-size="10.00">itkNeighborhoodAllocator.h</text>
</a>
</g>
</g>
<!-- Node2&#45;&gt;Node4 -->
<g id="edge3" class="edge">
<title>Node2&#45;&gt;Node4</title>
<path fill="none" stroke="midnightblue" d="M452.32,-363.94C524.06,-334.46 761.18,-236.99 845.45,-202.35"/>
<polygon fill="midnightblue" stroke="midnightblue" points="846.81,-205.58 854.73,-198.54 844.15,-199.1 846.81,-205.58"/>
</g>
<!-- Node8 -->
<g id="node8" class="node">
<title>Node8</title>
<g id="a_node8"><a xlink:href="itkIndent_8h.html" target="_top" xlink:title=" ">
<polygon fill="white" stroke="black" points="223,-179.5 223,-198.5 292,-198.5 292,-179.5 223,-179.5"/>
<text text-anchor="middle" x="257.5" y="-186.5" font-family="Helvetica,sans-Serif" font-size="10.00">itkIndent.h</text>
</a>
</g>
</g>
<!-- Node2&#45;&gt;Node8 -->
<g id="edge8" class="edge">
<title>Node2&#45;&gt;Node8</title>
<path fill="none" stroke="midnightblue" d="M377.71,-367.99C307.07,-360.81 188.89,-344.11 162.5,-311 131.65,-272.3 195.23,-226.23 232.7,-203.74"/>
<polygon fill="midnightblue" stroke="midnightblue" points="234.73,-206.61 241.6,-198.54 231.2,-200.56 234.73,-206.61"/>
</g>
<!-- Node9 -->
<g id="node9" class="node">
<title>Node9</title>
<g id="a_node9"><a xlink:href="itkSliceIterator_8h.html" target="_top" xlink:title=" ">
<polygon fill="white" stroke="black" points="0,-123.5 0,-142.5 97,-142.5 97,-123.5 0,-123.5"/>
<text text-anchor="middle" x="48.5" y="-130.5" font-family="Helvetica,sans-Serif" font-size="10.00">itkSliceIterator.h</text>
</a>
</g>
</g>
<!-- Node2&#45;&gt;Node9 -->
<g id="edge11" class="edge">
<title>Node2&#45;&gt;Node9</title>
<path fill="none" stroke="midnightblue" d="M377.93,-366C306.84,-356.51 186.17,-337.1 150.5,-311 94.73,-270.19 64.77,-188.97 53.63,-152.49"/>
<polygon fill="midnightblue" stroke="midnightblue" points="56.94,-151.32 50.78,-142.7 50.22,-153.28 56.94,-151.32"/>
</g>
<!-- Node14 -->
<g id="node14" class="node">
<title>Node14</title>
<g id="a_node14"><a xlink:title=" ">
<polygon fill="white" stroke="#bfbfbf" points="171.5,-291.5 171.5,-310.5 265.5,-310.5 265.5,-291.5 171.5,-291.5"/>
<text text-anchor="middle" x="218.5" y="-298.5" font-family="Helvetica,sans-Serif" font-size="10.00">vnl/vnl_vector.h</text>
</a>
</g>
</g>
<!-- Node2&#45;&gt;Node14 -->
<g id="edge18" class="edge">
<title>Node2&#45;&gt;Node14</title>
<path fill="none" stroke="midnightblue" d="M405.81,-364C367.91,-351.45 296.88,-327.94 254.02,-313.76"/>
<polygon fill="midnightblue" stroke="midnightblue" points="254.88,-310.35 244.28,-310.53 252.68,-317 254.88,-310.35"/>
</g>
<!-- Node15 -->
<g id="node15" class="node">
<title>Node15</title>
<g id="a_node15"><a xlink:href="itkOffset_8h.html" target="_top" xlink:title=" ">
<polygon fill="white" stroke="black" points="497.5,-291.5 497.5,-310.5 565.5,-310.5 565.5,-291.5 497.5,-291.5"/>
<text text-anchor="middle" x="531.5" y="-298.5" font-family="Helvetica,sans-Serif" font-size="10.00">itkOffset.h</text>
</a>
</g>
</g>
<!-- Node2&#45;&gt;Node15 -->
<g id="edge19" class="edge">
<title>Node2&#45;&gt;Node15</title>
<path fill="none" stroke="midnightblue" d="M443.76,-363.86C460.48,-352.07 490.66,-330.79 510.89,-316.53"/>
<polygon fill="midnightblue" stroke="midnightblue" points="512.98,-319.34 519.14,-310.72 508.95,-313.62 512.98,-319.34"/>
</g>
<!-- Node2&#45;&gt;Node34 -->
<g id="edge52" class="edge">
<title>Node2&#45;&gt;Node34</title>
<path fill="none" stroke="midnightblue" d="M470.99,-363.92C524.76,-352.19 624,-330.39 708.5,-311 709.95,-310.67 711.42,-310.33 712.91,-309.98"/>
<polygon fill="midnightblue" stroke="midnightblue" points="713.86,-313.36 722.8,-307.67 712.26,-306.54 713.86,-313.36"/>
</g>
<!-- Node35 -->
<g id="node35" class="node">
<title>Node35</title>
<g id="a_node35"><a xlink:title=" ">
<polygon fill="white" stroke="#bfbfbf" points="284,-291.5 284,-310.5 403,-310.5 403,-291.5 284,-291.5"/>
<text text-anchor="middle" x="343.5" y="-298.5" font-family="Helvetica,sans-Serif" font-size="10.00">itkNeighborhood.hxx</text>
</a>
</g>
</g>
<!-- Node2&#45;&gt;Node35 -->
<g id="edge53" class="edge">
<title>Node2&#45;&gt;Node35</title>
<path fill="none" stroke="midnightblue" d="M420.71,-363.86C406.19,-352.23 380.15,-331.36 362.36,-317.11"/>
<polygon fill="midnightblue" stroke="midnightblue" points="364.37,-314.24 354.38,-310.72 359.99,-319.7 364.37,-314.24"/>
</g>
<!-- Node4&#45;&gt;Node3 -->
<g id="edge5" class="edge">
<title>Node4&#45;&gt;Node3</title>
<path fill="none" stroke="midnightblue" d="M800.79,-181.28C701,-172.11 528.35,-155.57 447.92,-143.01"/>
<polygon fill="midnightblue" stroke="midnightblue" points="448.09,-139.49 437.66,-141.34 446.97,-146.4 448.09,-139.49"/>
</g>
<!-- Node5 -->
<g id="node5" class="node">
<title>Node5</title>
<g id="a_node5"><a xlink:title=" ">
<polygon fill="white" stroke="#bfbfbf" points="837.5,-6 837.5,-25 901.5,-25 901.5,-6 837.5,-6"/>
<text text-anchor="middle" x="869.5" y="-13" font-family="Helvetica,sans-Serif" font-size="10.00">algorithm</text>
</a>
</g>
</g>
<!-- Node4&#45;&gt;Node5 -->
<g id="edge4" class="edge">
<title>Node4&#45;&gt;Node5</title>
<path fill="none" stroke="midnightblue" d="M883.39,-179.41C900.7,-159.47 939.09,-108.61 921.5,-67 915.41,-52.59 902.97,-40.27 891.79,-31.4"/>
<polygon fill="midnightblue" stroke="midnightblue" points="893.72,-28.48 883.61,-25.32 889.54,-34.09 893.72,-28.48"/>
</g>
<!-- Node6 -->
<g id="node6" class="node">
<title>Node6</title>
<g id="a_node6"><a xlink:title=" ">
<polygon fill="white" stroke="#bfbfbf" points="854.5,-67.5 854.5,-86.5 912.5,-86.5 912.5,-67.5 854.5,-67.5"/>
<text text-anchor="middle" x="883.5" y="-74.5" font-family="Helvetica,sans-Serif" font-size="10.00">memory</text>
</a>
</g>
</g>
<!-- Node4&#45;&gt;Node6 -->
<g id="edge6" class="edge">
<title>Node4&#45;&gt;Node6</title>
<path fill="none" stroke="midnightblue" d="M876.13,-179.37C877.42,-161.62 880.4,-120.67 882.15,-96.6"/>
<polygon fill="midnightblue" stroke="midnightblue" points="885.64,-96.82 882.88,-86.59 878.66,-96.31 885.64,-96.82"/>
</g>
<!-- Node7 -->
<g id="node7" class="node">
<title>Node7</title>
<g id="a_node7"><a xlink:href="itkMacro_8h.html" target="_top" xlink:title=" ">
<polygon fill="white" stroke="black" points="289.5,-6 289.5,-25 357.5,-25 357.5,-6 289.5,-6"/>
<text text-anchor="middle" x="323.5" y="-13" font-family="Helvetica,sans-Serif" font-size="10.00">itkMacro.h</text>
</a>
</g>
</g>
<!-- Node4&#45;&gt;Node7 -->
<g id="edge7" class="edge">
<title>Node4&#45;&gt;Node7</title>
<path fill="none" stroke="midnightblue" d="M844.53,-179.37C784.11,-162.43 646.34,-123.3 531.5,-87 469.7,-67.46 398.26,-42.79 357.24,-28.41"/>
<polygon fill="midnightblue" stroke="midnightblue" points="358.32,-25.09 347.73,-25.07 356.01,-31.69 358.32,-25.09"/>
</g>
<!-- Node8&#45;&gt;Node3 -->
<g id="edge10" class="edge">
<title>Node8&#45;&gt;Node3</title>
<path fill="none" stroke="midnightblue" d="M281.27,-179.44C306.39,-170.4 346.21,-156.06 374.4,-145.92"/>
<polygon fill="midnightblue" stroke="midnightblue" points="375.62,-149.2 383.84,-142.52 373.25,-142.61 375.62,-149.2"/>
</g>
<!-- Node8&#45;&gt;Node7 -->
<g id="edge9" class="edge">
<title>Node8&#45;&gt;Node7</title>
<path fill="none" stroke="midnightblue" d="M253.3,-179.5C247.69,-167 239.05,-142.98 244.5,-123 254.72,-85.52 285.79,-51.18 305.79,-32.12"/>
<polygon fill="midnightblue" stroke="midnightblue" points="308.37,-34.5 313.34,-25.15 303.62,-29.36 308.37,-34.5"/>
</g>
<!-- Node9&#45;&gt;Node7 -->
<g id="edge12" class="edge">
<title>Node9&#45;&gt;Node7</title>
<path fill="none" stroke="midnightblue" d="M53.97,-123.31C63.33,-109.18 83.83,-81.39 108.5,-67 137.13,-50.3 225.12,-33.13 279.26,-23.74"/>
<polygon fill="midnightblue" stroke="midnightblue" points="280.01,-27.16 289.28,-22.02 278.83,-20.26 280.01,-27.16"/>
</g>
<!-- Node10 -->
<g id="node10" class="node">
<title>Node10</title>
<g id="a_node10"><a xlink:href="itkIntTypes_8h.html" target="_top" xlink:title=" ">
<polygon fill="white" stroke="black" points="118,-67.5 118,-86.5 197,-86.5 197,-67.5 118,-67.5"/>
<text text-anchor="middle" x="157.5" y="-74.5" font-family="Helvetica,sans-Serif" font-size="10.00">itkIntTypes.h</text>
</a>
</g>
</g>
<!-- Node9&#45;&gt;Node10 -->
<g id="edge13" class="edge">
<title>Node9&#45;&gt;Node10</title>
<path fill="none" stroke="midnightblue" d="M66.01,-123.32C83.57,-114.62 110.83,-101.12 131.03,-91.11"/>
<polygon fill="midnightblue" stroke="midnightblue" points="132.62,-94.23 140.03,-86.65 129.52,-87.96 132.62,-94.23"/>
</g>
<!-- Node13 -->
<g id="node13" class="node">
<title>Node13</title>
<g id="a_node13"><a xlink:title=" ">
<polygon fill="white" stroke="#bfbfbf" points="4,-67.5 4,-86.5 61,-86.5 61,-67.5 4,-67.5"/>
<text text-anchor="middle" x="32.5" y="-74.5" font-family="Helvetica,sans-Serif" font-size="10.00">valarray</text>
</a>
</g>
</g>
<!-- Node9&#45;&gt;Node13 -->
<g id="edge17" class="edge">
<title>Node9&#45;&gt;Node13</title>
<path fill="none" stroke="midnightblue" d="M45.86,-123.08C43.71,-115.85 40.62,-105.41 37.95,-96.4"/>
<polygon fill="midnightblue" stroke="midnightblue" points="41.29,-95.34 35.09,-86.75 34.58,-97.33 41.29,-95.34"/>
</g>
<!-- Node10&#45;&gt;Node7 -->
<g id="edge14" class="edge">
<title>Node10&#45;&gt;Node7</title>
<path fill="none" stroke="midnightblue" d="M181.28,-67.48C209.88,-57.22 258.05,-39.96 290.3,-28.4"/>
<polygon fill="midnightblue" stroke="midnightblue" points="291.53,-31.68 299.76,-25.01 289.17,-25.09 291.53,-31.68"/>
</g>
<!-- Node11 -->
<g id="node11" class="node">
<title>Node11</title>
<g id="a_node11"><a xlink:title=" ">
<polygon fill="white" stroke="#bfbfbf" points="166.5,-6 166.5,-25 216.5,-25 216.5,-6 166.5,-6"/>
<text text-anchor="middle" x="191.5" y="-13" font-family="Helvetica,sans-Serif" font-size="10.00">cstdint</text>
</a>
</g>
</g>
<!-- Node10&#45;&gt;Node11 -->
<g id="edge15" class="edge">
<title>Node10&#45;&gt;Node11</title>
<path fill="none" stroke="midnightblue" d="M162.37,-67.48C167.37,-58.73 175.29,-44.87 181.61,-33.81"/>
<polygon fill="midnightblue" stroke="midnightblue" points="184.72,-35.43 186.64,-25.01 178.64,-31.96 184.72,-35.43"/>
</g>
<!-- Node12 -->
<g id="node12" class="node">
<title>Node12</title>
<g id="a_node12"><a xlink:title=" ">
<polygon fill="white" stroke="#bfbfbf" points="98.5,-6 98.5,-25 148.5,-25 148.5,-6 98.5,-6"/>
<text text-anchor="middle" x="123.5" y="-13" font-family="Helvetica,sans-Serif" font-size="10.00">climits</text>
</a>
</g>
</g>
<!-- Node10&#45;&gt;Node12 -->
<g id="edge16" class="edge">
<title>Node10&#45;&gt;Node12</title>
<path fill="none" stroke="midnightblue" d="M152.63,-67.48C147.63,-58.73 139.71,-44.87 133.39,-33.81"/>
<polygon fill="midnightblue" stroke="midnightblue" points="136.36,-31.96 128.36,-25.01 130.28,-35.43 136.36,-31.96"/>
</g>
<!-- Node16 -->
<g id="node16" class="node">
<title>Node16</title>
<g id="a_node16"><a xlink:href="itkSize_8h.html" target="_top" xlink:title=" ">
<polygon fill="white" stroke="black" points="744,-123.5 744,-142.5 803,-142.5 803,-123.5 744,-123.5"/>
<text text-anchor="middle" x="773.5" y="-130.5" font-family="Helvetica,sans-Serif" font-size="10.00">itkSize.h</text>
</a>
</g>
</g>
<!-- Node15&#45;&gt;Node16 -->
<g id="edge20" class="edge">
<title>Node15&#45;&gt;Node16</title>
<path fill="none" stroke="midnightblue" d="M565.68,-293.63C614.36,-282.77 703.32,-256.08 753.5,-199 764.82,-186.13 769.73,-166.95 771.86,-152.76"/>
<polygon fill="midnightblue" stroke="midnightblue" points="775.36,-153 773.05,-142.66 768.41,-152.19 775.36,-153"/>
</g>
<!-- Node19 -->
<g id="node19" class="node">
<title>Node19</title>
<g id="a_node19"><a xlink:href="itkMath_8h.html" target="_top" xlink:title=" ">
<polygon fill="white" stroke="black" points="500,-235.5 500,-254.5 563,-254.5 563,-235.5 500,-235.5"/>
<text text-anchor="middle" x="531.5" y="-242.5" font-family="Helvetica,sans-Serif" font-size="10.00">itkMath.h</text>
</a>
</g>
</g>
<!-- Node15&#45;&gt;Node19 -->
<g id="edge27" class="edge">
<title>Node15&#45;&gt;Node19</title>
<path fill="none" stroke="midnightblue" d="M531.5,-291.08C531.5,-284.01 531.5,-273.86 531.5,-264.99"/>
<polygon fill="midnightblue" stroke="midnightblue" points="535,-264.75 531.5,-254.75 528,-264.75 535,-264.75"/>
</g>
<!-- Node16&#45;&gt;Node5 -->
<g id="edge24" class="edge">
<title>Node16&#45;&gt;Node5</title>
<path fill="none" stroke="midnightblue" d="M780.72,-123.32C796.63,-104.17 834.97,-58.04 855.68,-33.13"/>
<polygon fill="midnightblue" stroke="midnightblue" points="858.5,-35.21 862.2,-25.28 853.12,-30.74 858.5,-35.21"/>
</g>
<!-- Node16&#45;&gt;Node6 -->
<g id="edge26" class="edge">
<title>Node16&#45;&gt;Node6</title>
<path fill="none" stroke="midnightblue" d="M791.17,-123.32C808.89,-114.62 836.4,-101.12 856.79,-91.11"/>
<polygon fill="midnightblue" stroke="midnightblue" points="858.44,-94.2 865.87,-86.65 855.35,-87.92 858.44,-94.2"/>
</g>
<!-- Node16&#45;&gt;Node7 -->
<g id="edge22" class="edge">
<title>Node16&#45;&gt;Node7</title>
<path fill="none" stroke="midnightblue" d="M743.96,-127.35C704.62,-120.7 633.16,-107.02 574.5,-87 554.55,-80.19 551.45,-73.8 531.5,-67 462.5,-43.5 441.99,-49.55 371.5,-31 367.88,-30.05 364.12,-29 360.37,-27.93"/>
<polygon fill="midnightblue" stroke="midnightblue" points="361.15,-24.51 350.57,-25.05 359.17,-31.23 361.15,-24.51"/>
</g>
<!-- Node16&#45;&gt;Node10 -->
<g id="edge21" class="edge">
<title>Node16&#45;&gt;Node10</title>
<path fill="none" stroke="midnightblue" d="M743.79,-129.4C645.59,-120.79 330.74,-93.19 207.57,-82.39"/>
<polygon fill="midnightblue" stroke="midnightblue" points="207.57,-78.88 197.3,-81.49 206.95,-85.85 207.57,-78.88"/>
</g>
<!-- Node17 -->
<g id="node17" class="node">
<title>Node17</title>
<g id="a_node17"><a xlink:href="itkMakeFilled_8h.html" target="_top" xlink:title=" ">
<polygon fill="white" stroke="black" points="728,-6 728,-25 819,-25 819,-6 728,-6"/>
<text text-anchor="middle" x="773.5" y="-13" font-family="Helvetica,sans-Serif" font-size="10.00">itkMakeFilled.h</text>
</a>
</g>
</g>
<!-- Node16&#45;&gt;Node17 -->
<g id="edge23" class="edge">
<title>Node16&#45;&gt;Node17</title>
<path fill="none" stroke="midnightblue" d="M773.5,-123.32C773.5,-104.76 773.5,-60.84 773.5,-35.47"/>
<polygon fill="midnightblue" stroke="midnightblue" points="777,-35.28 773.5,-25.28 770,-35.28 777,-35.28"/>
</g>
<!-- Node18 -->
<g id="node18" class="node">
<title>Node18</title>
<g id="a_node18"><a xlink:title=" ">
<polygon fill="white" stroke="#bfbfbf" points="691,-67.5 691,-86.5 760,-86.5 760,-67.5 691,-67.5"/>
<text text-anchor="middle" x="725.5" y="-74.5" font-family="Helvetica,sans-Serif" font-size="10.00">type_traits</text>
</a>
</g>
</g>
<!-- Node16&#45;&gt;Node18 -->
<g id="edge25" class="edge">
<title>Node16&#45;&gt;Node18</title>
<path fill="none" stroke="midnightblue" d="M765.57,-123.08C758.65,-115.3 748.43,-103.8 740.05,-94.37"/>
<polygon fill="midnightblue" stroke="midnightblue" points="742.54,-91.9 733.28,-86.75 737.31,-96.55 742.54,-91.9"/>
</g>
<!-- Node19&#45;&gt;Node20 -->
<g id="edge28" class="edge">
<title>Node19&#45;&gt;Node20</title>
<path fill="none" stroke="midnightblue" d="M561.61,-235.44C595.99,-225.67 652.09,-209.73 687.87,-199.56"/>
<polygon fill="midnightblue" stroke="midnightblue" points="689.18,-202.83 697.84,-196.73 687.26,-196.09 689.18,-202.83"/>
</g>
<!-- Node21 -->
<g id="node21" class="node">
<title>Node21</title>
<g id="a_node21"><a xlink:href="itkMathDetail_8h.html" target="_top" xlink:title=" ">
<polygon fill="white" stroke="black" points="112.5,-179.5 112.5,-198.5 204.5,-198.5 204.5,-179.5 112.5,-179.5"/>
<text text-anchor="middle" x="158.5" y="-186.5" font-family="Helvetica,sans-Serif" font-size="10.00">itkMathDetail.h</text>
</a>
</g>
</g>
<!-- Node19&#45;&gt;Node21 -->
<g id="edge29" class="edge">
<title>Node19&#45;&gt;Node21</title>
<path fill="none" stroke="midnightblue" d="M499.87,-239.75C444.34,-232.25 325.46,-215.97 214.71,-199.16"/>
<polygon fill="midnightblue" stroke="midnightblue" points="215.11,-195.68 204.7,-197.63 214.06,-202.6 215.11,-195.68"/>
</g>
<!-- Node30 -->
<g id="node30" class="node">
<title>Node30</title>
<g id="a_node30"><a xlink:href="itkConceptChecking_8h.html" target="_top" xlink:title=" ">
<polygon fill="white" stroke="black" points="349,-179.5 349,-198.5 472,-198.5 472,-179.5 349,-179.5"/>
<text text-anchor="middle" x="410.5" y="-186.5" font-family="Helvetica,sans-Serif" font-size="10.00">itkConceptChecking.h</text>
</a>
</g>
</g>
<!-- Node19&#45;&gt;Node30 -->
<g id="edge45" class="edge">
<title>Node19&#45;&gt;Node30</title>
<path fill="none" stroke="midnightblue" d="M512.33,-235.44C492.59,-226.64 461.61,-212.81 439.01,-202.72"/>
<polygon fill="midnightblue" stroke="midnightblue" points="440.14,-199.4 429.58,-198.52 437.29,-205.79 440.14,-199.4"/>
</g>
<!-- Node32 -->
<g id="node32" class="node">
<title>Node32</title>
<g id="a_node32"><a xlink:title=" ">
<polygon fill="white" stroke="#bfbfbf" points="591,-179.5 591,-198.5 680,-198.5 680,-179.5 591,-179.5"/>
<text text-anchor="middle" x="635.5" y="-186.5" font-family="Helvetica,sans-Serif" font-size="10.00">vnl/vnl_math.h</text>
</a>
</g>
</g>
<!-- Node19&#45;&gt;Node32 -->
<g id="edge50" class="edge">
<title>Node19&#45;&gt;Node32</title>
<path fill="none" stroke="midnightblue" d="M548.21,-235.32C564.81,-226.7 590.5,-213.36 609.72,-203.39"/>
<polygon fill="midnightblue" stroke="midnightblue" points="611.57,-206.37 618.83,-198.65 608.34,-200.16 611.57,-206.37"/>
</g>
<!-- Node33 -->
<g id="node33" class="node">
<title>Node33</title>
<g id="a_node33"><a xlink:title=" ">
<polygon fill="white" stroke="#bfbfbf" points="490.5,-179.5 490.5,-198.5 572.5,-198.5 572.5,-179.5 490.5,-179.5"/>
<text text-anchor="middle" x="531.5" y="-186.5" font-family="Helvetica,sans-Serif" font-size="10.00">vxl_version.h</text>
</a>
</g>
</g>
<!-- Node19&#45;&gt;Node33 -->
<g id="edge51" class="edge">
<title>Node19&#45;&gt;Node33</title>
<path fill="none" stroke="midnightblue" d="M531.5,-235.08C531.5,-228.01 531.5,-217.86 531.5,-208.99"/>
<polygon fill="midnightblue" stroke="midnightblue" points="535,-208.75 531.5,-198.75 528,-208.75 535,-208.75"/>
</g>
<!-- Node21&#45;&gt;Node10 -->
<g id="edge30" class="edge">
<title>Node21&#45;&gt;Node10</title>
<path fill="none" stroke="midnightblue" d="M154.9,-179.22C151.44,-170.28 146.47,-155.94 144.5,-143 142.1,-127.18 146.14,-109.37 150.34,-96.39"/>
<polygon fill="midnightblue" stroke="midnightblue" points="153.7,-97.38 153.76,-86.79 147.11,-95.03 153.7,-97.38"/>
</g>
<!-- Node22 -->
<g id="node22" class="node">
<title>Node22</title>
<g id="a_node22"><a xlink:href="itkNumericTraits_8h.html" target="_top" xlink:title=" ">
<polygon fill="white" stroke="black" points="253.5,-123.5 253.5,-142.5 359.5,-142.5 359.5,-123.5 253.5,-123.5"/>
<text text-anchor="middle" x="306.5" y="-130.5" font-family="Helvetica,sans-Serif" font-size="10.00">itkNumericTraits.h</text>
</a>
</g>
</g>
<!-- Node21&#45;&gt;Node22 -->
<g id="edge31" class="edge">
<title>Node21&#45;&gt;Node22</title>
<path fill="none" stroke="midnightblue" d="M181.95,-179.44C206.63,-170.44 245.69,-156.19 273.48,-146.05"/>
<polygon fill="midnightblue" stroke="midnightblue" points="274.96,-149.23 283.16,-142.52 272.56,-142.66 274.96,-149.23"/>
</g>
<!-- Node29 -->
<g id="node29" class="node">
<title>Node29</title>
<g id="a_node29"><a xlink:title=" ">
<polygon fill="white" stroke="#bfbfbf" points="153.5,-123.5 153.5,-142.5 197.5,-142.5 197.5,-123.5 153.5,-123.5"/>
<text text-anchor="middle" x="175.5" y="-130.5" font-family="Helvetica,sans-Serif" font-size="10.00">cfenv</text>
</a>
</g>
</g>
<!-- Node21&#45;&gt;Node29 -->
<g id="edge44" class="edge">
<title>Node21&#45;&gt;Node29</title>
<path fill="none" stroke="midnightblue" d="M161.31,-179.08C163.58,-171.85 166.87,-161.41 169.71,-152.4"/>
<polygon fill="midnightblue" stroke="midnightblue" points="173.08,-153.34 172.75,-142.75 166.4,-151.24 173.08,-153.34"/>
</g>
<!-- Node22&#45;&gt;Node7 -->
<g id="edge32" class="edge">
<title>Node22&#45;&gt;Node7</title>
<path fill="none" stroke="midnightblue" d="M299.18,-123.19C289.74,-110.72 275.34,-87.18 282.5,-67 287.17,-53.83 296.91,-41.59 305.72,-32.46"/>
<polygon fill="midnightblue" stroke="midnightblue" points="308.36,-34.78 313.08,-25.29 303.47,-29.77 308.36,-34.78"/>
</g>
<!-- Node23 -->
<g id="node23" class="node">
<title>Node23</title>
<g id="a_node23"><a xlink:title=" ">
<polygon fill="white" stroke="#bfbfbf" points="291.5,-67.5 291.5,-86.5 335.5,-86.5 335.5,-67.5 291.5,-67.5"/>
<text text-anchor="middle" x="313.5" y="-74.5" font-family="Helvetica,sans-Serif" font-size="10.00">limits</text>
</a>
</g>
</g>
<!-- Node22&#45;&gt;Node23 -->
<g id="edge33" class="edge">
<title>Node22&#45;&gt;Node23</title>
<path fill="none" stroke="midnightblue" d="M307.66,-123.08C308.58,-115.93 309.92,-105.64 311.08,-96.69"/>
<polygon fill="midnightblue" stroke="midnightblue" points="314.55,-97.12 312.37,-86.75 307.61,-96.22 314.55,-97.12"/>
</g>
<!-- Node24 -->
<g id="node24" class="node">
<title>Node24</title>
<g id="a_node24"><a xlink:title=" ">
<polygon fill="white" stroke="#bfbfbf" points="354,-67.5 354,-86.5 413,-86.5 413,-67.5 354,-67.5"/>
<text text-anchor="middle" x="383.5" y="-74.5" font-family="Helvetica,sans-Serif" font-size="10.00">complex</text>
</a>
</g>
</g>
<!-- Node22&#45;&gt;Node24 -->
<g id="edge34" class="edge">
<title>Node22&#45;&gt;Node24</title>
<path fill="none" stroke="midnightblue" d="M318.87,-123.32C330.66,-115.06 348.63,-102.45 362.64,-92.63"/>
<polygon fill="midnightblue" stroke="midnightblue" points="364.98,-95.26 371.16,-86.65 360.96,-89.53 364.98,-95.26"/>
</g>
<!-- Node25 -->
<g id="node25" class="node">
<title>Node25</title>
<g id="a_node25"><a xlink:href="itkFixedArray_8h.html" target="_top" xlink:title=" ">
<polygon fill="white" stroke="black" points="584,-67.5 584,-86.5 673,-86.5 673,-67.5 584,-67.5"/>
<text text-anchor="middle" x="628.5" y="-74.5" font-family="Helvetica,sans-Serif" font-size="10.00">itkFixedArray.h</text>
</a>
</g>
</g>
<!-- Node22&#45;&gt;Node25 -->
<g id="edge35" class="edge">
<title>Node22&#45;&gt;Node25</title>
<path fill="none" stroke="midnightblue" d="M357.52,-123.44C416.53,-113.55 513.29,-97.32 573.81,-87.17"/>
<polygon fill="midnightblue" stroke="midnightblue" points="574.66,-90.58 583.94,-85.47 573.5,-83.68 574.66,-90.58"/>
</g>
<!-- Node25&#45;&gt;Node5 -->
<g id="edge38" class="edge">
<title>Node25&#45;&gt;Node5</title>
<path fill="none" stroke="midnightblue" d="M672.72,-67.46C713.28,-59.27 774.87,-45.99 827.5,-31 830.45,-30.16 833.49,-29.23 836.53,-28.26"/>
<polygon fill="midnightblue" stroke="midnightblue" points="837.71,-31.56 846.1,-25.09 835.51,-24.92 837.71,-31.56"/>
</g>
<!-- Node25&#45;&gt;Node7 -->
<g id="edge36" class="edge">
<title>Node25&#45;&gt;Node7</title>
<path fill="none" stroke="midnightblue" d="M583.96,-68.86C521.49,-58.74 411.05,-40.4 371.5,-31 367.61,-30.08 363.57,-29.02 359.56,-27.9"/>
<polygon fill="midnightblue" stroke="midnightblue" points="360.33,-24.48 349.75,-25.05 358.38,-31.2 360.33,-24.48"/>
</g>
<!-- Node25&#45;&gt;Node17 -->
<g id="edge37" class="edge">
<title>Node25&#45;&gt;Node17</title>
<path fill="none" stroke="midnightblue" d="M649.27,-67.48C673.93,-57.36 715.25,-40.4 743.4,-28.85"/>
<polygon fill="midnightblue" stroke="midnightblue" points="744.84,-32.04 752.76,-25.01 742.18,-25.57 744.84,-32.04"/>
</g>
<!-- Node26 -->
<g id="node26" class="node">
<title>Node26</title>
<g id="a_node26"><a xlink:title=" ">
<polygon fill="white" stroke="#bfbfbf" points="667.5,-6 667.5,-25 709.5,-25 709.5,-6 667.5,-6"/>
<text text-anchor="middle" x="688.5" y="-13" font-family="Helvetica,sans-Serif" font-size="10.00">array</text>
</a>
</g>
</g>
<!-- Node25&#45;&gt;Node26 -->
<g id="edge39" class="edge">
<title>Node25&#45;&gt;Node26</title>
<path fill="none" stroke="midnightblue" d="M637.1,-67.48C646.36,-58.28 661.32,-43.46 672.71,-32.16"/>
<polygon fill="midnightblue" stroke="midnightblue" points="675.28,-34.54 679.92,-25.01 670.35,-29.57 675.28,-34.54"/>
</g>
<!-- Node27 -->
<g id="node27" class="node">
<title>Node27</title>
<g id="a_node27"><a xlink:title=" ">
<polygon fill="white" stroke="#bfbfbf" points="548,-6 548,-25 649,-25 649,-6 548,-6"/>
<text text-anchor="middle" x="598.5" y="-13" font-family="Helvetica,sans-Serif" font-size="10.00">itkFixedArray.hxx</text>
</a>
</g>
</g>
<!-- Node25&#45;&gt;Node27 -->
<g id="edge40" class="edge">
<title>Node25&#45;&gt;Node27</title>
<path fill="none" stroke="midnightblue" d="M624.2,-67.48C619.84,-58.82 612.94,-45.15 607.4,-34.15"/>
<polygon fill="midnightblue" stroke="midnightblue" points="610.42,-32.36 602.79,-25.01 604.17,-35.51 610.42,-32.36"/>
</g>
<!-- Node28 -->
<g id="node28" class="node">
<title>Node28</title>
<g id="a_node28"><a xlink:href="itkNumericTraitsFixedArrayPixel_8h.html" target="_top" xlink:title=" ">
<polygon fill="white" stroke="black" points="381,-0.5 381,-30.5 530,-30.5 530,-0.5 381,-0.5"/>
<text text-anchor="start" x="389" y="-18.5" font-family="Helvetica,sans-Serif" font-size="10.00">itkNumericTraitsFixedArray</text>
<text text-anchor="middle" x="455.5" y="-7.5" font-family="Helvetica,sans-Serif" font-size="10.00">Pixel.h</text>
</a>
</g>
</g>
<!-- Node25&#45;&gt;Node28 -->
<g id="edge41" class="edge">
<title>Node25&#45;&gt;Node28</title>
<path fill="none" stroke="midnightblue" d="M598.81,-67.48C571.62,-58.78 531.21,-45.03 500.16,-34"/>
<polygon fill="midnightblue" stroke="midnightblue" points="501.04,-30.59 490.44,-30.52 498.68,-37.19 501.04,-30.59"/>
</g>
<!-- Node28&#45;&gt;Node22 -->
<g id="edge42" class="edge">
<title>Node28&#45;&gt;Node22</title>
<path fill="none" stroke="midnightblue" d="M452.07,-30.55C447.54,-46.28 438.15,-71.58 421.5,-87 404.04,-103.17 380.1,-113.78 358.59,-120.61"/>
<polygon fill="midnightblue" stroke="midnightblue" points="357.49,-117.28 348.9,-123.49 359.48,-123.99 357.49,-117.28"/>
</g>
<!-- Node28&#45;&gt;Node25 -->
<g id="edge43" class="edge">
<title>Node28&#45;&gt;Node25</title>
<path fill="none" stroke="midnightblue" d="M502.1,-30.52C532.98,-40.69 572.46,-54.3 599.08,-63.98"/>
<polygon fill="midnightblue" stroke="midnightblue" points="598.02,-67.31 608.61,-67.48 600.43,-60.74 598.02,-67.31"/>
</g>
<!-- Node30&#45;&gt;Node3 -->
<g id="edge49" class="edge">
<title>Node30&#45;&gt;Node3</title>
<path fill="none" stroke="midnightblue" d="M410,-179.08C409.61,-172.01 409.05,-161.86 408.55,-152.99"/>
<polygon fill="midnightblue" stroke="midnightblue" points="412.04,-152.54 407.99,-142.75 405.05,-152.93 412.04,-152.54"/>
</g>
<!-- Node30&#45;&gt;Node22 -->
<g id="edge48" class="edge">
<title>Node30&#45;&gt;Node22</title>
<path fill="none" stroke="midnightblue" d="M393.79,-179.32C377.19,-170.7 351.5,-157.36 332.28,-147.39"/>
<polygon fill="midnightblue" stroke="midnightblue" points="333.66,-144.16 323.17,-142.65 330.43,-150.37 333.66,-144.16"/>
</g>
<!-- Node31 -->
<g id="node31" class="node">
<title>Node31</title>
<g id="a_node31"><a xlink:href="itkPixelTraits_8h.html" target="_top" xlink:title=" ">
<polygon fill="white" stroke="black" points="455.5,-123.5 455.5,-142.5 543.5,-142.5 543.5,-123.5 455.5,-123.5"/>
<text text-anchor="middle" x="499.5" y="-130.5" font-family="Helvetica,sans-Serif" font-size="10.00">itkPixelTraits.h</text>
</a>
</g>
</g>
<!-- Node30&#45;&gt;Node31 -->
<g id="edge46" class="edge">
<title>Node30&#45;&gt;Node31</title>
<path fill="none" stroke="midnightblue" d="M424.8,-179.32C438.68,-170.9 459.99,-157.97 476.3,-148.07"/>
<polygon fill="midnightblue" stroke="midnightblue" points="478.5,-150.83 485.24,-142.65 474.87,-144.85 478.5,-150.83"/>
</g>
<!-- Node31&#45;&gt;Node7 -->
<g id="edge47" class="edge">
<title>Node31&#45;&gt;Node7</title>
<path fill="none" stroke="midnightblue" d="M490.42,-123.29C476.38,-110.1 448.24,-84.72 421.5,-67 399.43,-52.37 372.59,-38.8 352.58,-29.42"/>
<polygon fill="midnightblue" stroke="midnightblue" points="353.91,-26.18 343.36,-25.17 350.97,-32.54 353.91,-26.18"/>
</g>
</g>
</svg>
