<?xml version="1.0" encoding="UTF-8" standalone="no"?>
<!DOCTYPE svg PUBLIC "-//W3C//DTD SVG 1.1//EN"
 "http://www.w3.org/Graphics/SVG/1.1/DTD/svg11.dtd">
<!-- Generated by graphviz version 2.43.0 (0)
 -->
<!-- Title: itkBuildInformation.h Pages: 1 -->
<svg width="822pt" height="420pt"
 viewBox="0.00 0.00 822.00 420.00" xmlns="http://www.w3.org/2000/svg" xmlns:xlink="http://www.w3.org/1999/xlink">
<g id="graph0" class="graph" transform="scale(1 1) rotate(0) translate(4 416)">
<title>itkBuildInformation.h</title>
<polygon fill="white" stroke="transparent" points="-4,4 -4,-416 818,-416 818,4 -4,4"/>
<!-- Node1 -->
<g id="node1" class="node">
<title>Node1</title>
<g id="a_node1"><a xlink:title=" ">
<polygon fill="#bfbfbf" stroke="black" points="525,-392.5 525,-411.5 645,-411.5 645,-392.5 525,-392.5"/>
<text text-anchor="middle" x="585" y="-399.5" font-family="Helvetica,sans-Serif" font-size="10.00">itkBuildInformation.h</text>
</a>
</g>
</g>
<!-- Node2 -->
<g id="node2" class="node">
<title>Node2</title>
<g id="a_node2"><a xlink:href="itkMacro_8h.html" target="_top" xlink:title=" ">
<polygon fill="white" stroke="black" points="374,-0.5 374,-19.5 442,-19.5 442,-0.5 374,-0.5"/>
<text text-anchor="middle" x="408" y="-7.5" font-family="Helvetica,sans-Serif" font-size="10.00">itkMacro.h</text>
</a>
</g>
</g>
<!-- Node1&#45;&gt;Node2 -->
<g id="edge1" class="edge">
<title>Node1&#45;&gt;Node2</title>
<path fill="none" stroke="midnightblue" d="M524.87,-395.97C375.59,-382.69 0,-344 0,-291 0,-291 0,-291 0,-121 0,-84.82 17.69,-74.13 49,-56 101.59,-25.56 279.74,-15.43 363.63,-12.29"/>
<polygon fill="midnightblue" stroke="midnightblue" points="363.99,-15.78 373.86,-11.93 363.74,-8.79 363.99,-15.78"/>
</g>
<!-- Node3 -->
<g id="node3" class="node">
<title>Node3</title>
<g id="a_node3"><a xlink:href="itkObject_8h.html" target="_top" xlink:title=" ">
<polygon fill="white" stroke="black" points="261,-336.5 261,-355.5 331,-355.5 331,-336.5 261,-336.5"/>
<text text-anchor="middle" x="296" y="-343.5" font-family="Helvetica,sans-Serif" font-size="10.00">itkObject.h</text>
</a>
</g>
</g>
<!-- Node1&#45;&gt;Node3 -->
<g id="edge2" class="edge">
<title>Node1&#45;&gt;Node3</title>
<path fill="none" stroke="midnightblue" d="M539.21,-392.44C484.93,-382.3 395.06,-365.51 341.09,-355.43"/>
<polygon fill="midnightblue" stroke="midnightblue" points="341.6,-351.96 331.12,-353.56 340.31,-358.84 341.6,-351.96"/>
</g>
<!-- Node15 -->
<g id="node15" class="node">
<title>Node15</title>
<g id="a_node15"><a xlink:href="itkSingletonMacro_8h.html" target="_top" xlink:title=" ">
<polygon fill="white" stroke="black" points="643,-56.5 643,-75.5 757,-75.5 757,-56.5 643,-56.5"/>
<text text-anchor="middle" x="700" y="-63.5" font-family="Helvetica,sans-Serif" font-size="10.00">itkSingletonMacro.h</text>
</a>
</g>
</g>
<!-- Node1&#45;&gt;Node15 -->
<g id="edge39" class="edge">
<title>Node1&#45;&gt;Node15</title>
<path fill="none" stroke="midnightblue" d="M620.1,-392.47C665.27,-379.15 738,-348.74 738,-291 738,-291 738,-291 738,-177 738,-142.81 721.4,-105.76 710.14,-84.57"/>
<polygon fill="midnightblue" stroke="midnightblue" points="713.18,-82.83 705.28,-75.77 707.05,-86.22 713.18,-82.83"/>
</g>
<!-- Node27 -->
<g id="node27" class="node">
<title>Node27</title>
<g id="a_node27"><a xlink:title=" ">
<polygon fill="white" stroke="#bfbfbf" points="766,-336.5 766,-355.5 814,-355.5 814,-336.5 766,-336.5"/>
<text text-anchor="middle" x="790" y="-343.5" font-family="Helvetica,sans-Serif" font-size="10.00">mutex</text>
</a>
</g>
</g>
<!-- Node1&#45;&gt;Node27 -->
<g id="edge38" class="edge">
<title>Node1&#45;&gt;Node27</title>
<path fill="none" stroke="midnightblue" d="M617.48,-392.44C655.41,-382.45 717.85,-366.01 756.3,-355.88"/>
<polygon fill="midnightblue" stroke="midnightblue" points="757.22,-359.25 766,-353.32 755.43,-352.49 757.22,-359.25"/>
</g>
<!-- Node4 -->
<g id="node4" class="node">
<title>Node4</title>
<g id="a_node4"><a xlink:href="itkLightObject_8h.html" target="_top" xlink:title=" ">
<polygon fill="white" stroke="black" points="230,-168.5 230,-187.5 324,-187.5 324,-168.5 230,-168.5"/>
<text text-anchor="middle" x="277" y="-175.5" font-family="Helvetica,sans-Serif" font-size="10.00">itkLightObject.h</text>
</a>
</g>
</g>
<!-- Node3&#45;&gt;Node4 -->
<g id="edge3" class="edge">
<title>Node3&#45;&gt;Node4</title>
<path fill="none" stroke="midnightblue" d="M278.76,-336.42C251.56,-321.78 199.66,-289.14 179,-244 166.96,-217.7 198.26,-200.6 228.61,-190.58"/>
<polygon fill="midnightblue" stroke="midnightblue" points="229.86,-193.86 238.38,-187.57 227.79,-187.17 229.86,-193.86"/>
</g>
<!-- Node3&#45;&gt;Node15 -->
<g id="edge36" class="edge">
<title>Node3&#45;&gt;Node15</title>
<path fill="none" stroke="midnightblue" d="M331.15,-342.97C429.44,-336.33 700,-311.15 700,-235 700,-235 700,-235 700,-177 700,-144.95 700,-107.64 700,-85.75"/>
<polygon fill="midnightblue" stroke="midnightblue" points="703.5,-85.56 700,-75.56 696.5,-85.56 703.5,-85.56"/>
</g>
<!-- Node18 -->
<g id="node18" class="node">
<title>Node18</title>
<g id="a_node18"><a xlink:href="itkEventObject_8h.html" target="_top" xlink:title=" ">
<polygon fill="white" stroke="black" points="34,-168.5 34,-187.5 132,-187.5 132,-168.5 34,-168.5"/>
<text text-anchor="middle" x="83" y="-175.5" font-family="Helvetica,sans-Serif" font-size="10.00">itkEventObject.h</text>
</a>
</g>
</g>
<!-- Node3&#45;&gt;Node18 -->
<g id="edge24" class="edge">
<title>Node3&#45;&gt;Node18</title>
<path fill="none" stroke="midnightblue" d="M272.08,-336.43C252.06,-328.62 223.28,-315.91 201,-300 157.43,-268.88 116.01,-220.64 95.82,-195.51"/>
<polygon fill="midnightblue" stroke="midnightblue" points="98.55,-193.31 89.6,-187.64 93.06,-197.66 98.55,-193.31"/>
</g>
<!-- Node19 -->
<g id="node19" class="node">
<title>Node19</title>
<g id="a_node19"><a xlink:href="itkMetaDataDictionary_8h.html" target="_top" xlink:title=" ">
<polygon fill="white" stroke="black" points="365.5,-280.5 365.5,-299.5 500.5,-299.5 500.5,-280.5 365.5,-280.5"/>
<text text-anchor="middle" x="433" y="-287.5" font-family="Helvetica,sans-Serif" font-size="10.00">itkMetaDataDictionary.h</text>
</a>
</g>
</g>
<!-- Node3&#45;&gt;Node19 -->
<g id="edge26" class="edge">
<title>Node3&#45;&gt;Node19</title>
<path fill="none" stroke="midnightblue" d="M317.71,-336.44C340.35,-327.52 376.07,-313.44 401.75,-303.32"/>
<polygon fill="midnightblue" stroke="midnightblue" points="403.37,-306.44 411.39,-299.52 400.81,-299.93 403.37,-306.44"/>
</g>
<!-- Node26 -->
<g id="node26" class="node">
<title>Node26</title>
<g id="a_node26"><a xlink:title=" ">
<polygon fill="white" stroke="#bfbfbf" points="28.5,-280.5 28.5,-299.5 93.5,-299.5 93.5,-280.5 28.5,-280.5"/>
<text text-anchor="middle" x="61" y="-287.5" font-family="Helvetica,sans-Serif" font-size="10.00">functional</text>
</a>
</g>
</g>
<!-- Node3&#45;&gt;Node26 -->
<g id="edge37" class="edge">
<title>Node3&#45;&gt;Node26</title>
<path fill="none" stroke="midnightblue" d="M260.82,-336.92C218.8,-327.26 148.55,-311.12 103.53,-300.77"/>
<polygon fill="midnightblue" stroke="midnightblue" points="104.3,-297.36 93.77,-298.53 102.73,-304.18 104.3,-297.36"/>
</g>
<!-- Node4&#45;&gt;Node2 -->
<g id="edge4" class="edge">
<title>Node4&#45;&gt;Node2</title>
<path fill="none" stroke="midnightblue" d="M291.36,-168.47C315.69,-153.21 364.7,-118.81 389,-76 397.16,-61.62 402.09,-43.43 404.88,-29.95"/>
<polygon fill="midnightblue" stroke="midnightblue" points="408.35,-30.39 406.73,-19.92 401.47,-29.11 408.35,-30.39"/>
</g>
<!-- Node5 -->
<g id="node5" class="node">
<title>Node5</title>
<g id="a_node5"><a xlink:href="itkSmartPointer_8h.html" target="_top" xlink:title=" ">
<polygon fill="white" stroke="black" points="226.5,-112.5 226.5,-131.5 327.5,-131.5 327.5,-112.5 226.5,-112.5"/>
<text text-anchor="middle" x="277" y="-119.5" font-family="Helvetica,sans-Serif" font-size="10.00">itkSmartPointer.h</text>
</a>
</g>
</g>
<!-- Node4&#45;&gt;Node5 -->
<g id="edge5" class="edge">
<title>Node4&#45;&gt;Node5</title>
<path fill="none" stroke="midnightblue" d="M277,-168.08C277,-161.01 277,-150.86 277,-141.99"/>
<polygon fill="midnightblue" stroke="midnightblue" points="280.5,-141.75 277,-131.75 273.5,-141.75 280.5,-141.75"/>
</g>
<!-- Node6 -->
<g id="node6" class="node">
<title>Node6</title>
<g id="a_node6"><a xlink:title=" ">
<polygon fill="white" stroke="#bfbfbf" points="66,-56.5 66,-75.5 126,-75.5 126,-56.5 66,-56.5"/>
<text text-anchor="middle" x="96" y="-63.5" font-family="Helvetica,sans-Serif" font-size="10.00">iostream</text>
</a>
</g>
</g>
<!-- Node4&#45;&gt;Node6 -->
<g id="edge22" class="edge">
<title>Node4&#45;&gt;Node6</title>
<path fill="none" stroke="midnightblue" d="M263.77,-168.42C244.27,-155.81 206.58,-131.67 174,-112 156.16,-101.23 135.74,-89.47 120.27,-80.68"/>
<polygon fill="midnightblue" stroke="midnightblue" points="121.78,-77.5 111.35,-75.62 118.32,-83.59 121.78,-77.5"/>
</g>
<!-- Node10 -->
<g id="node10" class="node">
<title>Node10</title>
<g id="a_node10"><a xlink:href="itkTimeStamp_8h.html" target="_top" xlink:title=" ">
<polygon fill="white" stroke="black" points="436.5,-112.5 436.5,-131.5 531.5,-131.5 531.5,-112.5 436.5,-112.5"/>
<text text-anchor="middle" x="484" y="-119.5" font-family="Helvetica,sans-Serif" font-size="10.00">itkTimeStamp.h</text>
</a>
</g>
</g>
<!-- Node4&#45;&gt;Node10 -->
<g id="edge10" class="edge">
<title>Node4&#45;&gt;Node10</title>
<path fill="none" stroke="midnightblue" d="M309.8,-168.44C345.38,-159.16 402.31,-144.31 441.35,-134.13"/>
<polygon fill="midnightblue" stroke="midnightblue" points="442.56,-137.43 451.35,-131.52 440.79,-130.65 442.56,-137.43"/>
</g>
<!-- Node14 -->
<g id="node14" class="node">
<title>Node14</title>
<g id="a_node14"><a xlink:title=" ">
<polygon fill="white" stroke="#bfbfbf" points="572,-56.5 572,-75.5 622,-75.5 622,-56.5 572,-56.5"/>
<text text-anchor="middle" x="597" y="-63.5" font-family="Helvetica,sans-Serif" font-size="10.00">atomic</text>
</a>
</g>
</g>
<!-- Node4&#45;&gt;Node14 -->
<g id="edge21" class="edge">
<title>Node4&#45;&gt;Node14</title>
<path fill="none" stroke="midnightblue" d="M324.18,-172.82C389.81,-166.35 504.72,-152.5 541,-132 560.79,-120.82 576.88,-99.88 586.65,-84.78"/>
<polygon fill="midnightblue" stroke="midnightblue" points="589.88,-86.22 592.14,-75.87 583.92,-82.55 589.88,-86.22"/>
</g>
<!-- Node16 -->
<g id="node16" class="node">
<title>Node16</title>
<g id="a_node16"><a xlink:href="itkIndent_8h.html" target="_top" xlink:title=" ">
<polygon fill="white" stroke="black" points="55.5,-112.5 55.5,-131.5 124.5,-131.5 124.5,-112.5 55.5,-112.5"/>
<text text-anchor="middle" x="90" y="-119.5" font-family="Helvetica,sans-Serif" font-size="10.00">itkIndent.h</text>
</a>
</g>
</g>
<!-- Node4&#45;&gt;Node16 -->
<g id="edge18" class="edge">
<title>Node4&#45;&gt;Node16</title>
<path fill="none" stroke="midnightblue" d="M247.37,-168.44C215.5,-159.24 164.67,-144.56 129.44,-134.39"/>
<polygon fill="midnightblue" stroke="midnightblue" points="130.07,-130.93 119.49,-131.52 128.13,-137.65 130.07,-130.93"/>
</g>
<!-- Node17 -->
<g id="node17" class="node">
<title>Node17</title>
<g id="a_node17"><a xlink:title=" ">
<polygon fill="white" stroke="#bfbfbf" points="588.5,-112.5 588.5,-131.5 645.5,-131.5 645.5,-112.5 588.5,-112.5"/>
<text text-anchor="middle" x="617" y="-119.5" font-family="Helvetica,sans-Serif" font-size="10.00">typeinfo</text>
</a>
</g>
</g>
<!-- Node4&#45;&gt;Node17 -->
<g id="edge23" class="edge">
<title>Node4&#45;&gt;Node17</title>
<path fill="none" stroke="midnightblue" d="M324.2,-170.68C382.9,-162.63 486.11,-147.84 574,-132 575.45,-131.74 576.93,-131.46 578.43,-131.18"/>
<polygon fill="midnightblue" stroke="midnightblue" points="579.23,-134.59 588.36,-129.23 577.87,-127.72 579.23,-134.59"/>
</g>
<!-- Node5&#45;&gt;Node6 -->
<g id="edge6" class="edge">
<title>Node5&#45;&gt;Node6</title>
<path fill="none" stroke="midnightblue" d="M248.32,-112.44C217.47,-103.24 168.27,-88.56 134.17,-78.39"/>
<polygon fill="midnightblue" stroke="midnightblue" points="135.13,-75.02 124.55,-75.52 133.13,-81.73 135.13,-75.02"/>
</g>
<!-- Node7 -->
<g id="node7" class="node">
<title>Node7</title>
<g id="a_node7"><a xlink:title=" ">
<polygon fill="white" stroke="#bfbfbf" points="144.5,-56.5 144.5,-75.5 189.5,-75.5 189.5,-56.5 144.5,-56.5"/>
<text text-anchor="middle" x="167" y="-63.5" font-family="Helvetica,sans-Serif" font-size="10.00">utility</text>
</a>
</g>
</g>
<!-- Node5&#45;&gt;Node7 -->
<g id="edge7" class="edge">
<title>Node5&#45;&gt;Node7</title>
<path fill="none" stroke="midnightblue" d="M259.33,-112.32C241.61,-103.62 214.1,-90.12 193.71,-80.11"/>
<polygon fill="midnightblue" stroke="midnightblue" points="195.15,-76.92 184.63,-75.65 192.06,-83.2 195.15,-76.92"/>
</g>
<!-- Node8 -->
<g id="node8" class="node">
<title>Node8</title>
<g id="a_node8"><a xlink:title=" ">
<polygon fill="white" stroke="#bfbfbf" points="207.5,-56.5 207.5,-75.5 276.5,-75.5 276.5,-56.5 207.5,-56.5"/>
<text text-anchor="middle" x="242" y="-63.5" font-family="Helvetica,sans-Serif" font-size="10.00">type_traits</text>
</a>
</g>
</g>
<!-- Node5&#45;&gt;Node8 -->
<g id="edge8" class="edge">
<title>Node5&#45;&gt;Node8</title>
<path fill="none" stroke="midnightblue" d="M271.22,-112.08C266.33,-104.53 259.17,-93.49 253.17,-84.23"/>
<polygon fill="midnightblue" stroke="midnightblue" points="256.05,-82.24 247.67,-75.75 250.17,-86.05 256.05,-82.24"/>
</g>
<!-- Node9 -->
<g id="node9" class="node">
<title>Node9</title>
<g id="a_node9"><a xlink:title=" ">
<polygon fill="white" stroke="#bfbfbf" points="294.5,-56.5 294.5,-75.5 379.5,-75.5 379.5,-56.5 294.5,-56.5"/>
<text text-anchor="middle" x="337" y="-63.5" font-family="Helvetica,sans-Serif" font-size="10.00">itkConfigure.h</text>
</a>
</g>
</g>
<!-- Node5&#45;&gt;Node9 -->
<g id="edge9" class="edge">
<title>Node5&#45;&gt;Node9</title>
<path fill="none" stroke="midnightblue" d="M286.64,-112.32C295.51,-104.34 308.87,-92.31 319.61,-82.65"/>
<polygon fill="midnightblue" stroke="midnightblue" points="322.09,-85.13 327.18,-75.83 317.41,-79.92 322.09,-85.13"/>
</g>
<!-- Node10&#45;&gt;Node2 -->
<g id="edge11" class="edge">
<title>Node10&#45;&gt;Node2</title>
<path fill="none" stroke="midnightblue" d="M478.04,-112.37C465.49,-94.22 436.19,-51.8 419.74,-27.99"/>
<polygon fill="midnightblue" stroke="midnightblue" points="422.5,-25.83 413.94,-19.59 416.74,-29.81 422.5,-25.83"/>
</g>
<!-- Node11 -->
<g id="node11" class="node">
<title>Node11</title>
<g id="a_node11"><a xlink:href="itkIntTypes_8h.html" target="_top" xlink:title=" ">
<polygon fill="white" stroke="black" points="474.5,-56.5 474.5,-75.5 553.5,-75.5 553.5,-56.5 474.5,-56.5"/>
<text text-anchor="middle" x="514" y="-63.5" font-family="Helvetica,sans-Serif" font-size="10.00">itkIntTypes.h</text>
</a>
</g>
</g>
<!-- Node10&#45;&gt;Node11 -->
<g id="edge12" class="edge">
<title>Node10&#45;&gt;Node11</title>
<path fill="none" stroke="midnightblue" d="M488.95,-112.08C493.1,-104.61 499.15,-93.72 504.27,-84.52"/>
<polygon fill="midnightblue" stroke="midnightblue" points="507.34,-86.19 509.14,-75.75 501.22,-82.79 507.34,-86.19"/>
</g>
<!-- Node10&#45;&gt;Node14 -->
<g id="edge16" class="edge">
<title>Node10&#45;&gt;Node14</title>
<path fill="none" stroke="midnightblue" d="M501.91,-112.44C520.25,-103.68 549.01,-89.94 570.09,-79.86"/>
<polygon fill="midnightblue" stroke="midnightblue" points="571.67,-82.99 579.18,-75.52 568.65,-76.67 571.67,-82.99"/>
</g>
<!-- Node10&#45;&gt;Node15 -->
<g id="edge17" class="edge">
<title>Node10&#45;&gt;Node15</title>
<path fill="none" stroke="midnightblue" d="M518.23,-112.44C555.51,-103.12 615.27,-88.18 656.01,-78"/>
<polygon fill="midnightblue" stroke="midnightblue" points="657.08,-81.34 665.93,-75.52 655.38,-74.55 657.08,-81.34"/>
</g>
<!-- Node11&#45;&gt;Node2 -->
<g id="edge13" class="edge">
<title>Node11&#45;&gt;Node2</title>
<path fill="none" stroke="midnightblue" d="M496.97,-56.32C479.97,-47.66 453.62,-34.24 434.01,-24.25"/>
<polygon fill="midnightblue" stroke="midnightblue" points="435.49,-21.08 424.99,-19.65 432.31,-27.31 435.49,-21.08"/>
</g>
<!-- Node12 -->
<g id="node12" class="node">
<title>Node12</title>
<g id="a_node12"><a xlink:title=" ">
<polygon fill="white" stroke="#bfbfbf" points="474,-0.5 474,-19.5 524,-19.5 524,-0.5 474,-0.5"/>
<text text-anchor="middle" x="499" y="-7.5" font-family="Helvetica,sans-Serif" font-size="10.00">cstdint</text>
</a>
</g>
</g>
<!-- Node11&#45;&gt;Node12 -->
<g id="edge14" class="edge">
<title>Node11&#45;&gt;Node12</title>
<path fill="none" stroke="midnightblue" d="M511.52,-56.08C509.51,-48.85 506.61,-38.41 504.11,-29.4"/>
<polygon fill="midnightblue" stroke="midnightblue" points="507.48,-28.45 501.43,-19.75 500.74,-30.32 507.48,-28.45"/>
</g>
<!-- Node13 -->
<g id="node13" class="node">
<title>Node13</title>
<g id="a_node13"><a xlink:title=" ">
<polygon fill="white" stroke="#bfbfbf" points="542,-0.5 542,-19.5 592,-19.5 592,-0.5 542,-0.5"/>
<text text-anchor="middle" x="567" y="-7.5" font-family="Helvetica,sans-Serif" font-size="10.00">climits</text>
</a>
</g>
</g>
<!-- Node11&#45;&gt;Node13 -->
<g id="edge15" class="edge">
<title>Node11&#45;&gt;Node13</title>
<path fill="none" stroke="midnightblue" d="M522.75,-56.08C530.47,-48.22 541.9,-36.57 551.22,-27.08"/>
<polygon fill="midnightblue" stroke="midnightblue" points="553.9,-29.34 558.41,-19.75 548.91,-24.44 553.9,-29.34"/>
</g>
<!-- Node16&#45;&gt;Node2 -->
<g id="edge19" class="edge">
<title>Node16&#45;&gt;Node2</title>
<path fill="none" stroke="midnightblue" d="M79.51,-112.18C64.88,-98.85 41.78,-73.29 57,-56 76.98,-33.29 273.97,-18.89 363.78,-13.45"/>
<polygon fill="midnightblue" stroke="midnightblue" points="364.15,-16.94 373.93,-12.85 363.74,-9.95 364.15,-16.94"/>
</g>
<!-- Node16&#45;&gt;Node6 -->
<g id="edge20" class="edge">
<title>Node16&#45;&gt;Node6</title>
<path fill="none" stroke="midnightblue" d="M90.99,-112.08C91.79,-104.93 92.93,-94.64 93.92,-85.69"/>
<polygon fill="midnightblue" stroke="midnightblue" points="97.4,-86.08 95.03,-75.75 90.44,-85.3 97.4,-86.08"/>
</g>
<!-- Node18&#45;&gt;Node16 -->
<g id="edge25" class="edge">
<title>Node18&#45;&gt;Node16</title>
<path fill="none" stroke="midnightblue" d="M84.16,-168.08C85.08,-160.93 86.42,-150.64 87.58,-141.69"/>
<polygon fill="midnightblue" stroke="midnightblue" points="91.05,-142.12 88.87,-131.75 84.11,-141.22 91.05,-142.12"/>
</g>
<!-- Node20 -->
<g id="node20" class="node">
<title>Node20</title>
<g id="a_node20"><a xlink:href="itkMetaDataObjectBase_8h.html" target="_top" xlink:title=" ">
<polygon fill="white" stroke="black" points="188,-224.5 188,-243.5 330,-243.5 330,-224.5 188,-224.5"/>
<text text-anchor="middle" x="259" y="-231.5" font-family="Helvetica,sans-Serif" font-size="10.00">itkMetaDataObjectBase.h</text>
</a>
</g>
</g>
<!-- Node19&#45;&gt;Node20 -->
<g id="edge27" class="edge">
<title>Node19&#45;&gt;Node20</title>
<path fill="none" stroke="midnightblue" d="M405.43,-280.44C375.9,-271.28 328.88,-256.69 296.12,-246.52"/>
<polygon fill="midnightblue" stroke="midnightblue" points="297.03,-243.14 286.44,-243.52 294.96,-249.82 297.03,-243.14"/>
</g>
<!-- Node21 -->
<g id="node21" class="node">
<title>Node21</title>
<g id="a_node21"><a xlink:title=" ">
<polygon fill="white" stroke="#bfbfbf" points="608,-224.5 608,-243.5 672,-243.5 672,-224.5 608,-224.5"/>
<text text-anchor="middle" x="640" y="-231.5" font-family="Helvetica,sans-Serif" font-size="10.00">algorithm</text>
</a>
</g>
</g>
<!-- Node19&#45;&gt;Node21 -->
<g id="edge31" class="edge">
<title>Node19&#45;&gt;Node21</title>
<path fill="none" stroke="midnightblue" d="M465.8,-280.44C501.49,-271.13 558.65,-256.22 597.69,-246.04"/>
<polygon fill="midnightblue" stroke="midnightblue" points="598.9,-249.34 607.69,-243.43 597.13,-242.57 598.9,-249.34"/>
</g>
<!-- Node22 -->
<g id="node22" class="node">
<title>Node22</title>
<g id="a_node22"><a xlink:title=" ">
<polygon fill="white" stroke="#bfbfbf" points="348.5,-224.5 348.5,-243.5 395.5,-243.5 395.5,-224.5 348.5,-224.5"/>
<text text-anchor="middle" x="372" y="-231.5" font-family="Helvetica,sans-Serif" font-size="10.00">vector</text>
</a>
</g>
</g>
<!-- Node19&#45;&gt;Node22 -->
<g id="edge32" class="edge">
<title>Node19&#45;&gt;Node22</title>
<path fill="none" stroke="midnightblue" d="M423.2,-280.32C414.18,-272.34 400.59,-260.31 389.68,-250.65"/>
<polygon fill="midnightblue" stroke="midnightblue" points="391.79,-247.84 381.98,-243.83 387.15,-253.08 391.79,-247.84"/>
</g>
<!-- Node23 -->
<g id="node23" class="node">
<title>Node23</title>
<g id="a_node23"><a xlink:title=" ">
<polygon fill="white" stroke="#bfbfbf" points="414,-224.5 414,-243.5 452,-243.5 452,-224.5 414,-224.5"/>
<text text-anchor="middle" x="433" y="-231.5" font-family="Helvetica,sans-Serif" font-size="10.00">map</text>
</a>
</g>
</g>
<!-- Node19&#45;&gt;Node23 -->
<g id="edge33" class="edge">
<title>Node19&#45;&gt;Node23</title>
<path fill="none" stroke="midnightblue" d="M433,-280.08C433,-273.01 433,-262.86 433,-253.99"/>
<polygon fill="midnightblue" stroke="midnightblue" points="436.5,-253.75 433,-243.75 429.5,-253.75 436.5,-253.75"/>
</g>
<!-- Node24 -->
<g id="node24" class="node">
<title>Node24</title>
<g id="a_node24"><a xlink:title=" ">
<polygon fill="white" stroke="#bfbfbf" points="470,-224.5 470,-243.5 514,-243.5 514,-224.5 470,-224.5"/>
<text text-anchor="middle" x="492" y="-231.5" font-family="Helvetica,sans-Serif" font-size="10.00">string</text>
</a>
</g>
</g>
<!-- Node19&#45;&gt;Node24 -->
<g id="edge34" class="edge">
<title>Node19&#45;&gt;Node24</title>
<path fill="none" stroke="midnightblue" d="M442.48,-280.32C451.2,-272.34 464.34,-260.31 474.9,-250.65"/>
<polygon fill="midnightblue" stroke="midnightblue" points="477.33,-253.17 482.35,-243.83 472.61,-248 477.33,-253.17"/>
</g>
<!-- Node25 -->
<g id="node25" class="node">
<title>Node25</title>
<g id="a_node25"><a xlink:title=" ">
<polygon fill="white" stroke="#bfbfbf" points="532,-224.5 532,-243.5 590,-243.5 590,-224.5 532,-224.5"/>
<text text-anchor="middle" x="561" y="-231.5" font-family="Helvetica,sans-Serif" font-size="10.00">memory</text>
</a>
</g>
</g>
<!-- Node19&#45;&gt;Node25 -->
<g id="edge35" class="edge">
<title>Node19&#45;&gt;Node25</title>
<path fill="none" stroke="midnightblue" d="M453.28,-280.44C474.35,-271.56 507.52,-257.56 531.49,-247.45"/>
<polygon fill="midnightblue" stroke="midnightblue" points="532.96,-250.63 540.81,-243.52 530.24,-244.18 532.96,-250.63"/>
</g>
<!-- Node20&#45;&gt;Node4 -->
<g id="edge28" class="edge">
<title>Node20&#45;&gt;Node4</title>
<path fill="none" stroke="midnightblue" d="M261.97,-224.08C264.38,-216.85 267.86,-206.41 270.87,-197.4"/>
<polygon fill="midnightblue" stroke="midnightblue" points="274.24,-198.34 274.08,-187.75 267.6,-196.13 274.24,-198.34"/>
</g>
<!-- Node20&#45;&gt;Node6 -->
<g id="edge30" class="edge">
<title>Node20&#45;&gt;Node6</title>
<path fill="none" stroke="midnightblue" d="M250.24,-224.08C223.91,-197.27 145.28,-117.19 111.6,-82.89"/>
<polygon fill="midnightblue" stroke="midnightblue" points="113.92,-80.25 104.41,-75.57 108.92,-85.16 113.92,-80.25"/>
</g>
<!-- Node20&#45;&gt;Node17 -->
<g id="edge29" class="edge">
<title>Node20&#45;&gt;Node17</title>
<path fill="none" stroke="midnightblue" d="M286.79,-224.46C350.5,-204.89 507.11,-156.77 579.36,-134.57"/>
<polygon fill="midnightblue" stroke="midnightblue" points="580.45,-137.89 588.98,-131.61 578.39,-131.2 580.45,-137.89"/>
</g>
</g>
</svg>
