<?xml version="1.0" encoding="UTF-8" standalone="no"?>
<!DOCTYPE svg PUBLIC "-//W3C//DTD SVG 1.1//EN"
 "http://www.w3.org/Graphics/SVG/1.1/DTD/svg11.dtd">
<!-- Generated by graphviz version 2.43.0 (0)
 -->
<!-- Title: itkBinaryGeneratorImageFilter.h Pages: 1 -->
<svg width="3959pt" height="296pt"
 viewBox="0.00 0.00 3958.50 296.00" xmlns="http://www.w3.org/2000/svg" xmlns:xlink="http://www.w3.org/1999/xlink">
<g id="graph0" class="graph" transform="scale(1 1) rotate(0) translate(4 292)">
<title>itkBinaryGeneratorImageFilter.h</title>
<polygon fill="white" stroke="transparent" points="-4,4 -4,-292 3954.5,-292 3954.5,4 -4,4"/>
<!-- Node1 -->
<g id="node1" class="node">
<title>Node1</title>
<g id="a_node1"><a xlink:title=" ">
<polygon fill="#bfbfbf" stroke="black" points="1901,-268.5 1901,-287.5 2074,-287.5 2074,-268.5 1901,-268.5"/>
<text text-anchor="middle" x="1987.5" y="-275.5" font-family="Helvetica,sans-Serif" font-size="10.00">itkBinaryGeneratorImageFilter.h</text>
</a>
</g>
</g>
<!-- Node2 -->
<g id="node2" class="node">
<title>Node2</title>
<g id="a_node2"><a xlink:href="itkJoinImageFilter_8h.html" target="_top" xlink:title=" ">
<polygon fill="white" stroke="black" points="0,-207 0,-226 111,-226 111,-207 0,-207"/>
<text text-anchor="middle" x="55.5" y="-214" font-family="Helvetica,sans-Serif" font-size="10.00">itkJoinImageFilter.h</text>
</a>
</g>
</g>
<!-- Node1&#45;&gt;Node2 -->
<g id="edge1" class="edge">
<title>Node1&#45;&gt;Node2</title>
<path fill="none" stroke="midnightblue" d="M1890.74,-277.21C1558.75,-277.52 467.3,-275.15 119.5,-232 108.99,-230.7 97.66,-228.43 87.51,-226.06"/>
<polygon fill="midnightblue" stroke="midnightblue" points="1890.82,-280.71 1900.81,-277.2 1890.81,-273.71 1890.82,-280.71"/>
</g>
<!-- Node3 -->
<g id="node3" class="node">
<title>Node3</title>
<g id="a_node3"><a xlink:href="itkAddImageFilter_8h.html" target="_top" xlink:title=" ">
<polygon fill="white" stroke="black" points="272.5,-207 272.5,-226 384.5,-226 384.5,-207 272.5,-207"/>
<text text-anchor="middle" x="328.5" y="-214" font-family="Helvetica,sans-Serif" font-size="10.00">itkAddImageFilter.h</text>
</a>
</g>
</g>
<!-- Node1&#45;&gt;Node3 -->
<g id="edge2" class="edge">
<title>Node1&#45;&gt;Node3</title>
<path fill="none" stroke="midnightblue" d="M1890.53,-276.69C1591.37,-275.36 685.45,-268.35 393.5,-232 382.83,-230.67 371.33,-228.39 361.02,-226.03"/>
<polygon fill="midnightblue" stroke="midnightblue" points="1890.9,-280.19 1900.91,-276.74 1890.93,-273.19 1890.9,-280.19"/>
</g>
<!-- Node7 -->
<g id="node7" class="node">
<title>Node7</title>
<g id="a_node7"><a xlink:href="itkAndImageFilter_8h.html" target="_top" xlink:title=" ">
<polygon fill="white" stroke="black" points="748.5,-207 748.5,-226 860.5,-226 860.5,-207 748.5,-207"/>
<text text-anchor="middle" x="804.5" y="-214" font-family="Helvetica,sans-Serif" font-size="10.00">itkAndImageFilter.h</text>
</a>
</g>
</g>
<!-- Node1&#45;&gt;Node7 -->
<g id="edge6" class="edge">
<title>Node1&#45;&gt;Node7</title>
<path fill="none" stroke="midnightblue" d="M1890.79,-275.33C1656.92,-270.95 1065.58,-257.61 869.5,-232 858.95,-230.62 847.59,-228.36 837.36,-226.03"/>
<polygon fill="midnightblue" stroke="midnightblue" points="1890.92,-278.84 1900.98,-275.52 1891.05,-271.84 1890.92,-278.84"/>
</g>
<!-- Node8 -->
<g id="node8" class="node">
<title>Node8</title>
<g id="a_node8"><a xlink:href="itkAtan2ImageFilter_8h.html" target="_top" xlink:title=" ">
<polygon fill="white" stroke="black" points="878.5,-207 878.5,-226 1000.5,-226 1000.5,-207 878.5,-207"/>
<text text-anchor="middle" x="939.5" y="-214" font-family="Helvetica,sans-Serif" font-size="10.00">itkAtan2ImageFilter.h</text>
</a>
</g>
</g>
<!-- Node1&#45;&gt;Node8 -->
<g id="edge7" class="edge">
<title>Node1&#45;&gt;Node8</title>
<path fill="none" stroke="midnightblue" d="M1890.75,-277.61C1714.67,-277.58 1330.44,-272.37 1009.5,-232 998.29,-230.59 986.21,-228.35 975.29,-226.05"/>
<polygon fill="midnightblue" stroke="midnightblue" points="1890.76,-281.11 1900.76,-277.6 1890.76,-274.11 1890.76,-281.11"/>
</g>
<!-- Node9 -->
<g id="node9" class="node">
<title>Node9</title>
<g id="a_node9"><a xlink:href="itkBinaryMagnitudeImageFilter_8h.html" target="_top" xlink:title=" ">
<polygon fill="white" stroke="black" points="1018.5,-207 1018.5,-226 1194.5,-226 1194.5,-207 1018.5,-207"/>
<text text-anchor="middle" x="1106.5" y="-214" font-family="Helvetica,sans-Serif" font-size="10.00">itkBinaryMagnitudeImageFilter.h</text>
</a>
</g>
</g>
<!-- Node1&#45;&gt;Node9 -->
<g id="edge8" class="edge">
<title>Node1&#45;&gt;Node9</title>
<path fill="none" stroke="midnightblue" d="M1890.43,-274.27C1742.08,-269.46 1450.16,-257.46 1203.5,-232 1188.51,-230.45 1172.29,-228.24 1157.49,-226.01"/>
<polygon fill="midnightblue" stroke="midnightblue" points="1890.76,-277.78 1900.87,-274.61 1890.98,-270.79 1890.76,-277.78"/>
</g>
<!-- Node10 -->
<g id="node10" class="node">
<title>Node10</title>
<g id="a_node10"><a xlink:href="itkConstrainedValueAdditionImageFilter_8h.html" target="_top" xlink:title=" ">
<polygon fill="white" stroke="black" points="1213,-201.5 1213,-231.5 1368,-231.5 1368,-201.5 1213,-201.5"/>
<text text-anchor="start" x="1221" y="-219.5" font-family="Helvetica,sans-Serif" font-size="10.00">itkConstrainedValueAddition</text>
<text text-anchor="middle" x="1290.5" y="-208.5" font-family="Helvetica,sans-Serif" font-size="10.00">ImageFilter.h</text>
</a>
</g>
</g>
<!-- Node1&#45;&gt;Node10 -->
<g id="edge9" class="edge">
<title>Node1&#45;&gt;Node10</title>
<path fill="none" stroke="midnightblue" d="M1890.68,-272.67C1769.97,-266.63 1557.47,-253.87 1376.5,-232 1373.79,-231.67 1371.04,-231.32 1368.27,-230.95"/>
<polygon fill="midnightblue" stroke="midnightblue" points="1890.83,-276.18 1900.99,-273.18 1891.18,-269.19 1890.83,-276.18"/>
</g>
<!-- Node11 -->
<g id="node11" class="node">
<title>Node11</title>
<g id="a_node11"><a xlink:href="itkConstrainedValueDifferenceImageFilter_8h.html" target="_top" xlink:title=" ">
<polygon fill="white" stroke="black" points="1386,-201.5 1386,-231.5 1551,-231.5 1551,-201.5 1386,-201.5"/>
<text text-anchor="start" x="1394" y="-219.5" font-family="Helvetica,sans-Serif" font-size="10.00">itkConstrainedValueDifference</text>
<text text-anchor="middle" x="1468.5" y="-208.5" font-family="Helvetica,sans-Serif" font-size="10.00">ImageFilter.h</text>
</a>
</g>
</g>
<!-- Node1&#45;&gt;Node11 -->
<g id="edge10" class="edge">
<title>Node1&#45;&gt;Node11</title>
<path fill="none" stroke="midnightblue" d="M1890.75,-268.31C1803.89,-260.16 1672.97,-246.99 1559.5,-232 1556.8,-231.64 1554.06,-231.27 1551.3,-230.89"/>
<polygon fill="midnightblue" stroke="midnightblue" points="1890.57,-271.81 1900.86,-269.26 1891.23,-264.84 1890.57,-271.81"/>
</g>
<!-- Node12 -->
<g id="node12" class="node">
<title>Node12</title>
<g id="a_node12"><a xlink:href="itkDivideImageFilter_8h.html" target="_top" xlink:title=" ">
<polygon fill="white" stroke="black" points="129,-207 129,-226 254,-226 254,-207 129,-207"/>
<text text-anchor="middle" x="191.5" y="-214" font-family="Helvetica,sans-Serif" font-size="10.00">itkDivideImageFilter.h</text>
</a>
</g>
</g>
<!-- Node1&#45;&gt;Node12 -->
<g id="edge11" class="edge">
<title>Node1&#45;&gt;Node12</title>
<path fill="none" stroke="midnightblue" d="M1890.81,-276.67C1576.01,-275.26 582.38,-268 263.5,-232 251.72,-230.67 238.99,-228.39 227.57,-226.03"/>
<polygon fill="midnightblue" stroke="midnightblue" points="1890.81,-280.17 1900.82,-276.72 1890.84,-273.17 1890.81,-280.17"/>
</g>
<!-- Node13 -->
<g id="node13" class="node">
<title>Node13</title>
<g id="a_node13"><a xlink:href="itkDivideOrZeroOutImageFilter_8h.html" target="_top" xlink:title=" ">
<polygon fill="white" stroke="black" points="554.5,-207 554.5,-226 730.5,-226 730.5,-207 554.5,-207"/>
<text text-anchor="middle" x="642.5" y="-214" font-family="Helvetica,sans-Serif" font-size="10.00">itkDivideOrZeroOutImageFilter.h</text>
</a>
</g>
</g>
<!-- Node1&#45;&gt;Node13 -->
<g id="edge13" class="edge">
<title>Node1&#45;&gt;Node13</title>
<path fill="none" stroke="midnightblue" d="M1890.58,-277.2C1680.43,-276.84 1167.24,-271.56 739.5,-232 724.07,-230.57 707.35,-228.33 692.21,-226.03"/>
<polygon fill="midnightblue" stroke="midnightblue" points="1890.66,-280.7 1900.66,-277.22 1890.67,-273.7 1890.66,-280.7"/>
</g>
<!-- Node15 -->
<g id="node15" class="node">
<title>Node15</title>
<g id="a_node15"><a xlink:href="itkMagnitudeAndPhaseToComplexImageFilter_8h.html" target="_top" xlink:title=" ">
<polygon fill="white" stroke="black" points="1569,-201.5 1569,-231.5 1752,-231.5 1752,-201.5 1569,-201.5"/>
<text text-anchor="start" x="1577" y="-219.5" font-family="Helvetica,sans-Serif" font-size="10.00">itkMagnitudeAndPhaseToComplex</text>
<text text-anchor="middle" x="1660.5" y="-208.5" font-family="Helvetica,sans-Serif" font-size="10.00">ImageFilter.h</text>
</a>
</g>
</g>
<!-- Node1&#45;&gt;Node15 -->
<g id="edge15" class="edge">
<title>Node1&#45;&gt;Node15</title>
<path fill="none" stroke="midnightblue" d="M1930.66,-266.66C1877.21,-256.93 1796.78,-242.3 1737.57,-231.52"/>
<polygon fill="midnightblue" stroke="midnightblue" points="1930.18,-270.13 1940.65,-268.48 1931.44,-263.24 1930.18,-270.13"/>
</g>
<!-- Node16 -->
<g id="node16" class="node">
<title>Node16</title>
<g id="a_node16"><a xlink:href="itkMaskImageFilter_8h.html" target="_top" xlink:title=" ">
<polygon fill="white" stroke="black" points="1770,-207 1770,-226 1889,-226 1889,-207 1770,-207"/>
<text text-anchor="middle" x="1829.5" y="-214" font-family="Helvetica,sans-Serif" font-size="10.00">itkMaskImageFilter.h</text>
</a>
</g>
</g>
<!-- Node1&#45;&gt;Node16 -->
<g id="edge16" class="edge">
<title>Node1&#45;&gt;Node16</title>
<path fill="none" stroke="midnightblue" d="M1955.46,-264.93C1924.75,-253.37 1879.18,-236.21 1852.1,-226.01"/>
<polygon fill="midnightblue" stroke="midnightblue" points="1954.27,-268.23 1964.86,-268.48 1956.74,-261.68 1954.27,-268.23"/>
</g>
<!-- Node17 -->
<g id="node17" class="node">
<title>Node17</title>
<g id="a_node17"><a xlink:href="itkMaskNegatedImageFilter_8h.html" target="_top" xlink:title=" ">
<polygon fill="white" stroke="black" points="1907,-207 1907,-226 2068,-226 2068,-207 1907,-207"/>
<text text-anchor="middle" x="1987.5" y="-214" font-family="Helvetica,sans-Serif" font-size="10.00">itkMaskNegatedImageFilter.h</text>
</a>
</g>
</g>
<!-- Node1&#45;&gt;Node17 -->
<g id="edge17" class="edge">
<title>Node1&#45;&gt;Node17</title>
<path fill="none" stroke="midnightblue" d="M1987.5,-258.32C1987.5,-247.5 1987.5,-234.4 1987.5,-226.01"/>
<polygon fill="midnightblue" stroke="midnightblue" points="1984,-258.48 1987.5,-268.48 1991,-258.48 1984,-258.48"/>
</g>
<!-- Node18 -->
<g id="node18" class="node">
<title>Node18</title>
<g id="a_node18"><a xlink:href="itkMaximumImageFilter_8h.html" target="_top" xlink:title=" ">
<polygon fill="white" stroke="black" points="2086,-207 2086,-226 2229,-226 2229,-207 2086,-207"/>
<text text-anchor="middle" x="2157.5" y="-214" font-family="Helvetica,sans-Serif" font-size="10.00">itkMaximumImageFilter.h</text>
</a>
</g>
</g>
<!-- Node1&#45;&gt;Node18 -->
<g id="edge18" class="edge">
<title>Node1&#45;&gt;Node18</title>
<path fill="none" stroke="midnightblue" d="M2021.55,-265.08C2054.59,-253.52 2103.92,-236.25 2133.19,-226.01"/>
<polygon fill="midnightblue" stroke="midnightblue" points="2020.14,-261.87 2011.86,-268.48 2022.45,-268.48 2020.14,-261.87"/>
</g>
<!-- Node19 -->
<g id="node19" class="node">
<title>Node19</title>
<g id="a_node19"><a xlink:href="itkMinimumImageFilter_8h.html" target="_top" xlink:title=" ">
<polygon fill="white" stroke="black" points="2247.5,-207 2247.5,-226 2387.5,-226 2387.5,-207 2247.5,-207"/>
<text text-anchor="middle" x="2317.5" y="-214" font-family="Helvetica,sans-Serif" font-size="10.00">itkMinimumImageFilter.h</text>
</a>
</g>
</g>
<!-- Node1&#45;&gt;Node19 -->
<g id="edge19" class="edge">
<title>Node1&#45;&gt;Node19</title>
<path fill="none" stroke="midnightblue" d="M2045.07,-266.66C2095.74,-257.55 2171.52,-243.92 2237.5,-232 2248.2,-230.07 2259.69,-227.99 2270.55,-226.02"/>
<polygon fill="midnightblue" stroke="midnightblue" points="2044.19,-263.26 2034.96,-268.47 2045.43,-270.15 2044.19,-263.26"/>
</g>
<!-- Node20 -->
<g id="node20" class="node">
<title>Node20</title>
<g id="a_node20"><a xlink:href="itkModulusImageFilter_8h.html" target="_top" xlink:title=" ">
<polygon fill="white" stroke="black" points="2405.5,-207 2405.5,-226 2539.5,-226 2539.5,-207 2405.5,-207"/>
<text text-anchor="middle" x="2472.5" y="-214" font-family="Helvetica,sans-Serif" font-size="10.00">itkModulusImageFilter.h</text>
</a>
</g>
</g>
<!-- Node1&#45;&gt;Node20 -->
<g id="edge20" class="edge">
<title>Node1&#45;&gt;Node20</title>
<path fill="none" stroke="midnightblue" d="M2084.51,-268.5C2167.56,-260.71 2290.2,-247.96 2396.5,-232 2407.66,-230.32 2419.68,-228.19 2430.79,-226.07"/>
<polygon fill="midnightblue" stroke="midnightblue" points="2083.96,-265.04 2074.33,-269.45 2084.61,-272.01 2083.96,-265.04"/>
</g>
<!-- Node21 -->
<g id="node21" class="node">
<title>Node21</title>
<g id="a_node21"><a xlink:href="itkMultiplyImageFilter_8h.html" target="_top" xlink:title=" ">
<polygon fill="white" stroke="black" points="403,-207 403,-226 536,-226 536,-207 403,-207"/>
<text text-anchor="middle" x="469.5" y="-214" font-family="Helvetica,sans-Serif" font-size="10.00">itkMultiplyImageFilter.h</text>
</a>
</g>
</g>
<!-- Node1&#45;&gt;Node21 -->
<g id="edge21" class="edge">
<title>Node1&#45;&gt;Node21</title>
<path fill="none" stroke="midnightblue" d="M1890.49,-275.96C1610.95,-272.66 807.1,-260.86 545.5,-232 533.22,-230.65 519.95,-228.39 507.99,-226.06"/>
<polygon fill="midnightblue" stroke="midnightblue" points="1890.57,-279.46 1900.61,-276.08 1890.65,-272.47 1890.57,-279.46"/>
</g>
<!-- Node25 -->
<g id="node25" class="node">
<title>Node25</title>
<g id="a_node25"><a xlink:href="itkOrImageFilter_8h.html" target="_top" xlink:title=" ">
<polygon fill="white" stroke="black" points="2557.5,-207 2557.5,-226 2661.5,-226 2661.5,-207 2557.5,-207"/>
<text text-anchor="middle" x="2609.5" y="-214" font-family="Helvetica,sans-Serif" font-size="10.00">itkOrImageFilter.h</text>
</a>
</g>
</g>
<!-- Node1&#45;&gt;Node25 -->
<g id="edge28" class="edge">
<title>Node1&#45;&gt;Node25</title>
<path fill="none" stroke="midnightblue" d="M2084.28,-273.74C2196.52,-268.93 2386.82,-257.55 2548.5,-232 2558.07,-230.49 2568.36,-228.27 2577.71,-226.03"/>
<polygon fill="midnightblue" stroke="midnightblue" points="2083.85,-270.26 2074,-274.18 2084.14,-277.25 2083.85,-270.26"/>
</g>
<!-- Node26 -->
<g id="node26" class="node">
<title>Node26</title>
<g id="a_node26"><a xlink:href="itkPowImageFilter_8h.html" target="_top" xlink:title=" ">
<polygon fill="white" stroke="black" points="2680,-207 2680,-226 2793,-226 2793,-207 2680,-207"/>
<text text-anchor="middle" x="2736.5" y="-214" font-family="Helvetica,sans-Serif" font-size="10.00">itkPowImageFilter.h</text>
</a>
</g>
</g>
<!-- Node1&#45;&gt;Node26 -->
<g id="edge29" class="edge">
<title>Node1&#45;&gt;Node26</title>
<path fill="none" stroke="midnightblue" d="M2084.33,-275.2C2217.13,-271.69 2462.95,-261.47 2670.5,-232 2680.95,-230.52 2692.21,-228.28 2702.42,-226.01"/>
<polygon fill="midnightblue" stroke="midnightblue" points="2084.09,-271.7 2074.18,-275.46 2084.27,-278.7 2084.09,-271.7"/>
</g>
<!-- Node27 -->
<g id="node27" class="node">
<title>Node27</title>
<g id="a_node27"><a xlink:href="itkSubtractImageFilter_8h.html" target="_top" xlink:title=" ">
<polygon fill="white" stroke="black" points="2811.5,-207 2811.5,-226 2945.5,-226 2945.5,-207 2811.5,-207"/>
<text text-anchor="middle" x="2878.5" y="-214" font-family="Helvetica,sans-Serif" font-size="10.00">itkSubtractImageFilter.h</text>
</a>
</g>
</g>
<!-- Node1&#45;&gt;Node27 -->
<g id="edge30" class="edge">
<title>Node1&#45;&gt;Node27</title>
<path fill="none" stroke="midnightblue" d="M2084.57,-275.74C2237.53,-272.82 2543.8,-263.25 2801.5,-232 2813.65,-230.53 2826.78,-228.3 2838.69,-226.02"/>
<polygon fill="midnightblue" stroke="midnightblue" points="2084.2,-272.24 2074.27,-275.93 2084.33,-279.24 2084.2,-272.24"/>
</g>
<!-- Node30 -->
<g id="node30" class="node">
<title>Node30</title>
<g id="a_node30"><a xlink:href="itkWeightedAddImageFilter_8h.html" target="_top" xlink:title=" ">
<polygon fill="white" stroke="black" points="2963.5,-207 2963.5,-226 3121.5,-226 3121.5,-207 2963.5,-207"/>
<text text-anchor="middle" x="3042.5" y="-214" font-family="Helvetica,sans-Serif" font-size="10.00">itkWeightedAddImageFilter.h</text>
</a>
</g>
</g>
<!-- Node1&#45;&gt;Node30 -->
<g id="edge33" class="edge">
<title>Node1&#45;&gt;Node30</title>
<path fill="none" stroke="midnightblue" d="M2084.29,-276.23C2258.72,-274.01 2637.2,-265.41 2954.5,-232 2968.36,-230.54 2983.35,-228.32 2996.96,-226.04"/>
<polygon fill="midnightblue" stroke="midnightblue" points="2084.07,-272.73 2074.11,-276.36 2084.15,-279.73 2084.07,-272.73"/>
</g>
<!-- Node31 -->
<g id="node31" class="node">
<title>Node31</title>
<g id="a_node31"><a xlink:href="itkXorImageFilter_8h.html" target="_top" xlink:title=" ">
<polygon fill="white" stroke="black" points="3139.5,-207 3139.5,-226 3249.5,-226 3249.5,-207 3139.5,-207"/>
<text text-anchor="middle" x="3194.5" y="-214" font-family="Helvetica,sans-Serif" font-size="10.00">itkXorImageFilter.h</text>
</a>
</g>
</g>
<!-- Node1&#45;&gt;Node31 -->
<g id="edge34" class="edge">
<title>Node1&#45;&gt;Node31</title>
<path fill="none" stroke="midnightblue" d="M2084.29,-275.47C2321.96,-271.36 2929.49,-258.5 3130.5,-232 3140.89,-230.63 3152.08,-228.37 3162.15,-226.04"/>
<polygon fill="midnightblue" stroke="midnightblue" points="2084.22,-271.97 2074.28,-275.64 2084.34,-278.97 2084.22,-271.97"/>
</g>
<!-- Node32 -->
<g id="node32" class="node">
<title>Node32</title>
<g id="a_node32"><a xlink:href="itkAbsoluteValueDifferenceImageFilter_8h.html" target="_top" xlink:title=" ">
<polygon fill="white" stroke="black" points="3268,-201.5 3268,-231.5 3417,-231.5 3417,-201.5 3268,-201.5"/>
<text text-anchor="start" x="3276" y="-219.5" font-family="Helvetica,sans-Serif" font-size="10.00">itkAbsoluteValueDifference</text>
<text text-anchor="middle" x="3342.5" y="-208.5" font-family="Helvetica,sans-Serif" font-size="10.00">ImageFilter.h</text>
</a>
</g>
</g>
<!-- Node1&#45;&gt;Node32 -->
<g id="edge35" class="edge">
<title>Node1&#45;&gt;Node32</title>
<path fill="none" stroke="midnightblue" d="M2084.44,-275.27C2340.57,-270.43 3031.21,-255.53 3258.5,-232 3261.59,-231.68 3264.74,-231.31 3267.92,-230.91"/>
<polygon fill="midnightblue" stroke="midnightblue" points="2084.34,-271.77 2074.41,-275.46 2084.48,-278.77 2084.34,-271.77"/>
</g>
<!-- Node33 -->
<g id="node33" class="node">
<title>Node33</title>
<g id="a_node33"><a xlink:href="itkSquaredDifferenceImageFilter_8h.html" target="_top" xlink:title=" ">
<polygon fill="white" stroke="black" points="3434.5,-201.5 3434.5,-231.5 3584.5,-231.5 3584.5,-201.5 3434.5,-201.5"/>
<text text-anchor="start" x="3442.5" y="-219.5" font-family="Helvetica,sans-Serif" font-size="10.00">itkSquaredDifferenceImage</text>
<text text-anchor="middle" x="3509.5" y="-208.5" font-family="Helvetica,sans-Serif" font-size="10.00">Filter.h</text>
</a>
</g>
</g>
<!-- Node1&#45;&gt;Node33 -->
<g id="edge36" class="edge">
<title>Node1&#45;&gt;Node33</title>
<path fill="none" stroke="midnightblue" d="M2084.29,-275.76C2363.19,-271.91 3165.23,-258.77 3426.5,-232 3429.12,-231.73 3431.78,-231.43 3434.47,-231.1"/>
<polygon fill="midnightblue" stroke="midnightblue" points="2084.14,-272.26 2074.19,-275.9 2084.24,-279.26 2084.14,-272.26"/>
</g>
<!-- Node34 -->
<g id="node34" class="node">
<title>Node34</title>
<g id="a_node34"><a xlink:href="itkGradientMagnitudeRecursiveGaussianImageFilter_8h.html" target="_top" xlink:title=" ">
<polygon fill="white" stroke="black" points="3603,-201.5 3603,-231.5 3774,-231.5 3774,-201.5 3603,-201.5"/>
<text text-anchor="start" x="3611" y="-219.5" font-family="Helvetica,sans-Serif" font-size="10.00">itkGradientMagnitudeRecursive</text>
<text text-anchor="middle" x="3688.5" y="-208.5" font-family="Helvetica,sans-Serif" font-size="10.00">GaussianImageFilter.h</text>
</a>
</g>
</g>
<!-- Node1&#45;&gt;Node34 -->
<g id="edge37" class="edge">
<title>Node1&#45;&gt;Node34</title>
<path fill="none" stroke="midnightblue" d="M2084.58,-275.85C2385.18,-272.05 3298.1,-258.58 3593.5,-232 3596.57,-231.72 3599.7,-231.41 3602.85,-231.07"/>
<polygon fill="midnightblue" stroke="midnightblue" points="2084.1,-272.36 2074.15,-275.98 2084.19,-279.36 2084.1,-272.36"/>
</g>
<!-- Node35 -->
<g id="node35" class="node">
<title>Node35</title>
<g id="a_node35"><a xlink:href="itkLabelOverlayImageFilter_8h.html" target="_top" xlink:title=" ">
<polygon fill="white" stroke="black" points="3792.5,-207 3792.5,-226 3950.5,-226 3950.5,-207 3792.5,-207"/>
<text text-anchor="middle" x="3871.5" y="-214" font-family="Helvetica,sans-Serif" font-size="10.00">itkLabelOverlayImageFilter.h</text>
</a>
</g>
</g>
<!-- Node1&#45;&gt;Node35 -->
<g id="edge38" class="edge">
<title>Node1&#45;&gt;Node35</title>
<path fill="none" stroke="midnightblue" d="M2084.52,-276.34C2408.21,-273.86 3449.44,-263.55 3783.5,-232 3797.84,-230.65 3813.37,-228.36 3827.34,-226"/>
<polygon fill="midnightblue" stroke="midnightblue" points="2084.2,-272.84 2074.23,-276.42 2084.26,-279.84 2084.2,-272.84"/>
</g>
<!-- Node4 -->
<g id="node4" class="node">
<title>Node4</title>
<g id="a_node4"><a xlink:href="itkExponentialDisplacementFieldImageFilter_8h.html" target="_top" xlink:title=" ">
<polygon fill="white" stroke="black" points="126,-134.5 126,-164.5 281,-164.5 281,-134.5 126,-134.5"/>
<text text-anchor="start" x="134" y="-152.5" font-family="Helvetica,sans-Serif" font-size="10.00">itkExponentialDisplacement</text>
<text text-anchor="middle" x="203.5" y="-141.5" font-family="Helvetica,sans-Serif" font-size="10.00">FieldImageFilter.h</text>
</a>
</g>
</g>
<!-- Node3&#45;&gt;Node4 -->
<g id="edge3" class="edge">
<title>Node3&#45;&gt;Node4</title>
<path fill="none" stroke="midnightblue" d="M302.91,-202.19C281.89,-191.26 252.17,-175.81 230.71,-164.65"/>
<polygon fill="midnightblue" stroke="midnightblue" points="301.41,-205.36 311.9,-206.87 304.64,-199.15 301.41,-205.36"/>
</g>
<!-- Node5 -->
<g id="node5" class="node">
<title>Node5</title>
<g id="a_node5"><a xlink:href="itkDiffeomorphicDemonsRegistrationFilter_8h.html" target="_top" xlink:title=" ">
<polygon fill="white" stroke="black" points="261.5,-67.5 261.5,-97.5 459.5,-97.5 459.5,-67.5 261.5,-67.5"/>
<text text-anchor="start" x="269.5" y="-85.5" font-family="Helvetica,sans-Serif" font-size="10.00">itkDiffeomorphicDemonsRegistration</text>
<text text-anchor="middle" x="360.5" y="-74.5" font-family="Helvetica,sans-Serif" font-size="10.00">Filter.h</text>
</a>
</g>
</g>
<!-- Node4&#45;&gt;Node5 -->
<g id="edge4" class="edge">
<title>Node4&#45;&gt;Node5</title>
<path fill="none" stroke="midnightblue" d="M246.87,-130.54C271.99,-120.14 303.16,-107.24 326.5,-97.58"/>
<polygon fill="midnightblue" stroke="midnightblue" points="245.47,-127.34 237.57,-134.4 248.14,-133.8 245.47,-127.34"/>
</g>
<!-- Node6 -->
<g id="node6" class="node">
<title>Node6</title>
<g id="a_node6"><a xlink:href="itkFastSymmetricForcesDemonsRegistrationFilter_8h.html" target="_top" xlink:title=" ">
<polygon fill="white" stroke="black" points="69.5,-67.5 69.5,-97.5 243.5,-97.5 243.5,-67.5 69.5,-67.5"/>
<text text-anchor="start" x="77.5" y="-85.5" font-family="Helvetica,sans-Serif" font-size="10.00">itkFastSymmetricForcesDemons</text>
<text text-anchor="middle" x="156.5" y="-74.5" font-family="Helvetica,sans-Serif" font-size="10.00">RegistrationFilter.h</text>
</a>
</g>
</g>
<!-- Node4&#45;&gt;Node6 -->
<g id="edge5" class="edge">
<title>Node4&#45;&gt;Node6</title>
<path fill="none" stroke="midnightblue" d="M187.34,-126.16C180.49,-116.68 172.71,-105.92 166.68,-97.58"/>
<polygon fill="midnightblue" stroke="midnightblue" points="184.61,-128.34 193.3,-134.4 190.28,-124.24 184.61,-128.34"/>
</g>
<!-- Node12&#45;&gt;Node4 -->
<g id="edge12" class="edge">
<title>Node12&#45;&gt;Node4</title>
<path fill="none" stroke="midnightblue" d="M194.96,-196.74C196.86,-186.49 199.16,-174 200.9,-164.59"/>
<polygon fill="midnightblue" stroke="midnightblue" points="191.49,-196.26 193.12,-206.73 198.38,-197.54 191.49,-196.26"/>
</g>
<!-- Node14 -->
<g id="node14" class="node">
<title>Node14</title>
<g id="a_node14"><a xlink:href="itkRichardsonLucyDeconvolutionImageFilter_8h.html" target="_top" xlink:title=" ">
<polygon fill="white" stroke="black" points="568.5,-134.5 568.5,-164.5 744.5,-164.5 744.5,-134.5 568.5,-134.5"/>
<text text-anchor="start" x="576.5" y="-152.5" font-family="Helvetica,sans-Serif" font-size="10.00">itkRichardsonLucyDeconvolution</text>
<text text-anchor="middle" x="656.5" y="-141.5" font-family="Helvetica,sans-Serif" font-size="10.00">ImageFilter.h</text>
</a>
</g>
</g>
<!-- Node13&#45;&gt;Node14 -->
<g id="edge14" class="edge">
<title>Node13&#45;&gt;Node14</title>
<path fill="none" stroke="midnightblue" d="M646.54,-196.74C648.75,-186.49 651.44,-174 653.47,-164.59"/>
<polygon fill="midnightblue" stroke="midnightblue" points="643.07,-196.22 644.39,-206.73 649.92,-197.69 643.07,-196.22"/>
</g>
<!-- Node21&#45;&gt;Node5 -->
<g id="edge26" class="edge">
<title>Node21&#45;&gt;Node5</title>
<path fill="none" stroke="midnightblue" d="M432.8,-203.13C414.19,-195.06 392.79,-182.69 379.5,-165 364.49,-145.02 361.07,-115.1 360.45,-97.61"/>
<polygon fill="midnightblue" stroke="midnightblue" points="431.63,-206.44 442.21,-206.97 434.27,-199.95 431.63,-206.44"/>
</g>
<!-- Node21&#45;&gt;Node6 -->
<g id="edge27" class="edge">
<title>Node21&#45;&gt;Node6</title>
<path fill="none" stroke="midnightblue" d="M442.42,-202.6C407.39,-186.07 344.37,-156.81 289.5,-134 258.14,-120.96 222.1,-107.36 195.45,-97.56"/>
<polygon fill="midnightblue" stroke="midnightblue" points="440.99,-205.8 451.52,-206.91 443.98,-199.47 440.99,-205.8"/>
</g>
<!-- Node21&#45;&gt;Node14 -->
<g id="edge25" class="edge">
<title>Node21&#45;&gt;Node14</title>
<path fill="none" stroke="midnightblue" d="M504.05,-203.49C535.75,-192.47 582.73,-176.14 616.14,-164.53"/>
<polygon fill="midnightblue" stroke="midnightblue" points="502.63,-200.28 494.33,-206.87 504.93,-206.89 502.63,-200.28"/>
</g>
<!-- Node22 -->
<g id="node22" class="node">
<title>Node22</title>
<g id="a_node22"><a xlink:href="itkCannyEdgeDetectionImageFilter_8h.html" target="_top" xlink:title=" ">
<polygon fill="white" stroke="black" points="388.5,-134.5 388.5,-164.5 550.5,-164.5 550.5,-134.5 388.5,-134.5"/>
<text text-anchor="start" x="396.5" y="-152.5" font-family="Helvetica,sans-Serif" font-size="10.00">itkCannyEdgeDetectionImage</text>
<text text-anchor="middle" x="469.5" y="-141.5" font-family="Helvetica,sans-Serif" font-size="10.00">Filter.h</text>
</a>
</g>
</g>
<!-- Node21&#45;&gt;Node22 -->
<g id="edge22" class="edge">
<title>Node21&#45;&gt;Node22</title>
<path fill="none" stroke="midnightblue" d="M469.5,-196.41C469.5,-186.22 469.5,-173.9 469.5,-164.59"/>
<polygon fill="midnightblue" stroke="midnightblue" points="466,-196.73 469.5,-206.73 473,-196.73 466,-196.73"/>
</g>
<!-- Node23 -->
<g id="node23" class="node">
<title>Node23</title>
<g id="a_node23"><a xlink:href="itkCannySegmentationLevelSetFunction_8h.html" target="_top" xlink:title=" ">
<polygon fill="white" stroke="black" points="478,-67.5 478,-97.5 633,-97.5 633,-67.5 478,-67.5"/>
<text text-anchor="start" x="486" y="-85.5" font-family="Helvetica,sans-Serif" font-size="10.00">itkCannySegmentationLevel</text>
<text text-anchor="middle" x="555.5" y="-74.5" font-family="Helvetica,sans-Serif" font-size="10.00">SetFunction.h</text>
</a>
</g>
</g>
<!-- Node22&#45;&gt;Node23 -->
<g id="edge23" class="edge">
<title>Node22&#45;&gt;Node23</title>
<path fill="none" stroke="midnightblue" d="M496.4,-128.17C509.55,-118.23 525.05,-106.51 536.88,-97.58"/>
<polygon fill="midnightblue" stroke="midnightblue" points="494.03,-125.57 488.16,-134.4 498.25,-131.16 494.03,-125.57"/>
</g>
<!-- Node24 -->
<g id="node24" class="node">
<title>Node24</title>
<g id="a_node24"><a xlink:href="itkCannySegmentationLevelSetImageFilter_8h.html" target="_top" xlink:title=" ">
<polygon fill="white" stroke="black" points="478,-0.5 478,-30.5 633,-30.5 633,-0.5 478,-0.5"/>
<text text-anchor="start" x="486" y="-18.5" font-family="Helvetica,sans-Serif" font-size="10.00">itkCannySegmentationLevel</text>
<text text-anchor="middle" x="555.5" y="-7.5" font-family="Helvetica,sans-Serif" font-size="10.00">SetImageFilter.h</text>
</a>
</g>
</g>
<!-- Node23&#45;&gt;Node24 -->
<g id="edge24" class="edge">
<title>Node23&#45;&gt;Node24</title>
<path fill="none" stroke="midnightblue" d="M555.5,-57.11C555.5,-48.15 555.5,-38.32 555.5,-30.58"/>
<polygon fill="midnightblue" stroke="midnightblue" points="552,-57.4 555.5,-67.4 559,-57.4 552,-57.4"/>
</g>
<!-- Node28 -->
<g id="node28" class="node">
<title>Node28</title>
<g id="a_node28"><a xlink:href="itkMorphologicalGradientImageFilter_8h.html" target="_top" xlink:title=" ">
<polygon fill="white" stroke="black" points="2892.5,-134.5 2892.5,-164.5 3032.5,-164.5 3032.5,-134.5 2892.5,-134.5"/>
<text text-anchor="start" x="2900.5" y="-152.5" font-family="Helvetica,sans-Serif" font-size="10.00">itkMorphologicalGradient</text>
<text text-anchor="middle" x="2962.5" y="-141.5" font-family="Helvetica,sans-Serif" font-size="10.00">ImageFilter.h</text>
</a>
</g>
</g>
<!-- Node27&#45;&gt;Node28 -->
<g id="edge31" class="edge">
<title>Node27&#45;&gt;Node28</title>
<path fill="none" stroke="midnightblue" d="M2897.83,-200.54C2911.81,-189.73 2930.58,-175.2 2944.29,-164.59"/>
<polygon fill="midnightblue" stroke="midnightblue" points="2895.6,-197.85 2889.83,-206.73 2899.88,-203.38 2895.6,-197.85"/>
</g>
<!-- Node29 -->
<g id="node29" class="node">
<title>Node29</title>
<g id="a_node29"><a xlink:href="itkSignedDanielssonDistanceMapImageFilter_8h.html" target="_top" xlink:title=" ">
<polygon fill="white" stroke="black" points="2715,-134.5 2715,-164.5 2874,-164.5 2874,-134.5 2715,-134.5"/>
<text text-anchor="start" x="2723" y="-152.5" font-family="Helvetica,sans-Serif" font-size="10.00">itkSignedDanielssonDistance</text>
<text text-anchor="middle" x="2794.5" y="-141.5" font-family="Helvetica,sans-Serif" font-size="10.00">MapImageFilter.h</text>
</a>
</g>
</g>
<!-- Node27&#45;&gt;Node29 -->
<g id="edge32" class="edge">
<title>Node27&#45;&gt;Node29</title>
<path fill="none" stroke="midnightblue" d="M2859.17,-200.54C2845.19,-189.73 2826.42,-175.2 2812.71,-164.59"/>
<polygon fill="midnightblue" stroke="midnightblue" points="2857.12,-203.38 2867.17,-206.73 2861.4,-197.85 2857.12,-203.38"/>
</g>
</g>
</svg>
