<?xml version="1.0" encoding="UTF-8" standalone="no"?>
<!DOCTYPE svg PUBLIC "-//W3C//DTD SVG 1.1//EN"
 "http://www.w3.org/Graphics/SVG/1.1/DTD/svg11.dtd">
<!-- Generated by graphviz version 2.43.0 (0)
 -->
<!-- Title: itkBooleanStdVector.h Pages: 1 -->
<svg width="4318pt" height="430pt"
 viewBox="0.00 0.00 4318.00 430.00" xmlns="http://www.w3.org/2000/svg" xmlns:xlink="http://www.w3.org/1999/xlink">
<g id="graph0" class="graph" transform="scale(1 1) rotate(0) translate(4 426)">
<title>itkBooleanStdVector.h</title>
<polygon fill="white" stroke="transparent" points="-4,4 -4,-426 4314,-426 4314,4 -4,4"/>
<!-- Node1 -->
<g id="node1" class="node">
<title>Node1</title>
<g id="a_node1"><a xlink:title=" ">
<polygon fill="#bfbfbf" stroke="black" points="2521,-402.5 2521,-421.5 2645,-421.5 2645,-402.5 2521,-402.5"/>
<text text-anchor="middle" x="2583" y="-409.5" font-family="Helvetica,sans-Serif" font-size="10.00">itkBooleanStdVector.h</text>
</a>
</g>
</g>
<!-- Node2 -->
<g id="node2" class="node">
<title>Node2</title>
<g id="a_node2"><a xlink:href="itkDenseFiniteDifferenceImageFilter_8h.html" target="_top" xlink:title=" ">
<polygon fill="white" stroke="black" points="1392.5,-268.5 1392.5,-298.5 1529.5,-298.5 1529.5,-268.5 1392.5,-268.5"/>
<text text-anchor="start" x="1400.5" y="-286.5" font-family="Helvetica,sans-Serif" font-size="10.00">itkDenseFiniteDifference</text>
<text text-anchor="middle" x="1461" y="-275.5" font-family="Helvetica,sans-Serif" font-size="10.00">ImageFilter.h</text>
</a>
</g>
</g>
<!-- Node1&#45;&gt;Node2 -->
<g id="edge1" class="edge">
<title>Node1&#45;&gt;Node2</title>
<path fill="none" stroke="midnightblue" d="M2510.67,-402.85C2306.75,-379.85 1729.12,-314.73 1529.71,-292.25"/>
<polygon fill="midnightblue" stroke="midnightblue" points="2510.35,-406.33 2520.68,-403.97 2511.13,-399.37 2510.35,-406.33"/>
</g>
<!-- Node25 -->
<g id="node25" class="node">
<title>Node25</title>
<g id="a_node25"><a xlink:href="itkFiniteDifferenceImageFilter_8h.html" target="_top" xlink:title=" ">
<polygon fill="white" stroke="black" points="2466.5,-335.5 2466.5,-365.5 2603.5,-365.5 2603.5,-335.5 2466.5,-335.5"/>
<text text-anchor="start" x="2474.5" y="-353.5" font-family="Helvetica,sans-Serif" font-size="10.00">itkFiniteDifferenceImage</text>
<text text-anchor="middle" x="2535" y="-342.5" font-family="Helvetica,sans-Serif" font-size="10.00">Filter.h</text>
</a>
</g>
</g>
<!-- Node1&#45;&gt;Node25 -->
<g id="edge28" class="edge">
<title>Node1&#45;&gt;Node25</title>
<path fill="none" stroke="midnightblue" d="M2569.71,-394.53C2562.36,-385.42 2553.32,-374.21 2546.31,-365.52"/>
<polygon fill="midnightblue" stroke="midnightblue" points="2567.12,-396.89 2576.12,-402.48 2572.57,-392.49 2567.12,-396.89"/>
</g>
<!-- Node26 -->
<g id="node26" class="node">
<title>Node26</title>
<g id="a_node26"><a xlink:href="itkFiniteDifferenceSparseImageFilter_8h.html" target="_top" xlink:title=" ">
<polygon fill="white" stroke="black" points="2316,-268.5 2316,-298.5 2456,-298.5 2456,-268.5 2316,-268.5"/>
<text text-anchor="start" x="2324" y="-286.5" font-family="Helvetica,sans-Serif" font-size="10.00">itkFiniteDifferenceSparse</text>
<text text-anchor="middle" x="2386" y="-275.5" font-family="Helvetica,sans-Serif" font-size="10.00">ImageFilter.h</text>
</a>
</g>
</g>
<!-- Node1&#45;&gt;Node26 -->
<g id="edge56" class="edge">
<title>Node1&#45;&gt;Node26</title>
<path fill="none" stroke="midnightblue" d="M2533.85,-399.76C2509.35,-392.65 2480.11,-381.76 2457,-366 2430.03,-347.6 2406.92,-316.56 2394.88,-298.57"/>
<polygon fill="midnightblue" stroke="midnightblue" points="2533.1,-403.19 2543.68,-402.49 2534.98,-396.44 2533.1,-403.19"/>
</g>
<!-- Node32 -->
<g id="node32" class="node">
<title>Node32</title>
<g id="a_node32"><a xlink:href="itkNarrowBandImageFilterBase_8h.html" target="_top" xlink:title=" ">
<polygon fill="white" stroke="black" points="2650.5,-268.5 2650.5,-298.5 2795.5,-298.5 2795.5,-268.5 2650.5,-268.5"/>
<text text-anchor="start" x="2658.5" y="-286.5" font-family="Helvetica,sans-Serif" font-size="10.00">itkNarrowBandImageFilter</text>
<text text-anchor="middle" x="2723" y="-275.5" font-family="Helvetica,sans-Serif" font-size="10.00">Base.h</text>
</a>
</g>
</g>
<!-- Node1&#45;&gt;Node32 -->
<g id="edge57" class="edge">
<title>Node1&#45;&gt;Node32</title>
<path fill="none" stroke="midnightblue" d="M2597.69,-394.23C2611.94,-378.31 2634.52,-354.06 2656,-335 2670.93,-321.76 2689.07,-308.22 2702.7,-298.51"/>
<polygon fill="midnightblue" stroke="midnightblue" points="2594.7,-392.32 2590.68,-402.13 2599.93,-396.97 2594.7,-392.32"/>
</g>
<!-- Node48 -->
<g id="node48" class="node">
<title>Node48</title>
<g id="a_node48"><a xlink:href="itkParallelSparseFieldLevelSetImageFilter_8h.html" target="_top" xlink:title=" ">
<polygon fill="white" stroke="black" points="2814,-268.5 2814,-298.5 2962,-298.5 2962,-268.5 2814,-268.5"/>
<text text-anchor="start" x="2822" y="-286.5" font-family="Helvetica,sans-Serif" font-size="10.00">itkParallelSparseFieldLevel</text>
<text text-anchor="middle" x="2888" y="-275.5" font-family="Helvetica,sans-Serif" font-size="10.00">SetImageFilter.h</text>
</a>
</g>
</g>
<!-- Node1&#45;&gt;Node48 -->
<g id="edge58" class="edge">
<title>Node1&#45;&gt;Node48</title>
<path fill="none" stroke="midnightblue" d="M2606.78,-397.24C2620.87,-388.76 2638.88,-377.37 2654,-366 2670.61,-353.51 2670.63,-344.72 2689,-335 2711.41,-323.14 2770.36,-308.87 2818.32,-298.53"/>
<polygon fill="midnightblue" stroke="midnightblue" points="2604.96,-394.25 2598.15,-402.36 2608.53,-400.27 2604.96,-394.25"/>
</g>
<!-- Node50 -->
<g id="node50" class="node">
<title>Node50</title>
<g id="a_node50"><a xlink:href="itkQuasiNewtonOptimizerv4_8h.html" target="_top" xlink:title=" ">
<polygon fill="white" stroke="black" points="2698,-341 2698,-360 2862,-360 2862,-341 2698,-341"/>
<text text-anchor="middle" x="2780" y="-348" font-family="Helvetica,sans-Serif" font-size="10.00">itkQuasiNewtonOptimizerv4.h</text>
</a>
</g>
</g>
<!-- Node1&#45;&gt;Node50 -->
<g id="edge59" class="edge">
<title>Node1&#45;&gt;Node50</title>
<path fill="none" stroke="midnightblue" d="M2620.98,-399.53C2659.27,-387.96 2717.47,-370.38 2751.83,-360.01"/>
<polygon fill="midnightblue" stroke="midnightblue" points="2619.79,-396.23 2611.23,-402.48 2621.81,-402.93 2619.79,-396.23"/>
</g>
<!-- Node3 -->
<g id="node3" class="node">
<title>Node3</title>
<g id="a_node3"><a xlink:href="itkCurvatureFlowImageFilter_8h.html" target="_top" xlink:title=" ">
<polygon fill="white" stroke="black" points="197,-207 197,-226 361,-226 361,-207 197,-207"/>
<text text-anchor="middle" x="279" y="-214" font-family="Helvetica,sans-Serif" font-size="10.00">itkCurvatureFlowImageFilter.h</text>
</a>
</g>
</g>
<!-- Node2&#45;&gt;Node3 -->
<g id="edge2" class="edge">
<title>Node2&#45;&gt;Node3</title>
<path fill="none" stroke="midnightblue" d="M1382.14,-278.16C1168.34,-266.41 579.12,-234 361.32,-222.03"/>
<polygon fill="midnightblue" stroke="midnightblue" points="1382.16,-281.67 1392.34,-278.72 1382.55,-274.68 1382.16,-281.67"/>
</g>
<!-- Node6 -->
<g id="node6" class="node">
<title>Node6</title>
<g id="a_node6"><a xlink:href="itkAnisotropicDiffusionImageFilter_8h.html" target="_top" xlink:title=" ">
<polygon fill="white" stroke="black" points="662,-201.5 662,-231.5 820,-231.5 820,-201.5 662,-201.5"/>
<text text-anchor="start" x="670" y="-219.5" font-family="Helvetica,sans-Serif" font-size="10.00">itkAnisotropicDiffusionImage</text>
<text text-anchor="middle" x="741" y="-208.5" font-family="Helvetica,sans-Serif" font-size="10.00">Filter.h</text>
</a>
</g>
</g>
<!-- Node2&#45;&gt;Node6 -->
<g id="edge5" class="edge">
<title>Node2&#45;&gt;Node6</title>
<path fill="none" stroke="midnightblue" d="M1382.18,-275.38C1243.84,-262.9 958.87,-237.17 820.23,-224.65"/>
<polygon fill="midnightblue" stroke="midnightblue" points="1382.02,-278.88 1392.29,-276.3 1382.64,-271.91 1382.02,-278.88"/>
</g>
<!-- Node14 -->
<g id="node14" class="node">
<title>Node14</title>
<g id="a_node14"><a xlink:href="itkGPUDenseFiniteDifferenceImageFilter_8h.html" target="_top" xlink:title=" ">
<polygon fill="white" stroke="black" points="1198,-201.5 1198,-231.5 1356,-231.5 1356,-201.5 1198,-201.5"/>
<text text-anchor="start" x="1206" y="-219.5" font-family="Helvetica,sans-Serif" font-size="10.00">itkGPUDenseFiniteDifference</text>
<text text-anchor="middle" x="1277" y="-208.5" font-family="Helvetica,sans-Serif" font-size="10.00">ImageFilter.h</text>
</a>
</g>
</g>
<!-- Node2&#45;&gt;Node14 -->
<g id="edge14" class="edge">
<title>Node2&#45;&gt;Node14</title>
<path fill="none" stroke="midnightblue" d="M1411.33,-264.96C1381.7,-254.48 1344.56,-241.37 1316.85,-231.58"/>
<polygon fill="midnightblue" stroke="midnightblue" points="1410.48,-268.37 1421.07,-268.4 1412.81,-261.76 1410.48,-268.37"/>
</g>
<!-- Node17 -->
<g id="node17" class="node">
<title>Node17</title>
<g id="a_node17"><a xlink:href="itkPDEDeformableRegistrationFilter_8h.html" target="_top" xlink:title=" ">
<polygon fill="white" stroke="black" points="1558,-201.5 1558,-231.5 1724,-231.5 1724,-201.5 1558,-201.5"/>
<text text-anchor="start" x="1566" y="-219.5" font-family="Helvetica,sans-Serif" font-size="10.00">itkPDEDeformableRegistration</text>
<text text-anchor="middle" x="1641" y="-208.5" font-family="Helvetica,sans-Serif" font-size="10.00">Filter.h</text>
</a>
</g>
</g>
<!-- Node2&#45;&gt;Node17 -->
<g id="edge18" class="edge">
<title>Node2&#45;&gt;Node17</title>
<path fill="none" stroke="midnightblue" d="M1509.59,-264.96C1538.58,-254.48 1574.91,-241.37 1602.02,-231.58"/>
<polygon fill="midnightblue" stroke="midnightblue" points="1508.27,-261.71 1500.06,-268.4 1510.65,-268.29 1508.27,-261.71"/>
</g>
<!-- Node4 -->
<g id="node4" class="node">
<title>Node4</title>
<g id="a_node4"><a xlink:href="itkMinMaxCurvatureFlowImageFilter_8h.html" target="_top" xlink:title=" ">
<polygon fill="white" stroke="black" points="0,-134.5 0,-164.5 170,-164.5 170,-134.5 0,-134.5"/>
<text text-anchor="start" x="8" y="-152.5" font-family="Helvetica,sans-Serif" font-size="10.00">itkMinMaxCurvatureFlowImage</text>
<text text-anchor="middle" x="85" y="-141.5" font-family="Helvetica,sans-Serif" font-size="10.00">Filter.h</text>
</a>
</g>
</g>
<!-- Node3&#45;&gt;Node4 -->
<g id="edge3" class="edge">
<title>Node3&#45;&gt;Node4</title>
<path fill="none" stroke="midnightblue" d="M243.58,-203.63C210.69,-192.61 161.68,-176.19 126.87,-164.53"/>
<polygon fill="midnightblue" stroke="midnightblue" points="242.64,-207.01 253.24,-206.87 244.87,-200.37 242.64,-207.01"/>
</g>
<!-- Node5 -->
<g id="node5" class="node">
<title>Node5</title>
<g id="a_node5"><a xlink:href="itkBinaryMinMaxCurvatureFlowImageFilter_8h.html" target="_top" xlink:title=" ">
<polygon fill="white" stroke="black" points="11,-67.5 11,-97.5 159,-97.5 159,-67.5 11,-67.5"/>
<text text-anchor="start" x="19" y="-85.5" font-family="Helvetica,sans-Serif" font-size="10.00">itkBinaryMinMaxCurvature</text>
<text text-anchor="middle" x="85" y="-74.5" font-family="Helvetica,sans-Serif" font-size="10.00">FlowImageFilter.h</text>
</a>
</g>
</g>
<!-- Node4&#45;&gt;Node5 -->
<g id="edge4" class="edge">
<title>Node4&#45;&gt;Node5</title>
<path fill="none" stroke="midnightblue" d="M85,-124.11C85,-115.15 85,-105.32 85,-97.58"/>
<polygon fill="midnightblue" stroke="midnightblue" points="81.5,-124.4 85,-134.4 88.5,-124.4 81.5,-124.4"/>
</g>
<!-- Node7 -->
<g id="node7" class="node">
<title>Node7</title>
<g id="a_node7"><a xlink:href="itkCurvatureAnisotropicDiffusionImageFilter_8h.html" target="_top" xlink:title=" ">
<polygon fill="white" stroke="black" points="188,-134.5 188,-164.5 364,-164.5 364,-134.5 188,-134.5"/>
<text text-anchor="start" x="196" y="-152.5" font-family="Helvetica,sans-Serif" font-size="10.00">itkCurvatureAnisotropicDiffusion</text>
<text text-anchor="middle" x="276" y="-141.5" font-family="Helvetica,sans-Serif" font-size="10.00">ImageFilter.h</text>
</a>
</g>
</g>
<!-- Node6&#45;&gt;Node7 -->
<g id="edge6" class="edge">
<title>Node6&#45;&gt;Node7</title>
<path fill="none" stroke="midnightblue" d="M651.71,-203.55C577.16,-193.5 468.11,-178.63 373,-165 370.05,-164.58 367.05,-164.14 364.02,-163.7"/>
<polygon fill="midnightblue" stroke="midnightblue" points="651.62,-207.07 662,-204.94 652.55,-200.13 651.62,-207.07"/>
</g>
<!-- Node8 -->
<g id="node8" class="node">
<title>Node8</title>
<g id="a_node8"><a xlink:href="itkGradientAnisotropicDiffusionImageFilter_8h.html" target="_top" xlink:title=" ">
<polygon fill="white" stroke="black" points="382,-134.5 382,-164.5 552,-164.5 552,-134.5 382,-134.5"/>
<text text-anchor="start" x="390" y="-152.5" font-family="Helvetica,sans-Serif" font-size="10.00">itkGradientAnisotropicDiffusion</text>
<text text-anchor="middle" x="467" y="-141.5" font-family="Helvetica,sans-Serif" font-size="10.00">ImageFilter.h</text>
</a>
</g>
</g>
<!-- Node6&#45;&gt;Node8 -->
<g id="edge7" class="edge">
<title>Node6&#45;&gt;Node8</title>
<path fill="none" stroke="midnightblue" d="M671.95,-199.12C627.11,-188.48 569.28,-174.76 526.48,-164.61"/>
<polygon fill="midnightblue" stroke="midnightblue" points="671.35,-202.57 681.88,-201.48 672.96,-195.76 671.35,-202.57"/>
</g>
<!-- Node11 -->
<g id="node11" class="node">
<title>Node11</title>
<g id="a_node11"><a xlink:href="itkVectorCurvatureAnisotropicDiffusionImageFilter_8h.html" target="_top" xlink:title=" ">
<polygon fill="white" stroke="black" points="570.5,-134.5 570.5,-164.5 733.5,-164.5 733.5,-134.5 570.5,-134.5"/>
<text text-anchor="start" x="578.5" y="-152.5" font-family="Helvetica,sans-Serif" font-size="10.00">itkVectorCurvatureAnisotropic</text>
<text text-anchor="middle" x="652" y="-141.5" font-family="Helvetica,sans-Serif" font-size="10.00">DiffusionImageFilter.h</text>
</a>
</g>
</g>
<!-- Node6&#45;&gt;Node11 -->
<g id="edge10" class="edge">
<title>Node6&#45;&gt;Node11</title>
<path fill="none" stroke="midnightblue" d="M713.55,-195.45C699.86,-185.45 683.63,-173.6 671.27,-164.58"/>
<polygon fill="midnightblue" stroke="midnightblue" points="711.55,-198.32 721.69,-201.4 715.68,-192.67 711.55,-198.32"/>
</g>
<!-- Node12 -->
<g id="node12" class="node">
<title>Node12</title>
<g id="a_node12"><a xlink:href="itkVectorGradientAnisotropicDiffusionImageFilter_8h.html" target="_top" xlink:title=" ">
<polygon fill="white" stroke="black" points="751.5,-134.5 751.5,-164.5 908.5,-164.5 908.5,-134.5 751.5,-134.5"/>
<text text-anchor="start" x="759.5" y="-152.5" font-family="Helvetica,sans-Serif" font-size="10.00">itkVectorGradientAnisotropic</text>
<text text-anchor="middle" x="830" y="-141.5" font-family="Helvetica,sans-Serif" font-size="10.00">DiffusionImageFilter.h</text>
</a>
</g>
</g>
<!-- Node6&#45;&gt;Node12 -->
<g id="edge11" class="edge">
<title>Node6&#45;&gt;Node12</title>
<path fill="none" stroke="midnightblue" d="M768.45,-195.45C782.14,-185.45 798.37,-173.6 810.73,-164.58"/>
<polygon fill="midnightblue" stroke="midnightblue" points="766.32,-192.67 760.31,-201.4 770.45,-198.32 766.32,-192.67"/>
</g>
<!-- Node13 -->
<g id="node13" class="node">
<title>Node13</title>
<g id="a_node13"><a xlink:href="itkGPUAnisotropicDiffusionImageFilter_8h.html" target="_top" xlink:title=" ">
<polygon fill="white" stroke="black" points="926.5,-134.5 926.5,-164.5 1075.5,-164.5 1075.5,-134.5 926.5,-134.5"/>
<text text-anchor="start" x="934.5" y="-152.5" font-family="Helvetica,sans-Serif" font-size="10.00">itkGPUAnisotropicDiffusion</text>
<text text-anchor="middle" x="1001" y="-141.5" font-family="Helvetica,sans-Serif" font-size="10.00">ImageFilter.h</text>
</a>
</g>
</g>
<!-- Node6&#45;&gt;Node13 -->
<g id="edge12" class="edge">
<title>Node6&#45;&gt;Node13</title>
<path fill="none" stroke="midnightblue" d="M807.06,-198.98C849.53,-188.37 904.12,-174.72 944.56,-164.61"/>
<polygon fill="midnightblue" stroke="midnightblue" points="805.95,-195.66 797.1,-201.48 807.65,-202.45 805.95,-195.66"/>
</g>
<!-- Node9 -->
<g id="node9" class="node">
<title>Node9</title>
<g id="a_node9"><a xlink:href="itkGPUGradientAnisotropicDiffusionImageFilter_8h.html" target="_top" xlink:title=" ">
<polygon fill="white" stroke="black" points="660.5,-67.5 660.5,-97.5 807.5,-97.5 807.5,-67.5 660.5,-67.5"/>
<text text-anchor="start" x="668.5" y="-85.5" font-family="Helvetica,sans-Serif" font-size="10.00">itkGPUGradientAnisotropic</text>
<text text-anchor="middle" x="734" y="-74.5" font-family="Helvetica,sans-Serif" font-size="10.00">DiffusionImageFilter.h</text>
</a>
</g>
</g>
<!-- Node8&#45;&gt;Node9 -->
<g id="edge8" class="edge">
<title>Node8&#45;&gt;Node9</title>
<path fill="none" stroke="midnightblue" d="M534.57,-132.05C578.22,-121.43 634.42,-107.74 676.04,-97.61"/>
<polygon fill="midnightblue" stroke="midnightblue" points="533.49,-128.71 524.61,-134.48 535.15,-135.51 533.49,-128.71"/>
</g>
<!-- Node10 -->
<g id="node10" class="node">
<title>Node10</title>
<g id="a_node10"><a xlink:href="itkGPUGradientAnisotropicDiffusionImageFilterFactory_8h.html" target="_top" xlink:title=" ">
<polygon fill="white" stroke="black" points="655,-0.5 655,-30.5 813,-30.5 813,-0.5 655,-0.5"/>
<text text-anchor="start" x="663" y="-18.5" font-family="Helvetica,sans-Serif" font-size="10.00">itkGPUGradientAnisotropic</text>
<text text-anchor="middle" x="734" y="-7.5" font-family="Helvetica,sans-Serif" font-size="10.00">DiffusionImageFilterFactory.h</text>
</a>
</g>
</g>
<!-- Node9&#45;&gt;Node10 -->
<g id="edge9" class="edge">
<title>Node9&#45;&gt;Node10</title>
<path fill="none" stroke="midnightblue" d="M734,-57.11C734,-48.15 734,-38.32 734,-30.58"/>
<polygon fill="midnightblue" stroke="midnightblue" points="730.5,-57.4 734,-67.4 737.5,-57.4 730.5,-57.4"/>
</g>
<!-- Node13&#45;&gt;Node9 -->
<g id="edge13" class="edge">
<title>Node13&#45;&gt;Node9</title>
<path fill="none" stroke="midnightblue" d="M933.43,-132.05C889.78,-121.43 833.58,-107.74 791.96,-97.61"/>
<polygon fill="midnightblue" stroke="midnightblue" points="932.85,-135.51 943.39,-134.48 934.51,-128.71 932.85,-135.51"/>
</g>
<!-- Node14&#45;&gt;Node13 -->
<g id="edge15" class="edge">
<title>Node14&#45;&gt;Node13</title>
<path fill="none" stroke="midnightblue" d="M1207.44,-199.12C1162.28,-188.48 1104.02,-174.76 1060.92,-164.61"/>
<polygon fill="midnightblue" stroke="midnightblue" points="1206.92,-202.59 1217.45,-201.48 1208.52,-195.78 1206.92,-202.59"/>
</g>
<!-- Node15 -->
<g id="node15" class="node">
<title>Node15</title>
<g id="a_node15"><a xlink:href="itkGPUPDEDeformableRegistrationFilter_8h.html" target="_top" xlink:title=" ">
<polygon fill="white" stroke="black" points="1093.5,-134.5 1093.5,-164.5 1280.5,-164.5 1280.5,-134.5 1093.5,-134.5"/>
<text text-anchor="start" x="1101.5" y="-152.5" font-family="Helvetica,sans-Serif" font-size="10.00">itkGPUPDEDeformableRegistration</text>
<text text-anchor="middle" x="1187" y="-141.5" font-family="Helvetica,sans-Serif" font-size="10.00">Filter.h</text>
</a>
</g>
</g>
<!-- Node14&#45;&gt;Node15 -->
<g id="edge16" class="edge">
<title>Node14&#45;&gt;Node15</title>
<path fill="none" stroke="midnightblue" d="M1249.24,-195.45C1235.39,-185.45 1218.98,-173.6 1206.49,-164.58"/>
<polygon fill="midnightblue" stroke="midnightblue" points="1247.32,-198.38 1257.47,-201.4 1251.41,-192.7 1247.32,-198.38"/>
</g>
<!-- Node16 -->
<g id="node16" class="node">
<title>Node16</title>
<g id="a_node16"><a xlink:href="itkGPUDemonsRegistrationFilter_8h.html" target="_top" xlink:title=" ">
<polygon fill="white" stroke="black" points="1116,-67.5 1116,-97.5 1266,-97.5 1266,-67.5 1116,-67.5"/>
<text text-anchor="start" x="1124" y="-85.5" font-family="Helvetica,sans-Serif" font-size="10.00">itkGPUDemonsRegistration</text>
<text text-anchor="middle" x="1191" y="-74.5" font-family="Helvetica,sans-Serif" font-size="10.00">Filter.h</text>
</a>
</g>
</g>
<!-- Node15&#45;&gt;Node16 -->
<g id="edge17" class="edge">
<title>Node15&#45;&gt;Node16</title>
<path fill="none" stroke="midnightblue" d="M1188.48,-124.4C1189.04,-115.37 1189.65,-105.41 1190.13,-97.58"/>
<polygon fill="midnightblue" stroke="midnightblue" points="1184.99,-124.2 1187.87,-134.4 1191.98,-124.63 1184.99,-124.2"/>
</g>
<!-- Node17&#45;&gt;Node15 -->
<g id="edge27" class="edge">
<title>Node17&#45;&gt;Node15</title>
<path fill="none" stroke="midnightblue" d="M1547.69,-202.14C1469.69,-190.97 1358.96,-175.12 1280.82,-163.93"/>
<polygon fill="midnightblue" stroke="midnightblue" points="1547.6,-205.66 1557.99,-203.62 1548.59,-198.73 1547.6,-205.66"/>
</g>
<!-- Node18 -->
<g id="node18" class="node">
<title>Node18</title>
<g id="a_node18"><a xlink:href="itkCurvatureRegistrationFilter_8h.html" target="_top" xlink:title=" ">
<polygon fill="white" stroke="black" points="1479.5,-134.5 1479.5,-164.5 1616.5,-164.5 1616.5,-134.5 1479.5,-134.5"/>
<text text-anchor="start" x="1487.5" y="-152.5" font-family="Helvetica,sans-Serif" font-size="10.00">itkCurvatureRegistration</text>
<text text-anchor="middle" x="1548" y="-141.5" font-family="Helvetica,sans-Serif" font-size="10.00">Filter.h</text>
</a>
</g>
</g>
<!-- Node17&#45;&gt;Node18 -->
<g id="edge19" class="edge">
<title>Node17&#45;&gt;Node18</title>
<path fill="none" stroke="midnightblue" d="M1612.31,-195.45C1598.01,-185.45 1581.05,-173.6 1568.14,-164.58"/>
<polygon fill="midnightblue" stroke="midnightblue" points="1610.62,-198.54 1620.82,-201.4 1614.63,-192.8 1610.62,-198.54"/>
</g>
<!-- Node19 -->
<g id="node19" class="node">
<title>Node19</title>
<g id="a_node19"><a xlink:href="itkDemonsRegistrationFilter_8h.html" target="_top" xlink:title=" ">
<polygon fill="white" stroke="black" points="1299,-140 1299,-159 1461,-159 1461,-140 1299,-140"/>
<text text-anchor="middle" x="1380" y="-147" font-family="Helvetica,sans-Serif" font-size="10.00">itkDemonsRegistrationFilter.h</text>
</a>
</g>
</g>
<!-- Node17&#45;&gt;Node19 -->
<g id="edge20" class="edge">
<title>Node17&#45;&gt;Node19</title>
<path fill="none" stroke="midnightblue" d="M1574.71,-198.99C1523.56,-186.25 1454.88,-169.15 1414.25,-159.03"/>
<polygon fill="midnightblue" stroke="midnightblue" points="1574.14,-202.46 1584.69,-201.48 1575.83,-195.66 1574.14,-202.46"/>
</g>
<!-- Node21 -->
<g id="node21" class="node">
<title>Node21</title>
<g id="a_node21"><a xlink:href="itkDiffeomorphicDemonsRegistrationFilter_8h.html" target="_top" xlink:title=" ">
<polygon fill="white" stroke="black" points="1635,-134.5 1635,-164.5 1833,-164.5 1833,-134.5 1635,-134.5"/>
<text text-anchor="start" x="1643" y="-152.5" font-family="Helvetica,sans-Serif" font-size="10.00">itkDiffeomorphicDemonsRegistration</text>
<text text-anchor="middle" x="1734" y="-141.5" font-family="Helvetica,sans-Serif" font-size="10.00">Filter.h</text>
</a>
</g>
</g>
<!-- Node17&#45;&gt;Node21 -->
<g id="edge23" class="edge">
<title>Node17&#45;&gt;Node21</title>
<path fill="none" stroke="midnightblue" d="M1669.69,-195.45C1683.99,-185.45 1700.95,-173.6 1713.86,-164.58"/>
<polygon fill="midnightblue" stroke="midnightblue" points="1667.37,-192.8 1661.18,-201.4 1671.38,-198.54 1667.37,-192.8"/>
</g>
<!-- Node22 -->
<g id="node22" class="node">
<title>Node22</title>
<g id="a_node22"><a xlink:href="itkFastSymmetricForcesDemonsRegistrationFilter_8h.html" target="_top" xlink:title=" ">
<polygon fill="white" stroke="black" points="1851,-134.5 1851,-164.5 2025,-164.5 2025,-134.5 1851,-134.5"/>
<text text-anchor="start" x="1859" y="-152.5" font-family="Helvetica,sans-Serif" font-size="10.00">itkFastSymmetricForcesDemons</text>
<text text-anchor="middle" x="1938" y="-141.5" font-family="Helvetica,sans-Serif" font-size="10.00">RegistrationFilter.h</text>
</a>
</g>
</g>
<!-- Node17&#45;&gt;Node22 -->
<g id="edge24" class="edge">
<title>Node17&#45;&gt;Node22</title>
<path fill="none" stroke="midnightblue" d="M1714.95,-199.32C1763.76,-188.63 1827.08,-174.77 1873.78,-164.55"/>
<polygon fill="midnightblue" stroke="midnightblue" points="1714.1,-195.92 1705.08,-201.48 1715.6,-202.76 1714.1,-195.92"/>
</g>
<!-- Node23 -->
<g id="node23" class="node">
<title>Node23</title>
<g id="a_node23"><a xlink:href="itkLevelSetMotionRegistrationFilter_8h.html" target="_top" xlink:title=" ">
<polygon fill="white" stroke="black" points="2043,-134.5 2043,-164.5 2207,-164.5 2207,-134.5 2043,-134.5"/>
<text text-anchor="start" x="2051" y="-152.5" font-family="Helvetica,sans-Serif" font-size="10.00">itkLevelSetMotionRegistration</text>
<text text-anchor="middle" x="2125" y="-141.5" font-family="Helvetica,sans-Serif" font-size="10.00">Filter.h</text>
</a>
</g>
</g>
<!-- Node17&#45;&gt;Node23 -->
<g id="edge25" class="edge">
<title>Node17&#45;&gt;Node23</title>
<path fill="none" stroke="midnightblue" d="M1734.3,-204.32C1813.99,-194.57 1931.65,-179.73 2034,-165 2036.85,-164.59 2039.75,-164.17 2042.68,-163.73"/>
<polygon fill="midnightblue" stroke="midnightblue" points="1733.79,-200.85 1724.28,-205.54 1734.63,-207.8 1733.79,-200.85"/>
</g>
<!-- Node24 -->
<g id="node24" class="node">
<title>Node24</title>
<g id="a_node24"><a xlink:href="itkSymmetricForcesDemonsRegistrationFilter_8h.html" target="_top" xlink:title=" ">
<polygon fill="white" stroke="black" points="2225.5,-134.5 2225.5,-164.5 2380.5,-164.5 2380.5,-134.5 2225.5,-134.5"/>
<text text-anchor="start" x="2233.5" y="-152.5" font-family="Helvetica,sans-Serif" font-size="10.00">itkSymmetricForcesDemons</text>
<text text-anchor="middle" x="2303" y="-141.5" font-family="Helvetica,sans-Serif" font-size="10.00">RegistrationFilter.h</text>
</a>
</g>
</g>
<!-- Node17&#45;&gt;Node24 -->
<g id="edge26" class="edge">
<title>Node17&#45;&gt;Node24</title>
<path fill="none" stroke="midnightblue" d="M1734.14,-209.55C1848.06,-201.76 2046.64,-186.52 2216,-165 2219.04,-164.61 2222.13,-164.2 2225.26,-163.76"/>
<polygon fill="midnightblue" stroke="midnightblue" points="1733.8,-206.07 1724.06,-210.24 1734.27,-213.05 1733.8,-206.07"/>
</g>
<!-- Node19&#45;&gt;Node16 -->
<g id="edge22" class="edge">
<title>Node19&#45;&gt;Node16</title>
<path fill="none" stroke="midnightblue" d="M1345.08,-136.49C1313.04,-125.47 1265.56,-109.14 1231.79,-97.53"/>
<polygon fill="midnightblue" stroke="midnightblue" points="1344.31,-139.93 1354.9,-139.87 1346.58,-133.31 1344.31,-139.93"/>
</g>
<!-- Node20 -->
<g id="node20" class="node">
<title>Node20</title>
<g id="a_node20"><a xlink:href="itkMultiResolutionPDEDeformableRegistration_8h.html" target="_top" xlink:title=" ">
<polygon fill="white" stroke="black" points="1288.5,-67.5 1288.5,-97.5 1471.5,-97.5 1471.5,-67.5 1288.5,-67.5"/>
<text text-anchor="start" x="1296.5" y="-85.5" font-family="Helvetica,sans-Serif" font-size="10.00">itkMultiResolutionPDEDeformable</text>
<text text-anchor="middle" x="1380" y="-74.5" font-family="Helvetica,sans-Serif" font-size="10.00">Registration.h</text>
</a>
</g>
</g>
<!-- Node19&#45;&gt;Node20 -->
<g id="edge21" class="edge">
<title>Node19&#45;&gt;Node20</title>
<path fill="none" stroke="midnightblue" d="M1380,-129.41C1380,-119.22 1380,-106.9 1380,-97.59"/>
<polygon fill="midnightblue" stroke="midnightblue" points="1376.5,-129.73 1380,-139.73 1383.5,-129.73 1376.5,-129.73"/>
</g>
<!-- Node25&#45;&gt;Node2 -->
<g id="edge29" class="edge">
<title>Node25&#45;&gt;Node2</title>
<path fill="none" stroke="midnightblue" d="M2455.94,-344.71C2253.65,-332.47 1719.88,-300.17 1529.59,-288.65"/>
<polygon fill="midnightblue" stroke="midnightblue" points="2455.99,-348.22 2466.18,-345.34 2456.41,-341.24 2455.99,-348.22"/>
</g>
<!-- Node25&#45;&gt;Node26 -->
<g id="edge30" class="edge">
<title>Node25&#45;&gt;Node26</title>
<path fill="none" stroke="midnightblue" d="M2493.21,-331.27C2469.48,-320.92 2440.22,-308.15 2418.27,-298.58"/>
<polygon fill="midnightblue" stroke="midnightblue" points="2492.1,-334.61 2502.67,-335.4 2494.9,-328.19 2492.1,-334.61"/>
</g>
<!-- Node25&#45;&gt;Node32 -->
<g id="edge36" class="edge">
<title>Node25&#45;&gt;Node32</title>
<path fill="none" stroke="midnightblue" d="M2585.35,-332.09C2615.7,-321.6 2653.85,-308.41 2682.29,-298.58"/>
<polygon fill="midnightblue" stroke="midnightblue" points="2584.1,-328.82 2575.79,-335.4 2586.39,-335.44 2584.1,-328.82"/>
</g>
<!-- Node36 -->
<g id="node36" class="node">
<title>Node36</title>
<g id="a_node36"><a xlink:href="itkSparseFieldLevelSetImageFilter_8h.html" target="_top" xlink:title=" ">
<polygon fill="white" stroke="black" points="2474,-268.5 2474,-298.5 2632,-298.5 2632,-268.5 2474,-268.5"/>
<text text-anchor="start" x="2482" y="-286.5" font-family="Helvetica,sans-Serif" font-size="10.00">itkSparseFieldLevelSetImage</text>
<text text-anchor="middle" x="2553" y="-275.5" font-family="Helvetica,sans-Serif" font-size="10.00">Filter.h</text>
</a>
</g>
</g>
<!-- Node25&#45;&gt;Node36 -->
<g id="edge40" class="edge">
<title>Node25&#45;&gt;Node36</title>
<path fill="none" stroke="midnightblue" d="M2541.59,-325.7C2544.11,-316.59 2546.91,-306.49 2549.1,-298.58"/>
<polygon fill="midnightblue" stroke="midnightblue" points="2538.2,-324.82 2538.91,-335.4 2544.95,-326.69 2538.2,-324.82"/>
</g>
<!-- Node25&#45;&gt;Node48 -->
<g id="edge53" class="edge">
<title>Node25&#45;&gt;Node48</title>
<path fill="none" stroke="midnightblue" d="M2614.04,-334.95C2673.8,-323.94 2755.25,-308.94 2813.79,-298.16"/>
<polygon fill="midnightblue" stroke="midnightblue" points="2613.1,-331.56 2603.9,-336.81 2614.37,-338.44 2613.1,-331.56"/>
</g>
<!-- Node49 -->
<g id="node49" class="node">
<title>Node49</title>
<g id="a_node49"><a xlink:href="itkGPUFiniteDifferenceImageFilter_8h.html" target="_top" xlink:title=" ">
<polygon fill="white" stroke="black" points="1839,-268.5 1839,-298.5 1997,-298.5 1997,-268.5 1839,-268.5"/>
<text text-anchor="start" x="1847" y="-286.5" font-family="Helvetica,sans-Serif" font-size="10.00">itkGPUFiniteDifferenceImage</text>
<text text-anchor="middle" x="1918" y="-275.5" font-family="Helvetica,sans-Serif" font-size="10.00">Filter.h</text>
</a>
</g>
</g>
<!-- Node25&#45;&gt;Node49 -->
<g id="edge54" class="edge">
<title>Node25&#45;&gt;Node49</title>
<path fill="none" stroke="midnightblue" d="M2456.25,-341.2C2338,-328.75 2115.84,-305.34 1997.29,-292.85"/>
<polygon fill="midnightblue" stroke="midnightblue" points="2456,-344.7 2466.32,-342.26 2456.74,-337.74 2456,-344.7"/>
</g>
<!-- Node27 -->
<g id="node27" class="node">
<title>Node27</title>
<g id="a_node27"><a xlink:href="itkImplicitManifoldNormalVectorFilter_8h.html" target="_top" xlink:title=" ">
<polygon fill="white" stroke="black" points="2330.5,-201.5 2330.5,-231.5 2475.5,-231.5 2475.5,-201.5 2330.5,-201.5"/>
<text text-anchor="start" x="2338.5" y="-219.5" font-family="Helvetica,sans-Serif" font-size="10.00">itkImplicitManifoldNormal</text>
<text text-anchor="middle" x="2403" y="-208.5" font-family="Helvetica,sans-Serif" font-size="10.00">VectorFilter.h</text>
</a>
</g>
</g>
<!-- Node26&#45;&gt;Node27 -->
<g id="edge31" class="edge">
<title>Node26&#45;&gt;Node27</title>
<path fill="none" stroke="midnightblue" d="M2392.23,-258.7C2394.61,-249.59 2397.25,-239.49 2399.32,-231.58"/>
<polygon fill="midnightblue" stroke="midnightblue" points="2388.83,-257.84 2389.69,-268.4 2395.61,-259.61 2388.83,-257.84"/>
</g>
<!-- Node28 -->
<g id="node28" class="node">
<title>Node28</title>
<g id="a_node28"><a xlink:href="itkSparseFieldFourthOrderLevelSetImageFilter_8h.html" target="_top" xlink:title=" ">
<polygon fill="white" stroke="black" points="2398.5,-134.5 2398.5,-164.5 2541.5,-164.5 2541.5,-134.5 2398.5,-134.5"/>
<text text-anchor="start" x="2406.5" y="-152.5" font-family="Helvetica,sans-Serif" font-size="10.00">itkSparseFieldFourthOrder</text>
<text text-anchor="middle" x="2470" y="-141.5" font-family="Helvetica,sans-Serif" font-size="10.00">LevelSetImageFilter.h</text>
</a>
</g>
</g>
<!-- Node27&#45;&gt;Node28 -->
<g id="edge32" class="edge">
<title>Node27&#45;&gt;Node28</title>
<path fill="none" stroke="midnightblue" d="M2424.84,-194.31C2434.89,-184.56 2446.54,-173.26 2455.49,-164.58"/>
<polygon fill="midnightblue" stroke="midnightblue" points="2422.28,-191.92 2417.54,-201.4 2427.15,-196.94 2422.28,-191.92"/>
</g>
<!-- Node29 -->
<g id="node29" class="node">
<title>Node29</title>
<g id="a_node29"><a xlink:href="itkAnisotropicFourthOrderLevelSetImageFilter_8h.html" target="_top" xlink:title=" ">
<polygon fill="white" stroke="black" points="2232,-67.5 2232,-97.5 2374,-97.5 2374,-67.5 2232,-67.5"/>
<text text-anchor="start" x="2240" y="-85.5" font-family="Helvetica,sans-Serif" font-size="10.00">itkAnisotropicFourthOrder</text>
<text text-anchor="middle" x="2303" y="-74.5" font-family="Helvetica,sans-Serif" font-size="10.00">LevelSetImageFilter.h</text>
</a>
</g>
</g>
<!-- Node28&#45;&gt;Node29 -->
<g id="edge33" class="edge">
<title>Node28&#45;&gt;Node29</title>
<path fill="none" stroke="midnightblue" d="M2424.22,-130.68C2397.44,-120.26 2364.1,-107.28 2339.17,-97.58"/>
<polygon fill="midnightblue" stroke="midnightblue" points="2423.17,-134.03 2433.76,-134.4 2425.71,-127.51 2423.17,-134.03"/>
</g>
<!-- Node30 -->
<g id="node30" class="node">
<title>Node30</title>
<g id="a_node30"><a xlink:href="itkIsotropicFourthOrderLevelSetImageFilter_8h.html" target="_top" xlink:title=" ">
<polygon fill="white" stroke="black" points="2392.5,-67.5 2392.5,-97.5 2547.5,-97.5 2547.5,-67.5 2392.5,-67.5"/>
<text text-anchor="start" x="2400.5" y="-85.5" font-family="Helvetica,sans-Serif" font-size="10.00">itkIsotropicFourthOrderLevel</text>
<text text-anchor="middle" x="2470" y="-74.5" font-family="Helvetica,sans-Serif" font-size="10.00">SetImageFilter.h</text>
</a>
</g>
</g>
<!-- Node28&#45;&gt;Node30 -->
<g id="edge34" class="edge">
<title>Node28&#45;&gt;Node30</title>
<path fill="none" stroke="midnightblue" d="M2470,-124.11C2470,-115.15 2470,-105.32 2470,-97.58"/>
<polygon fill="midnightblue" stroke="midnightblue" points="2466.5,-124.4 2470,-134.4 2473.5,-124.4 2466.5,-124.4"/>
</g>
<!-- Node31 -->
<g id="node31" class="node">
<title>Node31</title>
<g id="a_node31"><a xlink:href="itkUnsharpMaskLevelSetImageFilter_8h.html" target="_top" xlink:title=" ">
<polygon fill="white" stroke="black" points="2565.5,-67.5 2565.5,-97.5 2734.5,-97.5 2734.5,-67.5 2565.5,-67.5"/>
<text text-anchor="start" x="2573.5" y="-85.5" font-family="Helvetica,sans-Serif" font-size="10.00">itkUnsharpMaskLevelSetImage</text>
<text text-anchor="middle" x="2650" y="-74.5" font-family="Helvetica,sans-Serif" font-size="10.00">Filter.h</text>
</a>
</g>
</g>
<!-- Node28&#45;&gt;Node31 -->
<g id="edge35" class="edge">
<title>Node28&#45;&gt;Node31</title>
<path fill="none" stroke="midnightblue" d="M2518.59,-130.96C2547.58,-120.48 2583.91,-107.37 2611.02,-97.58"/>
<polygon fill="midnightblue" stroke="midnightblue" points="2517.27,-127.71 2509.06,-134.4 2519.65,-134.29 2517.27,-127.71"/>
</g>
<!-- Node33 -->
<g id="node33" class="node">
<title>Node33</title>
<g id="a_node33"><a xlink:href="itkNarrowBandLevelSetImageFilter_8h.html" target="_top" xlink:title=" ">
<polygon fill="white" stroke="black" points="3930,-201.5 3930,-231.5 4092,-231.5 4092,-201.5 3930,-201.5"/>
<text text-anchor="start" x="3938" y="-219.5" font-family="Helvetica,sans-Serif" font-size="10.00">itkNarrowBandLevelSetImage</text>
<text text-anchor="middle" x="4011" y="-208.5" font-family="Helvetica,sans-Serif" font-size="10.00">Filter.h</text>
</a>
</g>
</g>
<!-- Node32&#45;&gt;Node33 -->
<g id="edge37" class="edge">
<title>Node32&#45;&gt;Node33</title>
<path fill="none" stroke="midnightblue" d="M2805.76,-268.05C3042.82,-243.64 3699.25,-225.35 3929.78,-219.49"/>
<polygon fill="midnightblue" stroke="midnightblue" points="2805.38,-264.57 2795.81,-269.11 2806.12,-271.53 2805.38,-264.57"/>
</g>
<!-- Node34 -->
<g id="node34" class="node">
<title>Node34</title>
<g id="a_node34"><a xlink:href="itkNarrowBandCurvesLevelSetImageFilter_8h.html" target="_top" xlink:title=" ">
<polygon fill="white" stroke="black" points="3936.5,-134.5 3936.5,-164.5 4085.5,-164.5 4085.5,-134.5 3936.5,-134.5"/>
<text text-anchor="start" x="3944.5" y="-152.5" font-family="Helvetica,sans-Serif" font-size="10.00">itkNarrowBandCurvesLevel</text>
<text text-anchor="middle" x="4011" y="-141.5" font-family="Helvetica,sans-Serif" font-size="10.00">SetImageFilter.h</text>
</a>
</g>
</g>
<!-- Node33&#45;&gt;Node34 -->
<g id="edge38" class="edge">
<title>Node33&#45;&gt;Node34</title>
<path fill="none" stroke="midnightblue" d="M4011,-191.11C4011,-182.15 4011,-172.32 4011,-164.58"/>
<polygon fill="midnightblue" stroke="midnightblue" points="4007.5,-191.4 4011,-201.4 4014.5,-191.4 4007.5,-191.4"/>
</g>
<!-- Node35 -->
<g id="node35" class="node">
<title>Node35</title>
<g id="a_node35"><a xlink:href="itkNarrowBandThresholdSegmentationLevelSetImageFilter_8h.html" target="_top" xlink:title=" ">
<polygon fill="white" stroke="black" points="4104,-134.5 4104,-164.5 4310,-164.5 4310,-134.5 4104,-134.5"/>
<text text-anchor="start" x="4112" y="-152.5" font-family="Helvetica,sans-Serif" font-size="10.00">itkNarrowBandThresholdSegmentation</text>
<text text-anchor="middle" x="4207" y="-141.5" font-family="Helvetica,sans-Serif" font-size="10.00">LevelSetImageFilter.h</text>
</a>
</g>
</g>
<!-- Node33&#45;&gt;Node35 -->
<g id="edge39" class="edge">
<title>Node33&#45;&gt;Node35</title>
<path fill="none" stroke="midnightblue" d="M4063.08,-198.23C4094.79,-187.71 4134.78,-174.45 4164.55,-164.58"/>
<polygon fill="midnightblue" stroke="midnightblue" points="4061.92,-194.93 4053.53,-201.4 4064.12,-201.57 4061.92,-194.93"/>
</g>
<!-- Node36&#45;&gt;Node28 -->
<g id="edge41" class="edge">
<title>Node36&#45;&gt;Node28</title>
<path fill="none" stroke="midnightblue" d="M2538.75,-259.83C2521.54,-232.47 2493.13,-187.28 2478.82,-164.52"/>
<polygon fill="midnightblue" stroke="midnightblue" points="2535.83,-261.77 2544.12,-268.37 2541.76,-258.05 2535.83,-261.77"/>
</g>
<!-- Node37 -->
<g id="node37" class="node">
<title>Node37</title>
<g id="a_node37"><a xlink:href="itkSegmentationLevelSetImageFilter_8h.html" target="_top" xlink:title=" ">
<polygon fill="white" stroke="black" points="2988,-201.5 2988,-231.5 3158,-231.5 3158,-201.5 2988,-201.5"/>
<text text-anchor="start" x="2996" y="-219.5" font-family="Helvetica,sans-Serif" font-size="10.00">itkSegmentationLevelSetImage</text>
<text text-anchor="middle" x="3073" y="-208.5" font-family="Helvetica,sans-Serif" font-size="10.00">Filter.h</text>
</a>
</g>
</g>
<!-- Node36&#45;&gt;Node37 -->
<g id="edge42" class="edge">
<title>Node36&#45;&gt;Node37</title>
<path fill="none" stroke="midnightblue" d="M2641.69,-268.04C2641.8,-268.03 2641.9,-268.01 2642,-268 2761.75,-251.24 2900.76,-235.64 2987.81,-226.34"/>
<polygon fill="midnightblue" stroke="midnightblue" points="2641.47,-264.54 2632.07,-269.43 2642.47,-271.47 2641.47,-264.54"/>
</g>
<!-- Node47 -->
<g id="node47" class="node">
<title>Node47</title>
<g id="a_node47"><a xlink:href="itkAntiAliasBinaryImageFilter_8h.html" target="_top" xlink:title=" ">
<polygon fill="white" stroke="black" points="3176,-207 3176,-226 3344,-226 3344,-207 3176,-207"/>
<text text-anchor="middle" x="3260" y="-214" font-family="Helvetica,sans-Serif" font-size="10.00">itkAntiAliasBinaryImageFilter.h</text>
</a>
</g>
</g>
<!-- Node36&#45;&gt;Node47 -->
<g id="edge52" class="edge">
<title>Node36&#45;&gt;Node47</title>
<path fill="none" stroke="midnightblue" d="M2641.69,-268.04C2641.8,-268.02 2641.9,-268.01 2642,-268 2874.34,-241.17 2934.57,-258.04 3167,-232 3181.13,-230.42 3196.39,-228.24 3210.39,-226.04"/>
<polygon fill="midnightblue" stroke="midnightblue" points="2641.54,-264.53 2632.05,-269.23 2642.4,-271.47 2641.54,-264.53"/>
</g>
<!-- Node38 -->
<g id="node38" class="node">
<title>Node38</title>
<g id="a_node38"><a xlink:href="itkCannySegmentationLevelSetImageFilter_8h.html" target="_top" xlink:title=" ">
<polygon fill="white" stroke="black" points="2559.5,-134.5 2559.5,-164.5 2714.5,-164.5 2714.5,-134.5 2559.5,-134.5"/>
<text text-anchor="start" x="2567.5" y="-152.5" font-family="Helvetica,sans-Serif" font-size="10.00">itkCannySegmentationLevel</text>
<text text-anchor="middle" x="2637" y="-141.5" font-family="Helvetica,sans-Serif" font-size="10.00">SetImageFilter.h</text>
</a>
</g>
</g>
<!-- Node37&#45;&gt;Node38 -->
<g id="edge43" class="edge">
<title>Node37&#45;&gt;Node38</title>
<path fill="none" stroke="midnightblue" d="M2977.79,-202.28C2907.58,-192.4 2809.77,-178.35 2724,-165 2720.97,-164.53 2717.89,-164.04 2714.77,-163.55"/>
<polygon fill="midnightblue" stroke="midnightblue" points="2977.55,-205.79 2987.94,-203.71 2978.53,-198.85 2977.55,-205.79"/>
</g>
<!-- Node39 -->
<g id="node39" class="node">
<title>Node39</title>
<g id="a_node39"><a xlink:href="itkCurvesLevelSetImageFilter_8h.html" target="_top" xlink:title=" ">
<polygon fill="white" stroke="black" points="2732.5,-140 2732.5,-159 2901.5,-159 2901.5,-140 2732.5,-140"/>
<text text-anchor="middle" x="2817" y="-147" font-family="Helvetica,sans-Serif" font-size="10.00">itkCurvesLevelSetImageFilter.h</text>
</a>
</g>
</g>
<!-- Node37&#45;&gt;Node39 -->
<g id="edge44" class="edge">
<title>Node37&#45;&gt;Node39</title>
<path fill="none" stroke="midnightblue" d="M3007.98,-198.99C2957.81,-186.25 2890.45,-169.15 2850.59,-159.03"/>
<polygon fill="midnightblue" stroke="midnightblue" points="3007.21,-202.41 3017.77,-201.48 3008.94,-195.62 3007.21,-202.41"/>
</g>
<!-- Node40 -->
<g id="node40" class="node">
<title>Node40</title>
<g id="a_node40"><a xlink:href="itkGeodesicActiveContourLevelSetImageFilter_8h.html" target="_top" xlink:title=" ">
<polygon fill="white" stroke="black" points="2919.5,-134.5 2919.5,-164.5 3062.5,-164.5 3062.5,-134.5 2919.5,-134.5"/>
<text text-anchor="start" x="2927.5" y="-152.5" font-family="Helvetica,sans-Serif" font-size="10.00">itkGeodesicActiveContour</text>
<text text-anchor="middle" x="2991" y="-141.5" font-family="Helvetica,sans-Serif" font-size="10.00">LevelSetImageFilter.h</text>
</a>
</g>
</g>
<!-- Node37&#45;&gt;Node40 -->
<g id="edge45" class="edge">
<title>Node37&#45;&gt;Node40</title>
<path fill="none" stroke="midnightblue" d="M3047.35,-195.17C3034.81,-185.23 3020.03,-173.51 3008.76,-164.58"/>
<polygon fill="midnightblue" stroke="midnightblue" points="3045.2,-197.93 3055.21,-201.4 3049.54,-192.44 3045.2,-197.93"/>
</g>
<!-- Node41 -->
<g id="node41" class="node">
<title>Node41</title>
<g id="a_node41"><a xlink:href="itkShapePriorSegmentationLevelSetImageFilter_8h.html" target="_top" xlink:title=" ">
<polygon fill="white" stroke="black" points="3081,-134.5 3081,-164.5 3231,-164.5 3231,-134.5 3081,-134.5"/>
<text text-anchor="start" x="3089" y="-152.5" font-family="Helvetica,sans-Serif" font-size="10.00">itkShapePriorSegmentation</text>
<text text-anchor="middle" x="3156" y="-141.5" font-family="Helvetica,sans-Serif" font-size="10.00">LevelSetImageFilter.h</text>
</a>
</g>
</g>
<!-- Node37&#45;&gt;Node41 -->
<g id="edge46" class="edge">
<title>Node37&#45;&gt;Node41</title>
<path fill="none" stroke="midnightblue" d="M3098.96,-195.17C3111.65,-185.23 3126.61,-173.51 3138.03,-164.58"/>
<polygon fill="midnightblue" stroke="midnightblue" points="3096.72,-192.47 3091.01,-201.4 3101.04,-197.99 3096.72,-192.47"/>
</g>
<!-- Node43 -->
<g id="node43" class="node">
<title>Node43</title>
<g id="a_node43"><a xlink:href="itkLaplacianSegmentationLevelSetImageFilter_8h.html" target="_top" xlink:title=" ">
<polygon fill="white" stroke="black" points="3249,-134.5 3249,-164.5 3393,-164.5 3393,-134.5 3249,-134.5"/>
<text text-anchor="start" x="3257" y="-152.5" font-family="Helvetica,sans-Serif" font-size="10.00">itkLaplacianSegmentation</text>
<text text-anchor="middle" x="3321" y="-141.5" font-family="Helvetica,sans-Serif" font-size="10.00">LevelSetImageFilter.h</text>
</a>
</g>
</g>
<!-- Node37&#45;&gt;Node43 -->
<g id="edge48" class="edge">
<title>Node37&#45;&gt;Node43</title>
<path fill="none" stroke="midnightblue" d="M3136.27,-198.92C3176.74,-188.31 3228.67,-174.7 3267.16,-164.61"/>
<polygon fill="midnightblue" stroke="midnightblue" points="3135.29,-195.55 3126.51,-201.48 3137.07,-202.33 3135.29,-195.55"/>
</g>
<!-- Node44 -->
<g id="node44" class="node">
<title>Node44</title>
<g id="a_node44"><a xlink:href="itkShapeDetectionLevelSetImageFilter_8h.html" target="_top" xlink:title=" ">
<polygon fill="white" stroke="black" points="3411.5,-134.5 3411.5,-164.5 3560.5,-164.5 3560.5,-134.5 3411.5,-134.5"/>
<text text-anchor="start" x="3419.5" y="-152.5" font-family="Helvetica,sans-Serif" font-size="10.00">itkShapeDetectionLevelSet</text>
<text text-anchor="middle" x="3486" y="-141.5" font-family="Helvetica,sans-Serif" font-size="10.00">ImageFilter.h</text>
</a>
</g>
</g>
<!-- Node37&#45;&gt;Node44 -->
<g id="edge49" class="edge">
<title>Node37&#45;&gt;Node44</title>
<path fill="none" stroke="midnightblue" d="M3168.12,-200.83C3273.1,-184.75 3300.87,-181.47 3402,-165 3405.07,-164.5 3408.2,-163.99 3411.36,-163.46"/>
<polygon fill="midnightblue" stroke="midnightblue" points="3167.41,-197.4 3158.05,-202.38 3168.47,-204.32 3167.41,-197.4"/>
</g>
<!-- Node45 -->
<g id="node45" class="node">
<title>Node45</title>
<g id="a_node45"><a xlink:href="itkThresholdSegmentationLevelSetImageFilter_8h.html" target="_top" xlink:title=" ">
<polygon fill="white" stroke="black" points="3579,-134.5 3579,-164.5 3725,-164.5 3725,-134.5 3579,-134.5"/>
<text text-anchor="start" x="3587" y="-152.5" font-family="Helvetica,sans-Serif" font-size="10.00">itkThresholdSegmentation</text>
<text text-anchor="middle" x="3652" y="-141.5" font-family="Helvetica,sans-Serif" font-size="10.00">LevelSetImageFilter.h</text>
</a>
</g>
</g>
<!-- Node37&#45;&gt;Node45 -->
<g id="edge50" class="edge">
<title>Node37&#45;&gt;Node45</title>
<path fill="none" stroke="midnightblue" d="M3168.05,-200.93C3347.22,-179.61 3394.96,-188.25 3570,-165 3572.87,-164.62 3575.79,-164.21 3578.73,-163.78"/>
<polygon fill="midnightblue" stroke="midnightblue" points="3167.53,-197.46 3158.02,-202.14 3168.37,-204.41 3167.53,-197.46"/>
</g>
<!-- Node46 -->
<g id="node46" class="node">
<title>Node46</title>
<g id="a_node46"><a xlink:href="itkVectorThresholdSegmentationLevelSetImageFilter_8h.html" target="_top" xlink:title=" ">
<polygon fill="white" stroke="black" points="3743,-134.5 3743,-164.5 3919,-164.5 3919,-134.5 3743,-134.5"/>
<text text-anchor="start" x="3751" y="-152.5" font-family="Helvetica,sans-Serif" font-size="10.00">itkVectorThresholdSegmentation</text>
<text text-anchor="middle" x="3831" y="-141.5" font-family="Helvetica,sans-Serif" font-size="10.00">LevelSetImageFilter.h</text>
</a>
</g>
</g>
<!-- Node37&#45;&gt;Node46 -->
<g id="edge51" class="edge">
<title>Node37&#45;&gt;Node46</title>
<path fill="none" stroke="midnightblue" d="M3168.19,-200.94C3419.77,-174.19 3486.22,-191.34 3734,-165 3736.88,-164.69 3739.8,-164.36 3742.75,-164.02"/>
<polygon fill="midnightblue" stroke="midnightblue" points="3167.58,-197.49 3158.01,-202.04 3168.33,-204.45 3167.58,-197.49"/>
</g>
<!-- Node42 -->
<g id="node42" class="node">
<title>Node42</title>
<g id="a_node42"><a xlink:href="itkGeodesicActiveContourShapePriorLevelSetImageFilter_8h.html" target="_top" xlink:title=" ">
<polygon fill="white" stroke="black" points="3068.5,-67.5 3068.5,-97.5 3243.5,-97.5 3243.5,-67.5 3068.5,-67.5"/>
<text text-anchor="start" x="3076.5" y="-85.5" font-family="Helvetica,sans-Serif" font-size="10.00">itkGeodesicActiveContour</text>
<text text-anchor="middle" x="3156" y="-74.5" font-family="Helvetica,sans-Serif" font-size="10.00">ShapePriorLevelSetImageFilter.h</text>
</a>
</g>
</g>
<!-- Node41&#45;&gt;Node42 -->
<g id="edge47" class="edge">
<title>Node41&#45;&gt;Node42</title>
<path fill="none" stroke="midnightblue" d="M3156,-124.11C3156,-115.15 3156,-105.32 3156,-97.58"/>
<polygon fill="midnightblue" stroke="midnightblue" points="3152.5,-124.4 3156,-134.4 3159.5,-124.4 3152.5,-124.4"/>
</g>
<!-- Node49&#45;&gt;Node14 -->
<g id="edge55" class="edge">
<title>Node49&#45;&gt;Node14</title>
<path fill="none" stroke="midnightblue" d="M1828.78,-273.45C1703.11,-260.71 1475.97,-237.68 1356.06,-225.52"/>
<polygon fill="midnightblue" stroke="midnightblue" points="1828.46,-276.94 1838.76,-274.46 1829.16,-269.97 1828.46,-276.94"/>
</g>
</g>
</svg>
