<?xml version="1.0" encoding="UTF-8" standalone="no"?>
<!DOCTYPE svg PUBLIC "-//W3C//DTD SVG 1.1//EN"
 "http://www.w3.org/Graphics/SVG/1.1/DTD/svg11.dtd">
<!-- Generated by graphviz version 2.43.0 (0)
 -->
<!-- Title: itkCellInterface.h Pages: 1 -->
<svg width="1485pt" height="666pt"
 viewBox="0.00 0.00 1484.50 666.00" xmlns="http://www.w3.org/2000/svg" xmlns:xlink="http://www.w3.org/1999/xlink">
<g id="graph0" class="graph" transform="scale(1 1) rotate(0) translate(4 662)">
<title>itkCellInterface.h</title>
<polygon fill="white" stroke="transparent" points="-4,4 -4,-662 1480.5,-662 1480.5,4 -4,4"/>
<!-- Node1 -->
<g id="node1" class="node">
<title>Node1</title>
<g id="a_node1"><a xlink:title=" ">
<polygon fill="#bfbfbf" stroke="black" points="642.5,-638.5 642.5,-657.5 743.5,-657.5 743.5,-638.5 642.5,-638.5"/>
<text text-anchor="middle" x="693" y="-645.5" font-family="Helvetica,sans-Serif" font-size="10.00">itkCellInterface.h</text>
</a>
</g>
</g>
<!-- Node2 -->
<g id="node2" class="node">
<title>Node2</title>
<g id="a_node2"><a xlink:href="itkObject_8h.html" target="_top" xlink:title=" ">
<polygon fill="white" stroke="black" points="337,-336.5 337,-355.5 407,-355.5 407,-336.5 337,-336.5"/>
<text text-anchor="middle" x="372" y="-343.5" font-family="Helvetica,sans-Serif" font-size="10.00">itkObject.h</text>
</a>
</g>
</g>
<!-- Node1&#45;&gt;Node2 -->
<g id="edge1" class="edge">
<title>Node1&#45;&gt;Node2</title>
<path fill="none" stroke="midnightblue" d="M642.58,-638.47C553.36,-621.95 377,-582.18 377,-526 377,-526 377,-526 377,-457 377,-424.91 374.85,-387.62 373.37,-365.74"/>
<polygon fill="midnightblue" stroke="midnightblue" points="376.85,-365.28 372.65,-355.55 369.86,-365.77 376.85,-365.28"/>
</g>
<!-- Node23 -->
<g id="node23" class="node">
<title>Node23</title>
<g id="a_node23"><a xlink:title=" ">
<polygon fill="white" stroke="#bfbfbf" points="143,-224.5 143,-243.5 181,-243.5 181,-224.5 143,-224.5"/>
<text text-anchor="middle" x="162" y="-231.5" font-family="Helvetica,sans-Serif" font-size="10.00">map</text>
</a>
</g>
</g>
<!-- Node1&#45;&gt;Node23 -->
<g id="edge60" class="edge">
<title>Node1&#45;&gt;Node23</title>
<path fill="none" stroke="midnightblue" d="M642.21,-645.8C512.28,-641.35 178,-620.71 178,-526 178,-526 178,-526 178,-345 178,-312.63 171.13,-275.44 166.39,-253.66"/>
<polygon fill="midnightblue" stroke="midnightblue" points="169.78,-252.76 164.16,-243.78 162.95,-254.3 169.78,-252.76"/>
</g>
<!-- Node27 -->
<g id="node27" class="node">
<title>Node27</title>
<g id="a_node27"><a xlink:href="itkCellInterfaceVisitor_8h.html" target="_top" xlink:title=" ">
<polygon fill="white" stroke="black" points="627.5,-582.5 627.5,-601.5 758.5,-601.5 758.5,-582.5 627.5,-582.5"/>
<text text-anchor="middle" x="693" y="-589.5" font-family="Helvetica,sans-Serif" font-size="10.00">itkCellInterfaceVisitor.h</text>
</a>
</g>
</g>
<!-- Node1&#45;&gt;Node27 -->
<g id="edge37" class="edge">
<title>Node1&#45;&gt;Node27</title>
<path fill="none" stroke="midnightblue" d="M693,-638.08C693,-631.01 693,-620.86 693,-611.99"/>
<polygon fill="midnightblue" stroke="midnightblue" points="696.5,-611.75 693,-601.75 689.5,-611.75 696.5,-611.75"/>
</g>
<!-- Node31 -->
<g id="node31" class="node">
<title>Node31</title>
<g id="a_node31"><a xlink:href="itkCommonEnums_8h.html" target="_top" xlink:title=" ">
<polygon fill="white" stroke="black" points="797,-392.5 797,-411.5 913,-411.5 913,-392.5 797,-392.5"/>
<text text-anchor="middle" x="855" y="-399.5" font-family="Helvetica,sans-Serif" font-size="10.00">itkCommonEnums.h</text>
</a>
</g>
</g>
<!-- Node1&#45;&gt;Node31 -->
<g id="edge59" class="edge">
<title>Node1&#45;&gt;Node31</title>
<path fill="none" stroke="midnightblue" d="M743.68,-646.82C878.78,-645.16 1242.33,-632.58 1316,-546 1425.49,-417.33 1076.58,-402.64 923.4,-402.2"/>
<polygon fill="midnightblue" stroke="midnightblue" points="923.16,-398.7 913.15,-402.19 923.15,-405.7 923.16,-398.7"/>
</g>
<!-- Node34 -->
<g id="node34" class="node">
<title>Node34</title>
<g id="a_node34"><a xlink:href="itkAutoPointer_8h.html" target="_top" xlink:title=" ">
<polygon fill="white" stroke="black" points="21.5,-112.5 21.5,-131.5 116.5,-131.5 116.5,-112.5 21.5,-112.5"/>
<text text-anchor="middle" x="69" y="-119.5" font-family="Helvetica,sans-Serif" font-size="10.00">itkAutoPointer.h</text>
</a>
</g>
</g>
<!-- Node1&#45;&gt;Node34 -->
<g id="edge50" class="edge">
<title>Node1&#45;&gt;Node34</title>
<path fill="none" stroke="midnightblue" d="M642.2,-645.82C556.09,-642.98 376.36,-633.49 228,-602 123.51,-579.83 0,-632.81 0,-526 0,-526 0,-526 0,-233 0,-202.9 2.98,-193.48 19,-168 26.31,-156.38 37.45,-145.94 47.36,-138.05"/>
<polygon fill="midnightblue" stroke="midnightblue" points="49.76,-140.62 55.63,-131.81 45.54,-135.04 49.76,-140.62"/>
</g>
<!-- Node35 -->
<g id="node35" class="node">
<title>Node35</title>
<g id="a_node35"><a xlink:href="itkArray_8h.html" target="_top" xlink:title=" ">
<polygon fill="white" stroke="black" points="883.5,-582.5 883.5,-601.5 946.5,-601.5 946.5,-582.5 883.5,-582.5"/>
<text text-anchor="middle" x="915" y="-589.5" font-family="Helvetica,sans-Serif" font-size="10.00">itkArray.h</text>
</a>
</g>
</g>
<!-- Node1&#45;&gt;Node35 -->
<g id="edge53" class="edge">
<title>Node1&#45;&gt;Node35</title>
<path fill="none" stroke="midnightblue" d="M728.18,-638.44C767.6,-628.86 831.45,-613.32 873.34,-603.13"/>
<polygon fill="midnightblue" stroke="midnightblue" points="874.34,-606.49 883.23,-600.73 872.68,-599.69 874.34,-606.49"/>
</g>
<!-- Node40 -->
<g id="node40" class="node">
<title>Node40</title>
<g id="a_node40"><a xlink:title=" ">
<polygon fill="white" stroke="#bfbfbf" points="1363.5,-582.5 1363.5,-601.5 1476.5,-601.5 1476.5,-582.5 1363.5,-582.5"/>
<text text-anchor="middle" x="1420" y="-589.5" font-family="Helvetica,sans-Serif" font-size="10.00">itkCellInterface.hxx</text>
</a>
</g>
</g>
<!-- Node1&#45;&gt;Node40 -->
<g id="edge61" class="edge">
<title>Node1&#45;&gt;Node40</title>
<path fill="none" stroke="midnightblue" d="M743.7,-644.52C853.96,-638.91 1123.75,-623.98 1349,-602 1350.47,-601.86 1351.95,-601.71 1353.45,-601.55"/>
<polygon fill="midnightblue" stroke="midnightblue" points="1353.89,-605.03 1363.45,-600.47 1353.13,-598.07 1353.89,-605.03"/>
</g>
<!-- Node3 -->
<g id="node3" class="node">
<title>Node3</title>
<g id="a_node3"><a xlink:href="itkLightObject_8h.html" target="_top" xlink:title=" ">
<polygon fill="white" stroke="black" points="393,-168.5 393,-187.5 487,-187.5 487,-168.5 393,-168.5"/>
<text text-anchor="middle" x="440" y="-175.5" font-family="Helvetica,sans-Serif" font-size="10.00">itkLightObject.h</text>
</a>
</g>
</g>
<!-- Node2&#45;&gt;Node3 -->
<g id="edge2" class="edge">
<title>Node2&#45;&gt;Node3</title>
<path fill="none" stroke="midnightblue" d="M336.83,-340.62C256.82,-329.32 72.72,-294.95 134,-224 165.45,-187.59 302.82,-180.1 382.4,-178.89"/>
<polygon fill="midnightblue" stroke="midnightblue" points="382.8,-182.38 392.76,-178.76 382.71,-175.38 382.8,-182.38"/>
</g>
<!-- Node15 -->
<g id="node15" class="node">
<title>Node15</title>
<g id="a_node15"><a xlink:href="itkSingletonMacro_8h.html" target="_top" xlink:title=" ">
<polygon fill="white" stroke="black" points="627,-56.5 627,-75.5 741,-75.5 741,-56.5 627,-56.5"/>
<text text-anchor="middle" x="684" y="-63.5" font-family="Helvetica,sans-Serif" font-size="10.00">itkSingletonMacro.h</text>
</a>
</g>
</g>
<!-- Node2&#45;&gt;Node15 -->
<g id="edge35" class="edge">
<title>Node2&#45;&gt;Node15</title>
<path fill="none" stroke="midnightblue" d="M394.87,-336.45C433.37,-321.42 512.53,-287.64 570,-244 623.86,-203.1 643.24,-192.73 673,-132 680.08,-117.55 682.7,-99.36 683.63,-85.9"/>
<polygon fill="midnightblue" stroke="midnightblue" points="687.12,-86.04 684.06,-75.89 680.13,-85.73 687.12,-86.04"/>
</g>
<!-- Node18 -->
<g id="node18" class="node">
<title>Node18</title>
<g id="a_node18"><a xlink:href="itkEventObject_8h.html" target="_top" xlink:title=" ">
<polygon fill="white" stroke="black" points="28,-168.5 28,-187.5 126,-187.5 126,-168.5 28,-168.5"/>
<text text-anchor="middle" x="77" y="-175.5" font-family="Helvetica,sans-Serif" font-size="10.00">itkEventObject.h</text>
</a>
</g>
</g>
<!-- Node2&#45;&gt;Node18 -->
<g id="edge23" class="edge">
<title>Node2&#45;&gt;Node18</title>
<path fill="none" stroke="midnightblue" d="M336.73,-342.08C279.06,-336.68 167.92,-323.5 137,-300 103.35,-274.43 87.34,-224.88 80.81,-197.8"/>
<polygon fill="midnightblue" stroke="midnightblue" points="84.16,-196.7 78.57,-187.7 77.32,-198.22 84.16,-196.7"/>
</g>
<!-- Node19 -->
<g id="node19" class="node">
<title>Node19</title>
<g id="a_node19"><a xlink:href="itkMetaDataDictionary_8h.html" target="_top" xlink:title=" ">
<polygon fill="white" stroke="black" points="304.5,-280.5 304.5,-299.5 439.5,-299.5 439.5,-280.5 304.5,-280.5"/>
<text text-anchor="middle" x="372" y="-287.5" font-family="Helvetica,sans-Serif" font-size="10.00">itkMetaDataDictionary.h</text>
</a>
</g>
</g>
<!-- Node2&#45;&gt;Node19 -->
<g id="edge25" class="edge">
<title>Node2&#45;&gt;Node19</title>
<path fill="none" stroke="midnightblue" d="M372,-336.08C372,-329.01 372,-318.86 372,-309.99"/>
<polygon fill="midnightblue" stroke="midnightblue" points="375.5,-309.75 372,-299.75 368.5,-309.75 375.5,-309.75"/>
</g>
<!-- Node26 -->
<g id="node26" class="node">
<title>Node26</title>
<g id="a_node26"><a xlink:title=" ">
<polygon fill="white" stroke="#bfbfbf" points="221.5,-280.5 221.5,-299.5 286.5,-299.5 286.5,-280.5 221.5,-280.5"/>
<text text-anchor="middle" x="254" y="-287.5" font-family="Helvetica,sans-Serif" font-size="10.00">functional</text>
</a>
</g>
</g>
<!-- Node2&#45;&gt;Node26 -->
<g id="edge36" class="edge">
<title>Node2&#45;&gt;Node26</title>
<path fill="none" stroke="midnightblue" d="M353.3,-336.44C334.06,-327.64 303.85,-313.81 281.8,-303.72"/>
<polygon fill="midnightblue" stroke="midnightblue" points="283.16,-300.5 272.61,-299.52 280.25,-306.86 283.16,-300.5"/>
</g>
<!-- Node4 -->
<g id="node4" class="node">
<title>Node4</title>
<g id="a_node4"><a xlink:href="itkMacro_8h.html" target="_top" xlink:title=" ">
<polygon fill="white" stroke="black" points="508,-0.5 508,-19.5 576,-19.5 576,-0.5 508,-0.5"/>
<text text-anchor="middle" x="542" y="-7.5" font-family="Helvetica,sans-Serif" font-size="10.00">itkMacro.h</text>
</a>
</g>
</g>
<!-- Node3&#45;&gt;Node4 -->
<g id="edge3" class="edge">
<title>Node3&#45;&gt;Node4</title>
<path fill="none" stroke="midnightblue" d="M442.68,-168.26C446.78,-155.46 455.28,-131.07 466,-112 481.24,-84.88 489.29,-80.86 508,-56 515.08,-46.59 523.01,-36.1 529.43,-27.61"/>
<polygon fill="midnightblue" stroke="midnightblue" points="532.23,-29.71 535.47,-19.62 526.65,-25.48 532.23,-29.71"/>
</g>
<!-- Node5 -->
<g id="node5" class="node">
<title>Node5</title>
<g id="a_node5"><a xlink:href="itkSmartPointer_8h.html" target="_top" xlink:title=" ">
<polygon fill="white" stroke="black" points="298.5,-112.5 298.5,-131.5 399.5,-131.5 399.5,-112.5 298.5,-112.5"/>
<text text-anchor="middle" x="349" y="-119.5" font-family="Helvetica,sans-Serif" font-size="10.00">itkSmartPointer.h</text>
</a>
</g>
</g>
<!-- Node3&#45;&gt;Node5 -->
<g id="edge4" class="edge">
<title>Node3&#45;&gt;Node5</title>
<path fill="none" stroke="midnightblue" d="M425.38,-168.32C411.05,-159.82 388.99,-146.73 372.25,-136.8"/>
<polygon fill="midnightblue" stroke="midnightblue" points="373.97,-133.75 363.58,-131.65 370.4,-139.77 373.97,-133.75"/>
</g>
<!-- Node6 -->
<g id="node6" class="node">
<title>Node6</title>
<g id="a_node6"><a xlink:title=" ">
<polygon fill="white" stroke="#bfbfbf" points="109,-56.5 109,-75.5 169,-75.5 169,-56.5 109,-56.5"/>
<text text-anchor="middle" x="139" y="-63.5" font-family="Helvetica,sans-Serif" font-size="10.00">iostream</text>
</a>
</g>
</g>
<!-- Node3&#45;&gt;Node6 -->
<g id="edge21" class="edge">
<title>Node3&#45;&gt;Node6</title>
<path fill="none" stroke="midnightblue" d="M392.95,-176.39C342.83,-173.91 262.54,-164.6 202,-132 180.69,-120.52 162.21,-99.33 150.88,-84.26"/>
<polygon fill="midnightblue" stroke="midnightblue" points="153.47,-81.87 144.78,-75.81 147.8,-85.97 153.47,-81.87"/>
</g>
<!-- Node10 -->
<g id="node10" class="node">
<title>Node10</title>
<g id="a_node10"><a xlink:href="itkTimeStamp_8h.html" target="_top" xlink:title=" ">
<polygon fill="white" stroke="black" points="494.5,-112.5 494.5,-131.5 589.5,-131.5 589.5,-112.5 494.5,-112.5"/>
<text text-anchor="middle" x="542" y="-119.5" font-family="Helvetica,sans-Serif" font-size="10.00">itkTimeStamp.h</text>
</a>
</g>
</g>
<!-- Node3&#45;&gt;Node10 -->
<g id="edge9" class="edge">
<title>Node3&#45;&gt;Node10</title>
<path fill="none" stroke="midnightblue" d="M456.39,-168.32C472.67,-159.7 497.87,-146.36 516.72,-136.39"/>
<polygon fill="midnightblue" stroke="midnightblue" points="518.45,-139.43 525.65,-131.65 515.18,-133.24 518.45,-139.43"/>
</g>
<!-- Node14 -->
<g id="node14" class="node">
<title>Node14</title>
<g id="a_node14"><a xlink:title=" ">
<polygon fill="white" stroke="#bfbfbf" points="517,-56.5 517,-75.5 567,-75.5 567,-56.5 517,-56.5"/>
<text text-anchor="middle" x="542" y="-63.5" font-family="Helvetica,sans-Serif" font-size="10.00">atomic</text>
</a>
</g>
</g>
<!-- Node3&#45;&gt;Node14 -->
<g id="edge20" class="edge">
<title>Node3&#45;&gt;Node14</title>
<path fill="none" stroke="midnightblue" d="M444.82,-168.41C452.37,-155.38 467.9,-130.21 485,-112 495.62,-100.69 509.21,-89.85 520.45,-81.65"/>
<polygon fill="midnightblue" stroke="midnightblue" points="522.74,-84.32 528.87,-75.67 518.69,-78.61 522.74,-84.32"/>
</g>
<!-- Node16 -->
<g id="node16" class="node">
<title>Node16</title>
<g id="a_node16"><a xlink:href="itkIndent_8h.html" target="_top" xlink:title=" ">
<polygon fill="white" stroke="black" points="211.5,-112.5 211.5,-131.5 280.5,-131.5 280.5,-112.5 211.5,-112.5"/>
<text text-anchor="middle" x="246" y="-119.5" font-family="Helvetica,sans-Serif" font-size="10.00">itkIndent.h</text>
</a>
</g>
</g>
<!-- Node3&#45;&gt;Node16 -->
<g id="edge17" class="edge">
<title>Node3&#45;&gt;Node16</title>
<path fill="none" stroke="midnightblue" d="M409.26,-168.44C376.06,-159.2 323.01,-144.44 286.44,-134.26"/>
<polygon fill="midnightblue" stroke="midnightblue" points="287.17,-130.83 276.6,-131.52 285.29,-137.57 287.17,-130.83"/>
</g>
<!-- Node17 -->
<g id="node17" class="node">
<title>Node17</title>
<g id="a_node17"><a xlink:title=" ">
<polygon fill="white" stroke="#bfbfbf" points="607.5,-112.5 607.5,-131.5 664.5,-131.5 664.5,-112.5 607.5,-112.5"/>
<text text-anchor="middle" x="636" y="-119.5" font-family="Helvetica,sans-Serif" font-size="10.00">typeinfo</text>
</a>
</g>
</g>
<!-- Node3&#45;&gt;Node17 -->
<g id="edge22" class="edge">
<title>Node3&#45;&gt;Node17</title>
<path fill="none" stroke="midnightblue" d="M471.06,-168.44C505.29,-159.01 560.41,-143.83 597.4,-133.63"/>
<polygon fill="midnightblue" stroke="midnightblue" points="598.61,-136.93 607.32,-130.9 596.75,-130.18 598.61,-136.93"/>
</g>
<!-- Node5&#45;&gt;Node6 -->
<g id="edge5" class="edge">
<title>Node5&#45;&gt;Node6</title>
<path fill="none" stroke="midnightblue" d="M315.72,-112.44C278.59,-102.9 218.54,-87.45 178.91,-77.26"/>
<polygon fill="midnightblue" stroke="midnightblue" points="179.61,-73.83 169.06,-74.73 177.87,-80.61 179.61,-73.83"/>
</g>
<!-- Node7 -->
<g id="node7" class="node">
<title>Node7</title>
<g id="a_node7"><a xlink:title=" ">
<polygon fill="white" stroke="#bfbfbf" points="225.5,-56.5 225.5,-75.5 270.5,-75.5 270.5,-56.5 225.5,-56.5"/>
<text text-anchor="middle" x="248" y="-63.5" font-family="Helvetica,sans-Serif" font-size="10.00">utility</text>
</a>
</g>
</g>
<!-- Node5&#45;&gt;Node7 -->
<g id="edge6" class="edge">
<title>Node5&#45;&gt;Node7</title>
<path fill="none" stroke="midnightblue" d="M332.77,-112.32C316.65,-103.7 291.7,-90.36 273.04,-80.39"/>
<polygon fill="midnightblue" stroke="midnightblue" points="274.66,-77.28 264.19,-75.65 271.36,-83.46 274.66,-77.28"/>
</g>
<!-- Node8 -->
<g id="node8" class="node">
<title>Node8</title>
<g id="a_node8"><a xlink:title=" ">
<polygon fill="white" stroke="#bfbfbf" points="288.5,-56.5 288.5,-75.5 357.5,-75.5 357.5,-56.5 288.5,-56.5"/>
<text text-anchor="middle" x="323" y="-63.5" font-family="Helvetica,sans-Serif" font-size="10.00">type_traits</text>
</a>
</g>
</g>
<!-- Node5&#45;&gt;Node8 -->
<g id="edge7" class="edge">
<title>Node5&#45;&gt;Node8</title>
<path fill="none" stroke="midnightblue" d="M344.71,-112.08C341.15,-104.69 335.98,-93.95 331.58,-84.81"/>
<polygon fill="midnightblue" stroke="midnightblue" points="334.71,-83.24 327.21,-75.75 328.4,-86.28 334.71,-83.24"/>
</g>
<!-- Node9 -->
<g id="node9" class="node">
<title>Node9</title>
<g id="a_node9"><a xlink:title=" ">
<polygon fill="white" stroke="#bfbfbf" points="375.5,-56.5 375.5,-75.5 460.5,-75.5 460.5,-56.5 375.5,-56.5"/>
<text text-anchor="middle" x="418" y="-63.5" font-family="Helvetica,sans-Serif" font-size="10.00">itkConfigure.h</text>
</a>
</g>
</g>
<!-- Node5&#45;&gt;Node9 -->
<g id="edge8" class="edge">
<title>Node5&#45;&gt;Node9</title>
<path fill="none" stroke="midnightblue" d="M360.09,-112.32C370.49,-104.18 386.26,-91.84 398.72,-82.09"/>
<polygon fill="midnightblue" stroke="midnightblue" points="400.99,-84.75 406.71,-75.83 396.68,-79.24 400.99,-84.75"/>
</g>
<!-- Node10&#45;&gt;Node4 -->
<g id="edge10" class="edge">
<title>Node10&#45;&gt;Node4</title>
<path fill="none" stroke="midnightblue" d="M551.97,-112.15C564.38,-100 583.13,-77.25 576,-56 572.4,-45.25 565.1,-35.02 558.18,-27.04"/>
<polygon fill="midnightblue" stroke="midnightblue" points="560.65,-24.56 551.29,-19.61 555.52,-29.32 560.65,-24.56"/>
</g>
<!-- Node11 -->
<g id="node11" class="node">
<title>Node11</title>
<g id="a_node11"><a xlink:href="itkIntTypes_8h.html" target="_top" xlink:title=" ">
<polygon fill="white" stroke="black" points="797.5,-56.5 797.5,-75.5 876.5,-75.5 876.5,-56.5 797.5,-56.5"/>
<text text-anchor="middle" x="837" y="-63.5" font-family="Helvetica,sans-Serif" font-size="10.00">itkIntTypes.h</text>
</a>
</g>
</g>
<!-- Node10&#45;&gt;Node11 -->
<g id="edge11" class="edge">
<title>Node10&#45;&gt;Node11</title>
<path fill="none" stroke="midnightblue" d="M588.74,-112.44C642.89,-102.53 731.72,-86.27 787.15,-76.12"/>
<polygon fill="midnightblue" stroke="midnightblue" points="787.89,-79.55 797.1,-74.3 786.63,-72.66 787.89,-79.55"/>
</g>
<!-- Node10&#45;&gt;Node14 -->
<g id="edge15" class="edge">
<title>Node10&#45;&gt;Node14</title>
<path fill="none" stroke="midnightblue" d="M542,-112.08C542,-105.01 542,-94.86 542,-85.99"/>
<polygon fill="midnightblue" stroke="midnightblue" points="545.5,-85.75 542,-75.75 538.5,-85.75 545.5,-85.75"/>
</g>
<!-- Node10&#45;&gt;Node15 -->
<g id="edge16" class="edge">
<title>Node10&#45;&gt;Node15</title>
<path fill="none" stroke="midnightblue" d="M564.5,-112.44C588.08,-103.48 625.32,-89.31 651.96,-79.18"/>
<polygon fill="midnightblue" stroke="midnightblue" points="653.5,-82.34 661.6,-75.52 651.01,-75.8 653.5,-82.34"/>
</g>
<!-- Node11&#45;&gt;Node4 -->
<g id="edge12" class="edge">
<title>Node11&#45;&gt;Node4</title>
<path fill="none" stroke="midnightblue" d="M797.21,-57.72C742.29,-47.66 643.54,-29.59 586.31,-19.11"/>
<polygon fill="midnightblue" stroke="midnightblue" points="586.6,-15.61 576.13,-17.25 585.34,-22.49 586.6,-15.61"/>
</g>
<!-- Node12 -->
<g id="node12" class="node">
<title>Node12</title>
<g id="a_node12"><a xlink:title=" ">
<polygon fill="white" stroke="#bfbfbf" points="846,-0.5 846,-19.5 896,-19.5 896,-0.5 846,-0.5"/>
<text text-anchor="middle" x="871" y="-7.5" font-family="Helvetica,sans-Serif" font-size="10.00">cstdint</text>
</a>
</g>
</g>
<!-- Node11&#45;&gt;Node12 -->
<g id="edge13" class="edge">
<title>Node11&#45;&gt;Node12</title>
<path fill="none" stroke="midnightblue" d="M842.61,-56.08C847.37,-48.53 854.32,-37.49 860.15,-28.23"/>
<polygon fill="midnightblue" stroke="midnightblue" points="863.12,-30.08 865.49,-19.75 857.2,-26.35 863.12,-30.08"/>
</g>
<!-- Node13 -->
<g id="node13" class="node">
<title>Node13</title>
<g id="a_node13"><a xlink:title=" ">
<polygon fill="white" stroke="#bfbfbf" points="778,-0.5 778,-19.5 828,-19.5 828,-0.5 778,-0.5"/>
<text text-anchor="middle" x="803" y="-7.5" font-family="Helvetica,sans-Serif" font-size="10.00">climits</text>
</a>
</g>
</g>
<!-- Node11&#45;&gt;Node13 -->
<g id="edge14" class="edge">
<title>Node11&#45;&gt;Node13</title>
<path fill="none" stroke="midnightblue" d="M831.39,-56.08C826.63,-48.53 819.68,-37.49 813.85,-28.23"/>
<polygon fill="midnightblue" stroke="midnightblue" points="816.8,-26.35 808.51,-19.75 810.88,-30.08 816.8,-26.35"/>
</g>
<!-- Node16&#45;&gt;Node4 -->
<g id="edge18" class="edge">
<title>Node16&#45;&gt;Node4</title>
<path fill="none" stroke="midnightblue" d="M236.2,-112.12C222.57,-98.71 201.14,-73.05 216,-56 252.01,-14.67 417.19,-10.02 497.67,-10.28"/>
<polygon fill="midnightblue" stroke="midnightblue" points="497.96,-13.78 507.98,-10.34 498,-6.78 497.96,-13.78"/>
</g>
<!-- Node16&#45;&gt;Node6 -->
<g id="edge19" class="edge">
<title>Node16&#45;&gt;Node6</title>
<path fill="none" stroke="midnightblue" d="M228.81,-112.32C211.65,-103.66 185.05,-90.24 165.25,-80.25"/>
<polygon fill="midnightblue" stroke="midnightblue" points="166.65,-77.04 156.15,-75.65 163.5,-83.28 166.65,-77.04"/>
</g>
<!-- Node18&#45;&gt;Node16 -->
<g id="edge24" class="edge">
<title>Node18&#45;&gt;Node16</title>
<path fill="none" stroke="midnightblue" d="M103.78,-168.44C132.33,-159.32 177.73,-144.81 209.54,-134.65"/>
<polygon fill="midnightblue" stroke="midnightblue" points="210.89,-137.89 219.35,-131.52 208.76,-131.23 210.89,-137.89"/>
</g>
<!-- Node20 -->
<g id="node20" class="node">
<title>Node20</title>
<g id="a_node20"><a xlink:href="itkMetaDataObjectBase_8h.html" target="_top" xlink:title=" ">
<polygon fill="white" stroke="black" points="419,-224.5 419,-243.5 561,-243.5 561,-224.5 419,-224.5"/>
<text text-anchor="middle" x="490" y="-231.5" font-family="Helvetica,sans-Serif" font-size="10.00">itkMetaDataObjectBase.h</text>
</a>
</g>
</g>
<!-- Node19&#45;&gt;Node20 -->
<g id="edge26" class="edge">
<title>Node19&#45;&gt;Node20</title>
<path fill="none" stroke="midnightblue" d="M390.7,-280.44C409.94,-271.64 440.15,-257.81 462.2,-247.72"/>
<polygon fill="midnightblue" stroke="midnightblue" points="463.75,-250.86 471.39,-243.52 460.84,-244.5 463.75,-250.86"/>
</g>
<!-- Node21 -->
<g id="node21" class="node">
<title>Node21</title>
<g id="a_node21"><a xlink:title=" ">
<polygon fill="white" stroke="#bfbfbf" points="199,-224.5 199,-243.5 263,-243.5 263,-224.5 199,-224.5"/>
<text text-anchor="middle" x="231" y="-231.5" font-family="Helvetica,sans-Serif" font-size="10.00">algorithm</text>
</a>
</g>
</g>
<!-- Node19&#45;&gt;Node21 -->
<g id="edge30" class="edge">
<title>Node19&#45;&gt;Node21</title>
<path fill="none" stroke="midnightblue" d="M349.66,-280.44C326.25,-271.48 289.26,-257.31 262.81,-247.18"/>
<polygon fill="midnightblue" stroke="midnightblue" points="263.83,-243.82 253.24,-243.52 261.32,-250.36 263.83,-243.82"/>
</g>
<!-- Node22 -->
<g id="node22" class="node">
<title>Node22</title>
<g id="a_node22"><a xlink:title=" ">
<polygon fill="white" stroke="#bfbfbf" points="617.5,-224.5 617.5,-243.5 664.5,-243.5 664.5,-224.5 617.5,-224.5"/>
<text text-anchor="middle" x="641" y="-231.5" font-family="Helvetica,sans-Serif" font-size="10.00">vector</text>
</a>
</g>
</g>
<!-- Node19&#45;&gt;Node22 -->
<g id="edge31" class="edge">
<title>Node19&#45;&gt;Node22</title>
<path fill="none" stroke="midnightblue" d="M414.62,-280.44C468.04,-269.72 558.48,-251.57 607.31,-241.76"/>
<polygon fill="midnightblue" stroke="midnightblue" points="608.25,-245.15 617.36,-239.75 606.87,-238.28 608.25,-245.15"/>
</g>
<!-- Node19&#45;&gt;Node23 -->
<g id="edge32" class="edge">
<title>Node19&#45;&gt;Node23</title>
<path fill="none" stroke="midnightblue" d="M334.16,-280.44C299.3,-272.38 245.94,-259.6 191.12,-244.18"/>
<polygon fill="midnightblue" stroke="midnightblue" points="191.8,-240.73 181.23,-241.37 189.89,-247.47 191.8,-240.73"/>
</g>
<!-- Node24 -->
<g id="node24" class="node">
<title>Node24</title>
<g id="a_node24"><a xlink:title=" ">
<polygon fill="white" stroke="#bfbfbf" points="281,-224.5 281,-243.5 325,-243.5 325,-224.5 281,-224.5"/>
<text text-anchor="middle" x="303" y="-231.5" font-family="Helvetica,sans-Serif" font-size="10.00">string</text>
</a>
</g>
</g>
<!-- Node19&#45;&gt;Node24 -->
<g id="edge33" class="edge">
<title>Node19&#45;&gt;Node24</title>
<path fill="none" stroke="midnightblue" d="M360.91,-280.32C350.51,-272.18 334.74,-259.84 322.28,-250.09"/>
<polygon fill="midnightblue" stroke="midnightblue" points="324.32,-247.24 314.29,-243.83 320.01,-252.75 324.32,-247.24"/>
</g>
<!-- Node25 -->
<g id="node25" class="node">
<title>Node25</title>
<g id="a_node25"><a xlink:title=" ">
<polygon fill="white" stroke="#bfbfbf" points="343,-224.5 343,-243.5 401,-243.5 401,-224.5 343,-224.5"/>
<text text-anchor="middle" x="372" y="-231.5" font-family="Helvetica,sans-Serif" font-size="10.00">memory</text>
</a>
</g>
</g>
<!-- Node19&#45;&gt;Node25 -->
<g id="edge34" class="edge">
<title>Node19&#45;&gt;Node25</title>
<path fill="none" stroke="midnightblue" d="M372,-280.08C372,-273.01 372,-262.86 372,-253.99"/>
<polygon fill="midnightblue" stroke="midnightblue" points="375.5,-253.75 372,-243.75 368.5,-253.75 375.5,-253.75"/>
</g>
<!-- Node20&#45;&gt;Node3 -->
<g id="edge27" class="edge">
<title>Node20&#45;&gt;Node3</title>
<path fill="none" stroke="midnightblue" d="M481.74,-224.08C474.54,-216.3 463.89,-204.8 455.15,-195.37"/>
<polygon fill="midnightblue" stroke="midnightblue" points="457.47,-192.71 448.1,-187.75 452.33,-197.47 457.47,-192.71"/>
</g>
<!-- Node20&#45;&gt;Node6 -->
<g id="edge29" class="edge">
<title>Node20&#45;&gt;Node6</title>
<path fill="none" stroke="midnightblue" d="M450.77,-224.44C375.83,-207.46 215.9,-168.04 173,-132 158.55,-119.86 149.43,-99.99 144.32,-85.41"/>
<polygon fill="midnightblue" stroke="midnightblue" points="147.54,-83.97 141.17,-75.5 140.87,-86.1 147.54,-83.97"/>
</g>
<!-- Node20&#45;&gt;Node17 -->
<g id="edge28" class="edge">
<title>Node20&#45;&gt;Node17</title>
<path fill="none" stroke="midnightblue" d="M501.46,-224.37C526.3,-205.65 585.36,-161.15 616.31,-137.83"/>
<polygon fill="midnightblue" stroke="midnightblue" points="618.72,-140.4 624.6,-131.59 614.5,-134.81 618.72,-140.4"/>
</g>
<!-- Node27&#45;&gt;Node3 -->
<g id="edge38" class="edge">
<title>Node27&#45;&gt;Node3</title>
<path fill="none" stroke="midnightblue" d="M693,-582.35C693,-561.26 693,-505.52 693,-459 693,-459 693,-459 693,-289 693,-258.77 695.49,-244.19 673,-224 647.64,-201.24 557.76,-189.1 497.33,-183.36"/>
<polygon fill="midnightblue" stroke="midnightblue" points="497.44,-179.86 487.16,-182.43 496.8,-186.83 497.44,-179.86"/>
</g>
<!-- Node28 -->
<g id="node28" class="node">
<title>Node28</title>
<g id="a_node28"><a xlink:href="itkObjectFactory_8h.html" target="_top" xlink:title=" ">
<polygon fill="white" stroke="black" points="554,-515.5 554,-534.5 658,-534.5 658,-515.5 554,-515.5"/>
<text text-anchor="middle" x="606" y="-522.5" font-family="Helvetica,sans-Serif" font-size="10.00">itkObjectFactory.h</text>
</a>
</g>
</g>
<!-- Node27&#45;&gt;Node28 -->
<g id="edge39" class="edge">
<title>Node27&#45;&gt;Node28</title>
<path fill="none" stroke="midnightblue" d="M681.27,-582.23C667.05,-571.61 642.87,-553.55 625.76,-540.76"/>
<polygon fill="midnightblue" stroke="midnightblue" points="627.65,-537.81 617.55,-534.63 623.46,-543.42 627.65,-537.81"/>
</g>
<!-- Node27&#45;&gt;Node31 -->
<g id="edge49" class="edge">
<title>Node27&#45;&gt;Node31</title>
<path fill="none" stroke="midnightblue" d="M700.38,-582.43C725.47,-553.32 807.74,-457.84 840.93,-419.32"/>
<polygon fill="midnightblue" stroke="midnightblue" points="843.7,-421.48 847.57,-411.62 838.4,-416.91 843.7,-421.48"/>
</g>
<!-- Node29 -->
<g id="node29" class="node">
<title>Node29</title>
<g id="a_node29"><a xlink:href="itkObjectFactoryBase_8h.html" target="_top" xlink:title=" ">
<polygon fill="white" stroke="black" points="535.5,-448.5 535.5,-467.5 664.5,-467.5 664.5,-448.5 535.5,-448.5"/>
<text text-anchor="middle" x="600" y="-455.5" font-family="Helvetica,sans-Serif" font-size="10.00">itkObjectFactoryBase.h</text>
</a>
</g>
</g>
<!-- Node28&#45;&gt;Node29 -->
<g id="edge40" class="edge">
<title>Node28&#45;&gt;Node29</title>
<path fill="none" stroke="midnightblue" d="M605.19,-515.23C604.31,-505.68 602.87,-490.12 601.73,-477.78"/>
<polygon fill="midnightblue" stroke="midnightblue" points="605.2,-477.26 600.8,-467.63 598.23,-477.91 605.2,-477.26"/>
</g>
<!-- Node29&#45;&gt;Node15 -->
<g id="edge43" class="edge">
<title>Node29&#45;&gt;Node15</title>
<path fill="none" stroke="midnightblue" d="M626.19,-448.41C664.42,-434.03 731,-401.2 731,-347 731,-347 731,-347 731,-177 731,-141.7 710.28,-104.79 696.36,-83.96"/>
<polygon fill="midnightblue" stroke="midnightblue" points="699.12,-81.8 690.54,-75.59 693.37,-85.8 699.12,-81.8"/>
</g>
<!-- Node29&#45;&gt;Node22 -->
<g id="edge48" class="edge">
<title>Node29&#45;&gt;Node22</title>
<path fill="none" stroke="midnightblue" d="M605.33,-448.4C610.51,-439.6 618.14,-425.37 622,-412 638.1,-356.2 640.8,-286.94 641.1,-254.06"/>
<polygon fill="midnightblue" stroke="midnightblue" points="644.6,-253.68 641.12,-243.68 637.6,-253.67 644.6,-253.68"/>
</g>
<!-- Node30 -->
<g id="node30" class="node">
<title>Node30</title>
<g id="a_node30"><a xlink:href="itkCreateObjectFunction_8h.html" target="_top" xlink:title=" ">
<polygon fill="white" stroke="black" points="414.5,-392.5 414.5,-411.5 557.5,-411.5 557.5,-392.5 414.5,-392.5"/>
<text text-anchor="middle" x="486" y="-399.5" font-family="Helvetica,sans-Serif" font-size="10.00">itkCreateObjectFunction.h</text>
</a>
</g>
</g>
<!-- Node29&#45;&gt;Node30 -->
<g id="edge41" class="edge">
<title>Node29&#45;&gt;Node30</title>
<path fill="none" stroke="midnightblue" d="M581.94,-448.44C563.43,-439.68 534.42,-425.94 513.14,-415.86"/>
<polygon fill="midnightblue" stroke="midnightblue" points="514.51,-412.63 503.98,-411.52 511.52,-418.96 514.51,-412.63"/>
</g>
<!-- Node29&#45;&gt;Node31 -->
<g id="edge44" class="edge">
<title>Node29&#45;&gt;Node31</title>
<path fill="none" stroke="midnightblue" d="M640.41,-448.44C684.98,-439 756.77,-423.8 804.89,-413.61"/>
<polygon fill="midnightblue" stroke="midnightblue" points="805.73,-417.01 814.78,-411.52 804.28,-410.16 805.73,-417.01"/>
</g>
<!-- Node33 -->
<g id="node33" class="node">
<title>Node33</title>
<g id="a_node33"><a xlink:title=" ">
<polygon fill="white" stroke="#bfbfbf" points="581,-392.5 581,-411.5 613,-411.5 613,-392.5 581,-392.5"/>
<text text-anchor="middle" x="597" y="-399.5" font-family="Helvetica,sans-Serif" font-size="10.00">list</text>
</a>
</g>
</g>
<!-- Node29&#45;&gt;Node33 -->
<g id="edge47" class="edge">
<title>Node29&#45;&gt;Node33</title>
<path fill="none" stroke="midnightblue" d="M599.5,-448.08C599.11,-441.01 598.55,-430.86 598.05,-421.99"/>
<polygon fill="midnightblue" stroke="midnightblue" points="601.54,-421.54 597.49,-411.75 594.55,-421.93 601.54,-421.54"/>
</g>
<!-- Node30&#45;&gt;Node2 -->
<g id="edge42" class="edge">
<title>Node30&#45;&gt;Node2</title>
<path fill="none" stroke="midnightblue" d="M467.94,-392.44C449.43,-383.68 420.42,-369.94 399.14,-359.86"/>
<polygon fill="midnightblue" stroke="midnightblue" points="400.51,-356.63 389.98,-355.52 397.52,-362.96 400.51,-356.63"/>
</g>
<!-- Node31&#45;&gt;Node11 -->
<g id="edge45" class="edge">
<title>Node31&#45;&gt;Node11</title>
<path fill="none" stroke="midnightblue" d="M858.78,-392.35C866.42,-374.03 883,-329.82 883,-291 883,-291 883,-291 883,-177 883,-141.82 862.72,-104.86 849.09,-84"/>
<polygon fill="midnightblue" stroke="midnightblue" points="851.91,-81.92 843.4,-75.61 846.12,-85.85 851.91,-81.92"/>
</g>
<!-- Node32 -->
<g id="node32" class="node">
<title>Node32</title>
<g id="a_node32"><a xlink:title=" ">
<polygon fill="white" stroke="#bfbfbf" points="797.5,-336.5 797.5,-355.5 854.5,-355.5 854.5,-336.5 797.5,-336.5"/>
<text text-anchor="middle" x="826" y="-343.5" font-family="Helvetica,sans-Serif" font-size="10.00">ostream</text>
</a>
</g>
</g>
<!-- Node31&#45;&gt;Node32 -->
<g id="edge46" class="edge">
<title>Node31&#45;&gt;Node32</title>
<path fill="none" stroke="midnightblue" d="M850.21,-392.08C846.24,-384.69 840.47,-373.95 835.57,-364.81"/>
<polygon fill="midnightblue" stroke="midnightblue" points="838.51,-362.91 830.7,-355.75 832.35,-366.22 838.51,-362.91"/>
</g>
<!-- Node34&#45;&gt;Node4 -->
<g id="edge51" class="edge">
<title>Node34&#45;&gt;Node4</title>
<path fill="none" stroke="midnightblue" d="M70.42,-112.08C73.24,-97.64 80.99,-69.39 100,-56 132.08,-33.41 392.39,-18.3 497.86,-13.05"/>
<polygon fill="midnightblue" stroke="midnightblue" points="498.06,-16.55 507.87,-12.56 497.71,-9.56 498.06,-16.55"/>
</g>
<!-- Node34&#45;&gt;Node6 -->
<g id="edge52" class="edge">
<title>Node34&#45;&gt;Node6</title>
<path fill="none" stroke="midnightblue" d="M80.25,-112.32C90.8,-104.18 106.8,-91.84 119.44,-82.09"/>
<polygon fill="midnightblue" stroke="midnightblue" points="121.77,-84.71 127.55,-75.83 117.49,-79.17 121.77,-84.71"/>
</g>
<!-- Node35&#45;&gt;Node4 -->
<g id="edge54" class="edge">
<title>Node35&#45;&gt;Node4</title>
<path fill="none" stroke="midnightblue" d="M883.43,-586.13C858.87,-580.65 825.89,-569.25 807,-546 750.22,-476.12 769,-437.04 769,-347 769,-347 769,-347 769,-121 769,-90.9 772.03,-76.51 750,-56 726.63,-34.24 639.98,-21.35 586.17,-15.27"/>
<polygon fill="midnightblue" stroke="midnightblue" points="586.52,-11.79 576.2,-14.18 585.76,-18.75 586.52,-11.79"/>
</g>
<!-- Node36 -->
<g id="node36" class="node">
<title>Node36</title>
<g id="a_node36"><a xlink:title=" ">
<polygon fill="white" stroke="#bfbfbf" points="1225,-515.5 1225,-534.5 1307,-534.5 1307,-515.5 1225,-515.5"/>
<text text-anchor="middle" x="1266" y="-522.5" font-family="Helvetica,sans-Serif" font-size="10.00">vxl_version.h</text>
</a>
</g>
</g>
<!-- Node35&#45;&gt;Node36 -->
<g id="edge55" class="edge">
<title>Node35&#45;&gt;Node36</title>
<path fill="none" stroke="midnightblue" d="M946.69,-588.69C1002.11,-584.13 1119.86,-572.03 1216,-546 1223.15,-544.06 1230.67,-541.41 1237.64,-538.66"/>
<polygon fill="midnightblue" stroke="midnightblue" points="1239.45,-541.71 1247.36,-534.66 1236.78,-535.23 1239.45,-541.71"/>
</g>
<!-- Node37 -->
<g id="node37" class="node">
<title>Node37</title>
<g id="a_node37"><a xlink:title=" ">
<polygon fill="white" stroke="#bfbfbf" points="816,-515.5 816,-534.5 910,-534.5 910,-515.5 816,-515.5"/>
<text text-anchor="middle" x="863" y="-522.5" font-family="Helvetica,sans-Serif" font-size="10.00">vnl/vnl_vector.h</text>
</a>
</g>
</g>
<!-- Node35&#45;&gt;Node37 -->
<g id="edge56" class="edge">
<title>Node35&#45;&gt;Node37</title>
<path fill="none" stroke="midnightblue" d="M907.99,-582.23C899.88,-572.1 886.35,-555.19 876.24,-542.56"/>
<polygon fill="midnightblue" stroke="midnightblue" points="878.88,-540.25 869.9,-534.63 873.42,-544.62 878.88,-540.25"/>
</g>
<!-- Node38 -->
<g id="node38" class="node">
<title>Node38</title>
<g id="a_node38"><a xlink:title=" ">
<polygon fill="white" stroke="#bfbfbf" points="928.5,-515.5 928.5,-534.5 1003.5,-534.5 1003.5,-515.5 928.5,-515.5"/>
<text text-anchor="middle" x="966" y="-522.5" font-family="Helvetica,sans-Serif" font-size="10.00">itkArray.hxx</text>
</a>
</g>
</g>
<!-- Node35&#45;&gt;Node38 -->
<g id="edge57" class="edge">
<title>Node35&#45;&gt;Node38</title>
<path fill="none" stroke="midnightblue" d="M921.88,-582.23C929.83,-572.1 943.1,-555.19 953.01,-542.56"/>
<polygon fill="midnightblue" stroke="midnightblue" points="955.81,-544.66 959.23,-534.63 950.3,-540.33 955.81,-544.66"/>
</g>
<!-- Node39 -->
<g id="node39" class="node">
<title>Node39</title>
<g id="a_node39"><a xlink:title=" ">
<polygon fill="white" stroke="#bfbfbf" points="1021.5,-504.5 1021.5,-545.5 1206.5,-545.5 1206.5,-504.5 1021.5,-504.5"/>
<text text-anchor="start" x="1029.5" y="-533.5" font-family="Helvetica,sans-Serif" font-size="10.00">/work/ITK/Modules/Core</text>
<text text-anchor="start" x="1029.5" y="-522.5" font-family="Helvetica,sans-Serif" font-size="10.00">/Common/include/itkNumericTraits</text>
<text text-anchor="middle" x="1114" y="-511.5" font-family="Helvetica,sans-Serif" font-size="10.00">ArrayPixel.h</text>
</a>
</g>
</g>
<!-- Node35&#45;&gt;Node39 -->
<g id="edge58" class="edge">
<title>Node35&#45;&gt;Node39</title>
<path fill="none" stroke="midnightblue" d="M941.43,-582.37C967.52,-573.85 1008.55,-560.44 1044.06,-548.84"/>
<polygon fill="midnightblue" stroke="midnightblue" points="1045.5,-552.06 1053.92,-545.63 1043.32,-545.4 1045.5,-552.06"/>
</g>
</g>
</svg>
