<?xml version="1.0" encoding="UTF-8" standalone="no"?>
<!DOCTYPE svg PUBLIC "-//W3C//DTD SVG 1.1//EN"
 "http://www.w3.org/Graphics/SVG/1.1/DTD/svg11.dtd">
<!-- Generated by graphviz version 2.43.0 (0)
 -->
<!-- Title: itkContinuousIndex.h Pages: 1 -->
<svg width="1026pt" height="431pt"
 viewBox="0.00 0.00 1025.50 431.00" xmlns="http://www.w3.org/2000/svg" xmlns:xlink="http://www.w3.org/1999/xlink">
<g id="graph0" class="graph" transform="scale(1 1) rotate(0) translate(4 427)">
<title>itkContinuousIndex.h</title>
<polygon fill="white" stroke="transparent" points="-4,4 -4,-427 1021.5,-427 1021.5,4 -4,4"/>
<!-- Node1 -->
<g id="node1" class="node">
<title>Node1</title>
<g id="a_node1"><a xlink:title=" ">
<polygon fill="#bfbfbf" stroke="black" points="835.5,-403.5 835.5,-422.5 955.5,-422.5 955.5,-403.5 835.5,-403.5"/>
<text text-anchor="middle" x="895.5" y="-410.5" font-family="Helvetica,sans-Serif" font-size="10.00">itkContinuousIndex.h</text>
</a>
</g>
</g>
<!-- Node2 -->
<g id="node2" class="node">
<title>Node2</title>
<g id="a_node2"><a xlink:href="itkPoint_8h.html" target="_top" xlink:title=" ">
<polygon fill="white" stroke="black" points="214,-291.5 214,-310.5 277,-310.5 277,-291.5 214,-291.5"/>
<text text-anchor="middle" x="245.5" y="-298.5" font-family="Helvetica,sans-Serif" font-size="10.00">itkPoint.h</text>
</a>
</g>
</g>
<!-- Node1&#45;&gt;Node2 -->
<g id="edge1" class="edge">
<title>Node1&#45;&gt;Node2</title>
<path fill="none" stroke="midnightblue" d="M845.04,-403.46C720.8,-382.44 401.96,-328.48 287.33,-309.08"/>
<polygon fill="midnightblue" stroke="midnightblue" points="287.65,-305.58 277.2,-307.37 286.48,-312.48 287.65,-305.58"/>
</g>
<!-- Node29 -->
<g id="node29" class="node">
<title>Node29</title>
<g id="a_node29"><a xlink:href="itkIndex_8h.html" target="_top" xlink:title=" ">
<polygon fill="white" stroke="black" points="863,-347.5 863,-366.5 928,-366.5 928,-347.5 863,-347.5"/>
<text text-anchor="middle" x="895.5" y="-354.5" font-family="Helvetica,sans-Serif" font-size="10.00">itkIndex.h</text>
</a>
</g>
</g>
<!-- Node1&#45;&gt;Node29 -->
<g id="edge37" class="edge">
<title>Node1&#45;&gt;Node29</title>
<path fill="none" stroke="midnightblue" d="M895.5,-403.08C895.5,-396.01 895.5,-385.86 895.5,-376.99"/>
<polygon fill="midnightblue" stroke="midnightblue" points="899,-376.75 895.5,-366.75 892,-376.75 899,-376.75"/>
</g>
<!-- Node32 -->
<g id="node32" class="node">
<title>Node32</title>
<g id="a_node32"><a xlink:title=" ">
<polygon fill="white" stroke="#bfbfbf" points="920,-123.5 920,-142.5 989,-142.5 989,-123.5 920,-123.5"/>
<text text-anchor="middle" x="954.5" y="-130.5" font-family="Helvetica,sans-Serif" font-size="10.00">type_traits</text>
</a>
</g>
</g>
<!-- Node1&#45;&gt;Node32 -->
<g id="edge49" class="edge">
<title>Node1&#45;&gt;Node32</title>
<path fill="none" stroke="midnightblue" d="M905.94,-403.4C915.46,-395.03 929.25,-381.49 937.5,-367 952.39,-340.85 956.5,-332.1 956.5,-302 956.5,-302 956.5,-302 956.5,-244 956.5,-211.94 955.64,-174.64 955.05,-152.75"/>
<polygon fill="midnightblue" stroke="midnightblue" points="958.54,-152.45 954.76,-142.56 951.54,-152.65 958.54,-152.45"/>
</g>
<!-- Node3 -->
<g id="node3" class="node">
<title>Node3</title>
<g id="a_node3"><a xlink:href="itkNumericTraits_8h.html" target="_top" xlink:title=" ">
<polygon fill="white" stroke="black" points="314.5,-123.5 314.5,-142.5 420.5,-142.5 420.5,-123.5 314.5,-123.5"/>
<text text-anchor="middle" x="367.5" y="-130.5" font-family="Helvetica,sans-Serif" font-size="10.00">itkNumericTraits.h</text>
</a>
</g>
</g>
<!-- Node2&#45;&gt;Node3 -->
<g id="edge2" class="edge">
<title>Node2&#45;&gt;Node3</title>
<path fill="none" stroke="midnightblue" d="M247.33,-291.46C252.23,-270.3 267.36,-214.59 297.5,-179 308.73,-165.74 324.85,-155.01 338.8,-147.36"/>
<polygon fill="midnightblue" stroke="midnightblue" points="340.76,-150.28 348.01,-142.56 337.53,-144.07 340.76,-150.28"/>
</g>
<!-- Node13 -->
<g id="node13" class="node">
<title>Node13</title>
<g id="a_node13"><a xlink:href="itkVector_8h.html" target="_top" xlink:title=" ">
<polygon fill="white" stroke="black" points="178.5,-235.5 178.5,-254.5 246.5,-254.5 246.5,-235.5 178.5,-235.5"/>
<text text-anchor="middle" x="212.5" y="-242.5" font-family="Helvetica,sans-Serif" font-size="10.00">itkVector.h</text>
</a>
</g>
</g>
<!-- Node2&#45;&gt;Node13 -->
<g id="edge15" class="edge">
<title>Node2&#45;&gt;Node13</title>
<path fill="none" stroke="midnightblue" d="M240.05,-291.08C235.49,-283.61 228.83,-272.72 223.21,-263.52"/>
<polygon fill="midnightblue" stroke="midnightblue" points="226.05,-261.46 217.85,-254.75 220.08,-265.11 226.05,-261.46"/>
</g>
<!-- Node14 -->
<g id="node14" class="node">
<title>Node14</title>
<g id="a_node14"><a xlink:title=" ">
<polygon fill="white" stroke="#bfbfbf" points="0,-179.5 0,-198.5 113,-198.5 113,-179.5 0,-179.5"/>
<text text-anchor="middle" x="56.5" y="-186.5" font-family="Helvetica,sans-Serif" font-size="10.00">vnl/vnl_vector_ref.h</text>
</a>
</g>
</g>
<!-- Node2&#45;&gt;Node14 -->
<g id="edge19" class="edge">
<title>Node2&#45;&gt;Node14</title>
<path fill="none" stroke="midnightblue" d="M213.75,-300.45C175.81,-299.23 112.78,-291.33 75.5,-255 63.28,-243.09 58.81,-223.78 57.23,-209.3"/>
<polygon fill="midnightblue" stroke="midnightblue" points="60.69,-208.67 56.49,-198.95 53.71,-209.17 60.69,-208.67"/>
</g>
<!-- Node16 -->
<g id="node16" class="node">
<title>Node16</title>
<g id="a_node16"><a xlink:href="itkMath_8h.html" target="_top" xlink:title=" ">
<polygon fill="white" stroke="black" points="564,-235.5 564,-254.5 627,-254.5 627,-235.5 564,-235.5"/>
<text text-anchor="middle" x="595.5" y="-242.5" font-family="Helvetica,sans-Serif" font-size="10.00">itkMath.h</text>
</a>
</g>
</g>
<!-- Node2&#45;&gt;Node16 -->
<g id="edge20" class="edge">
<title>Node2&#45;&gt;Node16</title>
<path fill="none" stroke="midnightblue" d="M277.18,-295.11C340.61,-285.33 483.19,-263.33 553.99,-252.4"/>
<polygon fill="midnightblue" stroke="midnightblue" points="554.55,-255.86 563.89,-250.88 553.48,-248.94 554.55,-255.86"/>
</g>
<!-- Node28 -->
<g id="node28" class="node">
<title>Node28</title>
<g id="a_node28"><a xlink:title=" ">
<polygon fill="white" stroke="#bfbfbf" points="85,-235.5 85,-254.5 160,-254.5 160,-235.5 85,-235.5"/>
<text text-anchor="middle" x="122.5" y="-242.5" font-family="Helvetica,sans-Serif" font-size="10.00">itkPoint.hxx</text>
</a>
</g>
</g>
<!-- Node2&#45;&gt;Node28 -->
<g id="edge36" class="edge">
<title>Node2&#45;&gt;Node28</title>
<path fill="none" stroke="midnightblue" d="M226.01,-291.44C205.86,-282.6 174.18,-268.69 151.17,-258.59"/>
<polygon fill="midnightblue" stroke="midnightblue" points="152.46,-255.33 141.9,-254.52 149.65,-261.74 152.46,-255.33"/>
</g>
<!-- Node4 -->
<g id="node4" class="node">
<title>Node4</title>
<g id="a_node4"><a xlink:href="itkMacro_8h.html" target="_top" xlink:title=" ">
<polygon fill="white" stroke="black" points="573.5,-6 573.5,-25 641.5,-25 641.5,-6 573.5,-6"/>
<text text-anchor="middle" x="607.5" y="-13" font-family="Helvetica,sans-Serif" font-size="10.00">itkMacro.h</text>
</a>
</g>
</g>
<!-- Node3&#45;&gt;Node4 -->
<g id="edge3" class="edge">
<title>Node3&#45;&gt;Node4</title>
<path fill="none" stroke="midnightblue" d="M390.79,-123.45C413.49,-114.92 448.81,-101.07 478.5,-87 516.33,-69.07 558.65,-45.17 584.17,-30.31"/>
<polygon fill="midnightblue" stroke="midnightblue" points="586.22,-33.17 593.08,-25.09 582.68,-27.13 586.22,-33.17"/>
</g>
<!-- Node5 -->
<g id="node5" class="node">
<title>Node5</title>
<g id="a_node5"><a xlink:title=" ">
<polygon fill="white" stroke="#bfbfbf" points="347.5,-67.5 347.5,-86.5 391.5,-86.5 391.5,-67.5 347.5,-67.5"/>
<text text-anchor="middle" x="369.5" y="-74.5" font-family="Helvetica,sans-Serif" font-size="10.00">limits</text>
</a>
</g>
</g>
<!-- Node3&#45;&gt;Node5 -->
<g id="edge4" class="edge">
<title>Node3&#45;&gt;Node5</title>
<path fill="none" stroke="midnightblue" d="M367.83,-123.08C368.09,-116.01 368.47,-105.86 368.8,-96.99"/>
<polygon fill="midnightblue" stroke="midnightblue" points="372.3,-96.87 369.18,-86.75 365.31,-96.61 372.3,-96.87"/>
</g>
<!-- Node6 -->
<g id="node6" class="node">
<title>Node6</title>
<g id="a_node6"><a xlink:title=" ">
<polygon fill="white" stroke="#bfbfbf" points="410,-67.5 410,-86.5 469,-86.5 469,-67.5 410,-67.5"/>
<text text-anchor="middle" x="439.5" y="-74.5" font-family="Helvetica,sans-Serif" font-size="10.00">complex</text>
</a>
</g>
</g>
<!-- Node3&#45;&gt;Node6 -->
<g id="edge5" class="edge">
<title>Node3&#45;&gt;Node6</title>
<path fill="none" stroke="midnightblue" d="M379.07,-123.32C389.92,-115.18 406.38,-102.84 419.38,-93.09"/>
<polygon fill="midnightblue" stroke="midnightblue" points="421.82,-95.63 427.72,-86.83 417.62,-90.03 421.82,-95.63"/>
</g>
<!-- Node7 -->
<g id="node7" class="node">
<title>Node7</title>
<g id="a_node7"><a xlink:href="itkFixedArray_8h.html" target="_top" xlink:title=" ">
<polygon fill="white" stroke="black" points="241,-67.5 241,-86.5 330,-86.5 330,-67.5 241,-67.5"/>
<text text-anchor="middle" x="285.5" y="-74.5" font-family="Helvetica,sans-Serif" font-size="10.00">itkFixedArray.h</text>
</a>
</g>
</g>
<!-- Node3&#45;&gt;Node7 -->
<g id="edge6" class="edge">
<title>Node3&#45;&gt;Node7</title>
<path fill="none" stroke="midnightblue" d="M354.33,-123.32C341.65,-114.98 322.27,-102.21 307.29,-92.35"/>
<polygon fill="midnightblue" stroke="midnightblue" points="308.92,-89.23 298.64,-86.65 305.07,-95.08 308.92,-89.23"/>
</g>
<!-- Node7&#45;&gt;Node4 -->
<g id="edge7" class="edge">
<title>Node7&#45;&gt;Node4</title>
<path fill="none" stroke="midnightblue" d="M330.03,-68.41C332.89,-67.93 335.74,-67.46 338.5,-67 437.55,-50.6 463.81,-54.15 561.5,-31 565.14,-30.14 568.9,-29.14 572.64,-28.07"/>
<polygon fill="midnightblue" stroke="midnightblue" points="573.81,-31.37 582.38,-25.14 571.79,-24.67 573.81,-31.37"/>
</g>
<!-- Node8 -->
<g id="node8" class="node">
<title>Node8</title>
<g id="a_node8"><a xlink:href="itkMakeFilled_8h.html" target="_top" xlink:title=" ">
<polygon fill="white" stroke="black" points="846,-6 846,-25 937,-25 937,-6 846,-6"/>
<text text-anchor="middle" x="891.5" y="-13" font-family="Helvetica,sans-Serif" font-size="10.00">itkMakeFilled.h</text>
</a>
</g>
</g>
<!-- Node7&#45;&gt;Node8 -->
<g id="edge8" class="edge">
<title>Node7&#45;&gt;Node8</title>
<path fill="none" stroke="midnightblue" d="M330.28,-68.15C333.06,-67.74 335.82,-67.35 338.5,-67 519.7,-43.38 735.73,-27.05 835.68,-20.17"/>
<polygon fill="midnightblue" stroke="midnightblue" points="836.11,-23.65 845.85,-19.47 835.63,-16.66 836.11,-23.65"/>
</g>
<!-- Node9 -->
<g id="node9" class="node">
<title>Node9</title>
<g id="a_node9"><a xlink:title=" ">
<polygon fill="white" stroke="#bfbfbf" points="488.5,-6 488.5,-25 552.5,-25 552.5,-6 488.5,-6"/>
<text text-anchor="middle" x="520.5" y="-13" font-family="Helvetica,sans-Serif" font-size="10.00">algorithm</text>
</a>
</g>
</g>
<!-- Node7&#45;&gt;Node9 -->
<g id="edge9" class="edge">
<title>Node7&#45;&gt;Node9</title>
<path fill="none" stroke="midnightblue" d="M325.77,-67.43C364.39,-58.99 424.24,-45.31 475.5,-31 478.66,-30.12 481.94,-29.16 485.21,-28.16"/>
<polygon fill="midnightblue" stroke="midnightblue" points="486.4,-31.46 494.91,-25.13 484.32,-24.78 486.4,-31.46"/>
</g>
<!-- Node10 -->
<g id="node10" class="node">
<title>Node10</title>
<g id="a_node10"><a xlink:title=" ">
<polygon fill="white" stroke="#bfbfbf" points="304.5,-6 304.5,-25 346.5,-25 346.5,-6 304.5,-6"/>
<text text-anchor="middle" x="325.5" y="-13" font-family="Helvetica,sans-Serif" font-size="10.00">array</text>
</a>
</g>
</g>
<!-- Node7&#45;&gt;Node10 -->
<g id="edge10" class="edge">
<title>Node7&#45;&gt;Node10</title>
<path fill="none" stroke="midnightblue" d="M291.23,-67.48C297.17,-58.64 306.62,-44.59 314.09,-33.48"/>
<polygon fill="midnightblue" stroke="midnightblue" points="317.11,-35.26 319.78,-25.01 311.3,-31.36 317.11,-35.26"/>
</g>
<!-- Node11 -->
<g id="node11" class="node">
<title>Node11</title>
<g id="a_node11"><a xlink:title=" ">
<polygon fill="white" stroke="#bfbfbf" points="365,-6 365,-25 466,-25 466,-6 365,-6"/>
<text text-anchor="middle" x="415.5" y="-13" font-family="Helvetica,sans-Serif" font-size="10.00">itkFixedArray.hxx</text>
</a>
</g>
</g>
<!-- Node7&#45;&gt;Node11 -->
<g id="edge11" class="edge">
<title>Node7&#45;&gt;Node11</title>
<path fill="none" stroke="midnightblue" d="M304.13,-67.48C325.94,-57.49 362.3,-40.85 387.52,-29.31"/>
<polygon fill="midnightblue" stroke="midnightblue" points="389.27,-32.35 396.91,-25.01 386.36,-25.99 389.27,-32.35"/>
</g>
<!-- Node12 -->
<g id="node12" class="node">
<title>Node12</title>
<g id="a_node12"><a xlink:href="itkNumericTraitsFixedArrayPixel_8h.html" target="_top" xlink:title=" ">
<polygon fill="white" stroke="black" points="138,-0.5 138,-30.5 287,-30.5 287,-0.5 138,-0.5"/>
<text text-anchor="start" x="146" y="-18.5" font-family="Helvetica,sans-Serif" font-size="10.00">itkNumericTraitsFixedArray</text>
<text text-anchor="middle" x="212.5" y="-7.5" font-family="Helvetica,sans-Serif" font-size="10.00">Pixel.h</text>
</a>
</g>
</g>
<!-- Node7&#45;&gt;Node12 -->
<g id="edge12" class="edge">
<title>Node7&#45;&gt;Node12</title>
<path fill="none" stroke="midnightblue" d="M270.14,-67.48C258.82,-59.64 243.66,-47.71 231.62,-37.37"/>
<polygon fill="midnightblue" stroke="midnightblue" points="233.69,-34.52 223.87,-30.52 229.05,-39.77 233.69,-34.52"/>
</g>
<!-- Node12&#45;&gt;Node3 -->
<g id="edge13" class="edge">
<title>Node12&#45;&gt;Node3</title>
<path fill="none" stroke="midnightblue" d="M212.75,-30.57C213.78,-46.32 217.82,-71.64 232.5,-87 244.77,-99.84 285.86,-112.46 319.51,-121.05"/>
<polygon fill="midnightblue" stroke="midnightblue" points="318.67,-124.44 329.22,-123.47 320.37,-117.65 318.67,-124.44"/>
</g>
<!-- Node12&#45;&gt;Node7 -->
<g id="edge14" class="edge">
<title>Node12&#45;&gt;Node7</title>
<path fill="none" stroke="midnightblue" d="M235.53,-30.52C247.69,-39.48 262.02,-51.11 272.35,-60.37"/>
<polygon fill="midnightblue" stroke="midnightblue" points="270.25,-63.2 279.94,-67.48 275.03,-58.09 270.25,-63.2"/>
</g>
<!-- Node13&#45;&gt;Node7 -->
<g id="edge16" class="edge">
<title>Node13&#45;&gt;Node7</title>
<path fill="none" stroke="midnightblue" d="M196.96,-235.48C178.02,-223.87 149.79,-201.91 160.5,-179 180.01,-137.26 226.36,-107.35 256.81,-91.37"/>
<polygon fill="midnightblue" stroke="midnightblue" points="258.74,-94.31 266.08,-86.67 255.58,-88.07 258.74,-94.31"/>
</g>
<!-- Node13&#45;&gt;Node14 -->
<g id="edge17" class="edge">
<title>Node13&#45;&gt;Node14</title>
<path fill="none" stroke="midnightblue" d="M187.78,-235.44C161.65,-226.4 120.24,-212.06 90.92,-201.92"/>
<polygon fill="midnightblue" stroke="midnightblue" points="91.7,-198.48 81.1,-198.52 89.41,-205.1 91.7,-198.48"/>
</g>
<!-- Node15 -->
<g id="node15" class="node">
<title>Node15</title>
<g id="a_node15"><a xlink:title=" ">
<polygon fill="white" stroke="#bfbfbf" points="169.5,-179.5 169.5,-198.5 249.5,-198.5 249.5,-179.5 169.5,-179.5"/>
<text text-anchor="middle" x="209.5" y="-186.5" font-family="Helvetica,sans-Serif" font-size="10.00">itkVector.hxx</text>
</a>
</g>
</g>
<!-- Node13&#45;&gt;Node15 -->
<g id="edge18" class="edge">
<title>Node13&#45;&gt;Node15</title>
<path fill="none" stroke="midnightblue" d="M212,-235.08C211.61,-228.01 211.05,-217.86 210.55,-208.99"/>
<polygon fill="midnightblue" stroke="midnightblue" points="214.04,-208.54 209.99,-198.75 207.05,-208.93 214.04,-208.54"/>
</g>
<!-- Node17 -->
<g id="node17" class="node">
<title>Node17</title>
<g id="a_node17"><a xlink:title=" ">
<polygon fill="white" stroke="#bfbfbf" points="765,-179.5 765,-198.5 812,-198.5 812,-179.5 765,-179.5"/>
<text text-anchor="middle" x="788.5" y="-186.5" font-family="Helvetica,sans-Serif" font-size="10.00">cmath</text>
</a>
</g>
</g>
<!-- Node16&#45;&gt;Node17 -->
<g id="edge21" class="edge">
<title>Node16&#45;&gt;Node17</title>
<path fill="none" stroke="midnightblue" d="M626.08,-235.44C661.25,-225.6 718.8,-209.5 755.11,-199.34"/>
<polygon fill="midnightblue" stroke="midnightblue" points="756.07,-202.71 764.75,-196.64 754.18,-195.97 756.07,-202.71"/>
</g>
<!-- Node18 -->
<g id="node18" class="node">
<title>Node18</title>
<g id="a_node18"><a xlink:href="itkMathDetail_8h.html" target="_top" xlink:title=" ">
<polygon fill="white" stroke="black" points="654.5,-179.5 654.5,-198.5 746.5,-198.5 746.5,-179.5 654.5,-179.5"/>
<text text-anchor="middle" x="700.5" y="-186.5" font-family="Helvetica,sans-Serif" font-size="10.00">itkMathDetail.h</text>
</a>
</g>
</g>
<!-- Node16&#45;&gt;Node18 -->
<g id="edge22" class="edge">
<title>Node16&#45;&gt;Node18</title>
<path fill="none" stroke="midnightblue" d="M612.37,-235.32C629.21,-226.66 655.31,-213.24 674.74,-203.25"/>
<polygon fill="midnightblue" stroke="midnightblue" points="676.38,-206.34 683.67,-198.65 673.18,-200.12 676.38,-206.34"/>
</g>
<!-- Node23 -->
<g id="node23" class="node">
<title>Node23</title>
<g id="a_node23"><a xlink:href="itkConceptChecking_8h.html" target="_top" xlink:title=" ">
<polygon fill="white" stroke="black" points="306,-179.5 306,-198.5 429,-198.5 429,-179.5 306,-179.5"/>
<text text-anchor="middle" x="367.5" y="-186.5" font-family="Helvetica,sans-Serif" font-size="10.00">itkConceptChecking.h</text>
</a>
</g>
</g>
<!-- Node16&#45;&gt;Node23 -->
<g id="edge29" class="edge">
<title>Node16&#45;&gt;Node23</title>
<path fill="none" stroke="midnightblue" d="M563.8,-236.49C524.67,-227.22 457.83,-211.39 413.17,-200.82"/>
<polygon fill="midnightblue" stroke="midnightblue" points="413.98,-197.41 403.44,-198.51 412.36,-204.22 413.98,-197.41"/>
</g>
<!-- Node26 -->
<g id="node26" class="node">
<title>Node26</title>
<g id="a_node26"><a xlink:title=" ">
<polygon fill="white" stroke="#bfbfbf" points="447,-179.5 447,-198.5 536,-198.5 536,-179.5 447,-179.5"/>
<text text-anchor="middle" x="491.5" y="-186.5" font-family="Helvetica,sans-Serif" font-size="10.00">vnl/vnl_math.h</text>
</a>
</g>
</g>
<!-- Node16&#45;&gt;Node26 -->
<g id="edge34" class="edge">
<title>Node16&#45;&gt;Node26</title>
<path fill="none" stroke="midnightblue" d="M578.79,-235.32C562.19,-226.7 536.5,-213.36 517.28,-203.39"/>
<polygon fill="midnightblue" stroke="midnightblue" points="518.66,-200.16 508.17,-198.65 515.43,-206.37 518.66,-200.16"/>
</g>
<!-- Node27 -->
<g id="node27" class="node">
<title>Node27</title>
<g id="a_node27"><a xlink:title=" ">
<polygon fill="white" stroke="#bfbfbf" points="554.5,-179.5 554.5,-198.5 636.5,-198.5 636.5,-179.5 554.5,-179.5"/>
<text text-anchor="middle" x="595.5" y="-186.5" font-family="Helvetica,sans-Serif" font-size="10.00">vxl_version.h</text>
</a>
</g>
</g>
<!-- Node16&#45;&gt;Node27 -->
<g id="edge35" class="edge">
<title>Node16&#45;&gt;Node27</title>
<path fill="none" stroke="midnightblue" d="M595.5,-235.08C595.5,-228.01 595.5,-217.86 595.5,-208.99"/>
<polygon fill="midnightblue" stroke="midnightblue" points="599,-208.75 595.5,-198.75 592,-208.75 599,-208.75"/>
</g>
<!-- Node18&#45;&gt;Node3 -->
<g id="edge27" class="edge">
<title>Node18&#45;&gt;Node3</title>
<path fill="none" stroke="midnightblue" d="M654.29,-180.43C651.31,-179.95 648.36,-179.47 645.5,-179 571.68,-166.99 486.81,-153.26 430.46,-144.16"/>
<polygon fill="midnightblue" stroke="midnightblue" points="430.71,-140.66 420.28,-142.52 429.6,-147.57 430.71,-140.66"/>
</g>
<!-- Node19 -->
<g id="node19" class="node">
<title>Node19</title>
<g id="a_node19"><a xlink:href="itkIntTypes_8h.html" target="_top" xlink:title=" ">
<polygon fill="white" stroke="black" points="671,-123.5 671,-142.5 750,-142.5 750,-123.5 671,-123.5"/>
<text text-anchor="middle" x="710.5" y="-130.5" font-family="Helvetica,sans-Serif" font-size="10.00">itkIntTypes.h</text>
</a>
</g>
</g>
<!-- Node18&#45;&gt;Node19 -->
<g id="edge23" class="edge">
<title>Node18&#45;&gt;Node19</title>
<path fill="none" stroke="midnightblue" d="M702.15,-179.08C703.48,-171.93 705.38,-161.64 707.04,-152.69"/>
<polygon fill="midnightblue" stroke="midnightblue" points="710.5,-153.22 708.88,-142.75 703.62,-151.95 710.5,-153.22"/>
</g>
<!-- Node22 -->
<g id="node22" class="node">
<title>Node22</title>
<g id="a_node22"><a xlink:title=" ">
<polygon fill="white" stroke="#bfbfbf" points="476.5,-123.5 476.5,-142.5 520.5,-142.5 520.5,-123.5 476.5,-123.5"/>
<text text-anchor="middle" x="498.5" y="-130.5" font-family="Helvetica,sans-Serif" font-size="10.00">cfenv</text>
</a>
</g>
</g>
<!-- Node18&#45;&gt;Node22 -->
<g id="edge28" class="edge">
<title>Node18&#45;&gt;Node22</title>
<path fill="none" stroke="midnightblue" d="M668.49,-179.44C630.77,-169.36 568.44,-152.7 530.65,-142.6"/>
<polygon fill="midnightblue" stroke="midnightblue" points="531.25,-139.13 520.69,-139.93 529.44,-145.89 531.25,-139.13"/>
</g>
<!-- Node19&#45;&gt;Node4 -->
<g id="edge24" class="edge">
<title>Node19&#45;&gt;Node4</title>
<path fill="none" stroke="midnightblue" d="M739.66,-123.47C771.59,-112.62 815.88,-92.23 796.5,-67 778.99,-44.19 701.95,-29.46 651.8,-22.1"/>
<polygon fill="midnightblue" stroke="midnightblue" points="652.23,-18.63 641.84,-20.69 651.25,-25.56 652.23,-18.63"/>
</g>
<!-- Node20 -->
<g id="node20" class="node">
<title>Node20</title>
<g id="a_node20"><a xlink:title=" ">
<polygon fill="white" stroke="#bfbfbf" points="669.5,-67.5 669.5,-86.5 719.5,-86.5 719.5,-67.5 669.5,-67.5"/>
<text text-anchor="middle" x="694.5" y="-74.5" font-family="Helvetica,sans-Serif" font-size="10.00">cstdint</text>
</a>
</g>
</g>
<!-- Node19&#45;&gt;Node20 -->
<g id="edge25" class="edge">
<title>Node19&#45;&gt;Node20</title>
<path fill="none" stroke="midnightblue" d="M707.86,-123.08C705.71,-115.85 702.62,-105.41 699.95,-96.4"/>
<polygon fill="midnightblue" stroke="midnightblue" points="703.29,-95.34 697.09,-86.75 696.58,-97.33 703.29,-95.34"/>
</g>
<!-- Node21 -->
<g id="node21" class="node">
<title>Node21</title>
<g id="a_node21"><a xlink:title=" ">
<polygon fill="white" stroke="#bfbfbf" points="737.5,-67.5 737.5,-86.5 787.5,-86.5 787.5,-67.5 737.5,-67.5"/>
<text text-anchor="middle" x="762.5" y="-74.5" font-family="Helvetica,sans-Serif" font-size="10.00">climits</text>
</a>
</g>
</g>
<!-- Node19&#45;&gt;Node21 -->
<g id="edge26" class="edge">
<title>Node19&#45;&gt;Node21</title>
<path fill="none" stroke="midnightblue" d="M719.09,-123.08C726.66,-115.22 737.88,-103.57 747.01,-94.08"/>
<polygon fill="midnightblue" stroke="midnightblue" points="749.66,-96.38 754.07,-86.75 744.62,-91.53 749.66,-96.38"/>
</g>
<!-- Node23&#45;&gt;Node3 -->
<g id="edge32" class="edge">
<title>Node23&#45;&gt;Node3</title>
<path fill="none" stroke="midnightblue" d="M367.5,-179.08C367.5,-172.01 367.5,-161.86 367.5,-152.99"/>
<polygon fill="midnightblue" stroke="midnightblue" points="371,-152.75 367.5,-142.75 364,-152.75 371,-152.75"/>
</g>
<!-- Node24 -->
<g id="node24" class="node">
<title>Node24</title>
<g id="a_node24"><a xlink:href="itkPixelTraits_8h.html" target="_top" xlink:title=" ">
<polygon fill="white" stroke="black" points="563.5,-67.5 563.5,-86.5 651.5,-86.5 651.5,-67.5 563.5,-67.5"/>
<text text-anchor="middle" x="607.5" y="-74.5" font-family="Helvetica,sans-Serif" font-size="10.00">itkPixelTraits.h</text>
</a>
</g>
</g>
<!-- Node23&#45;&gt;Node24 -->
<g id="edge30" class="edge">
<title>Node23&#45;&gt;Node24</title>
<path fill="none" stroke="midnightblue" d="M378.62,-179.35C396.48,-165.78 433.09,-139.36 467.5,-123 498,-108.51 534.35,-96.98 562.37,-89.22"/>
<polygon fill="midnightblue" stroke="midnightblue" points="563.55,-92.52 572.29,-86.53 561.72,-85.77 563.55,-92.52"/>
</g>
<!-- Node25 -->
<g id="node25" class="node">
<title>Node25</title>
<g id="a_node25"><a xlink:title=" ">
<polygon fill="white" stroke="#bfbfbf" points="236.5,-123.5 236.5,-142.5 296.5,-142.5 296.5,-123.5 236.5,-123.5"/>
<text text-anchor="middle" x="266.5" y="-130.5" font-family="Helvetica,sans-Serif" font-size="10.00">iostream</text>
</a>
</g>
</g>
<!-- Node23&#45;&gt;Node25 -->
<g id="edge33" class="edge">
<title>Node23&#45;&gt;Node25</title>
<path fill="none" stroke="midnightblue" d="M351.27,-179.32C335.15,-170.7 310.2,-157.36 291.54,-147.39"/>
<polygon fill="midnightblue" stroke="midnightblue" points="293.16,-144.28 282.69,-142.65 289.86,-150.46 293.16,-144.28"/>
</g>
<!-- Node24&#45;&gt;Node4 -->
<g id="edge31" class="edge">
<title>Node24&#45;&gt;Node4</title>
<path fill="none" stroke="midnightblue" d="M607.5,-67.48C607.5,-59.08 607.5,-45.98 607.5,-35.16"/>
<polygon fill="midnightblue" stroke="midnightblue" points="611,-35.01 607.5,-25.01 604,-35.01 611,-35.01"/>
</g>
<!-- Node29&#45;&gt;Node8 -->
<g id="edge38" class="edge">
<title>Node29&#45;&gt;Node8</title>
<path fill="none" stroke="midnightblue" d="M918.45,-347.48C953.79,-332.71 1017.5,-298.76 1017.5,-246 1017.5,-246 1017.5,-246 1017.5,-132 1017.5,-81.06 960.85,-46.5 923.52,-29.26"/>
<polygon fill="midnightblue" stroke="midnightblue" points="924.59,-25.91 914.03,-25.06 921.75,-32.31 924.59,-25.91"/>
</g>
<!-- Node30 -->
<g id="node30" class="node">
<title>Node30</title>
<g id="a_node30"><a xlink:href="itkOffset_8h.html" target="_top" xlink:title=" ">
<polygon fill="white" stroke="black" points="822.5,-291.5 822.5,-310.5 890.5,-310.5 890.5,-291.5 822.5,-291.5"/>
<text text-anchor="middle" x="856.5" y="-298.5" font-family="Helvetica,sans-Serif" font-size="10.00">itkOffset.h</text>
</a>
</g>
</g>
<!-- Node29&#45;&gt;Node30 -->
<g id="edge39" class="edge">
<title>Node29&#45;&gt;Node30</title>
<path fill="none" stroke="midnightblue" d="M889.06,-347.08C883.55,-339.46 875.47,-328.26 868.74,-318.94"/>
<polygon fill="midnightblue" stroke="midnightblue" points="871.51,-316.81 862.82,-310.75 865.84,-320.91 871.51,-316.81"/>
</g>
<!-- Node29&#45;&gt;Node32 -->
<g id="edge48" class="edge">
<title>Node29&#45;&gt;Node32</title>
<path fill="none" stroke="midnightblue" d="M897.84,-347.16C904.7,-321.29 925.33,-243.52 942.5,-179 944.82,-170.3 947.39,-160.65 949.55,-152.53"/>
<polygon fill="midnightblue" stroke="midnightblue" points="953,-153.19 952.2,-142.63 946.24,-151.39 953,-153.19"/>
</g>
<!-- Node30&#45;&gt;Node16 -->
<g id="edge47" class="edge">
<title>Node30&#45;&gt;Node16</title>
<path fill="none" stroke="midnightblue" d="M822.38,-292.94C774.81,-283.1 688.63,-265.27 637.27,-254.64"/>
<polygon fill="midnightblue" stroke="midnightblue" points="637.68,-251.15 627.18,-252.55 636.26,-258.01 637.68,-251.15"/>
</g>
<!-- Node31 -->
<g id="node31" class="node">
<title>Node31</title>
<g id="a_node31"><a xlink:href="itkSize_8h.html" target="_top" xlink:title=" ">
<polygon fill="white" stroke="black" points="830,-179.5 830,-198.5 889,-198.5 889,-179.5 830,-179.5"/>
<text text-anchor="middle" x="859.5" y="-186.5" font-family="Helvetica,sans-Serif" font-size="10.00">itkSize.h</text>
</a>
</g>
</g>
<!-- Node30&#45;&gt;Node31 -->
<g id="edge40" class="edge">
<title>Node30&#45;&gt;Node31</title>
<path fill="none" stroke="midnightblue" d="M856.74,-291.37C857.22,-273.62 858.34,-232.67 858.99,-208.6"/>
<polygon fill="midnightblue" stroke="midnightblue" points="862.49,-208.68 859.27,-198.59 855.49,-208.49 862.49,-208.68"/>
</g>
<!-- Node31&#45;&gt;Node4 -->
<g id="edge42" class="edge">
<title>Node31&#45;&gt;Node4</title>
<path fill="none" stroke="midnightblue" d="M858.82,-179.45C856.58,-157.29 847.43,-97.58 812.5,-67 767.72,-27.81 697.29,-18.01 651.75,-16.09"/>
<polygon fill="midnightblue" stroke="midnightblue" points="651.69,-12.59 641.59,-15.78 651.47,-19.59 651.69,-12.59"/>
</g>
<!-- Node31&#45;&gt;Node8 -->
<g id="edge43" class="edge">
<title>Node31&#45;&gt;Node8</title>
<path fill="none" stroke="midnightblue" d="M861.13,-179.26C866.12,-152.54 881.23,-71.52 888.07,-34.86"/>
<polygon fill="midnightblue" stroke="midnightblue" points="891.52,-35.49 889.91,-25.02 884.64,-34.21 891.52,-35.49"/>
</g>
<!-- Node31&#45;&gt;Node9 -->
<g id="edge44" class="edge">
<title>Node31&#45;&gt;Node9</title>
<path fill="none" stroke="midnightblue" d="M829.64,-180.9C826.89,-180.25 824.14,-179.61 821.5,-179 699.22,-150.68 641.96,-177.03 554.5,-87 540.33,-72.41 531.11,-50.78 525.89,-35.33"/>
<polygon fill="midnightblue" stroke="midnightblue" points="529.1,-33.87 522.79,-25.36 522.42,-35.95 529.1,-33.87"/>
</g>
<!-- Node31&#45;&gt;Node19 -->
<g id="edge41" class="edge">
<title>Node31&#45;&gt;Node19</title>
<path fill="none" stroke="midnightblue" d="M835.89,-179.44C811.04,-170.44 771.73,-156.19 743.75,-146.05"/>
<polygon fill="midnightblue" stroke="midnightblue" points="744.59,-142.63 734,-142.52 742.21,-149.21 744.59,-142.63"/>
</g>
<!-- Node31&#45;&gt;Node32 -->
<g id="edge45" class="edge">
<title>Node31&#45;&gt;Node32</title>
<path fill="none" stroke="midnightblue" d="M874.76,-179.32C889.72,-170.82 912.75,-157.73 930.23,-147.8"/>
<polygon fill="midnightblue" stroke="midnightblue" points="932.31,-150.64 939.27,-142.65 928.85,-144.55 932.31,-150.64"/>
</g>
<!-- Node33 -->
<g id="node33" class="node">
<title>Node33</title>
<g id="a_node33"><a xlink:title=" ">
<polygon fill="white" stroke="#bfbfbf" points="767.5,-123.5 767.5,-142.5 825.5,-142.5 825.5,-123.5 767.5,-123.5"/>
<text text-anchor="middle" x="796.5" y="-130.5" font-family="Helvetica,sans-Serif" font-size="10.00">memory</text>
</a>
</g>
</g>
<!-- Node31&#45;&gt;Node33 -->
<g id="edge46" class="edge">
<title>Node31&#45;&gt;Node33</title>
<path fill="none" stroke="midnightblue" d="M849.38,-179.32C839.97,-171.26 825.76,-159.08 814.43,-149.37"/>
<polygon fill="midnightblue" stroke="midnightblue" points="816.68,-146.68 806.81,-142.83 812.12,-152 816.68,-146.68"/>
</g>
</g>
</svg>
