<?xml version="1.0" encoding="UTF-8" standalone="no"?>
<!DOCTYPE svg PUBLIC "-//W3C//DTD SVG 1.1//EN"
 "http://www.w3.org/Graphics/SVG/1.1/DTD/svg11.dtd">
<!-- Generated by graphviz version 2.43.0 (0)
 -->
<!-- Title: itkCopperColormapFunction.h Pages: 1 -->
<svg width="1414pt" height="655pt"
 viewBox="0.00 0.00 1414.00 655.00" xmlns="http://www.w3.org/2000/svg" xmlns:xlink="http://www.w3.org/1999/xlink">
<g id="graph0" class="graph" transform="scale(1 1) rotate(0) translate(4 651)">
<title>itkCopperColormapFunction.h</title>
<polygon fill="white" stroke="transparent" points="-4,4 -4,-651 1410,-651 1410,4 -4,4"/>
<!-- Node1 -->
<g id="node1" class="node">
<title>Node1</title>
<g id="a_node1"><a xlink:title=" ">
<polygon fill="#bfbfbf" stroke="black" points="938.5,-627.5 938.5,-646.5 1099.5,-646.5 1099.5,-627.5 938.5,-627.5"/>
<text text-anchor="middle" x="1019" y="-634.5" font-family="Helvetica,sans-Serif" font-size="10.00">itkCopperColormapFunction.h</text>
</a>
</g>
</g>
<!-- Node2 -->
<g id="node2" class="node">
<title>Node2</title>
<g id="a_node2"><a xlink:href="itkColormapFunction_8h.html" target="_top" xlink:title=" ">
<polygon fill="white" stroke="black" points="871.5,-571.5 871.5,-590.5 998.5,-590.5 998.5,-571.5 871.5,-571.5"/>
<text text-anchor="middle" x="935" y="-578.5" font-family="Helvetica,sans-Serif" font-size="10.00">itkColormapFunction.h</text>
</a>
</g>
</g>
<!-- Node1&#45;&gt;Node2 -->
<g id="edge1" class="edge">
<title>Node1&#45;&gt;Node2</title>
<path fill="none" stroke="midnightblue" d="M1005.5,-627.32C992.4,-618.9 972.29,-605.97 956.89,-596.07"/>
<polygon fill="midnightblue" stroke="midnightblue" points="958.77,-593.12 948.46,-590.65 954.98,-599.01 958.77,-593.12"/>
</g>
<!-- Node53 -->
<g id="node53" class="node">
<title>Node53</title>
<g id="a_node53"><a xlink:title=" ">
<polygon fill="white" stroke="#bfbfbf" points="1016.5,-571.5 1016.5,-590.5 1189.5,-590.5 1189.5,-571.5 1016.5,-571.5"/>
<text text-anchor="middle" x="1103" y="-578.5" font-family="Helvetica,sans-Serif" font-size="10.00">itkCopperColormapFunction.hxx</text>
</a>
</g>
</g>
<!-- Node1&#45;&gt;Node53 -->
<g id="edge81" class="edge">
<title>Node1&#45;&gt;Node53</title>
<path fill="none" stroke="midnightblue" d="M1032.5,-627.32C1045.6,-618.9 1065.71,-605.97 1081.11,-596.07"/>
<polygon fill="midnightblue" stroke="midnightblue" points="1083.02,-599.01 1089.54,-590.65 1079.23,-593.12 1083.02,-599.01"/>
</g>
<!-- Node3 -->
<g id="node3" class="node">
<title>Node3</title>
<g id="a_node3"><a xlink:href="itkObject_8h.html" target="_top" xlink:title=" ">
<polygon fill="white" stroke="black" points="568,-347.5 568,-366.5 638,-366.5 638,-347.5 568,-347.5"/>
<text text-anchor="middle" x="603" y="-354.5" font-family="Helvetica,sans-Serif" font-size="10.00">itkObject.h</text>
</a>
</g>
</g>
<!-- Node2&#45;&gt;Node3 -->
<g id="edge2" class="edge">
<title>Node2&#45;&gt;Node3</title>
<path fill="none" stroke="midnightblue" d="M927.49,-571.31C902.69,-543.09 820.03,-453 734,-403 707.18,-387.41 674.12,-376.11 647.92,-368.73"/>
<polygon fill="midnightblue" stroke="midnightblue" points="648.81,-365.34 638.24,-366.09 646.97,-372.09 648.81,-365.34"/>
</g>
<!-- Node28 -->
<g id="node28" class="node">
<title>Node28</title>
<g id="a_node28"><a xlink:href="itkObjectFactory_8h.html" target="_top" xlink:title=" ">
<polygon fill="white" stroke="black" points="684,-515.5 684,-534.5 788,-534.5 788,-515.5 684,-515.5"/>
<text text-anchor="middle" x="736" y="-522.5" font-family="Helvetica,sans-Serif" font-size="10.00">itkObjectFactory.h</text>
</a>
</g>
</g>
<!-- Node2&#45;&gt;Node28 -->
<g id="edge38" class="edge">
<title>Node2&#45;&gt;Node28</title>
<path fill="none" stroke="midnightblue" d="M903.47,-571.44C869.41,-562.2 814.99,-547.44 777.48,-537.26"/>
<polygon fill="midnightblue" stroke="midnightblue" points="777.95,-533.76 767.38,-534.52 776.12,-540.51 777.95,-533.76"/>
</g>
<!-- Node34 -->
<g id="node34" class="node">
<title>Node34</title>
<g id="a_node34"><a xlink:href="itkNumericTraits_8h.html" target="_top" xlink:title=" ">
<polygon fill="white" stroke="black" points="1045,-123.5 1045,-142.5 1151,-142.5 1151,-123.5 1045,-123.5"/>
<text text-anchor="middle" x="1098" y="-130.5" font-family="Helvetica,sans-Serif" font-size="10.00">itkNumericTraits.h</text>
</a>
</g>
</g>
<!-- Node2&#45;&gt;Node34 -->
<g id="edge48" class="edge">
<title>Node2&#45;&gt;Node34</title>
<path fill="none" stroke="midnightblue" d="M998.52,-571.75C1127.08,-554.2 1406,-511.36 1406,-470 1406,-470 1406,-470 1406,-244 1406,-209.84 1393.43,-197.93 1365,-179 1332.48,-157.35 1229.63,-144.84 1161.49,-138.73"/>
<polygon fill="midnightblue" stroke="midnightblue" points="1161.55,-135.22 1151.28,-137.84 1160.94,-142.2 1161.55,-135.22"/>
</g>
<!-- Node42 -->
<g id="node42" class="node">
<title>Node42</title>
<g id="a_node42"><a xlink:href="itkRGBPixel_8h.html" target="_top" xlink:title=" ">
<polygon fill="white" stroke="black" points="964.5,-291.5 964.5,-310.5 1047.5,-310.5 1047.5,-291.5 964.5,-291.5"/>
<text text-anchor="middle" x="1006" y="-298.5" font-family="Helvetica,sans-Serif" font-size="10.00">itkRGBPixel.h</text>
</a>
</g>
</g>
<!-- Node2&#45;&gt;Node42 -->
<g id="edge61" class="edge">
<title>Node2&#45;&gt;Node42</title>
<path fill="none" stroke="midnightblue" d="M938.24,-571.3C944.79,-552.89 959,-508.51 959,-470 959,-470 959,-470 959,-412 959,-376.7 979.72,-339.79 993.64,-318.96"/>
<polygon fill="midnightblue" stroke="midnightblue" points="996.63,-320.8 999.46,-310.59 990.88,-316.8 996.63,-320.8"/>
</g>
<!-- Node4 -->
<g id="node4" class="node">
<title>Node4</title>
<g id="a_node4"><a xlink:href="itkLightObject_8h.html" target="_top" xlink:title=" ">
<polygon fill="white" stroke="black" points="432,-179.5 432,-198.5 526,-198.5 526,-179.5 432,-179.5"/>
<text text-anchor="middle" x="479" y="-186.5" font-family="Helvetica,sans-Serif" font-size="10.00">itkLightObject.h</text>
</a>
</g>
</g>
<!-- Node3&#45;&gt;Node4 -->
<g id="edge3" class="edge">
<title>Node3&#45;&gt;Node4</title>
<path fill="none" stroke="midnightblue" d="M607.15,-347.44C612.67,-334.86 621.07,-310.74 615,-291 606.17,-262.25 599.96,-254.43 577,-235 559.64,-220.3 536.69,-209.42 517.36,-202.05"/>
<polygon fill="midnightblue" stroke="midnightblue" points="518.52,-198.74 507.92,-198.6 516.12,-205.32 518.52,-198.74"/>
</g>
<!-- Node16 -->
<g id="node16" class="node">
<title>Node16</title>
<g id="a_node16"><a xlink:href="itkSingletonMacro_8h.html" target="_top" xlink:title=" ">
<polygon fill="white" stroke="black" points="0,-67.5 0,-86.5 114,-86.5 114,-67.5 0,-67.5"/>
<text text-anchor="middle" x="57" y="-74.5" font-family="Helvetica,sans-Serif" font-size="10.00">itkSingletonMacro.h</text>
</a>
</g>
</g>
<!-- Node3&#45;&gt;Node16 -->
<g id="edge36" class="edge">
<title>Node3&#45;&gt;Node16</title>
<path fill="none" stroke="midnightblue" d="M567.74,-356.15C450.03,-355.7 78,-346.34 78,-246 78,-246 78,-246 78,-188 78,-155.38 68.98,-118.28 62.77,-96.57"/>
<polygon fill="midnightblue" stroke="midnightblue" points="66.04,-95.32 59.83,-86.73 59.33,-97.32 66.04,-95.32"/>
</g>
<!-- Node19 -->
<g id="node19" class="node">
<title>Node19</title>
<g id="a_node19"><a xlink:href="itkEventObject_8h.html" target="_top" xlink:title=" ">
<polygon fill="white" stroke="black" points="662,-291.5 662,-310.5 760,-310.5 760,-291.5 662,-291.5"/>
<text text-anchor="middle" x="711" y="-298.5" font-family="Helvetica,sans-Serif" font-size="10.00">itkEventObject.h</text>
</a>
</g>
</g>
<!-- Node3&#45;&gt;Node19 -->
<g id="edge24" class="edge">
<title>Node3&#45;&gt;Node19</title>
<path fill="none" stroke="midnightblue" d="M620.35,-347.32C637.67,-338.66 664.52,-325.24 684.5,-315.25"/>
<polygon fill="midnightblue" stroke="midnightblue" points="686.31,-318.26 693.69,-310.65 683.18,-312 686.31,-318.26"/>
</g>
<!-- Node20 -->
<g id="node20" class="node">
<title>Node20</title>
<g id="a_node20"><a xlink:href="itkMetaDataDictionary_8h.html" target="_top" xlink:title=" ">
<polygon fill="white" stroke="black" points="387.5,-291.5 387.5,-310.5 522.5,-310.5 522.5,-291.5 387.5,-291.5"/>
<text text-anchor="middle" x="455" y="-298.5" font-family="Helvetica,sans-Serif" font-size="10.00">itkMetaDataDictionary.h</text>
</a>
</g>
</g>
<!-- Node3&#45;&gt;Node20 -->
<g id="edge26" class="edge">
<title>Node3&#45;&gt;Node20</title>
<path fill="none" stroke="midnightblue" d="M579.55,-347.44C554.87,-338.44 515.81,-324.19 488.02,-314.05"/>
<polygon fill="midnightblue" stroke="midnightblue" points="488.94,-310.66 478.34,-310.52 486.54,-317.23 488.94,-310.66"/>
</g>
<!-- Node27 -->
<g id="node27" class="node">
<title>Node27</title>
<g id="a_node27"><a xlink:title=" ">
<polygon fill="white" stroke="#bfbfbf" points="540.5,-291.5 540.5,-310.5 605.5,-310.5 605.5,-291.5 540.5,-291.5"/>
<text text-anchor="middle" x="573" y="-298.5" font-family="Helvetica,sans-Serif" font-size="10.00">functional</text>
</a>
</g>
</g>
<!-- Node3&#45;&gt;Node27 -->
<g id="edge37" class="edge">
<title>Node3&#45;&gt;Node27</title>
<path fill="none" stroke="midnightblue" d="M598.05,-347.08C593.9,-339.61 587.85,-328.72 582.73,-319.52"/>
<polygon fill="midnightblue" stroke="midnightblue" points="585.78,-317.79 577.86,-310.75 579.66,-321.19 585.78,-317.79"/>
</g>
<!-- Node5 -->
<g id="node5" class="node">
<title>Node5</title>
<g id="a_node5"><a xlink:href="itkMacro_8h.html" target="_top" xlink:title=" ">
<polygon fill="white" stroke="black" points="636,-6 636,-25 704,-25 704,-6 636,-6"/>
<text text-anchor="middle" x="670" y="-13" font-family="Helvetica,sans-Serif" font-size="10.00">itkMacro.h</text>
</a>
</g>
</g>
<!-- Node4&#45;&gt;Node5 -->
<g id="edge4" class="edge">
<title>Node4&#45;&gt;Node5</title>
<path fill="none" stroke="midnightblue" d="M491.29,-179.46C503.67,-170.71 523.14,-156.51 539,-143 562.1,-123.32 624.21,-62.03 653.84,-32.6"/>
<polygon fill="midnightblue" stroke="midnightblue" points="656.66,-34.73 661.28,-25.2 651.72,-29.77 656.66,-34.73"/>
</g>
<!-- Node6 -->
<g id="node6" class="node">
<title>Node6</title>
<g id="a_node6"><a xlink:href="itkSmartPointer_8h.html" target="_top" xlink:title=" ">
<polygon fill="white" stroke="black" points="428.5,-123.5 428.5,-142.5 529.5,-142.5 529.5,-123.5 428.5,-123.5"/>
<text text-anchor="middle" x="479" y="-130.5" font-family="Helvetica,sans-Serif" font-size="10.00">itkSmartPointer.h</text>
</a>
</g>
</g>
<!-- Node4&#45;&gt;Node6 -->
<g id="edge5" class="edge">
<title>Node4&#45;&gt;Node6</title>
<path fill="none" stroke="midnightblue" d="M479,-179.08C479,-172.01 479,-161.86 479,-152.99"/>
<polygon fill="midnightblue" stroke="midnightblue" points="482.5,-152.75 479,-142.75 475.5,-152.75 482.5,-152.75"/>
</g>
<!-- Node7 -->
<g id="node7" class="node">
<title>Node7</title>
<g id="a_node7"><a xlink:title=" ">
<polygon fill="white" stroke="#bfbfbf" points="628,-67.5 628,-86.5 688,-86.5 688,-67.5 628,-67.5"/>
<text text-anchor="middle" x="658" y="-74.5" font-family="Helvetica,sans-Serif" font-size="10.00">iostream</text>
</a>
</g>
</g>
<!-- Node4&#45;&gt;Node7 -->
<g id="edge22" class="edge">
<title>Node4&#45;&gt;Node7</title>
<path fill="none" stroke="midnightblue" d="M499.56,-179.45C518.82,-171.12 548.13,-157.6 572,-143 596.74,-127.87 623.05,-107.23 639.95,-93.31"/>
<polygon fill="midnightblue" stroke="midnightblue" points="642.44,-95.79 647.88,-86.7 637.96,-90.41 642.44,-95.79"/>
</g>
<!-- Node11 -->
<g id="node11" class="node">
<title>Node11</title>
<g id="a_node11"><a xlink:href="itkTimeStamp_8h.html" target="_top" xlink:title=" ">
<polygon fill="white" stroke="black" points="238.5,-123.5 238.5,-142.5 333.5,-142.5 333.5,-123.5 238.5,-123.5"/>
<text text-anchor="middle" x="286" y="-130.5" font-family="Helvetica,sans-Serif" font-size="10.00">itkTimeStamp.h</text>
</a>
</g>
</g>
<!-- Node4&#45;&gt;Node11 -->
<g id="edge10" class="edge">
<title>Node4&#45;&gt;Node11</title>
<path fill="none" stroke="midnightblue" d="M448.42,-179.44C415.39,-170.2 362.61,-155.44 326.23,-145.26"/>
<polygon fill="midnightblue" stroke="midnightblue" points="327.01,-141.84 316.44,-142.52 325.13,-148.58 327.01,-141.84"/>
</g>
<!-- Node15 -->
<g id="node15" class="node">
<title>Node15</title>
<g id="a_node15"><a xlink:title=" ">
<polygon fill="white" stroke="#bfbfbf" points="268,-67.5 268,-86.5 318,-86.5 318,-67.5 268,-67.5"/>
<text text-anchor="middle" x="293" y="-74.5" font-family="Helvetica,sans-Serif" font-size="10.00">atomic</text>
</a>
</g>
</g>
<!-- Node4&#45;&gt;Node15 -->
<g id="edge21" class="edge">
<title>Node4&#45;&gt;Node15</title>
<path fill="none" stroke="midnightblue" d="M464.4,-179.37C432.35,-160.41 355.56,-115 316.58,-91.94"/>
<polygon fill="midnightblue" stroke="midnightblue" points="317.92,-88.67 307.53,-86.59 314.35,-94.69 317.92,-88.67"/>
</g>
<!-- Node17 -->
<g id="node17" class="node">
<title>Node17</title>
<g id="a_node17"><a xlink:href="itkIndent_8h.html" target="_top" xlink:title=" ">
<polygon fill="white" stroke="black" points="662.5,-123.5 662.5,-142.5 731.5,-142.5 731.5,-123.5 662.5,-123.5"/>
<text text-anchor="middle" x="697" y="-130.5" font-family="Helvetica,sans-Serif" font-size="10.00">itkIndent.h</text>
</a>
</g>
</g>
<!-- Node4&#45;&gt;Node17 -->
<g id="edge18" class="edge">
<title>Node4&#45;&gt;Node17</title>
<path fill="none" stroke="midnightblue" d="M513.54,-179.44C551.25,-170.1 611.74,-155.12 652.86,-144.93"/>
<polygon fill="midnightblue" stroke="midnightblue" points="653.75,-148.32 662.62,-142.52 652.07,-141.52 653.75,-148.32"/>
</g>
<!-- Node18 -->
<g id="node18" class="node">
<title>Node18</title>
<g id="a_node18"><a xlink:title=" ">
<polygon fill="white" stroke="#bfbfbf" points="163.5,-123.5 163.5,-142.5 220.5,-142.5 220.5,-123.5 163.5,-123.5"/>
<text text-anchor="middle" x="192" y="-130.5" font-family="Helvetica,sans-Serif" font-size="10.00">typeinfo</text>
</a>
</g>
</g>
<!-- Node4&#45;&gt;Node18 -->
<g id="edge23" class="edge">
<title>Node4&#45;&gt;Node18</title>
<path fill="none" stroke="midnightblue" d="M431.58,-180.21C383.53,-172.14 306.83,-158.79 230.83,-143.08"/>
<polygon fill="midnightblue" stroke="midnightblue" points="231.1,-139.56 220.6,-140.95 229.67,-146.41 231.1,-139.56"/>
</g>
<!-- Node6&#45;&gt;Node7 -->
<g id="edge6" class="edge">
<title>Node6&#45;&gt;Node7</title>
<path fill="none" stroke="midnightblue" d="M507.36,-123.44C537.74,-114.28 586.11,-99.69 619.82,-89.52"/>
<polygon fill="midnightblue" stroke="midnightblue" points="621.21,-92.76 629.77,-86.52 619.18,-86.05 621.21,-92.76"/>
</g>
<!-- Node8 -->
<g id="node8" class="node">
<title>Node8</title>
<g id="a_node8"><a xlink:title=" ">
<polygon fill="white" stroke="#bfbfbf" points="336.5,-67.5 336.5,-86.5 381.5,-86.5 381.5,-67.5 336.5,-67.5"/>
<text text-anchor="middle" x="359" y="-74.5" font-family="Helvetica,sans-Serif" font-size="10.00">utility</text>
</a>
</g>
</g>
<!-- Node6&#45;&gt;Node8 -->
<g id="edge7" class="edge">
<title>Node6&#45;&gt;Node8</title>
<path fill="none" stroke="midnightblue" d="M459.99,-123.44C440.41,-114.64 409.69,-100.81 387.27,-90.72"/>
<polygon fill="midnightblue" stroke="midnightblue" points="388.48,-87.43 377.93,-86.52 385.61,-93.81 388.48,-87.43"/>
</g>
<!-- Node9 -->
<g id="node9" class="node">
<title>Node9</title>
<g id="a_node9"><a xlink:title=" ">
<polygon fill="white" stroke="#bfbfbf" points="399.5,-67.5 399.5,-86.5 468.5,-86.5 468.5,-67.5 399.5,-67.5"/>
<text text-anchor="middle" x="434" y="-74.5" font-family="Helvetica,sans-Serif" font-size="10.00">type_traits</text>
</a>
</g>
</g>
<!-- Node6&#45;&gt;Node9 -->
<g id="edge8" class="edge">
<title>Node6&#45;&gt;Node9</title>
<path fill="none" stroke="midnightblue" d="M471.57,-123.08C465.15,-115.38 455.69,-104.03 447.88,-94.65"/>
<polygon fill="midnightblue" stroke="midnightblue" points="450.38,-92.19 441.29,-86.75 445.01,-96.67 450.38,-92.19"/>
</g>
<!-- Node10 -->
<g id="node10" class="node">
<title>Node10</title>
<g id="a_node10"><a xlink:title=" ">
<polygon fill="white" stroke="#bfbfbf" points="486.5,-67.5 486.5,-86.5 571.5,-86.5 571.5,-67.5 486.5,-67.5"/>
<text text-anchor="middle" x="529" y="-74.5" font-family="Helvetica,sans-Serif" font-size="10.00">itkConfigure.h</text>
</a>
</g>
</g>
<!-- Node6&#45;&gt;Node10 -->
<g id="edge9" class="edge">
<title>Node6&#45;&gt;Node10</title>
<path fill="none" stroke="midnightblue" d="M487.26,-123.08C494.46,-115.3 505.11,-103.8 513.85,-94.37"/>
<polygon fill="midnightblue" stroke="midnightblue" points="516.67,-96.47 520.9,-86.75 511.53,-91.71 516.67,-96.47"/>
</g>
<!-- Node11&#45;&gt;Node5 -->
<g id="edge11" class="edge">
<title>Node11&#45;&gt;Node5</title>
<path fill="none" stroke="midnightblue" d="M277.26,-123.46C264.57,-110.05 244.1,-83.84 259,-67 283.01,-39.86 524.12,-24.15 625.48,-18.69"/>
<polygon fill="midnightblue" stroke="midnightblue" points="625.9,-22.18 635.71,-18.15 625.53,-15.19 625.9,-22.18"/>
</g>
<!-- Node12 -->
<g id="node12" class="node">
<title>Node12</title>
<g id="a_node12"><a xlink:href="itkIntTypes_8h.html" target="_top" xlink:title=" ">
<polygon fill="white" stroke="black" points="132.5,-67.5 132.5,-86.5 211.5,-86.5 211.5,-67.5 132.5,-67.5"/>
<text text-anchor="middle" x="172" y="-74.5" font-family="Helvetica,sans-Serif" font-size="10.00">itkIntTypes.h</text>
</a>
</g>
</g>
<!-- Node11&#45;&gt;Node12 -->
<g id="edge12" class="edge">
<title>Node11&#45;&gt;Node12</title>
<path fill="none" stroke="midnightblue" d="M267.94,-123.44C249.43,-114.68 220.42,-100.94 199.14,-90.86"/>
<polygon fill="midnightblue" stroke="midnightblue" points="200.51,-87.63 189.98,-86.52 197.52,-93.96 200.51,-87.63"/>
</g>
<!-- Node11&#45;&gt;Node15 -->
<g id="edge16" class="edge">
<title>Node11&#45;&gt;Node15</title>
<path fill="none" stroke="midnightblue" d="M287.16,-123.08C288.08,-115.93 289.42,-105.64 290.58,-96.69"/>
<polygon fill="midnightblue" stroke="midnightblue" points="294.05,-97.12 291.87,-86.75 287.11,-96.22 294.05,-97.12"/>
</g>
<!-- Node11&#45;&gt;Node16 -->
<g id="edge17" class="edge">
<title>Node11&#45;&gt;Node16</title>
<path fill="none" stroke="midnightblue" d="M249.71,-123.44C210.02,-114.08 146.29,-99.06 103.09,-88.87"/>
<polygon fill="midnightblue" stroke="midnightblue" points="103.65,-85.41 93.12,-86.52 102.05,-92.22 103.65,-85.41"/>
</g>
<!-- Node12&#45;&gt;Node5 -->
<g id="edge13" class="edge">
<title>Node12&#45;&gt;Node5</title>
<path fill="none" stroke="midnightblue" d="M211.78,-69.13C216.56,-68.37 221.39,-67.65 226,-67 371.95,-46.55 545.79,-28.64 625.75,-20.76"/>
<polygon fill="midnightblue" stroke="midnightblue" points="626.33,-24.22 635.95,-19.76 625.65,-17.26 626.33,-24.22"/>
</g>
<!-- Node13 -->
<g id="node13" class="node">
<title>Node13</title>
<g id="a_node13"><a xlink:title=" ">
<polygon fill="white" stroke="#bfbfbf" points="181,-6 181,-25 231,-25 231,-6 181,-6"/>
<text text-anchor="middle" x="206" y="-13" font-family="Helvetica,sans-Serif" font-size="10.00">cstdint</text>
</a>
</g>
</g>
<!-- Node12&#45;&gt;Node13 -->
<g id="edge14" class="edge">
<title>Node12&#45;&gt;Node13</title>
<path fill="none" stroke="midnightblue" d="M176.87,-67.48C181.87,-58.73 189.79,-44.87 196.11,-33.81"/>
<polygon fill="midnightblue" stroke="midnightblue" points="199.22,-35.43 201.14,-25.01 193.14,-31.96 199.22,-35.43"/>
</g>
<!-- Node14 -->
<g id="node14" class="node">
<title>Node14</title>
<g id="a_node14"><a xlink:title=" ">
<polygon fill="white" stroke="#bfbfbf" points="113,-6 113,-25 163,-25 163,-6 113,-6"/>
<text text-anchor="middle" x="138" y="-13" font-family="Helvetica,sans-Serif" font-size="10.00">climits</text>
</a>
</g>
</g>
<!-- Node12&#45;&gt;Node14 -->
<g id="edge15" class="edge">
<title>Node12&#45;&gt;Node14</title>
<path fill="none" stroke="midnightblue" d="M167.13,-67.48C162.13,-58.73 154.21,-44.87 147.89,-33.81"/>
<polygon fill="midnightblue" stroke="midnightblue" points="150.86,-31.96 142.86,-25.01 144.78,-35.43 150.86,-31.96"/>
</g>
<!-- Node17&#45;&gt;Node5 -->
<g id="edge19" class="edge">
<title>Node17&#45;&gt;Node5</title>
<path fill="none" stroke="midnightblue" d="M698.31,-123.42C699.93,-110.83 701.94,-86.7 697,-67 694.06,-55.26 687.81,-43.27 682.07,-33.92"/>
<polygon fill="midnightblue" stroke="midnightblue" points="684.81,-31.72 676.42,-25.25 678.94,-35.54 684.81,-31.72"/>
</g>
<!-- Node17&#45;&gt;Node7 -->
<g id="edge20" class="edge">
<title>Node17&#45;&gt;Node7</title>
<path fill="none" stroke="midnightblue" d="M690.56,-123.08C685.05,-115.46 676.97,-104.26 670.24,-94.94"/>
<polygon fill="midnightblue" stroke="midnightblue" points="673.01,-92.81 664.32,-86.75 667.34,-96.91 673.01,-92.81"/>
</g>
<!-- Node19&#45;&gt;Node17 -->
<g id="edge25" class="edge">
<title>Node19&#45;&gt;Node17</title>
<path fill="none" stroke="midnightblue" d="M706.12,-291.37C701.44,-282.55 694.69,-268.3 692,-255 684.79,-219.4 689.59,-176.76 693.47,-152.78"/>
<polygon fill="midnightblue" stroke="midnightblue" points="696.97,-153.07 695.25,-142.62 690.08,-151.87 696.97,-153.07"/>
</g>
<!-- Node21 -->
<g id="node21" class="node">
<title>Node21</title>
<g id="a_node21"><a xlink:href="itkMetaDataObjectBase_8h.html" target="_top" xlink:title=" ">
<polygon fill="white" stroke="black" points="370,-235.5 370,-254.5 512,-254.5 512,-235.5 370,-235.5"/>
<text text-anchor="middle" x="441" y="-242.5" font-family="Helvetica,sans-Serif" font-size="10.00">itkMetaDataObjectBase.h</text>
</a>
</g>
</g>
<!-- Node20&#45;&gt;Node21 -->
<g id="edge27" class="edge">
<title>Node20&#45;&gt;Node21</title>
<path fill="none" stroke="midnightblue" d="M452.69,-291.08C450.83,-283.93 448.16,-273.64 445.85,-264.69"/>
<polygon fill="midnightblue" stroke="midnightblue" points="449.17,-263.55 443.27,-254.75 442.39,-265.31 449.17,-263.55"/>
</g>
<!-- Node22 -->
<g id="node22" class="node">
<title>Node22</title>
<g id="a_node22"><a xlink:title=" ">
<polygon fill="white" stroke="#bfbfbf" points="722,-6 722,-25 786,-25 786,-6 722,-6"/>
<text text-anchor="middle" x="754" y="-13" font-family="Helvetica,sans-Serif" font-size="10.00">algorithm</text>
</a>
</g>
</g>
<!-- Node20&#45;&gt;Node22 -->
<g id="edge31" class="edge">
<title>Node20&#45;&gt;Node22</title>
<path fill="none" stroke="midnightblue" d="M495.63,-291.44C560.89,-275.27 687.18,-233.4 741,-143 761.07,-109.29 759.54,-61.43 756.73,-35.3"/>
<polygon fill="midnightblue" stroke="midnightblue" points="760.18,-34.73 755.46,-25.25 753.24,-35.61 760.18,-34.73"/>
</g>
<!-- Node23 -->
<g id="node23" class="node">
<title>Node23</title>
<g id="a_node23"><a xlink:title=" ">
<polygon fill="white" stroke="#bfbfbf" points="700.5,-235.5 700.5,-254.5 747.5,-254.5 747.5,-235.5 700.5,-235.5"/>
<text text-anchor="middle" x="724" y="-242.5" font-family="Helvetica,sans-Serif" font-size="10.00">vector</text>
</a>
</g>
</g>
<!-- Node20&#45;&gt;Node23 -->
<g id="edge32" class="edge">
<title>Node20&#45;&gt;Node23</title>
<path fill="none" stroke="midnightblue" d="M497.62,-291.44C551.04,-280.72 641.48,-262.57 690.31,-252.76"/>
<polygon fill="midnightblue" stroke="midnightblue" points="691.25,-256.15 700.36,-250.75 689.87,-249.28 691.25,-256.15"/>
</g>
<!-- Node24 -->
<g id="node24" class="node">
<title>Node24</title>
<g id="a_node24"><a xlink:title=" ">
<polygon fill="white" stroke="#bfbfbf" points="530,-235.5 530,-254.5 568,-254.5 568,-235.5 530,-235.5"/>
<text text-anchor="middle" x="549" y="-242.5" font-family="Helvetica,sans-Serif" font-size="10.00">map</text>
</a>
</g>
</g>
<!-- Node20&#45;&gt;Node24 -->
<g id="edge33" class="edge">
<title>Node20&#45;&gt;Node24</title>
<path fill="none" stroke="midnightblue" d="M470.1,-291.32C484.9,-282.82 507.69,-269.73 524.98,-259.8"/>
<polygon fill="midnightblue" stroke="midnightblue" points="527.01,-262.67 533.93,-254.65 523.52,-256.6 527.01,-262.67"/>
</g>
<!-- Node25 -->
<g id="node25" class="node">
<title>Node25</title>
<g id="a_node25"><a xlink:title=" ">
<polygon fill="white" stroke="#bfbfbf" points="232,-235.5 232,-254.5 276,-254.5 276,-235.5 232,-235.5"/>
<text text-anchor="middle" x="254" y="-242.5" font-family="Helvetica,sans-Serif" font-size="10.00">string</text>
</a>
</g>
</g>
<!-- Node20&#45;&gt;Node25 -->
<g id="edge34" class="edge">
<title>Node20&#45;&gt;Node25</title>
<path fill="none" stroke="midnightblue" d="M421.71,-291.44C389.4,-283.07 338.74,-269.81 286.17,-255.28"/>
<polygon fill="midnightblue" stroke="midnightblue" points="286.9,-251.85 276.33,-252.55 285.03,-258.6 286.9,-251.85"/>
</g>
<!-- Node26 -->
<g id="node26" class="node">
<title>Node26</title>
<g id="a_node26"><a xlink:title=" ">
<polygon fill="white" stroke="#bfbfbf" points="294,-235.5 294,-254.5 352,-254.5 352,-235.5 294,-235.5"/>
<text text-anchor="middle" x="323" y="-242.5" font-family="Helvetica,sans-Serif" font-size="10.00">memory</text>
</a>
</g>
</g>
<!-- Node20&#45;&gt;Node26 -->
<g id="edge35" class="edge">
<title>Node20&#45;&gt;Node26</title>
<path fill="none" stroke="midnightblue" d="M434.08,-291.44C412.26,-282.52 377.85,-268.44 353.11,-258.32"/>
<polygon fill="midnightblue" stroke="midnightblue" points="354.4,-255.06 343.82,-254.52 351.75,-261.54 354.4,-255.06"/>
</g>
<!-- Node21&#45;&gt;Node4 -->
<g id="edge28" class="edge">
<title>Node21&#45;&gt;Node4</title>
<path fill="none" stroke="midnightblue" d="M447.27,-235.08C452.64,-227.46 460.52,-216.26 467.08,-206.94"/>
<polygon fill="midnightblue" stroke="midnightblue" points="469.95,-208.94 472.84,-198.75 464.22,-204.91 469.95,-208.94"/>
</g>
<!-- Node21&#45;&gt;Node7 -->
<g id="edge30" class="edge">
<title>Node21&#45;&gt;Node7</title>
<path fill="none" stroke="midnightblue" d="M463.15,-235.36C482.78,-227.26 511.83,-214.14 535,-199 566.92,-178.14 572.8,-169.73 600,-143 615.93,-127.35 632.78,-108.13 644.19,-94.66"/>
<polygon fill="midnightblue" stroke="midnightblue" points="647.09,-96.65 650.83,-86.74 641.72,-92.15 647.09,-96.65"/>
</g>
<!-- Node21&#45;&gt;Node18 -->
<g id="edge29" class="edge">
<title>Node21&#45;&gt;Node18</title>
<path fill="none" stroke="midnightblue" d="M421.46,-235.37C377.73,-216.05 271.81,-169.26 220.63,-146.65"/>
<polygon fill="midnightblue" stroke="midnightblue" points="222.01,-143.43 211.45,-142.59 219.18,-149.83 222.01,-143.43"/>
</g>
<!-- Node29 -->
<g id="node29" class="node">
<title>Node29</title>
<g id="a_node29"><a xlink:href="itkObjectFactoryBase_8h.html" target="_top" xlink:title=" ">
<polygon fill="white" stroke="black" points="591.5,-459.5 591.5,-478.5 720.5,-478.5 720.5,-459.5 591.5,-459.5"/>
<text text-anchor="middle" x="656" y="-466.5" font-family="Helvetica,sans-Serif" font-size="10.00">itkObjectFactoryBase.h</text>
</a>
</g>
</g>
<!-- Node28&#45;&gt;Node29 -->
<g id="edge39" class="edge">
<title>Node28&#45;&gt;Node29</title>
<path fill="none" stroke="midnightblue" d="M723.15,-515.32C710.78,-506.98 691.87,-494.21 677.26,-484.35"/>
<polygon fill="midnightblue" stroke="midnightblue" points="679.07,-481.35 668.82,-478.65 675.15,-487.15 679.07,-481.35"/>
</g>
<!-- Node29&#45;&gt;Node16 -->
<g id="edge42" class="edge">
<title>Node29&#45;&gt;Node16</title>
<path fill="none" stroke="midnightblue" d="M591.39,-466.11C448.1,-461.48 112.77,-448.08 68,-423 36.9,-405.58 21,-393.65 21,-358 21,-358 21,-358 21,-188 21,-153.98 36.74,-116.85 47.41,-95.6"/>
<polygon fill="midnightblue" stroke="midnightblue" points="50.62,-97.01 52.14,-86.53 44.41,-93.77 50.62,-97.01"/>
</g>
<!-- Node29&#45;&gt;Node23 -->
<g id="edge47" class="edge">
<title>Node29&#45;&gt;Node23</title>
<path fill="none" stroke="midnightblue" d="M680.37,-459.49C697.64,-452.28 720.12,-440.33 734,-423 771.94,-375.62 792.23,-347.07 769,-291 764.08,-279.12 754.33,-268.74 745.17,-260.96"/>
<polygon fill="midnightblue" stroke="midnightblue" points="747.08,-258.01 737.06,-254.56 742.75,-263.51 747.08,-258.01"/>
</g>
<!-- Node30 -->
<g id="node30" class="node">
<title>Node30</title>
<g id="a_node30"><a xlink:href="itkCreateObjectFunction_8h.html" target="_top" xlink:title=" ">
<polygon fill="white" stroke="black" points="531.5,-403.5 531.5,-422.5 674.5,-422.5 674.5,-403.5 531.5,-403.5"/>
<text text-anchor="middle" x="603" y="-410.5" font-family="Helvetica,sans-Serif" font-size="10.00">itkCreateObjectFunction.h</text>
</a>
</g>
</g>
<!-- Node29&#45;&gt;Node30 -->
<g id="edge40" class="edge">
<title>Node29&#45;&gt;Node30</title>
<path fill="none" stroke="midnightblue" d="M647.25,-459.08C639.53,-451.22 628.1,-439.57 618.78,-430.08"/>
<polygon fill="midnightblue" stroke="midnightblue" points="621.09,-427.44 611.59,-422.75 616.1,-432.34 621.09,-427.44"/>
</g>
<!-- Node31 -->
<g id="node31" class="node">
<title>Node31</title>
<g id="a_node31"><a xlink:href="itkCommonEnums_8h.html" target="_top" xlink:title=" ">
<polygon fill="white" stroke="black" points="77,-403.5 77,-422.5 193,-422.5 193,-403.5 77,-403.5"/>
<text text-anchor="middle" x="135" y="-410.5" font-family="Helvetica,sans-Serif" font-size="10.00">itkCommonEnums.h</text>
</a>
</g>
</g>
<!-- Node29&#45;&gt;Node31 -->
<g id="edge43" class="edge">
<title>Node29&#45;&gt;Node31</title>
<path fill="none" stroke="midnightblue" d="M591.33,-461.3C492.4,-451.04 304.34,-431.55 203.29,-421.08"/>
<polygon fill="midnightblue" stroke="midnightblue" points="203.5,-417.58 193.19,-420.03 202.77,-424.54 203.5,-417.58"/>
</g>
<!-- Node33 -->
<g id="node33" class="node">
<title>Node33</title>
<g id="a_node33"><a xlink:title=" ">
<polygon fill="white" stroke="#bfbfbf" points="693,-403.5 693,-422.5 725,-422.5 725,-403.5 693,-403.5"/>
<text text-anchor="middle" x="709" y="-410.5" font-family="Helvetica,sans-Serif" font-size="10.00">list</text>
</a>
</g>
</g>
<!-- Node29&#45;&gt;Node33 -->
<g id="edge46" class="edge">
<title>Node29&#45;&gt;Node33</title>
<path fill="none" stroke="midnightblue" d="M664.75,-459.08C672.47,-451.22 683.9,-439.57 693.22,-430.08"/>
<polygon fill="midnightblue" stroke="midnightblue" points="695.9,-432.34 700.41,-422.75 690.91,-427.44 695.9,-432.34"/>
</g>
<!-- Node30&#45;&gt;Node3 -->
<g id="edge41" class="edge">
<title>Node30&#45;&gt;Node3</title>
<path fill="none" stroke="midnightblue" d="M603,-403.08C603,-396.01 603,-385.86 603,-376.99"/>
<polygon fill="midnightblue" stroke="midnightblue" points="606.5,-376.75 603,-366.75 599.5,-376.75 606.5,-376.75"/>
</g>
<!-- Node31&#45;&gt;Node12 -->
<g id="edge44" class="edge">
<title>Node31&#45;&gt;Node12</title>
<path fill="none" stroke="midnightblue" d="M135,-403.44C135,-384.94 135,-339.81 135,-302 135,-302 135,-302 135,-188 135,-153.89 151.18,-116.79 162.14,-95.57"/>
<polygon fill="midnightblue" stroke="midnightblue" points="165.36,-96.98 167.01,-86.51 159.19,-93.66 165.36,-96.98"/>
</g>
<!-- Node32 -->
<g id="node32" class="node">
<title>Node32</title>
<g id="a_node32"><a xlink:title=" ">
<polygon fill="white" stroke="#bfbfbf" points="49.5,-347.5 49.5,-366.5 106.5,-366.5 106.5,-347.5 49.5,-347.5"/>
<text text-anchor="middle" x="78" y="-354.5" font-family="Helvetica,sans-Serif" font-size="10.00">ostream</text>
</a>
</g>
</g>
<!-- Node31&#45;&gt;Node32 -->
<g id="edge45" class="edge">
<title>Node31&#45;&gt;Node32</title>
<path fill="none" stroke="midnightblue" d="M125.84,-403.32C117.5,-395.42 104.97,-383.55 94.82,-373.94"/>
<polygon fill="midnightblue" stroke="midnightblue" points="96.99,-371.17 87.32,-366.83 92.18,-376.25 96.99,-371.17"/>
</g>
<!-- Node34&#45;&gt;Node5 -->
<g id="edge49" class="edge">
<title>Node34&#45;&gt;Node5</title>
<path fill="none" stroke="midnightblue" d="M1054.44,-123.46C1014.48,-115.28 953.82,-101.99 902,-87 876.21,-79.54 870.63,-74.98 845,-67 786.94,-48.92 771.17,-48.72 713,-31 710.08,-30.11 707.06,-29.16 704.03,-28.18"/>
<polygon fill="midnightblue" stroke="midnightblue" points="705.07,-24.84 694.48,-25.03 702.88,-31.49 705.07,-24.84"/>
</g>
<!-- Node35 -->
<g id="node35" class="node">
<title>Node35</title>
<g id="a_node35"><a xlink:title=" ">
<polygon fill="white" stroke="#bfbfbf" points="1017,-67.5 1017,-86.5 1061,-86.5 1061,-67.5 1017,-67.5"/>
<text text-anchor="middle" x="1039" y="-74.5" font-family="Helvetica,sans-Serif" font-size="10.00">limits</text>
</a>
</g>
</g>
<!-- Node34&#45;&gt;Node35 -->
<g id="edge50" class="edge">
<title>Node34&#45;&gt;Node35</title>
<path fill="none" stroke="midnightblue" d="M1088.52,-123.32C1079.8,-115.34 1066.66,-103.31 1056.1,-93.65"/>
<polygon fill="midnightblue" stroke="midnightblue" points="1058.39,-91 1048.65,-86.83 1053.67,-96.17 1058.39,-91"/>
</g>
<!-- Node36 -->
<g id="node36" class="node">
<title>Node36</title>
<g id="a_node36"><a xlink:title=" ">
<polygon fill="white" stroke="#bfbfbf" points="1079.5,-67.5 1079.5,-86.5 1138.5,-86.5 1138.5,-67.5 1079.5,-67.5"/>
<text text-anchor="middle" x="1109" y="-74.5" font-family="Helvetica,sans-Serif" font-size="10.00">complex</text>
</a>
</g>
</g>
<!-- Node34&#45;&gt;Node36 -->
<g id="edge51" class="edge">
<title>Node34&#45;&gt;Node36</title>
<path fill="none" stroke="midnightblue" d="M1099.82,-123.08C1101.27,-115.93 1103.37,-105.64 1105.19,-96.69"/>
<polygon fill="midnightblue" stroke="midnightblue" points="1108.65,-97.25 1107.22,-86.75 1101.79,-95.85 1108.65,-97.25"/>
</g>
<!-- Node37 -->
<g id="node37" class="node">
<title>Node37</title>
<g id="a_node37"><a xlink:href="itkFixedArray_8h.html" target="_top" xlink:title=" ">
<polygon fill="white" stroke="black" points="910.5,-67.5 910.5,-86.5 999.5,-86.5 999.5,-67.5 910.5,-67.5"/>
<text text-anchor="middle" x="955" y="-74.5" font-family="Helvetica,sans-Serif" font-size="10.00">itkFixedArray.h</text>
</a>
</g>
</g>
<!-- Node34&#45;&gt;Node37 -->
<g id="edge52" class="edge">
<title>Node34&#45;&gt;Node37</title>
<path fill="none" stroke="midnightblue" d="M1075.34,-123.44C1051.6,-114.48 1014.09,-100.31 987.26,-90.18"/>
<polygon fill="midnightblue" stroke="midnightblue" points="988.14,-86.77 977.55,-86.52 985.67,-93.32 988.14,-86.77"/>
</g>
<!-- Node37&#45;&gt;Node5 -->
<g id="edge53" class="edge">
<title>Node37&#45;&gt;Node5</title>
<path fill="none" stroke="midnightblue" d="M910.43,-69.65C861.56,-62.23 781.03,-48.7 713,-31 709.8,-30.17 706.49,-29.22 703.19,-28.21"/>
<polygon fill="midnightblue" stroke="midnightblue" points="704.07,-24.81 693.48,-25.08 701.92,-31.48 704.07,-24.81"/>
</g>
<!-- Node37&#45;&gt;Node22 -->
<g id="edge55" class="edge">
<title>Node37&#45;&gt;Node22</title>
<path fill="none" stroke="midnightblue" d="M922.86,-67.48C890.64,-58.8 839.66,-44.7 796,-31 793.24,-30.13 790.39,-29.21 787.53,-28.26"/>
<polygon fill="midnightblue" stroke="midnightblue" points="788.5,-24.9 777.91,-25.02 786.26,-31.53 788.5,-24.9"/>
</g>
<!-- Node38 -->
<g id="node38" class="node">
<title>Node38</title>
<g id="a_node38"><a xlink:href="itkMakeFilled_8h.html" target="_top" xlink:title=" ">
<polygon fill="white" stroke="black" points="923.5,-6 923.5,-25 1014.5,-25 1014.5,-6 923.5,-6"/>
<text text-anchor="middle" x="969" y="-13" font-family="Helvetica,sans-Serif" font-size="10.00">itkMakeFilled.h</text>
</a>
</g>
</g>
<!-- Node37&#45;&gt;Node38 -->
<g id="edge54" class="edge">
<title>Node37&#45;&gt;Node38</title>
<path fill="none" stroke="midnightblue" d="M957.01,-67.48C959,-58.99 962.13,-45.7 964.69,-34.82"/>
<polygon fill="midnightblue" stroke="midnightblue" points="968.11,-35.54 967,-25.01 961.3,-33.94 968.11,-35.54"/>
</g>
<!-- Node39 -->
<g id="node39" class="node">
<title>Node39</title>
<g id="a_node39"><a xlink:title=" ">
<polygon fill="white" stroke="#bfbfbf" points="1033,-6 1033,-25 1075,-25 1075,-6 1033,-6"/>
<text text-anchor="middle" x="1054" y="-13" font-family="Helvetica,sans-Serif" font-size="10.00">array</text>
</a>
</g>
</g>
<!-- Node37&#45;&gt;Node39 -->
<g id="edge56" class="edge">
<title>Node37&#45;&gt;Node39</title>
<path fill="none" stroke="midnightblue" d="M969.18,-67.48C985.36,-57.75 1012.03,-41.73 1031.14,-30.24"/>
<polygon fill="midnightblue" stroke="midnightblue" points="1033.07,-33.16 1039.84,-25.01 1029.47,-27.16 1033.07,-33.16"/>
</g>
<!-- Node40 -->
<g id="node40" class="node">
<title>Node40</title>
<g id="a_node40"><a xlink:title=" ">
<polygon fill="white" stroke="#bfbfbf" points="804.5,-6 804.5,-25 905.5,-25 905.5,-6 804.5,-6"/>
<text text-anchor="middle" x="855" y="-13" font-family="Helvetica,sans-Serif" font-size="10.00">itkFixedArray.hxx</text>
</a>
</g>
</g>
<!-- Node37&#45;&gt;Node40 -->
<g id="edge57" class="edge">
<title>Node37&#45;&gt;Node40</title>
<path fill="none" stroke="midnightblue" d="M940.67,-67.48C924.34,-57.75 897.4,-41.73 878.09,-30.24"/>
<polygon fill="midnightblue" stroke="midnightblue" points="879.68,-27.11 869.3,-25.01 876.11,-33.13 879.68,-27.11"/>
</g>
<!-- Node41 -->
<g id="node41" class="node">
<title>Node41</title>
<g id="a_node41"><a xlink:href="itkNumericTraitsFixedArrayPixel_8h.html" target="_top" xlink:title=" ">
<polygon fill="white" stroke="black" points="1092.5,-0.5 1092.5,-30.5 1241.5,-30.5 1241.5,-0.5 1092.5,-0.5"/>
<text text-anchor="start" x="1100.5" y="-18.5" font-family="Helvetica,sans-Serif" font-size="10.00">itkNumericTraitsFixedArray</text>
<text text-anchor="middle" x="1167" y="-7.5" font-family="Helvetica,sans-Serif" font-size="10.00">Pixel.h</text>
</a>
</g>
</g>
<!-- Node37&#45;&gt;Node41 -->
<g id="edge58" class="edge">
<title>Node37&#45;&gt;Node41</title>
<path fill="none" stroke="midnightblue" d="M980.47,-67.48C1010.26,-58.57 1060.45,-44.37 1101.31,-33.22"/>
<polygon fill="midnightblue" stroke="midnightblue" points="1102.47,-36.52 1111.21,-30.52 1100.64,-29.77 1102.47,-36.52"/>
</g>
<!-- Node41&#45;&gt;Node34 -->
<g id="edge59" class="edge">
<title>Node41&#45;&gt;Node34</title>
<path fill="none" stroke="midnightblue" d="M1165.58,-30.68C1163.56,-45.62 1158.81,-69.39 1148,-87 1140.82,-98.7 1129.69,-109.14 1119.75,-117.02"/>
<polygon fill="midnightblue" stroke="midnightblue" points="1117.35,-114.44 1111.45,-123.24 1121.55,-120.04 1117.35,-114.44"/>
</g>
<!-- Node41&#45;&gt;Node37 -->
<g id="edge60" class="edge">
<title>Node41&#45;&gt;Node37</title>
<path fill="none" stroke="midnightblue" d="M1122.87,-30.52C1086.87,-41.01 1036.35,-55.14 1000.1,-64.86"/>
<polygon fill="midnightblue" stroke="midnightblue" points="999.04,-61.52 990.28,-67.48 1000.84,-68.28 999.04,-61.52"/>
</g>
<!-- Node42&#45;&gt;Node17 -->
<g id="edge62" class="edge">
<title>Node42&#45;&gt;Node17</title>
<path fill="none" stroke="midnightblue" d="M964.45,-298.65C920.69,-295.55 851.17,-285.7 800,-255 756.6,-228.96 722.5,-178.1 706.67,-151.37"/>
<polygon fill="midnightblue" stroke="midnightblue" points="709.7,-149.62 701.68,-142.7 703.63,-153.11 709.7,-149.62"/>
</g>
<!-- Node42&#45;&gt;Node37 -->
<g id="edge63" class="edge">
<title>Node42&#45;&gt;Node37</title>
<path fill="none" stroke="midnightblue" d="M969.31,-291.43C926.04,-279.14 856.06,-251.91 825,-199 816.54,-184.59 813.67,-144.17 830,-123 846.79,-101.24 875.04,-89.98 900.44,-84.17"/>
<polygon fill="midnightblue" stroke="midnightblue" points="901.28,-87.57 910.37,-82.13 899.87,-80.72 901.28,-87.57"/>
</g>
<!-- Node43 -->
<g id="node43" class="node">
<title>Node43</title>
<g id="a_node43"><a xlink:href="itkMath_8h.html" target="_top" xlink:title=" ">
<polygon fill="white" stroke="black" points="974.5,-235.5 974.5,-254.5 1037.5,-254.5 1037.5,-235.5 974.5,-235.5"/>
<text text-anchor="middle" x="1006" y="-242.5" font-family="Helvetica,sans-Serif" font-size="10.00">itkMath.h</text>
</a>
</g>
</g>
<!-- Node42&#45;&gt;Node43 -->
<g id="edge64" class="edge">
<title>Node42&#45;&gt;Node43</title>
<path fill="none" stroke="midnightblue" d="M1006,-291.08C1006,-284.01 1006,-273.86 1006,-264.99"/>
<polygon fill="midnightblue" stroke="midnightblue" points="1009.5,-264.75 1006,-254.75 1002.5,-264.75 1009.5,-264.75"/>
</g>
<!-- Node51 -->
<g id="node51" class="node">
<title>Node51</title>
<g id="a_node51"><a xlink:href="itkNumericTraitsRGBPixel_8h.html" target="_top" xlink:title=" ">
<polygon fill="white" stroke="black" points="1169,-235.5 1169,-254.5 1319,-254.5 1319,-235.5 1169,-235.5"/>
<text text-anchor="middle" x="1244" y="-242.5" font-family="Helvetica,sans-Serif" font-size="10.00">itkNumericTraitsRGBPixel.h</text>
</a>
</g>
</g>
<!-- Node42&#45;&gt;Node51 -->
<g id="edge77" class="edge">
<title>Node42&#45;&gt;Node51</title>
<path fill="none" stroke="midnightblue" d="M1038.62,-291.44C1078.08,-282.02 1144.74,-266.87 1191.45,-256.68"/>
<polygon fill="midnightblue" stroke="midnightblue" points="1192.36,-260.06 1201.38,-254.52 1190.87,-253.22 1192.36,-260.06"/>
</g>
<!-- Node52 -->
<g id="node52" class="node">
<title>Node52</title>
<g id="a_node52"><a xlink:title=" ">
<polygon fill="white" stroke="#bfbfbf" points="1055.5,-235.5 1055.5,-254.5 1150.5,-254.5 1150.5,-235.5 1055.5,-235.5"/>
<text text-anchor="middle" x="1103" y="-242.5" font-family="Helvetica,sans-Serif" font-size="10.00">itkRGBPixel.hxx</text>
</a>
</g>
</g>
<!-- Node42&#45;&gt;Node52 -->
<g id="edge80" class="edge">
<title>Node42&#45;&gt;Node52</title>
<path fill="none" stroke="midnightblue" d="M1021.58,-291.32C1037,-282.74 1060.81,-269.49 1078.71,-259.52"/>
<polygon fill="midnightblue" stroke="midnightblue" points="1080.42,-262.58 1087.45,-254.65 1077.01,-256.46 1080.42,-262.58"/>
</g>
<!-- Node44 -->
<g id="node44" class="node">
<title>Node44</title>
<g id="a_node44"><a xlink:title=" ">
<polygon fill="white" stroke="#bfbfbf" points="1085.5,-179.5 1085.5,-198.5 1132.5,-198.5 1132.5,-179.5 1085.5,-179.5"/>
<text text-anchor="middle" x="1109" y="-186.5" font-family="Helvetica,sans-Serif" font-size="10.00">cmath</text>
</a>
</g>
</g>
<!-- Node43&#45;&gt;Node44 -->
<g id="edge65" class="edge">
<title>Node43&#45;&gt;Node44</title>
<path fill="none" stroke="midnightblue" d="M1022.55,-235.32C1038.99,-226.7 1064.43,-213.36 1083.47,-203.39"/>
<polygon fill="midnightblue" stroke="midnightblue" points="1085.26,-206.4 1092.49,-198.65 1082.01,-200.2 1085.26,-206.4"/>
</g>
<!-- Node45 -->
<g id="node45" class="node">
<title>Node45</title>
<g id="a_node45"><a xlink:href="itkMathDetail_8h.html" target="_top" xlink:title=" ">
<polygon fill="white" stroke="black" points="834,-179.5 834,-198.5 926,-198.5 926,-179.5 834,-179.5"/>
<text text-anchor="middle" x="880" y="-186.5" font-family="Helvetica,sans-Serif" font-size="10.00">itkMathDetail.h</text>
</a>
</g>
</g>
<!-- Node43&#45;&gt;Node45 -->
<g id="edge66" class="edge">
<title>Node43&#45;&gt;Node45</title>
<path fill="none" stroke="midnightblue" d="M986.03,-235.44C965.39,-226.6 932.94,-212.69 909.37,-202.59"/>
<polygon fill="midnightblue" stroke="midnightblue" points="910.44,-199.24 899.87,-198.52 907.68,-205.67 910.44,-199.24"/>
</g>
<!-- Node47 -->
<g id="node47" class="node">
<title>Node47</title>
<g id="a_node47"><a xlink:href="itkConceptChecking_8h.html" target="_top" xlink:title=" ">
<polygon fill="white" stroke="black" points="944.5,-179.5 944.5,-198.5 1067.5,-198.5 1067.5,-179.5 944.5,-179.5"/>
<text text-anchor="middle" x="1006" y="-186.5" font-family="Helvetica,sans-Serif" font-size="10.00">itkConceptChecking.h</text>
</a>
</g>
</g>
<!-- Node43&#45;&gt;Node47 -->
<g id="edge70" class="edge">
<title>Node43&#45;&gt;Node47</title>
<path fill="none" stroke="midnightblue" d="M1006,-235.08C1006,-228.01 1006,-217.86 1006,-208.99"/>
<polygon fill="midnightblue" stroke="midnightblue" points="1009.5,-208.75 1006,-198.75 1002.5,-208.75 1009.5,-208.75"/>
</g>
<!-- Node49 -->
<g id="node49" class="node">
<title>Node49</title>
<g id="a_node49"><a xlink:title=" ">
<polygon fill="white" stroke="#bfbfbf" points="1150.5,-179.5 1150.5,-198.5 1239.5,-198.5 1239.5,-179.5 1150.5,-179.5"/>
<text text-anchor="middle" x="1195" y="-186.5" font-family="Helvetica,sans-Serif" font-size="10.00">vnl/vnl_math.h</text>
</a>
</g>
</g>
<!-- Node43&#45;&gt;Node49 -->
<g id="edge75" class="edge">
<title>Node43&#45;&gt;Node49</title>
<path fill="none" stroke="midnightblue" d="M1035.95,-235.44C1068.16,-226.24 1119.53,-211.56 1155.14,-201.39"/>
<polygon fill="midnightblue" stroke="midnightblue" points="1156.54,-204.63 1165.19,-198.52 1154.62,-197.9 1156.54,-204.63"/>
</g>
<!-- Node50 -->
<g id="node50" class="node">
<title>Node50</title>
<g id="a_node50"><a xlink:title=" ">
<polygon fill="white" stroke="#bfbfbf" points="1258,-179.5 1258,-198.5 1340,-198.5 1340,-179.5 1258,-179.5"/>
<text text-anchor="middle" x="1299" y="-186.5" font-family="Helvetica,sans-Serif" font-size="10.00">vxl_version.h</text>
</a>
</g>
</g>
<!-- Node43&#45;&gt;Node50 -->
<g id="edge76" class="edge">
<title>Node43&#45;&gt;Node50</title>
<path fill="none" stroke="midnightblue" d="M1037.76,-236.9C1040.88,-236.24 1044,-235.6 1047,-235 1133.39,-217.83 1157.6,-215.24 1247.95,-199.18"/>
<polygon fill="midnightblue" stroke="midnightblue" points="1248.57,-202.62 1257.8,-197.42 1247.34,-195.73 1248.57,-202.62"/>
</g>
<!-- Node45&#45;&gt;Node12 -->
<g id="edge67" class="edge">
<title>Node45&#45;&gt;Node12</title>
<path fill="none" stroke="midnightblue" d="M833.97,-185.92C750.77,-181.62 570.08,-169.83 420,-143 417.42,-142.54 284.54,-107.61 214.38,-89.15"/>
<polygon fill="midnightblue" stroke="midnightblue" points="215.07,-85.72 204.51,-86.56 213.29,-92.48 215.07,-85.72"/>
</g>
<!-- Node45&#45;&gt;Node34 -->
<g id="edge68" class="edge">
<title>Node45&#45;&gt;Node34</title>
<path fill="none" stroke="midnightblue" d="M914.54,-179.44C952.25,-170.1 1012.74,-155.12 1053.86,-144.93"/>
<polygon fill="midnightblue" stroke="midnightblue" points="1054.75,-148.32 1063.62,-142.52 1053.07,-141.52 1054.75,-148.32"/>
</g>
<!-- Node46 -->
<g id="node46" class="node">
<title>Node46</title>
<g id="a_node46"><a xlink:title=" ">
<polygon fill="white" stroke="#bfbfbf" points="839,-123.5 839,-142.5 883,-142.5 883,-123.5 839,-123.5"/>
<text text-anchor="middle" x="861" y="-130.5" font-family="Helvetica,sans-Serif" font-size="10.00">cfenv</text>
</a>
</g>
</g>
<!-- Node45&#45;&gt;Node46 -->
<g id="edge69" class="edge">
<title>Node45&#45;&gt;Node46</title>
<path fill="none" stroke="midnightblue" d="M876.86,-179.08C874.32,-171.85 870.64,-161.41 867.47,-152.4"/>
<polygon fill="midnightblue" stroke="midnightblue" points="870.7,-151.02 864.08,-142.75 864.1,-153.35 870.7,-151.02"/>
</g>
<!-- Node47&#45;&gt;Node7 -->
<g id="edge74" class="edge">
<title>Node47&#45;&gt;Node7</title>
<path fill="none" stroke="midnightblue" d="M991.44,-179.34C963.11,-162.55 902.42,-126.85 892,-123 826.52,-98.8 745.7,-86.95 698.21,-81.68"/>
<polygon fill="midnightblue" stroke="midnightblue" points="698.34,-78.18 688.02,-80.6 697.6,-85.14 698.34,-78.18"/>
</g>
<!-- Node47&#45;&gt;Node34 -->
<g id="edge73" class="edge">
<title>Node47&#45;&gt;Node34</title>
<path fill="none" stroke="midnightblue" d="M1020.78,-179.32C1035.27,-170.82 1057.57,-157.73 1074.49,-147.8"/>
<polygon fill="midnightblue" stroke="midnightblue" points="1076.4,-150.74 1083.26,-142.65 1072.86,-144.7 1076.4,-150.74"/>
</g>
<!-- Node48 -->
<g id="node48" class="node">
<title>Node48</title>
<g id="a_node48"><a xlink:href="itkPixelTraits_8h.html" target="_top" xlink:title=" ">
<polygon fill="white" stroke="black" points="939,-123.5 939,-142.5 1027,-142.5 1027,-123.5 939,-123.5"/>
<text text-anchor="middle" x="983" y="-130.5" font-family="Helvetica,sans-Serif" font-size="10.00">itkPixelTraits.h</text>
</a>
</g>
</g>
<!-- Node47&#45;&gt;Node48 -->
<g id="edge71" class="edge">
<title>Node47&#45;&gt;Node48</title>
<path fill="none" stroke="midnightblue" d="M1002.2,-179.08C999.09,-171.77 994.58,-161.18 990.71,-152.1"/>
<polygon fill="midnightblue" stroke="midnightblue" points="993.87,-150.58 986.73,-142.75 987.43,-153.32 993.87,-150.58"/>
</g>
<!-- Node48&#45;&gt;Node5 -->
<g id="edge72" class="edge">
<title>Node48&#45;&gt;Node5</title>
<path fill="none" stroke="midnightblue" d="M959.73,-123.41C904.73,-103.12 766.55,-52.13 702.96,-28.66"/>
<polygon fill="midnightblue" stroke="midnightblue" points="704.02,-25.32 693.42,-25.14 701.59,-31.89 704.02,-25.32"/>
</g>
<!-- Node51&#45;&gt;Node34 -->
<g id="edge78" class="edge">
<title>Node51&#45;&gt;Node34</title>
<path fill="none" stroke="midnightblue" d="M1282.98,-235.48C1321.52,-225.29 1371.7,-206.13 1349,-179 1325.54,-150.96 1227.87,-140.37 1161.52,-136.39"/>
<polygon fill="midnightblue" stroke="midnightblue" points="1161.33,-132.87 1151.15,-135.8 1160.94,-139.86 1161.33,-132.87"/>
</g>
<!-- Node51&#45;&gt;Node42 -->
<g id="edge79" class="edge">
<title>Node51&#45;&gt;Node42</title>
<path fill="none" stroke="midnightblue" d="M1211.58,-254.51C1171.91,-263.98 1104.48,-279.31 1057.66,-289.52"/>
<polygon fill="midnightblue" stroke="midnightblue" points="1056.73,-286.14 1047.7,-291.68 1058.22,-292.98 1056.73,-286.14"/>
</g>
</g>
</svg>
