<?xml version="1.0" encoding="UTF-8" standalone="no"?>
<!DOCTYPE svg PUBLIC "-//W3C//DTD SVG 1.1//EN"
 "http://www.w3.org/Graphics/SVG/1.1/DTD/svg11.dtd">
<!-- Generated by graphviz version 2.43.0 (0)
 -->
<!-- Title: itkConnectedImageNeighborhoodShape.h Pages: 1 -->
<svg width="922pt" height="386pt"
 viewBox="0.00 0.00 922.00 386.00" xmlns="http://www.w3.org/2000/svg" xmlns:xlink="http://www.w3.org/1999/xlink">
<g id="graph0" class="graph" transform="scale(1 1) rotate(0) translate(4 382)">
<title>itkConnectedImageNeighborhoodShape.h</title>
<polygon fill="white" stroke="transparent" points="-4,4 -4,-382 918,-382 918,4 -4,4"/>
<!-- Node1 -->
<g id="node1" class="node">
<title>Node1</title>
<g id="a_node1"><a xlink:title=" ">
<polygon fill="#bfbfbf" stroke="black" points="647,-347.5 647,-377.5 827,-377.5 827,-347.5 647,-347.5"/>
<text text-anchor="start" x="655" y="-365.5" font-family="Helvetica,sans-Serif" font-size="10.00">itkConnectedImageNeighborhood</text>
<text text-anchor="middle" x="737" y="-354.5" font-family="Helvetica,sans-Serif" font-size="10.00">Shape.h</text>
</a>
</g>
</g>
<!-- Node2 -->
<g id="node2" class="node">
<title>Node2</title>
<g id="a_node2"><a xlink:href="itkMath_8h.html" target="_top" xlink:title=" ">
<polygon fill="white" stroke="black" points="465.5,-235.5 465.5,-254.5 528.5,-254.5 528.5,-235.5 465.5,-235.5"/>
<text text-anchor="middle" x="497" y="-242.5" font-family="Helvetica,sans-Serif" font-size="10.00">itkMath.h</text>
</a>
</g>
</g>
<!-- Node1&#45;&gt;Node2 -->
<g id="edge1" class="edge">
<title>Node1&#45;&gt;Node2</title>
<path fill="none" stroke="midnightblue" d="M707.57,-347.34C660.58,-324.72 569.27,-280.78 523.92,-258.95"/>
<polygon fill="midnightblue" stroke="midnightblue" points="525.24,-255.71 514.71,-254.52 522.2,-262.01 525.24,-255.71"/>
</g>
<!-- Node7 -->
<g id="node7" class="node">
<title>Node7</title>
<g id="a_node7"><a xlink:title=" ">
<polygon fill="white" stroke="#bfbfbf" points="792,-6 792,-25 842,-25 842,-6 792,-6"/>
<text text-anchor="middle" x="817" y="-13" font-family="Helvetica,sans-Serif" font-size="10.00">cstdint</text>
</a>
</g>
</g>
<!-- Node1&#45;&gt;Node7 -->
<g id="edge40" class="edge">
<title>Node1&#45;&gt;Node7</title>
<path fill="none" stroke="midnightblue" d="M760.98,-347.24C789.7,-328.12 834,-291.3 834,-246 834,-246 834,-246 834,-132 834,-97.5 826.48,-57.81 821.45,-35.09"/>
<polygon fill="midnightblue" stroke="midnightblue" points="824.81,-34.09 819.15,-25.13 817.99,-35.66 824.81,-34.09"/>
</g>
<!-- Node10 -->
<g id="node10" class="node">
<title>Node10</title>
<g id="a_node10"><a xlink:title=" ">
<polygon fill="white" stroke="#bfbfbf" points="87,-67.5 87,-86.5 131,-86.5 131,-67.5 87,-67.5"/>
<text text-anchor="middle" x="109" y="-74.5" font-family="Helvetica,sans-Serif" font-size="10.00">limits</text>
</a>
</g>
</g>
<!-- Node1&#45;&gt;Node10 -->
<g id="edge41" class="edge">
<title>Node1&#45;&gt;Node10</title>
<path fill="none" stroke="midnightblue" d="M646.7,-353.94C474.47,-338.29 116,-299.32 116,-246 116,-246 116,-246 116,-188 116,-155.88 112.99,-118.6 110.92,-96.73"/>
<polygon fill="midnightblue" stroke="midnightblue" points="114.38,-96.15 109.92,-86.55 107.41,-96.84 114.38,-96.15"/>
</g>
<!-- Node15 -->
<g id="node15" class="node">
<title>Node15</title>
<g id="a_node15"><a xlink:title=" ">
<polygon fill="white" stroke="#bfbfbf" points="645,-6 645,-25 687,-25 687,-6 645,-6"/>
<text text-anchor="middle" x="666" y="-13" font-family="Helvetica,sans-Serif" font-size="10.00">array</text>
</a>
</g>
</g>
<!-- Node1&#45;&gt;Node15 -->
<g id="edge38" class="edge">
<title>Node1&#45;&gt;Node15</title>
<path fill="none" stroke="midnightblue" d="M749.8,-347.38C767.15,-326.71 796,-286.31 796,-246 796,-246 796,-246 796,-132 796,-101.77 796,-89.66 776,-67 750.2,-37.77 731.33,-47.49 696,-31 694.85,-30.46 693.68,-29.91 692.49,-29.35"/>
<polygon fill="midnightblue" stroke="midnightblue" points="693.94,-26.17 683.41,-25.02 690.93,-32.48 693.94,-26.17"/>
</g>
<!-- Node24 -->
<g id="node24" class="node">
<title>Node24</title>
<g id="a_node24"><a xlink:href="itkOffset_8h.html" target="_top" xlink:title=" ">
<polygon fill="white" stroke="black" points="645,-291.5 645,-310.5 713,-310.5 713,-291.5 645,-291.5"/>
<text text-anchor="middle" x="679" y="-298.5" font-family="Helvetica,sans-Serif" font-size="10.00">itkOffset.h</text>
</a>
</g>
</g>
<!-- Node1&#45;&gt;Node24 -->
<g id="edge29" class="edge">
<title>Node1&#45;&gt;Node24</title>
<path fill="none" stroke="midnightblue" d="M723.25,-347.4C714.65,-338.58 703.55,-327.18 694.61,-318.02"/>
<polygon fill="midnightblue" stroke="midnightblue" points="696.93,-315.38 687.44,-310.66 691.91,-320.26 696.93,-315.38"/>
</g>
<!-- Node28 -->
<g id="node28" class="node">
<title>Node28</title>
<g id="a_node28"><a xlink:title=" ">
<polygon fill="white" stroke="#bfbfbf" points="862,-291.5 862,-310.5 914,-310.5 914,-291.5 862,-291.5"/>
<text text-anchor="middle" x="888" y="-298.5" font-family="Helvetica,sans-Serif" font-size="10.00">cassert</text>
</a>
</g>
</g>
<!-- Node1&#45;&gt;Node28 -->
<g id="edge39" class="edge">
<title>Node1&#45;&gt;Node28</title>
<path fill="none" stroke="midnightblue" d="M772.78,-347.4C798.23,-337.37 832.1,-324.03 856.52,-314.4"/>
<polygon fill="midnightblue" stroke="midnightblue" points="858.01,-317.58 866.03,-310.66 855.44,-311.07 858.01,-317.58"/>
</g>
<!-- Node3 -->
<g id="node3" class="node">
<title>Node3</title>
<g id="a_node3"><a xlink:title=" ">
<polygon fill="white" stroke="#bfbfbf" points="244.5,-179.5 244.5,-198.5 291.5,-198.5 291.5,-179.5 244.5,-179.5"/>
<text text-anchor="middle" x="268" y="-186.5" font-family="Helvetica,sans-Serif" font-size="10.00">cmath</text>
</a>
</g>
</g>
<!-- Node2&#45;&gt;Node3 -->
<g id="edge2" class="edge">
<title>Node2&#45;&gt;Node3</title>
<path fill="none" stroke="midnightblue" d="M465.49,-237.31C428.41,-229.32 364.74,-215.26 301.47,-199.29"/>
<polygon fill="midnightblue" stroke="midnightblue" points="302.28,-195.89 291.73,-196.82 300.56,-202.67 302.28,-195.89"/>
</g>
<!-- Node4 -->
<g id="node4" class="node">
<title>Node4</title>
<g id="a_node4"><a xlink:href="itkMathDetail_8h.html" target="_top" xlink:title=" ">
<polygon fill="white" stroke="black" points="451,-179.5 451,-198.5 543,-198.5 543,-179.5 451,-179.5"/>
<text text-anchor="middle" x="497" y="-186.5" font-family="Helvetica,sans-Serif" font-size="10.00">itkMathDetail.h</text>
</a>
</g>
</g>
<!-- Node2&#45;&gt;Node4 -->
<g id="edge3" class="edge">
<title>Node2&#45;&gt;Node4</title>
<path fill="none" stroke="midnightblue" d="M497,-235.08C497,-228.01 497,-217.86 497,-208.99"/>
<polygon fill="midnightblue" stroke="midnightblue" points="500.5,-208.75 497,-198.75 493.5,-208.75 500.5,-208.75"/>
</g>
<!-- Node19 -->
<g id="node19" class="node">
<title>Node19</title>
<g id="a_node19"><a xlink:href="itkConceptChecking_8h.html" target="_top" xlink:title=" ">
<polygon fill="white" stroke="black" points="309.5,-179.5 309.5,-198.5 432.5,-198.5 432.5,-179.5 309.5,-179.5"/>
<text text-anchor="middle" x="371" y="-186.5" font-family="Helvetica,sans-Serif" font-size="10.00">itkConceptChecking.h</text>
</a>
</g>
</g>
<!-- Node2&#45;&gt;Node19 -->
<g id="edge22" class="edge">
<title>Node2&#45;&gt;Node19</title>
<path fill="none" stroke="midnightblue" d="M477.03,-235.44C456.39,-226.6 423.94,-212.69 400.37,-202.59"/>
<polygon fill="midnightblue" stroke="midnightblue" points="401.44,-199.24 390.87,-198.52 398.68,-205.67 401.44,-199.24"/>
</g>
<!-- Node22 -->
<g id="node22" class="node">
<title>Node22</title>
<g id="a_node22"><a xlink:title=" ">
<polygon fill="white" stroke="#bfbfbf" points="561.5,-179.5 561.5,-198.5 650.5,-198.5 650.5,-179.5 561.5,-179.5"/>
<text text-anchor="middle" x="606" y="-186.5" font-family="Helvetica,sans-Serif" font-size="10.00">vnl/vnl_math.h</text>
</a>
</g>
</g>
<!-- Node2&#45;&gt;Node22 -->
<g id="edge27" class="edge">
<title>Node2&#45;&gt;Node22</title>
<path fill="none" stroke="midnightblue" d="M514.51,-235.32C532.07,-226.62 559.33,-213.12 579.53,-203.11"/>
<polygon fill="midnightblue" stroke="midnightblue" points="581.12,-206.23 588.53,-198.65 578.02,-199.96 581.12,-206.23"/>
</g>
<!-- Node23 -->
<g id="node23" class="node">
<title>Node23</title>
<g id="a_node23"><a xlink:title=" ">
<polygon fill="white" stroke="#bfbfbf" points="144,-179.5 144,-198.5 226,-198.5 226,-179.5 144,-179.5"/>
<text text-anchor="middle" x="185" y="-186.5" font-family="Helvetica,sans-Serif" font-size="10.00">vxl_version.h</text>
</a>
</g>
</g>
<!-- Node2&#45;&gt;Node23 -->
<g id="edge28" class="edge">
<title>Node2&#45;&gt;Node23</title>
<path fill="none" stroke="midnightblue" d="M465.12,-238.61C417.57,-230.55 324.96,-214.78 236.16,-199.19"/>
<polygon fill="midnightblue" stroke="midnightblue" points="236.65,-195.73 226.2,-197.44 235.44,-202.62 236.65,-195.73"/>
</g>
<!-- Node5 -->
<g id="node5" class="node">
<title>Node5</title>
<g id="a_node5"><a xlink:href="itkIntTypes_8h.html" target="_top" xlink:title=" ">
<polygon fill="white" stroke="black" points="688.5,-67.5 688.5,-86.5 767.5,-86.5 767.5,-67.5 688.5,-67.5"/>
<text text-anchor="middle" x="728" y="-74.5" font-family="Helvetica,sans-Serif" font-size="10.00">itkIntTypes.h</text>
</a>
</g>
</g>
<!-- Node4&#45;&gt;Node5 -->
<g id="edge4" class="edge">
<title>Node4&#45;&gt;Node5</title>
<path fill="none" stroke="midnightblue" d="M521.41,-179.42C544.76,-170.97 580.8,-157.28 611,-143 644.6,-127.12 681.89,-105.7 705.14,-91.87"/>
<polygon fill="midnightblue" stroke="midnightblue" points="707.13,-94.77 713.91,-86.62 703.53,-88.76 707.13,-94.77"/>
</g>
<!-- Node9 -->
<g id="node9" class="node">
<title>Node9</title>
<g id="a_node9"><a xlink:href="itkNumericTraits_8h.html" target="_top" xlink:title=" ">
<polygon fill="white" stroke="black" points="270,-123.5 270,-142.5 376,-142.5 376,-123.5 270,-123.5"/>
<text text-anchor="middle" x="323" y="-130.5" font-family="Helvetica,sans-Serif" font-size="10.00">itkNumericTraits.h</text>
</a>
</g>
</g>
<!-- Node4&#45;&gt;Node9 -->
<g id="edge8" class="edge">
<title>Node4&#45;&gt;Node9</title>
<path fill="none" stroke="midnightblue" d="M469.43,-179.44C439.9,-170.28 392.88,-155.69 360.12,-145.52"/>
<polygon fill="midnightblue" stroke="midnightblue" points="361.03,-142.14 350.44,-142.52 358.96,-148.82 361.03,-142.14"/>
</g>
<!-- Node18 -->
<g id="node18" class="node">
<title>Node18</title>
<g id="a_node18"><a xlink:title=" ">
<polygon fill="white" stroke="#bfbfbf" points="475,-123.5 475,-142.5 519,-142.5 519,-123.5 475,-123.5"/>
<text text-anchor="middle" x="497" y="-130.5" font-family="Helvetica,sans-Serif" font-size="10.00">cfenv</text>
</a>
</g>
</g>
<!-- Node4&#45;&gt;Node18 -->
<g id="edge21" class="edge">
<title>Node4&#45;&gt;Node18</title>
<path fill="none" stroke="midnightblue" d="M497,-179.08C497,-172.01 497,-161.86 497,-152.99"/>
<polygon fill="midnightblue" stroke="midnightblue" points="500.5,-152.75 497,-142.75 493.5,-152.75 500.5,-152.75"/>
</g>
<!-- Node6 -->
<g id="node6" class="node">
<title>Node6</title>
<g id="a_node6"><a xlink:href="itkMacro_8h.html" target="_top" xlink:title=" ">
<polygon fill="white" stroke="black" points="81,-6 81,-25 149,-25 149,-6 81,-6"/>
<text text-anchor="middle" x="115" y="-13" font-family="Helvetica,sans-Serif" font-size="10.00">itkMacro.h</text>
</a>
</g>
</g>
<!-- Node5&#45;&gt;Node6 -->
<g id="edge5" class="edge">
<title>Node5&#45;&gt;Node6</title>
<path fill="none" stroke="midnightblue" d="M688.48,-68.35C685.28,-67.85 682.09,-67.39 679,-67 448.27,-37.95 384.89,-77.35 157,-31 153.49,-30.29 149.88,-29.36 146.31,-28.31"/>
<polygon fill="midnightblue" stroke="midnightblue" points="147.09,-24.88 136.5,-25.14 144.93,-31.54 147.09,-24.88"/>
</g>
<!-- Node5&#45;&gt;Node7 -->
<g id="edge6" class="edge">
<title>Node5&#45;&gt;Node7</title>
<path fill="none" stroke="midnightblue" d="M740.75,-67.48C755.03,-57.93 778.4,-42.31 795.51,-30.87"/>
<polygon fill="midnightblue" stroke="midnightblue" points="797.9,-33.48 804.27,-25.01 794.01,-27.66 797.9,-33.48"/>
</g>
<!-- Node8 -->
<g id="node8" class="node">
<title>Node8</title>
<g id="a_node8"><a xlink:title=" ">
<polygon fill="white" stroke="#bfbfbf" points="705,-6 705,-25 755,-25 755,-6 705,-6"/>
<text text-anchor="middle" x="730" y="-13" font-family="Helvetica,sans-Serif" font-size="10.00">climits</text>
</a>
</g>
</g>
<!-- Node5&#45;&gt;Node8 -->
<g id="edge7" class="edge">
<title>Node5&#45;&gt;Node8</title>
<path fill="none" stroke="midnightblue" d="M728.29,-67.48C728.57,-59.08 729.01,-45.98 729.37,-35.16"/>
<polygon fill="midnightblue" stroke="midnightblue" points="732.88,-35.12 729.71,-25.01 725.88,-34.89 732.88,-35.12"/>
</g>
<!-- Node9&#45;&gt;Node6 -->
<g id="edge9" class="edge">
<title>Node9&#45;&gt;Node6</title>
<path fill="none" stroke="midnightblue" d="M295.08,-123.49C271.18,-115.64 236.24,-102.83 208,-87 179.6,-71.08 150.21,-47.37 132.26,-31.92"/>
<polygon fill="midnightblue" stroke="midnightblue" points="134.26,-29.01 124.42,-25.07 129.65,-34.28 134.26,-29.01"/>
</g>
<!-- Node9&#45;&gt;Node10 -->
<g id="edge10" class="edge">
<title>Node9&#45;&gt;Node10</title>
<path fill="none" stroke="midnightblue" d="M289.09,-123.44C248.43,-113.18 180.81,-96.12 141.01,-86.08"/>
<polygon fill="midnightblue" stroke="midnightblue" points="141.84,-82.68 131.29,-83.62 140.13,-89.46 141.84,-82.68"/>
</g>
<!-- Node11 -->
<g id="node11" class="node">
<title>Node11</title>
<g id="a_node11"><a xlink:title=" ">
<polygon fill="white" stroke="#bfbfbf" points="225.5,-67.5 225.5,-86.5 284.5,-86.5 284.5,-67.5 225.5,-67.5"/>
<text text-anchor="middle" x="255" y="-74.5" font-family="Helvetica,sans-Serif" font-size="10.00">complex</text>
</a>
</g>
</g>
<!-- Node9&#45;&gt;Node11 -->
<g id="edge11" class="edge">
<title>Node9&#45;&gt;Node11</title>
<path fill="none" stroke="midnightblue" d="M312.07,-123.32C301.83,-115.18 286.28,-102.84 274,-93.09"/>
<polygon fill="midnightblue" stroke="midnightblue" points="276.13,-90.31 266.12,-86.83 271.78,-95.79 276.13,-90.31"/>
</g>
<!-- Node12 -->
<g id="node12" class="node">
<title>Node12</title>
<g id="a_node12"><a xlink:href="itkFixedArray_8h.html" target="_top" xlink:title=" ">
<polygon fill="white" stroke="black" points="341.5,-67.5 341.5,-86.5 430.5,-86.5 430.5,-67.5 341.5,-67.5"/>
<text text-anchor="middle" x="386" y="-74.5" font-family="Helvetica,sans-Serif" font-size="10.00">itkFixedArray.h</text>
</a>
</g>
</g>
<!-- Node9&#45;&gt;Node12 -->
<g id="edge12" class="edge">
<title>Node9&#45;&gt;Node12</title>
<path fill="none" stroke="midnightblue" d="M333.12,-123.32C342.53,-115.26 356.74,-103.08 368.07,-93.37"/>
<polygon fill="midnightblue" stroke="midnightblue" points="370.38,-96 375.69,-86.83 365.82,-90.68 370.38,-96"/>
</g>
<!-- Node12&#45;&gt;Node6 -->
<g id="edge13" class="edge">
<title>Node12&#45;&gt;Node6</title>
<path fill="none" stroke="midnightblue" d="M341.25,-69.09C294.78,-61.48 220.18,-48.03 157,-31 153.97,-30.18 150.84,-29.26 147.72,-28.28"/>
<polygon fill="midnightblue" stroke="midnightblue" points="148.52,-24.86 137.93,-25.06 146.33,-31.51 148.52,-24.86"/>
</g>
<!-- Node13 -->
<g id="node13" class="node">
<title>Node13</title>
<g id="a_node13"><a xlink:href="itkMakeFilled_8h.html" target="_top" xlink:title=" ">
<polygon fill="white" stroke="black" points="535.5,-6 535.5,-25 626.5,-25 626.5,-6 535.5,-6"/>
<text text-anchor="middle" x="581" y="-13" font-family="Helvetica,sans-Serif" font-size="10.00">itkMakeFilled.h</text>
</a>
</g>
</g>
<!-- Node12&#45;&gt;Node13 -->
<g id="edge14" class="edge">
<title>Node12&#45;&gt;Node13</title>
<path fill="none" stroke="midnightblue" d="M413.94,-67.48C447.97,-57.09 505.58,-39.51 543.46,-27.95"/>
<polygon fill="midnightblue" stroke="midnightblue" points="544.57,-31.28 553.11,-25.01 542.53,-24.58 544.57,-31.28"/>
</g>
<!-- Node14 -->
<g id="node14" class="node">
<title>Node14</title>
<g id="a_node14"><a xlink:title=" ">
<polygon fill="white" stroke="#bfbfbf" points="453,-6 453,-25 517,-25 517,-6 453,-6"/>
<text text-anchor="middle" x="485" y="-13" font-family="Helvetica,sans-Serif" font-size="10.00">algorithm</text>
</a>
</g>
</g>
<!-- Node12&#45;&gt;Node14 -->
<g id="edge15" class="edge">
<title>Node12&#45;&gt;Node14</title>
<path fill="none" stroke="midnightblue" d="M400.18,-67.48C416.36,-57.75 443.03,-41.73 462.14,-30.24"/>
<polygon fill="midnightblue" stroke="midnightblue" points="464.07,-33.16 470.84,-25.01 460.47,-27.16 464.07,-33.16"/>
</g>
<!-- Node12&#45;&gt;Node15 -->
<g id="edge16" class="edge">
<title>Node12&#45;&gt;Node15</title>
<path fill="none" stroke="midnightblue" d="M430.92,-71.43C481.44,-65.47 565.51,-53.12 635,-31 636.67,-30.47 638.37,-29.86 640.07,-29.21"/>
<polygon fill="midnightblue" stroke="midnightblue" points="641.77,-32.29 649.59,-25.14 639.02,-25.86 641.77,-32.29"/>
</g>
<!-- Node16 -->
<g id="node16" class="node">
<title>Node16</title>
<g id="a_node16"><a xlink:title=" ">
<polygon fill="white" stroke="#bfbfbf" points="333.5,-6 333.5,-25 434.5,-25 434.5,-6 333.5,-6"/>
<text text-anchor="middle" x="384" y="-13" font-family="Helvetica,sans-Serif" font-size="10.00">itkFixedArray.hxx</text>
</a>
</g>
</g>
<!-- Node12&#45;&gt;Node16 -->
<g id="edge17" class="edge">
<title>Node12&#45;&gt;Node16</title>
<path fill="none" stroke="midnightblue" d="M385.71,-67.48C385.43,-59.08 384.99,-45.98 384.63,-35.16"/>
<polygon fill="midnightblue" stroke="midnightblue" points="388.12,-34.89 384.29,-25.01 381.12,-35.12 388.12,-34.89"/>
</g>
<!-- Node17 -->
<g id="node17" class="node">
<title>Node17</title>
<g id="a_node17"><a xlink:href="itkNumericTraitsFixedArrayPixel_8h.html" target="_top" xlink:title=" ">
<polygon fill="white" stroke="black" points="166.5,-0.5 166.5,-30.5 315.5,-30.5 315.5,-0.5 166.5,-0.5"/>
<text text-anchor="start" x="174.5" y="-18.5" font-family="Helvetica,sans-Serif" font-size="10.00">itkNumericTraitsFixedArray</text>
<text text-anchor="middle" x="241" y="-7.5" font-family="Helvetica,sans-Serif" font-size="10.00">Pixel.h</text>
</a>
</g>
</g>
<!-- Node12&#45;&gt;Node17 -->
<g id="edge18" class="edge">
<title>Node12&#45;&gt;Node17</title>
<path fill="none" stroke="midnightblue" d="M360.32,-67.48C337.63,-58.93 304.46,-45.5 278.78,-34.57"/>
<polygon fill="midnightblue" stroke="midnightblue" points="279.91,-31.25 269.34,-30.52 277.15,-37.68 279.91,-31.25"/>
</g>
<!-- Node17&#45;&gt;Node9 -->
<g id="edge19" class="edge">
<title>Node17&#45;&gt;Node9</title>
<path fill="none" stroke="midnightblue" d="M228.86,-30.67C217.63,-45.61 204.29,-69.37 216,-87 226.78,-103.22 244.66,-113.61 262.76,-120.25"/>
<polygon fill="midnightblue" stroke="midnightblue" points="261.9,-123.66 272.49,-123.49 264.1,-117.01 261.9,-123.66"/>
</g>
<!-- Node17&#45;&gt;Node12 -->
<g id="edge20" class="edge">
<title>Node17&#45;&gt;Node12</title>
<path fill="none" stroke="midnightblue" d="M281,-30.52C306.53,-40.47 338.72,-53.7 360.77,-63.33"/>
<polygon fill="midnightblue" stroke="midnightblue" points="359.56,-66.63 370.13,-67.48 362.4,-60.23 359.56,-66.63"/>
</g>
<!-- Node19&#45;&gt;Node9 -->
<g id="edge25" class="edge">
<title>Node19&#45;&gt;Node9</title>
<path fill="none" stroke="midnightblue" d="M363.07,-179.08C356.15,-171.3 345.93,-159.8 337.55,-150.37"/>
<polygon fill="midnightblue" stroke="midnightblue" points="340.04,-147.9 330.78,-142.75 334.81,-152.55 340.04,-147.9"/>
</g>
<!-- Node20 -->
<g id="node20" class="node">
<title>Node20</title>
<g id="a_node20"><a xlink:href="itkPixelTraits_8h.html" target="_top" xlink:title=" ">
<polygon fill="white" stroke="black" points="0,-123.5 0,-142.5 88,-142.5 88,-123.5 0,-123.5"/>
<text text-anchor="middle" x="44" y="-130.5" font-family="Helvetica,sans-Serif" font-size="10.00">itkPixelTraits.h</text>
</a>
</g>
</g>
<!-- Node19&#45;&gt;Node20 -->
<g id="edge23" class="edge">
<title>Node19&#45;&gt;Node20</title>
<path fill="none" stroke="midnightblue" d="M319.19,-179.44C258.8,-169.47 159.47,-153.07 98.11,-142.94"/>
<polygon fill="midnightblue" stroke="midnightblue" points="98.67,-139.48 88.23,-141.3 97.53,-146.39 98.67,-139.48"/>
</g>
<!-- Node21 -->
<g id="node21" class="node">
<title>Node21</title>
<g id="a_node21"><a xlink:title=" ">
<polygon fill="white" stroke="#bfbfbf" points="192,-123.5 192,-142.5 252,-142.5 252,-123.5 192,-123.5"/>
<text text-anchor="middle" x="222" y="-130.5" font-family="Helvetica,sans-Serif" font-size="10.00">iostream</text>
</a>
</g>
</g>
<!-- Node19&#45;&gt;Node21 -->
<g id="edge26" class="edge">
<title>Node19&#45;&gt;Node21</title>
<path fill="none" stroke="midnightblue" d="M347.39,-179.44C322.54,-170.44 283.23,-156.19 255.25,-146.05"/>
<polygon fill="midnightblue" stroke="midnightblue" points="256.09,-142.63 245.5,-142.52 253.71,-149.21 256.09,-142.63"/>
</g>
<!-- Node20&#45;&gt;Node6 -->
<g id="edge24" class="edge">
<title>Node20&#45;&gt;Node6</title>
<path fill="none" stroke="midnightblue" d="M48.01,-123.36C53.99,-110.69 65.88,-86.46 78,-67 85.3,-55.28 94.48,-42.75 101.86,-33.1"/>
<polygon fill="midnightblue" stroke="midnightblue" points="104.66,-35.2 108.03,-25.16 99.13,-30.9 104.66,-35.2"/>
</g>
<!-- Node24&#45;&gt;Node2 -->
<g id="edge37" class="edge">
<title>Node24&#45;&gt;Node2</title>
<path fill="none" stroke="midnightblue" d="M650.16,-291.44C619.14,-282.24 569.67,-267.56 535.38,-257.39"/>
<polygon fill="midnightblue" stroke="midnightblue" points="536.29,-254.01 525.7,-254.52 534.29,-260.72 536.29,-254.01"/>
</g>
<!-- Node25 -->
<g id="node25" class="node">
<title>Node25</title>
<g id="a_node25"><a xlink:href="itkSize_8h.html" target="_top" xlink:title=" ">
<polygon fill="white" stroke="black" points="543.5,-123.5 543.5,-142.5 602.5,-142.5 602.5,-123.5 543.5,-123.5"/>
<text text-anchor="middle" x="573" y="-130.5" font-family="Helvetica,sans-Serif" font-size="10.00">itkSize.h</text>
</a>
</g>
</g>
<!-- Node24&#45;&gt;Node25 -->
<g id="edge30" class="edge">
<title>Node24&#45;&gt;Node25</title>
<path fill="none" stroke="midnightblue" d="M680.01,-291.41C682.04,-270.13 684.46,-214.19 659,-179 647.69,-163.36 629.29,-152.71 612.4,-145.71"/>
<polygon fill="midnightblue" stroke="midnightblue" points="613.29,-142.31 602.7,-142.01 610.79,-148.85 613.29,-142.31"/>
</g>
<!-- Node25&#45;&gt;Node5 -->
<g id="edge31" class="edge">
<title>Node25&#45;&gt;Node5</title>
<path fill="none" stroke="midnightblue" d="M597.56,-123.44C623.52,-114.4 664.67,-100.06 693.8,-89.92"/>
<polygon fill="midnightblue" stroke="midnightblue" points="695.26,-93.11 703.55,-86.52 692.96,-86.5 695.26,-93.11"/>
</g>
<!-- Node25&#45;&gt;Node6 -->
<g id="edge32" class="edge">
<title>Node25&#45;&gt;Node6</title>
<path fill="none" stroke="midnightblue" d="M543.48,-126.03C538.32,-125 533.01,-123.96 528,-123 441.02,-106.31 415.85,-115.51 332,-87 313.56,-80.73 311.19,-73.98 293,-67 234.62,-44.6 216.81,-49.21 157,-31 154.23,-30.16 151.37,-29.25 148.51,-28.32"/>
<polygon fill="midnightblue" stroke="midnightblue" points="149.48,-24.95 138.89,-25.09 147.26,-31.59 149.48,-24.95"/>
</g>
<!-- Node25&#45;&gt;Node13 -->
<g id="edge33" class="edge">
<title>Node25&#45;&gt;Node13</title>
<path fill="none" stroke="midnightblue" d="M573.6,-123.32C574.89,-104.76 577.93,-60.84 579.69,-35.47"/>
<polygon fill="midnightblue" stroke="midnightblue" points="583.19,-35.5 580.39,-25.28 576.21,-35.02 583.19,-35.5"/>
</g>
<!-- Node25&#45;&gt;Node14 -->
<g id="edge34" class="edge">
<title>Node25&#45;&gt;Node14</title>
<path fill="none" stroke="midnightblue" d="M543.35,-126.69C521.14,-120.99 492.25,-109.52 478,-87 468.16,-71.44 472.22,-49.98 477.29,-34.83"/>
<polygon fill="midnightblue" stroke="midnightblue" points="480.7,-35.69 480.97,-25.09 474.16,-33.21 480.7,-35.69"/>
</g>
<!-- Node26 -->
<g id="node26" class="node">
<title>Node26</title>
<g id="a_node26"><a xlink:title=" ">
<polygon fill="white" stroke="#bfbfbf" points="601.5,-67.5 601.5,-86.5 670.5,-86.5 670.5,-67.5 601.5,-67.5"/>
<text text-anchor="middle" x="636" y="-74.5" font-family="Helvetica,sans-Serif" font-size="10.00">type_traits</text>
</a>
</g>
</g>
<!-- Node25&#45;&gt;Node26 -->
<g id="edge35" class="edge">
<title>Node25&#45;&gt;Node26</title>
<path fill="none" stroke="midnightblue" d="M583.12,-123.32C592.53,-115.26 606.74,-103.08 618.07,-93.37"/>
<polygon fill="midnightblue" stroke="midnightblue" points="620.38,-96 625.69,-86.83 615.82,-90.68 620.38,-96"/>
</g>
<!-- Node27 -->
<g id="node27" class="node">
<title>Node27</title>
<g id="a_node27"><a xlink:title=" ">
<polygon fill="white" stroke="#bfbfbf" points="487,-67.5 487,-86.5 545,-86.5 545,-67.5 487,-67.5"/>
<text text-anchor="middle" x="516" y="-74.5" font-family="Helvetica,sans-Serif" font-size="10.00">memory</text>
</a>
</g>
</g>
<!-- Node25&#45;&gt;Node27 -->
<g id="edge36" class="edge">
<title>Node25&#45;&gt;Node27</title>
<path fill="none" stroke="midnightblue" d="M563.84,-123.32C555.5,-115.42 542.97,-103.55 532.82,-93.94"/>
<polygon fill="midnightblue" stroke="midnightblue" points="534.99,-91.17 525.32,-86.83 530.18,-96.25 534.99,-91.17"/>
</g>
</g>
</svg>
