<?xml version="1.0" encoding="UTF-8" standalone="no"?>
<!DOCTYPE svg PUBLIC "-//W3C//DTD SVG 1.1//EN"
 "http://www.w3.org/Graphics/SVG/1.1/DTD/svg11.dtd">
<!-- Generated by graphviz version 2.43.0 (0)
 -->
<!-- Title: itkConvertArrayPixelBuffer.h Pages: 1 -->
<svg width="1748pt" height="509pt"
 viewBox="0.00 0.00 1748.00 509.00" xmlns="http://www.w3.org/2000/svg" xmlns:xlink="http://www.w3.org/1999/xlink">
<g id="graph0" class="graph" transform="scale(1 1) rotate(0) translate(4 505)">
<title>itkConvertArrayPixelBuffer.h</title>
<polygon fill="white" stroke="transparent" points="-4,4 -4,-505 1744,-505 1744,4 -4,4"/>
<!-- Node1 -->
<g id="node1" class="node">
<title>Node1</title>
<g id="a_node1"><a xlink:title=" ">
<polygon fill="#bfbfbf" stroke="black" points="1380.5,-481.5 1380.5,-500.5 1535.5,-500.5 1535.5,-481.5 1380.5,-481.5"/>
<text text-anchor="middle" x="1458" y="-488.5" font-family="Helvetica,sans-Serif" font-size="10.00">itkConvertArrayPixelBuffer.h</text>
</a>
</g>
</g>
<!-- Node2 -->
<g id="node2" class="node">
<title>Node2</title>
<g id="a_node2"><a xlink:href="itkConvertPixelBuffer_8h.html" target="_top" xlink:title=" ">
<polygon fill="white" stroke="black" points="723,-425.5 723,-444.5 851,-444.5 851,-425.5 723,-425.5"/>
<text text-anchor="middle" x="787" y="-432.5" font-family="Helvetica,sans-Serif" font-size="10.00">itkConvertPixelBuffer.h</text>
</a>
</g>
</g>
<!-- Node1&#45;&gt;Node2 -->
<g id="edge1" class="edge">
<title>Node1&#45;&gt;Node2</title>
<path fill="none" stroke="midnightblue" d="M1380.37,-483.75C1250.05,-473.26 989.01,-452.26 861.1,-441.96"/>
<polygon fill="midnightblue" stroke="midnightblue" points="861.25,-438.46 851,-441.15 860.69,-445.44 861.25,-438.46"/>
</g>
<!-- Node41 -->
<g id="node41" class="node">
<title>Node41</title>
<g id="a_node41"><a xlink:href="itkArray_8h.html" target="_top" xlink:title=" ">
<polygon fill="white" stroke="black" points="1426.5,-425.5 1426.5,-444.5 1489.5,-444.5 1489.5,-425.5 1426.5,-425.5"/>
<text text-anchor="middle" x="1458" y="-432.5" font-family="Helvetica,sans-Serif" font-size="10.00">itkArray.h</text>
</a>
</g>
</g>
<!-- Node1&#45;&gt;Node41 -->
<g id="edge57" class="edge">
<title>Node1&#45;&gt;Node41</title>
<path fill="none" stroke="midnightblue" d="M1458,-481.08C1458,-474.01 1458,-463.86 1458,-454.99"/>
<polygon fill="midnightblue" stroke="midnightblue" points="1461.5,-454.75 1458,-444.75 1454.5,-454.75 1461.5,-454.75"/>
</g>
<!-- Node46 -->
<g id="node46" class="node">
<title>Node46</title>
<g id="a_node46"><a xlink:title=" ">
<polygon fill="white" stroke="#bfbfbf" points="1507.5,-425.5 1507.5,-444.5 1674.5,-444.5 1674.5,-425.5 1507.5,-425.5"/>
<text text-anchor="middle" x="1591" y="-432.5" font-family="Helvetica,sans-Serif" font-size="10.00">itkConvertArrayPixelBuffer.hxx</text>
</a>
</g>
</g>
<!-- Node1&#45;&gt;Node46 -->
<g id="edge63" class="edge">
<title>Node1&#45;&gt;Node46</title>
<path fill="none" stroke="midnightblue" d="M1479.07,-481.44C1501.06,-472.52 1535.73,-458.44 1560.66,-448.32"/>
<polygon fill="midnightblue" stroke="midnightblue" points="1562.08,-451.52 1570.02,-444.52 1559.44,-445.04 1562.08,-451.52"/>
</g>
<!-- Node3 -->
<g id="node3" class="node">
<title>Node3</title>
<g id="a_node3"><a xlink:title=" ">
<polygon fill="white" stroke="#bfbfbf" points="533,-358.5 533,-377.5 671,-377.5 671,-358.5 533,-358.5"/>
<text text-anchor="middle" x="602" y="-365.5" font-family="Helvetica,sans-Serif" font-size="10.00">ITKIOImageBaseExport.h</text>
</a>
</g>
</g>
<!-- Node2&#45;&gt;Node3 -->
<g id="edge2" class="edge">
<title>Node2&#45;&gt;Node3</title>
<path fill="none" stroke="midnightblue" d="M762.43,-425.37C730,-413.97 672.73,-393.85 636.12,-380.99"/>
<polygon fill="midnightblue" stroke="midnightblue" points="636.97,-377.58 626.37,-377.56 634.65,-384.18 636.97,-377.58"/>
</g>
<!-- Node4 -->
<g id="node4" class="node">
<title>Node4</title>
<g id="a_node4"><a xlink:href="itkObject_8h.html" target="_top" xlink:title=" ">
<polygon fill="white" stroke="black" points="689,-358.5 689,-377.5 759,-377.5 759,-358.5 689,-358.5"/>
<text text-anchor="middle" x="724" y="-365.5" font-family="Helvetica,sans-Serif" font-size="10.00">itkObject.h</text>
</a>
</g>
</g>
<!-- Node2&#45;&gt;Node4 -->
<g id="edge3" class="edge">
<title>Node2&#45;&gt;Node4</title>
<path fill="none" stroke="midnightblue" d="M778.5,-425.23C768.49,-414.9 751.66,-397.54 739.34,-384.83"/>
<polygon fill="midnightblue" stroke="midnightblue" points="741.83,-382.37 732.36,-377.63 736.81,-387.24 741.83,-382.37"/>
</g>
<!-- Node10 -->
<g id="node10" class="node">
<title>Node10</title>
<g id="a_node10"><a xlink:title=" ">
<polygon fill="white" stroke="#bfbfbf" points="724.5,-56.5 724.5,-75.5 793.5,-75.5 793.5,-56.5 724.5,-56.5"/>
<text text-anchor="middle" x="759" y="-63.5" font-family="Helvetica,sans-Serif" font-size="10.00">type_traits</text>
</a>
</g>
</g>
<!-- Node2&#45;&gt;Node10 -->
<g id="edge52" class="edge">
<title>Node2&#45;&gt;Node10</title>
<path fill="none" stroke="midnightblue" d="M786.34,-425.29C782.74,-378.19 765.6,-153.55 760.46,-86.16"/>
<polygon fill="midnightblue" stroke="midnightblue" points="763.92,-85.5 759.67,-75.79 756.94,-86.03 763.92,-85.5"/>
</g>
<!-- Node29 -->
<g id="node29" class="node">
<title>Node29</title>
<g id="a_node29"><a xlink:href="itkNumericTraits_8h.html" target="_top" xlink:title=" ">
<polygon fill="white" stroke="black" points="829,-358.5 829,-377.5 935,-377.5 935,-358.5 829,-358.5"/>
<text text-anchor="middle" x="882" y="-365.5" font-family="Helvetica,sans-Serif" font-size="10.00">itkNumericTraits.h</text>
</a>
</g>
</g>
<!-- Node2&#45;&gt;Node29 -->
<g id="edge39" class="edge">
<title>Node2&#45;&gt;Node29</title>
<path fill="none" stroke="midnightblue" d="M799.81,-425.23C815.48,-414.51 842.22,-396.22 860.93,-383.41"/>
<polygon fill="midnightblue" stroke="midnightblue" points="863.11,-386.16 869.39,-377.63 859.16,-380.39 863.11,-386.16"/>
</g>
<!-- Node37 -->
<g id="node37" class="node">
<title>Node37</title>
<g id="a_node37"><a xlink:title=" ">
<polygon fill="white" stroke="#bfbfbf" points="953,-358.5 953,-377.5 1093,-377.5 1093,-358.5 953,-358.5"/>
<text text-anchor="middle" x="1023" y="-365.5" font-family="Helvetica,sans-Serif" font-size="10.00">itkConvertPixelBuffer.hxx</text>
</a>
</g>
</g>
<!-- Node2&#45;&gt;Node37 -->
<g id="edge53" class="edge">
<title>Node2&#45;&gt;Node37</title>
<path fill="none" stroke="midnightblue" d="M818.34,-425.37C860.51,-413.75 935.59,-393.08 982.14,-380.25"/>
<polygon fill="midnightblue" stroke="midnightblue" points="983.2,-383.59 991.91,-377.56 981.34,-376.84 983.2,-383.59"/>
</g>
<!-- Node38 -->
<g id="node38" class="node">
<title>Node38</title>
<g id="a_node38"><a xlink:title=" ">
<polygon fill="white" stroke="#bfbfbf" points="1111.5,-358.5 1111.5,-377.5 1194.5,-377.5 1194.5,-358.5 1111.5,-358.5"/>
<text text-anchor="middle" x="1153" y="-365.5" font-family="Helvetica,sans-Serif" font-size="10.00">itkRGBPixel.h</text>
</a>
</g>
</g>
<!-- Node2&#45;&gt;Node38 -->
<g id="edge54" class="edge">
<title>Node2&#45;&gt;Node38</title>
<path fill="none" stroke="midnightblue" d="M851.21,-429.21C915.49,-423.41 1016.8,-411.47 1102,-389 1109.46,-387.03 1117.31,-384.3 1124.56,-381.49"/>
<polygon fill="midnightblue" stroke="midnightblue" points="1126.03,-384.68 1133.98,-377.68 1123.4,-378.19 1126.03,-384.68"/>
</g>
<!-- Node39 -->
<g id="node39" class="node">
<title>Node39</title>
<g id="a_node39"><a xlink:title=" ">
<polygon fill="white" stroke="#bfbfbf" points="281,-358.5 281,-377.5 443,-377.5 443,-358.5 281,-358.5"/>
<text text-anchor="middle" x="362" y="-365.5" font-family="Helvetica,sans-Serif" font-size="10.00">itkDefaultConvertPixelTraits.h</text>
</a>
</g>
</g>
<!-- Node2&#45;&gt;Node39 -->
<g id="edge55" class="edge">
<title>Node2&#45;&gt;Node39</title>
<path fill="none" stroke="midnightblue" d="M722.84,-427.03C655.22,-419.29 545.74,-405.68 452,-389 437.42,-386.41 421.62,-383.07 407.39,-379.88"/>
<polygon fill="midnightblue" stroke="midnightblue" points="407.87,-376.4 397.34,-377.58 406.31,-383.22 407.87,-376.4"/>
</g>
<!-- Node40 -->
<g id="node40" class="node">
<title>Node40</title>
<g id="a_node40"><a xlink:title=" ">
<polygon fill="white" stroke="#bfbfbf" points="461.5,-358.5 461.5,-377.5 514.5,-377.5 514.5,-358.5 461.5,-358.5"/>
<text text-anchor="middle" x="488" y="-365.5" font-family="Helvetica,sans-Serif" font-size="10.00">cstddef</text>
</a>
</g>
</g>
<!-- Node2&#45;&gt;Node40 -->
<g id="edge56" class="edge">
<title>Node2&#45;&gt;Node40</title>
<path fill="none" stroke="midnightblue" d="M722.78,-429.1C668.57,-423.55 589.55,-412.06 524,-389 519.19,-387.31 514.28,-385.01 509.68,-382.57"/>
<polygon fill="midnightblue" stroke="midnightblue" points="511.25,-379.44 500.83,-377.53 507.78,-385.52 511.25,-379.44"/>
</g>
<!-- Node5 -->
<g id="node5" class="node">
<title>Node5</title>
<g id="a_node5"><a xlink:href="itkLightObject_8h.html" target="_top" xlink:title=" ">
<polygon fill="white" stroke="black" points="291,-168.5 291,-187.5 385,-187.5 385,-168.5 291,-168.5"/>
<text text-anchor="middle" x="338" y="-175.5" font-family="Helvetica,sans-Serif" font-size="10.00">itkLightObject.h</text>
</a>
</g>
</g>
<!-- Node4&#45;&gt;Node5 -->
<g id="edge4" class="edge">
<title>Node4&#45;&gt;Node5</title>
<path fill="none" stroke="midnightblue" d="M707.68,-358.35C699.56,-354.37 689.47,-349.89 680,-347 483.09,-286.89 353.9,-416.33 226,-255 217.44,-244.2 218.28,-235.41 226,-224 238.56,-205.42 260.2,-194.5 281.13,-188.1"/>
<polygon fill="midnightblue" stroke="midnightblue" points="282.27,-191.42 290.98,-185.38 280.41,-184.67 282.27,-191.42"/>
</g>
<!-- Node17 -->
<g id="node17" class="node">
<title>Node17</title>
<g id="a_node17"><a xlink:href="itkSingletonMacro_8h.html" target="_top" xlink:title=" ">
<polygon fill="white" stroke="black" points="0,-56.5 0,-75.5 114,-75.5 114,-56.5 0,-56.5"/>
<text text-anchor="middle" x="57" y="-63.5" font-family="Helvetica,sans-Serif" font-size="10.00">itkSingletonMacro.h</text>
</a>
</g>
</g>
<!-- Node4&#45;&gt;Node17 -->
<g id="edge37" class="edge">
<title>Node4&#45;&gt;Node17</title>
<path fill="none" stroke="midnightblue" d="M708.59,-358.43C700.36,-354.26 689.9,-349.59 680,-347 499.19,-299.64 442.03,-357.52 261,-311 186.13,-291.76 102,-317.8 102,-240.5 102,-240.5 102,-240.5 102,-177 102,-141.93 82.16,-104.94 68.83,-84.04"/>
<polygon fill="midnightblue" stroke="midnightblue" points="71.7,-82.03 63.26,-75.63 65.87,-85.9 71.7,-82.03"/>
</g>
<!-- Node20 -->
<g id="node20" class="node">
<title>Node20</title>
<g id="a_node20"><a xlink:href="itkEventObject_8h.html" target="_top" xlink:title=" ">
<polygon fill="white" stroke="black" points="638,-168.5 638,-187.5 736,-187.5 736,-168.5 638,-168.5"/>
<text text-anchor="middle" x="687" y="-175.5" font-family="Helvetica,sans-Serif" font-size="10.00">itkEventObject.h</text>
</a>
</g>
</g>
<!-- Node4&#45;&gt;Node20 -->
<g id="edge25" class="edge">
<title>Node4&#45;&gt;Node20</title>
<path fill="none" stroke="midnightblue" d="M715.24,-358.47C705.44,-348.26 690.13,-330.11 684,-311 671.57,-272.21 677.84,-223.67 682.84,-197.6"/>
<polygon fill="midnightblue" stroke="midnightblue" points="686.31,-198.12 684.91,-187.61 679.46,-196.7 686.31,-198.12"/>
</g>
<!-- Node21 -->
<g id="node21" class="node">
<title>Node21</title>
<g id="a_node21"><a xlink:href="itkMetaDataDictionary_8h.html" target="_top" xlink:title=" ">
<polygon fill="white" stroke="black" points="474.5,-291.5 474.5,-310.5 609.5,-310.5 609.5,-291.5 474.5,-291.5"/>
<text text-anchor="middle" x="542" y="-298.5" font-family="Helvetica,sans-Serif" font-size="10.00">itkMetaDataDictionary.h</text>
</a>
</g>
</g>
<!-- Node4&#45;&gt;Node21 -->
<g id="edge27" class="edge">
<title>Node4&#45;&gt;Node21</title>
<path fill="none" stroke="midnightblue" d="M706.21,-358.37C698.28,-354.66 688.76,-350.41 680,-347 647.16,-334.23 609.02,-321.98 581.17,-313.5"/>
<polygon fill="midnightblue" stroke="midnightblue" points="581.99,-310.09 571.41,-310.55 579.97,-316.79 581.99,-310.09"/>
</g>
<!-- Node28 -->
<g id="node28" class="node">
<title>Node28</title>
<g id="a_node28"><a xlink:title=" ">
<polygon fill="white" stroke="#bfbfbf" points="693.5,-291.5 693.5,-310.5 758.5,-310.5 758.5,-291.5 693.5,-291.5"/>
<text text-anchor="middle" x="726" y="-298.5" font-family="Helvetica,sans-Serif" font-size="10.00">functional</text>
</a>
</g>
</g>
<!-- Node4&#45;&gt;Node28 -->
<g id="edge38" class="edge">
<title>Node4&#45;&gt;Node28</title>
<path fill="none" stroke="midnightblue" d="M724.27,-358.23C724.56,-348.68 725.04,-333.12 725.42,-320.78"/>
<polygon fill="midnightblue" stroke="midnightblue" points="728.93,-320.73 725.73,-310.63 721.93,-320.51 728.93,-320.73"/>
</g>
<!-- Node6 -->
<g id="node6" class="node">
<title>Node6</title>
<g id="a_node6"><a xlink:href="itkMacro_8h.html" target="_top" xlink:title=" ">
<polygon fill="white" stroke="black" points="639,-0.5 639,-19.5 707,-19.5 707,-0.5 639,-0.5"/>
<text text-anchor="middle" x="673" y="-7.5" font-family="Helvetica,sans-Serif" font-size="10.00">itkMacro.h</text>
</a>
</g>
</g>
<!-- Node5&#45;&gt;Node6 -->
<g id="edge5" class="edge">
<title>Node5&#45;&gt;Node6</title>
<path fill="none" stroke="midnightblue" d="M336.97,-168.41C334.82,-146.13 332.5,-86.16 365,-56 402.45,-21.24 552.64,-13.28 628.57,-11.49"/>
<polygon fill="midnightblue" stroke="midnightblue" points="628.85,-14.99 638.77,-11.28 628.7,-7.99 628.85,-14.99"/>
</g>
<!-- Node7 -->
<g id="node7" class="node">
<title>Node7</title>
<g id="a_node7"><a xlink:href="itkSmartPointer_8h.html" target="_top" xlink:title=" ">
<polygon fill="white" stroke="black" points="366.5,-112.5 366.5,-131.5 467.5,-131.5 467.5,-112.5 366.5,-112.5"/>
<text text-anchor="middle" x="417" y="-119.5" font-family="Helvetica,sans-Serif" font-size="10.00">itkSmartPointer.h</text>
</a>
</g>
</g>
<!-- Node5&#45;&gt;Node7 -->
<g id="edge6" class="edge">
<title>Node5&#45;&gt;Node7</title>
<path fill="none" stroke="midnightblue" d="M350.69,-168.32C362.9,-159.98 381.58,-147.21 396,-137.35"/>
<polygon fill="midnightblue" stroke="midnightblue" points="398.06,-140.19 404.34,-131.65 394.11,-134.41 398.06,-140.19"/>
</g>
<!-- Node8 -->
<g id="node8" class="node">
<title>Node8</title>
<g id="a_node8"><a xlink:title=" ">
<polygon fill="white" stroke="#bfbfbf" points="561,-56.5 561,-75.5 621,-75.5 621,-56.5 561,-56.5"/>
<text text-anchor="middle" x="591" y="-63.5" font-family="Helvetica,sans-Serif" font-size="10.00">iostream</text>
</a>
</g>
</g>
<!-- Node5&#45;&gt;Node8 -->
<g id="edge23" class="edge">
<title>Node5&#45;&gt;Node8</title>
<path fill="none" stroke="midnightblue" d="M370.18,-168.48C398.59,-160.49 440.83,-147.49 476,-132 494.01,-124.07 539.55,-97.56 567.62,-80.95"/>
<polygon fill="midnightblue" stroke="midnightblue" points="569.59,-83.85 576.4,-75.74 566.01,-77.83 569.59,-83.85"/>
</g>
<!-- Node12 -->
<g id="node12" class="node">
<title>Node12</title>
<g id="a_node12"><a xlink:href="itkTimeStamp_8h.html" target="_top" xlink:title=" ">
<polygon fill="white" stroke="black" points="176.5,-112.5 176.5,-131.5 271.5,-131.5 271.5,-112.5 176.5,-112.5"/>
<text text-anchor="middle" x="224" y="-119.5" font-family="Helvetica,sans-Serif" font-size="10.00">itkTimeStamp.h</text>
</a>
</g>
</g>
<!-- Node5&#45;&gt;Node12 -->
<g id="edge11" class="edge">
<title>Node5&#45;&gt;Node12</title>
<path fill="none" stroke="midnightblue" d="M319.94,-168.44C301.43,-159.68 272.42,-145.94 251.14,-135.86"/>
<polygon fill="midnightblue" stroke="midnightblue" points="252.51,-132.63 241.98,-131.52 249.52,-138.96 252.51,-132.63"/>
</g>
<!-- Node16 -->
<g id="node16" class="node">
<title>Node16</title>
<g id="a_node16"><a xlink:title=" ">
<polygon fill="white" stroke="#bfbfbf" points="268,-56.5 268,-75.5 318,-75.5 318,-56.5 268,-56.5"/>
<text text-anchor="middle" x="293" y="-63.5" font-family="Helvetica,sans-Serif" font-size="10.00">atomic</text>
</a>
</g>
</g>
<!-- Node5&#45;&gt;Node16 -->
<g id="edge22" class="edge">
<title>Node5&#45;&gt;Node16</title>
<path fill="none" stroke="midnightblue" d="M334.47,-168.37C327.14,-150.46 310.15,-108.92 300.34,-84.95"/>
<polygon fill="midnightblue" stroke="midnightblue" points="303.54,-83.52 296.51,-75.59 297.06,-86.17 303.54,-83.52"/>
</g>
<!-- Node18 -->
<g id="node18" class="node">
<title>Node18</title>
<g id="a_node18"><a xlink:href="itkIndent_8h.html" target="_top" xlink:title=" ">
<polygon fill="white" stroke="black" points="638.5,-112.5 638.5,-131.5 707.5,-131.5 707.5,-112.5 638.5,-112.5"/>
<text text-anchor="middle" x="673" y="-119.5" font-family="Helvetica,sans-Serif" font-size="10.00">itkIndent.h</text>
</a>
</g>
</g>
<!-- Node5&#45;&gt;Node18 -->
<g id="edge19" class="edge">
<title>Node5&#45;&gt;Node18</title>
<path fill="none" stroke="midnightblue" d="M385.29,-169.38C449.87,-158.97 564.84,-140.44 628.13,-130.23"/>
<polygon fill="midnightblue" stroke="midnightblue" points="628.89,-133.66 638.2,-128.61 627.77,-126.75 628.89,-133.66"/>
</g>
<!-- Node19 -->
<g id="node19" class="node">
<title>Node19</title>
<g id="a_node19"><a xlink:title=" ">
<polygon fill="white" stroke="#bfbfbf" points="524.5,-112.5 524.5,-131.5 581.5,-131.5 581.5,-112.5 524.5,-112.5"/>
<text text-anchor="middle" x="553" y="-119.5" font-family="Helvetica,sans-Serif" font-size="10.00">typeinfo</text>
</a>
</g>
</g>
<!-- Node5&#45;&gt;Node19 -->
<g id="edge24" class="edge">
<title>Node5&#45;&gt;Node19</title>
<path fill="none" stroke="midnightblue" d="M372.07,-168.44C410.82,-158.71 473.95,-142.85 514.47,-132.68"/>
<polygon fill="midnightblue" stroke="midnightblue" points="515.41,-136.05 524.25,-130.22 513.7,-129.26 515.41,-136.05"/>
</g>
<!-- Node7&#45;&gt;Node8 -->
<g id="edge7" class="edge">
<title>Node7&#45;&gt;Node8</title>
<path fill="none" stroke="midnightblue" d="M444.57,-112.44C474.1,-103.28 521.12,-88.69 553.88,-78.52"/>
<polygon fill="midnightblue" stroke="midnightblue" points="555.04,-81.82 563.56,-75.52 552.97,-75.14 555.04,-81.82"/>
</g>
<!-- Node9 -->
<g id="node9" class="node">
<title>Node9</title>
<g id="a_node9"><a xlink:title=" ">
<polygon fill="white" stroke="#bfbfbf" points="477.5,-56.5 477.5,-75.5 522.5,-75.5 522.5,-56.5 477.5,-56.5"/>
<text text-anchor="middle" x="500" y="-63.5" font-family="Helvetica,sans-Serif" font-size="10.00">utility</text>
</a>
</g>
</g>
<!-- Node7&#45;&gt;Node9 -->
<g id="edge8" class="edge">
<title>Node7&#45;&gt;Node9</title>
<path fill="none" stroke="midnightblue" d="M430.34,-112.32C443.16,-103.98 462.78,-91.21 477.94,-81.35"/>
<polygon fill="midnightblue" stroke="midnightblue" points="480.22,-84.04 486.7,-75.65 476.41,-78.17 480.22,-84.04"/>
</g>
<!-- Node7&#45;&gt;Node10 -->
<g id="edge9" class="edge">
<title>Node7&#45;&gt;Node10</title>
<path fill="none" stroke="midnightblue" d="M467.83,-112.97C534.46,-102.45 650.3,-84.16 713.94,-74.12"/>
<polygon fill="midnightblue" stroke="midnightblue" points="714.73,-77.53 724.06,-72.52 713.64,-70.62 714.73,-77.53"/>
</g>
<!-- Node11 -->
<g id="node11" class="node">
<title>Node11</title>
<g id="a_node11"><a xlink:title=" ">
<polygon fill="white" stroke="#bfbfbf" points="374.5,-56.5 374.5,-75.5 459.5,-75.5 459.5,-56.5 374.5,-56.5"/>
<text text-anchor="middle" x="417" y="-63.5" font-family="Helvetica,sans-Serif" font-size="10.00">itkConfigure.h</text>
</a>
</g>
</g>
<!-- Node7&#45;&gt;Node11 -->
<g id="edge10" class="edge">
<title>Node7&#45;&gt;Node11</title>
<path fill="none" stroke="midnightblue" d="M417,-112.08C417,-105.01 417,-94.86 417,-85.99"/>
<polygon fill="midnightblue" stroke="midnightblue" points="420.5,-85.75 417,-75.75 413.5,-85.75 420.5,-85.75"/>
</g>
<!-- Node12&#45;&gt;Node6 -->
<g id="edge12" class="edge">
<title>Node12&#45;&gt;Node6</title>
<path fill="none" stroke="midnightblue" d="M225.98,-112.06C229.71,-97.59 239.23,-69.31 259,-56 318.54,-15.91 534.77,-10.94 628.81,-10.73"/>
<polygon fill="midnightblue" stroke="midnightblue" points="628.86,-14.23 638.86,-10.72 628.86,-7.23 628.86,-14.23"/>
</g>
<!-- Node13 -->
<g id="node13" class="node">
<title>Node13</title>
<g id="a_node13"><a xlink:href="itkIntTypes_8h.html" target="_top" xlink:title=" ">
<polygon fill="white" stroke="black" points="132.5,-56.5 132.5,-75.5 211.5,-75.5 211.5,-56.5 132.5,-56.5"/>
<text text-anchor="middle" x="172" y="-63.5" font-family="Helvetica,sans-Serif" font-size="10.00">itkIntTypes.h</text>
</a>
</g>
</g>
<!-- Node12&#45;&gt;Node13 -->
<g id="edge13" class="edge">
<title>Node12&#45;&gt;Node13</title>
<path fill="none" stroke="midnightblue" d="M215.41,-112.08C207.84,-104.22 196.62,-92.57 187.49,-83.08"/>
<polygon fill="midnightblue" stroke="midnightblue" points="189.88,-80.53 180.43,-75.75 184.84,-85.38 189.88,-80.53"/>
</g>
<!-- Node12&#45;&gt;Node16 -->
<g id="edge17" class="edge">
<title>Node12&#45;&gt;Node16</title>
<path fill="none" stroke="midnightblue" d="M235.09,-112.32C245.49,-104.18 261.26,-91.84 273.72,-82.09"/>
<polygon fill="midnightblue" stroke="midnightblue" points="275.99,-84.75 281.71,-75.83 271.68,-79.24 275.99,-84.75"/>
</g>
<!-- Node12&#45;&gt;Node17 -->
<g id="edge18" class="edge">
<title>Node12&#45;&gt;Node17</title>
<path fill="none" stroke="midnightblue" d="M197.54,-112.44C169.32,-103.32 124.46,-88.81 93.03,-78.65"/>
<polygon fill="midnightblue" stroke="midnightblue" points="93.93,-75.26 83.34,-75.52 91.78,-81.92 93.93,-75.26"/>
</g>
<!-- Node13&#45;&gt;Node6 -->
<g id="edge14" class="edge">
<title>Node13&#45;&gt;Node6</title>
<path fill="none" stroke="midnightblue" d="M211.77,-58.07C216.56,-57.33 221.38,-56.62 226,-56 373.05,-36.36 548.35,-21.07 628.74,-14.5"/>
<polygon fill="midnightblue" stroke="midnightblue" points="629.3,-17.96 638.99,-13.67 628.74,-10.99 629.3,-17.96"/>
</g>
<!-- Node14 -->
<g id="node14" class="node">
<title>Node14</title>
<g id="a_node14"><a xlink:title=" ">
<polygon fill="white" stroke="#bfbfbf" points="113,-0.5 113,-19.5 163,-19.5 163,-0.5 113,-0.5"/>
<text text-anchor="middle" x="138" y="-7.5" font-family="Helvetica,sans-Serif" font-size="10.00">cstdint</text>
</a>
</g>
</g>
<!-- Node13&#45;&gt;Node14 -->
<g id="edge15" class="edge">
<title>Node13&#45;&gt;Node14</title>
<path fill="none" stroke="midnightblue" d="M166.39,-56.08C161.63,-48.53 154.68,-37.49 148.85,-28.23"/>
<polygon fill="midnightblue" stroke="midnightblue" points="151.8,-26.35 143.51,-19.75 145.88,-30.08 151.8,-26.35"/>
</g>
<!-- Node15 -->
<g id="node15" class="node">
<title>Node15</title>
<g id="a_node15"><a xlink:title=" ">
<polygon fill="white" stroke="#bfbfbf" points="181,-0.5 181,-19.5 231,-19.5 231,-0.5 181,-0.5"/>
<text text-anchor="middle" x="206" y="-7.5" font-family="Helvetica,sans-Serif" font-size="10.00">climits</text>
</a>
</g>
</g>
<!-- Node13&#45;&gt;Node15 -->
<g id="edge16" class="edge">
<title>Node13&#45;&gt;Node15</title>
<path fill="none" stroke="midnightblue" d="M177.61,-56.08C182.37,-48.53 189.32,-37.49 195.15,-28.23"/>
<polygon fill="midnightblue" stroke="midnightblue" points="198.12,-30.08 200.49,-19.75 192.2,-26.35 198.12,-30.08"/>
</g>
<!-- Node18&#45;&gt;Node6 -->
<g id="edge20" class="edge">
<title>Node18&#45;&gt;Node6</title>
<path fill="none" stroke="midnightblue" d="M673,-112.37C673,-94.62 673,-53.67 673,-29.6"/>
<polygon fill="midnightblue" stroke="midnightblue" points="676.5,-29.59 673,-19.59 669.5,-29.59 676.5,-29.59"/>
</g>
<!-- Node18&#45;&gt;Node8 -->
<g id="edge21" class="edge">
<title>Node18&#45;&gt;Node8</title>
<path fill="none" stroke="midnightblue" d="M659.83,-112.32C647.15,-103.98 627.77,-91.21 612.79,-81.35"/>
<polygon fill="midnightblue" stroke="midnightblue" points="614.42,-78.23 604.14,-75.65 610.57,-84.08 614.42,-78.23"/>
</g>
<!-- Node20&#45;&gt;Node18 -->
<g id="edge26" class="edge">
<title>Node20&#45;&gt;Node18</title>
<path fill="none" stroke="midnightblue" d="M684.69,-168.08C682.83,-160.93 680.16,-150.64 677.85,-141.69"/>
<polygon fill="midnightblue" stroke="midnightblue" points="681.17,-140.55 675.27,-131.75 674.39,-142.31 681.17,-140.55"/>
</g>
<!-- Node22 -->
<g id="node22" class="node">
<title>Node22</title>
<g id="a_node22"><a xlink:href="itkMetaDataObjectBase_8h.html" target="_top" xlink:title=" ">
<polygon fill="white" stroke="black" points="235,-230 235,-249 377,-249 377,-230 235,-230"/>
<text text-anchor="middle" x="306" y="-237" font-family="Helvetica,sans-Serif" font-size="10.00">itkMetaDataObjectBase.h</text>
</a>
</g>
</g>
<!-- Node21&#45;&gt;Node22 -->
<g id="edge28" class="edge">
<title>Node21&#45;&gt;Node22</title>
<path fill="none" stroke="midnightblue" d="M508.19,-291.48C466.48,-280.96 395.49,-263.06 349.69,-251.51"/>
<polygon fill="midnightblue" stroke="midnightblue" points="350.3,-248.06 339.75,-249.01 348.59,-254.85 350.3,-248.06"/>
</g>
<!-- Node23 -->
<g id="node23" class="node">
<title>Node23</title>
<g id="a_node23"><a xlink:title=" ">
<polygon fill="white" stroke="#bfbfbf" points="693,-230 693,-249 757,-249 757,-230 693,-230"/>
<text text-anchor="middle" x="725" y="-237" font-family="Helvetica,sans-Serif" font-size="10.00">algorithm</text>
</a>
</g>
</g>
<!-- Node21&#45;&gt;Node23 -->
<g id="edge32" class="edge">
<title>Node21&#45;&gt;Node23</title>
<path fill="none" stroke="midnightblue" d="M568.22,-291.48C600.02,-281.14 653.77,-263.66 689.32,-252.1"/>
<polygon fill="midnightblue" stroke="midnightblue" points="690.4,-255.43 698.83,-249.01 688.24,-248.77 690.4,-255.43"/>
</g>
<!-- Node24 -->
<g id="node24" class="node">
<title>Node24</title>
<g id="a_node24"><a xlink:title=" ">
<polygon fill="white" stroke="#bfbfbf" points="589.5,-230 589.5,-249 636.5,-249 636.5,-230 589.5,-230"/>
<text text-anchor="middle" x="613" y="-237" font-family="Helvetica,sans-Serif" font-size="10.00">vector</text>
</a>
</g>
</g>
<!-- Node21&#45;&gt;Node24 -->
<g id="edge33" class="edge">
<title>Node21&#45;&gt;Node24</title>
<path fill="none" stroke="midnightblue" d="M552.17,-291.48C563.35,-282.11 581.52,-266.88 595.09,-255.51"/>
<polygon fill="midnightblue" stroke="midnightblue" points="597.43,-258.11 602.85,-249.01 592.93,-252.75 597.43,-258.11"/>
</g>
<!-- Node25 -->
<g id="node25" class="node">
<title>Node25</title>
<g id="a_node25"><a xlink:title=" ">
<polygon fill="white" stroke="#bfbfbf" points="395,-230 395,-249 433,-249 433,-230 395,-230"/>
<text text-anchor="middle" x="414" y="-237" font-family="Helvetica,sans-Serif" font-size="10.00">map</text>
</a>
</g>
</g>
<!-- Node21&#45;&gt;Node25 -->
<g id="edge34" class="edge">
<title>Node21&#45;&gt;Node25</title>
<path fill="none" stroke="midnightblue" d="M521.93,-291.36C501.63,-282.52 469.42,-268.26 442,-255 441.16,-254.59 440.31,-254.18 439.45,-253.75"/>
<polygon fill="midnightblue" stroke="midnightblue" points="440.71,-250.47 430.21,-249.09 437.56,-256.72 440.71,-250.47"/>
</g>
<!-- Node26 -->
<g id="node26" class="node">
<title>Node26</title>
<g id="a_node26"><a xlink:title=" ">
<polygon fill="white" stroke="#bfbfbf" points="451,-230 451,-249 495,-249 495,-230 451,-230"/>
<text text-anchor="middle" x="473" y="-237" font-family="Helvetica,sans-Serif" font-size="10.00">string</text>
</a>
</g>
</g>
<!-- Node21&#45;&gt;Node26 -->
<g id="edge35" class="edge">
<title>Node21&#45;&gt;Node26</title>
<path fill="none" stroke="midnightblue" d="M532.11,-291.48C521.35,-282.2 503.93,-267.17 490.78,-255.83"/>
<polygon fill="midnightblue" stroke="midnightblue" points="492.73,-252.89 482.87,-249.01 488.16,-258.19 492.73,-252.89"/>
</g>
<!-- Node27 -->
<g id="node27" class="node">
<title>Node27</title>
<g id="a_node27"><a xlink:title=" ">
<polygon fill="white" stroke="#bfbfbf" points="513,-230 513,-249 571,-249 571,-230 513,-230"/>
<text text-anchor="middle" x="542" y="-237" font-family="Helvetica,sans-Serif" font-size="10.00">memory</text>
</a>
</g>
</g>
<!-- Node21&#45;&gt;Node27 -->
<g id="edge36" class="edge">
<title>Node21&#45;&gt;Node27</title>
<path fill="none" stroke="midnightblue" d="M542,-291.48C542,-283.08 542,-269.98 542,-259.16"/>
<polygon fill="midnightblue" stroke="midnightblue" points="545.5,-259.01 542,-249.01 538.5,-259.01 545.5,-259.01"/>
</g>
<!-- Node22&#45;&gt;Node5 -->
<g id="edge29" class="edge">
<title>Node22&#45;&gt;Node5</title>
<path fill="none" stroke="midnightblue" d="M310.58,-229.98C315.24,-221.32 322.59,-207.65 328.51,-196.65"/>
<polygon fill="midnightblue" stroke="midnightblue" points="331.77,-197.97 333.42,-187.51 325.6,-194.66 331.77,-197.97"/>
</g>
<!-- Node22&#45;&gt;Node8 -->
<g id="edge31" class="edge">
<title>Node22&#45;&gt;Node8</title>
<path fill="none" stroke="midnightblue" d="M343.61,-229.98C413.97,-213.2 561.05,-173.84 590,-132 599.22,-118.67 598.41,-99.84 595.92,-85.88"/>
<polygon fill="midnightblue" stroke="midnightblue" points="599.3,-84.93 593.73,-75.92 592.46,-86.44 599.3,-84.93"/>
</g>
<!-- Node22&#45;&gt;Node19 -->
<g id="edge30" class="edge">
<title>Node22&#45;&gt;Node19</title>
<path fill="none" stroke="midnightblue" d="M324.57,-229.82C367.67,-209.66 474.73,-159.6 525.48,-135.87"/>
<polygon fill="midnightblue" stroke="midnightblue" points="526.98,-139.03 534.56,-131.62 524.02,-132.69 526.98,-139.03"/>
</g>
<!-- Node29&#45;&gt;Node6 -->
<g id="edge40" class="edge">
<title>Node29&#45;&gt;Node6</title>
<path fill="none" stroke="midnightblue" d="M907.24,-358.49C918.45,-354.81 931.84,-350.54 944,-347 1109.54,-298.83 1317,-412.9 1317,-240.5 1317,-240.5 1317,-240.5 1317,-121 1317,-60.07 863.3,-23.93 717.52,-13.89"/>
<polygon fill="midnightblue" stroke="midnightblue" points="717.38,-10.37 707.17,-13.18 716.91,-17.35 717.38,-10.37"/>
</g>
<!-- Node30 -->
<g id="node30" class="node">
<title>Node30</title>
<g id="a_node30"><a xlink:title=" ">
<polygon fill="white" stroke="#bfbfbf" points="1345,-291.5 1345,-310.5 1389,-310.5 1389,-291.5 1345,-291.5"/>
<text text-anchor="middle" x="1367" y="-298.5" font-family="Helvetica,sans-Serif" font-size="10.00">limits</text>
</a>
</g>
</g>
<!-- Node29&#45;&gt;Node30 -->
<g id="edge41" class="edge">
<title>Node29&#45;&gt;Node30</title>
<path fill="none" stroke="midnightblue" d="M904.36,-358.48C916.01,-354.37 930.59,-349.75 944,-347 1113.22,-312.28 1160.71,-340.03 1331,-311 1332.25,-310.79 1333.52,-310.55 1334.8,-310.3"/>
<polygon fill="midnightblue" stroke="midnightblue" points="1335.62,-313.71 1344.64,-308.15 1334.13,-306.87 1335.62,-313.71"/>
</g>
<!-- Node31 -->
<g id="node31" class="node">
<title>Node31</title>
<g id="a_node31"><a xlink:title=" ">
<polygon fill="white" stroke="#bfbfbf" points="959.5,-291.5 959.5,-310.5 1018.5,-310.5 1018.5,-291.5 959.5,-291.5"/>
<text text-anchor="middle" x="989" y="-298.5" font-family="Helvetica,sans-Serif" font-size="10.00">complex</text>
</a>
</g>
</g>
<!-- Node29&#45;&gt;Node31 -->
<g id="edge42" class="edge">
<title>Node29&#45;&gt;Node31</title>
<path fill="none" stroke="midnightblue" d="M896.43,-358.23C914.32,-347.37 945.02,-328.72 966.13,-315.89"/>
<polygon fill="midnightblue" stroke="midnightblue" points="968.07,-318.81 974.8,-310.63 964.43,-312.83 968.07,-318.81"/>
</g>
<!-- Node32 -->
<g id="node32" class="node">
<title>Node32</title>
<g id="a_node32"><a xlink:href="itkFixedArray_8h.html" target="_top" xlink:title=" ">
<polygon fill="white" stroke="black" points="852.5,-291.5 852.5,-310.5 941.5,-310.5 941.5,-291.5 852.5,-291.5"/>
<text text-anchor="middle" x="897" y="-298.5" font-family="Helvetica,sans-Serif" font-size="10.00">itkFixedArray.h</text>
</a>
</g>
</g>
<!-- Node29&#45;&gt;Node32 -->
<g id="edge43" class="edge">
<title>Node29&#45;&gt;Node32</title>
<path fill="none" stroke="midnightblue" d="M884.02,-358.23C886.25,-348.59 889.89,-332.8 892.75,-320.41"/>
<polygon fill="midnightblue" stroke="midnightblue" points="896.17,-321.16 895.01,-310.63 889.35,-319.58 896.17,-321.16"/>
</g>
<!-- Node32&#45;&gt;Node6 -->
<g id="edge44" class="edge">
<title>Node32&#45;&gt;Node6</title>
<path fill="none" stroke="midnightblue" d="M881.87,-291.44C869.32,-283.56 851.97,-270.73 842,-255 823.36,-225.59 823,-213.82 823,-179 823,-179 823,-179 823,-121 823,-90.64 823.22,-77.71 802,-56 779.56,-33.03 744.78,-21.77 716.98,-16.26"/>
<polygon fill="midnightblue" stroke="midnightblue" points="717.56,-12.81 707.1,-14.48 716.32,-19.7 717.56,-12.81"/>
</g>
<!-- Node32&#45;&gt;Node23 -->
<g id="edge46" class="edge">
<title>Node32&#45;&gt;Node23</title>
<path fill="none" stroke="midnightblue" d="M872.36,-291.48C842.72,-281.22 792.82,-263.96 759.4,-252.4"/>
<polygon fill="midnightblue" stroke="midnightblue" points="760.19,-248.97 749.6,-249.01 757.9,-255.59 760.19,-248.97"/>
</g>
<!-- Node33 -->
<g id="node33" class="node">
<title>Node33</title>
<g id="a_node33"><a xlink:href="itkMakeFilled_8h.html" target="_top" xlink:title=" ">
<polygon fill="white" stroke="black" points="851.5,-230 851.5,-249 942.5,-249 942.5,-230 851.5,-230"/>
<text text-anchor="middle" x="897" y="-237" font-family="Helvetica,sans-Serif" font-size="10.00">itkMakeFilled.h</text>
</a>
</g>
</g>
<!-- Node32&#45;&gt;Node33 -->
<g id="edge45" class="edge">
<title>Node32&#45;&gt;Node33</title>
<path fill="none" stroke="midnightblue" d="M897,-291.48C897,-283.08 897,-269.98 897,-259.16"/>
<polygon fill="midnightblue" stroke="midnightblue" points="900.5,-259.01 897,-249.01 893.5,-259.01 900.5,-259.01"/>
</g>
<!-- Node34 -->
<g id="node34" class="node">
<title>Node34</title>
<g id="a_node34"><a xlink:title=" ">
<polygon fill="white" stroke="#bfbfbf" points="961,-230 961,-249 1003,-249 1003,-230 961,-230"/>
<text text-anchor="middle" x="982" y="-237" font-family="Helvetica,sans-Serif" font-size="10.00">array</text>
</a>
</g>
</g>
<!-- Node32&#45;&gt;Node34 -->
<g id="edge47" class="edge">
<title>Node32&#45;&gt;Node34</title>
<path fill="none" stroke="midnightblue" d="M909.18,-291.48C922.81,-281.93 945.13,-266.31 961.47,-254.87"/>
<polygon fill="midnightblue" stroke="midnightblue" points="963.66,-257.61 969.84,-249.01 959.64,-251.88 963.66,-257.61"/>
</g>
<!-- Node35 -->
<g id="node35" class="node">
<title>Node35</title>
<g id="a_node35"><a xlink:title=" ">
<polygon fill="white" stroke="#bfbfbf" points="1021.5,-230 1021.5,-249 1122.5,-249 1122.5,-230 1021.5,-230"/>
<text text-anchor="middle" x="1072" y="-237" font-family="Helvetica,sans-Serif" font-size="10.00">itkFixedArray.hxx</text>
</a>
</g>
</g>
<!-- Node32&#45;&gt;Node35 -->
<g id="edge48" class="edge">
<title>Node32&#45;&gt;Node35</title>
<path fill="none" stroke="midnightblue" d="M922.07,-291.48C952.35,-281.18 1003.44,-263.81 1037.44,-252.25"/>
<polygon fill="midnightblue" stroke="midnightblue" points="1038.63,-255.54 1046.97,-249.01 1036.38,-248.91 1038.63,-255.54"/>
</g>
<!-- Node36 -->
<g id="node36" class="node">
<title>Node36</title>
<g id="a_node36"><a xlink:href="itkNumericTraitsFixedArrayPixel_8h.html" target="_top" xlink:title=" ">
<polygon fill="white" stroke="black" points="1140.5,-224.5 1140.5,-254.5 1289.5,-254.5 1289.5,-224.5 1140.5,-224.5"/>
<text text-anchor="start" x="1148.5" y="-242.5" font-family="Helvetica,sans-Serif" font-size="10.00">itkNumericTraitsFixedArray</text>
<text text-anchor="middle" x="1215" y="-231.5" font-family="Helvetica,sans-Serif" font-size="10.00">Pixel.h</text>
</a>
</g>
</g>
<!-- Node32&#45;&gt;Node36 -->
<g id="edge49" class="edge">
<title>Node32&#45;&gt;Node36</title>
<path fill="none" stroke="midnightblue" d="M937.66,-291.48C986.03,-282.04 1067.89,-266.66 1130.21,-255.26"/>
<polygon fill="midnightblue" stroke="midnightblue" points="1131.22,-258.63 1140.43,-253.39 1129.96,-251.74 1131.22,-258.63"/>
</g>
<!-- Node36&#45;&gt;Node29 -->
<g id="edge50" class="edge">
<title>Node36&#45;&gt;Node29</title>
<path fill="none" stroke="midnightblue" d="M1178.13,-254.51C1112.5,-279.44 976.49,-331.1 914.3,-354.73"/>
<polygon fill="midnightblue" stroke="midnightblue" points="912.73,-351.58 904.63,-358.4 915.22,-358.13 912.73,-351.58"/>
</g>
<!-- Node36&#45;&gt;Node32 -->
<g id="edge51" class="edge">
<title>Node36&#45;&gt;Node32</title>
<path fill="none" stroke="midnightblue" d="M1145.87,-254.53C1087.59,-265.7 1005.42,-281.03 951.64,-290.72"/>
<polygon fill="midnightblue" stroke="midnightblue" points="950.84,-287.31 941.61,-292.52 952.07,-294.2 950.84,-287.31"/>
</g>
<!-- Node41&#45;&gt;Node6 -->
<g id="edge58" class="edge">
<title>Node41&#45;&gt;Node6</title>
<path fill="none" stroke="midnightblue" d="M1468.42,-425.47C1477.86,-417.15 1491.43,-403.65 1499,-389 1517.17,-353.84 1518,-341.58 1518,-302 1518,-302 1518,-302 1518,-121 1518,-39.45 891.13,-16.78 717.25,-12.05"/>
<polygon fill="midnightblue" stroke="midnightblue" points="717.26,-8.55 707.17,-11.79 717.08,-15.55 717.26,-8.55"/>
</g>
<!-- Node42 -->
<g id="node42" class="node">
<title>Node42</title>
<g id="a_node42"><a xlink:title=" ">
<polygon fill="white" stroke="#bfbfbf" points="1546,-358.5 1546,-377.5 1628,-377.5 1628,-358.5 1546,-358.5"/>
<text text-anchor="middle" x="1587" y="-365.5" font-family="Helvetica,sans-Serif" font-size="10.00">vxl_version.h</text>
</a>
</g>
</g>
<!-- Node41&#45;&gt;Node42 -->
<g id="edge59" class="edge">
<title>Node41&#45;&gt;Node42</title>
<path fill="none" stroke="midnightblue" d="M1475.13,-425.37C1497.01,-414.34 1535.09,-395.16 1560.67,-382.27"/>
<polygon fill="midnightblue" stroke="midnightblue" points="1562.44,-385.29 1569.8,-377.67 1559.29,-379.04 1562.44,-385.29"/>
</g>
<!-- Node43 -->
<g id="node43" class="node">
<title>Node43</title>
<g id="a_node43"><a xlink:title=" ">
<polygon fill="white" stroke="#bfbfbf" points="1646,-358.5 1646,-377.5 1740,-377.5 1740,-358.5 1646,-358.5"/>
<text text-anchor="middle" x="1693" y="-365.5" font-family="Helvetica,sans-Serif" font-size="10.00">vnl/vnl_vector.h</text>
</a>
</g>
</g>
<!-- Node41&#45;&gt;Node43 -->
<g id="edge60" class="edge">
<title>Node41&#45;&gt;Node43</title>
<path fill="none" stroke="midnightblue" d="M1489.62,-427.03C1525.58,-418.87 1585.95,-404.49 1637,-389 1644.85,-386.62 1653.22,-383.79 1661.03,-381.02"/>
<polygon fill="midnightblue" stroke="midnightblue" points="1662.33,-384.27 1670.55,-377.58 1659.96,-377.69 1662.33,-384.27"/>
</g>
<!-- Node44 -->
<g id="node44" class="node">
<title>Node44</title>
<g id="a_node44"><a xlink:title=" ">
<polygon fill="white" stroke="#bfbfbf" points="1212.5,-358.5 1212.5,-377.5 1287.5,-377.5 1287.5,-358.5 1212.5,-358.5"/>
<text text-anchor="middle" x="1250" y="-365.5" font-family="Helvetica,sans-Serif" font-size="10.00">itkArray.hxx</text>
</a>
</g>
</g>
<!-- Node41&#45;&gt;Node44 -->
<g id="edge61" class="edge">
<title>Node41&#45;&gt;Node44</title>
<path fill="none" stroke="midnightblue" d="M1426.46,-426.47C1393.73,-418.37 1341.23,-404.52 1297,-389 1290.74,-386.8 1284.12,-384.18 1277.9,-381.57"/>
<polygon fill="midnightblue" stroke="midnightblue" points="1279.1,-378.28 1268.54,-377.54 1276.34,-384.71 1279.1,-378.28"/>
</g>
<!-- Node45 -->
<g id="node45" class="node">
<title>Node45</title>
<g id="a_node45"><a xlink:title=" ">
<polygon fill="white" stroke="#bfbfbf" points="1305.5,-347.5 1305.5,-388.5 1490.5,-388.5 1490.5,-347.5 1305.5,-347.5"/>
<text text-anchor="start" x="1313.5" y="-376.5" font-family="Helvetica,sans-Serif" font-size="10.00">/work/ITK/Modules/Core</text>
<text text-anchor="start" x="1313.5" y="-365.5" font-family="Helvetica,sans-Serif" font-size="10.00">/Common/include/itkNumericTraits</text>
<text text-anchor="middle" x="1398" y="-354.5" font-family="Helvetica,sans-Serif" font-size="10.00">ArrayPixel.h</text>
</a>
</g>
</g>
<!-- Node41&#45;&gt;Node45 -->
<g id="edge62" class="edge">
<title>Node41&#45;&gt;Node45</title>
<path fill="none" stroke="midnightblue" d="M1449.91,-425.23C1442.96,-417.7 1432.56,-406.44 1422.89,-395.96"/>
<polygon fill="midnightblue" stroke="midnightblue" points="1425.39,-393.52 1416.04,-388.54 1420.25,-398.26 1425.39,-393.52"/>
</g>
</g>
</svg>
