<?xml version="1.0" encoding="UTF-8" standalone="no"?>
<!DOCTYPE svg PUBLIC "-//W3C//DTD SVG 1.1//EN"
 "http://www.w3.org/Graphics/SVG/1.1/DTD/svg11.dtd">
<!-- Generated by graphviz version 2.43.0 (0)
 -->
<!-- Title: itkDemonsRegistrationFilter.h Pages: 1 -->
<svg width="360pt" height="95pt"
 viewBox="0.00 0.00 359.50 95.00" xmlns="http://www.w3.org/2000/svg" xmlns:xlink="http://www.w3.org/1999/xlink">
<g id="graph0" class="graph" transform="scale(1 1) rotate(0) translate(4 91)">
<title>itkDemonsRegistrationFilter.h</title>
<polygon fill="white" stroke="transparent" points="-4,4 -4,-91 355.5,-91 355.5,4 -4,4"/>
<!-- Node1 -->
<g id="node1" class="node">
<title>Node1</title>
<g id="a_node1"><a xlink:title=" ">
<polygon fill="#bfbfbf" stroke="black" points="102.5,-67.5 102.5,-86.5 264.5,-86.5 264.5,-67.5 102.5,-67.5"/>
<text text-anchor="middle" x="183.5" y="-74.5" font-family="Helvetica,sans-Serif" font-size="10.00">itkDemonsRegistrationFilter.h</text>
</a>
</g>
</g>
<!-- Node2 -->
<g id="node2" class="node">
<title>Node2</title>
<g id="a_node2"><a xlink:href="itkMultiResolutionPDEDeformableRegistration_8h.html" target="_top" xlink:title=" ">
<polygon fill="white" stroke="black" points="0,-0.5 0,-30.5 183,-30.5 183,-0.5 0,-0.5"/>
<text text-anchor="start" x="8" y="-18.5" font-family="Helvetica,sans-Serif" font-size="10.00">itkMultiResolutionPDEDeformable</text>
<text text-anchor="middle" x="91.5" y="-7.5" font-family="Helvetica,sans-Serif" font-size="10.00">Registration.h</text>
</a>
</g>
</g>
<!-- Node1&#45;&gt;Node2 -->
<g id="edge1" class="edge">
<title>Node1&#45;&gt;Node2</title>
<path fill="none" stroke="midnightblue" d="M161.87,-62.01C147.19,-52.52 127.87,-40.02 113.18,-30.52"/>
<polygon fill="midnightblue" stroke="midnightblue" points="160.02,-64.98 170.32,-67.48 163.82,-59.11 160.02,-64.98"/>
</g>
<!-- Node3 -->
<g id="node3" class="node">
<title>Node3</title>
<g id="a_node3"><a xlink:href="itkGPUDemonsRegistrationFilter_8h.html" target="_top" xlink:title=" ">
<polygon fill="white" stroke="black" points="201.5,-0.5 201.5,-30.5 351.5,-30.5 351.5,-0.5 201.5,-0.5"/>
<text text-anchor="start" x="209.5" y="-18.5" font-family="Helvetica,sans-Serif" font-size="10.00">itkGPUDemonsRegistration</text>
<text text-anchor="middle" x="276.5" y="-7.5" font-family="Helvetica,sans-Serif" font-size="10.00">Filter.h</text>
</a>
</g>
</g>
<!-- Node1&#45;&gt;Node3 -->
<g id="edge2" class="edge">
<title>Node1&#45;&gt;Node3</title>
<path fill="none" stroke="midnightblue" d="M205.37,-62.01C220.2,-52.52 239.74,-40.02 254.58,-30.52"/>
<polygon fill="midnightblue" stroke="midnightblue" points="203.36,-59.14 196.82,-67.48 207.13,-65.03 203.36,-59.14"/>
</g>
</g>
</svg>
