<?xml version="1.0" encoding="UTF-8" standalone="no"?>
<!DOCTYPE svg PUBLIC "-//W3C//DTD SVG 1.1//EN"
 "http://www.w3.org/Graphics/SVG/1.1/DTD/svg11.dtd">
<!-- Generated by graphviz version 2.43.0 (0)
 -->
<!-- Title: itkDefaultDynamicMeshTraits.h Pages: 1 -->
<svg width="691pt" height="285pt"
 viewBox="0.00 0.00 690.50 285.00" xmlns="http://www.w3.org/2000/svg" xmlns:xlink="http://www.w3.org/1999/xlink">
<g id="graph0" class="graph" transform="scale(1 1) rotate(0) translate(4 281)">
<title>itkDefaultDynamicMeshTraits.h</title>
<polygon fill="white" stroke="transparent" points="-4,4 -4,-281 686.5,-281 686.5,4 -4,4"/>
<!-- Node1 -->
<g id="node1" class="node">
<title>Node1</title>
<g id="a_node1"><a xlink:title=" ">
<polygon fill="#bfbfbf" stroke="black" points="333,-257.5 333,-276.5 503,-276.5 503,-257.5 333,-257.5"/>
<text text-anchor="middle" x="418" y="-264.5" font-family="Helvetica,sans-Serif" font-size="10.00">itkDefaultDynamicMeshTraits.h</text>
</a>
</g>
</g>
<!-- Node2 -->
<g id="node2" class="node">
<title>Node2</title>
<g id="a_node2"><a xlink:href="itkVoronoiDiagram2D_8h.html" target="_top" xlink:title=" ">
<polygon fill="white" stroke="black" points="187.5,-196 187.5,-215 318.5,-215 318.5,-196 187.5,-196"/>
<text text-anchor="middle" x="253" y="-203" font-family="Helvetica,sans-Serif" font-size="10.00">itkVoronoiDiagram2D.h</text>
</a>
</g>
</g>
<!-- Node1&#45;&gt;Node2 -->
<g id="edge1" class="edge">
<title>Node1&#45;&gt;Node2</title>
<path fill="none" stroke="midnightblue" d="M384.95,-254.08C352.88,-242.52 305,-225.25 276.6,-215.01"/>
<polygon fill="midnightblue" stroke="midnightblue" points="383.77,-257.38 394.36,-257.48 386.14,-250.79 383.77,-257.38"/>
</g>
<!-- Node8 -->
<g id="node8" class="node">
<title>Node8</title>
<g id="a_node8"><a xlink:href="itkMaskFeaturePointSelectionFilter_8h.html" target="_top" xlink:title=" ">
<polygon fill="white" stroke="black" points="337,-190.5 337,-220.5 499,-220.5 499,-190.5 337,-190.5"/>
<text text-anchor="start" x="345" y="-208.5" font-family="Helvetica,sans-Serif" font-size="10.00">itkMaskFeaturePointSelection</text>
<text text-anchor="middle" x="418" y="-197.5" font-family="Helvetica,sans-Serif" font-size="10.00">Filter.h</text>
</a>
</g>
</g>
<!-- Node1&#45;&gt;Node8 -->
<g id="edge7" class="edge">
<title>Node1&#45;&gt;Node8</title>
<path fill="none" stroke="midnightblue" d="M418,-247.23C418,-238.59 418,-228.5 418,-220.52"/>
<polygon fill="midnightblue" stroke="midnightblue" points="414.5,-247.48 418,-257.48 421.5,-247.48 414.5,-247.48"/>
</g>
<!-- Node9 -->
<g id="node9" class="node">
<title>Node9</title>
<g id="a_node9"><a xlink:href="itkBlockMatchingImageFilter_8h.html" target="_top" xlink:title=" ">
<polygon fill="white" stroke="black" points="517.5,-196 517.5,-215 682.5,-215 682.5,-196 517.5,-196"/>
<text text-anchor="middle" x="600" y="-203" font-family="Helvetica,sans-Serif" font-size="10.00">itkBlockMatchingImageFilter.h</text>
</a>
</g>
</g>
<!-- Node1&#45;&gt;Node9 -->
<g id="edge8" class="edge">
<title>Node1&#45;&gt;Node9</title>
<path fill="none" stroke="midnightblue" d="M454,-254.23C489.37,-242.67 542.5,-225.3 573.97,-215.01"/>
<polygon fill="midnightblue" stroke="midnightblue" points="452.49,-251.04 444.08,-257.48 454.67,-257.69 452.49,-251.04"/>
</g>
<!-- Node3 -->
<g id="node3" class="node">
<title>Node3</title>
<g id="a_node3"><a xlink:href="itkVoronoiDiagram2DGenerator_8h.html" target="_top" xlink:title=" ">
<polygon fill="white" stroke="black" points="163.5,-134.5 163.5,-153.5 342.5,-153.5 342.5,-134.5 163.5,-134.5"/>
<text text-anchor="middle" x="253" y="-141.5" font-family="Helvetica,sans-Serif" font-size="10.00">itkVoronoiDiagram2DGenerator.h</text>
</a>
</g>
</g>
<!-- Node2&#45;&gt;Node3 -->
<g id="edge2" class="edge">
<title>Node2&#45;&gt;Node3</title>
<path fill="none" stroke="midnightblue" d="M253,-185.82C253,-175 253,-161.9 253,-153.51"/>
<polygon fill="midnightblue" stroke="midnightblue" points="249.5,-185.98 253,-195.98 256.5,-185.98 249.5,-185.98"/>
</g>
<!-- Node4 -->
<g id="node4" class="node">
<title>Node4</title>
<g id="a_node4"><a xlink:href="itkVoronoiSegmentationImageFilterBase_8h.html" target="_top" xlink:title=" ">
<polygon fill="white" stroke="black" points="170.5,-67.5 170.5,-97.5 335.5,-97.5 335.5,-67.5 170.5,-67.5"/>
<text text-anchor="start" x="178.5" y="-85.5" font-family="Helvetica,sans-Serif" font-size="10.00">itkVoronoiSegmentationImage</text>
<text text-anchor="middle" x="253" y="-74.5" font-family="Helvetica,sans-Serif" font-size="10.00">FilterBase.h</text>
</a>
</g>
</g>
<!-- Node3&#45;&gt;Node4 -->
<g id="edge3" class="edge">
<title>Node3&#45;&gt;Node4</title>
<path fill="none" stroke="midnightblue" d="M253,-124.23C253,-115.59 253,-105.5 253,-97.52"/>
<polygon fill="midnightblue" stroke="midnightblue" points="249.5,-124.48 253,-134.48 256.5,-124.48 249.5,-124.48"/>
</g>
<!-- Node5 -->
<g id="node5" class="node">
<title>Node5</title>
<g id="a_node5"><a xlink:href="itkVoronoiPartitioningImageFilter_8h.html" target="_top" xlink:title=" ">
<polygon fill="white" stroke="black" points="0,-0.5 0,-30.5 152,-30.5 152,-0.5 0,-0.5"/>
<text text-anchor="start" x="8" y="-18.5" font-family="Helvetica,sans-Serif" font-size="10.00">itkVoronoiPartitioningImage</text>
<text text-anchor="middle" x="76" y="-7.5" font-family="Helvetica,sans-Serif" font-size="10.00">Filter.h</text>
</a>
</g>
</g>
<!-- Node4&#45;&gt;Node5 -->
<g id="edge4" class="edge">
<title>Node4&#45;&gt;Node5</title>
<path fill="none" stroke="midnightblue" d="M204.85,-63.82C176.4,-53.37 140.87,-40.32 114.33,-30.58"/>
<polygon fill="midnightblue" stroke="midnightblue" points="204,-67.23 214.59,-67.4 206.41,-60.66 204,-67.23"/>
</g>
<!-- Node6 -->
<g id="node6" class="node">
<title>Node6</title>
<g id="a_node6"><a xlink:href="itkVoronoiSegmentationImageFilter_8h.html" target="_top" xlink:title=" ">
<polygon fill="white" stroke="black" points="170.5,-0.5 170.5,-30.5 335.5,-30.5 335.5,-0.5 170.5,-0.5"/>
<text text-anchor="start" x="178.5" y="-18.5" font-family="Helvetica,sans-Serif" font-size="10.00">itkVoronoiSegmentationImage</text>
<text text-anchor="middle" x="253" y="-7.5" font-family="Helvetica,sans-Serif" font-size="10.00">Filter.h</text>
</a>
</g>
</g>
<!-- Node4&#45;&gt;Node6 -->
<g id="edge5" class="edge">
<title>Node4&#45;&gt;Node6</title>
<path fill="none" stroke="midnightblue" d="M253,-57.11C253,-48.15 253,-38.32 253,-30.58"/>
<polygon fill="midnightblue" stroke="midnightblue" points="249.5,-57.4 253,-67.4 256.5,-57.4 249.5,-57.4"/>
</g>
<!-- Node7 -->
<g id="node7" class="node">
<title>Node7</title>
<g id="a_node7"><a xlink:href="itkVoronoiSegmentationRGBImageFilter_8h.html" target="_top" xlink:title=" ">
<polygon fill="white" stroke="black" points="354,-0.5 354,-30.5 540,-30.5 540,-0.5 354,-0.5"/>
<text text-anchor="start" x="362" y="-18.5" font-family="Helvetica,sans-Serif" font-size="10.00">itkVoronoiSegmentationRGBImage</text>
<text text-anchor="middle" x="447" y="-7.5" font-family="Helvetica,sans-Serif" font-size="10.00">Filter.h</text>
</a>
</g>
</g>
<!-- Node4&#45;&gt;Node7 -->
<g id="edge6" class="edge">
<title>Node4&#45;&gt;Node7</title>
<path fill="none" stroke="midnightblue" d="M304.96,-64.09C336.27,-53.6 375.64,-40.41 404.99,-30.58"/>
<polygon fill="midnightblue" stroke="midnightblue" points="303.47,-60.9 295.1,-67.4 305.69,-67.54 303.47,-60.9"/>
</g>
</g>
</svg>
