<?xml version="1.0" encoding="UTF-8" standalone="no"?>
<!DOCTYPE svg PUBLIC "-//W3C//DTD SVG 1.1//EN"
 "http://www.w3.org/Graphics/SVG/1.1/DTD/svg11.dtd">
<!-- Generated by graphviz version 2.43.0 (0)
 -->
<!-- Title: itkDistanceMetric.h Pages: 1 -->
<svg width="1462pt" height="542pt"
 viewBox="0.00 0.00 1462.00 542.00" xmlns="http://www.w3.org/2000/svg" xmlns:xlink="http://www.w3.org/1999/xlink">
<g id="graph0" class="graph" transform="scale(1 1) rotate(0) translate(4 538)">
<title>itkDistanceMetric.h</title>
<polygon fill="white" stroke="transparent" points="-4,4 -4,-538 1458,-538 1458,4 -4,4"/>
<!-- Node1 -->
<g id="node1" class="node">
<title>Node1</title>
<g id="a_node1"><a xlink:title=" ">
<polygon fill="#bfbfbf" stroke="black" points="409.5,-514.5 409.5,-533.5 521.5,-533.5 521.5,-514.5 409.5,-514.5"/>
<text text-anchor="middle" x="465.5" y="-521.5" font-family="Helvetica,sans-Serif" font-size="10.00">itkDistanceMetric.h</text>
</a>
</g>
</g>
<!-- Node2 -->
<g id="node2" class="node">
<title>Node2</title>
<g id="a_node2"><a xlink:href="itkDistanceToCentroidMembershipFunction_8h.html" target="_top" xlink:title=" ">
<polygon fill="white" stroke="black" points="9,-447.5 9,-477.5 194,-477.5 194,-447.5 9,-447.5"/>
<text text-anchor="start" x="17" y="-465.5" font-family="Helvetica,sans-Serif" font-size="10.00">itkDistanceToCentroidMembership</text>
<text text-anchor="middle" x="101.5" y="-454.5" font-family="Helvetica,sans-Serif" font-size="10.00">Function.h</text>
</a>
</g>
</g>
<!-- Node1&#45;&gt;Node2 -->
<g id="edge1" class="edge">
<title>Node1&#45;&gt;Node2</title>
<path fill="none" stroke="midnightblue" d="M403.34,-512.84C343.85,-503.12 253.61,-488.36 187.29,-477.52"/>
<polygon fill="midnightblue" stroke="midnightblue" points="402.91,-516.32 413.35,-514.48 404.04,-509.41 402.91,-516.32"/>
</g>
<!-- Node5 -->
<g id="node5" class="node">
<title>Node5</title>
<g id="a_node5"><a xlink:href="itkEuclideanDistanceMetric_8h.html" target="_top" xlink:title=" ">
<polygon fill="white" stroke="black" points="212,-453 212,-472 371,-472 371,-453 212,-453"/>
<text text-anchor="middle" x="291.5" y="-460" font-family="Helvetica,sans-Serif" font-size="10.00">itkEuclideanDistanceMetric.h</text>
</a>
</g>
</g>
<!-- Node1&#45;&gt;Node5 -->
<g id="edge4" class="edge">
<title>Node1&#45;&gt;Node5</title>
<path fill="none" stroke="midnightblue" d="M431.09,-511.23C397.26,-499.67 346.47,-482.3 316.38,-472.01"/>
<polygon fill="midnightblue" stroke="midnightblue" points="429.98,-514.55 440.57,-514.48 432.24,-507.93 429.98,-514.55"/>
</g>
<!-- Node23 -->
<g id="node23" class="node">
<title>Node23</title>
<g id="a_node23"><a xlink:href="itkEuclideanSquareDistanceMetric_8h.html" target="_top" xlink:title=" ">
<polygon fill="white" stroke="black" points="389,-447.5 389,-477.5 542,-477.5 542,-447.5 389,-447.5"/>
<text text-anchor="start" x="397" y="-465.5" font-family="Helvetica,sans-Serif" font-size="10.00">itkEuclideanSquareDistance</text>
<text text-anchor="middle" x="465.5" y="-454.5" font-family="Helvetica,sans-Serif" font-size="10.00">Metric.h</text>
</a>
</g>
</g>
<!-- Node1&#45;&gt;Node23 -->
<g id="edge27" class="edge">
<title>Node1&#45;&gt;Node23</title>
<path fill="none" stroke="midnightblue" d="M465.5,-504.23C465.5,-495.59 465.5,-485.5 465.5,-477.52"/>
<polygon fill="midnightblue" stroke="midnightblue" points="462,-504.48 465.5,-514.48 469,-504.48 462,-504.48"/>
</g>
<!-- Node24 -->
<g id="node24" class="node">
<title>Node24</title>
<g id="a_node24"><a xlink:href="itkMahalanobisDistanceMetric_8h.html" target="_top" xlink:title=" ">
<polygon fill="white" stroke="black" points="560.5,-453 560.5,-472 734.5,-472 734.5,-453 560.5,-453"/>
<text text-anchor="middle" x="647.5" y="-460" font-family="Helvetica,sans-Serif" font-size="10.00">itkMahalanobisDistanceMetric.h</text>
</a>
</g>
</g>
<!-- Node1&#45;&gt;Node24 -->
<g id="edge28" class="edge">
<title>Node1&#45;&gt;Node24</title>
<path fill="none" stroke="midnightblue" d="M501.5,-511.23C536.87,-499.67 590,-482.3 621.47,-472.01"/>
<polygon fill="midnightblue" stroke="midnightblue" points="499.99,-508.04 491.58,-514.48 502.17,-514.69 499.99,-508.04"/>
</g>
<!-- Node25 -->
<g id="node25" class="node">
<title>Node25</title>
<g id="a_node25"><a xlink:href="itkManhattanDistanceMetric_8h.html" target="_top" xlink:title=" ">
<polygon fill="white" stroke="black" points="752.5,-453 752.5,-472 916.5,-472 916.5,-453 752.5,-453"/>
<text text-anchor="middle" x="834.5" y="-460" font-family="Helvetica,sans-Serif" font-size="10.00">itkManhattanDistanceMetric.h</text>
</a>
</g>
</g>
<!-- Node1&#45;&gt;Node25 -->
<g id="edge29" class="edge">
<title>Node1&#45;&gt;Node25</title>
<path fill="none" stroke="midnightblue" d="M528.57,-512.83C599.94,-501.32 714.92,-482.78 781.73,-472.01"/>
<polygon fill="midnightblue" stroke="midnightblue" points="527.68,-509.43 518.37,-514.48 528.8,-516.34 527.68,-509.43"/>
</g>
<!-- Node3 -->
<g id="node3" class="node">
<title>Node3</title>
<g id="a_node3"><a xlink:href="itkKdTreeBasedKmeansEstimator_8h.html" target="_top" xlink:title=" ">
<polygon fill="white" stroke="black" points="7.5,-391.5 7.5,-410.5 195.5,-410.5 195.5,-391.5 7.5,-391.5"/>
<text text-anchor="middle" x="101.5" y="-398.5" font-family="Helvetica,sans-Serif" font-size="10.00">itkKdTreeBasedKmeansEstimator.h</text>
</a>
</g>
</g>
<!-- Node2&#45;&gt;Node3 -->
<g id="edge2" class="edge">
<title>Node2&#45;&gt;Node3</title>
<path fill="none" stroke="midnightblue" d="M101.5,-437.29C101.5,-427.86 101.5,-417.65 101.5,-410.66"/>
<polygon fill="midnightblue" stroke="midnightblue" points="98,-437.4 101.5,-447.4 105,-437.4 98,-437.4"/>
</g>
<!-- Node4 -->
<g id="node4" class="node">
<title>Node4</title>
<g id="a_node4"><a xlink:href="itkScalarImageKmeansImageFilter_8h.html" target="_top" xlink:title=" ">
<polygon fill="white" stroke="black" points="0,-201.5 0,-231.5 161,-231.5 161,-201.5 0,-201.5"/>
<text text-anchor="start" x="8" y="-219.5" font-family="Helvetica,sans-Serif" font-size="10.00">itkScalarImageKmeansImage</text>
<text text-anchor="middle" x="80.5" y="-208.5" font-family="Helvetica,sans-Serif" font-size="10.00">Filter.h</text>
</a>
</g>
</g>
<!-- Node3&#45;&gt;Node4 -->
<g id="edge3" class="edge">
<title>Node3&#45;&gt;Node4</title>
<path fill="none" stroke="midnightblue" d="M84.85,-384.04C77.73,-376.08 70.22,-365.84 66.5,-355 51.7,-311.88 66.58,-257.02 75.24,-231.61"/>
<polygon fill="midnightblue" stroke="midnightblue" points="82.5,-386.65 91.94,-391.45 87.55,-381.81 82.5,-386.65"/>
</g>
<!-- Node5&#45;&gt;Node3 -->
<g id="edge26" class="edge">
<title>Node5&#45;&gt;Node3</title>
<path fill="none" stroke="midnightblue" d="M254.4,-449.88C217.46,-438.32 161.66,-420.84 128.67,-410.51"/>
<polygon fill="midnightblue" stroke="midnightblue" points="253.69,-453.33 264.28,-452.98 255.78,-446.65 253.69,-453.33"/>
</g>
<!-- Node6 -->
<g id="node6" class="node">
<title>Node6</title>
<g id="a_node6"><a xlink:href="itkKdTree_8h.html" target="_top" xlink:title=" ">
<polygon fill="white" stroke="black" points="285,-391.5 285,-410.5 356,-410.5 356,-391.5 285,-391.5"/>
<text text-anchor="middle" x="320.5" y="-398.5" font-family="Helvetica,sans-Serif" font-size="10.00">itkKdTree.h</text>
</a>
</g>
</g>
<!-- Node5&#45;&gt;Node6 -->
<g id="edge5" class="edge">
<title>Node5&#45;&gt;Node6</title>
<path fill="none" stroke="midnightblue" d="M300.11,-443.83C305.47,-432.83 312.13,-419.16 316.35,-410.51"/>
<polygon fill="midnightblue" stroke="midnightblue" points="296.89,-442.45 295.65,-452.98 303.18,-445.52 296.89,-442.45"/>
</g>
<!-- Node6&#45;&gt;Node4 -->
<g id="edge24" class="edge">
<title>Node6&#45;&gt;Node4</title>
<path fill="none" stroke="midnightblue" d="M274.68,-391.54C224.1,-379.75 143.98,-353.38 99.5,-299 83.59,-279.54 80.5,-249.16 80.18,-231.51"/>
<polygon fill="midnightblue" stroke="midnightblue" points="274.17,-395.01 284.69,-393.77 275.7,-388.18 274.17,-395.01"/>
</g>
<!-- Node7 -->
<g id="node7" class="node">
<title>Node7</title>
<g id="a_node7"><a xlink:href="itkKdTreeGenerator_8h.html" target="_top" xlink:title=" ">
<polygon fill="white" stroke="black" points="275,-335.5 275,-354.5 394,-354.5 394,-335.5 275,-335.5"/>
<text text-anchor="middle" x="334.5" y="-342.5" font-family="Helvetica,sans-Serif" font-size="10.00">itkKdTreeGenerator.h</text>
</a>
</g>
</g>
<!-- Node6&#45;&gt;Node7 -->
<g id="edge6" class="edge">
<title>Node6&#45;&gt;Node7</title>
<path fill="none" stroke="midnightblue" d="M325.32,-381.4C327.67,-372.36 330.37,-361.94 332.23,-354.75"/>
<polygon fill="midnightblue" stroke="midnightblue" points="321.93,-380.52 322.81,-391.08 328.71,-382.28 321.93,-380.52"/>
</g>
<!-- Node9 -->
<g id="node9" class="node">
<title>Node9</title>
<g id="a_node9"><a xlink:href="itkPointsLocator_8h.html" target="_top" xlink:title=" ">
<polygon fill="white" stroke="black" points="443.5,-274 443.5,-293 547.5,-293 547.5,-274 443.5,-274"/>
<text text-anchor="middle" x="495.5" y="-281" font-family="Helvetica,sans-Serif" font-size="10.00">itkPointsLocator.h</text>
</a>
</g>
</g>
<!-- Node6&#45;&gt;Node9 -->
<g id="edge25" class="edge">
<title>Node6&#45;&gt;Node9</title>
<path fill="none" stroke="midnightblue" d="M347.25,-386.86C363.82,-378.38 385.34,-366.78 403.5,-355 434.73,-334.74 468.87,-306.95 485.4,-293.09"/>
<polygon fill="midnightblue" stroke="midnightblue" points="345.48,-383.83 338.12,-391.46 348.63,-390.08 345.48,-383.83"/>
</g>
<!-- Node8 -->
<g id="node8" class="node">
<title>Node8</title>
<g id="a_node8"><a xlink:href="itkWeightedCentroidKdTreeGenerator_8h.html" target="_top" xlink:title=" ">
<polygon fill="white" stroke="black" points="276,-268.5 276,-298.5 425,-298.5 425,-268.5 276,-268.5"/>
<text text-anchor="start" x="284" y="-286.5" font-family="Helvetica,sans-Serif" font-size="10.00">itkWeightedCentroidKdTree</text>
<text text-anchor="middle" x="350.5" y="-275.5" font-family="Helvetica,sans-Serif" font-size="10.00">Generator.h</text>
</a>
</g>
</g>
<!-- Node7&#45;&gt;Node8 -->
<g id="edge7" class="edge">
<title>Node7&#45;&gt;Node8</title>
<path fill="none" stroke="midnightblue" d="M339.39,-325.82C341.75,-317.04 344.54,-306.68 346.73,-298.52"/>
<polygon fill="midnightblue" stroke="midnightblue" points="336.01,-324.91 336.79,-335.48 342.77,-326.73 336.01,-324.91"/>
</g>
<!-- Node7&#45;&gt;Node9 -->
<g id="edge9" class="edge">
<title>Node7&#45;&gt;Node9</title>
<path fill="none" stroke="midnightblue" d="M367.15,-331.93C398.44,-320.37 444.88,-303.21 472.48,-293.01"/>
<polygon fill="midnightblue" stroke="midnightblue" points="365.73,-328.73 357.57,-335.48 368.16,-335.29 365.73,-328.73"/>
</g>
<!-- Node22 -->
<g id="node22" class="node">
<title>Node22</title>
<g id="a_node22"><a xlink:href="itkLevelSetDomainPartitionImageWithKdTree_8h.html" target="_top" xlink:title=" ">
<polygon fill="white" stroke="black" points="108.5,-268.5 108.5,-298.5 258.5,-298.5 258.5,-268.5 108.5,-268.5"/>
<text text-anchor="start" x="116.5" y="-286.5" font-family="Helvetica,sans-Serif" font-size="10.00">itkLevelSetDomainPartition</text>
<text text-anchor="middle" x="183.5" y="-275.5" font-family="Helvetica,sans-Serif" font-size="10.00">ImageWithKdTree.h</text>
</a>
</g>
</g>
<!-- Node7&#45;&gt;Node22 -->
<g id="edge23" class="edge">
<title>Node7&#45;&gt;Node22</title>
<path fill="none" stroke="midnightblue" d="M303.33,-331.72C278.83,-322.06 244.67,-308.6 219.09,-298.52"/>
<polygon fill="midnightblue" stroke="midnightblue" points="302.28,-335.07 312.87,-335.48 304.84,-328.55 302.28,-335.07"/>
</g>
<!-- Node8&#45;&gt;Node4 -->
<g id="edge8" class="edge">
<title>Node8&#45;&gt;Node4</title>
<path fill="none" stroke="midnightblue" d="M282.45,-266.12C238.27,-255.48 181.28,-241.76 139.11,-231.61"/>
<polygon fill="midnightblue" stroke="midnightblue" points="281.7,-269.54 292.25,-268.48 283.34,-262.73 281.7,-269.54"/>
</g>
<!-- Node10 -->
<g id="node10" class="node">
<title>Node10</title>
<g id="a_node10"><a xlink:href="itkPointSetToPointSetMetricWithIndexv4_8h.html" target="_top" xlink:title=" ">
<polygon fill="white" stroke="black" points="489.5,-201.5 489.5,-231.5 641.5,-231.5 641.5,-201.5 489.5,-201.5"/>
<text text-anchor="start" x="497.5" y="-219.5" font-family="Helvetica,sans-Serif" font-size="10.00">itkPointSetToPointSetMetric</text>
<text text-anchor="middle" x="565.5" y="-208.5" font-family="Helvetica,sans-Serif" font-size="10.00">WithIndexv4.h</text>
</a>
</g>
</g>
<!-- Node9&#45;&gt;Node10 -->
<g id="edge10" class="edge">
<title>Node9&#45;&gt;Node10</title>
<path fill="none" stroke="midnightblue" d="M512.27,-266.93C523.85,-256.18 539.11,-242 550.33,-231.59"/>
<polygon fill="midnightblue" stroke="midnightblue" points="509.89,-264.36 504.94,-273.73 514.65,-269.49 509.89,-264.36"/>
</g>
<!-- Node21 -->
<g id="node21" class="node">
<title>Node21</title>
<g id="a_node21"><a xlink:href="itkManifoldParzenWindowsPointSetFunction_8h.html" target="_top" xlink:title=" ">
<polygon fill="white" stroke="black" points="273,-134.5 273,-164.5 422,-164.5 422,-134.5 273,-134.5"/>
<text text-anchor="start" x="281" y="-152.5" font-family="Helvetica,sans-Serif" font-size="10.00">itkManifoldParzenWindows</text>
<text text-anchor="middle" x="347.5" y="-141.5" font-family="Helvetica,sans-Serif" font-size="10.00">PointSetFunction.h</text>
</a>
</g>
</g>
<!-- Node9&#45;&gt;Node21 -->
<g id="edge21" class="edge">
<title>Node9&#45;&gt;Node21</title>
<path fill="none" stroke="midnightblue" d="M478.11,-266.99C449.17,-241.18 391.52,-189.76 363.51,-164.78"/>
<polygon fill="midnightblue" stroke="midnightblue" points="476,-269.79 485.79,-273.84 480.66,-264.57 476,-269.79"/>
</g>
<!-- Node11 -->
<g id="node11" class="node">
<title>Node11</title>
<g id="a_node11"><a xlink:href="itkPointSetToPointSetMetricv4_8h.html" target="_top" xlink:title=" ">
<polygon fill="white" stroke="black" points="479,-140 479,-159 652,-159 652,-140 479,-140"/>
<text text-anchor="middle" x="565.5" y="-147" font-family="Helvetica,sans-Serif" font-size="10.00">itkPointSetToPointSetMetricv4.h</text>
</a>
</g>
</g>
<!-- Node10&#45;&gt;Node11 -->
<g id="edge11" class="edge">
<title>Node10&#45;&gt;Node11</title>
<path fill="none" stroke="midnightblue" d="M565.5,-191.25C565.5,-180.02 565.5,-167.38 565.5,-159.19"/>
<polygon fill="midnightblue" stroke="midnightblue" points="562,-191.4 565.5,-201.4 569,-191.4 562,-191.4"/>
</g>
<!-- Node16 -->
<g id="node16" class="node">
<title>Node16</title>
<g id="a_node16"><a xlink:href="itkImageRegistrationMethodv4_8h.html" target="_top" xlink:title=" ">
<polygon fill="white" stroke="black" points="986,-140 986,-159 1163,-159 1163,-140 986,-140"/>
<text text-anchor="middle" x="1074.5" y="-147" font-family="Helvetica,sans-Serif" font-size="10.00">itkImageRegistrationMethodv4.h</text>
</a>
</g>
</g>
<!-- Node10&#45;&gt;Node16 -->
<g id="edge16" class="edge">
<title>Node10&#45;&gt;Node16</title>
<path fill="none" stroke="midnightblue" d="M651.84,-204.47C752.49,-191.62 916.64,-170.66 1007.93,-159"/>
<polygon fill="midnightblue" stroke="midnightblue" points="651.18,-201.03 641.7,-205.77 652.07,-207.97 651.18,-201.03"/>
</g>
<!-- Node12 -->
<g id="node12" class="node">
<title>Node12</title>
<g id="a_node12"><a xlink:href="itkEuclideanDistancePointSetToPointSetMetricv4_8h.html" target="_top" xlink:title=" ">
<polygon fill="white" stroke="black" points="570.5,-67.5 570.5,-97.5 714.5,-97.5 714.5,-67.5 570.5,-67.5"/>
<text text-anchor="start" x="578.5" y="-85.5" font-family="Helvetica,sans-Serif" font-size="10.00">itkEuclideanDistancePoint</text>
<text text-anchor="middle" x="642.5" y="-74.5" font-family="Helvetica,sans-Serif" font-size="10.00">SetToPointSetMetricv4.h</text>
</a>
</g>
</g>
<!-- Node11&#45;&gt;Node12 -->
<g id="edge12" class="edge">
<title>Node11&#45;&gt;Node12</title>
<path fill="none" stroke="midnightblue" d="M583.58,-133.24C596.36,-122.45 613.36,-108.1 625.81,-97.59"/>
<polygon fill="midnightblue" stroke="midnightblue" points="581.27,-130.61 575.88,-139.73 585.78,-135.96 581.27,-130.61"/>
</g>
<!-- Node13 -->
<g id="node13" class="node">
<title>Node13</title>
<g id="a_node13"><a xlink:href="itkExpectationBasedPointSetToPointSetMetricv4_8h.html" target="_top" xlink:title=" ">
<polygon fill="white" stroke="black" points="732.5,-67.5 732.5,-97.5 874.5,-97.5 874.5,-67.5 732.5,-67.5"/>
<text text-anchor="start" x="740.5" y="-85.5" font-family="Helvetica,sans-Serif" font-size="10.00">itkExpectationBasedPoint</text>
<text text-anchor="middle" x="803.5" y="-74.5" font-family="Helvetica,sans-Serif" font-size="10.00">SetToPointSetMetricv4.h</text>
</a>
</g>
</g>
<!-- Node11&#45;&gt;Node13 -->
<g id="edge13" class="edge">
<title>Node11&#45;&gt;Node13</title>
<path fill="none" stroke="midnightblue" d="M606.88,-137.2C647.23,-126.18 708.69,-109.39 752.14,-97.53"/>
<polygon fill="midnightblue" stroke="midnightblue" points="605.83,-133.86 597.1,-139.87 607.67,-140.61 605.83,-133.86"/>
</g>
<!-- Node14 -->
<g id="node14" class="node">
<title>Node14</title>
<g id="a_node14"><a xlink:href="itkJensenHavrdaCharvatTsallisPointSetToPointSetMetricv4_8h.html" target="_top" xlink:title=" ">
<polygon fill="white" stroke="black" points="226,-67.5 226,-97.5 391,-97.5 391,-67.5 226,-67.5"/>
<text text-anchor="start" x="234" y="-85.5" font-family="Helvetica,sans-Serif" font-size="10.00">itkJensenHavrdaCharvatTsallis</text>
<text text-anchor="middle" x="308.5" y="-74.5" font-family="Helvetica,sans-Serif" font-size="10.00">PointSetToPointSetMetricv4.h</text>
</a>
</g>
</g>
<!-- Node11&#45;&gt;Node14 -->
<g id="edge14" class="edge">
<title>Node11&#45;&gt;Node14</title>
<path fill="none" stroke="midnightblue" d="M521.92,-137.48C478.41,-126.47 411.4,-109.52 364.09,-97.56"/>
<polygon fill="midnightblue" stroke="midnightblue" points="521.08,-140.88 531.64,-139.94 522.8,-134.09 521.08,-140.88"/>
</g>
<!-- Node15 -->
<g id="node15" class="node">
<title>Node15</title>
<g id="a_node15"><a xlink:href="itkLabeledPointSetToPointSetMetricv4_8h.html" target="_top" xlink:title=" ">
<polygon fill="white" stroke="black" points="409,-67.5 409,-97.5 552,-97.5 552,-67.5 409,-67.5"/>
<text text-anchor="start" x="417" y="-85.5" font-family="Helvetica,sans-Serif" font-size="10.00">itkLabeledPointSetToPoint</text>
<text text-anchor="middle" x="480.5" y="-74.5" font-family="Helvetica,sans-Serif" font-size="10.00">SetMetricv4.h</text>
</a>
</g>
</g>
<!-- Node11&#45;&gt;Node15 -->
<g id="edge15" class="edge">
<title>Node11&#45;&gt;Node15</title>
<path fill="none" stroke="midnightblue" d="M545.94,-133.54C531.79,-122.73 512.8,-108.2 498.92,-97.59"/>
<polygon fill="midnightblue" stroke="midnightblue" points="543.97,-136.44 554.04,-139.73 548.22,-130.88 543.97,-136.44"/>
</g>
<!-- Node17 -->
<g id="node17" class="node">
<title>Node17</title>
<g id="a_node17"><a xlink:href="itkSyNImageRegistrationMethod_8h.html" target="_top" xlink:title=" ">
<polygon fill="white" stroke="black" points="1269,-73 1269,-92 1454,-92 1454,-73 1269,-73"/>
<text text-anchor="middle" x="1361.5" y="-80" font-family="Helvetica,sans-Serif" font-size="10.00">itkSyNImageRegistrationMethod.h</text>
</a>
</g>
</g>
<!-- Node16&#45;&gt;Node17 -->
<g id="edge17" class="edge">
<title>Node16&#45;&gt;Node17</title>
<path fill="none" stroke="midnightblue" d="M1122.08,-137.72C1178.6,-124.92 1271.72,-103.83 1323.6,-92.08"/>
<polygon fill="midnightblue" stroke="midnightblue" points="1121.3,-134.31 1112.32,-139.94 1122.84,-141.14 1121.3,-134.31"/>
</g>
<!-- Node19 -->
<g id="node19" class="node">
<title>Node19</title>
<g id="a_node19"><a xlink:href="itkTimeVaryingBSplineVelocityFieldImageRegistrationMethod_8h.html" target="_top" xlink:title=" ">
<polygon fill="white" stroke="black" points="892.5,-67.5 892.5,-97.5 1068.5,-97.5 1068.5,-67.5 892.5,-67.5"/>
<text text-anchor="start" x="900.5" y="-85.5" font-family="Helvetica,sans-Serif" font-size="10.00">itkTimeVaryingBSplineVelocity</text>
<text text-anchor="middle" x="980.5" y="-74.5" font-family="Helvetica,sans-Serif" font-size="10.00">FieldImageRegistrationMethod.h</text>
</a>
</g>
</g>
<!-- Node16&#45;&gt;Node19 -->
<g id="edge19" class="edge">
<title>Node16&#45;&gt;Node19</title>
<path fill="none" stroke="midnightblue" d="M1053.31,-133.85C1037.62,-123 1016.37,-108.3 1000.87,-97.59"/>
<polygon fill="midnightblue" stroke="midnightblue" points="1051.61,-136.93 1061.82,-139.73 1055.59,-131.17 1051.61,-136.93"/>
</g>
<!-- Node20 -->
<g id="node20" class="node">
<title>Node20</title>
<g id="a_node20"><a xlink:href="itkTimeVaryingVelocityFieldImageRegistrationMethodv4_8h.html" target="_top" xlink:title=" ">
<polygon fill="white" stroke="black" points="1086.5,-67.5 1086.5,-97.5 1250.5,-97.5 1250.5,-67.5 1086.5,-67.5"/>
<text text-anchor="start" x="1094.5" y="-85.5" font-family="Helvetica,sans-Serif" font-size="10.00">itkTimeVaryingVelocityField</text>
<text text-anchor="middle" x="1168.5" y="-74.5" font-family="Helvetica,sans-Serif" font-size="10.00">ImageRegistrationMethodv4.h</text>
</a>
</g>
</g>
<!-- Node16&#45;&gt;Node20 -->
<g id="edge20" class="edge">
<title>Node16&#45;&gt;Node20</title>
<path fill="none" stroke="midnightblue" d="M1095.69,-133.85C1111.38,-123 1132.63,-108.3 1148.13,-97.59"/>
<polygon fill="midnightblue" stroke="midnightblue" points="1093.41,-131.17 1087.18,-139.73 1097.39,-136.93 1093.41,-131.17"/>
</g>
<!-- Node18 -->
<g id="node18" class="node">
<title>Node18</title>
<g id="a_node18"><a xlink:href="itkBSplineSyNImageRegistrationMethod_8h.html" target="_top" xlink:title=" ">
<polygon fill="white" stroke="black" points="1273.5,-0.5 1273.5,-30.5 1449.5,-30.5 1449.5,-0.5 1273.5,-0.5"/>
<text text-anchor="start" x="1281.5" y="-18.5" font-family="Helvetica,sans-Serif" font-size="10.00">itkBSplineSyNImageRegistration</text>
<text text-anchor="middle" x="1361.5" y="-7.5" font-family="Helvetica,sans-Serif" font-size="10.00">Method.h</text>
</a>
</g>
</g>
<!-- Node17&#45;&gt;Node18 -->
<g id="edge18" class="edge">
<title>Node17&#45;&gt;Node18</title>
<path fill="none" stroke="midnightblue" d="M1361.5,-62.41C1361.5,-52.22 1361.5,-39.9 1361.5,-30.59"/>
<polygon fill="midnightblue" stroke="midnightblue" points="1358,-62.73 1361.5,-72.73 1365,-62.73 1358,-62.73"/>
</g>
<!-- Node21&#45;&gt;Node14 -->
<g id="edge22" class="edge">
<title>Node21&#45;&gt;Node14</title>
<path fill="none" stroke="midnightblue" d="M333.75,-125.58C328.14,-116.24 321.85,-105.75 316.95,-97.58"/>
<polygon fill="midnightblue" stroke="midnightblue" points="330.89,-127.62 339.04,-134.4 336.89,-124.02 330.89,-127.62"/>
</g>
</g>
</svg>
