<?xml version="1.0" encoding="UTF-8" standalone="no"?>
<!DOCTYPE svg PUBLIC "-//W3C//DTD SVG 1.1//EN"
 "http://www.w3.org/Graphics/SVG/1.1/DTD/svg11.dtd">
<!-- Generated by graphviz version 2.43.0 (0)
 -->
<!-- Title: itkDefaultImageToImageMetricTraitsv4.h Pages: 1 -->
<svg width="1337pt" height="296pt"
 viewBox="0.00 0.00 1336.50 296.00" xmlns="http://www.w3.org/2000/svg" xmlns:xlink="http://www.w3.org/1999/xlink">
<g id="graph0" class="graph" transform="scale(1 1) rotate(0) translate(4 292)">
<title>itkDefaultImageToImageMetricTraitsv4.h</title>
<polygon fill="white" stroke="transparent" points="-4,4 -4,-292 1332.5,-292 1332.5,4 -4,4"/>
<!-- Node1 -->
<g id="node1" class="node">
<title>Node1</title>
<g id="a_node1"><a xlink:title=" ">
<polygon fill="#bfbfbf" stroke="black" points="743,-257.5 743,-287.5 911,-287.5 911,-257.5 743,-257.5"/>
<text text-anchor="start" x="751" y="-275.5" font-family="Helvetica,sans-Serif" font-size="10.00">itkDefaultImageToImageMetric</text>
<text text-anchor="middle" x="827" y="-264.5" font-family="Helvetica,sans-Serif" font-size="10.00">Traitsv4.h</text>
</a>
</g>
</g>
<!-- Node2 -->
<g id="node2" class="node">
<title>Node2</title>
<g id="a_node2"><a xlink:href="itkImageToImageMetricv4_8h.html" target="_top" xlink:title=" ">
<polygon fill="white" stroke="black" points="698.5,-201.5 698.5,-220.5 851.5,-220.5 851.5,-201.5 698.5,-201.5"/>
<text text-anchor="middle" x="775" y="-208.5" font-family="Helvetica,sans-Serif" font-size="10.00">itkImageToImageMetricv4.h</text>
</a>
</g>
</g>
<!-- Node1&#45;&gt;Node2 -->
<g id="edge1" class="edge">
<title>Node1&#45;&gt;Node2</title>
<path fill="none" stroke="midnightblue" d="M807.95,-249.7C799.15,-239.64 789.21,-228.26 782.57,-220.66"/>
<polygon fill="midnightblue" stroke="midnightblue" points="805.46,-252.17 814.68,-257.4 810.73,-247.57 805.46,-252.17"/>
</g>
<!-- Node8 -->
<g id="node8" class="node">
<title>Node8</title>
<g id="a_node8"><a xlink:href="itkMeanSquaresImageToImageMetricv4_8h.html" target="_top" xlink:title=" ">
<polygon fill="white" stroke="black" points="1161.5,-134.5 1161.5,-164.5 1328.5,-164.5 1328.5,-134.5 1161.5,-134.5"/>
<text text-anchor="start" x="1169.5" y="-152.5" font-family="Helvetica,sans-Serif" font-size="10.00">itkMeanSquaresImageToImage</text>
<text text-anchor="middle" x="1245" y="-141.5" font-family="Helvetica,sans-Serif" font-size="10.00">Metricv4.h</text>
</a>
</g>
</g>
<!-- Node1&#45;&gt;Node8 -->
<g id="edge13" class="edge">
<title>Node1&#45;&gt;Node8</title>
<path fill="none" stroke="midnightblue" d="M885.56,-254.55C968.68,-230.49 1119.34,-186.87 1196.54,-164.53"/>
<polygon fill="midnightblue" stroke="midnightblue" points="884.4,-251.24 875.77,-257.38 886.35,-257.96 884.4,-251.24"/>
</g>
<!-- Node3 -->
<g id="node3" class="node">
<title>Node3</title>
<g id="a_node3"><a xlink:href="itkANTSNeighborhoodCorrelationImageToImageMetricv4_8h.html" target="_top" xlink:title=" ">
<polygon fill="white" stroke="black" points="0,-134.5 0,-164.5 178,-164.5 178,-134.5 0,-134.5"/>
<text text-anchor="start" x="8" y="-152.5" font-family="Helvetica,sans-Serif" font-size="10.00">itkANTSNeighborhoodCorrelation</text>
<text text-anchor="middle" x="89" y="-141.5" font-family="Helvetica,sans-Serif" font-size="10.00">ImageToImageMetricv4.h</text>
</a>
</g>
</g>
<!-- Node2&#45;&gt;Node3 -->
<g id="edge2" class="edge">
<title>Node2&#45;&gt;Node3</title>
<path fill="none" stroke="midnightblue" d="M688.11,-205.27C573.21,-198.58 364.53,-184.9 187,-165 184.09,-164.67 181.14,-164.33 178.16,-163.96"/>
<polygon fill="midnightblue" stroke="midnightblue" points="688.07,-208.77 698.25,-205.86 688.47,-201.79 688.07,-208.77"/>
</g>
<!-- Node4 -->
<g id="node4" class="node">
<title>Node4</title>
<g id="a_node4"><a xlink:href="itkCorrelationImageToImageMetricv4_8h.html" target="_top" xlink:title=" ">
<polygon fill="white" stroke="black" points="196.5,-134.5 196.5,-164.5 351.5,-164.5 351.5,-134.5 196.5,-134.5"/>
<text text-anchor="start" x="204.5" y="-152.5" font-family="Helvetica,sans-Serif" font-size="10.00">itkCorrelationImageToImage</text>
<text text-anchor="middle" x="274" y="-141.5" font-family="Helvetica,sans-Serif" font-size="10.00">Metricv4.h</text>
</a>
</g>
</g>
<!-- Node2&#45;&gt;Node4 -->
<g id="edge3" class="edge">
<title>Node2&#45;&gt;Node4</title>
<path fill="none" stroke="midnightblue" d="M688.16,-202.01C604.27,-193.95 473.7,-180.5 361,-165 357.97,-164.58 354.88,-164.14 351.75,-163.68"/>
<polygon fill="midnightblue" stroke="midnightblue" points="687.87,-205.5 698.16,-202.97 688.53,-198.53 687.87,-205.5"/>
</g>
<!-- Node5 -->
<g id="node5" class="node">
<title>Node5</title>
<g id="a_node5"><a xlink:href="itkDemonsImageToImageMetricv4_8h.html" target="_top" xlink:title=" ">
<polygon fill="white" stroke="black" points="370,-140 370,-159 564,-159 564,-140 370,-140"/>
<text text-anchor="middle" x="467" y="-147" font-family="Helvetica,sans-Serif" font-size="10.00">itkDemonsImageToImageMetricv4.h</text>
</a>
</g>
</g>
<!-- Node2&#45;&gt;Node5 -->
<g id="edge4" class="edge">
<title>Node2&#45;&gt;Node5</title>
<path fill="none" stroke="midnightblue" d="M720.88,-199.55C661.21,-188.02 566.36,-169.69 511.05,-159.01"/>
<polygon fill="midnightblue" stroke="midnightblue" points="720.39,-203.01 730.87,-201.48 721.72,-196.14 720.39,-203.01"/>
</g>
<!-- Node6 -->
<g id="node6" class="node">
<title>Node6</title>
<g id="a_node6"><a xlink:href="itkJointHistogramMutualInformationImageToImageMetricv4_8h.html" target="_top" xlink:title=" ">
<polygon fill="white" stroke="black" points="582.5,-134.5 582.5,-164.5 775.5,-164.5 775.5,-134.5 582.5,-134.5"/>
<text text-anchor="start" x="590.5" y="-152.5" font-family="Helvetica,sans-Serif" font-size="10.00">itkJointHistogramMutualInformation</text>
<text text-anchor="middle" x="679" y="-141.5" font-family="Helvetica,sans-Serif" font-size="10.00">ImageToImageMetricv4.h</text>
</a>
</g>
</g>
<!-- Node2&#45;&gt;Node6 -->
<g id="edge5" class="edge">
<title>Node2&#45;&gt;Node6</title>
<path fill="none" stroke="midnightblue" d="M752.43,-196.01C737.11,-186.52 716.95,-174.02 701.63,-164.52"/>
<polygon fill="midnightblue" stroke="midnightblue" points="750.9,-199.18 761.25,-201.48 754.59,-193.23 750.9,-199.18"/>
</g>
<!-- Node7 -->
<g id="node7" class="node">
<title>Node7</title>
<g id="a_node7"><a xlink:href="itkMattesMutualInformationImageToImageMetricv4_8h.html" target="_top" xlink:title=" ">
<polygon fill="white" stroke="black" points="794,-134.5 794,-164.5 948,-164.5 948,-134.5 794,-134.5"/>
<text text-anchor="start" x="802" y="-152.5" font-family="Helvetica,sans-Serif" font-size="10.00">itkMattesMutualInformation</text>
<text text-anchor="middle" x="871" y="-141.5" font-family="Helvetica,sans-Serif" font-size="10.00">ImageToImageMetricv4.h</text>
</a>
</g>
</g>
<!-- Node2&#45;&gt;Node7 -->
<g id="edge6" class="edge">
<title>Node2&#45;&gt;Node7</title>
<path fill="none" stroke="midnightblue" d="M797.57,-196.01C812.89,-186.52 833.05,-174.02 848.37,-164.52"/>
<polygon fill="midnightblue" stroke="midnightblue" points="795.41,-193.23 788.75,-201.48 799.1,-199.18 795.41,-193.23"/>
</g>
<!-- Node2&#45;&gt;Node8 -->
<g id="edge7" class="edge">
<title>Node2&#45;&gt;Node8</title>
<path fill="none" stroke="midnightblue" d="M861.71,-200.54C938.19,-191.99 1052.63,-178.67 1152,-165 1155.08,-164.58 1158.21,-164.14 1161.37,-163.68"/>
<polygon fill="midnightblue" stroke="midnightblue" points="861.19,-197.08 851.64,-201.67 861.97,-204.04 861.19,-197.08"/>
</g>
<!-- Node9 -->
<g id="node9" class="node">
<title>Node9</title>
<g id="a_node9"><a xlink:href="itkImageRegistrationMethodv4_8h.html" target="_top" xlink:title=" ">
<polygon fill="white" stroke="black" points="966.5,-140 966.5,-159 1143.5,-159 1143.5,-140 966.5,-140"/>
<text text-anchor="middle" x="1055" y="-147" font-family="Helvetica,sans-Serif" font-size="10.00">itkImageRegistrationMethodv4.h</text>
</a>
</g>
</g>
<!-- Node2&#45;&gt;Node9 -->
<g id="edge8" class="edge">
<title>Node2&#45;&gt;Node9</title>
<path fill="none" stroke="midnightblue" d="M825.21,-199.33C879.51,-187.79 964.99,-169.63 1014.96,-159.01"/>
<polygon fill="midnightblue" stroke="midnightblue" points="824.17,-195.97 815.12,-201.48 825.63,-202.82 824.17,-195.97"/>
</g>
<!-- Node10 -->
<g id="node10" class="node">
<title>Node10</title>
<g id="a_node10"><a xlink:href="itkSyNImageRegistrationMethod_8h.html" target="_top" xlink:title=" ">
<polygon fill="white" stroke="black" points="764.5,-73 764.5,-92 949.5,-92 949.5,-73 764.5,-73"/>
<text text-anchor="middle" x="857" y="-80" font-family="Helvetica,sans-Serif" font-size="10.00">itkSyNImageRegistrationMethod.h</text>
</a>
</g>
</g>
<!-- Node9&#45;&gt;Node10 -->
<g id="edge9" class="edge">
<title>Node9&#45;&gt;Node10</title>
<path fill="none" stroke="midnightblue" d="M1019,-136.68C979.76,-123.8 917.91,-103.5 883.09,-92.06"/>
<polygon fill="midnightblue" stroke="midnightblue" points="1018.11,-140.07 1028.71,-139.87 1020.3,-133.42 1018.11,-140.07"/>
</g>
<!-- Node12 -->
<g id="node12" class="node">
<title>Node12</title>
<g id="a_node12"><a xlink:href="itkTimeVaryingBSplineVelocityFieldImageRegistrationMethod_8h.html" target="_top" xlink:title=" ">
<polygon fill="white" stroke="black" points="967,-67.5 967,-97.5 1143,-97.5 1143,-67.5 967,-67.5"/>
<text text-anchor="start" x="975" y="-85.5" font-family="Helvetica,sans-Serif" font-size="10.00">itkTimeVaryingBSplineVelocity</text>
<text text-anchor="middle" x="1055" y="-74.5" font-family="Helvetica,sans-Serif" font-size="10.00">FieldImageRegistrationMethod.h</text>
</a>
</g>
</g>
<!-- Node9&#45;&gt;Node12 -->
<g id="edge11" class="edge">
<title>Node9&#45;&gt;Node12</title>
<path fill="none" stroke="midnightblue" d="M1055,-129.41C1055,-119.22 1055,-106.9 1055,-97.59"/>
<polygon fill="midnightblue" stroke="midnightblue" points="1051.5,-129.73 1055,-139.73 1058.5,-129.73 1051.5,-129.73"/>
</g>
<!-- Node13 -->
<g id="node13" class="node">
<title>Node13</title>
<g id="a_node13"><a xlink:href="itkTimeVaryingVelocityFieldImageRegistrationMethodv4_8h.html" target="_top" xlink:title=" ">
<polygon fill="white" stroke="black" points="1161,-67.5 1161,-97.5 1325,-97.5 1325,-67.5 1161,-67.5"/>
<text text-anchor="start" x="1169" y="-85.5" font-family="Helvetica,sans-Serif" font-size="10.00">itkTimeVaryingVelocityField</text>
<text text-anchor="middle" x="1243" y="-74.5" font-family="Helvetica,sans-Serif" font-size="10.00">ImageRegistrationMethodv4.h</text>
</a>
</g>
</g>
<!-- Node9&#45;&gt;Node13 -->
<g id="edge12" class="edge">
<title>Node9&#45;&gt;Node13</title>
<path fill="none" stroke="midnightblue" d="M1089.74,-136.49C1121.61,-125.47 1168.83,-109.14 1202.43,-97.53"/>
<polygon fill="midnightblue" stroke="midnightblue" points="1088.27,-133.29 1079.96,-139.87 1090.56,-139.91 1088.27,-133.29"/>
</g>
<!-- Node11 -->
<g id="node11" class="node">
<title>Node11</title>
<g id="a_node11"><a xlink:href="itkBSplineSyNImageRegistrationMethod_8h.html" target="_top" xlink:title=" ">
<polygon fill="white" stroke="black" points="769,-0.5 769,-30.5 945,-30.5 945,-0.5 769,-0.5"/>
<text text-anchor="start" x="777" y="-18.5" font-family="Helvetica,sans-Serif" font-size="10.00">itkBSplineSyNImageRegistration</text>
<text text-anchor="middle" x="857" y="-7.5" font-family="Helvetica,sans-Serif" font-size="10.00">Method.h</text>
</a>
</g>
</g>
<!-- Node10&#45;&gt;Node11 -->
<g id="edge10" class="edge">
<title>Node10&#45;&gt;Node11</title>
<path fill="none" stroke="midnightblue" d="M857,-62.41C857,-52.22 857,-39.9 857,-30.59"/>
<polygon fill="midnightblue" stroke="midnightblue" points="853.5,-62.73 857,-72.73 860.5,-62.73 853.5,-62.73"/>
</g>
</g>
</svg>
