<?xml version="1.0" encoding="UTF-8" standalone="no"?>
<!DOCTYPE svg PUBLIC "-//W3C//DTD SVG 1.1//EN"
 "http://www.w3.org/Graphics/SVG/1.1/DTD/svg11.dtd">
<!-- Generated by graphviz version 2.43.0 (0)
 -->
<!-- Title: itkFiniteDifferenceSparseImageFunction.h Pages: 1 -->
<svg width="511pt" height="307pt"
 viewBox="0.00 0.00 510.50 307.00" xmlns="http://www.w3.org/2000/svg" xmlns:xlink="http://www.w3.org/1999/xlink">
<g id="graph0" class="graph" transform="scale(1 1) rotate(0) translate(4 303)">
<title>itkFiniteDifferenceSparseImageFunction.h</title>
<polygon fill="white" stroke="transparent" points="-4,4 -4,-303 506.5,-303 506.5,4 -4,4"/>
<!-- Node1 -->
<g id="node1" class="node">
<title>Node1</title>
<g id="a_node1"><a xlink:title=" ">
<polygon fill="#bfbfbf" stroke="black" points="162,-268.5 162,-298.5 302,-298.5 302,-268.5 162,-268.5"/>
<text text-anchor="start" x="170" y="-286.5" font-family="Helvetica,sans-Serif" font-size="10.00">itkFiniteDifferenceSparse</text>
<text text-anchor="middle" x="232" y="-275.5" font-family="Helvetica,sans-Serif" font-size="10.00">ImageFunction.h</text>
</a>
</g>
</g>
<!-- Node2 -->
<g id="node2" class="node">
<title>Node2</title>
<g id="a_node2"><a xlink:href="itkFiniteDifferenceSparseImageFilter_8h.html" target="_top" xlink:title=" ">
<polygon fill="white" stroke="black" points="76,-201.5 76,-231.5 216,-231.5 216,-201.5 76,-201.5"/>
<text text-anchor="start" x="84" y="-219.5" font-family="Helvetica,sans-Serif" font-size="10.00">itkFiniteDifferenceSparse</text>
<text text-anchor="middle" x="146" y="-208.5" font-family="Helvetica,sans-Serif" font-size="10.00">ImageFilter.h</text>
</a>
</g>
</g>
<!-- Node1&#45;&gt;Node2 -->
<g id="edge1" class="edge">
<title>Node1&#45;&gt;Node2</title>
<path fill="none" stroke="midnightblue" d="M205.1,-262.17C191.95,-252.23 176.45,-240.51 164.62,-231.58"/>
<polygon fill="midnightblue" stroke="midnightblue" points="203.25,-265.16 213.34,-268.4 207.47,-259.57 203.25,-265.16"/>
</g>
<!-- Node8 -->
<g id="node8" class="node">
<title>Node8</title>
<g id="a_node8"><a xlink:href="itkNormalVectorFunctionBase_8h.html" target="_top" xlink:title=" ">
<polygon fill="white" stroke="black" points="234,-207 234,-226 404,-226 404,-207 234,-207"/>
<text text-anchor="middle" x="319" y="-214" font-family="Helvetica,sans-Serif" font-size="10.00">itkNormalVectorFunctionBase.h</text>
</a>
</g>
</g>
<!-- Node1&#45;&gt;Node8 -->
<g id="edge7" class="edge">
<title>Node1&#45;&gt;Node8</title>
<path fill="none" stroke="midnightblue" d="M258.98,-262.34C275.22,-250.21 295.06,-235.39 307.36,-226.19"/>
<polygon fill="midnightblue" stroke="midnightblue" points="256.79,-259.61 250.88,-268.4 260.98,-265.21 256.79,-259.61"/>
</g>
<!-- Node3 -->
<g id="node3" class="node">
<title>Node3</title>
<g id="a_node3"><a xlink:href="itkImplicitManifoldNormalVectorFilter_8h.html" target="_top" xlink:title=" ">
<polygon fill="white" stroke="black" points="85.5,-134.5 85.5,-164.5 230.5,-164.5 230.5,-134.5 85.5,-134.5"/>
<text text-anchor="start" x="93.5" y="-152.5" font-family="Helvetica,sans-Serif" font-size="10.00">itkImplicitManifoldNormal</text>
<text text-anchor="middle" x="158" y="-141.5" font-family="Helvetica,sans-Serif" font-size="10.00">VectorFilter.h</text>
</a>
</g>
</g>
<!-- Node2&#45;&gt;Node3 -->
<g id="edge2" class="edge">
<title>Node2&#45;&gt;Node3</title>
<path fill="none" stroke="midnightblue" d="M150.45,-191.4C152.12,-182.37 153.96,-172.41 155.4,-164.58"/>
<polygon fill="midnightblue" stroke="midnightblue" points="146.98,-190.93 148.6,-201.4 153.86,-192.2 146.98,-190.93"/>
</g>
<!-- Node4 -->
<g id="node4" class="node">
<title>Node4</title>
<g id="a_node4"><a xlink:href="itkSparseFieldFourthOrderLevelSetImageFilter_8h.html" target="_top" xlink:title=" ">
<polygon fill="white" stroke="black" points="166.5,-67.5 166.5,-97.5 309.5,-97.5 309.5,-67.5 166.5,-67.5"/>
<text text-anchor="start" x="174.5" y="-85.5" font-family="Helvetica,sans-Serif" font-size="10.00">itkSparseFieldFourthOrder</text>
<text text-anchor="middle" x="238" y="-74.5" font-family="Helvetica,sans-Serif" font-size="10.00">LevelSetImageFilter.h</text>
</a>
</g>
</g>
<!-- Node3&#45;&gt;Node4 -->
<g id="edge3" class="edge">
<title>Node3&#45;&gt;Node4</title>
<path fill="none" stroke="midnightblue" d="M183.37,-127.88C195.53,-118.01 209.78,-106.43 220.68,-97.58"/>
<polygon fill="midnightblue" stroke="midnightblue" points="180.91,-125.37 175.36,-134.4 185.33,-130.81 180.91,-125.37"/>
</g>
<!-- Node5 -->
<g id="node5" class="node">
<title>Node5</title>
<g id="a_node5"><a xlink:href="itkAnisotropicFourthOrderLevelSetImageFilter_8h.html" target="_top" xlink:title=" ">
<polygon fill="white" stroke="black" points="0,-0.5 0,-30.5 142,-30.5 142,-0.5 0,-0.5"/>
<text text-anchor="start" x="8" y="-18.5" font-family="Helvetica,sans-Serif" font-size="10.00">itkAnisotropicFourthOrder</text>
<text text-anchor="middle" x="71" y="-7.5" font-family="Helvetica,sans-Serif" font-size="10.00">LevelSetImageFilter.h</text>
</a>
</g>
</g>
<!-- Node4&#45;&gt;Node5 -->
<g id="edge4" class="edge">
<title>Node4&#45;&gt;Node5</title>
<path fill="none" stroke="midnightblue" d="M192.22,-63.68C165.44,-53.26 132.1,-40.28 107.17,-30.58"/>
<polygon fill="midnightblue" stroke="midnightblue" points="191.17,-67.03 201.76,-67.4 193.71,-60.51 191.17,-67.03"/>
</g>
<!-- Node6 -->
<g id="node6" class="node">
<title>Node6</title>
<g id="a_node6"><a xlink:href="itkIsotropicFourthOrderLevelSetImageFilter_8h.html" target="_top" xlink:title=" ">
<polygon fill="white" stroke="black" points="160.5,-0.5 160.5,-30.5 315.5,-30.5 315.5,-0.5 160.5,-0.5"/>
<text text-anchor="start" x="168.5" y="-18.5" font-family="Helvetica,sans-Serif" font-size="10.00">itkIsotropicFourthOrderLevel</text>
<text text-anchor="middle" x="238" y="-7.5" font-family="Helvetica,sans-Serif" font-size="10.00">SetImageFilter.h</text>
</a>
</g>
</g>
<!-- Node4&#45;&gt;Node6 -->
<g id="edge5" class="edge">
<title>Node4&#45;&gt;Node6</title>
<path fill="none" stroke="midnightblue" d="M238,-57.11C238,-48.15 238,-38.32 238,-30.58"/>
<polygon fill="midnightblue" stroke="midnightblue" points="234.5,-57.4 238,-67.4 241.5,-57.4 234.5,-57.4"/>
</g>
<!-- Node7 -->
<g id="node7" class="node">
<title>Node7</title>
<g id="a_node7"><a xlink:href="itkUnsharpMaskLevelSetImageFilter_8h.html" target="_top" xlink:title=" ">
<polygon fill="white" stroke="black" points="333.5,-0.5 333.5,-30.5 502.5,-30.5 502.5,-0.5 333.5,-0.5"/>
<text text-anchor="start" x="341.5" y="-18.5" font-family="Helvetica,sans-Serif" font-size="10.00">itkUnsharpMaskLevelSetImage</text>
<text text-anchor="middle" x="418" y="-7.5" font-family="Helvetica,sans-Serif" font-size="10.00">Filter.h</text>
</a>
</g>
</g>
<!-- Node4&#45;&gt;Node7 -->
<g id="edge6" class="edge">
<title>Node4&#45;&gt;Node7</title>
<path fill="none" stroke="midnightblue" d="M286.59,-63.96C315.58,-53.48 351.91,-40.37 379.02,-30.58"/>
<polygon fill="midnightblue" stroke="midnightblue" points="285.27,-60.71 277.06,-67.4 287.65,-67.29 285.27,-60.71"/>
</g>
<!-- Node8&#45;&gt;Node3 -->
<g id="edge10" class="edge">
<title>Node8&#45;&gt;Node3</title>
<path fill="none" stroke="midnightblue" d="M288.18,-203.06C260.91,-192.05 221.14,-175.99 192.75,-164.53"/>
<polygon fill="midnightblue" stroke="midnightblue" points="287.04,-206.37 297.62,-206.87 289.66,-199.88 287.04,-206.37"/>
</g>
<!-- Node9 -->
<g id="node9" class="node">
<title>Node9</title>
<g id="a_node9"><a xlink:href="itkNormalVectorDiffusionFunction_8h.html" target="_top" xlink:title=" ">
<polygon fill="white" stroke="black" points="249,-134.5 249,-164.5 389,-164.5 389,-134.5 249,-134.5"/>
<text text-anchor="start" x="257" y="-152.5" font-family="Helvetica,sans-Serif" font-size="10.00">itkNormalVectorDiffusion</text>
<text text-anchor="middle" x="319" y="-141.5" font-family="Helvetica,sans-Serif" font-size="10.00">Function.h</text>
</a>
</g>
</g>
<!-- Node8&#45;&gt;Node9 -->
<g id="edge8" class="edge">
<title>Node8&#45;&gt;Node9</title>
<path fill="none" stroke="midnightblue" d="M319,-196.41C319,-186.22 319,-173.9 319,-164.59"/>
<polygon fill="midnightblue" stroke="midnightblue" points="315.5,-196.73 319,-206.73 322.5,-196.73 315.5,-196.73"/>
</g>
<!-- Node9&#45;&gt;Node4 -->
<g id="edge9" class="edge">
<title>Node9&#45;&gt;Node4</title>
<path fill="none" stroke="midnightblue" d="M293.31,-127.88C281,-118.01 266.57,-106.43 255.54,-97.58"/>
<polygon fill="midnightblue" stroke="midnightblue" points="291.43,-130.87 301.42,-134.4 295.82,-125.41 291.43,-130.87"/>
</g>
</g>
</svg>
