<?xml version="1.0" encoding="UTF-8" standalone="no"?>
<!DOCTYPE svg PUBLIC "-//W3C//DTD SVG 1.1//EN"
 "http://www.w3.org/Graphics/SVG/1.1/DTD/svg11.dtd">
<!-- Generated by graphviz version 2.43.0 (0)
 -->
<!-- Title: itkFileOutputWindow.h Pages: 1 -->
<svg width="979pt" height="588pt"
 viewBox="0.00 0.00 978.50 588.00" xmlns="http://www.w3.org/2000/svg" xmlns:xlink="http://www.w3.org/1999/xlink">
<g id="graph0" class="graph" transform="scale(1 1) rotate(0) translate(4 584)">
<title>itkFileOutputWindow.h</title>
<polygon fill="white" stroke="transparent" points="-4,4 -4,-584 974.5,-584 974.5,4 -4,4"/>
<!-- Node1 -->
<g id="node1" class="node">
<title>Node1</title>
<g id="a_node1"><a xlink:title=" ">
<polygon fill="#bfbfbf" stroke="black" points="392.5,-560.5 392.5,-579.5 519.5,-579.5 519.5,-560.5 392.5,-560.5"/>
<text text-anchor="middle" x="456" y="-567.5" font-family="Helvetica,sans-Serif" font-size="10.00">itkFileOutputWindow.h</text>
</a>
</g>
</g>
<!-- Node2 -->
<g id="node2" class="node">
<title>Node2</title>
<g id="a_node2"><a xlink:href="itkOutputWindow_8h.html" target="_top" xlink:title=" ">
<polygon fill="white" stroke="black" points="289,-392.5 289,-411.5 399,-411.5 399,-392.5 289,-392.5"/>
<text text-anchor="middle" x="344" y="-399.5" font-family="Helvetica,sans-Serif" font-size="10.00">itkOutputWindow.h</text>
</a>
</g>
</g>
<!-- Node1&#45;&gt;Node2 -->
<g id="edge1" class="edge">
<title>Node1&#45;&gt;Node2</title>
<path fill="none" stroke="midnightblue" d="M439.84,-560.38C426.31,-552.46 407.29,-539.61 395,-524 370.06,-492.33 355.24,-446.68 348.46,-421.47"/>
<polygon fill="midnightblue" stroke="midnightblue" points="351.84,-420.56 345.97,-411.74 345.06,-422.29 351.84,-420.56"/>
</g>
<!-- Node29 -->
<g id="node29" class="node">
<title>Node29</title>
<g id="a_node29"><a xlink:href="itkObjectFactory_8h.html" target="_top" xlink:title=" ">
<polygon fill="white" stroke="black" points="404,-504.5 404,-523.5 508,-523.5 508,-504.5 404,-504.5"/>
<text text-anchor="middle" x="456" y="-511.5" font-family="Helvetica,sans-Serif" font-size="10.00">itkObjectFactory.h</text>
</a>
</g>
</g>
<!-- Node1&#45;&gt;Node29 -->
<g id="edge40" class="edge">
<title>Node1&#45;&gt;Node29</title>
<path fill="none" stroke="midnightblue" d="M456,-560.08C456,-553.01 456,-542.86 456,-533.99"/>
<polygon fill="midnightblue" stroke="midnightblue" points="459.5,-533.75 456,-523.75 452.5,-533.75 459.5,-533.75"/>
</g>
<!-- Node35 -->
<g id="node35" class="node">
<title>Node35</title>
<g id="a_node35"><a xlink:title=" ">
<polygon fill="white" stroke="#bfbfbf" points="526.5,-504.5 526.5,-523.5 581.5,-523.5 581.5,-504.5 526.5,-504.5"/>
<text text-anchor="middle" x="554" y="-511.5" font-family="Helvetica,sans-Serif" font-size="10.00">fstream</text>
</a>
</g>
</g>
<!-- Node1&#45;&gt;Node35 -->
<g id="edge50" class="edge">
<title>Node1&#45;&gt;Node35</title>
<path fill="none" stroke="midnightblue" d="M471.75,-560.32C487.32,-551.74 511.38,-538.49 529.46,-528.52"/>
<polygon fill="midnightblue" stroke="midnightblue" points="531.22,-531.55 538.29,-523.65 527.85,-525.42 531.22,-531.55"/>
</g>
<!-- Node3 -->
<g id="node3" class="node">
<title>Node3</title>
<g id="a_node3"><a xlink:title=" ">
<polygon fill="white" stroke="#bfbfbf" points="287,-56.5 287,-75.5 337,-75.5 337,-56.5 287,-56.5"/>
<text text-anchor="middle" x="312" y="-63.5" font-family="Helvetica,sans-Serif" font-size="10.00">atomic</text>
</a>
</g>
</g>
<!-- Node2&#45;&gt;Node3 -->
<g id="edge2" class="edge">
<title>Node2&#45;&gt;Node3</title>
<path fill="none" stroke="midnightblue" d="M339.85,-392.23C328.71,-367.88 299,-297.11 299,-235 299,-235 299,-235 299,-177 299,-144.58 304.64,-107.15 308.49,-85.37"/>
<polygon fill="midnightblue" stroke="midnightblue" points="311.93,-85.99 310.3,-75.52 305.05,-84.72 311.93,-85.99"/>
</g>
<!-- Node4 -->
<g id="node4" class="node">
<title>Node4</title>
<g id="a_node4"><a xlink:title=" ">
<polygon fill="white" stroke="#bfbfbf" points="231,-336.5 231,-355.5 279,-355.5 279,-336.5 231,-336.5"/>
<text text-anchor="middle" x="255" y="-343.5" font-family="Helvetica,sans-Serif" font-size="10.00">mutex</text>
</a>
</g>
</g>
<!-- Node2&#45;&gt;Node4 -->
<g id="edge3" class="edge">
<title>Node2&#45;&gt;Node4</title>
<path fill="none" stroke="midnightblue" d="M329.7,-392.32C315.82,-383.9 294.51,-370.97 278.2,-361.07"/>
<polygon fill="midnightblue" stroke="midnightblue" points="279.63,-357.85 269.26,-355.65 276,-363.83 279.63,-357.85"/>
</g>
<!-- Node5 -->
<g id="node5" class="node">
<title>Node5</title>
<g id="a_node5"><a xlink:href="itkObject_8h.html" target="_top" xlink:title=" ">
<polygon fill="white" stroke="black" points="386,-336.5 386,-355.5 456,-355.5 456,-336.5 386,-336.5"/>
<text text-anchor="middle" x="421" y="-343.5" font-family="Helvetica,sans-Serif" font-size="10.00">itkObject.h</text>
</a>
</g>
</g>
<!-- Node2&#45;&gt;Node5 -->
<g id="edge4" class="edge">
<title>Node2&#45;&gt;Node5</title>
<path fill="none" stroke="midnightblue" d="M356.37,-392.32C368.16,-384.06 386.13,-371.45 400.14,-361.63"/>
<polygon fill="midnightblue" stroke="midnightblue" points="402.48,-364.26 408.66,-355.65 398.46,-358.53 402.48,-364.26"/>
</g>
<!-- Node6 -->
<g id="node6" class="node">
<title>Node6</title>
<g id="a_node6"><a xlink:href="itkLightObject_8h.html" target="_top" xlink:title=" ">
<polygon fill="white" stroke="black" points="446,-168.5 446,-187.5 540,-187.5 540,-168.5 446,-168.5"/>
<text text-anchor="middle" x="493" y="-175.5" font-family="Helvetica,sans-Serif" font-size="10.00">itkLightObject.h</text>
</a>
</g>
</g>
<!-- Node5&#45;&gt;Node6 -->
<g id="edge5" class="edge">
<title>Node5&#45;&gt;Node6</title>
<path fill="none" stroke="midnightblue" d="M424.87,-336.08C436.25,-309.83 469.78,-232.55 485.14,-197.12"/>
<polygon fill="midnightblue" stroke="midnightblue" points="488.52,-198.14 489.28,-187.57 482.09,-195.35 488.52,-198.14"/>
</g>
<!-- Node17 -->
<g id="node17" class="node">
<title>Node17</title>
<g id="a_node17"><a xlink:href="itkSingletonMacro_8h.html" target="_top" xlink:title=" ">
<polygon fill="white" stroke="black" points="117,-56.5 117,-75.5 231,-75.5 231,-56.5 117,-56.5"/>
<text text-anchor="middle" x="174" y="-63.5" font-family="Helvetica,sans-Serif" font-size="10.00">itkSingletonMacro.h</text>
</a>
</g>
</g>
<!-- Node5&#45;&gt;Node17 -->
<g id="edge38" class="edge">
<title>Node5&#45;&gt;Node17</title>
<path fill="none" stroke="midnightblue" d="M385.71,-340.64C301.74,-329.3 97,-295.44 97,-235 97,-235 97,-235 97,-177 97,-146.2 103.35,-137.24 121,-112 129.21,-100.25 141.21,-89.72 151.72,-81.81"/>
<polygon fill="midnightblue" stroke="midnightblue" points="153.99,-84.48 160.07,-75.8 149.91,-78.79 153.99,-84.48"/>
</g>
<!-- Node20 -->
<g id="node20" class="node">
<title>Node20</title>
<g id="a_node20"><a xlink:href="itkEventObject_8h.html" target="_top" xlink:title=" ">
<polygon fill="white" stroke="black" points="330,-168.5 330,-187.5 428,-187.5 428,-168.5 330,-168.5"/>
<text text-anchor="middle" x="379" y="-175.5" font-family="Helvetica,sans-Serif" font-size="10.00">itkEventObject.h</text>
</a>
</g>
</g>
<!-- Node5&#45;&gt;Node20 -->
<g id="edge26" class="edge">
<title>Node5&#45;&gt;Node20</title>
<path fill="none" stroke="midnightblue" d="M418.74,-336.08C412.13,-309.95 392.72,-233.21 383.7,-197.58"/>
<polygon fill="midnightblue" stroke="midnightblue" points="387.01,-196.4 381.17,-187.57 380.23,-198.12 387.01,-196.4"/>
</g>
<!-- Node21 -->
<g id="node21" class="node">
<title>Node21</title>
<g id="a_node21"><a xlink:href="itkMetaDataDictionary_8h.html" target="_top" xlink:title=" ">
<polygon fill="white" stroke="black" points="566.5,-280.5 566.5,-299.5 701.5,-299.5 701.5,-280.5 566.5,-280.5"/>
<text text-anchor="middle" x="634" y="-287.5" font-family="Helvetica,sans-Serif" font-size="10.00">itkMetaDataDictionary.h</text>
</a>
</g>
</g>
<!-- Node5&#45;&gt;Node21 -->
<g id="edge28" class="edge">
<title>Node5&#45;&gt;Node21</title>
<path fill="none" stroke="midnightblue" d="M454.75,-336.44C491.52,-327.12 550.45,-312.18 590.62,-302"/>
<polygon fill="midnightblue" stroke="midnightblue" points="591.57,-305.37 600.41,-299.52 589.85,-298.58 591.57,-305.37"/>
</g>
<!-- Node28 -->
<g id="node28" class="node">
<title>Node28</title>
<g id="a_node28"><a xlink:title=" ">
<polygon fill="white" stroke="#bfbfbf" points="327.5,-280.5 327.5,-299.5 392.5,-299.5 392.5,-280.5 327.5,-280.5"/>
<text text-anchor="middle" x="360" y="-287.5" font-family="Helvetica,sans-Serif" font-size="10.00">functional</text>
</a>
</g>
</g>
<!-- Node5&#45;&gt;Node28 -->
<g id="edge39" class="edge">
<title>Node5&#45;&gt;Node28</title>
<path fill="none" stroke="midnightblue" d="M411.2,-336.32C402.18,-328.34 388.59,-316.31 377.68,-306.65"/>
<polygon fill="midnightblue" stroke="midnightblue" points="379.79,-303.84 369.98,-299.83 375.15,-309.08 379.79,-303.84"/>
</g>
<!-- Node6&#45;&gt;Node3 -->
<g id="edge23" class="edge">
<title>Node6&#45;&gt;Node3</title>
<path fill="none" stroke="midnightblue" d="M445.95,-169.49C417.71,-163.16 382.28,-151.83 356,-132 339.74,-119.73 327.46,-99.62 320.07,-85.02"/>
<polygon fill="midnightblue" stroke="midnightblue" points="323.2,-83.46 315.73,-75.95 316.89,-86.48 323.2,-83.46"/>
</g>
<!-- Node7 -->
<g id="node7" class="node">
<title>Node7</title>
<g id="a_node7"><a xlink:href="itkMacro_8h.html" target="_top" xlink:title=" ">
<polygon fill="white" stroke="black" points="290,-0.5 290,-19.5 358,-19.5 358,-0.5 290,-0.5"/>
<text text-anchor="middle" x="324" y="-7.5" font-family="Helvetica,sans-Serif" font-size="10.00">itkMacro.h</text>
</a>
</g>
</g>
<!-- Node6&#45;&gt;Node7 -->
<g id="edge6" class="edge">
<title>Node6&#45;&gt;Node7</title>
<path fill="none" stroke="midnightblue" d="M487.07,-168.12C478.22,-155.15 460.68,-130.55 443,-112 411.03,-78.46 368.68,-44.66 344.07,-25.92"/>
<polygon fill="midnightblue" stroke="midnightblue" points="345.95,-22.95 335.86,-19.72 341.74,-28.54 345.95,-22.95"/>
</g>
<!-- Node8 -->
<g id="node8" class="node">
<title>Node8</title>
<g id="a_node8"><a xlink:href="itkSmartPointer_8h.html" target="_top" xlink:title=" ">
<polygon fill="white" stroke="black" points="596.5,-112.5 596.5,-131.5 697.5,-131.5 697.5,-112.5 596.5,-112.5"/>
<text text-anchor="middle" x="647" y="-119.5" font-family="Helvetica,sans-Serif" font-size="10.00">itkSmartPointer.h</text>
</a>
</g>
</g>
<!-- Node6&#45;&gt;Node8 -->
<g id="edge7" class="edge">
<title>Node6&#45;&gt;Node8</title>
<path fill="none" stroke="midnightblue" d="M517.4,-168.44C543.2,-159.4 584.08,-145.06 613.02,-134.92"/>
<polygon fill="midnightblue" stroke="midnightblue" points="614.43,-138.13 622.71,-131.52 612.12,-131.52 614.43,-138.13"/>
</g>
<!-- Node9 -->
<g id="node9" class="node">
<title>Node9</title>
<g id="a_node9"><a xlink:title=" ">
<polygon fill="white" stroke="#bfbfbf" points="491,-56.5 491,-75.5 551,-75.5 551,-56.5 491,-56.5"/>
<text text-anchor="middle" x="521" y="-63.5" font-family="Helvetica,sans-Serif" font-size="10.00">iostream</text>
</a>
</g>
</g>
<!-- Node6&#45;&gt;Node9 -->
<g id="edge24" class="edge">
<title>Node6&#45;&gt;Node9</title>
<path fill="none" stroke="midnightblue" d="M495.2,-168.37C499.72,-150.62 510.14,-109.67 516.27,-85.6"/>
<polygon fill="midnightblue" stroke="midnightblue" points="519.74,-86.15 518.81,-75.59 512.95,-84.42 519.74,-86.15"/>
</g>
<!-- Node13 -->
<g id="node13" class="node">
<title>Node13</title>
<g id="a_node13"><a xlink:href="itkTimeStamp_8h.html" target="_top" xlink:title=" ">
<polygon fill="white" stroke="black" points="175.5,-112.5 175.5,-131.5 270.5,-131.5 270.5,-112.5 175.5,-112.5"/>
<text text-anchor="middle" x="223" y="-119.5" font-family="Helvetica,sans-Serif" font-size="10.00">itkTimeStamp.h</text>
</a>
</g>
</g>
<!-- Node6&#45;&gt;Node13 -->
<g id="edge12" class="edge">
<title>Node6&#45;&gt;Node13</title>
<path fill="none" stroke="midnightblue" d="M450.22,-168.44C402.82,-158.96 326.37,-143.67 275.42,-133.48"/>
<polygon fill="midnightblue" stroke="midnightblue" points="276.07,-130.05 265.58,-131.52 274.7,-136.91 276.07,-130.05"/>
</g>
<!-- Node18 -->
<g id="node18" class="node">
<title>Node18</title>
<g id="a_node18"><a xlink:href="itkIndent_8h.html" target="_top" xlink:title=" ">
<polygon fill="white" stroke="black" points="365.5,-112.5 365.5,-131.5 434.5,-131.5 434.5,-112.5 365.5,-112.5"/>
<text text-anchor="middle" x="400" y="-119.5" font-family="Helvetica,sans-Serif" font-size="10.00">itkIndent.h</text>
</a>
</g>
</g>
<!-- Node6&#45;&gt;Node18 -->
<g id="edge20" class="edge">
<title>Node6&#45;&gt;Node18</title>
<path fill="none" stroke="midnightblue" d="M478.06,-168.32C463.41,-159.82 440.87,-146.73 423.76,-136.8"/>
<polygon fill="midnightblue" stroke="midnightblue" points="425.31,-133.65 414.9,-131.65 421.8,-139.7 425.31,-133.65"/>
</g>
<!-- Node19 -->
<g id="node19" class="node">
<title>Node19</title>
<g id="a_node19"><a xlink:title=" ">
<polygon fill="white" stroke="#bfbfbf" points="720.5,-112.5 720.5,-131.5 777.5,-131.5 777.5,-112.5 720.5,-112.5"/>
<text text-anchor="middle" x="749" y="-119.5" font-family="Helvetica,sans-Serif" font-size="10.00">typeinfo</text>
</a>
</g>
</g>
<!-- Node6&#45;&gt;Node19 -->
<g id="edge25" class="edge">
<title>Node6&#45;&gt;Node19</title>
<path fill="none" stroke="midnightblue" d="M533.56,-168.44C582.03,-158.22 662.54,-141.24 710.21,-131.18"/>
<polygon fill="midnightblue" stroke="midnightblue" points="711.08,-134.58 720.15,-129.09 709.64,-127.73 711.08,-134.58"/>
</g>
<!-- Node8&#45;&gt;Node9 -->
<g id="edge8" class="edge">
<title>Node8&#45;&gt;Node9</title>
<path fill="none" stroke="midnightblue" d="M627.03,-112.44C606.39,-103.6 573.94,-89.69 550.37,-79.59"/>
<polygon fill="midnightblue" stroke="midnightblue" points="551.44,-76.24 540.87,-75.52 548.68,-82.67 551.44,-76.24"/>
</g>
<!-- Node10 -->
<g id="node10" class="node">
<title>Node10</title>
<g id="a_node10"><a xlink:title=" ">
<polygon fill="white" stroke="#bfbfbf" points="569.5,-56.5 569.5,-75.5 614.5,-75.5 614.5,-56.5 569.5,-56.5"/>
<text text-anchor="middle" x="592" y="-63.5" font-family="Helvetica,sans-Serif" font-size="10.00">utility</text>
</a>
</g>
</g>
<!-- Node8&#45;&gt;Node10 -->
<g id="edge9" class="edge">
<title>Node8&#45;&gt;Node10</title>
<path fill="none" stroke="midnightblue" d="M637.92,-112.08C629.83,-104.14 617.8,-92.34 608.09,-82.8"/>
<polygon fill="midnightblue" stroke="midnightblue" points="610.5,-80.26 600.91,-75.75 605.6,-85.25 610.5,-80.26"/>
</g>
<!-- Node11 -->
<g id="node11" class="node">
<title>Node11</title>
<g id="a_node11"><a xlink:title=" ">
<polygon fill="white" stroke="#bfbfbf" points="632.5,-56.5 632.5,-75.5 701.5,-75.5 701.5,-56.5 632.5,-56.5"/>
<text text-anchor="middle" x="667" y="-63.5" font-family="Helvetica,sans-Serif" font-size="10.00">type_traits</text>
</a>
</g>
</g>
<!-- Node8&#45;&gt;Node11 -->
<g id="edge10" class="edge">
<title>Node8&#45;&gt;Node11</title>
<path fill="none" stroke="midnightblue" d="M650.3,-112.08C652.98,-104.85 656.85,-94.41 660.19,-85.4"/>
<polygon fill="midnightblue" stroke="midnightblue" points="663.57,-86.34 663.76,-75.75 657,-83.91 663.57,-86.34"/>
</g>
<!-- Node12 -->
<g id="node12" class="node">
<title>Node12</title>
<g id="a_node12"><a xlink:title=" ">
<polygon fill="white" stroke="#bfbfbf" points="719.5,-56.5 719.5,-75.5 804.5,-75.5 804.5,-56.5 719.5,-56.5"/>
<text text-anchor="middle" x="762" y="-63.5" font-family="Helvetica,sans-Serif" font-size="10.00">itkConfigure.h</text>
</a>
</g>
</g>
<!-- Node8&#45;&gt;Node12 -->
<g id="edge11" class="edge">
<title>Node8&#45;&gt;Node12</title>
<path fill="none" stroke="midnightblue" d="M665.22,-112.44C683.9,-103.68 713.16,-89.94 734.62,-79.86"/>
<polygon fill="midnightblue" stroke="midnightblue" points="736.3,-82.93 743.86,-75.52 733.32,-76.6 736.3,-82.93"/>
</g>
<!-- Node13&#45;&gt;Node3 -->
<g id="edge18" class="edge">
<title>Node13&#45;&gt;Node3</title>
<path fill="none" stroke="midnightblue" d="M237.3,-112.32C251.18,-103.9 272.49,-90.97 288.8,-81.07"/>
<polygon fill="midnightblue" stroke="midnightblue" points="291,-83.83 297.74,-75.65 287.37,-77.85 291,-83.83"/>
</g>
<!-- Node13&#45;&gt;Node7 -->
<g id="edge13" class="edge">
<title>Node13&#45;&gt;Node7</title>
<path fill="none" stroke="midnightblue" d="M229.87,-112.37C240.05,-99.7 259.88,-75.48 278,-56 287.32,-45.98 298.26,-35.25 307.12,-26.77"/>
<polygon fill="midnightblue" stroke="midnightblue" points="309.72,-29.13 314.58,-19.72 304.91,-24.05 309.72,-29.13"/>
</g>
<!-- Node14 -->
<g id="node14" class="node">
<title>Node14</title>
<g id="a_node14"><a xlink:href="itkIntTypes_8h.html" target="_top" xlink:title=" ">
<polygon fill="white" stroke="black" points="19.5,-56.5 19.5,-75.5 98.5,-75.5 98.5,-56.5 19.5,-56.5"/>
<text text-anchor="middle" x="59" y="-63.5" font-family="Helvetica,sans-Serif" font-size="10.00">itkIntTypes.h</text>
</a>
</g>
</g>
<!-- Node13&#45;&gt;Node14 -->
<g id="edge14" class="edge">
<title>Node13&#45;&gt;Node14</title>
<path fill="none" stroke="midnightblue" d="M197.01,-112.44C169.3,-103.32 125.25,-88.81 94.38,-78.65"/>
<polygon fill="midnightblue" stroke="midnightblue" points="95.46,-75.32 84.86,-75.52 93.27,-81.97 95.46,-75.32"/>
</g>
<!-- Node13&#45;&gt;Node17 -->
<g id="edge19" class="edge">
<title>Node13&#45;&gt;Node17</title>
<path fill="none" stroke="midnightblue" d="M214.91,-112.08C207.84,-104.3 197.41,-92.8 188.85,-83.37"/>
<polygon fill="midnightblue" stroke="midnightblue" points="191.25,-80.8 181.94,-75.75 186.07,-85.51 191.25,-80.8"/>
</g>
<!-- Node14&#45;&gt;Node7 -->
<g id="edge15" class="edge">
<title>Node14&#45;&gt;Node7</title>
<path fill="none" stroke="midnightblue" d="M98.67,-56.92C147.3,-47.01 229.46,-30.27 279.99,-19.97"/>
<polygon fill="midnightblue" stroke="midnightblue" points="280.86,-23.36 289.96,-17.94 279.46,-16.5 280.86,-23.36"/>
</g>
<!-- Node15 -->
<g id="node15" class="node">
<title>Node15</title>
<g id="a_node15"><a xlink:title=" ">
<polygon fill="white" stroke="#bfbfbf" points="0,-0.5 0,-19.5 50,-19.5 50,-0.5 0,-0.5"/>
<text text-anchor="middle" x="25" y="-7.5" font-family="Helvetica,sans-Serif" font-size="10.00">cstdint</text>
</a>
</g>
</g>
<!-- Node14&#45;&gt;Node15 -->
<g id="edge16" class="edge">
<title>Node14&#45;&gt;Node15</title>
<path fill="none" stroke="midnightblue" d="M53.39,-56.08C48.63,-48.53 41.68,-37.49 35.85,-28.23"/>
<polygon fill="midnightblue" stroke="midnightblue" points="38.8,-26.35 30.51,-19.75 32.88,-30.08 38.8,-26.35"/>
</g>
<!-- Node16 -->
<g id="node16" class="node">
<title>Node16</title>
<g id="a_node16"><a xlink:title=" ">
<polygon fill="white" stroke="#bfbfbf" points="68,-0.5 68,-19.5 118,-19.5 118,-0.5 68,-0.5"/>
<text text-anchor="middle" x="93" y="-7.5" font-family="Helvetica,sans-Serif" font-size="10.00">climits</text>
</a>
</g>
</g>
<!-- Node14&#45;&gt;Node16 -->
<g id="edge17" class="edge">
<title>Node14&#45;&gt;Node16</title>
<path fill="none" stroke="midnightblue" d="M64.61,-56.08C69.37,-48.53 76.32,-37.49 82.15,-28.23"/>
<polygon fill="midnightblue" stroke="midnightblue" points="85.12,-30.08 87.49,-19.75 79.2,-26.35 85.12,-30.08"/>
</g>
<!-- Node18&#45;&gt;Node7 -->
<g id="edge21" class="edge">
<title>Node18&#45;&gt;Node7</title>
<path fill="none" stroke="midnightblue" d="M394.04,-112.37C381.49,-94.22 352.19,-51.8 335.74,-27.99"/>
<polygon fill="midnightblue" stroke="midnightblue" points="338.5,-25.83 329.94,-19.59 332.74,-29.81 338.5,-25.83"/>
</g>
<!-- Node18&#45;&gt;Node9 -->
<g id="edge22" class="edge">
<title>Node18&#45;&gt;Node9</title>
<path fill="none" stroke="midnightblue" d="M419.17,-112.44C438.91,-103.64 469.89,-89.81 492.49,-79.72"/>
<polygon fill="midnightblue" stroke="midnightblue" points="494.21,-82.79 501.92,-75.52 491.36,-76.4 494.21,-82.79"/>
</g>
<!-- Node20&#45;&gt;Node18 -->
<g id="edge27" class="edge">
<title>Node20&#45;&gt;Node18</title>
<path fill="none" stroke="midnightblue" d="M382.47,-168.08C385.31,-160.77 389.43,-150.18 392.96,-141.1"/>
<polygon fill="midnightblue" stroke="midnightblue" points="396.23,-142.34 396.6,-131.75 389.71,-139.8 396.23,-142.34"/>
</g>
<!-- Node22 -->
<g id="node22" class="node">
<title>Node22</title>
<g id="a_node22"><a xlink:href="itkMetaDataObjectBase_8h.html" target="_top" xlink:title=" ">
<polygon fill="white" stroke="black" points="681,-224.5 681,-243.5 823,-243.5 823,-224.5 681,-224.5"/>
<text text-anchor="middle" x="752" y="-231.5" font-family="Helvetica,sans-Serif" font-size="10.00">itkMetaDataObjectBase.h</text>
</a>
</g>
</g>
<!-- Node21&#45;&gt;Node22 -->
<g id="edge29" class="edge">
<title>Node21&#45;&gt;Node22</title>
<path fill="none" stroke="midnightblue" d="M652.7,-280.44C671.94,-271.64 702.15,-257.81 724.2,-247.72"/>
<polygon fill="midnightblue" stroke="midnightblue" points="725.75,-250.86 733.39,-243.52 722.84,-244.5 725.75,-250.86"/>
</g>
<!-- Node23 -->
<g id="node23" class="node">
<title>Node23</title>
<g id="a_node23"><a xlink:title=" ">
<polygon fill="white" stroke="#bfbfbf" points="841,-224.5 841,-243.5 905,-243.5 905,-224.5 841,-224.5"/>
<text text-anchor="middle" x="873" y="-231.5" font-family="Helvetica,sans-Serif" font-size="10.00">algorithm</text>
</a>
</g>
</g>
<!-- Node21&#45;&gt;Node23 -->
<g id="edge33" class="edge">
<title>Node21&#45;&gt;Node23</title>
<path fill="none" stroke="midnightblue" d="M671.87,-280.44C715.1,-270.68 785.62,-254.74 830.64,-244.57"/>
<polygon fill="midnightblue" stroke="midnightblue" points="831.69,-247.92 840.67,-242.3 830.15,-241.09 831.69,-247.92"/>
</g>
<!-- Node24 -->
<g id="node24" class="node">
<title>Node24</title>
<g id="a_node24"><a xlink:title=" ">
<polygon fill="white" stroke="#bfbfbf" points="923.5,-224.5 923.5,-243.5 970.5,-243.5 970.5,-224.5 923.5,-224.5"/>
<text text-anchor="middle" x="947" y="-231.5" font-family="Helvetica,sans-Serif" font-size="10.00">vector</text>
</a>
</g>
</g>
<!-- Node21&#45;&gt;Node24 -->
<g id="edge34" class="edge">
<title>Node21&#45;&gt;Node24</title>
<path fill="none" stroke="midnightblue" d="M699.71,-280.46C754.36,-272.9 834.33,-260.77 913.17,-243.98"/>
<polygon fill="midnightblue" stroke="midnightblue" points="914.24,-247.32 923.28,-241.79 912.77,-240.48 914.24,-247.32"/>
</g>
<!-- Node25 -->
<g id="node25" class="node">
<title>Node25</title>
<g id="a_node25"><a xlink:title=" ">
<polygon fill="white" stroke="#bfbfbf" points="487,-224.5 487,-243.5 525,-243.5 525,-224.5 487,-224.5"/>
<text text-anchor="middle" x="506" y="-231.5" font-family="Helvetica,sans-Serif" font-size="10.00">map</text>
</a>
</g>
</g>
<!-- Node21&#45;&gt;Node25 -->
<g id="edge35" class="edge">
<title>Node21&#45;&gt;Node25</title>
<path fill="none" stroke="midnightblue" d="M613.72,-280.44C592.4,-271.45 558.7,-257.23 534.67,-247.1"/>
<polygon fill="midnightblue" stroke="midnightblue" points="535.92,-243.83 525.35,-243.16 533.2,-250.27 535.92,-243.83"/>
</g>
<!-- Node26 -->
<g id="node26" class="node">
<title>Node26</title>
<g id="a_node26"><a xlink:title=" ">
<polygon fill="white" stroke="#bfbfbf" points="543,-224.5 543,-243.5 587,-243.5 587,-224.5 543,-224.5"/>
<text text-anchor="middle" x="565" y="-231.5" font-family="Helvetica,sans-Serif" font-size="10.00">string</text>
</a>
</g>
</g>
<!-- Node21&#45;&gt;Node26 -->
<g id="edge36" class="edge">
<title>Node21&#45;&gt;Node26</title>
<path fill="none" stroke="midnightblue" d="M622.91,-280.32C612.51,-272.18 596.74,-259.84 584.28,-250.09"/>
<polygon fill="midnightblue" stroke="midnightblue" points="586.32,-247.24 576.29,-243.83 582.01,-252.75 586.32,-247.24"/>
</g>
<!-- Node27 -->
<g id="node27" class="node">
<title>Node27</title>
<g id="a_node27"><a xlink:title=" ">
<polygon fill="white" stroke="#bfbfbf" points="605,-224.5 605,-243.5 663,-243.5 663,-224.5 605,-224.5"/>
<text text-anchor="middle" x="634" y="-231.5" font-family="Helvetica,sans-Serif" font-size="10.00">memory</text>
</a>
</g>
</g>
<!-- Node21&#45;&gt;Node27 -->
<g id="edge37" class="edge">
<title>Node21&#45;&gt;Node27</title>
<path fill="none" stroke="midnightblue" d="M634,-280.08C634,-273.01 634,-262.86 634,-253.99"/>
<polygon fill="midnightblue" stroke="midnightblue" points="637.5,-253.75 634,-243.75 630.5,-253.75 637.5,-253.75"/>
</g>
<!-- Node22&#45;&gt;Node6 -->
<g id="edge30" class="edge">
<title>Node22&#45;&gt;Node6</title>
<path fill="none" stroke="midnightblue" d="M710.96,-224.44C665.68,-215 592.77,-199.8 543.89,-189.61"/>
<polygon fill="midnightblue" stroke="midnightblue" points="544.35,-186.13 533.85,-187.52 542.92,-192.98 544.35,-186.13"/>
</g>
<!-- Node22&#45;&gt;Node9 -->
<g id="edge32" class="edge">
<title>Node22&#45;&gt;Node9</title>
<path fill="none" stroke="midnightblue" d="M735.26,-224.41C704.51,-208.29 637.54,-171.51 587,-132 567.9,-117.07 548.42,-97.19 535.62,-83.36"/>
<polygon fill="midnightblue" stroke="midnightblue" points="537.9,-80.67 528.58,-75.63 532.72,-85.38 537.9,-80.67"/>
</g>
<!-- Node22&#45;&gt;Node19 -->
<g id="edge31" class="edge">
<title>Node22&#45;&gt;Node19</title>
<path fill="none" stroke="midnightblue" d="M751.76,-224.37C751.28,-206.62 750.16,-165.67 749.51,-141.6"/>
<polygon fill="midnightblue" stroke="midnightblue" points="753.01,-141.49 749.23,-131.59 746.01,-141.68 753.01,-141.49"/>
</g>
<!-- Node30 -->
<g id="node30" class="node">
<title>Node30</title>
<g id="a_node30"><a xlink:href="itkObjectFactoryBase_8h.html" target="_top" xlink:title=" ">
<polygon fill="white" stroke="black" points="411.5,-448.5 411.5,-467.5 540.5,-467.5 540.5,-448.5 411.5,-448.5"/>
<text text-anchor="middle" x="476" y="-455.5" font-family="Helvetica,sans-Serif" font-size="10.00">itkObjectFactoryBase.h</text>
</a>
</g>
</g>
<!-- Node29&#45;&gt;Node30 -->
<g id="edge41" class="edge">
<title>Node29&#45;&gt;Node30</title>
<path fill="none" stroke="midnightblue" d="M459.3,-504.08C461.98,-496.85 465.85,-486.41 469.19,-477.4"/>
<polygon fill="midnightblue" stroke="midnightblue" points="472.57,-478.34 472.76,-467.75 466,-475.91 472.57,-478.34"/>
</g>
<!-- Node30&#45;&gt;Node17 -->
<g id="edge44" class="edge">
<title>Node30&#45;&gt;Node17</title>
<path fill="none" stroke="midnightblue" d="M411.43,-457.5C325.66,-456.67 180.88,-449.54 146,-412 92.35,-354.26 135,-313.82 135,-235 135,-235 135,-235 135,-177 135,-142.72 152.04,-105.7 163.59,-84.54"/>
<polygon fill="midnightblue" stroke="midnightblue" points="166.69,-86.17 168.58,-75.75 160.6,-82.72 166.69,-86.17"/>
</g>
<!-- Node30&#45;&gt;Node24 -->
<g id="edge49" class="edge">
<title>Node30&#45;&gt;Node24</title>
<path fill="none" stroke="midnightblue" d="M509.54,-448.5C539.15,-440.53 583.2,-427.54 620,-412 739.53,-361.53 872.94,-281.21 924.75,-249.02"/>
<polygon fill="midnightblue" stroke="midnightblue" points="926.82,-251.85 933.45,-243.58 923.12,-245.91 926.82,-251.85"/>
</g>
<!-- Node31 -->
<g id="node31" class="node">
<title>Node31</title>
<g id="a_node31"><a xlink:href="itkCreateObjectFunction_8h.html" target="_top" xlink:title=" ">
<polygon fill="white" stroke="black" points="417.5,-392.5 417.5,-411.5 560.5,-411.5 560.5,-392.5 417.5,-392.5"/>
<text text-anchor="middle" x="489" y="-399.5" font-family="Helvetica,sans-Serif" font-size="10.00">itkCreateObjectFunction.h</text>
</a>
</g>
</g>
<!-- Node30&#45;&gt;Node31 -->
<g id="edge42" class="edge">
<title>Node30&#45;&gt;Node31</title>
<path fill="none" stroke="midnightblue" d="M478.15,-448.08C479.87,-440.93 482.35,-430.64 484.5,-421.69"/>
<polygon fill="midnightblue" stroke="midnightblue" points="487.96,-422.29 486.89,-411.75 481.15,-420.65 487.96,-422.29"/>
</g>
<!-- Node32 -->
<g id="node32" class="node">
<title>Node32</title>
<g id="a_node32"><a xlink:href="itkCommonEnums_8h.html" target="_top" xlink:title=" ">
<polygon fill="white" stroke="black" points="155,-392.5 155,-411.5 271,-411.5 271,-392.5 155,-392.5"/>
<text text-anchor="middle" x="213" y="-399.5" font-family="Helvetica,sans-Serif" font-size="10.00">itkCommonEnums.h</text>
</a>
</g>
</g>
<!-- Node30&#45;&gt;Node32 -->
<g id="edge45" class="edge">
<title>Node30&#45;&gt;Node32</title>
<path fill="none" stroke="midnightblue" d="M434.33,-448.44C388.25,-438.98 314,-423.74 264.37,-413.55"/>
<polygon fill="midnightblue" stroke="midnightblue" points="264.98,-410.1 254.48,-411.52 263.57,-416.96 264.98,-410.1"/>
</g>
<!-- Node34 -->
<g id="node34" class="node">
<title>Node34</title>
<g id="a_node34"><a xlink:title=" ">
<polygon fill="white" stroke="#bfbfbf" points="579,-392.5 579,-411.5 611,-411.5 611,-392.5 579,-392.5"/>
<text text-anchor="middle" x="595" y="-399.5" font-family="Helvetica,sans-Serif" font-size="10.00">list</text>
</a>
</g>
</g>
<!-- Node30&#45;&gt;Node34 -->
<g id="edge48" class="edge">
<title>Node30&#45;&gt;Node34</title>
<path fill="none" stroke="midnightblue" d="M494.86,-448.44C515.07,-439.27 547.26,-424.66 569.67,-414.5"/>
<polygon fill="midnightblue" stroke="midnightblue" points="571.24,-417.62 578.9,-410.3 568.35,-411.25 571.24,-417.62"/>
</g>
<!-- Node31&#45;&gt;Node5 -->
<g id="edge43" class="edge">
<title>Node31&#45;&gt;Node5</title>
<path fill="none" stroke="midnightblue" d="M478.07,-392.32C467.83,-384.18 452.28,-371.84 440,-362.09"/>
<polygon fill="midnightblue" stroke="midnightblue" points="442.13,-359.31 432.12,-355.83 437.78,-364.79 442.13,-359.31"/>
</g>
<!-- Node32&#45;&gt;Node14 -->
<g id="edge46" class="edge">
<title>Node32&#45;&gt;Node14</title>
<path fill="none" stroke="midnightblue" d="M177.28,-392.43C131.79,-379.13 59,-348.83 59,-291 59,-291 59,-291 59,-177 59,-144.95 59,-107.64 59,-85.75"/>
<polygon fill="midnightblue" stroke="midnightblue" points="62.5,-85.56 59,-75.56 55.5,-85.56 62.5,-85.56"/>
</g>
<!-- Node33 -->
<g id="node33" class="node">
<title>Node33</title>
<g id="a_node33"><a xlink:title=" ">
<polygon fill="white" stroke="#bfbfbf" points="155.5,-336.5 155.5,-355.5 212.5,-355.5 212.5,-336.5 155.5,-336.5"/>
<text text-anchor="middle" x="184" y="-343.5" font-family="Helvetica,sans-Serif" font-size="10.00">ostream</text>
</a>
</g>
</g>
<!-- Node32&#45;&gt;Node33 -->
<g id="edge47" class="edge">
<title>Node32&#45;&gt;Node33</title>
<path fill="none" stroke="midnightblue" d="M208.21,-392.08C204.24,-384.69 198.47,-373.95 193.57,-364.81"/>
<polygon fill="midnightblue" stroke="midnightblue" points="196.51,-362.91 188.7,-355.75 190.35,-366.22 196.51,-362.91"/>
</g>
</g>
</svg>
