<?xml version="1.0" encoding="UTF-8" standalone="no"?>
<!DOCTYPE svg PUBLIC "-//W3C//DTD SVG 1.1//EN"
 "http://www.w3.org/Graphics/SVG/1.1/DTD/svg11.dtd">
<!-- Generated by graphviz version 2.43.0 (0)
 -->
<!-- Title: itkGPUFunctorBase.h Pages: 1 -->
<svg width="341pt" height="151pt"
 viewBox="0.00 0.00 340.50 151.00" xmlns="http://www.w3.org/2000/svg" xmlns:xlink="http://www.w3.org/1999/xlink">
<g id="graph0" class="graph" transform="scale(1 1) rotate(0) translate(4 147)">
<title>itkGPUFunctorBase.h</title>
<polygon fill="white" stroke="transparent" points="-4,4 -4,-147 336.5,-147 336.5,4 -4,4"/>
<!-- Node1 -->
<g id="node1" class="node">
<title>Node1</title>
<g id="a_node1"><a xlink:title=" ">
<polygon fill="#bfbfbf" stroke="black" points="92.5,-123.5 92.5,-142.5 211.5,-142.5 211.5,-123.5 92.5,-123.5"/>
<text text-anchor="middle" x="152" y="-130.5" font-family="Helvetica,sans-Serif" font-size="10.00">itkGPUFunctorBase.h</text>
</a>
</g>
</g>
<!-- Node2 -->
<g id="node2" class="node">
<title>Node2</title>
<g id="a_node2"><a xlink:href="itkGPUUnaryFunctorImageFilter_8h.html" target="_top" xlink:title=" ">
<polygon fill="white" stroke="black" points="62.5,-67.5 62.5,-86.5 241.5,-86.5 241.5,-67.5 62.5,-67.5"/>
<text text-anchor="middle" x="152" y="-74.5" font-family="Helvetica,sans-Serif" font-size="10.00">itkGPUUnaryFunctorImageFilter.h</text>
</a>
</g>
</g>
<!-- Node1&#45;&gt;Node2 -->
<g id="edge1" class="edge">
<title>Node1&#45;&gt;Node2</title>
<path fill="none" stroke="midnightblue" d="M152,-112.8C152,-103.91 152,-93.78 152,-86.75"/>
<polygon fill="midnightblue" stroke="midnightblue" points="148.5,-113.08 152,-123.08 155.5,-113.08 148.5,-113.08"/>
</g>
<!-- Node3 -->
<g id="node3" class="node">
<title>Node3</title>
<g id="a_node3"><a xlink:href="itkGPUCastImageFilter_8h.html" target="_top" xlink:title=" ">
<polygon fill="white" stroke="black" points="0,-6 0,-25 136,-25 136,-6 0,-6"/>
<text text-anchor="middle" x="68" y="-13" font-family="Helvetica,sans-Serif" font-size="10.00">itkGPUCastImageFilter.h</text>
</a>
</g>
</g>
<!-- Node1&#45;&gt;Node3 -->
<g id="edge4" class="edge">
<title>Node1&#45;&gt;Node3</title>
<path fill="none" stroke="midnightblue" d="M98.33,-120.08C80.85,-113.38 63.31,-103.01 53,-87 40.4,-67.43 54.03,-39.08 62.42,-25.04"/>
<polygon fill="midnightblue" stroke="midnightblue" points="97.4,-123.46 107.99,-123.44 99.7,-116.85 97.4,-123.46"/>
</g>
<!-- Node4 -->
<g id="node4" class="node">
<title>Node4</title>
<g id="a_node4"><a xlink:href="itkGPUBinaryThresholdImageFilter_8h.html" target="_top" xlink:title=" ">
<polygon fill="white" stroke="black" points="171.5,-0.5 171.5,-30.5 332.5,-30.5 332.5,-0.5 171.5,-0.5"/>
<text text-anchor="start" x="179.5" y="-18.5" font-family="Helvetica,sans-Serif" font-size="10.00">itkGPUBinaryThresholdImage</text>
<text text-anchor="middle" x="252" y="-7.5" font-family="Helvetica,sans-Serif" font-size="10.00">Filter.h</text>
</a>
</g>
</g>
<!-- Node1&#45;&gt;Node4 -->
<g id="edge5" class="edge">
<title>Node1&#45;&gt;Node4</title>
<path fill="none" stroke="midnightblue" d="M205.32,-120.09C222.86,-113.38 240.54,-103 251,-87 261.99,-70.2 259.31,-45.99 255.96,-30.76"/>
<polygon fill="midnightblue" stroke="midnightblue" points="203.94,-116.86 195.64,-123.45 206.23,-123.48 203.94,-116.86"/>
</g>
<!-- Node2&#45;&gt;Node3 -->
<g id="edge2" class="edge">
<title>Node2&#45;&gt;Node3</title>
<path fill="none" stroke="midnightblue" d="M131.69,-61.61C115.53,-50.17 93.48,-34.55 80.01,-25.01"/>
<polygon fill="midnightblue" stroke="midnightblue" points="129.78,-64.55 139.96,-67.48 133.83,-58.84 129.78,-64.55"/>
</g>
<!-- Node2&#45;&gt;Node4 -->
<g id="edge3" class="edge">
<title>Node2&#45;&gt;Node4</title>
<path fill="none" stroke="midnightblue" d="M175.07,-62.28C191.07,-52.75 212.32,-40.11 228.43,-30.52"/>
<polygon fill="midnightblue" stroke="midnightblue" points="173.13,-59.35 166.33,-67.48 176.71,-65.37 173.13,-59.35"/>
</g>
</g>
</svg>
