<?xml version="1.0" encoding="UTF-8" standalone="no"?>
<!DOCTYPE svg PUBLIC "-//W3C//DTD SVG 1.1//EN"
 "http://www.w3.org/Graphics/SVG/1.1/DTD/svg11.dtd">
<!-- Generated by graphviz version 2.43.0 (0)
 -->
<!-- Title: itkGaussianOperator.h Pages: 1 -->
<svg width="1047pt" height="487pt"
 viewBox="0.00 0.00 1046.50 487.00" xmlns="http://www.w3.org/2000/svg" xmlns:xlink="http://www.w3.org/1999/xlink">
<g id="graph0" class="graph" transform="scale(1 1) rotate(0) translate(4 483)">
<title>itkGaussianOperator.h</title>
<polygon fill="white" stroke="transparent" points="-4,4 -4,-483 1042.5,-483 1042.5,4 -4,4"/>
<!-- Node1 -->
<g id="node1" class="node">
<title>Node1</title>
<g id="a_node1"><a xlink:title=" ">
<polygon fill="#bfbfbf" stroke="black" points="664.5,-459.5 664.5,-478.5 789.5,-478.5 789.5,-459.5 664.5,-459.5"/>
<text text-anchor="middle" x="727" y="-466.5" font-family="Helvetica,sans-Serif" font-size="10.00">itkGaussianOperator.h</text>
</a>
</g>
</g>
<!-- Node2 -->
<g id="node2" class="node">
<title>Node2</title>
<g id="a_node2"><a xlink:href="itkNeighborhoodOperator_8h.html" target="_top" xlink:title=" ">
<polygon fill="white" stroke="black" points="162.5,-403.5 162.5,-422.5 311.5,-422.5 311.5,-403.5 162.5,-403.5"/>
<text text-anchor="middle" x="237" y="-410.5" font-family="Helvetica,sans-Serif" font-size="10.00">itkNeighborhoodOperator.h</text>
</a>
</g>
</g>
<!-- Node1&#45;&gt;Node2 -->
<g id="edge1" class="edge">
<title>Node1&#45;&gt;Node2</title>
<path fill="none" stroke="midnightblue" d="M664.44,-461.11C577.35,-451.51 419.31,-434.09 321.72,-423.34"/>
<polygon fill="midnightblue" stroke="midnightblue" points="321.91,-419.84 311.59,-422.22 321.15,-426.79 321.91,-419.84"/>
</g>
<!-- Node21 -->
<g id="node21" class="node">
<title>Node21</title>
<g id="a_node21"><a xlink:title=" ">
<polygon fill="white" stroke="#bfbfbf" points="786.5,-179.5 786.5,-198.5 833.5,-198.5 833.5,-179.5 786.5,-179.5"/>
<text text-anchor="middle" x="810" y="-186.5" font-family="Helvetica,sans-Serif" font-size="10.00">cmath</text>
</a>
</g>
</g>
<!-- Node1&#45;&gt;Node21 -->
<g id="edge58" class="edge">
<title>Node1&#45;&gt;Node21</title>
<path fill="none" stroke="midnightblue" d="M727,-459.44C727,-440.94 727,-395.81 727,-358 727,-358 727,-358 727,-300 727,-258.91 764.36,-223.44 788.95,-204.55"/>
<polygon fill="midnightblue" stroke="midnightblue" points="791.07,-207.33 797.03,-198.57 786.91,-201.7 791.07,-207.33"/>
</g>
<!-- Node38 -->
<g id="node38" class="node">
<title>Node38</title>
<g id="a_node38"><a xlink:title=" ">
<polygon fill="white" stroke="#bfbfbf" points="755.5,-403.5 755.5,-422.5 892.5,-422.5 892.5,-403.5 755.5,-403.5"/>
<text text-anchor="middle" x="824" y="-410.5" font-family="Helvetica,sans-Serif" font-size="10.00">itkGaussianOperator.hxx</text>
</a>
</g>
</g>
<!-- Node1&#45;&gt;Node38 -->
<g id="edge59" class="edge">
<title>Node1&#45;&gt;Node38</title>
<path fill="none" stroke="midnightblue" d="M742.58,-459.32C758,-450.74 781.81,-437.49 799.71,-427.52"/>
<polygon fill="midnightblue" stroke="midnightblue" points="801.42,-430.58 808.45,-422.65 798.01,-424.46 801.42,-430.58"/>
</g>
<!-- Node3 -->
<g id="node3" class="node">
<title>Node3</title>
<g id="a_node3"><a xlink:href="itkNeighborhood_8h.html" target="_top" xlink:title=" ">
<polygon fill="white" stroke="black" points="335.5,-347.5 335.5,-366.5 442.5,-366.5 442.5,-347.5 335.5,-347.5"/>
<text text-anchor="middle" x="389" y="-354.5" font-family="Helvetica,sans-Serif" font-size="10.00">itkNeighborhood.h</text>
</a>
</g>
</g>
<!-- Node2&#45;&gt;Node3 -->
<g id="edge2" class="edge">
<title>Node2&#45;&gt;Node3</title>
<path fill="none" stroke="midnightblue" d="M261.08,-403.44C286.54,-394.4 326.89,-380.06 355.46,-369.92"/>
<polygon fill="midnightblue" stroke="midnightblue" points="356.78,-373.16 365.03,-366.52 354.43,-366.57 356.78,-373.16"/>
</g>
<!-- Node23 -->
<g id="node23" class="node">
<title>Node23</title>
<g id="a_node23"><a xlink:href="itkNumericTraits_8h.html" target="_top" xlink:title=" ">
<polygon fill="white" stroke="black" points="326,-123.5 326,-142.5 432,-142.5 432,-123.5 326,-123.5"/>
<text text-anchor="middle" x="379" y="-130.5" font-family="Helvetica,sans-Serif" font-size="10.00">itkNumericTraits.h</text>
</a>
</g>
</g>
<!-- Node2&#45;&gt;Node23 -->
<g id="edge55" class="edge">
<title>Node2&#45;&gt;Node23</title>
<path fill="none" stroke="midnightblue" d="M209.62,-403.38C159.96,-386.2 63,-344.7 95,-291 138.98,-217.2 189.9,-240.72 265,-199 296.51,-181.5 332.61,-160.8 355.59,-147.55"/>
<polygon fill="midnightblue" stroke="midnightblue" points="357.39,-150.55 364.3,-142.52 353.89,-144.49 357.39,-150.55"/>
</g>
<!-- Node35 -->
<g id="node35" class="node">
<title>Node35</title>
<g id="a_node35"><a xlink:title=" ">
<polygon fill="white" stroke="#bfbfbf" points="104.5,-291.5 104.5,-310.5 151.5,-310.5 151.5,-291.5 104.5,-291.5"/>
<text text-anchor="middle" x="128" y="-298.5" font-family="Helvetica,sans-Serif" font-size="10.00">vector</text>
</a>
</g>
</g>
<!-- Node2&#45;&gt;Node35 -->
<g id="edge56" class="edge">
<title>Node2&#45;&gt;Node35</title>
<path fill="none" stroke="midnightblue" d="M205.82,-403.48C186.32,-396.63 162.12,-385.1 147,-367 136.06,-353.9 131.42,-334.75 129.45,-320.63"/>
<polygon fill="midnightblue" stroke="midnightblue" points="132.92,-320.16 128.37,-310.59 125.96,-320.91 132.92,-320.16"/>
</g>
<!-- Node37 -->
<g id="node37" class="node">
<title>Node37</title>
<g id="a_node37"><a xlink:title=" ">
<polygon fill="white" stroke="#bfbfbf" points="156.5,-347.5 156.5,-366.5 317.5,-366.5 317.5,-347.5 156.5,-347.5"/>
<text text-anchor="middle" x="237" y="-354.5" font-family="Helvetica,sans-Serif" font-size="10.00">itkNeighborhoodOperator.hxx</text>
</a>
</g>
</g>
<!-- Node2&#45;&gt;Node37 -->
<g id="edge57" class="edge">
<title>Node2&#45;&gt;Node37</title>
<path fill="none" stroke="midnightblue" d="M237,-403.08C237,-396.01 237,-385.86 237,-376.99"/>
<polygon fill="midnightblue" stroke="midnightblue" points="240.5,-376.75 237,-366.75 233.5,-376.75 240.5,-376.75"/>
</g>
<!-- Node4 -->
<g id="node4" class="node">
<title>Node4</title>
<g id="a_node4"><a xlink:title=" ">
<polygon fill="white" stroke="#bfbfbf" points="591,-123.5 591,-142.5 651,-142.5 651,-123.5 591,-123.5"/>
<text text-anchor="middle" x="621" y="-130.5" font-family="Helvetica,sans-Serif" font-size="10.00">iostream</text>
</a>
</g>
</g>
<!-- Node3&#45;&gt;Node4 -->
<g id="edge3" class="edge">
<title>Node3&#45;&gt;Node4</title>
<path fill="none" stroke="midnightblue" d="M432.07,-347.49C452.4,-341.07 474.82,-329.99 487,-311 521.59,-257.06 389.19,-229.22 429,-179 447.55,-155.59 530.01,-143.19 580.64,-137.66"/>
<polygon fill="midnightblue" stroke="midnightblue" points="581.03,-141.14 590.62,-136.62 580.31,-134.18 581.03,-141.14"/>
</g>
<!-- Node5 -->
<g id="node5" class="node">
<title>Node5</title>
<g id="a_node5"><a xlink:href="itkNeighborhoodAllocator_8h.html" target="_top" xlink:title=" ">
<polygon fill="white" stroke="black" points="889.5,-179.5 889.5,-198.5 1038.5,-198.5 1038.5,-179.5 889.5,-179.5"/>
<text text-anchor="middle" x="964" y="-186.5" font-family="Helvetica,sans-Serif" font-size="10.00">itkNeighborhoodAllocator.h</text>
</a>
</g>
</g>
<!-- Node3&#45;&gt;Node5 -->
<g id="edge4" class="edge">
<title>Node3&#45;&gt;Node5</title>
<path fill="none" stroke="midnightblue" d="M442.55,-347.6C490.83,-339.61 563.61,-326.52 626,-311 707.72,-290.67 727.79,-283.58 807,-255 852.57,-238.56 904.29,-216.46 935.51,-202.73"/>
<polygon fill="midnightblue" stroke="midnightblue" points="937.16,-205.83 944.89,-198.59 934.33,-199.43 937.16,-205.83"/>
</g>
<!-- Node9 -->
<g id="node9" class="node">
<title>Node9</title>
<g id="a_node9"><a xlink:href="itkIndent_8h.html" target="_top" xlink:title=" ">
<polygon fill="white" stroke="black" points="312.5,-179.5 312.5,-198.5 381.5,-198.5 381.5,-179.5 312.5,-179.5"/>
<text text-anchor="middle" x="347" y="-186.5" font-family="Helvetica,sans-Serif" font-size="10.00">itkIndent.h</text>
</a>
</g>
</g>
<!-- Node3&#45;&gt;Node9 -->
<g id="edge9" class="edge">
<title>Node3&#45;&gt;Node9</title>
<path fill="none" stroke="midnightblue" d="M377.79,-347.4C368.13,-339.24 354.84,-326 349,-311 335.7,-276.86 339.59,-233.09 343.42,-208.65"/>
<polygon fill="midnightblue" stroke="midnightblue" points="346.91,-209.05 345.17,-198.6 340.01,-207.85 346.91,-209.05"/>
</g>
<!-- Node10 -->
<g id="node10" class="node">
<title>Node10</title>
<g id="a_node10"><a xlink:href="itkSliceIterator_8h.html" target="_top" xlink:title=" ">
<polygon fill="white" stroke="black" points="84.5,-123.5 84.5,-142.5 181.5,-142.5 181.5,-123.5 84.5,-123.5"/>
<text text-anchor="middle" x="133" y="-130.5" font-family="Helvetica,sans-Serif" font-size="10.00">itkSliceIterator.h</text>
</a>
</g>
</g>
<!-- Node3&#45;&gt;Node10 -->
<g id="edge12" class="edge">
<title>Node3&#45;&gt;Node10</title>
<path fill="none" stroke="midnightblue" d="M343.23,-347.46C290.57,-337.29 209.92,-320.47 199,-311 150.94,-269.31 137.82,-189.16 134.28,-152.78"/>
<polygon fill="midnightblue" stroke="midnightblue" points="137.75,-152.29 133.44,-142.61 130.78,-152.87 137.75,-152.29"/>
</g>
<!-- Node15 -->
<g id="node15" class="node">
<title>Node15</title>
<g id="a_node15"><a xlink:title=" ">
<polygon fill="white" stroke="#bfbfbf" points="208,-291.5 208,-310.5 302,-310.5 302,-291.5 208,-291.5"/>
<text text-anchor="middle" x="255" y="-298.5" font-family="Helvetica,sans-Serif" font-size="10.00">vnl/vnl_vector.h</text>
</a>
</g>
</g>
<!-- Node3&#45;&gt;Node15 -->
<g id="edge19" class="edge">
<title>Node3&#45;&gt;Node15</title>
<path fill="none" stroke="midnightblue" d="M367.77,-347.44C345.62,-338.52 310.68,-324.44 285.56,-314.32"/>
<polygon fill="midnightblue" stroke="midnightblue" points="286.72,-311.01 276.13,-310.52 284.1,-317.5 286.72,-311.01"/>
</g>
<!-- Node16 -->
<g id="node16" class="node">
<title>Node16</title>
<g id="a_node16"><a xlink:href="itkOffset_8h.html" target="_top" xlink:title=" ">
<polygon fill="white" stroke="black" points="549,-291.5 549,-310.5 617,-310.5 617,-291.5 549,-291.5"/>
<text text-anchor="middle" x="583" y="-298.5" font-family="Helvetica,sans-Serif" font-size="10.00">itkOffset.h</text>
</a>
</g>
</g>
<!-- Node3&#45;&gt;Node16 -->
<g id="edge20" class="edge">
<title>Node3&#45;&gt;Node16</title>
<path fill="none" stroke="midnightblue" d="M419.74,-347.44C452.94,-338.2 505.99,-323.44 542.56,-313.26"/>
<polygon fill="midnightblue" stroke="midnightblue" points="543.71,-316.57 552.4,-310.52 541.83,-309.83 543.71,-316.57"/>
</g>
<!-- Node3&#45;&gt;Node35 -->
<g id="edge53" class="edge">
<title>Node3&#45;&gt;Node35</title>
<path fill="none" stroke="midnightblue" d="M344.48,-347.47C299.4,-338.73 227.73,-324.53 166,-311 164.55,-310.68 163.07,-310.35 161.58,-310.02"/>
<polygon fill="midnightblue" stroke="midnightblue" points="162.22,-306.57 151.69,-307.74 160.65,-313.39 162.22,-306.57"/>
</g>
<!-- Node36 -->
<g id="node36" class="node">
<title>Node36</title>
<g id="a_node36"><a xlink:title=" ">
<polygon fill="white" stroke="#bfbfbf" points="358.5,-291.5 358.5,-310.5 477.5,-310.5 477.5,-291.5 358.5,-291.5"/>
<text text-anchor="middle" x="418" y="-298.5" font-family="Helvetica,sans-Serif" font-size="10.00">itkNeighborhood.hxx</text>
</a>
</g>
</g>
<!-- Node3&#45;&gt;Node36 -->
<g id="edge54" class="edge">
<title>Node3&#45;&gt;Node36</title>
<path fill="none" stroke="midnightblue" d="M393.79,-347.08C397.76,-339.69 403.53,-328.95 408.43,-319.81"/>
<polygon fill="midnightblue" stroke="midnightblue" points="411.65,-321.22 413.3,-310.75 405.49,-317.91 411.65,-321.22"/>
</g>
<!-- Node5&#45;&gt;Node4 -->
<g id="edge6" class="edge">
<title>Node5&#45;&gt;Node4</title>
<path fill="none" stroke="midnightblue" d="M895.82,-179.49C836.33,-171.71 747.49,-159.21 661.15,-143.1"/>
<polygon fill="midnightblue" stroke="midnightblue" points="661.66,-139.63 651.18,-141.22 660.36,-146.51 661.66,-139.63"/>
</g>
<!-- Node6 -->
<g id="node6" class="node">
<title>Node6</title>
<g id="a_node6"><a xlink:title=" ">
<polygon fill="white" stroke="#bfbfbf" points="780,-6 780,-25 844,-25 844,-6 780,-6"/>
<text text-anchor="middle" x="812" y="-13" font-family="Helvetica,sans-Serif" font-size="10.00">algorithm</text>
</a>
</g>
</g>
<!-- Node5&#45;&gt;Node6 -->
<g id="edge5" class="edge">
<title>Node5&#45;&gt;Node6</title>
<path fill="none" stroke="midnightblue" d="M964.9,-179.2C966.61,-157.46 967.99,-100.54 940,-67 918.67,-41.43 882.62,-28.74 854.2,-22.48"/>
<polygon fill="midnightblue" stroke="midnightblue" points="854.62,-18.99 844.12,-20.45 853.24,-25.85 854.62,-18.99"/>
</g>
<!-- Node7 -->
<g id="node7" class="node">
<title>Node7</title>
<g id="a_node7"><a xlink:title=" ">
<polygon fill="white" stroke="#bfbfbf" points="840,-67.5 840,-86.5 898,-86.5 898,-67.5 840,-67.5"/>
<text text-anchor="middle" x="869" y="-74.5" font-family="Helvetica,sans-Serif" font-size="10.00">memory</text>
</a>
</g>
</g>
<!-- Node5&#45;&gt;Node7 -->
<g id="edge7" class="edge">
<title>Node5&#45;&gt;Node7</title>
<path fill="none" stroke="midnightblue" d="M952.45,-179.49C941.34,-170.99 924.45,-157.17 912,-143 898.92,-128.11 886.73,-108.99 878.7,-95.34"/>
<polygon fill="midnightblue" stroke="midnightblue" points="881.64,-93.44 873.63,-86.52 875.57,-96.93 881.64,-93.44"/>
</g>
<!-- Node8 -->
<g id="node8" class="node">
<title>Node8</title>
<g id="a_node8"><a xlink:href="itkMacro_8h.html" target="_top" xlink:title=" ">
<polygon fill="white" stroke="black" points="592,-6 592,-25 660,-25 660,-6 592,-6"/>
<text text-anchor="middle" x="626" y="-13" font-family="Helvetica,sans-Serif" font-size="10.00">itkMacro.h</text>
</a>
</g>
</g>
<!-- Node5&#45;&gt;Node8 -->
<g id="edge8" class="edge">
<title>Node5&#45;&gt;Node8</title>
<path fill="none" stroke="midnightblue" d="M962.67,-179.29C958.74,-156.72 944.96,-96.11 907,-67 888.43,-52.76 744.31,-32.04 670.01,-22.16"/>
<polygon fill="midnightblue" stroke="midnightblue" points="670.38,-18.68 660,-20.84 669.46,-25.62 670.38,-18.68"/>
</g>
<!-- Node9&#45;&gt;Node4 -->
<g id="edge11" class="edge">
<title>Node9&#45;&gt;Node4</title>
<path fill="none" stroke="midnightblue" d="M381.7,-181.31C426.74,-172.6 507.78,-156.85 577,-143 578.25,-142.75 579.51,-142.5 580.79,-142.24"/>
<polygon fill="midnightblue" stroke="midnightblue" points="581.6,-145.65 590.71,-140.23 580.21,-138.78 581.6,-145.65"/>
</g>
<!-- Node9&#45;&gt;Node8 -->
<g id="edge10" class="edge">
<title>Node9&#45;&gt;Node8</title>
<path fill="none" stroke="midnightblue" d="M368.39,-179.44C406.03,-163.89 485.82,-128.72 546,-87 570.1,-70.29 595,-47.27 610.49,-32.15"/>
<polygon fill="midnightblue" stroke="midnightblue" points="613.03,-34.55 617.67,-25.03 608.11,-29.58 613.03,-34.55"/>
</g>
<!-- Node10&#45;&gt;Node8 -->
<g id="edge13" class="edge">
<title>Node10&#45;&gt;Node8</title>
<path fill="none" stroke="midnightblue" d="M181.56,-124.83C223.31,-117.82 284.72,-105.49 336,-87 354.33,-80.39 356.53,-73.18 375,-67 463.98,-37.25 492.06,-54.06 583,-31 586.21,-30.19 589.52,-29.25 592.82,-28.25"/>
<polygon fill="midnightblue" stroke="midnightblue" points="594.08,-31.52 602.54,-25.14 591.95,-24.86 594.08,-31.52"/>
</g>
<!-- Node11 -->
<g id="node11" class="node">
<title>Node11</title>
<g id="a_node11"><a xlink:href="itkIntTypes_8h.html" target="_top" xlink:title=" ">
<polygon fill="white" stroke="black" points="102.5,-67.5 102.5,-86.5 181.5,-86.5 181.5,-67.5 102.5,-67.5"/>
<text text-anchor="middle" x="142" y="-74.5" font-family="Helvetica,sans-Serif" font-size="10.00">itkIntTypes.h</text>
</a>
</g>
</g>
<!-- Node10&#45;&gt;Node11 -->
<g id="edge14" class="edge">
<title>Node10&#45;&gt;Node11</title>
<path fill="none" stroke="midnightblue" d="M134.49,-123.08C135.68,-115.93 137.39,-105.64 138.88,-96.69"/>
<polygon fill="midnightblue" stroke="midnightblue" points="142.35,-97.19 140.54,-86.75 135.45,-96.04 142.35,-97.19"/>
</g>
<!-- Node14 -->
<g id="node14" class="node">
<title>Node14</title>
<g id="a_node14"><a xlink:title=" ">
<polygon fill="white" stroke="#bfbfbf" points="27.5,-67.5 27.5,-86.5 84.5,-86.5 84.5,-67.5 27.5,-67.5"/>
<text text-anchor="middle" x="56" y="-74.5" font-family="Helvetica,sans-Serif" font-size="10.00">valarray</text>
</a>
</g>
</g>
<!-- Node10&#45;&gt;Node14 -->
<g id="edge18" class="edge">
<title>Node10&#45;&gt;Node14</title>
<path fill="none" stroke="midnightblue" d="M120.63,-123.32C108.84,-115.06 90.87,-102.45 76.86,-92.63"/>
<polygon fill="midnightblue" stroke="midnightblue" points="78.54,-89.53 68.34,-86.65 74.52,-95.26 78.54,-89.53"/>
</g>
<!-- Node11&#45;&gt;Node8 -->
<g id="edge15" class="edge">
<title>Node11&#45;&gt;Node8</title>
<path fill="none" stroke="midnightblue" d="M181.84,-71.86C196.65,-70.33 213.59,-68.58 229,-67 386.32,-50.86 428.44,-64.48 583,-31 586.49,-30.24 590.1,-29.3 593.67,-28.26"/>
<polygon fill="midnightblue" stroke="midnightblue" points="595.03,-31.5 603.5,-25.14 592.91,-24.83 595.03,-31.5"/>
</g>
<!-- Node12 -->
<g id="node12" class="node">
<title>Node12</title>
<g id="a_node12"><a xlink:title=" ">
<polygon fill="white" stroke="#bfbfbf" points="68,-6 68,-25 118,-25 118,-6 68,-6"/>
<text text-anchor="middle" x="93" y="-13" font-family="Helvetica,sans-Serif" font-size="10.00">cstdint</text>
</a>
</g>
</g>
<!-- Node11&#45;&gt;Node12 -->
<g id="edge16" class="edge">
<title>Node11&#45;&gt;Node12</title>
<path fill="none" stroke="midnightblue" d="M134.98,-67.48C127.56,-58.46 115.67,-44.02 106.43,-32.81"/>
<polygon fill="midnightblue" stroke="midnightblue" points="109.07,-30.5 100.01,-25.01 103.66,-34.95 109.07,-30.5"/>
</g>
<!-- Node13 -->
<g id="node13" class="node">
<title>Node13</title>
<g id="a_node13"><a xlink:title=" ">
<polygon fill="white" stroke="#bfbfbf" points="0,-6 0,-25 50,-25 50,-6 0,-6"/>
<text text-anchor="middle" x="25" y="-13" font-family="Helvetica,sans-Serif" font-size="10.00">climits</text>
</a>
</g>
</g>
<!-- Node11&#45;&gt;Node13 -->
<g id="edge17" class="edge">
<title>Node11&#45;&gt;Node13</title>
<path fill="none" stroke="midnightblue" d="M125.24,-67.48C105.78,-57.58 73.45,-41.14 50.79,-29.62"/>
<polygon fill="midnightblue" stroke="midnightblue" points="52.23,-26.42 41.73,-25.01 49.06,-32.66 52.23,-26.42"/>
</g>
<!-- Node17 -->
<g id="node17" class="node">
<title>Node17</title>
<g id="a_node17"><a xlink:href="itkSize_8h.html" target="_top" xlink:title=" ">
<polygon fill="white" stroke="black" points="775.5,-123.5 775.5,-142.5 834.5,-142.5 834.5,-123.5 775.5,-123.5"/>
<text text-anchor="middle" x="805" y="-130.5" font-family="Helvetica,sans-Serif" font-size="10.00">itkSize.h</text>
</a>
</g>
</g>
<!-- Node16&#45;&gt;Node17 -->
<g id="edge21" class="edge">
<title>Node16&#45;&gt;Node17</title>
<path fill="none" stroke="midnightblue" d="M617.41,-298.31C675.47,-293.38 791.59,-274.13 843,-199 854.21,-182.62 838.75,-162.8 824.31,-149.38"/>
<polygon fill="midnightblue" stroke="midnightblue" points="826.41,-146.57 816.57,-142.65 821.82,-151.85 826.41,-146.57"/>
</g>
<!-- Node20 -->
<g id="node20" class="node">
<title>Node20</title>
<g id="a_node20"><a xlink:href="itkMath_8h.html" target="_top" xlink:title=" ">
<polygon fill="white" stroke="black" points="551.5,-235.5 551.5,-254.5 614.5,-254.5 614.5,-235.5 551.5,-235.5"/>
<text text-anchor="middle" x="583" y="-242.5" font-family="Helvetica,sans-Serif" font-size="10.00">itkMath.h</text>
</a>
</g>
</g>
<!-- Node16&#45;&gt;Node20 -->
<g id="edge28" class="edge">
<title>Node16&#45;&gt;Node20</title>
<path fill="none" stroke="midnightblue" d="M583,-291.08C583,-284.01 583,-273.86 583,-264.99"/>
<polygon fill="midnightblue" stroke="midnightblue" points="586.5,-264.75 583,-254.75 579.5,-264.75 586.5,-264.75"/>
</g>
<!-- Node17&#45;&gt;Node6 -->
<g id="edge25" class="edge">
<title>Node17&#45;&gt;Node6</title>
<path fill="none" stroke="midnightblue" d="M805.53,-123.32C806.65,-104.76 809.31,-60.84 810.85,-35.47"/>
<polygon fill="midnightblue" stroke="midnightblue" points="814.36,-35.48 811.47,-25.28 807.37,-35.05 814.36,-35.48"/>
</g>
<!-- Node17&#45;&gt;Node7 -->
<g id="edge27" class="edge">
<title>Node17&#45;&gt;Node7</title>
<path fill="none" stroke="midnightblue" d="M815.28,-123.32C824.84,-115.26 839.28,-103.08 850.78,-93.37"/>
<polygon fill="midnightblue" stroke="midnightblue" points="853.14,-95.96 858.53,-86.83 848.63,-90.61 853.14,-95.96"/>
</g>
<!-- Node17&#45;&gt;Node8 -->
<g id="edge23" class="edge">
<title>Node17&#45;&gt;Node8</title>
<path fill="none" stroke="midnightblue" d="M800.33,-123.2C792.61,-109.43 775.95,-82.73 755,-67 729.68,-47.98 696.27,-35.17 669.8,-27.21"/>
<polygon fill="midnightblue" stroke="midnightblue" points="670.61,-23.8 660.03,-24.39 668.67,-30.52 670.61,-23.8"/>
</g>
<!-- Node17&#45;&gt;Node11 -->
<g id="edge22" class="edge">
<title>Node17&#45;&gt;Node11</title>
<path fill="none" stroke="midnightblue" d="M775.28,-124.63C772.16,-124.01 769.02,-123.45 766,-123 529.37,-87.99 467.34,-107.31 229,-87 216.94,-85.97 203.96,-84.71 191.8,-83.46"/>
<polygon fill="midnightblue" stroke="midnightblue" points="192.13,-79.98 181.82,-82.42 191.4,-86.94 192.13,-79.98"/>
</g>
<!-- Node18 -->
<g id="node18" class="node">
<title>Node18</title>
<g id="a_node18"><a xlink:href="itkMakeFilled_8h.html" target="_top" xlink:title=" ">
<polygon fill="white" stroke="black" points="482.5,-6 482.5,-25 573.5,-25 573.5,-6 482.5,-6"/>
<text text-anchor="middle" x="528" y="-13" font-family="Helvetica,sans-Serif" font-size="10.00">itkMakeFilled.h</text>
</a>
</g>
</g>
<!-- Node17&#45;&gt;Node18 -->
<g id="edge24" class="edge">
<title>Node17&#45;&gt;Node18</title>
<path fill="none" stroke="midnightblue" d="M775.41,-123.67C747.35,-115.45 704.21,-101.97 668,-87 626.15,-69.7 579.57,-45.11 552.07,-30.01"/>
<polygon fill="midnightblue" stroke="midnightblue" points="553.63,-26.87 543.19,-25.09 550.24,-33 553.63,-26.87"/>
</g>
<!-- Node19 -->
<g id="node19" class="node">
<title>Node19</title>
<g id="a_node19"><a xlink:title=" ">
<polygon fill="white" stroke="#bfbfbf" points="676.5,-67.5 676.5,-86.5 745.5,-86.5 745.5,-67.5 676.5,-67.5"/>
<text text-anchor="middle" x="711" y="-74.5" font-family="Helvetica,sans-Serif" font-size="10.00">type_traits</text>
</a>
</g>
</g>
<!-- Node17&#45;&gt;Node19 -->
<g id="edge26" class="edge">
<title>Node17&#45;&gt;Node19</title>
<path fill="none" stroke="midnightblue" d="M789.9,-123.32C775.1,-114.82 752.31,-101.73 735.02,-91.8"/>
<polygon fill="midnightblue" stroke="midnightblue" points="736.48,-88.6 726.07,-86.65 732.99,-94.67 736.48,-88.6"/>
</g>
<!-- Node20&#45;&gt;Node21 -->
<g id="edge29" class="edge">
<title>Node20&#45;&gt;Node21</title>
<path fill="none" stroke="midnightblue" d="M614.52,-237.21C651.21,-229.2 713.83,-215.2 776.26,-199.37"/>
<polygon fill="midnightblue" stroke="midnightblue" points="777.44,-202.67 786.27,-196.81 775.71,-195.89 777.44,-202.67"/>
</g>
<!-- Node22 -->
<g id="node22" class="node">
<title>Node22</title>
<g id="a_node22"><a xlink:href="itkMathDetail_8h.html" target="_top" xlink:title=" ">
<polygon fill="white" stroke="black" points="164,-179.5 164,-198.5 256,-198.5 256,-179.5 164,-179.5"/>
<text text-anchor="middle" x="210" y="-186.5" font-family="Helvetica,sans-Serif" font-size="10.00">itkMathDetail.h</text>
</a>
</g>
</g>
<!-- Node20&#45;&gt;Node22 -->
<g id="edge30" class="edge">
<title>Node20&#45;&gt;Node22</title>
<path fill="none" stroke="midnightblue" d="M551.2,-239.4C487.97,-230.24 345.74,-209.65 266.33,-198.15"/>
<polygon fill="midnightblue" stroke="midnightblue" points="266.42,-194.63 256.02,-196.66 265.42,-201.56 266.42,-194.63"/>
</g>
<!-- Node31 -->
<g id="node31" class="node">
<title>Node31</title>
<g id="a_node31"><a xlink:href="itkConceptChecking_8h.html" target="_top" xlink:title=" ">
<polygon fill="white" stroke="black" points="645.5,-179.5 645.5,-198.5 768.5,-198.5 768.5,-179.5 645.5,-179.5"/>
<text text-anchor="middle" x="707" y="-186.5" font-family="Helvetica,sans-Serif" font-size="10.00">itkConceptChecking.h</text>
</a>
</g>
</g>
<!-- Node20&#45;&gt;Node31 -->
<g id="edge46" class="edge">
<title>Node20&#45;&gt;Node31</title>
<path fill="none" stroke="midnightblue" d="M602.65,-235.44C622.96,-226.6 654.9,-212.69 678.1,-202.59"/>
<polygon fill="midnightblue" stroke="midnightblue" points="679.67,-205.72 687.44,-198.52 676.88,-199.3 679.67,-205.72"/>
</g>
<!-- Node33 -->
<g id="node33" class="node">
<title>Node33</title>
<g id="a_node33"><a xlink:title=" ">
<polygon fill="white" stroke="#bfbfbf" points="538.5,-179.5 538.5,-198.5 627.5,-198.5 627.5,-179.5 538.5,-179.5"/>
<text text-anchor="middle" x="583" y="-186.5" font-family="Helvetica,sans-Serif" font-size="10.00">vnl/vnl_math.h</text>
</a>
</g>
</g>
<!-- Node20&#45;&gt;Node33 -->
<g id="edge51" class="edge">
<title>Node20&#45;&gt;Node33</title>
<path fill="none" stroke="midnightblue" d="M583,-235.08C583,-228.01 583,-217.86 583,-208.99"/>
<polygon fill="midnightblue" stroke="midnightblue" points="586.5,-208.75 583,-198.75 579.5,-208.75 586.5,-208.75"/>
</g>
<!-- Node34 -->
<g id="node34" class="node">
<title>Node34</title>
<g id="a_node34"><a xlink:title=" ">
<polygon fill="white" stroke="#bfbfbf" points="438,-179.5 438,-198.5 520,-198.5 520,-179.5 438,-179.5"/>
<text text-anchor="middle" x="479" y="-186.5" font-family="Helvetica,sans-Serif" font-size="10.00">vxl_version.h</text>
</a>
</g>
</g>
<!-- Node20&#45;&gt;Node34 -->
<g id="edge52" class="edge">
<title>Node20&#45;&gt;Node34</title>
<path fill="none" stroke="midnightblue" d="M566.29,-235.32C549.69,-226.7 524,-213.36 504.78,-203.39"/>
<polygon fill="midnightblue" stroke="midnightblue" points="506.16,-200.16 495.67,-198.65 502.93,-206.37 506.16,-200.16"/>
</g>
<!-- Node22&#45;&gt;Node11 -->
<g id="edge31" class="edge">
<title>Node22&#45;&gt;Node11</title>
<path fill="none" stroke="midnightblue" d="M208.81,-179.42C206.69,-166.39 201.38,-141.23 190,-123 182.8,-111.46 171.9,-100.92 162.32,-92.94"/>
<polygon fill="midnightblue" stroke="midnightblue" points="164.36,-90.1 154.35,-86.63 160.02,-95.58 164.36,-90.1"/>
</g>
<!-- Node22&#45;&gt;Node23 -->
<g id="edge32" class="edge">
<title>Node22&#45;&gt;Node23</title>
<path fill="none" stroke="midnightblue" d="M236.78,-179.44C265.33,-170.32 310.73,-155.81 342.54,-145.65"/>
<polygon fill="midnightblue" stroke="midnightblue" points="343.89,-148.89 352.35,-142.52 341.76,-142.23 343.89,-148.89"/>
</g>
<!-- Node30 -->
<g id="node30" class="node">
<title>Node30</title>
<g id="a_node30"><a xlink:title=" ">
<polygon fill="white" stroke="#bfbfbf" points="238,-123.5 238,-142.5 282,-142.5 282,-123.5 238,-123.5"/>
<text text-anchor="middle" x="260" y="-130.5" font-family="Helvetica,sans-Serif" font-size="10.00">cfenv</text>
</a>
</g>
</g>
<!-- Node22&#45;&gt;Node30 -->
<g id="edge45" class="edge">
<title>Node22&#45;&gt;Node30</title>
<path fill="none" stroke="midnightblue" d="M218.26,-179.08C225.46,-171.3 236.11,-159.8 244.85,-150.37"/>
<polygon fill="midnightblue" stroke="midnightblue" points="247.67,-152.47 251.9,-142.75 242.53,-147.71 247.67,-152.47"/>
</g>
<!-- Node23&#45;&gt;Node8 -->
<g id="edge33" class="edge">
<title>Node23&#45;&gt;Node8</title>
<path fill="none" stroke="midnightblue" d="M412.3,-123.46C440.39,-115.68 481.29,-102.98 515,-87 548.75,-71 584.71,-46.65 606.26,-31.16"/>
<polygon fill="midnightblue" stroke="midnightblue" points="608.54,-33.83 614.56,-25.12 604.42,-28.17 608.54,-33.83"/>
</g>
<!-- Node24 -->
<g id="node24" class="node">
<title>Node24</title>
<g id="a_node24"><a xlink:title=" ">
<polygon fill="white" stroke="#bfbfbf" points="384,-67.5 384,-86.5 428,-86.5 428,-67.5 384,-67.5"/>
<text text-anchor="middle" x="406" y="-74.5" font-family="Helvetica,sans-Serif" font-size="10.00">limits</text>
</a>
</g>
</g>
<!-- Node23&#45;&gt;Node24 -->
<g id="edge34" class="edge">
<title>Node23&#45;&gt;Node24</title>
<path fill="none" stroke="midnightblue" d="M383.46,-123.08C387.15,-115.69 392.52,-104.95 397.09,-95.81"/>
<polygon fill="midnightblue" stroke="midnightblue" points="400.28,-97.26 401.62,-86.75 394.02,-94.13 400.28,-97.26"/>
</g>
<!-- Node25 -->
<g id="node25" class="node">
<title>Node25</title>
<g id="a_node25"><a xlink:title=" ">
<polygon fill="white" stroke="#bfbfbf" points="446.5,-67.5 446.5,-86.5 505.5,-86.5 505.5,-67.5 446.5,-67.5"/>
<text text-anchor="middle" x="476" y="-74.5" font-family="Helvetica,sans-Serif" font-size="10.00">complex</text>
</a>
</g>
</g>
<!-- Node23&#45;&gt;Node25 -->
<g id="edge35" class="edge">
<title>Node23&#45;&gt;Node25</title>
<path fill="none" stroke="midnightblue" d="M394.58,-123.32C410,-114.74 433.81,-101.49 451.71,-91.52"/>
<polygon fill="midnightblue" stroke="midnightblue" points="453.42,-94.58 460.45,-86.65 450.01,-88.46 453.42,-94.58"/>
</g>
<!-- Node26 -->
<g id="node26" class="node">
<title>Node26</title>
<g id="a_node26"><a xlink:href="itkFixedArray_8h.html" target="_top" xlink:title=" ">
<polygon fill="white" stroke="black" points="238.5,-67.5 238.5,-86.5 327.5,-86.5 327.5,-67.5 238.5,-67.5"/>
<text text-anchor="middle" x="283" y="-74.5" font-family="Helvetica,sans-Serif" font-size="10.00">itkFixedArray.h</text>
</a>
</g>
</g>
<!-- Node23&#45;&gt;Node26 -->
<g id="edge36" class="edge">
<title>Node23&#45;&gt;Node26</title>
<path fill="none" stroke="midnightblue" d="M363.58,-123.32C348.46,-114.82 325.18,-101.73 307.53,-91.8"/>
<polygon fill="midnightblue" stroke="midnightblue" points="308.82,-88.51 298.39,-86.65 305.39,-94.61 308.82,-88.51"/>
</g>
<!-- Node26&#45;&gt;Node6 -->
<g id="edge39" class="edge">
<title>Node26&#45;&gt;Node6</title>
<path fill="none" stroke="midnightblue" d="M327.65,-70.98C428.23,-59.67 671.41,-32.31 769.72,-21.26"/>
<polygon fill="midnightblue" stroke="midnightblue" points="770.32,-24.71 779.87,-20.11 769.54,-17.75 770.32,-24.71"/>
</g>
<!-- Node26&#45;&gt;Node8 -->
<g id="edge37" class="edge">
<title>Node26&#45;&gt;Node8</title>
<path fill="none" stroke="midnightblue" d="M327.78,-69.15C332.58,-68.43 337.39,-67.7 342,-67 449.09,-50.83 477.72,-56.4 583,-31 586.4,-30.18 589.91,-29.21 593.39,-28.17"/>
<polygon fill="midnightblue" stroke="midnightblue" points="594.55,-31.47 603.01,-25.09 592.42,-24.8 594.55,-31.47"/>
</g>
<!-- Node26&#45;&gt;Node18 -->
<g id="edge38" class="edge">
<title>Node26&#45;&gt;Node18</title>
<path fill="none" stroke="midnightblue" d="M320.2,-67.48C358.56,-58.63 420.06,-44.25 473,-31 477.32,-29.92 481.82,-28.77 486.31,-27.61"/>
<polygon fill="midnightblue" stroke="midnightblue" points="487.25,-30.98 496.04,-25.07 485.48,-24.21 487.25,-30.98"/>
</g>
<!-- Node27 -->
<g id="node27" class="node">
<title>Node27</title>
<g id="a_node27"><a xlink:title=" ">
<polygon fill="white" stroke="#bfbfbf" points="422,-6 422,-25 464,-25 464,-6 422,-6"/>
<text text-anchor="middle" x="443" y="-13" font-family="Helvetica,sans-Serif" font-size="10.00">array</text>
</a>
</g>
</g>
<!-- Node26&#45;&gt;Node27 -->
<g id="edge40" class="edge">
<title>Node26&#45;&gt;Node27</title>
<path fill="none" stroke="midnightblue" d="M310.74,-67.44C337.3,-59 378.34,-45.32 413,-31 414.2,-30.5 415.43,-29.98 416.66,-29.44"/>
<polygon fill="midnightblue" stroke="midnightblue" points="418.4,-32.49 426.02,-25.13 415.48,-26.13 418.4,-32.49"/>
</g>
<!-- Node28 -->
<g id="node28" class="node">
<title>Node28</title>
<g id="a_node28"><a xlink:title=" ">
<polygon fill="white" stroke="#bfbfbf" points="302.5,-6 302.5,-25 403.5,-25 403.5,-6 302.5,-6"/>
<text text-anchor="middle" x="353" y="-13" font-family="Helvetica,sans-Serif" font-size="10.00">itkFixedArray.hxx</text>
</a>
</g>
</g>
<!-- Node26&#45;&gt;Node28 -->
<g id="edge41" class="edge">
<title>Node26&#45;&gt;Node28</title>
<path fill="none" stroke="midnightblue" d="M293.03,-67.48C304.05,-58.11 321.96,-42.88 335.34,-31.51"/>
<polygon fill="midnightblue" stroke="midnightblue" points="337.64,-34.15 342.99,-25.01 333.1,-28.82 337.64,-34.15"/>
</g>
<!-- Node29 -->
<g id="node29" class="node">
<title>Node29</title>
<g id="a_node29"><a xlink:href="itkNumericTraitsFixedArrayPixel_8h.html" target="_top" xlink:title=" ">
<polygon fill="white" stroke="black" points="135.5,-0.5 135.5,-30.5 284.5,-30.5 284.5,-0.5 135.5,-0.5"/>
<text text-anchor="start" x="143.5" y="-18.5" font-family="Helvetica,sans-Serif" font-size="10.00">itkNumericTraitsFixedArray</text>
<text text-anchor="middle" x="210" y="-7.5" font-family="Helvetica,sans-Serif" font-size="10.00">Pixel.h</text>
</a>
</g>
</g>
<!-- Node26&#45;&gt;Node29 -->
<g id="edge42" class="edge">
<title>Node26&#45;&gt;Node29</title>
<path fill="none" stroke="midnightblue" d="M267.64,-67.48C256.32,-59.64 241.16,-47.71 229.12,-37.37"/>
<polygon fill="midnightblue" stroke="midnightblue" points="231.19,-34.52 221.37,-30.52 226.55,-39.77 231.19,-34.52"/>
</g>
<!-- Node29&#45;&gt;Node23 -->
<g id="edge43" class="edge">
<title>Node29&#45;&gt;Node23</title>
<path fill="none" stroke="midnightblue" d="M209.94,-30.63C210.65,-46.44 214.24,-71.82 229,-87 251.65,-110.29 285.83,-121.65 315.85,-127.13"/>
<polygon fill="midnightblue" stroke="midnightblue" points="315.41,-130.61 325.85,-128.77 316.55,-123.7 315.41,-130.61"/>
</g>
<!-- Node29&#45;&gt;Node26 -->
<g id="edge44" class="edge">
<title>Node29&#45;&gt;Node26</title>
<path fill="none" stroke="midnightblue" d="M233.03,-30.52C245.19,-39.48 259.52,-51.11 269.85,-60.37"/>
<polygon fill="midnightblue" stroke="midnightblue" points="267.75,-63.2 277.44,-67.48 272.53,-58.09 267.75,-63.2"/>
</g>
<!-- Node31&#45;&gt;Node4 -->
<g id="edge50" class="edge">
<title>Node31&#45;&gt;Node4</title>
<path fill="none" stroke="midnightblue" d="M693.18,-179.32C679.77,-170.9 659.18,-157.97 643.41,-148.07"/>
<polygon fill="midnightblue" stroke="midnightblue" points="645.11,-145.01 634.78,-142.65 641.39,-150.94 645.11,-145.01"/>
</g>
<!-- Node31&#45;&gt;Node23 -->
<g id="edge49" class="edge">
<title>Node31&#45;&gt;Node23</title>
<path fill="none" stroke="midnightblue" d="M655.03,-179.44C596.85,-169.87 502.64,-154.36 440.75,-144.17"/>
<polygon fill="midnightblue" stroke="midnightblue" points="441.17,-140.69 430.73,-142.52 440.03,-147.59 441.17,-140.69"/>
</g>
<!-- Node32 -->
<g id="node32" class="node">
<title>Node32</title>
<g id="a_node32"><a xlink:href="itkPixelTraits_8h.html" target="_top" xlink:title=" ">
<polygon fill="white" stroke="black" points="669,-123.5 669,-142.5 757,-142.5 757,-123.5 669,-123.5"/>
<text text-anchor="middle" x="713" y="-130.5" font-family="Helvetica,sans-Serif" font-size="10.00">itkPixelTraits.h</text>
</a>
</g>
</g>
<!-- Node31&#45;&gt;Node32 -->
<g id="edge47" class="edge">
<title>Node31&#45;&gt;Node32</title>
<path fill="none" stroke="midnightblue" d="M707.99,-179.08C708.79,-171.93 709.93,-161.64 710.92,-152.69"/>
<polygon fill="midnightblue" stroke="midnightblue" points="714.4,-153.08 712.03,-142.75 707.44,-152.3 714.4,-153.08"/>
</g>
<!-- Node32&#45;&gt;Node8 -->
<g id="edge48" class="edge">
<title>Node32&#45;&gt;Node8</title>
<path fill="none" stroke="midnightblue" d="M702.98,-123.32C693.35,-114.69 678.72,-100.78 668,-87 654.92,-70.19 642.79,-48.97 634.97,-34.22"/>
<polygon fill="midnightblue" stroke="midnightblue" points="637.99,-32.45 630.28,-25.18 631.77,-35.67 637.99,-32.45"/>
</g>
</g>
</svg>
