<?xml version="1.0" encoding="UTF-8" standalone="no"?>
<!DOCTYPE svg PUBLIC "-//W3C//DTD SVG 1.1//EN"
 "http://www.w3.org/Graphics/SVG/1.1/DTD/svg11.dtd">
<!-- Generated by graphviz version 2.43.0 (0)
 -->
<!-- Title: itkGradientDescentOptimizerv4.h Pages: 1 -->
<svg width="1044pt" height="162pt"
 viewBox="0.00 0.00 1044.00 162.00" xmlns="http://www.w3.org/2000/svg" xmlns:xlink="http://www.w3.org/1999/xlink">
<g id="graph0" class="graph" transform="scale(1 1) rotate(0) translate(4 158)">
<title>itkGradientDescentOptimizerv4.h</title>
<polygon fill="white" stroke="transparent" points="-4,4 -4,-158 1040,-158 1040,4 -4,4"/>
<!-- Node1 -->
<g id="node1" class="node">
<title>Node1</title>
<g id="a_node1"><a xlink:title=" ">
<polygon fill="#bfbfbf" stroke="black" points="416,-134.5 416,-153.5 596,-153.5 596,-134.5 416,-134.5"/>
<text text-anchor="middle" x="506" y="-141.5" font-family="Helvetica,sans-Serif" font-size="10.00">itkGradientDescentOptimizerv4.h</text>
</a>
</g>
</g>
<!-- Node2 -->
<g id="node2" class="node">
<title>Node2</title>
<g id="a_node2"><a xlink:href="itkGradientDescentLineSearchOptimizerv4_8h.html" target="_top" xlink:title=" ">
<polygon fill="white" stroke="black" points="0,-67.5 0,-97.5 164,-97.5 164,-67.5 0,-67.5"/>
<text text-anchor="start" x="8" y="-85.5" font-family="Helvetica,sans-Serif" font-size="10.00">itkGradientDescentLineSearch</text>
<text text-anchor="middle" x="82" y="-74.5" font-family="Helvetica,sans-Serif" font-size="10.00">Optimizerv4.h</text>
</a>
</g>
</g>
<!-- Node1&#45;&gt;Node2 -->
<g id="edge1" class="edge">
<title>Node1&#45;&gt;Node2</title>
<path fill="none" stroke="midnightblue" d="M429.46,-133.18C361.92,-124.39 260.84,-110.93 173,-98 170.15,-97.58 167.25,-97.15 164.33,-96.71"/>
<polygon fill="midnightblue" stroke="midnightblue" points="429.23,-136.68 439.59,-134.5 430.13,-129.74 429.23,-136.68"/>
</g>
<!-- Node4 -->
<g id="node4" class="node">
<title>Node4</title>
<g id="a_node4"><a xlink:href="itkLBFGS2Optimizerv4_8h.html" target="_top" xlink:title=" ">
<polygon fill="white" stroke="black" points="182,-73 182,-92 318,-92 318,-73 182,-73"/>
<text text-anchor="middle" x="250" y="-80" font-family="Helvetica,sans-Serif" font-size="10.00">itkLBFGS2Optimizerv4.h</text>
</a>
</g>
</g>
<!-- Node1&#45;&gt;Node4 -->
<g id="edge3" class="edge">
<title>Node1&#45;&gt;Node4</title>
<path fill="none" stroke="midnightblue" d="M459.47,-132.19C409.8,-120.64 332.11,-102.58 286.61,-92.01"/>
<polygon fill="midnightblue" stroke="midnightblue" points="458.79,-135.62 469.32,-134.48 460.37,-128.8 458.79,-135.62"/>
</g>
<!-- Node5 -->
<g id="node5" class="node">
<title>Node5</title>
<g id="a_node5"><a xlink:href="itkMultiGradientOptimizerv4_8h.html" target="_top" xlink:title=" ">
<polygon fill="white" stroke="black" points="336.5,-73 336.5,-92 501.5,-92 501.5,-73 336.5,-73"/>
<text text-anchor="middle" x="419" y="-80" font-family="Helvetica,sans-Serif" font-size="10.00">itkMultiGradientOptimizerv4.h</text>
</a>
</g>
</g>
<!-- Node1&#45;&gt;Node5 -->
<g id="edge4" class="edge">
<title>Node1&#45;&gt;Node5</title>
<path fill="none" stroke="midnightblue" d="M484.96,-128.61C468.23,-117.17 445.39,-101.55 431.44,-92.01"/>
<polygon fill="midnightblue" stroke="midnightblue" points="483.3,-131.72 493.54,-134.48 487.26,-125.94 483.3,-131.72"/>
</g>
<!-- Node6 -->
<g id="node6" class="node">
<title>Node6</title>
<g id="a_node6"><a xlink:href="itkMultiStartOptimizerv4_8h.html" target="_top" xlink:title=" ">
<polygon fill="white" stroke="black" points="520,-73 520,-92 666,-92 666,-73 520,-73"/>
<text text-anchor="middle" x="593" y="-80" font-family="Helvetica,sans-Serif" font-size="10.00">itkMultiStartOptimizerv4.h</text>
</a>
</g>
</g>
<!-- Node1&#45;&gt;Node6 -->
<g id="edge5" class="edge">
<title>Node1&#45;&gt;Node6</title>
<path fill="none" stroke="midnightblue" d="M527.04,-128.61C543.77,-117.17 566.61,-101.55 580.56,-92.01"/>
<polygon fill="midnightblue" stroke="midnightblue" points="524.74,-125.94 518.46,-134.48 528.7,-131.72 524.74,-125.94"/>
</g>
<!-- Node7 -->
<g id="node7" class="node">
<title>Node7</title>
<g id="a_node7"><a xlink:href="itkQuasiNewtonOptimizerv4_8h.html" target="_top" xlink:title=" ">
<polygon fill="white" stroke="black" points="684,-73 684,-92 848,-92 848,-73 684,-73"/>
<text text-anchor="middle" x="766" y="-80" font-family="Helvetica,sans-Serif" font-size="10.00">itkQuasiNewtonOptimizerv4.h</text>
</a>
</g>
</g>
<!-- Node1&#45;&gt;Node7 -->
<g id="edge6" class="edge">
<title>Node1&#45;&gt;Node7</title>
<path fill="none" stroke="midnightblue" d="M553.25,-132.19C603.7,-120.64 682.61,-102.58 728.82,-92.01"/>
<polygon fill="midnightblue" stroke="midnightblue" points="552.22,-128.83 543.25,-134.48 553.78,-135.66 552.22,-128.83"/>
</g>
<!-- Node8 -->
<g id="node8" class="node">
<title>Node8</title>
<g id="a_node8"><a xlink:href="itkRegularStepGradientDescentOptimizerv4_8h.html" target="_top" xlink:title=" ">
<polygon fill="white" stroke="black" points="866,-67.5 866,-97.5 1036,-97.5 1036,-67.5 866,-67.5"/>
<text text-anchor="start" x="874" y="-85.5" font-family="Helvetica,sans-Serif" font-size="10.00">itkRegularStepGradientDescent</text>
<text text-anchor="middle" x="951" y="-74.5" font-family="Helvetica,sans-Serif" font-size="10.00">Optimizerv4.h</text>
</a>
</g>
</g>
<!-- Node1&#45;&gt;Node8 -->
<g id="edge7" class="edge">
<title>Node1&#45;&gt;Node8</title>
<path fill="none" stroke="midnightblue" d="M586.9,-133.22C658.1,-124.48 764.52,-111.06 857,-98 859.94,-97.58 862.94,-97.16 865.96,-96.72"/>
<polygon fill="midnightblue" stroke="midnightblue" points="586.16,-129.79 576.66,-134.48 587.01,-136.74 586.16,-129.79"/>
</g>
<!-- Node3 -->
<g id="node3" class="node">
<title>Node3</title>
<g id="a_node3"><a xlink:href="itkConjugateGradientLineSearchOptimizerv4_8h.html" target="_top" xlink:title=" ">
<polygon fill="white" stroke="black" points="11.5,-0.5 11.5,-30.5 152.5,-30.5 152.5,-0.5 11.5,-0.5"/>
<text text-anchor="start" x="19.5" y="-18.5" font-family="Helvetica,sans-Serif" font-size="10.00">itkConjugateGradientLine</text>
<text text-anchor="middle" x="82" y="-7.5" font-family="Helvetica,sans-Serif" font-size="10.00">SearchOptimizerv4.h</text>
</a>
</g>
</g>
<!-- Node2&#45;&gt;Node3 -->
<g id="edge2" class="edge">
<title>Node2&#45;&gt;Node3</title>
<path fill="none" stroke="midnightblue" d="M82,-57.11C82,-48.15 82,-38.32 82,-30.58"/>
<polygon fill="midnightblue" stroke="midnightblue" points="78.5,-57.4 82,-67.4 85.5,-57.4 78.5,-57.4"/>
</g>
</g>
</svg>
