<?xml version="1.0" encoding="UTF-8" standalone="no"?>
<!DOCTYPE svg PUBLIC "-//W3C//DTD SVG 1.1//EN"
 "http://www.w3.org/Graphics/SVG/1.1/DTD/svg11.dtd">
<!-- Generated by graphviz version 2.43.0 (0)
 -->
<!-- Title: itkGradientRecursiveGaussianImageFilter.h Pages: 1 -->
<svg width="4229pt" height="374pt"
 viewBox="0.00 0.00 4229.00 374.00" xmlns="http://www.w3.org/2000/svg" xmlns:xlink="http://www.w3.org/1999/xlink">
<g id="graph0" class="graph" transform="scale(1 1) rotate(0) translate(4 370)">
<title>itkGradientRecursiveGaussianImageFilter.h</title>
<polygon fill="white" stroke="transparent" points="-4,4 -4,-370 4225,-370 4225,4 -4,4"/>
<!-- Node1 -->
<g id="node1" class="node">
<title>Node1</title>
<g id="a_node1"><a xlink:title=" ">
<polygon fill="#bfbfbf" stroke="black" points="3068.5,-335.5 3068.5,-365.5 3232.5,-365.5 3232.5,-335.5 3068.5,-335.5"/>
<text text-anchor="start" x="3076.5" y="-353.5" font-family="Helvetica,sans-Serif" font-size="10.00">itkGradientRecursiveGaussian</text>
<text text-anchor="middle" x="3150.5" y="-342.5" font-family="Helvetica,sans-Serif" font-size="10.00">ImageFilter.h</text>
</a>
</g>
</g>
<!-- Node2 -->
<g id="node2" class="node">
<title>Node2</title>
<g id="a_node2"><a xlink:href="itkImageToImageMetric_8h.html" target="_top" xlink:title=" ">
<polygon fill="white" stroke="black" points="1341,-274 1341,-293 1482,-293 1482,-274 1341,-274"/>
<text text-anchor="middle" x="1411.5" y="-281" font-family="Helvetica,sans-Serif" font-size="10.00">itkImageToImageMetric.h</text>
</a>
</g>
</g>
<!-- Node1&#45;&gt;Node2 -->
<g id="edge1" class="edge">
<title>Node1&#45;&gt;Node2</title>
<path fill="none" stroke="midnightblue" d="M3058.12,-346.05C2749.16,-334.5 1756.01,-297.38 1482.06,-287.14"/>
<polygon fill="midnightblue" stroke="midnightblue" points="3058.25,-349.55 3068.38,-346.43 3058.51,-342.56 3058.25,-349.55"/>
</g>
<!-- Node21 -->
<g id="node21" class="node">
<title>Node21</title>
<g id="a_node21"><a xlink:href="itkPointSetToPointSetMetric_8h.html" target="_top" xlink:title=" ">
<polygon fill="white" stroke="black" points="2518,-274 2518,-293 2679,-293 2679,-274 2518,-274"/>
<text text-anchor="middle" x="2598.5" y="-281" font-family="Helvetica,sans-Serif" font-size="10.00">itkPointSetToPointSetMetric.h</text>
</a>
</g>
</g>
<!-- Node1&#45;&gt;Node21 -->
<g id="edge20" class="edge">
<title>Node1&#45;&gt;Node21</title>
<path fill="none" stroke="midnightblue" d="M3058.46,-338.66C2949.52,-325.83 2770.38,-304.74 2670.86,-293.02"/>
<polygon fill="midnightblue" stroke="midnightblue" points="3058.12,-342.15 3068.46,-339.84 3058.93,-335.19 3058.12,-342.15"/>
</g>
<!-- Node24 -->
<g id="node24" class="node">
<title>Node24</title>
<g id="a_node24"><a xlink:href="itkPointSetToImageMetric_8h.html" target="_top" xlink:title=" ">
<polygon fill="white" stroke="black" points="3075,-274 3075,-293 3226,-293 3226,-274 3075,-274"/>
<text text-anchor="middle" x="3150.5" y="-281" font-family="Helvetica,sans-Serif" font-size="10.00">itkPointSetToImageMetric.h</text>
</a>
</g>
</g>
<!-- Node1&#45;&gt;Node24 -->
<g id="edge23" class="edge">
<title>Node1&#45;&gt;Node24</title>
<path fill="none" stroke="midnightblue" d="M3150.5,-325.25C3150.5,-314.02 3150.5,-301.38 3150.5,-293.19"/>
<polygon fill="midnightblue" stroke="midnightblue" points="3147,-325.4 3150.5,-335.4 3154,-325.4 3147,-325.4"/>
</g>
<!-- Node30 -->
<g id="node30" class="node">
<title>Node30</title>
<g id="a_node30"><a xlink:href="itkDefaultImageToImageMetricTraitsv4_8h.html" target="_top" xlink:title=" ">
<polygon fill="white" stroke="black" points="3413.5,-268.5 3413.5,-298.5 3581.5,-298.5 3581.5,-268.5 3413.5,-268.5"/>
<text text-anchor="start" x="3421.5" y="-286.5" font-family="Helvetica,sans-Serif" font-size="10.00">itkDefaultImageToImageMetric</text>
<text text-anchor="middle" x="3497.5" y="-275.5" font-family="Helvetica,sans-Serif" font-size="10.00">Traitsv4.h</text>
</a>
</g>
</g>
<!-- Node1&#45;&gt;Node30 -->
<g id="edge29" class="edge">
<title>Node1&#45;&gt;Node30</title>
<path fill="none" stroke="midnightblue" d="M3235.47,-333.58C3292.69,-322.86 3367.45,-308.86 3422.47,-298.55"/>
<polygon fill="midnightblue" stroke="midnightblue" points="3234.55,-330.19 3225.37,-335.48 3235.84,-337.07 3234.55,-330.19"/>
</g>
<!-- Node43 -->
<g id="node43" class="node">
<title>Node43</title>
<g id="a_node43"><a xlink:href="itkVectorImageToImageMetricTraitsv4_8h.html" target="_top" xlink:title=" ">
<polygon fill="white" stroke="black" points="3600,-268.5 3600,-298.5 3763,-298.5 3763,-268.5 3600,-268.5"/>
<text text-anchor="start" x="3608" y="-286.5" font-family="Helvetica,sans-Serif" font-size="10.00">itkVectorImageToImageMetric</text>
<text text-anchor="middle" x="3681.5" y="-275.5" font-family="Helvetica,sans-Serif" font-size="10.00">Traitsv4.h</text>
</a>
</g>
</g>
<!-- Node1&#45;&gt;Node43 -->
<g id="edge43" class="edge">
<title>Node1&#45;&gt;Node43</title>
<path fill="none" stroke="midnightblue" d="M3242.62,-340.11C3331.74,-330.75 3470.57,-315.43 3590.5,-299 3593.51,-298.59 3596.58,-298.16 3599.67,-297.71"/>
<polygon fill="midnightblue" stroke="midnightblue" points="3242.12,-336.65 3232.54,-341.17 3242.85,-343.61 3242.12,-336.65"/>
</g>
<!-- Node3 -->
<g id="node3" class="node">
<title>Node3</title>
<g id="a_node3"><a xlink:href="itkHistogramImageToImageMetric_8h.html" target="_top" xlink:title=" ">
<polygon fill="white" stroke="black" points="394.5,-201.5 394.5,-231.5 546.5,-231.5 546.5,-201.5 394.5,-201.5"/>
<text text-anchor="start" x="402.5" y="-219.5" font-family="Helvetica,sans-Serif" font-size="10.00">itkHistogramImageToImage</text>
<text text-anchor="middle" x="470.5" y="-208.5" font-family="Helvetica,sans-Serif" font-size="10.00">Metric.h</text>
</a>
</g>
</g>
<!-- Node2&#45;&gt;Node3 -->
<g id="edge2" class="edge">
<title>Node2&#45;&gt;Node3</title>
<path fill="none" stroke="midnightblue" d="M1330.62,-280.69C1178.43,-276.64 839.24,-264.47 555.5,-232 552.67,-231.68 549.8,-231.32 546.9,-230.94"/>
<polygon fill="midnightblue" stroke="midnightblue" points="1330.72,-284.2 1340.81,-280.96 1330.91,-277.2 1330.72,-284.2"/>
</g>
<!-- Node10 -->
<g id="node10" class="node">
<title>Node10</title>
<g id="a_node10"><a xlink:href="itkGradientDifferenceImageToImageMetric_8h.html" target="_top" xlink:title=" ">
<polygon fill="white" stroke="black" points="564.5,-201.5 564.5,-231.5 716.5,-231.5 716.5,-201.5 564.5,-201.5"/>
<text text-anchor="start" x="572.5" y="-219.5" font-family="Helvetica,sans-Serif" font-size="10.00">itkGradientDifferenceImage</text>
<text text-anchor="middle" x="640.5" y="-208.5" font-family="Helvetica,sans-Serif" font-size="10.00">ToImageMetric.h</text>
</a>
</g>
</g>
<!-- Node2&#45;&gt;Node10 -->
<g id="edge9" class="edge">
<title>Node2&#45;&gt;Node10</title>
<path fill="none" stroke="midnightblue" d="M1330.52,-279.05C1201.94,-273 943.35,-258.54 725.5,-232 722.68,-231.66 719.8,-231.28 716.91,-230.89"/>
<polygon fill="midnightblue" stroke="midnightblue" points="1330.52,-282.55 1340.67,-279.52 1330.85,-275.56 1330.52,-282.55"/>
</g>
<!-- Node11 -->
<g id="node11" class="node">
<title>Node11</title>
<g id="a_node11"><a xlink:href="itkImageRegistrationMethod_8h.html" target="_top" xlink:title=" ">
<polygon fill="white" stroke="black" points="735,-207 735,-226 900,-226 900,-207 735,-207"/>
<text text-anchor="middle" x="817.5" y="-214" font-family="Helvetica,sans-Serif" font-size="10.00">itkImageRegistrationMethod.h</text>
</a>
</g>
</g>
<!-- Node2&#45;&gt;Node11 -->
<g id="edge10" class="edge">
<title>Node2&#45;&gt;Node11</title>
<path fill="none" stroke="midnightblue" d="M1330.98,-275.86C1231.52,-267.33 1057.23,-251.3 908.5,-232 895.33,-230.29 881.14,-228.17 867.97,-226.07"/>
<polygon fill="midnightblue" stroke="midnightblue" points="1330.7,-279.35 1340.96,-276.72 1331.29,-272.38 1330.7,-279.35"/>
</g>
<!-- Node12 -->
<g id="node12" class="node">
<title>Node12</title>
<g id="a_node12"><a xlink:href="itkKappaStatisticImageToImageMetric_8h.html" target="_top" xlink:title=" ">
<polygon fill="white" stroke="black" points="918,-201.5 918,-231.5 1059,-231.5 1059,-201.5 918,-201.5"/>
<text text-anchor="start" x="926" y="-219.5" font-family="Helvetica,sans-Serif" font-size="10.00">itkKappaStatisticImageTo</text>
<text text-anchor="middle" x="988.5" y="-208.5" font-family="Helvetica,sans-Serif" font-size="10.00">ImageMetric.h</text>
</a>
</g>
</g>
<!-- Node2&#45;&gt;Node12 -->
<g id="edge11" class="edge">
<title>Node2&#45;&gt;Node12</title>
<path fill="none" stroke="midnightblue" d="M1338.62,-272.57C1268.91,-262.89 1160.88,-247.42 1067.5,-232 1064.75,-231.55 1061.94,-231.07 1059.11,-230.59"/>
<polygon fill="midnightblue" stroke="midnightblue" points="1338.24,-276.05 1348.62,-273.96 1339.2,-269.12 1338.24,-276.05"/>
</g>
<!-- Node13 -->
<g id="node13" class="node">
<title>Node13</title>
<g id="a_node13"><a xlink:href="itkMatchCardinalityImageToImageMetric_8h.html" target="_top" xlink:title=" ">
<polygon fill="white" stroke="black" points="1077,-201.5 1077,-231.5 1220,-231.5 1220,-201.5 1077,-201.5"/>
<text text-anchor="start" x="1085" y="-219.5" font-family="Helvetica,sans-Serif" font-size="10.00">itkMatchCardinalityImage</text>
<text text-anchor="middle" x="1148.5" y="-208.5" font-family="Helvetica,sans-Serif" font-size="10.00">ToImageMetric.h</text>
</a>
</g>
</g>
<!-- Node2&#45;&gt;Node13 -->
<g id="edge12" class="edge">
<title>Node2&#45;&gt;Node13</title>
<path fill="none" stroke="midnightblue" d="M1366.9,-271.48C1322.38,-260.47 1253.8,-243.52 1205.39,-231.56"/>
<polygon fill="midnightblue" stroke="midnightblue" points="1366.3,-274.93 1376.85,-273.94 1367.98,-268.14 1366.3,-274.93"/>
</g>
<!-- Node14 -->
<g id="node14" class="node">
<title>Node14</title>
<g id="a_node14"><a xlink:href="itkMattesMutualInformationImageToImageMetric_8h.html" target="_top" xlink:title=" ">
<polygon fill="white" stroke="black" points="1238.5,-201.5 1238.5,-231.5 1392.5,-231.5 1392.5,-201.5 1238.5,-201.5"/>
<text text-anchor="start" x="1246.5" y="-219.5" font-family="Helvetica,sans-Serif" font-size="10.00">itkMattesMutualInformation</text>
<text text-anchor="middle" x="1315.5" y="-208.5" font-family="Helvetica,sans-Serif" font-size="10.00">ImageToImageMetric.h</text>
</a>
</g>
</g>
<!-- Node2&#45;&gt;Node14 -->
<g id="edge13" class="edge">
<title>Node2&#45;&gt;Node14</title>
<path fill="none" stroke="midnightblue" d="M1389.86,-267.85C1373.84,-257 1352.13,-242.3 1336.31,-231.59"/>
<polygon fill="midnightblue" stroke="midnightblue" points="1388.31,-271.03 1398.55,-273.73 1392.23,-265.23 1388.31,-271.03"/>
</g>
<!-- Node15 -->
<g id="node15" class="node">
<title>Node15</title>
<g id="a_node15"><a xlink:href="itkMeanReciprocalSquareDifferenceImageToImageMetric_8h.html" target="_top" xlink:title=" ">
<polygon fill="white" stroke="black" points="1411,-201.5 1411,-231.5 1602,-231.5 1602,-201.5 1411,-201.5"/>
<text text-anchor="start" x="1419" y="-219.5" font-family="Helvetica,sans-Serif" font-size="10.00">itkMeanReciprocalSquareDifference</text>
<text text-anchor="middle" x="1506.5" y="-208.5" font-family="Helvetica,sans-Serif" font-size="10.00">ImageToImageMetric.h</text>
</a>
</g>
</g>
<!-- Node2&#45;&gt;Node15 -->
<g id="edge14" class="edge">
<title>Node2&#45;&gt;Node15</title>
<path fill="none" stroke="midnightblue" d="M1432.91,-267.85C1448.77,-257 1470.25,-242.3 1485.91,-231.59"/>
<polygon fill="midnightblue" stroke="midnightblue" points="1430.59,-265.2 1424.31,-273.73 1434.54,-270.98 1430.59,-265.2"/>
</g>
<!-- Node16 -->
<g id="node16" class="node">
<title>Node16</title>
<g id="a_node16"><a xlink:href="itkMeanSquaresImageToImageMetric_8h.html" target="_top" xlink:title=" ">
<polygon fill="white" stroke="black" points="1620,-201.5 1620,-231.5 1787,-231.5 1787,-201.5 1620,-201.5"/>
<text text-anchor="start" x="1628" y="-219.5" font-family="Helvetica,sans-Serif" font-size="10.00">itkMeanSquaresImageToImage</text>
<text text-anchor="middle" x="1703.5" y="-208.5" font-family="Helvetica,sans-Serif" font-size="10.00">Metric.h</text>
</a>
</g>
</g>
<!-- Node2&#45;&gt;Node16 -->
<g id="edge15" class="edge">
<title>Node2&#45;&gt;Node16</title>
<path fill="none" stroke="midnightblue" d="M1459.77,-271.75C1509.16,-260.76 1586.14,-243.63 1640.34,-231.56"/>
<polygon fill="midnightblue" stroke="midnightblue" points="1458.97,-268.35 1449.97,-273.94 1460.5,-275.18 1458.97,-268.35"/>
</g>
<!-- Node17 -->
<g id="node17" class="node">
<title>Node17</title>
<g id="a_node17"><a xlink:href="itkMultiResolutionImageRegistrationMethod_8h.html" target="_top" xlink:title=" ">
<polygon fill="white" stroke="black" points="1804.5,-201.5 1804.5,-231.5 2000.5,-231.5 2000.5,-201.5 1804.5,-201.5"/>
<text text-anchor="start" x="1812.5" y="-219.5" font-family="Helvetica,sans-Serif" font-size="10.00">itkMultiResolutionImageRegistration</text>
<text text-anchor="middle" x="1902.5" y="-208.5" font-family="Helvetica,sans-Serif" font-size="10.00">Method.h</text>
</a>
</g>
</g>
<!-- Node2&#45;&gt;Node17 -->
<g id="edge16" class="edge">
<title>Node2&#45;&gt;Node17</title>
<path fill="none" stroke="midnightblue" d="M1487.23,-272.63C1564.69,-262.51 1688.5,-246.29 1795.5,-232 1798.38,-231.62 1801.3,-231.22 1804.25,-230.83"/>
<polygon fill="midnightblue" stroke="midnightblue" points="1486.54,-269.19 1477.08,-273.96 1487.45,-276.13 1486.54,-269.19"/>
</g>
<!-- Node19 -->
<g id="node19" class="node">
<title>Node19</title>
<g id="a_node19"><a xlink:href="itkMutualInformationImageToImageMetric_8h.html" target="_top" xlink:title=" ">
<polygon fill="white" stroke="black" points="2019,-201.5 2019,-231.5 2170,-231.5 2170,-201.5 2019,-201.5"/>
<text text-anchor="start" x="2027" y="-219.5" font-family="Helvetica,sans-Serif" font-size="10.00">itkMutualInformationImage</text>
<text text-anchor="middle" x="2094.5" y="-208.5" font-family="Helvetica,sans-Serif" font-size="10.00">ToImageMetric.h</text>
</a>
</g>
</g>
<!-- Node2&#45;&gt;Node19 -->
<g id="edge18" class="edge">
<title>Node2&#45;&gt;Node19</title>
<path fill="none" stroke="midnightblue" d="M1492.27,-277.86C1607.39,-270.75 1825.15,-255.47 2009.5,-232 2012.47,-231.62 2015.49,-231.21 2018.55,-230.78"/>
<polygon fill="midnightblue" stroke="midnightblue" points="1491.9,-274.37 1482.13,-278.48 1492.32,-281.36 1491.9,-274.37"/>
</g>
<!-- Node20 -->
<g id="node20" class="node">
<title>Node20</title>
<g id="a_node20"><a xlink:href="itkNormalizedCorrelationImageToImageMetric_8h.html" target="_top" xlink:title=" ">
<polygon fill="white" stroke="black" points="2188.5,-201.5 2188.5,-231.5 2328.5,-231.5 2328.5,-201.5 2188.5,-201.5"/>
<text text-anchor="start" x="2196.5" y="-219.5" font-family="Helvetica,sans-Serif" font-size="10.00">itkNormalizedCorrelation</text>
<text text-anchor="middle" x="2258.5" y="-208.5" font-family="Helvetica,sans-Serif" font-size="10.00">ImageToImageMetric.h</text>
</a>
</g>
</g>
<!-- Node2&#45;&gt;Node20 -->
<g id="edge19" class="edge">
<title>Node2&#45;&gt;Node20</title>
<path fill="none" stroke="midnightblue" d="M1492.3,-280.2C1632.43,-275.53 1929.44,-262.67 2178.5,-232 2181.72,-231.6 2185.01,-231.16 2188.33,-230.68"/>
<polygon fill="midnightblue" stroke="midnightblue" points="1491.95,-276.71 1482.07,-280.53 1492.18,-283.7 1491.95,-276.71"/>
</g>
<!-- Node4 -->
<g id="node4" class="node">
<title>Node4</title>
<g id="a_node4"><a xlink:href="itkCompareHistogramImageToImageMetric_8h.html" target="_top" xlink:title=" ">
<polygon fill="white" stroke="black" points="12,-134.5 12,-164.5 167,-164.5 167,-134.5 12,-134.5"/>
<text text-anchor="start" x="20" y="-152.5" font-family="Helvetica,sans-Serif" font-size="10.00">itkCompareHistogramImage</text>
<text text-anchor="middle" x="89.5" y="-141.5" font-family="Helvetica,sans-Serif" font-size="10.00">ToImageMetric.h</text>
</a>
</g>
</g>
<!-- Node3&#45;&gt;Node4 -->
<g id="edge3" class="edge">
<title>Node3&#45;&gt;Node4</title>
<path fill="none" stroke="midnightblue" d="M384.06,-200.75C318.84,-189.63 230.16,-174.5 167.19,-163.75"/>
<polygon fill="midnightblue" stroke="midnightblue" points="383.87,-204.27 394.31,-202.5 385.05,-197.37 383.87,-204.27"/>
</g>
<!-- Node6 -->
<g id="node6" class="node">
<title>Node6</title>
<g id="a_node6"><a xlink:href="itkCorrelationCoefficientHistogramImageToImageMetric_8h.html" target="_top" xlink:title=" ">
<polygon fill="white" stroke="black" points="185,-134.5 185,-164.5 364,-164.5 364,-134.5 185,-134.5"/>
<text text-anchor="start" x="193" y="-152.5" font-family="Helvetica,sans-Serif" font-size="10.00">itkCorrelationCoefficient</text>
<text text-anchor="middle" x="274.5" y="-141.5" font-family="Helvetica,sans-Serif" font-size="10.00">HistogramImageToImageMetric.h</text>
</a>
</g>
</g>
<!-- Node3&#45;&gt;Node6 -->
<g id="edge5" class="edge">
<title>Node3&#45;&gt;Node6</title>
<path fill="none" stroke="midnightblue" d="M418.42,-198.23C386.71,-187.71 346.72,-174.45 316.95,-164.58"/>
<polygon fill="midnightblue" stroke="midnightblue" points="417.38,-201.57 427.97,-201.4 419.58,-194.93 417.38,-201.57"/>
</g>
<!-- Node7 -->
<g id="node7" class="node">
<title>Node7</title>
<g id="a_node7"><a xlink:href="itkMeanSquaresHistogramImageToImageMetric_8h.html" target="_top" xlink:title=" ">
<polygon fill="white" stroke="black" points="382,-134.5 382,-164.5 559,-164.5 559,-134.5 382,-134.5"/>
<text text-anchor="start" x="390" y="-152.5" font-family="Helvetica,sans-Serif" font-size="10.00">itkMeanSquaresHistogramImage</text>
<text text-anchor="middle" x="470.5" y="-141.5" font-family="Helvetica,sans-Serif" font-size="10.00">ToImageMetric.h</text>
</a>
</g>
</g>
<!-- Node3&#45;&gt;Node7 -->
<g id="edge6" class="edge">
<title>Node3&#45;&gt;Node7</title>
<path fill="none" stroke="midnightblue" d="M470.5,-191.11C470.5,-182.15 470.5,-172.32 470.5,-164.58"/>
<polygon fill="midnightblue" stroke="midnightblue" points="467,-191.4 470.5,-201.4 474,-191.4 467,-191.4"/>
</g>
<!-- Node8 -->
<g id="node8" class="node">
<title>Node8</title>
<g id="a_node8"><a xlink:href="itkMutualInformationHistogramImageToImageMetric_8h.html" target="_top" xlink:title=" ">
<polygon fill="white" stroke="black" points="577,-134.5 577,-164.5 748,-164.5 748,-134.5 577,-134.5"/>
<text text-anchor="start" x="585" y="-152.5" font-family="Helvetica,sans-Serif" font-size="10.00">itkMutualInformationHistogram</text>
<text text-anchor="middle" x="662.5" y="-141.5" font-family="Helvetica,sans-Serif" font-size="10.00">ImageToImageMetric.h</text>
</a>
</g>
</g>
<!-- Node3&#45;&gt;Node8 -->
<g id="edge7" class="edge">
<title>Node3&#45;&gt;Node8</title>
<path fill="none" stroke="midnightblue" d="M521.92,-198.09C552.92,-187.6 591.88,-174.41 620.92,-164.58"/>
<polygon fill="midnightblue" stroke="midnightblue" points="520.51,-194.87 512.16,-201.4 522.76,-201.5 520.51,-194.87"/>
</g>
<!-- Node9 -->
<g id="node9" class="node">
<title>Node9</title>
<g id="a_node9"><a xlink:href="itkNormalizedMutualInformationHistogramImageToImageMetric_8h.html" target="_top" xlink:title=" ">
<polygon fill="white" stroke="black" points="766,-134.5 766,-164.5 945,-164.5 945,-134.5 766,-134.5"/>
<text text-anchor="start" x="774" y="-152.5" font-family="Helvetica,sans-Serif" font-size="10.00">itkNormalizedMutualInformation</text>
<text text-anchor="middle" x="855.5" y="-141.5" font-family="Helvetica,sans-Serif" font-size="10.00">HistogramImageToImageMetric.h</text>
</a>
</g>
</g>
<!-- Node3&#45;&gt;Node9 -->
<g id="edge8" class="edge">
<title>Node3&#45;&gt;Node9</title>
<path fill="none" stroke="midnightblue" d="M557,-200.75C635.31,-187.48 714.05,-174.24 771.76,-164.55"/>
<polygon fill="midnightblue" stroke="midnightblue" points="556.23,-197.33 546.95,-202.45 557.4,-204.23 556.23,-197.33"/>
</g>
<!-- Node5 -->
<g id="node5" class="node">
<title>Node5</title>
<g id="a_node5"><a xlink:href="itkKullbackLeiblerCompareHistogramImageToImageMetric_8h.html" target="_top" xlink:title=" ">
<polygon fill="white" stroke="black" points="0,-67.5 0,-97.5 179,-97.5 179,-67.5 0,-67.5"/>
<text text-anchor="start" x="8" y="-85.5" font-family="Helvetica,sans-Serif" font-size="10.00">itkKullbackLeiblerCompare</text>
<text text-anchor="middle" x="89.5" y="-74.5" font-family="Helvetica,sans-Serif" font-size="10.00">HistogramImageToImageMetric.h</text>
</a>
</g>
</g>
<!-- Node4&#45;&gt;Node5 -->
<g id="edge4" class="edge">
<title>Node4&#45;&gt;Node5</title>
<path fill="none" stroke="midnightblue" d="M89.5,-124.11C89.5,-115.15 89.5,-105.32 89.5,-97.58"/>
<polygon fill="midnightblue" stroke="midnightblue" points="86,-124.4 89.5,-134.4 93,-124.4 86,-124.4"/>
</g>
<!-- Node18 -->
<g id="node18" class="node">
<title>Node18</title>
<g id="a_node18"><a xlink:href="itkSimpleMultiResolutionImageRegistrationUI_8h.html" target="_top" xlink:title=" ">
<polygon fill="white" stroke="black" points="1832.5,-134.5 1832.5,-164.5 1972.5,-164.5 1972.5,-134.5 1832.5,-134.5"/>
<text text-anchor="start" x="1840.5" y="-152.5" font-family="Helvetica,sans-Serif" font-size="10.00">itkSimpleMultiResolution</text>
<text text-anchor="middle" x="1902.5" y="-141.5" font-family="Helvetica,sans-Serif" font-size="10.00">ImageRegistrationUI.h</text>
</a>
</g>
</g>
<!-- Node17&#45;&gt;Node18 -->
<g id="edge17" class="edge">
<title>Node17&#45;&gt;Node18</title>
<path fill="none" stroke="midnightblue" d="M1902.5,-191.11C1902.5,-182.15 1902.5,-172.32 1902.5,-164.58"/>
<polygon fill="midnightblue" stroke="midnightblue" points="1899,-191.4 1902.5,-201.4 1906,-191.4 1899,-191.4"/>
</g>
<!-- Node22 -->
<g id="node22" class="node">
<title>Node22</title>
<g id="a_node22"><a xlink:href="itkEuclideanDistancePointMetric_8h.html" target="_top" xlink:title=" ">
<polygon fill="white" stroke="black" points="2346.5,-201.5 2346.5,-231.5 2490.5,-231.5 2490.5,-201.5 2346.5,-201.5"/>
<text text-anchor="start" x="2354.5" y="-219.5" font-family="Helvetica,sans-Serif" font-size="10.00">itkEuclideanDistancePoint</text>
<text text-anchor="middle" x="2418.5" y="-208.5" font-family="Helvetica,sans-Serif" font-size="10.00">Metric.h</text>
</a>
</g>
</g>
<!-- Node21&#45;&gt;Node22 -->
<g id="edge21" class="edge">
<title>Node21&#45;&gt;Node22</title>
<path fill="none" stroke="midnightblue" d="M2564.84,-270.35C2534.33,-259.33 2489.37,-243.09 2457.35,-231.53"/>
<polygon fill="midnightblue" stroke="midnightblue" points="2564,-273.76 2574.6,-273.87 2566.38,-267.18 2564,-273.76"/>
</g>
<!-- Node23 -->
<g id="node23" class="node">
<title>Node23</title>
<g id="a_node23"><a xlink:href="itkPointSetToPointSetRegistrationMethod_8h.html" target="_top" xlink:title=" ">
<polygon fill="white" stroke="black" points="2508.5,-201.5 2508.5,-231.5 2688.5,-231.5 2688.5,-201.5 2508.5,-201.5"/>
<text text-anchor="start" x="2516.5" y="-219.5" font-family="Helvetica,sans-Serif" font-size="10.00">itkPointSetToPointSetRegistration</text>
<text text-anchor="middle" x="2598.5" y="-208.5" font-family="Helvetica,sans-Serif" font-size="10.00">Method.h</text>
</a>
</g>
</g>
<!-- Node21&#45;&gt;Node23 -->
<g id="edge22" class="edge">
<title>Node21&#45;&gt;Node23</title>
<path fill="none" stroke="midnightblue" d="M2598.5,-263.41C2598.5,-253.22 2598.5,-240.9 2598.5,-231.59"/>
<polygon fill="midnightblue" stroke="midnightblue" points="2595,-263.73 2598.5,-273.73 2602,-263.73 2595,-263.73"/>
</g>
<!-- Node25 -->
<g id="node25" class="node">
<title>Node25</title>
<g id="a_node25"><a xlink:href="itkMeanReciprocalSquareDifferencePointSetToImageMetric_8h.html" target="_top" xlink:title=" ">
<polygon fill="white" stroke="black" points="2707,-201.5 2707,-231.5 2898,-231.5 2898,-201.5 2707,-201.5"/>
<text text-anchor="start" x="2715" y="-219.5" font-family="Helvetica,sans-Serif" font-size="10.00">itkMeanReciprocalSquareDifference</text>
<text text-anchor="middle" x="2802.5" y="-208.5" font-family="Helvetica,sans-Serif" font-size="10.00">PointSetToImageMetric.h</text>
</a>
</g>
</g>
<!-- Node24&#45;&gt;Node25 -->
<g id="edge24" class="edge">
<title>Node24&#45;&gt;Node25</title>
<path fill="none" stroke="midnightblue" d="M3094.8,-272.1C3036.03,-261.12 2943.05,-243.75 2877.77,-231.56"/>
<polygon fill="midnightblue" stroke="midnightblue" points="3094.17,-275.54 3104.65,-273.94 3095.46,-268.66 3094.17,-275.54"/>
</g>
<!-- Node26 -->
<g id="node26" class="node">
<title>Node26</title>
<g id="a_node26"><a xlink:href="itkMeanSquaresPointSetToImageMetric_8h.html" target="_top" xlink:title=" ">
<polygon fill="white" stroke="black" points="2916.5,-201.5 2916.5,-231.5 3062.5,-231.5 3062.5,-201.5 2916.5,-201.5"/>
<text text-anchor="start" x="2924.5" y="-219.5" font-family="Helvetica,sans-Serif" font-size="10.00">itkMeanSquaresPointSetTo</text>
<text text-anchor="middle" x="2989.5" y="-208.5" font-family="Helvetica,sans-Serif" font-size="10.00">ImageMetric.h</text>
</a>
</g>
</g>
<!-- Node24&#45;&gt;Node26 -->
<g id="edge25" class="edge">
<title>Node24&#45;&gt;Node26</title>
<path fill="none" stroke="midnightblue" d="M3119.68,-270.06C3092.41,-259.05 3052.64,-242.99 3024.25,-231.53"/>
<polygon fill="midnightblue" stroke="midnightblue" points="3118.54,-273.37 3129.12,-273.87 3121.16,-266.88 3118.54,-273.37"/>
</g>
<!-- Node27 -->
<g id="node27" class="node">
<title>Node27</title>
<g id="a_node27"><a xlink:href="itkNormalizedCorrelationPointSetToImageMetric_8h.html" target="_top" xlink:title=" ">
<polygon fill="white" stroke="black" points="3080.5,-201.5 3080.5,-231.5 3220.5,-231.5 3220.5,-201.5 3080.5,-201.5"/>
<text text-anchor="start" x="3088.5" y="-219.5" font-family="Helvetica,sans-Serif" font-size="10.00">itkNormalizedCorrelation</text>
<text text-anchor="middle" x="3150.5" y="-208.5" font-family="Helvetica,sans-Serif" font-size="10.00">PointSetToImageMetric.h</text>
</a>
</g>
</g>
<!-- Node24&#45;&gt;Node27 -->
<g id="edge26" class="edge">
<title>Node24&#45;&gt;Node27</title>
<path fill="none" stroke="midnightblue" d="M3150.5,-263.41C3150.5,-253.22 3150.5,-240.9 3150.5,-231.59"/>
<polygon fill="midnightblue" stroke="midnightblue" points="3147,-263.73 3150.5,-273.73 3154,-263.73 3147,-263.73"/>
</g>
<!-- Node28 -->
<g id="node28" class="node">
<title>Node28</title>
<g id="a_node28"><a xlink:href="itkPointSetToImageRegistrationMethod_8h.html" target="_top" xlink:title=" ">
<polygon fill="white" stroke="black" points="3238.5,-201.5 3238.5,-231.5 3408.5,-231.5 3408.5,-201.5 3238.5,-201.5"/>
<text text-anchor="start" x="3246.5" y="-219.5" font-family="Helvetica,sans-Serif" font-size="10.00">itkPointSetToImageRegistration</text>
<text text-anchor="middle" x="3323.5" y="-208.5" font-family="Helvetica,sans-Serif" font-size="10.00">Method.h</text>
</a>
</g>
</g>
<!-- Node24&#45;&gt;Node28 -->
<g id="edge27" class="edge">
<title>Node24&#45;&gt;Node28</title>
<path fill="none" stroke="midnightblue" d="M3182.85,-270.35C3212.17,-259.33 3255.38,-243.09 3286.16,-231.53"/>
<polygon fill="midnightblue" stroke="midnightblue" points="3181.6,-267.07 3173.47,-273.87 3184.07,-273.63 3181.6,-267.07"/>
</g>
<!-- Node29 -->
<g id="node29" class="node">
<title>Node29</title>
<g id="a_node29"><a xlink:href="itkPointSetToSpatialObjectDemonsRegistration_8h.html" target="_top" xlink:title=" ">
<polygon fill="white" stroke="black" points="3426.5,-201.5 3426.5,-231.5 3572.5,-231.5 3572.5,-201.5 3426.5,-201.5"/>
<text text-anchor="start" x="3434.5" y="-219.5" font-family="Helvetica,sans-Serif" font-size="10.00">itkPointSetToSpatialObject</text>
<text text-anchor="middle" x="3499.5" y="-208.5" font-family="Helvetica,sans-Serif" font-size="10.00">DemonsRegistration.h</text>
</a>
</g>
</g>
<!-- Node24&#45;&gt;Node29 -->
<g id="edge28" class="edge">
<title>Node24&#45;&gt;Node29</title>
<path fill="none" stroke="midnightblue" d="M3206.47,-272.08C3266.12,-260.97 3360.8,-243.33 3426.32,-231.13"/>
<polygon fill="midnightblue" stroke="midnightblue" points="3205.67,-268.66 3196.48,-273.94 3206.96,-275.55 3205.67,-268.66"/>
</g>
<!-- Node31 -->
<g id="node31" class="node">
<title>Node31</title>
<g id="a_node31"><a xlink:href="itkImageToImageMetricv4_8h.html" target="_top" xlink:title=" ">
<polygon fill="white" stroke="black" points="3591,-207 3591,-226 3744,-226 3744,-207 3591,-207"/>
<text text-anchor="middle" x="3667.5" y="-214" font-family="Helvetica,sans-Serif" font-size="10.00">itkImageToImageMetricv4.h</text>
</a>
</g>
</g>
<!-- Node30&#45;&gt;Node31 -->
<g id="edge30" class="edge">
<title>Node30&#45;&gt;Node31</title>
<path fill="none" stroke="midnightblue" d="M3543.83,-264.78C3576.8,-252.18 3619.62,-235.81 3645.25,-226.01"/>
<polygon fill="midnightblue" stroke="midnightblue" points="3542.48,-261.56 3534.39,-268.4 3544.98,-268.09 3542.48,-261.56"/>
</g>
<!-- Node37 -->
<g id="node37" class="node">
<title>Node37</title>
<g id="a_node37"><a xlink:href="itkMeanSquaresImageToImageMetricv4_8h.html" target="_top" xlink:title=" ">
<polygon fill="white" stroke="black" points="4054,-134.5 4054,-164.5 4221,-164.5 4221,-134.5 4054,-134.5"/>
<text text-anchor="start" x="4062" y="-152.5" font-family="Helvetica,sans-Serif" font-size="10.00">itkMeanSquaresImageToImage</text>
<text text-anchor="middle" x="4137.5" y="-141.5" font-family="Helvetica,sans-Serif" font-size="10.00">Metricv4.h</text>
</a>
</g>
</g>
<!-- Node30&#45;&gt;Node37 -->
<g id="edge42" class="edge">
<title>Node30&#45;&gt;Node37</title>
<path fill="none" stroke="midnightblue" d="M3579.66,-266.51C3629.66,-256.71 3694.8,-243.82 3752.5,-232 3865.11,-208.93 3996,-180.98 4072.5,-164.53"/>
<polygon fill="midnightblue" stroke="midnightblue" points="3578.69,-263.14 3569.54,-268.49 3580.03,-270.01 3578.69,-263.14"/>
</g>
<!-- Node32 -->
<g id="node32" class="node">
<title>Node32</title>
<g id="a_node32"><a xlink:href="itkANTSNeighborhoodCorrelationImageToImageMetricv4_8h.html" target="_top" xlink:title=" ">
<polygon fill="white" stroke="black" points="2892.5,-134.5 2892.5,-164.5 3070.5,-164.5 3070.5,-134.5 2892.5,-134.5"/>
<text text-anchor="start" x="2900.5" y="-152.5" font-family="Helvetica,sans-Serif" font-size="10.00">itkANTSNeighborhoodCorrelation</text>
<text text-anchor="middle" x="2981.5" y="-141.5" font-family="Helvetica,sans-Serif" font-size="10.00">ImageToImageMetricv4.h</text>
</a>
</g>
</g>
<!-- Node31&#45;&gt;Node32 -->
<g id="edge31" class="edge">
<title>Node31&#45;&gt;Node32</title>
<path fill="none" stroke="midnightblue" d="M3611.75,-205.3C3601.71,-203.69 3591.31,-202.18 3581.5,-201 3359.41,-174.38 3301.85,-189.39 3079.5,-165 3076.59,-164.68 3073.64,-164.34 3070.66,-163.98"/>
<polygon fill="midnightblue" stroke="midnightblue" points="3611.21,-208.76 3621.65,-206.94 3612.35,-201.86 3611.21,-208.76"/>
</g>
<!-- Node33 -->
<g id="node33" class="node">
<title>Node33</title>
<g id="a_node33"><a xlink:href="itkCorrelationImageToImageMetricv4_8h.html" target="_top" xlink:title=" ">
<polygon fill="white" stroke="black" points="3089,-134.5 3089,-164.5 3244,-164.5 3244,-134.5 3089,-134.5"/>
<text text-anchor="start" x="3097" y="-152.5" font-family="Helvetica,sans-Serif" font-size="10.00">itkCorrelationImageToImage</text>
<text text-anchor="middle" x="3166.5" y="-141.5" font-family="Helvetica,sans-Serif" font-size="10.00">Metricv4.h</text>
</a>
</g>
</g>
<!-- Node31&#45;&gt;Node33 -->
<g id="edge32" class="edge">
<title>Node31&#45;&gt;Node33</title>
<path fill="none" stroke="midnightblue" d="M3609.72,-205.29C3600.3,-203.76 3590.64,-202.27 3581.5,-201 3436.24,-180.8 3398.77,-185.06 3253.5,-165 3250.47,-164.58 3247.38,-164.14 3244.26,-163.68"/>
<polygon fill="midnightblue" stroke="midnightblue" points="3609.38,-208.78 3619.81,-206.96 3610.52,-201.87 3609.38,-208.78"/>
</g>
<!-- Node34 -->
<g id="node34" class="node">
<title>Node34</title>
<g id="a_node34"><a xlink:href="itkDemonsImageToImageMetricv4_8h.html" target="_top" xlink:title=" ">
<polygon fill="white" stroke="black" points="3262.5,-140 3262.5,-159 3456.5,-159 3456.5,-140 3262.5,-140"/>
<text text-anchor="middle" x="3359.5" y="-147" font-family="Helvetica,sans-Serif" font-size="10.00">itkDemonsImageToImageMetricv4.h</text>
</a>
</g>
</g>
<!-- Node31&#45;&gt;Node34 -->
<g id="edge33" class="edge">
<title>Node31&#45;&gt;Node34</title>
<path fill="none" stroke="midnightblue" d="M3616.81,-204.8C3556.2,-192.01 3455.96,-170.86 3400.17,-159.08"/>
<polygon fill="midnightblue" stroke="midnightblue" points="3616.41,-208.3 3626.92,-206.94 3617.86,-201.45 3616.41,-208.3"/>
</g>
<!-- Node35 -->
<g id="node35" class="node">
<title>Node35</title>
<g id="a_node35"><a xlink:href="itkJointHistogramMutualInformationImageToImageMetricv4_8h.html" target="_top" xlink:title=" ">
<polygon fill="white" stroke="black" points="3475,-134.5 3475,-164.5 3668,-164.5 3668,-134.5 3475,-134.5"/>
<text text-anchor="start" x="3483" y="-152.5" font-family="Helvetica,sans-Serif" font-size="10.00">itkJointHistogramMutualInformation</text>
<text text-anchor="middle" x="3571.5" y="-141.5" font-family="Helvetica,sans-Serif" font-size="10.00">ImageToImageMetricv4.h</text>
</a>
</g>
</g>
<!-- Node31&#45;&gt;Node35 -->
<g id="edge34" class="edge">
<title>Node31&#45;&gt;Node35</title>
<path fill="none" stroke="midnightblue" d="M3645.86,-200.85C3629.84,-190 3608.13,-175.3 3592.31,-164.59"/>
<polygon fill="midnightblue" stroke="midnightblue" points="3644.31,-204.03 3654.55,-206.73 3648.23,-198.23 3644.31,-204.03"/>
</g>
<!-- Node36 -->
<g id="node36" class="node">
<title>Node36</title>
<g id="a_node36"><a xlink:href="itkMattesMutualInformationImageToImageMetricv4_8h.html" target="_top" xlink:title=" ">
<polygon fill="white" stroke="black" points="3686.5,-134.5 3686.5,-164.5 3840.5,-164.5 3840.5,-134.5 3686.5,-134.5"/>
<text text-anchor="start" x="3694.5" y="-152.5" font-family="Helvetica,sans-Serif" font-size="10.00">itkMattesMutualInformation</text>
<text text-anchor="middle" x="3763.5" y="-141.5" font-family="Helvetica,sans-Serif" font-size="10.00">ImageToImageMetricv4.h</text>
</a>
</g>
</g>
<!-- Node31&#45;&gt;Node36 -->
<g id="edge35" class="edge">
<title>Node31&#45;&gt;Node36</title>
<path fill="none" stroke="midnightblue" d="M3689.14,-200.85C3705.16,-190 3726.87,-175.3 3742.69,-164.59"/>
<polygon fill="midnightblue" stroke="midnightblue" points="3686.77,-198.23 3680.45,-206.73 3690.69,-204.03 3686.77,-198.23"/>
</g>
<!-- Node31&#45;&gt;Node37 -->
<g id="edge36" class="edge">
<title>Node31&#45;&gt;Node37</title>
<path fill="none" stroke="midnightblue" d="M3744.3,-205.7C3820.52,-195.87 3940.68,-180.05 4044.5,-165 4047.57,-164.55 4050.7,-164.1 4053.86,-163.63"/>
<polygon fill="midnightblue" stroke="midnightblue" points="3743.77,-202.24 3734.3,-206.99 3744.66,-209.19 3743.77,-202.24"/>
</g>
<!-- Node38 -->
<g id="node38" class="node">
<title>Node38</title>
<g id="a_node38"><a xlink:href="itkImageRegistrationMethodv4_8h.html" target="_top" xlink:title=" ">
<polygon fill="white" stroke="black" points="3859,-140 3859,-159 4036,-159 4036,-140 3859,-140"/>
<text text-anchor="middle" x="3947.5" y="-147" font-family="Helvetica,sans-Serif" font-size="10.00">itkImageRegistrationMethodv4.h</text>
</a>
</g>
</g>
<!-- Node31&#45;&gt;Node38 -->
<g id="edge37" class="edge">
<title>Node31&#45;&gt;Node38</title>
<path fill="none" stroke="midnightblue" d="M3714.26,-204.64C3769.43,-191.84 3860.01,-170.81 3910.53,-159.08"/>
<polygon fill="midnightblue" stroke="midnightblue" points="3713.34,-201.26 3704.39,-206.94 3714.93,-208.08 3713.34,-201.26"/>
</g>
<!-- Node39 -->
<g id="node39" class="node">
<title>Node39</title>
<g id="a_node39"><a xlink:href="itkSyNImageRegistrationMethod_8h.html" target="_top" xlink:title=" ">
<polygon fill="white" stroke="black" points="3657,-73 3657,-92 3842,-92 3842,-73 3657,-73"/>
<text text-anchor="middle" x="3749.5" y="-80" font-family="Helvetica,sans-Serif" font-size="10.00">itkSyNImageRegistrationMethod.h</text>
</a>
</g>
</g>
<!-- Node38&#45;&gt;Node39 -->
<g id="edge38" class="edge">
<title>Node38&#45;&gt;Node39</title>
<path fill="none" stroke="midnightblue" d="M3911.5,-136.68C3872.26,-123.8 3810.41,-103.5 3775.59,-92.06"/>
<polygon fill="midnightblue" stroke="midnightblue" points="3910.61,-140.07 3921.21,-139.87 3912.8,-133.42 3910.61,-140.07"/>
</g>
<!-- Node41 -->
<g id="node41" class="node">
<title>Node41</title>
<g id="a_node41"><a xlink:href="itkTimeVaryingBSplineVelocityFieldImageRegistrationMethod_8h.html" target="_top" xlink:title=" ">
<polygon fill="white" stroke="black" points="3859.5,-67.5 3859.5,-97.5 4035.5,-97.5 4035.5,-67.5 3859.5,-67.5"/>
<text text-anchor="start" x="3867.5" y="-85.5" font-family="Helvetica,sans-Serif" font-size="10.00">itkTimeVaryingBSplineVelocity</text>
<text text-anchor="middle" x="3947.5" y="-74.5" font-family="Helvetica,sans-Serif" font-size="10.00">FieldImageRegistrationMethod.h</text>
</a>
</g>
</g>
<!-- Node38&#45;&gt;Node41 -->
<g id="edge40" class="edge">
<title>Node38&#45;&gt;Node41</title>
<path fill="none" stroke="midnightblue" d="M3947.5,-129.41C3947.5,-119.22 3947.5,-106.9 3947.5,-97.59"/>
<polygon fill="midnightblue" stroke="midnightblue" points="3944,-129.73 3947.5,-139.73 3951,-129.73 3944,-129.73"/>
</g>
<!-- Node42 -->
<g id="node42" class="node">
<title>Node42</title>
<g id="a_node42"><a xlink:href="itkTimeVaryingVelocityFieldImageRegistrationMethodv4_8h.html" target="_top" xlink:title=" ">
<polygon fill="white" stroke="black" points="4053.5,-67.5 4053.5,-97.5 4217.5,-97.5 4217.5,-67.5 4053.5,-67.5"/>
<text text-anchor="start" x="4061.5" y="-85.5" font-family="Helvetica,sans-Serif" font-size="10.00">itkTimeVaryingVelocityField</text>
<text text-anchor="middle" x="4135.5" y="-74.5" font-family="Helvetica,sans-Serif" font-size="10.00">ImageRegistrationMethodv4.h</text>
</a>
</g>
</g>
<!-- Node38&#45;&gt;Node42 -->
<g id="edge41" class="edge">
<title>Node38&#45;&gt;Node42</title>
<path fill="none" stroke="midnightblue" d="M3982.24,-136.49C4014.11,-125.47 4061.33,-109.14 4094.93,-97.53"/>
<polygon fill="midnightblue" stroke="midnightblue" points="3980.77,-133.29 3972.46,-139.87 3983.06,-139.91 3980.77,-133.29"/>
</g>
<!-- Node40 -->
<g id="node40" class="node">
<title>Node40</title>
<g id="a_node40"><a xlink:href="itkBSplineSyNImageRegistrationMethod_8h.html" target="_top" xlink:title=" ">
<polygon fill="white" stroke="black" points="3661.5,-0.5 3661.5,-30.5 3837.5,-30.5 3837.5,-0.5 3661.5,-0.5"/>
<text text-anchor="start" x="3669.5" y="-18.5" font-family="Helvetica,sans-Serif" font-size="10.00">itkBSplineSyNImageRegistration</text>
<text text-anchor="middle" x="3749.5" y="-7.5" font-family="Helvetica,sans-Serif" font-size="10.00">Method.h</text>
</a>
</g>
</g>
<!-- Node39&#45;&gt;Node40 -->
<g id="edge39" class="edge">
<title>Node39&#45;&gt;Node40</title>
<path fill="none" stroke="midnightblue" d="M3749.5,-62.41C3749.5,-52.22 3749.5,-39.9 3749.5,-30.59"/>
<polygon fill="midnightblue" stroke="midnightblue" points="3746,-62.73 3749.5,-72.73 3753,-62.73 3746,-62.73"/>
</g>
</g>
</svg>
