<?xml version="1.0" encoding="UTF-8" standalone="no"?>
<!DOCTYPE svg PUBLIC "-//W3C//DTD SVG 1.1//EN"
 "http://www.w3.org/Graphics/SVG/1.1/DTD/svg11.dtd">
<!-- Generated by graphviz version 2.43.0 (0)
 -->
<!-- Title: itkKLMSegmentationRegion.h Pages: 1 -->
<svg width="1413pt" height="711pt"
 viewBox="0.00 0.00 1413.00 711.00" xmlns="http://www.w3.org/2000/svg" xmlns:xlink="http://www.w3.org/1999/xlink">
<g id="graph0" class="graph" transform="scale(1 1) rotate(0) translate(4 707)">
<title>itkKLMSegmentationRegion.h</title>
<polygon fill="white" stroke="transparent" points="-4,4 -4,-707 1409,-707 1409,4 -4,4"/>
<!-- Node1 -->
<g id="node1" class="node">
<title>Node1</title>
<g id="a_node1"><a xlink:title=" ">
<polygon fill="#bfbfbf" stroke="black" points="801.5,-683.5 801.5,-702.5 962.5,-702.5 962.5,-683.5 801.5,-683.5"/>
<text text-anchor="middle" x="882" y="-690.5" font-family="Helvetica,sans-Serif" font-size="10.00">itkKLMSegmentationRegion.h</text>
</a>
</g>
</g>
<!-- Node2 -->
<g id="node2" class="node">
<title>Node2</title>
<g id="a_node2"><a xlink:href="itkKLMSegmentationBorder_8h.html" target="_top" xlink:title=" ">
<polygon fill="white" stroke="black" points="802.5,-627.5 802.5,-646.5 961.5,-646.5 961.5,-627.5 802.5,-627.5"/>
<text text-anchor="middle" x="882" y="-634.5" font-family="Helvetica,sans-Serif" font-size="10.00">itkKLMSegmentationBorder.h</text>
</a>
</g>
</g>
<!-- Node1&#45;&gt;Node2 -->
<g id="edge1" class="edge">
<title>Node1&#45;&gt;Node2</title>
<path fill="none" stroke="midnightblue" d="M876.83,-683.08C875.32,-675.93 874.89,-665.64 875.54,-656.69"/>
<polygon fill="midnightblue" stroke="midnightblue" points="879.02,-657.13 876.87,-646.75 872.08,-656.2 879.02,-657.13"/>
</g>
<!-- Node35 -->
<g id="node35" class="node">
<title>Node35</title>
<g id="a_node35"><a xlink:title=" ">
<polygon fill="white" stroke="#bfbfbf" points="484,-515.5 484,-534.5 652,-534.5 652,-515.5 484,-515.5"/>
<text text-anchor="middle" x="568" y="-522.5" font-family="Helvetica,sans-Serif" font-size="10.00">ITKKLMRegionGrowingExport.h</text>
</a>
</g>
</g>
<!-- Node1&#45;&gt;Node35 -->
<g id="edge83" class="edge">
<title>Node1&#45;&gt;Node35</title>
<path fill="none" stroke="midnightblue" d="M816.15,-683.49C753.22,-672.24 659.15,-646.84 598,-591 584.54,-578.71 576.66,-559.18 572.38,-544.73"/>
<polygon fill="midnightblue" stroke="midnightblue" points="575.71,-543.65 569.78,-534.87 568.95,-545.44 575.71,-543.65"/>
</g>
<!-- Node52 -->
<g id="node52" class="node">
<title>Node52</title>
<g id="a_node52"><a xlink:title=" ">
<polygon fill="white" stroke="#bfbfbf" points="1128,-571.5 1128,-590.5 1222,-590.5 1222,-571.5 1128,-571.5"/>
<text text-anchor="middle" x="1175" y="-578.5" font-family="Helvetica,sans-Serif" font-size="10.00">vnl/vnl_vector.h</text>
</a>
</g>
</g>
<!-- Node1&#45;&gt;Node52 -->
<g id="edge84" class="edge">
<title>Node1&#45;&gt;Node52</title>
<path fill="none" stroke="midnightblue" d="M904.99,-683.37C956.77,-663.93 1082.64,-616.67 1142.43,-594.23"/>
<polygon fill="midnightblue" stroke="midnightblue" points="1143.98,-597.38 1152.12,-590.59 1141.52,-590.83 1143.98,-597.38"/>
</g>
<!-- Node53 -->
<g id="node53" class="node">
<title>Node53</title>
<g id="a_node53"><a xlink:href="itkSegmentationRegion_8h.html" target="_top" xlink:title=" ">
<polygon fill="white" stroke="black" points="376,-571.5 376,-590.5 516,-590.5 516,-571.5 376,-571.5"/>
<text text-anchor="middle" x="446" y="-578.5" font-family="Helvetica,sans-Serif" font-size="10.00">itkSegmentationRegion.h</text>
</a>
</g>
</g>
<!-- Node1&#45;&gt;Node53 -->
<g id="edge79" class="edge">
<title>Node1&#45;&gt;Node53</title>
<path fill="none" stroke="midnightblue" d="M801.44,-689.44C734.63,-685.29 638,-674.57 558,-647 523.22,-635.01 487.15,-611.79 465.64,-596.6"/>
<polygon fill="midnightblue" stroke="midnightblue" points="467.52,-593.64 457.36,-590.63 463.43,-599.32 467.52,-593.64"/>
</g>
<!-- Node2&#45;&gt;Node1 -->
<g id="edge50" class="edge">
<title>Node2&#45;&gt;Node1</title>
<path fill="none" stroke="midnightblue" d="M887.13,-646.75C888.66,-653.86 889.1,-664.14 888.47,-673.1"/>
<polygon fill="midnightblue" stroke="midnightblue" points="884.99,-672.71 887.17,-683.08 891.93,-673.62 884.99,-672.71"/>
</g>
<!-- Node3 -->
<g id="node3" class="node">
<title>Node3</title>
<g id="a_node3"><a xlink:href="itkSegmentationBorder_8h.html" target="_top" xlink:title=" ">
<polygon fill="white" stroke="black" points="607,-571.5 607,-590.5 745,-590.5 745,-571.5 607,-571.5"/>
<text text-anchor="middle" x="676" y="-578.5" font-family="Helvetica,sans-Serif" font-size="10.00">itkSegmentationBorder.h</text>
</a>
</g>
</g>
<!-- Node2&#45;&gt;Node3 -->
<g id="edge2" class="edge">
<title>Node2&#45;&gt;Node3</title>
<path fill="none" stroke="midnightblue" d="M849.36,-627.44C813.95,-618.16 757.29,-603.31 718.45,-593.13"/>
<polygon fill="midnightblue" stroke="midnightblue" points="719.05,-589.67 708.49,-590.52 717.27,-596.44 719.05,-589.67"/>
</g>
<!-- Node6 -->
<g id="node6" class="node">
<title>Node6</title>
<g id="a_node6"><a xlink:href="itkMacro_8h.html" target="_top" xlink:title=" ">
<polygon fill="white" stroke="black" points="704,-6 704,-25 772,-25 772,-6 704,-6"/>
<text text-anchor="middle" x="738" y="-13" font-family="Helvetica,sans-Serif" font-size="10.00">itkMacro.h</text>
</a>
</g>
</g>
<!-- Node2&#45;&gt;Node6 -->
<g id="edge51" class="edge">
<title>Node2&#45;&gt;Node6</title>
<path fill="none" stroke="midnightblue" d="M932.62,-627.43C985.86,-615.17 1062,-586.98 1062,-526 1062,-526 1062,-526 1062,-244 1062,-190.13 1081.91,-169.67 1055,-123 1032.4,-83.81 1011.7,-84.55 970,-67 907.71,-40.78 830.03,-27.43 782.24,-21.22"/>
<polygon fill="midnightblue" stroke="midnightblue" points="782.58,-17.73 772.22,-19.97 781.71,-24.68 782.58,-17.73"/>
</g>
<!-- Node2&#45;&gt;Node35 -->
<g id="edge52" class="edge">
<title>Node2&#45;&gt;Node35</title>
<path fill="none" stroke="midnightblue" d="M867.91,-627.46C844.84,-613.8 797.26,-586.97 754,-571 712.55,-555.7 663.97,-544.15 626.85,-536.59"/>
<polygon fill="midnightblue" stroke="midnightblue" points="627.19,-533.08 616.7,-534.56 625.82,-539.95 627.19,-533.08"/>
</g>
<!-- Node36 -->
<g id="node36" class="node">
<title>Node36</title>
<g id="a_node36"><a xlink:href="itkMath_8h.html" target="_top" xlink:title=" ">
<polygon fill="white" stroke="black" points="1095.5,-235.5 1095.5,-254.5 1158.5,-254.5 1158.5,-235.5 1095.5,-235.5"/>
<text text-anchor="middle" x="1127" y="-242.5" font-family="Helvetica,sans-Serif" font-size="10.00">itkMath.h</text>
</a>
</g>
</g>
<!-- Node2&#45;&gt;Node36 -->
<g id="edge53" class="edge">
<title>Node2&#45;&gt;Node36</title>
<path fill="none" stroke="midnightblue" d="M948.19,-627.46C996.63,-619.98 1057.07,-607.69 1076,-591 1099.1,-570.64 1100,-556.8 1100,-526 1100,-526 1100,-526 1100,-356 1100,-322.86 1111.7,-285.68 1119.7,-264.14"/>
<polygon fill="midnightblue" stroke="midnightblue" points="1123.02,-265.25 1123.36,-254.66 1116.49,-262.73 1123.02,-265.25"/>
</g>
<!-- Node2&#45;&gt;Node52 -->
<g id="edge78" class="edge">
<title>Node2&#45;&gt;Node52</title>
<path fill="none" stroke="midnightblue" d="M928.43,-627.44C980.08,-617.92 1063.51,-602.55 1118.81,-592.36"/>
<polygon fill="midnightblue" stroke="midnightblue" points="1119.59,-595.77 1128.79,-590.52 1118.32,-588.89 1119.59,-595.77"/>
</g>
<!-- Node4 -->
<g id="node4" class="node">
<title>Node4</title>
<g id="a_node4"><a xlink:href="itkObject_8h.html" target="_top" xlink:title=" ">
<polygon fill="white" stroke="black" points="416,-347.5 416,-366.5 486,-366.5 486,-347.5 416,-347.5"/>
<text text-anchor="middle" x="451" y="-354.5" font-family="Helvetica,sans-Serif" font-size="10.00">itkObject.h</text>
</a>
</g>
</g>
<!-- Node3&#45;&gt;Node4 -->
<g id="edge3" class="edge">
<title>Node3&#45;&gt;Node4</title>
<path fill="none" stroke="midnightblue" d="M675.51,-571.48C674.44,-558.54 671.13,-533.48 661,-515 627.45,-453.82 608.24,-442.89 551,-403 531,-389.06 505.99,-377.81 485.98,-370.04"/>
<polygon fill="midnightblue" stroke="midnightblue" points="487.2,-366.76 476.61,-366.51 484.73,-373.31 487.2,-366.76"/>
</g>
<!-- Node29 -->
<g id="node29" class="node">
<title>Node29</title>
<g id="a_node29"><a xlink:href="itkObjectFactory_8h.html" target="_top" xlink:title=" ">
<polygon fill="white" stroke="black" points="362,-515.5 362,-534.5 466,-534.5 466,-515.5 362,-515.5"/>
<text text-anchor="middle" x="414" y="-522.5" font-family="Helvetica,sans-Serif" font-size="10.00">itkObjectFactory.h</text>
</a>
</g>
</g>
<!-- Node3&#45;&gt;Node29 -->
<g id="edge39" class="edge">
<title>Node3&#45;&gt;Node29</title>
<path fill="none" stroke="midnightblue" d="M634.49,-571.44C588.59,-561.98 514.62,-546.74 465.17,-536.55"/>
<polygon fill="midnightblue" stroke="midnightblue" points="465.82,-533.11 455.32,-534.52 464.41,-539.96 465.82,-533.11"/>
</g>
<!-- Node3&#45;&gt;Node35 -->
<g id="edge49" class="edge">
<title>Node3&#45;&gt;Node35</title>
<path fill="none" stroke="midnightblue" d="M658.65,-571.32C641.33,-562.66 614.48,-549.24 594.5,-539.25"/>
<polygon fill="midnightblue" stroke="midnightblue" points="595.82,-536 585.31,-534.65 592.69,-542.26 595.82,-536"/>
</g>
<!-- Node5 -->
<g id="node5" class="node">
<title>Node5</title>
<g id="a_node5"><a xlink:href="itkLightObject_8h.html" target="_top" xlink:title=" ">
<polygon fill="white" stroke="black" points="378,-179.5 378,-198.5 472,-198.5 472,-179.5 378,-179.5"/>
<text text-anchor="middle" x="425" y="-186.5" font-family="Helvetica,sans-Serif" font-size="10.00">itkLightObject.h</text>
</a>
</g>
</g>
<!-- Node4&#45;&gt;Node5 -->
<g id="edge4" class="edge">
<title>Node4&#45;&gt;Node5</title>
<path fill="none" stroke="midnightblue" d="M434.05,-347.34C407.3,-332.59 356.27,-299.78 336,-255 324.6,-229.82 354.41,-212.36 382.55,-201.92"/>
<polygon fill="midnightblue" stroke="midnightblue" points="384.06,-205.1 392.36,-198.52 381.77,-198.49 384.06,-205.1"/>
</g>
<!-- Node17 -->
<g id="node17" class="node">
<title>Node17</title>
<g id="a_node17"><a xlink:href="itkSingletonMacro_8h.html" target="_top" xlink:title=" ">
<polygon fill="white" stroke="black" points="0,-67.5 0,-86.5 114,-86.5 114,-67.5 0,-67.5"/>
<text text-anchor="middle" x="57" y="-74.5" font-family="Helvetica,sans-Serif" font-size="10.00">itkSingletonMacro.h</text>
</a>
</g>
</g>
<!-- Node4&#45;&gt;Node17 -->
<g id="edge37" class="edge">
<title>Node4&#45;&gt;Node17</title>
<path fill="none" stroke="midnightblue" d="M429.82,-347.35C410.33,-339.05 380.92,-325.64 357,-311 241.81,-240.48 118.92,-133.67 74.38,-93.77"/>
<polygon fill="midnightblue" stroke="midnightblue" points="76.54,-91 66.76,-86.92 71.85,-96.21 76.54,-91"/>
</g>
<!-- Node20 -->
<g id="node20" class="node">
<title>Node20</title>
<g id="a_node20"><a xlink:href="itkEventObject_8h.html" target="_top" xlink:title=" ">
<polygon fill="white" stroke="black" points="746,-291.5 746,-310.5 844,-310.5 844,-291.5 746,-291.5"/>
<text text-anchor="middle" x="795" y="-298.5" font-family="Helvetica,sans-Serif" font-size="10.00">itkEventObject.h</text>
</a>
</g>
</g>
<!-- Node4&#45;&gt;Node20 -->
<g id="edge25" class="edge">
<title>Node4&#45;&gt;Node20</title>
<path fill="none" stroke="midnightblue" d="M486.2,-350.47C544.95,-341.25 663.65,-322.62 735.55,-311.33"/>
<polygon fill="midnightblue" stroke="midnightblue" points="736.47,-314.73 745.81,-309.72 735.39,-307.81 736.47,-314.73"/>
</g>
<!-- Node21 -->
<g id="node21" class="node">
<title>Node21</title>
<g id="a_node21"><a xlink:href="itkMetaDataDictionary_8h.html" target="_top" xlink:title=" ">
<polygon fill="white" stroke="black" points="496.5,-291.5 496.5,-310.5 631.5,-310.5 631.5,-291.5 496.5,-291.5"/>
<text text-anchor="middle" x="564" y="-298.5" font-family="Helvetica,sans-Serif" font-size="10.00">itkMetaDataDictionary.h</text>
</a>
</g>
</g>
<!-- Node4&#45;&gt;Node21 -->
<g id="edge27" class="edge">
<title>Node4&#45;&gt;Node21</title>
<path fill="none" stroke="midnightblue" d="M468.91,-347.44C487.25,-338.68 516.01,-324.94 537.09,-314.86"/>
<polygon fill="midnightblue" stroke="midnightblue" points="538.67,-317.99 546.18,-310.52 535.65,-311.67 538.67,-317.99"/>
</g>
<!-- Node28 -->
<g id="node28" class="node">
<title>Node28</title>
<g id="a_node28"><a xlink:title=" ">
<polygon fill="white" stroke="#bfbfbf" points="413.5,-291.5 413.5,-310.5 478.5,-310.5 478.5,-291.5 413.5,-291.5"/>
<text text-anchor="middle" x="446" y="-298.5" font-family="Helvetica,sans-Serif" font-size="10.00">functional</text>
</a>
</g>
</g>
<!-- Node4&#45;&gt;Node28 -->
<g id="edge38" class="edge">
<title>Node4&#45;&gt;Node28</title>
<path fill="none" stroke="midnightblue" d="M450.17,-347.08C449.52,-340.01 448.58,-329.86 447.76,-320.99"/>
<polygon fill="midnightblue" stroke="midnightblue" points="451.22,-320.39 446.81,-310.75 444.25,-321.03 451.22,-320.39"/>
</g>
<!-- Node5&#45;&gt;Node6 -->
<g id="edge5" class="edge">
<title>Node5&#45;&gt;Node6</title>
<path fill="none" stroke="midnightblue" d="M405.7,-179.48C391.57,-172.08 373.44,-159.89 365,-143 349.89,-112.79 342.78,-92.44 365,-67 386.37,-42.54 599.48,-25.62 693.65,-19.27"/>
<polygon fill="midnightblue" stroke="midnightblue" points="693.98,-22.76 703.73,-18.61 693.52,-15.78 693.98,-22.76"/>
</g>
<!-- Node7 -->
<g id="node7" class="node">
<title>Node7</title>
<g id="a_node7"><a xlink:href="itkSmartPointer_8h.html" target="_top" xlink:title=" ">
<polygon fill="white" stroke="black" points="374.5,-123.5 374.5,-142.5 475.5,-142.5 475.5,-123.5 374.5,-123.5"/>
<text text-anchor="middle" x="425" y="-130.5" font-family="Helvetica,sans-Serif" font-size="10.00">itkSmartPointer.h</text>
</a>
</g>
</g>
<!-- Node5&#45;&gt;Node7 -->
<g id="edge6" class="edge">
<title>Node5&#45;&gt;Node7</title>
<path fill="none" stroke="midnightblue" d="M425,-179.08C425,-172.01 425,-161.86 425,-152.99"/>
<polygon fill="midnightblue" stroke="midnightblue" points="428.5,-152.75 425,-142.75 421.5,-152.75 428.5,-152.75"/>
</g>
<!-- Node8 -->
<g id="node8" class="node">
<title>Node8</title>
<g id="a_node8"><a xlink:title=" ">
<polygon fill="white" stroke="#bfbfbf" points="628,-67.5 628,-86.5 688,-86.5 688,-67.5 628,-67.5"/>
<text text-anchor="middle" x="658" y="-74.5" font-family="Helvetica,sans-Serif" font-size="10.00">iostream</text>
</a>
</g>
</g>
<!-- Node5&#45;&gt;Node8 -->
<g id="edge23" class="edge">
<title>Node5&#45;&gt;Node8</title>
<path fill="none" stroke="midnightblue" d="M435.88,-179.37C453.38,-165.84 489.23,-139.46 523,-123 553.75,-108 590.74,-96.06 618.22,-88.26"/>
<polygon fill="midnightblue" stroke="midnightblue" points="619.19,-91.63 627.88,-85.58 617.31,-84.88 619.19,-91.63"/>
</g>
<!-- Node12 -->
<g id="node12" class="node">
<title>Node12</title>
<g id="a_node12"><a xlink:href="itkTimeStamp_8h.html" target="_top" xlink:title=" ">
<polygon fill="white" stroke="black" points="146.5,-123.5 146.5,-142.5 241.5,-142.5 241.5,-123.5 146.5,-123.5"/>
<text text-anchor="middle" x="194" y="-130.5" font-family="Helvetica,sans-Serif" font-size="10.00">itkTimeStamp.h</text>
</a>
</g>
</g>
<!-- Node5&#45;&gt;Node12 -->
<g id="edge11" class="edge">
<title>Node5&#45;&gt;Node12</title>
<path fill="none" stroke="midnightblue" d="M388.4,-179.44C348.27,-170.06 283.8,-154.99 240.22,-144.8"/>
<polygon fill="midnightblue" stroke="midnightblue" points="240.97,-141.38 230.43,-142.52 239.37,-148.2 240.97,-141.38"/>
</g>
<!-- Node16 -->
<g id="node16" class="node">
<title>Node16</title>
<g id="a_node16"><a xlink:title=" ">
<polygon fill="white" stroke="#bfbfbf" points="268,-67.5 268,-86.5 318,-86.5 318,-67.5 268,-67.5"/>
<text text-anchor="middle" x="293" y="-74.5" font-family="Helvetica,sans-Serif" font-size="10.00">atomic</text>
</a>
</g>
</g>
<!-- Node5&#45;&gt;Node16 -->
<g id="edge22" class="edge">
<title>Node5&#45;&gt;Node16</title>
<path fill="none" stroke="midnightblue" d="M397.28,-179.4C377.36,-172.15 350.8,-160.18 332,-143 317.62,-129.85 306.83,-110.17 300.28,-95.91"/>
<polygon fill="midnightblue" stroke="midnightblue" points="303.46,-94.44 296.28,-86.66 297.04,-97.22 303.46,-94.44"/>
</g>
<!-- Node18 -->
<g id="node18" class="node">
<title>Node18</title>
<g id="a_node18"><a xlink:href="itkIndent_8h.html" target="_top" xlink:title=" ">
<polygon fill="white" stroke="black" points="646.5,-123.5 646.5,-142.5 715.5,-142.5 715.5,-123.5 646.5,-123.5"/>
<text text-anchor="middle" x="681" y="-130.5" font-family="Helvetica,sans-Serif" font-size="10.00">itkIndent.h</text>
</a>
</g>
</g>
<!-- Node5&#45;&gt;Node18 -->
<g id="edge19" class="edge">
<title>Node5&#45;&gt;Node18</title>
<path fill="none" stroke="midnightblue" d="M465.56,-179.44C512.16,-169.61 588.36,-153.54 636.54,-143.38"/>
<polygon fill="midnightblue" stroke="midnightblue" points="637.31,-146.79 646.37,-141.3 635.87,-139.94 637.31,-146.79"/>
</g>
<!-- Node19 -->
<g id="node19" class="node">
<title>Node19</title>
<g id="a_node19"><a xlink:title=" ">
<polygon fill="white" stroke="#bfbfbf" points="532.5,-123.5 532.5,-142.5 589.5,-142.5 589.5,-123.5 532.5,-123.5"/>
<text text-anchor="middle" x="561" y="-130.5" font-family="Helvetica,sans-Serif" font-size="10.00">typeinfo</text>
</a>
</g>
</g>
<!-- Node5&#45;&gt;Node19 -->
<g id="edge24" class="edge">
<title>Node5&#45;&gt;Node19</title>
<path fill="none" stroke="midnightblue" d="M446.55,-179.44C469.03,-170.52 504.49,-156.44 529.98,-146.32"/>
<polygon fill="midnightblue" stroke="midnightblue" points="531.55,-149.46 539.55,-142.52 528.97,-142.95 531.55,-149.46"/>
</g>
<!-- Node7&#45;&gt;Node8 -->
<g id="edge7" class="edge">
<title>Node7&#45;&gt;Node8</title>
<path fill="none" stroke="midnightblue" d="M461.92,-123.44C504.45,-113.59 574.08,-97.45 617.91,-87.29"/>
<polygon fill="midnightblue" stroke="midnightblue" points="618.97,-90.64 627.92,-84.97 617.39,-83.82 618.97,-90.64"/>
</g>
<!-- Node9 -->
<g id="node9" class="node">
<title>Node9</title>
<g id="a_node9"><a xlink:title=" ">
<polygon fill="white" stroke="#bfbfbf" points="477.5,-67.5 477.5,-86.5 522.5,-86.5 522.5,-67.5 477.5,-67.5"/>
<text text-anchor="middle" x="500" y="-74.5" font-family="Helvetica,sans-Serif" font-size="10.00">utility</text>
</a>
</g>
</g>
<!-- Node7&#45;&gt;Node9 -->
<g id="edge8" class="edge">
<title>Node7&#45;&gt;Node9</title>
<path fill="none" stroke="midnightblue" d="M437.05,-123.32C448.46,-115.11 465.83,-102.6 479.43,-92.81"/>
<polygon fill="midnightblue" stroke="midnightblue" points="481.66,-95.52 487.73,-86.83 477.57,-89.84 481.66,-95.52"/>
</g>
<!-- Node10 -->
<g id="node10" class="node">
<title>Node10</title>
<g id="a_node10"><a xlink:title=" ">
<polygon fill="white" stroke="#bfbfbf" points="540.5,-67.5 540.5,-86.5 609.5,-86.5 609.5,-67.5 540.5,-67.5"/>
<text text-anchor="middle" x="575" y="-74.5" font-family="Helvetica,sans-Serif" font-size="10.00">type_traits</text>
</a>
</g>
</g>
<!-- Node7&#45;&gt;Node10 -->
<g id="edge9" class="edge">
<title>Node7&#45;&gt;Node10</title>
<path fill="none" stroke="midnightblue" d="M448.77,-123.44C473.89,-114.4 513.71,-100.06 541.9,-89.92"/>
<polygon fill="midnightblue" stroke="midnightblue" points="543.12,-93.2 551.34,-86.52 540.75,-86.61 543.12,-93.2"/>
</g>
<!-- Node11 -->
<g id="node11" class="node">
<title>Node11</title>
<g id="a_node11"><a xlink:title=" ">
<polygon fill="white" stroke="#bfbfbf" points="374.5,-67.5 374.5,-86.5 459.5,-86.5 459.5,-67.5 374.5,-67.5"/>
<text text-anchor="middle" x="417" y="-74.5" font-family="Helvetica,sans-Serif" font-size="10.00">itkConfigure.h</text>
</a>
</g>
</g>
<!-- Node7&#45;&gt;Node11 -->
<g id="edge10" class="edge">
<title>Node7&#45;&gt;Node11</title>
<path fill="none" stroke="midnightblue" d="M423.68,-123.08C422.62,-115.93 421.09,-105.64 419.77,-96.69"/>
<polygon fill="midnightblue" stroke="midnightblue" points="423.22,-96.13 418.3,-86.75 416.3,-97.16 423.22,-96.13"/>
</g>
<!-- Node12&#45;&gt;Node6 -->
<g id="edge12" class="edge">
<title>Node12&#45;&gt;Node6</title>
<path fill="none" stroke="midnightblue" d="M199.59,-123.41C209.56,-108.92 231.92,-79.92 259,-67 335.34,-30.57 590.15,-20.18 693.69,-17.43"/>
<polygon fill="midnightblue" stroke="midnightblue" points="693.9,-20.92 703.81,-17.17 693.73,-13.92 693.9,-20.92"/>
</g>
<!-- Node13 -->
<g id="node13" class="node">
<title>Node13</title>
<g id="a_node13"><a xlink:href="itkIntTypes_8h.html" target="_top" xlink:title=" ">
<polygon fill="white" stroke="black" points="132.5,-67.5 132.5,-86.5 211.5,-86.5 211.5,-67.5 132.5,-67.5"/>
<text text-anchor="middle" x="172" y="-74.5" font-family="Helvetica,sans-Serif" font-size="10.00">itkIntTypes.h</text>
</a>
</g>
</g>
<!-- Node12&#45;&gt;Node13 -->
<g id="edge13" class="edge">
<title>Node12&#45;&gt;Node13</title>
<path fill="none" stroke="midnightblue" d="M190.37,-123.08C187.39,-115.77 183.07,-105.18 179.38,-96.1"/>
<polygon fill="midnightblue" stroke="midnightblue" points="182.58,-94.69 175.57,-86.75 176.1,-97.33 182.58,-94.69"/>
</g>
<!-- Node12&#45;&gt;Node16 -->
<g id="edge17" class="edge">
<title>Node12&#45;&gt;Node16</title>
<path fill="none" stroke="midnightblue" d="M209.91,-123.32C225.64,-114.74 249.94,-101.49 268.21,-91.52"/>
<polygon fill="midnightblue" stroke="midnightblue" points="270.03,-94.52 277.13,-86.65 266.68,-88.37 270.03,-94.52"/>
</g>
<!-- Node12&#45;&gt;Node17 -->
<g id="edge18" class="edge">
<title>Node12&#45;&gt;Node17</title>
<path fill="none" stroke="midnightblue" d="M172.29,-123.44C149.65,-114.52 113.93,-100.44 88.25,-90.32"/>
<polygon fill="midnightblue" stroke="midnightblue" points="89.19,-86.93 78.61,-86.52 86.63,-93.44 89.19,-86.93"/>
</g>
<!-- Node13&#45;&gt;Node6 -->
<g id="edge14" class="edge">
<title>Node13&#45;&gt;Node6</title>
<path fill="none" stroke="midnightblue" d="M211.77,-69.06C216.56,-68.32 221.38,-67.61 226,-67 398.48,-44.15 604.91,-26.83 693.76,-19.86"/>
<polygon fill="midnightblue" stroke="midnightblue" points="694.06,-23.35 703.76,-19.08 693.51,-16.37 694.06,-23.35"/>
</g>
<!-- Node14 -->
<g id="node14" class="node">
<title>Node14</title>
<g id="a_node14"><a xlink:title=" ">
<polygon fill="white" stroke="#bfbfbf" points="113,-6 113,-25 163,-25 163,-6 113,-6"/>
<text text-anchor="middle" x="138" y="-13" font-family="Helvetica,sans-Serif" font-size="10.00">cstdint</text>
</a>
</g>
</g>
<!-- Node13&#45;&gt;Node14 -->
<g id="edge15" class="edge">
<title>Node13&#45;&gt;Node14</title>
<path fill="none" stroke="midnightblue" d="M167.13,-67.48C162.13,-58.73 154.21,-44.87 147.89,-33.81"/>
<polygon fill="midnightblue" stroke="midnightblue" points="150.86,-31.96 142.86,-25.01 144.78,-35.43 150.86,-31.96"/>
</g>
<!-- Node15 -->
<g id="node15" class="node">
<title>Node15</title>
<g id="a_node15"><a xlink:title=" ">
<polygon fill="white" stroke="#bfbfbf" points="181,-6 181,-25 231,-25 231,-6 181,-6"/>
<text text-anchor="middle" x="206" y="-13" font-family="Helvetica,sans-Serif" font-size="10.00">climits</text>
</a>
</g>
</g>
<!-- Node13&#45;&gt;Node15 -->
<g id="edge16" class="edge">
<title>Node13&#45;&gt;Node15</title>
<path fill="none" stroke="midnightblue" d="M176.87,-67.48C181.87,-58.73 189.79,-44.87 196.11,-33.81"/>
<polygon fill="midnightblue" stroke="midnightblue" points="199.22,-35.43 201.14,-25.01 193.14,-31.96 199.22,-35.43"/>
</g>
<!-- Node18&#45;&gt;Node6 -->
<g id="edge20" class="edge">
<title>Node18&#45;&gt;Node6</title>
<path fill="none" stroke="midnightblue" d="M685.28,-123.32C694.57,-104.51 716.71,-59.65 729.14,-34.46"/>
<polygon fill="midnightblue" stroke="midnightblue" points="732.38,-35.8 733.67,-25.28 726.1,-32.7 732.38,-35.8"/>
</g>
<!-- Node18&#45;&gt;Node8 -->
<g id="edge21" class="edge">
<title>Node18&#45;&gt;Node8</title>
<path fill="none" stroke="midnightblue" d="M677.2,-123.08C674.09,-115.77 669.58,-105.18 665.71,-96.1"/>
<polygon fill="midnightblue" stroke="midnightblue" points="668.87,-94.58 661.73,-86.75 662.43,-97.32 668.87,-94.58"/>
</g>
<!-- Node20&#45;&gt;Node18 -->
<g id="edge26" class="edge">
<title>Node20&#45;&gt;Node18</title>
<path fill="none" stroke="midnightblue" d="M790.04,-291.45C782.68,-278.89 768.31,-254.79 755,-235 734.59,-204.65 709.05,-170.57 693.93,-150.77"/>
<polygon fill="midnightblue" stroke="midnightblue" points="696.64,-148.55 687.78,-142.75 691.09,-152.81 696.64,-148.55"/>
</g>
<!-- Node22 -->
<g id="node22" class="node">
<title>Node22</title>
<g id="a_node22"><a xlink:href="itkMetaDataObjectBase_8h.html" target="_top" xlink:title=" ">
<polygon fill="white" stroke="black" points="483,-235.5 483,-254.5 625,-254.5 625,-235.5 483,-235.5"/>
<text text-anchor="middle" x="554" y="-242.5" font-family="Helvetica,sans-Serif" font-size="10.00">itkMetaDataObjectBase.h</text>
</a>
</g>
</g>
<!-- Node21&#45;&gt;Node22 -->
<g id="edge28" class="edge">
<title>Node21&#45;&gt;Node22</title>
<path fill="none" stroke="midnightblue" d="M562.35,-291.08C561.02,-283.93 559.12,-273.64 557.46,-264.69"/>
<polygon fill="midnightblue" stroke="midnightblue" points="560.88,-263.95 555.62,-254.75 554,-265.22 560.88,-263.95"/>
</g>
<!-- Node23 -->
<g id="node23" class="node">
<title>Node23</title>
<g id="a_node23"><a xlink:title=" ">
<polygon fill="white" stroke="#bfbfbf" points="1341,-6 1341,-25 1405,-25 1405,-6 1341,-6"/>
<text text-anchor="middle" x="1373" y="-13" font-family="Helvetica,sans-Serif" font-size="10.00">algorithm</text>
</a>
</g>
</g>
<!-- Node21&#45;&gt;Node23 -->
<g id="edge32" class="edge">
<title>Node21&#45;&gt;Node23</title>
<path fill="none" stroke="midnightblue" d="M631.74,-295.79C778.43,-286.55 1116.44,-264.56 1168,-255 1261.98,-237.57 1373,-285.58 1373,-190 1373,-190 1373,-190 1373,-132 1373,-97.86 1373,-58.05 1373,-35.21"/>
<polygon fill="midnightblue" stroke="midnightblue" points="1376.5,-35.19 1373,-25.19 1369.5,-35.19 1376.5,-35.19"/>
</g>
<!-- Node24 -->
<g id="node24" class="node">
<title>Node24</title>
<g id="a_node24"><a xlink:title=" ">
<polygon fill="white" stroke="#bfbfbf" points="699.5,-235.5 699.5,-254.5 746.5,-254.5 746.5,-235.5 699.5,-235.5"/>
<text text-anchor="middle" x="723" y="-242.5" font-family="Helvetica,sans-Serif" font-size="10.00">vector</text>
</a>
</g>
</g>
<!-- Node21&#45;&gt;Node24 -->
<g id="edge33" class="edge">
<title>Node21&#45;&gt;Node24</title>
<path fill="none" stroke="midnightblue" d="M589.19,-291.44C616.41,-282.2 659.91,-267.43 689.88,-257.25"/>
<polygon fill="midnightblue" stroke="midnightblue" points="691.14,-260.52 699.48,-253.99 688.88,-253.89 691.14,-260.52"/>
</g>
<!-- Node25 -->
<g id="node25" class="node">
<title>Node25</title>
<g id="a_node25"><a xlink:title=" ">
<polygon fill="white" stroke="#bfbfbf" points="643,-235.5 643,-254.5 681,-254.5 681,-235.5 643,-235.5"/>
<text text-anchor="middle" x="662" y="-242.5" font-family="Helvetica,sans-Serif" font-size="10.00">map</text>
</a>
</g>
</g>
<!-- Node21&#45;&gt;Node25 -->
<g id="edge34" class="edge">
<title>Node21&#45;&gt;Node25</title>
<path fill="none" stroke="midnightblue" d="M579.75,-291.32C595.32,-282.74 619.38,-269.49 637.46,-259.52"/>
<polygon fill="midnightblue" stroke="midnightblue" points="639.22,-262.55 646.29,-254.65 635.85,-256.42 639.22,-262.55"/>
</g>
<!-- Node26 -->
<g id="node26" class="node">
<title>Node26</title>
<g id="a_node26"><a xlink:title=" ">
<polygon fill="white" stroke="#bfbfbf" points="345,-235.5 345,-254.5 389,-254.5 389,-235.5 345,-235.5"/>
<text text-anchor="middle" x="367" y="-242.5" font-family="Helvetica,sans-Serif" font-size="10.00">string</text>
</a>
</g>
</g>
<!-- Node21&#45;&gt;Node26 -->
<g id="edge35" class="edge">
<title>Node21&#45;&gt;Node26</title>
<path fill="none" stroke="midnightblue" d="M531.82,-291.46C500.3,-283.05 450.68,-269.71 398.73,-255.17"/>
<polygon fill="midnightblue" stroke="midnightblue" points="399.58,-251.77 389,-252.44 397.68,-258.51 399.58,-251.77"/>
</g>
<!-- Node27 -->
<g id="node27" class="node">
<title>Node27</title>
<g id="a_node27"><a xlink:title=" ">
<polygon fill="white" stroke="#bfbfbf" points="407,-235.5 407,-254.5 465,-254.5 465,-235.5 407,-235.5"/>
<text text-anchor="middle" x="436" y="-242.5" font-family="Helvetica,sans-Serif" font-size="10.00">memory</text>
</a>
</g>
</g>
<!-- Node21&#45;&gt;Node27 -->
<g id="edge36" class="edge">
<title>Node21&#45;&gt;Node27</title>
<path fill="none" stroke="midnightblue" d="M543.72,-291.44C522.65,-282.56 489.48,-268.56 465.51,-258.45"/>
<polygon fill="midnightblue" stroke="midnightblue" points="466.76,-255.18 456.19,-254.52 464.04,-261.63 466.76,-255.18"/>
</g>
<!-- Node22&#45;&gt;Node5 -->
<g id="edge29" class="edge">
<title>Node22&#45;&gt;Node5</title>
<path fill="none" stroke="midnightblue" d="M533.56,-235.44C512.33,-226.56 478.9,-212.56 454.75,-202.45"/>
<polygon fill="midnightblue" stroke="midnightblue" points="455.92,-199.15 445.34,-198.52 453.22,-205.61 455.92,-199.15"/>
</g>
<!-- Node22&#45;&gt;Node8 -->
<g id="edge31" class="edge">
<title>Node22&#45;&gt;Node8</title>
<path fill="none" stroke="midnightblue" d="M559.59,-235.08C576.17,-208.61 625.29,-130.21 647.22,-95.21"/>
<polygon fill="midnightblue" stroke="midnightblue" points="650.29,-96.9 652.63,-86.57 644.36,-93.18 650.29,-96.9"/>
</g>
<!-- Node22&#45;&gt;Node19 -->
<g id="edge30" class="edge">
<title>Node22&#45;&gt;Node19</title>
<path fill="none" stroke="midnightblue" d="M554.55,-235.37C555.68,-217.62 558.28,-176.67 559.82,-152.6"/>
<polygon fill="midnightblue" stroke="midnightblue" points="563.31,-152.79 560.45,-142.59 556.33,-152.35 563.31,-152.79"/>
</g>
<!-- Node30 -->
<g id="node30" class="node">
<title>Node30</title>
<g id="a_node30"><a xlink:href="itkObjectFactoryBase_8h.html" target="_top" xlink:title=" ">
<polygon fill="white" stroke="black" points="349.5,-459.5 349.5,-478.5 478.5,-478.5 478.5,-459.5 349.5,-459.5"/>
<text text-anchor="middle" x="414" y="-466.5" font-family="Helvetica,sans-Serif" font-size="10.00">itkObjectFactoryBase.h</text>
</a>
</g>
</g>
<!-- Node29&#45;&gt;Node30 -->
<g id="edge40" class="edge">
<title>Node29&#45;&gt;Node30</title>
<path fill="none" stroke="midnightblue" d="M414,-515.08C414,-508.01 414,-497.86 414,-488.99"/>
<polygon fill="midnightblue" stroke="midnightblue" points="417.5,-488.75 414,-478.75 410.5,-488.75 417.5,-488.75"/>
</g>
<!-- Node30&#45;&gt;Node17 -->
<g id="edge43" class="edge">
<title>Node30&#45;&gt;Node17</title>
<path fill="none" stroke="midnightblue" d="M349.2,-462.24C242.62,-450.96 42,-421.31 42,-358 42,-358 42,-358 42,-188 42,-155.5 48.51,-118.1 52.95,-96.34"/>
<polygon fill="midnightblue" stroke="midnightblue" points="56.39,-97.01 55.04,-86.5 49.54,-95.56 56.39,-97.01"/>
</g>
<!-- Node30&#45;&gt;Node24 -->
<g id="edge48" class="edge">
<title>Node30&#45;&gt;Node24</title>
<path fill="none" stroke="midnightblue" d="M457.37,-459.42C485.54,-452.53 522.23,-440.98 551,-423 622.38,-378.39 685.49,-298.02 710.99,-263.04"/>
<polygon fill="midnightblue" stroke="midnightblue" points="713.92,-264.97 716.91,-254.81 708.23,-260.88 713.92,-264.97"/>
</g>
<!-- Node31 -->
<g id="node31" class="node">
<title>Node31</title>
<g id="a_node31"><a xlink:href="itkCreateObjectFunction_8h.html" target="_top" xlink:title=" ">
<polygon fill="white" stroke="black" points="399.5,-403.5 399.5,-422.5 542.5,-422.5 542.5,-403.5 399.5,-403.5"/>
<text text-anchor="middle" x="471" y="-410.5" font-family="Helvetica,sans-Serif" font-size="10.00">itkCreateObjectFunction.h</text>
</a>
</g>
</g>
<!-- Node30&#45;&gt;Node31 -->
<g id="edge41" class="edge">
<title>Node30&#45;&gt;Node31</title>
<path fill="none" stroke="midnightblue" d="M423.16,-459.32C431.5,-451.42 444.03,-439.55 454.18,-429.94"/>
<polygon fill="midnightblue" stroke="midnightblue" points="456.82,-432.25 461.68,-422.83 452.01,-427.17 456.82,-432.25"/>
</g>
<!-- Node32 -->
<g id="node32" class="node">
<title>Node32</title>
<g id="a_node32"><a xlink:href="itkCommonEnums_8h.html" target="_top" xlink:title=" ">
<polygon fill="white" stroke="black" points="146,-403.5 146,-422.5 262,-422.5 262,-403.5 146,-403.5"/>
<text text-anchor="middle" x="204" y="-410.5" font-family="Helvetica,sans-Serif" font-size="10.00">itkCommonEnums.h</text>
</a>
</g>
</g>
<!-- Node30&#45;&gt;Node32 -->
<g id="edge44" class="edge">
<title>Node30&#45;&gt;Node32</title>
<path fill="none" stroke="midnightblue" d="M380.72,-459.44C344.55,-450.14 286.62,-435.25 247.02,-425.06"/>
<polygon fill="midnightblue" stroke="midnightblue" points="247.68,-421.62 237.12,-422.52 245.93,-428.4 247.68,-421.62"/>
</g>
<!-- Node34 -->
<g id="node34" class="node">
<title>Node34</title>
<g id="a_node34"><a xlink:title=" ">
<polygon fill="white" stroke="#bfbfbf" points="349,-403.5 349,-422.5 381,-422.5 381,-403.5 349,-403.5"/>
<text text-anchor="middle" x="365" y="-410.5" font-family="Helvetica,sans-Serif" font-size="10.00">list</text>
</a>
</g>
</g>
<!-- Node30&#45;&gt;Node34 -->
<g id="edge47" class="edge">
<title>Node30&#45;&gt;Node34</title>
<path fill="none" stroke="midnightblue" d="M405.91,-459.08C398.84,-451.3 388.41,-439.8 379.85,-430.37"/>
<polygon fill="midnightblue" stroke="midnightblue" points="382.25,-427.8 372.94,-422.75 377.07,-432.51 382.25,-427.8"/>
</g>
<!-- Node31&#45;&gt;Node4 -->
<g id="edge42" class="edge">
<title>Node31&#45;&gt;Node4</title>
<path fill="none" stroke="midnightblue" d="M467.7,-403.08C465.02,-395.85 461.15,-385.41 457.81,-376.4"/>
<polygon fill="midnightblue" stroke="midnightblue" points="461,-374.91 454.24,-366.75 454.43,-377.34 461,-374.91"/>
</g>
<!-- Node32&#45;&gt;Node13 -->
<g id="edge45" class="edge">
<title>Node32&#45;&gt;Node13</title>
<path fill="none" stroke="midnightblue" d="M190.18,-403.28C165.87,-386.74 118,-348.3 118,-302 118,-302 118,-302 118,-188 118,-157.9 123.3,-149.8 137,-123 142.28,-112.67 150.07,-102.36 156.96,-94.22"/>
<polygon fill="midnightblue" stroke="midnightblue" points="159.68,-96.43 163.67,-86.61 154.43,-91.8 159.68,-96.43"/>
</g>
<!-- Node33 -->
<g id="node33" class="node">
<title>Node33</title>
<g id="a_node33"><a xlink:title=" ">
<polygon fill="white" stroke="#bfbfbf" points="175.5,-347.5 175.5,-366.5 232.5,-366.5 232.5,-347.5 175.5,-347.5"/>
<text text-anchor="middle" x="204" y="-354.5" font-family="Helvetica,sans-Serif" font-size="10.00">ostream</text>
</a>
</g>
</g>
<!-- Node32&#45;&gt;Node33 -->
<g id="edge46" class="edge">
<title>Node32&#45;&gt;Node33</title>
<path fill="none" stroke="midnightblue" d="M204,-403.08C204,-396.01 204,-385.86 204,-376.99"/>
<polygon fill="midnightblue" stroke="midnightblue" points="207.5,-376.75 204,-366.75 200.5,-376.75 207.5,-376.75"/>
</g>
<!-- Node37 -->
<g id="node37" class="node">
<title>Node37</title>
<g id="a_node37"><a xlink:title=" ">
<polygon fill="white" stroke="#bfbfbf" points="1190.5,-179.5 1190.5,-198.5 1237.5,-198.5 1237.5,-179.5 1190.5,-179.5"/>
<text text-anchor="middle" x="1214" y="-186.5" font-family="Helvetica,sans-Serif" font-size="10.00">cmath</text>
</a>
</g>
</g>
<!-- Node36&#45;&gt;Node37 -->
<g id="edge54" class="edge">
<title>Node36&#45;&gt;Node37</title>
<path fill="none" stroke="midnightblue" d="M1140.98,-235.32C1154.55,-226.9 1175.38,-213.97 1191.32,-204.07"/>
<polygon fill="midnightblue" stroke="midnightblue" points="1193.41,-206.9 1200.06,-198.65 1189.71,-200.95 1193.41,-206.9"/>
</g>
<!-- Node38 -->
<g id="node38" class="node">
<title>Node38</title>
<g id="a_node38"><a xlink:href="itkMathDetail_8h.html" target="_top" xlink:title=" ">
<polygon fill="white" stroke="black" points="942,-179.5 942,-198.5 1034,-198.5 1034,-179.5 942,-179.5"/>
<text text-anchor="middle" x="988" y="-186.5" font-family="Helvetica,sans-Serif" font-size="10.00">itkMathDetail.h</text>
</a>
</g>
</g>
<!-- Node36&#45;&gt;Node38 -->
<g id="edge55" class="edge">
<title>Node36&#45;&gt;Node38</title>
<path fill="none" stroke="midnightblue" d="M1104.98,-235.44C1081.9,-226.48 1045.44,-212.31 1019.36,-202.18"/>
<polygon fill="midnightblue" stroke="midnightblue" points="1020.51,-198.88 1009.92,-198.52 1017.98,-205.4 1020.51,-198.88"/>
</g>
<!-- Node48 -->
<g id="node48" class="node">
<title>Node48</title>
<g id="a_node48"><a xlink:href="itkConceptChecking_8h.html" target="_top" xlink:title=" ">
<polygon fill="white" stroke="black" points="800.5,-179.5 800.5,-198.5 923.5,-198.5 923.5,-179.5 800.5,-179.5"/>
<text text-anchor="middle" x="862" y="-186.5" font-family="Helvetica,sans-Serif" font-size="10.00">itkConceptChecking.h</text>
</a>
</g>
</g>
<!-- Node36&#45;&gt;Node48 -->
<g id="edge71" class="edge">
<title>Node36&#45;&gt;Node48</title>
<path fill="none" stroke="midnightblue" d="M1095.3,-237.54C1050.38,-228.39 967.71,-211.54 913.8,-200.56"/>
<polygon fill="midnightblue" stroke="midnightblue" points="914.26,-197.08 903.76,-198.51 912.86,-203.94 914.26,-197.08"/>
</g>
<!-- Node50 -->
<g id="node50" class="node">
<title>Node50</title>
<g id="a_node50"><a xlink:title=" ">
<polygon fill="white" stroke="#bfbfbf" points="1255.5,-179.5 1255.5,-198.5 1344.5,-198.5 1344.5,-179.5 1255.5,-179.5"/>
<text text-anchor="middle" x="1300" y="-186.5" font-family="Helvetica,sans-Serif" font-size="10.00">vnl/vnl_math.h</text>
</a>
</g>
</g>
<!-- Node36&#45;&gt;Node50 -->
<g id="edge76" class="edge">
<title>Node36&#45;&gt;Node50</title>
<path fill="none" stroke="midnightblue" d="M1154.41,-235.44C1183.77,-226.28 1230.52,-211.69 1263.1,-201.52"/>
<polygon fill="midnightblue" stroke="midnightblue" points="1264.21,-204.84 1272.72,-198.52 1262.13,-198.16 1264.21,-204.84"/>
</g>
<!-- Node51 -->
<g id="node51" class="node">
<title>Node51</title>
<g id="a_node51"><a xlink:title=" ">
<polygon fill="white" stroke="#bfbfbf" points="1090,-179.5 1090,-198.5 1172,-198.5 1172,-179.5 1090,-179.5"/>
<text text-anchor="middle" x="1131" y="-186.5" font-family="Helvetica,sans-Serif" font-size="10.00">vxl_version.h</text>
</a>
</g>
</g>
<!-- Node36&#45;&gt;Node51 -->
<g id="edge77" class="edge">
<title>Node36&#45;&gt;Node51</title>
<path fill="none" stroke="midnightblue" d="M1127.66,-235.08C1128.18,-228.01 1128.94,-217.86 1129.59,-208.99"/>
<polygon fill="midnightblue" stroke="midnightblue" points="1133.1,-208.98 1130.35,-198.75 1126.12,-208.47 1133.1,-208.98"/>
</g>
<!-- Node38&#45;&gt;Node13 -->
<g id="edge56" class="edge">
<title>Node38&#45;&gt;Node13</title>
<path fill="none" stroke="midnightblue" d="M941.9,-180.23C938.56,-179.78 935.23,-179.36 932,-179 681.06,-150.93 612.76,-191.71 365,-143 305.13,-131.23 238.27,-105.79 201.05,-90.46"/>
<polygon fill="midnightblue" stroke="midnightblue" points="202.39,-87.22 191.81,-86.61 199.7,-93.69 202.39,-87.22"/>
</g>
<!-- Node39 -->
<g id="node39" class="node">
<title>Node39</title>
<g id="a_node39"><a xlink:href="itkNumericTraits_8h.html" target="_top" xlink:title=" ">
<polygon fill="white" stroke="black" points="878,-123.5 878,-142.5 984,-142.5 984,-123.5 878,-123.5"/>
<text text-anchor="middle" x="931" y="-130.5" font-family="Helvetica,sans-Serif" font-size="10.00">itkNumericTraits.h</text>
</a>
</g>
</g>
<!-- Node38&#45;&gt;Node39 -->
<g id="edge57" class="edge">
<title>Node38&#45;&gt;Node39</title>
<path fill="none" stroke="midnightblue" d="M978.84,-179.32C970.5,-171.42 957.97,-159.55 947.82,-149.94"/>
<polygon fill="midnightblue" stroke="midnightblue" points="949.99,-147.17 940.32,-142.83 945.18,-152.25 949.99,-147.17"/>
</g>
<!-- Node47 -->
<g id="node47" class="node">
<title>Node47</title>
<g id="a_node47"><a xlink:title=" ">
<polygon fill="white" stroke="#bfbfbf" points="1002,-123.5 1002,-142.5 1046,-142.5 1046,-123.5 1002,-123.5"/>
<text text-anchor="middle" x="1024" y="-130.5" font-family="Helvetica,sans-Serif" font-size="10.00">cfenv</text>
</a>
</g>
</g>
<!-- Node38&#45;&gt;Node47 -->
<g id="edge70" class="edge">
<title>Node38&#45;&gt;Node47</title>
<path fill="none" stroke="midnightblue" d="M993.94,-179.08C998.98,-171.53 1006.34,-160.49 1012.51,-151.23"/>
<polygon fill="midnightblue" stroke="midnightblue" points="1015.53,-153.01 1018.17,-142.75 1009.71,-149.13 1015.53,-153.01"/>
</g>
<!-- Node39&#45;&gt;Node6 -->
<g id="edge58" class="edge">
<title>Node39&#45;&gt;Node6</title>
<path fill="none" stroke="midnightblue" d="M908.03,-123.39C887.28,-115.21 856.21,-101.97 831,-87 803.15,-70.47 773.82,-47.1 755.72,-31.87"/>
<polygon fill="midnightblue" stroke="midnightblue" points="757.67,-28.94 747.79,-25.12 753.13,-34.26 757.67,-28.94"/>
</g>
<!-- Node40 -->
<g id="node40" class="node">
<title>Node40</title>
<g id="a_node40"><a xlink:title=" ">
<polygon fill="white" stroke="#bfbfbf" points="840,-67.5 840,-86.5 884,-86.5 884,-67.5 840,-67.5"/>
<text text-anchor="middle" x="862" y="-74.5" font-family="Helvetica,sans-Serif" font-size="10.00">limits</text>
</a>
</g>
</g>
<!-- Node39&#45;&gt;Node40 -->
<g id="edge59" class="edge">
<title>Node39&#45;&gt;Node40</title>
<path fill="none" stroke="midnightblue" d="M919.91,-123.32C909.51,-115.18 893.74,-102.84 881.28,-93.09"/>
<polygon fill="midnightblue" stroke="midnightblue" points="883.32,-90.24 873.29,-86.83 879.01,-95.75 883.32,-90.24"/>
</g>
<!-- Node41 -->
<g id="node41" class="node">
<title>Node41</title>
<g id="a_node41"><a xlink:title=" ">
<polygon fill="white" stroke="#bfbfbf" points="902.5,-67.5 902.5,-86.5 961.5,-86.5 961.5,-67.5 902.5,-67.5"/>
<text text-anchor="middle" x="932" y="-74.5" font-family="Helvetica,sans-Serif" font-size="10.00">complex</text>
</a>
</g>
</g>
<!-- Node39&#45;&gt;Node41 -->
<g id="edge60" class="edge">
<title>Node39&#45;&gt;Node41</title>
<path fill="none" stroke="midnightblue" d="M931.17,-123.08C931.3,-116.01 931.48,-105.86 931.65,-96.99"/>
<polygon fill="midnightblue" stroke="midnightblue" points="935.15,-96.81 931.84,-86.75 928.15,-96.68 935.15,-96.81"/>
</g>
<!-- Node42 -->
<g id="node42" class="node">
<title>Node42</title>
<g id="a_node42"><a xlink:href="itkFixedArray_8h.html" target="_top" xlink:title=" ">
<polygon fill="white" stroke="black" points="1058.5,-67.5 1058.5,-86.5 1147.5,-86.5 1147.5,-67.5 1058.5,-67.5"/>
<text text-anchor="middle" x="1103" y="-74.5" font-family="Helvetica,sans-Serif" font-size="10.00">itkFixedArray.h</text>
</a>
</g>
</g>
<!-- Node39&#45;&gt;Node42 -->
<g id="edge61" class="edge">
<title>Node39&#45;&gt;Node42</title>
<path fill="none" stroke="midnightblue" d="M958.25,-123.44C987.44,-114.28 1033.92,-99.69 1066.31,-89.52"/>
<polygon fill="midnightblue" stroke="midnightblue" points="1067.38,-92.85 1075.87,-86.52 1065.28,-86.17 1067.38,-92.85"/>
</g>
<!-- Node42&#45;&gt;Node6 -->
<g id="edge62" class="edge">
<title>Node42&#45;&gt;Node6</title>
<path fill="none" stroke="midnightblue" d="M1058.24,-68.7C987.9,-57.24 852.28,-35.13 782.25,-23.71"/>
<polygon fill="midnightblue" stroke="midnightblue" points="782.43,-20.2 772,-22.04 781.31,-27.11 782.43,-20.2"/>
</g>
<!-- Node42&#45;&gt;Node23 -->
<g id="edge64" class="edge">
<title>Node42&#45;&gt;Node23</title>
<path fill="none" stroke="midnightblue" d="M1147.77,-69.19C1194.26,-61.65 1268.88,-48.26 1332,-31 1334.96,-30.19 1338.02,-29.27 1341.07,-28.3"/>
<polygon fill="midnightblue" stroke="midnightblue" points="1342.27,-31.58 1350.63,-25.08 1340.04,-24.95 1342.27,-31.58"/>
</g>
<!-- Node43 -->
<g id="node43" class="node">
<title>Node43</title>
<g id="a_node43"><a xlink:href="itkMakeFilled_8h.html" target="_top" xlink:title=" ">
<polygon fill="white" stroke="black" points="1171.5,-6 1171.5,-25 1262.5,-25 1262.5,-6 1171.5,-6"/>
<text text-anchor="middle" x="1217" y="-13" font-family="Helvetica,sans-Serif" font-size="10.00">itkMakeFilled.h</text>
</a>
</g>
</g>
<!-- Node42&#45;&gt;Node43 -->
<g id="edge63" class="edge">
<title>Node42&#45;&gt;Node43</title>
<path fill="none" stroke="midnightblue" d="M1119.33,-67.48C1138.21,-57.62 1169.51,-41.29 1191.58,-29.77"/>
<polygon fill="midnightblue" stroke="midnightblue" points="1193.45,-32.74 1200.7,-25.01 1190.21,-26.53 1193.45,-32.74"/>
</g>
<!-- Node44 -->
<g id="node44" class="node">
<title>Node44</title>
<g id="a_node44"><a xlink:title=" ">
<polygon fill="white" stroke="#bfbfbf" points="1281,-6 1281,-25 1323,-25 1323,-6 1281,-6"/>
<text text-anchor="middle" x="1302" y="-13" font-family="Helvetica,sans-Serif" font-size="10.00">array</text>
</a>
</g>
</g>
<!-- Node42&#45;&gt;Node44 -->
<g id="edge65" class="edge">
<title>Node42&#45;&gt;Node44</title>
<path fill="none" stroke="midnightblue" d="M1143.62,-67.47C1178.28,-59.65 1229.16,-46.89 1272,-31 1273.42,-30.47 1274.87,-29.9 1276.32,-29.3"/>
<polygon fill="midnightblue" stroke="midnightblue" points="1278.06,-32.35 1285.74,-25.05 1275.19,-25.97 1278.06,-32.35"/>
</g>
<!-- Node45 -->
<g id="node45" class="node">
<title>Node45</title>
<g id="a_node45"><a xlink:title=" ">
<polygon fill="white" stroke="#bfbfbf" points="1052.5,-6 1052.5,-25 1153.5,-25 1153.5,-6 1052.5,-6"/>
<text text-anchor="middle" x="1103" y="-13" font-family="Helvetica,sans-Serif" font-size="10.00">itkFixedArray.hxx</text>
</a>
</g>
</g>
<!-- Node42&#45;&gt;Node45 -->
<g id="edge66" class="edge">
<title>Node42&#45;&gt;Node45</title>
<path fill="none" stroke="midnightblue" d="M1103,-67.48C1103,-59.08 1103,-45.98 1103,-35.16"/>
<polygon fill="midnightblue" stroke="midnightblue" points="1106.5,-35.01 1103,-25.01 1099.5,-35.01 1106.5,-35.01"/>
</g>
<!-- Node46 -->
<g id="node46" class="node">
<title>Node46</title>
<g id="a_node46"><a xlink:href="itkNumericTraitsFixedArrayPixel_8h.html" target="_top" xlink:title=" ">
<polygon fill="white" stroke="black" points="885.5,-0.5 885.5,-30.5 1034.5,-30.5 1034.5,-0.5 885.5,-0.5"/>
<text text-anchor="start" x="893.5" y="-18.5" font-family="Helvetica,sans-Serif" font-size="10.00">itkNumericTraitsFixedArray</text>
<text text-anchor="middle" x="960" y="-7.5" font-family="Helvetica,sans-Serif" font-size="10.00">Pixel.h</text>
</a>
</g>
</g>
<!-- Node42&#45;&gt;Node46 -->
<g id="edge67" class="edge">
<title>Node42&#45;&gt;Node46</title>
<path fill="none" stroke="midnightblue" d="M1077.61,-67.48C1055.2,-58.93 1022.48,-45.5 997.17,-34.57"/>
<polygon fill="midnightblue" stroke="midnightblue" points="998.44,-31.31 987.87,-30.52 995.64,-37.73 998.44,-31.31"/>
</g>
<!-- Node46&#45;&gt;Node39 -->
<g id="edge68" class="edge">
<title>Node46&#45;&gt;Node39</title>
<path fill="none" stroke="midnightblue" d="M965.98,-30.72C971.21,-45.28 976.96,-68.35 970,-87 965.83,-98.19 957.48,-108.44 949.58,-116.32"/>
<polygon fill="midnightblue" stroke="midnightblue" points="946.94,-114 941.99,-123.37 951.7,-119.13 946.94,-114"/>
</g>
<!-- Node46&#45;&gt;Node42 -->
<g id="edge69" class="edge">
<title>Node46&#45;&gt;Node42</title>
<path fill="none" stroke="midnightblue" d="M999.53,-30.52C1024.72,-40.47 1056.47,-53.7 1078.19,-63.33"/>
<polygon fill="midnightblue" stroke="midnightblue" points="1076.86,-66.57 1087.41,-67.48 1079.73,-60.18 1076.86,-66.57"/>
</g>
<!-- Node48&#45;&gt;Node8 -->
<g id="edge75" class="edge">
<title>Node48&#45;&gt;Node8</title>
<path fill="none" stroke="midnightblue" d="M841.15,-179.44C820.86,-170.9 789.31,-157.05 763,-143 733.02,-126.99 699.9,-105.88 679.03,-92.13"/>
<polygon fill="midnightblue" stroke="midnightblue" points="680.89,-89.16 670.62,-86.55 677.02,-94.99 680.89,-89.16"/>
</g>
<!-- Node48&#45;&gt;Node39 -->
<g id="edge74" class="edge">
<title>Node48&#45;&gt;Node39</title>
<path fill="none" stroke="midnightblue" d="M873.09,-179.32C883.49,-171.18 899.26,-158.84 911.72,-149.09"/>
<polygon fill="midnightblue" stroke="midnightblue" points="913.99,-151.75 919.71,-142.83 909.68,-146.24 913.99,-151.75"/>
</g>
<!-- Node49 -->
<g id="node49" class="node">
<title>Node49</title>
<g id="a_node49"><a xlink:href="itkPixelTraits_8h.html" target="_top" xlink:title=" ">
<polygon fill="white" stroke="black" points="772,-123.5 772,-142.5 860,-142.5 860,-123.5 772,-123.5"/>
<text text-anchor="middle" x="816" y="-130.5" font-family="Helvetica,sans-Serif" font-size="10.00">itkPixelTraits.h</text>
</a>
</g>
</g>
<!-- Node48&#45;&gt;Node49 -->
<g id="edge72" class="edge">
<title>Node48&#45;&gt;Node49</title>
<path fill="none" stroke="midnightblue" d="M854.4,-179.08C847.77,-171.3 837.98,-159.8 829.94,-150.37"/>
<polygon fill="midnightblue" stroke="midnightblue" points="832.6,-148.09 823.45,-142.75 827.27,-152.63 832.6,-148.09"/>
</g>
<!-- Node49&#45;&gt;Node6 -->
<g id="edge73" class="edge">
<title>Node49&#45;&gt;Node6</title>
<path fill="none" stroke="midnightblue" d="M810.14,-123.32C797.32,-104.34 766.6,-58.85 749.68,-33.79"/>
<polygon fill="midnightblue" stroke="midnightblue" points="752.43,-31.61 743.93,-25.28 746.63,-35.53 752.43,-31.61"/>
</g>
<!-- Node53&#45;&gt;Node4 -->
<g id="edge80" class="edge">
<title>Node53&#45;&gt;Node4</title>
<path fill="none" stroke="midnightblue" d="M411.63,-571.42C391.68,-564.71 367.67,-553.36 353,-535 316.2,-488.94 307.06,-451.89 340,-403 354.74,-381.12 382.13,-369.87 406.02,-364.1"/>
<polygon fill="midnightblue" stroke="midnightblue" points="406.96,-367.47 415.99,-361.94 405.48,-360.63 406.96,-367.47"/>
</g>
<!-- Node53&#45;&gt;Node29 -->
<g id="edge81" class="edge">
<title>Node53&#45;&gt;Node29</title>
<path fill="none" stroke="midnightblue" d="M440.72,-571.08C436.29,-563.61 429.84,-552.72 424.38,-543.52"/>
<polygon fill="midnightblue" stroke="midnightblue" points="427.29,-541.57 419.19,-534.75 421.27,-545.14 427.29,-541.57"/>
</g>
<!-- Node53&#45;&gt;Node35 -->
<g id="edge82" class="edge">
<title>Node53&#45;&gt;Node35</title>
<path fill="none" stroke="midnightblue" d="M465.33,-571.44C485.32,-562.6 516.74,-548.69 539.56,-538.59"/>
<polygon fill="midnightblue" stroke="midnightblue" points="541.03,-541.76 548.76,-534.52 538.2,-535.36 541.03,-541.76"/>
</g>
</g>
</svg>
