<?xml version="1.0" encoding="UTF-8" standalone="no"?>
<!DOCTYPE svg PUBLIC "-//W3C//DTD SVG 1.1//EN"
 "http://www.w3.org/Graphics/SVG/1.1/DTD/svg11.dtd">
<!-- Generated by graphviz version 2.43.0 (0)
 -->
<!-- Title: itkLabelOverlayFunctor.h Pages: 1 -->
<svg width="797pt" height="319pt"
 viewBox="0.00 0.00 797.00 319.00" xmlns="http://www.w3.org/2000/svg" xmlns:xlink="http://www.w3.org/1999/xlink">
<g id="graph0" class="graph" transform="scale(1 1) rotate(0) translate(4 315)">
<title>itkLabelOverlayFunctor.h</title>
<polygon fill="white" stroke="transparent" points="-4,4 -4,-315 793,-315 793,4 -4,4"/>
<!-- Node1 -->
<g id="node1" class="node">
<title>Node1</title>
<g id="a_node1"><a xlink:title=" ">
<polygon fill="#bfbfbf" stroke="black" points="266.5,-291.5 266.5,-310.5 404.5,-310.5 404.5,-291.5 266.5,-291.5"/>
<text text-anchor="middle" x="335.5" y="-298.5" font-family="Helvetica,sans-Serif" font-size="10.00">itkLabelOverlayFunctor.h</text>
</a>
</g>
</g>
<!-- Node2 -->
<g id="node2" class="node">
<title>Node2</title>
<g id="a_node2"><a xlink:href="itkLabelToRGBFunctor_8h.html" target="_top" xlink:title=" ">
<polygon fill="white" stroke="black" points="175,-235.5 175,-254.5 306,-254.5 306,-235.5 175,-235.5"/>
<text text-anchor="middle" x="240.5" y="-242.5" font-family="Helvetica,sans-Serif" font-size="10.00">itkLabelToRGBFunctor.h</text>
</a>
</g>
</g>
<!-- Node1&#45;&gt;Node2 -->
<g id="edge1" class="edge">
<title>Node1&#45;&gt;Node2</title>
<path fill="none" stroke="midnightblue" d="M320.24,-291.32C305.28,-282.82 282.25,-269.73 264.77,-259.8"/>
<polygon fill="midnightblue" stroke="midnightblue" points="266.15,-256.55 255.73,-254.65 262.69,-262.64 266.15,-256.55"/>
</g>
<!-- Node14 -->
<g id="node14" class="node">
<title>Node14</title>
<g id="a_node14"><a xlink:href="itkMath_8h.html" target="_top" xlink:title=" ">
<polygon fill="white" stroke="black" points="459,-235.5 459,-254.5 522,-254.5 522,-235.5 459,-235.5"/>
<text text-anchor="middle" x="490.5" y="-242.5" font-family="Helvetica,sans-Serif" font-size="10.00">itkMath.h</text>
</a>
</g>
</g>
<!-- Node1&#45;&gt;Node14 -->
<g id="edge16" class="edge">
<title>Node1&#45;&gt;Node14</title>
<path fill="none" stroke="midnightblue" d="M360.06,-291.44C386.02,-282.4 427.17,-268.06 456.3,-257.92"/>
<polygon fill="midnightblue" stroke="midnightblue" points="457.76,-261.11 466.05,-254.52 455.46,-254.5 457.76,-261.11"/>
</g>
<!-- Node3 -->
<g id="node3" class="node">
<title>Node3</title>
<g id="a_node3"><a xlink:title=" ">
<polygon fill="white" stroke="#bfbfbf" points="217,-179.5 217,-198.5 264,-198.5 264,-179.5 217,-179.5"/>
<text text-anchor="middle" x="240.5" y="-186.5" font-family="Helvetica,sans-Serif" font-size="10.00">vector</text>
</a>
</g>
</g>
<!-- Node2&#45;&gt;Node3 -->
<g id="edge2" class="edge">
<title>Node2&#45;&gt;Node3</title>
<path fill="none" stroke="midnightblue" d="M240.5,-235.08C240.5,-228.01 240.5,-217.86 240.5,-208.99"/>
<polygon fill="midnightblue" stroke="midnightblue" points="244,-208.75 240.5,-198.75 237,-208.75 244,-208.75"/>
</g>
<!-- Node4 -->
<g id="node4" class="node">
<title>Node4</title>
<g id="a_node4"><a xlink:href="itkNumericTraits_8h.html" target="_top" xlink:title=" ">
<polygon fill="white" stroke="black" points="330.5,-123.5 330.5,-142.5 436.5,-142.5 436.5,-123.5 330.5,-123.5"/>
<text text-anchor="middle" x="383.5" y="-130.5" font-family="Helvetica,sans-Serif" font-size="10.00">itkNumericTraits.h</text>
</a>
</g>
</g>
<!-- Node2&#45;&gt;Node4 -->
<g id="edge3" class="edge">
<title>Node2&#45;&gt;Node4</title>
<path fill="none" stroke="midnightblue" d="M230.28,-235.41C216.01,-222.37 193.37,-197.19 207.5,-179 221.48,-160.99 275.8,-148.97 320.44,-141.92"/>
<polygon fill="midnightblue" stroke="midnightblue" points="321.02,-145.37 330.38,-140.41 319.96,-138.45 321.02,-145.37"/>
</g>
<!-- Node5 -->
<g id="node5" class="node">
<title>Node5</title>
<g id="a_node5"><a xlink:href="itkMacro_8h.html" target="_top" xlink:title=" ">
<polygon fill="white" stroke="black" points="537.5,-6 537.5,-25 605.5,-25 605.5,-6 537.5,-6"/>
<text text-anchor="middle" x="571.5" y="-13" font-family="Helvetica,sans-Serif" font-size="10.00">itkMacro.h</text>
</a>
</g>
</g>
<!-- Node4&#45;&gt;Node5 -->
<g id="edge4" class="edge">
<title>Node4&#45;&gt;Node5</title>
<path fill="none" stroke="midnightblue" d="M417.98,-123.49C443.06,-116.29 477.09,-104.34 503.5,-87 525.84,-72.33 546.38,-49.1 558.91,-33.35"/>
<polygon fill="midnightblue" stroke="midnightblue" points="561.97,-35.12 565.31,-25.07 556.43,-30.84 561.97,-35.12"/>
</g>
<!-- Node6 -->
<g id="node6" class="node">
<title>Node6</title>
<g id="a_node6"><a xlink:title=" ">
<polygon fill="white" stroke="#bfbfbf" points="372.5,-67.5 372.5,-86.5 416.5,-86.5 416.5,-67.5 372.5,-67.5"/>
<text text-anchor="middle" x="394.5" y="-74.5" font-family="Helvetica,sans-Serif" font-size="10.00">limits</text>
</a>
</g>
</g>
<!-- Node4&#45;&gt;Node6 -->
<g id="edge5" class="edge">
<title>Node4&#45;&gt;Node6</title>
<path fill="none" stroke="midnightblue" d="M385.32,-123.08C386.77,-115.93 388.87,-105.64 390.69,-96.69"/>
<polygon fill="midnightblue" stroke="midnightblue" points="394.15,-97.25 392.72,-86.75 387.29,-95.85 394.15,-97.25"/>
</g>
<!-- Node7 -->
<g id="node7" class="node">
<title>Node7</title>
<g id="a_node7"><a xlink:title=" ">
<polygon fill="white" stroke="#bfbfbf" points="435,-67.5 435,-86.5 494,-86.5 494,-67.5 435,-67.5"/>
<text text-anchor="middle" x="464.5" y="-74.5" font-family="Helvetica,sans-Serif" font-size="10.00">complex</text>
</a>
</g>
</g>
<!-- Node4&#45;&gt;Node7 -->
<g id="edge6" class="edge">
<title>Node4&#45;&gt;Node7</title>
<path fill="none" stroke="midnightblue" d="M396.51,-123.32C409.03,-114.98 428.18,-102.21 442.97,-92.35"/>
<polygon fill="midnightblue" stroke="midnightblue" points="445.14,-95.11 451.52,-86.65 441.26,-89.29 445.14,-95.11"/>
</g>
<!-- Node8 -->
<g id="node8" class="node">
<title>Node8</title>
<g id="a_node8"><a xlink:href="itkFixedArray_8h.html" target="_top" xlink:title=" ">
<polygon fill="white" stroke="black" points="266,-67.5 266,-86.5 355,-86.5 355,-67.5 266,-67.5"/>
<text text-anchor="middle" x="310.5" y="-74.5" font-family="Helvetica,sans-Serif" font-size="10.00">itkFixedArray.h</text>
</a>
</g>
</g>
<!-- Node4&#45;&gt;Node8 -->
<g id="edge7" class="edge">
<title>Node4&#45;&gt;Node8</title>
<path fill="none" stroke="midnightblue" d="M371.77,-123.32C360.66,-115.11 343.76,-102.6 330.52,-92.81"/>
<polygon fill="midnightblue" stroke="midnightblue" points="332.56,-89.97 322.44,-86.83 328.4,-95.59 332.56,-89.97"/>
</g>
<!-- Node8&#45;&gt;Node5 -->
<g id="edge8" class="edge">
<title>Node8&#45;&gt;Node5</title>
<path fill="none" stroke="midnightblue" d="M355.13,-68.43C399.46,-60.53 469.19,-47.06 528.5,-31 531.52,-30.18 534.64,-29.27 537.75,-28.31"/>
<polygon fill="midnightblue" stroke="midnightblue" points="539.11,-31.55 547.55,-25.15 536.96,-24.89 539.11,-31.55"/>
</g>
<!-- Node9 -->
<g id="node9" class="node">
<title>Node9</title>
<g id="a_node9"><a xlink:href="itkMakeFilled_8h.html" target="_top" xlink:title=" ">
<polygon fill="white" stroke="black" points="286,-6 286,-25 377,-25 377,-6 286,-6"/>
<text text-anchor="middle" x="331.5" y="-13" font-family="Helvetica,sans-Serif" font-size="10.00">itkMakeFilled.h</text>
</a>
</g>
</g>
<!-- Node8&#45;&gt;Node9 -->
<g id="edge9" class="edge">
<title>Node8&#45;&gt;Node9</title>
<path fill="none" stroke="midnightblue" d="M313.51,-67.48C316.53,-58.9 321.29,-45.43 325.15,-34.48"/>
<polygon fill="midnightblue" stroke="midnightblue" points="328.47,-35.6 328.5,-25.01 321.87,-33.27 328.47,-35.6"/>
</g>
<!-- Node10 -->
<g id="node10" class="node">
<title>Node10</title>
<g id="a_node10"><a xlink:title=" ">
<polygon fill="white" stroke="#bfbfbf" points="395.5,-6 395.5,-25 459.5,-25 459.5,-6 395.5,-6"/>
<text text-anchor="middle" x="427.5" y="-13" font-family="Helvetica,sans-Serif" font-size="10.00">algorithm</text>
</a>
</g>
</g>
<!-- Node8&#45;&gt;Node10 -->
<g id="edge10" class="edge">
<title>Node8&#45;&gt;Node10</title>
<path fill="none" stroke="midnightblue" d="M327.26,-67.48C346.72,-57.58 379.05,-41.14 401.71,-29.62"/>
<polygon fill="midnightblue" stroke="midnightblue" points="403.44,-32.66 410.77,-25.01 400.27,-26.42 403.44,-32.66"/>
</g>
<!-- Node11 -->
<g id="node11" class="node">
<title>Node11</title>
<g id="a_node11"><a xlink:title=" ">
<polygon fill="white" stroke="#bfbfbf" points="477.5,-6 477.5,-25 519.5,-25 519.5,-6 477.5,-6"/>
<text text-anchor="middle" x="498.5" y="-13" font-family="Helvetica,sans-Serif" font-size="10.00">array</text>
</a>
</g>
</g>
<!-- Node8&#45;&gt;Node11 -->
<g id="edge11" class="edge">
<title>Node8&#45;&gt;Node11</title>
<path fill="none" stroke="midnightblue" d="M347.16,-67.47C379.56,-59.48 427.85,-46.48 468.5,-31 469.89,-30.47 471.29,-29.91 472.71,-29.31"/>
<polygon fill="midnightblue" stroke="midnightblue" points="474.24,-32.46 481.91,-25.15 471.35,-26.08 474.24,-32.46"/>
</g>
<!-- Node12 -->
<g id="node12" class="node">
<title>Node12</title>
<g id="a_node12"><a xlink:title=" ">
<polygon fill="white" stroke="#bfbfbf" points="167,-6 167,-25 268,-25 268,-6 167,-6"/>
<text text-anchor="middle" x="217.5" y="-13" font-family="Helvetica,sans-Serif" font-size="10.00">itkFixedArray.hxx</text>
</a>
</g>
</g>
<!-- Node8&#45;&gt;Node12 -->
<g id="edge12" class="edge">
<title>Node8&#45;&gt;Node12</title>
<path fill="none" stroke="midnightblue" d="M297.18,-67.48C282.12,-57.84 257.38,-42.02 239.46,-30.55"/>
<polygon fill="midnightblue" stroke="midnightblue" points="241.11,-27.45 230.8,-25.01 237.34,-33.35 241.11,-27.45"/>
</g>
<!-- Node13 -->
<g id="node13" class="node">
<title>Node13</title>
<g id="a_node13"><a xlink:href="itkNumericTraitsFixedArrayPixel_8h.html" target="_top" xlink:title=" ">
<polygon fill="white" stroke="black" points="0,-0.5 0,-30.5 149,-30.5 149,-0.5 0,-0.5"/>
<text text-anchor="start" x="8" y="-18.5" font-family="Helvetica,sans-Serif" font-size="10.00">itkNumericTraitsFixedArray</text>
<text text-anchor="middle" x="74.5" y="-7.5" font-family="Helvetica,sans-Serif" font-size="10.00">Pixel.h</text>
</a>
</g>
</g>
<!-- Node8&#45;&gt;Node13 -->
<g id="edge13" class="edge">
<title>Node8&#45;&gt;Node13</title>
<path fill="none" stroke="midnightblue" d="M271.79,-67.48C234.36,-58.53 177.3,-44.25 134.11,-33.07"/>
<polygon fill="midnightblue" stroke="midnightblue" points="134.85,-29.65 124.29,-30.52 133.09,-36.42 134.85,-29.65"/>
</g>
<!-- Node13&#45;&gt;Node4 -->
<g id="edge14" class="edge">
<title>Node13&#45;&gt;Node4</title>
<path fill="none" stroke="midnightblue" d="M109.96,-30.59C146.55,-45.04 205.35,-68.03 256.5,-87 287.67,-98.56 323.38,-111.15 348.98,-120.07"/>
<polygon fill="midnightblue" stroke="midnightblue" points="348.01,-123.44 358.6,-123.42 350.3,-116.83 348.01,-123.44"/>
</g>
<!-- Node13&#45;&gt;Node8 -->
<g id="edge15" class="edge">
<title>Node13&#45;&gt;Node8</title>
<path fill="none" stroke="midnightblue" d="M135.95,-30.52C178.88,-41.01 234.82,-55.14 271.71,-64.86"/>
<polygon fill="midnightblue" stroke="midnightblue" points="271.02,-68.3 281.59,-67.48 272.82,-61.53 271.02,-68.3"/>
</g>
<!-- Node15 -->
<g id="node15" class="node">
<title>Node15</title>
<g id="a_node15"><a xlink:title=" ">
<polygon fill="white" stroke="#bfbfbf" points="742,-179.5 742,-198.5 789,-198.5 789,-179.5 742,-179.5"/>
<text text-anchor="middle" x="765.5" y="-186.5" font-family="Helvetica,sans-Serif" font-size="10.00">cmath</text>
</a>
</g>
</g>
<!-- Node14&#45;&gt;Node15 -->
<g id="edge17" class="edge">
<title>Node14&#45;&gt;Node15</title>
<path fill="none" stroke="midnightblue" d="M522.38,-238.93C567.02,-231.65 650.85,-217.3 731.9,-198.98"/>
<polygon fill="midnightblue" stroke="midnightblue" points="732.8,-202.36 741.77,-196.72 731.24,-195.54 732.8,-202.36"/>
</g>
<!-- Node16 -->
<g id="node16" class="node">
<title>Node16</title>
<g id="a_node16"><a xlink:href="itkMathDetail_8h.html" target="_top" xlink:title=" ">
<polygon fill="white" stroke="black" points="631.5,-179.5 631.5,-198.5 723.5,-198.5 723.5,-179.5 631.5,-179.5"/>
<text text-anchor="middle" x="677.5" y="-186.5" font-family="Helvetica,sans-Serif" font-size="10.00">itkMathDetail.h</text>
</a>
</g>
</g>
<!-- Node14&#45;&gt;Node16 -->
<g id="edge18" class="edge">
<title>Node14&#45;&gt;Node16</title>
<path fill="none" stroke="midnightblue" d="M520.13,-235.44C552,-226.24 602.83,-211.56 638.06,-201.39"/>
<polygon fill="midnightblue" stroke="midnightblue" points="639.37,-204.65 648.01,-198.52 637.43,-197.93 639.37,-204.65"/>
</g>
<!-- Node21 -->
<g id="node21" class="node">
<title>Node21</title>
<g id="a_node21"><a xlink:href="itkConceptChecking_8h.html" target="_top" xlink:title=" ">
<polygon fill="white" stroke="black" points="490,-179.5 490,-198.5 613,-198.5 613,-179.5 490,-179.5"/>
<text text-anchor="middle" x="551.5" y="-186.5" font-family="Helvetica,sans-Serif" font-size="10.00">itkConceptChecking.h</text>
</a>
</g>
</g>
<!-- Node14&#45;&gt;Node21 -->
<g id="edge25" class="edge">
<title>Node14&#45;&gt;Node21</title>
<path fill="none" stroke="midnightblue" d="M500.3,-235.32C509.32,-227.34 522.91,-215.31 533.82,-205.65"/>
<polygon fill="midnightblue" stroke="midnightblue" points="536.35,-208.08 541.52,-198.83 531.71,-202.84 536.35,-208.08"/>
</g>
<!-- Node24 -->
<g id="node24" class="node">
<title>Node24</title>
<g id="a_node24"><a xlink:title=" ">
<polygon fill="white" stroke="#bfbfbf" points="282,-179.5 282,-198.5 371,-198.5 371,-179.5 282,-179.5"/>
<text text-anchor="middle" x="326.5" y="-186.5" font-family="Helvetica,sans-Serif" font-size="10.00">vnl/vnl_math.h</text>
</a>
</g>
</g>
<!-- Node14&#45;&gt;Node24 -->
<g id="edge30" class="edge">
<title>Node14&#45;&gt;Node24</title>
<path fill="none" stroke="midnightblue" d="M464.51,-235.44C436.8,-226.32 392.75,-211.81 361.88,-201.65"/>
<polygon fill="midnightblue" stroke="midnightblue" points="362.96,-198.32 352.36,-198.52 360.77,-204.97 362.96,-198.32"/>
</g>
<!-- Node25 -->
<g id="node25" class="node">
<title>Node25</title>
<g id="a_node25"><a xlink:title=" ">
<polygon fill="white" stroke="#bfbfbf" points="389.5,-179.5 389.5,-198.5 471.5,-198.5 471.5,-179.5 389.5,-179.5"/>
<text text-anchor="middle" x="430.5" y="-186.5" font-family="Helvetica,sans-Serif" font-size="10.00">vxl_version.h</text>
</a>
</g>
</g>
<!-- Node14&#45;&gt;Node25 -->
<g id="edge31" class="edge">
<title>Node14&#45;&gt;Node25</title>
<path fill="none" stroke="midnightblue" d="M480.86,-235.32C471.99,-227.34 458.63,-215.31 447.89,-205.65"/>
<polygon fill="midnightblue" stroke="midnightblue" points="450.09,-202.92 440.32,-198.83 445.41,-208.13 450.09,-202.92"/>
</g>
<!-- Node16&#45;&gt;Node4 -->
<g id="edge23" class="edge">
<title>Node16&#45;&gt;Node4</title>
<path fill="none" stroke="midnightblue" d="M631.24,-179.5C579.48,-170 495.62,-154.59 440.01,-144.38"/>
<polygon fill="midnightblue" stroke="midnightblue" points="440.44,-140.9 429.98,-142.54 439.18,-147.79 440.44,-140.9"/>
</g>
<!-- Node17 -->
<g id="node17" class="node">
<title>Node17</title>
<g id="a_node17"><a xlink:href="itkIntTypes_8h.html" target="_top" xlink:title=" ">
<polygon fill="white" stroke="black" points="638,-123.5 638,-142.5 717,-142.5 717,-123.5 638,-123.5"/>
<text text-anchor="middle" x="677.5" y="-130.5" font-family="Helvetica,sans-Serif" font-size="10.00">itkIntTypes.h</text>
</a>
</g>
</g>
<!-- Node16&#45;&gt;Node17 -->
<g id="edge19" class="edge">
<title>Node16&#45;&gt;Node17</title>
<path fill="none" stroke="midnightblue" d="M677.5,-179.08C677.5,-172.01 677.5,-161.86 677.5,-152.99"/>
<polygon fill="midnightblue" stroke="midnightblue" points="681,-152.75 677.5,-142.75 674,-152.75 681,-152.75"/>
</g>
<!-- Node20 -->
<g id="node20" class="node">
<title>Node20</title>
<g id="a_node20"><a xlink:title=" ">
<polygon fill="white" stroke="#bfbfbf" points="734.5,-123.5 734.5,-142.5 778.5,-142.5 778.5,-123.5 734.5,-123.5"/>
<text text-anchor="middle" x="756.5" y="-130.5" font-family="Helvetica,sans-Serif" font-size="10.00">cfenv</text>
</a>
</g>
</g>
<!-- Node16&#45;&gt;Node20 -->
<g id="edge24" class="edge">
<title>Node16&#45;&gt;Node20</title>
<path fill="none" stroke="midnightblue" d="M690.19,-179.32C702.4,-170.98 721.08,-158.21 735.5,-148.35"/>
<polygon fill="midnightblue" stroke="midnightblue" points="737.56,-151.19 743.84,-142.65 733.61,-145.41 737.56,-151.19"/>
</g>
<!-- Node17&#45;&gt;Node5 -->
<g id="edge20" class="edge">
<title>Node17&#45;&gt;Node5</title>
<path fill="none" stroke="midnightblue" d="M676.96,-123.07C675.73,-109.59 671.7,-83.84 658.5,-67 645.05,-49.83 624.02,-37.4 606.01,-29.16"/>
<polygon fill="midnightblue" stroke="midnightblue" points="606.94,-25.76 596.38,-25.02 604.18,-32.19 606.94,-25.76"/>
</g>
<!-- Node18 -->
<g id="node18" class="node">
<title>Node18</title>
<g id="a_node18"><a xlink:title=" ">
<polygon fill="white" stroke="#bfbfbf" points="705.5,-67.5 705.5,-86.5 755.5,-86.5 755.5,-67.5 705.5,-67.5"/>
<text text-anchor="middle" x="730.5" y="-74.5" font-family="Helvetica,sans-Serif" font-size="10.00">cstdint</text>
</a>
</g>
</g>
<!-- Node17&#45;&gt;Node18 -->
<g id="edge21" class="edge">
<title>Node17&#45;&gt;Node18</title>
<path fill="none" stroke="midnightblue" d="M686.25,-123.08C693.97,-115.22 705.4,-103.57 714.72,-94.08"/>
<polygon fill="midnightblue" stroke="midnightblue" points="717.4,-96.34 721.91,-86.75 712.41,-91.44 717.4,-96.34"/>
</g>
<!-- Node19 -->
<g id="node19" class="node">
<title>Node19</title>
<g id="a_node19"><a xlink:title=" ">
<polygon fill="white" stroke="#bfbfbf" points="599.5,-67.5 599.5,-86.5 649.5,-86.5 649.5,-67.5 599.5,-67.5"/>
<text text-anchor="middle" x="624.5" y="-74.5" font-family="Helvetica,sans-Serif" font-size="10.00">climits</text>
</a>
</g>
</g>
<!-- Node17&#45;&gt;Node19 -->
<g id="edge22" class="edge">
<title>Node17&#45;&gt;Node19</title>
<path fill="none" stroke="midnightblue" d="M668.75,-123.08C661.03,-115.22 649.6,-103.57 640.28,-94.08"/>
<polygon fill="midnightblue" stroke="midnightblue" points="642.59,-91.44 633.09,-86.75 637.6,-96.34 642.59,-91.44"/>
</g>
<!-- Node21&#45;&gt;Node4 -->
<g id="edge28" class="edge">
<title>Node21&#45;&gt;Node4</title>
<path fill="none" stroke="midnightblue" d="M524.88,-179.44C496.49,-170.32 451.36,-155.81 419.75,-145.65"/>
<polygon fill="midnightblue" stroke="midnightblue" points="420.59,-142.24 410,-142.52 418.44,-148.91 420.59,-142.24"/>
</g>
<!-- Node22 -->
<g id="node22" class="node">
<title>Node22</title>
<g id="a_node22"><a xlink:href="itkPixelTraits_8h.html" target="_top" xlink:title=" ">
<polygon fill="white" stroke="black" points="532.5,-123.5 532.5,-142.5 620.5,-142.5 620.5,-123.5 532.5,-123.5"/>
<text text-anchor="middle" x="576.5" y="-130.5" font-family="Helvetica,sans-Serif" font-size="10.00">itkPixelTraits.h</text>
</a>
</g>
</g>
<!-- Node21&#45;&gt;Node22 -->
<g id="edge26" class="edge">
<title>Node21&#45;&gt;Node22</title>
<path fill="none" stroke="midnightblue" d="M555.63,-179.08C559.01,-171.77 563.92,-161.18 568.12,-152.1"/>
<polygon fill="midnightblue" stroke="midnightblue" points="571.42,-153.3 572.45,-142.75 565.07,-150.36 571.42,-153.3"/>
</g>
<!-- Node23 -->
<g id="node23" class="node">
<title>Node23</title>
<g id="a_node23"><a xlink:title=" ">
<polygon fill="white" stroke="#bfbfbf" points="454.5,-123.5 454.5,-142.5 514.5,-142.5 514.5,-123.5 454.5,-123.5"/>
<text text-anchor="middle" x="484.5" y="-130.5" font-family="Helvetica,sans-Serif" font-size="10.00">iostream</text>
</a>
</g>
</g>
<!-- Node21&#45;&gt;Node23 -->
<g id="edge29" class="edge">
<title>Node21&#45;&gt;Node23</title>
<path fill="none" stroke="midnightblue" d="M540.74,-179.32C530.73,-171.26 515.61,-159.08 503.57,-149.37"/>
<polygon fill="midnightblue" stroke="midnightblue" points="505.44,-146.38 495.46,-142.83 501.05,-151.83 505.44,-146.38"/>
</g>
<!-- Node22&#45;&gt;Node5 -->
<g id="edge27" class="edge">
<title>Node22&#45;&gt;Node5</title>
<path fill="none" stroke="midnightblue" d="M576.12,-123.32C575.32,-104.76 573.42,-60.84 572.32,-35.47"/>
<polygon fill="midnightblue" stroke="midnightblue" points="575.81,-35.12 571.88,-25.28 568.82,-35.42 575.81,-35.12"/>
</g>
</g>
</svg>
