<?xml version="1.0" encoding="UTF-8" standalone="no"?>
<!DOCTYPE svg PUBLIC "-//W3C//DTD SVG 1.1//EN"
 "http://www.w3.org/Graphics/SVG/1.1/DTD/svg11.dtd">
<!-- Generated by graphviz version 2.43.0 (0)
 -->
<!-- Title: itkLabelObjectLine.h Pages: 1 -->
<svg width="810pt" height="431pt"
 viewBox="0.00 0.00 810.00 431.00" xmlns="http://www.w3.org/2000/svg" xmlns:xlink="http://www.w3.org/1999/xlink">
<g id="graph0" class="graph" transform="scale(1 1) rotate(0) translate(4 427)">
<title>itkLabelObjectLine.h</title>
<polygon fill="white" stroke="transparent" points="-4,4 -4,-427 806,-427 806,4 -4,4"/>
<!-- Node1 -->
<g id="node1" class="node">
<title>Node1</title>
<g id="a_node1"><a xlink:title=" ">
<polygon fill="#bfbfbf" stroke="black" points="588,-403.5 588,-422.5 704,-422.5 704,-403.5 588,-403.5"/>
<text text-anchor="middle" x="646" y="-410.5" font-family="Helvetica,sans-Serif" font-size="10.00">itkLabelObjectLine.h</text>
</a>
</g>
</g>
<!-- Node2 -->
<g id="node2" class="node">
<title>Node2</title>
<g id="a_node2"><a xlink:href="itkIndex_8h.html" target="_top" xlink:title=" ">
<polygon fill="white" stroke="black" points="85.5,-347.5 85.5,-366.5 150.5,-366.5 150.5,-347.5 85.5,-347.5"/>
<text text-anchor="middle" x="118" y="-354.5" font-family="Helvetica,sans-Serif" font-size="10.00">itkIndex.h</text>
</a>
</g>
</g>
<!-- Node1&#45;&gt;Node2 -->
<g id="edge1" class="edge">
<title>Node1&#45;&gt;Node2</title>
<path fill="none" stroke="midnightblue" d="M587.98,-406.07C480.96,-395.12 254.79,-371.99 160.58,-362.36"/>
<polygon fill="midnightblue" stroke="midnightblue" points="160.86,-358.87 150.56,-361.33 160.15,-365.83 160.86,-358.87"/>
</g>
<!-- Node29 -->
<g id="node29" class="node">
<title>Node29</title>
<g id="a_node29"><a xlink:href="itkIndent_8h.html" target="_top" xlink:title=" ">
<polygon fill="white" stroke="black" points="731.5,-179.5 731.5,-198.5 800.5,-198.5 800.5,-179.5 731.5,-179.5"/>
<text text-anchor="middle" x="766" y="-186.5" font-family="Helvetica,sans-Serif" font-size="10.00">itkIndent.h</text>
</a>
</g>
</g>
<!-- Node1&#45;&gt;Node29 -->
<g id="edge40" class="edge">
<title>Node1&#45;&gt;Node29</title>
<path fill="none" stroke="midnightblue" d="M647.71,-403.31C650.39,-390.57 656.22,-366.25 665,-347 689.9,-292.43 731.59,-234.7 752.77,-206.91"/>
<polygon fill="midnightblue" stroke="midnightblue" points="755.78,-208.73 759.12,-198.68 750.24,-204.46 755.78,-208.73"/>
</g>
<!-- Node30 -->
<g id="node30" class="node">
<title>Node30</title>
<g id="a_node30"><a xlink:title=" ">
<polygon fill="white" stroke="#bfbfbf" points="674,-347.5 674,-366.5 802,-366.5 802,-347.5 674,-347.5"/>
<text text-anchor="middle" x="738" y="-354.5" font-family="Helvetica,sans-Serif" font-size="10.00">itkLabelObjectLine.hxx</text>
</a>
</g>
</g>
<!-- Node1&#45;&gt;Node30 -->
<g id="edge43" class="edge">
<title>Node1&#45;&gt;Node30</title>
<path fill="none" stroke="midnightblue" d="M660.78,-403.32C675.27,-394.82 697.57,-381.73 714.49,-371.8"/>
<polygon fill="midnightblue" stroke="midnightblue" points="716.4,-374.74 723.26,-366.65 712.86,-368.7 716.4,-374.74"/>
</g>
<!-- Node3 -->
<g id="node3" class="node">
<title>Node3</title>
<g id="a_node3"><a xlink:href="itkMakeFilled_8h.html" target="_top" xlink:title=" ">
<polygon fill="white" stroke="black" points="22.5,-6 22.5,-25 113.5,-25 113.5,-6 22.5,-6"/>
<text text-anchor="middle" x="68" y="-13" font-family="Helvetica,sans-Serif" font-size="10.00">itkMakeFilled.h</text>
</a>
</g>
</g>
<!-- Node2&#45;&gt;Node3 -->
<g id="edge2" class="edge">
<title>Node2&#45;&gt;Node3</title>
<path fill="none" stroke="midnightblue" d="M96.08,-347.39C61.96,-332.37 0,-297.95 0,-246 0,-246 0,-246 0,-132 0,-101.9 3.85,-93.01 19,-67 26.86,-53.51 39.09,-40.9 49.36,-31.65"/>
<polygon fill="midnightblue" stroke="midnightblue" points="51.78,-34.19 57.06,-25.01 47.2,-28.89 51.78,-34.19"/>
</g>
<!-- Node4 -->
<g id="node4" class="node">
<title>Node4</title>
<g id="a_node4"><a xlink:href="itkOffset_8h.html" target="_top" xlink:title=" ">
<polygon fill="white" stroke="black" points="140,-291.5 140,-310.5 208,-310.5 208,-291.5 140,-291.5"/>
<text text-anchor="middle" x="174" y="-298.5" font-family="Helvetica,sans-Serif" font-size="10.00">itkOffset.h</text>
</a>
</g>
</g>
<!-- Node2&#45;&gt;Node4 -->
<g id="edge3" class="edge">
<title>Node2&#45;&gt;Node4</title>
<path fill="none" stroke="midnightblue" d="M127,-347.32C135.19,-339.42 147.51,-327.55 157.47,-317.94"/>
<polygon fill="midnightblue" stroke="midnightblue" points="160.07,-320.29 164.84,-310.83 155.21,-315.26 160.07,-320.29"/>
</g>
<!-- Node11 -->
<g id="node11" class="node">
<title>Node11</title>
<g id="a_node11"><a xlink:title=" ">
<polygon fill="white" stroke="#bfbfbf" points="28.5,-67.5 28.5,-86.5 97.5,-86.5 97.5,-67.5 28.5,-67.5"/>
<text text-anchor="middle" x="63" y="-74.5" font-family="Helvetica,sans-Serif" font-size="10.00">type_traits</text>
</a>
</g>
</g>
<!-- Node2&#45;&gt;Node11 -->
<g id="edge39" class="edge">
<title>Node2&#45;&gt;Node11</title>
<path fill="none" stroke="midnightblue" d="M113.82,-347.39C105.36,-329.16 87,-285.09 87,-246 87,-246 87,-246 87,-188 87,-155.06 76.6,-117.82 69.49,-96.21"/>
<polygon fill="midnightblue" stroke="midnightblue" points="72.78,-95.03 66.24,-86.7 66.16,-97.29 72.78,-95.03"/>
</g>
<!-- Node5 -->
<g id="node5" class="node">
<title>Node5</title>
<g id="a_node5"><a xlink:href="itkSize_8h.html" target="_top" xlink:title=" ">
<polygon fill="white" stroke="black" points="144.5,-123.5 144.5,-142.5 203.5,-142.5 203.5,-123.5 144.5,-123.5"/>
<text text-anchor="middle" x="174" y="-130.5" font-family="Helvetica,sans-Serif" font-size="10.00">itkSize.h</text>
</a>
</g>
</g>
<!-- Node4&#45;&gt;Node5 -->
<g id="edge4" class="edge">
<title>Node4&#45;&gt;Node5</title>
<path fill="none" stroke="midnightblue" d="M174,-291.08C174,-264.95 174,-188.21 174,-152.58"/>
<polygon fill="midnightblue" stroke="midnightblue" points="177.5,-152.57 174,-142.57 170.5,-152.57 177.5,-152.57"/>
</g>
<!-- Node13 -->
<g id="node13" class="node">
<title>Node13</title>
<g id="a_node13"><a xlink:href="itkMath_8h.html" target="_top" xlink:title=" ">
<polygon fill="white" stroke="black" points="382.5,-235.5 382.5,-254.5 445.5,-254.5 445.5,-235.5 382.5,-235.5"/>
<text text-anchor="middle" x="414" y="-242.5" font-family="Helvetica,sans-Serif" font-size="10.00">itkMath.h</text>
</a>
</g>
</g>
<!-- Node4&#45;&gt;Node13 -->
<g id="edge14" class="edge">
<title>Node4&#45;&gt;Node13</title>
<path fill="none" stroke="midnightblue" d="M208.13,-292.32C251.41,-282.58 326,-265.8 372.52,-255.33"/>
<polygon fill="midnightblue" stroke="midnightblue" points="373.29,-258.75 382.28,-253.14 371.76,-251.92 373.29,-258.75"/>
</g>
<!-- Node5&#45;&gt;Node3 -->
<g id="edge10" class="edge">
<title>Node5&#45;&gt;Node3</title>
<path fill="none" stroke="midnightblue" d="M166.03,-123.32C148.38,-104.09 105.76,-57.64 82.96,-32.81"/>
<polygon fill="midnightblue" stroke="midnightblue" points="85.4,-30.28 76.06,-25.28 80.24,-35.02 85.4,-30.28"/>
</g>
<!-- Node6 -->
<g id="node6" class="node">
<title>Node6</title>
<g id="a_node6"><a xlink:href="itkIntTypes_8h.html" target="_top" xlink:title=" ">
<polygon fill="white" stroke="black" points="268.5,-67.5 268.5,-86.5 347.5,-86.5 347.5,-67.5 268.5,-67.5"/>
<text text-anchor="middle" x="308" y="-74.5" font-family="Helvetica,sans-Serif" font-size="10.00">itkIntTypes.h</text>
</a>
</g>
</g>
<!-- Node5&#45;&gt;Node6 -->
<g id="edge5" class="edge">
<title>Node5&#45;&gt;Node6</title>
<path fill="none" stroke="midnightblue" d="M195.23,-123.44C217.38,-114.52 252.32,-100.44 277.44,-90.32"/>
<polygon fill="midnightblue" stroke="midnightblue" points="278.9,-93.5 286.87,-86.52 276.28,-87.01 278.9,-93.5"/>
</g>
<!-- Node7 -->
<g id="node7" class="node">
<title>Node7</title>
<g id="a_node7"><a xlink:href="itkMacro_8h.html" target="_top" xlink:title=" ">
<polygon fill="white" stroke="black" points="696,-6 696,-25 764,-25 764,-6 696,-6"/>
<text text-anchor="middle" x="730" y="-13" font-family="Helvetica,sans-Serif" font-size="10.00">itkMacro.h</text>
</a>
</g>
</g>
<!-- Node5&#45;&gt;Node7 -->
<g id="edge9" class="edge">
<title>Node5&#45;&gt;Node7</title>
<path fill="none" stroke="midnightblue" d="M203.67,-126.26C209.73,-125.13 216.06,-124 222,-123 329.24,-104.98 360.65,-120.8 464,-87 482.14,-81.07 483.99,-73.33 502,-67 581.44,-39.09 606.67,-52.79 688,-31 691.03,-30.19 694.16,-29.27 697.28,-28.29"/>
<polygon fill="midnightblue" stroke="midnightblue" points="698.67,-31.52 707.07,-25.07 696.48,-24.87 698.67,-31.52"/>
</g>
<!-- Node10 -->
<g id="node10" class="node">
<title>Node10</title>
<g id="a_node10"><a xlink:title=" ">
<polygon fill="white" stroke="#bfbfbf" points="132,-6 132,-25 196,-25 196,-6 132,-6"/>
<text text-anchor="middle" x="164" y="-13" font-family="Helvetica,sans-Serif" font-size="10.00">algorithm</text>
</a>
</g>
</g>
<!-- Node5&#45;&gt;Node10 -->
<g id="edge11" class="edge">
<title>Node5&#45;&gt;Node10</title>
<path fill="none" stroke="midnightblue" d="M173.25,-123.32C171.64,-104.76 167.84,-60.84 165.64,-35.47"/>
<polygon fill="midnightblue" stroke="midnightblue" points="169.11,-34.94 164.76,-25.28 162.14,-35.55 169.11,-34.94"/>
</g>
<!-- Node5&#45;&gt;Node11 -->
<g id="edge12" class="edge">
<title>Node5&#45;&gt;Node11</title>
<path fill="none" stroke="midnightblue" d="M156.17,-123.32C138.28,-114.62 110.52,-101.12 89.95,-91.11"/>
<polygon fill="midnightblue" stroke="midnightblue" points="91.31,-87.88 80.79,-86.65 88.25,-94.18 91.31,-87.88"/>
</g>
<!-- Node12 -->
<g id="node12" class="node">
<title>Node12</title>
<g id="a_node12"><a xlink:title=" ">
<polygon fill="white" stroke="#bfbfbf" points="192,-67.5 192,-86.5 250,-86.5 250,-67.5 192,-67.5"/>
<text text-anchor="middle" x="221" y="-74.5" font-family="Helvetica,sans-Serif" font-size="10.00">memory</text>
</a>
</g>
</g>
<!-- Node5&#45;&gt;Node12 -->
<g id="edge13" class="edge">
<title>Node5&#45;&gt;Node12</title>
<path fill="none" stroke="midnightblue" d="M181.76,-123.08C188.54,-115.3 198.54,-103.8 206.76,-94.37"/>
<polygon fill="midnightblue" stroke="midnightblue" points="209.46,-96.59 213.38,-86.75 204.18,-92 209.46,-96.59"/>
</g>
<!-- Node6&#45;&gt;Node7 -->
<g id="edge6" class="edge">
<title>Node6&#45;&gt;Node7</title>
<path fill="none" stroke="midnightblue" d="M347.54,-68.48C350.74,-67.95 353.92,-67.45 357,-67 503.43,-45.62 543.6,-63.35 688,-31 691.42,-30.23 694.94,-29.29 698.43,-28.24"/>
<polygon fill="midnightblue" stroke="midnightblue" points="699.61,-31.54 708.04,-25.12 697.44,-24.88 699.61,-31.54"/>
</g>
<!-- Node8 -->
<g id="node8" class="node">
<title>Node8</title>
<g id="a_node8"><a xlink:title=" ">
<polygon fill="white" stroke="#bfbfbf" points="282,-6 282,-25 332,-25 332,-6 282,-6"/>
<text text-anchor="middle" x="307" y="-13" font-family="Helvetica,sans-Serif" font-size="10.00">cstdint</text>
</a>
</g>
</g>
<!-- Node6&#45;&gt;Node8 -->
<g id="edge7" class="edge">
<title>Node6&#45;&gt;Node8</title>
<path fill="none" stroke="midnightblue" d="M307.86,-67.48C307.72,-59.08 307.5,-45.98 307.31,-35.16"/>
<polygon fill="midnightblue" stroke="midnightblue" points="310.81,-34.95 307.14,-25.01 303.81,-35.07 310.81,-34.95"/>
</g>
<!-- Node9 -->
<g id="node9" class="node">
<title>Node9</title>
<g id="a_node9"><a xlink:title=" ">
<polygon fill="white" stroke="#bfbfbf" points="214,-6 214,-25 264,-25 264,-6 214,-6"/>
<text text-anchor="middle" x="239" y="-13" font-family="Helvetica,sans-Serif" font-size="10.00">climits</text>
</a>
</g>
</g>
<!-- Node6&#45;&gt;Node9 -->
<g id="edge8" class="edge">
<title>Node6&#45;&gt;Node9</title>
<path fill="none" stroke="midnightblue" d="M298.11,-67.48C287.35,-58.2 269.93,-43.17 256.78,-31.83"/>
<polygon fill="midnightblue" stroke="midnightblue" points="258.73,-28.89 248.87,-25.01 254.16,-34.19 258.73,-28.89"/>
</g>
<!-- Node14 -->
<g id="node14" class="node">
<title>Node14</title>
<g id="a_node14"><a xlink:title=" ">
<polygon fill="white" stroke="#bfbfbf" points="525.5,-179.5 525.5,-198.5 572.5,-198.5 572.5,-179.5 525.5,-179.5"/>
<text text-anchor="middle" x="549" y="-186.5" font-family="Helvetica,sans-Serif" font-size="10.00">cmath</text>
</a>
</g>
</g>
<!-- Node13&#45;&gt;Node14 -->
<g id="edge15" class="edge">
<title>Node13&#45;&gt;Node14</title>
<path fill="none" stroke="midnightblue" d="M435.39,-235.44C457.71,-226.52 492.9,-212.44 518.21,-202.32"/>
<polygon fill="midnightblue" stroke="midnightblue" points="519.72,-205.48 527.71,-198.52 517.12,-198.98 519.72,-205.48"/>
</g>
<!-- Node15 -->
<g id="node15" class="node">
<title>Node15</title>
<g id="a_node15"><a xlink:href="itkMathDetail_8h.html" target="_top" xlink:title=" ">
<polygon fill="white" stroke="black" points="207,-179.5 207,-198.5 299,-198.5 299,-179.5 207,-179.5"/>
<text text-anchor="middle" x="253" y="-186.5" font-family="Helvetica,sans-Serif" font-size="10.00">itkMathDetail.h</text>
</a>
</g>
</g>
<!-- Node13&#45;&gt;Node15 -->
<g id="edge16" class="edge">
<title>Node13&#45;&gt;Node15</title>
<path fill="none" stroke="midnightblue" d="M388.49,-235.44C361.4,-226.36 318.41,-211.94 288.13,-201.78"/>
<polygon fill="midnightblue" stroke="midnightblue" points="288.99,-198.38 278.39,-198.52 286.76,-205.01 288.99,-198.38"/>
</g>
<!-- Node24 -->
<g id="node24" class="node">
<title>Node24</title>
<g id="a_node24"><a xlink:href="itkConceptChecking_8h.html" target="_top" xlink:title=" ">
<polygon fill="white" stroke="black" points="590.5,-179.5 590.5,-198.5 713.5,-198.5 713.5,-179.5 590.5,-179.5"/>
<text text-anchor="middle" x="652" y="-186.5" font-family="Helvetica,sans-Serif" font-size="10.00">itkConceptChecking.h</text>
</a>
</g>
</g>
<!-- Node13&#45;&gt;Node24 -->
<g id="edge32" class="edge">
<title>Node13&#45;&gt;Node24</title>
<path fill="none" stroke="midnightblue" d="M445.6,-236.83C486.25,-227.61 557.2,-211.51 604.39,-200.8"/>
<polygon fill="midnightblue" stroke="midnightblue" points="605.4,-204.16 614.37,-198.54 603.85,-197.34 605.4,-204.16"/>
</g>
<!-- Node27 -->
<g id="node27" class="node">
<title>Node27</title>
<g id="a_node27"><a xlink:title=" ">
<polygon fill="white" stroke="#bfbfbf" points="317.5,-179.5 317.5,-198.5 406.5,-198.5 406.5,-179.5 317.5,-179.5"/>
<text text-anchor="middle" x="362" y="-186.5" font-family="Helvetica,sans-Serif" font-size="10.00">vnl/vnl_math.h</text>
</a>
</g>
</g>
<!-- Node13&#45;&gt;Node27 -->
<g id="edge37" class="edge">
<title>Node13&#45;&gt;Node27</title>
<path fill="none" stroke="midnightblue" d="M405.41,-235.08C397.84,-227.22 386.62,-215.57 377.49,-206.08"/>
<polygon fill="midnightblue" stroke="midnightblue" points="379.88,-203.53 370.43,-198.75 374.84,-208.38 379.88,-203.53"/>
</g>
<!-- Node28 -->
<g id="node28" class="node">
<title>Node28</title>
<g id="a_node28"><a xlink:title=" ">
<polygon fill="white" stroke="#bfbfbf" points="425,-179.5 425,-198.5 507,-198.5 507,-179.5 425,-179.5"/>
<text text-anchor="middle" x="466" y="-186.5" font-family="Helvetica,sans-Serif" font-size="10.00">vxl_version.h</text>
</a>
</g>
</g>
<!-- Node13&#45;&gt;Node28 -->
<g id="edge38" class="edge">
<title>Node13&#45;&gt;Node28</title>
<path fill="none" stroke="midnightblue" d="M422.59,-235.08C430.16,-227.22 441.38,-215.57 450.51,-206.08"/>
<polygon fill="midnightblue" stroke="midnightblue" points="453.16,-208.38 457.57,-198.75 448.12,-203.53 453.16,-208.38"/>
</g>
<!-- Node15&#45;&gt;Node6 -->
<g id="edge17" class="edge">
<title>Node15&#45;&gt;Node6</title>
<path fill="none" stroke="midnightblue" d="M259.86,-179.45C266.65,-170.68 277.01,-156.47 284,-143 291.79,-127.98 298.26,-109.85 302.52,-96.56"/>
<polygon fill="midnightblue" stroke="midnightblue" points="305.95,-97.29 305.55,-86.7 299.26,-95.23 305.95,-97.29"/>
</g>
<!-- Node16 -->
<g id="node16" class="node">
<title>Node16</title>
<g id="a_node16"><a xlink:href="itkNumericTraits_8h.html" target="_top" xlink:title=" ">
<polygon fill="white" stroke="black" points="484,-123.5 484,-142.5 590,-142.5 590,-123.5 484,-123.5"/>
<text text-anchor="middle" x="537" y="-130.5" font-family="Helvetica,sans-Serif" font-size="10.00">itkNumericTraits.h</text>
</a>
</g>
</g>
<!-- Node15&#45;&gt;Node16 -->
<g id="edge18" class="edge">
<title>Node15&#45;&gt;Node16</title>
<path fill="none" stroke="midnightblue" d="M298,-179.44C347.96,-169.94 428.6,-154.61 482.2,-144.42"/>
<polygon fill="midnightblue" stroke="midnightblue" points="483.04,-147.82 492.21,-142.52 481.73,-140.95 483.04,-147.82"/>
</g>
<!-- Node23 -->
<g id="node23" class="node">
<title>Node23</title>
<g id="a_node23"><a xlink:title=" ">
<polygon fill="white" stroke="#bfbfbf" points="231,-123.5 231,-142.5 275,-142.5 275,-123.5 231,-123.5"/>
<text text-anchor="middle" x="253" y="-130.5" font-family="Helvetica,sans-Serif" font-size="10.00">cfenv</text>
</a>
</g>
</g>
<!-- Node15&#45;&gt;Node23 -->
<g id="edge31" class="edge">
<title>Node15&#45;&gt;Node23</title>
<path fill="none" stroke="midnightblue" d="M253,-179.08C253,-172.01 253,-161.86 253,-152.99"/>
<polygon fill="midnightblue" stroke="midnightblue" points="256.5,-152.75 253,-142.75 249.5,-152.75 256.5,-152.75"/>
</g>
<!-- Node16&#45;&gt;Node7 -->
<g id="edge19" class="edge">
<title>Node16&#45;&gt;Node7</title>
<path fill="none" stroke="midnightblue" d="M571.1,-123.47C596.35,-116.2 630.94,-104.17 658,-87 681.43,-72.13 703.47,-48.62 716.84,-32.89"/>
<polygon fill="midnightblue" stroke="midnightblue" points="719.65,-34.98 723.34,-25.05 714.26,-30.52 719.65,-34.98"/>
</g>
<!-- Node17 -->
<g id="node17" class="node">
<title>Node17</title>
<g id="a_node17"><a xlink:title=" ">
<polygon fill="white" stroke="#bfbfbf" points="511,-67.5 511,-86.5 555,-86.5 555,-67.5 511,-67.5"/>
<text text-anchor="middle" x="533" y="-74.5" font-family="Helvetica,sans-Serif" font-size="10.00">limits</text>
</a>
</g>
</g>
<!-- Node16&#45;&gt;Node17 -->
<g id="edge20" class="edge">
<title>Node16&#45;&gt;Node17</title>
<path fill="none" stroke="midnightblue" d="M536.34,-123.08C535.82,-116.01 535.06,-105.86 534.41,-96.99"/>
<polygon fill="midnightblue" stroke="midnightblue" points="537.88,-96.47 533.65,-86.75 530.9,-96.98 537.88,-96.47"/>
</g>
<!-- Node18 -->
<g id="node18" class="node">
<title>Node18</title>
<g id="a_node18"><a xlink:title=" ">
<polygon fill="white" stroke="#bfbfbf" points="573.5,-67.5 573.5,-86.5 632.5,-86.5 632.5,-67.5 573.5,-67.5"/>
<text text-anchor="middle" x="603" y="-74.5" font-family="Helvetica,sans-Serif" font-size="10.00">complex</text>
</a>
</g>
</g>
<!-- Node16&#45;&gt;Node18 -->
<g id="edge21" class="edge">
<title>Node16&#45;&gt;Node18</title>
<path fill="none" stroke="midnightblue" d="M547.6,-123.32C557.46,-115.26 572.35,-103.08 584.22,-93.37"/>
<polygon fill="midnightblue" stroke="midnightblue" points="586.68,-95.88 592.2,-86.83 582.25,-90.46 586.68,-95.88"/>
</g>
<!-- Node19 -->
<g id="node19" class="node">
<title>Node19</title>
<g id="a_node19"><a xlink:href="itkFixedArray_8h.html" target="_top" xlink:title=" ">
<polygon fill="white" stroke="black" points="365.5,-67.5 365.5,-86.5 454.5,-86.5 454.5,-67.5 365.5,-67.5"/>
<text text-anchor="middle" x="410" y="-74.5" font-family="Helvetica,sans-Serif" font-size="10.00">itkFixedArray.h</text>
</a>
</g>
</g>
<!-- Node16&#45;&gt;Node19 -->
<g id="edge22" class="edge">
<title>Node16&#45;&gt;Node19</title>
<path fill="none" stroke="midnightblue" d="M516.88,-123.44C495.98,-114.56 463.07,-100.56 439.28,-90.45"/>
<polygon fill="midnightblue" stroke="midnightblue" points="440.6,-87.21 430.03,-86.52 437.86,-93.65 440.6,-87.21"/>
</g>
<!-- Node19&#45;&gt;Node3 -->
<g id="edge24" class="edge">
<title>Node19&#45;&gt;Node3</title>
<path fill="none" stroke="midnightblue" d="M365.48,-68.39C362.61,-67.91 359.76,-67.45 357,-67 253.13,-50.19 226.02,-52.44 123,-31 118.18,-30 113.15,-28.83 108.17,-27.61"/>
<polygon fill="midnightblue" stroke="midnightblue" points="108.68,-24.13 98.12,-25.05 106.95,-30.91 108.68,-24.13"/>
</g>
<!-- Node19&#45;&gt;Node7 -->
<g id="edge23" class="edge">
<title>Node19&#45;&gt;Node7</title>
<path fill="none" stroke="midnightblue" d="M454.58,-69.21C527.34,-58.07 665.8,-36.58 688,-31 691.22,-30.19 694.54,-29.24 697.84,-28.23"/>
<polygon fill="midnightblue" stroke="midnightblue" points="699.13,-31.49 707.55,-25.05 696.95,-24.84 699.13,-31.49"/>
</g>
<!-- Node19&#45;&gt;Node10 -->
<g id="edge25" class="edge">
<title>Node19&#45;&gt;Node10</title>
<path fill="none" stroke="midnightblue" d="M365.22,-67.83C323.42,-59.81 259.49,-46.55 205,-31 202.21,-30.2 199.33,-29.32 196.46,-28.39"/>
<polygon fill="midnightblue" stroke="midnightblue" points="197.42,-25.02 186.82,-25.14 195.18,-31.65 197.42,-25.02"/>
</g>
<!-- Node20 -->
<g id="node20" class="node">
<title>Node20</title>
<g id="a_node20"><a xlink:title=" ">
<polygon fill="white" stroke="#bfbfbf" points="470,-6 470,-25 512,-25 512,-6 470,-6"/>
<text text-anchor="middle" x="491" y="-13" font-family="Helvetica,sans-Serif" font-size="10.00">array</text>
</a>
</g>
</g>
<!-- Node19&#45;&gt;Node20 -->
<g id="edge26" class="edge">
<title>Node19&#45;&gt;Node20</title>
<path fill="none" stroke="midnightblue" d="M421.61,-67.48C434.48,-58.02 455.47,-42.6 471.01,-31.19"/>
<polygon fill="midnightblue" stroke="midnightblue" points="473.43,-33.75 479.42,-25.01 469.28,-28.11 473.43,-33.75"/>
</g>
<!-- Node21 -->
<g id="node21" class="node">
<title>Node21</title>
<g id="a_node21"><a xlink:title=" ">
<polygon fill="white" stroke="#bfbfbf" points="350.5,-6 350.5,-25 451.5,-25 451.5,-6 350.5,-6"/>
<text text-anchor="middle" x="401" y="-13" font-family="Helvetica,sans-Serif" font-size="10.00">itkFixedArray.hxx</text>
</a>
</g>
</g>
<!-- Node19&#45;&gt;Node21 -->
<g id="edge27" class="edge">
<title>Node19&#45;&gt;Node21</title>
<path fill="none" stroke="midnightblue" d="M408.71,-67.48C407.44,-59.08 405.46,-45.98 403.82,-35.16"/>
<polygon fill="midnightblue" stroke="midnightblue" points="407.24,-34.37 402.29,-25.01 400.32,-35.42 407.24,-34.37"/>
</g>
<!-- Node22 -->
<g id="node22" class="node">
<title>Node22</title>
<g id="a_node22"><a xlink:href="itkNumericTraitsFixedArrayPixel_8h.html" target="_top" xlink:title=" ">
<polygon fill="white" stroke="black" points="529.5,-0.5 529.5,-30.5 678.5,-30.5 678.5,-0.5 529.5,-0.5"/>
<text text-anchor="start" x="537.5" y="-18.5" font-family="Helvetica,sans-Serif" font-size="10.00">itkNumericTraitsFixedArray</text>
<text text-anchor="middle" x="604" y="-7.5" font-family="Helvetica,sans-Serif" font-size="10.00">Pixel.h</text>
</a>
</g>
</g>
<!-- Node19&#45;&gt;Node22 -->
<g id="edge28" class="edge">
<title>Node19&#45;&gt;Node22</title>
<path fill="none" stroke="midnightblue" d="M432.89,-67.48C459.82,-58.63 505.3,-44.55 542.65,-33.43"/>
<polygon fill="midnightblue" stroke="midnightblue" points="543.86,-36.72 552.45,-30.52 541.87,-30.01 543.86,-36.72"/>
</g>
<!-- Node22&#45;&gt;Node16 -->
<g id="edge29" class="edge">
<title>Node22&#45;&gt;Node16</title>
<path fill="none" stroke="midnightblue" d="M620.91,-30.7C636.12,-45.25 654.32,-68.31 642,-87 631.36,-103.14 613.61,-113.51 595.69,-120.17"/>
<polygon fill="midnightblue" stroke="midnightblue" points="594.14,-117 585.77,-123.5 596.37,-123.63 594.14,-117"/>
</g>
<!-- Node22&#45;&gt;Node19 -->
<g id="edge30" class="edge">
<title>Node22&#45;&gt;Node19</title>
<path fill="none" stroke="midnightblue" d="M564.11,-30.52C531.57,-40.92 485.83,-54.9 452.59,-64.61"/>
<polygon fill="midnightblue" stroke="midnightblue" points="451.33,-61.33 442.7,-67.48 453.28,-68.05 451.33,-61.33"/>
</g>
<!-- Node24&#45;&gt;Node16 -->
<g id="edge35" class="edge">
<title>Node24&#45;&gt;Node16</title>
<path fill="none" stroke="midnightblue" d="M633.78,-179.44C615.1,-170.68 585.84,-156.94 564.38,-146.86"/>
<polygon fill="midnightblue" stroke="midnightblue" points="565.68,-143.6 555.14,-142.52 562.7,-149.93 565.68,-143.6"/>
</g>
<!-- Node25 -->
<g id="node25" class="node">
<title>Node25</title>
<g id="a_node25"><a xlink:href="itkPixelTraits_8h.html" target="_top" xlink:title=" ">
<polygon fill="white" stroke="black" points="608,-123.5 608,-142.5 696,-142.5 696,-123.5 608,-123.5"/>
<text text-anchor="middle" x="652" y="-130.5" font-family="Helvetica,sans-Serif" font-size="10.00">itkPixelTraits.h</text>
</a>
</g>
</g>
<!-- Node24&#45;&gt;Node25 -->
<g id="edge33" class="edge">
<title>Node24&#45;&gt;Node25</title>
<path fill="none" stroke="midnightblue" d="M652,-179.08C652,-172.01 652,-161.86 652,-152.99"/>
<polygon fill="midnightblue" stroke="midnightblue" points="655.5,-152.75 652,-142.75 648.5,-152.75 655.5,-152.75"/>
</g>
<!-- Node26 -->
<g id="node26" class="node">
<title>Node26</title>
<g id="a_node26"><a xlink:title=" ">
<polygon fill="white" stroke="#bfbfbf" points="714,-123.5 714,-142.5 774,-142.5 774,-123.5 714,-123.5"/>
<text text-anchor="middle" x="744" y="-130.5" font-family="Helvetica,sans-Serif" font-size="10.00">iostream</text>
</a>
</g>
</g>
<!-- Node24&#45;&gt;Node26 -->
<g id="edge36" class="edge">
<title>Node24&#45;&gt;Node26</title>
<path fill="none" stroke="midnightblue" d="M666.78,-179.32C681.27,-170.82 703.57,-157.73 720.49,-147.8"/>
<polygon fill="midnightblue" stroke="midnightblue" points="722.4,-150.74 729.26,-142.65 718.86,-144.7 722.4,-150.74"/>
</g>
<!-- Node25&#45;&gt;Node7 -->
<g id="edge34" class="edge">
<title>Node25&#45;&gt;Node7</title>
<path fill="none" stroke="midnightblue" d="M669.66,-123.4C683.52,-115.73 702.23,-103.23 713,-87 723.32,-71.45 727.39,-50.27 728.98,-35.2"/>
<polygon fill="midnightblue" stroke="midnightblue" points="732.49,-35.3 729.79,-25.05 725.51,-34.75 732.49,-35.3"/>
</g>
<!-- Node29&#45;&gt;Node7 -->
<g id="edge41" class="edge">
<title>Node29&#45;&gt;Node7</title>
<path fill="none" stroke="midnightblue" d="M771.1,-179.2C777.68,-166.74 787.75,-143.21 783,-123 775.04,-89.16 754.63,-53.77 741.59,-33.51"/>
<polygon fill="midnightblue" stroke="midnightblue" points="744.46,-31.5 736.02,-25.08 738.62,-35.35 744.46,-31.5"/>
</g>
<!-- Node29&#45;&gt;Node26 -->
<g id="edge42" class="edge">
<title>Node29&#45;&gt;Node26</title>
<path fill="none" stroke="midnightblue" d="M762.37,-179.08C759.39,-171.77 755.07,-161.18 751.38,-152.1"/>
<polygon fill="midnightblue" stroke="midnightblue" points="754.58,-150.69 747.57,-142.75 748.1,-153.33 754.58,-150.69"/>
</g>
</g>
</svg>
