<?xml version="1.0" encoding="UTF-8" standalone="no"?>
<!DOCTYPE svg PUBLIC "-//W3C//DTD SVG 1.1//EN"
 "http://www.w3.org/Graphics/SVG/1.1/DTD/svg11.dtd">
<!-- Generated by graphviz version 2.43.0 (0)
 -->
<!-- Title: itkLexicographicCompare.h Pages: 1 -->
<svg width="3656pt" height="497pt"
 viewBox="0.00 0.00 3655.50 497.00" xmlns="http://www.w3.org/2000/svg" xmlns:xlink="http://www.w3.org/1999/xlink">
<g id="graph0" class="graph" transform="scale(1 1) rotate(0) translate(4 493)">
<title>itkLexicographicCompare.h</title>
<polygon fill="white" stroke="transparent" points="-4,4 -4,-493 3651.5,-493 3651.5,4 -4,4"/>
<!-- Node1 -->
<g id="node1" class="node">
<title>Node1</title>
<g id="a_node1"><a xlink:title=" ">
<polygon fill="#bfbfbf" stroke="black" points="1034,-469.5 1034,-488.5 1184,-488.5 1184,-469.5 1034,-469.5"/>
<text text-anchor="middle" x="1109" y="-476.5" font-family="Helvetica,sans-Serif" font-size="10.00">itkLexicographicCompare.h</text>
</a>
</g>
</g>
<!-- Node2 -->
<g id="node2" class="node">
<title>Node2</title>
<g id="a_node2"><a xlink:href="itkMovingHistogramImageFilterBase_8h.html" target="_top" xlink:title=" ">
<polygon fill="white" stroke="black" points="966,-402.5 966,-432.5 1138,-432.5 1138,-402.5 966,-402.5"/>
<text text-anchor="start" x="974" y="-420.5" font-family="Helvetica,sans-Serif" font-size="10.00">itkMovingHistogramImageFilter</text>
<text text-anchor="middle" x="1052" y="-409.5" font-family="Helvetica,sans-Serif" font-size="10.00">Base.h</text>
</a>
</g>
</g>
<!-- Node1&#45;&gt;Node2 -->
<g id="edge1" class="edge">
<title>Node1&#45;&gt;Node2</title>
<path fill="none" stroke="midnightblue" d="M1093.76,-462.09C1084.94,-452.88 1073.93,-441.39 1065.43,-432.52"/>
<polygon fill="midnightblue" stroke="midnightblue" points="1091.39,-464.68 1100.83,-469.48 1096.44,-459.83 1091.39,-464.68"/>
</g>
<!-- Node3 -->
<g id="node3" class="node">
<title>Node3</title>
<g id="a_node3"><a xlink:href="itkMovingHistogramImageFilter_8h.html" target="_top" xlink:title=" ">
<polygon fill="white" stroke="black" points="848,-341 848,-360 1028,-360 1028,-341 848,-341"/>
<text text-anchor="middle" x="938" y="-348" font-family="Helvetica,sans-Serif" font-size="10.00">itkMovingHistogramImageFilter.h</text>
</a>
</g>
</g>
<!-- Node1&#45;&gt;Node3 -->
<g id="edge31" class="edge">
<title>Node1&#45;&gt;Node3</title>
<path fill="none" stroke="midnightblue" d="M1024.07,-469.18C999.49,-462.69 974.58,-451.65 957,-433 937.86,-412.7 936.74,-377.01 937.38,-360.43"/>
<polygon fill="midnightblue" stroke="midnightblue" points="1023.28,-472.59 1033.82,-471.53 1024.92,-465.78 1023.28,-472.59"/>
</g>
<!-- Node5 -->
<g id="node5" class="node">
<title>Node5</title>
<g id="a_node5"><a xlink:href="itkMovingHistogramMorphologyImageFilter_8h.html" target="_top" xlink:title=" ">
<polygon fill="white" stroke="black" points="518,-268.5 518,-298.5 692,-298.5 692,-268.5 518,-268.5"/>
<text text-anchor="start" x="526" y="-286.5" font-family="Helvetica,sans-Serif" font-size="10.00">itkMovingHistogramMorphology</text>
<text text-anchor="middle" x="605" y="-275.5" font-family="Helvetica,sans-Serif" font-size="10.00">ImageFilter.h</text>
</a>
</g>
</g>
<!-- Node1&#45;&gt;Node5 -->
<g id="edge48" class="edge">
<title>Node1&#45;&gt;Node5</title>
<path fill="none" stroke="midnightblue" d="M1059.23,-467.16C1024.76,-459.1 978.06,-447.1 938,-433 821.27,-391.92 688.62,-326.98 632.45,-298.58"/>
<polygon fill="midnightblue" stroke="midnightblue" points="1058.53,-470.59 1069.06,-469.42 1060.1,-463.77 1058.53,-470.59"/>
</g>
<!-- Node22 -->
<g id="node22" class="node">
<title>Node22</title>
<g id="a_node22"><a xlink:href="itkMaskedMovingHistogramImageFilter_8h.html" target="_top" xlink:title=" ">
<polygon fill="white" stroke="black" points="1087,-335.5 1087,-365.5 1241,-365.5 1241,-335.5 1087,-335.5"/>
<text text-anchor="start" x="1095" y="-353.5" font-family="Helvetica,sans-Serif" font-size="10.00">itkMaskedMovingHistogram</text>
<text text-anchor="middle" x="1164" y="-342.5" font-family="Helvetica,sans-Serif" font-size="10.00">ImageFilter.h</text>
</a>
</g>
</g>
<!-- Node1&#45;&gt;Node22 -->
<g id="edge49" class="edge">
<title>Node1&#45;&gt;Node22</title>
<path fill="none" stroke="midnightblue" d="M1125.81,-462.12C1133.37,-454.08 1141.76,-443.75 1147,-433 1157.7,-411.04 1161.68,-382.56 1163.15,-365.73"/>
<polygon fill="midnightblue" stroke="midnightblue" points="1123.22,-459.76 1118.67,-469.33 1128.19,-464.69 1123.22,-459.76"/>
</g>
<!-- Node24 -->
<g id="node24" class="node">
<title>Node24</title>
<g id="a_node24"><a xlink:href="itkShapeLabelMapFilter_8h.html" target="_top" xlink:title=" ">
<polygon fill="white" stroke="black" points="1962,-408 1962,-427 2102,-427 2102,-408 1962,-408"/>
<text text-anchor="middle" x="2032" y="-415" font-family="Helvetica,sans-Serif" font-size="10.00">itkShapeLabelMapFilter.h</text>
</a>
</g>
</g>
<!-- Node1&#45;&gt;Node24 -->
<g id="edge32" class="edge">
<title>Node1&#45;&gt;Node24</title>
<path fill="none" stroke="midnightblue" d="M1194.14,-472.51C1375.06,-460.85 1794.82,-433.79 1961.72,-423.03"/>
<polygon fill="midnightblue" stroke="midnightblue" points="1193.9,-469.02 1184.14,-473.16 1194.35,-476.01 1193.9,-469.02"/>
</g>
<!-- Node40 -->
<g id="node40" class="node">
<title>Node40</title>
<g id="a_node40"><a xlink:href="itkLevelSetSparseImage_8h.html" target="_top" xlink:title=" ">
<polygon fill="white" stroke="black" points="2915,-408 2915,-427 3059,-427 3059,-408 2915,-408"/>
<text text-anchor="middle" x="2987" y="-415" font-family="Helvetica,sans-Serif" font-size="10.00">itkLevelSetSparseImage.h</text>
</a>
</g>
</g>
<!-- Node1&#45;&gt;Node40 -->
<g id="edge50" class="edge">
<title>Node1&#45;&gt;Node40</title>
<path fill="none" stroke="midnightblue" d="M1194.12,-475.3C1511.17,-465.26 2620.48,-430.11 2914.84,-420.79"/>
<polygon fill="midnightblue" stroke="midnightblue" points="1193.95,-471.81 1184.07,-475.62 1194.18,-478.8 1193.95,-471.81"/>
</g>
<!-- Node2&#45;&gt;Node3 -->
<g id="edge2" class="edge">
<title>Node2&#45;&gt;Node3</title>
<path fill="none" stroke="midnightblue" d="M1018.34,-397.31C996.62,-384.93 969.45,-369.43 952.92,-360.01"/>
<polygon fill="midnightblue" stroke="midnightblue" points="1016.84,-400.48 1027.26,-402.4 1020.31,-394.4 1016.84,-400.48"/>
</g>
<!-- Node2&#45;&gt;Node22 -->
<g id="edge29" class="edge">
<title>Node2&#45;&gt;Node22</title>
<path fill="none" stroke="midnightblue" d="M1085.09,-397.3C1102.62,-387.12 1123.76,-374.85 1139.75,-365.58"/>
<polygon fill="midnightblue" stroke="midnightblue" points="1083.19,-394.35 1076.3,-402.4 1086.71,-400.4 1083.19,-394.35"/>
</g>
<!-- Node4 -->
<g id="node4" class="node">
<title>Node4</title>
<g id="a_node4"><a xlink:href="itkAdaptiveHistogramEqualizationImageFilter_8h.html" target="_top" xlink:title=" ">
<polygon fill="white" stroke="black" points="846,-268.5 846,-298.5 1030,-298.5 1030,-268.5 846,-268.5"/>
<text text-anchor="start" x="854" y="-286.5" font-family="Helvetica,sans-Serif" font-size="10.00">itkAdaptiveHistogramEqualization</text>
<text text-anchor="middle" x="938" y="-275.5" font-family="Helvetica,sans-Serif" font-size="10.00">ImageFilter.h</text>
</a>
</g>
</g>
<!-- Node3&#45;&gt;Node4 -->
<g id="edge3" class="edge">
<title>Node3&#45;&gt;Node4</title>
<path fill="none" stroke="midnightblue" d="M938,-330.41C938,-320.22 938,-307.9 938,-298.59"/>
<polygon fill="midnightblue" stroke="midnightblue" points="934.5,-330.73 938,-340.73 941.5,-330.73 934.5,-330.73"/>
</g>
<!-- Node3&#45;&gt;Node5 -->
<g id="edge4" class="edge">
<title>Node3&#45;&gt;Node5</title>
<path fill="none" stroke="midnightblue" d="M884,-338.96C827.73,-327.98 739.23,-310.7 677.03,-298.56"/>
<polygon fill="midnightblue" stroke="midnightblue" points="883.64,-342.45 894.12,-340.94 884.98,-335.58 883.64,-342.45"/>
</g>
<!-- Node20 -->
<g id="node20" class="node">
<title>Node20</title>
<g id="a_node20"><a xlink:href="itkMovingHistogramMorphologicalGradientImageFilter_8h.html" target="_top" xlink:title=" ">
<polygon fill="white" stroke="black" points="965.5,-201.5 965.5,-231.5 1150.5,-231.5 1150.5,-201.5 965.5,-201.5"/>
<text text-anchor="start" x="973.5" y="-219.5" font-family="Helvetica,sans-Serif" font-size="10.00">itkMovingHistogramMorphological</text>
<text text-anchor="middle" x="1058" y="-208.5" font-family="Helvetica,sans-Serif" font-size="10.00">GradientImageFilter.h</text>
</a>
</g>
</g>
<!-- Node3&#45;&gt;Node20 -->
<g id="edge26" class="edge">
<title>Node3&#45;&gt;Node20</title>
<path fill="none" stroke="midnightblue" d="M980.89,-337.52C1001.32,-329.72 1024.43,-317.47 1039,-299 1054.48,-279.38 1057.74,-249.34 1058.21,-231.73"/>
<polygon fill="midnightblue" stroke="midnightblue" points="979.67,-334.24 971.43,-340.9 982.02,-340.83 979.67,-334.24"/>
</g>
<!-- Node21 -->
<g id="node21" class="node">
<title>Node21</title>
<g id="a_node21"><a xlink:href="itkRankImageFilter_8h.html" target="_top" xlink:title=" ">
<polygon fill="white" stroke="black" points="710,-274 710,-293 828,-293 828,-274 710,-274"/>
<text text-anchor="middle" x="769" y="-281" font-family="Helvetica,sans-Serif" font-size="10.00">itkRankImageFilter.h</text>
</a>
</g>
</g>
<!-- Node3&#45;&gt;Node21 -->
<g id="edge28" class="edge">
<title>Node3&#45;&gt;Node21</title>
<path fill="none" stroke="midnightblue" d="M906.2,-337.27C872.66,-324.37 820.68,-304.38 791.27,-293.06"/>
<polygon fill="midnightblue" stroke="midnightblue" points="904.97,-340.55 915.56,-340.87 907.48,-334.01 904.97,-340.55"/>
</g>
<!-- Node6 -->
<g id="node6" class="node">
<title>Node6</title>
<g id="a_node6"><a xlink:href="itkAnchorErodeDilateLine_8h.html" target="_top" xlink:title=" ">
<polygon fill="white" stroke="black" points="632.5,-207 632.5,-226 781.5,-226 781.5,-207 632.5,-207"/>
<text text-anchor="middle" x="707" y="-214" font-family="Helvetica,sans-Serif" font-size="10.00">itkAnchorErodeDilateLine.h</text>
</a>
</g>
</g>
<!-- Node5&#45;&gt;Node6 -->
<g id="edge5" class="edge">
<title>Node5&#45;&gt;Node6</title>
<path fill="none" stroke="midnightblue" d="M635.64,-262.97C654.98,-250.65 679,-235.35 693.65,-226.01"/>
<polygon fill="midnightblue" stroke="midnightblue" points="633.68,-260.07 627.13,-268.4 637.45,-265.97 633.68,-260.07"/>
</g>
<!-- Node18 -->
<g id="node18" class="node">
<title>Node18</title>
<g id="a_node18"><a xlink:href="itkMovingHistogramErodeImageFilter_8h.html" target="_top" xlink:title=" ">
<polygon fill="white" stroke="black" points="172.5,-67.5 172.5,-97.5 347.5,-97.5 347.5,-67.5 172.5,-67.5"/>
<text text-anchor="start" x="180.5" y="-85.5" font-family="Helvetica,sans-Serif" font-size="10.00">itkMovingHistogramErodeImage</text>
<text text-anchor="middle" x="260" y="-74.5" font-family="Helvetica,sans-Serif" font-size="10.00">Filter.h</text>
</a>
</g>
</g>
<!-- Node5&#45;&gt;Node18 -->
<g id="edge18" class="edge">
<title>Node5&#45;&gt;Node18</title>
<path fill="none" stroke="midnightblue" d="M552.21,-265.12C497.18,-245.6 409.81,-210.6 343,-165 314.31,-145.42 286.71,-115.36 271.68,-97.74"/>
<polygon fill="midnightblue" stroke="midnightblue" points="551.17,-268.46 561.76,-268.46 553.48,-261.85 551.17,-268.46"/>
</g>
<!-- Node19 -->
<g id="node19" class="node">
<title>Node19</title>
<g id="a_node19"><a xlink:href="itkMovingHistogramDilateImageFilter_8h.html" target="_top" xlink:title=" ">
<polygon fill="white" stroke="black" points="536,-67.5 536,-97.5 682,-97.5 682,-67.5 536,-67.5"/>
<text text-anchor="start" x="544" y="-85.5" font-family="Helvetica,sans-Serif" font-size="10.00">itkMovingHistogramDilate</text>
<text text-anchor="middle" x="609" y="-74.5" font-family="Helvetica,sans-Serif" font-size="10.00">ImageFilter.h</text>
</a>
</g>
</g>
<!-- Node5&#45;&gt;Node19 -->
<g id="edge22" class="edge">
<title>Node5&#45;&gt;Node19</title>
<path fill="none" stroke="midnightblue" d="M605.49,-258C606.34,-215.93 608.04,-131.26 608.71,-97.68"/>
<polygon fill="midnightblue" stroke="midnightblue" points="601.99,-258.12 605.29,-268.19 608.99,-258.26 601.99,-258.12"/>
</g>
<!-- Node7 -->
<g id="node7" class="node">
<title>Node7</title>
<g id="a_node7"><a xlink:href="itkAnchorOpenCloseImageFilter_8h.html" target="_top" xlink:title=" ">
<polygon fill="white" stroke="black" points="352.5,-140 352.5,-159 531.5,-159 531.5,-140 352.5,-140"/>
<text text-anchor="middle" x="442" y="-147" font-family="Helvetica,sans-Serif" font-size="10.00">itkAnchorOpenCloseImageFilter.h</text>
</a>
</g>
</g>
<!-- Node6&#45;&gt;Node7 -->
<g id="edge6" class="edge">
<title>Node6&#45;&gt;Node7</title>
<path fill="none" stroke="midnightblue" d="M662.09,-204.48C609.82,-191.66 524.6,-170.76 476.99,-159.08"/>
<polygon fill="midnightblue" stroke="midnightblue" points="661.54,-207.95 672.08,-206.94 663.21,-201.15 661.54,-207.95"/>
</g>
<!-- Node12 -->
<g id="node12" class="node">
<title>Node12</title>
<g id="a_node12"><a xlink:href="itkAnchorErodeDilateImageFilter_8h.html" target="_top" xlink:title=" ">
<polygon fill="white" stroke="black" points="702.5,-134.5 702.5,-164.5 853.5,-164.5 853.5,-134.5 702.5,-134.5"/>
<text text-anchor="start" x="710.5" y="-152.5" font-family="Helvetica,sans-Serif" font-size="10.00">itkAnchorErodeDilateImage</text>
<text text-anchor="middle" x="778" y="-141.5" font-family="Helvetica,sans-Serif" font-size="10.00">Filter.h</text>
</a>
</g>
</g>
<!-- Node6&#45;&gt;Node12 -->
<g id="edge11" class="edge">
<title>Node6&#45;&gt;Node12</title>
<path fill="none" stroke="midnightblue" d="M724.01,-199.93C735.75,-189.18 751.24,-175 762.61,-164.59"/>
<polygon fill="midnightblue" stroke="midnightblue" points="721.59,-197.4 716.58,-206.73 726.31,-202.56 721.59,-197.4"/>
</g>
<!-- Node8 -->
<g id="node8" class="node">
<title>Node8</title>
<g id="a_node8"><a xlink:href="itkAnchorCloseImageFilter_8h.html" target="_top" xlink:title=" ">
<polygon fill="white" stroke="black" points="0,-73 0,-92 154,-92 154,-73 0,-73"/>
<text text-anchor="middle" x="77" y="-80" font-family="Helvetica,sans-Serif" font-size="10.00">itkAnchorCloseImageFilter.h</text>
</a>
</g>
</g>
<!-- Node7&#45;&gt;Node8 -->
<g id="edge7" class="edge">
<title>Node7&#45;&gt;Node8</title>
<path fill="none" stroke="midnightblue" d="M383.69,-138.12C311.95,-125.34 191.51,-103.89 124.91,-92.03"/>
<polygon fill="midnightblue" stroke="midnightblue" points="383.45,-141.63 393.91,-139.94 384.68,-134.74 383.45,-141.63"/>
</g>
<!-- Node10 -->
<g id="node10" class="node">
<title>Node10</title>
<g id="a_node10"><a xlink:href="itkAnchorOpenImageFilter_8h.html" target="_top" xlink:title=" ">
<polygon fill="white" stroke="black" points="366,-73 366,-92 518,-92 518,-73 366,-73"/>
<text text-anchor="middle" x="442" y="-80" font-family="Helvetica,sans-Serif" font-size="10.00">itkAnchorOpenImageFilter.h</text>
</a>
</g>
</g>
<!-- Node7&#45;&gt;Node10 -->
<g id="edge9" class="edge">
<title>Node7&#45;&gt;Node10</title>
<path fill="none" stroke="midnightblue" d="M442,-129.54C442,-117.17 442,-101.62 442,-92.13"/>
<polygon fill="midnightblue" stroke="midnightblue" points="438.5,-129.73 442,-139.73 445.5,-129.73 438.5,-129.73"/>
</g>
<!-- Node9 -->
<g id="node9" class="node">
<title>Node9</title>
<g id="a_node9"><a xlink:href="itkGrayscaleMorphologicalClosingImageFilter_8h.html" target="_top" xlink:title=" ">
<polygon fill="white" stroke="black" points="186.5,-0.5 186.5,-30.5 333.5,-30.5 333.5,-0.5 186.5,-0.5"/>
<text text-anchor="start" x="194.5" y="-18.5" font-family="Helvetica,sans-Serif" font-size="10.00">itkGrayscaleMorphological</text>
<text text-anchor="middle" x="260" y="-7.5" font-family="Helvetica,sans-Serif" font-size="10.00">ClosingImageFilter.h</text>
</a>
</g>
</g>
<!-- Node8&#45;&gt;Node9 -->
<g id="edge8" class="edge">
<title>Node8&#45;&gt;Node9</title>
<path fill="none" stroke="midnightblue" d="M110.81,-69.49C141.84,-58.47 187.81,-42.14 220.51,-30.53"/>
<polygon fill="midnightblue" stroke="midnightblue" points="109.55,-66.22 101.3,-72.87 111.9,-72.82 109.55,-66.22"/>
</g>
<!-- Node11 -->
<g id="node11" class="node">
<title>Node11</title>
<g id="a_node11"><a xlink:href="itkGrayscaleMorphologicalOpeningImageFilter_8h.html" target="_top" xlink:title=" ">
<polygon fill="white" stroke="black" points="359.5,-0.5 359.5,-30.5 506.5,-30.5 506.5,-0.5 359.5,-0.5"/>
<text text-anchor="start" x="367.5" y="-18.5" font-family="Helvetica,sans-Serif" font-size="10.00">itkGrayscaleMorphological</text>
<text text-anchor="middle" x="433" y="-7.5" font-family="Helvetica,sans-Serif" font-size="10.00">OpeningImageFilter.h</text>
</a>
</g>
</g>
<!-- Node10&#45;&gt;Node11 -->
<g id="edge10" class="edge">
<title>Node10&#45;&gt;Node11</title>
<path fill="none" stroke="midnightblue" d="M439.4,-62.74C437.98,-52.49 436.25,-40 434.95,-30.59"/>
<polygon fill="midnightblue" stroke="midnightblue" points="435.95,-63.31 440.79,-72.73 442.88,-62.35 435.95,-63.31"/>
</g>
<!-- Node13 -->
<g id="node13" class="node">
<title>Node13</title>
<g id="a_node13"><a xlink:href="itkAnchorDilateImageFilter_8h.html" target="_top" xlink:title=" ">
<polygon fill="white" stroke="black" points="874,-73 874,-92 1030,-92 1030,-73 874,-73"/>
<text text-anchor="middle" x="952" y="-80" font-family="Helvetica,sans-Serif" font-size="10.00">itkAnchorDilateImageFilter.h</text>
</a>
</g>
</g>
<!-- Node12&#45;&gt;Node13 -->
<g id="edge12" class="edge">
<title>Node12&#45;&gt;Node13</title>
<path fill="none" stroke="midnightblue" d="M825.42,-130.78C859.16,-118.18 902.99,-101.81 929.23,-92.01"/>
<polygon fill="midnightblue" stroke="midnightblue" points="823.9,-127.62 815.76,-134.4 826.35,-134.18 823.9,-127.62"/>
</g>
<!-- Node16 -->
<g id="node16" class="node">
<title>Node16</title>
<g id="a_node16"><a xlink:href="itkAnchorErodeImageFilter_8h.html" target="_top" xlink:title=" ">
<polygon fill="white" stroke="black" points="700.5,-73 700.5,-92 855.5,-92 855.5,-73 700.5,-73"/>
<text text-anchor="middle" x="778" y="-80" font-family="Helvetica,sans-Serif" font-size="10.00">itkAnchorErodeImageFilter.h</text>
</a>
</g>
</g>
<!-- Node12&#45;&gt;Node16 -->
<g id="edge15" class="edge">
<title>Node12&#45;&gt;Node16</title>
<path fill="none" stroke="midnightblue" d="M778,-124.25C778,-113.02 778,-100.38 778,-92.19"/>
<polygon fill="midnightblue" stroke="midnightblue" points="774.5,-124.4 778,-134.4 781.5,-124.4 774.5,-124.4"/>
</g>
<!-- Node14 -->
<g id="node14" class="node">
<title>Node14</title>
<g id="a_node14"><a xlink:href="itkGrayscaleDilateImageFilter_8h.html" target="_top" xlink:title=" ">
<polygon fill="white" stroke="black" points="713.5,-6 713.5,-25 884.5,-25 884.5,-6 713.5,-6"/>
<text text-anchor="middle" x="799" y="-13" font-family="Helvetica,sans-Serif" font-size="10.00">itkGrayscaleDilateImageFilter.h</text>
</a>
</g>
</g>
<!-- Node13&#45;&gt;Node14 -->
<g id="edge13" class="edge">
<title>Node13&#45;&gt;Node14</title>
<path fill="none" stroke="midnightblue" d="M922.46,-68.95C892.16,-56.08 845.85,-36.4 819.4,-25.17"/>
<polygon fill="midnightblue" stroke="midnightblue" points="921.11,-72.18 931.68,-72.87 923.85,-65.74 921.11,-72.18"/>
</g>
<!-- Node15 -->
<g id="node15" class="node">
<title>Node15</title>
<g id="a_node15"><a xlink:href="itkMorphologicalGradientImageFilter_8h.html" target="_top" xlink:title=" ">
<polygon fill="white" stroke="black" points="903,-0.5 903,-30.5 1043,-30.5 1043,-0.5 903,-0.5"/>
<text text-anchor="start" x="911" y="-18.5" font-family="Helvetica,sans-Serif" font-size="10.00">itkMorphologicalGradient</text>
<text text-anchor="middle" x="973" y="-7.5" font-family="Helvetica,sans-Serif" font-size="10.00">ImageFilter.h</text>
</a>
</g>
</g>
<!-- Node13&#45;&gt;Node15 -->
<g id="edge14" class="edge">
<title>Node13&#45;&gt;Node15</title>
<path fill="none" stroke="midnightblue" d="M957.96,-63.06C961.29,-52.75 965.37,-40.1 968.45,-30.59"/>
<polygon fill="midnightblue" stroke="midnightblue" points="954.58,-62.14 954.83,-72.73 961.24,-64.29 954.58,-62.14"/>
</g>
<!-- Node16&#45;&gt;Node15 -->
<g id="edge17" class="edge">
<title>Node16&#45;&gt;Node15</title>
<path fill="none" stroke="midnightblue" d="M813.6,-69.63C846.67,-58.61 895.92,-42.19 930.92,-30.53"/>
<polygon fill="midnightblue" stroke="midnightblue" points="812.27,-66.39 803.89,-72.87 814.49,-73.03 812.27,-66.39"/>
</g>
<!-- Node17 -->
<g id="node17" class="node">
<title>Node17</title>
<g id="a_node17"><a xlink:href="itkGrayscaleErodeImageFilter_8h.html" target="_top" xlink:title=" ">
<polygon fill="white" stroke="black" points="525,-6 525,-25 695,-25 695,-6 525,-6"/>
<text text-anchor="middle" x="610" y="-13" font-family="Helvetica,sans-Serif" font-size="10.00">itkGrayscaleErodeImageFilter.h</text>
</a>
</g>
</g>
<!-- Node16&#45;&gt;Node17 -->
<g id="edge16" class="edge">
<title>Node16&#45;&gt;Node17</title>
<path fill="none" stroke="midnightblue" d="M745.96,-69.1C712.61,-56.2 661.25,-36.33 632.13,-25.06"/>
<polygon fill="midnightblue" stroke="midnightblue" points="745.1,-72.52 755.69,-72.87 747.63,-66 745.1,-72.52"/>
</g>
<!-- Node18&#45;&gt;Node9 -->
<g id="edge19" class="edge">
<title>Node18&#45;&gt;Node9</title>
<path fill="none" stroke="midnightblue" d="M260,-57.11C260,-48.15 260,-38.32 260,-30.58"/>
<polygon fill="midnightblue" stroke="midnightblue" points="256.5,-57.4 260,-67.4 263.5,-57.4 256.5,-57.4"/>
</g>
<!-- Node18&#45;&gt;Node11 -->
<g id="edge21" class="edge">
<title>Node18&#45;&gt;Node11</title>
<path fill="none" stroke="midnightblue" d="M307.06,-63.82C334.87,-53.37 369.59,-40.32 395.53,-30.58"/>
<polygon fill="midnightblue" stroke="midnightblue" points="305.67,-60.6 297.54,-67.4 308.13,-67.16 305.67,-60.6"/>
</g>
<!-- Node18&#45;&gt;Node17 -->
<g id="edge20" class="edge">
<title>Node18&#45;&gt;Node17</title>
<path fill="none" stroke="midnightblue" d="M345.49,-65.62C414.41,-52.82 508.68,-35.32 564.08,-25.03"/>
<polygon fill="midnightblue" stroke="midnightblue" points="344.71,-62.21 335.51,-67.48 345.98,-69.09 344.71,-62.21"/>
</g>
<!-- Node19&#45;&gt;Node9 -->
<g id="edge23" class="edge">
<title>Node19&#45;&gt;Node9</title>
<path fill="none" stroke="midnightblue" d="M525.89,-66.02C467.43,-55.13 389.91,-40.7 333.67,-30.22"/>
<polygon fill="midnightblue" stroke="midnightblue" points="525.37,-69.48 535.84,-67.87 526.65,-62.6 525.37,-69.48"/>
</g>
<!-- Node19&#45;&gt;Node11 -->
<g id="edge25" class="edge">
<title>Node19&#45;&gt;Node11</title>
<path fill="none" stroke="midnightblue" d="M561.12,-63.82C532.83,-53.37 497.51,-40.32 471.11,-30.58"/>
<polygon fill="midnightblue" stroke="midnightblue" points="560.22,-67.21 570.81,-67.4 562.64,-60.65 560.22,-67.21"/>
</g>
<!-- Node19&#45;&gt;Node14 -->
<g id="edge24" class="edge">
<title>Node19&#45;&gt;Node14</title>
<path fill="none" stroke="midnightblue" d="M659.84,-64.11C696.8,-51.46 745.24,-34.89 774.13,-25.01"/>
<polygon fill="midnightblue" stroke="midnightblue" points="658.56,-60.85 650.23,-67.4 660.82,-67.47 658.56,-60.85"/>
</g>
<!-- Node20&#45;&gt;Node15 -->
<g id="edge27" class="edge">
<title>Node20&#45;&gt;Node15</title>
<path fill="none" stroke="midnightblue" d="M1060.39,-190.96C1062.22,-159.95 1061.41,-105.92 1039,-67 1030.07,-51.5 1014.31,-39.16 1000.43,-30.57"/>
<polygon fill="midnightblue" stroke="midnightblue" points="1056.87,-191.05 1059.62,-201.28 1063.85,-191.56 1056.87,-191.05"/>
</g>
<!-- Node23 -->
<g id="node23" class="node">
<title>Node23</title>
<g id="a_node23"><a xlink:href="itkMaskedRankImageFilter_8h.html" target="_top" xlink:title=" ">
<polygon fill="white" stroke="black" points="1086.5,-274 1086.5,-293 1241.5,-293 1241.5,-274 1086.5,-274"/>
<text text-anchor="middle" x="1164" y="-281" font-family="Helvetica,sans-Serif" font-size="10.00">itkMaskedRankImageFilter.h</text>
</a>
</g>
</g>
<!-- Node22&#45;&gt;Node23 -->
<g id="edge30" class="edge">
<title>Node22&#45;&gt;Node23</title>
<path fill="none" stroke="midnightblue" d="M1164,-325.25C1164,-314.02 1164,-301.38 1164,-293.19"/>
<polygon fill="midnightblue" stroke="midnightblue" points="1160.5,-325.4 1164,-335.4 1167.5,-325.4 1160.5,-325.4"/>
</g>
<!-- Node25 -->
<g id="node25" class="node">
<title>Node25</title>
<g id="a_node25"><a xlink:href="itkBinaryImageToShapeLabelMapFilter_8h.html" target="_top" xlink:title=" ">
<polygon fill="white" stroke="black" points="1424,-335.5 1424,-365.5 1582,-365.5 1582,-335.5 1424,-335.5"/>
<text text-anchor="start" x="1432" y="-353.5" font-family="Helvetica,sans-Serif" font-size="10.00">itkBinaryImageToShapeLabel</text>
<text text-anchor="middle" x="1503" y="-342.5" font-family="Helvetica,sans-Serif" font-size="10.00">MapFilter.h</text>
</a>
</g>
</g>
<!-- Node24&#45;&gt;Node25 -->
<g id="edge33" class="edge">
<title>Node24&#45;&gt;Node25</title>
<path fill="none" stroke="midnightblue" d="M1952.01,-408.54C1863.54,-399.45 1716.85,-383.56 1591,-366 1588.09,-365.59 1585.12,-365.17 1582.13,-364.73"/>
<polygon fill="midnightblue" stroke="midnightblue" points="1951.67,-412.02 1961.98,-409.56 1952.39,-405.06 1951.67,-412.02"/>
</g>
<!-- Node26 -->
<g id="node26" class="node">
<title>Node26</title>
<g id="a_node26"><a xlink:href="itkStatisticsLabelMapFilter_8h.html" target="_top" xlink:title=" ">
<polygon fill="white" stroke="black" points="1600.5,-341 1600.5,-360 1755.5,-360 1755.5,-341 1600.5,-341"/>
<text text-anchor="middle" x="1678" y="-348" font-family="Helvetica,sans-Serif" font-size="10.00">itkStatisticsLabelMapFilter.h</text>
</a>
</g>
</g>
<!-- Node24&#45;&gt;Node26 -->
<g id="edge34" class="edge">
<title>Node24&#45;&gt;Node26</title>
<path fill="none" stroke="midnightblue" d="M1975.45,-406.12C1905.87,-393.34 1789.06,-371.89 1724.47,-360.03"/>
<polygon fill="midnightblue" stroke="midnightblue" points="1974.89,-409.57 1985.36,-407.94 1976.15,-402.69 1974.89,-409.57"/>
</g>
<!-- Node34 -->
<g id="node34" class="node">
<title>Node34</title>
<g id="a_node34"><a xlink:href="itkBinaryShapeKeepNObjectsImageFilter_8h.html" target="_top" xlink:title=" ">
<polygon fill="white" stroke="black" points="1773.5,-335.5 1773.5,-365.5 1932.5,-365.5 1932.5,-335.5 1773.5,-335.5"/>
<text text-anchor="start" x="1781.5" y="-353.5" font-family="Helvetica,sans-Serif" font-size="10.00">itkBinaryShapeKeepNObjects</text>
<text text-anchor="middle" x="1853" y="-342.5" font-family="Helvetica,sans-Serif" font-size="10.00">ImageFilter.h</text>
</a>
</g>
</g>
<!-- Node24&#45;&gt;Node34 -->
<g id="edge42" class="edge">
<title>Node24&#45;&gt;Node34</title>
<path fill="none" stroke="midnightblue" d="M1998.53,-404.35C1968.19,-393.33 1923.48,-377.09 1891.63,-365.53"/>
<polygon fill="midnightblue" stroke="midnightblue" points="1997.64,-407.75 2008.23,-407.87 2000.03,-401.17 1997.64,-407.75"/>
</g>
<!-- Node35 -->
<g id="node35" class="node">
<title>Node35</title>
<g id="a_node35"><a xlink:href="itkBinaryShapeOpeningImageFilter_8h.html" target="_top" xlink:title=" ">
<polygon fill="white" stroke="black" points="1951,-335.5 1951,-365.5 2113,-365.5 2113,-335.5 1951,-335.5"/>
<text text-anchor="start" x="1959" y="-353.5" font-family="Helvetica,sans-Serif" font-size="10.00">itkBinaryShapeOpeningImage</text>
<text text-anchor="middle" x="2032" y="-342.5" font-family="Helvetica,sans-Serif" font-size="10.00">Filter.h</text>
</a>
</g>
</g>
<!-- Node24&#45;&gt;Node35 -->
<g id="edge43" class="edge">
<title>Node24&#45;&gt;Node35</title>
<path fill="none" stroke="midnightblue" d="M2032,-397.41C2032,-387.22 2032,-374.9 2032,-365.59"/>
<polygon fill="midnightblue" stroke="midnightblue" points="2028.5,-397.73 2032,-407.73 2035.5,-397.73 2028.5,-397.73"/>
</g>
<!-- Node36 -->
<g id="node36" class="node">
<title>Node36</title>
<g id="a_node36"><a xlink:href="itkLabelImageToShapeLabelMapFilter_8h.html" target="_top" xlink:title=" ">
<polygon fill="white" stroke="black" points="2131.5,-335.5 2131.5,-365.5 2284.5,-365.5 2284.5,-335.5 2131.5,-335.5"/>
<text text-anchor="start" x="2139.5" y="-353.5" font-family="Helvetica,sans-Serif" font-size="10.00">itkLabelImageToShapeLabel</text>
<text text-anchor="middle" x="2208" y="-342.5" font-family="Helvetica,sans-Serif" font-size="10.00">MapFilter.h</text>
</a>
</g>
</g>
<!-- Node24&#45;&gt;Node36 -->
<g id="edge44" class="edge">
<title>Node24&#45;&gt;Node36</title>
<path fill="none" stroke="midnightblue" d="M2064.91,-404.35C2094.74,-393.33 2138.7,-377.09 2170.02,-365.53"/>
<polygon fill="midnightblue" stroke="midnightblue" points="2063.54,-401.12 2055.37,-407.87 2065.96,-407.69 2063.54,-401.12"/>
</g>
<!-- Node37 -->
<g id="node37" class="node">
<title>Node37</title>
<g id="a_node37"><a xlink:href="itkLabelShapeKeepNObjectsImageFilter_8h.html" target="_top" xlink:title=" ">
<polygon fill="white" stroke="black" points="2303,-335.5 2303,-365.5 2457,-365.5 2457,-335.5 2303,-335.5"/>
<text text-anchor="start" x="2311" y="-353.5" font-family="Helvetica,sans-Serif" font-size="10.00">itkLabelShapeKeepNObjects</text>
<text text-anchor="middle" x="2380" y="-342.5" font-family="Helvetica,sans-Serif" font-size="10.00">ImageFilter.h</text>
</a>
</g>
</g>
<!-- Node24&#45;&gt;Node37 -->
<g id="edge45" class="edge">
<title>Node24&#45;&gt;Node37</title>
<path fill="none" stroke="midnightblue" d="M2087.7,-406.1C2146.47,-395.12 2239.45,-377.75 2304.73,-365.56"/>
<polygon fill="midnightblue" stroke="midnightblue" points="2087.04,-402.66 2077.85,-407.94 2088.33,-409.54 2087.04,-402.66"/>
</g>
<!-- Node38 -->
<g id="node38" class="node">
<title>Node38</title>
<g id="a_node38"><a xlink:href="itkLabelShapeOpeningImageFilter_8h.html" target="_top" xlink:title=" ">
<polygon fill="white" stroke="black" points="2475.5,-335.5 2475.5,-365.5 2632.5,-365.5 2632.5,-335.5 2475.5,-335.5"/>
<text text-anchor="start" x="2483.5" y="-353.5" font-family="Helvetica,sans-Serif" font-size="10.00">itkLabelShapeOpeningImage</text>
<text text-anchor="middle" x="2554" y="-342.5" font-family="Helvetica,sans-Serif" font-size="10.00">Filter.h</text>
</a>
</g>
</g>
<!-- Node24&#45;&gt;Node38 -->
<g id="edge46" class="edge">
<title>Node24&#45;&gt;Node38</title>
<path fill="none" stroke="midnightblue" d="M2112.13,-408.33C2199.33,-399.17 2342.8,-383.31 2466,-366 2469.07,-365.57 2472.19,-365.12 2475.35,-364.65"/>
<polygon fill="midnightblue" stroke="midnightblue" points="2111.62,-404.86 2102.04,-409.38 2112.35,-411.82 2111.62,-404.86"/>
</g>
<!-- Node39 -->
<g id="node39" class="node">
<title>Node39</title>
<g id="a_node39"><a xlink:href="itkShapeRelabelImageFilter_8h.html" target="_top" xlink:title=" ">
<polygon fill="white" stroke="black" points="2651,-341 2651,-360 2811,-360 2811,-341 2651,-341"/>
<text text-anchor="middle" x="2731" y="-348" font-family="Helvetica,sans-Serif" font-size="10.00">itkShapeRelabelImageFilter.h</text>
</a>
</g>
</g>
<!-- Node24&#45;&gt;Node39 -->
<g id="edge47" class="edge">
<title>Node24&#45;&gt;Node39</title>
<path fill="none" stroke="midnightblue" d="M2112.32,-411.82C2229.02,-404.56 2452.13,-389.01 2641,-366 2654.51,-364.35 2669.1,-362.18 2682.52,-360.01"/>
<polygon fill="midnightblue" stroke="midnightblue" points="2111.81,-408.34 2102.05,-412.45 2112.25,-415.33 2111.81,-408.34"/>
</g>
<!-- Node27 -->
<g id="node27" class="node">
<title>Node27</title>
<g id="a_node27"><a xlink:href="itkBinaryImageToStatisticsLabelMapFilter_8h.html" target="_top" xlink:title=" ">
<polygon fill="white" stroke="black" points="1927.5,-268.5 1927.5,-298.5 2074.5,-298.5 2074.5,-268.5 1927.5,-268.5"/>
<text text-anchor="start" x="1935.5" y="-286.5" font-family="Helvetica,sans-Serif" font-size="10.00">itkBinaryImageToStatistics</text>
<text text-anchor="middle" x="2001" y="-275.5" font-family="Helvetica,sans-Serif" font-size="10.00">LabelMapFilter.h</text>
</a>
</g>
</g>
<!-- Node26&#45;&gt;Node27 -->
<g id="edge35" class="edge">
<title>Node26&#45;&gt;Node27</title>
<path fill="none" stroke="midnightblue" d="M1730.37,-338.96C1784.96,-327.98 1870.8,-310.7 1931.14,-298.56"/>
<polygon fill="midnightblue" stroke="midnightblue" points="1729.67,-335.53 1720.56,-340.94 1731.05,-342.39 1729.67,-335.53"/>
</g>
<!-- Node28 -->
<g id="node28" class="node">
<title>Node28</title>
<g id="a_node28"><a xlink:href="itkBinaryStatisticsKeepNObjectsImageFilter_8h.html" target="_top" xlink:title=" ">
<polygon fill="white" stroke="black" points="2093,-268.5 2093,-298.5 2267,-298.5 2267,-268.5 2093,-268.5"/>
<text text-anchor="start" x="2101" y="-286.5" font-family="Helvetica,sans-Serif" font-size="10.00">itkBinaryStatisticsKeepNObjects</text>
<text text-anchor="middle" x="2180" y="-275.5" font-family="Helvetica,sans-Serif" font-size="10.00">ImageFilter.h</text>
</a>
</g>
</g>
<!-- Node26&#45;&gt;Node28 -->
<g id="edge36" class="edge">
<title>Node26&#45;&gt;Node28</title>
<path fill="none" stroke="midnightblue" d="M1735.78,-339.31C1745.2,-337.78 1754.86,-336.29 1764,-335 1905.29,-315.13 1941.53,-317.55 2083,-299 2086.21,-298.58 2089.47,-298.14 2092.77,-297.69"/>
<polygon fill="midnightblue" stroke="midnightblue" points="1734.99,-335.9 1725.69,-340.98 1736.13,-342.8 1734.99,-335.9"/>
</g>
<!-- Node29 -->
<g id="node29" class="node">
<title>Node29</title>
<g id="a_node29"><a xlink:href="itkBinaryStatisticsOpeningImageFilter_8h.html" target="_top" xlink:title=" ">
<polygon fill="white" stroke="black" points="2285,-268.5 2285,-298.5 2431,-298.5 2431,-268.5 2285,-268.5"/>
<text text-anchor="start" x="2293" y="-286.5" font-family="Helvetica,sans-Serif" font-size="10.00">itkBinaryStatisticsOpening</text>
<text text-anchor="middle" x="2358" y="-275.5" font-family="Helvetica,sans-Serif" font-size="10.00">ImageFilter.h</text>
</a>
</g>
</g>
<!-- Node26&#45;&gt;Node29 -->
<g id="edge37" class="edge">
<title>Node26&#45;&gt;Node29</title>
<path fill="none" stroke="midnightblue" d="M1733.4,-339.35C1743.55,-337.72 1754.08,-336.18 1764,-335 1990.51,-308.01 2049.6,-326.9 2276,-299 2278.87,-298.65 2281.79,-298.26 2284.74,-297.85"/>
<polygon fill="midnightblue" stroke="midnightblue" points="1732.7,-335.92 1723.41,-341 1733.84,-342.82 1732.7,-335.92"/>
</g>
<!-- Node30 -->
<g id="node30" class="node">
<title>Node30</title>
<g id="a_node30"><a xlink:href="itkLabelImageToStatisticsLabelMapFilter_8h.html" target="_top" xlink:title=" ">
<polygon fill="white" stroke="black" points="1260,-268.5 1260,-298.5 1402,-298.5 1402,-268.5 1260,-268.5"/>
<text text-anchor="start" x="1268" y="-286.5" font-family="Helvetica,sans-Serif" font-size="10.00">itkLabelImageToStatistics</text>
<text text-anchor="middle" x="1331" y="-275.5" font-family="Helvetica,sans-Serif" font-size="10.00">LabelMapFilter.h</text>
</a>
</g>
</g>
<!-- Node26&#45;&gt;Node30 -->
<g id="edge38" class="edge">
<title>Node26&#45;&gt;Node30</title>
<path fill="none" stroke="midnightblue" d="M1622.27,-339.06C1562.46,-327.86 1467.3,-310.03 1402.13,-297.82"/>
<polygon fill="midnightblue" stroke="midnightblue" points="1621.81,-342.53 1632.28,-340.94 1623.09,-335.65 1621.81,-342.53"/>
</g>
<!-- Node31 -->
<g id="node31" class="node">
<title>Node31</title>
<g id="a_node31"><a xlink:href="itkLabelStatisticsKeepNObjectsImageFilter_8h.html" target="_top" xlink:title=" ">
<polygon fill="white" stroke="black" points="1420.5,-268.5 1420.5,-298.5 1589.5,-298.5 1589.5,-268.5 1420.5,-268.5"/>
<text text-anchor="start" x="1428.5" y="-286.5" font-family="Helvetica,sans-Serif" font-size="10.00">itkLabelStatisticsKeepNObjects</text>
<text text-anchor="middle" x="1505" y="-275.5" font-family="Helvetica,sans-Serif" font-size="10.00">ImageFilter.h</text>
</a>
</g>
</g>
<!-- Node26&#45;&gt;Node31 -->
<g id="edge39" class="edge">
<title>Node26&#45;&gt;Node31</title>
<path fill="none" stroke="midnightblue" d="M1645.65,-337.35C1616.33,-326.33 1573.12,-310.09 1542.34,-298.53"/>
<polygon fill="midnightblue" stroke="midnightblue" points="1644.43,-340.63 1655.03,-340.87 1646.9,-334.07 1644.43,-340.63"/>
</g>
<!-- Node32 -->
<g id="node32" class="node">
<title>Node32</title>
<g id="a_node32"><a xlink:href="itkLabelStatisticsOpeningImageFilter_8h.html" target="_top" xlink:title=" ">
<polygon fill="white" stroke="black" points="1607.5,-268.5 1607.5,-298.5 1748.5,-298.5 1748.5,-268.5 1607.5,-268.5"/>
<text text-anchor="start" x="1615.5" y="-286.5" font-family="Helvetica,sans-Serif" font-size="10.00">itkLabelStatisticsOpening</text>
<text text-anchor="middle" x="1678" y="-275.5" font-family="Helvetica,sans-Serif" font-size="10.00">ImageFilter.h</text>
</a>
</g>
</g>
<!-- Node26&#45;&gt;Node32 -->
<g id="edge40" class="edge">
<title>Node26&#45;&gt;Node32</title>
<path fill="none" stroke="midnightblue" d="M1678,-330.41C1678,-320.22 1678,-307.9 1678,-298.59"/>
<polygon fill="midnightblue" stroke="midnightblue" points="1674.5,-330.73 1678,-340.73 1681.5,-330.73 1674.5,-330.73"/>
</g>
<!-- Node33 -->
<g id="node33" class="node">
<title>Node33</title>
<g id="a_node33"><a xlink:href="itkStatisticsRelabelImageFilter_8h.html" target="_top" xlink:title=" ">
<polygon fill="white" stroke="black" points="1767,-268.5 1767,-298.5 1909,-298.5 1909,-268.5 1767,-268.5"/>
<text text-anchor="start" x="1775" y="-286.5" font-family="Helvetica,sans-Serif" font-size="10.00">itkStatisticsRelabelImage</text>
<text text-anchor="middle" x="1838" y="-275.5" font-family="Helvetica,sans-Serif" font-size="10.00">Filter.h</text>
</a>
</g>
</g>
<!-- Node26&#45;&gt;Node33 -->
<g id="edge41" class="edge">
<title>Node26&#45;&gt;Node33</title>
<path fill="none" stroke="midnightblue" d="M1708.63,-337.06C1735.73,-326.05 1775.25,-309.99 1803.47,-298.53"/>
<polygon fill="midnightblue" stroke="midnightblue" points="1707.19,-333.86 1699.25,-340.87 1709.83,-340.35 1707.19,-333.86"/>
</g>
<!-- Node41 -->
<g id="node41" class="node">
<title>Node41</title>
<g id="a_node41"><a xlink:href="itkWhitakerSparseLevelSetImage_8h.html" target="_top" xlink:title=" ">
<polygon fill="white" stroke="black" points="3270,-335.5 3270,-365.5 3418,-365.5 3418,-335.5 3270,-335.5"/>
<text text-anchor="start" x="3278" y="-353.5" font-family="Helvetica,sans-Serif" font-size="10.00">itkWhitakerSparseLevelSet</text>
<text text-anchor="middle" x="3344" y="-342.5" font-family="Helvetica,sans-Serif" font-size="10.00">Image.h</text>
</a>
</g>
</g>
<!-- Node40&#45;&gt;Node41 -->
<g id="edge51" class="edge">
<title>Node40&#45;&gt;Node41</title>
<path fill="none" stroke="midnightblue" d="M3043.91,-406.14C3105.11,-395 3202.65,-377.24 3269.82,-365.01"/>
<polygon fill="midnightblue" stroke="midnightblue" points="3043.25,-402.7 3034.04,-407.94 3044.5,-409.59 3043.25,-402.7"/>
</g>
<!-- Node46 -->
<g id="node46" class="node">
<title>Node46</title>
<g id="a_node46"><a xlink:href="itkShiSparseLevelSetImage_8h.html" target="_top" xlink:title=" ">
<polygon fill="white" stroke="black" points="2993.5,-341 2993.5,-360 3152.5,-360 3152.5,-341 2993.5,-341"/>
<text text-anchor="middle" x="3073" y="-348" font-family="Helvetica,sans-Serif" font-size="10.00">itkShiSparseLevelSetImage.h</text>
</a>
</g>
</g>
<!-- Node40&#45;&gt;Node46 -->
<g id="edge58" class="edge">
<title>Node40&#45;&gt;Node46</title>
<path fill="none" stroke="midnightblue" d="M3006.76,-401.57C3023.73,-388.74 3047.62,-370.69 3061.59,-360.13"/>
<polygon fill="midnightblue" stroke="midnightblue" points="3004.47,-398.91 2998.6,-407.73 3008.69,-404.5 3004.47,-398.91"/>
</g>
<!-- Node48 -->
<g id="node48" class="node">
<title>Node48</title>
<g id="a_node48"><a xlink:href="itkMalcolmSparseLevelSetImage_8h.html" target="_top" xlink:title=" ">
<polygon fill="white" stroke="black" points="2829,-335.5 2829,-365.5 2975,-365.5 2975,-335.5 2829,-335.5"/>
<text text-anchor="start" x="2837" y="-353.5" font-family="Helvetica,sans-Serif" font-size="10.00">itkMalcolmSparseLevelSet</text>
<text text-anchor="middle" x="2902" y="-342.5" font-family="Helvetica,sans-Serif" font-size="10.00">Image.h</text>
</a>
</g>
</g>
<!-- Node40&#45;&gt;Node48 -->
<g id="edge63" class="edge">
<title>Node40&#45;&gt;Node48</title>
<path fill="none" stroke="midnightblue" d="M2967.44,-401.54C2953.29,-390.73 2934.3,-376.2 2920.42,-365.59"/>
<polygon fill="midnightblue" stroke="midnightblue" points="2965.47,-404.44 2975.54,-407.73 2969.72,-398.88 2965.47,-404.44"/>
</g>
<!-- Node42 -->
<g id="node42" class="node">
<title>Node42</title>
<g id="a_node42"><a xlink:href="itkBinaryImageToLevelSetImageAdaptor_8h.html" target="_top" xlink:title=" ">
<polygon fill="white" stroke="black" points="3101,-268.5 3101,-298.5 3245,-298.5 3245,-268.5 3101,-268.5"/>
<text text-anchor="start" x="3109" y="-286.5" font-family="Helvetica,sans-Serif" font-size="10.00">itkBinaryImageToLevelSet</text>
<text text-anchor="middle" x="3173" y="-275.5" font-family="Helvetica,sans-Serif" font-size="10.00">ImageAdaptor.h</text>
</a>
</g>
</g>
<!-- Node41&#45;&gt;Node42 -->
<g id="edge52" class="edge">
<title>Node41&#45;&gt;Node42</title>
<path fill="none" stroke="midnightblue" d="M3297.48,-331.82C3270,-321.37 3235.67,-308.32 3210.03,-298.58"/>
<polygon fill="midnightblue" stroke="midnightblue" points="3296.3,-335.11 3306.9,-335.4 3298.79,-328.57 3296.3,-335.11"/>
</g>
<!-- Node43 -->
<g id="node43" class="node">
<title>Node43</title>
<g id="a_node43"><a xlink:href="itkLevelSetEvolution_8h.html" target="_top" xlink:title=" ">
<polygon fill="white" stroke="black" points="3010,-207 3010,-226 3136,-226 3136,-207 3010,-207"/>
<text text-anchor="middle" x="3073" y="-214" font-family="Helvetica,sans-Serif" font-size="10.00">itkLevelSetEvolution.h</text>
</a>
</g>
</g>
<!-- Node41&#45;&gt;Node43 -->
<g id="edge53" class="edge">
<title>Node41&#45;&gt;Node43</title>
<path fill="none" stroke="midnightblue" d="M3388.5,-330.97C3420.06,-315.24 3453.46,-291.53 3433,-268 3395.26,-224.6 3228.8,-217.4 3136.02,-216.85"/>
<polygon fill="midnightblue" stroke="midnightblue" points="3386.78,-327.92 3379.27,-335.39 3389.8,-334.24 3386.78,-327.92"/>
</g>
<!-- Node44 -->
<g id="node44" class="node">
<title>Node44</title>
<g id="a_node44"><a xlink:href="itkUpdateWhitakerSparseLevelSet_8h.html" target="_top" xlink:title=" ">
<polygon fill="white" stroke="black" points="3480.5,-268.5 3480.5,-298.5 3647.5,-298.5 3647.5,-268.5 3480.5,-268.5"/>
<text text-anchor="start" x="3488.5" y="-286.5" font-family="Helvetica,sans-Serif" font-size="10.00">itkUpdateWhitakerSparseLevel</text>
<text text-anchor="middle" x="3564" y="-275.5" font-family="Helvetica,sans-Serif" font-size="10.00">Set.h</text>
</a>
</g>
</g>
<!-- Node41&#45;&gt;Node44 -->
<g id="edge54" class="edge">
<title>Node41&#45;&gt;Node44</title>
<path fill="none" stroke="midnightblue" d="M3401.27,-332.58C3437,-322.02 3482.46,-308.59 3516.24,-298.61"/>
<polygon fill="midnightblue" stroke="midnightblue" points="3400.06,-329.29 3391.47,-335.48 3402.05,-336 3400.06,-329.29"/>
</g>
<!-- Node45 -->
<g id="node45" class="node">
<title>Node45</title>
<g id="a_node45"><a xlink:href="itkLevelSetEvolutionComputeIterationThreader_8h.html" target="_top" xlink:title=" ">
<polygon fill="white" stroke="black" points="3263.5,-268.5 3263.5,-298.5 3424.5,-298.5 3424.5,-268.5 3263.5,-268.5"/>
<text text-anchor="start" x="3271.5" y="-286.5" font-family="Helvetica,sans-Serif" font-size="10.00">itkLevelSetEvolutionCompute</text>
<text text-anchor="middle" x="3344" y="-275.5" font-family="Helvetica,sans-Serif" font-size="10.00">IterationThreader.h</text>
</a>
</g>
</g>
<!-- Node41&#45;&gt;Node45 -->
<g id="edge56" class="edge">
<title>Node41&#45;&gt;Node45</title>
<path fill="none" stroke="midnightblue" d="M3344,-325.11C3344,-316.15 3344,-306.32 3344,-298.58"/>
<polygon fill="midnightblue" stroke="midnightblue" points="3340.5,-325.4 3344,-335.4 3347.5,-325.4 3340.5,-325.4"/>
</g>
<!-- Node44&#45;&gt;Node43 -->
<g id="edge55" class="edge">
<title>Node44&#45;&gt;Node43</title>
<path fill="none" stroke="midnightblue" d="M3470.31,-268.46C3469.2,-268.31 3468.1,-268.15 3467,-268 3350.37,-251.81 3214.04,-234.75 3136.17,-225.18"/>
<polygon fill="midnightblue" stroke="midnightblue" points="3470.03,-271.96 3480.42,-269.89 3471.01,-265.03 3470.03,-271.96"/>
</g>
<!-- Node45&#45;&gt;Node43 -->
<g id="edge57" class="edge">
<title>Node45&#45;&gt;Node43</title>
<path fill="none" stroke="midnightblue" d="M3275.5,-266.07C3222.35,-253.32 3150.84,-236.17 3108.56,-226.03"/>
<polygon fill="midnightblue" stroke="midnightblue" points="3274.99,-269.55 3285.53,-268.48 3276.62,-262.74 3274.99,-269.55"/>
</g>
<!-- Node46&#45;&gt;Node42 -->
<g id="edge59" class="edge">
<title>Node46&#45;&gt;Node42</title>
<path fill="none" stroke="midnightblue" d="M3095.07,-335.15C3111.81,-324.27 3134.69,-309.4 3151.32,-298.59"/>
<polygon fill="midnightblue" stroke="midnightblue" points="3092.96,-332.35 3086.49,-340.73 3096.78,-338.22 3092.96,-332.35"/>
</g>
<!-- Node46&#45;&gt;Node43 -->
<g id="edge60" class="edge">
<title>Node46&#45;&gt;Node43</title>
<path fill="none" stroke="midnightblue" d="M3073,-330.78C3073,-301.75 3073,-247.04 3073,-226.02"/>
<polygon fill="midnightblue" stroke="midnightblue" points="3069.5,-330.84 3073,-340.84 3076.5,-330.84 3069.5,-330.84"/>
</g>
<!-- Node47 -->
<g id="node47" class="node">
<title>Node47</title>
<g id="a_node47"><a xlink:href="itkUpdateShiSparseLevelSet_8h.html" target="_top" xlink:title=" ">
<polygon fill="white" stroke="black" points="2881,-274 2881,-293 3045,-293 3045,-274 2881,-274"/>
<text text-anchor="middle" x="2963" y="-281" font-family="Helvetica,sans-Serif" font-size="10.00">itkUpdateShiSparseLevelSet.h</text>
</a>
</g>
</g>
<!-- Node46&#45;&gt;Node47 -->
<g id="edge61" class="edge">
<title>Node46&#45;&gt;Node47</title>
<path fill="none" stroke="midnightblue" d="M3049.5,-335.62C3027.71,-322.74 2995.96,-303.98 2977.6,-293.13"/>
<polygon fill="midnightblue" stroke="midnightblue" points="3047.78,-338.66 3058.16,-340.73 3051.34,-332.63 3047.78,-338.66"/>
</g>
<!-- Node47&#45;&gt;Node43 -->
<g id="edge62" class="edge">
<title>Node47&#45;&gt;Node43</title>
<path fill="none" stroke="midnightblue" d="M2986.5,-268.62C3008.29,-255.74 3040.04,-236.98 3058.4,-226.13"/>
<polygon fill="midnightblue" stroke="midnightblue" points="2984.66,-265.63 2977.84,-273.73 2988.22,-271.66 2984.66,-265.63"/>
</g>
<!-- Node48&#45;&gt;Node42 -->
<g id="edge64" class="edge">
<title>Node48&#45;&gt;Node42</title>
<path fill="none" stroke="midnightblue" d="M2970.3,-333.12C3014.64,-322.48 3071.84,-308.76 3114.17,-298.61"/>
<polygon fill="midnightblue" stroke="midnightblue" points="2969.38,-329.74 2960.47,-335.48 2971.01,-336.55 2969.38,-329.74"/>
</g>
<!-- Node48&#45;&gt;Node43 -->
<g id="edge65" class="edge">
<title>Node48&#45;&gt;Node43</title>
<path fill="none" stroke="midnightblue" d="M2823.27,-333.3C2764.07,-320.74 2692.41,-304.57 2688,-299 2679.45,-288.2 2678.91,-278.36 2688,-268 2708.87,-244.22 2906.21,-228.16 3009.95,-221.28"/>
<polygon fill="midnightblue" stroke="midnightblue" points="2822.9,-336.8 2833.41,-335.44 2824.35,-329.95 2822.9,-336.8"/>
</g>
<!-- Node49 -->
<g id="node49" class="node">
<title>Node49</title>
<g id="a_node49"><a xlink:href="itkUpdateMalcolmSparseLevelSet_8h.html" target="_top" xlink:title=" ">
<polygon fill="white" stroke="black" points="2697,-268.5 2697,-298.5 2863,-298.5 2863,-268.5 2697,-268.5"/>
<text text-anchor="start" x="2705" y="-286.5" font-family="Helvetica,sans-Serif" font-size="10.00">itkUpdateMalcolmSparseLevel</text>
<text text-anchor="middle" x="2780" y="-275.5" font-family="Helvetica,sans-Serif" font-size="10.00">Set.h</text>
</a>
</g>
</g>
<!-- Node48&#45;&gt;Node49 -->
<g id="edge66" class="edge">
<title>Node48&#45;&gt;Node49</title>
<path fill="none" stroke="midnightblue" d="M2866.48,-330.57C2847.29,-320.35 2824,-307.94 2806.42,-298.58"/>
<polygon fill="midnightblue" stroke="midnightblue" points="2865.06,-333.78 2875.53,-335.4 2868.35,-327.6 2865.06,-333.78"/>
</g>
<!-- Node49&#45;&gt;Node43 -->
<g id="edge67" class="edge">
<title>Node49&#45;&gt;Node43</title>
<path fill="none" stroke="midnightblue" d="M2852.99,-266.31C2910.56,-253.54 2988.56,-236.23 3034.56,-226.03"/>
<polygon fill="midnightblue" stroke="midnightblue" points="2852.22,-262.89 2843.22,-268.48 2853.74,-269.73 2852.22,-262.89"/>
</g>
</g>
</svg>
