<?xml version="1.0" encoding="UTF-8" standalone="no"?>
<!DOCTYPE svg PUBLIC "-//W3C//DTD SVG 1.1//EN"
 "http://www.w3.org/Graphics/SVG/1.1/DTD/svg11.dtd">
<!-- Generated by graphviz version 2.43.0 (0)
 -->
<!-- Title: itkLevelSetSparseImage.h Pages: 1 -->
<svg width="982pt" height="218pt"
 viewBox="0.00 0.00 981.62 218.00" xmlns="http://www.w3.org/2000/svg" xmlns:xlink="http://www.w3.org/1999/xlink">
<g id="graph0" class="graph" transform="scale(1 1) rotate(0) translate(4 214)">
<title>itkLevelSetSparseImage.h</title>
<polygon fill="white" stroke="transparent" points="-4,4 -4,-214 977.62,-214 977.62,4 -4,4"/>
<!-- Node1 -->
<g id="node1" class="node">
<title>Node1</title>
<g id="a_node1"><a xlink:title=" ">
<polygon fill="#bfbfbf" stroke="black" points="536.62,-190.5 536.62,-209.5 680.62,-209.5 680.62,-190.5 536.62,-190.5"/>
<text text-anchor="middle" x="608.62" y="-197.5" font-family="Helvetica,sans-Serif" font-size="10.00">itkLevelSetSparseImage.h</text>
</a>
</g>
</g>
<!-- Node2 -->
<g id="node2" class="node">
<title>Node2</title>
<g id="a_node2"><a xlink:href="itkWhitakerSparseLevelSetImage_8h.html" target="_top" xlink:title=" ">
<polygon fill="white" stroke="black" points="214.62,-123.5 214.62,-153.5 362.62,-153.5 362.62,-123.5 214.62,-123.5"/>
<text text-anchor="start" x="222.62" y="-141.5" font-family="Helvetica,sans-Serif" font-size="10.00">itkWhitakerSparseLevelSet</text>
<text text-anchor="middle" x="288.62" y="-130.5" font-family="Helvetica,sans-Serif" font-size="10.00">Image.h</text>
</a>
</g>
</g>
<!-- Node1&#45;&gt;Node2 -->
<g id="edge1" class="edge">
<title>Node1&#45;&gt;Node2</title>
<path fill="none" stroke="midnightblue" d="M552.93,-188.65C500.25,-178.85 420.83,-164.08 362.8,-153.29"/>
<polygon fill="midnightblue" stroke="midnightblue" points="552.3,-192.09 562.77,-190.48 553.58,-185.21 552.3,-192.09"/>
</g>
<!-- Node7 -->
<g id="node7" class="node">
<title>Node7</title>
<g id="a_node7"><a xlink:href="itkShiSparseLevelSetImage_8h.html" target="_top" xlink:title=" ">
<polygon fill="white" stroke="black" points="529.12,-129 529.12,-148 688.12,-148 688.12,-129 529.12,-129"/>
<text text-anchor="middle" x="608.62" y="-136" font-family="Helvetica,sans-Serif" font-size="10.00">itkShiSparseLevelSetImage.h</text>
</a>
</g>
</g>
<!-- Node1&#45;&gt;Node7 -->
<g id="edge8" class="edge">
<title>Node1&#45;&gt;Node7</title>
<path fill="none" stroke="midnightblue" d="M608.62,-180.32C608.62,-169.5 608.62,-156.4 608.62,-148.01"/>
<polygon fill="midnightblue" stroke="midnightblue" points="605.12,-180.48 608.62,-190.48 612.12,-180.48 605.12,-180.48"/>
</g>
<!-- Node9 -->
<g id="node9" class="node">
<title>Node9</title>
<g id="a_node9"><a xlink:href="itkMalcolmSparseLevelSetImage_8h.html" target="_top" xlink:title=" ">
<polygon fill="white" stroke="black" points="706.62,-123.5 706.62,-153.5 852.62,-153.5 852.62,-123.5 706.62,-123.5"/>
<text text-anchor="start" x="714.62" y="-141.5" font-family="Helvetica,sans-Serif" font-size="10.00">itkMalcolmSparseLevelSet</text>
<text text-anchor="middle" x="779.62" y="-130.5" font-family="Helvetica,sans-Serif" font-size="10.00">Image.h</text>
</a>
</g>
</g>
<!-- Node1&#45;&gt;Node9 -->
<g id="edge13" class="edge">
<title>Node1&#45;&gt;Node9</title>
<path fill="none" stroke="midnightblue" d="M642.81,-187.1C670.63,-177.42 709.96,-163.74 739.31,-153.52"/>
<polygon fill="midnightblue" stroke="midnightblue" points="641.41,-183.88 633.12,-190.48 643.71,-190.49 641.41,-183.88"/>
</g>
<!-- Node3 -->
<g id="node3" class="node">
<title>Node3</title>
<g id="a_node3"><a xlink:href="itkBinaryImageToLevelSetImageAdaptor_8h.html" target="_top" xlink:title=" ">
<polygon fill="white" stroke="black" points="387.62,-56.5 387.62,-86.5 531.62,-86.5 531.62,-56.5 387.62,-56.5"/>
<text text-anchor="start" x="395.62" y="-74.5" font-family="Helvetica,sans-Serif" font-size="10.00">itkBinaryImageToLevelSet</text>
<text text-anchor="middle" x="459.62" y="-63.5" font-family="Helvetica,sans-Serif" font-size="10.00">ImageAdaptor.h</text>
</a>
</g>
</g>
<!-- Node2&#45;&gt;Node3 -->
<g id="edge2" class="edge">
<title>Node2&#45;&gt;Node3</title>
<path fill="none" stroke="midnightblue" d="M335.13,-119.82C362.62,-109.37 396.94,-96.32 422.58,-86.58"/>
<polygon fill="midnightblue" stroke="midnightblue" points="333.82,-116.57 325.72,-123.4 336.31,-123.11 333.82,-116.57"/>
</g>
<!-- Node4 -->
<g id="node4" class="node">
<title>Node4</title>
<g id="a_node4"><a xlink:href="itkLevelSetEvolution_8h.html" target="_top" xlink:title=" ">
<polygon fill="white" stroke="black" points="568.62,-0.5 568.62,-19.5 694.62,-19.5 694.62,-0.5 568.62,-0.5"/>
<text text-anchor="middle" x="631.62" y="-7.5" font-family="Helvetica,sans-Serif" font-size="10.00">itkLevelSetEvolution.h</text>
</a>
</g>
</g>
<!-- Node2&#45;&gt;Node4 -->
<g id="edge3" class="edge">
<title>Node2&#45;&gt;Node4</title>
<path fill="none" stroke="midnightblue" d="M204.35,-137.32C103.31,-134.35 -45.47,-119.55 13.62,-56 50.84,-15.97 418.51,-11.14 568.45,-10.85"/>
<polygon fill="midnightblue" stroke="midnightblue" points="204.49,-140.82 214.58,-137.58 204.67,-133.82 204.49,-140.82"/>
</g>
<!-- Node5 -->
<g id="node5" class="node">
<title>Node5</title>
<g id="a_node5"><a xlink:href="itkUpdateWhitakerSparseLevelSet_8h.html" target="_top" xlink:title=" ">
<polygon fill="white" stroke="black" points="23.12,-56.5 23.12,-86.5 190.12,-86.5 190.12,-56.5 23.12,-56.5"/>
<text text-anchor="start" x="31.12" y="-74.5" font-family="Helvetica,sans-Serif" font-size="10.00">itkUpdateWhitakerSparseLevel</text>
<text text-anchor="middle" x="106.62" y="-63.5" font-family="Helvetica,sans-Serif" font-size="10.00">Set.h</text>
</a>
</g>
</g>
<!-- Node2&#45;&gt;Node5 -->
<g id="edge4" class="edge">
<title>Node2&#45;&gt;Node5</title>
<path fill="none" stroke="midnightblue" d="M239.49,-119.96C210.17,-109.48 173.44,-96.37 146.03,-86.58"/>
<polygon fill="midnightblue" stroke="midnightblue" points="238.53,-123.33 249.12,-123.4 240.88,-116.74 238.53,-123.33"/>
</g>
<!-- Node6 -->
<g id="node6" class="node">
<title>Node6</title>
<g id="a_node6"><a xlink:href="itkLevelSetEvolutionComputeIterationThreader_8h.html" target="_top" xlink:title=" ">
<polygon fill="white" stroke="black" points="208.12,-56.5 208.12,-86.5 369.12,-86.5 369.12,-56.5 208.12,-56.5"/>
<text text-anchor="start" x="216.12" y="-74.5" font-family="Helvetica,sans-Serif" font-size="10.00">itkLevelSetEvolutionCompute</text>
<text text-anchor="middle" x="288.62" y="-63.5" font-family="Helvetica,sans-Serif" font-size="10.00">IterationThreader.h</text>
</a>
</g>
</g>
<!-- Node2&#45;&gt;Node6 -->
<g id="edge6" class="edge">
<title>Node2&#45;&gt;Node6</title>
<path fill="none" stroke="midnightblue" d="M288.62,-113.11C288.62,-104.15 288.62,-94.32 288.62,-86.58"/>
<polygon fill="midnightblue" stroke="midnightblue" points="285.12,-113.4 288.62,-123.4 292.12,-113.4 285.12,-113.4"/>
</g>
<!-- Node5&#45;&gt;Node4 -->
<g id="edge5" class="edge">
<title>Node5&#45;&gt;Node4</title>
<path fill="none" stroke="midnightblue" d="M200.56,-55.78C337.25,-38.15 486.01,-23.94 568.39,-16.52"/>
<polygon fill="midnightblue" stroke="midnightblue" points="199.79,-52.35 190.33,-57.11 200.69,-59.3 199.79,-52.35"/>
</g>
<!-- Node6&#45;&gt;Node4 -->
<g id="edge7" class="edge">
<title>Node6&#45;&gt;Node4</title>
<path fill="none" stroke="midnightblue" d="M379.33,-54.76C444.46,-43.47 529.73,-28.67 582.58,-19.51"/>
<polygon fill="midnightblue" stroke="midnightblue" points="378.72,-51.32 369.47,-56.47 379.92,-58.21 378.72,-51.32"/>
</g>
<!-- Node7&#45;&gt;Node3 -->
<g id="edge9" class="edge">
<title>Node7&#45;&gt;Node3</title>
<path fill="none" stroke="midnightblue" d="M579.43,-124.77C554.21,-113.77 517.82,-97.89 491.77,-86.53"/>
<polygon fill="midnightblue" stroke="midnightblue" points="578.26,-128.08 588.83,-128.87 581.06,-121.66 578.26,-128.08"/>
</g>
<!-- Node7&#45;&gt;Node4 -->
<g id="edge10" class="edge">
<title>Node7&#45;&gt;Node4</title>
<path fill="none" stroke="midnightblue" d="M666.62,-125.84C687.95,-118.44 709.97,-106.43 722.62,-87 730.13,-75.45 729.89,-67.7 722.62,-56 710.99,-37.28 689.02,-26.12 669.58,-19.59"/>
<polygon fill="midnightblue" stroke="midnightblue" points="665.37,-122.56 656.9,-128.93 667.49,-129.24 665.37,-122.56"/>
</g>
<!-- Node8 -->
<g id="node8" class="node">
<title>Node8</title>
<g id="a_node8"><a xlink:href="itkUpdateShiSparseLevelSet_8h.html" target="_top" xlink:title=" ">
<polygon fill="white" stroke="black" points="549.62,-62 549.62,-81 713.62,-81 713.62,-62 549.62,-62"/>
<text text-anchor="middle" x="631.62" y="-69" font-family="Helvetica,sans-Serif" font-size="10.00">itkUpdateShiSparseLevelSet.h</text>
</a>
</g>
</g>
<!-- Node7&#45;&gt;Node8 -->
<g id="edge11" class="edge">
<title>Node7&#45;&gt;Node8</title>
<path fill="none" stroke="midnightblue" d="M615.06,-119.29C619.48,-106.81 625.14,-90.81 628.56,-81.13"/>
<polygon fill="midnightblue" stroke="midnightblue" points="611.75,-118.14 611.72,-128.73 618.35,-120.47 611.75,-118.14"/>
</g>
<!-- Node8&#45;&gt;Node4 -->
<g id="edge12" class="edge">
<title>Node8&#45;&gt;Node4</title>
<path fill="none" stroke="midnightblue" d="M631.62,-51.82C631.62,-41 631.62,-27.9 631.62,-19.51"/>
<polygon fill="midnightblue" stroke="midnightblue" points="628.12,-51.98 631.62,-61.98 635.12,-51.98 628.12,-51.98"/>
</g>
<!-- Node9&#45;&gt;Node3 -->
<g id="edge14" class="edge">
<title>Node9&#45;&gt;Node3</title>
<path fill="none" stroke="midnightblue" d="M700.6,-121.45C647.92,-110.75 579.33,-96.82 528.81,-86.55"/>
<polygon fill="midnightblue" stroke="midnightblue" points="700.08,-124.92 710.57,-123.48 701.47,-118.06 700.08,-124.92"/>
</g>
<!-- Node9&#45;&gt;Node4 -->
<g id="edge15" class="edge">
<title>Node9&#45;&gt;Node4</title>
<path fill="none" stroke="midnightblue" d="M772.92,-113.51C766.83,-95.6 756.22,-71.61 739.62,-56 720.08,-37.63 691.98,-26.24 669.34,-19.52"/>
<polygon fill="midnightblue" stroke="midnightblue" points="769.64,-114.76 775.99,-123.24 776.32,-112.65 769.64,-114.76"/>
</g>
<!-- Node10 -->
<g id="node10" class="node">
<title>Node10</title>
<g id="a_node10"><a xlink:href="itkUpdateMalcolmSparseLevelSet_8h.html" target="_top" xlink:title=" ">
<polygon fill="white" stroke="black" points="807.62,-56.5 807.62,-86.5 973.62,-86.5 973.62,-56.5 807.62,-56.5"/>
<text text-anchor="start" x="815.62" y="-74.5" font-family="Helvetica,sans-Serif" font-size="10.00">itkUpdateMalcolmSparseLevel</text>
<text text-anchor="middle" x="890.62" y="-63.5" font-family="Helvetica,sans-Serif" font-size="10.00">Set.h</text>
</a>
</g>
</g>
<!-- Node9&#45;&gt;Node10 -->
<g id="edge16" class="edge">
<title>Node9&#45;&gt;Node10</title>
<path fill="none" stroke="midnightblue" d="M812.41,-118.3C829.78,-108.12 850.73,-95.85 866.58,-86.58"/>
<polygon fill="midnightblue" stroke="midnightblue" points="810.56,-115.32 803.7,-123.4 814.1,-121.36 810.56,-115.32"/>
</g>
<!-- Node10&#45;&gt;Node4 -->
<g id="edge17" class="edge">
<title>Node10&#45;&gt;Node4</title>
<path fill="none" stroke="midnightblue" d="M819.68,-54.2C770.83,-42.98 707.89,-28.52 668.64,-19.51"/>
<polygon fill="midnightblue" stroke="midnightblue" points="819.03,-57.65 829.56,-56.47 820.6,-50.82 819.03,-57.65"/>
</g>
</g>
</svg>
