<?xml version="1.0" encoding="UTF-8" standalone="no"?>
<!DOCTYPE svg PUBLIC "-//W3C//DTD SVG 1.1//EN"
 "http://www.w3.org/Graphics/SVG/1.1/DTD/svg11.dtd">
<!-- Generated by graphviz version 2.43.0 (0)
 -->
<!-- Title: itkMeshIOBase.h Pages: 1 -->
<svg width="2516pt" height="140pt"
 viewBox="0.00 0.00 2515.50 140.00" xmlns="http://www.w3.org/2000/svg" xmlns:xlink="http://www.w3.org/1999/xlink">
<g id="graph0" class="graph" transform="scale(1 1) rotate(0) translate(4 136)">
<title>itkMeshIOBase.h</title>
<polygon fill="white" stroke="transparent" points="-4,4 -4,-136 2511.5,-136 2511.5,4 -4,4"/>
<!-- Node1 -->
<g id="node1" class="node">
<title>Node1</title>
<g id="a_node1"><a xlink:title=" ">
<polygon fill="#bfbfbf" stroke="black" points="1239.5,-112.5 1239.5,-131.5 1338.5,-131.5 1338.5,-112.5 1239.5,-112.5"/>
<text text-anchor="middle" x="1289" y="-119.5" font-family="Helvetica,sans-Serif" font-size="10.00">itkMeshIOBase.h</text>
</a>
</g>
</g>
<!-- Node2 -->
<g id="node2" class="node">
<title>Node2</title>
<g id="a_node2"><a xlink:href="itkMeshFileReader_8h.html" target="_top" xlink:title=" ">
<polygon fill="white" stroke="black" points="0,-56.5 0,-75.5 116,-75.5 116,-56.5 0,-56.5"/>
<text text-anchor="middle" x="58" y="-63.5" font-family="Helvetica,sans-Serif" font-size="10.00">itkMeshFileReader.h</text>
</a>
</g>
</g>
<!-- Node1&#45;&gt;Node2 -->
<g id="edge1" class="edge">
<title>Node1&#45;&gt;Node2</title>
<path fill="none" stroke="midnightblue" d="M1229.15,-120.69C1057.15,-119.36 546.81,-112.4 125,-76 122.08,-75.75 119.09,-75.46 116.07,-75.14"/>
<polygon fill="midnightblue" stroke="midnightblue" points="1229.23,-124.19 1239.26,-120.76 1229.29,-117.19 1229.23,-124.19"/>
</g>
<!-- Node4 -->
<g id="node4" class="node">
<title>Node4</title>
<g id="a_node4"><a xlink:href="itkMeshIOFactory_8h.html" target="_top" xlink:title=" ">
<polygon fill="white" stroke="black" points="134.5,-56.5 134.5,-75.5 243.5,-75.5 243.5,-56.5 134.5,-56.5"/>
<text text-anchor="middle" x="189" y="-63.5" font-family="Helvetica,sans-Serif" font-size="10.00">itkMeshIOFactory.h</text>
</a>
</g>
</g>
<!-- Node1&#45;&gt;Node4 -->
<g id="edge3" class="edge">
<title>Node1&#45;&gt;Node4</title>
<path fill="none" stroke="midnightblue" d="M1229.22,-120.41C1070.12,-118.42 623.15,-109.99 253,-76 249.98,-75.72 246.89,-75.4 243.77,-75.06"/>
<polygon fill="midnightblue" stroke="midnightblue" points="1229.24,-123.92 1239.28,-120.54 1229.33,-116.92 1229.24,-123.92"/>
</g>
<!-- Node5 -->
<g id="node5" class="node">
<title>Node5</title>
<g id="a_node5"><a xlink:href="itkMeshFileWriter_8h.html" target="_top" xlink:title=" ">
<polygon fill="white" stroke="black" points="261.5,-56.5 261.5,-75.5 372.5,-75.5 372.5,-56.5 261.5,-56.5"/>
<text text-anchor="middle" x="317" y="-63.5" font-family="Helvetica,sans-Serif" font-size="10.00">itkMeshFileWriter.h</text>
</a>
</g>
</g>
<!-- Node1&#45;&gt;Node5 -->
<g id="edge4" class="edge">
<title>Node1&#45;&gt;Node5</title>
<path fill="none" stroke="midnightblue" d="M1229.19,-119.85C1083.81,-116.67 700.46,-105.89 382,-76 378.94,-75.71 375.8,-75.39 372.63,-75.03"/>
<polygon fill="midnightblue" stroke="midnightblue" points="1229.17,-123.35 1239.24,-120.07 1229.32,-116.35 1229.17,-123.35"/>
</g>
<!-- Node6 -->
<g id="node6" class="node">
<title>Node6</title>
<g id="a_node6"><a xlink:href="itkBYUMeshIO_8h.html" target="_top" xlink:title=" ">
<polygon fill="white" stroke="black" points="390.5,-56.5 390.5,-75.5 485.5,-75.5 485.5,-56.5 390.5,-56.5"/>
<text text-anchor="middle" x="438" y="-63.5" font-family="Helvetica,sans-Serif" font-size="10.00">itkBYUMeshIO.h</text>
</a>
</g>
</g>
<!-- Node1&#45;&gt;Node6 -->
<g id="edge6" class="edge">
<title>Node1&#45;&gt;Node6</title>
<path fill="none" stroke="midnightblue" d="M1228.8,-119.64C1096,-116.2 768.01,-105.22 495,-76 491.91,-75.67 488.74,-75.29 485.54,-74.87"/>
<polygon fill="midnightblue" stroke="midnightblue" points="1229.07,-123.15 1239.16,-119.91 1229.25,-116.15 1229.07,-123.15"/>
</g>
<!-- Node7 -->
<g id="node7" class="node">
<title>Node7</title>
<g id="a_node7"><a xlink:href="itkBYUMeshIOFactory_8h.html" target="_top" xlink:title=" ">
<polygon fill="white" stroke="black" points="504,-56.5 504,-75.5 632,-75.5 632,-56.5 504,-56.5"/>
<text text-anchor="middle" x="568" y="-63.5" font-family="Helvetica,sans-Serif" font-size="10.00">itkBYUMeshIOFactory.h</text>
</a>
</g>
</g>
<!-- Node1&#45;&gt;Node7 -->
<g id="edge7" class="edge">
<title>Node1&#45;&gt;Node7</title>
<path fill="none" stroke="midnightblue" d="M1229.13,-117.87C1114.85,-111.67 857.76,-96.61 642,-76 638.78,-75.69 635.48,-75.36 632.15,-75.01"/>
<polygon fill="midnightblue" stroke="midnightblue" points="1229.24,-121.38 1239.41,-118.43 1229.62,-114.39 1229.24,-121.38"/>
</g>
<!-- Node8 -->
<g id="node8" class="node">
<title>Node8</title>
<g id="a_node8"><a xlink:href="itkFreeSurferAsciiMeshIO_8h.html" target="_top" xlink:title=" ">
<polygon fill="white" stroke="black" points="650.5,-56.5 650.5,-75.5 799.5,-75.5 799.5,-56.5 650.5,-56.5"/>
<text text-anchor="middle" x="725" y="-63.5" font-family="Helvetica,sans-Serif" font-size="10.00">itkFreeSurferAsciiMeshIO.h</text>
</a>
</g>
</g>
<!-- Node1&#45;&gt;Node8 -->
<g id="edge8" class="edge">
<title>Node1&#45;&gt;Node8</title>
<path fill="none" stroke="midnightblue" d="M1229.12,-115.64C1138.26,-107.46 960.16,-91.18 809,-76 805.94,-75.69 802.81,-75.37 799.65,-75.05"/>
<polygon fill="midnightblue" stroke="midnightblue" points="1228.95,-119.14 1239.23,-116.55 1229.58,-112.17 1228.95,-119.14"/>
</g>
<!-- Node9 -->
<g id="node9" class="node">
<title>Node9</title>
<g id="a_node9"><a xlink:href="itkFreeSurferAsciiMeshIOFactory_8h.html" target="_top" xlink:title=" ">
<polygon fill="white" stroke="black" points="818,-56.5 818,-75.5 1000,-75.5 1000,-56.5 818,-56.5"/>
<text text-anchor="middle" x="909" y="-63.5" font-family="Helvetica,sans-Serif" font-size="10.00">itkFreeSurferAsciiMeshIOFactory.h</text>
</a>
</g>
</g>
<!-- Node1&#45;&gt;Node9 -->
<g id="edge9" class="edge">
<title>Node1&#45;&gt;Node9</title>
<path fill="none" stroke="midnightblue" d="M1229.19,-112.5C1158.1,-102.4 1040.2,-85.64 969.03,-75.53"/>
<polygon fill="midnightblue" stroke="midnightblue" points="1228.93,-116 1239.32,-113.94 1229.91,-109.07 1228.93,-116"/>
</g>
<!-- Node10 -->
<g id="node10" class="node">
<title>Node10</title>
<g id="a_node10"><a xlink:href="itkFreeSurferBinaryMeshIO_8h.html" target="_top" xlink:title=" ">
<polygon fill="white" stroke="black" points="1018.5,-56.5 1018.5,-75.5 1175.5,-75.5 1175.5,-56.5 1018.5,-56.5"/>
<text text-anchor="middle" x="1097" y="-63.5" font-family="Helvetica,sans-Serif" font-size="10.00">itkFreeSurferBinaryMeshIO.h</text>
</a>
</g>
</g>
<!-- Node1&#45;&gt;Node10 -->
<g id="edge10" class="edge">
<title>Node1&#45;&gt;Node10</title>
<path fill="none" stroke="midnightblue" d="M1248.82,-109.7C1212.58,-99.51 1160.09,-84.74 1127.28,-75.52"/>
<polygon fill="midnightblue" stroke="midnightblue" points="1248,-113.11 1258.58,-112.44 1249.9,-106.37 1248,-113.11"/>
</g>
<!-- Node11 -->
<g id="node11" class="node">
<title>Node11</title>
<g id="a_node11"><a xlink:href="itkFreeSurferBinaryMeshIOFactory_8h.html" target="_top" xlink:title=" ">
<polygon fill="white" stroke="black" points="1193.5,-56.5 1193.5,-75.5 1384.5,-75.5 1384.5,-56.5 1193.5,-56.5"/>
<text text-anchor="middle" x="1289" y="-63.5" font-family="Helvetica,sans-Serif" font-size="10.00">itkFreeSurferBinaryMeshIOFactory.h</text>
</a>
</g>
</g>
<!-- Node1&#45;&gt;Node11 -->
<g id="edge11" class="edge">
<title>Node1&#45;&gt;Node11</title>
<path fill="none" stroke="midnightblue" d="M1289,-101.8C1289,-92.91 1289,-82.78 1289,-75.75"/>
<polygon fill="midnightblue" stroke="midnightblue" points="1285.5,-102.08 1289,-112.08 1292.5,-102.08 1285.5,-102.08"/>
</g>
<!-- Node12 -->
<g id="node12" class="node">
<title>Node12</title>
<g id="a_node12"><a xlink:href="itkGiftiMeshIO_8h.html" target="_top" xlink:title=" ">
<polygon fill="white" stroke="black" points="1402.5,-56.5 1402.5,-75.5 1497.5,-75.5 1497.5,-56.5 1402.5,-56.5"/>
<text text-anchor="middle" x="1450" y="-63.5" font-family="Helvetica,sans-Serif" font-size="10.00">itkGiftiMeshIO.h</text>
</a>
</g>
</g>
<!-- Node1&#45;&gt;Node12 -->
<g id="edge12" class="edge">
<title>Node1&#45;&gt;Node12</title>
<path fill="none" stroke="midnightblue" d="M1324.26,-109.17C1354.58,-99 1397.57,-84.59 1424.61,-75.52"/>
<polygon fill="midnightblue" stroke="midnightblue" points="1322.88,-105.95 1314.51,-112.44 1325.1,-112.58 1322.88,-105.95"/>
</g>
<!-- Node13 -->
<g id="node13" class="node">
<title>Node13</title>
<g id="a_node13"><a xlink:href="itkGiftiMeshIOFactory_8h.html" target="_top" xlink:title=" ">
<polygon fill="white" stroke="black" points="1515.5,-56.5 1515.5,-75.5 1644.5,-75.5 1644.5,-56.5 1515.5,-56.5"/>
<text text-anchor="middle" x="1580" y="-63.5" font-family="Helvetica,sans-Serif" font-size="10.00">itkGiftiMeshIOFactory.h</text>
</a>
</g>
</g>
<!-- Node1&#45;&gt;Node13 -->
<g id="edge13" class="edge">
<title>Node1&#45;&gt;Node13</title>
<path fill="none" stroke="midnightblue" d="M1345.04,-110.6C1400.04,-100.4 1482.9,-85.02 1534.11,-75.52"/>
<polygon fill="midnightblue" stroke="midnightblue" points="1344.3,-107.18 1335.11,-112.44 1345.58,-114.06 1344.3,-107.18"/>
</g>
<!-- Node14 -->
<g id="node14" class="node">
<title>Node14</title>
<g id="a_node14"><a xlink:href="itkOBJMeshIO_8h.html" target="_top" xlink:title=" ">
<polygon fill="white" stroke="black" points="1663,-56.5 1663,-75.5 1755,-75.5 1755,-56.5 1663,-56.5"/>
<text text-anchor="middle" x="1709" y="-63.5" font-family="Helvetica,sans-Serif" font-size="10.00">itkOBJMeshIO.h</text>
</a>
</g>
</g>
<!-- Node1&#45;&gt;Node14 -->
<g id="edge14" class="edge">
<title>Node1&#45;&gt;Node14</title>
<path fill="none" stroke="midnightblue" d="M1348.96,-114.34C1421.36,-106.14 1546.78,-91.38 1654,-76 1656.87,-75.59 1659.83,-75.15 1662.81,-74.69"/>
<polygon fill="midnightblue" stroke="midnightblue" points="1348.22,-110.91 1338.67,-115.51 1349,-117.86 1348.22,-110.91"/>
</g>
<!-- Node15 -->
<g id="node15" class="node">
<title>Node15</title>
<g id="a_node15"><a xlink:href="itkOBJMeshIOFactory_8h.html" target="_top" xlink:title=" ">
<polygon fill="white" stroke="black" points="1773,-56.5 1773,-75.5 1899,-75.5 1899,-56.5 1773,-56.5"/>
<text text-anchor="middle" x="1836" y="-63.5" font-family="Helvetica,sans-Serif" font-size="10.00">itkOBJMeshIOFactory.h</text>
</a>
</g>
</g>
<!-- Node1&#45;&gt;Node15 -->
<g id="edge15" class="edge">
<title>Node1&#45;&gt;Node15</title>
<path fill="none" stroke="midnightblue" d="M1348.65,-115.93C1438.71,-108.13 1614.75,-92.39 1764,-76 1766.88,-75.68 1769.82,-75.35 1772.8,-75.01"/>
<polygon fill="midnightblue" stroke="midnightblue" points="1348.29,-112.44 1338.63,-116.79 1348.89,-119.42 1348.29,-112.44"/>
</g>
<!-- Node16 -->
<g id="node16" class="node">
<title>Node16</title>
<g id="a_node16"><a xlink:href="itkOFFMeshIO_8h.html" target="_top" xlink:title=" ">
<polygon fill="white" stroke="black" points="1917.5,-56.5 1917.5,-75.5 2012.5,-75.5 2012.5,-56.5 1917.5,-56.5"/>
<text text-anchor="middle" x="1965" y="-63.5" font-family="Helvetica,sans-Serif" font-size="10.00">itkOFFMeshIO.h</text>
</a>
</g>
</g>
<!-- Node1&#45;&gt;Node16 -->
<g id="edge16" class="edge">
<title>Node1&#45;&gt;Node16</title>
<path fill="none" stroke="midnightblue" d="M1349.18,-118.31C1460.01,-112.98 1703.72,-99.51 1908,-76 1911.09,-75.64 1914.26,-75.24 1917.46,-74.81"/>
<polygon fill="midnightblue" stroke="midnightblue" points="1348.7,-114.83 1338.88,-118.8 1349.03,-121.82 1348.7,-114.83"/>
</g>
<!-- Node17 -->
<g id="node17" class="node">
<title>Node17</title>
<g id="a_node17"><a xlink:href="itkOFFMeshIOFactory_8h.html" target="_top" xlink:title=" ">
<polygon fill="white" stroke="black" points="2031,-56.5 2031,-75.5 2159,-75.5 2159,-56.5 2031,-56.5"/>
<text text-anchor="middle" x="2095" y="-63.5" font-family="Helvetica,sans-Serif" font-size="10.00">itkOFFMeshIOFactory.h</text>
</a>
</g>
</g>
<!-- Node1&#45;&gt;Node17 -->
<g id="edge17" class="edge">
<title>Node1&#45;&gt;Node17</title>
<path fill="none" stroke="midnightblue" d="M1349,-118.57C1474.24,-113.21 1772.56,-99.01 2022,-76 2024.92,-75.73 2027.91,-75.44 2030.93,-75.12"/>
<polygon fill="midnightblue" stroke="midnightblue" points="1348.69,-115.07 1338.85,-119 1348.99,-122.07 1348.69,-115.07"/>
</g>
<!-- Node18 -->
<g id="node18" class="node">
<title>Node18</title>
<g id="a_node18"><a xlink:href="itkVTKPolyDataMeshIO_8h.html" target="_top" xlink:title=" ">
<polygon fill="white" stroke="black" points="2177.5,-56.5 2177.5,-75.5 2316.5,-75.5 2316.5,-56.5 2177.5,-56.5"/>
<text text-anchor="middle" x="2247" y="-63.5" font-family="Helvetica,sans-Serif" font-size="10.00">itkVTKPolyDataMeshIO.h</text>
</a>
</g>
</g>
<!-- Node1&#45;&gt;Node18 -->
<g id="edge18" class="edge">
<title>Node1&#45;&gt;Node18</title>
<path fill="none" stroke="midnightblue" d="M1348.88,-119.22C1491.14,-114.71 1860.46,-101.37 2168,-76 2171.03,-75.75 2174.12,-75.48 2177.24,-75.19"/>
<polygon fill="midnightblue" stroke="midnightblue" points="1348.52,-115.73 1338.64,-119.54 1348.74,-122.73 1348.52,-115.73"/>
</g>
<!-- Node19 -->
<g id="node19" class="node">
<title>Node19</title>
<g id="a_node19"><a xlink:href="itkVTKPolyDataMeshIOFactory_8h.html" target="_top" xlink:title=" ">
<polygon fill="white" stroke="black" points="2334.5,-56.5 2334.5,-75.5 2507.5,-75.5 2507.5,-56.5 2334.5,-56.5"/>
<text text-anchor="middle" x="2421" y="-63.5" font-family="Helvetica,sans-Serif" font-size="10.00">itkVTKPolyDataMeshIOFactory.h</text>
</a>
</g>
</g>
<!-- Node1&#45;&gt;Node19 -->
<g id="edge19" class="edge">
<title>Node1&#45;&gt;Node19</title>
<path fill="none" stroke="midnightblue" d="M1348.76,-119.48C1507.84,-115.18 1954.82,-101.62 2326,-76 2328.73,-75.81 2331.5,-75.61 2334.29,-75.4"/>
<polygon fill="midnightblue" stroke="midnightblue" points="1348.6,-115.98 1338.7,-119.74 1348.79,-122.98 1348.6,-115.98"/>
</g>
<!-- Node3 -->
<g id="node3" class="node">
<title>Node3</title>
<g id="a_node3"><a xlink:href="itkMeshFileTestHelper_8h.html" target="_top" xlink:title=" ">
<polygon fill="white" stroke="black" points="120.5,-0.5 120.5,-19.5 253.5,-19.5 253.5,-0.5 120.5,-0.5"/>
<text text-anchor="middle" x="187" y="-7.5" font-family="Helvetica,sans-Serif" font-size="10.00">itkMeshFileTestHelper.h</text>
</a>
</g>
</g>
<!-- Node2&#45;&gt;Node3 -->
<g id="edge2" class="edge">
<title>Node2&#45;&gt;Node3</title>
<path fill="none" stroke="midnightblue" d="M87.85,-52.5C112.04,-42.38 145.46,-28.39 166.66,-19.52"/>
<polygon fill="midnightblue" stroke="midnightblue" points="86.31,-49.35 78.44,-56.44 89.02,-55.81 86.31,-49.35"/>
</g>
<!-- Node5&#45;&gt;Node3 -->
<g id="edge5" class="edge">
<title>Node5&#45;&gt;Node3</title>
<path fill="none" stroke="midnightblue" d="M286.91,-52.5C262.54,-42.38 228.86,-28.39 207.5,-19.52"/>
<polygon fill="midnightblue" stroke="midnightblue" points="285.82,-55.84 296.4,-56.44 288.51,-49.38 285.82,-55.84"/>
</g>
</g>
</svg>
