<?xml version="1.0" encoding="UTF-8" standalone="no"?>
<!DOCTYPE svg PUBLIC "-//W3C//DTD SVG 1.1//EN"
 "http://www.w3.org/Graphics/SVG/1.1/DTD/svg11.dtd">
<!-- Generated by graphviz version 2.43.0 (0)
 -->
<!-- Title: itkMRCHeaderObject.h Pages: 1 -->
<svg width="986pt" height="588pt"
 viewBox="0.00 0.00 986.00 588.00" xmlns="http://www.w3.org/2000/svg" xmlns:xlink="http://www.w3.org/1999/xlink">
<g id="graph0" class="graph" transform="scale(1 1) rotate(0) translate(4 584)">
<title>itkMRCHeaderObject.h</title>
<polygon fill="white" stroke="transparent" points="-4,4 -4,-584 982,-584 982,4 -4,4"/>
<!-- Node1 -->
<g id="node1" class="node">
<title>Node1</title>
<g id="a_node1"><a xlink:title=" ">
<polygon fill="#bfbfbf" stroke="black" points="234,-560.5 234,-579.5 362,-579.5 362,-560.5 234,-560.5"/>
<text text-anchor="middle" x="298" y="-567.5" font-family="Helvetica,sans-Serif" font-size="10.00">itkMRCHeaderObject.h</text>
</a>
</g>
</g>
<!-- Node2 -->
<g id="node2" class="node">
<title>Node2</title>
<g id="a_node2"><a xlink:title=" ">
<polygon fill="white" stroke="#bfbfbf" points="0,-504.5 0,-523.5 106,-523.5 106,-504.5 0,-504.5"/>
<text text-anchor="middle" x="53" y="-511.5" font-family="Helvetica,sans-Serif" font-size="10.00">ITKIOMRCExport.h</text>
</a>
</g>
</g>
<!-- Node1&#45;&gt;Node2 -->
<g id="edge1" class="edge">
<title>Node1&#45;&gt;Node2</title>
<path fill="none" stroke="midnightblue" d="M259.18,-560.44C216.44,-551.02 147.67,-535.87 101.43,-525.68"/>
<polygon fill="midnightblue" stroke="midnightblue" points="102.16,-522.25 91.64,-523.52 100.65,-529.09 102.16,-522.25"/>
</g>
<!-- Node3 -->
<g id="node3" class="node">
<title>Node3</title>
<g id="a_node3"><a xlink:href="itkObjectFactory_8h.html" target="_top" xlink:title=" ">
<polygon fill="white" stroke="black" points="436,-504.5 436,-523.5 540,-523.5 540,-504.5 436,-504.5"/>
<text text-anchor="middle" x="488" y="-511.5" font-family="Helvetica,sans-Serif" font-size="10.00">itkObjectFactory.h</text>
</a>
</g>
</g>
<!-- Node1&#45;&gt;Node3 -->
<g id="edge2" class="edge">
<title>Node1&#45;&gt;Node3</title>
<path fill="none" stroke="midnightblue" d="M328.11,-560.44C360.63,-551.2 412.58,-536.44 448.39,-526.26"/>
<polygon fill="midnightblue" stroke="midnightblue" points="449.37,-529.62 458.03,-523.52 447.46,-522.88 449.37,-529.62"/>
</g>
<!-- Node7 -->
<g id="node7" class="node">
<title>Node7</title>
<g id="a_node7"><a xlink:href="itkLightObject_8h.html" target="_top" xlink:title=" ">
<polygon fill="white" stroke="black" points="310,-168.5 310,-187.5 404,-187.5 404,-168.5 310,-168.5"/>
<text text-anchor="middle" x="357" y="-175.5" font-family="Helvetica,sans-Serif" font-size="10.00">itkLightObject.h</text>
</a>
</g>
</g>
<!-- Node1&#45;&gt;Node7 -->
<g id="edge47" class="edge">
<title>Node1&#45;&gt;Node7</title>
<path fill="none" stroke="midnightblue" d="M257.04,-560.4C208.46,-547.52 134,-518.14 134,-459 134,-459 134,-459 134,-345 134,-286.11 143.17,-262.19 188,-224 218.92,-197.66 263.68,-186.56 299.37,-181.96"/>
<polygon fill="midnightblue" stroke="midnightblue" points="300.12,-185.4 309.65,-180.78 299.32,-178.45 300.12,-185.4"/>
</g>
<!-- Node15 -->
<g id="node15" class="node">
<title>Node15</title>
<g id="a_node15"><a xlink:href="itkIntTypes_8h.html" target="_top" xlink:title=" ">
<polygon fill="white" stroke="black" points="812.5,-56.5 812.5,-75.5 891.5,-75.5 891.5,-56.5 812.5,-56.5"/>
<text text-anchor="middle" x="852" y="-63.5" font-family="Helvetica,sans-Serif" font-size="10.00">itkIntTypes.h</text>
</a>
</g>
</g>
<!-- Node1&#45;&gt;Node15 -->
<g id="edge48" class="edge">
<title>Node1&#45;&gt;Node15</title>
<path fill="none" stroke="midnightblue" d="M362.28,-565.31C531.79,-554.73 978,-521 978,-459 978,-459 978,-459 978,-177 978,-127.95 923.15,-95.74 885.83,-79.5"/>
<polygon fill="midnightblue" stroke="midnightblue" points="886.87,-76.14 876.29,-75.53 884.18,-82.61 886.87,-76.14"/>
</g>
<!-- Node4 -->
<g id="node4" class="node">
<title>Node4</title>
<g id="a_node4"><a xlink:href="itkObjectFactoryBase_8h.html" target="_top" xlink:title=" ">
<polygon fill="white" stroke="black" points="672.5,-448.5 672.5,-467.5 801.5,-467.5 801.5,-448.5 672.5,-448.5"/>
<text text-anchor="middle" x="737" y="-455.5" font-family="Helvetica,sans-Serif" font-size="10.00">itkObjectFactoryBase.h</text>
</a>
</g>
</g>
<!-- Node3&#45;&gt;Node4 -->
<g id="edge3" class="edge">
<title>Node3&#45;&gt;Node4</title>
<path fill="none" stroke="midnightblue" d="M527.45,-504.44C570.89,-495.02 640.79,-479.87 687.78,-469.68"/>
<polygon fill="midnightblue" stroke="midnightblue" points="688.7,-473.06 697.73,-467.52 687.22,-466.22 688.7,-473.06"/>
</g>
<!-- Node5 -->
<g id="node5" class="node">
<title>Node5</title>
<g id="a_node5"><a xlink:href="itkCreateObjectFunction_8h.html" target="_top" xlink:title=" ">
<polygon fill="white" stroke="black" points="435.5,-392.5 435.5,-411.5 578.5,-411.5 578.5,-392.5 435.5,-392.5"/>
<text text-anchor="middle" x="507" y="-399.5" font-family="Helvetica,sans-Serif" font-size="10.00">itkCreateObjectFunction.h</text>
</a>
</g>
</g>
<!-- Node4&#45;&gt;Node5 -->
<g id="edge4" class="edge">
<title>Node4&#45;&gt;Node5</title>
<path fill="none" stroke="midnightblue" d="M700.56,-448.44C660.6,-439.06 596.41,-423.99 553.02,-413.8"/>
<polygon fill="midnightblue" stroke="midnightblue" points="553.81,-410.39 543.27,-411.52 552.21,-417.21 553.81,-410.39"/>
</g>
<!-- Node19 -->
<g id="node19" class="node">
<title>Node19</title>
<g id="a_node19"><a xlink:href="itkSingletonMacro_8h.html" target="_top" xlink:title=" ">
<polygon fill="white" stroke="black" points="661,-56.5 661,-75.5 775,-75.5 775,-56.5 661,-56.5"/>
<text text-anchor="middle" x="718" y="-63.5" font-family="Helvetica,sans-Serif" font-size="10.00">itkSingletonMacro.h</text>
</a>
</g>
</g>
<!-- Node4&#45;&gt;Node19 -->
<g id="edge41" class="edge">
<title>Node4&#45;&gt;Node19</title>
<path fill="none" stroke="midnightblue" d="M739.56,-448.25C744.75,-429.74 756,-385.18 756,-347 756,-347 756,-347 756,-177 756,-142.81 739.4,-105.76 728.14,-84.57"/>
<polygon fill="midnightblue" stroke="midnightblue" points="731.18,-82.83 723.28,-75.77 725.05,-86.22 731.18,-82.83"/>
</g>
<!-- Node26 -->
<g id="node26" class="node">
<title>Node26</title>
<g id="a_node26"><a xlink:title=" ">
<polygon fill="white" stroke="#bfbfbf" points="642.5,-224.5 642.5,-243.5 689.5,-243.5 689.5,-224.5 642.5,-224.5"/>
<text text-anchor="middle" x="666" y="-231.5" font-family="Helvetica,sans-Serif" font-size="10.00">vector</text>
</a>
</g>
</g>
<!-- Node4&#45;&gt;Node26 -->
<g id="edge46" class="edge">
<title>Node4&#45;&gt;Node26</title>
<path fill="none" stroke="midnightblue" d="M734.22,-448.3C723.75,-415.56 686.59,-299.38 671.97,-253.67"/>
<polygon fill="midnightblue" stroke="midnightblue" points="675.22,-252.34 668.84,-243.88 668.55,-254.47 675.22,-252.34"/>
</g>
<!-- Node31 -->
<g id="node31" class="node">
<title>Node31</title>
<g id="a_node31"><a xlink:href="itkCommonEnums_8h.html" target="_top" xlink:title=" ">
<polygon fill="white" stroke="black" points="784,-392.5 784,-411.5 900,-411.5 900,-392.5 784,-392.5"/>
<text text-anchor="middle" x="842" y="-399.5" font-family="Helvetica,sans-Serif" font-size="10.00">itkCommonEnums.h</text>
</a>
</g>
</g>
<!-- Node4&#45;&gt;Node31 -->
<g id="edge42" class="edge">
<title>Node4&#45;&gt;Node31</title>
<path fill="none" stroke="midnightblue" d="M753.87,-448.32C770.71,-439.66 796.81,-426.24 816.24,-416.25"/>
<polygon fill="midnightblue" stroke="midnightblue" points="817.88,-419.34 825.17,-411.65 814.68,-413.12 817.88,-419.34"/>
</g>
<!-- Node33 -->
<g id="node33" class="node">
<title>Node33</title>
<g id="a_node33"><a xlink:title=" ">
<polygon fill="white" stroke="#bfbfbf" points="918,-392.5 918,-411.5 950,-411.5 950,-392.5 918,-392.5"/>
<text text-anchor="middle" x="934" y="-399.5" font-family="Helvetica,sans-Serif" font-size="10.00">list</text>
</a>
</g>
</g>
<!-- Node4&#45;&gt;Node33 -->
<g id="edge45" class="edge">
<title>Node4&#45;&gt;Node33</title>
<path fill="none" stroke="midnightblue" d="M773.51,-448.46C806.46,-440.52 856.43,-427.94 908.24,-412.03"/>
<polygon fill="midnightblue" stroke="midnightblue" points="909.42,-415.33 917.93,-409.02 907.35,-408.65 909.42,-415.33"/>
</g>
<!-- Node6 -->
<g id="node6" class="node">
<title>Node6</title>
<g id="a_node6"><a xlink:href="itkObject_8h.html" target="_top" xlink:title=" ">
<polygon fill="white" stroke="black" points="307,-336.5 307,-355.5 377,-355.5 377,-336.5 307,-336.5"/>
<text text-anchor="middle" x="342" y="-343.5" font-family="Helvetica,sans-Serif" font-size="10.00">itkObject.h</text>
</a>
</g>
</g>
<!-- Node5&#45;&gt;Node6 -->
<g id="edge5" class="edge">
<title>Node5&#45;&gt;Node6</title>
<path fill="none" stroke="midnightblue" d="M480.86,-392.44C452.98,-383.32 408.65,-368.81 377.6,-358.65"/>
<polygon fill="midnightblue" stroke="midnightblue" points="378.62,-355.3 368.02,-355.52 376.44,-361.95 378.62,-355.3"/>
</g>
<!-- Node6&#45;&gt;Node7 -->
<g id="edge6" class="edge">
<title>Node6&#45;&gt;Node7</title>
<path fill="none" stroke="midnightblue" d="M334.92,-336.47C323.44,-323.07 299.59,-296.87 275,-280 239.81,-255.86 171.23,-258.02 197,-224 209.64,-207.32 259.31,-195.1 300,-187.63"/>
<polygon fill="midnightblue" stroke="midnightblue" points="300.62,-191.08 309.86,-185.88 299.4,-184.18 300.62,-191.08"/>
</g>
<!-- Node6&#45;&gt;Node19 -->
<g id="edge39" class="edge">
<title>Node6&#45;&gt;Node19</title>
<path fill="none" stroke="midnightblue" d="M377.05,-340.1C458.53,-327.94 656.99,-293.78 699,-244 737.49,-198.39 728.73,-120.88 722.09,-85.54"/>
<polygon fill="midnightblue" stroke="midnightblue" points="725.5,-84.75 720.08,-75.65 718.64,-86.15 725.5,-84.75"/>
</g>
<!-- Node22 -->
<g id="node22" class="node">
<title>Node22</title>
<g id="a_node22"><a xlink:href="itkEventObject_8h.html" target="_top" xlink:title=" ">
<polygon fill="white" stroke="black" points="53,-168.5 53,-187.5 151,-187.5 151,-168.5 53,-168.5"/>
<text text-anchor="middle" x="102" y="-175.5" font-family="Helvetica,sans-Serif" font-size="10.00">itkEventObject.h</text>
</a>
</g>
</g>
<!-- Node6&#45;&gt;Node22 -->
<g id="edge27" class="edge">
<title>Node6&#45;&gt;Node22</title>
<path fill="none" stroke="midnightblue" d="M306.85,-341.01C274.34,-335.89 225.9,-324.56 191,-300 152.21,-272.71 123.62,-223.13 110.31,-196.7"/>
<polygon fill="midnightblue" stroke="midnightblue" points="113.36,-194.96 105.83,-187.51 107.06,-198.03 113.36,-194.96"/>
</g>
<!-- Node23 -->
<g id="node23" class="node">
<title>Node23</title>
<g id="a_node23"><a xlink:href="itkMetaDataDictionary_8h.html" target="_top" xlink:title=" ">
<polygon fill="white" stroke="black" points="322.5,-280.5 322.5,-299.5 457.5,-299.5 457.5,-280.5 322.5,-280.5"/>
<text text-anchor="middle" x="390" y="-287.5" font-family="Helvetica,sans-Serif" font-size="10.00">itkMetaDataDictionary.h</text>
</a>
</g>
</g>
<!-- Node6&#45;&gt;Node23 -->
<g id="edge29" class="edge">
<title>Node6&#45;&gt;Node23</title>
<path fill="none" stroke="midnightblue" d="M349.93,-336.08C356.85,-328.3 367.07,-316.8 375.45,-307.37"/>
<polygon fill="midnightblue" stroke="midnightblue" points="378.19,-309.55 382.22,-299.75 372.96,-304.9 378.19,-309.55"/>
</g>
<!-- Node30 -->
<g id="node30" class="node">
<title>Node30</title>
<g id="a_node30"><a xlink:title=" ">
<polygon fill="white" stroke="#bfbfbf" points="200.5,-280.5 200.5,-299.5 265.5,-299.5 265.5,-280.5 200.5,-280.5"/>
<text text-anchor="middle" x="233" y="-287.5" font-family="Helvetica,sans-Serif" font-size="10.00">functional</text>
</a>
</g>
</g>
<!-- Node6&#45;&gt;Node30 -->
<g id="edge40" class="edge">
<title>Node6&#45;&gt;Node30</title>
<path fill="none" stroke="midnightblue" d="M324.49,-336.32C306.93,-327.62 279.67,-314.12 259.47,-304.11"/>
<polygon fill="midnightblue" stroke="midnightblue" points="260.98,-300.96 250.47,-299.65 257.88,-307.23 260.98,-300.96"/>
</g>
<!-- Node8 -->
<g id="node8" class="node">
<title>Node8</title>
<g id="a_node8"><a xlink:href="itkMacro_8h.html" target="_top" xlink:title=" ">
<polygon fill="white" stroke="black" points="344,-0.5 344,-19.5 412,-19.5 412,-0.5 344,-0.5"/>
<text text-anchor="middle" x="378" y="-7.5" font-family="Helvetica,sans-Serif" font-size="10.00">itkMacro.h</text>
</a>
</g>
</g>
<!-- Node7&#45;&gt;Node8 -->
<g id="edge7" class="edge">
<title>Node7&#45;&gt;Node8</title>
<path fill="none" stroke="midnightblue" d="M319.84,-168.44C255.23,-151.87 133.19,-112.02 178,-56 197.12,-32.1 280.86,-20 333.74,-14.63"/>
<polygon fill="midnightblue" stroke="midnightblue" points="334.26,-18.1 343.87,-13.65 333.58,-11.13 334.26,-18.1"/>
</g>
<!-- Node9 -->
<g id="node9" class="node">
<title>Node9</title>
<g id="a_node9"><a xlink:href="itkSmartPointer_8h.html" target="_top" xlink:title=" ">
<polygon fill="white" stroke="black" points="285.5,-112.5 285.5,-131.5 386.5,-131.5 386.5,-112.5 285.5,-112.5"/>
<text text-anchor="middle" x="336" y="-119.5" font-family="Helvetica,sans-Serif" font-size="10.00">itkSmartPointer.h</text>
</a>
</g>
</g>
<!-- Node7&#45;&gt;Node9 -->
<g id="edge8" class="edge">
<title>Node7&#45;&gt;Node9</title>
<path fill="none" stroke="midnightblue" d="M353.53,-168.08C350.69,-160.77 346.57,-150.18 343.04,-141.1"/>
<polygon fill="midnightblue" stroke="midnightblue" points="346.29,-139.8 339.4,-131.75 339.77,-142.34 346.29,-139.8"/>
</g>
<!-- Node10 -->
<g id="node10" class="node">
<title>Node10</title>
<g id="a_node10"><a xlink:title=" ">
<polygon fill="white" stroke="#bfbfbf" points="441,-56.5 441,-75.5 501,-75.5 501,-56.5 441,-56.5"/>
<text text-anchor="middle" x="471" y="-63.5" font-family="Helvetica,sans-Serif" font-size="10.00">iostream</text>
</a>
</g>
</g>
<!-- Node7&#45;&gt;Node10 -->
<g id="edge25" class="edge">
<title>Node7&#45;&gt;Node10</title>
<path fill="none" stroke="midnightblue" d="M365.95,-168.37C385.09,-149.89 430.28,-106.29 454.68,-82.74"/>
<polygon fill="midnightblue" stroke="midnightblue" points="457.33,-85.05 462.1,-75.59 452.47,-80.02 457.33,-85.05"/>
</g>
<!-- Node14 -->
<g id="node14" class="node">
<title>Node14</title>
<g id="a_node14"><a xlink:href="itkTimeStamp_8h.html" target="_top" xlink:title=" ">
<polygon fill="white" stroke="black" points="519.5,-112.5 519.5,-131.5 614.5,-131.5 614.5,-112.5 519.5,-112.5"/>
<text text-anchor="middle" x="567" y="-119.5" font-family="Helvetica,sans-Serif" font-size="10.00">itkTimeStamp.h</text>
</a>
</g>
</g>
<!-- Node7&#45;&gt;Node14 -->
<g id="edge13" class="edge">
<title>Node7&#45;&gt;Node14</title>
<path fill="none" stroke="midnightblue" d="M390.28,-168.44C426.45,-159.14 484.38,-144.25 523.98,-134.06"/>
<polygon fill="midnightblue" stroke="midnightblue" points="525.07,-137.4 533.88,-131.52 523.32,-130.62 525.07,-137.4"/>
</g>
<!-- Node18 -->
<g id="node18" class="node">
<title>Node18</title>
<g id="a_node18"><a xlink:title=" ">
<polygon fill="white" stroke="#bfbfbf" points="519,-56.5 519,-75.5 569,-75.5 569,-56.5 519,-56.5"/>
<text text-anchor="middle" x="544" y="-63.5" font-family="Helvetica,sans-Serif" font-size="10.00">atomic</text>
</a>
</g>
</g>
<!-- Node7&#45;&gt;Node18 -->
<g id="edge24" class="edge">
<title>Node7&#45;&gt;Node18</title>
<path fill="none" stroke="midnightblue" d="M371.67,-168.37C403.9,-149.41 481.1,-104 520.3,-80.94"/>
<polygon fill="midnightblue" stroke="midnightblue" points="522.55,-83.68 529.39,-75.59 519,-77.64 522.55,-83.68"/>
</g>
<!-- Node20 -->
<g id="node20" class="node">
<title>Node20</title>
<g id="a_node20"><a xlink:href="itkIndent_8h.html" target="_top" xlink:title=" ">
<polygon fill="white" stroke="black" points="67.5,-112.5 67.5,-131.5 136.5,-131.5 136.5,-112.5 67.5,-112.5"/>
<text text-anchor="middle" x="102" y="-119.5" font-family="Helvetica,sans-Serif" font-size="10.00">itkIndent.h</text>
</a>
</g>
</g>
<!-- Node7&#45;&gt;Node20 -->
<g id="edge21" class="edge">
<title>Node7&#45;&gt;Node20</title>
<path fill="none" stroke="midnightblue" d="M316.59,-168.44C270.31,-158.64 194.7,-142.63 146.69,-132.46"/>
<polygon fill="midnightblue" stroke="midnightblue" points="147.4,-129.04 136.89,-130.39 145.95,-135.88 147.4,-129.04"/>
</g>
<!-- Node21 -->
<g id="node21" class="node">
<title>Node21</title>
<g id="a_node21"><a xlink:title=" ">
<polygon fill="white" stroke="#bfbfbf" points="632.5,-112.5 632.5,-131.5 689.5,-131.5 689.5,-112.5 632.5,-112.5"/>
<text text-anchor="middle" x="661" y="-119.5" font-family="Helvetica,sans-Serif" font-size="10.00">typeinfo</text>
</a>
</g>
</g>
<!-- Node7&#45;&gt;Node21 -->
<g id="edge26" class="edge">
<title>Node7&#45;&gt;Node21</title>
<path fill="none" stroke="midnightblue" d="M404.46,-170.05C455.9,-162.29 540.62,-148.82 622.41,-132.22"/>
<polygon fill="midnightblue" stroke="midnightblue" points="623.27,-135.62 632.36,-130.18 621.86,-128.76 623.27,-135.62"/>
</g>
<!-- Node9&#45;&gt;Node10 -->
<g id="edge9" class="edge">
<title>Node9&#45;&gt;Node10</title>
<path fill="none" stroke="midnightblue" d="M357.39,-112.44C379.71,-103.52 414.9,-89.44 440.21,-79.32"/>
<polygon fill="midnightblue" stroke="midnightblue" points="441.72,-82.48 449.71,-75.52 439.12,-75.98 441.72,-82.48"/>
</g>
<!-- Node11 -->
<g id="node11" class="node">
<title>Node11</title>
<g id="a_node11"><a xlink:title=" ">
<polygon fill="white" stroke="#bfbfbf" points="290.5,-56.5 290.5,-75.5 335.5,-75.5 335.5,-56.5 290.5,-56.5"/>
<text text-anchor="middle" x="313" y="-63.5" font-family="Helvetica,sans-Serif" font-size="10.00">utility</text>
</a>
</g>
</g>
<!-- Node9&#45;&gt;Node11 -->
<g id="edge10" class="edge">
<title>Node9&#45;&gt;Node11</title>
<path fill="none" stroke="midnightblue" d="M332.2,-112.08C329.09,-104.77 324.58,-94.18 320.71,-85.1"/>
<polygon fill="midnightblue" stroke="midnightblue" points="323.87,-83.58 316.73,-75.75 317.43,-86.32 323.87,-83.58"/>
</g>
<!-- Node12 -->
<g id="node12" class="node">
<title>Node12</title>
<g id="a_node12"><a xlink:title=" ">
<polygon fill="white" stroke="#bfbfbf" points="353.5,-56.5 353.5,-75.5 422.5,-75.5 422.5,-56.5 353.5,-56.5"/>
<text text-anchor="middle" x="388" y="-63.5" font-family="Helvetica,sans-Serif" font-size="10.00">type_traits</text>
</a>
</g>
</g>
<!-- Node9&#45;&gt;Node12 -->
<g id="edge11" class="edge">
<title>Node9&#45;&gt;Node12</title>
<path fill="none" stroke="midnightblue" d="M344.59,-112.08C352.16,-104.22 363.38,-92.57 372.51,-83.08"/>
<polygon fill="midnightblue" stroke="midnightblue" points="375.16,-85.38 379.57,-75.75 370.12,-80.53 375.16,-85.38"/>
</g>
<!-- Node13 -->
<g id="node13" class="node">
<title>Node13</title>
<g id="a_node13"><a xlink:title=" ">
<polygon fill="white" stroke="#bfbfbf" points="187.5,-56.5 187.5,-75.5 272.5,-75.5 272.5,-56.5 187.5,-56.5"/>
<text text-anchor="middle" x="230" y="-63.5" font-family="Helvetica,sans-Serif" font-size="10.00">itkConfigure.h</text>
</a>
</g>
</g>
<!-- Node9&#45;&gt;Node13 -->
<g id="edge12" class="edge">
<title>Node9&#45;&gt;Node13</title>
<path fill="none" stroke="midnightblue" d="M318.97,-112.32C301.97,-103.66 275.62,-90.24 256.01,-80.25"/>
<polygon fill="midnightblue" stroke="midnightblue" points="257.49,-77.08 246.99,-75.65 254.31,-83.31 257.49,-77.08"/>
</g>
<!-- Node14&#45;&gt;Node8 -->
<g id="edge14" class="edge">
<title>Node14&#45;&gt;Node8</title>
<path fill="none" stroke="midnightblue" d="M572.24,-112.37C579.72,-98.83 591.16,-72.44 578,-56 558.88,-32.1 475.14,-20 422.26,-14.63"/>
<polygon fill="midnightblue" stroke="midnightblue" points="422.42,-11.13 412.13,-13.65 421.74,-18.1 422.42,-11.13"/>
</g>
<!-- Node14&#45;&gt;Node15 -->
<g id="edge15" class="edge">
<title>Node14&#45;&gt;Node15</title>
<path fill="none" stroke="midnightblue" d="M612.16,-112.44C663.92,-102.64 748.49,-86.61 802.14,-76.45"/>
<polygon fill="midnightblue" stroke="midnightblue" points="802.94,-79.86 812.11,-74.56 801.63,-72.98 802.94,-79.86"/>
</g>
<!-- Node14&#45;&gt;Node18 -->
<g id="edge19" class="edge">
<title>Node14&#45;&gt;Node18</title>
<path fill="none" stroke="midnightblue" d="M563.2,-112.08C560.09,-104.77 555.58,-94.18 551.71,-85.1"/>
<polygon fill="midnightblue" stroke="midnightblue" points="554.87,-83.58 547.73,-75.75 548.43,-86.32 554.87,-83.58"/>
</g>
<!-- Node14&#45;&gt;Node19 -->
<g id="edge20" class="edge">
<title>Node14&#45;&gt;Node19</title>
<path fill="none" stroke="midnightblue" d="M590.93,-112.44C616.22,-103.4 656.3,-89.06 684.68,-78.92"/>
<polygon fill="midnightblue" stroke="midnightblue" points="685.95,-82.18 694.19,-75.52 683.59,-75.59 685.95,-82.18"/>
</g>
<!-- Node15&#45;&gt;Node8 -->
<g id="edge16" class="edge">
<title>Node15&#45;&gt;Node8</title>
<path fill="none" stroke="midnightblue" d="M812.46,-59.62C803.14,-58.39 793.22,-57.12 784,-56 652.55,-40.02 496.87,-23.41 422.23,-15.59"/>
<polygon fill="midnightblue" stroke="midnightblue" points="422.56,-12.11 412.25,-14.55 421.83,-19.07 422.56,-12.11"/>
</g>
<!-- Node16 -->
<g id="node16" class="node">
<title>Node16</title>
<g id="a_node16"><a xlink:title=" ">
<polygon fill="white" stroke="#bfbfbf" points="793,-0.5 793,-19.5 843,-19.5 843,-0.5 793,-0.5"/>
<text text-anchor="middle" x="818" y="-7.5" font-family="Helvetica,sans-Serif" font-size="10.00">cstdint</text>
</a>
</g>
</g>
<!-- Node15&#45;&gt;Node16 -->
<g id="edge17" class="edge">
<title>Node15&#45;&gt;Node16</title>
<path fill="none" stroke="midnightblue" d="M846.39,-56.08C841.63,-48.53 834.68,-37.49 828.85,-28.23"/>
<polygon fill="midnightblue" stroke="midnightblue" points="831.8,-26.35 823.51,-19.75 825.88,-30.08 831.8,-26.35"/>
</g>
<!-- Node17 -->
<g id="node17" class="node">
<title>Node17</title>
<g id="a_node17"><a xlink:title=" ">
<polygon fill="white" stroke="#bfbfbf" points="861,-0.5 861,-19.5 911,-19.5 911,-0.5 861,-0.5"/>
<text text-anchor="middle" x="886" y="-7.5" font-family="Helvetica,sans-Serif" font-size="10.00">climits</text>
</a>
</g>
</g>
<!-- Node15&#45;&gt;Node17 -->
<g id="edge18" class="edge">
<title>Node15&#45;&gt;Node17</title>
<path fill="none" stroke="midnightblue" d="M857.61,-56.08C862.37,-48.53 869.32,-37.49 875.15,-28.23"/>
<polygon fill="midnightblue" stroke="midnightblue" points="878.12,-30.08 880.49,-19.75 872.2,-26.35 878.12,-30.08"/>
</g>
<!-- Node20&#45;&gt;Node8 -->
<g id="edge22" class="edge">
<title>Node20&#45;&gt;Node8</title>
<path fill="none" stroke="midnightblue" d="M105.19,-112.21C110.85,-97.95 124.07,-69.97 145,-56 175.31,-35.77 274.97,-22.01 333.67,-15.44"/>
<polygon fill="midnightblue" stroke="midnightblue" points="334.22,-18.9 343.78,-14.34 333.46,-11.94 334.22,-18.9"/>
</g>
<!-- Node20&#45;&gt;Node10 -->
<g id="edge23" class="edge">
<title>Node20&#45;&gt;Node10</title>
<path fill="none" stroke="midnightblue" d="M136.85,-117.31C195.51,-110.86 317.89,-96.43 430.96,-76.05"/>
<polygon fill="midnightblue" stroke="midnightblue" points="431.61,-79.49 440.82,-74.25 430.36,-72.6 431.61,-79.49"/>
</g>
<!-- Node22&#45;&gt;Node20 -->
<g id="edge28" class="edge">
<title>Node22&#45;&gt;Node20</title>
<path fill="none" stroke="midnightblue" d="M102,-168.08C102,-161.01 102,-150.86 102,-141.99"/>
<polygon fill="midnightblue" stroke="midnightblue" points="105.5,-141.75 102,-131.75 98.5,-141.75 105.5,-141.75"/>
</g>
<!-- Node24 -->
<g id="node24" class="node">
<title>Node24</title>
<g id="a_node24"><a xlink:href="itkMetaDataObjectBase_8h.html" target="_top" xlink:title=" ">
<polygon fill="white" stroke="black" points="420,-224.5 420,-243.5 562,-243.5 562,-224.5 420,-224.5"/>
<text text-anchor="middle" x="491" y="-231.5" font-family="Helvetica,sans-Serif" font-size="10.00">itkMetaDataObjectBase.h</text>
</a>
</g>
</g>
<!-- Node23&#45;&gt;Node24 -->
<g id="edge30" class="edge">
<title>Node23&#45;&gt;Node24</title>
<path fill="none" stroke="midnightblue" d="M406.23,-280.32C422.35,-271.7 447.3,-258.36 465.96,-248.39"/>
<polygon fill="midnightblue" stroke="midnightblue" points="467.64,-251.46 474.81,-243.65 464.34,-245.28 467.64,-251.46"/>
</g>
<!-- Node25 -->
<g id="node25" class="node">
<title>Node25</title>
<g id="a_node25"><a xlink:title=" ">
<polygon fill="white" stroke="#bfbfbf" points="282,-224.5 282,-243.5 346,-243.5 346,-224.5 282,-224.5"/>
<text text-anchor="middle" x="314" y="-231.5" font-family="Helvetica,sans-Serif" font-size="10.00">algorithm</text>
</a>
</g>
</g>
<!-- Node23&#45;&gt;Node25 -->
<g id="edge34" class="edge">
<title>Node23&#45;&gt;Node25</title>
<path fill="none" stroke="midnightblue" d="M377.79,-280.32C366.22,-272.11 348.62,-259.6 334.84,-249.81"/>
<polygon fill="midnightblue" stroke="midnightblue" points="336.61,-246.77 326.43,-243.83 332.56,-252.48 336.61,-246.77"/>
</g>
<!-- Node23&#45;&gt;Node26 -->
<g id="edge35" class="edge">
<title>Node23&#45;&gt;Node26</title>
<path fill="none" stroke="midnightblue" d="M443.35,-280.43C490.54,-272.56 561.45,-260.01 632.28,-244.01"/>
<polygon fill="midnightblue" stroke="midnightblue" points="633.3,-247.36 642.27,-241.73 631.74,-240.54 633.3,-247.36"/>
</g>
<!-- Node27 -->
<g id="node27" class="node">
<title>Node27</title>
<g id="a_node27"><a xlink:title=" ">
<polygon fill="white" stroke="#bfbfbf" points="364,-224.5 364,-243.5 402,-243.5 402,-224.5 364,-224.5"/>
<text text-anchor="middle" x="383" y="-231.5" font-family="Helvetica,sans-Serif" font-size="10.00">map</text>
</a>
</g>
</g>
<!-- Node23&#45;&gt;Node27 -->
<g id="edge36" class="edge">
<title>Node23&#45;&gt;Node27</title>
<path fill="none" stroke="midnightblue" d="M388.84,-280.08C387.92,-272.93 386.58,-262.64 385.42,-253.69"/>
<polygon fill="midnightblue" stroke="midnightblue" points="388.89,-253.22 384.13,-243.75 381.95,-254.12 388.89,-253.22"/>
</g>
<!-- Node28 -->
<g id="node28" class="node">
<title>Node28</title>
<g id="a_node28"><a xlink:title=" ">
<polygon fill="white" stroke="#bfbfbf" points="580,-224.5 580,-243.5 624,-243.5 624,-224.5 580,-224.5"/>
<text text-anchor="middle" x="602" y="-231.5" font-family="Helvetica,sans-Serif" font-size="10.00">string</text>
</a>
</g>
</g>
<!-- Node23&#45;&gt;Node28 -->
<g id="edge37" class="edge">
<title>Node23&#45;&gt;Node28</title>
<path fill="none" stroke="midnightblue" d="M426.17,-280.45C460.7,-272.18 514.45,-259.07 569.71,-244.27"/>
<polygon fill="midnightblue" stroke="midnightblue" points="570.93,-247.57 579.68,-241.59 569.11,-240.81 570.93,-247.57"/>
</g>
<!-- Node29 -->
<g id="node29" class="node">
<title>Node29</title>
<g id="a_node29"><a xlink:title=" ">
<polygon fill="white" stroke="#bfbfbf" points="206,-224.5 206,-243.5 264,-243.5 264,-224.5 206,-224.5"/>
<text text-anchor="middle" x="235" y="-231.5" font-family="Helvetica,sans-Serif" font-size="10.00">memory</text>
</a>
</g>
</g>
<!-- Node23&#45;&gt;Node29 -->
<g id="edge38" class="edge">
<title>Node23&#45;&gt;Node29</title>
<path fill="none" stroke="midnightblue" d="M365.44,-280.44C339.48,-271.4 298.33,-257.06 269.2,-246.92"/>
<polygon fill="midnightblue" stroke="midnightblue" points="270.04,-243.5 259.45,-243.52 267.74,-250.11 270.04,-243.5"/>
</g>
<!-- Node24&#45;&gt;Node7 -->
<g id="edge31" class="edge">
<title>Node24&#45;&gt;Node7</title>
<path fill="none" stroke="midnightblue" d="M469.77,-224.44C447.62,-215.52 412.68,-201.44 387.56,-191.32"/>
<polygon fill="midnightblue" stroke="midnightblue" points="388.72,-188.01 378.13,-187.52 386.1,-194.5 388.72,-188.01"/>
</g>
<!-- Node24&#45;&gt;Node10 -->
<g id="edge33" class="edge">
<title>Node24&#45;&gt;Node10</title>
<path fill="none" stroke="midnightblue" d="M489.92,-224.08C486.78,-197.95 477.53,-121.21 473.24,-85.58"/>
<polygon fill="midnightblue" stroke="midnightblue" points="476.7,-85.08 472.03,-75.57 469.75,-85.92 476.7,-85.08"/>
</g>
<!-- Node24&#45;&gt;Node21 -->
<g id="edge32" class="edge">
<title>Node24&#45;&gt;Node21</title>
<path fill="none" stroke="midnightblue" d="M504.34,-224.37C533.51,-205.49 603.22,-160.38 639,-137.24"/>
<polygon fill="midnightblue" stroke="midnightblue" points="641.23,-139.96 647.72,-131.59 637.43,-134.09 641.23,-139.96"/>
</g>
<!-- Node31&#45;&gt;Node15 -->
<g id="edge43" class="edge">
<title>Node31&#45;&gt;Node15</title>
<path fill="none" stroke="midnightblue" d="M845.78,-392.35C853.42,-374.03 870,-329.82 870,-291 870,-291 870,-291 870,-177 870,-144.54 862.27,-107.38 856.94,-85.63"/>
<polygon fill="midnightblue" stroke="midnightblue" points="860.29,-84.59 854.43,-75.76 853.51,-86.32 860.29,-84.59"/>
</g>
<!-- Node32 -->
<g id="node32" class="node">
<title>Node32</title>
<g id="a_node32"><a xlink:title=" ">
<polygon fill="white" stroke="#bfbfbf" points="784.5,-336.5 784.5,-355.5 841.5,-355.5 841.5,-336.5 784.5,-336.5"/>
<text text-anchor="middle" x="813" y="-343.5" font-family="Helvetica,sans-Serif" font-size="10.00">ostream</text>
</a>
</g>
</g>
<!-- Node31&#45;&gt;Node32 -->
<g id="edge44" class="edge">
<title>Node31&#45;&gt;Node32</title>
<path fill="none" stroke="midnightblue" d="M837.21,-392.08C833.24,-384.69 827.47,-373.95 822.57,-364.81"/>
<polygon fill="midnightblue" stroke="midnightblue" points="825.51,-362.91 817.7,-355.75 819.35,-366.22 825.51,-362.91"/>
</g>
</g>
</svg>
