<?xml version="1.0" encoding="UTF-8" standalone="no"?>
<!DOCTYPE svg PUBLIC "-//W3C//DTD SVG 1.1//EN"
 "http://www.w3.org/Graphics/SVG/1.1/DTD/svg11.dtd">
<!-- Generated by graphviz version 2.43.0 (0)
 -->
<!-- Title: itkMapContainer.h Pages: 1 -->
<svg width="787pt" height="588pt"
 viewBox="0.00 0.00 787.00 588.00" xmlns="http://www.w3.org/2000/svg" xmlns:xlink="http://www.w3.org/1999/xlink">
<g id="graph0" class="graph" transform="scale(1 1) rotate(0) translate(4 584)">
<title>itkMapContainer.h</title>
<polygon fill="white" stroke="transparent" points="-4,4 -4,-584 783,-584 783,4 -4,4"/>
<!-- Node1 -->
<g id="node1" class="node">
<title>Node1</title>
<g id="a_node1"><a xlink:title=" ">
<polygon fill="#bfbfbf" stroke="black" points="334,-560.5 334,-579.5 440,-579.5 440,-560.5 334,-560.5"/>
<text text-anchor="middle" x="387" y="-567.5" font-family="Helvetica,sans-Serif" font-size="10.00">itkMapContainer.h</text>
</a>
</g>
</g>
<!-- Node2 -->
<g id="node2" class="node">
<title>Node2</title>
<g id="a_node2"><a xlink:href="itkObject_8h.html" target="_top" xlink:title=" ">
<polygon fill="white" stroke="black" points="336,-336.5 336,-355.5 406,-355.5 406,-336.5 336,-336.5"/>
<text text-anchor="middle" x="371" y="-343.5" font-family="Helvetica,sans-Serif" font-size="10.00">itkObject.h</text>
</a>
</g>
</g>
<!-- Node1&#45;&gt;Node2 -->
<g id="edge1" class="edge">
<title>Node1&#45;&gt;Node2</title>
<path fill="none" stroke="midnightblue" d="M381.62,-560.44C376.44,-551.68 368.99,-537.47 366,-524 353.43,-467.35 362.12,-398.02 367.54,-365.5"/>
<polygon fill="midnightblue" stroke="midnightblue" points="371,-366.07 369.29,-355.61 364.1,-364.85 371,-366.07"/>
</g>
<!-- Node23 -->
<g id="node23" class="node">
<title>Node23</title>
<g id="a_node23"><a xlink:title=" ">
<polygon fill="white" stroke="#bfbfbf" points="9,-224.5 9,-243.5 47,-243.5 47,-224.5 9,-224.5"/>
<text text-anchor="middle" x="28" y="-231.5" font-family="Helvetica,sans-Serif" font-size="10.00">map</text>
</a>
</g>
</g>
<!-- Node1&#45;&gt;Node23 -->
<g id="edge47" class="edge">
<title>Node1&#45;&gt;Node23</title>
<path fill="none" stroke="midnightblue" d="M333.62,-563.62C234.73,-552.17 33,-521.19 33,-459 33,-459 33,-459 33,-345 33,-312.91 30.85,-275.62 29.37,-253.74"/>
<polygon fill="midnightblue" stroke="midnightblue" points="32.85,-253.28 28.65,-243.55 25.86,-253.77 32.85,-253.28"/>
</g>
<!-- Node27 -->
<g id="node27" class="node">
<title>Node27</title>
<g id="a_node27"><a xlink:href="itkObjectFactory_8h.html" target="_top" xlink:title=" ">
<polygon fill="white" stroke="black" points="375,-504.5 375,-523.5 479,-523.5 479,-504.5 375,-504.5"/>
<text text-anchor="middle" x="427" y="-511.5" font-family="Helvetica,sans-Serif" font-size="10.00">itkObjectFactory.h</text>
</a>
</g>
</g>
<!-- Node1&#45;&gt;Node27 -->
<g id="edge37" class="edge">
<title>Node1&#45;&gt;Node27</title>
<path fill="none" stroke="midnightblue" d="M393.61,-560.08C399.26,-552.46 407.54,-541.26 414.45,-531.94"/>
<polygon fill="midnightblue" stroke="midnightblue" points="417.38,-533.87 420.52,-523.75 411.75,-529.7 417.38,-533.87"/>
</g>
<!-- Node33 -->
<g id="node33" class="node">
<title>Node33</title>
<g id="a_node33"><a xlink:title=" ">
<polygon fill="white" stroke="#bfbfbf" points="497,-504.5 497,-523.5 615,-523.5 615,-504.5 497,-504.5"/>
<text text-anchor="middle" x="556" y="-511.5" font-family="Helvetica,sans-Serif" font-size="10.00">itkMapContainer.hxx</text>
</a>
</g>
</g>
<!-- Node1&#45;&gt;Node33 -->
<g id="edge48" class="edge">
<title>Node1&#45;&gt;Node33</title>
<path fill="none" stroke="midnightblue" d="M413.78,-560.44C442.33,-551.32 487.73,-536.81 519.54,-526.65"/>
<polygon fill="midnightblue" stroke="midnightblue" points="520.89,-529.89 529.35,-523.52 518.76,-523.23 520.89,-529.89"/>
</g>
<!-- Node3 -->
<g id="node3" class="node">
<title>Node3</title>
<g id="a_node3"><a xlink:href="itkLightObject_8h.html" target="_top" xlink:title=" ">
<polygon fill="white" stroke="black" points="272,-168.5 272,-187.5 366,-187.5 366,-168.5 272,-168.5"/>
<text text-anchor="middle" x="319" y="-175.5" font-family="Helvetica,sans-Serif" font-size="10.00">itkLightObject.h</text>
</a>
</g>
</g>
<!-- Node2&#45;&gt;Node3 -->
<g id="edge2" class="edge">
<title>Node2&#45;&gt;Node3</title>
<path fill="none" stroke="midnightblue" d="M393.01,-336.48C409.88,-329.01 432.79,-316.72 448,-300 472.03,-273.6 495.44,-252.55 474,-224 462.03,-208.06 415.48,-195.94 376.49,-188.31"/>
<polygon fill="midnightblue" stroke="midnightblue" points="376.73,-184.8 366.25,-186.38 375.43,-191.67 376.73,-184.8"/>
</g>
<!-- Node15 -->
<g id="node15" class="node">
<title>Node15</title>
<g id="a_node15"><a xlink:href="itkSingletonMacro_8h.html" target="_top" xlink:title=" ">
<polygon fill="white" stroke="black" points="545,-56.5 545,-75.5 659,-75.5 659,-56.5 545,-56.5"/>
<text text-anchor="middle" x="602" y="-63.5" font-family="Helvetica,sans-Serif" font-size="10.00">itkSingletonMacro.h</text>
</a>
</g>
</g>
<!-- Node2&#45;&gt;Node15 -->
<g id="edge35" class="edge">
<title>Node2&#45;&gt;Node15</title>
<path fill="none" stroke="midnightblue" d="M406.33,-338.61C453.89,-328 537.25,-301.87 578,-244 612.17,-195.48 608.67,-120.59 604.72,-85.87"/>
<polygon fill="midnightblue" stroke="midnightblue" points="608.16,-85.21 603.42,-75.73 601.22,-86.1 608.16,-85.21"/>
</g>
<!-- Node18 -->
<g id="node18" class="node">
<title>Node18</title>
<g id="a_node18"><a xlink:href="itkEventObject_8h.html" target="_top" xlink:title=" ">
<polygon fill="white" stroke="black" points="0,-168.5 0,-187.5 98,-187.5 98,-168.5 0,-168.5"/>
<text text-anchor="middle" x="49" y="-175.5" font-family="Helvetica,sans-Serif" font-size="10.00">itkEventObject.h</text>
</a>
</g>
</g>
<!-- Node2&#45;&gt;Node18 -->
<g id="edge23" class="edge">
<title>Node2&#45;&gt;Node18</title>
<path fill="none" stroke="midnightblue" d="M335.55,-340.15C278.69,-330.75 166.17,-305.31 94,-244 78.51,-230.84 65.89,-211.16 57.99,-196.9"/>
<polygon fill="midnightblue" stroke="midnightblue" points="60.87,-194.86 53.11,-187.65 54.68,-198.13 60.87,-194.86"/>
</g>
<!-- Node19 -->
<g id="node19" class="node">
<title>Node19</title>
<g id="a_node19"><a xlink:href="itkMetaDataDictionary_8h.html" target="_top" xlink:title=" ">
<polygon fill="white" stroke="black" points="303.5,-280.5 303.5,-299.5 438.5,-299.5 438.5,-280.5 303.5,-280.5"/>
<text text-anchor="middle" x="371" y="-287.5" font-family="Helvetica,sans-Serif" font-size="10.00">itkMetaDataDictionary.h</text>
</a>
</g>
</g>
<!-- Node2&#45;&gt;Node19 -->
<g id="edge25" class="edge">
<title>Node2&#45;&gt;Node19</title>
<path fill="none" stroke="midnightblue" d="M371,-336.08C371,-329.01 371,-318.86 371,-309.99"/>
<polygon fill="midnightblue" stroke="midnightblue" points="374.5,-309.75 371,-299.75 367.5,-309.75 374.5,-309.75"/>
</g>
<!-- Node26 -->
<g id="node26" class="node">
<title>Node26</title>
<g id="a_node26"><a xlink:title=" ">
<polygon fill="white" stroke="#bfbfbf" points="220.5,-280.5 220.5,-299.5 285.5,-299.5 285.5,-280.5 220.5,-280.5"/>
<text text-anchor="middle" x="253" y="-287.5" font-family="Helvetica,sans-Serif" font-size="10.00">functional</text>
</a>
</g>
</g>
<!-- Node2&#45;&gt;Node26 -->
<g id="edge36" class="edge">
<title>Node2&#45;&gt;Node26</title>
<path fill="none" stroke="midnightblue" d="M352.3,-336.44C333.06,-327.64 302.85,-313.81 280.8,-303.72"/>
<polygon fill="midnightblue" stroke="midnightblue" points="282.16,-300.5 271.61,-299.52 279.25,-306.86 282.16,-300.5"/>
</g>
<!-- Node4 -->
<g id="node4" class="node">
<title>Node4</title>
<g id="a_node4"><a xlink:href="itkMacro_8h.html" target="_top" xlink:title=" ">
<polygon fill="white" stroke="black" points="430,-0.5 430,-19.5 498,-19.5 498,-0.5 430,-0.5"/>
<text text-anchor="middle" x="464" y="-7.5" font-family="Helvetica,sans-Serif" font-size="10.00">itkMacro.h</text>
</a>
</g>
</g>
<!-- Node3&#45;&gt;Node4 -->
<g id="edge3" class="edge">
<title>Node3&#45;&gt;Node4</title>
<path fill="none" stroke="midnightblue" d="M333.41,-168.19C346.29,-159.88 365.2,-146.55 379,-132 407,-102.49 406.4,-89.13 430,-56 436.83,-46.41 444.75,-35.9 451.22,-27.45"/>
<polygon fill="midnightblue" stroke="midnightblue" points="454,-29.58 457.34,-19.52 448.46,-25.3 454,-29.58"/>
</g>
<!-- Node5 -->
<g id="node5" class="node">
<title>Node5</title>
<g id="a_node5"><a xlink:href="itkSmartPointer_8h.html" target="_top" xlink:title=" ">
<polygon fill="white" stroke="black" points="268.5,-112.5 268.5,-131.5 369.5,-131.5 369.5,-112.5 268.5,-112.5"/>
<text text-anchor="middle" x="319" y="-119.5" font-family="Helvetica,sans-Serif" font-size="10.00">itkSmartPointer.h</text>
</a>
</g>
</g>
<!-- Node3&#45;&gt;Node5 -->
<g id="edge4" class="edge">
<title>Node3&#45;&gt;Node5</title>
<path fill="none" stroke="midnightblue" d="M319,-168.08C319,-161.01 319,-150.86 319,-141.99"/>
<polygon fill="midnightblue" stroke="midnightblue" points="322.5,-141.75 319,-131.75 315.5,-141.75 322.5,-141.75"/>
</g>
<!-- Node6 -->
<g id="node6" class="node">
<title>Node6</title>
<g id="a_node6"><a xlink:title=" ">
<polygon fill="white" stroke="#bfbfbf" points="69,-56.5 69,-75.5 129,-75.5 129,-56.5 69,-56.5"/>
<text text-anchor="middle" x="99" y="-63.5" font-family="Helvetica,sans-Serif" font-size="10.00">iostream</text>
</a>
</g>
</g>
<!-- Node3&#45;&gt;Node6 -->
<g id="edge21" class="edge">
<title>Node3&#45;&gt;Node6</title>
<path fill="none" stroke="midnightblue" d="M307.77,-168.28C290.08,-154.86 254.32,-128.9 221,-112 194.1,-98.35 162.06,-86.7 137.56,-78.67"/>
<polygon fill="midnightblue" stroke="midnightblue" points="138.48,-75.29 127.89,-75.56 136.34,-81.95 138.48,-75.29"/>
</g>
<!-- Node10 -->
<g id="node10" class="node">
<title>Node10</title>
<g id="a_node10"><a xlink:href="itkTimeStamp_8h.html" target="_top" xlink:title=" ">
<polygon fill="white" stroke="black" points="473.5,-112.5 473.5,-131.5 568.5,-131.5 568.5,-112.5 473.5,-112.5"/>
<text text-anchor="middle" x="521" y="-119.5" font-family="Helvetica,sans-Serif" font-size="10.00">itkTimeStamp.h</text>
</a>
</g>
</g>
<!-- Node3&#45;&gt;Node10 -->
<g id="edge9" class="edge">
<title>Node3&#45;&gt;Node10</title>
<path fill="none" stroke="midnightblue" d="M351.01,-168.44C385.73,-159.16 441.29,-144.31 479.38,-134.13"/>
<polygon fill="midnightblue" stroke="midnightblue" points="480.39,-137.48 489.14,-131.52 478.58,-130.72 480.39,-137.48"/>
</g>
<!-- Node14 -->
<g id="node14" class="node">
<title>Node14</title>
<g id="a_node14"><a xlink:title=" ">
<polygon fill="white" stroke="#bfbfbf" points="439,-56.5 439,-75.5 489,-75.5 489,-56.5 439,-56.5"/>
<text text-anchor="middle" x="464" y="-63.5" font-family="Helvetica,sans-Serif" font-size="10.00">atomic</text>
</a>
</g>
</g>
<!-- Node3&#45;&gt;Node14 -->
<g id="edge20" class="edge">
<title>Node3&#45;&gt;Node14</title>
<path fill="none" stroke="midnightblue" d="M350.09,-168.42C371.73,-161.3 400.29,-149.48 421,-132 436.31,-119.08 448.29,-99.36 455.68,-85.03"/>
<polygon fill="midnightblue" stroke="midnightblue" points="458.98,-86.24 460.22,-75.72 452.69,-83.17 458.98,-86.24"/>
</g>
<!-- Node16 -->
<g id="node16" class="node">
<title>Node16</title>
<g id="a_node16"><a xlink:href="itkIndent_8h.html" target="_top" xlink:title=" ">
<polygon fill="white" stroke="black" points="21.5,-112.5 21.5,-131.5 90.5,-131.5 90.5,-112.5 21.5,-112.5"/>
<text text-anchor="middle" x="56" y="-119.5" font-family="Helvetica,sans-Serif" font-size="10.00">itkIndent.h</text>
</a>
</g>
</g>
<!-- Node3&#45;&gt;Node16 -->
<g id="edge17" class="edge">
<title>Node3&#45;&gt;Node16</title>
<path fill="none" stroke="midnightblue" d="M277.33,-168.44C229.19,-158.56 150.28,-142.36 100.84,-132.21"/>
<polygon fill="midnightblue" stroke="midnightblue" points="101.26,-128.72 90.76,-130.14 99.85,-135.58 101.26,-128.72"/>
</g>
<!-- Node17 -->
<g id="node17" class="node">
<title>Node17</title>
<g id="a_node17"><a xlink:title=" ">
<polygon fill="white" stroke="#bfbfbf" points="154.5,-112.5 154.5,-131.5 211.5,-131.5 211.5,-112.5 154.5,-112.5"/>
<text text-anchor="middle" x="183" y="-119.5" font-family="Helvetica,sans-Serif" font-size="10.00">typeinfo</text>
</a>
</g>
</g>
<!-- Node3&#45;&gt;Node17 -->
<g id="edge22" class="edge">
<title>Node3&#45;&gt;Node17</title>
<path fill="none" stroke="midnightblue" d="M297.45,-168.44C274.97,-159.52 239.51,-145.44 214.02,-135.32"/>
<polygon fill="midnightblue" stroke="midnightblue" points="215.03,-131.95 204.45,-131.52 212.45,-138.46 215.03,-131.95"/>
</g>
<!-- Node5&#45;&gt;Node6 -->
<g id="edge5" class="edge">
<title>Node5&#45;&gt;Node6</title>
<path fill="none" stroke="midnightblue" d="M284.14,-112.44C244.63,-102.75 180.34,-86.97 138.87,-76.79"/>
<polygon fill="midnightblue" stroke="midnightblue" points="139.65,-73.37 129.1,-74.39 137.98,-80.17 139.65,-73.37"/>
</g>
<!-- Node7 -->
<g id="node7" class="node">
<title>Node7</title>
<g id="a_node7"><a xlink:title=" ">
<polygon fill="white" stroke="#bfbfbf" points="337.5,-56.5 337.5,-75.5 382.5,-75.5 382.5,-56.5 337.5,-56.5"/>
<text text-anchor="middle" x="360" y="-63.5" font-family="Helvetica,sans-Serif" font-size="10.00">utility</text>
</a>
</g>
</g>
<!-- Node5&#45;&gt;Node7 -->
<g id="edge6" class="edge">
<title>Node5&#45;&gt;Node7</title>
<path fill="none" stroke="midnightblue" d="M325.77,-112.08C331.56,-104.46 340.06,-93.26 347.14,-83.94"/>
<polygon fill="midnightblue" stroke="midnightblue" points="350.1,-85.83 353.36,-75.75 344.52,-81.6 350.1,-85.83"/>
</g>
<!-- Node8 -->
<g id="node8" class="node">
<title>Node8</title>
<g id="a_node8"><a xlink:title=" ">
<polygon fill="white" stroke="#bfbfbf" points="147.5,-56.5 147.5,-75.5 216.5,-75.5 216.5,-56.5 147.5,-56.5"/>
<text text-anchor="middle" x="182" y="-63.5" font-family="Helvetica,sans-Serif" font-size="10.00">type_traits</text>
</a>
</g>
</g>
<!-- Node5&#45;&gt;Node8 -->
<g id="edge7" class="edge">
<title>Node5&#45;&gt;Node8</title>
<path fill="none" stroke="midnightblue" d="M297.29,-112.44C274.65,-103.52 238.93,-89.44 213.25,-79.32"/>
<polygon fill="midnightblue" stroke="midnightblue" points="214.19,-75.93 203.61,-75.52 211.63,-82.44 214.19,-75.93"/>
</g>
<!-- Node9 -->
<g id="node9" class="node">
<title>Node9</title>
<g id="a_node9"><a xlink:title=" ">
<polygon fill="white" stroke="#bfbfbf" points="234.5,-56.5 234.5,-75.5 319.5,-75.5 319.5,-56.5 234.5,-56.5"/>
<text text-anchor="middle" x="277" y="-63.5" font-family="Helvetica,sans-Serif" font-size="10.00">itkConfigure.h</text>
</a>
</g>
</g>
<!-- Node5&#45;&gt;Node9 -->
<g id="edge8" class="edge">
<title>Node5&#45;&gt;Node9</title>
<path fill="none" stroke="midnightblue" d="M312.06,-112.08C306.07,-104.38 297.25,-93.03 289.95,-83.65"/>
<polygon fill="midnightblue" stroke="midnightblue" points="292.71,-81.5 283.81,-75.75 287.18,-85.79 292.71,-81.5"/>
</g>
<!-- Node10&#45;&gt;Node4 -->
<g id="edge10" class="edge">
<title>Node10&#45;&gt;Node4</title>
<path fill="none" stroke="midnightblue" d="M518.82,-112.23C515.43,-99.4 508.21,-74.97 498,-56 492.56,-45.89 484.97,-35.6 478.34,-27.41"/>
<polygon fill="midnightblue" stroke="midnightblue" points="481.02,-25.16 471.91,-19.74 475.65,-29.66 481.02,-25.16"/>
</g>
<!-- Node11 -->
<g id="node11" class="node">
<title>Node11</title>
<g id="a_node11"><a xlink:href="itkIntTypes_8h.html" target="_top" xlink:title=" ">
<polygon fill="white" stroke="black" points="677.5,-56.5 677.5,-75.5 756.5,-75.5 756.5,-56.5 677.5,-56.5"/>
<text text-anchor="middle" x="717" y="-63.5" font-family="Helvetica,sans-Serif" font-size="10.00">itkIntTypes.h</text>
</a>
</g>
</g>
<!-- Node10&#45;&gt;Node11 -->
<g id="edge11" class="edge">
<title>Node10&#45;&gt;Node11</title>
<path fill="none" stroke="midnightblue" d="M552.06,-112.44C585.6,-103.2 639.2,-88.44 676.14,-78.26"/>
<polygon fill="midnightblue" stroke="midnightblue" points="677.38,-81.55 686.09,-75.52 675.52,-74.8 677.38,-81.55"/>
</g>
<!-- Node10&#45;&gt;Node14 -->
<g id="edge15" class="edge">
<title>Node10&#45;&gt;Node14</title>
<path fill="none" stroke="midnightblue" d="M511.84,-112.32C503.5,-104.42 490.97,-92.55 480.82,-82.94"/>
<polygon fill="midnightblue" stroke="midnightblue" points="482.99,-80.17 473.32,-75.83 478.18,-85.25 482.99,-80.17"/>
</g>
<!-- Node10&#45;&gt;Node15 -->
<g id="edge16" class="edge">
<title>Node10&#45;&gt;Node15</title>
<path fill="none" stroke="midnightblue" d="M534.01,-112.32C546.53,-103.98 565.68,-91.21 580.47,-81.35"/>
<polygon fill="midnightblue" stroke="midnightblue" points="582.64,-84.11 589.02,-75.65 578.76,-78.29 582.64,-84.11"/>
</g>
<!-- Node11&#45;&gt;Node4 -->
<g id="edge12" class="edge">
<title>Node11&#45;&gt;Node4</title>
<path fill="none" stroke="midnightblue" d="M677.47,-56.56C631.63,-46.78 556.28,-30.7 508.45,-20.49"/>
<polygon fill="midnightblue" stroke="midnightblue" points="508.89,-17 498.38,-18.34 507.43,-23.85 508.89,-17"/>
</g>
<!-- Node12 -->
<g id="node12" class="node">
<title>Node12</title>
<g id="a_node12"><a xlink:title=" ">
<polygon fill="white" stroke="#bfbfbf" points="726,-0.5 726,-19.5 776,-19.5 776,-0.5 726,-0.5"/>
<text text-anchor="middle" x="751" y="-7.5" font-family="Helvetica,sans-Serif" font-size="10.00">cstdint</text>
</a>
</g>
</g>
<!-- Node11&#45;&gt;Node12 -->
<g id="edge13" class="edge">
<title>Node11&#45;&gt;Node12</title>
<path fill="none" stroke="midnightblue" d="M722.61,-56.08C727.37,-48.53 734.32,-37.49 740.15,-28.23"/>
<polygon fill="midnightblue" stroke="midnightblue" points="743.12,-30.08 745.49,-19.75 737.2,-26.35 743.12,-30.08"/>
</g>
<!-- Node13 -->
<g id="node13" class="node">
<title>Node13</title>
<g id="a_node13"><a xlink:title=" ">
<polygon fill="white" stroke="#bfbfbf" points="658,-0.5 658,-19.5 708,-19.5 708,-0.5 658,-0.5"/>
<text text-anchor="middle" x="683" y="-7.5" font-family="Helvetica,sans-Serif" font-size="10.00">climits</text>
</a>
</g>
</g>
<!-- Node11&#45;&gt;Node13 -->
<g id="edge14" class="edge">
<title>Node11&#45;&gt;Node13</title>
<path fill="none" stroke="midnightblue" d="M711.39,-56.08C706.63,-48.53 699.68,-37.49 693.85,-28.23"/>
<polygon fill="midnightblue" stroke="midnightblue" points="696.8,-26.35 688.51,-19.75 690.88,-30.08 696.8,-26.35"/>
</g>
<!-- Node16&#45;&gt;Node4 -->
<g id="edge18" class="edge">
<title>Node16&#45;&gt;Node4</title>
<path fill="none" stroke="midnightblue" d="M53.48,-112.49C49.96,-98.64 45.5,-71.23 60,-56 84.46,-30.29 319.87,-17.2 419.65,-12.77"/>
<polygon fill="midnightblue" stroke="midnightblue" points="419.88,-16.27 429.72,-12.33 419.58,-9.27 419.88,-16.27"/>
</g>
<!-- Node16&#45;&gt;Node6 -->
<g id="edge19" class="edge">
<title>Node16&#45;&gt;Node6</title>
<path fill="none" stroke="midnightblue" d="M63.1,-112.08C69.24,-104.38 78.27,-93.03 85.74,-83.65"/>
<polygon fill="midnightblue" stroke="midnightblue" points="88.54,-85.75 92.03,-75.75 83.06,-81.39 88.54,-85.75"/>
</g>
<!-- Node18&#45;&gt;Node16 -->
<g id="edge24" class="edge">
<title>Node18&#45;&gt;Node16</title>
<path fill="none" stroke="midnightblue" d="M50.16,-168.08C51.08,-160.93 52.42,-150.64 53.58,-141.69"/>
<polygon fill="midnightblue" stroke="midnightblue" points="57.05,-142.12 54.87,-131.75 50.11,-141.22 57.05,-142.12"/>
</g>
<!-- Node20 -->
<g id="node20" class="node">
<title>Node20</title>
<g id="a_node20"><a xlink:href="itkMetaDataObjectBase_8h.html" target="_top" xlink:title=" ">
<polygon fill="white" stroke="black" points="103,-224.5 103,-243.5 245,-243.5 245,-224.5 103,-224.5"/>
<text text-anchor="middle" x="174" y="-231.5" font-family="Helvetica,sans-Serif" font-size="10.00">itkMetaDataObjectBase.h</text>
</a>
</g>
</g>
<!-- Node19&#45;&gt;Node20 -->
<g id="edge26" class="edge">
<title>Node19&#45;&gt;Node20</title>
<path fill="none" stroke="midnightblue" d="M339.78,-280.44C306.07,-271.2 252.2,-256.44 215.07,-246.26"/>
<polygon fill="midnightblue" stroke="midnightblue" points="215.64,-242.78 205.07,-243.52 213.79,-249.54 215.64,-242.78"/>
</g>
<!-- Node21 -->
<g id="node21" class="node">
<title>Node21</title>
<g id="a_node21"><a xlink:title=" ">
<polygon fill="white" stroke="#bfbfbf" points="339,-224.5 339,-243.5 403,-243.5 403,-224.5 339,-224.5"/>
<text text-anchor="middle" x="371" y="-231.5" font-family="Helvetica,sans-Serif" font-size="10.00">algorithm</text>
</a>
</g>
</g>
<!-- Node19&#45;&gt;Node21 -->
<g id="edge30" class="edge">
<title>Node19&#45;&gt;Node21</title>
<path fill="none" stroke="midnightblue" d="M371,-280.08C371,-273.01 371,-262.86 371,-253.99"/>
<polygon fill="midnightblue" stroke="midnightblue" points="374.5,-253.75 371,-243.75 367.5,-253.75 374.5,-253.75"/>
</g>
<!-- Node22 -->
<g id="node22" class="node">
<title>Node22</title>
<g id="a_node22"><a xlink:title=" ">
<polygon fill="white" stroke="#bfbfbf" points="521.5,-224.5 521.5,-243.5 568.5,-243.5 568.5,-224.5 521.5,-224.5"/>
<text text-anchor="middle" x="545" y="-231.5" font-family="Helvetica,sans-Serif" font-size="10.00">vector</text>
</a>
</g>
</g>
<!-- Node19&#45;&gt;Node22 -->
<g id="edge31" class="edge">
<title>Node19&#45;&gt;Node22</title>
<path fill="none" stroke="midnightblue" d="M398.57,-280.44C429.31,-270.9 479.02,-255.48 511.86,-245.29"/>
<polygon fill="midnightblue" stroke="midnightblue" points="512.95,-248.61 521.46,-242.3 510.88,-241.93 512.95,-248.61"/>
</g>
<!-- Node19&#45;&gt;Node23 -->
<g id="edge32" class="edge">
<title>Node19&#45;&gt;Node23</title>
<path fill="none" stroke="midnightblue" d="M316.65,-280.44C243.18,-268.88 114.77,-248.66 57.28,-239.61"/>
<polygon fill="midnightblue" stroke="midnightblue" points="57.5,-236.1 47.08,-238 56.42,-243.02 57.5,-236.1"/>
</g>
<!-- Node24 -->
<g id="node24" class="node">
<title>Node24</title>
<g id="a_node24"><a xlink:title=" ">
<polygon fill="white" stroke="#bfbfbf" points="421,-224.5 421,-243.5 465,-243.5 465,-224.5 421,-224.5"/>
<text text-anchor="middle" x="443" y="-231.5" font-family="Helvetica,sans-Serif" font-size="10.00">string</text>
</a>
</g>
</g>
<!-- Node19&#45;&gt;Node24 -->
<g id="edge33" class="edge">
<title>Node19&#45;&gt;Node24</title>
<path fill="none" stroke="midnightblue" d="M382.57,-280.32C393.42,-272.18 409.88,-259.84 422.88,-250.09"/>
<polygon fill="midnightblue" stroke="midnightblue" points="425.32,-252.63 431.22,-243.83 421.12,-247.03 425.32,-252.63"/>
</g>
<!-- Node25 -->
<g id="node25" class="node">
<title>Node25</title>
<g id="a_node25"><a xlink:title=" ">
<polygon fill="white" stroke="#bfbfbf" points="263,-224.5 263,-243.5 321,-243.5 321,-224.5 263,-224.5"/>
<text text-anchor="middle" x="292" y="-231.5" font-family="Helvetica,sans-Serif" font-size="10.00">memory</text>
</a>
</g>
</g>
<!-- Node19&#45;&gt;Node25 -->
<g id="edge34" class="edge">
<title>Node19&#45;&gt;Node25</title>
<path fill="none" stroke="midnightblue" d="M358.31,-280.32C346.1,-271.98 327.42,-259.21 313,-249.35"/>
<polygon fill="midnightblue" stroke="midnightblue" points="314.89,-246.41 304.66,-243.65 310.94,-252.19 314.89,-246.41"/>
</g>
<!-- Node20&#45;&gt;Node3 -->
<g id="edge27" class="edge">
<title>Node20&#45;&gt;Node3</title>
<path fill="none" stroke="midnightblue" d="M196.98,-224.44C221.16,-215.44 259.42,-201.19 286.65,-191.05"/>
<polygon fill="midnightblue" stroke="midnightblue" points="287.98,-194.29 296.13,-187.52 285.54,-187.73 287.98,-194.29"/>
</g>
<!-- Node20&#45;&gt;Node6 -->
<g id="edge29" class="edge">
<title>Node20&#45;&gt;Node6</title>
<path fill="none" stroke="midnightblue" d="M169.97,-224.08C158.11,-197.83 123.19,-120.55 107.19,-85.12"/>
<polygon fill="midnightblue" stroke="midnightblue" points="110.18,-83.24 102.87,-75.57 103.8,-86.12 110.18,-83.24"/>
</g>
<!-- Node20&#45;&gt;Node17 -->
<g id="edge28" class="edge">
<title>Node20&#45;&gt;Node17</title>
<path fill="none" stroke="midnightblue" d="M174.71,-224.37C176.16,-206.62 179.51,-165.67 181.48,-141.6"/>
<polygon fill="midnightblue" stroke="midnightblue" points="184.97,-141.84 182.3,-131.59 177.99,-141.27 184.97,-141.84"/>
</g>
<!-- Node28 -->
<g id="node28" class="node">
<title>Node28</title>
<g id="a_node28"><a xlink:href="itkObjectFactoryBase_8h.html" target="_top" xlink:title=" ">
<polygon fill="white" stroke="black" points="510.5,-448.5 510.5,-467.5 639.5,-467.5 639.5,-448.5 510.5,-448.5"/>
<text text-anchor="middle" x="575" y="-455.5" font-family="Helvetica,sans-Serif" font-size="10.00">itkObjectFactoryBase.h</text>
</a>
</g>
</g>
<!-- Node27&#45;&gt;Node28 -->
<g id="edge38" class="edge">
<title>Node27&#45;&gt;Node28</title>
<path fill="none" stroke="midnightblue" d="M450.45,-504.44C475.13,-495.44 514.19,-481.19 541.98,-471.05"/>
<polygon fill="midnightblue" stroke="midnightblue" points="543.46,-474.23 551.66,-467.52 541.06,-467.66 543.46,-474.23"/>
</g>
<!-- Node28&#45;&gt;Node15 -->
<g id="edge41" class="edge">
<title>Node28&#45;&gt;Node15</title>
<path fill="none" stroke="midnightblue" d="M583.6,-448.47C600.19,-431.04 635,-389.42 635,-347 635,-347 635,-347 635,-177 635,-143.25 620.57,-106.03 610.79,-84.69"/>
<polygon fill="midnightblue" stroke="midnightblue" points="613.91,-83.1 606.45,-75.58 607.59,-86.11 613.91,-83.1"/>
</g>
<!-- Node28&#45;&gt;Node22 -->
<g id="edge46" class="edge">
<title>Node28&#45;&gt;Node22</title>
<path fill="none" stroke="midnightblue" d="M575.75,-448.38C576.49,-439.33 577.58,-424.68 578,-412 578.3,-403.12 578.92,-400.84 578,-392 572.74,-341.37 558.17,-283.02 550.27,-253.77"/>
<polygon fill="midnightblue" stroke="midnightblue" points="553.54,-252.46 547.51,-243.75 546.79,-254.32 553.54,-252.46"/>
</g>
<!-- Node29 -->
<g id="node29" class="node">
<title>Node29</title>
<g id="a_node29"><a xlink:href="itkCreateObjectFunction_8h.html" target="_top" xlink:title=" ">
<polygon fill="white" stroke="black" points="375.5,-392.5 375.5,-411.5 518.5,-411.5 518.5,-392.5 375.5,-392.5"/>
<text text-anchor="middle" x="447" y="-399.5" font-family="Helvetica,sans-Serif" font-size="10.00">itkCreateObjectFunction.h</text>
</a>
</g>
</g>
<!-- Node28&#45;&gt;Node29 -->
<g id="edge39" class="edge">
<title>Node28&#45;&gt;Node29</title>
<path fill="none" stroke="midnightblue" d="M554.72,-448.44C533.65,-439.56 500.48,-425.56 476.51,-415.45"/>
<polygon fill="midnightblue" stroke="midnightblue" points="477.76,-412.18 467.19,-411.52 475.04,-418.63 477.76,-412.18"/>
</g>
<!-- Node30 -->
<g id="node30" class="node">
<title>Node30</title>
<g id="a_node30"><a xlink:href="itkCommonEnums_8h.html" target="_top" xlink:title=" ">
<polygon fill="white" stroke="black" points="663,-392.5 663,-411.5 779,-411.5 779,-392.5 663,-392.5"/>
<text text-anchor="middle" x="721" y="-399.5" font-family="Helvetica,sans-Serif" font-size="10.00">itkCommonEnums.h</text>
</a>
</g>
</g>
<!-- Node28&#45;&gt;Node30 -->
<g id="edge42" class="edge">
<title>Node28&#45;&gt;Node30</title>
<path fill="none" stroke="midnightblue" d="M598.13,-448.44C622.48,-439.44 661.01,-425.19 688.42,-415.05"/>
<polygon fill="midnightblue" stroke="midnightblue" points="689.81,-418.27 697.97,-411.52 687.38,-411.7 689.81,-418.27"/>
</g>
<!-- Node32 -->
<g id="node32" class="node">
<title>Node32</title>
<g id="a_node32"><a xlink:title=" ">
<polygon fill="white" stroke="#bfbfbf" points="537,-392.5 537,-411.5 569,-411.5 569,-392.5 537,-392.5"/>
<text text-anchor="middle" x="553" y="-399.5" font-family="Helvetica,sans-Serif" font-size="10.00">list</text>
</a>
</g>
</g>
<!-- Node28&#45;&gt;Node32 -->
<g id="edge45" class="edge">
<title>Node28&#45;&gt;Node32</title>
<path fill="none" stroke="midnightblue" d="M571.37,-448.08C568.39,-440.77 564.07,-430.18 560.38,-421.1"/>
<polygon fill="midnightblue" stroke="midnightblue" points="563.58,-419.69 556.57,-411.75 557.1,-422.33 563.58,-419.69"/>
</g>
<!-- Node29&#45;&gt;Node2 -->
<g id="edge40" class="edge">
<title>Node29&#45;&gt;Node2</title>
<path fill="none" stroke="midnightblue" d="M434.79,-392.32C423.22,-384.11 405.62,-371.6 391.84,-361.81"/>
<polygon fill="midnightblue" stroke="midnightblue" points="393.61,-358.77 383.43,-355.83 389.56,-364.48 393.61,-358.77"/>
</g>
<!-- Node30&#45;&gt;Node11 -->
<g id="edge43" class="edge">
<title>Node30&#45;&gt;Node11</title>
<path fill="none" stroke="midnightblue" d="M724.78,-392.35C732.42,-374.03 749,-329.82 749,-291 749,-291 749,-291 749,-177 749,-143.33 735.01,-106.08 725.53,-84.72"/>
<polygon fill="midnightblue" stroke="midnightblue" points="728.68,-83.21 721.32,-75.59 722.33,-86.14 728.68,-83.21"/>
</g>
<!-- Node31 -->
<g id="node31" class="node">
<title>Node31</title>
<g id="a_node31"><a xlink:title=" ">
<polygon fill="white" stroke="#bfbfbf" points="663.5,-336.5 663.5,-355.5 720.5,-355.5 720.5,-336.5 663.5,-336.5"/>
<text text-anchor="middle" x="692" y="-343.5" font-family="Helvetica,sans-Serif" font-size="10.00">ostream</text>
</a>
</g>
</g>
<!-- Node30&#45;&gt;Node31 -->
<g id="edge44" class="edge">
<title>Node30&#45;&gt;Node31</title>
<path fill="none" stroke="midnightblue" d="M716.21,-392.08C712.24,-384.69 706.47,-373.95 701.57,-364.81"/>
<polygon fill="midnightblue" stroke="midnightblue" points="704.51,-362.91 696.7,-355.75 698.35,-366.22 704.51,-362.91"/>
</g>
</g>
</svg>
