<?xml version="1.0" encoding="UTF-8" standalone="no"?>
<!DOCTYPE svg PUBLIC "-//W3C//DTD SVG 1.1//EN"
 "http://www.w3.org/Graphics/SVG/1.1/DTD/svg11.dtd">
<!-- Generated by graphviz version 2.43.0 (0)
 -->
<!-- Title: itkMersenneTwisterRandomVariateGenerator.h Pages: 1 -->
<svg width="1662pt" height="621pt"
 viewBox="0.00 0.00 1662.00 621.00" xmlns="http://www.w3.org/2000/svg" xmlns:xlink="http://www.w3.org/1999/xlink">
<g id="graph0" class="graph" transform="scale(1 1) rotate(0) translate(4 617)">
<title>itkMersenneTwisterRandomVariateGenerator.h</title>
<polygon fill="white" stroke="transparent" points="-4,4 -4,-617 1658,-617 1658,4 -4,4"/>
<!-- Node1 -->
<g id="node1" class="node">
<title>Node1</title>
<g id="a_node1"><a xlink:title=" ">
<polygon fill="#bfbfbf" stroke="black" points="784,-582.5 784,-612.5 936,-612.5 936,-582.5 784,-582.5"/>
<text text-anchor="start" x="792" y="-600.5" font-family="Helvetica,sans-Serif" font-size="10.00">itkMersenneTwisterRandom</text>
<text text-anchor="middle" x="860" y="-589.5" font-family="Helvetica,sans-Serif" font-size="10.00">VariateGenerator.h</text>
</a>
</g>
</g>
<!-- Node2 -->
<g id="node2" class="node">
<title>Node2</title>
<g id="a_node2"><a xlink:href="itkMacro_8h.html" target="_top" xlink:title=" ">
<polygon fill="white" stroke="black" points="788,-6 788,-25 856,-25 856,-6 788,-6"/>
<text text-anchor="middle" x="822" y="-13" font-family="Helvetica,sans-Serif" font-size="10.00">itkMacro.h</text>
</a>
</g>
</g>
<!-- Node1&#45;&gt;Node2 -->
<g id="edge1" class="edge">
<title>Node1&#45;&gt;Node2</title>
<path fill="none" stroke="midnightblue" d="M871.19,-582.15C887.01,-560.38 914,-517.14 914,-475.5 914,-475.5 914,-475.5 914,-244 914,-181.65 949.14,-174.01 985,-123 1001.24,-99.9 1032.25,-89.35 1015,-67 996.98,-43.66 917.55,-29.03 866.37,-21.84"/>
<polygon fill="midnightblue" stroke="midnightblue" points="866.61,-18.34 856.23,-20.47 865.67,-25.28 866.61,-18.34"/>
</g>
<!-- Node3 -->
<g id="node3" class="node">
<title>Node3</title>
<g id="a_node3"><a xlink:href="itkObjectFactory_8h.html" target="_top" xlink:title=" ">
<polygon fill="white" stroke="black" points="204,-526.5 204,-545.5 308,-545.5 308,-526.5 204,-526.5"/>
<text text-anchor="middle" x="256" y="-533.5" font-family="Helvetica,sans-Serif" font-size="10.00">itkObjectFactory.h</text>
</a>
</g>
</g>
<!-- Node1&#45;&gt;Node3 -->
<g id="edge2" class="edge">
<title>Node1&#45;&gt;Node3</title>
<path fill="none" stroke="midnightblue" d="M783.72,-589.98C680.35,-580.97 490.08,-563.82 328,-546 324.81,-545.65 321.54,-545.28 318.23,-544.9"/>
<polygon fill="midnightblue" stroke="midnightblue" points="318.62,-541.42 308.28,-543.72 317.8,-548.37 318.62,-541.42"/>
</g>
<!-- Node14 -->
<g id="node14" class="node">
<title>Node14</title>
<g id="a_node14"><a xlink:href="itkIntTypes_8h.html" target="_top" xlink:title=" ">
<polygon fill="white" stroke="black" points="122.5,-67.5 122.5,-86.5 201.5,-86.5 201.5,-67.5 122.5,-67.5"/>
<text text-anchor="middle" x="162" y="-74.5" font-family="Helvetica,sans-Serif" font-size="10.00">itkIntTypes.h</text>
</a>
</g>
</g>
<!-- Node1&#45;&gt;Node14 -->
<g id="edge49" class="edge">
<title>Node1&#45;&gt;Node14</title>
<path fill="none" stroke="midnightblue" d="M783.94,-594.02C633.83,-588.59 304.55,-573.85 195,-546 120.87,-527.16 38,-551.99 38,-475.5 38,-475.5 38,-475.5 38,-188 38,-139.26 92.27,-106.87 129.01,-90.52"/>
<polygon fill="midnightblue" stroke="midnightblue" points="130.56,-93.67 138.38,-86.52 127.81,-87.23 130.56,-93.67"/>
</g>
<!-- Node16 -->
<g id="node16" class="node">
<title>Node16</title>
<g id="a_node16"><a xlink:title=" ">
<polygon fill="white" stroke="#bfbfbf" points="9,-6 9,-25 59,-25 59,-6 9,-6"/>
<text text-anchor="middle" x="34" y="-13" font-family="Helvetica,sans-Serif" font-size="10.00">climits</text>
</a>
</g>
</g>
<!-- Node1&#45;&gt;Node16 -->
<g id="edge78" class="edge">
<title>Node1&#45;&gt;Node16</title>
<path fill="none" stroke="midnightblue" d="M783.83,-594.88C597.42,-590.45 128.79,-576.4 65,-546 26.53,-527.67 0,-518.12 0,-475.5 0,-475.5 0,-475.5 0,-132 0,-96.27 15.16,-56.76 25.23,-34.45"/>
<polygon fill="midnightblue" stroke="midnightblue" points="28.48,-35.77 29.56,-25.23 22.14,-32.8 28.48,-35.77"/>
</g>
<!-- Node17 -->
<g id="node17" class="node">
<title>Node17</title>
<g id="a_node17"><a xlink:title=" ">
<polygon fill="white" stroke="#bfbfbf" points="624,-67.5 624,-86.5 674,-86.5 674,-67.5 624,-67.5"/>
<text text-anchor="middle" x="649" y="-74.5" font-family="Helvetica,sans-Serif" font-size="10.00">atomic</text>
</a>
</g>
</g>
<!-- Node1&#45;&gt;Node17 -->
<g id="edge76" class="edge">
<title>Node1&#45;&gt;Node17</title>
<path fill="none" stroke="midnightblue" d="M863.08,-582.42C867.73,-559.94 876,-514.49 876,-475.5 876,-475.5 876,-475.5 876,-300 876,-191.43 741.63,-118.51 679.65,-90.65"/>
<polygon fill="midnightblue" stroke="midnightblue" points="680.92,-87.39 670.36,-86.57 678.1,-93.8 680.92,-87.39"/>
</g>
<!-- Node18 -->
<g id="node18" class="node">
<title>Node18</title>
<g id="a_node18"><a xlink:href="itkSingletonMacro_8h.html" target="_top" xlink:title=" ">
<polygon fill="white" stroke="black" points="238,-67.5 238,-86.5 352,-86.5 352,-67.5 238,-67.5"/>
<text text-anchor="middle" x="295" y="-74.5" font-family="Helvetica,sans-Serif" font-size="10.00">itkSingletonMacro.h</text>
</a>
</g>
</g>
<!-- Node1&#45;&gt;Node18 -->
<g id="edge75" class="edge">
<title>Node1&#45;&gt;Node18</title>
<path fill="none" stroke="midnightblue" d="M783.86,-593.2C623.58,-581.76 266,-530.62 266,-302 266,-302 266,-302 266,-188 266,-154.72 278.57,-117.58 287.16,-96.09"/>
<polygon fill="midnightblue" stroke="midnightblue" points="290.48,-97.21 291.09,-86.64 284.02,-94.53 290.48,-97.21"/>
</g>
<!-- Node33 -->
<g id="node33" class="node">
<title>Node33</title>
<g id="a_node33"><a xlink:href="itkRandomVariateGeneratorBase_8h.html" target="_top" xlink:title=" ">
<polygon fill="white" stroke="black" points="585.5,-459.5 585.5,-489.5 738.5,-489.5 738.5,-459.5 585.5,-459.5"/>
<text text-anchor="start" x="593.5" y="-477.5" font-family="Helvetica,sans-Serif" font-size="10.00">itkRandomVariateGenerator</text>
<text text-anchor="middle" x="662" y="-466.5" font-family="Helvetica,sans-Serif" font-size="10.00">Base.h</text>
</a>
</g>
</g>
<!-- Node1&#45;&gt;Node33 -->
<g id="edge47" class="edge">
<title>Node1&#45;&gt;Node33</title>
<path fill="none" stroke="midnightblue" d="M836.9,-582.38C801.43,-560.71 733.47,-519.18 693.51,-494.76"/>
<polygon fill="midnightblue" stroke="midnightblue" points="695.31,-491.76 684.95,-489.53 691.66,-497.73 695.31,-491.76"/>
</g>
<!-- Node34 -->
<g id="node34" class="node">
<title>Node34</title>
<g id="a_node34"><a xlink:href="itkMath_8h.html" target="_top" xlink:title=" ">
<polygon fill="white" stroke="black" points="1186.5,-235.5 1186.5,-254.5 1249.5,-254.5 1249.5,-235.5 1186.5,-235.5"/>
<text text-anchor="middle" x="1218" y="-242.5" font-family="Helvetica,sans-Serif" font-size="10.00">itkMath.h</text>
</a>
</g>
</g>
<!-- Node1&#45;&gt;Node34 -->
<g id="edge50" class="edge">
<title>Node1&#45;&gt;Node34</title>
<path fill="none" stroke="midnightblue" d="M886.02,-582.45C900.18,-573.64 917,-561.09 928,-546 947.5,-519.26 952,-508.6 952,-475.5 952,-475.5 952,-475.5 952,-356 952,-260.07 1101.58,-246.15 1176.4,-245.2"/>
<polygon fill="midnightblue" stroke="midnightblue" points="1176.46,-248.7 1186.44,-245.14 1176.42,-241.7 1176.46,-248.7"/>
</g>
<!-- Node50 -->
<g id="node50" class="node">
<title>Node50</title>
<g id="a_node50"><a xlink:title=" ">
<polygon fill="white" stroke="#bfbfbf" points="980,-526.5 980,-545.5 1028,-545.5 1028,-526.5 980,-526.5"/>
<text text-anchor="middle" x="1004" y="-533.5" font-family="Helvetica,sans-Serif" font-size="10.00">mutex</text>
</a>
</g>
</g>
<!-- Node1&#45;&gt;Node50 -->
<g id="edge77" class="edge">
<title>Node1&#45;&gt;Node50</title>
<path fill="none" stroke="midnightblue" d="M894.13,-582.4C918.29,-572.42 950.4,-559.15 973.67,-549.53"/>
<polygon fill="midnightblue" stroke="midnightblue" points="975.14,-552.71 983.05,-545.66 972.47,-546.24 975.14,-552.71"/>
</g>
<!-- Node51 -->
<g id="node51" class="node">
<title>Node51</title>
<g id="a_node51"><a xlink:title=" ">
<polygon fill="white" stroke="#bfbfbf" points="1046,-526.5 1046,-545.5 1090,-545.5 1090,-526.5 1046,-526.5"/>
<text text-anchor="middle" x="1068" y="-533.5" font-family="Helvetica,sans-Serif" font-size="10.00">ctime</text>
</a>
</g>
</g>
<!-- Node1&#45;&gt;Node51 -->
<g id="edge79" class="edge">
<title>Node1&#45;&gt;Node51</title>
<path fill="none" stroke="midnightblue" d="M909.61,-582.41C942.88,-572.95 987.95,-560.1 1036.28,-546.2"/>
<polygon fill="midnightblue" stroke="midnightblue" points="1037.35,-549.53 1045.99,-543.4 1035.41,-542.81 1037.35,-549.53"/>
</g>
<!-- Node4 -->
<g id="node4" class="node">
<title>Node4</title>
<g id="a_node4"><a xlink:href="itkObjectFactoryBase_8h.html" target="_top" xlink:title=" ">
<polygon fill="white" stroke="black" points="184.5,-465 184.5,-484 313.5,-484 313.5,-465 184.5,-465"/>
<text text-anchor="middle" x="249" y="-472" font-family="Helvetica,sans-Serif" font-size="10.00">itkObjectFactoryBase.h</text>
</a>
</g>
</g>
<!-- Node3&#45;&gt;Node4 -->
<g id="edge3" class="edge">
<title>Node3&#45;&gt;Node4</title>
<path fill="none" stroke="midnightblue" d="M255,-526.48C254.01,-518.08 252.47,-504.98 251.2,-494.16"/>
<polygon fill="midnightblue" stroke="midnightblue" points="254.65,-493.53 250,-484.01 247.69,-494.35 254.65,-493.53"/>
</g>
<!-- Node5 -->
<g id="node5" class="node">
<title>Node5</title>
<g id="a_node5"><a xlink:href="itkCreateObjectFunction_8h.html" target="_top" xlink:title=" ">
<polygon fill="white" stroke="black" points="414.5,-403.5 414.5,-422.5 557.5,-422.5 557.5,-403.5 414.5,-403.5"/>
<text text-anchor="middle" x="486" y="-410.5" font-family="Helvetica,sans-Serif" font-size="10.00">itkCreateObjectFunction.h</text>
</a>
</g>
</g>
<!-- Node4&#45;&gt;Node5 -->
<g id="edge4" class="edge">
<title>Node4&#45;&gt;Node5</title>
<path fill="none" stroke="midnightblue" d="M282.96,-464.98C324.84,-454.46 396.13,-436.56 442.13,-425.01"/>
<polygon fill="midnightblue" stroke="midnightblue" points="443.26,-428.34 452.11,-422.51 441.56,-421.55 443.26,-428.34"/>
</g>
<!-- Node4&#45;&gt;Node18 -->
<g id="edge41" class="edge">
<title>Node4&#45;&gt;Node18</title>
<path fill="none" stroke="midnightblue" d="M248.06,-464.81C246.6,-451.5 243.69,-425.26 241,-403 235.56,-358.07 228,-347.26 228,-302 228,-302 228,-302 228,-188 228,-157.2 235.69,-149.12 252,-123 258.77,-112.16 268.45,-101.74 276.92,-93.66"/>
<polygon fill="midnightblue" stroke="midnightblue" points="279.52,-96.02 284.53,-86.69 274.79,-90.86 279.52,-96.02"/>
</g>
<!-- Node25 -->
<g id="node25" class="node">
<title>Node25</title>
<g id="a_node25"><a xlink:title=" ">
<polygon fill="white" stroke="#bfbfbf" points="294.5,-235.5 294.5,-254.5 341.5,-254.5 341.5,-235.5 294.5,-235.5"/>
<text text-anchor="middle" x="318" y="-242.5" font-family="Helvetica,sans-Serif" font-size="10.00">vector</text>
</a>
</g>
</g>
<!-- Node4&#45;&gt;Node25 -->
<g id="edge46" class="edge">
<title>Node4&#45;&gt;Node25</title>
<path fill="none" stroke="midnightblue" d="M254.02,-464.82C259.56,-454.95 268.41,-438.25 274,-423 294.59,-366.89 308.73,-297.3 314.75,-264.61"/>
<polygon fill="midnightblue" stroke="midnightblue" points="318.21,-265.13 316.53,-254.67 311.32,-263.89 318.21,-265.13"/>
</g>
<!-- Node30 -->
<g id="node30" class="node">
<title>Node30</title>
<g id="a_node30"><a xlink:href="itkCommonEnums_8h.html" target="_top" xlink:title=" ">
<polygon fill="white" stroke="black" points="66,-403.5 66,-422.5 182,-422.5 182,-403.5 66,-403.5"/>
<text text-anchor="middle" x="124" y="-410.5" font-family="Helvetica,sans-Serif" font-size="10.00">itkCommonEnums.h</text>
</a>
</g>
</g>
<!-- Node4&#45;&gt;Node30 -->
<g id="edge42" class="edge">
<title>Node4&#45;&gt;Node30</title>
<path fill="none" stroke="midnightblue" d="M231.09,-464.98C210.11,-454.99 175.15,-438.35 150.91,-426.81"/>
<polygon fill="midnightblue" stroke="midnightblue" points="152.41,-423.65 141.88,-422.51 149.4,-429.97 152.41,-423.65"/>
</g>
<!-- Node32 -->
<g id="node32" class="node">
<title>Node32</title>
<g id="a_node32"><a xlink:title=" ">
<polygon fill="white" stroke="#bfbfbf" points="200,-403.5 200,-422.5 232,-422.5 232,-403.5 200,-403.5"/>
<text text-anchor="middle" x="216" y="-410.5" font-family="Helvetica,sans-Serif" font-size="10.00">list</text>
</a>
</g>
</g>
<!-- Node4&#45;&gt;Node32 -->
<g id="edge45" class="edge">
<title>Node4&#45;&gt;Node32</title>
<path fill="none" stroke="midnightblue" d="M244.27,-464.98C239.42,-456.23 231.73,-442.37 225.6,-431.31"/>
<polygon fill="midnightblue" stroke="midnightblue" points="228.63,-429.56 220.72,-422.51 222.51,-432.95 228.63,-429.56"/>
</g>
<!-- Node6 -->
<g id="node6" class="node">
<title>Node6</title>
<g id="a_node6"><a xlink:href="itkObject_8h.html" target="_top" xlink:title=" ">
<polygon fill="white" stroke="black" points="496,-347.5 496,-366.5 566,-366.5 566,-347.5 496,-347.5"/>
<text text-anchor="middle" x="531" y="-354.5" font-family="Helvetica,sans-Serif" font-size="10.00">itkObject.h</text>
</a>
</g>
</g>
<!-- Node5&#45;&gt;Node6 -->
<g id="edge5" class="edge">
<title>Node5&#45;&gt;Node6</title>
<path fill="none" stroke="midnightblue" d="M493.43,-403.08C499.85,-395.38 509.31,-384.03 517.12,-374.65"/>
<polygon fill="midnightblue" stroke="midnightblue" points="519.99,-376.67 523.71,-366.75 514.62,-372.19 519.99,-376.67"/>
</g>
<!-- Node7 -->
<g id="node7" class="node">
<title>Node7</title>
<g id="a_node7"><a xlink:href="itkLightObject_8h.html" target="_top" xlink:title=" ">
<polygon fill="white" stroke="black" points="609,-179.5 609,-198.5 703,-198.5 703,-179.5 609,-179.5"/>
<text text-anchor="middle" x="656" y="-186.5" font-family="Helvetica,sans-Serif" font-size="10.00">itkLightObject.h</text>
</a>
</g>
</g>
<!-- Node6&#45;&gt;Node7 -->
<g id="edge6" class="edge">
<title>Node6&#45;&gt;Node7</title>
<path fill="none" stroke="midnightblue" d="M566.14,-356.18C610.64,-354.8 688.02,-346.85 742,-311 767.26,-294.22 771.92,-283.94 781,-255 791.52,-221.47 750.87,-205.11 713.17,-197.2"/>
<polygon fill="midnightblue" stroke="midnightblue" points="713.65,-193.73 703.17,-195.27 712.33,-200.6 713.65,-193.73"/>
</g>
<!-- Node6&#45;&gt;Node18 -->
<g id="edge39" class="edge">
<title>Node6&#45;&gt;Node18</title>
<path fill="none" stroke="midnightblue" d="M495.86,-353.23C464.26,-348.99 418.41,-338.24 389,-311 372.19,-295.43 319.68,-148.54 301.37,-96.31"/>
<polygon fill="midnightblue" stroke="midnightblue" points="304.61,-94.98 298.01,-86.69 298,-97.28 304.61,-94.98"/>
</g>
<!-- Node21 -->
<g id="node21" class="node">
<title>Node21</title>
<g id="a_node21"><a xlink:href="itkEventObject_8h.html" target="_top" xlink:title=" ">
<polygon fill="white" stroke="black" points="482,-291.5 482,-310.5 580,-310.5 580,-291.5 482,-291.5"/>
<text text-anchor="middle" x="531" y="-298.5" font-family="Helvetica,sans-Serif" font-size="10.00">itkEventObject.h</text>
</a>
</g>
</g>
<!-- Node6&#45;&gt;Node21 -->
<g id="edge27" class="edge">
<title>Node6&#45;&gt;Node21</title>
<path fill="none" stroke="midnightblue" d="M531,-347.08C531,-340.01 531,-329.86 531,-320.99"/>
<polygon fill="midnightblue" stroke="midnightblue" points="534.5,-320.75 531,-310.75 527.5,-320.75 534.5,-320.75"/>
</g>
<!-- Node22 -->
<g id="node22" class="node">
<title>Node22</title>
<g id="a_node22"><a xlink:href="itkMetaDataDictionary_8h.html" target="_top" xlink:title=" ">
<polygon fill="white" stroke="black" points="598.5,-291.5 598.5,-310.5 733.5,-310.5 733.5,-291.5 598.5,-291.5"/>
<text text-anchor="middle" x="666" y="-298.5" font-family="Helvetica,sans-Serif" font-size="10.00">itkMetaDataDictionary.h</text>
</a>
</g>
</g>
<!-- Node6&#45;&gt;Node22 -->
<g id="edge29" class="edge">
<title>Node6&#45;&gt;Node22</title>
<path fill="none" stroke="midnightblue" d="M552.39,-347.44C574.71,-338.52 609.9,-324.44 635.21,-314.32"/>
<polygon fill="midnightblue" stroke="midnightblue" points="636.72,-317.48 644.71,-310.52 634.12,-310.98 636.72,-317.48"/>
</g>
<!-- Node29 -->
<g id="node29" class="node">
<title>Node29</title>
<g id="a_node29"><a xlink:title=" ">
<polygon fill="white" stroke="#bfbfbf" points="398.5,-291.5 398.5,-310.5 463.5,-310.5 463.5,-291.5 398.5,-291.5"/>
<text text-anchor="middle" x="431" y="-298.5" font-family="Helvetica,sans-Serif" font-size="10.00">functional</text>
</a>
</g>
</g>
<!-- Node6&#45;&gt;Node29 -->
<g id="edge40" class="edge">
<title>Node6&#45;&gt;Node29</title>
<path fill="none" stroke="midnightblue" d="M514.93,-347.32C499.04,-338.74 474.49,-325.49 456.04,-315.52"/>
<polygon fill="midnightblue" stroke="midnightblue" points="457.49,-312.33 447.03,-310.65 454.16,-318.49 457.49,-312.33"/>
</g>
<!-- Node7&#45;&gt;Node2 -->
<g id="edge7" class="edge">
<title>Node7&#45;&gt;Node2</title>
<path fill="none" stroke="midnightblue" d="M648.15,-179.46C629.68,-158.29 587.05,-102.58 615,-67 634.85,-41.72 723.16,-27.49 777.82,-20.96"/>
<polygon fill="midnightblue" stroke="midnightblue" points="778.41,-24.41 787.94,-19.79 777.61,-17.46 778.41,-24.41"/>
</g>
<!-- Node8 -->
<g id="node8" class="node">
<title>Node8</title>
<g id="a_node8"><a xlink:href="itkSmartPointer_8h.html" target="_top" xlink:title=" ">
<polygon fill="white" stroke="black" points="836.5,-123.5 836.5,-142.5 937.5,-142.5 937.5,-123.5 836.5,-123.5"/>
<text text-anchor="middle" x="887" y="-130.5" font-family="Helvetica,sans-Serif" font-size="10.00">itkSmartPointer.h</text>
</a>
</g>
</g>
<!-- Node7&#45;&gt;Node8 -->
<g id="edge8" class="edge">
<title>Node7&#45;&gt;Node8</title>
<path fill="none" stroke="midnightblue" d="M692.6,-179.44C732.73,-170.06 797.2,-154.99 840.78,-144.8"/>
<polygon fill="midnightblue" stroke="midnightblue" points="841.63,-148.2 850.57,-142.52 840.03,-141.38 841.63,-148.2"/>
</g>
<!-- Node9 -->
<g id="node9" class="node">
<title>Node9</title>
<g id="a_node9"><a xlink:title=" ">
<polygon fill="white" stroke="#bfbfbf" points="692,-67.5 692,-86.5 752,-86.5 752,-67.5 692,-67.5"/>
<text text-anchor="middle" x="722" y="-74.5" font-family="Helvetica,sans-Serif" font-size="10.00">iostream</text>
</a>
</g>
</g>
<!-- Node7&#45;&gt;Node9 -->
<g id="edge25" class="edge">
<title>Node7&#45;&gt;Node9</title>
<path fill="none" stroke="midnightblue" d="M661.18,-179.37C672.02,-161.3 697.29,-119.18 711.62,-95.31"/>
<polygon fill="midnightblue" stroke="midnightblue" points="714.7,-96.97 716.85,-86.59 708.7,-93.37 714.7,-96.97"/>
</g>
<!-- Node13 -->
<g id="node13" class="node">
<title>Node13</title>
<g id="a_node13"><a xlink:href="itkTimeStamp_8h.html" target="_top" xlink:title=" ">
<polygon fill="white" stroke="black" points="407.5,-123.5 407.5,-142.5 502.5,-142.5 502.5,-123.5 407.5,-123.5"/>
<text text-anchor="middle" x="455" y="-130.5" font-family="Helvetica,sans-Serif" font-size="10.00">itkTimeStamp.h</text>
</a>
</g>
</g>
<!-- Node7&#45;&gt;Node13 -->
<g id="edge13" class="edge">
<title>Node7&#45;&gt;Node13</title>
<path fill="none" stroke="midnightblue" d="M624.15,-179.44C589.6,-170.16 534.32,-155.31 496.42,-145.13"/>
<polygon fill="midnightblue" stroke="midnightblue" points="497.27,-141.73 486.7,-142.52 495.45,-148.49 497.27,-141.73"/>
</g>
<!-- Node7&#45;&gt;Node17 -->
<g id="edge24" class="edge">
<title>Node7&#45;&gt;Node17</title>
<path fill="none" stroke="midnightblue" d="M655.45,-179.37C654.32,-161.62 651.72,-120.67 650.18,-96.6"/>
<polygon fill="midnightblue" stroke="midnightblue" points="653.67,-96.35 649.55,-86.59 646.69,-96.79 653.67,-96.35"/>
</g>
<!-- Node19 -->
<g id="node19" class="node">
<title>Node19</title>
<g id="a_node19"><a xlink:href="itkIndent_8h.html" target="_top" xlink:title=" ">
<polygon fill="white" stroke="black" points="520.5,-123.5 520.5,-142.5 589.5,-142.5 589.5,-123.5 520.5,-123.5"/>
<text text-anchor="middle" x="555" y="-130.5" font-family="Helvetica,sans-Serif" font-size="10.00">itkIndent.h</text>
</a>
</g>
</g>
<!-- Node7&#45;&gt;Node19 -->
<g id="edge21" class="edge">
<title>Node7&#45;&gt;Node19</title>
<path fill="none" stroke="midnightblue" d="M639.77,-179.32C623.65,-170.7 598.7,-157.36 580.04,-147.39"/>
<polygon fill="midnightblue" stroke="midnightblue" points="581.66,-144.28 571.19,-142.65 578.36,-150.46 581.66,-144.28"/>
</g>
<!-- Node20 -->
<g id="node20" class="node">
<title>Node20</title>
<g id="a_node20"><a xlink:title=" ">
<polygon fill="white" stroke="#bfbfbf" points="332.5,-123.5 332.5,-142.5 389.5,-142.5 389.5,-123.5 332.5,-123.5"/>
<text text-anchor="middle" x="361" y="-130.5" font-family="Helvetica,sans-Serif" font-size="10.00">typeinfo</text>
</a>
</g>
</g>
<!-- Node7&#45;&gt;Node20 -->
<g id="edge26" class="edge">
<title>Node7&#45;&gt;Node20</title>
<path fill="none" stroke="midnightblue" d="M608.74,-180.72C559,-172.84 478.19,-159.43 399.7,-143.25"/>
<polygon fill="midnightblue" stroke="midnightblue" points="400.14,-139.77 389.64,-141.16 398.72,-146.63 400.14,-139.77"/>
</g>
<!-- Node8&#45;&gt;Node9 -->
<g id="edge9" class="edge">
<title>Node8&#45;&gt;Node9</title>
<path fill="none" stroke="midnightblue" d="M860.86,-123.44C832.98,-114.32 788.65,-99.81 757.6,-89.65"/>
<polygon fill="midnightblue" stroke="midnightblue" points="758.62,-86.3 748.02,-86.52 756.44,-92.95 758.62,-86.3"/>
</g>
<!-- Node10 -->
<g id="node10" class="node">
<title>Node10</title>
<g id="a_node10"><a xlink:title=" ">
<polygon fill="white" stroke="#bfbfbf" points="770.5,-67.5 770.5,-86.5 815.5,-86.5 815.5,-67.5 770.5,-67.5"/>
<text text-anchor="middle" x="793" y="-74.5" font-family="Helvetica,sans-Serif" font-size="10.00">utility</text>
</a>
</g>
</g>
<!-- Node8&#45;&gt;Node10 -->
<g id="edge10" class="edge">
<title>Node8&#45;&gt;Node10</title>
<path fill="none" stroke="midnightblue" d="M871.9,-123.32C857.1,-114.82 834.31,-101.73 817.02,-91.8"/>
<polygon fill="midnightblue" stroke="midnightblue" points="818.48,-88.6 808.07,-86.65 814.99,-94.67 818.48,-88.6"/>
</g>
<!-- Node11 -->
<g id="node11" class="node">
<title>Node11</title>
<g id="a_node11"><a xlink:title=" ">
<polygon fill="white" stroke="#bfbfbf" points="833.5,-67.5 833.5,-86.5 902.5,-86.5 902.5,-67.5 833.5,-67.5"/>
<text text-anchor="middle" x="868" y="-74.5" font-family="Helvetica,sans-Serif" font-size="10.00">type_traits</text>
</a>
</g>
</g>
<!-- Node8&#45;&gt;Node11 -->
<g id="edge11" class="edge">
<title>Node8&#45;&gt;Node11</title>
<path fill="none" stroke="midnightblue" d="M883.86,-123.08C881.32,-115.85 877.64,-105.41 874.47,-96.4"/>
<polygon fill="midnightblue" stroke="midnightblue" points="877.7,-95.02 871.08,-86.75 871.1,-97.35 877.7,-95.02"/>
</g>
<!-- Node12 -->
<g id="node12" class="node">
<title>Node12</title>
<g id="a_node12"><a xlink:title=" ">
<polygon fill="white" stroke="#bfbfbf" points="920.5,-67.5 920.5,-86.5 1005.5,-86.5 1005.5,-67.5 920.5,-67.5"/>
<text text-anchor="middle" x="963" y="-74.5" font-family="Helvetica,sans-Serif" font-size="10.00">itkConfigure.h</text>
</a>
</g>
</g>
<!-- Node8&#45;&gt;Node12 -->
<g id="edge12" class="edge">
<title>Node8&#45;&gt;Node12</title>
<path fill="none" stroke="midnightblue" d="M899.21,-123.32C910.78,-115.11 928.38,-102.6 942.16,-92.81"/>
<polygon fill="midnightblue" stroke="midnightblue" points="944.44,-95.48 950.57,-86.83 940.39,-89.77 944.44,-95.48"/>
</g>
<!-- Node13&#45;&gt;Node2 -->
<g id="edge14" class="edge">
<title>Node13&#45;&gt;Node2</title>
<path fill="none" stroke="midnightblue" d="M466.41,-123.36C485.53,-109.32 525.73,-81.65 564,-67 636.13,-39.39 725.63,-26.22 778.02,-20.46"/>
<polygon fill="midnightblue" stroke="midnightblue" points="778.42,-23.94 787.99,-19.4 777.68,-16.98 778.42,-23.94"/>
</g>
<!-- Node13&#45;&gt;Node14 -->
<g id="edge15" class="edge">
<title>Node13&#45;&gt;Node14</title>
<path fill="none" stroke="midnightblue" d="M408.57,-123.44C354.8,-113.53 266.56,-97.27 211.51,-87.12"/>
<polygon fill="midnightblue" stroke="midnightblue" points="212.1,-83.67 201.63,-85.3 210.83,-90.56 212.1,-83.67"/>
</g>
<!-- Node13&#45;&gt;Node17 -->
<g id="edge19" class="edge">
<title>Node13&#45;&gt;Node17</title>
<path fill="none" stroke="midnightblue" d="M485.74,-123.44C520.7,-113.71 577.66,-97.86 614.22,-87.68"/>
<polygon fill="midnightblue" stroke="midnightblue" points="615.26,-91.02 623.96,-84.97 613.38,-84.28 615.26,-91.02"/>
</g>
<!-- Node13&#45;&gt;Node18 -->
<g id="edge20" class="edge">
<title>Node13&#45;&gt;Node18</title>
<path fill="none" stroke="midnightblue" d="M429.65,-123.44C402.73,-114.36 360,-99.94 329.91,-89.78"/>
<polygon fill="midnightblue" stroke="midnightblue" points="330.83,-86.4 320.23,-86.52 328.59,-93.03 330.83,-86.4"/>
</g>
<!-- Node14&#45;&gt;Node2 -->
<g id="edge16" class="edge">
<title>Node14&#45;&gt;Node2</title>
<path fill="none" stroke="midnightblue" d="M201.64,-70.35C210.63,-69.16 220.13,-67.97 229,-67 433.64,-44.56 678.94,-26.46 777.65,-19.54"/>
<polygon fill="midnightblue" stroke="midnightblue" points="778.12,-23.01 787.85,-18.82 777.63,-16.03 778.12,-23.01"/>
</g>
<!-- Node15 -->
<g id="node15" class="node">
<title>Node15</title>
<g id="a_node15"><a xlink:title=" ">
<polygon fill="white" stroke="#bfbfbf" points="137,-6 137,-25 187,-25 187,-6 137,-6"/>
<text text-anchor="middle" x="162" y="-13" font-family="Helvetica,sans-Serif" font-size="10.00">cstdint</text>
</a>
</g>
</g>
<!-- Node14&#45;&gt;Node15 -->
<g id="edge17" class="edge">
<title>Node14&#45;&gt;Node15</title>
<path fill="none" stroke="midnightblue" d="M162,-67.48C162,-59.08 162,-45.98 162,-35.16"/>
<polygon fill="midnightblue" stroke="midnightblue" points="165.5,-35.01 162,-25.01 158.5,-35.01 165.5,-35.01"/>
</g>
<!-- Node14&#45;&gt;Node16 -->
<g id="edge18" class="edge">
<title>Node14&#45;&gt;Node16</title>
<path fill="none" stroke="midnightblue" d="M143.66,-67.48C122.18,-57.49 86.38,-40.85 61.55,-29.31"/>
<polygon fill="midnightblue" stroke="midnightblue" points="62.85,-26.05 52.31,-25.01 59.9,-32.4 62.85,-26.05"/>
</g>
<!-- Node19&#45;&gt;Node2 -->
<g id="edge22" class="edge">
<title>Node19&#45;&gt;Node2</title>
<path fill="none" stroke="midnightblue" d="M556.03,-123.33C558.18,-109.25 564.5,-81.51 582,-67 611.28,-42.72 716.59,-27.73 777.54,-20.89"/>
<polygon fill="midnightblue" stroke="midnightblue" points="778.09,-24.36 787.65,-19.79 777.33,-17.4 778.09,-24.36"/>
</g>
<!-- Node19&#45;&gt;Node9 -->
<g id="edge23" class="edge">
<title>Node19&#45;&gt;Node9</title>
<path fill="none" stroke="midnightblue" d="M581.46,-123.44C609.68,-114.32 654.54,-99.81 685.97,-89.65"/>
<polygon fill="midnightblue" stroke="midnightblue" points="687.22,-92.92 695.66,-86.52 685.07,-86.26 687.22,-92.92"/>
</g>
<!-- Node21&#45;&gt;Node19 -->
<g id="edge28" class="edge">
<title>Node21&#45;&gt;Node19</title>
<path fill="none" stroke="midnightblue" d="M488.49,-291.5C453.77,-282.26 412.6,-264.7 427,-235 447.48,-192.76 495.14,-162.86 526.18,-147.04"/>
<polygon fill="midnightblue" stroke="midnightblue" points="527.8,-150.14 535.22,-142.58 524.71,-143.86 527.8,-150.14"/>
</g>
<!-- Node23 -->
<g id="node23" class="node">
<title>Node23</title>
<g id="a_node23"><a xlink:href="itkMetaDataObjectBase_8h.html" target="_top" xlink:title=" ">
<polygon fill="white" stroke="black" points="630,-235.5 630,-254.5 772,-254.5 772,-235.5 630,-235.5"/>
<text text-anchor="middle" x="701" y="-242.5" font-family="Helvetica,sans-Serif" font-size="10.00">itkMetaDataObjectBase.h</text>
</a>
</g>
</g>
<!-- Node22&#45;&gt;Node23 -->
<g id="edge30" class="edge">
<title>Node22&#45;&gt;Node23</title>
<path fill="none" stroke="midnightblue" d="M671.78,-291.08C676.67,-283.53 683.83,-272.49 689.83,-263.23"/>
<polygon fill="midnightblue" stroke="midnightblue" points="692.83,-265.05 695.33,-254.75 686.95,-261.24 692.83,-265.05"/>
</g>
<!-- Node24 -->
<g id="node24" class="node">
<title>Node24</title>
<g id="a_node24"><a xlink:title=" ">
<polygon fill="white" stroke="#bfbfbf" points="1089,-6 1089,-25 1153,-25 1153,-6 1089,-6"/>
<text text-anchor="middle" x="1121" y="-13" font-family="Helvetica,sans-Serif" font-size="10.00">algorithm</text>
</a>
</g>
</g>
<!-- Node22&#45;&gt;Node24 -->
<g id="edge34" class="edge">
<title>Node22&#45;&gt;Node24</title>
<path fill="none" stroke="midnightblue" d="M688.06,-291.41C711.22,-282.38 748.69,-267.75 781,-255 865.99,-221.46 885.75,-209.14 972,-179 1024.16,-160.77 1053.14,-183.24 1091,-143 1118.88,-113.37 1122.37,-62.75 1122,-35.39"/>
<polygon fill="midnightblue" stroke="midnightblue" points="1125.49,-35.09 1121.66,-25.22 1118.49,-35.33 1125.49,-35.09"/>
</g>
<!-- Node22&#45;&gt;Node25 -->
<g id="edge35" class="edge">
<title>Node22&#45;&gt;Node25</title>
<path fill="none" stroke="midnightblue" d="M610.86,-291.44C538,-280.14 411.87,-260.57 351.75,-251.24"/>
<polygon fill="midnightblue" stroke="midnightblue" points="352.08,-247.75 341.67,-249.67 351.01,-254.66 352.08,-247.75"/>
</g>
<!-- Node26 -->
<g id="node26" class="node">
<title>Node26</title>
<g id="a_node26"><a xlink:title=" ">
<polygon fill="white" stroke="#bfbfbf" points="436,-235.5 436,-254.5 474,-254.5 474,-235.5 436,-235.5"/>
<text text-anchor="middle" x="455" y="-242.5" font-family="Helvetica,sans-Serif" font-size="10.00">map</text>
</a>
</g>
</g>
<!-- Node22&#45;&gt;Node26 -->
<g id="edge36" class="edge">
<title>Node22&#45;&gt;Node26</title>
<path fill="none" stroke="midnightblue" d="M627.94,-291.46C592.89,-283.41 539.25,-270.64 484.16,-255.19"/>
<polygon fill="midnightblue" stroke="midnightblue" points="484.8,-251.73 474.23,-252.37 482.89,-258.47 484.8,-251.73"/>
</g>
<!-- Node27 -->
<g id="node27" class="node">
<title>Node27</title>
<g id="a_node27"><a xlink:title=" ">
<polygon fill="white" stroke="#bfbfbf" points="492,-235.5 492,-254.5 536,-254.5 536,-235.5 492,-235.5"/>
<text text-anchor="middle" x="514" y="-242.5" font-family="Helvetica,sans-Serif" font-size="10.00">string</text>
</a>
</g>
</g>
<!-- Node22&#45;&gt;Node27 -->
<g id="edge37" class="edge">
<title>Node22&#45;&gt;Node27</title>
<path fill="none" stroke="midnightblue" d="M641.92,-291.44C616.01,-282.24 574.68,-267.56 546.04,-257.38"/>
<polygon fill="midnightblue" stroke="midnightblue" points="547.08,-254.04 536.49,-253.99 544.74,-260.63 547.08,-254.04"/>
</g>
<!-- Node28 -->
<g id="node28" class="node">
<title>Node28</title>
<g id="a_node28"><a xlink:title=" ">
<polygon fill="white" stroke="#bfbfbf" points="554,-235.5 554,-254.5 612,-254.5 612,-235.5 554,-235.5"/>
<text text-anchor="middle" x="583" y="-242.5" font-family="Helvetica,sans-Serif" font-size="10.00">memory</text>
</a>
</g>
</g>
<!-- Node22&#45;&gt;Node28 -->
<g id="edge38" class="edge">
<title>Node22&#45;&gt;Node28</title>
<path fill="none" stroke="midnightblue" d="M652.66,-291.32C639.84,-282.98 620.22,-270.21 605.06,-260.35"/>
<polygon fill="midnightblue" stroke="midnightblue" points="606.59,-257.17 596.3,-254.65 602.78,-263.04 606.59,-257.17"/>
</g>
<!-- Node23&#45;&gt;Node7 -->
<g id="edge31" class="edge">
<title>Node23&#45;&gt;Node7</title>
<path fill="none" stroke="midnightblue" d="M693.57,-235.08C687.15,-227.38 677.69,-216.03 669.88,-206.65"/>
<polygon fill="midnightblue" stroke="midnightblue" points="672.38,-204.19 663.29,-198.75 667.01,-208.67 672.38,-204.19"/>
</g>
<!-- Node23&#45;&gt;Node9 -->
<g id="edge33" class="edge">
<title>Node23&#45;&gt;Node9</title>
<path fill="none" stroke="midnightblue" d="M703.51,-235.46C706.06,-226.46 709.91,-211.86 712,-199 717.84,-163.06 720.35,-120.53 721.37,-96.67"/>
<polygon fill="midnightblue" stroke="midnightblue" points="724.87,-96.69 721.75,-86.56 717.87,-96.42 724.87,-96.69"/>
</g>
<!-- Node23&#45;&gt;Node20 -->
<g id="edge32" class="edge">
<title>Node23&#45;&gt;Node20</title>
<path fill="none" stroke="midnightblue" d="M674.6,-235.46C614.23,-215.93 465.98,-167.96 397.17,-145.7"/>
<polygon fill="midnightblue" stroke="midnightblue" points="398.21,-142.36 387.61,-142.61 396.05,-149.02 398.21,-142.36"/>
</g>
<!-- Node30&#45;&gt;Node14 -->
<g id="edge43" class="edge">
<title>Node30&#45;&gt;Node14</title>
<path fill="none" stroke="midnightblue" d="M127.78,-403.35C135.42,-385.03 152,-340.82 152,-302 152,-302 152,-302 152,-188 152,-155.82 156.3,-118.55 159.26,-96.7"/>
<polygon fill="midnightblue" stroke="midnightblue" points="162.76,-96.92 160.69,-86.53 155.83,-95.95 162.76,-96.92"/>
</g>
<!-- Node31 -->
<g id="node31" class="node">
<title>Node31</title>
<g id="a_node31"><a xlink:title=" ">
<polygon fill="white" stroke="#bfbfbf" points="66.5,-347.5 66.5,-366.5 123.5,-366.5 123.5,-347.5 66.5,-347.5"/>
<text text-anchor="middle" x="95" y="-354.5" font-family="Helvetica,sans-Serif" font-size="10.00">ostream</text>
</a>
</g>
</g>
<!-- Node30&#45;&gt;Node31 -->
<g id="edge44" class="edge">
<title>Node30&#45;&gt;Node31</title>
<path fill="none" stroke="midnightblue" d="M119.21,-403.08C115.24,-395.69 109.47,-384.95 104.57,-375.81"/>
<polygon fill="midnightblue" stroke="midnightblue" points="107.51,-373.91 99.7,-366.75 101.35,-377.22 107.51,-373.91"/>
</g>
<!-- Node33&#45;&gt;Node6 -->
<g id="edge48" class="edge">
<title>Node33&#45;&gt;Node6</title>
<path fill="none" stroke="midnightblue" d="M645.94,-459.34C621.26,-437.58 574.2,-396.09 548.62,-373.54"/>
<polygon fill="midnightblue" stroke="midnightblue" points="550.65,-370.66 540.83,-366.67 546.02,-375.91 550.65,-370.66"/>
</g>
<!-- Node35 -->
<g id="node35" class="node">
<title>Node35</title>
<g id="a_node35"><a xlink:title=" ">
<polygon fill="white" stroke="#bfbfbf" points="1329.5,-179.5 1329.5,-198.5 1376.5,-198.5 1376.5,-179.5 1329.5,-179.5"/>
<text text-anchor="middle" x="1353" y="-186.5" font-family="Helvetica,sans-Serif" font-size="10.00">cmath</text>
</a>
</g>
</g>
<!-- Node34&#45;&gt;Node35 -->
<g id="edge51" class="edge">
<title>Node34&#45;&gt;Node35</title>
<path fill="none" stroke="midnightblue" d="M1239.39,-235.44C1261.71,-226.52 1296.9,-212.44 1322.21,-202.32"/>
<polygon fill="midnightblue" stroke="midnightblue" points="1323.72,-205.48 1331.71,-198.52 1321.12,-198.98 1323.72,-205.48"/>
</g>
<!-- Node36 -->
<g id="node36" class="node">
<title>Node36</title>
<g id="a_node36"><a xlink:href="itkMathDetail_8h.html" target="_top" xlink:title=" ">
<polygon fill="white" stroke="black" points="1395,-179.5 1395,-198.5 1487,-198.5 1487,-179.5 1395,-179.5"/>
<text text-anchor="middle" x="1441" y="-186.5" font-family="Helvetica,sans-Serif" font-size="10.00">itkMathDetail.h</text>
</a>
</g>
</g>
<!-- Node34&#45;&gt;Node36 -->
<g id="edge52" class="edge">
<title>Node34&#45;&gt;Node36</title>
<path fill="none" stroke="midnightblue" d="M1249.95,-236.26C1288.19,-227 1352.49,-211.43 1395.81,-200.94"/>
<polygon fill="midnightblue" stroke="midnightblue" points="1396.9,-204.28 1405.8,-198.52 1395.25,-197.48 1396.9,-204.28"/>
</g>
<!-- Node46 -->
<g id="node46" class="node">
<title>Node46</title>
<g id="a_node46"><a xlink:href="itkConceptChecking_8h.html" target="_top" xlink:title=" ">
<polygon fill="white" stroke="black" points="980.5,-179.5 980.5,-198.5 1103.5,-198.5 1103.5,-179.5 980.5,-179.5"/>
<text text-anchor="middle" x="1042" y="-186.5" font-family="Helvetica,sans-Serif" font-size="10.00">itkConceptChecking.h</text>
</a>
</g>
</g>
<!-- Node34&#45;&gt;Node46 -->
<g id="edge68" class="edge">
<title>Node34&#45;&gt;Node46</title>
<path fill="none" stroke="midnightblue" d="M1190.11,-235.44C1160.25,-226.28 1112.69,-211.69 1079.54,-201.52"/>
<polygon fill="midnightblue" stroke="midnightblue" points="1080.34,-198.1 1069.76,-198.52 1078.29,-204.8 1080.34,-198.1"/>
</g>
<!-- Node48 -->
<g id="node48" class="node">
<title>Node48</title>
<g id="a_node48"><a xlink:title=" ">
<polygon fill="white" stroke="#bfbfbf" points="1121.5,-179.5 1121.5,-198.5 1210.5,-198.5 1210.5,-179.5 1121.5,-179.5"/>
<text text-anchor="middle" x="1166" y="-186.5" font-family="Helvetica,sans-Serif" font-size="10.00">vnl/vnl_math.h</text>
</a>
</g>
</g>
<!-- Node34&#45;&gt;Node48 -->
<g id="edge73" class="edge">
<title>Node34&#45;&gt;Node48</title>
<path fill="none" stroke="midnightblue" d="M1209.41,-235.08C1201.84,-227.22 1190.62,-215.57 1181.49,-206.08"/>
<polygon fill="midnightblue" stroke="midnightblue" points="1183.88,-203.53 1174.43,-198.75 1178.84,-208.38 1183.88,-203.53"/>
</g>
<!-- Node49 -->
<g id="node49" class="node">
<title>Node49</title>
<g id="a_node49"><a xlink:title=" ">
<polygon fill="white" stroke="#bfbfbf" points="1229,-179.5 1229,-198.5 1311,-198.5 1311,-179.5 1229,-179.5"/>
<text text-anchor="middle" x="1270" y="-186.5" font-family="Helvetica,sans-Serif" font-size="10.00">vxl_version.h</text>
</a>
</g>
</g>
<!-- Node34&#45;&gt;Node49 -->
<g id="edge74" class="edge">
<title>Node34&#45;&gt;Node49</title>
<path fill="none" stroke="midnightblue" d="M1226.59,-235.08C1234.16,-227.22 1245.38,-215.57 1254.51,-206.08"/>
<polygon fill="midnightblue" stroke="midnightblue" points="1257.16,-208.38 1261.57,-198.75 1252.12,-203.53 1257.16,-208.38"/>
</g>
<!-- Node36&#45;&gt;Node14 -->
<g id="edge53" class="edge">
<title>Node36&#45;&gt;Node14</title>
<path fill="none" stroke="midnightblue" d="M1394.84,-180.01C1391.86,-179.63 1388.89,-179.28 1386,-179 1150.78,-155.87 554.22,-191.99 323,-143 272.71,-132.34 217.97,-107.04 187.03,-91.33"/>
<polygon fill="midnightblue" stroke="midnightblue" points="188.35,-88.07 177.86,-86.6 185.14,-94.29 188.35,-88.07"/>
</g>
<!-- Node37 -->
<g id="node37" class="node">
<title>Node37</title>
<g id="a_node37"><a xlink:href="itkNumericTraits_8h.html" target="_top" xlink:title=" ">
<polygon fill="white" stroke="black" points="1215,-123.5 1215,-142.5 1321,-142.5 1321,-123.5 1215,-123.5"/>
<text text-anchor="middle" x="1268" y="-130.5" font-family="Helvetica,sans-Serif" font-size="10.00">itkNumericTraits.h</text>
</a>
</g>
</g>
<!-- Node36&#45;&gt;Node37 -->
<g id="edge54" class="edge">
<title>Node36&#45;&gt;Node37</title>
<path fill="none" stroke="midnightblue" d="M1413.59,-179.44C1384.23,-170.28 1337.48,-155.69 1304.9,-145.52"/>
<polygon fill="midnightblue" stroke="midnightblue" points="1305.87,-142.16 1295.28,-142.52 1303.79,-148.84 1305.87,-142.16"/>
</g>
<!-- Node45 -->
<g id="node45" class="node">
<title>Node45</title>
<g id="a_node45"><a xlink:title=" ">
<polygon fill="white" stroke="#bfbfbf" points="1419,-123.5 1419,-142.5 1463,-142.5 1463,-123.5 1419,-123.5"/>
<text text-anchor="middle" x="1441" y="-130.5" font-family="Helvetica,sans-Serif" font-size="10.00">cfenv</text>
</a>
</g>
</g>
<!-- Node36&#45;&gt;Node45 -->
<g id="edge67" class="edge">
<title>Node36&#45;&gt;Node45</title>
<path fill="none" stroke="midnightblue" d="M1441,-179.08C1441,-172.01 1441,-161.86 1441,-152.99"/>
<polygon fill="midnightblue" stroke="midnightblue" points="1444.5,-152.75 1441,-142.75 1437.5,-152.75 1444.5,-152.75"/>
</g>
<!-- Node37&#45;&gt;Node2 -->
<g id="edge55" class="edge">
<title>Node37&#45;&gt;Node2</title>
<path fill="none" stroke="midnightblue" d="M1244.18,-123.47C1206.5,-110.19 1130.67,-84.29 1065,-67 996.14,-48.87 914.93,-33.11 866,-24.21"/>
<polygon fill="midnightblue" stroke="midnightblue" points="866.53,-20.75 856.07,-22.41 865.29,-27.63 866.53,-20.75"/>
</g>
<!-- Node38 -->
<g id="node38" class="node">
<title>Node38</title>
<g id="a_node38"><a xlink:title=" ">
<polygon fill="white" stroke="#bfbfbf" points="1176,-67.5 1176,-86.5 1220,-86.5 1220,-67.5 1176,-67.5"/>
<text text-anchor="middle" x="1198" y="-74.5" font-family="Helvetica,sans-Serif" font-size="10.00">limits</text>
</a>
</g>
</g>
<!-- Node37&#45;&gt;Node38 -->
<g id="edge56" class="edge">
<title>Node37&#45;&gt;Node38</title>
<path fill="none" stroke="midnightblue" d="M1256.75,-123.32C1246.2,-115.18 1230.2,-102.84 1217.56,-93.09"/>
<polygon fill="midnightblue" stroke="midnightblue" points="1219.51,-90.17 1209.45,-86.83 1215.23,-95.71 1219.51,-90.17"/>
</g>
<!-- Node39 -->
<g id="node39" class="node">
<title>Node39</title>
<g id="a_node39"><a xlink:title=" ">
<polygon fill="white" stroke="#bfbfbf" points="1238.5,-67.5 1238.5,-86.5 1297.5,-86.5 1297.5,-67.5 1238.5,-67.5"/>
<text text-anchor="middle" x="1268" y="-74.5" font-family="Helvetica,sans-Serif" font-size="10.00">complex</text>
</a>
</g>
</g>
<!-- Node37&#45;&gt;Node39 -->
<g id="edge57" class="edge">
<title>Node37&#45;&gt;Node39</title>
<path fill="none" stroke="midnightblue" d="M1268,-123.08C1268,-116.01 1268,-105.86 1268,-96.99"/>
<polygon fill="midnightblue" stroke="midnightblue" points="1271.5,-96.75 1268,-86.75 1264.5,-96.75 1271.5,-96.75"/>
</g>
<!-- Node40 -->
<g id="node40" class="node">
<title>Node40</title>
<g id="a_node40"><a xlink:href="itkFixedArray_8h.html" target="_top" xlink:title=" ">
<polygon fill="white" stroke="black" points="1354.5,-67.5 1354.5,-86.5 1443.5,-86.5 1443.5,-67.5 1354.5,-67.5"/>
<text text-anchor="middle" x="1399" y="-74.5" font-family="Helvetica,sans-Serif" font-size="10.00">itkFixedArray.h</text>
</a>
</g>
</g>
<!-- Node37&#45;&gt;Node40 -->
<g id="edge58" class="edge">
<title>Node37&#45;&gt;Node40</title>
<path fill="none" stroke="midnightblue" d="M1288.76,-123.44C1310.32,-114.56 1344.26,-100.56 1368.79,-90.45"/>
<polygon fill="midnightblue" stroke="midnightblue" points="1370.43,-93.56 1378.34,-86.52 1367.76,-87.09 1370.43,-93.56"/>
</g>
<!-- Node40&#45;&gt;Node2 -->
<g id="edge59" class="edge">
<title>Node40&#45;&gt;Node2</title>
<path fill="none" stroke="midnightblue" d="M1354.2,-71.38C1246.45,-60.27 973.77,-32.15 866.41,-21.08"/>
<polygon fill="midnightblue" stroke="midnightblue" points="866.56,-17.58 856.25,-20.03 865.84,-24.54 866.56,-17.58"/>
</g>
<!-- Node40&#45;&gt;Node24 -->
<g id="edge61" class="edge">
<title>Node40&#45;&gt;Node24</title>
<path fill="none" stroke="midnightblue" d="M1359.17,-67.48C1307.12,-56.34 1216.37,-36.91 1163.19,-25.53"/>
<polygon fill="midnightblue" stroke="midnightblue" points="1163.9,-22.1 1153.39,-23.43 1162.44,-28.95 1163.9,-22.1"/>
</g>
<!-- Node41 -->
<g id="node41" class="node">
<title>Node41</title>
<g id="a_node41"><a xlink:href="itkMakeFilled_8h.html" target="_top" xlink:title=" ">
<polygon fill="white" stroke="black" points="1502.5,-6 1502.5,-25 1593.5,-25 1593.5,-6 1502.5,-6"/>
<text text-anchor="middle" x="1548" y="-13" font-family="Helvetica,sans-Serif" font-size="10.00">itkMakeFilled.h</text>
</a>
</g>
</g>
<!-- Node40&#45;&gt;Node41 -->
<g id="edge60" class="edge">
<title>Node40&#45;&gt;Node41</title>
<path fill="none" stroke="midnightblue" d="M1420.35,-67.48C1445.69,-57.36 1488.14,-40.4 1517.07,-28.85"/>
<polygon fill="midnightblue" stroke="midnightblue" points="1518.7,-31.97 1526.69,-25.01 1516.11,-25.47 1518.7,-31.97"/>
</g>
<!-- Node42 -->
<g id="node42" class="node">
<title>Node42</title>
<g id="a_node42"><a xlink:title=" ">
<polygon fill="white" stroke="#bfbfbf" points="1612,-6 1612,-25 1654,-25 1654,-6 1612,-6"/>
<text text-anchor="middle" x="1633" y="-13" font-family="Helvetica,sans-Serif" font-size="10.00">array</text>
</a>
</g>
</g>
<!-- Node40&#45;&gt;Node42 -->
<g id="edge62" class="edge">
<title>Node40&#45;&gt;Node42</title>
<path fill="none" stroke="midnightblue" d="M1443.59,-69.25C1485.48,-62.19 1549.54,-49.53 1603,-31 1604.62,-30.44 1606.26,-29.82 1607.9,-29.15"/>
<polygon fill="midnightblue" stroke="midnightblue" points="1609.4,-32.31 1617.1,-25.03 1606.54,-25.92 1609.4,-32.31"/>
</g>
<!-- Node43 -->
<g id="node43" class="node">
<title>Node43</title>
<g id="a_node43"><a xlink:title=" ">
<polygon fill="white" stroke="#bfbfbf" points="1383.5,-6 1383.5,-25 1484.5,-25 1484.5,-6 1383.5,-6"/>
<text text-anchor="middle" x="1434" y="-13" font-family="Helvetica,sans-Serif" font-size="10.00">itkFixedArray.hxx</text>
</a>
</g>
</g>
<!-- Node40&#45;&gt;Node43 -->
<g id="edge63" class="edge">
<title>Node40&#45;&gt;Node43</title>
<path fill="none" stroke="midnightblue" d="M1404.01,-67.48C1409.16,-58.73 1417.31,-44.87 1423.82,-33.81"/>
<polygon fill="midnightblue" stroke="midnightblue" points="1426.94,-35.4 1428.99,-25.01 1420.91,-31.85 1426.94,-35.4"/>
</g>
<!-- Node44 -->
<g id="node44" class="node">
<title>Node44</title>
<g id="a_node44"><a xlink:href="itkNumericTraitsFixedArrayPixel_8h.html" target="_top" xlink:title=" ">
<polygon fill="white" stroke="black" points="1216.5,-0.5 1216.5,-30.5 1365.5,-30.5 1365.5,-0.5 1216.5,-0.5"/>
<text text-anchor="start" x="1224.5" y="-18.5" font-family="Helvetica,sans-Serif" font-size="10.00">itkNumericTraitsFixedArray</text>
<text text-anchor="middle" x="1291" y="-7.5" font-family="Helvetica,sans-Serif" font-size="10.00">Pixel.h</text>
</a>
</g>
</g>
<!-- Node40&#45;&gt;Node44 -->
<g id="edge64" class="edge">
<title>Node40&#45;&gt;Node44</title>
<path fill="none" stroke="midnightblue" d="M1378.63,-67.48C1361.78,-59.19 1337.94,-46.32 1319.3,-35.59"/>
<polygon fill="midnightblue" stroke="midnightblue" points="1321.02,-32.54 1310.62,-30.52 1317.49,-38.59 1321.02,-32.54"/>
</g>
<!-- Node44&#45;&gt;Node37 -->
<g id="edge65" class="edge">
<title>Node44&#45;&gt;Node37</title>
<path fill="none" stroke="midnightblue" d="M1298.89,-30.6C1305.91,-45.06 1314.06,-68.07 1307,-87 1302.83,-98.19 1294.48,-108.44 1286.58,-116.32"/>
<polygon fill="midnightblue" stroke="midnightblue" points="1283.94,-114 1278.99,-123.37 1288.7,-119.13 1283.94,-114"/>
</g>
<!-- Node44&#45;&gt;Node40 -->
<g id="edge66" class="edge">
<title>Node44&#45;&gt;Node40</title>
<path fill="none" stroke="midnightblue" d="M1322.28,-30.52C1340.92,-40.11 1363.86,-52.75 1379.88,-62.28"/>
<polygon fill="midnightblue" stroke="midnightblue" points="1378.06,-65.27 1388.43,-67.48 1381.7,-59.29 1378.06,-65.27"/>
</g>
<!-- Node46&#45;&gt;Node9 -->
<g id="edge72" class="edge">
<title>Node46&#45;&gt;Node9</title>
<path fill="none" stroke="midnightblue" d="M980.42,-180.76C936.76,-174.27 877.39,-162.65 828,-143 795.5,-130.07 761.68,-107.47 741.23,-92.62"/>
<polygon fill="midnightblue" stroke="midnightblue" points="743.2,-89.72 733.07,-86.59 739.03,-95.35 743.2,-89.72"/>
</g>
<!-- Node46&#45;&gt;Node37 -->
<g id="edge71" class="edge">
<title>Node46&#45;&gt;Node37</title>
<path fill="none" stroke="midnightblue" d="M1077.81,-179.44C1116.99,-170.08 1179.88,-155.06 1222.52,-144.87"/>
<polygon fill="midnightblue" stroke="midnightblue" points="1223.44,-148.24 1232.36,-142.52 1221.82,-141.44 1223.44,-148.24"/>
</g>
<!-- Node47 -->
<g id="node47" class="node">
<title>Node47</title>
<g id="a_node47"><a xlink:href="itkPixelTraits_8h.html" target="_top" xlink:title=" ">
<polygon fill="white" stroke="black" points="994,-123.5 994,-142.5 1082,-142.5 1082,-123.5 994,-123.5"/>
<text text-anchor="middle" x="1038" y="-130.5" font-family="Helvetica,sans-Serif" font-size="10.00">itkPixelTraits.h</text>
</a>
</g>
</g>
<!-- Node46&#45;&gt;Node47 -->
<g id="edge69" class="edge">
<title>Node46&#45;&gt;Node47</title>
<path fill="none" stroke="midnightblue" d="M1041.34,-179.08C1040.82,-172.01 1040.06,-161.86 1039.41,-152.99"/>
<polygon fill="midnightblue" stroke="midnightblue" points="1042.88,-152.47 1038.65,-142.75 1035.9,-152.98 1042.88,-152.47"/>
</g>
<!-- Node47&#45;&gt;Node2 -->
<g id="edge70" class="edge">
<title>Node47&#45;&gt;Node2</title>
<path fill="none" stroke="midnightblue" d="M1043.05,-123.36C1050.22,-109.8 1061.14,-83.39 1048,-67 1025.71,-39.18 925.84,-25.67 866.57,-19.99"/>
<polygon fill="midnightblue" stroke="midnightblue" points="866.64,-16.48 856.36,-19.05 866,-23.45 866.64,-16.48"/>
</g>
</g>
</svg>
