<?xml version="1.0" encoding="UTF-8" standalone="no"?>
<!DOCTYPE svg PUBLIC "-//W3C//DTD SVG 1.1//EN"
 "http://www.w3.org/Graphics/SVG/1.1/DTD/svg11.dtd">
<!-- Generated by graphviz version 2.43.0 (0)
 -->
<!-- Title: itkMovingHistogramImageFilterBase.h Pages: 1 -->
<svg width="1131pt" height="441pt"
 viewBox="0.00 0.00 1131.00 441.00" xmlns="http://www.w3.org/2000/svg" xmlns:xlink="http://www.w3.org/1999/xlink">
<g id="graph0" class="graph" transform="scale(1 1) rotate(0) translate(4 437)">
<title>itkMovingHistogramImageFilterBase.h</title>
<polygon fill="white" stroke="transparent" points="-4,4 -4,-437 1127,-437 1127,4 -4,4"/>
<!-- Node1 -->
<g id="node1" class="node">
<title>Node1</title>
<g id="a_node1"><a xlink:title=" ">
<polygon fill="#bfbfbf" stroke="black" points="354,-402.5 354,-432.5 526,-432.5 526,-402.5 354,-402.5"/>
<text text-anchor="start" x="362" y="-420.5" font-family="Helvetica,sans-Serif" font-size="10.00">itkMovingHistogramImageFilter</text>
<text text-anchor="middle" x="440" y="-409.5" font-family="Helvetica,sans-Serif" font-size="10.00">Base.h</text>
</a>
</g>
</g>
<!-- Node2 -->
<g id="node2" class="node">
<title>Node2</title>
<g id="a_node2"><a xlink:href="itkMovingHistogramImageFilter_8h.html" target="_top" xlink:title=" ">
<polygon fill="white" stroke="black" points="258,-341 258,-360 438,-360 438,-341 258,-341"/>
<text text-anchor="middle" x="348" y="-348" font-family="Helvetica,sans-Serif" font-size="10.00">itkMovingHistogramImageFilter.h</text>
</a>
</g>
</g>
<!-- Node1&#45;&gt;Node2 -->
<g id="edge1" class="edge">
<title>Node1&#45;&gt;Node2</title>
<path fill="none" stroke="midnightblue" d="M411.42,-396.31C394.14,-384.1 373.02,-369.18 360.04,-360.01"/>
<polygon fill="midnightblue" stroke="midnightblue" points="409.85,-399.48 420.04,-402.4 413.89,-393.77 409.85,-399.48"/>
</g>
<!-- Node21 -->
<g id="node21" class="node">
<title>Node21</title>
<g id="a_node21"><a xlink:href="itkMaskedMovingHistogramImageFilter_8h.html" target="_top" xlink:title=" ">
<polygon fill="white" stroke="black" points="512,-335.5 512,-365.5 666,-365.5 666,-335.5 512,-335.5"/>
<text text-anchor="start" x="520" y="-353.5" font-family="Helvetica,sans-Serif" font-size="10.00">itkMaskedMovingHistogram</text>
<text text-anchor="middle" x="589" y="-342.5" font-family="Helvetica,sans-Serif" font-size="10.00">ImageFilter.h</text>
</a>
</g>
</g>
<!-- Node1&#45;&gt;Node21 -->
<g id="edge28" class="edge">
<title>Node1&#45;&gt;Node21</title>
<path fill="none" stroke="midnightblue" d="M481.79,-398.27C505.52,-387.92 534.78,-375.15 556.73,-365.58"/>
<polygon fill="midnightblue" stroke="midnightblue" points="480.1,-395.19 472.33,-402.4 482.9,-401.61 480.1,-395.19"/>
</g>
<!-- Node3 -->
<g id="node3" class="node">
<title>Node3</title>
<g id="a_node3"><a xlink:href="itkAdaptiveHistogramEqualizationImageFilter_8h.html" target="_top" xlink:title=" ">
<polygon fill="white" stroke="black" points="136,-268.5 136,-298.5 320,-298.5 320,-268.5 136,-268.5"/>
<text text-anchor="start" x="144" y="-286.5" font-family="Helvetica,sans-Serif" font-size="10.00">itkAdaptiveHistogramEqualization</text>
<text text-anchor="middle" x="228" y="-275.5" font-family="Helvetica,sans-Serif" font-size="10.00">ImageFilter.h</text>
</a>
</g>
</g>
<!-- Node2&#45;&gt;Node3 -->
<g id="edge2" class="edge">
<title>Node2&#45;&gt;Node3</title>
<path fill="none" stroke="midnightblue" d="M322.9,-335.9C302.71,-324.97 274.44,-309.65 254.01,-298.59"/>
<polygon fill="midnightblue" stroke="midnightblue" points="321.36,-339.05 331.82,-340.73 324.69,-332.89 321.36,-339.05"/>
</g>
<!-- Node4 -->
<g id="node4" class="node">
<title>Node4</title>
<g id="a_node4"><a xlink:href="itkMovingHistogramMorphologyImageFilter_8h.html" target="_top" xlink:title=" ">
<polygon fill="white" stroke="black" points="376,-268.5 376,-298.5 550,-298.5 550,-268.5 376,-268.5"/>
<text text-anchor="start" x="384" y="-286.5" font-family="Helvetica,sans-Serif" font-size="10.00">itkMovingHistogramMorphology</text>
<text text-anchor="middle" x="463" y="-275.5" font-family="Helvetica,sans-Serif" font-size="10.00">ImageFilter.h</text>
</a>
</g>
</g>
<!-- Node2&#45;&gt;Node4 -->
<g id="edge3" class="edge">
<title>Node2&#45;&gt;Node4</title>
<path fill="none" stroke="midnightblue" d="M372.32,-335.75C391.65,-324.83 418.59,-309.6 438.07,-298.59"/>
<polygon fill="midnightblue" stroke="midnightblue" points="370.49,-332.77 363.51,-340.73 373.94,-338.86 370.49,-332.77"/>
</g>
<!-- Node19 -->
<g id="node19" class="node">
<title>Node19</title>
<g id="a_node19"><a xlink:href="itkMovingHistogramMorphologicalGradientImageFilter_8h.html" target="_top" xlink:title=" ">
<polygon fill="white" stroke="black" points="53.5,-201.5 53.5,-231.5 238.5,-231.5 238.5,-201.5 53.5,-201.5"/>
<text text-anchor="start" x="61.5" y="-219.5" font-family="Helvetica,sans-Serif" font-size="10.00">itkMovingHistogramMorphological</text>
<text text-anchor="middle" x="146" y="-208.5" font-family="Helvetica,sans-Serif" font-size="10.00">GradientImageFilter.h</text>
</a>
</g>
</g>
<!-- Node2&#45;&gt;Node19 -->
<g id="edge25" class="edge">
<title>Node2&#45;&gt;Node19</title>
<path fill="none" stroke="midnightblue" d="M348.78,-330.73C348.49,-312.35 345.09,-284.75 329,-268 305.48,-243.52 271.27,-230.56 238.77,-223.82"/>
<polygon fill="midnightblue" stroke="midnightblue" points="345.28,-330.75 348.64,-340.8 352.28,-330.84 345.28,-330.75"/>
</g>
<!-- Node20 -->
<g id="node20" class="node">
<title>Node20</title>
<g id="a_node20"><a xlink:href="itkRankImageFilter_8h.html" target="_top" xlink:title=" ">
<polygon fill="white" stroke="black" points="0,-274 0,-293 118,-293 118,-274 0,-274"/>
<text text-anchor="middle" x="59" y="-281" font-family="Helvetica,sans-Serif" font-size="10.00">itkRankImageFilter.h</text>
</a>
</g>
</g>
<!-- Node2&#45;&gt;Node20 -->
<g id="edge27" class="edge">
<title>Node2&#45;&gt;Node20</title>
<path fill="none" stroke="midnightblue" d="M300.09,-338.72C243.18,-325.92 149.41,-304.83 97.16,-293.08"/>
<polygon fill="midnightblue" stroke="midnightblue" points="299.4,-342.16 309.92,-340.94 300.93,-335.33 299.4,-342.16"/>
</g>
<!-- Node5 -->
<g id="node5" class="node">
<title>Node5</title>
<g id="a_node5"><a xlink:href="itkAnchorErodeDilateLine_8h.html" target="_top" xlink:title=" ">
<polygon fill="white" stroke="black" points="337.5,-207 337.5,-226 486.5,-226 486.5,-207 337.5,-207"/>
<text text-anchor="middle" x="412" y="-214" font-family="Helvetica,sans-Serif" font-size="10.00">itkAnchorErodeDilateLine.h</text>
</a>
</g>
</g>
<!-- Node4&#45;&gt;Node5 -->
<g id="edge4" class="edge">
<title>Node4&#45;&gt;Node5</title>
<path fill="none" stroke="midnightblue" d="M445.59,-260.32C436.4,-248.6 425.64,-234.88 418.82,-226.19"/>
<polygon fill="midnightblue" stroke="midnightblue" points="443.01,-262.69 451.93,-268.4 448.51,-258.37 443.01,-262.69"/>
</g>
<!-- Node17 -->
<g id="node17" class="node">
<title>Node17</title>
<g id="a_node17"><a xlink:href="itkMovingHistogramErodeImageFilter_8h.html" target="_top" xlink:title=" ">
<polygon fill="white" stroke="black" points="775.5,-67.5 775.5,-97.5 950.5,-97.5 950.5,-67.5 775.5,-67.5"/>
<text text-anchor="start" x="783.5" y="-85.5" font-family="Helvetica,sans-Serif" font-size="10.00">itkMovingHistogramErodeImage</text>
<text text-anchor="middle" x="863" y="-74.5" font-family="Helvetica,sans-Serif" font-size="10.00">Filter.h</text>
</a>
</g>
</g>
<!-- Node4&#45;&gt;Node17 -->
<g id="edge17" class="edge">
<title>Node4&#45;&gt;Node17</title>
<path fill="none" stroke="midnightblue" d="M531.92,-265.78C598.59,-247.61 700.74,-214.41 779,-165 808.72,-146.23 836.64,-115.61 851.61,-97.73"/>
<polygon fill="midnightblue" stroke="midnightblue" points="530.7,-262.48 521.95,-268.46 532.51,-269.24 530.7,-262.48"/>
</g>
<!-- Node18 -->
<g id="node18" class="node">
<title>Node18</title>
<g id="a_node18"><a xlink:href="itkMovingHistogramDilateImageFilter_8h.html" target="_top" xlink:title=" ">
<polygon fill="white" stroke="black" points="441,-67.5 441,-97.5 587,-97.5 587,-67.5 441,-67.5"/>
<text text-anchor="start" x="449" y="-85.5" font-family="Helvetica,sans-Serif" font-size="10.00">itkMovingHistogramDilate</text>
<text text-anchor="middle" x="514" y="-74.5" font-family="Helvetica,sans-Serif" font-size="10.00">ImageFilter.h</text>
</a>
</g>
</g>
<!-- Node4&#45;&gt;Node18 -->
<g id="edge21" class="edge">
<title>Node4&#45;&gt;Node18</title>
<path fill="none" stroke="midnightblue" d="M480.27,-259.94C485.84,-251.58 491.48,-241.75 495,-232 511.93,-185.05 514.15,-125 514.2,-97.9"/>
<polygon fill="midnightblue" stroke="midnightblue" points="477.23,-258.17 474.35,-268.37 482.96,-262.2 477.23,-258.17"/>
</g>
<!-- Node6 -->
<g id="node6" class="node">
<title>Node6</title>
<g id="a_node6"><a xlink:href="itkAnchorOpenCloseImageFilter_8h.html" target="_top" xlink:title=" ">
<polygon fill="white" stroke="black" points="591.5,-140 591.5,-159 770.5,-159 770.5,-140 591.5,-140"/>
<text text-anchor="middle" x="681" y="-147" font-family="Helvetica,sans-Serif" font-size="10.00">itkAnchorOpenCloseImageFilter.h</text>
</a>
</g>
</g>
<!-- Node5&#45;&gt;Node6 -->
<g id="edge5" class="edge">
<title>Node5&#45;&gt;Node6</title>
<path fill="none" stroke="midnightblue" d="M457.26,-204.56C510.29,-191.75 597.05,-170.78 645.48,-159.08"/>
<polygon fill="midnightblue" stroke="midnightblue" points="456.34,-201.18 447.44,-206.94 457.99,-207.99 456.34,-201.18"/>
</g>
<!-- Node11 -->
<g id="node11" class="node">
<title>Node11</title>
<g id="a_node11"><a xlink:href="itkAnchorErodeDilateImageFilter_8h.html" target="_top" xlink:title=" ">
<polygon fill="white" stroke="black" points="269.5,-134.5 269.5,-164.5 420.5,-164.5 420.5,-134.5 269.5,-134.5"/>
<text text-anchor="start" x="277.5" y="-152.5" font-family="Helvetica,sans-Serif" font-size="10.00">itkAnchorErodeDilateImage</text>
<text text-anchor="middle" x="345" y="-141.5" font-family="Helvetica,sans-Serif" font-size="10.00">Filter.h</text>
</a>
</g>
</g>
<!-- Node5&#45;&gt;Node11 -->
<g id="edge10" class="edge">
<title>Node5&#45;&gt;Node11</title>
<path fill="none" stroke="midnightblue" d="M395.63,-199.62C384.59,-188.91 370.15,-174.9 359.52,-164.59"/>
<polygon fill="midnightblue" stroke="midnightblue" points="393.35,-202.28 402.96,-206.73 398.22,-197.26 393.35,-202.28"/>
</g>
<!-- Node7 -->
<g id="node7" class="node">
<title>Node7</title>
<g id="a_node7"><a xlink:href="itkAnchorCloseImageFilter_8h.html" target="_top" xlink:title=" ">
<polygon fill="white" stroke="black" points="969,-73 969,-92 1123,-92 1123,-73 969,-73"/>
<text text-anchor="middle" x="1046" y="-80" font-family="Helvetica,sans-Serif" font-size="10.00">itkAnchorCloseImageFilter.h</text>
</a>
</g>
</g>
<!-- Node6&#45;&gt;Node7 -->
<g id="edge6" class="edge">
<title>Node6&#45;&gt;Node7</title>
<path fill="none" stroke="midnightblue" d="M739.31,-138.12C811.05,-125.34 931.49,-103.89 998.09,-92.03"/>
<polygon fill="midnightblue" stroke="midnightblue" points="738.32,-134.74 729.09,-139.94 739.55,-141.63 738.32,-134.74"/>
</g>
<!-- Node9 -->
<g id="node9" class="node">
<title>Node9</title>
<g id="a_node9"><a xlink:href="itkAnchorOpenImageFilter_8h.html" target="_top" xlink:title=" ">
<polygon fill="white" stroke="black" points="605,-73 605,-92 757,-92 757,-73 605,-73"/>
<text text-anchor="middle" x="681" y="-80" font-family="Helvetica,sans-Serif" font-size="10.00">itkAnchorOpenImageFilter.h</text>
</a>
</g>
</g>
<!-- Node6&#45;&gt;Node9 -->
<g id="edge8" class="edge">
<title>Node6&#45;&gt;Node9</title>
<path fill="none" stroke="midnightblue" d="M681,-129.54C681,-117.17 681,-101.62 681,-92.13"/>
<polygon fill="midnightblue" stroke="midnightblue" points="677.5,-129.73 681,-139.73 684.5,-129.73 677.5,-129.73"/>
</g>
<!-- Node8 -->
<g id="node8" class="node">
<title>Node8</title>
<g id="a_node8"><a xlink:href="itkGrayscaleMorphologicalClosingImageFilter_8h.html" target="_top" xlink:title=" ">
<polygon fill="white" stroke="black" points="789.5,-0.5 789.5,-30.5 936.5,-30.5 936.5,-0.5 789.5,-0.5"/>
<text text-anchor="start" x="797.5" y="-18.5" font-family="Helvetica,sans-Serif" font-size="10.00">itkGrayscaleMorphological</text>
<text text-anchor="middle" x="863" y="-7.5" font-family="Helvetica,sans-Serif" font-size="10.00">ClosingImageFilter.h</text>
</a>
</g>
</g>
<!-- Node7&#45;&gt;Node8 -->
<g id="edge7" class="edge">
<title>Node7&#45;&gt;Node8</title>
<path fill="none" stroke="midnightblue" d="M1012.19,-69.49C981.16,-58.47 935.19,-42.14 902.49,-30.53"/>
<polygon fill="midnightblue" stroke="midnightblue" points="1011.1,-72.82 1021.7,-72.87 1013.45,-66.22 1011.1,-72.82"/>
</g>
<!-- Node10 -->
<g id="node10" class="node">
<title>Node10</title>
<g id="a_node10"><a xlink:href="itkGrayscaleMorphologicalOpeningImageFilter_8h.html" target="_top" xlink:title=" ">
<polygon fill="white" stroke="black" points="615.5,-0.5 615.5,-30.5 762.5,-30.5 762.5,-0.5 615.5,-0.5"/>
<text text-anchor="start" x="623.5" y="-18.5" font-family="Helvetica,sans-Serif" font-size="10.00">itkGrayscaleMorphological</text>
<text text-anchor="middle" x="689" y="-7.5" font-family="Helvetica,sans-Serif" font-size="10.00">OpeningImageFilter.h</text>
</a>
</g>
</g>
<!-- Node9&#45;&gt;Node10 -->
<g id="edge9" class="edge">
<title>Node9&#45;&gt;Node10</title>
<path fill="none" stroke="midnightblue" d="M683.31,-62.74C684.57,-52.49 686.11,-40 687.27,-30.59"/>
<polygon fill="midnightblue" stroke="midnightblue" points="679.83,-62.38 682.08,-72.73 686.77,-63.24 679.83,-62.38"/>
</g>
<!-- Node12 -->
<g id="node12" class="node">
<title>Node12</title>
<g id="a_node12"><a xlink:href="itkAnchorDilateImageFilter_8h.html" target="_top" xlink:title=" ">
<polygon fill="white" stroke="black" points="93,-73 93,-92 249,-92 249,-73 93,-73"/>
<text text-anchor="middle" x="171" y="-80" font-family="Helvetica,sans-Serif" font-size="10.00">itkAnchorDilateImageFilter.h</text>
</a>
</g>
</g>
<!-- Node11&#45;&gt;Node12 -->
<g id="edge11" class="edge">
<title>Node11&#45;&gt;Node12</title>
<path fill="none" stroke="midnightblue" d="M297.58,-130.78C263.84,-118.18 220.01,-101.81 193.77,-92.01"/>
<polygon fill="midnightblue" stroke="midnightblue" points="296.65,-134.18 307.24,-134.4 299.1,-127.62 296.65,-134.18"/>
</g>
<!-- Node15 -->
<g id="node15" class="node">
<title>Node15</title>
<g id="a_node15"><a xlink:href="itkAnchorErodeImageFilter_8h.html" target="_top" xlink:title=" ">
<polygon fill="white" stroke="black" points="267.5,-73 267.5,-92 422.5,-92 422.5,-73 267.5,-73"/>
<text text-anchor="middle" x="345" y="-80" font-family="Helvetica,sans-Serif" font-size="10.00">itkAnchorErodeImageFilter.h</text>
</a>
</g>
</g>
<!-- Node11&#45;&gt;Node15 -->
<g id="edge14" class="edge">
<title>Node11&#45;&gt;Node15</title>
<path fill="none" stroke="midnightblue" d="M345,-124.25C345,-113.02 345,-100.38 345,-92.19"/>
<polygon fill="midnightblue" stroke="midnightblue" points="341.5,-124.4 345,-134.4 348.5,-124.4 341.5,-124.4"/>
</g>
<!-- Node13 -->
<g id="node13" class="node">
<title>Node13</title>
<g id="a_node13"><a xlink:href="itkGrayscaleDilateImageFilter_8h.html" target="_top" xlink:title=" ">
<polygon fill="white" stroke="black" points="237.5,-6 237.5,-25 408.5,-25 408.5,-6 237.5,-6"/>
<text text-anchor="middle" x="323" y="-13" font-family="Helvetica,sans-Serif" font-size="10.00">itkGrayscaleDilateImageFilter.h</text>
</a>
</g>
</g>
<!-- Node12&#45;&gt;Node13 -->
<g id="edge12" class="edge">
<title>Node12&#45;&gt;Node13</title>
<path fill="none" stroke="midnightblue" d="M200.74,-68.78C230.84,-55.91 276.57,-36.35 302.73,-25.17"/>
<polygon fill="midnightblue" stroke="midnightblue" points="199,-65.72 191.18,-72.87 201.76,-72.15 199,-65.72"/>
</g>
<!-- Node14 -->
<g id="node14" class="node">
<title>Node14</title>
<g id="a_node14"><a xlink:href="itkMorphologicalGradientImageFilter_8h.html" target="_top" xlink:title=" ">
<polygon fill="white" stroke="black" points="79,-0.5 79,-30.5 219,-30.5 219,-0.5 79,-0.5"/>
<text text-anchor="start" x="87" y="-18.5" font-family="Helvetica,sans-Serif" font-size="10.00">itkMorphologicalGradient</text>
<text text-anchor="middle" x="149" y="-7.5" font-family="Helvetica,sans-Serif" font-size="10.00">ImageFilter.h</text>
</a>
</g>
</g>
<!-- Node12&#45;&gt;Node14 -->
<g id="edge13" class="edge">
<title>Node12&#45;&gt;Node14</title>
<path fill="none" stroke="midnightblue" d="M164.76,-63.06C161.27,-52.75 156.99,-40.1 153.77,-30.59"/>
<polygon fill="midnightblue" stroke="midnightblue" points="161.51,-64.38 168.03,-72.73 168.14,-62.14 161.51,-64.38"/>
</g>
<!-- Node15&#45;&gt;Node14 -->
<g id="edge16" class="edge">
<title>Node15&#45;&gt;Node14</title>
<path fill="none" stroke="midnightblue" d="M309.22,-69.63C275.98,-58.61 226.48,-42.19 191.3,-30.53"/>
<polygon fill="midnightblue" stroke="midnightblue" points="308.38,-73.04 318.97,-72.87 310.58,-66.4 308.38,-73.04"/>
</g>
<!-- Node16 -->
<g id="node16" class="node">
<title>Node16</title>
<g id="a_node16"><a xlink:href="itkGrayscaleErodeImageFilter_8h.html" target="_top" xlink:title=" ">
<polygon fill="white" stroke="black" points="427,-6 427,-25 597,-25 597,-6 427,-6"/>
<text text-anchor="middle" x="512" y="-13" font-family="Helvetica,sans-Serif" font-size="10.00">itkGrayscaleErodeImageFilter.h</text>
</a>
</g>
</g>
<!-- Node15&#45;&gt;Node16 -->
<g id="edge15" class="edge">
<title>Node15&#45;&gt;Node16</title>
<path fill="none" stroke="midnightblue" d="M376.85,-69.1C410.01,-56.2 461.06,-36.33 490,-25.06"/>
<polygon fill="midnightblue" stroke="midnightblue" points="375.23,-65.98 367.18,-72.87 377.76,-72.5 375.23,-65.98"/>
</g>
<!-- Node17&#45;&gt;Node8 -->
<g id="edge18" class="edge">
<title>Node17&#45;&gt;Node8</title>
<path fill="none" stroke="midnightblue" d="M863,-57.11C863,-48.15 863,-38.32 863,-30.58"/>
<polygon fill="midnightblue" stroke="midnightblue" points="859.5,-57.4 863,-67.4 866.5,-57.4 859.5,-57.4"/>
</g>
<!-- Node17&#45;&gt;Node10 -->
<g id="edge20" class="edge">
<title>Node17&#45;&gt;Node10</title>
<path fill="none" stroke="midnightblue" d="M815.67,-63.82C787.7,-53.37 752.77,-40.32 726.68,-30.58"/>
<polygon fill="midnightblue" stroke="midnightblue" points="814.65,-67.18 825.24,-67.4 817.1,-60.62 814.65,-67.18"/>
</g>
<!-- Node17&#45;&gt;Node16 -->
<g id="edge19" class="edge">
<title>Node17&#45;&gt;Node16</title>
<path fill="none" stroke="midnightblue" d="M777.26,-65.62C708.15,-52.82 613.61,-35.32 558.05,-25.03"/>
<polygon fill="midnightblue" stroke="midnightblue" points="776.8,-69.1 787.27,-67.48 778.07,-62.21 776.8,-69.1"/>
</g>
<!-- Node18&#45;&gt;Node8 -->
<g id="edge22" class="edge">
<title>Node18&#45;&gt;Node8</title>
<path fill="none" stroke="midnightblue" d="M597.11,-66.02C655.57,-55.13 733.09,-40.7 789.33,-30.22"/>
<polygon fill="midnightblue" stroke="midnightblue" points="596.35,-62.6 587.16,-67.87 597.63,-69.48 596.35,-62.6"/>
</g>
<!-- Node18&#45;&gt;Node10 -->
<g id="edge24" class="edge">
<title>Node18&#45;&gt;Node10</title>
<path fill="none" stroke="midnightblue" d="M561.6,-63.82C589.73,-53.37 624.86,-40.32 651.1,-30.58"/>
<polygon fill="midnightblue" stroke="midnightblue" points="560.13,-60.63 551.97,-67.4 562.57,-67.2 560.13,-60.63"/>
</g>
<!-- Node18&#45;&gt;Node13 -->
<g id="edge23" class="edge">
<title>Node18&#45;&gt;Node13</title>
<path fill="none" stroke="midnightblue" d="M462.89,-64.11C425.74,-51.46 377.05,-34.89 348,-25.01"/>
<polygon fill="midnightblue" stroke="midnightblue" points="461.96,-67.49 472.56,-67.4 464.22,-60.86 461.96,-67.49"/>
</g>
<!-- Node19&#45;&gt;Node14 -->
<g id="edge26" class="edge">
<title>Node19&#45;&gt;Node14</title>
<path fill="none" stroke="midnightblue" d="M125.07,-193.75C99.58,-164.49 62.45,-111.04 84,-67 91.66,-51.34 106.79,-39.14 120.52,-30.65"/>
<polygon fill="midnightblue" stroke="midnightblue" points="122.6,-196.24 131.89,-201.33 127.81,-191.56 122.6,-196.24"/>
</g>
<!-- Node22 -->
<g id="node22" class="node">
<title>Node22</title>
<g id="a_node22"><a xlink:href="itkMaskedRankImageFilter_8h.html" target="_top" xlink:title=" ">
<polygon fill="white" stroke="black" points="568.5,-274 568.5,-293 723.5,-293 723.5,-274 568.5,-274"/>
<text text-anchor="middle" x="646" y="-281" font-family="Helvetica,sans-Serif" font-size="10.00">itkMaskedRankImageFilter.h</text>
</a>
</g>
</g>
<!-- Node21&#45;&gt;Node22 -->
<g id="edge29" class="edge">
<title>Node21&#45;&gt;Node22</title>
<path fill="none" stroke="midnightblue" d="M608.15,-327.66C618.5,-315.86 630.68,-301.97 638.38,-293.19"/>
<polygon fill="midnightblue" stroke="midnightblue" points="605.33,-325.57 601.37,-335.4 610.59,-330.18 605.33,-325.57"/>
</g>
</g>
</svg>
