<?xml version="1.0" encoding="UTF-8" standalone="no"?>
<!DOCTYPE svg PUBLIC "-//W3C//DTD SVG 1.1//EN"
 "http://www.w3.org/Graphics/SVG/1.1/DTD/svg11.dtd">
<!-- Generated by graphviz version 2.43.0 (0)
 -->
<!-- Title: itkMathematicalMorphologyEnums.h Pages: 1 -->
<svg width="1203pt" height="106pt"
 viewBox="0.00 0.00 1202.50 106.00" xmlns="http://www.w3.org/2000/svg" xmlns:xlink="http://www.w3.org/1999/xlink">
<g id="graph0" class="graph" transform="scale(1 1) rotate(0) translate(4 102)">
<title>itkMathematicalMorphologyEnums.h</title>
<polygon fill="white" stroke="transparent" points="-4,4 -4,-102 1198.5,-102 1198.5,4 -4,4"/>
<!-- Node1 -->
<g id="node1" class="node">
<title>Node1</title>
<g id="a_node1"><a xlink:title=" ">
<polygon fill="#bfbfbf" stroke="black" points="534.5,-67.5 534.5,-97.5 689.5,-97.5 689.5,-67.5 534.5,-67.5"/>
<text text-anchor="start" x="542.5" y="-85.5" font-family="Helvetica,sans-Serif" font-size="10.00">itkMathematicalMorphology</text>
<text text-anchor="middle" x="612" y="-74.5" font-family="Helvetica,sans-Serif" font-size="10.00">Enums.h</text>
</a>
</g>
</g>
<!-- Node2 -->
<g id="node2" class="node">
<title>Node2</title>
<g id="a_node2"><a xlink:href="itkBlackTopHatImageFilter_8h.html" target="_top" xlink:title=" ">
<polygon fill="white" stroke="black" points="0,-6 0,-25 154,-25 154,-6 0,-6"/>
<text text-anchor="middle" x="77" y="-13" font-family="Helvetica,sans-Serif" font-size="10.00">itkBlackTopHatImageFilter.h</text>
</a>
</g>
</g>
<!-- Node1&#45;&gt;Node2 -->
<g id="edge1" class="edge">
<title>Node1&#45;&gt;Node2</title>
<path fill="none" stroke="midnightblue" d="M524.41,-73.09C433.79,-64.05 288.23,-48.59 163,-31 150.55,-29.25 137.14,-27.11 124.69,-25.02"/>
<polygon fill="midnightblue" stroke="midnightblue" points="524.07,-76.57 534.37,-74.08 524.76,-69.61 524.07,-76.57"/>
</g>
<!-- Node3 -->
<g id="node3" class="node">
<title>Node3</title>
<g id="a_node3"><a xlink:href="itkGrayscaleMorphologicalClosingImageFilter_8h.html" target="_top" xlink:title=" ">
<polygon fill="white" stroke="black" points="172.5,-0.5 172.5,-30.5 319.5,-30.5 319.5,-0.5 172.5,-0.5"/>
<text text-anchor="start" x="180.5" y="-18.5" font-family="Helvetica,sans-Serif" font-size="10.00">itkGrayscaleMorphological</text>
<text text-anchor="middle" x="246" y="-7.5" font-family="Helvetica,sans-Serif" font-size="10.00">ClosingImageFilter.h</text>
</a>
</g>
</g>
<!-- Node1&#45;&gt;Node3 -->
<g id="edge2" class="edge">
<title>Node1&#45;&gt;Node3</title>
<path fill="none" stroke="midnightblue" d="M524.15,-65.9C461.7,-54.81 378.78,-40.08 319.76,-29.6"/>
<polygon fill="midnightblue" stroke="midnightblue" points="523.92,-69.41 534.38,-67.72 525.15,-62.52 523.92,-69.41"/>
</g>
<!-- Node4 -->
<g id="node4" class="node">
<title>Node4</title>
<g id="a_node4"><a xlink:href="itkGrayscaleDilateImageFilter_8h.html" target="_top" xlink:title=" ">
<polygon fill="white" stroke="black" points="337.5,-6 337.5,-25 508.5,-25 508.5,-6 337.5,-6"/>
<text text-anchor="middle" x="423" y="-13" font-family="Helvetica,sans-Serif" font-size="10.00">itkGrayscaleDilateImageFilter.h</text>
</a>
</g>
</g>
<!-- Node1&#45;&gt;Node4 -->
<g id="edge3" class="edge">
<title>Node1&#45;&gt;Node4</title>
<path fill="none" stroke="midnightblue" d="M561.43,-64.11C524.66,-51.46 476.48,-34.89 447.74,-25.01"/>
<polygon fill="midnightblue" stroke="midnightblue" points="560.4,-67.45 570.99,-67.4 562.67,-60.83 560.4,-67.45"/>
</g>
<!-- Node5 -->
<g id="node5" class="node">
<title>Node5</title>
<g id="a_node5"><a xlink:href="itkGrayscaleErodeImageFilter_8h.html" target="_top" xlink:title=" ">
<polygon fill="white" stroke="black" points="527,-6 527,-25 697,-25 697,-6 527,-6"/>
<text text-anchor="middle" x="612" y="-13" font-family="Helvetica,sans-Serif" font-size="10.00">itkGrayscaleErodeImageFilter.h</text>
</a>
</g>
</g>
<!-- Node1&#45;&gt;Node5 -->
<g id="edge4" class="edge">
<title>Node1&#45;&gt;Node5</title>
<path fill="none" stroke="midnightblue" d="M612,-57.25C612,-46.02 612,-33.38 612,-25.19"/>
<polygon fill="midnightblue" stroke="midnightblue" points="608.5,-57.4 612,-67.4 615.5,-57.4 608.5,-57.4"/>
</g>
<!-- Node6 -->
<g id="node6" class="node">
<title>Node6</title>
<g id="a_node6"><a xlink:href="itkGrayscaleMorphologicalOpeningImageFilter_8h.html" target="_top" xlink:title=" ">
<polygon fill="white" stroke="black" points="715.5,-0.5 715.5,-30.5 862.5,-30.5 862.5,-0.5 715.5,-0.5"/>
<text text-anchor="start" x="723.5" y="-18.5" font-family="Helvetica,sans-Serif" font-size="10.00">itkGrayscaleMorphological</text>
<text text-anchor="middle" x="789" y="-7.5" font-family="Helvetica,sans-Serif" font-size="10.00">OpeningImageFilter.h</text>
</a>
</g>
</g>
<!-- Node1&#45;&gt;Node6 -->
<g id="edge5" class="edge">
<title>Node1&#45;&gt;Node6</title>
<path fill="none" stroke="midnightblue" d="M660.15,-63.82C688.6,-53.37 724.13,-40.32 750.67,-30.58"/>
<polygon fill="midnightblue" stroke="midnightblue" points="658.59,-60.66 650.41,-67.4 661,-67.23 658.59,-60.66"/>
</g>
<!-- Node7 -->
<g id="node7" class="node">
<title>Node7</title>
<g id="a_node7"><a xlink:href="itkMorphologicalGradientImageFilter_8h.html" target="_top" xlink:title=" ">
<polygon fill="white" stroke="black" points="881,-0.5 881,-30.5 1021,-30.5 1021,-0.5 881,-0.5"/>
<text text-anchor="start" x="889" y="-18.5" font-family="Helvetica,sans-Serif" font-size="10.00">itkMorphologicalGradient</text>
<text text-anchor="middle" x="951" y="-7.5" font-family="Helvetica,sans-Serif" font-size="10.00">ImageFilter.h</text>
</a>
</g>
</g>
<!-- Node1&#45;&gt;Node7 -->
<g id="edge6" class="edge">
<title>Node1&#45;&gt;Node7</title>
<path fill="none" stroke="midnightblue" d="M695.21,-65.55C752.19,-54.62 826.93,-40.29 880.89,-29.94"/>
<polygon fill="midnightblue" stroke="midnightblue" points="694.3,-62.16 685.14,-67.48 695.62,-69.03 694.3,-62.16"/>
</g>
<!-- Node8 -->
<g id="node8" class="node">
<title>Node8</title>
<g id="a_node8"><a xlink:href="itkWhiteTopHatImageFilter_8h.html" target="_top" xlink:title=" ">
<polygon fill="white" stroke="black" points="1039.5,-6 1039.5,-25 1194.5,-25 1194.5,-6 1039.5,-6"/>
<text text-anchor="middle" x="1117" y="-13" font-family="Helvetica,sans-Serif" font-size="10.00">itkWhiteTopHatImageFilter.h</text>
</a>
</g>
</g>
<!-- Node1&#45;&gt;Node8 -->
<g id="edge7" class="edge">
<title>Node1&#45;&gt;Node8</title>
<path fill="none" stroke="midnightblue" d="M699.65,-72.07C784.33,-62.69 916.15,-47.36 1030,-31 1042.43,-29.21 1055.82,-27.09 1068.29,-25.02"/>
<polygon fill="midnightblue" stroke="midnightblue" points="699.12,-68.61 689.56,-73.18 699.89,-75.56 699.12,-68.61"/>
</g>
</g>
</svg>
