<?xml version="1.0" encoding="UTF-8" standalone="no"?>
<!DOCTYPE svg PUBLIC "-//W3C//DTD SVG 1.1//EN"
 "http://www.w3.org/Graphics/SVG/1.1/DTD/svg11.dtd">
<!-- Generated by graphviz version 2.43.0 (0)
 -->
<!-- Title: itkMetaDataObjectBase.h Pages: 1 -->
<svg width="730pt" height="252pt"
 viewBox="0.00 0.00 729.96 252.00" xmlns="http://www.w3.org/2000/svg" xmlns:xlink="http://www.w3.org/1999/xlink">
<g id="graph0" class="graph" transform="scale(1 1) rotate(0) translate(4 248)">
<title>itkMetaDataObjectBase.h</title>
<polygon fill="white" stroke="transparent" points="-4,4 -4,-248 725.96,-248 725.96,4 -4,4"/>
<!-- Node1 -->
<g id="node1" class="node">
<title>Node1</title>
<g id="a_node1"><a xlink:title=" ">
<polygon fill="#bfbfbf" stroke="black" points="288.96,-224.5 288.96,-243.5 430.96,-243.5 430.96,-224.5 288.96,-224.5"/>
<text text-anchor="middle" x="359.96" y="-231.5" font-family="Helvetica,sans-Serif" font-size="10.00">itkMetaDataObjectBase.h</text>
</a>
</g>
</g>
<!-- Node2 -->
<g id="node2" class="node">
<title>Node2</title>
<g id="a_node2"><a xlink:href="itkLightObject_8h.html" target="_top" xlink:title=" ">
<polygon fill="white" stroke="black" points="312.96,-168.5 312.96,-187.5 406.96,-187.5 406.96,-168.5 312.96,-168.5"/>
<text text-anchor="middle" x="359.96" y="-175.5" font-family="Helvetica,sans-Serif" font-size="10.00">itkLightObject.h</text>
</a>
</g>
</g>
<!-- Node1&#45;&gt;Node2 -->
<g id="edge1" class="edge">
<title>Node1&#45;&gt;Node2</title>
<path fill="none" stroke="midnightblue" d="M359.96,-224.08C359.96,-217.01 359.96,-206.86 359.96,-197.99"/>
<polygon fill="midnightblue" stroke="midnightblue" points="363.46,-197.75 359.96,-187.75 356.46,-197.75 363.46,-197.75"/>
</g>
<!-- Node5 -->
<g id="node5" class="node">
<title>Node5</title>
<g id="a_node5"><a xlink:title=" ">
<polygon fill="white" stroke="#bfbfbf" points="14.96,-56.5 14.96,-75.5 74.96,-75.5 74.96,-56.5 14.96,-56.5"/>
<text text-anchor="middle" x="44.96" y="-63.5" font-family="Helvetica,sans-Serif" font-size="10.00">iostream</text>
</a>
</g>
</g>
<!-- Node1&#45;&gt;Node5 -->
<g id="edge23" class="edge">
<title>Node1&#45;&gt;Node5</title>
<path fill="none" stroke="midnightblue" d="M288.64,-231.06C216.58,-224.93 107.99,-203.47 50.96,-132 40.7,-119.14 40.15,-99.96 41.59,-85.76"/>
<polygon fill="midnightblue" stroke="midnightblue" points="45.08,-86.06 43.03,-75.66 38.15,-85.07 45.08,-86.06"/>
</g>
<!-- Node16 -->
<g id="node16" class="node">
<title>Node16</title>
<g id="a_node16"><a xlink:title=" ">
<polygon fill="white" stroke="#bfbfbf" points="623.46,-112.5 623.46,-131.5 680.46,-131.5 680.46,-112.5 623.46,-112.5"/>
<text text-anchor="middle" x="651.96" y="-119.5" font-family="Helvetica,sans-Serif" font-size="10.00">typeinfo</text>
</a>
</g>
</g>
<!-- Node1&#45;&gt;Node16 -->
<g id="edge22" class="edge">
<title>Node1&#45;&gt;Node16</title>
<path fill="none" stroke="midnightblue" d="M382.87,-224.37C434.47,-204.93 559.92,-157.67 619.5,-135.23"/>
<polygon fill="midnightblue" stroke="midnightblue" points="621.03,-138.39 629.15,-131.59 618.56,-131.84 621.03,-138.39"/>
</g>
<!-- Node3 -->
<g id="node3" class="node">
<title>Node3</title>
<g id="a_node3"><a xlink:href="itkMacro_8h.html" target="_top" xlink:title=" ">
<polygon fill="white" stroke="black" points="471.96,-0.5 471.96,-19.5 539.96,-19.5 539.96,-0.5 471.96,-0.5"/>
<text text-anchor="middle" x="505.96" y="-7.5" font-family="Helvetica,sans-Serif" font-size="10.00">itkMacro.h</text>
</a>
</g>
</g>
<!-- Node2&#45;&gt;Node3 -->
<g id="edge2" class="edge">
<title>Node2&#45;&gt;Node3</title>
<path fill="none" stroke="midnightblue" d="M407.35,-171.14C460.38,-161.65 543.14,-137.32 575.96,-76 587.7,-54.06 561.62,-35.5 538.03,-23.9"/>
<polygon fill="midnightblue" stroke="midnightblue" points="539.4,-20.68 528.86,-19.66 536.46,-27.04 539.4,-20.68"/>
</g>
<!-- Node4 -->
<g id="node4" class="node">
<title>Node4</title>
<g id="a_node4"><a xlink:href="itkSmartPointer_8h.html" target="_top" xlink:title=" ">
<polygon fill="white" stroke="black" points="186.46,-112.5 186.46,-131.5 287.46,-131.5 287.46,-112.5 186.46,-112.5"/>
<text text-anchor="middle" x="236.96" y="-119.5" font-family="Helvetica,sans-Serif" font-size="10.00">itkSmartPointer.h</text>
</a>
</g>
</g>
<!-- Node2&#45;&gt;Node4 -->
<g id="edge3" class="edge">
<title>Node2&#45;&gt;Node4</title>
<path fill="none" stroke="midnightblue" d="M340.47,-168.44C320.32,-159.6 288.64,-145.69 265.63,-135.59"/>
<polygon fill="midnightblue" stroke="midnightblue" points="266.92,-132.33 256.36,-131.52 264.11,-138.74 266.92,-132.33"/>
</g>
<!-- Node2&#45;&gt;Node5 -->
<g id="edge20" class="edge">
<title>Node2&#45;&gt;Node5</title>
<path fill="none" stroke="midnightblue" d="M312.8,-168.55C275.3,-161.08 221.86,-148.77 176.96,-132 158.71,-125.18 155.4,-120.69 137.96,-112 115.81,-100.96 90.53,-88.76 71.92,-79.84"/>
<polygon fill="midnightblue" stroke="midnightblue" points="73.38,-76.66 62.85,-75.5 70.36,-82.98 73.38,-76.66"/>
</g>
<!-- Node9 -->
<g id="node9" class="node">
<title>Node9</title>
<g id="a_node9"><a xlink:href="itkTimeStamp_8h.html" target="_top" xlink:title=" ">
<polygon fill="white" stroke="black" points="388.46,-112.5 388.46,-131.5 483.46,-131.5 483.46,-112.5 388.46,-112.5"/>
<text text-anchor="middle" x="435.96" y="-119.5" font-family="Helvetica,sans-Serif" font-size="10.00">itkTimeStamp.h</text>
</a>
</g>
</g>
<!-- Node2&#45;&gt;Node9 -->
<g id="edge8" class="edge">
<title>Node2&#45;&gt;Node9</title>
<path fill="none" stroke="midnightblue" d="M372.17,-168.32C383.74,-160.11 401.34,-147.6 415.12,-137.81"/>
<polygon fill="midnightblue" stroke="midnightblue" points="417.4,-140.48 423.53,-131.83 413.35,-134.77 417.4,-140.48"/>
</g>
<!-- Node13 -->
<g id="node13" class="node">
<title>Node13</title>
<g id="a_node13"><a xlink:title=" ">
<polygon fill="white" stroke="#bfbfbf" points="346.96,-56.5 346.96,-75.5 396.96,-75.5 396.96,-56.5 346.96,-56.5"/>
<text text-anchor="middle" x="371.96" y="-63.5" font-family="Helvetica,sans-Serif" font-size="10.00">atomic</text>
</a>
</g>
</g>
<!-- Node2&#45;&gt;Node13 -->
<g id="edge19" class="edge">
<title>Node2&#45;&gt;Node13</title>
<path fill="none" stroke="midnightblue" d="M360.9,-168.37C362.84,-150.62 367.31,-109.67 369.93,-85.6"/>
<polygon fill="midnightblue" stroke="midnightblue" points="373.42,-85.91 371.02,-75.59 366.46,-85.15 373.42,-85.91"/>
</g>
<!-- Node15 -->
<g id="node15" class="node">
<title>Node15</title>
<g id="a_node15"><a xlink:href="itkIndent_8h.html" target="_top" xlink:title=" ">
<polygon fill="white" stroke="black" points="60.46,-112.5 60.46,-131.5 129.46,-131.5 129.46,-112.5 60.46,-112.5"/>
<text text-anchor="middle" x="94.96" y="-119.5" font-family="Helvetica,sans-Serif" font-size="10.00">itkIndent.h</text>
</a>
</g>
</g>
<!-- Node2&#45;&gt;Node15 -->
<g id="edge16" class="edge">
<title>Node2&#45;&gt;Node15</title>
<path fill="none" stroke="midnightblue" d="M317.97,-168.44C269.23,-158.51 189.18,-142.2 139.41,-132.06"/>
<polygon fill="midnightblue" stroke="midnightblue" points="140.07,-128.62 129.58,-130.05 138.68,-135.48 140.07,-128.62"/>
</g>
<!-- Node2&#45;&gt;Node16 -->
<g id="edge21" class="edge">
<title>Node2&#45;&gt;Node16</title>
<path fill="none" stroke="midnightblue" d="M407.3,-168.84C457.45,-160.11 538.89,-145.66 608.96,-132 610.41,-131.72 611.89,-131.43 613.38,-131.13"/>
<polygon fill="midnightblue" stroke="midnightblue" points="614.2,-134.53 623.3,-129.11 612.8,-127.67 614.2,-134.53"/>
</g>
<!-- Node4&#45;&gt;Node5 -->
<g id="edge4" class="edge">
<title>Node4&#45;&gt;Node5</title>
<path fill="none" stroke="midnightblue" d="M206.54,-112.44C173.68,-103.2 121.18,-88.44 84.99,-78.26"/>
<polygon fill="midnightblue" stroke="midnightblue" points="85.82,-74.85 75.24,-75.52 83.92,-81.59 85.82,-74.85"/>
</g>
<!-- Node6 -->
<g id="node6" class="node">
<title>Node6</title>
<g id="a_node6"><a xlink:title=" ">
<polygon fill="white" stroke="#bfbfbf" points="283.46,-56.5 283.46,-75.5 328.46,-75.5 328.46,-56.5 283.46,-56.5"/>
<text text-anchor="middle" x="305.96" y="-63.5" font-family="Helvetica,sans-Serif" font-size="10.00">utility</text>
</a>
</g>
</g>
<!-- Node4&#45;&gt;Node6 -->
<g id="edge5" class="edge">
<title>Node4&#45;&gt;Node6</title>
<path fill="none" stroke="midnightblue" d="M248.05,-112.32C258.45,-104.18 274.22,-91.84 286.68,-82.09"/>
<polygon fill="midnightblue" stroke="midnightblue" points="288.95,-84.75 294.67,-75.83 284.64,-79.24 288.95,-84.75"/>
</g>
<!-- Node7 -->
<g id="node7" class="node">
<title>Node7</title>
<g id="a_node7"><a xlink:title=" ">
<polygon fill="white" stroke="#bfbfbf" points="93.46,-56.5 93.46,-75.5 162.46,-75.5 162.46,-56.5 93.46,-56.5"/>
<text text-anchor="middle" x="127.96" y="-63.5" font-family="Helvetica,sans-Serif" font-size="10.00">type_traits</text>
</a>
</g>
</g>
<!-- Node4&#45;&gt;Node7 -->
<g id="edge6" class="edge">
<title>Node4&#45;&gt;Node7</title>
<path fill="none" stroke="midnightblue" d="M219.45,-112.32C201.89,-103.62 174.63,-90.12 154.43,-80.11"/>
<polygon fill="midnightblue" stroke="midnightblue" points="155.94,-76.96 145.43,-75.65 152.84,-83.23 155.94,-76.96"/>
</g>
<!-- Node8 -->
<g id="node8" class="node">
<title>Node8</title>
<g id="a_node8"><a xlink:title=" ">
<polygon fill="white" stroke="#bfbfbf" points="180.46,-56.5 180.46,-75.5 265.46,-75.5 265.46,-56.5 180.46,-56.5"/>
<text text-anchor="middle" x="222.96" y="-63.5" font-family="Helvetica,sans-Serif" font-size="10.00">itkConfigure.h</text>
</a>
</g>
</g>
<!-- Node4&#45;&gt;Node8 -->
<g id="edge7" class="edge">
<title>Node4&#45;&gt;Node8</title>
<path fill="none" stroke="midnightblue" d="M234.65,-112.08C232.79,-104.93 230.12,-94.64 227.81,-85.69"/>
<polygon fill="midnightblue" stroke="midnightblue" points="231.13,-84.55 225.23,-75.75 224.35,-86.31 231.13,-84.55"/>
</g>
<!-- Node9&#45;&gt;Node3 -->
<g id="edge9" class="edge">
<title>Node9&#45;&gt;Node3</title>
<path fill="none" stroke="midnightblue" d="M434.94,-112.31C433.84,-99.16 433.45,-73.83 443.96,-56 451.9,-42.54 465.61,-31.96 478.12,-24.44"/>
<polygon fill="midnightblue" stroke="midnightblue" points="479.9,-27.46 486.92,-19.52 476.48,-21.35 479.9,-27.46"/>
</g>
<!-- Node10 -->
<g id="node10" class="node">
<title>Node10</title>
<g id="a_node10"><a xlink:href="itkIntTypes_8h.html" target="_top" xlink:title=" ">
<polygon fill="white" stroke="black" points="623.46,-56.5 623.46,-75.5 702.46,-75.5 702.46,-56.5 623.46,-56.5"/>
<text text-anchor="middle" x="662.96" y="-63.5" font-family="Helvetica,sans-Serif" font-size="10.00">itkIntTypes.h</text>
</a>
</g>
</g>
<!-- Node9&#45;&gt;Node10 -->
<g id="edge10" class="edge">
<title>Node9&#45;&gt;Node10</title>
<path fill="none" stroke="midnightblue" d="M471.93,-112.44C511.28,-103.08 574.45,-88.06 617.27,-77.87"/>
<polygon fill="midnightblue" stroke="midnightblue" points="618.24,-81.24 627.16,-75.52 616.62,-74.43 618.24,-81.24"/>
</g>
<!-- Node9&#45;&gt;Node13 -->
<g id="edge14" class="edge">
<title>Node9&#45;&gt;Node13</title>
<path fill="none" stroke="midnightblue" d="M425.68,-112.32C416.12,-104.26 401.68,-92.08 390.18,-82.37"/>
<polygon fill="midnightblue" stroke="midnightblue" points="392.33,-79.61 382.43,-75.83 387.82,-84.96 392.33,-79.61"/>
</g>
<!-- Node14 -->
<g id="node14" class="node">
<title>Node14</title>
<g id="a_node14"><a xlink:href="itkSingletonMacro_8h.html" target="_top" xlink:title=" ">
<polygon fill="white" stroke="black" points="452.96,-56.5 452.96,-75.5 566.96,-75.5 566.96,-56.5 452.96,-56.5"/>
<text text-anchor="middle" x="509.96" y="-63.5" font-family="Helvetica,sans-Serif" font-size="10.00">itkSingletonMacro.h</text>
</a>
</g>
</g>
<!-- Node9&#45;&gt;Node14 -->
<g id="edge15" class="edge">
<title>Node9&#45;&gt;Node14</title>
<path fill="none" stroke="midnightblue" d="M447.85,-112.32C459.11,-104.11 476.25,-91.6 489.67,-81.81"/>
<polygon fill="midnightblue" stroke="midnightblue" points="491.84,-84.56 497.85,-75.83 487.71,-78.9 491.84,-84.56"/>
</g>
<!-- Node10&#45;&gt;Node3 -->
<g id="edge11" class="edge">
<title>Node10&#45;&gt;Node3</title>
<path fill="none" stroke="midnightblue" d="M638.08,-56.44C611.67,-47.36 569.75,-32.94 540.22,-22.78"/>
<polygon fill="midnightblue" stroke="midnightblue" points="541.32,-19.46 530.72,-19.52 539.04,-26.08 541.32,-19.46"/>
</g>
<!-- Node11 -->
<g id="node11" class="node">
<title>Node11</title>
<g id="a_node11"><a xlink:title=" ">
<polygon fill="white" stroke="#bfbfbf" points="603.96,-0.5 603.96,-19.5 653.96,-19.5 653.96,-0.5 603.96,-0.5"/>
<text text-anchor="middle" x="628.96" y="-7.5" font-family="Helvetica,sans-Serif" font-size="10.00">cstdint</text>
</a>
</g>
</g>
<!-- Node10&#45;&gt;Node11 -->
<g id="edge12" class="edge">
<title>Node10&#45;&gt;Node11</title>
<path fill="none" stroke="midnightblue" d="M657.35,-56.08C652.59,-48.53 645.64,-37.49 639.81,-28.23"/>
<polygon fill="midnightblue" stroke="midnightblue" points="642.76,-26.35 634.47,-19.75 636.84,-30.08 642.76,-26.35"/>
</g>
<!-- Node12 -->
<g id="node12" class="node">
<title>Node12</title>
<g id="a_node12"><a xlink:title=" ">
<polygon fill="white" stroke="#bfbfbf" points="671.96,-0.5 671.96,-19.5 721.96,-19.5 721.96,-0.5 671.96,-0.5"/>
<text text-anchor="middle" x="696.96" y="-7.5" font-family="Helvetica,sans-Serif" font-size="10.00">climits</text>
</a>
</g>
</g>
<!-- Node10&#45;&gt;Node12 -->
<g id="edge13" class="edge">
<title>Node10&#45;&gt;Node12</title>
<path fill="none" stroke="midnightblue" d="M668.57,-56.08C673.33,-48.53 680.28,-37.49 686.11,-28.23"/>
<polygon fill="midnightblue" stroke="midnightblue" points="689.08,-30.08 691.45,-19.75 683.16,-26.35 689.08,-30.08"/>
</g>
<!-- Node15&#45;&gt;Node3 -->
<g id="edge17" class="edge">
<title>Node15&#45;&gt;Node3</title>
<path fill="none" stroke="midnightblue" d="M65.33,-112.44C31.57,-101.28 -16.24,-80.29 5.96,-56 36.43,-22.67 345.25,-13.81 461.78,-11.65"/>
<polygon fill="midnightblue" stroke="midnightblue" points="461.85,-15.15 471.79,-11.47 461.73,-8.15 461.85,-15.15"/>
</g>
<!-- Node15&#45;&gt;Node5 -->
<g id="edge18" class="edge">
<title>Node15&#45;&gt;Node5</title>
<path fill="none" stroke="midnightblue" d="M86.7,-112.08C79.5,-104.3 68.85,-92.8 60.11,-83.37"/>
<polygon fill="midnightblue" stroke="midnightblue" points="62.43,-80.71 53.06,-75.75 57.29,-85.47 62.43,-80.71"/>
</g>
</g>
</svg>
