<?xml version="1.0" encoding="UTF-8" standalone="no"?>
<!DOCTYPE svg PUBLIC "-//W3C//DTD SVG 1.1//EN"
 "http://www.w3.org/Graphics/SVG/1.1/DTD/svg11.dtd">
<!-- Generated by graphviz version 2.43.0 (0)
 -->
<!-- Title: itkMaximumRatioDecisionRule.h Pages: 1 -->
<svg width="1712pt" height="677pt"
 viewBox="0.00 0.00 1711.50 677.00" xmlns="http://www.w3.org/2000/svg" xmlns:xlink="http://www.w3.org/1999/xlink">
<g id="graph0" class="graph" transform="scale(1 1) rotate(0) translate(4 673)">
<title>itkMaximumRatioDecisionRule.h</title>
<polygon fill="white" stroke="transparent" points="-4,4 -4,-673 1707.5,-673 1707.5,4 -4,4"/>
<!-- Node1 -->
<g id="node1" class="node">
<title>Node1</title>
<g id="a_node1"><a xlink:title=" ">
<polygon fill="#bfbfbf" stroke="black" points="443.5,-649.5 443.5,-668.5 620.5,-668.5 620.5,-649.5 443.5,-649.5"/>
<text text-anchor="middle" x="532" y="-656.5" font-family="Helvetica,sans-Serif" font-size="10.00">itkMaximumRatioDecisionRule.h</text>
</a>
</g>
</g>
<!-- Node2 -->
<g id="node2" class="node">
<title>Node2</title>
<g id="a_node2"><a xlink:title=" ">
<polygon fill="white" stroke="#bfbfbf" points="603.5,-230 603.5,-249 650.5,-249 650.5,-230 603.5,-230"/>
<text text-anchor="middle" x="627" y="-237" font-family="Helvetica,sans-Serif" font-size="10.00">vector</text>
</a>
</g>
</g>
<!-- Node1&#45;&gt;Node2 -->
<g id="edge1" class="edge">
<title>Node1&#45;&gt;Node2</title>
<path fill="none" stroke="midnightblue" d="M520.46,-649.43C499.2,-632.57 456,-592.8 456,-548 456,-548 456,-548 456,-356 456,-338.53 555.28,-280.63 602.54,-254.05"/>
<polygon fill="midnightblue" stroke="midnightblue" points="604.51,-256.96 611.52,-249.02 601.09,-250.85 604.51,-256.96"/>
</g>
<!-- Node3 -->
<g id="node3" class="node">
<title>Node3</title>
<g id="a_node3"><a xlink:title=" ">
<polygon fill="white" stroke="#bfbfbf" points="484,-537.5 484,-556.5 580,-556.5 580,-537.5 484,-537.5"/>
<text text-anchor="middle" x="532" y="-544.5" font-family="Helvetica,sans-Serif" font-size="10.00">vnl/vnl_matrix.h</text>
</a>
</g>
</g>
<!-- Node1&#45;&gt;Node3 -->
<g id="edge2" class="edge">
<title>Node1&#45;&gt;Node3</title>
<path fill="none" stroke="midnightblue" d="M532,-649.37C532,-631.62 532,-590.67 532,-566.6"/>
<polygon fill="midnightblue" stroke="midnightblue" points="535.5,-566.59 532,-556.59 528.5,-566.59 535.5,-566.59"/>
</g>
<!-- Node4 -->
<g id="node4" class="node">
<title>Node4</title>
<g id="a_node4"><a xlink:href="itkNumericTraits_8h.html" target="_top" xlink:title=" ">
<polygon fill="white" stroke="black" points="233,-347.5 233,-366.5 339,-366.5 339,-347.5 233,-347.5"/>
<text text-anchor="middle" x="286" y="-354.5" font-family="Helvetica,sans-Serif" font-size="10.00">itkNumericTraits.h</text>
</a>
</g>
</g>
<!-- Node1&#45;&gt;Node4 -->
<g id="edge3" class="edge">
<title>Node1&#45;&gt;Node4</title>
<path fill="none" stroke="midnightblue" d="M481.38,-649.43C428.14,-637.17 352,-608.98 352,-548 352,-548 352,-548 352,-479 352,-436.99 320.96,-395.69 301.45,-373.89"/>
<polygon fill="midnightblue" stroke="midnightblue" points="303.99,-371.48 294.63,-366.52 298.86,-376.24 303.99,-371.48"/>
</g>
<!-- Node14 -->
<g id="node14" class="node">
<title>Node14</title>
<g id="a_node14"><a xlink:href="itkDecisionRule_8h.html" target="_top" xlink:title=" ">
<polygon fill="white" stroke="black" points="595,-593.5 595,-612.5 697,-612.5 697,-593.5 595,-593.5"/>
<text text-anchor="middle" x="646" y="-600.5" font-family="Helvetica,sans-Serif" font-size="10.00">itkDecisionRule.h</text>
</a>
</g>
</g>
<!-- Node1&#45;&gt;Node14 -->
<g id="edge16" class="edge">
<title>Node1&#45;&gt;Node14</title>
<path fill="none" stroke="midnightblue" d="M550.06,-649.44C568.57,-640.68 597.58,-626.94 618.86,-616.86"/>
<polygon fill="midnightblue" stroke="midnightblue" points="620.48,-619.96 628.02,-612.52 617.49,-613.63 620.48,-619.96"/>
</g>
<!-- Node48 -->
<g id="node48" class="node">
<title>Node48</title>
<g id="a_node48"><a xlink:title=" ">
<polygon fill="white" stroke="#bfbfbf" points="1269,-537.5 1269,-556.5 1387,-556.5 1387,-537.5 1269,-537.5"/>
<text text-anchor="middle" x="1328" y="-544.5" font-family="Helvetica,sans-Serif" font-size="10.00">ITKStatisticsExport.h</text>
</a>
</g>
</g>
<!-- Node1&#45;&gt;Node48 -->
<g id="edge72" class="edge">
<title>Node1&#45;&gt;Node48</title>
<path fill="none" stroke="midnightblue" d="M593.8,-649.46C739.84,-629.28 1105.5,-578.75 1258.73,-557.57"/>
<polygon fill="midnightblue" stroke="midnightblue" points="1259.53,-561 1268.95,-556.16 1258.57,-554.06 1259.53,-561"/>
</g>
<!-- Node5 -->
<g id="node5" class="node">
<title>Node5</title>
<g id="a_node5"><a xlink:href="itkMacro_8h.html" target="_top" xlink:title=" ">
<polygon fill="white" stroke="black" points="621,-0.5 621,-19.5 689,-19.5 689,-0.5 621,-0.5"/>
<text text-anchor="middle" x="655" y="-7.5" font-family="Helvetica,sans-Serif" font-size="10.00">itkMacro.h</text>
</a>
</g>
</g>
<!-- Node4&#45;&gt;Node5 -->
<g id="edge4" class="edge">
<title>Node4&#45;&gt;Node5</title>
<path fill="none" stroke="midnightblue" d="M240.68,-347.46C160.04,-330.97 0,-291.77 0,-240.5 0,-240.5 0,-240.5 0,-121 0,-58.93 463.42,-23.45 610.66,-13.75"/>
<polygon fill="midnightblue" stroke="midnightblue" points="610.96,-17.23 620.71,-13.09 610.5,-10.25 610.96,-17.23"/>
</g>
<!-- Node6 -->
<g id="node6" class="node">
<title>Node6</title>
<g id="a_node6"><a xlink:title=" ">
<polygon fill="white" stroke="#bfbfbf" points="306,-291.5 306,-310.5 350,-310.5 350,-291.5 306,-291.5"/>
<text text-anchor="middle" x="328" y="-298.5" font-family="Helvetica,sans-Serif" font-size="10.00">limits</text>
</a>
</g>
</g>
<!-- Node4&#45;&gt;Node6 -->
<g id="edge5" class="edge">
<title>Node4&#45;&gt;Node6</title>
<path fill="none" stroke="midnightblue" d="M292.94,-347.08C298.93,-339.38 307.75,-328.03 315.05,-318.65"/>
<polygon fill="midnightblue" stroke="midnightblue" points="317.82,-320.79 321.19,-310.75 312.29,-316.5 317.82,-320.79"/>
</g>
<!-- Node7 -->
<g id="node7" class="node">
<title>Node7</title>
<g id="a_node7"><a xlink:title=" ">
<polygon fill="white" stroke="#bfbfbf" points="368.5,-291.5 368.5,-310.5 427.5,-310.5 427.5,-291.5 368.5,-291.5"/>
<text text-anchor="middle" x="398" y="-298.5" font-family="Helvetica,sans-Serif" font-size="10.00">complex</text>
</a>
</g>
</g>
<!-- Node4&#45;&gt;Node7 -->
<g id="edge6" class="edge">
<title>Node4&#45;&gt;Node7</title>
<path fill="none" stroke="midnightblue" d="M303.99,-347.32C322.04,-338.62 350.05,-325.12 370.8,-315.11"/>
<polygon fill="midnightblue" stroke="midnightblue" points="372.56,-318.15 380.05,-310.65 369.52,-311.84 372.56,-318.15"/>
</g>
<!-- Node8 -->
<g id="node8" class="node">
<title>Node8</title>
<g id="a_node8"><a xlink:href="itkFixedArray_8h.html" target="_top" xlink:title=" ">
<polygon fill="white" stroke="black" points="199.5,-291.5 199.5,-310.5 288.5,-310.5 288.5,-291.5 199.5,-291.5"/>
<text text-anchor="middle" x="244" y="-298.5" font-family="Helvetica,sans-Serif" font-size="10.00">itkFixedArray.h</text>
</a>
</g>
</g>
<!-- Node4&#45;&gt;Node8 -->
<g id="edge7" class="edge">
<title>Node4&#45;&gt;Node8</title>
<path fill="none" stroke="midnightblue" d="M279.06,-347.08C273.07,-339.38 264.25,-328.03 256.95,-318.65"/>
<polygon fill="midnightblue" stroke="midnightblue" points="259.71,-316.5 250.81,-310.75 254.18,-320.79 259.71,-316.5"/>
</g>
<!-- Node8&#45;&gt;Node5 -->
<g id="edge8" class="edge">
<title>Node8&#45;&gt;Node5</title>
<path fill="none" stroke="midnightblue" d="M288.62,-291.89C354.55,-279.82 470.63,-258.2 474,-255 499.25,-231.03 493,-213.82 493,-179 493,-179 493,-179 493,-121 493,-63.87 562.81,-34.35 610.77,-20.8"/>
<polygon fill="midnightblue" stroke="midnightblue" points="611.89,-24.12 620.64,-18.15 610.08,-17.36 611.89,-24.12"/>
</g>
<!-- Node9 -->
<g id="node9" class="node">
<title>Node9</title>
<g id="a_node9"><a xlink:href="itkMakeFilled_8h.html" target="_top" xlink:title=" ">
<polygon fill="white" stroke="black" points="313.5,-230 313.5,-249 404.5,-249 404.5,-230 313.5,-230"/>
<text text-anchor="middle" x="359" y="-237" font-family="Helvetica,sans-Serif" font-size="10.00">itkMakeFilled.h</text>
</a>
</g>
</g>
<!-- Node8&#45;&gt;Node9 -->
<g id="edge9" class="edge">
<title>Node8&#45;&gt;Node9</title>
<path fill="none" stroke="midnightblue" d="M260.48,-291.48C279.61,-281.58 311.37,-265.14 333.65,-253.62"/>
<polygon fill="midnightblue" stroke="midnightblue" points="335.28,-256.71 342.55,-249.01 332.06,-250.5 335.28,-256.71"/>
</g>
<!-- Node10 -->
<g id="node10" class="node">
<title>Node10</title>
<g id="a_node10"><a xlink:title=" ">
<polygon fill="white" stroke="#bfbfbf" points="521,-230 521,-249 585,-249 585,-230 521,-230"/>
<text text-anchor="middle" x="553" y="-237" font-family="Helvetica,sans-Serif" font-size="10.00">algorithm</text>
</a>
</g>
</g>
<!-- Node8&#45;&gt;Node10 -->
<g id="edge10" class="edge">
<title>Node8&#45;&gt;Node10</title>
<path fill="none" stroke="midnightblue" d="M288.66,-292.4C363.01,-279.74 504.35,-255.64 507,-255 510.63,-254.12 514.4,-253.11 518.13,-252.03"/>
<polygon fill="midnightblue" stroke="midnightblue" points="519.3,-255.34 527.87,-249.1 517.28,-248.64 519.3,-255.34"/>
</g>
<!-- Node11 -->
<g id="node11" class="node">
<title>Node11</title>
<g id="a_node11"><a xlink:title=" ">
<polygon fill="white" stroke="#bfbfbf" points="423,-230 423,-249 465,-249 465,-230 423,-230"/>
<text text-anchor="middle" x="444" y="-237" font-family="Helvetica,sans-Serif" font-size="10.00">array</text>
</a>
</g>
</g>
<!-- Node8&#45;&gt;Node11 -->
<g id="edge11" class="edge">
<title>Node8&#45;&gt;Node11</title>
<path fill="none" stroke="midnightblue" d="M283.88,-291.49C318.52,-283.6 369.77,-270.72 413,-255 414.61,-254.41 416.26,-253.77 417.9,-253.1"/>
<polygon fill="midnightblue" stroke="midnightblue" points="419.43,-256.26 427.17,-249.03 416.61,-249.85 419.43,-256.26"/>
</g>
<!-- Node12 -->
<g id="node12" class="node">
<title>Node12</title>
<g id="a_node12"><a xlink:title=" ">
<polygon fill="white" stroke="#bfbfbf" points="194.5,-230 194.5,-249 295.5,-249 295.5,-230 194.5,-230"/>
<text text-anchor="middle" x="245" y="-237" font-family="Helvetica,sans-Serif" font-size="10.00">itkFixedArray.hxx</text>
</a>
</g>
</g>
<!-- Node8&#45;&gt;Node12 -->
<g id="edge12" class="edge">
<title>Node8&#45;&gt;Node12</title>
<path fill="none" stroke="midnightblue" d="M244.14,-291.48C244.28,-283.08 244.5,-269.98 244.69,-259.16"/>
<polygon fill="midnightblue" stroke="midnightblue" points="248.19,-259.07 244.86,-249.01 241.19,-258.95 248.19,-259.07"/>
</g>
<!-- Node13 -->
<g id="node13" class="node">
<title>Node13</title>
<g id="a_node13"><a xlink:href="itkNumericTraitsFixedArrayPixel_8h.html" target="_top" xlink:title=" ">
<polygon fill="white" stroke="black" points="27.5,-224.5 27.5,-254.5 176.5,-254.5 176.5,-224.5 27.5,-224.5"/>
<text text-anchor="start" x="35.5" y="-242.5" font-family="Helvetica,sans-Serif" font-size="10.00">itkNumericTraitsFixedArray</text>
<text text-anchor="middle" x="102" y="-231.5" font-family="Helvetica,sans-Serif" font-size="10.00">Pixel.h</text>
</a>
</g>
</g>
<!-- Node8&#45;&gt;Node13 -->
<g id="edge13" class="edge">
<title>Node8&#45;&gt;Node13</title>
<path fill="none" stroke="midnightblue" d="M218.75,-291.48C196.49,-282.93 163.99,-269.5 138.87,-258.57"/>
<polygon fill="midnightblue" stroke="midnightblue" points="140.2,-255.34 129.64,-254.52 137.39,-261.75 140.2,-255.34"/>
</g>
<!-- Node13&#45;&gt;Node4 -->
<g id="edge14" class="edge">
<title>Node13&#45;&gt;Node4</title>
<path fill="none" stroke="midnightblue" d="M117.37,-254.7C134.3,-269.87 162.75,-294.03 190,-311 210.59,-323.82 235.41,-335.36 254.65,-343.55"/>
<polygon fill="midnightblue" stroke="midnightblue" points="253.31,-346.78 263.88,-347.4 256,-340.32 253.31,-346.78"/>
</g>
<!-- Node13&#45;&gt;Node8 -->
<g id="edge15" class="edge">
<title>Node13&#45;&gt;Node8</title>
<path fill="none" stroke="midnightblue" d="M141.3,-254.52C166.32,-264.47 197.84,-277.7 219.41,-287.33"/>
<polygon fill="midnightblue" stroke="midnightblue" points="218,-290.54 228.56,-291.48 220.89,-284.16 218,-290.54"/>
</g>
<!-- Node14&#45;&gt;Node2 -->
<g id="edge17" class="edge">
<title>Node14&#45;&gt;Node2</title>
<path fill="none" stroke="midnightblue" d="M645.55,-593.42C643.11,-547.02 631.48,-325.76 627.99,-259.37"/>
<polygon fill="midnightblue" stroke="midnightblue" points="631.48,-258.96 627.46,-249.16 624.48,-259.33 631.48,-258.96"/>
</g>
<!-- Node14&#45;&gt;Node3 -->
<g id="edge18" class="edge">
<title>Node14&#45;&gt;Node3</title>
<path fill="none" stroke="midnightblue" d="M627.94,-593.44C609.43,-584.68 580.42,-570.94 559.14,-560.86"/>
<polygon fill="midnightblue" stroke="midnightblue" points="560.51,-557.63 549.98,-556.52 557.52,-563.96 560.51,-557.63"/>
</g>
<!-- Node15 -->
<g id="node15" class="node">
<title>Node15</title>
<g id="a_node15"><a xlink:href="itkObject_8h.html" target="_top" xlink:title=" ">
<polygon fill="white" stroke="black" points="758,-347.5 758,-366.5 828,-366.5 828,-347.5 758,-347.5"/>
<text text-anchor="middle" x="793" y="-354.5" font-family="Helvetica,sans-Serif" font-size="10.00">itkObject.h</text>
</a>
</g>
</g>
<!-- Node14&#45;&gt;Node15 -->
<g id="edge19" class="edge">
<title>Node14&#45;&gt;Node15</title>
<path fill="none" stroke="midnightblue" d="M646.66,-593.38C649.34,-563.59 661.83,-463.54 712,-403 723.99,-388.54 741.89,-377.91 757.82,-370.62"/>
<polygon fill="midnightblue" stroke="midnightblue" points="759.6,-373.67 767.41,-366.51 756.84,-367.23 759.6,-373.67"/>
</g>
<!-- Node37 -->
<g id="node37" class="node">
<title>Node37</title>
<g id="a_node37"><a xlink:href="itkObjectFactory_8h.html" target="_top" xlink:title=" ">
<polygon fill="white" stroke="black" points="734,-537.5 734,-556.5 838,-556.5 838,-537.5 734,-537.5"/>
<text text-anchor="middle" x="786" y="-544.5" font-family="Helvetica,sans-Serif" font-size="10.00">itkObjectFactory.h</text>
</a>
</g>
</g>
<!-- Node14&#45;&gt;Node37 -->
<g id="edge55" class="edge">
<title>Node14&#45;&gt;Node37</title>
<path fill="none" stroke="midnightblue" d="M668.18,-593.44C691.43,-584.48 728.15,-570.31 754.42,-560.18"/>
<polygon fill="midnightblue" stroke="midnightblue" points="755.85,-563.38 763.92,-556.52 753.33,-556.85 755.85,-563.38"/>
</g>
<!-- Node43 -->
<g id="node43" class="node">
<title>Node43</title>
<g id="a_node43"><a xlink:href="itkArray_8h.html" target="_top" xlink:title=" ">
<polygon fill="white" stroke="black" points="1187.5,-537.5 1187.5,-556.5 1250.5,-556.5 1250.5,-537.5 1187.5,-537.5"/>
<text text-anchor="middle" x="1219" y="-544.5" font-family="Helvetica,sans-Serif" font-size="10.00">itkArray.h</text>
</a>
</g>
</g>
<!-- Node14&#45;&gt;Node43 -->
<g id="edge65" class="edge">
<title>Node14&#45;&gt;Node43</title>
<path fill="none" stroke="midnightblue" d="M697.1,-597.18C809.14,-586.63 1074.59,-561.61 1177.36,-551.92"/>
<polygon fill="midnightblue" stroke="midnightblue" points="1177.73,-555.41 1187.36,-550.98 1177.07,-548.44 1177.73,-555.41"/>
</g>
<!-- Node14&#45;&gt;Node48 -->
<g id="edge71" class="edge">
<title>Node14&#45;&gt;Node48</title>
<path fill="none" stroke="midnightblue" d="M697.03,-599.27C800.75,-593.51 1043.85,-578.88 1258.49,-557.1"/>
<polygon fill="midnightblue" stroke="midnightblue" points="1259.09,-560.56 1268.69,-556.06 1258.38,-553.59 1259.09,-560.56"/>
</g>
<!-- Node16 -->
<g id="node16" class="node">
<title>Node16</title>
<g id="a_node16"><a xlink:href="itkLightObject_8h.html" target="_top" xlink:title=" ">
<polygon fill="white" stroke="black" points="753,-168.5 753,-187.5 847,-187.5 847,-168.5 753,-168.5"/>
<text text-anchor="middle" x="800" y="-175.5" font-family="Helvetica,sans-Serif" font-size="10.00">itkLightObject.h</text>
</a>
</g>
</g>
<!-- Node15&#45;&gt;Node16 -->
<g id="edge20" class="edge">
<title>Node15&#45;&gt;Node16</title>
<path fill="none" stroke="midnightblue" d="M793.26,-347.34C793.27,-334.21 791.73,-308.92 781,-291 767.85,-269.02 747.1,-278.08 736,-255 730.03,-242.58 729.65,-236.23 736,-224 743.15,-210.23 756.67,-199.78 769.45,-192.44"/>
<polygon fill="midnightblue" stroke="midnightblue" points="771.32,-195.41 778.52,-187.64 768.04,-189.23 771.32,-195.41"/>
</g>
<!-- Node27 -->
<g id="node27" class="node">
<title>Node27</title>
<g id="a_node27"><a xlink:href="itkSingletonMacro_8h.html" target="_top" xlink:title=" ">
<polygon fill="white" stroke="black" points="1043,-56.5 1043,-75.5 1157,-75.5 1157,-56.5 1043,-56.5"/>
<text text-anchor="middle" x="1100" y="-63.5" font-family="Helvetica,sans-Serif" font-size="10.00">itkSingletonMacro.h</text>
</a>
</g>
</g>
<!-- Node15&#45;&gt;Node27 -->
<g id="edge53" class="edge">
<title>Node15&#45;&gt;Node27</title>
<path fill="none" stroke="midnightblue" d="M828.02,-350.82C910.3,-337.67 1109,-299.79 1109,-240.5 1109,-240.5 1109,-240.5 1109,-177 1109,-144.84 1105.13,-107.57 1102.47,-85.71"/>
<polygon fill="midnightblue" stroke="midnightblue" points="1105.91,-85.02 1101.18,-75.54 1098.96,-85.9 1105.91,-85.02"/>
</g>
<!-- Node30 -->
<g id="node30" class="node">
<title>Node30</title>
<g id="a_node30"><a xlink:href="itkEventObject_8h.html" target="_top" xlink:title=" ">
<polygon fill="white" stroke="black" points="521,-168.5 521,-187.5 619,-187.5 619,-168.5 521,-168.5"/>
<text text-anchor="middle" x="570" y="-175.5" font-family="Helvetica,sans-Serif" font-size="10.00">itkEventObject.h</text>
</a>
</g>
</g>
<!-- Node15&#45;&gt;Node30 -->
<g id="edge41" class="edge">
<title>Node15&#45;&gt;Node30</title>
<path fill="none" stroke="midnightblue" d="M761.84,-347.45C741.47,-340.5 715.49,-328.86 698,-311 668.35,-280.72 688.26,-254.65 659,-224 644.88,-209.2 624.84,-198.48 607.35,-191.22"/>
<polygon fill="midnightblue" stroke="midnightblue" points="608.54,-187.93 597.95,-187.54 605.99,-194.45 608.54,-187.93"/>
</g>
<!-- Node31 -->
<g id="node31" class="node">
<title>Node31</title>
<g id="a_node31"><a xlink:href="itkMetaDataDictionary_8h.html" target="_top" xlink:title=" ">
<polygon fill="white" stroke="black" points="829.5,-291.5 829.5,-310.5 964.5,-310.5 964.5,-291.5 829.5,-291.5"/>
<text text-anchor="middle" x="897" y="-298.5" font-family="Helvetica,sans-Serif" font-size="10.00">itkMetaDataDictionary.h</text>
</a>
</g>
</g>
<!-- Node15&#45;&gt;Node31 -->
<g id="edge43" class="edge">
<title>Node15&#45;&gt;Node31</title>
<path fill="none" stroke="midnightblue" d="M809.71,-347.32C826.31,-338.7 852,-325.36 871.22,-315.39"/>
<polygon fill="midnightblue" stroke="midnightblue" points="873.07,-318.37 880.33,-310.65 869.84,-312.16 873.07,-318.37"/>
</g>
<!-- Node36 -->
<g id="node36" class="node">
<title>Node36</title>
<g id="a_node36"><a xlink:title=" ">
<polygon fill="white" stroke="#bfbfbf" points="707.5,-291.5 707.5,-310.5 772.5,-310.5 772.5,-291.5 707.5,-291.5"/>
<text text-anchor="middle" x="740" y="-298.5" font-family="Helvetica,sans-Serif" font-size="10.00">functional</text>
</a>
</g>
</g>
<!-- Node15&#45;&gt;Node36 -->
<g id="edge54" class="edge">
<title>Node15&#45;&gt;Node36</title>
<path fill="none" stroke="midnightblue" d="M784.25,-347.08C776.53,-339.22 765.1,-327.57 755.78,-318.08"/>
<polygon fill="midnightblue" stroke="midnightblue" points="758.09,-315.44 748.59,-310.75 753.1,-320.34 758.09,-315.44"/>
</g>
<!-- Node16&#45;&gt;Node5 -->
<g id="edge21" class="edge">
<title>Node16&#45;&gt;Node5</title>
<path fill="none" stroke="midnightblue" d="M783.26,-168.29C756.04,-153.24 702.39,-119.74 674,-76 664.9,-61.98 660.05,-43.48 657.53,-29.8"/>
<polygon fill="midnightblue" stroke="midnightblue" points="660.94,-28.99 655.92,-19.65 654.03,-30.08 660.94,-28.99"/>
</g>
<!-- Node17 -->
<g id="node17" class="node">
<title>Node17</title>
<g id="a_node17"><a xlink:href="itkSmartPointer_8h.html" target="_top" xlink:title=" ">
<polygon fill="white" stroke="black" points="749.5,-112.5 749.5,-131.5 850.5,-131.5 850.5,-112.5 749.5,-112.5"/>
<text text-anchor="middle" x="800" y="-119.5" font-family="Helvetica,sans-Serif" font-size="10.00">itkSmartPointer.h</text>
</a>
</g>
</g>
<!-- Node16&#45;&gt;Node17 -->
<g id="edge22" class="edge">
<title>Node16&#45;&gt;Node17</title>
<path fill="none" stroke="midnightblue" d="M800,-168.08C800,-161.01 800,-150.86 800,-141.99"/>
<polygon fill="midnightblue" stroke="midnightblue" points="803.5,-141.75 800,-131.75 796.5,-141.75 803.5,-141.75"/>
</g>
<!-- Node18 -->
<g id="node18" class="node">
<title>Node18</title>
<g id="a_node18"><a xlink:title=" ">
<polygon fill="white" stroke="#bfbfbf" points="567,-56.5 567,-75.5 627,-75.5 627,-56.5 567,-56.5"/>
<text text-anchor="middle" x="597" y="-63.5" font-family="Helvetica,sans-Serif" font-size="10.00">iostream</text>
</a>
</g>
</g>
<!-- Node16&#45;&gt;Node18 -->
<g id="edge39" class="edge">
<title>Node16&#45;&gt;Node18</title>
<path fill="none" stroke="midnightblue" d="M778.52,-168.36C757.98,-159.86 726.33,-146.14 700,-132 670.6,-116.21 638.3,-95.18 617.85,-81.38"/>
<polygon fill="midnightblue" stroke="midnightblue" points="619.58,-78.32 609.35,-75.59 615.64,-84.11 619.58,-78.32"/>
</g>
<!-- Node22 -->
<g id="node22" class="node">
<title>Node22</title>
<g id="a_node22"><a xlink:href="itkTimeStamp_8h.html" target="_top" xlink:title=" ">
<polygon fill="white" stroke="black" points="910.5,-112.5 910.5,-131.5 1005.5,-131.5 1005.5,-112.5 910.5,-112.5"/>
<text text-anchor="middle" x="958" y="-119.5" font-family="Helvetica,sans-Serif" font-size="10.00">itkTimeStamp.h</text>
</a>
</g>
</g>
<!-- Node16&#45;&gt;Node22 -->
<g id="edge27" class="edge">
<title>Node16&#45;&gt;Node22</title>
<path fill="none" stroke="midnightblue" d="M825.04,-168.44C851.62,-159.36 893.81,-144.94 923.52,-134.78"/>
<polygon fill="midnightblue" stroke="midnightblue" points="924.75,-138.06 933.08,-131.52 922.49,-131.44 924.75,-138.06"/>
</g>
<!-- Node26 -->
<g id="node26" class="node">
<title>Node26</title>
<g id="a_node26"><a xlink:title=" ">
<polygon fill="white" stroke="#bfbfbf" points="937,-56.5 937,-75.5 987,-75.5 987,-56.5 937,-56.5"/>
<text text-anchor="middle" x="962" y="-63.5" font-family="Helvetica,sans-Serif" font-size="10.00">atomic</text>
</a>
</g>
</g>
<!-- Node16&#45;&gt;Node26 -->
<g id="edge38" class="edge">
<title>Node16&#45;&gt;Node26</title>
<path fill="none" stroke="midnightblue" d="M812.71,-168.37C840.51,-149.49 906.94,-104.38 941.03,-81.24"/>
<polygon fill="midnightblue" stroke="midnightblue" points="943.04,-84.1 949.35,-75.59 939.11,-78.31 943.04,-84.1"/>
</g>
<!-- Node28 -->
<g id="node28" class="node">
<title>Node28</title>
<g id="a_node28"><a xlink:href="itkIndent_8h.html" target="_top" xlink:title=" ">
<polygon fill="white" stroke="black" points="536.5,-112.5 536.5,-131.5 605.5,-131.5 605.5,-112.5 536.5,-112.5"/>
<text text-anchor="middle" x="571" y="-119.5" font-family="Helvetica,sans-Serif" font-size="10.00">itkIndent.h</text>
</a>
</g>
</g>
<!-- Node16&#45;&gt;Node28 -->
<g id="edge35" class="edge">
<title>Node16&#45;&gt;Node28</title>
<path fill="none" stroke="midnightblue" d="M763.71,-168.44C723.55,-158.97 658.79,-143.7 615.57,-133.51"/>
<polygon fill="midnightblue" stroke="midnightblue" points="616.15,-130.05 605.62,-131.16 614.55,-136.86 616.15,-130.05"/>
</g>
<!-- Node29 -->
<g id="node29" class="node">
<title>Node29</title>
<g id="a_node29"><a xlink:title=" ">
<polygon fill="white" stroke="#bfbfbf" points="1023.5,-112.5 1023.5,-131.5 1080.5,-131.5 1080.5,-112.5 1023.5,-112.5"/>
<text text-anchor="middle" x="1052" y="-119.5" font-family="Helvetica,sans-Serif" font-size="10.00">typeinfo</text>
</a>
</g>
</g>
<!-- Node16&#45;&gt;Node29 -->
<g id="edge40" class="edge">
<title>Node16&#45;&gt;Node29</title>
<path fill="none" stroke="midnightblue" d="M842.3,-168.43C883.4,-160.04 947.85,-146.68 1013.3,-132.11"/>
<polygon fill="midnightblue" stroke="midnightblue" points="1014.39,-135.45 1023.38,-129.86 1012.86,-128.62 1014.39,-135.45"/>
</g>
<!-- Node17&#45;&gt;Node18 -->
<g id="edge23" class="edge">
<title>Node17&#45;&gt;Node18</title>
<path fill="none" stroke="midnightblue" d="M767.83,-112.44C732.33,-103 675.13,-87.78 636.82,-77.59"/>
<polygon fill="midnightblue" stroke="midnightblue" points="637.59,-74.18 627.03,-74.99 635.79,-80.94 637.59,-74.18"/>
</g>
<!-- Node19 -->
<g id="node19" class="node">
<title>Node19</title>
<g id="a_node19"><a xlink:title=" ">
<polygon fill="white" stroke="#bfbfbf" points="873.5,-56.5 873.5,-75.5 918.5,-75.5 918.5,-56.5 873.5,-56.5"/>
<text text-anchor="middle" x="896" y="-63.5" font-family="Helvetica,sans-Serif" font-size="10.00">utility</text>
</a>
</g>
</g>
<!-- Node17&#45;&gt;Node19 -->
<g id="edge24" class="edge">
<title>Node17&#45;&gt;Node19</title>
<path fill="none" stroke="midnightblue" d="M815.42,-112.32C830.54,-103.82 853.82,-90.73 871.47,-80.8"/>
<polygon fill="midnightblue" stroke="midnightblue" points="873.61,-83.61 880.61,-75.65 870.18,-77.51 873.61,-83.61"/>
</g>
<!-- Node20 -->
<g id="node20" class="node">
<title>Node20</title>
<g id="a_node20"><a xlink:title=" ">
<polygon fill="white" stroke="#bfbfbf" points="683.5,-56.5 683.5,-75.5 752.5,-75.5 752.5,-56.5 683.5,-56.5"/>
<text text-anchor="middle" x="718" y="-63.5" font-family="Helvetica,sans-Serif" font-size="10.00">type_traits</text>
</a>
</g>
</g>
<!-- Node17&#45;&gt;Node20 -->
<g id="edge25" class="edge">
<title>Node17&#45;&gt;Node20</title>
<path fill="none" stroke="midnightblue" d="M786.83,-112.32C774.15,-103.98 754.77,-91.21 739.79,-81.35"/>
<polygon fill="midnightblue" stroke="midnightblue" points="741.42,-78.23 731.14,-75.65 737.57,-84.08 741.42,-78.23"/>
</g>
<!-- Node21 -->
<g id="node21" class="node">
<title>Node21</title>
<g id="a_node21"><a xlink:title=" ">
<polygon fill="white" stroke="#bfbfbf" points="770.5,-56.5 770.5,-75.5 855.5,-75.5 855.5,-56.5 770.5,-56.5"/>
<text text-anchor="middle" x="813" y="-63.5" font-family="Helvetica,sans-Serif" font-size="10.00">itkConfigure.h</text>
</a>
</g>
</g>
<!-- Node17&#45;&gt;Node21 -->
<g id="edge26" class="edge">
<title>Node17&#45;&gt;Node21</title>
<path fill="none" stroke="midnightblue" d="M802.15,-112.08C803.87,-104.93 806.35,-94.64 808.5,-85.69"/>
<polygon fill="midnightblue" stroke="midnightblue" points="811.96,-86.29 810.89,-75.75 805.15,-84.65 811.96,-86.29"/>
</g>
<!-- Node22&#45;&gt;Node5 -->
<g id="edge28" class="edge">
<title>Node22&#45;&gt;Node5</title>
<path fill="none" stroke="midnightblue" d="M969.62,-112.33C985.86,-99.2 1011.68,-73.89 996,-56 976.71,-33.99 787.01,-19.3 699.19,-13.63"/>
<polygon fill="midnightblue" stroke="midnightblue" points="699.21,-10.12 689.01,-12.98 698.77,-17.11 699.21,-10.12"/>
</g>
<!-- Node23 -->
<g id="node23" class="node">
<title>Node23</title>
<g id="a_node23"><a xlink:href="itkIntTypes_8h.html" target="_top" xlink:title=" ">
<polygon fill="white" stroke="black" points="1213.5,-56.5 1213.5,-75.5 1292.5,-75.5 1292.5,-56.5 1213.5,-56.5"/>
<text text-anchor="middle" x="1253" y="-63.5" font-family="Helvetica,sans-Serif" font-size="10.00">itkIntTypes.h</text>
</a>
</g>
</g>
<!-- Node22&#45;&gt;Node23 -->
<g id="edge29" class="edge">
<title>Node22&#45;&gt;Node23</title>
<path fill="none" stroke="midnightblue" d="M1004.74,-112.44C1058.89,-102.53 1147.72,-86.27 1203.15,-76.12"/>
<polygon fill="midnightblue" stroke="midnightblue" points="1203.89,-79.55 1213.1,-74.3 1202.63,-72.66 1203.89,-79.55"/>
</g>
<!-- Node22&#45;&gt;Node26 -->
<g id="edge33" class="edge">
<title>Node22&#45;&gt;Node26</title>
<path fill="none" stroke="midnightblue" d="M958.66,-112.08C959.18,-105.01 959.94,-94.86 960.59,-85.99"/>
<polygon fill="midnightblue" stroke="midnightblue" points="964.1,-85.98 961.35,-75.75 957.12,-85.47 964.1,-85.98"/>
</g>
<!-- Node22&#45;&gt;Node27 -->
<g id="edge34" class="edge">
<title>Node22&#45;&gt;Node27</title>
<path fill="none" stroke="midnightblue" d="M980.5,-112.44C1004.08,-103.48 1041.32,-89.31 1067.96,-79.18"/>
<polygon fill="midnightblue" stroke="midnightblue" points="1069.5,-82.34 1077.6,-75.52 1067.01,-75.8 1069.5,-82.34"/>
</g>
<!-- Node23&#45;&gt;Node5 -->
<g id="edge30" class="edge">
<title>Node23&#45;&gt;Node5</title>
<path fill="none" stroke="midnightblue" d="M1213.24,-57.99C1208.45,-57.26 1203.62,-56.58 1199,-56 1014.05,-32.98 792.2,-18.77 699.31,-13.42"/>
<polygon fill="midnightblue" stroke="midnightblue" points="699.34,-9.92 689.16,-12.84 698.94,-16.91 699.34,-9.92"/>
</g>
<!-- Node24 -->
<g id="node24" class="node">
<title>Node24</title>
<g id="a_node24"><a xlink:title=" ">
<polygon fill="white" stroke="#bfbfbf" points="1194,-0.5 1194,-19.5 1244,-19.5 1244,-0.5 1194,-0.5"/>
<text text-anchor="middle" x="1219" y="-7.5" font-family="Helvetica,sans-Serif" font-size="10.00">cstdint</text>
</a>
</g>
</g>
<!-- Node23&#45;&gt;Node24 -->
<g id="edge31" class="edge">
<title>Node23&#45;&gt;Node24</title>
<path fill="none" stroke="midnightblue" d="M1247.39,-56.08C1242.63,-48.53 1235.68,-37.49 1229.85,-28.23"/>
<polygon fill="midnightblue" stroke="midnightblue" points="1232.8,-26.35 1224.51,-19.75 1226.88,-30.08 1232.8,-26.35"/>
</g>
<!-- Node25 -->
<g id="node25" class="node">
<title>Node25</title>
<g id="a_node25"><a xlink:title=" ">
<polygon fill="white" stroke="#bfbfbf" points="1262,-0.5 1262,-19.5 1312,-19.5 1312,-0.5 1262,-0.5"/>
<text text-anchor="middle" x="1287" y="-7.5" font-family="Helvetica,sans-Serif" font-size="10.00">climits</text>
</a>
</g>
</g>
<!-- Node23&#45;&gt;Node25 -->
<g id="edge32" class="edge">
<title>Node23&#45;&gt;Node25</title>
<path fill="none" stroke="midnightblue" d="M1258.61,-56.08C1263.37,-48.53 1270.32,-37.49 1276.15,-28.23"/>
<polygon fill="midnightblue" stroke="midnightblue" points="1279.12,-30.08 1281.49,-19.75 1273.2,-26.35 1279.12,-30.08"/>
</g>
<!-- Node28&#45;&gt;Node5 -->
<g id="edge36" class="edge">
<title>Node28&#45;&gt;Node5</title>
<path fill="none" stroke="midnightblue" d="M565.54,-112.27C558.05,-99.06 546.73,-73.65 558,-56 569.79,-37.53 591.34,-26.52 611.13,-20.03"/>
<polygon fill="midnightblue" stroke="midnightblue" points="612.37,-23.31 620.96,-17.11 610.38,-16.6 612.37,-23.31"/>
</g>
<!-- Node28&#45;&gt;Node18 -->
<g id="edge37" class="edge">
<title>Node28&#45;&gt;Node18</title>
<path fill="none" stroke="midnightblue" d="M575.29,-112.08C578.85,-104.69 584.02,-93.95 588.42,-84.81"/>
<polygon fill="midnightblue" stroke="midnightblue" points="591.6,-86.28 592.79,-75.75 585.29,-83.24 591.6,-86.28"/>
</g>
<!-- Node30&#45;&gt;Node28 -->
<g id="edge42" class="edge">
<title>Node30&#45;&gt;Node28</title>
<path fill="none" stroke="midnightblue" d="M570.17,-168.08C570.3,-161.01 570.48,-150.86 570.65,-141.99"/>
<polygon fill="midnightblue" stroke="midnightblue" points="574.15,-141.81 570.84,-131.75 567.15,-141.68 574.15,-141.81"/>
</g>
<!-- Node31&#45;&gt;Node2 -->
<g id="edge49" class="edge">
<title>Node31&#45;&gt;Node2</title>
<path fill="none" stroke="midnightblue" d="M858.32,-291.48C805.36,-279.81 711.15,-259.04 660.85,-247.96"/>
<polygon fill="midnightblue" stroke="midnightblue" points="661.33,-244.48 650.81,-245.75 659.83,-251.32 661.33,-244.48"/>
</g>
<!-- Node31&#45;&gt;Node10 -->
<g id="edge48" class="edge">
<title>Node31&#45;&gt;Node10</title>
<path fill="none" stroke="midnightblue" d="M829.48,-293.74C767.59,-287.11 673.74,-274.82 594,-255 590.95,-254.24 587.8,-253.35 584.68,-252.38"/>
<polygon fill="midnightblue" stroke="midnightblue" points="585.49,-248.96 574.89,-249.12 583.27,-255.6 585.49,-248.96"/>
</g>
<!-- Node32 -->
<g id="node32" class="node">
<title>Node32</title>
<g id="a_node32"><a xlink:href="itkMetaDataObjectBase_8h.html" target="_top" xlink:title=" ">
<polygon fill="white" stroke="black" points="883,-230 883,-249 1025,-249 1025,-230 883,-230"/>
<text text-anchor="middle" x="954" y="-237" font-family="Helvetica,sans-Serif" font-size="10.00">itkMetaDataObjectBase.h</text>
</a>
</g>
</g>
<!-- Node31&#45;&gt;Node32 -->
<g id="edge44" class="edge">
<title>Node31&#45;&gt;Node32</title>
<path fill="none" stroke="midnightblue" d="M905.17,-291.48C913.89,-282.37 927.9,-267.74 938.69,-256.48"/>
<polygon fill="midnightblue" stroke="midnightblue" points="941.46,-258.65 945.85,-249.01 936.4,-253.81 941.46,-258.65"/>
</g>
<!-- Node33 -->
<g id="node33" class="node">
<title>Node33</title>
<g id="a_node33"><a xlink:title=" ">
<polygon fill="white" stroke="#bfbfbf" points="1043,-230 1043,-249 1081,-249 1081,-230 1043,-230"/>
<text text-anchor="middle" x="1062" y="-237" font-family="Helvetica,sans-Serif" font-size="10.00">map</text>
</a>
</g>
</g>
<!-- Node31&#45;&gt;Node33 -->
<g id="edge50" class="edge">
<title>Node31&#45;&gt;Node33</title>
<path fill="none" stroke="midnightblue" d="M927.71,-291.45C955.82,-283.27 998.34,-269.98 1034,-255 1035.03,-254.57 1036.08,-254.11 1037.14,-253.63"/>
<polygon fill="midnightblue" stroke="midnightblue" points="1039.05,-256.6 1046.51,-249.08 1035.99,-250.3 1039.05,-256.6"/>
</g>
<!-- Node34 -->
<g id="node34" class="node">
<title>Node34</title>
<g id="a_node34"><a xlink:title=" ">
<polygon fill="white" stroke="#bfbfbf" points="745,-230 745,-249 789,-249 789,-230 745,-230"/>
<text text-anchor="middle" x="767" y="-237" font-family="Helvetica,sans-Serif" font-size="10.00">string</text>
</a>
</g>
</g>
<!-- Node31&#45;&gt;Node34 -->
<g id="edge51" class="edge">
<title>Node31&#45;&gt;Node34</title>
<path fill="none" stroke="midnightblue" d="M877.99,-291.43C858.04,-282.43 825.77,-267.81 798,-255 796.85,-254.47 795.67,-253.92 794.48,-253.37"/>
<polygon fill="midnightblue" stroke="midnightblue" points="795.89,-250.17 785.34,-249.12 792.93,-256.51 795.89,-250.17"/>
</g>
<!-- Node35 -->
<g id="node35" class="node">
<title>Node35</title>
<g id="a_node35"><a xlink:title=" ">
<polygon fill="white" stroke="#bfbfbf" points="807,-230 807,-249 865,-249 865,-230 807,-230"/>
<text text-anchor="middle" x="836" y="-237" font-family="Helvetica,sans-Serif" font-size="10.00">memory</text>
</a>
</g>
</g>
<!-- Node31&#45;&gt;Node35 -->
<g id="edge52" class="edge">
<title>Node31&#45;&gt;Node35</title>
<path fill="none" stroke="midnightblue" d="M888.26,-291.48C878.84,-282.28 863.64,-267.46 852.05,-256.16"/>
<polygon fill="midnightblue" stroke="midnightblue" points="854.33,-253.49 844.72,-249.01 849.44,-258.5 854.33,-253.49"/>
</g>
<!-- Node32&#45;&gt;Node16 -->
<g id="edge45" class="edge">
<title>Node32&#45;&gt;Node16</title>
<path fill="none" stroke="midnightblue" d="M931.94,-229.98C905.63,-219.81 861.49,-202.76 831.58,-191.2"/>
<polygon fill="midnightblue" stroke="midnightblue" points="832.61,-187.85 822.02,-187.51 830.09,-194.38 832.61,-187.85"/>
</g>
<!-- Node32&#45;&gt;Node18 -->
<g id="edge47" class="edge">
<title>Node32&#45;&gt;Node18</title>
<path fill="none" stroke="midnightblue" d="M910.03,-229.97C857.57,-219.44 773.28,-201.3 744,-188 704.81,-170.2 698.2,-159.39 665,-132 646.04,-116.36 625.88,-96.65 612.48,-83.06"/>
<polygon fill="midnightblue" stroke="midnightblue" points="614.92,-80.55 605.43,-75.84 609.91,-85.44 614.92,-80.55"/>
</g>
<!-- Node32&#45;&gt;Node29 -->
<g id="edge46" class="edge">
<title>Node32&#45;&gt;Node29</title>
<path fill="none" stroke="midnightblue" d="M961.37,-229.82C977.61,-210.67 1016.75,-164.54 1037.89,-139.63"/>
<polygon fill="midnightblue" stroke="midnightblue" points="1040.75,-141.67 1044.55,-131.78 1035.41,-137.14 1040.75,-141.67"/>
</g>
<!-- Node38 -->
<g id="node38" class="node">
<title>Node38</title>
<g id="a_node38"><a xlink:href="itkObjectFactoryBase_8h.html" target="_top" xlink:title=" ">
<polygon fill="white" stroke="black" points="781.5,-470.5 781.5,-489.5 910.5,-489.5 910.5,-470.5 781.5,-470.5"/>
<text text-anchor="middle" x="846" y="-477.5" font-family="Helvetica,sans-Serif" font-size="10.00">itkObjectFactoryBase.h</text>
</a>
</g>
</g>
<!-- Node37&#45;&gt;Node38 -->
<g id="edge56" class="edge">
<title>Node37&#45;&gt;Node38</title>
<path fill="none" stroke="midnightblue" d="M794.09,-537.23C803.54,-527 819.36,-509.86 831.05,-497.19"/>
<polygon fill="midnightblue" stroke="midnightblue" points="833.83,-499.35 838.04,-489.63 828.68,-494.6 833.83,-499.35"/>
</g>
<!-- Node38&#45;&gt;Node2 -->
<g id="edge64" class="edge">
<title>Node38&#45;&gt;Node2</title>
<path fill="none" stroke="midnightblue" d="M805.61,-470.42C776.49,-462.42 737.91,-447.89 712,-423 663.1,-376.02 639.5,-295.44 630.94,-259.16"/>
<polygon fill="midnightblue" stroke="midnightblue" points="634.27,-258.03 628.67,-249.04 627.44,-259.56 634.27,-258.03"/>
</g>
<!-- Node38&#45;&gt;Node27 -->
<g id="edge59" class="edge">
<title>Node38&#45;&gt;Node27</title>
<path fill="none" stroke="midnightblue" d="M891.72,-470.5C975.92,-453.52 1147,-412.35 1147,-358 1147,-358 1147,-358 1147,-177 1147,-141.7 1126.28,-104.79 1112.36,-83.96"/>
<polygon fill="midnightblue" stroke="midnightblue" points="1115.12,-81.8 1106.54,-75.59 1109.37,-85.8 1115.12,-81.8"/>
</g>
<!-- Node39 -->
<g id="node39" class="node">
<title>Node39</title>
<g id="a_node39"><a xlink:href="itkCreateObjectFunction_8h.html" target="_top" xlink:title=" ">
<polygon fill="white" stroke="black" points="721.5,-403.5 721.5,-422.5 864.5,-422.5 864.5,-403.5 721.5,-403.5"/>
<text text-anchor="middle" x="793" y="-410.5" font-family="Helvetica,sans-Serif" font-size="10.00">itkCreateObjectFunction.h</text>
</a>
</g>
</g>
<!-- Node38&#45;&gt;Node39 -->
<g id="edge57" class="edge">
<title>Node38&#45;&gt;Node39</title>
<path fill="none" stroke="midnightblue" d="M838.85,-470.23C830.59,-460.1 816.8,-443.19 806.5,-430.56"/>
<polygon fill="midnightblue" stroke="midnightblue" points="809.07,-428.17 800.03,-422.63 803.64,-432.59 809.07,-428.17"/>
</g>
<!-- Node40 -->
<g id="node40" class="node">
<title>Node40</title>
<g id="a_node40"><a xlink:href="itkCommonEnums_8h.html" target="_top" xlink:title=" ">
<polygon fill="white" stroke="black" points="1213,-403.5 1213,-422.5 1329,-422.5 1329,-403.5 1213,-403.5"/>
<text text-anchor="middle" x="1271" y="-410.5" font-family="Helvetica,sans-Serif" font-size="10.00">itkCommonEnums.h</text>
</a>
</g>
</g>
<!-- Node38&#45;&gt;Node40 -->
<g id="edge60" class="edge">
<title>Node38&#45;&gt;Node40</title>
<path fill="none" stroke="midnightblue" d="M902,-470.44C980.22,-458.47 1121.92,-436.8 1205.12,-424.08"/>
<polygon fill="midnightblue" stroke="midnightblue" points="1205.86,-427.5 1215.22,-422.53 1204.8,-420.58 1205.86,-427.5"/>
</g>
<!-- Node42 -->
<g id="node42" class="node">
<title>Node42</title>
<g id="a_node42"><a xlink:title=" ">
<polygon fill="white" stroke="#bfbfbf" points="883,-403.5 883,-422.5 915,-422.5 915,-403.5 883,-403.5"/>
<text text-anchor="middle" x="899" y="-410.5" font-family="Helvetica,sans-Serif" font-size="10.00">list</text>
</a>
</g>
</g>
<!-- Node38&#45;&gt;Node42 -->
<g id="edge63" class="edge">
<title>Node38&#45;&gt;Node42</title>
<path fill="none" stroke="midnightblue" d="M853.15,-470.23C861.41,-460.1 875.2,-443.19 885.5,-430.56"/>
<polygon fill="midnightblue" stroke="midnightblue" points="888.36,-432.59 891.97,-422.63 882.93,-428.17 888.36,-432.59"/>
</g>
<!-- Node39&#45;&gt;Node15 -->
<g id="edge58" class="edge">
<title>Node39&#45;&gt;Node15</title>
<path fill="none" stroke="midnightblue" d="M793,-403.08C793,-396.01 793,-385.86 793,-376.99"/>
<polygon fill="midnightblue" stroke="midnightblue" points="796.5,-376.75 793,-366.75 789.5,-376.75 796.5,-376.75"/>
</g>
<!-- Node40&#45;&gt;Node23 -->
<g id="edge61" class="edge">
<title>Node40&#45;&gt;Node23</title>
<path fill="none" stroke="midnightblue" d="M1274.78,-403.35C1282.42,-385.03 1299,-340.82 1299,-302 1299,-302 1299,-302 1299,-177 1299,-141.82 1278.72,-104.86 1265.09,-84"/>
<polygon fill="midnightblue" stroke="midnightblue" points="1267.91,-81.92 1259.4,-75.61 1262.12,-85.85 1267.91,-81.92"/>
</g>
<!-- Node41 -->
<g id="node41" class="node">
<title>Node41</title>
<g id="a_node41"><a xlink:title=" ">
<polygon fill="white" stroke="#bfbfbf" points="1213.5,-347.5 1213.5,-366.5 1270.5,-366.5 1270.5,-347.5 1213.5,-347.5"/>
<text text-anchor="middle" x="1242" y="-354.5" font-family="Helvetica,sans-Serif" font-size="10.00">ostream</text>
</a>
</g>
</g>
<!-- Node40&#45;&gt;Node41 -->
<g id="edge62" class="edge">
<title>Node40&#45;&gt;Node41</title>
<path fill="none" stroke="midnightblue" d="M1266.21,-403.08C1262.24,-395.69 1256.47,-384.95 1251.57,-375.81"/>
<polygon fill="midnightblue" stroke="midnightblue" points="1254.51,-373.91 1246.7,-366.75 1248.35,-377.22 1254.51,-373.91"/>
</g>
<!-- Node43&#45;&gt;Node5 -->
<g id="edge66" class="edge">
<title>Node43&#45;&gt;Node5</title>
<path fill="none" stroke="midnightblue" d="M1215.1,-537.24C1206.17,-516.35 1185,-461.8 1185,-414 1185,-414 1185,-414 1185,-121 1185,-90.9 1189.27,-75.09 1166,-56 1130.29,-26.7 816.78,-15.33 699.25,-12.08"/>
<polygon fill="midnightblue" stroke="midnightblue" points="699.25,-8.58 689.16,-11.81 699.06,-15.57 699.25,-8.58"/>
</g>
<!-- Node44 -->
<g id="node44" class="node">
<title>Node44</title>
<g id="a_node44"><a xlink:title=" ">
<polygon fill="white" stroke="#bfbfbf" points="1213,-470.5 1213,-489.5 1295,-489.5 1295,-470.5 1213,-470.5"/>
<text text-anchor="middle" x="1254" y="-477.5" font-family="Helvetica,sans-Serif" font-size="10.00">vxl_version.h</text>
</a>
</g>
</g>
<!-- Node43&#45;&gt;Node44 -->
<g id="edge67" class="edge">
<title>Node43&#45;&gt;Node44</title>
<path fill="none" stroke="midnightblue" d="M1223.72,-537.23C1229.02,-527.39 1237.76,-511.16 1244.49,-498.66"/>
<polygon fill="midnightblue" stroke="midnightblue" points="1247.7,-500.09 1249.35,-489.63 1241.53,-496.77 1247.7,-500.09"/>
</g>
<!-- Node45 -->
<g id="node45" class="node">
<title>Node45</title>
<g id="a_node45"><a xlink:title=" ">
<polygon fill="white" stroke="#bfbfbf" points="1313,-470.5 1313,-489.5 1407,-489.5 1407,-470.5 1313,-470.5"/>
<text text-anchor="middle" x="1360" y="-477.5" font-family="Helvetica,sans-Serif" font-size="10.00">vnl/vnl_vector.h</text>
</a>
</g>
</g>
<!-- Node43&#45;&gt;Node45 -->
<g id="edge68" class="edge">
<title>Node43&#45;&gt;Node45</title>
<path fill="none" stroke="midnightblue" d="M1237.72,-537.37C1261.85,-526.25 1304,-506.82 1331.95,-493.93"/>
<polygon fill="midnightblue" stroke="midnightblue" points="1333.58,-497.03 1341.2,-489.67 1330.65,-490.68 1333.58,-497.03"/>
</g>
<!-- Node46 -->
<g id="node46" class="node">
<title>Node46</title>
<g id="a_node46"><a xlink:title=" ">
<polygon fill="white" stroke="#bfbfbf" points="1425.5,-470.5 1425.5,-489.5 1500.5,-489.5 1500.5,-470.5 1425.5,-470.5"/>
<text text-anchor="middle" x="1463" y="-477.5" font-family="Helvetica,sans-Serif" font-size="10.00">itkArray.hxx</text>
</a>
</g>
</g>
<!-- Node43&#45;&gt;Node46 -->
<g id="edge69" class="edge">
<title>Node43&#45;&gt;Node46</title>
<path fill="none" stroke="midnightblue" d="M1250.8,-538.89C1304.5,-526.87 1408.12,-503.56 1416,-501 1422.42,-498.92 1429.18,-496.31 1435.51,-493.66"/>
<polygon fill="midnightblue" stroke="midnightblue" points="1437.2,-496.74 1444.98,-489.56 1434.42,-490.32 1437.2,-496.74"/>
</g>
<!-- Node47 -->
<g id="node47" class="node">
<title>Node47</title>
<g id="a_node47"><a xlink:title=" ">
<polygon fill="white" stroke="#bfbfbf" points="1518.5,-459.5 1518.5,-500.5 1703.5,-500.5 1703.5,-459.5 1518.5,-459.5"/>
<text text-anchor="start" x="1526.5" y="-488.5" font-family="Helvetica,sans-Serif" font-size="10.00">/work/ITK/Modules/Core</text>
<text text-anchor="start" x="1526.5" y="-477.5" font-family="Helvetica,sans-Serif" font-size="10.00">/Common/include/itkNumericTraits</text>
<text text-anchor="middle" x="1611" y="-466.5" font-family="Helvetica,sans-Serif" font-size="10.00">ArrayPixel.h</text>
</a>
</g>
</g>
<!-- Node43&#45;&gt;Node47 -->
<g id="edge70" class="edge">
<title>Node43&#45;&gt;Node47</title>
<path fill="none" stroke="midnightblue" d="M1250.74,-538.79C1253.86,-538.16 1256.99,-537.55 1260,-537 1367.32,-517.52 1397.64,-519.76 1508.4,-501.23"/>
<polygon fill="midnightblue" stroke="midnightblue" points="1509.02,-504.67 1518.3,-499.55 1507.85,-497.77 1509.02,-504.67"/>
</g>
</g>
</svg>
