<?xml version="1.0" encoding="UTF-8" standalone="no"?>
<!DOCTYPE svg PUBLIC "-//W3C//DTD SVG 1.1//EN"
 "http://www.w3.org/Graphics/SVG/1.1/DTD/svg11.dtd">
<!-- Generated by graphviz version 2.43.0 (0)
 -->
<!-- Title: itkMultipleLogOutput.h Pages: 1 -->
<svg width="964pt" height="644pt"
 viewBox="0.00 0.00 964.00 644.00" xmlns="http://www.w3.org/2000/svg" xmlns:xlink="http://www.w3.org/1999/xlink">
<g id="graph0" class="graph" transform="scale(1 1) rotate(0) translate(4 640)">
<title>itkMultipleLogOutput.h</title>
<polygon fill="white" stroke="transparent" points="-4,4 -4,-640 960,-640 960,4 -4,4"/>
<!-- Node1 -->
<g id="node1" class="node">
<title>Node1</title>
<g id="a_node1"><a xlink:title=" ">
<polygon fill="#bfbfbf" stroke="black" points="314,-616.5 314,-635.5 442,-635.5 442,-616.5 314,-616.5"/>
<text text-anchor="middle" x="378" y="-623.5" font-family="Helvetica,sans-Serif" font-size="10.00">itkMultipleLogOutput.h</text>
</a>
</g>
</g>
<!-- Node2 -->
<g id="node2" class="node">
<title>Node2</title>
<g id="a_node2"><a xlink:href="itkLogOutput_8h.html" target="_top" xlink:title=" ">
<polygon fill="white" stroke="black" points="243.5,-560.5 243.5,-579.5 332.5,-579.5 332.5,-560.5 243.5,-560.5"/>
<text text-anchor="middle" x="288" y="-567.5" font-family="Helvetica,sans-Serif" font-size="10.00">itkLogOutput.h</text>
</a>
</g>
</g>
<!-- Node1&#45;&gt;Node2 -->
<g id="edge1" class="edge">
<title>Node1&#45;&gt;Node2</title>
<path fill="none" stroke="midnightblue" d="M363.54,-616.32C349.5,-607.9 327.95,-594.97 311.46,-585.07"/>
<polygon fill="midnightblue" stroke="midnightblue" points="312.8,-581.8 302.42,-579.65 309.2,-587.8 312.8,-581.8"/>
</g>
<!-- Node34 -->
<g id="node34" class="node">
<title>Node34</title>
<g id="a_node34"><a xlink:title=" ">
<polygon fill="white" stroke="#bfbfbf" points="350.5,-560.5 350.5,-579.5 405.5,-579.5 405.5,-560.5 350.5,-560.5"/>
<text text-anchor="middle" x="378" y="-567.5" font-family="Helvetica,sans-Serif" font-size="10.00">fstream</text>
</a>
</g>
</g>
<!-- Node1&#45;&gt;Node34 -->
<g id="edge50" class="edge">
<title>Node1&#45;&gt;Node34</title>
<path fill="none" stroke="midnightblue" d="M378,-616.08C378,-609.01 378,-598.86 378,-589.99"/>
<polygon fill="midnightblue" stroke="midnightblue" points="381.5,-589.75 378,-579.75 374.5,-589.75 381.5,-589.75"/>
</g>
<!-- Node35 -->
<g id="node35" class="node">
<title>Node35</title>
<g id="a_node35"><a xlink:title=" ">
<polygon fill="white" stroke="#bfbfbf" points="424,-560.5 424,-579.5 456,-579.5 456,-560.5 424,-560.5"/>
<text text-anchor="middle" x="440" y="-567.5" font-family="Helvetica,sans-Serif" font-size="10.00">set</text>
</a>
</g>
</g>
<!-- Node1&#45;&gt;Node35 -->
<g id="edge51" class="edge">
<title>Node1&#45;&gt;Node35</title>
<path fill="none" stroke="midnightblue" d="M387.96,-616.32C397.13,-608.34 410.94,-596.31 422.03,-586.65"/>
<polygon fill="midnightblue" stroke="midnightblue" points="424.62,-589.04 429.86,-579.83 420.02,-583.76 424.62,-589.04"/>
</g>
<!-- Node3 -->
<g id="node3" class="node">
<title>Node3</title>
<g id="a_node3"><a xlink:href="itkMacro_8h.html" target="_top" xlink:title=" ">
<polygon fill="white" stroke="black" points="536,-0.5 536,-19.5 604,-19.5 604,-0.5 536,-0.5"/>
<text text-anchor="middle" x="570" y="-7.5" font-family="Helvetica,sans-Serif" font-size="10.00">itkMacro.h</text>
</a>
</g>
</g>
<!-- Node2&#45;&gt;Node3 -->
<g id="edge2" class="edge">
<title>Node2&#45;&gt;Node3</title>
<path fill="none" stroke="midnightblue" d="M265.88,-560.44C198.44,-532.74 0,-438.67 0,-291 0,-291 0,-291 0,-121 0,-14.16 390.93,-8.84 525.29,-10.16"/>
<polygon fill="midnightblue" stroke="midnightblue" points="525.59,-13.67 535.63,-10.28 525.67,-6.67 525.59,-13.67"/>
</g>
<!-- Node4 -->
<g id="node4" class="node">
<title>Node4</title>
<g id="a_node4"><a xlink:href="itkObject_8h.html" target="_top" xlink:title=" ">
<polygon fill="white" stroke="black" points="566,-336.5 566,-355.5 636,-355.5 636,-336.5 566,-336.5"/>
<text text-anchor="middle" x="601" y="-343.5" font-family="Helvetica,sans-Serif" font-size="10.00">itkObject.h</text>
</a>
</g>
</g>
<!-- Node2&#45;&gt;Node4 -->
<g id="edge3" class="edge">
<title>Node2&#45;&gt;Node4</title>
<path fill="none" stroke="midnightblue" d="M298.64,-560.49C331.6,-534.26 435.29,-452.73 526,-392 542.56,-380.91 561.86,-369.37 576.73,-360.74"/>
<polygon fill="midnightblue" stroke="midnightblue" points="578.86,-363.55 585.79,-355.54 575.37,-357.49 578.86,-363.55"/>
</g>
<!-- Node25 -->
<g id="node25" class="node">
<title>Node25</title>
<g id="a_node25"><a xlink:title=" ">
<polygon fill="white" stroke="#bfbfbf" points="28,-224.5 28,-243.5 72,-243.5 72,-224.5 28,-224.5"/>
<text text-anchor="middle" x="50" y="-231.5" font-family="Helvetica,sans-Serif" font-size="10.00">string</text>
</a>
</g>
</g>
<!-- Node2&#45;&gt;Node25 -->
<g id="edge49" class="edge">
<title>Node2&#45;&gt;Node25</title>
<path fill="none" stroke="midnightblue" d="M243.43,-565.26C185.55,-559.56 88.77,-546.86 62,-524 38.58,-504 38,-489.8 38,-459 38,-459 38,-459 38,-345 38,-312.76 43.16,-275.51 46.71,-253.68"/>
<polygon fill="midnightblue" stroke="midnightblue" points="50.21,-253.97 48.43,-243.52 43.31,-252.8 50.21,-253.97"/>
</g>
<!-- Node28 -->
<g id="node28" class="node">
<title>Node28</title>
<g id="a_node28"><a xlink:href="itkObjectFactory_8h.html" target="_top" xlink:title=" ">
<polygon fill="white" stroke="black" points="488,-504.5 488,-523.5 592,-523.5 592,-504.5 488,-504.5"/>
<text text-anchor="middle" x="540" y="-511.5" font-family="Helvetica,sans-Serif" font-size="10.00">itkObjectFactory.h</text>
</a>
</g>
</g>
<!-- Node2&#45;&gt;Node28 -->
<g id="edge39" class="edge">
<title>Node2&#45;&gt;Node28</title>
<path fill="none" stroke="midnightblue" d="M327.93,-560.44C371.89,-551.02 442.63,-535.87 490.18,-525.68"/>
<polygon fill="midnightblue" stroke="midnightblue" points="491.21,-529.03 500.26,-523.52 489.75,-522.19 491.21,-529.03"/>
</g>
<!-- Node5 -->
<g id="node5" class="node">
<title>Node5</title>
<g id="a_node5"><a xlink:href="itkLightObject_8h.html" target="_top" xlink:title=" ">
<polygon fill="white" stroke="black" points="444,-168.5 444,-187.5 538,-187.5 538,-168.5 444,-168.5"/>
<text text-anchor="middle" x="491" y="-175.5" font-family="Helvetica,sans-Serif" font-size="10.00">itkLightObject.h</text>
</a>
</g>
</g>
<!-- Node4&#45;&gt;Node5 -->
<g id="edge4" class="edge">
<title>Node4&#45;&gt;Node5</title>
<path fill="none" stroke="midnightblue" d="M613.47,-336.44C629.58,-324.27 654.3,-301.08 643,-280 618.54,-234.37 563.38,-205.85 526.67,-191.18"/>
<polygon fill="midnightblue" stroke="midnightblue" points="527.9,-187.9 517.31,-187.57 525.39,-194.43 527.9,-187.9"/>
</g>
<!-- Node16 -->
<g id="node16" class="node">
<title>Node16</title>
<g id="a_node16"><a xlink:href="itkSingletonMacro_8h.html" target="_top" xlink:title=" ">
<polygon fill="white" stroke="black" points="704,-56.5 704,-75.5 818,-75.5 818,-56.5 704,-56.5"/>
<text text-anchor="middle" x="761" y="-63.5" font-family="Helvetica,sans-Serif" font-size="10.00">itkSingletonMacro.h</text>
</a>
</g>
</g>
<!-- Node4&#45;&gt;Node16 -->
<g id="edge37" class="edge">
<title>Node4&#45;&gt;Node16</title>
<path fill="none" stroke="midnightblue" d="M615.12,-336.45C627.64,-328.31 645.78,-315.09 658,-300 713.7,-231.22 745.26,-127.59 756.38,-85.63"/>
<polygon fill="midnightblue" stroke="midnightblue" points="759.78,-86.48 758.88,-75.92 753,-84.74 759.78,-86.48"/>
</g>
<!-- Node19 -->
<g id="node19" class="node">
<title>Node19</title>
<g id="a_node19"><a xlink:href="itkEventObject_8h.html" target="_top" xlink:title=" ">
<polygon fill="white" stroke="black" points="314,-168.5 314,-187.5 412,-187.5 412,-168.5 314,-168.5"/>
<text text-anchor="middle" x="363" y="-175.5" font-family="Helvetica,sans-Serif" font-size="10.00">itkEventObject.h</text>
</a>
</g>
</g>
<!-- Node4&#45;&gt;Node19 -->
<g id="edge25" class="edge">
<title>Node4&#45;&gt;Node19</title>
<path fill="none" stroke="midnightblue" d="M591.76,-336.3C582.91,-327.65 569.52,-313.72 560,-300 538.36,-268.81 550.35,-248.08 521,-224 505.06,-210.92 456.73,-198.26 417.68,-189.72"/>
<polygon fill="midnightblue" stroke="midnightblue" points="417.97,-186.2 407.46,-187.53 416.51,-193.05 417.97,-186.2"/>
</g>
<!-- Node20 -->
<g id="node20" class="node">
<title>Node20</title>
<g id="a_node20"><a xlink:href="itkMetaDataDictionary_8h.html" target="_top" xlink:title=" ">
<polygon fill="white" stroke="black" points="199.5,-280.5 199.5,-299.5 334.5,-299.5 334.5,-280.5 199.5,-280.5"/>
<text text-anchor="middle" x="267" y="-287.5" font-family="Helvetica,sans-Serif" font-size="10.00">itkMetaDataDictionary.h</text>
</a>
</g>
</g>
<!-- Node4&#45;&gt;Node20 -->
<g id="edge27" class="edge">
<title>Node4&#45;&gt;Node20</title>
<path fill="none" stroke="midnightblue" d="M565.89,-339.32C509.86,-330.26 399.44,-312.41 329.63,-301.13"/>
<polygon fill="midnightblue" stroke="midnightblue" points="330.07,-297.65 319.64,-299.51 328.95,-304.56 330.07,-297.65"/>
</g>
<!-- Node27 -->
<g id="node27" class="node">
<title>Node27</title>
<g id="a_node27"><a xlink:title=" ">
<polygon fill="white" stroke="#bfbfbf" points="568.5,-280.5 568.5,-299.5 633.5,-299.5 633.5,-280.5 568.5,-280.5"/>
<text text-anchor="middle" x="601" y="-287.5" font-family="Helvetica,sans-Serif" font-size="10.00">functional</text>
</a>
</g>
</g>
<!-- Node4&#45;&gt;Node27 -->
<g id="edge38" class="edge">
<title>Node4&#45;&gt;Node27</title>
<path fill="none" stroke="midnightblue" d="M601,-336.08C601,-329.01 601,-318.86 601,-309.99"/>
<polygon fill="midnightblue" stroke="midnightblue" points="604.5,-309.75 601,-299.75 597.5,-309.75 604.5,-309.75"/>
</g>
<!-- Node5&#45;&gt;Node3 -->
<g id="edge5" class="edge">
<title>Node5&#45;&gt;Node3</title>
<path fill="none" stroke="midnightblue" d="M509,-168.39C522.81,-160.81 541.13,-148.4 551,-132 570.29,-99.92 572.04,-54.74 571.24,-29.65"/>
<polygon fill="midnightblue" stroke="midnightblue" points="574.74,-29.47 570.76,-19.65 567.75,-29.81 574.74,-29.47"/>
</g>
<!-- Node6 -->
<g id="node6" class="node">
<title>Node6</title>
<g id="a_node6"><a xlink:href="itkSmartPointer_8h.html" target="_top" xlink:title=" ">
<polygon fill="white" stroke="black" points="440.5,-112.5 440.5,-131.5 541.5,-131.5 541.5,-112.5 440.5,-112.5"/>
<text text-anchor="middle" x="491" y="-119.5" font-family="Helvetica,sans-Serif" font-size="10.00">itkSmartPointer.h</text>
</a>
</g>
</g>
<!-- Node5&#45;&gt;Node6 -->
<g id="edge6" class="edge">
<title>Node5&#45;&gt;Node6</title>
<path fill="none" stroke="midnightblue" d="M491,-168.08C491,-161.01 491,-150.86 491,-141.99"/>
<polygon fill="midnightblue" stroke="midnightblue" points="494.5,-141.75 491,-131.75 487.5,-141.75 494.5,-141.75"/>
</g>
<!-- Node7 -->
<g id="node7" class="node">
<title>Node7</title>
<g id="a_node7"><a xlink:title=" ">
<polygon fill="white" stroke="#bfbfbf" points="228,-56.5 228,-75.5 288,-75.5 288,-56.5 228,-56.5"/>
<text text-anchor="middle" x="258" y="-63.5" font-family="Helvetica,sans-Serif" font-size="10.00">iostream</text>
</a>
</g>
</g>
<!-- Node5&#45;&gt;Node7 -->
<g id="edge23" class="edge">
<title>Node5&#45;&gt;Node7</title>
<path fill="none" stroke="midnightblue" d="M479.99,-168.39C462.28,-154.88 426.02,-128.54 392,-112 361.67,-97.25 325.28,-85.37 298.08,-77.53"/>
<polygon fill="midnightblue" stroke="midnightblue" points="298.72,-74.07 288.14,-74.72 296.81,-80.81 298.72,-74.07"/>
</g>
<!-- Node11 -->
<g id="node11" class="node">
<title>Node11</title>
<g id="a_node11"><a xlink:href="itkTimeStamp_8h.html" target="_top" xlink:title=" ">
<polygon fill="white" stroke="black" points="636.5,-112.5 636.5,-131.5 731.5,-131.5 731.5,-112.5 636.5,-112.5"/>
<text text-anchor="middle" x="684" y="-119.5" font-family="Helvetica,sans-Serif" font-size="10.00">itkTimeStamp.h</text>
</a>
</g>
</g>
<!-- Node5&#45;&gt;Node11 -->
<g id="edge11" class="edge">
<title>Node5&#45;&gt;Node11</title>
<path fill="none" stroke="midnightblue" d="M521.58,-168.44C554.61,-159.2 607.39,-144.44 643.77,-134.26"/>
<polygon fill="midnightblue" stroke="midnightblue" points="644.87,-137.58 653.56,-131.52 642.99,-130.84 644.87,-137.58"/>
</g>
<!-- Node15 -->
<g id="node15" class="node">
<title>Node15</title>
<g id="a_node15"><a xlink:title=" ">
<polygon fill="white" stroke="#bfbfbf" points="598,-56.5 598,-75.5 648,-75.5 648,-56.5 598,-56.5"/>
<text text-anchor="middle" x="623" y="-63.5" font-family="Helvetica,sans-Serif" font-size="10.00">atomic</text>
</a>
</g>
</g>
<!-- Node5&#45;&gt;Node15 -->
<g id="edge22" class="edge">
<title>Node5&#45;&gt;Node15</title>
<path fill="none" stroke="midnightblue" d="M518.72,-168.4C538.64,-161.15 565.2,-149.18 584,-132 598.38,-118.85 609.17,-99.17 615.72,-84.91"/>
<polygon fill="midnightblue" stroke="midnightblue" points="618.96,-86.22 619.72,-75.66 612.54,-83.44 618.96,-86.22"/>
</g>
<!-- Node17 -->
<g id="node17" class="node">
<title>Node17</title>
<g id="a_node17"><a xlink:href="itkIndent_8h.html" target="_top" xlink:title=" ">
<polygon fill="white" stroke="black" points="314.5,-112.5 314.5,-131.5 383.5,-131.5 383.5,-112.5 314.5,-112.5"/>
<text text-anchor="middle" x="349" y="-119.5" font-family="Helvetica,sans-Serif" font-size="10.00">itkIndent.h</text>
</a>
</g>
</g>
<!-- Node5&#45;&gt;Node17 -->
<g id="edge19" class="edge">
<title>Node5&#45;&gt;Node17</title>
<path fill="none" stroke="midnightblue" d="M468.5,-168.44C444.92,-159.48 407.68,-145.31 381.04,-135.18"/>
<polygon fill="midnightblue" stroke="midnightblue" points="381.99,-131.8 371.4,-131.52 379.5,-138.34 381.99,-131.8"/>
</g>
<!-- Node18 -->
<g id="node18" class="node">
<title>Node18</title>
<g id="a_node18"><a xlink:title=" ">
<polygon fill="white" stroke="#bfbfbf" points="239.5,-112.5 239.5,-131.5 296.5,-131.5 296.5,-112.5 239.5,-112.5"/>
<text text-anchor="middle" x="268" y="-119.5" font-family="Helvetica,sans-Serif" font-size="10.00">typeinfo</text>
</a>
</g>
</g>
<!-- Node5&#45;&gt;Node18 -->
<g id="edge24" class="edge">
<title>Node5&#45;&gt;Node18</title>
<path fill="none" stroke="midnightblue" d="M455.69,-168.47C420.32,-159.92 364.05,-146.32 306.65,-132.4"/>
<polygon fill="midnightblue" stroke="midnightblue" points="307.23,-128.94 296.68,-129.98 305.58,-135.74 307.23,-128.94"/>
</g>
<!-- Node6&#45;&gt;Node7 -->
<g id="edge7" class="edge">
<title>Node6&#45;&gt;Node7</title>
<path fill="none" stroke="midnightblue" d="M454.08,-112.44C411.55,-102.59 341.92,-86.45 298.09,-76.29"/>
<polygon fill="midnightblue" stroke="midnightblue" points="298.61,-72.82 288.08,-73.97 297.03,-79.64 298.61,-72.82"/>
</g>
<!-- Node8 -->
<g id="node8" class="node">
<title>Node8</title>
<g id="a_node8"><a xlink:title=" ">
<polygon fill="white" stroke="#bfbfbf" points="496.5,-56.5 496.5,-75.5 541.5,-75.5 541.5,-56.5 496.5,-56.5"/>
<text text-anchor="middle" x="519" y="-63.5" font-family="Helvetica,sans-Serif" font-size="10.00">utility</text>
</a>
</g>
</g>
<!-- Node6&#45;&gt;Node8 -->
<g id="edge8" class="edge">
<title>Node6&#45;&gt;Node8</title>
<path fill="none" stroke="midnightblue" d="M495.62,-112.08C499.46,-104.69 505.02,-93.95 509.76,-84.81"/>
<polygon fill="midnightblue" stroke="midnightblue" points="512.97,-86.24 514.46,-75.75 506.75,-83.02 512.97,-86.24"/>
</g>
<!-- Node9 -->
<g id="node9" class="node">
<title>Node9</title>
<g id="a_node9"><a xlink:title=" ">
<polygon fill="white" stroke="#bfbfbf" points="306.5,-56.5 306.5,-75.5 375.5,-75.5 375.5,-56.5 306.5,-56.5"/>
<text text-anchor="middle" x="341" y="-63.5" font-family="Helvetica,sans-Serif" font-size="10.00">type_traits</text>
</a>
</g>
</g>
<!-- Node6&#45;&gt;Node9 -->
<g id="edge9" class="edge">
<title>Node6&#45;&gt;Node9</title>
<path fill="none" stroke="midnightblue" d="M467.23,-112.44C442.11,-103.4 402.29,-89.06 374.1,-78.92"/>
<polygon fill="midnightblue" stroke="midnightblue" points="375.25,-75.61 364.66,-75.52 372.88,-82.2 375.25,-75.61"/>
</g>
<!-- Node10 -->
<g id="node10" class="node">
<title>Node10</title>
<g id="a_node10"><a xlink:title=" ">
<polygon fill="white" stroke="#bfbfbf" points="393.5,-56.5 393.5,-75.5 478.5,-75.5 478.5,-56.5 393.5,-56.5"/>
<text text-anchor="middle" x="436" y="-63.5" font-family="Helvetica,sans-Serif" font-size="10.00">itkConfigure.h</text>
</a>
</g>
</g>
<!-- Node6&#45;&gt;Node10 -->
<g id="edge10" class="edge">
<title>Node6&#45;&gt;Node10</title>
<path fill="none" stroke="midnightblue" d="M481.92,-112.08C473.83,-104.14 461.8,-92.34 452.09,-82.8"/>
<polygon fill="midnightblue" stroke="midnightblue" points="454.5,-80.26 444.91,-75.75 449.6,-85.25 454.5,-80.26"/>
</g>
<!-- Node11&#45;&gt;Node3 -->
<g id="edge12" class="edge">
<title>Node11&#45;&gt;Node3</title>
<path fill="none" stroke="midnightblue" d="M682.41,-112.39C679.51,-98.89 672.22,-72.55 657,-56 643.53,-41.35 624.19,-30.69 607.17,-23.44"/>
<polygon fill="midnightblue" stroke="midnightblue" points="608.06,-20.02 597.47,-19.55 605.46,-26.52 608.06,-20.02"/>
</g>
<!-- Node12 -->
<g id="node12" class="node">
<title>Node12</title>
<g id="a_node12"><a xlink:href="itkIntTypes_8h.html" target="_top" xlink:title=" ">
<polygon fill="white" stroke="black" points="836.5,-56.5 836.5,-75.5 915.5,-75.5 915.5,-56.5 836.5,-56.5"/>
<text text-anchor="middle" x="876" y="-63.5" font-family="Helvetica,sans-Serif" font-size="10.00">itkIntTypes.h</text>
</a>
</g>
</g>
<!-- Node11&#45;&gt;Node12 -->
<g id="edge13" class="edge">
<title>Node11&#45;&gt;Node12</title>
<path fill="none" stroke="midnightblue" d="M714.42,-112.44C747.28,-103.2 799.78,-88.44 835.97,-78.26"/>
<polygon fill="midnightblue" stroke="midnightblue" points="837.04,-81.59 845.72,-75.52 835.15,-74.85 837.04,-81.59"/>
</g>
<!-- Node11&#45;&gt;Node15 -->
<g id="edge17" class="edge">
<title>Node11&#45;&gt;Node15</title>
<path fill="none" stroke="midnightblue" d="M674.2,-112.32C665.18,-104.34 651.59,-92.31 640.68,-82.65"/>
<polygon fill="midnightblue" stroke="midnightblue" points="642.79,-79.84 632.98,-75.83 638.15,-85.08 642.79,-79.84"/>
</g>
<!-- Node11&#45;&gt;Node16 -->
<g id="edge18" class="edge">
<title>Node11&#45;&gt;Node16</title>
<path fill="none" stroke="midnightblue" d="M696.37,-112.32C708.16,-104.06 726.13,-91.45 740.14,-81.63"/>
<polygon fill="midnightblue" stroke="midnightblue" points="742.48,-84.26 748.66,-75.65 738.46,-78.53 742.48,-84.26"/>
</g>
<!-- Node12&#45;&gt;Node3 -->
<g id="edge14" class="edge">
<title>Node12&#45;&gt;Node3</title>
<path fill="none" stroke="midnightblue" d="M836.42,-57.7C833.24,-57.12 830.06,-56.55 827,-56 752.34,-42.61 665.38,-27.48 614.17,-18.62"/>
<polygon fill="midnightblue" stroke="midnightblue" points="614.55,-15.13 604.1,-16.88 613.36,-22.03 614.55,-15.13"/>
</g>
<!-- Node13 -->
<g id="node13" class="node">
<title>Node13</title>
<g id="a_node13"><a xlink:title=" ">
<polygon fill="white" stroke="#bfbfbf" points="817,-0.5 817,-19.5 867,-19.5 867,-0.5 817,-0.5"/>
<text text-anchor="middle" x="842" y="-7.5" font-family="Helvetica,sans-Serif" font-size="10.00">cstdint</text>
</a>
</g>
</g>
<!-- Node12&#45;&gt;Node13 -->
<g id="edge15" class="edge">
<title>Node12&#45;&gt;Node13</title>
<path fill="none" stroke="midnightblue" d="M870.39,-56.08C865.63,-48.53 858.68,-37.49 852.85,-28.23"/>
<polygon fill="midnightblue" stroke="midnightblue" points="855.8,-26.35 847.51,-19.75 849.88,-30.08 855.8,-26.35"/>
</g>
<!-- Node14 -->
<g id="node14" class="node">
<title>Node14</title>
<g id="a_node14"><a xlink:title=" ">
<polygon fill="white" stroke="#bfbfbf" points="885,-0.5 885,-19.5 935,-19.5 935,-0.5 885,-0.5"/>
<text text-anchor="middle" x="910" y="-7.5" font-family="Helvetica,sans-Serif" font-size="10.00">climits</text>
</a>
</g>
</g>
<!-- Node12&#45;&gt;Node14 -->
<g id="edge16" class="edge">
<title>Node12&#45;&gt;Node14</title>
<path fill="none" stroke="midnightblue" d="M881.61,-56.08C886.37,-48.53 893.32,-37.49 899.15,-28.23"/>
<polygon fill="midnightblue" stroke="midnightblue" points="902.12,-30.08 904.49,-19.75 896.2,-26.35 902.12,-30.08"/>
</g>
<!-- Node17&#45;&gt;Node3 -->
<g id="edge20" class="edge">
<title>Node17&#45;&gt;Node3</title>
<path fill="none" stroke="midnightblue" d="M314.47,-113.78C279.91,-105.76 230.29,-91.86 219,-76 213.84,-68.76 213.13,-62.67 219,-56 238.98,-33.29 435.97,-18.89 525.78,-13.45"/>
<polygon fill="midnightblue" stroke="midnightblue" points="526.15,-16.94 535.93,-12.85 525.74,-9.95 526.15,-16.94"/>
</g>
<!-- Node17&#45;&gt;Node7 -->
<g id="edge21" class="edge">
<title>Node17&#45;&gt;Node7</title>
<path fill="none" stroke="midnightblue" d="M334.38,-112.32C320.05,-103.82 297.99,-90.73 281.25,-80.8"/>
<polygon fill="midnightblue" stroke="midnightblue" points="282.97,-77.75 272.58,-75.65 279.4,-83.77 282.97,-77.75"/>
</g>
<!-- Node19&#45;&gt;Node17 -->
<g id="edge26" class="edge">
<title>Node19&#45;&gt;Node17</title>
<path fill="none" stroke="midnightblue" d="M360.69,-168.08C358.83,-160.93 356.16,-150.64 353.85,-141.69"/>
<polygon fill="midnightblue" stroke="midnightblue" points="357.17,-140.55 351.27,-131.75 350.39,-142.31 357.17,-140.55"/>
</g>
<!-- Node21 -->
<g id="node21" class="node">
<title>Node21</title>
<g id="a_node21"><a xlink:href="itkMetaDataObjectBase_8h.html" target="_top" xlink:title=" ">
<polygon fill="white" stroke="black" points="304,-224.5 304,-243.5 446,-243.5 446,-224.5 304,-224.5"/>
<text text-anchor="middle" x="375" y="-231.5" font-family="Helvetica,sans-Serif" font-size="10.00">itkMetaDataObjectBase.h</text>
</a>
</g>
</g>
<!-- Node20&#45;&gt;Node21 -->
<g id="edge28" class="edge">
<title>Node20&#45;&gt;Node21</title>
<path fill="none" stroke="midnightblue" d="M284.35,-280.32C301.67,-271.66 328.52,-258.24 348.5,-248.25"/>
<polygon fill="midnightblue" stroke="midnightblue" points="350.31,-251.26 357.69,-243.65 347.18,-245 350.31,-251.26"/>
</g>
<!-- Node22 -->
<g id="node22" class="node">
<title>Node22</title>
<g id="a_node22"><a xlink:title=" ">
<polygon fill="white" stroke="#bfbfbf" points="166,-224.5 166,-243.5 230,-243.5 230,-224.5 166,-224.5"/>
<text text-anchor="middle" x="198" y="-231.5" font-family="Helvetica,sans-Serif" font-size="10.00">algorithm</text>
</a>
</g>
</g>
<!-- Node20&#45;&gt;Node22 -->
<g id="edge32" class="edge">
<title>Node20&#45;&gt;Node22</title>
<path fill="none" stroke="midnightblue" d="M255.91,-280.32C245.51,-272.18 229.74,-259.84 217.28,-250.09"/>
<polygon fill="midnightblue" stroke="midnightblue" points="219.32,-247.24 209.29,-243.83 215.01,-252.75 219.32,-247.24"/>
</g>
<!-- Node23 -->
<g id="node23" class="node">
<title>Node23</title>
<g id="a_node23"><a xlink:title=" ">
<polygon fill="white" stroke="#bfbfbf" points="464.5,-224.5 464.5,-243.5 511.5,-243.5 511.5,-224.5 464.5,-224.5"/>
<text text-anchor="middle" x="488" y="-231.5" font-family="Helvetica,sans-Serif" font-size="10.00">vector</text>
</a>
</g>
</g>
<!-- Node20&#45;&gt;Node23 -->
<g id="edge33" class="edge">
<title>Node20&#45;&gt;Node23</title>
<path fill="none" stroke="midnightblue" d="M304.18,-280.46C340.17,-272.12 396.48,-258.85 454.52,-244.06"/>
<polygon fill="midnightblue" stroke="midnightblue" points="455.41,-247.45 464.23,-241.58 453.68,-240.67 455.41,-247.45"/>
</g>
<!-- Node24 -->
<g id="node24" class="node">
<title>Node24</title>
<g id="a_node24"><a xlink:title=" ">
<polygon fill="white" stroke="#bfbfbf" points="248,-224.5 248,-243.5 286,-243.5 286,-224.5 248,-224.5"/>
<text text-anchor="middle" x="267" y="-231.5" font-family="Helvetica,sans-Serif" font-size="10.00">map</text>
</a>
</g>
</g>
<!-- Node20&#45;&gt;Node24 -->
<g id="edge34" class="edge">
<title>Node20&#45;&gt;Node24</title>
<path fill="none" stroke="midnightblue" d="M267,-280.08C267,-273.01 267,-262.86 267,-253.99"/>
<polygon fill="midnightblue" stroke="midnightblue" points="270.5,-253.75 267,-243.75 263.5,-253.75 270.5,-253.75"/>
</g>
<!-- Node20&#45;&gt;Node25 -->
<g id="edge35" class="edge">
<title>Node20&#45;&gt;Node25</title>
<path fill="none" stroke="midnightblue" d="M229.47,-280.44C193.87,-272.21 138.66,-259.15 82.14,-244.22"/>
<polygon fill="midnightblue" stroke="midnightblue" points="82.88,-240.8 72.32,-241.61 81.08,-247.56 82.88,-240.8"/>
</g>
<!-- Node26 -->
<g id="node26" class="node">
<title>Node26</title>
<g id="a_node26"><a xlink:title=" ">
<polygon fill="white" stroke="#bfbfbf" points="90,-224.5 90,-243.5 148,-243.5 148,-224.5 90,-224.5"/>
<text text-anchor="middle" x="119" y="-231.5" font-family="Helvetica,sans-Serif" font-size="10.00">memory</text>
</a>
</g>
</g>
<!-- Node20&#45;&gt;Node26 -->
<g id="edge36" class="edge">
<title>Node20&#45;&gt;Node26</title>
<path fill="none" stroke="midnightblue" d="M243.55,-280.44C218.87,-271.44 179.81,-257.19 152.02,-247.05"/>
<polygon fill="midnightblue" stroke="midnightblue" points="152.94,-243.66 142.34,-243.52 150.54,-250.23 152.94,-243.66"/>
</g>
<!-- Node21&#45;&gt;Node5 -->
<g id="edge29" class="edge">
<title>Node21&#45;&gt;Node5</title>
<path fill="none" stroke="midnightblue" d="M393.38,-224.44C412.22,-215.68 441.73,-201.94 463.38,-191.86"/>
<polygon fill="midnightblue" stroke="midnightblue" points="465.12,-194.91 472.71,-187.52 462.16,-188.56 465.12,-194.91"/>
</g>
<!-- Node21&#45;&gt;Node7 -->
<g id="edge31" class="edge">
<title>Node21&#45;&gt;Node7</title>
<path fill="none" stroke="midnightblue" d="M348.4,-224.5C312.62,-211.35 251.06,-182.22 230,-132 223.13,-115.61 232.96,-97 242.81,-83.9"/>
<polygon fill="midnightblue" stroke="midnightblue" points="245.81,-85.76 249.43,-75.81 240.39,-81.33 245.81,-85.76"/>
</g>
<!-- Node21&#45;&gt;Node18 -->
<g id="edge30" class="edge">
<title>Node21&#45;&gt;Node18</title>
<path fill="none" stroke="midnightblue" d="M356.9,-224.49C341.66,-216.65 320,-203.84 305,-188 292.05,-174.33 281.9,-155.29 275.53,-141.35"/>
<polygon fill="midnightblue" stroke="midnightblue" points="278.6,-139.64 271.41,-131.85 272.18,-142.42 278.6,-139.64"/>
</g>
<!-- Node29 -->
<g id="node29" class="node">
<title>Node29</title>
<g id="a_node29"><a xlink:href="itkObjectFactoryBase_8h.html" target="_top" xlink:title=" ">
<polygon fill="white" stroke="black" points="681.5,-448.5 681.5,-467.5 810.5,-467.5 810.5,-448.5 681.5,-448.5"/>
<text text-anchor="middle" x="746" y="-455.5" font-family="Helvetica,sans-Serif" font-size="10.00">itkObjectFactoryBase.h</text>
</a>
</g>
</g>
<!-- Node28&#45;&gt;Node29 -->
<g id="edge40" class="edge">
<title>Node28&#45;&gt;Node29</title>
<path fill="none" stroke="midnightblue" d="M572.64,-504.44C608.05,-495.16 664.71,-480.31 703.55,-470.13"/>
<polygon fill="midnightblue" stroke="midnightblue" points="704.73,-473.44 713.51,-467.52 702.95,-466.67 704.73,-473.44"/>
</g>
<!-- Node29&#45;&gt;Node16 -->
<g id="edge43" class="edge">
<title>Node29&#45;&gt;Node16</title>
<path fill="none" stroke="midnightblue" d="M758.14,-448.34C768.8,-440.13 783.97,-426.87 793,-412 808.62,-386.27 812,-377.1 812,-347 812,-347 812,-347 812,-177 812,-141.24 789.55,-104.51 774.44,-83.84"/>
<polygon fill="midnightblue" stroke="midnightblue" points="777.14,-81.61 768.31,-75.77 771.57,-85.85 777.14,-81.61"/>
</g>
<!-- Node29&#45;&gt;Node23 -->
<g id="edge48" class="edge">
<title>Node29&#45;&gt;Node23</title>
<path fill="none" stroke="midnightblue" d="M743.56,-448.46C734.94,-419.92 703.24,-327.06 643,-280 607.63,-252.37 555.85,-241.7 522.03,-237.58"/>
<polygon fill="midnightblue" stroke="midnightblue" points="522.05,-234.06 511.73,-236.46 521.29,-241.02 522.05,-234.06"/>
</g>
<!-- Node30 -->
<g id="node30" class="node">
<title>Node30</title>
<g id="a_node30"><a xlink:href="itkCreateObjectFunction_8h.html" target="_top" xlink:title=" ">
<polygon fill="white" stroke="black" points="534.5,-392.5 534.5,-411.5 677.5,-411.5 677.5,-392.5 534.5,-392.5"/>
<text text-anchor="middle" x="606" y="-399.5" font-family="Helvetica,sans-Serif" font-size="10.00">itkCreateObjectFunction.h</text>
</a>
</g>
</g>
<!-- Node29&#45;&gt;Node30 -->
<g id="edge41" class="edge">
<title>Node29&#45;&gt;Node30</title>
<path fill="none" stroke="midnightblue" d="M723.82,-448.44C700.57,-439.48 663.85,-425.31 637.58,-415.18"/>
<polygon fill="midnightblue" stroke="midnightblue" points="638.67,-411.85 628.08,-411.52 636.15,-418.38 638.67,-411.85"/>
</g>
<!-- Node31 -->
<g id="node31" class="node">
<title>Node31</title>
<g id="a_node31"><a xlink:href="itkCommonEnums_8h.html" target="_top" xlink:title=" ">
<polygon fill="white" stroke="black" points="840,-392.5 840,-411.5 956,-411.5 956,-392.5 840,-392.5"/>
<text text-anchor="middle" x="898" y="-399.5" font-family="Helvetica,sans-Serif" font-size="10.00">itkCommonEnums.h</text>
</a>
</g>
</g>
<!-- Node29&#45;&gt;Node31 -->
<g id="edge44" class="edge">
<title>Node29&#45;&gt;Node31</title>
<path fill="none" stroke="midnightblue" d="M770.08,-448.44C795.54,-439.4 835.89,-425.06 864.46,-414.92"/>
<polygon fill="midnightblue" stroke="midnightblue" points="865.78,-418.16 874.03,-411.52 863.43,-411.57 865.78,-418.16"/>
</g>
<!-- Node33 -->
<g id="node33" class="node">
<title>Node33</title>
<g id="a_node33"><a xlink:title=" ">
<polygon fill="white" stroke="#bfbfbf" points="752,-392.5 752,-411.5 784,-411.5 784,-392.5 752,-392.5"/>
<text text-anchor="middle" x="768" y="-399.5" font-family="Helvetica,sans-Serif" font-size="10.00">list</text>
</a>
</g>
</g>
<!-- Node29&#45;&gt;Node33 -->
<g id="edge47" class="edge">
<title>Node29&#45;&gt;Node33</title>
<path fill="none" stroke="midnightblue" d="M749.63,-448.08C752.61,-440.77 756.93,-430.18 760.62,-421.1"/>
<polygon fill="midnightblue" stroke="midnightblue" points="763.9,-422.33 764.43,-411.75 757.42,-419.69 763.9,-422.33"/>
</g>
<!-- Node30&#45;&gt;Node4 -->
<g id="edge42" class="edge">
<title>Node30&#45;&gt;Node4</title>
<path fill="none" stroke="midnightblue" d="M605.17,-392.08C604.52,-385.01 603.58,-374.86 602.76,-365.99"/>
<polygon fill="midnightblue" stroke="midnightblue" points="606.22,-365.39 601.81,-355.75 599.25,-366.03 606.22,-365.39"/>
</g>
<!-- Node31&#45;&gt;Node12 -->
<g id="edge45" class="edge">
<title>Node31&#45;&gt;Node12</title>
<path fill="none" stroke="midnightblue" d="M901.78,-392.35C909.42,-374.03 926,-329.82 926,-291 926,-291 926,-291 926,-177 926,-141.18 903.76,-104.21 888.95,-83.56"/>
<polygon fill="midnightblue" stroke="midnightblue" points="891.73,-81.45 882.95,-75.52 886.12,-85.63 891.73,-81.45"/>
</g>
<!-- Node32 -->
<g id="node32" class="node">
<title>Node32</title>
<g id="a_node32"><a xlink:title=" ">
<polygon fill="white" stroke="#bfbfbf" points="840.5,-336.5 840.5,-355.5 897.5,-355.5 897.5,-336.5 840.5,-336.5"/>
<text text-anchor="middle" x="869" y="-343.5" font-family="Helvetica,sans-Serif" font-size="10.00">ostream</text>
</a>
</g>
</g>
<!-- Node31&#45;&gt;Node32 -->
<g id="edge46" class="edge">
<title>Node31&#45;&gt;Node32</title>
<path fill="none" stroke="midnightblue" d="M893.21,-392.08C889.24,-384.69 883.47,-373.95 878.57,-364.81"/>
<polygon fill="midnightblue" stroke="midnightblue" points="881.51,-362.91 873.7,-355.75 875.35,-366.22 881.51,-362.91"/>
</g>
</g>
</svg>
