<?xml version="1.0" encoding="UTF-8" standalone="no"?>
<!DOCTYPE svg PUBLIC "-//W3C//DTD SVG 1.1//EN"
 "http://www.w3.org/Graphics/SVG/1.1/DTD/svg11.dtd">
<!-- Generated by graphviz version 2.43.0 (0)
 -->
<!-- Title: itkNonLinearOptimizer.h Pages: 1 -->
<svg width="1274pt" height="666pt"
 viewBox="0.00 0.00 1274.00 666.00" xmlns="http://www.w3.org/2000/svg" xmlns:xlink="http://www.w3.org/1999/xlink">
<g id="graph0" class="graph" transform="scale(1 1) rotate(0) translate(4 662)">
<title>itkNonLinearOptimizer.h</title>
<polygon fill="white" stroke="transparent" points="-4,4 -4,-662 1270,-662 1270,4 -4,4"/>
<!-- Node1 -->
<g id="node1" class="node">
<title>Node1</title>
<g id="a_node1"><a xlink:title=" ">
<polygon fill="#bfbfbf" stroke="black" points="724.5,-638.5 724.5,-657.5 859.5,-657.5 859.5,-638.5 724.5,-638.5"/>
<text text-anchor="middle" x="792" y="-645.5" font-family="Helvetica,sans-Serif" font-size="10.00">itkNonLinearOptimizer.h</text>
</a>
</g>
</g>
<!-- Node2 -->
<g id="node2" class="node">
<title>Node2</title>
<g id="a_node2"><a xlink:href="itkOptimizer_8h.html" target="_top" xlink:title=" ">
<polygon fill="white" stroke="black" points="714,-582.5 714,-601.5 800,-601.5 800,-582.5 714,-582.5"/>
<text text-anchor="middle" x="757" y="-589.5" font-family="Helvetica,sans-Serif" font-size="10.00">itkOptimizer.h</text>
</a>
</g>
</g>
<!-- Node1&#45;&gt;Node2 -->
<g id="edge1" class="edge">
<title>Node1&#45;&gt;Node2</title>
<path fill="none" stroke="midnightblue" d="M786.22,-638.08C781.33,-630.53 774.17,-619.49 768.17,-610.23"/>
<polygon fill="midnightblue" stroke="midnightblue" points="771.05,-608.24 762.67,-601.75 765.17,-612.05 771.05,-608.24"/>
</g>
<!-- Node41 -->
<g id="node41" class="node">
<title>Node41</title>
<g id="a_node41"><a xlink:title=" ">
<polygon fill="white" stroke="#bfbfbf" points="867.5,-526.5 867.5,-545.5 992.5,-545.5 992.5,-526.5 867.5,-526.5"/>
<text text-anchor="middle" x="930" y="-533.5" font-family="Helvetica,sans-Serif" font-size="10.00">ITKOptimizersExport.h</text>
</a>
</g>
</g>
<!-- Node1&#45;&gt;Node41 -->
<g id="edge61" class="edge">
<title>Node1&#45;&gt;Node41</title>
<path fill="none" stroke="midnightblue" d="M802.83,-638.37C826.31,-619.65 882.14,-575.15 911.39,-551.83"/>
<polygon fill="midnightblue" stroke="midnightblue" points="913.58,-554.56 919.22,-545.59 909.22,-549.09 913.58,-554.56"/>
</g>
<!-- Node3 -->
<g id="node3" class="node">
<title>Node3</title>
<g id="a_node3"><a xlink:href="itkObject_8h.html" target="_top" xlink:title=" ">
<polygon fill="white" stroke="black" points="727,-358.5 727,-377.5 797,-377.5 797,-358.5 727,-358.5"/>
<text text-anchor="middle" x="762" y="-365.5" font-family="Helvetica,sans-Serif" font-size="10.00">itkObject.h</text>
</a>
</g>
</g>
<!-- Node2&#45;&gt;Node3 -->
<g id="edge2" class="edge">
<title>Node2&#45;&gt;Node3</title>
<path fill="none" stroke="midnightblue" d="M751.62,-582.44C746.44,-573.68 738.99,-559.47 736,-546 723.25,-488.52 743.64,-419.11 755.08,-386.96"/>
<polygon fill="midnightblue" stroke="midnightblue" points="758.37,-388.15 758.56,-377.55 751.81,-385.72 758.37,-388.15"/>
</g>
<!-- Node28 -->
<g id="node28" class="node">
<title>Node28</title>
<g id="a_node28"><a xlink:href="itkObjectFactory_8h.html" target="_top" xlink:title=" ">
<polygon fill="white" stroke="black" points="745,-526.5 745,-545.5 849,-545.5 849,-526.5 745,-526.5"/>
<text text-anchor="middle" x="797" y="-533.5" font-family="Helvetica,sans-Serif" font-size="10.00">itkObjectFactory.h</text>
</a>
</g>
</g>
<!-- Node2&#45;&gt;Node28 -->
<g id="edge38" class="edge">
<title>Node2&#45;&gt;Node28</title>
<path fill="none" stroke="midnightblue" d="M763.61,-582.08C769.26,-574.46 777.54,-563.26 784.45,-553.94"/>
<polygon fill="midnightblue" stroke="midnightblue" points="787.38,-555.87 790.52,-545.75 781.75,-551.7 787.38,-555.87"/>
</g>
<!-- Node34 -->
<g id="node34" class="node">
<title>Node34</title>
<g id="a_node34"><a xlink:href="itkArray_8h.html" target="_top" xlink:title=" ">
<polygon fill="white" stroke="black" points="276.5,-358.5 276.5,-377.5 339.5,-377.5 339.5,-358.5 276.5,-358.5"/>
<text text-anchor="middle" x="308" y="-365.5" font-family="Helvetica,sans-Serif" font-size="10.00">itkArray.h</text>
</a>
</g>
</g>
<!-- Node2&#45;&gt;Node34 -->
<g id="edge48" class="edge">
<title>Node2&#45;&gt;Node34</title>
<path fill="none" stroke="midnightblue" d="M717.21,-582.47C652.98,-567.96 523.24,-535.56 420,-490 375.16,-470.21 354.54,-473.11 325,-434 315,-420.77 310.87,-402.18 309.16,-388.27"/>
<polygon fill="midnightblue" stroke="midnightblue" points="312.61,-387.55 308.23,-377.91 305.64,-388.18 312.61,-387.55"/>
</g>
<!-- Node39 -->
<g id="node39" class="node">
<title>Node39</title>
<g id="a_node39"><a xlink:href="itkOptimizerParameters_8h.html" target="_top" xlink:title=" ">
<polygon fill="white" stroke="black" points="429,-470.5 429,-489.5 571,-489.5 571,-470.5 429,-470.5"/>
<text text-anchor="middle" x="500" y="-477.5" font-family="Helvetica,sans-Serif" font-size="10.00">itkOptimizerParameters.h</text>
</a>
</g>
</g>
<!-- Node2&#45;&gt;Node39 -->
<g id="edge54" class="edge">
<title>Node2&#45;&gt;Node39</title>
<path fill="none" stroke="midnightblue" d="M736.83,-582.37C691.7,-563.05 582.38,-516.26 529.55,-493.65"/>
<polygon fill="midnightblue" stroke="midnightblue" points="530.64,-490.31 520.07,-489.59 527.89,-496.74 530.64,-490.31"/>
</g>
<!-- Node2&#45;&gt;Node41 -->
<g id="edge60" class="edge">
<title>Node2&#45;&gt;Node41</title>
<path fill="none" stroke="midnightblue" d="M784.41,-582.44C813.77,-573.28 860.52,-558.69 893.1,-548.52"/>
<polygon fill="midnightblue" stroke="midnightblue" points="894.21,-551.84 902.72,-545.52 892.13,-545.16 894.21,-551.84"/>
</g>
<!-- Node4 -->
<g id="node4" class="node">
<title>Node4</title>
<g id="a_node4"><a xlink:href="itkLightObject_8h.html" target="_top" xlink:title=" ">
<polygon fill="white" stroke="black" points="796,-168.5 796,-187.5 890,-187.5 890,-168.5 796,-168.5"/>
<text text-anchor="middle" x="843" y="-175.5" font-family="Helvetica,sans-Serif" font-size="10.00">itkLightObject.h</text>
</a>
</g>
</g>
<!-- Node3&#45;&gt;Node4 -->
<g id="edge3" class="edge">
<title>Node3&#45;&gt;Node4</title>
<path fill="none" stroke="midnightblue" d="M780.11,-358.47C831.62,-334.01 976.02,-264.16 988,-244 1010.28,-206.5 949.73,-190.53 900.17,-183.8"/>
<polygon fill="midnightblue" stroke="midnightblue" points="900.47,-180.31 890.11,-182.53 899.6,-187.25 900.47,-180.31"/>
</g>
<!-- Node16 -->
<g id="node16" class="node">
<title>Node16</title>
<g id="a_node16"><a xlink:href="itkSingletonMacro_8h.html" target="_top" xlink:title=" ">
<polygon fill="white" stroke="black" points="990,-56.5 990,-75.5 1104,-75.5 1104,-56.5 990,-56.5"/>
<text text-anchor="middle" x="1047" y="-63.5" font-family="Helvetica,sans-Serif" font-size="10.00">itkSingletonMacro.h</text>
</a>
</g>
</g>
<!-- Node3&#45;&gt;Node16 -->
<g id="edge36" class="edge">
<title>Node3&#45;&gt;Node16</title>
<path fill="none" stroke="midnightblue" d="M797.17,-365.72C861.28,-362.64 993.55,-352.65 1026,-322 1054.84,-294.76 1046,-274.68 1046,-235 1046,-235 1046,-235 1046,-177 1046,-144.95 1046.43,-107.64 1046.73,-85.75"/>
<polygon fill="midnightblue" stroke="midnightblue" points="1050.23,-85.61 1046.87,-75.56 1043.23,-85.51 1050.23,-85.61"/>
</g>
<!-- Node19 -->
<g id="node19" class="node">
<title>Node19</title>
<g id="a_node19"><a xlink:href="itkEventObject_8h.html" target="_top" xlink:title=" ">
<polygon fill="white" stroke="black" points="443,-168.5 443,-187.5 541,-187.5 541,-168.5 443,-168.5"/>
<text text-anchor="middle" x="492" y="-175.5" font-family="Helvetica,sans-Serif" font-size="10.00">itkEventObject.h</text>
</a>
</g>
</g>
<!-- Node3&#45;&gt;Node19 -->
<g id="edge24" class="edge">
<title>Node3&#45;&gt;Node19</title>
<path fill="none" stroke="midnightblue" d="M737.99,-358.49C714.15,-349.88 676.7,-335.88 645,-322 609.13,-306.29 507.67,-277.26 487,-244 478.42,-230.2 481.04,-211.42 484.99,-197.6"/>
<polygon fill="midnightblue" stroke="midnightblue" points="488.43,-198.36 488.26,-187.77 481.79,-196.15 488.43,-198.36"/>
</g>
<!-- Node20 -->
<g id="node20" class="node">
<title>Node20</title>
<g id="a_node20"><a xlink:href="itkMetaDataDictionary_8h.html" target="_top" xlink:title=" ">
<polygon fill="white" stroke="black" points="654.5,-291.5 654.5,-310.5 789.5,-310.5 789.5,-291.5 654.5,-291.5"/>
<text text-anchor="middle" x="722" y="-298.5" font-family="Helvetica,sans-Serif" font-size="10.00">itkMetaDataDictionary.h</text>
</a>
</g>
</g>
<!-- Node3&#45;&gt;Node20 -->
<g id="edge26" class="edge">
<title>Node3&#45;&gt;Node20</title>
<path fill="none" stroke="midnightblue" d="M756.61,-358.23C750.49,-348.29 740.36,-331.84 732.64,-319.29"/>
<polygon fill="midnightblue" stroke="midnightblue" points="735.53,-317.31 727.31,-310.63 729.57,-320.98 735.53,-317.31"/>
</g>
<!-- Node27 -->
<g id="node27" class="node">
<title>Node27</title>
<g id="a_node27"><a xlink:title=" ">
<polygon fill="white" stroke="#bfbfbf" points="952.5,-291.5 952.5,-310.5 1017.5,-310.5 1017.5,-291.5 952.5,-291.5"/>
<text text-anchor="middle" x="985" y="-298.5" font-family="Helvetica,sans-Serif" font-size="10.00">functional</text>
</a>
</g>
</g>
<!-- Node3&#45;&gt;Node27 -->
<g id="edge37" class="edge">
<title>Node3&#45;&gt;Node27</title>
<path fill="none" stroke="midnightblue" d="M797.19,-359.66C833.05,-351.79 890.05,-338.23 938,-322 944.28,-319.87 950.91,-317.28 957.14,-314.68"/>
<polygon fill="midnightblue" stroke="midnightblue" points="958.7,-317.82 966.5,-310.64 955.93,-311.39 958.7,-317.82"/>
</g>
<!-- Node5 -->
<g id="node5" class="node">
<title>Node5</title>
<g id="a_node5"><a xlink:href="itkMacro_8h.html" target="_top" xlink:title=" ">
<polygon fill="white" stroke="black" points="822,-0.5 822,-19.5 890,-19.5 890,-0.5 822,-0.5"/>
<text text-anchor="middle" x="856" y="-7.5" font-family="Helvetica,sans-Serif" font-size="10.00">itkMacro.h</text>
</a>
</g>
</g>
<!-- Node4&#45;&gt;Node5 -->
<g id="edge4" class="edge">
<title>Node4&#45;&gt;Node5</title>
<path fill="none" stroke="midnightblue" d="M843.7,-168.08C845.75,-141.95 851.75,-65.21 854.55,-29.58"/>
<polygon fill="midnightblue" stroke="midnightblue" points="858.04,-29.81 855.33,-19.57 851.06,-29.26 858.04,-29.81"/>
</g>
<!-- Node6 -->
<g id="node6" class="node">
<title>Node6</title>
<g id="a_node6"><a xlink:href="itkSmartPointer_8h.html" target="_top" xlink:title=" ">
<polygon fill="white" stroke="black" points="726.5,-112.5 726.5,-131.5 827.5,-131.5 827.5,-112.5 726.5,-112.5"/>
<text text-anchor="middle" x="777" y="-119.5" font-family="Helvetica,sans-Serif" font-size="10.00">itkSmartPointer.h</text>
</a>
</g>
</g>
<!-- Node4&#45;&gt;Node6 -->
<g id="edge5" class="edge">
<title>Node4&#45;&gt;Node6</title>
<path fill="none" stroke="midnightblue" d="M832.4,-168.32C822.54,-160.26 807.65,-148.08 795.78,-138.37"/>
<polygon fill="midnightblue" stroke="midnightblue" points="797.75,-135.46 787.8,-131.83 793.32,-140.88 797.75,-135.46"/>
</g>
<!-- Node7 -->
<g id="node7" class="node">
<title>Node7</title>
<g id="a_node7"><a xlink:title=" ">
<polygon fill="white" stroke="#bfbfbf" points="514,-56.5 514,-75.5 574,-75.5 574,-56.5 514,-56.5"/>
<text text-anchor="middle" x="544" y="-63.5" font-family="Helvetica,sans-Serif" font-size="10.00">iostream</text>
</a>
</g>
</g>
<!-- Node4&#45;&gt;Node7 -->
<g id="edge22" class="edge">
<title>Node4&#45;&gt;Node7</title>
<path fill="none" stroke="midnightblue" d="M815.57,-168.35C789.77,-159.95 750.26,-146.39 717,-132 699.12,-124.26 695.95,-119.57 678,-112 646.82,-98.86 610.35,-86.82 583.34,-78.51"/>
<polygon fill="midnightblue" stroke="midnightblue" points="584.07,-75.07 573.48,-75.51 582.03,-81.77 584.07,-75.07"/>
</g>
<!-- Node11 -->
<g id="node11" class="node">
<title>Node11</title>
<g id="a_node11"><a xlink:href="itkTimeStamp_8h.html" target="_top" xlink:title=" ">
<polygon fill="white" stroke="black" points="922.5,-112.5 922.5,-131.5 1017.5,-131.5 1017.5,-112.5 922.5,-112.5"/>
<text text-anchor="middle" x="970" y="-119.5" font-family="Helvetica,sans-Serif" font-size="10.00">itkTimeStamp.h</text>
</a>
</g>
</g>
<!-- Node4&#45;&gt;Node11 -->
<g id="edge10" class="edge">
<title>Node4&#45;&gt;Node11</title>
<path fill="none" stroke="midnightblue" d="M863.12,-168.44C884.02,-159.56 916.93,-145.56 940.72,-135.45"/>
<polygon fill="midnightblue" stroke="midnightblue" points="942.14,-138.65 949.97,-131.52 939.4,-132.21 942.14,-138.65"/>
</g>
<!-- Node15 -->
<g id="node15" class="node">
<title>Node15</title>
<g id="a_node15"><a xlink:title=" ">
<polygon fill="white" stroke="#bfbfbf" points="884,-56.5 884,-75.5 934,-75.5 934,-56.5 884,-56.5"/>
<text text-anchor="middle" x="909" y="-63.5" font-family="Helvetica,sans-Serif" font-size="10.00">atomic</text>
</a>
</g>
</g>
<!-- Node4&#45;&gt;Node15 -->
<g id="edge21" class="edge">
<title>Node4&#45;&gt;Node15</title>
<path fill="none" stroke="midnightblue" d="M848.18,-168.37C859.02,-150.3 884.29,-108.18 898.62,-84.31"/>
<polygon fill="midnightblue" stroke="midnightblue" points="901.7,-85.97 903.85,-75.59 895.7,-82.37 901.7,-85.97"/>
</g>
<!-- Node17 -->
<g id="node17" class="node">
<title>Node17</title>
<g id="a_node17"><a xlink:href="itkIndent_8h.html" target="_top" xlink:title=" ">
<polygon fill="white" stroke="black" points="469.5,-112.5 469.5,-131.5 538.5,-131.5 538.5,-112.5 469.5,-112.5"/>
<text text-anchor="middle" x="504" y="-119.5" font-family="Helvetica,sans-Serif" font-size="10.00">itkIndent.h</text>
</a>
</g>
</g>
<!-- Node4&#45;&gt;Node17 -->
<g id="edge18" class="edge">
<title>Node4&#45;&gt;Node17</title>
<path fill="none" stroke="midnightblue" d="M795.86,-169.49C730.55,-159.09 613.33,-140.42 549.11,-130.19"/>
<polygon fill="midnightblue" stroke="midnightblue" points="549.32,-126.67 538.89,-128.56 548.22,-133.59 549.32,-126.67"/>
</g>
<!-- Node18 -->
<g id="node18" class="node">
<title>Node18</title>
<g id="a_node18"><a xlink:title=" ">
<polygon fill="white" stroke="#bfbfbf" points="612.5,-112.5 612.5,-131.5 669.5,-131.5 669.5,-112.5 612.5,-112.5"/>
<text text-anchor="middle" x="641" y="-119.5" font-family="Helvetica,sans-Serif" font-size="10.00">typeinfo</text>
</a>
</g>
</g>
<!-- Node4&#45;&gt;Node18 -->
<g id="edge23" class="edge">
<title>Node4&#45;&gt;Node18</title>
<path fill="none" stroke="midnightblue" d="M810.99,-168.44C775.25,-158.89 717.43,-143.43 679.31,-133.24"/>
<polygon fill="midnightblue" stroke="midnightblue" points="680.16,-129.84 669.59,-130.64 678.35,-136.61 680.16,-129.84"/>
</g>
<!-- Node6&#45;&gt;Node7 -->
<g id="edge6" class="edge">
<title>Node6&#45;&gt;Node7</title>
<path fill="none" stroke="midnightblue" d="M740.08,-112.44C697.55,-102.59 627.92,-86.45 584.09,-76.29"/>
<polygon fill="midnightblue" stroke="midnightblue" points="584.61,-72.82 574.08,-73.97 583.03,-79.64 584.61,-72.82"/>
</g>
<!-- Node8 -->
<g id="node8" class="node">
<title>Node8</title>
<g id="a_node8"><a xlink:title=" ">
<polygon fill="white" stroke="#bfbfbf" points="782.5,-56.5 782.5,-75.5 827.5,-75.5 827.5,-56.5 782.5,-56.5"/>
<text text-anchor="middle" x="805" y="-63.5" font-family="Helvetica,sans-Serif" font-size="10.00">utility</text>
</a>
</g>
</g>
<!-- Node6&#45;&gt;Node8 -->
<g id="edge7" class="edge">
<title>Node6&#45;&gt;Node8</title>
<path fill="none" stroke="midnightblue" d="M781.62,-112.08C785.46,-104.69 791.02,-93.95 795.76,-84.81"/>
<polygon fill="midnightblue" stroke="midnightblue" points="798.97,-86.24 800.46,-75.75 792.75,-83.02 798.97,-86.24"/>
</g>
<!-- Node9 -->
<g id="node9" class="node">
<title>Node9</title>
<g id="a_node9"><a xlink:title=" ">
<polygon fill="white" stroke="#bfbfbf" points="592.5,-56.5 592.5,-75.5 661.5,-75.5 661.5,-56.5 592.5,-56.5"/>
<text text-anchor="middle" x="627" y="-63.5" font-family="Helvetica,sans-Serif" font-size="10.00">type_traits</text>
</a>
</g>
</g>
<!-- Node6&#45;&gt;Node9 -->
<g id="edge8" class="edge">
<title>Node6&#45;&gt;Node9</title>
<path fill="none" stroke="midnightblue" d="M753.23,-112.44C728.11,-103.4 688.29,-89.06 660.1,-78.92"/>
<polygon fill="midnightblue" stroke="midnightblue" points="661.25,-75.61 650.66,-75.52 658.88,-82.2 661.25,-75.61"/>
</g>
<!-- Node10 -->
<g id="node10" class="node">
<title>Node10</title>
<g id="a_node10"><a xlink:title=" ">
<polygon fill="white" stroke="#bfbfbf" points="679.5,-56.5 679.5,-75.5 764.5,-75.5 764.5,-56.5 679.5,-56.5"/>
<text text-anchor="middle" x="722" y="-63.5" font-family="Helvetica,sans-Serif" font-size="10.00">itkConfigure.h</text>
</a>
</g>
</g>
<!-- Node6&#45;&gt;Node10 -->
<g id="edge9" class="edge">
<title>Node6&#45;&gt;Node10</title>
<path fill="none" stroke="midnightblue" d="M767.92,-112.08C759.83,-104.14 747.8,-92.34 738.09,-82.8"/>
<polygon fill="midnightblue" stroke="midnightblue" points="740.5,-80.26 730.91,-75.75 735.6,-85.25 740.5,-80.26"/>
</g>
<!-- Node11&#45;&gt;Node5 -->
<g id="edge11" class="edge">
<title>Node11&#45;&gt;Node5</title>
<path fill="none" stroke="midnightblue" d="M968.41,-112.39C965.51,-98.89 958.22,-72.55 943,-56 929.53,-41.35 910.19,-30.69 893.17,-23.44"/>
<polygon fill="midnightblue" stroke="midnightblue" points="894.06,-20.02 883.47,-19.55 891.46,-26.52 894.06,-20.02"/>
</g>
<!-- Node12 -->
<g id="node12" class="node">
<title>Node12</title>
<g id="a_node12"><a xlink:href="itkIntTypes_8h.html" target="_top" xlink:title=" ">
<polygon fill="white" stroke="black" points="1122.5,-56.5 1122.5,-75.5 1201.5,-75.5 1201.5,-56.5 1122.5,-56.5"/>
<text text-anchor="middle" x="1162" y="-63.5" font-family="Helvetica,sans-Serif" font-size="10.00">itkIntTypes.h</text>
</a>
</g>
</g>
<!-- Node11&#45;&gt;Node12 -->
<g id="edge12" class="edge">
<title>Node11&#45;&gt;Node12</title>
<path fill="none" stroke="midnightblue" d="M1000.42,-112.44C1033.28,-103.2 1085.78,-88.44 1121.97,-78.26"/>
<polygon fill="midnightblue" stroke="midnightblue" points="1123.04,-81.59 1131.72,-75.52 1121.15,-74.85 1123.04,-81.59"/>
</g>
<!-- Node11&#45;&gt;Node15 -->
<g id="edge16" class="edge">
<title>Node11&#45;&gt;Node15</title>
<path fill="none" stroke="midnightblue" d="M960.2,-112.32C951.18,-104.34 937.59,-92.31 926.68,-82.65"/>
<polygon fill="midnightblue" stroke="midnightblue" points="928.79,-79.84 918.98,-75.83 924.15,-85.08 928.79,-79.84"/>
</g>
<!-- Node11&#45;&gt;Node16 -->
<g id="edge17" class="edge">
<title>Node11&#45;&gt;Node16</title>
<path fill="none" stroke="midnightblue" d="M982.37,-112.32C994.16,-104.06 1012.13,-91.45 1026.14,-81.63"/>
<polygon fill="midnightblue" stroke="midnightblue" points="1028.48,-84.26 1034.66,-75.65 1024.46,-78.53 1028.48,-84.26"/>
</g>
<!-- Node12&#45;&gt;Node5 -->
<g id="edge13" class="edge">
<title>Node12&#45;&gt;Node5</title>
<path fill="none" stroke="midnightblue" d="M1122.42,-57.7C1119.24,-57.12 1116.06,-56.55 1113,-56 1038.34,-42.61 951.38,-27.48 900.17,-18.62"/>
<polygon fill="midnightblue" stroke="midnightblue" points="900.55,-15.13 890.1,-16.88 899.36,-22.03 900.55,-15.13"/>
</g>
<!-- Node13 -->
<g id="node13" class="node">
<title>Node13</title>
<g id="a_node13"><a xlink:title=" ">
<polygon fill="white" stroke="#bfbfbf" points="1103,-0.5 1103,-19.5 1153,-19.5 1153,-0.5 1103,-0.5"/>
<text text-anchor="middle" x="1128" y="-7.5" font-family="Helvetica,sans-Serif" font-size="10.00">cstdint</text>
</a>
</g>
</g>
<!-- Node12&#45;&gt;Node13 -->
<g id="edge14" class="edge">
<title>Node12&#45;&gt;Node13</title>
<path fill="none" stroke="midnightblue" d="M1156.39,-56.08C1151.63,-48.53 1144.68,-37.49 1138.85,-28.23"/>
<polygon fill="midnightblue" stroke="midnightblue" points="1141.8,-26.35 1133.51,-19.75 1135.88,-30.08 1141.8,-26.35"/>
</g>
<!-- Node14 -->
<g id="node14" class="node">
<title>Node14</title>
<g id="a_node14"><a xlink:title=" ">
<polygon fill="white" stroke="#bfbfbf" points="1171,-0.5 1171,-19.5 1221,-19.5 1221,-0.5 1171,-0.5"/>
<text text-anchor="middle" x="1196" y="-7.5" font-family="Helvetica,sans-Serif" font-size="10.00">climits</text>
</a>
</g>
</g>
<!-- Node12&#45;&gt;Node14 -->
<g id="edge15" class="edge">
<title>Node12&#45;&gt;Node14</title>
<path fill="none" stroke="midnightblue" d="M1167.61,-56.08C1172.37,-48.53 1179.32,-37.49 1185.15,-28.23"/>
<polygon fill="midnightblue" stroke="midnightblue" points="1188.12,-30.08 1190.49,-19.75 1182.2,-26.35 1188.12,-30.08"/>
</g>
<!-- Node17&#45;&gt;Node5 -->
<g id="edge19" class="edge">
<title>Node17&#45;&gt;Node5</title>
<path fill="none" stroke="midnightblue" d="M500.91,-112.14C496.7,-98.29 491.16,-71.48 505,-56 525.16,-33.45 722.05,-18.96 811.81,-13.48"/>
<polygon fill="midnightblue" stroke="midnightblue" points="812.18,-16.96 821.95,-12.87 811.76,-9.97 812.18,-16.96"/>
</g>
<!-- Node17&#45;&gt;Node7 -->
<g id="edge20" class="edge">
<title>Node17&#45;&gt;Node7</title>
<path fill="none" stroke="midnightblue" d="M510.61,-112.08C516.26,-104.46 524.54,-93.26 531.45,-83.94"/>
<polygon fill="midnightblue" stroke="midnightblue" points="534.38,-85.87 537.52,-75.75 528.75,-81.7 534.38,-85.87"/>
</g>
<!-- Node19&#45;&gt;Node17 -->
<g id="edge25" class="edge">
<title>Node19&#45;&gt;Node17</title>
<path fill="none" stroke="midnightblue" d="M493.98,-168.08C495.57,-160.93 497.86,-150.64 499.85,-141.69"/>
<polygon fill="midnightblue" stroke="midnightblue" points="503.3,-142.27 502.06,-131.75 496.47,-140.75 503.3,-142.27"/>
</g>
<!-- Node21 -->
<g id="node21" class="node">
<title>Node21</title>
<g id="a_node21"><a xlink:href="itkMetaDataObjectBase_8h.html" target="_top" xlink:title=" ">
<polygon fill="white" stroke="black" points="772,-224.5 772,-243.5 914,-243.5 914,-224.5 772,-224.5"/>
<text text-anchor="middle" x="843" y="-231.5" font-family="Helvetica,sans-Serif" font-size="10.00">itkMetaDataObjectBase.h</text>
</a>
</g>
</g>
<!-- Node20&#45;&gt;Node21 -->
<g id="edge27" class="edge">
<title>Node20&#45;&gt;Node21</title>
<path fill="none" stroke="midnightblue" d="M738.32,-291.23C758.82,-280.22 794.2,-261.21 818.09,-248.38"/>
<polygon fill="midnightblue" stroke="midnightblue" points="819.79,-251.44 826.94,-243.63 816.47,-245.28 819.79,-251.44"/>
</g>
<!-- Node22 -->
<g id="node22" class="node">
<title>Node22</title>
<g id="a_node22"><a xlink:title=" ">
<polygon fill="white" stroke="#bfbfbf" points="690,-224.5 690,-243.5 754,-243.5 754,-224.5 690,-224.5"/>
<text text-anchor="middle" x="722" y="-231.5" font-family="Helvetica,sans-Serif" font-size="10.00">algorithm</text>
</a>
</g>
</g>
<!-- Node20&#45;&gt;Node22 -->
<g id="edge31" class="edge">
<title>Node20&#45;&gt;Node22</title>
<path fill="none" stroke="midnightblue" d="M722,-291.23C722,-281.68 722,-266.12 722,-253.78"/>
<polygon fill="midnightblue" stroke="midnightblue" points="725.5,-253.63 722,-243.63 718.5,-253.63 725.5,-253.63"/>
</g>
<!-- Node23 -->
<g id="node23" class="node">
<title>Node23</title>
<g id="a_node23"><a xlink:title=" ">
<polygon fill="white" stroke="#bfbfbf" points="932.5,-224.5 932.5,-243.5 979.5,-243.5 979.5,-224.5 932.5,-224.5"/>
<text text-anchor="middle" x="956" y="-231.5" font-family="Helvetica,sans-Serif" font-size="10.00">vector</text>
</a>
</g>
</g>
<!-- Node20&#45;&gt;Node23 -->
<g id="edge32" class="edge">
<title>Node20&#45;&gt;Node23</title>
<path fill="none" stroke="midnightblue" d="M753.07,-291.37C797.11,-279.14 877.34,-256.85 922.61,-244.28"/>
<polygon fill="midnightblue" stroke="midnightblue" points="923.55,-247.65 932.25,-241.6 921.68,-240.9 923.55,-247.65"/>
</g>
<!-- Node24 -->
<g id="node24" class="node">
<title>Node24</title>
<g id="a_node24"><a xlink:title=" ">
<polygon fill="white" stroke="#bfbfbf" points="572,-224.5 572,-243.5 610,-243.5 610,-224.5 572,-224.5"/>
<text text-anchor="middle" x="591" y="-231.5" font-family="Helvetica,sans-Serif" font-size="10.00">map</text>
</a>
</g>
</g>
<!-- Node20&#45;&gt;Node24 -->
<g id="edge33" class="edge">
<title>Node20&#45;&gt;Node24</title>
<path fill="none" stroke="midnightblue" d="M704.6,-291.37C682.39,-280.34 643.71,-261.16 617.74,-248.27"/>
<polygon fill="midnightblue" stroke="midnightblue" points="618.98,-244.98 608.47,-243.67 615.87,-251.25 618.98,-244.98"/>
</g>
<!-- Node25 -->
<g id="node25" class="node">
<title>Node25</title>
<g id="a_node25"><a xlink:title=" ">
<polygon fill="white" stroke="#bfbfbf" points="628,-224.5 628,-243.5 672,-243.5 672,-224.5 628,-224.5"/>
<text text-anchor="middle" x="650" y="-231.5" font-family="Helvetica,sans-Serif" font-size="10.00">string</text>
</a>
</g>
</g>
<!-- Node20&#45;&gt;Node25 -->
<g id="edge34" class="edge">
<title>Node20&#45;&gt;Node25</title>
<path fill="none" stroke="midnightblue" d="M712.29,-291.23C700.74,-280.81 681.25,-263.21 667.14,-250.47"/>
<polygon fill="midnightblue" stroke="midnightblue" points="669.32,-247.73 659.56,-243.63 664.63,-252.93 669.32,-247.73"/>
</g>
<!-- Node26 -->
<g id="node26" class="node">
<title>Node26</title>
<g id="a_node26"><a xlink:title=" ">
<polygon fill="white" stroke="#bfbfbf" points="496,-224.5 496,-243.5 554,-243.5 554,-224.5 496,-224.5"/>
<text text-anchor="middle" x="525" y="-231.5" font-family="Helvetica,sans-Serif" font-size="10.00">memory</text>
</a>
</g>
</g>
<!-- Node20&#45;&gt;Node26 -->
<g id="edge35" class="edge">
<title>Node20&#45;&gt;Node26</title>
<path fill="none" stroke="midnightblue" d="M695.84,-291.37C661.16,-279.92 599.8,-259.68 560.83,-246.82"/>
<polygon fill="midnightblue" stroke="midnightblue" points="561.55,-243.37 550.95,-243.56 559.35,-250.02 561.55,-243.37"/>
</g>
<!-- Node21&#45;&gt;Node4 -->
<g id="edge28" class="edge">
<title>Node21&#45;&gt;Node4</title>
<path fill="none" stroke="midnightblue" d="M843,-224.08C843,-217.01 843,-206.86 843,-197.99"/>
<polygon fill="midnightblue" stroke="midnightblue" points="846.5,-197.75 843,-187.75 839.5,-197.75 846.5,-197.75"/>
</g>
<!-- Node21&#45;&gt;Node7 -->
<g id="edge30" class="edge">
<title>Node21&#45;&gt;Node7</title>
<path fill="none" stroke="midnightblue" d="M809.36,-224.43C760.4,-210.79 668.26,-180.6 603,-132 584.55,-118.26 567.35,-98.13 556.33,-83.92"/>
<polygon fill="midnightblue" stroke="midnightblue" points="558.85,-81.44 550.04,-75.56 553.26,-85.65 558.85,-81.44"/>
</g>
<!-- Node21&#45;&gt;Node18 -->
<g id="edge29" class="edge">
<title>Node21&#45;&gt;Node18</title>
<path fill="none" stroke="midnightblue" d="M827.15,-224.37C792.12,-205.29 707.88,-159.42 665.8,-136.51"/>
<polygon fill="midnightblue" stroke="midnightblue" points="667.23,-133.3 656.78,-131.59 663.89,-139.45 667.23,-133.3"/>
</g>
<!-- Node29 -->
<g id="node29" class="node">
<title>Node29</title>
<g id="a_node29"><a xlink:href="itkObjectFactoryBase_8h.html" target="_top" xlink:title=" ">
<polygon fill="white" stroke="black" points="997.5,-470.5 997.5,-489.5 1126.5,-489.5 1126.5,-470.5 997.5,-470.5"/>
<text text-anchor="middle" x="1062" y="-477.5" font-family="Helvetica,sans-Serif" font-size="10.00">itkObjectFactoryBase.h</text>
</a>
</g>
</g>
<!-- Node28&#45;&gt;Node29 -->
<g id="edge39" class="edge">
<title>Node28&#45;&gt;Node29</title>
<path fill="none" stroke="midnightblue" d="M838.99,-526.44C885.41,-516.98 960.23,-501.74 1010.24,-491.55"/>
<polygon fill="midnightblue" stroke="midnightblue" points="1011.11,-494.94 1020.21,-489.52 1009.71,-488.08 1011.11,-494.94"/>
</g>
<!-- Node29&#45;&gt;Node16 -->
<g id="edge42" class="edge">
<title>Node29&#45;&gt;Node16</title>
<path fill="none" stroke="midnightblue" d="M1070.6,-470.47C1087.19,-453.04 1122,-411.42 1122,-369 1122,-369 1122,-369 1122,-177 1122,-137.44 1088.48,-101.62 1066.26,-82.21"/>
<polygon fill="midnightblue" stroke="midnightblue" points="1068.3,-79.35 1058.39,-75.6 1063.8,-84.71 1068.3,-79.35"/>
</g>
<!-- Node29&#45;&gt;Node23 -->
<g id="edge47" class="edge">
<title>Node29&#45;&gt;Node23</title>
<path fill="none" stroke="midnightblue" d="M1062.75,-470.38C1063.49,-461.33 1064.58,-446.68 1065,-434 1067.35,-363.43 1068.24,-336.58 1026,-280 1015.82,-266.36 1000.18,-255.75 986.27,-248.26"/>
<polygon fill="midnightblue" stroke="midnightblue" points="987.5,-244.96 977,-243.58 984.35,-251.21 987.5,-244.96"/>
</g>
<!-- Node30 -->
<g id="node30" class="node">
<title>Node30</title>
<g id="a_node30"><a xlink:href="itkCreateObjectFunction_8h.html" target="_top" xlink:title=" ">
<polygon fill="white" stroke="black" points="823.5,-414.5 823.5,-433.5 966.5,-433.5 966.5,-414.5 823.5,-414.5"/>
<text text-anchor="middle" x="895" y="-421.5" font-family="Helvetica,sans-Serif" font-size="10.00">itkCreateObjectFunction.h</text>
</a>
</g>
</g>
<!-- Node29&#45;&gt;Node30 -->
<g id="edge40" class="edge">
<title>Node29&#45;&gt;Node30</title>
<path fill="none" stroke="midnightblue" d="M1035.54,-470.44C1007.32,-461.32 962.46,-446.81 931.03,-436.65"/>
<polygon fill="midnightblue" stroke="midnightblue" points="931.93,-433.26 921.34,-433.52 929.78,-439.92 931.93,-433.26"/>
</g>
<!-- Node31 -->
<g id="node31" class="node">
<title>Node31</title>
<g id="a_node31"><a xlink:href="itkCommonEnums_8h.html" target="_top" xlink:title=" ">
<polygon fill="white" stroke="black" points="1150,-414.5 1150,-433.5 1266,-433.5 1266,-414.5 1150,-414.5"/>
<text text-anchor="middle" x="1208" y="-421.5" font-family="Helvetica,sans-Serif" font-size="10.00">itkCommonEnums.h</text>
</a>
</g>
</g>
<!-- Node29&#45;&gt;Node31 -->
<g id="edge43" class="edge">
<title>Node29&#45;&gt;Node31</title>
<path fill="none" stroke="midnightblue" d="M1085.13,-470.44C1109.48,-461.44 1148.01,-447.19 1175.42,-437.05"/>
<polygon fill="midnightblue" stroke="midnightblue" points="1176.81,-440.27 1184.97,-433.52 1174.38,-433.7 1176.81,-440.27"/>
</g>
<!-- Node33 -->
<g id="node33" class="node">
<title>Node33</title>
<g id="a_node33"><a xlink:title=" ">
<polygon fill="white" stroke="#bfbfbf" points="1024,-414.5 1024,-433.5 1056,-433.5 1056,-414.5 1024,-414.5"/>
<text text-anchor="middle" x="1040" y="-421.5" font-family="Helvetica,sans-Serif" font-size="10.00">list</text>
</a>
</g>
</g>
<!-- Node29&#45;&gt;Node33 -->
<g id="edge46" class="edge">
<title>Node29&#45;&gt;Node33</title>
<path fill="none" stroke="midnightblue" d="M1058.37,-470.08C1055.39,-462.77 1051.07,-452.18 1047.38,-443.1"/>
<polygon fill="midnightblue" stroke="midnightblue" points="1050.58,-441.69 1043.57,-433.75 1044.1,-444.33 1050.58,-441.69"/>
</g>
<!-- Node30&#45;&gt;Node3 -->
<g id="edge41" class="edge">
<title>Node30&#45;&gt;Node3</title>
<path fill="none" stroke="midnightblue" d="M873.93,-414.44C851.94,-405.52 817.27,-391.44 792.34,-381.32"/>
<polygon fill="midnightblue" stroke="midnightblue" points="793.56,-378.04 782.98,-377.52 790.92,-384.52 793.56,-378.04"/>
</g>
<!-- Node31&#45;&gt;Node12 -->
<g id="edge44" class="edge">
<title>Node31&#45;&gt;Node12</title>
<path fill="none" stroke="midnightblue" d="M1201.81,-414.44C1195.73,-405.68 1186.58,-391.47 1181,-378 1167.68,-345.83 1162,-336.82 1162,-302 1162,-302 1162,-302 1162,-177 1162,-144.95 1162,-107.64 1162,-85.75"/>
<polygon fill="midnightblue" stroke="midnightblue" points="1165.5,-85.56 1162,-75.56 1158.5,-85.56 1165.5,-85.56"/>
</g>
<!-- Node32 -->
<g id="node32" class="node">
<title>Node32</title>
<g id="a_node32"><a xlink:title=" ">
<polygon fill="white" stroke="#bfbfbf" points="1190.5,-358.5 1190.5,-377.5 1247.5,-377.5 1247.5,-358.5 1190.5,-358.5"/>
<text text-anchor="middle" x="1219" y="-365.5" font-family="Helvetica,sans-Serif" font-size="10.00">ostream</text>
</a>
</g>
</g>
<!-- Node31&#45;&gt;Node32 -->
<g id="edge45" class="edge">
<title>Node31&#45;&gt;Node32</title>
<path fill="none" stroke="midnightblue" d="M1209.82,-414.08C1211.27,-406.93 1213.37,-396.64 1215.19,-387.69"/>
<polygon fill="midnightblue" stroke="midnightblue" points="1218.65,-388.25 1217.22,-377.75 1211.79,-386.85 1218.65,-388.25"/>
</g>
<!-- Node34&#45;&gt;Node5 -->
<g id="edge49" class="edge">
<title>Node34&#45;&gt;Node5</title>
<path fill="none" stroke="midnightblue" d="M276.38,-367.7C238.67,-366.72 176.32,-359.06 141,-322 113.7,-293.35 122,-274.58 122,-235 122,-235 122,-235 122,-121 122,-50.94 651.84,-20.52 811.2,-12.96"/>
<polygon fill="midnightblue" stroke="midnightblue" points="811.76,-16.44 821.58,-12.48 811.43,-9.45 811.76,-16.44"/>
</g>
<!-- Node35 -->
<g id="node35" class="node">
<title>Node35</title>
<g id="a_node35"><a xlink:title=" ">
<polygon fill="white" stroke="#bfbfbf" points="447,-291.5 447,-310.5 529,-310.5 529,-291.5 447,-291.5"/>
<text text-anchor="middle" x="488" y="-298.5" font-family="Helvetica,sans-Serif" font-size="10.00">vxl_version.h</text>
</a>
</g>
</g>
<!-- Node34&#45;&gt;Node35 -->
<g id="edge50" class="edge">
<title>Node34&#45;&gt;Node35</title>
<path fill="none" stroke="midnightblue" d="M333.31,-358.49C359.4,-349.64 401.19,-335.26 437,-322 443.59,-319.56 450.63,-316.86 457.3,-314.26"/>
<polygon fill="midnightblue" stroke="midnightblue" points="458.7,-317.47 466.73,-310.55 456.14,-310.95 458.7,-317.47"/>
</g>
<!-- Node36 -->
<g id="node36" class="node">
<title>Node36</title>
<g id="a_node36"><a xlink:title=" ">
<polygon fill="white" stroke="#bfbfbf" points="0,-291.5 0,-310.5 94,-310.5 94,-291.5 0,-291.5"/>
<text text-anchor="middle" x="47" y="-298.5" font-family="Helvetica,sans-Serif" font-size="10.00">vnl/vnl_vector.h</text>
</a>
</g>
</g>
<!-- Node34&#45;&gt;Node36 -->
<g id="edge51" class="edge">
<title>Node34&#45;&gt;Node36</title>
<path fill="none" stroke="midnightblue" d="M276.25,-360.83C236.6,-352.91 166.84,-338.23 108,-322 99.1,-319.55 89.57,-316.59 80.76,-313.71"/>
<polygon fill="midnightblue" stroke="midnightblue" points="81.77,-310.35 71.18,-310.52 79.56,-317 81.77,-310.35"/>
</g>
<!-- Node37 -->
<g id="node37" class="node">
<title>Node37</title>
<g id="a_node37"><a xlink:title=" ">
<polygon fill="white" stroke="#bfbfbf" points="150.5,-291.5 150.5,-310.5 225.5,-310.5 225.5,-291.5 150.5,-291.5"/>
<text text-anchor="middle" x="188" y="-298.5" font-family="Helvetica,sans-Serif" font-size="10.00">itkArray.hxx</text>
</a>
</g>
</g>
<!-- Node34&#45;&gt;Node37 -->
<g id="edge52" class="edge">
<title>Node34&#45;&gt;Node37</title>
<path fill="none" stroke="midnightblue" d="M291.82,-358.23C271.57,-347.27 236.7,-328.38 213.01,-315.55"/>
<polygon fill="midnightblue" stroke="midnightblue" points="214.39,-312.31 203.93,-310.63 211.05,-318.47 214.39,-312.31"/>
</g>
<!-- Node38 -->
<g id="node38" class="node">
<title>Node38</title>
<g id="a_node38"><a xlink:title=" ">
<polygon fill="white" stroke="#bfbfbf" points="243.5,-280.5 243.5,-321.5 428.5,-321.5 428.5,-280.5 243.5,-280.5"/>
<text text-anchor="start" x="251.5" y="-309.5" font-family="Helvetica,sans-Serif" font-size="10.00">/work/ITK/Modules/Core</text>
<text text-anchor="start" x="251.5" y="-298.5" font-family="Helvetica,sans-Serif" font-size="10.00">/Common/include/itkNumericTraits</text>
<text text-anchor="middle" x="336" y="-287.5" font-family="Helvetica,sans-Serif" font-size="10.00">ArrayPixel.h</text>
</a>
</g>
</g>
<!-- Node34&#45;&gt;Node38 -->
<g id="edge53" class="edge">
<title>Node34&#45;&gt;Node38</title>
<path fill="none" stroke="midnightblue" d="M311.78,-358.23C314.83,-351.14 319.31,-340.74 323.59,-330.8"/>
<polygon fill="midnightblue" stroke="midnightblue" points="326.84,-332.11 327.58,-321.54 320.41,-329.34 326.84,-332.11"/>
</g>
<!-- Node39&#45;&gt;Node26 -->
<g id="edge59" class="edge">
<title>Node39&#45;&gt;Node26</title>
<path fill="none" stroke="midnightblue" d="M510.41,-470.23C519.37,-461.95 531.68,-448.64 537,-434 560.38,-369.67 547.59,-347.77 538,-280 536.73,-271.04 534.11,-261.37 531.55,-253.3"/>
<polygon fill="midnightblue" stroke="midnightblue" points="534.86,-252.16 528.34,-243.8 528.23,-254.4 534.86,-252.16"/>
</g>
<!-- Node39&#45;&gt;Node34 -->
<g id="edge55" class="edge">
<title>Node39&#45;&gt;Node34</title>
<path fill="none" stroke="midnightblue" d="M431.59,-470.45C402.85,-464.12 370.48,-453.12 346,-434 330.58,-421.96 320.2,-401.78 314.24,-387.09"/>
<polygon fill="midnightblue" stroke="midnightblue" points="317.46,-385.7 310.67,-377.57 310.9,-388.16 317.46,-385.7"/>
</g>
<!-- Node40 -->
<g id="node40" class="node">
<title>Node40</title>
<g id="a_node40"><a xlink:href="itkOptimizerParametersHelper_8h.html" target="_top" xlink:title=" ">
<polygon fill="white" stroke="black" points="355.5,-414.5 355.5,-433.5 528.5,-433.5 528.5,-414.5 355.5,-414.5"/>
<text text-anchor="middle" x="442" y="-421.5" font-family="Helvetica,sans-Serif" font-size="10.00">itkOptimizerParametersHelper.h</text>
</a>
</g>
</g>
<!-- Node39&#45;&gt;Node40 -->
<g id="edge56" class="edge">
<title>Node39&#45;&gt;Node40</title>
<path fill="none" stroke="midnightblue" d="M490.68,-470.32C482.11,-462.34 469.19,-450.31 458.81,-440.65"/>
<polygon fill="midnightblue" stroke="midnightblue" points="461.19,-438.09 451.49,-433.83 456.42,-443.21 461.19,-438.09"/>
</g>
<!-- Node40&#45;&gt;Node3 -->
<g id="edge57" class="edge">
<title>Node40&#45;&gt;Node3</title>
<path fill="none" stroke="midnightblue" d="M492.7,-414.44C554.38,-404.04 657.57,-386.62 716.7,-376.64"/>
<polygon fill="midnightblue" stroke="midnightblue" points="717.58,-380.05 726.85,-374.93 716.41,-373.14 717.58,-380.05"/>
</g>
<!-- Node40&#45;&gt;Node34 -->
<g id="edge58" class="edge">
<title>Node40&#45;&gt;Node34</title>
<path fill="none" stroke="midnightblue" d="M420.77,-414.44C398.62,-405.52 363.68,-391.44 338.56,-381.32"/>
<polygon fill="midnightblue" stroke="midnightblue" points="339.72,-378.01 329.13,-377.52 337.1,-384.5 339.72,-378.01"/>
</g>
</g>
</svg>
