<?xml version="1.0" encoding="UTF-8" standalone="no"?>
<!DOCTYPE svg PUBLIC "-//W3C//DTD SVG 1.1//EN"
 "http://www.w3.org/Graphics/SVG/1.1/DTD/svg11.dtd">
<!-- Generated by graphviz version 2.43.0 (0)
 -->
<!-- Title: itkNormalVariateGenerator.h Pages: 1 -->
<svg width="787pt" height="599pt"
 viewBox="0.00 0.00 787.00 599.00" xmlns="http://www.w3.org/2000/svg" xmlns:xlink="http://www.w3.org/1999/xlink">
<g id="graph0" class="graph" transform="scale(1 1) rotate(0) translate(4 595)">
<title>itkNormalVariateGenerator.h</title>
<polygon fill="white" stroke="transparent" points="-4,4 -4,-595 783,-595 783,4 -4,4"/>
<!-- Node1 -->
<g id="node1" class="node">
<title>Node1</title>
<g id="a_node1"><a xlink:title=" ">
<polygon fill="#bfbfbf" stroke="black" points="324.5,-571.5 324.5,-590.5 481.5,-590.5 481.5,-571.5 324.5,-571.5"/>
<text text-anchor="middle" x="403" y="-578.5" font-family="Helvetica,sans-Serif" font-size="10.00">itkNormalVariateGenerator.h</text>
</a>
</g>
</g>
<!-- Node2 -->
<g id="node2" class="node">
<title>Node2</title>
<g id="a_node2"><a xlink:href="itkObjectFactory_8h.html" target="_top" xlink:title=" ">
<polygon fill="white" stroke="black" points="351,-515.5 351,-534.5 455,-534.5 455,-515.5 351,-515.5"/>
<text text-anchor="middle" x="403" y="-522.5" font-family="Helvetica,sans-Serif" font-size="10.00">itkObjectFactory.h</text>
</a>
</g>
</g>
<!-- Node1&#45;&gt;Node2 -->
<g id="edge1" class="edge">
<title>Node1&#45;&gt;Node2</title>
<path fill="none" stroke="midnightblue" d="M403,-571.08C403,-564.01 403,-553.86 403,-544.99"/>
<polygon fill="midnightblue" stroke="midnightblue" points="406.5,-544.75 403,-534.75 399.5,-544.75 406.5,-544.75"/>
</g>
<!-- Node33 -->
<g id="node33" class="node">
<title>Node33</title>
<g id="a_node33"><a xlink:href="itkRandomVariateGeneratorBase_8h.html" target="_top" xlink:title=" ">
<polygon fill="white" stroke="black" points="187.5,-448.5 187.5,-478.5 340.5,-478.5 340.5,-448.5 187.5,-448.5"/>
<text text-anchor="start" x="195.5" y="-466.5" font-family="Helvetica,sans-Serif" font-size="10.00">itkRandomVariateGenerator</text>
<text text-anchor="middle" x="264" y="-455.5" font-family="Helvetica,sans-Serif" font-size="10.00">Base.h</text>
</a>
</g>
</g>
<!-- Node1&#45;&gt;Node33 -->
<g id="edge46" class="edge">
<title>Node1&#45;&gt;Node33</title>
<path fill="none" stroke="midnightblue" d="M390.58,-571.38C378.06,-562.57 358.3,-548.33 342,-535 322.62,-519.16 301.63,-500.07 286.31,-485.75"/>
<polygon fill="midnightblue" stroke="midnightblue" points="288.53,-483.04 278.85,-478.74 283.74,-488.14 288.53,-483.04"/>
</g>
<!-- Node34 -->
<g id="node34" class="node">
<title>Node34</title>
<g id="a_node34"><a xlink:title=" ">
<polygon fill="white" stroke="#bfbfbf" points="473,-515.5 473,-534.5 591,-534.5 591,-515.5 473,-515.5"/>
<text text-anchor="middle" x="532" y="-522.5" font-family="Helvetica,sans-Serif" font-size="10.00">ITKStatisticsExport.h</text>
</a>
</g>
</g>
<!-- Node1&#45;&gt;Node34 -->
<g id="edge48" class="edge">
<title>Node1&#45;&gt;Node34</title>
<path fill="none" stroke="midnightblue" d="M423.44,-571.44C444.67,-562.56 478.1,-548.56 502.25,-538.45"/>
<polygon fill="midnightblue" stroke="midnightblue" points="503.78,-541.61 511.66,-534.52 501.08,-535.15 503.78,-541.61"/>
</g>
<!-- Node3 -->
<g id="node3" class="node">
<title>Node3</title>
<g id="a_node3"><a xlink:href="itkObjectFactoryBase_8h.html" target="_top" xlink:title=" ">
<polygon fill="white" stroke="black" points="358.5,-454 358.5,-473 487.5,-473 487.5,-454 358.5,-454"/>
<text text-anchor="middle" x="423" y="-461" font-family="Helvetica,sans-Serif" font-size="10.00">itkObjectFactoryBase.h</text>
</a>
</g>
</g>
<!-- Node2&#45;&gt;Node3 -->
<g id="edge2" class="edge">
<title>Node2&#45;&gt;Node3</title>
<path fill="none" stroke="midnightblue" d="M405.87,-515.48C408.72,-506.99 413.18,-493.7 416.84,-482.82"/>
<polygon fill="midnightblue" stroke="midnightblue" points="420.27,-483.6 420.14,-473.01 413.64,-481.37 420.27,-483.6"/>
</g>
<!-- Node4 -->
<g id="node4" class="node">
<title>Node4</title>
<g id="a_node4"><a xlink:href="itkCreateObjectFunction_8h.html" target="_top" xlink:title=" ">
<polygon fill="white" stroke="black" points="351.5,-392.5 351.5,-411.5 494.5,-411.5 494.5,-392.5 351.5,-392.5"/>
<text text-anchor="middle" x="423" y="-399.5" font-family="Helvetica,sans-Serif" font-size="10.00">itkCreateObjectFunction.h</text>
</a>
</g>
</g>
<!-- Node3&#45;&gt;Node4 -->
<g id="edge3" class="edge">
<title>Node3&#45;&gt;Node4</title>
<path fill="none" stroke="midnightblue" d="M423,-453.98C423,-445.58 423,-432.48 423,-421.66"/>
<polygon fill="midnightblue" stroke="midnightblue" points="426.5,-421.51 423,-411.51 419.5,-421.51 426.5,-421.51"/>
</g>
<!-- Node18 -->
<g id="node18" class="node">
<title>Node18</title>
<g id="a_node18"><a xlink:href="itkSingletonMacro_8h.html" target="_top" xlink:title=" ">
<polygon fill="white" stroke="black" points="611,-56.5 611,-75.5 725,-75.5 725,-56.5 611,-56.5"/>
<text text-anchor="middle" x="668" y="-63.5" font-family="Helvetica,sans-Serif" font-size="10.00">itkSingletonMacro.h</text>
</a>
</g>
</g>
<!-- Node3&#45;&gt;Node18 -->
<g id="edge40" class="edge">
<title>Node3&#45;&gt;Node18</title>
<path fill="none" stroke="midnightblue" d="M487.79,-457.72C566.05,-450.96 692.17,-436.6 732,-412 762.33,-393.26 779,-382.65 779,-347 779,-347 779,-347 779,-177 779,-130.82 729.94,-97.43 697.05,-80.23"/>
<polygon fill="midnightblue" stroke="midnightblue" points="698.35,-76.96 687.84,-75.61 695.21,-83.22 698.35,-76.96"/>
</g>
<!-- Node25 -->
<g id="node25" class="node">
<title>Node25</title>
<g id="a_node25"><a xlink:title=" ">
<polygon fill="white" stroke="#bfbfbf" points="77.5,-224.5 77.5,-243.5 124.5,-243.5 124.5,-224.5 77.5,-224.5"/>
<text text-anchor="middle" x="101" y="-231.5" font-family="Helvetica,sans-Serif" font-size="10.00">vector</text>
</a>
</g>
</g>
<!-- Node3&#45;&gt;Node25 -->
<g id="edge45" class="edge">
<title>Node3&#45;&gt;Node25</title>
<path fill="none" stroke="midnightblue" d="M394.43,-453.91C316.76,-429.93 105.11,-360.04 68,-300 57.99,-283.8 71.15,-264.19 83.7,-250.77"/>
<polygon fill="midnightblue" stroke="midnightblue" points="86.22,-253.2 90.83,-243.66 81.28,-248.24 86.22,-253.2"/>
</g>
<!-- Node30 -->
<g id="node30" class="node">
<title>Node30</title>
<g id="a_node30"><a xlink:href="itkCommonEnums_8h.html" target="_top" xlink:title=" ">
<polygon fill="white" stroke="black" points="607,-392.5 607,-411.5 723,-411.5 723,-392.5 607,-392.5"/>
<text text-anchor="middle" x="665" y="-399.5" font-family="Helvetica,sans-Serif" font-size="10.00">itkCommonEnums.h</text>
</a>
</g>
</g>
<!-- Node3&#45;&gt;Node30 -->
<g id="edge41" class="edge">
<title>Node3&#45;&gt;Node30</title>
<path fill="none" stroke="midnightblue" d="M457.67,-453.98C500.53,-443.44 573.54,-425.49 620.5,-413.94"/>
<polygon fill="midnightblue" stroke="midnightblue" points="621.52,-417.3 630.39,-411.51 619.85,-410.5 621.52,-417.3"/>
</g>
<!-- Node32 -->
<g id="node32" class="node">
<title>Node32</title>
<g id="a_node32"><a xlink:title=" ">
<polygon fill="white" stroke="#bfbfbf" points="301,-392.5 301,-411.5 333,-411.5 333,-392.5 301,-392.5"/>
<text text-anchor="middle" x="317" y="-399.5" font-family="Helvetica,sans-Serif" font-size="10.00">list</text>
</a>
</g>
</g>
<!-- Node3&#45;&gt;Node32 -->
<g id="edge44" class="edge">
<title>Node3&#45;&gt;Node32</title>
<path fill="none" stroke="midnightblue" d="M407.81,-453.98C390.34,-444.17 361.42,-427.93 340.92,-416.42"/>
<polygon fill="midnightblue" stroke="midnightblue" points="342.59,-413.35 332.16,-411.51 339.17,-419.46 342.59,-413.35"/>
</g>
<!-- Node5 -->
<g id="node5" class="node">
<title>Node5</title>
<g id="a_node5"><a xlink:href="itkObject_8h.html" target="_top" xlink:title=" ">
<polygon fill="white" stroke="black" points="229,-336.5 229,-355.5 299,-355.5 299,-336.5 229,-336.5"/>
<text text-anchor="middle" x="264" y="-343.5" font-family="Helvetica,sans-Serif" font-size="10.00">itkObject.h</text>
</a>
</g>
</g>
<!-- Node4&#45;&gt;Node5 -->
<g id="edge4" class="edge">
<title>Node4&#45;&gt;Node5</title>
<path fill="none" stroke="midnightblue" d="M397.81,-392.44C371.06,-383.36 328.6,-368.94 298.69,-358.78"/>
<polygon fill="midnightblue" stroke="midnightblue" points="299.67,-355.42 289.08,-355.52 297.42,-362.05 299.67,-355.42"/>
</g>
<!-- Node6 -->
<g id="node6" class="node">
<title>Node6</title>
<g id="a_node6"><a xlink:href="itkLightObject_8h.html" target="_top" xlink:title=" ">
<polygon fill="white" stroke="black" points="205,-168.5 205,-187.5 299,-187.5 299,-168.5 205,-168.5"/>
<text text-anchor="middle" x="252" y="-175.5" font-family="Helvetica,sans-Serif" font-size="10.00">itkLightObject.h</text>
</a>
</g>
</g>
<!-- Node5&#45;&gt;Node6 -->
<g id="edge5" class="edge">
<title>Node5&#45;&gt;Node6</title>
<path fill="none" stroke="midnightblue" d="M251.72,-336.46C230.62,-320.93 188.19,-285.8 172,-244 168.79,-235.71 167.51,-231.67 172,-224 180.86,-208.85 196.91,-198.41 212.31,-191.42"/>
<polygon fill="midnightblue" stroke="midnightblue" points="213.85,-194.57 221.75,-187.51 211.17,-188.11 213.85,-194.57"/>
</g>
<!-- Node5&#45;&gt;Node18 -->
<g id="edge38" class="edge">
<title>Node5&#45;&gt;Node18</title>
<path fill="none" stroke="midnightblue" d="M299.16,-345.1C368.19,-343.33 522.18,-329.39 608,-244 652.42,-199.81 663.96,-121.58 666.96,-85.8"/>
<polygon fill="midnightblue" stroke="midnightblue" points="670.45,-85.99 667.66,-75.77 663.47,-85.51 670.45,-85.99"/>
</g>
<!-- Node21 -->
<g id="node21" class="node">
<title>Node21</title>
<g id="a_node21"><a xlink:href="itkEventObject_8h.html" target="_top" xlink:title=" ">
<polygon fill="white" stroke="black" points="0,-168.5 0,-187.5 98,-187.5 98,-168.5 0,-168.5"/>
<text text-anchor="middle" x="49" y="-175.5" font-family="Helvetica,sans-Serif" font-size="10.00">itkEventObject.h</text>
</a>
</g>
</g>
<!-- Node5&#45;&gt;Node21 -->
<g id="edge26" class="edge">
<title>Node5&#45;&gt;Node21</title>
<path fill="none" stroke="midnightblue" d="M228.94,-341.63C178.6,-336.04 89.55,-323.11 68,-300 42.1,-272.23 43.09,-224.32 46.06,-197.89"/>
<polygon fill="midnightblue" stroke="midnightblue" points="49.56,-198.07 47.42,-187.7 42.62,-197.14 49.56,-198.07"/>
</g>
<!-- Node22 -->
<g id="node22" class="node">
<title>Node22</title>
<g id="a_node22"><a xlink:href="itkMetaDataDictionary_8h.html" target="_top" xlink:title=" ">
<polygon fill="white" stroke="black" points="295.5,-280.5 295.5,-299.5 430.5,-299.5 430.5,-280.5 295.5,-280.5"/>
<text text-anchor="middle" x="363" y="-287.5" font-family="Helvetica,sans-Serif" font-size="10.00">itkMetaDataDictionary.h</text>
</a>
</g>
</g>
<!-- Node5&#45;&gt;Node22 -->
<g id="edge28" class="edge">
<title>Node5&#45;&gt;Node22</title>
<path fill="none" stroke="midnightblue" d="M279.91,-336.32C295.64,-327.74 319.94,-314.49 338.21,-304.52"/>
<polygon fill="midnightblue" stroke="midnightblue" points="340.03,-307.52 347.13,-299.65 336.68,-301.37 340.03,-307.52"/>
</g>
<!-- Node29 -->
<g id="node29" class="node">
<title>Node29</title>
<g id="a_node29"><a xlink:title=" ">
<polygon fill="white" stroke="#bfbfbf" points="77.5,-280.5 77.5,-299.5 142.5,-299.5 142.5,-280.5 77.5,-280.5"/>
<text text-anchor="middle" x="110" y="-287.5" font-family="Helvetica,sans-Serif" font-size="10.00">functional</text>
</a>
</g>
</g>
<!-- Node5&#45;&gt;Node29 -->
<g id="edge39" class="edge">
<title>Node5&#45;&gt;Node29</title>
<path fill="none" stroke="midnightblue" d="M239.6,-336.44C213.8,-327.4 172.92,-313.06 143.98,-302.92"/>
<polygon fill="midnightblue" stroke="midnightblue" points="144.88,-299.52 134.29,-299.52 142.57,-306.13 144.88,-299.52"/>
</g>
<!-- Node7 -->
<g id="node7" class="node">
<title>Node7</title>
<g id="a_node7"><a xlink:href="itkMacro_8h.html" target="_top" xlink:title=" ">
<polygon fill="white" stroke="black" points="388,-0.5 388,-19.5 456,-19.5 456,-0.5 388,-0.5"/>
<text text-anchor="middle" x="422" y="-7.5" font-family="Helvetica,sans-Serif" font-size="10.00">itkMacro.h</text>
</a>
</g>
</g>
<!-- Node6&#45;&gt;Node7 -->
<g id="edge6" class="edge">
<title>Node6&#45;&gt;Node7</title>
<path fill="none" stroke="midnightblue" d="M262.35,-168.24C272.79,-159.32 289.28,-144.99 303,-132 341.46,-95.57 384.6,-50.62 406.87,-27.1"/>
<polygon fill="midnightblue" stroke="midnightblue" points="409.52,-29.39 413.84,-19.72 404.43,-24.59 409.52,-29.39"/>
</g>
<!-- Node8 -->
<g id="node8" class="node">
<title>Node8</title>
<g id="a_node8"><a xlink:href="itkSmartPointer_8h.html" target="_top" xlink:title=" ">
<polygon fill="white" stroke="black" points="192.5,-112.5 192.5,-131.5 293.5,-131.5 293.5,-112.5 192.5,-112.5"/>
<text text-anchor="middle" x="243" y="-119.5" font-family="Helvetica,sans-Serif" font-size="10.00">itkSmartPointer.h</text>
</a>
</g>
</g>
<!-- Node6&#45;&gt;Node8 -->
<g id="edge7" class="edge">
<title>Node6&#45;&gt;Node8</title>
<path fill="none" stroke="midnightblue" d="M250.51,-168.08C249.32,-160.93 247.61,-150.64 246.12,-141.69"/>
<polygon fill="midnightblue" stroke="midnightblue" points="249.55,-141.04 244.46,-131.75 242.65,-142.19 249.55,-141.04"/>
</g>
<!-- Node9 -->
<g id="node9" class="node">
<title>Node9</title>
<g id="a_node9"><a xlink:title=" ">
<polygon fill="white" stroke="#bfbfbf" points="31,-56.5 31,-75.5 91,-75.5 91,-56.5 31,-56.5"/>
<text text-anchor="middle" x="61" y="-63.5" font-family="Helvetica,sans-Serif" font-size="10.00">iostream</text>
</a>
</g>
</g>
<!-- Node6&#45;&gt;Node9 -->
<g id="edge24" class="edge">
<title>Node6&#45;&gt;Node9</title>
<path fill="none" stroke="midnightblue" d="M237.17,-168.34C215.74,-155.85 174.89,-132.06 140,-112 121.64,-101.44 100.83,-89.59 85.18,-80.7"/>
<polygon fill="midnightblue" stroke="midnightblue" points="86.59,-77.48 76.17,-75.59 83.13,-83.57 86.59,-77.48"/>
</g>
<!-- Node13 -->
<g id="node13" class="node">
<title>Node13</title>
<g id="a_node13"><a xlink:href="itkTimeStamp_8h.html" target="_top" xlink:title=" ">
<polygon fill="white" stroke="black" points="431.5,-112.5 431.5,-131.5 526.5,-131.5 526.5,-112.5 431.5,-112.5"/>
<text text-anchor="middle" x="479" y="-119.5" font-family="Helvetica,sans-Serif" font-size="10.00">itkTimeStamp.h</text>
</a>
</g>
</g>
<!-- Node6&#45;&gt;Node13 -->
<g id="edge12" class="edge">
<title>Node6&#45;&gt;Node13</title>
<path fill="none" stroke="midnightblue" d="M287.97,-168.44C327.32,-159.08 390.49,-144.06 433.31,-133.87"/>
<polygon fill="midnightblue" stroke="midnightblue" points="434.28,-137.24 443.2,-131.52 432.66,-130.43 434.28,-137.24"/>
</g>
<!-- Node17 -->
<g id="node17" class="node">
<title>Node17</title>
<g id="a_node17"><a xlink:title=" ">
<polygon fill="white" stroke="#bfbfbf" points="401,-56.5 401,-75.5 451,-75.5 451,-56.5 401,-56.5"/>
<text text-anchor="middle" x="426" y="-63.5" font-family="Helvetica,sans-Serif" font-size="10.00">atomic</text>
</a>
</g>
</g>
<!-- Node6&#45;&gt;Node17 -->
<g id="edge23" class="edge">
<title>Node6&#45;&gt;Node17</title>
<path fill="none" stroke="midnightblue" d="M295.72,-168.43C321.79,-161.72 354.47,-150.36 379,-132 395.67,-119.52 408.9,-99.45 417.02,-84.91"/>
<polygon fill="midnightblue" stroke="midnightblue" points="420.21,-86.36 421.81,-75.89 414.03,-83.08 420.21,-86.36"/>
</g>
<!-- Node19 -->
<g id="node19" class="node">
<title>Node19</title>
<g id="a_node19"><a xlink:href="itkIndent_8h.html" target="_top" xlink:title=" ">
<polygon fill="white" stroke="black" points="21.5,-112.5 21.5,-131.5 90.5,-131.5 90.5,-112.5 21.5,-112.5"/>
<text text-anchor="middle" x="56" y="-119.5" font-family="Helvetica,sans-Serif" font-size="10.00">itkIndent.h</text>
</a>
</g>
</g>
<!-- Node6&#45;&gt;Node19 -->
<g id="edge20" class="edge">
<title>Node6&#45;&gt;Node19</title>
<path fill="none" stroke="midnightblue" d="M220.94,-168.44C187.4,-159.2 133.8,-144.44 96.86,-134.26"/>
<polygon fill="midnightblue" stroke="midnightblue" points="97.48,-130.8 86.91,-131.52 95.62,-137.55 97.48,-130.8"/>
</g>
<!-- Node20 -->
<g id="node20" class="node">
<title>Node20</title>
<g id="a_node20"><a xlink:title=" ">
<polygon fill="white" stroke="#bfbfbf" points="544.5,-112.5 544.5,-131.5 601.5,-131.5 601.5,-112.5 544.5,-112.5"/>
<text text-anchor="middle" x="573" y="-119.5" font-family="Helvetica,sans-Serif" font-size="10.00">typeinfo</text>
</a>
</g>
</g>
<!-- Node6&#45;&gt;Node20 -->
<g id="edge25" class="edge">
<title>Node6&#45;&gt;Node20</title>
<path fill="none" stroke="midnightblue" d="M299.2,-170.72C353.68,-163.21 446.17,-149.64 534.46,-132.19"/>
<polygon fill="midnightblue" stroke="midnightblue" points="535.25,-135.6 544.37,-130.21 533.88,-128.73 535.25,-135.6"/>
</g>
<!-- Node8&#45;&gt;Node9 -->
<g id="edge8" class="edge">
<title>Node8&#45;&gt;Node9</title>
<path fill="none" stroke="midnightblue" d="M214.16,-112.44C183.14,-103.24 133.67,-88.56 99.38,-78.39"/>
<polygon fill="midnightblue" stroke="midnightblue" points="100.29,-75.01 89.7,-75.52 98.29,-81.72 100.29,-75.01"/>
</g>
<!-- Node10 -->
<g id="node10" class="node">
<title>Node10</title>
<g id="a_node10"><a xlink:title=" ">
<polygon fill="white" stroke="#bfbfbf" points="299.5,-56.5 299.5,-75.5 344.5,-75.5 344.5,-56.5 299.5,-56.5"/>
<text text-anchor="middle" x="322" y="-63.5" font-family="Helvetica,sans-Serif" font-size="10.00">utility</text>
</a>
</g>
</g>
<!-- Node8&#45;&gt;Node10 -->
<g id="edge9" class="edge">
<title>Node8&#45;&gt;Node10</title>
<path fill="none" stroke="midnightblue" d="M255.69,-112.32C267.9,-103.98 286.58,-91.21 301,-81.35"/>
<polygon fill="midnightblue" stroke="midnightblue" points="303.06,-84.19 309.34,-75.65 299.11,-78.41 303.06,-84.19"/>
</g>
<!-- Node11 -->
<g id="node11" class="node">
<title>Node11</title>
<g id="a_node11"><a xlink:title=" ">
<polygon fill="white" stroke="#bfbfbf" points="109.5,-56.5 109.5,-75.5 178.5,-75.5 178.5,-56.5 109.5,-56.5"/>
<text text-anchor="middle" x="144" y="-63.5" font-family="Helvetica,sans-Serif" font-size="10.00">type_traits</text>
</a>
</g>
</g>
<!-- Node8&#45;&gt;Node11 -->
<g id="edge10" class="edge">
<title>Node8&#45;&gt;Node11</title>
<path fill="none" stroke="midnightblue" d="M227.09,-112.32C211.36,-103.74 187.06,-90.49 168.79,-80.52"/>
<polygon fill="midnightblue" stroke="midnightblue" points="170.32,-77.37 159.87,-75.65 166.97,-83.52 170.32,-77.37"/>
</g>
<!-- Node12 -->
<g id="node12" class="node">
<title>Node12</title>
<g id="a_node12"><a xlink:title=" ">
<polygon fill="white" stroke="#bfbfbf" points="196.5,-56.5 196.5,-75.5 281.5,-75.5 281.5,-56.5 196.5,-56.5"/>
<text text-anchor="middle" x="239" y="-63.5" font-family="Helvetica,sans-Serif" font-size="10.00">itkConfigure.h</text>
</a>
</g>
</g>
<!-- Node8&#45;&gt;Node12 -->
<g id="edge11" class="edge">
<title>Node8&#45;&gt;Node12</title>
<path fill="none" stroke="midnightblue" d="M242.34,-112.08C241.82,-105.01 241.06,-94.86 240.41,-85.99"/>
<polygon fill="midnightblue" stroke="midnightblue" points="243.88,-85.47 239.65,-75.75 236.9,-85.98 243.88,-85.47"/>
</g>
<!-- Node13&#45;&gt;Node7 -->
<g id="edge13" class="edge">
<title>Node13&#45;&gt;Node7</title>
<path fill="none" stroke="midnightblue" d="M477.62,-112.14C475.34,-99.2 470.01,-74.64 460,-56 454.34,-45.46 445.92,-35.15 438.44,-27.07"/>
<polygon fill="midnightblue" stroke="midnightblue" points="440.88,-24.56 431.41,-19.8 435.84,-29.42 440.88,-24.56"/>
</g>
<!-- Node14 -->
<g id="node14" class="node">
<title>Node14</title>
<g id="a_node14"><a xlink:href="itkIntTypes_8h.html" target="_top" xlink:title=" ">
<polygon fill="white" stroke="black" points="507.5,-56.5 507.5,-75.5 586.5,-75.5 586.5,-56.5 507.5,-56.5"/>
<text text-anchor="middle" x="547" y="-63.5" font-family="Helvetica,sans-Serif" font-size="10.00">itkIntTypes.h</text>
</a>
</g>
</g>
<!-- Node13&#45;&gt;Node14 -->
<g id="edge14" class="edge">
<title>Node13&#45;&gt;Node14</title>
<path fill="none" stroke="midnightblue" d="M489.93,-112.32C500.17,-104.18 515.72,-91.84 528,-82.09"/>
<polygon fill="midnightblue" stroke="midnightblue" points="530.22,-84.79 535.88,-75.83 525.87,-79.31 530.22,-84.79"/>
</g>
<!-- Node13&#45;&gt;Node17 -->
<g id="edge18" class="edge">
<title>Node13&#45;&gt;Node17</title>
<path fill="none" stroke="midnightblue" d="M470.25,-112.08C462.53,-104.22 451.1,-92.57 441.78,-83.08"/>
<polygon fill="midnightblue" stroke="midnightblue" points="444.09,-80.44 434.59,-75.75 439.1,-85.34 444.09,-80.44"/>
</g>
<!-- Node13&#45;&gt;Node18 -->
<g id="edge19" class="edge">
<title>Node13&#45;&gt;Node18</title>
<path fill="none" stroke="midnightblue" d="M508.95,-112.44C541.16,-103.24 592.53,-88.56 628.14,-78.39"/>
<polygon fill="midnightblue" stroke="midnightblue" points="629.54,-81.63 638.19,-75.52 627.62,-74.9 629.54,-81.63"/>
</g>
<!-- Node14&#45;&gt;Node7 -->
<g id="edge15" class="edge">
<title>Node14&#45;&gt;Node7</title>
<path fill="none" stroke="midnightblue" d="M527.19,-56.44C506.71,-47.6 474.52,-33.69 451.14,-23.59"/>
<polygon fill="midnightblue" stroke="midnightblue" points="452.28,-20.27 441.71,-19.52 449.51,-26.7 452.28,-20.27"/>
</g>
<!-- Node15 -->
<g id="node15" class="node">
<title>Node15</title>
<g id="a_node15"><a xlink:title=" ">
<polygon fill="white" stroke="#bfbfbf" points="556,-0.5 556,-19.5 606,-19.5 606,-0.5 556,-0.5"/>
<text text-anchor="middle" x="581" y="-7.5" font-family="Helvetica,sans-Serif" font-size="10.00">cstdint</text>
</a>
</g>
</g>
<!-- Node14&#45;&gt;Node15 -->
<g id="edge16" class="edge">
<title>Node14&#45;&gt;Node15</title>
<path fill="none" stroke="midnightblue" d="M552.61,-56.08C557.37,-48.53 564.32,-37.49 570.15,-28.23"/>
<polygon fill="midnightblue" stroke="midnightblue" points="573.12,-30.08 575.49,-19.75 567.2,-26.35 573.12,-30.08"/>
</g>
<!-- Node16 -->
<g id="node16" class="node">
<title>Node16</title>
<g id="a_node16"><a xlink:title=" ">
<polygon fill="white" stroke="#bfbfbf" points="488,-0.5 488,-19.5 538,-19.5 538,-0.5 488,-0.5"/>
<text text-anchor="middle" x="513" y="-7.5" font-family="Helvetica,sans-Serif" font-size="10.00">climits</text>
</a>
</g>
</g>
<!-- Node14&#45;&gt;Node16 -->
<g id="edge17" class="edge">
<title>Node14&#45;&gt;Node16</title>
<path fill="none" stroke="midnightblue" d="M541.39,-56.08C536.63,-48.53 529.68,-37.49 523.85,-28.23"/>
<polygon fill="midnightblue" stroke="midnightblue" points="526.8,-26.35 518.51,-19.75 520.88,-30.08 526.8,-26.35"/>
</g>
<!-- Node19&#45;&gt;Node7 -->
<g id="edge21" class="edge">
<title>Node19&#45;&gt;Node7</title>
<path fill="none" stroke="midnightblue" d="M45.25,-112.18C30.25,-98.84 6.55,-73.28 22,-56 45.42,-29.8 278.95,-16.99 377.98,-12.7"/>
<polygon fill="midnightblue" stroke="midnightblue" points="378.13,-16.2 387.97,-12.28 377.83,-9.21 378.13,-16.2"/>
</g>
<!-- Node19&#45;&gt;Node9 -->
<g id="edge22" class="edge">
<title>Node19&#45;&gt;Node9</title>
<path fill="none" stroke="midnightblue" d="M56.83,-112.08C57.48,-105.01 58.42,-94.86 59.24,-85.99"/>
<polygon fill="midnightblue" stroke="midnightblue" points="62.75,-86.03 60.19,-75.75 55.78,-85.39 62.75,-86.03"/>
</g>
<!-- Node21&#45;&gt;Node19 -->
<g id="edge27" class="edge">
<title>Node21&#45;&gt;Node19</title>
<path fill="none" stroke="midnightblue" d="M50.16,-168.08C51.08,-160.93 52.42,-150.64 53.58,-141.69"/>
<polygon fill="midnightblue" stroke="midnightblue" points="57.05,-142.12 54.87,-131.75 50.11,-141.22 57.05,-142.12"/>
</g>
<!-- Node23 -->
<g id="node23" class="node">
<title>Node23</title>
<g id="a_node23"><a xlink:href="itkMetaDataObjectBase_8h.html" target="_top" xlink:title=" ">
<polygon fill="white" stroke="black" points="181,-224.5 181,-243.5 323,-243.5 323,-224.5 181,-224.5"/>
<text text-anchor="middle" x="252" y="-231.5" font-family="Helvetica,sans-Serif" font-size="10.00">itkMetaDataObjectBase.h</text>
</a>
</g>
</g>
<!-- Node22&#45;&gt;Node23 -->
<g id="edge29" class="edge">
<title>Node22&#45;&gt;Node23</title>
<path fill="none" stroke="midnightblue" d="M345.17,-280.32C327.28,-271.62 299.52,-258.12 278.95,-248.11"/>
<polygon fill="midnightblue" stroke="midnightblue" points="280.31,-244.88 269.79,-243.65 277.25,-251.18 280.31,-244.88"/>
</g>
<!-- Node24 -->
<g id="node24" class="node">
<title>Node24</title>
<g id="a_node24"><a xlink:title=" ">
<polygon fill="white" stroke="#bfbfbf" points="479,-224.5 479,-243.5 543,-243.5 543,-224.5 479,-224.5"/>
<text text-anchor="middle" x="511" y="-231.5" font-family="Helvetica,sans-Serif" font-size="10.00">algorithm</text>
</a>
</g>
</g>
<!-- Node22&#45;&gt;Node24 -->
<g id="edge33" class="edge">
<title>Node22&#45;&gt;Node24</title>
<path fill="none" stroke="midnightblue" d="M386.45,-280.44C411.13,-271.44 450.19,-257.19 477.98,-247.05"/>
<polygon fill="midnightblue" stroke="midnightblue" points="479.46,-250.23 487.66,-243.52 477.06,-243.66 479.46,-250.23"/>
</g>
<!-- Node22&#45;&gt;Node25 -->
<g id="edge34" class="edge">
<title>Node22&#45;&gt;Node25</title>
<path fill="none" stroke="midnightblue" d="M321.49,-280.44C269.73,-269.78 182.28,-251.75 134.55,-241.91"/>
<polygon fill="midnightblue" stroke="midnightblue" points="135.21,-238.48 124.71,-239.89 133.8,-245.33 135.21,-238.48"/>
</g>
<!-- Node26 -->
<g id="node26" class="node">
<title>Node26</title>
<g id="a_node26"><a xlink:title=" ">
<polygon fill="white" stroke="#bfbfbf" points="561,-224.5 561,-243.5 599,-243.5 599,-224.5 561,-224.5"/>
<text text-anchor="middle" x="580" y="-231.5" font-family="Helvetica,sans-Serif" font-size="10.00">map</text>
</a>
</g>
</g>
<!-- Node22&#45;&gt;Node26 -->
<g id="edge35" class="edge">
<title>Node22&#45;&gt;Node26</title>
<path fill="none" stroke="midnightblue" d="M402.68,-280.49C438.99,-272.49 494.36,-259.78 550.95,-244.14"/>
<polygon fill="midnightblue" stroke="midnightblue" points="552.09,-247.45 560.78,-241.39 550.21,-240.71 552.09,-247.45"/>
</g>
<!-- Node27 -->
<g id="node27" class="node">
<title>Node27</title>
<g id="a_node27"><a xlink:title=" ">
<polygon fill="white" stroke="#bfbfbf" points="341,-224.5 341,-243.5 385,-243.5 385,-224.5 341,-224.5"/>
<text text-anchor="middle" x="363" y="-231.5" font-family="Helvetica,sans-Serif" font-size="10.00">string</text>
</a>
</g>
</g>
<!-- Node22&#45;&gt;Node27 -->
<g id="edge36" class="edge">
<title>Node22&#45;&gt;Node27</title>
<path fill="none" stroke="midnightblue" d="M363,-280.08C363,-273.01 363,-262.86 363,-253.99"/>
<polygon fill="midnightblue" stroke="midnightblue" points="366.5,-253.75 363,-243.75 359.5,-253.75 366.5,-253.75"/>
</g>
<!-- Node28 -->
<g id="node28" class="node">
<title>Node28</title>
<g id="a_node28"><a xlink:title=" ">
<polygon fill="white" stroke="#bfbfbf" points="403,-224.5 403,-243.5 461,-243.5 461,-224.5 403,-224.5"/>
<text text-anchor="middle" x="432" y="-231.5" font-family="Helvetica,sans-Serif" font-size="10.00">memory</text>
</a>
</g>
</g>
<!-- Node22&#45;&gt;Node28 -->
<g id="edge37" class="edge">
<title>Node22&#45;&gt;Node28</title>
<path fill="none" stroke="midnightblue" d="M374.09,-280.32C384.49,-272.18 400.26,-259.84 412.72,-250.09"/>
<polygon fill="midnightblue" stroke="midnightblue" points="414.99,-252.75 420.71,-243.83 410.68,-247.24 414.99,-252.75"/>
</g>
<!-- Node23&#45;&gt;Node6 -->
<g id="edge30" class="edge">
<title>Node23&#45;&gt;Node6</title>
<path fill="none" stroke="midnightblue" d="M252,-224.08C252,-217.01 252,-206.86 252,-197.99"/>
<polygon fill="midnightblue" stroke="midnightblue" points="255.5,-197.75 252,-187.75 248.5,-197.75 255.5,-197.75"/>
</g>
<!-- Node23&#45;&gt;Node9 -->
<g id="edge32" class="edge">
<title>Node23&#45;&gt;Node9</title>
<path fill="none" stroke="midnightblue" d="M240.7,-224.21C229.29,-215.26 211.21,-200.91 196,-188 152.67,-151.22 103.29,-106.12 77.96,-82.74"/>
<polygon fill="midnightblue" stroke="midnightblue" points="80.06,-79.91 70.34,-75.69 75.3,-85.05 80.06,-79.91"/>
</g>
<!-- Node23&#45;&gt;Node20 -->
<g id="edge31" class="edge">
<title>Node23&#45;&gt;Node20</title>
<path fill="none" stroke="midnightblue" d="M276.92,-224.46C333.69,-205.01 472.75,-157.36 538.05,-134.98"/>
<polygon fill="midnightblue" stroke="midnightblue" points="539.55,-138.16 547.87,-131.61 537.28,-131.54 539.55,-138.16"/>
</g>
<!-- Node30&#45;&gt;Node14 -->
<g id="edge42" class="edge">
<title>Node30&#45;&gt;Node14</title>
<path fill="none" stroke="midnightblue" d="M665,-392.44C665,-373.94 665,-328.81 665,-291 665,-291 665,-291 665,-233 665,-174.11 648.43,-157.46 611,-112 600.51,-99.26 585.56,-88.48 572.75,-80.66"/>
<polygon fill="midnightblue" stroke="midnightblue" points="574.29,-77.51 563.89,-75.51 570.77,-83.56 574.29,-77.51"/>
</g>
<!-- Node31 -->
<g id="node31" class="node">
<title>Node31</title>
<g id="a_node31"><a xlink:title=" ">
<polygon fill="white" stroke="#bfbfbf" points="693.5,-336.5 693.5,-355.5 750.5,-355.5 750.5,-336.5 693.5,-336.5"/>
<text text-anchor="middle" x="722" y="-343.5" font-family="Helvetica,sans-Serif" font-size="10.00">ostream</text>
</a>
</g>
</g>
<!-- Node30&#45;&gt;Node31 -->
<g id="edge43" class="edge">
<title>Node30&#45;&gt;Node31</title>
<path fill="none" stroke="midnightblue" d="M674.16,-392.32C682.5,-384.42 695.03,-372.55 705.18,-362.94"/>
<polygon fill="midnightblue" stroke="midnightblue" points="707.82,-365.25 712.68,-355.83 703.01,-360.17 707.82,-365.25"/>
</g>
<!-- Node33&#45;&gt;Node5 -->
<g id="edge47" class="edge">
<title>Node33&#45;&gt;Node5</title>
<path fill="none" stroke="midnightblue" d="M264,-448.34C264,-427.62 264,-389.02 264,-365.9"/>
<polygon fill="midnightblue" stroke="midnightblue" points="267.5,-365.67 264,-355.67 260.5,-365.67 267.5,-365.67"/>
</g>
</g>
</svg>
