<?xml version="1.0" encoding="UTF-8" standalone="no"?>
<!DOCTYPE svg PUBLIC "-//W3C//DTD SVG 1.1//EN"
 "http://www.w3.org/Graphics/SVG/1.1/DTD/svg11.dtd">
<!-- Generated by graphviz version 2.43.0 (0)
 -->
<!-- Title: itkNormalVectorFunctionBase.h Pages: 1 -->
<svg width="511pt" height="229pt"
 viewBox="0.00 0.00 510.50 229.00" xmlns="http://www.w3.org/2000/svg" xmlns:xlink="http://www.w3.org/1999/xlink">
<g id="graph0" class="graph" transform="scale(1 1) rotate(0) translate(4 225)">
<title>itkNormalVectorFunctionBase.h</title>
<polygon fill="white" stroke="transparent" points="-4,4 -4,-225 506.5,-225 506.5,4 -4,4"/>
<!-- Node1 -->
<g id="node1" class="node">
<title>Node1</title>
<g id="a_node1"><a xlink:title=" ">
<polygon fill="#bfbfbf" stroke="black" points="153,-201.5 153,-220.5 323,-220.5 323,-201.5 153,-201.5"/>
<text text-anchor="middle" x="238" y="-208.5" font-family="Helvetica,sans-Serif" font-size="10.00">itkNormalVectorFunctionBase.h</text>
</a>
</g>
</g>
<!-- Node2 -->
<g id="node2" class="node">
<title>Node2</title>
<g id="a_node2"><a xlink:href="itkNormalVectorDiffusionFunction_8h.html" target="_top" xlink:title=" ">
<polygon fill="white" stroke="black" points="88,-134.5 88,-164.5 228,-164.5 228,-134.5 88,-134.5"/>
<text text-anchor="start" x="96" y="-152.5" font-family="Helvetica,sans-Serif" font-size="10.00">itkNormalVectorDiffusion</text>
<text text-anchor="middle" x="158" y="-141.5" font-family="Helvetica,sans-Serif" font-size="10.00">Function.h</text>
</a>
</g>
</g>
<!-- Node1&#45;&gt;Node2 -->
<g id="edge1" class="edge">
<title>Node1&#45;&gt;Node2</title>
<path fill="none" stroke="midnightblue" d="M218.46,-195.47C205.79,-186.05 189.38,-173.84 176.85,-164.52"/>
<polygon fill="midnightblue" stroke="midnightblue" points="216.43,-198.32 226.54,-201.48 220.6,-192.7 216.43,-198.32"/>
</g>
<!-- Node7 -->
<g id="node7" class="node">
<title>Node7</title>
<g id="a_node7"><a xlink:href="itkImplicitManifoldNormalVectorFilter_8h.html" target="_top" xlink:title=" ">
<polygon fill="white" stroke="black" points="246.5,-134.5 246.5,-164.5 391.5,-164.5 391.5,-134.5 246.5,-134.5"/>
<text text-anchor="start" x="254.5" y="-152.5" font-family="Helvetica,sans-Serif" font-size="10.00">itkImplicitManifoldNormal</text>
<text text-anchor="middle" x="319" y="-141.5" font-family="Helvetica,sans-Serif" font-size="10.00">VectorFilter.h</text>
</a>
</g>
</g>
<!-- Node1&#45;&gt;Node7 -->
<g id="edge6" class="edge">
<title>Node1&#45;&gt;Node7</title>
<path fill="none" stroke="midnightblue" d="M257.78,-195.47C270.61,-186.05 287.23,-173.84 299.91,-164.52"/>
<polygon fill="midnightblue" stroke="midnightblue" points="255.59,-192.73 249.61,-201.48 259.74,-198.38 255.59,-192.73"/>
</g>
<!-- Node3 -->
<g id="node3" class="node">
<title>Node3</title>
<g id="a_node3"><a xlink:href="itkSparseFieldFourthOrderLevelSetImageFilter_8h.html" target="_top" xlink:title=" ">
<polygon fill="white" stroke="black" points="166.5,-67.5 166.5,-97.5 309.5,-97.5 309.5,-67.5 166.5,-67.5"/>
<text text-anchor="start" x="174.5" y="-85.5" font-family="Helvetica,sans-Serif" font-size="10.00">itkSparseFieldFourthOrder</text>
<text text-anchor="middle" x="238" y="-74.5" font-family="Helvetica,sans-Serif" font-size="10.00">LevelSetImageFilter.h</text>
</a>
</g>
</g>
<!-- Node2&#45;&gt;Node3 -->
<g id="edge2" class="edge">
<title>Node2&#45;&gt;Node3</title>
<path fill="none" stroke="midnightblue" d="M183.37,-127.88C195.53,-118.01 209.78,-106.43 220.68,-97.58"/>
<polygon fill="midnightblue" stroke="midnightblue" points="180.91,-125.37 175.36,-134.4 185.33,-130.81 180.91,-125.37"/>
</g>
<!-- Node4 -->
<g id="node4" class="node">
<title>Node4</title>
<g id="a_node4"><a xlink:href="itkAnisotropicFourthOrderLevelSetImageFilter_8h.html" target="_top" xlink:title=" ">
<polygon fill="white" stroke="black" points="0,-0.5 0,-30.5 142,-30.5 142,-0.5 0,-0.5"/>
<text text-anchor="start" x="8" y="-18.5" font-family="Helvetica,sans-Serif" font-size="10.00">itkAnisotropicFourthOrder</text>
<text text-anchor="middle" x="71" y="-7.5" font-family="Helvetica,sans-Serif" font-size="10.00">LevelSetImageFilter.h</text>
</a>
</g>
</g>
<!-- Node3&#45;&gt;Node4 -->
<g id="edge3" class="edge">
<title>Node3&#45;&gt;Node4</title>
<path fill="none" stroke="midnightblue" d="M192.22,-63.68C165.44,-53.26 132.1,-40.28 107.17,-30.58"/>
<polygon fill="midnightblue" stroke="midnightblue" points="191.17,-67.03 201.76,-67.4 193.71,-60.51 191.17,-67.03"/>
</g>
<!-- Node5 -->
<g id="node5" class="node">
<title>Node5</title>
<g id="a_node5"><a xlink:href="itkIsotropicFourthOrderLevelSetImageFilter_8h.html" target="_top" xlink:title=" ">
<polygon fill="white" stroke="black" points="160.5,-0.5 160.5,-30.5 315.5,-30.5 315.5,-0.5 160.5,-0.5"/>
<text text-anchor="start" x="168.5" y="-18.5" font-family="Helvetica,sans-Serif" font-size="10.00">itkIsotropicFourthOrderLevel</text>
<text text-anchor="middle" x="238" y="-7.5" font-family="Helvetica,sans-Serif" font-size="10.00">SetImageFilter.h</text>
</a>
</g>
</g>
<!-- Node3&#45;&gt;Node5 -->
<g id="edge4" class="edge">
<title>Node3&#45;&gt;Node5</title>
<path fill="none" stroke="midnightblue" d="M238,-57.11C238,-48.15 238,-38.32 238,-30.58"/>
<polygon fill="midnightblue" stroke="midnightblue" points="234.5,-57.4 238,-67.4 241.5,-57.4 234.5,-57.4"/>
</g>
<!-- Node6 -->
<g id="node6" class="node">
<title>Node6</title>
<g id="a_node6"><a xlink:href="itkUnsharpMaskLevelSetImageFilter_8h.html" target="_top" xlink:title=" ">
<polygon fill="white" stroke="black" points="333.5,-0.5 333.5,-30.5 502.5,-30.5 502.5,-0.5 333.5,-0.5"/>
<text text-anchor="start" x="341.5" y="-18.5" font-family="Helvetica,sans-Serif" font-size="10.00">itkUnsharpMaskLevelSetImage</text>
<text text-anchor="middle" x="418" y="-7.5" font-family="Helvetica,sans-Serif" font-size="10.00">Filter.h</text>
</a>
</g>
</g>
<!-- Node3&#45;&gt;Node6 -->
<g id="edge5" class="edge">
<title>Node3&#45;&gt;Node6</title>
<path fill="none" stroke="midnightblue" d="M286.59,-63.96C315.58,-53.48 351.91,-40.37 379.02,-30.58"/>
<polygon fill="midnightblue" stroke="midnightblue" points="285.27,-60.71 277.06,-67.4 287.65,-67.29 285.27,-60.71"/>
</g>
<!-- Node7&#45;&gt;Node3 -->
<g id="edge7" class="edge">
<title>Node7&#45;&gt;Node3</title>
<path fill="none" stroke="midnightblue" d="M293.31,-127.88C281,-118.01 266.57,-106.43 255.54,-97.58"/>
<polygon fill="midnightblue" stroke="midnightblue" points="291.43,-130.87 301.42,-134.4 295.82,-125.41 291.43,-130.87"/>
</g>
</g>
</svg>
