<?xml version="1.0" encoding="UTF-8" standalone="no"?>
<!DOCTYPE svg PUBLIC "-//W3C//DTD SVG 1.1//EN"
 "http://www.w3.org/Graphics/SVG/1.1/DTD/svg11.dtd">
<!-- Generated by graphviz version 2.43.0 (0)
 -->
<!-- Title: itkNeighborhoodOperatorImageFilter.h Pages: 1 -->
<svg width="684pt" height="173pt"
 viewBox="0.00 0.00 683.50 173.00" xmlns="http://www.w3.org/2000/svg" xmlns:xlink="http://www.w3.org/1999/xlink">
<g id="graph0" class="graph" transform="scale(1 1) rotate(0) translate(4 169)">
<title>itkNeighborhoodOperatorImageFilter.h</title>
<polygon fill="white" stroke="transparent" points="-4,4 -4,-169 679.5,-169 679.5,4 -4,4"/>
<!-- Node1 -->
<g id="node1" class="node">
<title>Node1</title>
<g id="a_node1"><a xlink:title=" ">
<polygon fill="#bfbfbf" stroke="black" points="254,-134.5 254,-164.5 425,-164.5 425,-134.5 254,-134.5"/>
<text text-anchor="start" x="262" y="-152.5" font-family="Helvetica,sans-Serif" font-size="10.00">itkNeighborhoodOperatorImage</text>
<text text-anchor="middle" x="339.5" y="-141.5" font-family="Helvetica,sans-Serif" font-size="10.00">Filter.h</text>
</a>
</g>
</g>
<!-- Node2 -->
<g id="node2" class="node">
<title>Node2</title>
<g id="a_node2"><a xlink:href="itkMaskNeighborhoodOperatorImageFilter_8h.html" target="_top" xlink:title=" ">
<polygon fill="white" stroke="black" points="0,-67.5 0,-97.5 167,-97.5 167,-67.5 0,-67.5"/>
<text text-anchor="start" x="8" y="-85.5" font-family="Helvetica,sans-Serif" font-size="10.00">itkMaskNeighborhoodOperator</text>
<text text-anchor="middle" x="83.5" y="-74.5" font-family="Helvetica,sans-Serif" font-size="10.00">ImageFilter.h</text>
</a>
</g>
</g>
<!-- Node1&#45;&gt;Node2 -->
<g id="edge1" class="edge">
<title>Node1&#45;&gt;Node2</title>
<path fill="none" stroke="midnightblue" d="M274.45,-131.98C232.64,-121.37 178.89,-107.72 139.08,-97.61"/>
<polygon fill="midnightblue" stroke="midnightblue" points="273.71,-135.41 284.27,-134.48 275.44,-128.62 273.71,-135.41"/>
</g>
<!-- Node3 -->
<g id="node3" class="node">
<title>Node3</title>
<g id="a_node3"><a xlink:href="itkNormalizedCorrelationImageFilter_8h.html" target="_top" xlink:title=" ">
<polygon fill="white" stroke="black" points="185.5,-67.5 185.5,-97.5 325.5,-97.5 325.5,-67.5 185.5,-67.5"/>
<text text-anchor="start" x="193.5" y="-85.5" font-family="Helvetica,sans-Serif" font-size="10.00">itkNormalizedCorrelation</text>
<text text-anchor="middle" x="255.5" y="-74.5" font-family="Helvetica,sans-Serif" font-size="10.00">ImageFilter.h</text>
</a>
</g>
</g>
<!-- Node1&#45;&gt;Node3 -->
<g id="edge2" class="edge">
<title>Node1&#45;&gt;Node3</title>
<path fill="none" stroke="midnightblue" d="M313.22,-128.17C300.38,-118.23 285.24,-106.51 273.69,-97.58"/>
<polygon fill="midnightblue" stroke="midnightblue" points="311.22,-131.04 321.27,-134.4 315.51,-125.51 311.22,-131.04"/>
</g>
<!-- Node4 -->
<g id="node4" class="node">
<title>Node4</title>
<g id="a_node4"><a xlink:href="itkGPUNeighborhoodOperatorImageFilter_8h.html" target="_top" xlink:title=" ">
<polygon fill="white" stroke="black" points="344,-67.5 344,-97.5 505,-97.5 505,-67.5 344,-67.5"/>
<text text-anchor="start" x="352" y="-85.5" font-family="Helvetica,sans-Serif" font-size="10.00">itkGPUNeighborhoodOperator</text>
<text text-anchor="middle" x="424.5" y="-74.5" font-family="Helvetica,sans-Serif" font-size="10.00">ImageFilter.h</text>
</a>
</g>
</g>
<!-- Node1&#45;&gt;Node4 -->
<g id="edge3" class="edge">
<title>Node1&#45;&gt;Node4</title>
<path fill="none" stroke="midnightblue" d="M366.09,-128.17C379.09,-118.23 394.4,-106.51 406.09,-97.58"/>
<polygon fill="midnightblue" stroke="midnightblue" points="363.76,-125.54 357.94,-134.4 368.01,-131.1 363.76,-125.54"/>
</g>
<!-- Node6 -->
<g id="node6" class="node">
<title>Node6</title>
<g id="a_node6"><a xlink:href="itkGradientDifferenceImageToImageMetric_8h.html" target="_top" xlink:title=" ">
<polygon fill="white" stroke="black" points="523.5,-67.5 523.5,-97.5 675.5,-97.5 675.5,-67.5 523.5,-67.5"/>
<text text-anchor="start" x="531.5" y="-85.5" font-family="Helvetica,sans-Serif" font-size="10.00">itkGradientDifferenceImage</text>
<text text-anchor="middle" x="599.5" y="-74.5" font-family="Helvetica,sans-Serif" font-size="10.00">ToImageMetric.h</text>
</a>
</g>
</g>
<!-- Node1&#45;&gt;Node6 -->
<g id="edge5" class="edge">
<title>Node1&#45;&gt;Node6</title>
<path fill="none" stroke="midnightblue" d="M405.56,-131.98C448.03,-121.37 502.62,-107.72 543.06,-97.61"/>
<polygon fill="midnightblue" stroke="midnightblue" points="404.45,-128.66 395.6,-134.48 406.15,-135.45 404.45,-128.66"/>
</g>
<!-- Node5 -->
<g id="node5" class="node">
<title>Node5</title>
<g id="a_node5"><a xlink:href="itkGPUDiscreteGaussianImageFilter_8h.html" target="_top" xlink:title=" ">
<polygon fill="white" stroke="black" points="341,-0.5 341,-30.5 508,-30.5 508,-0.5 341,-0.5"/>
<text text-anchor="start" x="349" y="-18.5" font-family="Helvetica,sans-Serif" font-size="10.00">itkGPUDiscreteGaussianImage</text>
<text text-anchor="middle" x="424.5" y="-7.5" font-family="Helvetica,sans-Serif" font-size="10.00">Filter.h</text>
</a>
</g>
</g>
<!-- Node4&#45;&gt;Node5 -->
<g id="edge4" class="edge">
<title>Node4&#45;&gt;Node5</title>
<path fill="none" stroke="midnightblue" d="M424.5,-57.11C424.5,-48.15 424.5,-38.32 424.5,-30.58"/>
<polygon fill="midnightblue" stroke="midnightblue" points="421,-57.4 424.5,-67.4 428,-57.4 421,-57.4"/>
</g>
</g>
</svg>
