<?xml version="1.0" encoding="UTF-8" standalone="no"?>
<!DOCTYPE svg PUBLIC "-//W3C//DTD SVG 1.1//EN"
 "http://www.w3.org/Graphics/SVG/1.1/DTD/svg11.dtd">
<!-- Generated by graphviz version 2.43.0 (0)
 -->
<!-- Title: itkNumberToString.h Pages: 1 -->
<svg width="570pt" height="95pt"
 viewBox="0.00 0.00 570.00 95.00" xmlns="http://www.w3.org/2000/svg" xmlns:xlink="http://www.w3.org/1999/xlink">
<g id="graph0" class="graph" transform="scale(1 1) rotate(0) translate(4 91)">
<title>itkNumberToString.h</title>
<polygon fill="white" stroke="transparent" points="-4,4 -4,-91 566,-91 566,4 -4,4"/>
<!-- Node1 -->
<g id="node1" class="node">
<title>Node1</title>
<g id="a_node1"><a xlink:title=" ">
<polygon fill="#bfbfbf" stroke="black" points="154,-67.5 154,-86.5 270,-86.5 270,-67.5 154,-67.5"/>
<text text-anchor="middle" x="212" y="-74.5" font-family="Helvetica,sans-Serif" font-size="10.00">itkNumberToString.h</text>
</a>
</g>
</g>
<!-- Node2 -->
<g id="node2" class="node">
<title>Node2</title>
<g id="a_node2"><a xlink:href="itkMacro_8h.html" target="_top" xlink:title=" ">
<polygon fill="white" stroke="black" points="0,-6 0,-25 68,-25 68,-6 0,-6"/>
<text text-anchor="middle" x="34" y="-13" font-family="Helvetica,sans-Serif" font-size="10.00">itkMacro.h</text>
</a>
</g>
</g>
<!-- Node1&#45;&gt;Node2 -->
<g id="edge1" class="edge">
<title>Node1&#45;&gt;Node2</title>
<path fill="none" stroke="midnightblue" d="M186.36,-67.48C159.2,-58.45 115.06,-43.76 77,-31 74.43,-30.14 71.77,-29.24 69.09,-28.35"/>
<polygon fill="midnightblue" stroke="midnightblue" points="70.06,-24.98 59.46,-25.1 67.82,-31.61 70.06,-24.98"/>
</g>
<!-- Node3 -->
<g id="node3" class="node">
<title>Node3</title>
<g id="a_node3"><a xlink:title=" ">
<polygon fill="white" stroke="#bfbfbf" points="86,-6 86,-25 130,-25 130,-6 86,-6"/>
<text text-anchor="middle" x="108" y="-13" font-family="Helvetica,sans-Serif" font-size="10.00">string</text>
</a>
</g>
</g>
<!-- Node1&#45;&gt;Node3 -->
<g id="edge2" class="edge">
<title>Node1&#45;&gt;Node3</title>
<path fill="none" stroke="midnightblue" d="M197.1,-67.48C180.03,-57.71 151.84,-41.58 131.74,-30.08"/>
<polygon fill="midnightblue" stroke="midnightblue" points="133.29,-26.94 122.87,-25.01 129.81,-33.01 133.29,-26.94"/>
</g>
<!-- Node4 -->
<g id="node4" class="node">
<title>Node4</title>
<g id="a_node4"><a xlink:title=" ">
<polygon fill="white" stroke="#bfbfbf" points="148,-6 148,-25 276,-25 276,-6 148,-6"/>
<text text-anchor="middle" x="212" y="-13" font-family="Helvetica,sans-Serif" font-size="10.00">itkNumberToString.hxx</text>
</a>
</g>
</g>
<!-- Node1&#45;&gt;Node4 -->
<g id="edge3" class="edge">
<title>Node1&#45;&gt;Node4</title>
<path fill="none" stroke="midnightblue" d="M212,-67.48C212,-59.08 212,-45.98 212,-35.16"/>
<polygon fill="midnightblue" stroke="midnightblue" points="215.5,-35.01 212,-25.01 208.5,-35.01 215.5,-35.01"/>
</g>
<!-- Node5 -->
<g id="node5" class="node">
<title>Node5</title>
<g id="a_node5"><a xlink:title=" ">
<polygon fill="white" stroke="#bfbfbf" points="294,-0.5 294,-30.5 488,-30.5 488,-0.5 294,-0.5"/>
<text text-anchor="start" x="302" y="-18.5" font-family="Helvetica,sans-Serif" font-size="10.00">/work/ITK/Modules/Core</text>
<text text-anchor="middle" x="391" y="-7.5" font-family="Helvetica,sans-Serif" font-size="10.00">/Common/include/itkNumericTraits.h</text>
</a>
</g>
</g>
<!-- Node1&#45;&gt;Node5 -->
<g id="edge4" class="edge">
<title>Node1&#45;&gt;Node5</title>
<path fill="none" stroke="midnightblue" d="M237.65,-67.48C264.04,-58.7 305.9,-44.79 339.22,-33.71"/>
<polygon fill="midnightblue" stroke="midnightblue" points="340.43,-37 348.81,-30.52 338.22,-30.36 340.43,-37"/>
</g>
<!-- Node6 -->
<g id="node6" class="node">
<title>Node6</title>
<g id="a_node6"><a xlink:title=" ">
<polygon fill="white" stroke="#bfbfbf" points="506,-6 506,-25 562,-25 562,-6 506,-6"/>
<text text-anchor="middle" x="534" y="-13" font-family="Helvetica,sans-Serif" font-size="10.00">sstream</text>
</a>
</g>
</g>
<!-- Node1&#45;&gt;Node6 -->
<g id="edge5" class="edge">
<title>Node1&#45;&gt;Node6</title>
<path fill="none" stroke="midnightblue" d="M270.09,-70.56C328.24,-64.25 419.89,-51.93 497,-31 499.59,-30.3 502.26,-29.47 504.91,-28.58"/>
<polygon fill="midnightblue" stroke="midnightblue" points="506.11,-31.86 514.3,-25.13 503.7,-25.29 506.11,-31.86"/>
</g>
</g>
</svg>
