<?xml version="1.0" encoding="UTF-8" standalone="no"?>
<!DOCTYPE svg PUBLIC "-//W3C//DTD SVG 1.1//EN"
 "http://www.w3.org/Graphics/SVG/1.1/DTD/svg11.dtd">
<!-- Generated by graphviz version 2.43.0 (0)
 -->
<!-- Title: itkNoiseBaseImageFilter.h Pages: 1 -->
<svg width="666pt" height="95pt"
 viewBox="0.00 0.00 666.00 95.00" xmlns="http://www.w3.org/2000/svg" xmlns:xlink="http://www.w3.org/1999/xlink">
<g id="graph0" class="graph" transform="scale(1 1) rotate(0) translate(4 91)">
<title>itkNoiseBaseImageFilter.h</title>
<polygon fill="white" stroke="transparent" points="-4,4 -4,-91 662,-91 662,4 -4,4"/>
<!-- Node1 -->
<g id="node1" class="node">
<title>Node1</title>
<g id="a_node1"><a xlink:title=" ">
<polygon fill="#bfbfbf" stroke="black" points="252,-67.5 252,-86.5 397,-86.5 397,-67.5 252,-67.5"/>
<text text-anchor="middle" x="324.5" y="-74.5" font-family="Helvetica,sans-Serif" font-size="10.00">itkNoiseBaseImageFilter.h</text>
</a>
</g>
</g>
<!-- Node2 -->
<g id="node2" class="node">
<title>Node2</title>
<g id="a_node2"><a xlink:href="itkAdditiveGaussianNoiseImageFilter_8h.html" target="_top" xlink:title=" ">
<polygon fill="white" stroke="black" points="0,-0.5 0,-30.5 143,-30.5 143,-0.5 0,-0.5"/>
<text text-anchor="start" x="8" y="-18.5" font-family="Helvetica,sans-Serif" font-size="10.00">itkAdditiveGaussianNoise</text>
<text text-anchor="middle" x="71.5" y="-7.5" font-family="Helvetica,sans-Serif" font-size="10.00">ImageFilter.h</text>
</a>
</g>
</g>
<!-- Node1&#45;&gt;Node2 -->
<g id="edge1" class="edge">
<title>Node1&#45;&gt;Node2</title>
<path fill="none" stroke="midnightblue" d="M278.45,-65.17C237.11,-55.45 176.18,-41.12 131.13,-30.52"/>
<polygon fill="midnightblue" stroke="midnightblue" points="277.72,-68.59 288.25,-67.48 279.32,-61.78 277.72,-68.59"/>
</g>
<!-- Node3 -->
<g id="node3" class="node">
<title>Node3</title>
<g id="a_node3"><a xlink:href="itkSaltAndPepperNoiseImageFilter_8h.html" target="_top" xlink:title=" ">
<polygon fill="white" stroke="black" points="161,-0.5 161,-30.5 320,-30.5 320,-0.5 161,-0.5"/>
<text text-anchor="start" x="169" y="-18.5" font-family="Helvetica,sans-Serif" font-size="10.00">itkSaltAndPepperNoiseImage</text>
<text text-anchor="middle" x="240.5" y="-7.5" font-family="Helvetica,sans-Serif" font-size="10.00">Filter.h</text>
</a>
</g>
</g>
<!-- Node1&#45;&gt;Node3 -->
<g id="edge2" class="edge">
<title>Node1&#45;&gt;Node3</title>
<path fill="none" stroke="midnightblue" d="M303.98,-61.47C290.68,-52.05 273.45,-39.84 260.3,-30.52"/>
<polygon fill="midnightblue" stroke="midnightblue" points="302.28,-64.55 312.46,-67.48 306.33,-58.84 302.28,-64.55"/>
</g>
<!-- Node4 -->
<g id="node4" class="node">
<title>Node4</title>
<g id="a_node4"><a xlink:href="itkShotNoiseImageFilter_8h.html" target="_top" xlink:title=" ">
<polygon fill="white" stroke="black" points="338,-6 338,-25 481,-25 481,-6 338,-6"/>
<text text-anchor="middle" x="409.5" y="-13" font-family="Helvetica,sans-Serif" font-size="10.00">itkShotNoiseImageFilter.h</text>
</a>
</g>
</g>
<!-- Node1&#45;&gt;Node4 -->
<g id="edge3" class="edge">
<title>Node1&#45;&gt;Node4</title>
<path fill="none" stroke="midnightblue" d="M345.05,-61.61C361.4,-50.17 383.72,-34.55 397.34,-25.01"/>
<polygon fill="midnightblue" stroke="midnightblue" points="342.86,-58.87 336.68,-67.48 346.88,-64.61 342.86,-58.87"/>
</g>
<!-- Node5 -->
<g id="node5" class="node">
<title>Node5</title>
<g id="a_node5"><a xlink:href="itkSpeckleNoiseImageFilter_8h.html" target="_top" xlink:title=" ">
<polygon fill="white" stroke="black" points="499,-6 499,-25 658,-25 658,-6 499,-6"/>
<text text-anchor="middle" x="578.5" y="-13" font-family="Helvetica,sans-Serif" font-size="10.00">itkSpeckleNoiseImageFilter.h</text>
</a>
</g>
</g>
<!-- Node1&#45;&gt;Node5 -->
<g id="edge4" class="edge">
<title>Node1&#45;&gt;Node5</title>
<path fill="none" stroke="midnightblue" d="M370.66,-65.19C419.95,-53.64 497.03,-35.58 542.18,-25.01"/>
<polygon fill="midnightblue" stroke="midnightblue" points="369.83,-61.79 360.89,-67.48 371.43,-68.6 369.83,-61.79"/>
</g>
</g>
</svg>
