<?xml version="1.0" encoding="UTF-8" standalone="no"?>
<!DOCTYPE svg PUBLIC "-//W3C//DTD SVG 1.1//EN"
 "http://www.w3.org/Graphics/SVG/1.1/DTD/svg11.dtd">
<!-- Generated by graphviz version 2.43.0 (0)
 -->
<!-- Title: itkNeighborhood.h Pages: 1 -->
<svg width="1157pt" height="375pt"
 viewBox="0.00 0.00 1157.00 375.00" xmlns="http://www.w3.org/2000/svg" xmlns:xlink="http://www.w3.org/1999/xlink">
<g id="graph0" class="graph" transform="scale(1 1) rotate(0) translate(4 371)">
<title>itkNeighborhood.h</title>
<polygon fill="white" stroke="transparent" points="-4,4 -4,-371 1153,-371 1153,4 -4,4"/>
<!-- Node1 -->
<g id="node1" class="node">
<title>Node1</title>
<g id="a_node1"><a xlink:title=" ">
<polygon fill="#bfbfbf" stroke="black" points="298,-347.5 298,-366.5 405,-366.5 405,-347.5 298,-347.5"/>
<text text-anchor="middle" x="351.5" y="-354.5" font-family="Helvetica,sans-Serif" font-size="10.00">itkNeighborhood.h</text>
</a>
</g>
</g>
<!-- Node2 -->
<g id="node2" class="node">
<title>Node2</title>
<g id="a_node2"><a xlink:title=" ">
<polygon fill="white" stroke="#bfbfbf" points="180.5,-123.5 180.5,-142.5 240.5,-142.5 240.5,-123.5 180.5,-123.5"/>
<text text-anchor="middle" x="210.5" y="-130.5" font-family="Helvetica,sans-Serif" font-size="10.00">iostream</text>
</a>
</g>
</g>
<!-- Node1&#45;&gt;Node2 -->
<g id="edge1" class="edge">
<title>Node1&#45;&gt;Node2</title>
<path fill="none" stroke="midnightblue" d="M343,-347.21C321.45,-324.5 264.14,-261.3 231.5,-199 223.76,-184.23 218.19,-166.07 214.74,-152.71"/>
<polygon fill="midnightblue" stroke="midnightblue" points="218.09,-151.68 212.33,-142.79 211.29,-153.33 218.09,-151.68"/>
</g>
<!-- Node3 -->
<g id="node3" class="node">
<title>Node3</title>
<g id="a_node3"><a xlink:href="itkNeighborhoodAllocator_8h.html" target="_top" xlink:title=" ">
<polygon fill="white" stroke="black" points="240,-179.5 240,-198.5 389,-198.5 389,-179.5 240,-179.5"/>
<text text-anchor="middle" x="314.5" y="-186.5" font-family="Helvetica,sans-Serif" font-size="10.00">itkNeighborhoodAllocator.h</text>
</a>
</g>
</g>
<!-- Node1&#45;&gt;Node3 -->
<g id="edge2" class="edge">
<title>Node1&#45;&gt;Node3</title>
<path fill="none" stroke="midnightblue" d="M347.31,-347.24C343.21,-338.31 337.07,-323.98 333.5,-311 323.77,-275.58 318.52,-232.87 316.13,-208.83"/>
<polygon fill="midnightblue" stroke="midnightblue" points="319.6,-208.28 315.19,-198.65 312.63,-208.93 319.6,-208.28"/>
</g>
<!-- Node7 -->
<g id="node7" class="node">
<title>Node7</title>
<g id="a_node7"><a xlink:href="itkIndent_8h.html" target="_top" xlink:title=" ">
<polygon fill="white" stroke="black" points="115,-179.5 115,-198.5 184,-198.5 184,-179.5 115,-179.5"/>
<text text-anchor="middle" x="149.5" y="-186.5" font-family="Helvetica,sans-Serif" font-size="10.00">itkIndent.h</text>
</a>
</g>
</g>
<!-- Node1&#45;&gt;Node7 -->
<g id="edge7" class="edge">
<title>Node1&#45;&gt;Node7</title>
<path fill="none" stroke="midnightblue" d="M297.65,-351.82C265.42,-346.73 225.59,-335.54 198.5,-311 168.37,-283.71 156.41,-235.26 151.94,-208.7"/>
<polygon fill="midnightblue" stroke="midnightblue" points="155.4,-208.15 150.46,-198.78 148.48,-209.19 155.4,-208.15"/>
</g>
<!-- Node8 -->
<g id="node8" class="node">
<title>Node8</title>
<g id="a_node8"><a xlink:href="itkSliceIterator_8h.html" target="_top" xlink:title=" ">
<polygon fill="white" stroke="black" points="0,-179.5 0,-198.5 97,-198.5 97,-179.5 0,-179.5"/>
<text text-anchor="middle" x="48.5" y="-186.5" font-family="Helvetica,sans-Serif" font-size="10.00">itkSliceIterator.h</text>
</a>
</g>
</g>
<!-- Node1&#45;&gt;Node8 -->
<g id="edge10" class="edge">
<title>Node1&#45;&gt;Node8</title>
<path fill="none" stroke="midnightblue" d="M297.88,-349.06C262.35,-342.82 215.63,-331.38 178.5,-311 128.48,-283.54 82.84,-232.54 61.39,-206.39"/>
<polygon fill="midnightblue" stroke="midnightblue" points="64.07,-204.14 55.07,-198.55 58.61,-208.53 64.07,-204.14"/>
</g>
<!-- Node13 -->
<g id="node13" class="node">
<title>Node13</title>
<g id="a_node13"><a xlink:title=" ">
<polygon fill="white" stroke="#bfbfbf" points="342.5,-291.5 342.5,-310.5 436.5,-310.5 436.5,-291.5 342.5,-291.5"/>
<text text-anchor="middle" x="389.5" y="-298.5" font-family="Helvetica,sans-Serif" font-size="10.00">vnl/vnl_vector.h</text>
</a>
</g>
</g>
<!-- Node1&#45;&gt;Node13 -->
<g id="edge17" class="edge">
<title>Node1&#45;&gt;Node13</title>
<path fill="none" stroke="midnightblue" d="M357.77,-347.08C363.14,-339.46 371.02,-328.26 377.58,-318.94"/>
<polygon fill="midnightblue" stroke="midnightblue" points="380.45,-320.94 383.34,-310.75 374.72,-316.91 380.45,-320.94"/>
</g>
<!-- Node14 -->
<g id="node14" class="node">
<title>Node14</title>
<g id="a_node14"><a xlink:href="itkOffset_8h.html" target="_top" xlink:title=" ">
<polygon fill="white" stroke="black" points="480.5,-291.5 480.5,-310.5 548.5,-310.5 548.5,-291.5 480.5,-291.5"/>
<text text-anchor="middle" x="514.5" y="-298.5" font-family="Helvetica,sans-Serif" font-size="10.00">itkOffset.h</text>
</a>
</g>
</g>
<!-- Node1&#45;&gt;Node14 -->
<g id="edge18" class="edge">
<title>Node1&#45;&gt;Node14</title>
<path fill="none" stroke="midnightblue" d="M377.33,-347.44C404.75,-338.36 448.28,-323.94 478.93,-313.78"/>
<polygon fill="midnightblue" stroke="midnightblue" points="480.4,-316.98 488.79,-310.52 478.2,-310.34 480.4,-316.98"/>
</g>
<!-- Node34 -->
<g id="node34" class="node">
<title>Node34</title>
<g id="a_node34"><a xlink:title=" ">
<polygon fill="white" stroke="#bfbfbf" points="567,-291.5 567,-310.5 614,-310.5 614,-291.5 567,-291.5"/>
<text text-anchor="middle" x="590.5" y="-298.5" font-family="Helvetica,sans-Serif" font-size="10.00">vector</text>
</a>
</g>
</g>
<!-- Node1&#45;&gt;Node34 -->
<g id="edge53" class="edge">
<title>Node1&#45;&gt;Node34</title>
<path fill="none" stroke="midnightblue" d="M393.47,-347.49C433.08,-339.31 494.35,-326.28 556.73,-311.09"/>
<polygon fill="midnightblue" stroke="midnightblue" points="557.87,-314.42 566.74,-308.63 556.2,-307.62 557.87,-314.42"/>
</g>
<!-- Node35 -->
<g id="node35" class="node">
<title>Node35</title>
<g id="a_node35"><a xlink:title=" ">
<polygon fill="white" stroke="#bfbfbf" points="632,-291.5 632,-310.5 751,-310.5 751,-291.5 632,-291.5"/>
<text text-anchor="middle" x="691.5" y="-298.5" font-family="Helvetica,sans-Serif" font-size="10.00">itkNeighborhood.hxx</text>
</a>
</g>
</g>
<!-- Node1&#45;&gt;Node35 -->
<g id="edge54" class="edge">
<title>Node1&#45;&gt;Node35</title>
<path fill="none" stroke="midnightblue" d="M405.37,-347.44C465.81,-337.85 563.74,-322.29 627.88,-312.1"/>
<polygon fill="midnightblue" stroke="midnightblue" points="628.55,-315.54 637.88,-310.52 627.45,-308.63 628.55,-315.54"/>
</g>
<!-- Node3&#45;&gt;Node2 -->
<g id="edge4" class="edge">
<title>Node3&#45;&gt;Node2</title>
<path fill="none" stroke="midnightblue" d="M297.79,-179.32C281.19,-170.7 255.5,-157.36 236.28,-147.39"/>
<polygon fill="midnightblue" stroke="midnightblue" points="237.66,-144.16 227.17,-142.65 234.43,-150.37 237.66,-144.16"/>
</g>
<!-- Node4 -->
<g id="node4" class="node">
<title>Node4</title>
<g id="a_node4"><a xlink:title=" ">
<polygon fill="white" stroke="#bfbfbf" points="885.5,-6 885.5,-25 949.5,-25 949.5,-6 885.5,-6"/>
<text text-anchor="middle" x="917.5" y="-13" font-family="Helvetica,sans-Serif" font-size="10.00">algorithm</text>
</a>
</g>
</g>
<!-- Node3&#45;&gt;Node4 -->
<g id="edge3" class="edge">
<title>Node3&#45;&gt;Node4</title>
<path fill="none" stroke="midnightblue" d="M389.12,-179.88C498.54,-167.9 691.28,-146.54 706.5,-143 724.54,-138.81 848.53,-97.91 863.5,-87 882.9,-72.86 898.67,-49.84 908.06,-33.98"/>
<polygon fill="midnightblue" stroke="midnightblue" points="911.17,-35.59 913.05,-25.17 905.08,-32.14 911.17,-35.59"/>
</g>
<!-- Node5 -->
<g id="node5" class="node">
<title>Node5</title>
<g id="a_node5"><a xlink:title=" ">
<polygon fill="white" stroke="#bfbfbf" points="786.5,-123.5 786.5,-142.5 844.5,-142.5 844.5,-123.5 786.5,-123.5"/>
<text text-anchor="middle" x="815.5" y="-130.5" font-family="Helvetica,sans-Serif" font-size="10.00">memory</text>
</a>
</g>
</g>
<!-- Node3&#45;&gt;Node5 -->
<g id="edge5" class="edge">
<title>Node3&#45;&gt;Node5</title>
<path fill="none" stroke="midnightblue" d="M389.15,-179.96C392.31,-179.63 395.44,-179.31 398.5,-179 564.63,-162.1 607.41,-168.14 772.5,-143 773.77,-142.81 775.06,-142.6 776.37,-142.38"/>
<polygon fill="midnightblue" stroke="midnightblue" points="777.23,-145.78 786.43,-140.54 775.97,-138.9 777.23,-145.78"/>
</g>
<!-- Node6 -->
<g id="node6" class="node">
<title>Node6</title>
<g id="a_node6"><a xlink:href="itkMacro_8h.html" target="_top" xlink:title=" ">
<polygon fill="white" stroke="black" points="332.5,-6 332.5,-25 400.5,-25 400.5,-6 332.5,-6"/>
<text text-anchor="middle" x="366.5" y="-13" font-family="Helvetica,sans-Serif" font-size="10.00">itkMacro.h</text>
</a>
</g>
</g>
<!-- Node3&#45;&gt;Node6 -->
<g id="edge6" class="edge">
<title>Node3&#45;&gt;Node6</title>
<path fill="none" stroke="midnightblue" d="M306.87,-179.25C289.8,-158.56 251.74,-105.46 274.5,-67 285.46,-48.49 305.87,-36.31 324.69,-28.56"/>
<polygon fill="midnightblue" stroke="midnightblue" points="325.94,-31.83 334.04,-25 323.45,-25.29 325.94,-31.83"/>
</g>
<!-- Node7&#45;&gt;Node2 -->
<g id="edge9" class="edge">
<title>Node7&#45;&gt;Node2</title>
<path fill="none" stroke="midnightblue" d="M159.3,-179.32C168.32,-171.34 181.91,-159.31 192.82,-149.65"/>
<polygon fill="midnightblue" stroke="midnightblue" points="195.35,-152.08 200.52,-142.83 190.71,-146.84 195.35,-152.08"/>
</g>
<!-- Node7&#45;&gt;Node6 -->
<g id="edge8" class="edge">
<title>Node7&#45;&gt;Node6</title>
<path fill="none" stroke="midnightblue" d="M150.54,-179.08C152.52,-165.62 157.91,-139.89 171.5,-123 211.74,-72.99 282.07,-42.99 326.36,-28.12"/>
<polygon fill="midnightblue" stroke="midnightblue" points="327.51,-31.43 335.94,-25.01 325.34,-24.77 327.51,-31.43"/>
</g>
<!-- Node8&#45;&gt;Node6 -->
<g id="edge11" class="edge">
<title>Node8&#45;&gt;Node6</title>
<path fill="none" stroke="midnightblue" d="M47.12,-179.35C45.47,-165.77 44.37,-139.34 57.5,-123 122.81,-41.68 253.64,-22.23 322.23,-17.73"/>
<polygon fill="midnightblue" stroke="midnightblue" points="322.5,-21.22 332.28,-17.15 322.1,-14.23 322.5,-21.22"/>
</g>
<!-- Node9 -->
<g id="node9" class="node">
<title>Node9</title>
<g id="a_node9"><a xlink:href="itkIntTypes_8h.html" target="_top" xlink:title=" ">
<polygon fill="white" stroke="black" points="310,-123.5 310,-142.5 389,-142.5 389,-123.5 310,-123.5"/>
<text text-anchor="middle" x="349.5" y="-130.5" font-family="Helvetica,sans-Serif" font-size="10.00">itkIntTypes.h</text>
</a>
</g>
</g>
<!-- Node8&#45;&gt;Node9 -->
<g id="edge12" class="edge">
<title>Node8&#45;&gt;Node9</title>
<path fill="none" stroke="midnightblue" d="M96.19,-179.44C151.75,-169.48 243.11,-153.09 299.59,-142.95"/>
<polygon fill="midnightblue" stroke="midnightblue" points="300.49,-146.35 309.72,-141.14 299.26,-139.46 300.49,-146.35"/>
</g>
<!-- Node12 -->
<g id="node12" class="node">
<title>Node12</title>
<g id="a_node12"><a xlink:title=" ">
<polygon fill="white" stroke="#bfbfbf" points="67,-123.5 67,-142.5 124,-142.5 124,-123.5 67,-123.5"/>
<text text-anchor="middle" x="95.5" y="-130.5" font-family="Helvetica,sans-Serif" font-size="10.00">valarray</text>
</a>
</g>
</g>
<!-- Node8&#45;&gt;Node12 -->
<g id="edge16" class="edge">
<title>Node8&#45;&gt;Node12</title>
<path fill="none" stroke="midnightblue" d="M56.26,-179.08C63.04,-171.3 73.04,-159.8 81.26,-150.37"/>
<polygon fill="midnightblue" stroke="midnightblue" points="83.96,-152.59 87.88,-142.75 78.68,-148 83.96,-152.59"/>
</g>
<!-- Node9&#45;&gt;Node6 -->
<g id="edge13" class="edge">
<title>Node9&#45;&gt;Node6</title>
<path fill="none" stroke="midnightblue" d="M327.85,-123.48C303.08,-112.36 267.61,-91.41 281.5,-67 291.67,-49.13 310.94,-36.92 328.56,-28.99"/>
<polygon fill="midnightblue" stroke="midnightblue" points="330.23,-32.09 338.12,-25.02 327.54,-25.63 330.23,-32.09"/>
</g>
<!-- Node10 -->
<g id="node10" class="node">
<title>Node10</title>
<g id="a_node10"><a xlink:title=" ">
<polygon fill="white" stroke="#bfbfbf" points="290.5,-67.5 290.5,-86.5 340.5,-86.5 340.5,-67.5 290.5,-67.5"/>
<text text-anchor="middle" x="315.5" y="-74.5" font-family="Helvetica,sans-Serif" font-size="10.00">cstdint</text>
</a>
</g>
</g>
<!-- Node9&#45;&gt;Node10 -->
<g id="edge14" class="edge">
<title>Node9&#45;&gt;Node10</title>
<path fill="none" stroke="midnightblue" d="M343.89,-123.08C339.13,-115.53 332.18,-104.49 326.35,-95.23"/>
<polygon fill="midnightblue" stroke="midnightblue" points="329.3,-93.35 321.01,-86.75 323.38,-97.08 329.3,-93.35"/>
</g>
<!-- Node11 -->
<g id="node11" class="node">
<title>Node11</title>
<g id="a_node11"><a xlink:title=" ">
<polygon fill="white" stroke="#bfbfbf" points="358.5,-67.5 358.5,-86.5 408.5,-86.5 408.5,-67.5 358.5,-67.5"/>
<text text-anchor="middle" x="383.5" y="-74.5" font-family="Helvetica,sans-Serif" font-size="10.00">climits</text>
</a>
</g>
</g>
<!-- Node9&#45;&gt;Node11 -->
<g id="edge15" class="edge">
<title>Node9&#45;&gt;Node11</title>
<path fill="none" stroke="midnightblue" d="M355.11,-123.08C359.87,-115.53 366.82,-104.49 372.65,-95.23"/>
<polygon fill="midnightblue" stroke="midnightblue" points="375.62,-97.08 377.99,-86.75 369.7,-93.35 375.62,-97.08"/>
</g>
<!-- Node15 -->
<g id="node15" class="node">
<title>Node15</title>
<g id="a_node15"><a xlink:href="itkSize_8h.html" target="_top" xlink:title=" ">
<polygon fill="white" stroke="black" points="932,-179.5 932,-198.5 991,-198.5 991,-179.5 932,-179.5"/>
<text text-anchor="middle" x="961.5" y="-186.5" font-family="Helvetica,sans-Serif" font-size="10.00">itkSize.h</text>
</a>
</g>
</g>
<!-- Node14&#45;&gt;Node15 -->
<g id="edge19" class="edge">
<title>Node14&#45;&gt;Node15</title>
<path fill="none" stroke="midnightblue" d="M548.83,-291.55C630.36,-271.49 835.24,-221.07 921.85,-199.76"/>
<polygon fill="midnightblue" stroke="midnightblue" points="922.94,-203.09 931.81,-197.31 921.27,-196.3 922.94,-203.09"/>
</g>
<!-- Node17 -->
<g id="node17" class="node">
<title>Node17</title>
<g id="a_node17"><a xlink:title=" ">
<polygon fill="white" stroke="#bfbfbf" points="1096,-123.5 1096,-142.5 1149,-142.5 1149,-123.5 1096,-123.5"/>
<text text-anchor="middle" x="1122.5" y="-130.5" font-family="Helvetica,sans-Serif" font-size="10.00">cstddef</text>
</a>
</g>
</g>
<!-- Node14&#45;&gt;Node17 -->
<g id="edge52" class="edge">
<title>Node14&#45;&gt;Node17</title>
<path fill="none" stroke="midnightblue" d="M548.6,-292.96C551.94,-292.29 555.29,-291.63 558.5,-291 755.43,-252.5 812.38,-268.82 1000.5,-199 1037.25,-185.36 1076.76,-162.67 1100.56,-148.03"/>
<polygon fill="midnightblue" stroke="midnightblue" points="1102.53,-150.92 1109.16,-142.66 1098.82,-144.98 1102.53,-150.92"/>
</g>
<!-- Node19 -->
<g id="node19" class="node">
<title>Node19</title>
<g id="a_node19"><a xlink:href="itkMath_8h.html" target="_top" xlink:title=" ">
<polygon fill="white" stroke="black" points="561,-235.5 561,-254.5 624,-254.5 624,-235.5 561,-235.5"/>
<text text-anchor="middle" x="592.5" y="-242.5" font-family="Helvetica,sans-Serif" font-size="10.00">itkMath.h</text>
</a>
</g>
</g>
<!-- Node14&#45;&gt;Node19 -->
<g id="edge27" class="edge">
<title>Node14&#45;&gt;Node19</title>
<path fill="none" stroke="midnightblue" d="M527.03,-291.32C539.09,-282.98 557.53,-270.21 571.77,-260.35"/>
<polygon fill="midnightblue" stroke="midnightblue" points="573.77,-263.22 580,-254.65 569.78,-257.47 573.77,-263.22"/>
</g>
<!-- Node15&#45;&gt;Node4 -->
<g id="edge23" class="edge">
<title>Node15&#45;&gt;Node4</title>
<path fill="none" stroke="midnightblue" d="M959.26,-179.26C952.4,-152.54 931.62,-71.52 922.21,-34.86"/>
<polygon fill="midnightblue" stroke="midnightblue" points="925.56,-33.84 919.69,-25.02 918.78,-35.58 925.56,-33.84"/>
</g>
<!-- Node15&#45;&gt;Node5 -->
<g id="edge26" class="edge">
<title>Node15&#45;&gt;Node5</title>
<path fill="none" stroke="midnightblue" d="M938.37,-179.44C914.02,-170.44 875.49,-156.19 848.08,-146.05"/>
<polygon fill="midnightblue" stroke="midnightblue" points="849.12,-142.7 838.53,-142.52 846.69,-149.27 849.12,-142.7"/>
</g>
<!-- Node15&#45;&gt;Node6 -->
<g id="edge21" class="edge">
<title>Node15&#45;&gt;Node6</title>
<path fill="none" stroke="midnightblue" d="M949.38,-179.41C929.93,-165.92 890.18,-139.61 853.5,-123 805.48,-101.26 789.23,-107.09 740.5,-87 722.49,-79.57 720.04,-72.97 701.5,-67 648.19,-49.82 488.79,-30.25 410.66,-21.36"/>
<polygon fill="midnightblue" stroke="midnightblue" points="410.97,-17.87 400.64,-20.23 410.19,-24.83 410.97,-17.87"/>
</g>
<!-- Node15&#45;&gt;Node9 -->
<g id="edge20" class="edge">
<title>Node15&#45;&gt;Node9</title>
<path fill="none" stroke="midnightblue" d="M931.78,-180.64C928.66,-180.02 925.52,-179.45 922.5,-179 702.18,-145.85 644.24,-164.64 422.5,-143 414.99,-142.27 407.05,-141.39 399.29,-140.48"/>
<polygon fill="midnightblue" stroke="midnightblue" points="399.59,-136.99 389.24,-139.27 398.75,-143.94 399.59,-136.99"/>
</g>
<!-- Node16 -->
<g id="node16" class="node">
<title>Node16</title>
<g id="a_node16"><a xlink:href="itkMakeFilled_8h.html" target="_top" xlink:title=" ">
<polygon fill="white" stroke="black" points="968,-6 968,-25 1059,-25 1059,-6 968,-6"/>
<text text-anchor="middle" x="1013.5" y="-13" font-family="Helvetica,sans-Serif" font-size="10.00">itkMakeFilled.h</text>
</a>
</g>
</g>
<!-- Node15&#45;&gt;Node16 -->
<g id="edge22" class="edge">
<title>Node15&#45;&gt;Node16</title>
<path fill="none" stroke="midnightblue" d="M964.15,-179.26C972.25,-152.54 996.82,-71.52 1007.93,-34.86"/>
<polygon fill="midnightblue" stroke="midnightblue" points="1011.36,-35.6 1010.92,-25.02 1004.67,-33.57 1011.36,-35.6"/>
</g>
<!-- Node15&#45;&gt;Node17 -->
<g id="edge24" class="edge">
<title>Node15&#45;&gt;Node17</title>
<path fill="none" stroke="midnightblue" d="M987.01,-179.44C1014.1,-170.36 1057.09,-155.94 1087.37,-145.78"/>
<polygon fill="midnightblue" stroke="midnightblue" points="1088.74,-149.01 1097.11,-142.52 1086.51,-142.38 1088.74,-149.01"/>
</g>
<!-- Node18 -->
<g id="node18" class="node">
<title>Node18</title>
<g id="a_node18"><a xlink:title=" ">
<polygon fill="white" stroke="#bfbfbf" points="1009,-123.5 1009,-142.5 1078,-142.5 1078,-123.5 1009,-123.5"/>
<text text-anchor="middle" x="1043.5" y="-130.5" font-family="Helvetica,sans-Serif" font-size="10.00">type_traits</text>
</a>
</g>
</g>
<!-- Node15&#45;&gt;Node18 -->
<g id="edge25" class="edge">
<title>Node15&#45;&gt;Node18</title>
<path fill="none" stroke="midnightblue" d="M974.67,-179.32C987.35,-170.98 1006.73,-158.21 1021.71,-148.35"/>
<polygon fill="midnightblue" stroke="midnightblue" points="1023.93,-151.08 1030.36,-142.65 1020.08,-145.23 1023.93,-151.08"/>
</g>
<!-- Node20 -->
<g id="node20" class="node">
<title>Node20</title>
<g id="a_node20"><a xlink:title=" ">
<polygon fill="white" stroke="#bfbfbf" points="518,-179.5 518,-198.5 565,-198.5 565,-179.5 518,-179.5"/>
<text text-anchor="middle" x="541.5" y="-186.5" font-family="Helvetica,sans-Serif" font-size="10.00">cmath</text>
</a>
</g>
</g>
<!-- Node19&#45;&gt;Node20 -->
<g id="edge28" class="edge">
<title>Node19&#45;&gt;Node20</title>
<path fill="none" stroke="midnightblue" d="M584.08,-235.08C576.65,-227.22 565.65,-215.57 556.69,-206.08"/>
<polygon fill="midnightblue" stroke="midnightblue" points="559.18,-203.62 549.76,-198.75 554.09,-208.42 559.18,-203.62"/>
</g>
<!-- Node21 -->
<g id="node21" class="node">
<title>Node21</title>
<g id="a_node21"><a xlink:href="itkMathDetail_8h.html" target="_top" xlink:title=" ">
<polygon fill="white" stroke="black" points="407.5,-179.5 407.5,-198.5 499.5,-198.5 499.5,-179.5 407.5,-179.5"/>
<text text-anchor="middle" x="453.5" y="-186.5" font-family="Helvetica,sans-Serif" font-size="10.00">itkMathDetail.h</text>
</a>
</g>
</g>
<!-- Node19&#45;&gt;Node21 -->
<g id="edge29" class="edge">
<title>Node19&#45;&gt;Node21</title>
<path fill="none" stroke="midnightblue" d="M570.48,-235.44C547.4,-226.48 510.94,-212.31 484.86,-202.18"/>
<polygon fill="midnightblue" stroke="midnightblue" points="486.01,-198.88 475.42,-198.52 483.48,-205.4 486.01,-198.88"/>
</g>
<!-- Node30 -->
<g id="node30" class="node">
<title>Node30</title>
<g id="a_node30"><a xlink:href="itkConceptChecking_8h.html" target="_top" xlink:title=" ">
<polygon fill="white" stroke="black" points="583,-179.5 583,-198.5 706,-198.5 706,-179.5 583,-179.5"/>
<text text-anchor="middle" x="644.5" y="-186.5" font-family="Helvetica,sans-Serif" font-size="10.00">itkConceptChecking.h</text>
</a>
</g>
</g>
<!-- Node19&#45;&gt;Node30 -->
<g id="edge45" class="edge">
<title>Node19&#45;&gt;Node30</title>
<path fill="none" stroke="midnightblue" d="M601.09,-235.08C608.66,-227.22 619.88,-215.57 629.01,-206.08"/>
<polygon fill="midnightblue" stroke="midnightblue" points="631.66,-208.38 636.07,-198.75 626.62,-203.53 631.66,-208.38"/>
</g>
<!-- Node32 -->
<g id="node32" class="node">
<title>Node32</title>
<g id="a_node32"><a xlink:title=" ">
<polygon fill="white" stroke="#bfbfbf" points="724,-179.5 724,-198.5 813,-198.5 813,-179.5 724,-179.5"/>
<text text-anchor="middle" x="768.5" y="-186.5" font-family="Helvetica,sans-Serif" font-size="10.00">vnl/vnl_math.h</text>
</a>
</g>
</g>
<!-- Node19&#45;&gt;Node32 -->
<g id="edge50" class="edge">
<title>Node19&#45;&gt;Node32</title>
<path fill="none" stroke="midnightblue" d="M620.39,-235.44C650.25,-226.28 697.81,-211.69 730.96,-201.52"/>
<polygon fill="midnightblue" stroke="midnightblue" points="732.21,-204.8 740.74,-198.52 730.16,-198.1 732.21,-204.8"/>
</g>
<!-- Node33 -->
<g id="node33" class="node">
<title>Node33</title>
<g id="a_node33"><a xlink:title=" ">
<polygon fill="white" stroke="#bfbfbf" points="831.5,-179.5 831.5,-198.5 913.5,-198.5 913.5,-179.5 831.5,-179.5"/>
<text text-anchor="middle" x="872.5" y="-186.5" font-family="Helvetica,sans-Serif" font-size="10.00">vxl_version.h</text>
</a>
</g>
</g>
<!-- Node19&#45;&gt;Node33 -->
<g id="edge51" class="edge">
<title>Node19&#45;&gt;Node33</title>
<path fill="none" stroke="midnightblue" d="M624.08,-237.91C671.97,-228.67 763.5,-211.02 821.08,-199.92"/>
<polygon fill="midnightblue" stroke="midnightblue" points="821.91,-203.32 831.07,-197.99 820.59,-196.45 821.91,-203.32"/>
</g>
<!-- Node21&#45;&gt;Node9 -->
<g id="edge30" class="edge">
<title>Node21&#45;&gt;Node9</title>
<path fill="none" stroke="midnightblue" d="M436.79,-179.32C420.19,-170.7 394.5,-157.36 375.28,-147.39"/>
<polygon fill="midnightblue" stroke="midnightblue" points="376.66,-144.16 366.17,-142.65 373.43,-150.37 376.66,-144.16"/>
</g>
<!-- Node22 -->
<g id="node22" class="node">
<title>Node22</title>
<g id="a_node22"><a xlink:href="itkNumericTraits_8h.html" target="_top" xlink:title=" ">
<polygon fill="white" stroke="black" points="591.5,-123.5 591.5,-142.5 697.5,-142.5 697.5,-123.5 591.5,-123.5"/>
<text text-anchor="middle" x="644.5" y="-130.5" font-family="Helvetica,sans-Serif" font-size="10.00">itkNumericTraits.h</text>
</a>
</g>
</g>
<!-- Node21&#45;&gt;Node22 -->
<g id="edge31" class="edge">
<title>Node21&#45;&gt;Node22</title>
<path fill="none" stroke="midnightblue" d="M483.76,-179.44C516.46,-170.2 568.68,-155.44 604.68,-145.26"/>
<polygon fill="midnightblue" stroke="midnightblue" points="605.71,-148.61 614.38,-142.52 603.8,-141.87 605.71,-148.61"/>
</g>
<!-- Node29 -->
<g id="node29" class="node">
<title>Node29</title>
<g id="a_node29"><a xlink:title=" ">
<polygon fill="white" stroke="#bfbfbf" points="431.5,-123.5 431.5,-142.5 475.5,-142.5 475.5,-123.5 431.5,-123.5"/>
<text text-anchor="middle" x="453.5" y="-130.5" font-family="Helvetica,sans-Serif" font-size="10.00">cfenv</text>
</a>
</g>
</g>
<!-- Node21&#45;&gt;Node29 -->
<g id="edge44" class="edge">
<title>Node21&#45;&gt;Node29</title>
<path fill="none" stroke="midnightblue" d="M453.5,-179.08C453.5,-172.01 453.5,-161.86 453.5,-152.99"/>
<polygon fill="midnightblue" stroke="midnightblue" points="457,-152.75 453.5,-142.75 450,-152.75 457,-152.75"/>
</g>
<!-- Node22&#45;&gt;Node6 -->
<g id="edge32" class="edge">
<title>Node22&#45;&gt;Node6</title>
<path fill="none" stroke="midnightblue" d="M628.56,-123.34C596.95,-106.17 528.88,-69.29 523.5,-67 485.7,-50.92 440.95,-37.01 408.92,-27.88"/>
<polygon fill="midnightblue" stroke="midnightblue" points="409.57,-24.42 399,-25.08 407.67,-31.16 409.57,-24.42"/>
</g>
<!-- Node23 -->
<g id="node23" class="node">
<title>Node23</title>
<g id="a_node23"><a xlink:title=" ">
<polygon fill="white" stroke="#bfbfbf" points="570.5,-67.5 570.5,-86.5 614.5,-86.5 614.5,-67.5 570.5,-67.5"/>
<text text-anchor="middle" x="592.5" y="-74.5" font-family="Helvetica,sans-Serif" font-size="10.00">limits</text>
</a>
</g>
</g>
<!-- Node22&#45;&gt;Node23 -->
<g id="edge33" class="edge">
<title>Node22&#45;&gt;Node23</title>
<path fill="none" stroke="midnightblue" d="M635.91,-123.08C628.34,-115.22 617.12,-103.57 607.99,-94.08"/>
<polygon fill="midnightblue" stroke="midnightblue" points="610.38,-91.53 600.93,-86.75 605.34,-96.38 610.38,-91.53"/>
</g>
<!-- Node24 -->
<g id="node24" class="node">
<title>Node24</title>
<g id="a_node24"><a xlink:title=" ">
<polygon fill="white" stroke="#bfbfbf" points="633,-67.5 633,-86.5 692,-86.5 692,-67.5 633,-67.5"/>
<text text-anchor="middle" x="662.5" y="-74.5" font-family="Helvetica,sans-Serif" font-size="10.00">complex</text>
</a>
</g>
</g>
<!-- Node22&#45;&gt;Node24 -->
<g id="edge34" class="edge">
<title>Node22&#45;&gt;Node24</title>
<path fill="none" stroke="midnightblue" d="M647.47,-123.08C649.88,-115.85 653.36,-105.41 656.37,-96.4"/>
<polygon fill="midnightblue" stroke="midnightblue" points="659.74,-97.34 659.58,-86.75 653.1,-95.13 659.74,-97.34"/>
</g>
<!-- Node25 -->
<g id="node25" class="node">
<title>Node25</title>
<g id="a_node25"><a xlink:href="itkFixedArray_8h.html" target="_top" xlink:title=" ">
<polygon fill="white" stroke="black" points="749,-67.5 749,-86.5 838,-86.5 838,-67.5 749,-67.5"/>
<text text-anchor="middle" x="793.5" y="-74.5" font-family="Helvetica,sans-Serif" font-size="10.00">itkFixedArray.h</text>
</a>
</g>
</g>
<!-- Node22&#45;&gt;Node25 -->
<g id="edge35" class="edge">
<title>Node22&#45;&gt;Node25</title>
<path fill="none" stroke="midnightblue" d="M668.11,-123.44C692.96,-114.44 732.27,-100.19 760.25,-90.05"/>
<polygon fill="midnightblue" stroke="midnightblue" points="761.79,-93.21 770,-86.52 759.41,-86.63 761.79,-93.21"/>
</g>
<!-- Node25&#45;&gt;Node4 -->
<g id="edge38" class="edge">
<title>Node25&#45;&gt;Node4</title>
<path fill="none" stroke="midnightblue" d="M811.27,-67.48C831.98,-57.53 866.45,-40.99 890.49,-29.46"/>
<polygon fill="midnightblue" stroke="midnightblue" points="892.27,-32.49 899.77,-25.01 889.24,-26.18 892.27,-32.49"/>
</g>
<!-- Node25&#45;&gt;Node6 -->
<g id="edge36" class="edge">
<title>Node25&#45;&gt;Node6</title>
<path fill="none" stroke="midnightblue" d="M748.73,-69.1C743.93,-68.38 739.11,-67.67 734.5,-67 617.64,-50.07 479.69,-31.52 410.6,-22.33"/>
<polygon fill="midnightblue" stroke="midnightblue" points="410.89,-18.84 400.52,-20.99 409.97,-25.78 410.89,-18.84"/>
</g>
<!-- Node25&#45;&gt;Node16 -->
<g id="edge37" class="edge">
<title>Node25&#45;&gt;Node16</title>
<path fill="none" stroke="midnightblue" d="M825.02,-67.48C863.74,-57 929.52,-39.21 972.24,-27.66"/>
<polygon fill="midnightblue" stroke="midnightblue" points="973.3,-31 982.04,-25.01 971.47,-24.24 973.3,-31"/>
</g>
<!-- Node26 -->
<g id="node26" class="node">
<title>Node26</title>
<g id="a_node26"><a xlink:title=" ">
<polygon fill="white" stroke="#bfbfbf" points="659.5,-6 659.5,-25 701.5,-25 701.5,-6 659.5,-6"/>
<text text-anchor="middle" x="680.5" y="-13" font-family="Helvetica,sans-Serif" font-size="10.00">array</text>
</a>
</g>
</g>
<!-- Node25&#45;&gt;Node26 -->
<g id="edge39" class="edge">
<title>Node25&#45;&gt;Node26</title>
<path fill="none" stroke="midnightblue" d="M777.31,-67.48C758.6,-57.62 727.58,-41.29 705.7,-29.77"/>
<polygon fill="midnightblue" stroke="midnightblue" points="707.14,-26.57 696.66,-25.01 703.88,-32.77 707.14,-26.57"/>
</g>
<!-- Node27 -->
<g id="node27" class="node">
<title>Node27</title>
<g id="a_node27"><a xlink:title=" ">
<polygon fill="white" stroke="#bfbfbf" points="540,-6 540,-25 641,-25 641,-6 540,-6"/>
<text text-anchor="middle" x="590.5" y="-13" font-family="Helvetica,sans-Serif" font-size="10.00">itkFixedArray.hxx</text>
</a>
</g>
</g>
<!-- Node25&#45;&gt;Node27 -->
<g id="edge40" class="edge">
<title>Node25&#45;&gt;Node27</title>
<path fill="none" stroke="midnightblue" d="M764.42,-67.48C728.92,-57.07 668.75,-39.44 629.33,-27.88"/>
<polygon fill="midnightblue" stroke="midnightblue" points="630.11,-24.46 619.53,-25.01 628.14,-31.18 630.11,-24.46"/>
</g>
<!-- Node28 -->
<g id="node28" class="node">
<title>Node28</title>
<g id="a_node28"><a xlink:href="itkNumericTraitsFixedArrayPixel_8h.html" target="_top" xlink:title=" ">
<polygon fill="white" stroke="black" points="719,-0.5 719,-30.5 868,-30.5 868,-0.5 719,-0.5"/>
<text text-anchor="start" x="727" y="-18.5" font-family="Helvetica,sans-Serif" font-size="10.00">itkNumericTraitsFixedArray</text>
<text text-anchor="middle" x="793.5" y="-7.5" font-family="Helvetica,sans-Serif" font-size="10.00">Pixel.h</text>
</a>
</g>
</g>
<!-- Node25&#45;&gt;Node28 -->
<g id="edge41" class="edge">
<title>Node25&#45;&gt;Node28</title>
<path fill="none" stroke="midnightblue" d="M788.6,-67.48C787.07,-60.47 786.49,-50.19 786.86,-40.7"/>
<polygon fill="midnightblue" stroke="midnightblue" points="790.36,-40.77 787.67,-30.52 783.38,-40.21 790.36,-40.77"/>
</g>
<!-- Node28&#45;&gt;Node22 -->
<g id="edge42" class="edge">
<title>Node28&#45;&gt;Node22</title>
<path fill="none" stroke="midnightblue" d="M817.1,-30.69C837.99,-45.03 862.94,-67.76 847.5,-87 830.15,-108.62 760.54,-120.5 707.63,-126.54"/>
<polygon fill="midnightblue" stroke="midnightblue" points="707.18,-123.07 697.62,-127.63 707.94,-130.02 707.18,-123.07"/>
</g>
<!-- Node28&#45;&gt;Node25 -->
<g id="edge43" class="edge">
<title>Node28&#45;&gt;Node25</title>
<path fill="none" stroke="midnightblue" d="M799.33,-30.52C800.37,-38.59 800.53,-48.81 799.8,-57.53"/>
<polygon fill="midnightblue" stroke="midnightblue" points="796.33,-57.09 798.4,-67.48 803.26,-58.06 796.33,-57.09"/>
</g>
<!-- Node30&#45;&gt;Node2 -->
<g id="edge49" class="edge">
<title>Node30&#45;&gt;Node2</title>
<path fill="none" stroke="midnightblue" d="M582.67,-180.03C579.91,-179.68 577.17,-179.34 574.5,-179 456.96,-164.18 318.02,-147.13 250.86,-138.92"/>
<polygon fill="midnightblue" stroke="midnightblue" points="251.06,-135.42 240.71,-137.68 250.21,-142.37 251.06,-135.42"/>
</g>
<!-- Node30&#45;&gt;Node22 -->
<g id="edge48" class="edge">
<title>Node30&#45;&gt;Node22</title>
<path fill="none" stroke="midnightblue" d="M644.5,-179.08C644.5,-172.01 644.5,-161.86 644.5,-152.99"/>
<polygon fill="midnightblue" stroke="midnightblue" points="648,-152.75 644.5,-142.75 641,-152.75 648,-152.75"/>
</g>
<!-- Node31 -->
<g id="node31" class="node">
<title>Node31</title>
<g id="a_node31"><a xlink:href="itkPixelTraits_8h.html" target="_top" xlink:title=" ">
<polygon fill="white" stroke="black" points="426.5,-67.5 426.5,-86.5 514.5,-86.5 514.5,-67.5 426.5,-67.5"/>
<text text-anchor="middle" x="470.5" y="-74.5" font-family="Helvetica,sans-Serif" font-size="10.00">itkPixelTraits.h</text>
</a>
</g>
</g>
<!-- Node30&#45;&gt;Node31 -->
<g id="edge46" class="edge">
<title>Node30&#45;&gt;Node31</title>
<path fill="none" stroke="midnightblue" d="M630.85,-179.37C600.86,-160.41 529.03,-115 492.55,-91.94"/>
<polygon fill="midnightblue" stroke="midnightblue" points="494.41,-88.98 484.09,-86.59 490.67,-94.89 494.41,-88.98"/>
</g>
<!-- Node31&#45;&gt;Node6 -->
<g id="edge47" class="edge">
<title>Node31&#45;&gt;Node6</title>
<path fill="none" stroke="midnightblue" d="M455.6,-67.48C438.53,-57.71 410.34,-41.58 390.24,-30.08"/>
<polygon fill="midnightblue" stroke="midnightblue" points="391.79,-26.94 381.37,-25.01 388.31,-33.01 391.79,-26.94"/>
</g>
</g>
</svg>
