<?xml version="1.0" encoding="UTF-8" standalone="no"?>
<!DOCTYPE svg PUBLIC "-//W3C//DTD SVG 1.1//EN"
 "http://www.w3.org/Graphics/SVG/1.1/DTD/svg11.dtd">
<!-- Generated by graphviz version 2.43.0 (0)
 -->
<!-- Title: itkNumericTraitsArrayPixel.h Pages: 1 -->
<svg width="196pt" height="151pt"
 viewBox="0.00 0.00 196.00 151.00" xmlns="http://www.w3.org/2000/svg" xmlns:xlink="http://www.w3.org/1999/xlink">
<g id="graph0" class="graph" transform="scale(1 1) rotate(0) translate(4 147)">
<title>itkNumericTraitsArrayPixel.h</title>
<polygon fill="white" stroke="transparent" points="-4,4 -4,-147 192,-147 192,4 -4,4"/>
<!-- Node1 -->
<g id="node1" class="node">
<title>Node1</title>
<g id="a_node1"><a xlink:title=" ">
<polygon fill="#bfbfbf" stroke="black" points="16.5,-123.5 16.5,-142.5 171.5,-142.5 171.5,-123.5 16.5,-123.5"/>
<text text-anchor="middle" x="94" y="-130.5" font-family="Helvetica,sans-Serif" font-size="10.00">itkNumericTraitsArrayPixel.h</text>
</a>
</g>
</g>
<!-- Node2 -->
<g id="node2" class="node">
<title>Node2</title>
<g id="a_node2"><a xlink:href="itkKdTreeBasedKmeansEstimator_8h.html" target="_top" xlink:title=" ">
<polygon fill="white" stroke="black" points="0,-67.5 0,-86.5 188,-86.5 188,-67.5 0,-67.5"/>
<text text-anchor="middle" x="94" y="-74.5" font-family="Helvetica,sans-Serif" font-size="10.00">itkKdTreeBasedKmeansEstimator.h</text>
</a>
</g>
</g>
<!-- Node1&#45;&gt;Node2 -->
<g id="edge1" class="edge">
<title>Node1&#45;&gt;Node2</title>
<path fill="none" stroke="midnightblue" d="M94,-112.8C94,-103.91 94,-93.78 94,-86.75"/>
<polygon fill="midnightblue" stroke="midnightblue" points="90.5,-113.08 94,-123.08 97.5,-113.08 90.5,-113.08"/>
</g>
<!-- Node3 -->
<g id="node3" class="node">
<title>Node3</title>
<g id="a_node3"><a xlink:href="itkScalarImageKmeansImageFilter_8h.html" target="_top" xlink:title=" ">
<polygon fill="white" stroke="black" points="13.5,-0.5 13.5,-30.5 174.5,-30.5 174.5,-0.5 13.5,-0.5"/>
<text text-anchor="start" x="21.5" y="-18.5" font-family="Helvetica,sans-Serif" font-size="10.00">itkScalarImageKmeansImage</text>
<text text-anchor="middle" x="94" y="-7.5" font-family="Helvetica,sans-Serif" font-size="10.00">Filter.h</text>
</a>
</g>
</g>
<!-- Node2&#45;&gt;Node3 -->
<g id="edge2" class="edge">
<title>Node2&#45;&gt;Node3</title>
<path fill="none" stroke="midnightblue" d="M94,-57.23C94,-48.59 94,-38.5 94,-30.52"/>
<polygon fill="midnightblue" stroke="midnightblue" points="90.5,-57.48 94,-67.48 97.5,-57.48 90.5,-57.48"/>
</g>
</g>
</svg>
