<?xml version="1.0" encoding="UTF-8" standalone="no"?>
<!DOCTYPE svg PUBLIC "-//W3C//DTD SVG 1.1//EN"
 "http://www.w3.org/Graphics/SVG/1.1/DTD/svg11.dtd">
<!-- Generated by graphviz version 2.43.0 (0)
 -->
<!-- Title: itkOneWayEquivalencyTable.h Pages: 1 -->
<svg width="644pt" height="319pt"
 viewBox="0.00 0.00 643.50 319.00" xmlns="http://www.w3.org/2000/svg" xmlns:xlink="http://www.w3.org/1999/xlink">
<g id="graph0" class="graph" transform="scale(1 1) rotate(0) translate(4 315)">
<title>itkOneWayEquivalencyTable.h</title>
<polygon fill="white" stroke="transparent" points="-4,4 -4,-315 639.5,-315 639.5,4 -4,4"/>
<!-- Node1 -->
<g id="node1" class="node">
<title>Node1</title>
<g id="a_node1"><a xlink:title=" ">
<polygon fill="#bfbfbf" stroke="black" points="114,-291.5 114,-310.5 278,-310.5 278,-291.5 114,-291.5"/>
<text text-anchor="middle" x="196" y="-298.5" font-family="Helvetica,sans-Serif" font-size="10.00">itkOneWayEquivalencyTable.h</text>
</a>
</g>
</g>
<!-- Node2 -->
<g id="node2" class="node">
<title>Node2</title>
<g id="a_node2"><a xlink:href="itkWatershedSegmentTable_8h.html" target="_top" xlink:title=" ">
<polygon fill="white" stroke="black" points="116.5,-235.5 116.5,-254.5 275.5,-254.5 275.5,-235.5 116.5,-235.5"/>
<text text-anchor="middle" x="196" y="-242.5" font-family="Helvetica,sans-Serif" font-size="10.00">itkWatershedSegmentTable.h</text>
</a>
</g>
</g>
<!-- Node1&#45;&gt;Node2 -->
<g id="edge1" class="edge">
<title>Node1&#45;&gt;Node2</title>
<path fill="none" stroke="midnightblue" d="M196,-280.8C196,-271.91 196,-261.78 196,-254.75"/>
<polygon fill="midnightblue" stroke="midnightblue" points="192.5,-281.08 196,-291.08 199.5,-281.08 192.5,-281.08"/>
</g>
<!-- Node3 -->
<g id="node3" class="node">
<title>Node3</title>
<g id="a_node3"><a xlink:href="itkWatershedSegmentTreeGenerator_8h.html" target="_top" xlink:title=" ">
<polygon fill="white" stroke="black" points="0,-179.5 0,-198.5 202,-198.5 202,-179.5 0,-179.5"/>
<text text-anchor="middle" x="101" y="-186.5" font-family="Helvetica,sans-Serif" font-size="10.00">itkWatershedSegmentTreeGenerator.h</text>
</a>
</g>
</g>
<!-- Node2&#45;&gt;Node3 -->
<g id="edge2" class="edge">
<title>Node2&#45;&gt;Node3</title>
<path fill="none" stroke="midnightblue" d="M171.68,-230.18C154.2,-220.24 131.17,-207.15 116.23,-198.65"/>
<polygon fill="midnightblue" stroke="midnightblue" points="170.31,-233.43 180.74,-235.32 173.77,-227.34 170.31,-233.43"/>
</g>
<!-- Node6 -->
<g id="node6" class="node">
<title>Node6</title>
<g id="a_node6"><a xlink:href="itkWatershedSegmenter_8h.html" target="_top" xlink:title=" ">
<polygon fill="white" stroke="black" points="240.5,-179.5 240.5,-198.5 383.5,-198.5 383.5,-179.5 240.5,-179.5"/>
<text text-anchor="middle" x="312" y="-186.5" font-family="Helvetica,sans-Serif" font-size="10.00">itkWatershedSegmenter.h</text>
</a>
</g>
</g>
<!-- Node2&#45;&gt;Node6 -->
<g id="edge5" class="edge">
<title>Node2&#45;&gt;Node6</title>
<path fill="none" stroke="midnightblue" d="M223.72,-231.1C245.39,-221.01 274.9,-207.27 293.71,-198.52"/>
<polygon fill="midnightblue" stroke="midnightblue" points="221.97,-228.05 214.38,-235.44 224.92,-234.4 221.97,-228.05"/>
</g>
<!-- Node4 -->
<g id="node4" class="node">
<title>Node4</title>
<g id="a_node4"><a xlink:href="itkWatershedImageFilter_8h.html" target="_top" xlink:title=" ">
<polygon fill="white" stroke="black" points="36.5,-67.5 36.5,-86.5 181.5,-86.5 181.5,-67.5 36.5,-67.5"/>
<text text-anchor="middle" x="109" y="-74.5" font-family="Helvetica,sans-Serif" font-size="10.00">itkWatershedImageFilter.h</text>
</a>
</g>
</g>
<!-- Node3&#45;&gt;Node4 -->
<g id="edge3" class="edge">
<title>Node3&#45;&gt;Node4</title>
<path fill="none" stroke="midnightblue" d="M89.36,-170.38C82.21,-157.35 75.25,-139.14 80,-123 84.15,-108.91 94.22,-95.07 101.33,-86.54"/>
<polygon fill="midnightblue" stroke="midnightblue" points="86.53,-172.45 94.68,-179.21 92.52,-168.84 86.53,-172.45"/>
</g>
<!-- Node5 -->
<g id="node5" class="node">
<title>Node5</title>
<g id="a_node5"><a xlink:href="itkIsolatedWatershedImageFilter_8h.html" target="_top" xlink:title=" ">
<polygon fill="white" stroke="black" points="33.5,-0.5 33.5,-30.5 184.5,-30.5 184.5,-0.5 33.5,-0.5"/>
<text text-anchor="start" x="41.5" y="-18.5" font-family="Helvetica,sans-Serif" font-size="10.00">itkIsolatedWatershedImage</text>
<text text-anchor="middle" x="109" y="-7.5" font-family="Helvetica,sans-Serif" font-size="10.00">Filter.h</text>
</a>
</g>
</g>
<!-- Node4&#45;&gt;Node5 -->
<g id="edge4" class="edge">
<title>Node4&#45;&gt;Node5</title>
<path fill="none" stroke="midnightblue" d="M109,-57.23C109,-48.59 109,-38.5 109,-30.52"/>
<polygon fill="midnightblue" stroke="midnightblue" points="105.5,-57.48 109,-67.48 112.5,-57.48 105.5,-57.48"/>
</g>
<!-- Node7 -->
<g id="node7" class="node">
<title>Node7</title>
<g id="a_node7"><a xlink:href="itkWatershedRelabeler_8h.html" target="_top" xlink:title=" ">
<polygon fill="white" stroke="black" points="89,-123.5 89,-142.5 225,-142.5 225,-123.5 89,-123.5"/>
<text text-anchor="middle" x="157" y="-130.5" font-family="Helvetica,sans-Serif" font-size="10.00">itkWatershedRelabeler.h</text>
</a>
</g>
</g>
<!-- Node6&#45;&gt;Node7 -->
<g id="edge6" class="edge">
<title>Node6&#45;&gt;Node7</title>
<path fill="none" stroke="midnightblue" d="M277.67,-176.04C248.5,-165.88 207.36,-151.55 181.45,-142.52"/>
<polygon fill="midnightblue" stroke="midnightblue" points="276.84,-179.46 287.44,-179.44 279.15,-172.85 276.84,-179.46"/>
</g>
<!-- Node8 -->
<g id="node8" class="node">
<title>Node8</title>
<g id="a_node8"><a xlink:href="itkWatershedBoundaryResolver_8h.html" target="_top" xlink:title=" ">
<polygon fill="white" stroke="black" points="243.5,-123.5 243.5,-142.5 422.5,-142.5 422.5,-123.5 243.5,-123.5"/>
<text text-anchor="middle" x="333" y="-130.5" font-family="Helvetica,sans-Serif" font-size="10.00">itkWatershedBoundaryResolver.h</text>
</a>
</g>
</g>
<!-- Node6&#45;&gt;Node8 -->
<g id="edge8" class="edge">
<title>Node6&#45;&gt;Node8</title>
<path fill="none" stroke="midnightblue" d="M319.12,-169.69C322.66,-160.59 326.77,-150.01 329.6,-142.75"/>
<polygon fill="midnightblue" stroke="midnightblue" points="315.83,-168.49 315.47,-179.08 322.35,-171.03 315.83,-168.49"/>
</g>
<!-- Node9 -->
<g id="node9" class="node">
<title>Node9</title>
<g id="a_node9"><a xlink:href="itkWatershedEquivalenceRelabeler_8h.html" target="_top" xlink:title=" ">
<polygon fill="white" stroke="black" points="440.5,-123.5 440.5,-142.5 635.5,-142.5 635.5,-123.5 440.5,-123.5"/>
<text text-anchor="middle" x="538" y="-130.5" font-family="Helvetica,sans-Serif" font-size="10.00">itkWatershedEquivalenceRelabeler.h</text>
</a>
</g>
</g>
<!-- Node6&#45;&gt;Node9 -->
<g id="edge9" class="edge">
<title>Node6&#45;&gt;Node9</title>
<path fill="none" stroke="midnightblue" d="M357.67,-177.09C400.36,-166.89 463.25,-151.86 502.36,-142.52"/>
<polygon fill="midnightblue" stroke="midnightblue" points="356.72,-173.72 347.81,-179.44 358.35,-180.52 356.72,-173.72"/>
</g>
<!-- Node7&#45;&gt;Node4 -->
<g id="edge7" class="edge">
<title>Node7&#45;&gt;Node4</title>
<path fill="none" stroke="midnightblue" d="M142.27,-115.43C133.86,-105.97 123.65,-94.48 116.78,-86.75"/>
<polygon fill="midnightblue" stroke="midnightblue" points="139.81,-117.93 149.07,-123.08 145.05,-113.28 139.81,-117.93"/>
</g>
</g>
</svg>
