<?xml version="1.0" encoding="UTF-8" standalone="no"?>
<!DOCTYPE svg PUBLIC "-//W3C//DTD SVG 1.1//EN"
 "http://www.w3.org/Graphics/SVG/1.1/DTD/svg11.dtd">
<!-- Generated by graphviz version 2.43.0 (0)
 -->
<!-- Title: itkOffset.h Pages: 1 -->
<svg width="965pt" height="319pt"
 viewBox="0.00 0.00 965.00 319.00" xmlns="http://www.w3.org/2000/svg" xmlns:xlink="http://www.w3.org/1999/xlink">
<g id="graph0" class="graph" transform="scale(1 1) rotate(0) translate(4 315)">
<title>itkOffset.h</title>
<polygon fill="white" stroke="transparent" points="-4,4 -4,-315 961,-315 961,4 -4,4"/>
<!-- Node1 -->
<g id="node1" class="node">
<title>Node1</title>
<g id="a_node1"><a xlink:title=" ">
<polygon fill="#bfbfbf" stroke="black" points="704.5,-291.5 704.5,-310.5 772.5,-310.5 772.5,-291.5 704.5,-291.5"/>
<text text-anchor="middle" x="738.5" y="-298.5" font-family="Helvetica,sans-Serif" font-size="10.00">itkOffset.h</text>
</a>
</g>
</g>
<!-- Node2 -->
<g id="node2" class="node">
<title>Node2</title>
<g id="a_node2"><a xlink:href="itkSize_8h.html" target="_top" xlink:title=" ">
<polygon fill="white" stroke="black" points="686,-123.5 686,-142.5 745,-142.5 745,-123.5 686,-123.5"/>
<text text-anchor="middle" x="715.5" y="-130.5" font-family="Helvetica,sans-Serif" font-size="10.00">itkSize.h</text>
</a>
</g>
</g>
<!-- Node1&#45;&gt;Node2 -->
<g id="edge1" class="edge">
<title>Node1&#45;&gt;Node2</title>
<path fill="none" stroke="midnightblue" d="M737.26,-291.08C733.64,-264.95 723.01,-188.21 718.07,-152.58"/>
<polygon fill="midnightblue" stroke="midnightblue" points="721.53,-151.99 716.69,-142.57 714.59,-152.95 721.53,-151.99"/>
</g>
<!-- Node9 -->
<g id="node9" class="node">
<title>Node9</title>
<g id="a_node9"><a xlink:title=" ">
<polygon fill="white" stroke="#bfbfbf" points="904,-67.5 904,-86.5 957,-86.5 957,-67.5 904,-67.5"/>
<text text-anchor="middle" x="930.5" y="-74.5" font-family="Helvetica,sans-Serif" font-size="10.00">cstddef</text>
</a>
</g>
</g>
<!-- Node1&#45;&gt;Node9 -->
<g id="edge37" class="edge">
<title>Node1&#45;&gt;Node9</title>
<path fill="none" stroke="midnightblue" d="M746.03,-291.3C774.76,-258.08 877.81,-138.92 916.07,-94.68"/>
<polygon fill="midnightblue" stroke="midnightblue" points="918.92,-96.74 922.82,-86.88 913.63,-92.16 918.92,-96.74"/>
</g>
<!-- Node12 -->
<g id="node12" class="node">
<title>Node12</title>
<g id="a_node12"><a xlink:href="itkMath_8h.html" target="_top" xlink:title=" ">
<polygon fill="white" stroke="black" points="504,-235.5 504,-254.5 567,-254.5 567,-235.5 504,-235.5"/>
<text text-anchor="middle" x="535.5" y="-242.5" font-family="Helvetica,sans-Serif" font-size="10.00">itkMath.h</text>
</a>
</g>
</g>
<!-- Node1&#45;&gt;Node12 -->
<g id="edge12" class="edge">
<title>Node1&#45;&gt;Node12</title>
<path fill="none" stroke="midnightblue" d="M706.33,-291.44C671.34,-282.13 615.28,-267.22 576.99,-257.04"/>
<polygon fill="midnightblue" stroke="midnightblue" points="577.74,-253.62 567.18,-254.43 575.95,-260.38 577.74,-253.62"/>
</g>
<!-- Node3 -->
<g id="node3" class="node">
<title>Node3</title>
<g id="a_node3"><a xlink:href="itkIntTypes_8h.html" target="_top" xlink:title=" ">
<polygon fill="white" stroke="black" points="807,-67.5 807,-86.5 886,-86.5 886,-67.5 807,-67.5"/>
<text text-anchor="middle" x="846.5" y="-74.5" font-family="Helvetica,sans-Serif" font-size="10.00">itkIntTypes.h</text>
</a>
</g>
</g>
<!-- Node2&#45;&gt;Node3 -->
<g id="edge2" class="edge">
<title>Node2&#45;&gt;Node3</title>
<path fill="none" stroke="midnightblue" d="M736.26,-123.44C757.82,-114.56 791.76,-100.56 816.29,-90.45"/>
<polygon fill="midnightblue" stroke="midnightblue" points="817.93,-93.56 825.84,-86.52 815.26,-87.09 817.93,-93.56"/>
</g>
<!-- Node4 -->
<g id="node4" class="node">
<title>Node4</title>
<g id="a_node4"><a xlink:href="itkMacro_8h.html" target="_top" xlink:title=" ">
<polygon fill="white" stroke="black" points="538.5,-6 538.5,-25 606.5,-25 606.5,-6 538.5,-6"/>
<text text-anchor="middle" x="572.5" y="-13" font-family="Helvetica,sans-Serif" font-size="10.00">itkMacro.h</text>
</a>
</g>
</g>
<!-- Node2&#45;&gt;Node4 -->
<g id="edge6" class="edge">
<title>Node2&#45;&gt;Node4</title>
<path fill="none" stroke="midnightblue" d="M710.88,-123.47C703.29,-110.06 687.05,-83.86 667.5,-67 648.74,-50.82 623.93,-37.86 604.37,-29.11"/>
<polygon fill="midnightblue" stroke="midnightblue" points="605.52,-25.8 594.96,-25.05 602.75,-32.23 605.52,-25.8"/>
</g>
<!-- Node7 -->
<g id="node7" class="node">
<title>Node7</title>
<g id="a_node7"><a xlink:href="itkMakeFilled_8h.html" target="_top" xlink:title=" ">
<polygon fill="white" stroke="black" points="347,-6 347,-25 438,-25 438,-6 347,-6"/>
<text text-anchor="middle" x="392.5" y="-13" font-family="Helvetica,sans-Serif" font-size="10.00">itkMakeFilled.h</text>
</a>
</g>
</g>
<!-- Node2&#45;&gt;Node7 -->
<g id="edge7" class="edge">
<title>Node2&#45;&gt;Node7</title>
<path fill="none" stroke="midnightblue" d="M685.73,-128.26C604.18,-117.99 383.02,-89.88 380.5,-87 367.89,-72.59 374.83,-49.95 382.34,-34.24"/>
<polygon fill="midnightblue" stroke="midnightblue" points="385.61,-35.54 387.16,-25.06 379.41,-32.29 385.61,-35.54"/>
</g>
<!-- Node8 -->
<g id="node8" class="node">
<title>Node8</title>
<g id="a_node8"><a xlink:title=" ">
<polygon fill="white" stroke="#bfbfbf" points="456.5,-6 456.5,-25 520.5,-25 520.5,-6 456.5,-6"/>
<text text-anchor="middle" x="488.5" y="-13" font-family="Helvetica,sans-Serif" font-size="10.00">algorithm</text>
</a>
</g>
</g>
<!-- Node2&#45;&gt;Node8 -->
<g id="edge8" class="edge">
<title>Node2&#45;&gt;Node8</title>
<path fill="none" stroke="midnightblue" d="M706.78,-123.26C692.69,-109.58 663.56,-83 634.5,-67 591.28,-43.21 576.09,-47.22 529.5,-31 527.13,-30.17 524.68,-29.32 522.22,-28.45"/>
<polygon fill="midnightblue" stroke="midnightblue" points="523.36,-25.15 512.77,-25.13 521.04,-31.75 523.36,-25.15"/>
</g>
<!-- Node2&#45;&gt;Node9 -->
<g id="edge9" class="edge">
<title>Node2&#45;&gt;Node9</title>
<path fill="none" stroke="midnightblue" d="M745.39,-124.49C784.3,-114.72 852.25,-97.65 894.11,-87.14"/>
<polygon fill="midnightblue" stroke="midnightblue" points="895.05,-90.51 903.9,-84.68 893.35,-83.72 895.05,-90.51"/>
</g>
<!-- Node10 -->
<g id="node10" class="node">
<title>Node10</title>
<g id="a_node10"><a xlink:title=" ">
<polygon fill="white" stroke="#bfbfbf" points="720,-67.5 720,-86.5 789,-86.5 789,-67.5 720,-67.5"/>
<text text-anchor="middle" x="754.5" y="-74.5" font-family="Helvetica,sans-Serif" font-size="10.00">type_traits</text>
</a>
</g>
</g>
<!-- Node2&#45;&gt;Node10 -->
<g id="edge10" class="edge">
<title>Node2&#45;&gt;Node10</title>
<path fill="none" stroke="midnightblue" d="M721.94,-123.08C727.45,-115.46 735.53,-104.26 742.26,-94.94"/>
<polygon fill="midnightblue" stroke="midnightblue" points="745.16,-96.91 748.18,-86.75 739.49,-92.81 745.16,-96.91"/>
</g>
<!-- Node11 -->
<g id="node11" class="node">
<title>Node11</title>
<g id="a_node11"><a xlink:title=" ">
<polygon fill="white" stroke="#bfbfbf" points="567.5,-67.5 567.5,-86.5 625.5,-86.5 625.5,-67.5 567.5,-67.5"/>
<text text-anchor="middle" x="596.5" y="-74.5" font-family="Helvetica,sans-Serif" font-size="10.00">memory</text>
</a>
</g>
</g>
<!-- Node2&#45;&gt;Node11 -->
<g id="edge11" class="edge">
<title>Node2&#45;&gt;Node11</title>
<path fill="none" stroke="midnightblue" d="M696.64,-123.44C677.23,-114.64 646.77,-100.81 624.54,-90.72"/>
<polygon fill="midnightblue" stroke="midnightblue" points="625.82,-87.46 615.27,-86.52 622.93,-93.84 625.82,-87.46"/>
</g>
<!-- Node3&#45;&gt;Node4 -->
<g id="edge3" class="edge">
<title>Node3&#45;&gt;Node4</title>
<path fill="none" stroke="midnightblue" d="M807.24,-67.48C756.75,-56.51 669.28,-37.52 616.56,-26.07"/>
<polygon fill="midnightblue" stroke="midnightblue" points="617.02,-22.59 606.5,-23.88 615.53,-29.43 617.02,-22.59"/>
</g>
<!-- Node5 -->
<g id="node5" class="node">
<title>Node5</title>
<g id="a_node5"><a xlink:title=" ">
<polygon fill="white" stroke="#bfbfbf" points="855.5,-6 855.5,-25 905.5,-25 905.5,-6 855.5,-6"/>
<text text-anchor="middle" x="880.5" y="-13" font-family="Helvetica,sans-Serif" font-size="10.00">cstdint</text>
</a>
</g>
</g>
<!-- Node3&#45;&gt;Node5 -->
<g id="edge4" class="edge">
<title>Node3&#45;&gt;Node5</title>
<path fill="none" stroke="midnightblue" d="M851.37,-67.48C856.37,-58.73 864.29,-44.87 870.61,-33.81"/>
<polygon fill="midnightblue" stroke="midnightblue" points="873.72,-35.43 875.64,-25.01 867.64,-31.96 873.72,-35.43"/>
</g>
<!-- Node6 -->
<g id="node6" class="node">
<title>Node6</title>
<g id="a_node6"><a xlink:title=" ">
<polygon fill="white" stroke="#bfbfbf" points="787.5,-6 787.5,-25 837.5,-25 837.5,-6 787.5,-6"/>
<text text-anchor="middle" x="812.5" y="-13" font-family="Helvetica,sans-Serif" font-size="10.00">climits</text>
</a>
</g>
</g>
<!-- Node3&#45;&gt;Node6 -->
<g id="edge5" class="edge">
<title>Node3&#45;&gt;Node6</title>
<path fill="none" stroke="midnightblue" d="M841.63,-67.48C836.63,-58.73 828.71,-44.87 822.39,-33.81"/>
<polygon fill="midnightblue" stroke="midnightblue" points="825.36,-31.96 817.36,-25.01 819.28,-35.43 825.36,-31.96"/>
</g>
<!-- Node13 -->
<g id="node13" class="node">
<title>Node13</title>
<g id="a_node13"><a xlink:title=" ">
<polygon fill="white" stroke="#bfbfbf" points="663,-179.5 663,-198.5 710,-198.5 710,-179.5 663,-179.5"/>
<text text-anchor="middle" x="686.5" y="-186.5" font-family="Helvetica,sans-Serif" font-size="10.00">cmath</text>
</a>
</g>
</g>
<!-- Node12&#45;&gt;Node13 -->
<g id="edge13" class="edge">
<title>Node12&#45;&gt;Node13</title>
<path fill="none" stroke="midnightblue" d="M559.43,-235.44C584.72,-226.4 624.8,-212.06 653.18,-201.92"/>
<polygon fill="midnightblue" stroke="midnightblue" points="654.45,-205.18 662.69,-198.52 652.09,-198.59 654.45,-205.18"/>
</g>
<!-- Node14 -->
<g id="node14" class="node">
<title>Node14</title>
<g id="a_node14"><a xlink:href="itkMathDetail_8h.html" target="_top" xlink:title=" ">
<polygon fill="white" stroke="black" points="552.5,-179.5 552.5,-198.5 644.5,-198.5 644.5,-179.5 552.5,-179.5"/>
<text text-anchor="middle" x="598.5" y="-186.5" font-family="Helvetica,sans-Serif" font-size="10.00">itkMathDetail.h</text>
</a>
</g>
</g>
<!-- Node12&#45;&gt;Node14 -->
<g id="edge14" class="edge">
<title>Node12&#45;&gt;Node14</title>
<path fill="none" stroke="midnightblue" d="M545.62,-235.32C555.03,-227.26 569.24,-215.08 580.57,-205.37"/>
<polygon fill="midnightblue" stroke="midnightblue" points="582.88,-208 588.19,-198.83 578.32,-202.68 582.88,-208"/>
</g>
<!-- Node23 -->
<g id="node23" class="node">
<title>Node23</title>
<g id="a_node23"><a xlink:href="itkConceptChecking_8h.html" target="_top" xlink:title=" ">
<polygon fill="white" stroke="black" points="411,-179.5 411,-198.5 534,-198.5 534,-179.5 411,-179.5"/>
<text text-anchor="middle" x="472.5" y="-186.5" font-family="Helvetica,sans-Serif" font-size="10.00">itkConceptChecking.h</text>
</a>
</g>
</g>
<!-- Node12&#45;&gt;Node23 -->
<g id="edge30" class="edge">
<title>Node12&#45;&gt;Node23</title>
<path fill="none" stroke="midnightblue" d="M525.38,-235.32C515.97,-227.26 501.76,-215.08 490.43,-205.37"/>
<polygon fill="midnightblue" stroke="midnightblue" points="492.68,-202.68 482.81,-198.83 488.12,-208 492.68,-202.68"/>
</g>
<!-- Node26 -->
<g id="node26" class="node">
<title>Node26</title>
<g id="a_node26"><a xlink:title=" ">
<polygon fill="white" stroke="#bfbfbf" points="203,-179.5 203,-198.5 292,-198.5 292,-179.5 203,-179.5"/>
<text text-anchor="middle" x="247.5" y="-186.5" font-family="Helvetica,sans-Serif" font-size="10.00">vnl/vnl_math.h</text>
</a>
</g>
</g>
<!-- Node12&#45;&gt;Node26 -->
<g id="edge35" class="edge">
<title>Node12&#45;&gt;Node26</title>
<path fill="none" stroke="midnightblue" d="M503.86,-238.07C455.3,-228.96 361.8,-211.43 302.14,-200.24"/>
<polygon fill="midnightblue" stroke="midnightblue" points="302.61,-196.77 292.14,-198.37 301.32,-203.65 302.61,-196.77"/>
</g>
<!-- Node27 -->
<g id="node27" class="node">
<title>Node27</title>
<g id="a_node27"><a xlink:title=" ">
<polygon fill="white" stroke="#bfbfbf" points="310.5,-179.5 310.5,-198.5 392.5,-198.5 392.5,-179.5 310.5,-179.5"/>
<text text-anchor="middle" x="351.5" y="-186.5" font-family="Helvetica,sans-Serif" font-size="10.00">vxl_version.h</text>
</a>
</g>
</g>
<!-- Node12&#45;&gt;Node27 -->
<g id="edge36" class="edge">
<title>Node12&#45;&gt;Node27</title>
<path fill="none" stroke="midnightblue" d="M506.34,-235.44C474.99,-226.24 424.97,-211.56 390.3,-201.39"/>
<polygon fill="midnightblue" stroke="midnightblue" points="391.1,-197.97 380.52,-198.52 389.13,-204.69 391.1,-197.97"/>
</g>
<!-- Node14&#45;&gt;Node3 -->
<g id="edge15" class="edge">
<title>Node14&#45;&gt;Node3</title>
<path fill="none" stroke="midnightblue" d="M641.65,-179.47C673.53,-172.23 717.48,-160.23 753.5,-143 781.75,-129.48 810.78,-107.69 828.73,-93.11"/>
<polygon fill="midnightblue" stroke="midnightblue" points="831.12,-95.67 836.59,-86.6 826.66,-90.27 831.12,-95.67"/>
</g>
<!-- Node15 -->
<g id="node15" class="node">
<title>Node15</title>
<g id="a_node15"><a xlink:href="itkNumericTraits_8h.html" target="_top" xlink:title=" ">
<polygon fill="white" stroke="black" points="358.5,-123.5 358.5,-142.5 464.5,-142.5 464.5,-123.5 358.5,-123.5"/>
<text text-anchor="middle" x="411.5" y="-130.5" font-family="Helvetica,sans-Serif" font-size="10.00">itkNumericTraits.h</text>
</a>
</g>
</g>
<!-- Node14&#45;&gt;Node15 -->
<g id="edge16" class="edge">
<title>Node14&#45;&gt;Node15</title>
<path fill="none" stroke="midnightblue" d="M568.87,-179.44C537,-170.24 486.17,-155.56 450.94,-145.39"/>
<polygon fill="midnightblue" stroke="midnightblue" points="451.57,-141.93 440.99,-142.52 449.63,-148.65 451.57,-141.93"/>
</g>
<!-- Node22 -->
<g id="node22" class="node">
<title>Node22</title>
<g id="a_node22"><a xlink:title=" ">
<polygon fill="white" stroke="#bfbfbf" points="588.5,-123.5 588.5,-142.5 632.5,-142.5 632.5,-123.5 588.5,-123.5"/>
<text text-anchor="middle" x="610.5" y="-130.5" font-family="Helvetica,sans-Serif" font-size="10.00">cfenv</text>
</a>
</g>
</g>
<!-- Node14&#45;&gt;Node22 -->
<g id="edge29" class="edge">
<title>Node14&#45;&gt;Node22</title>
<path fill="none" stroke="midnightblue" d="M600.48,-179.08C602.07,-171.93 604.36,-161.64 606.35,-152.69"/>
<polygon fill="midnightblue" stroke="midnightblue" points="609.8,-153.27 608.56,-142.75 602.97,-151.75 609.8,-153.27"/>
</g>
<!-- Node15&#45;&gt;Node4 -->
<g id="edge17" class="edge">
<title>Node15&#45;&gt;Node4</title>
<path fill="none" stroke="midnightblue" d="M401.7,-123.33C388.03,-110.19 366.43,-84.88 380.5,-67 422.64,-13.47 464.05,-49.9 529.5,-31 532.51,-30.13 535.61,-29.18 538.72,-28.2"/>
<polygon fill="midnightblue" stroke="midnightblue" points="540.09,-31.44 548.51,-25.01 537.92,-24.78 540.09,-31.44"/>
</g>
<!-- Node16 -->
<g id="node16" class="node">
<title>Node16</title>
<g id="a_node16"><a xlink:title=" ">
<polygon fill="white" stroke="#bfbfbf" points="389.5,-67.5 389.5,-86.5 433.5,-86.5 433.5,-67.5 389.5,-67.5"/>
<text text-anchor="middle" x="411.5" y="-74.5" font-family="Helvetica,sans-Serif" font-size="10.00">limits</text>
</a>
</g>
</g>
<!-- Node15&#45;&gt;Node16 -->
<g id="edge18" class="edge">
<title>Node15&#45;&gt;Node16</title>
<path fill="none" stroke="midnightblue" d="M411.5,-123.08C411.5,-116.01 411.5,-105.86 411.5,-96.99"/>
<polygon fill="midnightblue" stroke="midnightblue" points="415,-96.75 411.5,-86.75 408,-96.75 415,-96.75"/>
</g>
<!-- Node17 -->
<g id="node17" class="node">
<title>Node17</title>
<g id="a_node17"><a xlink:title=" ">
<polygon fill="white" stroke="#bfbfbf" points="452,-67.5 452,-86.5 511,-86.5 511,-67.5 452,-67.5"/>
<text text-anchor="middle" x="481.5" y="-74.5" font-family="Helvetica,sans-Serif" font-size="10.00">complex</text>
</a>
</g>
</g>
<!-- Node15&#45;&gt;Node17 -->
<g id="edge19" class="edge">
<title>Node15&#45;&gt;Node17</title>
<path fill="none" stroke="midnightblue" d="M422.75,-123.32C433.3,-115.18 449.3,-102.84 461.94,-93.09"/>
<polygon fill="midnightblue" stroke="midnightblue" points="464.27,-95.71 470.05,-86.83 459.99,-90.17 464.27,-95.71"/>
</g>
<!-- Node18 -->
<g id="node18" class="node">
<title>Node18</title>
<g id="a_node18"><a xlink:href="itkFixedArray_8h.html" target="_top" xlink:title=" ">
<polygon fill="white" stroke="black" points="206,-67.5 206,-86.5 295,-86.5 295,-67.5 206,-67.5"/>
<text text-anchor="middle" x="250.5" y="-74.5" font-family="Helvetica,sans-Serif" font-size="10.00">itkFixedArray.h</text>
</a>
</g>
</g>
<!-- Node15&#45;&gt;Node18 -->
<g id="edge20" class="edge">
<title>Node15&#45;&gt;Node18</title>
<path fill="none" stroke="midnightblue" d="M385.99,-123.44C358.9,-114.36 315.91,-99.94 285.63,-89.78"/>
<polygon fill="midnightblue" stroke="midnightblue" points="286.49,-86.38 275.89,-86.52 284.26,-93.01 286.49,-86.38"/>
</g>
<!-- Node18&#45;&gt;Node4 -->
<g id="edge21" class="edge">
<title>Node18&#45;&gt;Node4</title>
<path fill="none" stroke="midnightblue" d="M295.41,-71.08C350.93,-64.46 448.06,-51.15 529.5,-31 532.89,-30.16 536.4,-29.18 539.88,-28.12"/>
<polygon fill="midnightblue" stroke="midnightblue" points="541.05,-31.43 549.5,-25.04 538.91,-24.76 541.05,-31.43"/>
</g>
<!-- Node18&#45;&gt;Node7 -->
<g id="edge22" class="edge">
<title>Node18&#45;&gt;Node7</title>
<path fill="none" stroke="midnightblue" d="M270.85,-67.48C294.89,-57.4 335.1,-40.55 362.66,-29"/>
<polygon fill="midnightblue" stroke="midnightblue" points="364.32,-32.1 372.19,-25.01 361.62,-25.65 364.32,-32.1"/>
</g>
<!-- Node18&#45;&gt;Node8 -->
<g id="edge23" class="edge">
<title>Node18&#45;&gt;Node8</title>
<path fill="none" stroke="midnightblue" d="M293.66,-67.47C333.6,-59.26 394.48,-45.91 446.5,-31 449.45,-30.16 452.49,-29.22 455.53,-28.25"/>
<polygon fill="midnightblue" stroke="midnightblue" points="456.71,-31.55 465.09,-25.08 454.5,-24.91 456.71,-31.55"/>
</g>
<!-- Node19 -->
<g id="node19" class="node">
<title>Node19</title>
<g id="a_node19"><a xlink:title=" ">
<polygon fill="white" stroke="#bfbfbf" points="286.5,-6 286.5,-25 328.5,-25 328.5,-6 286.5,-6"/>
<text text-anchor="middle" x="307.5" y="-13" font-family="Helvetica,sans-Serif" font-size="10.00">array</text>
</a>
</g>
</g>
<!-- Node18&#45;&gt;Node19 -->
<g id="edge24" class="edge">
<title>Node18&#45;&gt;Node19</title>
<path fill="none" stroke="midnightblue" d="M258.67,-67.48C267.39,-58.37 281.4,-43.74 292.19,-32.48"/>
<polygon fill="midnightblue" stroke="midnightblue" points="294.96,-34.65 299.35,-25.01 289.9,-29.81 294.96,-34.65"/>
</g>
<!-- Node20 -->
<g id="node20" class="node">
<title>Node20</title>
<g id="a_node20"><a xlink:title=" ">
<polygon fill="white" stroke="#bfbfbf" points="167,-6 167,-25 268,-25 268,-6 167,-6"/>
<text text-anchor="middle" x="217.5" y="-13" font-family="Helvetica,sans-Serif" font-size="10.00">itkFixedArray.hxx</text>
</a>
</g>
</g>
<!-- Node18&#45;&gt;Node20 -->
<g id="edge25" class="edge">
<title>Node18&#45;&gt;Node20</title>
<path fill="none" stroke="midnightblue" d="M245.77,-67.48C240.92,-58.73 233.23,-44.87 227.1,-33.81"/>
<polygon fill="midnightblue" stroke="midnightblue" points="230.13,-32.06 222.22,-25.01 224.01,-35.45 230.13,-32.06"/>
</g>
<!-- Node21 -->
<g id="node21" class="node">
<title>Node21</title>
<g id="a_node21"><a xlink:href="itkNumericTraitsFixedArrayPixel_8h.html" target="_top" xlink:title=" ">
<polygon fill="white" stroke="black" points="0,-0.5 0,-30.5 149,-30.5 149,-0.5 0,-0.5"/>
<text text-anchor="start" x="8" y="-18.5" font-family="Helvetica,sans-Serif" font-size="10.00">itkNumericTraitsFixedArray</text>
<text text-anchor="middle" x="74.5" y="-7.5" font-family="Helvetica,sans-Serif" font-size="10.00">Pixel.h</text>
</a>
</g>
</g>
<!-- Node18&#45;&gt;Node21 -->
<g id="edge26" class="edge">
<title>Node18&#45;&gt;Node21</title>
<path fill="none" stroke="midnightblue" d="M220.38,-67.48C192.64,-58.74 151.29,-44.91 119.64,-33.86"/>
<polygon fill="midnightblue" stroke="midnightblue" points="120.74,-30.53 110.15,-30.52 118.42,-37.14 120.74,-30.53"/>
</g>
<!-- Node21&#45;&gt;Node15 -->
<g id="edge27" class="edge">
<title>Node21&#45;&gt;Node15</title>
<path fill="none" stroke="midnightblue" d="M94.23,-30.56C117.57,-46.55 158.11,-72.32 196.5,-87 224.28,-97.62 298,-112 351.38,-121.62"/>
<polygon fill="midnightblue" stroke="midnightblue" points="350.97,-125.1 361.43,-123.42 352.2,-118.21 350.97,-125.1"/>
</g>
<!-- Node21&#45;&gt;Node18 -->
<g id="edge28" class="edge">
<title>Node21&#45;&gt;Node18</title>
<path fill="none" stroke="midnightblue" d="M121.81,-30.52C153.2,-40.69 193.37,-54.3 220.48,-63.98"/>
<polygon fill="midnightblue" stroke="midnightblue" points="219.59,-67.38 230.18,-67.48 221.96,-60.79 219.59,-67.38"/>
</g>
<!-- Node23&#45;&gt;Node15 -->
<g id="edge33" class="edge">
<title>Node23&#45;&gt;Node15</title>
<path fill="none" stroke="midnightblue" d="M462.7,-179.32C453.68,-171.34 440.09,-159.31 429.18,-149.65"/>
<polygon fill="midnightblue" stroke="midnightblue" points="431.29,-146.84 421.48,-142.83 426.65,-152.08 431.29,-146.84"/>
</g>
<!-- Node24 -->
<g id="node24" class="node">
<title>Node24</title>
<g id="a_node24"><a xlink:href="itkPixelTraits_8h.html" target="_top" xlink:title=" ">
<polygon fill="white" stroke="black" points="482.5,-123.5 482.5,-142.5 570.5,-142.5 570.5,-123.5 482.5,-123.5"/>
<text text-anchor="middle" x="526.5" y="-130.5" font-family="Helvetica,sans-Serif" font-size="10.00">itkPixelTraits.h</text>
</a>
</g>
</g>
<!-- Node23&#45;&gt;Node24 -->
<g id="edge31" class="edge">
<title>Node23&#45;&gt;Node24</title>
<path fill="none" stroke="midnightblue" d="M481.42,-179.08C489.28,-171.22 500.93,-159.57 510.42,-150.08"/>
<polygon fill="midnightblue" stroke="midnightblue" points="513.15,-152.3 517.75,-142.75 508.2,-147.35 513.15,-152.3"/>
</g>
<!-- Node25 -->
<g id="node25" class="node">
<title>Node25</title>
<g id="a_node25"><a xlink:title=" ">
<polygon fill="white" stroke="#bfbfbf" points="280.5,-123.5 280.5,-142.5 340.5,-142.5 340.5,-123.5 280.5,-123.5"/>
<text text-anchor="middle" x="310.5" y="-130.5" font-family="Helvetica,sans-Serif" font-size="10.00">iostream</text>
</a>
</g>
</g>
<!-- Node23&#45;&gt;Node25 -->
<g id="edge34" class="edge">
<title>Node23&#45;&gt;Node25</title>
<path fill="none" stroke="midnightblue" d="M446.83,-179.44C419.58,-170.36 376.32,-155.94 345.85,-145.78"/>
<polygon fill="midnightblue" stroke="midnightblue" points="346.64,-142.36 336.05,-142.52 344.43,-149 346.64,-142.36"/>
</g>
<!-- Node24&#45;&gt;Node4 -->
<g id="edge32" class="edge">
<title>Node24&#45;&gt;Node4</title>
<path fill="none" stroke="midnightblue" d="M529.96,-123.32C537.42,-104.59 555.16,-60.05 565.21,-34.79"/>
<polygon fill="midnightblue" stroke="midnightblue" points="568.55,-35.87 569,-25.28 562.05,-33.28 568.55,-35.87"/>
</g>
</g>
</svg>
