<?xml version="1.0" encoding="UTF-8" standalone="no"?>
<!DOCTYPE svg PUBLIC "-//W3C//DTD SVG 1.1//EN"
 "http://www.w3.org/Graphics/SVG/1.1/DTD/svg11.dtd">
<!-- Generated by graphviz version 2.43.0 (0)
 -->
<!-- Title: itkObjectStore.h Pages: 1 -->
<svg width="2133pt" height="363pt"
 viewBox="0.00 0.00 2132.50 363.00" xmlns="http://www.w3.org/2000/svg" xmlns:xlink="http://www.w3.org/1999/xlink">
<g id="graph0" class="graph" transform="scale(1 1) rotate(0) translate(4 359)">
<title>itkObjectStore.h</title>
<polygon fill="white" stroke="transparent" points="-4,4 -4,-359 2128.5,-359 2128.5,4 -4,4"/>
<!-- Node1 -->
<g id="node1" class="node">
<title>Node1</title>
<g id="a_node1"><a xlink:title=" ">
<polygon fill="#bfbfbf" stroke="black" points="588.5,-335.5 588.5,-354.5 683.5,-354.5 683.5,-335.5 588.5,-335.5"/>
<text text-anchor="middle" x="636" y="-342.5" font-family="Helvetica,sans-Serif" font-size="10.00">itkObjectStore.h</text>
</a>
</g>
</g>
<!-- Node2 -->
<g id="node2" class="node">
<title>Node2</title>
<g id="a_node2"><a xlink:href="itkSparseImage_8h.html" target="_top" xlink:title=" ">
<polygon fill="white" stroke="black" points="187,-274 187,-293 289,-293 289,-274 187,-274"/>
<text text-anchor="middle" x="238" y="-281" font-family="Helvetica,sans-Serif" font-size="10.00">itkSparseImage.h</text>
</a>
</g>
</g>
<!-- Node1&#45;&gt;Node2 -->
<g id="edge1" class="edge">
<title>Node1&#45;&gt;Node2</title>
<path fill="none" stroke="midnightblue" d="M578.28,-335.37C500.53,-323.75 363.34,-303.24 289.12,-292.14"/>
<polygon fill="midnightblue" stroke="midnightblue" points="577.98,-338.86 588.39,-336.88 579.01,-331.94 577.98,-338.86"/>
</g>
<!-- Node10 -->
<g id="node10" class="node">
<title>Node10</title>
<g id="a_node10"><a xlink:href="itkNarrowBandImageFilterBase_8h.html" target="_top" xlink:title=" ">
<polygon fill="white" stroke="black" points="735.5,-268.5 735.5,-298.5 880.5,-298.5 880.5,-268.5 735.5,-268.5"/>
<text text-anchor="start" x="743.5" y="-286.5" font-family="Helvetica,sans-Serif" font-size="10.00">itkNarrowBandImageFilter</text>
<text text-anchor="middle" x="808" y="-275.5" font-family="Helvetica,sans-Serif" font-size="10.00">Base.h</text>
</a>
</g>
</g>
<!-- Node1&#45;&gt;Node10 -->
<g id="edge10" class="edge">
<title>Node1&#45;&gt;Node10</title>
<path fill="none" stroke="midnightblue" d="M670.39,-332.1C698.38,-322.42 737.94,-308.74 767.46,-298.52"/>
<polygon fill="midnightblue" stroke="midnightblue" points="668.95,-328.9 660.64,-335.48 671.24,-335.51 668.95,-328.9"/>
</g>
<!-- Node14 -->
<g id="node14" class="node">
<title>Node14</title>
<g id="a_node14"><a xlink:href="itkCannyEdgeDetectionImageFilter_8h.html" target="_top" xlink:title=" ">
<polygon fill="white" stroke="black" points="555,-268.5 555,-298.5 717,-298.5 717,-268.5 555,-268.5"/>
<text text-anchor="start" x="563" y="-286.5" font-family="Helvetica,sans-Serif" font-size="10.00">itkCannyEdgeDetectionImage</text>
<text text-anchor="middle" x="636" y="-275.5" font-family="Helvetica,sans-Serif" font-size="10.00">Filter.h</text>
</a>
</g>
</g>
<!-- Node1&#45;&gt;Node14 -->
<g id="edge14" class="edge">
<title>Node1&#45;&gt;Node14</title>
<path fill="none" stroke="midnightblue" d="M636,-325.23C636,-316.59 636,-306.5 636,-298.52"/>
<polygon fill="midnightblue" stroke="midnightblue" points="632.5,-325.48 636,-335.48 639.5,-325.48 632.5,-325.48"/>
</g>
<!-- Node17 -->
<g id="node17" class="node">
<title>Node17</title>
<g id="a_node17"><a xlink:href="itkSparseFieldLevelSetImageFilter_8h.html" target="_top" xlink:title=" ">
<polygon fill="white" stroke="black" points="378,-268.5 378,-298.5 536,-298.5 536,-268.5 378,-268.5"/>
<text text-anchor="start" x="386" y="-286.5" font-family="Helvetica,sans-Serif" font-size="10.00">itkSparseFieldLevelSetImage</text>
<text text-anchor="middle" x="457" y="-275.5" font-family="Helvetica,sans-Serif" font-size="10.00">Filter.h</text>
</a>
</g>
</g>
<!-- Node1&#45;&gt;Node17 -->
<g id="edge17" class="edge">
<title>Node1&#45;&gt;Node17</title>
<path fill="none" stroke="midnightblue" d="M600.59,-332.23C571.44,-322.54 530.05,-308.78 499.19,-298.52"/>
<polygon fill="midnightblue" stroke="midnightblue" points="599.76,-335.64 610.35,-335.48 601.97,-329 599.76,-335.64"/>
</g>
<!-- Node28 -->
<g id="node28" class="node">
<title>Node28</title>
<g id="a_node28"><a xlink:href="itkParallelSparseFieldLevelSetImageFilter_8h.html" target="_top" xlink:title=" ">
<polygon fill="white" stroke="black" points="899,-268.5 899,-298.5 1047,-298.5 1047,-268.5 899,-268.5"/>
<text text-anchor="start" x="907" y="-286.5" font-family="Helvetica,sans-Serif" font-size="10.00">itkParallelSparseFieldLevel</text>
<text text-anchor="middle" x="973" y="-275.5" font-family="Helvetica,sans-Serif" font-size="10.00">SetImageFilter.h</text>
</a>
</g>
</g>
<!-- Node1&#45;&gt;Node28 -->
<g id="edge30" class="edge">
<title>Node1&#45;&gt;Node28</title>
<path fill="none" stroke="midnightblue" d="M693.43,-333.86C750.05,-323.86 836.86,-308.54 898.7,-297.62"/>
<polygon fill="midnightblue" stroke="midnightblue" points="692.81,-330.42 683.57,-335.6 694.03,-337.31 692.81,-330.42"/>
</g>
<!-- Node3 -->
<g id="node3" class="node">
<title>Node3</title>
<g id="a_node3"><a xlink:href="itkFiniteDifferenceSparseImageFilter_8h.html" target="_top" xlink:title=" ">
<polygon fill="white" stroke="black" points="1,-201.5 1,-231.5 141,-231.5 141,-201.5 1,-201.5"/>
<text text-anchor="start" x="9" y="-219.5" font-family="Helvetica,sans-Serif" font-size="10.00">itkFiniteDifferenceSparse</text>
<text text-anchor="middle" x="71" y="-208.5" font-family="Helvetica,sans-Serif" font-size="10.00">ImageFilter.h</text>
</a>
</g>
</g>
<!-- Node2&#45;&gt;Node3 -->
<g id="edge2" class="edge">
<title>Node2&#45;&gt;Node3</title>
<path fill="none" stroke="midnightblue" d="M206.4,-270.2C178.11,-259.19 136.62,-243.04 107.04,-231.53"/>
<polygon fill="midnightblue" stroke="midnightblue" points="205.24,-273.5 215.82,-273.87 207.77,-266.98 205.24,-273.5"/>
</g>
<!-- Node9 -->
<g id="node9" class="node">
<title>Node9</title>
<g id="a_node9"><a xlink:href="itkLevelSetFunctionWithRefitTerm_8h.html" target="_top" xlink:title=" ">
<polygon fill="white" stroke="black" points="159,-201.5 159,-231.5 317,-231.5 317,-201.5 159,-201.5"/>
<text text-anchor="start" x="167" y="-219.5" font-family="Helvetica,sans-Serif" font-size="10.00">itkLevelSetFunctionWithRefit</text>
<text text-anchor="middle" x="238" y="-208.5" font-family="Helvetica,sans-Serif" font-size="10.00">Term.h</text>
</a>
</g>
</g>
<!-- Node2&#45;&gt;Node9 -->
<g id="edge8" class="edge">
<title>Node2&#45;&gt;Node9</title>
<path fill="none" stroke="midnightblue" d="M238,-263.41C238,-253.22 238,-240.9 238,-231.59"/>
<polygon fill="midnightblue" stroke="midnightblue" points="234.5,-263.73 238,-273.73 241.5,-263.73 234.5,-263.73"/>
</g>
<!-- Node4 -->
<g id="node4" class="node">
<title>Node4</title>
<g id="a_node4"><a xlink:href="itkImplicitManifoldNormalVectorFilter_8h.html" target="_top" xlink:title=" ">
<polygon fill="white" stroke="black" points="31.5,-134.5 31.5,-164.5 176.5,-164.5 176.5,-134.5 31.5,-134.5"/>
<text text-anchor="start" x="39.5" y="-152.5" font-family="Helvetica,sans-Serif" font-size="10.00">itkImplicitManifoldNormal</text>
<text text-anchor="middle" x="104" y="-141.5" font-family="Helvetica,sans-Serif" font-size="10.00">VectorFilter.h</text>
</a>
</g>
</g>
<!-- Node3&#45;&gt;Node4 -->
<g id="edge3" class="edge">
<title>Node3&#45;&gt;Node4</title>
<path fill="none" stroke="midnightblue" d="M82.79,-192.28C87.49,-183.02 92.75,-172.66 96.85,-164.58"/>
<polygon fill="midnightblue" stroke="midnightblue" points="79.57,-190.89 78.16,-201.4 85.81,-194.06 79.57,-190.89"/>
</g>
<!-- Node5 -->
<g id="node5" class="node">
<title>Node5</title>
<g id="a_node5"><a xlink:href="itkSparseFieldFourthOrderLevelSetImageFilter_8h.html" target="_top" xlink:title=" ">
<polygon fill="white" stroke="black" points="166.5,-67.5 166.5,-97.5 309.5,-97.5 309.5,-67.5 166.5,-67.5"/>
<text text-anchor="start" x="174.5" y="-85.5" font-family="Helvetica,sans-Serif" font-size="10.00">itkSparseFieldFourthOrder</text>
<text text-anchor="middle" x="238" y="-74.5" font-family="Helvetica,sans-Serif" font-size="10.00">LevelSetImageFilter.h</text>
</a>
</g>
</g>
<!-- Node4&#45;&gt;Node5 -->
<g id="edge4" class="edge">
<title>Node4&#45;&gt;Node5</title>
<path fill="none" stroke="midnightblue" d="M142.15,-129.99C163.39,-119.69 189.41,-107.07 208.98,-97.58"/>
<polygon fill="midnightblue" stroke="midnightblue" points="140.55,-126.88 133.08,-134.4 143.6,-133.18 140.55,-126.88"/>
</g>
<!-- Node6 -->
<g id="node6" class="node">
<title>Node6</title>
<g id="a_node6"><a xlink:href="itkAnisotropicFourthOrderLevelSetImageFilter_8h.html" target="_top" xlink:title=" ">
<polygon fill="white" stroke="black" points="0,-0.5 0,-30.5 142,-30.5 142,-0.5 0,-0.5"/>
<text text-anchor="start" x="8" y="-18.5" font-family="Helvetica,sans-Serif" font-size="10.00">itkAnisotropicFourthOrder</text>
<text text-anchor="middle" x="71" y="-7.5" font-family="Helvetica,sans-Serif" font-size="10.00">LevelSetImageFilter.h</text>
</a>
</g>
</g>
<!-- Node5&#45;&gt;Node6 -->
<g id="edge5" class="edge">
<title>Node5&#45;&gt;Node6</title>
<path fill="none" stroke="midnightblue" d="M192.22,-63.68C165.44,-53.26 132.1,-40.28 107.17,-30.58"/>
<polygon fill="midnightblue" stroke="midnightblue" points="191.17,-67.03 201.76,-67.4 193.71,-60.51 191.17,-67.03"/>
</g>
<!-- Node7 -->
<g id="node7" class="node">
<title>Node7</title>
<g id="a_node7"><a xlink:href="itkIsotropicFourthOrderLevelSetImageFilter_8h.html" target="_top" xlink:title=" ">
<polygon fill="white" stroke="black" points="160.5,-0.5 160.5,-30.5 315.5,-30.5 315.5,-0.5 160.5,-0.5"/>
<text text-anchor="start" x="168.5" y="-18.5" font-family="Helvetica,sans-Serif" font-size="10.00">itkIsotropicFourthOrderLevel</text>
<text text-anchor="middle" x="238" y="-7.5" font-family="Helvetica,sans-Serif" font-size="10.00">SetImageFilter.h</text>
</a>
</g>
</g>
<!-- Node5&#45;&gt;Node7 -->
<g id="edge6" class="edge">
<title>Node5&#45;&gt;Node7</title>
<path fill="none" stroke="midnightblue" d="M238,-57.11C238,-48.15 238,-38.32 238,-30.58"/>
<polygon fill="midnightblue" stroke="midnightblue" points="234.5,-57.4 238,-67.4 241.5,-57.4 234.5,-57.4"/>
</g>
<!-- Node8 -->
<g id="node8" class="node">
<title>Node8</title>
<g id="a_node8"><a xlink:href="itkUnsharpMaskLevelSetImageFilter_8h.html" target="_top" xlink:title=" ">
<polygon fill="white" stroke="black" points="333.5,-0.5 333.5,-30.5 502.5,-30.5 502.5,-0.5 333.5,-0.5"/>
<text text-anchor="start" x="341.5" y="-18.5" font-family="Helvetica,sans-Serif" font-size="10.00">itkUnsharpMaskLevelSetImage</text>
<text text-anchor="middle" x="418" y="-7.5" font-family="Helvetica,sans-Serif" font-size="10.00">Filter.h</text>
</a>
</g>
</g>
<!-- Node5&#45;&gt;Node8 -->
<g id="edge7" class="edge">
<title>Node5&#45;&gt;Node8</title>
<path fill="none" stroke="midnightblue" d="M286.59,-63.96C315.58,-53.48 351.91,-40.37 379.02,-30.58"/>
<polygon fill="midnightblue" stroke="midnightblue" points="285.27,-60.71 277.06,-67.4 287.65,-67.29 285.27,-60.71"/>
</g>
<!-- Node9&#45;&gt;Node5 -->
<g id="edge9" class="edge">
<title>Node9&#45;&gt;Node5</title>
<path fill="none" stroke="midnightblue" d="M238,-191.02C238,-163.51 238,-119.79 238,-97.52"/>
<polygon fill="midnightblue" stroke="midnightblue" points="234.5,-191.37 238,-201.37 241.5,-191.37 234.5,-191.37"/>
</g>
<!-- Node11 -->
<g id="node11" class="node">
<title>Node11</title>
<g id="a_node11"><a xlink:href="itkNarrowBandLevelSetImageFilter_8h.html" target="_top" xlink:title=" ">
<polygon fill="white" stroke="black" points="1773,-201.5 1773,-231.5 1935,-231.5 1935,-201.5 1773,-201.5"/>
<text text-anchor="start" x="1781" y="-219.5" font-family="Helvetica,sans-Serif" font-size="10.00">itkNarrowBandLevelSetImage</text>
<text text-anchor="middle" x="1854" y="-208.5" font-family="Helvetica,sans-Serif" font-size="10.00">Filter.h</text>
</a>
</g>
</g>
<!-- Node10&#45;&gt;Node11 -->
<g id="edge11" class="edge">
<title>Node10&#45;&gt;Node11</title>
<path fill="none" stroke="midnightblue" d="M891.13,-267.98C1223.72,-230.61 1608.27,-220.94 1772.79,-218.4"/>
<polygon fill="midnightblue" stroke="midnightblue" points="890.35,-264.54 880.81,-269.15 891.14,-271.5 890.35,-264.54"/>
</g>
<!-- Node12 -->
<g id="node12" class="node">
<title>Node12</title>
<g id="a_node12"><a xlink:href="itkNarrowBandCurvesLevelSetImageFilter_8h.html" target="_top" xlink:title=" ">
<polygon fill="white" stroke="black" points="1975.5,-134.5 1975.5,-164.5 2124.5,-164.5 2124.5,-134.5 1975.5,-134.5"/>
<text text-anchor="start" x="1983.5" y="-152.5" font-family="Helvetica,sans-Serif" font-size="10.00">itkNarrowBandCurvesLevel</text>
<text text-anchor="middle" x="2050" y="-141.5" font-family="Helvetica,sans-Serif" font-size="10.00">SetImageFilter.h</text>
</a>
</g>
</g>
<!-- Node11&#45;&gt;Node12 -->
<g id="edge12" class="edge">
<title>Node11&#45;&gt;Node12</title>
<path fill="none" stroke="midnightblue" d="M1906.08,-198.23C1937.79,-187.71 1977.78,-174.45 2007.55,-164.58"/>
<polygon fill="midnightblue" stroke="midnightblue" points="1904.92,-194.93 1896.53,-201.4 1907.12,-201.57 1904.92,-194.93"/>
</g>
<!-- Node13 -->
<g id="node13" class="node">
<title>Node13</title>
<g id="a_node13"><a xlink:href="itkNarrowBandThresholdSegmentationLevelSetImageFilter_8h.html" target="_top" xlink:title=" ">
<polygon fill="white" stroke="black" points="1751,-134.5 1751,-164.5 1957,-164.5 1957,-134.5 1751,-134.5"/>
<text text-anchor="start" x="1759" y="-152.5" font-family="Helvetica,sans-Serif" font-size="10.00">itkNarrowBandThresholdSegmentation</text>
<text text-anchor="middle" x="1854" y="-141.5" font-family="Helvetica,sans-Serif" font-size="10.00">LevelSetImageFilter.h</text>
</a>
</g>
</g>
<!-- Node11&#45;&gt;Node13 -->
<g id="edge13" class="edge">
<title>Node11&#45;&gt;Node13</title>
<path fill="none" stroke="midnightblue" d="M1854,-191.11C1854,-182.15 1854,-172.32 1854,-164.58"/>
<polygon fill="midnightblue" stroke="midnightblue" points="1850.5,-191.4 1854,-201.4 1857.5,-191.4 1850.5,-191.4"/>
</g>
<!-- Node15 -->
<g id="node15" class="node">
<title>Node15</title>
<g id="a_node15"><a xlink:href="itkCannySegmentationLevelSetFunction_8h.html" target="_top" xlink:title=" ">
<polygon fill="white" stroke="black" points="559.5,-201.5 559.5,-231.5 714.5,-231.5 714.5,-201.5 559.5,-201.5"/>
<text text-anchor="start" x="567.5" y="-219.5" font-family="Helvetica,sans-Serif" font-size="10.00">itkCannySegmentationLevel</text>
<text text-anchor="middle" x="637" y="-208.5" font-family="Helvetica,sans-Serif" font-size="10.00">SetFunction.h</text>
</a>
</g>
</g>
<!-- Node14&#45;&gt;Node15 -->
<g id="edge15" class="edge">
<title>Node14&#45;&gt;Node15</title>
<path fill="none" stroke="midnightblue" d="M636.38,-258.11C636.51,-249.15 636.66,-239.32 636.78,-231.58"/>
<polygon fill="midnightblue" stroke="midnightblue" points="632.87,-258.34 636.22,-268.4 639.87,-258.45 632.87,-258.34"/>
</g>
<!-- Node16 -->
<g id="node16" class="node">
<title>Node16</title>
<g id="a_node16"><a xlink:href="itkCannySegmentationLevelSetImageFilter_8h.html" target="_top" xlink:title=" ">
<polygon fill="white" stroke="black" points="373.5,-134.5 373.5,-164.5 528.5,-164.5 528.5,-134.5 373.5,-134.5"/>
<text text-anchor="start" x="381.5" y="-152.5" font-family="Helvetica,sans-Serif" font-size="10.00">itkCannySegmentationLevel</text>
<text text-anchor="middle" x="451" y="-141.5" font-family="Helvetica,sans-Serif" font-size="10.00">SetImageFilter.h</text>
</a>
</g>
</g>
<!-- Node15&#45;&gt;Node16 -->
<g id="edge16" class="edge">
<title>Node15&#45;&gt;Node16</title>
<path fill="none" stroke="midnightblue" d="M587.19,-198.09C557.16,-187.6 519.41,-174.41 491.28,-164.58"/>
<polygon fill="midnightblue" stroke="midnightblue" points="586.05,-201.4 596.64,-201.4 588.36,-194.79 586.05,-201.4"/>
</g>
<!-- Node17&#45;&gt;Node5 -->
<g id="edge18" class="edge">
<title>Node17&#45;&gt;Node5</title>
<path fill="none" stroke="midnightblue" d="M415.13,-263.93C398.36,-255.46 379.4,-244.51 364,-232 312.83,-190.42 266.51,-126.02 247.34,-97.69"/>
<polygon fill="midnightblue" stroke="midnightblue" points="413.67,-267.11 424.19,-268.37 416.75,-260.82 413.67,-267.11"/>
</g>
<!-- Node18 -->
<g id="node18" class="node">
<title>Node18</title>
<g id="a_node18"><a xlink:href="itkSegmentationLevelSetImageFilter_8h.html" target="_top" xlink:title=" ">
<polygon fill="white" stroke="black" points="865,-201.5 865,-231.5 1035,-231.5 1035,-201.5 865,-201.5"/>
<text text-anchor="start" x="873" y="-219.5" font-family="Helvetica,sans-Serif" font-size="10.00">itkSegmentationLevelSetImage</text>
<text text-anchor="middle" x="950" y="-208.5" font-family="Helvetica,sans-Serif" font-size="10.00">Filter.h</text>
</a>
</g>
</g>
<!-- Node17&#45;&gt;Node18 -->
<g id="edge19" class="edge">
<title>Node17&#45;&gt;Node18</title>
<path fill="none" stroke="midnightblue" d="M545.69,-268.04C545.8,-268.03 545.9,-268.01 546,-268 655.84,-252.19 782.91,-236.78 864.76,-227.22"/>
<polygon fill="midnightblue" stroke="midnightblue" points="545.46,-264.54 536.08,-269.46 546.48,-271.47 545.46,-264.54"/>
</g>
<!-- Node27 -->
<g id="node27" class="node">
<title>Node27</title>
<g id="a_node27"><a xlink:href="itkAntiAliasBinaryImageFilter_8h.html" target="_top" xlink:title=" ">
<polygon fill="white" stroke="black" points="373,-207 373,-226 541,-226 541,-207 373,-207"/>
<text text-anchor="middle" x="457" y="-214" font-family="Helvetica,sans-Serif" font-size="10.00">itkAntiAliasBinaryImageFilter.h</text>
</a>
</g>
</g>
<!-- Node17&#45;&gt;Node27 -->
<g id="edge29" class="edge">
<title>Node17&#45;&gt;Node27</title>
<path fill="none" stroke="midnightblue" d="M457,-258.25C457,-247.02 457,-234.38 457,-226.19"/>
<polygon fill="midnightblue" stroke="midnightblue" points="453.5,-258.4 457,-268.4 460.5,-258.4 453.5,-258.4"/>
</g>
<!-- Node18&#45;&gt;Node16 -->
<g id="edge20" class="edge">
<title>Node18&#45;&gt;Node16</title>
<path fill="none" stroke="midnightblue" d="M854.65,-204.99C771.05,-195.5 646.29,-180.65 538,-165 534.97,-164.56 531.88,-164.1 528.76,-163.63"/>
<polygon fill="midnightblue" stroke="midnightblue" points="854.31,-208.48 864.64,-206.13 855.09,-201.52 854.31,-208.48"/>
</g>
<!-- Node19 -->
<g id="node19" class="node">
<title>Node19</title>
<g id="a_node19"><a xlink:href="itkCurvesLevelSetImageFilter_8h.html" target="_top" xlink:title=" ">
<polygon fill="white" stroke="black" points="1234.5,-140 1234.5,-159 1403.5,-159 1403.5,-140 1234.5,-140"/>
<text text-anchor="middle" x="1319" y="-147" font-family="Helvetica,sans-Serif" font-size="10.00">itkCurvesLevelSetImageFilter.h</text>
</a>
</g>
</g>
<!-- Node18&#45;&gt;Node19 -->
<g id="edge21" class="edge">
<title>Node18&#45;&gt;Node19</title>
<path fill="none" stroke="midnightblue" d="M1039.69,-199.7C1112.39,-186.9 1212.06,-169.34 1270.58,-159.03"/>
<polygon fill="midnightblue" stroke="midnightblue" points="1038.85,-196.29 1029.61,-201.48 1040.07,-203.19 1038.85,-196.29"/>
</g>
<!-- Node20 -->
<g id="node20" class="node">
<title>Node20</title>
<g id="a_node20"><a xlink:href="itkGeodesicActiveContourLevelSetImageFilter_8h.html" target="_top" xlink:title=" ">
<polygon fill="white" stroke="black" points="1421.5,-134.5 1421.5,-164.5 1564.5,-164.5 1564.5,-134.5 1421.5,-134.5"/>
<text text-anchor="start" x="1429.5" y="-152.5" font-family="Helvetica,sans-Serif" font-size="10.00">itkGeodesicActiveContour</text>
<text text-anchor="middle" x="1493" y="-141.5" font-family="Helvetica,sans-Serif" font-size="10.00">LevelSetImageFilter.h</text>
</a>
</g>
</g>
<!-- Node18&#45;&gt;Node20 -->
<g id="edge22" class="edge">
<title>Node18&#45;&gt;Node20</title>
<path fill="none" stroke="midnightblue" d="M1045.39,-206.99C1138.97,-198.19 1285.63,-183.2 1412,-165 1415.11,-164.55 1418.29,-164.07 1421.49,-163.57"/>
<polygon fill="midnightblue" stroke="midnightblue" points="1045,-203.51 1035.37,-207.93 1045.65,-210.48 1045,-203.51"/>
</g>
<!-- Node21 -->
<g id="node21" class="node">
<title>Node21</title>
<g id="a_node21"><a xlink:href="itkShapePriorSegmentationLevelSetImageFilter_8h.html" target="_top" xlink:title=" ">
<polygon fill="white" stroke="black" points="1583,-134.5 1583,-164.5 1733,-164.5 1733,-134.5 1583,-134.5"/>
<text text-anchor="start" x="1591" y="-152.5" font-family="Helvetica,sans-Serif" font-size="10.00">itkShapePriorSegmentation</text>
<text text-anchor="middle" x="1658" y="-141.5" font-family="Helvetica,sans-Serif" font-size="10.00">LevelSetImageFilter.h</text>
</a>
</g>
</g>
<!-- Node18&#45;&gt;Node21 -->
<g id="edge23" class="edge">
<title>Node18&#45;&gt;Node21</title>
<path fill="none" stroke="midnightblue" d="M1045.24,-210.39C1167.68,-203.23 1386.72,-188.39 1573,-165 1576.27,-164.59 1579.6,-164.14 1582.97,-163.67"/>
<polygon fill="midnightblue" stroke="midnightblue" points="1044.92,-206.91 1035.14,-210.98 1045.33,-213.9 1044.92,-206.91"/>
</g>
<!-- Node23 -->
<g id="node23" class="node">
<title>Node23</title>
<g id="a_node23"><a xlink:href="itkLaplacianSegmentationLevelSetImageFilter_8h.html" target="_top" xlink:title=" ">
<polygon fill="white" stroke="black" points="547,-134.5 547,-164.5 691,-164.5 691,-134.5 547,-134.5"/>
<text text-anchor="start" x="555" y="-152.5" font-family="Helvetica,sans-Serif" font-size="10.00">itkLaplacianSegmentation</text>
<text text-anchor="middle" x="619" y="-141.5" font-family="Helvetica,sans-Serif" font-size="10.00">LevelSetImageFilter.h</text>
</a>
</g>
</g>
<!-- Node18&#45;&gt;Node23 -->
<g id="edge25" class="edge">
<title>Node18&#45;&gt;Node23</title>
<path fill="none" stroke="midnightblue" d="M868.6,-199.52C814.07,-188.81 742.94,-174.84 690.57,-164.55"/>
<polygon fill="midnightblue" stroke="midnightblue" points="868.1,-202.98 878.59,-201.48 869.45,-196.11 868.1,-202.98"/>
</g>
<!-- Node24 -->
<g id="node24" class="node">
<title>Node24</title>
<g id="a_node24"><a xlink:href="itkShapeDetectionLevelSetImageFilter_8h.html" target="_top" xlink:title=" ">
<polygon fill="white" stroke="black" points="709.5,-134.5 709.5,-164.5 858.5,-164.5 858.5,-134.5 709.5,-134.5"/>
<text text-anchor="start" x="717.5" y="-152.5" font-family="Helvetica,sans-Serif" font-size="10.00">itkShapeDetectionLevelSet</text>
<text text-anchor="middle" x="784" y="-141.5" font-family="Helvetica,sans-Serif" font-size="10.00">ImageFilter.h</text>
</a>
</g>
</g>
<!-- Node18&#45;&gt;Node24 -->
<g id="edge26" class="edge">
<title>Node18&#45;&gt;Node24</title>
<path fill="none" stroke="midnightblue" d="M904.49,-197.68C877.87,-187.26 844.73,-174.28 819.95,-164.58"/>
<polygon fill="midnightblue" stroke="midnightblue" points="903.39,-201.01 913.98,-201.4 905.95,-194.49 903.39,-201.01"/>
</g>
<!-- Node25 -->
<g id="node25" class="node">
<title>Node25</title>
<g id="a_node25"><a xlink:href="itkThresholdSegmentationLevelSetImageFilter_8h.html" target="_top" xlink:title=" ">
<polygon fill="white" stroke="black" points="877,-134.5 877,-164.5 1023,-164.5 1023,-134.5 877,-134.5"/>
<text text-anchor="start" x="885" y="-152.5" font-family="Helvetica,sans-Serif" font-size="10.00">itkThresholdSegmentation</text>
<text text-anchor="middle" x="950" y="-141.5" font-family="Helvetica,sans-Serif" font-size="10.00">LevelSetImageFilter.h</text>
</a>
</g>
</g>
<!-- Node18&#45;&gt;Node25 -->
<g id="edge27" class="edge">
<title>Node18&#45;&gt;Node25</title>
<path fill="none" stroke="midnightblue" d="M950,-191.11C950,-182.15 950,-172.32 950,-164.58"/>
<polygon fill="midnightblue" stroke="midnightblue" points="946.5,-191.4 950,-201.4 953.5,-191.4 946.5,-191.4"/>
</g>
<!-- Node26 -->
<g id="node26" class="node">
<title>Node26</title>
<g id="a_node26"><a xlink:href="itkVectorThresholdSegmentationLevelSetImageFilter_8h.html" target="_top" xlink:title=" ">
<polygon fill="white" stroke="black" points="1041,-134.5 1041,-164.5 1217,-164.5 1217,-134.5 1041,-134.5"/>
<text text-anchor="start" x="1049" y="-152.5" font-family="Helvetica,sans-Serif" font-size="10.00">itkVectorThresholdSegmentation</text>
<text text-anchor="middle" x="1129" y="-141.5" font-family="Helvetica,sans-Serif" font-size="10.00">LevelSetImageFilter.h</text>
</a>
</g>
</g>
<!-- Node18&#45;&gt;Node26 -->
<g id="edge28" class="edge">
<title>Node18&#45;&gt;Node26</title>
<path fill="none" stroke="midnightblue" d="M998.32,-197.96C1027.15,-187.48 1063.28,-174.37 1090.24,-164.58"/>
<polygon fill="midnightblue" stroke="midnightblue" points="997.05,-194.69 988.84,-201.4 999.43,-201.27 997.05,-194.69"/>
</g>
<!-- Node22 -->
<g id="node22" class="node">
<title>Node22</title>
<g id="a_node22"><a xlink:href="itkGeodesicActiveContourShapePriorLevelSetImageFilter_8h.html" target="_top" xlink:title=" ">
<polygon fill="white" stroke="black" points="1570.5,-67.5 1570.5,-97.5 1745.5,-97.5 1745.5,-67.5 1570.5,-67.5"/>
<text text-anchor="start" x="1578.5" y="-85.5" font-family="Helvetica,sans-Serif" font-size="10.00">itkGeodesicActiveContour</text>
<text text-anchor="middle" x="1658" y="-74.5" font-family="Helvetica,sans-Serif" font-size="10.00">ShapePriorLevelSetImageFilter.h</text>
</a>
</g>
</g>
<!-- Node21&#45;&gt;Node22 -->
<g id="edge24" class="edge">
<title>Node21&#45;&gt;Node22</title>
<path fill="none" stroke="midnightblue" d="M1658,-124.11C1658,-115.15 1658,-105.32 1658,-97.58"/>
<polygon fill="midnightblue" stroke="midnightblue" points="1654.5,-124.4 1658,-134.4 1661.5,-124.4 1654.5,-124.4"/>
</g>
</g>
</svg>
