<?xml version="1.0" encoding="UTF-8" standalone="no"?>
<!DOCTYPE svg PUBLIC "-//W3C//DTD SVG 1.1//EN"
 "http://www.w3.org/Graphics/SVG/1.1/DTD/svg11.dtd">
<!-- Generated by graphviz version 2.43.0 (0)
 -->
<!-- Title: itkOptimizerParameters.h Pages: 1 -->
<svg width="1338pt" height="498pt"
 viewBox="0.00 0.00 1338.00 498.00" xmlns="http://www.w3.org/2000/svg" xmlns:xlink="http://www.w3.org/1999/xlink">
<g id="graph0" class="graph" transform="scale(1 1) rotate(0) translate(4 494)">
<title>itkOptimizerParameters.h</title>
<polygon fill="white" stroke="transparent" points="-4,4 -4,-494 1334,-494 1334,4 -4,4"/>
<!-- Node1 -->
<g id="node1" class="node">
<title>Node1</title>
<g id="a_node1"><a xlink:title=" ">
<polygon fill="#bfbfbf" stroke="black" points="686,-470.5 686,-489.5 828,-489.5 828,-470.5 686,-470.5"/>
<text text-anchor="middle" x="757" y="-477.5" font-family="Helvetica,sans-Serif" font-size="10.00">itkOptimizerParameters.h</text>
</a>
</g>
</g>
<!-- Node2 -->
<g id="node2" class="node">
<title>Node2</title>
<g id="a_node2"><a xlink:href="itkArray_8h.html" target="_top" xlink:title=" ">
<polygon fill="white" stroke="black" points="366.5,-358.5 366.5,-377.5 429.5,-377.5 429.5,-358.5 366.5,-358.5"/>
<text text-anchor="middle" x="398" y="-365.5" font-family="Helvetica,sans-Serif" font-size="10.00">itkArray.h</text>
</a>
</g>
</g>
<!-- Node1&#45;&gt;Node2 -->
<g id="edge1" class="edge">
<title>Node1&#45;&gt;Node2</title>
<path fill="none" stroke="midnightblue" d="M729.13,-470.46C665.25,-450.89 508.2,-402.77 435.74,-380.57"/>
<polygon fill="midnightblue" stroke="midnightblue" points="436.69,-377.19 426.1,-377.61 434.64,-383.89 436.69,-377.19"/>
</g>
<!-- Node8 -->
<g id="node8" class="node">
<title>Node8</title>
<g id="a_node8"><a xlink:href="itkOptimizerParametersHelper_8h.html" target="_top" xlink:title=" ">
<polygon fill="white" stroke="black" points="670.5,-414.5 670.5,-433.5 843.5,-433.5 843.5,-414.5 670.5,-414.5"/>
<text text-anchor="middle" x="757" y="-421.5" font-family="Helvetica,sans-Serif" font-size="10.00">itkOptimizerParametersHelper.h</text>
</a>
</g>
</g>
<!-- Node1&#45;&gt;Node8 -->
<g id="edge7" class="edge">
<title>Node1&#45;&gt;Node8</title>
<path fill="none" stroke="midnightblue" d="M757,-470.08C757,-463.01 757,-452.86 757,-443.99"/>
<polygon fill="midnightblue" stroke="midnightblue" points="760.5,-443.75 757,-433.75 753.5,-443.75 760.5,-443.75"/>
</g>
<!-- Node31 -->
<g id="node31" class="node">
<title>Node31</title>
<g id="a_node31"><a xlink:title=" ">
<polygon fill="white" stroke="#bfbfbf" points="1060,-224.5 1060,-243.5 1118,-243.5 1118,-224.5 1060,-224.5"/>
<text text-anchor="middle" x="1089" y="-231.5" font-family="Helvetica,sans-Serif" font-size="10.00">memory</text>
</a>
</g>
</g>
<!-- Node1&#45;&gt;Node31 -->
<g id="edge45" class="edge">
<title>Node1&#45;&gt;Node31</title>
<path fill="none" stroke="midnightblue" d="M781.37,-470.4C833.47,-451.02 957.25,-399.46 1035,-322 1055.62,-301.46 1071.94,-271.62 1081.04,-252.77"/>
<polygon fill="midnightblue" stroke="midnightblue" points="1084.28,-254.1 1085.33,-243.55 1077.94,-251.14 1084.28,-254.1"/>
</g>
<!-- Node3 -->
<g id="node3" class="node">
<title>Node3</title>
<g id="a_node3"><a xlink:href="itkMacro_8h.html" target="_top" xlink:title=" ">
<polygon fill="white" stroke="black" points="950,-0.5 950,-19.5 1018,-19.5 1018,-0.5 950,-0.5"/>
<text text-anchor="middle" x="984" y="-7.5" font-family="Helvetica,sans-Serif" font-size="10.00">itkMacro.h</text>
</a>
</g>
</g>
<!-- Node2&#45;&gt;Node3 -->
<g id="edge2" class="edge">
<title>Node2&#45;&gt;Node3</title>
<path fill="none" stroke="midnightblue" d="M429.53,-360.88C452.18,-354.83 481.67,-343.29 499,-322 523.99,-291.31 518,-274.58 518,-235 518,-235 518,-235 518,-121 518,-34.86 823.4,-16.1 939.73,-12.08"/>
<polygon fill="midnightblue" stroke="midnightblue" points="939.85,-15.57 949.73,-11.75 939.63,-8.58 939.85,-15.57"/>
</g>
<!-- Node4 -->
<g id="node4" class="node">
<title>Node4</title>
<g id="a_node4"><a xlink:title=" ">
<polygon fill="white" stroke="#bfbfbf" points="0,-291.5 0,-310.5 82,-310.5 82,-291.5 0,-291.5"/>
<text text-anchor="middle" x="41" y="-298.5" font-family="Helvetica,sans-Serif" font-size="10.00">vxl_version.h</text>
</a>
</g>
</g>
<!-- Node2&#45;&gt;Node4 -->
<g id="edge3" class="edge">
<title>Node2&#45;&gt;Node4</title>
<path fill="none" stroke="midnightblue" d="M366.12,-364.81C309.79,-360.38 189.31,-348.47 91,-322 83.84,-320.07 76.32,-317.42 69.35,-314.68"/>
<polygon fill="midnightblue" stroke="midnightblue" points="70.22,-311.25 59.64,-310.67 67.55,-317.72 70.22,-311.25"/>
</g>
<!-- Node5 -->
<g id="node5" class="node">
<title>Node5</title>
<g id="a_node5"><a xlink:title=" ">
<polygon fill="white" stroke="#bfbfbf" points="100,-291.5 100,-310.5 194,-310.5 194,-291.5 100,-291.5"/>
<text text-anchor="middle" x="147" y="-298.5" font-family="Helvetica,sans-Serif" font-size="10.00">vnl/vnl_vector.h</text>
</a>
</g>
</g>
<!-- Node2&#45;&gt;Node5 -->
<g id="edge4" class="edge">
<title>Node2&#45;&gt;Node5</title>
<path fill="none" stroke="midnightblue" d="M366.3,-360.87C327.47,-353.08 259.85,-338.65 203,-322 195.06,-319.67 186.6,-316.84 178.73,-314.05"/>
<polygon fill="midnightblue" stroke="midnightblue" points="179.74,-310.7 169.15,-310.58 177.36,-317.28 179.74,-310.7"/>
</g>
<!-- Node6 -->
<g id="node6" class="node">
<title>Node6</title>
<g id="a_node6"><a xlink:title=" ">
<polygon fill="white" stroke="#bfbfbf" points="212.5,-291.5 212.5,-310.5 287.5,-310.5 287.5,-291.5 212.5,-291.5"/>
<text text-anchor="middle" x="250" y="-298.5" font-family="Helvetica,sans-Serif" font-size="10.00">itkArray.hxx</text>
</a>
</g>
</g>
<!-- Node2&#45;&gt;Node6 -->
<g id="edge5" class="edge">
<title>Node2&#45;&gt;Node6</title>
<path fill="none" stroke="midnightblue" d="M378.35,-358.37C352.91,-347.2 308.4,-327.65 279.05,-314.76"/>
<polygon fill="midnightblue" stroke="midnightblue" points="280.3,-311.48 269.73,-310.67 277.48,-317.89 280.3,-311.48"/>
</g>
<!-- Node7 -->
<g id="node7" class="node">
<title>Node7</title>
<g id="a_node7"><a xlink:title=" ">
<polygon fill="white" stroke="#bfbfbf" points="305.5,-280.5 305.5,-321.5 490.5,-321.5 490.5,-280.5 305.5,-280.5"/>
<text text-anchor="start" x="313.5" y="-309.5" font-family="Helvetica,sans-Serif" font-size="10.00">/work/ITK/Modules/Core</text>
<text text-anchor="start" x="313.5" y="-298.5" font-family="Helvetica,sans-Serif" font-size="10.00">/Common/include/itkNumericTraits</text>
<text text-anchor="middle" x="398" y="-287.5" font-family="Helvetica,sans-Serif" font-size="10.00">ArrayPixel.h</text>
</a>
</g>
</g>
<!-- Node2&#45;&gt;Node7 -->
<g id="edge6" class="edge">
<title>Node2&#45;&gt;Node7</title>
<path fill="none" stroke="midnightblue" d="M398,-358.23C398,-351.36 398,-341.38 398,-331.73"/>
<polygon fill="midnightblue" stroke="midnightblue" points="401.5,-331.54 398,-321.54 394.5,-331.54 401.5,-331.54"/>
</g>
<!-- Node8&#45;&gt;Node2 -->
<g id="edge44" class="edge">
<title>Node8&#45;&gt;Node2</title>
<path fill="none" stroke="midnightblue" d="M700.12,-414.44C627.64,-403.54 504.07,-384.95 439.72,-375.28"/>
<polygon fill="midnightblue" stroke="midnightblue" points="439.96,-371.77 429.55,-373.75 438.92,-378.69 439.96,-371.77"/>
</g>
<!-- Node9 -->
<g id="node9" class="node">
<title>Node9</title>
<g id="a_node9"><a xlink:href="itkObject_8h.html" target="_top" xlink:title=" ">
<polygon fill="white" stroke="black" points="785,-358.5 785,-377.5 855,-377.5 855,-358.5 785,-358.5"/>
<text text-anchor="middle" x="820" y="-365.5" font-family="Helvetica,sans-Serif" font-size="10.00">itkObject.h</text>
</a>
</g>
</g>
<!-- Node8&#45;&gt;Node9 -->
<g id="edge8" class="edge">
<title>Node8&#45;&gt;Node9</title>
<path fill="none" stroke="midnightblue" d="M767.12,-414.32C776.53,-406.26 790.74,-394.08 802.07,-384.37"/>
<polygon fill="midnightblue" stroke="midnightblue" points="804.38,-387 809.69,-377.83 799.82,-381.68 804.38,-387"/>
</g>
<!-- Node10 -->
<g id="node10" class="node">
<title>Node10</title>
<g id="a_node10"><a xlink:href="itkLightObject_8h.html" target="_top" xlink:title=" ">
<polygon fill="white" stroke="black" points="739,-168.5 739,-187.5 833,-187.5 833,-168.5 739,-168.5"/>
<text text-anchor="middle" x="786" y="-175.5" font-family="Helvetica,sans-Serif" font-size="10.00">itkLightObject.h</text>
</a>
</g>
</g>
<!-- Node9&#45;&gt;Node10 -->
<g id="edge9" class="edge">
<title>Node9&#45;&gt;Node10</title>
<path fill="none" stroke="midnightblue" d="M815.11,-358.31C810.33,-349.44 803.17,-335.15 799,-322 785.7,-280.06 784.51,-268 785,-224 785.1,-215.4 785.29,-205.87 785.49,-197.8"/>
<polygon fill="midnightblue" stroke="midnightblue" points="788.99,-197.71 785.75,-187.63 781.99,-197.53 788.99,-197.71"/>
</g>
<!-- Node21 -->
<g id="node21" class="node">
<title>Node21</title>
<g id="a_node21"><a xlink:href="itkSingletonMacro_8h.html" target="_top" xlink:title=" ">
<polygon fill="white" stroke="black" points="1012,-56.5 1012,-75.5 1126,-75.5 1126,-56.5 1012,-56.5"/>
<text text-anchor="middle" x="1069" y="-63.5" font-family="Helvetica,sans-Serif" font-size="10.00">itkSingletonMacro.h</text>
</a>
</g>
</g>
<!-- Node9&#45;&gt;Node21 -->
<g id="edge42" class="edge">
<title>Node9&#45;&gt;Node21</title>
<path fill="none" stroke="midnightblue" d="M855.05,-364.58C898.92,-360.47 975.53,-349.67 1035,-322 1091.83,-295.55 1146,-297.68 1146,-235 1146,-235 1146,-235 1146,-177 1146,-136.93 1111.29,-101.08 1088.47,-81.84"/>
<polygon fill="midnightblue" stroke="midnightblue" points="1090.67,-79.11 1080.69,-75.53 1086.26,-84.55 1090.67,-79.11"/>
</g>
<!-- Node24 -->
<g id="node24" class="node">
<title>Node24</title>
<g id="a_node24"><a xlink:href="itkEventObject_8h.html" target="_top" xlink:title=" ">
<polygon fill="white" stroke="black" points="546,-168.5 546,-187.5 644,-187.5 644,-168.5 546,-168.5"/>
<text text-anchor="middle" x="595" y="-175.5" font-family="Helvetica,sans-Serif" font-size="10.00">itkEventObject.h</text>
</a>
</g>
</g>
<!-- Node9&#45;&gt;Node24 -->
<g id="edge30" class="edge">
<title>Node9&#45;&gt;Node24</title>
<path fill="none" stroke="midnightblue" d="M784.95,-360.29C731.26,-347.91 630.34,-315.88 587,-244 578.49,-229.88 582.19,-210.9 586.99,-197.09"/>
<polygon fill="midnightblue" stroke="midnightblue" points="590.28,-198.3 590.7,-187.71 583.77,-195.72 590.28,-198.3"/>
</g>
<!-- Node25 -->
<g id="node25" class="node">
<title>Node25</title>
<g id="a_node25"><a xlink:href="itkMetaDataDictionary_8h.html" target="_top" xlink:title=" ">
<polygon fill="white" stroke="black" points="807.5,-291.5 807.5,-310.5 942.5,-310.5 942.5,-291.5 807.5,-291.5"/>
<text text-anchor="middle" x="875" y="-298.5" font-family="Helvetica,sans-Serif" font-size="10.00">itkMetaDataDictionary.h</text>
</a>
</g>
</g>
<!-- Node9&#45;&gt;Node25 -->
<g id="edge32" class="edge">
<title>Node9&#45;&gt;Node25</title>
<path fill="none" stroke="midnightblue" d="M827.42,-358.23C835.99,-348.1 850.3,-331.19 860.99,-318.56"/>
<polygon fill="midnightblue" stroke="midnightblue" points="863.91,-320.52 867.7,-310.63 858.57,-316 863.91,-320.52"/>
</g>
<!-- Node32 -->
<g id="node32" class="node">
<title>Node32</title>
<g id="a_node32"><a xlink:title=" ">
<polygon fill="white" stroke="#bfbfbf" points="960.5,-291.5 960.5,-310.5 1025.5,-310.5 1025.5,-291.5 960.5,-291.5"/>
<text text-anchor="middle" x="993" y="-298.5" font-family="Helvetica,sans-Serif" font-size="10.00">functional</text>
</a>
</g>
</g>
<!-- Node9&#45;&gt;Node32 -->
<g id="edge43" class="edge">
<title>Node9&#45;&gt;Node32</title>
<path fill="none" stroke="midnightblue" d="M848.45,-358.44C875.44,-350.05 916.97,-336.45 952,-322 957,-319.94 962.24,-317.56 967.25,-315.17"/>
<polygon fill="midnightblue" stroke="midnightblue" points="969.02,-318.2 976.46,-310.65 965.94,-311.91 969.02,-318.2"/>
</g>
<!-- Node10&#45;&gt;Node3 -->
<g id="edge10" class="edge">
<title>Node10&#45;&gt;Node3</title>
<path fill="none" stroke="midnightblue" d="M833.23,-169.47C861.87,-163.12 897.98,-151.77 925,-132 959.15,-107.01 974.5,-56.84 980.57,-29.61"/>
<polygon fill="midnightblue" stroke="midnightblue" points="984,-30.29 982.57,-19.79 977.15,-28.89 984,-30.29"/>
</g>
<!-- Node11 -->
<g id="node11" class="node">
<title>Node11</title>
<g id="a_node11"><a xlink:href="itkSmartPointer_8h.html" target="_top" xlink:title=" ">
<polygon fill="white" stroke="black" points="814.5,-112.5 814.5,-131.5 915.5,-131.5 915.5,-112.5 814.5,-112.5"/>
<text text-anchor="middle" x="865" y="-119.5" font-family="Helvetica,sans-Serif" font-size="10.00">itkSmartPointer.h</text>
</a>
</g>
</g>
<!-- Node10&#45;&gt;Node11 -->
<g id="edge11" class="edge">
<title>Node10&#45;&gt;Node11</title>
<path fill="none" stroke="midnightblue" d="M798.69,-168.32C810.9,-159.98 829.58,-147.21 844,-137.35"/>
<polygon fill="midnightblue" stroke="midnightblue" points="846.06,-140.19 852.34,-131.65 842.11,-134.41 846.06,-140.19"/>
</g>
<!-- Node12 -->
<g id="node12" class="node">
<title>Node12</title>
<g id="a_node12"><a xlink:title=" ">
<polygon fill="white" stroke="#bfbfbf" points="642,-56.5 642,-75.5 702,-75.5 702,-56.5 642,-56.5"/>
<text text-anchor="middle" x="672" y="-63.5" font-family="Helvetica,sans-Serif" font-size="10.00">iostream</text>
</a>
</g>
</g>
<!-- Node10&#45;&gt;Node12 -->
<g id="edge28" class="edge">
<title>Node10&#45;&gt;Node12</title>
<path fill="none" stroke="midnightblue" d="M785.67,-168.37C784.71,-154.84 781.04,-128.46 767,-112 752.78,-95.33 731,-84.4 711.88,-77.49"/>
<polygon fill="midnightblue" stroke="midnightblue" points="712.77,-74.1 702.18,-74.23 710.54,-80.73 712.77,-74.1"/>
</g>
<!-- Node16 -->
<g id="node16" class="node">
<title>Node16</title>
<g id="a_node16"><a xlink:href="itkTimeStamp_8h.html" target="_top" xlink:title=" ">
<polygon fill="white" stroke="black" points="1174.5,-112.5 1174.5,-131.5 1269.5,-131.5 1269.5,-112.5 1174.5,-112.5"/>
<text text-anchor="middle" x="1222" y="-119.5" font-family="Helvetica,sans-Serif" font-size="10.00">itkTimeStamp.h</text>
</a>
</g>
</g>
<!-- Node10&#45;&gt;Node16 -->
<g id="edge16" class="edge">
<title>Node10&#45;&gt;Node16</title>
<path fill="none" stroke="midnightblue" d="M833.07,-171.17C913.56,-161.2 1077.35,-140.91 1164.48,-130.12"/>
<polygon fill="midnightblue" stroke="midnightblue" points="1164.97,-133.59 1174.46,-128.89 1164.11,-126.64 1164.97,-133.59"/>
</g>
<!-- Node20 -->
<g id="node20" class="node">
<title>Node20</title>
<g id="a_node20"><a xlink:title=" ">
<polygon fill="white" stroke="#bfbfbf" points="1280,-56.5 1280,-75.5 1330,-75.5 1330,-56.5 1280,-56.5"/>
<text text-anchor="middle" x="1305" y="-63.5" font-family="Helvetica,sans-Serif" font-size="10.00">atomic</text>
</a>
</g>
</g>
<!-- Node10&#45;&gt;Node20 -->
<g id="edge27" class="edge">
<title>Node10&#45;&gt;Node20</title>
<path fill="none" stroke="midnightblue" d="M833.12,-175.47C949.51,-171.31 1243.73,-158.3 1279,-132 1293.44,-121.23 1299.88,-101.14 1302.73,-86.14"/>
<polygon fill="midnightblue" stroke="midnightblue" points="1306.25,-86.3 1304.3,-75.89 1299.33,-85.25 1306.25,-86.3"/>
</g>
<!-- Node22 -->
<g id="node22" class="node">
<title>Node22</title>
<g id="a_node22"><a xlink:href="itkIndent_8h.html" target="_top" xlink:title=" ">
<polygon fill="white" stroke="black" points="574.5,-112.5 574.5,-131.5 643.5,-131.5 643.5,-112.5 574.5,-112.5"/>
<text text-anchor="middle" x="609" y="-119.5" font-family="Helvetica,sans-Serif" font-size="10.00">itkIndent.h</text>
</a>
</g>
</g>
<!-- Node10&#45;&gt;Node22 -->
<g id="edge24" class="edge">
<title>Node10&#45;&gt;Node22</title>
<path fill="none" stroke="midnightblue" d="M757.95,-168.44C727.92,-159.28 680.09,-144.69 646.76,-134.52"/>
<polygon fill="midnightblue" stroke="midnightblue" points="647.5,-131.09 636.91,-131.52 645.46,-137.78 647.5,-131.09"/>
</g>
<!-- Node23 -->
<g id="node23" class="node">
<title>Node23</title>
<g id="a_node23"><a xlink:title=" ">
<polygon fill="white" stroke="#bfbfbf" points="700.5,-112.5 700.5,-131.5 757.5,-131.5 757.5,-112.5 700.5,-112.5"/>
<text text-anchor="middle" x="729" y="-119.5" font-family="Helvetica,sans-Serif" font-size="10.00">typeinfo</text>
</a>
</g>
</g>
<!-- Node10&#45;&gt;Node23 -->
<g id="edge29" class="edge">
<title>Node10&#45;&gt;Node23</title>
<path fill="none" stroke="midnightblue" d="M776.84,-168.32C768.5,-160.42 755.97,-148.55 745.82,-138.94"/>
<polygon fill="midnightblue" stroke="midnightblue" points="747.99,-136.17 738.32,-131.83 743.18,-141.25 747.99,-136.17"/>
</g>
<!-- Node11&#45;&gt;Node12 -->
<g id="edge12" class="edge">
<title>Node11&#45;&gt;Node12</title>
<path fill="none" stroke="midnightblue" d="M834.42,-112.44C801.29,-103.17 748.3,-88.35 711.91,-78.17"/>
<polygon fill="midnightblue" stroke="midnightblue" points="712.69,-74.75 702.12,-75.43 710.81,-81.49 712.69,-74.75"/>
</g>
<!-- Node13 -->
<g id="node13" class="node">
<title>Node13</title>
<g id="a_node13"><a xlink:title=" ">
<polygon fill="white" stroke="#bfbfbf" points="823.5,-56.5 823.5,-75.5 868.5,-75.5 868.5,-56.5 823.5,-56.5"/>
<text text-anchor="middle" x="846" y="-63.5" font-family="Helvetica,sans-Serif" font-size="10.00">utility</text>
</a>
</g>
</g>
<!-- Node11&#45;&gt;Node13 -->
<g id="edge13" class="edge">
<title>Node11&#45;&gt;Node13</title>
<path fill="none" stroke="midnightblue" d="M861.86,-112.08C859.32,-104.85 855.64,-94.41 852.47,-85.4"/>
<polygon fill="midnightblue" stroke="midnightblue" points="855.7,-84.02 849.08,-75.75 849.1,-86.35 855.7,-84.02"/>
</g>
<!-- Node14 -->
<g id="node14" class="node">
<title>Node14</title>
<g id="a_node14"><a xlink:title=" ">
<polygon fill="white" stroke="#bfbfbf" points="886.5,-56.5 886.5,-75.5 955.5,-75.5 955.5,-56.5 886.5,-56.5"/>
<text text-anchor="middle" x="921" y="-63.5" font-family="Helvetica,sans-Serif" font-size="10.00">type_traits</text>
</a>
</g>
</g>
<!-- Node11&#45;&gt;Node14 -->
<g id="edge14" class="edge">
<title>Node11&#45;&gt;Node14</title>
<path fill="none" stroke="midnightblue" d="M874,-112.32C882.19,-104.42 894.51,-92.55 904.47,-82.94"/>
<polygon fill="midnightblue" stroke="midnightblue" points="907.07,-85.29 911.84,-75.83 902.21,-80.26 907.07,-85.29"/>
</g>
<!-- Node15 -->
<g id="node15" class="node">
<title>Node15</title>
<g id="a_node15"><a xlink:title=" ">
<polygon fill="white" stroke="#bfbfbf" points="720.5,-56.5 720.5,-75.5 805.5,-75.5 805.5,-56.5 720.5,-56.5"/>
<text text-anchor="middle" x="763" y="-63.5" font-family="Helvetica,sans-Serif" font-size="10.00">itkConfigure.h</text>
</a>
</g>
</g>
<!-- Node11&#45;&gt;Node15 -->
<g id="edge15" class="edge">
<title>Node11&#45;&gt;Node15</title>
<path fill="none" stroke="midnightblue" d="M848.61,-112.32C832.33,-103.7 807.13,-90.36 788.28,-80.39"/>
<polygon fill="midnightblue" stroke="midnightblue" points="789.82,-77.24 779.35,-75.65 786.55,-83.43 789.82,-77.24"/>
</g>
<!-- Node16&#45;&gt;Node3 -->
<g id="edge17" class="edge">
<title>Node16&#45;&gt;Node3</title>
<path fill="none" stroke="midnightblue" d="M1212.58,-112.16C1197.38,-98.34 1166,-71.58 1135,-56 1100.96,-38.9 1059.27,-27.08 1028.33,-19.87"/>
<polygon fill="midnightblue" stroke="midnightblue" points="1028.8,-16.39 1018.27,-17.6 1027.26,-23.21 1028.8,-16.39"/>
</g>
<!-- Node17 -->
<g id="node17" class="node">
<title>Node17</title>
<g id="a_node17"><a xlink:href="itkIntTypes_8h.html" target="_top" xlink:title=" ">
<polygon fill="white" stroke="black" points="1182.5,-56.5 1182.5,-75.5 1261.5,-75.5 1261.5,-56.5 1182.5,-56.5"/>
<text text-anchor="middle" x="1222" y="-63.5" font-family="Helvetica,sans-Serif" font-size="10.00">itkIntTypes.h</text>
</a>
</g>
</g>
<!-- Node16&#45;&gt;Node17 -->
<g id="edge18" class="edge">
<title>Node16&#45;&gt;Node17</title>
<path fill="none" stroke="midnightblue" d="M1222,-112.08C1222,-105.01 1222,-94.86 1222,-85.99"/>
<polygon fill="midnightblue" stroke="midnightblue" points="1225.5,-85.75 1222,-75.75 1218.5,-85.75 1225.5,-85.75"/>
</g>
<!-- Node16&#45;&gt;Node20 -->
<g id="edge22" class="edge">
<title>Node16&#45;&gt;Node20</title>
<path fill="none" stroke="midnightblue" d="M1235.34,-112.32C1248.16,-103.98 1267.78,-91.21 1282.94,-81.35"/>
<polygon fill="midnightblue" stroke="midnightblue" points="1285.22,-84.04 1291.7,-75.65 1281.41,-78.17 1285.22,-84.04"/>
</g>
<!-- Node16&#45;&gt;Node21 -->
<g id="edge23" class="edge">
<title>Node16&#45;&gt;Node21</title>
<path fill="none" stroke="midnightblue" d="M1197.76,-112.44C1172.13,-103.4 1131.51,-89.06 1102.76,-78.92"/>
<polygon fill="midnightblue" stroke="midnightblue" points="1103.72,-75.54 1093.13,-75.52 1101.39,-82.15 1103.72,-75.54"/>
</g>
<!-- Node17&#45;&gt;Node3 -->
<g id="edge19" class="edge">
<title>Node17&#45;&gt;Node3</title>
<path fill="none" stroke="midnightblue" d="M1184.29,-56.44C1141.85,-46.81 1072.99,-31.19 1028.1,-21"/>
<polygon fill="midnightblue" stroke="midnightblue" points="1028.59,-17.53 1018.06,-18.73 1027.04,-24.36 1028.59,-17.53"/>
</g>
<!-- Node18 -->
<g id="node18" class="node">
<title>Node18</title>
<g id="a_node18"><a xlink:title=" ">
<polygon fill="white" stroke="#bfbfbf" points="1231,-0.5 1231,-19.5 1281,-19.5 1281,-0.5 1231,-0.5"/>
<text text-anchor="middle" x="1256" y="-7.5" font-family="Helvetica,sans-Serif" font-size="10.00">cstdint</text>
</a>
</g>
</g>
<!-- Node17&#45;&gt;Node18 -->
<g id="edge20" class="edge">
<title>Node17&#45;&gt;Node18</title>
<path fill="none" stroke="midnightblue" d="M1227.61,-56.08C1232.37,-48.53 1239.32,-37.49 1245.15,-28.23"/>
<polygon fill="midnightblue" stroke="midnightblue" points="1248.12,-30.08 1250.49,-19.75 1242.2,-26.35 1248.12,-30.08"/>
</g>
<!-- Node19 -->
<g id="node19" class="node">
<title>Node19</title>
<g id="a_node19"><a xlink:title=" ">
<polygon fill="white" stroke="#bfbfbf" points="1163,-0.5 1163,-19.5 1213,-19.5 1213,-0.5 1163,-0.5"/>
<text text-anchor="middle" x="1188" y="-7.5" font-family="Helvetica,sans-Serif" font-size="10.00">climits</text>
</a>
</g>
</g>
<!-- Node17&#45;&gt;Node19 -->
<g id="edge21" class="edge">
<title>Node17&#45;&gt;Node19</title>
<path fill="none" stroke="midnightblue" d="M1216.39,-56.08C1211.63,-48.53 1204.68,-37.49 1198.85,-28.23"/>
<polygon fill="midnightblue" stroke="midnightblue" points="1201.8,-26.35 1193.51,-19.75 1195.88,-30.08 1201.8,-26.35"/>
</g>
<!-- Node22&#45;&gt;Node3 -->
<g id="edge25" class="edge">
<title>Node22&#45;&gt;Node3</title>
<path fill="none" stroke="midnightblue" d="M609.48,-112.2C610.76,-97.93 615.49,-69.93 633,-56 679.5,-18.99 856.2,-12.22 939.74,-11.12"/>
<polygon fill="midnightblue" stroke="midnightblue" points="939.96,-14.62 949.93,-11.01 939.89,-7.62 939.96,-14.62"/>
</g>
<!-- Node22&#45;&gt;Node12 -->
<g id="edge26" class="edge">
<title>Node22&#45;&gt;Node12</title>
<path fill="none" stroke="midnightblue" d="M619.12,-112.32C628.53,-104.26 642.74,-92.08 654.07,-82.37"/>
<polygon fill="midnightblue" stroke="midnightblue" points="656.38,-85 661.69,-75.83 651.82,-79.68 656.38,-85"/>
</g>
<!-- Node24&#45;&gt;Node22 -->
<g id="edge31" class="edge">
<title>Node24&#45;&gt;Node22</title>
<path fill="none" stroke="midnightblue" d="M597.31,-168.08C599.17,-160.93 601.84,-150.64 604.15,-141.69"/>
<polygon fill="midnightblue" stroke="midnightblue" points="607.61,-142.31 606.73,-131.75 600.83,-140.55 607.61,-142.31"/>
</g>
<!-- Node26 -->
<g id="node26" class="node">
<title>Node26</title>
<g id="a_node26"><a xlink:href="itkMetaDataObjectBase_8h.html" target="_top" xlink:title=" ">
<polygon fill="white" stroke="black" points="596,-224.5 596,-243.5 738,-243.5 738,-224.5 596,-224.5"/>
<text text-anchor="middle" x="667" y="-231.5" font-family="Helvetica,sans-Serif" font-size="10.00">itkMetaDataObjectBase.h</text>
</a>
</g>
</g>
<!-- Node25&#45;&gt;Node26 -->
<g id="edge33" class="edge">
<title>Node25&#45;&gt;Node26</title>
<path fill="none" stroke="midnightblue" d="M847.38,-291.37C810.52,-279.85 745.15,-259.42 704.05,-246.58"/>
<polygon fill="midnightblue" stroke="midnightblue" points="704.99,-243.21 694.4,-243.56 702.9,-249.89 704.99,-243.21"/>
</g>
<!-- Node27 -->
<g id="node27" class="node">
<title>Node27</title>
<g id="a_node27"><a xlink:title=" ">
<polygon fill="white" stroke="#bfbfbf" points="856,-224.5 856,-243.5 920,-243.5 920,-224.5 856,-224.5"/>
<text text-anchor="middle" x="888" y="-231.5" font-family="Helvetica,sans-Serif" font-size="10.00">algorithm</text>
</a>
</g>
</g>
<!-- Node25&#45;&gt;Node27 -->
<g id="edge37" class="edge">
<title>Node25&#45;&gt;Node27</title>
<path fill="none" stroke="midnightblue" d="M876.75,-291.23C878.66,-281.68 881.78,-266.12 884.24,-253.78"/>
<polygon fill="midnightblue" stroke="midnightblue" points="887.75,-254.12 886.27,-243.63 880.88,-252.75 887.75,-254.12"/>
</g>
<!-- Node28 -->
<g id="node28" class="node">
<title>Node28</title>
<g id="a_node28"><a xlink:title=" ">
<polygon fill="white" stroke="#bfbfbf" points="938.5,-224.5 938.5,-243.5 985.5,-243.5 985.5,-224.5 938.5,-224.5"/>
<text text-anchor="middle" x="962" y="-231.5" font-family="Helvetica,sans-Serif" font-size="10.00">vector</text>
</a>
</g>
</g>
<!-- Node25&#45;&gt;Node28 -->
<g id="edge38" class="edge">
<title>Node25&#45;&gt;Node28</title>
<path fill="none" stroke="midnightblue" d="M886.73,-291.23C900.95,-280.61 925.13,-262.55 942.24,-249.76"/>
<polygon fill="midnightblue" stroke="midnightblue" points="944.54,-252.42 950.45,-243.63 940.35,-246.81 944.54,-252.42"/>
</g>
<!-- Node29 -->
<g id="node29" class="node">
<title>Node29</title>
<g id="a_node29"><a xlink:title=" ">
<polygon fill="white" stroke="#bfbfbf" points="1004,-224.5 1004,-243.5 1042,-243.5 1042,-224.5 1004,-224.5"/>
<text text-anchor="middle" x="1023" y="-231.5" font-family="Helvetica,sans-Serif" font-size="10.00">map</text>
</a>
</g>
</g>
<!-- Node25&#45;&gt;Node29 -->
<g id="edge39" class="edge">
<title>Node25&#45;&gt;Node29</title>
<path fill="none" stroke="midnightblue" d="M894.65,-291.37C920.23,-280.14 965.1,-260.43 994.43,-247.55"/>
<polygon fill="midnightblue" stroke="midnightblue" points="995.99,-250.69 1003.74,-243.46 993.17,-244.28 995.99,-250.69"/>
</g>
<!-- Node30 -->
<g id="node30" class="node">
<title>Node30</title>
<g id="a_node30"><a xlink:title=" ">
<polygon fill="white" stroke="#bfbfbf" points="794,-224.5 794,-243.5 838,-243.5 838,-224.5 794,-224.5"/>
<text text-anchor="middle" x="816" y="-231.5" font-family="Helvetica,sans-Serif" font-size="10.00">string</text>
</a>
</g>
</g>
<!-- Node25&#45;&gt;Node30 -->
<g id="edge40" class="edge">
<title>Node25&#45;&gt;Node30</title>
<path fill="none" stroke="midnightblue" d="M867.04,-291.23C857.75,-281 842.2,-263.86 830.7,-251.19"/>
<polygon fill="midnightblue" stroke="midnightblue" points="833.14,-248.68 823.83,-243.63 827.96,-253.38 833.14,-248.68"/>
</g>
<!-- Node25&#45;&gt;Node31 -->
<g id="edge41" class="edge">
<title>Node25&#45;&gt;Node31</title>
<path fill="none" stroke="midnightblue" d="M903.42,-291.37C941.42,-279.83 1008.88,-259.34 1051.15,-246.5"/>
<polygon fill="midnightblue" stroke="midnightblue" points="1052.25,-249.82 1060.81,-243.56 1050.22,-243.12 1052.25,-249.82"/>
</g>
<!-- Node26&#45;&gt;Node10 -->
<g id="edge34" class="edge">
<title>Node26&#45;&gt;Node10</title>
<path fill="none" stroke="midnightblue" d="M685.86,-224.44C705.27,-215.64 735.73,-201.81 757.96,-191.72"/>
<polygon fill="midnightblue" stroke="midnightblue" points="759.57,-194.84 767.23,-187.52 756.68,-188.46 759.57,-194.84"/>
</g>
<!-- Node26&#45;&gt;Node12 -->
<g id="edge36" class="edge">
<title>Node26&#45;&gt;Node12</title>
<path fill="none" stroke="midnightblue" d="M667.27,-224.08C668.06,-197.95 670.37,-121.21 671.44,-85.58"/>
<polygon fill="midnightblue" stroke="midnightblue" points="674.94,-85.67 671.74,-75.57 667.94,-85.46 674.94,-85.67"/>
</g>
<!-- Node26&#45;&gt;Node23 -->
<g id="edge35" class="edge">
<title>Node26&#45;&gt;Node23</title>
<path fill="none" stroke="midnightblue" d="M671.87,-224.37C682.05,-206.3 705.79,-164.18 719.24,-140.31"/>
<polygon fill="midnightblue" stroke="midnightblue" points="722.3,-142.02 724.16,-131.59 716.2,-138.58 722.3,-142.02"/>
</g>
</g>
</svg>
