<?xml version="1.0" encoding="UTF-8" standalone="no"?>
<!DOCTYPE svg PUBLIC "-//W3C//DTD SVG 1.1//EN"
 "http://www.w3.org/Graphics/SVG/1.1/DTD/svg11.dtd">
<!-- Generated by graphviz version 2.43.0 (0)
 -->
<!-- Title: itkProgressReporter.h Pages: 1 -->
<svg width="1988pt" height="711pt"
 viewBox="0.00 0.00 1987.50 711.00" xmlns="http://www.w3.org/2000/svg" xmlns:xlink="http://www.w3.org/1999/xlink">
<g id="graph0" class="graph" transform="scale(1 1) rotate(0) translate(4 707)">
<title>itkProgressReporter.h</title>
<polygon fill="white" stroke="transparent" points="-4,4 -4,-707 1983.5,-707 1983.5,4 -4,4"/>
<!-- Node1 -->
<g id="node1" class="node">
<title>Node1</title>
<g id="a_node1"><a xlink:title=" ">
<polygon fill="#bfbfbf" stroke="black" points="152,-683.5 152,-702.5 274,-702.5 274,-683.5 152,-683.5"/>
<text text-anchor="middle" x="213" y="-690.5" font-family="Helvetica,sans-Serif" font-size="10.00">itkProgressReporter.h</text>
</a>
</g>
</g>
<!-- Node2 -->
<g id="node2" class="node">
<title>Node2</title>
<g id="a_node2"><a xlink:href="itkIntTypes_8h.html" target="_top" xlink:title=" ">
<polygon fill="white" stroke="black" points="239.5,-56.5 239.5,-75.5 318.5,-75.5 318.5,-56.5 239.5,-56.5"/>
<text text-anchor="middle" x="279" y="-63.5" font-family="Helvetica,sans-Serif" font-size="10.00">itkIntTypes.h</text>
</a>
</g>
</g>
<!-- Node1&#45;&gt;Node2 -->
<g id="edge1" class="edge">
<title>Node1&#45;&gt;Node2</title>
<path fill="none" stroke="midnightblue" d="M151.96,-686.3C89.02,-676.67 0,-650.88 0,-582 0,-582 0,-582 0,-177 0,-140.28 19.7,-131.2 51,-112 105.63,-78.49 180.25,-69.24 229.01,-67.05"/>
<polygon fill="midnightblue" stroke="midnightblue" points="229.45,-70.53 239.31,-66.67 229.19,-63.54 229.45,-70.53"/>
</g>
<!-- Node6 -->
<g id="node6" class="node">
<title>Node6</title>
<g id="a_node6"><a xlink:href="itkProcessObject_8h.html" target="_top" xlink:title=" ">
<polygon fill="white" stroke="black" points="461.5,-627.5 461.5,-646.5 568.5,-646.5 568.5,-627.5 461.5,-627.5"/>
<text text-anchor="middle" x="515" y="-634.5" font-family="Helvetica,sans-Serif" font-size="10.00">itkProcessObject.h</text>
</a>
</g>
</g>
<!-- Node1&#45;&gt;Node6 -->
<g id="edge5" class="edge">
<title>Node1&#45;&gt;Node6</title>
<path fill="none" stroke="midnightblue" d="M260.85,-683.44C314.2,-673.9 400.44,-658.48 457.44,-648.29"/>
<polygon fill="midnightblue" stroke="midnightblue" points="458.14,-651.72 467.37,-646.52 456.91,-644.83 458.14,-651.72"/>
</g>
<!-- Node3 -->
<g id="node3" class="node">
<title>Node3</title>
<g id="a_node3"><a xlink:href="itkMacro_8h.html" target="_top" xlink:title=" ">
<polygon fill="white" stroke="black" points="1106,-0.5 1106,-19.5 1174,-19.5 1174,-0.5 1106,-0.5"/>
<text text-anchor="middle" x="1140" y="-7.5" font-family="Helvetica,sans-Serif" font-size="10.00">itkMacro.h</text>
</a>
</g>
</g>
<!-- Node2&#45;&gt;Node3 -->
<g id="edge2" class="edge">
<title>Node2&#45;&gt;Node3</title>
<path fill="none" stroke="midnightblue" d="M318.52,-57.3C321.72,-56.81 324.91,-56.37 328,-56 619.53,-21.29 973.2,-13.28 1095.71,-11.49"/>
<polygon fill="midnightblue" stroke="midnightblue" points="1095.88,-14.99 1105.83,-11.35 1095.78,-7.99 1095.88,-14.99"/>
</g>
<!-- Node4 -->
<g id="node4" class="node">
<title>Node4</title>
<g id="a_node4"><a xlink:title=" ">
<polygon fill="white" stroke="#bfbfbf" points="288,-0.5 288,-19.5 338,-19.5 338,-0.5 288,-0.5"/>
<text text-anchor="middle" x="313" y="-7.5" font-family="Helvetica,sans-Serif" font-size="10.00">cstdint</text>
</a>
</g>
</g>
<!-- Node2&#45;&gt;Node4 -->
<g id="edge3" class="edge">
<title>Node2&#45;&gt;Node4</title>
<path fill="none" stroke="midnightblue" d="M284.61,-56.08C289.37,-48.53 296.32,-37.49 302.15,-28.23"/>
<polygon fill="midnightblue" stroke="midnightblue" points="305.12,-30.08 307.49,-19.75 299.2,-26.35 305.12,-30.08"/>
</g>
<!-- Node5 -->
<g id="node5" class="node">
<title>Node5</title>
<g id="a_node5"><a xlink:title=" ">
<polygon fill="white" stroke="#bfbfbf" points="220,-0.5 220,-19.5 270,-19.5 270,-0.5 220,-0.5"/>
<text text-anchor="middle" x="245" y="-7.5" font-family="Helvetica,sans-Serif" font-size="10.00">climits</text>
</a>
</g>
</g>
<!-- Node2&#45;&gt;Node5 -->
<g id="edge4" class="edge">
<title>Node2&#45;&gt;Node5</title>
<path fill="none" stroke="midnightblue" d="M273.39,-56.08C268.63,-48.53 261.68,-37.49 255.85,-28.23"/>
<polygon fill="midnightblue" stroke="midnightblue" points="258.8,-26.35 250.51,-19.75 252.88,-30.08 258.8,-26.35"/>
</g>
<!-- Node7 -->
<g id="node7" class="node">
<title>Node7</title>
<g id="a_node7"><a xlink:href="itkDataObject_8h.html" target="_top" xlink:title=" ">
<polygon fill="white" stroke="black" points="521.5,-571.5 521.5,-590.5 614.5,-590.5 614.5,-571.5 521.5,-571.5"/>
<text text-anchor="middle" x="568" y="-578.5" font-family="Helvetica,sans-Serif" font-size="10.00">itkDataObject.h</text>
</a>
</g>
</g>
<!-- Node6&#45;&gt;Node7 -->
<g id="edge6" class="edge">
<title>Node6&#45;&gt;Node7</title>
<path fill="none" stroke="midnightblue" d="M523.75,-627.08C531.47,-619.22 542.9,-607.57 552.22,-598.08"/>
<polygon fill="midnightblue" stroke="midnightblue" points="554.9,-600.34 559.41,-590.75 549.91,-595.44 554.9,-600.34"/>
</g>
<!-- Node23 -->
<g id="node23" class="node">
<title>Node23</title>
<g id="a_node23"><a xlink:title=" ">
<polygon fill="white" stroke="#bfbfbf" points="1384,-230 1384,-249 1448,-249 1448,-230 1384,-230"/>
<text text-anchor="middle" x="1416" y="-237" font-family="Helvetica,sans-Serif" font-size="10.00">algorithm</text>
</a>
</g>
</g>
<!-- Node6&#45;&gt;Node23 -->
<g id="edge82" class="edge">
<title>Node6&#45;&gt;Node23</title>
<path fill="none" stroke="midnightblue" d="M568.68,-634.9C757.59,-630.83 1382.25,-615.57 1417,-591 1523.87,-515.44 1450.45,-319.43 1424.26,-258.71"/>
<polygon fill="midnightblue" stroke="midnightblue" points="1427.34,-257.02 1420.1,-249.29 1420.94,-259.85 1427.34,-257.02"/>
</g>
<!-- Node24 -->
<g id="node24" class="node">
<title>Node24</title>
<g id="a_node24"><a xlink:title=" ">
<polygon fill="white" stroke="#bfbfbf" points="245.5,-230 245.5,-249 292.5,-249 292.5,-230 245.5,-230"/>
<text text-anchor="middle" x="269" y="-237" font-family="Helvetica,sans-Serif" font-size="10.00">vector</text>
</a>
</g>
</g>
<!-- Node6&#45;&gt;Node24 -->
<g id="edge79" class="edge">
<title>Node6&#45;&gt;Node24</title>
<path fill="none" stroke="midnightblue" d="M461.17,-628.06C364.79,-610.63 164.89,-559.09 80,-423 32.35,-346.62 170.52,-279.54 236.3,-252.81"/>
<polygon fill="midnightblue" stroke="midnightblue" points="237.83,-255.97 245.83,-249.02 235.24,-249.47 237.83,-255.97"/>
</g>
<!-- Node25 -->
<g id="node25" class="node">
<title>Node25</title>
<g id="a_node25"><a xlink:title=" ">
<polygon fill="white" stroke="#bfbfbf" points="881,-230 881,-249 919,-249 919,-230 881,-230"/>
<text text-anchor="middle" x="900" y="-237" font-family="Helvetica,sans-Serif" font-size="10.00">map</text>
</a>
</g>
</g>
<!-- Node6&#45;&gt;Node25 -->
<g id="edge80" class="edge">
<title>Node6&#45;&gt;Node25</title>
<path fill="none" stroke="midnightblue" d="M568.94,-636.16C704.19,-635.12 1047,-622.91 1047,-526 1047,-526 1047,-526 1047,-468 1047,-374.88 959.04,-289.7 919.2,-255.89"/>
<polygon fill="midnightblue" stroke="midnightblue" points="920.98,-252.82 911.05,-249.12 916.51,-258.2 920.98,-252.82"/>
</g>
<!-- Node32 -->
<g id="node32" class="node">
<title>Node32</title>
<g id="a_node32"><a xlink:href="itkObjectFactory_8h.html" target="_top" xlink:title=" ">
<polygon fill="white" stroke="black" points="389,-515.5 389,-534.5 493,-534.5 493,-515.5 389,-515.5"/>
<text text-anchor="middle" x="441" y="-522.5" font-family="Helvetica,sans-Serif" font-size="10.00">itkObjectFactory.h</text>
</a>
</g>
</g>
<!-- Node6&#45;&gt;Node32 -->
<g id="edge62" class="edge">
<title>Node6&#45;&gt;Node32</title>
<path fill="none" stroke="midnightblue" d="M509.19,-627.37C496.98,-609.22 468.45,-566.8 452.43,-542.99"/>
<polygon fill="midnightblue" stroke="midnightblue" points="455.27,-540.94 446.78,-534.59 449.46,-544.84 455.27,-540.94"/>
</g>
<!-- Node38 -->
<g id="node38" class="node">
<title>Node38</title>
<g id="a_node38"><a xlink:href="itkNumericTraits_8h.html" target="_top" xlink:title=" ">
<polygon fill="white" stroke="black" points="1480,-347.5 1480,-366.5 1586,-366.5 1586,-347.5 1480,-347.5"/>
<text text-anchor="middle" x="1533" y="-354.5" font-family="Helvetica,sans-Serif" font-size="10.00">itkNumericTraits.h</text>
</a>
</g>
</g>
<!-- Node6&#45;&gt;Node38 -->
<g id="edge63" class="edge">
<title>Node6&#45;&gt;Node38</title>
<path fill="none" stroke="midnightblue" d="M568.58,-636.47C759,-637.72 1395.87,-638.3 1473,-591 1501.34,-573.62 1510,-559.24 1510,-526 1510,-526 1510,-526 1510,-468 1510,-435.12 1519.97,-397.86 1526.78,-376.24"/>
<polygon fill="midnightblue" stroke="midnightblue" points="1530.11,-377.3 1529.9,-366.71 1523.46,-375.12 1530.11,-377.3"/>
</g>
<!-- Node46 -->
<g id="node46" class="node">
<title>Node46</title>
<g id="a_node46"><a xlink:href="itkThreadSupport_8h.html" target="_top" xlink:title=" ">
<polygon fill="white" stroke="black" points="1298,-571.5 1298,-590.5 1408,-590.5 1408,-571.5 1298,-571.5"/>
<text text-anchor="middle" x="1353" y="-578.5" font-family="Helvetica,sans-Serif" font-size="10.00">itkThreadSupport.h</text>
</a>
</g>
</g>
<!-- Node6&#45;&gt;Node46 -->
<g id="edge76" class="edge">
<title>Node6&#45;&gt;Node46</title>
<path fill="none" stroke="midnightblue" d="M568.7,-632.54C716.18,-623.04 1127.19,-596.55 1287.65,-586.21"/>
<polygon fill="midnightblue" stroke="midnightblue" points="1288.09,-589.69 1297.85,-585.55 1287.64,-582.7 1288.09,-589.69"/>
</g>
<!-- Node48 -->
<g id="node48" class="node">
<title>Node48</title>
<g id="a_node48"><a xlink:title=" ">
<polygon fill="white" stroke="#bfbfbf" points="28,-571.5 28,-590.5 60,-590.5 60,-571.5 28,-571.5"/>
<text text-anchor="middle" x="44" y="-578.5" font-family="Helvetica,sans-Serif" font-size="10.00">set</text>
</a>
</g>
</g>
<!-- Node6&#45;&gt;Node48 -->
<g id="edge81" class="edge">
<title>Node6&#45;&gt;Node48</title>
<path fill="none" stroke="midnightblue" d="M461.46,-634.82C378.93,-632.08 215.81,-623.01 70.24,-590.75"/>
<polygon fill="midnightblue" stroke="midnightblue" points="70.76,-587.28 60.24,-588.49 69.22,-594.11 70.76,-587.28"/>
</g>
<!-- Node49 -->
<g id="node49" class="node">
<title>Node49</title>
<g id="a_node49"><a xlink:title=" ">
<polygon fill="white" stroke="#bfbfbf" points="78,-571.5 78,-590.5 126,-590.5 126,-571.5 78,-571.5"/>
<text text-anchor="middle" x="102" y="-578.5" font-family="Helvetica,sans-Serif" font-size="10.00">thread</text>
</a>
</g>
</g>
<!-- Node6&#45;&gt;Node49 -->
<g id="edge83" class="edge">
<title>Node6&#45;&gt;Node49</title>
<path fill="none" stroke="midnightblue" d="M461.31,-631.48C388.26,-624.9 253.62,-611.21 140,-591 138.72,-590.77 137.43,-590.53 136.12,-590.27"/>
<polygon fill="midnightblue" stroke="midnightblue" points="136.55,-586.79 126.04,-588.13 135.09,-593.63 136.55,-586.79"/>
</g>
<!-- Node7&#45;&gt;Node3 -->
<g id="edge40" class="edge">
<title>Node7&#45;&gt;Node3</title>
<path fill="none" stroke="midnightblue" d="M614.73,-578.07C778.26,-570.7 1315,-541.11 1315,-470 1315,-470 1315,-470 1315,-121 1315,-59.27 1235.97,-30.83 1184.13,-18.81"/>
<polygon fill="midnightblue" stroke="midnightblue" points="1184.67,-15.35 1174.16,-16.63 1183.17,-22.19 1184.67,-15.35"/>
</g>
<!-- Node8 -->
<g id="node8" class="node">
<title>Node8</title>
<g id="a_node8"><a xlink:href="itkObject_8h.html" target="_top" xlink:title=" ">
<polygon fill="white" stroke="black" points="533,-347.5 533,-366.5 603,-366.5 603,-347.5 533,-347.5"/>
<text text-anchor="middle" x="568" y="-354.5" font-family="Helvetica,sans-Serif" font-size="10.00">itkObject.h</text>
</a>
</g>
</g>
<!-- Node7&#45;&gt;Node8 -->
<g id="edge7" class="edge">
<title>Node7&#45;&gt;Node8</title>
<path fill="none" stroke="midnightblue" d="M568,-571.3C568,-538.63 568,-422.87 568,-376.96"/>
<polygon fill="midnightblue" stroke="midnightblue" points="571.5,-376.88 568,-366.88 564.5,-376.88 571.5,-376.88"/>
</g>
<!-- Node17 -->
<g id="node17" class="node">
<title>Node17</title>
<g id="a_node17"><a xlink:href="itkSingletonMacro_8h.html" target="_top" xlink:title=" ">
<polygon fill="white" stroke="black" points="337,-56.5 337,-75.5 451,-75.5 451,-56.5 337,-56.5"/>
<text text-anchor="middle" x="394" y="-63.5" font-family="Helvetica,sans-Serif" font-size="10.00">itkSingletonMacro.h</text>
</a>
</g>
</g>
<!-- Node7&#45;&gt;Node17 -->
<g id="edge41" class="edge">
<title>Node7&#45;&gt;Node17</title>
<path fill="none" stroke="midnightblue" d="M566.53,-571.43C561.52,-544.32 543.09,-458.92 501,-403 459.95,-348.46 408.57,-372.04 378,-311 339.7,-234.53 371.59,-127.31 386.92,-85.09"/>
<polygon fill="midnightblue" stroke="midnightblue" points="390.24,-86.2 390.48,-75.61 383.69,-83.73 390.24,-86.2"/>
</g>
<!-- Node29 -->
<g id="node29" class="node">
<title>Node29</title>
<g id="a_node29"><a xlink:href="itkWeakPointer_8h.html" target="_top" xlink:title=" ">
<polygon fill="white" stroke="black" points="1187.5,-112.5 1187.5,-131.5 1286.5,-131.5 1286.5,-112.5 1187.5,-112.5"/>
<text text-anchor="middle" x="1237" y="-119.5" font-family="Helvetica,sans-Serif" font-size="10.00">itkWeakPointer.h</text>
</a>
</g>
</g>
<!-- Node7&#45;&gt;Node29 -->
<g id="edge42" class="edge">
<title>Node7&#45;&gt;Node29</title>
<path fill="none" stroke="midnightblue" d="M614.64,-577.43C697.62,-572.31 867.27,-559.18 921,-535 1101.25,-453.9 1204.55,-209.47 1230.48,-141"/>
<polygon fill="midnightblue" stroke="midnightblue" points="1233.78,-142.17 1233.98,-131.58 1227.22,-139.73 1233.78,-142.17"/>
</g>
<!-- Node30 -->
<g id="node30" class="node">
<title>Node30</title>
<g id="a_node30"><a xlink:href="itkRealTimeStamp_8h.html" target="_top" xlink:title=" ">
<polygon fill="white" stroke="black" points="913,-168.5 913,-187.5 1029,-187.5 1029,-168.5 913,-168.5"/>
<text text-anchor="middle" x="971" y="-175.5" font-family="Helvetica,sans-Serif" font-size="10.00">itkRealTimeStamp.h</text>
</a>
</g>
</g>
<!-- Node7&#45;&gt;Node30 -->
<g id="edge45" class="edge">
<title>Node7&#45;&gt;Node30</title>
<path fill="none" stroke="midnightblue" d="M614.62,-577.13C720.7,-569.33 971,-543.16 971,-470 971,-470 971,-470 971,-300 971,-263.71 971,-221.31 971,-197.56"/>
<polygon fill="midnightblue" stroke="midnightblue" points="974.5,-197.51 971,-187.51 967.5,-197.51 974.5,-197.51"/>
</g>
<!-- Node7&#45;&gt;Node32 -->
<g id="edge52" class="edge">
<title>Node7&#45;&gt;Node32</title>
<path fill="none" stroke="midnightblue" d="M547.88,-571.44C526.98,-562.56 494.07,-548.56 470.28,-538.45"/>
<polygon fill="midnightblue" stroke="midnightblue" points="471.6,-535.21 461.03,-534.52 468.86,-541.65 471.6,-535.21"/>
</g>
<!-- Node9 -->
<g id="node9" class="node">
<title>Node9</title>
<g id="a_node9"><a xlink:href="itkLightObject_8h.html" target="_top" xlink:title=" ">
<polygon fill="white" stroke="black" points="612,-168.5 612,-187.5 706,-187.5 706,-168.5 612,-168.5"/>
<text text-anchor="middle" x="659" y="-175.5" font-family="Helvetica,sans-Serif" font-size="10.00">itkLightObject.h</text>
</a>
</g>
</g>
<!-- Node8&#45;&gt;Node9 -->
<g id="edge8" class="edge">
<title>Node8&#45;&gt;Node9</title>
<path fill="none" stroke="midnightblue" d="M597.4,-347.48C635.5,-334.6 700.01,-306.1 725,-255 731.05,-242.62 731.44,-236.18 725,-224 717.58,-209.95 703.58,-199.47 690.38,-192.17"/>
<polygon fill="midnightblue" stroke="midnightblue" points="691.96,-189.04 681.46,-187.62 688.78,-195.28 691.96,-189.04"/>
</g>
<!-- Node8&#45;&gt;Node17 -->
<g id="edge38" class="edge">
<title>Node8&#45;&gt;Node17</title>
<path fill="none" stroke="midnightblue" d="M552.95,-347.31C519.89,-327.91 442.61,-280.75 427,-255 393.97,-200.52 391.94,-121.83 392.98,-86.03"/>
<polygon fill="midnightblue" stroke="midnightblue" points="396.49,-85.76 393.4,-75.62 389.49,-85.47 396.49,-85.76"/>
</g>
<!-- Node20 -->
<g id="node20" class="node">
<title>Node20</title>
<g id="a_node20"><a xlink:href="itkEventObject_8h.html" target="_top" xlink:title=" ">
<polygon fill="white" stroke="black" points="1047,-168.5 1047,-187.5 1145,-187.5 1145,-168.5 1047,-168.5"/>
<text text-anchor="middle" x="1096" y="-175.5" font-family="Helvetica,sans-Serif" font-size="10.00">itkEventObject.h</text>
</a>
</g>
</g>
<!-- Node8&#45;&gt;Node20 -->
<g id="edge26" class="edge">
<title>Node8&#45;&gt;Node20</title>
<path fill="none" stroke="midnightblue" d="M597.25,-347.44C624.5,-339.15 666.06,-325.71 701,-311 779.59,-277.92 791.45,-251.99 872,-224 901.81,-213.64 981.08,-198.78 1036.82,-189.01"/>
<polygon fill="midnightblue" stroke="midnightblue" points="1037.69,-192.41 1046.94,-187.25 1036.49,-185.52 1037.69,-192.41"/>
</g>
<!-- Node21 -->
<g id="node21" class="node">
<title>Node21</title>
<g id="a_node21"><a xlink:href="itkMetaDataDictionary_8h.html" target="_top" xlink:title=" ">
<polygon fill="white" stroke="black" points="509.5,-291.5 509.5,-310.5 644.5,-310.5 644.5,-291.5 509.5,-291.5"/>
<text text-anchor="middle" x="577" y="-298.5" font-family="Helvetica,sans-Serif" font-size="10.00">itkMetaDataDictionary.h</text>
</a>
</g>
</g>
<!-- Node8&#45;&gt;Node21 -->
<g id="edge28" class="edge">
<title>Node8&#45;&gt;Node21</title>
<path fill="none" stroke="midnightblue" d="M569.49,-347.08C570.68,-339.93 572.39,-329.64 573.88,-320.69"/>
<polygon fill="midnightblue" stroke="midnightblue" points="577.35,-321.19 575.54,-310.75 570.45,-320.04 577.35,-321.19"/>
</g>
<!-- Node28 -->
<g id="node28" class="node">
<title>Node28</title>
<g id="a_node28"><a xlink:title=" ">
<polygon fill="white" stroke="#bfbfbf" points="387.5,-291.5 387.5,-310.5 452.5,-310.5 452.5,-291.5 387.5,-291.5"/>
<text text-anchor="middle" x="420" y="-298.5" font-family="Helvetica,sans-Serif" font-size="10.00">functional</text>
</a>
</g>
</g>
<!-- Node8&#45;&gt;Node28 -->
<g id="edge39" class="edge">
<title>Node8&#45;&gt;Node28</title>
<path fill="none" stroke="midnightblue" d="M544.55,-347.44C519.87,-338.44 480.81,-324.19 453.02,-314.05"/>
<polygon fill="midnightblue" stroke="midnightblue" points="453.94,-310.66 443.34,-310.52 451.54,-317.23 453.94,-310.66"/>
</g>
<!-- Node9&#45;&gt;Node3 -->
<g id="edge9" class="edge">
<title>Node9&#45;&gt;Node3</title>
<path fill="none" stroke="midnightblue" d="M659.81,-168.27C661.41,-155.06 665.91,-129.66 678,-112 701.1,-78.26 713.1,-71.35 751,-56 812.61,-31.05 1007.08,-17.96 1095.48,-13.17"/>
<polygon fill="midnightblue" stroke="midnightblue" points="1095.92,-16.65 1105.72,-12.63 1095.55,-9.66 1095.92,-16.65"/>
</g>
<!-- Node10 -->
<g id="node10" class="node">
<title>Node10</title>
<g id="a_node10"><a xlink:href="itkSmartPointer_8h.html" target="_top" xlink:title=" ">
<polygon fill="white" stroke="black" points="827.5,-112.5 827.5,-131.5 928.5,-131.5 928.5,-112.5 827.5,-112.5"/>
<text text-anchor="middle" x="878" y="-119.5" font-family="Helvetica,sans-Serif" font-size="10.00">itkSmartPointer.h</text>
</a>
</g>
</g>
<!-- Node9&#45;&gt;Node10 -->
<g id="edge10" class="edge">
<title>Node9&#45;&gt;Node10</title>
<path fill="none" stroke="midnightblue" d="M693.7,-168.44C731.58,-159.1 792.35,-144.12 833.66,-133.93"/>
<polygon fill="midnightblue" stroke="midnightblue" points="834.59,-137.31 843.46,-131.52 832.91,-130.51 834.59,-137.31"/>
</g>
<!-- Node11 -->
<g id="node11" class="node">
<title>Node11</title>
<g id="a_node11"><a xlink:title=" ">
<polygon fill="white" stroke="#bfbfbf" points="929,-56.5 929,-75.5 989,-75.5 989,-56.5 929,-56.5"/>
<text text-anchor="middle" x="959" y="-63.5" font-family="Helvetica,sans-Serif" font-size="10.00">iostream</text>
</a>
</g>
</g>
<!-- Node9&#45;&gt;Node11 -->
<g id="edge24" class="edge">
<title>Node9&#45;&gt;Node11</title>
<path fill="none" stroke="midnightblue" d="M706.17,-175.13C776.16,-171.42 902.95,-160.82 937,-132 950.48,-120.59 955.72,-100.6 957.75,-85.8"/>
<polygon fill="midnightblue" stroke="midnightblue" points="961.25,-86.01 958.76,-75.71 954.28,-85.31 961.25,-86.01"/>
</g>
<!-- Node15 -->
<g id="node15" class="node">
<title>Node15</title>
<g id="a_node15"><a xlink:href="itkTimeStamp_8h.html" target="_top" xlink:title=" ">
<polygon fill="white" stroke="black" points="497.5,-112.5 497.5,-131.5 592.5,-131.5 592.5,-112.5 497.5,-112.5"/>
<text text-anchor="middle" x="545" y="-119.5" font-family="Helvetica,sans-Serif" font-size="10.00">itkTimeStamp.h</text>
</a>
</g>
</g>
<!-- Node9&#45;&gt;Node15 -->
<g id="edge15" class="edge">
<title>Node9&#45;&gt;Node15</title>
<path fill="none" stroke="midnightblue" d="M640.94,-168.44C622.43,-159.68 593.42,-145.94 572.14,-135.86"/>
<polygon fill="midnightblue" stroke="midnightblue" points="573.51,-132.63 562.98,-131.52 570.52,-138.96 573.51,-132.63"/>
</g>
<!-- Node16 -->
<g id="node16" class="node">
<title>Node16</title>
<g id="a_node16"><a xlink:title=" ">
<polygon fill="white" stroke="#bfbfbf" points="577,-56.5 577,-75.5 627,-75.5 627,-56.5 577,-56.5"/>
<text text-anchor="middle" x="602" y="-63.5" font-family="Helvetica,sans-Serif" font-size="10.00">atomic</text>
</a>
</g>
</g>
<!-- Node9&#45;&gt;Node16 -->
<g id="edge23" class="edge">
<title>Node9&#45;&gt;Node16</title>
<path fill="none" stroke="midnightblue" d="M654.53,-168.37C645.2,-150.38 623.53,-108.55 611.13,-84.63"/>
<polygon fill="midnightblue" stroke="midnightblue" points="614.16,-82.86 606.45,-75.59 607.95,-86.08 614.16,-82.86"/>
</g>
<!-- Node18 -->
<g id="node18" class="node">
<title>Node18</title>
<g id="a_node18"><a xlink:href="itkIndent_8h.html" target="_top" xlink:title=" ">
<polygon fill="white" stroke="black" points="1061.5,-112.5 1061.5,-131.5 1130.5,-131.5 1130.5,-112.5 1061.5,-112.5"/>
<text text-anchor="middle" x="1096" y="-119.5" font-family="Helvetica,sans-Serif" font-size="10.00">itkIndent.h</text>
</a>
</g>
</g>
<!-- Node9&#45;&gt;Node18 -->
<g id="edge20" class="edge">
<title>Node9&#45;&gt;Node18</title>
<path fill="none" stroke="midnightblue" d="M706.18,-171.17C791.05,-160.68 968.34,-138.78 1051.34,-128.52"/>
<polygon fill="midnightblue" stroke="midnightblue" points="1051.96,-131.97 1061.46,-127.27 1051.1,-125.02 1051.96,-131.97"/>
</g>
<!-- Node19 -->
<g id="node19" class="node">
<title>Node19</title>
<g id="a_node19"><a xlink:title=" ">
<polygon fill="white" stroke="#bfbfbf" points="422.5,-112.5 422.5,-131.5 479.5,-131.5 479.5,-112.5 422.5,-112.5"/>
<text text-anchor="middle" x="451" y="-119.5" font-family="Helvetica,sans-Serif" font-size="10.00">typeinfo</text>
</a>
</g>
</g>
<!-- Node9&#45;&gt;Node19 -->
<g id="edge25" class="edge">
<title>Node9&#45;&gt;Node19</title>
<path fill="none" stroke="midnightblue" d="M626.04,-168.44C588.95,-158.81 528.76,-143.19 489.53,-133"/>
<polygon fill="midnightblue" stroke="midnightblue" points="490.34,-129.6 479.78,-130.47 488.58,-136.37 490.34,-129.6"/>
</g>
<!-- Node10&#45;&gt;Node11 -->
<g id="edge11" class="edge">
<title>Node10&#45;&gt;Node11</title>
<path fill="none" stroke="midnightblue" d="M891.01,-112.32C903.53,-103.98 922.68,-91.21 937.47,-81.35"/>
<polygon fill="midnightblue" stroke="midnightblue" points="939.64,-84.11 946.02,-75.65 935.76,-78.29 939.64,-84.11"/>
</g>
<!-- Node12 -->
<g id="node12" class="node">
<title>Node12</title>
<g id="a_node12"><a xlink:title=" ">
<polygon fill="white" stroke="#bfbfbf" points="864.5,-56.5 864.5,-75.5 909.5,-75.5 909.5,-56.5 864.5,-56.5"/>
<text text-anchor="middle" x="887" y="-63.5" font-family="Helvetica,sans-Serif" font-size="10.00">utility</text>
</a>
</g>
</g>
<!-- Node10&#45;&gt;Node12 -->
<g id="edge12" class="edge">
<title>Node10&#45;&gt;Node12</title>
<path fill="none" stroke="midnightblue" d="M879.49,-112.08C880.68,-104.93 882.39,-94.64 883.88,-85.69"/>
<polygon fill="midnightblue" stroke="midnightblue" points="887.35,-86.19 885.54,-75.75 880.45,-85.04 887.35,-86.19"/>
</g>
<!-- Node13 -->
<g id="node13" class="node">
<title>Node13</title>
<g id="a_node13"><a xlink:title=" ">
<polygon fill="white" stroke="#bfbfbf" points="777.5,-56.5 777.5,-75.5 846.5,-75.5 846.5,-56.5 777.5,-56.5"/>
<text text-anchor="middle" x="812" y="-63.5" font-family="Helvetica,sans-Serif" font-size="10.00">type_traits</text>
</a>
</g>
</g>
<!-- Node10&#45;&gt;Node13 -->
<g id="edge13" class="edge">
<title>Node10&#45;&gt;Node13</title>
<path fill="none" stroke="midnightblue" d="M867.4,-112.32C857.54,-104.26 842.65,-92.08 830.78,-82.37"/>
<polygon fill="midnightblue" stroke="midnightblue" points="832.75,-79.46 822.8,-75.83 828.32,-84.88 832.75,-79.46"/>
</g>
<!-- Node14 -->
<g id="node14" class="node">
<title>Node14</title>
<g id="a_node14"><a xlink:title=" ">
<polygon fill="white" stroke="#bfbfbf" points="1007.5,-56.5 1007.5,-75.5 1092.5,-75.5 1092.5,-56.5 1007.5,-56.5"/>
<text text-anchor="middle" x="1050" y="-63.5" font-family="Helvetica,sans-Serif" font-size="10.00">itkConfigure.h</text>
</a>
</g>
</g>
<!-- Node10&#45;&gt;Node14 -->
<g id="edge14" class="edge">
<title>Node10&#45;&gt;Node14</title>
<path fill="none" stroke="midnightblue" d="M905.25,-112.44C934.44,-103.28 980.92,-88.69 1013.31,-78.52"/>
<polygon fill="midnightblue" stroke="midnightblue" points="1014.38,-81.85 1022.87,-75.52 1012.28,-75.17 1014.38,-81.85"/>
</g>
<!-- Node15&#45;&gt;Node2 -->
<g id="edge17" class="edge">
<title>Node15&#45;&gt;Node2</title>
<path fill="none" stroke="midnightblue" d="M502.85,-112.44C455.57,-102.84 378.94,-87.29 328.76,-77.1"/>
<polygon fill="midnightblue" stroke="midnightblue" points="329.28,-73.63 318.78,-75.08 327.88,-80.5 329.28,-73.63"/>
</g>
<!-- Node15&#45;&gt;Node3 -->
<g id="edge16" class="edge">
<title>Node15&#45;&gt;Node3</title>
<path fill="none" stroke="midnightblue" d="M545.26,-112.12C546.2,-97.73 550.34,-69.56 568,-56 609.5,-24.15 968.14,-14.27 1095.42,-11.75"/>
<polygon fill="midnightblue" stroke="midnightblue" points="1095.66,-15.25 1105.59,-11.55 1095.53,-8.25 1095.66,-15.25"/>
</g>
<!-- Node15&#45;&gt;Node16 -->
<g id="edge18" class="edge">
<title>Node15&#45;&gt;Node16</title>
<path fill="none" stroke="midnightblue" d="M554.16,-112.32C562.5,-104.42 575.03,-92.55 585.18,-82.94"/>
<polygon fill="midnightblue" stroke="midnightblue" points="587.82,-85.25 592.68,-75.83 583.01,-80.17 587.82,-85.25"/>
</g>
<!-- Node15&#45;&gt;Node17 -->
<g id="edge19" class="edge">
<title>Node15&#45;&gt;Node17</title>
<path fill="none" stroke="midnightblue" d="M521.07,-112.44C495.78,-103.4 455.7,-89.06 427.32,-78.92"/>
<polygon fill="midnightblue" stroke="midnightblue" points="428.41,-75.59 417.81,-75.52 426.05,-82.18 428.41,-75.59"/>
</g>
<!-- Node18&#45;&gt;Node3 -->
<g id="edge21" class="edge">
<title>Node18&#45;&gt;Node3</title>
<path fill="none" stroke="midnightblue" d="M1099.45,-112.37C1106.62,-94.46 1123.23,-52.92 1132.82,-28.95"/>
<polygon fill="midnightblue" stroke="midnightblue" points="1136.1,-30.18 1136.56,-19.59 1129.6,-27.58 1136.1,-30.18"/>
</g>
<!-- Node18&#45;&gt;Node11 -->
<g id="edge22" class="edge">
<title>Node18&#45;&gt;Node11</title>
<path fill="none" stroke="midnightblue" d="M1074.29,-112.44C1051.65,-103.52 1015.93,-89.44 990.25,-79.32"/>
<polygon fill="midnightblue" stroke="midnightblue" points="991.19,-75.93 980.61,-75.52 988.63,-82.44 991.19,-75.93"/>
</g>
<!-- Node20&#45;&gt;Node18 -->
<g id="edge27" class="edge">
<title>Node20&#45;&gt;Node18</title>
<path fill="none" stroke="midnightblue" d="M1096,-168.08C1096,-161.01 1096,-150.86 1096,-141.99"/>
<polygon fill="midnightblue" stroke="midnightblue" points="1099.5,-141.75 1096,-131.75 1092.5,-141.75 1099.5,-141.75"/>
</g>
<!-- Node22 -->
<g id="node22" class="node">
<title>Node22</title>
<g id="a_node22"><a xlink:href="itkMetaDataObjectBase_8h.html" target="_top" xlink:title=" ">
<polygon fill="white" stroke="black" points="574,-230 574,-249 716,-249 716,-230 574,-230"/>
<text text-anchor="middle" x="645" y="-237" font-family="Helvetica,sans-Serif" font-size="10.00">itkMetaDataObjectBase.h</text>
</a>
</g>
</g>
<!-- Node21&#45;&gt;Node22 -->
<g id="edge29" class="edge">
<title>Node21&#45;&gt;Node22</title>
<path fill="none" stroke="midnightblue" d="M586.74,-291.48C597.35,-282.2 614.52,-267.17 627.48,-255.83"/>
<polygon fill="midnightblue" stroke="midnightblue" points="630.05,-258.23 635.28,-249.01 625.44,-252.96 630.05,-258.23"/>
</g>
<!-- Node21&#45;&gt;Node23 -->
<g id="edge33" class="edge">
<title>Node21&#45;&gt;Node23</title>
<path fill="none" stroke="midnightblue" d="M644.59,-295.21C811.24,-283.39 1238.05,-253.12 1373.84,-243.49"/>
<polygon fill="midnightblue" stroke="midnightblue" points="1374.13,-246.98 1383.85,-242.78 1373.63,-240 1374.13,-246.98"/>
</g>
<!-- Node21&#45;&gt;Node24 -->
<g id="edge34" class="edge">
<title>Node21&#45;&gt;Node24</title>
<path fill="none" stroke="midnightblue" d="M532.87,-291.48C470.68,-279.46 358.6,-257.81 302.66,-247"/>
<polygon fill="midnightblue" stroke="midnightblue" points="303.06,-243.51 292.57,-245.05 301.73,-250.39 303.06,-243.51"/>
</g>
<!-- Node21&#45;&gt;Node25 -->
<g id="edge35" class="edge">
<title>Node21&#45;&gt;Node25</title>
<path fill="none" stroke="midnightblue" d="M623.28,-291.48C690.8,-279.04 814.37,-256.27 870.67,-245.9"/>
<polygon fill="midnightblue" stroke="midnightblue" points="871.48,-249.31 880.68,-244.06 870.21,-242.43 871.48,-249.31"/>
</g>
<!-- Node26 -->
<g id="node26" class="node">
<title>Node26</title>
<g id="a_node26"><a xlink:title=" ">
<polygon fill="white" stroke="#bfbfbf" points="512,-230 512,-249 556,-249 556,-230 512,-230"/>
<text text-anchor="middle" x="534" y="-237" font-family="Helvetica,sans-Serif" font-size="10.00">string</text>
</a>
</g>
</g>
<!-- Node21&#45;&gt;Node26 -->
<g id="edge36" class="edge">
<title>Node21&#45;&gt;Node26</title>
<path fill="none" stroke="midnightblue" d="M570.84,-291.48C564.39,-282.55 554.1,-268.31 546.03,-257.14"/>
<polygon fill="midnightblue" stroke="midnightblue" points="548.84,-255.06 540.15,-249.01 543.17,-259.16 548.84,-255.06"/>
</g>
<!-- Node27 -->
<g id="node27" class="node">
<title>Node27</title>
<g id="a_node27"><a xlink:title=" ">
<polygon fill="white" stroke="#bfbfbf" points="436,-230 436,-249 494,-249 494,-230 436,-230"/>
<text text-anchor="middle" x="465" y="-237" font-family="Helvetica,sans-Serif" font-size="10.00">memory</text>
</a>
</g>
</g>
<!-- Node21&#45;&gt;Node27 -->
<g id="edge37" class="edge">
<title>Node21&#45;&gt;Node27</title>
<path fill="none" stroke="midnightblue" d="M560.95,-291.48C542.41,-281.62 511.66,-265.29 489.98,-253.77"/>
<polygon fill="midnightblue" stroke="midnightblue" points="491.49,-250.61 481.02,-249.01 488.21,-256.79 491.49,-250.61"/>
</g>
<!-- Node22&#45;&gt;Node9 -->
<g id="edge30" class="edge">
<title>Node22&#45;&gt;Node9</title>
<path fill="none" stroke="midnightblue" d="M647.01,-229.98C649,-221.49 652.13,-208.2 654.69,-197.32"/>
<polygon fill="midnightblue" stroke="midnightblue" points="658.11,-198.04 657,-187.51 651.3,-196.44 658.11,-198.04"/>
</g>
<!-- Node22&#45;&gt;Node11 -->
<g id="edge32" class="edge">
<title>Node22&#45;&gt;Node11</title>
<path fill="none" stroke="midnightblue" d="M676.64,-229.96C752.71,-209.11 940.8,-155.64 958,-132 967.64,-118.75 966.67,-99.62 964.02,-85.55"/>
<polygon fill="midnightblue" stroke="midnightblue" points="967.37,-84.5 961.71,-75.55 960.55,-86.08 967.37,-84.5"/>
</g>
<!-- Node22&#45;&gt;Node19 -->
<g id="edge31" class="edge">
<title>Node22&#45;&gt;Node19</title>
<path fill="none" stroke="midnightblue" d="M630.42,-229.82C596.98,-209.91 514.56,-160.84 474.13,-136.77"/>
<polygon fill="midnightblue" stroke="midnightblue" points="475.87,-133.73 465.49,-131.62 472.29,-139.75 475.87,-133.73"/>
</g>
<!-- Node29&#45;&gt;Node3 -->
<g id="edge43" class="edge">
<title>Node29&#45;&gt;Node3</title>
<path fill="none" stroke="midnightblue" d="M1229.39,-112.37C1213.24,-94.05 1175.32,-51.05 1154.43,-27.36"/>
<polygon fill="midnightblue" stroke="midnightblue" points="1156.82,-24.78 1147.58,-19.59 1151.56,-29.41 1156.82,-24.78"/>
</g>
<!-- Node29&#45;&gt;Node11 -->
<g id="edge44" class="edge">
<title>Node29&#45;&gt;Node11</title>
<path fill="none" stroke="midnightblue" d="M1189.04,-112.43C1140.91,-103.72 1064.68,-89.59 999,-76 998.9,-75.98 998.8,-75.96 998.7,-75.94"/>
<polygon fill="midnightblue" stroke="midnightblue" points="999.63,-72.56 989.12,-73.89 998.17,-79.4 999.63,-72.56"/>
</g>
<!-- Node30&#45;&gt;Node3 -->
<g id="edge50" class="edge">
<title>Node30&#45;&gt;Node3</title>
<path fill="none" stroke="midnightblue" d="M1029.43,-169.1C1072.7,-161.91 1126.4,-149.69 1140,-132 1162.85,-102.27 1153.84,-55.17 1146.28,-29.38"/>
<polygon fill="midnightblue" stroke="midnightblue" points="1149.59,-28.22 1143.23,-19.74 1142.91,-30.33 1149.59,-28.22"/>
</g>
<!-- Node30&#45;&gt;Node11 -->
<g id="edge51" class="edge">
<title>Node30&#45;&gt;Node11</title>
<path fill="none" stroke="midnightblue" d="M982.07,-168.49C996.4,-156.38 1018.47,-133.25 1009,-112 1003.43,-99.5 992.48,-89.01 982.25,-81.32"/>
<polygon fill="midnightblue" stroke="midnightblue" points="984.16,-78.38 973.95,-75.53 980.15,-84.12 984.16,-78.38"/>
</g>
<!-- Node31 -->
<g id="node31" class="node">
<title>Node31</title>
<g id="a_node31"><a xlink:href="itkRealTimeInterval_8h.html" target="_top" xlink:title=" ">
<polygon fill="white" stroke="black" points="687,-112.5 687,-131.5 809,-131.5 809,-112.5 687,-112.5"/>
<text text-anchor="middle" x="748" y="-119.5" font-family="Helvetica,sans-Serif" font-size="10.00">itkRealTimeInterval.h</text>
</a>
</g>
</g>
<!-- Node30&#45;&gt;Node31 -->
<g id="edge46" class="edge">
<title>Node30&#45;&gt;Node31</title>
<path fill="none" stroke="midnightblue" d="M935.66,-168.44C897.09,-159.1 835.22,-144.12 793.15,-133.93"/>
<polygon fill="midnightblue" stroke="midnightblue" points="793.71,-130.47 783.17,-131.52 792.07,-137.27 793.71,-130.47"/>
</g>
<!-- Node31&#45;&gt;Node2 -->
<g id="edge47" class="edge">
<title>Node31&#45;&gt;Node2</title>
<path fill="none" stroke="midnightblue" d="M686.96,-115.9C607.06,-108.91 462.46,-95.16 328.57,-75.98"/>
<polygon fill="midnightblue" stroke="midnightblue" points="328.94,-72.49 318.54,-74.52 327.93,-79.42 328.94,-72.49"/>
</g>
<!-- Node31&#45;&gt;Node3 -->
<g id="edge48" class="edge">
<title>Node31&#45;&gt;Node3</title>
<path fill="none" stroke="midnightblue" d="M747.89,-112.24C748.23,-98.02 751.15,-70.09 768,-56 816.8,-15.2 1008.11,-10.48 1095.73,-10.52"/>
<polygon fill="midnightblue" stroke="midnightblue" points="1095.88,-14.02 1105.89,-10.54 1095.9,-7.02 1095.88,-14.02"/>
</g>
<!-- Node31&#45;&gt;Node11 -->
<g id="edge49" class="edge">
<title>Node31&#45;&gt;Node11</title>
<path fill="none" stroke="midnightblue" d="M781.43,-112.44C818.74,-102.9 879.08,-87.45 918.9,-77.26"/>
<polygon fill="midnightblue" stroke="midnightblue" points="919.98,-80.6 928.8,-74.73 918.24,-73.82 919.98,-80.6"/>
</g>
<!-- Node33 -->
<g id="node33" class="node">
<title>Node33</title>
<g id="a_node33"><a xlink:href="itkObjectFactoryBase_8h.html" target="_top" xlink:title=" ">
<polygon fill="white" stroke="black" points="237.5,-459.5 237.5,-478.5 366.5,-478.5 366.5,-459.5 237.5,-459.5"/>
<text text-anchor="middle" x="302" y="-466.5" font-family="Helvetica,sans-Serif" font-size="10.00">itkObjectFactoryBase.h</text>
</a>
</g>
</g>
<!-- Node32&#45;&gt;Node33 -->
<g id="edge53" class="edge">
<title>Node32&#45;&gt;Node33</title>
<path fill="none" stroke="midnightblue" d="M418.98,-515.44C395.9,-506.48 359.44,-492.31 333.36,-482.18"/>
<polygon fill="midnightblue" stroke="midnightblue" points="334.51,-478.88 323.92,-478.52 331.98,-485.4 334.51,-478.88"/>
</g>
<!-- Node33&#45;&gt;Node17 -->
<g id="edge56" class="edge">
<title>Node33&#45;&gt;Node17</title>
<path fill="none" stroke="midnightblue" d="M304.56,-459.25C309.75,-440.74 321,-396.18 321,-358 321,-358 321,-358 321,-300 321,-215.92 302.85,-186.41 342,-112 348.51,-99.62 359.96,-89.14 370.46,-81.42"/>
<polygon fill="midnightblue" stroke="midnightblue" points="372.67,-84.15 378.93,-75.6 368.7,-78.38 372.67,-84.15"/>
</g>
<!-- Node33&#45;&gt;Node24 -->
<g id="edge61" class="edge">
<title>Node33&#45;&gt;Node24</title>
<path fill="none" stroke="midnightblue" d="M300.75,-459.36C295.92,-426.07 278.45,-305.65 271.69,-259.07"/>
<polygon fill="midnightblue" stroke="midnightblue" points="275.15,-258.54 270.25,-249.15 268.23,-259.55 275.15,-258.54"/>
</g>
<!-- Node34 -->
<g id="node34" class="node">
<title>Node34</title>
<g id="a_node34"><a xlink:href="itkCreateObjectFunction_8h.html" target="_top" xlink:title=" ">
<polygon fill="white" stroke="black" points="349.5,-403.5 349.5,-422.5 492.5,-422.5 492.5,-403.5 349.5,-403.5"/>
<text text-anchor="middle" x="421" y="-410.5" font-family="Helvetica,sans-Serif" font-size="10.00">itkCreateObjectFunction.h</text>
</a>
</g>
</g>
<!-- Node33&#45;&gt;Node34 -->
<g id="edge54" class="edge">
<title>Node33&#45;&gt;Node34</title>
<path fill="none" stroke="midnightblue" d="M320.86,-459.44C340.27,-450.64 370.73,-436.81 392.96,-426.72"/>
<polygon fill="midnightblue" stroke="midnightblue" points="394.57,-429.84 402.23,-422.52 391.68,-423.46 394.57,-429.84"/>
</g>
<!-- Node35 -->
<g id="node35" class="node">
<title>Node35</title>
<g id="a_node35"><a xlink:href="itkCommonEnums_8h.html" target="_top" xlink:title=" ">
<polygon fill="white" stroke="black" points="89,-403.5 89,-422.5 205,-422.5 205,-403.5 89,-403.5"/>
<text text-anchor="middle" x="147" y="-410.5" font-family="Helvetica,sans-Serif" font-size="10.00">itkCommonEnums.h</text>
</a>
</g>
</g>
<!-- Node33&#45;&gt;Node35 -->
<g id="edge57" class="edge">
<title>Node33&#45;&gt;Node35</title>
<path fill="none" stroke="midnightblue" d="M277.44,-459.44C251.48,-450.4 210.33,-436.06 181.2,-425.92"/>
<polygon fill="midnightblue" stroke="midnightblue" points="182.04,-422.5 171.45,-422.52 179.74,-429.11 182.04,-422.5"/>
</g>
<!-- Node37 -->
<g id="node37" class="node">
<title>Node37</title>
<g id="a_node37"><a xlink:title=" ">
<polygon fill="white" stroke="#bfbfbf" points="223,-403.5 223,-422.5 255,-422.5 255,-403.5 223,-403.5"/>
<text text-anchor="middle" x="239" y="-410.5" font-family="Helvetica,sans-Serif" font-size="10.00">list</text>
</a>
</g>
</g>
<!-- Node33&#45;&gt;Node37 -->
<g id="edge60" class="edge">
<title>Node33&#45;&gt;Node37</title>
<path fill="none" stroke="midnightblue" d="M291.88,-459.32C282.47,-451.26 268.26,-439.08 256.93,-429.37"/>
<polygon fill="midnightblue" stroke="midnightblue" points="259.18,-426.68 249.31,-422.83 254.62,-432 259.18,-426.68"/>
</g>
<!-- Node34&#45;&gt;Node8 -->
<g id="edge55" class="edge">
<title>Node34&#45;&gt;Node8</title>
<path fill="none" stroke="midnightblue" d="M444.29,-403.44C468.81,-394.44 507.6,-380.19 535.2,-370.05"/>
<polygon fill="midnightblue" stroke="midnightblue" points="536.64,-373.25 544.82,-366.52 534.22,-366.68 536.64,-373.25"/>
</g>
<!-- Node35&#45;&gt;Node2 -->
<g id="edge58" class="edge">
<title>Node35&#45;&gt;Node2</title>
<path fill="none" stroke="midnightblue" d="M127.76,-403.42C96.47,-387.99 38,-352.41 38,-302 38,-302 38,-302 38,-177 38,-93.6 158.92,-73.16 229.45,-68.33"/>
<polygon fill="midnightblue" stroke="midnightblue" points="229.7,-71.82 239.47,-67.73 229.28,-64.83 229.7,-71.82"/>
</g>
<!-- Node36 -->
<g id="node36" class="node">
<title>Node36</title>
<g id="a_node36"><a xlink:title=" ">
<polygon fill="white" stroke="#bfbfbf" points="118.5,-347.5 118.5,-366.5 175.5,-366.5 175.5,-347.5 118.5,-347.5"/>
<text text-anchor="middle" x="147" y="-354.5" font-family="Helvetica,sans-Serif" font-size="10.00">ostream</text>
</a>
</g>
</g>
<!-- Node35&#45;&gt;Node36 -->
<g id="edge59" class="edge">
<title>Node35&#45;&gt;Node36</title>
<path fill="none" stroke="midnightblue" d="M147,-403.08C147,-396.01 147,-385.86 147,-376.99"/>
<polygon fill="midnightblue" stroke="midnightblue" points="150.5,-376.75 147,-366.75 143.5,-376.75 150.5,-376.75"/>
</g>
<!-- Node38&#45;&gt;Node3 -->
<g id="edge64" class="edge">
<title>Node38&#45;&gt;Node3</title>
<path fill="none" stroke="midnightblue" d="M1525.31,-347.44C1509.75,-329.2 1476,-284.55 1476,-240.5 1476,-240.5 1476,-240.5 1476,-121 1476,-60.27 1275.26,-27.7 1184.1,-16.05"/>
<polygon fill="midnightblue" stroke="midnightblue" points="1184.42,-12.56 1174.07,-14.79 1183.55,-19.5 1184.42,-12.56"/>
</g>
<!-- Node39 -->
<g id="node39" class="node">
<title>Node39</title>
<g id="a_node39"><a xlink:title=" ">
<polygon fill="white" stroke="#bfbfbf" points="1510,-291.5 1510,-310.5 1554,-310.5 1554,-291.5 1510,-291.5"/>
<text text-anchor="middle" x="1532" y="-298.5" font-family="Helvetica,sans-Serif" font-size="10.00">limits</text>
</a>
</g>
</g>
<!-- Node38&#45;&gt;Node39 -->
<g id="edge65" class="edge">
<title>Node38&#45;&gt;Node39</title>
<path fill="none" stroke="midnightblue" d="M1532.83,-347.08C1532.7,-340.01 1532.52,-329.86 1532.35,-320.99"/>
<polygon fill="midnightblue" stroke="midnightblue" points="1535.85,-320.68 1532.16,-310.75 1528.85,-320.81 1535.85,-320.68"/>
</g>
<!-- Node40 -->
<g id="node40" class="node">
<title>Node40</title>
<g id="a_node40"><a xlink:title=" ">
<polygon fill="white" stroke="#bfbfbf" points="1572.5,-291.5 1572.5,-310.5 1631.5,-310.5 1631.5,-291.5 1572.5,-291.5"/>
<text text-anchor="middle" x="1602" y="-298.5" font-family="Helvetica,sans-Serif" font-size="10.00">complex</text>
</a>
</g>
</g>
<!-- Node38&#45;&gt;Node40 -->
<g id="edge66" class="edge">
<title>Node38&#45;&gt;Node40</title>
<path fill="none" stroke="midnightblue" d="M1544.09,-347.32C1554.49,-339.18 1570.26,-326.84 1582.72,-317.09"/>
<polygon fill="midnightblue" stroke="midnightblue" points="1584.99,-319.75 1590.71,-310.83 1580.68,-314.24 1584.99,-319.75"/>
</g>
<!-- Node41 -->
<g id="node41" class="node">
<title>Node41</title>
<g id="a_node41"><a xlink:href="itkFixedArray_8h.html" target="_top" xlink:title=" ">
<polygon fill="white" stroke="black" points="1655.5,-291.5 1655.5,-310.5 1744.5,-310.5 1744.5,-291.5 1655.5,-291.5"/>
<text text-anchor="middle" x="1700" y="-298.5" font-family="Helvetica,sans-Serif" font-size="10.00">itkFixedArray.h</text>
</a>
</g>
</g>
<!-- Node38&#45;&gt;Node41 -->
<g id="edge67" class="edge">
<title>Node38&#45;&gt;Node41</title>
<path fill="none" stroke="midnightblue" d="M1559.46,-347.44C1587.68,-338.32 1632.54,-323.81 1663.97,-313.65"/>
<polygon fill="midnightblue" stroke="midnightblue" points="1665.22,-316.92 1673.66,-310.52 1663.07,-310.26 1665.22,-316.92"/>
</g>
<!-- Node41&#45;&gt;Node3 -->
<g id="edge68" class="edge">
<title>Node41&#45;&gt;Node3</title>
<path fill="none" stroke="midnightblue" d="M1655.38,-293.06C1612.22,-285.46 1550.93,-272.06 1534,-255 1509.39,-230.21 1514,-213.93 1514,-179 1514,-179 1514,-179 1514,-121 1514,-90.2 1514.09,-75.18 1490,-56 1443.7,-19.13 1267.88,-12.28 1184.45,-11.14"/>
<polygon fill="midnightblue" stroke="midnightblue" points="1184.31,-7.64 1174.27,-11.02 1184.23,-14.64 1184.31,-7.64"/>
</g>
<!-- Node41&#45;&gt;Node23 -->
<g id="edge70" class="edge">
<title>Node41&#45;&gt;Node23</title>
<path fill="none" stroke="midnightblue" d="M1659.31,-291.48C1605.85,-280.28 1512.43,-260.7 1458.22,-249.35"/>
<polygon fill="midnightblue" stroke="midnightblue" points="1458.75,-245.88 1448.25,-247.26 1457.32,-252.73 1458.75,-245.88"/>
</g>
<!-- Node42 -->
<g id="node42" class="node">
<title>Node42</title>
<g id="a_node42"><a xlink:href="itkMakeFilled_8h.html" target="_top" xlink:title=" ">
<polygon fill="white" stroke="black" points="1661.5,-230 1661.5,-249 1752.5,-249 1752.5,-230 1661.5,-230"/>
<text text-anchor="middle" x="1707" y="-237" font-family="Helvetica,sans-Serif" font-size="10.00">itkMakeFilled.h</text>
</a>
</g>
</g>
<!-- Node41&#45;&gt;Node42 -->
<g id="edge69" class="edge">
<title>Node41&#45;&gt;Node42</title>
<path fill="none" stroke="midnightblue" d="M1701,-291.48C1701.99,-283.08 1703.53,-269.98 1704.8,-259.16"/>
<polygon fill="midnightblue" stroke="midnightblue" points="1708.31,-259.35 1706,-249.01 1701.35,-258.53 1708.31,-259.35"/>
</g>
<!-- Node43 -->
<g id="node43" class="node">
<title>Node43</title>
<g id="a_node43"><a xlink:title=" ">
<polygon fill="white" stroke="#bfbfbf" points="1771,-230 1771,-249 1813,-249 1813,-230 1771,-230"/>
<text text-anchor="middle" x="1792" y="-237" font-family="Helvetica,sans-Serif" font-size="10.00">array</text>
</a>
</g>
</g>
<!-- Node41&#45;&gt;Node43 -->
<g id="edge71" class="edge">
<title>Node41&#45;&gt;Node43</title>
<path fill="none" stroke="midnightblue" d="M1713.18,-291.48C1728.07,-281.84 1752.54,-266.02 1770.27,-254.55"/>
<polygon fill="midnightblue" stroke="midnightblue" points="1772.35,-257.38 1778.84,-249.01 1768.55,-251.5 1772.35,-257.38"/>
</g>
<!-- Node44 -->
<g id="node44" class="node">
<title>Node44</title>
<g id="a_node44"><a xlink:title=" ">
<polygon fill="white" stroke="#bfbfbf" points="1542.5,-230 1542.5,-249 1643.5,-249 1643.5,-230 1542.5,-230"/>
<text text-anchor="middle" x="1593" y="-237" font-family="Helvetica,sans-Serif" font-size="10.00">itkFixedArray.hxx</text>
</a>
</g>
</g>
<!-- Node41&#45;&gt;Node44 -->
<g id="edge72" class="edge">
<title>Node41&#45;&gt;Node44</title>
<path fill="none" stroke="midnightblue" d="M1684.67,-291.48C1667.03,-281.67 1637.84,-265.43 1617.14,-253.92"/>
<polygon fill="midnightblue" stroke="midnightblue" points="1618.74,-250.81 1608.3,-249.01 1615.34,-256.93 1618.74,-250.81"/>
</g>
<!-- Node45 -->
<g id="node45" class="node">
<title>Node45</title>
<g id="a_node45"><a xlink:href="itkNumericTraitsFixedArrayPixel_8h.html" target="_top" xlink:title=" ">
<polygon fill="white" stroke="black" points="1830.5,-224.5 1830.5,-254.5 1979.5,-254.5 1979.5,-224.5 1830.5,-224.5"/>
<text text-anchor="start" x="1838.5" y="-242.5" font-family="Helvetica,sans-Serif" font-size="10.00">itkNumericTraitsFixedArray</text>
<text text-anchor="middle" x="1905" y="-231.5" font-family="Helvetica,sans-Serif" font-size="10.00">Pixel.h</text>
</a>
</g>
</g>
<!-- Node41&#45;&gt;Node45 -->
<g id="edge73" class="edge">
<title>Node41&#45;&gt;Node45</title>
<path fill="none" stroke="midnightblue" d="M1724.47,-291.48C1753.15,-282.59 1801.52,-268.43 1841.02,-257.29"/>
<polygon fill="midnightblue" stroke="midnightblue" points="1842.18,-260.6 1850.86,-254.52 1840.28,-253.86 1842.18,-260.6"/>
</g>
<!-- Node45&#45;&gt;Node38 -->
<g id="edge74" class="edge">
<title>Node45&#45;&gt;Node38</title>
<path fill="none" stroke="midnightblue" d="M1879.84,-254.5C1850.46,-270.32 1800.02,-295.81 1754,-311 1702.09,-328.14 1641.06,-339.97 1596.3,-347.18"/>
<polygon fill="midnightblue" stroke="midnightblue" points="1595.49,-343.77 1586.15,-348.78 1596.58,-350.68 1595.49,-343.77"/>
</g>
<!-- Node45&#45;&gt;Node41 -->
<g id="edge75" class="edge">
<title>Node45&#45;&gt;Node41</title>
<path fill="none" stroke="midnightblue" d="M1862.52,-254.52C1827.9,-264.96 1779.32,-279.02 1744.24,-288.73"/>
<polygon fill="midnightblue" stroke="midnightblue" points="1742.99,-285.45 1734.27,-291.48 1744.84,-292.2 1742.99,-285.45"/>
</g>
<!-- Node46&#45;&gt;Node14 -->
<g id="edge78" class="edge">
<title>Node46&#45;&gt;Node14</title>
<path fill="none" stroke="midnightblue" d="M1353,-571.44C1353,-552.94 1353,-507.81 1353,-470 1353,-470 1353,-470 1353,-177 1353,-138.58 1329.42,-130.95 1296,-112 1235.81,-77.86 1155.22,-68.79 1102.96,-66.8"/>
<polygon fill="midnightblue" stroke="midnightblue" points="1103,-63.3 1092.9,-66.5 1102.79,-70.3 1103,-63.3"/>
</g>
<!-- Node47 -->
<g id="node47" class="node">
<title>Node47</title>
<g id="a_node47"><a xlink:title=" ">
<polygon fill="white" stroke="#bfbfbf" points="1381.5,-515.5 1381.5,-534.5 1430.5,-534.5 1430.5,-515.5 1381.5,-515.5"/>
<text text-anchor="middle" x="1406" y="-522.5" font-family="Helvetica,sans-Serif" font-size="10.00">cstdlib</text>
</a>
</g>
</g>
<!-- Node46&#45;&gt;Node47 -->
<g id="edge77" class="edge">
<title>Node46&#45;&gt;Node47</title>
<path fill="none" stroke="midnightblue" d="M1361.75,-571.08C1369.47,-563.22 1380.9,-551.57 1390.22,-542.08"/>
<polygon fill="midnightblue" stroke="midnightblue" points="1392.9,-544.34 1397.41,-534.75 1387.91,-539.44 1392.9,-544.34"/>
</g>
</g>
</svg>
