<?xml version="1.0" encoding="UTF-8" standalone="no"?>
<!DOCTYPE svg PUBLIC "-//W3C//DTD SVG 1.1//EN"
 "http://www.w3.org/Graphics/SVG/1.1/DTD/svg11.dtd">
<!-- Generated by graphviz version 2.43.0 (0)
 -->
<!-- Title: itkPriorityQueueContainer.h Pages: 1 -->
<svg width="1669pt" height="655pt"
 viewBox="0.00 0.00 1668.50 655.00" xmlns="http://www.w3.org/2000/svg" xmlns:xlink="http://www.w3.org/1999/xlink">
<g id="graph0" class="graph" transform="scale(1 1) rotate(0) translate(4 651)">
<title>itkPriorityQueueContainer.h</title>
<polygon fill="white" stroke="transparent" points="-4,4 -4,-651 1664.5,-651 1664.5,4 -4,4"/>
<!-- Node1 -->
<g id="node1" class="node">
<title>Node1</title>
<g id="a_node1"><a xlink:title=" ">
<polygon fill="#bfbfbf" stroke="black" points="1269.5,-627.5 1269.5,-646.5 1421.5,-646.5 1421.5,-627.5 1269.5,-627.5"/>
<text text-anchor="middle" x="1345.5" y="-634.5" font-family="Helvetica,sans-Serif" font-size="10.00">itkPriorityQueueContainer.h</text>
</a>
</g>
</g>
<!-- Node2 -->
<g id="node2" class="node">
<title>Node2</title>
<g id="a_node2"><a xlink:href="itkVectorContainer_8h.html" target="_top" xlink:title=" ">
<polygon fill="white" stroke="black" points="745.5,-571.5 745.5,-590.5 861.5,-590.5 861.5,-571.5 745.5,-571.5"/>
<text text-anchor="middle" x="803.5" y="-578.5" font-family="Helvetica,sans-Serif" font-size="10.00">itkVectorContainer.h</text>
</a>
</g>
</g>
<!-- Node1&#45;&gt;Node2 -->
<g id="edge1" class="edge">
<title>Node1&#45;&gt;Node2</title>
<path fill="none" stroke="midnightblue" d="M1269.28,-628.41C1163.43,-617.86 973.52,-598.94 871.96,-588.82"/>
<polygon fill="midnightblue" stroke="midnightblue" points="872.12,-585.32 861.82,-587.81 871.42,-592.28 872.12,-585.32"/>
</g>
<!-- Node8 -->
<g id="node8" class="node">
<title>Node8</title>
<g id="a_node8"><a xlink:title=" ">
<polygon fill="white" stroke="#bfbfbf" points="1379,-56.5 1379,-75.5 1424,-75.5 1424,-56.5 1379,-56.5"/>
<text text-anchor="middle" x="1401.5" y="-63.5" font-family="Helvetica,sans-Serif" font-size="10.00">utility</text>
</a>
</g>
</g>
<!-- Node1&#45;&gt;Node8 -->
<g id="edge69" class="edge">
<title>Node1&#45;&gt;Node8</title>
<path fill="none" stroke="midnightblue" d="M1353.67,-627.38C1369.43,-609.81 1402.5,-567.94 1402.5,-526 1402.5,-526 1402.5,-526 1402.5,-177 1402.5,-144.95 1402.07,-107.64 1401.77,-85.75"/>
<polygon fill="midnightblue" stroke="midnightblue" points="1405.27,-85.51 1401.63,-75.56 1398.27,-85.61 1405.27,-85.51"/>
</g>
<!-- Node12 -->
<g id="node12" class="node">
<title>Node12</title>
<g id="a_node12"><a xlink:href="itkIntTypes_8h.html" target="_top" xlink:title=" ">
<polygon fill="white" stroke="black" points="1282,-56.5 1282,-75.5 1361,-75.5 1361,-56.5 1282,-56.5"/>
<text text-anchor="middle" x="1321.5" y="-63.5" font-family="Helvetica,sans-Serif" font-size="10.00">itkIntTypes.h</text>
</a>
</g>
</g>
<!-- Node1&#45;&gt;Node12 -->
<g id="edge51" class="edge">
<title>Node1&#45;&gt;Node12</title>
<path fill="none" stroke="midnightblue" d="M1348.06,-627.25C1353.25,-608.74 1364.5,-564.18 1364.5,-526 1364.5,-526 1364.5,-526 1364.5,-356 1364.5,-252.9 1337.4,-131.35 1326.23,-85.63"/>
<polygon fill="midnightblue" stroke="midnightblue" points="1329.62,-84.78 1323.81,-75.92 1322.83,-86.47 1329.62,-84.78"/>
</g>
<!-- Node23 -->
<g id="node23" class="node">
<title>Node23</title>
<g id="a_node23"><a xlink:title=" ">
<polygon fill="white" stroke="#bfbfbf" points="614,-230 614,-249 661,-249 661,-230 614,-230"/>
<text text-anchor="middle" x="637.5" y="-237" font-family="Helvetica,sans-Serif" font-size="10.00">vector</text>
</a>
</g>
</g>
<!-- Node1&#45;&gt;Node23 -->
<g id="edge67" class="edge">
<title>Node1&#45;&gt;Node23</title>
<path fill="none" stroke="midnightblue" d="M1269.5,-633.51C1069.08,-625.93 541.5,-599.04 541.5,-526 541.5,-526 541.5,-526 541.5,-356 541.5,-310.83 585.47,-273.9 613.89,-254.74"/>
<polygon fill="midnightblue" stroke="midnightblue" points="616.01,-257.54 622.5,-249.16 612.21,-251.67 616.01,-257.54"/>
</g>
<!-- Node27 -->
<g id="node27" class="node">
<title>Node27</title>
<g id="a_node27"><a xlink:title=" ">
<polygon fill="white" stroke="#bfbfbf" points="1188,-291.5 1188,-310.5 1253,-310.5 1253,-291.5 1188,-291.5"/>
<text text-anchor="middle" x="1220.5" y="-298.5" font-family="Helvetica,sans-Serif" font-size="10.00">functional</text>
</a>
</g>
</g>
<!-- Node1&#45;&gt;Node27 -->
<g id="edge65" class="edge">
<title>Node1&#45;&gt;Node27</title>
<path fill="none" stroke="midnightblue" d="M1342.94,-627.25C1337.75,-608.74 1326.5,-564.18 1326.5,-526 1326.5,-526 1326.5,-526 1326.5,-412 1326.5,-366.81 1279.55,-333.05 1248.14,-315.52"/>
<polygon fill="midnightblue" stroke="midnightblue" points="1249.43,-312.24 1238.96,-310.61 1246.13,-318.41 1249.43,-312.24"/>
</g>
<!-- Node35 -->
<g id="node35" class="node">
<title>Node35</title>
<g id="a_node35"><a xlink:href="itkNumericTraits_8h.html" target="_top" xlink:title=" ">
<polygon fill="white" stroke="black" points="341.5,-347.5 341.5,-366.5 447.5,-366.5 447.5,-347.5 341.5,-347.5"/>
<text text-anchor="middle" x="394.5" y="-354.5" font-family="Helvetica,sans-Serif" font-size="10.00">itkNumericTraits.h</text>
</a>
</g>
</g>
<!-- Node1&#45;&gt;Node35 -->
<g id="edge52" class="edge">
<title>Node1&#45;&gt;Node35</title>
<path fill="none" stroke="midnightblue" d="M1269.46,-634.54C1079.66,-630.51 595.37,-617.7 527.5,-591 485.51,-574.48 449.5,-571.13 449.5,-526 449.5,-526 449.5,-526 449.5,-468 449.5,-431.57 425.07,-394.84 408.77,-374.39"/>
<polygon fill="midnightblue" stroke="midnightblue" points="411.45,-372.14 402.38,-366.67 406.06,-376.6 411.45,-372.14"/>
</g>
<!-- Node43 -->
<g id="node43" class="node">
<title>Node43</title>
<g id="a_node43"><a xlink:title=" ">
<polygon fill="white" stroke="#bfbfbf" points="1431,-571.5 1431,-590.5 1478,-590.5 1478,-571.5 1431,-571.5"/>
<text text-anchor="middle" x="1454.5" y="-578.5" font-family="Helvetica,sans-Serif" font-size="10.00">queue</text>
</a>
</g>
</g>
<!-- Node1&#45;&gt;Node43 -->
<g id="edge66" class="edge">
<title>Node1&#45;&gt;Node43</title>
<path fill="none" stroke="midnightblue" d="M1363.01,-627.32C1380.57,-618.62 1407.83,-605.12 1428.03,-595.11"/>
<polygon fill="midnightblue" stroke="midnightblue" points="1429.62,-598.23 1437.03,-590.65 1426.52,-591.96 1429.62,-598.23"/>
</g>
<!-- Node44 -->
<g id="node44" class="node">
<title>Node44</title>
<g id="a_node44"><a xlink:title=" ">
<polygon fill="white" stroke="#bfbfbf" points="1496.5,-571.5 1496.5,-590.5 1660.5,-590.5 1660.5,-571.5 1496.5,-571.5"/>
<text text-anchor="middle" x="1578.5" y="-578.5" font-family="Helvetica,sans-Serif" font-size="10.00">itkPriorityQueueContainer.hxx</text>
</a>
</g>
</g>
<!-- Node1&#45;&gt;Node44 -->
<g id="edge68" class="edge">
<title>Node1&#45;&gt;Node44</title>
<path fill="none" stroke="midnightblue" d="M1382.42,-627.44C1422.9,-618.06 1487.92,-602.99 1531.88,-592.8"/>
<polygon fill="midnightblue" stroke="midnightblue" points="1532.8,-596.18 1541.75,-590.52 1531.22,-589.36 1532.8,-596.18"/>
</g>
<!-- Node3 -->
<g id="node3" class="node">
<title>Node3</title>
<g id="a_node3"><a xlink:href="itkObject_8h.html" target="_top" xlink:title=" ">
<polygon fill="white" stroke="black" points="911.5,-347.5 911.5,-366.5 981.5,-366.5 981.5,-347.5 911.5,-347.5"/>
<text text-anchor="middle" x="946.5" y="-354.5" font-family="Helvetica,sans-Serif" font-size="10.00">itkObject.h</text>
</a>
</g>
</g>
<!-- Node2&#45;&gt;Node3 -->
<g id="edge2" class="edge">
<title>Node2&#45;&gt;Node3</title>
<path fill="none" stroke="midnightblue" d="M797.27,-571.36C783.62,-551.34 753.46,-500.3 768.5,-459 788.43,-404.25 855.85,-378.2 901.75,-366.55"/>
<polygon fill="midnightblue" stroke="midnightblue" points="902.58,-369.95 911.48,-364.21 900.94,-363.14 902.58,-369.95"/>
</g>
<!-- Node2&#45;&gt;Node8 -->
<g id="edge48" class="edge">
<title>Node2&#45;&gt;Node8</title>
<path fill="none" stroke="midnightblue" d="M861.52,-578.95C990.26,-575.05 1288.5,-556.66 1288.5,-470 1288.5,-470 1288.5,-470 1288.5,-412 1288.5,-280.51 1363.55,-134.21 1391.32,-84.56"/>
<polygon fill="midnightblue" stroke="midnightblue" points="1394.45,-86.14 1396.35,-75.71 1388.37,-82.68 1394.45,-86.14"/>
</g>
<!-- Node2&#45;&gt;Node23 -->
<g id="edge49" class="edge">
<title>Node2&#45;&gt;Node23</title>
<path fill="none" stroke="midnightblue" d="M745.37,-573.87C692.46,-567.14 619.5,-554.62 598.5,-535 576.5,-514.46 579.5,-500.1 579.5,-470 579.5,-470 579.5,-470 579.5,-356 579.5,-317.15 606.03,-278.02 623.21,-256.76"/>
<polygon fill="midnightblue" stroke="midnightblue" points="625.94,-258.95 629.68,-249.03 620.57,-254.45 625.94,-258.95"/>
</g>
<!-- Node28 -->
<g id="node28" class="node">
<title>Node28</title>
<g id="a_node28"><a xlink:href="itkObjectFactory_8h.html" target="_top" xlink:title=" ">
<polygon fill="white" stroke="black" points="791.5,-515.5 791.5,-534.5 895.5,-534.5 895.5,-515.5 791.5,-515.5"/>
<text text-anchor="middle" x="843.5" y="-522.5" font-family="Helvetica,sans-Serif" font-size="10.00">itkObjectFactory.h</text>
</a>
</g>
</g>
<!-- Node2&#45;&gt;Node28 -->
<g id="edge38" class="edge">
<title>Node2&#45;&gt;Node28</title>
<path fill="none" stroke="midnightblue" d="M810.11,-571.08C815.76,-563.46 824.04,-552.26 830.95,-542.94"/>
<polygon fill="midnightblue" stroke="midnightblue" points="833.88,-544.87 837.02,-534.75 828.25,-540.7 833.88,-544.87"/>
</g>
<!-- Node34 -->
<g id="node34" class="node">
<title>Node34</title>
<g id="a_node34"><a xlink:title=" ">
<polygon fill="white" stroke="#bfbfbf" points="607.5,-515.5 607.5,-534.5 735.5,-534.5 735.5,-515.5 607.5,-515.5"/>
<text text-anchor="middle" x="671.5" y="-522.5" font-family="Helvetica,sans-Serif" font-size="10.00">itkVectorContainer.hxx</text>
</a>
</g>
</g>
<!-- Node2&#45;&gt;Node34 -->
<g id="edge50" class="edge">
<title>Node2&#45;&gt;Node34</title>
<path fill="none" stroke="midnightblue" d="M782.58,-571.44C760.76,-562.52 726.35,-548.44 701.61,-538.32"/>
<polygon fill="midnightblue" stroke="midnightblue" points="702.9,-535.06 692.32,-534.52 700.25,-541.54 702.9,-535.06"/>
</g>
<!-- Node4 -->
<g id="node4" class="node">
<title>Node4</title>
<g id="a_node4"><a xlink:href="itkLightObject_8h.html" target="_top" xlink:title=" ">
<polygon fill="white" stroke="black" points="996.5,-168.5 996.5,-187.5 1090.5,-187.5 1090.5,-168.5 996.5,-168.5"/>
<text text-anchor="middle" x="1043.5" y="-175.5" font-family="Helvetica,sans-Serif" font-size="10.00">itkLightObject.h</text>
</a>
</g>
</g>
<!-- Node3&#45;&gt;Node4 -->
<g id="edge3" class="edge">
<title>Node3&#45;&gt;Node4</title>
<path fill="none" stroke="midnightblue" d="M973.98,-347.42C1010.75,-334.26 1074.36,-305.2 1100.5,-255 1106.86,-242.78 1106.51,-236.4 1100.5,-224 1094.1,-210.8 1081.75,-200.3 1070.17,-192.78"/>
<polygon fill="midnightblue" stroke="midnightblue" points="1071.95,-189.77 1061.58,-187.61 1068.34,-195.77 1071.95,-189.77"/>
</g>
<!-- Node16 -->
<g id="node16" class="node">
<title>Node16</title>
<g id="a_node16"><a xlink:href="itkSingletonMacro_8h.html" target="_top" xlink:title=" ">
<polygon fill="white" stroke="black" points="644.5,-56.5 644.5,-75.5 758.5,-75.5 758.5,-56.5 644.5,-56.5"/>
<text text-anchor="middle" x="701.5" y="-63.5" font-family="Helvetica,sans-Serif" font-size="10.00">itkSingletonMacro.h</text>
</a>
</g>
</g>
<!-- Node3&#45;&gt;Node16 -->
<g id="edge36" class="edge">
<title>Node3&#45;&gt;Node16</title>
<path fill="none" stroke="midnightblue" d="M911.4,-348C866.23,-335.83 788.6,-308.24 746.5,-255 706.12,-203.93 701.1,-122.29 701.03,-85.75"/>
<polygon fill="midnightblue" stroke="midnightblue" points="704.54,-85.61 701.15,-75.57 697.54,-85.53 704.54,-85.61"/>
</g>
<!-- Node19 -->
<g id="node19" class="node">
<title>Node19</title>
<g id="a_node19"><a xlink:href="itkEventObject_8h.html" target="_top" xlink:title=" ">
<polygon fill="white" stroke="black" points="1108.5,-168.5 1108.5,-187.5 1206.5,-187.5 1206.5,-168.5 1108.5,-168.5"/>
<text text-anchor="middle" x="1157.5" y="-175.5" font-family="Helvetica,sans-Serif" font-size="10.00">itkEventObject.h</text>
</a>
</g>
</g>
<!-- Node3&#45;&gt;Node19 -->
<g id="edge24" class="edge">
<title>Node3&#45;&gt;Node19</title>
<path fill="none" stroke="midnightblue" d="M981.61,-349.18C1008.61,-342.67 1045.85,-330.85 1073.5,-311 1114.2,-281.78 1139.85,-226.15 1151.02,-197.33"/>
<polygon fill="midnightblue" stroke="midnightblue" points="1154.39,-198.3 1154.59,-187.71 1147.83,-195.86 1154.39,-198.3"/>
</g>
<!-- Node20 -->
<g id="node20" class="node">
<title>Node20</title>
<g id="a_node20"><a xlink:href="itkMetaDataDictionary_8h.html" target="_top" xlink:title=" ">
<polygon fill="white" stroke="black" points="877,-291.5 877,-310.5 1012,-310.5 1012,-291.5 877,-291.5"/>
<text text-anchor="middle" x="944.5" y="-298.5" font-family="Helvetica,sans-Serif" font-size="10.00">itkMetaDataDictionary.h</text>
</a>
</g>
</g>
<!-- Node3&#45;&gt;Node20 -->
<g id="edge26" class="edge">
<title>Node3&#45;&gt;Node20</title>
<path fill="none" stroke="midnightblue" d="M946.17,-347.08C945.91,-340.01 945.53,-329.86 945.2,-320.99"/>
<polygon fill="midnightblue" stroke="midnightblue" points="948.69,-320.61 944.82,-310.75 941.7,-320.87 948.69,-320.61"/>
</g>
<!-- Node3&#45;&gt;Node27 -->
<g id="edge37" class="edge">
<title>Node3&#45;&gt;Node27</title>
<path fill="none" stroke="midnightblue" d="M981.76,-349.05C1032,-339.15 1124.06,-321.01 1178,-310.38"/>
<polygon fill="midnightblue" stroke="midnightblue" points="1178.8,-313.79 1187.94,-308.42 1177.45,-306.92 1178.8,-313.79"/>
</g>
<!-- Node5 -->
<g id="node5" class="node">
<title>Node5</title>
<g id="a_node5"><a xlink:href="itkMacro_8h.html" target="_top" xlink:title=" ">
<polygon fill="white" stroke="black" points="813.5,-0.5 813.5,-19.5 881.5,-19.5 881.5,-0.5 813.5,-0.5"/>
<text text-anchor="middle" x="847.5" y="-7.5" font-family="Helvetica,sans-Serif" font-size="10.00">itkMacro.h</text>
</a>
</g>
</g>
<!-- Node4&#45;&gt;Node5 -->
<g id="edge4" class="edge">
<title>Node4&#45;&gt;Node5</title>
<path fill="none" stroke="midnightblue" d="M996.27,-173.58C940.99,-168.47 854.44,-156.69 834.5,-132 810.7,-102.53 826.61,-54.99 838.29,-29.14"/>
<polygon fill="midnightblue" stroke="midnightblue" points="841.6,-30.33 842.76,-19.8 835.28,-27.31 841.6,-30.33"/>
</g>
<!-- Node6 -->
<g id="node6" class="node">
<title>Node6</title>
<g id="a_node6"><a xlink:href="itkSmartPointer_8h.html" target="_top" xlink:title=" ">
<polygon fill="white" stroke="black" points="1159,-112.5 1159,-131.5 1260,-131.5 1260,-112.5 1159,-112.5"/>
<text text-anchor="middle" x="1209.5" y="-119.5" font-family="Helvetica,sans-Serif" font-size="10.00">itkSmartPointer.h</text>
</a>
</g>
</g>
<!-- Node4&#45;&gt;Node6 -->
<g id="edge5" class="edge">
<title>Node4&#45;&gt;Node6</title>
<path fill="none" stroke="midnightblue" d="M1069.8,-168.44C1097.85,-159.32 1142.44,-144.81 1173.68,-134.65"/>
<polygon fill="midnightblue" stroke="midnightblue" points="1174.89,-137.94 1183.32,-131.52 1172.73,-131.28 1174.89,-137.94"/>
</g>
<!-- Node7 -->
<g id="node7" class="node">
<title>Node7</title>
<g id="a_node7"><a xlink:title=" ">
<polygon fill="white" stroke="#bfbfbf" points="975.5,-56.5 975.5,-75.5 1035.5,-75.5 1035.5,-56.5 975.5,-56.5"/>
<text text-anchor="middle" x="1005.5" y="-63.5" font-family="Helvetica,sans-Serif" font-size="10.00">iostream</text>
</a>
</g>
</g>
<!-- Node4&#45;&gt;Node7 -->
<g id="edge22" class="edge">
<title>Node4&#45;&gt;Node7</title>
<path fill="none" stroke="midnightblue" d="M1040.52,-168.37C1034.36,-150.54 1020.11,-109.3 1011.81,-85.27"/>
<polygon fill="midnightblue" stroke="midnightblue" points="1015.04,-83.9 1008.47,-75.59 1008.43,-86.19 1015.04,-83.9"/>
</g>
<!-- Node11 -->
<g id="node11" class="node">
<title>Node11</title>
<g id="a_node11"><a xlink:href="itkTimeStamp_8h.html" target="_top" xlink:title=" ">
<polygon fill="white" stroke="black" points="844,-112.5 844,-131.5 939,-131.5 939,-112.5 844,-112.5"/>
<text text-anchor="middle" x="891.5" y="-119.5" font-family="Helvetica,sans-Serif" font-size="10.00">itkTimeStamp.h</text>
</a>
</g>
</g>
<!-- Node4&#45;&gt;Node11 -->
<g id="edge10" class="edge">
<title>Node4&#45;&gt;Node11</title>
<path fill="none" stroke="midnightblue" d="M1019.42,-168.44C993.96,-159.4 953.61,-145.06 925.04,-134.92"/>
<polygon fill="midnightblue" stroke="midnightblue" points="926.07,-131.57 915.47,-131.52 923.72,-138.16 926.07,-131.57"/>
</g>
<!-- Node15 -->
<g id="node15" class="node">
<title>Node15</title>
<g id="a_node15"><a xlink:title=" ">
<polygon fill="white" stroke="#bfbfbf" points="901.5,-56.5 901.5,-75.5 951.5,-75.5 951.5,-56.5 901.5,-56.5"/>
<text text-anchor="middle" x="926.5" y="-63.5" font-family="Helvetica,sans-Serif" font-size="10.00">atomic</text>
</a>
</g>
</g>
<!-- Node4&#45;&gt;Node15 -->
<g id="edge21" class="edge">
<title>Node4&#45;&gt;Node15</title>
<path fill="none" stroke="midnightblue" d="M1034.32,-168.37C1014.67,-149.89 968.29,-106.29 943.25,-82.74"/>
<polygon fill="midnightblue" stroke="midnightblue" points="945.32,-79.89 935.64,-75.59 940.53,-84.99 945.32,-79.89"/>
</g>
<!-- Node17 -->
<g id="node17" class="node">
<title>Node17</title>
<g id="a_node17"><a xlink:href="itkIndent_8h.html" target="_top" xlink:title=" ">
<polygon fill="white" stroke="black" points="1072,-112.5 1072,-131.5 1141,-131.5 1141,-112.5 1072,-112.5"/>
<text text-anchor="middle" x="1106.5" y="-119.5" font-family="Helvetica,sans-Serif" font-size="10.00">itkIndent.h</text>
</a>
</g>
</g>
<!-- Node4&#45;&gt;Node17 -->
<g id="edge18" class="edge">
<title>Node4&#45;&gt;Node17</title>
<path fill="none" stroke="midnightblue" d="M1053.62,-168.32C1063.03,-160.26 1077.24,-148.08 1088.57,-138.37"/>
<polygon fill="midnightblue" stroke="midnightblue" points="1090.88,-141 1096.19,-131.83 1086.32,-135.68 1090.88,-141"/>
</g>
<!-- Node18 -->
<g id="node18" class="node">
<title>Node18</title>
<g id="a_node18"><a xlink:title=" ">
<polygon fill="white" stroke="#bfbfbf" points="730,-112.5 730,-131.5 787,-131.5 787,-112.5 730,-112.5"/>
<text text-anchor="middle" x="758.5" y="-119.5" font-family="Helvetica,sans-Serif" font-size="10.00">typeinfo</text>
</a>
</g>
</g>
<!-- Node4&#45;&gt;Node18 -->
<g id="edge23" class="edge">
<title>Node4&#45;&gt;Node18</title>
<path fill="none" stroke="midnightblue" d="M996.14,-168.52C947.31,-159.7 869,-145.34 801.5,-132 800.05,-131.71 798.57,-131.42 797.08,-131.12"/>
<polygon fill="midnightblue" stroke="midnightblue" points="797.66,-127.66 787.16,-129.09 796.26,-134.52 797.66,-127.66"/>
</g>
<!-- Node6&#45;&gt;Node7 -->
<g id="edge6" class="edge">
<title>Node6&#45;&gt;Node7</title>
<path fill="none" stroke="midnightblue" d="M1177.18,-112.44C1141.49,-103 1084.01,-87.78 1045.52,-77.59"/>
<polygon fill="midnightblue" stroke="midnightblue" points="1046.24,-74.16 1035.68,-74.99 1044.45,-80.93 1046.24,-74.16"/>
</g>
<!-- Node6&#45;&gt;Node8 -->
<g id="edge7" class="edge">
<title>Node6&#45;&gt;Node8</title>
<path fill="none" stroke="midnightblue" d="M1239.92,-112.44C1275.05,-102.56 1332.62,-86.37 1368.71,-76.22"/>
<polygon fill="midnightblue" stroke="midnightblue" points="1370.06,-79.48 1378.74,-73.4 1368.16,-72.74 1370.06,-79.48"/>
</g>
<!-- Node9 -->
<g id="node9" class="node">
<title>Node9</title>
<g id="a_node9"><a xlink:title=" ">
<polygon fill="white" stroke="#bfbfbf" points="1195,-56.5 1195,-75.5 1264,-75.5 1264,-56.5 1195,-56.5"/>
<text text-anchor="middle" x="1229.5" y="-63.5" font-family="Helvetica,sans-Serif" font-size="10.00">type_traits</text>
</a>
</g>
</g>
<!-- Node6&#45;&gt;Node9 -->
<g id="edge8" class="edge">
<title>Node6&#45;&gt;Node9</title>
<path fill="none" stroke="midnightblue" d="M1212.8,-112.08C1215.48,-104.85 1219.35,-94.41 1222.69,-85.4"/>
<polygon fill="midnightblue" stroke="midnightblue" points="1226.07,-86.34 1226.26,-75.75 1219.5,-83.91 1226.07,-86.34"/>
</g>
<!-- Node10 -->
<g id="node10" class="node">
<title>Node10</title>
<g id="a_node10"><a xlink:title=" ">
<polygon fill="white" stroke="#bfbfbf" points="1092,-56.5 1092,-75.5 1177,-75.5 1177,-56.5 1092,-56.5"/>
<text text-anchor="middle" x="1134.5" y="-63.5" font-family="Helvetica,sans-Serif" font-size="10.00">itkConfigure.h</text>
</a>
</g>
</g>
<!-- Node6&#45;&gt;Node10 -->
<g id="edge9" class="edge">
<title>Node6&#45;&gt;Node10</title>
<path fill="none" stroke="midnightblue" d="M1197.45,-112.32C1186.04,-104.11 1168.67,-91.6 1155.07,-81.81"/>
<polygon fill="midnightblue" stroke="midnightblue" points="1156.93,-78.84 1146.77,-75.83 1152.84,-84.52 1156.93,-78.84"/>
</g>
<!-- Node11&#45;&gt;Node5 -->
<g id="edge11" class="edge">
<title>Node11&#45;&gt;Node5</title>
<path fill="none" stroke="midnightblue" d="M888.05,-112.37C880.88,-94.46 864.27,-52.92 854.68,-28.95"/>
<polygon fill="midnightblue" stroke="midnightblue" points="857.9,-27.58 850.94,-19.59 851.4,-30.18 857.9,-27.58"/>
</g>
<!-- Node11&#45;&gt;Node12 -->
<g id="edge12" class="edge">
<title>Node11&#45;&gt;Node12</title>
<path fill="none" stroke="midnightblue" d="M939.15,-116.36C1009.51,-109.3 1145.54,-94.81 1271.73,-76.02"/>
<polygon fill="midnightblue" stroke="midnightblue" points="1272.59,-79.43 1281.96,-74.49 1271.55,-72.51 1272.59,-79.43"/>
</g>
<!-- Node11&#45;&gt;Node15 -->
<g id="edge16" class="edge">
<title>Node11&#45;&gt;Node15</title>
<path fill="none" stroke="midnightblue" d="M897.28,-112.08C902.17,-104.53 909.33,-93.49 915.33,-84.23"/>
<polygon fill="midnightblue" stroke="midnightblue" points="918.33,-86.05 920.83,-75.75 912.45,-82.24 918.33,-86.05"/>
</g>
<!-- Node11&#45;&gt;Node16 -->
<g id="edge17" class="edge">
<title>Node11&#45;&gt;Node16</title>
<path fill="none" stroke="midnightblue" d="M861.39,-112.44C828.87,-103.2 776.92,-88.44 741.11,-78.26"/>
<polygon fill="midnightblue" stroke="midnightblue" points="742.04,-74.88 731.47,-75.52 740.13,-81.62 742.04,-74.88"/>
</g>
<!-- Node12&#45;&gt;Node5 -->
<g id="edge13" class="edge">
<title>Node12&#45;&gt;Node5</title>
<path fill="none" stroke="midnightblue" d="M1281.96,-57.47C1278.77,-56.94 1275.58,-56.45 1272.5,-56 1134.33,-36.03 969.69,-21.1 892.12,-14.6"/>
<polygon fill="midnightblue" stroke="midnightblue" points="892.02,-11.08 881.77,-13.74 891.44,-18.05 892.02,-11.08"/>
</g>
<!-- Node13 -->
<g id="node13" class="node">
<title>Node13</title>
<g id="a_node13"><a xlink:title=" ">
<polygon fill="white" stroke="#bfbfbf" points="1330.5,-0.5 1330.5,-19.5 1380.5,-19.5 1380.5,-0.5 1330.5,-0.5"/>
<text text-anchor="middle" x="1355.5" y="-7.5" font-family="Helvetica,sans-Serif" font-size="10.00">cstdint</text>
</a>
</g>
</g>
<!-- Node12&#45;&gt;Node13 -->
<g id="edge14" class="edge">
<title>Node12&#45;&gt;Node13</title>
<path fill="none" stroke="midnightblue" d="M1327.11,-56.08C1331.87,-48.53 1338.82,-37.49 1344.65,-28.23"/>
<polygon fill="midnightblue" stroke="midnightblue" points="1347.62,-30.08 1349.99,-19.75 1341.7,-26.35 1347.62,-30.08"/>
</g>
<!-- Node14 -->
<g id="node14" class="node">
<title>Node14</title>
<g id="a_node14"><a xlink:title=" ">
<polygon fill="white" stroke="#bfbfbf" points="1262.5,-0.5 1262.5,-19.5 1312.5,-19.5 1312.5,-0.5 1262.5,-0.5"/>
<text text-anchor="middle" x="1287.5" y="-7.5" font-family="Helvetica,sans-Serif" font-size="10.00">climits</text>
</a>
</g>
</g>
<!-- Node12&#45;&gt;Node14 -->
<g id="edge15" class="edge">
<title>Node12&#45;&gt;Node14</title>
<path fill="none" stroke="midnightblue" d="M1315.89,-56.08C1311.13,-48.53 1304.18,-37.49 1298.35,-28.23"/>
<polygon fill="midnightblue" stroke="midnightblue" points="1301.3,-26.35 1293.01,-19.75 1295.38,-30.08 1301.3,-26.35"/>
</g>
<!-- Node17&#45;&gt;Node5 -->
<g id="edge19" class="edge">
<title>Node17&#45;&gt;Node5</title>
<path fill="none" stroke="midnightblue" d="M1100.78,-112.29C1091.02,-98.15 1069.72,-70.33 1044.5,-56 996.7,-28.83 933.6,-18.06 891.84,-13.8"/>
<polygon fill="midnightblue" stroke="midnightblue" points="891.99,-10.3 881.7,-12.85 891.33,-17.27 891.99,-10.3"/>
</g>
<!-- Node17&#45;&gt;Node7 -->
<g id="edge20" class="edge">
<title>Node17&#45;&gt;Node7</title>
<path fill="none" stroke="midnightblue" d="M1090.27,-112.32C1074.15,-103.7 1049.2,-90.36 1030.54,-80.39"/>
<polygon fill="midnightblue" stroke="midnightblue" points="1032.16,-77.28 1021.69,-75.65 1028.86,-83.46 1032.16,-77.28"/>
</g>
<!-- Node19&#45;&gt;Node17 -->
<g id="edge25" class="edge">
<title>Node19&#45;&gt;Node17</title>
<path fill="none" stroke="midnightblue" d="M1149.08,-168.08C1141.65,-160.22 1130.65,-148.57 1121.69,-139.08"/>
<polygon fill="midnightblue" stroke="midnightblue" points="1124.18,-136.62 1114.76,-131.75 1119.09,-141.42 1124.18,-136.62"/>
</g>
<!-- Node21 -->
<g id="node21" class="node">
<title>Node21</title>
<g id="a_node21"><a xlink:href="itkMetaDataObjectBase_8h.html" target="_top" xlink:title=" ">
<polygon fill="white" stroke="black" points="755.5,-230 755.5,-249 897.5,-249 897.5,-230 755.5,-230"/>
<text text-anchor="middle" x="826.5" y="-237" font-family="Helvetica,sans-Serif" font-size="10.00">itkMetaDataObjectBase.h</text>
</a>
</g>
</g>
<!-- Node20&#45;&gt;Node21 -->
<g id="edge27" class="edge">
<title>Node20&#45;&gt;Node21</title>
<path fill="none" stroke="midnightblue" d="M927.59,-291.48C907.97,-281.58 875.37,-265.14 852.51,-253.62"/>
<polygon fill="midnightblue" stroke="midnightblue" points="853.88,-250.39 843.38,-249.01 850.73,-256.64 853.88,-250.39"/>
</g>
<!-- Node22 -->
<g id="node22" class="node">
<title>Node22</title>
<g id="a_node22"><a xlink:title=" ">
<polygon fill="white" stroke="#bfbfbf" points="531.5,-230 531.5,-249 595.5,-249 595.5,-230 531.5,-230"/>
<text text-anchor="middle" x="563.5" y="-237" font-family="Helvetica,sans-Serif" font-size="10.00">algorithm</text>
</a>
</g>
</g>
<!-- Node20&#45;&gt;Node22 -->
<g id="edge31" class="edge">
<title>Node20&#45;&gt;Node22</title>
<path fill="none" stroke="midnightblue" d="M876.97,-295.23C807.82,-289.38 697.57,-277.36 604.5,-255 601.27,-254.22 597.94,-253.29 594.64,-252.27"/>
<polygon fill="midnightblue" stroke="midnightblue" points="595.54,-248.88 584.95,-249.03 593.33,-255.52 595.54,-248.88"/>
</g>
<!-- Node20&#45;&gt;Node23 -->
<g id="edge32" class="edge">
<title>Node20&#45;&gt;Node23</title>
<path fill="none" stroke="midnightblue" d="M900.51,-291.48C838.68,-279.49 727.37,-257.92 671.47,-247.08"/>
<polygon fill="midnightblue" stroke="midnightblue" points="671.87,-243.6 661.38,-245.13 670.54,-250.47 671.87,-243.6"/>
</g>
<!-- Node24 -->
<g id="node24" class="node">
<title>Node24</title>
<g id="a_node24"><a xlink:title=" ">
<polygon fill="white" stroke="#bfbfbf" points="991.5,-230 991.5,-249 1029.5,-249 1029.5,-230 991.5,-230"/>
<text text-anchor="middle" x="1010.5" y="-237" font-family="Helvetica,sans-Serif" font-size="10.00">map</text>
</a>
</g>
</g>
<!-- Node20&#45;&gt;Node24 -->
<g id="edge33" class="edge">
<title>Node20&#45;&gt;Node24</title>
<path fill="none" stroke="midnightblue" d="M953.96,-291.48C964.25,-282.2 980.92,-267.17 993.49,-255.83"/>
<polygon fill="midnightblue" stroke="midnightblue" points="995.98,-258.3 1001.06,-249.01 991.29,-253.11 995.98,-258.3"/>
</g>
<!-- Node25 -->
<g id="node25" class="node">
<title>Node25</title>
<g id="a_node25"><a xlink:title=" ">
<polygon fill="white" stroke="#bfbfbf" points="1047.5,-230 1047.5,-249 1091.5,-249 1091.5,-230 1047.5,-230"/>
<text text-anchor="middle" x="1069.5" y="-237" font-family="Helvetica,sans-Serif" font-size="10.00">string</text>
</a>
</g>
</g>
<!-- Node20&#45;&gt;Node25 -->
<g id="edge34" class="edge">
<title>Node20&#45;&gt;Node25</title>
<path fill="none" stroke="midnightblue" d="M962.41,-291.48C983.39,-281.49 1018.35,-264.85 1042.59,-253.31"/>
<polygon fill="midnightblue" stroke="midnightblue" points="1044.1,-256.47 1051.62,-249.01 1041.09,-250.15 1044.1,-256.47"/>
</g>
<!-- Node26 -->
<g id="node26" class="node">
<title>Node26</title>
<g id="a_node26"><a xlink:title=" ">
<polygon fill="white" stroke="#bfbfbf" points="915.5,-230 915.5,-249 973.5,-249 973.5,-230 915.5,-230"/>
<text text-anchor="middle" x="944.5" y="-237" font-family="Helvetica,sans-Serif" font-size="10.00">memory</text>
</a>
</g>
</g>
<!-- Node20&#45;&gt;Node26 -->
<g id="edge35" class="edge">
<title>Node20&#45;&gt;Node26</title>
<path fill="none" stroke="midnightblue" d="M944.5,-291.48C944.5,-283.08 944.5,-269.98 944.5,-259.16"/>
<polygon fill="midnightblue" stroke="midnightblue" points="948,-259.01 944.5,-249.01 941,-259.01 948,-259.01"/>
</g>
<!-- Node21&#45;&gt;Node4 -->
<g id="edge28" class="edge">
<title>Node21&#45;&gt;Node4</title>
<path fill="none" stroke="midnightblue" d="M857.59,-229.98C895.78,-219.5 960.67,-201.71 1002.8,-190.16"/>
<polygon fill="midnightblue" stroke="midnightblue" points="1003.75,-193.53 1012.47,-187.51 1001.9,-186.78 1003.75,-193.53"/>
</g>
<!-- Node21&#45;&gt;Node7 -->
<g id="edge30" class="edge">
<title>Node21&#45;&gt;Node7</title>
<path fill="none" stroke="midnightblue" d="M837.24,-229.79C858.84,-212.12 908.78,-170.46 947.5,-132 963.34,-116.26 980.21,-97.06 991.64,-83.62"/>
<polygon fill="midnightblue" stroke="midnightblue" points="994.54,-85.61 998.31,-75.71 989.18,-81.1 994.54,-85.61"/>
</g>
<!-- Node21&#45;&gt;Node18 -->
<g id="edge29" class="edge">
<title>Node21&#45;&gt;Node18</title>
<path fill="none" stroke="midnightblue" d="M821.39,-229.82C810.26,-210.92 783.67,-165.75 768.87,-140.62"/>
<polygon fill="midnightblue" stroke="midnightblue" points="771.76,-138.62 763.67,-131.78 765.73,-142.18 771.76,-138.62"/>
</g>
<!-- Node29 -->
<g id="node29" class="node">
<title>Node29</title>
<g id="a_node29"><a xlink:href="itkObjectFactoryBase_8h.html" target="_top" xlink:title=" ">
<polygon fill="white" stroke="black" points="778,-459.5 778,-478.5 907,-478.5 907,-459.5 778,-459.5"/>
<text text-anchor="middle" x="842.5" y="-466.5" font-family="Helvetica,sans-Serif" font-size="10.00">itkObjectFactoryBase.h</text>
</a>
</g>
</g>
<!-- Node28&#45;&gt;Node29 -->
<g id="edge39" class="edge">
<title>Node28&#45;&gt;Node29</title>
<path fill="none" stroke="midnightblue" d="M843.33,-515.08C843.2,-508.01 843.02,-497.86 842.85,-488.99"/>
<polygon fill="midnightblue" stroke="midnightblue" points="846.35,-488.68 842.66,-478.75 839.35,-488.81 846.35,-488.68"/>
</g>
<!-- Node29&#45;&gt;Node16 -->
<g id="edge42" class="edge">
<title>Node29&#45;&gt;Node16</title>
<path fill="none" stroke="midnightblue" d="M837.21,-459.44C831.68,-450.44 822.81,-435.82 815.5,-423 758.36,-322.83 728.45,-301.01 705.5,-188 698.75,-154.76 697.37,-145.9 698.5,-112 698.79,-103.38 699.38,-93.85 699.97,-85.79"/>
<polygon fill="midnightblue" stroke="midnightblue" points="703.47,-85.86 700.75,-75.62 696.49,-85.32 703.47,-85.86"/>
</g>
<!-- Node29&#45;&gt;Node23 -->
<g id="edge47" class="edge">
<title>Node29&#45;&gt;Node23</title>
<path fill="none" stroke="midnightblue" d="M777.67,-465.47C744.02,-460.76 704.78,-449.4 679.5,-423 635.87,-377.45 634.25,-296.13 636.02,-259.41"/>
<polygon fill="midnightblue" stroke="midnightblue" points="639.53,-259.36 636.67,-249.16 632.54,-258.92 639.53,-259.36"/>
</g>
<!-- Node30 -->
<g id="node30" class="node">
<title>Node30</title>
<g id="a_node30"><a xlink:href="itkCreateObjectFunction_8h.html" target="_top" xlink:title=" ">
<polygon fill="white" stroke="black" points="875,-403.5 875,-422.5 1018,-422.5 1018,-403.5 875,-403.5"/>
<text text-anchor="middle" x="946.5" y="-410.5" font-family="Helvetica,sans-Serif" font-size="10.00">itkCreateObjectFunction.h</text>
</a>
</g>
</g>
<!-- Node29&#45;&gt;Node30 -->
<g id="edge40" class="edge">
<title>Node29&#45;&gt;Node30</title>
<path fill="none" stroke="midnightblue" d="M859.21,-459.32C875.81,-450.7 901.5,-437.36 920.72,-427.39"/>
<polygon fill="midnightblue" stroke="midnightblue" points="922.57,-430.37 929.83,-422.65 919.34,-424.16 922.57,-430.37"/>
</g>
<!-- Node31 -->
<g id="node31" class="node">
<title>Node31</title>
<g id="a_node31"><a xlink:href="itkCommonEnums_8h.html" target="_top" xlink:title=" ">
<polygon fill="white" stroke="black" points="1084.5,-403.5 1084.5,-422.5 1200.5,-422.5 1200.5,-403.5 1084.5,-403.5"/>
<text text-anchor="middle" x="1142.5" y="-410.5" font-family="Helvetica,sans-Serif" font-size="10.00">itkCommonEnums.h</text>
</a>
</g>
</g>
<!-- Node29&#45;&gt;Node31 -->
<g id="edge43" class="edge">
<title>Node29&#45;&gt;Node31</title>
<path fill="none" stroke="midnightblue" d="M890.04,-459.44C943.03,-449.9 1028.7,-434.48 1085.32,-424.29"/>
<polygon fill="midnightblue" stroke="midnightblue" points="1085.96,-427.73 1095.19,-422.52 1084.72,-420.84 1085.96,-427.73"/>
</g>
<!-- Node33 -->
<g id="node33" class="node">
<title>Node33</title>
<g id="a_node33"><a xlink:title=" ">
<polygon fill="white" stroke="#bfbfbf" points="824.5,-403.5 824.5,-422.5 856.5,-422.5 856.5,-403.5 824.5,-403.5"/>
<text text-anchor="middle" x="840.5" y="-410.5" font-family="Helvetica,sans-Serif" font-size="10.00">list</text>
</a>
</g>
</g>
<!-- Node29&#45;&gt;Node33 -->
<g id="edge46" class="edge">
<title>Node29&#45;&gt;Node33</title>
<path fill="none" stroke="midnightblue" d="M842.17,-459.08C841.91,-452.01 841.53,-441.86 841.2,-432.99"/>
<polygon fill="midnightblue" stroke="midnightblue" points="844.69,-432.61 840.82,-422.75 837.7,-432.87 844.69,-432.61"/>
</g>
<!-- Node30&#45;&gt;Node3 -->
<g id="edge41" class="edge">
<title>Node30&#45;&gt;Node3</title>
<path fill="none" stroke="midnightblue" d="M946.5,-403.08C946.5,-396.01 946.5,-385.86 946.5,-376.99"/>
<polygon fill="midnightblue" stroke="midnightblue" points="950,-376.75 946.5,-366.75 943,-376.75 950,-376.75"/>
</g>
<!-- Node31&#45;&gt;Node12 -->
<g id="edge44" class="edge">
<title>Node31&#45;&gt;Node12</title>
<path fill="none" stroke="midnightblue" d="M1157.96,-403.33C1183.63,-388.12 1234.84,-354.09 1261.5,-311 1273.58,-291.48 1306.37,-139.05 1317.64,-85.51"/>
<polygon fill="midnightblue" stroke="midnightblue" points="1321.07,-86.18 1319.7,-75.67 1314.22,-84.74 1321.07,-86.18"/>
</g>
<!-- Node32 -->
<g id="node32" class="node">
<title>Node32</title>
<g id="a_node32"><a xlink:title=" ">
<polygon fill="white" stroke="#bfbfbf" points="1114,-347.5 1114,-366.5 1171,-366.5 1171,-347.5 1114,-347.5"/>
<text text-anchor="middle" x="1142.5" y="-354.5" font-family="Helvetica,sans-Serif" font-size="10.00">ostream</text>
</a>
</g>
</g>
<!-- Node31&#45;&gt;Node32 -->
<g id="edge45" class="edge">
<title>Node31&#45;&gt;Node32</title>
<path fill="none" stroke="midnightblue" d="M1142.5,-403.08C1142.5,-396.01 1142.5,-385.86 1142.5,-376.99"/>
<polygon fill="midnightblue" stroke="midnightblue" points="1146,-376.75 1142.5,-366.75 1139,-376.75 1146,-376.75"/>
</g>
<!-- Node35&#45;&gt;Node5 -->
<g id="edge53" class="edge">
<title>Node35&#45;&gt;Node5</title>
<path fill="none" stroke="midnightblue" d="M414.54,-347.38C430.49,-339.7 452.56,-327.19 467.5,-311 491.36,-285.14 503.5,-275.68 503.5,-240.5 503.5,-240.5 503.5,-240.5 503.5,-121 503.5,-58.75 710.44,-26.89 803.31,-15.73"/>
<polygon fill="midnightblue" stroke="midnightblue" points="803.74,-19.2 813.26,-14.56 802.92,-12.25 803.74,-19.2"/>
</g>
<!-- Node36 -->
<g id="node36" class="node">
<title>Node36</title>
<g id="a_node36"><a xlink:title=" ">
<polygon fill="white" stroke="#bfbfbf" points="337.5,-291.5 337.5,-310.5 381.5,-310.5 381.5,-291.5 337.5,-291.5"/>
<text text-anchor="middle" x="359.5" y="-298.5" font-family="Helvetica,sans-Serif" font-size="10.00">limits</text>
</a>
</g>
</g>
<!-- Node35&#45;&gt;Node36 -->
<g id="edge54" class="edge">
<title>Node35&#45;&gt;Node36</title>
<path fill="none" stroke="midnightblue" d="M388.72,-347.08C383.83,-339.53 376.67,-328.49 370.67,-319.23"/>
<polygon fill="midnightblue" stroke="midnightblue" points="373.55,-317.24 365.17,-310.75 367.67,-321.05 373.55,-317.24"/>
</g>
<!-- Node37 -->
<g id="node37" class="node">
<title>Node37</title>
<g id="a_node37"><a xlink:title=" ">
<polygon fill="white" stroke="#bfbfbf" points="400,-291.5 400,-310.5 459,-310.5 459,-291.5 400,-291.5"/>
<text text-anchor="middle" x="429.5" y="-298.5" font-family="Helvetica,sans-Serif" font-size="10.00">complex</text>
</a>
</g>
</g>
<!-- Node35&#45;&gt;Node37 -->
<g id="edge55" class="edge">
<title>Node35&#45;&gt;Node37</title>
<path fill="none" stroke="midnightblue" d="M400.28,-347.08C405.17,-339.53 412.33,-328.49 418.33,-319.23"/>
<polygon fill="midnightblue" stroke="midnightblue" points="421.33,-321.05 423.83,-310.75 415.45,-317.24 421.33,-321.05"/>
</g>
<!-- Node38 -->
<g id="node38" class="node">
<title>Node38</title>
<g id="a_node38"><a xlink:href="itkFixedArray_8h.html" target="_top" xlink:title=" ">
<polygon fill="white" stroke="black" points="198,-291.5 198,-310.5 287,-310.5 287,-291.5 198,-291.5"/>
<text text-anchor="middle" x="242.5" y="-298.5" font-family="Helvetica,sans-Serif" font-size="10.00">itkFixedArray.h</text>
</a>
</g>
</g>
<!-- Node35&#45;&gt;Node38 -->
<g id="edge56" class="edge">
<title>Node35&#45;&gt;Node38</title>
<path fill="none" stroke="midnightblue" d="M370.42,-347.44C344.96,-338.4 304.61,-324.06 276.04,-313.92"/>
<polygon fill="midnightblue" stroke="midnightblue" points="277.07,-310.57 266.47,-310.52 274.72,-317.16 277.07,-310.57"/>
</g>
<!-- Node38&#45;&gt;Node5 -->
<g id="edge57" class="edge">
<title>Node38&#45;&gt;Node5</title>
<path fill="none" stroke="midnightblue" d="M230.22,-291.43C219.47,-283.27 204.24,-270.04 195.5,-255 178.02,-224.89 176.5,-213.82 176.5,-179 176.5,-179 176.5,-179 176.5,-121 176.5,-57.31 653.4,-22.83 803.1,-13.57"/>
<polygon fill="midnightblue" stroke="midnightblue" points="803.53,-17.05 813.3,-12.95 803.11,-10.06 803.53,-17.05"/>
</g>
<!-- Node38&#45;&gt;Node22 -->
<g id="edge59" class="edge">
<title>Node38&#45;&gt;Node22</title>
<path fill="none" stroke="midnightblue" d="M287.13,-291.73C349.18,-280.23 460.69,-259.56 521.37,-248.31"/>
<polygon fill="midnightblue" stroke="midnightblue" points="522.18,-251.72 531.37,-246.46 520.9,-244.84 522.18,-251.72"/>
</g>
<!-- Node39 -->
<g id="node39" class="node">
<title>Node39</title>
<g id="a_node39"><a xlink:href="itkMakeFilled_8h.html" target="_top" xlink:title=" ">
<polygon fill="white" stroke="black" points="384,-230 384,-249 475,-249 475,-230 384,-230"/>
<text text-anchor="middle" x="429.5" y="-237" font-family="Helvetica,sans-Serif" font-size="10.00">itkMakeFilled.h</text>
</a>
</g>
</g>
<!-- Node38&#45;&gt;Node39 -->
<g id="edge58" class="edge">
<title>Node38&#45;&gt;Node39</title>
<path fill="none" stroke="midnightblue" d="M269.29,-291.48C301.79,-281.14 356.71,-263.66 393.04,-252.1"/>
<polygon fill="midnightblue" stroke="midnightblue" points="394.29,-255.38 402.76,-249.01 392.17,-248.71 394.29,-255.38"/>
</g>
<!-- Node40 -->
<g id="node40" class="node">
<title>Node40</title>
<g id="a_node40"><a xlink:title=" ">
<polygon fill="white" stroke="#bfbfbf" points="204.5,-230 204.5,-249 246.5,-249 246.5,-230 204.5,-230"/>
<text text-anchor="middle" x="225.5" y="-237" font-family="Helvetica,sans-Serif" font-size="10.00">array</text>
</a>
</g>
</g>
<!-- Node38&#45;&gt;Node40 -->
<g id="edge60" class="edge">
<title>Node38&#45;&gt;Node40</title>
<path fill="none" stroke="midnightblue" d="M240.06,-291.48C237.64,-282.99 233.84,-269.7 230.73,-258.82"/>
<polygon fill="midnightblue" stroke="midnightblue" points="234.04,-257.66 227.93,-249.01 227.31,-259.59 234.04,-257.66"/>
</g>
<!-- Node41 -->
<g id="node41" class="node">
<title>Node41</title>
<g id="a_node41"><a xlink:title=" ">
<polygon fill="white" stroke="#bfbfbf" points="265,-230 265,-249 366,-249 366,-230 265,-230"/>
<text text-anchor="middle" x="315.5" y="-237" font-family="Helvetica,sans-Serif" font-size="10.00">itkFixedArray.hxx</text>
</a>
</g>
</g>
<!-- Node38&#45;&gt;Node41 -->
<g id="edge61" class="edge">
<title>Node38&#45;&gt;Node41</title>
<path fill="none" stroke="midnightblue" d="M252.96,-291.48C264.45,-282.11 283.13,-266.88 297.09,-255.51"/>
<polygon fill="midnightblue" stroke="midnightblue" points="299.52,-258.04 305.06,-249.01 295.1,-252.61 299.52,-258.04"/>
</g>
<!-- Node42 -->
<g id="node42" class="node">
<title>Node42</title>
<g id="a_node42"><a xlink:href="itkNumericTraitsFixedArrayPixel_8h.html" target="_top" xlink:title=" ">
<polygon fill="white" stroke="black" points="0,-224.5 0,-254.5 149,-254.5 149,-224.5 0,-224.5"/>
<text text-anchor="start" x="8" y="-242.5" font-family="Helvetica,sans-Serif" font-size="10.00">itkNumericTraitsFixedArray</text>
<text text-anchor="middle" x="74.5" y="-231.5" font-family="Helvetica,sans-Serif" font-size="10.00">Pixel.h</text>
</a>
</g>
</g>
<!-- Node38&#45;&gt;Node42 -->
<g id="edge62" class="edge">
<title>Node38&#45;&gt;Node42</title>
<path fill="none" stroke="midnightblue" d="M213.53,-291.48C187.07,-282.78 147.81,-269.03 117.69,-258"/>
<polygon fill="midnightblue" stroke="midnightblue" points="118.86,-254.7 108.26,-254.52 116.44,-261.27 118.86,-254.7"/>
</g>
<!-- Node42&#45;&gt;Node35 -->
<g id="edge63" class="edge">
<title>Node42&#45;&gt;Node35</title>
<path fill="none" stroke="midnightblue" d="M92.8,-254.57C114.49,-270.56 152.26,-296.34 188.5,-311 234.58,-329.65 289.75,-341.17 331.38,-347.89"/>
<polygon fill="midnightblue" stroke="midnightblue" points="330.98,-351.36 341.4,-349.45 332.06,-344.45 330.98,-351.36"/>
</g>
<!-- Node42&#45;&gt;Node38 -->
<g id="edge64" class="edge">
<title>Node42&#45;&gt;Node38</title>
<path fill="none" stroke="midnightblue" d="M119.92,-254.52C149.82,-264.65 187.95,-278.18 213.75,-287.85"/>
<polygon fill="midnightblue" stroke="midnightblue" points="212.74,-291.21 223.33,-291.48 215.22,-284.66 212.74,-291.21"/>
</g>
</g>
</svg>
