<?xml version="1.0" encoding="UTF-8" standalone="no"?>
<!DOCTYPE svg PUBLIC "-//W3C//DTD SVG 1.1//EN"
 "http://www.w3.org/Graphics/SVG/1.1/DTD/svg11.dtd">
<!-- Generated by graphviz version 2.43.0 (0)
 -->
<!-- Title: itkProgressTransformer.h Pages: 1 -->
<svg width="1671pt" height="711pt"
 viewBox="0.00 0.00 1671.00 711.00" xmlns="http://www.w3.org/2000/svg" xmlns:xlink="http://www.w3.org/1999/xlink">
<g id="graph0" class="graph" transform="scale(1 1) rotate(0) translate(4 707)">
<title>itkProgressTransformer.h</title>
<polygon fill="white" stroke="transparent" points="-4,4 -4,-707 1667,-707 1667,4 -4,4"/>
<!-- Node1 -->
<g id="node1" class="node">
<title>Node1</title>
<g id="a_node1"><a xlink:title=" ">
<polygon fill="#bfbfbf" stroke="black" points="710,-683.5 710,-702.5 848,-702.5 848,-683.5 710,-683.5"/>
<text text-anchor="middle" x="779" y="-690.5" font-family="Helvetica,sans-Serif" font-size="10.00">itkProgressTransformer.h</text>
</a>
</g>
</g>
<!-- Node2 -->
<g id="node2" class="node">
<title>Node2</title>
<g id="a_node2"><a xlink:href="itkProcessObject_8h.html" target="_top" xlink:title=" ">
<polygon fill="white" stroke="black" points="837.5,-627.5 837.5,-646.5 944.5,-646.5 944.5,-627.5 837.5,-627.5"/>
<text text-anchor="middle" x="891" y="-634.5" font-family="Helvetica,sans-Serif" font-size="10.00">itkProcessObject.h</text>
</a>
</g>
</g>
<!-- Node1&#45;&gt;Node2 -->
<g id="edge1" class="edge">
<title>Node1&#45;&gt;Node2</title>
<path fill="none" stroke="midnightblue" d="M796.99,-683.32C815.04,-674.62 843.05,-661.12 863.8,-651.11"/>
<polygon fill="midnightblue" stroke="midnightblue" points="865.56,-654.15 873.05,-646.65 862.52,-647.84 865.56,-654.15"/>
</g>
<!-- Node50 -->
<g id="node50" class="node">
<title>Node50</title>
<g id="a_node50"><a xlink:href="itkCommand_8h.html" target="_top" xlink:title=" ">
<polygon fill="white" stroke="black" points="385.5,-571.5 385.5,-590.5 474.5,-590.5 474.5,-571.5 385.5,-571.5"/>
<text text-anchor="middle" x="430" y="-578.5" font-family="Helvetica,sans-Serif" font-size="10.00">itkCommand.h</text>
</a>
</g>
</g>
<!-- Node1&#45;&gt;Node50 -->
<g id="edge83" class="edge">
<title>Node1&#45;&gt;Node50</title>
<path fill="none" stroke="midnightblue" d="M751.9,-683.46C689.93,-663.93 537.75,-615.96 467.13,-593.7"/>
<polygon fill="midnightblue" stroke="midnightblue" points="467.91,-590.28 457.32,-590.61 465.8,-596.95 467.91,-590.28"/>
</g>
<!-- Node3 -->
<g id="node3" class="node">
<title>Node3</title>
<g id="a_node3"><a xlink:href="itkDataObject_8h.html" target="_top" xlink:title=" ">
<polygon fill="white" stroke="black" points="784.5,-571.5 784.5,-590.5 877.5,-590.5 877.5,-571.5 784.5,-571.5"/>
<text text-anchor="middle" x="831" y="-578.5" font-family="Helvetica,sans-Serif" font-size="10.00">itkDataObject.h</text>
</a>
</g>
</g>
<!-- Node2&#45;&gt;Node3 -->
<g id="edge2" class="edge">
<title>Node2&#45;&gt;Node3</title>
<path fill="none" stroke="midnightblue" d="M881.36,-627.32C872.49,-619.34 859.13,-607.31 848.39,-597.65"/>
<polygon fill="midnightblue" stroke="midnightblue" points="850.59,-594.92 840.82,-590.83 845.91,-600.13 850.59,-594.92"/>
</g>
<!-- Node23 -->
<g id="node23" class="node">
<title>Node23</title>
<g id="a_node23"><a xlink:title=" ">
<polygon fill="white" stroke="#bfbfbf" points="1078,-230 1078,-249 1142,-249 1142,-230 1078,-230"/>
<text text-anchor="middle" x="1110" y="-237" font-family="Helvetica,sans-Serif" font-size="10.00">algorithm</text>
</a>
</g>
</g>
<!-- Node2&#45;&gt;Node23 -->
<g id="edge81" class="edge">
<title>Node2&#45;&gt;Node23</title>
<path fill="none" stroke="midnightblue" d="M944.68,-631.98C1006.56,-626.34 1103.31,-614.06 1131,-591 1154.78,-571.19 1156,-556.95 1156,-526 1156,-526 1156,-526 1156,-356 1156,-318.77 1135.12,-279.28 1121.49,-257.47"/>
<polygon fill="midnightblue" stroke="midnightblue" points="1124.39,-255.51 1116.01,-249.02 1118.52,-259.31 1124.39,-255.51"/>
</g>
<!-- Node24 -->
<g id="node24" class="node">
<title>Node24</title>
<g id="a_node24"><a xlink:title=" ">
<polygon fill="white" stroke="#bfbfbf" points="186.5,-230 186.5,-249 233.5,-249 233.5,-230 186.5,-230"/>
<text text-anchor="middle" x="210" y="-237" font-family="Helvetica,sans-Serif" font-size="10.00">vector</text>
</a>
</g>
</g>
<!-- Node2&#45;&gt;Node24 -->
<g id="edge78" class="edge">
<title>Node2&#45;&gt;Node24</title>
<path fill="none" stroke="midnightblue" d="M837.27,-635.05C644.64,-630.94 0,-610.85 0,-526 0,-526 0,-526 0,-356 0,-276.51 116.93,-251.34 176.29,-243.68"/>
<polygon fill="midnightblue" stroke="midnightblue" points="176.8,-247.15 186.32,-242.49 175.97,-240.2 176.8,-247.15"/>
</g>
<!-- Node25 -->
<g id="node25" class="node">
<title>Node25</title>
<g id="a_node25"><a xlink:title=" ">
<polygon fill="white" stroke="#bfbfbf" points="728,-230 728,-249 766,-249 766,-230 728,-230"/>
<text text-anchor="middle" x="747" y="-237" font-family="Helvetica,sans-Serif" font-size="10.00">map</text>
</a>
</g>
</g>
<!-- Node2&#45;&gt;Node25 -->
<g id="edge79" class="edge">
<title>Node2&#45;&gt;Node25</title>
<path fill="none" stroke="midnightblue" d="M837.28,-627.83C814.79,-621.57 790.54,-610.52 776,-591 698.88,-487.46 729.37,-315.86 742.32,-259.26"/>
<polygon fill="midnightblue" stroke="midnightblue" points="745.79,-259.79 744.71,-249.25 738.98,-258.17 745.79,-259.79"/>
</g>
<!-- Node32 -->
<g id="node32" class="node">
<title>Node32</title>
<g id="a_node32"><a xlink:href="itkObjectFactory_8h.html" target="_top" xlink:title=" ">
<polygon fill="white" stroke="black" points="531,-515.5 531,-534.5 635,-534.5 635,-515.5 531,-515.5"/>
<text text-anchor="middle" x="583" y="-522.5" font-family="Helvetica,sans-Serif" font-size="10.00">itkObjectFactory.h</text>
</a>
</g>
</g>
<!-- Node2&#45;&gt;Node32 -->
<g id="edge61" class="edge">
<title>Node2&#45;&gt;Node32</title>
<path fill="none" stroke="midnightblue" d="M840.34,-627.46C802.11,-620.15 748.77,-608.08 704,-591 667.61,-577.11 628.41,-554.49 604.79,-539.93"/>
<polygon fill="midnightblue" stroke="midnightblue" points="606.58,-536.93 596.25,-534.6 602.88,-542.86 606.58,-536.93"/>
</g>
<!-- Node38 -->
<g id="node38" class="node">
<title>Node38</title>
<g id="a_node38"><a xlink:href="itkNumericTraits_8h.html" target="_top" xlink:title=" ">
<polygon fill="white" stroke="black" points="1453,-347.5 1453,-366.5 1559,-366.5 1559,-347.5 1453,-347.5"/>
<text text-anchor="middle" x="1506" y="-354.5" font-family="Helvetica,sans-Serif" font-size="10.00">itkNumericTraits.h</text>
</a>
</g>
</g>
<!-- Node2&#45;&gt;Node38 -->
<g id="edge62" class="edge">
<title>Node2&#45;&gt;Node38</title>
<path fill="none" stroke="midnightblue" d="M944.55,-634.39C1065.63,-629.3 1350,-608.56 1350,-526 1350,-526 1350,-526 1350,-468 1350,-413.82 1413.63,-383.97 1459.62,-369.48"/>
<polygon fill="midnightblue" stroke="midnightblue" points="1460.85,-372.77 1469.42,-366.54 1458.84,-366.06 1460.85,-372.77"/>
</g>
<!-- Node46 -->
<g id="node46" class="node">
<title>Node46</title>
<g id="a_node46"><a xlink:href="itkThreadSupport_8h.html" target="_top" xlink:title=" ">
<polygon fill="white" stroke="black" points="896,-571.5 896,-590.5 1006,-590.5 1006,-571.5 896,-571.5"/>
<text text-anchor="middle" x="951" y="-578.5" font-family="Helvetica,sans-Serif" font-size="10.00">itkThreadSupport.h</text>
</a>
</g>
</g>
<!-- Node2&#45;&gt;Node46 -->
<g id="edge75" class="edge">
<title>Node2&#45;&gt;Node46</title>
<path fill="none" stroke="midnightblue" d="M900.64,-627.32C909.51,-619.34 922.87,-607.31 933.61,-597.65"/>
<polygon fill="midnightblue" stroke="midnightblue" points="936.09,-600.13 941.18,-590.83 931.41,-594.92 936.09,-600.13"/>
</g>
<!-- Node48 -->
<g id="node48" class="node">
<title>Node48</title>
<g id="a_node48"><a xlink:title=" ">
<polygon fill="white" stroke="#bfbfbf" points="1024,-571.5 1024,-590.5 1056,-590.5 1056,-571.5 1024,-571.5"/>
<text text-anchor="middle" x="1040" y="-578.5" font-family="Helvetica,sans-Serif" font-size="10.00">set</text>
</a>
</g>
</g>
<!-- Node2&#45;&gt;Node48 -->
<g id="edge80" class="edge">
<title>Node2&#45;&gt;Node48</title>
<path fill="none" stroke="midnightblue" d="M914.61,-627.44C941.8,-617.59 986.3,-601.46 1014.33,-591.3"/>
<polygon fill="midnightblue" stroke="midnightblue" points="1015.64,-594.55 1023.85,-587.85 1013.25,-587.97 1015.64,-594.55"/>
</g>
<!-- Node49 -->
<g id="node49" class="node">
<title>Node49</title>
<g id="a_node49"><a xlink:title=" ">
<polygon fill="white" stroke="#bfbfbf" points="1074,-571.5 1074,-590.5 1122,-590.5 1122,-571.5 1074,-571.5"/>
<text text-anchor="middle" x="1098" y="-578.5" font-family="Helvetica,sans-Serif" font-size="10.00">thread</text>
</a>
</g>
</g>
<!-- Node2&#45;&gt;Node49 -->
<g id="edge82" class="edge">
<title>Node2&#45;&gt;Node49</title>
<path fill="none" stroke="midnightblue" d="M924.72,-627.42C957.81,-618.97 1009.97,-605.57 1064.09,-591.22"/>
<polygon fill="midnightblue" stroke="midnightblue" points="1065.09,-594.57 1073.86,-588.62 1063.3,-587.81 1065.09,-594.57"/>
</g>
<!-- Node4 -->
<g id="node4" class="node">
<title>Node4</title>
<g id="a_node4"><a xlink:href="itkObject_8h.html" target="_top" xlink:title=" ">
<polygon fill="white" stroke="black" points="440,-347.5 440,-366.5 510,-366.5 510,-347.5 440,-347.5"/>
<text text-anchor="middle" x="475" y="-354.5" font-family="Helvetica,sans-Serif" font-size="10.00">itkObject.h</text>
</a>
</g>
</g>
<!-- Node3&#45;&gt;Node4 -->
<g id="edge3" class="edge">
<title>Node3&#45;&gt;Node4</title>
<path fill="none" stroke="midnightblue" d="M821,-571.39C783.88,-539.55 653.68,-428.97 606,-403 578.75,-388.16 545.7,-376.85 519.61,-369.28"/>
<polygon fill="midnightblue" stroke="midnightblue" points="520.55,-365.91 509.98,-366.56 518.65,-372.64 520.55,-365.91"/>
</g>
<!-- Node6 -->
<g id="node6" class="node">
<title>Node6</title>
<g id="a_node6"><a xlink:href="itkMacro_8h.html" target="_top" xlink:title=" ">
<polygon fill="white" stroke="black" points="812,-0.5 812,-19.5 880,-19.5 880,-0.5 812,-0.5"/>
<text text-anchor="middle" x="846" y="-7.5" font-family="Helvetica,sans-Serif" font-size="10.00">itkMacro.h</text>
</a>
</g>
</g>
<!-- Node3&#45;&gt;Node6 -->
<g id="edge39" class="edge">
<title>Node3&#45;&gt;Node6</title>
<path fill="none" stroke="midnightblue" d="M877.61,-572.47C931.24,-560.84 1012,-532.88 1012,-470 1012,-470 1012,-470 1012,-300 1012,-214.38 1096.97,-186.05 1054,-112 1019.98,-53.37 940.33,-28.14 890.06,-17.76"/>
<polygon fill="midnightblue" stroke="midnightblue" points="890.6,-14.3 880.11,-15.82 889.26,-21.17 890.6,-14.3"/>
</g>
<!-- Node17 -->
<g id="node17" class="node">
<title>Node17</title>
<g id="a_node17"><a xlink:href="itkSingletonMacro_8h.html" target="_top" xlink:title=" ">
<polygon fill="white" stroke="black" points="275,-56.5 275,-75.5 389,-75.5 389,-56.5 275,-56.5"/>
<text text-anchor="middle" x="332" y="-63.5" font-family="Helvetica,sans-Serif" font-size="10.00">itkSingletonMacro.h</text>
</a>
</g>
</g>
<!-- Node3&#45;&gt;Node17 -->
<g id="edge40" class="edge">
<title>Node3&#45;&gt;Node17</title>
<path fill="none" stroke="midnightblue" d="M826.01,-571.49C815.91,-553.44 794,-509.69 794,-470 794,-470 794,-470 794,-300 794,-265.18 799.37,-248.86 775,-224 747.68,-196.13 471.77,-147.62 436,-132 404.56,-118.27 371.49,-96.07 351.3,-81.5"/>
<polygon fill="midnightblue" stroke="midnightblue" points="353.37,-78.68 343.23,-75.59 349.23,-84.32 353.37,-78.68"/>
</g>
<!-- Node29 -->
<g id="node29" class="node">
<title>Node29</title>
<g id="a_node29"><a xlink:href="itkWeakPointer_8h.html" target="_top" xlink:title=" ">
<polygon fill="white" stroke="black" points="945.5,-112.5 945.5,-131.5 1044.5,-131.5 1044.5,-112.5 945.5,-112.5"/>
<text text-anchor="middle" x="995" y="-119.5" font-family="Helvetica,sans-Serif" font-size="10.00">itkWeakPointer.h</text>
</a>
</g>
</g>
<!-- Node3&#45;&gt;Node29 -->
<g id="edge41" class="edge">
<title>Node3&#45;&gt;Node29</title>
<path fill="none" stroke="midnightblue" d="M861.68,-571.46C903.7,-557.68 974,-526.22 974,-470 974,-470 974,-470 974,-238.5 974,-203.8 983.29,-164.18 989.51,-141.52"/>
<polygon fill="midnightblue" stroke="midnightblue" points="992.96,-142.17 992.34,-131.6 986.23,-140.25 992.96,-142.17"/>
</g>
<!-- Node30 -->
<g id="node30" class="node">
<title>Node30</title>
<g id="a_node30"><a xlink:href="itkRealTimeStamp_8h.html" target="_top" xlink:title=" ">
<polygon fill="white" stroke="black" points="821,-168.5 821,-187.5 937,-187.5 937,-168.5 821,-168.5"/>
<text text-anchor="middle" x="879" y="-175.5" font-family="Helvetica,sans-Serif" font-size="10.00">itkRealTimeStamp.h</text>
</a>
</g>
</g>
<!-- Node3&#45;&gt;Node30 -->
<g id="edge44" class="edge">
<title>Node3&#45;&gt;Node30</title>
<path fill="none" stroke="midnightblue" d="M832.83,-571.49C836.63,-553.07 845,-508.12 845,-470 845,-470 845,-470 845,-300 845,-262.16 860.61,-220.05 870.67,-196.83"/>
<polygon fill="midnightblue" stroke="midnightblue" points="873.93,-198.13 874.83,-187.57 867.54,-195.26 873.93,-198.13"/>
</g>
<!-- Node3&#45;&gt;Node32 -->
<g id="edge51" class="edge">
<title>Node3&#45;&gt;Node32</title>
<path fill="none" stroke="midnightblue" d="M791.7,-571.44C748.44,-562.02 678.83,-546.87 632.03,-536.68"/>
<polygon fill="midnightblue" stroke="midnightblue" points="632.63,-533.22 622.11,-534.52 631.14,-540.06 632.63,-533.22"/>
</g>
<!-- Node5 -->
<g id="node5" class="node">
<title>Node5</title>
<g id="a_node5"><a xlink:href="itkLightObject_8h.html" target="_top" xlink:title=" ">
<polygon fill="white" stroke="black" points="449,-168.5 449,-187.5 543,-187.5 543,-168.5 449,-168.5"/>
<text text-anchor="middle" x="496" y="-175.5" font-family="Helvetica,sans-Serif" font-size="10.00">itkLightObject.h</text>
</a>
</g>
</g>
<!-- Node4&#45;&gt;Node5 -->
<g id="edge4" class="edge">
<title>Node4&#45;&gt;Node5</title>
<path fill="none" stroke="midnightblue" d="M506.78,-347.46C546.88,-334.77 614.11,-306.69 643,-255 649.72,-242.97 651.19,-235.08 643,-224 622.45,-196.22 585.08,-185.03 553.16,-180.75"/>
<polygon fill="midnightblue" stroke="midnightblue" points="553.35,-177.25 543.02,-179.59 552.56,-184.2 553.35,-177.25"/>
</g>
<!-- Node4&#45;&gt;Node17 -->
<g id="edge37" class="edge">
<title>Node4&#45;&gt;Node17</title>
<path fill="none" stroke="midnightblue" d="M443.22,-347.46C403.12,-334.77 335.89,-306.69 307,-255 275.85,-199.26 306.24,-120.08 322.81,-84.96"/>
<polygon fill="midnightblue" stroke="midnightblue" points="326.17,-86.07 327.43,-75.55 319.88,-82.99 326.17,-86.07"/>
</g>
<!-- Node20 -->
<g id="node20" class="node">
<title>Node20</title>
<g id="a_node20"><a xlink:href="itkEventObject_8h.html" target="_top" xlink:title=" ">
<polygon fill="white" stroke="black" points="705,-168.5 705,-187.5 803,-187.5 803,-168.5 705,-168.5"/>
<text text-anchor="middle" x="754" y="-175.5" font-family="Helvetica,sans-Serif" font-size="10.00">itkEventObject.h</text>
</a>
</g>
</g>
<!-- Node4&#45;&gt;Node20 -->
<g id="edge25" class="edge">
<title>Node4&#45;&gt;Node20</title>
<path fill="none" stroke="midnightblue" d="M510.21,-349.15C539.45,-342.42 581.37,-330.32 614,-311 667.69,-279.21 717.56,-223.54 740.61,-195.76"/>
<polygon fill="midnightblue" stroke="midnightblue" points="743.5,-197.74 747.12,-187.78 738.08,-193.32 743.5,-197.74"/>
</g>
<!-- Node21 -->
<g id="node21" class="node">
<title>Node21</title>
<g id="a_node21"><a xlink:href="itkMetaDataDictionary_8h.html" target="_top" xlink:title=" ">
<polygon fill="white" stroke="black" points="407.5,-291.5 407.5,-310.5 542.5,-310.5 542.5,-291.5 407.5,-291.5"/>
<text text-anchor="middle" x="475" y="-298.5" font-family="Helvetica,sans-Serif" font-size="10.00">itkMetaDataDictionary.h</text>
</a>
</g>
</g>
<!-- Node4&#45;&gt;Node21 -->
<g id="edge27" class="edge">
<title>Node4&#45;&gt;Node21</title>
<path fill="none" stroke="midnightblue" d="M475,-347.08C475,-340.01 475,-329.86 475,-320.99"/>
<polygon fill="midnightblue" stroke="midnightblue" points="478.5,-320.75 475,-310.75 471.5,-320.75 478.5,-320.75"/>
</g>
<!-- Node28 -->
<g id="node28" class="node">
<title>Node28</title>
<g id="a_node28"><a xlink:title=" ">
<polygon fill="white" stroke="#bfbfbf" points="238.5,-291.5 238.5,-310.5 303.5,-310.5 303.5,-291.5 238.5,-291.5"/>
<text text-anchor="middle" x="271" y="-298.5" font-family="Helvetica,sans-Serif" font-size="10.00">functional</text>
</a>
</g>
</g>
<!-- Node4&#45;&gt;Node28 -->
<g id="edge38" class="edge">
<title>Node4&#45;&gt;Node28</title>
<path fill="none" stroke="midnightblue" d="M442.68,-347.44C407.61,-338.16 351.5,-323.31 313.04,-313.13"/>
<polygon fill="midnightblue" stroke="midnightblue" points="313.74,-309.69 303.17,-310.52 311.94,-316.46 313.74,-309.69"/>
</g>
<!-- Node5&#45;&gt;Node6 -->
<g id="edge5" class="edge">
<title>Node5&#45;&gt;Node6</title>
<path fill="none" stroke="midnightblue" d="M476.7,-168.48C462.57,-161.08 444.44,-148.89 436,-132 426.87,-113.74 432.52,-67.9 445,-56 470.44,-31.75 702.43,-17.86 801.49,-13"/>
<polygon fill="midnightblue" stroke="midnightblue" points="801.95,-16.48 811.77,-12.5 801.62,-9.49 801.95,-16.48"/>
</g>
<!-- Node7 -->
<g id="node7" class="node">
<title>Node7</title>
<g id="a_node7"><a xlink:href="itkSmartPointer_8h.html" target="_top" xlink:title=" ">
<polygon fill="white" stroke="black" points="445.5,-112.5 445.5,-131.5 546.5,-131.5 546.5,-112.5 445.5,-112.5"/>
<text text-anchor="middle" x="496" y="-119.5" font-family="Helvetica,sans-Serif" font-size="10.00">itkSmartPointer.h</text>
</a>
</g>
</g>
<!-- Node5&#45;&gt;Node7 -->
<g id="edge6" class="edge">
<title>Node5&#45;&gt;Node7</title>
<path fill="none" stroke="midnightblue" d="M496,-168.08C496,-161.01 496,-150.86 496,-141.99"/>
<polygon fill="midnightblue" stroke="midnightblue" points="499.5,-141.75 496,-131.75 492.5,-141.75 499.5,-141.75"/>
</g>
<!-- Node8 -->
<g id="node8" class="node">
<title>Node8</title>
<g id="a_node8"><a xlink:title=" ">
<polygon fill="white" stroke="#bfbfbf" points="671,-56.5 671,-75.5 731,-75.5 731,-56.5 671,-56.5"/>
<text text-anchor="middle" x="701" y="-63.5" font-family="Helvetica,sans-Serif" font-size="10.00">iostream</text>
</a>
</g>
</g>
<!-- Node5&#45;&gt;Node8 -->
<g id="edge23" class="edge">
<title>Node5&#45;&gt;Node8</title>
<path fill="none" stroke="midnightblue" d="M507.47,-168.49C525.49,-155.34 561.82,-129.75 595,-112 618.74,-99.3 646.84,-87.51 668.14,-79.18"/>
<polygon fill="midnightblue" stroke="midnightblue" points="669.63,-82.36 677.7,-75.5 667.11,-75.83 669.63,-82.36"/>
</g>
<!-- Node12 -->
<g id="node12" class="node">
<title>Node12</title>
<g id="a_node12"><a xlink:href="itkTimeStamp_8h.html" target="_top" xlink:title=" ">
<polygon fill="white" stroke="black" points="179.5,-112.5 179.5,-131.5 274.5,-131.5 274.5,-112.5 179.5,-112.5"/>
<text text-anchor="middle" x="227" y="-119.5" font-family="Helvetica,sans-Serif" font-size="10.00">itkTimeStamp.h</text>
</a>
</g>
</g>
<!-- Node5&#45;&gt;Node12 -->
<g id="edge11" class="edge">
<title>Node5&#45;&gt;Node12</title>
<path fill="none" stroke="midnightblue" d="M453.38,-168.44C406.25,-158.98 330.31,-143.74 279.54,-133.55"/>
<polygon fill="midnightblue" stroke="midnightblue" points="279.92,-130.05 269.42,-131.52 278.54,-136.92 279.92,-130.05"/>
</g>
<!-- Node16 -->
<g id="node16" class="node">
<title>Node16</title>
<g id="a_node16"><a xlink:title=" ">
<polygon fill="white" stroke="#bfbfbf" points="42,-56.5 42,-75.5 92,-75.5 92,-56.5 42,-56.5"/>
<text text-anchor="middle" x="67" y="-63.5" font-family="Helvetica,sans-Serif" font-size="10.00">atomic</text>
</a>
</g>
</g>
<!-- Node5&#45;&gt;Node16 -->
<g id="edge22" class="edge">
<title>Node5&#45;&gt;Node16</title>
<path fill="none" stroke="midnightblue" d="M448.97,-177.48C355.39,-177.53 150.08,-172.83 95,-132 80.37,-121.15 73.29,-101.08 69.93,-86.1"/>
<polygon fill="midnightblue" stroke="midnightblue" points="73.3,-85.06 68.02,-75.87 66.42,-86.34 73.3,-85.06"/>
</g>
<!-- Node18 -->
<g id="node18" class="node">
<title>Node18</title>
<g id="a_node18"><a xlink:href="itkIndent_8h.html" target="_top" xlink:title=" ">
<polygon fill="white" stroke="black" points="603.5,-112.5 603.5,-131.5 672.5,-131.5 672.5,-112.5 603.5,-112.5"/>
<text text-anchor="middle" x="638" y="-119.5" font-family="Helvetica,sans-Serif" font-size="10.00">itkIndent.h</text>
</a>
</g>
</g>
<!-- Node5&#45;&gt;Node18 -->
<g id="edge19" class="edge">
<title>Node5&#45;&gt;Node18</title>
<path fill="none" stroke="midnightblue" d="M518.5,-168.44C542.08,-159.48 579.32,-145.31 605.96,-135.18"/>
<polygon fill="midnightblue" stroke="midnightblue" points="607.5,-138.34 615.6,-131.52 605.01,-131.8 607.5,-138.34"/>
</g>
<!-- Node19 -->
<g id="node19" class="node">
<title>Node19</title>
<g id="a_node19"><a xlink:title=" ">
<polygon fill="white" stroke="#bfbfbf" points="104.5,-112.5 104.5,-131.5 161.5,-131.5 161.5,-112.5 104.5,-112.5"/>
<text text-anchor="middle" x="133" y="-119.5" font-family="Helvetica,sans-Serif" font-size="10.00">typeinfo</text>
</a>
</g>
</g>
<!-- Node5&#45;&gt;Node19 -->
<g id="edge24" class="edge">
<title>Node5&#45;&gt;Node19</title>
<path fill="none" stroke="midnightblue" d="M448.79,-172.01C387.15,-165.15 275.74,-151.61 171.67,-132.17"/>
<polygon fill="midnightblue" stroke="midnightblue" points="172.1,-128.68 161.62,-130.27 170.8,-135.56 172.1,-128.68"/>
</g>
<!-- Node7&#45;&gt;Node8 -->
<g id="edge7" class="edge">
<title>Node7&#45;&gt;Node8</title>
<path fill="none" stroke="midnightblue" d="M528.48,-112.44C564.34,-103 622.1,-87.78 660.79,-77.59"/>
<polygon fill="midnightblue" stroke="midnightblue" points="661.9,-80.92 670.67,-74.99 660.11,-74.15 661.9,-80.92"/>
</g>
<!-- Node9 -->
<g id="node9" class="node">
<title>Node9</title>
<g id="a_node9"><a xlink:title=" ">
<polygon fill="white" stroke="#bfbfbf" points="540.5,-56.5 540.5,-75.5 585.5,-75.5 585.5,-56.5 540.5,-56.5"/>
<text text-anchor="middle" x="563" y="-63.5" font-family="Helvetica,sans-Serif" font-size="10.00">utility</text>
</a>
</g>
</g>
<!-- Node7&#45;&gt;Node9 -->
<g id="edge8" class="edge">
<title>Node7&#45;&gt;Node9</title>
<path fill="none" stroke="midnightblue" d="M506.76,-112.32C516.77,-104.26 531.89,-92.08 543.93,-82.37"/>
<polygon fill="midnightblue" stroke="midnightblue" points="546.45,-84.83 552.04,-75.83 542.06,-79.38 546.45,-84.83"/>
</g>
<!-- Node10 -->
<g id="node10" class="node">
<title>Node10</title>
<g id="a_node10"><a xlink:title=" ">
<polygon fill="white" stroke="#bfbfbf" points="453.5,-56.5 453.5,-75.5 522.5,-75.5 522.5,-56.5 453.5,-56.5"/>
<text text-anchor="middle" x="488" y="-63.5" font-family="Helvetica,sans-Serif" font-size="10.00">type_traits</text>
</a>
</g>
</g>
<!-- Node7&#45;&gt;Node10 -->
<g id="edge9" class="edge">
<title>Node7&#45;&gt;Node10</title>
<path fill="none" stroke="midnightblue" d="M494.68,-112.08C493.62,-104.93 492.09,-94.64 490.77,-85.69"/>
<polygon fill="midnightblue" stroke="midnightblue" points="494.22,-85.13 489.3,-75.75 487.3,-86.16 494.22,-85.13"/>
</g>
<!-- Node11 -->
<g id="node11" class="node">
<title>Node11</title>
<g id="a_node11"><a xlink:title=" ">
<polygon fill="white" stroke="#bfbfbf" points="803.5,-56.5 803.5,-75.5 888.5,-75.5 888.5,-56.5 803.5,-56.5"/>
<text text-anchor="middle" x="846" y="-63.5" font-family="Helvetica,sans-Serif" font-size="10.00">itkConfigure.h</text>
</a>
</g>
</g>
<!-- Node7&#45;&gt;Node11 -->
<g id="edge10" class="edge">
<title>Node7&#45;&gt;Node11</title>
<path fill="none" stroke="midnightblue" d="M546.52,-113.21C612.33,-103.05 726.85,-85.38 793.58,-75.09"/>
<polygon fill="midnightblue" stroke="midnightblue" points="794.12,-78.55 803.47,-73.56 793.05,-71.63 794.12,-78.55"/>
</g>
<!-- Node12&#45;&gt;Node6 -->
<g id="edge12" class="edge">
<title>Node12&#45;&gt;Node6</title>
<path fill="none" stroke="midnightblue" d="M229.34,-112.43C233.79,-97.97 244.96,-69.01 266,-56 311.17,-28.06 673.66,-15.66 801.53,-12.12"/>
<polygon fill="midnightblue" stroke="midnightblue" points="801.85,-15.61 811.75,-11.84 801.66,-8.61 801.85,-15.61"/>
</g>
<!-- Node13 -->
<g id="node13" class="node">
<title>Node13</title>
<g id="a_node13"><a xlink:href="itkIntTypes_8h.html" target="_top" xlink:title=" ">
<polygon fill="white" stroke="black" points="139.5,-56.5 139.5,-75.5 218.5,-75.5 218.5,-56.5 139.5,-56.5"/>
<text text-anchor="middle" x="179" y="-63.5" font-family="Helvetica,sans-Serif" font-size="10.00">itkIntTypes.h</text>
</a>
</g>
</g>
<!-- Node12&#45;&gt;Node13 -->
<g id="edge13" class="edge">
<title>Node12&#45;&gt;Node13</title>
<path fill="none" stroke="midnightblue" d="M219.07,-112.08C212.15,-104.3 201.93,-92.8 193.55,-83.37"/>
<polygon fill="midnightblue" stroke="midnightblue" points="196.04,-80.9 186.78,-75.75 190.81,-85.55 196.04,-80.9"/>
</g>
<!-- Node12&#45;&gt;Node16 -->
<g id="edge17" class="edge">
<title>Node12&#45;&gt;Node16</title>
<path fill="none" stroke="midnightblue" d="M201.65,-112.44C174.73,-103.36 132,-88.94 101.91,-78.78"/>
<polygon fill="midnightblue" stroke="midnightblue" points="102.83,-75.4 92.23,-75.52 100.59,-82.03 102.83,-75.4"/>
</g>
<!-- Node12&#45;&gt;Node17 -->
<g id="edge18" class="edge">
<title>Node12&#45;&gt;Node17</title>
<path fill="none" stroke="midnightblue" d="M243.87,-112.32C260.71,-103.66 286.81,-90.24 306.24,-80.25"/>
<polygon fill="midnightblue" stroke="midnightblue" points="307.88,-83.34 315.17,-75.65 304.68,-77.12 307.88,-83.34"/>
</g>
<!-- Node13&#45;&gt;Node6 -->
<g id="edge14" class="edge">
<title>Node13&#45;&gt;Node6</title>
<path fill="none" stroke="midnightblue" d="M218.75,-57.95C223.54,-57.23 228.38,-56.55 233,-56 445.08,-30.6 700.28,-17.41 801.51,-12.86"/>
<polygon fill="midnightblue" stroke="midnightblue" points="801.83,-16.35 811.67,-12.41 801.52,-9.36 801.83,-16.35"/>
</g>
<!-- Node14 -->
<g id="node14" class="node">
<title>Node14</title>
<g id="a_node14"><a xlink:title=" ">
<polygon fill="white" stroke="#bfbfbf" points="120,-0.5 120,-19.5 170,-19.5 170,-0.5 120,-0.5"/>
<text text-anchor="middle" x="145" y="-7.5" font-family="Helvetica,sans-Serif" font-size="10.00">cstdint</text>
</a>
</g>
</g>
<!-- Node13&#45;&gt;Node14 -->
<g id="edge15" class="edge">
<title>Node13&#45;&gt;Node14</title>
<path fill="none" stroke="midnightblue" d="M173.39,-56.08C168.63,-48.53 161.68,-37.49 155.85,-28.23"/>
<polygon fill="midnightblue" stroke="midnightblue" points="158.8,-26.35 150.51,-19.75 152.88,-30.08 158.8,-26.35"/>
</g>
<!-- Node15 -->
<g id="node15" class="node">
<title>Node15</title>
<g id="a_node15"><a xlink:title=" ">
<polygon fill="white" stroke="#bfbfbf" points="188,-0.5 188,-19.5 238,-19.5 238,-0.5 188,-0.5"/>
<text text-anchor="middle" x="213" y="-7.5" font-family="Helvetica,sans-Serif" font-size="10.00">climits</text>
</a>
</g>
</g>
<!-- Node13&#45;&gt;Node15 -->
<g id="edge16" class="edge">
<title>Node13&#45;&gt;Node15</title>
<path fill="none" stroke="midnightblue" d="M184.61,-56.08C189.37,-48.53 196.32,-37.49 202.15,-28.23"/>
<polygon fill="midnightblue" stroke="midnightblue" points="205.12,-30.08 207.49,-19.75 199.2,-26.35 205.12,-30.08"/>
</g>
<!-- Node18&#45;&gt;Node6 -->
<g id="edge20" class="edge">
<title>Node18&#45;&gt;Node6</title>
<path fill="none" stroke="midnightblue" d="M638.66,-112.42C640.2,-98.46 645.3,-70.9 662,-56 700.38,-21.76 760.53,-12.56 801.53,-10.59"/>
<polygon fill="midnightblue" stroke="midnightblue" points="801.91,-14.07 811.78,-10.22 801.66,-7.08 801.91,-14.07"/>
</g>
<!-- Node18&#45;&gt;Node8 -->
<g id="edge21" class="edge">
<title>Node18&#45;&gt;Node8</title>
<path fill="none" stroke="midnightblue" d="M648.12,-112.32C657.53,-104.26 671.74,-92.08 683.07,-82.37"/>
<polygon fill="midnightblue" stroke="midnightblue" points="685.38,-85 690.69,-75.83 680.82,-79.68 685.38,-85"/>
</g>
<!-- Node20&#45;&gt;Node18 -->
<g id="edge26" class="edge">
<title>Node20&#45;&gt;Node18</title>
<path fill="none" stroke="midnightblue" d="M735.62,-168.44C716.78,-159.68 687.27,-145.94 665.62,-135.86"/>
<polygon fill="midnightblue" stroke="midnightblue" points="666.84,-132.56 656.29,-131.52 663.88,-138.91 666.84,-132.56"/>
</g>
<!-- Node22 -->
<g id="node22" class="node">
<title>Node22</title>
<g id="a_node22"><a xlink:href="itkMetaDataObjectBase_8h.html" target="_top" xlink:title=" ">
<polygon fill="white" stroke="black" points="492,-230 492,-249 634,-249 634,-230 492,-230"/>
<text text-anchor="middle" x="563" y="-237" font-family="Helvetica,sans-Serif" font-size="10.00">itkMetaDataObjectBase.h</text>
</a>
</g>
</g>
<!-- Node21&#45;&gt;Node22 -->
<g id="edge28" class="edge">
<title>Node21&#45;&gt;Node22</title>
<path fill="none" stroke="midnightblue" d="M487.61,-291.48C501.72,-281.93 524.83,-266.31 541.75,-254.87"/>
<polygon fill="midnightblue" stroke="midnightblue" points="544.09,-257.51 550.42,-249.01 540.17,-251.71 544.09,-257.51"/>
</g>
<!-- Node21&#45;&gt;Node23 -->
<g id="edge32" class="edge">
<title>Node21&#45;&gt;Node23</title>
<path fill="none" stroke="midnightblue" d="M542.66,-293.66C673.94,-281.36 959.81,-254.57 1067.67,-244.47"/>
<polygon fill="midnightblue" stroke="midnightblue" points="1068.21,-247.93 1077.84,-243.51 1067.56,-240.96 1068.21,-247.93"/>
</g>
<!-- Node21&#45;&gt;Node24 -->
<g id="edge33" class="edge">
<title>Node21&#45;&gt;Node24</title>
<path fill="none" stroke="midnightblue" d="M437.03,-291.48C385.19,-279.84 293.07,-259.15 243.61,-248.05"/>
<polygon fill="midnightblue" stroke="midnightblue" points="244.25,-244.6 233.73,-245.83 242.72,-251.43 244.25,-244.6"/>
</g>
<!-- Node21&#45;&gt;Node25 -->
<g id="edge34" class="edge">
<title>Node21&#45;&gt;Node25</title>
<path fill="none" stroke="midnightblue" d="M513.97,-291.48C569.12,-279.41 668.7,-257.63 717.89,-246.87"/>
<polygon fill="midnightblue" stroke="midnightblue" points="718.84,-250.24 727.86,-244.69 717.34,-243.4 718.84,-250.24"/>
</g>
<!-- Node26 -->
<g id="node26" class="node">
<title>Node26</title>
<g id="a_node26"><a xlink:title=" ">
<polygon fill="white" stroke="#bfbfbf" points="316,-230 316,-249 360,-249 360,-230 316,-230"/>
<text text-anchor="middle" x="338" y="-237" font-family="Helvetica,sans-Serif" font-size="10.00">string</text>
</a>
</g>
</g>
<!-- Node21&#45;&gt;Node26 -->
<g id="edge35" class="edge">
<title>Node21&#45;&gt;Node26</title>
<path fill="none" stroke="midnightblue" d="M454.19,-291.42C432.74,-282.53 398.4,-268.11 369,-255 367.81,-254.47 366.6,-253.92 365.37,-253.37"/>
<polygon fill="midnightblue" stroke="midnightblue" points="366.53,-250.05 355.98,-249.04 363.6,-256.41 366.53,-250.05"/>
</g>
<!-- Node27 -->
<g id="node27" class="node">
<title>Node27</title>
<g id="a_node27"><a xlink:title=" ">
<polygon fill="white" stroke="#bfbfbf" points="378,-230 378,-249 436,-249 436,-230 378,-230"/>
<text text-anchor="middle" x="407" y="-237" font-family="Helvetica,sans-Serif" font-size="10.00">memory</text>
</a>
</g>
</g>
<!-- Node21&#45;&gt;Node27 -->
<g id="edge36" class="edge">
<title>Node21&#45;&gt;Node27</title>
<path fill="none" stroke="midnightblue" d="M465.26,-291.48C454.65,-282.2 437.48,-267.17 424.52,-255.83"/>
<polygon fill="midnightblue" stroke="midnightblue" points="426.56,-252.96 416.72,-249.01 421.95,-258.23 426.56,-252.96"/>
</g>
<!-- Node22&#45;&gt;Node5 -->
<g id="edge29" class="edge">
<title>Node22&#45;&gt;Node5</title>
<path fill="none" stroke="midnightblue" d="M553.4,-229.98C542.95,-220.7 526.03,-205.67 513.26,-194.33"/>
<polygon fill="midnightblue" stroke="midnightblue" points="515.38,-191.53 505.58,-187.51 510.73,-196.77 515.38,-191.53"/>
</g>
<!-- Node22&#45;&gt;Node8 -->
<g id="edge31" class="edge">
<title>Node22&#45;&gt;Node8</title>
<path fill="none" stroke="midnightblue" d="M577.05,-229.8C601.96,-213.64 653.9,-176.56 682,-132 690.92,-117.86 695.79,-99.37 698.36,-85.73"/>
<polygon fill="midnightblue" stroke="midnightblue" points="701.85,-86.05 700.02,-75.62 694.95,-84.92 701.85,-86.05"/>
</g>
<!-- Node22&#45;&gt;Node19 -->
<g id="edge30" class="edge">
<title>Node22&#45;&gt;Node19</title>
<path fill="none" stroke="midnightblue" d="M531.03,-229.91C453.49,-209.09 255.64,-155.94 171.65,-133.38"/>
<polygon fill="midnightblue" stroke="midnightblue" points="172.31,-129.94 161.75,-130.72 170.5,-136.7 172.31,-129.94"/>
</g>
<!-- Node29&#45;&gt;Node6 -->
<g id="edge42" class="edge">
<title>Node29&#45;&gt;Node6</title>
<path fill="none" stroke="midnightblue" d="M987.84,-112.16C976.71,-98.8 954.12,-73.21 931,-56 913.87,-43.25 892.64,-32 875.68,-23.95"/>
<polygon fill="midnightblue" stroke="midnightblue" points="876.8,-20.61 866.26,-19.58 873.86,-26.96 876.8,-20.61"/>
</g>
<!-- Node29&#45;&gt;Node8 -->
<g id="edge43" class="edge">
<title>Node29&#45;&gt;Node8</title>
<path fill="none" stroke="midnightblue" d="M948.41,-112.44C891.22,-101.94 795.18,-84.3 741.12,-74.37"/>
<polygon fill="midnightblue" stroke="midnightblue" points="741.68,-70.91 731.21,-72.55 740.41,-77.8 741.68,-70.91"/>
</g>
<!-- Node30&#45;&gt;Node6 -->
<g id="edge49" class="edge">
<title>Node30&#45;&gt;Node6</title>
<path fill="none" stroke="midnightblue" d="M883.56,-168.33C893.7,-147.82 915.86,-95.07 898,-56 892.22,-43.36 880.95,-32.91 870.37,-25.27"/>
<polygon fill="midnightblue" stroke="midnightblue" points="872.04,-22.18 861.78,-19.53 868.15,-28 872.04,-22.18"/>
</g>
<!-- Node30&#45;&gt;Node8 -->
<g id="edge50" class="edge">
<title>Node30&#45;&gt;Node8</title>
<path fill="none" stroke="midnightblue" d="M878.98,-168.08C878.46,-154.15 875.36,-127.23 860,-112 828.48,-80.75 776.98,-70.83 741.16,-67.88"/>
<polygon fill="midnightblue" stroke="midnightblue" points="741.26,-64.38 731.05,-67.2 740.79,-71.37 741.26,-64.38"/>
</g>
<!-- Node31 -->
<g id="node31" class="node">
<title>Node31</title>
<g id="a_node31"><a xlink:href="itkRealTimeInterval_8h.html" target="_top" xlink:title=" ">
<polygon fill="white" stroke="black" points="729,-112.5 729,-131.5 851,-131.5 851,-112.5 729,-112.5"/>
<text text-anchor="middle" x="790" y="-119.5" font-family="Helvetica,sans-Serif" font-size="10.00">itkRealTimeInterval.h</text>
</a>
</g>
</g>
<!-- Node30&#45;&gt;Node31 -->
<g id="edge45" class="edge">
<title>Node30&#45;&gt;Node31</title>
<path fill="none" stroke="midnightblue" d="M864.7,-168.32C850.82,-159.9 829.51,-146.97 813.2,-137.07"/>
<polygon fill="midnightblue" stroke="midnightblue" points="814.63,-133.85 804.26,-131.65 811,-139.83 814.63,-133.85"/>
</g>
<!-- Node31&#45;&gt;Node6 -->
<g id="edge47" class="edge">
<title>Node31&#45;&gt;Node6</title>
<path fill="none" stroke="midnightblue" d="M788.71,-112.47C787.16,-99.51 785.81,-74.44 795,-56 801.17,-43.61 812.38,-33.14 822.72,-25.42"/>
<polygon fill="midnightblue" stroke="midnightblue" points="824.87,-28.19 831.07,-19.6 820.87,-22.45 824.87,-28.19"/>
</g>
<!-- Node31&#45;&gt;Node8 -->
<g id="edge48" class="edge">
<title>Node31&#45;&gt;Node8</title>
<path fill="none" stroke="midnightblue" d="M775.7,-112.32C761.82,-103.9 740.51,-90.97 724.2,-81.07"/>
<polygon fill="midnightblue" stroke="midnightblue" points="725.63,-77.85 715.26,-75.65 722,-83.83 725.63,-77.85"/>
</g>
<!-- Node31&#45;&gt;Node13 -->
<g id="edge46" class="edge">
<title>Node31&#45;&gt;Node13</title>
<path fill="none" stroke="midnightblue" d="M728.66,-115.87C610.29,-105.94 354.29,-84.36 266,-76 253.95,-74.86 240.98,-73.56 228.82,-72.3"/>
<polygon fill="midnightblue" stroke="midnightblue" points="229.14,-68.82 218.83,-71.27 228.42,-75.78 229.14,-68.82"/>
</g>
<!-- Node33 -->
<g id="node33" class="node">
<title>Node33</title>
<g id="a_node33"><a xlink:href="itkObjectFactoryBase_8h.html" target="_top" xlink:title=" ">
<polygon fill="white" stroke="black" points="463.5,-459.5 463.5,-478.5 592.5,-478.5 592.5,-459.5 463.5,-459.5"/>
<text text-anchor="middle" x="528" y="-466.5" font-family="Helvetica,sans-Serif" font-size="10.00">itkObjectFactoryBase.h</text>
</a>
</g>
</g>
<!-- Node32&#45;&gt;Node33 -->
<g id="edge52" class="edge">
<title>Node32&#45;&gt;Node33</title>
<path fill="none" stroke="midnightblue" d="M573.92,-515.08C565.83,-507.14 553.8,-495.34 544.09,-485.8"/>
<polygon fill="midnightblue" stroke="midnightblue" points="546.5,-483.26 536.91,-478.75 541.6,-488.25 546.5,-483.26"/>
</g>
<!-- Node33&#45;&gt;Node17 -->
<g id="edge55" class="edge">
<title>Node33&#45;&gt;Node17</title>
<path fill="none" stroke="midnightblue" d="M557.12,-459.44C574.64,-452.62 595.52,-441.14 606,-423 631.05,-379.64 631.84,-373.41 552,-291 527.93,-266.16 510.67,-275.75 483,-255 452.7,-232.27 386.92,-162.89 365,-132 354.6,-117.34 345.58,-98.94 339.61,-85.46"/>
<polygon fill="midnightblue" stroke="midnightblue" points="342.66,-83.69 335.51,-75.87 336.23,-86.44 342.66,-83.69"/>
</g>
<!-- Node33&#45;&gt;Node24 -->
<g id="edge60" class="edge">
<title>Node33&#45;&gt;Node24</title>
<path fill="none" stroke="midnightblue" d="M488.67,-459.46C423.18,-443.03 292.69,-400.43 229,-311 218.1,-295.7 213.45,-274.48 211.47,-259.33"/>
<polygon fill="midnightblue" stroke="midnightblue" points="214.93,-258.71 210.42,-249.12 207.96,-259.43 214.93,-258.71"/>
</g>
<!-- Node34 -->
<g id="node34" class="node">
<title>Node34</title>
<g id="a_node34"><a xlink:href="itkCreateObjectFunction_8h.html" target="_top" xlink:title=" ">
<polygon fill="white" stroke="black" points="403.5,-403.5 403.5,-422.5 546.5,-422.5 546.5,-403.5 403.5,-403.5"/>
<text text-anchor="middle" x="475" y="-410.5" font-family="Helvetica,sans-Serif" font-size="10.00">itkCreateObjectFunction.h</text>
</a>
</g>
</g>
<!-- Node33&#45;&gt;Node34 -->
<g id="edge53" class="edge">
<title>Node33&#45;&gt;Node34</title>
<path fill="none" stroke="midnightblue" d="M519.25,-459.08C511.53,-451.22 500.1,-439.57 490.78,-430.08"/>
<polygon fill="midnightblue" stroke="midnightblue" points="493.09,-427.44 483.59,-422.75 488.1,-432.34 493.09,-427.44"/>
</g>
<!-- Node35 -->
<g id="node35" class="node">
<title>Node35</title>
<g id="a_node35"><a xlink:href="itkCommonEnums_8h.html" target="_top" xlink:title=" ">
<polygon fill="white" stroke="black" points="66,-403.5 66,-422.5 182,-422.5 182,-403.5 66,-403.5"/>
<text text-anchor="middle" x="124" y="-410.5" font-family="Helvetica,sans-Serif" font-size="10.00">itkCommonEnums.h</text>
</a>
</g>
</g>
<!-- Node33&#45;&gt;Node35 -->
<g id="edge56" class="edge">
<title>Node33&#45;&gt;Node35</title>
<path fill="none" stroke="midnightblue" d="M463.98,-459.44C389.78,-449.52 267.98,-433.24 192.08,-423.1"/>
<polygon fill="midnightblue" stroke="midnightblue" points="192.52,-419.63 182.15,-421.77 191.59,-426.57 192.52,-419.63"/>
</g>
<!-- Node37 -->
<g id="node37" class="node">
<title>Node37</title>
<g id="a_node37"><a xlink:title=" ">
<polygon fill="white" stroke="#bfbfbf" points="565,-403.5 565,-422.5 597,-422.5 597,-403.5 565,-403.5"/>
<text text-anchor="middle" x="581" y="-410.5" font-family="Helvetica,sans-Serif" font-size="10.00">list</text>
</a>
</g>
</g>
<!-- Node33&#45;&gt;Node37 -->
<g id="edge59" class="edge">
<title>Node33&#45;&gt;Node37</title>
<path fill="none" stroke="midnightblue" d="M536.75,-459.08C544.47,-451.22 555.9,-439.57 565.22,-430.08"/>
<polygon fill="midnightblue" stroke="midnightblue" points="567.9,-432.34 572.41,-422.75 562.91,-427.44 567.9,-432.34"/>
</g>
<!-- Node34&#45;&gt;Node4 -->
<g id="edge54" class="edge">
<title>Node34&#45;&gt;Node4</title>
<path fill="none" stroke="midnightblue" d="M475,-403.08C475,-396.01 475,-385.86 475,-376.99"/>
<polygon fill="midnightblue" stroke="midnightblue" points="478.5,-376.75 475,-366.75 471.5,-376.75 478.5,-376.75"/>
</g>
<!-- Node35&#45;&gt;Node13 -->
<g id="edge57" class="edge">
<title>Node35&#45;&gt;Node13</title>
<path fill="none" stroke="midnightblue" d="M117.33,-403.44C104.14,-385.62 76,-342.84 76,-302 76,-302 76,-302 76,-177 76,-146.9 76.04,-135.37 95,-112 107.03,-97.18 125.27,-86.58 141.69,-79.4"/>
<polygon fill="midnightblue" stroke="midnightblue" points="143.15,-82.59 151.08,-75.57 140.5,-76.11 143.15,-82.59"/>
</g>
<!-- Node36 -->
<g id="node36" class="node">
<title>Node36</title>
<g id="a_node36"><a xlink:title=" ">
<polygon fill="white" stroke="#bfbfbf" points="104.5,-347.5 104.5,-366.5 161.5,-366.5 161.5,-347.5 104.5,-347.5"/>
<text text-anchor="middle" x="133" y="-354.5" font-family="Helvetica,sans-Serif" font-size="10.00">ostream</text>
</a>
</g>
</g>
<!-- Node35&#45;&gt;Node36 -->
<g id="edge58" class="edge">
<title>Node35&#45;&gt;Node36</title>
<path fill="none" stroke="midnightblue" d="M125.49,-403.08C126.68,-395.93 128.39,-385.64 129.88,-376.69"/>
<polygon fill="midnightblue" stroke="midnightblue" points="133.35,-377.19 131.54,-366.75 126.45,-376.04 133.35,-377.19"/>
</g>
<!-- Node38&#45;&gt;Node6 -->
<g id="edge63" class="edge">
<title>Node38&#45;&gt;Node6</title>
<path fill="none" stroke="midnightblue" d="M1539.68,-347.49C1585.81,-333.59 1663,-301.24 1663,-240.5 1663,-240.5 1663,-240.5 1663,-121 1663,-42.32 1060.2,-17.65 890.17,-12.25"/>
<polygon fill="midnightblue" stroke="midnightblue" points="890.17,-8.75 880.07,-11.94 889.95,-15.75 890.17,-8.75"/>
</g>
<!-- Node39 -->
<g id="node39" class="node">
<title>Node39</title>
<g id="a_node39"><a xlink:title=" ">
<polygon fill="white" stroke="#bfbfbf" points="1519,-291.5 1519,-310.5 1563,-310.5 1563,-291.5 1519,-291.5"/>
<text text-anchor="middle" x="1541" y="-298.5" font-family="Helvetica,sans-Serif" font-size="10.00">limits</text>
</a>
</g>
</g>
<!-- Node38&#45;&gt;Node39 -->
<g id="edge64" class="edge">
<title>Node38&#45;&gt;Node39</title>
<path fill="none" stroke="midnightblue" d="M1511.78,-347.08C1516.67,-339.53 1523.83,-328.49 1529.83,-319.23"/>
<polygon fill="midnightblue" stroke="midnightblue" points="1532.83,-321.05 1535.33,-310.75 1526.95,-317.24 1532.83,-321.05"/>
</g>
<!-- Node40 -->
<g id="node40" class="node">
<title>Node40</title>
<g id="a_node40"><a xlink:title=" ">
<polygon fill="white" stroke="#bfbfbf" points="1441.5,-291.5 1441.5,-310.5 1500.5,-310.5 1500.5,-291.5 1441.5,-291.5"/>
<text text-anchor="middle" x="1471" y="-298.5" font-family="Helvetica,sans-Serif" font-size="10.00">complex</text>
</a>
</g>
</g>
<!-- Node38&#45;&gt;Node40 -->
<g id="edge65" class="edge">
<title>Node38&#45;&gt;Node40</title>
<path fill="none" stroke="midnightblue" d="M1500.22,-347.08C1495.33,-339.53 1488.17,-328.49 1482.17,-319.23"/>
<polygon fill="midnightblue" stroke="midnightblue" points="1485.05,-317.24 1476.67,-310.75 1479.17,-321.05 1485.05,-317.24"/>
</g>
<!-- Node41 -->
<g id="node41" class="node">
<title>Node41</title>
<g id="a_node41"><a xlink:href="itkFixedArray_8h.html" target="_top" xlink:title=" ">
<polygon fill="white" stroke="black" points="1334.5,-291.5 1334.5,-310.5 1423.5,-310.5 1423.5,-291.5 1334.5,-291.5"/>
<text text-anchor="middle" x="1379" y="-298.5" font-family="Helvetica,sans-Serif" font-size="10.00">itkFixedArray.h</text>
</a>
</g>
</g>
<!-- Node38&#45;&gt;Node41 -->
<g id="edge66" class="edge">
<title>Node38&#45;&gt;Node41</title>
<path fill="none" stroke="midnightblue" d="M1485.88,-347.44C1464.98,-338.56 1432.07,-324.56 1408.28,-314.45"/>
<polygon fill="midnightblue" stroke="midnightblue" points="1409.6,-311.21 1399.03,-310.52 1406.86,-317.65 1409.6,-311.21"/>
</g>
<!-- Node41&#45;&gt;Node6 -->
<g id="edge67" class="edge">
<title>Node41&#45;&gt;Node6</title>
<path fill="none" stroke="midnightblue" d="M1396.62,-291.37C1410.47,-283.69 1429.16,-271.18 1440,-255 1459.37,-226.07 1459,-213.82 1459,-179 1459,-179 1459,-179 1459,-121 1459,-63.18 1031.05,-25.19 890.29,-14.26"/>
<polygon fill="midnightblue" stroke="midnightblue" points="890.51,-10.76 880.27,-13.49 889.97,-17.74 890.51,-10.76"/>
</g>
<!-- Node41&#45;&gt;Node23 -->
<g id="edge69" class="edge">
<title>Node41&#45;&gt;Node23</title>
<path fill="none" stroke="midnightblue" d="M1334.22,-292.98C1288.13,-285.33 1214.44,-271.88 1152,-255 1148.97,-254.18 1145.84,-253.26 1142.72,-252.28"/>
<polygon fill="midnightblue" stroke="midnightblue" points="1143.52,-248.86 1132.93,-249.05 1141.33,-255.51 1143.52,-248.86"/>
</g>
<!-- Node42 -->
<g id="node42" class="node">
<title>Node42</title>
<g id="a_node42"><a xlink:href="itkMakeFilled_8h.html" target="_top" xlink:title=" ">
<polygon fill="white" stroke="black" points="1279.5,-230 1279.5,-249 1370.5,-249 1370.5,-230 1279.5,-230"/>
<text text-anchor="middle" x="1325" y="-237" font-family="Helvetica,sans-Serif" font-size="10.00">itkMakeFilled.h</text>
</a>
</g>
</g>
<!-- Node41&#45;&gt;Node42 -->
<g id="edge68" class="edge">
<title>Node41&#45;&gt;Node42</title>
<path fill="none" stroke="midnightblue" d="M1371.26,-291.48C1363,-282.37 1349.72,-267.74 1339.51,-256.48"/>
<polygon fill="midnightblue" stroke="midnightblue" points="1342.03,-254.06 1332.72,-249.01 1336.85,-258.77 1342.03,-254.06"/>
</g>
<!-- Node43 -->
<g id="node43" class="node">
<title>Node43</title>
<g id="a_node43"><a xlink:title=" ">
<polygon fill="white" stroke="#bfbfbf" points="1389,-230 1389,-249 1431,-249 1431,-230 1389,-230"/>
<text text-anchor="middle" x="1410" y="-237" font-family="Helvetica,sans-Serif" font-size="10.00">array</text>
</a>
</g>
</g>
<!-- Node41&#45;&gt;Node43 -->
<g id="edge70" class="edge">
<title>Node41&#45;&gt;Node43</title>
<path fill="none" stroke="midnightblue" d="M1383.44,-291.48C1387.95,-282.82 1395.07,-269.15 1400.81,-258.15"/>
<polygon fill="midnightblue" stroke="midnightblue" points="1404.05,-259.49 1405.57,-249.01 1397.84,-256.26 1404.05,-259.49"/>
</g>
<!-- Node44 -->
<g id="node44" class="node">
<title>Node44</title>
<g id="a_node44"><a xlink:title=" ">
<polygon fill="white" stroke="#bfbfbf" points="1160.5,-230 1160.5,-249 1261.5,-249 1261.5,-230 1160.5,-230"/>
<text text-anchor="middle" x="1211" y="-237" font-family="Helvetica,sans-Serif" font-size="10.00">itkFixedArray.hxx</text>
</a>
</g>
</g>
<!-- Node41&#45;&gt;Node44 -->
<g id="edge71" class="edge">
<title>Node41&#45;&gt;Node44</title>
<path fill="none" stroke="midnightblue" d="M1354.93,-291.48C1325.99,-281.22 1277.24,-263.96 1244.6,-252.4"/>
<polygon fill="midnightblue" stroke="midnightblue" points="1245.62,-249.05 1235.03,-249.01 1243.28,-255.65 1245.62,-249.05"/>
</g>
<!-- Node45 -->
<g id="node45" class="node">
<title>Node45</title>
<g id="a_node45"><a xlink:href="itkNumericTraitsFixedArrayPixel_8h.html" target="_top" xlink:title=" ">
<polygon fill="white" stroke="black" points="1486.5,-224.5 1486.5,-254.5 1635.5,-254.5 1635.5,-224.5 1486.5,-224.5"/>
<text text-anchor="start" x="1494.5" y="-242.5" font-family="Helvetica,sans-Serif" font-size="10.00">itkNumericTraitsFixedArray</text>
<text text-anchor="middle" x="1561" y="-231.5" font-family="Helvetica,sans-Serif" font-size="10.00">Pixel.h</text>
</a>
</g>
</g>
<!-- Node41&#45;&gt;Node45 -->
<g id="edge72" class="edge">
<title>Node41&#45;&gt;Node45</title>
<path fill="none" stroke="midnightblue" d="M1400.18,-291.48C1425.21,-282.66 1467.59,-268.67 1502.61,-257.57"/>
<polygon fill="midnightblue" stroke="midnightblue" points="1503.79,-260.87 1512.28,-254.52 1501.69,-254.19 1503.79,-260.87"/>
</g>
<!-- Node45&#45;&gt;Node38 -->
<g id="edge73" class="edge">
<title>Node45&#45;&gt;Node38</title>
<path fill="none" stroke="midnightblue" d="M1568.04,-254.58C1574.4,-269.45 1581.43,-293.15 1572,-311 1564.58,-325.05 1550.58,-335.53 1537.38,-342.83"/>
<polygon fill="midnightblue" stroke="midnightblue" points="1535.78,-339.72 1528.46,-347.38 1538.96,-345.96 1535.78,-339.72"/>
</g>
<!-- Node45&#45;&gt;Node41 -->
<g id="edge74" class="edge">
<title>Node45&#45;&gt;Node41</title>
<path fill="none" stroke="midnightblue" d="M1523.94,-254.52C1493.62,-264.87 1450.95,-278.78 1419.69,-288.48"/>
<polygon fill="midnightblue" stroke="midnightblue" points="1418.5,-285.19 1409.98,-291.48 1420.56,-291.88 1418.5,-285.19"/>
</g>
<!-- Node46&#45;&gt;Node11 -->
<g id="edge77" class="edge">
<title>Node46&#45;&gt;Node11</title>
<path fill="none" stroke="midnightblue" d="M973.49,-571.36C990.06,-563.97 1012.05,-551.84 1026,-535 1045.65,-511.29 1050,-500.8 1050,-470 1050,-470 1050,-470 1050,-300 1050,-216.43 1106.48,-177.04 1054,-112 1034.84,-88.25 953.77,-76.41 898.69,-71"/>
<polygon fill="midnightblue" stroke="midnightblue" points="899.01,-67.52 888.73,-70.07 898.36,-74.49 899.01,-67.52"/>
</g>
<!-- Node47 -->
<g id="node47" class="node">
<title>Node47</title>
<g id="a_node47"><a xlink:title=" ">
<polygon fill="white" stroke="#bfbfbf" points="1078.5,-515.5 1078.5,-534.5 1127.5,-534.5 1127.5,-515.5 1078.5,-515.5"/>
<text text-anchor="middle" x="1103" y="-522.5" font-family="Helvetica,sans-Serif" font-size="10.00">cstdlib</text>
</a>
</g>
</g>
<!-- Node46&#45;&gt;Node47 -->
<g id="edge76" class="edge">
<title>Node46&#45;&gt;Node47</title>
<path fill="none" stroke="midnightblue" d="M975.08,-571.44C1000.54,-562.4 1040.89,-548.06 1069.46,-537.92"/>
<polygon fill="midnightblue" stroke="midnightblue" points="1070.78,-541.16 1079.03,-534.52 1068.43,-534.57 1070.78,-541.16"/>
</g>
<!-- Node50&#45;&gt;Node4 -->
<g id="edge84" class="edge">
<title>Node50&#45;&gt;Node4</title>
<path fill="none" stroke="midnightblue" d="M424.19,-571.19C407.1,-544.08 360.29,-460.3 394,-403 402.92,-387.84 418.99,-377.43 434.48,-370.46"/>
<polygon fill="midnightblue" stroke="midnightblue" points="436.06,-373.6 443.98,-366.56 433.4,-367.12 436.06,-373.6"/>
</g>
<!-- Node50&#45;&gt;Node28 -->
<g id="edge86" class="edge">
<title>Node50&#45;&gt;Node28</title>
<path fill="none" stroke="midnightblue" d="M385.41,-576.94C282.67,-568.67 38,-541.48 38,-470 38,-470 38,-470 38,-412 38,-328.99 160.43,-308.52 227.8,-303.55"/>
<polygon fill="midnightblue" stroke="midnightblue" points="228.36,-307.02 238.11,-302.87 227.9,-300.03 228.36,-307.02"/>
</g>
<!-- Node50&#45;&gt;Node32 -->
<g id="edge85" class="edge">
<title>Node50&#45;&gt;Node32</title>
<path fill="none" stroke="midnightblue" d="M454.24,-571.44C479.87,-562.4 520.49,-548.06 549.24,-537.92"/>
<polygon fill="midnightblue" stroke="midnightblue" points="550.61,-541.15 558.87,-534.52 548.28,-534.54 550.61,-541.15"/>
</g>
</g>
</svg>
