<?xml version="1.0" encoding="UTF-8" standalone="no"?>
<!DOCTYPE svg PUBLIC "-//W3C//DTD SVG 1.1//EN"
 "http://www.w3.org/Graphics/SVG/1.1/DTD/svg11.dtd">
<!-- Generated by graphviz version 2.43.0 (0)
 -->
<!-- Title: itkPointSetToPointSetMetricv4.h Pages: 1 -->
<svg width="657pt" height="95pt"
 viewBox="0.00 0.00 656.50 95.00" xmlns="http://www.w3.org/2000/svg" xmlns:xlink="http://www.w3.org/1999/xlink">
<g id="graph0" class="graph" transform="scale(1 1) rotate(0) translate(4 91)">
<title>itkPointSetToPointSetMetricv4.h</title>
<polygon fill="white" stroke="transparent" points="-4,4 -4,-91 652.5,-91 652.5,4 -4,4"/>
<!-- Node1 -->
<g id="node1" class="node">
<title>Node1</title>
<g id="a_node1"><a xlink:title=" ">
<polygon fill="#bfbfbf" stroke="black" points="232.5,-67.5 232.5,-86.5 405.5,-86.5 405.5,-67.5 232.5,-67.5"/>
<text text-anchor="middle" x="319" y="-74.5" font-family="Helvetica,sans-Serif" font-size="10.00">itkPointSetToPointSetMetricv4.h</text>
</a>
</g>
</g>
<!-- Node2 -->
<g id="node2" class="node">
<title>Node2</title>
<g id="a_node2"><a xlink:href="itkEuclideanDistancePointSetToPointSetMetricv4_8h.html" target="_top" xlink:title=" ">
<polygon fill="white" stroke="black" points="0,-0.5 0,-30.5 144,-30.5 144,-0.5 0,-0.5"/>
<text text-anchor="start" x="8" y="-18.5" font-family="Helvetica,sans-Serif" font-size="10.00">itkEuclideanDistancePoint</text>
<text text-anchor="middle" x="72" y="-7.5" font-family="Helvetica,sans-Serif" font-size="10.00">SetToPointSetMetricv4.h</text>
</a>
</g>
</g>
<!-- Node1&#45;&gt;Node2 -->
<g id="edge1" class="edge">
<title>Node1&#45;&gt;Node2</title>
<path fill="none" stroke="midnightblue" d="M273.78,-65.11C233.43,-55.39 174.1,-41.1 130.21,-30.52"/>
<polygon fill="midnightblue" stroke="midnightblue" points="273.07,-68.54 283.61,-67.48 274.71,-61.73 273.07,-68.54"/>
</g>
<!-- Node3 -->
<g id="node3" class="node">
<title>Node3</title>
<g id="a_node3"><a xlink:href="itkExpectationBasedPointSetToPointSetMetricv4_8h.html" target="_top" xlink:title=" ">
<polygon fill="white" stroke="black" points="162,-0.5 162,-30.5 304,-30.5 304,-0.5 162,-0.5"/>
<text text-anchor="start" x="170" y="-18.5" font-family="Helvetica,sans-Serif" font-size="10.00">itkExpectationBasedPoint</text>
<text text-anchor="middle" x="233" y="-7.5" font-family="Helvetica,sans-Serif" font-size="10.00">SetToPointSetMetricv4.h</text>
</a>
</g>
</g>
<!-- Node1&#45;&gt;Node3 -->
<g id="edge2" class="edge">
<title>Node1&#45;&gt;Node3</title>
<path fill="none" stroke="midnightblue" d="M298.39,-61.74C284.72,-52.28 266.87,-39.93 253.27,-30.52"/>
<polygon fill="midnightblue" stroke="midnightblue" points="296.46,-64.66 306.68,-67.48 300.45,-58.91 296.46,-64.66"/>
</g>
<!-- Node4 -->
<g id="node4" class="node">
<title>Node4</title>
<g id="a_node4"><a xlink:href="itkJensenHavrdaCharvatTsallisPointSetToPointSetMetricv4_8h.html" target="_top" xlink:title=" ">
<polygon fill="white" stroke="black" points="322.5,-0.5 322.5,-30.5 487.5,-30.5 487.5,-0.5 322.5,-0.5"/>
<text text-anchor="start" x="330.5" y="-18.5" font-family="Helvetica,sans-Serif" font-size="10.00">itkJensenHavrdaCharvatTsallis</text>
<text text-anchor="middle" x="405" y="-7.5" font-family="Helvetica,sans-Serif" font-size="10.00">PointSetToPointSetMetricv4.h</text>
</a>
</g>
</g>
<!-- Node1&#45;&gt;Node4 -->
<g id="edge3" class="edge">
<title>Node1&#45;&gt;Node4</title>
<path fill="none" stroke="midnightblue" d="M339.61,-61.74C353.28,-52.28 371.13,-39.93 384.73,-30.52"/>
<polygon fill="midnightblue" stroke="midnightblue" points="337.55,-58.91 331.32,-67.48 341.54,-64.66 337.55,-58.91"/>
</g>
<!-- Node5 -->
<g id="node5" class="node">
<title>Node5</title>
<g id="a_node5"><a xlink:href="itkLabeledPointSetToPointSetMetricv4_8h.html" target="_top" xlink:title=" ">
<polygon fill="white" stroke="black" points="505.5,-0.5 505.5,-30.5 648.5,-30.5 648.5,-0.5 505.5,-0.5"/>
<text text-anchor="start" x="513.5" y="-18.5" font-family="Helvetica,sans-Serif" font-size="10.00">itkLabeledPointSetToPoint</text>
<text text-anchor="middle" x="577" y="-7.5" font-family="Helvetica,sans-Serif" font-size="10.00">SetMetricv4.h</text>
</a>
</g>
</g>
<!-- Node1&#45;&gt;Node5 -->
<g id="edge4" class="edge">
<title>Node1&#45;&gt;Node5</title>
<path fill="none" stroke="midnightblue" d="M365.97,-65.17C408.12,-55.45 470.26,-41.12 516.19,-30.52"/>
<polygon fill="midnightblue" stroke="midnightblue" points="364.92,-61.82 355.97,-67.48 366.5,-68.64 364.92,-61.82"/>
</g>
</g>
</svg>
