<?xml version="1.0" encoding="UTF-8" standalone="no"?>
<!DOCTYPE svg PUBLIC "-//W3C//DTD SVG 1.1//EN"
 "http://www.w3.org/Graphics/SVG/1.1/DTD/svg11.dtd">
<!-- Generated by graphviz version 2.43.0 (0)
 -->
<!-- Title: itkQuadEdgeMeshDecimationCriteria.h Pages: 1 -->
<svg width="1479pt" height="722pt"
 viewBox="0.00 0.00 1479.00 722.00" xmlns="http://www.w3.org/2000/svg" xmlns:xlink="http://www.w3.org/1999/xlink">
<g id="graph0" class="graph" transform="scale(1 1) rotate(0) translate(4 718)">
<title>itkQuadEdgeMeshDecimationCriteria.h</title>
<polygon fill="white" stroke="transparent" points="-4,4 -4,-718 1475,-718 1475,4 -4,4"/>
<!-- Node1 -->
<g id="node1" class="node">
<title>Node1</title>
<g id="a_node1"><a xlink:title=" ">
<polygon fill="#bfbfbf" stroke="black" points="1074.5,-683.5 1074.5,-713.5 1235.5,-713.5 1235.5,-683.5 1074.5,-683.5"/>
<text text-anchor="start" x="1082.5" y="-701.5" font-family="Helvetica,sans-Serif" font-size="10.00">itkQuadEdgeMeshDecimation</text>
<text text-anchor="middle" x="1155" y="-690.5" font-family="Helvetica,sans-Serif" font-size="10.00">Criteria.h</text>
</a>
</g>
</g>
<!-- Node2 -->
<g id="node2" class="node">
<title>Node2</title>
<g id="a_node2"><a xlink:href="itkIntTypes_8h.html" target="_top" xlink:title=" ">
<polygon fill="white" stroke="black" points="833.5,-56.5 833.5,-75.5 912.5,-75.5 912.5,-56.5 833.5,-56.5"/>
<text text-anchor="middle" x="873" y="-63.5" font-family="Helvetica,sans-Serif" font-size="10.00">itkIntTypes.h</text>
</a>
</g>
</g>
<!-- Node1&#45;&gt;Node2 -->
<g id="edge1" class="edge">
<title>Node1&#45;&gt;Node2</title>
<path fill="none" stroke="midnightblue" d="M1235.56,-684.43C1329.18,-666.9 1471,-632.09 1471,-582 1471,-582 1471,-582 1471,-177 1471,-121.45 1066.75,-82.89 922.99,-70.93"/>
<polygon fill="midnightblue" stroke="midnightblue" points="922.95,-67.41 912.7,-70.08 922.38,-74.39 922.95,-67.41"/>
</g>
<!-- Node6 -->
<g id="node6" class="node">
<title>Node6</title>
<g id="a_node6"><a xlink:href="itkPriorityQueueContainer_8h.html" target="_top" xlink:title=" ">
<polygon fill="white" stroke="black" points="764,-627.5 764,-646.5 916,-646.5 916,-627.5 764,-627.5"/>
<text text-anchor="middle" x="840" y="-634.5" font-family="Helvetica,sans-Serif" font-size="10.00">itkPriorityQueueContainer.h</text>
</a>
</g>
</g>
<!-- Node1&#45;&gt;Node6 -->
<g id="edge5" class="edge">
<title>Node1&#45;&gt;Node6</title>
<path fill="none" stroke="midnightblue" d="M1080.75,-683.47C1023.79,-672.72 946.46,-658.11 894.97,-648.38"/>
<polygon fill="midnightblue" stroke="midnightblue" points="895.51,-644.92 885.03,-646.51 894.21,-651.8 895.51,-644.92"/>
</g>
<!-- Node3 -->
<g id="node3" class="node">
<title>Node3</title>
<g id="a_node3"><a xlink:href="itkMacro_8h.html" target="_top" xlink:title=" ">
<polygon fill="white" stroke="black" points="649,-0.5 649,-19.5 717,-19.5 717,-0.5 649,-0.5"/>
<text text-anchor="middle" x="683" y="-7.5" font-family="Helvetica,sans-Serif" font-size="10.00">itkMacro.h</text>
</a>
</g>
</g>
<!-- Node2&#45;&gt;Node3 -->
<g id="edge2" class="edge">
<title>Node2&#45;&gt;Node3</title>
<path fill="none" stroke="midnightblue" d="M842.89,-56.44C810.37,-47.2 758.42,-32.44 722.61,-22.26"/>
<polygon fill="midnightblue" stroke="midnightblue" points="723.54,-18.88 712.97,-19.52 721.63,-25.62 723.54,-18.88"/>
</g>
<!-- Node4 -->
<g id="node4" class="node">
<title>Node4</title>
<g id="a_node4"><a xlink:title=" ">
<polygon fill="white" stroke="#bfbfbf" points="882,-0.5 882,-19.5 932,-19.5 932,-0.5 882,-0.5"/>
<text text-anchor="middle" x="907" y="-7.5" font-family="Helvetica,sans-Serif" font-size="10.00">cstdint</text>
</a>
</g>
</g>
<!-- Node2&#45;&gt;Node4 -->
<g id="edge3" class="edge">
<title>Node2&#45;&gt;Node4</title>
<path fill="none" stroke="midnightblue" d="M878.61,-56.08C883.37,-48.53 890.32,-37.49 896.15,-28.23"/>
<polygon fill="midnightblue" stroke="midnightblue" points="899.12,-30.08 901.49,-19.75 893.2,-26.35 899.12,-30.08"/>
</g>
<!-- Node5 -->
<g id="node5" class="node">
<title>Node5</title>
<g id="a_node5"><a xlink:title=" ">
<polygon fill="white" stroke="#bfbfbf" points="814,-0.5 814,-19.5 864,-19.5 864,-0.5 814,-0.5"/>
<text text-anchor="middle" x="839" y="-7.5" font-family="Helvetica,sans-Serif" font-size="10.00">climits</text>
</a>
</g>
</g>
<!-- Node2&#45;&gt;Node5 -->
<g id="edge4" class="edge">
<title>Node2&#45;&gt;Node5</title>
<path fill="none" stroke="midnightblue" d="M867.39,-56.08C862.63,-48.53 855.68,-37.49 849.85,-28.23"/>
<polygon fill="midnightblue" stroke="midnightblue" points="852.8,-26.35 844.51,-19.75 846.88,-30.08 852.8,-26.35"/>
</g>
<!-- Node6&#45;&gt;Node2 -->
<g id="edge53" class="edge">
<title>Node6&#45;&gt;Node2</title>
<path fill="none" stroke="midnightblue" d="M840,-627.44C840,-608.94 840,-563.81 840,-526 840,-526 840,-526 840,-468 840,-320.31 862.51,-143.04 870.35,-85.8"/>
<polygon fill="midnightblue" stroke="midnightblue" points="873.84,-86.11 871.75,-75.73 866.9,-85.15 873.84,-86.11"/>
</g>
<!-- Node7 -->
<g id="node7" class="node">
<title>Node7</title>
<g id="a_node7"><a xlink:href="itkVectorContainer_8h.html" target="_top" xlink:title=" ">
<polygon fill="white" stroke="black" points="292,-571.5 292,-590.5 408,-590.5 408,-571.5 292,-571.5"/>
<text text-anchor="middle" x="350" y="-578.5" font-family="Helvetica,sans-Serif" font-size="10.00">itkVectorContainer.h</text>
</a>
</g>
</g>
<!-- Node6&#45;&gt;Node7 -->
<g id="edge6" class="edge">
<title>Node6&#45;&gt;Node7</title>
<path fill="none" stroke="midnightblue" d="M763.98,-627.62C669.37,-617.2 509.23,-599.55 418.34,-589.53"/>
<polygon fill="midnightblue" stroke="midnightblue" points="418.47,-586.03 408.15,-588.41 417.71,-592.98 418.47,-586.03"/>
</g>
<!-- Node12 -->
<g id="node12" class="node">
<title>Node12</title>
<g id="a_node12"><a xlink:title=" ">
<polygon fill="white" stroke="#bfbfbf" points="2.5,-56.5 2.5,-75.5 47.5,-75.5 47.5,-56.5 2.5,-56.5"/>
<text text-anchor="middle" x="25" y="-63.5" font-family="Helvetica,sans-Serif" font-size="10.00">utility</text>
</a>
</g>
</g>
<!-- Node6&#45;&gt;Node12 -->
<g id="edge71" class="edge">
<title>Node6&#45;&gt;Node12</title>
<path fill="none" stroke="midnightblue" d="M763.97,-633.96C557.2,-627.42 0,-602.66 0,-526 0,-526 0,-526 0,-177 0,-144 10.83,-106.77 18.24,-85.19"/>
<polygon fill="midnightblue" stroke="midnightblue" points="21.57,-86.28 21.63,-75.69 14.97,-83.93 21.57,-86.28"/>
</g>
<!-- Node24 -->
<g id="node24" class="node">
<title>Node24</title>
<g id="a_node24"><a xlink:title=" ">
<polygon fill="white" stroke="#bfbfbf" points="564.5,-230 564.5,-249 611.5,-249 611.5,-230 564.5,-230"/>
<text text-anchor="middle" x="588" y="-237" font-family="Helvetica,sans-Serif" font-size="10.00">vector</text>
</a>
</g>
</g>
<!-- Node6&#45;&gt;Node24 -->
<g id="edge69" class="edge">
<title>Node6&#45;&gt;Node24</title>
<path fill="none" stroke="midnightblue" d="M834.72,-627.23C824.27,-609.04 802,-565.6 802,-526 802,-526 802,-526 802,-468 802,-360.39 673.4,-282.91 615.58,-253.51"/>
<polygon fill="midnightblue" stroke="midnightblue" points="617.13,-250.37 606.62,-249.05 614.01,-256.64 617.13,-250.37"/>
</g>
<!-- Node28 -->
<g id="node28" class="node">
<title>Node28</title>
<g id="a_node28"><a xlink:title=" ">
<polygon fill="white" stroke="#bfbfbf" points="498.5,-291.5 498.5,-310.5 563.5,-310.5 563.5,-291.5 498.5,-291.5"/>
<text text-anchor="middle" x="531" y="-298.5" font-family="Helvetica,sans-Serif" font-size="10.00">functional</text>
</a>
</g>
</g>
<!-- Node6&#45;&gt;Node28 -->
<g id="edge67" class="edge">
<title>Node6&#45;&gt;Node28</title>
<path fill="none" stroke="midnightblue" d="M796.7,-627.49C732.38,-613.79 608.88,-583.38 513,-535 438.08,-497.2 398.85,-497.9 361,-423 331.42,-364.47 428.68,-328.21 488.19,-311.99"/>
<polygon fill="midnightblue" stroke="midnightblue" points="489.33,-315.31 498.1,-309.38 487.54,-308.55 489.33,-315.31"/>
</g>
<!-- Node36 -->
<g id="node36" class="node">
<title>Node36</title>
<g id="a_node36"><a xlink:href="itkNumericTraits_8h.html" target="_top" xlink:title=" ">
<polygon fill="white" stroke="black" points="1097,-347.5 1097,-366.5 1203,-366.5 1203,-347.5 1097,-347.5"/>
<text text-anchor="middle" x="1150" y="-354.5" font-family="Helvetica,sans-Serif" font-size="10.00">itkNumericTraits.h</text>
</a>
</g>
</g>
<!-- Node6&#45;&gt;Node36 -->
<g id="edge54" class="edge">
<title>Node6&#45;&gt;Node36</title>
<path fill="none" stroke="midnightblue" d="M845.28,-627.23C855.73,-609.04 878,-565.6 878,-526 878,-526 878,-526 878,-468 878,-421.59 1015.79,-385.52 1095.23,-368.58"/>
<polygon fill="midnightblue" stroke="midnightblue" points="1096.02,-371.99 1105.08,-366.52 1094.58,-365.14 1096.02,-371.99"/>
</g>
<!-- Node44 -->
<g id="node44" class="node">
<title>Node44</title>
<g id="a_node44"><a xlink:title=" ">
<polygon fill="white" stroke="#bfbfbf" points="906.5,-571.5 906.5,-590.5 953.5,-590.5 953.5,-571.5 906.5,-571.5"/>
<text text-anchor="middle" x="930" y="-578.5" font-family="Helvetica,sans-Serif" font-size="10.00">queue</text>
</a>
</g>
</g>
<!-- Node6&#45;&gt;Node44 -->
<g id="edge68" class="edge">
<title>Node6&#45;&gt;Node44</title>
<path fill="none" stroke="midnightblue" d="M854.46,-627.32C868.5,-618.9 890.05,-605.97 906.54,-596.07"/>
<polygon fill="midnightblue" stroke="midnightblue" points="908.8,-598.8 915.58,-590.65 905.2,-592.8 908.8,-598.8"/>
</g>
<!-- Node45 -->
<g id="node45" class="node">
<title>Node45</title>
<g id="a_node45"><a xlink:title=" ">
<polygon fill="white" stroke="#bfbfbf" points="972,-571.5 972,-590.5 1136,-590.5 1136,-571.5 972,-571.5"/>
<text text-anchor="middle" x="1054" y="-578.5" font-family="Helvetica,sans-Serif" font-size="10.00">itkPriorityQueueContainer.hxx</text>
</a>
</g>
</g>
<!-- Node6&#45;&gt;Node45 -->
<g id="edge70" class="edge">
<title>Node6&#45;&gt;Node45</title>
<path fill="none" stroke="midnightblue" d="M873.91,-627.44C910.85,-618.12 970.05,-603.18 1010.42,-593"/>
<polygon fill="midnightblue" stroke="midnightblue" points="1011.41,-596.36 1020.25,-590.52 1009.7,-589.57 1011.41,-596.36"/>
</g>
<!-- Node8 -->
<g id="node8" class="node">
<title>Node8</title>
<g id="a_node8"><a xlink:href="itkObject_8h.html" target="_top" xlink:title=" ">
<polygon fill="white" stroke="black" points="247,-347.5 247,-366.5 317,-366.5 317,-347.5 247,-347.5"/>
<text text-anchor="middle" x="282" y="-354.5" font-family="Helvetica,sans-Serif" font-size="10.00">itkObject.h</text>
</a>
</g>
</g>
<!-- Node7&#45;&gt;Node8 -->
<g id="edge7" class="edge">
<title>Node7&#45;&gt;Node8</title>
<path fill="none" stroke="midnightblue" d="M330.92,-571.37C316.9,-563.91 298.82,-551.69 290,-535 262.62,-483.2 271.55,-410.5 277.92,-376.67"/>
<polygon fill="midnightblue" stroke="midnightblue" points="281.37,-377.28 279.93,-366.78 274.51,-375.89 281.37,-377.28"/>
</g>
<!-- Node7&#45;&gt;Node12 -->
<g id="edge50" class="edge">
<title>Node7&#45;&gt;Node12</title>
<path fill="none" stroke="midnightblue" d="M291.68,-571.63C201.38,-557.01 38,-523.2 38,-470 38,-470 38,-470 38,-177 38,-144.58 32.36,-107.15 28.51,-85.37"/>
<polygon fill="midnightblue" stroke="midnightblue" points="31.95,-84.72 26.7,-75.52 25.07,-85.99 31.95,-84.72"/>
</g>
<!-- Node7&#45;&gt;Node24 -->
<g id="edge51" class="edge">
<title>Node7&#45;&gt;Node24</title>
<path fill="none" stroke="midnightblue" d="M342.85,-571.36C336.23,-562.76 326.84,-548.87 323,-535 314.96,-505.99 290.02,-510.96 328,-403 338.24,-373.9 345.32,-366.77 369,-347 377.03,-340.29 503.7,-280.23 560.64,-253.37"/>
<polygon fill="midnightblue" stroke="midnightblue" points="562.24,-256.49 569.79,-249.06 559.25,-250.16 562.24,-256.49"/>
</g>
<!-- Node29 -->
<g id="node29" class="node">
<title>Node29</title>
<g id="a_node29"><a xlink:href="itkObjectFactory_8h.html" target="_top" xlink:title=" ">
<polygon fill="white" stroke="black" points="522,-515.5 522,-534.5 626,-534.5 626,-515.5 522,-515.5"/>
<text text-anchor="middle" x="574" y="-522.5" font-family="Helvetica,sans-Serif" font-size="10.00">itkObjectFactory.h</text>
</a>
</g>
</g>
<!-- Node7&#45;&gt;Node29 -->
<g id="edge40" class="edge">
<title>Node7&#45;&gt;Node29</title>
<path fill="none" stroke="midnightblue" d="M385.49,-571.44C424.32,-562.08 486.66,-547.06 528.92,-536.87"/>
<polygon fill="midnightblue" stroke="midnightblue" points="529.77,-540.26 538.67,-534.52 528.13,-533.46 529.77,-540.26"/>
</g>
<!-- Node35 -->
<g id="node35" class="node">
<title>Node35</title>
<g id="a_node35"><a xlink:title=" ">
<polygon fill="white" stroke="#bfbfbf" points="332,-515.5 332,-534.5 460,-534.5 460,-515.5 332,-515.5"/>
<text text-anchor="middle" x="396" y="-522.5" font-family="Helvetica,sans-Serif" font-size="10.00">itkVectorContainer.hxx</text>
</a>
</g>
</g>
<!-- Node7&#45;&gt;Node35 -->
<g id="edge52" class="edge">
<title>Node7&#45;&gt;Node35</title>
<path fill="none" stroke="midnightblue" d="M357.6,-571.08C364.23,-563.3 374.02,-551.8 382.06,-542.37"/>
<polygon fill="midnightblue" stroke="midnightblue" points="384.73,-544.63 388.55,-534.75 379.4,-540.09 384.73,-544.63"/>
</g>
<!-- Node9 -->
<g id="node9" class="node">
<title>Node9</title>
<g id="a_node9"><a xlink:href="itkLightObject_8h.html" target="_top" xlink:title=" ">
<polygon fill="white" stroke="black" points="251,-168.5 251,-187.5 345,-187.5 345,-168.5 251,-168.5"/>
<text text-anchor="middle" x="298" y="-175.5" font-family="Helvetica,sans-Serif" font-size="10.00">itkLightObject.h</text>
</a>
</g>
</g>
<!-- Node8&#45;&gt;Node9 -->
<g id="edge8" class="edge">
<title>Node8&#45;&gt;Node9</title>
<path fill="none" stroke="midnightblue" d="M249,-347.47C184.82,-329.31 53.48,-283.6 101,-224 118.22,-202.4 188.82,-190.34 240.6,-184.27"/>
<polygon fill="midnightblue" stroke="midnightblue" points="241.14,-187.73 250.68,-183.13 240.35,-180.77 241.14,-187.73"/>
</g>
<!-- Node17 -->
<g id="node17" class="node">
<title>Node17</title>
<g id="a_node17"><a xlink:href="itkSingletonMacro_8h.html" target="_top" xlink:title=" ">
<polygon fill="white" stroke="black" points="576,-56.5 576,-75.5 690,-75.5 690,-56.5 576,-56.5"/>
<text text-anchor="middle" x="633" y="-63.5" font-family="Helvetica,sans-Serif" font-size="10.00">itkSingletonMacro.h</text>
</a>
</g>
</g>
<!-- Node8&#45;&gt;Node17 -->
<g id="edge38" class="edge">
<title>Node8&#45;&gt;Node17</title>
<path fill="none" stroke="midnightblue" d="M317.04,-347.85C343.96,-340.65 381.41,-328.54 411,-311 444.29,-291.26 573.03,-177.39 605,-132 615.16,-117.57 622.73,-98.88 627.42,-85.24"/>
<polygon fill="midnightblue" stroke="midnightblue" points="630.81,-86.16 630.56,-75.57 624.15,-84 630.81,-86.16"/>
</g>
<!-- Node20 -->
<g id="node20" class="node">
<title>Node20</title>
<g id="a_node20"><a xlink:href="itkEventObject_8h.html" target="_top" xlink:title=" ">
<polygon fill="white" stroke="black" points="408,-168.5 408,-187.5 506,-187.5 506,-168.5 408,-168.5"/>
<text text-anchor="middle" x="457" y="-175.5" font-family="Helvetica,sans-Serif" font-size="10.00">itkEventObject.h</text>
</a>
</g>
</g>
<!-- Node8&#45;&gt;Node20 -->
<g id="edge26" class="edge">
<title>Node8&#45;&gt;Node20</title>
<path fill="none" stroke="midnightblue" d="M302.09,-347.46C344.08,-329.14 438.61,-285.28 455,-255 464.6,-237.27 463.45,-213.64 460.97,-197.46"/>
<polygon fill="midnightblue" stroke="midnightblue" points="464.41,-196.82 459.15,-187.62 457.53,-198.09 464.41,-196.82"/>
</g>
<!-- Node21 -->
<g id="node21" class="node">
<title>Node21</title>
<g id="a_node21"><a xlink:href="itkMetaDataDictionary_8h.html" target="_top" xlink:title=" ">
<polygon fill="white" stroke="black" points="230.5,-291.5 230.5,-310.5 365.5,-310.5 365.5,-291.5 230.5,-291.5"/>
<text text-anchor="middle" x="298" y="-298.5" font-family="Helvetica,sans-Serif" font-size="10.00">itkMetaDataDictionary.h</text>
</a>
</g>
</g>
<!-- Node8&#45;&gt;Node21 -->
<g id="edge28" class="edge">
<title>Node8&#45;&gt;Node21</title>
<path fill="none" stroke="midnightblue" d="M284.64,-347.08C286.79,-339.85 289.88,-329.41 292.55,-320.4"/>
<polygon fill="midnightblue" stroke="midnightblue" points="295.92,-321.33 295.41,-310.75 289.21,-319.34 295.92,-321.33"/>
</g>
<!-- Node8&#45;&gt;Node28 -->
<g id="edge39" class="edge">
<title>Node8&#45;&gt;Node28</title>
<path fill="none" stroke="midnightblue" d="M317.15,-348.38C362.2,-338.61 440.26,-321.68 488.57,-311.2"/>
<polygon fill="midnightblue" stroke="midnightblue" points="489.38,-314.61 498.41,-309.07 487.89,-307.77 489.38,-314.61"/>
</g>
<!-- Node9&#45;&gt;Node3 -->
<g id="edge9" class="edge">
<title>Node9&#45;&gt;Node3</title>
<path fill="none" stroke="midnightblue" d="M250.69,-173.23C196.93,-167.85 114.15,-155.86 95,-132 73.86,-105.66 72.04,-80.78 95,-56 131.75,-16.33 508.34,-11.49 638.8,-11.01"/>
<polygon fill="midnightblue" stroke="midnightblue" points="638.86,-14.51 648.85,-10.98 638.84,-7.51 638.86,-14.51"/>
</g>
<!-- Node10 -->
<g id="node10" class="node">
<title>Node10</title>
<g id="a_node10"><a xlink:href="itkSmartPointer_8h.html" target="_top" xlink:title=" ">
<polygon fill="white" stroke="black" points="104.5,-112.5 104.5,-131.5 205.5,-131.5 205.5,-112.5 104.5,-112.5"/>
<text text-anchor="middle" x="155" y="-119.5" font-family="Helvetica,sans-Serif" font-size="10.00">itkSmartPointer.h</text>
</a>
</g>
</g>
<!-- Node9&#45;&gt;Node10 -->
<g id="edge10" class="edge">
<title>Node9&#45;&gt;Node10</title>
<path fill="none" stroke="midnightblue" d="M275.34,-168.44C251.6,-159.48 214.09,-145.31 187.26,-135.18"/>
<polygon fill="midnightblue" stroke="midnightblue" points="188.14,-131.77 177.55,-131.52 185.67,-138.32 188.14,-131.77"/>
</g>
<!-- Node11 -->
<g id="node11" class="node">
<title>Node11</title>
<g id="a_node11"><a xlink:title=" ">
<polygon fill="white" stroke="#bfbfbf" points="295,-56.5 295,-75.5 355,-75.5 355,-56.5 295,-56.5"/>
<text text-anchor="middle" x="325" y="-63.5" font-family="Helvetica,sans-Serif" font-size="10.00">iostream</text>
</a>
</g>
</g>
<!-- Node9&#45;&gt;Node11 -->
<g id="edge24" class="edge">
<title>Node9&#45;&gt;Node11</title>
<path fill="none" stroke="midnightblue" d="M296.06,-168.37C293.58,-155.71 290.26,-131.5 296,-112 299.01,-101.76 305.15,-91.66 311.01,-83.63"/>
<polygon fill="midnightblue" stroke="midnightblue" points="313.93,-85.58 317.33,-75.54 308.41,-81.27 313.93,-85.58"/>
</g>
<!-- Node15 -->
<g id="node15" class="node">
<title>Node15</title>
<g id="a_node15"><a xlink:href="itkTimeStamp_8h.html" target="_top" xlink:title=" ">
<polygon fill="white" stroke="black" points="500.5,-112.5 500.5,-131.5 595.5,-131.5 595.5,-112.5 500.5,-112.5"/>
<text text-anchor="middle" x="548" y="-119.5" font-family="Helvetica,sans-Serif" font-size="10.00">itkTimeStamp.h</text>
</a>
</g>
</g>
<!-- Node9&#45;&gt;Node15 -->
<g id="edge15" class="edge">
<title>Node9&#45;&gt;Node15</title>
<path fill="none" stroke="midnightblue" d="M337.61,-168.44C381.23,-159.02 451.4,-143.87 498.58,-133.68"/>
<polygon fill="midnightblue" stroke="midnightblue" points="499.54,-137.05 508.57,-131.52 498.06,-130.21 499.54,-137.05"/>
</g>
<!-- Node16 -->
<g id="node16" class="node">
<title>Node16</title>
<g id="a_node16"><a xlink:title=" ">
<polygon fill="white" stroke="#bfbfbf" points="388,-56.5 388,-75.5 438,-75.5 438,-56.5 388,-56.5"/>
<text text-anchor="middle" x="413" y="-63.5" font-family="Helvetica,sans-Serif" font-size="10.00">atomic</text>
</a>
</g>
</g>
<!-- Node9&#45;&gt;Node16 -->
<g id="edge23" class="edge">
<title>Node9&#45;&gt;Node16</title>
<path fill="none" stroke="midnightblue" d="M300.21,-168.42C304.05,-154.94 313.12,-128.64 329,-112 342.65,-97.69 361.87,-86.93 378.48,-79.53"/>
<polygon fill="midnightblue" stroke="midnightblue" points="380.04,-82.67 387.9,-75.56 377.32,-76.22 380.04,-82.67"/>
</g>
<!-- Node18 -->
<g id="node18" class="node">
<title>Node18</title>
<g id="a_node18"><a xlink:href="itkIndent_8h.html" target="_top" xlink:title=" ">
<polygon fill="white" stroke="black" points="413.5,-112.5 413.5,-131.5 482.5,-131.5 482.5,-112.5 413.5,-112.5"/>
<text text-anchor="middle" x="448" y="-119.5" font-family="Helvetica,sans-Serif" font-size="10.00">itkIndent.h</text>
</a>
</g>
</g>
<!-- Node9&#45;&gt;Node18 -->
<g id="edge20" class="edge">
<title>Node9&#45;&gt;Node18</title>
<path fill="none" stroke="midnightblue" d="M321.77,-168.44C346.89,-159.4 386.71,-145.06 414.9,-134.92"/>
<polygon fill="midnightblue" stroke="midnightblue" points="416.12,-138.2 424.34,-131.52 413.75,-131.61 416.12,-138.2"/>
</g>
<!-- Node19 -->
<g id="node19" class="node">
<title>Node19</title>
<g id="a_node19"><a xlink:title=" ">
<polygon fill="white" stroke="#bfbfbf" points="338.5,-112.5 338.5,-131.5 395.5,-131.5 395.5,-112.5 338.5,-112.5"/>
<text text-anchor="middle" x="367" y="-119.5" font-family="Helvetica,sans-Serif" font-size="10.00">typeinfo</text>
</a>
</g>
</g>
<!-- Node9&#45;&gt;Node19 -->
<g id="edge25" class="edge">
<title>Node9&#45;&gt;Node19</title>
<path fill="none" stroke="midnightblue" d="M309.09,-168.32C319.49,-160.18 335.26,-147.84 347.72,-138.09"/>
<polygon fill="midnightblue" stroke="midnightblue" points="349.99,-140.75 355.71,-131.83 345.68,-135.24 349.99,-140.75"/>
</g>
<!-- Node10&#45;&gt;Node11 -->
<g id="edge11" class="edge">
<title>Node10&#45;&gt;Node11</title>
<path fill="none" stroke="midnightblue" d="M181.94,-112.44C210.66,-103.32 256.33,-88.81 288.32,-78.65"/>
<polygon fill="midnightblue" stroke="midnightblue" points="289.72,-81.88 298.19,-75.52 287.6,-75.21 289.72,-81.88"/>
</g>
<!-- Node10&#45;&gt;Node12 -->
<g id="edge12" class="edge">
<title>Node10&#45;&gt;Node12</title>
<path fill="none" stroke="midnightblue" d="M134.4,-112.44C113.01,-103.56 79.32,-89.56 54.98,-79.45"/>
<polygon fill="midnightblue" stroke="midnightblue" points="56.08,-76.12 45.5,-75.52 53.39,-82.58 56.08,-76.12"/>
</g>
<!-- Node13 -->
<g id="node13" class="node">
<title>Node13</title>
<g id="a_node13"><a xlink:title=" ">
<polygon fill="white" stroke="#bfbfbf" points="104.5,-56.5 104.5,-75.5 173.5,-75.5 173.5,-56.5 104.5,-56.5"/>
<text text-anchor="middle" x="139" y="-63.5" font-family="Helvetica,sans-Serif" font-size="10.00">type_traits</text>
</a>
</g>
</g>
<!-- Node10&#45;&gt;Node13 -->
<g id="edge13" class="edge">
<title>Node10&#45;&gt;Node13</title>
<path fill="none" stroke="midnightblue" d="M152.36,-112.08C150.21,-104.85 147.12,-94.41 144.45,-85.4"/>
<polygon fill="midnightblue" stroke="midnightblue" points="147.79,-84.34 141.59,-75.75 141.08,-86.33 147.79,-84.34"/>
</g>
<!-- Node14 -->
<g id="node14" class="node">
<title>Node14</title>
<g id="a_node14"><a xlink:title=" ">
<polygon fill="white" stroke="#bfbfbf" points="191.5,-56.5 191.5,-75.5 276.5,-75.5 276.5,-56.5 191.5,-56.5"/>
<text text-anchor="middle" x="234" y="-63.5" font-family="Helvetica,sans-Serif" font-size="10.00">itkConfigure.h</text>
</a>
</g>
</g>
<!-- Node10&#45;&gt;Node14 -->
<g id="edge14" class="edge">
<title>Node10&#45;&gt;Node14</title>
<path fill="none" stroke="midnightblue" d="M167.69,-112.32C179.9,-103.98 198.58,-91.21 213,-81.35"/>
<polygon fill="midnightblue" stroke="midnightblue" points="215.06,-84.19 221.34,-75.65 211.11,-78.41 215.06,-84.19"/>
</g>
<!-- Node15&#45;&gt;Node2 -->
<g id="edge17" class="edge">
<title>Node15&#45;&gt;Node2</title>
<path fill="none" stroke="midnightblue" d="M595.61,-113.09C656.57,-102.96 761.69,-85.49 823.54,-75.22"/>
<polygon fill="midnightblue" stroke="midnightblue" points="824.16,-78.66 833.45,-73.57 823.01,-71.76 824.16,-78.66"/>
</g>
<!-- Node15&#45;&gt;Node3 -->
<g id="edge16" class="edge">
<title>Node15&#45;&gt;Node3</title>
<path fill="none" stroke="midnightblue" d="M548.19,-112.25C548.96,-98.54 552.37,-71.94 567,-56 585.74,-35.58 614.84,-24.32 639.2,-18.18"/>
<polygon fill="midnightblue" stroke="midnightblue" points="640.01,-21.58 648.97,-15.92 638.43,-14.76 640.01,-21.58"/>
</g>
<!-- Node15&#45;&gt;Node16 -->
<g id="edge18" class="edge">
<title>Node15&#45;&gt;Node16</title>
<path fill="none" stroke="midnightblue" d="M526.61,-112.44C504.29,-103.52 469.1,-89.44 443.79,-79.32"/>
<polygon fill="midnightblue" stroke="midnightblue" points="444.88,-75.98 434.29,-75.52 442.28,-82.48 444.88,-75.98"/>
</g>
<!-- Node15&#45;&gt;Node17 -->
<g id="edge19" class="edge">
<title>Node15&#45;&gt;Node17</title>
<path fill="none" stroke="midnightblue" d="M561.66,-112.32C574.92,-103.9 595.27,-90.97 610.85,-81.07"/>
<polygon fill="midnightblue" stroke="midnightblue" points="612.81,-83.97 619.38,-75.65 609.06,-78.06 612.81,-83.97"/>
</g>
<!-- Node18&#45;&gt;Node3 -->
<g id="edge21" class="edge">
<title>Node18&#45;&gt;Node3</title>
<path fill="none" stroke="midnightblue" d="M459.53,-112.45C478.04,-99.01 515.89,-72.77 551,-56 580.25,-42.02 615.01,-30.36 641.52,-22.41"/>
<polygon fill="midnightblue" stroke="midnightblue" points="642.64,-25.73 651.25,-19.55 640.66,-19.01 642.64,-25.73"/>
</g>
<!-- Node18&#45;&gt;Node11 -->
<g id="edge22" class="edge">
<title>Node18&#45;&gt;Node11</title>
<path fill="none" stroke="midnightblue" d="M428.51,-112.44C408.36,-103.6 376.68,-89.69 353.67,-79.59"/>
<polygon fill="midnightblue" stroke="midnightblue" points="354.96,-76.33 344.4,-75.52 352.15,-82.74 354.96,-76.33"/>
</g>
<!-- Node20&#45;&gt;Node18 -->
<g id="edge27" class="edge">
<title>Node20&#45;&gt;Node18</title>
<path fill="none" stroke="midnightblue" d="M455.51,-168.08C454.32,-160.93 452.61,-150.64 451.12,-141.69"/>
<polygon fill="midnightblue" stroke="midnightblue" points="454.55,-141.04 449.46,-131.75 447.65,-142.19 454.55,-141.04"/>
</g>
<!-- Node22 -->
<g id="node22" class="node">
<title>Node22</title>
<g id="a_node22"><a xlink:href="itkMetaDataObjectBase_8h.html" target="_top" xlink:title=" ">
<polygon fill="white" stroke="black" points="110,-230 110,-249 252,-249 252,-230 110,-230"/>
<text text-anchor="middle" x="181" y="-237" font-family="Helvetica,sans-Serif" font-size="10.00">itkMetaDataObjectBase.h</text>
</a>
</g>
</g>
<!-- Node21&#45;&gt;Node22 -->
<g id="edge29" class="edge">
<title>Node21&#45;&gt;Node22</title>
<path fill="none" stroke="midnightblue" d="M281.24,-291.48C261.78,-281.58 229.45,-265.14 206.79,-253.62"/>
<polygon fill="midnightblue" stroke="midnightblue" points="208.23,-250.42 197.73,-249.01 205.06,-256.66 208.23,-250.42"/>
</g>
<!-- Node23 -->
<g id="node23" class="node">
<title>Node23</title>
<g id="a_node23"><a xlink:title=" ">
<polygon fill="white" stroke="#bfbfbf" points="886,-230 886,-249 950,-249 950,-230 886,-230"/>
<text text-anchor="middle" x="918" y="-237" font-family="Helvetica,sans-Serif" font-size="10.00">algorithm</text>
</a>
</g>
</g>
<!-- Node21&#45;&gt;Node23 -->
<g id="edge33" class="edge">
<title>Node21&#45;&gt;Node23</title>
<path fill="none" stroke="midnightblue" d="M365.53,-293.52C494.01,-281.19 770.22,-254.68 875.79,-244.55"/>
<polygon fill="midnightblue" stroke="midnightblue" points="876.14,-248.03 885.76,-243.59 875.47,-241.07 876.14,-248.03"/>
</g>
<!-- Node21&#45;&gt;Node24 -->
<g id="edge34" class="edge">
<title>Node21&#45;&gt;Node24</title>
<path fill="none" stroke="midnightblue" d="M339.55,-291.48C397.4,-279.61 501.09,-258.33 554.37,-247.4"/>
<polygon fill="midnightblue" stroke="midnightblue" points="555.23,-250.8 564.33,-245.36 553.83,-243.94 555.23,-250.8"/>
</g>
<!-- Node25 -->
<g id="node25" class="node">
<title>Node25</title>
<g id="a_node25"><a xlink:title=" ">
<polygon fill="white" stroke="#bfbfbf" points="408,-230 408,-249 446,-249 446,-230 408,-230"/>
<text text-anchor="middle" x="427" y="-237" font-family="Helvetica,sans-Serif" font-size="10.00">map</text>
</a>
</g>
</g>
<!-- Node21&#45;&gt;Node25 -->
<g id="edge35" class="edge">
<title>Node21&#45;&gt;Node25</title>
<path fill="none" stroke="midnightblue" d="M318.28,-291.38C338.79,-282.57 371.32,-268.32 399,-255 399.84,-254.59 400.7,-254.18 401.56,-253.76"/>
<polygon fill="midnightblue" stroke="midnightblue" points="403.44,-256.73 410.79,-249.1 400.29,-250.48 403.44,-256.73"/>
</g>
<!-- Node26 -->
<g id="node26" class="node">
<title>Node26</title>
<g id="a_node26"><a xlink:title=" ">
<polygon fill="white" stroke="#bfbfbf" points="270,-230 270,-249 314,-249 314,-230 270,-230"/>
<text text-anchor="middle" x="292" y="-237" font-family="Helvetica,sans-Serif" font-size="10.00">string</text>
</a>
</g>
</g>
<!-- Node21&#45;&gt;Node26 -->
<g id="edge36" class="edge">
<title>Node21&#45;&gt;Node26</title>
<path fill="none" stroke="midnightblue" d="M297.14,-291.48C296.29,-283.08 294.97,-269.98 293.88,-259.16"/>
<polygon fill="midnightblue" stroke="midnightblue" points="297.34,-258.61 292.86,-249.01 290.38,-259.31 297.34,-258.61"/>
</g>
<!-- Node27 -->
<g id="node27" class="node">
<title>Node27</title>
<g id="a_node27"><a xlink:title=" ">
<polygon fill="white" stroke="#bfbfbf" points="332,-230 332,-249 390,-249 390,-230 332,-230"/>
<text text-anchor="middle" x="361" y="-237" font-family="Helvetica,sans-Serif" font-size="10.00">memory</text>
</a>
</g>
</g>
<!-- Node21&#45;&gt;Node27 -->
<g id="edge37" class="edge">
<title>Node21&#45;&gt;Node27</title>
<path fill="none" stroke="midnightblue" d="M307.03,-291.48C316.76,-282.28 332.46,-267.46 344.42,-256.16"/>
<polygon fill="midnightblue" stroke="midnightblue" points="347.12,-258.42 351.99,-249.01 342.32,-253.33 347.12,-258.42"/>
</g>
<!-- Node22&#45;&gt;Node9 -->
<g id="edge30" class="edge">
<title>Node22&#45;&gt;Node9</title>
<path fill="none" stroke="midnightblue" d="M197.76,-229.98C217.22,-220.08 249.55,-203.64 272.21,-192.12"/>
<polygon fill="midnightblue" stroke="midnightblue" points="273.94,-195.16 281.27,-187.51 270.77,-188.92 273.94,-195.16"/>
</g>
<!-- Node22&#45;&gt;Node11 -->
<g id="edge32" class="edge">
<title>Node22&#45;&gt;Node11</title>
<path fill="none" stroke="midnightblue" d="M188.34,-229.76C211.16,-202.58 281.16,-119.21 311.14,-83.51"/>
<polygon fill="midnightblue" stroke="midnightblue" points="314.1,-85.43 317.85,-75.52 308.74,-80.93 314.1,-85.43"/>
</g>
<!-- Node22&#45;&gt;Node19 -->
<g id="edge31" class="edge">
<title>Node22&#45;&gt;Node19</title>
<path fill="none" stroke="midnightblue" d="M230.3,-229.97C275.31,-221.18 337.3,-206.22 354,-188 365.29,-175.68 367.96,-156.43 368.15,-142.07"/>
<polygon fill="midnightblue" stroke="midnightblue" points="371.64,-141.74 367.89,-131.83 364.64,-141.91 371.64,-141.74"/>
</g>
<!-- Node30 -->
<g id="node30" class="node">
<title>Node30</title>
<g id="a_node30"><a xlink:href="itkObjectFactoryBase_8h.html" target="_top" xlink:title=" ">
<polygon fill="white" stroke="black" points="515.5,-459.5 515.5,-478.5 644.5,-478.5 644.5,-459.5 515.5,-459.5"/>
<text text-anchor="middle" x="580" y="-466.5" font-family="Helvetica,sans-Serif" font-size="10.00">itkObjectFactoryBase.h</text>
</a>
</g>
</g>
<!-- Node29&#45;&gt;Node30 -->
<g id="edge41" class="edge">
<title>Node29&#45;&gt;Node30</title>
<path fill="none" stroke="midnightblue" d="M574.99,-515.08C575.79,-507.93 576.93,-497.64 577.92,-488.69"/>
<polygon fill="midnightblue" stroke="midnightblue" points="581.4,-489.08 579.03,-478.75 574.44,-488.3 581.4,-489.08"/>
</g>
<!-- Node30&#45;&gt;Node17 -->
<g id="edge44" class="edge">
<title>Node30&#45;&gt;Node17</title>
<path fill="none" stroke="midnightblue" d="M586.05,-459.37C605.93,-430.13 668,-331.55 668,-240.5 668,-240.5 668,-240.5 668,-177 668,-143.07 652.69,-105.91 642.32,-84.63"/>
<polygon fill="midnightblue" stroke="midnightblue" points="645.36,-82.88 637.72,-75.54 639.12,-86.05 645.36,-82.88"/>
</g>
<!-- Node30&#45;&gt;Node24 -->
<g id="edge49" class="edge">
<title>Node30&#45;&gt;Node24</title>
<path fill="none" stroke="midnightblue" d="M580.3,-459.36C581.47,-426.14 585.69,-306.16 587.34,-259.37"/>
<polygon fill="midnightblue" stroke="midnightblue" points="590.84,-259.27 587.7,-249.15 583.85,-259.02 590.84,-259.27"/>
</g>
<!-- Node31 -->
<g id="node31" class="node">
<title>Node31</title>
<g id="a_node31"><a xlink:href="itkCreateObjectFunction_8h.html" target="_top" xlink:title=" ">
<polygon fill="white" stroke="black" points="370.5,-403.5 370.5,-422.5 513.5,-422.5 513.5,-403.5 370.5,-403.5"/>
<text text-anchor="middle" x="442" y="-410.5" font-family="Helvetica,sans-Serif" font-size="10.00">itkCreateObjectFunction.h</text>
</a>
</g>
</g>
<!-- Node30&#45;&gt;Node31 -->
<g id="edge42" class="edge">
<title>Node30&#45;&gt;Node31</title>
<path fill="none" stroke="midnightblue" d="M558.13,-459.44C535.22,-450.48 499.02,-436.31 473.13,-426.18"/>
<polygon fill="midnightblue" stroke="midnightblue" points="474.35,-422.9 463.76,-422.52 471.8,-429.42 474.35,-422.9"/>
</g>
<!-- Node32 -->
<g id="node32" class="node">
<title>Node32</title>
<g id="a_node32"><a xlink:href="itkCommonEnums_8h.html" target="_top" xlink:title=" ">
<polygon fill="white" stroke="black" points="658,-403.5 658,-422.5 774,-422.5 774,-403.5 658,-403.5"/>
<text text-anchor="middle" x="716" y="-410.5" font-family="Helvetica,sans-Serif" font-size="10.00">itkCommonEnums.h</text>
</a>
</g>
</g>
<!-- Node30&#45;&gt;Node32 -->
<g id="edge45" class="edge">
<title>Node30&#45;&gt;Node32</title>
<path fill="none" stroke="midnightblue" d="M601.55,-459.44C624.03,-450.52 659.49,-436.44 684.98,-426.32"/>
<polygon fill="midnightblue" stroke="midnightblue" points="686.55,-429.46 694.55,-422.52 683.97,-422.95 686.55,-429.46"/>
</g>
<!-- Node34 -->
<g id="node34" class="node">
<title>Node34</title>
<g id="a_node34"><a xlink:title=" ">
<polygon fill="white" stroke="#bfbfbf" points="532,-403.5 532,-422.5 564,-422.5 564,-403.5 532,-403.5"/>
<text text-anchor="middle" x="548" y="-410.5" font-family="Helvetica,sans-Serif" font-size="10.00">list</text>
</a>
</g>
</g>
<!-- Node30&#45;&gt;Node34 -->
<g id="edge48" class="edge">
<title>Node30&#45;&gt;Node34</title>
<path fill="none" stroke="midnightblue" d="M574.72,-459.08C570.29,-451.61 563.84,-440.72 558.38,-431.52"/>
<polygon fill="midnightblue" stroke="midnightblue" points="561.29,-429.57 553.19,-422.75 555.27,-433.14 561.29,-429.57"/>
</g>
<!-- Node31&#45;&gt;Node8 -->
<g id="edge43" class="edge">
<title>Node31&#45;&gt;Node8</title>
<path fill="none" stroke="midnightblue" d="M416.65,-403.44C389.73,-394.36 347,-379.94 316.91,-369.78"/>
<polygon fill="midnightblue" stroke="midnightblue" points="317.83,-366.4 307.23,-366.52 315.59,-373.03 317.83,-366.4"/>
</g>
<!-- Node32&#45;&gt;Node2 -->
<g id="edge46" class="edge">
<title>Node32&#45;&gt;Node2</title>
<path fill="none" stroke="midnightblue" d="M725.74,-403.37C744.1,-386.1 782,-345.21 782,-302 782,-302 782,-302 782,-177 782,-134.47 822.89,-99.53 849.85,-81.12"/>
<polygon fill="midnightblue" stroke="midnightblue" points="851.94,-83.93 858.38,-75.52 848.1,-78.08 851.94,-83.93"/>
</g>
<!-- Node33 -->
<g id="node33" class="node">
<title>Node33</title>
<g id="a_node33"><a xlink:title=" ">
<polygon fill="white" stroke="#bfbfbf" points="658.5,-347.5 658.5,-366.5 715.5,-366.5 715.5,-347.5 658.5,-347.5"/>
<text text-anchor="middle" x="687" y="-354.5" font-family="Helvetica,sans-Serif" font-size="10.00">ostream</text>
</a>
</g>
</g>
<!-- Node32&#45;&gt;Node33 -->
<g id="edge47" class="edge">
<title>Node32&#45;&gt;Node33</title>
<path fill="none" stroke="midnightblue" d="M711.21,-403.08C707.24,-395.69 701.47,-384.95 696.57,-375.81"/>
<polygon fill="midnightblue" stroke="midnightblue" points="699.51,-373.91 691.7,-366.75 693.35,-377.22 699.51,-373.91"/>
</g>
<!-- Node36&#45;&gt;Node3 -->
<g id="edge55" class="edge">
<title>Node36&#45;&gt;Node3</title>
<path fill="none" stroke="midnightblue" d="M1105.84,-347.42C1048.75,-334.7 948.22,-306.57 877,-255 787.13,-189.92 716.77,-72.58 692.32,-28.43"/>
<polygon fill="midnightblue" stroke="midnightblue" points="695.31,-26.61 687.45,-19.5 689.17,-29.96 695.31,-26.61"/>
</g>
<!-- Node37 -->
<g id="node37" class="node">
<title>Node37</title>
<g id="a_node37"><a xlink:title=" ">
<polygon fill="white" stroke="#bfbfbf" points="1215,-291.5 1215,-310.5 1259,-310.5 1259,-291.5 1215,-291.5"/>
<text text-anchor="middle" x="1237" y="-298.5" font-family="Helvetica,sans-Serif" font-size="10.00">limits</text>
</a>
</g>
</g>
<!-- Node36&#45;&gt;Node37 -->
<g id="edge56" class="edge">
<title>Node36&#45;&gt;Node37</title>
<path fill="none" stroke="midnightblue" d="M1163.98,-347.32C1177.55,-338.9 1198.38,-325.97 1214.32,-316.07"/>
<polygon fill="midnightblue" stroke="midnightblue" points="1216.41,-318.9 1223.06,-310.65 1212.71,-312.95 1216.41,-318.9"/>
</g>
<!-- Node38 -->
<g id="node38" class="node">
<title>Node38</title>
<g id="a_node38"><a xlink:title=" ">
<polygon fill="white" stroke="#bfbfbf" points="1277.5,-291.5 1277.5,-310.5 1336.5,-310.5 1336.5,-291.5 1277.5,-291.5"/>
<text text-anchor="middle" x="1307" y="-298.5" font-family="Helvetica,sans-Serif" font-size="10.00">complex</text>
</a>
</g>
</g>
<!-- Node36&#45;&gt;Node38 -->
<g id="edge57" class="edge">
<title>Node36&#45;&gt;Node38</title>
<path fill="none" stroke="midnightblue" d="M1174.88,-347.44C1201.29,-338.36 1243.22,-323.94 1272.74,-313.78"/>
<polygon fill="midnightblue" stroke="midnightblue" points="1273.92,-317.08 1282.24,-310.52 1271.64,-310.46 1273.92,-317.08"/>
</g>
<!-- Node39 -->
<g id="node39" class="node">
<title>Node39</title>
<g id="a_node39"><a xlink:href="itkFixedArray_8h.html" target="_top" xlink:title=" ">
<polygon fill="white" stroke="black" points="1069.5,-291.5 1069.5,-310.5 1158.5,-310.5 1158.5,-291.5 1069.5,-291.5"/>
<text text-anchor="middle" x="1114" y="-298.5" font-family="Helvetica,sans-Serif" font-size="10.00">itkFixedArray.h</text>
</a>
</g>
</g>
<!-- Node36&#45;&gt;Node39 -->
<g id="edge58" class="edge">
<title>Node36&#45;&gt;Node39</title>
<path fill="none" stroke="midnightblue" d="M1144.06,-347.08C1139.02,-339.53 1131.66,-328.49 1125.49,-319.23"/>
<polygon fill="midnightblue" stroke="midnightblue" points="1128.29,-317.13 1119.83,-310.75 1122.47,-321.01 1128.29,-317.13"/>
</g>
<!-- Node39&#45;&gt;Node3 -->
<g id="edge59" class="edge">
<title>Node39&#45;&gt;Node3</title>
<path fill="none" stroke="midnightblue" d="M1084.2,-291.38C1060.03,-283.7 1025.56,-271.19 998,-255 983.07,-246.23 772.13,-66.01 758,-56 741.94,-44.62 722.92,-33.23 708.05,-24.76"/>
<polygon fill="midnightblue" stroke="midnightblue" points="709.38,-21.49 698.95,-19.64 705.95,-27.59 709.38,-21.49"/>
</g>
<!-- Node39&#45;&gt;Node23 -->
<g id="edge61" class="edge">
<title>Node39&#45;&gt;Node23</title>
<path fill="none" stroke="midnightblue" d="M1085.21,-291.49C1054.98,-282.53 1006.1,-267.95 964,-255 961.05,-254.09 958,-253.15 954.94,-252.19"/>
<polygon fill="midnightblue" stroke="midnightblue" points="955.81,-248.8 945.22,-249.15 953.72,-255.48 955.81,-248.8"/>
</g>
<!-- Node40 -->
<g id="node40" class="node">
<title>Node40</title>
<g id="a_node40"><a xlink:href="itkMakeFilled_8h.html" target="_top" xlink:title=" ">
<polygon fill="white" stroke="black" points="1125.5,-230 1125.5,-249 1216.5,-249 1216.5,-230 1125.5,-230"/>
<text text-anchor="middle" x="1171" y="-237" font-family="Helvetica,sans-Serif" font-size="10.00">itkMakeFilled.h</text>
</a>
</g>
</g>
<!-- Node39&#45;&gt;Node40 -->
<g id="edge60" class="edge">
<title>Node39&#45;&gt;Node40</title>
<path fill="none" stroke="midnightblue" d="M1122.17,-291.48C1130.89,-282.37 1144.9,-267.74 1155.69,-256.48"/>
<polygon fill="midnightblue" stroke="midnightblue" points="1158.46,-258.65 1162.85,-249.01 1153.4,-253.81 1158.46,-258.65"/>
</g>
<!-- Node41 -->
<g id="node41" class="node">
<title>Node41</title>
<g id="a_node41"><a xlink:title=" ">
<polygon fill="white" stroke="#bfbfbf" points="1235,-230 1235,-249 1277,-249 1277,-230 1235,-230"/>
<text text-anchor="middle" x="1256" y="-237" font-family="Helvetica,sans-Serif" font-size="10.00">array</text>
</a>
</g>
</g>
<!-- Node39&#45;&gt;Node41 -->
<g id="edge62" class="edge">
<title>Node39&#45;&gt;Node41</title>
<path fill="none" stroke="midnightblue" d="M1136.5,-291.48C1159.25,-282.74 1195.33,-268.55 1226,-255 1227.16,-254.49 1228.34,-253.96 1229.53,-253.41"/>
<polygon fill="midnightblue" stroke="midnightblue" points="1231.08,-256.55 1238.64,-249.14 1228.1,-250.22 1231.08,-256.55"/>
</g>
<!-- Node42 -->
<g id="node42" class="node">
<title>Node42</title>
<g id="a_node42"><a xlink:title=" ">
<polygon fill="white" stroke="#bfbfbf" points="1006.5,-230 1006.5,-249 1107.5,-249 1107.5,-230 1006.5,-230"/>
<text text-anchor="middle" x="1057" y="-237" font-family="Helvetica,sans-Serif" font-size="10.00">itkFixedArray.hxx</text>
</a>
</g>
</g>
<!-- Node39&#45;&gt;Node42 -->
<g id="edge63" class="edge">
<title>Node39&#45;&gt;Node42</title>
<path fill="none" stroke="midnightblue" d="M1105.83,-291.48C1097.11,-282.37 1083.1,-267.74 1072.31,-256.48"/>
<polygon fill="midnightblue" stroke="midnightblue" points="1074.6,-253.81 1065.15,-249.01 1069.54,-258.65 1074.6,-253.81"/>
</g>
<!-- Node43 -->
<g id="node43" class="node">
<title>Node43</title>
<g id="a_node43"><a xlink:href="itkNumericTraitsFixedArrayPixel_8h.html" target="_top" xlink:title=" ">
<polygon fill="white" stroke="black" points="1294.5,-224.5 1294.5,-254.5 1443.5,-254.5 1443.5,-224.5 1294.5,-224.5"/>
<text text-anchor="start" x="1302.5" y="-242.5" font-family="Helvetica,sans-Serif" font-size="10.00">itkNumericTraitsFixedArray</text>
<text text-anchor="middle" x="1369" y="-231.5" font-family="Helvetica,sans-Serif" font-size="10.00">Pixel.h</text>
</a>
</g>
</g>
<!-- Node39&#45;&gt;Node43 -->
<g id="edge64" class="edge">
<title>Node39&#45;&gt;Node43</title>
<path fill="none" stroke="midnightblue" d="M1145.63,-291.48C1182.32,-282.46 1243.84,-268.01 1293.08,-256.79"/>
<polygon fill="midnightblue" stroke="midnightblue" points="1294.1,-260.15 1303.07,-254.52 1292.54,-253.33 1294.1,-260.15"/>
</g>
<!-- Node43&#45;&gt;Node36 -->
<g id="edge65" class="edge">
<title>Node43&#45;&gt;Node36</title>
<path fill="none" stroke="midnightblue" d="M1294.16,-254.36C1265.03,-262.06 1232.39,-273.71 1206,-291 1186.99,-303.46 1170.75,-324.15 1160.73,-338.84"/>
<polygon fill="midnightblue" stroke="midnightblue" points="1157.62,-337.2 1155.07,-347.48 1163.48,-341.03 1157.62,-337.2"/>
</g>
<!-- Node43&#45;&gt;Node39 -->
<g id="edge66" class="edge">
<title>Node43&#45;&gt;Node39</title>
<path fill="none" stroke="midnightblue" d="M1314.73,-254.52C1270.51,-265.16 1208.6,-279.57 1165.22,-289.29"/>
<polygon fill="midnightblue" stroke="midnightblue" points="1164.43,-285.88 1155.44,-291.48 1165.96,-292.71 1164.43,-285.88"/>
</g>
</g>
</svg>
