<?xml version="1.0" encoding="UTF-8" standalone="no"?>
<!DOCTYPE svg PUBLIC "-//W3C//DTD SVG 1.1//EN"
 "http://www.w3.org/Graphics/SVG/1.1/DTD/svg11.dtd">
<!-- Generated by graphviz version 2.43.0 (0)
 -->
<!-- Title: itkQuadEdgeMeshPoint.h Pages: 1 -->
<svg width="1237pt" height="375pt"
 viewBox="0.00 0.00 1237.00 375.00" xmlns="http://www.w3.org/2000/svg" xmlns:xlink="http://www.w3.org/1999/xlink">
<g id="graph0" class="graph" transform="scale(1 1) rotate(0) translate(4 371)">
<title>itkQuadEdgeMeshPoint.h</title>
<polygon fill="white" stroke="transparent" points="-4,4 -4,-371 1233,-371 1233,4 -4,4"/>
<!-- Node1 -->
<g id="node1" class="node">
<title>Node1</title>
<g id="a_node1"><a xlink:title=" ">
<polygon fill="#bfbfbf" stroke="black" points="506.5,-347.5 506.5,-366.5 645.5,-366.5 645.5,-347.5 506.5,-347.5"/>
<text text-anchor="middle" x="576" y="-354.5" font-family="Helvetica,sans-Serif" font-size="10.00">itkQuadEdgeMeshPoint.h</text>
</a>
</g>
</g>
<!-- Node2 -->
<g id="node2" class="node">
<title>Node2</title>
<g id="a_node2"><a xlink:href="itkPoint_8h.html" target="_top" xlink:title=" ">
<polygon fill="white" stroke="black" points="796.5,-291.5 796.5,-310.5 859.5,-310.5 859.5,-291.5 796.5,-291.5"/>
<text text-anchor="middle" x="828" y="-298.5" font-family="Helvetica,sans-Serif" font-size="10.00">itkPoint.h</text>
</a>
</g>
</g>
<!-- Node1&#45;&gt;Node2 -->
<g id="edge1" class="edge">
<title>Node1&#45;&gt;Node2</title>
<path fill="none" stroke="midnightblue" d="M615.93,-347.44C662.48,-337.47 739.04,-321.06 786.32,-310.93"/>
<polygon fill="midnightblue" stroke="midnightblue" points="787.19,-314.32 796.24,-308.81 785.72,-307.48 787.19,-314.32"/>
</g>
<!-- Node23 -->
<g id="node23" class="node">
<title>Node23</title>
<g id="a_node23"><a xlink:href="itkConceptChecking_8h.html" target="_top" xlink:title=" ">
<polygon fill="white" stroke="black" points="127.5,-179.5 127.5,-198.5 250.5,-198.5 250.5,-179.5 127.5,-179.5"/>
<text text-anchor="middle" x="189" y="-186.5" font-family="Helvetica,sans-Serif" font-size="10.00">itkConceptChecking.h</text>
</a>
</g>
</g>
<!-- Node1&#45;&gt;Node23 -->
<g id="edge37" class="edge">
<title>Node1&#45;&gt;Node23</title>
<path fill="none" stroke="midnightblue" d="M556.01,-347.42C492.31,-320.1 293.91,-235 218.5,-202.65"/>
<polygon fill="midnightblue" stroke="midnightblue" points="219.67,-199.35 209.1,-198.62 216.92,-205.78 219.67,-199.35"/>
</g>
<!-- Node29 -->
<g id="node29" class="node">
<title>Node29</title>
<g id="a_node29"><a xlink:href="itkGeometricalQuadEdge_8h.html" target="_top" xlink:title=" ">
<polygon fill="white" stroke="black" points="269,-179.5 269,-198.5 417,-198.5 417,-179.5 269,-179.5"/>
<text text-anchor="middle" x="343" y="-186.5" font-family="Helvetica,sans-Serif" font-size="10.00">itkGeometricalQuadEdge.h</text>
</a>
</g>
</g>
<!-- Node1&#45;&gt;Node29 -->
<g id="edge38" class="edge">
<title>Node1&#45;&gt;Node29</title>
<path fill="none" stroke="midnightblue" d="M563.8,-347.31C525.98,-320.36 410.39,-238.01 363.29,-204.46"/>
<polygon fill="midnightblue" stroke="midnightblue" points="365.25,-201.56 355.08,-198.61 361.19,-207.26 365.25,-201.56"/>
</g>
<!-- Node34 -->
<g id="node34" class="node">
<title>Node34</title>
<g id="a_node34"><a xlink:title=" ">
<polygon fill="white" stroke="#bfbfbf" points="877.5,-291.5 877.5,-310.5 1028.5,-310.5 1028.5,-291.5 877.5,-291.5"/>
<text text-anchor="middle" x="953" y="-298.5" font-family="Helvetica,sans-Serif" font-size="10.00">itkQuadEdgeMeshPoint.hxx</text>
</a>
</g>
</g>
<!-- Node1&#45;&gt;Node34 -->
<g id="edge47" class="edge">
<title>Node1&#45;&gt;Node34</title>
<path fill="none" stroke="midnightblue" d="M635.74,-347.44C703.02,-337.81 812.23,-322.16 883.34,-311.98"/>
<polygon fill="midnightblue" stroke="midnightblue" points="884.14,-315.4 893.54,-310.52 883.15,-308.47 884.14,-315.4"/>
</g>
<!-- Node3 -->
<g id="node3" class="node">
<title>Node3</title>
<g id="a_node3"><a xlink:href="itkNumericTraits_8h.html" target="_top" xlink:title=" ">
<polygon fill="white" stroke="black" points="686,-123.5 686,-142.5 792,-142.5 792,-123.5 686,-123.5"/>
<text text-anchor="middle" x="739" y="-130.5" font-family="Helvetica,sans-Serif" font-size="10.00">itkNumericTraits.h</text>
</a>
</g>
</g>
<!-- Node2&#45;&gt;Node3 -->
<g id="edge2" class="edge">
<title>Node2&#45;&gt;Node3</title>
<path fill="none" stroke="midnightblue" d="M828.92,-291.24C830.71,-270.06 832.57,-215.16 809,-179 799.9,-165.04 784.78,-154.52 770.92,-147.18"/>
<polygon fill="midnightblue" stroke="midnightblue" points="772.13,-143.87 761.62,-142.6 769.04,-150.15 772.13,-143.87"/>
</g>
<!-- Node13 -->
<g id="node13" class="node">
<title>Node13</title>
<g id="a_node13"><a xlink:href="itkVector_8h.html" target="_top" xlink:title=" ">
<polygon fill="white" stroke="black" points="991,-235.5 991,-254.5 1059,-254.5 1059,-235.5 991,-235.5"/>
<text text-anchor="middle" x="1025" y="-242.5" font-family="Helvetica,sans-Serif" font-size="10.00">itkVector.h</text>
</a>
</g>
</g>
<!-- Node2&#45;&gt;Node13 -->
<g id="edge15" class="edge">
<title>Node2&#45;&gt;Node13</title>
<path fill="none" stroke="midnightblue" d="M859.22,-291.44C892.93,-282.2 946.8,-267.44 983.93,-257.26"/>
<polygon fill="midnightblue" stroke="midnightblue" points="985.21,-260.54 993.93,-254.52 983.36,-253.78 985.21,-260.54"/>
</g>
<!-- Node14 -->
<g id="node14" class="node">
<title>Node14</title>
<g id="a_node14"><a xlink:title=" ">
<polygon fill="white" stroke="#bfbfbf" points="856.5,-179.5 856.5,-198.5 969.5,-198.5 969.5,-179.5 856.5,-179.5"/>
<text text-anchor="middle" x="913" y="-186.5" font-family="Helvetica,sans-Serif" font-size="10.00">vnl/vnl_vector_ref.h</text>
</a>
</g>
</g>
<!-- Node2&#45;&gt;Node14 -->
<g id="edge19" class="edge">
<title>Node2&#45;&gt;Node14</title>
<path fill="none" stroke="midnightblue" d="M859.75,-291.66C889.75,-283.06 931.52,-268.98 941,-255 951.39,-239.67 939.84,-219.86 928.59,-206.16"/>
<polygon fill="midnightblue" stroke="midnightblue" points="931.06,-203.68 921.81,-198.51 925.82,-208.32 931.06,-203.68"/>
</g>
<!-- Node16 -->
<g id="node16" class="node">
<title>Node16</title>
<g id="a_node16"><a xlink:href="itkMath_8h.html" target="_top" xlink:title=" ">
<polygon fill="white" stroke="black" points="580.5,-235.5 580.5,-254.5 643.5,-254.5 643.5,-235.5 580.5,-235.5"/>
<text text-anchor="middle" x="612" y="-242.5" font-family="Helvetica,sans-Serif" font-size="10.00">itkMath.h</text>
</a>
</g>
</g>
<!-- Node2&#45;&gt;Node16 -->
<g id="edge20" class="edge">
<title>Node2&#45;&gt;Node16</title>
<path fill="none" stroke="midnightblue" d="M796.13,-292.03C758.29,-282.57 695.09,-266.77 653.48,-256.37"/>
<polygon fill="midnightblue" stroke="midnightblue" points="654.2,-252.94 643.65,-253.91 652.5,-259.73 654.2,-252.94"/>
</g>
<!-- Node28 -->
<g id="node28" class="node">
<title>Node28</title>
<g id="a_node28"><a xlink:title=" ">
<polygon fill="white" stroke="#bfbfbf" points="856.5,-235.5 856.5,-254.5 931.5,-254.5 931.5,-235.5 856.5,-235.5"/>
<text text-anchor="middle" x="894" y="-242.5" font-family="Helvetica,sans-Serif" font-size="10.00">itkPoint.hxx</text>
</a>
</g>
</g>
<!-- Node2&#45;&gt;Node28 -->
<g id="edge36" class="edge">
<title>Node2&#45;&gt;Node28</title>
<path fill="none" stroke="midnightblue" d="M838.6,-291.32C848.46,-283.26 863.35,-271.08 875.22,-261.37"/>
<polygon fill="midnightblue" stroke="midnightblue" points="877.68,-263.88 883.2,-254.83 873.25,-258.46 877.68,-263.88"/>
</g>
<!-- Node4 -->
<g id="node4" class="node">
<title>Node4</title>
<g id="a_node4"><a xlink:href="itkMacro_8h.html" target="_top" xlink:title=" ">
<polygon fill="white" stroke="black" points="346,-6 346,-25 414,-25 414,-6 346,-6"/>
<text text-anchor="middle" x="380" y="-13" font-family="Helvetica,sans-Serif" font-size="10.00">itkMacro.h</text>
</a>
</g>
</g>
<!-- Node3&#45;&gt;Node4 -->
<g id="edge3" class="edge">
<title>Node3&#45;&gt;Node4</title>
<path fill="none" stroke="midnightblue" d="M732.36,-123.15C721.06,-108.81 696.63,-80.71 669,-67 589.16,-27.38 483.43,-18.33 424.52,-16.57"/>
<polygon fill="midnightblue" stroke="midnightblue" points="424.51,-13.07 414.43,-16.32 424.34,-20.06 424.51,-13.07"/>
</g>
<!-- Node5 -->
<g id="node5" class="node">
<title>Node5</title>
<g id="a_node5"><a xlink:title=" ">
<polygon fill="white" stroke="#bfbfbf" points="616,-67.5 616,-86.5 660,-86.5 660,-67.5 616,-67.5"/>
<text text-anchor="middle" x="638" y="-74.5" font-family="Helvetica,sans-Serif" font-size="10.00">limits</text>
</a>
</g>
</g>
<!-- Node3&#45;&gt;Node5 -->
<g id="edge4" class="edge">
<title>Node3&#45;&gt;Node5</title>
<path fill="none" stroke="midnightblue" d="M722.77,-123.32C706.65,-114.7 681.7,-101.36 663.04,-91.39"/>
<polygon fill="midnightblue" stroke="midnightblue" points="664.66,-88.28 654.19,-86.65 661.36,-94.46 664.66,-88.28"/>
</g>
<!-- Node6 -->
<g id="node6" class="node">
<title>Node6</title>
<g id="a_node6"><a xlink:title=" ">
<polygon fill="white" stroke="#bfbfbf" points="716.5,-67.5 716.5,-86.5 775.5,-86.5 775.5,-67.5 716.5,-67.5"/>
<text text-anchor="middle" x="746" y="-74.5" font-family="Helvetica,sans-Serif" font-size="10.00">complex</text>
</a>
</g>
</g>
<!-- Node3&#45;&gt;Node6 -->
<g id="edge5" class="edge">
<title>Node3&#45;&gt;Node6</title>
<path fill="none" stroke="midnightblue" d="M740.16,-123.08C741.08,-115.93 742.42,-105.64 743.58,-96.69"/>
<polygon fill="midnightblue" stroke="midnightblue" points="747.05,-97.12 744.87,-86.75 740.11,-96.22 747.05,-97.12"/>
</g>
<!-- Node7 -->
<g id="node7" class="node">
<title>Node7</title>
<g id="a_node7"><a xlink:href="itkFixedArray_8h.html" target="_top" xlink:title=" ">
<polygon fill="white" stroke="black" points="852.5,-67.5 852.5,-86.5 941.5,-86.5 941.5,-67.5 852.5,-67.5"/>
<text text-anchor="middle" x="897" y="-74.5" font-family="Helvetica,sans-Serif" font-size="10.00">itkFixedArray.h</text>
</a>
</g>
</g>
<!-- Node3&#45;&gt;Node7 -->
<g id="edge6" class="edge">
<title>Node3&#45;&gt;Node7</title>
<path fill="none" stroke="midnightblue" d="M764.04,-123.44C790.62,-114.36 832.81,-99.94 862.52,-89.78"/>
<polygon fill="midnightblue" stroke="midnightblue" points="863.75,-93.06 872.08,-86.52 861.49,-86.44 863.75,-93.06"/>
</g>
<!-- Node7&#45;&gt;Node4 -->
<g id="edge7" class="edge">
<title>Node7&#45;&gt;Node4</title>
<path fill="none" stroke="midnightblue" d="M852.47,-70.88C754.64,-59.62 521.88,-32.83 424.28,-21.6"/>
<polygon fill="midnightblue" stroke="midnightblue" points="424.49,-18.1 414.16,-20.43 423.69,-25.05 424.49,-18.1"/>
</g>
<!-- Node8 -->
<g id="node8" class="node">
<title>Node8</title>
<g id="a_node8"><a xlink:href="itkMakeFilled_8h.html" target="_top" xlink:title=" ">
<polygon fill="white" stroke="black" points="1055.5,-6 1055.5,-25 1146.5,-25 1146.5,-6 1055.5,-6"/>
<text text-anchor="middle" x="1101" y="-13" font-family="Helvetica,sans-Serif" font-size="10.00">itkMakeFilled.h</text>
</a>
</g>
</g>
<!-- Node7&#45;&gt;Node8 -->
<g id="edge8" class="edge">
<title>Node7&#45;&gt;Node8</title>
<path fill="none" stroke="midnightblue" d="M926.23,-67.48C961.9,-57.07 1022.36,-39.44 1061.98,-27.88"/>
<polygon fill="midnightblue" stroke="midnightblue" points="1063.21,-31.17 1071.83,-25.01 1061.25,-24.45 1063.21,-31.17"/>
</g>
<!-- Node9 -->
<g id="node9" class="node">
<title>Node9</title>
<g id="a_node9"><a xlink:title=" ">
<polygon fill="white" stroke="#bfbfbf" points="1165,-6 1165,-25 1229,-25 1229,-6 1165,-6"/>
<text text-anchor="middle" x="1197" y="-13" font-family="Helvetica,sans-Serif" font-size="10.00">algorithm</text>
</a>
</g>
</g>
<!-- Node7&#45;&gt;Node9 -->
<g id="edge9" class="edge">
<title>Node7&#45;&gt;Node9</title>
<path fill="none" stroke="midnightblue" d="M941.94,-70.52C993.99,-63.65 1082.05,-50.36 1156,-31 1159.04,-30.2 1162.18,-29.28 1165.3,-28.3"/>
<polygon fill="midnightblue" stroke="midnightblue" points="1166.72,-31.52 1175.08,-25.02 1164.49,-24.88 1166.72,-31.52"/>
</g>
<!-- Node10 -->
<g id="node10" class="node">
<title>Node10</title>
<g id="a_node10"><a xlink:title=" ">
<polygon fill="white" stroke="#bfbfbf" points="876,-6 876,-25 918,-25 918,-6 876,-6"/>
<text text-anchor="middle" x="897" y="-13" font-family="Helvetica,sans-Serif" font-size="10.00">array</text>
</a>
</g>
</g>
<!-- Node7&#45;&gt;Node10 -->
<g id="edge10" class="edge">
<title>Node7&#45;&gt;Node10</title>
<path fill="none" stroke="midnightblue" d="M897,-67.48C897,-59.08 897,-45.98 897,-35.16"/>
<polygon fill="midnightblue" stroke="midnightblue" points="900.5,-35.01 897,-25.01 893.5,-35.01 900.5,-35.01"/>
</g>
<!-- Node11 -->
<g id="node11" class="node">
<title>Node11</title>
<g id="a_node11"><a xlink:title=" ">
<polygon fill="white" stroke="#bfbfbf" points="936.5,-6 936.5,-25 1037.5,-25 1037.5,-6 936.5,-6"/>
<text text-anchor="middle" x="987" y="-13" font-family="Helvetica,sans-Serif" font-size="10.00">itkFixedArray.hxx</text>
</a>
</g>
</g>
<!-- Node7&#45;&gt;Node11 -->
<g id="edge11" class="edge">
<title>Node7&#45;&gt;Node11</title>
<path fill="none" stroke="midnightblue" d="M909.89,-67.48C924.46,-57.84 948.4,-42.02 965.75,-30.55"/>
<polygon fill="midnightblue" stroke="midnightblue" points="967.72,-33.44 974.13,-25.01 963.86,-27.6 967.72,-33.44"/>
</g>
<!-- Node12 -->
<g id="node12" class="node">
<title>Node12</title>
<g id="a_node12"><a xlink:href="itkNumericTraitsFixedArrayPixel_8h.html" target="_top" xlink:title=" ">
<polygon fill="white" stroke="black" points="709.5,-0.5 709.5,-30.5 858.5,-30.5 858.5,-0.5 709.5,-0.5"/>
<text text-anchor="start" x="717.5" y="-18.5" font-family="Helvetica,sans-Serif" font-size="10.00">itkNumericTraitsFixedArray</text>
<text text-anchor="middle" x="784" y="-7.5" font-family="Helvetica,sans-Serif" font-size="10.00">Pixel.h</text>
</a>
</g>
</g>
<!-- Node7&#45;&gt;Node12 -->
<g id="edge12" class="edge">
<title>Node7&#45;&gt;Node12</title>
<path fill="none" stroke="midnightblue" d="M875.91,-67.48C858.29,-59.15 833.22,-46.21 813.64,-35.45"/>
<polygon fill="midnightblue" stroke="midnightblue" points="815.24,-32.33 804.8,-30.52 811.84,-38.45 815.24,-32.33"/>
</g>
<!-- Node12&#45;&gt;Node3 -->
<g id="edge13" class="edge">
<title>Node12&#45;&gt;Node3</title>
<path fill="none" stroke="midnightblue" d="M787.42,-30.64C790.25,-45.34 792.69,-68.72 785,-87 779.97,-98.95 770.06,-109.31 760.71,-117.07"/>
<polygon fill="midnightblue" stroke="midnightblue" points="758.56,-114.31 752.79,-123.19 762.84,-119.85 758.56,-114.31"/>
</g>
<!-- Node12&#45;&gt;Node7 -->
<g id="edge14" class="edge">
<title>Node12&#45;&gt;Node7</title>
<path fill="none" stroke="midnightblue" d="M816.46,-30.52C835.91,-40.11 859.91,-52.75 876.73,-62.28"/>
<polygon fill="midnightblue" stroke="midnightblue" points="875.3,-65.5 885.71,-67.48 878.81,-59.44 875.3,-65.5"/>
</g>
<!-- Node13&#45;&gt;Node7 -->
<g id="edge16" class="edge">
<title>Node13&#45;&gt;Node7</title>
<path fill="none" stroke="midnightblue" d="M1040.83,-235.35C1060.45,-223.44 1089.85,-200.95 1077,-179 1048.28,-129.94 986.03,-102.9 942.84,-89.43"/>
<polygon fill="midnightblue" stroke="midnightblue" points="943.7,-86.03 933.11,-86.52 941.69,-92.74 943.7,-86.03"/>
</g>
<!-- Node13&#45;&gt;Node14 -->
<g id="edge17" class="edge">
<title>Node13&#45;&gt;Node14</title>
<path fill="none" stroke="midnightblue" d="M1007.01,-235.32C988.96,-226.62 960.95,-213.12 940.2,-203.11"/>
<polygon fill="midnightblue" stroke="midnightblue" points="941.48,-199.84 930.95,-198.65 938.44,-206.15 941.48,-199.84"/>
</g>
<!-- Node15 -->
<g id="node15" class="node">
<title>Node15</title>
<g id="a_node15"><a xlink:title=" ">
<polygon fill="white" stroke="#bfbfbf" points="988,-179.5 988,-198.5 1068,-198.5 1068,-179.5 988,-179.5"/>
<text text-anchor="middle" x="1028" y="-186.5" font-family="Helvetica,sans-Serif" font-size="10.00">itkVector.hxx</text>
</a>
</g>
</g>
<!-- Node13&#45;&gt;Node15 -->
<g id="edge18" class="edge">
<title>Node13&#45;&gt;Node15</title>
<path fill="none" stroke="midnightblue" d="M1025.5,-235.08C1025.89,-228.01 1026.45,-217.86 1026.95,-208.99"/>
<polygon fill="midnightblue" stroke="midnightblue" points="1030.45,-208.93 1027.51,-198.75 1023.46,-208.54 1030.45,-208.93"/>
</g>
<!-- Node17 -->
<g id="node17" class="node">
<title>Node17</title>
<g id="a_node17"><a xlink:title=" ">
<polygon fill="white" stroke="#bfbfbf" points="545.5,-179.5 545.5,-198.5 592.5,-198.5 592.5,-179.5 545.5,-179.5"/>
<text text-anchor="middle" x="569" y="-186.5" font-family="Helvetica,sans-Serif" font-size="10.00">cmath</text>
</a>
</g>
</g>
<!-- Node16&#45;&gt;Node17 -->
<g id="edge21" class="edge">
<title>Node16&#45;&gt;Node17</title>
<path fill="none" stroke="midnightblue" d="M604.9,-235.08C598.76,-227.38 589.73,-216.03 582.26,-206.65"/>
<polygon fill="midnightblue" stroke="midnightblue" points="584.94,-204.39 575.97,-198.75 579.46,-208.75 584.94,-204.39"/>
</g>
<!-- Node18 -->
<g id="node18" class="node">
<title>Node18</title>
<g id="a_node18"><a xlink:href="itkMathDetail_8h.html" target="_top" xlink:title=" ">
<polygon fill="white" stroke="black" points="435,-179.5 435,-198.5 527,-198.5 527,-179.5 435,-179.5"/>
<text text-anchor="middle" x="481" y="-186.5" font-family="Helvetica,sans-Serif" font-size="10.00">itkMathDetail.h</text>
</a>
</g>
</g>
<!-- Node16&#45;&gt;Node18 -->
<g id="edge22" class="edge">
<title>Node16&#45;&gt;Node18</title>
<path fill="none" stroke="midnightblue" d="M591.24,-235.44C569.68,-226.56 535.74,-212.56 511.21,-202.45"/>
<polygon fill="midnightblue" stroke="midnightblue" points="512.24,-199.09 501.66,-198.52 509.57,-205.56 512.24,-199.09"/>
</g>
<!-- Node16&#45;&gt;Node23 -->
<g id="edge29" class="edge">
<title>Node16&#45;&gt;Node23</title>
<path fill="none" stroke="midnightblue" d="M580.21,-239.94C512.8,-231.34 354.07,-211.07 260.84,-199.17"/>
<polygon fill="midnightblue" stroke="midnightblue" points="261,-195.66 250.64,-197.87 260.11,-202.61 261,-195.66"/>
</g>
<!-- Node26 -->
<g id="node26" class="node">
<title>Node26</title>
<g id="a_node26"><a xlink:title=" ">
<polygon fill="white" stroke="#bfbfbf" points="610.5,-179.5 610.5,-198.5 699.5,-198.5 699.5,-179.5 610.5,-179.5"/>
<text text-anchor="middle" x="655" y="-186.5" font-family="Helvetica,sans-Serif" font-size="10.00">vnl/vnl_math.h</text>
</a>
</g>
</g>
<!-- Node16&#45;&gt;Node26 -->
<g id="edge34" class="edge">
<title>Node16&#45;&gt;Node26</title>
<path fill="none" stroke="midnightblue" d="M619.1,-235.08C625.24,-227.38 634.27,-216.03 641.74,-206.65"/>
<polygon fill="midnightblue" stroke="midnightblue" points="644.54,-208.75 648.03,-198.75 639.06,-204.39 644.54,-208.75"/>
</g>
<!-- Node27 -->
<g id="node27" class="node">
<title>Node27</title>
<g id="a_node27"><a xlink:title=" ">
<polygon fill="white" stroke="#bfbfbf" points="718,-179.5 718,-198.5 800,-198.5 800,-179.5 718,-179.5"/>
<text text-anchor="middle" x="759" y="-186.5" font-family="Helvetica,sans-Serif" font-size="10.00">vxl_version.h</text>
</a>
</g>
</g>
<!-- Node16&#45;&gt;Node27 -->
<g id="edge35" class="edge">
<title>Node16&#45;&gt;Node27</title>
<path fill="none" stroke="midnightblue" d="M635.29,-235.44C659.81,-226.44 698.6,-212.19 726.2,-202.05"/>
<polygon fill="midnightblue" stroke="midnightblue" points="727.64,-205.25 735.82,-198.52 725.22,-198.68 727.64,-205.25"/>
</g>
<!-- Node18&#45;&gt;Node3 -->
<g id="edge27" class="edge">
<title>Node18&#45;&gt;Node3</title>
<path fill="none" stroke="midnightblue" d="M521.88,-179.44C566.98,-170 639.61,-154.8 688.3,-144.61"/>
<polygon fill="midnightblue" stroke="midnightblue" points="689.24,-147.99 698.31,-142.52 687.81,-141.14 689.24,-147.99"/>
</g>
<!-- Node19 -->
<g id="node19" class="node">
<title>Node19</title>
<g id="a_node19"><a xlink:href="itkIntTypes_8h.html" target="_top" xlink:title=" ">
<polygon fill="white" stroke="black" points="481.5,-123.5 481.5,-142.5 560.5,-142.5 560.5,-123.5 481.5,-123.5"/>
<text text-anchor="middle" x="521" y="-130.5" font-family="Helvetica,sans-Serif" font-size="10.00">itkIntTypes.h</text>
</a>
</g>
</g>
<!-- Node18&#45;&gt;Node19 -->
<g id="edge23" class="edge">
<title>Node18&#45;&gt;Node19</title>
<path fill="none" stroke="midnightblue" d="M487.61,-179.08C493.26,-171.46 501.54,-160.26 508.45,-150.94"/>
<polygon fill="midnightblue" stroke="midnightblue" points="511.38,-152.87 514.52,-142.75 505.75,-148.7 511.38,-152.87"/>
</g>
<!-- Node22 -->
<g id="node22" class="node">
<title>Node22</title>
<g id="a_node22"><a xlink:title=" ">
<polygon fill="white" stroke="#bfbfbf" points="617,-123.5 617,-142.5 661,-142.5 661,-123.5 617,-123.5"/>
<text text-anchor="middle" x="639" y="-130.5" font-family="Helvetica,sans-Serif" font-size="10.00">cfenv</text>
</a>
</g>
</g>
<!-- Node18&#45;&gt;Node22 -->
<g id="edge28" class="edge">
<title>Node18&#45;&gt;Node22</title>
<path fill="none" stroke="midnightblue" d="M506.04,-179.44C533.48,-170.07 577.56,-155 607.37,-144.81"/>
<polygon fill="midnightblue" stroke="midnightblue" points="608.56,-148.1 616.89,-141.56 606.29,-141.48 608.56,-148.1"/>
</g>
<!-- Node19&#45;&gt;Node4 -->
<g id="edge24" class="edge">
<title>Node19&#45;&gt;Node4</title>
<path fill="none" stroke="midnightblue" d="M535.57,-123.3C554.73,-110.76 584.29,-86.92 569,-67 551.49,-44.19 474.45,-29.46 424.3,-22.1"/>
<polygon fill="midnightblue" stroke="midnightblue" points="424.73,-18.63 414.34,-20.69 423.75,-25.56 424.73,-18.63"/>
</g>
<!-- Node20 -->
<g id="node20" class="node">
<title>Node20</title>
<g id="a_node20"><a xlink:title=" ">
<polygon fill="white" stroke="#bfbfbf" points="510,-67.5 510,-86.5 560,-86.5 560,-67.5 510,-67.5"/>
<text text-anchor="middle" x="535" y="-74.5" font-family="Helvetica,sans-Serif" font-size="10.00">cstdint</text>
</a>
</g>
</g>
<!-- Node19&#45;&gt;Node20 -->
<g id="edge25" class="edge">
<title>Node19&#45;&gt;Node20</title>
<path fill="none" stroke="midnightblue" d="M523.31,-123.08C525.17,-115.93 527.84,-105.64 530.15,-96.69"/>
<polygon fill="midnightblue" stroke="midnightblue" points="533.61,-97.31 532.73,-86.75 526.83,-95.55 533.61,-97.31"/>
</g>
<!-- Node21 -->
<g id="node21" class="node">
<title>Node21</title>
<g id="a_node21"><a xlink:title=" ">
<polygon fill="white" stroke="#bfbfbf" points="442,-67.5 442,-86.5 492,-86.5 492,-67.5 442,-67.5"/>
<text text-anchor="middle" x="467" y="-74.5" font-family="Helvetica,sans-Serif" font-size="10.00">climits</text>
</a>
</g>
</g>
<!-- Node19&#45;&gt;Node21 -->
<g id="edge26" class="edge">
<title>Node19&#45;&gt;Node21</title>
<path fill="none" stroke="midnightblue" d="M512.08,-123.08C504.22,-115.22 492.57,-103.57 483.08,-94.08"/>
<polygon fill="midnightblue" stroke="midnightblue" points="485.3,-91.35 475.75,-86.75 480.35,-96.3 485.3,-91.35"/>
</g>
<!-- Node23&#45;&gt;Node3 -->
<g id="edge32" class="edge">
<title>Node23&#45;&gt;Node3</title>
<path fill="none" stroke="midnightblue" d="M250.56,-180.05C253.75,-179.68 256.91,-179.33 260,-179 441.88,-159.49 488.16,-162.83 670,-143 671.94,-142.79 673.9,-142.57 675.89,-142.34"/>
<polygon fill="midnightblue" stroke="midnightblue" points="676.39,-145.81 685.91,-141.15 675.57,-138.85 676.39,-145.81"/>
</g>
<!-- Node24 -->
<g id="node24" class="node">
<title>Node24</title>
<g id="a_node24"><a xlink:href="itkPixelTraits_8h.html" target="_top" xlink:title=" ">
<polygon fill="white" stroke="black" points="0,-123.5 0,-142.5 88,-142.5 88,-123.5 0,-123.5"/>
<text text-anchor="middle" x="44" y="-130.5" font-family="Helvetica,sans-Serif" font-size="10.00">itkPixelTraits.h</text>
</a>
</g>
</g>
<!-- Node23&#45;&gt;Node24 -->
<g id="edge30" class="edge">
<title>Node23&#45;&gt;Node24</title>
<path fill="none" stroke="midnightblue" d="M166.02,-179.44C141.84,-170.44 103.58,-156.19 76.35,-146.05"/>
<polygon fill="midnightblue" stroke="midnightblue" points="77.46,-142.73 66.87,-142.52 75.02,-149.29 77.46,-142.73"/>
</g>
<!-- Node25 -->
<g id="node25" class="node">
<title>Node25</title>
<g id="a_node25"><a xlink:title=" ">
<polygon fill="white" stroke="#bfbfbf" points="119,-123.5 119,-142.5 179,-142.5 179,-123.5 119,-123.5"/>
<text text-anchor="middle" x="149" y="-130.5" font-family="Helvetica,sans-Serif" font-size="10.00">iostream</text>
</a>
</g>
</g>
<!-- Node23&#45;&gt;Node25 -->
<g id="edge33" class="edge">
<title>Node23&#45;&gt;Node25</title>
<path fill="none" stroke="midnightblue" d="M182.39,-179.08C176.74,-171.46 168.46,-160.26 161.55,-150.94"/>
<polygon fill="midnightblue" stroke="midnightblue" points="164.25,-148.7 155.48,-142.75 158.62,-152.87 164.25,-148.7"/>
</g>
<!-- Node24&#45;&gt;Node4 -->
<g id="edge31" class="edge">
<title>Node24&#45;&gt;Node4</title>
<path fill="none" stroke="midnightblue" d="M44.38,-123.28C45.51,-109.11 49.9,-81.26 67,-67 107.01,-33.62 259.06,-21.99 335.53,-18.2"/>
<polygon fill="midnightblue" stroke="midnightblue" points="335.97,-21.68 345.8,-17.71 335.64,-14.69 335.97,-21.68"/>
</g>
<!-- Node29&#45;&gt;Node5 -->
<g id="edge45" class="edge">
<title>Node29&#45;&gt;Node5</title>
<path fill="none" stroke="midnightblue" d="M406.58,-179.46C463.48,-171.09 542.1,-157.5 570,-143 592.53,-131.29 612.78,-109.83 625.2,-94.78"/>
<polygon fill="midnightblue" stroke="midnightblue" points="628.08,-96.78 631.57,-86.78 622.61,-92.42 628.08,-96.78"/>
</g>
<!-- Node29&#45;&gt;Node25 -->
<g id="edge46" class="edge">
<title>Node29&#45;&gt;Node25</title>
<path fill="none" stroke="midnightblue" d="M312.26,-179.44C278.96,-170.17 225.7,-155.35 189.12,-145.17"/>
<polygon fill="midnightblue" stroke="midnightblue" points="189.85,-141.74 179.28,-142.43 187.97,-148.48 189.85,-141.74"/>
</g>
<!-- Node30 -->
<g id="node30" class="node">
<title>Node30</title>
<g id="a_node30"><a xlink:href="itkQuadEdge_8h.html" target="_top" xlink:title=" ">
<polygon fill="white" stroke="black" points="197,-123.5 197,-142.5 285,-142.5 285,-123.5 197,-123.5"/>
<text text-anchor="middle" x="241" y="-130.5" font-family="Helvetica,sans-Serif" font-size="10.00">itkQuadEdge.h</text>
</a>
</g>
</g>
<!-- Node29&#45;&gt;Node30 -->
<g id="edge39" class="edge">
<title>Node29&#45;&gt;Node30</title>
<path fill="none" stroke="midnightblue" d="M326.61,-179.32C310.33,-170.7 285.13,-157.36 266.28,-147.39"/>
<polygon fill="midnightblue" stroke="midnightblue" points="267.82,-144.24 257.35,-142.65 264.55,-150.43 267.82,-144.24"/>
</g>
<!-- Node33 -->
<g id="node33" class="node">
<title>Node33</title>
<g id="a_node33"><a xlink:title=" ">
<polygon fill="white" stroke="#bfbfbf" points="303,-123.5 303,-142.5 463,-142.5 463,-123.5 303,-123.5"/>
<text text-anchor="middle" x="383" y="-130.5" font-family="Helvetica,sans-Serif" font-size="10.00">itkGeometricalQuadEdge.hxx</text>
</a>
</g>
</g>
<!-- Node29&#45;&gt;Node33 -->
<g id="edge44" class="edge">
<title>Node29&#45;&gt;Node33</title>
<path fill="none" stroke="midnightblue" d="M349.61,-179.08C355.26,-171.46 363.54,-160.26 370.45,-150.94"/>
<polygon fill="midnightblue" stroke="midnightblue" points="373.38,-152.87 376.52,-142.75 367.75,-148.7 373.38,-152.87"/>
</g>
<!-- Node30&#45;&gt;Node4 -->
<g id="edge43" class="edge">
<title>Node30&#45;&gt;Node4</title>
<path fill="none" stroke="midnightblue" d="M199.17,-123.41C152.55,-113.42 82.67,-97.02 75,-87 69.6,-79.94 69.25,-73.78 75,-67 107.91,-28.2 259.34,-19.17 335.71,-17.1"/>
<polygon fill="midnightblue" stroke="midnightblue" points="336.05,-20.59 345.97,-16.85 335.88,-13.59 336.05,-20.59"/>
</g>
<!-- Node31 -->
<g id="node31" class="node">
<title>Node31</title>
<g id="a_node31"><a xlink:href="itkQuadEdgeMeshBaseIterator_8h.html" target="_top" xlink:title=" ">
<polygon fill="white" stroke="black" points="84.5,-67.5 84.5,-86.5 257.5,-86.5 257.5,-67.5 84.5,-67.5"/>
<text text-anchor="middle" x="171" y="-74.5" font-family="Helvetica,sans-Serif" font-size="10.00">itkQuadEdgeMeshBaseIterator.h</text>
</a>
</g>
</g>
<!-- Node30&#45;&gt;Node31 -->
<g id="edge40" class="edge">
<title>Node30&#45;&gt;Node31</title>
<path fill="none" stroke="midnightblue" d="M229.75,-123.32C219.2,-115.18 203.2,-102.84 190.56,-93.09"/>
<polygon fill="midnightblue" stroke="midnightblue" points="192.51,-90.17 182.45,-86.83 188.23,-95.71 192.51,-90.17"/>
</g>
<!-- Node32 -->
<g id="node32" class="node">
<title>Node32</title>
<g id="a_node32"><a xlink:title=" ">
<polygon fill="white" stroke="#bfbfbf" points="275.5,-67.5 275.5,-86.5 424.5,-86.5 424.5,-67.5 275.5,-67.5"/>
<text text-anchor="middle" x="350" y="-74.5" font-family="Helvetica,sans-Serif" font-size="10.00">ITKQuadEdgeMeshExport.h</text>
</a>
</g>
</g>
<!-- Node30&#45;&gt;Node32 -->
<g id="edge42" class="edge">
<title>Node30&#45;&gt;Node32</title>
<path fill="none" stroke="midnightblue" d="M258.51,-123.32C276.07,-114.62 303.33,-101.12 323.53,-91.11"/>
<polygon fill="midnightblue" stroke="midnightblue" points="325.12,-94.23 332.53,-86.65 322.02,-87.96 325.12,-94.23"/>
</g>
<!-- Node31&#45;&gt;Node4 -->
<g id="edge41" class="edge">
<title>Node31&#45;&gt;Node4</title>
<path fill="none" stroke="midnightblue" d="M200.94,-67.48C237.57,-57.05 299.7,-39.36 340.28,-27.81"/>
<polygon fill="midnightblue" stroke="midnightblue" points="341.45,-31.11 350.11,-25.01 339.53,-24.38 341.45,-31.11"/>
</g>
</g>
</svg>
