<?xml version="1.0" encoding="UTF-8" standalone="no"?>
<!DOCTYPE svg PUBLIC "-//W3C//DTD SVG 1.1//EN"
 "http://www.w3.org/Graphics/SVG/1.1/DTD/svg11.dtd">
<!-- Generated by graphviz version 2.43.0 (0)
 -->
<!-- Title: itkQuadEdgeMeshLineCell.h Pages: 1 -->
<svg width="457pt" height="252pt"
 viewBox="0.00 0.00 456.50 252.00" xmlns="http://www.w3.org/2000/svg" xmlns:xlink="http://www.w3.org/1999/xlink">
<g id="graph0" class="graph" transform="scale(1 1) rotate(0) translate(4 248)">
<title>itkQuadEdgeMeshLineCell.h</title>
<polygon fill="white" stroke="transparent" points="-4,4 -4,-248 452.5,-248 452.5,4 -4,4"/>
<!-- Node1 -->
<g id="node1" class="node">
<title>Node1</title>
<g id="a_node1"><a xlink:title=" ">
<polygon fill="#bfbfbf" stroke="black" points="111,-224.5 111,-243.5 264,-243.5 264,-224.5 111,-224.5"/>
<text text-anchor="middle" x="187.5" y="-231.5" font-family="Helvetica,sans-Serif" font-size="10.00">itkQuadEdgeMeshLineCell.h</text>
</a>
</g>
</g>
<!-- Node2 -->
<g id="node2" class="node">
<title>Node2</title>
<g id="a_node2"><a xlink:href="itkAutoPointer_8h.html" target="_top" xlink:title=" ">
<polygon fill="white" stroke="black" points="0,-168.5 0,-187.5 95,-187.5 95,-168.5 0,-168.5"/>
<text text-anchor="middle" x="47.5" y="-175.5" font-family="Helvetica,sans-Serif" font-size="10.00">itkAutoPointer.h</text>
</a>
</g>
</g>
<!-- Node1&#45;&gt;Node2 -->
<g id="edge1" class="edge">
<title>Node1&#45;&gt;Node2</title>
<path fill="none" stroke="midnightblue" d="M165.32,-224.44C142.07,-215.48 105.35,-201.31 79.08,-191.18"/>
<polygon fill="midnightblue" stroke="midnightblue" points="80.17,-187.85 69.58,-187.52 77.65,-194.38 80.17,-187.85"/>
</g>
<!-- Node5 -->
<g id="node5" class="node">
<title>Node5</title>
<g id="a_node5"><a xlink:href="itkGeometricalQuadEdge_8h.html" target="_top" xlink:title=" ">
<polygon fill="white" stroke="black" points="113.5,-168.5 113.5,-187.5 261.5,-187.5 261.5,-168.5 113.5,-168.5"/>
<text text-anchor="middle" x="187.5" y="-175.5" font-family="Helvetica,sans-Serif" font-size="10.00">itkGeometricalQuadEdge.h</text>
</a>
</g>
</g>
<!-- Node1&#45;&gt;Node5 -->
<g id="edge4" class="edge">
<title>Node1&#45;&gt;Node5</title>
<path fill="none" stroke="midnightblue" d="M187.5,-224.08C187.5,-217.01 187.5,-206.86 187.5,-197.99"/>
<polygon fill="midnightblue" stroke="midnightblue" points="191,-197.75 187.5,-187.75 184,-197.75 191,-197.75"/>
</g>
<!-- Node11 -->
<g id="node11" class="node">
<title>Node11</title>
<g id="a_node11"><a xlink:title=" ">
<polygon fill="white" stroke="#bfbfbf" points="280,-168.5 280,-187.5 445,-187.5 445,-168.5 280,-168.5"/>
<text text-anchor="middle" x="362.5" y="-175.5" font-family="Helvetica,sans-Serif" font-size="10.00">itkQuadEdgeMeshLineCell.hxx</text>
</a>
</g>
</g>
<!-- Node1&#45;&gt;Node11 -->
<g id="edge13" class="edge">
<title>Node1&#45;&gt;Node11</title>
<path fill="none" stroke="midnightblue" d="M215.23,-224.44C244.93,-215.28 292.22,-200.69 325.17,-190.52"/>
<polygon fill="midnightblue" stroke="midnightblue" points="326.38,-193.81 334.9,-187.52 324.31,-187.12 326.38,-193.81"/>
</g>
<!-- Node3 -->
<g id="node3" class="node">
<title>Node3</title>
<g id="a_node3"><a xlink:href="itkMacro_8h.html" target="_top" xlink:title=" ">
<polygon fill="white" stroke="black" points="16.5,-0.5 16.5,-19.5 84.5,-19.5 84.5,-0.5 16.5,-0.5"/>
<text text-anchor="middle" x="50.5" y="-7.5" font-family="Helvetica,sans-Serif" font-size="10.00">itkMacro.h</text>
</a>
</g>
</g>
<!-- Node2&#45;&gt;Node3 -->
<g id="edge2" class="edge">
<title>Node2&#45;&gt;Node3</title>
<path fill="none" stroke="midnightblue" d="M43.64,-168.25C39.94,-159.33 34.61,-145.01 32.5,-132 26.6,-95.62 36.97,-52.97 44.26,-29.26"/>
<polygon fill="midnightblue" stroke="midnightblue" points="47.66,-30.11 47.42,-19.52 41,-27.95 47.66,-30.11"/>
</g>
<!-- Node4 -->
<g id="node4" class="node">
<title>Node4</title>
<g id="a_node4"><a xlink:title=" ">
<polygon fill="white" stroke="#bfbfbf" points="41.5,-112.5 41.5,-131.5 101.5,-131.5 101.5,-112.5 41.5,-112.5"/>
<text text-anchor="middle" x="71.5" y="-119.5" font-family="Helvetica,sans-Serif" font-size="10.00">iostream</text>
</a>
</g>
</g>
<!-- Node2&#45;&gt;Node4 -->
<g id="edge3" class="edge">
<title>Node2&#45;&gt;Node4</title>
<path fill="none" stroke="midnightblue" d="M51.46,-168.08C54.71,-160.77 59.42,-150.18 63.45,-141.1"/>
<polygon fill="midnightblue" stroke="midnightblue" points="66.75,-142.31 67.61,-131.75 60.35,-139.47 66.75,-142.31"/>
</g>
<!-- Node5&#45;&gt;Node4 -->
<g id="edge12" class="edge">
<title>Node5&#45;&gt;Node4</title>
<path fill="none" stroke="midnightblue" d="M169.12,-168.44C150.28,-159.68 120.77,-145.94 99.12,-135.86"/>
<polygon fill="midnightblue" stroke="midnightblue" points="100.34,-132.56 89.79,-131.52 97.38,-138.91 100.34,-132.56"/>
</g>
<!-- Node6 -->
<g id="node6" class="node">
<title>Node6</title>
<g id="a_node6"><a xlink:href="itkQuadEdge_8h.html" target="_top" xlink:title=" ">
<polygon fill="white" stroke="black" points="120.5,-112.5 120.5,-131.5 208.5,-131.5 208.5,-112.5 120.5,-112.5"/>
<text text-anchor="middle" x="164.5" y="-119.5" font-family="Helvetica,sans-Serif" font-size="10.00">itkQuadEdge.h</text>
</a>
</g>
</g>
<!-- Node5&#45;&gt;Node6 -->
<g id="edge5" class="edge">
<title>Node5&#45;&gt;Node6</title>
<path fill="none" stroke="midnightblue" d="M183.7,-168.08C180.59,-160.77 176.08,-150.18 172.21,-141.1"/>
<polygon fill="midnightblue" stroke="midnightblue" points="175.37,-139.58 168.23,-131.75 168.93,-142.32 175.37,-139.58"/>
</g>
<!-- Node9 -->
<g id="node9" class="node">
<title>Node9</title>
<g id="a_node9"><a xlink:title=" ">
<polygon fill="white" stroke="#bfbfbf" points="226.5,-112.5 226.5,-131.5 386.5,-131.5 386.5,-112.5 226.5,-112.5"/>
<text text-anchor="middle" x="306.5" y="-119.5" font-family="Helvetica,sans-Serif" font-size="10.00">itkGeometricalQuadEdge.hxx</text>
</a>
</g>
</g>
<!-- Node5&#45;&gt;Node9 -->
<g id="edge10" class="edge">
<title>Node5&#45;&gt;Node9</title>
<path fill="none" stroke="midnightblue" d="M206.36,-168.44C225.77,-159.64 256.23,-145.81 278.46,-135.72"/>
<polygon fill="midnightblue" stroke="midnightblue" points="280.07,-138.84 287.73,-131.52 277.18,-132.46 280.07,-138.84"/>
</g>
<!-- Node10 -->
<g id="node10" class="node">
<title>Node10</title>
<g id="a_node10"><a xlink:title=" ">
<polygon fill="white" stroke="#bfbfbf" points="404.5,-112.5 404.5,-131.5 448.5,-131.5 448.5,-112.5 404.5,-112.5"/>
<text text-anchor="middle" x="426.5" y="-119.5" font-family="Helvetica,sans-Serif" font-size="10.00">limits</text>
</a>
</g>
</g>
<!-- Node5&#45;&gt;Node10 -->
<g id="edge11" class="edge">
<title>Node5&#45;&gt;Node10</title>
<path fill="none" stroke="midnightblue" d="M231.13,-168.48C271.21,-160.45 332.47,-147.66 394.28,-132.18"/>
<polygon fill="midnightblue" stroke="midnightblue" points="395.36,-135.52 404.2,-129.68 393.65,-128.73 395.36,-135.52"/>
</g>
<!-- Node6&#45;&gt;Node3 -->
<g id="edge9" class="edge">
<title>Node6&#45;&gt;Node3</title>
<path fill="none" stroke="midnightblue" d="M130.23,-112.45C109.91,-105.72 85.14,-94.33 69.5,-76 58.42,-63.02 53.8,-43.85 51.87,-29.69"/>
<polygon fill="midnightblue" stroke="midnightblue" points="55.34,-29.22 50.83,-19.63 48.38,-29.93 55.34,-29.22"/>
</g>
<!-- Node7 -->
<g id="node7" class="node">
<title>Node7</title>
<g id="a_node7"><a xlink:href="itkQuadEdgeMeshBaseIterator_8h.html" target="_top" xlink:title=" ">
<polygon fill="white" stroke="black" points="79,-56.5 79,-75.5 252,-75.5 252,-56.5 79,-56.5"/>
<text text-anchor="middle" x="165.5" y="-63.5" font-family="Helvetica,sans-Serif" font-size="10.00">itkQuadEdgeMeshBaseIterator.h</text>
</a>
</g>
</g>
<!-- Node6&#45;&gt;Node7 -->
<g id="edge6" class="edge">
<title>Node6&#45;&gt;Node7</title>
<path fill="none" stroke="midnightblue" d="M164.67,-112.08C164.8,-105.01 164.98,-94.86 165.15,-85.99"/>
<polygon fill="midnightblue" stroke="midnightblue" points="168.65,-85.81 165.34,-75.75 161.65,-85.68 168.65,-85.81"/>
</g>
<!-- Node8 -->
<g id="node8" class="node">
<title>Node8</title>
<g id="a_node8"><a xlink:title=" ">
<polygon fill="white" stroke="#bfbfbf" points="270,-56.5 270,-75.5 419,-75.5 419,-56.5 270,-56.5"/>
<text text-anchor="middle" x="344.5" y="-63.5" font-family="Helvetica,sans-Serif" font-size="10.00">ITKQuadEdgeMeshExport.h</text>
</a>
</g>
</g>
<!-- Node6&#45;&gt;Node8 -->
<g id="edge8" class="edge">
<title>Node6&#45;&gt;Node8</title>
<path fill="none" stroke="midnightblue" d="M193.02,-112.44C223.57,-103.28 272.21,-88.69 306.1,-78.52"/>
<polygon fill="midnightblue" stroke="midnightblue" points="307.54,-81.74 316.11,-75.52 305.53,-75.04 307.54,-81.74"/>
</g>
<!-- Node7&#45;&gt;Node3 -->
<g id="edge7" class="edge">
<title>Node7&#45;&gt;Node3</title>
<path fill="none" stroke="midnightblue" d="M147.28,-56.44C128.6,-47.68 99.34,-33.94 77.88,-23.86"/>
<polygon fill="midnightblue" stroke="midnightblue" points="79.18,-20.6 68.64,-19.52 76.2,-26.93 79.18,-20.6"/>
</g>
</g>
</svg>
