<?xml version="1.0" encoding="UTF-8" standalone="no"?>
<!DOCTYPE svg PUBLIC "-//W3C//DTD SVG 1.1//EN"
 "http://www.w3.org/Graphics/SVG/1.1/DTD/svg11.dtd">
<!-- Generated by graphviz version 2.43.0 (0)
 -->
<!-- Title: itkQuadEdgeMeshDecimationQuadricElementHelper.h Pages: 1 -->
<svg width="912pt" height="397pt"
 viewBox="0.00 0.00 911.50 397.00" xmlns="http://www.w3.org/2000/svg" xmlns:xlink="http://www.w3.org/1999/xlink">
<g id="graph0" class="graph" transform="scale(1 1) rotate(0) translate(4 393)">
<title>itkQuadEdgeMeshDecimationQuadricElementHelper.h</title>
<polygon fill="white" stroke="transparent" points="-4,4 -4,-393 907.5,-393 907.5,4 -4,4"/>
<!-- Node1 -->
<g id="node1" class="node">
<title>Node1</title>
<g id="a_node1"><a xlink:title=" ">
<polygon fill="#bfbfbf" stroke="black" points="436,-358.5 436,-388.5 597,-388.5 597,-358.5 436,-358.5"/>
<text text-anchor="start" x="444" y="-376.5" font-family="Helvetica,sans-Serif" font-size="10.00">itkQuadEdgeMeshDecimation</text>
<text text-anchor="middle" x="516.5" y="-365.5" font-family="Helvetica,sans-Serif" font-size="10.00">QuadricElementHelper.h</text>
</a>
</g>
</g>
<!-- Node2 -->
<g id="node2" class="node">
<title>Node2</title>
<g id="a_node2"><a xlink:href="itkPoint_8h.html" target="_top" xlink:title=" ">
<polygon fill="white" stroke="black" points="217,-297 217,-316 280,-316 280,-297 217,-297"/>
<text text-anchor="middle" x="248.5" y="-304" font-family="Helvetica,sans-Serif" font-size="10.00">itkPoint.h</text>
</a>
</g>
</g>
<!-- Node1&#45;&gt;Node2 -->
<g id="edge1" class="edge">
<title>Node1&#45;&gt;Node2</title>
<path fill="none" stroke="midnightblue" d="M458.68,-358.48C407.89,-346.16 335.25,-328.54 290.03,-317.57"/>
<polygon fill="midnightblue" stroke="midnightblue" points="290.8,-314.16 280.26,-315.2 289.15,-320.96 290.8,-314.16"/>
</g>
<!-- Node29 -->
<g id="node29" class="node">
<title>Node29</title>
<g id="a_node29"><a xlink:title=" ">
<polygon fill="white" stroke="#bfbfbf" points="455,-297 455,-316 578,-316 578,-297 455,-297"/>
<text text-anchor="middle" x="516.5" y="-304" font-family="Helvetica,sans-Serif" font-size="10.00">vnl/vnl_vector_fixed.h</text>
</a>
</g>
</g>
<!-- Node1&#45;&gt;Node29 -->
<g id="edge37" class="edge">
<title>Node1&#45;&gt;Node29</title>
<path fill="none" stroke="midnightblue" d="M516.5,-358.4C516.5,-349.06 516.5,-336.71 516.5,-326.52"/>
<polygon fill="midnightblue" stroke="midnightblue" points="520,-326.19 516.5,-316.19 513,-326.19 520,-326.19"/>
</g>
<!-- Node30 -->
<g id="node30" class="node">
<title>Node30</title>
<g id="a_node30"><a xlink:title=" ">
<polygon fill="white" stroke="#bfbfbf" points="596.5,-297 596.5,-316 692.5,-316 692.5,-297 596.5,-297"/>
<text text-anchor="middle" x="644.5" y="-304" font-family="Helvetica,sans-Serif" font-size="10.00">vnl/vnl_matrix.h</text>
</a>
</g>
</g>
<!-- Node1&#45;&gt;Node30 -->
<g id="edge38" class="edge">
<title>Node1&#45;&gt;Node30</title>
<path fill="none" stroke="midnightblue" d="M544.27,-358.4C566.44,-347.14 597.24,-331.5 618.83,-320.54"/>
<polygon fill="midnightblue" stroke="midnightblue" points="620.42,-323.66 627.75,-316.01 617.25,-317.41 620.42,-323.66"/>
</g>
<!-- Node31 -->
<g id="node31" class="node">
<title>Node31</title>
<g id="a_node31"><a xlink:title=" ">
<polygon fill="white" stroke="#bfbfbf" points="711,-291.5 711,-321.5 822,-321.5 822,-291.5 711,-291.5"/>
<text text-anchor="start" x="719" y="-309.5" font-family="Helvetica,sans-Serif" font-size="10.00">vnl/algo/vnl_matrix</text>
<text text-anchor="middle" x="766.5" y="-298.5" font-family="Helvetica,sans-Serif" font-size="10.00">_inverse.h</text>
</a>
</g>
</g>
<!-- Node1&#45;&gt;Node31 -->
<g id="edge39" class="edge">
<title>Node1&#45;&gt;Node31</title>
<path fill="none" stroke="midnightblue" d="M570.44,-358.48C609.16,-348.41 661.5,-334.8 702.37,-324.17"/>
<polygon fill="midnightblue" stroke="midnightblue" points="703.43,-327.51 712.23,-321.61 701.67,-320.74 703.43,-327.51"/>
</g>
<!-- Node32 -->
<g id="node32" class="node">
<title>Node32</title>
<g id="a_node32"><a xlink:href="itkTriangleHelper_8h.html" target="_top" xlink:title=" ">
<polygon fill="white" stroke="black" points="328.5,-297 328.5,-316 436.5,-316 436.5,-297 328.5,-297"/>
<text text-anchor="middle" x="382.5" y="-304" font-family="Helvetica,sans-Serif" font-size="10.00">itkTriangleHelper.h</text>
</a>
</g>
</g>
<!-- Node1&#45;&gt;Node32 -->
<g id="edge40" class="edge">
<title>Node1&#45;&gt;Node32</title>
<path fill="none" stroke="midnightblue" d="M487.42,-358.4C464.12,-347.09 431.69,-331.36 409.07,-320.39"/>
<polygon fill="midnightblue" stroke="midnightblue" points="410.56,-317.22 400.04,-316.01 407.51,-323.52 410.56,-317.22"/>
</g>
<!-- Node3 -->
<g id="node3" class="node">
<title>Node3</title>
<g id="a_node3"><a xlink:href="itkNumericTraits_8h.html" target="_top" xlink:title=" ">
<polygon fill="white" stroke="black" points="455.5,-123.5 455.5,-142.5 561.5,-142.5 561.5,-123.5 455.5,-123.5"/>
<text text-anchor="middle" x="508.5" y="-130.5" font-family="Helvetica,sans-Serif" font-size="10.00">itkNumericTraits.h</text>
</a>
</g>
</g>
<!-- Node2&#45;&gt;Node3 -->
<g id="edge2" class="edge">
<title>Node2&#45;&gt;Node3</title>
<path fill="none" stroke="midnightblue" d="M266.63,-296.94C283.25,-288.32 307.63,-273.65 323.5,-255 347.6,-226.67 330.43,-203.39 358.5,-179 382.55,-158.1 416.01,-146.91 445.23,-140.91"/>
<polygon fill="midnightblue" stroke="midnightblue" points="446.19,-144.29 455.37,-139 444.89,-137.41 446.19,-144.29"/>
</g>
<!-- Node13 -->
<g id="node13" class="node">
<title>Node13</title>
<g id="a_node13"><a xlink:href="itkVector_8h.html" target="_top" xlink:title=" ">
<polygon fill="white" stroke="black" points="93.5,-235.5 93.5,-254.5 161.5,-254.5 161.5,-235.5 93.5,-235.5"/>
<text text-anchor="middle" x="127.5" y="-242.5" font-family="Helvetica,sans-Serif" font-size="10.00">itkVector.h</text>
</a>
</g>
</g>
<!-- Node2&#45;&gt;Node13 -->
<g id="edge15" class="edge">
<title>Node2&#45;&gt;Node13</title>
<path fill="none" stroke="midnightblue" d="M231.16,-296.98C210.95,-287.03 177.31,-270.49 153.86,-258.96"/>
<polygon fill="midnightblue" stroke="midnightblue" points="155.32,-255.78 144.8,-254.51 152.23,-262.06 155.32,-255.78"/>
</g>
<!-- Node14 -->
<g id="node14" class="node">
<title>Node14</title>
<g id="a_node14"><a xlink:title=" ">
<polygon fill="white" stroke="#bfbfbf" points="160,-179.5 160,-198.5 273,-198.5 273,-179.5 160,-179.5"/>
<text text-anchor="middle" x="216.5" y="-186.5" font-family="Helvetica,sans-Serif" font-size="10.00">vnl/vnl_vector_ref.h</text>
</a>
</g>
</g>
<!-- Node2&#45;&gt;Node14 -->
<g id="edge19" class="edge">
<title>Node2&#45;&gt;Node14</title>
<path fill="none" stroke="midnightblue" d="M238.69,-297C228.89,-287.79 214.46,-272.11 208.5,-255 203.24,-239.9 206.18,-221.78 209.89,-208.51"/>
<polygon fill="midnightblue" stroke="midnightblue" points="213.32,-209.27 213.02,-198.67 206.65,-207.14 213.32,-209.27"/>
</g>
<!-- Node16 -->
<g id="node16" class="node">
<title>Node16</title>
<g id="a_node16"><a xlink:href="itkMath_8h.html" target="_top" xlink:title=" ">
<polygon fill="white" stroke="black" points="418,-235.5 418,-254.5 481,-254.5 481,-235.5 418,-235.5"/>
<text text-anchor="middle" x="449.5" y="-242.5" font-family="Helvetica,sans-Serif" font-size="10.00">itkMath.h</text>
</a>
</g>
</g>
<!-- Node2&#45;&gt;Node16 -->
<g id="edge20" class="edge">
<title>Node2&#45;&gt;Node16</title>
<path fill="none" stroke="midnightblue" d="M277.3,-296.98C312.37,-286.59 371.76,-269.01 410.81,-257.45"/>
<polygon fill="midnightblue" stroke="midnightblue" points="412.16,-260.7 420.76,-254.51 410.17,-253.99 412.16,-260.7"/>
</g>
<!-- Node28 -->
<g id="node28" class="node">
<title>Node28</title>
<g id="a_node28"><a xlink:title=" ">
<polygon fill="white" stroke="#bfbfbf" points="0,-235.5 0,-254.5 75,-254.5 75,-235.5 0,-235.5"/>
<text text-anchor="middle" x="37.5" y="-242.5" font-family="Helvetica,sans-Serif" font-size="10.00">itkPoint.hxx</text>
</a>
</g>
</g>
<!-- Node2&#45;&gt;Node28 -->
<g id="edge36" class="edge">
<title>Node2&#45;&gt;Node28</title>
<path fill="none" stroke="midnightblue" d="M218.27,-296.98C181.21,-286.53 118.31,-268.79 77.34,-257.23"/>
<polygon fill="midnightblue" stroke="midnightblue" points="78.25,-253.85 67.68,-254.51 76.35,-260.59 78.25,-253.85"/>
</g>
<!-- Node4 -->
<g id="node4" class="node">
<title>Node4</title>
<g id="a_node4"><a xlink:href="itkMacro_8h.html" target="_top" xlink:title=" ">
<polygon fill="white" stroke="black" points="603.5,-6 603.5,-25 671.5,-25 671.5,-6 603.5,-6"/>
<text text-anchor="middle" x="637.5" y="-13" font-family="Helvetica,sans-Serif" font-size="10.00">itkMacro.h</text>
</a>
</g>
</g>
<!-- Node3&#45;&gt;Node4 -->
<g id="edge3" class="edge">
<title>Node3&#45;&gt;Node4</title>
<path fill="none" stroke="midnightblue" d="M518.2,-123.32C539.86,-103.92 592.45,-56.83 620.01,-32.16"/>
<polygon fill="midnightblue" stroke="midnightblue" points="622.58,-34.56 627.69,-25.28 617.91,-29.34 622.58,-34.56"/>
</g>
<!-- Node5 -->
<g id="node5" class="node">
<title>Node5</title>
<g id="a_node5"><a xlink:title=" ">
<polygon fill="white" stroke="#bfbfbf" points="596.5,-67.5 596.5,-86.5 640.5,-86.5 640.5,-67.5 596.5,-67.5"/>
<text text-anchor="middle" x="618.5" y="-74.5" font-family="Helvetica,sans-Serif" font-size="10.00">limits</text>
</a>
</g>
</g>
<!-- Node3&#45;&gt;Node5 -->
<g id="edge4" class="edge">
<title>Node3&#45;&gt;Node5</title>
<path fill="none" stroke="midnightblue" d="M526.17,-123.32C543.89,-114.62 571.4,-101.12 591.79,-91.11"/>
<polygon fill="midnightblue" stroke="midnightblue" points="593.44,-94.2 600.87,-86.65 590.35,-87.92 593.44,-94.2"/>
</g>
<!-- Node6 -->
<g id="node6" class="node">
<title>Node6</title>
<g id="a_node6"><a xlink:title=" ">
<polygon fill="white" stroke="#bfbfbf" points="481,-67.5 481,-86.5 540,-86.5 540,-67.5 481,-67.5"/>
<text text-anchor="middle" x="510.5" y="-74.5" font-family="Helvetica,sans-Serif" font-size="10.00">complex</text>
</a>
</g>
</g>
<!-- Node3&#45;&gt;Node6 -->
<g id="edge5" class="edge">
<title>Node3&#45;&gt;Node6</title>
<path fill="none" stroke="midnightblue" d="M508.83,-123.08C509.09,-116.01 509.47,-105.86 509.8,-96.99"/>
<polygon fill="midnightblue" stroke="midnightblue" points="513.3,-96.87 510.18,-86.75 506.31,-96.61 513.3,-96.87"/>
</g>
<!-- Node7 -->
<g id="node7" class="node">
<title>Node7</title>
<g id="a_node7"><a xlink:href="itkFixedArray_8h.html" target="_top" xlink:title=" ">
<polygon fill="white" stroke="black" points="315,-67.5 315,-86.5 404,-86.5 404,-67.5 315,-67.5"/>
<text text-anchor="middle" x="359.5" y="-74.5" font-family="Helvetica,sans-Serif" font-size="10.00">itkFixedArray.h</text>
</a>
</g>
</g>
<!-- Node3&#45;&gt;Node7 -->
<g id="edge6" class="edge">
<title>Node3&#45;&gt;Node7</title>
<path fill="none" stroke="midnightblue" d="M484.89,-123.44C460.04,-114.44 420.73,-100.19 392.75,-90.05"/>
<polygon fill="midnightblue" stroke="midnightblue" points="393.59,-86.63 383,-86.52 391.21,-93.21 393.59,-86.63"/>
</g>
<!-- Node7&#45;&gt;Node4 -->
<g id="edge7" class="edge">
<title>Node7&#45;&gt;Node4</title>
<path fill="none" stroke="midnightblue" d="M399.33,-67.48C450.81,-56.46 540.16,-37.33 593.57,-25.9"/>
<polygon fill="midnightblue" stroke="midnightblue" points="594.38,-29.31 603.43,-23.79 592.92,-22.46 594.38,-29.31"/>
</g>
<!-- Node8 -->
<g id="node8" class="node">
<title>Node8</title>
<g id="a_node8"><a xlink:href="itkMakeFilled_8h.html" target="_top" xlink:title=" ">
<polygon fill="white" stroke="black" points="147,-6 147,-25 238,-25 238,-6 147,-6"/>
<text text-anchor="middle" x="192.5" y="-13" font-family="Helvetica,sans-Serif" font-size="10.00">itkMakeFilled.h</text>
</a>
</g>
</g>
<!-- Node7&#45;&gt;Node8 -->
<g id="edge8" class="edge">
<title>Node7&#45;&gt;Node8</title>
<path fill="none" stroke="midnightblue" d="M335.57,-67.48C306.8,-57.22 258.34,-39.96 225.9,-28.4"/>
<polygon fill="midnightblue" stroke="midnightblue" points="226.98,-25.07 216.38,-25.01 224.63,-31.66 226.98,-25.07"/>
</g>
<!-- Node9 -->
<g id="node9" class="node">
<title>Node9</title>
<g id="a_node9"><a xlink:title=" ">
<polygon fill="white" stroke="#bfbfbf" points="256.5,-6 256.5,-25 320.5,-25 320.5,-6 256.5,-6"/>
<text text-anchor="middle" x="288.5" y="-13" font-family="Helvetica,sans-Serif" font-size="10.00">algorithm</text>
</a>
</g>
</g>
<!-- Node7&#45;&gt;Node9 -->
<g id="edge9" class="edge">
<title>Node7&#45;&gt;Node9</title>
<path fill="none" stroke="midnightblue" d="M349.33,-67.48C338.15,-58.11 319.98,-42.88 306.41,-31.51"/>
<polygon fill="midnightblue" stroke="midnightblue" points="308.57,-28.75 298.65,-25.01 304.07,-34.11 308.57,-28.75"/>
</g>
<!-- Node10 -->
<g id="node10" class="node">
<title>Node10</title>
<g id="a_node10"><a xlink:title=" ">
<polygon fill="white" stroke="#bfbfbf" points="338.5,-6 338.5,-25 380.5,-25 380.5,-6 338.5,-6"/>
<text text-anchor="middle" x="359.5" y="-13" font-family="Helvetica,sans-Serif" font-size="10.00">array</text>
</a>
</g>
</g>
<!-- Node7&#45;&gt;Node10 -->
<g id="edge10" class="edge">
<title>Node7&#45;&gt;Node10</title>
<path fill="none" stroke="midnightblue" d="M359.5,-67.48C359.5,-59.08 359.5,-45.98 359.5,-35.16"/>
<polygon fill="midnightblue" stroke="midnightblue" points="363,-35.01 359.5,-25.01 356,-35.01 363,-35.01"/>
</g>
<!-- Node11 -->
<g id="node11" class="node">
<title>Node11</title>
<g id="a_node11"><a xlink:title=" ">
<polygon fill="white" stroke="#bfbfbf" points="28,-6 28,-25 129,-25 129,-6 28,-6"/>
<text text-anchor="middle" x="78.5" y="-13" font-family="Helvetica,sans-Serif" font-size="10.00">itkFixedArray.hxx</text>
</a>
</g>
</g>
<!-- Node7&#45;&gt;Node11 -->
<g id="edge11" class="edge">
<title>Node7&#45;&gt;Node11</title>
<path fill="none" stroke="midnightblue" d="M314.74,-67.49C269.82,-58.81 198.71,-44.72 137.5,-31 132.48,-29.88 127.24,-28.65 122.03,-27.41"/>
<polygon fill="midnightblue" stroke="midnightblue" points="122.68,-23.97 112.14,-25.02 121.04,-30.77 122.68,-23.97"/>
</g>
<!-- Node12 -->
<g id="node12" class="node">
<title>Node12</title>
<g id="a_node12"><a xlink:href="itkNumericTraitsFixedArrayPixel_8h.html" target="_top" xlink:title=" ">
<polygon fill="white" stroke="black" points="398,-0.5 398,-30.5 547,-30.5 547,-0.5 398,-0.5"/>
<text text-anchor="start" x="406" y="-18.5" font-family="Helvetica,sans-Serif" font-size="10.00">itkNumericTraitsFixedArray</text>
<text text-anchor="middle" x="472.5" y="-7.5" font-family="Helvetica,sans-Serif" font-size="10.00">Pixel.h</text>
</a>
</g>
</g>
<!-- Node7&#45;&gt;Node12 -->
<g id="edge12" class="edge">
<title>Node7&#45;&gt;Node12</title>
<path fill="none" stroke="midnightblue" d="M370.79,-67.48C384.97,-59.04 409.54,-45.86 431.05,-35.01"/>
<polygon fill="midnightblue" stroke="midnightblue" points="432.65,-38.12 440.04,-30.52 429.53,-31.86 432.65,-38.12"/>
</g>
<!-- Node12&#45;&gt;Node3 -->
<g id="edge13" class="edge">
<title>Node12&#45;&gt;Node3</title>
<path fill="none" stroke="midnightblue" d="M469.81,-30.74C467.66,-45.31 465.98,-68.41 472.5,-87 476.29,-97.79 483.87,-107.92 491.1,-115.82"/>
<polygon fill="midnightblue" stroke="midnightblue" points="488.83,-118.51 498.34,-123.19 493.83,-113.6 488.83,-118.51"/>
</g>
<!-- Node12&#45;&gt;Node7 -->
<g id="edge14" class="edge">
<title>Node12&#45;&gt;Node7</title>
<path fill="none" stroke="midnightblue" d="M451.7,-30.52C434.26,-40.38 409.35,-53.47 389.74,-63.07"/>
<polygon fill="midnightblue" stroke="midnightblue" points="388.08,-59.98 380.59,-67.48 391.12,-66.29 388.08,-59.98"/>
</g>
<!-- Node13&#45;&gt;Node7 -->
<g id="edge16" class="edge">
<title>Node13&#45;&gt;Node7</title>
<path fill="none" stroke="midnightblue" d="M102.96,-235.35C74.95,-224.1 35.12,-203.01 52.5,-179 110.27,-99.18 233.25,-81.34 304.79,-78.01"/>
<polygon fill="midnightblue" stroke="midnightblue" points="305.1,-81.5 314.95,-77.62 304.83,-74.51 305.1,-81.5"/>
</g>
<!-- Node13&#45;&gt;Node14 -->
<g id="edge17" class="edge">
<title>Node13&#45;&gt;Node14</title>
<path fill="none" stroke="midnightblue" d="M141.8,-235.32C155.68,-226.9 176.99,-213.97 193.3,-204.07"/>
<polygon fill="midnightblue" stroke="midnightblue" points="195.5,-206.83 202.24,-198.65 191.87,-200.85 195.5,-206.83"/>
</g>
<!-- Node15 -->
<g id="node15" class="node">
<title>Node15</title>
<g id="a_node15"><a xlink:title=" ">
<polygon fill="white" stroke="#bfbfbf" points="61.5,-179.5 61.5,-198.5 141.5,-198.5 141.5,-179.5 61.5,-179.5"/>
<text text-anchor="middle" x="101.5" y="-186.5" font-family="Helvetica,sans-Serif" font-size="10.00">itkVector.hxx</text>
</a>
</g>
</g>
<!-- Node13&#45;&gt;Node15 -->
<g id="edge18" class="edge">
<title>Node13&#45;&gt;Node15</title>
<path fill="none" stroke="midnightblue" d="M123.21,-235.08C119.65,-227.69 114.48,-216.95 110.08,-207.81"/>
<polygon fill="midnightblue" stroke="midnightblue" points="113.21,-206.24 105.71,-198.75 106.9,-209.28 113.21,-206.24"/>
</g>
<!-- Node17 -->
<g id="node17" class="node">
<title>Node17</title>
<g id="a_node17"><a xlink:title=" ">
<polygon fill="white" stroke="#bfbfbf" points="468,-179.5 468,-198.5 515,-198.5 515,-179.5 468,-179.5"/>
<text text-anchor="middle" x="491.5" y="-186.5" font-family="Helvetica,sans-Serif" font-size="10.00">cmath</text>
</a>
</g>
</g>
<!-- Node16&#45;&gt;Node17 -->
<g id="edge21" class="edge">
<title>Node16&#45;&gt;Node17</title>
<path fill="none" stroke="midnightblue" d="M456.44,-235.08C462.43,-227.38 471.25,-216.03 478.55,-206.65"/>
<polygon fill="midnightblue" stroke="midnightblue" points="481.32,-208.79 484.69,-198.75 475.79,-204.5 481.32,-208.79"/>
</g>
<!-- Node18 -->
<g id="node18" class="node">
<title>Node18</title>
<g id="a_node18"><a xlink:href="itkMathDetail_8h.html" target="_top" xlink:title=" ">
<polygon fill="white" stroke="black" points="781.5,-179.5 781.5,-198.5 873.5,-198.5 873.5,-179.5 781.5,-179.5"/>
<text text-anchor="middle" x="827.5" y="-186.5" font-family="Helvetica,sans-Serif" font-size="10.00">itkMathDetail.h</text>
</a>
</g>
</g>
<!-- Node16&#45;&gt;Node18 -->
<g id="edge22" class="edge">
<title>Node16&#45;&gt;Node18</title>
<path fill="none" stroke="midnightblue" d="M481.23,-236.74C484.35,-236.12 487.48,-235.52 490.5,-235 611.84,-213.98 645.76,-217.03 771.3,-199.12"/>
<polygon fill="midnightblue" stroke="midnightblue" points="771.91,-202.57 781.3,-197.68 770.91,-195.64 771.91,-202.57"/>
</g>
<!-- Node23 -->
<g id="node23" class="node">
<title>Node23</title>
<g id="a_node23"><a xlink:href="itkConceptChecking_8h.html" target="_top" xlink:title=" ">
<polygon fill="white" stroke="black" points="640,-179.5 640,-198.5 763,-198.5 763,-179.5 640,-179.5"/>
<text text-anchor="middle" x="701.5" y="-186.5" font-family="Helvetica,sans-Serif" font-size="10.00">itkConceptChecking.h</text>
</a>
</g>
</g>
<!-- Node16&#45;&gt;Node23 -->
<g id="edge29" class="edge">
<title>Node16&#45;&gt;Node23</title>
<path fill="none" stroke="midnightblue" d="M481.28,-237C484.39,-236.32 487.51,-235.65 490.5,-235 545.4,-223.12 608.4,-209.71 651.16,-200.65"/>
<polygon fill="midnightblue" stroke="midnightblue" points="651.98,-204.05 661.03,-198.56 650.53,-197.2 651.98,-204.05"/>
</g>
<!-- Node26 -->
<g id="node26" class="node">
<title>Node26</title>
<g id="a_node26"><a xlink:title=" ">
<polygon fill="white" stroke="#bfbfbf" points="533,-179.5 533,-198.5 622,-198.5 622,-179.5 533,-179.5"/>
<text text-anchor="middle" x="577.5" y="-186.5" font-family="Helvetica,sans-Serif" font-size="10.00">vnl/vnl_math.h</text>
</a>
</g>
</g>
<!-- Node16&#45;&gt;Node26 -->
<g id="edge34" class="edge">
<title>Node16&#45;&gt;Node26</title>
<path fill="none" stroke="midnightblue" d="M469.78,-235.44C490.85,-226.56 524.02,-212.56 547.99,-202.45"/>
<polygon fill="midnightblue" stroke="midnightblue" points="549.46,-205.63 557.31,-198.52 546.74,-199.18 549.46,-205.63"/>
</g>
<!-- Node27 -->
<g id="node27" class="node">
<title>Node27</title>
<g id="a_node27"><a xlink:title=" ">
<polygon fill="white" stroke="#bfbfbf" points="367.5,-179.5 367.5,-198.5 449.5,-198.5 449.5,-179.5 367.5,-179.5"/>
<text text-anchor="middle" x="408.5" y="-186.5" font-family="Helvetica,sans-Serif" font-size="10.00">vxl_version.h</text>
</a>
</g>
</g>
<!-- Node16&#45;&gt;Node27 -->
<g id="edge35" class="edge">
<title>Node16&#45;&gt;Node27</title>
<path fill="none" stroke="midnightblue" d="M442.73,-235.08C436.94,-227.46 428.44,-216.26 421.36,-206.94"/>
<polygon fill="midnightblue" stroke="midnightblue" points="423.98,-204.6 415.14,-198.75 418.4,-208.83 423.98,-204.6"/>
</g>
<!-- Node18&#45;&gt;Node3 -->
<g id="edge27" class="edge">
<title>Node18&#45;&gt;Node3</title>
<path fill="none" stroke="midnightblue" d="M781.46,-180.21C725.39,-170.72 630.56,-154.66 568.75,-144.2"/>
<polygon fill="midnightblue" stroke="midnightblue" points="569.18,-140.72 558.74,-142.5 568.02,-147.62 569.18,-140.72"/>
</g>
<!-- Node19 -->
<g id="node19" class="node">
<title>Node19</title>
<g id="a_node19"><a xlink:href="itkIntTypes_8h.html" target="_top" xlink:title=" ">
<polygon fill="white" stroke="black" points="763,-123.5 763,-142.5 842,-142.5 842,-123.5 763,-123.5"/>
<text text-anchor="middle" x="802.5" y="-130.5" font-family="Helvetica,sans-Serif" font-size="10.00">itkIntTypes.h</text>
</a>
</g>
</g>
<!-- Node18&#45;&gt;Node19 -->
<g id="edge23" class="edge">
<title>Node18&#45;&gt;Node19</title>
<path fill="none" stroke="midnightblue" d="M823.37,-179.08C819.99,-171.77 815.08,-161.18 810.88,-152.1"/>
<polygon fill="midnightblue" stroke="midnightblue" points="813.93,-150.36 806.55,-142.75 807.58,-153.3 813.93,-150.36"/>
</g>
<!-- Node22 -->
<g id="node22" class="node">
<title>Node22</title>
<g id="a_node22"><a xlink:title=" ">
<polygon fill="white" stroke="#bfbfbf" points="859.5,-123.5 859.5,-142.5 903.5,-142.5 903.5,-123.5 859.5,-123.5"/>
<text text-anchor="middle" x="881.5" y="-130.5" font-family="Helvetica,sans-Serif" font-size="10.00">cfenv</text>
</a>
</g>
</g>
<!-- Node18&#45;&gt;Node22 -->
<g id="edge28" class="edge">
<title>Node18&#45;&gt;Node22</title>
<path fill="none" stroke="midnightblue" d="M836.42,-179.08C844.28,-171.22 855.93,-159.57 865.42,-150.08"/>
<polygon fill="midnightblue" stroke="midnightblue" points="868.15,-152.3 872.75,-142.75 863.2,-147.35 868.15,-152.3"/>
</g>
<!-- Node19&#45;&gt;Node4 -->
<g id="edge24" class="edge">
<title>Node19&#45;&gt;Node4</title>
<path fill="none" stroke="midnightblue" d="M812.49,-123.38C826.44,-110.31 848.53,-85.09 834.5,-67 815.93,-43.07 733.77,-28.53 681.6,-21.55"/>
<polygon fill="midnightblue" stroke="midnightblue" points="681.96,-18.07 671.59,-20.25 681.06,-25.01 681.96,-18.07"/>
</g>
<!-- Node20 -->
<g id="node20" class="node">
<title>Node20</title>
<g id="a_node20"><a xlink:title=" ">
<polygon fill="white" stroke="#bfbfbf" points="707.5,-67.5 707.5,-86.5 757.5,-86.5 757.5,-67.5 707.5,-67.5"/>
<text text-anchor="middle" x="732.5" y="-74.5" font-family="Helvetica,sans-Serif" font-size="10.00">cstdint</text>
</a>
</g>
</g>
<!-- Node19&#45;&gt;Node20 -->
<g id="edge25" class="edge">
<title>Node19&#45;&gt;Node20</title>
<path fill="none" stroke="midnightblue" d="M791.25,-123.32C780.7,-115.18 764.7,-102.84 752.06,-93.09"/>
<polygon fill="midnightblue" stroke="midnightblue" points="754.01,-90.17 743.95,-86.83 749.73,-95.71 754.01,-90.17"/>
</g>
<!-- Node21 -->
<g id="node21" class="node">
<title>Node21</title>
<g id="a_node21"><a xlink:title=" ">
<polygon fill="white" stroke="#bfbfbf" points="775.5,-67.5 775.5,-86.5 825.5,-86.5 825.5,-67.5 775.5,-67.5"/>
<text text-anchor="middle" x="800.5" y="-74.5" font-family="Helvetica,sans-Serif" font-size="10.00">climits</text>
</a>
</g>
</g>
<!-- Node19&#45;&gt;Node21 -->
<g id="edge26" class="edge">
<title>Node19&#45;&gt;Node21</title>
<path fill="none" stroke="midnightblue" d="M802.17,-123.08C801.91,-116.01 801.53,-105.86 801.2,-96.99"/>
<polygon fill="midnightblue" stroke="midnightblue" points="804.69,-96.61 800.82,-86.75 797.7,-96.87 804.69,-96.61"/>
</g>
<!-- Node23&#45;&gt;Node3 -->
<g id="edge32" class="edge">
<title>Node23&#45;&gt;Node3</title>
<path fill="none" stroke="midnightblue" d="M670.92,-179.44C637.89,-170.2 585.11,-155.44 548.73,-145.26"/>
<polygon fill="midnightblue" stroke="midnightblue" points="549.51,-141.84 538.94,-142.52 547.63,-148.58 549.51,-141.84"/>
</g>
<!-- Node24 -->
<g id="node24" class="node">
<title>Node24</title>
<g id="a_node24"><a xlink:href="itkPixelTraits_8h.html" target="_top" xlink:title=" ">
<polygon fill="white" stroke="black" points="657.5,-123.5 657.5,-142.5 745.5,-142.5 745.5,-123.5 657.5,-123.5"/>
<text text-anchor="middle" x="701.5" y="-130.5" font-family="Helvetica,sans-Serif" font-size="10.00">itkPixelTraits.h</text>
</a>
</g>
</g>
<!-- Node23&#45;&gt;Node24 -->
<g id="edge30" class="edge">
<title>Node23&#45;&gt;Node24</title>
<path fill="none" stroke="midnightblue" d="M701.5,-179.08C701.5,-172.01 701.5,-161.86 701.5,-152.99"/>
<polygon fill="midnightblue" stroke="midnightblue" points="705,-152.75 701.5,-142.75 698,-152.75 705,-152.75"/>
</g>
<!-- Node25 -->
<g id="node25" class="node">
<title>Node25</title>
<g id="a_node25"><a xlink:title=" ">
<polygon fill="white" stroke="#bfbfbf" points="579.5,-123.5 579.5,-142.5 639.5,-142.5 639.5,-123.5 579.5,-123.5"/>
<text text-anchor="middle" x="609.5" y="-130.5" font-family="Helvetica,sans-Serif" font-size="10.00">iostream</text>
</a>
</g>
</g>
<!-- Node23&#45;&gt;Node25 -->
<g id="edge33" class="edge">
<title>Node23&#45;&gt;Node25</title>
<path fill="none" stroke="midnightblue" d="M686.72,-179.32C672.23,-170.82 649.93,-157.73 633.01,-147.8"/>
<polygon fill="midnightblue" stroke="midnightblue" points="634.64,-144.7 624.24,-142.65 631.1,-150.74 634.64,-144.7"/>
</g>
<!-- Node24&#45;&gt;Node4 -->
<g id="edge31" class="edge">
<title>Node24&#45;&gt;Node4</title>
<path fill="none" stroke="midnightblue" d="M696.69,-123.32C686.22,-104.42 661.19,-59.25 647.26,-34.12"/>
<polygon fill="midnightblue" stroke="midnightblue" points="650.27,-32.33 642.37,-25.28 644.15,-35.73 650.27,-32.33"/>
</g>
<!-- Node32&#45;&gt;Node16 -->
<g id="edge44" class="edge">
<title>Node32&#45;&gt;Node16</title>
<path fill="none" stroke="midnightblue" d="M392.1,-296.98C402.55,-287.7 419.47,-272.67 432.24,-261.33"/>
<polygon fill="midnightblue" stroke="midnightblue" points="434.77,-263.77 439.92,-254.51 430.12,-258.53 434.77,-263.77"/>
</g>
<!-- Node33 -->
<g id="node33" class="node">
<title>Node33</title>
<g id="a_node33"><a xlink:href="itkCrossHelper_8h.html" target="_top" xlink:title=" ">
<polygon fill="white" stroke="black" points="218,-235.5 218,-254.5 315,-254.5 315,-235.5 218,-235.5"/>
<text text-anchor="middle" x="266.5" y="-242.5" font-family="Helvetica,sans-Serif" font-size="10.00">itkCrossHelper.h</text>
</a>
</g>
</g>
<!-- Node32&#45;&gt;Node33 -->
<g id="edge41" class="edge">
<title>Node32&#45;&gt;Node33</title>
<path fill="none" stroke="midnightblue" d="M365.88,-296.98C346.58,-287.08 314.54,-270.64 292.07,-259.12"/>
<polygon fill="midnightblue" stroke="midnightblue" points="293.58,-255.96 283.09,-254.51 290.39,-262.19 293.58,-255.96"/>
</g>
<!-- Node34 -->
<g id="node34" class="node">
<title>Node34</title>
<g id="a_node34"><a xlink:title=" ">
<polygon fill="white" stroke="#bfbfbf" points="499.5,-235.5 499.5,-254.5 619.5,-254.5 619.5,-235.5 499.5,-235.5"/>
<text text-anchor="middle" x="559.5" y="-242.5" font-family="Helvetica,sans-Serif" font-size="10.00">itkTriangleHelper.hxx</text>
</a>
</g>
</g>
<!-- Node32&#45;&gt;Node34 -->
<g id="edge43" class="edge">
<title>Node32&#45;&gt;Node34</title>
<path fill="none" stroke="midnightblue" d="M407.86,-296.98C438.48,-286.68 490.16,-269.31 524.55,-257.75"/>
<polygon fill="midnightblue" stroke="midnightblue" points="525.82,-261.01 534.19,-254.51 523.59,-254.38 525.82,-261.01"/>
</g>
<!-- Node33&#45;&gt;Node3 -->
<g id="edge42" class="edge">
<title>Node33&#45;&gt;Node3</title>
<path fill="none" stroke="midnightblue" d="M271.86,-235.33C281.04,-221.25 301.15,-193.51 325.5,-179 361.85,-157.34 408.18,-146.08 445.13,-140.24"/>
<polygon fill="midnightblue" stroke="midnightblue" points="445.91,-143.66 455.29,-138.73 444.88,-136.74 445.91,-143.66"/>
</g>
</g>
</svg>
