<?xml version="1.0" encoding="UTF-8" standalone="no"?>
<!DOCTYPE svg PUBLIC "-//W3C//DTD SVG 1.1//EN"
 "http://www.w3.org/Graphics/SVG/1.1/DTD/svg11.dtd">
<!-- Generated by graphviz version 2.43.0 (0)
 -->
<!-- Title: itkRandomVariateGeneratorBase.h Pages: 1 -->
<svg width="1456pt" height="374pt"
 viewBox="0.00 0.00 1455.50 374.00" xmlns="http://www.w3.org/2000/svg" xmlns:xlink="http://www.w3.org/1999/xlink">
<g id="graph0" class="graph" transform="scale(1 1) rotate(0) translate(4 370)">
<title>itkRandomVariateGeneratorBase.h</title>
<polygon fill="white" stroke="transparent" points="-4,4 -4,-370 1451.5,-370 1451.5,4 -4,4"/>
<!-- Node1 -->
<g id="node1" class="node">
<title>Node1</title>
<g id="a_node1"><a xlink:title=" ">
<polygon fill="#bfbfbf" stroke="black" points="1042,-335.5 1042,-365.5 1195,-365.5 1195,-335.5 1042,-335.5"/>
<text text-anchor="start" x="1050" y="-353.5" font-family="Helvetica,sans-Serif" font-size="10.00">itkRandomVariateGenerator</text>
<text text-anchor="middle" x="1118.5" y="-342.5" font-family="Helvetica,sans-Serif" font-size="10.00">Base.h</text>
</a>
</g>
</g>
<!-- Node2 -->
<g id="node2" class="node">
<title>Node2</title>
<g id="a_node2"><a xlink:href="itkMersenneTwisterRandomVariateGenerator_8h.html" target="_top" xlink:title=" ">
<polygon fill="white" stroke="black" points="650.5,-268.5 650.5,-298.5 802.5,-298.5 802.5,-268.5 650.5,-268.5"/>
<text text-anchor="start" x="658.5" y="-286.5" font-family="Helvetica,sans-Serif" font-size="10.00">itkMersenneTwisterRandom</text>
<text text-anchor="middle" x="726.5" y="-275.5" font-family="Helvetica,sans-Serif" font-size="10.00">VariateGenerator.h</text>
</a>
</g>
</g>
<!-- Node1&#45;&gt;Node2 -->
<g id="edge1" class="edge">
<title>Node1&#45;&gt;Node2</title>
<path fill="none" stroke="midnightblue" d="M1032.07,-335.17C963.51,-323.8 868.6,-308.06 802.82,-297.15"/>
<polygon fill="midnightblue" stroke="midnightblue" points="1031.55,-338.63 1041.99,-336.81 1032.7,-331.72 1031.55,-338.63"/>
</g>
<!-- Node19 -->
<g id="node19" class="node">
<title>Node19</title>
<g id="a_node19"><a xlink:href="itkNormalVariateGenerator_8h.html" target="_top" xlink:title=" ">
<polygon fill="white" stroke="black" points="954,-274 954,-293 1111,-293 1111,-274 954,-274"/>
<text text-anchor="middle" x="1032.5" y="-281" font-family="Helvetica,sans-Serif" font-size="10.00">itkNormalVariateGenerator.h</text>
</a>
</g>
</g>
<!-- Node1&#45;&gt;Node19 -->
<g id="edge18" class="edge">
<title>Node1&#45;&gt;Node19</title>
<path fill="none" stroke="midnightblue" d="M1091.83,-329.34C1075.78,-317.21 1056.17,-302.39 1044,-293.19"/>
<polygon fill="midnightblue" stroke="midnightblue" points="1089.75,-332.16 1099.84,-335.4 1093.97,-326.57 1089.75,-332.16"/>
</g>
<!-- Node21 -->
<g id="node21" class="node">
<title>Node21</title>
<g id="a_node21"><a xlink:href="itkOnePlusOneEvolutionaryOptimizer_8h.html" target="_top" xlink:title=" ">
<polygon fill="white" stroke="black" points="1129.5,-268.5 1129.5,-298.5 1279.5,-298.5 1279.5,-268.5 1129.5,-268.5"/>
<text text-anchor="start" x="1137.5" y="-286.5" font-family="Helvetica,sans-Serif" font-size="10.00">itkOnePlusOneEvolutionary</text>
<text text-anchor="middle" x="1204.5" y="-275.5" font-family="Helvetica,sans-Serif" font-size="10.00">Optimizer.h</text>
</a>
</g>
</g>
<!-- Node1&#45;&gt;Node21 -->
<g id="edge20" class="edge">
<title>Node1&#45;&gt;Node21</title>
<path fill="none" stroke="midnightblue" d="M1145.4,-329.17C1158.55,-319.23 1174.05,-307.51 1185.88,-298.58"/>
<polygon fill="midnightblue" stroke="midnightblue" points="1143.03,-326.57 1137.16,-335.4 1147.25,-332.16 1143.03,-326.57"/>
</g>
<!-- Node22 -->
<g id="node22" class="node">
<title>Node22</title>
<g id="a_node22"><a xlink:href="itkOnePlusOneEvolutionaryOptimizerv4_8h.html" target="_top" xlink:title=" ">
<polygon fill="white" stroke="black" points="1297.5,-268.5 1297.5,-298.5 1447.5,-298.5 1447.5,-268.5 1297.5,-268.5"/>
<text text-anchor="start" x="1305.5" y="-286.5" font-family="Helvetica,sans-Serif" font-size="10.00">itkOnePlusOneEvolutionary</text>
<text text-anchor="middle" x="1372.5" y="-275.5" font-family="Helvetica,sans-Serif" font-size="10.00">Optimizerv4.h</text>
</a>
</g>
</g>
<!-- Node1&#45;&gt;Node22 -->
<g id="edge22" class="edge">
<title>Node1&#45;&gt;Node22</title>
<path fill="none" stroke="midnightblue" d="M1183.04,-332.98C1224.53,-322.37 1277.86,-308.72 1317.36,-298.61"/>
<polygon fill="midnightblue" stroke="midnightblue" points="1182.12,-329.61 1173.3,-335.48 1183.86,-336.39 1182.12,-329.61"/>
</g>
<!-- Node3 -->
<g id="node3" class="node">
<title>Node3</title>
<g id="a_node3"><a xlink:href="itkImageRandomConstIteratorWithIndex_8h.html" target="_top" xlink:title=" ">
<polygon fill="white" stroke="black" points="80.5,-201.5 80.5,-231.5 244.5,-231.5 244.5,-201.5 80.5,-201.5"/>
<text text-anchor="start" x="88.5" y="-219.5" font-family="Helvetica,sans-Serif" font-size="10.00">itkImageRandomConstIterator</text>
<text text-anchor="middle" x="162.5" y="-208.5" font-family="Helvetica,sans-Serif" font-size="10.00">WithIndex.h</text>
</a>
</g>
</g>
<!-- Node2&#45;&gt;Node3 -->
<g id="edge2" class="edge">
<title>Node2&#45;&gt;Node3</title>
<path fill="none" stroke="midnightblue" d="M640.04,-274.62C545.08,-265.65 388.17,-249.91 253.5,-232 250.65,-231.62 247.74,-231.22 244.81,-230.81"/>
<polygon fill="midnightblue" stroke="midnightblue" points="639.88,-278.12 650.17,-275.57 640.54,-271.15 639.88,-278.12"/>
</g>
<!-- Node10 -->
<g id="node10" class="node">
<title>Node10</title>
<g id="a_node10"><a xlink:href="itkImageRandomConstIteratorWithOnlyIndex_8h.html" target="_top" xlink:title=" ">
<polygon fill="white" stroke="black" points="262.5,-201.5 262.5,-231.5 426.5,-231.5 426.5,-201.5 262.5,-201.5"/>
<text text-anchor="start" x="270.5" y="-219.5" font-family="Helvetica,sans-Serif" font-size="10.00">itkImageRandomConstIterator</text>
<text text-anchor="middle" x="344.5" y="-208.5" font-family="Helvetica,sans-Serif" font-size="10.00">WithOnlyIndex.h</text>
</a>
</g>
</g>
<!-- Node2&#45;&gt;Node10 -->
<g id="edge9" class="edge">
<title>Node2&#45;&gt;Node10</title>
<path fill="none" stroke="midnightblue" d="M640.06,-267.79C576.12,-256.91 489.6,-242.19 426.7,-231.49"/>
<polygon fill="midnightblue" stroke="midnightblue" points="639.67,-271.28 650.11,-269.5 640.84,-264.37 639.67,-271.28"/>
</g>
<!-- Node11 -->
<g id="node11" class="node">
<title>Node11</title>
<g id="a_node11"><a xlink:href="itkImageRandomNonRepeatingConstIteratorWithIndex_8h.html" target="_top" xlink:title=" ">
<polygon fill="white" stroke="black" points="444.5,-201.5 444.5,-231.5 614.5,-231.5 614.5,-201.5 444.5,-201.5"/>
<text text-anchor="start" x="452.5" y="-219.5" font-family="Helvetica,sans-Serif" font-size="10.00">itkImageRandomNonRepeating</text>
<text text-anchor="middle" x="529.5" y="-208.5" font-family="Helvetica,sans-Serif" font-size="10.00">ConstIteratorWithIndex.h</text>
</a>
</g>
</g>
<!-- Node2&#45;&gt;Node11 -->
<g id="edge10" class="edge">
<title>Node2&#45;&gt;Node11</title>
<path fill="none" stroke="midnightblue" d="M674.15,-265.23C642.28,-254.71 602.09,-241.45 572.16,-231.58"/>
<polygon fill="midnightblue" stroke="midnightblue" points="673.16,-268.59 683.75,-268.4 675.35,-261.94 673.16,-268.59"/>
</g>
<!-- Node13 -->
<g id="node13" class="node">
<title>Node13</title>
<g id="a_node13"><a xlink:href="itkUniformRandomSpatialNeighborSubsampler_8h.html" target="_top" xlink:title=" ">
<polygon fill="white" stroke="black" points="632.5,-201.5 632.5,-231.5 820.5,-231.5 820.5,-201.5 632.5,-201.5"/>
<text text-anchor="start" x="640.5" y="-219.5" font-family="Helvetica,sans-Serif" font-size="10.00">itkUniformRandomSpatialNeighbor</text>
<text text-anchor="middle" x="726.5" y="-208.5" font-family="Helvetica,sans-Serif" font-size="10.00">Subsampler.h</text>
</a>
</g>
</g>
<!-- Node2&#45;&gt;Node13 -->
<g id="edge12" class="edge">
<title>Node2&#45;&gt;Node13</title>
<path fill="none" stroke="midnightblue" d="M726.5,-258.11C726.5,-249.15 726.5,-239.32 726.5,-231.58"/>
<polygon fill="midnightblue" stroke="midnightblue" points="723,-258.4 726.5,-268.4 730,-258.4 723,-258.4"/>
</g>
<!-- Node15 -->
<g id="node15" class="node">
<title>Node15</title>
<g id="a_node15"><a xlink:href="itkParticleSwarmOptimizerBase_8h.html" target="_top" xlink:title=" ">
<polygon fill="white" stroke="black" points="839,-201.5 839,-231.5 986,-231.5 986,-201.5 839,-201.5"/>
<text text-anchor="start" x="847" y="-219.5" font-family="Helvetica,sans-Serif" font-size="10.00">itkParticleSwarmOptimizer</text>
<text text-anchor="middle" x="912.5" y="-208.5" font-family="Helvetica,sans-Serif" font-size="10.00">Base.h</text>
</a>
</g>
</g>
<!-- Node2&#45;&gt;Node15 -->
<g id="edge14" class="edge">
<title>Node2&#45;&gt;Node15</title>
<path fill="none" stroke="midnightblue" d="M776.31,-265.09C806.34,-254.6 844.09,-241.41 872.22,-231.58"/>
<polygon fill="midnightblue" stroke="midnightblue" points="775.14,-261.79 766.86,-268.4 777.45,-268.4 775.14,-261.79"/>
</g>
<!-- Node18 -->
<g id="node18" class="node">
<title>Node18</title>
<g id="a_node18"><a xlink:href="itkSPSAOptimizer_8h.html" target="_top" xlink:title=" ">
<polygon fill="white" stroke="black" points="1004,-207 1004,-226 1115,-226 1115,-207 1004,-207"/>
<text text-anchor="middle" x="1059.5" y="-214" font-family="Helvetica,sans-Serif" font-size="10.00">itkSPSAOptimizer.h</text>
</a>
</g>
</g>
<!-- Node2&#45;&gt;Node18 -->
<g id="edge17" class="edge">
<title>Node2&#45;&gt;Node18</title>
<path fill="none" stroke="midnightblue" d="M812.56,-267.04C865.18,-257.39 933.83,-244.48 994.5,-232 1003.45,-230.16 1013.06,-228.07 1022.08,-226.07"/>
<polygon fill="midnightblue" stroke="midnightblue" points="811.79,-263.62 802.59,-268.86 813.05,-270.5 811.79,-263.62"/>
</g>
<!-- Node4 -->
<g id="node4" class="node">
<title>Node4</title>
<g id="a_node4"><a xlink:href="itkImageRandomIteratorWithIndex_8h.html" target="_top" xlink:title=" ">
<polygon fill="white" stroke="black" points="0,-134.5 0,-164.5 159,-164.5 159,-134.5 0,-134.5"/>
<text text-anchor="start" x="8" y="-152.5" font-family="Helvetica,sans-Serif" font-size="10.00">itkImageRandomIteratorWith</text>
<text text-anchor="middle" x="79.5" y="-141.5" font-family="Helvetica,sans-Serif" font-size="10.00">Index.h</text>
</a>
</g>
</g>
<!-- Node3&#45;&gt;Node4 -->
<g id="edge3" class="edge">
<title>Node3&#45;&gt;Node4</title>
<path fill="none" stroke="midnightblue" d="M136.54,-195.17C123.85,-185.23 108.89,-173.51 97.47,-164.58"/>
<polygon fill="midnightblue" stroke="midnightblue" points="134.46,-197.99 144.49,-201.4 138.78,-192.47 134.46,-197.99"/>
</g>
<!-- Node5 -->
<g id="node5" class="node">
<title>Node5</title>
<g id="a_node5"><a xlink:href="itkRegistrationParameterScalesEstimator_8h.html" target="_top" xlink:title=" ">
<polygon fill="white" stroke="black" points="177,-134.5 177,-164.5 316,-164.5 316,-134.5 177,-134.5"/>
<text text-anchor="start" x="185" y="-152.5" font-family="Helvetica,sans-Serif" font-size="10.00">itkRegistrationParameter</text>
<text text-anchor="middle" x="246.5" y="-141.5" font-family="Helvetica,sans-Serif" font-size="10.00">ScalesEstimator.h</text>
</a>
</g>
</g>
<!-- Node3&#45;&gt;Node5 -->
<g id="edge4" class="edge">
<title>Node3&#45;&gt;Node5</title>
<path fill="none" stroke="midnightblue" d="M188.78,-195.17C201.62,-185.23 216.76,-173.51 228.31,-164.58"/>
<polygon fill="midnightblue" stroke="midnightblue" points="186.49,-192.51 180.73,-201.4 190.78,-198.04 186.49,-192.51"/>
</g>
<!-- Node6 -->
<g id="node6" class="node">
<title>Node6</title>
<g id="a_node6"><a xlink:href="itkRegistrationParameterScalesFromShiftBase_8h.html" target="_top" xlink:title=" ">
<polygon fill="white" stroke="black" points="99,-67.5 99,-97.5 238,-97.5 238,-67.5 99,-67.5"/>
<text text-anchor="start" x="107" y="-85.5" font-family="Helvetica,sans-Serif" font-size="10.00">itkRegistrationParameter</text>
<text text-anchor="middle" x="168.5" y="-74.5" font-family="Helvetica,sans-Serif" font-size="10.00">ScalesFromShiftBase.h</text>
</a>
</g>
</g>
<!-- Node5&#45;&gt;Node6 -->
<g id="edge5" class="edge">
<title>Node5&#45;&gt;Node6</title>
<path fill="none" stroke="midnightblue" d="M221.76,-127.88C209.91,-118.01 196.02,-106.43 185.39,-97.58"/>
<polygon fill="midnightblue" stroke="midnightblue" points="219.65,-130.68 229.58,-134.4 224.13,-125.31 219.65,-130.68"/>
</g>
<!-- Node9 -->
<g id="node9" class="node">
<title>Node9</title>
<g id="a_node9"><a xlink:href="itkRegistrationParameterScalesFromJacobian_8h.html" target="_top" xlink:title=" ">
<polygon fill="white" stroke="black" points="256,-67.5 256,-97.5 395,-97.5 395,-67.5 256,-67.5"/>
<text text-anchor="start" x="264" y="-85.5" font-family="Helvetica,sans-Serif" font-size="10.00">itkRegistrationParameter</text>
<text text-anchor="middle" x="325.5" y="-74.5" font-family="Helvetica,sans-Serif" font-size="10.00">ScalesFromJacobian.h</text>
</a>
</g>
</g>
<!-- Node5&#45;&gt;Node9 -->
<g id="edge8" class="edge">
<title>Node5&#45;&gt;Node9</title>
<path fill="none" stroke="midnightblue" d="M271.56,-127.88C283.56,-118.01 297.63,-106.43 308.39,-97.58"/>
<polygon fill="midnightblue" stroke="midnightblue" points="269.14,-125.34 263.64,-134.4 273.59,-130.75 269.14,-125.34"/>
</g>
<!-- Node7 -->
<g id="node7" class="node">
<title>Node7</title>
<g id="a_node7"><a xlink:href="itkRegistrationParameterScalesFromIndexShift_8h.html" target="_top" xlink:title=" ">
<polygon fill="white" stroke="black" points="19,-0.5 19,-30.5 158,-30.5 158,-0.5 19,-0.5"/>
<text text-anchor="start" x="27" y="-18.5" font-family="Helvetica,sans-Serif" font-size="10.00">itkRegistrationParameter</text>
<text text-anchor="middle" x="88.5" y="-7.5" font-family="Helvetica,sans-Serif" font-size="10.00">ScalesFromIndexShift.h</text>
</a>
</g>
</g>
<!-- Node6&#45;&gt;Node7 -->
<g id="edge6" class="edge">
<title>Node6&#45;&gt;Node7</title>
<path fill="none" stroke="midnightblue" d="M143.13,-60.88C130.97,-51.01 116.72,-39.43 105.82,-30.58"/>
<polygon fill="midnightblue" stroke="midnightblue" points="141.17,-63.81 151.14,-67.4 145.59,-58.37 141.17,-63.81"/>
</g>
<!-- Node8 -->
<g id="node8" class="node">
<title>Node8</title>
<g id="a_node8"><a xlink:href="itkRegistrationParameterScalesFromPhysicalShift_8h.html" target="_top" xlink:title=" ">
<polygon fill="white" stroke="black" points="176.5,-0.5 176.5,-30.5 320.5,-30.5 320.5,-0.5 176.5,-0.5"/>
<text text-anchor="start" x="184.5" y="-18.5" font-family="Helvetica,sans-Serif" font-size="10.00">itkRegistrationParameter</text>
<text text-anchor="middle" x="248.5" y="-7.5" font-family="Helvetica,sans-Serif" font-size="10.00">ScalesFromPhysicalShift.h</text>
</a>
</g>
</g>
<!-- Node6&#45;&gt;Node8 -->
<g id="edge7" class="edge">
<title>Node6&#45;&gt;Node8</title>
<path fill="none" stroke="midnightblue" d="M193.87,-60.88C206.03,-51.01 220.28,-39.43 231.18,-30.58"/>
<polygon fill="midnightblue" stroke="midnightblue" points="191.41,-58.37 185.86,-67.4 195.83,-63.81 191.41,-58.37"/>
</g>
<!-- Node12 -->
<g id="node12" class="node">
<title>Node12</title>
<g id="a_node12"><a xlink:href="itkImageRandomNonRepeatingIteratorWithIndex_8h.html" target="_top" xlink:title=" ">
<polygon fill="white" stroke="black" points="444.5,-134.5 444.5,-164.5 614.5,-164.5 614.5,-134.5 444.5,-134.5"/>
<text text-anchor="start" x="452.5" y="-152.5" font-family="Helvetica,sans-Serif" font-size="10.00">itkImageRandomNonRepeating</text>
<text text-anchor="middle" x="529.5" y="-141.5" font-family="Helvetica,sans-Serif" font-size="10.00">IteratorWithIndex.h</text>
</a>
</g>
</g>
<!-- Node11&#45;&gt;Node12 -->
<g id="edge11" class="edge">
<title>Node11&#45;&gt;Node12</title>
<path fill="none" stroke="midnightblue" d="M529.5,-191.11C529.5,-182.15 529.5,-172.32 529.5,-164.58"/>
<polygon fill="midnightblue" stroke="midnightblue" points="526,-191.4 529.5,-201.4 533,-191.4 526,-191.4"/>
</g>
<!-- Node14 -->
<g id="node14" class="node">
<title>Node14</title>
<g id="a_node14"><a xlink:href="itkGaussianRandomSpatialNeighborSubsampler_8h.html" target="_top" xlink:title=" ">
<polygon fill="white" stroke="black" points="652,-134.5 652,-164.5 801,-164.5 801,-134.5 652,-134.5"/>
<text text-anchor="start" x="660" y="-152.5" font-family="Helvetica,sans-Serif" font-size="10.00">itkGaussianRandomSpatial</text>
<text text-anchor="middle" x="726.5" y="-141.5" font-family="Helvetica,sans-Serif" font-size="10.00">NeighborSubsampler.h</text>
</a>
</g>
</g>
<!-- Node13&#45;&gt;Node14 -->
<g id="edge13" class="edge">
<title>Node13&#45;&gt;Node14</title>
<path fill="none" stroke="midnightblue" d="M726.5,-191.11C726.5,-182.15 726.5,-172.32 726.5,-164.58"/>
<polygon fill="midnightblue" stroke="midnightblue" points="723,-191.4 726.5,-201.4 730,-191.4 723,-191.4"/>
</g>
<!-- Node16 -->
<g id="node16" class="node">
<title>Node16</title>
<g id="a_node16"><a xlink:href="itkInitializationBiasedParticleSwarmOptimizer_8h.html" target="_top" xlink:title=" ">
<polygon fill="white" stroke="black" points="826,-134.5 826,-164.5 985,-164.5 985,-134.5 826,-134.5"/>
<text text-anchor="start" x="834" y="-152.5" font-family="Helvetica,sans-Serif" font-size="10.00">itkInitializationBiasedParticle</text>
<text text-anchor="middle" x="905.5" y="-141.5" font-family="Helvetica,sans-Serif" font-size="10.00">SwarmOptimizer.h</text>
</a>
</g>
</g>
<!-- Node15&#45;&gt;Node16 -->
<g id="edge15" class="edge">
<title>Node15&#45;&gt;Node16</title>
<path fill="none" stroke="midnightblue" d="M909.9,-191.4C908.93,-182.37 907.86,-172.41 907.02,-164.58"/>
<polygon fill="midnightblue" stroke="midnightblue" points="906.43,-191.83 910.98,-201.4 913.39,-191.08 906.43,-191.83"/>
</g>
<!-- Node17 -->
<g id="node17" class="node">
<title>Node17</title>
<g id="a_node17"><a xlink:href="itkParticleSwarmOptimizer_8h.html" target="_top" xlink:title=" ">
<polygon fill="white" stroke="black" points="1003,-140 1003,-159 1158,-159 1158,-140 1003,-140"/>
<text text-anchor="middle" x="1080.5" y="-147" font-family="Helvetica,sans-Serif" font-size="10.00">itkParticleSwarmOptimizer.h</text>
</a>
</g>
</g>
<!-- Node15&#45;&gt;Node17 -->
<g id="edge16" class="edge">
<title>Node15&#45;&gt;Node17</title>
<path fill="none" stroke="midnightblue" d="M958.29,-197.78C990.86,-185.18 1033.18,-168.81 1058.51,-159.01"/>
<polygon fill="midnightblue" stroke="midnightblue" points="957.02,-194.52 948.95,-201.4 959.54,-201.05 957.02,-194.52"/>
</g>
<!-- Node20 -->
<g id="node20" class="node">
<title>Node20</title>
<g id="a_node20"><a xlink:href="itkMRIBiasFieldCorrectionFilter_8h.html" target="_top" xlink:title=" ">
<polygon fill="white" stroke="black" points="1133,-201.5 1133,-231.5 1276,-231.5 1276,-201.5 1133,-201.5"/>
<text text-anchor="start" x="1141" y="-219.5" font-family="Helvetica,sans-Serif" font-size="10.00">itkMRIBiasFieldCorrection</text>
<text text-anchor="middle" x="1204.5" y="-208.5" font-family="Helvetica,sans-Serif" font-size="10.00">Filter.h</text>
</a>
</g>
</g>
<!-- Node19&#45;&gt;Node20 -->
<g id="edge19" class="edge">
<title>Node19&#45;&gt;Node20</title>
<path fill="none" stroke="midnightblue" d="M1065.04,-270.2C1094.19,-259.19 1136.91,-243.04 1167.38,-231.53"/>
<polygon fill="midnightblue" stroke="midnightblue" points="1063.46,-267.06 1055.34,-273.87 1065.93,-273.61 1063.46,-267.06"/>
</g>
<!-- Node21&#45;&gt;Node20 -->
<g id="edge21" class="edge">
<title>Node21&#45;&gt;Node20</title>
<path fill="none" stroke="midnightblue" d="M1204.5,-258.11C1204.5,-249.15 1204.5,-239.32 1204.5,-231.58"/>
<polygon fill="midnightblue" stroke="midnightblue" points="1201,-258.4 1204.5,-268.4 1208,-258.4 1201,-258.4"/>
</g>
</g>
</svg>
