<?xml version="1.0" encoding="UTF-8" standalone="no"?>
<!DOCTYPE svg PUBLIC "-//W3C//DTD SVG 1.1//EN"
 "http://www.w3.org/Graphics/SVG/1.1/DTD/svg11.dtd">
<!-- Generated by graphviz version 2.43.0 (0)
 -->
<!-- Title: itkSingleValuedVnlCostFunctionAdaptorv4.h Pages: 1 -->
<svg width="384pt" height="218pt"
 viewBox="0.00 0.00 383.50 218.00" xmlns="http://www.w3.org/2000/svg" xmlns:xlink="http://www.w3.org/1999/xlink">
<g id="graph0" class="graph" transform="scale(1 1) rotate(0) translate(4 214)">
<title>itkSingleValuedVnlCostFunctionAdaptorv4.h</title>
<polygon fill="white" stroke="transparent" points="-4,4 -4,-214 379.5,-214 379.5,4 -4,4"/>
<!-- Node1 -->
<g id="node1" class="node">
<title>Node1</title>
<g id="a_node1"><a xlink:title=" ">
<polygon fill="#bfbfbf" stroke="black" points="66,-179.5 66,-209.5 237,-209.5 237,-179.5 66,-179.5"/>
<text text-anchor="start" x="74" y="-197.5" font-family="Helvetica,sans-Serif" font-size="10.00">itkSingleValuedVnlCostFunction</text>
<text text-anchor="middle" x="151.5" y="-186.5" font-family="Helvetica,sans-Serif" font-size="10.00">Adaptorv4.h</text>
</a>
</g>
</g>
<!-- Node2 -->
<g id="node2" class="node">
<title>Node2</title>
<g id="a_node2"><a xlink:href="itkSingleValuedNonLinearVnlOptimizerv4_8h.html" target="_top" xlink:title=" ">
<polygon fill="white" stroke="black" points="80.5,-112.5 80.5,-142.5 222.5,-142.5 222.5,-112.5 80.5,-112.5"/>
<text text-anchor="start" x="88.5" y="-130.5" font-family="Helvetica,sans-Serif" font-size="10.00">itkSingleValuedNonLinear</text>
<text text-anchor="middle" x="151.5" y="-119.5" font-family="Helvetica,sans-Serif" font-size="10.00">VnlOptimizerv4.h</text>
</a>
</g>
</g>
<!-- Node1&#45;&gt;Node2 -->
<g id="edge1" class="edge">
<title>Node1&#45;&gt;Node2</title>
<path fill="none" stroke="midnightblue" d="M151.5,-169.11C151.5,-160.15 151.5,-150.32 151.5,-142.58"/>
<polygon fill="midnightblue" stroke="midnightblue" points="148,-169.4 151.5,-179.4 155,-169.4 148,-169.4"/>
</g>
<!-- Node3 -->
<g id="node3" class="node">
<title>Node3</title>
<g id="a_node3"><a xlink:href="itkAmoebaOptimizerv4_8h.html" target="_top" xlink:title=" ">
<polygon fill="white" stroke="black" points="0,-56.5 0,-75.5 139,-75.5 139,-56.5 0,-56.5"/>
<text text-anchor="middle" x="69.5" y="-63.5" font-family="Helvetica,sans-Serif" font-size="10.00">itkAmoebaOptimizerv4.h</text>
</a>
</g>
</g>
<!-- Node2&#45;&gt;Node3 -->
<g id="edge2" class="edge">
<title>Node2&#45;&gt;Node3</title>
<path fill="none" stroke="midnightblue" d="M123.91,-106.48C109.47,-96 92.53,-83.71 81.43,-75.66"/>
<polygon fill="midnightblue" stroke="midnightblue" points="121.92,-109.36 132.07,-112.4 126.03,-103.69 121.92,-109.36"/>
</g>
<!-- Node4 -->
<g id="node4" class="node">
<title>Node4</title>
<g id="a_node4"><a xlink:href="itkLBFGSOptimizerBasev4_8h.html" target="_top" xlink:title=" ">
<polygon fill="white" stroke="black" points="157.5,-56.5 157.5,-75.5 311.5,-75.5 311.5,-56.5 157.5,-56.5"/>
<text text-anchor="middle" x="234.5" y="-63.5" font-family="Helvetica,sans-Serif" font-size="10.00">itkLBFGSOptimizerBasev4.h</text>
</a>
</g>
</g>
<!-- Node2&#45;&gt;Node4 -->
<g id="edge3" class="edge">
<title>Node2&#45;&gt;Node4</title>
<path fill="none" stroke="midnightblue" d="M179.42,-106.48C194.04,-96 211.19,-83.71 222.42,-75.66"/>
<polygon fill="midnightblue" stroke="midnightblue" points="177.26,-103.73 171.17,-112.4 181.34,-109.42 177.26,-103.73"/>
</g>
<!-- Node5 -->
<g id="node5" class="node">
<title>Node5</title>
<g id="a_node5"><a xlink:href="itkLBFGSBOptimizerv4_8h.html" target="_top" xlink:title=" ">
<polygon fill="white" stroke="black" points="90,-0.5 90,-19.5 227,-19.5 227,-0.5 90,-0.5"/>
<text text-anchor="middle" x="158.5" y="-7.5" font-family="Helvetica,sans-Serif" font-size="10.00">itkLBFGSBOptimizerv4.h</text>
</a>
</g>
</g>
<!-- Node4&#45;&gt;Node5 -->
<g id="edge4" class="edge">
<title>Node4&#45;&gt;Node5</title>
<path fill="none" stroke="midnightblue" d="M213.92,-50.38C200.19,-40.62 182.57,-28.11 170.93,-19.83"/>
<polygon fill="midnightblue" stroke="midnightblue" points="212.11,-53.38 222.29,-56.32 216.16,-47.68 212.11,-53.38"/>
</g>
<!-- Node6 -->
<g id="node6" class="node">
<title>Node6</title>
<g id="a_node6"><a xlink:href="itkLBFGSOptimizerv4_8h.html" target="_top" xlink:title=" ">
<polygon fill="white" stroke="black" points="245.5,-0.5 245.5,-19.5 375.5,-19.5 375.5,-0.5 245.5,-0.5"/>
<text text-anchor="middle" x="310.5" y="-7.5" font-family="Helvetica,sans-Serif" font-size="10.00">itkLBFGSOptimizerv4.h</text>
</a>
</g>
</g>
<!-- Node4&#45;&gt;Node6 -->
<g id="edge5" class="edge">
<title>Node4&#45;&gt;Node6</title>
<path fill="none" stroke="midnightblue" d="M255.08,-50.38C268.81,-40.62 286.43,-28.11 298.07,-19.83"/>
<polygon fill="midnightblue" stroke="midnightblue" points="252.84,-47.68 246.71,-56.32 256.89,-53.38 252.84,-47.68"/>
</g>
</g>
</svg>
