<?xml version="1.0" encoding="UTF-8" standalone="no"?>
<!DOCTYPE svg PUBLIC "-//W3C//DTD SVG 1.1//EN"
 "http://www.w3.org/Graphics/SVG/1.1/DTD/svg11.dtd">
<!-- Generated by graphviz version 2.43.0 (0)
 -->
<!-- Title: itkSparseImage.h Pages: 1 -->
<svg width="511pt" height="296pt"
 viewBox="0.00 0.00 510.50 296.00" xmlns="http://www.w3.org/2000/svg" xmlns:xlink="http://www.w3.org/1999/xlink">
<g id="graph0" class="graph" transform="scale(1 1) rotate(0) translate(4 292)">
<title>itkSparseImage.h</title>
<polygon fill="white" stroke="transparent" points="-4,4 -4,-292 506.5,-292 506.5,4 -4,4"/>
<!-- Node1 -->
<g id="node1" class="node">
<title>Node1</title>
<g id="a_node1"><a xlink:title=" ">
<polygon fill="#bfbfbf" stroke="black" points="187,-268.5 187,-287.5 289,-287.5 289,-268.5 187,-268.5"/>
<text text-anchor="middle" x="238" y="-275.5" font-family="Helvetica,sans-Serif" font-size="10.00">itkSparseImage.h</text>
</a>
</g>
</g>
<!-- Node2 -->
<g id="node2" class="node">
<title>Node2</title>
<g id="a_node2"><a xlink:href="itkFiniteDifferenceSparseImageFilter_8h.html" target="_top" xlink:title=" ">
<polygon fill="white" stroke="black" points="119,-201.5 119,-231.5 259,-231.5 259,-201.5 119,-201.5"/>
<text text-anchor="start" x="127" y="-219.5" font-family="Helvetica,sans-Serif" font-size="10.00">itkFiniteDifferenceSparse</text>
<text text-anchor="middle" x="189" y="-208.5" font-family="Helvetica,sans-Serif" font-size="10.00">ImageFilter.h</text>
</a>
</g>
</g>
<!-- Node1&#45;&gt;Node2 -->
<g id="edge1" class="edge">
<title>Node1&#45;&gt;Node2</title>
<path fill="none" stroke="midnightblue" d="M224.44,-260.53C216.93,-251.42 207.71,-240.21 200.55,-231.52"/>
<polygon fill="midnightblue" stroke="midnightblue" points="221.92,-262.98 230.98,-268.48 227.32,-258.53 221.92,-262.98"/>
</g>
<!-- Node8 -->
<g id="node8" class="node">
<title>Node8</title>
<g id="a_node8"><a xlink:href="itkLevelSetFunctionWithRefitTerm_8h.html" target="_top" xlink:title=" ">
<polygon fill="white" stroke="black" points="244,-134.5 244,-164.5 402,-164.5 402,-134.5 244,-134.5"/>
<text text-anchor="start" x="252" y="-152.5" font-family="Helvetica,sans-Serif" font-size="10.00">itkLevelSetFunctionWithRefit</text>
<text text-anchor="middle" x="323" y="-141.5" font-family="Helvetica,sans-Serif" font-size="10.00">Term.h</text>
</a>
</g>
</g>
<!-- Node1&#45;&gt;Node8 -->
<g id="edge7" class="edge">
<title>Node1&#45;&gt;Node8</title>
<path fill="none" stroke="midnightblue" d="M249.56,-259.8C266.45,-234.66 297.58,-188.33 313.33,-164.89"/>
<polygon fill="midnightblue" stroke="midnightblue" points="246.51,-258.05 243.84,-268.31 252.32,-261.96 246.51,-258.05"/>
</g>
<!-- Node3 -->
<g id="node3" class="node">
<title>Node3</title>
<g id="a_node3"><a xlink:href="itkImplicitManifoldNormalVectorFilter_8h.html" target="_top" xlink:title=" ">
<polygon fill="white" stroke="black" points="80.5,-134.5 80.5,-164.5 225.5,-164.5 225.5,-134.5 80.5,-134.5"/>
<text text-anchor="start" x="88.5" y="-152.5" font-family="Helvetica,sans-Serif" font-size="10.00">itkImplicitManifoldNormal</text>
<text text-anchor="middle" x="153" y="-141.5" font-family="Helvetica,sans-Serif" font-size="10.00">VectorFilter.h</text>
</a>
</g>
</g>
<!-- Node2&#45;&gt;Node3 -->
<g id="edge2" class="edge">
<title>Node2&#45;&gt;Node3</title>
<path fill="none" stroke="midnightblue" d="M176.3,-192.58C171.13,-183.24 165.32,-172.75 160.8,-164.58"/>
<polygon fill="midnightblue" stroke="midnightblue" points="173.28,-194.34 181.19,-201.4 179.41,-190.95 173.28,-194.34"/>
</g>
<!-- Node4 -->
<g id="node4" class="node">
<title>Node4</title>
<g id="a_node4"><a xlink:href="itkSparseFieldFourthOrderLevelSetImageFilter_8h.html" target="_top" xlink:title=" ">
<polygon fill="white" stroke="black" points="166.5,-67.5 166.5,-97.5 309.5,-97.5 309.5,-67.5 166.5,-67.5"/>
<text text-anchor="start" x="174.5" y="-85.5" font-family="Helvetica,sans-Serif" font-size="10.00">itkSparseFieldFourthOrder</text>
<text text-anchor="middle" x="238" y="-74.5" font-family="Helvetica,sans-Serif" font-size="10.00">LevelSetImageFilter.h</text>
</a>
</g>
</g>
<!-- Node3&#45;&gt;Node4 -->
<g id="edge3" class="edge">
<title>Node3&#45;&gt;Node4</title>
<path fill="none" stroke="midnightblue" d="M179.59,-128.17C192.59,-118.23 207.9,-106.51 219.59,-97.58"/>
<polygon fill="midnightblue" stroke="midnightblue" points="177.26,-125.54 171.44,-134.4 181.51,-131.1 177.26,-125.54"/>
</g>
<!-- Node5 -->
<g id="node5" class="node">
<title>Node5</title>
<g id="a_node5"><a xlink:href="itkAnisotropicFourthOrderLevelSetImageFilter_8h.html" target="_top" xlink:title=" ">
<polygon fill="white" stroke="black" points="0,-0.5 0,-30.5 142,-30.5 142,-0.5 0,-0.5"/>
<text text-anchor="start" x="8" y="-18.5" font-family="Helvetica,sans-Serif" font-size="10.00">itkAnisotropicFourthOrder</text>
<text text-anchor="middle" x="71" y="-7.5" font-family="Helvetica,sans-Serif" font-size="10.00">LevelSetImageFilter.h</text>
</a>
</g>
</g>
<!-- Node4&#45;&gt;Node5 -->
<g id="edge4" class="edge">
<title>Node4&#45;&gt;Node5</title>
<path fill="none" stroke="midnightblue" d="M192.22,-63.68C165.44,-53.26 132.1,-40.28 107.17,-30.58"/>
<polygon fill="midnightblue" stroke="midnightblue" points="191.17,-67.03 201.76,-67.4 193.71,-60.51 191.17,-67.03"/>
</g>
<!-- Node6 -->
<g id="node6" class="node">
<title>Node6</title>
<g id="a_node6"><a xlink:href="itkIsotropicFourthOrderLevelSetImageFilter_8h.html" target="_top" xlink:title=" ">
<polygon fill="white" stroke="black" points="160.5,-0.5 160.5,-30.5 315.5,-30.5 315.5,-0.5 160.5,-0.5"/>
<text text-anchor="start" x="168.5" y="-18.5" font-family="Helvetica,sans-Serif" font-size="10.00">itkIsotropicFourthOrderLevel</text>
<text text-anchor="middle" x="238" y="-7.5" font-family="Helvetica,sans-Serif" font-size="10.00">SetImageFilter.h</text>
</a>
</g>
</g>
<!-- Node4&#45;&gt;Node6 -->
<g id="edge5" class="edge">
<title>Node4&#45;&gt;Node6</title>
<path fill="none" stroke="midnightblue" d="M238,-57.11C238,-48.15 238,-38.32 238,-30.58"/>
<polygon fill="midnightblue" stroke="midnightblue" points="234.5,-57.4 238,-67.4 241.5,-57.4 234.5,-57.4"/>
</g>
<!-- Node7 -->
<g id="node7" class="node">
<title>Node7</title>
<g id="a_node7"><a xlink:href="itkUnsharpMaskLevelSetImageFilter_8h.html" target="_top" xlink:title=" ">
<polygon fill="white" stroke="black" points="333.5,-0.5 333.5,-30.5 502.5,-30.5 502.5,-0.5 333.5,-0.5"/>
<text text-anchor="start" x="341.5" y="-18.5" font-family="Helvetica,sans-Serif" font-size="10.00">itkUnsharpMaskLevelSetImage</text>
<text text-anchor="middle" x="418" y="-7.5" font-family="Helvetica,sans-Serif" font-size="10.00">Filter.h</text>
</a>
</g>
</g>
<!-- Node4&#45;&gt;Node7 -->
<g id="edge6" class="edge">
<title>Node4&#45;&gt;Node7</title>
<path fill="none" stroke="midnightblue" d="M286.59,-63.96C315.58,-53.48 351.91,-40.37 379.02,-30.58"/>
<polygon fill="midnightblue" stroke="midnightblue" points="285.27,-60.71 277.06,-67.4 287.65,-67.29 285.27,-60.71"/>
</g>
<!-- Node8&#45;&gt;Node4 -->
<g id="edge8" class="edge">
<title>Node8&#45;&gt;Node4</title>
<path fill="none" stroke="midnightblue" d="M296.41,-128.17C283.41,-118.23 268.1,-106.51 256.41,-97.58"/>
<polygon fill="midnightblue" stroke="midnightblue" points="294.49,-131.1 304.56,-134.4 298.74,-125.54 294.49,-131.1"/>
</g>
</g>
</svg>
