<?xml version="1.0" encoding="UTF-8" standalone="no"?>
<!DOCTYPE svg PUBLIC "-//W3C//DTD SVG 1.1//EN"
 "http://www.w3.org/Graphics/SVG/1.1/DTD/svg11.dtd">
<!-- Generated by graphviz version 2.43.0 (0)
 -->
<!-- Title: itkShapedImageNeighborhoodRange.h Pages: 1 -->
<svg width="1300pt" height="509pt"
 viewBox="0.00 0.00 1300.00 509.00" xmlns="http://www.w3.org/2000/svg" xmlns:xlink="http://www.w3.org/1999/xlink">
<g id="graph0" class="graph" transform="scale(1 1) rotate(0) translate(4 505)">
<title>itkShapedImageNeighborhoodRange.h</title>
<polygon fill="white" stroke="transparent" points="-4,4 -4,-505 1296,-505 1296,4 -4,4"/>
<!-- Node1 -->
<g id="node1" class="node">
<title>Node1</title>
<g id="a_node1"><a xlink:title=" ">
<polygon fill="#bfbfbf" stroke="black" points="948.5,-470.5 948.5,-500.5 1112.5,-500.5 1112.5,-470.5 948.5,-470.5"/>
<text text-anchor="start" x="956.5" y="-488.5" font-family="Helvetica,sans-Serif" font-size="10.00">itkShapedImageNeighborhood</text>
<text text-anchor="middle" x="1030.5" y="-477.5" font-family="Helvetica,sans-Serif" font-size="10.00">Range.h</text>
</a>
</g>
</g>
<!-- Node2 -->
<g id="node2" class="node">
<title>Node2</title>
<g id="a_node2"><a xlink:title=" ">
<polygon fill="white" stroke="#bfbfbf" points="923.5,-6 923.5,-25 987.5,-25 987.5,-6 923.5,-6"/>
<text text-anchor="middle" x="955.5" y="-13" font-family="Helvetica,sans-Serif" font-size="10.00">algorithm</text>
</a>
</g>
</g>
<!-- Node1&#45;&gt;Node2 -->
<g id="edge1" class="edge">
<title>Node1&#45;&gt;Node2</title>
<path fill="none" stroke="midnightblue" d="M1034.89,-470.47C1047.95,-426.5 1083.79,-287.89 1053.5,-179 1037.09,-120 992.84,-61.01 969.83,-33.12"/>
<polygon fill="midnightblue" stroke="midnightblue" points="972.29,-30.59 963.17,-25.19 966.93,-35.1 972.29,-30.59"/>
</g>
<!-- Node3 -->
<g id="node3" class="node">
<title>Node3</title>
<g id="a_node3"><a xlink:title=" ">
<polygon fill="white" stroke="#bfbfbf" points="1097.5,-409 1097.5,-428 1149.5,-428 1149.5,-409 1097.5,-409"/>
<text text-anchor="middle" x="1123.5" y="-416" font-family="Helvetica,sans-Serif" font-size="10.00">cassert</text>
</a>
</g>
</g>
<!-- Node1&#45;&gt;Node3 -->
<g id="edge2" class="edge">
<title>Node1&#45;&gt;Node3</title>
<path fill="none" stroke="midnightblue" d="M1050.68,-470.4C1066.13,-459.6 1087.36,-444.76 1102.92,-433.89"/>
<polygon fill="midnightblue" stroke="midnightblue" points="1105.14,-436.6 1111.33,-428.01 1101.13,-430.87 1105.14,-436.6"/>
</g>
<!-- Node4 -->
<g id="node4" class="node">
<title>Node4</title>
<g id="a_node4"><a xlink:title=" ">
<polygon fill="white" stroke="#bfbfbf" points="1168,-409 1168,-428 1221,-428 1221,-409 1168,-409"/>
<text text-anchor="middle" x="1194.5" y="-416" font-family="Helvetica,sans-Serif" font-size="10.00">cstddef</text>
</a>
</g>
</g>
<!-- Node1&#45;&gt;Node4 -->
<g id="edge3" class="edge">
<title>Node1&#45;&gt;Node4</title>
<path fill="none" stroke="midnightblue" d="M1066.39,-470.42C1092.06,-460.33 1127.43,-446.38 1158.5,-434 1160.14,-433.35 1161.81,-432.68 1163.5,-432"/>
<polygon fill="midnightblue" stroke="midnightblue" points="1165.21,-435.09 1173.19,-428.11 1162.61,-428.59 1165.21,-435.09"/>
</g>
<!-- Node5 -->
<g id="node5" class="node">
<title>Node5</title>
<g id="a_node5"><a xlink:title=" ">
<polygon fill="white" stroke="#bfbfbf" points="1239,-409 1239,-428 1292,-428 1292,-409 1239,-409"/>
<text text-anchor="middle" x="1265.5" y="-416" font-family="Helvetica,sans-Serif" font-size="10.00">iterator</text>
</a>
</g>
</g>
<!-- Node1&#45;&gt;Node5 -->
<g id="edge4" class="edge">
<title>Node1&#45;&gt;Node5</title>
<path fill="none" stroke="midnightblue" d="M1096.04,-470.49C1135.42,-461.44 1186.31,-448.65 1230.5,-434 1232.42,-433.36 1234.38,-432.67 1236.35,-431.94"/>
<polygon fill="midnightblue" stroke="midnightblue" points="1238.03,-435.05 1246.07,-428.14 1235.48,-428.53 1238.03,-435.05"/>
</g>
<!-- Node6 -->
<g id="node6" class="node">
<title>Node6</title>
<g id="a_node6"><a xlink:title=" ">
<polygon fill="white" stroke="#bfbfbf" points="656.5,-67.5 656.5,-86.5 700.5,-86.5 700.5,-67.5 656.5,-67.5"/>
<text text-anchor="middle" x="678.5" y="-74.5" font-family="Helvetica,sans-Serif" font-size="10.00">limits</text>
</a>
</g>
</g>
<!-- Node1&#45;&gt;Node6 -->
<g id="edge5" class="edge">
<title>Node1&#45;&gt;Node6</title>
<path fill="none" stroke="midnightblue" d="M948.4,-482.32C861.37,-478.29 731.57,-466.79 695.5,-434 669.74,-410.58 676.5,-392.82 676.5,-358 676.5,-358 676.5,-358 676.5,-188 676.5,-155.94 677.36,-118.64 677.95,-96.75"/>
<polygon fill="midnightblue" stroke="midnightblue" points="681.46,-96.65 678.24,-86.56 674.46,-96.45 681.46,-96.65"/>
</g>
<!-- Node7 -->
<g id="node7" class="node">
<title>Node7</title>
<g id="a_node7"><a xlink:title=" ">
<polygon fill="white" stroke="#bfbfbf" points="975,-179.5 975,-198.5 1044,-198.5 1044,-179.5 975,-179.5"/>
<text text-anchor="middle" x="1009.5" y="-186.5" font-family="Helvetica,sans-Serif" font-size="10.00">type_traits</text>
</a>
</g>
</g>
<!-- Node1&#45;&gt;Node7 -->
<g id="edge6" class="edge">
<title>Node1&#45;&gt;Node7</title>
<path fill="none" stroke="midnightblue" d="M1030.5,-470.46C1030.5,-447.12 1030.5,-398.85 1030.5,-358 1030.5,-358 1030.5,-358 1030.5,-300 1030.5,-267.38 1021.48,-230.28 1015.27,-208.57"/>
<polygon fill="midnightblue" stroke="midnightblue" points="1018.54,-207.32 1012.33,-198.73 1011.83,-209.32 1018.54,-207.32"/>
</g>
<!-- Node8 -->
<g id="node8" class="node">
<title>Node8</title>
<g id="a_node8"><a xlink:href="itkIndex_8h.html" target="_top" xlink:title=" ">
<polygon fill="white" stroke="black" points="937,-347.5 937,-366.5 1002,-366.5 1002,-347.5 937,-347.5"/>
<text text-anchor="middle" x="969.5" y="-354.5" font-family="Helvetica,sans-Serif" font-size="10.00">itkIndex.h</text>
</a>
</g>
</g>
<!-- Node1&#45;&gt;Node8 -->
<g id="edge7" class="edge">
<title>Node1&#45;&gt;Node8</title>
<path fill="none" stroke="midnightblue" d="M1023.74,-470.48C1012.62,-447.41 990.47,-401.48 978.19,-376.03"/>
<polygon fill="midnightblue" stroke="midnightblue" points="981.23,-374.28 973.74,-366.79 974.93,-377.32 981.23,-374.28"/>
</g>
<!-- Node11 -->
<g id="node11" class="node">
<title>Node11</title>
<g id="a_node11"><a xlink:href="itkSize_8h.html" target="_top" xlink:title=" ">
<polygon fill="white" stroke="black" points="822,-235.5 822,-254.5 881,-254.5 881,-235.5 822,-235.5"/>
<text text-anchor="middle" x="851.5" y="-242.5" font-family="Helvetica,sans-Serif" font-size="10.00">itkSize.h</text>
</a>
</g>
</g>
<!-- Node1&#45;&gt;Node11 -->
<g id="edge46" class="edge">
<title>Node1&#45;&gt;Node11</title>
<path fill="none" stroke="midnightblue" d="M1016.89,-470.25C996.62,-448.7 957.73,-406.19 928.5,-367 902.2,-331.74 875.53,-287.52 861.53,-263.5"/>
<polygon fill="midnightblue" stroke="midnightblue" points="864.53,-261.7 856.49,-254.8 858.47,-265.21 864.53,-261.7"/>
</g>
<!-- Node32 -->
<g id="node32" class="node">
<title>Node32</title>
<g id="a_node32"><a xlink:href="itkZeroFluxNeumannImageNeighborhoodPixelAccessPolicy_8h.html" target="_top" xlink:title=" ">
<polygon fill="white" stroke="black" points="705,-403.5 705,-433.5 924,-433.5 924,-403.5 705,-403.5"/>
<text text-anchor="start" x="713" y="-421.5" font-family="Helvetica,sans-Serif" font-size="10.00">itkZeroFluxNeumannImageNeighborhood</text>
<text text-anchor="middle" x="814.5" y="-410.5" font-family="Helvetica,sans-Serif" font-size="10.00">PixelAccessPolicy.h</text>
</a>
</g>
</g>
<!-- Node1&#45;&gt;Node32 -->
<g id="edge47" class="edge">
<title>Node1&#45;&gt;Node32</title>
<path fill="none" stroke="midnightblue" d="M983.9,-470.48C950.8,-460.51 906.17,-447.09 871.03,-436.51"/>
<polygon fill="midnightblue" stroke="midnightblue" points="871.98,-433.14 861.39,-433.61 869.96,-439.84 871.98,-433.14"/>
</g>
<!-- Node8&#45;&gt;Node7 -->
<g id="edge45" class="edge">
<title>Node8&#45;&gt;Node7</title>
<path fill="none" stroke="midnightblue" d="M971.65,-347.08C977.95,-320.95 996.44,-244.21 1005.02,-208.58"/>
<polygon fill="midnightblue" stroke="midnightblue" points="1008.5,-209.11 1007.44,-198.57 1001.69,-207.47 1008.5,-209.11"/>
</g>
<!-- Node9 -->
<g id="node9" class="node">
<title>Node9</title>
<g id="a_node9"><a xlink:href="itkMakeFilled_8h.html" target="_top" xlink:title=" ">
<polygon fill="white" stroke="black" points="814,-6 814,-25 905,-25 905,-6 814,-6"/>
<text text-anchor="middle" x="859.5" y="-13" font-family="Helvetica,sans-Serif" font-size="10.00">itkMakeFilled.h</text>
</a>
</g>
</g>
<!-- Node8&#45;&gt;Node9 -->
<g id="edge8" class="edge">
<title>Node8&#45;&gt;Node9</title>
<path fill="none" stroke="midnightblue" d="M966.67,-347.27C952.14,-302.42 885.82,-97.72 865.46,-34.89"/>
<polygon fill="midnightblue" stroke="midnightblue" points="868.72,-33.61 862.31,-25.18 862.06,-35.77 868.72,-33.61"/>
</g>
<!-- Node10 -->
<g id="node10" class="node">
<title>Node10</title>
<g id="a_node10"><a xlink:href="itkOffset_8h.html" target="_top" xlink:title=" ">
<polygon fill="white" stroke="black" points="761.5,-291.5 761.5,-310.5 829.5,-310.5 829.5,-291.5 761.5,-291.5"/>
<text text-anchor="middle" x="795.5" y="-298.5" font-family="Helvetica,sans-Serif" font-size="10.00">itkOffset.h</text>
</a>
</g>
</g>
<!-- Node8&#45;&gt;Node10 -->
<g id="edge9" class="edge">
<title>Node8&#45;&gt;Node10</title>
<path fill="none" stroke="midnightblue" d="M941.93,-347.44C912.4,-338.28 865.38,-323.69 832.62,-313.52"/>
<polygon fill="midnightblue" stroke="midnightblue" points="833.53,-310.14 822.94,-310.52 831.46,-316.82 833.53,-310.14"/>
</g>
<!-- Node10&#45;&gt;Node11 -->
<g id="edge10" class="edge">
<title>Node10&#45;&gt;Node11</title>
<path fill="none" stroke="midnightblue" d="M804.5,-291.32C812.69,-283.42 825.01,-271.55 834.97,-261.94"/>
<polygon fill="midnightblue" stroke="midnightblue" points="837.57,-264.29 842.34,-254.83 832.71,-259.26 837.57,-264.29"/>
</g>
<!-- Node17 -->
<g id="node17" class="node">
<title>Node17</title>
<g id="a_node17"><a xlink:href="itkMath_8h.html" target="_top" xlink:title=" ">
<polygon fill="white" stroke="black" points="290,-235.5 290,-254.5 353,-254.5 353,-235.5 290,-235.5"/>
<text text-anchor="middle" x="321.5" y="-242.5" font-family="Helvetica,sans-Serif" font-size="10.00">itkMath.h</text>
</a>
</g>
</g>
<!-- Node10&#45;&gt;Node17 -->
<g id="edge20" class="edge">
<title>Node10&#45;&gt;Node17</title>
<path fill="none" stroke="midnightblue" d="M761.41,-296.12C676.48,-286.44 455.67,-261.29 363.2,-250.75"/>
<polygon fill="midnightblue" stroke="midnightblue" points="363.42,-247.25 353.09,-249.6 362.63,-254.21 363.42,-247.25"/>
</g>
<!-- Node11&#45;&gt;Node2 -->
<g id="edge17" class="edge">
<title>Node11&#45;&gt;Node2</title>
<path fill="none" stroke="midnightblue" d="M860.39,-235.41C868.83,-226.85 881.41,-212.99 889.5,-199 921.62,-143.44 942.48,-69.53 951.05,-35.33"/>
<polygon fill="midnightblue" stroke="midnightblue" points="954.52,-35.88 953.49,-25.34 947.72,-34.23 954.52,-35.88"/>
</g>
<!-- Node11&#45;&gt;Node7 -->
<g id="edge18" class="edge">
<title>Node11&#45;&gt;Node7</title>
<path fill="none" stroke="midnightblue" d="M876.54,-235.44C903.12,-226.36 945.31,-211.94 975.02,-201.78"/>
<polygon fill="midnightblue" stroke="midnightblue" points="976.25,-205.06 984.58,-198.52 973.99,-198.44 976.25,-205.06"/>
</g>
<!-- Node11&#45;&gt;Node9 -->
<g id="edge16" class="edge">
<title>Node11&#45;&gt;Node9</title>
<path fill="none" stroke="midnightblue" d="M840.79,-235.3C831.56,-227.07 818.91,-213.79 813.5,-199 810.45,-190.65 812.02,-187.76 813.5,-179 820.71,-136.31 834.15,-128.78 845.5,-87 850.2,-69.71 854.03,-49.63 856.49,-35.33"/>
<polygon fill="midnightblue" stroke="midnightblue" points="859.98,-35.71 858.16,-25.27 853.07,-34.57 859.98,-35.71"/>
</g>
<!-- Node12 -->
<g id="node12" class="node">
<title>Node12</title>
<g id="a_node12"><a xlink:href="itkIntTypes_8h.html" target="_top" xlink:title=" ">
<polygon fill="white" stroke="black" points="705,-123.5 705,-142.5 784,-142.5 784,-123.5 705,-123.5"/>
<text text-anchor="middle" x="744.5" y="-130.5" font-family="Helvetica,sans-Serif" font-size="10.00">itkIntTypes.h</text>
</a>
</g>
</g>
<!-- Node11&#45;&gt;Node12 -->
<g id="edge11" class="edge">
<title>Node11&#45;&gt;Node12</title>
<path fill="none" stroke="midnightblue" d="M832.78,-235.44C817.31,-227.64 795.51,-214.93 780.5,-199 767.67,-185.39 757.82,-166.34 751.7,-152.38"/>
<polygon fill="midnightblue" stroke="midnightblue" points="754.82,-150.76 747.75,-142.87 748.35,-153.45 754.82,-150.76"/>
</g>
<!-- Node13 -->
<g id="node13" class="node">
<title>Node13</title>
<g id="a_node13"><a xlink:href="itkMacro_8h.html" target="_top" xlink:title=" ">
<polygon fill="white" stroke="black" points="313.5,-6 313.5,-25 381.5,-25 381.5,-6 313.5,-6"/>
<text text-anchor="middle" x="347.5" y="-13" font-family="Helvetica,sans-Serif" font-size="10.00">itkMacro.h</text>
</a>
</g>
</g>
<!-- Node11&#45;&gt;Node13 -->
<g id="edge15" class="edge">
<title>Node11&#45;&gt;Node13</title>
<path fill="none" stroke="midnightblue" d="M821.98,-242.01C750.38,-236.87 569.28,-221.93 513.5,-199 437.21,-167.63 411.15,-155.71 365.5,-87 355.14,-71.41 350.74,-50.24 348.87,-35.17"/>
<polygon fill="midnightblue" stroke="midnightblue" points="352.34,-34.65 347.88,-25.04 345.37,-35.33 352.34,-34.65"/>
</g>
<!-- Node16 -->
<g id="node16" class="node">
<title>Node16</title>
<g id="a_node16"><a xlink:title=" ">
<polygon fill="white" stroke="#bfbfbf" points="822.5,-179.5 822.5,-198.5 880.5,-198.5 880.5,-179.5 822.5,-179.5"/>
<text text-anchor="middle" x="851.5" y="-186.5" font-family="Helvetica,sans-Serif" font-size="10.00">memory</text>
</a>
</g>
</g>
<!-- Node11&#45;&gt;Node16 -->
<g id="edge19" class="edge">
<title>Node11&#45;&gt;Node16</title>
<path fill="none" stroke="midnightblue" d="M851.5,-235.08C851.5,-228.01 851.5,-217.86 851.5,-208.99"/>
<polygon fill="midnightblue" stroke="midnightblue" points="855,-208.75 851.5,-198.75 848,-208.75 855,-208.75"/>
</g>
<!-- Node12&#45;&gt;Node13 -->
<g id="edge12" class="edge">
<title>Node12&#45;&gt;Node13</title>
<path fill="none" stroke="midnightblue" d="M704.89,-128.24C656.04,-122.8 570.94,-110.67 501.5,-87 483.06,-80.72 480.09,-75.36 462.5,-67 433.9,-53.4 400.73,-38.98 377.39,-29.04"/>
<polygon fill="midnightblue" stroke="midnightblue" points="378.6,-25.75 368.03,-25.07 375.87,-32.2 378.6,-25.75"/>
</g>
<!-- Node14 -->
<g id="node14" class="node">
<title>Node14</title>
<g id="a_node14"><a xlink:title=" ">
<polygon fill="white" stroke="#bfbfbf" points="786.5,-67.5 786.5,-86.5 836.5,-86.5 836.5,-67.5 786.5,-67.5"/>
<text text-anchor="middle" x="811.5" y="-74.5" font-family="Helvetica,sans-Serif" font-size="10.00">cstdint</text>
</a>
</g>
</g>
<!-- Node12&#45;&gt;Node14 -->
<g id="edge13" class="edge">
<title>Node12&#45;&gt;Node14</title>
<path fill="none" stroke="midnightblue" d="M755.26,-123.32C765.27,-115.26 780.39,-103.08 792.43,-93.37"/>
<polygon fill="midnightblue" stroke="midnightblue" points="794.95,-95.83 800.54,-86.83 790.56,-90.38 794.95,-95.83"/>
</g>
<!-- Node15 -->
<g id="node15" class="node">
<title>Node15</title>
<g id="a_node15"><a xlink:title=" ">
<polygon fill="white" stroke="#bfbfbf" points="718.5,-67.5 718.5,-86.5 768.5,-86.5 768.5,-67.5 718.5,-67.5"/>
<text text-anchor="middle" x="743.5" y="-74.5" font-family="Helvetica,sans-Serif" font-size="10.00">climits</text>
</a>
</g>
</g>
<!-- Node12&#45;&gt;Node15 -->
<g id="edge14" class="edge">
<title>Node12&#45;&gt;Node15</title>
<path fill="none" stroke="midnightblue" d="M744.33,-123.08C744.2,-116.01 744.02,-105.86 743.85,-96.99"/>
<polygon fill="midnightblue" stroke="midnightblue" points="747.35,-96.68 743.66,-86.75 740.35,-96.81 747.35,-96.68"/>
</g>
<!-- Node18 -->
<g id="node18" class="node">
<title>Node18</title>
<g id="a_node18"><a xlink:title=" ">
<polygon fill="white" stroke="#bfbfbf" points="349,-179.5 349,-198.5 396,-198.5 396,-179.5 349,-179.5"/>
<text text-anchor="middle" x="372.5" y="-186.5" font-family="Helvetica,sans-Serif" font-size="10.00">cmath</text>
</a>
</g>
</g>
<!-- Node17&#45;&gt;Node18 -->
<g id="edge21" class="edge">
<title>Node17&#45;&gt;Node18</title>
<path fill="none" stroke="midnightblue" d="M329.92,-235.08C337.35,-227.22 348.35,-215.57 357.31,-206.08"/>
<polygon fill="midnightblue" stroke="midnightblue" points="359.91,-208.42 364.24,-198.75 354.82,-203.62 359.91,-208.42"/>
</g>
<!-- Node19 -->
<g id="node19" class="node">
<title>Node19</title>
<g id="a_node19"><a xlink:href="itkMathDetail_8h.html" target="_top" xlink:title=" ">
<polygon fill="white" stroke="black" points="522.5,-179.5 522.5,-198.5 614.5,-198.5 614.5,-179.5 522.5,-179.5"/>
<text text-anchor="middle" x="568.5" y="-186.5" font-family="Helvetica,sans-Serif" font-size="10.00">itkMathDetail.h</text>
</a>
</g>
</g>
<!-- Node17&#45;&gt;Node19 -->
<g id="edge22" class="edge">
<title>Node17&#45;&gt;Node19</title>
<path fill="none" stroke="midnightblue" d="M353.03,-237.11C395.13,-227.9 470.12,-211.51 519.59,-200.69"/>
<polygon fill="midnightblue" stroke="midnightblue" points="520.41,-204.1 529.43,-198.54 518.91,-197.26 520.41,-204.1"/>
</g>
<!-- Node27 -->
<g id="node27" class="node">
<title>Node27</title>
<g id="a_node27"><a xlink:href="itkConceptChecking_8h.html" target="_top" xlink:title=" ">
<polygon fill="white" stroke="black" points="208,-179.5 208,-198.5 331,-198.5 331,-179.5 208,-179.5"/>
<text text-anchor="middle" x="269.5" y="-186.5" font-family="Helvetica,sans-Serif" font-size="10.00">itkConceptChecking.h</text>
</a>
</g>
</g>
<!-- Node17&#45;&gt;Node27 -->
<g id="edge38" class="edge">
<title>Node17&#45;&gt;Node27</title>
<path fill="none" stroke="midnightblue" d="M312.91,-235.08C305.34,-227.22 294.12,-215.57 284.99,-206.08"/>
<polygon fill="midnightblue" stroke="midnightblue" points="287.38,-203.53 277.93,-198.75 282.34,-208.38 287.38,-203.53"/>
</g>
<!-- Node30 -->
<g id="node30" class="node">
<title>Node30</title>
<g id="a_node30"><a xlink:title=" ">
<polygon fill="white" stroke="#bfbfbf" points="0,-179.5 0,-198.5 89,-198.5 89,-179.5 0,-179.5"/>
<text text-anchor="middle" x="44.5" y="-186.5" font-family="Helvetica,sans-Serif" font-size="10.00">vnl/vnl_math.h</text>
</a>
</g>
</g>
<!-- Node17&#45;&gt;Node30 -->
<g id="edge43" class="edge">
<title>Node17&#45;&gt;Node30</title>
<path fill="none" stroke="midnightblue" d="M289.99,-237.86C243.31,-228.76 155.15,-211.57 98.17,-200.46"/>
<polygon fill="midnightblue" stroke="midnightblue" points="98.74,-197.01 88.25,-198.53 97.4,-203.88 98.74,-197.01"/>
</g>
<!-- Node31 -->
<g id="node31" class="node">
<title>Node31</title>
<g id="a_node31"><a xlink:title=" ">
<polygon fill="white" stroke="#bfbfbf" points="107.5,-179.5 107.5,-198.5 189.5,-198.5 189.5,-179.5 107.5,-179.5"/>
<text text-anchor="middle" x="148.5" y="-186.5" font-family="Helvetica,sans-Serif" font-size="10.00">vxl_version.h</text>
</a>
</g>
</g>
<!-- Node17&#45;&gt;Node31 -->
<g id="edge44" class="edge">
<title>Node17&#45;&gt;Node31</title>
<path fill="none" stroke="midnightblue" d="M294.09,-235.44C264.73,-226.28 217.98,-211.69 185.4,-201.52"/>
<polygon fill="midnightblue" stroke="midnightblue" points="186.37,-198.16 175.78,-198.52 184.29,-204.84 186.37,-198.16"/>
</g>
<!-- Node19&#45;&gt;Node12 -->
<g id="edge23" class="edge">
<title>Node19&#45;&gt;Node12</title>
<path fill="none" stroke="midnightblue" d="M596.39,-179.44C626.25,-170.28 673.81,-155.69 706.96,-145.52"/>
<polygon fill="midnightblue" stroke="midnightblue" points="708.21,-148.8 716.74,-142.52 706.16,-142.1 708.21,-148.8"/>
</g>
<!-- Node20 -->
<g id="node20" class="node">
<title>Node20</title>
<g id="a_node20"><a xlink:href="itkNumericTraits_8h.html" target="_top" xlink:title=" ">
<polygon fill="white" stroke="black" points="477.5,-123.5 477.5,-142.5 583.5,-142.5 583.5,-123.5 477.5,-123.5"/>
<text text-anchor="middle" x="530.5" y="-130.5" font-family="Helvetica,sans-Serif" font-size="10.00">itkNumericTraits.h</text>
</a>
</g>
</g>
<!-- Node19&#45;&gt;Node20 -->
<g id="edge24" class="edge">
<title>Node19&#45;&gt;Node20</title>
<path fill="none" stroke="midnightblue" d="M562.23,-179.08C556.86,-171.46 548.98,-160.26 542.42,-150.94"/>
<polygon fill="midnightblue" stroke="midnightblue" points="545.28,-148.91 536.66,-142.75 539.55,-152.94 545.28,-148.91"/>
</g>
<!-- Node26 -->
<g id="node26" class="node">
<title>Node26</title>
<g id="a_node26"><a xlink:title=" ">
<polygon fill="white" stroke="#bfbfbf" points="601.5,-123.5 601.5,-142.5 645.5,-142.5 645.5,-123.5 601.5,-123.5"/>
<text text-anchor="middle" x="623.5" y="-130.5" font-family="Helvetica,sans-Serif" font-size="10.00">cfenv</text>
</a>
</g>
</g>
<!-- Node19&#45;&gt;Node26 -->
<g id="edge37" class="edge">
<title>Node19&#45;&gt;Node26</title>
<path fill="none" stroke="midnightblue" d="M577.58,-179.08C585.67,-171.14 597.7,-159.34 607.41,-149.8"/>
<polygon fill="midnightblue" stroke="midnightblue" points="609.9,-152.25 614.59,-142.75 605,-147.26 609.9,-152.25"/>
</g>
<!-- Node20&#45;&gt;Node6 -->
<g id="edge26" class="edge">
<title>Node20&#45;&gt;Node6</title>
<path fill="none" stroke="midnightblue" d="M553.95,-123.44C578.92,-114.33 618.61,-99.85 646.45,-89.69"/>
<polygon fill="midnightblue" stroke="midnightblue" points="647.93,-92.88 656.13,-86.16 645.53,-86.3 647.93,-92.88"/>
</g>
<!-- Node20&#45;&gt;Node13 -->
<g id="edge25" class="edge">
<title>Node20&#45;&gt;Node13</title>
<path fill="none" stroke="midnightblue" d="M477.19,-125.51C447.52,-119.6 411.45,-108.36 385.5,-87 369.1,-73.5 358.74,-51.01 353.06,-35.07"/>
<polygon fill="midnightblue" stroke="midnightblue" points="356.28,-33.68 349.85,-25.26 349.63,-35.86 356.28,-33.68"/>
</g>
<!-- Node21 -->
<g id="node21" class="node">
<title>Node21</title>
<g id="a_node21"><a xlink:title=" ">
<polygon fill="white" stroke="#bfbfbf" points="395,-67.5 395,-86.5 454,-86.5 454,-67.5 395,-67.5"/>
<text text-anchor="middle" x="424.5" y="-74.5" font-family="Helvetica,sans-Serif" font-size="10.00">complex</text>
</a>
</g>
</g>
<!-- Node20&#45;&gt;Node21 -->
<g id="edge27" class="edge">
<title>Node20&#45;&gt;Node21</title>
<path fill="none" stroke="midnightblue" d="M513.47,-123.32C496.47,-114.66 470.12,-101.24 450.51,-91.25"/>
<polygon fill="midnightblue" stroke="midnightblue" points="451.99,-88.08 441.49,-86.65 448.81,-94.31 451.99,-88.08"/>
</g>
<!-- Node22 -->
<g id="node22" class="node">
<title>Node22</title>
<g id="a_node22"><a xlink:href="itkFixedArray_8h.html" target="_top" xlink:title=" ">
<polygon fill="white" stroke="black" points="511,-67.5 511,-86.5 600,-86.5 600,-67.5 511,-67.5"/>
<text text-anchor="middle" x="555.5" y="-74.5" font-family="Helvetica,sans-Serif" font-size="10.00">itkFixedArray.h</text>
</a>
</g>
</g>
<!-- Node20&#45;&gt;Node22 -->
<g id="edge28" class="edge">
<title>Node20&#45;&gt;Node22</title>
<path fill="none" stroke="midnightblue" d="M534.63,-123.08C538.01,-115.77 542.92,-105.18 547.12,-96.1"/>
<polygon fill="midnightblue" stroke="midnightblue" points="550.42,-97.3 551.45,-86.75 544.07,-94.36 550.42,-97.3"/>
</g>
<!-- Node22&#45;&gt;Node2 -->
<g id="edge31" class="edge">
<title>Node22&#45;&gt;Node2</title>
<path fill="none" stroke="midnightblue" d="M600.27,-71.6C682.77,-63.3 855.74,-44.9 914.5,-31 917.73,-30.24 921.07,-29.3 924.37,-28.29"/>
<polygon fill="midnightblue" stroke="midnightblue" points="925.68,-31.54 934.06,-25.06 923.46,-24.9 925.68,-31.54"/>
</g>
<!-- Node22&#45;&gt;Node9 -->
<g id="edge30" class="edge">
<title>Node22&#45;&gt;Node9</title>
<path fill="none" stroke="midnightblue" d="M599.06,-67.48C653.69,-56.78 747.31,-38.46 806.17,-26.94"/>
<polygon fill="midnightblue" stroke="midnightblue" points="806.88,-30.36 816.03,-25.01 805.54,-23.5 806.88,-30.36"/>
</g>
<!-- Node22&#45;&gt;Node13 -->
<g id="edge29" class="edge">
<title>Node22&#45;&gt;Node13</title>
<path fill="none" stroke="midnightblue" d="M521.84,-67.44C488.37,-58.79 435.66,-44.76 390.5,-31 387.58,-30.11 384.56,-29.16 381.53,-28.18"/>
<polygon fill="midnightblue" stroke="midnightblue" points="382.57,-24.84 371.98,-25.03 380.38,-31.49 382.57,-24.84"/>
</g>
<!-- Node23 -->
<g id="node23" class="node">
<title>Node23</title>
<g id="a_node23"><a xlink:title=" ">
<polygon fill="white" stroke="#bfbfbf" points="399.5,-6 399.5,-25 441.5,-25 441.5,-6 399.5,-6"/>
<text text-anchor="middle" x="420.5" y="-13" font-family="Helvetica,sans-Serif" font-size="10.00">array</text>
</a>
</g>
</g>
<!-- Node22&#45;&gt;Node23 -->
<g id="edge32" class="edge">
<title>Node22&#45;&gt;Node23</title>
<path fill="none" stroke="midnightblue" d="M534.86,-67.48C513.6,-58.63 479.56,-44.24 450.5,-31 449.35,-30.47 448.17,-29.93 446.98,-29.38"/>
<polygon fill="midnightblue" stroke="midnightblue" points="448.42,-26.19 437.89,-25.07 445.42,-32.51 448.42,-26.19"/>
</g>
<!-- Node24 -->
<g id="node24" class="node">
<title>Node24</title>
<g id="a_node24"><a xlink:title=" ">
<polygon fill="white" stroke="#bfbfbf" points="460,-6 460,-25 561,-25 561,-6 460,-6"/>
<text text-anchor="middle" x="510.5" y="-13" font-family="Helvetica,sans-Serif" font-size="10.00">itkFixedArray.hxx</text>
</a>
</g>
</g>
<!-- Node22&#45;&gt;Node24 -->
<g id="edge33" class="edge">
<title>Node22&#45;&gt;Node24</title>
<path fill="none" stroke="midnightblue" d="M549.05,-67.48C542.3,-58.55 531.53,-44.31 523.09,-33.14"/>
<polygon fill="midnightblue" stroke="midnightblue" points="525.76,-30.87 516.94,-25.01 520.18,-35.1 525.76,-30.87"/>
</g>
<!-- Node25 -->
<g id="node25" class="node">
<title>Node25</title>
<g id="a_node25"><a xlink:href="itkNumericTraitsFixedArrayPixel_8h.html" target="_top" xlink:title=" ">
<polygon fill="white" stroke="black" points="579,-0.5 579,-30.5 728,-30.5 728,-0.5 579,-0.5"/>
<text text-anchor="start" x="587" y="-18.5" font-family="Helvetica,sans-Serif" font-size="10.00">itkNumericTraitsFixedArray</text>
<text text-anchor="middle" x="653.5" y="-7.5" font-family="Helvetica,sans-Serif" font-size="10.00">Pixel.h</text>
</a>
</g>
</g>
<!-- Node22&#45;&gt;Node25 -->
<g id="edge34" class="edge">
<title>Node22&#45;&gt;Node25</title>
<path fill="none" stroke="midnightblue" d="M564.64,-67.48C576.48,-59.19 597.19,-46.32 615.71,-35.59"/>
<polygon fill="midnightblue" stroke="midnightblue" points="617.63,-38.52 624.57,-30.52 614.15,-32.45 617.63,-38.52"/>
</g>
<!-- Node25&#45;&gt;Node20 -->
<g id="edge35" class="edge">
<title>Node25&#45;&gt;Node20</title>
<path fill="none" stroke="midnightblue" d="M647.05,-30.62C639.51,-45.94 625.82,-70.44 608.5,-87 594.56,-100.33 575.93,-111.27 560.38,-119.02"/>
<polygon fill="midnightblue" stroke="midnightblue" points="558.68,-115.95 551.16,-123.42 561.7,-122.27 558.68,-115.95"/>
</g>
<!-- Node25&#45;&gt;Node22 -->
<g id="edge36" class="edge">
<title>Node25&#45;&gt;Node22</title>
<path fill="none" stroke="midnightblue" d="M636.23,-30.52C621.55,-40.2 600.45,-52.99 583.42,-62.54"/>
<polygon fill="midnightblue" stroke="midnightblue" points="581.52,-59.59 574.44,-67.48 584.89,-65.73 581.52,-59.59"/>
</g>
<!-- Node27&#45;&gt;Node20 -->
<g id="edge41" class="edge">
<title>Node27&#45;&gt;Node20</title>
<path fill="none" stroke="midnightblue" d="M310.86,-179.44C356.58,-169.98 430.26,-154.74 479.52,-144.55"/>
<polygon fill="midnightblue" stroke="midnightblue" points="480.25,-147.97 489.34,-142.52 478.84,-141.12 480.25,-147.97"/>
</g>
<!-- Node28 -->
<g id="node28" class="node">
<title>Node28</title>
<g id="a_node28"><a xlink:href="itkPixelTraits_8h.html" target="_top" xlink:title=" ">
<polygon fill="white" stroke="black" points="246.5,-123.5 246.5,-142.5 334.5,-142.5 334.5,-123.5 246.5,-123.5"/>
<text text-anchor="middle" x="290.5" y="-130.5" font-family="Helvetica,sans-Serif" font-size="10.00">itkPixelTraits.h</text>
</a>
</g>
</g>
<!-- Node27&#45;&gt;Node28 -->
<g id="edge39" class="edge">
<title>Node27&#45;&gt;Node28</title>
<path fill="none" stroke="midnightblue" d="M272.97,-179.08C275.81,-171.77 279.93,-161.18 283.46,-152.1"/>
<polygon fill="midnightblue" stroke="midnightblue" points="286.73,-153.34 287.1,-142.75 280.21,-150.8 286.73,-153.34"/>
</g>
<!-- Node29 -->
<g id="node29" class="node">
<title>Node29</title>
<g id="a_node29"><a xlink:title=" ">
<polygon fill="white" stroke="#bfbfbf" points="168.5,-123.5 168.5,-142.5 228.5,-142.5 228.5,-123.5 168.5,-123.5"/>
<text text-anchor="middle" x="198.5" y="-130.5" font-family="Helvetica,sans-Serif" font-size="10.00">iostream</text>
</a>
</g>
</g>
<!-- Node27&#45;&gt;Node29 -->
<g id="edge42" class="edge">
<title>Node27&#45;&gt;Node29</title>
<path fill="none" stroke="midnightblue" d="M258.09,-179.32C247.39,-171.18 231.16,-158.84 218.34,-149.09"/>
<polygon fill="midnightblue" stroke="midnightblue" points="220.19,-146.1 210.11,-142.83 215.96,-151.67 220.19,-146.1"/>
</g>
<!-- Node28&#45;&gt;Node13 -->
<g id="edge40" class="edge">
<title>Node28&#45;&gt;Node13</title>
<path fill="none" stroke="midnightblue" d="M293.02,-123.33C296.86,-110.62 304.77,-86.34 314.5,-67 320.42,-55.23 328.49,-42.83 335.17,-33.27"/>
<polygon fill="midnightblue" stroke="midnightblue" points="338.06,-35.25 341.03,-25.08 332.36,-31.17 338.06,-35.25"/>
</g>
<!-- Node32&#45;&gt;Node8 -->
<g id="edge48" class="edge">
<title>Node32&#45;&gt;Node8</title>
<path fill="none" stroke="midnightblue" d="M851.23,-403.4C877.47,-393.33 912.43,-379.91 937.52,-370.28"/>
<polygon fill="midnightblue" stroke="midnightblue" points="938.86,-373.51 946.95,-366.66 936.36,-366.97 938.86,-373.51"/>
</g>
<!-- Node32&#45;&gt;Node10 -->
<g id="edge49" class="edge">
<title>Node32&#45;&gt;Node10</title>
<path fill="none" stroke="midnightblue" d="M812.17,-403.34C808.75,-382.53 802.35,-343.66 798.56,-320.58"/>
<polygon fill="midnightblue" stroke="midnightblue" points="802,-319.97 796.93,-310.67 795.1,-321.1 802,-319.97"/>
</g>
<!-- Node32&#45;&gt;Node11 -->
<g id="edge50" class="edge">
<title>Node32&#45;&gt;Node11</title>
<path fill="none" stroke="midnightblue" d="M817.79,-403.4C822.52,-383.03 831.44,-344.18 838.5,-311 841.8,-295.5 845.31,-277.88 847.85,-264.89"/>
<polygon fill="midnightblue" stroke="midnightblue" points="851.33,-265.33 849.8,-254.85 844.46,-263.99 851.33,-265.33"/>
</g>
</g>
</svg>
