<?xml version="1.0" encoding="UTF-8" standalone="no"?>
<!DOCTYPE svg PUBLIC "-//W3C//DTD SVG 1.1//EN"
 "http://www.w3.org/Graphics/SVG/1.1/DTD/svg11.dtd">
<!-- Generated by graphviz version 2.43.0 (0)
 -->
<!-- Title: itkShapeOpeningLabelMapFilter.h Pages: 1 -->
<svg width="505pt" height="162pt"
 viewBox="0.00 0.00 504.50 162.00" xmlns="http://www.w3.org/2000/svg" xmlns:xlink="http://www.w3.org/1999/xlink">
<g id="graph0" class="graph" transform="scale(1 1) rotate(0) translate(4 158)">
<title>itkShapeOpeningLabelMapFilter.h</title>
<polygon fill="white" stroke="transparent" points="-4,4 -4,-158 500.5,-158 500.5,4 -4,4"/>
<!-- Node1 -->
<g id="node1" class="node">
<title>Node1</title>
<g id="a_node1"><a xlink:title=" ">
<polygon fill="#bfbfbf" stroke="black" points="161,-134.5 161,-153.5 341,-153.5 341,-134.5 161,-134.5"/>
<text text-anchor="middle" x="251" y="-141.5" font-family="Helvetica,sans-Serif" font-size="10.00">itkShapeOpeningLabelMapFilter.h</text>
</a>
</g>
</g>
<!-- Node2 -->
<g id="node2" class="node">
<title>Node2</title>
<g id="a_node2"><a xlink:href="itkBinaryShapeOpeningImageFilter_8h.html" target="_top" xlink:title=" ">
<polygon fill="white" stroke="black" points="0,-67.5 0,-97.5 162,-97.5 162,-67.5 0,-67.5"/>
<text text-anchor="start" x="8" y="-85.5" font-family="Helvetica,sans-Serif" font-size="10.00">itkBinaryShapeOpeningImage</text>
<text text-anchor="middle" x="81" y="-74.5" font-family="Helvetica,sans-Serif" font-size="10.00">Filter.h</text>
</a>
</g>
</g>
<!-- Node1&#45;&gt;Node2 -->
<g id="edge1" class="edge">
<title>Node1&#45;&gt;Node2</title>
<path fill="none" stroke="midnightblue" d="M217.01,-131.1C189.35,-121.42 150.25,-107.74 121.07,-97.52"/>
<polygon fill="midnightblue" stroke="midnightblue" points="216.05,-134.48 226.64,-134.48 218.36,-127.87 216.05,-134.48"/>
</g>
<!-- Node3 -->
<g id="node3" class="node">
<title>Node3</title>
<g id="a_node3"><a xlink:href="itkStatisticsOpeningLabelMapFilter_8h.html" target="_top" xlink:title=" ">
<polygon fill="white" stroke="black" points="180.5,-67.5 180.5,-97.5 321.5,-97.5 321.5,-67.5 180.5,-67.5"/>
<text text-anchor="start" x="188.5" y="-85.5" font-family="Helvetica,sans-Serif" font-size="10.00">itkStatisticsOpeningLabel</text>
<text text-anchor="middle" x="251" y="-74.5" font-family="Helvetica,sans-Serif" font-size="10.00">MapFilter.h</text>
</a>
</g>
</g>
<!-- Node1&#45;&gt;Node3 -->
<g id="edge2" class="edge">
<title>Node1&#45;&gt;Node3</title>
<path fill="none" stroke="midnightblue" d="M251,-124.23C251,-115.59 251,-105.5 251,-97.52"/>
<polygon fill="midnightblue" stroke="midnightblue" points="247.5,-124.48 251,-134.48 254.5,-124.48 247.5,-124.48"/>
</g>
<!-- Node6 -->
<g id="node6" class="node">
<title>Node6</title>
<g id="a_node6"><a xlink:href="itkLabelShapeOpeningImageFilter_8h.html" target="_top" xlink:title=" ">
<polygon fill="white" stroke="black" points="339.5,-67.5 339.5,-97.5 496.5,-97.5 496.5,-67.5 339.5,-67.5"/>
<text text-anchor="start" x="347.5" y="-85.5" font-family="Helvetica,sans-Serif" font-size="10.00">itkLabelShapeOpeningImage</text>
<text text-anchor="middle" x="418" y="-74.5" font-family="Helvetica,sans-Serif" font-size="10.00">Filter.h</text>
</a>
</g>
</g>
<!-- Node1&#45;&gt;Node6 -->
<g id="edge5" class="edge">
<title>Node1&#45;&gt;Node6</title>
<path fill="none" stroke="midnightblue" d="M284.39,-131.1C311.56,-121.42 349.97,-107.74 378.64,-97.52"/>
<polygon fill="midnightblue" stroke="midnightblue" points="283.17,-127.82 274.93,-134.48 285.52,-134.42 283.17,-127.82"/>
</g>
<!-- Node4 -->
<g id="node4" class="node">
<title>Node4</title>
<g id="a_node4"><a xlink:href="itkBinaryStatisticsOpeningImageFilter_8h.html" target="_top" xlink:title=" ">
<polygon fill="white" stroke="black" points="97,-0.5 97,-30.5 243,-30.5 243,-0.5 97,-0.5"/>
<text text-anchor="start" x="105" y="-18.5" font-family="Helvetica,sans-Serif" font-size="10.00">itkBinaryStatisticsOpening</text>
<text text-anchor="middle" x="170" y="-7.5" font-family="Helvetica,sans-Serif" font-size="10.00">ImageFilter.h</text>
</a>
</g>
</g>
<!-- Node3&#45;&gt;Node4 -->
<g id="edge3" class="edge">
<title>Node3&#45;&gt;Node4</title>
<path fill="none" stroke="midnightblue" d="M225.31,-60.88C213,-51.01 198.57,-39.43 187.54,-30.58"/>
<polygon fill="midnightblue" stroke="midnightblue" points="223.43,-63.87 233.42,-67.4 227.82,-58.41 223.43,-63.87"/>
</g>
<!-- Node5 -->
<g id="node5" class="node">
<title>Node5</title>
<g id="a_node5"><a xlink:href="itkLabelStatisticsOpeningImageFilter_8h.html" target="_top" xlink:title=" ">
<polygon fill="white" stroke="black" points="261.5,-0.5 261.5,-30.5 402.5,-30.5 402.5,-0.5 261.5,-0.5"/>
<text text-anchor="start" x="269.5" y="-18.5" font-family="Helvetica,sans-Serif" font-size="10.00">itkLabelStatisticsOpening</text>
<text text-anchor="middle" x="332" y="-7.5" font-family="Helvetica,sans-Serif" font-size="10.00">ImageFilter.h</text>
</a>
</g>
</g>
<!-- Node3&#45;&gt;Node5 -->
<g id="edge4" class="edge">
<title>Node3&#45;&gt;Node5</title>
<path fill="none" stroke="midnightblue" d="M276.69,-60.88C289,-51.01 303.43,-39.43 314.46,-30.58"/>
<polygon fill="midnightblue" stroke="midnightblue" points="274.18,-58.41 268.58,-67.4 278.57,-63.87 274.18,-58.41"/>
</g>
</g>
</svg>
