<?xml version="1.0" encoding="UTF-8" standalone="no"?>
<!DOCTYPE svg PUBLIC "-//W3C//DTD SVG 1.1//EN"
 "http://www.w3.org/Graphics/SVG/1.1/DTD/svg11.dtd">
<!-- Generated by graphviz version 2.43.0 (0)
 -->
<!-- Title: itkSmapsFileParser.h Pages: 1 -->
<svg width="941pt" height="140pt"
 viewBox="0.00 0.00 941.00 140.00" xmlns="http://www.w3.org/2000/svg" xmlns:xlink="http://www.w3.org/1999/xlink">
<g id="graph0" class="graph" transform="scale(1 1) rotate(0) translate(4 136)">
<title>itkSmapsFileParser.h</title>
<polygon fill="white" stroke="transparent" points="-4,4 -4,-136 937,-136 937,4 -4,4"/>
<!-- Node1 -->
<g id="node1" class="node">
<title>Node1</title>
<g id="a_node1"><a xlink:title=" ">
<polygon fill="#bfbfbf" stroke="black" points="354,-112.5 354,-131.5 472,-131.5 472,-112.5 354,-112.5"/>
<text text-anchor="middle" x="413" y="-119.5" font-family="Helvetica,sans-Serif" font-size="10.00">itkSmapsFileParser.h</text>
</a>
</g>
</g>
<!-- Node2 -->
<g id="node2" class="node">
<title>Node2</title>
<g id="a_node2"><a xlink:href="itkMacro_8h.html" target="_top" xlink:title=" ">
<polygon fill="white" stroke="black" points="0,-0.5 0,-19.5 68,-19.5 68,-0.5 0,-0.5"/>
<text text-anchor="middle" x="34" y="-7.5" font-family="Helvetica,sans-Serif" font-size="10.00">itkMacro.h</text>
</a>
</g>
</g>
<!-- Node1&#45;&gt;Node2 -->
<g id="edge1" class="edge">
<title>Node1&#45;&gt;Node2</title>
<path fill="none" stroke="midnightblue" d="M353.8,-120.54C265.44,-118.7 104.65,-110.55 60,-76 45.75,-64.98 39.29,-44.93 36.37,-30"/>
<polygon fill="midnightblue" stroke="midnightblue" points="39.78,-29.15 34.76,-19.82 32.86,-30.24 39.78,-29.15"/>
</g>
<!-- Node3 -->
<g id="node3" class="node">
<title>Node3</title>
<g id="a_node3"><a xlink:href="itkIntTypes_8h.html" target="_top" xlink:title=" ">
<polygon fill="white" stroke="black" points="68.5,-56.5 68.5,-75.5 147.5,-75.5 147.5,-56.5 68.5,-56.5"/>
<text text-anchor="middle" x="108" y="-63.5" font-family="Helvetica,sans-Serif" font-size="10.00">itkIntTypes.h</text>
</a>
</g>
</g>
<!-- Node1&#45;&gt;Node3 -->
<g id="edge2" class="edge">
<title>Node1&#45;&gt;Node3</title>
<path fill="none" stroke="midnightblue" d="M363.22,-112.47C313.55,-103.91 234.77,-90.23 157.46,-76.25"/>
<polygon fill="midnightblue" stroke="midnightblue" points="158.01,-72.79 147.55,-74.45 156.76,-79.68 158.01,-72.79"/>
</g>
<!-- Node6 -->
<g id="node6" class="node">
<title>Node6</title>
<g id="a_node6"><a xlink:title=" ">
<polygon fill="white" stroke="#bfbfbf" points="165,-56.5 165,-75.5 209,-75.5 209,-56.5 165,-56.5"/>
<text text-anchor="middle" x="187" y="-63.5" font-family="Helvetica,sans-Serif" font-size="10.00">string</text>
</a>
</g>
</g>
<!-- Node1&#45;&gt;Node6 -->
<g id="edge6" class="edge">
<title>Node1&#45;&gt;Node6</title>
<path fill="none" stroke="midnightblue" d="M373.85,-112.48C336.65,-104.25 278.91,-91.17 219.31,-75.98"/>
<polygon fill="midnightblue" stroke="midnightblue" points="219.9,-72.52 209.34,-73.43 218.16,-79.3 219.9,-72.52"/>
</g>
<!-- Node7 -->
<g id="node7" class="node">
<title>Node7</title>
<g id="a_node7"><a xlink:title=" ">
<polygon fill="white" stroke="#bfbfbf" points="227.5,-56.5 227.5,-75.5 274.5,-75.5 274.5,-56.5 227.5,-56.5"/>
<text text-anchor="middle" x="251" y="-63.5" font-family="Helvetica,sans-Serif" font-size="10.00">vector</text>
</a>
</g>
</g>
<!-- Node1&#45;&gt;Node7 -->
<g id="edge7" class="edge">
<title>Node1&#45;&gt;Node7</title>
<path fill="none" stroke="midnightblue" d="M387.33,-112.44C359.52,-103.17 315.03,-88.34 284.48,-78.16"/>
<polygon fill="midnightblue" stroke="midnightblue" points="285.3,-74.74 274.7,-74.9 283.08,-81.38 285.3,-74.74"/>
</g>
<!-- Node8 -->
<g id="node8" class="node">
<title>Node8</title>
<g id="a_node8"><a xlink:title=" ">
<polygon fill="white" stroke="#bfbfbf" points="293,-56.5 293,-75.5 331,-75.5 331,-56.5 293,-56.5"/>
<text text-anchor="middle" x="312" y="-63.5" font-family="Helvetica,sans-Serif" font-size="10.00">map</text>
</a>
</g>
</g>
<!-- Node1&#45;&gt;Node8 -->
<g id="edge8" class="edge">
<title>Node1&#45;&gt;Node8</title>
<path fill="none" stroke="midnightblue" d="M396.77,-112.32C380.65,-103.7 355.7,-90.36 337.04,-80.39"/>
<polygon fill="midnightblue" stroke="midnightblue" points="338.66,-77.28 328.19,-75.65 335.36,-83.46 338.66,-77.28"/>
</g>
<!-- Node9 -->
<g id="node9" class="node">
<title>Node9</title>
<g id="a_node9"><a xlink:title=" ">
<polygon fill="white" stroke="#bfbfbf" points="349,-56.5 349,-75.5 403,-75.5 403,-56.5 349,-56.5"/>
<text text-anchor="middle" x="376" y="-63.5" font-family="Helvetica,sans-Serif" font-size="10.00">istream</text>
</a>
</g>
</g>
<!-- Node1&#45;&gt;Node9 -->
<g id="edge9" class="edge">
<title>Node1&#45;&gt;Node9</title>
<path fill="none" stroke="midnightblue" d="M406.89,-112.08C401.72,-104.53 394.15,-93.49 387.81,-84.23"/>
<polygon fill="midnightblue" stroke="midnightblue" points="390.54,-82.02 382,-75.75 384.76,-85.98 390.54,-82.02"/>
</g>
<!-- Node10 -->
<g id="node10" class="node">
<title>Node10</title>
<g id="a_node10"><a xlink:title=" ">
<polygon fill="white" stroke="#bfbfbf" points="421,-56.5 421,-75.5 481,-75.5 481,-56.5 421,-56.5"/>
<text text-anchor="middle" x="451" y="-63.5" font-family="Helvetica,sans-Serif" font-size="10.00">iostream</text>
</a>
</g>
</g>
<!-- Node1&#45;&gt;Node10 -->
<g id="edge10" class="edge">
<title>Node1&#45;&gt;Node10</title>
<path fill="none" stroke="midnightblue" d="M419.27,-112.08C424.64,-104.46 432.52,-93.26 439.08,-83.94"/>
<polygon fill="midnightblue" stroke="midnightblue" points="441.95,-85.94 444.84,-75.75 436.22,-81.91 441.95,-85.94"/>
</g>
<!-- Node11 -->
<g id="node11" class="node">
<title>Node11</title>
<g id="a_node11"><a xlink:title=" ">
<polygon fill="white" stroke="#bfbfbf" points="499,-56.5 499,-75.5 629,-75.5 629,-56.5 499,-56.5"/>
<text text-anchor="middle" x="564" y="-63.5" font-family="Helvetica,sans-Serif" font-size="10.00">itkSmapsFileParser.hxx</text>
</a>
</g>
</g>
<!-- Node1&#45;&gt;Node11 -->
<g id="edge11" class="edge">
<title>Node1&#45;&gt;Node11</title>
<path fill="none" stroke="midnightblue" d="M436.93,-112.44C462.22,-103.4 502.3,-89.06 530.68,-78.92"/>
<polygon fill="midnightblue" stroke="midnightblue" points="531.95,-82.18 540.19,-75.52 529.59,-75.59 531.95,-82.18"/>
</g>
<!-- Node12 -->
<g id="node12" class="node">
<title>Node12</title>
<g id="a_node12"><a xlink:title=" ">
<polygon fill="white" stroke="#bfbfbf" points="647,-56.5 647,-75.5 703,-75.5 703,-56.5 647,-56.5"/>
<text text-anchor="middle" x="675" y="-63.5" font-family="Helvetica,sans-Serif" font-size="10.00">unistd.h</text>
</a>
</g>
</g>
<!-- Node1&#45;&gt;Node12 -->
<g id="edge12" class="edge">
<title>Node1&#45;&gt;Node12</title>
<path fill="none" stroke="midnightblue" d="M458.37,-112.5C501.76,-104.23 569.27,-91.05 636.79,-76.2"/>
<polygon fill="midnightblue" stroke="midnightblue" points="637.74,-79.58 646.75,-74 636.23,-72.74 637.74,-79.58"/>
</g>
<!-- Node13 -->
<g id="node13" class="node">
<title>Node13</title>
<g id="a_node13"><a xlink:title=" ">
<polygon fill="white" stroke="#bfbfbf" points="721.5,-56.5 721.5,-75.5 776.5,-75.5 776.5,-56.5 721.5,-56.5"/>
<text text-anchor="middle" x="749" y="-63.5" font-family="Helvetica,sans-Serif" font-size="10.00">fstream</text>
</a>
</g>
</g>
<!-- Node1&#45;&gt;Node13 -->
<g id="edge13" class="edge">
<title>Node1&#45;&gt;Node13</title>
<path fill="none" stroke="midnightblue" d="M472.27,-113.67C530.6,-106.09 622.4,-93.22 711.21,-76"/>
<polygon fill="midnightblue" stroke="midnightblue" points="712.04,-79.41 721.18,-74.05 710.69,-72.54 712.04,-79.41"/>
</g>
<!-- Node14 -->
<g id="node14" class="node">
<title>Node14</title>
<g id="a_node14"><a xlink:title=" ">
<polygon fill="white" stroke="#bfbfbf" points="795,-56.5 795,-75.5 851,-75.5 851,-56.5 795,-56.5"/>
<text text-anchor="middle" x="823" y="-63.5" font-family="Helvetica,sans-Serif" font-size="10.00">numeric</text>
</a>
</g>
</g>
<!-- Node1&#45;&gt;Node14 -->
<g id="edge14" class="edge">
<title>Node1&#45;&gt;Node14</title>
<path fill="none" stroke="midnightblue" d="M472.11,-116.05C543.85,-109.56 668.61,-96.71 784.67,-76.05"/>
<polygon fill="midnightblue" stroke="midnightblue" points="785.57,-79.45 794.79,-74.23 784.33,-72.56 785.57,-79.45"/>
</g>
<!-- Node15 -->
<g id="node15" class="node">
<title>Node15</title>
<g id="a_node15"><a xlink:title=" ">
<polygon fill="white" stroke="#bfbfbf" points="869,-56.5 869,-75.5 933,-75.5 933,-56.5 869,-56.5"/>
<text text-anchor="middle" x="901" y="-63.5" font-family="Helvetica,sans-Serif" font-size="10.00">algorithm</text>
</a>
</g>
</g>
<!-- Node1&#45;&gt;Node15 -->
<g id="edge15" class="edge">
<title>Node1&#45;&gt;Node15</title>
<path fill="none" stroke="midnightblue" d="M472.21,-117.23C556.14,-111.4 714.62,-98.62 858.91,-76"/>
<polygon fill="midnightblue" stroke="midnightblue" points="859.51,-79.45 868.84,-74.43 858.41,-72.54 859.51,-79.45"/>
</g>
<!-- Node3&#45;&gt;Node2 -->
<g id="edge3" class="edge">
<title>Node3&#45;&gt;Node2</title>
<path fill="none" stroke="midnightblue" d="M96.11,-56.32C84.85,-48.11 67.71,-35.6 54.29,-25.81"/>
<polygon fill="midnightblue" stroke="midnightblue" points="56.25,-22.9 46.11,-19.83 52.12,-28.56 56.25,-22.9"/>
</g>
<!-- Node4 -->
<g id="node4" class="node">
<title>Node4</title>
<g id="a_node4"><a xlink:title=" ">
<polygon fill="white" stroke="#bfbfbf" points="86,-0.5 86,-19.5 136,-19.5 136,-0.5 86,-0.5"/>
<text text-anchor="middle" x="111" y="-7.5" font-family="Helvetica,sans-Serif" font-size="10.00">cstdint</text>
</a>
</g>
</g>
<!-- Node3&#45;&gt;Node4 -->
<g id="edge4" class="edge">
<title>Node3&#45;&gt;Node4</title>
<path fill="none" stroke="midnightblue" d="M108.5,-56.08C108.89,-49.01 109.45,-38.86 109.95,-29.99"/>
<polygon fill="midnightblue" stroke="midnightblue" points="113.45,-29.93 110.51,-19.75 106.46,-29.54 113.45,-29.93"/>
</g>
<!-- Node5 -->
<g id="node5" class="node">
<title>Node5</title>
<g id="a_node5"><a xlink:title=" ">
<polygon fill="white" stroke="#bfbfbf" points="154,-0.5 154,-19.5 204,-19.5 204,-0.5 154,-0.5"/>
<text text-anchor="middle" x="179" y="-7.5" font-family="Helvetica,sans-Serif" font-size="10.00">climits</text>
</a>
</g>
</g>
<!-- Node3&#45;&gt;Node5 -->
<g id="edge5" class="edge">
<title>Node3&#45;&gt;Node5</title>
<path fill="none" stroke="midnightblue" d="M119.41,-56.32C130.11,-48.18 146.34,-35.84 159.16,-26.09"/>
<polygon fill="midnightblue" stroke="midnightblue" points="161.54,-28.67 167.39,-19.83 157.31,-23.1 161.54,-28.67"/>
</g>
</g>
</svg>
