<?xml version="1.0" encoding="UTF-8" standalone="no"?>
<!DOCTYPE svg PUBLIC "-//W3C//DTD SVG 1.1//EN"
 "http://www.w3.org/Graphics/SVG/1.1/DTD/svg11.dtd">
<!-- Generated by graphviz version 2.43.0 (0)
 -->
<!-- Title: itkSparseFieldLayer.h Pages: 1 -->
<svg width="1741pt" height="363pt"
 viewBox="0.00 0.00 1740.50 363.00" xmlns="http://www.w3.org/2000/svg" xmlns:xlink="http://www.w3.org/1999/xlink">
<g id="graph0" class="graph" transform="scale(1 1) rotate(0) translate(4 359)">
<title>itkSparseFieldLayer.h</title>
<polygon fill="white" stroke="transparent" points="-4,4 -4,-359 1736.5,-359 1736.5,4 -4,4"/>
<!-- Node1 -->
<g id="node1" class="node">
<title>Node1</title>
<g id="a_node1"><a xlink:title=" ">
<polygon fill="#bfbfbf" stroke="black" points="441.5,-335.5 441.5,-354.5 562.5,-354.5 562.5,-335.5 441.5,-335.5"/>
<text text-anchor="middle" x="502" y="-342.5" font-family="Helvetica,sans-Serif" font-size="10.00">itkSparseFieldLayer.h</text>
</a>
</g>
</g>
<!-- Node2 -->
<g id="node2" class="node">
<title>Node2</title>
<g id="a_node2"><a xlink:href="itkSparseImage_8h.html" target="_top" xlink:title=" ">
<polygon fill="white" stroke="black" points="187,-274 187,-293 289,-293 289,-274 187,-274"/>
<text text-anchor="middle" x="238" y="-281" font-family="Helvetica,sans-Serif" font-size="10.00">itkSparseImage.h</text>
</a>
</g>
</g>
<!-- Node1&#45;&gt;Node2 -->
<g id="edge1" class="edge">
<title>Node1&#45;&gt;Node2</title>
<path fill="none" stroke="midnightblue" d="M454.34,-333.26C403.13,-321.72 322.77,-303.61 275.75,-293.01"/>
<polygon fill="midnightblue" stroke="midnightblue" points="453.65,-336.69 464.18,-335.48 455.19,-329.86 453.65,-336.69"/>
</g>
<!-- Node10 -->
<g id="node10" class="node">
<title>Node10</title>
<g id="a_node10"><a xlink:href="itkCannyEdgeDetectionImageFilter_8h.html" target="_top" xlink:title=" ">
<polygon fill="white" stroke="black" points="332,-268.5 332,-298.5 494,-298.5 494,-268.5 332,-268.5"/>
<text text-anchor="start" x="340" y="-286.5" font-family="Helvetica,sans-Serif" font-size="10.00">itkCannyEdgeDetectionImage</text>
<text text-anchor="middle" x="413" y="-275.5" font-family="Helvetica,sans-Serif" font-size="10.00">Filter.h</text>
</a>
</g>
</g>
<!-- Node1&#45;&gt;Node10 -->
<g id="edge10" class="edge">
<title>Node1&#45;&gt;Node10</title>
<path fill="none" stroke="midnightblue" d="M480.67,-329.74C466.52,-320.28 448.05,-307.93 433.98,-298.52"/>
<polygon fill="midnightblue" stroke="midnightblue" points="478.99,-332.83 489.25,-335.48 482.88,-327.01 478.99,-332.83"/>
</g>
<!-- Node13 -->
<g id="node13" class="node">
<title>Node13</title>
<g id="a_node13"><a xlink:href="itkSparseFieldLevelSetImageFilter_8h.html" target="_top" xlink:title=" ">
<polygon fill="white" stroke="black" points="512,-268.5 512,-298.5 670,-298.5 670,-268.5 512,-268.5"/>
<text text-anchor="start" x="520" y="-286.5" font-family="Helvetica,sans-Serif" font-size="10.00">itkSparseFieldLevelSetImage</text>
<text text-anchor="middle" x="591" y="-275.5" font-family="Helvetica,sans-Serif" font-size="10.00">Filter.h</text>
</a>
</g>
</g>
<!-- Node1&#45;&gt;Node13 -->
<g id="edge13" class="edge">
<title>Node1&#45;&gt;Node13</title>
<path fill="none" stroke="midnightblue" d="M523.33,-329.74C537.48,-320.28 555.95,-307.93 570.02,-298.52"/>
<polygon fill="midnightblue" stroke="midnightblue" points="521.12,-327.01 514.75,-335.48 525.01,-332.83 521.12,-327.01"/>
</g>
<!-- Node24 -->
<g id="node24" class="node">
<title>Node24</title>
<g id="a_node24"><a xlink:href="itkParallelSparseFieldLevelSetImageFilter_8h.html" target="_top" xlink:title=" ">
<polygon fill="white" stroke="black" points="688,-268.5 688,-298.5 836,-298.5 836,-268.5 688,-268.5"/>
<text text-anchor="start" x="696" y="-286.5" font-family="Helvetica,sans-Serif" font-size="10.00">itkParallelSparseFieldLevel</text>
<text text-anchor="middle" x="762" y="-275.5" font-family="Helvetica,sans-Serif" font-size="10.00">SetImageFilter.h</text>
</a>
</g>
</g>
<!-- Node1&#45;&gt;Node24 -->
<g id="edge26" class="edge">
<title>Node1&#45;&gt;Node24</title>
<path fill="none" stroke="midnightblue" d="M549.06,-333.23C591.55,-323.51 654.33,-309.14 700.72,-298.52"/>
<polygon fill="midnightblue" stroke="midnightblue" points="548.22,-329.83 539.25,-335.48 549.78,-336.66 548.22,-329.83"/>
</g>
<!-- Node3 -->
<g id="node3" class="node">
<title>Node3</title>
<g id="a_node3"><a xlink:href="itkFiniteDifferenceSparseImageFilter_8h.html" target="_top" xlink:title=" ">
<polygon fill="white" stroke="black" points="1,-201.5 1,-231.5 141,-231.5 141,-201.5 1,-201.5"/>
<text text-anchor="start" x="9" y="-219.5" font-family="Helvetica,sans-Serif" font-size="10.00">itkFiniteDifferenceSparse</text>
<text text-anchor="middle" x="71" y="-208.5" font-family="Helvetica,sans-Serif" font-size="10.00">ImageFilter.h</text>
</a>
</g>
</g>
<!-- Node2&#45;&gt;Node3 -->
<g id="edge2" class="edge">
<title>Node2&#45;&gt;Node3</title>
<path fill="none" stroke="midnightblue" d="M206.4,-270.2C178.11,-259.19 136.62,-243.04 107.04,-231.53"/>
<polygon fill="midnightblue" stroke="midnightblue" points="205.24,-273.5 215.82,-273.87 207.77,-266.98 205.24,-273.5"/>
</g>
<!-- Node9 -->
<g id="node9" class="node">
<title>Node9</title>
<g id="a_node9"><a xlink:href="itkLevelSetFunctionWithRefitTerm_8h.html" target="_top" xlink:title=" ">
<polygon fill="white" stroke="black" points="159,-201.5 159,-231.5 317,-231.5 317,-201.5 159,-201.5"/>
<text text-anchor="start" x="167" y="-219.5" font-family="Helvetica,sans-Serif" font-size="10.00">itkLevelSetFunctionWithRefit</text>
<text text-anchor="middle" x="238" y="-208.5" font-family="Helvetica,sans-Serif" font-size="10.00">Term.h</text>
</a>
</g>
</g>
<!-- Node2&#45;&gt;Node9 -->
<g id="edge8" class="edge">
<title>Node2&#45;&gt;Node9</title>
<path fill="none" stroke="midnightblue" d="M238,-263.41C238,-253.22 238,-240.9 238,-231.59"/>
<polygon fill="midnightblue" stroke="midnightblue" points="234.5,-263.73 238,-273.73 241.5,-263.73 234.5,-263.73"/>
</g>
<!-- Node4 -->
<g id="node4" class="node">
<title>Node4</title>
<g id="a_node4"><a xlink:href="itkImplicitManifoldNormalVectorFilter_8h.html" target="_top" xlink:title=" ">
<polygon fill="white" stroke="black" points="31.5,-134.5 31.5,-164.5 176.5,-164.5 176.5,-134.5 31.5,-134.5"/>
<text text-anchor="start" x="39.5" y="-152.5" font-family="Helvetica,sans-Serif" font-size="10.00">itkImplicitManifoldNormal</text>
<text text-anchor="middle" x="104" y="-141.5" font-family="Helvetica,sans-Serif" font-size="10.00">VectorFilter.h</text>
</a>
</g>
</g>
<!-- Node3&#45;&gt;Node4 -->
<g id="edge3" class="edge">
<title>Node3&#45;&gt;Node4</title>
<path fill="none" stroke="midnightblue" d="M82.79,-192.28C87.49,-183.02 92.75,-172.66 96.85,-164.58"/>
<polygon fill="midnightblue" stroke="midnightblue" points="79.57,-190.89 78.16,-201.4 85.81,-194.06 79.57,-190.89"/>
</g>
<!-- Node5 -->
<g id="node5" class="node">
<title>Node5</title>
<g id="a_node5"><a xlink:href="itkSparseFieldFourthOrderLevelSetImageFilter_8h.html" target="_top" xlink:title=" ">
<polygon fill="white" stroke="black" points="166.5,-67.5 166.5,-97.5 309.5,-97.5 309.5,-67.5 166.5,-67.5"/>
<text text-anchor="start" x="174.5" y="-85.5" font-family="Helvetica,sans-Serif" font-size="10.00">itkSparseFieldFourthOrder</text>
<text text-anchor="middle" x="238" y="-74.5" font-family="Helvetica,sans-Serif" font-size="10.00">LevelSetImageFilter.h</text>
</a>
</g>
</g>
<!-- Node4&#45;&gt;Node5 -->
<g id="edge4" class="edge">
<title>Node4&#45;&gt;Node5</title>
<path fill="none" stroke="midnightblue" d="M142.15,-129.99C163.39,-119.69 189.41,-107.07 208.98,-97.58"/>
<polygon fill="midnightblue" stroke="midnightblue" points="140.55,-126.88 133.08,-134.4 143.6,-133.18 140.55,-126.88"/>
</g>
<!-- Node6 -->
<g id="node6" class="node">
<title>Node6</title>
<g id="a_node6"><a xlink:href="itkAnisotropicFourthOrderLevelSetImageFilter_8h.html" target="_top" xlink:title=" ">
<polygon fill="white" stroke="black" points="0,-0.5 0,-30.5 142,-30.5 142,-0.5 0,-0.5"/>
<text text-anchor="start" x="8" y="-18.5" font-family="Helvetica,sans-Serif" font-size="10.00">itkAnisotropicFourthOrder</text>
<text text-anchor="middle" x="71" y="-7.5" font-family="Helvetica,sans-Serif" font-size="10.00">LevelSetImageFilter.h</text>
</a>
</g>
</g>
<!-- Node5&#45;&gt;Node6 -->
<g id="edge5" class="edge">
<title>Node5&#45;&gt;Node6</title>
<path fill="none" stroke="midnightblue" d="M192.22,-63.68C165.44,-53.26 132.1,-40.28 107.17,-30.58"/>
<polygon fill="midnightblue" stroke="midnightblue" points="191.17,-67.03 201.76,-67.4 193.71,-60.51 191.17,-67.03"/>
</g>
<!-- Node7 -->
<g id="node7" class="node">
<title>Node7</title>
<g id="a_node7"><a xlink:href="itkIsotropicFourthOrderLevelSetImageFilter_8h.html" target="_top" xlink:title=" ">
<polygon fill="white" stroke="black" points="160.5,-0.5 160.5,-30.5 315.5,-30.5 315.5,-0.5 160.5,-0.5"/>
<text text-anchor="start" x="168.5" y="-18.5" font-family="Helvetica,sans-Serif" font-size="10.00">itkIsotropicFourthOrderLevel</text>
<text text-anchor="middle" x="238" y="-7.5" font-family="Helvetica,sans-Serif" font-size="10.00">SetImageFilter.h</text>
</a>
</g>
</g>
<!-- Node5&#45;&gt;Node7 -->
<g id="edge6" class="edge">
<title>Node5&#45;&gt;Node7</title>
<path fill="none" stroke="midnightblue" d="M238,-57.11C238,-48.15 238,-38.32 238,-30.58"/>
<polygon fill="midnightblue" stroke="midnightblue" points="234.5,-57.4 238,-67.4 241.5,-57.4 234.5,-57.4"/>
</g>
<!-- Node8 -->
<g id="node8" class="node">
<title>Node8</title>
<g id="a_node8"><a xlink:href="itkUnsharpMaskLevelSetImageFilter_8h.html" target="_top" xlink:title=" ">
<polygon fill="white" stroke="black" points="333.5,-0.5 333.5,-30.5 502.5,-30.5 502.5,-0.5 333.5,-0.5"/>
<text text-anchor="start" x="341.5" y="-18.5" font-family="Helvetica,sans-Serif" font-size="10.00">itkUnsharpMaskLevelSetImage</text>
<text text-anchor="middle" x="418" y="-7.5" font-family="Helvetica,sans-Serif" font-size="10.00">Filter.h</text>
</a>
</g>
</g>
<!-- Node5&#45;&gt;Node8 -->
<g id="edge7" class="edge">
<title>Node5&#45;&gt;Node8</title>
<path fill="none" stroke="midnightblue" d="M286.59,-63.96C315.58,-53.48 351.91,-40.37 379.02,-30.58"/>
<polygon fill="midnightblue" stroke="midnightblue" points="285.27,-60.71 277.06,-67.4 287.65,-67.29 285.27,-60.71"/>
</g>
<!-- Node9&#45;&gt;Node5 -->
<g id="edge9" class="edge">
<title>Node9&#45;&gt;Node5</title>
<path fill="none" stroke="midnightblue" d="M238,-191.02C238,-163.51 238,-119.79 238,-97.52"/>
<polygon fill="midnightblue" stroke="midnightblue" points="234.5,-191.37 238,-201.37 241.5,-191.37 234.5,-191.37"/>
</g>
<!-- Node11 -->
<g id="node11" class="node">
<title>Node11</title>
<g id="a_node11"><a xlink:href="itkCannySegmentationLevelSetFunction_8h.html" target="_top" xlink:title=" ">
<polygon fill="white" stroke="black" points="335.5,-201.5 335.5,-231.5 490.5,-231.5 490.5,-201.5 335.5,-201.5"/>
<text text-anchor="start" x="343.5" y="-219.5" font-family="Helvetica,sans-Serif" font-size="10.00">itkCannySegmentationLevel</text>
<text text-anchor="middle" x="413" y="-208.5" font-family="Helvetica,sans-Serif" font-size="10.00">SetFunction.h</text>
</a>
</g>
</g>
<!-- Node10&#45;&gt;Node11 -->
<g id="edge11" class="edge">
<title>Node10&#45;&gt;Node11</title>
<path fill="none" stroke="midnightblue" d="M413,-258.11C413,-249.15 413,-239.32 413,-231.58"/>
<polygon fill="midnightblue" stroke="midnightblue" points="409.5,-258.4 413,-268.4 416.5,-258.4 409.5,-258.4"/>
</g>
<!-- Node12 -->
<g id="node12" class="node">
<title>Node12</title>
<g id="a_node12"><a xlink:href="itkCannySegmentationLevelSetImageFilter_8h.html" target="_top" xlink:title=" ">
<polygon fill="white" stroke="black" points="335.5,-134.5 335.5,-164.5 490.5,-164.5 490.5,-134.5 335.5,-134.5"/>
<text text-anchor="start" x="343.5" y="-152.5" font-family="Helvetica,sans-Serif" font-size="10.00">itkCannySegmentationLevel</text>
<text text-anchor="middle" x="413" y="-141.5" font-family="Helvetica,sans-Serif" font-size="10.00">SetImageFilter.h</text>
</a>
</g>
</g>
<!-- Node11&#45;&gt;Node12 -->
<g id="edge12" class="edge">
<title>Node11&#45;&gt;Node12</title>
<path fill="none" stroke="midnightblue" d="M413,-191.11C413,-182.15 413,-172.32 413,-164.58"/>
<polygon fill="midnightblue" stroke="midnightblue" points="409.5,-191.4 413,-201.4 416.5,-191.4 409.5,-191.4"/>
</g>
<!-- Node13&#45;&gt;Node5 -->
<g id="edge14" class="edge">
<title>Node13&#45;&gt;Node5</title>
<path fill="none" stroke="midnightblue" d="M583.26,-258.89C571,-225.44 543.8,-164.89 499,-134 468.89,-113.24 376.01,-98.83 309.64,-90.86"/>
<polygon fill="midnightblue" stroke="midnightblue" points="579.96,-260.07 586.59,-268.34 586.56,-257.74 579.96,-260.07"/>
</g>
<!-- Node14 -->
<g id="node14" class="node">
<title>Node14</title>
<g id="a_node14"><a xlink:href="itkSegmentationLevelSetImageFilter_8h.html" target="_top" xlink:title=" ">
<polygon fill="white" stroke="black" points="809,-201.5 809,-231.5 979,-231.5 979,-201.5 809,-201.5"/>
<text text-anchor="start" x="817" y="-219.5" font-family="Helvetica,sans-Serif" font-size="10.00">itkSegmentationLevelSetImage</text>
<text text-anchor="middle" x="894" y="-208.5" font-family="Helvetica,sans-Serif" font-size="10.00">Filter.h</text>
</a>
</g>
</g>
<!-- Node13&#45;&gt;Node14 -->
<g id="edge15" class="edge">
<title>Node13&#45;&gt;Node14</title>
<path fill="none" stroke="midnightblue" d="M666.44,-266.32C716.24,-255.63 780.84,-241.77 828.48,-231.55"/>
<polygon fill="midnightblue" stroke="midnightblue" points="665.42,-262.96 656.37,-268.48 666.89,-269.8 665.42,-262.96"/>
</g>
<!-- Node23 -->
<g id="node23" class="node">
<title>Node23</title>
<g id="a_node23"><a xlink:href="itkAntiAliasBinaryImageFilter_8h.html" target="_top" xlink:title=" ">
<polygon fill="white" stroke="black" points="997,-207 997,-226 1165,-226 1165,-207 997,-207"/>
<text text-anchor="middle" x="1081" y="-214" font-family="Helvetica,sans-Serif" font-size="10.00">itkAntiAliasBinaryImageFilter.h</text>
</a>
</g>
</g>
<!-- Node13&#45;&gt;Node23 -->
<g id="edge25" class="edge">
<title>Node13&#45;&gt;Node23</title>
<path fill="none" stroke="midnightblue" d="M680.2,-267.87C817.62,-248.83 854.21,-250.22 988,-232 1001.12,-230.21 1015.24,-228.11 1028.43,-226.06"/>
<polygon fill="midnightblue" stroke="midnightblue" points="679.55,-264.43 670.13,-269.28 680.52,-271.36 679.55,-264.43"/>
</g>
<!-- Node14&#45;&gt;Node12 -->
<g id="edge16" class="edge">
<title>Node14&#45;&gt;Node12</title>
<path fill="none" stroke="midnightblue" d="M798.87,-202.65C708.6,-190.45 574.58,-172.33 490.58,-160.98"/>
<polygon fill="midnightblue" stroke="midnightblue" points="798.46,-206.12 808.84,-203.99 799.4,-199.18 798.46,-206.12"/>
</g>
<!-- Node15 -->
<g id="node15" class="node">
<title>Node15</title>
<g id="a_node15"><a xlink:href="itkCurvesLevelSetImageFilter_8h.html" target="_top" xlink:title=" ">
<polygon fill="white" stroke="black" points="904.5,-140 904.5,-159 1073.5,-159 1073.5,-140 904.5,-140"/>
<text text-anchor="middle" x="989" y="-147" font-family="Helvetica,sans-Serif" font-size="10.00">itkCurvesLevelSetImageFilter.h</text>
</a>
</g>
</g>
<!-- Node14&#45;&gt;Node15 -->
<g id="edge17" class="edge">
<title>Node14&#45;&gt;Node15</title>
<path fill="none" stroke="midnightblue" d="M923.02,-195.64C940.95,-183.37 963.04,-168.26 976.57,-159.01"/>
<polygon fill="midnightblue" stroke="midnightblue" points="920.89,-192.86 914.61,-201.4 924.84,-198.64 920.89,-192.86"/>
</g>
<!-- Node16 -->
<g id="node16" class="node">
<title>Node16</title>
<g id="a_node16"><a xlink:href="itkGeodesicActiveContourLevelSetImageFilter_8h.html" target="_top" xlink:title=" ">
<polygon fill="white" stroke="black" points="1091.5,-134.5 1091.5,-164.5 1234.5,-164.5 1234.5,-134.5 1091.5,-134.5"/>
<text text-anchor="start" x="1099.5" y="-152.5" font-family="Helvetica,sans-Serif" font-size="10.00">itkGeodesicActiveContour</text>
<text text-anchor="middle" x="1163" y="-141.5" font-family="Helvetica,sans-Serif" font-size="10.00">LevelSetImageFilter.h</text>
</a>
</g>
</g>
<!-- Node14&#45;&gt;Node16 -->
<g id="edge18" class="edge">
<title>Node14&#45;&gt;Node16</title>
<path fill="none" stroke="midnightblue" d="M961.79,-199.12C1005.81,-188.48 1062.59,-174.76 1104.6,-164.61"/>
<polygon fill="midnightblue" stroke="midnightblue" points="960.94,-195.73 952.04,-201.48 962.58,-202.53 960.94,-195.73"/>
</g>
<!-- Node17 -->
<g id="node17" class="node">
<title>Node17</title>
<g id="a_node17"><a xlink:href="itkShapePriorSegmentationLevelSetImageFilter_8h.html" target="_top" xlink:title=" ">
<polygon fill="white" stroke="black" points="1253,-134.5 1253,-164.5 1403,-164.5 1403,-134.5 1253,-134.5"/>
<text text-anchor="start" x="1261" y="-152.5" font-family="Helvetica,sans-Serif" font-size="10.00">itkShapePriorSegmentation</text>
<text text-anchor="middle" x="1328" y="-141.5" font-family="Helvetica,sans-Serif" font-size="10.00">LevelSetImageFilter.h</text>
</a>
</g>
</g>
<!-- Node14&#45;&gt;Node17 -->
<g id="edge19" class="edge">
<title>Node14&#45;&gt;Node17</title>
<path fill="none" stroke="midnightblue" d="M989.21,-200.84C1102.92,-184.17 1133.11,-182.13 1243,-165 1246.25,-164.49 1249.58,-163.97 1252.93,-163.43"/>
<polygon fill="midnightblue" stroke="midnightblue" points="988.43,-197.41 979.05,-202.33 989.45,-204.34 988.43,-197.41"/>
</g>
<!-- Node19 -->
<g id="node19" class="node">
<title>Node19</title>
<g id="a_node19"><a xlink:href="itkLaplacianSegmentationLevelSetImageFilter_8h.html" target="_top" xlink:title=" ">
<polygon fill="white" stroke="black" points="1421,-134.5 1421,-164.5 1565,-164.5 1565,-134.5 1421,-134.5"/>
<text text-anchor="start" x="1429" y="-152.5" font-family="Helvetica,sans-Serif" font-size="10.00">itkLaplacianSegmentation</text>
<text text-anchor="middle" x="1493" y="-141.5" font-family="Helvetica,sans-Serif" font-size="10.00">LevelSetImageFilter.h</text>
</a>
</g>
</g>
<!-- Node14&#45;&gt;Node19 -->
<g id="edge21" class="edge">
<title>Node14&#45;&gt;Node19</title>
<path fill="none" stroke="midnightblue" d="M988.98,-200.94C1177.49,-178.94 1227.7,-189.27 1412,-165 1414.83,-164.63 1417.72,-164.22 1420.63,-163.8"/>
<polygon fill="midnightblue" stroke="midnightblue" points="988.54,-197.47 979.02,-202.12 989.36,-204.42 988.54,-197.47"/>
</g>
<!-- Node20 -->
<g id="node20" class="node">
<title>Node20</title>
<g id="a_node20"><a xlink:href="itkShapeDetectionLevelSetImageFilter_8h.html" target="_top" xlink:title=" ">
<polygon fill="white" stroke="black" points="1583.5,-134.5 1583.5,-164.5 1732.5,-164.5 1732.5,-134.5 1583.5,-134.5"/>
<text text-anchor="start" x="1591.5" y="-152.5" font-family="Helvetica,sans-Serif" font-size="10.00">itkShapeDetectionLevelSet</text>
<text text-anchor="middle" x="1658" y="-141.5" font-family="Helvetica,sans-Serif" font-size="10.00">ImageFilter.h</text>
</a>
</g>
</g>
<!-- Node14&#45;&gt;Node20 -->
<g id="edge22" class="edge">
<title>Node14&#45;&gt;Node20</title>
<path fill="none" stroke="midnightblue" d="M989.14,-200.95C1249.18,-173.63 1318.11,-194.85 1574,-165 1577.09,-164.64 1580.23,-164.24 1583.41,-163.81"/>
<polygon fill="midnightblue" stroke="midnightblue" points="988.58,-197.49 979.01,-202.03 989.32,-204.45 988.58,-197.49"/>
</g>
<!-- Node21 -->
<g id="node21" class="node">
<title>Node21</title>
<g id="a_node21"><a xlink:href="itkThresholdSegmentationLevelSetImageFilter_8h.html" target="_top" xlink:title=" ">
<polygon fill="white" stroke="black" points="547,-134.5 547,-164.5 693,-164.5 693,-134.5 547,-134.5"/>
<text text-anchor="start" x="555" y="-152.5" font-family="Helvetica,sans-Serif" font-size="10.00">itkThresholdSegmentation</text>
<text text-anchor="middle" x="620" y="-141.5" font-family="Helvetica,sans-Serif" font-size="10.00">LevelSetImageFilter.h</text>
</a>
</g>
</g>
<!-- Node14&#45;&gt;Node21 -->
<g id="edge23" class="edge">
<title>Node14&#45;&gt;Node21</title>
<path fill="none" stroke="midnightblue" d="M824.95,-199.12C780.11,-188.48 722.28,-174.76 679.48,-164.61"/>
<polygon fill="midnightblue" stroke="midnightblue" points="824.35,-202.57 834.88,-201.48 825.96,-195.76 824.35,-202.57"/>
</g>
<!-- Node22 -->
<g id="node22" class="node">
<title>Node22</title>
<g id="a_node22"><a xlink:href="itkVectorThresholdSegmentationLevelSetImageFilter_8h.html" target="_top" xlink:title=" ">
<polygon fill="white" stroke="black" points="711,-134.5 711,-164.5 887,-164.5 887,-134.5 711,-134.5"/>
<text text-anchor="start" x="719" y="-152.5" font-family="Helvetica,sans-Serif" font-size="10.00">itkVectorThresholdSegmentation</text>
<text text-anchor="middle" x="799" y="-141.5" font-family="Helvetica,sans-Serif" font-size="10.00">LevelSetImageFilter.h</text>
</a>
</g>
</g>
<!-- Node14&#45;&gt;Node22 -->
<g id="edge24" class="edge">
<title>Node14&#45;&gt;Node22</title>
<path fill="none" stroke="midnightblue" d="M865.11,-195.73C850.41,-185.68 832.89,-173.68 819.57,-164.58"/>
<polygon fill="midnightblue" stroke="midnightblue" points="863.16,-198.64 873.39,-201.4 867.11,-192.86 863.16,-198.64"/>
</g>
<!-- Node18 -->
<g id="node18" class="node">
<title>Node18</title>
<g id="a_node18"><a xlink:href="itkGeodesicActiveContourShapePriorLevelSetImageFilter_8h.html" target="_top" xlink:title=" ">
<polygon fill="white" stroke="black" points="1240.5,-67.5 1240.5,-97.5 1415.5,-97.5 1415.5,-67.5 1240.5,-67.5"/>
<text text-anchor="start" x="1248.5" y="-85.5" font-family="Helvetica,sans-Serif" font-size="10.00">itkGeodesicActiveContour</text>
<text text-anchor="middle" x="1328" y="-74.5" font-family="Helvetica,sans-Serif" font-size="10.00">ShapePriorLevelSetImageFilter.h</text>
</a>
</g>
</g>
<!-- Node17&#45;&gt;Node18 -->
<g id="edge20" class="edge">
<title>Node17&#45;&gt;Node18</title>
<path fill="none" stroke="midnightblue" d="M1328,-124.11C1328,-115.15 1328,-105.32 1328,-97.58"/>
<polygon fill="midnightblue" stroke="midnightblue" points="1324.5,-124.4 1328,-134.4 1331.5,-124.4 1324.5,-124.4"/>
</g>
</g>
</svg>
