<?xml version="1.0" encoding="UTF-8" standalone="no"?>
<!DOCTYPE svg PUBLIC "-//W3C//DTD SVG 1.1//EN"
 "http://www.w3.org/Graphics/SVG/1.1/DTD/svg11.dtd">
<!-- Generated by graphviz version 2.43.0 (0)
 -->
<!-- Title: itkSegmentationLevelSetImageFilter.h Pages: 1 -->
<svg width="1368pt" height="173pt"
 viewBox="0.00 0.00 1367.50 173.00" xmlns="http://www.w3.org/2000/svg" xmlns:xlink="http://www.w3.org/1999/xlink">
<g id="graph0" class="graph" transform="scale(1 1) rotate(0) translate(4 169)">
<title>itkSegmentationLevelSetImageFilter.h</title>
<polygon fill="white" stroke="transparent" points="-4,4 -4,-169 1363.5,-169 1363.5,4 -4,4"/>
<!-- Node1 -->
<g id="node1" class="node">
<title>Node1</title>
<g id="a_node1"><a xlink:title=" ">
<polygon fill="#bfbfbf" stroke="black" points="593.5,-134.5 593.5,-164.5 763.5,-164.5 763.5,-134.5 593.5,-134.5"/>
<text text-anchor="start" x="601.5" y="-152.5" font-family="Helvetica,sans-Serif" font-size="10.00">itkSegmentationLevelSetImage</text>
<text text-anchor="middle" x="678.5" y="-141.5" font-family="Helvetica,sans-Serif" font-size="10.00">Filter.h</text>
</a>
</g>
</g>
<!-- Node2 -->
<g id="node2" class="node">
<title>Node2</title>
<g id="a_node2"><a xlink:href="itkCannySegmentationLevelSetImageFilter_8h.html" target="_top" xlink:title=" ">
<polygon fill="white" stroke="black" points="0,-67.5 0,-97.5 155,-97.5 155,-67.5 0,-67.5"/>
<text text-anchor="start" x="8" y="-85.5" font-family="Helvetica,sans-Serif" font-size="10.00">itkCannySegmentationLevel</text>
<text text-anchor="middle" x="77.5" y="-74.5" font-family="Helvetica,sans-Serif" font-size="10.00">SetImageFilter.h</text>
</a>
</g>
</g>
<!-- Node1&#45;&gt;Node2 -->
<g id="edge1" class="edge">
<title>Node1&#45;&gt;Node2</title>
<path fill="none" stroke="midnightblue" d="M583.16,-141.06C479.8,-132.55 310.1,-117.26 164.5,-98 161.46,-97.6 158.37,-97.17 155.25,-96.72"/>
<polygon fill="midnightblue" stroke="midnightblue" points="583.01,-144.56 593.26,-141.89 583.58,-137.59 583.01,-144.56"/>
</g>
<!-- Node3 -->
<g id="node3" class="node">
<title>Node3</title>
<g id="a_node3"><a xlink:href="itkCurvesLevelSetImageFilter_8h.html" target="_top" xlink:title=" ">
<polygon fill="white" stroke="black" points="173,-73 173,-92 342,-92 342,-73 173,-73"/>
<text text-anchor="middle" x="257.5" y="-80" font-family="Helvetica,sans-Serif" font-size="10.00">itkCurvesLevelSetImageFilter.h</text>
</a>
</g>
</g>
<!-- Node1&#45;&gt;Node3 -->
<g id="edge2" class="edge">
<title>Node1&#45;&gt;Node3</title>
<path fill="none" stroke="midnightblue" d="M583.31,-133.8C499.86,-120.92 381.45,-102.64 312.74,-92.03"/>
<polygon fill="midnightblue" stroke="midnightblue" points="582.89,-137.28 593.3,-135.35 583.96,-130.36 582.89,-137.28"/>
</g>
<!-- Node4 -->
<g id="node4" class="node">
<title>Node4</title>
<g id="a_node4"><a xlink:href="itkGeodesicActiveContourLevelSetImageFilter_8h.html" target="_top" xlink:title=" ">
<polygon fill="white" stroke="black" points="360,-67.5 360,-97.5 503,-97.5 503,-67.5 360,-67.5"/>
<text text-anchor="start" x="368" y="-85.5" font-family="Helvetica,sans-Serif" font-size="10.00">itkGeodesicActiveContour</text>
<text text-anchor="middle" x="431.5" y="-74.5" font-family="Helvetica,sans-Serif" font-size="10.00">LevelSetImageFilter.h</text>
</a>
</g>
</g>
<!-- Node1&#45;&gt;Node4 -->
<g id="edge3" class="edge">
<title>Node1&#45;&gt;Node4</title>
<path fill="none" stroke="midnightblue" d="M615.49,-131.92C575.18,-121.31 523.46,-107.7 485.12,-97.61"/>
<polygon fill="midnightblue" stroke="midnightblue" points="614.65,-135.32 625.21,-134.48 616.43,-128.55 614.65,-135.32"/>
</g>
<!-- Node5 -->
<g id="node5" class="node">
<title>Node5</title>
<g id="a_node5"><a xlink:href="itkShapePriorSegmentationLevelSetImageFilter_8h.html" target="_top" xlink:title=" ">
<polygon fill="white" stroke="black" points="521.5,-67.5 521.5,-97.5 671.5,-97.5 671.5,-67.5 521.5,-67.5"/>
<text text-anchor="start" x="529.5" y="-85.5" font-family="Helvetica,sans-Serif" font-size="10.00">itkShapePriorSegmentation</text>
<text text-anchor="middle" x="596.5" y="-74.5" font-family="Helvetica,sans-Serif" font-size="10.00">LevelSetImageFilter.h</text>
</a>
</g>
</g>
<!-- Node1&#45;&gt;Node5 -->
<g id="edge4" class="edge">
<title>Node1&#45;&gt;Node5</title>
<path fill="none" stroke="midnightblue" d="M652.85,-128.17C640.31,-118.23 625.53,-106.51 614.26,-97.58"/>
<polygon fill="midnightblue" stroke="midnightblue" points="650.7,-130.93 660.71,-134.4 655.04,-125.44 650.7,-130.93"/>
</g>
<!-- Node7 -->
<g id="node7" class="node">
<title>Node7</title>
<g id="a_node7"><a xlink:href="itkLaplacianSegmentationLevelSetImageFilter_8h.html" target="_top" xlink:title=" ">
<polygon fill="white" stroke="black" points="689.5,-67.5 689.5,-97.5 833.5,-97.5 833.5,-67.5 689.5,-67.5"/>
<text text-anchor="start" x="697.5" y="-85.5" font-family="Helvetica,sans-Serif" font-size="10.00">itkLaplacianSegmentation</text>
<text text-anchor="middle" x="761.5" y="-74.5" font-family="Helvetica,sans-Serif" font-size="10.00">LevelSetImageFilter.h</text>
</a>
</g>
</g>
<!-- Node1&#45;&gt;Node7 -->
<g id="edge6" class="edge">
<title>Node1&#45;&gt;Node7</title>
<path fill="none" stroke="midnightblue" d="M704.46,-128.17C717.15,-118.23 732.11,-106.51 743.53,-97.58"/>
<polygon fill="midnightblue" stroke="midnightblue" points="702.22,-125.47 696.51,-134.4 706.54,-130.99 702.22,-125.47"/>
</g>
<!-- Node8 -->
<g id="node8" class="node">
<title>Node8</title>
<g id="a_node8"><a xlink:href="itkShapeDetectionLevelSetImageFilter_8h.html" target="_top" xlink:title=" ">
<polygon fill="white" stroke="black" points="852,-67.5 852,-97.5 1001,-97.5 1001,-67.5 852,-67.5"/>
<text text-anchor="start" x="860" y="-85.5" font-family="Helvetica,sans-Serif" font-size="10.00">itkShapeDetectionLevelSet</text>
<text text-anchor="middle" x="926.5" y="-74.5" font-family="Helvetica,sans-Serif" font-size="10.00">ImageFilter.h</text>
</a>
</g>
</g>
<!-- Node1&#45;&gt;Node8 -->
<g id="edge7" class="edge">
<title>Node1&#45;&gt;Node8</title>
<path fill="none" stroke="midnightblue" d="M741.77,-131.92C782.24,-121.31 834.17,-107.7 872.66,-97.61"/>
<polygon fill="midnightblue" stroke="midnightblue" points="740.79,-128.55 732.01,-134.48 742.57,-135.33 740.79,-128.55"/>
</g>
<!-- Node9 -->
<g id="node9" class="node">
<title>Node9</title>
<g id="a_node9"><a xlink:href="itkThresholdSegmentationLevelSetImageFilter_8h.html" target="_top" xlink:title=" ">
<polygon fill="white" stroke="black" points="1019.5,-67.5 1019.5,-97.5 1165.5,-97.5 1165.5,-67.5 1019.5,-67.5"/>
<text text-anchor="start" x="1027.5" y="-85.5" font-family="Helvetica,sans-Serif" font-size="10.00">itkThresholdSegmentation</text>
<text text-anchor="middle" x="1092.5" y="-74.5" font-family="Helvetica,sans-Serif" font-size="10.00">LevelSetImageFilter.h</text>
</a>
</g>
</g>
<!-- Node1&#45;&gt;Node9 -->
<g id="edge8" class="edge">
<title>Node1&#45;&gt;Node9</title>
<path fill="none" stroke="midnightblue" d="M773.57,-134.66C840.01,-124.84 930.75,-111.12 1010.5,-98 1013.35,-97.53 1016.26,-97.05 1019.2,-96.55"/>
<polygon fill="midnightblue" stroke="midnightblue" points="772.92,-131.22 763.54,-136.14 773.94,-138.14 772.92,-131.22"/>
</g>
<!-- Node10 -->
<g id="node10" class="node">
<title>Node10</title>
<g id="a_node10"><a xlink:href="itkVectorThresholdSegmentationLevelSetImageFilter_8h.html" target="_top" xlink:title=" ">
<polygon fill="white" stroke="black" points="1183.5,-67.5 1183.5,-97.5 1359.5,-97.5 1359.5,-67.5 1183.5,-67.5"/>
<text text-anchor="start" x="1191.5" y="-85.5" font-family="Helvetica,sans-Serif" font-size="10.00">itkVectorThresholdSegmentation</text>
<text text-anchor="middle" x="1271.5" y="-74.5" font-family="Helvetica,sans-Serif" font-size="10.00">LevelSetImageFilter.h</text>
</a>
</g>
</g>
<!-- Node1&#45;&gt;Node10 -->
<g id="edge9" class="edge">
<title>Node1&#45;&gt;Node10</title>
<path fill="none" stroke="midnightblue" d="M773.85,-140.13C873.83,-131.04 1035.42,-115.47 1174.5,-98 1177.46,-97.63 1180.46,-97.24 1183.5,-96.84"/>
<polygon fill="midnightblue" stroke="midnightblue" points="773.41,-136.66 763.77,-141.04 774.05,-143.63 773.41,-136.66"/>
</g>
<!-- Node6 -->
<g id="node6" class="node">
<title>Node6</title>
<g id="a_node6"><a xlink:href="itkGeodesicActiveContourShapePriorLevelSetImageFilter_8h.html" target="_top" xlink:title=" ">
<polygon fill="white" stroke="black" points="509,-0.5 509,-30.5 684,-30.5 684,-0.5 509,-0.5"/>
<text text-anchor="start" x="517" y="-18.5" font-family="Helvetica,sans-Serif" font-size="10.00">itkGeodesicActiveContour</text>
<text text-anchor="middle" x="596.5" y="-7.5" font-family="Helvetica,sans-Serif" font-size="10.00">ShapePriorLevelSetImageFilter.h</text>
</a>
</g>
</g>
<!-- Node5&#45;&gt;Node6 -->
<g id="edge5" class="edge">
<title>Node5&#45;&gt;Node6</title>
<path fill="none" stroke="midnightblue" d="M596.5,-57.11C596.5,-48.15 596.5,-38.32 596.5,-30.58"/>
<polygon fill="midnightblue" stroke="midnightblue" points="593,-57.4 596.5,-67.4 600,-57.4 593,-57.4"/>
</g>
</g>
</svg>
