<?xml version="1.0" encoding="UTF-8" standalone="no"?>
<!DOCTYPE svg PUBLIC "-//W3C//DTD SVG 1.1//EN"
 "http://www.w3.org/Graphics/SVG/1.1/DTD/svg11.dtd">
<!-- Generated by graphviz version 2.43.0 (0)
 -->
<!-- Title: itkSimplexMeshGeometry.h Pages: 1 -->
<svg width="986pt" height="218pt"
 viewBox="0.00 0.00 985.50 218.00" xmlns="http://www.w3.org/2000/svg" xmlns:xlink="http://www.w3.org/1999/xlink">
<g id="graph0" class="graph" transform="scale(1 1) rotate(0) translate(4 214)">
<title>itkSimplexMeshGeometry.h</title>
<polygon fill="white" stroke="transparent" points="-4,4 -4,-214 981.5,-214 981.5,4 -4,4"/>
<!-- Node1 -->
<g id="node1" class="node">
<title>Node1</title>
<g id="a_node1"><a xlink:title=" ">
<polygon fill="#bfbfbf" stroke="black" points="366.5,-190.5 366.5,-209.5 518.5,-209.5 518.5,-190.5 366.5,-190.5"/>
<text text-anchor="middle" x="442.5" y="-197.5" font-family="Helvetica,sans-Serif" font-size="10.00">itkSimplexMeshGeometry.h</text>
</a>
</g>
</g>
<!-- Node2 -->
<g id="node2" class="node">
<title>Node2</title>
<g id="a_node2"><a xlink:href="itkSimplexMesh_8h.html" target="_top" xlink:title=" ">
<polygon fill="white" stroke="black" points="390.5,-134.5 390.5,-153.5 494.5,-153.5 494.5,-134.5 390.5,-134.5"/>
<text text-anchor="middle" x="442.5" y="-141.5" font-family="Helvetica,sans-Serif" font-size="10.00">itkSimplexMesh.h</text>
</a>
</g>
</g>
<!-- Node1&#45;&gt;Node2 -->
<g id="edge1" class="edge">
<title>Node1&#45;&gt;Node2</title>
<path fill="none" stroke="midnightblue" d="M442.5,-179.8C442.5,-170.91 442.5,-160.78 442.5,-153.75"/>
<polygon fill="midnightblue" stroke="midnightblue" points="439,-180.08 442.5,-190.08 446,-180.08 439,-180.08"/>
</g>
<!-- Node3 -->
<g id="node3" class="node">
<title>Node3</title>
<g id="a_node3"><a xlink:href="itkSimplexMeshAdaptTopologyFilter_8h.html" target="_top" xlink:title=" ">
<polygon fill="white" stroke="black" points="0,-67.5 0,-97.5 167,-97.5 167,-67.5 0,-67.5"/>
<text text-anchor="start" x="8" y="-85.5" font-family="Helvetica,sans-Serif" font-size="10.00">itkSimplexMeshAdaptTopology</text>
<text text-anchor="middle" x="83.5" y="-74.5" font-family="Helvetica,sans-Serif" font-size="10.00">Filter.h</text>
</a>
</g>
</g>
<!-- Node2&#45;&gt;Node3 -->
<g id="edge2" class="edge">
<title>Node2&#45;&gt;Node3</title>
<path fill="none" stroke="midnightblue" d="M381.15,-132.83C322.16,-123.06 232.56,-108.2 167.07,-97.35"/>
<polygon fill="midnightblue" stroke="midnightblue" points="380.63,-136.29 391.06,-134.48 381.77,-129.39 380.63,-136.29"/>
</g>
<!-- Node4 -->
<g id="node4" class="node">
<title>Node4</title>
<g id="a_node4"><a xlink:href="itkSimplexMeshToTriangleMeshFilter_8h.html" target="_top" xlink:title=" ">
<polygon fill="white" stroke="black" points="185.5,-67.5 185.5,-97.5 329.5,-97.5 329.5,-67.5 185.5,-67.5"/>
<text text-anchor="start" x="193.5" y="-85.5" font-family="Helvetica,sans-Serif" font-size="10.00">itkSimplexMeshToTriangle</text>
<text text-anchor="middle" x="257.5" y="-74.5" font-family="Helvetica,sans-Serif" font-size="10.00">MeshFilter.h</text>
</a>
</g>
</g>
<!-- Node2&#45;&gt;Node4 -->
<g id="edge3" class="edge">
<title>Node2&#45;&gt;Node4</title>
<path fill="none" stroke="midnightblue" d="M406.3,-131.36C376.15,-121.66 333.14,-107.83 301.1,-97.52"/>
<polygon fill="midnightblue" stroke="midnightblue" points="405.4,-134.75 415.99,-134.48 407.55,-128.08 405.4,-134.75"/>
</g>
<!-- Node5 -->
<g id="node5" class="node">
<title>Node5</title>
<g id="a_node5"><a xlink:href="itkSimplexMeshVolumeCalculator_8h.html" target="_top" xlink:title=" ">
<polygon fill="white" stroke="black" points="347.5,-73 347.5,-92 537.5,-92 537.5,-73 347.5,-73"/>
<text text-anchor="middle" x="442.5" y="-80" font-family="Helvetica,sans-Serif" font-size="10.00">itkSimplexMeshVolumeCalculator.h</text>
</a>
</g>
</g>
<!-- Node2&#45;&gt;Node5 -->
<g id="edge4" class="edge">
<title>Node2&#45;&gt;Node5</title>
<path fill="none" stroke="midnightblue" d="M442.5,-124.32C442.5,-113.5 442.5,-100.4 442.5,-92.01"/>
<polygon fill="midnightblue" stroke="midnightblue" points="439,-124.48 442.5,-134.48 446,-124.48 439,-124.48"/>
</g>
<!-- Node6 -->
<g id="node6" class="node">
<title>Node6</title>
<g id="a_node6"><a xlink:href="itkTriangleMeshToSimplexMeshFilter_8h.html" target="_top" xlink:title=" ">
<polygon fill="white" stroke="black" points="555.5,-67.5 555.5,-97.5 699.5,-97.5 699.5,-67.5 555.5,-67.5"/>
<text text-anchor="start" x="563.5" y="-85.5" font-family="Helvetica,sans-Serif" font-size="10.00">itkTriangleMeshToSimplex</text>
<text text-anchor="middle" x="627.5" y="-74.5" font-family="Helvetica,sans-Serif" font-size="10.00">MeshFilter.h</text>
</a>
</g>
</g>
<!-- Node2&#45;&gt;Node6 -->
<g id="edge5" class="edge">
<title>Node2&#45;&gt;Node6</title>
<path fill="none" stroke="midnightblue" d="M478.7,-131.36C508.85,-121.66 551.86,-107.83 583.9,-97.52"/>
<polygon fill="midnightblue" stroke="midnightblue" points="477.45,-128.08 469.01,-134.48 479.6,-134.75 477.45,-128.08"/>
</g>
<!-- Node7 -->
<g id="node7" class="node">
<title>Node7</title>
<g id="a_node7"><a xlink:href="itkDeformableSimplexMesh3DFilter_8h.html" target="_top" xlink:title=" ">
<polygon fill="white" stroke="black" points="718,-67.5 718,-97.5 877,-97.5 877,-67.5 718,-67.5"/>
<text text-anchor="start" x="726" y="-85.5" font-family="Helvetica,sans-Serif" font-size="10.00">itkDeformableSimplexMesh3</text>
<text text-anchor="middle" x="797.5" y="-74.5" font-family="Helvetica,sans-Serif" font-size="10.00">DFilter.h</text>
</a>
</g>
</g>
<!-- Node2&#45;&gt;Node7 -->
<g id="edge6" class="edge">
<title>Node2&#45;&gt;Node7</title>
<path fill="none" stroke="midnightblue" d="M503.32,-132.81C562.57,-122.88 652.96,-107.73 717.91,-96.84"/>
<polygon fill="midnightblue" stroke="midnightblue" points="502.65,-129.37 493.36,-134.48 503.8,-136.27 502.65,-129.37"/>
</g>
<!-- Node8 -->
<g id="node8" class="node">
<title>Node8</title>
<g id="a_node8"><a xlink:href="itkDeformableSimplexMesh3DBalloonForceFilter_8h.html" target="_top" xlink:title=" ">
<polygon fill="white" stroke="black" points="625,-0.5 625,-30.5 784,-30.5 784,-0.5 625,-0.5"/>
<text text-anchor="start" x="633" y="-18.5" font-family="Helvetica,sans-Serif" font-size="10.00">itkDeformableSimplexMesh3</text>
<text text-anchor="middle" x="704.5" y="-7.5" font-family="Helvetica,sans-Serif" font-size="10.00">DBalloonForceFilter.h</text>
</a>
</g>
</g>
<!-- Node7&#45;&gt;Node8 -->
<g id="edge7" class="edge">
<title>Node7&#45;&gt;Node8</title>
<path fill="none" stroke="midnightblue" d="M768.81,-61.45C754.51,-51.45 737.55,-39.6 724.64,-30.58"/>
<polygon fill="midnightblue" stroke="midnightblue" points="767.12,-64.54 777.32,-67.4 771.13,-58.8 767.12,-64.54"/>
</g>
<!-- Node9 -->
<g id="node9" class="node">
<title>Node9</title>
<g id="a_node9"><a xlink:href="itkDeformableSimplexMesh3DGradientConstraintForceFilter_8h.html" target="_top" xlink:title=" ">
<polygon fill="white" stroke="black" points="801.5,-0.5 801.5,-30.5 977.5,-30.5 977.5,-0.5 801.5,-0.5"/>
<text text-anchor="start" x="809.5" y="-18.5" font-family="Helvetica,sans-Serif" font-size="10.00">itkDeformableSimplexMesh3</text>
<text text-anchor="middle" x="889.5" y="-7.5" font-family="Helvetica,sans-Serif" font-size="10.00">DGradientConstraintForceFilter.h</text>
</a>
</g>
</g>
<!-- Node7&#45;&gt;Node9 -->
<g id="edge8" class="edge">
<title>Node7&#45;&gt;Node9</title>
<path fill="none" stroke="midnightblue" d="M825.88,-61.45C840.03,-51.45 856.81,-39.6 869.58,-30.58"/>
<polygon fill="midnightblue" stroke="midnightblue" points="823.61,-58.77 817.46,-67.4 827.65,-64.48 823.61,-58.77"/>
</g>
</g>
</svg>
