<?xml version="1.0" encoding="UTF-8" standalone="no"?>
<!DOCTYPE svg PUBLIC "-//W3C//DTD SVG 1.1//EN"
 "http://www.w3.org/Graphics/SVG/1.1/DTD/svg11.dtd">
<!-- Generated by graphviz version 2.43.0 (0)
 -->
<!-- Title: itkSpatialObjectProperty.h Pages: 1 -->
<svg width="1957pt" height="599pt"
 viewBox="0.00 0.00 1957.20 599.00" xmlns="http://www.w3.org/2000/svg" xmlns:xlink="http://www.w3.org/1999/xlink">
<g id="graph0" class="graph" transform="scale(1 1) rotate(0) translate(4 595)">
<title>itkSpatialObjectProperty.h</title>
<polygon fill="white" stroke="transparent" points="-4,4 -4,-595 1953.2,-595 1953.2,4 -4,4"/>
<!-- Node1 -->
<g id="node1" class="node">
<title>Node1</title>
<g id="a_node1"><a xlink:title=" ">
<polygon fill="#bfbfbf" stroke="black" points="1218.2,-571.5 1218.2,-590.5 1361.2,-590.5 1361.2,-571.5 1218.2,-571.5"/>
<text text-anchor="middle" x="1289.7" y="-578.5" font-family="Helvetica,sans-Serif" font-size="10.00">itkSpatialObjectProperty.h</text>
</a>
</g>
</g>
<!-- Node2 -->
<g id="node2" class="node">
<title>Node2</title>
<g id="a_node2"><a xlink:title=" ">
<polygon fill="white" stroke="#bfbfbf" points="899.7,-235.5 899.7,-254.5 943.7,-254.5 943.7,-235.5 899.7,-235.5"/>
<text text-anchor="middle" x="921.7" y="-242.5" font-family="Helvetica,sans-Serif" font-size="10.00">string</text>
</a>
</g>
</g>
<!-- Node1&#45;&gt;Node2 -->
<g id="edge1" class="edge">
<title>Node1&#45;&gt;Node2</title>
<path fill="none" stroke="midnightblue" d="M1217.86,-572.46C1114.13,-559.54 934.7,-528.72 934.7,-470 934.7,-470 934.7,-470 934.7,-356 934.7,-323.58 929.06,-286.15 925.21,-264.37"/>
<polygon fill="midnightblue" stroke="midnightblue" points="928.65,-263.72 923.4,-254.52 921.77,-264.99 928.65,-263.72"/>
</g>
<!-- Node3 -->
<g id="node3" class="node">
<title>Node3</title>
<g id="a_node3"><a xlink:title=" ">
<polygon fill="white" stroke="#bfbfbf" points="961.7,-235.5 961.7,-254.5 999.7,-254.5 999.7,-235.5 961.7,-235.5"/>
<text text-anchor="middle" x="980.7" y="-242.5" font-family="Helvetica,sans-Serif" font-size="10.00">map</text>
</a>
</g>
</g>
<!-- Node1&#45;&gt;Node3 -->
<g id="edge2" class="edge">
<title>Node1&#45;&gt;Node3</title>
<path fill="none" stroke="midnightblue" d="M1218.15,-579.88C1139.06,-575.53 1022.7,-554.73 1022.7,-470 1022.7,-470 1022.7,-470 1022.7,-356 1022.7,-321.41 1004.36,-284.49 991.91,-263.43"/>
<polygon fill="midnightblue" stroke="midnightblue" points="994.76,-261.38 986.54,-254.69 988.8,-265.04 994.76,-261.38"/>
</g>
<!-- Node4 -->
<g id="node4" class="node">
<title>Node4</title>
<g id="a_node4"><a xlink:href="itkLightObject_8h.html" target="_top" xlink:title=" ">
<polygon fill="white" stroke="black" points="1377.7,-179.5 1377.7,-198.5 1471.7,-198.5 1471.7,-179.5 1377.7,-179.5"/>
<text text-anchor="middle" x="1424.7" y="-186.5" font-family="Helvetica,sans-Serif" font-size="10.00">itkLightObject.h</text>
</a>
</g>
</g>
<!-- Node1&#45;&gt;Node4 -->
<g id="edge3" class="edge">
<title>Node1&#45;&gt;Node4</title>
<path fill="none" stroke="midnightblue" d="M1289.7,-571.44C1289.7,-552.94 1289.7,-507.81 1289.7,-470 1289.7,-470 1289.7,-470 1289.7,-356 1289.7,-325.9 1289.05,-313.8 1308.7,-291 1333.63,-262.08 1358.43,-280.66 1386.7,-255 1401.03,-241.99 1411.5,-222.29 1417.78,-207.98"/>
<polygon fill="midnightblue" stroke="midnightblue" points="1421.03,-209.28 1421.6,-198.7 1414.56,-206.61 1421.03,-209.28"/>
</g>
<!-- Node11 -->
<g id="node11" class="node">
<title>Node11</title>
<g id="a_node11"><a xlink:href="itkTimeStamp_8h.html" target="_top" xlink:title=" ">
<polygon fill="white" stroke="black" points="1584.2,-118 1584.2,-137 1679.2,-137 1679.2,-118 1584.2,-118"/>
<text text-anchor="middle" x="1631.7" y="-125" font-family="Helvetica,sans-Serif" font-size="10.00">itkTimeStamp.h</text>
</a>
</g>
</g>
<!-- Node1&#45;&gt;Node11 -->
<g id="edge57" class="edge">
<title>Node1&#45;&gt;Node11</title>
<path fill="none" stroke="midnightblue" d="M1361.45,-578.6C1497.09,-574 1777.7,-554.3 1777.7,-470 1777.7,-470 1777.7,-470 1777.7,-412 1777.7,-299.09 1685.04,-186.15 1647.36,-144.89"/>
<polygon fill="midnightblue" stroke="midnightblue" points="1649.77,-142.35 1640.4,-137.41 1644.64,-147.11 1649.77,-142.35"/>
</g>
<!-- Node19 -->
<g id="node19" class="node">
<title>Node19</title>
<g id="a_node19"><a xlink:href="itkRGBAPixel_8h.html" target="_top" xlink:title=" ">
<polygon fill="white" stroke="black" points="648.2,-235.5 648.2,-254.5 737.2,-254.5 737.2,-235.5 648.2,-235.5"/>
<text text-anchor="middle" x="692.7" y="-242.5" font-family="Helvetica,sans-Serif" font-size="10.00">itkRGBAPixel.h</text>
</a>
</g>
</g>
<!-- Node1&#45;&gt;Node19 -->
<g id="edge24" class="edge">
<title>Node1&#45;&gt;Node19</title>
<path fill="none" stroke="midnightblue" d="M1217.99,-578.84C1080.81,-574.66 794.7,-555.67 794.7,-470 794.7,-470 794.7,-470 794.7,-356 794.7,-311.39 749.04,-277.23 718.82,-259.51"/>
<polygon fill="midnightblue" stroke="midnightblue" points="720.44,-256.4 710.01,-254.55 717,-262.5 720.44,-256.4"/>
</g>
<!-- Node39 -->
<g id="node39" class="node">
<title>Node39</title>
<g id="a_node39"><a xlink:href="itkObjectFactory_8h.html" target="_top" xlink:title=" ">
<polygon fill="white" stroke="black" points="1407.7,-515.5 1407.7,-534.5 1511.7,-534.5 1511.7,-515.5 1407.7,-515.5"/>
<text text-anchor="middle" x="1459.7" y="-522.5" font-family="Helvetica,sans-Serif" font-size="10.00">itkObjectFactory.h</text>
</a>
</g>
</g>
<!-- Node1&#45;&gt;Node39 -->
<g id="edge58" class="edge">
<title>Node1&#45;&gt;Node39</title>
<path fill="none" stroke="midnightblue" d="M1316.64,-571.44C1345.36,-562.32 1391.03,-547.81 1423.02,-537.65"/>
<polygon fill="midnightblue" stroke="midnightblue" points="1424.42,-540.88 1432.89,-534.52 1422.3,-534.21 1424.42,-540.88"/>
</g>
<!-- Node52 -->
<g id="node52" class="node">
<title>Node52</title>
<g id="a_node52"><a xlink:title=" ">
<polygon fill="white" stroke="#bfbfbf" points="1806.2,-515.5 1806.2,-534.5 1949.2,-534.5 1949.2,-515.5 1806.2,-515.5"/>
<text text-anchor="middle" x="1877.7" y="-522.5" font-family="Helvetica,sans-Serif" font-size="10.00">ITKSpatialObjectsExport.h</text>
</a>
</g>
</g>
<!-- Node1&#45;&gt;Node52 -->
<g id="edge83" class="edge">
<title>Node1&#45;&gt;Node52</title>
<path fill="none" stroke="midnightblue" d="M1361.23,-573.93C1458.63,-565.58 1638.42,-549.89 1791.7,-535 1793.01,-534.87 1794.32,-534.75 1795.64,-534.62"/>
<polygon fill="midnightblue" stroke="midnightblue" points="1796.31,-538.07 1805.92,-533.59 1795.62,-531.1 1796.31,-538.07"/>
</g>
<!-- Node5 -->
<g id="node5" class="node">
<title>Node5</title>
<g id="a_node5"><a xlink:href="itkMacro_8h.html" target="_top" xlink:title=" ">
<polygon fill="white" stroke="black" points="1039.7,-0.5 1039.7,-19.5 1107.7,-19.5 1107.7,-0.5 1039.7,-0.5"/>
<text text-anchor="middle" x="1073.7" y="-7.5" font-family="Helvetica,sans-Serif" font-size="10.00">itkMacro.h</text>
</a>
</g>
</g>
<!-- Node4&#45;&gt;Node5 -->
<g id="edge4" class="edge">
<title>Node4&#45;&gt;Node5</title>
<path fill="none" stroke="midnightblue" d="M1428.15,-179.26C1436.7,-155.94 1456.04,-91.61 1424.7,-56 1404.72,-33.29 1207.73,-18.89 1117.92,-13.45"/>
<polygon fill="midnightblue" stroke="midnightblue" points="1117.97,-9.95 1107.78,-12.85 1117.55,-16.94 1117.97,-9.95"/>
</g>
<!-- Node6 -->
<g id="node6" class="node">
<title>Node6</title>
<g id="a_node6"><a xlink:href="itkSmartPointer_8h.html" target="_top" xlink:title=" ">
<polygon fill="white" stroke="black" points="1313.2,-118 1313.2,-137 1414.2,-137 1414.2,-118 1313.2,-118"/>
<text text-anchor="middle" x="1363.7" y="-125" font-family="Helvetica,sans-Serif" font-size="10.00">itkSmartPointer.h</text>
</a>
</g>
</g>
<!-- Node4&#45;&gt;Node6 -->
<g id="edge5" class="edge">
<title>Node4&#45;&gt;Node6</title>
<path fill="none" stroke="midnightblue" d="M1415.96,-179.48C1406.54,-170.28 1391.34,-155.46 1379.75,-144.16"/>
<polygon fill="midnightblue" stroke="midnightblue" points="1382.03,-141.49 1372.43,-137.01 1377.14,-146.5 1382.03,-141.49"/>
</g>
<!-- Node7 -->
<g id="node7" class="node">
<title>Node7</title>
<g id="a_node7"><a xlink:title=" ">
<polygon fill="white" stroke="#bfbfbf" points="1101.7,-56.5 1101.7,-75.5 1161.7,-75.5 1161.7,-56.5 1101.7,-56.5"/>
<text text-anchor="middle" x="1131.7" y="-63.5" font-family="Helvetica,sans-Serif" font-size="10.00">iostream</text>
</a>
</g>
</g>
<!-- Node4&#45;&gt;Node7 -->
<g id="edge22" class="edge">
<title>Node4&#45;&gt;Node7</title>
<path fill="none" stroke="midnightblue" d="M1395.69,-179.42C1370.82,-171.54 1334.41,-158.7 1304.7,-143 1283.55,-131.82 1281.98,-122.93 1260.7,-112 1232.21,-97.36 1197.87,-85.64 1171.79,-77.83"/>
<polygon fill="midnightblue" stroke="midnightblue" points="1172.45,-74.38 1161.87,-74.94 1170.49,-81.1 1172.45,-74.38"/>
</g>
<!-- Node4&#45;&gt;Node11 -->
<g id="edge10" class="edge">
<title>Node4&#45;&gt;Node11</title>
<path fill="none" stroke="midnightblue" d="M1454.36,-179.48C1490.64,-169.05 1552.17,-151.36 1592.37,-139.81"/>
<polygon fill="midnightblue" stroke="midnightblue" points="1593.46,-143.14 1602.1,-137.01 1591.52,-136.41 1593.46,-143.14"/>
</g>
<!-- Node15 -->
<g id="node15" class="node">
<title>Node15</title>
<g id="a_node15"><a xlink:title=" ">
<polygon fill="white" stroke="#bfbfbf" points="1472.7,-56.5 1472.7,-75.5 1522.7,-75.5 1522.7,-56.5 1472.7,-56.5"/>
<text text-anchor="middle" x="1497.7" y="-63.5" font-family="Helvetica,sans-Serif" font-size="10.00">atomic</text>
</a>
</g>
</g>
<!-- Node4&#45;&gt;Node15 -->
<g id="edge21" class="edge">
<title>Node4&#45;&gt;Node15</title>
<path fill="none" stroke="midnightblue" d="M1431.41,-179.26C1438.13,-170.35 1448.6,-156.02 1456.7,-143 1468.78,-123.58 1481.03,-100.31 1488.95,-84.68"/>
<polygon fill="midnightblue" stroke="midnightblue" points="1492.14,-86.14 1493.49,-75.63 1485.88,-83 1492.14,-86.14"/>
</g>
<!-- Node17 -->
<g id="node17" class="node">
<title>Node17</title>
<g id="a_node17"><a xlink:href="itkIndent_8h.html" target="_top" xlink:title=" ">
<polygon fill="white" stroke="black" points="1149.2,-118 1149.2,-137 1218.2,-137 1218.2,-118 1149.2,-118"/>
<text text-anchor="middle" x="1183.7" y="-125" font-family="Helvetica,sans-Serif" font-size="10.00">itkIndent.h</text>
</a>
</g>
</g>
<!-- Node4&#45;&gt;Node17 -->
<g id="edge18" class="edge">
<title>Node4&#45;&gt;Node17</title>
<path fill="none" stroke="midnightblue" d="M1390.17,-179.48C1347.49,-168.94 1274.78,-150.99 1228.02,-139.44"/>
<polygon fill="midnightblue" stroke="midnightblue" points="1228.72,-136.01 1218.17,-137.01 1227.04,-142.8 1228.72,-136.01"/>
</g>
<!-- Node18 -->
<g id="node18" class="node">
<title>Node18</title>
<g id="a_node18"><a xlink:title=" ">
<polygon fill="white" stroke="#bfbfbf" points="1509.2,-118 1509.2,-137 1566.2,-137 1566.2,-118 1509.2,-118"/>
<text text-anchor="middle" x="1537.7" y="-125" font-family="Helvetica,sans-Serif" font-size="10.00">typeinfo</text>
</a>
</g>
</g>
<!-- Node4&#45;&gt;Node18 -->
<g id="edge23" class="edge">
<title>Node4&#45;&gt;Node18</title>
<path fill="none" stroke="midnightblue" d="M1440.89,-179.48C1459.61,-169.62 1490.63,-153.29 1512.5,-141.77"/>
<polygon fill="midnightblue" stroke="midnightblue" points="1514.33,-144.77 1521.54,-137.01 1511.06,-138.57 1514.33,-144.77"/>
</g>
<!-- Node6&#45;&gt;Node7 -->
<g id="edge6" class="edge">
<title>Node6&#45;&gt;Node7</title>
<path fill="none" stroke="midnightblue" d="M1330.46,-117.98C1288.53,-107.22 1216.49,-88.74 1171.62,-77.24"/>
<polygon fill="midnightblue" stroke="midnightblue" points="1172.49,-73.85 1161.93,-74.75 1170.75,-80.63 1172.49,-73.85"/>
</g>
<!-- Node8 -->
<g id="node8" class="node">
<title>Node8</title>
<g id="a_node8"><a xlink:title=" ">
<polygon fill="white" stroke="#bfbfbf" points="1180.2,-56.5 1180.2,-75.5 1225.2,-75.5 1225.2,-56.5 1180.2,-56.5"/>
<text text-anchor="middle" x="1202.7" y="-63.5" font-family="Helvetica,sans-Serif" font-size="10.00">utility</text>
</a>
</g>
</g>
<!-- Node6&#45;&gt;Node8 -->
<g id="edge7" class="edge">
<title>Node6&#45;&gt;Node8</title>
<path fill="none" stroke="midnightblue" d="M1340.64,-117.98C1312.86,-107.71 1266.06,-90.41 1234.78,-78.85"/>
<polygon fill="midnightblue" stroke="midnightblue" points="1235.8,-75.5 1225.21,-75.32 1233.38,-82.07 1235.8,-75.5"/>
</g>
<!-- Node9 -->
<g id="node9" class="node">
<title>Node9</title>
<g id="a_node9"><a xlink:title=" ">
<polygon fill="white" stroke="#bfbfbf" points="1243.2,-56.5 1243.2,-75.5 1312.2,-75.5 1312.2,-56.5 1243.2,-56.5"/>
<text text-anchor="middle" x="1277.7" y="-63.5" font-family="Helvetica,sans-Serif" font-size="10.00">type_traits</text>
</a>
</g>
</g>
<!-- Node6&#45;&gt;Node9 -->
<g id="edge8" class="edge">
<title>Node6&#45;&gt;Node9</title>
<path fill="none" stroke="midnightblue" d="M1351.38,-117.98C1337.59,-108.43 1315,-92.81 1298.47,-81.37"/>
<polygon fill="midnightblue" stroke="midnightblue" points="1300.22,-78.32 1290,-75.51 1296.23,-84.08 1300.22,-78.32"/>
</g>
<!-- Node10 -->
<g id="node10" class="node">
<title>Node10</title>
<g id="a_node10"><a xlink:title=" ">
<polygon fill="white" stroke="#bfbfbf" points="1330.2,-56.5 1330.2,-75.5 1415.2,-75.5 1415.2,-56.5 1330.2,-56.5"/>
<text text-anchor="middle" x="1372.7" y="-63.5" font-family="Helvetica,sans-Serif" font-size="10.00">itkConfigure.h</text>
</a>
</g>
</g>
<!-- Node6&#45;&gt;Node10 -->
<g id="edge9" class="edge">
<title>Node6&#45;&gt;Node10</title>
<path fill="none" stroke="midnightblue" d="M1364.99,-117.98C1366.26,-109.58 1368.24,-96.48 1369.88,-85.66"/>
<polygon fill="midnightblue" stroke="midnightblue" points="1373.38,-85.92 1371.42,-75.51 1366.46,-84.87 1373.38,-85.92"/>
</g>
<!-- Node11&#45;&gt;Node5 -->
<g id="edge11" class="edge">
<title>Node11&#45;&gt;Node5</title>
<path fill="none" stroke="midnightblue" d="M1622.99,-117.91C1606.68,-102.43 1569.73,-70.14 1531.7,-56 1456.48,-28.03 1217.28,-16.25 1117.78,-12.47"/>
<polygon fill="midnightblue" stroke="midnightblue" points="1117.88,-8.97 1107.76,-12.1 1117.62,-15.97 1117.88,-8.97"/>
</g>
<!-- Node12 -->
<g id="node12" class="node">
<title>Node12</title>
<g id="a_node12"><a xlink:href="itkIntTypes_8h.html" target="_top" xlink:title=" ">
<polygon fill="white" stroke="black" points="1589.2,-56.5 1589.2,-75.5 1668.2,-75.5 1668.2,-56.5 1589.2,-56.5"/>
<text text-anchor="middle" x="1628.7" y="-63.5" font-family="Helvetica,sans-Serif" font-size="10.00">itkIntTypes.h</text>
</a>
</g>
</g>
<!-- Node11&#45;&gt;Node12 -->
<g id="edge12" class="edge">
<title>Node11&#45;&gt;Node12</title>
<path fill="none" stroke="midnightblue" d="M1631.27,-117.98C1630.85,-109.58 1630.19,-96.48 1629.64,-85.66"/>
<polygon fill="midnightblue" stroke="midnightblue" points="1633.13,-85.32 1629.13,-75.51 1626.14,-85.67 1633.13,-85.32"/>
</g>
<!-- Node11&#45;&gt;Node15 -->
<g id="edge16" class="edge">
<title>Node11&#45;&gt;Node15</title>
<path fill="none" stroke="midnightblue" d="M1612.5,-117.98C1589.92,-107.95 1552.2,-91.2 1526.2,-79.65"/>
<polygon fill="midnightblue" stroke="midnightblue" points="1527.43,-76.37 1516.87,-75.51 1524.59,-82.77 1527.43,-76.37"/>
</g>
<!-- Node16 -->
<g id="node16" class="node">
<title>Node16</title>
<g id="a_node16"><a xlink:href="itkSingletonMacro_8h.html" target="_top" xlink:title=" ">
<polygon fill="white" stroke="black" points="1688.7,-56.5 1688.7,-75.5 1802.7,-75.5 1802.7,-56.5 1688.7,-56.5"/>
<text text-anchor="middle" x="1745.7" y="-63.5" font-family="Helvetica,sans-Serif" font-size="10.00">itkSingletonMacro.h</text>
</a>
</g>
</g>
<!-- Node11&#45;&gt;Node16 -->
<g id="edge17" class="edge">
<title>Node11&#45;&gt;Node16</title>
<path fill="none" stroke="midnightblue" d="M1648.04,-117.98C1666.91,-108.12 1698.21,-91.79 1720.28,-80.27"/>
<polygon fill="midnightblue" stroke="midnightblue" points="1722.15,-83.24 1729.4,-75.51 1718.92,-77.03 1722.15,-83.24"/>
</g>
<!-- Node12&#45;&gt;Node5 -->
<g id="edge13" class="edge">
<title>Node12&#45;&gt;Node5</title>
<path fill="none" stroke="midnightblue" d="M1589.2,-58.41C1583.34,-57.54 1577.37,-56.7 1571.7,-56 1404.68,-35.29 1205.03,-20.14 1117.95,-14.01"/>
<polygon fill="midnightblue" stroke="midnightblue" points="1118.12,-10.51 1107.9,-13.3 1117.63,-17.49 1118.12,-10.51"/>
</g>
<!-- Node13 -->
<g id="node13" class="node">
<title>Node13</title>
<g id="a_node13"><a xlink:title=" ">
<polygon fill="white" stroke="#bfbfbf" points="1637.7,-0.5 1637.7,-19.5 1687.7,-19.5 1687.7,-0.5 1637.7,-0.5"/>
<text text-anchor="middle" x="1662.7" y="-7.5" font-family="Helvetica,sans-Serif" font-size="10.00">cstdint</text>
</a>
</g>
</g>
<!-- Node12&#45;&gt;Node13 -->
<g id="edge14" class="edge">
<title>Node12&#45;&gt;Node13</title>
<path fill="none" stroke="midnightblue" d="M1634.32,-56.08C1639.07,-48.53 1646.02,-37.49 1651.86,-28.23"/>
<polygon fill="midnightblue" stroke="midnightblue" points="1654.83,-30.08 1657.19,-19.75 1648.9,-26.35 1654.83,-30.08"/>
</g>
<!-- Node14 -->
<g id="node14" class="node">
<title>Node14</title>
<g id="a_node14"><a xlink:title=" ">
<polygon fill="white" stroke="#bfbfbf" points="1569.7,-0.5 1569.7,-19.5 1619.7,-19.5 1619.7,-0.5 1569.7,-0.5"/>
<text text-anchor="middle" x="1594.7" y="-7.5" font-family="Helvetica,sans-Serif" font-size="10.00">climits</text>
</a>
</g>
</g>
<!-- Node12&#45;&gt;Node14 -->
<g id="edge15" class="edge">
<title>Node12&#45;&gt;Node14</title>
<path fill="none" stroke="midnightblue" d="M1623.09,-56.08C1618.34,-48.53 1611.39,-37.49 1605.55,-28.23"/>
<polygon fill="midnightblue" stroke="midnightblue" points="1608.5,-26.35 1600.21,-19.75 1602.58,-30.08 1608.5,-26.35"/>
</g>
<!-- Node17&#45;&gt;Node5 -->
<g id="edge19" class="edge">
<title>Node17&#45;&gt;Node5</title>
<path fill="none" stroke="midnightblue" d="M1156.86,-117.96C1136.46,-110.13 1109.17,-96.61 1092.7,-76 1082.05,-62.67 1077.37,-43.55 1075.31,-29.5"/>
<polygon fill="midnightblue" stroke="midnightblue" points="1078.78,-29.06 1074.16,-19.52 1071.83,-29.86 1078.78,-29.06"/>
</g>
<!-- Node17&#45;&gt;Node7 -->
<g id="edge20" class="edge">
<title>Node17&#45;&gt;Node7</title>
<path fill="none" stroke="midnightblue" d="M1176.25,-117.98C1168.38,-108.96 1155.76,-94.52 1145.96,-83.31"/>
<polygon fill="midnightblue" stroke="midnightblue" points="1148.36,-80.74 1139.14,-75.51 1143.09,-85.34 1148.36,-80.74"/>
</g>
<!-- Node19&#45;&gt;Node17 -->
<g id="edge25" class="edge">
<title>Node19&#45;&gt;Node17</title>
<path fill="none" stroke="midnightblue" d="M737.35,-242.9C804.53,-240.2 935,-230.92 1040.7,-199 1085.74,-185.4 1134.01,-158.78 1161.36,-142.43"/>
<polygon fill="midnightblue" stroke="midnightblue" points="1163.4,-145.29 1170.13,-137.11 1159.76,-139.31 1163.4,-145.29"/>
</g>
<!-- Node20 -->
<g id="node20" class="node">
<title>Node20</title>
<g id="a_node20"><a xlink:href="itkFixedArray_8h.html" target="_top" xlink:title=" ">
<polygon fill="white" stroke="black" points="391.2,-179.5 391.2,-198.5 480.2,-198.5 480.2,-179.5 391.2,-179.5"/>
<text text-anchor="middle" x="435.7" y="-186.5" font-family="Helvetica,sans-Serif" font-size="10.00">itkFixedArray.h</text>
</a>
</g>
</g>
<!-- Node19&#45;&gt;Node20 -->
<g id="edge26" class="edge">
<title>Node19&#45;&gt;Node20</title>
<path fill="none" stroke="midnightblue" d="M651.98,-235.44C607.05,-226 534.71,-210.8 486.2,-200.61"/>
<polygon fill="midnightblue" stroke="midnightblue" points="486.74,-197.15 476.24,-198.52 485.3,-204 486.74,-197.15"/>
</g>
<!-- Node29 -->
<g id="node29" class="node">
<title>Node29</title>
<g id="a_node29"><a xlink:href="itkMath_8h.html" target="_top" xlink:title=" ">
<polygon fill="white" stroke="black" points="969.2,-179.5 969.2,-198.5 1032.2,-198.5 1032.2,-179.5 969.2,-179.5"/>
<text text-anchor="middle" x="1000.7" y="-186.5" font-family="Helvetica,sans-Serif" font-size="10.00">itkMath.h</text>
</a>
</g>
</g>
<!-- Node19&#45;&gt;Node29 -->
<g id="edge39" class="edge">
<title>Node19&#45;&gt;Node29</title>
<path fill="none" stroke="midnightblue" d="M737.49,-236.15C796.98,-225.72 901.28,-207.43 959.12,-197.29"/>
<polygon fill="midnightblue" stroke="midnightblue" points="959.77,-200.73 969.01,-195.56 958.56,-193.84 959.77,-200.73"/>
</g>
<!-- Node37 -->
<g id="node37" class="node">
<title>Node37</title>
<g id="a_node37"><a xlink:href="itkNumericTraitsRGBAPixel_8h.html" target="_top" xlink:title=" ">
<polygon fill="white" stroke="black" points="216.2,-179.5 216.2,-198.5 373.2,-198.5 373.2,-179.5 216.2,-179.5"/>
<text text-anchor="middle" x="294.7" y="-186.5" font-family="Helvetica,sans-Serif" font-size="10.00">itkNumericTraitsRGBAPixel.h</text>
</a>
</g>
</g>
<!-- Node19&#45;&gt;Node37 -->
<g id="edge52" class="edge">
<title>Node19&#45;&gt;Node37</title>
<path fill="none" stroke="midnightblue" d="M648.08,-238.53C578.58,-229.49 444.29,-211.32 362.71,-199.96"/>
<polygon fill="midnightblue" stroke="midnightblue" points="362.93,-196.45 352.54,-198.54 361.96,-203.39 362.93,-196.45"/>
</g>
<!-- Node38 -->
<g id="node38" class="node">
<title>Node38</title>
<g id="a_node38"><a xlink:title=" ">
<polygon fill="white" stroke="#bfbfbf" points="642.2,-179.5 642.2,-198.5 743.2,-198.5 743.2,-179.5 642.2,-179.5"/>
<text text-anchor="middle" x="692.7" y="-186.5" font-family="Helvetica,sans-Serif" font-size="10.00">itkRGBAPixel.hxx</text>
</a>
</g>
</g>
<!-- Node19&#45;&gt;Node38 -->
<g id="edge56" class="edge">
<title>Node19&#45;&gt;Node38</title>
<path fill="none" stroke="midnightblue" d="M692.7,-235.08C692.7,-228.01 692.7,-217.86 692.7,-208.99"/>
<polygon fill="midnightblue" stroke="midnightblue" points="696.2,-208.75 692.7,-198.75 689.2,-208.75 696.2,-208.75"/>
</g>
<!-- Node20&#45;&gt;Node5 -->
<g id="edge27" class="edge">
<title>Node20&#45;&gt;Node5</title>
<path fill="none" stroke="midnightblue" d="M447.07,-179.44C458.98,-170.44 478.24,-155.82 494.7,-143 512.17,-129.4 514.86,-123.62 533.7,-112 584.14,-80.9 597.6,-71.82 654.7,-56 787.53,-19.21 951.77,-12.2 1029.26,-11.06"/>
<polygon fill="midnightblue" stroke="midnightblue" points="1029.65,-14.56 1039.6,-10.94 1029.56,-7.56 1029.65,-14.56"/>
</g>
<!-- Node21 -->
<g id="node21" class="node">
<title>Node21</title>
<g id="a_node21"><a xlink:href="itkMakeFilled_8h.html" target="_top" xlink:title=" ">
<polygon fill="white" stroke="black" points="215.2,-118 215.2,-137 306.2,-137 306.2,-118 215.2,-118"/>
<text text-anchor="middle" x="260.7" y="-125" font-family="Helvetica,sans-Serif" font-size="10.00">itkMakeFilled.h</text>
</a>
</g>
</g>
<!-- Node20&#45;&gt;Node21 -->
<g id="edge28" class="edge">
<title>Node20&#45;&gt;Node21</title>
<path fill="none" stroke="midnightblue" d="M410.63,-179.48C380.35,-169.18 329.26,-151.81 295.26,-140.25"/>
<polygon fill="midnightblue" stroke="midnightblue" points="296.32,-136.91 285.73,-137.01 294.07,-143.54 296.32,-136.91"/>
</g>
<!-- Node22 -->
<g id="node22" class="node">
<title>Node22</title>
<g id="a_node22"><a xlink:title=" ">
<polygon fill="white" stroke="#bfbfbf" points="542.7,-118 542.7,-137 606.7,-137 606.7,-118 542.7,-118"/>
<text text-anchor="middle" x="574.7" y="-125" font-family="Helvetica,sans-Serif" font-size="10.00">algorithm</text>
</a>
</g>
</g>
<!-- Node20&#45;&gt;Node22 -->
<g id="edge29" class="edge">
<title>Node20&#45;&gt;Node22</title>
<path fill="none" stroke="midnightblue" d="M455.62,-179.48C479.15,-169.4 518.51,-152.55 545.5,-141"/>
<polygon fill="midnightblue" stroke="midnightblue" points="547.01,-144.16 554.83,-137.01 544.25,-137.73 547.01,-144.16"/>
</g>
<!-- Node23 -->
<g id="node23" class="node">
<title>Node23</title>
<g id="a_node23"><a xlink:title=" ">
<polygon fill="white" stroke="#bfbfbf" points="324.7,-118 324.7,-137 366.7,-137 366.7,-118 324.7,-118"/>
<text text-anchor="middle" x="345.7" y="-125" font-family="Helvetica,sans-Serif" font-size="10.00">array</text>
</a>
</g>
</g>
<!-- Node20&#45;&gt;Node23 -->
<g id="edge30" class="edge">
<title>Node20&#45;&gt;Node23</title>
<path fill="none" stroke="midnightblue" d="M422.81,-179.48C408.24,-169.84 384.3,-154.02 366.96,-142.55"/>
<polygon fill="midnightblue" stroke="midnightblue" points="368.85,-139.6 358.57,-137.01 364.99,-145.44 368.85,-139.6"/>
</g>
<!-- Node24 -->
<g id="node24" class="node">
<title>Node24</title>
<g id="a_node24"><a xlink:title=" ">
<polygon fill="white" stroke="#bfbfbf" points="385.2,-118 385.2,-137 486.2,-137 486.2,-118 385.2,-118"/>
<text text-anchor="middle" x="435.7" y="-125" font-family="Helvetica,sans-Serif" font-size="10.00">itkFixedArray.hxx</text>
</a>
</g>
</g>
<!-- Node20&#45;&gt;Node24 -->
<g id="edge31" class="edge">
<title>Node20&#45;&gt;Node24</title>
<path fill="none" stroke="midnightblue" d="M435.7,-179.48C435.7,-171.08 435.7,-157.98 435.7,-147.16"/>
<polygon fill="midnightblue" stroke="midnightblue" points="439.2,-147.01 435.7,-137.01 432.2,-147.01 439.2,-147.01"/>
</g>
<!-- Node25 -->
<g id="node25" class="node">
<title>Node25</title>
<g id="a_node25"><a xlink:href="itkNumericTraitsFixedArrayPixel_8h.html" target="_top" xlink:title=" ">
<polygon fill="white" stroke="black" points="48.2,-112.5 48.2,-142.5 197.2,-142.5 197.2,-112.5 48.2,-112.5"/>
<text text-anchor="start" x="56.2" y="-130.5" font-family="Helvetica,sans-Serif" font-size="10.00">itkNumericTraitsFixedArray</text>
<text text-anchor="middle" x="122.7" y="-119.5" font-family="Helvetica,sans-Serif" font-size="10.00">Pixel.h</text>
</a>
</g>
</g>
<!-- Node20&#45;&gt;Node25 -->
<g id="edge32" class="edge">
<title>Node20&#45;&gt;Node25</title>
<path fill="none" stroke="midnightblue" d="M391.06,-180.4C341.42,-171.38 260.52,-156.09 200.47,-144.43"/>
<polygon fill="midnightblue" stroke="midnightblue" points="201.13,-141 190.64,-142.52 199.79,-147.87 201.13,-141"/>
</g>
<!-- Node25&#45;&gt;Node20 -->
<g id="edge38" class="edge">
<title>Node25&#45;&gt;Node20</title>
<path fill="none" stroke="midnightblue" d="M197.4,-141.62C255.65,-152.4 334.84,-167.48 385.67,-177.48"/>
<polygon fill="midnightblue" stroke="midnightblue" points="385.27,-180.97 395.76,-179.48 386.63,-174.1 385.27,-180.97"/>
</g>
<!-- Node26 -->
<g id="node26" class="node">
<title>Node26</title>
<g id="a_node26"><a xlink:href="itkNumericTraits_8h.html" target="_top" xlink:title=" ">
<polygon fill="white" stroke="black" points="224.7,-56.5 224.7,-75.5 330.7,-75.5 330.7,-56.5 224.7,-56.5"/>
<text text-anchor="middle" x="277.7" y="-63.5" font-family="Helvetica,sans-Serif" font-size="10.00">itkNumericTraits.h</text>
</a>
</g>
</g>
<!-- Node25&#45;&gt;Node26 -->
<g id="edge33" class="edge">
<title>Node25&#45;&gt;Node26</title>
<path fill="none" stroke="midnightblue" d="M159.44,-112.4C185.67,-102.33 220.63,-88.91 245.72,-79.28"/>
<polygon fill="midnightblue" stroke="midnightblue" points="247.07,-82.51 255.15,-75.66 244.56,-75.97 247.07,-82.51"/>
</g>
<!-- Node26&#45;&gt;Node5 -->
<g id="edge34" class="edge">
<title>Node26&#45;&gt;Node5</title>
<path fill="none" stroke="midnightblue" d="M330.86,-61.39C478.69,-51.37 892.81,-23.27 1029.39,-14.01"/>
<polygon fill="midnightblue" stroke="midnightblue" points="1029.75,-17.49 1039.49,-13.32 1029.27,-10.51 1029.75,-17.49"/>
</g>
<!-- Node26&#45;&gt;Node20 -->
<g id="edge37" class="edge">
<title>Node26&#45;&gt;Node20</title>
<path fill="none" stroke="midnightblue" d="M224.48,-67.36C138.5,-69.7 -16.07,-82.17 38.7,-143 88.09,-197.84 289.97,-170.89 380.94,-179.2"/>
<polygon fill="midnightblue" stroke="midnightblue" points="380.62,-182.69 390.95,-180.33 381.4,-175.73 380.62,-182.69"/>
</g>
<!-- Node27 -->
<g id="node27" class="node">
<title>Node27</title>
<g id="a_node27"><a xlink:title=" ">
<polygon fill="white" stroke="#bfbfbf" points="220.7,-0.5 220.7,-19.5 264.7,-19.5 264.7,-0.5 220.7,-0.5"/>
<text text-anchor="middle" x="242.7" y="-7.5" font-family="Helvetica,sans-Serif" font-size="10.00">limits</text>
</a>
</g>
</g>
<!-- Node26&#45;&gt;Node27 -->
<g id="edge35" class="edge">
<title>Node26&#45;&gt;Node27</title>
<path fill="none" stroke="midnightblue" d="M271.92,-56.08C267.03,-48.53 259.88,-37.49 253.87,-28.23"/>
<polygon fill="midnightblue" stroke="midnightblue" points="256.75,-26.24 248.38,-19.75 250.88,-30.05 256.75,-26.24"/>
</g>
<!-- Node28 -->
<g id="node28" class="node">
<title>Node28</title>
<g id="a_node28"><a xlink:title=" ">
<polygon fill="white" stroke="#bfbfbf" points="283.2,-0.5 283.2,-19.5 342.2,-19.5 342.2,-0.5 283.2,-0.5"/>
<text text-anchor="middle" x="312.7" y="-7.5" font-family="Helvetica,sans-Serif" font-size="10.00">complex</text>
</a>
</g>
</g>
<!-- Node26&#45;&gt;Node28 -->
<g id="edge36" class="edge">
<title>Node26&#45;&gt;Node28</title>
<path fill="none" stroke="midnightblue" d="M283.48,-56.08C288.38,-48.53 295.53,-37.49 301.54,-28.23"/>
<polygon fill="midnightblue" stroke="midnightblue" points="304.53,-30.05 307.03,-19.75 298.66,-26.24 304.53,-30.05"/>
</g>
<!-- Node30 -->
<g id="node30" class="node">
<title>Node30</title>
<g id="a_node30"><a xlink:title=" ">
<polygon fill="white" stroke="#bfbfbf" points="977.2,-118 977.2,-137 1024.2,-137 1024.2,-118 977.2,-118"/>
<text text-anchor="middle" x="1000.7" y="-125" font-family="Helvetica,sans-Serif" font-size="10.00">cmath</text>
</a>
</g>
</g>
<!-- Node29&#45;&gt;Node30 -->
<g id="edge40" class="edge">
<title>Node29&#45;&gt;Node30</title>
<path fill="none" stroke="midnightblue" d="M1000.7,-179.48C1000.7,-171.08 1000.7,-157.98 1000.7,-147.16"/>
<polygon fill="midnightblue" stroke="midnightblue" points="1004.2,-147.01 1000.7,-137.01 997.2,-147.01 1004.2,-147.01"/>
</g>
<!-- Node31 -->
<g id="node31" class="node">
<title>Node31</title>
<g id="a_node31"><a xlink:href="itkMathDetail_8h.html" target="_top" xlink:title=" ">
<polygon fill="white" stroke="black" points="766.7,-118 766.7,-137 858.7,-137 858.7,-118 766.7,-118"/>
<text text-anchor="middle" x="812.7" y="-125" font-family="Helvetica,sans-Serif" font-size="10.00">itkMathDetail.h</text>
</a>
</g>
</g>
<!-- Node29&#45;&gt;Node31 -->
<g id="edge41" class="edge">
<title>Node29&#45;&gt;Node31</title>
<path fill="none" stroke="midnightblue" d="M973.77,-179.48C941.1,-169.14 885.88,-151.66 849.36,-140.1"/>
<polygon fill="midnightblue" stroke="midnightblue" points="850.18,-136.69 839.59,-137.01 848.07,-143.36 850.18,-136.69"/>
</g>
<!-- Node33 -->
<g id="node33" class="node">
<title>Node33</title>
<g id="a_node33"><a xlink:href="itkConceptChecking_8h.html" target="_top" xlink:title=" ">
<polygon fill="white" stroke="black" points="625.2,-118 625.2,-137 748.2,-137 748.2,-118 625.2,-118"/>
<text text-anchor="middle" x="686.7" y="-125" font-family="Helvetica,sans-Serif" font-size="10.00">itkConceptChecking.h</text>
</a>
</g>
</g>
<!-- Node29&#45;&gt;Node33 -->
<g id="edge45" class="edge">
<title>Node29&#45;&gt;Node33</title>
<path fill="none" stroke="midnightblue" d="M969.04,-181.75C964.24,-180.82 959.34,-179.88 954.7,-179 867.25,-162.45 845.09,-159.91 757.7,-143 751.15,-141.73 744.26,-140.37 737.45,-139"/>
<polygon fill="midnightblue" stroke="midnightblue" points="738.09,-135.56 727.6,-137 736.71,-142.42 738.09,-135.56"/>
</g>
<!-- Node35 -->
<g id="node35" class="node">
<title>Node35</title>
<g id="a_node35"><a xlink:title=" ">
<polygon fill="white" stroke="#bfbfbf" points="1042.2,-118 1042.2,-137 1131.2,-137 1131.2,-118 1042.2,-118"/>
<text text-anchor="middle" x="1086.7" y="-125" font-family="Helvetica,sans-Serif" font-size="10.00">vnl/vnl_math.h</text>
</a>
</g>
</g>
<!-- Node29&#45;&gt;Node35 -->
<g id="edge50" class="edge">
<title>Node29&#45;&gt;Node35</title>
<path fill="none" stroke="midnightblue" d="M1013.03,-179.48C1026.82,-169.93 1049.4,-154.31 1065.94,-142.87"/>
<polygon fill="midnightblue" stroke="midnightblue" points="1068.17,-145.58 1074.4,-137.01 1064.19,-139.82 1068.17,-145.58"/>
</g>
<!-- Node36 -->
<g id="node36" class="node">
<title>Node36</title>
<g id="a_node36"><a xlink:title=" ">
<polygon fill="white" stroke="#bfbfbf" points="876.7,-118 876.7,-137 958.7,-137 958.7,-118 876.7,-118"/>
<text text-anchor="middle" x="917.7" y="-125" font-family="Helvetica,sans-Serif" font-size="10.00">vxl_version.h</text>
</a>
</g>
</g>
<!-- Node29&#45;&gt;Node36 -->
<g id="edge51" class="edge">
<title>Node29&#45;&gt;Node36</title>
<path fill="none" stroke="midnightblue" d="M988.81,-179.48C975.5,-169.93 953.7,-154.31 937.75,-142.87"/>
<polygon fill="midnightblue" stroke="midnightblue" points="939.74,-139.99 929.57,-137.01 935.66,-145.68 939.74,-139.99"/>
</g>
<!-- Node31&#45;&gt;Node12 -->
<g id="edge42" class="edge">
<title>Node31&#45;&gt;Node12</title>
<path fill="none" stroke="midnightblue" d="M840.73,-117.93C849.31,-115.63 858.83,-113.4 867.7,-112 1159.66,-66.09 1236.95,-97.66 1531.7,-76 1547.05,-74.87 1563.75,-73.41 1578.89,-71.99"/>
<polygon fill="midnightblue" stroke="midnightblue" points="1579.47,-75.45 1589.09,-71.02 1578.8,-68.48 1579.47,-75.45"/>
</g>
<!-- Node31&#45;&gt;Node26 -->
<g id="edge43" class="edge">
<title>Node31&#45;&gt;Node26</title>
<path fill="none" stroke="midnightblue" d="M783.25,-117.93C774.75,-115.72 765.41,-113.53 756.7,-112 609.01,-86.11 432.91,-74.4 340.87,-69.72"/>
<polygon fill="midnightblue" stroke="midnightblue" points="341.04,-66.22 330.88,-69.22 340.69,-73.21 341.04,-66.22"/>
</g>
<!-- Node32 -->
<g id="node32" class="node">
<title>Node32</title>
<g id="a_node32"><a xlink:title=" ">
<polygon fill="white" stroke="#bfbfbf" points="790.7,-56.5 790.7,-75.5 834.7,-75.5 834.7,-56.5 790.7,-56.5"/>
<text text-anchor="middle" x="812.7" y="-63.5" font-family="Helvetica,sans-Serif" font-size="10.00">cfenv</text>
</a>
</g>
</g>
<!-- Node31&#45;&gt;Node32 -->
<g id="edge44" class="edge">
<title>Node31&#45;&gt;Node32</title>
<path fill="none" stroke="midnightblue" d="M812.7,-117.98C812.7,-109.58 812.7,-96.48 812.7,-85.66"/>
<polygon fill="midnightblue" stroke="midnightblue" points="816.2,-85.51 812.7,-75.51 809.2,-85.51 816.2,-85.51"/>
</g>
<!-- Node33&#45;&gt;Node7 -->
<g id="edge49" class="edge">
<title>Node33&#45;&gt;Node7</title>
<path fill="none" stroke="midnightblue" d="M725.66,-117.95C736.04,-115.83 747.27,-113.69 757.7,-112 878.67,-92.4 1022.93,-77.39 1091.57,-70.74"/>
<polygon fill="midnightblue" stroke="midnightblue" points="1091.91,-74.23 1101.53,-69.79 1091.24,-67.26 1091.91,-74.23"/>
</g>
<!-- Node33&#45;&gt;Node26 -->
<g id="edge48" class="edge">
<title>Node33&#45;&gt;Node26</title>
<path fill="none" stroke="midnightblue" d="M647.36,-117.96C637.08,-115.87 626,-113.73 615.7,-112 520.34,-95.93 409.04,-82.05 340.99,-74.1"/>
<polygon fill="midnightblue" stroke="midnightblue" points="341.19,-70.6 330.86,-72.93 340.38,-77.56 341.19,-70.6"/>
</g>
<!-- Node34 -->
<g id="node34" class="node">
<title>Node34</title>
<g id="a_node34"><a xlink:href="itkPixelTraits_8h.html" target="_top" xlink:title=" ">
<polygon fill="white" stroke="black" points="663.7,-56.5 663.7,-75.5 751.7,-75.5 751.7,-56.5 663.7,-56.5"/>
<text text-anchor="middle" x="707.7" y="-63.5" font-family="Helvetica,sans-Serif" font-size="10.00">itkPixelTraits.h</text>
</a>
</g>
</g>
<!-- Node33&#45;&gt;Node34 -->
<g id="edge46" class="edge">
<title>Node33&#45;&gt;Node34</title>
<path fill="none" stroke="midnightblue" d="M689.71,-117.98C692.74,-109.4 697.49,-95.93 701.36,-84.98"/>
<polygon fill="midnightblue" stroke="midnightblue" points="704.67,-86.1 704.7,-75.51 698.07,-83.77 704.67,-86.1"/>
</g>
<!-- Node34&#45;&gt;Node5 -->
<g id="edge47" class="edge">
<title>Node34&#45;&gt;Node5</title>
<path fill="none" stroke="midnightblue" d="M751.85,-58.49C822.11,-48.12 958.61,-27.98 1029.13,-17.58"/>
<polygon fill="midnightblue" stroke="midnightblue" points="1030.07,-20.98 1039.45,-16.05 1029.05,-14.05 1030.07,-20.98"/>
</g>
<!-- Node37&#45;&gt;Node19 -->
<g id="edge54" class="edge">
<title>Node37&#45;&gt;Node19</title>
<path fill="none" stroke="midnightblue" d="M362.63,-198.53C440.4,-208.77 566.15,-225.84 637.94,-235.89"/>
<polygon fill="midnightblue" stroke="midnightblue" points="637.74,-239.4 648.13,-237.32 638.71,-232.47 637.74,-239.4"/>
</g>
<!-- Node37&#45;&gt;Node22 -->
<g id="edge55" class="edge">
<title>Node37&#45;&gt;Node22</title>
<path fill="none" stroke="midnightblue" d="M334.82,-179.48C387.38,-168.31 479.14,-148.81 532.65,-137.44"/>
<polygon fill="midnightblue" stroke="midnightblue" points="533.44,-140.85 542.49,-135.34 531.99,-134 533.44,-140.85"/>
</g>
<!-- Node37&#45;&gt;Node26 -->
<g id="edge53" class="edge">
<title>Node37&#45;&gt;Node26</title>
<path fill="none" stroke="midnightblue" d="M216.1,-186.79C140.27,-183.77 33.19,-173.95 6.7,-143 -2.26,-132.53 -2.21,-122.51 6.7,-112 32.79,-81.23 142.75,-71.47 214.34,-68.4"/>
<polygon fill="midnightblue" stroke="midnightblue" points="214.75,-71.88 224.61,-67.99 214.48,-64.89 214.75,-71.88"/>
</g>
<!-- Node40 -->
<g id="node40" class="node">
<title>Node40</title>
<g id="a_node40"><a xlink:href="itkObjectFactoryBase_8h.html" target="_top" xlink:title=" ">
<polygon fill="white" stroke="black" points="1432.2,-459.5 1432.2,-478.5 1561.2,-478.5 1561.2,-459.5 1432.2,-459.5"/>
<text text-anchor="middle" x="1496.7" y="-466.5" font-family="Helvetica,sans-Serif" font-size="10.00">itkObjectFactoryBase.h</text>
</a>
</g>
</g>
<!-- Node39&#45;&gt;Node40 -->
<g id="edge59" class="edge">
<title>Node39&#45;&gt;Node40</title>
<path fill="none" stroke="midnightblue" d="M1465.81,-515.08C1470.99,-507.53 1478.55,-496.49 1484.9,-487.23"/>
<polygon fill="midnightblue" stroke="midnightblue" points="1487.94,-488.98 1490.71,-478.75 1482.17,-485.02 1487.94,-488.98"/>
</g>
<!-- Node40&#45;&gt;Node16 -->
<g id="edge77" class="edge">
<title>Node40&#45;&gt;Node16</title>
<path fill="none" stroke="midnightblue" d="M1561.25,-462.5C1616.4,-456.39 1689.88,-444.43 1709.7,-423 1799.47,-325.95 1764.87,-144.24 1750.64,-85.69"/>
<polygon fill="midnightblue" stroke="midnightblue" points="1753.95,-84.52 1748.11,-75.68 1747.17,-86.24 1753.95,-84.52"/>
</g>
<!-- Node41 -->
<g id="node41" class="node">
<title>Node41</title>
<g id="a_node41"><a xlink:href="itkCreateObjectFunction_8h.html" target="_top" xlink:title=" ">
<polygon fill="white" stroke="black" points="1372.2,-403.5 1372.2,-422.5 1515.2,-422.5 1515.2,-403.5 1372.2,-403.5"/>
<text text-anchor="middle" x="1443.7" y="-410.5" font-family="Helvetica,sans-Serif" font-size="10.00">itkCreateObjectFunction.h</text>
</a>
</g>
</g>
<!-- Node40&#45;&gt;Node41 -->
<g id="edge60" class="edge">
<title>Node40&#45;&gt;Node41</title>
<path fill="none" stroke="midnightblue" d="M1487.95,-459.08C1480.23,-451.22 1468.8,-439.57 1459.49,-430.08"/>
<polygon fill="midnightblue" stroke="midnightblue" points="1461.8,-427.44 1452.29,-422.75 1456.8,-432.34 1461.8,-427.44"/>
</g>
<!-- Node46 -->
<g id="node46" class="node">
<title>Node46</title>
<g id="a_node46"><a xlink:title=" ">
<polygon fill="white" stroke="#bfbfbf" points="1018.2,-235.5 1018.2,-254.5 1065.2,-254.5 1065.2,-235.5 1018.2,-235.5"/>
<text text-anchor="middle" x="1041.7" y="-242.5" font-family="Helvetica,sans-Serif" font-size="10.00">vector</text>
</a>
</g>
</g>
<!-- Node40&#45;&gt;Node46 -->
<g id="edge82" class="edge">
<title>Node40&#45;&gt;Node46</title>
<path fill="none" stroke="midnightblue" d="M1461.13,-459.49C1389.05,-441.07 1222.62,-392.47 1104.7,-311 1085,-297.39 1066.43,-276.95 1054.63,-262.64"/>
<polygon fill="midnightblue" stroke="midnightblue" points="1057.19,-260.24 1048.2,-254.63 1051.73,-264.62 1057.19,-260.24"/>
</g>
<!-- Node49 -->
<g id="node49" class="node">
<title>Node49</title>
<g id="a_node49"><a xlink:href="itkCommonEnums_8h.html" target="_top" xlink:title=" ">
<polygon fill="white" stroke="black" points="1584.7,-403.5 1584.7,-422.5 1700.7,-422.5 1700.7,-403.5 1584.7,-403.5"/>
<text text-anchor="middle" x="1642.7" y="-410.5" font-family="Helvetica,sans-Serif" font-size="10.00">itkCommonEnums.h</text>
</a>
</g>
</g>
<!-- Node40&#45;&gt;Node49 -->
<g id="edge78" class="edge">
<title>Node40&#45;&gt;Node49</title>
<path fill="none" stroke="midnightblue" d="M1519.84,-459.44C1544.19,-450.44 1582.71,-436.19 1610.13,-426.05"/>
<polygon fill="midnightblue" stroke="midnightblue" points="1611.51,-429.27 1619.68,-422.52 1609.08,-422.7 1611.51,-429.27"/>
</g>
<!-- Node51 -->
<g id="node51" class="node">
<title>Node51</title>
<g id="a_node51"><a xlink:title=" ">
<polygon fill="white" stroke="#bfbfbf" points="1533.7,-403.5 1533.7,-422.5 1565.7,-422.5 1565.7,-403.5 1533.7,-403.5"/>
<text text-anchor="middle" x="1549.7" y="-410.5" font-family="Helvetica,sans-Serif" font-size="10.00">list</text>
</a>
</g>
</g>
<!-- Node40&#45;&gt;Node51 -->
<g id="edge81" class="edge">
<title>Node40&#45;&gt;Node51</title>
<path fill="none" stroke="midnightblue" d="M1505.46,-459.08C1513.17,-451.22 1524.61,-439.57 1533.92,-430.08"/>
<polygon fill="midnightblue" stroke="midnightblue" points="1536.61,-432.34 1541.11,-422.75 1531.61,-427.44 1536.61,-432.34"/>
</g>
<!-- Node42 -->
<g id="node42" class="node">
<title>Node42</title>
<g id="a_node42"><a xlink:href="itkObject_8h.html" target="_top" xlink:title=" ">
<polygon fill="white" stroke="black" points="1408.7,-347.5 1408.7,-366.5 1478.7,-366.5 1478.7,-347.5 1408.7,-347.5"/>
<text text-anchor="middle" x="1443.7" y="-354.5" font-family="Helvetica,sans-Serif" font-size="10.00">itkObject.h</text>
</a>
</g>
</g>
<!-- Node41&#45;&gt;Node42 -->
<g id="edge61" class="edge">
<title>Node41&#45;&gt;Node42</title>
<path fill="none" stroke="midnightblue" d="M1443.7,-403.08C1443.7,-396.01 1443.7,-385.86 1443.7,-376.99"/>
<polygon fill="midnightblue" stroke="midnightblue" points="1447.2,-376.75 1443.7,-366.75 1440.2,-376.75 1447.2,-376.75"/>
</g>
<!-- Node42&#45;&gt;Node4 -->
<g id="edge62" class="edge">
<title>Node42&#45;&gt;Node4</title>
<path fill="none" stroke="midnightblue" d="M1442.68,-347.08C1439.69,-320.95 1430.91,-244.21 1426.83,-208.58"/>
<polygon fill="midnightblue" stroke="midnightblue" points="1430.3,-208.11 1425.68,-198.57 1423.34,-208.9 1430.3,-208.11"/>
</g>
<!-- Node42&#45;&gt;Node16 -->
<g id="edge75" class="edge">
<title>Node42&#45;&gt;Node16</title>
<path fill="none" stroke="midnightblue" d="M1472.21,-347.49C1493.99,-340.1 1524.02,-327.91 1546.7,-311 1636.35,-244.19 1709.78,-128.38 1735.68,-84.52"/>
<polygon fill="midnightblue" stroke="midnightblue" points="1738.72,-86.26 1740.72,-75.86 1732.67,-82.73 1738.72,-86.26"/>
</g>
<!-- Node43 -->
<g id="node43" class="node">
<title>Node43</title>
<g id="a_node43"><a xlink:href="itkEventObject_8h.html" target="_top" xlink:title=" ">
<polygon fill="white" stroke="black" points="1317.7,-291.5 1317.7,-310.5 1415.7,-310.5 1415.7,-291.5 1317.7,-291.5"/>
<text text-anchor="middle" x="1366.7" y="-298.5" font-family="Helvetica,sans-Serif" font-size="10.00">itkEventObject.h</text>
</a>
</g>
</g>
<!-- Node42&#45;&gt;Node43 -->
<g id="edge63" class="edge">
<title>Node42&#45;&gt;Node43</title>
<path fill="none" stroke="midnightblue" d="M1431.33,-347.32C1419.55,-339.06 1401.57,-326.45 1387.57,-316.63"/>
<polygon fill="midnightblue" stroke="midnightblue" points="1389.24,-313.53 1379.04,-310.65 1385.22,-319.26 1389.24,-313.53"/>
</g>
<!-- Node44 -->
<g id="node44" class="node">
<title>Node44</title>
<g id="a_node44"><a xlink:href="itkMetaDataDictionary_8h.html" target="_top" xlink:title=" ">
<polygon fill="white" stroke="black" points="1114.2,-291.5 1114.2,-310.5 1249.2,-310.5 1249.2,-291.5 1114.2,-291.5"/>
<text text-anchor="middle" x="1181.7" y="-298.5" font-family="Helvetica,sans-Serif" font-size="10.00">itkMetaDataDictionary.h</text>
</a>
</g>
</g>
<!-- Node42&#45;&gt;Node44 -->
<g id="edge65" class="edge">
<title>Node42&#45;&gt;Node44</title>
<path fill="none" stroke="midnightblue" d="M1408.64,-348.77C1363.54,-339.48 1284.86,-323.26 1233.02,-312.58"/>
<polygon fill="midnightblue" stroke="midnightblue" points="1233.53,-309.11 1223.03,-310.52 1232.12,-315.96 1233.53,-309.11"/>
</g>
<!-- Node48 -->
<g id="node48" class="node">
<title>Node48</title>
<g id="a_node48"><a xlink:title=" ">
<polygon fill="white" stroke="#bfbfbf" points="1472.2,-291.5 1472.2,-310.5 1537.2,-310.5 1537.2,-291.5 1472.2,-291.5"/>
<text text-anchor="middle" x="1504.7" y="-298.5" font-family="Helvetica,sans-Serif" font-size="10.00">functional</text>
</a>
</g>
</g>
<!-- Node42&#45;&gt;Node48 -->
<g id="edge76" class="edge">
<title>Node42&#45;&gt;Node48</title>
<path fill="none" stroke="midnightblue" d="M1453.5,-347.32C1462.52,-339.34 1476.11,-327.31 1487.02,-317.65"/>
<polygon fill="midnightblue" stroke="midnightblue" points="1489.56,-320.08 1494.72,-310.83 1484.92,-314.84 1489.56,-320.08"/>
</g>
<!-- Node43&#45;&gt;Node17 -->
<g id="edge64" class="edge">
<title>Node43&#45;&gt;Node17</title>
<path fill="none" stroke="midnightblue" d="M1317.57,-295.31C1287.75,-290.03 1250.91,-278.81 1226.7,-255 1196.89,-225.68 1187.74,-174.94 1184.94,-147.47"/>
<polygon fill="midnightblue" stroke="midnightblue" points="1188.41,-146.93 1184.08,-137.26 1181.43,-147.51 1188.41,-146.93"/>
</g>
<!-- Node44&#45;&gt;Node2 -->
<g id="edge73" class="edge">
<title>Node44&#45;&gt;Node2</title>
<path fill="none" stroke="midnightblue" d="M1131.39,-291.44C1086.99,-283.58 1020.34,-271.07 953.8,-255.11"/>
<polygon fill="midnightblue" stroke="midnightblue" points="954.53,-251.68 943.99,-252.73 952.88,-258.48 954.53,-251.68"/>
</g>
<!-- Node44&#45;&gt;Node3 -->
<g id="edge72" class="edge">
<title>Node44&#45;&gt;Node3</title>
<path fill="none" stroke="midnightblue" d="M1146.42,-291.44C1113.4,-283.3 1062.5,-270.39 1009.8,-255.2"/>
<polygon fill="midnightblue" stroke="midnightblue" points="1010.52,-251.77 999.94,-252.34 1008.57,-258.49 1010.52,-251.77"/>
</g>
<!-- Node44&#45;&gt;Node22 -->
<g id="edge70" class="edge">
<title>Node44&#45;&gt;Node22</title>
<path fill="none" stroke="midnightblue" d="M1168.5,-291.27C1144.25,-275.36 1093.29,-242.6 1073.7,-235 880.13,-159.92 815.85,-198.2 615.7,-143 612.74,-142.18 609.69,-141.26 606.64,-140.28"/>
<polygon fill="midnightblue" stroke="midnightblue" points="607.67,-136.94 597.08,-137.06 605.43,-143.57 607.67,-136.94"/>
</g>
<!-- Node45 -->
<g id="node45" class="node">
<title>Node45</title>
<g id="a_node45"><a xlink:href="itkMetaDataObjectBase_8h.html" target="_top" xlink:title=" ">
<polygon fill="white" stroke="black" points="1235.7,-235.5 1235.7,-254.5 1377.7,-254.5 1377.7,-235.5 1235.7,-235.5"/>
<text text-anchor="middle" x="1306.7" y="-242.5" font-family="Helvetica,sans-Serif" font-size="10.00">itkMetaDataObjectBase.h</text>
</a>
</g>
</g>
<!-- Node44&#45;&gt;Node45 -->
<g id="edge66" class="edge">
<title>Node44&#45;&gt;Node45</title>
<path fill="none" stroke="midnightblue" d="M1201.51,-291.44C1221.99,-282.6 1254.19,-268.69 1277.57,-258.59"/>
<polygon fill="midnightblue" stroke="midnightblue" points="1279.2,-261.7 1286.99,-254.52 1276.42,-255.27 1279.2,-261.7"/>
</g>
<!-- Node44&#45;&gt;Node46 -->
<g id="edge71" class="edge">
<title>Node44&#45;&gt;Node46</title>
<path fill="none" stroke="midnightblue" d="M1159.52,-291.44C1136.28,-282.48 1099.55,-268.31 1073.29,-258.18"/>
<polygon fill="midnightblue" stroke="midnightblue" points="1074.37,-254.85 1063.78,-254.52 1071.85,-261.38 1074.37,-254.85"/>
</g>
<!-- Node47 -->
<g id="node47" class="node">
<title>Node47</title>
<g id="a_node47"><a xlink:title=" ">
<polygon fill="white" stroke="#bfbfbf" points="1121.7,-235.5 1121.7,-254.5 1179.7,-254.5 1179.7,-235.5 1121.7,-235.5"/>
<text text-anchor="middle" x="1150.7" y="-242.5" font-family="Helvetica,sans-Serif" font-size="10.00">memory</text>
</a>
</g>
</g>
<!-- Node44&#45;&gt;Node47 -->
<g id="edge74" class="edge">
<title>Node44&#45;&gt;Node47</title>
<path fill="none" stroke="midnightblue" d="M1176.58,-291.08C1172.3,-283.61 1166.05,-272.72 1160.76,-263.52"/>
<polygon fill="midnightblue" stroke="midnightblue" points="1163.74,-261.68 1155.73,-254.75 1157.67,-265.17 1163.74,-261.68"/>
</g>
<!-- Node45&#45;&gt;Node4 -->
<g id="edge67" class="edge">
<title>Node45&#45;&gt;Node4</title>
<path fill="none" stroke="midnightblue" d="M1325.4,-235.44C1344.65,-226.64 1374.86,-212.81 1396.9,-202.72"/>
<polygon fill="midnightblue" stroke="midnightblue" points="1398.46,-205.86 1406.09,-198.52 1395.54,-199.5 1398.46,-205.86"/>
</g>
<!-- Node45&#45;&gt;Node7 -->
<g id="edge69" class="edge">
<title>Node45&#45;&gt;Node7</title>
<path fill="none" stroke="midnightblue" d="M1303.56,-235.43C1294.77,-212.53 1267.88,-149.16 1226.7,-112 1210.44,-97.32 1188.53,-86.51 1169.85,-79.17"/>
<polygon fill="midnightblue" stroke="midnightblue" points="1171.02,-75.87 1160.43,-75.65 1168.57,-82.43 1171.02,-75.87"/>
</g>
<!-- Node45&#45;&gt;Node18 -->
<g id="edge68" class="edge">
<title>Node45&#45;&gt;Node18</title>
<path fill="none" stroke="midnightblue" d="M1377.74,-236.08C1411.03,-229.86 1450.01,-218.76 1480.7,-199 1501.31,-185.74 1517.93,-162.53 1527.8,-146.38"/>
<polygon fill="midnightblue" stroke="midnightblue" points="1531.03,-147.79 1533.04,-137.39 1524.98,-144.26 1531.03,-147.79"/>
</g>
<!-- Node49&#45;&gt;Node12 -->
<g id="edge79" class="edge">
<title>Node49&#45;&gt;Node12</title>
<path fill="none" stroke="midnightblue" d="M1653.29,-403.26C1662.43,-394.99 1675.03,-381.69 1680.7,-367 1721.55,-261.22 1739.41,-213.42 1688.7,-112 1681.98,-98.54 1669.1,-88.07 1656.99,-80.62"/>
<polygon fill="midnightblue" stroke="midnightblue" points="1658.42,-77.41 1648,-75.52 1654.97,-83.5 1658.42,-77.41"/>
</g>
<!-- Node50 -->
<g id="node50" class="node">
<title>Node50</title>
<g id="a_node50"><a xlink:title=" ">
<polygon fill="white" stroke="#bfbfbf" points="1614.2,-347.5 1614.2,-366.5 1671.2,-366.5 1671.2,-347.5 1614.2,-347.5"/>
<text text-anchor="middle" x="1642.7" y="-354.5" font-family="Helvetica,sans-Serif" font-size="10.00">ostream</text>
</a>
</g>
</g>
<!-- Node49&#45;&gt;Node50 -->
<g id="edge80" class="edge">
<title>Node49&#45;&gt;Node50</title>
<path fill="none" stroke="midnightblue" d="M1642.7,-403.08C1642.7,-396.01 1642.7,-385.86 1642.7,-376.99"/>
<polygon fill="midnightblue" stroke="midnightblue" points="1646.2,-376.75 1642.7,-366.75 1639.2,-376.75 1646.2,-376.75"/>
</g>
</g>
</svg>
