<?xml version="1.0" encoding="UTF-8" standalone="no"?>
<!DOCTYPE svg PUBLIC "-//W3C//DTD SVG 1.1//EN"
 "http://www.w3.org/Graphics/SVG/1.1/DTD/svg11.dtd">
<!-- Generated by graphviz version 2.43.0 (0)
 -->
<!-- Title: itkSpatialFunction.h Pages: 1 -->
<svg width="1629pt" height="655pt"
 viewBox="0.00 0.00 1628.54 655.00" xmlns="http://www.w3.org/2000/svg" xmlns:xlink="http://www.w3.org/1999/xlink">
<g id="graph0" class="graph" transform="scale(1 1) rotate(0) translate(4 651)">
<title>itkSpatialFunction.h</title>
<polygon fill="white" stroke="transparent" points="-4,4 -4,-651 1624.54,-651 1624.54,4 -4,4"/>
<!-- Node1 -->
<g id="node1" class="node">
<title>Node1</title>
<g id="a_node1"><a xlink:title=" ">
<polygon fill="#bfbfbf" stroke="black" points="714.5,-627.5 714.5,-646.5 827.5,-646.5 827.5,-627.5 714.5,-627.5"/>
<text text-anchor="middle" x="771" y="-634.5" font-family="Helvetica,sans-Serif" font-size="10.00">itkSpatialFunction.h</text>
</a>
</g>
</g>
<!-- Node2 -->
<g id="node2" class="node">
<title>Node2</title>
<g id="a_node2"><a xlink:href="itkFunctionBase_8h.html" target="_top" xlink:title=" ">
<polygon fill="white" stroke="black" points="380,-571.5 380,-590.5 484,-590.5 484,-571.5 380,-571.5"/>
<text text-anchor="middle" x="432" y="-578.5" font-family="Helvetica,sans-Serif" font-size="10.00">itkFunctionBase.h</text>
</a>
</g>
</g>
<!-- Node1&#45;&gt;Node2 -->
<g id="edge1" class="edge">
<title>Node1&#45;&gt;Node2</title>
<path fill="none" stroke="midnightblue" d="M717.28,-627.44C656.59,-617.78 557.95,-602.06 494.02,-591.88"/>
<polygon fill="midnightblue" stroke="midnightblue" points="494.5,-588.41 484.07,-590.29 493.4,-595.32 494.5,-588.41"/>
</g>
<!-- Node34 -->
<g id="node34" class="node">
<title>Node34</title>
<g id="a_node34"><a xlink:href="itkPoint_8h.html" target="_top" xlink:title=" ">
<polygon fill="white" stroke="black" points="1031.5,-291.5 1031.5,-310.5 1094.5,-310.5 1094.5,-291.5 1031.5,-291.5"/>
<text text-anchor="middle" x="1063" y="-298.5" font-family="Helvetica,sans-Serif" font-size="10.00">itkPoint.h</text>
</a>
</g>
</g>
<!-- Node1&#45;&gt;Node34 -->
<g id="edge48" class="edge">
<title>Node1&#45;&gt;Node34</title>
<path fill="none" stroke="midnightblue" d="M771,-627.44C771,-608.94 771,-563.81 771,-526 771,-526 771,-526 771,-412 771,-359.18 940.41,-323.01 1021.16,-308.76"/>
<polygon fill="midnightblue" stroke="midnightblue" points="1022.22,-312.13 1031.47,-306.98 1021.02,-305.24 1022.22,-312.13"/>
</g>
<!-- Node55 -->
<g id="node55" class="node">
<title>Node55</title>
<g id="a_node55"><a xlink:title=" ">
<polygon fill="white" stroke="#bfbfbf" points="799.5,-571.5 799.5,-590.5 924.5,-590.5 924.5,-571.5 799.5,-571.5"/>
<text text-anchor="middle" x="862" y="-578.5" font-family="Helvetica,sans-Serif" font-size="10.00">itkSpatialFunction.hxx</text>
</a>
</g>
</g>
<!-- Node1&#45;&gt;Node55 -->
<g id="edge81" class="edge">
<title>Node1&#45;&gt;Node55</title>
<path fill="none" stroke="midnightblue" d="M785.62,-627.32C799.95,-618.82 822.01,-605.73 838.75,-595.8"/>
<polygon fill="midnightblue" stroke="midnightblue" points="840.6,-598.77 847.42,-590.65 837.03,-592.75 840.6,-598.77"/>
</g>
<!-- Node3 -->
<g id="node3" class="node">
<title>Node3</title>
<g id="a_node3"><a xlink:href="itkObject_8h.html" target="_top" xlink:title=" ">
<polygon fill="white" stroke="black" points="365,-347.5 365,-366.5 435,-366.5 435,-347.5 365,-347.5"/>
<text text-anchor="middle" x="400" y="-354.5" font-family="Helvetica,sans-Serif" font-size="10.00">itkObject.h</text>
</a>
</g>
</g>
<!-- Node2&#45;&gt;Node3 -->
<g id="edge2" class="edge">
<title>Node2&#45;&gt;Node3</title>
<path fill="none" stroke="midnightblue" d="M431.61,-571.45C430.33,-545.74 425.58,-466.99 413,-403 411.23,-394.01 408.5,-384.22 406,-376.07"/>
<polygon fill="midnightblue" stroke="midnightblue" points="409.33,-374.97 402.94,-366.52 402.66,-377.11 409.33,-374.97"/>
</g>
<!-- Node28 -->
<g id="node28" class="node">
<title>Node28</title>
<g id="a_node28"><a xlink:href="itkObjectFactory_8h.html" target="_top" xlink:title=" ">
<polygon fill="white" stroke="black" points="240,-515.5 240,-534.5 344,-534.5 344,-515.5 240,-515.5"/>
<text text-anchor="middle" x="292" y="-522.5" font-family="Helvetica,sans-Serif" font-size="10.00">itkObjectFactory.h</text>
</a>
</g>
</g>
<!-- Node2&#45;&gt;Node28 -->
<g id="edge38" class="edge">
<title>Node2&#45;&gt;Node28</title>
<path fill="none" stroke="midnightblue" d="M409.82,-571.44C386.57,-562.48 349.85,-548.31 323.58,-538.18"/>
<polygon fill="midnightblue" stroke="midnightblue" points="324.67,-534.85 314.08,-534.52 322.15,-541.38 324.67,-534.85"/>
</g>
<!-- Node4 -->
<g id="node4" class="node">
<title>Node4</title>
<g id="a_node4"><a xlink:href="itkLightObject_8h.html" target="_top" xlink:title=" ">
<polygon fill="white" stroke="black" points="397,-179.5 397,-198.5 491,-198.5 491,-179.5 397,-179.5"/>
<text text-anchor="middle" x="444" y="-186.5" font-family="Helvetica,sans-Serif" font-size="10.00">itkLightObject.h</text>
</a>
</g>
</g>
<!-- Node3&#45;&gt;Node4 -->
<g id="edge3" class="edge">
<title>Node3&#45;&gt;Node4</title>
<path fill="none" stroke="midnightblue" d="M387.61,-347.26C360.46,-327.01 300.24,-275.54 328,-235 341.45,-215.36 364.81,-204.29 387.06,-198.05"/>
<polygon fill="midnightblue" stroke="midnightblue" points="387.99,-201.43 396.83,-195.59 386.28,-194.64 387.99,-201.43"/>
</g>
<!-- Node16 -->
<g id="node16" class="node">
<title>Node16</title>
<g id="a_node16"><a xlink:href="itkSingletonMacro_8h.html" target="_top" xlink:title=" ">
<polygon fill="white" stroke="black" points="10,-67.5 10,-86.5 124,-86.5 124,-67.5 10,-67.5"/>
<text text-anchor="middle" x="67" y="-74.5" font-family="Helvetica,sans-Serif" font-size="10.00">itkSingletonMacro.h</text>
</a>
</g>
</g>
<!-- Node3&#45;&gt;Node16 -->
<g id="edge36" class="edge">
<title>Node3&#45;&gt;Node16</title>
<path fill="none" stroke="midnightblue" d="M384.85,-347.37C370.14,-338.77 347.41,-324.88 329,-311 229.86,-236.27 122.4,-132.73 82.79,-93.71"/>
<polygon fill="midnightblue" stroke="midnightblue" points="85.17,-91.14 75.6,-86.6 80.25,-96.12 85.17,-91.14"/>
</g>
<!-- Node19 -->
<g id="node19" class="node">
<title>Node19</title>
<g id="a_node19"><a xlink:href="itkEventObject_8h.html" target="_top" xlink:title=" ">
<polygon fill="white" stroke="black" points="713,-291.5 713,-310.5 811,-310.5 811,-291.5 713,-291.5"/>
<text text-anchor="middle" x="762" y="-298.5" font-family="Helvetica,sans-Serif" font-size="10.00">itkEventObject.h</text>
</a>
</g>
</g>
<!-- Node3&#45;&gt;Node19 -->
<g id="edge24" class="edge">
<title>Node3&#45;&gt;Node19</title>
<path fill="none" stroke="midnightblue" d="M435.04,-350.77C497.11,-341.51 626.98,-322.14 703.03,-310.8"/>
<polygon fill="midnightblue" stroke="midnightblue" points="703.57,-314.26 712.94,-309.32 702.53,-307.33 703.57,-314.26"/>
</g>
<!-- Node20 -->
<g id="node20" class="node">
<title>Node20</title>
<g id="a_node20"><a xlink:href="itkMetaDataDictionary_8h.html" target="_top" xlink:title=" ">
<polygon fill="white" stroke="black" points="516.5,-291.5 516.5,-310.5 651.5,-310.5 651.5,-291.5 516.5,-291.5"/>
<text text-anchor="middle" x="584" y="-298.5" font-family="Helvetica,sans-Serif" font-size="10.00">itkMetaDataDictionary.h</text>
</a>
</g>
</g>
<!-- Node3&#45;&gt;Node20 -->
<g id="edge26" class="edge">
<title>Node3&#45;&gt;Node20</title>
<path fill="none" stroke="midnightblue" d="M429.16,-347.44C460.51,-338.24 510.53,-323.56 545.2,-313.39"/>
<polygon fill="midnightblue" stroke="midnightblue" points="546.37,-316.69 554.98,-310.52 544.4,-309.97 546.37,-316.69"/>
</g>
<!-- Node27 -->
<g id="node27" class="node">
<title>Node27</title>
<g id="a_node27"><a xlink:title=" ">
<polygon fill="white" stroke="#bfbfbf" points="367.5,-291.5 367.5,-310.5 432.5,-310.5 432.5,-291.5 367.5,-291.5"/>
<text text-anchor="middle" x="400" y="-298.5" font-family="Helvetica,sans-Serif" font-size="10.00">functional</text>
</a>
</g>
</g>
<!-- Node3&#45;&gt;Node27 -->
<g id="edge37" class="edge">
<title>Node3&#45;&gt;Node27</title>
<path fill="none" stroke="midnightblue" d="M400,-347.08C400,-340.01 400,-329.86 400,-320.99"/>
<polygon fill="midnightblue" stroke="midnightblue" points="403.5,-320.75 400,-310.75 396.5,-320.75 403.5,-320.75"/>
</g>
<!-- Node5 -->
<g id="node5" class="node">
<title>Node5</title>
<g id="a_node5"><a xlink:href="itkMacro_8h.html" target="_top" xlink:title=" ">
<polygon fill="white" stroke="black" points="692,-6 692,-25 760,-25 760,-6 692,-6"/>
<text text-anchor="middle" x="726" y="-13" font-family="Helvetica,sans-Serif" font-size="10.00">itkMacro.h</text>
</a>
</g>
</g>
<!-- Node4&#45;&gt;Node5 -->
<g id="edge4" class="edge">
<title>Node4&#45;&gt;Node5</title>
<path fill="none" stroke="midnightblue" d="M426.59,-179.47C412.98,-171.84 394.79,-159.36 385,-143 367.53,-113.81 353.73,-92.71 376,-67 415.07,-21.89 596.61,-16.17 681.73,-16.03"/>
<polygon fill="midnightblue" stroke="midnightblue" points="681.86,-19.53 691.86,-16.04 681.87,-12.53 681.86,-19.53"/>
</g>
<!-- Node6 -->
<g id="node6" class="node">
<title>Node6</title>
<g id="a_node6"><a xlink:href="itkSmartPointer_8h.html" target="_top" xlink:title=" ">
<polygon fill="white" stroke="black" points="393.5,-123.5 393.5,-142.5 494.5,-142.5 494.5,-123.5 393.5,-123.5"/>
<text text-anchor="middle" x="444" y="-130.5" font-family="Helvetica,sans-Serif" font-size="10.00">itkSmartPointer.h</text>
</a>
</g>
</g>
<!-- Node4&#45;&gt;Node6 -->
<g id="edge5" class="edge">
<title>Node4&#45;&gt;Node6</title>
<path fill="none" stroke="midnightblue" d="M444,-179.08C444,-172.01 444,-161.86 444,-152.99"/>
<polygon fill="midnightblue" stroke="midnightblue" points="447.5,-152.75 444,-142.75 440.5,-152.75 447.5,-152.75"/>
</g>
<!-- Node7 -->
<g id="node7" class="node">
<title>Node7</title>
<g id="a_node7"><a xlink:title=" ">
<polygon fill="white" stroke="#bfbfbf" points="638,-67.5 638,-86.5 698,-86.5 698,-67.5 638,-67.5"/>
<text text-anchor="middle" x="668" y="-74.5" font-family="Helvetica,sans-Serif" font-size="10.00">iostream</text>
</a>
</g>
</g>
<!-- Node4&#45;&gt;Node7 -->
<g id="edge22" class="edge">
<title>Node4&#45;&gt;Node7</title>
<path fill="none" stroke="midnightblue" d="M455.06,-179.48C472.82,-166.09 509.16,-139.91 543,-123 570.6,-109.21 603.48,-97.55 628.59,-89.55"/>
<polygon fill="midnightblue" stroke="midnightblue" points="629.64,-92.89 638.15,-86.57 627.56,-86.21 629.64,-92.89"/>
</g>
<!-- Node11 -->
<g id="node11" class="node">
<title>Node11</title>
<g id="a_node11"><a xlink:href="itkTimeStamp_8h.html" target="_top" xlink:title=" ">
<polygon fill="white" stroke="black" points="164.5,-123.5 164.5,-142.5 259.5,-142.5 259.5,-123.5 164.5,-123.5"/>
<text text-anchor="middle" x="212" y="-130.5" font-family="Helvetica,sans-Serif" font-size="10.00">itkTimeStamp.h</text>
</a>
</g>
</g>
<!-- Node4&#45;&gt;Node11 -->
<g id="edge10" class="edge">
<title>Node4&#45;&gt;Node11</title>
<path fill="none" stroke="midnightblue" d="M407.24,-179.44C366.94,-170.06 302.19,-154.99 258.42,-144.8"/>
<polygon fill="midnightblue" stroke="midnightblue" points="259.12,-141.37 248.59,-142.52 257.54,-148.19 259.12,-141.37"/>
</g>
<!-- Node15 -->
<g id="node15" class="node">
<title>Node15</title>
<g id="a_node15"><a xlink:title=" ">
<polygon fill="white" stroke="#bfbfbf" points="278,-67.5 278,-86.5 328,-86.5 328,-67.5 278,-67.5"/>
<text text-anchor="middle" x="303" y="-74.5" font-family="Helvetica,sans-Serif" font-size="10.00">atomic</text>
</a>
</g>
</g>
<!-- Node4&#45;&gt;Node15 -->
<g id="edge21" class="edge">
<title>Node4&#45;&gt;Node15</title>
<path fill="none" stroke="midnightblue" d="M417.67,-179.44C397.62,-172.02 370.14,-159.81 350,-143 334.02,-129.66 320.67,-109.73 312.34,-95.46"/>
<polygon fill="midnightblue" stroke="midnightblue" points="315.33,-93.65 307.39,-86.64 309.23,-97.07 315.33,-93.65"/>
</g>
<!-- Node17 -->
<g id="node17" class="node">
<title>Node17</title>
<g id="a_node17"><a xlink:href="itkIndent_8h.html" target="_top" xlink:title=" ">
<polygon fill="white" stroke="black" points="666.5,-123.5 666.5,-142.5 735.5,-142.5 735.5,-123.5 666.5,-123.5"/>
<text text-anchor="middle" x="701" y="-130.5" font-family="Helvetica,sans-Serif" font-size="10.00">itkIndent.h</text>
</a>
</g>
</g>
<!-- Node4&#45;&gt;Node17 -->
<g id="edge18" class="edge">
<title>Node4&#45;&gt;Node17</title>
<path fill="none" stroke="midnightblue" d="M484.72,-179.44C531.5,-169.61 608,-153.54 656.37,-143.38"/>
<polygon fill="midnightblue" stroke="midnightblue" points="657.17,-146.79 666.24,-141.3 655.73,-139.94 657.17,-146.79"/>
</g>
<!-- Node18 -->
<g id="node18" class="node">
<title>Node18</title>
<g id="a_node18"><a xlink:title=" ">
<polygon fill="white" stroke="#bfbfbf" points="551.5,-123.5 551.5,-142.5 608.5,-142.5 608.5,-123.5 551.5,-123.5"/>
<text text-anchor="middle" x="580" y="-130.5" font-family="Helvetica,sans-Serif" font-size="10.00">typeinfo</text>
</a>
</g>
</g>
<!-- Node4&#45;&gt;Node18 -->
<g id="edge23" class="edge">
<title>Node4&#45;&gt;Node18</title>
<path fill="none" stroke="midnightblue" d="M465.55,-179.44C488.03,-170.52 523.49,-156.44 548.98,-146.32"/>
<polygon fill="midnightblue" stroke="midnightblue" points="550.55,-149.46 558.55,-142.52 547.97,-142.95 550.55,-149.46"/>
</g>
<!-- Node6&#45;&gt;Node7 -->
<g id="edge6" class="edge">
<title>Node6&#45;&gt;Node7</title>
<path fill="none" stroke="midnightblue" d="M479.49,-123.44C519.84,-113.72 585.55,-97.88 627.77,-87.7"/>
<polygon fill="midnightblue" stroke="midnightblue" points="628.8,-91.05 637.7,-85.3 627.16,-84.25 628.8,-91.05"/>
</g>
<!-- Node8 -->
<g id="node8" class="node">
<title>Node8</title>
<g id="a_node8"><a xlink:title=" ">
<polygon fill="white" stroke="#bfbfbf" points="384.5,-67.5 384.5,-86.5 429.5,-86.5 429.5,-67.5 384.5,-67.5"/>
<text text-anchor="middle" x="407" y="-74.5" font-family="Helvetica,sans-Serif" font-size="10.00">utility</text>
</a>
</g>
</g>
<!-- Node6&#45;&gt;Node8 -->
<g id="edge7" class="edge">
<title>Node6&#45;&gt;Node8</title>
<path fill="none" stroke="midnightblue" d="M437.89,-123.08C432.72,-115.53 425.15,-104.49 418.81,-95.23"/>
<polygon fill="midnightblue" stroke="midnightblue" points="421.54,-93.02 413,-86.75 415.76,-96.98 421.54,-93.02"/>
</g>
<!-- Node9 -->
<g id="node9" class="node">
<title>Node9</title>
<g id="a_node9"><a xlink:title=" ">
<polygon fill="white" stroke="#bfbfbf" points="447.5,-67.5 447.5,-86.5 516.5,-86.5 516.5,-67.5 447.5,-67.5"/>
<text text-anchor="middle" x="482" y="-74.5" font-family="Helvetica,sans-Serif" font-size="10.00">type_traits</text>
</a>
</g>
</g>
<!-- Node6&#45;&gt;Node9 -->
<g id="edge8" class="edge">
<title>Node6&#45;&gt;Node9</title>
<path fill="none" stroke="midnightblue" d="M450.27,-123.08C455.64,-115.46 463.52,-104.26 470.08,-94.94"/>
<polygon fill="midnightblue" stroke="midnightblue" points="472.95,-96.94 475.84,-86.75 467.22,-92.91 472.95,-96.94"/>
</g>
<!-- Node10 -->
<g id="node10" class="node">
<title>Node10</title>
<g id="a_node10"><a xlink:title=" ">
<polygon fill="white" stroke="#bfbfbf" points="534.5,-67.5 534.5,-86.5 619.5,-86.5 619.5,-67.5 534.5,-67.5"/>
<text text-anchor="middle" x="577" y="-74.5" font-family="Helvetica,sans-Serif" font-size="10.00">itkConfigure.h</text>
</a>
</g>
</g>
<!-- Node6&#45;&gt;Node10 -->
<g id="edge9" class="edge">
<title>Node6&#45;&gt;Node10</title>
<path fill="none" stroke="midnightblue" d="M465.07,-123.44C487.06,-114.52 521.73,-100.44 546.66,-90.32"/>
<polygon fill="midnightblue" stroke="midnightblue" points="548.08,-93.52 556.02,-86.52 545.44,-87.04 548.08,-93.52"/>
</g>
<!-- Node11&#45;&gt;Node5 -->
<g id="edge11" class="edge">
<title>Node11&#45;&gt;Node5</title>
<path fill="none" stroke="midnightblue" d="M216.63,-123.44C224.97,-108.98 243.98,-80.04 269,-67 340.19,-29.9 581.61,-19.92 681.83,-17.35"/>
<polygon fill="midnightblue" stroke="midnightblue" points="682.01,-20.85 691.93,-17.11 681.84,-13.85 682.01,-20.85"/>
</g>
<!-- Node12 -->
<g id="node12" class="node">
<title>Node12</title>
<g id="a_node12"><a xlink:href="itkIntTypes_8h.html" target="_top" xlink:title=" ">
<polygon fill="white" stroke="black" points="142.5,-67.5 142.5,-86.5 221.5,-86.5 221.5,-67.5 142.5,-67.5"/>
<text text-anchor="middle" x="182" y="-74.5" font-family="Helvetica,sans-Serif" font-size="10.00">itkIntTypes.h</text>
</a>
</g>
</g>
<!-- Node11&#45;&gt;Node12 -->
<g id="edge12" class="edge">
<title>Node11&#45;&gt;Node12</title>
<path fill="none" stroke="midnightblue" d="M207.05,-123.08C202.9,-115.61 196.85,-104.72 191.73,-95.52"/>
<polygon fill="midnightblue" stroke="midnightblue" points="194.78,-93.79 186.86,-86.75 188.66,-97.19 194.78,-93.79"/>
</g>
<!-- Node11&#45;&gt;Node15 -->
<g id="edge16" class="edge">
<title>Node11&#45;&gt;Node15</title>
<path fill="none" stroke="midnightblue" d="M226.62,-123.32C240.95,-114.82 263.01,-101.73 279.75,-91.8"/>
<polygon fill="midnightblue" stroke="midnightblue" points="281.6,-94.77 288.42,-86.65 278.03,-88.75 281.6,-94.77"/>
</g>
<!-- Node11&#45;&gt;Node16 -->
<g id="edge17" class="edge">
<title>Node11&#45;&gt;Node16</title>
<path fill="none" stroke="midnightblue" d="M189.02,-123.44C164.84,-114.44 126.58,-100.19 99.35,-90.05"/>
<polygon fill="midnightblue" stroke="midnightblue" points="100.46,-86.73 89.87,-86.52 98.02,-93.29 100.46,-86.73"/>
</g>
<!-- Node12&#45;&gt;Node5 -->
<g id="edge13" class="edge">
<title>Node12&#45;&gt;Node5</title>
<path fill="none" stroke="midnightblue" d="M221.77,-69.08C226.56,-68.34 231.38,-67.62 236,-67 399.74,-44.94 595.4,-27.42 681.56,-20.14"/>
<polygon fill="midnightblue" stroke="midnightblue" points="682.08,-23.61 691.75,-19.29 681.5,-16.64 682.08,-23.61"/>
</g>
<!-- Node13 -->
<g id="node13" class="node">
<title>Node13</title>
<g id="a_node13"><a xlink:title=" ">
<polygon fill="white" stroke="#bfbfbf" points="191,-6 191,-25 241,-25 241,-6 191,-6"/>
<text text-anchor="middle" x="216" y="-13" font-family="Helvetica,sans-Serif" font-size="10.00">cstdint</text>
</a>
</g>
</g>
<!-- Node12&#45;&gt;Node13 -->
<g id="edge14" class="edge">
<title>Node12&#45;&gt;Node13</title>
<path fill="none" stroke="midnightblue" d="M186.87,-67.48C191.87,-58.73 199.79,-44.87 206.11,-33.81"/>
<polygon fill="midnightblue" stroke="midnightblue" points="209.22,-35.43 211.14,-25.01 203.14,-31.96 209.22,-35.43"/>
</g>
<!-- Node14 -->
<g id="node14" class="node">
<title>Node14</title>
<g id="a_node14"><a xlink:title=" ">
<polygon fill="white" stroke="#bfbfbf" points="123,-6 123,-25 173,-25 173,-6 123,-6"/>
<text text-anchor="middle" x="148" y="-13" font-family="Helvetica,sans-Serif" font-size="10.00">climits</text>
</a>
</g>
</g>
<!-- Node12&#45;&gt;Node14 -->
<g id="edge15" class="edge">
<title>Node12&#45;&gt;Node14</title>
<path fill="none" stroke="midnightblue" d="M177.13,-67.48C172.13,-58.73 164.21,-44.87 157.89,-33.81"/>
<polygon fill="midnightblue" stroke="midnightblue" points="160.86,-31.96 152.86,-25.01 154.78,-35.43 160.86,-31.96"/>
</g>
<!-- Node17&#45;&gt;Node5 -->
<g id="edge19" class="edge">
<title>Node17&#45;&gt;Node5</title>
<path fill="none" stroke="midnightblue" d="M702.88,-123.32C706.91,-104.67 716.49,-60.44 721.97,-35.13"/>
<polygon fill="midnightblue" stroke="midnightblue" points="725.4,-35.8 724.1,-25.28 718.56,-34.32 725.4,-35.8"/>
</g>
<!-- Node17&#45;&gt;Node7 -->
<g id="edge20" class="edge">
<title>Node17&#45;&gt;Node7</title>
<path fill="none" stroke="midnightblue" d="M695.55,-123.08C690.99,-115.61 684.33,-104.72 678.71,-95.52"/>
<polygon fill="midnightblue" stroke="midnightblue" points="681.55,-93.46 673.35,-86.75 675.58,-97.11 681.55,-93.46"/>
</g>
<!-- Node19&#45;&gt;Node17 -->
<g id="edge25" class="edge">
<title>Node19&#45;&gt;Node17</title>
<path fill="none" stroke="midnightblue" d="M760.59,-291.43C758.39,-278.86 753.7,-254.74 747,-235 736.77,-204.86 720.59,-171.56 710.4,-151.73"/>
<polygon fill="midnightblue" stroke="midnightblue" points="713.4,-149.92 705.67,-142.67 707.19,-153.16 713.4,-149.92"/>
</g>
<!-- Node21 -->
<g id="node21" class="node">
<title>Node21</title>
<g id="a_node21"><a xlink:href="itkMetaDataObjectBase_8h.html" target="_top" xlink:title=" ">
<polygon fill="white" stroke="black" points="402,-235.5 402,-254.5 544,-254.5 544,-235.5 402,-235.5"/>
<text text-anchor="middle" x="473" y="-242.5" font-family="Helvetica,sans-Serif" font-size="10.00">itkMetaDataObjectBase.h</text>
</a>
</g>
</g>
<!-- Node20&#45;&gt;Node21 -->
<g id="edge27" class="edge">
<title>Node20&#45;&gt;Node21</title>
<path fill="none" stroke="midnightblue" d="M566.17,-291.32C548.28,-282.62 520.52,-269.12 499.95,-259.11"/>
<polygon fill="midnightblue" stroke="midnightblue" points="501.31,-255.88 490.79,-254.65 498.25,-262.18 501.31,-255.88"/>
</g>
<!-- Node22 -->
<g id="node22" class="node">
<title>Node22</title>
<g id="a_node22"><a xlink:title=" ">
<polygon fill="white" stroke="#bfbfbf" points="793,-6 793,-25 857,-25 857,-6 793,-6"/>
<text text-anchor="middle" x="825" y="-13" font-family="Helvetica,sans-Serif" font-size="10.00">algorithm</text>
</a>
</g>
</g>
<!-- Node20&#45;&gt;Node22 -->
<g id="edge31" class="edge">
<title>Node20&#45;&gt;Node22</title>
<path fill="none" stroke="midnightblue" d="M651.55,-295.99C684.11,-290.73 721.51,-279.32 747,-255 810.78,-194.13 822.47,-80.44 824.56,-35.49"/>
<polygon fill="midnightblue" stroke="midnightblue" points="828.06,-35.51 824.92,-25.4 821.07,-35.27 828.06,-35.51"/>
</g>
<!-- Node23 -->
<g id="node23" class="node">
<title>Node23</title>
<g id="a_node23"><a xlink:title=" ">
<polygon fill="white" stroke="#bfbfbf" points="336.5,-235.5 336.5,-254.5 383.5,-254.5 383.5,-235.5 336.5,-235.5"/>
<text text-anchor="middle" x="360" y="-242.5" font-family="Helvetica,sans-Serif" font-size="10.00">vector</text>
</a>
</g>
</g>
<!-- Node20&#45;&gt;Node23 -->
<g id="edge32" class="edge">
<title>Node20&#45;&gt;Node23</title>
<path fill="none" stroke="midnightblue" d="M545.85,-291.42C509.27,-283.11 452.24,-269.91 393.58,-255.08"/>
<polygon fill="midnightblue" stroke="midnightblue" points="394.32,-251.66 383.77,-252.59 392.6,-258.44 394.32,-251.66"/>
</g>
<!-- Node24 -->
<g id="node24" class="node">
<title>Node24</title>
<g id="a_node24"><a xlink:title=" ">
<polygon fill="white" stroke="#bfbfbf" points="700,-235.5 700,-254.5 738,-254.5 738,-235.5 700,-235.5"/>
<text text-anchor="middle" x="719" y="-242.5" font-family="Helvetica,sans-Serif" font-size="10.00">map</text>
</a>
</g>
</g>
<!-- Node20&#45;&gt;Node24 -->
<g id="edge33" class="edge">
<title>Node20&#45;&gt;Node24</title>
<path fill="none" stroke="midnightblue" d="M605.39,-291.44C628.36,-282.25 664.98,-267.61 690.41,-257.43"/>
<polygon fill="midnightblue" stroke="midnightblue" points="691.91,-260.61 699.89,-253.64 689.31,-254.11 691.91,-260.61"/>
</g>
<!-- Node25 -->
<g id="node25" class="node">
<title>Node25</title>
<g id="a_node25"><a xlink:title=" ">
<polygon fill="white" stroke="#bfbfbf" points="562,-235.5 562,-254.5 606,-254.5 606,-235.5 562,-235.5"/>
<text text-anchor="middle" x="584" y="-242.5" font-family="Helvetica,sans-Serif" font-size="10.00">string</text>
</a>
</g>
</g>
<!-- Node20&#45;&gt;Node25 -->
<g id="edge34" class="edge">
<title>Node20&#45;&gt;Node25</title>
<path fill="none" stroke="midnightblue" d="M584,-291.08C584,-284.01 584,-273.86 584,-264.99"/>
<polygon fill="midnightblue" stroke="midnightblue" points="587.5,-264.75 584,-254.75 580.5,-264.75 587.5,-264.75"/>
</g>
<!-- Node26 -->
<g id="node26" class="node">
<title>Node26</title>
<g id="a_node26"><a xlink:title=" ">
<polygon fill="white" stroke="#bfbfbf" points="624,-235.5 624,-254.5 682,-254.5 682,-235.5 624,-235.5"/>
<text text-anchor="middle" x="653" y="-242.5" font-family="Helvetica,sans-Serif" font-size="10.00">memory</text>
</a>
</g>
</g>
<!-- Node20&#45;&gt;Node26 -->
<g id="edge35" class="edge">
<title>Node20&#45;&gt;Node26</title>
<path fill="none" stroke="midnightblue" d="M595.09,-291.32C605.49,-283.18 621.26,-270.84 633.72,-261.09"/>
<polygon fill="midnightblue" stroke="midnightblue" points="635.99,-263.75 641.71,-254.83 631.68,-258.24 635.99,-263.75"/>
</g>
<!-- Node21&#45;&gt;Node4 -->
<g id="edge28" class="edge">
<title>Node21&#45;&gt;Node4</title>
<path fill="none" stroke="midnightblue" d="M468.21,-235.08C464.24,-227.69 458.47,-216.95 453.57,-207.81"/>
<polygon fill="midnightblue" stroke="midnightblue" points="456.51,-205.91 448.7,-198.75 450.35,-209.22 456.51,-205.91"/>
</g>
<!-- Node21&#45;&gt;Node7 -->
<g id="edge30" class="edge">
<title>Node21&#45;&gt;Node7</title>
<path fill="none" stroke="midnightblue" d="M488.59,-235.4C516.53,-219.53 576.11,-183.53 618,-143 633.13,-128.36 647.46,-108.95 656.87,-95.16"/>
<polygon fill="midnightblue" stroke="midnightblue" points="659.92,-96.9 662.55,-86.64 654.09,-93.02 659.92,-96.9"/>
</g>
<!-- Node21&#45;&gt;Node18 -->
<g id="edge29" class="edge">
<title>Node21&#45;&gt;Node18</title>
<path fill="none" stroke="midnightblue" d="M481.4,-235.37C499.29,-216.97 541.41,-173.67 564.39,-150.05"/>
<polygon fill="midnightblue" stroke="midnightblue" points="567.18,-152.2 571.64,-142.59 562.16,-147.32 567.18,-152.2"/>
</g>
<!-- Node29 -->
<g id="node29" class="node">
<title>Node29</title>
<g id="a_node29"><a xlink:href="itkObjectFactoryBase_8h.html" target="_top" xlink:title=" ">
<polygon fill="white" stroke="black" points="124.5,-459.5 124.5,-478.5 253.5,-478.5 253.5,-459.5 124.5,-459.5"/>
<text text-anchor="middle" x="189" y="-466.5" font-family="Helvetica,sans-Serif" font-size="10.00">itkObjectFactoryBase.h</text>
</a>
</g>
</g>
<!-- Node28&#45;&gt;Node29 -->
<g id="edge39" class="edge">
<title>Node28&#45;&gt;Node29</title>
<path fill="none" stroke="midnightblue" d="M275.45,-515.32C259.01,-506.7 233.57,-493.36 214.53,-483.39"/>
<polygon fill="midnightblue" stroke="midnightblue" points="215.99,-480.2 205.51,-478.65 212.74,-486.4 215.99,-480.2"/>
</g>
<!-- Node29&#45;&gt;Node16 -->
<g id="edge42" class="edge">
<title>Node29&#45;&gt;Node16</title>
<path fill="none" stroke="midnightblue" d="M144.54,-459.45C122.05,-452.98 95.99,-441.85 79,-423 58.85,-400.64 60,-388.1 60,-358 60,-358 60,-358 60,-188 60,-155.88 63.01,-118.6 65.08,-96.73"/>
<polygon fill="midnightblue" stroke="midnightblue" points="68.59,-96.84 66.08,-86.55 61.62,-96.15 68.59,-96.84"/>
</g>
<!-- Node29&#45;&gt;Node23 -->
<g id="edge47" class="edge">
<title>Node29&#45;&gt;Node23</title>
<path fill="none" stroke="midnightblue" d="M195.7,-459.3C221.24,-426.15 312.69,-307.41 346.94,-262.96"/>
<polygon fill="midnightblue" stroke="midnightblue" points="349.83,-264.94 353.16,-254.88 344.28,-260.67 349.83,-264.94"/>
</g>
<!-- Node30 -->
<g id="node30" class="node">
<title>Node30</title>
<g id="a_node30"><a xlink:href="itkCreateObjectFunction_8h.html" target="_top" xlink:title=" ">
<polygon fill="white" stroke="black" points="260.5,-403.5 260.5,-422.5 403.5,-422.5 403.5,-403.5 260.5,-403.5"/>
<text text-anchor="middle" x="332" y="-410.5" font-family="Helvetica,sans-Serif" font-size="10.00">itkCreateObjectFunction.h</text>
</a>
</g>
</g>
<!-- Node29&#45;&gt;Node30 -->
<g id="edge40" class="edge">
<title>Node29&#45;&gt;Node30</title>
<path fill="none" stroke="midnightblue" d="M211.66,-459.44C235.4,-450.48 272.91,-436.31 299.74,-426.18"/>
<polygon fill="midnightblue" stroke="midnightblue" points="301.33,-429.32 309.45,-422.52 298.86,-422.77 301.33,-429.32"/>
</g>
<!-- Node31 -->
<g id="node31" class="node">
<title>Node31</title>
<g id="a_node31"><a xlink:href="itkCommonEnums_8h.html" target="_top" xlink:title=" ">
<polygon fill="white" stroke="black" points="88,-403.5 88,-422.5 204,-422.5 204,-403.5 88,-403.5"/>
<text text-anchor="middle" x="146" y="-410.5" font-family="Helvetica,sans-Serif" font-size="10.00">itkCommonEnums.h</text>
</a>
</g>
</g>
<!-- Node29&#45;&gt;Node31 -->
<g id="edge43" class="edge">
<title>Node29&#45;&gt;Node31</title>
<path fill="none" stroke="midnightblue" d="M181.9,-459.08C175.76,-451.38 166.73,-440.03 159.26,-430.65"/>
<polygon fill="midnightblue" stroke="midnightblue" points="161.94,-428.39 152.97,-422.75 156.46,-432.75 161.94,-428.39"/>
</g>
<!-- Node33 -->
<g id="node33" class="node">
<title>Node33</title>
<g id="a_node33"><a xlink:title=" ">
<polygon fill="white" stroke="#bfbfbf" points="0,-403.5 0,-422.5 32,-422.5 32,-403.5 0,-403.5"/>
<text text-anchor="middle" x="16" y="-410.5" font-family="Helvetica,sans-Serif" font-size="10.00">list</text>
</a>
</g>
</g>
<!-- Node29&#45;&gt;Node33 -->
<g id="edge46" class="edge">
<title>Node29&#45;&gt;Node33</title>
<path fill="none" stroke="midnightblue" d="M161.59,-459.44C128.75,-449.19 74.14,-432.15 41.96,-422.1"/>
<polygon fill="midnightblue" stroke="midnightblue" points="42.94,-418.74 32.35,-419.1 40.86,-425.42 42.94,-418.74"/>
</g>
<!-- Node30&#45;&gt;Node3 -->
<g id="edge41" class="edge">
<title>Node30&#45;&gt;Node3</title>
<path fill="none" stroke="midnightblue" d="M342.93,-403.32C353.17,-395.18 368.72,-382.84 381,-373.09"/>
<polygon fill="midnightblue" stroke="midnightblue" points="383.22,-375.79 388.88,-366.83 378.87,-370.31 383.22,-375.79"/>
</g>
<!-- Node31&#45;&gt;Node12 -->
<g id="edge44" class="edge">
<title>Node31&#45;&gt;Node12</title>
<path fill="none" stroke="midnightblue" d="M144.01,-403.43C142.03,-394.42 139.13,-379.8 138,-367 137.22,-358.15 137.64,-355.88 138,-347 142,-247.2 126.29,-218.35 156,-123 159.05,-113.22 164.51,-103.26 169.64,-95.21"/>
<polygon fill="midnightblue" stroke="midnightblue" points="172.65,-97 175.35,-86.75 166.85,-93.08 172.65,-97"/>
</g>
<!-- Node32 -->
<g id="node32" class="node">
<title>Node32</title>
<g id="a_node32"><a xlink:title=" ">
<polygon fill="white" stroke="#bfbfbf" points="146.5,-347.5 146.5,-366.5 203.5,-366.5 203.5,-347.5 146.5,-347.5"/>
<text text-anchor="middle" x="175" y="-354.5" font-family="Helvetica,sans-Serif" font-size="10.00">ostream</text>
</a>
</g>
</g>
<!-- Node31&#45;&gt;Node32 -->
<g id="edge45" class="edge">
<title>Node31&#45;&gt;Node32</title>
<path fill="none" stroke="midnightblue" d="M150.79,-403.08C154.76,-395.69 160.53,-384.95 165.43,-375.81"/>
<polygon fill="midnightblue" stroke="midnightblue" points="168.65,-377.22 170.3,-366.75 162.49,-373.91 168.65,-377.22"/>
</g>
<!-- Node35 -->
<g id="node35" class="node">
<title>Node35</title>
<g id="a_node35"><a xlink:href="itkNumericTraits_8h.html" target="_top" xlink:title=" ">
<polygon fill="white" stroke="black" points="1134,-123.5 1134,-142.5 1240,-142.5 1240,-123.5 1134,-123.5"/>
<text text-anchor="middle" x="1187" y="-130.5" font-family="Helvetica,sans-Serif" font-size="10.00">itkNumericTraits.h</text>
</a>
</g>
</g>
<!-- Node34&#45;&gt;Node35 -->
<g id="edge49" class="edge">
<title>Node34&#45;&gt;Node35</title>
<path fill="none" stroke="midnightblue" d="M1094.73,-299.35C1202.11,-296.4 1548.78,-280.61 1615,-199 1661.86,-141.25 1380.52,-133.94 1250.39,-133.6"/>
<polygon fill="midnightblue" stroke="midnightblue" points="1250.16,-130.1 1240.16,-133.59 1250.15,-137.1 1250.16,-130.1"/>
</g>
<!-- Node43 -->
<g id="node43" class="node">
<title>Node43</title>
<g id="a_node43"><a xlink:href="itkVector_8h.html" target="_top" xlink:title=" ">
<polygon fill="white" stroke="black" points="906,-235.5 906,-254.5 974,-254.5 974,-235.5 906,-235.5"/>
<text text-anchor="middle" x="940" y="-242.5" font-family="Helvetica,sans-Serif" font-size="10.00">itkVector.h</text>
</a>
</g>
</g>
<!-- Node34&#45;&gt;Node43 -->
<g id="edge62" class="edge">
<title>Node34&#45;&gt;Node43</title>
<path fill="none" stroke="midnightblue" d="M1043.51,-291.44C1023.36,-282.6 991.68,-268.69 968.67,-258.59"/>
<polygon fill="midnightblue" stroke="midnightblue" points="969.96,-255.33 959.4,-254.52 967.15,-261.74 969.96,-255.33"/>
</g>
<!-- Node44 -->
<g id="node44" class="node">
<title>Node44</title>
<g id="a_node44"><a xlink:title=" ">
<polygon fill="white" stroke="#bfbfbf" points="968.5,-179.5 968.5,-198.5 1081.5,-198.5 1081.5,-179.5 968.5,-179.5"/>
<text text-anchor="middle" x="1025" y="-186.5" font-family="Helvetica,sans-Serif" font-size="10.00">vnl/vnl_vector_ref.h</text>
</a>
</g>
</g>
<!-- Node34&#45;&gt;Node44 -->
<g id="edge66" class="edge">
<title>Node34&#45;&gt;Node44</title>
<path fill="none" stroke="midnightblue" d="M1068.25,-291.21C1075.21,-278.36 1085.64,-253.9 1077,-235 1071.22,-222.36 1059.95,-211.91 1049.37,-204.27"/>
<polygon fill="midnightblue" stroke="midnightblue" points="1051.04,-201.18 1040.78,-198.53 1047.15,-207 1051.04,-201.18"/>
</g>
<!-- Node46 -->
<g id="node46" class="node">
<title>Node46</title>
<g id="a_node46"><a xlink:href="itkMath_8h.html" target="_top" xlink:title=" ">
<polygon fill="white" stroke="black" points="1276.5,-235.5 1276.5,-254.5 1339.5,-254.5 1339.5,-235.5 1276.5,-235.5"/>
<text text-anchor="middle" x="1308" y="-242.5" font-family="Helvetica,sans-Serif" font-size="10.00">itkMath.h</text>
</a>
</g>
</g>
<!-- Node34&#45;&gt;Node46 -->
<g id="edge67" class="edge">
<title>Node34&#45;&gt;Node46</title>
<path fill="none" stroke="midnightblue" d="M1094.53,-293.05C1138.33,-283.4 1217.67,-265.91 1266.31,-255.19"/>
<polygon fill="midnightblue" stroke="midnightblue" points="1267.19,-258.58 1276.21,-253.01 1265.69,-251.74 1267.19,-258.58"/>
</g>
<!-- Node54 -->
<g id="node54" class="node">
<title>Node54</title>
<g id="a_node54"><a xlink:title=" ">
<polygon fill="white" stroke="#bfbfbf" points="992.5,-235.5 992.5,-254.5 1067.5,-254.5 1067.5,-235.5 992.5,-235.5"/>
<text text-anchor="middle" x="1030" y="-242.5" font-family="Helvetica,sans-Serif" font-size="10.00">itkPoint.hxx</text>
</a>
</g>
</g>
<!-- Node34&#45;&gt;Node54 -->
<g id="edge80" class="edge">
<title>Node34&#45;&gt;Node54</title>
<path fill="none" stroke="midnightblue" d="M1057.55,-291.08C1052.99,-283.61 1046.33,-272.72 1040.71,-263.52"/>
<polygon fill="midnightblue" stroke="midnightblue" points="1043.55,-261.46 1035.35,-254.75 1037.58,-265.11 1043.55,-261.46"/>
</g>
<!-- Node35&#45;&gt;Node5 -->
<g id="edge50" class="edge">
<title>Node35&#45;&gt;Node5</title>
<path fill="none" stroke="midnightblue" d="M1144.42,-123.48C1102.45,-114.91 1036.59,-100.99 980,-87 903.11,-67.99 814.09,-42.46 764.48,-27.91"/>
<polygon fill="midnightblue" stroke="midnightblue" points="765.39,-24.53 754.81,-25.07 763.42,-31.25 765.39,-24.53"/>
</g>
<!-- Node36 -->
<g id="node36" class="node">
<title>Node36</title>
<g id="a_node36"><a xlink:title=" ">
<polygon fill="white" stroke="#bfbfbf" points="1095,-67.5 1095,-86.5 1139,-86.5 1139,-67.5 1095,-67.5"/>
<text text-anchor="middle" x="1117" y="-74.5" font-family="Helvetica,sans-Serif" font-size="10.00">limits</text>
</a>
</g>
</g>
<!-- Node35&#45;&gt;Node36 -->
<g id="edge51" class="edge">
<title>Node35&#45;&gt;Node36</title>
<path fill="none" stroke="midnightblue" d="M1175.75,-123.32C1165.2,-115.18 1149.2,-102.84 1136.56,-93.09"/>
<polygon fill="midnightblue" stroke="midnightblue" points="1138.51,-90.17 1128.45,-86.83 1134.23,-95.71 1138.51,-90.17"/>
</g>
<!-- Node37 -->
<g id="node37" class="node">
<title>Node37</title>
<g id="a_node37"><a xlink:title=" ">
<polygon fill="white" stroke="#bfbfbf" points="1157.5,-67.5 1157.5,-86.5 1216.5,-86.5 1216.5,-67.5 1157.5,-67.5"/>
<text text-anchor="middle" x="1187" y="-74.5" font-family="Helvetica,sans-Serif" font-size="10.00">complex</text>
</a>
</g>
</g>
<!-- Node35&#45;&gt;Node37 -->
<g id="edge52" class="edge">
<title>Node35&#45;&gt;Node37</title>
<path fill="none" stroke="midnightblue" d="M1187,-123.08C1187,-116.01 1187,-105.86 1187,-96.99"/>
<polygon fill="midnightblue" stroke="midnightblue" points="1190.5,-96.75 1187,-86.75 1183.5,-96.75 1190.5,-96.75"/>
</g>
<!-- Node38 -->
<g id="node38" class="node">
<title>Node38</title>
<g id="a_node38"><a xlink:href="itkFixedArray_8h.html" target="_top" xlink:title=" ">
<polygon fill="white" stroke="black" points="988.5,-67.5 988.5,-86.5 1077.5,-86.5 1077.5,-67.5 988.5,-67.5"/>
<text text-anchor="middle" x="1033" y="-74.5" font-family="Helvetica,sans-Serif" font-size="10.00">itkFixedArray.h</text>
</a>
</g>
</g>
<!-- Node35&#45;&gt;Node38 -->
<g id="edge53" class="edge">
<title>Node35&#45;&gt;Node38</title>
<path fill="none" stroke="midnightblue" d="M1162.6,-123.44C1136.8,-114.4 1095.92,-100.06 1066.98,-89.92"/>
<polygon fill="midnightblue" stroke="midnightblue" points="1067.88,-86.52 1057.29,-86.52 1065.57,-93.13 1067.88,-86.52"/>
</g>
<!-- Node38&#45;&gt;Node5 -->
<g id="edge54" class="edge">
<title>Node38&#45;&gt;Node5</title>
<path fill="none" stroke="midnightblue" d="M988.29,-68.84C938.32,-60.62 855.08,-46.29 784,-31 778.93,-29.91 773.63,-28.69 768.38,-27.44"/>
<polygon fill="midnightblue" stroke="midnightblue" points="768.97,-23.98 758.43,-25.01 767.31,-30.78 768.97,-23.98"/>
</g>
<!-- Node38&#45;&gt;Node22 -->
<g id="edge56" class="edge">
<title>Node38&#45;&gt;Node22</title>
<path fill="none" stroke="midnightblue" d="M998.79,-67.45C965.09,-58.85 912.23,-44.92 867,-31 864.24,-30.15 861.38,-29.24 858.52,-28.3"/>
<polygon fill="midnightblue" stroke="midnightblue" points="859.49,-24.93 848.9,-25.06 857.26,-31.57 859.49,-24.93"/>
</g>
<!-- Node39 -->
<g id="node39" class="node">
<title>Node39</title>
<g id="a_node39"><a xlink:href="itkMakeFilled_8h.html" target="_top" xlink:title=" ">
<polygon fill="white" stroke="black" points="994.5,-6 994.5,-25 1085.5,-25 1085.5,-6 994.5,-6"/>
<text text-anchor="middle" x="1040" y="-13" font-family="Helvetica,sans-Serif" font-size="10.00">itkMakeFilled.h</text>
</a>
</g>
</g>
<!-- Node38&#45;&gt;Node39 -->
<g id="edge55" class="edge">
<title>Node38&#45;&gt;Node39</title>
<path fill="none" stroke="midnightblue" d="M1034,-67.48C1034.99,-59.08 1036.53,-45.98 1037.8,-35.16"/>
<polygon fill="midnightblue" stroke="midnightblue" points="1041.31,-35.35 1039,-25.01 1034.35,-34.53 1041.31,-35.35"/>
</g>
<!-- Node40 -->
<g id="node40" class="node">
<title>Node40</title>
<g id="a_node40"><a xlink:title=" ">
<polygon fill="white" stroke="#bfbfbf" points="1104,-6 1104,-25 1146,-25 1146,-6 1104,-6"/>
<text text-anchor="middle" x="1125" y="-13" font-family="Helvetica,sans-Serif" font-size="10.00">array</text>
</a>
</g>
</g>
<!-- Node38&#45;&gt;Node40 -->
<g id="edge57" class="edge">
<title>Node38&#45;&gt;Node40</title>
<path fill="none" stroke="midnightblue" d="M1046.18,-67.48C1061.07,-57.84 1085.54,-42.02 1103.27,-30.55"/>
<polygon fill="midnightblue" stroke="midnightblue" points="1105.35,-33.38 1111.84,-25.01 1101.55,-27.5 1105.35,-33.38"/>
</g>
<!-- Node41 -->
<g id="node41" class="node">
<title>Node41</title>
<g id="a_node41"><a xlink:title=" ">
<polygon fill="white" stroke="#bfbfbf" points="875.5,-6 875.5,-25 976.5,-25 976.5,-6 875.5,-6"/>
<text text-anchor="middle" x="926" y="-13" font-family="Helvetica,sans-Serif" font-size="10.00">itkFixedArray.hxx</text>
</a>
</g>
</g>
<!-- Node38&#45;&gt;Node41 -->
<g id="edge58" class="edge">
<title>Node38&#45;&gt;Node41</title>
<path fill="none" stroke="midnightblue" d="M1017.67,-67.48C1000.03,-57.67 970.84,-41.43 950.14,-29.92"/>
<polygon fill="midnightblue" stroke="midnightblue" points="951.74,-26.81 941.3,-25.01 948.34,-32.93 951.74,-26.81"/>
</g>
<!-- Node42 -->
<g id="node42" class="node">
<title>Node42</title>
<g id="a_node42"><a xlink:href="itkNumericTraitsFixedArrayPixel_8h.html" target="_top" xlink:title=" ">
<polygon fill="white" stroke="black" points="1163.5,-0.5 1163.5,-30.5 1312.5,-30.5 1312.5,-0.5 1163.5,-0.5"/>
<text text-anchor="start" x="1171.5" y="-18.5" font-family="Helvetica,sans-Serif" font-size="10.00">itkNumericTraitsFixedArray</text>
<text text-anchor="middle" x="1238" y="-7.5" font-family="Helvetica,sans-Serif" font-size="10.00">Pixel.h</text>
</a>
</g>
</g>
<!-- Node38&#45;&gt;Node42 -->
<g id="edge59" class="edge">
<title>Node38&#45;&gt;Node42</title>
<path fill="none" stroke="midnightblue" d="M1057.47,-67.48C1086.15,-58.59 1134.52,-44.43 1174.02,-33.29"/>
<polygon fill="midnightblue" stroke="midnightblue" points="1175.18,-36.6 1183.86,-30.52 1173.28,-29.86 1175.18,-36.6"/>
</g>
<!-- Node42&#45;&gt;Node35 -->
<g id="edge60" class="edge">
<title>Node42&#45;&gt;Node35</title>
<path fill="none" stroke="midnightblue" d="M1237.81,-30.68C1237.11,-45.41 1234.59,-68.81 1226,-87 1220.83,-97.94 1212.24,-108.28 1204.44,-116.28"/>
<polygon fill="midnightblue" stroke="midnightblue" points="1201.79,-113.97 1197.05,-123.44 1206.67,-118.99 1201.79,-113.97"/>
</g>
<!-- Node42&#45;&gt;Node38 -->
<g id="edge61" class="edge">
<title>Node42&#45;&gt;Node38</title>
<path fill="none" stroke="midnightblue" d="M1195.52,-30.52C1160.9,-40.96 1112.32,-55.02 1077.24,-64.73"/>
<polygon fill="midnightblue" stroke="midnightblue" points="1075.99,-61.45 1067.27,-67.48 1077.84,-68.2 1075.99,-61.45"/>
</g>
<!-- Node43&#45;&gt;Node38 -->
<g id="edge63" class="edge">
<title>Node43&#45;&gt;Node38</title>
<path fill="none" stroke="midnightblue" d="M941.74,-235.24C944.49,-222.43 950.52,-198.02 960,-179 976.15,-146.59 1002.38,-113.39 1018.61,-94.28"/>
<polygon fill="midnightblue" stroke="midnightblue" points="1021.41,-96.4 1025.3,-86.55 1016.11,-91.83 1021.41,-96.4"/>
</g>
<!-- Node43&#45;&gt;Node44 -->
<g id="edge64" class="edge">
<title>Node43&#45;&gt;Node44</title>
<path fill="none" stroke="midnightblue" d="M953.66,-235.32C966.92,-226.9 987.27,-213.97 1002.85,-204.07"/>
<polygon fill="midnightblue" stroke="midnightblue" points="1004.81,-206.97 1011.38,-198.65 1001.06,-201.06 1004.81,-206.97"/>
</g>
<!-- Node45 -->
<g id="node45" class="node">
<title>Node45</title>
<g id="a_node45"><a xlink:title=" ">
<polygon fill="white" stroke="#bfbfbf" points="832,-179.5 832,-198.5 912,-198.5 912,-179.5 832,-179.5"/>
<text text-anchor="middle" x="872" y="-186.5" font-family="Helvetica,sans-Serif" font-size="10.00">itkVector.hxx</text>
</a>
</g>
</g>
<!-- Node43&#45;&gt;Node45 -->
<g id="edge65" class="edge">
<title>Node43&#45;&gt;Node45</title>
<path fill="none" stroke="midnightblue" d="M929.07,-235.32C918.83,-227.18 903.28,-214.84 891,-205.09"/>
<polygon fill="midnightblue" stroke="midnightblue" points="893.13,-202.31 883.12,-198.83 888.78,-207.79 893.13,-202.31"/>
</g>
<!-- Node47 -->
<g id="node47" class="node">
<title>Node47</title>
<g id="a_node47"><a xlink:title=" ">
<polygon fill="white" stroke="#bfbfbf" points="1240.5,-179.5 1240.5,-198.5 1287.5,-198.5 1287.5,-179.5 1240.5,-179.5"/>
<text text-anchor="middle" x="1264" y="-186.5" font-family="Helvetica,sans-Serif" font-size="10.00">cmath</text>
</a>
</g>
</g>
<!-- Node46&#45;&gt;Node47 -->
<g id="edge68" class="edge">
<title>Node46&#45;&gt;Node47</title>
<path fill="none" stroke="midnightblue" d="M1300.73,-235.08C1294.46,-227.38 1285.21,-216.03 1277.57,-206.65"/>
<polygon fill="midnightblue" stroke="midnightblue" points="1280.16,-204.29 1271.13,-198.75 1274.73,-208.71 1280.16,-204.29"/>
</g>
<!-- Node48 -->
<g id="node48" class="node">
<title>Node48</title>
<g id="a_node48"><a xlink:href="itkMathDetail_8h.html" target="_top" xlink:title=" ">
<polygon fill="white" stroke="black" points="1306,-179.5 1306,-198.5 1398,-198.5 1398,-179.5 1306,-179.5"/>
<text text-anchor="middle" x="1352" y="-186.5" font-family="Helvetica,sans-Serif" font-size="10.00">itkMathDetail.h</text>
</a>
</g>
</g>
<!-- Node46&#45;&gt;Node48 -->
<g id="edge69" class="edge">
<title>Node46&#45;&gt;Node48</title>
<path fill="none" stroke="midnightblue" d="M1315.27,-235.08C1321.54,-227.38 1330.79,-216.03 1338.43,-206.65"/>
<polygon fill="midnightblue" stroke="midnightblue" points="1341.27,-208.71 1344.87,-198.75 1335.84,-204.29 1341.27,-208.71"/>
</g>
<!-- Node50 -->
<g id="node50" class="node">
<title>Node50</title>
<g id="a_node50"><a xlink:href="itkConceptChecking_8h.html" target="_top" xlink:title=" ">
<polygon fill="white" stroke="black" points="1099.5,-179.5 1099.5,-198.5 1222.5,-198.5 1222.5,-179.5 1099.5,-179.5"/>
<text text-anchor="middle" x="1161" y="-186.5" font-family="Helvetica,sans-Serif" font-size="10.00">itkConceptChecking.h</text>
</a>
</g>
</g>
<!-- Node46&#45;&gt;Node50 -->
<g id="edge73" class="edge">
<title>Node46&#45;&gt;Node50</title>
<path fill="none" stroke="midnightblue" d="M1284.71,-235.44C1260.19,-226.44 1221.4,-212.19 1193.8,-202.05"/>
<polygon fill="midnightblue" stroke="midnightblue" points="1194.78,-198.68 1184.18,-198.52 1192.36,-205.25 1194.78,-198.68"/>
</g>
<!-- Node52 -->
<g id="node52" class="node">
<title>Node52</title>
<g id="a_node52"><a xlink:title=" ">
<polygon fill="white" stroke="#bfbfbf" points="1416.5,-179.5 1416.5,-198.5 1505.5,-198.5 1505.5,-179.5 1416.5,-179.5"/>
<text text-anchor="middle" x="1461" y="-186.5" font-family="Helvetica,sans-Serif" font-size="10.00">vnl/vnl_math.h</text>
</a>
</g>
</g>
<!-- Node46&#45;&gt;Node52 -->
<g id="edge78" class="edge">
<title>Node46&#45;&gt;Node52</title>
<path fill="none" stroke="midnightblue" d="M1332.24,-235.44C1357.87,-226.4 1398.49,-212.06 1427.24,-201.92"/>
<polygon fill="midnightblue" stroke="midnightblue" points="1428.61,-205.15 1436.87,-198.52 1426.28,-198.54 1428.61,-205.15"/>
</g>
<!-- Node53 -->
<g id="node53" class="node">
<title>Node53</title>
<g id="a_node53"><a xlink:title=" ">
<polygon fill="white" stroke="#bfbfbf" points="1524,-179.5 1524,-198.5 1606,-198.5 1606,-179.5 1524,-179.5"/>
<text text-anchor="middle" x="1565" y="-186.5" font-family="Helvetica,sans-Serif" font-size="10.00">vxl_version.h</text>
</a>
</g>
</g>
<!-- Node46&#45;&gt;Node53 -->
<g id="edge79" class="edge">
<title>Node46&#45;&gt;Node53</title>
<path fill="none" stroke="midnightblue" d="M1339.51,-237.38C1383.12,-228.22 1462.34,-211.57 1514.32,-200.65"/>
<polygon fill="midnightblue" stroke="midnightblue" points="1515.26,-204.03 1524.33,-198.55 1513.82,-197.18 1515.26,-204.03"/>
</g>
<!-- Node48&#45;&gt;Node12 -->
<g id="edge70" class="edge">
<title>Node48&#45;&gt;Node12</title>
<path fill="none" stroke="midnightblue" d="M1305.84,-180.02C1302.85,-179.64 1299.89,-179.29 1297,-179 893.41,-138.17 784.48,-213.49 385,-143 321.64,-131.82 250.71,-105.84 211.71,-90.33"/>
<polygon fill="midnightblue" stroke="midnightblue" points="212.87,-87.02 202.28,-86.53 210.25,-93.51 212.87,-87.02"/>
</g>
<!-- Node48&#45;&gt;Node35 -->
<g id="edge71" class="edge">
<title>Node48&#45;&gt;Node35</title>
<path fill="none" stroke="midnightblue" d="M1325.86,-179.44C1297.98,-170.32 1253.65,-155.81 1222.6,-145.65"/>
<polygon fill="midnightblue" stroke="midnightblue" points="1223.62,-142.3 1213.02,-142.52 1221.44,-148.95 1223.62,-142.3"/>
</g>
<!-- Node49 -->
<g id="node49" class="node">
<title>Node49</title>
<g id="a_node49"><a xlink:title=" ">
<polygon fill="white" stroke="#bfbfbf" points="1072,-123.5 1072,-142.5 1116,-142.5 1116,-123.5 1072,-123.5"/>
<text text-anchor="middle" x="1094" y="-130.5" font-family="Helvetica,sans-Serif" font-size="10.00">cfenv</text>
</a>
</g>
</g>
<!-- Node48&#45;&gt;Node49 -->
<g id="edge72" class="edge">
<title>Node48&#45;&gt;Node49</title>
<path fill="none" stroke="midnightblue" d="M1305.66,-180.03C1261.76,-172.21 1193.81,-159.4 1126.25,-143.15"/>
<polygon fill="midnightblue" stroke="midnightblue" points="1126.83,-139.69 1116.29,-140.72 1125.18,-146.49 1126.83,-139.69"/>
</g>
<!-- Node50&#45;&gt;Node7 -->
<g id="edge77" class="edge">
<title>Node50&#45;&gt;Node7</title>
<path fill="none" stroke="midnightblue" d="M1099.34,-180C1003.65,-167.56 829.62,-144.79 823,-143 775.48,-130.12 723.26,-105.98 693.19,-91.02"/>
<polygon fill="midnightblue" stroke="midnightblue" points="694.74,-87.88 684.23,-86.51 691.59,-94.13 694.74,-87.88"/>
</g>
<!-- Node50&#45;&gt;Node35 -->
<g id="edge76" class="edge">
<title>Node50&#45;&gt;Node35</title>
<path fill="none" stroke="midnightblue" d="M1165.29,-179.08C1168.85,-171.69 1174.02,-160.95 1178.42,-151.81"/>
<polygon fill="midnightblue" stroke="midnightblue" points="1181.6,-153.28 1182.79,-142.75 1175.29,-150.24 1181.6,-153.28"/>
</g>
<!-- Node51 -->
<g id="node51" class="node">
<title>Node51</title>
<g id="a_node51"><a xlink:href="itkPixelTraits_8h.html" target="_top" xlink:title=" ">
<polygon fill="white" stroke="black" points="832,-123.5 832,-142.5 920,-142.5 920,-123.5 832,-123.5"/>
<text text-anchor="middle" x="876" y="-130.5" font-family="Helvetica,sans-Serif" font-size="10.00">itkPixelTraits.h</text>
</a>
</g>
</g>
<!-- Node50&#45;&gt;Node51 -->
<g id="edge74" class="edge">
<title>Node50&#45;&gt;Node51</title>
<path fill="none" stroke="midnightblue" d="M1115.84,-179.44C1065.41,-169.89 983.83,-154.43 930.05,-144.24"/>
<polygon fill="midnightblue" stroke="midnightblue" points="930.49,-140.76 920.01,-142.34 929.18,-147.64 930.49,-140.76"/>
</g>
<!-- Node51&#45;&gt;Node5 -->
<g id="edge75" class="edge">
<title>Node51&#45;&gt;Node5</title>
<path fill="none" stroke="midnightblue" d="M853.68,-123.37C835.04,-115.54 808.32,-102.8 788,-87 768,-71.44 749.42,-48.77 737.92,-33.37"/>
<polygon fill="midnightblue" stroke="midnightblue" points="740.72,-31.28 732,-25.26 735.06,-35.4 740.72,-31.28"/>
</g>
</g>
</svg>
