<?xml version="1.0" encoding="UTF-8" standalone="no"?>
<!DOCTYPE svg PUBLIC "-//W3C//DTD SVG 1.1//EN"
 "http://www.w3.org/Graphics/SVG/1.1/DTD/svg11.dtd">
<!-- Generated by graphviz version 2.43.0 (0)
 -->
<!-- Title: itkTemporalDataObject.h Pages: 1 -->
<svg width="716pt" height="263pt"
 viewBox="0.00 0.00 715.50 263.00" xmlns="http://www.w3.org/2000/svg" xmlns:xlink="http://www.w3.org/1999/xlink">
<g id="graph0" class="graph" transform="scale(1 1) rotate(0) translate(4 259)">
<title>itkTemporalDataObject.h</title>
<polygon fill="white" stroke="transparent" points="-4,4 -4,-259 711.5,-259 711.5,4 -4,4"/>
<!-- Node1 -->
<g id="node1" class="node">
<title>Node1</title>
<g id="a_node1"><a xlink:title=" ">
<polygon fill="#bfbfbf" stroke="black" points="153.5,-235.5 153.5,-254.5 291.5,-254.5 291.5,-235.5 153.5,-235.5"/>
<text text-anchor="middle" x="222.5" y="-242.5" font-family="Helvetica,sans-Serif" font-size="10.00">itkTemporalDataObject.h</text>
</a>
</g>
</g>
<!-- Node2 -->
<g id="node2" class="node">
<title>Node2</title>
<g id="a_node2"><a xlink:href="itkVideoStream_8h.html" target="_top" xlink:title=" ">
<polygon fill="white" stroke="black" points="172,-179.5 172,-198.5 273,-198.5 273,-179.5 172,-179.5"/>
<text text-anchor="middle" x="222.5" y="-186.5" font-family="Helvetica,sans-Serif" font-size="10.00">itkVideoStream.h</text>
</a>
</g>
</g>
<!-- Node1&#45;&gt;Node2 -->
<g id="edge1" class="edge">
<title>Node1&#45;&gt;Node2</title>
<path fill="none" stroke="midnightblue" d="M222.5,-224.8C222.5,-215.91 222.5,-205.78 222.5,-198.75"/>
<polygon fill="midnightblue" stroke="midnightblue" points="219,-225.08 222.5,-235.08 226,-225.08 219,-225.08"/>
</g>
<!-- Node3 -->
<g id="node3" class="node">
<title>Node3</title>
<g id="a_node3"><a xlink:href="itkVideoSource_8h.html" target="_top" xlink:title=" ">
<polygon fill="white" stroke="black" points="173,-123.5 173,-142.5 272,-142.5 272,-123.5 173,-123.5"/>
<text text-anchor="middle" x="222.5" y="-130.5" font-family="Helvetica,sans-Serif" font-size="10.00">itkVideoSource.h</text>
</a>
</g>
</g>
<!-- Node2&#45;&gt;Node3 -->
<g id="edge2" class="edge">
<title>Node2&#45;&gt;Node3</title>
<path fill="none" stroke="midnightblue" d="M222.5,-168.8C222.5,-159.91 222.5,-149.78 222.5,-142.75"/>
<polygon fill="midnightblue" stroke="midnightblue" points="219,-169.08 222.5,-179.08 226,-169.08 219,-169.08"/>
</g>
<!-- Node4 -->
<g id="node4" class="node">
<title>Node4</title>
<g id="a_node4"><a xlink:href="itkImageToVideoFilter_8h.html" target="_top" xlink:title=" ">
<polygon fill="white" stroke="black" points="15,-67.5 15,-86.5 146,-86.5 146,-67.5 15,-67.5"/>
<text text-anchor="middle" x="80.5" y="-74.5" font-family="Helvetica,sans-Serif" font-size="10.00">itkImageToVideoFilter.h</text>
</a>
</g>
</g>
<!-- Node2&#45;&gt;Node4 -->
<g id="edge10" class="edge">
<title>Node2&#45;&gt;Node4</title>
<path fill="none" stroke="midnightblue" d="M203.08,-173.29C191.55,-164.53 176.66,-153.17 163.5,-143 137.58,-122.97 107.33,-99.17 91.47,-86.67"/>
<polygon fill="midnightblue" stroke="midnightblue" points="201.07,-176.16 211.16,-179.42 205.31,-170.58 201.07,-176.16"/>
</g>
<!-- Node5 -->
<g id="node5" class="node">
<title>Node5</title>
<g id="a_node5"><a xlink:href="itkVideoToVideoFilter_8h.html" target="_top" xlink:title=" ">
<polygon fill="white" stroke="black" points="299.5,-67.5 299.5,-86.5 427.5,-86.5 427.5,-67.5 299.5,-67.5"/>
<text text-anchor="middle" x="363.5" y="-74.5" font-family="Helvetica,sans-Serif" font-size="10.00">itkVideoToVideoFilter.h</text>
</a>
</g>
</g>
<!-- Node2&#45;&gt;Node5 -->
<g id="edge11" class="edge">
<title>Node2&#45;&gt;Node5</title>
<path fill="none" stroke="midnightblue" d="M241.56,-173.25C252.89,-164.47 267.52,-153.11 280.5,-143 306.34,-122.86 336.62,-99.1 352.5,-86.64"/>
<polygon fill="midnightblue" stroke="midnightblue" points="239.39,-170.5 233.63,-179.39 243.68,-176.03 239.39,-170.5"/>
</g>
<!-- Node3&#45;&gt;Node4 -->
<g id="edge3" class="edge">
<title>Node3&#45;&gt;Node4</title>
<path fill="none" stroke="midnightblue" d="M190.34,-119.77C163.67,-109.63 126.43,-95.47 102.9,-86.52"/>
<polygon fill="midnightblue" stroke="midnightblue" points="189.41,-123.16 200,-123.44 191.9,-116.62 189.41,-123.16"/>
</g>
<!-- Node3&#45;&gt;Node5 -->
<g id="edge4" class="edge">
<title>Node3&#45;&gt;Node5</title>
<path fill="none" stroke="midnightblue" d="M254.43,-119.77C280.91,-109.63 317.89,-95.47 341.26,-86.52"/>
<polygon fill="midnightblue" stroke="midnightblue" points="252.93,-116.6 244.84,-123.44 255.43,-123.14 252.93,-116.6"/>
</g>
<!-- Node10 -->
<g id="node10" class="node">
<title>Node10</title>
<g id="a_node10"><a xlink:href="itkVideoFileReader_8h.html" target="_top" xlink:title=" ">
<polygon fill="white" stroke="black" points="164,-67.5 164,-86.5 281,-86.5 281,-67.5 164,-67.5"/>
<text text-anchor="middle" x="222.5" y="-74.5" font-family="Helvetica,sans-Serif" font-size="10.00">itkVideoFileReader.h</text>
</a>
</g>
</g>
<!-- Node3&#45;&gt;Node10 -->
<g id="edge9" class="edge">
<title>Node3&#45;&gt;Node10</title>
<path fill="none" stroke="midnightblue" d="M222.5,-112.8C222.5,-103.91 222.5,-93.78 222.5,-86.75"/>
<polygon fill="midnightblue" stroke="midnightblue" points="219,-113.08 222.5,-123.08 226,-113.08 219,-113.08"/>
</g>
<!-- Node6 -->
<g id="node6" class="node">
<title>Node6</title>
<g id="a_node6"><a xlink:href="itkDecimateFramesVideoFilter_8h.html" target="_top" xlink:title=" ">
<polygon fill="white" stroke="black" points="0,-6 0,-25 173,-25 173,-6 0,-6"/>
<text text-anchor="middle" x="86.5" y="-13" font-family="Helvetica,sans-Serif" font-size="10.00">itkDecimateFramesVideoFilter.h</text>
</a>
</g>
</g>
<!-- Node5&#45;&gt;Node6 -->
<g id="edge5" class="edge">
<title>Node5&#45;&gt;Node6</title>
<path fill="none" stroke="midnightblue" d="M313.83,-65.33C260.11,-53.79 175.55,-35.63 126.11,-25.01"/>
<polygon fill="midnightblue" stroke="midnightblue" points="313.3,-68.8 323.81,-67.48 314.77,-61.95 313.3,-68.8"/>
</g>
<!-- Node7 -->
<g id="node7" class="node">
<title>Node7</title>
<g id="a_node7"><a xlink:href="itkFrameAverageVideoFilter_8h.html" target="_top" xlink:title=" ">
<polygon fill="white" stroke="black" points="191,-6 191,-25 352,-25 352,-6 191,-6"/>
<text text-anchor="middle" x="271.5" y="-13" font-family="Helvetica,sans-Serif" font-size="10.00">itkFrameAverageVideoFilter.h</text>
</a>
</g>
</g>
<!-- Node5&#45;&gt;Node7 -->
<g id="edge6" class="edge">
<title>Node5&#45;&gt;Node7</title>
<path fill="none" stroke="midnightblue" d="M341.74,-61.93C324.01,-50.46 299.54,-34.63 284.66,-25.01"/>
<polygon fill="midnightblue" stroke="midnightblue" points="340.02,-64.98 350.32,-67.48 343.82,-59.11 340.02,-64.98"/>
</g>
<!-- Node8 -->
<g id="node8" class="node">
<title>Node8</title>
<g id="a_node8"><a xlink:href="itkFrameDifferenceVideoFilter_8h.html" target="_top" xlink:title=" ">
<polygon fill="white" stroke="black" points="370,-6 370,-25 541,-25 541,-6 370,-6"/>
<text text-anchor="middle" x="455.5" y="-13" font-family="Helvetica,sans-Serif" font-size="10.00">itkFrameDifferenceVideoFilter.h</text>
</a>
</g>
</g>
<!-- Node5&#45;&gt;Node8 -->
<g id="edge7" class="edge">
<title>Node5&#45;&gt;Node8</title>
<path fill="none" stroke="midnightblue" d="M385.26,-61.93C402.99,-50.46 427.46,-34.63 442.34,-25.01"/>
<polygon fill="midnightblue" stroke="midnightblue" points="383.18,-59.11 376.68,-67.48 386.98,-64.98 383.18,-59.11"/>
</g>
<!-- Node9 -->
<g id="node9" class="node">
<title>Node9</title>
<g id="a_node9"><a xlink:href="itkImageFilterToVideoFilterWrapper_8h.html" target="_top" xlink:title=" ">
<polygon fill="white" stroke="black" points="559.5,-0.5 559.5,-30.5 707.5,-30.5 707.5,-0.5 559.5,-0.5"/>
<text text-anchor="start" x="567.5" y="-18.5" font-family="Helvetica,sans-Serif" font-size="10.00">itkImageFilterToVideoFilter</text>
<text text-anchor="middle" x="633.5" y="-7.5" font-family="Helvetica,sans-Serif" font-size="10.00">Wrapper.h</text>
</a>
</g>
</g>
<!-- Node5&#45;&gt;Node9 -->
<g id="edge8" class="edge">
<title>Node5&#45;&gt;Node9</title>
<path fill="none" stroke="midnightblue" d="M412.09,-65.29C456.22,-55.57 521.59,-41.16 569.87,-30.52"/>
<polygon fill="midnightblue" stroke="midnightblue" points="411.2,-61.9 402.18,-67.48 412.7,-68.74 411.2,-61.9"/>
</g>
</g>
</svg>
