<?xml version="1.0" encoding="UTF-8" standalone="no"?>
<!DOCTYPE svg PUBLIC "-//W3C//DTD SVG 1.1//EN"
 "http://www.w3.org/Graphics/SVG/1.1/DTD/svg11.dtd">
<!-- Generated by graphviz version 2.43.0 (0)
 -->
<!-- Title: itkTransformIOBase.h Pages: 1 -->
<svg width="1596pt" height="84pt"
 viewBox="0.00 0.00 1595.50 84.00" xmlns="http://www.w3.org/2000/svg" xmlns:xlink="http://www.w3.org/1999/xlink">
<g id="graph0" class="graph" transform="scale(1 1) rotate(0) translate(4 80)">
<title>itkTransformIOBase.h</title>
<polygon fill="white" stroke="transparent" points="-4,4 -4,-80 1591.5,-80 1591.5,4 -4,4"/>
<!-- Node1 -->
<g id="node1" class="node">
<title>Node1</title>
<g id="a_node1"><a xlink:title=" ">
<polygon fill="#bfbfbf" stroke="black" points="739,-56.5 739,-75.5 861,-75.5 861,-56.5 739,-56.5"/>
<text text-anchor="middle" x="800" y="-63.5" font-family="Helvetica,sans-Serif" font-size="10.00">itkTransformIOBase.h</text>
</a>
</g>
</g>
<!-- Node2 -->
<g id="node2" class="node">
<title>Node2</title>
<g id="a_node2"><a xlink:href="itkCompositeTransformIOHelper_8h.html" target="_top" xlink:title=" ">
<polygon fill="white" stroke="black" points="0,-0.5 0,-19.5 182,-19.5 182,-0.5 0,-0.5"/>
<text text-anchor="middle" x="91" y="-7.5" font-family="Helvetica,sans-Serif" font-size="10.00">itkCompositeTransformIOHelper.h</text>
</a>
</g>
</g>
<!-- Node1&#45;&gt;Node2 -->
<g id="edge1" class="edge">
<title>Node1&#45;&gt;Node2</title>
<path fill="none" stroke="midnightblue" d="M728.62,-60.1C614.84,-52.2 385.37,-35.93 191,-20 188.05,-19.76 185.04,-19.51 182.01,-19.25"/>
<polygon fill="midnightblue" stroke="midnightblue" points="728.38,-63.59 738.6,-60.79 728.87,-56.61 728.38,-63.59"/>
</g>
<!-- Node3 -->
<g id="node3" class="node">
<title>Node3</title>
<g id="a_node3"><a xlink:href="itkTransformFileReader_8h.html" target="_top" xlink:title=" ">
<polygon fill="white" stroke="black" points="200,-0.5 200,-19.5 338,-19.5 338,-0.5 200,-0.5"/>
<text text-anchor="middle" x="269" y="-7.5" font-family="Helvetica,sans-Serif" font-size="10.00">itkTransformFileReader.h</text>
</a>
</g>
</g>
<!-- Node1&#45;&gt;Node3 -->
<g id="edge2" class="edge">
<title>Node1&#45;&gt;Node3</title>
<path fill="none" stroke="midnightblue" d="M728.78,-58.28C639.52,-49.77 481.87,-34.48 347,-20 344.15,-19.69 341.25,-19.38 338.32,-19.06"/>
<polygon fill="midnightblue" stroke="midnightblue" points="728.5,-61.77 738.79,-59.23 729.16,-54.8 728.5,-61.77"/>
</g>
<!-- Node4 -->
<g id="node4" class="node">
<title>Node4</title>
<g id="a_node4"><a xlink:href="itkTransformFileWriter_8h.html" target="_top" xlink:title=" ">
<polygon fill="white" stroke="black" points="356,-0.5 356,-19.5 490,-19.5 490,-0.5 356,-0.5"/>
<text text-anchor="middle" x="423" y="-7.5" font-family="Helvetica,sans-Serif" font-size="10.00">itkTransformFileWriter.h</text>
</a>
</g>
</g>
<!-- Node1&#45;&gt;Node4 -->
<g id="edge3" class="edge">
<title>Node1&#45;&gt;Node4</title>
<path fill="none" stroke="midnightblue" d="M730.04,-54.98C658.83,-44.78 549.62,-29.14 482.46,-19.52"/>
<polygon fill="midnightblue" stroke="midnightblue" points="729.87,-58.49 740.26,-56.44 730.86,-51.56 729.87,-58.49"/>
</g>
<!-- Node5 -->
<g id="node5" class="node">
<title>Node5</title>
<g id="a_node5"><a xlink:href="itkTransformIOFactory_8h.html" target="_top" xlink:title=" ">
<polygon fill="white" stroke="black" points="508.5,-0.5 508.5,-19.5 639.5,-19.5 639.5,-0.5 508.5,-0.5"/>
<text text-anchor="middle" x="574" y="-7.5" font-family="Helvetica,sans-Serif" font-size="10.00">itkTransformIOFactory.h</text>
</a>
</g>
</g>
<!-- Node1&#45;&gt;Node5 -->
<g id="edge4" class="edge">
<title>Node1&#45;&gt;Node5</title>
<path fill="none" stroke="midnightblue" d="M754.33,-54.09C711.64,-43.89 648.75,-28.86 609.64,-19.52"/>
<polygon fill="midnightblue" stroke="midnightblue" points="753.65,-57.52 764.19,-56.44 755.28,-50.72 753.65,-57.52"/>
</g>
<!-- Node6 -->
<g id="node6" class="node">
<title>Node6</title>
<g id="a_node6"><a xlink:href="itkHDF5TransformIO_8h.html" target="_top" xlink:title=" ">
<polygon fill="white" stroke="black" points="657.5,-0.5 657.5,-19.5 782.5,-19.5 782.5,-0.5 657.5,-0.5"/>
<text text-anchor="middle" x="720" y="-7.5" font-family="Helvetica,sans-Serif" font-size="10.00">itkHDF5TransformIO.h</text>
</a>
</g>
</g>
<!-- Node1&#45;&gt;Node6 -->
<g id="edge5" class="edge">
<title>Node1&#45;&gt;Node6</title>
<path fill="none" stroke="midnightblue" d="M778.7,-50.62C764.08,-40.76 745.17,-27.99 732.82,-19.65"/>
<polygon fill="midnightblue" stroke="midnightblue" points="776.9,-53.63 787.15,-56.32 780.82,-47.83 776.9,-53.63"/>
</g>
<!-- Node7 -->
<g id="node7" class="node">
<title>Node7</title>
<g id="a_node7"><a xlink:href="itkHDF5TransformIOFactory_8h.html" target="_top" xlink:title=" ">
<polygon fill="white" stroke="black" points="801,-0.5 801,-19.5 959,-19.5 959,-0.5 801,-0.5"/>
<text text-anchor="middle" x="880" y="-7.5" font-family="Helvetica,sans-Serif" font-size="10.00">itkHDF5TransformIOFactory.h</text>
</a>
</g>
</g>
<!-- Node1&#45;&gt;Node7 -->
<g id="edge6" class="edge">
<title>Node1&#45;&gt;Node7</title>
<path fill="none" stroke="midnightblue" d="M821.3,-50.62C835.92,-40.76 854.83,-27.99 867.18,-19.65"/>
<polygon fill="midnightblue" stroke="midnightblue" points="819.18,-47.83 812.85,-56.32 823.1,-53.63 819.18,-47.83"/>
</g>
<!-- Node8 -->
<g id="node8" class="node">
<title>Node8</title>
<g id="a_node8"><a xlink:href="itkTxtTransformIO_8h.html" target="_top" xlink:title=" ">
<polygon fill="white" stroke="black" points="977.5,-0.5 977.5,-19.5 1090.5,-19.5 1090.5,-0.5 977.5,-0.5"/>
<text text-anchor="middle" x="1034" y="-7.5" font-family="Helvetica,sans-Serif" font-size="10.00">itkTxtTransformIO.h</text>
</a>
</g>
</g>
<!-- Node1&#45;&gt;Node8 -->
<g id="edge7" class="edge">
<title>Node1&#45;&gt;Node8</title>
<path fill="none" stroke="midnightblue" d="M847,-54.15C891.22,-43.95 956.52,-28.88 997.1,-19.52"/>
<polygon fill="midnightblue" stroke="midnightblue" points="846.03,-50.78 837.08,-56.44 847.61,-57.61 846.03,-50.78"/>
</g>
<!-- Node9 -->
<g id="node9" class="node">
<title>Node9</title>
<g id="a_node9"><a xlink:href="itkTxtTransformIOFactory_8h.html" target="_top" xlink:title=" ">
<polygon fill="white" stroke="black" points="1108.5,-0.5 1108.5,-19.5 1255.5,-19.5 1255.5,-0.5 1108.5,-0.5"/>
<text text-anchor="middle" x="1182" y="-7.5" font-family="Helvetica,sans-Serif" font-size="10.00">itkTxtTransformIOFactory.h</text>
</a>
</g>
</g>
<!-- Node1&#45;&gt;Node9 -->
<g id="edge8" class="edge">
<title>Node1&#45;&gt;Node9</title>
<path fill="none" stroke="midnightblue" d="M870.44,-55.04C942.59,-44.84 1053.56,-29.16 1121.75,-19.52"/>
<polygon fill="midnightblue" stroke="midnightblue" points="869.94,-51.58 860.53,-56.44 870.92,-58.51 869.94,-51.58"/>
</g>
<!-- Node10 -->
<g id="node10" class="node">
<title>Node10</title>
<g id="a_node10"><a xlink:href="itkMatlabTransformIO_8h.html" target="_top" xlink:title=" ">
<polygon fill="white" stroke="black" points="1273.5,-0.5 1273.5,-19.5 1404.5,-19.5 1404.5,-0.5 1273.5,-0.5"/>
<text text-anchor="middle" x="1339" y="-7.5" font-family="Helvetica,sans-Serif" font-size="10.00">itkMatlabTransformIO.h</text>
</a>
</g>
</g>
<!-- Node1&#45;&gt;Node10 -->
<g id="edge9" class="edge">
<title>Node1&#45;&gt;Node10</title>
<path fill="none" stroke="midnightblue" d="M871.32,-58.65C962.62,-50.39 1125.7,-35.21 1265,-20 1267.7,-19.71 1270.46,-19.4 1273.24,-19.08"/>
<polygon fill="midnightblue" stroke="midnightblue" points="871,-55.16 861.35,-59.55 871.63,-62.13 871,-55.16"/>
</g>
<!-- Node11 -->
<g id="node11" class="node">
<title>Node11</title>
<g id="a_node11"><a xlink:href="itkMatlabTransformIOFactory_8h.html" target="_top" xlink:title=" ">
<polygon fill="white" stroke="black" points="1422.5,-0.5 1422.5,-19.5 1587.5,-19.5 1587.5,-0.5 1422.5,-0.5"/>
<text text-anchor="middle" x="1505" y="-7.5" font-family="Helvetica,sans-Serif" font-size="10.00">itkMatlabTransformIOFactory.h</text>
</a>
</g>
</g>
<!-- Node1&#45;&gt;Node11 -->
<g id="edge10" class="edge">
<title>Node1&#45;&gt;Node11</title>
<path fill="none" stroke="midnightblue" d="M871.08,-60.38C985.5,-52.81 1217.6,-36.91 1414,-20 1416.69,-19.77 1419.42,-19.53 1422.18,-19.28"/>
<polygon fill="midnightblue" stroke="midnightblue" points="870.79,-56.89 861.04,-61.04 871.25,-63.88 870.79,-56.89"/>
</g>
</g>
</svg>
