<?xml version="1.0" encoding="UTF-8" standalone="no"?>
<!DOCTYPE svg PUBLIC "-//W3C//DTD SVG 1.1//EN"
 "http://www.w3.org/Graphics/SVG/1.1/DTD/svg11.dtd">
<!-- Generated by graphviz version 2.43.0 (0)
 -->
<!-- Title: itkTDistribution.h Pages: 1 -->
<svg width="1363pt" height="677pt"
 viewBox="0.00 0.00 1362.50 677.00" xmlns="http://www.w3.org/2000/svg" xmlns:xlink="http://www.w3.org/1999/xlink">
<g id="graph0" class="graph" transform="scale(1 1) rotate(0) translate(4 673)">
<title>itkTDistribution.h</title>
<polygon fill="white" stroke="transparent" points="-4,4 -4,-673 1358.5,-673 1358.5,4 -4,4"/>
<!-- Node1 -->
<g id="node1" class="node">
<title>Node1</title>
<g id="a_node1"><a xlink:title=" ">
<polygon fill="#bfbfbf" stroke="black" points="886.5,-649.5 886.5,-668.5 987.5,-668.5 987.5,-649.5 886.5,-649.5"/>
<text text-anchor="middle" x="937" y="-656.5" font-family="Helvetica,sans-Serif" font-size="10.00">itkTDistribution.h</text>
</a>
</g>
</g>
<!-- Node2 -->
<g id="node2" class="node">
<title>Node2</title>
<g id="a_node2"><a xlink:href="itkProbabilityDistribution_8h.html" target="_top" xlink:title=" ">
<polygon fill="white" stroke="black" points="639,-593.5 639,-612.5 787,-612.5 787,-593.5 639,-593.5"/>
<text text-anchor="middle" x="713" y="-600.5" font-family="Helvetica,sans-Serif" font-size="10.00">itkProbabilityDistribution.h</text>
</a>
</g>
</g>
<!-- Node1&#45;&gt;Node2 -->
<g id="edge1" class="edge">
<title>Node1&#45;&gt;Node2</title>
<path fill="none" stroke="midnightblue" d="M901.51,-649.44C862.68,-640.08 800.34,-625.06 758.08,-614.87"/>
<polygon fill="midnightblue" stroke="midnightblue" points="758.87,-611.46 748.33,-612.52 757.23,-618.26 758.87,-611.46"/>
</g>
<!-- Node39 -->
<g id="node39" class="node">
<title>Node39</title>
<g id="a_node39"><a xlink:title=" ">
<polygon fill="white" stroke="#bfbfbf" points="878,-537.5 878,-556.5 996,-556.5 996,-537.5 878,-537.5"/>
<text text-anchor="middle" x="937" y="-544.5" font-family="Helvetica,sans-Serif" font-size="10.00">ITKStatisticsExport.h</text>
</a>
</g>
</g>
<!-- Node1&#45;&gt;Node39 -->
<g id="edge69" class="edge">
<title>Node1&#45;&gt;Node39</title>
<path fill="none" stroke="midnightblue" d="M937,-649.37C937,-631.62 937,-590.67 937,-566.6"/>
<polygon fill="midnightblue" stroke="midnightblue" points="940.5,-566.59 937,-556.59 933.5,-566.59 940.5,-566.59"/>
</g>
<!-- Node40 -->
<g id="node40" class="node">
<title>Node40</title>
<g id="a_node40"><a xlink:href="itkNumericTraits_8h.html" target="_top" xlink:title=" ">
<polygon fill="white" stroke="black" points="1014,-347.5 1014,-366.5 1120,-366.5 1120,-347.5 1014,-347.5"/>
<text text-anchor="middle" x="1067" y="-354.5" font-family="Helvetica,sans-Serif" font-size="10.00">itkNumericTraits.h</text>
</a>
</g>
</g>
<!-- Node1&#45;&gt;Node40 -->
<g id="edge56" class="edge">
<title>Node1&#45;&gt;Node40</title>
<path fill="none" stroke="midnightblue" d="M958.28,-649.4C991.76,-634.3 1053,-599.62 1053,-548 1053,-548 1053,-548 1053,-479 1053,-442.65 1059.31,-400.57 1063.46,-376.84"/>
<polygon fill="midnightblue" stroke="midnightblue" points="1066.94,-377.23 1065.28,-366.77 1060.06,-375.98 1066.94,-377.23"/>
</g>
<!-- Node3 -->
<g id="node3" class="node">
<title>Node3</title>
<g id="a_node3"><a xlink:href="itkIntTypes_8h.html" target="_top" xlink:title=" ">
<polygon fill="white" stroke="black" points="32.5,-56.5 32.5,-75.5 111.5,-75.5 111.5,-56.5 32.5,-56.5"/>
<text text-anchor="middle" x="72" y="-63.5" font-family="Helvetica,sans-Serif" font-size="10.00">itkIntTypes.h</text>
</a>
</g>
</g>
<!-- Node2&#45;&gt;Node3 -->
<g id="edge2" class="edge">
<title>Node2&#45;&gt;Node3</title>
<path fill="none" stroke="midnightblue" d="M638.71,-597.12C456.1,-584.13 0,-545.27 0,-481 0,-481 0,-481 0,-177 0,-137.94 32.18,-101.94 53.51,-82.37"/>
<polygon fill="midnightblue" stroke="midnightblue" points="55.88,-84.94 61.06,-75.7 51.25,-79.7 55.88,-84.94"/>
</g>
<!-- Node7 -->
<g id="node7" class="node">
<title>Node7</title>
<g id="a_node7"><a xlink:href="itkObject_8h.html" target="_top" xlink:title=" ">
<polygon fill="white" stroke="black" points="384,-347.5 384,-366.5 454,-366.5 454,-347.5 384,-347.5"/>
<text text-anchor="middle" x="419" y="-354.5" font-family="Helvetica,sans-Serif" font-size="10.00">itkObject.h</text>
</a>
</g>
</g>
<!-- Node2&#45;&gt;Node7 -->
<g id="edge6" class="edge">
<title>Node2&#45;&gt;Node7</title>
<path fill="none" stroke="midnightblue" d="M724.61,-593.43C754.4,-570.39 828.8,-505.75 793,-459 752.89,-406.62 554.6,-375.21 464.14,-363.39"/>
<polygon fill="midnightblue" stroke="midnightblue" points="464.54,-359.91 454.17,-362.11 463.65,-366.85 464.54,-359.91"/>
</g>
<!-- Node28 -->
<g id="node28" class="node">
<title>Node28</title>
<g id="a_node28"><a xlink:href="itkObjectFactory_8h.html" target="_top" xlink:title=" ">
<polygon fill="white" stroke="black" points="359,-537.5 359,-556.5 463,-556.5 463,-537.5 359,-537.5"/>
<text text-anchor="middle" x="411" y="-544.5" font-family="Helvetica,sans-Serif" font-size="10.00">itkObjectFactory.h</text>
</a>
</g>
</g>
<!-- Node2&#45;&gt;Node28 -->
<g id="edge39" class="edge">
<title>Node2&#45;&gt;Node28</title>
<path fill="none" stroke="midnightblue" d="M665.15,-593.44C611.8,-583.9 525.56,-568.48 468.56,-558.29"/>
<polygon fill="midnightblue" stroke="midnightblue" points="469.09,-554.83 458.63,-556.52 467.86,-561.72 469.09,-554.83"/>
</g>
<!-- Node34 -->
<g id="node34" class="node">
<title>Node34</title>
<g id="a_node34"><a xlink:href="itkArray_8h.html" target="_top" xlink:title=" ">
<polygon fill="white" stroke="black" points="620.5,-537.5 620.5,-556.5 683.5,-556.5 683.5,-537.5 620.5,-537.5"/>
<text text-anchor="middle" x="652" y="-544.5" font-family="Helvetica,sans-Serif" font-size="10.00">itkArray.h</text>
</a>
</g>
</g>
<!-- Node2&#45;&gt;Node34 -->
<g id="edge49" class="edge">
<title>Node2&#45;&gt;Node34</title>
<path fill="none" stroke="midnightblue" d="M703.2,-593.32C694.18,-585.34 680.59,-573.31 669.68,-563.65"/>
<polygon fill="midnightblue" stroke="midnightblue" points="671.79,-560.84 661.98,-556.83 667.15,-566.08 671.79,-560.84"/>
</g>
<!-- Node2&#45;&gt;Node39 -->
<g id="edge55" class="edge">
<title>Node2&#45;&gt;Node39</title>
<path fill="none" stroke="midnightblue" d="M748.49,-593.44C787.32,-584.08 849.66,-569.06 891.92,-558.87"/>
<polygon fill="midnightblue" stroke="midnightblue" points="892.77,-562.26 901.67,-556.52 891.13,-555.46 892.77,-562.26"/>
</g>
<!-- Node4 -->
<g id="node4" class="node">
<title>Node4</title>
<g id="a_node4"><a xlink:href="itkMacro_8h.html" target="_top" xlink:title=" ">
<polygon fill="white" stroke="black" points="725,-0.5 725,-19.5 793,-19.5 793,-0.5 725,-0.5"/>
<text text-anchor="middle" x="759" y="-7.5" font-family="Helvetica,sans-Serif" font-size="10.00">itkMacro.h</text>
</a>
</g>
</g>
<!-- Node3&#45;&gt;Node4 -->
<g id="edge3" class="edge">
<title>Node3&#45;&gt;Node4</title>
<path fill="none" stroke="midnightblue" d="M111.64,-58.61C118.42,-57.65 125.4,-56.73 132,-56 349.91,-31.87 611.93,-17.9 714.64,-13"/>
<polygon fill="midnightblue" stroke="midnightblue" points="715.11,-16.49 724.93,-12.52 714.78,-9.49 715.11,-16.49"/>
</g>
<!-- Node5 -->
<g id="node5" class="node">
<title>Node5</title>
<g id="a_node5"><a xlink:title=" ">
<polygon fill="white" stroke="#bfbfbf" points="81,-0.5 81,-19.5 131,-19.5 131,-0.5 81,-0.5"/>
<text text-anchor="middle" x="106" y="-7.5" font-family="Helvetica,sans-Serif" font-size="10.00">cstdint</text>
</a>
</g>
</g>
<!-- Node3&#45;&gt;Node5 -->
<g id="edge4" class="edge">
<title>Node3&#45;&gt;Node5</title>
<path fill="none" stroke="midnightblue" d="M77.61,-56.08C82.37,-48.53 89.32,-37.49 95.15,-28.23"/>
<polygon fill="midnightblue" stroke="midnightblue" points="98.12,-30.08 100.49,-19.75 92.2,-26.35 98.12,-30.08"/>
</g>
<!-- Node6 -->
<g id="node6" class="node">
<title>Node6</title>
<g id="a_node6"><a xlink:title=" ">
<polygon fill="white" stroke="#bfbfbf" points="13,-0.5 13,-19.5 63,-19.5 63,-0.5 13,-0.5"/>
<text text-anchor="middle" x="38" y="-7.5" font-family="Helvetica,sans-Serif" font-size="10.00">climits</text>
</a>
</g>
</g>
<!-- Node3&#45;&gt;Node6 -->
<g id="edge5" class="edge">
<title>Node3&#45;&gt;Node6</title>
<path fill="none" stroke="midnightblue" d="M66.39,-56.08C61.63,-48.53 54.68,-37.49 48.85,-28.23"/>
<polygon fill="midnightblue" stroke="midnightblue" points="51.8,-26.35 43.51,-19.75 45.88,-30.08 51.8,-26.35"/>
</g>
<!-- Node8 -->
<g id="node8" class="node">
<title>Node8</title>
<g id="a_node8"><a xlink:href="itkLightObject_8h.html" target="_top" xlink:title=" ">
<polygon fill="white" stroke="black" points="421,-168.5 421,-187.5 515,-187.5 515,-168.5 421,-168.5"/>
<text text-anchor="middle" x="468" y="-175.5" font-family="Helvetica,sans-Serif" font-size="10.00">itkLightObject.h</text>
</a>
</g>
</g>
<!-- Node7&#45;&gt;Node8 -->
<g id="edge7" class="edge">
<title>Node7&#45;&gt;Node8</title>
<path fill="none" stroke="midnightblue" d="M396.08,-347.36C379.17,-339.96 356.63,-327.82 342,-311 315.75,-280.82 295.16,-256.11 319,-224 339.93,-195.81 378,-184.64 410.42,-180.48"/>
<polygon fill="midnightblue" stroke="midnightblue" points="411.15,-183.92 420.72,-179.36 410.4,-176.96 411.15,-183.92"/>
</g>
<!-- Node16 -->
<g id="node16" class="node">
<title>Node16</title>
<g id="a_node16"><a xlink:href="itkSingletonMacro_8h.html" target="_top" xlink:title=" ">
<polygon fill="white" stroke="black" points="141,-56.5 141,-75.5 255,-75.5 255,-56.5 141,-56.5"/>
<text text-anchor="middle" x="198" y="-63.5" font-family="Helvetica,sans-Serif" font-size="10.00">itkSingletonMacro.h</text>
</a>
</g>
</g>
<!-- Node7&#45;&gt;Node16 -->
<g id="edge37" class="edge">
<title>Node7&#45;&gt;Node16</title>
<path fill="none" stroke="midnightblue" d="M389.13,-347.44C368.41,-340.33 341.2,-328.51 322,-311 250.79,-246.06 214.59,-130.87 202.61,-85.81"/>
<polygon fill="midnightblue" stroke="midnightblue" points="205.96,-84.76 200.08,-75.94 199.17,-86.5 205.96,-84.76"/>
</g>
<!-- Node19 -->
<g id="node19" class="node">
<title>Node19</title>
<g id="a_node19"><a xlink:href="itkEventObject_8h.html" target="_top" xlink:title=" ">
<polygon fill="white" stroke="black" points="686,-168.5 686,-187.5 784,-187.5 784,-168.5 686,-168.5"/>
<text text-anchor="middle" x="735" y="-175.5" font-family="Helvetica,sans-Serif" font-size="10.00">itkEventObject.h</text>
</a>
</g>
</g>
<!-- Node7&#45;&gt;Node19 -->
<g id="edge25" class="edge">
<title>Node7&#45;&gt;Node19</title>
<path fill="none" stroke="midnightblue" d="M454.15,-350.81C532.79,-338.4 718.87,-304.32 755,-255 767.67,-237.7 757.25,-213 747.31,-196.5"/>
<polygon fill="midnightblue" stroke="midnightblue" points="750.07,-194.34 741.69,-187.86 744.2,-198.15 750.07,-194.34"/>
</g>
<!-- Node20 -->
<g id="node20" class="node">
<title>Node20</title>
<g id="a_node20"><a xlink:href="itkMetaDataDictionary_8h.html" target="_top" xlink:title=" ">
<polygon fill="white" stroke="black" points="351.5,-291.5 351.5,-310.5 486.5,-310.5 486.5,-291.5 351.5,-291.5"/>
<text text-anchor="middle" x="419" y="-298.5" font-family="Helvetica,sans-Serif" font-size="10.00">itkMetaDataDictionary.h</text>
</a>
</g>
</g>
<!-- Node7&#45;&gt;Node20 -->
<g id="edge27" class="edge">
<title>Node7&#45;&gt;Node20</title>
<path fill="none" stroke="midnightblue" d="M419,-347.08C419,-340.01 419,-329.86 419,-320.99"/>
<polygon fill="midnightblue" stroke="midnightblue" points="422.5,-320.75 419,-310.75 415.5,-320.75 422.5,-320.75"/>
</g>
<!-- Node27 -->
<g id="node27" class="node">
<title>Node27</title>
<g id="a_node27"><a xlink:title=" ">
<polygon fill="white" stroke="#bfbfbf" points="504.5,-291.5 504.5,-310.5 569.5,-310.5 569.5,-291.5 504.5,-291.5"/>
<text text-anchor="middle" x="537" y="-298.5" font-family="Helvetica,sans-Serif" font-size="10.00">functional</text>
</a>
</g>
</g>
<!-- Node7&#45;&gt;Node27 -->
<g id="edge38" class="edge">
<title>Node7&#45;&gt;Node27</title>
<path fill="none" stroke="midnightblue" d="M437.7,-347.44C456.94,-338.64 487.15,-324.81 509.2,-314.72"/>
<polygon fill="midnightblue" stroke="midnightblue" points="510.75,-317.86 518.39,-310.52 507.84,-311.5 510.75,-317.86"/>
</g>
<!-- Node8&#45;&gt;Node4 -->
<g id="edge8" class="edge">
<title>Node8&#45;&gt;Node4</title>
<path fill="none" stroke="midnightblue" d="M448.7,-168.48C434.57,-161.08 416.44,-148.89 408,-132 392.89,-101.79 385.69,-81.36 408,-56 427.98,-33.29 624.97,-18.89 714.78,-13.45"/>
<polygon fill="midnightblue" stroke="midnightblue" points="715.15,-16.94 724.93,-12.85 714.74,-9.95 715.15,-16.94"/>
</g>
<!-- Node9 -->
<g id="node9" class="node">
<title>Node9</title>
<g id="a_node9"><a xlink:href="itkSmartPointer_8h.html" target="_top" xlink:title=" ">
<polygon fill="white" stroke="black" points="417.5,-112.5 417.5,-131.5 518.5,-131.5 518.5,-112.5 417.5,-112.5"/>
<text text-anchor="middle" x="468" y="-119.5" font-family="Helvetica,sans-Serif" font-size="10.00">itkSmartPointer.h</text>
</a>
</g>
</g>
<!-- Node8&#45;&gt;Node9 -->
<g id="edge9" class="edge">
<title>Node8&#45;&gt;Node9</title>
<path fill="none" stroke="midnightblue" d="M468,-168.08C468,-161.01 468,-150.86 468,-141.99"/>
<polygon fill="midnightblue" stroke="midnightblue" points="471.5,-141.75 468,-131.75 464.5,-141.75 471.5,-141.75"/>
</g>
<!-- Node10 -->
<g id="node10" class="node">
<title>Node10</title>
<g id="a_node10"><a xlink:title=" ">
<polygon fill="white" stroke="#bfbfbf" points="671,-56.5 671,-75.5 731,-75.5 731,-56.5 671,-56.5"/>
<text text-anchor="middle" x="701" y="-63.5" font-family="Helvetica,sans-Serif" font-size="10.00">iostream</text>
</a>
</g>
</g>
<!-- Node8&#45;&gt;Node10 -->
<g id="edge23" class="edge">
<title>Node8&#45;&gt;Node10</title>
<path fill="none" stroke="midnightblue" d="M478.88,-168.37C496.38,-154.84 532.23,-128.46 566,-112 596.75,-97 633.74,-85.06 661.22,-77.26"/>
<polygon fill="midnightblue" stroke="midnightblue" points="662.19,-80.63 670.88,-74.58 660.31,-73.88 662.19,-80.63"/>
</g>
<!-- Node14 -->
<g id="node14" class="node">
<title>Node14</title>
<g id="a_node14"><a xlink:href="itkTimeStamp_8h.html" target="_top" xlink:title=" ">
<polygon fill="white" stroke="black" points="227.5,-112.5 227.5,-131.5 322.5,-131.5 322.5,-112.5 227.5,-112.5"/>
<text text-anchor="middle" x="275" y="-119.5" font-family="Helvetica,sans-Serif" font-size="10.00">itkTimeStamp.h</text>
</a>
</g>
</g>
<!-- Node8&#45;&gt;Node14 -->
<g id="edge14" class="edge">
<title>Node8&#45;&gt;Node14</title>
<path fill="none" stroke="midnightblue" d="M437.42,-168.44C404.39,-159.2 351.61,-144.44 315.23,-134.26"/>
<polygon fill="midnightblue" stroke="midnightblue" points="316.01,-130.84 305.44,-131.52 314.13,-137.58 316.01,-130.84"/>
</g>
<!-- Node15 -->
<g id="node15" class="node">
<title>Node15</title>
<g id="a_node15"><a xlink:title=" ">
<polygon fill="white" stroke="#bfbfbf" points="311,-56.5 311,-75.5 361,-75.5 361,-56.5 311,-56.5"/>
<text text-anchor="middle" x="336" y="-63.5" font-family="Helvetica,sans-Serif" font-size="10.00">atomic</text>
</a>
</g>
</g>
<!-- Node8&#45;&gt;Node15 -->
<g id="edge22" class="edge">
<title>Node8&#45;&gt;Node15</title>
<path fill="none" stroke="midnightblue" d="M440.28,-168.4C420.36,-161.15 393.8,-149.18 375,-132 360.62,-118.85 349.83,-99.17 343.28,-84.91"/>
<polygon fill="midnightblue" stroke="midnightblue" points="346.46,-83.44 339.28,-75.66 340.04,-86.22 346.46,-83.44"/>
</g>
<!-- Node17 -->
<g id="node17" class="node">
<title>Node17</title>
<g id="a_node17"><a xlink:href="itkIndent_8h.html" target="_top" xlink:title=" ">
<polygon fill="white" stroke="black" points="693.5,-112.5 693.5,-131.5 762.5,-131.5 762.5,-112.5 693.5,-112.5"/>
<text text-anchor="middle" x="728" y="-119.5" font-family="Helvetica,sans-Serif" font-size="10.00">itkIndent.h</text>
</a>
</g>
</g>
<!-- Node8&#45;&gt;Node17 -->
<g id="edge19" class="edge">
<title>Node8&#45;&gt;Node17</title>
<path fill="none" stroke="midnightblue" d="M509.2,-168.44C556.65,-158.59 634.35,-142.45 683.26,-132.29"/>
<polygon fill="midnightblue" stroke="midnightblue" points="684.16,-135.68 693.24,-130.22 682.73,-128.83 684.16,-135.68"/>
</g>
<!-- Node18 -->
<g id="node18" class="node">
<title>Node18</title>
<g id="a_node18"><a xlink:title=" ">
<polygon fill="white" stroke="#bfbfbf" points="575.5,-112.5 575.5,-131.5 632.5,-131.5 632.5,-112.5 575.5,-112.5"/>
<text text-anchor="middle" x="604" y="-119.5" font-family="Helvetica,sans-Serif" font-size="10.00">typeinfo</text>
</a>
</g>
</g>
<!-- Node8&#45;&gt;Node18 -->
<g id="edge24" class="edge">
<title>Node8&#45;&gt;Node18</title>
<path fill="none" stroke="midnightblue" d="M489.55,-168.44C512.03,-159.52 547.49,-145.44 572.98,-135.32"/>
<polygon fill="midnightblue" stroke="midnightblue" points="574.55,-138.46 582.55,-131.52 571.97,-131.95 574.55,-138.46"/>
</g>
<!-- Node9&#45;&gt;Node10 -->
<g id="edge10" class="edge">
<title>Node9&#45;&gt;Node10</title>
<path fill="none" stroke="midnightblue" d="M504.92,-112.44C547.45,-102.59 617.08,-86.45 660.91,-76.29"/>
<polygon fill="midnightblue" stroke="midnightblue" points="661.97,-79.64 670.92,-73.97 660.39,-72.82 661.97,-79.64"/>
</g>
<!-- Node11 -->
<g id="node11" class="node">
<title>Node11</title>
<g id="a_node11"><a xlink:title=" ">
<polygon fill="white" stroke="#bfbfbf" points="607.5,-56.5 607.5,-75.5 652.5,-75.5 652.5,-56.5 607.5,-56.5"/>
<text text-anchor="middle" x="630" y="-63.5" font-family="Helvetica,sans-Serif" font-size="10.00">utility</text>
</a>
</g>
</g>
<!-- Node9&#45;&gt;Node11 -->
<g id="edge11" class="edge">
<title>Node9&#45;&gt;Node11</title>
<path fill="none" stroke="midnightblue" d="M493.67,-112.44C521.8,-103.07 567,-88 597.57,-77.81"/>
<polygon fill="midnightblue" stroke="midnightblue" points="598.95,-81.04 607.33,-74.56 596.73,-74.4 598.95,-81.04"/>
</g>
<!-- Node12 -->
<g id="node12" class="node">
<title>Node12</title>
<g id="a_node12"><a xlink:title=" ">
<polygon fill="white" stroke="#bfbfbf" points="417.5,-56.5 417.5,-75.5 486.5,-75.5 486.5,-56.5 417.5,-56.5"/>
<text text-anchor="middle" x="452" y="-63.5" font-family="Helvetica,sans-Serif" font-size="10.00">type_traits</text>
</a>
</g>
</g>
<!-- Node9&#45;&gt;Node12 -->
<g id="edge12" class="edge">
<title>Node9&#45;&gt;Node12</title>
<path fill="none" stroke="midnightblue" d="M465.36,-112.08C463.21,-104.85 460.12,-94.41 457.45,-85.4"/>
<polygon fill="midnightblue" stroke="midnightblue" points="460.79,-84.34 454.59,-75.75 454.08,-86.33 460.79,-84.34"/>
</g>
<!-- Node13 -->
<g id="node13" class="node">
<title>Node13</title>
<g id="a_node13"><a xlink:title=" ">
<polygon fill="white" stroke="#bfbfbf" points="504.5,-56.5 504.5,-75.5 589.5,-75.5 589.5,-56.5 504.5,-56.5"/>
<text text-anchor="middle" x="547" y="-63.5" font-family="Helvetica,sans-Serif" font-size="10.00">itkConfigure.h</text>
</a>
</g>
</g>
<!-- Node9&#45;&gt;Node13 -->
<g id="edge13" class="edge">
<title>Node9&#45;&gt;Node13</title>
<path fill="none" stroke="midnightblue" d="M480.69,-112.32C492.9,-103.98 511.58,-91.21 526,-81.35"/>
<polygon fill="midnightblue" stroke="midnightblue" points="528.06,-84.19 534.34,-75.65 524.11,-78.41 528.06,-84.19"/>
</g>
<!-- Node14&#45;&gt;Node3 -->
<g id="edge16" class="edge">
<title>Node14&#45;&gt;Node3</title>
<path fill="none" stroke="midnightblue" d="M242.83,-112.44C207.94,-103.16 152.11,-88.31 113.83,-78.13"/>
<polygon fill="midnightblue" stroke="midnightblue" points="114.58,-74.7 104.02,-75.52 112.78,-81.47 114.58,-74.7"/>
</g>
<!-- Node14&#45;&gt;Node4 -->
<g id="edge15" class="edge">
<title>Node14&#45;&gt;Node4</title>
<path fill="none" stroke="midnightblue" d="M275.86,-112.11C277.76,-97.71 283.74,-69.53 302,-56 334.7,-31.77 606,-17.56 714.46,-12.81"/>
<polygon fill="midnightblue" stroke="midnightblue" points="714.89,-16.29 724.73,-12.36 714.59,-9.3 714.89,-16.29"/>
</g>
<!-- Node14&#45;&gt;Node15 -->
<g id="edge17" class="edge">
<title>Node14&#45;&gt;Node15</title>
<path fill="none" stroke="midnightblue" d="M284.8,-112.32C293.82,-104.34 307.41,-92.31 318.32,-82.65"/>
<polygon fill="midnightblue" stroke="midnightblue" points="320.85,-85.08 326.02,-75.83 316.21,-79.84 320.85,-85.08"/>
</g>
<!-- Node14&#45;&gt;Node16 -->
<g id="edge18" class="edge">
<title>Node14&#45;&gt;Node16</title>
<path fill="none" stroke="midnightblue" d="M262.63,-112.32C250.84,-104.06 232.87,-91.45 218.86,-81.63"/>
<polygon fill="midnightblue" stroke="midnightblue" points="220.54,-78.53 210.34,-75.65 216.52,-84.26 220.54,-78.53"/>
</g>
<!-- Node17&#45;&gt;Node4 -->
<g id="edge20" class="edge">
<title>Node17&#45;&gt;Node4</title>
<path fill="none" stroke="midnightblue" d="M730.43,-112.37C735.46,-94.54 747.08,-53.3 753.85,-29.27"/>
<polygon fill="midnightblue" stroke="midnightblue" points="757.23,-30.17 756.58,-19.59 750.5,-28.27 757.23,-30.17"/>
</g>
<!-- Node17&#45;&gt;Node10 -->
<g id="edge21" class="edge">
<title>Node17&#45;&gt;Node10</title>
<path fill="none" stroke="midnightblue" d="M723.54,-112.08C719.85,-104.69 714.48,-93.95 709.91,-84.81"/>
<polygon fill="midnightblue" stroke="midnightblue" points="712.98,-83.13 705.38,-75.75 706.72,-86.26 712.98,-83.13"/>
</g>
<!-- Node19&#45;&gt;Node17 -->
<g id="edge26" class="edge">
<title>Node19&#45;&gt;Node17</title>
<path fill="none" stroke="midnightblue" d="M733.84,-168.08C732.92,-160.93 731.58,-150.64 730.42,-141.69"/>
<polygon fill="midnightblue" stroke="midnightblue" points="733.89,-141.22 729.13,-131.75 726.95,-142.12 733.89,-141.22"/>
</g>
<!-- Node21 -->
<g id="node21" class="node">
<title>Node21</title>
<g id="a_node21"><a xlink:href="itkMetaDataObjectBase_8h.html" target="_top" xlink:title=" ">
<polygon fill="white" stroke="black" points="522,-230 522,-249 664,-249 664,-230 522,-230"/>
<text text-anchor="middle" x="593" y="-237" font-family="Helvetica,sans-Serif" font-size="10.00">itkMetaDataObjectBase.h</text>
</a>
</g>
</g>
<!-- Node20&#45;&gt;Node21 -->
<g id="edge28" class="edge">
<title>Node20&#45;&gt;Node21</title>
<path fill="none" stroke="midnightblue" d="M443.93,-291.48C474.04,-281.18 524.83,-263.81 558.64,-252.25"/>
<polygon fill="midnightblue" stroke="midnightblue" points="559.79,-255.56 568.12,-249.01 557.52,-248.93 559.79,-255.56"/>
</g>
<!-- Node22 -->
<g id="node22" class="node">
<title>Node22</title>
<g id="a_node22"><a xlink:title=" ">
<polygon fill="white" stroke="#bfbfbf" points="682,-230 682,-249 746,-249 746,-230 682,-230"/>
<text text-anchor="middle" x="714" y="-237" font-family="Helvetica,sans-Serif" font-size="10.00">algorithm</text>
</a>
</g>
</g>
<!-- Node20&#45;&gt;Node22 -->
<g id="edge32" class="edge">
<title>Node20&#45;&gt;Node22</title>
<path fill="none" stroke="midnightblue" d="M484.1,-291.48C535.8,-284 609.67,-271.69 673,-255 676.04,-254.2 679.18,-253.27 682.3,-252.29"/>
<polygon fill="midnightblue" stroke="midnightblue" points="683.71,-255.5 692.08,-249 681.48,-248.87 683.71,-255.5"/>
</g>
<!-- Node23 -->
<g id="node23" class="node">
<title>Node23</title>
<g id="a_node23"><a xlink:title=" ">
<polygon fill="white" stroke="#bfbfbf" points="186.5,-230 186.5,-249 233.5,-249 233.5,-230 186.5,-230"/>
<text text-anchor="middle" x="210" y="-237" font-family="Helvetica,sans-Serif" font-size="10.00">vector</text>
</a>
</g>
</g>
<!-- Node20&#45;&gt;Node23 -->
<g id="edge33" class="edge">
<title>Node20&#45;&gt;Node23</title>
<path fill="none" stroke="midnightblue" d="M389.06,-291.48C350.53,-280.51 283.81,-261.51 243.59,-250.06"/>
<polygon fill="midnightblue" stroke="midnightblue" points="244.31,-246.63 233.73,-247.26 242.39,-253.36 244.31,-246.63"/>
</g>
<!-- Node24 -->
<g id="node24" class="node">
<title>Node24</title>
<g id="a_node24"><a xlink:title=" ">
<polygon fill="white" stroke="#bfbfbf" points="466,-230 466,-249 504,-249 504,-230 466,-230"/>
<text text-anchor="middle" x="485" y="-237" font-family="Helvetica,sans-Serif" font-size="10.00">map</text>
</a>
</g>
</g>
<!-- Node20&#45;&gt;Node24 -->
<g id="edge34" class="edge">
<title>Node20&#45;&gt;Node24</title>
<path fill="none" stroke="midnightblue" d="M428.46,-291.48C438.75,-282.2 455.42,-267.17 467.99,-255.83"/>
<polygon fill="midnightblue" stroke="midnightblue" points="470.48,-258.3 475.56,-249.01 465.79,-253.11 470.48,-258.3"/>
</g>
<!-- Node25 -->
<g id="node25" class="node">
<title>Node25</title>
<g id="a_node25"><a xlink:title=" ">
<polygon fill="white" stroke="#bfbfbf" points="328,-230 328,-249 372,-249 372,-230 328,-230"/>
<text text-anchor="middle" x="350" y="-237" font-family="Helvetica,sans-Serif" font-size="10.00">string</text>
</a>
</g>
</g>
<!-- Node20&#45;&gt;Node25 -->
<g id="edge35" class="edge">
<title>Node20&#45;&gt;Node25</title>
<path fill="none" stroke="midnightblue" d="M409.11,-291.48C398.35,-282.2 380.93,-267.17 367.78,-255.83"/>
<polygon fill="midnightblue" stroke="midnightblue" points="369.73,-252.89 359.87,-249.01 365.16,-258.19 369.73,-252.89"/>
</g>
<!-- Node26 -->
<g id="node26" class="node">
<title>Node26</title>
<g id="a_node26"><a xlink:title=" ">
<polygon fill="white" stroke="#bfbfbf" points="390,-230 390,-249 448,-249 448,-230 390,-230"/>
<text text-anchor="middle" x="419" y="-237" font-family="Helvetica,sans-Serif" font-size="10.00">memory</text>
</a>
</g>
</g>
<!-- Node20&#45;&gt;Node26 -->
<g id="edge36" class="edge">
<title>Node20&#45;&gt;Node26</title>
<path fill="none" stroke="midnightblue" d="M419,-291.48C419,-283.08 419,-269.98 419,-259.16"/>
<polygon fill="midnightblue" stroke="midnightblue" points="422.5,-259.01 419,-249.01 415.5,-259.01 422.5,-259.01"/>
</g>
<!-- Node21&#45;&gt;Node8 -->
<g id="edge29" class="edge">
<title>Node21&#45;&gt;Node8</title>
<path fill="none" stroke="midnightblue" d="M575.09,-229.98C554.11,-219.99 519.15,-203.35 494.91,-191.81"/>
<polygon fill="midnightblue" stroke="midnightblue" points="496.41,-188.65 485.88,-187.51 493.4,-194.97 496.41,-188.65"/>
</g>
<!-- Node21&#45;&gt;Node10 -->
<g id="edge31" class="edge">
<title>Node21&#45;&gt;Node10</title>
<path fill="none" stroke="midnightblue" d="M598.5,-229.76C615.48,-202.81 667.24,-120.62 690.03,-84.42"/>
<polygon fill="midnightblue" stroke="midnightblue" points="693.27,-85.85 695.64,-75.52 687.34,-82.12 693.27,-85.85"/>
</g>
<!-- Node21&#45;&gt;Node18 -->
<g id="edge30" class="edge">
<title>Node21&#45;&gt;Node18</title>
<path fill="none" stroke="midnightblue" d="M593.83,-229.82C595.59,-211.26 599.78,-167.34 602.19,-141.97"/>
<polygon fill="midnightblue" stroke="midnightblue" points="605.7,-142.07 603.16,-131.78 598.73,-141.41 605.7,-142.07"/>
</g>
<!-- Node29 -->
<g id="node29" class="node">
<title>Node29</title>
<g id="a_node29"><a xlink:href="itkObjectFactoryBase_8h.html" target="_top" xlink:title=" ">
<polygon fill="white" stroke="black" points="145.5,-470.5 145.5,-489.5 274.5,-489.5 274.5,-470.5 145.5,-470.5"/>
<text text-anchor="middle" x="210" y="-477.5" font-family="Helvetica,sans-Serif" font-size="10.00">itkObjectFactoryBase.h</text>
</a>
</g>
</g>
<!-- Node28&#45;&gt;Node29 -->
<g id="edge40" class="edge">
<title>Node28&#45;&gt;Node29</title>
<path fill="none" stroke="midnightblue" d="M384.31,-537.37C348.77,-525.88 285.79,-505.51 246.05,-492.66"/>
<polygon fill="midnightblue" stroke="midnightblue" points="247.07,-489.31 236.48,-489.56 244.92,-495.97 247.07,-489.31"/>
</g>
<!-- Node29&#45;&gt;Node16 -->
<g id="edge43" class="edge">
<title>Node29&#45;&gt;Node16</title>
<path fill="none" stroke="midnightblue" d="M207.61,-470.23C199.01,-437.74 170.53,-321.1 177,-224 180.34,-173.86 189.61,-115.3 194.65,-85.89"/>
<polygon fill="midnightblue" stroke="midnightblue" points="198.13,-86.26 196.4,-75.81 191.24,-85.06 198.13,-86.26"/>
</g>
<!-- Node29&#45;&gt;Node23 -->
<g id="edge48" class="edge">
<title>Node29&#45;&gt;Node23</title>
<path fill="none" stroke="midnightblue" d="M210,-470.23C210,-435.6 210,-307.93 210,-259.4"/>
<polygon fill="midnightblue" stroke="midnightblue" points="213.5,-259.1 210,-249.1 206.5,-259.1 213.5,-259.1"/>
</g>
<!-- Node30 -->
<g id="node30" class="node">
<title>Node30</title>
<g id="a_node30"><a xlink:href="itkCreateObjectFunction_8h.html" target="_top" xlink:title=" ">
<polygon fill="white" stroke="black" points="318.5,-403.5 318.5,-422.5 461.5,-422.5 461.5,-403.5 318.5,-403.5"/>
<text text-anchor="middle" x="390" y="-410.5" font-family="Helvetica,sans-Serif" font-size="10.00">itkCreateObjectFunction.h</text>
</a>
</g>
</g>
<!-- Node29&#45;&gt;Node30 -->
<g id="edge41" class="edge">
<title>Node29&#45;&gt;Node30</title>
<path fill="none" stroke="midnightblue" d="M233.9,-470.37C265.46,-458.97 321.18,-438.85 356.81,-425.99"/>
<polygon fill="midnightblue" stroke="midnightblue" points="358.07,-429.25 366.29,-422.56 355.69,-422.67 358.07,-429.25"/>
</g>
<!-- Node31 -->
<g id="node31" class="node">
<title>Node31</title>
<g id="a_node31"><a xlink:href="itkCommonEnums_8h.html" target="_top" xlink:title=" ">
<polygon fill="white" stroke="black" points="28,-403.5 28,-422.5 144,-422.5 144,-403.5 28,-403.5"/>
<text text-anchor="middle" x="86" y="-410.5" font-family="Helvetica,sans-Serif" font-size="10.00">itkCommonEnums.h</text>
</a>
</g>
</g>
<!-- Node29&#45;&gt;Node31 -->
<g id="edge44" class="edge">
<title>Node29&#45;&gt;Node31</title>
<path fill="none" stroke="midnightblue" d="M193.53,-470.37C172.6,-459.39 136.22,-440.32 111.64,-427.44"/>
<polygon fill="midnightblue" stroke="midnightblue" points="113.02,-424.21 102.53,-422.67 109.77,-430.41 113.02,-424.21"/>
</g>
<!-- Node33 -->
<g id="node33" class="node">
<title>Node33</title>
<g id="a_node33"><a xlink:title=" ">
<polygon fill="white" stroke="#bfbfbf" points="238,-403.5 238,-422.5 270,-422.5 270,-403.5 238,-403.5"/>
<text text-anchor="middle" x="254" y="-410.5" font-family="Helvetica,sans-Serif" font-size="10.00">list</text>
</a>
</g>
</g>
<!-- Node29&#45;&gt;Node33 -->
<g id="edge47" class="edge">
<title>Node29&#45;&gt;Node33</title>
<path fill="none" stroke="midnightblue" d="M215.93,-470.23C222.73,-460.2 234.02,-443.51 242.55,-430.92"/>
<polygon fill="midnightblue" stroke="midnightblue" points="245.45,-432.87 248.16,-422.63 239.66,-428.95 245.45,-432.87"/>
</g>
<!-- Node30&#45;&gt;Node7 -->
<g id="edge42" class="edge">
<title>Node30&#45;&gt;Node7</title>
<path fill="none" stroke="midnightblue" d="M394.79,-403.08C398.76,-395.69 404.53,-384.95 409.43,-375.81"/>
<polygon fill="midnightblue" stroke="midnightblue" points="412.65,-377.22 414.3,-366.75 406.49,-373.91 412.65,-377.22"/>
</g>
<!-- Node31&#45;&gt;Node3 -->
<g id="edge45" class="edge">
<title>Node31&#45;&gt;Node3</title>
<path fill="none" stroke="midnightblue" d="M82.22,-403.35C74.58,-385.03 58,-340.82 58,-302 58,-302 58,-302 58,-177 58,-144.54 64.07,-107.12 68.22,-85.36"/>
<polygon fill="midnightblue" stroke="midnightblue" points="71.66,-86 70.17,-75.51 64.79,-84.64 71.66,-86"/>
</g>
<!-- Node32 -->
<g id="node32" class="node">
<title>Node32</title>
<g id="a_node32"><a xlink:title=" ">
<polygon fill="white" stroke="#bfbfbf" points="86.5,-347.5 86.5,-366.5 143.5,-366.5 143.5,-347.5 86.5,-347.5"/>
<text text-anchor="middle" x="115" y="-354.5" font-family="Helvetica,sans-Serif" font-size="10.00">ostream</text>
</a>
</g>
</g>
<!-- Node31&#45;&gt;Node32 -->
<g id="edge46" class="edge">
<title>Node31&#45;&gt;Node32</title>
<path fill="none" stroke="midnightblue" d="M90.79,-403.08C94.76,-395.69 100.53,-384.95 105.43,-375.81"/>
<polygon fill="midnightblue" stroke="midnightblue" points="108.65,-377.22 110.3,-366.75 102.49,-373.91 108.65,-377.22"/>
</g>
<!-- Node34&#45;&gt;Node4 -->
<g id="edge50" class="edge">
<title>Node34&#45;&gt;Node4</title>
<path fill="none" stroke="midnightblue" d="M683.74,-544.71C715.96,-541.63 764.98,-531.78 793,-501 819.64,-471.73 812,-453.58 812,-414 812,-414 812,-414 812,-121 812,-84.99 788.67,-48.34 772.96,-27.75"/>
<polygon fill="midnightblue" stroke="midnightblue" points="775.55,-25.38 766.59,-19.72 770.07,-29.73 775.55,-25.38"/>
</g>
<!-- Node35 -->
<g id="node35" class="node">
<title>Node35</title>
<g id="a_node35"><a xlink:title=" ">
<polygon fill="white" stroke="#bfbfbf" points="702,-470.5 702,-489.5 784,-489.5 784,-470.5 702,-470.5"/>
<text text-anchor="middle" x="743" y="-477.5" font-family="Helvetica,sans-Serif" font-size="10.00">vxl_version.h</text>
</a>
</g>
</g>
<!-- Node34&#45;&gt;Node35 -->
<g id="edge51" class="edge">
<title>Node34&#45;&gt;Node35</title>
<path fill="none" stroke="midnightblue" d="M664.27,-537.23C679.15,-526.61 704.43,-508.55 722.33,-495.76"/>
<polygon fill="midnightblue" stroke="midnightblue" points="724.82,-498.29 730.92,-489.63 720.75,-492.59 724.82,-498.29"/>
</g>
<!-- Node36 -->
<g id="node36" class="node">
<title>Node36</title>
<g id="a_node36"><a xlink:title=" ">
<polygon fill="white" stroke="#bfbfbf" points="293,-470.5 293,-489.5 387,-489.5 387,-470.5 293,-470.5"/>
<text text-anchor="middle" x="340" y="-477.5" font-family="Helvetica,sans-Serif" font-size="10.00">vnl/vnl_vector.h</text>
</a>
</g>
</g>
<!-- Node34&#45;&gt;Node36 -->
<g id="edge52" class="edge">
<title>Node34&#45;&gt;Node36</title>
<path fill="none" stroke="midnightblue" d="M620.5,-542.21C571.82,-535.96 475.62,-522.05 396,-501 387.7,-498.8 378.88,-495.92 370.76,-493.04"/>
<polygon fill="midnightblue" stroke="midnightblue" points="371.87,-489.72 361.27,-489.55 369.45,-496.29 371.87,-489.72"/>
</g>
<!-- Node37 -->
<g id="node37" class="node">
<title>Node37</title>
<g id="a_node37"><a xlink:title=" ">
<polygon fill="white" stroke="#bfbfbf" points="405.5,-470.5 405.5,-489.5 480.5,-489.5 480.5,-470.5 405.5,-470.5"/>
<text text-anchor="middle" x="443" y="-477.5" font-family="Helvetica,sans-Serif" font-size="10.00">itkArray.hxx</text>
</a>
</g>
</g>
<!-- Node34&#45;&gt;Node37 -->
<g id="edge53" class="edge">
<title>Node34&#45;&gt;Node37</title>
<path fill="none" stroke="midnightblue" d="M620.35,-538.66C587.2,-530.66 533.84,-516.85 489,-501 482.86,-498.83 476.38,-496.22 470.28,-493.61"/>
<polygon fill="midnightblue" stroke="midnightblue" points="471.68,-490.4 461.12,-489.58 468.86,-496.81 471.68,-490.4"/>
</g>
<!-- Node38 -->
<g id="node38" class="node">
<title>Node38</title>
<g id="a_node38"><a xlink:title=" ">
<polygon fill="white" stroke="#bfbfbf" points="498.5,-459.5 498.5,-500.5 683.5,-500.5 683.5,-459.5 498.5,-459.5"/>
<text text-anchor="start" x="506.5" y="-488.5" font-family="Helvetica,sans-Serif" font-size="10.00">/work/ITK/Modules/Core</text>
<text text-anchor="start" x="506.5" y="-477.5" font-family="Helvetica,sans-Serif" font-size="10.00">/Common/include/itkNumericTraits</text>
<text text-anchor="middle" x="591" y="-466.5" font-family="Helvetica,sans-Serif" font-size="10.00">ArrayPixel.h</text>
</a>
</g>
</g>
<!-- Node34&#45;&gt;Node38 -->
<g id="edge54" class="edge">
<title>Node34&#45;&gt;Node38</title>
<path fill="none" stroke="midnightblue" d="M643.77,-537.23C636.71,-529.7 626.14,-518.44 616.31,-507.96"/>
<polygon fill="midnightblue" stroke="midnightblue" points="618.73,-505.44 609.34,-500.54 613.63,-510.23 618.73,-505.44"/>
</g>
<!-- Node40&#45;&gt;Node4 -->
<g id="edge57" class="edge">
<title>Node40&#45;&gt;Node4</title>
<path fill="none" stroke="midnightblue" d="M1013.92,-350.82C949.67,-341.28 850,-314.55 850,-240.5 850,-240.5 850,-240.5 850,-121 850,-90.2 845.04,-80.2 826,-56 815.58,-42.76 800.17,-32.03 786.75,-24.37"/>
<polygon fill="midnightblue" stroke="midnightblue" points="788.33,-21.24 777.87,-19.57 785,-27.4 788.33,-21.24"/>
</g>
<!-- Node41 -->
<g id="node41" class="node">
<title>Node41</title>
<g id="a_node41"><a xlink:title=" ">
<polygon fill="white" stroke="#bfbfbf" points="1139,-291.5 1139,-310.5 1183,-310.5 1183,-291.5 1139,-291.5"/>
<text text-anchor="middle" x="1161" y="-298.5" font-family="Helvetica,sans-Serif" font-size="10.00">limits</text>
</a>
</g>
</g>
<!-- Node40&#45;&gt;Node41 -->
<g id="edge58" class="edge">
<title>Node40&#45;&gt;Node41</title>
<path fill="none" stroke="midnightblue" d="M1082.1,-347.32C1096.9,-338.82 1119.69,-325.73 1136.98,-315.8"/>
<polygon fill="midnightblue" stroke="midnightblue" points="1139.01,-318.67 1145.93,-310.65 1135.52,-312.6 1139.01,-318.67"/>
</g>
<!-- Node42 -->
<g id="node42" class="node">
<title>Node42</title>
<g id="a_node42"><a xlink:title=" ">
<polygon fill="white" stroke="#bfbfbf" points="1201.5,-291.5 1201.5,-310.5 1260.5,-310.5 1260.5,-291.5 1201.5,-291.5"/>
<text text-anchor="middle" x="1231" y="-298.5" font-family="Helvetica,sans-Serif" font-size="10.00">complex</text>
</a>
</g>
</g>
<!-- Node40&#45;&gt;Node42 -->
<g id="edge59" class="edge">
<title>Node40&#45;&gt;Node42</title>
<path fill="none" stroke="midnightblue" d="M1092.99,-347.44C1120.7,-338.32 1164.75,-323.81 1195.62,-313.65"/>
<polygon fill="midnightblue" stroke="midnightblue" points="1196.73,-316.97 1205.14,-310.52 1194.54,-310.32 1196.73,-316.97"/>
</g>
<!-- Node43 -->
<g id="node43" class="node">
<title>Node43</title>
<g id="a_node43"><a xlink:href="itkFixedArray_8h.html" target="_top" xlink:title=" ">
<polygon fill="white" stroke="black" points="993.5,-291.5 993.5,-310.5 1082.5,-310.5 1082.5,-291.5 993.5,-291.5"/>
<text text-anchor="middle" x="1038" y="-298.5" font-family="Helvetica,sans-Serif" font-size="10.00">itkFixedArray.h</text>
</a>
</g>
</g>
<!-- Node40&#45;&gt;Node43 -->
<g id="edge60" class="edge">
<title>Node40&#45;&gt;Node43</title>
<path fill="none" stroke="midnightblue" d="M1062.21,-347.08C1058.24,-339.69 1052.47,-328.95 1047.57,-319.81"/>
<polygon fill="midnightblue" stroke="midnightblue" points="1050.51,-317.91 1042.7,-310.75 1044.35,-321.22 1050.51,-317.91"/>
</g>
<!-- Node43&#45;&gt;Node4 -->
<g id="edge61" class="edge">
<title>Node43&#45;&gt;Node4</title>
<path fill="none" stroke="midnightblue" d="M1034.32,-291.38C1026.31,-271.79 1008,-222.29 1008,-179 1008,-179 1008,-179 1008,-121 1008,-32.49 874.73,-14.61 803.18,-11.39"/>
<polygon fill="midnightblue" stroke="midnightblue" points="803.22,-7.89 793.1,-11.01 802.96,-14.88 803.22,-7.89"/>
</g>
<!-- Node43&#45;&gt;Node22 -->
<g id="edge63" class="edge">
<title>Node43&#45;&gt;Node22</title>
<path fill="none" stroke="midnightblue" d="M993.29,-291.79C930.6,-280.28 817.41,-259.49 756.14,-248.24"/>
<polygon fill="midnightblue" stroke="midnightblue" points="756.51,-244.75 746.05,-246.39 755.25,-251.63 756.51,-244.75"/>
</g>
<!-- Node44 -->
<g id="node44" class="node">
<title>Node44</title>
<g id="a_node44"><a xlink:href="itkMakeFilled_8h.html" target="_top" xlink:title=" ">
<polygon fill="white" stroke="black" points="1036.5,-230 1036.5,-249 1127.5,-249 1127.5,-230 1036.5,-230"/>
<text text-anchor="middle" x="1082" y="-237" font-family="Helvetica,sans-Serif" font-size="10.00">itkMakeFilled.h</text>
</a>
</g>
</g>
<!-- Node43&#45;&gt;Node44 -->
<g id="edge62" class="edge">
<title>Node43&#45;&gt;Node44</title>
<path fill="none" stroke="midnightblue" d="M1044.3,-291.48C1050.9,-282.55 1061.44,-268.31 1069.69,-257.14"/>
<polygon fill="midnightblue" stroke="midnightblue" points="1072.58,-259.13 1075.71,-249.01 1066.95,-254.97 1072.58,-259.13"/>
</g>
<!-- Node45 -->
<g id="node45" class="node">
<title>Node45</title>
<g id="a_node45"><a xlink:title=" ">
<polygon fill="white" stroke="#bfbfbf" points="1146,-230 1146,-249 1188,-249 1188,-230 1146,-230"/>
<text text-anchor="middle" x="1167" y="-237" font-family="Helvetica,sans-Serif" font-size="10.00">array</text>
</a>
</g>
</g>
<!-- Node43&#45;&gt;Node45 -->
<g id="edge64" class="edge">
<title>Node43&#45;&gt;Node45</title>
<path fill="none" stroke="midnightblue" d="M1057.41,-291.34C1077.42,-282.38 1109.48,-267.9 1137,-255 1138.15,-254.46 1139.32,-253.91 1140.5,-253.35"/>
<polygon fill="midnightblue" stroke="midnightblue" points="1142.07,-256.48 1149.58,-249 1139.05,-250.16 1142.07,-256.48"/>
</g>
<!-- Node46 -->
<g id="node46" class="node">
<title>Node46</title>
<g id="a_node46"><a xlink:title=" ">
<polygon fill="white" stroke="#bfbfbf" points="878.5,-230 878.5,-249 979.5,-249 979.5,-230 878.5,-230"/>
<text text-anchor="middle" x="929" y="-237" font-family="Helvetica,sans-Serif" font-size="10.00">itkFixedArray.hxx</text>
</a>
</g>
</g>
<!-- Node43&#45;&gt;Node46 -->
<g id="edge65" class="edge">
<title>Node43&#45;&gt;Node46</title>
<path fill="none" stroke="midnightblue" d="M1022.38,-291.48C1004.41,-281.67 974.68,-265.43 953.59,-253.92"/>
<polygon fill="midnightblue" stroke="midnightblue" points="955.04,-250.73 944.59,-249.01 951.69,-256.87 955.04,-250.73"/>
</g>
<!-- Node47 -->
<g id="node47" class="node">
<title>Node47</title>
<g id="a_node47"><a xlink:href="itkNumericTraitsFixedArrayPixel_8h.html" target="_top" xlink:title=" ">
<polygon fill="white" stroke="black" points="1205.5,-224.5 1205.5,-254.5 1354.5,-254.5 1354.5,-224.5 1205.5,-224.5"/>
<text text-anchor="start" x="1213.5" y="-242.5" font-family="Helvetica,sans-Serif" font-size="10.00">itkNumericTraitsFixedArray</text>
<text text-anchor="middle" x="1280" y="-231.5" font-family="Helvetica,sans-Serif" font-size="10.00">Pixel.h</text>
</a>
</g>
</g>
<!-- Node43&#45;&gt;Node47 -->
<g id="edge66" class="edge">
<title>Node43&#45;&gt;Node47</title>
<path fill="none" stroke="midnightblue" d="M1067.77,-291.48C1102.41,-282.48 1160.61,-268.07 1207.35,-256.86"/>
<polygon fill="midnightblue" stroke="midnightblue" points="1208.22,-260.25 1217.14,-254.52 1206.6,-253.44 1208.22,-260.25"/>
</g>
<!-- Node47&#45;&gt;Node40 -->
<g id="edge67" class="edge">
<title>Node47&#45;&gt;Node40</title>
<path fill="none" stroke="midnightblue" d="M1216.83,-254.55C1188.85,-262.55 1156.38,-274.36 1130,-291 1109.75,-303.78 1091.28,-324.37 1079.66,-338.95"/>
<polygon fill="midnightblue" stroke="midnightblue" points="1076.68,-337.07 1073.34,-347.13 1082.23,-341.35 1076.68,-337.07"/>
</g>
<!-- Node47&#45;&gt;Node43 -->
<g id="edge68" class="edge">
<title>Node47&#45;&gt;Node43</title>
<path fill="none" stroke="midnightblue" d="M1228.8,-254.52C1187.07,-265.12 1128.63,-279.45 1087.4,-289.17"/>
<polygon fill="midnightblue" stroke="midnightblue" points="1086.51,-285.78 1077.57,-291.48 1088.11,-292.6 1086.51,-285.78"/>
</g>
</g>
</svg>
