<?xml version="1.0" encoding="UTF-8" standalone="no"?>
<!DOCTYPE svg PUBLIC "-//W3C//DTD SVG 1.1//EN"
 "http://www.w3.org/Graphics/SVG/1.1/DTD/svg11.dtd">
<!-- Generated by graphviz version 2.43.0 (0)
 -->
<!-- Title: itkTernaryGeneratorImageFilter.h Pages: 1 -->
<svg width="1050pt" height="173pt"
 viewBox="0.00 0.00 1050.00 173.00" xmlns="http://www.w3.org/2000/svg" xmlns:xlink="http://www.w3.org/1999/xlink">
<g id="graph0" class="graph" transform="scale(1 1) rotate(0) translate(4 169)">
<title>itkTernaryGeneratorImageFilter.h</title>
<polygon fill="white" stroke="transparent" points="-4,4 -4,-169 1046,-169 1046,4 -4,4"/>
<!-- Node1 -->
<g id="node1" class="node">
<title>Node1</title>
<g id="a_node1"><a xlink:title=" ">
<polygon fill="#bfbfbf" stroke="black" points="429.5,-134.5 429.5,-164.5 574.5,-164.5 574.5,-134.5 429.5,-134.5"/>
<text text-anchor="start" x="437.5" y="-152.5" font-family="Helvetica,sans-Serif" font-size="10.00">itkTernaryGeneratorImage</text>
<text text-anchor="middle" x="502" y="-141.5" font-family="Helvetica,sans-Serif" font-size="10.00">Filter.h</text>
</a>
</g>
</g>
<!-- Node2 -->
<g id="node2" class="node">
<title>Node2</title>
<g id="a_node2"><a xlink:href="itkTernaryAddImageFilter_8h.html" target="_top" xlink:title=" ">
<polygon fill="white" stroke="black" points="0,-73 0,-92 148,-92 148,-73 0,-73"/>
<text text-anchor="middle" x="74" y="-80" font-family="Helvetica,sans-Serif" font-size="10.00">itkTernaryAddImageFilter.h</text>
</a>
</g>
</g>
<!-- Node1&#45;&gt;Node2 -->
<g id="edge1" class="edge">
<title>Node1&#45;&gt;Node2</title>
<path fill="none" stroke="midnightblue" d="M419.14,-137.03C349.2,-127.18 246.44,-112.36 157,-98 145.45,-96.15 133.01,-94.03 121.37,-92.01"/>
<polygon fill="midnightblue" stroke="midnightblue" points="418.83,-140.52 429.22,-138.44 419.8,-133.58 418.83,-140.52"/>
</g>
<!-- Node3 -->
<g id="node3" class="node">
<title>Node3</title>
<g id="a_node3"><a xlink:href="itkTernaryMagnitudeImageFilter_8h.html" target="_top" xlink:title=" ">
<polygon fill="white" stroke="black" points="166,-67.5 166,-97.5 314,-97.5 314,-67.5 166,-67.5"/>
<text text-anchor="start" x="174" y="-85.5" font-family="Helvetica,sans-Serif" font-size="10.00">itkTernaryMagnitudeImage</text>
<text text-anchor="middle" x="240" y="-74.5" font-family="Helvetica,sans-Serif" font-size="10.00">Filter.h</text>
</a>
</g>
</g>
<!-- Node1&#45;&gt;Node3 -->
<g id="edge2" class="edge">
<title>Node1&#45;&gt;Node3</title>
<path fill="none" stroke="midnightblue" d="M435.7,-132.05C392.87,-121.43 337.71,-107.74 296.88,-97.61"/>
<polygon fill="midnightblue" stroke="midnightblue" points="434.92,-135.47 445.47,-134.48 436.61,-128.67 434.92,-135.47"/>
</g>
<!-- Node4 -->
<g id="node4" class="node">
<title>Node4</title>
<g id="a_node4"><a xlink:href="itkTernaryMagnitudeSquaredImageFilter_8h.html" target="_top" xlink:title=" ">
<polygon fill="white" stroke="black" points="332.5,-67.5 332.5,-97.5 489.5,-97.5 489.5,-67.5 332.5,-67.5"/>
<text text-anchor="start" x="340.5" y="-85.5" font-family="Helvetica,sans-Serif" font-size="10.00">itkTernaryMagnitudeSquared</text>
<text text-anchor="middle" x="411" y="-74.5" font-family="Helvetica,sans-Serif" font-size="10.00">ImageFilter.h</text>
</a>
</g>
</g>
<!-- Node1&#45;&gt;Node4 -->
<g id="edge3" class="edge">
<title>Node1&#45;&gt;Node4</title>
<path fill="none" stroke="midnightblue" d="M473.93,-128.45C459.93,-118.45 443.34,-106.6 430.71,-97.58"/>
<polygon fill="midnightblue" stroke="midnightblue" points="472.08,-131.43 482.25,-134.4 476.15,-125.74 472.08,-131.43"/>
</g>
<!-- Node5 -->
<g id="node5" class="node">
<title>Node5</title>
<g id="a_node5"><a xlink:href="itkTernaryOperatorImageFilter_8h.html" target="_top" xlink:title=" ">
<polygon fill="white" stroke="black" points="508,-73 508,-92 680,-92 680,-73 508,-73"/>
<text text-anchor="middle" x="594" y="-80" font-family="Helvetica,sans-Serif" font-size="10.00">itkTernaryOperatorImageFilter.h</text>
</a>
</g>
</g>
<!-- Node1&#45;&gt;Node5 -->
<g id="edge4" class="edge">
<title>Node1&#45;&gt;Node5</title>
<path fill="none" stroke="midnightblue" d="M530.58,-128.31C547.86,-116.1 568.98,-101.18 581.96,-92.01"/>
<polygon fill="midnightblue" stroke="midnightblue" points="528.11,-125.77 521.96,-134.4 532.15,-131.48 528.11,-125.77"/>
</g>
<!-- Node6 -->
<g id="node6" class="node">
<title>Node6</title>
<g id="a_node6"><a xlink:href="itkLandweberDeconvolutionImageFilter_8h.html" target="_top" xlink:title=" ">
<polygon fill="white" stroke="black" points="698.5,-67.5 698.5,-97.5 851.5,-97.5 851.5,-67.5 698.5,-67.5"/>
<text text-anchor="start" x="706.5" y="-85.5" font-family="Helvetica,sans-Serif" font-size="10.00">itkLandweberDeconvolution</text>
<text text-anchor="middle" x="775" y="-74.5" font-family="Helvetica,sans-Serif" font-size="10.00">ImageFilter.h</text>
</a>
</g>
</g>
<!-- Node1&#45;&gt;Node6 -->
<g id="edge5" class="edge">
<title>Node1&#45;&gt;Node6</title>
<path fill="none" stroke="midnightblue" d="M570.8,-132.12C615.47,-121.48 673.1,-107.76 715.73,-97.61"/>
<polygon fill="midnightblue" stroke="midnightblue" points="569.82,-128.75 560.9,-134.48 571.44,-135.56 569.82,-128.75"/>
</g>
<!-- Node8 -->
<g id="node8" class="node">
<title>Node8</title>
<g id="a_node8"><a xlink:href="itkParametricBlindLeastSquaresDeconvolutionImageFilter_8h.html" target="_top" xlink:title=" ">
<polygon fill="white" stroke="black" points="870,-67.5 870,-97.5 1042,-97.5 1042,-67.5 870,-67.5"/>
<text text-anchor="start" x="878" y="-85.5" font-family="Helvetica,sans-Serif" font-size="10.00">itkParametricBlindLeastSquares</text>
<text text-anchor="middle" x="956" y="-74.5" font-family="Helvetica,sans-Serif" font-size="10.00">DeconvolutionImageFilter.h</text>
</a>
</g>
</g>
<!-- Node1&#45;&gt;Node8 -->
<g id="edge7" class="edge">
<title>Node1&#45;&gt;Node8</title>
<path fill="none" stroke="midnightblue" d="M584.6,-137.16C657.39,-127.1 766.28,-111.89 861,-98 863.89,-97.58 866.83,-97.14 869.79,-96.7"/>
<polygon fill="midnightblue" stroke="midnightblue" points="584,-133.71 574.58,-138.54 584.96,-140.64 584,-133.71"/>
</g>
<!-- Node7 -->
<g id="node7" class="node">
<title>Node7</title>
<g id="a_node7"><a xlink:href="itkProjectedLandweberDeconvolutionImageFilter_8h.html" target="_top" xlink:title=" ">
<polygon fill="white" stroke="black" points="675.5,-0.5 675.5,-30.5 874.5,-30.5 874.5,-0.5 675.5,-0.5"/>
<text text-anchor="start" x="683.5" y="-18.5" font-family="Helvetica,sans-Serif" font-size="10.00">itkProjectedLandweberDeconvolution</text>
<text text-anchor="middle" x="775" y="-7.5" font-family="Helvetica,sans-Serif" font-size="10.00">ImageFilter.h</text>
</a>
</g>
</g>
<!-- Node6&#45;&gt;Node7 -->
<g id="edge6" class="edge">
<title>Node6&#45;&gt;Node7</title>
<path fill="none" stroke="midnightblue" d="M775,-57.11C775,-48.15 775,-38.32 775,-30.58"/>
<polygon fill="midnightblue" stroke="midnightblue" points="771.5,-57.4 775,-67.4 778.5,-57.4 771.5,-57.4"/>
</g>
</g>
</svg>
