<?xml version="1.0" encoding="UTF-8" standalone="no"?>
<!DOCTYPE svg PUBLIC "-//W3C//DTD SVG 1.1//EN"
 "http://www.w3.org/Graphics/SVG/1.1/DTD/svg11.dtd">
<!-- Generated by graphviz version 2.43.0 (0)
 -->
<!-- Title: itkVectorLinearInterpolateImageFunction.h Pages: 1 -->
<svg width="2349pt" height="307pt"
 viewBox="0.00 0.00 2348.50 307.00" xmlns="http://www.w3.org/2000/svg" xmlns:xlink="http://www.w3.org/1999/xlink">
<g id="graph0" class="graph" transform="scale(1 1) rotate(0) translate(4 303)">
<title>itkVectorLinearInterpolateImageFunction.h</title>
<polygon fill="white" stroke="transparent" points="-4,4 -4,-303 2344.5,-303 2344.5,4 -4,4"/>
<!-- Node1 -->
<g id="node1" class="node">
<title>Node1</title>
<g id="a_node1"><a xlink:title=" ">
<polygon fill="#bfbfbf" stroke="black" points="1194.5,-268.5 1194.5,-298.5 1337.5,-298.5 1337.5,-268.5 1194.5,-268.5"/>
<text text-anchor="start" x="1202.5" y="-286.5" font-family="Helvetica,sans-Serif" font-size="10.00">itkVectorLinearInterpolate</text>
<text text-anchor="middle" x="1266" y="-275.5" font-family="Helvetica,sans-Serif" font-size="10.00">ImageFunction.h</text>
</a>
</g>
</g>
<!-- Node2 -->
<g id="node2" class="node">
<title>Node2</title>
<g id="a_node2"><a xlink:href="itkWarpVectorImageFilter_8h.html" target="_top" xlink:title=" ">
<polygon fill="white" stroke="black" points="396.5,-207 396.5,-226 545.5,-226 545.5,-207 396.5,-207"/>
<text text-anchor="middle" x="471" y="-214" font-family="Helvetica,sans-Serif" font-size="10.00">itkWarpVectorImageFilter.h</text>
</a>
</g>
</g>
<!-- Node1&#45;&gt;Node2 -->
<g id="edge1" class="edge">
<title>Node1&#45;&gt;Node2</title>
<path fill="none" stroke="midnightblue" d="M1184,-275.8C1028.96,-263.12 695.03,-235.82 545.76,-223.61"/>
<polygon fill="midnightblue" stroke="midnightblue" points="1184.15,-279.32 1194.4,-276.65 1184.72,-272.34 1184.15,-279.32"/>
</g>
<!-- Node7 -->
<g id="node7" class="node">
<title>Node7</title>
<g id="a_node7"><a xlink:href="itkVectorExpandImageFilter_8h.html" target="_top" xlink:title=" ">
<polygon fill="white" stroke="black" points="1090,-207 1090,-226 1250,-226 1250,-207 1090,-207"/>
<text text-anchor="middle" x="1170" y="-214" font-family="Helvetica,sans-Serif" font-size="10.00">itkVectorExpandImageFilter.h</text>
</a>
</g>
</g>
<!-- Node1&#45;&gt;Node7 -->
<g id="edge6" class="edge">
<title>Node1&#45;&gt;Node7</title>
<path fill="none" stroke="midnightblue" d="M1236.67,-262.64C1218.55,-250.37 1196.23,-235.26 1182.56,-226.01"/>
<polygon fill="midnightblue" stroke="midnightblue" points="1234.93,-265.69 1245.17,-268.4 1238.85,-259.89 1234.93,-265.69"/>
</g>
<!-- Node8 -->
<g id="node8" class="node">
<title>Node8</title>
<g id="a_node8"><a xlink:href="itkSegmentationLevelSetFunction_8h.html" target="_top" xlink:title=" ">
<polygon fill="white" stroke="black" points="1268,-207 1268,-226 1458,-226 1458,-207 1268,-207"/>
<text text-anchor="middle" x="1363" y="-214" font-family="Helvetica,sans-Serif" font-size="10.00">itkSegmentationLevelSetFunction.h</text>
</a>
</g>
</g>
<!-- Node1&#45;&gt;Node8 -->
<g id="edge7" class="edge">
<title>Node1&#45;&gt;Node8</title>
<path fill="none" stroke="midnightblue" d="M1295.64,-262.64C1313.94,-250.37 1336.49,-235.26 1350.3,-226.01"/>
<polygon fill="midnightblue" stroke="midnightblue" points="1293.41,-259.92 1287.05,-268.4 1297.3,-265.74 1293.41,-259.92"/>
</g>
<!-- Node31 -->
<g id="node31" class="node">
<title>Node31</title>
<g id="a_node31"><a xlink:href="itkInvertDisplacementFieldImageFilter_8h.html" target="_top" xlink:title=" ">
<polygon fill="white" stroke="black" points="1476.5,-201.5 1476.5,-231.5 1625.5,-231.5 1625.5,-201.5 1476.5,-201.5"/>
<text text-anchor="start" x="1484.5" y="-219.5" font-family="Helvetica,sans-Serif" font-size="10.00">itkInvertDisplacementField</text>
<text text-anchor="middle" x="1551" y="-208.5" font-family="Helvetica,sans-Serif" font-size="10.00">ImageFilter.h</text>
</a>
</g>
</g>
<!-- Node1&#45;&gt;Node31 -->
<g id="edge41" class="edge">
<title>Node1&#45;&gt;Node31</title>
<path fill="none" stroke="midnightblue" d="M1337.53,-266.19C1384.21,-255.54 1444.52,-241.78 1489.13,-231.61"/>
<polygon fill="midnightblue" stroke="midnightblue" points="1336.46,-262.84 1327.49,-268.48 1338.02,-269.66 1336.46,-262.84"/>
</g>
<!-- Node3 -->
<g id="node3" class="node">
<title>Node3</title>
<g id="a_node3"><a xlink:href="itkExponentialDisplacementFieldImageFilter_8h.html" target="_top" xlink:title=" ">
<polygon fill="white" stroke="black" points="210.5,-134.5 210.5,-164.5 365.5,-164.5 365.5,-134.5 210.5,-134.5"/>
<text text-anchor="start" x="218.5" y="-152.5" font-family="Helvetica,sans-Serif" font-size="10.00">itkExponentialDisplacement</text>
<text text-anchor="middle" x="288" y="-141.5" font-family="Helvetica,sans-Serif" font-size="10.00">FieldImageFilter.h</text>
</a>
</g>
</g>
<!-- Node2&#45;&gt;Node3 -->
<g id="edge2" class="edge">
<title>Node2&#45;&gt;Node3</title>
<path fill="none" stroke="midnightblue" d="M437.19,-203.49C406.16,-192.47 360.19,-176.14 327.49,-164.53"/>
<polygon fill="midnightblue" stroke="midnightblue" points="436.1,-206.82 446.7,-206.87 438.45,-200.22 436.1,-206.82"/>
</g>
<!-- Node6 -->
<g id="node6" class="node">
<title>Node6</title>
<g id="a_node6"><a xlink:href="itkIterativeInverseDisplacementFieldImageFilter_8h.html" target="_top" xlink:title=" ">
<polygon fill="white" stroke="black" points="384,-134.5 384,-164.5 558,-164.5 558,-134.5 384,-134.5"/>
<text text-anchor="start" x="392" y="-152.5" font-family="Helvetica,sans-Serif" font-size="10.00">itkIterativeInverseDisplacement</text>
<text text-anchor="middle" x="471" y="-141.5" font-family="Helvetica,sans-Serif" font-size="10.00">FieldImageFilter.h</text>
</a>
</g>
</g>
<!-- Node2&#45;&gt;Node6 -->
<g id="edge5" class="edge">
<title>Node2&#45;&gt;Node6</title>
<path fill="none" stroke="midnightblue" d="M471,-196.41C471,-186.22 471,-173.9 471,-164.59"/>
<polygon fill="midnightblue" stroke="midnightblue" points="467.5,-196.73 471,-206.73 474.5,-196.73 467.5,-196.73"/>
</g>
<!-- Node4 -->
<g id="node4" class="node">
<title>Node4</title>
<g id="a_node4"><a xlink:href="itkDiffeomorphicDemonsRegistrationFilter_8h.html" target="_top" xlink:title=" ">
<polygon fill="white" stroke="black" points="192,-67.5 192,-97.5 390,-97.5 390,-67.5 192,-67.5"/>
<text text-anchor="start" x="200" y="-85.5" font-family="Helvetica,sans-Serif" font-size="10.00">itkDiffeomorphicDemonsRegistration</text>
<text text-anchor="middle" x="291" y="-74.5" font-family="Helvetica,sans-Serif" font-size="10.00">Filter.h</text>
</a>
</g>
</g>
<!-- Node3&#45;&gt;Node4 -->
<g id="edge3" class="edge">
<title>Node3&#45;&gt;Node4</title>
<path fill="none" stroke="midnightblue" d="M289.11,-124.4C289.53,-115.37 289.99,-105.41 290.35,-97.58"/>
<polygon fill="midnightblue" stroke="midnightblue" points="285.62,-124.25 288.65,-134.4 292.61,-124.57 285.62,-124.25"/>
</g>
<!-- Node5 -->
<g id="node5" class="node">
<title>Node5</title>
<g id="a_node5"><a xlink:href="itkFastSymmetricForcesDemonsRegistrationFilter_8h.html" target="_top" xlink:title=" ">
<polygon fill="white" stroke="black" points="0,-67.5 0,-97.5 174,-97.5 174,-67.5 0,-67.5"/>
<text text-anchor="start" x="8" y="-85.5" font-family="Helvetica,sans-Serif" font-size="10.00">itkFastSymmetricForcesDemons</text>
<text text-anchor="middle" x="87" y="-74.5" font-family="Helvetica,sans-Serif" font-size="10.00">RegistrationFilter.h</text>
</a>
</g>
</g>
<!-- Node3&#45;&gt;Node5 -->
<g id="edge4" class="edge">
<title>Node3&#45;&gt;Node5</title>
<path fill="none" stroke="midnightblue" d="M234.59,-131.23C202.07,-120.71 161.06,-107.45 130.53,-97.58"/>
<polygon fill="midnightblue" stroke="midnightblue" points="233.79,-134.65 244.39,-134.4 235.95,-127.99 233.79,-134.65"/>
</g>
<!-- Node9 -->
<g id="node9" class="node">
<title>Node9</title>
<g id="a_node9"><a xlink:href="itkCannySegmentationLevelSetFunction_8h.html" target="_top" xlink:title=" ">
<polygon fill="white" stroke="black" points="1104.5,-134.5 1104.5,-164.5 1259.5,-164.5 1259.5,-134.5 1104.5,-134.5"/>
<text text-anchor="start" x="1112.5" y="-152.5" font-family="Helvetica,sans-Serif" font-size="10.00">itkCannySegmentationLevel</text>
<text text-anchor="middle" x="1182" y="-141.5" font-family="Helvetica,sans-Serif" font-size="10.00">SetFunction.h</text>
</a>
</g>
</g>
<!-- Node8&#45;&gt;Node9 -->
<g id="edge8" class="edge">
<title>Node8&#45;&gt;Node9</title>
<path fill="none" stroke="midnightblue" d="M1329.16,-203.35C1298.48,-192.33 1253.27,-176.09 1221.06,-164.53"/>
<polygon fill="midnightblue" stroke="midnightblue" points="1328.37,-206.78 1338.96,-206.87 1330.74,-200.19 1328.37,-206.78"/>
</g>
<!-- Node11 -->
<g id="node11" class="node">
<title>Node11</title>
<g id="a_node11"><a xlink:href="itkSegmentationLevelSetImageFilter_8h.html" target="_top" xlink:title=" ">
<polygon fill="white" stroke="black" points="1278,-134.5 1278,-164.5 1448,-164.5 1448,-134.5 1278,-134.5"/>
<text text-anchor="start" x="1286" y="-152.5" font-family="Helvetica,sans-Serif" font-size="10.00">itkSegmentationLevelSetImage</text>
<text text-anchor="middle" x="1363" y="-141.5" font-family="Helvetica,sans-Serif" font-size="10.00">Filter.h</text>
</a>
</g>
</g>
<!-- Node8&#45;&gt;Node11 -->
<g id="edge10" class="edge">
<title>Node8&#45;&gt;Node11</title>
<path fill="none" stroke="midnightblue" d="M1363,-196.41C1363,-186.22 1363,-173.9 1363,-164.59"/>
<polygon fill="midnightblue" stroke="midnightblue" points="1359.5,-196.73 1363,-206.73 1366.5,-196.73 1359.5,-196.73"/>
</g>
<!-- Node20 -->
<g id="node20" class="node">
<title>Node20</title>
<g id="a_node20"><a xlink:href="itkCurvesLevelSetFunction_8h.html" target="_top" xlink:title=" ">
<polygon fill="white" stroke="black" points="1954.5,-140 1954.5,-159 2109.5,-159 2109.5,-140 1954.5,-140"/>
<text text-anchor="middle" x="2032" y="-147" font-family="Helvetica,sans-Serif" font-size="10.00">itkCurvesLevelSetFunction.h</text>
</a>
</g>
</g>
<!-- Node8&#45;&gt;Node20 -->
<g id="edge20" class="edge">
<title>Node8&#45;&gt;Node20</title>
<path fill="none" stroke="midnightblue" d="M1429.88,-205.63C1442.52,-203.95 1455.66,-202.32 1468,-201 1679.4,-178.45 1733.93,-190.5 1945,-165 1958.23,-163.4 1972.51,-161.22 1985.61,-159.03"/>
<polygon fill="midnightblue" stroke="midnightblue" points="1429.31,-202.18 1419.87,-206.99 1430.25,-209.12 1429.31,-202.18"/>
</g>
<!-- Node22 -->
<g id="node22" class="node">
<title>Node22</title>
<g id="a_node22"><a xlink:href="itkGeodesicActiveContourLevelSetFunction_8h.html" target="_top" xlink:title=" ">
<polygon fill="white" stroke="black" points="1466.5,-134.5 1466.5,-164.5 1609.5,-164.5 1609.5,-134.5 1466.5,-134.5"/>
<text text-anchor="start" x="1474.5" y="-152.5" font-family="Helvetica,sans-Serif" font-size="10.00">itkGeodesicActiveContour</text>
<text text-anchor="middle" x="1538" y="-141.5" font-family="Helvetica,sans-Serif" font-size="10.00">LevelSetFunction.h</text>
</a>
</g>
</g>
<!-- Node8&#45;&gt;Node22 -->
<g id="edge23" class="edge">
<title>Node8&#45;&gt;Node22</title>
<path fill="none" stroke="midnightblue" d="M1395.72,-203.35C1425.38,-192.33 1469.1,-176.09 1500.23,-164.53"/>
<polygon fill="midnightblue" stroke="midnightblue" points="1394.39,-200.11 1386.24,-206.87 1396.83,-206.67 1394.39,-200.11"/>
</g>
<!-- Node23 -->
<g id="node23" class="node">
<title>Node23</title>
<g id="a_node23"><a xlink:href="itkShapePriorSegmentationLevelSetFunction_8h.html" target="_top" xlink:title=" ">
<polygon fill="white" stroke="black" points="576,-134.5 576,-164.5 726,-164.5 726,-134.5 576,-134.5"/>
<text text-anchor="start" x="584" y="-152.5" font-family="Helvetica,sans-Serif" font-size="10.00">itkShapePriorSegmentation</text>
<text text-anchor="middle" x="651" y="-141.5" font-family="Helvetica,sans-Serif" font-size="10.00">LevelSetFunction.h</text>
</a>
</g>
</g>
<!-- Node8&#45;&gt;Node23 -->
<g id="edge25" class="edge">
<title>Node8&#45;&gt;Node23</title>
<path fill="none" stroke="midnightblue" d="M1297.21,-205.62C1284.55,-203.92 1271.38,-202.29 1259,-201 1026.81,-176.87 966.77,-192.89 735,-165 732.06,-164.65 729.07,-164.26 726.05,-163.85"/>
<polygon fill="midnightblue" stroke="midnightblue" points="1296.84,-209.1 1307.22,-206.99 1297.79,-202.17 1296.84,-209.1"/>
</g>
<!-- Node25 -->
<g id="node25" class="node">
<title>Node25</title>
<g id="a_node25"><a xlink:href="itkLaplacianSegmentationLevelSetFunction_8h.html" target="_top" xlink:title=" ">
<polygon fill="white" stroke="black" points="1628,-134.5 1628,-164.5 1772,-164.5 1772,-134.5 1628,-134.5"/>
<text text-anchor="start" x="1636" y="-152.5" font-family="Helvetica,sans-Serif" font-size="10.00">itkLaplacianSegmentation</text>
<text text-anchor="middle" x="1700" y="-141.5" font-family="Helvetica,sans-Serif" font-size="10.00">LevelSetFunction.h</text>
</a>
</g>
</g>
<!-- Node8&#45;&gt;Node25 -->
<g id="edge29" class="edge">
<title>Node8&#45;&gt;Node25</title>
<path fill="none" stroke="midnightblue" d="M1417.32,-205.02C1474.45,-194 1564.65,-176.61 1627.75,-164.44"/>
<polygon fill="midnightblue" stroke="midnightblue" points="1416.56,-201.6 1407.4,-206.94 1417.89,-208.48 1416.56,-201.6"/>
</g>
<!-- Node26 -->
<g id="node26" class="node">
<title>Node26</title>
<g id="a_node26"><a xlink:href="itkNarrowBandLevelSetImageFilter_8h.html" target="_top" xlink:title=" ">
<polygon fill="white" stroke="black" points="2128,-134.5 2128,-164.5 2290,-164.5 2290,-134.5 2128,-134.5"/>
<text text-anchor="start" x="2136" y="-152.5" font-family="Helvetica,sans-Serif" font-size="10.00">itkNarrowBandLevelSetImage</text>
<text text-anchor="middle" x="2209" y="-141.5" font-family="Helvetica,sans-Serif" font-size="10.00">Filter.h</text>
</a>
</g>
</g>
<!-- Node8&#45;&gt;Node26 -->
<g id="edge31" class="edge">
<title>Node8&#45;&gt;Node26</title>
<path fill="none" stroke="midnightblue" d="M1428.75,-205.58C1441.74,-203.86 1455.28,-202.23 1468,-201 1756.43,-173.16 1830.9,-196.09 2119,-165 2121.83,-164.69 2124.71,-164.36 2127.62,-164"/>
<polygon fill="midnightblue" stroke="midnightblue" points="1427.92,-202.16 1418.48,-206.97 1428.86,-209.09 1427.92,-202.16"/>
</g>
<!-- Node28 -->
<g id="node28" class="node">
<title>Node28</title>
<g id="a_node28"><a xlink:href="itkThresholdSegmentationLevelSetFunction_8h.html" target="_top" xlink:title=" ">
<polygon fill="white" stroke="black" points="1790,-134.5 1790,-164.5 1936,-164.5 1936,-134.5 1790,-134.5"/>
<text text-anchor="start" x="1798" y="-152.5" font-family="Helvetica,sans-Serif" font-size="10.00">itkThresholdSegmentation</text>
<text text-anchor="middle" x="1863" y="-141.5" font-family="Helvetica,sans-Serif" font-size="10.00">LevelSetFunction.h</text>
</a>
</g>
</g>
<!-- Node8&#45;&gt;Node28 -->
<g id="edge34" class="edge">
<title>Node8&#45;&gt;Node28</title>
<path fill="none" stroke="midnightblue" d="M1433.08,-205.6C1444.73,-204.01 1456.7,-202.43 1468,-201 1606.92,-183.42 1642.44,-185.2 1781,-165 1783.86,-164.58 1786.78,-164.14 1789.72,-163.68"/>
<polygon fill="midnightblue" stroke="midnightblue" points="1432.37,-202.16 1422.94,-206.98 1433.32,-209.1 1432.37,-202.16"/>
</g>
<!-- Node29 -->
<g id="node29" class="node">
<title>Node29</title>
<g id="a_node29"><a xlink:href="itkShapeDetectionLevelSetFunction_8h.html" target="_top" xlink:title=" ">
<polygon fill="white" stroke="black" points="743.5,-134.5 743.5,-164.5 892.5,-164.5 892.5,-134.5 743.5,-134.5"/>
<text text-anchor="start" x="751.5" y="-152.5" font-family="Helvetica,sans-Serif" font-size="10.00">itkShapeDetectionLevelSet</text>
<text text-anchor="middle" x="818" y="-141.5" font-family="Helvetica,sans-Serif" font-size="10.00">Function.h</text>
</a>
</g>
</g>
<!-- Node8&#45;&gt;Node29 -->
<g id="edge37" class="edge">
<title>Node8&#45;&gt;Node29</title>
<path fill="none" stroke="midnightblue" d="M1294.83,-205.62C1282.9,-203.99 1270.6,-202.39 1259,-201 1100.22,-181.96 1059.42,-186.77 901,-165 898.25,-164.62 895.44,-164.22 892.62,-163.8"/>
<polygon fill="midnightblue" stroke="midnightblue" points="1294.36,-209.08 1304.75,-206.98 1295.32,-202.15 1294.36,-209.08"/>
</g>
<!-- Node30 -->
<g id="node30" class="node">
<title>Node30</title>
<g id="a_node30"><a xlink:href="itkVectorThresholdSegmentationLevelSetFunction_8h.html" target="_top" xlink:title=" ">
<polygon fill="white" stroke="black" points="910,-134.5 910,-164.5 1086,-164.5 1086,-134.5 910,-134.5"/>
<text text-anchor="start" x="918" y="-152.5" font-family="Helvetica,sans-Serif" font-size="10.00">itkVectorThresholdSegmentation</text>
<text text-anchor="middle" x="998" y="-141.5" font-family="Helvetica,sans-Serif" font-size="10.00">LevelSetFunction.h</text>
</a>
</g>
</g>
<!-- Node8&#45;&gt;Node30 -->
<g id="edge39" class="edge">
<title>Node8&#45;&gt;Node30</title>
<path fill="none" stroke="midnightblue" d="M1304.96,-205.16C1243.34,-194.19 1145.55,-176.78 1076.95,-164.56"/>
<polygon fill="midnightblue" stroke="midnightblue" points="1304.45,-208.63 1314.91,-206.94 1305.68,-201.74 1304.45,-208.63"/>
</g>
<!-- Node10 -->
<g id="node10" class="node">
<title>Node10</title>
<g id="a_node10"><a xlink:href="itkCannySegmentationLevelSetImageFilter_8h.html" target="_top" xlink:title=" ">
<polygon fill="white" stroke="black" points="1118.5,-67.5 1118.5,-97.5 1273.5,-97.5 1273.5,-67.5 1118.5,-67.5"/>
<text text-anchor="start" x="1126.5" y="-85.5" font-family="Helvetica,sans-Serif" font-size="10.00">itkCannySegmentationLevel</text>
<text text-anchor="middle" x="1196" y="-74.5" font-family="Helvetica,sans-Serif" font-size="10.00">SetImageFilter.h</text>
</a>
</g>
</g>
<!-- Node9&#45;&gt;Node10 -->
<g id="edge9" class="edge">
<title>Node9&#45;&gt;Node10</title>
<path fill="none" stroke="midnightblue" d="M1187.19,-124.4C1189.14,-115.37 1191.28,-105.41 1192.97,-97.58"/>
<polygon fill="midnightblue" stroke="midnightblue" points="1183.72,-123.88 1185.04,-134.4 1190.56,-125.36 1183.72,-123.88"/>
</g>
<!-- Node11&#45;&gt;Node10 -->
<g id="edge11" class="edge">
<title>Node11&#45;&gt;Node10</title>
<path fill="none" stroke="midnightblue" d="M1317.22,-130.68C1290.44,-120.26 1257.1,-107.28 1232.17,-97.58"/>
<polygon fill="midnightblue" stroke="midnightblue" points="1316.17,-134.03 1326.76,-134.4 1318.71,-127.51 1316.17,-134.03"/>
</g>
<!-- Node12 -->
<g id="node12" class="node">
<title>Node12</title>
<g id="a_node12"><a xlink:href="itkCurvesLevelSetImageFilter_8h.html" target="_top" xlink:title=" ">
<polygon fill="white" stroke="black" points="1779.5,-73 1779.5,-92 1948.5,-92 1948.5,-73 1779.5,-73"/>
<text text-anchor="middle" x="1864" y="-80" font-family="Helvetica,sans-Serif" font-size="10.00">itkCurvesLevelSetImageFilter.h</text>
</a>
</g>
</g>
<!-- Node11&#45;&gt;Node12 -->
<g id="edge12" class="edge">
<title>Node11&#45;&gt;Node12</title>
<path fill="none" stroke="midnightblue" d="M1458.41,-133.98C1598.06,-115.51 1634.91,-116.21 1770,-98 1783.26,-96.21 1797.53,-94.11 1810.86,-92.06"/>
<polygon fill="midnightblue" stroke="midnightblue" points="1457.62,-130.56 1448.17,-135.35 1458.55,-137.49 1457.62,-130.56"/>
</g>
<!-- Node13 -->
<g id="node13" class="node">
<title>Node13</title>
<g id="a_node13"><a xlink:href="itkGeodesicActiveContourLevelSetImageFilter_8h.html" target="_top" xlink:title=" ">
<polygon fill="white" stroke="black" points="1291.5,-67.5 1291.5,-97.5 1434.5,-97.5 1434.5,-67.5 1291.5,-67.5"/>
<text text-anchor="start" x="1299.5" y="-85.5" font-family="Helvetica,sans-Serif" font-size="10.00">itkGeodesicActiveContour</text>
<text text-anchor="middle" x="1363" y="-74.5" font-family="Helvetica,sans-Serif" font-size="10.00">LevelSetImageFilter.h</text>
</a>
</g>
</g>
<!-- Node11&#45;&gt;Node13 -->
<g id="edge13" class="edge">
<title>Node11&#45;&gt;Node13</title>
<path fill="none" stroke="midnightblue" d="M1363,-124.11C1363,-115.15 1363,-105.32 1363,-97.58"/>
<polygon fill="midnightblue" stroke="midnightblue" points="1359.5,-124.4 1363,-134.4 1366.5,-124.4 1359.5,-124.4"/>
</g>
<!-- Node14 -->
<g id="node14" class="node">
<title>Node14</title>
<g id="a_node14"><a xlink:href="itkShapePriorSegmentationLevelSetImageFilter_8h.html" target="_top" xlink:title=" ">
<polygon fill="white" stroke="black" points="590,-67.5 590,-97.5 740,-97.5 740,-67.5 590,-67.5"/>
<text text-anchor="start" x="598" y="-85.5" font-family="Helvetica,sans-Serif" font-size="10.00">itkShapePriorSegmentation</text>
<text text-anchor="middle" x="665" y="-74.5" font-family="Helvetica,sans-Serif" font-size="10.00">LevelSetImageFilter.h</text>
</a>
</g>
</g>
<!-- Node11&#45;&gt;Node14 -->
<g id="edge14" class="edge">
<title>Node11&#45;&gt;Node14</title>
<path fill="none" stroke="midnightblue" d="M1267.93,-133.95C1037.04,-108.8 975.74,-125.35 749,-98 746.06,-97.65 743.07,-97.26 740.05,-96.84"/>
<polygon fill="midnightblue" stroke="midnightblue" points="1267.66,-137.44 1277.99,-135.06 1268.43,-130.48 1267.66,-137.44"/>
</g>
<!-- Node16 -->
<g id="node16" class="node">
<title>Node16</title>
<g id="a_node16"><a xlink:href="itkLaplacianSegmentationLevelSetImageFilter_8h.html" target="_top" xlink:title=" ">
<polygon fill="white" stroke="black" points="1453,-67.5 1453,-97.5 1597,-97.5 1597,-67.5 1453,-67.5"/>
<text text-anchor="start" x="1461" y="-85.5" font-family="Helvetica,sans-Serif" font-size="10.00">itkLaplacianSegmentation</text>
<text text-anchor="middle" x="1525" y="-74.5" font-family="Helvetica,sans-Serif" font-size="10.00">LevelSetImageFilter.h</text>
</a>
</g>
</g>
<!-- Node11&#45;&gt;Node16 -->
<g id="edge16" class="edge">
<title>Node11&#45;&gt;Node16</title>
<path fill="none" stroke="midnightblue" d="M1407.75,-130.54C1433.67,-120.14 1465.84,-107.24 1489.92,-97.58"/>
<polygon fill="midnightblue" stroke="midnightblue" points="1406.13,-127.42 1398.15,-134.4 1408.74,-133.92 1406.13,-127.42"/>
</g>
<!-- Node17 -->
<g id="node17" class="node">
<title>Node17</title>
<g id="a_node17"><a xlink:href="itkShapeDetectionLevelSetImageFilter_8h.html" target="_top" xlink:title=" ">
<polygon fill="white" stroke="black" points="757.5,-67.5 757.5,-97.5 906.5,-97.5 906.5,-67.5 757.5,-67.5"/>
<text text-anchor="start" x="765.5" y="-85.5" font-family="Helvetica,sans-Serif" font-size="10.00">itkShapeDetectionLevelSet</text>
<text text-anchor="middle" x="832" y="-74.5" font-family="Helvetica,sans-Serif" font-size="10.00">ImageFilter.h</text>
</a>
</g>
</g>
<!-- Node11&#45;&gt;Node17 -->
<g id="edge17" class="edge">
<title>Node11&#45;&gt;Node17</title>
<path fill="none" stroke="midnightblue" d="M1267.93,-133.91C1110.42,-114.16 1068.45,-119.18 915,-98 912.25,-97.62 909.45,-97.22 906.62,-96.8"/>
<polygon fill="midnightblue" stroke="midnightblue" points="1267.61,-137.4 1277.97,-135.18 1268.49,-130.45 1267.61,-137.4"/>
</g>
<!-- Node18 -->
<g id="node18" class="node">
<title>Node18</title>
<g id="a_node18"><a xlink:href="itkThresholdSegmentationLevelSetImageFilter_8h.html" target="_top" xlink:title=" ">
<polygon fill="white" stroke="black" points="1615,-67.5 1615,-97.5 1761,-97.5 1761,-67.5 1615,-67.5"/>
<text text-anchor="start" x="1623" y="-85.5" font-family="Helvetica,sans-Serif" font-size="10.00">itkThresholdSegmentation</text>
<text text-anchor="middle" x="1688" y="-74.5" font-family="Helvetica,sans-Serif" font-size="10.00">LevelSetImageFilter.h</text>
</a>
</g>
</g>
<!-- Node11&#45;&gt;Node18 -->
<g id="edge18" class="edge">
<title>Node11&#45;&gt;Node18</title>
<path fill="none" stroke="midnightblue" d="M1443.25,-132.45C1496.76,-121.75 1566.41,-107.82 1617.73,-97.55"/>
<polygon fill="midnightblue" stroke="midnightblue" points="1442.24,-129.08 1433.12,-134.48 1443.61,-135.95 1442.24,-129.08"/>
</g>
<!-- Node19 -->
<g id="node19" class="node">
<title>Node19</title>
<g id="a_node19"><a xlink:href="itkVectorThresholdSegmentationLevelSetImageFilter_8h.html" target="_top" xlink:title=" ">
<polygon fill="white" stroke="black" points="924,-67.5 924,-97.5 1100,-97.5 1100,-67.5 924,-67.5"/>
<text text-anchor="start" x="932" y="-85.5" font-family="Helvetica,sans-Serif" font-size="10.00">itkVectorThresholdSegmentation</text>
<text text-anchor="middle" x="1012" y="-74.5" font-family="Helvetica,sans-Serif" font-size="10.00">LevelSetImageFilter.h</text>
</a>
</g>
</g>
<!-- Node11&#45;&gt;Node19 -->
<g id="edge19" class="edge">
<title>Node11&#45;&gt;Node19</title>
<path fill="none" stroke="midnightblue" d="M1277.4,-132.65C1219.48,-121.92 1143.66,-107.88 1087.9,-97.55"/>
<polygon fill="midnightblue" stroke="midnightblue" points="1276.8,-136.1 1287.27,-134.48 1278.07,-129.21 1276.8,-136.1"/>
</g>
<!-- Node15 -->
<g id="node15" class="node">
<title>Node15</title>
<g id="a_node15"><a xlink:href="itkGeodesicActiveContourShapePriorLevelSetImageFilter_8h.html" target="_top" xlink:title=" ">
<polygon fill="white" stroke="black" points="490.5,-0.5 490.5,-30.5 665.5,-30.5 665.5,-0.5 490.5,-0.5"/>
<text text-anchor="start" x="498.5" y="-18.5" font-family="Helvetica,sans-Serif" font-size="10.00">itkGeodesicActiveContour</text>
<text text-anchor="middle" x="578" y="-7.5" font-family="Helvetica,sans-Serif" font-size="10.00">ShapePriorLevelSetImageFilter.h</text>
</a>
</g>
</g>
<!-- Node14&#45;&gt;Node15 -->
<g id="edge15" class="edge">
<title>Node14&#45;&gt;Node15</title>
<path fill="none" stroke="midnightblue" d="M637.79,-61.17C624.48,-51.23 608.8,-39.51 596.84,-30.58"/>
<polygon fill="midnightblue" stroke="midnightblue" points="636.02,-64.21 646.12,-67.4 640.21,-58.61 636.02,-64.21"/>
</g>
<!-- Node20&#45;&gt;Node12 -->
<g id="edge21" class="edge">
<title>Node20&#45;&gt;Node12</title>
<path fill="none" stroke="midnightblue" d="M1999.96,-136.1C1966.61,-123.2 1915.25,-103.33 1886.13,-92.06"/>
<polygon fill="midnightblue" stroke="midnightblue" points="1999.1,-139.52 2009.69,-139.87 2001.63,-133 1999.1,-139.52"/>
</g>
<!-- Node21 -->
<g id="node21" class="node">
<title>Node21</title>
<g id="a_node21"><a xlink:href="itkNarrowBandCurvesLevelSetImageFilter_8h.html" target="_top" xlink:title=" ">
<polygon fill="white" stroke="black" points="2191.5,-67.5 2191.5,-97.5 2340.5,-97.5 2340.5,-67.5 2191.5,-67.5"/>
<text text-anchor="start" x="2199.5" y="-85.5" font-family="Helvetica,sans-Serif" font-size="10.00">itkNarrowBandCurvesLevel</text>
<text text-anchor="middle" x="2266" y="-74.5" font-family="Helvetica,sans-Serif" font-size="10.00">SetImageFilter.h</text>
</a>
</g>
</g>
<!-- Node20&#45;&gt;Node21 -->
<g id="edge22" class="edge">
<title>Node20&#45;&gt;Node21</title>
<path fill="none" stroke="midnightblue" d="M2072.94,-137.13C2112.61,-126.11 2172.87,-109.37 2215.5,-97.53"/>
<polygon fill="midnightblue" stroke="midnightblue" points="2071.77,-133.82 2063.07,-139.87 2073.65,-140.56 2071.77,-133.82"/>
</g>
<!-- Node22&#45;&gt;Node13 -->
<g id="edge24" class="edge">
<title>Node22&#45;&gt;Node13</title>
<path fill="none" stroke="midnightblue" d="M1490.4,-130.82C1462.27,-120.37 1427.14,-107.32 1400.9,-97.58"/>
<polygon fill="midnightblue" stroke="midnightblue" points="1489.43,-134.2 1500.03,-134.4 1491.87,-127.63 1489.43,-134.2"/>
</g>
<!-- Node23&#45;&gt;Node14 -->
<g id="edge28" class="edge">
<title>Node23&#45;&gt;Node14</title>
<path fill="none" stroke="midnightblue" d="M656.19,-124.4C658.14,-115.37 660.28,-105.41 661.97,-97.58"/>
<polygon fill="midnightblue" stroke="midnightblue" points="652.72,-123.88 654.04,-134.4 659.56,-125.36 652.72,-123.88"/>
</g>
<!-- Node24 -->
<g id="node24" class="node">
<title>Node24</title>
<g id="a_node24"><a xlink:href="itkGeodesicActiveContourShapePriorLevelSetFunction_8h.html" target="_top" xlink:title=" ">
<polygon fill="white" stroke="black" points="410.5,-67.5 410.5,-97.5 571.5,-97.5 571.5,-67.5 410.5,-67.5"/>
<text text-anchor="start" x="418.5" y="-85.5" font-family="Helvetica,sans-Serif" font-size="10.00">itkGeodesicActiveContour</text>
<text text-anchor="middle" x="491" y="-74.5" font-family="Helvetica,sans-Serif" font-size="10.00">ShapePriorLevelSetFunction.h</text>
</a>
</g>
</g>
<!-- Node23&#45;&gt;Node24 -->
<g id="edge26" class="edge">
<title>Node23&#45;&gt;Node24</title>
<path fill="none" stroke="midnightblue" d="M606.8,-130.54C581.2,-120.14 549.43,-107.24 525.65,-97.58"/>
<polygon fill="midnightblue" stroke="midnightblue" points="605.7,-133.87 616.28,-134.4 608.34,-127.39 605.7,-133.87"/>
</g>
<!-- Node24&#45;&gt;Node15 -->
<g id="edge27" class="edge">
<title>Node24&#45;&gt;Node15</title>
<path fill="none" stroke="midnightblue" d="M518.21,-61.17C531.52,-51.23 547.2,-39.51 559.16,-30.58"/>
<polygon fill="midnightblue" stroke="midnightblue" points="515.79,-58.61 509.88,-67.4 519.98,-64.21 515.79,-58.61"/>
</g>
<!-- Node25&#45;&gt;Node16 -->
<g id="edge30" class="edge">
<title>Node25&#45;&gt;Node16</title>
<path fill="none" stroke="midnightblue" d="M1652.4,-130.82C1624.27,-120.37 1589.14,-107.32 1562.9,-97.58"/>
<polygon fill="midnightblue" stroke="midnightblue" points="1651.43,-134.2 1662.03,-134.4 1653.87,-127.63 1651.43,-134.2"/>
</g>
<!-- Node26&#45;&gt;Node21 -->
<g id="edge32" class="edge">
<title>Node26&#45;&gt;Node21</title>
<path fill="none" stroke="midnightblue" d="M2228.09,-126.74C2236.52,-117.12 2246.19,-106.09 2253.66,-97.58"/>
<polygon fill="midnightblue" stroke="midnightblue" points="2225.33,-124.57 2221.37,-134.4 2230.59,-129.18 2225.33,-124.57"/>
</g>
<!-- Node27 -->
<g id="node27" class="node">
<title>Node27</title>
<g id="a_node27"><a xlink:href="itkNarrowBandThresholdSegmentationLevelSetImageFilter_8h.html" target="_top" xlink:title=" ">
<polygon fill="white" stroke="black" points="1967,-67.5 1967,-97.5 2173,-97.5 2173,-67.5 1967,-67.5"/>
<text text-anchor="start" x="1975" y="-85.5" font-family="Helvetica,sans-Serif" font-size="10.00">itkNarrowBandThresholdSegmentation</text>
<text text-anchor="middle" x="2070" y="-74.5" font-family="Helvetica,sans-Serif" font-size="10.00">LevelSetImageFilter.h</text>
</a>
</g>
</g>
<!-- Node26&#45;&gt;Node27 -->
<g id="edge33" class="edge">
<title>Node26&#45;&gt;Node27</title>
<path fill="none" stroke="midnightblue" d="M2169.72,-130.13C2147.63,-119.8 2120.49,-107.11 2100.1,-97.58"/>
<polygon fill="midnightblue" stroke="midnightblue" points="2168.3,-133.33 2178.84,-134.4 2171.26,-126.99 2168.3,-133.33"/>
</g>
<!-- Node28&#45;&gt;Node18 -->
<g id="edge36" class="edge">
<title>Node28&#45;&gt;Node18</title>
<path fill="none" stroke="midnightblue" d="M1815.4,-130.82C1787.27,-120.37 1752.14,-107.32 1725.9,-97.58"/>
<polygon fill="midnightblue" stroke="midnightblue" points="1814.43,-134.2 1825.03,-134.4 1816.87,-127.63 1814.43,-134.2"/>
</g>
<!-- Node28&#45;&gt;Node27 -->
<g id="edge35" class="edge">
<title>Node28&#45;&gt;Node27</title>
<path fill="none" stroke="midnightblue" d="M1917.32,-131.44C1950.87,-120.91 1993.41,-107.55 2025.06,-97.61"/>
<polygon fill="midnightblue" stroke="midnightblue" points="1916.15,-128.14 1907.66,-134.48 1918.25,-134.82 1916.15,-128.14"/>
</g>
<!-- Node29&#45;&gt;Node17 -->
<g id="edge38" class="edge">
<title>Node29&#45;&gt;Node17</title>
<path fill="none" stroke="midnightblue" d="M823.19,-124.4C825.14,-115.37 827.28,-105.41 828.97,-97.58"/>
<polygon fill="midnightblue" stroke="midnightblue" points="819.72,-123.88 821.04,-134.4 826.56,-125.36 819.72,-123.88"/>
</g>
<!-- Node30&#45;&gt;Node19 -->
<g id="edge40" class="edge">
<title>Node30&#45;&gt;Node19</title>
<path fill="none" stroke="midnightblue" d="M1003.19,-124.4C1005.14,-115.37 1007.28,-105.41 1008.97,-97.58"/>
<polygon fill="midnightblue" stroke="midnightblue" points="999.72,-123.88 1001.04,-134.4 1006.56,-125.36 999.72,-123.88"/>
</g>
</g>
</svg>
