<?xml version="1.0" encoding="UTF-8" standalone="no"?>
<!DOCTYPE svg PUBLIC "-//W3C//DTD SVG 1.1//EN"
 "http://www.w3.org/Graphics/SVG/1.1/DTD/svg11.dtd">
<!-- Generated by graphviz version 2.43.0 (0)
 -->
<!-- Title: itkVersion.h Pages: 1 -->
<svg width="4493pt" height="620pt"
 viewBox="0.00 0.00 4492.50 620.00" xmlns="http://www.w3.org/2000/svg" xmlns:xlink="http://www.w3.org/1999/xlink">
<g id="graph0" class="graph" transform="scale(1 1) rotate(0) translate(4 616)">
<title>itkVersion.h</title>
<polygon fill="white" stroke="transparent" points="-4,4 -4,-616 4488.5,-616 4488.5,4 -4,4"/>
<!-- Node1 -->
<g id="node1" class="node">
<title>Node1</title>
<g id="a_node1"><a xlink:title=" ">
<polygon fill="#bfbfbf" stroke="black" points="3369,-592.5 3369,-611.5 3443,-611.5 3443,-592.5 3369,-592.5"/>
<text text-anchor="middle" x="3406" y="-599.5" font-family="Helvetica,sans-Serif" font-size="10.00">itkVersion.h</text>
</a>
</g>
</g>
<!-- Node2 -->
<g id="node2" class="node">
<title>Node2</title>
<g id="a_node2"><a xlink:href="itkFFTImageFilterFactory_8h.html" target="_top" xlink:title=" ">
<polygon fill="white" stroke="black" points="1531.5,-531 1531.5,-550 1676.5,-550 1676.5,-531 1531.5,-531"/>
<text text-anchor="middle" x="1604" y="-538" font-family="Helvetica,sans-Serif" font-size="10.00">itkFFTImageFilterFactory.h</text>
</a>
</g>
</g>
<!-- Node1&#45;&gt;Node2 -->
<g id="edge1" class="edge">
<title>Node1&#45;&gt;Node2</title>
<path fill="none" stroke="midnightblue" d="M3358.72,-599.44C3112.4,-591.31 1976.04,-553.78 1676.53,-543.89"/>
<polygon fill="midnightblue" stroke="midnightblue" points="3358.67,-602.94 3368.78,-599.77 3358.9,-595.94 3358.67,-602.94"/>
</g>
<!-- Node19 -->
<g id="node19" class="node">
<title>Node19</title>
<g id="a_node19"><a xlink:href="itkFFTDiscreteGaussianImageFilterFactory_8h.html" target="_top" xlink:title=" ">
<polygon fill="white" stroke="black" points="2816.5,-525.5 2816.5,-555.5 2979.5,-555.5 2979.5,-525.5 2816.5,-525.5"/>
<text text-anchor="start" x="2824.5" y="-543.5" font-family="Helvetica,sans-Serif" font-size="10.00">itkFFTDiscreteGaussianImage</text>
<text text-anchor="middle" x="2898" y="-532.5" font-family="Helvetica,sans-Serif" font-size="10.00">FilterFactory.h</text>
</a>
</g>
</g>
<!-- Node1&#45;&gt;Node19 -->
<g id="edge18" class="edge">
<title>Node1&#45;&gt;Node19</title>
<path fill="none" stroke="midnightblue" d="M3358.43,-596.45C3281.65,-588.95 3125.69,-573.13 2994,-556 2989.32,-555.39 2984.52,-554.74 2979.67,-554.07"/>
<polygon fill="midnightblue" stroke="midnightblue" points="3358.44,-599.96 3368.73,-597.45 3359.11,-593 3358.44,-599.96"/>
</g>
<!-- Node20 -->
<g id="node20" class="node">
<title>Node20</title>
<g id="a_node20"><a xlink:href="itkGPUImage_8h.html" target="_top" xlink:title=" ">
<polygon fill="white" stroke="black" points="3866,-531 3866,-550 3956,-550 3956,-531 3866,-531"/>
<text text-anchor="middle" x="3911" y="-538" font-family="Helvetica,sans-Serif" font-size="10.00">itkGPUImage.h</text>
</a>
</g>
</g>
<!-- Node1&#45;&gt;Node20 -->
<g id="edge19" class="edge">
<title>Node1&#45;&gt;Node20</title>
<path fill="none" stroke="midnightblue" d="M3453.24,-595.43C3550.26,-584 3770.85,-558.01 3865.97,-546.81"/>
<polygon fill="midnightblue" stroke="midnightblue" points="3452.66,-591.98 3443.13,-596.62 3453.47,-598.93 3452.66,-591.98"/>
</g>
<!-- Node34 -->
<g id="node34" class="node">
<title>Node34</title>
<g id="a_node34"><a xlink:href="itkGPUDemonsRegistrationFilter_8h.html" target="_top" xlink:title=" ">
<polygon fill="white" stroke="black" points="2997,-67.5 2997,-97.5 3147,-97.5 3147,-67.5 2997,-67.5"/>
<text text-anchor="start" x="3005" y="-85.5" font-family="Helvetica,sans-Serif" font-size="10.00">itkGPUDemonsRegistration</text>
<text text-anchor="middle" x="3072" y="-74.5" font-family="Helvetica,sans-Serif" font-size="10.00">Filter.h</text>
</a>
</g>
</g>
<!-- Node1&#45;&gt;Node34 -->
<g id="edge58" class="edge">
<title>Node1&#45;&gt;Node34</title>
<path fill="none" stroke="midnightblue" d="M3358.87,-596.09C3253.49,-583.81 3008,-547.39 3008,-474.5 3008,-474.5 3008,-474.5 3008,-215.5 3008,-168.64 3041.06,-120.95 3059.66,-97.83"/>
<polygon fill="midnightblue" stroke="midnightblue" points="3358.58,-599.58 3368.91,-597.24 3359.38,-592.63 3358.58,-599.58"/>
</g>
<!-- Node36 -->
<g id="node36" class="node">
<title>Node36</title>
<g id="a_node36"><a xlink:href="itkGPUMeanImageFilter_8h.html" target="_top" xlink:title=" ">
<polygon fill="white" stroke="black" points="4220.5,-274 4220.5,-293 4361.5,-293 4361.5,-274 4220.5,-274"/>
<text text-anchor="middle" x="4291" y="-281" font-family="Helvetica,sans-Serif" font-size="10.00">itkGPUMeanImageFilter.h</text>
</a>
</g>
</g>
<!-- Node1&#45;&gt;Node36 -->
<g id="edge59" class="edge">
<title>Node1&#45;&gt;Node36</title>
<path fill="none" stroke="midnightblue" d="M3453.25,-599.74C3645.02,-593.99 4355,-566.51 4355,-474.5 4355,-474.5 4355,-474.5 4355,-411 4355,-362.02 4316.33,-312.75 4299.11,-293.24"/>
<polygon fill="midnightblue" stroke="midnightblue" points="3453.09,-596.24 3443.2,-600.03 3453.3,-603.24 3453.09,-596.24"/>
</g>
<!-- Node46 -->
<g id="node46" class="node">
<title>Node46</title>
<g id="a_node46"><a xlink:href="itkRawImageIO_8h.html" target="_top" xlink:title=" ">
<polygon fill="white" stroke="black" points="4383.5,-531 4383.5,-550 4484.5,-550 4484.5,-531 4383.5,-531"/>
<text text-anchor="middle" x="4434" y="-538" font-family="Helvetica,sans-Serif" font-size="10.00">itkRawImageIO.h</text>
</a>
</g>
</g>
<!-- Node1&#45;&gt;Node46 -->
<g id="edge60" class="edge">
<title>Node1&#45;&gt;Node46</title>
<path fill="none" stroke="midnightblue" d="M3453.24,-599.87C3621.17,-595.7 4188.84,-580.12 4369,-556 4379.43,-554.6 4390.66,-552.37 4400.8,-550.07"/>
<polygon fill="midnightblue" stroke="midnightblue" points="3453.13,-596.38 3443.22,-600.12 3453.31,-603.37 3453.13,-596.38"/>
</g>
<!-- Node3 -->
<g id="node3" class="node">
<title>Node3</title>
<g id="a_node3"><a xlink:href="itkFFTWComplexToComplex1DFFTImageFilter_8h.html" target="_top" xlink:title=" ">
<polygon fill="white" stroke="black" points="2054,-458.5 2054,-488.5 2214,-488.5 2214,-458.5 2054,-458.5"/>
<text text-anchor="start" x="2062" y="-476.5" font-family="Helvetica,sans-Serif" font-size="10.00">itkFFTWComplexToComplex1</text>
<text text-anchor="middle" x="2134" y="-465.5" font-family="Helvetica,sans-Serif" font-size="10.00">DFFTImageFilter.h</text>
</a>
</g>
</g>
<!-- Node2&#45;&gt;Node3 -->
<g id="edge2" class="edge">
<title>Node2&#45;&gt;Node3</title>
<path fill="none" stroke="midnightblue" d="M1686.71,-531.21C1775.44,-522.05 1920.42,-506.27 2045,-489 2047.95,-488.59 2050.95,-488.16 2053.97,-487.72"/>
<polygon fill="midnightblue" stroke="midnightblue" points="1686.3,-527.74 1676.71,-532.24 1687.01,-534.7 1686.3,-527.74"/>
</g>
<!-- Node4 -->
<g id="node4" class="node">
<title>Node4</title>
<g id="a_node4"><a xlink:href="itkFFTWComplexToComplexFFTImageFilter_8h.html" target="_top" xlink:title=" ">
<polygon fill="white" stroke="black" points="2232,-458.5 2232,-488.5 2434,-488.5 2434,-458.5 2232,-458.5"/>
<text text-anchor="start" x="2240" y="-476.5" font-family="Helvetica,sans-Serif" font-size="10.00">itkFFTWComplexToComplexFFTImage</text>
<text text-anchor="middle" x="2333" y="-465.5" font-family="Helvetica,sans-Serif" font-size="10.00">Filter.h</text>
</a>
</g>
</g>
<!-- Node2&#45;&gt;Node4 -->
<g id="edge3" class="edge">
<title>Node2&#45;&gt;Node4</title>
<path fill="none" stroke="midnightblue" d="M1686.65,-534.07C1805.45,-525.96 2031.31,-509.44 2223,-489 2225.87,-488.69 2228.79,-488.37 2231.73,-488.04"/>
<polygon fill="midnightblue" stroke="midnightblue" points="1686.27,-530.58 1676.54,-534.76 1686.75,-537.57 1686.27,-530.58"/>
</g>
<!-- Node5 -->
<g id="node5" class="node">
<title>Node5</title>
<g id="a_node5"><a xlink:href="itkFFTWForward1DFFTImageFilter_8h.html" target="_top" xlink:title=" ">
<polygon fill="white" stroke="black" points="2452.5,-458.5 2452.5,-488.5 2609.5,-488.5 2609.5,-458.5 2452.5,-458.5"/>
<text text-anchor="start" x="2460.5" y="-476.5" font-family="Helvetica,sans-Serif" font-size="10.00">itkFFTWForward1DFFTImage</text>
<text text-anchor="middle" x="2531" y="-465.5" font-family="Helvetica,sans-Serif" font-size="10.00">Filter.h</text>
</a>
</g>
</g>
<!-- Node2&#45;&gt;Node5 -->
<g id="edge4" class="edge">
<title>Node2&#45;&gt;Node5</title>
<path fill="none" stroke="midnightblue" d="M1686.71,-537.35C1837.47,-532.81 2166.93,-519.97 2443,-489 2446.08,-488.65 2449.21,-488.27 2452.37,-487.87"/>
<polygon fill="midnightblue" stroke="midnightblue" points="1686.49,-533.86 1676.6,-537.65 1686.7,-540.85 1686.49,-533.86"/>
</g>
<!-- Node6 -->
<g id="node6" class="node">
<title>Node6</title>
<g id="a_node6"><a xlink:href="itkFFTWForwardFFTImageFilter_8h.html" target="_top" xlink:title=" ">
<polygon fill="white" stroke="black" points="2628,-464 2628,-483 2804,-483 2804,-464 2628,-464"/>
<text text-anchor="middle" x="2716" y="-471" font-family="Helvetica,sans-Serif" font-size="10.00">itkFFTWForwardFFTImageFilter.h</text>
</a>
</g>
</g>
<!-- Node2&#45;&gt;Node6 -->
<g id="edge5" class="edge">
<title>Node2&#45;&gt;Node6</title>
<path fill="none" stroke="midnightblue" d="M1686.79,-538.1C1860,-534.57 2273.18,-523.02 2618,-489 2633.32,-487.49 2649.9,-485.26 2665,-483"/>
<polygon fill="midnightblue" stroke="midnightblue" points="1686.65,-534.6 1676.72,-538.3 1686.79,-541.6 1686.65,-534.6"/>
</g>
<!-- Node7 -->
<g id="node7" class="node">
<title>Node7</title>
<g id="a_node7"><a xlink:href="itkFFTWHalfHermitianToRealInverseFFTImageFilter_8h.html" target="_top" xlink:title=" ">
<polygon fill="white" stroke="black" points="2822,-458.5 2822,-488.5 2980,-488.5 2980,-458.5 2822,-458.5"/>
<text text-anchor="start" x="2830" y="-476.5" font-family="Helvetica,sans-Serif" font-size="10.00">itkFFTWHalfHermitianToReal</text>
<text text-anchor="middle" x="2901" y="-465.5" font-family="Helvetica,sans-Serif" font-size="10.00">InverseFFTImageFilter.h</text>
</a>
</g>
</g>
<!-- Node2&#45;&gt;Node7 -->
<g id="edge6" class="edge">
<title>Node2&#45;&gt;Node7</title>
<path fill="none" stroke="midnightblue" d="M1687.03,-539.5C1883.35,-538.75 2391.36,-532.38 2813,-489 2815.93,-488.7 2818.9,-488.36 2821.91,-488"/>
<polygon fill="midnightblue" stroke="midnightblue" points="1686.78,-536 1676.79,-539.54 1686.8,-543 1686.78,-536"/>
</g>
<!-- Node8 -->
<g id="node8" class="node">
<title>Node8</title>
<g id="a_node8"><a xlink:href="itkFFTWInverse1DFFTImageFilter_8h.html" target="_top" xlink:title=" ">
<polygon fill="white" stroke="black" points="0,-458.5 0,-488.5 154,-488.5 154,-458.5 0,-458.5"/>
<text text-anchor="start" x="8" y="-476.5" font-family="Helvetica,sans-Serif" font-size="10.00">itkFFTWInverse1DFFTImage</text>
<text text-anchor="middle" x="77" y="-465.5" font-family="Helvetica,sans-Serif" font-size="10.00">Filter.h</text>
</a>
</g>
</g>
<!-- Node2&#45;&gt;Node8 -->
<g id="edge7" class="edge">
<title>Node2&#45;&gt;Node8</title>
<path fill="none" stroke="midnightblue" d="M1521.03,-538.03C1255.61,-533.12 429.2,-515.99 163,-489 160.14,-488.71 157.23,-488.38 154.29,-488.03"/>
<polygon fill="midnightblue" stroke="midnightblue" points="1521.3,-541.54 1531.36,-538.22 1521.43,-534.54 1521.3,-541.54"/>
</g>
<!-- Node9 -->
<g id="node9" class="node">
<title>Node9</title>
<g id="a_node9"><a xlink:href="itkFFTWInverseFFTImageFilter_8h.html" target="_top" xlink:title=" ">
<polygon fill="white" stroke="black" points="172.5,-464 172.5,-483 345.5,-483 345.5,-464 172.5,-464"/>
<text text-anchor="middle" x="259" y="-471" font-family="Helvetica,sans-Serif" font-size="10.00">itkFFTWInverseFFTImageFilter.h</text>
</a>
</g>
</g>
<!-- Node2&#45;&gt;Node9 -->
<g id="edge8" class="edge">
<title>Node2&#45;&gt;Node9</title>
<path fill="none" stroke="midnightblue" d="M1521.14,-539.28C1320.53,-538.07 792.96,-530.8 355,-489 339.9,-487.56 323.55,-485.34 308.7,-483.07"/>
<polygon fill="midnightblue" stroke="midnightblue" points="1521.29,-542.78 1531.31,-539.34 1521.33,-535.78 1521.29,-542.78"/>
</g>
<!-- Node10 -->
<g id="node10" class="node">
<title>Node10</title>
<g id="a_node10"><a xlink:href="itkFFTWRealToHalfHermitianForwardFFTImageFilter_8h.html" target="_top" xlink:title=" ">
<polygon fill="white" stroke="black" points="364,-458.5 364,-488.5 522,-488.5 522,-458.5 364,-458.5"/>
<text text-anchor="start" x="372" y="-476.5" font-family="Helvetica,sans-Serif" font-size="10.00">itkFFTWRealToHalfHermitian</text>
<text text-anchor="middle" x="443" y="-465.5" font-family="Helvetica,sans-Serif" font-size="10.00">ForwardFFTImageFilter.h</text>
</a>
</g>
</g>
<!-- Node2&#45;&gt;Node10 -->
<g id="edge9" class="edge">
<title>Node2&#45;&gt;Node10</title>
<path fill="none" stroke="midnightblue" d="M1521.03,-538.88C1340.5,-536.8 898.72,-527.82 531,-489 528.07,-488.69 525.1,-488.35 522.1,-487.98"/>
<polygon fill="midnightblue" stroke="midnightblue" points="1521.2,-542.38 1531.24,-538.99 1521.28,-535.38 1521.2,-542.38"/>
</g>
<!-- Node11 -->
<g id="node11" class="node">
<title>Node11</title>
<g id="a_node11"><a xlink:href="itkVnlComplexToComplex1DFFTImageFilter_8h.html" target="_top" xlink:title=" ">
<polygon fill="white" stroke="black" points="540,-458.5 540,-488.5 744,-488.5 744,-458.5 540,-458.5"/>
<text text-anchor="start" x="548" y="-476.5" font-family="Helvetica,sans-Serif" font-size="10.00">itkVnlComplexToComplex1DFFTImage</text>
<text text-anchor="middle" x="642" y="-465.5" font-family="Helvetica,sans-Serif" font-size="10.00">Filter.h</text>
</a>
</g>
</g>
<!-- Node2&#45;&gt;Node11 -->
<g id="edge10" class="edge">
<title>Node2&#45;&gt;Node11</title>
<path fill="none" stroke="midnightblue" d="M1521.08,-536.53C1368.72,-530.63 1034.04,-515.66 753,-489 750.1,-488.72 747.15,-488.43 744.19,-488.12"/>
<polygon fill="midnightblue" stroke="midnightblue" points="1521.17,-540.03 1531.3,-536.92 1521.44,-533.04 1521.17,-540.03"/>
</g>
<!-- Node12 -->
<g id="node12" class="node">
<title>Node12</title>
<g id="a_node12"><a xlink:href="itkVnlComplexToComplexFFTImageFilter_8h.html" target="_top" xlink:title=" ">
<polygon fill="white" stroke="black" points="762.5,-458.5 762.5,-488.5 953.5,-488.5 953.5,-458.5 762.5,-458.5"/>
<text text-anchor="start" x="770.5" y="-476.5" font-family="Helvetica,sans-Serif" font-size="10.00">itkVnlComplexToComplexFFTImage</text>
<text text-anchor="middle" x="858" y="-465.5" font-family="Helvetica,sans-Serif" font-size="10.00">Filter.h</text>
</a>
</g>
</g>
<!-- Node2&#45;&gt;Node12 -->
<g id="edge11" class="edge">
<title>Node2&#45;&gt;Node12</title>
<path fill="none" stroke="midnightblue" d="M1521.12,-534.58C1398.67,-526.94 1162.27,-510.82 962,-489 959.28,-488.7 956.52,-488.39 953.74,-488.07"/>
<polygon fill="midnightblue" stroke="midnightblue" points="1520.98,-538.07 1531.18,-535.2 1521.41,-531.09 1520.98,-538.07"/>
</g>
<!-- Node13 -->
<g id="node13" class="node">
<title>Node13</title>
<g id="a_node13"><a xlink:href="itkVnlForward1DFFTImageFilter_8h.html" target="_top" xlink:title=" ">
<polygon fill="white" stroke="black" points="971.5,-464 971.5,-483 1150.5,-483 1150.5,-464 971.5,-464"/>
<text text-anchor="middle" x="1061" y="-471" font-family="Helvetica,sans-Serif" font-size="10.00">itkVnlForward1DFFTImageFilter.h</text>
</a>
</g>
</g>
<!-- Node2&#45;&gt;Node13 -->
<g id="edge12" class="edge">
<title>Node2&#45;&gt;Node13</title>
<path fill="none" stroke="midnightblue" d="M1521.38,-530.97C1431.95,-521.54 1285.2,-505.49 1159,-489 1145.19,-487.19 1130.3,-485.08 1116.41,-483.03"/>
<polygon fill="midnightblue" stroke="midnightblue" points="1521.14,-534.47 1531.46,-532.03 1521.88,-527.5 1521.14,-534.47"/>
</g>
<!-- Node14 -->
<g id="node14" class="node">
<title>Node14</title>
<g id="a_node14"><a xlink:href="itkVnlForwardFFTImageFilter_8h.html" target="_top" xlink:title=" ">
<polygon fill="white" stroke="black" points="1168.5,-464 1168.5,-483 1333.5,-483 1333.5,-464 1168.5,-464"/>
<text text-anchor="middle" x="1251" y="-471" font-family="Helvetica,sans-Serif" font-size="10.00">itkVnlForwardFFTImageFilter.h</text>
</a>
</g>
</g>
<!-- Node2&#45;&gt;Node14 -->
<g id="edge13" class="edge">
<title>Node2&#45;&gt;Node14</title>
<path fill="none" stroke="midnightblue" d="M1547.61,-529.12C1478.23,-516.34 1361.74,-494.89 1297.33,-483.03"/>
<polygon fill="midnightblue" stroke="midnightblue" points="1547.02,-532.57 1557.49,-530.94 1548.29,-525.68 1547.02,-532.57"/>
</g>
<!-- Node15 -->
<g id="node15" class="node">
<title>Node15</title>
<g id="a_node15"><a xlink:href="itkVnlHalfHermitianToRealInverseFFTImageFilter_8h.html" target="_top" xlink:title=" ">
<polygon fill="white" stroke="black" points="1352,-458.5 1352,-488.5 1498,-488.5 1498,-458.5 1352,-458.5"/>
<text text-anchor="start" x="1360" y="-476.5" font-family="Helvetica,sans-Serif" font-size="10.00">itkVnlHalfHermitianToReal</text>
<text text-anchor="middle" x="1425" y="-465.5" font-family="Helvetica,sans-Serif" font-size="10.00">InverseFFTImageFilter.h</text>
</a>
</g>
</g>
<!-- Node2&#45;&gt;Node15 -->
<g id="edge14" class="edge">
<title>Node2&#45;&gt;Node15</title>
<path fill="none" stroke="midnightblue" d="M1570.53,-527.35C1540.19,-516.33 1495.48,-500.09 1463.63,-488.53"/>
<polygon fill="midnightblue" stroke="midnightblue" points="1569.64,-530.75 1580.23,-530.87 1572.03,-524.17 1569.64,-530.75"/>
</g>
<!-- Node16 -->
<g id="node16" class="node">
<title>Node16</title>
<g id="a_node16"><a xlink:href="itkVnlInverse1DFFTImageFilter_8h.html" target="_top" xlink:title=" ">
<polygon fill="white" stroke="black" points="1516,-464 1516,-483 1692,-483 1692,-464 1516,-464"/>
<text text-anchor="middle" x="1604" y="-471" font-family="Helvetica,sans-Serif" font-size="10.00">itkVnlInverse1DFFTImageFilter.h</text>
</a>
</g>
</g>
<!-- Node2&#45;&gt;Node16 -->
<g id="edge15" class="edge">
<title>Node2&#45;&gt;Node16</title>
<path fill="none" stroke="midnightblue" d="M1604,-520.54C1604,-508.17 1604,-492.62 1604,-483.13"/>
<polygon fill="midnightblue" stroke="midnightblue" points="1600.5,-520.73 1604,-530.73 1607.5,-520.73 1600.5,-520.73"/>
</g>
<!-- Node17 -->
<g id="node17" class="node">
<title>Node17</title>
<g id="a_node17"><a xlink:href="itkVnlInverseFFTImageFilter_8h.html" target="_top" xlink:title=" ">
<polygon fill="white" stroke="black" points="1710,-464 1710,-483 1872,-483 1872,-464 1710,-464"/>
<text text-anchor="middle" x="1791" y="-471" font-family="Helvetica,sans-Serif" font-size="10.00">itkVnlInverseFFTImageFilter.h</text>
</a>
</g>
</g>
<!-- Node2&#45;&gt;Node17 -->
<g id="edge16" class="edge">
<title>Node2&#45;&gt;Node17</title>
<path fill="none" stroke="midnightblue" d="M1638.71,-527.44C1675.8,-514.54 1733.68,-494.42 1766.36,-483.06"/>
<polygon fill="midnightblue" stroke="midnightblue" points="1637.13,-524.28 1628.83,-530.87 1639.43,-530.89 1637.13,-524.28"/>
</g>
<!-- Node18 -->
<g id="node18" class="node">
<title>Node18</title>
<g id="a_node18"><a xlink:href="itkVnlRealToHalfHermitianForwardFFTImageFilter_8h.html" target="_top" xlink:title=" ">
<polygon fill="white" stroke="black" points="1890,-458.5 1890,-488.5 2036,-488.5 2036,-458.5 1890,-458.5"/>
<text text-anchor="start" x="1898" y="-476.5" font-family="Helvetica,sans-Serif" font-size="10.00">itkVnlRealToHalfHermitian</text>
<text text-anchor="middle" x="1963" y="-465.5" font-family="Helvetica,sans-Serif" font-size="10.00">ForwardFFTImageFilter.h</text>
</a>
</g>
</g>
<!-- Node2&#45;&gt;Node18 -->
<g id="edge17" class="edge">
<title>Node2&#45;&gt;Node18</title>
<path fill="none" stroke="midnightblue" d="M1661.29,-529.13C1723.25,-517.91 1822.18,-500 1889.75,-487.76"/>
<polygon fill="midnightblue" stroke="midnightblue" points="1660.52,-525.71 1651.3,-530.94 1661.77,-532.6 1660.52,-525.71"/>
</g>
<!-- Node21 -->
<g id="node21" class="node">
<title>Node21</title>
<g id="a_node21"><a xlink:href="itkGPUKernelManager_8h.html" target="_top" xlink:title=" ">
<polygon fill="white" stroke="black" points="3738,-464 3738,-483 3870,-483 3870,-464 3738,-464"/>
<text text-anchor="middle" x="3804" y="-471" font-family="Helvetica,sans-Serif" font-size="10.00">itkGPUKernelManager.h</text>
</a>
</g>
</g>
<!-- Node20&#45;&gt;Node21 -->
<g id="edge20" class="edge">
<title>Node20&#45;&gt;Node21</title>
<path fill="none" stroke="midnightblue" d="M3887.86,-525.44C3866.67,-512.57 3835.98,-493.93 3818.2,-483.13"/>
<polygon fill="midnightblue" stroke="midnightblue" points="3886.21,-528.53 3896.57,-530.73 3889.84,-522.55 3886.21,-528.53"/>
</g>
<!-- Node37 -->
<g id="node37" class="node">
<title>Node37</title>
<g id="a_node37"><a xlink:href="itkGPUNeighborhoodOperatorImageFilter_8h.html" target="_top" xlink:title=" ">
<polygon fill="white" stroke="black" points="3937.5,-335.5 3937.5,-365.5 4098.5,-365.5 4098.5,-335.5 3937.5,-335.5"/>
<text text-anchor="start" x="3945.5" y="-353.5" font-family="Helvetica,sans-Serif" font-size="10.00">itkGPUNeighborhoodOperator</text>
<text text-anchor="middle" x="4018" y="-342.5" font-family="Helvetica,sans-Serif" font-size="10.00">ImageFilter.h</text>
</a>
</g>
</g>
<!-- Node20&#45;&gt;Node37 -->
<g id="edge56" class="edge">
<title>Node20&#45;&gt;Node37</title>
<path fill="none" stroke="midnightblue" d="M3925.56,-523.08C3944.19,-501.34 3976.39,-461.15 3996,-422 4005.3,-403.43 4011.64,-380.13 4015.04,-365.52"/>
<polygon fill="midnightblue" stroke="midnightblue" points="3922.84,-520.88 3918.92,-530.72 3928.13,-525.47 3922.84,-520.88"/>
</g>
<!-- Node38 -->
<g id="node38" class="node">
<title>Node38</title>
<g id="a_node38"><a xlink:href="itkGPUDiscreteGaussianImageFilter_8h.html" target="_top" xlink:title=" ">
<polygon fill="white" stroke="black" points="3932.5,-268.5 3932.5,-298.5 4099.5,-298.5 4099.5,-268.5 3932.5,-268.5"/>
<text text-anchor="start" x="3940.5" y="-286.5" font-family="Helvetica,sans-Serif" font-size="10.00">itkGPUDiscreteGaussianImage</text>
<text text-anchor="middle" x="4016" y="-275.5" font-family="Helvetica,sans-Serif" font-size="10.00">Filter.h</text>
</a>
</g>
</g>
<!-- Node20&#45;&gt;Node38 -->
<g id="edge57" class="edge">
<title>Node20&#45;&gt;Node38</title>
<path fill="none" stroke="midnightblue" d="M3966.12,-533.34C4054.08,-520.2 4223.79,-480.59 4298,-366 4305.49,-354.44 4306.84,-345.57 4298,-335 4273.06,-305.2 4173.51,-292.96 4099.72,-287.95"/>
<polygon fill="midnightblue" stroke="midnightblue" points="3965.47,-529.89 3956.07,-534.78 3966.47,-536.82 3965.47,-529.89"/>
</g>
<!-- Node22 -->
<g id="node22" class="node">
<title>Node22</title>
<g id="a_node22"><a xlink:href="itkGPUFunctorBase_8h.html" target="_top" xlink:title=" ">
<polygon fill="white" stroke="black" points="3761.5,-341 3761.5,-360 3880.5,-360 3880.5,-341 3761.5,-341"/>
<text text-anchor="middle" x="3821" y="-348" font-family="Helvetica,sans-Serif" font-size="10.00">itkGPUFunctorBase.h</text>
</a>
</g>
</g>
<!-- Node21&#45;&gt;Node22 -->
<g id="edge21" class="edge">
<title>Node21&#45;&gt;Node22</title>
<path fill="none" stroke="midnightblue" d="M3806.62,-453.85C3810.35,-427.27 3817.05,-379.58 3819.79,-360.12"/>
<polygon fill="midnightblue" stroke="midnightblue" points="3803.15,-453.41 3805.22,-463.8 3810.08,-454.38 3803.15,-453.41"/>
</g>
<!-- Node24 -->
<g id="node24" class="node">
<title>Node24</title>
<g id="a_node24"><a xlink:href="itkGPUCastImageFilter_8h.html" target="_top" xlink:title=" ">
<polygon fill="white" stroke="black" points="3675,-207 3675,-226 3811,-226 3811,-207 3675,-207"/>
<text text-anchor="middle" x="3743" y="-214" font-family="Helvetica,sans-Serif" font-size="10.00">itkGPUCastImageFilter.h</text>
</a>
</g>
</g>
<!-- Node21&#45;&gt;Node24 -->
<g id="edge54" class="edge">
<title>Node21&#45;&gt;Node24</title>
<path fill="none" stroke="midnightblue" d="M3743.92,-461.56C3691.84,-448.55 3619.55,-421.22 3585,-366 3577.69,-354.32 3579.82,-347.77 3585,-335 3592.79,-315.78 3633.47,-280.54 3650,-268 3673.27,-250.34 3703.51,-235.14 3723.09,-226.15"/>
<polygon fill="midnightblue" stroke="midnightblue" points="3743.19,-464.98 3753.73,-463.9 3744.81,-458.17 3743.19,-464.98"/>
</g>
<!-- Node25 -->
<g id="node25" class="node">
<title>Node25</title>
<g id="a_node25"><a xlink:href="itkGPUBinaryThresholdImageFilter_8h.html" target="_top" xlink:title=" ">
<polygon fill="white" stroke="black" points="3829.5,-201.5 3829.5,-231.5 3990.5,-231.5 3990.5,-201.5 3829.5,-201.5"/>
<text text-anchor="start" x="3837.5" y="-219.5" font-family="Helvetica,sans-Serif" font-size="10.00">itkGPUBinaryThresholdImage</text>
<text text-anchor="middle" x="3910" y="-208.5" font-family="Helvetica,sans-Serif" font-size="10.00">Filter.h</text>
</a>
</g>
</g>
<!-- Node21&#45;&gt;Node25 -->
<g id="edge55" class="edge">
<title>Node21&#45;&gt;Node25</title>
<path fill="none" stroke="midnightblue" d="M3880.38,-470.91C3954,-464.68 4060.97,-442.1 4108,-366 4130.9,-328.95 4134.72,-302.39 4108,-268 4093.25,-249.02 4038.65,-235.98 3990.51,-227.92"/>
<polygon fill="midnightblue" stroke="midnightblue" points="3879.92,-467.43 3870.22,-471.68 3880.46,-474.41 3879.92,-467.43"/>
</g>
<!-- Node26 -->
<g id="node26" class="node">
<title>Node26</title>
<g id="a_node26"><a xlink:href="itkGPUImageToImageFilter_8h.html" target="_top" xlink:title=" ">
<polygon fill="white" stroke="black" points="3832.5,-402.5 3832.5,-421.5 3987.5,-421.5 3987.5,-402.5 3832.5,-402.5"/>
<text text-anchor="middle" x="3910" y="-409.5" font-family="Helvetica,sans-Serif" font-size="10.00">itkGPUImageToImageFilter.h</text>
</a>
</g>
</g>
<!-- Node21&#45;&gt;Node26 -->
<g id="edge27" class="edge">
<title>Node21&#45;&gt;Node26</title>
<path fill="none" stroke="midnightblue" d="M3827.95,-459.06C3848.46,-447.54 3877.38,-431.31 3894.84,-421.51"/>
<polygon fill="midnightblue" stroke="midnightblue" points="3826.19,-456.03 3819.19,-463.98 3829.62,-462.13 3826.19,-456.03"/>
</g>
<!-- Node39 -->
<g id="node39" class="node">
<title>Node39</title>
<g id="a_node39"><a xlink:href="itkGPUReduction_8h.html" target="_top" xlink:title=" ">
<polygon fill="white" stroke="black" points="3127,-402.5 3127,-421.5 3235,-421.5 3235,-402.5 3127,-402.5"/>
<text text-anchor="middle" x="3181" y="-409.5" font-family="Helvetica,sans-Serif" font-size="10.00">itkGPUReduction.h</text>
</a>
</g>
</g>
<!-- Node21&#45;&gt;Node39 -->
<g id="edge42" class="edge">
<title>Node21&#45;&gt;Node39</title>
<path fill="none" stroke="midnightblue" d="M3727.83,-465.23C3600.2,-453.04 3346.24,-428.78 3235.14,-418.17"/>
<polygon fill="midnightblue" stroke="midnightblue" points="3727.63,-468.72 3737.92,-466.19 3728.3,-461.75 3727.63,-468.72"/>
</g>
<!-- Node41 -->
<g id="node41" class="node">
<title>Node41</title>
<g id="a_node41"><a xlink:href="itkGPUFiniteDifferenceFunction_8h.html" target="_top" xlink:title=" ">
<polygon fill="white" stroke="black" points="3308,-341 3308,-360 3486,-360 3486,-341 3308,-341"/>
<text text-anchor="middle" x="3397" y="-348" font-family="Helvetica,sans-Serif" font-size="10.00">itkGPUFiniteDifferenceFunction.h</text>
</a>
</g>
</g>
<!-- Node21&#45;&gt;Node41 -->
<g id="edge45" class="edge">
<title>Node21&#45;&gt;Node41</title>
<path fill="none" stroke="midnightblue" d="M3731.73,-462.4C3680.97,-454.24 3611.9,-440.97 3553,-422 3499.81,-404.88 3440.61,-374.88 3412.92,-360.16"/>
<polygon fill="midnightblue" stroke="midnightblue" points="3731.21,-465.86 3741.63,-463.97 3732.3,-458.95 3731.21,-465.86"/>
</g>
<!-- Node23 -->
<g id="node23" class="node">
<title>Node23</title>
<g id="a_node23"><a xlink:href="itkGPUUnaryFunctorImageFilter_8h.html" target="_top" xlink:title=" ">
<polygon fill="white" stroke="black" points="3659.5,-274 3659.5,-293 3838.5,-293 3838.5,-274 3659.5,-274"/>
<text text-anchor="middle" x="3749" y="-281" font-family="Helvetica,sans-Serif" font-size="10.00">itkGPUUnaryFunctorImageFilter.h</text>
</a>
</g>
</g>
<!-- Node22&#45;&gt;Node23 -->
<g id="edge22" class="edge">
<title>Node22&#45;&gt;Node23</title>
<path fill="none" stroke="midnightblue" d="M3803.67,-333.86C3789.52,-321.08 3770.04,-303.49 3758.56,-293.13"/>
<polygon fill="midnightblue" stroke="midnightblue" points="3801.52,-336.63 3811.29,-340.73 3806.21,-331.43 3801.52,-336.63"/>
</g>
<!-- Node22&#45;&gt;Node24 -->
<g id="edge25" class="edge">
<title>Node22&#45;&gt;Node24</title>
<path fill="none" stroke="midnightblue" d="M3834.48,-332.31C3846.25,-315.05 3859.63,-288.18 3847,-268 3833.1,-245.8 3806.35,-233.11 3783.46,-226"/>
<polygon fill="midnightblue" stroke="midnightblue" points="3831.34,-330.67 3828.28,-340.81 3837,-334.79 3831.34,-330.67"/>
</g>
<!-- Node22&#45;&gt;Node25 -->
<g id="edge26" class="edge">
<title>Node22&#45;&gt;Node25</title>
<path fill="none" stroke="midnightblue" d="M3836.09,-333.4C3844.75,-323.79 3855.54,-311.12 3864,-299 3879.72,-276.49 3894.73,-248.18 3903.12,-231.54"/>
<polygon fill="midnightblue" stroke="midnightblue" points="3833.33,-331.24 3829.15,-340.97 3838.49,-335.97 3833.33,-331.24"/>
</g>
<!-- Node23&#45;&gt;Node24 -->
<g id="edge23" class="edge">
<title>Node23&#45;&gt;Node24</title>
<path fill="none" stroke="midnightblue" d="M3747.25,-263.54C3746.11,-251.17 3744.67,-235.62 3743.8,-226.13"/>
<polygon fill="midnightblue" stroke="midnightblue" points="3743.79,-264.1 3748.19,-273.73 3750.76,-263.45 3743.79,-264.1"/>
</g>
<!-- Node23&#45;&gt;Node25 -->
<g id="edge24" class="edge">
<title>Node23&#45;&gt;Node25</title>
<path fill="none" stroke="midnightblue" d="M3779.82,-270.06C3807.09,-259.05 3846.86,-242.99 3875.25,-231.53"/>
<polygon fill="midnightblue" stroke="midnightblue" points="3778.34,-266.88 3770.38,-273.87 3780.96,-273.37 3778.34,-266.88"/>
</g>
<!-- Node27 -->
<g id="node27" class="node">
<title>Node27</title>
<g id="a_node27"><a xlink:href="itkGPUInPlaceImageFilter_8h.html" target="_top" xlink:title=" ">
<polygon fill="white" stroke="black" points="3594.5,-341 3594.5,-360 3743.5,-360 3743.5,-341 3594.5,-341"/>
<text text-anchor="middle" x="3669" y="-348" font-family="Helvetica,sans-Serif" font-size="10.00">itkGPUInPlaceImageFilter.h</text>
</a>
</g>
</g>
<!-- Node26&#45;&gt;Node27 -->
<g id="edge28" class="edge">
<title>Node26&#45;&gt;Node27</title>
<path fill="none" stroke="midnightblue" d="M3865.61,-400.04C3818.82,-388.49 3746.12,-370.54 3703.47,-360.01"/>
<polygon fill="midnightblue" stroke="midnightblue" points="3864.92,-403.48 3875.47,-402.48 3866.6,-396.68 3864.92,-403.48"/>
</g>
<!-- Node35 -->
<g id="node35" class="node">
<title>Node35</title>
<g id="a_node35"><a xlink:href="itkGPUBoxImageFilter_8h.html" target="_top" xlink:title=" ">
<polygon fill="white" stroke="black" points="4155.5,-341 4155.5,-360 4288.5,-360 4288.5,-341 4155.5,-341"/>
<text text-anchor="middle" x="4222" y="-348" font-family="Helvetica,sans-Serif" font-size="10.00">itkGPUBoxImageFilter.h</text>
</a>
</g>
</g>
<!-- Node26&#45;&gt;Node35 -->
<g id="edge37" class="edge">
<title>Node26&#45;&gt;Node35</title>
<path fill="none" stroke="midnightblue" d="M3964.82,-400.55C4025.26,-389.02 4121.35,-370.69 4177.38,-360.01"/>
<polygon fill="midnightblue" stroke="midnightblue" points="3963.87,-397.16 3954.7,-402.48 3965.18,-404.04 3963.87,-397.16"/>
</g>
<!-- Node26&#45;&gt;Node37 -->
<g id="edge39" class="edge">
<title>Node26&#45;&gt;Node37</title>
<path fill="none" stroke="midnightblue" d="M3934.43,-397.54C3951.76,-387.99 3974.98,-375.2 3992.55,-365.52"/>
<polygon fill="midnightblue" stroke="midnightblue" points="3932.54,-394.58 3925.47,-402.48 3935.92,-400.72 3932.54,-394.58"/>
</g>
<!-- Node26&#45;&gt;Node38 -->
<g id="edge41" class="edge">
<title>Node26&#45;&gt;Node38</title>
<path fill="none" stroke="midnightblue" d="M3910.38,-391.98C3911.6,-375.45 3915.61,-351.6 3928,-335 3940.22,-318.63 3959.44,-306.72 3976.8,-298.6"/>
<polygon fill="midnightblue" stroke="midnightblue" points="3906.88,-391.93 3909.91,-402.09 3913.87,-392.26 3906.88,-391.93"/>
</g>
<!-- Node27&#45;&gt;Node23 -->
<g id="edge29" class="edge">
<title>Node27&#45;&gt;Node23</title>
<path fill="none" stroke="midnightblue" d="M3687.81,-334.21C3703.58,-321.41 3725.51,-303.59 3738.38,-293.13"/>
<polygon fill="midnightblue" stroke="midnightblue" points="3685.34,-331.71 3679.79,-340.73 3689.76,-337.14 3685.34,-331.71"/>
</g>
<!-- Node28 -->
<g id="node28" class="node">
<title>Node28</title>
<g id="a_node28"><a xlink:href="itkGPUFiniteDifferenceImageFilter_8h.html" target="_top" xlink:title=" ">
<polygon fill="white" stroke="black" points="3445,-268.5 3445,-298.5 3603,-298.5 3603,-268.5 3445,-268.5"/>
<text text-anchor="start" x="3453" y="-286.5" font-family="Helvetica,sans-Serif" font-size="10.00">itkGPUFiniteDifferenceImage</text>
<text text-anchor="middle" x="3524" y="-275.5" font-family="Helvetica,sans-Serif" font-size="10.00">Filter.h</text>
</a>
</g>
</g>
<!-- Node27&#45;&gt;Node28 -->
<g id="edge30" class="edge">
<title>Node27&#45;&gt;Node28</title>
<path fill="none" stroke="midnightblue" d="M3640.6,-336.77C3616.05,-325.77 3580.64,-309.89 3555.29,-298.53"/>
<polygon fill="midnightblue" stroke="midnightblue" points="3639.19,-339.97 3649.75,-340.87 3642.05,-333.58 3639.19,-339.97"/>
</g>
<!-- Node29 -->
<g id="node29" class="node">
<title>Node29</title>
<g id="a_node29"><a xlink:href="itkGPUDenseFiniteDifferenceImageFilter_8h.html" target="_top" xlink:title=" ">
<polygon fill="white" stroke="black" points="3461,-201.5 3461,-231.5 3619,-231.5 3619,-201.5 3461,-201.5"/>
<text text-anchor="start" x="3469" y="-219.5" font-family="Helvetica,sans-Serif" font-size="10.00">itkGPUDenseFiniteDifference</text>
<text text-anchor="middle" x="3540" y="-208.5" font-family="Helvetica,sans-Serif" font-size="10.00">ImageFilter.h</text>
</a>
</g>
</g>
<!-- Node28&#45;&gt;Node29 -->
<g id="edge31" class="edge">
<title>Node28&#45;&gt;Node29</title>
<path fill="none" stroke="midnightblue" d="M3529.93,-258.4C3532.16,-249.37 3534.61,-239.41 3536.54,-231.58"/>
<polygon fill="midnightblue" stroke="midnightblue" points="3526.46,-257.85 3527.47,-268.4 3533.26,-259.52 3526.46,-257.85"/>
</g>
<!-- Node30 -->
<g id="node30" class="node">
<title>Node30</title>
<g id="a_node30"><a xlink:href="itkGPUAnisotropicDiffusionImageFilter_8h.html" target="_top" xlink:title=" ">
<polygon fill="white" stroke="black" points="3485.5,-134.5 3485.5,-164.5 3634.5,-164.5 3634.5,-134.5 3485.5,-134.5"/>
<text text-anchor="start" x="3493.5" y="-152.5" font-family="Helvetica,sans-Serif" font-size="10.00">itkGPUAnisotropicDiffusion</text>
<text text-anchor="middle" x="3560" y="-141.5" font-family="Helvetica,sans-Serif" font-size="10.00">ImageFilter.h</text>
</a>
</g>
</g>
<!-- Node29&#45;&gt;Node30 -->
<g id="edge32" class="edge">
<title>Node29&#45;&gt;Node30</title>
<path fill="none" stroke="midnightblue" d="M3547.32,-191.7C3550.13,-182.59 3553.23,-172.49 3555.67,-164.58"/>
<polygon fill="midnightblue" stroke="midnightblue" points="3543.94,-190.81 3544.34,-201.4 3550.63,-192.87 3543.94,-190.81"/>
</g>
<!-- Node33 -->
<g id="node33" class="node">
<title>Node33</title>
<g id="a_node33"><a xlink:href="itkGPUPDEDeformableRegistrationFilter_8h.html" target="_top" xlink:title=" ">
<polygon fill="white" stroke="black" points="3099.5,-134.5 3099.5,-164.5 3286.5,-164.5 3286.5,-134.5 3099.5,-134.5"/>
<text text-anchor="start" x="3107.5" y="-152.5" font-family="Helvetica,sans-Serif" font-size="10.00">itkGPUPDEDeformableRegistration</text>
<text text-anchor="middle" x="3193" y="-141.5" font-family="Helvetica,sans-Serif" font-size="10.00">Filter.h</text>
</a>
</g>
</g>
<!-- Node29&#45;&gt;Node33 -->
<g id="edge35" class="edge">
<title>Node29&#45;&gt;Node33</title>
<path fill="none" stroke="midnightblue" d="M3455.03,-199.58C3397.81,-188.86 3323.05,-174.86 3268.03,-164.55"/>
<polygon fill="midnightblue" stroke="midnightblue" points="3454.66,-203.07 3465.13,-201.48 3455.95,-196.19 3454.66,-203.07"/>
</g>
<!-- Node31 -->
<g id="node31" class="node">
<title>Node31</title>
<g id="a_node31"><a xlink:href="itkGPUGradientAnisotropicDiffusionImageFilter_8h.html" target="_top" xlink:title=" ">
<polygon fill="white" stroke="black" points="3399.5,-67.5 3399.5,-97.5 3546.5,-97.5 3546.5,-67.5 3399.5,-67.5"/>
<text text-anchor="start" x="3407.5" y="-85.5" font-family="Helvetica,sans-Serif" font-size="10.00">itkGPUGradientAnisotropic</text>
<text text-anchor="middle" x="3473" y="-74.5" font-family="Helvetica,sans-Serif" font-size="10.00">DiffusionImageFilter.h</text>
</a>
</g>
</g>
<!-- Node30&#45;&gt;Node31 -->
<g id="edge33" class="edge">
<title>Node30&#45;&gt;Node31</title>
<path fill="none" stroke="midnightblue" d="M3532.79,-128.17C3519.48,-118.23 3503.8,-106.51 3491.84,-97.58"/>
<polygon fill="midnightblue" stroke="midnightblue" points="3531.02,-131.21 3541.12,-134.4 3535.21,-125.61 3531.02,-131.21"/>
</g>
<!-- Node32 -->
<g id="node32" class="node">
<title>Node32</title>
<g id="a_node32"><a xlink:href="itkGPUGradientAnisotropicDiffusionImageFilterFactory_8h.html" target="_top" xlink:title=" ">
<polygon fill="white" stroke="black" points="3394,-0.5 3394,-30.5 3552,-30.5 3552,-0.5 3394,-0.5"/>
<text text-anchor="start" x="3402" y="-18.5" font-family="Helvetica,sans-Serif" font-size="10.00">itkGPUGradientAnisotropic</text>
<text text-anchor="middle" x="3473" y="-7.5" font-family="Helvetica,sans-Serif" font-size="10.00">DiffusionImageFilterFactory.h</text>
</a>
</g>
</g>
<!-- Node31&#45;&gt;Node32 -->
<g id="edge34" class="edge">
<title>Node31&#45;&gt;Node32</title>
<path fill="none" stroke="midnightblue" d="M3473,-57.11C3473,-48.15 3473,-38.32 3473,-30.58"/>
<polygon fill="midnightblue" stroke="midnightblue" points="3469.5,-57.4 3473,-67.4 3476.5,-57.4 3469.5,-57.4"/>
</g>
<!-- Node33&#45;&gt;Node34 -->
<g id="edge36" class="edge">
<title>Node33&#45;&gt;Node34</title>
<path fill="none" stroke="midnightblue" d="M3157.77,-129.57C3138.74,-119.35 3115.63,-106.94 3098.2,-97.58"/>
<polygon fill="midnightblue" stroke="midnightblue" points="3156.28,-132.75 3166.74,-134.4 3159.59,-126.58 3156.28,-132.75"/>
</g>
<!-- Node35&#45;&gt;Node36 -->
<g id="edge38" class="edge">
<title>Node35&#45;&gt;Node36</title>
<path fill="none" stroke="midnightblue" d="M4238.61,-333.86C4252.17,-321.08 4270.84,-303.49 4281.84,-293.13"/>
<polygon fill="midnightblue" stroke="midnightblue" points="4236.18,-331.33 4231.31,-340.73 4240.98,-336.42 4236.18,-331.33"/>
</g>
<!-- Node37&#45;&gt;Node38 -->
<g id="edge40" class="edge">
<title>Node37&#45;&gt;Node38</title>
<path fill="none" stroke="midnightblue" d="M4017.25,-325.11C4016.97,-316.15 4016.67,-306.32 4016.43,-298.58"/>
<polygon fill="midnightblue" stroke="midnightblue" points="4013.76,-325.51 4017.57,-335.4 4020.76,-325.29 4013.76,-325.51"/>
</g>
<!-- Node40 -->
<g id="node40" class="node">
<title>Node40</title>
<g id="a_node40"><a xlink:href="itkGPUDemonsRegistrationFunction_8h.html" target="_top" xlink:title=" ">
<polygon fill="white" stroke="black" points="3036,-201.5 3036,-231.5 3186,-231.5 3186,-201.5 3036,-201.5"/>
<text text-anchor="start" x="3044" y="-219.5" font-family="Helvetica,sans-Serif" font-size="10.00">itkGPUDemonsRegistration</text>
<text text-anchor="middle" x="3111" y="-208.5" font-family="Helvetica,sans-Serif" font-size="10.00">Function.h</text>
</a>
</g>
</g>
<!-- Node39&#45;&gt;Node40 -->
<g id="edge43" class="edge">
<title>Node39&#45;&gt;Node40</title>
<path fill="none" stroke="midnightblue" d="M3157.34,-396.93C3128.98,-378.52 3082.93,-343.34 3064,-299 3058.59,-286.33 3058.96,-280.82 3064,-268 3069.7,-253.51 3081.73,-240.71 3092.19,-231.63"/>
<polygon fill="midnightblue" stroke="midnightblue" points="3155.54,-399.93 3165.86,-402.3 3159.27,-394.01 3155.54,-399.93"/>
</g>
<!-- Node40&#45;&gt;Node34 -->
<g id="edge44" class="edge">
<title>Node40&#45;&gt;Node34</title>
<path fill="none" stroke="midnightblue" d="M3100.21,-191.98C3096.63,-183.58 3092.83,-173.98 3090,-165 3082.67,-141.79 3077.21,-113.94 3074.32,-97.54"/>
<polygon fill="midnightblue" stroke="midnightblue" points="3097.02,-193.42 3104.24,-201.17 3103.42,-190.6 3097.02,-193.42"/>
</g>
<!-- Node41&#45;&gt;Node28 -->
<g id="edge46" class="edge">
<title>Node41&#45;&gt;Node28</title>
<path fill="none" stroke="midnightblue" d="M3423,-336.19C3444.36,-325.26 3474.55,-309.81 3496.35,-298.65"/>
<polygon fill="midnightblue" stroke="midnightblue" points="3421.17,-333.2 3413.86,-340.87 3424.36,-339.43 3421.17,-333.2"/>
</g>
<!-- Node42 -->
<g id="node42" class="node">
<title>Node42</title>
<g id="a_node42"><a xlink:href="itkGPUAnisotropicDiffusionFunction_8h.html" target="_top" xlink:title=" ">
<polygon fill="white" stroke="black" points="3278.5,-268.5 3278.5,-298.5 3427.5,-298.5 3427.5,-268.5 3278.5,-268.5"/>
<text text-anchor="start" x="3286.5" y="-286.5" font-family="Helvetica,sans-Serif" font-size="10.00">itkGPUAnisotropicDiffusion</text>
<text text-anchor="middle" x="3353" y="-275.5" font-family="Helvetica,sans-Serif" font-size="10.00">Function.h</text>
</a>
</g>
</g>
<!-- Node41&#45;&gt;Node42 -->
<g id="edge47" class="edge">
<title>Node41&#45;&gt;Node42</title>
<path fill="none" stroke="midnightblue" d="M3385.39,-332.35C3378.27,-321.82 3369.25,-308.5 3362.54,-298.59"/>
<polygon fill="midnightblue" stroke="midnightblue" points="3382.56,-334.41 3391.07,-340.73 3388.36,-330.49 3382.56,-334.41"/>
</g>
<!-- Node45 -->
<g id="node45" class="node">
<title>Node45</title>
<g id="a_node45"><a xlink:href="itkGPUPDEDeformableRegistrationFunction_8h.html" target="_top" xlink:title=" ">
<polygon fill="white" stroke="black" points="3073.5,-268.5 3073.5,-298.5 3260.5,-298.5 3260.5,-268.5 3073.5,-268.5"/>
<text text-anchor="start" x="3081.5" y="-286.5" font-family="Helvetica,sans-Serif" font-size="10.00">itkGPUPDEDeformableRegistration</text>
<text text-anchor="middle" x="3167" y="-275.5" font-family="Helvetica,sans-Serif" font-size="10.00">Function.h</text>
</a>
</g>
</g>
<!-- Node41&#45;&gt;Node45 -->
<g id="edge51" class="edge">
<title>Node41&#45;&gt;Node45</title>
<path fill="none" stroke="midnightblue" d="M3356.51,-338.06C3317.52,-327.04 3258.45,-310.34 3216.64,-298.53"/>
<polygon fill="midnightblue" stroke="midnightblue" points="3355.88,-341.52 3366.46,-340.87 3357.79,-334.78 3355.88,-341.52"/>
</g>
<!-- Node43 -->
<g id="node43" class="node">
<title>Node43</title>
<g id="a_node43"><a xlink:href="itkGPUScalarAnisotropicDiffusionFunction_8h.html" target="_top" xlink:title=" ">
<polygon fill="white" stroke="black" points="3263.5,-201.5 3263.5,-231.5 3442.5,-231.5 3442.5,-201.5 3263.5,-201.5"/>
<text text-anchor="start" x="3271.5" y="-219.5" font-family="Helvetica,sans-Serif" font-size="10.00">itkGPUScalarAnisotropicDiffusion</text>
<text text-anchor="middle" x="3353" y="-208.5" font-family="Helvetica,sans-Serif" font-size="10.00">Function.h</text>
</a>
</g>
</g>
<!-- Node42&#45;&gt;Node43 -->
<g id="edge48" class="edge">
<title>Node42&#45;&gt;Node43</title>
<path fill="none" stroke="midnightblue" d="M3353,-258.11C3353,-249.15 3353,-239.32 3353,-231.58"/>
<polygon fill="midnightblue" stroke="midnightblue" points="3349.5,-258.4 3353,-268.4 3356.5,-258.4 3349.5,-258.4"/>
</g>
<!-- Node44 -->
<g id="node44" class="node">
<title>Node44</title>
<g id="a_node44"><a xlink:href="itkGPUGradientNDAnisotropicDiffusionFunction_8h.html" target="_top" xlink:title=" ">
<polygon fill="white" stroke="black" points="3305,-134.5 3305,-164.5 3467,-164.5 3467,-134.5 3305,-134.5"/>
<text text-anchor="start" x="3313" y="-152.5" font-family="Helvetica,sans-Serif" font-size="10.00">itkGPUGradientNDAnisotropic</text>
<text text-anchor="middle" x="3386" y="-141.5" font-family="Helvetica,sans-Serif" font-size="10.00">DiffusionFunction.h</text>
</a>
</g>
</g>
<!-- Node43&#45;&gt;Node44 -->
<g id="edge49" class="edge">
<title>Node43&#45;&gt;Node44</title>
<path fill="none" stroke="midnightblue" d="M3364.79,-192.28C3369.49,-183.02 3374.75,-172.66 3378.85,-164.58"/>
<polygon fill="midnightblue" stroke="midnightblue" points="3361.57,-190.89 3360.16,-201.4 3367.81,-194.06 3361.57,-190.89"/>
</g>
<!-- Node44&#45;&gt;Node31 -->
<g id="edge50" class="edge">
<title>Node44&#45;&gt;Node31</title>
<path fill="none" stroke="midnightblue" d="M3413.21,-128.17C3426.52,-118.23 3442.2,-106.51 3454.16,-97.58"/>
<polygon fill="midnightblue" stroke="midnightblue" points="3410.79,-125.61 3404.88,-134.4 3414.98,-131.21 3410.79,-125.61"/>
</g>
<!-- Node45&#45;&gt;Node33 -->
<g id="edge52" class="edge">
<title>Node45&#45;&gt;Node33</title>
<path fill="none" stroke="midnightblue" d="M3182.9,-259.61C3187.78,-251.3 3192.52,-241.59 3195,-232 3200.95,-208.98 3198.23,-181.07 3195.66,-164.61"/>
<polygon fill="midnightblue" stroke="midnightblue" points="3179.79,-257.98 3177.44,-268.31 3185.72,-261.7 3179.79,-257.98"/>
</g>
<!-- Node45&#45;&gt;Node40 -->
<g id="edge53" class="edge">
<title>Node45&#45;&gt;Node40</title>
<path fill="none" stroke="midnightblue" d="M3148.25,-260.74C3139.96,-251.12 3130.46,-240.09 3123.13,-231.58"/>
<polygon fill="midnightblue" stroke="midnightblue" points="3145.67,-263.1 3154.85,-268.4 3150.97,-258.54 3145.67,-263.1"/>
</g>
</g>
</svg>
