<?xml version="1.0" encoding="UTF-8" standalone="no"?>
<!DOCTYPE svg PUBLIC "-//W3C//DTD SVG 1.1//EN"
 "http://www.w3.org/Graphics/SVG/1.1/DTD/svg11.dtd">
<!-- Generated by graphviz version 2.43.0 (0)
 -->
<!-- Title: itkVector.h Pages: 1 -->
<svg width="563pt" height="263pt"
 viewBox="0.00 0.00 563.07 263.00" xmlns="http://www.w3.org/2000/svg" xmlns:xlink="http://www.w3.org/1999/xlink">
<g id="graph0" class="graph" transform="scale(1 1) rotate(0) translate(4 259)">
<title>itkVector.h</title>
<polygon fill="white" stroke="transparent" points="-4,4 -4,-259 559.07,-259 559.07,4 -4,4"/>
<!-- Node1 -->
<g id="node1" class="node">
<title>Node1</title>
<g id="a_node1"><a xlink:title=" ">
<polygon fill="#bfbfbf" stroke="black" points="362.97,-235.5 362.97,-254.5 430.97,-254.5 430.97,-235.5 362.97,-235.5"/>
<text text-anchor="middle" x="396.97" y="-242.5" font-family="Helvetica,sans-Serif" font-size="10.00">itkVector.h</text>
</a>
</g>
</g>
<!-- Node2 -->
<g id="node2" class="node">
<title>Node2</title>
<g id="a_node2"><a xlink:href="itkFixedArray_8h.html" target="_top" xlink:title=" ">
<polygon fill="white" stroke="black" points="233.47,-179.5 233.47,-198.5 322.47,-198.5 322.47,-179.5 233.47,-179.5"/>
<text text-anchor="middle" x="277.97" y="-186.5" font-family="Helvetica,sans-Serif" font-size="10.00">itkFixedArray.h</text>
</a>
</g>
</g>
<!-- Node1&#45;&gt;Node2 -->
<g id="edge1" class="edge">
<title>Node1&#45;&gt;Node2</title>
<path fill="none" stroke="midnightblue" d="M378.11,-235.44C358.7,-226.64 328.24,-212.81 306.01,-202.72"/>
<polygon fill="midnightblue" stroke="midnightblue" points="307.29,-199.46 296.74,-198.52 304.4,-205.84 307.29,-199.46"/>
</g>
<!-- Node12 -->
<g id="node12" class="node">
<title>Node12</title>
<g id="a_node12"><a xlink:title=" ">
<polygon fill="white" stroke="#bfbfbf" points="340.47,-179.5 340.47,-198.5 453.47,-198.5 453.47,-179.5 340.47,-179.5"/>
<text text-anchor="middle" x="396.97" y="-186.5" font-family="Helvetica,sans-Serif" font-size="10.00">vnl/vnl_vector_ref.h</text>
</a>
</g>
</g>
<!-- Node1&#45;&gt;Node12 -->
<g id="edge14" class="edge">
<title>Node1&#45;&gt;Node12</title>
<path fill="none" stroke="midnightblue" d="M396.97,-235.08C396.97,-228.01 396.97,-217.86 396.97,-208.99"/>
<polygon fill="midnightblue" stroke="midnightblue" points="400.47,-208.75 396.97,-198.75 393.47,-208.75 400.47,-208.75"/>
</g>
<!-- Node13 -->
<g id="node13" class="node">
<title>Node13</title>
<g id="a_node13"><a xlink:title=" ">
<polygon fill="white" stroke="#bfbfbf" points="471.97,-179.5 471.97,-198.5 551.97,-198.5 551.97,-179.5 471.97,-179.5"/>
<text text-anchor="middle" x="511.97" y="-186.5" font-family="Helvetica,sans-Serif" font-size="10.00">itkVector.hxx</text>
</a>
</g>
</g>
<!-- Node1&#45;&gt;Node13 -->
<g id="edge15" class="edge">
<title>Node1&#45;&gt;Node13</title>
<path fill="none" stroke="midnightblue" d="M415.19,-235.44C433.87,-226.68 463.13,-212.94 484.59,-202.86"/>
<polygon fill="midnightblue" stroke="midnightblue" points="486.27,-205.93 493.83,-198.52 483.29,-199.6 486.27,-205.93"/>
</g>
<!-- Node3 -->
<g id="node3" class="node">
<title>Node3</title>
<g id="a_node3"><a xlink:href="itkMacro_8h.html" target="_top" xlink:title=" ">
<polygon fill="white" stroke="black" points="140.97,-0.5 140.97,-19.5 208.97,-19.5 208.97,-0.5 140.97,-0.5"/>
<text text-anchor="middle" x="174.97" y="-7.5" font-family="Helvetica,sans-Serif" font-size="10.00">itkMacro.h</text>
</a>
</g>
</g>
<!-- Node2&#45;&gt;Node3 -->
<g id="edge2" class="edge">
<title>Node2&#45;&gt;Node3</title>
<path fill="none" stroke="midnightblue" d="M233.4,-187.17C164.95,-184.85 38.93,-176.07 10.97,-143 -33.4,-90.52 75.88,-43.92 137.04,-22.88"/>
<polygon fill="midnightblue" stroke="midnightblue" points="138.41,-26.11 146.78,-19.6 136.18,-19.47 138.41,-26.11"/>
</g>
<!-- Node4 -->
<g id="node4" class="node">
<title>Node4</title>
<g id="a_node4"><a xlink:href="itkMakeFilled_8h.html" target="_top" xlink:title=" ">
<polygon fill="white" stroke="black" points="20.47,-118 20.47,-137 111.47,-137 111.47,-118 20.47,-118"/>
<text text-anchor="middle" x="65.97" y="-125" font-family="Helvetica,sans-Serif" font-size="10.00">itkMakeFilled.h</text>
</a>
</g>
</g>
<!-- Node2&#45;&gt;Node4 -->
<g id="edge3" class="edge">
<title>Node2&#45;&gt;Node4</title>
<path fill="none" stroke="midnightblue" d="M247.6,-179.48C210.36,-169.03 147.16,-151.29 105.99,-139.73"/>
<polygon fill="midnightblue" stroke="midnightblue" points="106.86,-136.34 96.29,-137.01 104.97,-143.08 106.86,-136.34"/>
</g>
<!-- Node5 -->
<g id="node5" class="node">
<title>Node5</title>
<g id="a_node5"><a xlink:title=" ">
<polygon fill="white" stroke="#bfbfbf" points="129.97,-118 129.97,-137 193.97,-137 193.97,-118 129.97,-118"/>
<text text-anchor="middle" x="161.97" y="-125" font-family="Helvetica,sans-Serif" font-size="10.00">algorithm</text>
</a>
</g>
</g>
<!-- Node2&#45;&gt;Node5 -->
<g id="edge4" class="edge">
<title>Node2&#45;&gt;Node5</title>
<path fill="none" stroke="midnightblue" d="M261.35,-179.48C242.06,-169.58 210.01,-153.14 187.54,-141.62"/>
<polygon fill="midnightblue" stroke="midnightblue" points="189.05,-138.46 178.56,-137.01 185.86,-144.69 189.05,-138.46"/>
</g>
<!-- Node6 -->
<g id="node6" class="node">
<title>Node6</title>
<g id="a_node6"><a xlink:title=" ">
<polygon fill="white" stroke="#bfbfbf" points="211.97,-118 211.97,-137 253.97,-137 253.97,-118 211.97,-118"/>
<text text-anchor="middle" x="232.97" y="-125" font-family="Helvetica,sans-Serif" font-size="10.00">array</text>
</a>
</g>
</g>
<!-- Node2&#45;&gt;Node6 -->
<g id="edge5" class="edge">
<title>Node2&#45;&gt;Node6</title>
<path fill="none" stroke="midnightblue" d="M271.52,-179.48C264.77,-170.55 254,-156.31 245.56,-145.14"/>
<polygon fill="midnightblue" stroke="midnightblue" points="248.23,-142.87 239.41,-137.01 242.65,-147.1 248.23,-142.87"/>
</g>
<!-- Node7 -->
<g id="node7" class="node">
<title>Node7</title>
<g id="a_node7"><a xlink:title=" ">
<polygon fill="white" stroke="#bfbfbf" points="272.47,-118 272.47,-137 373.47,-137 373.47,-118 272.47,-118"/>
<text text-anchor="middle" x="322.97" y="-125" font-family="Helvetica,sans-Serif" font-size="10.00">itkFixedArray.hxx</text>
</a>
</g>
</g>
<!-- Node2&#45;&gt;Node7 -->
<g id="edge6" class="edge">
<title>Node2&#45;&gt;Node7</title>
<path fill="none" stroke="midnightblue" d="M284.42,-179.48C291.17,-170.55 301.94,-156.31 310.38,-145.14"/>
<polygon fill="midnightblue" stroke="midnightblue" points="313.29,-147.1 316.53,-137.01 307.71,-142.87 313.29,-147.1"/>
</g>
<!-- Node8 -->
<g id="node8" class="node">
<title>Node8</title>
<g id="a_node8"><a xlink:href="itkNumericTraitsFixedArrayPixel_8h.html" target="_top" xlink:title=" ">
<polygon fill="white" stroke="black" points="391.47,-112.5 391.47,-142.5 540.47,-142.5 540.47,-112.5 391.47,-112.5"/>
<text text-anchor="start" x="399.47" y="-130.5" font-family="Helvetica,sans-Serif" font-size="10.00">itkNumericTraitsFixedArray</text>
<text text-anchor="middle" x="465.97" y="-119.5" font-family="Helvetica,sans-Serif" font-size="10.00">Pixel.h</text>
</a>
</g>
</g>
<!-- Node2&#45;&gt;Node8 -->
<g id="edge7" class="edge">
<title>Node2&#45;&gt;Node8</title>
<path fill="none" stroke="midnightblue" d="M300.01,-179.48C325.93,-170.66 369.72,-156.67 405.86,-145.57"/>
<polygon fill="midnightblue" stroke="midnightblue" points="407.29,-148.79 415.83,-142.52 405.25,-142.1 407.29,-148.79"/>
</g>
<!-- Node8&#45;&gt;Node2 -->
<g id="edge13" class="edge">
<title>Node8&#45;&gt;Node2</title>
<path fill="none" stroke="midnightblue" d="M427.49,-142.52C396,-152.92 351.68,-166.9 319.41,-176.61"/>
<polygon fill="midnightblue" stroke="midnightblue" points="318.39,-173.26 309.81,-179.48 320.39,-179.97 318.39,-173.26"/>
</g>
<!-- Node9 -->
<g id="node9" class="node">
<title>Node9</title>
<g id="a_node9"><a xlink:href="itkNumericTraits_8h.html" target="_top" xlink:title=" ">
<polygon fill="white" stroke="black" points="412.97,-56.5 412.97,-75.5 518.97,-75.5 518.97,-56.5 412.97,-56.5"/>
<text text-anchor="middle" x="465.97" y="-63.5" font-family="Helvetica,sans-Serif" font-size="10.00">itkNumericTraits.h</text>
</a>
</g>
</g>
<!-- Node8&#45;&gt;Node9 -->
<g id="edge8" class="edge">
<title>Node8&#45;&gt;Node9</title>
<path fill="none" stroke="midnightblue" d="M465.97,-112.4C465.97,-104.47 465.97,-94.46 465.97,-85.86"/>
<polygon fill="midnightblue" stroke="midnightblue" points="469.47,-85.66 465.97,-75.66 462.47,-85.66 469.47,-85.66"/>
</g>
<!-- Node9&#45;&gt;Node2 -->
<g id="edge12" class="edge">
<title>Node9&#45;&gt;Node2</title>
<path fill="none" stroke="midnightblue" d="M498.15,-75.51C516.51,-82.2 537.99,-93.55 548.97,-112 556.02,-123.84 557.88,-132.49 548.97,-143 518.94,-178.39 394.15,-171.79 332.53,-179.02"/>
<polygon fill="midnightblue" stroke="midnightblue" points="331.92,-175.57 322.5,-180.42 332.89,-182.5 331.92,-175.57"/>
</g>
<!-- Node9&#45;&gt;Node3 -->
<g id="edge9" class="edge">
<title>Node9&#45;&gt;Node3</title>
<path fill="none" stroke="midnightblue" d="M419.86,-56.44C364.76,-46.22 273.22,-29.23 219.04,-19.18"/>
<polygon fill="midnightblue" stroke="midnightblue" points="219.51,-15.71 209.04,-17.32 218.24,-22.59 219.51,-15.71"/>
</g>
<!-- Node10 -->
<g id="node10" class="node">
<title>Node10</title>
<g id="a_node10"><a xlink:title=" ">
<polygon fill="white" stroke="#bfbfbf" points="408.97,-0.5 408.97,-19.5 452.97,-19.5 452.97,-0.5 408.97,-0.5"/>
<text text-anchor="middle" x="430.97" y="-7.5" font-family="Helvetica,sans-Serif" font-size="10.00">limits</text>
</a>
</g>
</g>
<!-- Node9&#45;&gt;Node10 -->
<g id="edge10" class="edge">
<title>Node9&#45;&gt;Node10</title>
<path fill="none" stroke="midnightblue" d="M460.19,-56.08C455.3,-48.53 448.14,-37.49 442.14,-28.23"/>
<polygon fill="midnightblue" stroke="midnightblue" points="445.02,-26.24 436.64,-19.75 439.14,-30.05 445.02,-26.24"/>
</g>
<!-- Node11 -->
<g id="node11" class="node">
<title>Node11</title>
<g id="a_node11"><a xlink:title=" ">
<polygon fill="white" stroke="#bfbfbf" points="471.47,-0.5 471.47,-19.5 530.47,-19.5 530.47,-0.5 471.47,-0.5"/>
<text text-anchor="middle" x="500.97" y="-7.5" font-family="Helvetica,sans-Serif" font-size="10.00">complex</text>
</a>
</g>
</g>
<!-- Node9&#45;&gt;Node11 -->
<g id="edge11" class="edge">
<title>Node9&#45;&gt;Node11</title>
<path fill="none" stroke="midnightblue" d="M471.75,-56.08C476.64,-48.53 483.8,-37.49 489.8,-28.23"/>
<polygon fill="midnightblue" stroke="midnightblue" points="492.8,-30.05 495.3,-19.75 486.92,-26.24 492.8,-30.05"/>
</g>
</g>
</svg>
