<?xml version="1.0" encoding="UTF-8" standalone="no"?>
<!DOCTYPE svg PUBLIC "-//W3C//DTD SVG 1.1//EN"
 "http://www.w3.org/Graphics/SVG/1.1/DTD/svg11.dtd">
<!-- Generated by graphviz version 2.43.0 (0)
 -->
<!-- Title: itkWatershedSegmentTree.h Pages: 1 -->
<svg width="1636pt" height="711pt"
 viewBox="0.00 0.00 1635.50 711.00" xmlns="http://www.w3.org/2000/svg" xmlns:xlink="http://www.w3.org/1999/xlink">
<g id="graph0" class="graph" transform="scale(1 1) rotate(0) translate(4 707)">
<title>itkWatershedSegmentTree.h</title>
<polygon fill="white" stroke="transparent" points="-4,4 -4,-707 1631.5,-707 1631.5,4 -4,4"/>
<!-- Node1 -->
<g id="node1" class="node">
<title>Node1</title>
<g id="a_node1"><a xlink:title=" ">
<polygon fill="#bfbfbf" stroke="black" points="328.5,-683.5 328.5,-702.5 482.5,-702.5 482.5,-683.5 328.5,-683.5"/>
<text text-anchor="middle" x="405.5" y="-690.5" font-family="Helvetica,sans-Serif" font-size="10.00">itkWatershedSegmentTree.h</text>
</a>
</g>
</g>
<!-- Node2 -->
<g id="node2" class="node">
<title>Node2</title>
<g id="a_node2"><a xlink:href="itkProcessObject_8h.html" target="_top" xlink:title=" ">
<polygon fill="white" stroke="black" points="305,-627.5 305,-646.5 412,-646.5 412,-627.5 305,-627.5"/>
<text text-anchor="middle" x="358.5" y="-634.5" font-family="Helvetica,sans-Serif" font-size="10.00">itkProcessObject.h</text>
</a>
</g>
</g>
<!-- Node1&#45;&gt;Node2 -->
<g id="edge1" class="edge">
<title>Node1&#45;&gt;Node2</title>
<path fill="none" stroke="midnightblue" d="M397.74,-683.08C390.96,-675.3 380.96,-663.8 372.74,-654.37"/>
<polygon fill="midnightblue" stroke="midnightblue" points="375.32,-652 366.12,-646.75 370.04,-656.59 375.32,-652"/>
</g>
<!-- Node28 -->
<g id="node28" class="node">
<title>Node28</title>
<g id="a_node28"><a xlink:title=" ">
<polygon fill="white" stroke="#bfbfbf" points="322,-291.5 322,-310.5 387,-310.5 387,-291.5 322,-291.5"/>
<text text-anchor="middle" x="354.5" y="-298.5" font-family="Helvetica,sans-Serif" font-size="10.00">functional</text>
</a>
</g>
</g>
<!-- Node1&#45;&gt;Node28 -->
<g id="edge84" class="edge">
<title>Node1&#45;&gt;Node28</title>
<path fill="none" stroke="midnightblue" d="M334.03,-683.46C234.24,-669.89 61.11,-639.85 23.5,-591 -74.79,-463.35 214.35,-349.63 318.59,-313.73"/>
<polygon fill="midnightblue" stroke="midnightblue" points="319.74,-317.04 328.08,-310.5 317.48,-310.41 319.74,-317.04"/>
</g>
<!-- Node50 -->
<g id="node50" class="node">
<title>Node50</title>
<g id="a_node50"><a xlink:title=" ">
<polygon fill="white" stroke="#bfbfbf" points="430,-627.5 430,-646.5 477,-646.5 477,-627.5 430,-627.5"/>
<text text-anchor="middle" x="453.5" y="-634.5" font-family="Helvetica,sans-Serif" font-size="10.00">deque</text>
</a>
</g>
</g>
<!-- Node1&#45;&gt;Node50 -->
<g id="edge83" class="edge">
<title>Node1&#45;&gt;Node50</title>
<path fill="none" stroke="midnightblue" d="M413.43,-683.08C420.35,-675.3 430.57,-663.8 438.95,-654.37"/>
<polygon fill="midnightblue" stroke="midnightblue" points="441.69,-656.55 445.72,-646.75 436.46,-651.9 441.69,-656.55"/>
</g>
<!-- Node51 -->
<g id="node51" class="node">
<title>Node51</title>
<g id="a_node51"><a xlink:title=" ">
<polygon fill="white" stroke="#bfbfbf" points="495.5,-627.5 495.5,-646.5 661.5,-646.5 661.5,-627.5 495.5,-627.5"/>
<text text-anchor="middle" x="578.5" y="-634.5" font-family="Helvetica,sans-Serif" font-size="10.00">itkWatershedSegmentTree.hxx</text>
</a>
</g>
</g>
<!-- Node1&#45;&gt;Node51 -->
<g id="edge85" class="edge">
<title>Node1&#45;&gt;Node51</title>
<path fill="none" stroke="midnightblue" d="M432.91,-683.44C462.27,-674.28 509.02,-659.69 541.6,-649.52"/>
<polygon fill="midnightblue" stroke="midnightblue" points="542.71,-652.84 551.22,-646.52 540.63,-646.16 542.71,-652.84"/>
</g>
<!-- Node3 -->
<g id="node3" class="node">
<title>Node3</title>
<g id="a_node3"><a xlink:href="itkDataObject_8h.html" target="_top" xlink:title=" ">
<polygon fill="white" stroke="black" points="631,-571.5 631,-590.5 724,-590.5 724,-571.5 631,-571.5"/>
<text text-anchor="middle" x="677.5" y="-578.5" font-family="Helvetica,sans-Serif" font-size="10.00">itkDataObject.h</text>
</a>
</g>
</g>
<!-- Node2&#45;&gt;Node3 -->
<g id="edge2" class="edge">
<title>Node2&#45;&gt;Node3</title>
<path fill="none" stroke="midnightblue" d="M409.05,-627.44C466.67,-617.69 560.65,-601.78 620.75,-591.61"/>
<polygon fill="midnightblue" stroke="midnightblue" points="621.55,-595.02 630.82,-589.9 620.38,-588.12 621.55,-595.02"/>
</g>
<!-- Node23 -->
<g id="node23" class="node">
<title>Node23</title>
<g id="a_node23"><a xlink:title=" ">
<polygon fill="white" stroke="#bfbfbf" points="1041.5,-230 1041.5,-249 1105.5,-249 1105.5,-230 1041.5,-230"/>
<text text-anchor="middle" x="1073.5" y="-237" font-family="Helvetica,sans-Serif" font-size="10.00">algorithm</text>
</a>
</g>
</g>
<!-- Node2&#45;&gt;Node23 -->
<g id="edge81" class="edge">
<title>Node2&#45;&gt;Node23</title>
<path fill="none" stroke="midnightblue" d="M412.1,-628.24C415.28,-627.81 418.43,-627.4 421.5,-627 564.52,-608.54 1062.5,-670.2 1062.5,-526 1062.5,-526 1062.5,-526 1062.5,-356 1062.5,-321.71 1067.36,-281.95 1070.62,-259.16"/>
<polygon fill="midnightblue" stroke="midnightblue" points="1074.1,-259.57 1072.11,-249.17 1067.18,-258.54 1074.1,-259.57"/>
</g>
<!-- Node24 -->
<g id="node24" class="node">
<title>Node24</title>
<g id="a_node24"><a xlink:title=" ">
<polygon fill="white" stroke="#bfbfbf" points="142,-230 142,-249 189,-249 189,-230 142,-230"/>
<text text-anchor="middle" x="165.5" y="-237" font-family="Helvetica,sans-Serif" font-size="10.00">vector</text>
</a>
</g>
</g>
<!-- Node2&#45;&gt;Node24 -->
<g id="edge78" class="edge">
<title>Node2&#45;&gt;Node24</title>
<path fill="none" stroke="midnightblue" d="M341.6,-627.49C313.44,-612.52 256.86,-578.82 224.5,-535 163.07,-451.8 167.93,-414.22 161.5,-311 160.41,-293.43 161.8,-273.39 163.23,-259.17"/>
<polygon fill="midnightblue" stroke="midnightblue" points="166.72,-259.51 164.34,-249.18 159.76,-258.74 166.72,-259.51"/>
</g>
<!-- Node25 -->
<g id="node25" class="node">
<title>Node25</title>
<g id="a_node25"><a xlink:title=" ">
<polygon fill="white" stroke="#bfbfbf" points="283.5,-230 283.5,-249 321.5,-249 321.5,-230 283.5,-230"/>
<text text-anchor="middle" x="302.5" y="-237" font-family="Helvetica,sans-Serif" font-size="10.00">map</text>
</a>
</g>
</g>
<!-- Node2&#45;&gt;Node25 -->
<g id="edge79" class="edge">
<title>Node2&#45;&gt;Node25</title>
<path fill="none" stroke="midnightblue" d="M375.96,-627.48C389.96,-619.79 409.09,-607.2 420.5,-591 437.83,-566.39 439.5,-556.1 439.5,-526 439.5,-526 439.5,-526 439.5,-412 439.5,-373.58 412.71,-370.74 382.5,-347 355.3,-325.63 333.66,-339.1 313.5,-311 302.8,-296.08 300.8,-274.81 301.02,-259.53"/>
<polygon fill="midnightblue" stroke="midnightblue" points="304.53,-259.39 301.5,-249.23 297.53,-259.05 304.53,-259.39"/>
</g>
<!-- Node32 -->
<g id="node32" class="node">
<title>Node32</title>
<g id="a_node32"><a xlink:href="itkObjectFactory_8h.html" target="_top" xlink:title=" ">
<polygon fill="white" stroke="black" points="233.5,-515.5 233.5,-534.5 337.5,-534.5 337.5,-515.5 233.5,-515.5"/>
<text text-anchor="middle" x="285.5" y="-522.5" font-family="Helvetica,sans-Serif" font-size="10.00">itkObjectFactory.h</text>
</a>
</g>
</g>
<!-- Node2&#45;&gt;Node32 -->
<g id="edge61" class="edge">
<title>Node2&#45;&gt;Node32</title>
<path fill="none" stroke="midnightblue" d="M344.04,-627.44C331.8,-619.47 314.67,-606.51 304.5,-591 295.34,-577.02 290.49,-558.52 287.99,-544.83"/>
<polygon fill="midnightblue" stroke="midnightblue" points="291.41,-544.01 286.4,-534.67 284.49,-545.09 291.41,-544.01"/>
</g>
<!-- Node38 -->
<g id="node38" class="node">
<title>Node38</title>
<g id="a_node38"><a xlink:href="itkNumericTraits_8h.html" target="_top" xlink:title=" ">
<polygon fill="white" stroke="black" points="1272.5,-347.5 1272.5,-366.5 1378.5,-366.5 1378.5,-347.5 1272.5,-347.5"/>
<text text-anchor="middle" x="1325.5" y="-354.5" font-family="Helvetica,sans-Serif" font-size="10.00">itkNumericTraits.h</text>
</a>
</g>
</g>
<!-- Node2&#45;&gt;Node38 -->
<g id="edge62" class="edge">
<title>Node2&#45;&gt;Node38</title>
<path fill="none" stroke="midnightblue" d="M412.08,-628.02C415.26,-627.65 418.42,-627.3 421.5,-627 566.57,-612.68 937.44,-634.72 1076.5,-591 1128.86,-574.54 1181.5,-580.88 1181.5,-526 1181.5,-526 1181.5,-526 1181.5,-468 1181.5,-415.76 1242.09,-385.01 1284.67,-369.85"/>
<polygon fill="midnightblue" stroke="midnightblue" points="1285.91,-373.12 1294.25,-366.58 1283.66,-366.49 1285.91,-373.12"/>
</g>
<!-- Node46 -->
<g id="node46" class="node">
<title>Node46</title>
<g id="a_node46"><a xlink:href="itkThreadSupport_8h.html" target="_top" xlink:title=" ">
<polygon fill="white" stroke="black" points="32.5,-571.5 32.5,-590.5 142.5,-590.5 142.5,-571.5 32.5,-571.5"/>
<text text-anchor="middle" x="87.5" y="-578.5" font-family="Helvetica,sans-Serif" font-size="10.00">itkThreadSupport.h</text>
</a>
</g>
</g>
<!-- Node2&#45;&gt;Node46 -->
<g id="edge75" class="edge">
<title>Node2&#45;&gt;Node46</title>
<path fill="none" stroke="midnightblue" d="M315.56,-627.44C267.99,-617.96 191.26,-602.67 140.11,-592.48"/>
<polygon fill="midnightblue" stroke="midnightblue" points="140.73,-589.04 130.24,-590.52 139.36,-595.9 140.73,-589.04"/>
</g>
<!-- Node48 -->
<g id="node48" class="node">
<title>Node48</title>
<g id="a_node48"><a xlink:title=" ">
<polygon fill="white" stroke="#bfbfbf" points="313.5,-571.5 313.5,-590.5 345.5,-590.5 345.5,-571.5 313.5,-571.5"/>
<text text-anchor="middle" x="329.5" y="-578.5" font-family="Helvetica,sans-Serif" font-size="10.00">set</text>
</a>
</g>
</g>
<!-- Node2&#45;&gt;Node48 -->
<g id="edge80" class="edge">
<title>Node2&#45;&gt;Node48</title>
<path fill="none" stroke="midnightblue" d="M353.71,-627.08C349.74,-619.69 343.97,-608.95 339.07,-599.81"/>
<polygon fill="midnightblue" stroke="midnightblue" points="342.01,-597.91 334.2,-590.75 335.85,-601.22 342.01,-597.91"/>
</g>
<!-- Node49 -->
<g id="node49" class="node">
<title>Node49</title>
<g id="a_node49"><a xlink:title=" ">
<polygon fill="white" stroke="#bfbfbf" points="363.5,-571.5 363.5,-590.5 411.5,-590.5 411.5,-571.5 363.5,-571.5"/>
<text text-anchor="middle" x="387.5" y="-578.5" font-family="Helvetica,sans-Serif" font-size="10.00">thread</text>
</a>
</g>
</g>
<!-- Node2&#45;&gt;Node49 -->
<g id="edge82" class="edge">
<title>Node2&#45;&gt;Node49</title>
<path fill="none" stroke="midnightblue" d="M363.29,-627.08C367.26,-619.69 373.03,-608.95 377.93,-599.81"/>
<polygon fill="midnightblue" stroke="midnightblue" points="381.15,-601.22 382.8,-590.75 374.99,-597.91 381.15,-601.22"/>
</g>
<!-- Node4 -->
<g id="node4" class="node">
<title>Node4</title>
<g id="a_node4"><a xlink:href="itkObject_8h.html" target="_top" xlink:title=" ">
<polygon fill="white" stroke="black" points="542.5,-347.5 542.5,-366.5 612.5,-366.5 612.5,-347.5 542.5,-347.5"/>
<text text-anchor="middle" x="577.5" y="-354.5" font-family="Helvetica,sans-Serif" font-size="10.00">itkObject.h</text>
</a>
</g>
</g>
<!-- Node3&#45;&gt;Node4 -->
<g id="edge3" class="edge">
<title>Node3&#45;&gt;Node4</title>
<path fill="none" stroke="midnightblue" d="M679.15,-571.34C683.87,-543.97 694.87,-457.87 658.5,-403 648.56,-388.01 631.86,-377.53 616.19,-370.48"/>
<polygon fill="midnightblue" stroke="midnightblue" points="617.22,-367.12 606.64,-366.52 614.54,-373.58 617.22,-367.12"/>
</g>
<!-- Node6 -->
<g id="node6" class="node">
<title>Node6</title>
<g id="a_node6"><a xlink:href="itkMacro_8h.html" target="_top" xlink:title=" ">
<polygon fill="white" stroke="black" points="927.5,-0.5 927.5,-19.5 995.5,-19.5 995.5,-0.5 927.5,-0.5"/>
<text text-anchor="middle" x="961.5" y="-7.5" font-family="Helvetica,sans-Serif" font-size="10.00">itkMacro.h</text>
</a>
</g>
</g>
<!-- Node3&#45;&gt;Node6 -->
<g id="edge39" class="edge">
<title>Node3&#45;&gt;Node6</title>
<path fill="none" stroke="midnightblue" d="M724.14,-577.6C774.96,-573.61 857.81,-563.02 923.5,-535 968.88,-515.64 1013.5,-519.34 1013.5,-470 1013.5,-470 1013.5,-470 1013.5,-300 1013.5,-265.18 1014.87,-254.02 1032.5,-224 1065.99,-166.96 1163.14,-169.53 1130.5,-112 1103.39,-64.21 1043.69,-36.62 1003.02,-22.7"/>
<polygon fill="midnightblue" stroke="midnightblue" points="1003.97,-19.32 993.38,-19.53 1001.78,-25.97 1003.97,-19.32"/>
</g>
<!-- Node17 -->
<g id="node17" class="node">
<title>Node17</title>
<g id="a_node17"><a xlink:href="itkSingletonMacro_8h.html" target="_top" xlink:title=" ">
<polygon fill="white" stroke="black" points="253.5,-56.5 253.5,-75.5 367.5,-75.5 367.5,-56.5 253.5,-56.5"/>
<text text-anchor="middle" x="310.5" y="-63.5" font-family="Helvetica,sans-Serif" font-size="10.00">itkSingletonMacro.h</text>
</a>
</g>
</g>
<!-- Node3&#45;&gt;Node17 -->
<g id="edge40" class="edge">
<title>Node3&#45;&gt;Node17</title>
<path fill="none" stroke="midnightblue" d="M630.86,-574.88C571.76,-565.51 477.5,-539.65 477.5,-470 477.5,-470 477.5,-470 477.5,-412 477.5,-287.32 255.5,-365.18 255.5,-240.5 255.5,-240.5 255.5,-240.5 255.5,-177 255.5,-140.57 279.93,-103.84 296.23,-83.39"/>
<polygon fill="midnightblue" stroke="midnightblue" points="298.94,-85.6 302.62,-75.67 293.55,-81.14 298.94,-85.6"/>
</g>
<!-- Node29 -->
<g id="node29" class="node">
<title>Node29</title>
<g id="a_node29"><a xlink:href="itkWeakPointer_8h.html" target="_top" xlink:title=" ">
<polygon fill="white" stroke="black" points="1022,-112.5 1022,-131.5 1121,-131.5 1121,-112.5 1022,-112.5"/>
<text text-anchor="middle" x="1071.5" y="-119.5" font-family="Helvetica,sans-Serif" font-size="10.00">itkWeakPointer.h</text>
</a>
</g>
</g>
<!-- Node3&#45;&gt;Node29 -->
<g id="edge41" class="edge">
<title>Node3&#45;&gt;Node29</title>
<path fill="none" stroke="midnightblue" d="M724.06,-572.74C807.88,-558.35 975.5,-522.94 975.5,-470 975.5,-470 975.5,-470 975.5,-238.5 975.5,-193.33 1019.47,-156.4 1047.89,-137.24"/>
<polygon fill="midnightblue" stroke="midnightblue" points="1050.01,-140.04 1056.5,-131.66 1046.21,-134.17 1050.01,-140.04"/>
</g>
<!-- Node30 -->
<g id="node30" class="node">
<title>Node30</title>
<g id="a_node30"><a xlink:href="itkRealTimeStamp_8h.html" target="_top" xlink:title=" ">
<polygon fill="white" stroke="black" points="831.5,-168.5 831.5,-187.5 947.5,-187.5 947.5,-168.5 831.5,-168.5"/>
<text text-anchor="middle" x="889.5" y="-175.5" font-family="Helvetica,sans-Serif" font-size="10.00">itkRealTimeStamp.h</text>
</a>
</g>
</g>
<!-- Node3&#45;&gt;Node30 -->
<g id="edge44" class="edge">
<title>Node3&#45;&gt;Node30</title>
<path fill="none" stroke="midnightblue" d="M720.07,-571.42C769.55,-558.67 844.5,-529.54 844.5,-470 844.5,-470 844.5,-470 844.5,-300 844.5,-261.15 865.13,-219.43 878.46,-196.54"/>
<polygon fill="midnightblue" stroke="midnightblue" points="881.63,-198.06 883.8,-187.69 875.64,-194.44 881.63,-198.06"/>
</g>
<!-- Node3&#45;&gt;Node32 -->
<g id="edge51" class="edge">
<title>Node3&#45;&gt;Node32</title>
<path fill="none" stroke="midnightblue" d="M630.99,-573.59C560.54,-563.89 426.63,-545.44 347.82,-534.58"/>
<polygon fill="midnightblue" stroke="midnightblue" points="347.93,-531.07 337.55,-533.17 346.97,-538 347.93,-531.07"/>
</g>
<!-- Node5 -->
<g id="node5" class="node">
<title>Node5</title>
<g id="a_node5"><a xlink:href="itkLightObject_8h.html" target="_top" xlink:title=" ">
<polygon fill="white" stroke="black" points="565.5,-168.5 565.5,-187.5 659.5,-187.5 659.5,-168.5 565.5,-168.5"/>
<text text-anchor="middle" x="612.5" y="-175.5" font-family="Helvetica,sans-Serif" font-size="10.00">itkLightObject.h</text>
</a>
</g>
</g>
<!-- Node4&#45;&gt;Node5 -->
<g id="edge4" class="edge">
<title>Node4&#45;&gt;Node5</title>
<path fill="none" stroke="midnightblue" d="M597.13,-347.37C626.83,-333.09 682.1,-301.43 704.5,-255 710.49,-242.59 711.79,-235.69 704.5,-224 694.74,-208.36 677.8,-198.01 661.1,-191.23"/>
<polygon fill="midnightblue" stroke="midnightblue" points="661.94,-187.81 651.35,-187.64 659.52,-194.38 661.94,-187.81"/>
</g>
<!-- Node4&#45;&gt;Node17 -->
<g id="edge37" class="edge">
<title>Node4&#45;&gt;Node17</title>
<path fill="none" stroke="midnightblue" d="M542.18,-350.22C493.75,-340.23 408.23,-314.73 368.5,-255 332.13,-200.32 317.68,-121.73 312.73,-85.99"/>
<polygon fill="midnightblue" stroke="midnightblue" points="316.14,-85.08 311.4,-75.61 309.2,-85.97 316.14,-85.08"/>
</g>
<!-- Node20 -->
<g id="node20" class="node">
<title>Node20</title>
<g id="a_node20"><a xlink:href="itkEventObject_8h.html" target="_top" xlink:title=" ">
<polygon fill="white" stroke="black" points="715.5,-168.5 715.5,-187.5 813.5,-187.5 813.5,-168.5 715.5,-168.5"/>
<text text-anchor="middle" x="764.5" y="-175.5" font-family="Helvetica,sans-Serif" font-size="10.00">itkEventObject.h</text>
</a>
</g>
</g>
<!-- Node4&#45;&gt;Node20 -->
<g id="edge25" class="edge">
<title>Node4&#45;&gt;Node20</title>
<path fill="none" stroke="midnightblue" d="M609.08,-347.39C631.07,-340.26 660.18,-328.43 681.5,-311 719.97,-279.55 745.94,-225.34 757.56,-197.18"/>
<polygon fill="midnightblue" stroke="midnightblue" points="760.86,-198.34 761.31,-187.76 754.36,-195.76 760.86,-198.34"/>
</g>
<!-- Node21 -->
<g id="node21" class="node">
<title>Node21</title>
<g id="a_node21"><a xlink:href="itkMetaDataDictionary_8h.html" target="_top" xlink:title=" ">
<polygon fill="white" stroke="black" points="444,-291.5 444,-310.5 579,-310.5 579,-291.5 444,-291.5"/>
<text text-anchor="middle" x="511.5" y="-298.5" font-family="Helvetica,sans-Serif" font-size="10.00">itkMetaDataDictionary.h</text>
</a>
</g>
</g>
<!-- Node4&#45;&gt;Node21 -->
<g id="edge27" class="edge">
<title>Node4&#45;&gt;Node21</title>
<path fill="none" stroke="midnightblue" d="M566.9,-347.32C557.04,-339.26 542.15,-327.08 530.28,-317.37"/>
<polygon fill="midnightblue" stroke="midnightblue" points="532.25,-314.46 522.3,-310.83 527.82,-319.88 532.25,-314.46"/>
</g>
<!-- Node4&#45;&gt;Node28 -->
<g id="edge38" class="edge">
<title>Node4&#45;&gt;Node28</title>
<path fill="none" stroke="midnightblue" d="M542.16,-347.44C502.8,-337.91 439.16,-322.5 397.07,-312.31"/>
<polygon fill="midnightblue" stroke="midnightblue" points="397.67,-308.85 387.13,-309.9 396.03,-315.66 397.67,-308.85"/>
</g>
<!-- Node5&#45;&gt;Node6 -->
<g id="edge5" class="edge">
<title>Node5&#45;&gt;Node6</title>
<path fill="none" stroke="midnightblue" d="M613.6,-168.25C615.63,-155 620.94,-129.55 633.5,-112 657.7,-78.17 670.33,-72.53 708.5,-56 777.44,-26.14 865.16,-16.09 917.12,-12.71"/>
<polygon fill="midnightblue" stroke="midnightblue" points="917.55,-16.19 927.33,-12.11 917.14,-9.21 917.55,-16.19"/>
</g>
<!-- Node7 -->
<g id="node7" class="node">
<title>Node7</title>
<g id="a_node7"><a xlink:href="itkSmartPointer_8h.html" target="_top" xlink:title=" ">
<polygon fill="white" stroke="black" points="88,-112.5 88,-131.5 189,-131.5 189,-112.5 88,-112.5"/>
<text text-anchor="middle" x="138.5" y="-119.5" font-family="Helvetica,sans-Serif" font-size="10.00">itkSmartPointer.h</text>
</a>
</g>
</g>
<!-- Node5&#45;&gt;Node7 -->
<g id="edge6" class="edge">
<title>Node5&#45;&gt;Node7</title>
<path fill="none" stroke="midnightblue" d="M565.32,-171.62C478.79,-161.77 294.82,-140.81 199.15,-129.91"/>
<polygon fill="midnightblue" stroke="midnightblue" points="199.38,-126.41 189.05,-128.76 198.59,-133.37 199.38,-126.41"/>
</g>
<!-- Node8 -->
<g id="node8" class="node">
<title>Node8</title>
<g id="a_node8"><a xlink:title=" ">
<polygon fill="white" stroke="#bfbfbf" points="747.5,-56.5 747.5,-75.5 807.5,-75.5 807.5,-56.5 747.5,-56.5"/>
<text text-anchor="middle" x="777.5" y="-63.5" font-family="Helvetica,sans-Serif" font-size="10.00">iostream</text>
</a>
</g>
</g>
<!-- Node5&#45;&gt;Node8 -->
<g id="edge23" class="edge">
<title>Node5&#45;&gt;Node8</title>
<path fill="none" stroke="midnightblue" d="M642.79,-168.49C665.54,-161.17 696.74,-149.06 720.5,-132 738.9,-118.78 755.42,-98.56 765.88,-84.18"/>
<polygon fill="midnightblue" stroke="midnightblue" points="768.94,-85.9 771.83,-75.71 763.22,-81.88 768.94,-85.9"/>
</g>
<!-- Node12 -->
<g id="node12" class="node">
<title>Node12</title>
<g id="a_node12"><a xlink:href="itkTimeStamp_8h.html" target="_top" xlink:title=" ">
<polygon fill="white" stroke="black" points="452,-112.5 452,-131.5 547,-131.5 547,-112.5 452,-112.5"/>
<text text-anchor="middle" x="499.5" y="-119.5" font-family="Helvetica,sans-Serif" font-size="10.00">itkTimeStamp.h</text>
</a>
</g>
</g>
<!-- Node5&#45;&gt;Node12 -->
<g id="edge11" class="edge">
<title>Node5&#45;&gt;Node12</title>
<path fill="none" stroke="midnightblue" d="M594.59,-168.44C576.25,-159.68 547.49,-145.94 526.41,-135.86"/>
<polygon fill="midnightblue" stroke="midnightblue" points="527.85,-132.67 517.32,-131.52 524.83,-138.99 527.85,-132.67"/>
</g>
<!-- Node16 -->
<g id="node16" class="node">
<title>Node16</title>
<g id="a_node16"><a xlink:title=" ">
<polygon fill="white" stroke="#bfbfbf" points="535.5,-56.5 535.5,-75.5 585.5,-75.5 585.5,-56.5 535.5,-56.5"/>
<text text-anchor="middle" x="560.5" y="-63.5" font-family="Helvetica,sans-Serif" font-size="10.00">atomic</text>
</a>
</g>
</g>
<!-- Node5&#45;&gt;Node16 -->
<g id="edge22" class="edge">
<title>Node5&#45;&gt;Node16</title>
<path fill="none" stroke="midnightblue" d="M608.42,-168.37C599.95,-150.46 580.32,-108.92 568.98,-84.95"/>
<polygon fill="midnightblue" stroke="midnightblue" points="572,-83.14 564.56,-75.59 565.67,-86.13 572,-83.14"/>
</g>
<!-- Node18 -->
<g id="node18" class="node">
<title>Node18</title>
<g id="a_node18"><a xlink:href="itkIndent_8h.html" target="_top" xlink:title=" ">
<polygon fill="white" stroke="black" points="642,-112.5 642,-131.5 711,-131.5 711,-112.5 642,-112.5"/>
<text text-anchor="middle" x="676.5" y="-119.5" font-family="Helvetica,sans-Serif" font-size="10.00">itkIndent.h</text>
</a>
</g>
</g>
<!-- Node5&#45;&gt;Node18 -->
<g id="edge19" class="edge">
<title>Node5&#45;&gt;Node18</title>
<path fill="none" stroke="midnightblue" d="M622.78,-168.32C632.34,-160.26 646.78,-148.08 658.28,-138.37"/>
<polygon fill="midnightblue" stroke="midnightblue" points="660.64,-140.96 666.03,-131.83 656.13,-135.61 660.64,-140.96"/>
</g>
<!-- Node19 -->
<g id="node19" class="node">
<title>Node19</title>
<g id="a_node19"><a xlink:title=" ">
<polygon fill="white" stroke="#bfbfbf" points="377,-112.5 377,-131.5 434,-131.5 434,-112.5 377,-112.5"/>
<text text-anchor="middle" x="405.5" y="-119.5" font-family="Helvetica,sans-Serif" font-size="10.00">typeinfo</text>
</a>
</g>
</g>
<!-- Node5&#45;&gt;Node19 -->
<g id="edge24" class="edge">
<title>Node5&#45;&gt;Node19</title>
<path fill="none" stroke="midnightblue" d="M579.7,-168.44C542.86,-158.83 483.14,-143.25 444.09,-133.07"/>
<polygon fill="midnightblue" stroke="midnightblue" points="444.71,-129.61 434.15,-130.47 442.94,-136.38 444.71,-129.61"/>
</g>
<!-- Node7&#45;&gt;Node8 -->
<g id="edge7" class="edge">
<title>Node7&#45;&gt;Node8</title>
<path fill="none" stroke="midnightblue" d="M189.18,-116.72C312.28,-106.31 625.18,-79.87 737,-70.42"/>
<polygon fill="midnightblue" stroke="midnightblue" points="737.51,-73.89 747.18,-69.56 736.93,-66.92 737.51,-73.89"/>
</g>
<!-- Node9 -->
<g id="node9" class="node">
<title>Node9</title>
<g id="a_node9"><a xlink:title=" ">
<polygon fill="white" stroke="#bfbfbf" points="190,-56.5 190,-75.5 235,-75.5 235,-56.5 190,-56.5"/>
<text text-anchor="middle" x="212.5" y="-63.5" font-family="Helvetica,sans-Serif" font-size="10.00">utility</text>
</a>
</g>
</g>
<!-- Node7&#45;&gt;Node9 -->
<g id="edge8" class="edge">
<title>Node7&#45;&gt;Node9</title>
<path fill="none" stroke="midnightblue" d="M150.39,-112.32C161.65,-104.11 178.79,-91.6 192.21,-81.81"/>
<polygon fill="midnightblue" stroke="midnightblue" points="194.38,-84.56 200.39,-75.83 190.25,-78.9 194.38,-84.56"/>
</g>
<!-- Node10 -->
<g id="node10" class="node">
<title>Node10</title>
<g id="a_node10"><a xlink:title=" ">
<polygon fill="white" stroke="#bfbfbf" points="103,-56.5 103,-75.5 172,-75.5 172,-56.5 103,-56.5"/>
<text text-anchor="middle" x="137.5" y="-63.5" font-family="Helvetica,sans-Serif" font-size="10.00">type_traits</text>
</a>
</g>
</g>
<!-- Node7&#45;&gt;Node10 -->
<g id="edge9" class="edge">
<title>Node7&#45;&gt;Node10</title>
<path fill="none" stroke="midnightblue" d="M138.33,-112.08C138.2,-105.01 138.02,-94.86 137.85,-85.99"/>
<polygon fill="midnightblue" stroke="midnightblue" points="141.35,-85.68 137.66,-75.75 134.35,-85.81 141.35,-85.68"/>
</g>
<!-- Node11 -->
<g id="node11" class="node">
<title>Node11</title>
<g id="a_node11"><a xlink:title=" ">
<polygon fill="white" stroke="#bfbfbf" points="0,-56.5 0,-75.5 85,-75.5 85,-56.5 0,-56.5"/>
<text text-anchor="middle" x="42.5" y="-63.5" font-family="Helvetica,sans-Serif" font-size="10.00">itkConfigure.h</text>
</a>
</g>
</g>
<!-- Node7&#45;&gt;Node11 -->
<g id="edge10" class="edge">
<title>Node7&#45;&gt;Node11</title>
<path fill="none" stroke="midnightblue" d="M123.08,-112.32C107.96,-103.82 84.68,-90.73 67.03,-80.8"/>
<polygon fill="midnightblue" stroke="midnightblue" points="68.32,-77.51 57.89,-75.65 64.89,-83.61 68.32,-77.51"/>
</g>
<!-- Node12&#45;&gt;Node6 -->
<g id="edge12" class="edge">
<title>Node12&#45;&gt;Node6</title>
<path fill="none" stroke="midnightblue" d="M500.36,-112.12C502.28,-97.74 508.27,-69.57 526.5,-56 557.37,-33.01 812.28,-18.21 916.93,-13.04"/>
<polygon fill="midnightblue" stroke="midnightblue" points="917.34,-16.53 927.16,-12.55 917,-9.54 917.34,-16.53"/>
</g>
<!-- Node13 -->
<g id="node13" class="node">
<title>Node13</title>
<g id="a_node13"><a xlink:href="itkIntTypes_8h.html" target="_top" xlink:title=" ">
<polygon fill="white" stroke="black" points="400,-56.5 400,-75.5 479,-75.5 479,-56.5 400,-56.5"/>
<text text-anchor="middle" x="439.5" y="-63.5" font-family="Helvetica,sans-Serif" font-size="10.00">itkIntTypes.h</text>
</a>
</g>
</g>
<!-- Node12&#45;&gt;Node13 -->
<g id="edge13" class="edge">
<title>Node12&#45;&gt;Node13</title>
<path fill="none" stroke="midnightblue" d="M489.86,-112.32C480.99,-104.34 467.63,-92.31 456.89,-82.65"/>
<polygon fill="midnightblue" stroke="midnightblue" points="459.09,-79.92 449.32,-75.83 454.41,-85.13 459.09,-79.92"/>
</g>
<!-- Node12&#45;&gt;Node16 -->
<g id="edge17" class="edge">
<title>Node12&#45;&gt;Node16</title>
<path fill="none" stroke="midnightblue" d="M509.3,-112.32C518.32,-104.34 531.91,-92.31 542.82,-82.65"/>
<polygon fill="midnightblue" stroke="midnightblue" points="545.35,-85.08 550.52,-75.83 540.71,-79.84 545.35,-85.08"/>
</g>
<!-- Node12&#45;&gt;Node17 -->
<g id="edge18" class="edge">
<title>Node12&#45;&gt;Node17</title>
<path fill="none" stroke="midnightblue" d="M469.55,-112.44C437.34,-103.24 385.97,-88.56 350.36,-78.39"/>
<polygon fill="midnightblue" stroke="midnightblue" points="350.88,-74.9 340.31,-75.52 348.96,-81.63 350.88,-74.9"/>
</g>
<!-- Node13&#45;&gt;Node6 -->
<g id="edge14" class="edge">
<title>Node13&#45;&gt;Node6</title>
<path fill="none" stroke="midnightblue" d="M479.27,-58.05C484.05,-57.31 488.88,-56.61 493.5,-56 648.72,-35.63 834.05,-20.52 917.25,-14.23"/>
<polygon fill="midnightblue" stroke="midnightblue" points="917.64,-17.71 927.35,-13.47 917.12,-10.73 917.64,-17.71"/>
</g>
<!-- Node14 -->
<g id="node14" class="node">
<title>Node14</title>
<g id="a_node14"><a xlink:title=" ">
<polygon fill="white" stroke="#bfbfbf" points="380.5,-0.5 380.5,-19.5 430.5,-19.5 430.5,-0.5 380.5,-0.5"/>
<text text-anchor="middle" x="405.5" y="-7.5" font-family="Helvetica,sans-Serif" font-size="10.00">cstdint</text>
</a>
</g>
</g>
<!-- Node13&#45;&gt;Node14 -->
<g id="edge15" class="edge">
<title>Node13&#45;&gt;Node14</title>
<path fill="none" stroke="midnightblue" d="M433.89,-56.08C429.13,-48.53 422.18,-37.49 416.35,-28.23"/>
<polygon fill="midnightblue" stroke="midnightblue" points="419.3,-26.35 411.01,-19.75 413.38,-30.08 419.3,-26.35"/>
</g>
<!-- Node15 -->
<g id="node15" class="node">
<title>Node15</title>
<g id="a_node15"><a xlink:title=" ">
<polygon fill="white" stroke="#bfbfbf" points="448.5,-0.5 448.5,-19.5 498.5,-19.5 498.5,-0.5 448.5,-0.5"/>
<text text-anchor="middle" x="473.5" y="-7.5" font-family="Helvetica,sans-Serif" font-size="10.00">climits</text>
</a>
</g>
</g>
<!-- Node13&#45;&gt;Node15 -->
<g id="edge16" class="edge">
<title>Node13&#45;&gt;Node15</title>
<path fill="none" stroke="midnightblue" d="M445.11,-56.08C449.87,-48.53 456.82,-37.49 462.65,-28.23"/>
<polygon fill="midnightblue" stroke="midnightblue" points="465.62,-30.08 467.99,-19.75 459.7,-26.35 465.62,-30.08"/>
</g>
<!-- Node18&#45;&gt;Node6 -->
<g id="edge20" class="edge">
<title>Node18&#45;&gt;Node6</title>
<path fill="none" stroke="midnightblue" d="M682.17,-112.22C691.88,-97.97 713.1,-70.01 738.5,-56 794.93,-24.88 870.01,-15.15 917.05,-12.18"/>
<polygon fill="midnightblue" stroke="midnightblue" points="917.43,-15.67 927.22,-11.62 917.04,-8.68 917.43,-15.67"/>
</g>
<!-- Node18&#45;&gt;Node8 -->
<g id="edge21" class="edge">
<title>Node18&#45;&gt;Node8</title>
<path fill="none" stroke="midnightblue" d="M692.73,-112.32C708.85,-103.7 733.8,-90.36 752.46,-80.39"/>
<polygon fill="midnightblue" stroke="midnightblue" points="754.14,-83.46 761.31,-75.65 750.84,-77.28 754.14,-83.46"/>
</g>
<!-- Node20&#45;&gt;Node18 -->
<g id="edge26" class="edge">
<title>Node20&#45;&gt;Node18</title>
<path fill="none" stroke="midnightblue" d="M750.36,-168.32C736.63,-159.9 715.56,-146.97 699.44,-137.07"/>
<polygon fill="midnightblue" stroke="midnightblue" points="700.96,-133.9 690.6,-131.65 697.3,-139.87 700.96,-133.9"/>
</g>
<!-- Node22 -->
<g id="node22" class="node">
<title>Node22</title>
<g id="a_node22"><a xlink:href="itkMetaDataObjectBase_8h.html" target="_top" xlink:title=" ">
<polygon fill="white" stroke="black" points="553.5,-230 553.5,-249 695.5,-249 695.5,-230 553.5,-230"/>
<text text-anchor="middle" x="624.5" y="-237" font-family="Helvetica,sans-Serif" font-size="10.00">itkMetaDataObjectBase.h</text>
</a>
</g>
</g>
<!-- Node21&#45;&gt;Node22 -->
<g id="edge28" class="edge">
<title>Node21&#45;&gt;Node22</title>
<path fill="none" stroke="midnightblue" d="M527.69,-291.48C546.4,-281.62 577.42,-265.29 599.3,-253.77"/>
<polygon fill="midnightblue" stroke="midnightblue" points="601.12,-256.77 608.34,-249.01 597.86,-250.57 601.12,-256.77"/>
</g>
<!-- Node21&#45;&gt;Node23 -->
<g id="edge32" class="edge">
<title>Node21&#45;&gt;Node23</title>
<path fill="none" stroke="midnightblue" d="M579.01,-292.85C696.35,-280.43 934.63,-255.2 1031.31,-244.97"/>
<polygon fill="midnightblue" stroke="midnightblue" points="1031.73,-248.44 1041.31,-243.91 1030.99,-241.48 1031.73,-248.44"/>
</g>
<!-- Node21&#45;&gt;Node24 -->
<g id="edge33" class="edge">
<title>Node21&#45;&gt;Node24</title>
<path fill="none" stroke="midnightblue" d="M461.93,-291.48C390.39,-279.17 260.09,-256.77 198.91,-246.25"/>
<polygon fill="midnightblue" stroke="midnightblue" points="199.46,-242.79 189.01,-244.54 198.27,-249.69 199.46,-242.79"/>
</g>
<!-- Node21&#45;&gt;Node25 -->
<g id="edge34" class="edge">
<title>Node21&#45;&gt;Node25</title>
<path fill="none" stroke="midnightblue" d="M481.56,-291.48C441.56,-280.09 371.17,-260.05 331.6,-248.79"/>
<polygon fill="midnightblue" stroke="midnightblue" points="332.36,-245.36 321.78,-245.99 330.44,-252.09 332.36,-245.36"/>
</g>
<!-- Node26 -->
<g id="node26" class="node">
<title>Node26</title>
<g id="a_node26"><a xlink:title=" ">
<polygon fill="white" stroke="#bfbfbf" points="377.5,-230 377.5,-249 421.5,-249 421.5,-230 377.5,-230"/>
<text text-anchor="middle" x="399.5" y="-237" font-family="Helvetica,sans-Serif" font-size="10.00">string</text>
</a>
</g>
</g>
<!-- Node21&#45;&gt;Node26 -->
<g id="edge35" class="edge">
<title>Node21&#45;&gt;Node26</title>
<path fill="none" stroke="midnightblue" d="M495.45,-291.48C476.91,-281.62 446.16,-265.29 424.48,-253.77"/>
<polygon fill="midnightblue" stroke="midnightblue" points="425.99,-250.61 415.52,-249.01 422.71,-256.79 425.99,-250.61"/>
</g>
<!-- Node27 -->
<g id="node27" class="node">
<title>Node27</title>
<g id="a_node27"><a xlink:title=" ">
<polygon fill="white" stroke="#bfbfbf" points="439.5,-230 439.5,-249 497.5,-249 497.5,-230 439.5,-230"/>
<text text-anchor="middle" x="468.5" y="-237" font-family="Helvetica,sans-Serif" font-size="10.00">memory</text>
</a>
</g>
</g>
<!-- Node21&#45;&gt;Node27 -->
<g id="edge36" class="edge">
<title>Node21&#45;&gt;Node27</title>
<path fill="none" stroke="midnightblue" d="M505.34,-291.48C498.89,-282.55 488.6,-268.31 480.53,-257.14"/>
<polygon fill="midnightblue" stroke="midnightblue" points="483.34,-255.06 474.65,-249.01 477.67,-259.16 483.34,-255.06"/>
</g>
<!-- Node22&#45;&gt;Node5 -->
<g id="edge29" class="edge">
<title>Node22&#45;&gt;Node5</title>
<path fill="none" stroke="midnightblue" d="M622.78,-229.98C621.07,-221.49 618.39,-208.2 616.2,-197.32"/>
<polygon fill="midnightblue" stroke="midnightblue" points="619.62,-196.62 614.22,-187.51 612.76,-198 619.62,-196.62"/>
</g>
<!-- Node22&#45;&gt;Node8 -->
<g id="edge31" class="edge">
<title>Node22&#45;&gt;Node8</title>
<path fill="none" stroke="midnightblue" d="M634.64,-229.88C661.96,-206.61 735.65,-143.47 744.5,-132 755.72,-117.47 764.81,-98.54 770.6,-84.86"/>
<polygon fill="midnightblue" stroke="midnightblue" points="773.84,-86.17 774.35,-75.58 767.35,-83.54 773.84,-86.17"/>
</g>
<!-- Node22&#45;&gt;Node19 -->
<g id="edge30" class="edge">
<title>Node22&#45;&gt;Node19</title>
<path fill="none" stroke="midnightblue" d="M608.04,-229.82C570.06,-209.79 476.08,-160.22 430.75,-136.32"/>
<polygon fill="midnightblue" stroke="midnightblue" points="432.33,-133.19 421.85,-131.62 429.07,-139.39 432.33,-133.19"/>
</g>
<!-- Node29&#45;&gt;Node6 -->
<g id="edge42" class="edge">
<title>Node29&#45;&gt;Node6</title>
<path fill="none" stroke="midnightblue" d="M1062.86,-112.12C1050.61,-99.55 1027.47,-75.9 1007.5,-56 997.69,-46.22 986.58,-35.35 977.75,-26.75"/>
<polygon fill="midnightblue" stroke="midnightblue" points="979.98,-24.04 970.37,-19.58 975.1,-29.06 979.98,-24.04"/>
</g>
<!-- Node29&#45;&gt;Node8 -->
<g id="edge43" class="edge">
<title>Node29&#45;&gt;Node8</title>
<path fill="none" stroke="midnightblue" d="M1024.91,-112.44C967.72,-101.94 871.68,-84.3 817.62,-74.37"/>
<polygon fill="midnightblue" stroke="midnightblue" points="818.18,-70.91 807.71,-72.55 816.91,-77.8 818.18,-70.91"/>
</g>
<!-- Node30&#45;&gt;Node6 -->
<g id="edge49" class="edge">
<title>Node30&#45;&gt;Node6</title>
<path fill="none" stroke="midnightblue" d="M909.68,-168.38C924.26,-161 943.01,-148.87 952.5,-132 970.68,-99.68 968.11,-54.59 964.74,-29.58"/>
<polygon fill="midnightblue" stroke="midnightblue" points="968.18,-28.97 963.2,-19.62 961.26,-30.04 968.18,-28.97"/>
</g>
<!-- Node30&#45;&gt;Node8 -->
<g id="edge50" class="edge">
<title>Node30&#45;&gt;Node8</title>
<path fill="none" stroke="midnightblue" d="M903.78,-168.29C922.57,-155.74 951.54,-131.88 936.5,-112 922.19,-93.08 860.02,-79.83 817.8,-72.81"/>
<polygon fill="midnightblue" stroke="midnightblue" points="818.23,-69.34 807.8,-71.21 817.12,-76.25 818.23,-69.34"/>
</g>
<!-- Node31 -->
<g id="node31" class="node">
<title>Node31</title>
<g id="a_node31"><a xlink:href="itkRealTimeInterval_8h.html" target="_top" xlink:title=" ">
<polygon fill="white" stroke="black" points="805.5,-112.5 805.5,-131.5 927.5,-131.5 927.5,-112.5 805.5,-112.5"/>
<text text-anchor="middle" x="866.5" y="-119.5" font-family="Helvetica,sans-Serif" font-size="10.00">itkRealTimeInterval.h</text>
</a>
</g>
</g>
<!-- Node30&#45;&gt;Node31 -->
<g id="edge45" class="edge">
<title>Node30&#45;&gt;Node31</title>
<path fill="none" stroke="midnightblue" d="M885.7,-168.08C882.59,-160.77 878.08,-150.18 874.21,-141.1"/>
<polygon fill="midnightblue" stroke="midnightblue" points="877.37,-139.58 870.23,-131.75 870.93,-142.32 877.37,-139.58"/>
</g>
<!-- Node31&#45;&gt;Node6 -->
<g id="edge47" class="edge">
<title>Node31&#45;&gt;Node6</title>
<path fill="none" stroke="midnightblue" d="M873.95,-112.37C889.77,-94.05 926.91,-51.05 947.37,-27.36"/>
<polygon fill="midnightblue" stroke="midnightblue" points="950.19,-29.45 954.08,-19.59 944.9,-24.87 950.19,-29.45"/>
</g>
<!-- Node31&#45;&gt;Node8 -->
<g id="edge48" class="edge">
<title>Node31&#45;&gt;Node8</title>
<path fill="none" stroke="midnightblue" d="M852.2,-112.32C838.32,-103.9 817.01,-90.97 800.7,-81.07"/>
<polygon fill="midnightblue" stroke="midnightblue" points="802.13,-77.85 791.76,-75.65 798.5,-83.83 802.13,-77.85"/>
</g>
<!-- Node31&#45;&gt;Node13 -->
<g id="edge46" class="edge">
<title>Node31&#45;&gt;Node13</title>
<path fill="none" stroke="midnightblue" d="M805.32,-113.26C720.24,-102.5 567.83,-83.23 489.3,-73.3"/>
<polygon fill="midnightblue" stroke="midnightblue" points="489.54,-69.8 479.18,-72.02 488.66,-76.74 489.54,-69.8"/>
</g>
<!-- Node33 -->
<g id="node33" class="node">
<title>Node33</title>
<g id="a_node33"><a xlink:href="itkObjectFactoryBase_8h.html" target="_top" xlink:title=" ">
<polygon fill="white" stroke="black" points="209,-459.5 209,-478.5 338,-478.5 338,-459.5 209,-459.5"/>
<text text-anchor="middle" x="273.5" y="-466.5" font-family="Helvetica,sans-Serif" font-size="10.00">itkObjectFactoryBase.h</text>
</a>
</g>
</g>
<!-- Node32&#45;&gt;Node33 -->
<g id="edge52" class="edge">
<title>Node32&#45;&gt;Node33</title>
<path fill="none" stroke="midnightblue" d="M283.52,-515.08C281.93,-507.93 279.64,-497.64 277.65,-488.69"/>
<polygon fill="midnightblue" stroke="midnightblue" points="281.03,-487.75 275.44,-478.75 274.2,-489.27 281.03,-487.75"/>
</g>
<!-- Node33&#45;&gt;Node17 -->
<g id="edge55" class="edge">
<title>Node33&#45;&gt;Node17</title>
<path fill="none" stroke="midnightblue" d="M264.67,-459.48C256.31,-450.96 243.97,-437.13 236.5,-423 222.43,-396.39 217.5,-388.1 217.5,-358 217.5,-358 217.5,-358 217.5,-177 217.5,-146.2 222.3,-136.07 241.5,-112 252.15,-98.65 267.88,-87.96 281.64,-80.35"/>
<polygon fill="midnightblue" stroke="midnightblue" points="283.51,-83.32 290.76,-75.59 280.27,-77.12 283.51,-83.32"/>
</g>
<!-- Node33&#45;&gt;Node24 -->
<g id="edge60" class="edge">
<title>Node33&#45;&gt;Node24</title>
<path fill="none" stroke="midnightblue" d="M251.47,-459.39C235.68,-452.07 215.21,-440.02 203.5,-423 168.24,-371.73 164.51,-294.53 164.84,-259.27"/>
<polygon fill="midnightblue" stroke="midnightblue" points="168.34,-259.09 165.06,-249.02 161.34,-258.94 168.34,-259.09"/>
</g>
<!-- Node34 -->
<g id="node34" class="node">
<title>Node34</title>
<g id="a_node34"><a xlink:href="itkCreateObjectFunction_8h.html" target="_top" xlink:title=" ">
<polygon fill="white" stroke="black" points="506,-403.5 506,-422.5 649,-422.5 649,-403.5 506,-403.5"/>
<text text-anchor="middle" x="577.5" y="-410.5" font-family="Helvetica,sans-Serif" font-size="10.00">itkCreateObjectFunction.h</text>
</a>
</g>
</g>
<!-- Node33&#45;&gt;Node34 -->
<g id="edge53" class="edge">
<title>Node33&#45;&gt;Node34</title>
<path fill="none" stroke="midnightblue" d="M321.67,-459.44C375.37,-449.9 462.19,-434.48 519.55,-424.29"/>
<polygon fill="midnightblue" stroke="midnightblue" points="520.32,-427.71 529.56,-422.52 519.1,-420.82 520.32,-427.71"/>
</g>
<!-- Node35 -->
<g id="node35" class="node">
<title>Node35</title>
<g id="a_node35"><a xlink:href="itkCommonEnums_8h.html" target="_top" xlink:title=" ">
<polygon fill="white" stroke="black" points="295.5,-403.5 295.5,-422.5 411.5,-422.5 411.5,-403.5 295.5,-403.5"/>
<text text-anchor="middle" x="353.5" y="-410.5" font-family="Helvetica,sans-Serif" font-size="10.00">itkCommonEnums.h</text>
</a>
</g>
</g>
<!-- Node33&#45;&gt;Node35 -->
<g id="edge56" class="edge">
<title>Node33&#45;&gt;Node35</title>
<path fill="none" stroke="midnightblue" d="M286.35,-459.32C298.72,-450.98 317.63,-438.21 332.24,-428.35"/>
<polygon fill="midnightblue" stroke="midnightblue" points="334.35,-431.15 340.68,-422.65 330.43,-425.35 334.35,-431.15"/>
</g>
<!-- Node37 -->
<g id="node37" class="node">
<title>Node37</title>
<g id="a_node37"><a xlink:title=" ">
<polygon fill="white" stroke="#bfbfbf" points="245.5,-403.5 245.5,-422.5 277.5,-422.5 277.5,-403.5 245.5,-403.5"/>
<text text-anchor="middle" x="261.5" y="-410.5" font-family="Helvetica,sans-Serif" font-size="10.00">list</text>
</a>
</g>
</g>
<!-- Node33&#45;&gt;Node37 -->
<g id="edge59" class="edge">
<title>Node33&#45;&gt;Node37</title>
<path fill="none" stroke="midnightblue" d="M271.52,-459.08C269.93,-451.93 267.64,-441.64 265.65,-432.69"/>
<polygon fill="midnightblue" stroke="midnightblue" points="269.03,-431.75 263.44,-422.75 262.2,-433.27 269.03,-431.75"/>
</g>
<!-- Node34&#45;&gt;Node4 -->
<g id="edge54" class="edge">
<title>Node34&#45;&gt;Node4</title>
<path fill="none" stroke="midnightblue" d="M577.5,-403.08C577.5,-396.01 577.5,-385.86 577.5,-376.99"/>
<polygon fill="midnightblue" stroke="midnightblue" points="581,-376.75 577.5,-366.75 574,-376.75 581,-376.75"/>
</g>
<!-- Node35&#45;&gt;Node13 -->
<g id="edge57" class="edge">
<title>Node35&#45;&gt;Node13</title>
<path fill="none" stroke="midnightblue" d="M377.53,-403.38C434.91,-382.56 576.07,-329.87 588.5,-311 593.39,-303.58 592.31,-299.03 588.5,-291 588.42,-290.83 506.65,-224.11 506.5,-224 447.22,-180.18 403.28,-196.99 368.5,-132 356.67,-109.89 383.11,-91.36 407.02,-79.82"/>
<polygon fill="midnightblue" stroke="midnightblue" points="408.65,-82.92 416.31,-75.6 405.75,-76.55 408.65,-82.92"/>
</g>
<!-- Node36 -->
<g id="node36" class="node">
<title>Node36</title>
<g id="a_node36"><a xlink:title=" ">
<polygon fill="white" stroke="#bfbfbf" points="316,-347.5 316,-366.5 373,-366.5 373,-347.5 316,-347.5"/>
<text text-anchor="middle" x="344.5" y="-354.5" font-family="Helvetica,sans-Serif" font-size="10.00">ostream</text>
</a>
</g>
</g>
<!-- Node35&#45;&gt;Node36 -->
<g id="edge58" class="edge">
<title>Node35&#45;&gt;Node36</title>
<path fill="none" stroke="midnightblue" d="M352.01,-403.08C350.82,-395.93 349.11,-385.64 347.62,-376.69"/>
<polygon fill="midnightblue" stroke="midnightblue" points="351.05,-376.04 345.96,-366.75 344.15,-377.19 351.05,-376.04"/>
</g>
<!-- Node38&#45;&gt;Node6 -->
<g id="edge63" class="edge">
<title>Node38&#45;&gt;Node6</title>
<path fill="none" stroke="midnightblue" d="M1375.71,-347.5C1461.58,-331.52 1627.5,-293.76 1627.5,-240.5 1627.5,-240.5 1627.5,-240.5 1627.5,-121 1627.5,-57.84 1155.22,-23.05 1006.07,-13.64"/>
<polygon fill="midnightblue" stroke="midnightblue" points="1006.1,-10.13 995.9,-13 1005.67,-17.12 1006.1,-10.13"/>
</g>
<!-- Node39 -->
<g id="node39" class="node">
<title>Node39</title>
<g id="a_node39"><a xlink:title=" ">
<polygon fill="white" stroke="#bfbfbf" points="1187.5,-291.5 1187.5,-310.5 1231.5,-310.5 1231.5,-291.5 1187.5,-291.5"/>
<text text-anchor="middle" x="1209.5" y="-298.5" font-family="Helvetica,sans-Serif" font-size="10.00">limits</text>
</a>
</g>
</g>
<!-- Node38&#45;&gt;Node39 -->
<g id="edge64" class="edge">
<title>Node38&#45;&gt;Node39</title>
<path fill="none" stroke="midnightblue" d="M1307.12,-347.44C1288.28,-338.68 1258.77,-324.94 1237.12,-314.86"/>
<polygon fill="midnightblue" stroke="midnightblue" points="1238.34,-311.56 1227.79,-310.52 1235.38,-317.91 1238.34,-311.56"/>
</g>
<!-- Node40 -->
<g id="node40" class="node">
<title>Node40</title>
<g id="a_node40"><a xlink:title=" ">
<polygon fill="white" stroke="#bfbfbf" points="1250,-291.5 1250,-310.5 1309,-310.5 1309,-291.5 1250,-291.5"/>
<text text-anchor="middle" x="1279.5" y="-298.5" font-family="Helvetica,sans-Serif" font-size="10.00">complex</text>
</a>
</g>
</g>
<!-- Node38&#45;&gt;Node40 -->
<g id="edge65" class="edge">
<title>Node38&#45;&gt;Node40</title>
<path fill="none" stroke="midnightblue" d="M1317.9,-347.08C1311.27,-339.3 1301.48,-327.8 1293.44,-318.37"/>
<polygon fill="midnightblue" stroke="midnightblue" points="1296.1,-316.09 1286.95,-310.75 1290.77,-320.63 1296.1,-316.09"/>
</g>
<!-- Node41 -->
<g id="node41" class="node">
<title>Node41</title>
<g id="a_node41"><a xlink:href="itkFixedArray_8h.html" target="_top" xlink:title=" ">
<polygon fill="white" stroke="black" points="1327,-291.5 1327,-310.5 1416,-310.5 1416,-291.5 1327,-291.5"/>
<text text-anchor="middle" x="1371.5" y="-298.5" font-family="Helvetica,sans-Serif" font-size="10.00">itkFixedArray.h</text>
</a>
</g>
</g>
<!-- Node38&#45;&gt;Node41 -->
<g id="edge66" class="edge">
<title>Node38&#45;&gt;Node41</title>
<path fill="none" stroke="midnightblue" d="M1333.1,-347.08C1339.73,-339.3 1349.52,-327.8 1357.56,-318.37"/>
<polygon fill="midnightblue" stroke="midnightblue" points="1360.23,-320.63 1364.05,-310.75 1354.9,-316.09 1360.23,-320.63"/>
</g>
<!-- Node41&#45;&gt;Node6 -->
<g id="edge67" class="edge">
<title>Node41&#45;&gt;Node6</title>
<path fill="none" stroke="midnightblue" d="M1379.45,-291.36C1386.95,-282.75 1398,-268.86 1404.5,-255 1419.29,-223.48 1423.5,-213.82 1423.5,-179 1423.5,-179 1423.5,-179 1423.5,-121 1423.5,-35.75 1122.03,-16.45 1006.14,-12.18"/>
<polygon fill="midnightblue" stroke="midnightblue" points="1005.96,-8.67 995.85,-11.82 1005.72,-15.67 1005.96,-8.67"/>
</g>
<!-- Node41&#45;&gt;Node23 -->
<g id="edge69" class="edge">
<title>Node41&#45;&gt;Node23</title>
<path fill="none" stroke="midnightblue" d="M1326.82,-292.34C1256.2,-280.19 1125.66,-257.63 1115.5,-255 1112.46,-254.21 1109.33,-253.31 1106.21,-252.35"/>
<polygon fill="midnightblue" stroke="midnightblue" points="1107,-248.93 1096.41,-249.14 1104.82,-255.58 1107,-248.93"/>
</g>
<!-- Node42 -->
<g id="node42" class="node">
<title>Node42</title>
<g id="a_node42"><a xlink:href="itkMakeFilled_8h.html" target="_top" xlink:title=" ">
<polygon fill="white" stroke="black" points="1124,-230 1124,-249 1215,-249 1215,-230 1124,-230"/>
<text text-anchor="middle" x="1169.5" y="-237" font-family="Helvetica,sans-Serif" font-size="10.00">itkMakeFilled.h</text>
</a>
</g>
</g>
<!-- Node41&#45;&gt;Node42 -->
<g id="edge68" class="edge">
<title>Node41&#45;&gt;Node42</title>
<path fill="none" stroke="midnightblue" d="M1342.56,-291.48C1307.23,-281.07 1247.37,-263.44 1208.14,-251.88"/>
<polygon fill="midnightblue" stroke="midnightblue" points="1208.97,-248.48 1198.39,-249.01 1206.99,-255.19 1208.97,-248.48"/>
</g>
<!-- Node43 -->
<g id="node43" class="node">
<title>Node43</title>
<g id="a_node43"><a xlink:title=" ">
<polygon fill="white" stroke="#bfbfbf" points="1233.5,-230 1233.5,-249 1275.5,-249 1275.5,-230 1233.5,-230"/>
<text text-anchor="middle" x="1254.5" y="-237" font-family="Helvetica,sans-Serif" font-size="10.00">array</text>
</a>
</g>
</g>
<!-- Node41&#45;&gt;Node43 -->
<g id="edge70" class="edge">
<title>Node41&#45;&gt;Node43</title>
<path fill="none" stroke="midnightblue" d="M1354.74,-291.48C1335.28,-281.58 1302.95,-265.14 1280.29,-253.62"/>
<polygon fill="midnightblue" stroke="midnightblue" points="1281.73,-250.42 1271.23,-249.01 1278.56,-256.66 1281.73,-250.42"/>
</g>
<!-- Node44 -->
<g id="node44" class="node">
<title>Node44</title>
<g id="a_node44"><a xlink:title=" ">
<polygon fill="white" stroke="#bfbfbf" points="1294,-230 1294,-249 1395,-249 1395,-230 1294,-230"/>
<text text-anchor="middle" x="1344.5" y="-237" font-family="Helvetica,sans-Serif" font-size="10.00">itkFixedArray.hxx</text>
</a>
</g>
</g>
<!-- Node41&#45;&gt;Node44 -->
<g id="edge71" class="edge">
<title>Node41&#45;&gt;Node44</title>
<path fill="none" stroke="midnightblue" d="M1367.63,-291.48C1363.7,-282.82 1357.5,-269.15 1352.51,-258.15"/>
<polygon fill="midnightblue" stroke="midnightblue" points="1355.68,-256.67 1348.36,-249.01 1349.31,-259.56 1355.68,-256.67"/>
</g>
<!-- Node45 -->
<g id="node45" class="node">
<title>Node45</title>
<g id="a_node45"><a xlink:href="itkNumericTraitsFixedArrayPixel_8h.html" target="_top" xlink:title=" ">
<polygon fill="white" stroke="black" points="1451,-224.5 1451,-254.5 1600,-254.5 1600,-224.5 1451,-224.5"/>
<text text-anchor="start" x="1459" y="-242.5" font-family="Helvetica,sans-Serif" font-size="10.00">itkNumericTraitsFixedArray</text>
<text text-anchor="middle" x="1525.5" y="-231.5" font-family="Helvetica,sans-Serif" font-size="10.00">Pixel.h</text>
</a>
</g>
</g>
<!-- Node41&#45;&gt;Node45 -->
<g id="edge72" class="edge">
<title>Node41&#45;&gt;Node45</title>
<path fill="none" stroke="midnightblue" d="M1388.66,-291.48C1409.28,-282.78 1444.43,-269.03 1474,-258"/>
<polygon fill="midnightblue" stroke="midnightblue" points="1475.21,-261.28 1483.38,-254.52 1472.78,-254.72 1475.21,-261.28"/>
</g>
<!-- Node45&#45;&gt;Node38 -->
<g id="edge73" class="edge">
<title>Node45&#45;&gt;Node38</title>
<path fill="none" stroke="midnightblue" d="M1507.76,-254.58C1488.29,-269.66 1455.76,-293.74 1425.5,-311 1403.47,-323.57 1377.3,-335.24 1357.25,-343.55"/>
<polygon fill="midnightblue" stroke="midnightblue" points="1355.88,-340.32 1347.95,-347.34 1358.53,-346.8 1355.88,-340.32"/>
</g>
<!-- Node45&#45;&gt;Node41 -->
<g id="edge74" class="edge">
<title>Node45&#45;&gt;Node41</title>
<path fill="none" stroke="midnightblue" d="M1495.04,-254.52C1470.03,-264.69 1434.71,-278.3 1408.17,-287.98"/>
<polygon fill="midnightblue" stroke="midnightblue" points="1406.68,-284.79 1398.47,-291.48 1409.06,-291.37 1406.68,-284.79"/>
</g>
<!-- Node46&#45;&gt;Node11 -->
<g id="edge77" class="edge">
<title>Node46&#45;&gt;Node11</title>
<path fill="none" stroke="midnightblue" d="M81.24,-571.37C68.88,-553.44 42.5,-510.44 42.5,-470 42.5,-470 42.5,-470 42.5,-177 42.5,-144.95 42.5,-107.64 42.5,-85.75"/>
<polygon fill="midnightblue" stroke="midnightblue" points="46,-85.56 42.5,-75.56 39,-85.56 46,-85.56"/>
</g>
<!-- Node47 -->
<g id="node47" class="node">
<title>Node47</title>
<g id="a_node47"><a xlink:title=" ">
<polygon fill="white" stroke="#bfbfbf" points="71,-515.5 71,-534.5 120,-534.5 120,-515.5 71,-515.5"/>
<text text-anchor="middle" x="95.5" y="-522.5" font-family="Helvetica,sans-Serif" font-size="10.00">cstdlib</text>
</a>
</g>
</g>
<!-- Node46&#45;&gt;Node47 -->
<g id="edge76" class="edge">
<title>Node46&#45;&gt;Node47</title>
<path fill="none" stroke="midnightblue" d="M88.82,-571.08C89.88,-563.93 91.41,-553.64 92.73,-544.69"/>
<polygon fill="midnightblue" stroke="midnightblue" points="96.2,-545.16 94.2,-534.75 89.28,-544.13 96.2,-545.16"/>
</g>
</g>
</svg>
