<?xml version="1.0" encoding="UTF-8" standalone="no"?>
<!DOCTYPE svg PUBLIC "-//W3C//DTD SVG 1.1//EN"
 "http://www.w3.org/Graphics/SVG/1.1/DTD/svg11.dtd">
<!-- Generated by graphviz version 2.43.0 (0)
 -->
<!-- Title: itkWatershedBoundary.h Pages: 1 -->
<svg width="562pt" height="263pt"
 viewBox="0.00 0.00 562.00 263.00" xmlns="http://www.w3.org/2000/svg" xmlns:xlink="http://www.w3.org/1999/xlink">
<g id="graph0" class="graph" transform="scale(1 1) rotate(0) translate(4 259)">
<title>itkWatershedBoundary.h</title>
<polygon fill="white" stroke="transparent" points="-4,4 -4,-259 558,-259 558,4 -4,4"/>
<!-- Node1 -->
<g id="node1" class="node">
<title>Node1</title>
<g id="a_node1"><a xlink:title=" ">
<polygon fill="#bfbfbf" stroke="black" points="184,-235.5 184,-254.5 319,-254.5 319,-235.5 184,-235.5"/>
<text text-anchor="middle" x="251.5" y="-242.5" font-family="Helvetica,sans-Serif" font-size="10.00">itkWatershedBoundary.h</text>
</a>
</g>
</g>
<!-- Node2 -->
<g id="node2" class="node">
<title>Node2</title>
<g id="a_node2"><a xlink:href="itkWatershedSegmenter_8h.html" target="_top" xlink:title=" ">
<polygon fill="white" stroke="black" points="180,-179.5 180,-198.5 323,-198.5 323,-179.5 180,-179.5"/>
<text text-anchor="middle" x="251.5" y="-186.5" font-family="Helvetica,sans-Serif" font-size="10.00">itkWatershedSegmenter.h</text>
</a>
</g>
</g>
<!-- Node1&#45;&gt;Node2 -->
<g id="edge1" class="edge">
<title>Node1&#45;&gt;Node2</title>
<path fill="none" stroke="midnightblue" d="M251.5,-224.8C251.5,-215.91 251.5,-205.78 251.5,-198.75"/>
<polygon fill="midnightblue" stroke="midnightblue" points="248,-225.08 251.5,-235.08 255,-225.08 248,-225.08"/>
</g>
<!-- Node3 -->
<g id="node3" class="node">
<title>Node3</title>
<g id="a_node3"><a xlink:href="itkWatershedRelabeler_8h.html" target="_top" xlink:title=" ">
<polygon fill="white" stroke="black" points="7.5,-123.5 7.5,-142.5 143.5,-142.5 143.5,-123.5 7.5,-123.5"/>
<text text-anchor="middle" x="75.5" y="-130.5" font-family="Helvetica,sans-Serif" font-size="10.00">itkWatershedRelabeler.h</text>
</a>
</g>
</g>
<!-- Node2&#45;&gt;Node3 -->
<g id="edge2" class="edge">
<title>Node2&#45;&gt;Node3</title>
<path fill="none" stroke="midnightblue" d="M213.81,-176.44C180.63,-166.26 133.07,-151.66 103.26,-142.52"/>
<polygon fill="midnightblue" stroke="midnightblue" points="213.03,-179.86 223.61,-179.44 215.08,-173.16 213.03,-179.86"/>
</g>
<!-- Node6 -->
<g id="node6" class="node">
<title>Node6</title>
<g id="a_node6"><a xlink:href="itkWatershedBoundaryResolver_8h.html" target="_top" xlink:title=" ">
<polygon fill="white" stroke="black" points="162,-123.5 162,-142.5 341,-142.5 341,-123.5 162,-123.5"/>
<text text-anchor="middle" x="251.5" y="-130.5" font-family="Helvetica,sans-Serif" font-size="10.00">itkWatershedBoundaryResolver.h</text>
</a>
</g>
</g>
<!-- Node2&#45;&gt;Node6 -->
<g id="edge5" class="edge">
<title>Node2&#45;&gt;Node6</title>
<path fill="none" stroke="midnightblue" d="M251.5,-168.8C251.5,-159.91 251.5,-149.78 251.5,-142.75"/>
<polygon fill="midnightblue" stroke="midnightblue" points="248,-169.08 251.5,-179.08 255,-169.08 248,-169.08"/>
</g>
<!-- Node7 -->
<g id="node7" class="node">
<title>Node7</title>
<g id="a_node7"><a xlink:href="itkWatershedEquivalenceRelabeler_8h.html" target="_top" xlink:title=" ">
<polygon fill="white" stroke="black" points="359,-123.5 359,-142.5 554,-142.5 554,-123.5 359,-123.5"/>
<text text-anchor="middle" x="456.5" y="-130.5" font-family="Helvetica,sans-Serif" font-size="10.00">itkWatershedEquivalenceRelabeler.h</text>
</a>
</g>
</g>
<!-- Node2&#45;&gt;Node7 -->
<g id="edge6" class="edge">
<title>Node2&#45;&gt;Node7</title>
<path fill="none" stroke="midnightblue" d="M293.91,-176.83C332.61,-166.63 388.99,-151.78 424.17,-142.52"/>
<polygon fill="midnightblue" stroke="midnightblue" points="292.76,-173.51 283.98,-179.44 294.54,-180.28 292.76,-173.51"/>
</g>
<!-- Node4 -->
<g id="node4" class="node">
<title>Node4</title>
<g id="a_node4"><a xlink:href="itkWatershedImageFilter_8h.html" target="_top" xlink:title=" ">
<polygon fill="white" stroke="black" points="3,-67.5 3,-86.5 148,-86.5 148,-67.5 3,-67.5"/>
<text text-anchor="middle" x="75.5" y="-74.5" font-family="Helvetica,sans-Serif" font-size="10.00">itkWatershedImageFilter.h</text>
</a>
</g>
</g>
<!-- Node3&#45;&gt;Node4 -->
<g id="edge3" class="edge">
<title>Node3&#45;&gt;Node4</title>
<path fill="none" stroke="midnightblue" d="M75.5,-112.8C75.5,-103.91 75.5,-93.78 75.5,-86.75"/>
<polygon fill="midnightblue" stroke="midnightblue" points="72,-113.08 75.5,-123.08 79,-113.08 72,-113.08"/>
</g>
<!-- Node5 -->
<g id="node5" class="node">
<title>Node5</title>
<g id="a_node5"><a xlink:href="itkIsolatedWatershedImageFilter_8h.html" target="_top" xlink:title=" ">
<polygon fill="white" stroke="black" points="0,-0.5 0,-30.5 151,-30.5 151,-0.5 0,-0.5"/>
<text text-anchor="start" x="8" y="-18.5" font-family="Helvetica,sans-Serif" font-size="10.00">itkIsolatedWatershedImage</text>
<text text-anchor="middle" x="75.5" y="-7.5" font-family="Helvetica,sans-Serif" font-size="10.00">Filter.h</text>
</a>
</g>
</g>
<!-- Node4&#45;&gt;Node5 -->
<g id="edge4" class="edge">
<title>Node4&#45;&gt;Node5</title>
<path fill="none" stroke="midnightblue" d="M75.5,-57.23C75.5,-48.59 75.5,-38.5 75.5,-30.52"/>
<polygon fill="midnightblue" stroke="midnightblue" points="72,-57.48 75.5,-67.48 79,-57.48 72,-57.48"/>
</g>
</g>
</svg>
