<?xml version="1.0" encoding="UTF-8" standalone="no"?>
<!DOCTYPE svg PUBLIC "-//W3C//DTD SVG 1.1//EN"
 "http://www.w3.org/Graphics/SVG/1.1/DTD/svg11.dtd">
<!-- Generated by graphviz version 2.43.0 (0)
 -->
<!-- Title: itk::ParallelSparseFieldLevelSetImageFilter&lt; TInputImage, TOutputImage &gt;::ThreadDataUnaligned Pages: 1 -->
<svg width="413pt" height="150pt"
 viewBox="0.00 0.00 412.50 150.00" xmlns="http://www.w3.org/2000/svg" xmlns:xlink="http://www.w3.org/1999/xlink">
<g id="graph0" class="graph" transform="scale(1 1) rotate(0) translate(4 146)">
<title>itk::ParallelSparseFieldLevelSetImageFilter&lt; TInputImage, TOutputImage &gt;::ThreadDataUnaligned</title>
<polygon fill="white" stroke="transparent" points="-4,4 -4,-146 408.5,-146 408.5,4 -4,4"/>
<!-- Node1 -->
<g id="node1" class="node">
<title>Node1</title>
<g id="a_node1"><a xlink:title=" ">
<polygon fill="#bfbfbf" stroke="black" points="129,-0.5 129,-41.5 342,-41.5 342,-0.5 129,-0.5"/>
<text text-anchor="start" x="137" y="-29.5" font-family="Helvetica,sans-Serif" font-size="10.00">itk::ParallelSparseField</text>
<text text-anchor="start" x="137" y="-18.5" font-family="Helvetica,sans-Serif" font-size="10.00">LevelSetImageFilter&lt; TInputImage,</text>
<text text-anchor="middle" x="235.5" y="-7.5" font-family="Helvetica,sans-Serif" font-size="10.00"> TOutputImage &gt;::ThreadDataUnaligned</text>
</a>
</g>
</g>
<!-- Node2 -->
<g id="node2" class="node">
<title>Node2</title>
<g id="a_node2"><a xlink:title=" ">
<polygon fill="white" stroke="#bfbfbf" points="0,-111.5 0,-141.5 141,-141.5 141,-111.5 0,-111.5"/>
<text text-anchor="start" x="8" y="-129.5" font-family="Helvetica,sans-Serif" font-size="10.00">std::vector&lt; LayerPointer</text>
<text text-anchor="middle" x="70.5" y="-118.5" font-family="Helvetica,sans-Serif" font-size="10.00">Type &gt;</text>
</a>
</g>
</g>
<!-- Node2&#45;&gt;Node1 -->
<g id="edge1" class="edge">
<title>Node2&#45;&gt;Node1</title>
<path fill="none" stroke="#9a32cd" stroke-dasharray="5,2" d="M71.79,-101.13C73.78,-87.3 78.52,-70.68 89.5,-60 100.58,-49.23 114.3,-41.4 128.87,-35.73"/>
<polygon fill="#9a32cd" stroke="#9a32cd" points="68.27,-101.14 70.7,-111.45 75.23,-101.87 68.27,-101.14"/>
<text text-anchor="middle" x="160.5" y="-79.5" font-family="Helvetica,sans-Serif" font-size="10.00"> m_LoadTransferBufferLayers</text>
<text text-anchor="middle" x="160.5" y="-68.5" font-family="Helvetica,sans-Serif" font-size="10.00">m_Layers</text>
</g>
<!-- Node3 -->
<g id="node3" class="node">
<title>Node3</title>
<g id="a_node3"><a xlink:title="STL class.">
<polygon fill="white" stroke="#bfbfbf" points="201,-117 201,-136 270,-136 270,-117 201,-117"/>
<text text-anchor="middle" x="235.5" y="-124" font-family="Helvetica,sans-Serif" font-size="10.00">std::mutex</text>
</a>
</g>
</g>
<!-- Node3&#45;&gt;Node1 -->
<g id="edge2" class="edge">
<title>Node3&#45;&gt;Node1</title>
<path fill="none" stroke="#9a32cd" stroke-dasharray="5,2" d="M235.5,-106.6C235.5,-88.19 235.5,-60.31 235.5,-41.65"/>
<polygon fill="#9a32cd" stroke="#9a32cd" points="232,-106.68 235.5,-116.68 239,-106.68 232,-106.68"/>
<text text-anchor="middle" x="256" y="-74" font-family="Helvetica,sans-Serif" font-size="10.00"> m_Lock</text>
</g>
<!-- Node4 -->
<g id="node4" class="node">
<title>Node4</title>
<g id="a_node4"><a xlink:href="classitk_1_1SmartPointer.html" target="_top" xlink:title=" ">
<polygon fill="white" stroke="black" points="288,-111.5 288,-141.5 395,-141.5 395,-111.5 288,-111.5"/>
<text text-anchor="start" x="296" y="-129.5" font-family="Helvetica,sans-Serif" font-size="10.00">itk::SmartPointer&lt;</text>
<text text-anchor="middle" x="341.5" y="-118.5" font-family="Helvetica,sans-Serif" font-size="10.00"> Self &gt;</text>
</a>
</g>
</g>
<!-- Node4&#45;&gt;Node1 -->
<g id="edge3" class="edge">
<title>Node4&#45;&gt;Node1</title>
<path fill="none" stroke="#9a32cd" stroke-dasharray="5,2" d="M322.57,-103.9C310.83,-90.82 295.22,-74.02 280.5,-60 273.98,-53.79 266.63,-47.36 259.79,-41.6"/>
<polygon fill="#9a32cd" stroke="#9a32cd" points="320.08,-106.36 329.34,-111.5 325.3,-101.7 320.08,-106.36"/>
<text text-anchor="middle" x="357.5" y="-85" font-family="Helvetica,sans-Serif" font-size="10.00"> UpList</text>
<text text-anchor="middle" x="357.5" y="-74" font-family="Helvetica,sans-Serif" font-size="10.00">DownList</text>
<text text-anchor="middle" x="357.5" y="-63" font-family="Helvetica,sans-Serif" font-size="10.00">m_LayerNodeStore</text>
</g>
</g>
</svg>
