<?xml version="1.0" encoding="UTF-8" standalone="no"?>
<!DOCTYPE svg PUBLIC "-//W3C//DTD SVG 1.1//EN"
 "http://www.w3.org/Graphics/SVG/1.1/DTD/svg11.dtd">
<!-- Generated by graphviz version 2.43.0 (0)
 -->
<!-- Title: itk::Statistics::KdTreeNode&lt; TSample &gt; Pages: 1 -->
<svg width="398pt" height="137pt"
 viewBox="0.00 0.00 398.00 137.00" xmlns="http://www.w3.org/2000/svg" xmlns:xlink="http://www.w3.org/1999/xlink">
<g id="graph0" class="graph" transform="scale(1 1) rotate(0) translate(4 133)">
<title>itk::Statistics::KdTreeNode&lt; TSample &gt;</title>
<polygon fill="white" stroke="transparent" points="-4,4 -4,-133 394,-133 394,4 -4,4"/>
<!-- Node1 -->
<g id="node1" class="node">
<title>Node1</title>
<g id="a_node1"><a xlink:title="This class defines the interface of its derived classes.">
<polygon fill="#bfbfbf" stroke="black" points="0,-49.5 0,-79.5 145,-79.5 145,-49.5 0,-49.5"/>
<text text-anchor="start" x="8" y="-67.5" font-family="Helvetica,sans-Serif" font-size="10.00">itk::Statistics::KdTreeNode</text>
<text text-anchor="middle" x="72.5" y="-56.5" font-family="Helvetica,sans-Serif" font-size="10.00">&lt; TSample &gt;</text>
</a>
</g>
</g>
<!-- Node2 -->
<g id="node2" class="node">
<title>Node2</title>
<g id="a_node2"><a xlink:href="structitk_1_1Statistics_1_1KdTreeNonterminalNode.html" target="_top" xlink:title="This is a subclass of the KdTreeNode.">
<polygon fill="white" stroke="black" points="195.5,-98.5 195.5,-128.5 375.5,-128.5 375.5,-98.5 195.5,-98.5"/>
<text text-anchor="start" x="203.5" y="-116.5" font-family="Helvetica,sans-Serif" font-size="10.00">itk::Statistics::KdTreeNonterminal</text>
<text text-anchor="middle" x="285.5" y="-105.5" font-family="Helvetica,sans-Serif" font-size="10.00">Node&lt; TSample &gt;</text>
</a>
</g>
</g>
<!-- Node1&#45;&gt;Node2 -->
<g id="edge1" class="edge">
<title>Node1&#45;&gt;Node2</title>
<path fill="none" stroke="midnightblue" d="M148.08,-81.85C159.12,-84.42 170.35,-87.03 181,-89.5 193.49,-92.4 206.82,-95.49 219.63,-98.46"/>
<polygon fill="midnightblue" stroke="midnightblue" points="148.55,-78.37 138.02,-79.51 146.97,-85.18 148.55,-78.37"/>
</g>
<!-- Node3 -->
<g id="node3" class="node">
<title>Node3</title>
<g id="a_node3"><a xlink:href="structitk_1_1Statistics_1_1KdTreeTerminalNode.html" target="_top" xlink:title="This class is the node that doesn&#39;t have any child node. The IsTerminal method returns true for this ...">
<polygon fill="white" stroke="black" points="205,-49.5 205,-79.5 366,-79.5 366,-49.5 205,-49.5"/>
<text text-anchor="start" x="213" y="-67.5" font-family="Helvetica,sans-Serif" font-size="10.00">itk::Statistics::KdTreeTerminal</text>
<text text-anchor="middle" x="285.5" y="-56.5" font-family="Helvetica,sans-Serif" font-size="10.00">Node&lt; TSample &gt;</text>
</a>
</g>
</g>
<!-- Node1&#45;&gt;Node3 -->
<g id="edge2" class="edge">
<title>Node1&#45;&gt;Node3</title>
<path fill="none" stroke="midnightblue" d="M155.68,-64.5C171.77,-64.5 188.62,-64.5 204.64,-64.5"/>
<polygon fill="midnightblue" stroke="midnightblue" points="155.23,-61 145.23,-64.5 155.23,-68 155.23,-61"/>
</g>
<!-- Node4 -->
<g id="node4" class="node">
<title>Node4</title>
<g id="a_node4"><a xlink:href="structitk_1_1Statistics_1_1KdTreeWeightedCentroidNonterminalNode.html" target="_top" xlink:title="This is a subclass of the KdTreeNode.">
<polygon fill="white" stroke="black" points="181,-0.5 181,-30.5 390,-30.5 390,-0.5 181,-0.5"/>
<text text-anchor="start" x="189" y="-18.5" font-family="Helvetica,sans-Serif" font-size="10.00">itk::Statistics::KdTreeWeighted</text>
<text text-anchor="middle" x="285.5" y="-7.5" font-family="Helvetica,sans-Serif" font-size="10.00">CentroidNonterminalNode&lt; TSample &gt;</text>
</a>
</g>
</g>
<!-- Node1&#45;&gt;Node4 -->
<g id="edge3" class="edge">
<title>Node1&#45;&gt;Node4</title>
<path fill="none" stroke="midnightblue" d="M148.13,-47.17C171.56,-41.73 197.21,-35.77 219.88,-30.51"/>
<polygon fill="midnightblue" stroke="midnightblue" points="147.19,-43.79 138.24,-49.47 148.77,-50.61 147.19,-43.79"/>
</g>
</g>
</svg>
