<?xml version="1.0" encoding="UTF-8" standalone="no"?>
<!DOCTYPE svg PUBLIC "-//W3C//DTD SVG 1.1//EN"
 "http://www.w3.org/Graphics/SVG/1.1/DTD/svg11.dtd">
<!-- Generated by graphviz version 2.43.0 (0)
 -->
<!-- Title: itk::ObjectFactoryBase::OverrideInformation Pages: 1 -->
<svg width="267pt" height="196pt"
 viewBox="0.00 0.00 266.50 196.00" xmlns="http://www.w3.org/2000/svg" xmlns:xlink="http://www.w3.org/1999/xlink">
<g id="graph0" class="graph" transform="scale(1 1) rotate(0) translate(4 192)">
<title>itk::ObjectFactoryBase::OverrideInformation</title>
<polygon fill="white" stroke="transparent" points="-4,4 -4,-192 262.5,-192 262.5,4 -4,4"/>
<!-- Node1 -->
<g id="node1" class="node">
<title>Node1</title>
<g id="a_node1"><a xlink:title="Internal implementation class for ObjectFactorBase.">
<polygon fill="#bfbfbf" stroke="black" points="42.5,-0.5 42.5,-30.5 168.5,-30.5 168.5,-0.5 42.5,-0.5"/>
<text text-anchor="start" x="50.5" y="-18.5" font-family="Helvetica,sans-Serif" font-size="10.00">itk::ObjectFactoryBase</text>
<text text-anchor="middle" x="105.5" y="-7.5" font-family="Helvetica,sans-Serif" font-size="10.00">::OverrideInformation</text>
</a>
</g>
</g>
<!-- Node2 -->
<g id="node2" class="node">
<title>Node2</title>
<g id="a_node2"><a xlink:href="classitk_1_1SmartPointer.html" target="_top" xlink:title=" ">
<polygon fill="white" stroke="black" points="0,-89.5 0,-119.5 107,-119.5 107,-89.5 0,-89.5"/>
<text text-anchor="start" x="8" y="-107.5" font-family="Helvetica,sans-Serif" font-size="10.00">itk::SmartPointer&lt;</text>
<text text-anchor="middle" x="53.5" y="-96.5" font-family="Helvetica,sans-Serif" font-size="10.00"> Self &gt;</text>
</a>
</g>
</g>
<!-- Node2&#45;&gt;Node1 -->
<g id="edge1" class="edge">
<title>Node2&#45;&gt;Node1</title>
<path fill="none" stroke="#9a32cd" stroke-dasharray="5,2" d="M49.12,-79.04C48.53,-69.15 49.47,-57.97 54.5,-49 58.76,-41.4 65.62,-35.31 72.94,-30.55"/>
<polygon fill="#9a32cd" stroke="#9a32cd" points="45.65,-79.55 50.23,-89.11 52.61,-78.78 45.65,-79.55"/>
<text text-anchor="middle" x="95.5" y="-57.5" font-family="Helvetica,sans-Serif" font-size="10.00"> m_CreateObject</text>
</g>
<!-- Node3 -->
<g id="node3" class="node">
<title>Node3</title>
<g id="a_node3"><a xlink:title="STL class.">
<polygon fill="white" stroke="#bfbfbf" points="126,-95 126,-114 191,-114 191,-95 126,-95"/>
<text text-anchor="middle" x="158.5" y="-102" font-family="Helvetica,sans-Serif" font-size="10.00">std::string</text>
</a>
</g>
</g>
<!-- Node3&#45;&gt;Node1 -->
<g id="edge2" class="edge">
<title>Node3&#45;&gt;Node1</title>
<path fill="none" stroke="#9a32cd" stroke-dasharray="5,2" d="M153.02,-85.12C149.29,-74.13 143.72,-60.19 136.5,-49 132.27,-42.45 126.62,-36.05 121.3,-30.7"/>
<polygon fill="#9a32cd" stroke="#9a32cd" points="149.77,-86.43 156.14,-94.9 156.44,-84.31 149.77,-86.43"/>
<text text-anchor="middle" x="202.5" y="-63" font-family="Helvetica,sans-Serif" font-size="10.00"> m_OverrideWithName</text>
<text text-anchor="middle" x="202.5" y="-52" font-family="Helvetica,sans-Serif" font-size="10.00">m_Description</text>
</g>
<!-- Node4 -->
<g id="node4" class="node">
<title>Node4</title>
<g id="a_node4"><a xlink:title="STL class.">
<polygon fill="white" stroke="#bfbfbf" points="106.5,-157.5 106.5,-187.5 210.5,-187.5 210.5,-157.5 106.5,-157.5"/>
<text text-anchor="start" x="114.5" y="-175.5" font-family="Helvetica,sans-Serif" font-size="10.00">std::basic_string&lt;</text>
<text text-anchor="middle" x="158.5" y="-164.5" font-family="Helvetica,sans-Serif" font-size="10.00"> char &gt;</text>
</a>
</g>
</g>
<!-- Node4&#45;&gt;Node3 -->
<g id="edge3" class="edge">
<title>Node4&#45;&gt;Node3</title>
<path fill="none" stroke="midnightblue" d="M158.5,-146.88C158.5,-135.47 158.5,-122.64 158.5,-114.33"/>
<polygon fill="midnightblue" stroke="midnightblue" points="155,-147.18 158.5,-157.18 162,-147.18 155,-147.18"/>
</g>
</g>
</svg>
