<?xml version="1.0" encoding="UTF-8" standalone="no"?>
<!DOCTYPE svg PUBLIC "-//W3C//DTD SVG 1.1//EN"
 "http://www.w3.org/Graphics/SVG/1.1/DTD/svg11.dtd">
<!-- Generated by graphviz version 2.43.0 (0)
 -->
<!-- Title: itk::MatchCardinalityImageToImageMetric&lt; TFixedImage, TMovingImage &gt;::ThreadStruct Pages: 1 -->
<svg width="180pt" height="128pt"
 viewBox="0.00 0.00 180.00 128.00" xmlns="http://www.w3.org/2000/svg" xmlns:xlink="http://www.w3.org/1999/xlink">
<g id="graph0" class="graph" transform="scale(1 1) rotate(0) translate(4 124)">
<title>itk::MatchCardinalityImageToImageMetric&lt; TFixedImage, TMovingImage &gt;::ThreadStruct</title>
<polygon fill="white" stroke="transparent" points="-4,4 -4,-124 176,-124 176,4 -4,4"/>
<!-- Node1 -->
<g id="node1" class="node">
<title>Node1</title>
<g id="a_node1"><a xlink:title=" ">
<polygon fill="#bfbfbf" stroke="black" points="0,-0.5 0,-41.5 172,-41.5 172,-0.5 0,-0.5"/>
<text text-anchor="start" x="8" y="-29.5" font-family="Helvetica,sans-Serif" font-size="10.00">itk::MatchCardinalityImage</text>
<text text-anchor="start" x="8" y="-18.5" font-family="Helvetica,sans-Serif" font-size="10.00">ToImageMetric&lt; TFixedImage,</text>
<text text-anchor="middle" x="86" y="-7.5" font-family="Helvetica,sans-Serif" font-size="10.00"> TMovingImage &gt;::ThreadStruct</text>
</a>
</g>
</g>
<!-- Node2 -->
<g id="node2" class="node">
<title>Node2</title>
<g id="a_node2"><a xlink:href="classitk_1_1SmartPointer.html" target="_top" xlink:title=" ">
<polygon fill="white" stroke="black" points="32.5,-89.5 32.5,-119.5 139.5,-119.5 139.5,-89.5 32.5,-89.5"/>
<text text-anchor="start" x="40.5" y="-107.5" font-family="Helvetica,sans-Serif" font-size="10.00">itk::SmartPointer&lt;</text>
<text text-anchor="middle" x="86" y="-96.5" font-family="Helvetica,sans-Serif" font-size="10.00"> Self &gt;</text>
</a>
</g>
</g>
<!-- Node2&#45;&gt;Node1 -->
<g id="edge1" class="edge">
<title>Node2&#45;&gt;Node1</title>
<path fill="none" stroke="#9a32cd" stroke-dasharray="5,2" d="M86,-79.07C86,-67.06 86,-52.79 86,-41.53"/>
<polygon fill="#9a32cd" stroke="#9a32cd" points="82.5,-79.3 86,-89.3 89.5,-79.3 82.5,-79.3"/>
<text text-anchor="middle" x="103" y="-63" font-family="Helvetica,sans-Serif" font-size="10.00"> Metric</text>
</g>
</g>
</svg>
