<?xml version="1.0" encoding="UTF-8" standalone="no"?>
<!DOCTYPE svg PUBLIC "-//W3C//DTD SVG 1.1//EN"
 "http://www.w3.org/Graphics/SVG/1.1/DTD/svg11.dtd">
<!-- Generated by graphviz version 2.43.0 (0)
 -->
<!-- Title: Details::op::CanBeMultiplied&lt; TExpr1, TExpr2 &gt; Pages: 1 -->
<svg width="416pt" height="72pt"
 viewBox="0.00 0.00 416.00 72.00" xmlns="http://www.w3.org/2000/svg" xmlns:xlink="http://www.w3.org/1999/xlink">
<g id="graph0" class="graph" transform="scale(1 1) rotate(0) translate(4 68)">
<title>Details::op::CanBeMultiplied&lt; TExpr1, TExpr2 &gt;</title>
<polygon fill="white" stroke="transparent" points="-4,4 -4,-68 412,-68 412,4 -4,4"/>
<!-- Node1 -->
<g id="node1" class="node">
<title>Node1</title>
<g id="a_node1"><a xlink:title=" ">
<polygon fill="#bfbfbf" stroke="black" points="253,-17 253,-47 408,-47 408,-17 253,-17"/>
<text text-anchor="start" x="261" y="-35" font-family="Helvetica,sans-Serif" font-size="10.00">Details::op::CanBeMultiplied</text>
<text text-anchor="middle" x="330.5" y="-24" font-family="Helvetica,sans-Serif" font-size="10.00">&lt; TExpr1, TExpr2 &gt;</text>
</a>
</g>
</g>
<!-- Node2 -->
<g id="node2" class="node">
<title>Node2</title>
<g id="a_node2"><a xlink:title=" ">
<polygon fill="white" stroke="#bfbfbf" points="0,-0.5 0,-63.5 217,-63.5 217,-0.5 0,-0.5"/>
<text text-anchor="start" x="8" y="-51.5" font-family="Helvetica,sans-Serif" font-size="10.00">mpl::Or&lt; mpl::And&lt;</text>
<text text-anchor="start" x="8" y="-40.5" font-family="Helvetica,sans-Serif" font-size="10.00"> mpl::IsArray&lt; TExpr1</text>
<text text-anchor="start" x="8" y="-29.5" font-family="Helvetica,sans-Serif" font-size="10.00"> &gt;, mpl::IsNumber&lt; TExpr2</text>
<text text-anchor="start" x="8" y="-18.5" font-family="Helvetica,sans-Serif" font-size="10.00"> &gt; &gt;, mpl::And&lt; mpl::IsNumber</text>
<text text-anchor="middle" x="108.5" y="-7.5" font-family="Helvetica,sans-Serif" font-size="10.00">&lt; TExpr1 &gt;, mpl::IsArray&lt; TExpr2 &gt; &gt; &gt;</text>
</a>
</g>
</g>
<!-- Node2&#45;&gt;Node1 -->
<g id="edge1" class="edge">
<title>Node2&#45;&gt;Node1</title>
<path fill="none" stroke="midnightblue" d="M227.34,-32C235.93,-32 244.46,-32 252.71,-32"/>
<polygon fill="midnightblue" stroke="midnightblue" points="227.24,-28.5 217.24,-32 227.24,-35.5 227.24,-28.5"/>
</g>
</g>
</svg>
