<?xml version="1.0" encoding="UTF-8" standalone="no"?>
<!DOCTYPE svg PUBLIC "-//W3C//DTD SVG 1.1//EN"
 "http://www.w3.org/Graphics/SVG/1.1/DTD/svg11.dtd">
<!-- Generated by graphviz version 2.43.0 (0)
 -->
<!-- Title: itk::ImageToImageFilterDetail::DispatchBase Pages: 1 -->
<svg width="366pt" height="149pt"
 viewBox="0.00 0.00 366.00 148.50" xmlns="http://www.w3.org/2000/svg" xmlns:xlink="http://www.w3.org/1999/xlink">
<g id="graph0" class="graph" transform="scale(1 1) rotate(0) translate(4 144.5)">
<title>itk::ImageToImageFilterDetail::DispatchBase</title>
<polygon fill="white" stroke="transparent" points="-4,4 -4,-144.5 362,-144.5 362,4 -4,4"/>
<!-- Node1 -->
<g id="node1" class="node">
<title>Node1</title>
<g id="a_node1"><a xlink:title="Base class for a class used to dispatch to dimension specific implementations.">
<polygon fill="#bfbfbf" stroke="black" points="0,-49.5 0,-79.5 161,-79.5 161,-49.5 0,-49.5"/>
<text text-anchor="start" x="8" y="-67.5" font-family="Helvetica,sans-Serif" font-size="10.00">itk::ImageToImageFilterDetail</text>
<text text-anchor="middle" x="80.5" y="-56.5" font-family="Helvetica,sans-Serif" font-size="10.00">::DispatchBase</text>
</a>
</g>
</g>
<!-- Node2 -->
<g id="node2" class="node">
<title>Node2</title>
<g id="a_node2"><a xlink:href="structitk_1_1ImageToImageFilterDetail_1_1BinaryUnsignedIntDispatch.html" target="_top" xlink:title="Templated class to produce a unique type for a pairing of unsigned integers (usually two dimensions).">
<polygon fill="white" stroke="black" points="197,-99 197,-140 358,-140 358,-99 197,-99"/>
<text text-anchor="start" x="205" y="-128" font-family="Helvetica,sans-Serif" font-size="10.00">itk::ImageToImageFilterDetail</text>
<text text-anchor="start" x="205" y="-117" font-family="Helvetica,sans-Serif" font-size="10.00">::BinaryUnsignedIntDispatch</text>
<text text-anchor="middle" x="277.5" y="-106" font-family="Helvetica,sans-Serif" font-size="10.00">&lt; D1, D2 &gt;</text>
</a>
</g>
</g>
<!-- Node1&#45;&gt;Node2 -->
<g id="edge1" class="edge">
<title>Node1&#45;&gt;Node2</title>
<path fill="none" stroke="midnightblue" d="M144.44,-82.25C163.29,-87.57 184.11,-93.44 203.54,-98.92"/>
<polygon fill="midnightblue" stroke="midnightblue" points="145.36,-78.88 134.78,-79.53 143.46,-85.61 145.36,-78.88"/>
</g>
<!-- Node3 -->
<g id="node3" class="node">
<title>Node3</title>
<g id="a_node3"><a xlink:href="structitk_1_1ImageToImageFilterDetail_1_1IntDispatch.html" target="_top" xlink:title="Templated class to produce a unique type for each integer.">
<polygon fill="white" stroke="black" points="197,-49.5 197,-79.5 358,-79.5 358,-49.5 197,-49.5"/>
<text text-anchor="start" x="205" y="-67.5" font-family="Helvetica,sans-Serif" font-size="10.00">itk::ImageToImageFilterDetail</text>
<text text-anchor="middle" x="277.5" y="-56.5" font-family="Helvetica,sans-Serif" font-size="10.00">::IntDispatch&lt; int &gt;</text>
</a>
</g>
</g>
<!-- Node1&#45;&gt;Node3 -->
<g id="edge2" class="edge">
<title>Node1&#45;&gt;Node3</title>
<path fill="none" stroke="midnightblue" d="M171.12,-64.5C179.7,-64.5 188.36,-64.5 196.84,-64.5"/>
<polygon fill="midnightblue" stroke="midnightblue" points="171.1,-61 161.1,-64.5 171.1,-68 171.1,-61"/>
</g>
<!-- Node4 -->
<g id="node4" class="node">
<title>Node4</title>
<g id="a_node4"><a xlink:href="structitk_1_1ImageToImageFilterDetail_1_1UnsignedIntDispatch.html" target="_top" xlink:title="Templated class to produce a unique type for each unsigned integer (usually a dimension).">
<polygon fill="white" stroke="black" points="197,-0.5 197,-30.5 358,-30.5 358,-0.5 197,-0.5"/>
<text text-anchor="start" x="205" y="-18.5" font-family="Helvetica,sans-Serif" font-size="10.00">itk::ImageToImageFilterDetail</text>
<text text-anchor="middle" x="277.5" y="-7.5" font-family="Helvetica,sans-Serif" font-size="10.00">::UnsignedIntDispatch&lt; int &gt;</text>
</a>
</g>
</g>
<!-- Node1&#45;&gt;Node4 -->
<g id="edge3" class="edge">
<title>Node1&#45;&gt;Node4</title>
<path fill="none" stroke="midnightblue" d="M151.05,-47.02C172.54,-41.62 196.01,-35.72 216.78,-30.51"/>
<polygon fill="midnightblue" stroke="midnightblue" points="150.18,-43.63 141.33,-49.47 151.88,-50.42 150.18,-43.63"/>
</g>
</g>
</svg>
