<?xml version="1.0" encoding="UTF-8" standalone="no"?>
<!DOCTYPE svg PUBLIC "-//W3C//DTD SVG 1.1//EN"
 "http://www.w3.org/Graphics/SVG/1.1/DTD/svg11.dtd">
<!-- Generated by graphviz version 2.43.0 (0)
 -->
<!-- Title: itk::Statistics::KdTreeNonterminalNode&lt; TSample &gt; Pages: 1 -->
<svg width="188pt" height="128pt"
 viewBox="0.00 0.00 188.00 128.00" xmlns="http://www.w3.org/2000/svg" xmlns:xlink="http://www.w3.org/1999/xlink">
<g id="graph0" class="graph" transform="scale(1 1) rotate(0) translate(4 124)">
<title>itk::Statistics::KdTreeNonterminalNode&lt; TSample &gt;</title>
<polygon fill="white" stroke="transparent" points="-4,4 -4,-124 184,-124 184,4 -4,4"/>
<!-- Node1 -->
<g id="node1" class="node">
<title>Node1</title>
<g id="a_node1"><a xlink:title="This is a subclass of the KdTreeNode.">
<polygon fill="#bfbfbf" stroke="black" points="0,-0.5 0,-30.5 180,-30.5 180,-0.5 0,-0.5"/>
<text text-anchor="start" x="8" y="-18.5" font-family="Helvetica,sans-Serif" font-size="10.00">itk::Statistics::KdTreeNonterminal</text>
<text text-anchor="middle" x="90" y="-7.5" font-family="Helvetica,sans-Serif" font-size="10.00">Node&lt; TSample &gt;</text>
</a>
</g>
</g>
<!-- Node2 -->
<g id="node2" class="node">
<title>Node2</title>
<g id="a_node2"><a xlink:href="structitk_1_1Statistics_1_1KdTreeNode.html" target="_top" xlink:title="This class defines the interface of its derived classes.">
<polygon fill="white" stroke="black" points="17.5,-89.5 17.5,-119.5 162.5,-119.5 162.5,-89.5 17.5,-89.5"/>
<text text-anchor="start" x="25.5" y="-107.5" font-family="Helvetica,sans-Serif" font-size="10.00">itk::Statistics::KdTreeNode</text>
<text text-anchor="middle" x="90" y="-96.5" font-family="Helvetica,sans-Serif" font-size="10.00">&lt; TSample &gt;</text>
</a>
</g>
</g>
<!-- Node2&#45;&gt;Node1 -->
<g id="edge1" class="edge">
<title>Node2&#45;&gt;Node1</title>
<path fill="none" stroke="midnightblue" d="M88.34,-79.08C88.2,-76.36 88.08,-73.62 88,-71 87.7,-61.23 87.7,-58.77 88,-49 88.18,-43.01 88.56,-36.41 88.93,-30.73"/>
<polygon fill="midnightblue" stroke="midnightblue" points="84.85,-79.49 88.93,-89.27 91.84,-79.08 84.85,-79.49"/>
</g>
<!-- Node2&#45;&gt;Node1 -->
<g id="edge2" class="edge">
<title>Node2&#45;&gt;Node1</title>
<path fill="none" stroke="#9a32cd" stroke-dasharray="5,2" d="M90,-79.09C90,-63.44 90,-43.68 90,-30.6"/>
<polygon fill="#9a32cd" stroke="#9a32cd" points="86.5,-79.13 90,-89.13 93.5,-79.13 86.5,-79.13"/>
<text text-anchor="middle" x="112" y="-63" font-family="Helvetica,sans-Serif" font-size="10.00"> m_Right</text>
<text text-anchor="middle" x="112" y="-52" font-family="Helvetica,sans-Serif" font-size="10.00">m_Left</text>
</g>
</g>
</svg>
